<svg xmlns="http://www.w3.org/2000/svg" viewBox="0 0 24 24"><path fill="#44739e" d="m16.502 8.263 2.12 6.121h1.467L22 8.263h-1.074l-1.57 4.767-1.546-4.767Zm-5.474 0h4.897v.897h-1.781l-.052 5.224h-1.23V9.16h-1.834Zm-1.242 7.476v-.42H8.704c.435-.427.999-.946.999-1.511a.733.733 0 0 0-.834-.778 1.8 1.8 0 0 0-.791.191l.043.442a1.15 1.15 0 0 1 .614-.214c.217 0 .436.114.436.359 0 .488-.905 1.244-1.153 1.485v.446Zm-7.78-4.327a3.062 3.062 0 1 0 6.122 0 2.97 2.97 0 0 0-3.056-3.149 2.97 2.97 0 0 0-3.066 3.149m1.179 0A2.054 2.054 0 0 1 5.072 9.16a2.053 2.053 0 0 1 1.875 2.252 2.015 2.015 0 0 1-1.875 2.252 2.02 2.02 0 0 1-1.887-2.252"/></svg>