<?xml version="1.0" encoding="UTF-8"?>
<svg width="24px" fill="#44739e" height="24px" viewBox="0 0 24 24" version="1.1" xmlns="http://www.w3.org/2000/svg" xmlns:xlink="http://www.w3.org/1999/xlink">
            <path d="m 5.4125449,1.149361 c 0.8020366,5.4143984 5.3119581,2.4189156 5.5344521,7.2054209 l 0.07105,1.528487 C 10.767665,9.4097565 10.192079,8.6543414 9.7176202,8.5245677 8.8357296,8.8301192 8.0329691,9.6742687 7.0907451,10.639894 c -0.5806235,-0.406539 -1.722264,0.230459 -1.8892955,0.360665 -0.08605,0.872687 0.5350548,2.084108 2.0008348,2.409628 0,0 0.8550139,-0.470176 0.7433897,-1.845695 0.723968,-0.643945 0.9743042,-0.867528 1.5946032,-1.34399 0.211459,0.138551 1.0560027,1.258034 1.4761897,2.211568 l -0.06947,7.481692 v 0.104706 c 0,0.209411 0,0.314117 -0.199513,0.418823 -0.71824,0.556595 -1.9073299,1.005728 -3.1881941,1.036038 -0.6025261,0.203901 -0.9217441,0.137771 -0.9137635,0.619969 0.7022802,0.385759 0.8459285,0.29483 1.651956,0.402291 1.3327384,0.170836 2.1946276,0.03031 3.8226426,0.03031 1.504317,0 1.592102,0.04684 3.180214,0.0083 0.806027,-0.10195 1.504318,0.04133 2.206598,-0.371981 0.399024,-0.62548 -0.02792,-0.498731 -0.35912,-0.647523 -0.993568,-0.06613 -3.443569,-0.537307 -3.79072,-1.080125 -0.199512,-0.104706 -0.199512,-0.311362 -0.199512,-0.416068 v -0.104706 0 V 8.3547766 C 13.556608,3.772516 17.343339,6.5775327 18.145376,1.1603788 16.904412,1.1273138 8.2735404,1.1493568 5.4125449,1.1493568 Z"/>

</svg>