<svg xmlns="http://www.w3.org/2000/svg" viewBox="0 0 24 24"><path fill="#44739e" d="M6.164 2.007c.748 5.051 4.955 2.256 5.162 6.722l.067 1.425c-.234-.441-.771-1.146-1.213-1.266-.823.284-1.572 1.072-2.451 1.973-.541-.38-1.607.214-1.763.336-.08.814.5 1.945 1.867 2.248 0 0 .797-.439.694-1.722.675-.6.908-.809 1.487-1.253.197.129.985 1.173 1.377 2.063l-.065 6.98v.097c0 .196 0 .294-.186.391-.67.519-1.779.938-2.974.966-.562.19-.86.129-.852.578.655.361.788.276 1.54.376 1.244.159 2.048.028 3.567.028 1.403 0 1.485.044 2.966.008.752-.095 1.404.039 2.059-.347.373-.583-.026-.466-.336-.604-.926-.061-3.212-.502-3.535-1.007-.187-.098-.187-.291-.187-.388V8.728c.373-4.274 3.905-1.657 4.654-6.711-1.157-.031-9.209-.01-11.878-.01"/></svg>