<svg xmlns="http://www.w3.org/2000/svg" viewBox="0 0 24 24"><path fill="#44739e" d="M21.98 8.165a2 2 0 0 0-.157-.622 2.2 2.2 0 0 0-.404-.635 2.2 2.2 0 0 0-.733-.532 1.8 1.8 0 0 0-.438-.138l-.15-.022q-.026-.007-.049-.021H3.952c-.016.007-.025.018-.049.02a2.06 2.06 0 0 0-1.076.462q-.42.34-.634.838a2.2 2.2 0 0 0-.148.487A3 3 0 0 0 2 8.548q0 3.506.002 7.004a2.28 2.28 0 0 0 .591 1.547q.309.339.727.525a2.2 2.2 0 0 0 .977.179h15.49c.056 0 .112.005.166-.002a8 8 0 0 0 .358-.056 2 2 0 0 0 .34-.11 2.2 2.2 0 0 0 1.307-1.633c.014-.104.022-.211.035-.316l.007-.059V8.419c-.007-.118-.013-.186-.018-.255Zm-10.69 2.549a1.8 1.8 0 0 1-.087.528 1.12 1.12 0 0 1-.533.649l-.123.067c-.079.045-.17.059-.258.082q-.266.065-.532.125c-.14.033-.28.061-.42.094l-.313.077-.419.094-.295.069-.438.101-.307.073-.431.1-.412.099-.419.094-.307.074-.148.034a.235.235 0 0 0-.201.225q-.007.299-.006.598c0 .094 0 .188.009.282a.5.5 0 0 0 .04.144c.042.098.126.144.224.168.166.042.336.044.507.042h.074l3.877-.001.816-.001.08.003v1.285c-.02-.083-.038-.081-.056-.081H9.251l-1.341-.002H5.452a1.6 1.6 0 0 1-.476-.063 1.02 1.02 0 0 1-.702-.678 1.5 1.5 0 0 1-.071-.474q0-.66.003-1.319c0-.126.009-.247.029-.377.037-.234.115-.453.271-.639a1 1 0 0 1 .373-.27c.155-.072.318-.117.484-.153l.443-.101c.112-.025.226-.045.339-.07l.449-.101q.222-.048.446-.093l.324-.073.457-.099.338-.076.45-.097.45-.101c.107-.024.213-.044.319-.07a.8.8 0 0 0 .322-.148.5.5 0 0 0 .177-.301 1.3 1.3 0 0 0-.005-.529c-.031-.159-.106-.195-.252-.381a.6.6 0 0 0-.291-.077q-.221-.003-.445-.002H6.155c-.094 0-.187.01-.279.02a.4.4 0 0 0-.167.067.27.27 0 0 0-.103.153.6.6 0 0 0-.02.181v.14c-.046-.044-1.274-.039-1.358-.052q-.004-.022-.005-.046c.002-.272-.004-.546.011-.818a.78.78 0 0 1 .313-.585c.153-.119.33-.185.518-.223.179-.037.358-.044.54-.044l3.28-.003 1.103-.002q.084 0 .165.004c.14.004.273.04.4.092.199.084.367.21.496.386.118.162.202.343.226.543.021.125.016.251.018.377q.003.541-.002 1.08Zm8.39 4.198q-.114.302-.363.506a1.45 1.45 0 0 1-.881.311h-1.055c-.168 0-.333-.008-.497-.036a1.45 1.45 0 0 1-.59-.222 1.23 1.23 0 0 1-.426-.526 2 2 0 0 1-.13-.396c-.021-.087-.03-.177-.046-.265l-.059-.324-.049-.287-.036-.192-.048-.264-.056-.33-.056-.318-.048-.263-.077-.413c-.019-.102-.042-.206-.061-.309l-.045-.265-.054-.281-.055-.299-.054-.275-.056-.305c-.026-.121-.052-.242-.138-.339a.48.48 0 0 0-.289-.166 1.8 1.8 0 0 0-.636.001c-.134.026-.252.086-.313.221a.45.45 0 0 0-.038.19v.592l.001 2.914.003 2.07c0 .085 0 .085-.084.085h-1.066q-.045 0-.046-.045V9.55c0-.09 0-.179.013-.268.064-.411.257-.738.64-.929a1.1 1.1 0 0 1 .316-.101 1.6 1.6 0 0 1 .285-.018c.467 0 .934-.007 1.401.004.366.009.68.145.917.436q.19.234.279.519.059.175.103.35c.02.085.03.172.047.257l.061.318.047.276.072.369.037.211.051.257.097.525.057.293.049.275.053.281.058.318.054.268q.034.194.073.389c.026.125.049.251.083.373a.5.5 0 0 0 .364.357.8.8 0 0 0 .272.026c.069-.005.139-.004.207-.007.078-.004.155-.003.23-.014a.4.4 0 0 0 .265-.178.56.56 0 0 0 .094-.309l.005-3.152.004-2.363v-.031h1.196c.003-.03.005-.015.005 0v6.101c0 .181-.026.358-.089.526Z"/></svg>