<svg xmlns="http://www.w3.org/2000/svg" viewBox="0 0 24 24"><path fill="#44739e" d="M20.93 8.509a1.76 1.76 0 0 0-.14-.557 1.96 1.96 0 0 0-.362-.568 1.95 1.95 0 0 0-.656-.476 1.63 1.63 0 0 0-.392-.123c-.044-.007-.09-.012-.134-.02-.015-.003-.03-.012-.044-.019H4.799c-.015.006-.023.016-.044.018a1.84 1.84 0 0 0-.963.413c-.25.203-.44.453-.567.75a2.1 2.1 0 0 0-.133.436c-.03.162-.04.324-.04.489 0 2.09 0 4.181.002 6.267a2.036 2.036 0 0 0 .529 1.384c.184.202.401.359.65.47a1.975 1.975 0 0 0 .874.16h13.861c.05 0 .1.004.148-.002a6.5 6.5 0 0 0 .321-.05 1.56 1.56 0 0 0 .304-.098 1.973 1.973 0 0 0 1.169-1.462c.013-.093.02-.188.032-.282l.006-.053v-6.45c-.006-.105-.012-.166-.016-.228h-.001Zm-9.565 2.281c-.002.16-.028.32-.078.472a.996.996 0 0 1-.477.581l-.11.06c-.071.04-.152.053-.231.073-.159.039-.317.076-.476.112-.125.03-.251.055-.376.084-.094.022-.186.047-.28.069l-.375.084-.264.062-.392.09-.274.066-.386.089-.369.089-.375.084c-.092.021-.183.045-.274.066-.045.01-.088.021-.133.03a.212.212 0 0 0-.18.202c-.005.178-.005.357-.005.535 0 .084 0 .168.008.252a.44.44 0 0 0 .036.129c.037.088.113.129.2.15.149.038.301.04.454.038h.066l3.469-.001.73-.001.072.003v1.15c-.018-.075-.034-.073-.05-.073H9.54c-.4 0-.8 0-1.2-.002H6.141a1.4 1.4 0 0 1-.426-.056.91.91 0 0 1-.628-.607 1.33 1.33 0 0 1-.064-.424c0-.393 0-.787.003-1.18 0-.113.008-.221.026-.337.033-.21.103-.406.242-.572a.93.93 0 0 1 .334-.242c.139-.064.285-.104.433-.137.133-.029.265-.06.397-.09.1-.022.202-.04.303-.063l.402-.09c.132-.03.265-.055.399-.083.096-.021.193-.045.29-.066l.409-.088.302-.068c.134-.03.268-.057.403-.087l.402-.09c.096-.022.191-.04.286-.063a.72.72 0 0 0 .288-.132.445.445 0 0 0 .158-.27 1.22 1.22 0 0 0-.004-.473c-.028-.142-.095-.175-.226-.341a.533.533 0 0 0-.26-.069c-.132-.002-.265-.002-.398-.002H6.77c-.084 0-.167.009-.25.018a.34.34 0 0 0-.149.06.242.242 0 0 0-.092.137.53.53 0 0 0-.018.162v.125c-.041-.039-1.14-.035-1.215-.046-.002-.013-.005-.027-.005-.041.002-.244-.003-.489.01-.732a.695.695 0 0 1 .28-.524c.137-.106.295-.165.464-.199.16-.033.32-.04.483-.04.978 0 1.956 0 2.935-.002l.987-.002c.05 0 .099.002.147.003.126.004.245.036.358.083.178.075.329.188.444.345.106.145.181.307.202.486.019.112.015.225.016.337.001.323.003.645-.001.967Zm7.507 3.756c-.067.18-.177.33-.325.453a1.3 1.3 0 0 1-.788.278h-.944c-.15 0-.298-.007-.445-.032a1.29 1.29 0 0 1-.528-.199 1.107 1.107 0 0 1-.381-.47 2.04 2.04 0 0 1-.116-.355c-.019-.078-.027-.158-.041-.237l-.053-.29c-.015-.085-.028-.171-.044-.257l-.032-.171-.043-.237a51 51 0 0 1-.05-.295l-.05-.284-.043-.236a34 34 0 0 0-.069-.369c-.017-.092-.038-.185-.055-.277-.015-.079-.027-.158-.04-.237l-.048-.251-.05-.268-.048-.246c-.017-.091-.032-.182-.05-.273-.023-.108-.047-.216-.124-.303a.43.43 0 0 0-.258-.149 1.61 1.61 0 0 0-.569.001c-.12.023-.226.077-.28.198a.41.41 0 0 0-.034.17v.53l.001 2.607.002 1.852c0 .076 0 .076-.075.076h-.954c-.026 0-.041-.013-.041-.04V9.748c0-.08 0-.16.012-.24.057-.367.23-.66.572-.831a1.05 1.05 0 0 1 .283-.09 1.4 1.4 0 0 1 .255-.016c.418 0 .836-.007 1.254.003.327.008.608.13.82.39.114.14.195.296.25.465.035.104.066.208.092.313.018.076.027.154.042.23.017.095.037.19.055.284.015.082.027.165.042.247l.064.331.033.188.046.23c.03.156.057.314.087.47.016.088.034.175.051.262.016.082.03.165.044.246l.047.252.052.284.048.24c.022.116.042.232.066.348.023.112.043.225.074.334a.45.45 0 0 0 .326.319.67.67 0 0 0 .243.024c.062-.005.124-.004.185-.007.07-.003.139-.002.206-.012a.345.345 0 0 0 .237-.159.5.5 0 0 0 .084-.277l.005-2.82.003-2.115v-.027h1.07c.003-.027.005-.014.005 0v5.459c0 .162-.023.32-.08.47z"/></svg>