<?xml version="1.0" encoding="UTF-8"?>
<svg width="24px" fill="#44739e" height="24px" viewBox="0 0 24 24" version="1.1" xmlns="http://www.w3.org/2000/svg" xmlns:xlink="http://www.w3.org/1999/xlink">
  <path
     d="m 2.9760569,0.92203436 c 0,0 -0.9690781,-0.17460165 -0.9690781,1.18787644 0,1.3624771 0.2302227,18.0609012 0.2302227,18.0609012 0,0 0.394283,0.665655 0.5420951,0.633967 0.1468571,-0.03148 2.6471555,-0.359834 2.6796893,-0.364112 2.4e-4,-2.7e-5 0.017399,-0.0026 0.017399,-0.0026 l 0.013384,-4.015541 0.028106,-9.1995947 4.411714,0.012916 -0.00395,-0.3202109 -4.4063615,-0.054231 0.00536,-1.6204193 5.2241886,0.1084586 0.01204,-0.3382873 -5.2348947,-0.152358 0.00267,-0.8779962 c 0,0 -0.058697,-0.6752827 0.3680885,-0.6752827 0.4267854,0 11.2862822,0.3783132 11.2862822,0.3783132 0,0 0.356477,0.01178 0.368089,0.258234 5.9e-4,0.012305 -5.27e-4,0.6211823 0,0.6869039 l -1.106973,0.1148864 -0.01071,0.4389987 -4.368882,-0.1342826 -0.0067,0.3279574 4.391635,0.090388 -0.0053,1.5080874 -2.452144,-0.010327 -0.0027,0.2827683 2.470883,0.00646 0.0027,0.206588 h 1.090882 c 0.0032,2.5703708 0.0071,5.4447908 0.0053,7.7263678 0.562786,0.15714 1.438895,0.435123 1.438895,0.435123 l -1.458978,0.210461 c -1.91e-4,0.224006 0.0029,0.573946 0.0053,0.925772 l -0.966401,-0.349908 -0.679961,0.08264 1.6477,0.590064 c 9.01e-4,0.122323 0.0019,0.287868 0.0027,0.367985 l 2.154944,-0.291785 -0.008,-14.8006958 c 0,0 0.01123,-0.5481575 -0.586265,-0.5655327 C 18.511584,1.7736334 2.9760616,0.92204177 2.9760616,0.92204177 Z m 6.5078149,3.39836144 -0.00533,0.5526222 1.3545702,0.030988 -0.0308,0.871541 -0.8218423,-0.019372 0.022756,1.8037669 0.294471,-0.029708 0.008,0.3511996 1.006557,0.029694 v 0.5681146 c 0.0091,2.321e-4 0.01782,0.0039 0.02409,0.010327 0.0067,0.00609 0.0105,0.014419 0.01071,0.023239 v 0.012916 l 0.247623,0.1200782 c 0.0068,0.00292 0.01246,0.00795 0.01607,0.014208 0.0031,0.00646 0.0042,0.013667 0.0027,0.020662 -7.34e-4,0.0018 -0.0015,0.0036 -0.0027,0.00518 l 0.433677,0.1213704 -0.02142,-2.0542536 c 0.0046,-0.00706 0.01048,-0.013155 0.01741,-0.018085 0.02117,-9.23e-5 1.804306,-0.00786 1.804306,-0.018077 0,-0.010338 0.0027,-0.9503025 0.0027,-0.9503025 l -1.867214,0.012916 0.0308,-1.3350717 z m 4.3595152,2.4816315 -1.682501,0.016785 0.02008,1.9160987 1.662424,-0.045193 z m -2.531116,1.7108025 -0.163296,0.1575216 0.218176,0.2104617 0.212821,-0.2052962 -0.267701,-0.1291168 z m 2.521747,5.6940632 c -0.03028,0 -8.1849648,0.898656 -8.1849648,0.898656 l 3.3235107,1.723713 9.9343901,-1.212409 c 0,0 -5.04265,-1.40996 -5.072936,-1.40996 z m -8.2371661,0.928353 0.010708,0.495809 0.2248692,0.113623 0.6424824,0.02066 2.2058566,1.167221 -0.2677007,0.185928 0.4283215,0.289222 1.3599221,-0.113623 0.342657,-0.185929 6.542617,-0.795363 0.374782,0.06198 -0.03213,-0.516468 -8.4914796,1.043267 z m 0.674606,1.286006 -0.7335003,0.02066 -0.010708,4.01296 0.8727056,-0.175601 -0.037475,-0.934806 3.4051586,2.494544 c 0,0 -0.026775,0.454488 0.032115,0.872831 0.0589,0.418338 0.6371292,0.371856 0.6371292,0.371856 l 1.34386,-0.278893 0.208807,-0.242738 8.271967,-1.528747 0.219514,0.206586 c 0,0 1.081514,-0.222079 1.204655,-0.247903 0.123141,-0.02583 0.219515,-0.201423 0.283764,-0.315049 0.06426,-0.113622 -0.02545,-1.80759 -0.0053,-2.3396 0.01686,-0.44655 -0.08243,-0.426599 -0.13385,-0.439 l -0.787059,0.134283 c 0,0 -0.21684,0.05682 -0.326595,0.0103 -0.180857,-0.07658 -0.160621,-0.206586 -0.160621,-0.206586 0,0 0.01071,-0.222081 -0.0696,-0.469986 -0.08031,-0.247907 -0.267702,-0.211753 -0.267702,-0.211753 l -7.361782,0.996785 c 0,0 -0.386177,0.05787 -0.721455,0.140738 l -1.873906,-0.99291 -0.04282,0.02324 a 0.03426917,0.03305729 0 0 1 -0.01472,0.0039 l -0.5461102,0.04647 2.0974392,1.0678 c -0.0031,0.0065 -0.03806,0.0088 -0.03882,0.0155 -0.10109,0.884912 -0.210473,0.992214 -0.481863,1.03294 l -1.4402484,0.19622 -3.2017055,-2.117521 z" />
</svg>
