<svg xmlns="http://www.w3.org/2000/svg" viewBox="0 0 24 24"><path fill="#44739e" d="M16.7 9.775a.3.3 0 0 1 .207.077c.03.234.05.458.071.696a13.6 13.6 0 0 0 .554 2.977c.03.1.13.384.307.872a1 1 0 0 0 .011-.1v-.042c-.15-.412-.236-.656-.262-.747a16.8 16.8 0 0 1-.624-3.667c-.01-.079-.317-.2-.369-.064-.306.801.553 3.83.7 4.266q.14.416.276.779l.006-.005.042-.034a29 29 0 0 1-.268-.759c-.129-.383-1-3.433-.7-4.226.003-.005.009-.021.049-.023m1.208 4.808.623 1.701.043-.055-.635-1.733a1 1 0 0 1-.031.087m.174 1.381a47 47 0 0 1-.417-1.064l-.016.012-.033.025c.244.65.466 1.173.623 1.582l.049-.037Zm.757.816-.226-.617-.039.065.212.578a1.12 1.12 0 0 1 .026.84.8.8 0 0 1-.433.407.9.9 0 0 1-.611-.05 5 5 0 0 1-.929-.419l-.05.039a5.2 5.2 0 0 0 .96.435 1.4 1.4 0 0 0 .427.089.7.7 0 0 0 .222-.038.85.85 0 0 0 .467-.438 1.18 1.18 0 0 0-.023-.885Zm-2.222-7.104q.059.015.118.024l.077.028.031-.02h.063a.5.5 0 0 0-.156-.049.24.24 0 0 0-.133.017m1.725 7.899c-.123.1-.418.12-1.123-.28l-.051.039q.916.525 1.211.287c.182-.149.091-.5-.14-1.1l-.049.037c.21.55.304.893.152 1.017m.68-11.52-1.211-.454a.7.7 0 0 0-.564.033l-2.221 1.15a.23.23 0 0 0-.122.2v1.617a.44.44 0 0 0 .279.4l1.377.53a.85.85 0 0 0 .8-.1l1.722-1.216a.47.47 0 0 0 .2-.378v-1.41a.4.4 0 0 0-.26-.372m-3.977.577.467-.236-.012-.009a.15.15 0 0 1-.056-.131.15.15 0 0 1 .078-.118.15.15 0 0 1 .221.113v.02l1.542-.816a.9.9 0 0 1 .288-.046l.544.129V3.411a.11.11 0 0 0-.077-.108l-1.3-.461a.26.26 0 0 0-.206.016l-.793.436a.35.35 0 0 0-.183.313l.01 1.454a.15.15 0 0 1-.03.091l-.275.367v.282a.15.15 0 0 1-.059.12l-.329.252a.15.15 0 0 1-.151.019l-.479-.2-.176.209.116.14ZM8.73 7.801h.007l.167-.1.314-.227a.13.13 0 0 1 .073-.024.1.1 0 0 1 .057.014.13.13 0 0 1 .069.111v.11l.079.08.149.021a.125.125 0 0 1 .046.231v.013l.282.108a.35.35 0 0 0 .31-.026l1.647-.977.034-.17-.005-.008-.741-.269a.124.124 0 0 1-.082-.124l.059-1.2a.13.13 0 0 1 .064-.1c.5-.278.865-.495.944-.554V3.332a.31.31 0 0 0-.2-.286l-.372-.146a.12.12 0 0 1-.08-.113l-.011-.407v-.007l-.571-.206h-.01l-.343.129-.005.007-.009.251a.13.13 0 0 1-.06.1l-.466.285a.13.13 0 0 1-.13 0 .12.12 0 0 1-.06-.115l.046-.713v-.008L9.621 2h-.006l-.284.158v.006L9.315 3.2a.12.12 0 0 1-.046.1.74.74 0 0 1-.285.143.184.184 0 0 0-.139.2l.018.13a.12.12 0 0 1-.045.113l-.191.157a.3.3 0 0 0-.11.242l.066 2.186a.26.26 0 0 0 .125.215l.085.052a.12.12 0 0 1 .057.08.13.13 0 0 1-.019.1l-.318.46v.296Zm-1.856-.824.234.052.814-.428-.011-.449-1.313-.627.253-.739 1.582.609-.035-1.105a.42.42 0 0 1 .081-.258l-1.74-.619-.573.327-.059.773.042.055.127.24-.378.993-.259.284v.325l.372.087.026.116.357.1-.318.257-.437-.138v.189l.711.35Zm7.131-.976-2.326-.83-.351.2v.006l-.059 1.107 3.516 1.35v-.849a.34.34 0 0 1 .087-.226l-.751-.257a.15.15 0 0 1-.068-.047l-.134-.163a.15.15 0 0 1 0-.192ZM11.016 20.56l.672-1.12-1.453-.711-.63 1.12Zm4.139-6.688v-.262l-5.632-2.448-4.805 3.104v.249l5.716 2.681Zm2.832-4.735-.557.393a1 1 0 0 1-.524.178c.061.031.112.075.118.126.031.237.051.463.072.701a13.5 13.5 0 0 0 .55 2.955c.023.079.092.276.21.6Zm-2.475.12-.145 5.306a.37.37 0 0 0 .118.283l.106.1v.163l.483.191.206-.129.272.133a.41.41 0 0 0 .42-.039l.552-.407a26 26 0 0 1-.283-.8c-.137-.407-1.017-3.469-.7-4.301a.14.14 0 0 1 .075-.081 1 1 0 0 1-.1-.032Zm.979 8.183.365-.365.04.025q.174.11.323.2l.971-.739a37 37 0 0 0-.217-.548c-.121-.3-.26-.645-.407-1.035l-.524.388a.52.52 0 0 1-.542.049l-.213-.1-.2.125-.613-.242v-.196l-.074-.07a.5.5 0 0 1-.154-.373l.017-.621-4.821 3.394-3.401-1.594-2.019 1.349-.036.027-.052.045a.36.36 0 0 0-.121.267v1.142a.7.7 0 0 0 .381.622l1.475.751a2.1 2.1 0 0 0 .651-.055l.993-.674a.24.24 0 0 1 .311-.023l.462.224a.165.165 0 0 1 .101.245l-.456.75a.5.5 0 0 0-.066.3l.009.078a.35.35 0 0 0 .2.276l1.828.894a.43.43 0 0 0 .453-.045l5.64-4.292q-.12-.069-.237-.144Zm-5.431 3.275-1.618-.812.745-1.325 1.668.817Zm7.671-6.013a.455.455 0 0 0-.282-.441l-.475-.2-.006.23-.007.085.652 1.778a.6.6 0 0 0 .063-.238Zm-3.438-1.734-2.35-.966a.35.35 0 0 0-.33.032l-.311.208 2.971 1.291v.175Z"/></svg>