<svg xmlns="http://www.w3.org/2000/svg" viewBox="0 0 24 24"><path fill="#44739e" d="M18.71 15.916v-3.758h-2.2v3.758Zm0-4.074h-2.2V8.075h2.2v3.758Zm2.821.316A2.47 2.47 0 0 1 22 13.564a2.354 2.354 0 0 1-2.352 2.352h-.631v-3.758Zm-2.514-.316h2.226a2.4 2.4 0 0 0-.739-.459 1.8 1.8 0 0 0 .9-1.542 1.78 1.78 0 0 0-1.766-1.766h-.631v3.758Zm-6.436 4.074h-2.19v-3.758h2.19Zm0-4.074h-2.19V8.075h2.19v3.758Zm.316 4.074v-3.758h2.514a2.5 2.5 0 0 1 .469 1.415 2.353 2.353 0 0 1-2.352 2.352H12.9Zm0-4.074V8.075h.631a1.767 1.767 0 0 1 .865 3.308 2.6 2.6 0 0 1 .739.459H12.9Zm-7.13 0H3.433l1.316-3.767h1.018v3.758Zm2.65 0L7.1 8.075H6.083v3.758h2.334Zm1.424 4.074H7.877l-.55-1.568H6.074v-2.2h2.442l1.316 3.758Zm-7.841 0h1.965l.55-1.568h1.252v-2.2H3.325l-1.316 3.759Z"/></svg>