<?xml version="1.0" encoding="UTF-8"?>
<svg xmlns="http://www.w3.org/2000/svg" width="24" height="24" viewBox="0 0 24 24">
  <path style="fill:#44739e" d="M5.49,21.379c-.002-.145.05-.268.142-.377.943-1.122,1.486-2.442,1.888-3.828.58-2.003.737-4.057.646-6.128-.087-1.98-.414-3.921-1.195-5.761-.34-.8-.735-1.571-1.299-2.244-.235-.281-.243-.619-.035-.846.215-.236.555-.249.866-.014,1.21.913,2.417,1.83,3.625,2.747,2.546,1.932,5.092,3.865,7.637,5.798.153.116.306.231.456.351.387.308.391.719.005,1.039-1.04.862-2.084,1.721-3.125,2.582-2.801,2.316-5.601,4.632-8.402,6.948-.098.081-.196.164-.301.237-.2.14-.41.141-.619.022-.201-.115-.285-.299-.288-.525Z"/>
</svg>
