<?xml version="1.0" encoding="UTF-8" standalone="no"?>
<svg
   id="Livello_1"
   data-name="Livello 1"
   viewBox="0 0 24 24"
   version="1.1"
   width="24"
   height="24"
   xmlns="http://www.w3.org/2000/svg"
   xmlns:svg="http://www.w3.org/2000/svg">
  <path id="Colore_riempimento_1" fill="#44739e" data-name="Colore riempimento 1" class="cls-1"
     d="m 10.84,0.14 h 2 L 13.2,0.2 A 27.32,27.32 0 0 1 21.8,2 c 0.71,0.27 1.4,0.59 2.06,0.88 0.32,8.56 -3.12,16.09 -11.87,21 A 23.66,23.66 0 0 1 2.89,15.09 22.86,22.86 0 0 1 0.15,2.87 26.38,26.38 0 0 1 8.6,0.38 c 0.75,-0.1 1.49,-0.16 2.24,-0.24 z m 0.7,12.59 -0.26,-0.28 c -0.68,-0.79 -1.35,-1.59 -2,-2.38 a 1.93,1.93 0 0 0 -2.81,0 L 11.58,16 18.74,6.6 c 0,-0.06 0,-0.09 -0.07,-0.1 a 0.92,0.92 0 0 0 -1.24,0.26 c -1,1 -1.93,2 -2.89,2.93 z" />
</svg>
