<svg xmlns="http://www.w3.org/2000/svg" viewBox="0 0 24 24"><path fill="#44739e" d="M11.027 2.011h1.683l.303.051a23 23 0 0 1 7.236 1.515c.598.227 1.179.496 1.734.74.269 7.203-2.626 13.54-9.989 17.672a19.9 19.9 0 0 1-7.657-7.397A19.24 19.24 0 0 1 2.031 4.309a22.2 22.2 0 0 1 7.111-2.096c.631-.084 1.254-.134 1.885-.202m.589 10.595-.219-.236a123 123 0 0 1-1.683-2.002 1.624 1.624 0 0 0-2.365 0l4.3 4.99 6.025-7.91c0-.051 0-.076-.058-.085a.774.774 0 0 0-1.044.219c-.841.842-1.624 1.683-2.432 2.466Z"/></svg>