<?xml version="1.0" encoding="UTF-8"?>
<svg width="33px" height="32px" fill="#44739e" viewBox="0 0 33 32" version="1.1" xmlns="http://www.w3.org/2000/svg" xmlns:xlink="http://www.w3.org/1999/xlink">
            <path d="M21.6,8.8H2.4C1.6,8.8,1,9.7,1,10.7v1.9c0,1.1,0.7,1.6,1.4,1.6h6.9c0,0,0,0,0,0.1v0.4c0,0.6,0.5,1.1,1.1,1.1 h3.3c0.6,0,1.1-0.5,1.1-1.1v-0.4c0,0,0,0,0-0.1h6.9c0.7,0,1.4-0.5,1.4-1.6v-1.9C23,9.7,22.4,8.8,21.6,8.8z M21.6,13.2H2.4 c-0.1,0-0.4,0-0.4-0.6c0-0.5,0.3-0.9,0.4-0.9h19.1c0.2,0,0.4,0.3,0.4,0.9C22,13.2,21.7,13.2,21.6,13.2z"/>

</svg>