<svg xmlns="http://www.w3.org/2000/svg" viewBox="0 0 24 24"><path fill="#44739e" d="M10.941 9.753h-.017a18 18 0 0 1-.288 1.04l-.56 1.663h1.719l-.557-1.656c-.127-.373-.212-.714-.297-1.047m9.181 3.773a3.42 3.42 0 0 0-.295-2.984q.255-1.446-.605-1.981.186-1.617-.528-2.093a1.35 1.35 0 0 0-.683-1.324 1.694 1.694 0 0 0-1.5-1.652q-.435-.972-2.18-1.029-1.616-1.017-2.595.2-.045-.318-.625-.446a3.73 3.73 0 0 0-2.5.477 3 3 0 0 1-.407.177q-1.95.891-2.041 1.911a1.67 1.67 0 0 0-.632 1.678 1.26 1.26 0 0 0-.478 1.44 1.53 1.53 0 0 0-.648 1.448 1.53 1.53 0 0 0-.32 1.159 1.54 1.54 0 0 0-.3 1.817 2.62 2.62 0 0 0 .156 1.782 3.82 3.82 0 0 0 1.012 2.742 8 8 0 0 1 .769 1.574 8 8 0 0 0 1.108 1.254q.684 1.248 1.505 1.125a1.47 1.47 0 0 0 1.713.666q1.056.815 1.453-.208.378-.535.666-.034.659 1.51 3.044.077a1.69 1.69 0 0 0 1.705-1.055 1.377 1.377 0 0 0 1.176-1.6 2.5 2.5 0 0 0 .372-.536q1.365-.352 1.5-2.258a2.17 2.17 0 0 0 .158-2.327M12.06 2.9q.854-1.116 2.065-.061l.037-.013q1.309-.452 2.179 1.038 1.023.143 1.4 1.506a.98.98 0 0 1 .519 1.159l.251.311a2.52 2.52 0 0 1 .371 1.894v.013a1.08 1.08 0 0 0-1 .294l-.278-.441a1.23 1.23 0 0 0-.891-.281V8.15a2.65 2.65 0 0 0-1.718-2.48 1 1 0 0 1 .735-.158q-.222-.026-.329-.484a.4.4 0 0 1-.173-.5q-.659-1.132-.709-.5a1.02 1.02 0 0 1 .156.674q.558.33.45.519l-.482.348a2.7 2.7 0 0 0-.574-.063h-.71q-.024-.03-.051-.06-.9-.774-.761-1.194-.069-.754.917-.951.531-.165-.1-.26-1.248.236-1.159 1.367l-.5.069A2.06 2.06 0 0 1 12.06 2.9m2.435 7.117a.445.445 0 0 1-.449-.46.456.456 0 0 1 .466-.469.465.465 0 1 1-.017.929m.39.7v4.127h-.746v-4.128Zm-2.047-5.326a.2.2 0 0 0-.059.112h-.925a9 9 0 0 0-.175-.908l.484-.069q-.145.645.675.865M7.125 3.862l.209.021q.02-.12.424-.423l.069.077L7.368 4H7.02Zm-.243.316c.155-.006.406-.012.763-.018q.037 0 .934-.882h.294a.2.2 0 1 1 0 .138h-.285l-.874.891-.935.014Zm-.245.354h1.5l.45-.42.274.007a.245.245 0 1 1 0 .113h-.255l-.433.441-1.612-.019q.036-.06.076-.122m-.221.337 2.672-.008L10.795 3.2h.712l-.03.147h-.648L9.148 4.991l-2.8-.026Zm4.6.492h.483v.127l-.435-.006-.019.019h-.18Zm-.281-.351-.514.493h-.173l.657-.629h.709v.13Zm-4.619.352 3.257-.006.05-.045q.09-.093 1-.909l.995.008v.116h-.993L9.377 5.5l-3.315-.02c.016-.037.033-.08.054-.118m-.174.487 2.873-.007a3 3 0 0 0-.226.143l-2.675-.006a2 2 0 0 1 .028-.13m-.424 1.268a6 6 0 0 1 .607-.666h-.239v-.132l2.327-.012a2 2 0 0 0-.117.128l-1.794.015-.724.732.026 1.875q.077.068.839.763v.233l.675.632.009.934.338.336v.15l-.438-.434-.017-.971-.675-.623v-.24l-.84-.752Zm1.467 10.03v-.173h.126v.173Zm.126.057v.376h-.124v-.38Zm-.137-2.626v-.164h.144v.164Zm-.826-2.312v-.553l-.4-.414a.2.2 0 0 1-.1.031.131.131 0 1 1 .158-.128.1.1 0 0 1-.008.042l.412.4v.562c.687.681 1.1 1.093 1.26 1.252v.811h-.084l.008-.291h.04l.012-.427Zm.75 2.148v.164h-.162v-.164Zm-.161-.141v-.291h.158v.291Zm-.052.141v.164h-.164v-.164Zm-.223.164H6.32v-.164h.141Zm-.2-.6v.291h-.2v-.291h.086a2 2 0 0 0 .032-.3.143.143 0 0 1-.2-.133.144.144 0 1 1 .287 0 .15.15 0 0 1-.047.107 6 6 0 0 0-.021.33Zm-.362.881v.149h-.157v-.149h.091a.9.9 0 0 1 .227-.319v-.13h.2v.164h-.153a1 1 0 0 0-.213.285Zm-.156 1.446v-.175h.151v.177Zm.156.058v.159h-.157v-.158Zm-.156-.291v-.15h.151v.151Zm0-.208v-.141h.151v.142Zm0-.2v-.158h.151v.159Zm0-.216V15.3h.151v.151Zm0-.207v-.171h.151v.176Zm1.076-5.237v-.376a1.54 1.54 0 0 1-.825-.698l.1-.024a1.5 1.5 0 0 0 .131.187h.226v.09h-.146a1.4 1.4 0 0 0 .3.236l.006-.238h-.117V9.09h.48v.089h-.234v.308a1.4 1.4 0 0 0 .506.128v-.44h-.219v-.09h.447v.088h-.089v.443l.083-.005v1.53l-.019-1.123h-.134v-.266h-.13v.266H7.05v.214l.281.309c.017.58.039.926.039.926l.1.1v.125q-.197-.21-.205-.2a3.2 3.2 0 0 0-.043-.935 3 3 0 0 1-.269-.311v-.233Zm.275-1.79a.129.129 0 1 0 0 .254h.03l.077.083a.3.3 0 0 1-.107.019.23.23 0 1 1 0-.458.25.25 0 0 1 .244.175h.127v.1h-.125a.23.23 0 0 1-.1.141l-.077-.073a.13.13 0 0 0 .076-.111.14.14 0 0 0-.145-.13m-.757-.2h-.075c-.178 0-.3.005-.356.01 0 .052-.008.1-.008.158a1.4 1.4 0 0 0 .089.5c.69-.008 1.2-.009 1.453-.009a.2.2 0 0 1 .024-.083v.21l-.013-.031c-.755 0-1.269.012-1.421.016q.02.042.042.083l-.1.028a1.5 1.5 0 0 1-.178-.715 1.538 1.538 0 0 1 2.078-1.443 2.63 2.63 0 0 0-.405 1.274q-.732-.003-1.131.001Zm1.189 8.961v.173h-.148v-.173Zm0 .231v.375h-.149V17.2Zm-.142-2.628v-.164h.08v.164Zm-.052-.164v.164h-.164v-.164Zm-.17 2.79h.164v.375h-.04c.049.115.1.3.143.375h.536l.058.077q-.234-.01-.617-.012a1.5 1.5 0 0 1-.162-.436h-.083ZM4.781 9.009l.679.722v.411c.162.172.265.282.32.348l.08.1c.16.006.42.007.42.007a2.6 2.6 0 0 1 .377.441c.02.612.024.87.024.87q.426.439.78.8v.109c-.57-.571-.868-.865-.868-.865-.023-.605-.017-.893-.017-.893a6 6 0 0 0-.335-.385 4 4 0 0 1-.418 0l-.011-.01-.09-.092a6 6 0 0 1-.233-.252l-.146-.153.009-.394-.623-.618Zm.875 7.747h-.354v-.171h.354Zm0-.447h-.354v-.174h.354Zm0-.441h-.354v-.082a3 3 0 0 1-.227-.034.089.089 0 1 1-.087-.107.09.09 0 0 1 .086.069q.07.015.228.038v-.022h.354Zm0-.415h-.354v-.087c-.1-.017-.165-.028-.21-.037a.1.1 0 1 1 .008-.041l.2.033V15.3h.354Zm0-.441h-.354v-.149h.354Zm-.044-.639-.1-.057h-.359l-.307.354a2.7 2.7 0 0 0-.549 0l-.013-.584.06-.06a.94.94 0 0 1-.3-.736q-.042-.774.113-.938.058-.05-.083-.4a1 1 0 0 1 .07-.882.7.7 0 0 1 .315-.437h.007v-.007a.53.53 0 0 1 .029-.65l.346.2-.009 1.436.839.8-.576-.012a.28.28 0 0 0-.307-.238.246.246 0 1 0 0 .476.3.3 0 0 0 .3-.182l.593.011-.008.584h-.332a.245.245 0 0 0-.245-.162.211.211 0 1 0 0 .415.24.24 0 0 0 .249-.179h.34q-.013.645-.012.649l-.334-.009a.27.27 0 0 0-.269-.171.23.23 0 1 0 .277.227l.334.009v.333l.311.311-.112.117Zm.9 3.483a.11.11 0 0 1 .092-.109v-.167h-.083v-.331l-.053-.015v.346h-.162v-.377h.069a1 1 0 0 1-.137-.065v.009h-.182v-.138a1 1 0 0 1-.214-.253h-.1v-.172h.153v.163a2 2 0 0 0 .223.227h.119v.094l.067.046v-.14h.159v.173h-.101q.05.03.1.056l.053.025V17.2h.157v.377h-.026v.17a.11.11 0 1 1-.14.106Zm.9 1.929v-.943H6.83a.2.2 0 0 1-.184-.182v-.212c.008-.135.066-.2.173-.181h.746a.45.45 0 0 1 .136.155 2 2 0 0 0 .323 0l.108-.1.152-.006a2.7 2.7 0 0 0 .53.393h-.245a.157.157 0 0 1-.173.121v.426h-.11l.007-.428q-.216-.027-.234-.186h-.437a.24.24 0 0 0-.1-.27h-.675q-.11-.017-.112.115v.151a.22.22 0 0 0 .24.1 3.3 3.3 0 0 0 .549-.037c.009.585.007.93.007.93l.354-.009v-.938l.13-.018v.956l.26.009v-.273h.12v.284h.29v-.138l.39.009-.013.44-.377-.008v-.165Zm1.5 1.239a.238.238 0 1 1 0-.476.23.23 0 0 1 .156.059l-.071.073a.136.136 0 1 0 .051.106.13.13 0 0 0-.015-.062l.078-.069a.238.238 0 0 1-.2.369Zm1.413.346q.11-.212-.173-.191.002.04-.026-.1.401-.061.355.311Zm1-.2-1.1-1.05a.2.2 0 0 1-.058.007.2.2 0 0 1-.111-.031l.063-.082a.11.11 0 1 0-.061-.1.1.1 0 0 0 .024.068l-.067.078a.2.2 0 0 1-.059-.146.212.212 0 1 1 .423 0 .2.2 0 0 1-.035.116l1.07 1.054Zm.147-.342a.216.216 0 0 1-.216-.216.2.2 0 0 1 .04-.125q-.27-.29-1.455-1.449.08.009.163.012l1.354 1.378a.2.2 0 0 1 .114-.032.216.216 0 0 1 0 .432m.379-.614-.233.008.008-.588h.329a5 5 0 0 1-.116.577Zm.111-7.176H9.924l-.594 1.808h-.763L10.509 9.1h.89l1.95 5.746h-.789Zm6.472 4.834a.8.8 0 0 1-.485-.917q.114-1-.813-.8 1.048 1.139-.519 1.505.4.4.986-.311a2.1 2.1 0 0 0 .476.821l-.294.415a1.02 1.02 0 0 1-.969 1.229q-.116.151.017-.139-.094-.632-.657-.622a.83.83 0 0 1-.9.017q-.617-.262-.743.277a2.1 2.1 0 0 1-1.315.813 1.16 1.16 0 0 0 1.47-.485q-.273-.738.865-.086 1.095-.373 1.107.484a1.89 1.89 0 0 1-1.487.865q-.3.617-1.973.658a1.214 1.214 0 0 1-1.141-1.367 1.14 1.14 0 0 0-.015-1.18h2.034a2.646 2.646 0 0 0 2.645-2.559l.024-.032-.024-.006v-1.905a1.16 1.16 0 0 0 .515-.346.95.95 0 0 1 .692-.069q.481 1.307-.64 1.211.417.441.744-.052a1.66 1.66 0 0 1 1.609.467 3 3 0 0 1-1.221 2.111Zm1.314-2.336a1.41 1.41 0 0 0-1.487-.519q.426-.294.069-.917-.617-.242-.727-.553a1.88 1.88 0 0 0 .139-1.488q.276.1.346-.1-.21-.265-.485.052a2.3 2.3 0 0 1-.346 1.643 2.2 2.2 0 0 1-.532.584v-3.585a1.44 1.44 0 0 1 1.055.239.92.92 0 0 0-.934-.38l.087-.415q-.103.114-.208.22V9.145a1.4 1.4 0 0 0 .29-.48l.554.017q.106 0 .311.45c.988-.859.583.374 1.052-.215l-.043-.117q.043.02.085.043l.021-.022v-.009q.214.009.323.424a2.94 2.94 0 0 1 .138 1.557q.726.63 0 1.194l.415.086a3.3 3.3 0 0 1-.121 1.557 2.02 2.02 0 0 1-.014 1.903Z"/></svg>