<svg xmlns="http://www.w3.org/2000/svg" viewBox="0 0 24 24"><path fill="#44739e" d="M15.396 6.789c-.043-.021-.591.41-.634.389l-2.23 4.557a2 2 0 0 0-.53-.107 2.025 2.025 0 0 0-2.023 2.022 1.99 1.99 0 0 0 .901 1.641l-.889 1.942.684.314.9-1.96a2 2 0 0 0 .425.086 2.026 2.026 0 0 0 2.024-2.023 1.99 1.99 0 0 0-.82-1.581l2.231-4.561c-.04-.02.004-.698-.039-.719m-3.394 8.246a1.384 1.384 0 1 1 1.384-1.385 1.385 1.385 0 0 1-1.384 1.385m6.959-9.065-.841.741a8.827 8.827 0 0 1 .072 12.773 13 13 0 0 0-6.312-1.309 13.04 13.04 0 0 0-6.128 1.249 8.827 8.827 0 0 1 .2-12.774l-.841-.741a9.97 9.97 0 0 0 .431 14.857l.016.017a13.74 13.74 0 0 1 6.322-1.493 13.7 13.7 0 0 1 6.47 1.572 9.98 9.98 0 0 0 .605-14.892Zm-6.959-1.715a8.84 8.84 0 0 1 5.717 2.092l.841-.741a9.95 9.95 0 0 0-13.048-.062l.841.741a8.84 8.84 0 0 1 5.649-2.03"/></svg>