<?xml version="1.0" encoding="UTF-8"?>
<svg width="33px" height="32px" fill="#44739e" viewBox="0 0 8.4666667 8.4666667" version="1.1" xmlns="http://www.w3.org/2000/svg" xmlns:xlink="http://www.w3.org/1999/xlink">
            <path d="M 3.3144643,7.1692032 C 3.2876358,7.1282578 3.2883481,7.1225123 3.3324342,7.0242754 3.4389063,6.787024 3.4284549,6.5442056 3.2999374,6.269273 3.1748728,6.0017271 3.1496226,5.7699799 3.2187232,5.5238831 3.28128,5.3010913 3.3671541,5.2118877 3.4445583,5.2892921 3.483293,5.3280267 3.481746,5.3384414 3.4061765,5.5476833 3.337839,5.7369016 3.3608264,5.9766054 3.4678382,6.1906601 3.6173355,6.489699 3.6266978,6.8379151 3.4925741,7.1106767 3.4538336,7.1894615 3.4407987,7.2023102 3.3951259,7.2067332 3.3535625,7.2107581 3.3364863,7.202813 3.3144643,7.1692032 Z M 4.1689848,7.1872565 C 4.1370053,7.1487236 4.1413621,7.1104139 4.1917986,6.9866533 4.2271872,6.8998173 4.2408368,6.8347988 4.2464343,6.726403 4.2553165,6.5544007 4.2392371,6.4823624 4.1422427,6.2596072 4.0528559,6.0543232 4.0329683,5.9680568 4.0335646,5.7881942 4.0343256,5.5586706 4.1240772,5.2865799 4.2057916,5.2660709 4.2647084,5.2512838 4.3160154,5.2840328 4.3160154,5.3364259 4.3160154,5.3604038 4.2956732,5.428975 4.2708107,5.4888064 4.2301457,5.5866662 4.2255962,5.6175189 4.2255082,5.7960283 4.2254149,5.9855704 4.2278959,6.0000255 4.2808529,6.1184892 4.4217855,6.4337528 4.420584,6.4295718 4.4283006,6.6315459 4.4365445,6.8473182 4.4122316,6.9758096 4.3363784,7.1173472 4.2988155,7.1874371 4.2826208,7.2024654 4.2401929,7.2066058 4.2101313,7.2095392 4.1808816,7.2015913 4.1689848,7.1872565 Z M 5.0106723,7.1852422 C 4.9860707,7.155599 4.9941681,7.1092426 5.0525709,6.9453807 5.0862566,6.8508676 5.0968237,6.7899878 5.0970604,6.6890657 5.0974311,6.5308116 5.0784628,6.4535324 4.9935413,6.2673174 4.9582858,6.1900094 4.9179238,6.082406 4.9038478,6.0281985 4.8706351,5.9002952 4.8712276,5.6941563 4.9052014,5.5573062 4.9332476,5.4443331 5.0013945,5.2922559 5.0333859,5.271249 5.0716005,5.2461556 5.1260815,5.2594209 5.1528984,5.3003487 5.1790564,5.3402708 5.1778951,5.3480752 5.1264445,5.4781156 5.0308375,5.7197614 5.0408556,5.949712 5.157027,6.1800821 5.246776,6.358056 5.278933,6.4899487 5.2790911,6.6807288 5.2792093,6.8233114 5.2714706,6.8783651 5.2358163,6.988589 5.183173,7.1513342 5.1412845,7.2098954 5.0775169,7.2098954 5.0520056,7.2098954 5.0219255,7.1988015 5.0106723,7.1852422 Z M 0.05003,4.746384 C 0.03207123,4.7284252 0.01320296,4.6967992 0.00810049,4.676104 0.00299803,4.6554088 9.4839411e-4,3.9723074 0.00354575,3.1581009 L 0.00826823,1.6777255 0.06261939,1.5673374 C 0.12786631,1.4348197 0.23138787,1.3377129 0.35785585,1.2903951 0.44725508,1.2569466 0.46751968,1.2567708 4.2333331,1.2567708 7.9991465,1.2567708 8.0194111,1.2569466 8.1088103,1.2903951 8.2352783,1.3377129 8.3387999,1.4348197 8.4040468,1.5673374 L 8.458398,1.6777255 8.4631205,3.1581009 C 8.4657178,3.9723074 8.4636681,4.6554088 8.4585657,4.676104 8.4534632,4.6967992 8.4345949,4.7284252 8.4166361,4.746384 8.3842976,4.7787225 8.3441125,4.7790362 4.2333331,4.7790362 0.12255361,4.7790362 0.08236863,4.7787225 0.05003,4.746384 Z M 0.41625385,4.1134438 C 0.42141852,3.7317354 0.42354916,3.7086383 0.4605219,3.633556 0.48570524,3.5824148 0.52641065,3.5358944 0.5762771,3.5012643 L 0.65319007,3.4478514 H 4.2333331 7.8134761 L 7.890389,3.5012643 C 7.9402555,3.5358944 7.980961,3.5824148 8.0061442,3.633556 8.0431171,3.7086383 8.0452476,3.7317354 8.0504123,4.1134438 L 8.0558381,4.5144529 H 8.1206923 8.1855464 V 3.1331275 C 8.1855464,1.644529 8.1880922,1.6894943 8.0991744,1.6075871 L 8.0581494,1.5697966 8.0485191,1.6846668 C 8.0337136,1.8612651 7.96509,1.9703429 7.8344521,2.0249267 7.7798112,2.0477573 7.3909854,2.0505207 4.2333331,2.0505207 1.0756808,2.0505207 0.68685504,2.0477573 0.63221405,2.0249267 0.50157625,1.9703429 0.43295248,1.8612651 0.41814711,1.6846668 L 0.40851681,1.5697966 0.36749179,1.6075871 C 0.27857397,1.6894943 0.28111978,1.644529 0.28111978,3.1331275 V 4.5144529 H 0.34597391 0.41082803 Z M 3.7703123,3.2363906 C 3.7124044,3.2072501 3.7046086,3.1220023 3.756526,3.0856378 3.7887323,3.0630798 3.8580164,3.0592446 4.2333331,3.0592446 4.727712,3.0592446 4.7524864,3.0643299 4.7427583,3.1638089 4.7341835,3.2514947 4.7030907,3.2571946 4.2333331,3.2571946 3.9274797,3.2571946 3.8002979,3.2514801 3.7703123,3.2363906 Z M 6.9693227,3.2009134 C 6.9389446,3.1545505 6.9559383,3.1054943 7.0129459,3.0749849 7.0879978,3.0348181 7.1687385,3.1599328 7.1073694,3.2213019 7.0727644,3.2559069 6.9981337,3.2448845 6.9693227,3.2009134 Z M 7.4010099,3.2035679 C 7.3479185,3.1225401 7.4372314,3.0310356 7.5178511,3.0838596 7.5609314,3.1120867 7.5715511,3.1870681 7.5373173,3.2213019 7.5037984,3.2548208 7.4281426,3.2449776 7.4010099,3.2035679 Z M 7.8548173,4.4400388 V 4.3656248 H 4.2333331 0.61184892 V 4.4400388 4.5144529 H 4.2333331 7.8548173 Z M 7.8548173,4.0927732 V 4.0018227 H 4.2333331 0.61184892 V 4.0927732 4.1837237 H 4.2333331 7.8548173 Z M 7.8544495,3.7661782 C 7.8540197,3.722682 7.812113,3.6661877 7.7608198,3.6399561 7.7345539,3.6265235 6.7722062,3.6214842 4.2333331,3.6214842 1.69446,3.6214842 0.73211231,3.6265235 0.70584643,3.6399561 0.65455325,3.6661877 0.61264648,3.722682 0.61221663,3.7661782 L 0.61184892,3.8033852 H 4.2333331 7.8548173 Z M 7.8064799,1.8202823 C 7.8513994,1.775363 7.8548173,1.7630853 7.8548173,1.6466495 V 1.5213541 H 4.2333331 0.61184892 V 1.6466495 C 0.61184892,1.7630853 0.61526684,1.775363 0.66018626,1.8202823 L 0.7085236,1.8686197 H 4.2333331 7.7581427 Z"/>

</svg>