<svg xmlns="http://www.w3.org/2000/svg" fill="#44739e" width="33" height="32" version="1.1" viewBox="0 0 8467 8467"><path d="M3314 7170c-26-42-26-47 18-146 107-237 96-480-32-755-125-267-150-500-81-745 62-223 148-312 226-235 38 40 37 50-39 259a838 838 0 00 62 643c150 299 159 647 25 920-40 78-52 91-98 96-41 4-60-4-80-38Zm855 17c-38-38-30-77 20-200a707 707 0 00 50-260c10-173-6-245-103-467-90-206-110-292-108-472 0-230 90-501 172-522 60-15 110 18 110 70 0 24-20 93-45 153-40 98-45 129-45 307 0 190 2 204 55 322 140 316 140 312 147 514 10 215-16 344-92 485-37 70-53 85-96 90-30 3-60-5-70-20Zm840-2c-29-30-20-76 40-240a669 669 0 00 42-256c0-158-19-235-103-422a1844 1844 0 01-90-239 1113 1113 0 01 1-470c28-114 96-266 128-287a88 88 0 01 120 30c26 40 25 47-27 177a816 816 0 00 32 702 1000 1000 0 01 122 500 810 810 0 01-43 310c-53 161-95 220-158 220-26 0-56-10-67-25ZM50 4746a181 181 0 01-42-70 64400 64400 0 01-4-1518l4-1480 55-110a544 544 0 01 295-278c90-33 110-33 3875-33 3766 0 3786 0 3876 33a550 550 0 01 295 277l54 110 5 1481c3 814 0 1497-4 1518a181 181 0 01-42 70c-33 33-73 33-4184 33-4110 0-4150-6-4183-39Zm366-633c5-381 8-404 45-480a355 355 0 01 120-132l78-53h7160l77 53a360 360 0 01 116 133c37 75 40 98 44 480l6 400h130v-1380c0-1490 2-1445-87-1526l-40-38-10 115c-17 176-86 285-217 340-54 23-443 26-3600 26-3158 5-3546 4-3602-19-130-54-200-163-214-339l-10-114-40 38c-90 80-88 37-88 1525v1380h130Zm3354-877c-58-29-65-114-13-150 32-23 101-27 476-27 495 0 520 5 510 105-9 87-40 93-510 93-306 0-433-6-463-20Zm3200-35c-30-46-14-96 43-126 75-40 156 85 94 146-34 35-109 24-138-20Zm431 3c-53-80 36-173 117-120 43 28 54 103 20 137-34 34-110 24-137-17Zm454 1236v-74H612v148h7243Zm0-347v-91H612v182h7243Zm0-327c0-43-43-100-94-126-26-13-989-19-3528-19s-3500 6-3527 19c-50 26-93 83-94 126v37h7243Zm-50-1946c45-45 50-57 50-173V1520H611v126c0 116 3 128 48 173l50 49h7044Z"/></svg>
