<svg xmlns="http://www.w3.org/2000/svg" viewBox="0 0 24 24"><path fill="#44739e" d="m14.028 16.372-.159.087v.011h-.08a.08.08 0 0 0-.041-.056v-.025h-.16v.091a.1.1 0 0 0-.046-.012l-.023.006-.025-.006h-.012v-.137l-.056.139h-.007a.1.1 0 0 0-.055 0h-.018a.08.08 0 0 0-.159 0 .1.1 0 0 0-.073.041l-.018.025.011.069a.2.2 0 0 0-.013.068c0 .072.04.123.1.123h.093l.018.025a.107.107 0 0 0 .15.023.1.1 0 0 0 .032-.038l.006-.018h.119a.1.1 0 0 0 .046 0l.079.267v-.265h.049l.012.262.068-.265h.094a.1.1 0 0 0 .061-.022l.026-.022v-.282h-.019Zm2.508.192V16.4h-.052v-.07l-.18.042v.028h-.031a.2.2 0 0 0-.072 0h-.144a.2.2 0 0 0-.049-.009.2.2 0 0 0-.068.013.09.09 0 0 0-.092-.079h-.008v-.014h-.181v.079a.16.16 0 0 0-.094.039.15.15 0 0 0-.108-.039.2.2 0 0 0-.059.008l-.026-.006h-.025a.1.1 0 0 0-.033 0h-.174a.1.1 0 0 0-.038 0 .2.2 0 0 0-.056.01l-.039-.008h-.025a.1.1 0 0 0-.033 0h-.046a.093.093 0 0 0-.113-.068.09.09 0 0 0-.069.075.2.2 0 0 0-.063-.011.2.2 0 0 0-.1.025l-.054.031.029.074a.12.12 0 0 0-.026.076.126.126 0 0 0 .129.123h.314l-.007.022.051.03a.2.2 0 0 0 .1.025.18.18 0 0 0 .118-.037.14.14 0 0 0 .034-.04h.118V16.7a.13.13 0 0 0 .072.021.1.1 0 0 0 .036 0h.152a.1.1 0 0 0 .04.008.1.1 0 0 0 .038 0h.235v-.011a.2.2 0 0 0 .074.015.2.2 0 0 0 .053 0h.316a.1.1 0 0 0 .049.009.2.2 0 0 0 .056-.009l.052-.018-.013-.13Zm-.231-.664v.028h-.031a.15.15 0 0 0-.072 0h-.144a.2.2 0 0 0-.05-.01.2.2 0 0 0-.068.014.09.09 0 0 0-.092-.079h-.008v-.014h-.18v.079a.16.16 0 0 0-.094.039.15.15 0 0 0-.109-.04.2.2 0 0 0-.059.009l-.025-.006h-.026a.1.1 0 0 0-.033.005h-.174l-.037-.005a.2.2 0 0 0-.056.011l-.04-.008h-.025a.1.1 0 0 0-.033.005h-.046a.09.09 0 0 0-.09-.07.09.09 0 0 0-.092.077.2.2 0 0 0-.063-.012.2.2 0 0 0-.1.026l-.054.031.029.074a.12.12 0 0 0-.026.076.126.126 0 0 0 .129.123h.005a.1.1 0 0 0 .036 0h.274l-.008.021.055.026a.2.2 0 0 0 .1.025.18.18 0 0 0 .118-.037.14.14 0 0 0 .034-.04h.118v-.017a.13.13 0 0 0 .072.021.1.1 0 0 0 .036 0h.152a.1.1 0 0 0 .041.008.1.1 0 0 0 .037 0h.235v-.011a.2.2 0 0 0 .074.015.2.2 0 0 0 .053 0h.316a.1.1 0 0 0 .049.009.2.2 0 0 0 .057-.009l.051-.018-.013-.13h.012v-.168h-.053v-.07Zm-1.815-.254a.123.123 0 0 0 .125.123.1.1 0 0 0 .035 0h.248l-.007.02.048.031a.2.2 0 0 0 .1.026.17.17 0 0 0 .114-.039.2.2 0 0 0 .03-.038h.108v-.011a.13.13 0 0 0 .061.015h.178l.03.006a.1.1 0 0 0 .035 0h.22v-.007a.2.2 0 0 0 .062.011.2.2 0 0 0 .042 0h.3a.1.1 0 0 0 .038.008.2.2 0 0 0 .056-.009l.049-.019-.01-.129h.009v-.174h-.048v-.071l-.177.045v.026h-.027a.2.2 0 0 0-.063 0h-.136a.1.1 0 0 0-.039-.009.14.14 0 0 0-.057.012.09.09 0 0 0-.089-.078v-.03h-.178v.08a.14.14 0 0 0-.08.036.14.14 0 0 0-.1-.037.2.2 0 0 0-.055.008h-.27a.14.14 0 0 0-.051.011l-.034-.008h-.091a.09.09 0 0 0-.089-.07.09.09 0 0 0-.089.075.2.2 0 0 0-.052-.009.2.2 0 0 0-.1.027l-.05.031.027.073a.13.13 0 0 0-.023.074m.108-.696a.125.125 0 0 0 .127.123h.006a.1.1 0 0 0 .037 0h.273l-.008.022.052.03a.2.2 0 0 0 .1.025.18.18 0 0 0 .118-.037.14.14 0 0 0 .034-.04h.117v-.016a.15.15 0 0 0 .109.016h.152a.1.1 0 0 0 .04.008.1.1 0 0 0 .038 0h.235v-.011a.2.2 0 0 0 .074.015.3.3 0 0 0 .053-.005h.316v-.005a.1.1 0 0 0 .048.009.2.2 0 0 0 .057-.008l.052-.019-.013-.13h.011v-.168h-.053v-.07l-.179.042v.028h-.032a.2.2 0 0 0-.071 0h-.144v.006a.15.15 0 0 0-.117 0 .093.093 0 0 0-.092-.079h-.008v-.014h-.182v.079a.16.16 0 0 0-.094.039.15.15 0 0 0-.108-.039.2.2 0 0 0-.059.008l-.026-.006h-.026a.1.1 0 0 0-.032 0h-.174a.1.1 0 0 0-.038 0 .2.2 0 0 0-.056.011l-.04-.009h-.025a.1.1 0 0 0-.032 0h-.046a.093.093 0 0 0-.113-.068.09.09 0 0 0-.069.075.2.2 0 0 0-.063-.011.2.2 0 0 0-.1.025l-.054.031.029.074a.12.12 0 0 0-.024.069m2.531 4.941-.657.035.038.142.397 1.476.631-.007-.374-1.504Zm-.783.186a.38.38 0 0 0-.27-.13L14.967 20v.147l.005.343 1.8 1.053-.367-1.375a.5.5 0 0 0-.059-.091m-7.705.396a.146.146 0 0 0-.152-.121l-.7.037v.1l.03.039 1.068 1.359-.247-1.4Zm.767-.175-.657.037.022.146L9.008 22l.763-.008-.331-1.547Zm8.961-17.425L7.936 2.254q-.106-.006-.213-.006a3.487 3.487 0 0 0-3.48 3.488V18.8a1.55 1.55 0 0 0 1.555 1.55h.081l12.109-.65a2.64 2.64 0 0 0 2.5-2.634V5.117a2.25 2.25 0 0 0-2.119-2.244M7.216 5.459a.512.512 0 1 1 .559-.488.524.524 0 0 1-.558.488Zm8.693-.659a.513.513 0 1 1-.559.489.526.526 0 0 1 .559-.489m-1.248-.052a.512.512 0 1 1-.559.489.527.527 0 0 1 .559-.489m-6.2.764a.513.513 0 1 1 .559-.489.526.526 0 0 1-.556.489Zm1.22.051a.512.512 0 1 1 .559-.489.526.526 0 0 1-.556.489Zm1.24.052a.512.512 0 1 1 .559-.489.525.525 0 0 1-.556.489Zm1.247.052a.512.512 0 1 1 .559-.488.524.524 0 0 1-.556.488Zm.705-.482a.539.539 0 1 1 .543.534h-.027a.525.525 0 0 1-.513-.534Zm1.4 11.945-1.238.053v-1.866h.379l-.026.123h-.007a.076.076 0 0 0-.152 0 .1.1 0 0 0-.055.045l-.01.02.008.067a.2.2 0 0 0-.01.066.14.14 0 0 0 .029.1v.043l.015-.027.014.006a.1.1 0 0 0 .051 0h.027l.011.02a.09.09 0 0 0 .092.052l.017.083h-.035l-.023-.006h-.005a.08.08 0 0 0-.079-.066.08.08 0 0 0-.08.066.11.11 0 0 0-.085.04l-.023.027.013.069a.14.14 0 0 0-.015.07.12.12 0 0 0 .068.117h.154v.011l.022.026a.12.12 0 0 0 .089.04.11.11 0 0 0 .1-.055l.009-.022h.036a.1.1 0 0 0 .056 0h.466a.1.1 0 0 0 .059-.018l.031-.023V15.9h-.027v-.093l-.162.076v.017h-.12a.08.08 0 0 0-.047-.058v-.02h-.077l.014-.08h.09l.041-.045v-.276h-.018l-.01-.115-.144.109-.01.006h-.008a.08.08 0 0 0-.036-.059v-.024h-.008v-.043h.632Zm-.791-1.957v-.055a.1.1 0 0 0 .028-.027l.009-.022h.108l-.019.1Zm.1.144-.008.043h-.053v.08h-.03v-.124Zm-.1.46v-.008a.1.1 0 0 0 .04 0h.045l.035.155a.1.1 0 0 0-.029.007l-.026-.007-.026.005h-.037Zm.8-.6h-.637v-.1h.427a.1.1 0 0 0 .058-.018l.032-.022v-.285h-.026v-.093l-.162.076v.013h-.111a.1.1 0 0 0-.047-.059v-.02h-.163v.088l-.01.007a.1.1 0 0 0-.055-.016l-.029.006-.026-.006h-.095a.1.1 0 0 0-.056 0h-.033a.08.08 0 0 0-.08-.066.08.08 0 0 0-.079.066.12.12 0 0 0-.086.04l-.023.027.014.069a.2.2 0 0 0-.015.07.12.12 0 0 0 .068.117h.15v.011l.022.026a.12.12 0 0 0 .088.04.1.1 0 0 0 .043-.011l-.008.038h-.41v-.582h1.258Zm2.6 1.846-2.471.105.014-1.807h2.453Zm0-1.846h-2.454l.005-.582h2.451Zm.2-9.3a.512.512 0 1 1 .559-.489.525.525 0 0 1-.55.486Zm1.255.053a.512.512 0 1 1 .559-.489.526.526 0 0 1-.55.486ZM3.955 5.736A3.78 3.78 0 0 1 7.168 2a3.72 3.72 0 0 0-3.656 3.464l.065 12.278a2.5 2.5 0 0 0 .407 1.378 2 2 0 0 1-.029-.321Z"/></svg>