<?xml version="1.0" encoding="UTF-8"?>
<svg width="24px" fill="#44739e" height="24px" viewBox="0 0 24 24" version="1.1" xmlns="http://www.w3.org/2000/svg" xmlns:xlink="http://www.w3.org/1999/xlink">
            <path d="m 20.132,18.958 -3.857,-0.647 -2.07,0.756 H 14.192 L 6.4,17.927 A 5.6,5.6 0 0 0 5.68,18.369 L 4.065,19.54 a 0.589,0.589 0 0 0 0.281,1.06 l 8.639,0.961 a 7.107,7.107 0 0 0 3.136,-0.492 l 3.766,-1.4 c 0.389,-0.162 0.609,-0.35 0.589,-0.5 -0.014,-0.103 -0.149,-0.187 -0.344,-0.211 z M 20.8,17.493 A 1.452,1.452 0 0 0 19.629,16.169 L 9.988,14.3 a 1.426,1.426 0 0 0 -1.043,0.257 0.606,0.606 0 0 0 -0.259,0.417 l -0.007,0.031 -0.1,0.235 c -0.052,0.64 -0.419,1 -1.152,1.144 l -0.586,0.113 a 3.2,3.2 0 0 0 -1.472,0.705 l -1.5,1.273 A 1.846,1.846 0 0 0 3.387,19.107 L 3.21,19.488 a 1.074,1.074 0 0 0 0.865,1.523 l 9.182,0.958 a 6.186,6.186 0 0 0 2.939,-0.44 L 20.243,20 a 1.016,1.016 0 0 0 0.659,-1.028 z m -0.875,2.276 -3.769,1.4 a 7.932,7.932 0 0 1 -2.648,0.526 4.865,4.865 0 0 1 -0.534,-0.028 L 4.334,20.7 A 0.691,0.691 0 0 1 4.006,19.453 l 1.617,-1.171 a 5.771,5.771 0 0 1 0.61,-0.383 H 6.217 l 0.111,-0.073 a 3.43,3.43 0 0 1 1.033,-0.394 7.764,7.764 0 0 1 3.586,-0.119 l 5.327,0.893 0.2,0.033 v 0 l 3.679,0.617 c 0.243,0.031 0.409,0.146 0.43,0.3 0.01,0.121 -0.053,0.361 -0.658,0.613 z m -6.551,-8.941 a 0.254,0.254 0 0 0 0.21,0.3 0.2,0.2 0 0 0 0.223,-0.09 0.2,0.2 0 0 0 0.019,-0.066 l 0.016,-0.124 a 0.172,0.172 0 0 0 0,-0.06 0.241,0.241 0 0 0 -0.191,-0.178 0.221,0.221 0 0 0 -0.277,0.218 z M 11.7,10.624 a 0.1,0.1 0 0 0 0.091,0.112 0.129,0.129 0 0 0 0.144,-0.061 0.156,0.156 0 0 0 0.01,-0.04 l 0.01,-0.083 c -0.138,-0.03 -0.248,-0.021 -0.255,0.072 z m 9.547,6.628 -1.572,-10.913 a 3.659,3.659 0 0 0 -2,-2.112 L 11.446,2.239 A 4.251,4.251 0 0 0 10.021,2 4.708,4.708 0 0 0 6.339,3.748 L 5.093,5.559 A 2.956,2.956 0 0 0 4.516,6.91 L 2.767,18.289 A 1.911,1.911 0 0 0 2.986,19.514 1.181,1.181 0 0 1 3.03,19.4 l 0.178,-0.381 a 2.044,2.044 0 0 1 0.534,-0.7 l 1.5,-1.273 a 3.425,3.425 0 0 1 1.566,-0.75 l 0.586,-0.112 c 0.652,-0.125 0.947,-0.416 0.988,-0.975 l 0.007,-0.031 0.1,-0.236 A 0.794,0.794 0 0 1 8.826,14.395 1.647,1.647 0 0 1 10.032,14.1 l 9.641,1.869 A 1.656,1.656 0 0 1 21,17.479 l 0.034,0.492 a 0.916,0.916 0 0 0 0.213,-0.719 z m -7.1,-6.4 c 0.01,-0.08 0.017,-0.151 0.02,-0.215 l 0.13,0.028 -0.012,0.135 h 0.007 a 0.223,0.223 0 0 1 0.246,-0.1 0.152,0.152 0 0 1 0.041,0.013 l -0.014,0.116 a 0.3,0.3 0 0 0 -0.05,-0.015 0.18,0.18 0 0 0 -0.22,0.117 0.4,0.4 0 0 0 -0.014,0.057 l -0.046,0.363 -0.148,-0.027 z m -0.273,-0.173 v 0 l 0.02,-0.1 0.13,0.028 c -0.01,0.049 -0.02,0.1 -0.031,0.189 l -0.051,0.4 v 0 a 0.346,0.346 0 0 1 -0.157,0.3 0.487,0.487 0 0 1 -0.31,0.032 0.634,0.634 0 0 1 -0.266,-0.107 l 0.05,-0.093 a 0.537,0.537 0 0 0 0.234,0.1 c 0.153,0.027 0.273,-0.021 0.3,-0.2 l 0.009,-0.078 v 0 a 0.3,0.3 0 0 1 -0.277,0.067 0.37,0.37 0 0 1 -0.306,-0.415 0.331,0.331 0 0 1 0.416,-0.3 0.317,0.317 0 0 1 0.24,0.179 z m -1.369,-0.514 a 0.137,0.137 0 0 1 -0.118,-0.147 c 0.006,-0.069 0.066,-0.106 0.148,-0.086 a 0.144,0.144 0 0 1 0.124,0.15 c -0.007,0.066 -0.067,0.105 -0.153,0.085 z m 0.12,0.121 -0.092,0.747 -0.257,-0.049 0.093,-0.756 z m 0.093,0.273 v 0 c 0.014,-0.109 0.02,-0.181 0.024,-0.246 l 0.222,0.05 -0.008,0.137 h 0.006 a 0.22,0.22 0 0 1 0.242,-0.1 0.274,0.274 0 0 1 0.054,0.015 l -0.027,0.213 a 0.312,0.312 0 0 0 -0.069,-0.022 c -0.094,-0.02 -0.164,0.01 -0.189,0.077 a 0.231,0.231 0 0 0 -0.011,0.05 l -0.047,0.373 -0.256,-0.049 z m -1.09,1.995 a 2.079,2.079 0 0 1 -0.99,-0.679 2.155,2.155 0 0 1 -0.248,-2.14 1.6,1.6 0 0 1 1.869,-0.9 1.821,1.821 0 0 1 1.414,1.422 1.6,1.6 0 0 0 -0.541,-0.785 1.759,1.759 0 0 0 -1.12,-0.414 1.525,1.525 0 0 0 -1.462,1.542 1.9,1.9 0 0 0 0.635,1.518 2.251,2.251 0 0 0 1.39,0.523 2.242,2.242 0 0 1 -0.946,-0.085 z m 0.551,-1.778 a 1.029,1.029 0 0 0 -0.011,0.187 l -0.233,-0.045 -0.005,-0.08 v 0 a 0.292,0.292 0 0 1 -0.249,0.05 0.276,0.276 0 0 1 -0.239,-0.294 c 0.025,-0.2 0.23,-0.259 0.521,-0.194 v -0.011 c 0,-0.04 -0.012,-0.1 -0.139,-0.133 a 0.471,0.471 0 0 0 -0.236,0.009 L 11.56,10.097 a 0.7,0.7 0 0 1 0.329,0.006 c 0.276,0.063 0.345,0.232 0.323,0.411 l -0.032,0.263 z m 1.121,1.666 a 2.246,2.246 0 0 1 -2.22,-1.027 1.465,1.465 0 0 1 0.39,-1.968 1.282,1.282 0 0 0 -0.414,0.88 1.582,1.582 0 0 0 0.431,1.172 2.25,2.25 0 0 0 2.485,0.421 1.882,1.882 0 0 0 0.578,-0.376 l 0.366,0.064 A 2.34,2.34 0 0 1 13.3,12.442 Z m 1.882,-1.329 -0.031,0.245 v 0 a 0.8,0.8 0 0 0 -0.007,0.159 L 15,11.493 v -0.086 0 a 0.321,0.321 0 0 1 -0.263,0.053 c -0.166,-0.03 -0.238,-0.141 -0.225,-0.239 0.02,-0.163 0.207,-0.217 0.523,-0.152 v -0.013 c 0.007,-0.054 0,-0.156 -0.167,-0.191 a 0.458,0.458 0 0 0 -0.219,0.006 l -0.024,-0.087 a 0.57,0.57 0 0 1 0.277,0 c 0.25,0.05 0.298,0.199 0.277,0.329 z M 15.2,10.7 14.988,10.654 a 1.98,1.98 0 0 0 -0.35,-1.219 2.3,2.3 0 0 1 0.487,0.828 1.6,1.6 0 0 1 0.075,0.436 z m 0.816,0.8 a 1.541,1.541 0 0 0 -0.015,0.163 l -0.133,-0.024 0.008,-0.111 v 0 a 0.318,0.318 0 0 1 -0.3,0.074 0.353,0.353 0 0 1 -0.309,-0.392 0.319,0.319 0 0 1 0.412,-0.271 0.33,0.33 0 0 1 0.234,0.147 v 0 l 0.049,-0.375 0.15,0.033 z m 0.291,0.216 -0.15,-0.026 0.082,-0.621 0.149,0.031 z m 0.017,-0.736 a 0.089,0.089 0 0 1 -0.08,-0.088 c 0,-0.039 0.048,-0.061 0.1,-0.05 0.052,0.011 0.087,0.05 0.082,0.089 -0.005,0.039 -0.047,0.069 -0.105,0.055 z m 0.857,0.554 a 0.317,0.317 0 0 1 -0.012,0.049 L 16.59,11.476 c -0.015,0.149 0.105,0.233 0.254,0.259 a 0.7,0.7 0 0 0 0.232,0.009 l 0.016,0.082 a 0.869,0.869 0 0 1 -0.279,-0.008 c -0.252,-0.044 -0.387,-0.2 -0.363,-0.379 a 0.322,0.322 0 0 1 0.428,-0.252 c 0.265,0.06 0.314,0.244 0.3,0.353 z m 0.8,0.119 -0.05,0.347 -0.15,-0.025 0.044,-0.328 c 0.013,-0.092 -0.026,-0.178 -0.167,-0.205 a 0.2,0.2 0 0 0 -0.215,0.069 0.1,0.1 0 0 0 -0.016,0.048 l -0.047,0.349 -0.15,-0.026 0.058,-0.428 v 0 a 1.424,1.424 0 0 0 0.015,-0.16 l 0.132,0.026 v 0.1 0 a 0.32,0.32 0 0 1 0.286,-0.055 0.276,0.276 0 0 1 0.256,0.294 z m 0.564,-0.044 -0.213,-0.041 -0.041,0.3 c -0.009,0.069 0.015,0.113 0.1,0.127 a 0.394,0.394 0 0 0 0.087,0.008 v 0.076 a 0.545,0.545 0 0 1 -0.134,-0.006 0.274,0.274 0 0 1 -0.155,-0.071 0.17,0.17 0 0 1 -0.037,-0.155 l 0.041,-0.3 -0.126,-0.025 0.01,-0.078 0.127,0.025 0.014,-0.1 h 0.149 l -0.018,0.133 0.213,0.042 z m -2.852,-0.568 a 0.217,0.217 0 0 0 -0.277,0.2 0.242,0.242 0 0 0 0.212,0.283 0.208,0.208 0 0 0 0.235,-0.1 0.147,0.147 0 0 0 0.013,-0.049 l 0.015,-0.109 a 0.211,0.211 0 0 0 0,-0.05 0.239,0.239 0 0 0 -0.198,-0.175 z m 1.159,0.227 a 0.2,0.2 0 0 0 -0.253,0.134 l 0.436,0.082 C 17.046,11.416 17.019,11.3 16.852,11.268 Z m -2.193,-0.032 c -0.01,0.079 0.05,0.129 0.127,0.143 A 0.2,0.2 0 0 0 15,11.306 0.13,0.13 0 0 0 15.013,11.27 l 0.015,-0.116 c -0.164,-0.035 -0.352,-0.048 -0.369,0.082 z"/>

</svg>