<svg xmlns="http://www.w3.org/2000/svg" viewBox="0 0 24 24"><path fill="#44739e" d="m20.134 18.961-3.858-.647-2.07.756h-.013L6.4 17.93a5.6 5.6 0 0 0-.721.442l-1.615 1.171a.589.589 0 0 0 .281 1.061l8.641.961a7.1 7.1 0 0 0 3.136-.492l3.767-1.4c.389-.163.609-.351.589-.501-.014-.103-.149-.187-.344-.211m.668-1.465a1.45 1.45 0 0 0-1.171-1.324l-9.643-1.87a1.43 1.43 0 0 0-1.043.258.6.6 0 0 0-.259.417l-.007.031-.1.235c-.052.64-.419 1-1.152 1.144l-.586.113a3.2 3.2 0 0 0-1.473.705l-1.5 1.273a1.85 1.85 0 0 0-.482.632l-.177.381a1.074 1.074 0 0 0 .865 1.524l9.184.958a6.2 6.2 0 0 0 2.939-.44l4.048-1.529a1.02 1.02 0 0 0 .659-1.029Zm-.875 2.277-3.77 1.4a8 8 0 0 1-2.648.526 5 5 0 0 1-.534-.028l-8.642-.967a.691.691 0 0 1-.328-1.248l1.617-1.171a6 6 0 0 1 .611-.383h-.016l.111-.073a3.4 3.4 0 0 1 1.033-.394 7.8 7.8 0 0 1 3.586-.119l5.328.893.201.033 3.679.617c.243.031.409.146.43.3.01.121-.053.361-.658.614m-6.552-8.943a.254.254 0 0 0 .21.3.2.2 0 0 0 .223-.09.2.2 0 0 0 .019-.066l.016-.124a.2.2 0 0 0 0-.06.24.24 0 0 0-.191-.178.22.22 0 0 0-.277.218m-1.674-.204a.1.1 0 0 0 .091.112.13.13 0 0 0 .144-.061.2.2 0 0 0 .01-.04l.01-.083c-.138-.03-.248-.021-.255.072m9.548 6.629L19.677 6.34a3.66 3.66 0 0 0-2-2.112l-6.23-1.989A4.3 4.3 0 0 0 10.021 2a4.7 4.7 0 0 0-3.682 1.748L5.092 5.56a2.96 2.96 0 0 0-.577 1.351L2.766 18.292a1.9 1.9 0 0 0 .219 1.225 1 1 0 0 1 .044-.114l.178-.381a2 2 0 0 1 .534-.7l1.5-1.273a3.4 3.4 0 0 1 1.567-.75l.586-.112c.652-.125.947-.416.988-.975l.007-.031.1-.236a.8.8 0 0 1 .337-.548 1.65 1.65 0 0 1 1.206-.295l9.643 1.87a1.656 1.656 0 0 1 1.327 1.51l.034.492a.92.92 0 0 0 .213-.719m-7.101-6.401q.015-.12.02-.215l.13.028-.012.135h.007a.22.22 0 0 1 .246-.1.2.2 0 0 1 .041.013l-.014.116a.3.3 0 0 0-.05-.015.18.18 0 0 0-.22.117.4.4 0 0 0-.014.057l-.046.363-.148-.027Zm-.273-.173.02-.1.13.028c-.01.049-.02.1-.031.189l-.051.4a.35.35 0 0 1-.157.3.5.5 0 0 1-.31.032.6.6 0 0 1-.266-.107l.05-.093a.54.54 0 0 0 .234.1c.153.027.273-.021.3-.2l.009-.078a.3.3 0 0 1-.277.067.37.37 0 0 1-.306-.415.33.33 0 0 1 .416-.3.32.32 0 0 1 .24.179Zm-1.369-.514a.137.137 0 0 1-.118-.147c.006-.069.066-.106.148-.086a.144.144 0 0 1 .124.15c-.007.066-.067.105-.153.085Zm.12.121-.092.747-.257-.049.093-.756Zm.093.273a4 4 0 0 0 .024-.246l.222.05-.008.137h.006a.22.22 0 0 1 .242-.1.3.3 0 0 1 .054.015l-.027.213a.3.3 0 0 0-.069-.022c-.094-.02-.164.01-.189.077a.2.2 0 0 0-.011.05l-.047.373-.256-.049Zm-1.09 1.995a2.1 2.1 0 0 1-.991-.679 2.15 2.15 0 0 1-.248-2.14 1.6 1.6 0 0 1 1.87-.901 1.82 1.82 0 0 1 1.414 1.423 1.6 1.6 0 0 0-.541-.785 1.76 1.76 0 0 0-1.12-.415 1.525 1.525 0 0 0-1.463 1.543 1.9 1.9 0 0 0 .635 1.518 2.25 2.25 0 0 0 1.391.523 2.2 2.2 0 0 1-.946-.085Zm.551-1.778a1 1 0 0 0-.011.187l-.233-.045-.005-.08a.3.3 0 0 1-.249.05.276.276 0 0 1-.239-.294c.025-.2.23-.259.521-.194v-.011c0-.04-.012-.1-.139-.133a.5.5 0 0 0-.236.009l-.028-.168a.7.7 0 0 1 .329.006c.276.063.345.232.323.411Zm1.121 1.666a2.25 2.25 0 0 1-2.221-1.027 1.465 1.465 0 0 1 .391-1.968 1.28 1.28 0 0 0-.415.88 1.58 1.58 0 0 0 .432 1.172 2.25 2.25 0 0 0 2.485.421 1.9 1.9 0 0 0 .578-.376l.366.064a2.34 2.34 0 0 1-1.616.834m1.882-1.329-.031.245a1 1 0 0 0-.007.159l-.144-.024v-.086a.32.32 0 0 1-.263.053c-.166-.03-.238-.141-.225-.239.02-.163.207-.217.523-.152v-.013c.007-.054 0-.156-.167-.191a.46.46 0 0 0-.219.006l-.024-.087a.6.6 0 0 1 .277 0c.25.05.298.199.277.329Zm.018-.413-.212-.046a1.98 1.98 0 0 0-.35-1.219 2.3 2.3 0 0 1 .487.828 1.6 1.6 0 0 1 .075.436Zm.816.8a2 2 0 0 0-.015.163l-.133-.024.008-.111a.32.32 0 0 1-.3.074.353.353 0 0 1-.309-.392.32.32 0 0 1 .412-.271.33.33 0 0 1 .234.147l.049-.375.15.033Zm.291.216-.15-.026.082-.621.15.031Zm.018-.736a.09.09 0 0 1-.081-.088c0-.039.048-.061.101-.05s.087.05.082.089-.047.069-.105.055Zm.857.554a.3.3 0 0 1-.012.049l-.579-.107c-.015.149.105.233.254.259a.7.7 0 0 0 .232.009l.016.082a.9.9 0 0 1-.279-.008c-.252-.044-.387-.2-.363-.379a.322.322 0 0 1 .428-.252c.265.06.314.244.3.353Zm.8.119-.05.347-.15-.025.044-.328c.013-.092-.026-.178-.167-.205a.2.2 0 0 0-.215.069.1.1 0 0 0-.016.048l-.047.349-.15-.026.058-.428a1 1 0 0 0 .015-.16l.132.026v.1a.32.32 0 0 1 .286-.055.276.276 0 0 1 .256.294Zm.564-.044-.213-.041-.041.3c-.009.069.015.113.1.127a.4.4 0 0 0 .087.008v.076a.6.6 0 0 1-.134-.006.27.27 0 0 1-.155-.071.17.17 0 0 1-.037-.155l.041-.3-.126-.025.01-.078.127.025.014-.1h.149l-.018.133.213.042Zm-2.853-.568a.217.217 0 0 0-.277.2.24.24 0 0 0 .212.283.21.21 0 0 0 .235-.1.2.2 0 0 0 .013-.049l.015-.109a.2.2 0 0 0 0-.05.24.24 0 0 0-.198-.175m1.16.227a.2.2 0 0 0-.253.134l.436.082c.011-.068-.016-.184-.183-.216m-2.194-.032c-.01.079.05.129.127.143a.2.2 0 0 0 .214-.073.1.1 0 0 0 .013-.036l.015-.116c-.164-.035-.352-.048-.369.082"/></svg>