<?xml version="1.0" encoding="UTF-8"?>
<svg width="24px" fill="#44739e" height="24px" viewBox="0 0 24 24" version="1.1" xmlns="http://www.w3.org/2000/svg" xmlns:xlink="http://www.w3.org/1999/xlink">
            <path d="m 22,10.962 v -0.275 h -0.515 v -0.476 l -0.35,0.114 v 0.366 h -0.306 v 0.275 h 0.306 v 1.081 a 0.734,0.734 0 0 0 0.138,0.514 0.5,0.5 0 0 0 0.389,0.158 0.9,0.9 0 0 0 0.318,-0.055 l -0.015,-0.272 a 0.676,0.676 0 0 1 -0.209,0.024 c -0.2,0 -0.271,-0.138 -0.271,-0.385 v -1.069 z m -2.016,-0.326 a 0.726,0.726 0 0 0 -0.657,0.373 H 19.319 L 19.3,10.683 h -0.319 c 0.012,0.165 0.016,0.334 0.016,0.538 v 0 1.447 h 0.362 v -1.187 a 0.552,0.552 0 0 1 0.023,-0.169 0.517,0.517 0 0 1 0.484,-0.37 c 0.342,0 0.46,0.267 0.46,0.586 v 1.14 h 0.361 V 11.481 C 20.683,10.8 20.259,10.636 19.984,10.636 Z m -2.044,0.007 a 0.964,0.964 0 0 0 -0.932,1.069 0.924,0.924 0 0 0 0.975,1 1.569,1.569 0 0 0 0.66,-0.126 L 18.58,12.327 a 1.284,1.284 0 0 1 -0.55,0.1 0.634,0.634 0 0 1 -0.679,-0.684 h 1.4 a 1.428,1.428 0 0 0 0.012,-0.169 0.842,0.842 0 0 0 -0.823,-0.931 z m -0.586,0.842 a 0.6,0.6 0 0 1 0.554,-0.586 0.513,0.513 0 0 1 0.5,0.586 z m -0.959,-0.802 h 0.362 v 1.985 H 16.395 Z M 16.576,9.9 A 0.219,0.219 0 0 0 16.352,10.124 0.222,0.222 0 1 0 16.576,9.9 Z M 16,9.759 h -0.36 v 1.183 h -0.007 a 0.661,0.661 0 0 0 -0.6,-0.3 0.948,0.948 0 0 0 -0.888,1.066 0.9,0.9 0 0 0 0.855,1.003 0.737,0.737 0 0 0 0.676,-0.389 h 0.008 l 0.015,0.346 h 0.323 C 16.01,12.534 16.006,12.333 16.006,12.157 Z m -0.362,2.079 a 0.709,0.709 0 0 1 -0.015,0.157 0.538,0.538 0 0 1 -0.527,0.429 c -0.389,0 -0.586,-0.334 -0.586,-0.735 0,-0.44 0.22,-0.767 0.594,-0.767 a 0.534,0.534 0 0 1 0.519,0.417 0.748,0.748 0 0 1 0.015,0.153 z m -1.723,0.354 v -0.743 c 0,-0.4 -0.149,-0.81 -0.755,-0.81 a 1.238,1.238 0 0 0 -0.652,0.177 l 0.082,0.236 a 0.981,0.981 0 0 1 0.515,-0.149 0.408,0.408 0 0 1 0.452,0.46 V 11.4 c -0.766,0 -1.191,0.259 -1.191,0.739 a 0.565,0.565 0 0 0 0.606,0.57 0.731,0.731 0 0 0 0.605,-0.295 h 0.012 l 0.027,0.252 h 0.326 A 2.97,2.97 0 0 1 13.911,12.19 Z m -0.35,-0.185 a 0.375,0.375 0 0 1 -0.02,0.114 0.5,0.5 0 0 1 -0.479,0.33 0.322,0.322 0 0 1 -0.342,-0.346 c 0,-0.385 0.448,-0.455 0.841,-0.448 z M 11.4,12.668 h 0.358 v -1.054 a 1.055,1.055 0 0 1 0.016,-0.169 0.5,0.5 0 0 1 0.483,-0.464 0.547,0.547 0 0 1 0.122,0.012 v -0.342 a 0.4,0.4 0 0 0 -0.1,-0.012 0.6,0.6 0 0 0 -0.551,0.437 h -0.015 l -0.012,-0.389 h -0.314 c 0.011,0.18 0.015,0.385 0.015,0.617 z M 9.2,11.689 a 0.887,0.887 0 0 0 0.845,0.967 0.706,0.706 0 0 0 0.633,-0.33 v 0 0.22 c 0,0.5 -0.271,0.691 -0.641,0.691 A 1.107,1.107 0 0 1 9.456,13.08 l -0.091,0.275 a 1.288,1.288 0 0 0 0.661,0.166 1.055,1.055 0 0 0 0.723,-0.236 1.133,1.133 0 0 0 0.283,-0.9 v 0 -1.156 c 0,-0.244 0.008,-0.4 0.016,-0.546 h -0.315 l -0.016,0.3 H 10.71 A 0.651,0.651 0 0 0 10.092,10.638 0.953,0.953 0 0 0 9.2,11.689 Z M 10.66,11.3 a 0.534,0.534 0 0 1 0.02,0.165 v 0.354 a 0.674,0.674 0 0 1 -0.027,0.192 0.527,0.527 0 0 1 -0.5,0.37 c -0.389,0 -0.585,-0.323 -0.585,-0.712 0,-0.46 0.243,-0.751 0.589,-0.751 A 0.521,0.521 0 0 1 10.66,11.3 Z M 8.565,12.668 V 11.65 A 0.731,0.731 0 0 1 8.577,11.512 0.4,0.4 0 0 1 9,11.2 0.64,0.64 0 0 1 9.169,11.219 V 10.63 A 0.627,0.627 0 0 0 9.039,10.622 0.588,0.588 0 0 0 8.497,11.034 H 8.483 L 8.463,10.665 H 7.925 c 0.008,0.173 0.015,0.366 0.015,0.66 v 0 1.345 z M 7.0250001,10.663 h 0.621 v 2.005 h -0.621 z M 7.331,9.794 a 0.313,0.313 0 1 0 0,0.625 0.313,0.313 0 1 0 0,-0.625 z M 4.93,12.1 a 0.615,0.615 0 0 0 0.648,0.613 0.716,0.716 0 0 0 0.574,-0.248 h 0.012 l 0.035,0.2 H 6.761 A 3.331,3.331 0 0 1 6.734,12.177 v 0 -0.692 A 0.778,0.778 0 0 0 5.853,10.621 1.63,1.63 0 0 0 5.075,10.798 l 0.114,0.4 a 1.142,1.142 0 0 1 0.554,-0.153 c 0.307,0 0.366,0.153 0.366,0.26 v 0.027 C 5.4,11.331 4.93,11.583 4.93,12.1 Z m 1.2,-0.378 v 0.216 A 0.462,0.462 0 0 1 6.119,12.045 0.338,0.338 0 0 1 5.796,12.273 0.222,0.222 0 0 1 5.549,12.037 C 5.547,11.8 5.8,11.72 6.128,11.724 Z M 11.3,14.4 a 4.892,4.892 0 0 1 -6,-0.063 3.779,3.779 0 0 1 -1.352,-2.692 3.7,3.7 0 0 1 0.727,-2.4 3.9,3.9 0 0 0 -0.366,5.055 5.143,5.143 0 0 0 5.553,1.812 5.621,5.621 0 0 0 3.573,-3.054 H 12.551 A 4.9,4.9 0 0 1 11.3,14.4 Z m 2.532,-4.181 v 0 a 5.27,5.27 0 0 0 -1.706,-3.262 5.725,5.725 0 0 1 1.191,3.266 z m -9.067,5.762 a 4.589,4.589 0 0 1 1.08,-8.065 3.488,3.488 0 0 1 2.76,0.279 3.411,3.411 0 0 1 1.5,1.753 3.583,3.583 0 0 0 -3.741,-2.775 4.736,4.736 0 0 0 -4.15,3.419 5.086,5.086 0 0 0 1.191,5 5.035,5.035 0 0 0 2.539,1.36 4.9,4.9 0 0 0 2.264,-0.083 5.193,5.193 0 0 1 -3.443,-0.888 z"/>

</svg>