<svg xmlns="http://www.w3.org/2000/svg" viewBox="0 0 24 24"><path fill="#44739e" d="M21.999 14.201V9.85a3.6 3.6 0 0 0-.41-1.649 5.3 5.3 0 0 0-1.319-1.327 4 4 0 0 1-.592-.32c-1.549-.824-5.193-2.794-6.332-3.2a4.4 4.4 0 0 0-1.321-.229h-.045a4.7 4.7 0 0 0-1.321.229c-1.138.411-4.782 2.381-6.331 3.2a2.5 2.5 0 0 1-.638.32 3.7 3.7 0 0 0-1.323 1.281 4.4 4.4 0 0 0-.366 1.646v4.349a3.14 3.14 0 0 0 .41 1.649 5.3 5.3 0 0 0 1.322 1.327c.046.045.273.137.592.32 1.549.824 5.148 2.794 6.331 3.2a4.4 4.4 0 0 0 1.321.229h.045a4.7 4.7 0 0 0 1.321-.229c1.139-.411 4.783-2.381 6.332-3.2a2.5 2.5 0 0 1 .638-.32 3.7 3.7 0 0 0 1.319-1.281 3.56 3.56 0 0 0 .367-1.644m-.683 0a2.6 2.6 0 0 1-.317 1.234 4.3 4.3 0 0 1-1.047 1.053c-.046 0-.091.046-.228.091a62 62 0 0 1-6.651 3.388 3 3 0 0 1-1.092.182h-.046a3.1 3.1 0 0 1-1.093-.182 73 73 0 0 1-6.649-3.388l-.183-.091a3.3 3.3 0 0 1-1.093-1.053 2.6 2.6 0 0 1-.322-1.234V9.85a2.6 2.6 0 0 1 .319-1.237A4.3 4.3 0 0 1 3.962 7.56c.045 0 .091-.046.182-.092a73 73 0 0 1 6.65-3.386 3 3 0 0 1 1.093-.18h.136a3 3 0 0 1 1.093.184 73 73 0 0 1 6.651 3.386l.182.092a3.9 3.9 0 0 1 1.093 1.053 2.8 2.8 0 0 1 .317 1.237Zm-9.84-6.274-6.513 7 2.779-.5s3.006-3.113 3.643-3.8a.78.78 0 0 1 .593-.275.72.72 0 0 1 .592.275c.637.642 3.643 3.8 3.643 3.8l2.779.5-6.513-7a.713.713 0 0 0-1.003 0m6.515.869a1.099 1.094 90 0 1-1.094 1.099 1.099 1.094 90 0 1-1.094-1.099 1.099 1.094 90 0 1 1.094-1.099 1.099 1.094 90 0 1 1.094 1.099"/></svg>