<?xml version="1.0" encoding="UTF-8"?>
<svg width="24px" fill="#44739e" height="24px" viewBox="0 0 24 24" version="1.1" xmlns="http://www.w3.org/2000/svg" xmlns:xlink="http://www.w3.org/1999/xlink">
            <path d="M 12.113,2 A 10,10 0 0 0 10.78,21.919 V 19.9 A 1.33,1.33 0 0 0 9.88,18.639 7,7 0 1 1 19.113,12 v 0.32 c 0,0.081 -0.008,0.161 -0.014,0.241 0,0.024 0,0.05 -0.007,0.076 a 1.575,1.575 0 0 1 -0.017,0.167 c -0.006,0.056 -0.015,0.125 -0.024,0.187 l -0.012,0.085 c -0.857,5.649 -8.21,8.823 -8.251,8.84 a 10.11,10.11 0 0 0 1.325,0.084 10,10 0 0 0 0,-20 z"/>

</svg>