<svg xmlns="http://www.w3.org/2000/svg" viewBox="0 0 24 24"><path fill="#44739e" d="m8.105 5.632-.038-.369.659-.347.274.242.511-.267L7.9 3.501l-.526.272.21 2.127Zm-.18-1.452.487.453-.4.21-.092-.662Zm3.274.403-.059-.758.568.718.67-.052-.716-.758a.537.537 0 0 0 .41-.593c-.033-.421-.358-.582-.767-.549l-.805.064.157 1.97Zm-.068-1.579c.174-.013.375 0 .392.211s-.179.263-.354.274h-.052l-.039-.49ZM17.059 6.5l.157.147 1.143-.486.004.003-.586 1.032.386.376 1.05-1.76-.391-.368-1.049.463.418-1.058-.387-.364-1.688 1.148.395.364.978-.656.004.004Zm-2.848-1.553.073.022a1.08 1.08 0 0 0 1.4-.607l.03-.08a1.158 1.158 0 0 0-2.182-.703 1.08 1.08 0 0 0 .679 1.368m-.149-1.193a.591.591 0 0 1 1.116.36v.015a.58.58 0 0 1-.737.366h-.01a.58.58 0 0 1-.36-.737Zm5.247 5.203.315-.131.232.562.403-.167-.233-.562.305-.126.246.592.402-.167-.453-1.091-1.826.758.452 1.091.403-.167ZM2.564 12.179 4.532 13l.007-.573-.339-.146.009-.743.345-.13.007-.576-1.987.757Zm.615-.284.632-.211v.45ZM6.303 6.04l-.322-.294-.4.438-.243-.223.44-.482-.322-.294-.804.881 1.46 1.333.364-.398-.573-.524ZM12 4.8a7.2 7.2 0 1 0 7.2 7.2A7.2 7.2 0 0 0 12 4.8m-2.2.537a7 7 0 0 1 2.112-.35v5.776H9.8ZM7.672 6.476v4.284H5.089a7 7 0 0 1 2.583-4.284m0 11.052a7 7 0 0 1-2.638-4.641h2.642ZM9.8 18.666v-5.779h2.114v6.131a7 7 0 0 1-2.114-.352m2.284.351V4.983a7.017 7.017 0 0 1 0 14.034M12 2a10 10 0 1 0 10 10A10 10 0 0 0 12 2m0 19.8a9.8 9.8 0 1 1 9.8-9.8 9.8 9.8 0 0 1-9.8 9.8m3.855-14.663a.211.211 0 1 0-.211-.211.21.21 0 0 0 .211.211m5.672 4.547a1.058 1.058 0 0 0-2.113-.105 1 1 0 0 0 .006.181 1.058 1.058 0 0 0 2.114.105 1 1 0 0 0-.007-.181m-1 .621h-.018a.58.58 0 0 1-.591-.567v-.017a.58.58 0 0 1 .568-.589.591.591 0 0 1 .041 1.171Zm-4.965-3.989c-.195 0-.373.141-.461.421h-1.064a.69.69 0 0 0 .674.6h1.028a.2.2 0 0 1 .21.186v.014a.21.21 0 0 1-.21.21h-1.028a.614.614 0 0 0-.674.533h2.21a.27.27 0 0 1 .276.26v.006a.284.284 0 0 1-.276.285h-2.026a1.455 1.455 0 0 0 .025 2.908h2.078a.23.23 0 0 1 .225.229c0 .125-.1.191-.225.191H14.3a.947.947 0 0 0-.965.928v.015a.97.97 0 0 0 .965.965h1.648a.2.2 0 0 1 .2.2.2.2 0 0 1-.2.2h-1.024a.543.543 0 0 0-.526.544.513.513 0 0 0 .515.509h.612c.235 0 .253.16.248.271.563-.211.271-.6.009-.6h-.75a.163.163 0 0 1 0-.327h.975a.687.687 0 1 0 0-1.368h-1.614a.214.214 0 0 1 0-.427h2.132a1.263 1.263 0 0 0 1.279-1.246v-.018a1.3 1.3 0 0 0-1.279-1.298h-2.237a.226.226 0 0 1 0-.451h2.371a1.96 1.96 0 0 0 1.84-1.935 2.57 2.57 0 0 0-1.222-2.162.59.59 0 0 1-.585.355Zm-1.506-1.065h2.551v.204h-2.551Zm-1.214 3.389-.011.012a.211.211 0 0 0 .263.315.2.2 0 0 0 .037-.04l.584-.4a1.08 1.08 0 0 1 .5-.982 1.07 1.07 0 0 1-.5-.977l-.584-.4a.211.211 0 0 0-.293.295l.377.26c.186.123.151.328.124.5s-.2.089-.257.026a.44.44 0 0 0-.749.311.43.43 0 0 0 .431.429h.008a.44.44 0 0 0 .31-.126c.053-.063.231-.143.257.024.026.169.066.362-.12.487Zm1.214-2.964h2.551v.266h-2.551ZM4.725 8.951l-1.424-.593-.207.499 1.826.759.456-1.095-.402-.168Z"/></svg>