<?xml version="1.0" encoding="UTF-8"?>
<svg width="33px" height="32px" viewBox="0 0 33 32" version="1.1" xmlns="http://www.w3.org/2000/svg" xmlns:xlink="http://www.w3.org/1999/xlink">
    <!-- Generator: Sketch 51.3 (57544) - http://www.bohemiancoding.com/sketch -->
    <title>amarat</title>
    <style>path{fill:#000}@media (prefers-color-scheme:dark){path{fill:#fff}}</style>
            <path d="M1.06988,13.69382c0-.79158-.00494-1.5832.0022-2.37471a.93584.93584,0,0,1,.49449-.8362,1.4769,1.4769,0,0,1,.33135-.11084q.60114-.17643,1.20321-.34964Q3.735,9.83888,4.369,9.65582,5.00274,9.472,5.63618,9.287q.5561-.16146,1.11251-.32188.516-.14955,1.03183-.29974.52123-.15118,1.04259-.30194.481-.13962.96188-.27989.481-.13947.96219-.27808c.29563-.08578.59094-.17269.88659-.25841.26889-.078.53816-.1546.80706-.23255s.5374-.15714.80625-.23518.53791-.15508.80676-.233.53745-.15655.80627-.23454.53776-.15542.80658-.23334.5375-.15623.8063-.23418q.36581-.10607.73172-.21176c.24212-.07014.48376-.14193.7264-.21019.22285-.0627.445-.12983.671-.17866a1.09036,1.09036,0,0,1,.32746-.006,1.31737,1.31737,0,0,1,.56567.17029.89008.89008,0,0,1,.15794.12154q1.36914,1.32415,2.73635,2.65031a2.63943,2.63943,0,0,1,.34407.47068,1.36534,1.36534,0,0,1,.19575.76037c.00592.62057.00058,1.24123.00243,1.86185a.94133.94133,0,0,1-.3502.75067,1.06073,1.06073,0,0,1-.38873.1868q-.66746.20721-1.3345.41574-.622.19389-1.244.38784-.62994.19653-1.25983.39323-.69912.21785-1.39841.43521-.6592.20559-1.31814.41206-.62462.19493-1.24945.38912-.62467.19477-1.24918.39-.69909.218-1.39828.43567-.65655.20469-1.313.40967-.62729.19573-1.25454.39147t-1.25451.3916q-.6991.218-1.39831.43552c-.342.10659-.683.21673-1.02631.319a2.36608,2.36608,0,0,1-.776.09234,3.51148,3.51148,0,0,1-.85883-.17916c-.39146-.11626-.78392-.22911-1.17559-.34463q-.5234-.15436-1.04586-.31184a.60355.60355,0,0,1-.24956-.19074,1.06759,1.06759,0,0,1-.32062-.76956C1.074,15.23984,1.06987,14.46681,1.06988,13.69382Zm4.10641.55446a.9872.9872,0,0,0,.17234-.00184,2.55025,2.55025,0,0,0,.27478-.069c.33569-.0999.67058-.20244,1.00607-.303.31065-.09311.62183-.18446.9325-.2775s.6209-.18765.93155-.28079c.28584-.0857.57212-.16992.858-.25559.33383-.1.66728-.20135,1.00111-.30138.3108-.09314.622-.1849.93282-.278q.50358-.15089,1.00678-.3031.47163-.14163.9435-.2824.50121-.14992,1.00246-.29977.50125-.15015,1.00237-.30075.53595-.1608,1.0719-.32156.576-.17248,1.15223-.34452.61878-.18533,1.23741-.37118.60806-.18226,1.21621-.36425c.36275-.10867.72574-.21654,1.088-.3266a.8887.8887,0,0,0,.32605-.13711.3019.3019,0,0,0,.08043-.45419,1.72447,1.72447,0,0,0-.14785-.16589q-.94839-.91053-1.89935-1.81836a1.01353,1.01353,0,0,0-.15839-.12189,1.24006,1.24006,0,0,0-.55863-.17353,1.32822,1.32822,0,0,0-.3713.00709c-.19761.03864-.39065.10125-.58491.15628-.24425.0692-.4878.14091-.73164.21158s-.48769.14139-.73152.21214q-.36309.10534-.72615.21073-.40321.11672-.80655.233-.36582.106-.73144.21277-.36586.106-.73192.21139-.406.11753-.81184.2355-.40071.116-.80151.23176-.44348.12861-.88679.25773-.47836.13848-.957.27614-.48379.14014-.9673.28125-.48117.13953-.96255.27834-.52142.151-1.04272.30236-.47867.13862-.95745.27683-.56161.16269-1.12311.32578-.55363.16031-1.10743.32c-.37986.10969-.75933.22075-1.13979.32832a.346.346,0,0,0-.25523.414.5317.5317,0,0,0,.164.27183c.65039.65056,1.30332,1.29861,1.95039,1.95245A1.07585,1.07585,0,0,0,5.17629,14.24828Z"/>

</svg>