<?xml version="1.0" encoding="UTF-8"?>
<svg width="24px" height="24px" fill="#44739e" viewBox="0 0 24 24" version="1.1" xmlns="http://www.w3.org/2000/svg" xmlns:xlink="http://www.w3.org/1999/xlink">
            <path d="M21.616,9.144,18.922,6.4a.727.727,0,0,0-.737-.184L2.646,11.091A.921.921,0,0,0,2,11.97v3.848a.859.859,0,0,0,.548.8l2.733,1.061a2.021,2.021,0,0,0,1.34.045l14.666-4.58a1.015,1.015,0,0,0,.713-.97v-2.09A1.341,1.341,0,0,0,21.616,9.144Zm-.726.527L6.119,14.293a.718.718,0,0,1-.682-.2L3.382,11.753c-.155-.181-.114-.38.091-.444L17.849,6.845a.824.824,0,0,1,.7.082l2.288,2.347C21.05,9.437,21.072,9.615,20.89,9.671Z"/>

</svg>