<?xml version="1.0" encoding="UTF-8"?>
<svg width="33px" height="32px" viewBox="0 0 33 32" version="1.1" xmlns="http://www.w3.org/2000/svg" xmlns:xlink="http://www.w3.org/1999/xlink">
    <!-- Generator: Sketch 51.3 (57544) - http://www.bohemiancoding.com/sketch -->
    <title>beyond</title>
    <style>path{fill:#000}@media (prefers-color-scheme:dark){path{fill:#fff}}</style>
            <path d="M12,19.68c-2.76,0-5.19-0.45-6.71-1.14c-1.45,0.33-2.39,0.71-2.7,1.02c0.66,0.65,4.06,1.67,9.4,1.67 c5.34,0,8.74-1.02,9.4-1.67c-0.31-0.31-1.24-0.7-2.7-1.02C17.19,19.23,14.76,19.68,12,19.68z M23.55,18.65c-0.19-0.78-0.61-2.15-1.34-2.92c-0.38-0.4-1.19-0.87-2.29-1.31l-4.1-10.86 c0.93-0.21,1.5-0.5,1.5-0.82v-1c0-0.65-2.37-1.17-5.29-1.17c-2.92,0-5.29,0.53-5.29,1.17v1c0,0.32,0.57,0.6,1.49,0.81l-4,10.79 c-1.47,0.6-2.56,1.32-3,2.02c-1.07,1.7-0.91,2.89-0.91,2.89c0,2.32,5.23,4.19,11.68,4.19c6.45,0,11.68-1.88,11.68-4.19 C23.68,19.04,23.63,18.85,23.55,18.65z M12.53,3.91c0.09,0,0.17,0,0.26-0.01c1.2,0.14,2.33,0.6,2.64,1.42l0.17,0.44 c0.34,0.9-1.29,1.97-3.07,2.14L12.53,3.91z M12.52,8.85c1.62-0.1,2.95-0.73,3.63-1.62l2.55,6.75c-1.72-0.55-3.89-0.98-6.2-1.06 L12.52,8.85z M9.23,3.73c0.68,0.09,1.46,0.15,2.3,0.17l-0.01,4.05C9.86,8.01,8.41,8.31,7.35,8.81L9.23,3.73z M6.65,10.71 l0.05-0.13c0.48-1.01,2.39-1.62,4.82-1.7l-0.01,4.03c-0.11,0-0.21,0-0.32,0C8.4,12.73,6.29,11.68,6.65,10.71z M6.11,12.16 c0.42,0.44,1.08,0.82,1.9,1.1c-0.9,0.17-1.75,0.38-2.54,0.63L6.11,12.16z M1.24,18.06L1.24,18.06L1.24,18.06 C1.24,18.05,1.24,18.06,1.24,18.06z M21.21,20.83c-0.32,0.15-0.7,0.29-1.13,0.43c-0.21,0.07-0.44,0.13-0.68,0.19 c-1.89,0.48-4.51,0.78-7.4,0.78c-2.89,0-5.51-0.3-7.4-0.78c-0.24-0.06-0.46-0.12-0.68-0.19c-0.43-0.13-0.8-0.27-1.13-0.43 c-0.81-0.38-1.26-0.81-1.26-1.27c0-1.47,4.69-2.67,10.47-2.67c5.78,0,10.47,1.19,10.47,2.67C22.47,20.02,22.01,20.45,21.21,20.83z"></path>

</svg>