<?xml version="1.0" encoding="UTF-8"?>
<svg version="1.1" viewBox="0 0 24 24" width="24" height="24" xmlns="http://www.w3.org/2000/svg">
 <path d="m17.697 6.2932c-0.0899-0.0899-0.22469-0.1348-0.38196-0.1348s-0.2696 0.0449-0.35949 0.1348c-0.0899 0.0899-0.1348 0.20222-0.1348 0.33702s0.045 0.2696 0.1348 0.33702c0.0899 0.0899 0.20222 0.1348 0.35949 0.1348s0.2696-0.0449 0.35949-0.1348c0.0899-0.0899 0.1348-0.20222 0.1348-0.33702s-0.0225-0.2696-0.11233-0.33702zm-0.1348 1.5278h-0.47182c-0.11232 0-0.15727 0.0449-0.15727 0.15727v3.7297c0 0.11233 0.045 0.15728 0.15727 0.15728h0.47182c0.11233 0 0.15728-0.045 0.15728-0.15728v-3.7297c0-0.0899-0.045-0.15727-0.15728-0.15727zm3.123 9.1442c1.1683-0.98858 1.4829-3.0332 1.2357-3.3476-0.11233-0.1348-0.65156-0.2696-1.3256-0.2696-0.71898 0-1.5728 0.15727-2.2243 0.60661-0.20222 0.1348-0.15727 0.31455 0.0449 0.29208 0.69651-0.0899 2.2692-0.2696 2.5613 0.0898 0.2696 0.35949-0.31454 1.8424-0.58418 2.4939-0.0674 0.20225 0.0899 0.26966 0.29208 0.13483zm-1.0111-8.2457c0.20222-0.22469 0.51677-0.33702 0.96611-0.33702 0.22469 0 0.44935 0.0225 0.65157 0.0899 0.0674 0.0225 0.0898 0.0225 0.1348 0.0225 0.0674 0 0.11233-0.0449 0.11233-0.15727v-0.22469c0-0.0674-0.0225-0.1348-0.045-0.15727-0.0225-0.0225-0.0674-0.0674-0.11233-0.0899-0.29207-0.0674-0.58418-0.1348-0.85378-0.1348-0.62909 0-1.1009 0.17975-1.4604 0.56171-0.33701 0.35949-0.51676 0.89872-0.51676 1.5728 0 0.67403 0.15727 1.1908 0.49429 1.5503s0.80884 0.53924 1.4379 0.53924c0.33702 0 0.65156-0.0449 0.89872-0.15728 0.0674-0.0225 0.11233-0.0449 0.1348-0.0898 0.0225-0.0225 0.0225-0.0899 0.0225-0.15727v-0.22469c0-0.11233-0.045-0.15728-0.11233-0.15728-0.0225 0-0.0674 0-0.11233 0.0225-0.24716 0.0674-0.49429 0.11232-0.71898 0.11232-0.42688 0-0.74145-0.11232-0.94364-0.33701-0.20221-0.22469-0.29207-0.58418-0.29207-1.056v-0.11233c0.0225-0.49432 0.11233-0.85381 0.31454-1.0785zm0.0674 6.1339c-2.449 1.0335-5.1228 1.5503-7.5493 1.5503-3.5949 0-7.0773-0.98858-9.8858-2.6287-0.0449-0.0225-0.0899-0.0449-0.1348-0.0449-0.15727 0-0.24716 0.17975-0.0898 0.33702 2.6063 2.3591 6.0662 3.7745 9.8858 3.7745 2.7411 0 5.9092-0.85378 8.0884-2.4714 0.38193-0.26963 0.0674-0.67407-0.31458-0.5168zm-12.245-2.9882h0.47182c0.11233 0 0.15728-0.0449 0.15728-0.15727v-2.8085c0-0.38197-0.0899-0.67404-0.29208-0.87626-0.20221-0.20221-0.47182-0.31454-0.85378-0.31454-0.51676 0-1.056 0.17974-1.5728 0.56171-0.17974-0.38197-0.51676-0.56171-1.011-0.56171s-0.98858 0.17974-1.4829 0.51676l-0.0449-0.24716c0-0.0674-0.0225-0.0899-0.0674-0.11233-0.0225-0.0225-0.0674-0.0225-0.11233-0.0225h-0.35949c-0.11233 0-0.15727 0.0449-0.15727 0.15727v3.7297c0 0.11233 0.0449 0.15727 0.15727 0.15727h0.47182c0.11233 0 0.15727-0.0449 0.15727-0.15727v-3.0332c0.38196-0.22469 0.76389-0.35949 1.1683-0.35949 0.22469 0 0.38196 0.0674 0.47182 0.20222 0.0899 0.1348 0.15727 0.31454 0.15727 0.58418v2.5838c0 0.11233 0.0449 0.15727 0.15727 0.15727h0.47182c0.11233 0 0.15727-0.0449 0.15727-0.15727v-3.0107c0.40444-0.24716 0.78637-0.35949 1.1683-0.35949 0.22469 0 0.38196 0.0674 0.47182 0.20222 0.0899 0.1348 0.15727 0.31454 0.15727 0.58418v2.5838c6e-5 0.11226 0.045 0.15721 0.15733 0.15721zm4.2688-3.887v2.9882c-0.38197 0.24716-0.7639 0.38196-1.1459 0.38196-0.24716 0-0.42687-0.0674-0.53923-0.20221-0.11236-0.13481-0.15728-0.33702-0.15728-0.6291v-2.5389c0-0.11233-0.0449-0.15728-0.15727-0.15728h-0.47182c-0.11232 0-0.15727 0.0449-0.15727 0.15728v2.786c0 0.38197 0.0899 0.69651 0.29207 0.89873 0.20222 0.20221 0.49429 0.31454 0.87626 0.31454 0.51676 0 1.0335-0.17974 1.5278-0.53923l0.045 0.2696c0 0.0674 0.0225 0.0899 0.0674 0.11233 0.0225 0.0225 0.0674 0.0225 0.1348 0.0225h0.33702c0.11233 0 0.15727-0.0449 0.15727-0.15727v-3.7071c0-0.11233-0.0449-0.15727-0.15727-0.15727h-0.47182c-0.13483 0-0.17977 0.0674-0.17977 0.15727zm3.5275 3.2354c-0.1348 0.0899-0.33702 0.15728-0.58418 0.15728-0.38196 0-0.74145-0.045-1.1009-0.15728-0.0899-0.0225-0.15727-0.0449-0.20222-0.0449-0.0674 0-0.0899 0.0449-0.0899 0.1348v0.22469c0 0.0674 0.0225 0.11233 0.0449 0.15727 0.0225 0.0225 0.0674 0.0674 0.1348 0.0899 0.35949 0.15727 0.76389 0.22469 1.2133 0.22469 0.47182 0 0.83131-0.11233 1.1234-0.33702s0.42688-0.51676 0.42688-0.89872c0-0.26961-0.0674-0.47182-0.20222-0.65157-0.1348-0.15727-0.35949-0.31454-0.67404-0.42687l-0.62909-0.24716c-0.24716-0.0899-0.42687-0.17975-0.49429-0.2696-0.0899-0.0899-0.1348-0.17975-0.1348-0.33702 0-0.33702 0.24716-0.51676 0.76389-0.51676 0.29208 0 0.58418 0.0449 0.85378 0.1348 0.0899 0.0225 0.15728 0.0449 0.17975 0.0449 0.0674 0 0.11233-0.0449 0.11233-0.1348v-0.22469c0-0.0674-0.0225-0.11233-0.045-0.15727-0.0225-0.045-0.0674-0.0674-0.1348-0.0899-0.33702-0.11233-0.67403-0.17974-1.011-0.17974-0.42688 0-0.78636 0.11233-1.056 0.31454-0.2696 0.20222-0.40443 0.49429-0.40443 0.83131 0 0.51676 0.29207 0.89872 0.87625 1.1234l0.67404 0.24716c0.22468 0.0899 0.35948 0.15728 0.44934 0.24716 0.0899 0.0899 0.11233 0.17975 0.11233 0.31455 6e-5 0.17971-0.0674 0.33698-0.20215 0.42687z" fill="#44739e"/>
</svg>
