<?xml version="1.0" encoding="UTF-8"?>
<svg width="24px" fill="#44739e" height="24px" viewBox="0 0 24 24" version="1.1" xmlns="http://www.w3.org/2000/svg" xmlns:xlink="http://www.w3.org/1999/xlink">
            <path d="M 22,12.22 A 31.9,31.9 0 0 0 20.4,8.8 C 19.754,7.692 19.173,7.176 18.572,7.176 17.971,7.176 17.39,7.692 16.745,8.8 a 32.4,32.4 0 0 0 -1.6,3.425 32.112,32.112 0 0 1 -1.578,3.391 c -0.578,0.991 -1.089,1.473 -1.565,1.473 -0.476,0 -0.988,-0.482 -1.565,-1.473 A 32.106,32.106 0 0 1 8.866,12.22 32.2,32.2 0 0 0 7.27,8.8 C 6.625,7.687 6.045,7.171 5.444,7.171 4.843,7.171 4.261,7.687 3.616,8.8 a 31.708,31.708 0 0 0 -1.594,3.42 0.151,0.151 0 0 0 0,0.116 0.147,0.147 0 0 0 0.082,0.082 0.15,0.15 0 0 0 0.2,-0.081 31.686,31.686 0 0 1 1.577,-3.39 C 4.459,7.956 4.972,7.474 5.448,7.474 c 0.476,0 0.988,0.482 1.565,1.473 a 32.212,32.212 0 0 1 1.579,3.391 32.3,32.3 0 0 0 1.6,3.425 c 0.646,1.108 1.226,1.624 1.827,1.624 0.601,0 1.181,-0.516 1.826,-1.624 a 32.3,32.3 0 0 0 1.6,-3.425 32.018,32.018 0 0 1 1.565,-3.391 c 0.578,-0.991 1.09,-1.473 1.566,-1.473 0.476,0 0.989,0.482 1.567,1.473 a 31.884,31.884 0 0 1 1.576,3.39 0.151,0.151 0 0 0 0.2,0.081 A 0.148,0.148 0 0 0 22,12.336 0.146,0.146 0 0 0 22,12.22 Z M 2.637,12.141 2.521,12.417 H 8.367 L 8.25,12.141 Z m 12.179,0.276 0.117,-0.276 H 9.087 l 0.117,0.276 z m 6.566,-0.276 h -5.613 l -0.116,0.276 H 21.5 Z M 7.987,7.0440001 H 8.093 V 7.6820002 H 7.987 Z m 0.447,0.7019997 h 0.638 v 0.106 H 8.434 Z M 8.434,9.342 H 9.072 V 9.448 H 8.434 Z m 0,-0.3190002 h 0.638 v 0.106 H 8.434 Z m 0,-0.3189993 h 0.638 v 0.106 H 8.434 Z m 0,0.9569998 h 0.638 v 0.106 H 8.434 Z M 8.434,10.3 h 0.638 v 0.106 H 8.434 Z m 0,-2.2350004 h 0.638 v 0.106 H 8.434 Z m 0,1.9149999 H 9.072 V 10.086 H 8.434 Z m 0,-1.5959997 h 0.638 v 0.106 H 8.434 Z M 4.1570001,16.875999 h 0.106 v 0.638 h -0.106 z m 0.3189997,0 h 0.106 v 0.638 h -0.106 z m -0.6389999,0 h 0.106 v 0.638 h -0.106 z m 2.5539999,0 h 0.106 v 0.638 h -0.106 z m -3.5109997,0 h 0.106 v 0.638 h -0.106 z m 0.6379998,0 h 0.106 v 0.638 h -0.106 z m 2.5540001,0 h 0.106 v 0.638 H 6.072 Z m -0.3190002,0 h 0.106 v 0.638 h -0.106 z m -0.9579997,0 h 0.106 v 0.638 h -0.106 z m 0.3189997,0 h 0.106 v 0.638 h -0.106 z m 0.3200002,0 H 5.54 v 0.638 H 5.434 Z M 3.5179999,7.0440001 h 0.106 v 0.6380001 h -0.106 z m 4.1500003,0 h 0.106 v 0.6380001 h -0.106 z m -3.8310003,0 h 0.106 v 0.6380001 h -0.106 z m 3.1930003,0 h 0.106 v 0.6380001 h -0.106 z M 2.5599999,16.875999 h 0.106 v 0.638 h -0.106 z M 7.349,7.0440001 H 7.455 V 7.6820002 H 7.349 Z m -5.1080001,0 h 0.106 v 0.6380001 h -0.106 z m 0,9.8319989 h 0.106 v 0.638 h -0.106 z m 0.319,-9.8319989 h 0.106 v 0.6380001 h -0.106 z m 0.3200002,0 h 0.106 v 0.6380001 h -0.106 z m 0.3189998,0 h 0.106 v 0.6380001 h -0.106 z m 0,9.8319989 h 0.106 v 0.638 h -0.106 z M 14.947,7.7459998 h 0.638 v 0.106 h -0.638 z m 0,-0.9579997 h 0.638 v 0.106 h -0.638 z m 0,-0.638 h 0.638 v 0.106 h -0.638 z m 0,0.3189998 h 0.638 v 0.106 h -0.638 z m 0,1.5959997 h 0.638 v 0.106 h -0.638 z m 0,1.5960007 h 0.638 v 0.106 h -0.638 z m 0,-0.3190003 h 0.638 v 0.106 h -0.638 z m 0,-0.6379995 h 0.638 v 0.106 h -0.638 z m 0,-0.3200007 h 0.638 v 0.106 h -0.638 z m 0,-2.5539999 h 0.638 v 0.106 h -0.638 z m 0,3.1929999 h 0.638 v 0.106 h -0.638 z m 0,-4.1289997 h 0.638 v 0.085 h -0.638 z m 5.171,2.15 h 0.106 v 0.6380001 h -0.106 z m 0.958,0 h 0.106 V 7.6820002 H 21.076 Z M 14.947,5.5110002 h 0.638 v 0.106 h -0.638 z m 5.81,1.5329999 h 0.106 v 0.6380001 h -0.106 z m -3.830999,0 h 0.106 v 0.6380001 h -0.106 z m 4.468999,0 h 0.106 V 7.6820002 H 21.395 Z M 14.947,5.1919999 h 0.638 v 0.106 h -0.638 z m 0,4.7879996 h 0.638 V 10.086 h -0.638 z m 1.66,-2.9359994 h 0.106 v 0.6380001 h -0.106 z m -0.319,0 h 0.106 v 0.6380001 h -0.106 z m -0.32,0 h 0.106 v 0.6380001 h -0.106 z m 4.47,0 h 0.106 v 0.6380001 h -0.106 z m -10.8540004,0 h 0.106 v 0.6380001 h -0.106 z M 8.434,4.8940001 h 0.638 v 0.085 H 8.434 Z m 2.107,2.15 h 0.106 v 0.6380001 h -0.106 z m -0.6380001,0 H 10.009 V 7.6820002 H 9.9029999 Z m 0.3190001,0 h 0.106 v 0.6380001 h -0.106 z m -0.9580001,0 h 0.106 v 0.6380001 h -0.106 z M 8.434,6.4689999 h 0.638 v 0.106 H 8.434 Z m 0,0.3190002 h 0.638 v 0.106 H 8.434 Z m 0,-0.9580002 h 0.638 v 0.106 H 8.434 Z m 0,-0.3189997 h 0.638 v 0.106 H 8.434 Z m 0,0.6389999 h 0.638 v 0.106 H 8.434 Z m 0,-0.9580002 h 0.638 v 0.106 H 8.434 Z m 3.703,1.8520002 h 0.106 v 0.6380001 h -0.106 z m 1.277,0 h 0.106 v 0.6380001 h -0.106 z m -2.553,0 h 0.106 v 0.6380001 h -0.106 z m 2.873,0 h 0.106 v 0.6380001 h -0.106 z m 0.319,0 h 0.106 v 0.6380001 h -0.106 z m 0.638,0 h 0.106 v 0.6380001 h -0.106 z m -0.319,0 h 0.106 v 0.6380001 h -0.106 z m -1.277,0 h 0.106 v 0.6380001 h -0.106 z m -1.596,0 h 0.106 v 0.6380001 h -0.106 z m 1.277,0 h 0.106 v 0.6380001 h -0.106 z m -1.596,0 h 0.106 V 7.6820002 H 11.18 Z m 1.277,0 h 0.106 V 7.6820002 H 12.457 Z M 14.947,10.3 h 0.638 v 0.106 H 14.947 Z M 11.818,7.0440001 h 0.106 V 7.6820002 H 11.818 Z M 8.434,12.641 H 8.461 L 8.434,12.577 Z m 6.715,0.959 h 0.436 V 13.494 H 15.2 Z m 0.274,-0.64 h 0.162 v -0.106 h -0.117 z m -0.136,0.319 h 0.3 v -0.106 h -0.253 z m 0.298,-0.638 v -0.064 l -0.027,0.064 z m 6.129001,4.234999 h 0.064 v 0.638 h -0.064 z M 12.563,17.514 V 17.5 l -0.038,0.017 z m -1.702,0 h 0.106 v -0.343 c -0.036,-0.031 -0.071,-0.064 -0.106,-0.1 z m 0.319,0 h 0.106 V 17.408 C 11.251,17.386 11.215,17.364 11.18,17.339 Z m 3.829,-3.596 h 0.576 v -0.107 h -0.529 z m 6.386,2.957999 h 0.106 v 0.638 h -0.106 z m -4.149999,0 h 0.106 v 0.638 h -0.106 z M 12.776,17.514 h 0.106 v -0.2 c -0.035,0.026 -0.071,0.05 -0.106,0.073 z m 0.324,0 h 0.1 V 17.03 c -0.036,0.036 -0.071,0.07 -0.107,0.1 z m 5.421999,-0.638001 h 0.106 v 0.638 h -0.106 z m 2.554001,0 h 0.106 v 0.638 h -0.106 z m -3.512001,0 h 0.106 v 0.638 h -0.106 z m 1.277001,0 h 0.106 v 0.638 h -0.106 z m -0.956999,0 h 0.106 v 0.638 h -0.106 z m 0.318998,0 h 0.106 v 0.638 h -0.106 z m 2.554001,0 h 0.106 v 0.638 h -0.106 z m -1.596001,0 h 0.106 v 0.638 h -0.106 z m 1.277001,0 h 0.106 v 0.638 h -0.106 z m -0.32,0 h 0.106 v 0.638 h -0.106 z m -0.638,0 h 0.106 v 0.638 H 19.48 Z m 0.319,0 h 0.106 v 0.638 H 19.799 Z M 8.434,13.918 H 9.01 L 8.963,13.811 H 8.434 Z m 0,-0.318 H 8.87 L 8.824,13.494 h -0.39 z m 8.918,-6.556 h -0.107 v 0.633 c 0.036,-0.041 0.071,-0.079 0.107,-0.116 z m -1.906,3.894 h -0.5 v 0.107 H 15.4 Z m -0.138,0.319 h -0.361 v 0.107 h 0.315 z m -0.137,0.32 h -0.224 v 0.106 h 0.179 z m 4.096,-4.533 h -0.106 v 0.031 c 0.035,0.017 0.071,0.035 0.106,0.056 z m 0.638,0 H 19.8 v 0.515 c 0.035,0.037 0.071,0.075 0.106,0.116 z m -15.642,0 H 4.157 V 7.628 C 4.192,7.589 4.228,7.552 4.263,7.516 Z m 13.408,0 H 17.564 V 7.359 C 17.6,7.329 17.635,7.3 17.671,7.273 Z m 0.319,0 h -0.106 v 0.087 c 0.035,-0.02 0.071,-0.039 0.106,-0.056 z m 1.596,0 H 19.48 v 0.228 c 0.035,0.027 0.071,0.056 0.106,0.086 z M 15.036,11.9 H 14.947 V 12 h 0.044 z m 0.549,-1.28 h -0.638 v 0.106 h 0.592 z M 9.073,12 V 11.9 H 8.983 L 9.028,12 Z M 4.9,7.044 H 4.8 V 7.107 C 4.836,7.088 4.871,7.071 4.907,7.055 Z m -0.318,0 H 4.476 V 7.322 C 4.511,7.294 4.547,7.266 4.582,7.241 Z m 3.852,6.235 h 0.3 L 8.688,13.173 H 8.434 Z M 21.714001,7.0440001 h 0.064 v 0.6380001 h -0.064 z M 8.434,12.96 H 8.6 L 8.554,12.854 H 8.434 Z M 6.178,7.044 H 6.072 V 7.1 c 0.036,0.018 0.071,0.038 0.106,0.06 z m 2.895,4.533 H 8.848 l 0.045,0.106 h 0.18 z m 0,-0.32 H 8.712 l 0.045,0.107 h 0.316 z m 0,-0.319 h -0.5 l 0.046,0.107 H 9.072 Z M 6.817,7.682 V 7.044 H 6.711 v 0.562 l 0.068,0.076 z m -0.106,9.193999 h 0.106 v 0.638 H 6.711 Z M 6.5,7.044 H 6.391 v 0.262 c 0.036,0.029 0.071,0.059 0.107,0.09 z m 2.573,3.681 V 10.619 H 8.434 l 0.047,0.105 z m -0.639,4.363 h 0.638 v 0.106 H 8.434 Z m 0,0.639 h 0.638 v 0.106 H 8.434 Z m 0,-0.32 h 0.638 v 0.106 H 8.434 Z m 0,0.639 h 0.638 v 0.106 H 8.434 Z m 0,0.319 h 0.638 v 0.106 H 8.434 Z m 0,-1.915 h 0.638 v 0.106 H 8.434 Z m 1.1499996,2.425999 h 0.106 v 0.638 h -0.106 z m 0.3190003,0 H 10.009 v 0.638 H 9.9029999 Z M 8.434,16.684 H 9.072 V 16.79 H 8.434 Z m 0,-1.915 h 0.638 v 0.106 H 8.434 Z m 0.8299999,2.106999 h 0.106 v 0.638 h -0.106 z m 0.9580001,0 h 0.106 v 0.638 H 10.222 Z M 8.434,14.131 h 0.638 v 0.106 H 8.434 Z m -1.4039998,2.744999 h 0.106 v 0.638 h -0.106 z m 1.4039998,2.681 h 0.638 v 0.106 H 8.434 Z m -0.7659998,-2.681 h 0.106 v 0.638 h -0.106 z m -0.3190002,0 h 0.106 v 0.638 H 7.349 Z m 0.638,0 h 0.106 v 0.638 H 7.987 Z M 8.434,17.642 h 0.638 v 0.106 H 8.434 Z m 0,0.319 h 0.638 v 0.106 H 8.434 Z m 0,1.277001 h 0.638 v 0.106 H 8.434 Z m 0,-0.957001 h 0.638 v 0.106 H 8.434 Z m 0,0.638001 h 0.638 v 0.106 H 8.434 Z M 8.434,18.6 h 0.638 v 0.106 H 8.434 Z m 6.513,-0.958 h 0.638 v 0.106 h -0.638 z m 0,-0.958 h 0.638 v 0.106 h -0.638 z m 0,-1.596 h 0.638 v 0.106 h -0.638 z m 0,0.958 h 0.638 v 0.106 h -0.638 z m 0,-1.277 h 0.638 v 0.106 h -0.638 z m 0,1.596 h 0.638 v 0.106 h -0.638 z m 0,-0.958 h 0.638 v 0.106 h -0.638 z m 1.341,1.468999 h 0.106 v 0.638 H 16.288 Z M 14.947,14.45 h 0.638 v 0.106 h -0.638 z m 1.66,2.425999 h 0.106 v 0.638 H 16.607 Z M 14.947,14.131 h 0.638 v 0.106 h -0.638 z m 1.021,2.744999 h 0.106 v 0.638 h -0.106 z m -5.427,0 h 0.106 v 0.638 h -0.106 z m 4.15,0 h 0.106 v 0.638 h -0.106 z m -0.319,0 h 0.106 v 0.638 h -0.106 z m -0.319,0 h 0.106 v 0.638 h -0.106 z m -0.319,0 h 0.106 v 0.638 h -0.106 z m 1.213,2.681 h 0.638 v 0.106 h -0.638 z m -1.533,-2.681 h 0.106 v 0.638 h -0.106 z m 3.512001,0 h 0.106 v 0.638 h -0.106 z M 14.947,17.961 h 0.638 v 0.106 h -0.638 z m 0,0.958001 h 0.638 v 0.106 h -0.638 z m 0,-0.638001 h 0.638 v 0.106 h -0.638 z m 0,0.957001 h 0.638 v 0.106 h -0.638 z m 0,-0.638001 h 0.638 v 0.106 h -0.638 z m 0,-2.873 h 0.638 v 0.106 H 14.947 Z M 8.6049995,7.2140002 h 0.213 v 0.213 h -0.213 z m 0.042001,9.8960008 h 0.213 v 0.213 h -0.213 z M 15.16,17.089001 h 0.213 v 0.213 H 15.16 Z m 0,-9.8750008 h 0.213 v 0.213 H 15.16 Z"/>

</svg>