<?xml version="1.0" encoding="UTF-8"?>
<svg width="24px" fill="#44739e" height="24px" viewBox="0 0 24 24" version="1.1" xmlns="http://www.w3.org/2000/svg" xmlns:xlink="http://www.w3.org/1999/xlink">
            <path d="m 11.023,2.862 a 4.358,4.358 0 0 0 -2.892,2.38 5.1,5.1 0 0 0 -0.2,3.061 c 0.261,0.8 6.3,11.181 6.78,11.665 A 4.392,4.392 0 0 0 18.14,21.224 3.861,3.861 0 0 0 20.749,19.967 3.623,3.623 0 0 0 22,16.937 2.947,2.947 0 0 0 21.6,15.125 C 20.847,13.577 15.6,4.639 15.145,4.119 A 4.449,4.449 0 0 0 11.023,2.862 Z M 4.874,12.926 a 4.314,4.314 0 0 0 -2.829,4.623 5.513,5.513 0 0 0 0.369,1.281 5.344,5.344 0 0 0 2.014,1.993 4.312,4.312 0 0 0 5.735,-2.045 3.045,3.045 0 0 0 0.311,-1.786 3.237,3.237 0 0 0 -0.294,-1.781 4.588,4.588 0 0 0 -2.041,-2.085 4.606,4.606 0 0 0 -3.265,-0.2 z"/>

</svg>