<svg xmlns="http://www.w3.org/2000/svg" viewBox="0 0 24 24"><path fill="#44739e" d="M11.194 2.079a3.55 3.55 0 0 0-2.359 1.937 4.14 4.14 0 0 0-.161 2.492c.213.65 5.125 9.104 5.519 9.498a3.57 3.57 0 0 0 2.792 1.017 3.16 3.16 0 0 0 2.128-1.018 2.95 2.95 0 0 0 1.018-2.467 2.4 2.4 0 0 0-.324-1.475c-.61-1.26-4.884-8.537-5.255-8.955a3.62 3.62 0 0 0-3.358-1.029M8.039 17.548v.292h2.287l-.704.683-.704.684.132.213.139.22a2 2 0 0 0 .212-.036 1.27 1.27 0 0 1 .706.059 1 1 0 0 1 .451.454 1.02 1.02 0 0 1-.014.8 1.12 1.12 0 0 1-1.709.248 1.16 1.16 0 0 1-.305-.582l-.034-.161-.267.06a1.5 1.5 0 0 0-.296.088c-.048.046.04.394.158.619a1.56 1.56 0 0 0 .662.631 2.06 2.06 0 0 0 1.715-.014 1.8 1.8 0 0 0 .6-.569 1.53 1.53 0 0 0 .035-1.414 1.56 1.56 0 0 0-.62-.576 1.4 1.4 0 0 0-.663-.134c-.082.018.067-.138.926-.964l.392-.377v-.52h-3.1Zm4.173 2.041v2.34l1.036-.012c1.161-.013 1.209-.02 1.659-.241a2.14 2.14 0 0 0 1.114-1.485 4 4 0 0 0-.031-1.289 2.1 2.1 0 0 0-.569-1.018 2.04 2.04 0 0 0-.892-.539 4 4 0 0 0-1.266-.081l-1.051-.012Zm1.968-1.736a1.53 1.53 0 0 1 1.176 1.198 3.2 3.2 0 0 1 0 1.087 1.52 1.52 0 0 1-.814 1.06 2.3 2.3 0 0 1-1.136.171h-.546v-3.562h.56a5 5 0 0 1 .76.046m-7.992-7.58a3.51 3.51 0 0 0-2.302 3.766 4.5 4.5 0 0 0 .305 1.042 4.34 4.34 0 0 0 1.64 1.623 3.51 3.51 0 0 0 4.67-1.665 2.5 2.5 0 0 0 .252-1.454 2.65 2.65 0 0 0-.239-1.45 3.74 3.74 0 0 0-1.661-1.699 3.75 3.75 0 0 0-2.665-.163"/></svg>