<svg xmlns="http://www.w3.org/2000/svg" viewBox="0 0 24 24"><path fill="#44739e" d="M16.607 9.465v.25h.864v2.8h.249v-2.8h.865v-.25h-.001Zm3.455 2.712h-.052l-.948-2.712h-.301l1.098 3.052h.354l1.098-3.052h-.3ZM9.105 10.698h-.019a.7.7 0 0 0-.54-.218 1.019 1.019 0 0 0 0 2.036.7.7 0 0 0 .54-.234h.019v.173h.444v-2.99h-.444Zm-.516 1.42a.6.6 0 0 1-.567-.624.59.59 0 0 1 .567-.616.57.57 0 0 1 .548.616.58.58 0 0 1-.548.624M3.802 9.465l-1.114 2.99h.5l.251-.713h1.282l.251.713h.5l-1.115-2.99Zm-.211 1.841.475-1.358h.023l.477 1.358Zm6.209.145v1h.444v-1a.507.507 0 0 1 .567-.574.7.7 0 0 1 .162.015v-.386a.8.8 0 0 0-.216-.027.89.89 0 0 0-.957.972m-3.298-.972a.856.856 0 0 0-.875.854v1.122h.439v-1.122a.433.433 0 1 1 .864 0v1.122h.444v-1.122a.857.857 0 0 0-.872-.854m6.982-.86a.293.293 0 0 0-.293.283.291.291 0 1 0 .582 0 .29.29 0 0 0-.289-.283m-.224.922h.444v1.913h-.444Zm2.171.157h-.019a.7.7 0 0 0-.54-.218 1.019 1.019 0 0 0 0 2.036.7.7 0 0 0 .54-.234h.019v.173h.444v-2.99h-.444Zm-.517 1.42a.6.6 0 0 1-.567-.624.59.59 0 0 1 .567-.616.57.57 0 0 1 .548.616.58.58 0 0 1-.548.624m-2.881-1.638A1 1 0 0 0 11 11.49a1.034 1.034 0 0 0 2.067 0 1 1 0 0 0-1.034-1.01m0 1.637a.6.6 0 0 1-.582-.627.583.583 0 1 1 1.165 0 .606.606 0 0 1-.583.627m-1.557 4.742a.25.25 0 0 0-.347.067l-.163.239a.25.25 0 0 0 0 .28l.161.239a.25.25 0 0 0 .208.11.25.25 0 0 0 .139-.042.25.25 0 0 0 .068-.347l-.067-.1.067-.1a.25.25 0 0 0-.066-.346m1.623 1.902-.1.067-.1-.067a.25.25 0 0 0-.279.415l.239.161a.25.25 0 0 0 .279 0l.239-.161a.25.25 0 0 0-.279-.415Zm1.356-1.555.067.1-.067.1a.25.25 0 0 0 .068.347.25.25 0 0 0 .139.042.25.25 0 0 0 .208-.11l.161-.239a.25.25 0 0 0 0-.28l-.165-.24a.25.25 0 0 0-.415.28ZM11.9 15.849l.1-.067.1.067a.25.25 0 0 0 .139.043.25.25 0 0 0 .14-.457l-.239-.161a.25.25 0 0 0-.279 0l-.239.161a.25.25 0 1 0 .279.414Zm.1.441a1.015 1.015 0 1 0 1.015 1.016A1.017 1.017 0 0 0 12 16.29m0 1.53a.515.515 0 1 1 .515-.515.516.516 0 0 1-.515.515m8.75-13.803H3.25A1.25 1.25 0 0 0 2 5.267v12a1.25 1.25 0 0 0 1.25 1.25h6.365a2.672 2.672 0 0 0 4.769 0h6.366a1.25 1.25 0 0 0 1.25-1.25v-12a1.25 1.25 0 0 0-1.25-1.25M12 19.479a2.174 2.174 0 1 1 2.173-2.173A2.176 2.176 0 0 1 12 19.479m9.5-2.212a.75.75 0 0 1-.75.75h-6.173a2.674 2.674 0 1 0-5.251-.711 2.7 2.7 0 0 0 .1.712H3.25a.75.75 0 0 1-.75-.75v-12a.75.75 0 0 1 .75-.75h17.5a.75.75 0 0 1 .75.75Z"/></svg>