<?xml version="1.0" encoding="UTF-8"?>
<svg width="24px" fill="#44739e" height="24px" viewBox="0 0 24 24" version="1.1" xmlns="http://www.w3.org/2000/svg" xmlns:xlink="http://www.w3.org/1999/xlink">
            <path d="m 16.641,9.659 v 0.25 h 0.864 v 2.8 h 0.249 v -2.8 h 0.865 v -0.25 h -0.001 z m 3.455,2.712 H 20.044 L 19.096,9.659 h -0.301 l 1.098,3.052 h 0.084 0.187 0.083 l 1.098,-3.052 h -0.3 z M 9.139,10.892 H 9.12 a 0.7,0.7 0 0 0 -0.54,-0.218 1.019,1.019 0 0 0 0,2.036 0.7,0.7 0 0 0 0.54,-0.234 h 0.019 v 0.173 H 9.583 V 9.659 H 9.139 Z m -0.516,1.42 A 0.6,0.6 0 0 1 8.056,11.688 0.589,0.589 0 0 1 8.623,11.072 0.569,0.569 0 0 1 9.171,11.688 0.579,0.579 0 0 1 8.623,12.312 Z M 3.836,9.659 2.722,12.649 h 0.5 l 0.251,-0.713 h 1.282 l 0.251,0.713 h 0.5 L 4.391,9.659 Z M 3.625,11.5 4.1,10.142 H 4.123 L 4.6,11.5 Z m 6.209,0.145 v 1 h 0.444 v -1 a 0.507,0.507 0 0 1 0.567,-0.574 0.647,0.647 0 0 1 0.162,0.015 V 10.7 A 0.77,0.77 0 0 0 10.791,10.673 0.89,0.89 0 0 0 9.834,11.645 Z M 6.536,10.673 a 0.856,0.856 0 0 0 -0.875,0.854 v 1.122 H 6.1 v -1.122 a 0.433,0.433 0 1 1 0.864,0 v 1.122 H 7.408 V 11.527 A 0.857,0.857 0 0 0 6.536,10.673 Z m 6.982,-0.86 a 0.293,0.293 0 0 0 -0.293,0.283 0.291,0.291 0 1 0 0.582,0 0.289,0.289 0 0 0 -0.289,-0.283 z m -0.224,0.922 h 0.444 v 1.913 h -0.444 z m 2.171,0.157 h -0.019 a 0.7,0.7 0 0 0 -0.54,-0.218 1.019,1.019 0 0 0 0,2.036 0.7,0.7 0 0 0 0.54,-0.234 h 0.019 v 0.173 h 0.444 v -2.99 h -0.444 z m -0.517,1.42 a 0.6,0.6 0 0 1 -0.567,-0.624 0.589,0.589 0 0 1 0.567,-0.616 0.569,0.569 0 0 1 0.548,0.616 0.579,0.579 0 0 1 -0.548,0.624 z m -2.881,-1.638 a 1,1 0 0 0 -1.033,1.01 1.034,1.034 0 0 0 2.067,0 1,1 0 0 0 -1.034,-1.01 z m 0,1.637 a 0.6,0.6 0 0 1 -0.582,-0.627 0.583,0.583 0 1 1 1.165,0 0.606,0.606 0 0 1 -0.583,0.627 z M 10.51,17.053 A 0.25,0.25 0 0 0 10.163,17.12 L 10,17.359 a 0.251,0.251 0 0 0 0,0.28 l 0.161,0.239 a 0.248,0.248 0 0 0 0.208,0.11 0.254,0.254 0 0 0 0.139,-0.042 0.25,0.25 0 0 0 0.068,-0.347 l -0.067,-0.1 0.067,-0.1 A 0.25,0.25 0 0 0 10.51,17.053 Z m 1.623,1.902 -0.1,0.067 -0.1,-0.067 a 0.250033,0.250033 0 0 0 -0.279,0.415 l 0.239,0.161 a 0.253,0.253 0 0 0 0.279,0 l 0.239,-0.161 a 0.250033,0.250033 0 0 0 -0.279,-0.415 z m 1.356,-1.555 0.067,0.1 -0.067,0.1 a 0.251,0.251 0 0 0 0.068,0.347 0.254,0.254 0 0 0 0.139,0.042 0.248,0.248 0 0 0 0.208,-0.11 l 0.161,-0.239 a 0.251,0.251 0 0 0 0,-0.28 L 13.9,17.12 a 0.2503123,0.2503123 0 0 0 -0.415,0.28 z m -1.555,-1.357 0.1,-0.067 0.1,0.067 a 0.247,0.247 0 0 0 0.139,0.043 0.25,0.25 0 0 0 0.14,-0.457 l -0.239,-0.161 a 0.249,0.249 0 0 0 -0.279,0 l -0.239,0.161 a 0.25,0.25 0 1 0 0.279,0.414 z m 0.1,0.441 a 1.015,1.015 0 1 0 1.015,1.016 1.017,1.017 0 0 0 -1.015,-1.016 z m 0,1.53 a 0.515,0.515 0 1 1 0.515,-0.515 0.516,0.516 0 0 1 -0.515,0.515 z m 8.75,-13.803 h -17.5 a 1.25,1.25 0 0 0 -1.25,1.25 v 12 a 1.251,1.251 0 0 0 1.25,1.25 H 9.61 a 0.258,0.258 0 0 0 0.039,0 2.672,2.672 0 0 0 4.769,0 0.258,0.258 0 0 0 0.039,0 h 6.327 a 1.252,1.252 0 0 0 1.25,-1.25 v -12 a 1.251,1.251 0 0 0 -1.25,-1.25 z m -8.75,15.462 a 2.174,2.174 0 1 1 2.173,-2.173 2.176,2.176 0 0 1 -2.173,2.173 z m 9.5,-2.212 a 0.752,0.752 0 0 1 -0.75,0.75 H 14.611 A 2.674,2.674 0 1 0 9.36,17.5 2.7,2.7 0 0 0 9.46,18.212 H 3.284 a 0.751,0.751 0 0 1 -0.75,-0.75 v -12 a 0.75,0.75 0 0 1 0.75,-0.75 h 17.5 a 0.751,0.751 0 0 1 0.75,0.75 z"/>

</svg>