<svg xmlns="http://www.w3.org/2000/svg" viewBox="0 0 24 24"><path fill="#44739e" d="M2 19.435V4.565h20v14.87Zm13.421-7.095-.005-4.944c-1.476 1.684-2.549.745-4.264.09-.908-.232-1.802.012-2.374.793l.005 4.923c.613-.728 1.374-.966 2.247-.789 1.79.609 2.864 1.69 4.392-.073Zm-7.767 3.817.009-.947c-.264.162-.441.197-.691.056-.167-.094-.616-.215-.692.086-.071.279-.041.712-.032.988.295-.131.529-.136.768.018.179.116.635.107.638-.201m-3.473.241.507.012-.018-1.101c-.531-.142-1.017-.147-1.492.025l-.002 1.073.51-.008c-.013-.122-.029-.357.051-.357l.381-.001c.081 0 .064.255.063.358Zm5.957.005v-1.069l.546-.094c-.567-.04-1.025-.04-1.59-.001l.548.103-.005 1.065.5-.003Zm3.558 0-.003-1.191-.495-.003-.003.539-.501-.002.002-.539-.5.008v1.189l.499.007v-.541h.499l.004.539Zm2.155-.5.567-.098-.544-.073-.026-.421.466.013.069.214c.013.043.131.058.226.062.12.006.271-.083.266-.173-.022-.367-.768-.231-1.52-.138v1.04l1.258.104c.12.01.252-.106.262-.249.006-.087-.143-.177-.268-.174-.093.003-.217.02-.229.064l-.065.222h-.468l.006-.394Zm4.097.501v-1.085l.501.004-.007 1.086.508-.004-.015-1.105c-.734-.142-1.715-.137-2.478-.005l-.006 1.123.497-.015.001-1.09.493.013v1.087Z"/><path fill="#44739e" d="M15.421 12.34c-1.527 1.763-2.601.681-4.392.073-.872-.177-1.633.061-2.247.789l-.005-4.923c.572-.782 1.466-1.025 2.374-.793 1.715.654 2.788 1.594 4.265-.09Zm4.527 4.064-.507.009v-1.087l-.492-.013-.002 1.09-.497.015.007-1.123c.762-.132 1.744-.137 2.478.005l.014 1.105-.508.004.007-1.086-.502-.004v1.085Zm-12.294-.247c-.003.308-.46.317-.639.201-.239-.154-.473-.149-.768-.018-.008-.276-.039-.71.032-.988.076-.301.525-.18.692-.086.251.141.426.106.691-.056l-.009.947Zm-3.473.241c.001-.103.018-.358-.063-.358l-.381.002c-.081 0-.064.235-.051.357l-.51.008.002-1.074c.475-.172.961-.167 1.492-.025l.018 1.102-.507-.013Zm-.002-1.087-.5.001.001.616.501-.002Zm9.517 1.092-.497.007-.004-.539h-.5l.001.541-.499-.008v-1.188l.499-.009-.001.539.5.002.003-.54.496.004Zm2.155-.5-.005.394h.468l.064-.223c.013-.044.136-.061.23-.064.125-.003.273.087.268.174-.01.144-.142.26-.262.249l-1.259-.104v-1.04c.752-.093 1.499-.228 1.52.138.005.09-.146.179-.266.173-.096-.004-.213-.019-.226-.062l-.069-.214-.466-.013.026.421.544.073Zm-5.713.5-.5.004.004-1.066-.547-.103a11 11 0 0 1 1.59.001l-.547.094Z"/><path fill="#44739e" d="M3.651 15.317h.5v.615h-.5Z"/></svg>