<svg xmlns="http://www.w3.org/2000/svg" viewBox="0 0 24 24"><path fill="#44739e" d="m13.243 3.219-8.8-.249a.7.7 0 0 0-.5.189.63.63 0 0 0-.2.478l.453 16.1a.66.66 0 0 0 .6.627l8.35.991h.088a.7.7 0 0 0 .451-.163.63.63 0 0 0 .232-.487V3.868a.664.664 0 0 0-.674-.649m.394 17.488a.38.38 0 0 1-.14.294.42.42 0 0 1-.326.095l-8.349-.99a.4.4 0 0 1-.363-.378L4.003 3.63a.38.38 0 0 1 .122-.288.42.42 0 0 1 .292-.115l8.815.249a.4.4 0 0 1 .4.392Zm-.376-18.131-8.8-.249a1.4 1.4 0 0 0-1 .377 1.26 1.26 0 0 0-.4.95l.454 16.1A1.314 1.314 0 0 0 4.701 21l8.349.99a1 1 0 0 0 .17.01 1.4 1.4 0 0 0 .9-.323 1.26 1.26 0 0 0 .462-.97V3.868a1.32 1.32 0 0 0-1.321-1.292m1.053 18.131a1.01 1.01 0 0 1-.37.777 1.13 1.13 0 0 1-.724.259 1 1 0 0 1-.136-.008l-8.349-.991a1.05 1.05 0 0 1-.958-1L3.323 3.647a1 1 0 0 1 .32-.761 1.13 1.13 0 0 1 .774-.3h.031l8.8.249a1.06 1.06 0 0 1 1.061 1.035ZM13.228 3.605l-8.811-.249a.28.28 0 0 0-.2.077.25.25 0 0 0-.082.193l.453 16.1a.27.27 0 0 0 .244.255l8.349.99a.28.28 0 0 0 .219-.064.25.25 0 0 0 .094-.2V3.868a.27.27 0 0 0-.266-.263m-2.985 5.412c.014.194-.7.3-1.516.248-.755-.052-1.325-.227-1.325-.394s.561-.28 1.3-.254c.806.027 1.523.207 1.541.4m-1.6-3.143c.806.028 1.523.207 1.537.4s-.7.3-1.516.249c-.754-.052-1.321-.223-1.321-.394s.558-.28 1.3-.255m0 1.372c.806.027 1.523.207 1.537.4s-.7.305-1.516.249c-.754-.053-1.321-.228-1.321-.395s.558-.28 1.3-.254M7.534 18.723l-.191-.562-.608-.061-.176.511-.225-.027.576-1.629.269.023.6 1.779Zm1.193-5.487a1.065 1.065 0 0 1 1.1 1.035.842.842 0 0 1-1.133.706 1.06 1.06 0 0 1-.816-.962.8.8 0 0 1 .849-.779m.3 4.777a.72.72 0 0 1-.564.134 1 1 0 0 1-.189-.035v.7l-.231-.029v-1.716a3 3 0 0 1 .449 0 .85.85 0 0 1 .518.191.5.5 0 0 1 .163.386.46.46 0 0 1-.147.369Zm1.364.881a1.1 1.1 0 0 0 .418-.028l.053.194a1.3 1.3 0 0 1-.523.024 1 1 0 0 1-.952-1.016.838.838 0 0 1 1.007-.852 1.2 1.2 0 0 1 .471.121l-.062.188a1.1 1.1 0 0 0-.4-.111.627.627 0 0 0-.757.672.775.775 0 0 0 .744.808Zm-1.897-1.643a1 1 0 0 0-.221 0v.678a1 1 0 0 0 .194.038c.286.029.462-.086.462-.33s-.173-.363-.435-.386M2.93 3.425l-.349-.01.543 16.124.239.03-.448-15.912a1.3 1.3 0 0 1 .015-.232m11.793.443v16.84a1.4 1.4 0 0 1-.027.264l.9.111.313-17.283-1.191-.034q.005.051.005.102m-.199-.71 2.246.043L21.419 2h-8.776l-3.566.329 4.186.119a1.51 1.51 0 0 1 1.261.71M7.043 17.156q-.038.15-.087.3l-.167.474.519.055-.17-.509a2 2 0 0 1-.095-.32M2.581 2.93l.518.01.037-.062Zm13.752 17.383 4.639-7.147.446-10.935-4.787 1.548Z"/></svg>