<svg xmlns="http://www.w3.org/2000/svg" fill="#44739e" width="24" height="24" version="1.1" viewBox="0 0 24 24"><path d="M 20.138,11.893 20.611,11.1 22,9.716 21.619,9.582 20.532,10.728 19.892,11.587 18.359,12.8 2.4,9.612 2.1,9.984 18.357,13.4 Z M 16.2,11.011 a 0.577,0.577 0 0 0 0.462,-0.065 c 0.082,-0.069 0.029,-0.129 -0.149,-0.163 -0.051,-0.009 -0.1,-0.016 -0.155,-0.02 l -0.275,0.221 A 0.823,0.823 0 0 0 16.2,11.011 M 21.422,9.124 6.839,6.4 A 0.617,0.617 0 0 0 6.459,6.46 L 4.899,7.34 A 0.615,0.615 0 0 0 4.669,7.56 L 4.619,7.64 A 0.651,0.651 0 0 1 4.359,7.9 L 2.55,8.924 a 0.127,0.127 0 0 0 0.03,0.24 L 18.057,12.3 a 0.69,0.69 0 0 0 0.61,-0.16 L 20,11.033 a 0.554,0.554 0 0 0 0.17,-0.24 l 0.1,-0.23 a 0.623,0.623 0 0 1 0.17,-0.25 L 21.5,9.374 a 0.149,0.149 0 0 0 0,-0.212 0.137,0.137 0 0 0 -0.067,-0.038 m -6.1,-0.88 c 0.56,0.02 1.01,0.26 1,0.52 -0.01,0.26 -0.48,0.47 -1.04,0.45 -0.56,-0.02 -1,-0.26 -0.99,-0.53 0.01,-0.27 0.47,-0.47 1.03,-0.44 m -5.089,-0.98 c 0.56,0.02 1,0.26 0.99,0.53 -0.01,0.27 -0.47,0.47 -1.03,0.44 -0.56,-0.03 -1.01,-0.26 -1,-0.52 0.01,-0.26 0.48,-0.47 1.04,-0.45 M 7.835,6.774 c 0.56,0.03 1,0.26 0.99,0.53 -0.01,0.27 -0.47,0.47 -1.03,0.45 -0.56,-0.02 -1.01,-0.26 -1,-0.53 0.01,-0.27 0.48,-0.47 1.04,-0.45 m -2.971,1.7 0.27,0.045 -1.239,0.69 -0.31,-0.06 z m 0.641,0.12 0.27,0.06 -1.23,0.69 -0.29,-0.06 z m 0.65,0.13 0.23,0.04 -1.23,0.69 -0.25,-0.04 z m 0.62,0.12 0.26,0.05 -1.25,0.69 -0.26,-0.05 z m 0.63,0.12 0.28,0.05 -1.26,0.69 -0.28,-0.05 z m 0.65,0.12 0.23,0.04 -1.24,0.7 -0.25,-0.05 z m 0.61,0.12 0.279,0.05 -1.249,0.7 -0.29,-0.06 z m 0.649,0.12 0.27,0.05 -1.259,0.7 -0.27,-0.049 z m 0.65,0.12 0.24,0.05 -1.26,0.7 -0.249,-0.05 z m 0.61,0.12 0.27,0.05 -1.27,0.7 -0.27,-0.05 z m 0.64,0.12 0.27,0.05 -1.26,0.709 -0.28,-0.06 z m 0.65,0.13 0.278,0.048 -1.18,0.726 -0.295,-0.058 z m -0.11,-1.62 c 0.01,-0.27 0.48,-0.46 1.04,-0.44 0.56,0.02 1,0.26 0.99,0.53 -0.01,0.27 -0.47,0.46 -1.03,0.44 -0.56,-0.02 -1.01,-0.26 -1,-0.53 m 2.8,3.029 0.16,-0.23 -0.47,-0.09 -0.419,0.18 -0.39,-0.08 1.6,-0.65 0.46,0.09 -0.54,0.86 z m 1.49,-0.07 a 0.877,0.877 0 0 1 -0.12,-0.03 l -0.36,0.29 -0.38,-0.07 0.98,-0.76 a 4.737,4.737 0 0 1 0.49,0.07 0.831,0.831 0 0 1 0.41,0.15 c 0.06,0.06 0.06,0.13 -0.03,0.21 a 0.7,0.7 0 0 1 -0.36,0.15 1.669,1.669 0 0 1 -0.63,-0.01 m 2.42,0.04 a 1.224,1.224 0 0 0 -0.27,-0.09 0.933,0.933 0 0 0 -0.78,0.16 c -0.18,0.17 -0.09,0.31 0.25,0.38 a 2.286,2.286 0 0 0 0.35,0.03 l -0.09,0.17 a 2.668,2.668 0 0 1 -0.48,-0.05 c -0.59,-0.11 -0.69,-0.36 -0.43,-0.59 a 1.6,1.6 0 0 1 1.3,-0.24 1.8,1.8 0 0 1 0.36,0.1 z m -3.385,-0.678 c -0.084,0.038 -0.185,0.088 -0.27,0.125 l -0.324,0.139 0.356,0.068 0.124,-0.177 c 0.033,-0.05 0.081,-0.107 0.118,-0.154 z m 5.667,0.918 -0.164,0.48 a 0.824,0.824 0 0 1 -0.223,0.343 l -1.428,1.319 a 0.89,0.89 0 0 1 -0.79,0.215 l -16.068,-3.5 -0.068,0.8 a 1.386,1.386 0 0 0 0.006,0.288 l 0.271,2.042 a 0.6,0.6 0 0 0 0.453,0.5 l 15.135,3.659 a 0.873,0.873 0 0 0 0.861,-0.271 l 2.59,-2.939 A 0.713,0.713 0 0 0 21.492,14 L 22,11.488 v -1.34 l -1.066,1 a 0.722,0.722 0 0 0 -0.19,0.29 z m 0.276,2.116 a 0.845,0.845 0 0 1 -0.2,0.583 c -0.125,0.119 -0.227,0.03 -0.227,-0.184 a 0.835,0.835 0 0 1 0.2,-0.547 c 0.116,-0.1 0.215,-0.037 0.227,0.15"/></svg>
