<svg xmlns="http://www.w3.org/2000/svg" width="24" height="24" viewBox="0 0 24 24">
  <path id="Colore_riempimento_1" fill="#44739e" data-name="Colore riempimento 1" class="cls-1" d="m 15.256144,2.6940479 h -1.25 v 0.266 a 0.275,0.275 0 0 1 -0.275,0.275 h -3.268 a 0.275,0.275 0 0 1 -0.275,-0.275 v -0.266 H 8.6001439 a 1.045,1.045 0 0 0 -0.979,1.1 V 20.141048 a 1.045,1.045 0 0 0 0.979,1.1 h 6.6560001 a 1.045,1.045 0 0 0 0.979,-1.1 V 3.7950479 a 1.045,1.045 0 0 0 -0.979,-1.101 z m 0.705,-0.718 H 7.8951439 a 1.187,1.187 0 0 0 -1.187,1.187 V 20.789048 a 1.187,1.187 0 0 0 1.187,1.187 h 8.0660001 a 1.187,1.187 0 0 0 1.187,-1.187 V 3.1630479 a 1.187,1.187 0 0 0 -1.187,-1.187 z m 0.646,18.4630001 a 1.105,1.105 0 0 1 -1.068,1.14 H 8.2831439 a 1.105,1.105 0 0 1 -1.068,-1.14 V 3.4970479 a 1.106,1.106 0 0 1 1.068,-1.141 h 7.2560001 a 1.106,1.106 0 0 1 1.068,1.141 z"/>
</svg>
