<svg xmlns="http://www.w3.org/2000/svg" width="24" height="24" viewBox="0 0 24 24">
  <path id="Colore_riempimento_1" data-name="Colore riempimento 1" class="cls-1" fill="#44739e" d="m 9.1079997,10.089287 c 0,0.929 0.37,1.294 1.3070003,1.294 a 2.607,2.607 0 0 0 0.536,-0.042 v -0.739 a 3.1,3.1 0 0 1 -0.332,0.023 c -0.4,0 -0.587,-0.2 -0.587,-0.619 V 7.2722874 h 0.924 v -0.739 h -0.924 v -1.155 H 9.1079997 v 1.155 h -0.7 v 0.739 h 0.7 z m -5.408,1.313 c 0.4,-0.016 0.564,-0.262 1.057,-0.262 0.493,0 0.635,0.262 1.064,0.254 0.445,-0.008 0.723,-0.4 0.993,-0.795 a 3.534,3.534 0 0 0 0.445,-0.9139996 1.444,1.444 0 0 1 -0.859,-1.312 1.472,1.472 0 0 1 0.7,-1.232 1.522,1.522 0 0 0 -1.184,-0.644 c -0.532,-0.031 -0.985,0.3 -1.239,0.3 -0.254,0 -0.643,-0.286 -1.065,-0.278 a 1.569,1.569 0 0 0 -1.334,0.811 3.347,3.347 0 0 0 0.4,3.2509996 c 0.27,0.399 0.596,0.837 1.022,0.821 z m 1.881,-5.4309996 a 1.453,1.453 0 0 0 0.335,-1.036 1.441,1.441 0 0 0 -0.956,0.494 1.364,1.364 0 0 0 -0.343,1 1.206,1.206 0 0 0 0.964,-0.458 z M 20.755999,6.4412875 a 1.296,1.296 0 0 1 -1.296,1.296 1.296,1.296 0 0 1 -1.296,-1.296 1.296,1.296 0 0 1 1.296,-1.296 1.296,1.296 0 0 1 1.296,1.296 z M 14.237,16.980287 H 2.4619997 a 0.608,0.608 0 0 1 -0.462,-0.212 v 2.627 a 0.6,0.6 0 0 0 0.6,0.6 H 14.1 a 0.6,0.6 0 0 0 0.6,-0.6 v -2.627 a 0.606,0.606 0 0 1 -0.463,0.212 z m -11.3370003,-2.831 -0.806,1.712 a 0.954,0.954 0 0 0 -0.094,0.336 0.486,0.486 0 0 0 0.081,0.219 0.453,0.453 0 0 0 0.377,0.2 H 14.237 a 0.45,0.45 0 0 0 0.376,-0.2 0.464,0.464 0 0 0 0.081,-0.219 0.953,0.953 0 0 0 -0.086,-0.336 l -0.808,-1.712 a 0.957,0.957 0 0 0 -0.862,-0.547 H 3.7579997 a 0.955,0.955 0 0 0 -0.858,0.547 z m 5.39,0.335 a 0.262,0.262 0 0 1 0.171,-0.088 0.226,0.226 0 0 1 -0.049,0.185 0.261,0.261 0 0 1 -0.2,0.081 0.249,0.249 0 0 1 0.075,-0.178 z m -0.624,0.339 a 0.505,0.505 0 0 1 0.334,-0.144 c 0.089,0 0.167,0.049 0.223,0.049 a 1.447,1.447 0 0 1 0.265,-0.054 0.444,0.444 0 0 1 0.277,0.115 0.219,0.219 0 0 0 -0.123,0.22 c 0.029,0.174 0.276,0.232 0.279,0.234 a 0.383,0.383 0 0 1 -0.092,0.163 0.376,0.376 0 0 1 -0.286,0.142 c -0.137,0 -0.183,-0.046 -0.337,-0.046 -0.154,0 -0.209,0.044 -0.338,0.047 a 0.352,0.352 0 0 1 -0.282,-0.146 0.423,0.423 0 0 1 0.077,-0.58 z M 21.205999,9.4752874 a 0.63499999,0.63499999 0 0 1 -0.635,0.6349996 0.63499999,0.63499999 0 0 1 -0.635,-0.6349996 0.63499999,0.63499999 0 0 1 0.635,-0.635 0.63499999,0.63499999 0 0 1 0.635,0.635 z M 20.413,11.221287 a 0.636,0.636 0 0 0 -0.635,0.635 v 1.9 a 0.635,0.635 0 1 0 1.27,0 v -1.9 a 0.636,0.636 0 0 0 -0.635,-0.635 z M 18.96005,9.4752874 a 0.63499999,0.63499999 0 0 1 -0.635,0.6349996 0.63499999,0.63499999 0 0 1 -0.635,-0.6349996 0.63499999,0.63499999 0 0 1 0.635,-0.635 0.63499999,0.63499999 0 0 1 0.635,0.635 z m 2.08795,-5.873 h -3.175 a 0.955,0.955 0 0 0 -0.952,0.952 V 19.156287 a 0.955,0.955 0 0 0 0.952,0.952 h 3.175 A 0.956,0.956 0 0 0 22,19.156287 V 4.5562874 a 0.956,0.956 0 0 0 -0.952,-0.954 z m -1.934,0.635 h 0.693 c 0.027,0 0.049,0.036 0.049,0.079 0,0.043 -0.022,0.08 -0.049,0.08 h -0.693 c -0.027,0 -0.05,-0.036 -0.05,-0.08 0,-0.044 0.023,-0.079 0.05,-0.079 z M 18.349,14.556287 a 0.794,0.794 0 1 1 0.794,-0.793 0.793,0.793 0 0 1 -0.794,0.793 z m 0,-1.9 a 0.794,0.794 0 1 1 0.794,-0.8 0.794,0.794 0 0 1 -0.794,0.794 z m 0,-2.381 A 0.794,0.794 0 1 1 19.143,9.4812874 0.794,0.794 0 0 1 18.349,10.269287 Z M 17.733,6.4472874 a 1.728,1.728 0 1 1 1.727,1.722 1.728,1.728 0 0 1 -1.727,-1.728 z m 3.473,7.3199996 a 0.794,0.794 0 0 1 -1.587,0 v -1.911 a 0.794,0.794 0 1 1 1.587,0 z m -0.635,-3.492 a 0.794,0.794 0 1 1 0.794,-0.7939996 0.794,0.794 0 0 1 -0.794,0.7879996 z m 0.477,-5.5909996 a 0.362,0.362 0 1 1 0.362,-0.362 0.362,0.362 0 0 1 -0.362,0.356 z m -2.063997,9.0769996 a 0.63499999,0.63499999 0 0 1 -0.635,0.635 0.63499999,0.63499999 0 0 1 -0.635,-0.635 0.63499999,0.63499999 0 0 1 0.635,-0.635 0.63499999,0.63499999 0 0 1 0.635,0.635 z m 0,-1.905 a 0.63499999,0.63499999 0 0 1 -0.635,0.635 0.63499999,0.63499999 0 0 1 -0.635,-0.635 0.63499999,0.63499999 0 0 1 0.635,-0.635 0.63499999,0.63499999 0 0 1 0.635,0.635 z M 12.393,6.5332874 h -0.97 l 1.751,4.8219996 h 0.974 l 1.746,-4.8219996 h -0.96 l -1.261,3.8929996 h -0.019 z"/>
</svg>
