<svg height='30px' width='30px'  fill="#44739e" xmlns="http://www.w3.org/2000/svg" xmlns:xlink="http://www.w3.org/1999/xlink" version="1.1" x="0px" y="0px" viewBox="0 0 100 100" enable-background="new 0 0 100 100" xml:space="preserve"><g><path d="M27.8,77.4c0.1,0.2,0.3,0.3,0.5,0.4c0.2,0.1,2.3,1.5,3,6.8c0.1,1.2,0.2,2.3,0.3,3.2c0.3,4.8,0.8,7.3,7.1,8   c3.4,0.4,6.5,0.6,9.6,0.6s6.3-0.2,9.6-0.6c6.3-0.8,6.8-3.3,7.1-8c0.1-0.9,0.1-2,0.3-3.2c0.6-5.3,2.7-6.7,2.9-6.8   c0.2-0.1,0.4-0.2,0.5-0.4c2.9-1.9,4.7-5.1,4.7-8.6v-1.7H74c0.8,0,1.5-0.7,1.5-1.5v-12c0-0.8-0.7-1.5-1.5-1.5h-0.5v-4.3   c1.2,0,2-0.6,2.4-1c1.3-1.3,1.2-3.3,1.1-5c0-0.3,0-0.6,0-0.8v-4.4c0-0.2,0-0.5,0-0.7c0-0.6,0.1-1.4-0.1-2.1c0,0,0,0,0,0   c0,0,0,0,0,0c0,0,0,0,0,0c0,0,0,0,0,0c0,0,0,0,0,0c0,0,0,0,0,0c0,0,0,0,0,0c-0.3-1.7-1.8-2.9-3.5-2.9c-0.1-3.4-1.8-6.5-4.5-8.3   c-0.2-0.2-0.4-0.4-0.6-0.5c0,0-0.1,0-0.1,0c-0.4-0.2-2.3-1.6-2.9-6.8c-0.1-1.2-0.2-2.3-0.3-3.2c-0.3-4.8-0.8-7.3-7.1-8   c-6.7-0.8-12.5-0.8-19.2,0c-6.3,0.8-6.8,3.3-7.1,8c-0.1,0.9-0.1,2-0.3,3.2c-0.6,5.3-2.7,6.7-2.9,6.8c-0.2,0.1-0.4,0.2-0.5,0.4   c-2.8,1.8-4.7,5-4.7,8.6v37.8C23.2,72.4,25,75.6,27.8,77.4z M62.4,84.3c-0.2,1.3-0.2,2.4-0.3,3.3c-0.3,4.2-0.3,4.8-4.5,5.3   c-6.5,0.8-12,0.8-18.5,0c-4.1-0.5-4.2-1-4.5-5.3c-0.1-1-0.1-2.1-0.3-3.3c-0.3-2.2-0.8-3.9-1.3-5.2c0.1,0,0.3,0,0.4,0h29.9   c0.1,0,0.3,0,0.4,0C63.1,80.4,62.6,82.1,62.4,84.3z M74,34.4c0.1,0.4,0,0.9,0,1.5c0,0.3,0,0.6,0,0.8v4.4c0,0.3,0,0.6,0,1   c0,0.8,0.1,2.4-0.3,2.8c-0.1,0.1-0.3,0.1-0.4,0.1c-0.3,0-0.9-0.6-1.5-2.2C71.3,41,71.3,39,71.6,37c0.3-1.5,0.8-2.5,1.4-3   c0.1-0.1,0.3-0.1,0.4-0.1C73.6,33.9,73.9,34,74,34.4z M34.3,15.7c0.2-1.3,0.2-2.4,0.3-3.3c0.3-4.2,0.3-4.8,4.5-5.3   c6.5-0.8,12-0.8,18.5,0c4.1,0.5,4.2,1,4.5,5.3c0.1,1,0.1,2.1,0.3,3.3c0.3,2.2,0.8,3.9,1.3,5.2c-0.1,0-0.3,0-0.4,0H33.4   c-0.1,0-0.3,0-0.4,0C33.6,19.6,34,17.9,34.3,15.7z M26.2,31.1c0-4,3.2-7.2,7.2-7.2h29.9c4,0,7.2,3.2,7.2,7.2v1.3   c-0.8,1-1.4,2.3-1.8,4c-0.5,2.5-0.4,4.9,0.3,7.2c0.4,1.2,0.9,2.1,1.5,2.8v7.3v12v3.2c0,2.6-1.4,5-3.6,6.3c-1.1,0.6-2.3,1-3.6,1   H33.4c-0.4,0-0.8,0-1.2-0.1c-0.5-0.1-1.1-0.2-1.6-0.4c-0.2-0.1-0.4-0.2-0.6-0.3c-0.1,0-0.2-0.1-0.3-0.1c-2.2-1.3-3.6-3.7-3.6-6.3   V31.1z"></path></g></svg>