<?xml version="1.0" encoding="UTF-8"?>
<svg width="24px" fill="#44739e" height="24px" viewBox="0 0 24 24" version="1.1" xmlns="http://www.w3.org/2000/svg" xmlns:xlink="http://www.w3.org/1999/xlink">
            <path d="M 18.984,2 H 5.016 A 3.019,3.019 0 0 0 2,5.016 V 18.984 A 3.019,3.019 0 0 0 5.016,22 H 18.984 A 3.019,3.019 0 0 0 22,18.984 V 5.016 A 3.019,3.019 0 0 0 18.984,2 Z m 2.008,16.984 a 2.011,2.011 0 0 1 -2.008,2.008 H 5.016 A 2.011,2.011 0 0 1 3.008,18.984 V 5.016 A 2.011,2.011 0 0 1 5.016,3.008 h 13.968 a 2.011,2.011 0 0 1 2.008,2.008 z M 8.689,9.74 A 1.416,1.416 0 0 0 9.032,8.678 1.418,1.418 0 0 0 7.989,9.256 1.237,1.237 0 0 0 7.699,10.205 1.123,1.123 0 0 0 8.689,9.74 Z m 0.833,2.46 a 1.442,1.442 0 0 1 0.718,-1.259 1.482,1.482 0 0 0 -1.3,-0.664 6.006,6.006 0 0 0 -1.184,0.308 c -0.262,0 -0.652,-0.29 -1.156,-0.29 -0.774,0 -1.6,0.693 -1.6,2.015 0,1.342 0.975,3.013 1.747,3.013 0.269,0 0.683,-0.271 1.1,-0.271 0.417,0 0.711,0.261 1.1,0.261 0.845,0 1.471,-1.761 1.471,-1.761 A 1.478,1.478 0 0 1 9.522,12.2 Z m 7.829,1.156 c -0.095,0.239 -0.183,0.466 -0.261,0.681 -0.078,0.215 -0.152,0.421 -0.22,0.619 h -0.021 c -0.068,-0.2 -0.14,-0.413 -0.215,-0.624 -0.075,-0.211 -0.16,-0.437 -0.256,-0.676 L 15.252,10.3 H 14.74 l 1.884,4.915 h 0.42 L 19,10.3 H 18.488 Z M 13.1,9.218 12.608,9.402 v 0.9 H 11.8 v 0.389 h 0.809 v 3.114 a 3.331,3.331 0 0 0 0.052,0.609 1.32,1.32 0 0 0 0.179,0.481 0.879,0.879 0 0 0 0.348,0.313 1.224,1.224 0 0 0 0.558,0.112 1.6,1.6 0 0 0 0.656,-0.112 L 14.351,14.839 A 1.394,1.394 0 0 1 14.125,14.89 2.069,2.069 0 0 1 13.808,14.91 0.587,0.587 0 0 1 13.26,14.649 1.456,1.456 0 0 1 13.1,13.9 v -3.207 h 1.362 V 10.3 H 13.1 Z"/>

</svg>