<svg xmlns="http://www.w3.org/2000/svg" width="24" height="24" viewBox="0 0 24 24">
  <path id="Colore_riempimento_1" fill="#44739e" data-name="Colore riempimento 1" class="cls-1" d="m 8.19824,11.413048 -0.518,-0.325 a 0.642,0.642 0 0 1 -0.491,0.786 l 0.52,0.325 a 0.464,0.464 0 0 0 0.492,-0.786 z m -0.75,0.078 a 0.463,0.463 0 0 0 -0.146,-0.638 l -0.722,-0.449 a 0.46337809,0.46337809 0 0 0 -0.491,0.786 l 0.717,0.448 a 0.464,0.464 0 0 0 0.642,-0.147 z m 1.986,4.635 a 1.754,1.754 0 0 1 -0.089,-0.737 4.457,4.457 0 0 1 0.643,-1.809 4.117,4.117 0 0 1 1.315,-1.441 2.363,2.363 0 0 1 0.428,-0.212 v -0.005 a 4.93,4.93 0 0 0 -3.582,-2.4930001 0.08924405,0.08924405 0 1 1 0.023,-0.177 5.109,5.109 0 0 1 3.716,2.5900001 0.1,0.1 0 0 1 0.009,0.034 1.493,1.493 0 0 1 0.431,-0.05 4.577,4.577 0 0 0 -2.541,-2.2330001 4.357,4.357 0 0 0 -2.722,-0.273 2.743,2.743 0 0 0 -1.485,1.0170001 3.226,3.226 0 0 0 0.108,3.868 5.639,5.639 0 0 0 1.71,1.454 l 0.069,0.035 a 6.432,6.432 0 0 0 1.74,0.478 c 0.083,0.008 0.167,0.015 0.253,0.02 -0.008,-0.018 -0.015,-0.037 -0.022,-0.057 z m -0.938,-3.979 a 0.642,0.642 0 0 1 -0.884,0.2 l -1.615,-1.006 a 0.64230697,0.64230697 0 0 1 0.683,-1.088 l 1.614,1.009 a 0.642,0.642 0 0 1 0.202,0.885 z m 3.995,3.994 a 0.59,0.59 0 0 0 0.584,-0.041 1.566,1.566 0 0 0 0.737,-1.276 0.589,0.589 0 0 0 -0.257,-0.526 0.492,0.492 0 0 0 -0.339,-0.051 0.614,0.614 0 0 1 0.289,-0.11 0.23,0.23 0 0 1 0.127,0.027 0.079,0.079 0 0 0 0.1,-0.12 0.063,0.063 0 0 0 -0.021,-0.018 0.607,0.607 0 0 0 -0.638,0.126 2.356,2.356 0 0 0 -0.619,0.713 l -0.012,0.019 v 0 0 a 2.385,2.385 0 0 0 -0.321,0.916 0.608,0.608 0 0 0 0.211,0.616 0.082,0.082 0 0 0 0.03,0.01 0.08,0.08 0 0 0 0.049,-0.148 0.245,0.245 0 0 1 -0.1,-0.131 0.679,0.679 0 0 1 -0.033,-0.289 0.494,0.494 0 0 0 0.213,0.283 z m 0.087,-1.174 0.015,-0.025 a 1.285,1.285 0 0 1 0.455,-0.465 0.369,0.369 0 0 1 0.605,0.349 1.409,1.409 0 0 1 -0.655,1.135 0.37,0.37 0 0 1 -0.606,-0.349 1.294,1.294 0 0 1 0.188,-0.645 z m 0.002,-2.941 a 1.064,1.064 0 0 0 -0.167,-0.05 0.088,0.088 0 0 1 -0.076,-0.013 1.308,1.308 0 0 0 -0.613,0.077 2.08,2.08 0 0 0 -0.409,0.2 3.943,3.943 0 0 0 -1.255,1.378 4.3,4.3 0 0 0 -0.619,1.733 1.459,1.459 0 0 0 0.131,0.784 1.057,1.057 0 0 0 0.153,0.222 c 0.022,0.024 0.044,0.046 0.068,0.068 a 1.134,1.134 0 0 0 0.106,0.086 2.666,2.666 0 0 0 2.567,0.211 2.57,2.57 0 0 0 1.282,-1.067 2.732,2.732 0 0 0 0.316,-1.762 2.371,2.371 0 0 0 -1.484,-1.867 z m 1.1,3.571 a 1.637,1.637 0 0 1 -0.593,0.613 0.659,0.659 0 0 1 -0.656,0.045 0.49,0.49 0 0 1 -0.126,-0.1 0.245,0.245 0 0 0 0.1,0.131 0.08,0.08 0 0 1 -0.049,0.148 0.089,0.089 0 0 1 -0.108,0.139 0.681,0.681 0 0 1 -0.236,-0.691 2.662,2.662 0 0 1 0.36,-1.029 v 0 0 l 0.012,-0.022 a 2.646,2.646 0 0 1 0.7,-0.8 0.68,0.68 0 0 1 0.716,-0.141 0.089,0.089 0 0 1 0.033,0.122 0.09,0.09 0 0 1 -0.1,0.04 0.079,0.079 0 0 1 -0.1,0.12 0.23,0.23 0 0 0 -0.127,-0.027 0.476,0.476 0 0 1 0.122,0.05 0.659,0.659 0 0 1 0.289,0.59 1.637,1.637 0 0 1 -0.237,0.812 z m -6.452,0.196 -0.065,-0.033 c -0.082,-0.043 -0.165,-0.089 -0.246,-0.138 a 5.119,5.119 0 0 1 -0.428,-0.29 v 5.7 a 0.9,0.9 0 0 0 0.226,0.627 1.235,1.235 0 0 0 0.947,0.317 1.234,1.234 0 0 0 0.953,-0.316 0.9,0.9 0 0 0 0.22,-0.627 v -4.757 a 5.078,5.078 0 0 1 -1.591,-0.477 z m 8.933,-11.4400001 a 0.636,0.636 0 0 1 -0.078,-0.5 l -0.521,0.326 a 0.46321944,0.46321944 0 1 0 0.492,0.785 l 0.52,-0.325 a 0.635,0.635 0 0 1 -0.413,-0.286 z m 1.019,-1.177 -0.719,0.45 a 0.46348517,0.46348517 0 0 0 0.493,0.785 l 0.717,-0.449 a 0.46337809,0.46337809 0 0 0 -0.491,-0.786 z m 1,-0.072 a 2.743,2.743 0 0 0 -1.485,-1.017 4.366,4.366 0 0 0 -2.722,0.274 4.574,4.574 0 0 0 -2.541,2.233 1.457,1.457 0 0 1 0.431,0.049 0.1,0.1 0 0 1 0.009,-0.033 5.11,5.11 0 0 1 3.716,-2.591 0.08924405,0.08924405 0 0 1 0.023,0.177 4.928,4.928 0 0 0 -3.579,2.494 v 0 a 2.293,2.293 0 0 1 0.428,0.211 4.117,4.117 0 0 1 1.315,1.441 4.462,4.462 0 0 1 0.643,1.809 1.75,1.75 0 0 1 -0.089,0.737 v 0.01 c -0.007,0.019 -0.014,0.038 -0.022,0.057 0.086,-0.006 0.17,-0.012 0.253,-0.021 a 6.432,6.432 0 0 0 1.74,-0.478 l 0.069,-0.035 a 5.639,5.639 0 0 0 1.703,-1.445 3.226,3.226 0 0 0 0.108,-3.872 z m -0.417,1 -1.615,1.014 a 0.642,0.642 0 0 1 -0.68,-1.089 l 1.612,-1.009 a 0.64219974,0.64219974 0 0 1 0.681,1.089 z m -6.122,4.472 a 2.385,2.385 0 0 0 -0.321,-0.916 v 0 0 l -0.012,-0.019 a 2.37,2.37 0 0 0 -0.619,-0.713 0.606,0.606 0 0 0 -0.638,-0.125 0.053,0.053 0 0 0 -0.021,0.018 0.078,0.078 0 0 0 -0.009,0.09 0.08,0.08 0 0 0 0.109,0.029 0.23,0.23 0 0 1 0.127,-0.027 0.618,0.618 0 0 1 0.289,0.111 0.486,0.486 0 0 0 -0.339,0.05 0.59,0.59 0 0 0 -0.257,0.526 1.566,1.566 0 0 0 0.737,1.277 0.589,0.589 0 0 0 0.584,0.04 0.491,0.491 0 0 0 0.217,-0.278 0.681,0.681 0 0 1 -0.033,0.289 0.243,0.243 0 0 1 -0.1,0.13 0.08,0.08 0 0 0 -0.029,0.109 0.078,0.078 0 0 0 0.078,0.039 0.075,0.075 0 0 0 0.031,-0.01 0.609,0.609 0 0 0 0.206,-0.62 z m -0.451,0.2 a 0.437,0.437 0 0 1 -0.428,-0.041 1.413,1.413 0 0 1 -0.655,-1.135 0.37,0.37 0 0 1 0.605,-0.35 1.285,1.285 0 0 1 0.455,0.465 l 0.015,0.025 a 1.294,1.294 0 0 1 0.186,0.645 0.437,0.437 0 0 1 -0.178,0.385 z m 2.51,-2.389 a 3.938,3.938 0 0 0 -1.255,-1.379 2.08,2.08 0 0 0 -0.409,-0.2 1.321,1.321 0 0 0 -0.613,-0.077 0.083,0.083 0 0 1 -0.075,0.013 1.013,1.013 0 0 0 -0.165,0.049 2.368,2.368 0 0 0 -1.486,1.868 2.718,2.718 0 0 0 0.315,1.762 2.57,2.57 0 0 0 1.282,1.067 2.66,2.66 0 0 0 2.567,-0.214 1.134,1.134 0 0 0 0.106,-0.086 c 0.024,-0.022 0.046,-0.044 0.068,-0.067 a 1.027,1.027 0 0 0 0.153,-0.223 1.454,1.454 0 0 0 0.131,-0.783 4.289,4.289 0 0 0 -0.619,-1.73 z m -2.192,2.949 a 0.089,0.089 0 0 1 -0.122,-0.032 0.09,0.09 0 0 1 0.014,-0.107 0.078,0.078 0 0 1 -0.078,-0.039 0.08,0.08 0 0 1 0.029,-0.109 0.243,0.243 0 0 0 0.1,-0.13 0.511,0.511 0 0 1 -0.126,0.1 0.664,0.664 0 0 1 -0.654,-0.043 1.759,1.759 0 0 1 -0.827,-1.434 0.66,0.66 0 0 1 0.289,-0.59 0.476,0.476 0 0 1 0.122,-0.05 0.23,0.23 0 0 0 -0.127,0.027 0.08,0.08 0 0 1 -0.109,-0.029 0.078,0.078 0 0 1 0.009,-0.09 0.091,0.091 0 0 1 -0.1,-0.041 0.089,0.089 0 0 1 0.033,-0.122 0.68,0.68 0 0 1 0.716,0.141 2.651,2.651 0 0 1 0.7,0.8 l 0.012,0.021 v 0 0 a 2.658,2.658 0 0 1 0.36,1.028 0.681,0.681 0 0 1 -0.241,0.699 z m 5.089,-0.808 -0.065,0.033 -0.016,0.007 a 5.105,5.105 0 0 1 -1.591,0.478 v 4.7540001 a 0.9,0.9 0 0 0 0.22,0.628 1.234,1.234 0 0 0 0.953,0.315 1.235,1.235 0 0 0 0.947,-0.316 0.9,0.9 0 0 0 0.226,-0.627 V 8.1000479 a 4.887,4.887 0 0 1 -0.428,0.29 c -0.081,0.048 -0.163,0.094 -0.246,0.138 z"/>
</svg>
