<svg xmlns="http://www.w3.org/2000/svg" width="32" height="32" viewBox="0 0 512 512">
  <defs>
  <style>path{fill:#000}@media (prefers-color-scheme:dark){path{fill:#fff}}</style>
  </defs>
  <path id="Colore_riempimento_1" data-name="Colore riempimento 1" class="cls-1" d="M171,234l-16,1v-1H145v-1h-5v-1h-5v-1h-3v-1h-3v-1h-3v-1h-3v-1h-2v-1h-3v-1l-6-2v-1l-6-2q-0.5-1-1-2l-4-1v-1l-3-1-1-2H95l-1-2H92l-1-2-3-1-2-3H84l-4-5H78L68,189l-3-2v-3H64V136h1v-3l3-2,10-11h2l4-5h2l2-3,3-1,1-2h2l1-2,3-1v-1h2q0.5-1,1-2l4-1q0.5-1,1-2l4-1V98h2V97l6-2V94h3V93h2V92h3V91h3V90h3V89h3V88h5V87h5V86h9V85l23,1v1h5v1h5v1h3v1h3v1h3v1h2v1l6,2,1,2h2v1h2l4,5h2q0.5,1,1,2h1v2l4,3q0.5,1.5,1,3l2,1q0.5,2,1,4h1q1,3,2,6h1q1,4.5,2,9h1v5h1v5h1v11h1V379c0,9.094.827,20.51-2,27h-1l-2,6-2,1v2l-5,4-1,2-4,1-1,2h-3v1h-3v1h-5v1c-3.962,1.119-9.716-1.147-12-2h-3v-1l-6-2-2-3h-2v-1l-3-2v-2l-3-2v-2h-1v-2h-1c-4.335-9.863-2-38.839-2-53V234Zm170,0V355c0,13.919,2.337,43.462-2,53h-1v2l-2,1v2l-2,1v2l-3,2v1h-2l-2,3-6,2v1h-3c-2.27.84-8.058,3.133-12,2-13.2-3.793-21.895-9.168-27-21-2.817-6.528-2-17.877-2-27V154h1V143h1v-5h1v-5h1q1-4.5,2-9h1l2-6h1l1-4,2-1,1-3,4-3v-2l2-1v-1h2l3-4h2l2-3h2V95h2V94h2V93h2V92h2V91h3V90h3V89h3V88h5V87h5V86l23-1v1h9v1h5v1h5v1h3v1h3v1h3v1h3v1h3v1l6,2v1h2v1h2v1l6,2,1,2h2l1,2h2v1l3,1,1,2h2l1,2,3,1,2,3h2l4,5h2l10,11,3,2v3h1v48h-1v3l-3,2-10,11h-2l-4,5h-2l-2,3h-2l-2,3h-2l-1,2h-2l-1,2-3,1v1l-4,1-1,2-4,1v1h-2v1l-6,2v1h-3v1h-2v1h-3v1h-3v1h-3v1h-3v1h-5v1h-5v1H357v1ZM149,107v1h-5v1h-4v1h-4v1h-3v1h-3v1l-6,2v1h-2v1h-2v1l-6,2q-0.5,1-1,2h-2q-0.5,1-1,2h-2q-0.5,1-1,2h-2q-0.5,1-1,2l-3,1-2,3H97l-4,5-3,1v1l-5,4v34l10,8,2,3h2l2,3h2l2,3h2q0.5,1,1,2h2q0.5,1,1,2l3,1v1l22,10,13,2c3.621,1.076,18.954,2.442,24,1v-1h6v-1h4v-1h3v-1l6-2v-1h2q0.5-1,1-2h2l2-3,5-4c6.376-9.029,12.808-33.458,8-50v-6h-1v-4h-1v-3h-1q-0.5-2-1-4h-1q-0.5-2-1-4l-2-1C192.489,107.941,177.264,106.806,149,107Zm190,0v1h-6v1l-7,1v1l-6,2v1l-4,1-6,7-3,2-1,4h-1l-2,6h-1v3h-1v4h-1v6c-2.543,8.972-1.044,32.061,2,39h1l1,4h1l1,4,2,1v2l5,4,2,3h2l1,2h2v1l6,2v1h3v1h4v1h6v1c5.071,1.424,20.369.1,24-1h5v-1h4v-1h4v-1h3v-1h3v-1l6-2v-1h2v-1h2v-1l6-2,1-2h2l1-2h2l1-2h2l1-2h2l3-4h2l4-5h2v-1l6-5V143l-6-5v-1h-2l-4-5h-2l-3-4h-2l-1-2h-2l-1-2h-2l-1-2h-2l-1-2-6-2v-1h-2v-1h-2v-1l-6-2v-1h-3v-1h-3v-1h-4v-1h-4v-1h-5v-1H339ZM137,149c16.918-.122,37.192-0.762,51,2,2.337,4.263,3.939,4.915,4,12-2.757,2.485-1.448,4.777-6,6-2.757,2.77-9.521,2-15,2H137v-1l-5-1c-2.337-4.263-3.939-4.915-4-12,2.757-2.485,1.448-4.777,6-6v-1h3v-1Zm192,0c16.918-.122,37.192-0.762,51,2,2.337,4.263,3.939,4.915,4,12-2.757,2.485-1.448,4.777-6,6-2.757,2.77-9.521,2-15,2H329v-1l-5-1c-2.337-4.263-3.939-4.915-4-12,2.757-2.485,1.448-4.777,6-6v-1h3v-1ZM195,403l4,1v1l10-1a21.9,21.9,0,0,1,4-5V218h-1c-1.849,3.017-4.057,3.053-7,5q-0.5,1-1,2h-2v1h-2v1h-2v1c-2.762,1.257-2.988-.281-5,2h-1V398A8.278,8.278,0,0,1,195,403Zm122,0,1-3h1v-2h1V230l-12-5-1-2h-2l-1-2h-2v-1l-3-2V399c1.139,1.139.4,0,1,2,2.128,1.212,2.177,2.252,5,3C308.18,407.03,314.224,403.677,317,403Z"/>
</svg>
