<svg xmlns="http://www.w3.org/2000/svg" width="24" height="24" viewBox="0 0 24 24">
  <path id="Colore_riempimento_1" fill="#44739e" data-name="Colore riempimento 1" class="cls-1" d="m 5.521,11.253 a 1,1 0 0 0 -0.883,1.08 V 11.7 A 0.631,0.631 0 0 0 4.052,11.032 H 3.846 a 1.062,1.062 0 0 0 -0.987,1.124 v 8.716 A 1.063,1.063 0 0 0 3.846,22 H 4.052 A 0.631,0.631 0 0 0 4.638,21.332 V 20.7 A 1,1 0 0 0 5.521,21.78 1,1 0 0 0 6.4,20.7 v -8.367 a 1,1 0 0 0 -0.879,-1.08 z m 14.633,-0.218 h -0.206 a 0.631,0.631 0 0 0 -0.586,0.668 v 0.63 a 1,1 0 0 0 -0.883,-1.08 1,1 0 0 0 -0.882,1.08 V 20.7 a 1,1 0 0 0 0.882,1.08 1,1 0 0 0 0.883,-1.08 v 0.631 a 0.631,0.631 0 0 0 0.586,0.668 h 0.206 a 1.063,1.063 0 0 0 0.987,-1.125 v -8.715 a 1.062,1.062 0 0 0 -0.987,-1.124 z m -0.809,0.05 c 0,-0.089 0.017,-0.174 0.017,-0.264 C 19.362,5.95 16.066,2 12,2 7.934,2 4.638,5.95 4.638,10.821 c 0,0.089 0.008,0.176 0.01,0.264 h 0.479 c 0.134,-4.722 3.183,-8.5 6.935,-8.5 3.752,0 6.8,3.78 6.935,8.5 z"/>
</svg>
