<svg xmlns="http://www.w3.org/2000/svg" viewBox="0 0 24 24"><path fill="#44739e" d="M15.328 2.718h-1.25v.266a.275.275 0 0 1-.275.275h-3.268a.275.275 0 0 1-.275-.275v-.266H8.672a1.045 1.045 0 0 0-.979 1.1v16.347a1.045 1.045 0 0 0 .98 1.1h6.655a1.045 1.045 0 0 0 .98-1.1V3.819a1.045 1.045 0 0 0-.98-1.101M16.033 2H7.967A1.187 1.187 0 0 0 6.78 3.187v17.626A1.187 1.187 0 0 0 7.967 22h8.066a1.187 1.187 0 0 0 1.187-1.187V3.187A1.187 1.187 0 0 0 16.033 2m.646 18.463a1.105 1.105 0 0 1-1.068 1.14H8.355a1.105 1.105 0 0 1-1.068-1.14V3.521A1.106 1.106 0 0 1 8.355 2.38h7.256a1.106 1.106 0 0 1 1.068 1.141Z"/></svg>