<svg xmlns="http://www.w3.org/2000/svg" viewBox="0 0 24 24"><path fill="#44739e" d="M10.318 6.511c.3 0 .424-.127.424-.342a.366.366 0 0 0-.408-.374.352.352 0 0 0-.4.366.345.345 0 0 0 .384.35m2.308-.298c0-.081 0-.261.006-.357-.074.105-.5.563-.707.794h.7Zm5.715-3.65H5.626a.69.69 0 0 0-.69.689v17.5a.69.69 0 0 0 .69.689h12.715a.69.69 0 0 0 .69-.689v-17.5a.69.69 0 0 0-.69-.689m-5.184 3.356a1.6 1.6 0 0 0 .426-.214h.117v1.453h-.141v-1.3a1.4 1.4 0 0 1-.4.169Zm-1.392.835v-.107l.859-.931h.14v.934h.242l-.02.1h-.221v.4h-.14v-.4Zm-.692-2.839a.12.12 0 0 1 .112-.126H12v-.326a.5.5 0 0 1 .463-.528.44.44 0 0 1 .33.152.56.56 0 0 1 .137.37v.305a.033.033 0 0 1-.03.035h-.11a.033.033 0 0 1-.03-.035v-.305a.35.35 0 0 0-.087-.235.28.28 0 0 0-.211-.1.32.32 0 0 0-.293.335v.328h.214a.12.12 0 0 1 .112.126v.732a.12.12 0 0 1-.112.126h-1.2a.12.12 0 0 1-.112-.126Zm.25 2.43v-.283h.13v.283Zm.13.528v.285h-.13v-.285ZM10.346 5.69c.4 0 .567.26.567.659 0 .36-.078.831-.594.831a.466.466 0 0 1-.51-.311h.149a.35.35 0 0 0 .366.208c.41 0 .44-.469.449-.664a.5.5 0 0 1-.465.206.47.47 0 0 1-.524-.456.5.5 0 0 1 .562-.473m3.7 15.026H9.662a.15.15 0 1 1 0-.3h4.385a.15.15 0 1 1 0 .3ZM18.975 2H5.025a.743.743 0 0 0-.743.743v18.514a.743.743 0 0 0 .743.743h13.95a.743.743 0 0 0 .743-.743V2.743A.743.743 0 0 0 18.975 2m.416 19.029a.717.717 0 0 1-.717.718H5.326a.717.717 0 0 1-.717-.718V3a.717.717 0 0 1 .717-.718h13.348a.717.717 0 0 1 .717.718Z"/></svg>