<svg xmlns="http://www.w3.org/2000/svg" viewBox="0 0 24 24"><path fill="#44739e" d="m8.317 11.43-.519-.325a.64.64 0 0 1-.49.786l.52.325a.464.464 0 0 0 .492-.786Zm-.751.078a.463.463 0 0 0-.146-.638l-.722-.449a.463.463 0 0 0-.49.786l.716.448a.464.464 0 0 0 .642-.147m1.987 4.635a1.75 1.75 0 0 1-.089-.737 4.5 4.5 0 0 1 .643-1.809 4.1 4.1 0 0 1 1.315-1.441 2.4 2.4 0 0 1 .428-.212v-.005a4.93 4.93 0 0 0-3.581-2.493.09.09 0 1 1 .023-.177 5.11 5.11 0 0 1 3.716 2.59.1.1 0 0 1 .01.034 1.5 1.5 0 0 1 .43-.05 4.58 4.58 0 0 0-2.54-2.233 4.36 4.36 0 0 0-2.724-.273 2.74 2.74 0 0 0-1.485 1.017 3.23 3.23 0 0 0 .108 3.868 5.6 5.6 0 0 0 1.71 1.454l.07.035a6.4 6.4 0 0 0 1.741.478q.123.012.252.02l-.022-.057Zm-.938-3.979a.64.64 0 0 1-.885.2l-1.615-1.006a.642.642 0 0 1 .683-1.088l1.615 1.009a.64.64 0 0 1 .202.885m3.995 3.994a.59.59 0 0 0 .584-.041 1.57 1.57 0 0 0 .737-1.276.59.59 0 0 0-.257-.526.5.5 0 0 0-.339-.051.6.6 0 0 1 .29-.11.23.23 0 0 1 .126.027.079.079 0 0 0 .1-.12l-.02-.018a.61.61 0 0 0-.639.126 2.4 2.4 0 0 0-.619.713l-.012.019a2.4 2.4 0 0 0-.32.916.61.61 0 0 0 .21.616.1.1 0 0 0 .03.01.08.08 0 0 0 .05-.148.25.25 0 0 1-.1-.131.7.7 0 0 1-.034-.289.5.5 0 0 0 .213.283m.087-1.174.015-.025a1.3 1.3 0 0 1 .455-.465.369.369 0 0 1 .605.349 1.41 1.41 0 0 1-.655 1.135.37.37 0 0 1-.606-.349 1.3 1.3 0 0 1 .188-.645Zm.002-2.941a1 1 0 0 0-.167-.05.1.1 0 0 1-.076-.013 1.3 1.3 0 0 0-.613.077 2 2 0 0 0-.409.2 3.94 3.94 0 0 0-1.255 1.378 4.3 4.3 0 0 0-.619 1.733 1.46 1.46 0 0 0 .131.784 1 1 0 0 0 .153.222q.033.035.068.068a1 1 0 0 0 .106.086 2.67 2.67 0 0 0 2.567.211 2.57 2.57 0 0 0 1.282-1.067 2.73 2.73 0 0 0 .316-1.762 2.37 2.37 0 0 0-1.484-1.867m1.1 3.571a1.64 1.64 0 0 1-.593.613.66.66 0 0 1-.656.045.5.5 0 0 1-.126-.1.25.25 0 0 0 .1.131.08.08 0 0 1-.049.148.089.089 0 0 1-.108.139.68.68 0 0 1-.236-.691 2.7 2.7 0 0 1 .36-1.029l.012-.022a2.65 2.65 0 0 1 .7-.8.68.68 0 0 1 .716-.141.09.09 0 0 1 .033.122.09.09 0 0 1-.1.04.079.079 0 0 1-.1.12.23.23 0 0 0-.127-.027.5.5 0 0 1 .122.05.66.66 0 0 1 .29.59 1.64 1.64 0 0 1-.238.812m-6.453.196-.065-.033a5 5 0 0 1-.246-.138 5 5 0 0 1-.428-.29v5.701a.9.9 0 0 0 .226.627 1.24 1.24 0 0 0 .947.317 1.23 1.23 0 0 0 .954-.316.9.9 0 0 0 .22-.627v-4.758a5.1 5.1 0 0 1-1.591-.477ZM16.28 4.37a.64.64 0 0 1-.078-.5l-.52.326a.463.463 0 1 0 .491.785l.52-.325a.64.64 0 0 1-.413-.286m1.02-1.177-.72.45a.463.463 0 0 0 .493.785l.717-.449a.463.463 0 0 0-.49-.786m1-.072a2.74 2.74 0 0 0-1.486-1.018 4.37 4.37 0 0 0-2.722.274 4.57 4.57 0 0 0-2.54 2.234 1.5 1.5 0 0 1 .43.049.1.1 0 0 1 .01-.033 5.11 5.11 0 0 1 3.715-2.592.09.09 0 0 1 .023.177 4.93 4.93 0 0 0-3.579 2.495 2.3 2.3 0 0 1 .428.211 4.1 4.1 0 0 1 1.315 1.441 4.5 4.5 0 0 1 .643 1.809 1.75 1.75 0 0 1-.089.737v.01l-.022.057q.129-.008.253-.021a6.4 6.4 0 0 0 1.74-.478l.07-.035a5.6 5.6 0 0 0 1.702-1.445 3.23 3.23 0 0 0 .108-3.872m-.418 1-1.615 1.014a.642.642 0 0 1-.68-1.089l1.613-1.009a.642.642 0 0 1 .681 1.089Zm-6.122 4.472a2.4 2.4 0 0 0-.32-.916l-.013-.019a2.4 2.4 0 0 0-.619-.713.61.61 0 0 0-.638-.125l-.02.018a.08.08 0 0 0-.01.09.08.08 0 0 0 .11.029.23.23 0 0 1 .126-.027.6.6 0 0 1 .29.111.5.5 0 0 0-.34.05.59.59 0 0 0-.257.526 1.57 1.57 0 0 0 .737 1.277.59.59 0 0 0 .584.04.5.5 0 0 0 .217-.278.7.7 0 0 1-.033.289.24.24 0 0 1-.1.13.08.08 0 0 0-.029.109.08.08 0 0 0 .078.039.1.1 0 0 0 .031-.01.61.61 0 0 0 .206-.62m-.45.2a.44.44 0 0 1-.429-.041 1.41 1.41 0 0 1-.655-1.135.37.37 0 0 1 .605-.35 1.3 1.3 0 0 1 .455.465l.015.025a1.3 1.3 0 0 1 .186.645.44.44 0 0 1-.178.385Zm2.51-2.389a3.94 3.94 0 0 0-1.256-1.379 2 2 0 0 0-.409-.2 1.3 1.3 0 0 0-.613-.077.08.08 0 0 1-.075.013 1 1 0 0 0-.165.049 2.37 2.37 0 0 0-1.486 1.868 2.72 2.72 0 0 0 .315 1.762 2.57 2.57 0 0 0 1.282 1.067 2.66 2.66 0 0 0 2.567-.214 1 1 0 0 0 .106-.086q.035-.033.068-.067a1 1 0 0 0 .153-.223 1.45 1.45 0 0 0 .131-.783 4.3 4.3 0 0 0-.619-1.73m-2.193 2.949a.09.09 0 0 1-.122-.032.09.09 0 0 1 .014-.107.08.08 0 0 1-.078-.039.08.08 0 0 1 .03-.109.24.24 0 0 0 .1-.13.5.5 0 0 1-.127.1.66.66 0 0 1-.654-.043 1.76 1.76 0 0 1-.827-1.434.66.66 0 0 1 .29-.59.5.5 0 0 1 .121-.05.23.23 0 0 0-.127.027.08.08 0 0 1-.109-.029.08.08 0 0 1 .01-.09.09.09 0 0 1-.1-.041.09.09 0 0 1 .032-.122.68.68 0 0 1 .716.141 2.7 2.7 0 0 1 .7.8l.012.021a2.7 2.7 0 0 1 .36 1.028.68.68 0 0 1-.24.699m5.09-.808-.066.033-.016.007a5.1 5.1 0 0 1-1.59.478v4.754a.9.9 0 0 0 .22.628 1.23 1.23 0 0 0 .952.315 1.24 1.24 0 0 0 .947-.316.9.9 0 0 0 .226-.627v-5.7a5 5 0 0 1-.428.29 6 6 0 0 1-.246.138"/></svg>