<svg xmlns="http://www.w3.org/2000/svg" width="24" height="23.92" viewBox="0 0 300 299">
  <path id="Colore_riempimento_1" data-name="Colore riempimento 1" class="cls-1" fill="#44739e" d="M66,0H192c24.732,0,52.692-1.663,70,6V7h2V8h2l1,2,4,1,2,3h2l4,5,7,6v2l2,1,1,3h1q0.5,2,1,4h1q1,3,2,6h1v3h1v4h1v4h1q0.5,10,1,20c2.827,16.832,1,48.043,1,70v55c0,10.055.132,24.436-1,30v14l-4,17h-1l-2,6h-1v2h-1l-1,4-3,2v2l-7,6-5,6c-23.682,16.753-66.749,13-107,13H90c-13.969,0-28.551.478-39-3H47v-1H44v-1H41v-1H38v-1H36v-1H34l-1-2-4-1-1-2H26l-7-8-5-4v-2l-3-2-1-4H9v-2H8l-2-6H5l-1-6H3v-5H2v-6H1V227c-1.446-5.837-1-22.389-1-33V130c0-17.319-2.041-46.044,1-58V58L5,41H6l2-6H9V33h1l1-4,3-2C21.784,16.014,30.533,9.293,44,4L56,2V1C59.519-.042,63.72,1.976,66,0Zm44,104c-10.582.3-18.236,9.745-19,20a10.6,10.6,0,0,0,4,1v-1l5-1v-1h2C105.9,119.368,109.734,110.6,110,104Zm41,26H141v9c2.437,0.918,6.193,1.037,10,1-0.235,11.1-1.69,26.724,1,36q0.5,5,1,10h1c1.431,1.858,1.232,2.274,4,3,3.008,3.052,12.027,2.113,18,2V180h-1c-2.3,2.16-6.025.377-9,0-2.029-11.356-1.013-26.986-1-40h11V130H165V112c-3.1-1.163-8.434-1.046-13-1C150.311,115.538,150.95,123.853,151,130Zm-27,7q-0.5-2-1-4c-3.6-1.763-11.523-7.864-18-6l-11,4c-6.079.565-7.329-1.847-11-3-11.333-3.56-22.53,7.311-25,13v3H57l-1,15h1v5h1v4h1v3h1v2h1l1,5,2,1,1,4,3,2v2l4,3v1h2l1,2h8c1.688-1.927,11.011-4.779,16-3v1h2v1h3v1c3.33,1.054,6.757-.626,9-1l5-6h1v-2l3-2q1-3,2-6h1q1-3,2-6h-1l-7-5v-2l-2-1v-3h-1v-3h-1c-2.111-6.909,3.971-15.733,7-18v-1h2Zm103-7-14,46c-1.139-1.139-.4,0-1-2h-1q-1-5-2-10h-1v-3h-1v-3h-1v-3h-1v-3h-1v-3h-1v-3h-1v-3h-1v-4c-1.008-2.8-2.559-5.095-3-9H183v1h1q0.5,2.5,1,5h1v3h1v3h1v3h1v3h1v2h1q1,4.5,2,9h1q0.5,3,1,6h1v2h1v3h1v3h1v3h1v3h1v2h1v3h1q0.5,3,1,6h1c2.167,1.987,10.054,1.1,14,1q11-30.5,22-61H227Z"/>
</svg>
