<svg xmlns="http://www.w3.org/2000/svg" viewBox="0 0 24 24"><path fill="#44739e" d="m10.237 8.763.001-.043Zm4.593-.039v.042Zm-1.706 7.154a.619.578 90 0 1-.578.619.619.578 90 0 1-.578-.619.619.578 90 0 1 .578-.619.619.578 90 0 1 .578.619m0 3.654a.619.578 90 0 1-.578.619.619.578 90 0 1-.578-.619.619.578 90 0 1 .578-.619.619.578 90 0 1 .578.619M11.408 9.098a2.7 2.7 0 0 0 1.132.413h.01a2.54 2.54 0 0 0 1.115-.39 2.6 2.6 0 0 1 1.154-.4h.011l-.013-4.02a2.75 2.75 0 0 0-.309-1.26 2.36 2.36 0 0 0-1.377-1.164 2.07 2.07 0 0 0-1.423.058 2.07 2.07 0 0 0-1.044.956 3.7 3.7 0 0 0-.418 1.7v.583l-.007 3.146v-.042a2.74 2.74 0 0 1 1.169.42m3.463 12.842L14.83 8.766v.042a2.54 2.54 0 0 0-1.13.39 2.6 2.6 0 0 1-1.154.4h-.011a2.7 2.7 0 0 1-1.171-.422 2.7 2.7 0 0 0-1.131-.412L10.207 22Zm-3.178-6.247a.85.85 0 0 1 .853-.853.85.85 0 0 1 .853.853v5.986l-1.706.027ZM10.155 4.151a4.7 4.7 0 0 1 .259-.906l.007-.017c.138-.346.529-.9 1.74-1.228h-.733a2.4 2.4 0 0 0-1.434.465 1.74 1.74 0 0 0-.633.885 5.1 5.1 0 0 0-.232 1.529v16.739l.954.382V7.523h-.527v-.289h.527v-1.66h-.5v-.257h.5v-.353a5 5 0 0 1 .037-.584h-.431v-.229Z"/></svg>