<svg viewBox="0 0 24 24" fill="#44739e" xmlns="http://www.w3.org/2000/svg"><path d="M15.926 11.5a20.476 20.476 0 0 1-8.4.006c.02.3-.1.285.232.383a5.7 5.7 0 0 0 .642.152 10.827 10.827 0 0 0 1.38.141c.733.041 1.471.056 2.205.051a28.159 28.159 0 0 0 2.875-.151 6.361 6.361 0 0 0 .8-.163c.382-.13.34-.024.336-.441zm.008-8.687c-1.433.125-2.878.132-4.316.137-1.363-.01-2.734-.018-4.092-.147.061.023-.117 8.486.062 8.42a3.96 3.96 0 0 0 .387.108 13.576 13.576 0 0 0 2.048.271 24.943 24.943 0 0 0 4.225-.074 10.632 10.632 0 0 0 1.229-.2 4.132 4.132 0 0 0 .408-.118c.035-.013.075-.028.108-.042v-.52a10.571 10.571 0 0 1-1.987.322 27.744 27.744 0 0 1-2.955.085 21.9 21.9 0 0 1-2.572-.192c-.637.15-.156-6.653-.255-6.83.064-.359.5-.159.748-.166a33.981 33.981 0 0 0 4.613.062c.552-.03 1.106-.074 1.654-.152.92-.133.74-.132.754-.969zm-2.354.841h-.017a6.453 6.453 0 0 1-.654.027.4.4 0 0 1-.154-.047.23.23 0 0 1-.105-.217.25.25 0 0 1 .1-.225.429.429 0 0 1 .15-.06 5.643 5.643 0 0 1 .66-.033c.016 0 .028.006.042.007a.252.252 0 0 1 .242.262.283.283 0 0 1-.264.286ZM7.869 2.6c1.881.135 3.773.131 5.657.1a43.091 43.091 0 0 0 1.935-.08c.179-.012.366-.027.544-.048-.006-.054.024-.083-.055-.081-1.138-.109-2.287-.122-3.43-.137-1.442-.01-2.891 0-4.332.087-.206.014-.419.03-.624.053-.037-.013-.023.056-.025.074.107.012.222.023.33.032Zm.939 7.809a26 26 0 0 0 3.805.145 15.964 15.964 0 0 0 3.084-.336c-.284.165-.121-5.889-.16-5.988h-.005a29.838 29.838 0 0 1-5.622.2 24.69 24.69 0 0 1-1.017-.072c-.061 0-.142-.014-.2-.02.091.024-.187 6.262.115 6.071ZM11 15.127a4.019 4.019 0 0 0-.435.083 5.575 5.575 0 0 0 2.308-.011 3.564 3.564 0 0 0-.273-.055c-.241-.081-.441.047-.709.052a2.617 2.617 0 0 1-.485-.014c-.144-.001-.278-.096-.406-.055Zm-.929.784c-.256 1.07-.471 2.163-.829 3.2a1.84 1.84 0 0 1-.922.892 2.824 2.824 0 0 0-.716.376c1.709.937 6.473.947 8.173-.018a3.958 3.958 0 0 0-.8-.4 1.642 1.642 0 0 1-.905-1c-.237-.732-.407-1.491-.588-2.239-.085-.365-.179-.776-.261-1.141l-.055-.246a4.159 4.159 0 0 1-.6.109 8.607 8.607 0 0 1-1.6.025c-.88-.012-.719-.39-.897.442zM7.619 20.7c-.066.327.7.5.951.59a13.126 13.126 0 0 0 3.983.345 10.5 10.5 0 0 0 2.456-.388c.26-.108.876-.238.806-.57a5.831 5.831 0 0 1-1.256.394 13.718 13.718 0 0 1-6.94-.371Zm3.595-7.881c.155 0 1.022.013 1.163-.01.006-.32.028-.219-.264-.227h-.762l-.184-.005c.019.023-.044.288.047.242zm.521 2.081c.079-.015.249.031.259-.041V13.05h-.469c.096.109-.225 2.114.21 1.85zm.915-11.479a.25.25 0 0 1 .1-.225.25.25 0 0 0-.1.225zm.913-.321c.016 0 .028.006.042.007-.014.002-.026-.007-.042-.007Zm-.654.585a.4.4 0 0 1-.154-.047.4.4 0 0 0 .154.047Zm.653-.585a5.643 5.643 0 0 0-.66.033 5.86 5.86 0 0 1 .66-.033Zm.018.554a.283.283 0 0 0 .267-.282.283.283 0 0 1-.267.282Z"/></svg>