<?xml version="1.0" encoding="UTF-8"?>
<svg width="24px" fill="#44739e" height="24px" viewBox="0 0 24 24" version="1.1" xmlns="http://www.w3.org/2000/svg" xmlns:xlink="http://www.w3.org/1999/xlink">
            <path d="m 10.237,8.765 v 0 L 10.238,8.722 Z M 14.83,8.726 v 0 0.042 z m -1.706,7.153 a 0.57800001,0.61900002 0 0 1 -0.578,0.619 0.57800001,0.61900002 0 0 1 -0.578,-0.619 0.57800001,0.61900002 0 0 1 0.578,-0.619 0.57800001,0.61900002 0 0 1 0.578,0.619 z m 0,3.653 a 0.57800001,0.61900002 0 0 1 -0.578,0.619 0.57800001,0.61900002 0 0 1 -0.578,-0.619 0.57800001,0.61900002 0 0 1 0.578,-0.619 0.57800001,0.61900002 0 0 1 0.578,0.619 z M 11.408,9.1 a 2.7,2.7 0 0 0 1.132,0.413 h 0.01 a 2.544,2.544 0 0 0 1.115,-0.39 2.6,2.6 0 0 1 1.154,-0.4 H 14.83 L 14.817,4.704 a 2.747,2.747 0 0 0 -0.309,-1.26 v 0 A 2.362,2.362 0 0 0 13.131,2.28 v 0 a 2.068,2.068 0 0 0 -1.423,0.058 v 0 a 2.07,2.07 0 0 0 -1.044,0.956 v 0 a 3.7,3.7 0 0 0 -0.418,1.7 V 5.576 L 10.239,8.722 V 8.68 A 2.74,2.74 0 0 1 11.408,9.1 Z M 14.871,21.94 14.83,8.768 V 8.81 A 2.535,2.535 0 0 0 13.7,9.2 2.6,2.6 0 0 1 12.546,9.6 H 12.535 A 2.735,2.735 0 0 1 11.364,9.178 2.673,2.673 0 0 0 10.233,8.766 L 10.207,22 Z m -3.178,-6.246 a 0.852,0.852 0 0 1 0.853,-0.853 v 0 a 0.852,0.852 0 0 1 0.853,0.853 v 5.985 l -1.706,0.027 z M 10.155,4.154 a 4.706,4.706 0 0 1 0.259,-0.906 l 0.007,-0.017 c 0.138,-0.346 0.529,-0.9 1.74,-1.228 H 11.428 A 2.416,2.416 0 0 0 9.994,2.468 v 0 A 1.739,1.739 0 0 0 9.361,3.353 v 0 A 5.144,5.144 0 0 0 9.129,4.882 V 21.618 L 10.083,22 V 7.525 H 9.556 V 7.236 h 0.527 v -1.66 h -0.5 V 5.319 h 0.5 V 4.967 A 4.757,4.757 0 0 1 10.12,4.383 H 9.689 V 4.154 Z"/>

</svg>