<?xml version="1.0" encoding="UTF-8"?>
<svg width="24px" fill="#44739e" height="24px" viewBox="0 0 24 24" version="1.1" xmlns="http://www.w3.org/2000/svg" xmlns:xlink="http://www.w3.org/1999/xlink">
            <path d="m 7.762,17.4 a 1.88,1.88 0 0 0 -0.245,1.067 c 0.039,0.8 0.5,1.439 1.025,1.413 0.525,-0.026 0.921,-0.7 0.881,-1.506 A 1.87,1.87 0 0 0 9.075,17.336 0.832,0.832 0 0 0 8.429,16.961 H 8.4 A 0.816,0.816 0 0 0 7.762,17.4 Z m 8.004,-7.11 a 1.614,1.614 0 0 0 -1.612,1.61 v 6.6 a 1.613,1.613 0 1 0 3.225,0 V 11.9 A 1.614,1.614 0 0 0 15.766,10.29 Z M 9.577,2 A 2.959,2.959 0 0 0 6.621,4.956 v 14.088 a 2.956,2.956 0 1 0 5.911,0 V 4.956 A 2.959,2.959 0 0 0 9.577,2 Z M 8.661,15.65 a 0.408,0.408 0 0 1 -0.342,0.452 0.469,0.469 0 0 1 0,-0.9 0.408,0.408 0 0 1 0.342,0.448 z m -0.277,1.012 a 1.11,1.11 0 0 1 0.931,0.492 2.184,2.184 0 0 1 0.409,1.206 c 0.048,0.971 -0.476,1.788 -1.168,1.822 H 8.512 c -0.673,0 -1.249,-0.75 -1.3,-1.7 a 2.187,2.187 0 0 1 0.29,-1.24 1.107,1.107 0 0 1 0.882,-0.58 z"/>

</svg>