<svg xmlns="http://www.w3.org/2000/svg" viewBox="0 0 24 24"><path fill="#44739e" d="M15.576 21.264a6.5 6.5 0 0 1-2.342.035h.033a9 9 0 0 1-3.987-2 11 11 0 0 1-3.11-8.715c.251-2.555 2.026-7.22 6.582-8.042q.117-.027.235-.049a16 16 0 0 0-1.98.148c-.233.031-.87.144-.87.144A8.15 8.15 0 0 0 6.922 4.81a9.6 9.6 0 0 0-2.584 7.4 10.83 10.83 0 0 0 6.045 9.088l1.864.076a.2.2 0 0 0 .188.181c.186.011.438.025.734.029 2 .02 2.3-.014 2.393-.132.017-.023.011-.02.009-.023a2 2 0 0 0 .005-.162Zm-1.39-18.853a6.6 6.6 0 0 0-1.194.111 7 7 0 0 0-.236.049c-3.632.806-6.384 4.643-6.384 9.252 0 5.2 3.5 9.411 7.814 9.411S22 17.02 22 11.823s-3.5-9.412-7.814-9.412m6.734 8.455a.1.1 0 0 1 0 .144.1.1 0 0 1-.085.031.11.11 0 0 1-.111-.111c0-.074.137-.12.192-.064m-.254.828a.11.11 0 0 1-.01.14.093.093 0 0 1-.159-.073c0-.1.128-.142.17-.067Zm-.11-2.419a.107.107 0 0 1-.033.189c-.059.014-.087 0-.087-.051a.2.2 0 0 0-.021-.078c-.033-.069.084-.12.141-.06m-.252 1.691a.111.111 0 0 1-.089.183.12.12 0 0 1-.1-.111c.005-.092.15-.15.192-.072Zm-.191 3.7v.023a.3.3 0 0 0 .014.061c.014.033.011.033-.03 0s-.033-.073.016-.084m-.556-3.626a.1.1 0 0 1 .043.033c.027.031.038.1.016.1s-.078-.127-.059-.127Zm-.08 2.677c0 .013-.022 0-.04-.037s-.022-.061-.013-.061.029.018.04.039a.1.1 0 0 1 .009.063Zm-.02-4.64c0 .027 0 .027-.014 0a.16.16 0 0 0-.06-.06q-.05-.026-.016-.025a.1.1 0 0 1 .063.029.1.1 0 0 1 .026.055Zm-.074.045c0 .02-.008.031-.019.024a.05.05 0 0 1-.019-.036.07.07 0 0 0-.028-.047c-.015-.014-.022-.034-.015-.045s.081.047.081.092Zm.009-.909c.033.033.04.13.011.149-.011.007-.02-.011-.02-.045a.1.1 0 0 0-.031-.08c-.028-.022-.03-.022-.018.017.028.089-.009.129-.044.049-.049-.1.022-.167.1-.089Zm-.722-.367a.09.09 0 0 1 .111.012c.034.041.006.057-.036.021s-.077-.045-.044-.009.031.128.008.126-.078-.142-.04-.161Zm.12.152c-.025.026-.028 0-.008-.056.013-.033.014-.033.022 0a.07.07 0 0 1-.022.056Zm.008 1.386a.15.15 0 0 1 .023.089c-.006.038-.011.033-.043-.031l-.044-.089c-.023-.037.032-.009.059.031Zm-.133.667a.07.07 0 0 1 .047.036c.045.086.006.105-.041.02-.033-.049-.034-.059-.011-.059Zm-.078-2.979a.14.14 0 0 1 .019.146c-.019.048-.051.034-.041-.018a.1.1 0 0 0-.025-.088l-.036-.039.022.049a.13.13 0 0 1 .007.085c-.011.027-.022.018-.05-.049-.052-.109.019-.167.1-.087Zm.03 3.632c.054.1.011.189-.088.189q-.1-.002-.1-.112c-.006-.1.139-.158.183-.079Zm-.188 1.555a.08.08 0 0 1 0 .1.1.1 0 0 1-.173-.088.1.1 0 0 1 .125-.048.1.1 0 0 1 .042.037Zm-.03-.937a.1.1 0 0 1-.067.12.1.1 0 0 1-.1-.031c-.041-.055-.038-.083.017-.136s.12-.043.144.044Zm-.2-1.41c-.138 0-.122-.216.019-.233a.2.2 0 0 1 .051.027.11.11 0 0 1 .033.154.11.11 0 0 1-.108.05Zm.082-1.555c-.054-.056-.089-.038-.053.022.024.042.027.063.011.089s-.022.032-.044-.019a1 1 0 0 0-.043-.089c-.028-.048.083-.074.128-.029a.1.1 0 0 1 .022.039c0 .011-.019 0-.035-.011Zm0 .811q-.018.016-.06-.058c-.035-.065-.036-.075-.01-.069a.12.12 0 0 1 .06.055q.023.055.006.073Zm-.107-2.87a.07.07 0 0 1 .1 0l.009.011c.062.063.02.194-.053.167s-.1-.13-.061-.164Zm-.016 1.31c.027.022.033.111 0 .111-.012 0-.012-.011-.007-.022s-.007-.045-.042-.074c-.054-.046-.011-.048.044 0Zm-.134-.01c.015-.022.059.022.078.078a.1.1 0 0 1 0 .077c-.016.034-.1-.122-.08-.144Zm.136 2.743c.029.034.029.144 0 .162-.08.048-.167.01-.167-.077a.1.1 0 0 1 .163-.084Zm-.16 1.6c-.039 0-.072-.078-.056-.136.03-.111.167-.086.178.034q0 .108-.123.108Zm-.078-.87c-.092.022-.139-.124-.055-.181.051-.037.066-.037.109 0a.1.1 0 0 1-.057.183Zm-.137-4.173c0-.05.111-.046.141.006a.1.1 0 0 1 .009.1c-.019.053-.024.056-.04.029s-.022-.027-.033-.009-.075-.083-.075-.133Zm-.011-1.335c.054-.039.138-.033.161.009a.119.119 0 0 1-.1.189c-.045 0-.054-.009-.054-.048a.2.2 0 0 0-.022-.086c-.022-.033-.022-.044.009-.064Zm.03 3.335a.11.11 0 0 1-.045.151.1.1 0 0 1-.031.011c-.075.019-.111 0-.127-.08-.033-.15.139-.22.2-.082Zm-.4 4.776c.04.048.017.148-.036.161a.09.09 0 0 1-.106-.068.09.09 0 0 1 .028-.085.075.075 0 0 1 .1-.023l.018.015Zm.043-1.173a.086.086 0 0 1-.074.154c-.044 0-.055-.016-.059-.07-.011-.1.064-.142.138-.081Zm.046 1.738a.1.1 0 0 1-.05.158.09.09 0 0 1-.117-.049v-.018c-.029-.117.108-.189.172-.091m-.066-2.291c-.058 0-.078-.027-.078-.1a.08.08 0 0 1 .07-.087.08.08 0 0 1 .07.03.091.091 0 0 1-.065.158Zm.029-1.333a.07.07 0 0 1 .092-.026l.019.015a.09.09 0 0 1 .015.127.1.1 0 0 1-.06.033c-.1.011-.133-.073-.071-.146Zm.152-.564c.057-.014.061-.013.1.025a.1.1 0 0 1 .012.142.1.1 0 0 1-.088.035c-.094 0-.116-.174-.024-.2Zm.033 1.322c.048-.033.06-.033.1.011.067.067.045.131-.051.156s-.122-.114-.052-.165Zm.138.8a.1.1 0 0 1 .022.071c0 .1-.111.133-.153.046s.06-.185.131-.114Zm-.051-2.5c-.054.01-.07.009-.089-.019-.078-.1.044-.252.133-.163a.11.11 0 0 1 0 .157.1.1 0 0 1-.039.024Zm-.111-1.469a.1.1 0 0 1 .026.081c0 .037-.011.033-.049-.036s-.031-.107.027-.047Zm-.161-2.055a.094.094 0 0 1 .128.031l.005.009c.036.07.013.15-.045.145s-.131-.158-.085-.186ZM17.41 7.47c.062-.014.075-.012.1.021s.044.147.02.161-.017-.022-.019-.059a.14.14 0 0 0-.028-.081c-.033-.02-.038-.011-.019.043s.011.091-.018.091c-.008 0-.016-.016-.016-.034a.15.15 0 0 0-.028-.071c-.033-.049-.033-.062 0-.072Zm-.024 3.607a.1.1 0 0 1 .007.133c-.034.033-.123.029-.136-.006-.039-.113.056-.2.133-.128Zm-1.474 2.036a.1.1 0 0 1-.038-.078l.026-.037.026-.049a.1.1 0 0 1 .094.017c.07.063-.023.2-.107.152m.233.277a.083.083 0 0 1-.031.112.1.1 0 0 1-.044.011c-.059.007-.085-.019-.085-.09a.082.082 0 0 1 .159-.037Zm-.5.778a.083.083 0 0 1 .079-.086.08.08 0 0 1 .08.053c.023.065 0 .111-.063.122a.08.08 0 0 1-.1-.063v-.027Zm-.1.495a.09.09 0 0 1 .027-.125.1.1 0 0 1 .052-.015c.045 0 .063.011.078.049.041.1-.108.189-.155.085Zm.141-.973a.083.083 0 0 1 .111-.039.08.08 0 0 1 .044.054.07.07 0 0 1-.018.089c-.077.083-.189 0-.137-.106Zm-.793-3.532a.1.1 0 0 1 .011-.058.087.087 0 0 1 .117-.039l.01.006a.09.09 0 0 1 .02.124 1 1 0 0 0-.122-.028Zm1.788 1.194c-.041-.111.082-.189.144-.092a.083.083 0 0 1-.066.14c-.045 0-.063-.011-.077-.048Zm.062 1a.087.087 0 0 1 .122.006l.007.008c.048.089-.05.189-.122.129a.12.12 0 0 1-.011-.14Zm.011-2.4a.082.082 0 0 1-.064-.138.07.07 0 0 1 .094-.042.1.1 0 0 1 .033.025.087.087 0 0 1 .035.118.086.086 0 0 1-.1.042Zm.065-2.4c-.022-.041-.034-.08-.028-.086s.058.022.082.067a.07.07 0 0 1 0 .064c-.011.018-.022.011-.054-.044Zm-.015 1.726a.1.1 0 0 1 .008.144.1.1 0 0 1-.063.034.1.1 0 0 1-.089-.1.1.1 0 0 1 .044-.074c.053-.042.063-.041.1-.006Zm-.022 1.027a.09.09 0 0 1-.028.126.1.1 0 0 1-.05.014c-.058 0-.078-.026-.078-.1a.081.081 0 0 1 .156-.044Zm-.141.406a.1.1 0 0 1-.062.164.08.08 0 0 1-.086-.076v-.006c0-.085.1-.135.148-.083Zm-.1 1.829c.049.078-.058.189-.129.129a.12.12 0 0 1 0-.147.1.1 0 0 1 .129.011Zm-.1-.9c0-.1.111-.134.151-.056a.092.092 0 0 1-.049.137.077.077 0 0 1-.1-.087Zm.017.483c0-.1.081-.14.141-.076a.09.09 0 0 1 0 .132.1.1 0 0 1-.027.018c-.063.03-.111 0-.111-.08Zm-.041-.867c-.089.02-.126-.111-.049-.168.053-.036.051-.036.094 0a.093.093 0 0 1-.045.162Zm-.311.191a.1.1 0 0 1 .036-.042c.051-.033.055-.035.094 0a.1.1 0 0 1 .025.133.1.1 0 0 1-.041.033.08.08 0 0 1-.092-.017c-.011-.039-.011-.073-.022-.1Zm.172-.777a.09.09 0 0 1 0 .132.1.1 0 0 1-.027.018c-.066.038-.111 0-.111-.083s.08-.143.141-.078Zm-.046-.352a.082.082 0 0 1 .16-.033c.022.064 0 .111-.064.122a.08.08 0 0 1-.1-.056.1.1 0 0 1 0-.044Zm-.07 1.563v-.008a.084.084 0 0 1 .079-.09.1.1 0 0 1 .063.023.12.12 0 0 1 .022.072c0 .1-.111.133-.155.047a.1.1 0 0 1-.009-.041m.186-1.926c-.093 0-.111-.158-.022-.193.042-.015.042-.015.078.018a.1.1 0 0 1 0 .143.1.1 0 0 1-.054.027Zm-.037-.486c-.038 0-.069-.038-.069-.1s.044-.111.085-.111a.1.1 0 0 1 .056.028.11.11 0 0 1-.023.156.1.1 0 0 1-.039.019Zm0-1.7c-.155.035-.174-.212-.017-.251a.2.2 0 0 1 .044.019.127.127 0 0 1-.026.233Zm-.049 1a.105.105 0 0 1-.052.187c-.089 0-.111-.127-.04-.175.049-.033.044-.032.091-.01Zm-.122 2.272a.084.084 0 0 1 0 .118.1.1 0 0 1-.065.022.1.1 0 0 1-.034 0 1 1 0 0 0-.044-.111l.002-.025c.038-.062.095-.06.135 0Zm-.239-.758c.048-.046.066-.046.111 0a.086.086 0 0 1 .013.121.1.1 0 0 1-.039.027c-.088.056-.162-.066-.082-.144Zm-.019-.366a.086.086 0 0 1 .082-.091.09.09 0 0 1 .08.044.083.083 0 0 1-.059.13c-.059.008-.106-.022-.106-.078Zm.052.763a.1.1 0 0 1-.007.14.1.1 0 0 1-.048.023l-.026-.041-.04-.059-.018-.023.011-.026a.087.087 0 0 1 .122-.016h.006Zm-.426-1.133c.049-.033.041-.031.081-.016a.102.102 0 0 1-.038.2.1.1 0 0 1-.086-.108.1.1 0 0 1 .042-.07Zm.051.443a.1.1 0 0 1 .128 0c.07.071-.023.205-.111.154a.12.12 0 0 1-.017-.154m.15-1.007c0-.1.08-.132.14-.067a.1.1 0 0 1 0 .137.1.1 0 0 1-.032.022c-.067.028-.111-.009-.111-.083Zm.139-1.089a.1.1 0 0 1-.176-.074.14.14 0 0 1 .1-.111.12.12 0 0 1 .066.038.1.1 0 0 1 .01.145v.005Zm-.261.726a.1.1 0 0 1-.085-.11.1.1 0 0 1 .04-.067c.049-.033.041-.031.081-.017a.102.102 0 0 1-.037.2Zm-.144.655a.092.092 0 0 1-.088-.16.083.083 0 0 1 .116-.008.11.11 0 0 1-.009.157l-.013.01Zm-.2.67a.094.094 0 0 1 0-.187.1.1 0 0 1 .062.022.1.1 0 0 1 0 .14.1.1 0 0 1-.06.028Zm-.024-1.094c-.06.017-.1-.018-.1-.091 0-.1.078-.138.14-.075a.1.1 0 0 1 .012.136.1.1 0 0 1-.053.033Zm-.065.518a.14.14 0 0 1 .022.083.083.083 0 0 1-.14.066.1.1 0 0 1-.009-.138.1.1 0 0 1 .065-.033.1.1 0 0 1 .061.026Zm.078.875a.1.1 0 0 1 .044-.064c.053-.038.058-.036.1 0a.1.1 0 0 1 0 .138h-.009a1 1 0 0 0-.111-.059Zm.307.2a.07.07 0 0 1 .02-.046.084.084 0 0 1 .12.007l.008.011a.1.1 0 0 1-.036.135l-.019-.02-.067-.064Zm.6 1.8a.11.11 0 0 1 .081-.073.1.1 0 0 1 .055.028.1.1 0 0 1 0 .143c-.058.066-.136.024-.137-.073Zm.111.711c.05-.05.1-.041.128.023.047.1-.065.191-.133.111-.044-.054-.044-.084 0-.132Zm.189.374a.1.1 0 0 1 .055.038c.061.06.038.133-.05.158-.042.012-.1-.044-.1-.1a.17.17 0 0 1 .093-.1Zm.128.491a.1.1 0 0 1-.014.144c-.059.031-.095.024-.119-.026-.044-.094.059-.186.131-.115Zm-.119.511c.041-.062.117-.06.142 0s.023.075-.011.111a.087.087 0 0 1-.131-.1Zm.142-1.373c0-.1.08-.14.14-.075a.09.09 0 0 1 0 .125.1.1 0 0 1-.035.022c-.066.034-.111.005-.111-.072Zm.291.356a.09.09 0 0 1 0 .13.1.1 0 0 1-.03.019c-.049.027-.055.026-.08-.007-.078-.1.027-.236.112-.142Zm-.027.477a.1.1 0 0 1 .128 0c.07.068-.022.2-.111.151a.12.12 0 0 1-.018-.152Zm-.1-1.888c-.034-.088.052-.171.126-.125a.13.13 0 0 1 .035.064c.024.1-.126.156-.162.059Zm.155-1.063c.053-.036.062-.036.1 0a.1.1 0 0 1 0 .135.1.1 0 0 1-.035.023.088.088 0 0 1-.067-.159Zm.122.636c.017-.044.111-.037.14.011a.094.094 0 0 1-.03.13l-.019.009c-.083.019-.124-.057-.093-.151Zm.073-.929c-.062.006-.086-.021-.086-.1a.081.081 0 0 1 .159-.028.083.083 0 0 1-.076.124Zm.017-.527c-.037-.053-.035-.08.011-.124s.086-.048.124.011c.062.093-.07.205-.136.112Zm-.046-1.2c0-.07.029-.1.094-.1a.12.12 0 0 1 .071.023.11.11 0 0 1-.011.156.1.1 0 0 1-.06.027q-.093 0-.095-.1Zm.067.666a.11.11 0 0 1 0-.151.093.093 0 0 1 .131-.007.1.1 0 0 1 .025.038c.055.107-.086.213-.156.113Zm.1-2.688c.044.044.053.159.011.144a.05.05 0 0 0-.049.012q-.026.024-.032 0a1 1 0 0 0-.044-.089c-.035-.07-.035-.07 0-.087.065-.028.07-.027.112.015ZM17.02 5.49c.057-.04.093-.031.127.029s0 .146-.063.146c-.037 0-.05-.011-.06-.051A.3.3 0 0 0 17 5.535c-.015-.014 0-.031.023-.051Zm-.05 2.634a.11.11 0 0 1 .157.006c.067.125-.053.265-.152.178a.15.15 0 0 1-.011-.193Zm-.05-.638c.034.041 0 .049-.044.009s-.031-.034-.007-.034a.1.1 0 0 1 .049.018Zm-.146-1.348c.042-.03.051-.03.1.011a.1.1 0 0 1 .037.139l-.013.017c-.022.023-.038.033-.039.02a.024.024 0 0 0-.024-.022c-.06-.008-.107-.144-.07-.171Zm-.009 2.641a.1.1 0 0 1-.057.132.1.1 0 0 1-.043.008c-.067 0-.1-.063-.085-.14a.1.1 0 0 1 .183-.007Zm-.258-3.925a.11.11 0 0 1 .137-.006.134.134 0 0 1-.031.187.1.1 0 0 1-.039.019c-.07 0-.125-.163-.069-.206Zm0 1.984q.1-.025.134.046c.023.046.011.116-.026.1-.014-.006-.025 0-.025.009 0 .042-.04.012-.07-.052l-.039-.084c-.005-.013.008-.022.026-.028Zm.071 1.325a.16.16 0 0 1 .007.172.11.11 0 0 1-.146-.013c-.064-.122.051-.253.139-.165Zm-.159-2.627a.13.13 0 0 1 .011.167c-.036.03-.111.008-.111-.033a.2.2 0 0 0-.03-.075c-.049-.084.06-.135.13-.065Zm-.3.692c.062-.033.067-.022.111.011a.15.15 0 0 1 .019.168c-.025.046-.06.049-.042 0s.007-.03-.019-.007-.034.016-.045-.03a.3.3 0 0 0-.039-.1c-.026-.041-.025-.044.015-.059ZM16.1 8.283c.046.089 0 .178-.087.178s-.111-.133-.056-.194a.09.09 0 0 1 .13-.015l.015.015Zm-.171-1.3a.09.09 0 0 1 .111 0c.022.026.041.126.022.138s-.022-.029-.017-.078c0-.014-.059-.063-.078-.063s0 .019.015.044a.1.1 0 0 1 .018.095c-.012.037-.017.033-.054-.042s-.039-.091-.014-.1Zm.036 2.415a.094.094 0 0 1 .02.132.09.09 0 0 1-.093.037c-.039 0-.087-.062-.087-.111a.18.18 0 0 1 .1-.092.1.1 0 0 1 .055.027Zm-.1-4.4a.1.1 0 0 1-.012.139.1.1 0 0 1-.029.017c-.056.012-.063.006-.094-.083-.038-.117.074-.175.137-.078Zm-.241.679c.063-.016.077-.011.111.029a.134.134 0 0 1 0 .163q-.027.025-.028 0c0-.017-.011-.015-.026-.011s-.037-.017-.057-.071c-.043-.1-.043-.106 0-.121Zm-.158.767c.02-.034.111-.027.152.009s.033.158-.007.171c-.015 0-.022 0-.013-.011s-.011-.029-.04 0-.027 0-.042-.056-.03-.08-.042-.083a.02.02 0 0 1-.011-.025m-.083.757c.044-.016.048-.015.092.02.081.065.036.229-.061.229-.123 0-.15-.2-.034-.247Zm-.019.778a.14.14 0 0 1-.011.17.1.1 0 0 1-.16-.082c0-.089.114-.149.171-.082Zm-.118-3.5a.15.15 0 0 1-.009.166c-.044.049-.12.047-.12 0a.2.2 0 0 0-.02-.075c-.039-.071.089-.145.15-.085Zm-.083.714a.14.14 0 0 1 .011.171.066.066 0 0 1-.094 0 .1.1 0 0 1-.017-.037.16.16 0 0 0-.029-.081c-.041-.062.062-.1.13-.042Zm-.16.726c.069-.018.1-.011.127.029.056.085.024.189-.053.189q-.033.002-.054-.075a.2.2 0 0 0-.037-.084c-.029-.011-.023-.037.014-.047Zm.069.822c.034.033.04.129.009.149s-.019 0-.013-.045a.09.09 0 0 0-.026-.091c-.04-.036-.066-.022-.031.015a.08.08 0 0 1 .022.053v.052c0 .036-.04.027-.04-.011a.15.15 0 0 0-.031-.075c-.053-.064.047-.1.111-.041Zm-.055.807c.062.089.027.184-.067.184-.063 0-.1-.041-.1-.111a.093.093 0 0 1 .167-.075Zm-.061.738a.1.1 0 0 1 .017.137.1.1 0 0 1-.067.037q-.085.002-.086-.111c0-.076.071-.125.136-.069Zm-.164.722a.09.09 0 0 1 .123-.02.09.09 0 0 1 .02.122.09.09 0 0 1-.07.037.089.089 0 0 1-.073-.145Zm-.041.7a.074.074 0 0 1 .092-.048.07.07 0 0 1 .048.048.09.09 0 1 1-.138 0Zm-.044.4a.1.1 0 0 1 0 .035 1 1 0 0 0-.111.006h-.037c-.034-.073 0-.138.069-.138a.1.1 0 0 1 .064.022.1.1 0 0 1 .024.073Zm-1.587 3.085a.1.1 0 0 1-.009-.133l.009-.009a.08.08 0 0 1 .11-.009.092.092 0 0 1-.11.147Zm.056 1.918c-.026 0-.072-.07-.072-.112a.18.18 0 0 1 .094-.092.12.12 0 0 1 .056.038.1.1 0 0 1-.01.136.1.1 0 0 1-.066.024Zm-1.5-4.918a.11.11 0 0 1-.011.157l-.02.013c-.062.035-.111.014-.135-.061a.1.1 0 0 1 .166-.114Zm-.273-.545a.095.095 0 0 1 .161-.055.125.125 0 0 1 0 .164.1.1 0 0 1-.145-.017.1.1 0 0 1-.017-.1Zm.255 1.839a.14.14 0 0 1 .056.038.085.085 0 0 1 .017.118l-.015.015a.089.089 0 0 1-.159-.066.15.15 0 0 1 .095-.11Zm.078 2.759a.11.11 0 0 1 0 .157l-.008.008c-.083.058-.153.018-.153-.087a.094.094 0 0 1 .161-.083Zm-.138-1.85a.08.08 0 0 1 .075-.087h.011a.1.1 0 0 1 .062.022.1.1 0 0 1 0 .14.1.1 0 0 1-.07.027c-.053-.007-.074-.036-.074-.108Zm.1-1.6a.086.086 0 0 1 .077-.095.1.1 0 0 1 .07.025.15.15 0 0 1 .017.089c-.011.114-.167.1-.167-.024Zm.1 2.342a.082.082 0 0 1 .145-.007.11.11 0 0 1-.044.147.091.091 0 0 1-.1-.145Zm.06-1.145a.085.085 0 0 1 .075-.1.09.09 0 0 1 .087.049c.029.044.029.05 0 .093a.085.085 0 0 1-.114.04.08.08 0 0 1-.048-.082m.207-2.537c.064.113-.084.224-.155.125a.16.16 0 0 1-.031-.078.1.1 0 0 1 .088-.11.1.1 0 0 1 .1.054Zm-.013-.626a.11.11 0 0 1 0 .157.1.1 0 0 1-.133.006c-.089-.116.026-.27.133-.175Zm-.06 2.529a.09.09 0 0 1-.092-.09.1.1 0 0 1 .014-.05.09.09 0 0 1 .123-.032.1.1 0 0 1 .033.032.09.09 0 0 1-.035.124.1.1 0 0 1-.043.012Zm-.022-1.333a.084.084 0 0 1 .113-.042.1.1 0 0 1 .042.042c.025.065.022.076-.011.111a.093.093 0 1 1-.144-.119Zm.2.458a.1.1 0 0 1 .062.023.1.1 0 0 1-.007.14.1.1 0 0 1-.053.025.1.1 0 0 1-.084-.105.1.1 0 0 1 .084-.083Zm.033-2.877-.034-.083c-.012-.028.034-.011.06.027s.04.127.015.127a.3.3 0 0 1-.045-.076Zm.124 4a.1.1 0 0 1-.018.129.087.087 0 0 1-.122-.024l-.006-.01c-.051-.114.078-.2.145-.1Zm-.176 2.228c.054-.038.059-.037.1.006a.1.1 0 0 1 0 .136.1.1 0 0 1-.032.022.1.1 0 0 1-.066-.175Zm.069-.364c-.044-.054-.044-.091 0-.136a.077.077 0 0 1 .105-.02.1.1 0 0 1 .026.031c.059.09-.058.209-.126.12Zm.049-1.067c-.093 0-.111-.153-.022-.185a.076.076 0 0 1 .105.025l.006.012a.094.094 0 0 1-.029.13.1.1 0 0 1-.06.014Zm.083-1.29a.087.087 0 0 1-.072-.14.08.08 0 0 1 .108-.043.08.08 0 0 1 .043.043.09.09 0 0 1-.035.124.1.1 0 0 1-.042.011Zm.963-2.076c0-.087.063-.129.134-.091a.13.13 0 0 1 .014.164.09.09 0 0 1-.124 0 .1.1 0 0 1-.024-.077Zm.056 1.458c-.067.036-.111 0-.111-.081 0-.1.075-.139.14-.069a.093.093 0 0 1-.009.132l-.021.014Zm0-2.527c-.093.024-.154-.085-.1-.182.03-.055.133-.041.163.025a.11.11 0 0 1-.05.148h-.011Zm.009 1.471a.14.14 0 0 1 .015.089.077.077 0 0 1-.149.025c-.045-.1.066-.2.134-.114m-.085.444a.1.1 0 0 1 .063.022.1.1 0 0 1-.063.165.094.094 0 0 1 0-.187m-.168-1.391a.11.11 0 0 1-.109-.113.1.1 0 0 1 .031-.076.087.087 0 0 1 .119-.018c.089.04.056.207-.033.207Zm.05 2.267a.08.08 0 0 1-.032.112.1.1 0 0 1-.042.01q-.087.012-.085-.091a.08.08 0 0 1 .07-.091.08.08 0 0 1 .089.06m-.244.573a.094.094 0 1 1 0-.187.1.1 0 0 1 .062.023.1.1 0 0 1-.062.164m-.025.463c-.091.07-.184-.061-.111-.149.039-.041.071-.043.111 0a.1.1 0 0 1 .008.141Zm.064-1.322a.1.1 0 0 1-.045-.176c.053-.038.111 0 .125.072s-.025.1-.08.1Zm-.083-.468c-.058 0-.093-.076-.064-.14a.084.084 0 0 1 .111-.041.1.1 0 0 1 .04.041.09.09 0 0 1-.024.125.1.1 0 0 1-.059.015Zm.068-.508c-.085.086-.2-.059-.116-.149.036-.039.052-.042.1-.014a.13.13 0 0 1 .013.163m-.151 1.419c-.056.084-.156.043-.156-.063a.09.09 0 0 1 .095-.08.09.09 0 0 1 .072.05.075.075 0 0 1 0 .093Zm-.2.4a.1.1 0 0 1 .063.022.1.1 0 0 1-.007.14.1.1 0 0 1-.055.025.094.094 0 0 1 0-.187Zm-.1-.888c0-.081.1-.134.148-.08a.111.111 0 0 1-.069.183c-.033 0-.077-.058-.077-.1Zm.2-2.062a.1.1 0 0 1-.133.011c-.1-.111.022-.266.128-.17a.11.11 0 0 1 .006.157Zm-.1-1.355c-.009 0-.018 0-.019-.022s0-.031-.007-.047l-.008-.035a.04.04 0 0 0-.029-.027c-.022-.008-.022 0-.006.042.039.1 0 .133-.049.039-.027-.053-.033-.089-.022-.1a.11.11 0 0 1 .116.009c.027.033.041.122.023.138Zm0 1.8c.061.111-.087.222-.159.122a.11.11 0 0 1 0-.15.1.1 0 0 1 .136-.009.1.1 0 0 1 .026.037Zm-.178.525c.044-.033.063-.033.105.006.064.055.03.174-.048.174a.1.1 0 0 1-.092-.112.1.1 0 0 1 .036-.068Zm.015.678c-.071-.1.019-.222.112-.156a.113.113 0 0 1-.012.157l-.022.014c-.039.016-.046.014-.074-.016Zm.2 1.879a.15.15 0 0 1 .022.085.083.083 0 0 1-.166 0 .086.086 0 0 1 .146-.085Zm.061.556a.1.1 0 0 1 .019.14.1.1 0 0 1-.03.026c-.061.014-.055.014-.092-.02a.094.094 0 0 1 .105-.155Zm.029 1.5q.028.103-.055.128c-.055.017-.111-.019-.111-.094s.146-.118.166-.031Zm-.027-.347c-.033 0-.077-.058-.077-.1a.086.086 0 0 1 .074-.1.1.1 0 0 1 .059.013.107.107 0 0 1-.051.189Zm.054-.589a.09.09 0 0 1 .118-.039.1.1 0 0 1 .033.029.1.1 0 0 1-.024.133.1.1 0 0 1-.062.017c-.055 0-.089-.066-.062-.136Zm.139-.719a.1.1 0 0 1-.08-.121.1.1 0 0 1 .021-.044c.033-.032.122-.028.137.008.036.089 0 .16-.074.16Zm.116.281a.089.089 0 0 1 .058.16.1.1 0 0 1-.068.026c-.052 0-.073-.029-.073-.1a.08.08 0 0 1 .076-.084H13Zm.039.888a.08.08 0 0 1 .113-.008.1.1 0 0 1 .018.023.09.09 0 0 1-.016.129.092.092 0 0 1-.115-.144m.045-1.525a.08.08 0 0 1 .065-.094.08.08 0 0 1 .079.031.11.11 0 0 1-.019.156.1.1 0 0 1-.048.021c-.032 0-.073-.061-.073-.111Zm.128-.309c-.093.031-.147-.085-.077-.161.036-.04.062-.042.111-.01a.11.11 0 0 1-.008.157.1.1 0 0 1-.026.018Zm-.015-.488a.16.16 0 0 1 .093-.1.13.13 0 0 1 .058.037c.044.045.047.072.008.127a.092.092 0 0 1-.156-.062Zm.189-.389a.09.09 0 0 1 .118-.037.1.1 0 0 1 .031.027.1.1 0 0 1-.024.133.1.1 0 0 1-.062.017c-.056 0-.089-.067-.062-.137Zm.142-2.132a.1.1 0 0 1-.006-.144.1.1 0 0 1 .061-.032.1.1 0 0 1 .061.022.11.11 0 0 1-.018.155c-.05.039-.056.039-.1 0ZM14 10.384a.065.065 0 0 1-.077-.01.1.1 0 0 1 0-.14.1.1 0 0 1 .046-.025.1.1 0 0 1 .062.022.11.11 0 0 1-.013.149Zm-.061-.5a.083.083 0 0 1 .071-.094.1.1 0 0 1 .059.014.11.11 0 0 1 .027.134.086.086 0 0 1-.159-.054Zm.234-.325c-.06.029-.089.015-.111-.049-.036-.1.1-.187.149-.093a.1.1 0 0 1-.038.133Zm-.169-.686c-.089.04-.164-.091-.093-.161a.08.08 0 0 1 .112-.01.1.1 0 0 1 .021.026.092.092 0 0 1-.041.145Zm-.262-.717a.11.11 0 0 1 0-.15.093.093 0 0 1 .156.031c.057.112-.083.22-.154.119Zm.111.992a.1.1 0 0 1 0 .136.1.1 0 0 1-.034.023c-.067.023-.111-.011-.111-.094s.085-.131.145-.065m-.111.437a.11.11 0 0 1-.012.157l-.021.014c-.045.016-.06.013-.083-.017-.069-.1.019-.222.114-.154Zm-.164.471a.08.08 0 0 1 .107-.045.1.1 0 0 1 .045.045.08.08 0 0 1-.007.094c-.067.1-.2.016-.144-.094Zm.045.387a.087.087 0 0 1 .123.007v.006c.051.1-.045.222-.122.14a.13.13 0 0 1-.009-.155Zm.622-.2a.11.11 0 0 1-.01-.156c.039-.044.071-.044.111-.007a.1.1 0 0 1 .02.117l-.072.026Zm.247-.426c-.049.111-.2.018-.156-.091a.085.085 0 0 1 .111-.045.1.1 0 0 1 .045.045.1.1 0 0 1 0 .091m.073-.326a.126.126 0 0 1-.018-.165.087.087 0 0 1 .123.007l.005.007c.047.091-.03.2-.111.151Zm.017-.7a.092.092 0 0 1-.069-.149.073.073 0 0 1 .097-.044.08.08 0 0 1 .044.044.093.093 0 0 1-.018.129.1.1 0 0 1-.051.019Zm-.014-.707a.111.111 0 0 1-.08-.184.09.09 0 0 1 .124-.011.1.1 0 0 1 .025.034c.042.078.011.156-.069.161m-.044-.743c-.093 0-.133-.136-.069-.222a.122.122 0 1 1 .068.222Zm.048-.879c-.017-.023-.027-.012-.037.011s-.022.011-.058-.067-.04-.1-.022-.111a.1.1 0 0 1 .135.027c.048.072.034.173-.018.13Zm-.051-.764c-.044 0-.057-.011-.08-.075-.036-.1-.037-.1.049-.119a.14.14 0 0 1 .054.028c.067.046.052.166-.023.166m-.094-.9c.044-.033.062-.031.1.006.063.056.025.187-.05.172-.055-.01-.1-.149-.054-.178m-.038 4.2a.1.1 0 0 1-.006.146.1.1 0 0 1-.025.017c-.067.025-.11-.011-.11-.092s.081-.133.142-.071Zm-.111-.544c-.052.032-.061.032-.1 0a.1.1 0 0 1-.01-.144.087.087 0 0 1 .127-.014.11.11 0 0 1-.016.152Zm-.05-.881c.069.106-.067.238-.147.141a.12.12 0 0 1-.011-.161.1.1 0 0 1 .14 0 .1.1 0 0 1 .018.023Zm-.105-.795c.034.064.024.122-.019.1a.03.03 0 0 0-.038.022c-.009.025-.1-.111-.1-.158a.4.4 0 0 1 .111-.023.13.13 0 0 1 .05.056Zm-.111-.816a.1.1 0 0 1 .034.112c-.012.061-.048.1-.059.071a.023.023 0 0 0-.029-.009c-.019.007-.033-.023-.081-.162-.01-.029.011-.043.074-.052a.15.15 0 0 1 .059.045Zm-.094-.588a.07.07 0 0 1-.105-.054.1.1 0 0 0-.028-.057c-.039-.034-.036-.047.014-.071s.057-.027.1.006a.13.13 0 0 1 .016.179Zm-.063-.889a.11.11 0 0 1 0 .152c-.036.051-.122.051-.122 0a.2.2 0 0 0-.021-.072c-.042-.069.069-.133.14-.07Zm-.136 2.755a.13.13 0 0 1 0 .185.13.13 0 0 1-.077.037c-.092 0-.133-.166-.055-.222a.082.082 0 0 1 .131.008Zm-.238-.8a.07.07 0 0 1 .084.056c.029.067.011.139-.034.122a.04.04 0 0 0-.044.011c-.009.017-.018 0-.028-.031a.3.3 0 0 0-.039-.093c-.031-.05-.016-.065.061-.065m-.232-.75a.094.094 0 0 1 .118.014c.051.051.031.167-.028.167s-.133-.155-.089-.182Zm-.153-.711a.083.083 0 0 1 .129.04c.029.069 0 .133-.064.133s-.111-.144-.066-.173Zm-.045 2.019a.11.11 0 0 1 .112.011c.037.024.057.131.022.12a.05.05 0 0 1-.022-.044.07.07 0 0 0-.019-.049c-.04-.029-.047-.011-.018.044s.028.062 0 .087-.029.022-.04-.029a.2.2 0 0 0-.04-.08c-.042-.03-.036-.051 0-.06Zm-.018 1.84a.13.13 0 0 1-.014.16c-.05.026-.07.025-.1-.009a.1.1 0 1 1 .118-.156Zm-.251-2.59c.02-.026.114-.016.146.016a.13.13 0 0 1 .006.166q-.027.035-.028.012a.017.017 0 0 0-.016-.019h-.008c-.023.009-.11-.15-.1-.176Zm.093 1.35a.123.123 0 0 1 .026.172.13.13 0 0 1-.091.05.12.12 0 0 1-.109-.133.12.12 0 0 1 .041-.08c.061-.056.071-.056.135-.009Zm-.342-2.047c.066-.052.1-.056.147-.011a.12.12 0 0 1 .008.168l-.008.007c-.05.034-.119.008-.1-.039a.1.1 0 0 0-.019-.075c-.02-.022-.031-.05-.027-.05Zm-.158-.691a.08.08 0 0 1 .11-.009.15.15 0 0 1 0 .165c-.074.06-.177-.089-.111-.156Zm-.053 2.68c0 .027-.009.022-.049-.022s-.036-.04.007-.018c.022.013.041.031.041.041Zm-.175-1.388c.064-.017.078-.014.111.027a.11.11 0 0 1 0 .143c-.038.031-.085 0-.116-.069s-.034-.092.005-.1Zm-.022 2a.126.126 0 0 1 .018.2c-.056.055-.092.059-.142.009-.1-.092.013-.279.124-.206Zm-.289-2.654a.09.09 0 0 1 .124.011c.045.082.014.161-.053.137s-.1-.118-.072-.149Zm.035 1.308a.08.08 0 0 1 .055.023c.027.035.035.131.009.137s-.02-.007-.02-.022a.1.1 0 0 0-.013-.041c-.008-.007-.015.009-.015.037 0 .089-.024.066-.111-.1 0-.009.04-.024.1-.027Zm-.152.745c.023.036.022.111 0 .111s-.015-.014-.015-.034-.009-.038-.02-.038-.016.016-.01.033a.1.1 0 0 1-.009.072q-.031.041-.029.007a.3.3 0 0 0-.037-.1.2.2 0 0 1-.027-.076.2.2 0 0 1 .157.029Zm-.293-1.363c.02-.033.119-.017.139.019.041.076 0 .184-.059.16-.031-.009-.1-.152-.077-.178Zm.095 2.181c-.011.03-.087-.089-.087-.137 0-.022.045.013.068.056a.1.1 0 0 1 .012.084Zm.011.562a.18.18 0 0 1 .012.189.13.13 0 0 1-.165-.015c-.072-.128.049-.266.153-.172Zm-.08 2.1a.111.111 0 0 1-.06.194q-.088 0-.087-.1c0-.105.09-.153.157-.089Zm-.363-1.18a.17.17 0 0 1-.009.189c-.088.066-.178.016-.178-.1a.111.111 0 0 1 .191-.088Zm-.192-.6-.043-.088c-.02-.036.036-.008.063.033a.14.14 0 0 1 .023.089c-.008.036-.011.033-.043-.034m.2 1.242a.1.1 0 0 1 .162.011.106.106 0 0 1-.021.147.1.1 0 0 1-.038.018c-.092.03-.158-.08-.107-.176Zm.17 1.444a.11.11 0 0 1 .146-.014.15.15 0 0 1-.009.166c-.089.094-.206-.035-.14-.155Zm-.037-4.865q-.027-.022-.026 0c0 .04-.033.022-.053-.03l-.031-.083a.027.027 0 0 1 .022-.039c.065-.016.079-.01.111.03.05.07.034.169-.022.124Zm-.011-1.488c.028.025.031.12.005.133a.02.02 0 0 1-.029 0c-.008-.02-.021-.011-.036.011s-.034.023-.055-.033c-.031-.1.045-.178.111-.11Zm-.267 2.081c.06-.013.069-.012.105.02s.047.147.015.167c-.011 0-.014 0-.008-.019.016-.039-.011-.037-.041 0s-.019.025-.044-.025a1 1 0 0 0-.048-.089c-.024-.036-.023-.04.015-.054Zm.011.778c-.036.009-.062 0-.052-.019.031-.049.084.018.057.071a1 1 0 0 0-.039.089c-.011.033-.015.031-.031-.019a.3.3 0 0 0-.047-.087c-.039-.044 0-.062.058-.025q.046.03.059.011c.009-.012-.005-.019-.014-.019Zm-.239-2.089c.045-.033.058-.031.1.013a.086.086 0 0 1 .021.118l-.015.015q-.038.036-.017-.016c.013-.036-.023-.058-.043 0-.013.033-.017.031-.049-.034s-.032-.073 0-.1m.083 4.498a.16.16 0 0 1 .042.067c.045.111-.088.222-.17.142-.1-.1.014-.282.127-.209Zm-.743-4.172a.05.05 0 0 0 .052.016q.022-.013-.022-.03c-.029-.011-.04-.02-.019-.034a.054.054 0 0 1 .071.026v.022c0 .013-.017.03-.037.037s-.038.024-.038.039c0 .049-.033.026-.044-.034s-.008-.082.033-.042Zm-.166.82c.018.014.03.033.023.039s-.092-.029-.092-.052.027-.015.069.014Zm-.112 0c.018-.02.074.044.072.086 0 .065-.042.058-.064-.011a.2.2 0 0 1-.01-.073Zm.042.9c.024.065.023.067-.018.056a.034.034 0 0 0-.046.015c-.015.043-.043.036-.055-.013a.4.4 0 0 0-.023-.082c-.024-.082.113-.059.145.027ZM9.2 8.027a.1.1 0 0 1 0 .037.16.16 0 0 1-.038-.077c0-.034.03 0 .04.044Zm-.889 3.141q.036-.067.1-.015a.125.125 0 0 1-.012.17c-.077.049-.143-.064-.1-.152Zm.154 1.848c-.052.028-.092.007-.106-.055-.022-.1.058-.17.12-.112a.13.13 0 0 1-.018.17Zm.256-.889c-.039.058-.111.065-.143.012-.069-.126.078-.236.149-.112a.08.08 0 0 1-.009.1Zm0-1.666c-.033-.044-.038-.072-.005-.062a.06.06 0 0 1 .028.053c0 .053 0 .054-.028.018Zm.306.733a.2.2 0 0 1 .044.067c.038.1-.081.2-.153.131-.1-.089-.008-.259.1-.189Zm.082 1.714a.109.109 0 1 1 0-.17.18.18 0 0 1 0 .178Zm-.022-4.027c0-.022.041 0 .058.031a.1.1 0 0 1 .009.07c-.011.027-.066-.059-.066-.1Zm.14.988c-.015.016-.08-.12-.069-.141q.018-.03.059.009a.14.14 0 0 1 .011.133ZM9.3 12.11c-.009 0-.021-.015-.026-.034l-.022-.064c-.017-.038.009-.044.042-.011s.031.109.006.109m-.012-2.312q-.013-.07.006-.038a.2.2 0 0 1 .019.073c0 .06-.01.041-.025-.039Zm.1 4.526c0 .04-.009.038-.039-.022-.043-.082-.029-.111.023-.048a.1.1 0 0 1 .016.067Zm0-3.63c-.01 0-.027-.027-.041-.06s-.02-.051-.032-.075c0-.008.044-.016.068.008s.036.134.011.134Zm.1 2.819c-.01.027-.067-.059-.067-.1 0-.024.04 0 .058.03a.1.1 0 0 1 .014.067Zm.148-2.2a.11.11 0 0 1 .027.089c-.007.052-.008.051-.049-.03-.05-.111-.04-.136.028-.062Zm.078 1.455c-.01.027-.019.02-.048-.033-.061-.12-.037-.172.027-.064a.13.13 0 0 1 .027.085Zm.041-3.443c-.022.02-.03.015-.041-.033a.13.13 0 0 0-.03-.076c-.028-.02-.02-.045.016-.055l.039-.011a.2.2 0 0 1 .044.02c.037.019.037.022 0 .047s-.032.027 0 .017.039 0 .031.048-.013.051-.022.033-.011-.015-.031 0Zm.111.835-.013-.037a1 1 0 0 0-.041-.089c-.047-.091.044-.129.111-.05.034.039.034.04 0 .07a.16.16 0 0 0-.049.069Zm.139 1.855c.035.084 0 .094-.049.012s-.049-.086-.007-.078a.15.15 0 0 1 .051.069Zm-.1 2.813-.023-.056c-.018-.039.027-.026.048.011a.2.2 0 0 1 .019.058c0 .033-.031.025-.043-.011Zm.055.817c-.033-.057-.036-.08 0-.07.012 0 .026.034.028.063v.055Zm.048-1.569c-.018 0-.078-.1-.078-.133s.037-.012.065.047.05.089.026.089Zm.07-3.255c-.007.048-.008.047-.043-.025L10 10.698c0-.008 0-.014.022-.014a.07.07 0 0 1 .05.038.2.2 0 0 1 .016.091Zm.085 2.507c-.01 0-.032-.03-.05-.066q-.046-.094.019-.05c.044.028.056.119.034.119Zm.112-1.966c0-.009 0-.011.022 0a.1.1 0 0 1 .049.045c.022.04.024.092 0 .092s-.027-.028-.041-.061-.023-.067-.028-.075Zm.025-1.858c.02-.031.059-.016.081.031s.029.122 0 .122-.024-.022-.03-.046a.13.13 0 0 0-.038-.067.04.04 0 0 1-.011-.038Zm.089 3.143c-.02 0-.078-.133-.06-.133s.029.02.044.044c.046.045.054.092.03.09Zm-.005-3.736c-.009 0-.01-.015 0-.034s.011-.028-.026 0-.04.034-.077-.044a.3.3 0 0 1-.03-.094c.011-.02.111-.016.133 0a.04.04 0 0 1 .024.048c-.008.019 0 .024.011.015s.022 0 .022.016c0 .042-.026.089-.044.089Zm.039-.8c-.018.016-.021.008-.011-.037a.13.13 0 0 0-.015-.094c-.029-.037-.062-.024-.037.015a.2.2 0 0 1 .018.059c0 .063-.028.052-.067-.025l-.039-.075.042-.017a.094.094 0 0 1 .126.092.13.13 0 0 1-.017.078Zm.137-.966a.12.12 0 0 1 .033.133c-.021.054-.055.038-.044-.02v-.039l-.019.043c-.027.061-.048.052-.082-.034s.039-.16.107-.082Zm-.033 3.073c.024.012.042.03.038.043l-.018.077-.012.056-.043-.084c-.049-.112-.049-.128.033-.092Zm-.008 4.988q-.08-.149.008-.064a.12.12 0 0 1 .028.078c0 .05 0 .05-.036-.014m0-.778c-.044-.08-.045-.087-.007-.073a.1.1 0 0 1 .048.058c.027.077-.006.088-.043.018Zm.13 1.592c0 .025-.014.02-.038-.028s-.019-.082.022-.033a.07.07 0 0 1 .013.064Zm.006-2.266c-.009 0-.028-.022-.046-.056-.03-.063-.018-.088.02-.042s.036.089.024.1Zm-.055-1.641c-.1-.12.035-.289.148-.178a.13.13 0 0 1 0 .181.14.14 0 0 1-.063.035c-.033.013-.054 0-.088-.036Zm.222 4.665c-.018-.031-.024-.055-.014-.055s.026.016.037.037c.029.064.007.078-.029.015Zm.051-3.582c-.1.038-.16-.006-.16-.111a.11.11 0 0 1 .1-.119.1.1 0 0 1 .06.013c.063.045.06.193-.008.218Zm.079-1.748a.083.083 0 0 1 .118-.016.11.11 0 0 1 .039.152.11.11 0 0 1-.1.055.11.11 0 0 1-.1-.121.1.1 0 0 1 .031-.068Zm.049.966c.05-.033.044-.033.092-.009a.11.11 0 0 1 .053.148.12.12 0 0 1-.069.059c-.109.04-.176-.131-.077-.2Zm.09 2.28a.12.12 0 0 1 .038.073c0 .033-.007.028-.038-.023-.054-.08-.054-.092-.006-.049Zm.08.831c-.021 0-.082-.131-.062-.131s.031.019.046.042c.026.045.034.091.011.089Zm-.027-1.3c-.094 0-.135-.175-.054-.233a.2.2 0 0 1 .061-.028.2.2 0 0 1 .062.029.135.135 0 0 1 .011.19.14.14 0 0 1-.08.043Zm.13 2.005c-.043-.07-.044-.078-.02-.078s.028.015.038.034c.04.068.022.106-.018.038Zm-.011-2.658c-.1 0-.124-.151-.032-.2.044-.026.046-.026.1.008a.11.11 0 0 1 .009.157.1.1 0 0 1-.072.037Zm.124-.748c.045-.044.081-.047.12-.011a.111.111 0 0 1-.063.2.1.1 0 0 1-.1-.11.1.1 0 0 1 .043-.079m.156 4.188c-.01 0-.027-.022-.039-.049-.022-.049-.008-.061.031-.022s.03.066.007.066Zm.011-2.033a.12.12 0 0 1 .111-.12.1.1 0 0 1 .084.041.116.116 0 1 1-.2.08Zm.211.683c-.009 0-.026-.022-.038-.046-.025-.056 0-.065.034-.011s.028.057.007.057Zm-.111-1.849c-.062-.111.04-.237.135-.164a.14.14 0 0 1 .045.073c.022.1-.136.178-.181.091Zm.189 3.825c0-.022.022-.014.048.019a.1.1 0 0 1 .025.061c0 .028-.074-.05-.075-.08Zm.111-1.3c0 .02-.017.011-.039-.026-.033-.058-.019-.078.022-.029a.07.07 0 0 1 .014.055Zm.044-3.7c.048-.034.054-.034.085-.014a.106.106 0 0 1 .031.145.1.1 0 0 1-.074.046.1.1 0 0 1-.04-.175m.1 1.758a.1.1 0 0 1 .139 0c.073.089-.046.244-.13.171a.124.124 0 0 1-.009-.171m.03.691c-.01-.111.083-.167.156-.087a.113.113 0 0 1-.013.157l-.018.012q-.113.056-.127-.082Zm.111 1.97c-.008 0-.03-.025-.048-.055-.038-.067-.01-.078.034-.016s.038.071.016.071Zm.175-1.263a.11.11 0 0 1-.157 0c-.07-.129.051-.267.153-.176a.15.15 0 0 1 .007.182Zm.068-2.793c-.049.047-.112.049-.133 0-.054-.1.034-.211.117-.147a.09.09 0 0 1 .028.127l-.008.015Zm.05 3.3c-.019-.026-.026-.045-.015-.045s.029.016.04.038c.031.055.016.059-.024 0Zm.053 1.382c-.036-.047-.037-.075 0-.044a.1.1 0 0 1 .028.051c0 .022-.005.022-.027-.007Zm.013-3.232c.06-.041.119 0 .119.086 0 .051-.01.066-.051.081a.09.09 0 0 1-.067-.167Zm.128.738q-.099.002-.1-.1c0-.069.03-.1.1-.1a.12.12 0 0 1 .072.022.11.11 0 0 1-.011.157.1.1 0 0 1-.06.027Zm.123 1.747a.2.2 0 0 1-.028-.056c0-.011.014 0 .028.018a.13.13 0 0 1 .028.056c0 .011-.011 0-.027-.018Zm.037-1.162c-.081 0-.118-.149-.049-.2a.08.08 0 0 1 .112 0l.01.014a.11.11 0 0 1-.005.157.12.12 0 0 1-.068.029m.089-1.71c-.05-.111.079-.2.145-.1a.093.093 0 0 1-.018.129.09.09 0 0 1-.123-.021l-.01-.017Zm.06.383c.051-.049.089-.047.124.009a.084.084 0 0 1 0 .119.1.1 0 0 1-.034.021.092.092 0 0 1-.095-.156Zm.034 1.895a.124.124 0 0 1 0-.175.12.12 0 0 1 .073-.036q.066 0 .085.033c.063.122-.059.262-.16.172Zm.2 1.222c-.035-.062-.033-.095 0-.048a.13.13 0 0 1 .027.066q-.007.027-.032-.02Zm.124-1.925q-.1 0-.1-.1c0-.066.029-.1.1-.1a.12.12 0 0 1 .071.022.11.11 0 0 1-.014.157.1.1 0 0 1-.063.026Zm.111-1.772a.15.15 0 0 1 .023.084.084.084 0 0 1-.083.084.091.091 0 1 1 .052-.169Zm.012-.444a.094.094 0 0 1 0 .133l-.023.018c-.062.04-.111.015-.111-.064-.022-.093.061-.147.123-.085Zm-.1.979c0-.059.031-.093.084-.093a.089.089 0 0 1 .055.162.1.1 0 0 1-.055.025.083.083 0 0 1-.092-.091Zm.278.4a.1.1 0 0 1-.062.166.08.08 0 0 1-.085-.074v-.014a.085.085 0 0 1 .139-.076Zm.167-.471c-.031 0-.087-.069-.087-.111a.083.083 0 0 1 .152-.061.1.1 0 0 1-.074.175Zm.211.266c.07.069-.022.2-.111.151a.11.11 0 0 1-.021-.147.1.1 0 0 1 .124 0Zm-.24-.722c-.066.034-.111 0-.111-.073 0-.1.076-.141.141-.075a.1.1 0 0 1-.011.136.1.1 0 0 1-.027.016Zm-.246 2.252c-.061-.111.027-.222.133-.169.027.015.037.039.037.092-.008.108-.133.164-.178.079Zm.188-.844a.09.09 0 0 1 .122-.019l.006.005a.1.1 0 0 1-.007.14.1.1 0 0 1-.055.025c-.083 0-.116-.07-.073-.149Zm.105 2.028c-.037-.048-.037-.076 0-.044a.08.08 0 0 1 .029.051c-.009.026-.015.024-.037 0Zm.145-.633c-.133.03-.166-.2-.044-.24.044-.017.044-.016.089.02a.126.126 0 0 1-.062.222Zm.134-.778a.087.087 0 0 1-.121-.028.1.1 0 0 1-.013-.036c-.033-.111.111-.189.167-.092a.1.1 0 0 1-.019.14.1.1 0 0 1-.03.015Zm-.056-1.97a.1.1 0 0 1 .12 0c.071.069-.022.2-.1.152a.12.12 0 0 1-.023-.152Zm.173 1.222c-.081.086-.186.011-.144-.1a.087.087 0 0 1 .117-.037.1.1 0 0 1 .043.052.07.07 0 0 1-.018.091Zm-.007-.667a.12.12 0 0 1-.023-.148.1.1 0 0 1 .128 0c.07.067-.022.2-.105.152Zm.1 3.31c-.036-.048-.036-.075 0-.044a.08.08 0 0 1 .03.051q.002.039-.029 0Zm.037-.811a.07.07 0 0 1-.027-.044c0-.011.011-.008.027 0a.07.07 0 0 1 .029.043q0 .014-.028 0Zm-.011-.666a.1.1 0 0 1-.006-.144.087.087 0 0 1 .122-.027.1.1 0 0 1 .031.033c.07.105-.067.237-.147.14Zm.136-.733c-.067.033-.111 0-.111-.078s.111-.144.151-.067a.1.1 0 0 1-.028.136l-.012.007Zm.033-.7c-.093.051-.167-.1-.081-.163.047-.033.059-.031.1.015a.086.086 0 0 1 .01.122.1.1 0 0 1-.034.024Zm0-.7c-.049 0-.064-.017-.074-.055-.03-.111.111-.183.153-.078.033.08 0 .139-.078.133Zm.118-.4a1.4 1.4 0 0 1-.2-.018.1.1 0 0 1-.071.044c-.029 0-.062-.04-.074-.08a1 1 0 0 1-.189-.077.1.1 0 0 1-.06.024q-.085.011-.084-.091v-.016a1.4 1.4 0 0 1-.161-.127.08.08 0 0 1-.1.02.12.12 0 0 1-.026-.145 2 2 0 0 1-.126-.164.078.078 0 0 1-.141-.007.1.1 0 0 1 .045-.135h.008a2 2 0 0 1-.1-.2.1.1 0 0 1-.06.042c-.088.027-.144-.129-.066-.175.037-.02.051-.022.075 0a2 2 0 0 1-.072-.285q-.002.069-.084.078c-.054.005-.085-.019-.085-.089a.08.08 0 0 1 .063-.1.08.08 0 0 1 .1.063 2 2 0 0 1-.03-.366 2.04 2.04 0 0 1 .433-1.289 2.05 2.05 0 0 0-.408 1.26 2 2 0 0 0 .029.366l.007.036a2 2 0 0 0 .071.283q.023.071.05.139a2 2 0 0 0 .1.2 1 1 0 0 0 .089.144 2 2 0 0 0 .126.164 2 2 0 0 0 .124.125 1.4 1.4 0 0 0 .161.127c.047.03.1.057.144.082a1.3 1.3 0 0 0 .188.078 1.2 1.2 0 0 0 .5.041 1 1 0 0 0 .189-.045 1 1 0 0 0 .156-.059 1.5 1.5 0 0 0 .294-.192 1.3 1.3 0 0 0 .144-.141 1 1 0 0 0 .072-.084v.006a.09.09 0 0 1 .068.072.08.08 0 0 1-.022.083c-.061.067-.129.04-.14-.044a2 2 0 0 1-.144.14l.018.017c.051.08-.056.189-.129.129a.1.1 0 0 1-.022-.044 1.4 1.4 0 0 1-.16.089.11.11 0 0 1-.059.1c-.048.027-.055.027-.078-.008a.1.1 0 0 1-.02-.033 1 1 0 0 1-.189.041.1.1 0 0 1-.049.056c-.053.027-.1.011-.106-.052Zm.62.125a.086.086 0 0 1 .116-.034.1.1 0 0 1 .037.041.1.1 0 0 1-.052.13.1.1 0 0 1-.034.008c-.059 0-.095-.08-.066-.145Zm-.047.556c-.061 0-.093-.073-.062-.14a.08.08 0 0 1 .1-.044.08.08 0 0 1 .043.044.1.1 0 0 1-.05.13.1.1 0 0 1-.035.008Zm-.25-.3c-.089.033-.147-.064-.089-.148a.076.076 0 0 1 .1-.031l.017.012a.11.11 0 0 1-.014.157Zm-.281.233a.12.12 0 0 1 .069-.049.1.1 0 0 1 .067.049.09.09 0 0 1-.014.122.086.086 0 0 1-.122-.014.09.09 0 0 1 0-.108m.011.756a.083.083 0 0 1 .086-.094.1.1 0 0 1 .063.022.1.1 0 0 1-.008.14.1.1 0 0 1-.055.025c-.051 0-.083-.036-.083-.1Zm.21.674a.084.084 0 0 1-.009.1.09.09 0 0 1-.164 0c-.056-.147.114-.241.173-.1m-.058 1.515a.13.13 0 0 1 .054.061c.014.028.022.055.014.061q-.012.01-.022-.024a.3.3 0 0 0-.045-.072c-.022-.031-.025-.033 0-.027Zm.056.855c-.047-.06-.047-.089 0-.045a.1.1 0 0 1 .039.064q.001.032-.037-.019Zm.015-1.466c-.088.062-.166.02-.166-.093s.105-.165.177-.093a.137.137 0 0 1-.011.185Zm.076-2.042c.041-.031.055-.029.1.016a.086.086 0 0 1-.026.148c-.1.052-.163-.094-.073-.165Zm.1.862a.12.12 0 0 1-.022-.147.1.1 0 0 1 .128 0c.075.063-.023.2-.106.147m.206.741c-.056.03-.111.022-.134-.016-.063-.112.051-.245.139-.158a.13.13 0 0 1-.005.174m.058.674c-.01 0-.026-.022-.038-.047-.025-.056 0-.045.036.011.011.019.014.035 0 .035Zm-.03-1.985a.08.08 0 0 1 .109-.017l.008.006a.11.11 0 0 1-.014.157l-.015.01c-.092.033-.155-.078-.086-.156Zm.112 2.744c-.018-.028-.023-.049-.014-.049s.03.018.041.039c.031.059.014.059-.022.008Zm.111-1.88a.106.106 0 0 1-.048-.19.084.084 0 0 1 .118 0 .1.1 0 0 1 .018.032c.034.083-.007.152-.088.152Zm.122.729a.127.127 0 0 1-.011-.18l.011-.011c.055-.044.086-.044.133 0 .1.1-.022.278-.13.189Zm.181-1.253c-.082.088-.2-.007-.131-.113a.08.08 0 0 1 .106-.033.08.08 0 0 1 .04.052.074.074 0 0 1-.014.091Zm.011-.531c0-.084.084-.133.14-.077a.1.1 0 0 1 0 .146.1.1 0 0 1-.078.031.15.15 0 0 1-.066-.1Zm.248-.527c.034.075-.007.144-.085.136-.054 0-.062-.013-.066-.066-.009-.117.107-.169.152-.071Zm-.033 3.717a.14.14 0 0 1-.027-.055c0-.011.014 0 .029.018a.13.13 0 0 1 .027.055c0 .009-.011 0-.026-.019Zm.023-1.957c-.084.067-.167.03-.167-.075s.082-.14.156-.075a.11.11 0 0 1 .011.15m.027-2.136a.08.08 0 0 1-.1.053.08.08 0 0 1-.057-.086c0-.1.094-.141.149-.057a.08.08 0 0 1 .011.087Zm-.058-1.133a.08.08 0 0 1-.095-.064v-.024l.02-.06a.079.079 0 0 1 .138.03.076.076 0 0 1-.061.118Zm.222 3.91c0 .014-.018 0-.031-.03-.023-.05-.023-.051.007-.022a.07.07 0 0 1 .026.049Zm0-1.158c-.118.062-.211-.072-.111-.167.044-.044.055-.046.111-.009a.11.11 0 0 1 .023.156l-.018.019Zm.095-.527a.08.08 0 0 1-.1-.059.1.1 0 0 1 0-.03.082.082 0 0 1 .16-.033c.028.063 0 .111-.057.122Zm.121 2.392-.031-.061.039.044a.2.2 0 0 1 .039.062q0 .045-.042-.044Zm.1-1.189c-.056.045-.106.045-.141-.008-.083-.111.036-.257.147-.177a.13.13 0 0 1 0 .182Zm.16-.582a.084.084 0 0 1-.115-.033l-.008-.018c-.046-.122.093-.215.164-.111a.106.106 0 0 1-.014.147l-.02.013Zm.077 1.155c-.025-.044-.026-.052 0-.042a.08.08 0 0 1 .042.048c.02.055 0 .055-.033-.006Zm.032-1.734a.087.087 0 0 1-.125-.063c-.036-.1.078-.185.148-.111a.11.11 0 0 1 0 .157l-.02.016Zm.02-.56c-.064.022-.1-.008-.1-.089 0-.1.088-.134.141-.056a.09.09 0 0 1-.009.127.1.1 0 0 1-.028.016Zm.123-1.594c-.031.033-.123.029-.134-.007-.03-.072.011-.156.073-.156a.1.1 0 0 1 .082.119.1.1 0 0 1-.02.045Zm-.011-.606a.115.115 0 0 1-.02-.147.1.1 0 0 1 .126 0c.076.063-.018.2-.1.146Zm.082 3.843a.07.07 0 0 1-.028-.042c0-.011.011-.008.026 0a.1.1 0 0 1 .028.042c.006.014-.007.012-.022 0Zm-.028-2.857c0-.094.111-.134.15-.056a.09.09 0 0 1-.027.126l-.023.011a.076.076 0 0 1-.093-.052.1.1 0 0 1 0-.031Zm.289 2.332a.11.11 0 0 1-.157.015.12.12 0 0 1-.04-.087c0-.045.073-.129.111-.129a.13.13 0 0 1 .075.049.11.11 0 0 1 .016.149Zm.011-.6q-.112.024-.111-.092c0-.111.128-.152.171-.059a.1.1 0 0 1-.029.137l-.027.012Zm.111 1.784c-.019-.03-.026-.056-.016-.056s.027.018.038.039c.04.059.018.075-.018.013Zm.069-3.659a.088.088 0 0 1-.055-.167c.054-.035.058-.035.1.008a.09.09 0 0 1 .009.127.1.1 0 0 1-.048.029Zm.073.381a.087.087 0 0 1 .116-.041.1.1 0 0 1 .041.041.095.095 0 1 1-.156 0Zm.063 2.575c-.025-.037-.026-.045 0-.045a.05.05 0 0 1 .041.039c.022.053.009.053-.03 0Zm.09-2.044c.056-.022.056-.022.091.005a.112.112 0 0 1-.044.192c-.1.011-.144-.172-.043-.212Zm.053 1.375a.1.1 0 0 1-.039-.067c0-.033.014-.017.06.065.025.033.024.033-.018 0Zm.112-.564a.111.111 0 1 1 0-.157l.014.017a.11.11 0 0 1-.016.136Zm-.03-2.026c-.052 0-.069-.009-.083-.047-.049-.129.1-.222.168-.1a.09.09 0 0 1-.02.127.1.1 0 0 1-.057.018Zm.146.359a.11.11 0 0 1 .147.013c.048.089.019.153-.071.166s-.133-.119-.07-.183Zm.082 3.521c-.037-.048-.036-.078 0-.049a.07.07 0 0 1 .026.053c0 .022 0 .022-.022-.009Zm.122-2.952c.044-.015.044-.015.089.016a.12.12 0 0 1 .023.165.12.12 0 0 1-.081.046c-.116.01-.145-.189-.026-.23Zm.055 2.2c-.046-.077-.046-.1 0-.044a.15.15 0 0 1 .038.075c.007.015-.009 0-.031-.033Zm.067-.744c-.033-.045-.033-.073 0-.044a.08.08 0 0 1 .028.053c.005.02 0 .019-.025-.011Zm-.018-.722-.032-.06.039.045a.2.2 0 0 1 .039.061c0 .029-.011.011-.043-.048Zm.249-1.514a.11.11 0 0 1-.156-.014l-.006-.008c-.06-.131.052-.253.151-.167.044.034.053.159.016.186Zm.078-1.072a.11.11 0 0 1-.151.046l-.022-.016a.116.116 0 0 1 .139-.186.125.125 0 0 1 .043.153Zm.074 1.591q-.002.03-.038-.027c-.033-.059-.019-.078.023-.03a.07.07 0 0 1 .022.052Zm-.013-4.7c-.009 0-.034-.033-.056-.075-.039-.083-.009-.111.046-.033.036.042.044.1.016.1Zm.009-.133c-.034-.033-.034-.035 0-.035a.05.05 0 0 1 .044.029c.018.041 0 .041-.038 0Zm.131 2.637a.3.3 0 0 1-.067-.125c0-.026.074.072.074.1v.022Zm.046 1.1q0 .03-.037-.026a.2.2 0 0 1-.037-.074c.007-.034.078.063.078.1Zm-.06 1.768c-.026-.051-.027-.061 0-.052a.1.1 0 0 1 .039.055c.024.067 0 .064-.033-.006Zm.07.739c-.035-.061-.035-.094 0-.048a.13.13 0 0 1 .028.067q.01.021-.021-.023Zm-.069-8.109c-.044 0-.055-.008-.055-.046a.2.2 0 0 0-.022-.084.043.043 0 0 1 0-.062.127.127 0 0 1 .172.007.12.12 0 0 1-.039.165.1.1 0 0 1-.05.017Zm.187.625c.045-.034.061-.034.1 0s.047.147.007.163c-.072.028-.167-.12-.1-.169Zm.056 3.243a.3.3 0 0 1-.074-.139c.018-.018.078.063.078.1.007.015 0 .03 0 .03Zm.086 2.356q-.002.03-.037-.028c-.034-.058-.019-.078.022-.029a.07.07 0 0 1 .022.056Zm.045 3.932c-.022-.025-.034-.051-.028-.059s.061.042.062.078c.006.008 0 0-.03-.025Zm.025-5.1a.3.3 0 0 1-.066-.126c0-.026.074.072.074.1v.02Zm0-2.055-.05-.011.03.056a.13.13 0 0 1 .014.092c-.008.026-.014.022-.03-.024a.3.3 0 0 0-.039-.08c-.014-.019-.011-.03.007-.043.037-.022.089-.022.1 0s0 .018-.035.009Zm.079 7.236c-.016.009-.019 0-.011-.045a.09.09 0 0 0-.017-.088c-.016-.015-.022-.028-.011-.028a.1.1 0 0 1 .04.022c.033.03.033.122 0 .14Zm.083-.889c-.008 0-.024-.011-.037-.044s0-.045.034.011c.013.022.015.043.006.043Zm.042-1.666c-.035-.045-.036-.073 0-.044a.08.08 0 0 1 .028.053c0 .022 0 .022-.024-.006Zm.085-2.025c-.047-.085-.045-.112 0-.06a.2.2 0 0 1 .036.085c.007.033 0 .027-.033-.026Zm.175-2.011c-.007.011-.02 0-.03-.023s-.025-.041-.033-.041a.02.02 0 0 1-.017-.018c0-.034.033-.023.065.022a.07.07 0 0 1 .02.059Zm-.011-2.6a.1.1 0 0 1 .12 0 .111.111 0 0 1-.052.2c-.067-.006-.122-.164-.065-.206Zm.111 5.323c-.006.009-.022 0-.037-.016-.041-.051-.033-.073.008-.034.017.023.033.039.027.049Zm.049-1.384c-.02-.022-.031-.051-.025-.062s.062.052.062.089c0 .011-.016 0-.036-.026Zm.011-2.2c-.049-.044-.064-.033-.054.042l.008.07-.037-.066c-.034-.06-.034-.067-.007-.089s.038-.028.083 0a.07.07 0 0 1 .037.049c0 .022 0 .022-.031 0Zm-.022-.711c-.062-.016-.111-.123-.07-.155a.084.084 0 0 1 .119 0c.051.073.011.182-.053.161Zm.091 5.065c-.029-.063-.028-.074 0-.049a.2.2 0 0 1 .037.059c.013.056-.012.047-.042-.011Zm.2 1.74c-.01.081-.048.074-.061-.012-.007-.039-.02-.074-.031-.074s-.022 0 0 .065 0 .061-.038 0l-.033-.065c0-.011.039-.027.089-.033a.1.1 0 0 1 .052.035.12.12 0 0 1 .026.086Zm.039-3.039a.11.11 0 0 1-.089-.13.1.1 0 0 1 .038-.065c.059-.04.1-.035.136.011a.11.11 0 0 1 0 .157.1.1 0 0 1-.08.03Zm.172-2.362a.1.1 0 0 0-.019-.054c-.02-.016-.023-.007-.017.044q.012.125-.044 0c-.036-.082.052-.148.111-.055.027.041.022.124-.011.124-.012 0-.012-.022-.012-.047Zm.039 3.036c-.02-.026-.032-.053-.027-.062s.063.044.063.08-.012.014-.036-.016Zm.111.055q-.017.03-.018-.032c0-.043-.014-.063-.031-.07s-.043-.046-.011-.046a.1.1 0 0 1 .033.026.11.11 0 0 1 .023.127Zm.17.86c-.033.061-.089.045-.131-.044s-.038-.081-.008-.1.058-.03.111.023.056.075.027.128Zm.129-1.533c-.1 0-.125-.155-.032-.2.062-.033.068-.033.111.011a.11.11 0 0 1-.006.157.1.1 0 0 1-.072.03ZM3.734 9.053a8.44 8.44 0 0 1 4.909-5.939 7.6 7.6 0 0 0-1.294.417 8.8 8.8 0 0 0-2.692 1.744 9.63 9.63 0 0 0-2.652 6.937 9.39 9.39 0 0 0 5.86 8.719c.122.033 1.406.367 1.406.367a6.4 6.4 0 0 1-2.06-1.309 10.245 10.245 0 0 1-3.47-10.938"/></svg>