<?xml version="1.0" encoding="UTF-8"?>
<svg width="24px" fill="#44739e" height="24px" viewBox="0 0 24 24" version="1.1" xmlns="http://www.w3.org/2000/svg" xmlns:xlink="http://www.w3.org/1999/xlink">
            <path d="m 12,13.7 c -3.189,0 -5.774,1.647 -5.774,3.678 0,2.031 2.581,3.678 5.774,3.678 3.193,0 5.776,-1.647 5.776,-3.678 0,-2.031 -2.59,-3.678 -5.776,-3.678 z m 0.414,-2.132 h 0.034 0.02 v 0 l 0.03,-0.006 0.017,-0.005 0.019,-0.006 h 0.007 0.01 l 0.017,-0.008 0.016,-0.009 0.014,-0.007 0.011,-0.008 0.014,-0.01 a 0.348,0.348 0 0 0 0.141,-0.277 V 11.2 A 0.358,0.358 0 0 0 12.727,11.061 L 12.717,11.043 12.706,11.026 12.701,11.019 12.7,11 12.692,10.99 12.682,10.979 12.675,10.972 12.665,10.962 12.65,10.948 12.635,10.935 12.622,10.926 12.61,10.917 12.592,10.907 H 12.584 L 12.567,10.898 12.553,10.892 12.537,10.886 H 12.524 12.51 12.496 12.481 12.465 12.457 12.419 a 0.351,0.351 0 1 0 0,0.7 z M 11.96,9.857 c -5.181,0 -9.383,2.719 -9.383,6.072 0,3.353 4.202,6.071 9.383,6.071 5.181,0 9.384,-2.718 9.384,-6.071 0,-3.353 -4.202,-6.072 -9.384,-6.072 z m 2.251,0.817 h 0.072 0.015 0.009 0.018 0.024 0.018 0.01 l 0.02,0.006 0.024,0.008 h 0.013 l 0.015,0.006 0.018,0.009 0.013,0.006 0.011,0.006 0.019,0.011 0.022,0.014 0.017,0.012 0.017,0.012 0.01,0.009 0.016,0.014 0.008,0.006 0.014,0.013 0.008,0.009 0.017,0.018 0.007,0.009 0.008,0.009 0.012,0.016 0.011,0.014 0.012,0.018 v 0.007 l 0.012,0.02 0.006,0.011 0.008,0.016 0.009,0.019 0.007,0.017 v 0.008 l 0.007,0.017 v 0.013 l 0.006,0.021 v 0.008 0.021 0.012 0.024 0.022 0.6 A 0.014,0.014 0 0 1 14.73,11.749 H 14.6 a 0.014,0.014 0 0 1 -0.014,-0.012 v -0.13 l -0.017,0.014 -0.015,0.01 -0.011,0.008 -0.016,0.011 -0.021,0.013 -0.02,0.011 h -0.009 l -0.024,0.011 -0.015,0.007 -0.018,0.007 -0.018,0.006 -0.016,0.005 H 14.369 14.357 14.349 14.338 14.32 14.31 14.299 14.282 14.233 a 0.54306652,0.54306652 0 0 1 -0.017,-1.086 z m -1.1,0.561 a 0.548,0.548 0 0 1 0.544,-0.543 h 0.009 v 0.192 a 0.354,0.354 0 0 0 -0.358,0.345 v 0.54 h -0.005 -0.186 v 0 z m -0.7,-0.562 h 0.041 0.014 0.026 0.008 a 0.578,0.578 0 0 1 0.057,0.012 h 0.009 l 0.037,0.012 0.025,0.009 0.019,0.009 0.024,0.012 0.009,0.005 0.025,0.015 0.022,0.014 0.017,0.013 0.027,0.021 0.011,0.01 0.009,0.009 0.015,0.014 0.012,0.013 0.016,0.018 0.008,0.01 0.015,0.019 0.008,0.012 0.01,0.015 0.006,0.01 0.011,0.018 0.013,0.025 0.009,0.019 0.012,0.03 0.007,0.018 v 0.012 l 0.007,0.025 v 0.016 l 0.005,0.022 v 0.02 0.022 0.02 0.578 a 0.014,0.014 0 0 1 -0.014,0.014 h -0.166 a 0.014,0.014 0 0 1 -0.014,-0.012 v -0.13 0 l -0.032,0.024 -0.02,0.014 -0.022,0.013 -0.018,0.011 -0.017,0.008 -0.022,0.01 -0.021,0.009 -0.018,0.007 -0.025,0.008 -0.02,0.005 h -0.022 l -0.022,0.005 H 12.471 12.443 12.4 a 0.544,0.544 0 1 1 0,-1.087 z m -1.254,0 h 0.051 0.022 0.024 0.017 0.025 0.017 0.011 l 0.019,0.006 0.017,0.006 h 0.008 l 0.021,0.009 0.015,0.006 0.016,0.008 0.018,0.009 h 0.008 l 0.016,0.01 0.016,0.01 h 0.007 l 0.018,0.013 0.014,0.011 0.013,0.011 0.009,0.007 0.013,0.012 0.008,0.008 0.008,0.008 0.009,0.009 0.008,0.01 0.008,0.008 0.013,0.017 0.017,0.023 0.006,0.009 0.011,0.016 0.006,0.011 0.012,0.02 0.008,0.016 0.009,0.019 0.007,0.017 0.006,0.016 0.006,0.016 v 0.014 0.013 0.008 0.021 0.012 0.012 0.012 0.022 0.011 0.028 0.825 A 0.014,0.014 0 0 1 11.68,12.006 H 11.514 A 0.015,0.015 0 0 1 11.5,11.993 v 0 -0.391 l -0.017,0.014 -0.014,0.011 -0.011,0.008 -0.01,0.006 -0.012,0.008 -0.015,0.009 -0.021,0.011 h -0.009 l -0.016,0.008 -0.022,0.009 -0.019,0.007 h -0.01 L 11.301,11.7 h -0.009 l -0.02,0.005 h -0.02 -0.018 -0.01 -0.018 -0.058 A 0.545,0.545 0 0 1 11.13,10.616 Z M 9.106,11.768 9.53,10.649 a 0.378,0.378 0 0 1 0.483,-0.217 0.373,0.373 0 0 1 0.217,0.211 l 0.427,1.125 v 0.006 h -0.2 v 0 l -0.4,-1.054 a 0.186,0.186 0 0 0 -0.106,-0.105 0.181,0.181 0 0 0 -0.231,0.1 l -0.1,0.254 a 0.281,0.281 0 0 0 -0.156,0.251 0.271,0.271 0 0 0 0.021,0.106 l -0.17,0.447 v 0 h -0.2 v 0 z m 0.837,-0.54 a 0.189,0.189 0 1 1 -0.188,-0.186 0.188,0.188 0 0 1 0.188,0.186 z m 2.024,10.613 c -3.907,0 -7.075,-2.1 -7.075,-4.694 0,-2.594 3.168,-4.694 7.075,-4.694 3.907,0 7.075,2.1 7.075,4.694 0,2.594 -3.168,4.694 -7.075,4.694 z m 2.261,-10.273 h 0.046 a 0.353,0.353 0 0 0 0.307,-0.343 V 11.2 a 0.348,0.348 0 0 0 -0.089,-0.216 l -0.006,-0.007 v -0.005 a 0.317,0.317 0 0 0 -0.034,-0.03 L 14.444,10.936 14.435,10.93 14.421,10.92 14.407,10.912 14.389,10.903 v 0 l -0.022,-0.009 h -0.01 l -0.019,-0.006 h -0.011 l -0.02,-0.005 H 14.29 14.273 14.239 a 0.351,0.351 0 1 0 0,0.7 z m -3.05,0.002 h 0.045 A 0.351,0.351 0 0 0 11.53,11.226 V 11.2 a 0.343,0.343 0 0 0 -0.09,-0.216 l -0.011,-0.012 a 0.308,0.308 0 0 0 -0.033,-0.03 l -0.009,-0.007 -0.008,-0.006 -0.015,-0.01 -0.014,-0.008 -0.017,-0.009 h -0.006 l -0.022,-0.01 -0.017,-0.006 -0.017,-0.005 h -0.015 -0.01 -0.009 -0.017 -0.008 -0.034 a 0.352,0.352 0 1 0 0,0.7 z m 0.841,-9.087 c 4.7,0 8.61,2.258 9.425,5.236 C 21,4.512 16.926,2 11.96,2 6.7,2 2.436,4.818 2.436,8.294 A 2.46,2.46 0 0 0 2.447,8.581 C 2.675,5.187 6.873,2.483 12.019,2.483 Z M 3.6,12.408 C 5.34,10.588 8.452,9.376 12,9.376 h 0.029 c 0.541,0.007 8.858,0.209 9.846,6.388 0,-0.125 -0.008,-0.249 -0.018,-0.372 l -0.276,-6 V 9.3 q 0,-0.212 -0.024,-0.423 V 8.871 C 21.2,5.559 17.055,2.946 12,2.946 6.945,2.946 2.8,5.559 2.441,8.871 V 8.942 C 2.428,9.072 2.423,9.203 2.423,9.335 v 0.021 l -0.258,5.868 a 4.425,4.425 0 0 0 -0.036,0.54 v 0.27 L 2.136,15.973 A 6.377,6.377 0 0 1 3.264,12.789 4.879,4.879 0 0 1 3.6,12.408 Z"/>

</svg>