<?xml version="1.0" encoding="UTF-8"?>
<svg width="24px" fill="#44739e" height="24px" viewBox="0 0 24 24" version="1.1" xmlns="http://www.w3.org/2000/svg" xmlns:xlink="http://www.w3.org/1999/xlink">
            <path d="m 14.193,17.259 c 0.749,-0.225 0.864,-0.26 1.094,-0.508 A 3.3,3.3 0 0 0 16.38,14.2 15.3,15.3 0 0 0 15.28,9.489 11.768,11.768 0 0 0 14.048,6.84 C 13.958,6.701 13.875,6.567 13.795,6.44 A 3.707,3.707 0 0 0 12.665,5.114 C 12.629,5.091 12.591,5.063 12.549,5.032 12.249,4.811 11.749,4.44 10.094,4.587 A 56.746,56.746 0 0 0 4.176,7.192 4.463,4.463 0 0 1 6.686,8.449 7.952,7.952 0 0 1 9,11.981 7.8,7.8 0 0 1 8.443,18.042 2.469,2.469 0 0 1 7.555,18.901 3.464,3.464 0 0 0 7.969,18.885 15.64,15.64 0 0 0 11.716,18.059 l 0.032,-0.011 c 1.205,-0.415 1.952,-0.64 2.445,-0.789 z m -7.1543438,1.613156 c 1.5080001,-0.328 2.4690001,-3.591 1.9170001,-6.018 -0.7,-3.0579998 -3.6860001,-5.7999998 -5.251,-5.3149998 -1.432,0.446 -1.878,3.1689998 -1.189,6.0049998 0.552,2.27 2.7999999,5.46 4.371,5.35 l 0.094,-0.011 z m -2.524,-4.972 a 0.061,0.061 0 0 1 -0.043,-0.112 c 0.069,-0.009 0.101,0.095 0.043,0.112 z m 0.276,0.091 h -0.054 c -0.06,-0.094 -0.12,-0.186 -0.179,-0.277 -0.022,-0.034 -0.048,-0.09 -0.1,-0.065 -0.033,0.016 -0.024,0.068 -0.027,0.1 -0.003,0.032 -0.024,0.038 -0.025,0.067 -0.001,0.029 0.016,0.04 0.018,0.06 l -0.009,0.136 h -0.051 v 0 -0.113 c 0,-0.06 0.006,-0.12 0.01,-0.18 a 0.288,0.288 0 0 1 0.009,-0.085 c 0.011,-0.026 0.03,-0.035 0.057,-0.051 a 0.12,0.12 0 0 1 0.1,0.02 1.315,1.315 0 0 1 0.164,0.244 l 0.082,0.131 z m 0.326,0.065 h -0.051 v 0 l -0.035,-0.13 v 0 c -0.031,0.072 -0.147,0.049 -0.2,0.009 a 0.216,0.216 0 0 1 -0.059,-0.272 c 0.02,-0.025 0.046,-0.029 0.08,-0.047 0.191,-0.026 0.218,0.206 0.277,0.435 z m 0.319,-0.126 -0.051,0.005 v 0 l -0.011,-0.04 v 0 c -0.024,0.016 -0.037,0.04 -0.072,0.05 -0.106,0.031 -0.233,-0.1 -0.224,-0.238 0.006,-0.087 0.042,-0.1 0.111,-0.14 0.165,-0.024 0.2,0.147 0.25,0.363 z m 0.116,-0.352 c -0.119,0.018 -0.062,0.186 -0.024,0.34 v 0 l -0.051,0.005 v 0 c -0.047,-0.192 -0.088,-0.317 0,-0.393 l 0.051,-0.024 c 0.011,0 0.018,0.051 0.021,0.069 z m 0.392,0.295 -0.051,0.006 v 0 l -0.012,-0.044 c -0.024,0.016 -0.037,0.043 -0.071,0.055 -0.107,0.034 -0.234,-0.113 -0.224,-0.26 0.006,-0.089 0.044,-0.112 0.11,-0.151 0.165,-0.026 0.2,0.159 0.249,0.393 z m -1.095,-0.189 c -0.025,0.015 -0.045,0.024 -0.055,0.049 -0.03,0.079 0.052,0.206 0.14,0.181 0.118,-0.035 0.057,-0.255 -0.085,-0.23 z m 0.849,-0.131 c -0.023,0.016 -0.042,0.026 -0.052,0.054 -0.032,0.091 0.047,0.24 0.136,0.21 0.122,-0.041 0.062,-0.293 -0.084,-0.264 z m -0.5,0.082 c -0.026,0.016 -0.046,0.026 -0.055,0.054 -0.03,0.085 0.052,0.216 0.139,0.189 0.116,-0.038 0.054,-0.271 -0.084,-0.243 z M 13.291,18.352 a 0.691,0.691 0 0 1 -0.447,0.421 0.789,0.789 0 0 1 -0.613,-0.243 1.579,1.579 0 0 1 -0.258,-0.31 l -0.151,0.052 -0.032,0.011 c -0.112,0.038 -0.264,0.091 -0.451,0.15 a 2.569,2.569 0 0 0 0.853,0.711 1.239,1.239 0 0 0 0.92,0.115 1.113,1.113 0 0 0 0.69,-0.69 1.741,1.741 0 0 0 0.032,-0.954 q -0.238,0.074 -0.54,0.169 a 0.9,0.9 0 0 1 -0.003,0.568 z M 15.9,10.589 c 0.122,0.381 0.236,0.76 0.335,1.131 l 2.224,-1.711 z m 2.6,-0.453 -2.234,1.714 a 10.817,10.817 0 0 1 0.332,1.819 L 18.5,12.206 Z m -1.58,7.794 1.507,-0.281 0.077,-5.29 -1.584,1.219 z m -1.528,0.286 1.4,-0.248 v -4.3 l -0.188,0.115 c 0.009,0.144 0.014,0.286 0.012,0.423 a 3.532,3.532 0 0 1 -1.156,2.711 l -0.027,0.028 -0.041,0.1 z M 20.42,13.624 V 13.382 C 20.367,10.822 20.075,7.773 17.942,8.044 h -0.144 a 3.751,3.751 0 0 0 -2.466,0.9 c 0.054,0.144 0.11,0.3 0.166,0.456 0.11,0.313 0.218,0.627 0.321,0.94 l 2.774,-0.7 v 8.1 l -3.334,0.613 0.012,-1.275 a 3.135,3.135 0 0 1 -1.01,0.4 l -0.219,0.066 a 2.425,2.425 0 0 0 2.6,1.575 c 2.501,-0.154 3.638,-1.853 3.778,-5.495 z m 1.422,-2.834 a 4.454,4.454 0 0 0 -0.426,-1.7 2.174,2.174 0 0 0 -0.868,-1.025 7.178,7.178 0 0 0 -1.98,-0.1 2.794,2.794 0 0 1 0.39,0.1 c 2.025,0.831 2.165,8.267 0.351,10.017 -0.882,0.851 -1.278,0.882 -1.278,0.882 a 4.909,4.909 0 0 1 -1.469,0.319 4.019,4.019 0 0 0 2.325,0.026 3.075,3.075 0 0 0 1.827,-0.882 2.851,2.851 0 0 0 0.69,-1.009 c 0.604,-1.251 0.522,-5.084 0.438,-6.628 z m -9.611,7.74 a 0.789,0.789 0 0 0 0.613,0.243 0.691,0.691 0 0 0 0.447,-0.421 0.9,0.9 0 0 0 0,-0.568 c -0.361,0.115 -0.8,0.257 -1.321,0.436 a 1.579,1.579 0 0 0 0.261,0.31 z"/>

</svg>