<?xml version="1.0" encoding="UTF-8"?>
<svg width="24px" fill="#44739e" height="24px" viewBox="0 0 24 24" version="1.1" xmlns="http://www.w3.org/2000/svg" xmlns:xlink="http://www.w3.org/1999/xlink">
            <path d="M 13.536,10.285 V 4.07 a 1.372,1.372 0 0 0 -2.743,0 v 6.215 a 0.026,0.026 0 0 0 0.028,0.025 h 2.687 a 0.026,0.026 0 0 0 0.028,-0.025 z m 0.278,1.847 a 0.31799999,0.36399999 0 0 1 -0.318,0.364 0.31799999,0.36399999 0 0 1 -0.318,-0.364 0.31799999,0.36399999 0 0 1 0.318,-0.364 0.31799999,0.36399999 0 0 1 0.318,0.364 z m 5.549,-0.665 h -5.882 a 0.666,0.666 0 0 0 0,1.331 h 5.882 a 0.666,0.666 0 0 0 0,-1.331 z M 13.5,12.558 a 0.428,0.428 0 1 1 0.38,-0.426 0.406,0.406 0 0 1 -0.38,0.426 z m -0.777,-0.426 a 0.76,0.76 0 0 1 0.4,-0.665 H 12.3 a 0.651,0.651 0 1 0 0,1.3 h 0.771 a 0.759,0.759 0 0 1 -0.348,-0.635 z m -1.168,-0.015 a 0.743,0.743 0 0 1 0.743,-0.742 h 0.462 a 0.778,0.778 0 0 0 -0.588,-0.286 0.944,0.944 0 0 0 -0.847,1.016 0.944,0.944 0 0 0 0.847,1.016 0.77,0.77 0 0 0 0.566,-0.261 H 12.3 a 0.743,0.743 0 0 1 -0.745,-0.743 z m 1.325,4.005999 a 0.685,0.78500003 0 0 1 -0.685,0.785 0.685,0.78500003 0 0 1 -0.685,-0.785 0.685,0.78500003 0 0 1 0.685,-0.785 0.685,0.78500003 0 0 1 0.685,0.785 z M 13.271,12.86 h -0.412 a 0.88,0.88 0 0 1 -0.687,0.354 1.036,1.036 0 0 1 -0.939,-1.109 1.035,1.035 0 0 1 0.939,-1.105 0.881,0.881 0 0 1 0.705,0.378 h 0.431 a 0.611,0.611 0 0 1 0.086,0.005 0.635,0.635 0 0 1 0.087,-0.005 H 13.95 V 3.811 A 1.574,1.574 0 0 0 12.378,2.239 H 11.951 A 1.574,1.574 0 0 0 10.379,3.811 V 20.2 a 1.574,1.574 0 0 0 1.572,1.572 h 0.427 A 1.574,1.574 0 0 0 13.95,20.2 v -7.31 h -0.469 a 0.767,0.767 0 0 1 -0.21,-0.03 z m -2.45,-2.381 a 0.2,0.2 0 0 1 -0.2,-0.194 V 4.07 a 1.542,1.542 0 0 1 3.083,0 v 6.215 a 0.2,0.2 0 0 1 -0.2,0.194 z M 12.2,17 A 0.884,0.884 0 1 1 12.978,16.122 0.833,0.833 0 0 1 12.2,17 Z m -0.249,4.881 a 1.681,1.681 0 0 1 -1.68,-1.68 V 3.811 a 1.682,1.682 0 0 1 1.68,-1.68 h 0.427 A 1.676,1.676 0 0 1 13.043,2.268 1.75,1.75 0 0 0 12.249,2.079 H 11.484 A 1.837,1.837 0 0 0 9.647,3.916 v 16.168 a 1.837,1.837 0 0 0 1.837,1.837 h 0.185 A 1.836,1.836 0 0 1 9.832,20.084 V 3.952 a 1.837,1.837 0 0 1 1.412,-1.787 1.755,1.755 0 0 0 -1.212,1.669 v 16.332 a 1.755,1.755 0 0 0 1.755,1.755 h 0.462 a 1.762,1.762 0 0 0 0.627,-0.115 1.672,1.672 0 0 1 -0.5,0.075 z"/>

</svg>