<?xml version="1.0" encoding="UTF-8"?>
<svg width="24px" fill="#44739e" height="24px" viewBox="0 0 24 24" version="1.1" xmlns="http://www.w3.org/2000/svg" xmlns:xlink="http://www.w3.org/1999/xlink">
            <path d="m 12.539839,11.295619 a 0.11019971,0.10987949 0 0 0 0.01755,0.104045 0.21844898,0.21781421 0 0 0 0.06046,0.03695 0.27793731,0.27712969 0 0 0 0.115076,0.02723 c 0.02536,0 0.04974,0.0049 0.07217,0.0088 0,0 -0.01073,0.0107 -0.02731,0.02042 l -0.03218,0.0175 0.06729,0.04279 0.02243,-0.0107 0.150184,-0.08071 c 0.06826,-0.035 0.13458,-0.07196 0.19992,-0.110851 0.09752,-0.06612 0.155059,-0.142941 0.142382,-0.205174 a 0.09752186,0.09723849 0 0 0 -0.05949,-0.06904 0.18431632,0.18378074 0 0 0 -0.111175,-0.04376 0.78017492,0.7779079 0 0 0 -0.419344,0.0846 0.36570699,0.36464433 0 0 0 -0.197969,0.177947 z m 0.292566,-0.149748 a 0.35400437,0.35297571 0 0 1 0.07314,-0.02236 0.40471574,0.40353973 0 0 1 0.195044,0.0049 c 0.102398,0.03598 0.08484,0.127383 -0.03608,0.204201 l -0.01365,0.0068 a 0.48760932,0.48619244 0 0 1 -0.0907,0.03501 0.56172594,0.56009369 0 0 1 -0.175539,0.01556 0.17066326,0.17016735 0 0 1 -0.122878,-0.06612 0.12092711,0.12057573 0 0 1 0.04291,-0.09724 0.38131049,0.38020249 0 0 1 0.07314,-0.04862 z m -0.686554,0.02723 0.03998,0.01653 0.03998,0.01653 0.165787,-0.09724 a 0.79870407,0.79638322 0 0 1 0.3345,-0.137107 0.31304519,0.31213555 0 0 1 0.157985,0.01945 l 0.02536,0.01361 0.04974,-0.02528 0.06046,-0.0282 -0.03803,-0.01848 a 0.53246938,0.53092214 0 0 0 -0.342302,-0.0078 l -0.07217,0.01945 -0.213573,0.114741 z m -0.368633,-0.347141 a 0.11215014,0.11182426 0 0 0 0.02731,0.145857 0.18139067,0.18086359 0 0 0 0.05169,0.03306 0.57440378,0.57273469 0 0 0 0.17944,0.03598 c 0.05169,0 0.05559,0.0058 0.02145,0.02528 l -0.03023,0.0175 0.03608,0.01945 0.04193,0.01556 0.179441,-0.09724 0.183341,-0.103073 0.03316,-0.0389 c 0.06924,-0.07779 0.06437,-0.155582 -0.01658,-0.204201 a 0.45737755,0.45604851 0 0 0 -0.330599,-0.04667 0.55684985,0.55523177 0 0 0 -0.376434,0.197394 z m 0.131654,-0.01167 a 0.26720991,0.26643346 0 0 1 0.08582,-0.06418 0.42714577,0.42590458 0 0 1 0.362781,-0.0389 0.12190233,0.12154811 0 0 1 0.04779,0.0389 0.07606705,0.07584602 0 0 1 0.0049,0.07779 0.20284548,0.20225606 0 0 1 -0.07412,0.07682 0.47785714,0.47646859 0 0 1 -0.280863,0.06515 c -0.09752,-0.0058 -0.15701,-0.04279 -0.164812,-0.09724 a 0.09752186,0.09723849 0 0 1 0.01853,-0.05834 z m -0.726537,-0.146829 a 0.35400437,0.35297571 0 0 0 0.236978,0.09724 0.7323892,0.73026105 0 0 1 0.08387,0.0097 0.637793,0.63593971 0 0 1 -0.0907,0.06029 l -0.09752,0.05834 0.04681,0.01945 0.04584,0.01848 0.195044,-0.117658 c 0.1102,-0.06515 0.221374,-0.132245 0.24478,-0.148775 0.08972,-0.06612 0.122877,-0.142941 0.08679,-0.205173 a 0.1570102,0.15655397 0 0 0 -0.08582,-0.06807 0.2769621,0.27615731 0 0 0 -0.13458,-0.04181 0.81625801,0.81388615 0 0 0 -0.292566,0.03209 c -0.207721,0.06029 -0.31207,0.188643 -0.238928,0.285881 z m 0.13458,-0.144885 a 0.43104664,0.42979412 0 0 1 0.18139,-0.09724 c 0.148234,-0.03112 0.292566,0 0.318897,0.06612 a 0.07509184,0.07487364 0 0 1 -0.0156,0.09724 0.42324489,0.42201504 0 0 1 -0.330599,0.103073 h -0.02731 c -0.131654,-0.01653 -0.189192,-0.09238 -0.126778,-0.169195 z m -1.094196,-0.221704 0.05071,0.01945 0.15896,-0.05348 a 0.65729737,0.65538741 0 0 0 0.183342,-0.07293 0.35302915,0.35200333 0 0 1 0.183341,-0.0632 0.74701748,0.74484682 0 0 0 0.171638,-0.0389 1.0844431,1.081292 0 0 1 0.131655,-0.03598 c 0.08582,-0.0078 0.154084,0.0175 0.156035,0.05834 a 1.2063455,1.2028401 0 0 1 -0.17554,0.2324 c -0.08874,0.113769 -0.156035,0.20809 -0.156035,0.211008 a 0.15018367,0.14974727 0 0 0 0.05071,0.02139 l 0.04193,0.0175 0.171639,-0.222676 a 3.0007478,2.9920283 0 0 0 0.204795,-0.253793 c 0.0059,-0.04376 -0.02243,-0.08265 -0.07899,-0.109879 a 0.4651793,0.46382759 0 0 0 -0.236003,-0.02139 c -0.04681,0.0068 -0.82406,0.253793 -0.89135,0.283937 -0.01853,0.0088 -0.0156,0.0097 0.03316,0.0282 z m 0.698257,-0.09627 a 0.1726137,0.17211212 0 0 0 -0.124828,-0.02237 c -0.07314,0.0097 -0.127754,0.0457 -0.122878,0.08168 a 0.07216618,0.07195648 0 0 0 0.03218,0.0282 0.23892857,0.2382343 0 0 0 0.195043,-0.01361 c 0.03316,-0.02625 0.03998,-0.05154 0.02048,-0.0739 z m 10.690347,0.0088 -0.0098,0.01653 A 6.6149081,6.5956866 0 0 0 21.44066,9.1359521 v 0 A 1.5544985,1.5499815 0 0 0 20.673162,8.1130032 L 14.626807,4.7329934 a 4.4801545,4.4671361 0 0 0 -5.0262775,0.434656 l -6.80215,5.5318976 a 1.7251618,1.7201489 0 0 0 -0.6416939,1.461494 1.8187828,1.8134978 0 0 0 0.034133,0.230455 c 0.033158,0.247959 0.097522,0.612603 0.097522,0.692338 a 1.8314606,1.8261388 0 0 0 0.036083,0.254765 v 0 c 0.2925656,1.815443 0.1326297,2.521394 0.9254825,3.014393 l 5.77622,3.423768 a 4.206118,4.193896 0 0 0 5.0828399,-0.381175 l 6.952333,-5.882929 c 0.651447,-0.551342 0.652422,-1.181447 0.550024,-3.299302 z m -0.2204,0.05932 a 1.3448265,1.3409188 0 0 1 -0.474931,1.166862 l -6.952334,5.882928 a 4.1690597,4.1569454 0 0 1 -2.715009,1.027807 4.2568294,4.24446 0 0 1 -2.2430029,-0.655387 l -5.77622,-3.425712 A 1.5135393,1.5091413 0 0 1 2.5087395,13.10231 1.7836749,1.7784919 0 0 0 2.9846462,13.531132 l 5.7762201,3.422794 a 4.4626005,4.4496332 0 0 0 2.3551537,0.688449 4.3884839,4.375732 0 0 0 2.851539,-1.079347 l 6.953309,-5.883901 a 1.5603498,1.5558158 0 0 0 0.436898,-0.592183 1.4725802,1.4683012 0 0 1 0.03316,0.185726 z M 2.9368605,10.864852 9.7399858,5.3290653 A 4.2422011,4.2298742 0 0 1 14.526359,4.9148294 l 6.046356,3.3809822 a 1.3653061,1.3613388 0 0 1 0.214548,2.2180094 l -6.953309,5.882929 a 4.1729606,4.1608349 0 0 1 -2.714033,1.028783 4.2558542,4.2434876 0 0 1 -2.2430037,-0.65636 L 3.0967964,13.345406 A 1.5301181,1.5256719 0 0 1 2.9368605,10.864852 Z m 4.6030321,3.559902 a 0.27793732,0.20809036 0 0 1 -0.2779373,0.208091 0.27793732,0.20809036 0 0 1 -0.2779374,-0.208091 0.27793732,0.20809036 0 0 1 0.2779374,-0.20809 0.27793732,0.20809036 0 0 1 0.2779373,0.20809 z"/>

</svg>