<svg xmlns="http://www.w3.org/2000/svg" viewBox="0 0 24 24"><path fill="#44739e" d="M19.265 6.68a4 4 0 0 0-3.2-1.659l-7.88 1.93a6 6 0 0 1 4.015 4.544c.391 1.778.853 4.644-1.258 6.48l7.971-2.24a3.69 3.69 0 0 0 1.887-3.02 10.2 10.2 0 0 0-.291-3.743 6.2 6.2 0 0 0-1.244-2.292M5.903 15.487l-.09-.034v.283l.002.001v.026l.284.096-.002-.088-.193-.067Zm-.054-.238a.34.34 0 0 0-.483.33.71.71 0 0 0 .493.638.344.344 0 0 0 .483-.333.75.75 0 0 0-.493-.635m.009.866a.565.565 0 0 1-.389-.5.268.268 0 0 1 .381-.261.59.59 0 0 1 .389.5.27.27 0 0 1-.381.261m1.152-2.207-.001.211.212.066-.004-.205Zm.079-1.664a.093.093 0 0 0 .13-.089.2.2 0 0 0-.132-.17.091.091 0 0 0-.13.088.19.19 0 0 0 .132.171m.636 1.467.001.089-.012.014.001.138.038.047.039-.012-.004-.235-.038-.048Zm-.341.085v-.141l-.013-.027v-.09l-.025-.033-.038.011v.243l.037.048Zm.353-.108-.038-.048-.303-.15-.038.011.038.049.303.149Zm-.034.326.038-.011-.039-.048-.108-.05-.038.012.038.047Zm-.344-.19.037.048.109.051.038-.012-.038-.048-.109-.051Zm.038.309-.038.014.038.047.309.135.039-.012-.039-.047Zm-.025-.101.012-.015v-.141l-.039-.048-.037.012v.243l.038.048.026-.009Zm.382-.014-.038.012.002.138.012.025.001.089.026.031.039-.013-.003-.235Zm-.342-1.403v-.091l.012-.014v-.141l-.039-.05-.038.01v.243l.039.05Zm.012-.326v-.141l-.013-.027v-.091l-.026-.034-.038.009v.243l.038.05Zm.013.338-.038.011.038.05.309.152.039-.011-.04-.048Zm.302-.416.038-.008-.038-.051-.304-.168-.037.009.038.051Zm-1.34 1.659-.094.076.012.484.033.078.008.311.067.088.097-.077-.022-.828Zm-.101-.201.099.132.096-.076-.022-.828-.101-.134-.062.05.007.311-.029.06Zm-1.347-1.344-.063.051.004.317-.03.061.006.494.098.134.097-.077-.012-.844Zm-.992.793.098.136.277.082.095-.078-.097-.135-.277-.083Zm.038.723.031-.062-.003-.499-.099-.137-.096.079.004.857.099.135.066-.053Zm.066.338-.097.08.098.134.788.22.098-.078-.1-.134Zm.4-.911.098.135.277.081.097-.076-.1-.135-.277-.082Zm.36-.912.097-.075-.099-.137-.773-.244-.096.077.097.137Zm6.892-1.261a5.83 5.83 0 0 0-3.944-4.018c-1.354.366-2.026.585-3.381.952-2.772 1.1-2.631 4.523-2.04 6.486.632 2.1 2.063 4.975 5.123 4.386l3.027-.836c2.332-2.262 1.712-5.17 1.215-6.97m-4.694 7.3c-1.665.42-3.578-1.468-4.272-4.217s.095-5.32 1.76-5.74 3.579 1.457 4.272 4.212-.094 5.319-1.76 5.739Zm14.84-9.232a3.71 3.71 0 0 0-2.052-2.6l-.37.11a6.2 6.2 0 0 1 1.245 2.292 10.2 10.2 0 0 1 .291 3.742l.15-.053c.839-.566 1.052-2.369.736-3.491"/></svg>