<?xml version="1.0" encoding="UTF-8"?>
<svg width="24px" fill="#44739e" height="24px" viewBox="0 0 24 24" version="1.1" xmlns="http://www.w3.org/2000/svg" xmlns:xlink="http://www.w3.org/1999/xlink">
            <path d="m 21.859788,12.040845 a 2.1820061,2.2 0 0 0 -0.678405,-1.5 6.0352305,6.085 0 0 0 -2.519226,-2.0159997 16.995844,17.136 0 0 0 -7.165906,-1.433 15.0003,15.124 0 0 0 -6.8286877,1.436 c -1.7049403,0.909 -2.6441947,2.1569997 -2.6441947,3.5129997 a 2.858428,2.882 0 0 0 0.05455,0.557 c 0,0.047 0.00992,0.1 0.016861,0.142 a 1.3528438,1.364 0 0 0 -0.040665,0.331 2.415084,2.435 0 0 0 0.7002256,1.671 c 1.3657375,1.493 4.6149429,2.4 8.5524728,2.4 0.163651,0 0.330276,0 0.495911,0 a 22.407219,22.592 0 0 0 7.310712,-1.129 c 1.67221,-0.653 2.555922,-1.541 2.555922,-2.567 q 0,-0.04 0,-0.081 a 4.2866502,4.322 0 0 0 0.19043,-1.324 z m -16.4364572,-1.124 a 21.962883,22.144 0 0 1 6.3784012,-0.846 21.952965,22.134 0 0 1 6.3784,0.846 c 1.643448,0.526 2.585678,1.238 2.585678,1.952 0,0.714 -0.94223,1.425 -2.585678,1.951 a 21.952965,22.134 0 0 1 -6.3784,0.846 21.962883,22.144 0 0 1 -6.3784012,-0.849 c -1.6424555,-0.526 -2.5846854,-1.237 -2.5846854,-1.951 0,-0.714 0.9422299,-1.422 2.5846854,-1.949 z M 4.7290562,8.6668453 a 14.877314,15 0 0 1 6.7681868,-1.419 c 3.967284,0 7.404935,1.111 9.02557,2.7169996 -1.753539,-1.2699996 -5.029524,-2.1479996 -8.687359,-2.1479996 -4.0595239,0 -7.5021344,1.034 -8.9928413,2.6999997 a 3.0448903,3.07 0 0 0 -0.6357572,1.043 4.3709549,4.407 0 0 1 2.5212088,-2.8919997 z M 19.052935,15.809845 a 22.267372,22.451 0 0 1 -7.251203,1.117 c -4.1120903,0.078 -7.5269298,-0.816 -8.9154792,-2.334 a 2.2038262,2.222 0 0 1 -0.6446836,-1.523 c 0,-0.709 0.6754301,-1.361 1.9231408,-1.873 -0.9838863,0.486 -1.5115351,1.062 -1.5115351,1.672 0,0.825 0.9660336,1.588 2.7195731,2.15 a 22.106697,22.289 0 0 0 6.429976,0.854 22.101738,22.284 0 0 0 6.429975,-0.854 c 1.754531,-0.562 2.720565,-1.325 2.720565,-2.15 a 1.240768,1.251 0 0 0 -0.297547,-0.779 1.7932123,1.808 0 0 1 0.831146,1.348 c -0.003,0.918 -0.865859,1.76 -2.43492,2.373 z"/>

</svg>
