<?xml version="1.0" encoding="UTF-8"?>
<svg width="24px" fill="#44739e" height="24px" viewBox="0 0 24 24" version="1.1" xmlns="http://www.w3.org/2000/svg" xmlns:xlink="http://www.w3.org/1999/xlink">
            <path d="M10.893,2.123A11.078,11.078,0,0,0,7.539,3.141a8.712,8.712,0,0,1,3.03-.556,8.846,8.846,0,0,1,8.88,8.813v.084c.071,5.808-3.9,9.307-7.671,9.574a8.507,8.507,0,0,1-5.027-.962,8.14,8.14,0,0,0,3.818.962,8.912,8.912,0,0,0,8.608-9.186,8.91,8.91,0,0,0-8.608-9.184A8.91,8.91,0,0,0,1.962,11.87a9.275,9.275,0,0,0,4.587,8.119H6.541a9.014,9.014,0,0,0,5.316,1.683c5.8-.2,10.213-3.831,10.1-9.986a9.728,9.728,0,0,0-9.8-9.654,9.626,9.626,0,0,0-1.258.091M7.05,17.408a.051.051,0,0,1-.03,0H6.993a.065.065,0,0,1-.053-.024c-.056-.067.013-.194.607-.967.111-.143.205-.266.258-.343h.006c.178-.176.231-.189.278-.166a.071.071,0,0,1,.033.083A4.65,4.65,0,0,1,7.05,17.408m.547.269H7.558l-.018-.033a5.976,5.976,0,0,1,.778-1.463l.015-.019h.026a.13.13,0,0,1,.13.065c.074.14-.14.467-.4.827l.041-.031-.189.269c-.258.355-.31.389-.346.389Zm.524.4L8.083,18c-.111-.2.139-.638.379-1.059a3.1,3.1,0,0,0,.272-.539l.011-.033h.034a.111.111,0,0,1,.133.053c.147.255-.684,1.531-.733,1.59Zm.624.179-.015.006a.092.092,0,0,1-.046.011.071.071,0,0,1-.05-.017c-.08-.071,0-.334.386-1.286.072-.176.134-.333.152-.389l.014-.044.047.008a.137.137,0,0,1,.1.075c.133.258-.355,1.222-.578,1.62Zm.862-1.506v-.033l.031-.013a.11.11,0,0,1,.147.03c.16.222-.351,1.577-.444,1.679l-.077.081-.016-.111a2.279,2.279,0,0,1,.214-1.111,1.808,1.808,0,0,0,.145-.519Zm-.1-4.892v-.007a.091.091,0,0,1,.1-.054.122.122,0,0,1,.1.087.111.111,0,0,1-.033.125.08.08,0,0,1-.055.022.094.094,0,0,1-.053-.018.135.135,0,0,1-.054-.155m-.018.1c0,.027-.042.248-.142.255H9.337a.066.066,0,0,1-.05-.023c-.03-.034-.015-.077.034-.2.042-.1.071-.162.13-.146s.046.083.041.121Zm2.414,7.862c0,.437-.111.591-1.409.609h-.14c-.666,0-1.021-.072-1.192-.241a.515.515,0,0,1-.132-.389c0-.481.333-.629,1.444-.629s1.444.154,1.444.63ZM9.981,17.332q.068-.27.111-.545l0-.045h.051a.129.129,0,0,1,.111.091,3.4,3.4,0,0,1-.33,1.686l-.071.083L9.836,18.5a3.29,3.29,0,0,1,.145-1.166Zm.539-.2c.016-.138.028-.247.032-.293v-.057l.057.008c.093.014.147.12.165.322.04.429-.1,1.4-.272,1.464l-.029.011-.03-.022c-.047-.037-.056-.2.077-1.43Zm.513-.27a.1.1,0,0,1,.036-.092.117.117,0,0,1,.119-.019c.075.04.079.141.079.923,0,.8-.007.878-.081.909a.131.131,0,0,1-.028,0,.156.156,0,0,1-.095-.054,9.861,9.861,0,0,1-.03-1.666Zm.444-.126.039-.014a.118.118,0,0,1,.137.043,3.412,3.412,0,0,1,.155,1.7.077.077,0,0,1-.063.037h-.006c-.081-.019-.129-.17-.229-1.462l-.021-.26Zm.912,1.616h0a.085.085,0,0,1-.067-.037,5.045,5.045,0,0,1-.343-1.694l.008-.016L12,16.6c.019-.01.082-.035.142.05a5.313,5.313,0,0,1,.32,1.626h.006c-.007.016-.021.067-.067.077ZM13,18.111l-.021.042-.045-.017c-.037-.013-.081-.049-.177-.322A8.789,8.789,0,0,1,12.4,16.5l.008-.009a.1.1,0,0,1,.139-.008A2.828,2.828,0,0,1,13,18.109Zm.58-.3c-.3-.022-.458-.555-.6-1.025a3.068,3.068,0,0,0-.151-.445l-.019-.033.025-.024a.108.108,0,0,1,.105-.037c.161.033.322.467.533,1.078a4.163,4.163,0,0,0,.153.408l.046.086Zm.522-.25a.064.064,0,0,1-.03.008.074.074,0,0,1-.048-.022c-.1-.083-.869-1.294-.778-1.527L13.256,16a.077.077,0,0,1,.088-.02,3.24,3.24,0,0,1,.778,1.505.06.06,0,0,1-.025.067Zm.568-.489a.082.082,0,0,1-.056.087h-.02c-.051,0-.169-.055-.494-.506-.134-.186-.556-.8-.456-.937l.016-.024h.03c.242.022.924,1.208.977,1.354v.01Zm.4-.364-.007.03-.055-.007c-.084-.014-1.077-1.022-1.034-1.31V15.38l.036-.008c.189-.038.98.933,1.068,1.19.031.078.014.117-.008.139Zm.486-.479a.054.054,0,0,1-.015.015.061.061,0,0,1-.025.03.052.052,0,0,1-.032.011c-.055,0-.2-.075-.666-.528-.634-.611-.589-.678-.566-.711a.064.064,0,0,1,.039-.027.077.077,0,0,1,.022-.022c.142-.081.967.818,1,.856.29.311.268.34.241.374Zm.334-.515a.075.075,0,0,1-.053.022c-.053,0-.162-.042-.417-.213-.009,0-.859-.578-.849-.827a.056.056,0,0,1,.011-.078h0c.111-.088,1.06.667,1.228.854.05.049.158.172.083.24Zm.32-.515a.053.053,0,0,1-.032.008,6.781,6.781,0,0,1-1.34-.777c-.023-.019-.056-.047-.045-.084a.128.128,0,0,1,.022-.076l.054.017-.049-.02a.074.074,0,0,1,.071-.044,3.367,3.367,0,0,1,1.326.828.124.124,0,0,1,.018.092.063.063,0,0,1-.022.055Zm.319-.607a.113.113,0,0,1-.065.014,2.8,2.8,0,0,1-.819-.311c-.54-.262-.646-.322-.666-.405a.132.132,0,0,1,.051-.111c.064-.064.123-.045.777.275.171.073.738.327.751.472a.07.07,0,0,1-.029.059Zm.205-.631a.141.141,0,0,1-.1.022,3.761,3.761,0,0,1-1.369-.456c-.129-.1-.085-.186-.06-.222l.02-.022h.031c.172.025,1.35.341,1.464.573a.067.067,0,0,1,.015.092l0,0Zm.138-.611h-.088c-.293,0-1.318-.145-1.467-.378a.13.13,0,0,1,0-.137l.017-.031h.036l.1.015c1.017.137,1.425.277,1.407.477Zm-.094-.626a8.412,8.412,0,0,1-.882-.073h-.043c-.291-.027-.466-.062-.5-.167-.015-.045,0-.1.062-.144l.013-.011h.016A3.552,3.552,0,0,1,17,12.608a.064.064,0,0,1,0,.07c-.018.011-.036.039-.223.039Zm.227-.733c-.056.139-.5.159-.75.159h-.069c-.222,0-.742-.028-.8-.183a.111.111,0,0,1,.051-.131,7.9,7.9,0,0,1,1.522.03.109.109,0,0,1,.046.12Zm0-.622c-.017.1-.186.122-1.2.222h-.049a1.987,1.987,0,0,1-.206.016.215.215,0,0,1-.15-.036.144.144,0,0,1-.044-.111v-.044l.02-.016a2.58,2.58,0,0,1,1.133-.211,1.4,1.4,0,0,0,.212-.016l.011.038.016-.048h.011c.18.084.254.127.242.2Zm-.078-.7c.016.073-.082.118-.124.137a4.958,4.958,0,0,1-1.324.276c-.094,0-.162-.012-.185-.042a.077.077,0,0,1,0-.1,1.917,1.917,0,0,1,.979-.311c.089-.015.184-.029.231-.04v-.028h.068c.281.006.344.043.355.1Zm-.2-.7a.072.072,0,0,1,0,.084,3.032,3.032,0,0,1-1.367.556.336.336,0,0,1-.063-.006.133.133,0,0,1-.122-.111c0-.134.241-.213.635-.333a2.782,2.782,0,0,0,.358-.119h.009c.455-.138.52-.115.552-.074Zm-.43-.655a.151.151,0,0,1,.161,0,.133.133,0,0,1,.06.111.039.039,0,0,1,.013.02c.019.044-.022.075-.038.088a5.5,5.5,0,0,1-1.394.612.1.1,0,0,1-.047-.012.067.067,0,0,1-.026-.07c0-.2.427-.386.948-.592.111-.044.233-.092.284-.12l0-.009Zm-.042-.514c.084.182-1.181.86-1.194.867l-.015.009h-.017c-.073-.007-.171-.026-.188-.1-.025-.117.192-.247.577-.466a4.646,4.646,0,0,0,.422-.256l.011-.006c.274-.094.372-.1.4-.034Zm-.569-.6H15.7c.045-.012.167-.039.2.042.08.189-.8.807-1.031.944a.518.518,0,0,1-.223.093.072.072,0,0,1-.052-.028l-.015-.019V9.2c.049-.276.344-.467.633-.649A2.381,2.381,0,0,0,15.67,8.2Zm-.2-.537a.132.132,0,0,1,.07.092c.009.085-.074.17-.54.617-.205.211-.564.555-.709.555h-.017a.068.068,0,0,1-.051-.05c-.037-.146.444-.591.591-.725.544-.523.564-.545.656-.489m-.606-.433h.012c.08-.025.175-.045.218.018.064.1-.083.277-.434.666a3.583,3.583,0,0,0-.25.293c-.277.3-.355.334-.393.334l-.022-.011a.064.064,0,0,1-.048-.045,4.138,4.138,0,0,1,.9-1.251Zm-.48-.406.04-.064h.022c.03-.011.129-.041.178.024.078.105-.072.345-.437.845a2.7,2.7,0,0,0-.193.282L14,7.924c-.2.231-.289.289-.343.289a.067.067,0,0,1-.043-.016c-.039-.03-.129-.1.545-1.011.133-.2.185-.289.233-.367Zm-.445-.444.009-.023.025-.008a.111.111,0,0,1,.13.022c.026.033.111.13-.256.794-.067.123-.408.732-.539.732h-.033l-.035-.04c-.082-.222.2-.666.445-1.068a3.752,3.752,0,0,0,.24-.417Zm-.555-.3.005-.03.03-.012a.122.122,0,0,1,.145.034c.175.222-.567,1.549-.575,1.562l-.036.055-.056-.041c-.172-.172.024-.566.231-.982a2.892,2.892,0,0,0,.247-.585Zm-.565-.254.007-.03.029-.011a.111.111,0,0,1,.141.045c.147.233-.344,1.5-.46,1.608l-.055.056-.04-.067a1.733,1.733,0,0,1,.2-1.066,3.7,3.7,0,0,0,.173-.534Zm-.681.222c.038-.157.074-.306.1-.423V5.6l.019-.011a.108.108,0,0,1,.111-.011c.041.022.089.077.078.322-.016.4-.205,1.272-.411,1.364l-.067.03-.011-.072a4.174,4.174,0,0,1,.178-1.179Zm-.04,6.053c-.02.042.056.146.012.144a1,1,0,0,1-.239,0,.369.369,0,0,1-.316-.186.3.3,0,0,1,.113-.409l.014-.008a.21.21,0,0,1,.274-.008.447.447,0,0,1,.136.468Zm-.527-6.2c.025-.2.049-.38.046-.426V5.41l.078-.006c.078-.007.129-.011.165.025s.031.1,0,.266a6.521,6.521,0,0,0-.078.651v.01a1.664,1.664,0,0,0-.022.244c-.014.289-.028.485-.111.545a.1.1,0,0,1-.062.022h-.018a.087.087,0,0,1-.055-.034c-.078-.1-.044-.492.056-1.244Zm-.23,5.8c.1-.065.148-.1.186-.056s.009.076-.033.133-.139.188-.111.255v.022c-.009.111.02.166-.03.174h-.051c-.021,0-.008-.012-.021-.039-.029-.064-.078-.381.055-.486Zm-.333-6.332.025-.026a.1.1,0,0,1,.1-.033c.037.014.144.055.151.824,0,.213,0,.917-.141.97a.122.122,0,0,1-.027,0,.077.077,0,0,1-.057-.027,3.545,3.545,0,0,1-.053-1.482c.006-.092.012-.181.012-.209Zm.026,6.256c.147.081.147.334.189.463.111.327-.056.131-.089.142a.377.377,0,0,1-.133.024.391.391,0,0,1-.333-.2.293.293,0,0,1,.115-.4l0,0a.224.224,0,0,1,.24-.033Zm-.555-6.332c.349.1.294,1.506.261,1.733l-.011.071-.065-.029c-.2-.089-.224-.7-.239-1.381a2.542,2.542,0,0,0-.013-.324l-.052-.105Zm.02,6.386c.166.155.086.547.1.677h-.137v-.1c0-.063-.1-.011-.209-.053a.5.5,0,0,1-.222-.168.733.733,0,0,1,.014.141l-.011.18-.093-.168c-.144-.492-.255-.544-.285-.544s-.045,0-.078.058l-.026.04-.049-.014-.043-.019.009-.055.033-.1.005-.02.016-.011a.213.213,0,0,1,.229-.011A.655.655,0,0,1,10,11.9a.507.507,0,0,1,.178-.255l.017-.012a.274.274,0,0,1,.306.039ZM9.846,5.322c.1-.013.191.11.278.4.107.366.267,1.288.1,1.366L10.2,7.1l-.033-.016A3.486,3.486,0,0,1,9.829,5.66c-.011-.092-.024-.185-.039-.277l-.009-.056Zm-.614.1c.059-.008.111.033.174.121a3.186,3.186,0,0,1,.378,1.6l-.042.071-.048-.066a5.327,5.327,0,0,1-.509-1.667l-.011-.06Zm-.587.164a.188.188,0,0,1,.136.07A3.851,3.851,0,0,1,9.37,7.237a.066.066,0,0,1-.06.071H9.305c-.178,0-.7-1.495-.711-1.667V5.575ZM8.04,5.8h.018a.086.086,0,0,1,.047-.011c.245.019.8,1.374.842,1.549.009.034.023.083-.016.112L8.9,7.466l-.022-.015c-.3-.051-.784-1.333-.866-1.555L8,5.863V5.844L8,5.8Zm-.569.3a.111.111,0,0,1,.107-.014c.277.087.914,1.311.961,1.492l.024.1-.1-.033c-.322-.118-.6-.667-.816-1.111-.06-.124-.124-.246-.191-.367l-.022-.036Zm-.524.333a.089.089,0,0,1,.111-.03A4.413,4.413,0,0,1,8.139,7.846l-.011.043H8.094a.091.091,0,0,1-.033,0,.172.172,0,0,1-.05-.011,4.491,4.491,0,0,1-1.069-1.4l-.018-.023ZM6.5,6.778l.019-.009c.033-.008.1-.025.556.444.122.129.733.778.685.922v.012l-.009.011a.126.126,0,0,1-.089.044c-.073,0-.133-.067-.47-.434-.652-.713-.753-.822-.744-.911A.111.111,0,0,1,6.5,6.785ZM6.085,7.2H6.1c.233.119,1.341.944,1.3,1.264a.056.056,0,0,1-.021.06.053.053,0,0,1-.038.016.249.249,0,0,1-.111-.059c-.079-.045-1.334-1.068-1.25-1.246.008-.017.034-.053.1-.036Zm-.478.511.022-.036.04.015A3.96,3.96,0,0,1,7.113,8.762l.018.022L7.12,8.81a.113.113,0,0,1-.069.078H7.022c-.086,0-.242-.116-1.044-.723-.328-.237-.446-.344-.373-.452Zm-.363.515a.067.067,0,0,1,.055-.03,4.814,4.814,0,0,1,1.511.913.162.162,0,0,1,.031.082.069.069,0,0,1,.028.066l-.008.034h-.05A3.759,3.759,0,0,1,5.248,8.273L5.23,8.249ZM4.9,8.767a.074.074,0,0,1,.067-.036.539.539,0,0,1,.266.054,5.217,5.217,0,0,1,1.381.762l.018.058-.061.01a.482.482,0,0,1-.076,0A3.38,3.38,0,0,1,4.9,8.854a.072.072,0,0,1-.011-.089Zm-.295.6a.072.072,0,0,1,.055-.058V9.293l.045,0c.082-.008,1.527.385,1.7.719a.066.066,0,0,1,.012.087c-.008.011-.02.029-.071.029a3.034,3.034,0,0,1-.8-.237c-.967-.366-.95-.477-.944-.52Zm-.1.536c.026-.036.038-.056.738.133.311.085.735.207.916.277.063.024.123.048.111.1a.045.045,0,0,1-.022.036.112.112,0,0,1-.074.073.425.425,0,0,1-.141.019,3.146,3.146,0,0,1-1.533-.5.113.113,0,0,1-.017-.1Zm-.128.61c.291,0,1.563.129,1.748.373.053.033.055.067.044.092-.015.044-.1.059-.227.059a4.3,4.3,0,0,1-.641-.069c-.445-.074-.978-.2-.978-.4v-.051Zm-.115.644.014-.022h.028c.013,0,1.466-.053,1.713.214a.152.152,0,0,1,.042.125V11.5l-.02.014a1.008,1.008,0,0,1-.3.025,3.628,3.628,0,0,1-1.459-.222.111.111,0,0,1-.019-.156Zm-.029.63.016-.024h.072c1.588-.147,1.688.033,1.719.093a.142.142,0,0,1-.033.167L6,12.04H5.966l-.822,0H5.122l-.011-.007a1.892,1.892,0,0,0-.213,0c-.1,0-.189.008-.273.008-.207,0-.358-.022-.409-.1a.135.135,0,0,1,.011-.148Zm.019.7a.1.1,0,0,1,.018-.042c.077-.1.444-.138,1.148-.182.134-.008.27-.016.328-.024v-.02l.056.009c.193.033.27.071.274.135s-.078.111-.152.13a5.524,5.524,0,0,1-1.267.159c-.211,0-.372-.022-.411-.078a.08.08,0,0,1,0-.089Zm.162.777-.033-.016v-.027a.188.188,0,0,1,.026-.156c.111-.156.487-.2.85-.234a1.818,1.818,0,0,0,.533-.1l.015-.011h.011c.242.017.3.051.317.1a.08.08,0,0,1-.036.093,5.538,5.538,0,0,1-1.617.356.161.161,0,0,1-.069-.009Zm.181.578a.137.137,0,0,1-.111-.119v-.031l.027-.017a2.971,2.971,0,0,1,.827-.29,4.626,4.626,0,0,0,.528-.155h.014c.234-.022.3,0,.32.049a.082.082,0,0,1-.017.1,3.27,3.27,0,0,1-1.456.485.46.46,0,0,1-.133-.019Zm.205.651-.023-.022a.164.164,0,0,1-.044-.164c.044-.166.381-.27.735-.38a2.1,2.1,0,0,0,.491-.186l.011-.007h.012c.316-.055.417-.05.433.027.04.2-1.567.726-1.584.73Zm.235.525a.1.1,0,0,1-.082-.081v-.024c.078-.176.4-.32.752-.475a3.425,3.425,0,0,0,.514-.257l.014-.007c.275-.091.346-.085.381-.044a.075.075,0,0,1,0,.092,4.025,4.025,0,0,1-1.547.8l-.029,0Zm.272.545a.082.082,0,0,1-.038-.051.059.059,0,0,1-.027-.035c-.027-.071.044-.133.852-.629.178-.111.344-.211.427-.266l.014-.008c.171-.058.246-.06.28-.009s-.018.122-.076.18a4.18,4.18,0,0,1-1.382.829.1.1,0,0,1-.046-.011Zm.376.555a.074.074,0,0,1-.045-.066v-.017a.916.916,0,0,1,.48-.522,2.286,2.286,0,0,0,.433-.324c.445-.333.528-.293.556-.282a.071.071,0,0,1,.041.056c.011.133-.433.486-.82.747l-.013.007-.122.1c-.289.233-.411.311-.484.311a.094.094,0,0,1-.022-.012Zm.344.518L6,16.623l-.011-.038c-.029-.13.678-.833,1.074-1.166.111-.111.211-.168.289-.148a.1.1,0,0,1,.075.078.312.312,0,0,1-.15.262c-.989.931-1.167,1.024-1.222,1.024H6.033Zm.514.4a.052.052,0,0,1-.027-.007.071.071,0,0,1-.064-.033c-.048-.075.047-.2.6-.792.2-.215.389-.417.464-.524l.008-.013.017-.005c.036-.013.141-.05.187.017.086.131-.315.581-.667.937s-.463.419-.513.419Zm4.466-4.993a.127.127,0,0,0,.064-.1.148.148,0,0,0-.056-.128.186.186,0,0,0-.1-.041.078.078,0,0,0-.055.023.212.212,0,0,0-.026.242c.034.048.091.048.171,0m-.533,7.347c-1.23,0-1.23.2-1.23.42a.305.305,0,0,0,.074.24c.133.132.508.189,1.182.18a3.146,3.146,0,0,0,1.1-.122c.1-.052.111-.112.111-.278V19.8c0-.2,0-.418-1.233-.418m1.308-7.617a.163.163,0,0,0-.1.137.132.132,0,0,0,.086.128.112.112,0,0,0,.155-.026h0a.148.148,0,0,0-.005-.2.131.131,0,0,0-.094-.046.168.168,0,0,0-.039.007Zm-1.6.189c.023.054.056.111.125.111a.187.187,0,0,0,.149-.139.129.129,0,0,0-.08-.147.123.123,0,0,0-.059-.015.149.149,0,0,0-.1.04.136.136,0,0,0-.041.151"/>

</svg>