<svg xmlns="http://www.w3.org/2000/svg" viewBox="0 0 24 24"><path fill="#44739e" d="M20.992 2.152H9.576v6.403H22V3.16a1.01 1.01 0 0 0-1.008-1.008M9.576 21.835h11.412A1.01 1.01 0 0 0 22 20.827v-5.439H9.576ZM2 3.174V20.84a1.01 1.01 0 0 0 1.008 1.008h6.225V2.165H3.008A1.01 1.01 0 0 0 2 3.173m3.861 2.529a.29.29 0 1 1-.289.288.29.29 0 0 1 .29-.288m0 .814a.29.29 0 1 1-.289.29.29.29 0 0 1 .29-.291m0 .816a.29.29 0 1 1-.289.288.29.29 0 0 1 .29-.288m0 .814a.29.29 0 1 1-.289.29.29.29 0 0 1 .29-.291m0 .816a.29.29 0 1 1-.289.289.29.29 0 0 1 .29-.29m0 .815a.29.29 0 1 1-.289.289.29.29 0 0 1 .29-.289m0 .815a.29.29 0 1 1-.289.289.29.29 0 0 1 .29-.29m0 .815a.29.29 0 1 1-.289.289.29.29 0 0 1 .29-.291Zm0 .815a.29.29 0 1 1-.289.289.29.29 0 0 1 .29-.29m0 .815a.29.29 0 1 1-.289.29.29.29 0 0 1 .29-.291m0 .816a.29.29 0 1 1-.289.289.29.29 0 0 1 .29-.289m0 .815a.29.29 0 1 1-.289.289.29.29 0 0 1 .29-.29m0 .815a.29.29 0 1 1-.289.289.29.29 0 0 1 .29-.289m0 .816a.289.289 0 1 1-.289.288.29.29 0 0 1 .29-.288m0 .814a.29.29 0 1 1-.289.29.29.29 0 0 1 .29-.286ZM9.593 8.86H22v6.209H9.58Z"/></svg>