<?xml version="1.0" encoding="UTF-8"?>
<svg width="24px" fill="#44739e" height="24px" viewBox="0 0 24 24" version="1.1" xmlns="http://www.w3.org/2000/svg" xmlns:xlink="http://www.w3.org/1999/xlink">
            <path d="M 21.6,12.246 A 9.612,9.612 0 0 0 21.414,10.8 c 0.028,-0.052 0.046,-0.092 0.05,-0.1 A 7.6,7.6 0 0 0 21.6,9.123 11.285,11.285 0 0 0 21.4,7.571 7.6,7.6 0 0 0 21.527,6 c 0,-0.3 0,-0.543 -0.015,-0.747 a 3.562,3.562 0 0 1 -1.034,0.944 1.33,1.33 0 0 1 -0.177,0.151 11.478,11.478 0 0 1 -2.812,1.065 c -0.364,0.048 -0.744,0.093 -1.134,0.133 a 29.5,29.5 0 0 1 -4.422,0.3 H 11.914 A 19.25,19.25 0 0 1 4.267,6.675 4.26,4.26 0 0 1 2.538,5.366 0.107,0.107 0 0 0 2.511,5.382 C 2.28,5.57 2.277,6.63 2.505,7.372 c 0.266,0.868 1.718,2.885 9.408,2.885 h 0.019 c 4.975,0 7.351,-0.907 8.479,-1.667 a 0.342,0.342 0 0 1 0.291,0.265 c 0.073,0.316 -0.222,0.534 -0.333,0.616 a 11.493,11.493 0 0 1 -2.812,1.065 C 13.4,11.082 7.4,11.19 4.156,9.7 A 1.949,1.949 0 0 1 3.665,9.317 3.574,3.574 0 0 1 2.965,9.075 C 2.775,8.985 2.601,9.01 2.545,8.759 2.531,8.7 2.52,8.652 2.51,8.6 a 3.42,3.42 0 0 0 0.062,1.9 c 0.267,0.868 1.718,2.885 9.409,2.885 H 12 c 4.938,0 7.317,-0.894 8.454,-1.651 a 0.334,0.334 0 0 1 0.248,0.246 c 0.073,0.315 -0.222,0.534 -0.333,0.616 a 11.534,11.534 0 0 1 -2.812,1.065 C 13.4,14.206 7.396,14.315 4.157,12.825 A 1.943,1.943 0 0 1 3.666,12.443 3.65,3.65 0 0 1 2.966,12.2 C 2.776,12.111 2.602,12.136 2.546,11.885 2.533,11.828 2.522,11.777 2.512,11.728 a 3.42,3.42 0 0 0 0.062,1.895 c 0.267,0.868 1.718,2.885 9.409,2.885 H 12 c 4.938,0 7.317,-0.894 8.454,-1.65 a 0.332,0.332 0 0 1 0.248,0.246 c 0.073,0.315 -0.222,0.533 -0.333,0.615 a 11.493,11.493 0 0 1 -2.812,1.065 C 13.4,17.33 7.396,17.439 4.157,15.949 A 1.966,1.966 0 0 1 3.666,15.567 3.65,3.65 0 0 1 2.966,15.324 C 2.776,15.234 2.602,15.259 2.546,15.008 2.533,14.952 2.522,14.9 2.512,14.852 a 3.42,3.42 0 0 0 0.062,1.895 c 0.267,0.868 1.718,2.885 9.409,2.885 H 12 c 8.386,0 9.419,-2.577 9.459,-2.686 a 7.6,7.6 0 0 0 0.141,-1.576 9.612,9.612 0 0 0 -0.186,-1.446 1.072,1.072 0 0 0 0.05,-0.1 7.6,7.6 0 0 0 0.136,-1.578 z M 3.283,7.568 c -0.109,0 -0.2,-0.2 -0.2,-0.453 0,-0.253 0.087,-0.452 0.2,-0.452 0.113,0 0.2,0.2 0.2,0.452 0,0.252 -0.092,0.453 -0.2,0.453 z m 1.078,0.624 c -0.108,0 -0.2,-0.2 -0.2,-0.452 0,-0.252 0.088,-0.452 0.2,-0.452 0.112,0 0.2,0.2 0.2,0.452 0,0.252 -0.092,0.452 -0.2,0.452 z m 1.184,0.452 c -0.108,0 -0.2,-0.2 -0.2,-0.452 0,-0.252 0.088,-0.452 0.2,-0.452 0.112,0 0.2,0.2 0.2,0.452 0,0.252 -0.091,0.452 -0.2,0.452 z m 1.228,0.27 c -0.126,0 -0.229,-0.2 -0.229,-0.452 0,-0.252 0.1,-0.452 0.229,-0.452 0.129,0 0.228,0.2 0.228,0.452 0,0.252 -0.101,0.452 -0.228,0.452 z M 8.165,9.2 C 8.014,9.2 7.892,8.976 7.892,8.7 c 0,-0.276 0.122,-0.5 0.273,-0.5 0.151,0 0.273,0.225 0.273,0.5 0,0.275 -0.122,0.5 -0.273,0.5 z M 9.8,9.429 C 9.638,9.429 9.508,9.198 9.508,8.914 9.508,8.63 9.637,8.4 9.8,8.4 c 0.163,0 0.291,0.231 0.291,0.515 0,0.284 -0.131,0.514 -0.291,0.514 z m 1.772,0.063 c -0.161,0 -0.291,-0.231 -0.291,-0.515 0,-0.284 0.13,-0.515 0.291,-0.515 0.161,0 0.292,0.23 0.292,0.515 0,0.285 -0.131,0.515 -0.293,0.515 z m 1.818,0 c -0.161,0 -0.291,-0.231 -0.291,-0.515 0,-0.284 0.13,-0.515 0.291,-0.515 0.161,0 0.292,0.23 0.292,0.515 0,0.285 -0.131,0.515 -0.293,0.515 z m 1.755,-0.123 c -0.161,0 -0.292,-0.231 -0.292,-0.515 0,-0.284 0.131,-0.515 0.292,-0.515 0.161,0 0.292,0.23 0.292,0.515 0,0.285 -0.132,0.515 -0.293,0.515 z M 16.7,9.16 c -0.161,0 -0.292,-0.231 -0.292,-0.516 0,-0.285 0.131,-0.515 0.292,-0.515 0.161,0 0.292,0.231 0.292,0.515 0,0.284 -0.136,0.516 -0.292,0.516 z m 1.5,-0.306 c -0.161,0 -0.292,-0.231 -0.292,-0.515 0,-0.284 0.131,-0.515 0.292,-0.515 0.161,0 0.292,0.23 0.292,0.515 0,0.285 -0.136,0.515 -0.292,0.515 z m 1.287,-0.413 c -0.135,0 -0.244,-0.231 -0.244,-0.515 0,-0.284 0.109,-0.515 0.244,-0.515 0.135,0 0.245,0.23 0.245,0.515 0,0.285 -0.115,0.515 -0.25,0.515 z M 3.35,10.694 c -0.108,0 -0.2,-0.2 -0.2,-0.452 0,-0.252 0.088,-0.452 0.2,-0.452 0.112,0 0.2,0.2 0.2,0.452 0,0.252 -0.091,0.452 -0.2,0.452 z m 1.079,0.625 c -0.108,0 -0.2,-0.2 -0.2,-0.452 0,-0.252 0.088,-0.452 0.2,-0.452 0.112,0 0.2,0.2 0.2,0.452 0,0.252 -0.092,0.452 -0.2,0.452 z m 1.184,0.452 c -0.108,0 -0.2,-0.2 -0.2,-0.452 0,-0.252 0.088,-0.452 0.2,-0.452 0.112,0 0.2,0.2 0.2,0.452 0,0.252 -0.092,0.452 -0.2,0.452 z m 1.228,0.27 c -0.127,0 -0.229,-0.2 -0.229,-0.452 0,-0.252 0.1,-0.452 0.229,-0.452 0.129,0 0.228,0.2 0.228,0.452 0,0.252 -0.102,0.452 -0.228,0.452 z m 1.392,0.281 c -0.151,0 -0.273,-0.224 -0.273,-0.5 0,-0.276 0.122,-0.5 0.273,-0.5 0.151,0 0.272,0.225 0.272,0.5 0,0.275 -0.122,0.5 -0.272,0.5 z m 1.633,0.234 c -0.161,0 -0.292,-0.231 -0.292,-0.515 0,-0.284 0.131,-0.515 0.292,-0.515 0.161,0 0.292,0.23 0.292,0.515 0,0.285 -0.131,0.515 -0.292,0.515 z m 1.773,0.063 c -0.161,0 -0.292,-0.231 -0.292,-0.515 0,-0.284 0.131,-0.515 0.292,-0.515 0.161,0 0.292,0.23 0.292,0.515 0,0.285 -0.131,0.515 -0.292,0.515 z m 1.818,0 c -0.161,0 -0.292,-0.231 -0.292,-0.515 0,-0.284 0.131,-0.515 0.292,-0.515 0.161,0 0.292,0.23 0.292,0.515 0,0.285 -0.131,0.515 -0.292,0.515 z m 1.755,-0.123 c -0.162,0 -0.292,-0.231 -0.292,-0.516 0,-0.285 0.13,-0.515 0.292,-0.515 0.162,0 0.291,0.231 0.291,0.515 0,0.284 -0.13,0.52 -0.291,0.52 z m 1.551,-0.21 c -0.162,0 -0.292,-0.23 -0.292,-0.515 0,-0.285 0.13,-0.515 0.292,-0.515 0.162,0 0.291,0.231 0.291,0.515 0,0.284 -0.13,0.515 -0.291,0.515 z m 1.5,-0.306 c -0.162,0 -0.292,-0.23 -0.292,-0.515 0,-0.285 0.13,-0.515 0.292,-0.515 0.162,0 0.292,0.231 0.292,0.515 0,0.284 -0.131,0.515 -0.292,0.515 z m 1.287,-0.412 c -0.135,0 -0.244,-0.231 -0.244,-0.515 0,-0.284 0.109,-0.515 0.244,-0.515 0.135,0 0.245,0.23 0.245,0.515 0,0.285 -0.11,0.515 -0.245,0.515 z m -16.2,2.25 c -0.108,0 -0.2,-0.2 -0.2,-0.452 0,-0.252 0.088,-0.452 0.2,-0.452 0.112,0 0.2,0.2 0.2,0.452 0,0.252 -0.091,0.452 -0.2,0.452 z m 1.079,0.625 c -0.108,0 -0.2,-0.2 -0.2,-0.452 0,-0.252 0.088,-0.453 0.2,-0.453 0.112,0 0.2,0.2 0.2,0.453 0,0.253 -0.092,0.452 -0.2,0.452 z m 1.184,0.452 c -0.108,0 -0.2,-0.2 -0.2,-0.452 0,-0.252 0.088,-0.452 0.2,-0.452 0.112,0 0.2,0.2 0.2,0.452 0,0.252 -0.092,0.457 -0.2,0.457 z m 1.228,0.269 c -0.127,0 -0.229,-0.2 -0.229,-0.452 0,-0.252 0.1,-0.452 0.229,-0.452 0.129,0 0.228,0.2 0.228,0.452 0,0.252 -0.102,0.452 -0.228,0.452 z m 1.392,0.282 c -0.151,0 -0.273,-0.225 -0.273,-0.5 0,-0.275 0.122,-0.5 0.273,-0.5 0.151,0 0.272,0.224 0.272,0.5 0,0.276 -0.122,0.5 -0.272,0.5 z m 1.633,0.234 c -0.161,0 -0.292,-0.231 -0.292,-0.516 0,-0.285 0.131,-0.515 0.292,-0.515 0.161,0 0.292,0.231 0.292,0.515 0,0.284 -0.131,0.516 -0.292,0.516 z m 1.773,0.062 c -0.161,0 -0.292,-0.23 -0.292,-0.515 0,-0.285 0.131,-0.515 0.292,-0.515 0.161,0 0.292,0.231 0.292,0.515 0,0.284 -0.131,0.515 -0.292,0.515 z m 1.818,0 c -0.161,0 -0.292,-0.23 -0.292,-0.515 0,-0.285 0.131,-0.515 0.292,-0.515 0.161,0 0.292,0.231 0.292,0.515 0,0.284 -0.131,0.515 -0.292,0.515 z m 1.755,-0.123 c -0.162,0 -0.292,-0.23 -0.292,-0.515 0,-0.285 0.13,-0.515 0.292,-0.515 0.162,0 0.291,0.231 0.291,0.515 0,0.284 -0.13,0.515 -0.291,0.515 z m 1.551,-0.209 c -0.162,0 -0.292,-0.231 -0.292,-0.515 0,-0.284 0.13,-0.515 0.292,-0.515 0.162,0 0.291,0.23 0.291,0.515 0,0.285 -0.13,0.515 -0.291,0.515 z m 1.5,-0.306 c -0.162,0 -0.292,-0.23 -0.292,-0.515 0,-0.285 0.13,-0.515 0.292,-0.515 0.162,0 0.292,0.231 0.292,0.515 0,0.284 -0.131,0.511 -0.292,0.511 z m 1.287,-0.413 c -0.135,0 -0.244,-0.23 -0.244,-0.515 0,-0.285 0.109,-0.515 0.244,-0.515 0.135,0 0.245,0.231 0.245,0.515 0,0.284 -0.11,0.515 -0.245,0.515 z m -16.2,2.251 c -0.108,0 -0.2,-0.2 -0.2,-0.453 0,-0.253 0.088,-0.452 0.2,-0.452 0.112,0 0.2,0.2 0.2,0.452 0,0.252 -0.091,0.453 -0.2,0.453 z m 1.079,0.624 c -0.108,0 -0.2,-0.2 -0.2,-0.452 0,-0.252 0.088,-0.452 0.2,-0.452 0.112,0 0.2,0.2 0.2,0.452 0,0.252 -0.092,0.452 -0.2,0.452 z m 1.184,0.453 c -0.108,0 -0.2,-0.2 -0.2,-0.453 0,-0.253 0.088,-0.452 0.2,-0.452 0.112,0 0.2,0.2 0.2,0.452 0,0.252 -0.092,0.453 -0.2,0.453 z m 1.228,0.269 c -0.127,0 -0.229,-0.2 -0.229,-0.452 0,-0.252 0.1,-0.452 0.229,-0.452 0.129,0 0.228,0.2 0.228,0.452 0,0.252 -0.102,0.452 -0.228,0.452 z m 1.392,0.281 c -0.151,0 -0.273,-0.224 -0.273,-0.5 0,-0.276 0.122,-0.5 0.273,-0.5 0.151,0 0.272,0.225 0.272,0.5 0,0.275 -0.122,0.5 -0.272,0.5 z m 1.633,0.234 c -0.161,0 -0.292,-0.23 -0.292,-0.515 0,-0.285 0.131,-0.515 0.292,-0.515 0.161,0 0.292,0.231 0.292,0.515 0,0.284 -0.131,0.512 -0.292,0.512 z m 1.773,0.063 c -0.161,0 -0.292,-0.231 -0.292,-0.515 0,-0.284 0.131,-0.515 0.292,-0.515 0.161,0 0.292,0.23 0.292,0.515 0,0.285 -0.131,0.515 -0.292,0.515 z m 1.818,0 c -0.161,0 -0.292,-0.231 -0.292,-0.515 0,-0.284 0.131,-0.515 0.292,-0.515 0.161,0 0.292,0.23 0.292,0.515 0,0.285 -0.131,0.515 -0.292,0.515 z m 1.755,-0.123 c -0.162,0 -0.292,-0.231 -0.292,-0.515 0,-0.284 0.13,-0.515 0.292,-0.515 0.162,0 0.291,0.23 0.291,0.515 0,0.285 -0.13,0.515 -0.291,0.515 z m 1.551,-0.209 c -0.162,0 -0.292,-0.231 -0.292,-0.515 0,-0.284 0.13,-0.516 0.292,-0.516 0.162,0 0.291,0.231 0.291,0.516 0,0.285 -0.13,0.515 -0.291,0.515 z m 1.5,-0.306 c -0.162,0 -0.292,-0.231 -0.292,-0.515 0,-0.284 0.13,-0.515 0.292,-0.515 0.162,0 0.292,0.23 0.292,0.515 0,0.285 -0.131,0.515 -0.292,0.515 z m 1.287,-0.413 c -0.135,0 -0.244,-0.231 -0.244,-0.515 0,-0.284 0.109,-0.515 0.244,-0.515 0.135,0 0.245,0.23 0.245,0.515 0,0.285 -0.11,0.515 -0.245,0.515 z M 20.7,6.773 c 0.142,0 0.257,0.231 0.257,0.515 0,0.284 -0.115,0.515 -0.257,0.515 -0.142,0 -0.257,-0.231 -0.257,-0.515 0,-0.284 0.118,-0.515 0.257,-0.515 z M 20.771,9.9 c 0.142,0 0.257,0.23 0.257,0.515 0,0.285 -0.115,0.515 -0.257,0.515 -0.142,0 -0.258,-0.231 -0.258,-0.515 0,-0.284 0.116,-0.515 0.258,-0.515 z m 0,3.123 c 0.142,0 0.257,0.231 0.257,0.515 0,0.284 -0.115,0.515 -0.257,0.515 -0.142,0 -0.258,-0.23 -0.258,-0.515 0,-0.285 0.116,-0.515 0.258,-0.515 z m 0,4.154 c -0.142,0 -0.258,-0.23 -0.258,-0.515 0,-0.285 0.116,-0.515 0.258,-0.515 0.142,0 0.257,0.231 0.257,0.515 0,0.284 -0.115,0.515 -0.257,0.515 z"/>

</svg>