<svg xmlns="http://www.w3.org/2000/svg" fill="#44739e" width="24" height="24" version="1.1" viewBox="0 0 24000 24000"><path d="m11314 8479-15 15 5 20 20 6 15-15-5-20zm-936-498-80 60 4 99 86 44 80-53-4-95Zm848-1040 169 30-123-110-82-100v150l11 33zm-14 940-20 30 15 37 36 2 20-30-16-31Zm-575-50-32 40 15 48 48 10 32-35-15-45Zm478-270 54-151-106-124-160 30-55 155 107 124zm-207 1300 70 150 165 20 98-134-68-155-167-17zm-616 75v40l35 20 34-20v-40l-34-20ZM9518 7100l16-32-20-30h-37l-16 34 20 30Zm-382 2170-20 96 70 66 93-29 22-95-72-66Zm537-1453-30-122-120-34-90 87 30 120 120 36Zm671 1678v10l8 5 9-5v-10l-10-5Zm354-2226-5 44 36 27 40-18 6-44-36-26ZM9674 9420l-51 66 32 77 83 10 51-65-32-77Zm85-662-51-137-144-20-94 118 51 137 145 25Zm6258 8542 119-7826a1824 1824 0 00 22-266c0-46-6-90-10-135l96-5525-100 100v100l-107 4913c-40-67-87-117-148-117s-138 63-186 179a484 484 0 00-221-356 422 422 0 00-471-566c-15-200-140-358-292-358a241 241 0 00-163 66 314 314 0 00 67-193 386 386 0 00-360-357 345 345 0 00-230-90 332 332 0 00-167 45c-48-178-152-290-260-290-110 0-200 100-253 258a438 438 0 00-384-230 422 422 0 00-123 14l-5-7a413 413 0 00-577-100c-34-203-148-350-287-350a281 281 0 00-240 190l-16-10a535 535 0 00-310-137 328 328 0 00-280 106 311 311 0 00-71 168l-37-16a438 438 0 00-800-74 439 439 0 00-800 100 375 375 0 00-450-100 386 386 0 00-211 280 400 400 0 00-326 237 279 279 0 00-80-13 292 292 0 00-291 294 306 306 0 00 10 74 309 309 0 00-160 138 427 427 0 00-342 315 449 449 0 00-166-31 411 411 0 00-422 400 400 400 0 00 184 330 383 383 0 00-117 124 260 260 0 00-155-53c-188 0-334 212-334 480a648 648 0 00 34 215 318 318 0 00-157 264 282 282 0 00 9 70l-7 12c-18 44 26 77 59 100-4 525 45 1600-107 1677v7c-32 13-84-41-130-93l-100-60c19 528 179 4728 207 6527 0 0 82 842 1818 1500a4843 4843 0 00-27 1284c82 526 620 800 954 1020 642 418 3455 500 4600 415 3270-255 3700-278 4037-767V18880c4-1035-565-988-1748-1582ZM7200 9333v-6l20-31-26-27-17-20-50-60-27 69a650 650 0 01-20 38v10c-110-25-221-40-330-68l-40-14v-7a546 546 0 01-40-200c0-212 114-384 240-384a189 189 0 01 136 68l50 66 29-70a270 270 0 01 166-175l49-9 52 30a186 186 0 01 59 51l56 54 28 86a665 665 0 01 10 353l-20 60h144l-18-60a586 586 0 01-6-96 551 551 0 01 38-200l15-46-40-20a277 277 0 01-60-40l-58-58-16-78a417 417 0 01 0-50V8430l-60 10a570 570 0 01-57 6h-60l-60-20a306 306 0 01-215-286 317 317 0 01 328-300 351 351 0 01 178 50l71 36V7840a325 325 0 01 300-300h22l10-26a231 231 0 01 152-119l53-17-23-49a205 205 0 01-17-74 200 200 0 01 193-207 189 189 0 01 87 21l50 27 17-54a305 305 0 01 293-218h54V6780a288 288 0 01 164-238 283 283 0 01 374 141c0 12 10 25 12 38l10 35h86V6670a346 346 0 01 681-87l22 87-22 87a291 291 0 01-12 39v38a239 239 0 01-18 92l-26 66h311l-76-80a358 358 0 01-80-155l-28-85 22-87a345 345 0 01 667-12l7 25 24 7a319 319 0 01 109 58l100 82-14-120a210 210 0 01 0-78 218 218 0 01 247-184h7a441 441 0 01 254 113 576 576 0 01 60 62l55 70 26-85c36-122 106-200 177-200 100 0 194 157 200 357v126l80-100a318 318 0 01 447-45 328 328 0 01 76 90l20 46 39-17a333 333 0 01 129-25 345 345 0 01 343 346 326 326 0 01-21 116l-15 50 52 14 26 6 66 17-10-62v-90c0-254 107-431 200-431 78 0 156 118 185 280l14 80 63-59a244 244 0 01 345 0l10 10h17a300 300 0 01 290 265 275 275 0 01-200 244l-20 8-8 22-18 30-22 43 35 28a656 656 0 00 75 38l90 36 50 19 15-53c30-110 105-183 182-183 108 0 200 136 200 300v100l65-25a310 310 0 01 114-20 329 329 0 01 318 338 334 334 0 01-40 145l-30 56 60 6c100 22 192 170 212 358v45h44a73 73 0 01 36 0l48 20 16-50c38-125 88-181 120-181 50-4 110 106 144 283l-6 252v7c-331 157-1164 400-3927 470a15575 15575 0 01-4890-305Zm7315-1778h-5a414 414 0 00-49 87l-46-18a421 421 0 00 97-69ZM10680 15930v-15a1493 1493 0 01-83-279v-31a1451 1451 0 01-29-228v-60l-35-3410a1583 1583 0 01 1487-1627h67a1581 1581 0 01 247 19c32 5 64 7 100 13a1563 1563 0 01 222 64c23 8 46 14 69 24a1630 1630 0 01 220 113c14 9 30 16 44 26a1710 1710 0 01 200 160l31 27a1643 1643 0 01 173 200l22 29a1538 1538 0 01 133 233 240 240 0 01 17 32 1646 1646 0 01 85 257 182 182 0 00 11 38 1749 1749 0 01 33 269 100 100 0 00 0 38c5 13 0 18 0 26a523 523 0 01 0 56l-34 3414a1582 1582 0 01-1479 1590h-24c-55 0-89-6-122-7a1576 1576 0 01-238-27 236 236 0 01-56-16 1424 1424 0 01-239-80l-35-16a1575 1575 0 01-234-131l-18-14a1554 1554 0 01-213-184l-2-10a1652 1652 0 01-182-225v-8a1435 1435 0 01-138-260Zm47 3378-26 15-27-15v-31l27-15 37 15zm73-354v-14a415 415 0 00 68 22h-11zm179 700v-21a331 331 0 00 80 31v6zm170-392-50 29-50-30v-60l45-30 50 31zm131-245 20-17 4 13zm87 407-40-11-10-41 30-29 41 12 10 40zm92 311 5-13 4 13zm10-549-30-11-5-30 25-20 30 10 4 31zm282 357h-36l-20-30 15-33h36l20 30zm176-230-35 20-35-20v-41l35-20 34 20zm-30-240a100 100 0 00 30-73 86 86 0 00-5-27h10a114 114 0 00 23 43 478 478 0 00-60 57zm175 729 5-11-10 11a135 135 0 00 37-89 91 91 0 00 0-33l5 10h7a155 155 0 00 26 55 300 300 0 00-70 55zm156-509-24-7-5-23 20-16 21 7v23zm180-130v15l-14 8-14-8v-15l13-8zm-14-130a139 139 0 00 30-33 81 81 0 00 13 30l-6-6zm43 229-29 9-20-20 6-30 27-9 22 21zm176 477-17 8-25 13v-10a157 157 0 00 30-45 220 220 0 00 15 36zm100-274-28 13-26-17v-30l28-3 25 17zm200-357a242 242 0 00-77-63h30a408 408 0 00 71 11h31a400 400 0 00-10 48h-44zm52 312h-30l-10-26 16-22h28l20 28Zm174 425H13100a259 259 0 00-75-75 263 263 0 00 40 6 284 284 0 00 65 10h28a300 300 0 00-10 60zm-36-480-8 20h-22l-13-18 10-20h20zm-10-116 20-9 17 7v15l-18 10-20-8zm133 391h-8v-13h7v6zm200-571a113 113 0 00 0 26h-44v-19l46-16zm46 300h-27l-13-23 13-22h26l13 23zm66-100v-15l12-7 10 7v15h-10zm30 573h-7v-23a300 300 0 00 46-19h6l5 36zm207-745 30-41h48l20 45-28 40h-50zm288 386-16 36a300 300 0 00-125-38 287 287 0 00-77 10v-20a436 436 0 00 215-16l6 12zm227 165-16 10-16-10v-18l16-10 16 10zm40-253h-20v-10l10-6 10 6zm0-200h-25l-13-23 14-22h26l12 23zm85 89-25-10-6-26 20-18 27 9v27zm238 300h-8a128 128 0 01-7-34 176 176 0 00 46 6 221 221 0 00 20 34 448 448 0 00-50-11zm390 6h-22l-10-20 12-20h23l10 20zm253 0-50 7-30-40 20-47 50-10 30 40zm2186-726c-185 356-728 630-1618 815v-11l-38 9-30-26a157 157 0 00-27-20l-45-25h28l46-10-15-6-24-18a300 300 0 00 50-158 279 279 0 00-278-281 273 273 0 00-183 69 275 275 0 00-155-133l-14-6a286 286 0 00-170 14h-34a200 200 0 00-43 33 300 300 0 00-34 25 294 294 0 00-92 36 200 200 0 00-77-37 282 282 0 00-525-72 240 240 0 00-76 44 337 337 0 00-107-50 323 323 0 00-155-224 353 353 0 00-125-22h-19a251 251 0 00-148 100 263 263 0 00-166-90h-20a265 265 0 00-150 41c-10 6-22 0-30 10a264 264 0 00-44 51 388 388 0 00-26 31 290 290 0 00-85-30 200 200 0 00-346-24 230 230 0 00-229-150 216 216 0 00-230 190l-6 10a200 200 0 00 0 34V19000h-8a200 200 0 00-237-139h-20a181 181 0 00-73 43 189 189 0 00-53 86c1 6-5 10-6 15l-6 12a200 200 0 00 36 110l-10 26a337 337 0 00-123-124 308 308 0 00-267-160 300 300 0 00-188 67 231 231 0 00-134-44 226 226 0 00-156 62 220 220 0 00-170-85 236 236 0 00-227 235 312 312 0 00-99-16 269 269 0 00-277 248 26 26 0 00-7 11 245 245 0 00 64 165c64 18 131 34 200 51l70 81 16 20-260-70c-1012-274-1600-654-1600-1043v-23a790 790 0 01 42-285c105-280 800-690 1940-1000l3516-93a10010 10010 0 01 2458 600c565 232 886 500 900 750a632 632 0 01-74 346Zm-4350-4286a200 200 0 00 60-45 186 186 0 00 45-57c0-7 11-10 13-15a215 215 0 00 0-118 191 191 0 00-120-120 194 194 0 00-133 14 186 186 0 00-57 47 174 174 0 00-46 58c0 6-10 9-14 16a191 191 0 00 0 116 185 185 0 00 116 117 200 200 0 00 133-13zm-1597-2942a41 41 0 00 48 27c48-11 44-73 15-100a41 41 0 00-56 10 61 61 0 00-8 63zm627 2985a200 200 0 00 200-170c1 0 11-10 11-20s-6-10-7-20a200 200 0 00-184-180 193 193 0 00-149 70 200 200 0 00-57 123v6a200 200 0 00 51 137 200 200 0 00 137 60zm-1270 1310a1376 1376 0 00 90 150 1108 1108 0 00 337 390l13 13a1335 1335 0 00 184 113c21 12 41 26 63 37a1423 1423 0 00 158 59c40 13 78 30 120 40l21 9a1500 1500 0 00 251 36c886 0 1500-1280 1325-1890l-450 25-2106 70-100 7a1448 1448 0 00-28 217 90 90 0 01 0 36 1490 1490 0 00 27 360 1311 1311 0 00 47 145 1352 1352 0 00 57 186zm100-810v-58l1954-45c-74 637-462 1079-953 1079a900 900 0 01-283-35 837 837 0 01-160-51 819 819 0 01-284-186 981 981 0 01-140-180 694 694 0 01-56-100 861 861 0 01-68-238c0-21-15-40-17-61a815 815 0 01 5-126zm500-3342 33-130a142 142 0 01 0-58 592 592 0 00 33-61l8-33a134 134 0 01 14-38 38 38 0 01 17-27c45-18 56 36 68 68l100 260h43l-44-120a1032 1032 0 00-50-120 1086 1086 0 00-47-110 84 84 0 00-80-30 114 114 0 00-51 39 331 331 0 00-23 80l-43 172v20l-25 88zm-400 3088h10l2007-63a394 394 0 00 381-391l20-1408a406 406 0 00-118-290 389 389 0 00-288-113l-2020 62a394 394 0 00-383 400v1407a400 400 0 00 120 285 384 384 0 00 280 104zm-300-400v-1408a300 300 0 01 290-300l2027-62h10a289 289 0 01 208 86 300 300 0 01 90 219l-20 1414a300 300 0 01-290 300l-2008 63a292 292 0 01-217-85 300 300 0 01-90-215Zm300 128a194 194 0 10 136-332 236 236 0 00-194 190 176 176 0 00 46 116c12 8 4 19 12 27zm1567-2890a270 270 0 00 64-35v36h43c-8-172-12-306-146-305-63-1-93 37-110 105-25 110 58 229 150 200zm-94-221a66 66 0 01 51-37 108 108 0 01 90 168 84 84 0 01-57 40 70 70 0 01-84-47 136 136 0 01 0-113zm-1663-1900-3-56-49-24-46 30 2 56 50 25zM9170 8720l13 7 14-7V8700l-9-7-10 8Zm3212 3007h43a1023 1023 0 01 0-175c7-47 24-82 72-84 0 0 0-43-10-47a59 59 0 00-43 8 123 123 0 00-70 110 1333 1333 0 00 7 200zm3676 7738c7-16-30-258-30-278a200 200 0 00-40-94 18 18 0 00-8-17 679 679 0 00-447-258 523 523 0 00-162 26 456 456 0 00-269-81 470 470 0 00-242 64l-47 10h-10a309 309 0 00-176-130 478 478 0 00-468 83l-25 10a374 374 0 00-45-13 348 348 0 00-321-176 400 400 0 00-191 46 467 467 0 00-207-46 436 436 0 00-264 80H13100a343 343 0 00-231-80 393 393 0 00-148 30 424 424 0 00-247-70 407 407 0 00-261 82 364 364 0 00-170-40 285 285 0 00-264 132 474 474 0 00-300-100 500 500 0 00-190 35 458 458 0 00-280 6 411 411 0 00-178-40 316 316 0 00-289 145c-10 0-68 51-79 51a311 311 0 00-317 174 551 551 0 00-100 326l154 48a309 309 0 01 0-43 352 352 0 01 360-340h33a305 305 0 01 289-220 289 289 0 01 178 61 311 311 0 01 279-9 380 380 0 01 491 95l7-9a265 265 0 01 85-105 226 226 0 01 100-56 221 221 0 01 85-10c22 0 41-13 63-7a275 275 0 01 93 48h7c25-26 62-30 92-46a338 338 0 01 156-62 367 367 0 01 94 30 316 316 0 01 136 44l23 22a289 289 0 01 160-42 278 278 0 01 230 120h5a344 344 0 01 264-122 337 337 0 01 207 69 300 300 0 01 190-70 348 348 0 01 321 266l45 18 25-14a357 357 0 01 176-137l18-8a377 377 0 01 111-16h30a386 386 0 01 100 18 347 347 0 01 40 17l28 10c10-1 10 16 20 22a342 342 0 01 123 156l18 8a284 284 0 01 50-15 351 351 0 01 500 6l16 17a350 350 0 01 162-40l32 7a532 532 0 01 67 12 414 414 0 01 88 40 456 456 0 01 40 28 540 540 0 01 56 60 445 445 0 01 33 52 381 381 0 01 24 64 391 391 0 01 15 76l6 27a491 491 0 01-8 66v13l119-28 46-10-46 10zM11930 11750a85 85 0 00 66-32c5-6 15 0 20-10l6 117h45c-10-200 5-393-155-387a100 100 0 00-70 34 200 200 0 00 0 243 162 162 0 00 88 34zm-76-218a60 60 0 01 52-40c90-7 120 100 86 160a84 84 0 01-55 40 70 70 0 01-84-45 129 129 0 01 0-115zm380 203h7a200 200 0 00 60-34v34h43c-10-172-13-310-150-300a127 127 0 00-68 27 151 151 0 00-44 80c-22 100 60 218 153 196zm-92-218a63 63 0 01 53-41c84-8 114 100 78 159a80 80 0 01-53 40 70 70 0 01-84-44 127 127 0 01 0-114zm1933 5733c154 16-3378 140-3378 140a4054 4054 0 00-1748 772 7047 7047 0 01 1844-643l3282-78c2280 176 3220 840 3356 1039v-32c-440-753-2967-1160-3355-1197Zm418-8395v-40l-35-20-36 25v40l36 20zm-760-1455v-40l-30-17-32 18v36l30 18zm362 1758 40-86-53-78-94 8-40 85 53 78ZM13700 8680l15-91-72-56-85 35-12 90 72 56Zm-162 680 64-60-20-86-86-25-64 60 20 87Zm467-1707 2-5-2-4h-6l-2 4 2 5zm-243 396v-122l-106-60-106 60v122l106 60zm-4558-740-30-81-85-14-55 66 30 82 85 14Zm-2920 3960L6153 3670a983 983 0 00 487 308 12927 12927 0 00 3235 287c417 8 863 15 1369 20h235a29979 29979 0 00 4321-321c44-13 74-52 115-73a750 750 0 00 231-147v-100l100-100a1566 1566 0 00-317-730c-578 364-2112 542-4550 569-2660 30-4920-170-5070-710 0 0-322 500-259 773l101 159-100-158v20l133 7747zm9464-8666a4622 580 0 01-4622 580 4622 580 0 01-4622-580 4622 580 0 01 4622-580 4622 580 0 01 4622 580zm-2775 5430v-35l-31-18-31 18v36l30 18zm1809 1000-20 43 27 39 47-3 20-43-27-40zm200-325 84-160-97-153-191 8-84 160 97 153zm249 248 5-10-5-8h-10l-5 9 5 10zm-844-787 24-50-30-45-55 3-25 50 30 45Zm277 267 8-13-8-13h-15l-8 13 8 13zm-6531 32 50-97-60-92-110 7-49 98 60 90Zm14-456V7870l-123-70-123 70v142l130 70Zm60 1049L8200 9044l-18-11a345 345 0 01-74-38l-13-8h-60v46a135 135 0 00 0 50l-10 60h60a262 262 0 01 79 0l80 14-30-82zm4554 34 13-22-13-22h-25l-13 22 13 22zm-4428 177-36 62 36 62h70l36-62-35-62Zm570-1493-17 69 50 50 70-17 18-70-50-50ZM7759 9115l-25 43 25 44h51l25-44-26-44Zm732-250-20 48 30 40 51-6 20-47-30-40Zm362-472-7 50 40 31 48-20 6-50-41-30Zm3060-354v20l22 10 22-14v-20l-22-13Zm506-490 60-140-90-128-160 17-64 142 92 122Zm-762 1701 5-25-20-17-24 10-5 23 20 17zm711-612-40 106 74 86 111-20 38-105-72-86Zm-417-1216 60-88-45-96-107-9-60 88 45 96Zm671-244 21-17-5-26-25-8-18 17 5 26Z"/></svg>
