<?xml version="1.0" encoding="UTF-8"?>
<svg width="24px" fill="#44739e" height="24px" viewBox="0 0 24 24" version="1.1" xmlns="http://www.w3.org/2000/svg" xmlns:xlink="http://www.w3.org/1999/xlink">
            <path d="m 5.887,12.461 a 0.194,0.194 0 1 0 0.194,0.194 0.194,0.194 0 0 0 -0.194,-0.194 z m -3.214,1.772 18.052,2.235 c 0.1,0.012 0.161,-0.089 0.167,-0.194 l 0.382,-5.625 0.313,-4.617 A 0.176,0.176 0 0 0 21.417,5.847 L 2.163,5.4 A 0.16,0.16 0 0 0 2,5.57 l 0.529,8.511 a 0.162,0.162 0 0 0 0.144,0.152 z m 2.152,-1.34 H 4.81 v 0.038 a 0.808,0.808 0 0 1 -0.375,0 V 12.9 L 4.418,12.893 c 0,-0.08 0.012,-0.211 0.025,-0.3 a 0.185,0.185 0 0 1 -0.084,-0.159 0.2,0.2 0 0 1 0.179,-0.191 0.546,0.546 0 0 1 0.189,0 0.2,0.2 0 0 1 0.162,0.211 A 0.219,0.219 0 0 1 4.8,12.6 1.623,1.623 0 0 1 4.825,12.893 Z m 0.8,0.151 0.022,-0.467 v 0 a 0.243,0.243 0 0 1 0.482,0 v 0 0.023 L 6.16,13.079 Z M 17.6,7.755 a 0.212,0.212 0 0 1 0.213,-0.2 v 0 l 1.99,0.042 a 0.216,0.216 0 0 1 0.152,0.069 0.209,0.209 0 0 1 0.057,0.156 l -0.374,7.417 a 0.216,0.216 0 0 1 -0.076,0.152 0.212,0.212 0 0 1 -0.138,0.051 H 19.399 L 17.371,15.2 A 0.215,0.215 0 0 1 17.182,14.975 Z M 14.3,7.71 a 0.24,0.24 0 0 1 0.246,-0.232 l 2.4,0.061 A 0.241,0.241 0 0 1 17.18,7.79 l -0.147,3.286 a 0.238,0.238 0 0 1 -0.239,0.229 h -0.018 l -2.356,-0.17 a 0.239,0.239 0 0 1 -0.222,-0.247 z m -0.136,3.99 a 0.22,0.22 0 0 1 0.072,-0.157 0.214,0.214 0 0 1 0.163,-0.056 l 2.429,0.171 a 0.218,0.218 0 0 1 0.2,0.229 l -0.141,3.076 a 0.221,0.221 0 0 1 -0.22,0.209 h -0.024 l -2.359,-0.263 a 0.219,0.219 0 0 1 -0.2,-0.224 z m -3.03,-4.248 a 0.223,0.223 0 0 1 0.165,-0.064 l 2.318,0.059 a 0.227,0.227 0 0 1 0.221,0.234 l -0.089,3.161 a 0.226,0.226 0 0 1 -0.227,0.221 H 13.5 l -2.219,-0.2 A 0.228,0.228 0 0 1 11.073,10.637 L 11.065,7.62 a 0.231,0.231 0 0 1 0.069,-0.164 z m -0.069,4.007 a 0.219,0.219 0 0 1 0.071,-0.161 0.215,0.215 0 0 1 0.165,-0.058 l 2.232,0.167 a 0.22,0.22 0 0 1 0.2,0.224 l -0.059,2.977 a 0.223,0.223 0 0 1 -0.075,0.16 0.217,0.217 0 0 1 -0.145,0.055 H 13.43 l -2.173,-0.242 a 0.22,0.22 0 0 1 -0.2,-0.218 z m -0.392,-4.127 0.055,5.06 -7.1,-0.54 -0.05,-4.8 z m 0.615,3.462 2.22,0.2 a 0.153,0.153 0 0 0 0.114,-0.038 0.148,0.148 0 0 0 0.051,-0.109 L 13.762,7.686 A 0.15,0.15 0 0 0 13.615,7.53 L 11.3,7.468 v 0 A 0.151,0.151 0 0 0 11.194,7.511 0.153,0.153 0 0 0 11.148,7.62 l 0.009,3.023 a 0.151,0.151 0 0 0 0.131,0.151 z M 12.481,9.2 H 12.344 V 9.139 l 0.137,0.005 z M 12.564,9.079 12.241,9.069 12.166,8.722 v 0 l 0.493,0.006 v 0 z M 12.417,7.8 a 0.466,0.466 0 0 1 0.452,0.48 0.487,0.487 0 0 1 -0.21,0.405 L 12.166,8.679 a 0.492,0.492 0 0 1 -0.2,-0.4 0.466,0.466 0 0 1 0.451,-0.479 z m 4.965,7.311 2.031,0.238 a 0.118,0.118 0 0 0 0.093,-0.029 0.119,0.119 0 0 0 0.044,-0.087 l 0.374,-7.417 a 0.123,0.123 0 0 0 -0.12,-0.128 l -1.99,-0.043 v 0 A 0.122,0.122 0 0 0 17.692,7.76 l -0.416,7.222 a 0.123,0.123 0 0 0 0.106,0.129 z m 0.681,-7.1 1.516,0.052 L 19.2,15.1 17.7,14.94 Z m -6.794,6.496 2.172,0.243 a 0.144,0.144 0 0 0 0.16,-0.14 L 13.66,11.633 A 0.144,0.144 0 0 0 13.527,11.487 L 11.3,11.32 h -0.011 a 0.145,0.145 0 0 0 -0.144,0.144 v 2.9 a 0.143,0.143 0 0 0 0.124,0.143 z m 1.2,-1.442 -0.137,-0.009 V 13 l 0.137,0.005 z m 0.083,-0.121 -0.323,-0.01 -0.075,-0.347 v 0 l 0.492,0.006 v 0 z M 12.4,11.661 a 0.467,0.467 0 0 1 0.451,0.481 0.487,0.487 0 0 1 -0.21,0.405 l -0.492,-0.006 a 0.49,0.49 0 0 1 -0.2,-0.4 0.467,0.467 0 0 1 0.451,-0.48 z m 1.9,3.175 2.359,0.263 a 0.141,0.141 0 0 0 0.109,-0.033 0.145,0.145 0 0 0 0.05,-0.1 l 0.141,-3.076 a 0.143,0.143 0 0 0 -0.134,-0.149 l -2.428,-0.172 a 0.148,0.148 0 0 0 -0.107,0.037 0.144,0.144 0 0 0 -0.047,0.1 l -0.071,2.984 a 0.143,0.143 0 0 0 0.128,0.146 z m 1.329,-1.388 -0.137,-0.009 v -0.056 l 0.137,0.006 z m 0.083,-0.121 -0.323,-0.01 -0.075,-0.347 v 0 l 0.492,0.006 v 0 z m -0.146,-1.283 a 0.467,0.467 0 0 1 0.451,0.481 0.487,0.487 0 0 1 -0.21,0.4 l -0.492,-0.007 a 0.487,0.487 0 0 1 -0.2,-0.4 0.467,0.467 0 0 1 0.448,-0.474 z m -1.142,-0.986 2.356,0.171 a 0.169,0.169 0 0 0 0.121,-0.041 0.165,0.165 0 0 0 0.054,-0.115 L 17.1,7.786 A 0.165,0.165 0 0 0 17.056,7.667 0.163,0.163 0 0 0 16.94,7.615 l -2.4,-0.061 v 0 a 0.164,0.164 0 0 0 -0.164,0.159 l -0.1,3.176 a 0.164,0.164 0 0 0 0.148,0.169 z M 15.75,9.358 15.614,9.35 V 9.293 L 15.75,9.298 Z M 15.833,9.237 15.51,9.228 15.436,8.88 v 0 l 0.492,0.007 v 0 z M 15.687,7.955 a 0.466,0.466 0 0 1 0.451,0.48 0.488,0.488 0 0 1 -0.21,0.406 L 15.436,8.834 a 0.488,0.488 0 0 1 -0.2,-0.4 0.466,0.466 0 0 1 0.451,-0.48 z M 8.957,9.353 8.947,8.4 7.439,8.6 7.446,9.306 Z M 8.82,8.494 8.828,9.279 7.533,9.252 7.522,8.652 Z M 8.617,9.421 7.6,9.394 v 0.18 l 0.185,0.013 0.428,0.027 0.289,0.019 0.115,0.007 0.1,-0.006 v -0.2 z M 7.624,9.553 V 9.415 l 0.969,0.027 v 0.175 z m 1,0.064 V 9.444 L 8.692,9.453 V 9.612 Z M 6.028,9.272 v 0 C 6.04,9.289 6.059,9.31 6.076,9.336 L 6.09,9.355 c 0.03,0.042 0.059,0.084 0.085,0.127 a 0.238,0.238 0 0 1 0,-0.049 0.08,0.08 0 0 0 0,-0.03 0.338,0.338 0 0 0 0,-0.045 A 0.117,0.117 0 0 0 6.153,9.275 0.042,0.042 0 0 0 6.13,9.263 0.129,0.129 0 0 1 6.082,9.238 0.151,0.151 0 0 1 6.046,9.18 C 6.034,9.15 6.02,9.121 6.005,9.092 A 0.1,0.1 0 0 1 6,9.06 0.135,0.135 0 0 1 6,9 C 6,8.987 6,8.974 6.006,8.96 A 0.617,0.617 0 0 0 5.984,8.724 L 5.99,9.23 A 0.27,0.27 0 0 1 6.028,9.272 Z M 6.372,9.222 A 0.192,0.192 0 0 1 6.39,9.267 0.27,0.27 0 0 1 6.4,9.4 a 0.272,0.272 0 0 0 0,0.11 0.8,0.8 0 0 0 0.058,0.164 l 0.015,0.032 a 0.263,0.263 0 0 1 0.033,0.091 h 0.04 V 9.7 c 0,-0.039 0,-0.06 0,-0.074 V 9.6 A 0.192,0.192 0 0 0 6.526,9.545 L 6.51,9.518 6.488,9.474 6.459,9.419 A 0.453,0.453 0 0 1 6.432,9.365 0.583,0.583 0 0 1 6.409,9.276 V 9.259 a 0.238,0.238 0 0 1 0,-0.088 c 0,-0.014 0,-0.031 0.008,-0.053 a 0.291,0.291 0 0 0 0,-0.066 c 0,-0.021 0,-0.049 0,-0.105 V 8.807 L 6.411,8.788 6.333,8.774 A 0.148,0.148 0 0 0 6.31,8.853 v 0 a 0.544,0.544 0 0 0 0,0.156 0.815,0.815 0 0 0 0.037,0.141 0.742,0.742 0 0 0 0.025,0.072 z M 6.04,8.737 v 0.006 0.011 0.005 l 0.009,0.015 v 0 0.012 0.027 a 0.7,0.7 0 0 1 0,0.152 L 6.043,9.007 a 0.1,0.1 0 0 0 0,0.046 0.087,0.087 0 0 0 0.01,0.025 Q 6.068,9.106 6.08,9.135 L 6.1,9.17 C 6.114,9.2 6.116,9.204 6.124,9.211 A 0.062,0.062 0 0 0 6.152,9.225 0.1,0.1 0 0 1 6.2,9.25 a 0.153,0.153 0 0 1 0.037,0.111 0.434,0.434 0 0 1 0,0.051 v 0.029 a 0.722,0.722 0 0 0 0,0.123 0.426,0.426 0 0 0 0.01,0.049 v 0.015 c 0.006,0.021 0.014,0.043 0.021,0.064 l 0.008,0.026 v 0.006 l 0.009,0.035 a 0.194,0.194 0 0 1 0,0.02 L 6.3,9.8 H 6.309 6.338 A 0.307,0.307 0 0 1 6.324,9.733 L 6.314,9.674 A 0.717,0.717 0 0 0 6.29,9.583 0.229,0.229 0 0 1 6.274,9.5 V 9.449 A 0.263,0.263 0 0 0 6.266,9.366 0.233,0.233 0 0 0 6.218,9.266 0.338,0.338 0 0 0 6.191,9.24 0.138,0.138 0 0 1 6.155,9.195 0.155,0.155 0 0 1 6.155,9.1 0.643,0.643 0 0 1 6.17,9.016 0.062,0.062 0 0 0 6.17,8.978 0.088,0.088 0 0 0 6.147,8.936 0.295,0.295 0 0 1 6.074,8.729 L 6.037,8.72 v 0 z M 6.678,8.983 6.652,9.02 A 0.28,0.28 0 0 0 6.62,9.072 0.149,0.149 0 0 0 6.612,9.172 0.206,0.206 0 0 0 6.642,9.226 C 6.669,9.27 6.685,9.293 6.695,9.308 a 0.242,0.242 0 0 1 0.025,0.04 0.131,0.131 0 0 1 0.01,0.061 c 0,0.016 0,0.04 0,0.077 A 1.08,1.08 0 0 0 6.749,9.642 0.606,0.606 0 0 0 6.765,9.703 L 6.771,9.72 A 0.245,0.245 0 0 1 6.786,9.785 H 6.811 L 6.802,8.875 A 0.184,0.184 0 0 0 6.722,8.906 0.1,0.1 0 0 0 6.699,8.939 C 6.7,8.952 6.69,8.965 6.678,8.983 Z M 6.473,9.18 a 0.238,0.238 0 0 0 0,0.08 0.373,0.373 0 0 0 0.023,0.1 0.349,0.349 0 0 0 0.023,0.048 L 6.55,9.465 A 0.567,0.567 0 0 1 6.6,9.6 a 0.15,0.15 0 0 1 0,0.03 v 0.01 c 0,0.014 0,0.031 0,0.072 A 0.593,0.593 0 0 0 6.606,9.796 H 6.733 V 9.776 9.763 9.754 L 6.726,9.733 C 6.719,9.712 6.712,9.685 6.704,9.653 a 0.472,0.472 0 0 1 -0.012,-0.075 0.146,0.146 0 0 1 0,-0.034 c 0,-0.015 0,-0.034 0,-0.054 a 0.548,0.548 0 0 1 0,-0.079 A 0.094,0.094 0 0 0 6.684,9.365 0.223,0.223 0 0 0 6.664,9.332 C 6.653,9.316 6.637,9.293 6.609,9.248 A 0.284,0.284 0 0 1 6.573,9.185 0.185,0.185 0 0 1 6.583,9.056 0.252,0.252 0 0 1 6.618,8.995 L 6.642,8.96 A 0.461,0.461 0 0 0 6.667,8.92 0.124,0.124 0 0 1 6.698,8.878 L 6.7,8.869 6.72,8.851 6.47,8.8 a 0.52,0.52 0 0 1 0.009,0.147 c 0,0.055 0,0.082 0,0.1 a 0.3,0.3 0 0 1 0,0.073 c 0,0.028 -0.004,0.045 -0.006,0.06 z M 6.131,8.775 v 0.008 0.012 l 0.006,0.01 v 0.008 0.011 0.005 0.011 0 l 0.007,0.009 v 0 0.01 A 0.208,0.208 0 0 0 6.175,8.903 0.121,0.121 0 0 1 6.207,8.964 0.1,0.1 0 0 1 6.202,9.02 0.664,0.664 0 0 0 6.188,9.1 a 0.121,0.121 0 0 0 0,0.073 0.074,0.074 0 0 0 0.024,0.03 0.334,0.334 0 0 1 0.033,0.032 0.3,0.3 0 0 1 0.058,0.118 0.268,0.268 0 0 1 0.009,0.093 V 9.5 a 0.187,0.187 0 0 0 0.015,0.073 0.577,0.577 0 0 1 0.025,0.1 c 0,0.02 0.007,0.04 0.01,0.061 A 0.194,0.194 0 0 0 6.4,9.8 H 6.471 A 0.293,0.293 0 0 0 6.441,9.723 L 6.426,9.691 A 0.823,0.823 0 0 1 6.365,9.519 0.318,0.318 0 0 1 6.365,9.396 0.225,0.225 0 0 0 6.358,9.284 0.152,0.152 0 0 0 6.342,9.244 C 6.331,9.219 6.321,9.194 6.312,9.168 A 0.848,0.848 0 0 1 6.274,9.022 0.633,0.633 0 0 1 6.265,8.854 a 0.145,0.145 0 0 0 0,-0.028 V 8.817 8.801 8.793 L 6.271,8.777 v 0 L 6.12,8.748 V 8.787 Z M 4.7,12.338 a 0.218,0.218 0 0 0 -0.116,-0.02 0.241,0.241 0 0 0 -0.116,0.019 0.114,0.114 0 0 0 -0.069,0.111 0.147,0.147 0 0 0 0.038,0.085 0.2,0.2 0 0 0 0.158,0.043 c 0.075,0 0.088,-0.012 0.088,-0.012 A 0.1,0.1 0 0 0 4.744,12.52 0.129,0.129 0 0 0 4.736,12.371 0.163,0.163 0 0 0 4.7,12.338 Z M 7.271,8.44 V 8.508 L 3.689,7.708 V 8.19 L 5.11,8.438 5.13,9.794 h 0.026 0.11 a 0.033,0.033 0 0 1 0.017,0 L 5.1,9.8 H 5.012 L 5,9.791 4.986,8.481 3.7,8.257 V 8.279 L 4.96,8.5 V 8.72 L 3.7,8.541 3.718,10.1 h 0.058 a 0.122,0.122 0 0 1 0.071,0.018 L 4.068,10.253 3.73,10.271 H 3.718 v 0.053 A 0.022,0.022 0 0 1 3.737,10.312 L 4.4,10.277 v 0 a 0.034,0.034 0 0 1 0.015,0.006 0.019,0.019 0 0 1 0.009,0.015 v 0.017 h 0.053 0.037 v 0 l 0.1,0.033 -0.137,0.012 -0.053,0.005 0.033,0.777 a 0.069,0.069 0 0 0 0.032,0.05 0.092,0.092 0 0 0 0.067,0.015 l 0.4,-0.065 a 0.031,0.031 0 0 1 0.021,0.005 0.024,0.024 0 0 1 0.01,0.017 v 0.346 c 0,0.008 -0.006,0.014 -0.016,0.017 L 3.879,11.784 H 3.878 L 3.758,11.778 A 0.027,0.027 0 0 1 3.74,11.771 L 3.733,11.762 v 0.022 L 7.074,12.036 9.427,10.927 7.554,10.511 A 0.172,0.172 0 0 0 7.616,10.48 l 1.951,0.433 -2.4,1.131 3.448,0.259 L 10.573,8.467 9.4,8.588 V 8.52 L 10.583,8.394 10.572,7.422 3.685,7.146 V 7.64 Z M 5.958,8.661 H 5.979 L 6.015,8.668 6.078,8.68 A 0.068,0.068 0 0 1 6.1,8.7 a 0.053,0.053 0 0 1 0.028,0 l 0.155,0.028 a 0.053,0.053 0 0 1 0.025,0.012 0.07,0.07 0 0 1 0.029,0 l 0.071,0.014 0.041,0.008 v 0 a 0.042,0.042 0 0 1 0.022,0 L 6.717,8.811 A 0.057,0.057 0 0 1 6.758,8.842 L 6.784,8.836 A 0.061,0.061 0 0 1 6.83,8.846 0.045,0.045 0 0 1 6.851,8.882 L 6.862,9.83 H 6.762 6.759 6.705 6.605 6.573 L 6.373,9.81 H 6.346 6.293 V 9.8 A 0.029,0.029 0 0 0 6.28,9.779 0.048,0.048 0 0 0 6.253,9.771 H 6.241 V 9.756 L 6.231,9.718 6.221,9.7 C 6.211,9.673 6.204,9.652 6.198,9.634 V 9.619 A 1.706,1.706 0 0 0 5.987,9.3 V 9.358 A 0.9,0.9 0 0 0 6.1,9.59 a 0.383,0.383 0 0 1 0.062,0.131 0.038,0.038 0 0 1 0,0.015 v 0 a 0.2,0.2 0 0 0 0,0.04 H 6.226 6.235 L 6.083,9.783 h -0.03 0.054 v -0.03 a 0.11,0.11 0 0 0 0,-0.018 V 9.718 9.705 A 0.527,0.527 0 0 0 6.054,9.605 C 6.035,9.573 6.014,9.538 5.994,9.499 v 0 0.289 H 5.937 V 9.498 A 0.04,0.04 0 0 1 5.971,9.46 0.662,0.662 0 0 1 5.937,9.366 V 9.294 a 0.039,0.039 0 0 1 0.02,-0.033 v 0 A 0.043,0.043 0 0 1 5.938,9.228 L 5.932,8.657 Z m 0.7,1.545 H 6.625 V 9.865 H 6.66 Z M 6.302,9.906 6.3,9.832 6.6,9.859 v 0.179 L 6.31,10 A 0.021,0.021 0 0 0 6.315,9.982 Z m 0.286,0.161 v 0.085 l -0.313,0.025 c -0.079,0 -0.162,-0.006 -0.24,-0.006 v -0.076 z m 0.011,0.1 V 10.2 C 6.54,10.195 6.481,10.19 6.421,10.187 H 6.41 Z M 5.754,9.788 a 0.023,0.023 0 0 1 0.017,0 L 6,9.8 c 0.027,0 0.053,0 0.079,0 L 6.25,9.792 v 0 h 0.008 0.006 a 0.017,0.017 0 0 1 0.008,0.013 l 0.012,0.1 0.01,0.074 v 0.007 a 0.012,0.012 0 0 1 0,0.014 L 6.279,9.934 v 0 -0.072 A 0.015,0.015 0 0 0 6.262,9.848 L 6.117,9.862 a 0.5,0.5 0 0 1 -0.1,0 h -0.01 v 0 L 5.757,9.834 V 9.821 a 0.021,0.021 0 0 1 0,-0.028 z m 0.173,0.076 0.013,0.3 H 5.794 v -0.3 H 5.8 5.806 L 5.58,9.844 V 9.829 Z m -0.156,0.3 H 5.726 V 9.872 H 5.773 Z M 5.7,9.882 v 0.2 L 5.362,10.039 A 0.026,0.026 0 0 0 5.368,10.018 L 5.356,9.935 5.348,9.85 Z m -0.007,0.3 A 1.3,1.3 0 0 0 5.25,10.251 L 5.045,10.266 V 10.15 L 5.698,10.121 Z M 4.722,9.811 a 0.027,0.027 0 0 1 0.02,-0.007 l 0.245,0.01 h 0.17 L 5.305,9.8 v 0 h 0.009 0.008 a 0.029,0.029 0 0 1 0.01,0.015 V 9.841 L 5.343,9.93 5.352,10.012 V 10.02 L 5.344,10.03 5.326,9.956 v 0 -0.08 A 0.018,0.018 0 0 0 5.306,9.859 l -0.17,0.014 a 0.527,0.527 0 0 1 -0.119,0 H 5.009 V 9.871 L 4.718,9.839 V 9.823 A 0.018,0.018 0 0 1 4.725,9.807 Z M 4.528,10.305 4.504,9.843 v 0 0.005 l 0.41,0.046 0.026,0.537 v 0.007 z M 4.502,10.893 4.487,10.517 4.979,10.823 H 4.975 l -0.464,0.074 z m 0.516,0.8 -0.6,0.14 v -0.125 l 0.6,-0.141 z m 0.01,-0.674 -0.01,0.025 -0.4,0.075 H 4.585 c -0.026,0 -0.045,-0.02 -0.043,-0.038 V 11 a 0.075,0.075 0 0 1 0.022,-0.057 l 0.464,-0.082 h 0.008 z m 0,-0.577 v -0.13 -0.025 h 0.044 l 0.155,-0.011 a 0.032,0.032 0 0 0 -0.01,0.023 c 0,0.04 0.072,0.077 0.188,0.111 z m 1.99,0.106 v 0.022 a 0.235,0.235 0 0 0 0.091,0.16 0.8,0.8 0 0 0 0.1,0.045 c 0.042,0.021 0.078,0.056 0.064,0.082 -0.014,0.026 -0.111,0.024 -0.166,0.008 a 0.3,0.3 0 0 1 -0.1,-0.049 0.251,0.251 0 0 1 -0.08,-0.245 l 0.006,-0.023 c -0.13,0 -0.275,0 -0.431,-0.012 v 0.022 A 0.444,0.444 0 0 0 6.528,10.664 0.2,0.2 0 0 1 6.376,10.656 L 6.35,10.641 a 0.215,0.215 0 0 0 0.037,-0.09 0.155,0.155 0 0 0 0,-0.021 C 6.248,10.52 6.117,10.508 5.996,10.494 v 0.021 A 0.693,0.693 0 0 0 6,10.689 0.124,0.124 0 0 1 5.984,10.777 0.113,0.113 0 0 1 5.922,10.824 C 5.86,10.843 5.775,10.81 5.768,10.781 5.761,10.752 5.829,10.749 5.88,10.681 A 0.2,0.2 0 0 0 5.926,10.543 0.153,0.153 0 0 0 5.91,10.5 L 5.9,10.473 C 5.5,10.419 5.245,10.345 5.244,10.292 c 0,-0.074 0.483,-0.126 1.18,-0.082 a 2.455,2.455 0 0 1 1.183,0.232 c 10e-4,0.05 -0.221,0.091 -0.582,0.098 z M 9.079,10.564 7.3,10.233 v -0.089 l 1.791,0.3 z m 0.052,-0.006 v -0.1 l 0.211,0.036 z M 6.746,10.03 V 9.969 l 2.951,0.437 v 0.1 z m 3.325,0.361 -0.332,0.123 v -0.1 l 0.333,-0.113 z M 9.335,7.749 9.361,10.154 H 9.354 9.343 9.332 L 9.14,10.19 9.112,7.6 Z m -0.276,-0.167 0.029,2.61 -0.6,-0.076 V 9.665 l -0.7,-0.046 v 0.4 L 7.36,9.961 7.314,8.075 Z M 8.411,9.94 h 0.025 0.011 v 0.16 h -0.01 l -0.6,-0.074 H 7.811 V 9.887 h 0.027 v 0 0.075 l 0.569,0.065 z m 0.715,0.286 v 0 l 0.228,-0.052 0.67,0.085 -0.3,0.1 L 7.6,10.06 6.87,9.953 7.2,9.936 7.311,9.948 v 0.03 z M 21.9,4.6 A 0.361,0.361 0 0 0 21.64,4.485 L 3.071,4.322 A 0.271,0.271 0 0 0 2.801,4.577 L 2.76,5.307 21.632,5.717 20.985,16.441 20.848,16.651 2.438,14.3 2.6,16.64 a 0.381,0.381 0 0 0 0.324,0.352 l 17.666,2.682 a 0.3,0.3 0 0 0 0.052,0 0.357,0.357 0 0 0 0.346,-0.274 l 0.1,-0.441 L 22,4.867 A 0.356,0.356 0 0 0 21.9,4.6 Z M 20.475,19.607 20.484,19.474 2.948,16.811 A 0.2,0.2 0 0 1 2.78,16.628 l -0.144,-2.121 18.035,2.306 v -0.066 h 0.018 z m 0.433,-0.668 -0.1,0.424 a 0.17,0.17 0 0 1 -0.05,0.086 l -0.012,0.177 0.2,-2.787 0.111,-0.17 z M 21.769,5.606 21.724,5.574 A 0.209,0.209 0 0 0 21.606,5.534 L 2.953,5.128 2.983,4.587 A 0.089,0.089 0 0 1 3.071,4.5 l 18.572,0.164 a 0.176,0.176 0 0 1 0.174,0.187 z m -2.286,2.543 -1.333,-0.046 -0.148,2.794 1.326,0.087 z"/>

</svg>