<?xml version="1.0" encoding="UTF-8"?>
<svg width="24px" fill="#44739e" height="24px" viewBox="0 0 24 24" version="1.1" xmlns="http://www.w3.org/2000/svg" xmlns:xlink="http://www.w3.org/1999/xlink">
            <path d="m 8.2689998,8.8170004 a 0.79299998,1.1619999 0 0 1 -0.793,1.1619999 0.79299998,1.1619999 0 0 1 -0.793,-1.1619999 0.79299998,1.1619999 0 0 1 0.793,-1.162 0.79299998,1.1619999 0 0 1 0.793,1.162 z M 7.476,7.066 c -0.63,0 -1.141,0.784 -1.141,1.751 0,0.967 0.511,1.751 1.141,1.751 0.63,0 1.14,-0.784 1.14,-1.751 0,-0.967 -0.51,-1.751 -1.14,-1.751 z m 0,3.16 c -0.5,0 -0.9,-0.631 -0.9,-1.409 0,-0.778 0.4,-1.409 0.9,-1.409 0.5,0 0.9,0.631 0.9,1.409 0,0.778 -0.402,1.409 -0.9,1.409 z M 13.345,2.622 A 7.951,7.951 0 0 0 7.386,3.974 C 6.015,4.179 4.816,5.8 4.573,7.9 a 6.647,6.647 0 0 0 0.919,4.549 l 0.083,7.088 A 56.094,56.094 0 0 0 18.507,19.59 V 9.1 C 18.334,6 17.19,3.493 13.345,2.622 Z M 7.6,15.024 c -0.07,0 -0.127,0 -0.127,-0.4 0,-0.4 0.057,-0.4 0.127,-0.4 0.07,0 0.128,0 0.128,0.4 0.003,0.365 -0.054,0.4 -0.128,0.4 z M 7.486,13.238 c -1.507,0 -2.73,-1.979 -2.73,-4.421 0,-2.442 1.226,-4.417 2.733,-4.417 1.507,0 2.73,1.979 2.73,4.421 0,2.442 -1.219,4.417 -2.73,4.417 z m -1.118,6.67 v 1.158 a 38.764,38.764 0 0 0 11.331,0.1 L 17.67,19.992 A 60.541,60.541 0 0 1 6.368,19.908 Z"/>

</svg>
