<svg xmlns="http://www.w3.org/2000/svg" viewBox="0 0 24 24"><path fill="#44739e" d="M13.266 7.561c-.087 0-.173.01-.259.015s-.172-.015-.26-.015a4.2 4.2 0 0 0-.881.1 5.1 5.1 0 0 0-3.784 5.117 5.1 5.1 0 0 0 3.784 5.12 4.3 4.3 0 0 0 1.4.234c.1 0 .208 0 .311-.012a3.3 3.3 0 0 0 1.183-.332 11 11 0 0 0 .994-.605l-.082.043a5.34 5.34 0 0 0 2.257-4.448 5.3 5.3 0 0 0-2.6-4.671 4.24 4.24 0 0 0-2.063-.546m-4.547 6.907a4.9 4.9 0 0 1-.358-1.691 6.3 6.3 0 0 1 .725-2.709 5 5 0 0 1 .329-.49l-.035.07a7.55 7.55 0 0 0-.717 3.127 7.14 7.14 0 0 0 1.2 3.721 7.7 7.7 0 0 1-1.144-2.028M3.372 2.632l8.372-.254 9.416-.108L19.611 2l-16.864.319.052 19.249.596.432-.03-12.504Zm.547.493v18.843l17.334-1.04V2.692Zm15.158 15.843-12.858.824V5.468l12.854-.3Zm-.275-13.519-12.3.291v13.758l12.3-.787Zm-4.319 12.482.051-.012a7 7 0 0 1-1.787.351 5.244 5.244 0 0 1-4.94-5.492 5.243 5.243 0 0 1 4.94-5.492 4.5 4.5 0 0 1 1.437.238 5.244 5.244 0 0 1 3.883 5.254 5.26 5.26 0 0 1-3.584 5.153"/></svg>