<svg xmlns="http://www.w3.org/2000/svg" viewBox="0 0 24 24"><path fill="#44739e" d="M9.125 13.151a.1.1 0 0 0-.081-.03.136.136 0 0 0-.127.109h.244a.14.14 0 0 0-.036-.08m.797 3.578a4.36 4.36 0 0 0 4.131-4.551 4.36 4.36 0 0 0-4.131-4.549 4.36 4.36 0 0 0-4.132 4.549 4.36 4.36 0 0 0 4.132 4.55m.16-1.568h-.53a.513.513 0 0 1 0-1.026h.53a.513.513 0 0 1 0 1.026m-1.623-1.9c0-.05-.006-.1-.008-.16l-.045.128-.163.447h-.142l-.15-.44-.037-.116q-.002.074-.008.152l-.026.409H7.7l.067-.946h.204l.158.446.054.17q.023-.074.057-.17l.165-.446h.205l.059.946h-.186l-.024-.418h.038Zm-.72-1.961v-.77a.15.15 0 0 1 .064-.12l.548-.385a.147.147 0 0 1 .23.12v.818a.15.15 0 0 1-.07.125l-.547.337a.147.147 0 0 1-.224-.125m.54.999v-.07h3.286v.076Zm2.037.61a.11.11 0 0 1-.081.033.106.106 0 0 1-.107-.107.11.11 0 0 1 .109-.11.11.11 0 0 1 .079.185m.016.063v.7h-.19v-.7Zm-.3.66v.04H9.86v-.048a.28.28 0 0 1-.182.063.32.32 0 0 1-.3-.355.4.4 0 0 1 .105-.285.3.3 0 0 1 .213-.09.3.3 0 0 1 .153.044v-.32h.19v.793a.7.7 0 0 0-.003.164Zm-.982-.674a.3.3 0 0 1 .3.332v.086l-.034.005h-.4a.16.16 0 0 0 .173.14.4.4 0 0 0 .152-.022l.04-.018.039.156-.03.013a.55.55 0 0 1-.223.042.328.328 0 0 1-.345-.353.34.34 0 0 1 .33-.375Zm1.82.715v-.048a.27.27 0 0 1-.176.062c-.06 0-.253-.022-.253-.311v-.4h.189v.384c0 .16.07.16.1.16a.13.13 0 0 0 .114-.08.1.1 0 0 0 .008-.042v-.422h.189v.493q-.001.103.005.167v.04Zm1.249 0h-.185v-.392c0-.154-.074-.154-.1-.154a.11.11 0 0 0-.1.078.2.2 0 0 0-.007.044v.424h-.187v-.412c0-.041-.01-.134-.092-.134a.12.12 0 0 0-.105.087.1.1 0 0 0-.007.044v.415h-.187v-.701h.176v.044a.26.26 0 0 1 .167-.058.22.22 0 0 1 .183.093.2.2 0 0 1 .044-.041.25.25 0 0 1 .16-.052c.113 0 .243.08.243.309Zm-.389-2.573.06-.05a.3.3 0 0 0 .1-.054l.192.668a.08.08 0 0 1-.007.06.1.1 0 0 1-.057.042.093.093 0 0 1-.111-.06Zm.299-.875a.08.08 0 0 1 .039.04l.155.446a.07.07 0 0 1 0 .05.08.08 0 0 1-.052.04.08.08 0 0 1-.093-.047l-.146-.417-.143-.071.079.5a.155.155 0 0 1-.125.169h-.01l-.308.255-.041.5a.09.09 0 0 1-.094.08h-.008a.1.1 0 0 1-.066-.033.08.08 0 0 1-.02-.06l.044-.53a.08.08 0 0 1 .03-.056l.257-.211.022-.015-.01-.025c0-.02-.043-.25-.067-.391l-.013-.083-.156.19a.07.07 0 0 1-.057.027h-.262a.065.065 0 1 1 0-.13h.217l.244-.3v-.007a.17.17 0 0 1 .13-.09.18.18 0 0 1 .132.035Zm-.741-.422a.168.168 0 1 1 .167.154.16.16 0 0 1-.171-.15Zm-4.922 3.475a.34.34 0 0 1 .112-.25q-.023-.09-.04-.181a4.45 4.45 0 0 1 .717-3.214.3.3 0 0 1-.015-.094.34.34 0 0 1 .338-.34h.03a3.55 3.55 0 0 1 3.634-.883.337.337 0 1 1-.133.278 3.25 3.25 0 0 0-3.238.774.336.336 0 0 1-.293.506.3.3 0 0 1-.111-.021 4.22 4.22 0 0 0-.63 2.934c.009.053.022.1.033.155a.34.34 0 0 1 .273.332.33.33 0 0 1-.1.243 3.69 3.69 0 0 0 2.372 2.3.339.339 0 1 1-.09.29 3.99 3.99 0 0 1-2.573-2.5.34.34 0 0 1-.286-.33m3.188 2.96a.187.187 0 1 0-.186-.187.187.187 0 0 0 .186.187m.154-3.11c-.11 0-.15.11-.15.2s.039.194.148.194a.13.13 0 0 0 .129-.107.2.2 0 0 0 0-.04v-.108a.137.137 0 0 0-.131-.142Zm-.108 5.817c3.323 0 6.027-3.047 6.027-6.792s-2.704-6.788-6.027-6.788-6.027 3.046-6.027 6.789c0 3.746 2.704 6.793 6.027 6.793m.32-11.772a4.816 4.816 0 0 1 4.587 5.005 4.816 4.816 0 0 1-4.587 5.006 4.816 4.816 0 0 1-4.587-5.006 4.816 4.816 0 0 1 4.588-5.005Zm6.164 4.979c0 4-2.91 7.249-6.483 7.249q-.152.002-.31-.008a7 7 0 0 0 1.137.094 7.2 7.2 0 0 0 7.078-7.31 7.2 7.2 0 0 0-7.079-7.307 7 7 0 0 0-.726.038c3.528.06 6.383 3.292 6.383 7.245m5.122-9.996L4.193 2l-1.07.13 17.712.123ZM21.054 22l.345-.163V2.393l-.345.09v12.329ZM2.601 9.99v11.382l18.157.575V2.5L2.601 2.37Zm7.827-5.576a7.66 7.66 0 0 1 7.534 7.764 7.66 7.66 0 0 1-7.534 7.765 7.66 7.66 0 0 1-7.534-7.765 7.66 7.66 0 0 1 7.535-7.764ZM9.94 15l.086-.125-.374-.26.365-.182-.068-.136-.595.298Z"/></svg>