<svg xmlns="http://www.w3.org/2000/svg" viewBox="0 0 24 24"><path fill="#44739e" d="M2.589 10.085a.154.154 0 0 0-.154.154v1.785a.154.154 0 0 0 .308 0v-1.785a.154.154 0 0 0-.154-.154m9.243 4.47h-.01l-.958.005a1.55 1.55 0 0 0-1.112.429 1.24 1.24 0 0 0-.351.9 1.36 1.36 0 0 0 .422.962 1.5 1.5 0 0 0 1.099.406l.958-.023a1.27 1.27 0 0 0 1.328-1.342 1.3 1.3 0 0 0-1.376-1.337m-1.399 2.139a.816.816 0 0 1 0-1.616.816.816 0 0 1 0 1.616m11.554-1.253a1.35 1.35 0 0 0-1.41-1.361l-9.539.163v-.032l-.263-.076-.258-.074-.009-5.766c0-2.183-1.477-3.957-3.285-3.957h-.488c-1.759 0-3.189 1.725-3.189 3.848v7.776c0 2.098 1.415 3.838 3.154 3.876l.824.018a2.65 2.65 0 0 0 1.91-.793 3.6 3.6 0 0 0 .873-1.417l.262-.05v-.008h.026l9.84-.385a1.56 1.56 0 0 0 1.552-1.762M7.164 18.219a2 2 0 0 0 .594-.092l.84-.158a2.3 2.3 0 0 1-1.434.508 2.673 2.673 0 0 1-2.499-2.81 2.673 2.673 0 0 1 2.504-2.81 2.35 2.35 0 0 1 1.665.714l-.678-.199a2 2 0 0 0-.987-.26 2.42 2.42 0 0 0-2.251 2.555 2.42 2.42 0 0 0 2.246 2.552m-.091-5.996c-1.625 0-2.947-1.662-2.947-3.703s1.322-3.698 2.947-3.698S10.02 6.483 10.02 8.52s-1.324 3.706-2.947 3.706Zm4.808 5.165-.958.023h-.046a1.67 1.67 0 0 1-1.166-.452 1.52 1.52 0 0 1-.471-1.075 1.4 1.4 0 0 1 .4-1.011 1.7 1.7 0 0 1 1.226-.478l.959-.005h.009a1.463 1.463 0 0 1 1.534 1.491 1.422 1.422 0 0 1-1.487 1.51ZM7.073 5.078c-1.483 0-2.69 1.545-2.69 3.445s1.207 3.445 2.69 3.445 2.69-1.545 2.69-3.445-1.207-3.445-2.69-3.445m1.399 1.945a.27.27 0 0 0 .144.045.133.133 0 0 0 .148-.138c0-.1-.083-.143-.169-.143h-.046v-.073h.047a.13.13 0 0 0 .146-.121.1.1 0 0 0-.115-.108.23.23 0 0 0-.13.047l-.023-.07a.3.3 0 0 1 .173-.058.17.17 0 0 1 .186.17.18.18 0 0 1-.12.169.18.18 0 0 1 .145.184.216.216 0 0 1-.238.215.3.3 0 0 1-.17-.049Zm.068.816a.35.35 0 0 1 .209-.106.4.4 0 0 1 .063-.005v.075a.3.3 0 0 0-.065 0 .28.28 0 0 0-.227.254.19.19 0 0 1 .158-.083.206.206 0 0 1 .199.231.23.23 0 0 1-.216.253c-.14 0-.232-.119-.232-.3a.48.48 0 0 1 .114-.319Zm-1.667-.764.07-.071c.167-.174.242-.266.243-.374a.123.123 0 0 0-.13-.14.2.2 0 0 0-.138.061l-.029-.068a.27.27 0 0 1 .185-.079.193.193 0 0 1 .199.208c0 .132-.086.239-.224.384l-.052.056h.292v.08h-.416Zm.009 1.274a.3.3 0 0 0 .14.039.15.15 0 0 0 .155-.155c0-.092-.057-.158-.188-.158a1 1 0 0 0-.091.007l.043-.343h.312v.081h-.249l-.025.183h.053a.26.26 0 0 1 .141.038.21.21 0 0 1 .093.184.236.236 0 0 1-.243.245.3.3 0 0 1-.163-.044Zm.1 1.052a.18.18 0 0 1-.1-.161.19.19 0 0 1 .2-.19.175.175 0 0 1 .19.176.18.18 0 0 1-.107.167.2.2 0 0 1 .131.185.21.21 0 0 1-.222.208.2.2 0 0 1-.219-.194.2.2 0 0 1 .13-.19ZM5.483 6.419h.075v.715h-.083v-.625l-.114.067-.019-.072Zm-.23 1.777.291-.457h.1v.445h.091v.076H5.64v.194h-.084V8.26h-.3Zm.078 1.578.284-.632h-.317v-.08h.412v.064l-.284.651Zm.677 1.193-.1.085-.299-.343-.085-.1.407-.351.084.1-.308.266Zm1.055.04c-.157 0-.263-.129-.265-.362s.116-.365.279-.365.264.132.264.355c0 .24-.1.372-.278.372m1.233-.066-.015-.014-.008.008-.283-.282.091-.092.2.2.389-.41.093.088Zm.47-1.257a.3.3 0 0 1-.19.1.4.4 0 0 1-.081 0v-.082a.4.4 0 0 0 .071 0 .24.24 0 0 0 .137-.069.33.33 0 0 0 .085-.191.18.18 0 0 1-.153.077.2.2 0 0 1-.196-.217.237.237 0 0 1 .224-.254c.132 0 .215.119.215.3a.48.48 0 0 1-.112.336m-1.695.67c-.095 0-.165.099-.165.292s.065.287.163.287.165-.114.165-.293-.051-.286-.163-.286M5.556 7.945v-.112a1 1 0 0 1-.054.1l-.16.243h.214Zm3.108.447c.076 0 .126-.07.126-.172s-.052-.164-.133-.164a.14.14 0 0 0-.127.088.1.1 0 0 0-.01.043c.002.116.051.205.144.205m-.008.729c-.076 0-.129.072-.129.174s.049.151.126.151a.14.14 0 0 0 .127-.074.1.1 0 0 0 .008-.036c0-.122-.04-.215-.132-.215m-1.568.242a.14.14 0 0 0 .1-.13.107.107 0 0 0-.111-.117.11.11 0 0 0-.113.115c0 .071.049.11.124.132m-.012.353a.123.123 0 0 0 .131-.128c0-.087-.055-.128-.144-.156a.15.15 0 0 0-.117.148.126.126 0 0 0 .13.136M4.274 18.85a4.56 4.56 0 0 1-.986-2.888V8.186a3.98 3.98 0 0 1 2.836-4.042h-.227A3.897 3.897 0 0 0 2 8.041v7.872a3.947 3.947 0 0 0 3.498 3.897 3.5 3.5 0 0 1-1.224-.96m-1.436-6.826a.251.251 0 0 1-.499 0v-1.785a.251.251 0 1 1 .499 0Z"/></svg>