<svg xmlns="http://www.w3.org/2000/svg" viewBox="0 0 24 24"><path fill="#44739e" d="M12.43 11.64a.92.92 0 0 0-.776.063.64.64 0 0 0-.2.242 1.02 1.02 0 0 0-1.268-.085 1.2 1.2 0 0 0-.39.712c-.094.315-.229.767-.017.967.231.22.758.025 1.051-.169a2 2 0 0 0 .54-.556 1.05 1.05 0 0 0 .422.73 1.07 1.07 0 0 0 .612.19 1.03 1.03 0 0 0 1.017-1.273c-.069-.28-.296-.65-.99-.82m.573 1.714a.92.92 0 0 1-1.122.062 1.04 1.04 0 0 1-.374-.876.73.73 0 0 0 .04-.4.54.54 0 0 1 .2-.308.5.5 0 0 1 .31-.09 1.4 1.4 0 0 1 .337.051c.618.152.817.467.875.706a.89.89 0 0 1-.266.855m3.912-2.215-.108.03v.145h-.095v.085h.095v.331a.23.23 0 0 0 .042.16.16.16 0 0 0 .12.045.3.3 0 0 0 .1-.015v-.083a.2.2 0 0 1-.065.008c-.06 0-.082-.043-.082-.118V11.4h.158v-.084h-.158Zm-.418.434v.35h.11v-.363c0-.21-.13-.26-.212-.26a.24.24 0 0 0-.113.031.2.2 0 0 0-.079.078v-.379h-.11v.892h.11v-.367a.14.14 0 0 1 .008-.053.16.16 0 0 1 .148-.11c.101 0 .138.083.138.181m-.59-.092v-.167h-.1v.092a.2.2 0 0 0-.19-.106.29.29 0 0 0-.274.323.27.27 0 0 0 .26.3.22.22 0 0 0 .192-.1v.068c0 .153-.083.212-.2.212a.34.34 0 0 1-.178-.047l-.028.084a.4.4 0 0 0 .2.05.32.32 0 0 0 .221-.073.35.35 0 0 0 .087-.277Zm-.109.182a.2.2 0 0 1-.009.06.16.16 0 0 1-.153.112c-.12 0-.18-.1-.18-.219 0-.14.075-.229.181-.229a.16.16 0 0 1 .154.116.2.2 0 0 1 .007.051Zm-.703-.349h.11v.608h-.11Zm.052-.103a.069.069 0 1 0 0-.137.067.067 0 0 0-.069.07.065.065 0 0 0 .07.067m-.35.218c0 .132 0 .235.013.348a3 3 0 0 0-.152-.275l-.27-.428h-.12v.847h.1v-.362c0-.14 0-.242-.009-.349a3 3 0 0 0 .158.282l.27.43h.11v-.847h-.1Zm-6.476 1.927h-.005v-.119h-.1c0 .056.005.118.005.19v.418h.11v-.324a.3.3 0 0 1 0-.052.155.155 0 0 1 .147-.142h.038v-.1a.1.1 0 0 0-.032 0 .18.18 0 0 0-.163.13m-.488-.133a.3.3 0 0 0-.285.328.282.282 0 0 0 .3.306.5.5 0 0 0 .2-.038l-.019-.079a.4.4 0 0 1-.168.032.2.2 0 0 1-.209-.21h.427a.3.3 0 0 0 0-.053.26.26 0 0 0-.246-.286m-.178.26a.18.18 0 0 1 .17-.18.157.157 0 0 1 .152.18Zm-.457-.26a.22.22 0 0 0-.2.114l-.006-.1h-.1v.608h.111v-.366a.2.2 0 0 1 .007-.05.16.16 0 0 1 .148-.114c.1 0 .141.081.141.18v.35h.111v-.363c.003-.209-.128-.259-.212-.259m-.7 0a.22.22 0 0 0-.2.114l-.007-.1H6.2v.608h.11v-.366a.2.2 0 0 1 .008-.05.155.155 0 0 1 .148-.114c.1 0 .14.081.14.18v.35h.111v-.363c.001-.209-.13-.259-.217-.259m-.593.014h.11v.608h-.11Zm.055-.238a.067.067 0 0 0-.069.07.066.066 0 0 0 .067.067.069.069 0 1 0 0-.137Zm-.655-.007a1.4 1.4 0 0 0-.232.018v.832a2 2 0 0 0 .2.01.52.52 0 0 0 .374-.122.45.45 0 0 0 .122-.329.4.4 0 0 0-.119-.3.5.5 0 0 0-.345-.109m-.012.772a1 1 0 0 1-.11-.006v-.668a1 1 0 0 1 .127-.01.3.3 0 0 1 .343.325.325.325 0 0 1-.355.36Zm11.696-.33h-.119l-.085.13q-.03.046-.06.1l-.062-.1-.086-.13h-.124l.206.3-.216.31h.122l.088-.138.064-.1a1 1 0 0 0 .065.1l.09.137h.125l-.214-.314Zm-.646.234c0-.12-.045-.248-.23-.248a.4.4 0 0 0-.2.054l.024.073a.3.3 0 0 1 .16-.048.126.126 0 0 1 .138.141v.013c-.235 0-.366.08-.366.226a.173.173 0 0 0 .186.174.23.23 0 0 0 .186-.09l.01.076h.1a1 1 0 0 1-.01-.145Zm-.107.17a.1.1 0 0 1-.006.034.15.15 0 0 1-.147.1.1.1 0 0 1-.1-.105c0-.118.137-.139.257-.137Zm-.616-.688h.11v.892h-.11Zm-.388.27a.3.3 0 0 0-.285.327.283.283 0 0 0 .3.307.5.5 0 0 0 .2-.038l-.019-.079a.4.4 0 0 1-.168.031.194.194 0 0 1-.208-.21h.426a.3.3 0 0 0 0-.052.257.257 0 0 0-.246-.286m-.178.258a.183.183 0 0 1 .17-.179.157.157 0 0 1 .153.18Zm-.378-.04a.22.22 0 0 0 .16-.216.2.2 0 0 0-.067-.16.35.35 0 0 0-.245-.069 1 1 0 0 0-.209.017v.835h.11v-.366h.1c.1 0 .143.047.168.164a1 1 0 0 0 .057.2h.113a1.3 1.3 0 0 1-.066-.232.21.21 0 0 0-.12-.173m-.14-.046h-.112v-.309a.5.5 0 0 1 .108-.01c.115 0 .194.05.194.158 0 .11-.074.161-.19.161m-5.191-2.383a.2.2 0 0 0-.19-.106.29.29 0 0 0-.274.323.27.27 0 0 0 .26.3.22.22 0 0 0 .192-.1v.067c0 .154-.083.213-.2.213a.34.34 0 0 1-.178-.048l-.028.084a.4.4 0 0 0 .2.05.32.32 0 0 0 .221-.073.35.35 0 0 0 .087-.277v-.52h-.1Zm-.012.257a.2.2 0 0 1-.009.06.16.16 0 0 1-.153.112c-.12 0-.18-.1-.18-.218 0-.14.075-.23.181-.23a.16.16 0 0 1 .154.117.2.2 0 0 1 .007.05Zm-.804-.367a.23.23 0 0 0-.2.115l-.006-.1h-.1v.608h.11v-.363a.2.2 0 0 1 .008-.05.16.16 0 0 1 .148-.114c.1 0 .141.082.141.18v.35h.11v-.363c.004-.208-.126-.263-.21-.263m-.596.018h.11v.608h-.11Zm.053-.103a.069.069 0 1 0 0-.137.067.067 0 0 0-.069.07.066.066 0 0 0 .07.067m-.343.361v.35h.111v-.363c0-.208-.13-.259-.215-.259a.22.22 0 0 0-.2.115l-.007-.1h-.1c0 .05.005.1.005.165v.443h.111v-.367a.2.2 0 0 1 .007-.05.16.16 0 0 1 .15-.114c.102.004.138.082.138.18m-.713.35v-.378a.155.155 0 0 1 .148-.14h.038v-.1h-.03a.18.18 0 0 0-.169.132v-.119h-.1l.004.19v.418Zm-.248-.309a.29.29 0 0 0-.293-.313.3.3 0 0 0-.3.323.29.29 0 0 0 .291.313.3.3 0 0 0 .302-.323m-.482.006c0-.115.056-.236.187-.236s.182.131.182.234c0 .137-.079.236-.185.236s-.186-.1-.186-.234Zm-.292-.543h-.14l-.15.41q-.057.159-.09.284a4 4 0 0 0-.086-.285l-.144-.409h-.14l-.059.846h.1l.021-.363c.008-.127.014-.269.017-.374q.037.15.1.33l.137.4h.083l.15-.412q.063-.174.106-.32c0 .1.006.246.012.364l.022.372h.106ZM20.558 22l.328-.164v-7.199l-.328.12Zm0-7.244v-4.548l.272-.157v4.604l.056-.02V2.233l-.328.092v7.873h-.118v4.613ZM3.119 21.402l17.321.58v-7.169l-17.321-.354Zm17.39-19.147.354-.098L4.632 2l-1.02.132ZM3.114 9.928v4.53h.12v-4.53l17.201.268V2.373L3.114 2.246Z"/></svg>