<svg xmlns="http://www.w3.org/2000/svg" viewBox="0 0 24 24"><path fill="#44739e" d="M10.167 12.086a.13.13 0 0 0-.056-.111.2.2 0 0 0-.098-.037.1.1 0 0 0-.057.02.18.18 0 0 0-.025.222q.049.062.173 0a.11.11 0 0 0 .063-.094m-.69-.142a.1.1 0 0 0-.058-.014.17.17 0 0 0-.098.036.12.12 0 0 0-.041.14.13.13 0 0 0 .127.098.18.18 0 0 0 .149-.127c.01-.039.003-.092-.079-.133m1.382.229a.12.12 0 0 0 .155-.025.12.12 0 0 0-.006-.18.14.14 0 0 0-.095-.04.1.1 0 0 0-.039.007.14.14 0 0 0-.103.122q.004.073.088.116m3.036-.061a4.173 4.173 0 0 0-4.054-4.273 4.17 4.17 0 0 0-4.053 4.273 4.17 4.17 0 0 0 4.053 4.271 4.173 4.173 0 0 0 4.054-4.271m-3.111-.307a.23.23 0 0 1 .275-.008.38.38 0 0 1 .144.425c-.02.038.056.132.013.132a1 1 0 0 1-.241-.007.38.38 0 0 1-.316-.168.256.256 0 0 1 .12-.374Zm-.334.062c.103-.058.149-.085.188-.049s.008.067-.033.118-.14.17-.111.231v.026-.01c-.009.102.02.149-.03.156h-.051c-.02 0 0-.01-.019-.035-.035-.058-.084-.342.05-.437Zm-1.852.245c0 .023-.043.222-.143.227h-.019a.07.07 0 0 1-.05-.02c-.03-.032-.016-.07.034-.18.042-.091.072-.145.13-.132s.046.075.041.105Zm.181.041a.1.1 0 0 1-.054.019.1.1 0 0 1-.054-.016.11.11 0 0 1-.056-.14v-.006a.1.1 0 0 1 .095-.048.12.12 0 0 1 .099.078.094.094 0 0 1-.037.113Zm.922.304h-.135v-.085c0-.057-.104-.01-.209-.048a.5.5 0 0 1-.222-.152.6.6 0 0 1 .015.126l-.012.163-.093-.152c-.146-.444-.256-.487-.286-.491s-.043.006-.078.056l-.024.035-.048-.012-.051-.014.02-.054c0-.014.016-.042.031-.089l.006-.016.016-.01a.23.23 0 0 1 .229-.011.6.6 0 0 1 .236.349.44.44 0 0 1 .178-.229l.017-.009a.3.3 0 0 1 .306.034c.166.137.086.491.098.609Zm.073-.277a.25.25 0 0 1 .119-.36.23.23 0 0 1 .25-.026c.146.072.147.298.19.415.111.296-.056.119-.092.128a.4.4 0 0 1-.467-.157m12.224-.342a9.745 9.745 0 0 0-11.081-9.58 11.1 11.1 0 0 0-3.334 1 8.864 8.864 0 0 1 11.908 8.37c.071 5.815-3.901 9.321-7.683 9.588a12 12 0 0 1-1.17.025 8.15 8.15 0 0 1-4.076-1.093q0 .01.043.05a9.33 9.33 0 0 0 5.283 1.636c5.803-.199 10.223-3.833 10.11-9.996m-2.805.186a8.91 8.91 0 0 0-8.594-9.173 8.91 8.91 0 0 0-8.595 9.173 8.907 8.907 0 0 0 8.595 9.171 8.907 8.907 0 0 0 8.594-9.171m-6.707 6.398c0 .017-.019.068-.066.077h-.014a.1.1 0 0 1-.066-.037 5.1 5.1 0 0 1-.348-1.691l.006-.016.016-.007c.018-.01.081-.036.142.05a5.3 5.3 0 0 1 .32 1.628Zm.535-.164-.022.041-.044-.016c-.037-.013-.08-.049-.179-.323a9 9 0 0 1-.352-1.316l.008-.009a.103.103 0 0 1 .137-.007 2.8 2.8 0 0 1 .446 1.63Zm.581-.304c-.3-.024-.459-.555-.598-1.026a3 3 0 0 0-.151-.445l-.017-.032.025-.027a.11.11 0 0 1 .111-.036c.161.032.322.466.533 1.076a5 5 0 0 0 .153.411l.048.086Zm.522-.251-.029.008a.07.07 0 0 1-.047-.02c-.101-.084-.87-1.298-.777-1.53l.01-.016a.08.08 0 0 1 .091-.019 3.26 3.26 0 0 1 .778 1.509.06.06 0 0 1-.032.068Zm.571-.49a.09.09 0 0 1-.058.088h-.022c-.05 0-.168-.056-.493-.508-.134-.185-.556-.802-.458-.938l.019-.023h.03c.241.022.924 1.211.979 1.357v.009Zm.402-.364-.015.033-.056-.007c-.085-.013-1.079-1.023-1.037-1.311v-.037l.037-.007c.189-.038.981.932 1.069 1.191.036.073.019.115-.003.138Zm.488-.479-.016.014a.1.1 0 0 1-.025.03.1.1 0 0 1-.032.011c-.056 0-.196-.075-.667-.529-.633-.611-.59-.676-.565-.711a.06.06 0 0 1 .037-.027.1.1 0 0 1 .024-.023c.142-.08.967.819 1 .858.286.315.265.341.239.377Zm.334-.517a.08.08 0 0 1-.053.021c-.054 0-.163-.041-.42-.211-.009-.006-.86-.578-.85-.828a.06.06 0 0 1 .012-.079c.112-.089 1.062.673 1.231.856.045.049.154.168.078.241Zm.316-.518a.04.04 0 0 1-.031.009 6.7 6.7 0 0 1-1.342-.786c-.021-.016-.056-.044-.044-.081a.1.1 0 0 1 .023-.076l.051.016-.05-.02a.08.08 0 0 1 .071-.043 3.4 3.4 0 0 1 1.333.828.11.11 0 0 1 .017.091.06.06 0 0 1-.029.062Zm.321-.609a.1.1 0 0 1-.066.016 2.8 2.8 0 0 1-.82-.312c-.54-.263-.647-.322-.662-.407a.13.13 0 0 1 .052-.111c.065-.064.124-.043.777.276.172.074.739.327.753.473a.07.07 0 0 1-.035.065Zm.204-.631q-.023.025-.094.023a3.8 3.8 0 0 1-1.371-.455c-.131-.111-.087-.187-.062-.222l.02-.024h.031c.172.027 1.352.345 1.467.577a.064.064 0 0 1 .008.101Zm.141-.657v.044h-.088c-.293 0-1.319-.146-1.469-.378a.12.12 0 0 1 0-.138l.018-.031.036.006.098.013c1.014.151 1.423.287 1.405.484m.123-.634c-.014.022-.032.05-.222.05a9 9 0 0 1-.882-.073h-.044c-.292-.028-.466-.065-.5-.166-.015-.049 0-.099.064-.148l.012-.011h.015a3.56 3.56 0 0 1 1.556.285.07.07 0 0 1 .001.066Zm.008-.685c-.056.14-.501.16-.751.16h-.069c-.222 0-.744-.026-.8-.183-.01-.026-.016-.077.051-.131a8 8 0 0 1 1.522.03.11.11 0 0 1 .047.128Zm0-.621c-.018.104-.187.122-1.203.222h-.047a2 2 0 0 1-.208.014.22.22 0 0 1-.15-.038.14.14 0 0 1-.041-.111v-.025l.019-.015a2.56 2.56 0 0 1 1.134-.211c.096-.006.194-.01.214-.016l.011.038.019-.048h.012c.179.08.253.13.242.194Zm-.079-.704c.016.073-.082.118-.124.136a5 5 0 0 1-1.325.286c-.093 0-.16-.012-.184-.041a.08.08 0 0 1 .005-.1 1.9 1.9 0 0 1 .98-.311c.088-.014.186-.028.232-.039l-.006-.03h.068c.281.006.344.044.356.102Zm-.204-.7a.07.07 0 0 1 0 .082 3.05 3.05 0 0 1-1.369.555.3.3 0 0 1-.065-.005.13.13 0 0 1-.123-.111c0-.137.242-.216.638-.334a3 3 0 0 0 .357-.121h.009c.459-.127.523-.105.553-.063Zm-.27-.651a.14.14 0 0 1 .06.111.04.04 0 0 1 .014.021c.018.043-.023.075-.04.088a5.6 5.6 0 0 1-1.395.612.1.1 0 0 1-.047-.011.07.07 0 0 1-.026-.069c0-.199.428-.387.95-.594a4 4 0 0 0 .285-.118v-.01l.042-.024a.16.16 0 0 1 .159-.003Zm-.205-.513c.085.184-1.182.863-1.196.869l-.014.008h-.017c-.073-.008-.171-.027-.187-.103-.026-.12.191-.249.575-.468a5 5 0 0 0 .424-.257l.013-.008c.275-.095.373-.105.404-.037Zm-.58-.589.011-.012h.017c.045-.01.168-.039.201.042.08.189-.797.809-1.032.947a.6.6 0 0 1-.223.092.07.07 0 0 1-.057-.024l-.016-.019v-.023c.048-.277.346-.467.632-.652a2.4 2.4 0 0 0 .469-.347Zm-.193-.555a.13.13 0 0 1 .071.096c.009.085-.074.172-.54.618-.207.211-.566.556-.71.556h-.018a.07.07 0 0 1-.051-.051c-.037-.146.444-.591.592-.726.55-.52.57-.541.658-.486Zm-.608-.433h.012c.078-.025.173-.045.216.017.065.097-.081.279-.433.667-.102.111-.2.222-.251.294-.28.294-.354.334-.393.334h-.018a.07.07 0 0 1-.048-.045 4.1 4.1 0 0 1 .905-1.255Zm-.478-.398.041-.066h.019c.032-.01.131-.041.18.024.078.105-.072.346-.438.847a2 2 0 0 0-.193.282l-.01.016c-.201.233-.29.29-.341.29a.07.07 0 0 1-.042-.016c-.039-.03-.129-.097.546-1.012.136-.204.19-.29.238-.365m-.444-.445.01-.023.024-.008a.11.11 0 0 1 .13.026c.027.032.111.128-.254.794-.068.123-.41.733-.542.733h-.033l-.011-.03c-.082-.222.197-.666.444-1.071a3 3 0 0 0 .232-.421m-.556-.306.006-.03.03-.008a.12.12 0 0 1 .143.031c.178.222-.566 1.555-.573 1.565l-.038.055-.052-.046c-.173-.173.024-.566.232-.984a3 3 0 0 0 .252-.583m-.564-.253v-.03l.03-.009a.11.11 0 0 1 .14.044c.147.233-.344 1.499-.46 1.61l-.058.055-.03-.072a1.75 1.75 0 0 1 .199-1.068 3.3 3.3 0 0 0 .173-.53Zm-.684.222a7 7 0 0 0 .096-.423v-.022l.019-.012a.11.11 0 0 1 .111-.013c.041.024.087.08.077.323-.015.402-.205 1.276-.412 1.369l-.068.03-.007-.073a4.2 4.2 0 0 1 .179-1.182Zm-.555-.146c.025-.196.05-.381.047-.428v-.051l.078-.007c.078-.008.129-.012.165.026s.031.102 0 .265a7 7 0 0 0-.079.653v.011a2 2 0 0 0-.02.245c-.014.289-.028.484-.111.546a.1.1 0 0 1-.06.021h-.018a.08.08 0 0 1-.056-.032c-.088-.106-.053-.505.044-1.253Zm-.568-.533.024-.026a.09.09 0 0 1 .105-.031c.035.013.144.054.15.824 0 .215 0 .918-.14.971h-.027a.08.08 0 0 1-.059-.026 3.6 3.6 0 0 1-.052-1.485c.005-.092.011-.181.011-.209Zm-.534-.072c.349.099.294 1.509.261 1.737l-.01.069-.065-.029c-.199-.088-.222-.704-.238-1.382a3 3 0 0 0-.013-.325l-.052-.105Zm-.646.035c.102-.013.192.111.279.404.111.369.267 1.29.104 1.367l-.029.014-.037-.026a3.45 3.45 0 0 1-.333-1.428 6 6 0 0 0-.039-.278L9.8 5.456Zm-.617.092c.059-.007.111.034.174.123A3.2 3.2 0 0 1 9.8 7.275l-.042.07-.048-.067a5.3 5.3 0 0 1-.51-1.667l-.008-.062Zm-.588.165a.2.2 0 0 1 .137.07 3.9 3.9 0 0 1 .586 1.586.067.067 0 0 1-.065.071c-.178 0-.706-1.498-.711-1.667v-.06Zm-.607.214h.019a.1.1 0 0 1 .048-.009c.245.018.795 1.376.842 1.556.01.034.023.081-.015.111l-.032.021-.024-.016c-.302-.051-.785-1.333-.866-1.561l-.008-.019v-.013l-.009-.06Zm.089 12.306-.039-.072c-.111-.203.14-.639.38-1.059a3.3 3.3 0 0 0 .274-.541v-.006a5 5 0 0 1-.237-.071 2.2 2.2 0 0 1-.411.723l.041-.03-.189.267c-.257.359-.309.393-.345.393h-.043l-.017-.034a5.8 5.8 0 0 1 .733-1.4 6 6 0 0 1-.222-.094 4.6 4.6 0 0 1-1 1.263h-.058a.07.07 0 0 1-.053-.024c-.056-.067.013-.196.607-.969.111-.142.206-.267.259-.342l.008-.008.027-.027a3 3 0 0 1-.205-.118 5 5 0 0 1-.586.676c-.36.363-.467.424-.512.424a.04.04 0 0 1-.027-.008.08.08 0 0 1-.065-.032c-.049-.075.047-.202.599-.794.142-.153.279-.299.372-.409a6 6 0 0 1-.184-.137c-.95.889-1.127.986-1.185.986h-.017l-.034-.02L6 16.733c-.027-.124.62-.778 1.023-1.119-.054-.049-.111-.098-.16-.149a7 7 0 0 1-.515.383l-.012.006-.125.099c-.287.233-.409.316-.482.316a.1.1 0 0 1-.033-.007.08.08 0 0 1-.046-.067v-.017a.9.9 0 0 1 .483-.517 2.4 2.4 0 0 0 .433-.325v-.005l.095-.068q-.076-.082-.148-.172a3.6 3.6 0 0 1-1.147.634.1.1 0 0 1-.052-.011.1.1 0 0 1-.032-.053.07.07 0 0 1-.028-.032c-.026-.072.045-.134.855-.631l.232-.143-.123-.181a3.5 3.5 0 0 1-1.135.496h-.035a.1.1 0 0 1-.083-.082v-.027c.078-.176.406-.321.754-.475.124-.055.243-.111.345-.16l-.111-.206c-.464.204-1.111.415-1.111.417l-.031.006-.021-.022a.17.17 0 0 1-.048-.164c.048-.165.384-.27.739-.38.128-.04.259-.08.358-.12a5 5 0 0 1-.079-.202 3.3 3.3 0 0 1-1.023.252.4.4 0 0 1-.132-.015.13.13 0 0 1-.111-.119v-.031l.027-.018a3 3 0 0 1 .83-.29q.166-.041.311-.082a5 5 0 0 1-.055-.214 6.7 6.7 0 0 1-1.112.183.2.2 0 0 1-.071-.009l-.032-.017v-.027a.2.2 0 0 1 .026-.154c.111-.158.486-.198.851-.236.095-.01.192-.021.279-.033l-.034-.222a6 6 0 0 1-.845.072c-.211 0-.372-.022-.409-.078a.08.08 0 0 1 0-.089.1.1 0 0 1 .019-.041c.076-.099.444-.139 1.149-.182h.055c0-.075-.006-.148-.007-.222h-.339l-.013-.006a2 2 0 0 0-.212 0 6 6 0 0 1-.273.009c-.208 0-.359-.022-.41-.104a.13.13 0 0 1 .01-.147l.015-.026h.073a10 10 0 0 1 1.153-.053c0-.06.008-.119.012-.177a2.95 2.95 0 0 1-1.209-.222.11.11 0 0 1-.015-.153l.015-.021h.027a8 8 0 0 1 1.222.046l.032-.171a7 7 0 0 1-.257-.039c-.445-.074-.978-.204-.978-.403v-.056h.053a6.7 6.7 0 0 1 1.262.164q.026-.09.054-.177a2.7 2.7 0 0 1-1.189-.461.11.11 0 0 1-.019-.096l.024-.041c.025-.035.037-.054.739.134.17.046.377.104.556.158q.038-.096.08-.188-.142-.049-.345-.126c-.96-.367-.943-.473-.936-.514a.08.08 0 0 1 .054-.059v-.015l.048-.001a6 6 0 0 1 1.32.439q.049-.092.101-.18a3.8 3.8 0 0 1-1.216-.703.07.07 0 0 1-.01-.085.08.08 0 0 1 .065-.027c.039-.012.111 0 .264.053a9 9 0 0 1 1.048.512c.039-.058.079-.111.121-.169a3.7 3.7 0 0 1-1.153-.857l-.018-.024.012-.028a.07.07 0 0 1 .059-.042 5 5 0 0 1 1.293.712q.074-.082.152-.157c-.151-.111-.385-.283-.758-.565-.328-.247-.444-.351-.373-.462l.022-.036.041.014a4.1 4.1 0 0 1 1.258.861c.058-.054.118-.112.178-.158-.334-.271-1.195-1.009-1.124-1.158.008-.017.034-.052.104-.036h.012a5.1 5.1 0 0 1 1.208 1.03q.092-.068.189-.133a11 11 0 0 1-.306-.328c-.653-.713-.753-.823-.743-.911a.11.11 0 0 1 .059-.082l.018-.008c.033-.009.1-.027.556.445a6 6 0 0 1 .626.75q.114-.069.234-.129a5.2 5.2 0 0 1-.992-1.361l-.01-.025.013-.022a.09.09 0 0 1 .117-.03 5 5 0 0 1 1.059 1.349 3 3 0 0 1 .32-.128c-.312-.138-.578-.667-.791-1.097-.069-.137-.134-.267-.192-.365l-.022-.039.035-.028a.11.11 0 0 1 .111-.017c.278.088.915 1.315.962 1.496v.016a4.1 4.1 0 0 1 1.286-.204 4.49 4.49 0 0 1 4.368 4.588 4.49 4.49 0 0 1-4.368 4.587 4 4 0 0 1-.907-.1c.096.298-.696 1.514-.742 1.572Zm3.692.375a.08.08 0 0 1-.064.038h-.015c-.08-.02-.129-.171-.228-1.466l-.021-.259v-.039l.038-.014a.12.12 0 0 1 .136.043 3.4 3.4 0 0 1 .154 1.696Zm-.543-.788c0 .802-.006.879-.081.909h-.029a.14.14 0 0 1-.092-.052 10 10 0 0 1-.033-1.676q-.002-.067.037-.091a.12.12 0 0 1 .12-.02c.074.044.078.147.078.929Zm-.761.906-.029.01-.029-.02c-.051-.043-.061-.197.074-1.433l.03-.297v-.057l.058.009q.14.02.165.322c.045.428-.094 1.406-.272 1.465Zm-.576-.05-.072.082-.023-.106a3.3 3.3 0 0 1 .146-1.164c.046-.207.092-.402.111-.549l.005-.05h.051a.13.13 0 0 1 .112.091 3.45 3.45 0 0 1-.33 1.695Zm-.593-.106-.076.081-.016-.111a2.3 2.3 0 0 1 .214-1.111 2 2 0 0 0 .148-.522v-.034l.033-.013a.11.11 0 0 1 .146.031c.161.212-.351 1.576-.449 1.678Zm-.594-.158-.015.007a.1.1 0 0 1-.046.012.07.07 0 0 1-.05-.019c-.08-.071 0-.333.386-1.288.073-.176.135-.333.153-.389l.014-.044.047.008a.13.13 0 0 1 .101.071c.128.257-.365 1.222-.582 1.621Zm1.615 2.18c-.673 0-1.023-.071-1.194-.241a.52.52 0 0 1-.137-.39c0-.483.334-.631 1.445-.631s1.444.153 1.444.631v.021c0 .438-.111.593-1.411.61Zm.11-1.053c-1.231 0-1.231.204-1.231.421a.3.3 0 0 0 .074.24c.134.132.51.189 1.184.18a3.1 3.1 0 0 0 1.098-.122c.101-.051.111-.111.111-.277v-.021c-.005-.207-.005-.421-1.236-.421"/></svg>