<svg xmlns="http://www.w3.org/2000/svg" viewBox="0 0 24 24"><path fill="#44739e" d="M8.605 8.634a1.221.834 90 0 1-.834 1.221 1.221.834 90 0 1-.833-1.221 1.221.834 90 0 1 .833-1.221 1.221.834 90 0 1 .834 1.221m-.834-1.841c-.662 0-1.199.825-1.199 1.841s.537 1.84 1.199 1.84S8.97 9.65 8.97 8.634s-.536-1.841-1.199-1.841m0 3.322c-.525 0-.946-.663-.946-1.481s.421-1.481.946-1.481.946.663.946 1.481-.422 1.481-.946 1.481m6.169-7.993a8.36 8.36 0 0 0-6.263 1.421c-1.441.216-2.701 1.92-2.957 4.127a7 7 0 0 0 .966 4.781l.087 7.451a59 59 0 0 0 13.593.055V8.931c-.182-3.258-1.384-5.893-5.426-6.809M7.902 15.158c-.074 0-.134 0-.134-.42s.06-.421.134-.421.134 0 .134.421c.003.383-.056.42-.134.42m-.12-1.877c-1.584 0-2.87-2.08-2.87-4.647s1.289-4.643 2.873-4.643 2.87 2.08 2.87 4.647-1.282 4.643-2.87 4.643Zm-1.175 7.011v1.217a40.8 40.8 0 0 0 11.91.105l-.031-1.234a63.6 63.6 0 0 1-11.879-.088"/></svg>