<?xml version="1.0" encoding="UTF-8"?>
<svg width="24px" fill="#44739e" height="24px" viewBox="0 0 24 24" version="1.1" xmlns="http://www.w3.org/2000/svg" xmlns:xlink="http://www.w3.org/1999/xlink">
            <path d="M 9.6,21.823 H 20.99 A 1.006,1.006 0 0 0 22,20.817 V 17.1 H 9.6 Z M 20.994,2.177 H 9.6 V 6.859 H 22 V 3.183 A 1.006,1.006 0 0 0 20.994,2.177 Z M 9.6040001,7.1700001 H 22 V 11.822 H 9.6040001 Z M 2.023369,3.183 v 17.634 a 1.006,1.006 0 0 0 1.006,1.006 h 6.213 V 2.177 h -6.213 a 1.006,1.006 0 0 0 -1.006,1.006 z m 3.854,2.523 a 0.289,0.289 0 1 1 -0.289,0.288 0.288,0.288 0 0 1 0.289,-0.288 z m 0,0.813 a 0.289,0.289 0 1 1 -0.289,0.289 0.288,0.288 0 0 1 0.289,-0.289 z m 0,0.814 a 0.289,0.289 0 1 1 -0.289,0.288 0.288,0.288 0 0 1 0.289,-0.288 z m 0,0.813 a 0.289,0.289 0 1 1 -0.289,0.289 0.289,0.289 0 0 1 0.289,-0.289 z m 0,0.814 a 0.289,0.289 0 1 1 -0.289,0.289 0.288,0.288 0 0 1 0.289,-0.289 z m 0,0.8140002 a 0.289,0.289 0 1 1 -0.289,0.2879998 0.288,0.288 0 0 1 0.289,-0.2879998 z m 0,0.8129998 a 0.289,0.289 0 1 1 -0.289,0.289 0.288,0.288 0 0 1 0.289,-0.289 z m 0,0.814 a 0.289,0.289 0 1 1 -0.289,0.288 0.288,0.288 0 0 1 0.289,-0.289 z m 0,0.813 a 0.289,0.289 0 1 1 -0.289,0.289 0.289,0.289 0 0 1 0.289,-0.289 z m 0,0.814 a 0.289,0.289 0 1 1 -0.289,0.289 0.288,0.288 0 0 1 0.289,-0.289 z m 0,0.814 a 0.289,0.289 0 1 1 -0.289,0.288 0.288,0.288 0 0 1 0.289,-0.288 z m 0,0.813 a 0.289,0.289 0 1 1 -0.289,0.289 0.288,0.288 0 0 1 0.289,-0.289 z m 0,0.814 a 0.289,0.289 0 1 1 -0.289,0.288 0.288,0.288 0 0 1 0.289,-0.288 z m 0,0.814 a 0.288,0.288 0 1 1 -0.289,0.288 0.288,0.288 0 0 1 0.289,-0.288 z m 0,0.813 a 0.289,0.289 0 1 1 -0.289,0.289 0.288,0.288 0 0 1 0.289,-0.285 z M 9.6040001,12.133 H 22 v 4.652 H 9.6040001 Z"/>

</svg>