<?xml version="1.0" encoding="UTF-8"?>
<svg width="24px" fill="#44739e" height="24px" viewBox="0 0 24 24" version="1.1" xmlns="http://www.w3.org/2000/svg" xmlns:xlink="http://www.w3.org/1999/xlink">
            <path d="m 13.707,3.994 a 1.508,1.508 0 0 0 -1.327,1.64 1.508,1.508 0 0 0 1.327,1.639 1.508,1.508 0 0 0 1.326,-1.639 1.508,1.508 0 0 0 -1.326,-1.64 z m 0,2.049 a 0.377,0.377 0 0 1 -0.332,-0.409 0.339,0.339 0 1 1 0.663,0 0.376,0.376 0 0 1 -0.331,0.409 z m 3.821,3.975 a 1.671,1.671 0 0 0 1.46,-1.818 1.671,1.671 0 0 0 -1.46,-1.819 1.671,1.671 0 0 0 -1.46,1.819 1.671,1.671 0 0 0 1.46,1.818 z m 0,-3.341 A 1.4,1.4 0 0 1 18.76,8.2 1.4,1.4 0 0 1 17.528,9.722 1.4,1.4 0 0 1 16.3,8.2 1.4,1.4 0 0 1 17.528,6.677 Z M 12.27,10.672 A 1.59,1.59 0 0 0 13.656,12.4 1.59,1.59 0 0 0 15.042,10.668 1.59,1.59 0 0 0 13.656,8.94 1.59,1.59 0 0 0 12.27,10.672 Z m 7.121,2.688 a 3.152,3.152 0 0 0 0.937,-2.291 L 20.257,4.876 a 2.805,2.805 0 0 0 -2.8,-2.762 H 12.81 a 2.689,2.689 0 0 0 -2.689,2.725 l 0.085,6.476 a 2.927,2.927 0 0 0 2.891,2.9 l 4,0.067 A 3.155,3.155 0 0 0 19.391,13.36 Z M 15.223,5.634 A 1.724,1.724 0 0 1 13.707,7.507 1.723,1.723 0 0 1 12.191,5.634 1.723,1.723 0 0 1 13.707,3.76 1.724,1.724 0 0 1 15.223,5.634 Z m -3.118,5.038 a 1.753,1.753 0 0 1 1.551,-1.9 1.754,1.754 0 0 1 1.551,1.9 1.754,1.754 0 0 1 -1.551,1.9 1.753,1.753 0 0 1 -1.551,-1.9 z M 15.944,8.2 A 1.793,1.793 0 0 1 17.528,6.257 1.794,1.794 0 0 1 19.112,8.2 1.793,1.793 0 0 1 17.528,10.143 1.793,1.793 0 0 1 15.944,8.2 Z m -5.115,5.385 A 3.254,3.254 0 0 1 9.876,11.32 L 9.79,4.843 A 3.027,3.027 0 0 1 11.684,2 L 5.8,2.339 A 3.126,3.126 0 0 0 3.672,5.38 l 0.092,5.92 a 2.883,2.883 0 0 0 2.78,2.838 c 1.9,0.066 3.794,0.227 5.69,0.276 a 3.252,3.252 0 0 1 -1.405,-0.829 z m 2.262,0.962 c -0.082,0 -0.164,-0.007 -0.245,-0.014 C 11.61,14.518 10.373,14.447 9.165,14.377 L 8.858,14.359 10.479,16.2 h 0.635 a 1.022,1.022 0 0 0 0.113,0 l 3.825,-0.111 v 0 c 0.531,-0.042 0.679,-0.376 0.679,-0.854 v 0 a 0.8,0.8 0 0 0 -0.2,-0.642 z m 2.399,3.033 -1.331,-1.376 h -1.706 l 1.349,1.438 z M 8.768,14.606 A 0.711,0.711 0 0 0 8.242,14.373 h -0.89 a 0.562,0.562 0 0 0 -0.542,0.719 2.534,2.534 0 0 0 0.526,0.966 l 2.808,3.271 a 3.045,3.045 0 0 0 0.379,0.391 l 0.052,0.047 a 1.784,1.784 0 0 0 0.837,0.489 h 0.012 L 12.46,20.185 V 19.82 a 2.737,2.737 0 0 0 -0.308,-1.221 l -0.265,-0.508 4.151,-0.208 0.018,0.014 a 1.721,1.721 0 0 1 0.686,1.31 l 0.028,0.7 0.17,-0.013 0.2,-0.039 a 0.764,0.764 0 0 0 0.453,-0.825 v -0.017 a 1.745,1.745 0 0 0 -0.151,-0.482 v -0.007 a 1.67,1.67 0 0 0 -0.306,-0.437 l -1.836,-1.87 -0.836,0.027 1.365,1.485 -4.057,0.2 z m 7.794,4.694 a 1.612,1.612 0 0 0 -0.375,-1.034 l -0.073,-0.087 -3.821,0.194 0.117,0.211 a 2.23,2.23 0 0 1 0.284,1.088 v 0.508 l 3.868,-0.247 z m -3.994,0.3 a 2.384,2.384 0 0 0 -0.022,-0.239 h -0.011 c 0.014,0.078 0.025,0.157 0.033,0.239 z m 4.612,0.373 -0.023,0.009 -0.208,0.04 -0.263,0.02 v 0.007 l -4.116,0.263 v -0.007 l -1.158,0.079 -0.031,-0.008 a 1.919,1.919 0 0 1 -0.893,-0.52 L 10.439,19.811 A 2.842,2.842 0 0 1 10.122,19.493 L 5.376,19.756 A 0.084,0.084 0 0 0 5.35,19.917 h 0.021 l 4.472,0.512 0.167,0.019 a 7.538,7.538 0 0 0 0.938,0.049 c 0.159,0 0.318,-0.008 0.477,-0.019 L 18.051,20.04 A 2.667,2.667 0 0 0 18.329,20 h 0.022 a 0.694,0.694 0 0 0 0.229,-0.074 l 0.105,-0.052 h 0.009 c 0.034,-0.029 -0.183,-0.06 -0.227,-0.065 l -0.944,-0.094 a 0.885,0.885 0 0 1 -0.343,0.258 z m 1.386,1.069 V 20.1 a 0.908,0.908 0 0 1 -0.4,0.085 l -0.088,0.005 -6.929,0.468 A 6,6 0 0 1 10.028,20.624 L 5.459,20.055 v 0.988 L 9.9,21.6 a 8.154,8.154 0 0 0 1.546,0.046 l 6.985,-0.457 a 0.151,0.151 0 0 0 0.135,-0.147 z m -7.115,0.772 c -0.179,0.012 -0.359,0.018 -0.539,0.018 A 8.345,8.345 0 0 1 9.875,21.767 L 5.453,21.208 c -0.176,0.055 -0.234,0.15 0,0.2 l 4.314,0.5 a 7.163,7.163 0 0 0 1.654,0.082 l 6.966,-0.451 c 0.245,-0.021 0.328,-0.152 0.215,-0.232 a 0.315,0.315 0 0 1 -0.162,0.059 z m 1.084,-2.454 h 0.011 a 2.109,2.109 0 0 0 -0.2,-0.637 2.847,2.847 0 0 1 0.189,0.637 z M 10.948,20.5 A 7.538,7.538 0 0 1 10.01,20.451 l -0.167,-0.019 0.207,0.026 a 5.854,5.854 0 0 0 0.898,0.042 z m 7.381,-0.495 h 0.022 z M 16,18.012 l -3.913,0.2 0.027,0.051 3.942,-0.2 z"/>

</svg>