<svg xmlns="http://www.w3.org/2000/svg" viewBox="0 0 24 24"><path fill="#44739e" d="m16.751 17.287.063-.039.414.665-.063.039Zm.288-.799.067-.03.61 1.346-.068.031Zm.207-.128.067-.032.236.499-.067.032Zm.325-1.639a2.5 2.5 0 0 0-.276-.6.97.97 0 0 0-.583-.322.53.53 0 0 1-.384-.293H7.287c-.1.138-.144.32-.271.338-.556.08-.793.794-.793.794-.258.727-1.114 3.166-.536 4.927.114.348 1.405.725 3.169.947a1.6 1.6 0 0 1-.089-.567c0-.421.12-.762.268-.762s.267.341.267.762a1.5 1.5 0 0 1-.106.607c2.74.3 6.453.228 8.746-.857 1.197-.567.221-3.907-.371-4.977Zm.2 3.256a.46.46 0 0 1-.172.146l-.407-.8-.065.033.4.795a1 1 0 0 1-.113.027c-.362.053-.63.021-.776-.881a1.1 1.1 0 0 1 .068-.594l.235.33.06-.043-.26-.364a.77.77 0 0 1 .426-.399 1 1 0 0 1 .316-.063.33.33 0 0 1 .168.04c.135.083.166.291.206.554l.014.1a1.54 1.54 0 0 1-.091 1.119Zm-.239-1.545.069-.027.295.762-.069.026Zm.037.73.067-.03.2.452-.068.031ZM9.301 9.81a1.556 1.556 0 0 0 1.479-1.627 1.56 1.56 0 0 0-1.479-1.625 1.557 1.557 0 0 0-1.475 1.625A1.56 1.56 0 0 0 9.301 9.81m0-2.866a1.186 1.186 0 0 1 1.124 1.239 1.185 1.185 0 0 1-1.124 1.24 1.187 1.187 0 0 1-1.12-1.24 1.187 1.187 0 0 1 1.12-1.239m.654 1.239a.69.69 0 0 1-.654.716.724.724 0 1 1 .653-.721Zm-2.227 5.079H15.8a5.55 5.55 0 0 0 2.421-4.876C18.221 4.6 15.821 2 11.926 2S5.627 4.594 5.627 8.385a5.71 5.71 0 0 0 2.101 4.877M6.552 7.099a4.65 4.65 0 0 1 4.299-4.275c3.285-.008 1.956 1.316 1.956 4.275 0 2.813-1.033 5.093-2.722 5.093-2.961-.003-3.764-2.293-3.533-5.093m10.469 13.117-.292.488-.111-.066.213-.355q-.3.1-.6.177l-.164.358-.117-.054.121-.265a9 9 0 0 1-.486.1l-.147.32-.117-.054.109-.24q-.234.039-.471.066l-.045.276-.127-.021.039-.24q-.265.029-.532.047l-.014.255-.132-.01.013-.239q-.324.02-.657.032v.237h-.124v-.23q-.352.012-.717.019v.247h-.129v-.244h-.188c-.089 0-.254.006-.476.008v.231h-.129v-.23c-.209 0-.457 0-.733-.006v.236h-.129v-.239a29 29 0 0 1-.661-.026v.265h-.138v-.272a22 22 0 0 1-.651-.046l.058.265-.126.028-.067-.3a20 20 0 0 1-.535-.058l.1.27-.116.052-.13-.335a14 14 0 0 1-.557-.086l.154.3-.116.058-.2-.389a11 11 0 0 1-.388-.082l.148.327-.118.053-.189-.419a7 7 0 0 1-.352-.1l.144.32-.117.053-.193-.427a5 5 0 0 1-.321-.123 9 9 0 0 0-.613-.168c.839.371.637.36 1.07.978a1.25 1.25 0 0 0 .775.572c.776.167 1.461.3 1.846.351a18.4 18.4 0 0 0 5.61-.221s1.477-.277 1.68-.813a1.45 1.45 0 0 1 .351-.5 3 3 0 0 1 .867-.57 5 5 0 0 0-.748.317Z"/></svg>