<svg xmlns="http://www.w3.org/2000/svg" viewBox="0 0 24 24"><path fill="#44739e" d="M3.794 5.747a4.9 4.9 0 0 1 .926-2.931C3.315 3.618 2.075 4.9 2.1 6.14v11.718c-.041 1.125 1.177 2.376 2.554 3.21-1.626-1.588-.582-13.2-.86-15.321m14.694-2.926L7.823 2.015c-.154-.013-.303-.006-.456-.008-1.918-.136-3.106 1.717-3.115 3.74v12.481c-.017 2.059 1.284 3.914 3.208 3.763.552.013 10.242-.773 11.028-.814a3.794 3.794 0 0 0 3.413-3.743V6.565a3.794 3.794 0 0 0-3.413-3.744m-6.494 12.892a.573.573 0 0 1-.2-.921c.061-.549-.397-.993 0-1.598.094-.636-.354-1.316-.027-1.84.216-.609-.437-1.251.034-1.862.13-.254-.254-.535-.193-.792.051-.329.646-.659.562-.185-.043.119-.296.189-.199.341a.865.865 0 0 1 .038 1.023c-.147.626.406 1.251-.007 1.876-.163.59.378 1.134.086 1.658-.076.232-.202.562-.045.752a.86.86 0 0 1-.007.919c-.179.178.181.32.193.485-.056.09-.134.191-.235.144m1.078-.114c-.375.281-.741-.475-.437-.767.186-.607-.432-.997.076-1.724-.049-.655-.404-1.193-.042-1.841.159-.417-.313-.892-.171-1.314a.98.98 0 0 0-.034-1.132c.031-.561.959-.641.467-.121-.105.031-.119.105-.054.239.459.503-.232.997.037 1.555.379.574-.187 1.192-.034 1.752a3 3 0 0 1 .19.768c-.037.313-.256.602-.228.923a1.03 1.03 0 0 1 0 1.235c.053.148.392.241.23.427m1.884-.321c-.307.559-.785.257-.289-.192-.511-.619.246-1.146-.132-1.771-.268-.499.223-1.025.104-1.511-.521-.819.291-1.336-.13-2.063-.18-.339.031-.552.155-.84-.104-.129-.4-.334-.18-.478.66.066.53.671.304 1.079a1.52 1.52 0 0 1 .005 1.516c0 .32.2.621.209.939.08.448-.397.907-.115 1.345a1.1 1.1 0 0 1-.057 1.1c-.181.279.422.605.126.876m.739-2.227c.159.377.358.834.059 1.2-.139.154-.078.312.017.458a.425.425 0 0 1-.042.643c-.093.146-.208.247-.37.191-.271-.201.341-.402.145-.608-.263-.287-.158-.649.008-.998.116-.296-.17-.626-.171-.925-.082-.411.358-.882.172-1.285a1.32 1.32 0 0 1-.014-1.277c.246-.336-.368-.814-.124-1.155.009-.135.249-.313.104-.44-.18-.093-.274-.374 0-.417.376.146.563.57.306.809-.303.367.28.774.105 1.168a1.43 1.43 0 0 0 .01 1.403c.115.42-.288.818-.205 1.233"/></svg>