<svg xmlns="http://www.w3.org/2000/svg" fill="#44739e" width="24" height="24" version="1.1" viewBox="0 0 24 24"><path d="M 9.336,7.261 9.306,7.18 9.221,7.167 9.167,7.232 9.197,7.314 9.281,7.328 Z M 9.888,8.703 9.838,8.567 9.694,8.547 9.601,8.664 9.651,8.801 9.796,8.826 Z M 9.268,9.213 9.248,9.308 9.318,9.374 9.411,9.345 9.432,9.251 9.361,9.185 Z M 9.803,7.767 9.773,7.645 9.653,7.611 9.564,7.698 9.594,7.818 9.713,7.853 Z M 9.302,8.665 9.315,8.672 9.329,8.665 V 8.645 L 9.32,8.639 9.31,8.647 Z M 8.987,8.34 8.98,8.39 9.019,8.421 9.067,8.401 9.073,8.351 9.032,8.321 Z M 9.036,7.729 9.019,7.798 9.069,7.847 9.139,7.83 9.157,7.761 9.107,7.711 Z M 8.284,7.961 V 7.819 L 8.162,7.75 8.039,7.819 V 7.961 L 8.169,8.03 Z M 7.898,9.059 7.873,9.101 7.898,9.145 H 7.949 L 7.973,9.101 7.948,9.058 Z M 10.419,8.88 v 0.04 l 0.035,0.02 0.033,-0.02 V 8.88 L 10.454,8.86 Z M 8.344,9.005 8.337,8.988 8.319,8.977 A 0.345,0.345 0 0 1 8.245,8.939 L 8.232,8.931 h -0.06 v 0.046 a 0.14,0.14 0 0 0 0,0.05 L 8.163,9.086 h 0.059 a 0.262,0.262 0 0 1 0.079,0 L 8.38,9.1 8.351,9.019 Z m 0.125,0.21 -0.036,0.061 0.036,0.062 h 0.07 L 8.575,9.276 8.54,9.215 Z M 8.32,8.318 8.26,8.227 8.151,8.233 8.102,8.331 8.162,8.421 8.27,8.415 Z m 0.306,0.492 -0.02,0.047 0.03,0.04 0.051,-0.006 0.02,-0.046 -0.03,-0.04 z m 7.445,8.29 h 0.012 L 16.2,9.317 a 1.81,1.81 0 0 0 0.022,-0.265 c 0,-0.045 -0.006,-0.089 -0.01,-0.134 l 0.093,-5.367 0.038,-0.037 c 0,-0.03 -0.03,-0.053 -0.036,-0.082 v -0.013 0 A 1.556,1.556 0 0 0 16.031,2.783 c -0.575,0.363 -2.1,0.54 -4.528,0.567 -2.648,0.029 -4.9,-0.17 -5.046,-0.707 0,0 -0.321,0.5 -0.258,0.769 V 3.433 L 6.33,11.065 6.278,11.034 c 0.019,0.525 0.178,4.706 0.206,6.5 0,0 0.082,0.838 1.809,1.493 a 4.84,4.84 0 0 0 -0.026,1.278 c 0.081,0.523 0.617,0.8 0.949,1.015 a 5.3,5.3 0 0 0 1.665,0.474 15.406,15.406 0 0 0 5.19,-0.029 2.7,2.7 0 0 0 1.612,-0.632 0.541,0.541 0 0 0 0.129,-0.371 V 18.679 C 17.815,17.649 17.249,17.7 16.071,17.1 Z M 6.708,9.07 A 0.314,0.314 0 0 0 6.552,9.333 0.274,0.274 0 0 0 6.561,9.403 L 6.554,9.415 c -0.018,0.043 0.025,0.076 0.058,0.1 0,0.523 0.045,1.593 -0.106,1.669 v 0.007 c -0.019,0.008 -0.05,-0.03 -0.077,-0.055 l -0.13,-7.5 A 0.984,0.984 0 0 0 6.784,3.943 12.854,12.854 0 0 0 10,4.231 c 0.415,0.008 0.859,0.015 1.362,0.02 H 11.6 A 29.76,29.76 0 0 0 15.9,3.932 C 15.944,3.919 15.973,3.88 16.014,3.859 a 0.718,0.718 0 0 0 0.192,-0.122 l -0.1,4.771 C 16.067,8.441 16.02,8.392 15.959,8.392 c -0.061,0 -0.137,0.062 -0.185,0.178 A 0.484,0.484 0 0 0 15.554,8.215 0.42,0.42 0 0 0 15.085,7.652 C 15.07,7.452 14.946,7.296 14.795,7.296 A 0.24,0.24 0 0 0 14.632,7.361 0.309,0.309 0 0 0 14.699,7.169 0.384,0.384 0 0 0 14.341,6.814 0.349,0.349 0 0 0 14.112,6.724 0.331,0.331 0 0 0 13.946,6.769 C 13.898,6.592 13.794,6.481 13.687,6.481 c -0.107,0 -0.2,0.1 -0.252,0.256 A 0.438,0.438 0 0 0 13.053,6.508 0.465,0.465 0 0 0 12.93,6.522 V 6.515 a 0.41,0.41 0 0 0 -0.572,-0.1 v 0 C 12.324,6.215 12.211,6.067 12.072,6.067 A 0.278,0.278 0 0 0 11.834,6.256 L 11.818,6.246 A 0.535,0.535 0 0 0 11.5,6.11 0.328,0.328 0 0 0 11.222,6.216 0.305,0.305 0 0 0 11.151,6.383 L 11.114,6.367 a 0.436,0.436 0 0 0 -0.8,-0.074 0.437,0.437 0 0 0 -0.8,0.1 A 0.374,0.374 0 0 0 9.066,6.293 0.383,0.383 0 0 0 8.856,6.572 0.4,0.4 0 0 0 8.531,6.808 0.267,0.267 0 0 0 8.459,6.8 0.291,0.291 0 0 0 8.169,7.092 v 0 A 0.3,0.3 0 0 0 8.179,7.165 0.307,0.307 0 0 0 8.02,7.3 0.425,0.425 0 0 0 7.679,7.613 0.46,0.46 0 0 0 7.514,7.582 a 0.409,0.409 0 0 0 -0.42,0.4 v 0 A 0.4,0.4 0 0 0 7.277,8.311 0.389,0.389 0 0 0 7.161,8.434 0.262,0.262 0 0 0 7.007,8.382 c -0.188,0 -0.333,0.211 -0.333,0.477 A 0.648,0.648 0 0 0 6.708,9.07 Z m 0.633,0.2 v 0 L 7.361,9.239 7.335,9.212 7.319,9.192 7.269,9.132 7.242,9.2 C 7.236,9.213 7.229,9.225 7.222,9.238 v 0.01 C 7.112,9.223 7.002,9.208 6.894,9.18 L 6.854,9.166 V 9.16 a 0.543,0.543 0 0 1 -0.04,-0.2 c 0,-0.211 0.113,-0.382 0.239,-0.382 A 0.184,0.184 0 0 1 7.188,8.646 L 7.238,8.711 7.267,8.642 A 0.269,0.269 0 0 1 7.432,8.467 L 7.481,8.458 7.532,8.488 A 0.182,0.182 0 0 1 7.591,8.539 L 7.647,8.593 7.675,8.678 A 0.668,0.668 0 0 1 7.685,9.03 L 7.665,9.089 H 7.808 L 7.79,9.031 a 0.773,0.773 0 0 1 -0.006,-0.1 0.541,0.541 0 0 1 0.038,-0.2 L 7.837,8.685 7.8,8.67 A 0.287,0.287 0 0 1 7.741,8.631 L 7.68,8.573 7.664,8.495 a 0.417,0.417 0 0 1 0,-0.05 V 8.377 l -0.06,0.01 A 0.523,0.523 0 0 1 7.547,8.393 H 7.488 L 7.428,8.373 A 0.306,0.306 0 0 1 7.214,8.088 0.314,0.314 0 0 1 7.541,7.788 0.347,0.347 0 0 1 7.718,7.837 l 0.07,0.036 V 7.79 a 0.324,0.324 0 0 1 0.3,-0.3 H 8.11 L 8.12,7.464 A 0.228,0.228 0 0 1 8.271,7.346 L 8.324,7.329 8.3,7.281 A 0.205,0.205 0 0 1 8.283,7.207 0.2,0.2 0 0 1 8.475,7 V 7 A 0.189,0.189 0 0 1 8.562,7.021 L 8.611,7.048 8.628,7 A 0.3,0.3 0 0 1 8.92,6.783 H 8.974 V 6.735 A 0.286,0.286 0 0 1 9.137,6.5 0.282,0.282 0 0 1 9.509,6.64 c 0,0.012 0.01,0.025 0.012,0.038 l 0.01,0.035 H 9.617 V 6.625 a 0.344,0.344 0 0 1 0.677,-0.086 l 0.022,0.086 -0.022,0.087 A 0.291,0.291 0 0 1 10.282,6.751 V 6.788 A 0.221,0.221 0 0 1 10.265,6.88 l -0.026,0.065 h 0.309 L 10.473,6.866 A 0.351,0.351 0 0 1 10.393,6.712 L 10.365,6.627 10.387,6.54 a 0.344,0.344 0 0 1 0.664,-0.011 l 0.007,0.024 0.024,0.007 A 0.323,0.323 0 0 1 11.19,6.618 L 11.29,6.7 11.276,6.58 a 0.2,0.2 0 0 1 0,-0.077 0.215,0.215 0 0 1 0.246,-0.183 h 0.007 a 0.434,0.434 0 0 1 0.252,0.112 0.5,0.5 0 0 1 0.06,0.062 l 0.055,0.069 0.026,-0.084 c 0.036,-0.122 0.1,-0.2 0.176,-0.2 0.1,0 0.193,0.156 0.2,0.355 V 6.76 l 0.08,-0.1 a 0.316,0.316 0 0 1 0.444,-0.045 0.312,0.312 0 0 1 0.076,0.09 l 0.02,0.045 0.039,-0.016 a 0.314,0.314 0 0 1 0.128,-0.025 0.344,0.344 0 0 1 0.342,0.344 0.326,0.326 0 0 1 -0.021,0.116 l -0.015,0.049 0.051,0.014 0.026,0.006 0.066,0.017 -0.01,-0.062 V 7.105 c 0,-0.253 0.107,-0.429 0.2,-0.429 0.093,0 0.155,0.117 0.184,0.279 l 0.014,0.079 0.063,-0.059 a 0.244,0.244 0 0 1 0.343,0 l 0.01,0.01 h 0.017 a 0.3,0.3 0 0 1 0.289,0.264 0.275,0.275 0 0 1 -0.2,0.243 l -0.02,0.008 -0.008,0.022 -0.018,0.03 -0.022,0.043 0.035,0.027 a 0.575,0.575 0 0 0 0.074,0.038 l 0.09,0.036 0.05,0.019 0.015,-0.053 c 0.03,-0.109 0.1,-0.182 0.181,-0.182 0.107,0 0.2,0.135 0.2,0.3 v 0.1 l 0.065,-0.025 a 0.332,0.332 0 0 1 0.113,-0.02 0.329,0.329 0 0 1 0.317,0.337 0.345,0.345 0 0 1 -0.04,0.144 l -0.03,0.056 0.06,0.006 c 0.1,0.022 0.191,0.169 0.211,0.356 v 0.045 h 0.043 a 0.073,0.073 0 0 1 0.036,0 l 0.048,0.02 0.016,-0.05 c 0.038,-0.124 0.088,-0.18 0.119,-0.18 0.05,0 0.11,0.105 0.144,0.282 l -0.006,0.25 v 0.007 c -0.33,0.157 -1.159,0.4 -3.909,0.468 A 15.507,15.507 0 0 1 7.341,9.271 Z M 14.616,7.507 A 0.371,0.371 0 0 0 14.568,7.591 L 14.522,7.574 A 0.446,0.446 0 0 0 14.616,7.508 Z M 10.805,15.84 V 15.825 A 1.473,1.473 0 0 1 10.722,15.548 V 15.517 A 1.584,1.584 0 0 1 10.693,15.29 v -0.06 l -0.034,-3.394 a 1.574,1.574 0 0 1 1.48,-1.619 h 0.066 a 1.55,1.55 0 0 1 0.246,0.019 c 0.032,0.005 0.064,0.007 0.1,0.013 a 1.55,1.55 0 0 1 0.221,0.064 c 0.022,0.008 0.045,0.014 0.068,0.024 a 1.506,1.506 0 0 1 0.219,0.112 c 0.014,0.009 0.03,0.016 0.044,0.026 a 1.691,1.691 0 0 1 0.2,0.159 l 0.031,0.027 a 1.626,1.626 0 0 1 0.172,0.2 l 0.022,0.029 a 1.476,1.476 0 0 1 0.132,0.232 0.141,0.141 0 0 1 0.017,0.032 1.526,1.526 0 0 1 0.085,0.255 0.166,0.166 0 0 0 0.011,0.038 1.722,1.722 0 0 1 0.033,0.268 0.081,0.081 0 0 0 0,0.038 c 0.005,0.013 0,0.018 0,0.026 a 0.5,0.5 0 0 1 0,0.055 l -0.034,3.4 A 1.576,1.576 0 0 1 12.3,16.815 h -0.024 c -0.055,0 -0.089,-0.006 -0.121,-0.007 a 1.563,1.563 0 0 1 -0.237,-0.027 0.223,0.223 0 0 1 -0.056,-0.016 1.359,1.359 0 0 1 -0.238,-0.08 l -0.035,-0.016 a 1.521,1.521 0 0 1 -0.233,-0.13 l -0.018,-0.014 a 1.539,1.539 0 0 1 -0.212,-0.183 v -0.01 A 1.7,1.7 0 0 1 10.945,16.108 V 16.1 a 1.456,1.456 0 0 1 -0.14,-0.259 z m 0.047,3.362 -0.026,0.015 L 10.8,19.2 v -0.031 l 0.027,-0.014 0.037,0.014 z m 0.129,-0.344 -0.057,-0.008 v -0.014 a 0.415,0.415 0 0 0 0.068,0.022 z m 0.2,0.7 -0.079,-0.016 v -0.021 a 0.317,0.317 0 0 0 0.079,0.031 z m 0.04,-0.378 -0.05,-0.029 V 19.1 l 0.045,-0.03 0.05,0.031 0.005,0.06 z m 0.18,-0.272 0.02,-0.017 v 0.013 z m 0.087,0.4 -0.04,-0.011 -0.01,-0.041 0.03,-0.029 0.041,0.012 0.01,0.04 z m 0.091,0.309 0.005,-0.013 v 0.013 z m 0.01,-0.546 -0.03,-0.011 -0.005,-0.03 0.025,-0.02 0.03,0.01 v 0.031 z m 0.281,0.355 h -0.036 l -0.02,-0.03 0.015,-0.032 h 0.036 l 0.02,0.029 z m 0.14,-0.209 -0.034,-0.02 v -0.04 l 0.034,-0.02 0.034,0.02 v 0.04 z m 0.006,-0.262 a 0.091,0.091 0 0 0 0.029,-0.069 0.086,0.086 0 0 0 0,-0.027 h 0.01 a 0.119,0.119 0 0 0 0.023,0.043 0.568,0.568 0 0 0 -0.061,0.064 z m 0.175,0.726 v -0.008 l -0.01,0.011 a 0.132,0.132 0 0 0 0.037,-0.088 0.091,0.091 0 0 0 0,-0.033 l 0.005,0.009 h 0.007 a 0.155,0.155 0 0 0 0.026,0.055 0.323,0.323 0 0 0 -0.064,0.065 z m 0.166,-0.52 -0.012,0.016 -0.024,-0.006 v -0.023 l 0.02,-0.016 0.021,0.007 z m 0.167,-0.113 v 0.015 L 12.51,19.071 12.496,19.063 V 19.048 L 12.509,19.04 Z M 12.51,18.919 a 0.155,0.155 0 0 0 0.03,-0.033 0.067,0.067 0 0 0 0.013,0.03 L 12.547,18.91 Z m 0.043,0.228 -0.029,0.009 -0.02,-0.02 0.006,-0.03 0.027,-0.009 0.022,0.021 z m 0.175,0.474 -0.017,0.008 -0.025,0.013 v -0.01 a 0.154,0.154 0 0 0 0.03,-0.045 0.194,0.194 0 0 0 0.015,0.036 z M 12.8,19.362 12.774,19.345 v -0.03 h 0.027 l 0.025,0.017 v 0.02 z M 13.027,19 a 0.239,0.239 0 0 0 -0.076,-0.062 h 0.03 a 0.565,0.565 0 0 0 0.07,0.011 h 0.031 c 0,0.015 -0.007,0.031 -0.01,0.047 h -0.044 z m 0.052,0.311 h -0.03 l -0.01,-0.026 0.016,-0.022 h 0.028 l 0.02,0.028 z m 0.182,0.424 h -0.047 a 0.268,0.268 0 0 0 -0.075,-0.075 0.257,0.257 0 0 0 0.04,0.006 0.284,0.284 0 0 0 0.064,0.01 h 0.028 a 0.417,0.417 0 0 0 -0.01,0.063 z m -0.044,-0.479 -0.008,0.02 h -0.022 l -0.013,-0.018 0.01,-0.02 h 0.02 z m -0.011,-0.1 v -0.015 l 0.02,-0.009 0.016,0.007 v 0.015 l -0.017,0.01 z m 0.125,0.374 v -0.013 h 0.007 v 0.013 z m 0.207,-0.569 a 0.113,0.113 0 0 0 0,0.026 h -0.044 v -0.018 l 0.046,-0.016 z m 0.046,0.3 h -0.027 l -0.013,-0.023 0.013,-0.022 h 0.026 l 0.013,0.023 z m 0.087,-0.1 H 13.649 V 19.15 l 0.012,-0.007 0.01,0.007 z m 0.008,0.57 h -0.007 v -0.023 a 0.262,0.262 0 0 0 0.046,-0.019 h 0.006 v 0.036 z m 0.206,-0.742 0.03,-0.04 h 0.048 l 0.02,0.044 -0.028,0.04 h -0.05 z m 0.287,0.385 -0.016,0.035 a 0.3,0.3 0 0 0 -0.124,-0.037 0.285,0.285 0 0 0 -0.077,0.009 v -0.019 a 0.444,0.444 0 0 0 0.214,-0.016 l 0.006,0.012 z m 0.226,0.164 -0.016,0.01 -0.016,-0.01 V 19.52 l 0.016,-0.01 0.016,0.01 z m 0.04,-0.252 h -0.02 v -0.01 l 0.01,-0.006 0.01,0.006 z m 0,-0.2 H 14.413 L 14.4,19.063 14.414,19.041 h 0.026 l 0.012,0.023 z m 0.1,0.071 -0.016,0.018 -0.025,-0.01 v -0.026 l 0.019,-0.018 0.027,0.009 z m 0.222,0.311 v 0.005 h -0.008 a 0.128,0.128 0 0 1 -0.007,-0.034 0.182,0.182 0 0 0 0.046,0.006 0.233,0.233 0 0 0 0.02,0.034 0.4,0.4 0 0 0 -0.051,-0.006 z m 0.387,0.011 h -0.022 l -0.01,-0.02 0.012,-0.02 h 0.023 l 0.01,0.02 z m 0.252,0 -0.05,0.007 -0.029,-0.04 0.019,-0.047 0.05,-0.01 0.03,0.04 z m 2.183,-0.74 -0.007,0.017 c -0.184,0.355 -0.725,0.628 -1.611,0.812 v -0.011 l -0.037,0.009 -0.03,-0.026 A 0.135,0.135 0 0 0 15.87,19.52 l -0.045,-0.025 h 0.028 l 0.046,-0.01 -0.015,-0.006 -0.024,-0.018 a 0.3,0.3 0 0 0 0.05,-0.157 0.279,0.279 0 0 0 -0.276,-0.28 v 0 a 0.272,0.272 0 0 0 -0.182,0.069 0.28,0.28 0 0 0 -0.154,-0.133 h -0.014 a 0.279,0.279 0 0 0 -0.169,0.014 H 15.08 a 0.166,0.166 0 0 0 -0.043,0.032 L 15,19.031 A 0.315,0.315 0 0 0 14.908,19.067 0.193,0.193 0 0 0 14.832,19.03 0.281,0.281 0 0 0 14.309,18.959 0.225,0.225 0 0 0 14.234,19.002 0.358,0.358 0 0 0 14.127,18.953 0.319,0.319 0 0 0 13.973,18.73 0.331,0.331 0 0 0 13.849,18.708 H 13.83 a 0.252,0.252 0 0 0 -0.148,0.1 0.261,0.261 0 0 0 -0.165,-0.089 H 13.5 a 0.263,0.263 0 0 0 -0.149,0.04 c -0.01,0.006 -0.022,0 -0.03,0.01 a 0.3,0.3 0 0 0 -0.044,0.051 0.388,0.388 0 0 0 -0.026,0.031 0.312,0.312 0 0 0 -0.084,-0.03 0.2,0.2 0 0 0 -0.266,-0.092 0.208,0.208 0 0 0 -0.079,0.068 0.228,0.228 0 0 0 -0.227,-0.149 0.215,0.215 0 0 0 -0.229,0.189 l -0.006,0.01 a 0.193,0.193 0 0 0 0,0.034 V 18.9 H 12.352 A 0.2,0.2 0 0 0 12.116,18.761 H 12.1 a 0.193,0.193 0 0 0 -0.073,0.043 0.2,0.2 0 0 0 -0.053,0.086 c 0,0.006 -0.005,0.01 -0.006,0.015 l -0.006,0.012 a 0.2,0.2 0 0 0 0.036,0.109 l -0.01,0.026 a 0.327,0.327 0 0 0 -0.122,-0.123 0.307,0.307 0 0 0 -0.266,-0.16 0.3,0.3 0 0 0 -0.187,0.067 0.235,0.235 0 0 0 -0.133,-0.044 0.226,0.226 0 0 0 -0.156,0.062 0.221,0.221 0 0 0 -0.169,-0.085 0.236,0.236 0 0 0 -0.226,0.234 0.324,0.324 0 0 0 -0.1,-0.016 0.269,0.269 0 0 0 -0.276,0.247 l -0.007,0.011 a 0.241,0.241 0 0 0 0.064,0.164 c 0.064,0.018 0.13,0.034 0.2,0.051 l 0.07,0.081 0.016,0.02 -0.259,-0.07 C 9.43,19.218 8.844,18.84 8.844,18.453 V 18.43 a 0.809,0.809 0 0 1 0.042,-0.284 c 0.105,-0.278 0.492,-0.6 1.626,-0.906 l 0.407,-0.081 a 12.156,12.156 0 0 1 5.844,0.5 c 0.562,0.231 0.881,0.5 0.895,0.746 a 0.627,0.627 0 0 1 -0.076,0.339 z m -6.358,-3.963 -0.009,0.007 h 0.01 l 2,-0.062 a 0.393,0.393 0 0 0 0.379,-0.39 l 0.02,-1.4 A 0.407,0.407 0 0 0 13.506,12.642 0.386,0.386 0 0 0 13.22,12.53 l -2.011,0.062 a 0.392,0.392 0 0 0 -0.381,0.4 v 1.4 a 0.4,0.4 0 0 0 0.119,0.284 0.379,0.379 0 0 0 0.277,0.1 z m -0.308,-0.391 v -1.4 a 0.3,0.3 0 0 1 0.289,-0.3 l 2.018,-0.061 h 0.009 a 0.289,0.289 0 0 1 0.208,0.085 0.3,0.3 0 0 1 0.089,0.218 l -0.02,1.408 a 0.3,0.3 0 0 1 -0.288,0.3 l -2,0.063 a 0.29,0.29 0 0 1 -0.216,-0.085 0.3,0.3 0 0 1 -0.09,-0.214 z m 1.366,0.159 v -0.005 a 0.2,0.2 0 0 0 0.2,-0.17 0.029,0.029 0 0 0 0.011,-0.02 c 0,-0.01 -0.006,-0.01 -0.007,-0.019 a 0.2,0.2 0 0 0 -0.183,-0.18 0.192,0.192 0 0 0 -0.148,0.07 0.2,0.2 0 0 0 -0.057,0.122 v 0.007 a 0.188,0.188 0 0 0 0.187,0.2 z m -1.257,1.301 h -0.009 a 1.417,1.417 0 0 0 0.09,0.15 1.089,1.089 0 0 0 0.335,0.388 l 0.013,0.013 a 1.318,1.318 0 0 0 0.183,0.112 c 0.021,0.012 0.041,0.026 0.063,0.037 a 1.407,1.407 0 0 0 0.157,0.059 c 0.04,0.013 0.078,0.03 0.12,0.04 l 0.02,0.008 a 1.408,1.408 0 0 0 0.25,0.036 c 0.882,0 1.493,-1.274 1.319,-1.881 l -0.448,0.025 -2.1,0.07 -0.1,0.007 a 1.417,1.417 0 0 0 -0.027,0.216 0.109,0.109 0 0 1 0,0.036 1.483,1.483 0 0 0 0.026,0.358 1.424,1.424 0 0 0 0.047,0.144 1.466,1.466 0 0 0 0.061,0.182 z m 0.089,-0.81 v 0 -0.058 l 1.945,-0.044 c -0.073,0.634 -0.46,1.074 -0.948,1.074 a 0.929,0.929 0 0 1 -0.282,-0.035 0.892,0.892 0 0 1 -0.159,-0.051 0.817,0.817 0 0 1 -0.283,-0.185 0.965,0.965 0 0 1 -0.139,-0.179 0.752,0.752 0 0 1 -0.056,-0.1 0.847,0.847 0 0 1 -0.068,-0.237 c 0,-0.021 -0.014,-0.04 -0.016,-0.06 a 0.759,0.759 0 0 1 0.006,-0.125 z m 0.101,-0.521 v 0 a 0.19339661,0.19339661 0 0 0 0.272,-0.275 0.2,0.2 0 0 0 -0.137,-0.056 0.236,0.236 0 0 0 -0.193,0.189 0.178,0.178 0 0 0 0.046,0.116 c 0.012,0.012 0.004,0.018 0.012,0.026 z m 4.913,4.569 a 0.207,0.207 0 0 0 -0.04,-0.094 0.015,0.015 0 0 0 -0.008,-0.016 0.674,0.674 0 0 0 -0.445,-0.257 0.517,0.517 0 0 0 -0.161,0.026 0.45,0.45 0 0 0 -0.268,-0.081 0.466,0.466 0 0 0 -0.241,0.064 l -0.047,0.01 h -0.009 a 0.312,0.312 0 0 0 -0.176,-0.13 0.475,0.475 0 0 0 -0.465,0.083 l -0.025,0.01 a 0.381,0.381 0 0 0 -0.045,-0.013 0.348,0.348 0 0 0 -0.32,-0.175 0.406,0.406 0 0 0 -0.19,0.045 0.469,0.469 0 0 0 -0.206,-0.045 0.434,0.434 0 0 0 -0.263,0.079 v 0 a 0.339,0.339 0 0 0 -0.23,-0.079 0.377,0.377 0 0 0 -0.148,0.03 0.412,0.412 0 0 0 -0.245,-0.07 0.4,0.4 0 0 0 -0.26,0.081 0.372,0.372 0 0 0 -0.17,-0.039 0.282,0.282 0 0 0 -0.262,0.131 0.474,0.474 0 0 0 -0.3,-0.1 0.506,0.506 0 0 0 -0.189,0.034 0.458,0.458 0 0 0 -0.279,0.006 0.413,0.413 0 0 0 -0.177,-0.04 0.315,0.315 0 0 0 -0.287,0.145 c -0.01,0 -0.068,0.051 -0.079,0.051 a 0.311,0.311 0 0 0 -0.316,0.173 0.551,0.551 0 0 0 -0.1,0.324 l 0.153,0.048 a 0.309,0.309 0 0 1 0,-0.043 0.351,0.351 0 0 1 0.359,-0.338 h 0.032 a 0.3,0.3 0 0 1 0.288,-0.219 0.284,0.284 0 0 1 0.177,0.061 0.306,0.306 0 0 1 0.278,-0.009 0.378,0.378 0 0 1 0.489,0.094 l 0.007,-0.009 a 0.257,0.257 0 0 1 0.084,-0.1 0.226,0.226 0 0 1 0.1,-0.056 0.218,0.218 0 0 1 0.084,-0.01 c 0.022,0 0.041,-0.013 0.063,-0.007 a 0.275,0.275 0 0 1 0.093,0.048 h 0.007 c 0.024,-0.026 0.061,-0.03 0.091,-0.046 a 0.339,0.339 0 0 1 0.155,-0.062 0.382,0.382 0 0 1 0.094,0.03 0.308,0.308 0 0 1 0.135,0.044 l 0.023,0.022 a 0.288,0.288 0 0 1 0.159,-0.042 0.277,0.277 0 0 1 0.229,0.119 h 0.005 a 0.346,0.346 0 0 1 0.263,-0.121 0.334,0.334 0 0 1 0.206,0.069 0.3,0.3 0 0 1 0.189,-0.07 0.347,0.347 0 0 1 0.32,0.265 l 0.044,0.018 0.025,-0.014 a 0.364,0.364 0 0 1 0.175,-0.137 l 0.018,-0.008 a 0.377,0.377 0 0 1 0.111,-0.015 h 0.03 a 0.367,0.367 0 0 1 0.1,0.017 l 0.04,0.017 0.028,0.01 c 0.01,0 0.01,0.016 0.02,0.022 a 0.343,0.343 0 0 1 0.122,0.155 l 0.018,0.008 a 0.285,0.285 0 0 1 0.05,-0.014 0.349,0.349 0 0 1 0.494,0 v 0 l 0.015,0.017 a 0.352,0.352 0 0 1 0.162,-0.039 l 0.032,0.007 A 0.5,0.5 0 0 1 15.81,18.959 0.466,0.466 0 0 1 15.9,19 l 0.04,0.028 a 0.62,0.62 0 0 1 0.055,0.06 0.459,0.459 0 0 1 0.033,0.052 0.341,0.341 0 0 1 0.024,0.063 0.33,0.33 0 0 1 0.015,0.076 l 0.006,0.027 a 0.5,0.5 0 0 1 -0.008,0.066 v 0.012 l 0.119,-0.027 H 16.16 C 16.164,19.344 16.128,19.1 16.128,19.083 Z M 10.504,7.93 10.425,7.99 10.429,8.088 10.514,8.132 10.594,8.079 10.59,7.985 Z m 2.104,9.192 a 8.925,8.925 0 0 0 -1.336,0.108 5.675,5.675 0 0 0 -0.894,0.166 3.432,3.432 0 0 0 -1.3,0.667 6.994,6.994 0 0 1 1.835,-0.64 c 4.57,-0.559 6.472,0.758 6.607,0.956 V 18.347 C 17.6,18.33 16.421,17.039 12.608,17.122 Z M 9.804,9.362 9.753,9.428 9.785,9.504 9.867,9.514 9.918,9.45 9.886,9.373 Z m 2.549,2.307 v 0 h 0.007 a 0.193,0.193 0 0 0 0.059,-0.034 v 0.034 h 0.043 c -0.01,-0.171 -0.013,-0.308 -0.149,-0.3 a 0.129,0.129 0 0 0 -0.068,0.026 0.159,0.159 0 0 0 -0.044,0.08 c -0.022,0.099 0.059,0.216 0.152,0.194 z m -0.1,-0.22 h 0.006 a 0.065,0.065 0 0 1 0.053,-0.041 c 0.083,-0.008 0.113,0.1 0.077,0.159 a 0.084,0.084 0 0 1 -0.052,0.04 0.071,0.071 0 0 1 -0.084,-0.044 0.127,0.127 0 0 1 10e-4,-0.114 z m 0.989,3.051 v 0 a 0.206,0.206 0 0 0 0.06,-0.045 0.178,0.178 0 0 0 0.045,-0.057 c 0,-0.007 0.011,-0.01 0.013,-0.015 a 0.212,0.212 0 0 0 0,-0.117 0.191,0.191 0 0 0 -0.12,-0.12 0.194,0.194 0 0 0 -0.132,0.014 0.2,0.2 0 0 0 -0.057,0.047 0.169,0.169 0 0 0 -0.045,0.058 c 0,0.006 -0.01,0.009 -0.014,0.016 a 0.188,0.188 0 0 0 0,0.115 0.183,0.183 0 0 0 0.115,0.117 0.2,0.2 0 0 0 0.135,-0.013 z m -0.466,-2.863 v 0 a 0.256,0.256 0 0 0 0.063,-0.034 v 0.035 h 0.043 c -0.008,-0.171 -0.012,-0.3 -0.145,-0.3 -0.063,0 -0.093,0.037 -0.11,0.1 -0.027,0.11 0.057,0.228 0.149,0.199 z m -0.1,-0.21 v -0.011 a 0.064,0.064 0 0 1 0.051,-0.036 0.107,0.107 0 0 1 0.108,0.107 0.109,0.109 0 0 1 -0.019,0.06 0.085,0.085 0 0 1 -0.056,0.04 0.071,0.071 0 0 1 -0.084,-0.047 0.139,0.139 0 0 1 0.005,-0.113 z M 12.5,11.658 h 0.043 a 1.011,1.011 0 0 1 0,-0.174 c 0.007,-0.047 0.024,-0.082 0.071,-0.084 0,0 0,-0.042 -0.009,-0.046 a 0.058,0.058 0 0 0 -0.043,0.008 0.12,0.12 0 0 0 -0.07,0.109 1.324,1.324 0 0 0 0.007,0.2 z m -0.451,0.022 v 0 a 0.084,0.084 0 0 0 0.066,-0.032 c 0,-0.006 0.015,0 0.02,-0.01 l 0.006,0.117 h 0.044 c -0.01,-0.2 0,-0.391 -0.154,-0.385 a 0.1,0.1 0 0 0 -0.069,0.033 0.2,0.2 0 0 0 0,0.242 0.154,0.154 0 0 0 0.087,0.035 z m -0.077,-0.216 v 0 a 0.062,0.062 0 0 1 0.052,-0.04 c 0.09,-0.007 0.12,0.1 0.086,0.16 a 0.085,0.085 0 0 1 -0.055,0.039 0.07,0.07 0 0 1 -0.084,-0.044 0.129,0.129 0 0 1 10e-4,-0.115 z m -0.317,0.104 v 0 a 0.04,0.04 0 0 0 0.048,0.026 c 0.047,-0.01 0.043,-0.072 0.015,-0.1 a 0.041,0.041 0 0 0 -0.056,0.01 0.062,0.062 0 0 0 -0.007,0.064 z m -0.009,0.013 a 0.142,0.142 0 0 1 0,-0.058 c 0.012,-0.02 0.023,-0.04 0.033,-0.061 l 0.008,-0.033 a 0.134,0.134 0 0 1 0.014,-0.038 0.033,0.033 0 0 1 0.017,-0.026 c 0.044,-0.018 0.055,0.035 0.067,0.067 l 0.1,0.259 h 0.043 l -0.044,-0.119 a 10.1,10.1 0 0 0 -0.1,-0.229 0.08,0.08 0 0 0 -0.079,-0.03 0.11,0.11 0 0 0 -0.051,0.039 0.311,0.311 0 0 0 -0.023,0.079 l -0.043,0.171 v 0.02 L 11.563,11.71 H 11.61 Z M 9.648,7.053 9.664,7.021 9.645,6.991 H 9.608 l -0.016,0.034 0.02,0.03 z m 3.228,1.986 0.013,-0.022 -0.013,-0.022 h -0.025 l -0.013,0.022 0.013,0.022 z m 0.968,-1.687 v -0.04 l -0.03,-0.017 -0.032,0.018 v 0.036 l 0.03,0.018 z m 0.36,1.749 0.04,-0.085 -0.053,-0.078 -0.094,0.008 -0.039,0.085 0.052,0.077 z M 13.087,7.982 V 7.947 L 13.056,7.929 13.025,7.947 v 0.036 l 0.03,0.018 z M 14.114,7.603 14.116,7.598 14.114,7.595 h -0.006 l -0.002,0.003 0.002,0.005 z m -0.465,1.699 0.064,-0.059 -0.02,-0.086 -0.085,-0.025 -0.064,0.06 0.02,0.087 z m 0.162,-0.676 0.015,-0.091 -0.072,-0.056 -0.085,0.035 -0.012,0.09 0.072,0.055 z M 13.872,7.998 V 7.876 l -0.105,-0.06 -0.106,0.06 v 0.122 l 0.106,0.059 z m 1.016,0.979 -0.02,0.043 0.027,0.039 0.046,-0.004 0.02,-0.042 -0.027,-0.04 z m -0.394,-0.86 0.024,-0.05 -0.03,-0.045 -0.054,0.003 -0.025,0.05 0.03,0.045 z M 11.249,3.155 c 2.541,0 4.6,-0.259 4.6,-0.578 C 15.849,2.258 13.79,2 11.249,2 c -2.541,0 -4.6,0.259 -4.6,0.577 0,0.318 2.059,0.578 4.6,0.578 z M 15.334,8.9 15.339,8.89 15.334,8.882 h -0.01 l -0.004,0.009 0.004,0.01 z M 14.6,8.8 V 8.76 L 14.565,8.74 14.529,8.765 v 0.04 l 0.036,0.02 z M 14.77,8.383 14.778,8.37 14.77,8.357 H 14.755 L 14.747,8.37 14.755,8.383 Z M 15.087,8.654 15.17,8.494 15.074,8.342 14.884,8.35 14.8,8.509 14.897,8.661 Z M 12.07,7.374 12.13,7.286 12.085,7.19 11.978,7.181 11.919,7.269 11.964,7.365 Z m -1.599,2.063 v 0.01 l 0.008,0.005 0.008,-0.005 V 9.437 L 10.477,9.432 Z M 10.762,7.781 10.73,7.82 10.745,7.868 10.793,7.878 10.825,7.843 10.81,7.799 Z m 0.573,0.049 -0.02,0.03 0.015,0.037 0.035,0.002 0.02,-0.03 -0.016,-0.031 z m -0.303,0.976 0.07,0.149 0.164,0.02 L 11.363,8.842 11.296,8.687 11.129,8.67 Z m 0.206,-1.294 0.054,-0.15 -0.106,-0.124 -0.159,0.03 -0.055,0.154 0.107,0.124 z m 0.198,0.914 -0.015,0.014 0.005,0.02 0.02,0.006 0.015,-0.015 -0.005,-0.019 z m -0.088,-1.531 0.169,0.03 -0.123,-0.11 -0.081,-0.099 v 0.149 l 0.011,0.033 z m -0.325,2.575 -0.049,-0.024 -0.046,0.03 0.002,0.055 0.05,0.025 0.046,-0.031 z m 0.754,-0.277 0.005,-0.025 -0.02,-0.017 -0.023,0.01 -0.005,0.023 0.02,0.017 z m 0.255,-1.205 v 0.02 l 0.022,0.009 0.022,-0.013 V 7.984 L 12.054,7.971 Z m 0.453,0.596 -0.04,0.105 0.074,0.086 0.11,-0.02 L 12.667,8.65 12.595,8.565 Z M 10.823,7.221 10.818,7.265 10.854,7.292 10.894,7.274 10.9,7.23 10.864,7.204 Z M 12.738,7.131 12.759,7.114 12.754,7.088 12.729,7.08 12.711,7.097 12.716,7.123 Z M 12.536,7.5 12.595,7.361 12.506,7.233 12.347,7.25 12.283,7.391 12.375,7.513 Z"/></svg>
