<?xml version="1.0" encoding="UTF-8"?>
<svg width="24px" fill="#44739e" height="24px" viewBox="0 0 24 24" version="1.1" xmlns="http://www.w3.org/2000/svg" xmlns:xlink="http://www.w3.org/1999/xlink">
            <path d="m 9.1497257,13.153733 a 0.106,0.106 0 0 0 -0.081,-0.03 0.136,0.136 0 0 0 -0.127,0.109 h 0.244 a 0.142,0.142 0 0 0 -0.036,-0.079 z m 0.797,3.578 a 4.362,4.362 0 0 0 4.1320003,-4.551 4.361,4.361 0 0 0 -4.1320003,-4.55 4.361,4.361 0 0 0 -4.132,4.55 4.362,4.362 0 0 0 4.132,4.551 z m 0.1610003,-1.568 H 9.5777257 a 0.513,0.513 0 0 1 0,-1.026 h 0.5300003 a 0.513,0.513 0 0 1 0,1.026 z m -1.6240003,-1.9 c 0,-0.049 -0.006,-0.1 -0.008,-0.159 -0.014,0.041 -0.029,0.083 -0.045,0.127 l -0.163,0.447 h -0.142 l -0.149,-0.44 c -0.014,-0.042 -0.027,-0.08 -0.038,-0.116 0,0.05 -0.005,0.1 -0.008,0.152 l -0.026,0.409 h -0.179 l 0.066,-0.946 h 0.204 l 0.158,0.446 c 0.021,0.065 0.039,0.12 0.054,0.171 0.016,-0.05 0.034,-0.106 0.057,-0.171 l 0.165,-0.446 h 0.205 l 0.059,0.946 h -0.186 l -0.024,-0.418 h 0.038 z m -0.719,-1.962 v -0.77 a 0.148,0.148 0 0 1 0.063,-0.12 l 0.548,-0.385 a 0.147,0.147 0 0 1 0.231,0.12 v 0.818 a 0.148,0.148 0 0 1 -0.07,0.125 l -0.548,0.337 a 0.147,0.147 0 0 1 -0.224,-0.125 z m 0.539,1 v -0.07 h 3.2860003 v 0.076 z m 2.0370003,0.611 a 0.11,0.11 0 0 1 -0.081,0.032 0.106,0.106 0 0 1 -0.107,-0.107 0.108,0.108 0 0 1 0.109,-0.109 0.11,0.11 0 0 1 0.079,0.184 z m 0.016,0.062 v 0.7 h -0.19 v -0.7 z m -0.3,0.66 v 0.041 H 9.8837257 v -0.049 a 0.283,0.283 0 0 1 -0.182,0.063 0.321,0.321 0 0 1 -0.3,-0.355 0.4,0.4 0 0 1 0.105,-0.285 0.3,0.3 0 0 1 0.213,-0.089 0.275,0.275 0 0 1 0.153,0.043 v -0.32 h 0.1900003 v 0.793 c -0.008,0.044 -0.008,0.115 -0.003,0.164 z m -0.9820003,-0.674 a 0.3,0.3 0 0 1 0.3,0.332 c 0,0.022 0,0.039 0,0.052 v 0.034 l -0.034,0.005 h -0.4 a 0.158,0.158 0 0 0 0.173,0.141 0.377,0.377 0 0 0 0.152,-0.023 l 0.041,-0.018 0.038,0.156 -0.029,0.013 a 0.549,0.549 0 0 1 -0.224,0.042 0.328,0.328 0 0 1 -0.345,-0.353 0.339,0.339 0 0 1 0.331,-0.375 z m 1.8210003,0.715 v -0.048 a 0.273,0.273 0 0 1 -0.177,0.062 c -0.059,0 -0.253,-0.022 -0.253,-0.311 v -0.4 h 0.189 v 0.384 c 0,0.161 0.071,0.161 0.1,0.161 a 0.126,0.126 0 0 0 0.114,-0.08 0.118,0.118 0 0 0 0.008,-0.043 v -0.422 h 0.189 v 0.493 c 0,0.07 0,0.123 0.005,0.167 v 0.041 z m 1.25,0 h -0.187 v -0.392 c 0,-0.154 -0.074,-0.154 -0.1,-0.154 a 0.109,0.109 0 0 0 -0.1,0.078 0.156,0.156 0 0 0 -0.007,0.044 v 0.424 h -0.187 v -0.412 c 0,-0.041 -0.009,-0.134 -0.092,-0.134 a 0.118,0.118 0 0 0 -0.105,0.087 0.123,0.123 0 0 0 -0.007,0.044 v 0.415 h -0.187 v -0.494 c 0,-0.068 0,-0.118 0,-0.166 v -0.041 h 0.176 v 0.044 a 0.255,0.255 0 0 1 0.167,-0.058 0.221,0.221 0 0 1 0.183,0.093 0.212,0.212 0 0 1 0.044,-0.041 0.247,0.247 0 0 1 0.161,-0.052 c 0.112,0 0.243,0.081 0.243,0.309 z m -0.39,-2.574 0.059,-0.049 a 0.3,0.3 0 0 0 0.1,-0.055 l 0.193,0.668 a 0.075,0.075 0 0 1 -0.007,0.06 0.1,0.1 0 0 1 -0.057,0.042 0.093,0.093 0 0 1 -0.112,-0.06 z m 0.3,-0.875 a 0.08,0.08 0 0 1 0.038,0.041 l 0.155,0.445 a 0.065,0.065 0 0 1 0,0.051 0.078,0.078 0 0 1 -0.052,0.039 0.079,0.079 0 0 1 -0.093,-0.047 l -0.147,-0.417 -0.143,-0.071 0.079,0.5 a 0.155,0.155 0 0 1 -0.125,0.169 h -0.009 l -0.309,0.255 -0.041,0.5 a 0.092,0.092 0 0 1 -0.094,0.08 h -0.008 a 0.092,0.092 0 0 1 -0.066,-0.033 0.076,0.076 0 0 1 -0.02,-0.059 l 0.044,-0.53 a 0.084,0.084 0 0 1 0.031,-0.057 l 0.256,-0.211 0.022,-0.015 -0.01,-0.025 c 0,-0.019 -0.043,-0.25 -0.067,-0.391 l -0.013,-0.083 -0.156,0.19 a 0.073,0.073 0 0 1 -0.057,0.027 h -0.262 a 0.065,0.065 0 1 1 0,-0.13 h 0.217 l 0.244,-0.3 v -0.007 a 0.168,0.168 0 0 1 0.131,-0.089 0.183,0.183 0 0 1 0.131,0.034 z m -0.743,-0.422 a 0.168,0.168 0 1 1 0.167,0.154 0.161,0.161 0 0 1 -0.171,-0.15 z m -4.9210003,3.476 a 0.336,0.336 0 0 1 0.112,-0.249 c -0.014,-0.061 -0.029,-0.12 -0.04,-0.182 a 4.453,4.453 0 0 1 0.717,-3.215 0.324,0.324 0 0 1 -0.015,-0.094 0.339,0.339 0 0 1 0.338,-0.339 0.3,0.3 0 0 1 0.031,0 3.548,3.548 0 0 1 3.6330003,-0.884 0.337,0.337 0 1 1 -0.133,0.278 3.245,3.245 0 0 0 -3.2380003,0.774 0.336,0.336 0 0 1 -0.293,0.506 0.317,0.317 0 0 1 -0.111,-0.021 4.218,4.218 0 0 0 -0.63,2.935 c 0.009,0.053 0.022,0.1 0.033,0.155 a 0.339,0.339 0 0 1 0.273,0.332 0.334,0.334 0 0 1 -0.1,0.243 3.688,3.688 0 0 0 2.372,2.3 0.339,0.339 0 1 1 -0.089,0.291 3.985,3.985 0 0 1 -2.574,-2.5 0.339,0.339 0 0 1 -0.286,-0.33 z m 3.188,2.96 a 0.187,0.187 0 1 0 -0.186,-0.187 0.187,0.187 0 0 0 0.186,0.187 z m 0.154,-3.109 c -0.11,0 -0.149,0.11 -0.149,0.2 0,0.09 0.038,0.193 0.147,0.193 a 0.132,0.132 0 0 0 0.129,-0.107 0.154,0.154 0 0 0 0,-0.04 v -0.108 a 0.137,0.137 0 0 0 -0.131,-0.142 z m -0.108,5.816 c 3.3240003,0 6.0280003,-3.047 6.0280003,-6.792 0,-3.745 -2.703,-6.791 -6.0280003,-6.791 -3.325,0 -6.027,3.046 -6.027,6.791 0,3.745 2.704,6.792 6.027,6.792 z m 0.32,-11.773 a 4.816,4.816 0 0 1 4.5880003,5.006 4.816,4.816 0 0 1 -4.5880003,5.006 4.816,4.816 0 0 1 -4.587,-5.006 4.816,4.816 0 0 1 4.588,-5.006 z m 6.1650003,4.981 c 0,4 -2.909,7.248 -6.4840003,7.248 -0.1,0 -0.206,0 -0.309,-0.008 a 6.984,6.984 0 0 0 1.1360003,0.094 7.2,7.2 0 0 0 7.079,-7.309 7.2,7.2 0 0 0 -7.079,-7.309 6.993,6.993 0 0 0 -0.7270003,0.038 c 3.5290003,0.06 6.3840003,3.292 6.3840003,7.246 z m 5.122,-9.998 -17.0150002,-0.156 -1.07,0.131 17.7130002,0.122 z m -0.153,19.844 0.345,-0.163 v -7.142 -4.579 -7.723 l -0.345,0.09 v 7.821 4.51 z M 2.6257257,9.992733 v 11.382 l 18.1580003,0.575 v -19.448 l -18.1580003,-0.129 z m 7.8270003,-5.577 a 7.662,7.662 0 0 1 7.535,7.765 7.661,7.661 0 0 1 -7.535,7.765 7.661,7.661 0 0 1 -7.5340003,-7.765 7.661,7.661 0 0 1 7.5350003,-7.765 z m -0.4880002,10.587 0.086,-0.125 -0.3740002,-0.259 0.3650002,-0.183 -0.068,-0.136 -0.595,0.298 z"/>

</svg>