<?xml version="1.0" encoding="UTF-8"?>
<svg width="24px" fill="#44739e" height="24px" viewBox="0 0 24 24" version="1.1" xmlns="http://www.w3.org/2000/svg" xmlns:xlink="http://www.w3.org/1999/xlink">
            <path d="m 2.589,10.083 a 0.154,0.154 0 0 0 -0.154,0.154 v 1.787 a 0.154,0.154 0 0 0 0.308,0 V 10.237 A 0.154,0.154 0 0 0 2.589,10.083 Z m 9.25,4.473 h -0.01 l -0.959,0.005 a 1.547,1.547 0 0 0 -1.113,0.43 1.242,1.242 0 0 0 -0.351,0.9 1.361,1.361 0 0 0 0.422,0.963 1.513,1.513 0 0 0 1.1,0.406 l 0.959,-0.023 a 1.27,1.27 0 0 0 1.328,-1.343 1.3,1.3 0 0 0 -1.376,-1.338 z m -1.4,2.141 a 0.817,0.817 0 0 1 0,-1.617 0.817,0.817 0 0 1 0,1.617 z M 22,15.443 a 1.35,1.35 0 0 0 -1.411,-1.362 l -9.545,0.163 v -0.032 l -0.263,-0.076 -0.258,-0.074 -0.009,-5.77 c 0,-2.184 -1.478,-3.96 -3.288,-3.96 H 6.738 c -1.76,0 -3.191,1.727 -3.191,3.851 v 7.781 c 0,2.1 1.416,3.841 3.156,3.879 l 0.825,0.018 a 2.654,2.654 0 0 0 1.911,-0.794 3.6,3.6 0 0 0 0.874,-1.418 l 0.262,-0.05 v -0.008 h 0.026 l 9.846,-0.385 A 1.561,1.561 0 0 0 22,15.443 Z m -14.833,2.78 a 1.969,1.969 0 0 0 0.595,-0.092 l 0.84,-0.159 a 2.3,2.3 0 0 1 -1.435,0.509 2.675,2.675 0 0 1 -2.5,-2.812 2.675,2.675 0 0 1 2.505,-2.812 2.345,2.345 0 0 1 1.667,0.715 l -0.679,-0.2 a 2.023,2.023 0 0 0 -0.988,-0.26 2.418,2.418 0 0 0 -2.252,2.557 2.418,2.418 0 0 0 2.247,2.554 z m -0.091,-6 c -1.626,0 -2.949,-1.663 -2.949,-3.706 0,-2.043 1.323,-3.7 2.949,-3.7 1.626,0 2.949,1.662 2.949,3.7 0,2.038 -1.325,3.709 -2.949,3.709 z m 4.812,5.168 -0.959,0.023 h -0.046 a 1.668,1.668 0 0 1 -1.167,-0.452 1.517,1.517 0 0 1 -0.471,-1.076 1.4,1.4 0 0 1 0.4,-1.012 1.7,1.7 0 0 1 1.227,-0.478 l 0.96,-0.005 h 0.009 a 1.464,1.464 0 0 1 1.535,1.492 1.423,1.423 0 0 1 -1.488,1.511 z M 7.076,5.073 c -1.484,0 -2.691,1.546 -2.691,3.447 0,1.901 1.207,3.448 2.691,3.448 1.484,0 2.692,-1.547 2.692,-3.448 0,-1.901 -1.208,-3.447 -2.692,-3.447 z m 1.4,1.946 A 0.272,0.272 0 0 0 8.62,7.064 0.133,0.133 0 0 0 8.768,6.926 c 0,-0.1 -0.083,-0.143 -0.169,-0.143 H 8.553 V 6.71 H 8.6 A 0.132,0.132 0 0 0 8.746,6.589 0.1,0.1 0 0 0 8.631,6.481 0.225,0.225 0 0 0 8.501,6.528 L 8.478,6.458 A 0.287,0.287 0 0 1 8.651,6.4 0.169,0.169 0 0 1 8.838,6.57 0.177,0.177 0 0 1 8.717,6.739 v 0 A 0.183,0.183 0 0 1 8.863,6.923 0.216,0.216 0 0 1 8.624,7.138 0.315,0.315 0 0 1 8.454,7.089 Z M 8.544,7.836 A 0.351,0.351 0 0 1 8.753,7.73 0.423,0.423 0 0 1 8.817,7.725 V 7.8 a 0.267,0.267 0 0 0 -0.066,0 0.279,0.279 0 0 0 -0.227,0.254 v 0 a 0.189,0.189 0 0 1 0.158,-0.083 0.206,0.206 0 0 1 0.2,0.231 0.232,0.232 0 0 1 -0.217,0.253 c -0.14,0 -0.232,-0.119 -0.232,-0.3 A 0.478,0.478 0 0 1 8.547,7.836 Z M 6.876,7.071 6.946,7 C 7.113,6.826 7.188,6.734 7.189,6.626 A 0.123,0.123 0 0 0 7.059,6.486 0.209,0.209 0 0 0 6.921,6.547 L 6.892,6.479 A 0.274,0.274 0 0 1 7.077,6.4 0.193,0.193 0 0 1 7.277,6.608 C 7.277,6.74 7.19,6.847 7.052,6.992 L 7,7.048 v 0 h 0.293 v 0.08 H 6.876 Z M 6.885,8.346 A 0.282,0.282 0 0 0 7.025,8.385 0.15,0.15 0 0 0 7.18,8.23 C 7.18,8.138 7.123,8.072 6.992,8.072 A 0.7,0.7 0 0 0 6.901,8.079 L 6.944,7.736 H 7.256 V 7.817 H 7.007 L 6.982,8 A 0.348,0.348 0 0 1 7.035,8 0.262,0.262 0 0 1 7.176,8.038 0.209,0.209 0 0 1 7.269,8.222 0.236,0.236 0 0 1 7.026,8.467 0.3,0.3 0 0 1 6.863,8.423 Z m 0.1,1.053 v 0 a 0.179,0.179 0 0 1 -0.1,-0.161 0.19,0.19 0 0 1 0.2,-0.19 0.175,0.175 0 0 1 0.19,0.176 0.182,0.182 0 0 1 -0.107,0.167 v 0 A 0.2,0.2 0 0 1 7.3,9.576 0.209,0.209 0 0 1 7.077,9.784 0.2,0.2 0 0 1 6.858,9.59 0.2,0.2 0 0 1 6.988,9.4 Z M 5.485,6.415 H 5.56 V 7.13 H 5.477 v -0.625 0 L 5.363,6.572 5.344,6.5 Z M 5.255,8.193 5.546,7.736 h 0.1 V 8.181 H 5.737 V 8.257 H 5.642 V 8.451 H 5.558 V 8.257 h -0.3 z M 5.333,9.772 5.617,9.14 v 0 H 5.3 V 9.06 H 5.712 V 9.124 L 5.428,9.775 Z m 0.678,1.194 -0.1,0.085 -0.3,-0.343 v 0 l -0.085,-0.1 0.408,-0.352 0.084,0.1 -0.309,0.267 z m 1.055,0.04 c -0.157,0 -0.263,-0.129 -0.265,-0.362 -0.002,-0.233 0.116,-0.366 0.279,-0.366 0.163,0 0.265,0.132 0.265,0.356 0,0.24 -0.101,0.372 -0.279,0.372 z M 8.3,10.94 8.285,10.926 8.277,10.934 7.994,10.652 8.085,10.56 l 0.2,0.2 0.389,-0.411 0.093,0.088 z M 8.77,9.682 a 0.314,0.314 0 0 1 -0.19,0.1 0.345,0.345 0 0 1 -0.081,0 V 9.7 A 0.367,0.367 0 0 0 8.57,9.7 0.243,0.243 0 0 0 8.707,9.631 0.327,0.327 0 0 0 8.793,9.44 v 0 A 0.183,0.183 0 0 1 8.639,9.517 0.2,0.2 0 0 1 8.443,9.3 0.237,0.237 0 0 1 8.667,9.046 c 0.133,0 0.216,0.119 0.216,0.3 A 0.477,0.477 0 0 1 8.77,9.682 Z m -1.696,0.67 c -0.095,0 -0.165,0.1 -0.165,0.293 0,0.193 0.065,0.287 0.163,0.287 0.098,0 0.165,-0.114 0.165,-0.293 0,-0.179 -0.051,-0.287 -0.163,-0.287 z M 5.558,7.942 c 0,-0.038 0,-0.075 0,-0.112 v 0 C 5.538,7.871 5.522,7.902 5.504,7.93 l -0.16,0.243 v 0 h 0.214 z m 3.11,0.447 c 0.076,0 0.127,-0.07 0.127,-0.172 0,-0.102 -0.053,-0.164 -0.134,-0.164 A 0.144,0.144 0 0 0 8.534,8.141 0.088,0.088 0 0 0 8.524,8.184 C 8.526,8.3 8.575,8.389 8.668,8.389 Z M 8.66,9.119 c -0.076,0 -0.129,0.072 -0.129,0.174 0,0.102 0.049,0.151 0.126,0.151 A 0.142,0.142 0 0 0 8.785,9.37 0.071,0.071 0 0 0 8.793,9.334 C 8.793,9.212 8.752,9.119 8.66,9.119 Z M 7.091,9.361 A 0.138,0.138 0 0 0 7.191,9.231 0.107,0.107 0 0 0 7.08,9.114 0.109,0.109 0 0 0 6.967,9.229 c 0,0.071 0.049,0.11 0.124,0.132 z M 7.079,9.714 A 0.123,0.123 0 0 0 7.21,9.586 C 7.21,9.499 7.155,9.458 7.066,9.43 a 0.152,0.152 0 0 0 -0.117,0.148 0.126,0.126 0 0 0 0.13,0.136 z m -2.803,9.14 A 4.558,4.558 0 0 1 3.289,15.964 V 8.183 A 3.985,3.985 0 0 1 6.127,4.138 H 5.9 A 3.9,3.9 0 0 0 2,8.038 v 7.877 a 3.951,3.951 0 0 0 3.5,3.9 3.481,3.481 0 0 1 -1.224,-0.961 z m -1.437,-6.83 a 0.251,0.251 0 0 1 -0.5,0 v -1.787 a 0.251,0.251 0 1 1 0.5,0 z"/>

</svg>