<svg xmlns="http://www.w3.org/2000/svg" viewBox="0 0 24 24"><path fill="#44739e" d="M16.49 13.798a.4.4 0 0 0 .14.009.4.4 0 0 0 .139-.029q.056-.024.056-.053t-.058-.044a.4.4 0 0 0-.14-.01.4.4 0 0 0-.139.03q-.056.024-.056.052c0 .019.02.03.058.045m.07-.078a.24.24 0 0 1 .138-.01c.019 0 .028.013.029.022q0 .014-.028.027a.3.3 0 0 1-.07.014.2.2 0 0 1-.068-.005q-.03-.009-.031-.022c-.001-.009.01-.023.03-.03Zm.099.255-.045.041q-.1.098-.1.137c0 .026.016.016.048.014q.049-.004.05-.021c0-.011.022-.059.066-.107l.061-.059.09-.083.108-.1a1 1 0 0 0 .063-.069.14.14 0 0 0 .042-.073s0-.007-.011-.011a.1.1 0 0 0-.037 0q-.051.002-.05.021a.14.14 0 0 1-.04.076 1 1 0 0 1-.062.067l-.115.106Zm.27.029a.4.4 0 0 0-.139.03q-.056.024-.056.052 0 .029.058.045a.5.5 0 0 0 .278-.02q.057-.024.056-.052 0-.028-.058-.045a.5.5 0 0 0-.139-.01m.1.062q0 .013-.029.026a.2.2 0 0 1-.068.015.2.2 0 0 1-.069-.006c-.02 0-.03-.012-.03-.022q0-.014.029-.026a.2.2 0 0 1 .068-.014.2.2 0 0 1 .07 0q.027.013.028.027Zm-5.529.56a.45.45 0 0 0 .225.019.46.46 0 0 0 .225-.052.03.03 0 0 0 .012-.017.04.04 0 0 0-.023-.032.13.13 0 0 0-.065-.013v.02q0 .015-.021.03a.13.13 0 0 1-.065.018l-.129.009a.2.2 0 0 1-.059-.01c-.019 0-.028-.015-.029-.029l-.009-.437q0-.015.022-.03a.13.13 0 0 1 .064-.018l.13-.009a.14.14 0 0 1 .06.006c.018 0 .027.015.027.029v.02a.2.2 0 0 0 .066-.022.04.04 0 0 0 .02-.035.04.04 0 0 0-.015-.016.74.74 0 0 0-.45.033.03.03 0 0 0-.012.017l.01.5a.03.03 0 0 0 .016.019m-.162-.528a.2.2 0 0 0-.087-.007.2.2 0 0 0-.087.02v.207l.005.006a.2.2 0 0 0 .087.008.2.2 0 0 0 .087-.021v-.206Zm-.033.206-.024.008h-.073a.01.01 0 0 1-.011-.011v-.173s0-.008.009-.012l.025-.007h.073a.013.013 0 0 1 .01.012v.173q0 .002-.009.004Zm4.665-1.437.028 1.34.162-.012-.031-1.512-.348.025.004.173Zm-.343-.075a.2.2 0 0 0-.164-.061l-.787.057v.185l.761-.055a.05.05 0 0 1 .035.025.14.14 0 0 1 .013.064l.008.381-.806.058v.19l.806-.057.008.386a.14.14 0 0 1-.01.066.07.07 0 0 1-.035.029l-.763.054v.185l.787-.056a.2.2 0 0 0 .1-.025.2.2 0 0 0 .066-.057.2.2 0 0 0 .037-.077.3.3 0 0 0 .017-.086l-.022-1.048a.24.24 0 0 0-.051-.158M10.17 14.57l-.008-.389a.14.14 0 0 1 .009-.062.05.05 0 0 1 .04-.026l.551-.039a.4.4 0 0 0 .1-.032.2.2 0 0 0 .061-.052.2.2 0 0 0 .031-.07l.014-.082v-.064l-.006-.277-.005-.052a.4.4 0 0 0-.02-.084.2.2 0 0 0-.04-.068.15.15 0 0 0-.065-.046.24.24 0 0 0-.1-.015l-.787.056v.184l.763-.055a.05.05 0 0 1 .036.027.2.2 0 0 1 .019.066l.006.294a.1.1 0 0 1-.01.058.06.06 0 0 1-.033.024l-.556.039a.22.22 0 0 0-.158.085.27.27 0 0 0-.046.158v.062l.011.557 1.005-.07v-.184Zm-.385.1.003.11.117-.008-.003-.11Zm-.161-.651a.2.2 0 0 0-.165-.062l-.553.041a.06.06 0 0 1-.033-.018.1.1 0 0 1-.014-.06l-.008-.387.81-.058v-.183l-1 .072.011.556.008.063a.25.25 0 0 0 .049.145.2.2 0 0 0 .163.06l.554-.039q.043 0 .045.078l.006.3a.1.1 0 0 1-.011.065.07.07 0 0 1-.035.029l-.763.053v.183l.787-.055a.2.2 0 0 0 .095-.025.2.2 0 0 0 .065-.055.2.2 0 0 0 .036-.075.3.3 0 0 0 .011-.088v-.061l-.007-.326a.25.25 0 0 0-.051-.153m-1.319-.449a.05.05 0 0 1 .036.027.2.2 0 0 1 .019.066l.006.292a.1.1 0 0 1-.01.058.06.06 0 0 1-.033.024l-.556.04a.22.22 0 0 0-.158.084.3.3 0 0 0-.046.157v.063l.012.554 1-.07v-.183l-.812.057-.008-.388a.14.14 0 0 1 .01-.062.05.05 0 0 1 .039-.026l.551-.039a.4.4 0 0 0 .1-.031.2.2 0 0 0 .061-.052.2.2 0 0 0 .031-.07l.014-.081v-.064l-.006-.276v-.052a.4.4 0 0 0-.02-.084.2.2 0 0 0-.039-.068.2.2 0 0 0-.066-.045.2.2 0 0 0-.1-.015l-.787.056v.183Zm7.945-3.061a.03.03 0 0 1 .019.027l.009.4a.04.04 0 0 1-.015.027.07.07 0 0 1-.043.016h-.029a.04.04 0 0 0 .018.024.1.1 0 0 0 .055.009.07.07 0 0 0 .064-.058.3.3 0 0 0 .008-.054l-.007-.346-.006-.031-.006-.021a.06.06 0 0 0-.064-.048.1.1 0 0 0-.055.018.04.04 0 0 0-.017.026h.029a.1.1 0 0 1 .04.011m-.442.511a.23.23 0 0 0 .153.021.25.25 0 0 0 .153-.043.03.03 0 0 0 .008-.015.04.04 0 0 0-.016-.031.07.07 0 0 0-.044-.012v.018a.04.04 0 0 1-.014.028.07.07 0 0 1-.048.012l-.088.007a.1.1 0 0 1-.04-.007.03.03 0 0 1-.02-.027l-.008-.4a.04.04 0 0 1 .014-.027.07.07 0 0 1 .044-.016l.088-.007a.1.1 0 0 1 .041.006.03.03 0 0 1 .019.028v.018a.1.1 0 0 0 .045-.019.04.04 0 0 0 .013-.032.03.03 0 0 0-.01-.015.23.23 0 0 0-.153-.021.25.25 0 0 0-.153.046.03.03 0 0 0-.008.015l.01.461a.03.03 0 0 0 .014.012m-.393.03a.23.23 0 0 0 .153.021.24.24 0 0 0 .153-.046.02.02 0 0 0 .008-.015l-.009-.461a.03.03 0 0 0-.01-.015.24.24 0 0 0-.154-.021.25.25 0 0 0-.153.046.03.03 0 0 0-.008.015l.01.461a.04.04 0 0 0 .01.015m.055-.479a.06.06 0 0 1 .043-.016l.088-.007a.1.1 0 0 1 .042.006.03.03 0 0 1 .018.028l.008.4a.03.03 0 0 1-.014.027.07.07 0 0 1-.044.016l-.088.007a.1.1 0 0 1-.04-.007.03.03 0 0 1-.02-.027l-.008-.4a.04.04 0 0 1 .015-.027m-.295.527a.25.25 0 0 0 .153-.045.02.02 0 0 0 .008-.015l-.01-.49q0-.02-.029-.017t-.03.022l.01.461a.04.04 0 0 1-.015.027.07.07 0 0 1-.044.016l-.131.009h-.016v-.01l-.01-.49q0-.02-.031-.017c-.021.002-.023 0-.025.009v.013l.011.537Zm-.537-.477h.046a.07.07 0 0 1 .047.01.03.03 0 0 1 .013.024l.009.46q0 .02.029.018t.03-.022l-.009-.461a.03.03 0 0 1 .017-.03.1.1 0 0 1 .041-.013h.062a.017.017 0 0 0 0-.03.04.04 0 0 0-.021 0l-.266.02h-.02a.02.02 0 0 0-.009.017c.002.003.012.009.031.007m-.229.462.006.022a.06.06 0 0 0 .064.048.1.1 0 0 0 .055-.019.04.04 0 0 0 .017-.025h-.029a.1.1 0 0 1-.04-.007.03.03 0 0 1-.02-.027l-.008-.4a.04.04 0 0 1 .014-.027.07.07 0 0 1 .044-.016h.029a.04.04 0 0 0-.018-.024.1.1 0 0 0-.056-.009.07.07 0 0 0-.063.057.3.3 0 0 0-.009.054l.008.345Zm-1.131.115a.35.35 0 0 0 .226.03.36.36 0 0 0 .225-.067.04.04 0 0 0 .012-.022l-.009-.423-.015-.022a.36.36 0 0 0-.225-.03l-.065.005a.1.1 0 0 1-.059-.01.04.04 0 0 1-.029-.04v-.169q0-.028-.045-.025c-.029.002-.034.006-.037.013a.04.04 0 0 0 0 .019l.015.718Zm.091-.454a.1.1 0 0 1 .06-.018l.129-.01a.1.1 0 0 1 .069.014.04.04 0 0 1 .019.036l.007.338a.05.05 0 0 1-.029.047.13.13 0 0 1-.057.016l-.129.009a.1.1 0 0 1-.066-.012.05.05 0 0 1-.022-.037l-.007-.338a.05.05 0 0 1 .026-.047Zm-.669.785a.04.04 0 0 0 .033.008.1.1 0 0 0 .032-.011.02.02 0 0 0 .012-.02v-.169a.05.05 0 0 1 .026-.045.2.2 0 0 1 .059-.018h.065a.37.37 0 0 0 .225-.066.03.03 0 0 0 .012-.022l-.009-.423-.015-.022a.35.35 0 0 0-.225-.03.37.37 0 0 0-.225.066.03.03 0 0 0-.012.022l.015.718Zm.089-.743a.14.14 0 0 1 .06-.019l.129-.009a.1.1 0 0 1 .069.014.04.04 0 0 1 .019.035l.007.338a.05.05 0 0 1-.029.047.13.13 0 0 1-.057.016l-.129.01a.1.1 0 0 1-.066-.013.05.05 0 0 1-.022-.037l-.007-.338a.05.05 0 0 1 .028-.044Zm-.665.786q.009.01.033.008a.1.1 0 0 0 .033-.01.03.03 0 0 0 .011-.021v-.169a.05.05 0 0 1 .026-.044.1.1 0 0 1 .059-.018l.065-.005a.36.36 0 0 0 .225-.067.03.03 0 0 0 .012-.022l-.009-.423-.014-.021a.35.35 0 0 0-.226-.03.37.37 0 0 0-.225.066.04.04 0 0 0-.012.021l.015.719a.03.03 0 0 0 .007.016m.09-.743a.14.14 0 0 1 .059-.018l.129-.01a.1.1 0 0 1 .069.015.04.04 0 0 1 .019.035l.007.338a.05.05 0 0 1-.029.047.14.14 0 0 1-.056.016l-.13.009a.1.1 0 0 1-.066-.012.05.05 0 0 1-.022-.037l-.007-.338a.05.05 0 0 1 .027-.045m-1.107-.623a.06.06 0 0 1 .037.024.1.1 0 0 1 .014.063l.025 1.226.192-.015-.027-1.271a.24.24 0 0 0-.054-.152.2.2 0 0 0-.166-.06l-.787.06v.183Zm-1.019.065.028 1.327.162-.012-.031-1.499-.348.027.004.171Zm-.53.052a.06.06 0 0 1 .037.027.2.2 0 0 1 .018.066l.006.293a.1.1 0 0 1-.009.059.06.06 0 0 1-.033.024l-.556.042a.22.22 0 0 0-.159.085.3.3 0 0 0-.046.158l-.005.062.012.556 1-.075v-.183l-.812.061L9 11.109a.13.13 0 0 1 .009-.062.05.05 0 0 1 .039-.026l.552-.042a.3.3 0 0 0 .1-.032.2.2 0 0 0 .061-.053.2.2 0 0 0 .032-.069l.013-.082v-.064l-.006-.276v-.053a.4.4 0 0 0-.02-.083.2.2 0 0 0-.04-.068.2.2 0 0 0-.065-.046.3.3 0 0 0-.1-.014l-.786.06v.183Zm-1.853 1.224a.4.4 0 0 0 .017.086.2.2 0 0 0 .039.069.2.2 0 0 0 .065.045.24.24 0 0 0 .1.015l.578-.043a.2.2 0 0 0 .094-.026.2.2 0 0 0 .065-.055.2.2 0 0 0 .036-.075.4.4 0 0 0 .015-.088l-.014-.477-.012-.562a.27.27 0 0 0-.057-.152.2.2 0 0 0-.163-.06l-.578.044a.3.3 0 0 0-.1.031.2.2 0 0 0-.061.054.2.2 0 0 0-.036.071.3.3 0 0 0-.013.086v.067l.019.912Zm.178-1.068a.07.07 0 0 1 .035-.03l.53-.041a.06.06 0 0 1 .036.025.12.12 0 0 1 .016.065l.011.489.01.467a.1.1 0 0 1-.012.06.1.1 0 0 1-.033.026l-.53.04a.06.06 0 0 1-.036-.025.1.1 0 0 1-.013-.063l-.02-.947a.2.2 0 0 1 .006-.066m13.066-3.544-17.427.863c-.349.017-.472.156-.468.492l.078 8.877c0 .362.13.408.5.381L21.1 16.373c.341-.024.341-.166.341-.494V7.35c-.004-.359-.119-.434-.492-.415m-2.312 7.874-12.589.889V9.342l12.589-.681ZM2.991 7.298 21.4 6.352l-.307-.237a1.22 1.22 0 0 0-.813-.255l-17.832.9A.47.47 0 0 0 2 7.238l.181 9.886a.6.6 0 0 0 .109.339l.266.337-.107-9.963a.63.63 0 0 1 .542-.539m18.285-.824L3.21 7.39a.69.69 0 0 0-.654.7l.093 9.369a.69.69 0 0 0 .74.681l17.972-1.315a.69.69 0 0 0 .639-.692V7.162a.69.69 0 0 0-.724-.688m0 10.1L3.461 17.798c-.383.028-.511-.02-.515-.4l-.08-9.237c0-.35.122-.494.478-.512l17.783-.893c.38-.019.5.059.5.432v8.874c.001.341.001.489-.347.514Z"/></svg>