<svg xmlns="http://www.w3.org/2000/svg" viewBox="0 0 24 24"><path fill="#44739e" d="M10.535 6.817c2.777-.188 5.03 2.127 5.03 5.187s-2.253 5.375-5.03 5.187c-2.844-.192-4.637-2.155-4.637-5.187s1.793-4.995 4.637-5.187M2.08 7.02v9.968a4.317 4.317 0 0 0 3.907 4.27l9.033.684h.039q.328.035.671.051h.073q.139.009.275.007h.172a6.76 6.76 0 0 0 3.564-1.385 4.35 4.35 0 0 0 2.106-3.245V6.63a4.32 4.32 0 0 0-1.992-3.241A6.55 6.55 0 0 0 16.25 2h-.158c-.1 0-.194 0-.291.007h-.033l-9.781.739A4.317 4.317 0 0 0 2.08 7.02m.2-.011a4.11 4.11 0 0 1 3.718-4.061l9.786-.74c2.076-.156 3.748 1.673 3.748 4.062v11.447c0 2.389-1.672 4.218-3.748 4.062l-9.786-.741a4.11 4.11 0 0 1-3.716-4.06Zm.416 0v9.969a3.69 3.69 0 0 0 3.328 3.642l9.787.739c1.815.137 3.296-1.482 3.296-3.642V6.27c0-2.16-1.481-3.78-3.296-3.643l-9.787.74a3.69 3.69 0 0 0-3.328 3.642m2.782 4.985c0-3.251 1.963-5.402 5.029-5.602 3.028-.205 5.478 2.312 5.478 5.602s-2.45 5.81-5.478 5.602c-3.066-.205-5.029-2.352-5.029-5.602"/></svg>