<svg xmlns="http://www.w3.org/2000/svg" viewBox="0 0 24 24"><path fill="#44739e" d="M10.701 10.271V4.007a1.383 1.383 0 0 0-2.765 0v6.264a.026.026 0 0 0 .028.026h2.708a.026.026 0 0 0 .029-.026m.28 1.862a.367.321 90 0 1-.321.367.367.321 90 0 1-.32-.367.367.321 90 0 1 .32-.367.367.321 90 0 1 .321.367m5.593-.67h-5.929a.671.671 0 0 0 0 1.341h5.929a.671.671 0 0 0 0-1.341m-5.91 1.099a.431.431 0 1 1 .383-.429.41.41 0 0 1-.383.429m-.783-.429a.77.77 0 0 1 .403-.67h-.829a.656.656 0 1 0 0 1.31h.777a.77.77 0 0 1-.351-.64m-1.177-.015a.75.75 0 0 1 .749-.748h.465a.8.8 0 0 0-.592-.288.95.95 0 0 0-.854 1.024.95.95 0 0 0 .854 1.024.78.78 0 0 0 .57-.263h-.441a.75.75 0 0 1-.751-.749m1.335 4.038a.791.69 90 0 1-.69.791.791.69 90 0 1-.69-.791.791.69 90 0 1 .69-.791.791.69 90 0 1 .69.791m.395-3.289h-.416a.89.89 0 0 1-.692.357 1.044 1.044 0 0 1-.947-1.118 1.043 1.043 0 0 1 .947-1.114.89.89 0 0 1 .71.381h.435l.087.005.087-.005h.473V3.746a1.587 1.587 0 0 0-1.585-1.585h-.43a1.587 1.587 0 0 0-1.585 1.585v16.519a1.587 1.587 0 0 0 1.585 1.585h.43a1.587 1.587 0 0 0 1.585-1.585v-7.368h-.473a.8.8 0 0 1-.211-.03m-2.47-2.4a.2.2 0 0 1-.202-.196V4.007a1.554 1.554 0 0 1 3.108 0v6.264a.2.2 0 0 1-.202.196Zm1.39 6.573a.891.891 0 1 1 .784-.885.84.84 0 0 1-.784.885m-.251 4.92a1.693 1.693 0 0 1-1.693-1.694V3.746a1.693 1.693 0 0 1 1.693-1.694h.43a1.7 1.7 0 0 1 .671.139A1.76 1.76 0 0 0 9.403 2h-.771a1.85 1.85 0 0 0-1.851 1.852v16.296A1.85 1.85 0 0 0 8.632 22h.187a1.85 1.85 0 0 1-1.852-1.852V3.888A1.855 1.855 0 0 1 8.39 2.087a1.77 1.77 0 0 0-1.221 1.682v16.462A1.77 1.77 0 0 0 8.938 22h.465a1.8 1.8 0 0 0 .632-.116 1.7 1.7 0 0 1-.504.076Z"/></svg>