<?xml version="1.0" encoding="UTF-8"?>
<svg width="24px" fill="#44739e" height="24px" viewBox="0 0 24 24" version="1.1" xmlns="http://www.w3.org/2000/svg" xmlns:xlink="http://www.w3.org/1999/xlink">
            <path d="m 21.363,19.148335 -6.573,1.332 a 0.909,0.909 0 0 1 -1.072,-0.71 0.881,0.881 0 0 1 -0.018,-0.178 L 13.633,4.6593353 a 0.8,0.8 0 0 1 0.794,-0.806 0.875,0.875 0 0 1 0.144,0.012 l 6.662,1.15 a 0.067,0.067 0 0 0 0.077,-0.055 0.065,0.065 0 0 0 -0.018,-0.058 l -0.117,-0.116 a 0.071,0.071 0 0 0 -0.035,-0.019 l -7.654,-1.419 h -0.02 l -10.7079996,1.319 -0.242,0.031 a 0.567,0.567 0 0 0 -0.493,0.587 0.066,0.066 0 0 0 -0.023,0.047 V 17.832335 l 0.122,0.437 a 0.066,0.066 0 0 0 0.08,0.048 0.066,0.066 0 0 0 0.05,-0.066 V 5.7123353 a 0.852,0.852 0 0 1 0.758,-0.847 L 12.36,3.8263353 a 0.8,0.8 0 0 1 0.88,0.71 0.767,0.767 0 0 1 0,0.082 V 19.692335 a 0.885,0.885 0 0 1 -0.885,0.885 1.092,1.092 0 0 1 -0.115,-0.008 l -8.8109996,-1.155 a 0.066,0.066 0 0 0 -0.046,0.121 l 0.206,0.138 0.03,0.011 8.6439996,1.257 a 6.954,6.954 0 0 0 2.437,-0.077 l 6.418,-1.357 c 0.011,0 0.3,-0.242 0.3,-0.242 a 0.067,0.067 0 0 0 -0.055,-0.117 z m 0.092,-13.7649997 -6.555,-1.205 a 0.666,0.666 0 0 0 -0.777,0.531 0.721,0.721 0 0 0 -0.011,0.123 V 19.549335 a 0.664,0.664 0 0 0 0.8,0.652 l 6.557,-1.375 A 0.666,0.666 0 0 0 22,18.174335 V 6.0383353 a 0.666,0.666 0 0 0 -0.545,-0.655 z M 12.967,19.523335 V 4.8663353 a 0.75,0.75 0 0 0 -0.75,-0.75 0.7,0.7 0 0 0 -0.079,0 l -8.9569996,0.937 a 0.75,0.75 0 0 0 -0.672,0.746 V 18.456335 a 0.75,0.75 0 0 0 0.662,0.745 l 8.9559996,1.068 a 0.751,0.751 0 0 0 0.835,-0.657 0.869,0.869 0 0 0 0.005,-0.089 z m -7.6969996,-7.241 c -0.19,0.036 -0.263,-0.246 -0.14,-0.388 a 0.157,0.157 0 0 1 0.221,-0.026 v 0 c 0.108,0.113 0.079,0.383 -0.081,0.414 z m 0.809,0.491 -0.179,-0.014 q -0.162,-0.6 -0.325,-1.182 c -0.041,-0.144 -0.072,-0.379 -0.253,-0.3 -0.119,0.052 -0.138,0.263 -0.181,0.41 -0.031,0.105 -0.114,0.139 -0.144,0.251 -0.023,0.085 0.013,0.164 0,0.246 q -0.081,0.264 -0.162,0.524 l -0.17,-0.014 v -0.005 c 0.042,-0.144 0.083,-0.289 0.125,-0.435 0.067,-0.231 0.133,-0.464 0.2,-0.7 a 1.667,1.667 0 0 1 0.109,-0.338 0.477,0.477 0 0 1 0.223,-0.181 0.293,0.293 0 0 1 0.306,0.12 5.181,5.181 0 0 1 0.31,1.049 c 0.049,0.185 0.1,0.372 0.147,0.559 z m 1.009,0.439 -0.178,-0.014 v -0.566 0 c -0.157,0.3 -0.531,0.148 -0.683,-0.046 a 1.029,1.029 0 0 1 0.046,-1.122 0.385,0.385 0 0 1 0.294,-0.157 c 0.625,-0.023 0.524,0.945 0.521,1.905 z m 1.144,-0.331 v 0.006 l -0.17,-0.009 v -0.178 0 c -0.09,0.051 -0.152,0.142 -0.272,0.163 -0.369,0.062 -0.668,-0.554 -0.533,-1.1 0.088,-0.356 0.2,-0.493 0.465,-0.525 0.533,-0.006 0.515,0.723 0.51,1.643 z m 0.639,-1.4 v 0.007 c -0.394,0.013 -0.338,0.744 -0.332,1.408 v 0.006 l -0.17,-0.009 v -0.006 c 0,-0.822 -0.111,-1.3 0.284,-1.559 a 0.392,0.392 0 0 1 0.221,-0.065 c 0.026,0.02 0,0.219 0,0.219 z m 1.054,1.488 v 0.007 l -0.17,-0.009 v -0.2 c -0.09,0.054 -0.152,0.158 -0.272,0.183 -0.371,0.074 -0.671,-0.615 -0.532,-1.227 0.083,-0.371 0.2,-0.472 0.446,-0.485 0.539,-0.008 0.533,0.707 0.528,1.73 z m -0.556,-1.497 c -0.086,0 -0.156,0.085 -0.207,0.2 -0.17,0.365 -0.025,1.038 0.287,0.969 0.413,-0.1 0.398,-1.209 -0.08,-1.169 z m -1.692,0.06 c -0.1,0 -0.166,0.085 -0.219,0.2 -0.163,0.334 0,0.914 0.3,0.854 0.408,-0.093 0.395,-1.091 -0.081,-1.054 z m -1.145,0.037 c -0.1,0 -0.162,0.078 -0.215,0.177 -0.166,0.3 -0.011,0.85 0.295,0.794 0.411,-0.079 0.396,-1.008 -0.08,-0.971 z"/>

</svg>