<?xml version="1.0" encoding="UTF-8"?>
<svg width="24px" fill="#44739e" height="24px" viewBox="0 0 24 24" version="1.1" xmlns="http://www.w3.org/2000/svg" xmlns:xlink="http://www.w3.org/1999/xlink">
            <path d="m 7.068,10.575 v 1.145 h 0.251 c 0.316,0 0.7,-0.093 0.7,-0.556 A 0.589,0.589 0 0 0 7.39,10.571 H 7.068 m 12.609,2.041 c 0.511,-0.853 1.007,-1.774 1.511,-2.688 l 0.755,4.108 h -0.755 l -0.324,-1.841 -1.153,1.865 a 0.048,0.048 0 0 0 -0.031,0.019 l -1.192,-1.86 c -0.137,0.586 -0.242,1.2 -0.363,1.817 h -0.713 l 0.755,-4.084 z m -6.961,-2.4 v 0.8 a 1.908,1.908 0 0 0 -1.148,-0.413 c -2.139,0.052 -1.48,4.1 1.142,2.334 v 0.8 a 2.541,2.541 0 0 1 -1.523,0.336 2.1,2.1 0 1 1 1.529,-3.852 m -4.995,-0.3 a 1.087,1.087 0 0 1 1.1,1.161 1.079,1.079 0 0 1 -0.833,1.11 l 1.079,1.85 H 8.137 L 7.075,12.2 a 0.014,0.014 0 0 0 0,0.015 v 1.817 H 6.257 V 9.911 Z M 5.707,14.032 H 4.894 C 4.768,13.732 4.528,13.151 4.528,13.151 H 3.276 L 2.921,14.032 H 2.057 c 0.325,-0.77 0.572,-1.335 0.847,-1.97 0.3,-0.689 0.577,-1.3 0.956,-2.132 z M 3.531,12.522 H 4.264 L 3.886,11.707 Z m 13.327,1.51 H 16.05 c -0.126,-0.3 -0.366,-0.881 -0.366,-0.881 h -1.251 l -0.356,0.881 h -0.863 c 0.325,-0.77 0.572,-1.335 0.848,-1.97 0.3,-0.689 0.581,-1.3 0.959,-2.132 z m -2.177,-1.51 h 0.733 l -0.377,-0.815 z"/>

</svg>