<svg role="img" viewBox="0 0 24 24" xmlns="http://www.w3.org/2000/svg"><title>ARD</title>
    <path
       d="m 17.94671,17.489411 c -1.2818,-0.14104 -2.40743,-0.67072 -3.29945,-1.55259 -0.26187,-0.2589 -0.64282,-0.7139 -0.64282,-0.76778 0,-0.0177 0.76601,-0.55997 0.79095,-0.55997 0.007,0 0.0725,0.0785 0.14663,0.17437 1.39286,1.80223 3.89734,2.29384 5.82998,1.14438 0.9926,-0.59036 1.73939,-1.5705 2.04417,-2.6829 0.3037,-1.10842 0.1944,-2.26759 -0.30941,-3.2814399 -0.68083,-1.3701 -1.94756,-2.28081 -3.43592,-2.47025 -0.342,-0.0435 -1.00197,-0.0303 -1.31186,0.0264 -0.78298,0.14311 -1.48196,0.46175 -2.09318,0.95423 -0.2286,0.18419 -0.61981,0.58577 -0.76027,0.78042 -0.0568,0.0787 -0.112,0.14034 -0.1227,0.13699 -0.0278,-0.009 -0.77839,-0.53651 -0.77839,-0.54736 0,-0.0131 0.12794,-0.18389 0.25161,-0.33594 0.1417,-0.1742 0.50654,-0.54288 0.69526,-0.70257 1.6516,-1.39754 3.99629,-1.70576 5.93675,-0.78039 0.96159,0.45856 1.77258,1.19599 2.32668,2.11564 1.08972,1.8086199 1.04161,4.1378699 -0.12149,5.8823399 -0.25033,0.37545 -0.39285,0.54974 -0.70623,0.86369 -0.45897,0.45978 -0.8801,0.76194 -1.46483,1.05101 -0.53952,0.26671 -1.04266,0.42459 -1.652,0.51836 -0.28131,0.0433 -1.05593,0.0628 -1.32348,0.0334 z m -0.71336,-4.44786 c 0,-0.95653 -0.007,-1.68954 -0.0165,-1.68954 -0.009,0 -0.33219,0.11509 -0.71806,0.25575 -0.38587,0.14067 -0.71637,0.25992 -0.73444,0.26501 -0.0308,0.009 -0.0328,-0.0263 -0.0325,-0.55143 l 3.8e-4,-0.56067 2.25704,-0.8101899 2.25704,-0.81018 0.005,2.2540399 c 0.003,1.23973 0.001,2.25746 -0.003,2.26164 -0.01,0.01 -2.98214,1.07433 -3.00088,1.07478 -0.008,1.8e-4 -0.0141,-0.75996 -0.0141,-1.68921 z M 3.2290393e-7,14.501211 c 0,-0.0132 0.38333999709607,-1.14745 0.85186999709607,-2.52055 l 0.85186998,-2.4965399 0.628,-0.005 0.628,-0.005 0.85733,2.5134999 c 0.47153,1.38242 0.85733,2.51875 0.85733,2.52517 0,0.006 -0.24836,0.0117 -0.55191,0.0117 h -0.55192 l -0.10617,-0.33322 c -0.0584,-0.18327 -0.13385,-0.41769 -0.1677,-0.52094 l -0.0615,-0.18773 h -0.95407 -0.95407 l -0.16412,0.51625 -0.16412998,0.51625 -0.49938,0.005 c -0.39557,0.004 -0.499389997096,10e-6 -0.499389997096,-0.019 z M 2.9282303,12.520611 c -0.15975,-0.4872 -0.4846,-1.51933 -0.55983,-1.77872 l -0.0926,-0.31913 -0.0218,0.0845 c -0.0764,0.29626 -0.41628,1.3984 -0.62964,2.04153 l -0.0265,0.0798 h 0.68283 0.68283 z m 2.36567,-0.51841 V 9.4791911 l 0.9303,-0.0139 c 0.51167,-0.008 1.00797,-0.008 1.1029,-6.9e-4 1.05026,0.0807 1.57665,0.5858099 1.57566,1.5119999 -3.1e-4,0.28767 -0.0354,0.45442 -0.14416,0.68521 -0.14297,0.30337 -0.3492,0.50606 -0.68118,0.6695 l -0.19196,0.0945 0.0448,0.0592 c 0.0462,0.0611 1.26839,2.01936 1.26839,2.03237 0,0.004 -0.26915,0.007 -0.5981,0.007 h -0.59811 l -0.57043,-0.9668 -0.57044,-0.96679 h -0.27679 -0.27679 l -0.005,0.9621 -0.005,0.9621 -0.50217,0.005 -0.50217,0.005 z m 2.03544,-0.28288 c 0.36754,-0.10125 0.53138,-0.33626 0.5142,-0.7376 -0.006,-0.15118 -0.0173,-0.20437 -0.0616,-0.30193 -0.0918,-0.20244 -0.25949,-0.31415 -0.53971,-0.35962 -0.1285,-0.0208 -0.7506,-0.0262 -0.86423,-0.007 l -0.0704,0.0116 v 0.72276 0.72276 l 0.45524,-0.01 c 0.33757,-0.007 0.48399,-0.0179 0.56647,-0.0406 z m 2.7469097,2.79128 -0.1830297,-0.006 v -2.51264 -2.5126499 l 0.8397797,-0.014 c 0.46188,-0.008 0.93284,-0.008 1.04658,-10e-4 1.17349,0.0737 1.89711,0.6174499 2.15021,1.6156299 0.0716,0.28231 0.0975,0.52433 0.0966,0.90109 -0.004,1.48541 -0.71061,2.33496 -2.09258,2.51487 -0.17178,0.0224 -0.38474,0.028 -0.94802,0.0249 -0.39957,-0.002 -0.80885,-0.007 -0.90952,-0.0101 z m 1.64731,-0.85014 c 0.23891,-0.0269 0.37072,-0.0632 0.55379,-0.15249 0.49197,-0.23985 0.71772,-0.7695 0.68974,-1.61824 -0.006,-0.17152 -0.0236,-0.36721 -0.0413,-0.45086 -0.12321,-0.58066 -0.42369,-0.92792 -0.92096,-1.06434 -0.17762,-0.0487 -0.42034,-0.0662 -0.82094,-0.0592 l -0.29567,0.005 v 1.65976 1.65976 l 0.0798,0.0107 c 0.0832,0.0112 0.23181,0.0194 0.45524,0.0253 0.0723,0.002 0.20744,-0.005 0.30037,-0.0156 z"
       fill="#44739e" />
</svg>
