<svg role="img" viewBox="0 0 24 24" xmlns="http://www.w3.org/2000/svg"><title>ARDalpha</title>
    <path
       d="m 16.425052,16.734776 c -0.12452,-0.0223 -0.24631,-0.098 -0.28339,-0.17613 -0.0645,-0.13584 -0.0268,-0.30635 0.0878,-0.39781 l 0.066,-0.0526 -0.0445,-0.035 c -0.0857,-0.0674 -0.0713,-0.24023 0.0245,-0.29414 0.0298,-0.0168 0.0272,-0.0244 -0.027,-0.0807 -0.0764,-0.0794 -0.0997,-0.14269 -0.0997,-0.27061 0,-0.21023 0.11739,-0.36197 0.32751,-0.42335 0.0316,-0.009 0.20725,-0.0111 0.39072,-0.004 l 0.3333,0.0126 v 0.0629 c 0,0.0627 -2.7e-4,0.0629 -0.0913,0.0629 h -0.0913 l 0.0444,0.0877 c 0.0998,0.19722 0.0189,0.42776 -0.18855,0.53717 -0.0611,0.0322 -0.11501,0.0415 -0.26217,0.0454 -0.1045,0.003 -0.19661,0.0142 -0.21124,0.0264 -0.0143,0.0119 -0.026,0.0461 -0.026,0.076 0,0.0737 0.0522,0.0911 0.27257,0.0911 0.22181,0 0.35077,0.0273 0.42529,0.09 0.20715,0.1743 0.10482,0.48901 -0.19556,0.60139 -0.12012,0.045 -0.32547,0.0637 -0.45118,0.0412 z m 0.44647,-0.18008 c 0.10324,-0.0536 0.15445,-0.14918 0.13054,-0.24359 -0.0313,-0.12371 -0.088,-0.14851 -0.35247,-0.15425 -0.19619,-0.004 -0.23414,-2.5e-4 -0.26685,0.0282 -0.14944,0.12982 -0.13208,0.31621 0.0365,0.39229 0.0889,0.0401 0.35732,0.0267 0.45224,-0.0226 z m -0.0496,-0.92252 c 0.15579,-0.11414 0.14833,-0.36129 -0.0142,-0.46987 -0.049,-0.0327 -0.0904,-0.0426 -0.17838,-0.0426 -0.13357,7e-5 -0.21655,0.0412 -0.27429,0.13589 -0.0752,0.12339 -0.0335,0.33083 0.0789,0.39227 0.10556,0.0577 0.29842,0.0499 0.38797,-0.0157 z m -3.94874,0.51864 c -0.10997,-0.0268 -0.19658,-0.10294 -0.25227,-0.2217 -0.0437,-0.0932 -0.0493,-0.12791 -0.0487,-0.30245 6.3e-4,-0.1761 0.006,-0.20974 0.0544,-0.31502 0.10039,-0.22025 0.25297,-0.30896 0.54574,-0.31729 l 0.18777,-0.005 0.005,-0.26327 0.005,-0.26326 h 0.0842 0.0842 l -0.005,0.84028 -0.005,0.84028 -0.0821,0.006 -0.0821,0.006 0.008,-0.12643 c 0.006,-0.0948 0.003,-0.11795 -0.0118,-0.0926 -0.10408,0.17738 -0.29588,0.26186 -0.48809,0.21499 z m 0.2673,-0.1562 c 0.0739,-0.0385 0.12777,-0.10248 0.17551,-0.20857 0.0372,-0.0827 0.0423,-0.12543 0.0432,-0.36592 l 10e-4,-0.27227 -0.10495,-0.0167 c -0.22482,-0.0357 -0.36852,0.0257 -0.45367,0.19374 -0.0458,0.0903 -0.0516,0.12236 -0.0512,0.28164 4.7e-4,0.20258 0.0336,0.30428 0.12182,0.37365 0.0611,0.048 0.19035,0.055 0.26833,0.0144 z m 0.8769,0.14834 c -0.0912,-0.0323 -0.15003,-0.10165 -0.17696,-0.20861 -0.0114,-0.0454 -0.0202,-0.26381 -0.0202,-0.50376 v -0.42356 h 0.0845 0.0845 l 1.1e-4,0.39901 c 6e-5,0.21946 0.009,0.43076 0.0197,0.46956 0.0296,0.10672 0.082,0.1454 0.19691,0.1454 0.11215,0 0.19862,-0.0482 0.26617,-0.14846 0.0684,-0.10153 0.0802,-0.17975 0.0803,-0.53222 l 10e-5,-0.33329 h 0.0845 0.0845 v 0.5727 0.57271 h -0.0751 -0.0751 l -9e-5,-0.12675 -9e-5,-0.12675 -0.0422,0.069 c -0.0553,0.0905 -0.12756,0.14525 -0.23388,0.17725 -0.1079,0.0325 -0.18143,0.0319 -0.2777,-0.002 z m 3.37052,0.0124 c -0.0834,-0.0122 -0.0846,-0.0134 -0.0902,-0.0904 l -0.006,-0.078 0.0714,0.0166 c 0.10775,0.025 0.28079,0.0207 0.35122,-0.009 0.12317,-0.0515 0.1648,-0.19173 0.0804,-0.271 -0.0239,-0.0225 -0.11855,-0.0662 -0.21029,-0.0972 -0.0965,-0.0326 -0.18881,-0.0774 -0.21897,-0.10635 -0.14175,-0.13581 -0.10182,-0.37209 0.0802,-0.47437 0.0876,-0.0492 0.27394,-0.0712 0.41899,-0.0495 0.0852,0.0128 0.0863,0.0138 0.0863,0.0849 v 0.072 l -0.0798,-0.0183 c -0.0439,-0.0101 -0.13234,-0.0151 -0.19655,-0.0112 -0.14868,0.009 -0.21185,0.0594 -0.21185,0.16914 0,0.0937 0.057,0.14827 0.2018,0.19309 0.2588,0.0801 0.34274,0.15805 0.34274,0.31825 0,0.10546 -0.0327,0.17338 -0.12058,0.25055 -0.10095,0.0886 -0.30269,0.12932 -0.49907,0.10065 z m 1.88289,-0.002 c -0.089,-0.0211 -0.14584,-0.0645 -0.18074,-0.13811 -0.0607,-0.12779 -0.0275,-0.26109 0.0907,-0.36518 0.10208,-0.0899 0.23677,-0.137 0.42754,-0.14964 l 0.14552,-0.01 v -0.10556 c 0,-0.12231 -0.048,-0.21824 -0.12321,-0.24685 -0.0772,-0.0294 -0.25317,-0.0201 -0.36493,0.0192 -0.13437,0.0473 -0.13144,0.0478 -0.13144,-0.0259 0,-0.0518 0.009,-0.0671 0.0516,-0.0835 0.10912,-0.0424 0.20696,-0.0594 0.3434,-0.0595 0.18822,-1.3e-4 0.29138,0.0492 0.35136,0.16818 0.0403,0.08 0.0422,0.10423 0.0422,0.53984 v 0.45607 h -0.0751 -0.0751 l -1.9e-4,-0.12675 -1.9e-4,-0.12675 -0.0422,0.0697 c -0.0569,0.094 -0.14949,0.1588 -0.26117,0.18275 -0.1029,0.0221 -0.11197,0.0221 -0.19829,0.002 z m 0.32774,-0.1847 c 0.0714,-0.0508 0.1553,-0.21351 0.1553,-0.30107 v -0.0648 l -0.12675,0.0114 c -0.18179,0.0164 -0.26665,0.0457 -0.33711,0.11611 -0.078,0.078 -0.0816,0.15197 -0.0116,0.23523 0.0475,0.0565 0.0561,0.0594 0.15614,0.0521 0.0694,-0.005 0.12585,-0.0219 0.16402,-0.0491 z m 1.94144,0.18482 c -0.0785,-0.0194 -0.15451,-0.0744 -0.1851,-0.13391 -0.0322,-0.0627 -0.0295,-0.2143 0.005,-0.28115 0.0652,-0.12605 0.26697,-0.22051 0.51395,-0.2406 l 0.14258,-0.0116 -0.003,-0.0991 c -0.004,-0.13644 -0.035,-0.20204 -0.11479,-0.23991 -0.087,-0.0413 -0.28091,-0.0292 -0.40396,0.0253 -0.0806,0.0357 -0.0889,0.0364 -0.0892,0.008 -1.9e-4,-0.0175 -0.005,-0.0502 -0.0112,-0.0727 -0.01,-0.0367 0.002,-0.045 0.1149,-0.0798 0.13652,-0.0422 0.34822,-0.0514 0.46074,-0.0202 0.0864,0.024 0.17818,0.12123 0.2039,0.21601 0.0118,0.0437 0.0204,0.25407 0.0205,0.5023 l 1.8e-4,0.42718 h -0.0862 -0.0862 l 0.006,-0.11298 0.006,-0.11298 -0.0632,0.0761 c -0.10527,0.12686 -0.2806,0.18792 -0.43211,0.15048 z m 0.27805,-0.15959 c 0.0795,-0.0411 0.14712,-0.13159 0.17923,-0.23969 0.0459,-0.1545 0.047,-0.15291 -0.10124,-0.14048 -0.27027,0.0227 -0.3959,0.0981 -0.3959,0.23766 0,0.11068 0.0623,0.17 0.17847,0.17 0.0475,0 0.1102,-0.0124 0.13944,-0.0275 z m -18.4659098,0.12077 c 0.007,-0.021 0.12852,-0.36954 0.27081,-0.77456 l 0.2587,-0.7364 0.16964,-0.005 0.16965,-0.005 0.0184,0.0523 c 0.0101,0.0288 0.13355,0.37462 0.27434,0.76855 0.1408,0.39394 0.256,0.72137 0.256,0.72762 0,0.006 -0.071,0.0114 -0.15787,0.0114 h -0.15786 l -0.0559,-0.15491 -0.0559,-0.15492 -0.29798,-0.005 -0.29797,-0.005 -0.0543,0.16005 -0.0543,0.16005 h -0.14868 c -0.14092,0 -0.14804,-0.002 -0.13656,-0.0382 z m 0.87936,-0.60496 c -0.0162,-0.0439 -0.066,-0.18955 -0.1107,-0.32368 -0.0447,-0.13413 -0.0849,-0.23131 -0.0895,-0.21594 -0.0122,0.0412 -0.18534,0.56851 -0.1957,0.59595 -0.007,0.0179 0.0423,0.0235 0.20825,0.0235 h 0.21711 z m 0.71964,0.6306 c -0.007,-0.007 -0.0125,-0.3564 -0.0125,-0.7767 v -0.76419 l 0.21351,-0.0131 c 0.36839,-0.0227 0.59573,0.0255 0.70442,0.14929 0.15874,0.1808 0.11495,0.50105 -0.0861,0.62952 -0.0496,0.0317 -0.11339,0.0624 -0.14179,0.0683 -0.0284,0.006 -0.0516,0.0184 -0.0516,0.0279 0,0.009 0.10562,0.16388 0.23471,0.34312 0.1291,0.17923 0.23472,0.33096 0.23472,0.33718 0,0.006 -0.0789,0.0113 -0.17534,0.0113 h -0.17533 l -0.2143,-0.31843 c -0.11786,-0.17514 -0.22063,-0.31878 -0.22837,-0.31921 -0.008,-4.4e-4 -0.0141,0.14286 -0.0141,0.31842 v 0.31922 h -0.1377 c -0.0757,0 -0.14334,-0.006 -0.15022,-0.0125 z m 0.51431,-0.87 c 0.13825,-0.0384 0.21343,-0.18135 0.16117,-0.30643 -0.0403,-0.0964 -0.10129,-0.12846 -0.25081,-0.13191 l -0.12737,-0.003 -0.005,0.23002 -0.005,0.23002 0.0804,-1.1e-4 c 0.0442,-5e-5 0.11044,-0.008 0.14717,-0.0187 z m 0.83921,0.86957 c -0.0306,-0.008 -0.0329,-0.0608 -0.0329,-0.77429 v -0.7657 l 0.26295,-0.0104 c 0.42183,-0.0167 0.6441,0.0291 0.80336,0.16538 0.1099,0.0941 0.19212,0.26965 0.20764,0.44341 0.0295,0.32977 -0.0384,0.56244 -0.21205,0.72664 -0.18622,0.17612 -0.3606,0.22838 -0.75207,0.22541 -0.13426,-0.001 -0.25889,-0.006 -0.27697,-0.0104 z m 0.65028,-0.27603 c 0.0876,-0.0367 0.17717,-0.11932 0.22369,-0.20629 0.0361,-0.0675 0.0414,-0.10634 0.0414,-0.30276 0,-0.19746 -0.005,-0.23507 -0.0421,-0.30405 -0.0815,-0.15242 -0.20813,-0.21233 -0.44894,-0.21233 h -0.1568 v 0.52446 0.52445 l 0.0422,0.009 c 0.0665,0.0145 0.27595,-0.006 0.34045,-0.0327 z m 1.51756,0.26644 c -0.0173,-0.0173 -0.0225,-0.73041 -0.0225,-3.09533 0,-2.95303 0.001,-3.0740105 0.0343,-3.1038805 0.0298,-0.0269 0.0896,-0.0311 0.45022,-0.0311 h 0.41589 l 0.0292,0.0446 c 0.0257,0.0392 0.0267,0.081001 0.009,0.3399005 -0.0182,0.26077 -0.0127,0.37148 0.0146,0.2946 0.005,-0.0138 0.0506,-0.0874 0.10158,-0.16357 0.26632,-0.39819 0.6958598,-0.5934505 1.2457398,-0.5662905 0.2487,0.0123 0.38166,0.0453 0.58659,0.14561 0.47014,0.2301305 0.73522,0.7253805 0.79273,1.4810005 0.051,0.67011 -0.0912,1.30395 -0.39134,1.74401 -0.28028,0.41099 -0.71712,0.67421 -1.27045,0.76552 -0.19936,0.0329 -0.6646098,0.0428 -0.8676398,0.0184 l -0.11736,-0.0141 v 1.05203 c 0,0.93135 -0.003,1.05541 -0.0295,1.08153 -0.0252,0.0252 -0.0967,0.0295 -0.49384,0.0295 -0.33611,0 -0.47055,-0.006 -0.48686,-0.0225 z m 1.8450198,-2.93546 c 0.35394,-0.0922 0.57948,-0.35014 0.6897,-0.78882 0.0371,-0.14779 0.0423,-0.21615 0.0424,-0.56256 1.3e-4,-0.43793 -0.0214,-0.58149 -0.11788,-0.78777 -0.1171,-0.25022 -0.2657,-0.35039 -0.53832,-0.36286 -0.24179,-0.0111 -0.35012,0.0322 -0.5263398,0.20999 -0.19176,0.19352 -0.29706,0.4168 -0.35603,0.75492 -0.0378,0.21681 -0.042,1.50882 -0.005,1.51072 0.0129,6.7e-4 0.0742,0.0126 0.13614,0.0266 0.15854,0.0357 0.5376698,0.0356 0.6751998,-2.1e-4 z m 0.25427,2.17722 v -0.78077 l 0.3333,0.006 c 0.31499,0.006 0.33784,0.009 0.41613,0.0532 0.10254,0.0581 0.15195,0.12304 0.1704,0.22391 0.0306,0.16714 -0.0604,0.34711 -0.20914,0.4137 l -0.0712,0.0319 0.10336,0.0428 c 0.0655,0.0272 0.12204,0.0673 0.1544,0.10975 0.046,0.0603 0.051,0.0822 0.051,0.22166 0,0.14197 -0.005,0.16145 -0.0569,0.23573 -0.0715,0.1017 -0.19505,0.1789 -0.32589,0.2036 -0.0556,0.0105 -0.20561,0.0191 -0.3333,0.0191 h -0.23215 z m 0.62698,0.58735 c 0.0949,-0.0531 0.14307,-0.11931 0.15583,-0.21441 0.0149,-0.11137 -0.0229,-0.20551 -0.10388,-0.25859 -0.0787,-0.0516 -0.27049,-0.0898 -0.40717,-0.0812 l -0.0934,0.006 -0.005,0.29458 -0.005,0.29458 0.0709,0.008 c 0.13473,0.016 0.31131,-0.006 0.38804,-0.0493 z m -0.0453,-0.73135 c 0.0455,-0.0232 0.0986,-0.0641 0.11802,-0.0908 0.0498,-0.0684 0.0612,-0.18258 0.0266,-0.26537 -0.0435,-0.10418 -0.11686,-0.13359 -0.35549,-0.14262 l -0.20185,-0.008 v 0.27435 0.27435 h 0.16501 c 0.13411,0 0.1805,-0.008 0.2477,-0.0423 z m 0.60126,0.35315 v -0.57378 h 0.0848 0.0848 l -0.005,0.56801 -0.005,0.56801 -0.0798,0.006 -0.0798,0.006 z m 0.46317,0.55911 c -0.007,-0.007 -0.0125,-0.38712 -0.0125,-0.84498 v -0.83245 h 0.0845 0.0845 v 0.84497 0.84498 h -0.072 c -0.0396,0 -0.0776,-0.006 -0.0845,-0.0125 z m 2.80407,-0.56019 v -0.5727 h 0.0838 0.0838 l -0.0102,0.12674 -0.0101,0.12675 0.0439,-0.0743 c 0.0241,-0.0409 0.0803,-0.0999 0.12471,-0.13113 0.0684,-0.0481 0.10197,-0.0579 0.21824,-0.0638 0.16715,-0.008 0.25319,0.0259 0.31527,0.12568 0.0409,0.0657 0.0428,0.0874 0.0484,0.55193 l 0.006,0.48352 h -0.0856 -0.0857 v -0.42309 c 0,-0.31936 -0.006,-0.43846 -0.0262,-0.48576 -0.0811,-0.19412 -0.3487,-0.15607 -0.47236,0.0672 -0.0553,0.0999 -0.0554,0.10037 -0.0615,0.47084 l -0.006,0.37085 h -0.0831 -0.0831 z m 3.2109,-0.27227 v -0.84497 h 0.0748 0.0748 l 0.005,0.52976 0.005,0.52976 0.21401,-0.25749 0.214,-0.25749 h 0.10246 0.10246 l -0.0536,0.0614 c -0.30407,0.3482 -0.38565,0.44441 -0.38574,0.45496 -6e-5,0.007 0.10634,0.14684 0.23644,0.31123 0.1301,0.16439 0.23654,0.30316 0.23654,0.30837 0,0.005 -0.046,0.009 -0.1023,0.009 h -0.1023 l -0.231,-0.30386 -0.23099,-0.30385 -0.005,0.30385 -0.005,0.30386 h -0.0746 -0.0747 z m 1.99039,0.27335 v -0.57378 h 0.086 0.086 l -0.0121,0.12674 -0.0121,0.12675 0.0436,-0.0743 c 0.024,-0.0409 0.08,-0.0999 0.12444,-0.13113 0.0684,-0.0481 0.10197,-0.0579 0.21824,-0.0638 0.16716,-0.008 0.2532,0.0259 0.31527,0.12568 0.0409,0.0658 0.0428,0.0874 0.0484,0.55307 l 0.006,0.48465 -0.081,-0.006 -0.081,-0.006 -0.009,-0.45693 -0.009,-0.45692 -0.0613,-0.0548 c -0.12596,-0.11247 -0.32518,-0.049 -0.42783,0.13631 -0.0548,0.099 -0.0555,0.10375 -0.0648,0.46614 l -0.009,0.36616 -0.0798,0.006 -0.0798,0.006 z m 2.27205,-0.27335 v -0.84497 h 0.0751 0.0751 v 0.84497 0.84498 h -0.0751 -0.0751 z m -10.74706,-0.5601 c -0.0418,-0.0462 -0.0392,-0.10777 0.006,-0.15343 0.0466,-0.0466 0.0959,-0.0478 0.15048,-0.004 0.0465,0.0377 0.0557,0.11834 0.0186,0.16311 -0.0326,0.0393 -0.13772,0.0356 -0.17552,-0.006 z m 6.31563,-0.66979 c -0.39821,-0.0803 -0.71449,-0.29778 -0.86215,-0.59281 -0.1127,-0.22517 -0.13998,-0.37893 -0.12761,-0.71941 0.0141,-0.38863 0.0917,-0.68493 0.30232,-1.15407 0.20227,-0.45065 0.43409,-0.78465 0.79053,-1.13896 0.47576,-0.4729205 0.90306,-0.6914605 1.35214,-0.6915705 0.22584,-6e-5 0.37565,0.0351 0.5821,0.13656 0.44768,0.2200405 0.78641,0.6801505 1.40696,1.9111405 0.2348,0.46578 0.47625,0.87059 0.58922,0.98788 0.10456,0.10854 0.20645,0.16098 0.33988,0.17493 0.20294,0.0212 0.198,0.009 0.20412,0.49782 0.007,0.54388 0.0216,0.51369 -0.25012,0.51235 -0.1613,-7.9e-4 -0.2342,-0.0103 -0.33723,-0.0438 -0.43115,-0.14049 -0.79899,-0.48199 -1.16507,-1.08164 -0.11469,-0.18784 -0.24459,-0.42453 -0.57207,-1.04227 -0.3205,-0.60456 -0.52552,-0.89082 -0.69169,-0.96575 -0.0969,-0.0437 -0.20886,-0.0287 -0.3536,0.0475 -0.33265,0.17498 -0.68053,0.5909 -0.96439,1.15301 -0.27039,0.53541 -0.30377,0.84127 -0.10466,0.95895 0.0769,0.0455 0.26812,0.0453 0.40586,-4.4e-4 0.28515,-0.0946 0.48194,-0.22872 0.81935,-0.55837 0.24037,-0.23483 0.27173,-0.25931 0.33218,-0.25931 0.0762,0 0.0865,0.0108 0.40541,0.42249 0.22947,0.29626 0.23442,0.31917 0.10015,0.4639 -0.13531,0.14586 -0.48182,0.43688 -0.67049,0.56314 -0.53665,0.3591 -1.08439,0.50893 -1.53114,0.41882 z m -17.0040498,-0.0305 c -0.27899001,-0.0402 -0.57298001,-0.18301 -0.75329001,-0.36593 -0.20736,-0.21038 -0.30636000436,-0.49049 -0.30636000436,-0.8668 0,-0.26806 0.0410000044,-0.50322 0.14004000436,-0.80233 0.21624,-0.65341 0.50017,-1.12098 0.95778001,-1.57729 0.70396,-0.7019605 1.38818,-0.8791905 2.0087,-0.5203005 0.15767,0.0912 0.44497,0.3868205 0.60077,0.6181705 0.071,0.10547 0.13517,0.18803 0.14255,0.18347 0.007,-0.005 0.14475,-0.17957 0.30527,-0.38892 0.16052,-0.20935 0.31437,-0.4017505 0.3419,-0.4275705 l 0.05,-0.0469 0.5209,-0.006 c 0.32225,-0.003 0.5401,0.002 0.57123,0.0136 0.0411,0.0156 0.0503,0.0309 0.0503,0.0839 0,0.091601 -0.0732,0.1937905 -0.72081,1.0065105 -0.30861,0.38728 -0.56918,0.71438 -0.57904,0.72688 -0.0193,0.0244 0.0798,0.22041 0.3017,0.59692 0.3288,0.55792 0.45463,0.68367 0.71388,0.7134 0.19515,0.0224 0.19038,0.009 0.19038,0.51651 0,0.53932 0.0116,0.51722 -0.26252,0.50212 -0.45775,-0.0252 -0.86304,-0.28196 -1.24769,-0.79035 -0.12943,-0.17107 -0.3769,-0.55485 -0.41262,-0.63991 -0.005,-0.0111 -0.095,0.0728 -0.2007,0.18644 -0.54279,0.58315 -0.87829,0.85488 -1.32209,1.07078 -0.39512,0.19223 -0.75178,0.26196 -1.09034,0.21319 z m 0.50414,-1.06941 c 0.30003,-0.10002 0.59616,-0.30463 0.95016,-0.65648 0.22538,-0.22402 0.62029,-0.66647 0.63747,-0.71421 0.0102,-0.0284 -0.21932,-0.39977 -0.34629,-0.56034 -0.15417,-0.19497 -0.25203,-0.25482 -0.39289,-0.24029 -0.32096,0.0331 -0.75479,0.45921 -1.09378,1.07423 -0.32699001,0.59325 -0.39150001,0.97406 -0.18622,1.09922 0.0827,0.0505 0.27669,0.0495 0.43155,-0.002 z m 4.86875,1.00462 c -0.0266,-0.0266 -0.0295,-0.33161 -0.0295,-3.07717 0,-2.5613505 0.004,-3.0510805 0.0258,-3.0690705 0.0182,-0.0151 0.16651,-0.0199 0.5023,-0.0164 l 0.4765,0.005 0.005,3.0680905 c 0.003,2.25202 -8.7e-4,3.07486 -0.0164,3.09355 -0.0167,0.0202 -0.11628,0.0255 -0.47754,0.0255 -0.38987,0 -0.4607,-0.004 -0.48591,-0.0295 z m 6.5002798,0.009 c -0.0311,-0.0181 -0.0329,-0.18447 -0.0329,-3.07514 0,-2.3518505 0.005,-3.0611905 0.0225,-3.0785305 0.0357,-0.0357 0.94168,-0.0317 0.97156,0.004 0.0358,0.0431 0.0162,2.4932905 -0.0213,2.6629905 -0.0344,0.1556 -0.0104,0.16598 0.0694,0.03 0.12662,-0.21573 0.40388,-0.44302 0.66821,-0.5477605 0.32318,-0.12807 0.80126,-0.13957 1.10623,-0.0266 0.3925,0.1453905 0.61447,0.4644305 0.67557,0.9710205 0.0115,0.0953 0.0192,0.72791 0.0192,1.57781 0,1.25363 -0.003,1.42354 -0.0292,1.46042 -0.0288,0.0412 -0.0352,0.0417 -0.48714,0.0417 -0.45191,0 -0.4583,-5.5e-4 -0.48715,-0.0417 -0.0258,-0.0368 -0.0292,-0.20146 -0.0292,-1.40435 0,-1.48883 -0.001,-1.50586 -0.10843,-1.65988 -0.0626,-0.0899 -0.1573,-0.14103 -0.29573,-0.15981 -0.24523,-0.0333 -0.45571,0.047 -0.65687,0.25041 -0.22198,0.22452 -0.3504,0.53098 -0.38466,0.91799 -0.0102,0.11564 -0.0187,0.62472 -0.0188,1.13128 -1.1e-4,0.69114 -0.006,0.92665 -0.0227,0.94356 -0.0289,0.0289 -0.90923,0.031 -0.95858,0.002 z m 9.37453,-3.95055 c -0.52569,-0.1165505 -0.93625,-0.5126905 -1.08177,-1.0437805 -0.0446,-0.16293 -0.0455,-0.50769 -0.002,-0.67489 0.10278,-0.39221 0.38269,-0.74212 0.73609,-0.92018 0.23435,-0.11808 0.42072,-0.15698 0.69418,-0.14489 0.24856,0.011 0.36121,0.0387 0.56447,0.13906 0.27561,0.13601 0.49827,0.36343 0.64007,0.65374 0.37747,0.77281 -0.0317,1.70007 -0.86597,1.9622705 -0.17051,0.0536 -0.50906,0.0677 -0.68537,0.0287 z m 0.65721,-0.2163305 c 0.48679,-0.16149 0.81694,-0.59389 0.84076,-1.10116 0.0265,-0.56337 -0.28841,-1.03019 -0.82509,-1.22325 -0.12175,-0.0438 -0.16603,-0.0496 -0.38183,-0.05 -0.21856,-4e-4 -0.25939,0.005 -0.39016,0.0509 -0.38638,0.13591 -0.69085,0.45775 -0.79456,0.83993 -0.0214,0.079 -0.0334,0.19166 -0.0339,0.31921 -0.001,0.34605 0.11226,0.61622 0.36407,0.86602 0.16344,0.16214 0.37243,0.27934 0.58225,0.32654 0.17103,0.0385 0.47837,0.0249 0.63843,-0.0282 z m -0.75109,-0.78724 c 0,-0.30717 -0.007,-0.52733 -0.0172,-0.52733 -0.009,0 -0.11157,0.0338 -0.22689,0.0751 -0.11531,0.0413 -0.21319,0.0751 -0.21749,0.0751 -0.004,0 -0.008,-0.0739 -0.008,-0.1643 l 2.3e-4,-0.1643 0.68045,-0.24277 c 0.37424,-0.13352 0.69101,-0.24639 0.70392,-0.25081 0.0185,-0.006 0.0234,0.14043 0.0233,0.69342 l -1.8e-4,0.70147 -0.45202,0.1596 c -0.24861,0.0878 -0.45979,0.16243 -0.46928,0.16587 -0.0102,0.004 -0.0172,-0.20844 -0.0172,-0.52107 z"
       fill="#44739e" />
</svg>
