<?xml version="1.0" encoding="UTF-8"?>
<svg width="24px" fill="#44739e" height="24px" viewBox="0 0 144 144" version="1.1" xmlns="http://www.w3.org/2000/svg" xmlns:xlink="http://www.w3.org/1999/xlink">
            <path d="M75,111H89a15.7,15.7,0,0,1,1,5c-8.786,2.951-24.337,1.083-35,1a15.7,15.7,0,0,1-1-5c3.609-1.24,9.883-1.071,15-1v-7c-10.8-2.952-29.6-26-38-34-0.347-4.471-1.674-6.905,0-11,2.261-5.53,7.474-8.584,12-12,10.549-7.962,14.406-23.088,33-23,10.441,9.91,36.7,25.057,38,42-1.128,1.512-.88,4.258-2,6-4.417,6.873-19.431,18.5-26,25C81.132,101.82,75.3,101.157,75,111ZM66,44c-5.877,4.464-12.449,5.085-14,14-3.482,4.975-.387,11.543,1,17,11.427,7.824,11.534,10.326,29,8,2.943-3.725,7.218-4.957,9-10,4.112-5.079,1.945-11.547,1-18C83.712,48.437,82.336,43.818,66,44Zm5,5c9.279,1.668,10.824,4.793,16,10a43.915,43.915,0,0,1-2,14c-9.581,6.356-11.077,6.289-23,3-2.257-3.29-8.248-10.666-4-17,1.585-5.075,4.8-5.793,8-9C68.532,49.926,69.716,49.88,71,49Zm-1,6c-1.073.752-.946,0.6-3,1-1.283,2.072-2.077,2.3-3,5-1.049,1.549-1.031,4.085-1,7,4.109,2.77,4.635,4.862,12,5,3.8-3.819,6.031-3.8,6-12-1.514-1.411-2.209-2.764-4-4C75.105,55.479,73.411,55.211,70,55Z"/>

</svg>