<svg xmlns="http://www.w3.org/2000/svg" width="24" height="24" viewBox="0 0 24 24">
  <path id="Colore_riempimento_1" fill="#44739e" data-name="Colore riempimento 1" class="cls-1" d="M 12,11.648 A 3.157,3.157 0 1 0 8.8430001,8.492 3.157,3.157 0 0 0 12,11.648 Z m 0,-4.96 a 1.8,1.8 0 1 1 -1.8,1.8 1.8,1.8 0 0 1 1.8,-1.8 z M 12,2 V 2 A 6.958,6.958 0 0 0 5.0420001,8.958 v 6.084 A 6.958,6.958 0 0 0 12,22 v 0 a 6.958,6.958 0 0 0 6.958,-6.958 V 8.958 A 6.958,6.958 0 0 0 12,2 Z m 0,2.3 A 4.188,4.188 0 1 1 7.8120001,8.492 4.188,4.188 0 0 1 12,4.3 Z M 6.2880001,15.073 H 17.712 c 0.109,7.904 -11.5349999,7.902 -11.4239999,0 z"/>
</svg>
