<svg xmlns="http://www.w3.org/2000/svg" width="32" height="32" viewBox="0 0 108 108">
    <style>path{fill:#000}@media (prefers-color-scheme:dark){path{fill:#fff}}</style>
  <path id="Colore_riempimento_1" data-name="Colore riempimento 1" class="cls-1" d="M19,25H75c12.308,0,23.506.542,26,10,3.442,3.337,2.011,19.942,2,27,0,3.171.515,7.327-1,9-0.361,1.723-3.088,7.284-4,8H96l-1,2c-1.8,1.17-2.242.012-4,2H37c-4.6,0-17.677,1.037-20-1-1.723-.362-7.283-3.088-8-4V76L7,75c-1.17-1.8-.012-2.242-2-4V38H6l1-5,5-4V28h2V27l5-1V25Zm-7,8-1,3H10v2H9V70h1l1,4,7,5h6c4.635,0.037,18.727,1.031,21-1-9.362-2.322-12.592-21.226-9-33l1-8c1.532-3.327,5.763-5.349,8-8H19v1H17v1H15v1Zm39-3v2h6V30C53.285,29.406,54.711,29.42,51,30Zm45,3c-3.165-.8-4.731-3.179-7-4H63v1h2l4,5h1l1,4h1c0.882,2.327,2.041,21.479,1,25H72v5H71l-1,4-7,6H90c1.165-1.361,1.825-1.528,4-2l5-7V38H98V36H97ZM49,34c-3.233,3.74-7.21,3.267-8,10-2.79,3.054-.435,20.114,0,24,2.452,1.531,1.537,2.849,3,4h2v1c1.228,0.969,1.94.706,3,2H59V74l4-1,5-7c1.044-2.913-.05-21.94-1-23-1.375-5.666-5.026-5.5-8-9H49Zm4,1c5.615,0.831,10.719,2.779,12,8,2.928,2.922,2.876,20.057,0,23a7.536,7.536,0,0,1-6,6c-3.345,3.54-7.922.915-12,0l-5-6c-0.39-5.633-2.626-19.085,1-23,1.018-4,3.807-4.38,6-7h4V35Zm-1,4v1H49v1l-2,1v2H46a40.145,40.145,0,0,0,1,9c4.478,2.261,11.958,5.518,14-2h1V44c-1.3-1.048-1.489-2.043-3-3V40Zm-1,2h6c2.5,3.75,5.945,5.3,2,10-1.8,2.144-.308.752-3,2v1c-4.775,1.554-10.7-4.582-8-10A22.951,22.951,0,0,0,51,41Zm2,2c-2.672,3.265-2.914.388-3,7a7.485,7.485,0,0,1,3,2c2.01-.574.865,0.12,2-1,3.4-.88,3.065-1.861,3-6C56.124,44.177,55.384,43.519,53,43ZM49,69v2H59V69H49Z"/>
</svg>
