<svg xmlns="http://www.w3.org/2000/svg" width="24" height="24" viewBox="0 0 24 24">
  <path id="Colore_riempimento_1" fill="#44739e" data-name="Colore riempimento 1" class="cls-1" d="m 12,3.863 a 2,2 0 1 0 2,2 2,2 0 0 0 -2,-2 z m 0,3 a 1,1 0 1 1 1,-1 1,1 0 0 1 -1,1 z M 12,2 A 3.542,3.542 0 0 0 8.458,5.542 v 12.916 a 3.542,3.542 0 0 0 7.084,0 V 5.542 A 3.542,3.542 0 0 0 12,2 Z m 0,19.053 a 2.5,2.5 0 1 1 2.5,-2.5 2.5,2.5 0 0 1 -2.5,2.5 z M 12,8.69 A 2.827,2.827 0 1 1 14.827,5.863 2.827,2.827 0 0 1 12,8.69 Z"/>
</svg>
