<svg xmlns="http://www.w3.org/2000/svg" width="31.997" height="31.997" viewBox="0 0 144 144">
    <style>path{fill:#000}@media (prefers-color-scheme:dark){path{fill:#fff}}</style>
  <path id="Colore_riempimento_1" data-name="Colore riempimento 1" class="cls-1" d="M75,102v12H95a15.7,15.7,0,0,1,1,5c-11.97,4-32.952,1.085-47,1a15.7,15.7,0,0,1-1-5c5.123-1.742,14.248-1.078,21-1V102C45.911,99.656,42,83.171,42,57c0-9.1-.46-18.2,3-24,4.057-6.806,12.27-12.885,21-15,17.739-4.3,31.547,9.373,35,20,2,6.157,1,15.364,1,23V78C98.709,90.8,89.605,100.47,75,102Zm2-76c-0.372-2.076-.242-1.924-1-3-1.69-1.142-4.9-1.066-8-1-0.788,1.725-2.627,1.84-1,3C68.992,26.337,73.507,26.1,77,26ZM67,32c-1.073.752-.946,0.6-3,1-1.807,2.718-3.777,3.544-5,7-3.376,4.11-1.209,9.367,0,14,2.389,1.556,2.924,2.923,6,4,4.377,3.6,11.183,1.249,16,0,3.371-5.051,5.954-6.92,6-16-3.1-3.193-5.985-6.788-9-10H67Zm2,3,9,1c1.556,2.389,2.923,2.924,4,6,1.049,1.549,1.031,4.085,1,7-2.089,2.143-4.01,4.818-6,7-4.527.329-6.728,1.39-10-1-4.4-1.43-8.679-9.248-5-15Zm0,4c-2.379,3.549-3.857,3.586-4,10,3.049,1.913,4.245,3.35,9,4,3.245-3.292,4.91-3.032,5-10-0.8-1.021-.355-0.274-1-2C74.7,40.027,73.873,39.15,69,39ZM47,65l-1,3H98V66H97V65H47ZM64,88v2H80V88H64Z"/>
</svg>
