<svg xmlns="http://www.w3.org/2000/svg" width="24" height="24" viewBox="0 0 24 24">
  <path id="Colore_riempimento_1" fill="#44739e" data-name="Colore riempimento 1" class="cls-1" d="M 17.9,5.729 H 6.1 A 4.1,4.1 0 0 0 2,9.826 v 4.344 a 4.1,4.1 0 0 0 4.1,4.1 H 17.9 A 4.1,4.1 0 0 0 22,14.17 V 9.826 A 4.1,4.1 0 0 0 17.9,5.729 Z m -6.631,0.75 h 1.462 a 0.1,0.1 0 0 1 0.1,0.1 0.1,0.1 0 0 1 -0.1,0.1 h -1.462 a 0.1,0.1 0 1 1 0,-0.2 z m -2.751,7.037 v -3.04 a 3.482,3.482 0 1 1 6.964,0 v 3.045 A 3.485,3.485 0 0 1 12,17 v 0 A 3.485,3.485 0 0 1 8.518,13.516 Z M 6.1,17.679 A 3.514,3.514 0 0 1 2.588,14.17 V 9.826 A 3.512,3.512 0 0 1 6.1,6.318 h 5.065 a 4.118,4.118 0 0 0 -3.279,4.031 v 3.529 a 4.12,4.12 0 0 0 2.532,3.8 z m 6.637,-0.08 h -1.473 a 0.1,0.1 0 0 1 0,-0.2 h 1.462 a 0.1,0.1 0 0 1 0.108,0.092 V 17.5 a 0.1,0.1 0 0 1 -0.097,0.1 z M 17.9,17.68 h -4.314 a 4.12,4.12 0 0 0 2.532,-3.8 V 10.349 A 4.118,4.118 0 0 0 12.84,6.318 h 5.06 a 3.512,3.512 0 0 1 3.508,3.508 V 14.17 A 3.514,3.514 0 0 1 17.9,17.68 Z M 12,9.026 c -1.960127,0 -2.941407,2.369705 -1.555556,3.755556 C 11.830295,14.167407 14.2,13.186127 14.2,11.226 c 0,-1.215026 -0.984974,-2.2 -2.2,-2.2 z m 1.328275,2.349701 -0.01199,0.251494 c -0.05445,1.1423 -2.692188,1.636773 -2.707538,-0.397709 -0.01201,-1.5913407 2.702869,-2.1974631 2.707538,-0.09231 z M 15.188,13.524 v -3.048 a 3.188,3.188 0 0 0 -6.376,0 v 3.045 a 3.188,3.188 0 1 0 6.376,0 z M 12,13.818 a 2.6,2.6 0 1 1 2.6,-2.6 v 0 h 0.005 A 2.6,2.6 0 0 1 12,13.818 Z"/>
</svg>
