<svg xmlns="http://www.w3.org/2000/svg" width="31.997" height="31.997" viewBox="0 0 144 144">
    <style>path{fill:#000}@media (prefers-color-scheme:dark){path{fill:#fff}}</style>
  <path id="Colore_riempimento_1" data-name="Colore riempimento 1" class="cls-1" d="M64,4c28.057-.483,44.713,9.24,52,29,3.221,8.734,2,21.632,2,33,0,41.429-4.854,62.372-38,70-25.365,5.837-46.526-14.168-52-29-3.55-9.618-2-24.568-2-37,0-12.388-1.6-27.441,2-37C32.444,21.2,43.164,10.4,55,6,58.3,4.773,61.5,5.608,64,4Zm3,16c-10.349,6.85-19.421,7.41-24,20C35.992,59.267,56.268,83.218,75,79,112.5,70.556,111.005,18.882,67,20Zm0,8c32.538-1.161,35.006,37.309,10,44C62.5,75.881,45.778,59.607,50,45,52.8,35.311,59.865,33.33,67,28Zm1,8c-5.866,5.423-10.133,6.006-10,18,3.372,3.467,6.534,6.627,10,10h8c3.467-3.372,6.627-6.534,10-10V46c-3.372-3.467-6.534-6.627-10-10H68ZM34,88c-0.742,52.571,76.728,52.584,76,0H34Z"/>
</svg>
