<svg xmlns="http://www.w3.org/2000/svg" viewBox="0 0 24 24"><path fill="#44739e" d="M16.829 11.765H12.92v3.868h-1.589v-3.868H7.133a5.65 5.65 0 0 0-1.637 3.981v1.756h13.008v-1.686a5.72 5.72 0 0 0-1.675-4.051m-11.261 6.45a.07.07 0 0 0-.07.07A3.715 3.715 0 0 0 9.213 22h5.576a3.715 3.715 0 0 0 3.715-3.715.07.07 0 0 0-.069-.07Zm8.27-10.866a1.84 1.84 0 0 1-1.837 1.837 1.84 1.84 0 0 1-1.837-1.837 1.84 1.84 0 0 1 1.837-1.838 1.84 1.84 0 0 1 1.837 1.838m2.116 3.799a5.3 5.3 0 0 0 1.558-3.741 5.512 5.512 0 0 0-11.022 0 5.3 5.3 0 0 0 1.558 3.746Zm-3.953-6.784a2.985 2.985 0 1 1-2.985 2.985 2.985 2.985 0 0 1 2.985-2.985"/></svg>