<svg xmlns="http://www.w3.org/2000/svg" width="24" height="24" viewBox="0 0 24 24">
  <path id="Colore_riempimento_1" fill="#44739e" data-name="Colore riempimento 1" class="cls-1" d="M 12,6.056 A 3.734,3.734 0 1 0 15.734,9.79 3.734,3.734 0 0 0 12,6.056 Z m 0,6.223 A 2.49,2.49 0 1 1 14.489,9.79 2.489,2.489 0 0 1 12,12.279 Z M 12,2 A 7,7 0 0 0 5,9 v 6 a 7,7 0 0 0 14,0 V 9 A 7,7 0 0 0 12,2 Z M 9.355,3.161 h 5.289 a 0.37,0.37 0 1 1 0,0.74 H 9.355 a 0.37,0.37 0 1 1 0,-0.74 z m 5.289,16.953 H 9.355 a 0.371,0.371 0 0 1 0,-0.741 h 5.289 a 0.371,0.371 0 1 1 0,0.741 z M 12,14.217 A 4.428,4.428 0 1 1 16.428,9.79 4.428,4.428 0 0 1 12,14.217 Z"/>
</svg>
