<svg xmlns="http://www.w3.org/2000/svg" width="31.997" height="31.997" viewBox="0 0 144 144">
  <path id="Colore_riempimento_1" fill="#44739e" data-name="Colore riempimento 1" class="cls-1" d="M67,12c12.162-.177,16.136,2.053,22,8l3,2c5.52,8.244,4,24.33,4,38v53H95v3H94l-2,6-5,4-1,2-6,2v1H77v1c-4.2,1.327-12.758-.833-15-2v-1l-4-1-1-2-5-4-2-6H49v-3H48V31h1V28h1l2-6,5-4,1-2h2V15h2V14l5-1V12Zm1,6v1H65v1H63v1c-3.123,1.8-4.983,2.08-6,6-2.217,1.86-.951,2.1-2,5-2.368,6.547.731,9.647,2,15,4.2,2.522,10,9.9,19,7,2.218-.716,4.218-2.375,7-3,2.522-4.2,9.9-10,7-19-0.716-2.218-2.375-4.218-3-7l-4-3V21H81V20C77.462,18.1,73.386,18.005,68,18Zm1,6,9,1c3.158,5.321,5.941,4.6,6,14H83v3l-5,4c-1.892,1.957-5.046,2.047-9,2V47H66l-4-5c-1.957-1.892-2.047-5.046-2-9h1V30l2-1V28l2-1,1-2h3V24Zm1,6c-1.72,2.135-2.033.566-3,4-3.272,3.156,2.3,9.839,7,8V41h2l1-3c1.72-3.186.84-6.106-3-7V30H70ZM68,93c-1.78,1.976-1.975.837-4,2v1H62v1c-2.721,2.365-.275.033-2,3H59c-1.824,3.307-2.05,6.737-2,12,1.976,1.78.837,1.975,2,4h1v2h1c2.365,2.722.033,0.275,3,2v1c3.307,1.824,6.737,2.05,12,2,1.78-1.976,1.975-.837,4-2v-1h2v-1h1l1-3h1c1.824-3.307,2.05-6.737,2-12-2.08-1.8-2.207-5.2-4-7s-5.2-1.925-7-4H68Z"/>
</svg>
