<svg xmlns="http://www.w3.org/2000/svg" width="24" height="24" viewBox="0 0 24 24">
  <path id="Colore_riempimento_1" fill="#44739e" data-name="Colore riempimento 1" class="cls-1" d="M 12.035,11.292 A 2.835,2.835 0 1 0 9.2,8.457 2.835,2.835 0 0 0 12.035,11.292 Z M 12,2 A 6.958,6.958 0 0 0 5.042,8.958 v 6.084 a 6.958,6.958 0 1 0 13.916,0 V 8.958 A 6.958,6.958 0 0 0 12,2 Z m 0,2.3 v 0 A 4.188,4.188 0 1 1 7.812,8.492 4.188,4.188 0 0 1 12,4.3 Z M 6.288,15.073 h 11.424 c 0.109,7.904 -11.535,7.902 -11.424,0 z"/>
</svg>
