<svg xmlns="http://www.w3.org/2000/svg" width="32" height="32" viewBox="0 0 108 108">
  <path id="Colore_riempimento_1" fill="#44739e" data-name="Colore riempimento 1" class="cls-1" d="M48,18H60v1h3v1l6,2,1,2,5,4,1,4h1c2.167,4.991,2,11.962,2,19V69H78l-1,7H76l-1,4-2,1-4,5-6,2v1H60v1c-3.128.987-13.084-.162-15-1V88H43V87l-4-1-1-2-5-4c-3.811-5.722-6.432-35.534-3-45h1V32h1l1-4,2-1,4-5h2V21h2V20l5-1V18Zm13,7V23H47v1h1C50.05,25.885,57.224,25.1,61,25ZM51,31v1l-5,1v1H44l-2,3H41v2l-2,1L38,51h1l1,5,5,4v1c3.36,2.234,8.367,2.028,14,2,3.042-3.4,7.566-3.538,9-9,2.236-2.172,2.1-6.476,2-11H69V40l-2-1c-1.882-2.8-1.189-4-5-5C59.8,31.43,55.848,30.961,51,31Zm-1,3,11,1,6,7c0.375,10.415-1.441,17.68-11,18-2.038,1.829-4.541.282-8,0-1.539-2.443-1.217-.621-3-2l-1-2H43c-1.142-1.6,0-2.3-2-4a60.674,60.674,0,0,1,1-12l5-4V35h3V34Zm2,5c-2.247,2.5-3.836.96-5,5-3.532,3.589.949,8.486,3,10v1h8c3.488-5.815,4.692-4.221,3-13C57.866,40.582,56.606,39.248,52,39Zm9,44V81c-4.806-.092-10.692-0.248-14,1v1H61Z"/>
</svg>
