<svg role="img" viewBox="0 0 24 24" xmlns="http://www.w3.org/2000/svg"><title>arte</title>
    <path
       d="m 14.258738,14.908104 c -0.44213,-0.0435 -0.67087,-0.14862 -0.85469,-0.39262 -0.1109,-0.1472 -0.14495,-0.24049 -0.16703,-0.45755 -0.0197,-0.19416 -0.055,-1.52623 -0.0559,-2.11601 l -4.9e-4,-0.29532 h -0.47815 -0.47814 v -0.75941 -0.7594 h 0.47814 0.47815 v -0.5250201 -0.52502 h 1.20942 1.20942 v 0.52502 0.5250201 h 0.69378 0.69378 v 0.7594 0.75941 h -0.69378 -0.69378 v 1.61171 1.61172 l -0.0609,0.0103 c -0.23347,0.0396 -0.99247,0.056 -1.27974,0.0277 z m -13.8892497,-0.0562 c -0.29324,-0.15483 -0.44302,-0.6289 -0.33371,-1.05628 0.0602,-0.23531 0.15257,-0.39095 0.34626,-0.58332 0.13979,-0.13885 0.20314,-0.18587 0.35742,-0.26527 0.41006,-0.21106 0.76715,-0.29901 1.81882,-0.44798 0.56873,-0.0806 1.18931,-0.20277 1.30061,-0.25611 0.0991,-0.0475 0.1517,-0.14692 0.15185,-0.28694 2.9e-4,-0.26179 -0.26161,-0.42241 -0.68738,-0.42157 -0.28638,5.7e-4 -0.52946,0.0755 -0.64678,0.1995 -0.0707,0.0747 -0.12678,0.20768 -0.12726,0.30176 l -4.2e-4,0.0797 -0.29532,2e-5 c -0.16243,1e-5 -0.6826,0.006 -1.15594,0.0125 l -0.86062,0.0125 0.0131,-0.11564 c 0.0479,-0.42329 0.27143,-0.87787 0.58966,-1.19911 0.40867,-0.41254 1.00923,-0.65625 1.90603,-0.77347 0.39202,-0.0512 0.95596,-0.0678 1.28442,-0.0378 1.30519,0.11941 2.18156,0.62923 2.34391,1.36354 0.0348,0.15739 0.0367,0.24892 0.037,1.83913 l 4.1e-4,1.67351 h -1.19068 -1.19067 v -0.66565 c 0,-0.36611 -0.005,-0.66565 -0.0108,-0.66565 -0.0308,0 -0.56295,0.16132 -0.73626,0.22319 -0.24516,0.0875 -0.35367,0.14177 -0.50184,0.25094 -0.12826,0.0945 -0.21364,0.23434 -0.21361,0.34989 2e-5,0.098 0.0977,0.2876 0.20843,0.40471 l 0.097,0.10257 -1.21683,-8.3e-4 c -1.17357,-8e-4 -1.21932,-0.002 -1.28679,-0.0378 z m 7.22336,-2.33338 v -2.37197 h 1.12505 1.12504 l 6e-4,0.2672 5.9e-4,0.2672 0.0411,-0.0563 c 0.2855397,-0.39109 0.7074397,-0.59456 1.2327897,-0.59454 0.17024,1e-5 0.25233,0.01 0.38992,0.0465 0.0959,0.0256 0.17718,0.0497 0.18073,0.0535 0.004,0.004 0.0126,0.34554 0.0201,0.75935 l 0.0137,0.75238 -0.45692,0.01 c -0.3267,0.007 -0.49043,0.0184 -0.57447,0.0397 -0.30905,0.0782 -0.53027,0.28057 -0.6169,0.5644 -0.0321,0.10502 -0.034,0.19633 -0.0294,1.37349 l 0.005,1.26099 h -1.2284697 -1.22848 z m 10.3667797,2.30259 c -0.13213,-0.13843 -0.37556,-0.59565 -0.47465,-0.89152 -0.10801,-0.32249 -0.13072,-0.49362 -0.13128,-0.98918 -5e-4,-0.43972 0.002,-0.46896 0.0524,-0.68293 0.13346,-0.56352 0.33357,-0.94804 0.67819,-1.30318 0.37649,-0.38799 0.83614,-0.63751 1.4652,-0.7954 0.39911,-0.10016 0.67932,-0.13201 1.16886,-0.13283 0.4756,-8e-4 0.68493,0.0239 1.09738,0.12964 0.64393,0.16504 1.12571,0.44132 1.4844,0.85125 0.37525,0.42885 0.58187,0.89931 0.6721,1.53031 0.0274,0.19154 0.0381,0.94556 0.0155,1.08286 l -0.0116,0.0703 h -2.08826 -2.08825 v 0.59065 0.59065 l -0.84847,2.5e-4 c -0.46666,1.5e-4 -0.86535,0.005 -0.88597,0.0103 -0.0267,0.007 -0.0571,-0.0104 -0.10552,-0.0612 z m 3.67753,-2.43583 c 0,-0.0742 -0.0542,-0.26768 -0.10518,-0.37558 -0.14062,-0.29746 -0.38763,-0.44886 -0.76687,-0.47004 -0.24208,-0.0135 -0.42512,0.0174 -0.58927,0.0995 -0.25728,0.12871 -0.40072,0.3553 -0.44094,0.69653 l -0.0116,0.0984 h 0.95694 0.95693 z"
       fill="#44739e" />
</svg>
