<svg xmlns="http://www.w3.org/2000/svg" viewBox="0 0 24 24"><path fill="#44739e" d="M14.847 2.969c-1.853.186-3.732.229-5.591.344-1.031.064-2.187.287-3.214.189-.539-.052-1.063-.351-1.595-.456-.017-.234-.298-.49-.472-.208-.117.191-.067.583-.068.802-.57.011-.496.435-.507.881-.02.843-.051 1.687-.077 2.531-.021.671-.064 1.343-.065 2.014 0 .202-.086.549.075.706.212.206.754.033 1.024.068.124.016.17.183.299.226.357.12.749.151 1.1.285.286.108.154.407.313.588.098.111.399.053.535.053.008.459-.514.468-.903.589q-.93.29-1.86.584c-.291.092-.663.153-.89.371-.578.557-.116 1.724.692 1.723.343-.001.689-.242.991-.383a93 93 0 0 0 2.113-1.024c.244 1.628.221 3.297.429 4.931-1.056.105-2.108.33-3.159.485-.353.053-1.02.027-1.316.23-.158.109-.118.375-.108.539.025.39-.166 1.544.163 1.799.295.228 1.073.107 1.437.138.001.628 1.112.659 1.134.066 2.83.163 5.685.437 8.519.474.005.651 1.155.648 1.155-.011 1.23-.198 2.458-.641 3.665-.951.169-.043.43-.169.602-.141.281.045.498.276.817.1.163-.09.077-.267.189-.361.277-.231.86-.067 1.082-.388.14-.204.062-.619.062-.857 0-.73-.011-1.46-.011-2.19 0-2.81-.055-5.62-.055-8.43 0-.694-.026-1.387-.033-2.08-.003-.267.073-.67-.051-.914-.086-.169-.294-.208-.456-.275.027-.181.078-.597-.092-.718-.145-.103-.238.056-.373.031-.256-.048-.525-.206-.767-.301-1.089-.427-2.166-.886-3.258-1.306-.263-.102-.651-.184-.871-.361-.144-.115-.097-.435-.394-.345-.292.088-.209.717-.21.953m5.305 1.508c-1.647-.017-3.211-1.022-4.777-1.53l.011-.385c1.016.306 2.009.796 2.994 1.192.561.225 1.267.392 1.772.723m-4.876-1.343.011.011c-.199 2.123.078 4.297-.165 6.416-2.773 0-5.547.066-8.32.066-.781 0-1.563.022-2.344.022-.269 0-.713.087-.962-.011-.177-.069-.031-1.081-.029-1.265.014-1.137.037-2.288.106-3.423.013-.205-.087-.963.091-1.083.187-.127.648-.063.871-.078.77-.052 1.54-.095 2.311-.14 2.782-.161 5.67-.136 8.43-.515m3.28 17.246c-.101-.691-.007-1.426-.047-2.124-.109-1.911-.202-3.823-.303-5.734-.034-.642-.08-1.284-.101-1.926-.01-.295.012-.656-.223-.875-.201-.188-.451-.137-.702-.154-.618-.041-1.251-.006-1.871-.006.095-2.088-.136-4.317.165-6.383 1.388.505 2.762 1.054 4.139 1.587.339.131 1.284.309 1.485.61.122.183.044.697.044.918.003.788.02 1.577.023 2.366.009 2.67.054 5.341.054 8.012 0 .672-.037 1.355.004 2.025.014.232.098.738-.021.941-.091.155-.522.194-.687.235-.654.165-1.306.34-1.959.508M4.447 3.233c.325.118.683.234 1.023.297v.011l-1.045.066Zm9.279.857c-.28.049.205.63.382.601.279-.046-.209-.631-.382-.601m.263.078v.023c.141.114.359.141.426.33.08.224-.155.517-.393.402-.18-.086-.175-.318-.32-.446-.005.112-.015.22.019.33.359 1.132 1.559-.923.268-.639m-1.672.009c-.272.055.211.638.393.593.265-.067-.229-.627-.393-.593m.274.069c.103.164.33.147.406.341.088.224-.128.517-.372.407-.169-.075-.191-.294-.298-.429-.152.365.246.766.605.563.498-.283.177-.959-.341-.882m-1.53.198c.173.069.359-.037.496.123.165.193.028.571-.254.524-.155-.025-.237-.195-.385-.251l-.011.011a.6.6 0 0 0 .149.289c.907.877.835-1.619.005-.696m-1.497.341c.151-.048.253-.221.408-.234.278-.024.372.352.202.526-.136.139-.323.05-.489.115v.022c1.035.716.743-1.475.007-.69a.6.6 0 0 0-.128.261m1.271-.298c-.269.126.345.469.507.388.274-.137-.355-.459-.507-.388m-5.904.128c-1.319.108-1.308 2.365.055 2.255 1.317-.107 1.305-2.367-.055-2.255m15.452.027v.22l-.451-.176Zm-10.478.11c-.189.02-.676.413-.297.387.207-.015.654-.425.297-.387m-4.974.083c1.075-.09 1.094 1.725.066 1.817-1.098.098-1.133-1.729-.066-1.817m-.022.269c.142-.052.006-.273 0 0m.539.011c-.052.057-.103.106-.077.187h.011c.047-.059.088-.11.066-.187m-.99.103c-.036.017.03.108.066.085.034-.022-.033-.099-.066-.085m12.799-.004c-1.168.17-1.196 2.52.044 2.52-.743-.701-.447-1.76-.044-2.52m.254.102c-.25-.012-.379.284-.439.481-.12.397-.23 1.81.439 1.83.24.007.375-.284.435-.476.122-.39.214-1.804-.435-1.835M4.48 6.249c.316-.191.492-.463.726-.716-.234-.201-.621.562-.726.716m1.034-.584-.011.088c.082 0 .153.003.176-.088ZM4.37 5.72c-.265.041-.008.139 0 0m9.751.047c-.248.035-.199.434.055.396.25-.038.193-.432-.055-.396m-1.42.069c-.241.071-.148.455.098.386.243-.068.144-.458-.098-.386m-1.365.055c-.247.051-.173.457.077.398.238-.057.165-.448-.077-.398m-1.385.064c-.238.066-.145.454.097.388.245-.066.15-.457-.097-.388m9.82 1.489c-.163.068-.07.552-.07.698 0 .738.013 1.485.046 2.223.095 2.166.085 4.337.151 6.504.017.579.003 1.162.04 1.739.011.161-.047.468.047.605.104.151.767-.094.915-.148.244-.091.144-.486.143-.688-.002-.694-.011-1.387-.011-2.08 0-2.359-.044-4.718-.044-7.077 0-.32.159-1.402-.067-1.628-.123-.124-.502-.104-.67-.124-.135-.016-.351-.079-.48-.024m-9.546.579c-.307.078-.194.569.12.491.304-.075.185-.568-.12-.491m-.54.339-.11.022c.059.156.364.235.405.021.01-.051-.363-.414-.108-.219l.1-.011c-.048-.159-.331-.222-.369-.021 0 .002.349.487.082.208m-.286.143c.019.058.074.038.121.022l-.011-.484c-.041 0-.099-.016-.11.033-.494-.147-.447.628 0 .429m-.407-.11c-.431.011-.392-.126 0-.176-.137-.247-.502-.17-.468.132.03.269.369.257.468.044m-.825.011-.1.022c.061.158.358.229.393.011.005-.029-.342-.421-.106-.209.236-.075-.308-.305-.262.01.013.085.253.152.229.202-.032.065-.125-.01-.154-.036m-.265.143c.01.046.059.033.099.033v-.495c-.049 0-.1-.009-.121.044-.414-.206-.486.618.022.418m2.347-.401c.157-.056.215.202.072.25-.154.053-.22-.197-.072-.25m-1.002.023c.152-.034.195.215.05.251-.155.039-.204-.217-.05-.251m-1.498.044c.153-.028.179.233.031.254-.152.022-.176-.227-.031-.254m4.502.023c-.24.092-.095.46.141.366.234-.093.093-.456-.141-.366m6.052 9.908c-3.647-.032-7.293-.374-10.94-.374-.128-1.097-.188-2.203-.287-3.302-.045-.496-.217-1.16-.133-1.648.059-.344.787-.294.849-.817.314-.105.596-.499.176-.706-.288-.141-.85-.133-1.166-.076l-.022-.308c1.336-.195 2.841-.055 4.193-.055.43 0 1.291.151 1.675-.038.1-.049.064-.296.092-.39.085-.279.269-.287.269-.673h.154c.002.384-.101.644-.176 1.013.28-.038.59-.038.87 0-.003-.346-.177-.648-.177-1.013h.727c0 .244-.066.645.068.858.168.267.844.261 1.005-.011.135-.229.049-.603.049-.858.529 0 1.057.012 1.585.012.199 0 .486-.053.644.096.367.345.199 1.61.232 2.094.141 2.049.312 4.142.313 6.196m-5.305-7.297c0 .178-.055.472.033.632.272.496 1.278-.2.805-.618-.139-.123-.664-.036-.838-.014m1.75.11.132 1.574c-.582-.144-.79.546-.835 1.002-.073.729.068 1.594.029 2.366-.018.372-.223.802-.151 1.166.077.391.556.495.72.099.138-.331-.08-.694-.062-1.034.017-.352.023-.705.034-1.057.018-.595.138-1.04.232-1.595.339.078.469-.292.507-.562.093-.677-.113-1.302-.122-1.97Zm-7.407.121v.099c.594-.101 1.401.129.826.859.56.135 1.867.201 2.273-.323.134-.172.104-.473.104-.679Zm-3.049 2.752-.011-.011c.186-.567-.041-1.116-.561-1.409.668-.32 1.473-.473 2.179-.694.374-.118.822-.349 1.211-.378.368-.028.569.49.467.786-.094.273-.62.42-.863.533-.811.379-1.626.762-2.422 1.173m4.161-1.563v.132c.322.017 1.273.53.994.981-.101.164-.213-.109-.235-.178-.221-.672-1.048-1.095-1.637-.562-.251.226-.578.88-.226 1.165.101.082.705-.465.95-.479.267-.016.526.096.726.269.098.084.223.304.362.31.162.006.209-.277.218-.394.03-.411-.173-.826-.173-1.255a7 7 0 0 1-.979.011m-5.041.272c.774-.033 1.103 1.48.242 1.52-.796.037-1.113-1.483-.242-1.52m11.281 1.247c-.184-.155-.338-.189-.55-.066.003-.324.064-.715.284-.967.15-.171.451-.224.537.042.079.245-.249.702-.271.991m2.928 4.523v.011c-.93.158-1.879.498-2.818.569-1.068.081-2.207-.084-3.28-.117-2.557-.078-5.113-.221-7.671-.287 1.104-.224 2.343-.484 3.467-.536 1.71-.079 3.483.119 5.195.183 1.685.062 3.431-.015 5.107.177m.704.055c0 .499.022.998.022 1.497 0 .145.069.421-.009.548-.098.159-.682.208-.861.255-.845.226-1.693.45-2.542.661-.073-.53-.033-1.116-.033-1.651 0-.139-.06-.465.025-.579.118-.156.699-.177.889-.216.836-.169 1.678-.323 2.509-.515m-3.61.716.022 2.278c-.91.047-1.864-.09-2.773-.141-1.776-.099-3.551-.207-5.327-.298-.852-.043-1.702-.098-2.554-.144-.342-.019-.844.046-1.163-.08-.151-.059-.102-.321-.102-.449-.002-.341-.211-1.272-.017-1.55.088-.126.561-.028.699-.024.715.019 1.431.07 2.146.077 3.015.031 6.059.158 9.069.331"/></svg>