<svg xmlns="http://www.w3.org/2000/svg" fill="#44739e" width="24" height="24" version="1.1" viewBox="0 0 24000 24000"><path d="M11850 4456c-48 31-40 39 40 40a983 983 0 01 200 28c90 23 100 19 46-41a226 226 0 00-286-27Zm906 0c75 0 60-122-24-189-84-67-120-65-120-9 0 82 88 198 144 198zm-2830 187a4416 4416 0 00-714-150L7040 4139c-1511-247-1556-253-1634-221-63 26-26 15384 38 15462 25 31 0 100 135 163a874 874 0 00 381 86s1382 437 1693 534c311 97 845 260 1187 364l738 224c235 76 337 49 447-117l100-155-42-5313C10028 8023 9977 4700 9926 4643ZM5555 19524l13 10zm1520-441a7193 7193 0 00-462-143c-310-76-372-116-393-251a284 284 0 01 21-178c29-35 23-50-21-50s-112 86-174 191c-137 230-184 142-57-108 100-190 172-200 526-100 270 80 318 118 319 252 0 165 44 200 400 327 356 127 400 100 112-48-206-106-135-146 80-45 100 48 154 100 154 153-4 117-158 117-506 0zm540-128a347 347 0 00-190-112 3794 3794 0 01-200-47c-38-10-70 0-66 13 15 86-10 134-66 134-40 0-51-19-32-49a344 344 0 00 20-160c10-62 10-112 10-112s120 36 258 81c238 81 337 162 337 276-1 45-18 38-61-24zM9792 5067c-10 50-18 20-18-69 0-88 7-130 17-91a428 428 0 01 10 160zm123 6562c-9 1500-9 1500-30 490a17489 17489 0 01 22-2010c9 0 13 682 8 1511zm3079-7260c-13 20-10 40 8 40 75 0-176 114-261 116-58 0-82 18-65 46 38 60 370 20 444-54a130 130 0 00 31-125 88 88 0 00-158-27ZM6516 18557c-207-73-193-72-225-20-48 77 25 193 149 236 200 70 266 47 110-36a817 817 0 01-200-139c-40-47-6-42 144 24a788 788 0 01 224 130c40 60 40-22 0-85a547 547 0 00-202-110zm9300-14224a756 756 0 00-154 36c-55 20-685 190-1400 384l-1300 350L11700 4900c-700-112-1289-200-1300-200-11 0-30 3657-30 8126v8152c61 30 1027 326 1292 408 0 0-54 12 70 100a2549 2549 0 00 1013 353c180-9 1000-309 1017-480a5769 5769 0 01 720-370c354-167 787-375 964-463l320-160 26-4375c14-2406 38-6013 53-8016a30834 30834 0 00-30-3646Zm-5028 7227a3444 3444 0 01 18 675c-18 540-24 575-80 482a2972 2972 0 01-68-978c-7-850 0-876 71-856 71 20 88 13 51-128-25-93-27-94-70-12-43 82-55-350-32-1187 8-286 56-377 109-208a4255 4255 0 01 22 612c0 290 0 733 20 984 20 353 10 464-30 490-40 24-48 58-20 124zm-14-2407c-120-124-128-148-128-430 0-284 13-330 107-270a806 806 0 01 62 350 1794 1794 0 00 51 400c23 50-10 33-92-50Zm-9-792c-78-83-100-147-100-340a625 625 0 00-52-288c-100-100-40-110 92-10 116 88 135 124 114 210a526 526 0 00 18 400c80 135 41 148-72 28zM10800 7700a400 400 0 01-144-200c-7-51 0-368 12-700 20-500 34-605 80-587a200 200 0 01 81 123 492 492 0 01-23 235 270 270 0 00-10 205 2015 2015 0 01 44 470 1944 1944 0 00 50 479c40 63 25 60-90-25Zm2100 10681c-9-3378 36-12237 62-12237 9 0 10 3183 0 7073-10 3890-23 7335-35 7655-12 320-21-804-27-2494zm690 2948a1921 1921 0 01-628 300 4759 4759 0 01 641-357c6 0-3 28-12 54ZM7154 3893l1746 281c550 89 1051 161 1113 161 125 0 432-238 959-744l300-290-900-188c-500-100-1047-222-1223-265a972 972 0 00-684-15c-180 49-2651 614-2980 680a336 336 0 00-148 56 2249 2249 0 00 531 117Zm2468-234c193 0 256 11 200 34a612 612 0 01-400 0c-55-23 8-34 200-34Zm-46 226c-41-9 78-50 265-90a968 968 0 00 461-188c150-136 276-160 160-30-118 131-456 355-378 257 55-69 54-73-15-47a1410 1410 0 01-493 98Zm187 150A745 745 0 01 10000 3901c10 0-23 35-75 80-85 70-162 98-162 56Zm1237-600a6715 6715 0 01-1032 780c-78 0-92 13 423-385 674-516 809-604 609-394Zm-4873 60c66-18 455-110 863-200 408-92 950-222 1200-284a1719 1719 0 01 934-75c83 23 479 113 880 200a5754 5754 0 01 770 200c27 27 25 40-5 40-66 0-1481-316-1718-384-200-56-226-53-900 100-1300 300-1941 440-2044 436-103-4-90-4 24-34Zm3696-670c753 152 870 183 719 190-49 0-34 16 44 40a544 544 0 00 220 17 977 977 0 01 321 38l221 58-181-16-180-17 205 53a10516 10516 0 00 1422 72l1218 20 600-300 600-300-180-35c-100-20-290-50-422-69-843-120-1980-292-2287-343a2241 2241 0 00-747-44c-15 15-1841 400-2200 460-108 18 14 51 627 176Zm823 100a1080 1080 0 01-221-30c-107-28-110-30-20-30a1100 1100 0 01 221 30c107 23 110 26 20 26zm3377 185-237 106h-1129a9357 9357 0 01-1128-34c0-19-74-56-165-83-91-27-156-58-146-68 10-10 67 0 127 23 145 55 195 52 156-9-39-60-46-230-7-230 16 0 40 32 52 73a547 547 0 00 106 161c67 72 120 86 300 80l217-10-100-178c-120-215-120-215-10-163a734 734 0 01 200 200c70 112 130 158 210 158h100l-80-80a300 300 0 01-80-113 564 564 0 00-130-162c-90-89-100-120-50-100a1210 1210 0 01 261 220 733 733 0 01 173 224 3138 3138 0 00 593 25c558 0 624-9 784-94a510 510 0 01 190-77 671 671 0 01-218 127Zm-2267-265a86 86 0 00 72 50c29 0 82 45 118 100 64 100 64 100-36 100a135 135 0 01-142-100c-40-112-52-252-12-154Zm1050 100c40 36 86 53 100 37 14-16 17 0 0 40-35 91-86 88-137-8-57-114-45-143 37-69Zm1572-155a2040 2040 0 01-320 181 1000 1000 0 01-512 156h-192l161-34a3207 3207 0 00 485-180c315-140 378-160 378-123Zm-3371-416c554-107 608-115 700-100 44 8 400 60 783 115a10854 10854 0 01 1800 290c-105 10-1065-100-1720-220a2824 2824 0 00-1645-10 6559 6559 0 01-1191 215 9445 9445 0 01 1273-300Zm3245 1885a192 192 0 01-115-64c-60-74-70-73-221 10a2169 2169 0 01-361 134c-355 100-176 148 215 56 484-113 552-132 482-136zm3316-405-1310 360a300 300 0 00-174 112c-47 118-60 1582-77 8845-15 6118-10 7013 42 7032a3400 3400 0 00 689-278c360-168 1053-428 1053-428a1111 1111 0 00 637-290c63-53 11-70 116-124a1423 1423 0 00 250-156c51-50 63-813 94-5690 20-3100 36-6543 36-7658V3553l-100-8c-60-4-629 135-1269 310Zm-1400 5930c-14 2800-29 6223-33 7614a14183 14183 0 01-35 1966c-32-660-10-13357 26-14136a3263 3263 0 01 46-530c14 2 13 2288-2 5085ZM15732 4000a21476 21476 0 01-993-313 3770 3770 0 00-1445-317 7600 7600 0 00-1814 20 9827 9827 0 00-1115 990c0 20 10 37 22 37 12 0 577 91 1254 200a9640 9640 0 00 1392 179c89-13 450-100 800-200L15000 4276c284-80 600-155 692-168 208-29 222-73 40-108Zm-2800-571c300 0 420 0 270 10a6123 6123 0 01-541 0c-150-10-26-20 272-20zm94 620c80 0 147 14 147 40s-56 24-131 10c-180-36-187-54-15-54Zm-14-115c78 0 109 10 70 20a335 335 0 01-140 0c-37-12-6-20 70-20zm823 600a1484 1484 0 01-321 64 1711 1711 0 01 522-140c45-5-45 32-200 71Zm755-286c-194 46-444 110-554 140-110 31-380 100-600 160a2967 2967 0 00-421 130c-21 23 22 18 344-45 100-19 100-15-26 35a1169 1169 0 01-351 61c-171 0-1700-236-2246-350l-132-28 460-379a3043 3043 0 00 476-448c19-70 116-100 329-110 115 0 116 0 25 37a4365 4365 0 00-528 400 6077 6077 0 01-538 416c-100 52-94 55 148 86 590 76 1322 17 1055-86-52-20-135-6-544 87-61 14-30-16 80-75a700 700 0 01 327-93c179 7 160-36-60-140l-166-80 172 20c212 22 269 67 393 311 147 291 350 370 233 90l-58-139 150-62c122-52 138-70 84-100a218 218 0 00-175 0c-93 36-124 27-213-56a536 536 0 00-185-117l-80-20h80a465 465 0 01 190 53c62 32 110 40 110 20 0-70 263 13 415 130a317 317 0 00 300 100c82-10 220-30 310-42l160-22-128 50c-272 107-154 156 153 64 132-40 152-60 130-130a507 507 0 00-96-155c-80-95-20-90 143 8a552 552 0 00 238 80 556 556 0 01 251 100c140 100 146 100 400 40a1053 1053 0 01 272-43 1474 1474 0 01-336 94zm619-247a13311 13311 0 01-1600-512c-143-93 100-30 863 230a3827 3827 0 01 738 280Zm-1041-678c38 0 500 145 1019 323l949 324 1336-363c735-200 1390-364 1455-364 220 0 82-40-339-100a84740 84740 0 01-840-120c-230-35-610-88-842-120a83082 83082 0 01-957-140 11310 11310 0 00-582-80c-26 0-321 145-658 320a2521 2521 0 00-550 322zm1989 480a8758 8758 0 01-1580-518c12 0 392 115 844 258a4506 4506 0 01 736 260zm-395-390c89 0 129 8 91 18a450 450 0 01-160 0c-50-10-20-17 70-17Zm1970 15a2382 2382 0 01-414 80 3573 3573 0 01 732-178c44 0-100 44-318 98zm-2250-626c29 0 312 36 628 80l1177 162c331 46 665 100 743 116 139 32 139 33 20 37-120 4-1313-150-1976-258a1154 1154 0 00-988 126 1848 1848 0 01-430 170 3577 3577 0 01 826-434"/></svg>
