<?xml version="1.0" encoding="UTF-8"?>
<svg width="24px" fill="#44739e" height="24px" viewBox="0 0 24 24" version="1.1" xmlns="http://www.w3.org/2000/svg" xmlns:xlink="http://www.w3.org/1999/xlink">
            <path d="m 11.85,4.456 c -0.048,0.031 -0.04,0.039 0.04,0.04 a 0.983,0.983 0 0 1 0.2,0.028 c 0.09,0.023 0.1,0.019 0.046,-0.041 A 0.226,0.226 0 0 0 11.85,4.456 Z m 0.906,0 c 0.075,0 0.06,-0.122 -0.024,-0.189 -0.084,-0.067 -0.12,-0.065 -0.12,-0.009 0,0.082 0.088,0.198 0.144,0.198 z M 9.926,4.643 A 4.416,4.416 0 0 0 9.212,4.493 L 7.04,4.139 C 5.529,3.892 5.484,3.886 5.406,3.918 5.343,3.944 5.38,19.302 5.444,19.38 c 0.025,0.031 0,0.1 0.135,0.163 a 0.874,0.874 0 0 0 0.381,0.086 c 0,0 1.382,0.437 1.693,0.534 0.311,0.097 0.845,0.261 1.187,0.364 l 0.738,0.224 c 0.235,0.076 0.337,0.049 0.447,-0.117 l 0.1,-0.155 -0.042,-5.313 C 10.028,8.023 9.977,4.7 9.926,4.643 Z m -4.371,14.881 0.013,0.01 z M 7.074,19.083 C 6.909,19.026 6.701,18.962 6.613,18.94 6.304,18.864 6.241,18.824 6.22,18.689 a 0.284,0.284 0 0 1 0.021,-0.178 c 0.029,-0.035 0.023,-0.05 -0.021,-0.05 -0.044,0 -0.112,0.086 -0.174,0.191 -0.137,0.231 -0.184,0.142 -0.057,-0.108 0.1,-0.189 0.172,-0.2 0.526,-0.1 0.27,0.08 0.318,0.118 0.319,0.252 0,0.165 0.044,0.2 0.4,0.327 0.356,0.127 0.4,0.1 0.112,-0.048 -0.206,-0.106 -0.135,-0.146 0.08,-0.045 0.1,0.048 0.154,0.1 0.154,0.153 -0.004,0.117 -0.158,0.117 -0.506,0 z M 7.616,18.955 A 0.347,0.347 0 0 0 7.425,18.843 c -0.071,-0.015 -0.162,-0.036 -0.2,-0.047 -0.038,-0.011 -0.069,0 -0.066,0.013 0.015,0.086 -0.009,0.134 -0.066,0.134 -0.039,0 -0.051,-0.019 -0.032,-0.049 a 0.344,0.344 0 0 0 0.021,-0.161 c 0,-0.061 0,-0.111 0.006,-0.111 0.006,0 0.121,0.036 0.252,0.081 0.238,0.081 0.337,0.162 0.337,0.276 -10e-4,0.045 -0.018,0.038 -0.061,-0.024 z M 9.791,5.067 C 9.782,5.117 9.773,5.086 9.773,4.998 9.773,4.91 9.78,4.868 9.79,4.907 a 0.428,0.428 0 0 1 0.001,0.16 z m 0.123,6.562 c -0.009,1.506 -0.009,1.509 -0.03,0.492 a 17.489,17.489 0 0 1 0.022,-2.007 c 0.009,0 0.013,0.686 0.008,1.515 z m 3.079,-7.253 c -0.013,0.022 -0.01,0.04 0.008,0.041 0.075,0 -0.176,0.116 -0.261,0.118 -0.058,0 -0.082,0.018 -0.065,0.046 0.038,0.06 0.37,0.021 0.444,-0.053 A 0.13,0.13 0 0 0 13.151,4.403 0.088,0.088 0 0 0 12.993,4.376 Z M 6.516,18.563 C 6.309,18.49 6.323,18.491 6.291,18.542 c -0.048,0.078 0.025,0.194 0.149,0.237 0.2,0.069 0.266,0.047 0.11,-0.036 A 0.817,0.817 0 0 1 6.35,18.604 C 6.31,18.557 6.344,18.562 6.494,18.628 a 0.788,0.788 0 0 1 0.224,0.13 c 0.04,0.06 0.039,-0.022 0,-0.085 a 0.547,0.547 0 0 0 -0.202,-0.11 z m 9.3,-14.224 a 0.756,0.756 0 0 0 -0.154,0.036 c -0.055,0.018 -0.685,0.19 -1.4,0.383 L 12.962,5.107 11.7,4.9 C 11,4.788 10.411,4.7 10.4,4.7 c -0.011,0 -0.03,3.657 -0.03,8.126 v 8.152 c 0.061,0.031 1.027,0.326 1.292,0.408 0,0 -0.054,0.012 0.07,0.1 a 2.549,2.549 0 0 0 1.013,0.353 c 0.179,0 1,-0.3 1.017,-0.471 a 5.769,5.769 0 0 1 0.721,-0.371 c 0.353,-0.165 0.786,-0.373 0.963,-0.461 l 0.321,-0.161 0.025,-4.374 C 15.806,13.595 15.83,9.988 15.845,7.985 A 30.834,30.834 0 0 0 15.816,4.339 Z m -5.028,7.227 a 3.444,3.444 0 0 1 0.018,0.675 c -0.018,0.54 -0.024,0.575 -0.08,0.482 a 2.972,2.972 0 0 1 -0.068,-0.978 c -0.007,-0.849 0,-0.876 0.071,-0.856 0.071,0.02 0.088,0.013 0.051,-0.128 -0.025,-0.093 -0.027,-0.094 -0.07,-0.012 -0.043,0.082 -0.055,-0.349 -0.032,-1.187 0.008,-0.284 0.056,-0.375 0.109,-0.206 a 4.255,4.255 0 0 1 0.022,0.612 c 0,0.29 0.006,0.733 0.02,0.984 0.02,0.353 0.014,0.464 -0.026,0.489 -0.04,0.025 -0.042,0.059 -0.015,0.125 z M 10.774,9.159 C 10.653,9.035 10.646,9.011 10.646,8.728 10.646,8.445 10.659,8.4 10.753,8.46 a 0.806,0.806 0 0 1 0.062,0.35 1.794,1.794 0 0 0 0.051,0.4 C 10.889,9.261 10.855,9.242 10.774,9.159 Z M 10.765,8.367 C 10.687,8.284 10.665,8.22 10.665,8.026 A 0.625,0.625 0 0 0 10.613,7.739 c -0.1,-0.1 -0.041,-0.111 0.092,-0.01 0.116,0.088 0.135,0.124 0.114,0.209 a 0.526,0.526 0 0 0 0.018,0.4 c 0.079,0.136 0.041,0.149 -0.072,0.029 z M 10.8,7.7 A 0.4,0.4 0 0 1 10.656,7.5 c -0.007,-0.051 0,-0.368 0.012,-0.7 0.019,-0.5 0.034,-0.605 0.079,-0.587 a 0.2,0.2 0 0 1 0.082,0.123 0.492,0.492 0 0 1 -0.023,0.235 0.27,0.27 0 0 0 -0.011,0.205 2.015,2.015 0 0 1 0.045,0.47 1.944,1.944 0 0 0 0.05,0.479 C 10.93,7.788 10.915,7.784 10.8,7.7 Z m 2.1,10.681 c -0.009,-3.378 0.036,-12.237 0.062,-12.237 0.009,0 0.01,3.183 0,7.073 -0.01,3.89 -0.023,7.335 -0.035,7.655 -0.012,0.32 -0.021,-0.804 -0.027,-2.494 z m 0.69,2.948 a 1.921,1.921 0 0 1 -0.628,0.3 4.759,4.759 0 0 1 0.641,-0.357 C 13.609,21.271 13.6,21.3 13.591,21.326 Z M 7.154,3.893 8.9,4.174 c 0.55,0.089 1.051,0.161 1.113,0.161 0.125,0 0.432,-0.238 0.959,-0.744 l 0.3,-0.29 -0.9,-0.188 C 9.872,3.013 9.325,2.891 9.149,2.848 A 0.972,0.972 0 0 0 8.465,2.833 C 8.286,2.882 5.814,3.447 5.485,3.513 A 0.336,0.336 0 0 0 5.337,3.569 2.249,2.249 0 0 0 5.868,3.686 Z M 9.622,3.659 c 0.193,0 0.256,0.011 0.2,0.034 a 0.612,0.612 0 0 1 -0.4,0 C 9.367,3.67 9.43,3.659 9.622,3.659 Z M 9.576,3.885 C 9.535,3.876 9.654,3.835 9.841,3.794 A 0.968,0.968 0 0 0 10.302,3.607 C 10.451,3.471 10.578,3.448 10.461,3.578 10.344,3.708 10.006,3.932 10.084,3.834 10.139,3.765 10.138,3.761 10.069,3.787 A 1.41,1.41 0 0 1 9.576,3.885 Z M 9.763,4.036 A 0.745,0.745 0 0 1 10,3.9 C 10.011,3.9 9.977,3.935 9.925,3.979 9.84,4.05 9.763,4.078 9.763,4.036 Z M 11,3.436 A 6.715,6.715 0 0 1 9.968,4.215 C 9.89,4.215 9.876,4.228 10.391,3.83 11.065,3.314 11.2,3.226 11,3.436 Z M 6.127,3.494 C 6.193,3.477 6.582,3.385 6.99,3.294 7.398,3.203 7.94,3.073 8.19,3.011 A 1.719,1.719 0 0 1 9.124,2.936 c 0.083,0.023 0.479,0.113 0.88,0.2 a 5.754,5.754 0 0 1 0.77,0.2 c 0.027,0.027 0.025,0.04 -0.005,0.04 -0.066,0 -1.481,-0.316 -1.718,-0.384 -0.2,-0.056 -0.226,-0.053 -0.9,0.1 -1.3,0.3 -1.941,0.44 -2.044,0.436 C 6.004,3.524 6.018,3.524 6.131,3.494 Z M 9.823,2.825 c 0.753,0.152 0.87,0.183 0.719,0.19 -0.049,0 -0.034,0.016 0.044,0.04 a 0.544,0.544 0 0 0 0.22,0.017 0.977,0.977 0 0 1 0.321,0.038 l 0.221,0.058 -0.181,-0.016 -0.18,-0.017 0.205,0.053 a 10.516,10.516 0 0 0 1.422,0.072 l 1.218,0.02 0.6,-0.3 0.6,-0.3 -0.181,-0.035 C 14.751,2.626 14.562,2.595 14.43,2.576 13.587,2.455 12.45,2.284 12.143,2.233 A 2.241,2.241 0 0 0 11.396,2.189 C 11.381,2.204 9.555,2.589 9.196,2.65 9.088,2.667 9.21,2.7 9.823,2.825 Z m 0.823,0.1 A 1.08,1.08 0 0 1 10.425,2.895 C 10.318,2.867 10.315,2.864 10.405,2.864 a 1.1,1.1 0 0 1 0.221,0.031 c 0.107,0.023 0.109,0.026 0.02,0.026 z M 14.023,3.11 13.786,3.216 H 12.657 A 9.357,9.357 0 0 1 11.529,3.182 c 0,-0.019 -0.074,-0.056 -0.165,-0.083 -0.091,-0.027 -0.156,-0.058 -0.146,-0.068 0.01,-0.01 0.067,0 0.127,0.023 0.145,0.055 0.195,0.052 0.156,-0.009 -0.039,-0.061 -0.046,-0.23 -0.007,-0.23 0.016,0 0.04,0.032 0.052,0.073 a 0.547,0.547 0 0 0 0.106,0.161 c 0.067,0.072 0.12,0.086 0.3,0.079 l 0.217,-0.01 -0.1,-0.177 C 11.948,2.726 11.948,2.726 12.06,2.778 a 0.734,0.734 0 0 1 0.2,0.2 c 0.078,0.112 0.139,0.158 0.21,0.158 h 0.1 L 12.49,3.055 A 0.3,0.3 0 0 1 12.409,2.943 0.564,0.564 0 0 0 12.283,2.781 c -0.086,-0.089 -0.1,-0.12 -0.05,-0.1 A 1.21,1.21 0 0 1 12.5,2.9 0.733,0.733 0 0 1 12.673,3.125 3.138,3.138 0 0 0 13.266,3.15 c 0.558,0 0.624,-0.009 0.784,-0.094 A 0.51,0.51 0 0 1 14.241,2.979 0.671,0.671 0 0 1 14.023,3.106 Z M 11.756,2.845 a 0.086,0.086 0 0 0 0.072,0.05 c 0.029,0 0.082,0.045 0.118,0.1 0.064,0.1 0.064,0.1 -0.036,0.1 a 0.135,0.135 0 0 1 -0.142,-0.1 C 11.728,2.883 11.716,2.743 11.756,2.841 Z m 1.05,0.1 c 0.04,0.036 0.086,0.053 0.1,0.037 0.014,-0.016 0.017,0 0,0.04 C 12.871,3.113 12.82,3.11 12.769,3.014 12.712,2.9 12.724,2.871 12.806,2.945 Z M 14.378,2.79 a 2.04,2.04 0 0 1 -0.32,0.181 1,1 0 0 1 -0.512,0.156 H 13.354 L 13.515,3.093 A 3.207,3.207 0 0 0 14,2.913 C 14.315,2.773 14.378,2.752 14.378,2.79 Z M 11.007,2.374 c 0.554,-0.107 0.608,-0.115 0.7,-0.1 0.044,0.008 0.4,0.059 0.783,0.115 a 10.854,10.854 0 0 1 1.8,0.291 C 14.185,2.693 13.225,2.58 12.57,2.469 A 2.824,2.824 0 0 0 10.925,2.461 6.559,6.559 0 0 1 9.734,2.675 9.445,9.445 0 0 1 11.007,2.374 Z m 3.245,1.885 A 0.192,0.192 0 0 1 14.137,4.195 C 14.076,4.121 14.067,4.122 13.916,4.204 a 2.169,2.169 0 0 1 -0.361,0.135 c -0.355,0.1 -0.176,0.148 0.215,0.056 0.484,-0.113 0.552,-0.132 0.482,-0.136 z m 3.316,-0.405 -1.31,0.36 a 0.3,0.3 0 0 0 -0.174,0.112 c -0.047,0.118 -0.06,1.582 -0.077,8.845 -0.015,6.118 -0.009,7.013 0.042,7.032 a 3.4,3.4 0 0 0 0.7,-0.278 c 0.36,-0.168 1.053,-0.428 1.053,-0.428 a 1.111,1.111 0 0 0 0.637,-0.29 c 0.064,-0.053 0.012,-0.071 0.117,-0.124 a 1.423,1.423 0 0 0 0.249,-0.156 c 0.052,-0.051 0.064,-0.813 0.095,-5.69 0.02,-3.1 0.036,-6.543 0.036,-7.658 V 3.553 l -0.1,-0.008 C 18.777,3.541 18.208,3.68 17.568,3.854 Z m -1.4,5.929 c -0.014,2.8 -0.029,6.224 -0.033,7.615 A 14.183,14.183 0 0 1 16.1,19.364 C 16.068,18.703 16.091,6.007 16.126,5.228 A 3.263,3.263 0 0 1 16.172,4.697 C 16.186,4.7 16.185,6.986 16.17,9.783 Z M 15.732,4 C 15.66,3.985 15.214,3.845 14.739,3.687 A 3.77,3.77 0 0 0 13.294,3.37 7.6,7.6 0 0 0 11.48,3.391 9.827,9.827 0 0 0 10.365,4.38 c 0,0.02 0.01,0.037 0.022,0.037 0.012,0 0.577,0.091 1.254,0.2 a 9.64,9.64 0 0 0 1.392,0.179 c 0.089,-0.013 0.45,-0.1 0.8,-0.2 L 15,4.275 C 15.284,4.196 15.6,4.121 15.692,4.108 15.9,4.079 15.914,4.035 15.732,4 Z m -2.8,-0.571 c 0.3,0 0.42,0.006 0.271,0.014 -0.149,0.008 -0.393,0.008 -0.542,0 -0.149,-0.008 -0.026,-0.015 0.272,-0.015 z m 0.094,0.627 c 0.081,0 0.147,0.017 0.147,0.039 0,0.022 -0.056,0.028 -0.131,0.014 C 12.861,4.073 12.855,4.055 13.027,4.055 Z M 13.012,3.944 c 0.078,0 0.109,0.009 0.071,0.019 a 0.335,0.335 0 0 1 -0.141,0 c -0.037,-0.011 -0.006,-0.02 0.071,-0.02 z m 0.823,0.6 A 1.484,1.484 0 0 1 13.514,4.607 1.711,1.711 0 0 1 14.036,4.468 C 14.081,4.463 13.991,4.5 13.836,4.539 Z M 14.59,4.257 c -0.194,0.047 -0.444,0.11 -0.554,0.141 -0.11,0.031 -0.38,0.1 -0.6,0.16 a 2.967,2.967 0 0 0 -0.421,0.13 c -0.021,0.023 0.022,0.018 0.344,-0.045 0.1,-0.019 0.1,-0.015 -0.026,0.035 a 1.169,1.169 0 0 1 -0.351,0.061 c -0.171,0 -1.7,-0.236 -2.246,-0.351 L 10.604,4.361 11.063,3.982 A 3.043,3.043 0 0 0 11.54,3.534 c 0.019,-0.071 0.116,-0.1 0.329,-0.109 0.115,0 0.116,0 0.025,0.036 a 4.365,4.365 0 0 0 -0.528,0.4 6.077,6.077 0 0 1 -0.538,0.415 c -0.1,0.052 -0.094,0.055 0.148,0.086 0.591,0.076 1.322,0.017 1.055,-0.086 -0.052,-0.02 -0.135,-0.006 -0.544,0.087 -0.061,0.014 -0.029,-0.016 0.08,-0.075 a 0.7,0.7 0 0 1 0.327,-0.093 c 0.179,0.007 0.16,-0.036 -0.06,-0.141 L 11.668,3.975 11.84,3.994 c 0.212,0.024 0.269,0.069 0.393,0.313 0.147,0.291 0.35,0.369 0.233,0.09 l -0.058,-0.139 0.15,-0.062 c 0.122,-0.052 0.138,-0.07 0.084,-0.1 a 0.218,0.218 0 0 0 -0.175,0 C 12.374,4.132 12.343,4.123 12.254,4.04 A 0.536,0.536 0 0 0 12.069,3.923 l -0.08,-0.02 h 0.08 a 0.465,0.465 0 0 1 0.191,0.053 c 0.061,0.032 0.11,0.041 0.11,0.021 0,-0.071 0.262,0.012 0.414,0.13 a 0.317,0.317 0 0 0 0.3,0.1 c 0.082,-0.012 0.22,-0.032 0.309,-0.043 l 0.16,-0.022 -0.127,0.05 c -0.272,0.107 -0.154,0.156 0.153,0.064 0.132,-0.04 0.152,-0.06 0.131,-0.131 A 0.507,0.507 0 0 0 13.622,3.971 c -0.081,-0.093 -0.019,-0.088 0.143,0.01 a 0.552,0.552 0 0 0 0.238,0.081 0.556,0.556 0 0 1 0.251,0.1 c 0.141,0.1 0.146,0.1 0.4,0.039 a 1.053,1.053 0 0 1 0.273,-0.043 1.474,1.474 0 0 1 -0.336,0.094 z m 0.619,-0.246 a 13.311,13.311 0 0 1 -1.6,-0.513 c -0.143,-0.093 0.1,-0.029 0.863,0.229 A 3.827,3.827 0 0 1 15.21,4.006 Z M 14.168,3.332 c 0.038,0 0.5,0.145 1.019,0.323 l 0.949,0.324 1.336,-0.363 c 0.735,-0.2 1.39,-0.364 1.455,-0.364 0.22,0 0.082,-0.04 -0.339,-0.1 C 18.358,3.12 17.98,3.066 17.749,3.031 17.518,2.996 17.138,2.943 16.906,2.911 16.674,2.879 16.244,2.816 15.949,2.771 15.654,2.726 15.393,2.69 15.367,2.691 15.341,2.692 15.046,2.836 14.709,3.012 a 2.521,2.521 0 0 0 -0.541,0.32 z m 1.989,0.48 A 8.758,8.758 0 0 1 14.578,3.294 c 0.011,0 0.391,0.115 0.843,0.258 a 4.506,4.506 0 0 1 0.736,0.26 z M 15.762,3.423 c 0.089,0 0.129,0.007 0.091,0.017 a 0.45,0.45 0 0 1 -0.16,0 C 15.643,3.431 15.674,3.423 15.762,3.423 Z m 1.97,0.014 a 2.382,2.382 0 0 1 -0.414,0.08 3.573,3.573 0 0 1 0.732,-0.178 c 0.044,0 -0.099,0.044 -0.318,0.098 z m -2.25,-0.626 c 0.029,0 0.312,0.036 0.628,0.08 l 1.177,0.164 c 0.331,0.046 0.665,0.1 0.743,0.116 0.139,0.032 0.139,0.033 0.02,0.037 C 17.931,3.212 16.737,3.057 16.074,2.95 a 1.154,1.154 0 0 0 -0.988,0.126 1.848,1.848 0 0 1 -0.429,0.169 3.577,3.577 0 0 1 0.825,-0.434 z"/>

</svg>