<?xml version="1.0" encoding="UTF-8"?>
<svg width="24px" fill="#44739e" height="24px" viewBox="0 0 24 24" version="1.1" xmlns="http://www.w3.org/2000/svg" xmlns:xlink="http://www.w3.org/1999/xlink">
            <path d="m 21.367,18.67 -0.105,-0.018 c -0.04,-0.005 -0.079,-0.01 -0.116,-0.013 a 1.01,1.01 0 0 0 -0.1,0 2.113,2.113 0 0 0 -0.417,0.037 2.633,2.633 0 0 0 -0.3,0.075 v 1.726 h 0.324 v -1.541 h 0.012 c 0.02,-0.005 0.064,-0.014 0.129,-0.026 a 1.036,1.036 0 0 1 0.2,-0.02 1.348,1.348 0 0 1 0.253,0.02 c 0.054,0.01 0.1,0.02 0.125,0.028 l 0.055,-0.254 z m -2.232,-0.043 a 1,1 0 0 0 -0.332,0.058 0.831,0.831 0 0 0 -0.285,0.176 0.871,0.871 0 0 0 -0.2,0.295 1.092,1.092 0 0 0 -0.075,0.419 1.192,1.192 0 0 0 0.058,0.377 0.782,0.782 0 0 0 0.179,0.294 0.818,0.818 0 0 0 0.3,0.2 1.237,1.237 0 0 0 0.444,0.072 1.687,1.687 0 0 0 0.366,-0.036 1.084,1.084 0 0 0 0.214,-0.061 L 19.76,20.177 a 1.462,1.462 0 0 1 -0.178,0.052 1.44,1.44 0 0 1 -0.319,0.03 0.713,0.713 0 0 1 -0.5,-0.151 0.657,0.657 0 0 1 -0.185,-0.443 v -0.017 h 1.364 c 0,-0.015 0,-0.03 0,-0.046 v -0.055 a 0.987,0.987 0 0 0 -0.21,-0.691 0.79,0.79 0 0 0 -0.597,-0.229 z m 0.474,0.784 H 18.59 v -0.018 a 0.76,0.76 0 0 1 0.049,-0.19 0.541,0.541 0 0 1 0.1,-0.167 0.534,0.534 0 0 1 0.164,-0.118 0.524,0.524 0 0 1 0.222,-0.046 0.446,0.446 0 0 1 0.354,0.148 0.542,0.542 0 0 1 0.125,0.375 z m -2.034,-0.004 c -0.071,0.241 -0.156,0.488 -0.252,0.733 l -0.01,0.032 -0.016,-0.03 c -0.062,-0.12 -0.121,-0.246 -0.177,-0.374 -0.056,-0.128 -0.109,-0.26 -0.157,-0.388 -0.048,-0.128 -0.092,-0.255 -0.132,-0.377 -0.04,-0.122 -0.072,-0.229 -0.1,-0.331 h -0.35 a 7.631,7.631 0 0 0 0.339,0.938 9.437,9.437 0 0 0 0.449,0.894 v 0.007 0.007 a 0.759,0.759 0 0 1 -0.219,0.286 0.568,0.568 0 0 1 -0.338,0.089 0.586,0.586 0 0 1 -0.136,-0.016 0.778,0.778 0 0 1 -0.094,-0.028 l -0.057,0.234 0.037,0.012 c 0.024,0.007 0.05,0.012 0.079,0.019 l 0.088,0.014 c 0.03,0 0.059,0 0.086,0 a 1.061,1.061 0 0 0 0.277,-0.034 0.662,0.662 0 0 0 0.218,-0.107 0.832,0.832 0 0 0 0.179,-0.185 1.874,1.874 0 0 0 0.157,-0.27 c 0.129,-0.274 0.251,-0.575 0.363,-0.891 0.112,-0.316 0.21,-0.637 0.3,-0.973 h -0.335 c -0.061,0.254 -0.129,0.501 -0.199,0.739 z m -1.622,-0.59 a 0.58,0.58 0 0 0 -0.232,-0.141 1.139,1.139 0 0 0 -0.356,-0.05 2.18,2.18 0 0 0 -0.345,0.026 1.242,1.242 0 0 0 -0.214,0.049 l 0.037,0.24 a 1.429,1.429 0 0 1 0.181,-0.042 1.779,1.779 0 0 1 0.311,-0.024 0.575,0.575 0 0 1 0.229,0.039 0.373,0.373 0 0 1 0.142,0.1 0.355,0.355 0 0 1 0.072,0.147 0.742,0.742 0 0 1 0.02,0.163 v 0.111 h -0.02 l -0.053,-0.01 -0.089,-0.016 c -0.033,-0.006 -0.07,-0.011 -0.107,-0.015 -0.037,-0.004 -0.075,0 -0.11,0 a 1.551,1.551 0 0 0 -0.318,0.032 0.86,0.86 0 0 0 -0.263,0.1 0.5,0.5 0 0 0 -0.177,0.171 0.484,0.484 0 0 0 -0.065,0.252 0.575,0.575 0 0 0 0.056,0.264 0.454,0.454 0 0 0 0.156,0.175 0.7,0.7 0 0 0 0.239,0.1 1.4,1.4 0 0 0 0.307,0.031 c 0.078,0 0.158,0 0.237,-0.009 0.079,-0.009 0.154,-0.012 0.223,-0.019 0.069,-0.007 0.131,-0.014 0.185,-0.022 l 0.115,-0.018 V 19.31 A 0.98,0.98 0 0 0 16.076,19.031 0.521,0.521 0 0 0 15.953,18.817 Z M 15.8,20.238 h -0.012 a 1.238,1.238 0 0 1 -0.166,0.02 c -0.064,0 -0.139,0 -0.224,0 a 0.71,0.71 0 0 1 -0.34,-0.071 0.272,0.272 0 0 1 -0.13,-0.259 0.249,0.249 0 0 1 0.053,-0.163 0.374,0.374 0 0 1 0.13,-0.1 0.636,0.636 0 0 1 0.169,-0.045 1.549,1.549 0 0 1 0.383,0 0.5,0.5 0 0 1 0.129,0.031 h 0.009 z m -1.665,-0.054 a 0.2,0.2 0 0 1 -0.054,-0.091 0.489,0.489 0 0 1 -0.016,-0.138 v -1.748 l -0.324,0.051 v 1.75 a 0.481,0.481 0 0 0 0.132,0.372 0.7,0.7 0 0 0 0.443,0.126 L 14.36,20.262 A 1.142,1.142 0 0 1 14.233,20.237 0.249,0.249 0 0 1 14.135,20.184 Z M 13.126,18.886 A 0.876,0.876 0 0 0 12.818,18.7 1.188,1.188 0 0 0 12.41,18.634 2.535,2.535 0 0 0 11.975,18.667 c -0.119,0.021 -0.221,0.041 -0.3,0.058 v 2.4 H 12 v -0.744 l 0.024,0.014 a 0.927,0.927 0 0 0 0.193,0.08 1,1 0 0 0 0.3,0.041 0.98,0.98 0 0 0 0.375,-0.068 0.776,0.776 0 0 0 0.275,-0.194 0.87,0.87 0 0 0 0.171,-0.3 1.2,1.2 0 0 0 0.058,-0.379 1.066,1.066 0 0 0 -0.069,-0.393 0.826,0.826 0 0 0 -0.201,-0.296 z m -0.1,0.955 a 0.6,0.6 0 0 1 -0.1,0.217 0.508,0.508 0 0 1 -0.184,0.145 0.644,0.644 0 0 1 -0.268,0.052 0.8,0.8 0 0 1 -0.273,-0.046 0.777,0.777 0 0 1 -0.191,-0.1 h -0.007 v -1.176 h 0.013 a 1.013,1.013 0 0 1 0.145,-0.025 2.349,2.349 0 0 1 0.252,-0.01 0.636,0.636 0 0 1 0.47,0.177 0.686,0.686 0 0 1 0.177,0.5 1.18,1.18 0 0 1 -0.038,0.266 z m 6.826,-3.49 c 0,0.406 0.267,0.52 0.681,0.626 0.342,0.087 0.413,0.146 0.413,0.26 v 0.006 c 0,0.12 -0.111,0.193 -0.3,0.193 a 0.943,0.943 0 0 1 -0.613,-0.248 l -0.267,0.318 a 1.313,1.313 0 0 0 0.871,0.328 c 0.442,0 0.754,-0.229 0.754,-0.635 v -0.006 c 0,-0.357 -0.235,-0.506 -0.651,-0.615 -0.355,-0.09 -0.443,-0.133 -0.443,-0.268 V 16.3 c 0,-0.1 0.091,-0.178 0.264,-0.178 a 0.966,0.966 0 0 1 0.534,0.2 l 0.234,-0.339 a 1.193,1.193 0 0 0 -0.763,-0.26 0.641,0.641 0 0 0 -0.718,0.617 z m -0.4,-0.194 v -0.401 h -1.548 v 2.048 h 1.563 v -0.4 H 18.353 V 16.973 H 19.32 V 16.572 H 18.353 V 16.157 Z M 16.988,17.8 h 0.528 l -0.5,-0.732 a 0.636,0.636 0 0 0 0.44,-0.635 v -0.006 c 0,-0.422 -0.29,-0.676 -0.774,-0.676 H 15.743 V 17.8 h 0.452 v -0.656 h 0.355 z m -0.795,-1.642 h 0.449 c 0.22,0 0.355,0.1 0.355,0.293 v 0.006 c 0,0.172 -0.126,0.289 -0.346,0.289 h -0.458 z m -1.464,1.646 v -1.632 h 0.625 v -0.416 h -1.701 v 0.416 h 0.625 v 1.632 z M 12.408,15.741 11.529,17.8 h 0.46 l 0.188,-0.459 h 0.869 l 0.187,0.459 h 0.472 l -0.879,-2.063 z m -0.069,1.206 0.272,-0.665 0.273,0.665 z M 20,9.68 A 0.341,0.341 0 0 0 19.861,9.409 L 9.64,2.063 a 0.335,0.335 0 0 0 -0.391,0 l -5.11,3.673 a 0.335,0.335 0 0 0 0,0.543 l 4.733,3.4 -4.733,3.4 a 0.334,0.334 0 0 0 0,0.542 L 9.247,17.3 a 0.347,0.347 0 0 0 0.2,0.063 0.338,0.338 0 0 0 0.2,-0.064 L 19.862,9.951 A 0.334,0.334 0 0 0 20,9.68 Z M 9.445,16.616 4.908,13.355 9.639,9.955 A 0.335,0.335 0 0 0 9.778,9.685 0.339,0.339 0 0 0 9.639,9.413 l -4.733,-3.4 4.538,-3.266 9.648,6.935 z"/>

</svg>