<svg xmlns="http://www.w3.org/2000/svg" viewBox="0 0 24 24"><path fill="#44739e" d="m21.048 19.43-.11-.019-.121-.014a1 1 0 0 0-.105 0 2 2 0 0 0-.436.039 3 3 0 0 0-.313.078v1.805h.338v-1.611h.013q.031-.008.135-.027a1 1 0 0 1 .209-.021 1.5 1.5 0 0 1 .264.021c.057.01.105.021.131.029l.058-.266Zm-2.334-.045a1 1 0 0 0-.347.06.8.8 0 0 0-.298.185.9.9 0 0 0-.209.308 1.2 1.2 0 0 0-.079.438 1.3 1.3 0 0 0 .061.394.8.8 0 0 0 .187.308.8.8 0 0 0 .314.209 1.3 1.3 0 0 0 .464.075 1.8 1.8 0 0 0 .383-.038 1 1 0 0 0 .224-.063l-.046-.256a2 2 0 0 1-.187.055 1.5 1.5 0 0 1-.333.031.73.73 0 0 1-.523-.158.7.7 0 0 1-.193-.463v-.018h1.426v-.105a1.05 1.05 0 0 0-.22-.723.84.84 0 0 0-.624-.239m.496.82h-1.066v-.019a.8.8 0 0 1 .051-.199.5.5 0 0 1 .105-.175.5.5 0 0 1 .172-.123.5.5 0 0 1 .232-.048.47.47 0 0 1 .37.155.56.56 0 0 1 .13.392Zm-2.127-.005a9 9 0 0 1-.264.767l-.01.033-.017-.031a8.4 8.4 0 0 1-.487-1.191 7 7 0 0 1-.104-.346h-.366a8 8 0 0 0 .354.981 9 9 0 0 0 .469.934v.015a.8.8 0 0 1-.229.299.6.6 0 0 1-.353.093.6.6 0 0 1-.142-.017 1 1 0 0 1-.098-.029l-.06.245.039.012q.037.011.082.02l.092.015h.09a1 1 0 0 0 .29-.036.7.7 0 0 0 .228-.112.8.8 0 0 0 .187-.193 2 2 0 0 0 .164-.282c.135-.287.263-.602.38-.932s.219-.666.313-1.017h-.35q-.097.398-.208.772m-1.696-.617a.6.6 0 0 0-.243-.147 1.2 1.2 0 0 0-.372-.052 2 2 0 0 0-.36.027 1.3 1.3 0 0 0-.224.051l.038.251a2 2 0 0 1 .19-.044 2 2 0 0 1 .325-.025.6.6 0 0 1 .239.041.4.4 0 0 1 .149.104.4.4 0 0 1 .075.154.7.7 0 0 1 .021.171v.116h-.021l-.055-.011-.093-.017-.112-.015c-.039-.004-.079 0-.115 0a1.7 1.7 0 0 0-.333.033 1 1 0 0 0-.275.105.5.5 0 0 0-.185.179.5.5 0 0 0-.068.263.6.6 0 0 0 .059.276.5.5 0 0 0 .163.183.7.7 0 0 0 .25.105 1.5 1.5 0 0 0 .321.032c.081 0 .165 0 .248-.009s.161-.013.233-.02q.108-.011.193-.023l.12-.019v-1.193a1 1 0 0 0-.039-.292.5.5 0 0 0-.129-.224m-.16 1.486h-.012a1 1 0 0 1-.174.021h-.234a.73.73 0 0 1-.356-.074.28.28 0 0 1-.136-.271.26.26 0 0 1 .056-.17.4.4 0 0 1 .136-.105.6.6 0 0 1 .176-.047 1.7 1.7 0 0 1 .401 0 .5.5 0 0 1 .135.033h.009Zm-1.741-.056a.2.2 0 0 1-.056-.095.5.5 0 0 1-.017-.145v-1.827l-.339.053v1.83a.5.5 0 0 0 .138.389.73.73 0 0 0 .463.131l.046-.255a1 1 0 0 1-.132-.026.3.3 0 0 1-.103-.055m-1.055-1.357a.9.9 0 0 0-.322-.195 1.3 1.3 0 0 0-.426-.069 2.6 2.6 0 0 0-.455.035 8 8 0 0 0-.314.06v2.51h.34v-.778l.025.014a1 1 0 0 0 .202.084 1 1 0 0 0 .313.043 1 1 0 0 0 .393-.071.8.8 0 0 0 .287-.203.9.9 0 0 0 .179-.314 1.3 1.3 0 0 0 .06-.396 1.2 1.2 0 0 0-.072-.411.8.8 0 0 0-.21-.309m-.104.998a.6.6 0 0 1-.105.227.5.5 0 0 1-.192.152.7.7 0 0 1-.281.054.8.8 0 0 1-.285-.048.8.8 0 0 1-.2-.105h-.007v-1.229h.014a1 1 0 0 1 .151-.026 2 2 0 0 1 .264-.011.67.67 0 0 1 .491.185.73.73 0 0 1 .185.523 1.3 1.3 0 0 1-.04.278Zm7.137-3.649c0 .425.279.544.712.655.357.091.432.152.432.271v.007c0 .125-.116.202-.314.202a.98.98 0 0 1-.641-.26l-.279.333a1.36 1.36 0 0 0 .911.343c.462 0 .788-.24.788-.664v-.007c0-.373-.246-.529-.681-.643-.371-.094-.463-.139-.463-.28v-.01c0-.105.095-.186.276-.186a1 1 0 0 1 .558.209l.245-.355a1.25 1.25 0 0 0-.798-.272.67.67 0 0 0-.75.646Zm-.418-.203v-.419h-1.619v2.141h1.634v-.418h-1.165v-.451h1.012v-.419h-1.012v-.434Zm-2.577 1.718h.552l-.523-.765a.665.665 0 0 0 .461-.664v-.006c0-.442-.304-.707-.81-.707h-.982v2.142h.473v-.686h.371Zm-.831-1.717h.469c.23 0 .372.105.372.307v.006c0 .18-.132.302-.362.302h-.479Zm-1.531 1.721v-1.706h.654v-.435h-1.779v.435h.654v1.706Zm-2.427-2.157-.919 2.153h.481l.197-.48h.909l.195.48h.494l-.919-2.157Zm-.072 1.261.285-.695.285.695Zm8.011-7.598a.36.36 0 0 0-.146-.283L8.786 2.066a.35.35 0 0 0-.409 0l-5.342 3.84a.35.35 0 0 0 0 .568l4.948 3.555-4.948 3.555a.35.35 0 0 0 0 .567l5.34 3.846a.37.37 0 0 0 .209.066.36.36 0 0 0 .21-.067l10.68-7.683a.35.35 0 0 0 .145-.283M8.582 17.282l-4.743-3.409 4.946-3.555a.36.36 0 0 0 .146-.283.36.36 0 0 0-.146-.284L3.837 6.196l4.744-3.415 10.088 7.251Z"/></svg>