<svg xmlns="http://www.w3.org/2000/svg" viewBox="0 0 24 24"><path fill="#44739e" d="M14.139 8.417C11.623 6.35 8.927 4.643 6.77 3.744c-2.336-.988-3.954-.988-4.583 0-.09.18-.179.36-.179.539v.45c-.09 1.437.629 4.133 1.348 6.2 1.347 4.673.179 6.56.179 6.56-.359.359-.539.898-.539 1.437 0 1.079.809 1.888 1.797 1.977.45 0 .899-.179 1.168-.449 1.798-1.797 6.56-.898 6.74-.809.899.27 4.493 1.258 6.829 1.348.719 0 1.348-.09 1.708-.359.269-.18.449-.629.449-.629 1.528-2.337-2.786-7.638-7.548-11.592m-1.258 10.154c-4.763-1.078-7.908-5.392-8.807-7.908-.269-.808-.539-1.617-.718-2.336.089.09.179.27.269.359 1.438 2.067 3.684 4.404 6.2 6.47 2.157 1.798 4.404 3.235 6.381 4.224-1.169-.27-2.337-.539-3.325-.809m8.177.719c-.27.449-1.438.629-3.594-.36-2.067-.898-4.673-2.516-7.099-4.582-2.516-2.067-4.673-4.314-6.021-6.291C3.266 6.44 2.816 5.362 2.816 4.733v-.09c0-.18 0-.36.09-.45s.45-.269.989-.269c.629 0 1.437.18 2.606.719 2.066.898 4.672 2.516 7.099 4.583 5.661 4.582 8.177 8.986 7.458 10.064m-8.087-8.537c-2.516-2.156-5.033-3.415-5.572-2.785s.989 2.965 3.505 5.122 5.032 3.414 5.571 2.785c.629-.629-.988-2.965-3.504-5.122"/></svg>