<svg viewBox="0 0 24 24" height="24px" width="24px" fill="#44739e" xmlns="http://www.w3.org/2000/svg"><path d="M17.51,5.13c-1.88-1.55-3.89-2.82-5.52-3.5c-1.8-0.76-3.06-0.74-3.57,0.06C8.35,1.83,8.27,1.99,8.27,2.15v0.33 c-0.02,0.27,0,0.61,0.06,1.02l0.01,0.06L8.4,3.59c0.37,0.2,0.75,0.42,1.17,0.67l0.41,0.25L9.75,4.1C9.23,3.21,9.13,2.73,9.13,2.49 V2.42c0-0.09,0-0.22,0.03-0.25C9.18,2.15,9.4,2.01,9.8,2.01c0.51,0,1.12,0.17,1.89,0.53c1.65,0.72,3.57,1.95,5.26,3.4 c4.38,3.54,5.95,6.7,5.53,7.33c-0.13,0.22-0.8,0.37-2.1-0.14l-0.46-0.18l0.32,0.38c0.36,0.42,0.71,0.87,1.07,1.35l0.05,0.05 l0.09,0.01c0.64,0,1.08-0.1,1.34-0.29c0.23-0.15,0.37-0.49,0.37-0.5C24.36,12.1,21.07,8.09,17.51,5.13z M21.45,14.6L21.45,14.6 C21.45,14.6,21.45,14.6,21.45,14.6L21.45,14.6z M14.71,7.9L14.71,7.9c1.08,0.89,2.13,1.85,3.12,2.83l0.04,0.03c0.41,0.18,0.73,0.27,0.97,0.27 c0.19,0,0.32-0.05,0.41-0.15c0.1-0.1,0.14-0.23,0.14-0.4c-0.03-0.75-1.16-2.23-2.75-3.6c-1.7-1.46-3.8-2.68-4.33-2.06 c-0.28,0.33,0.05,1.01,0.37,1.52l0.03,0.03C13.42,6.88,14.09,7.39,14.71,7.9z M14.15,8.58c-2.8-2.3-5.8-4.2-8.2-5.2c-2.6-1.1-4.4-1.1-5.1,0c-0.1,0.2-0.2,0.4-0.2,0.6c0,0,0,0,0,0.1v0.1 c0,0.1,0,0.2,0,0.3c-0.1,1.6,0.7,4.6,1.5,6.9c1.5,5.2,0.2,7.3,0.2,7.3c-0.4,0.4-0.6,1-0.6,1.6c0,1.2,0.9,2.1,2,2.2 c0.5,0,1-0.2,1.3-0.5c2-2,7.3-1,7.5-0.9c1,0.3,5,1.4,7.6,1.5c0.8,0,1.5-0.1,1.9-0.4c0.3-0.2,0.5-0.7,0.5-0.7 C24.25,18.88,19.45,12.98,14.15,8.58z M12.75,19.88c-5.3-1.2-8.8-6-9.8-8.8c-0.3-0.9-0.6-1.8-0.8-2.6c0.1,0.1,0.2,0.3,0.3,0.4 c1.6,2.3,4.1,4.9,6.9,7.2c2.4,2,4.9,3.6,7.1,4.7C15.15,20.48,13.85,20.18,12.75,19.88z M21.85,20.68c-0.3,0.5-1.6,0.7-4-0.4 c-2.3-1-5.2-2.8-7.9-5.1c-2.8-2.3-5.2-4.8-6.7-7c-1.2-1.8-1.7-3-1.7-3.7v-0.1c0-0.2,0-0.4,0.1-0.5c0.1-0.1,0.5-0.3,1.1-0.3 c0.7,0,1.6,0.2,2.9,0.8c2.3,1,5.2,2.8,7.9,5.1C19.85,14.58,22.65,19.48,21.85,20.68z M12.85,11.18c-2.8-2.4-5.6-3.8-6.2-3.1c-0.6,0.7,1.1,3.3,3.9,5.7c2.8,2.4,5.6,3.8,6.2,3.1 C17.45,16.18,15.65,13.58,12.85,11.18z"/></svg>