<?xml version="1.0" encoding="UTF-8"?>
<svg width="24px" fill="#44739e" height="24px" viewBox="0 0 24 24" version="1.1" xmlns="http://www.w3.org/2000/svg" xmlns:xlink="http://www.w3.org/1999/xlink">
            <path d="m 15.724,19.5 v -1.959 h 0.433 c 0,0.036 0,0.071 0,0.106 0,0.463 0,0.926 0,1.389 0,0.079 0.022,0.1 0.1,0.1 0.291,0 0.583,0 0.874,0 a 0.1,0.1 0 0 1 0.11,0.077 c 0.029,0.094 0.068,0.185 0.106,0.287 z m -1.853,-1.566 h 0.407 v 1.124 a 0.426,0.426 0 0 1 -0.439,0.447 c -0.361,0 -0.721,0 -1.082,0 a 0.415,0.415 0 0 1 -0.429,-0.408 c 0,-0.37 0,-0.74 0,-1.11 a 0.39,0.39 0 0 1 0.006,-0.05 h 0.394 c 0,0.035 0,0.069 0,0.1 0,0.337 0,0.673 0,1.01 0,0.084 0.021,0.116 0.111,0.115 0.307,0 0.613,0 0.92,0 0.09,0 0.111,-0.032 0.11,-0.116 0,-0.336 0,-0.673 0,-1.01 z M 10.05,19.5 v -1.96 h 0.436 v 0.385 c 0.042,0 0.073,0 0.1,0 H 11.5 a 0.423,0.423 0 0 1 0.45,0.451 c 0,0.232 0,0.463 0,0.694 a 0.417,0.417 0 0 1 -0.41,0.428 c -0.481,0 -0.962,0 -1.443,0 A 0.409,0.409 0 0 1 10.048,19.49 Z m 0.446,-1.223 v 0.876 l 0.013,0.008 c 0.315,0 0.63,0 0.945,0 a 0.091,0.091 0 0 0 0.061,-0.064 q 0.007,-0.375 0,-0.748 a 0.1,0.1 0 0 0 -0.064,-0.072 c -0.315,0 -0.63,0 -0.956,0 z m 9.596,1.223 v -1.96 h 0.443 v 0.39 h 0.106 c 0.3,0 0.6,0 0.9,0 a 0.432,0.432 0 0 1 0.457,0.458 v 0.667 a 0.427,0.427 0 0 1 -0.446,0.449 q -0.685,0 -1.371,0 c -0.027,0 -0.053,0 -0.091,0 z m 0.451,-0.337 c 0.314,0 0.617,0 0.92,0 0.075,0 0.1,-0.023 0.1,-0.1 0,-0.231 0,-0.463 0,-0.694 0,-0.081 -0.03,-0.1 -0.106,-0.1 -0.276,0 -0.552,0 -0.828,0 -0.027,0 -0.053,0 -0.084,0 v 0.885 z M 6.619,19.506 H 6.508 c -0.49,0 -0.981,-0.012 -1.471,0 A 0.467,0.467 0 0 1 4.512,18.974 0.492,0.492 0 0 1 4.659,18.62 0.469,0.469 0 0 1 4.992,18.506 h 1.22 c 0.008,-0.013 0.014,-0.017 0.014,-0.022 0.012,-0.27 0.01,-0.218 -0.2,-0.22 -0.394,0 -0.788,0 -1.182,0 A 0.11,0.11 0 0 1 4.716,18.173 C 4.692,18.093 4.659,18.016 4.625,17.924 h 1.542 a 0.425,0.425 0 0 1 0.469,0.437 c 0.008,0.366 0,0.733 -0.006,1.1 A 0.226,0.226 0 0 1 6.619,19.499 Z M 6.227,18.851 H 6.122 c -0.331,0 -0.662,0 -0.993,0 -0.235,0 -0.2,-0.031 -0.206,0.206 0,0.083 0.023,0.109 0.107,0.108 0.37,0 0.74,0 1.109,0 0.029,0 0.057,0 0.088,-0.006 v -0.306 z m 13.048,-0.337 c 0.016,-0.162 -0.05,-0.243 -0.2,-0.243 -0.4,0 -0.794,0 -1.191,0 -0.057,0 -0.087,-0.014 -0.1,-0.071 -0.027,-0.088 -0.063,-0.174 -0.1,-0.271 h 0.1 c 0.478,0 0.957,0 1.435,0 a 0.436,0.436 0 0 1 0.476,0.476 V 19.5 l -0.1,0.006 h -1.58 a 0.429,0.429 0 0 1 -0.446,-0.433 c 0,-0.039 0,-0.078 0,-0.117 a 0.434,0.434 0 0 1 0.449,-0.441 h 1.258 z m 0,0.645 v -0.308 h -1.082 c -0.249,0 -0.209,-0.028 -0.216,0.216 0,0.076 0.025,0.1 0.1,0.1 0.376,0 0.752,0 1.128,0 0.023,0 0.046,0 0.071,-0.005 z M 9.677,19.5 H 9.246 v -0.1 c 0,-0.343 0,-0.686 0,-1.029 0,-0.074 -0.023,-0.1 -0.1,-0.1 -0.156,0.005 -0.313,0.005 -0.469,0 -0.08,0 -0.106,0.029 -0.106,0.106 0,0.34 0,0.68 0,1.02 v 0.1 H 8.143 v -0.1 c 0,-0.34 0,-0.68 0,-1.02 0,-0.083 -0.026,-0.112 -0.109,-0.109 -0.156,0.005 -0.313,0.005 -0.469,0 -0.075,0 -0.1,0.024 -0.1,0.1 0,0.34 0,0.68 0,1.02 V 19.5 c -0.137,0 -0.268,0 -0.4,0 -0.015,0 -0.039,-0.052 -0.039,-0.08 0,-0.376 0,-0.752 0,-1.128 v -0.361 h 0.1 q 1.047,0 2.093,0 a 0.421,0.421 0 0 1 0.457,0.421 c 0.013,0.372 0,0.745 0,1.118 A 0.13,0.13 0 0 1 9.666,19.5 Z M 2.434,17.809 c 0,-0.113 0.01,-0.226 0.016,-0.356 L 2,17.621 c 0,-0.138 0,-0.266 0,-0.393 a 0.063,0.063 0 0 1 0.036,-0.044 c 0.13,-0.052 0.261,-0.1 0.4,-0.155 v 0.415 c 0.043,0 0.077,0.005 0.112,0.005 0.3,0 0.608,0 0.911,0.015 a 0.645,0.645 0 0 1 0.619,0.49 0.57,0.57 0 0 1 -0.068,0.452 0.087,0.087 0 0 0 0.013,0.128 0.555,0.555 0 0 1 0.1,0.629 0.537,0.537 0 0 1 -0.511,0.341 c -0.517,0 -1.034,0 -1.551,0 A 0.541,0.541 0 0 1 2,19.498 c 0,-0.035 -0.005,-0.067 -0.005,-0.1 0,-0.445 0,-0.89 0,-1.335 A 0.108,0.108 0 0 1 2.078,17.939 C 2.198,17.9 2.314,17.85 2.432,17.804 v 0.483 c 0.343,0 0.667,0.006 0.99,0 A 0.224,0.224 0 0 0 3.627,18.043 0.233,0.233 0 0 0 3.411,17.807 c -0.327,-0.005 -0.655,0 -0.982,0 z m 0.011,1.34 a 0.1,0.1 0 0 0 0.028,0.012 c 0.337,0 0.674,0 1.011,0 A 0.26,0.26 0 0 0 3.478,18.642 c -0.324,-0.007 -0.649,0 -0.974,0 a 0.077,0.077 0 0 0 -0.057,0.047 c 0,0.155 0,0.311 0,0.461 z M 12.3,4.49 h 4.176 V 9.806 C 16.433,9.791 16.392,9.778 16.353,9.763 Q 14.371,8.982 12.39,8.203 A 0.122,0.122 0 0 1 12.298,8.066 q 0,-1.737 0,-3.473 v -0.1 z M 11.642,16.228 H 7.582 A 0.1,0.1 0 0 1 7.463,16.113 q 0,-1.732 0,-3.465 a 0.122,0.122 0 0 1 0.091,-0.137 q 2.009,-0.787 4.014,-1.58 c 0.022,-0.009 0.045,-0.014 0.076,-0.024 v 5.321 z M 7.468,4.49 h 4.172 c 0,0.03 0,0.056 0,0.082 0,0.1 0,0.2 0,0.3 q 0,2.607 0.006,5.214 a 0.14,0.14 0 0 1 -0.105,0.155 Q 9.56,11.016 7.574,11.8 c -0.032,0.013 -0.065,0.024 -0.106,0.038 z m 4.837,4.382 0.7,0.272 q 1.7,0.668 3.395,1.335 a 0.117,0.117 0 0 1 0.089,0.129 q 0,2.755 0,5.513 v 0.1 c -0.039,0 -0.068,0 -0.1,0 q -1.989,0 -3.979,0 c -0.082,0 -0.107,-0.02 -0.107,-0.1 q 0,-3.579 0,-7.156 c 0,-0.029 0,-0.058 0,-0.1 z"/>

</svg>
