<svg xmlns="http://www.w3.org/2000/svg" viewBox="0 0 24 24"><path fill="#44739e" d="M14.687 11.313c-.713 0-1.087.565-1.087 1.417 0 .8.4 1.409 1.087 1.409.774 0 1.07-.713 1.07-1.409 0-.73-.366-1.417-1.07-1.417"/><path fill="#44739e" d="M12 2C6.478 2 2 6.478 2 12s4.478 10 10 10 10-4.478 10-10S17.522 2 12 2m2.948 12.826c-.522 0-1.087-.13-1.339-.661h-.018v.548h-.808V9.217l-2.974 5.496H3.426l2.983-5.504h7.234v2.043h.018c.235-.382.713-.626 1.148-.626 1.217 0 1.808.957 1.808 2.122-.008 1.069-.53 2.078-1.669 2.078m3.887 0c-1.209 0-1.878-.887-1.878-2.061 0-1.208.634-2.148 1.904-2.148.896 0 1.661.461 1.739 1.444h-.852c-.07-.487-.409-.748-.878-.748-.444 0-1.061.244-1.061 1.452 0 .661.287 1.365 1.026 1.365.495 0 .835-.339.922-.913h.852c-.166 1.044-.783 1.609-1.774 1.609"/></svg>