<?xml version="1.0" encoding="utf-8"?>
<!-- Generator: Adobe Illustrator 24.3.0, SVG Export Plug-In . SVG Version: 6.00 Build 0)  -->
<svg version="1.1" id="Layer_1" xmlns="http://www.w3.org/2000/svg" xmlns:xlink="http://www.w3.org/1999/xlink" x="0px" y="0px"
	 viewBox="0 0 24 24" style="enable-background:new 0 0 24 24;" xml:space="preserve">
<g>
	<path d="M15.09,11.21c-0.82,0-1.25,0.65-1.25,1.63c0,0.92,0.46,1.62,1.25,1.62c0.89,0,1.23-0.82,1.23-1.62
		C16.32,12,15.9,11.21,15.09,11.21z"/>
	<polygon points="15.09,11.21 15.09,11.21 15.09,11.21 	"/>
	<path d="M12,0.5C5.65,0.5,0.5,5.65,0.5,12S5.65,23.5,12,23.5S23.5,18.35,23.5,12S18.35,0.5,12,0.5z M15.39,15.25
		c-0.6,0-1.25-0.15-1.54-0.76h-0.02v0.63H12.9V8.8l-3.42,6.32H2.14l3.43-6.33h7.34h0.01h0.97v2.35h0.02
		c0.27-0.44,0.82-0.72,1.32-0.72c1.4,0,2.08,1.1,2.08,2.44C17.3,14.09,16.7,15.25,15.39,15.25z M19.86,15.25
		c-1.39,0-2.16-1.02-2.16-2.37c0-1.39,0.73-2.47,2.19-2.47c1.03,0,1.91,0.53,2,1.66h-0.98l0,0c-0.08-0.56-0.47-0.86-1.01-0.86
		c-0.51,0-1.22,0.28-1.22,1.67c0,0.76,0.33,1.57,1.18,1.57c0.57,0,0.96-0.39,1.06-1.05h0.98C21.71,14.6,21,15.25,19.86,15.25z"/>
</g>
</svg>
