<svg xmlns="http://www.w3.org/2000/svg" viewBox="0 0 24 24"><path fill="#44739e" d="M15.252 10.374c-.504 0-1.069.278-1.339.73h-.017V8.722H5.47L2 15.139h7.435l3.469-6.4v6.409h.939v-.635h.018c.296.609.948.765 1.556.765 1.331 0 1.94-1.182 1.94-2.426 0-1.365-.687-2.478-2.105-2.478m-.13 4.087c-.8 0-1.261-.704-1.261-1.635 0-.991.426-1.643 1.261-1.643.817 0 1.243.8 1.243 1.643 0 .809-.339 1.635-1.243 1.635m4.817 0c-.861 0-1.191-.818-1.191-1.591 0-1.409.722-1.696 1.235-1.696.547 0 .947.304 1.026.869H22c-.096-1.139-.983-1.678-2.026-1.678-1.478 0-2.217 1.096-2.217 2.505 0 1.365.773 2.4 2.182 2.4 1.157 0 1.878-.67 2.061-1.87h-.991c-.096.67-.496 1.061-1.07 1.061"/></svg>