<svg xmlns="http://www.w3.org/2000/svg" viewBox="0 0 24 24"><path fill="#44739e" d="M20.926 9.334h.001A1.07 1.07 0 0 1 22 10.407v3.084a1.07 1.07 0 0 1-1.073 1.073h-.001a1.07 1.07 0 0 1-1.073-1.073v-3.084a1.07 1.07 0 0 1 1.073-1.073m-4.498 7.816H4.806A2.81 2.81 0 0 1 2 14.344V9.65a2.81 2.81 0 0 1 2.806-2.8h11.622a2.81 2.81 0 0 1 2.806 2.8v4.699a2.81 2.81 0 0 1-2.806 2.801M4.806 7.734A1.92 1.92 0 0 0 2.89 9.65v4.699a1.92 1.92 0 0 0 1.916 1.917h11.622a1.92 1.92 0 0 0 1.916-1.917V9.65a1.92 1.92 0 0 0-1.916-1.916Zm-.189.674H7.46c.636 0 1.148.512 1.148 1.148v4.786c0 .636-.512 1.148-1.148 1.148H4.617a1.145 1.145 0 0 1-1.148-1.148V9.556c0-.636.512-1.148 1.148-1.148"/></svg>