<svg xmlns="http://www.w3.org/2000/svg" viewBox="0 0 24 24"><path fill="#44739e" d="M16.803 11.132a.842.842 0 1 0 0-1.684h-.478v-.6h.477a.842.842 0 1 0 0-1.683h-.477V5.33A1.34 1.34 0 0 0 14.996 4h-1.671V2h-4v2H7.656a1.34 1.34 0 0 0-1.331 1.33v15.33A1.34 1.34 0 0 0 7.656 22h7.33a1.34 1.34 0 0 0 1.34-1.33v-7.26h.477a.842.842 0 1 0 0-1.683h-.478v-.6Zm0-1.384a.542.542 0 1 1 0 1.084h-1.178a.542.542 0 1 1 0-1.084Zm0-2.278a.542.542 0 1 1 0 1.083h-1.178a.542.542 0 1 1 0-1.083Zm-5.112 10.613a2.178 2.178 0 0 1-1.539-3.819c0-.188.034-7.2.034-7.454a1.43 1.43 0 0 1 1.505-1.41 1.4 1.4 0 0 1 1.465 1.41c0 .274.073 7.274.073 7.454a2.178 2.178 0 0 1-1.538 3.819m5.112-6.056a.542.542 0 1 1 0 1.083h-1.178a.542.542 0 1 1 0-1.083ZM11.691 6.21a.73.73 0 0 0-.712.75v5.76h1.424V6.96a.73.73 0 0 0-.712-.75"/></svg>