<svg xmlns="http://www.w3.org/2000/svg" width="31.997" height="31.997" viewBox="0 0 96 96">
  <path id="Colore_riempimento_1" fill="#44739e" data-name="Colore riempimento 1" class="cls-1" d="M13,28c18.857-.085,43.084-2.067,60,1,0.945,1.8,1.385,1.575,2,4,1.516,1.671,1,5.83,1,9,0.012,7.737.211,16.78-1,23-1.8.945-1.575,1.385-4,2-2.4,2.131-10.786,1-15,1-14.542,0-32.163,1.412-45-1-0.944-1.8-1.385-1.575-2-4-1.516-1.671-1-5.83-1-9-0.012-7.737-.211-16.78,1-23A13.3,13.3,0,0,0,13,28Zm1,4c-3.37,6.49-2.075,20.318-2,30,5.053,2.6,12.2,2,20,2H70c3.37-6.49,2.075-20.318,2-30a3.983,3.983,0,0,1-2-2H14Zm2,4h4V60H16V36Zm64,4h6c2.329,4.426,2.087,7.073,2,14-2.523,1.339-3.5,1.99-8,2V40Z"/>
</svg>
