<svg xmlns="http://www.w3.org/2000/svg" viewBox="0 0 24 24"><path fill="#44739e" d="M13.909 8.991c-.488.124-1.088.27-1.583.39-.428.1-.87.211-.927.23l-.457.133.167-.414.01-.029c.063-.165.173-.466.3-.818.389-1.058.715-2.033.855-2.373h-2.159L9.8 7.524l-1.04 4.034 2.984-.768-1.958 7.1c1.252-2.569 4.06-8.77 4.089-8.829Zm7.018.246a1.077 1.077 0 0 0-1.074 1.073v3.09a1.074 1.074 0 0 0 2.147 0v-3.09a1.076 1.076 0 0 0-1.073-1.073m-4.499-2.489h-3.885c-.091.236-.21.554-.335.889h4.22a1.92 1.92 0 0 1 1.916 1.916v4.695a1.92 1.92 0 0 1-1.916 1.917h-5.517l-.433.889h5.95a2.81 2.81 0 0 0 2.806-2.806V9.553a2.81 2.81 0 0 0-2.806-2.805m-13.538 7.5V9.553a1.92 1.92 0 0 1 1.916-1.916h4.506l.056-.217.15-.672H4.806A2.81 2.81 0 0 0 2 9.553v4.695a2.81 2.81 0 0 0 2.806 2.806h4.968l.215-.889H4.806a1.92 1.92 0 0 1-1.916-1.917m5.253-2.071.995-3.866h-3.76a1.915 1.915 0 0 0-1.909 1.909v3.266a1.914 1.914 0 0 0 1.909 1.908h4.8l.963-3.989Zm6.124-2.93c-.113.257-.635 1.33-2.981 6.147h4.474a1.914 1.914 0 0 0 1.909-1.908V10.22a1.915 1.915 0 0 0-1.909-1.909h-3.8l-.12.326-.164.445.544-.133c.667-.162 1.527-.37 2.038-.509l.467-.127-.447.939Z"/></svg>