<svg xmlns="http://www.w3.org/2000/svg" viewBox="0 0 24 24"><path fill="#44739e" d="m7.772 7.456-.463.55h.411a1.6 1.6 0 0 0 .8-.214 1.7 1.7 0 0 0 .6-.59 4.77 4.77 0 0 1 3.08-1.186 5.02 5.02 0 0 1 3.559 1.064 1.8 1.8 0 0 0 .546.506 1.9 1.9 0 0 0 .939.244l.289-.267a4.4 4.4 0 0 1-.866-.433l-.07-.042a1.2 1.2 0 0 1-.38-.36c-.506-.69-2.3-1.389-4.053-1.288-1.466.088-3.087.76-3.54 1.465a1.1 1.1 0 0 1-.386.386 1.2 1.2 0 0 1-.466.165m2.306 6.65c-.08 0-.137.1-.137.28s.054.274.136.274.138-.108.138-.28-.043-.274-.137-.274m1.801-1.424h-2.29a.61.61 0 0 0-.61.61v1.066a.61.61 0 0 0 .61.61h2.29a.61.61 0 0 0 .609-.61v-1.067a.61.61 0 0 0-.609-.609m-2.122 2.037h-.429v-.055l.072-.065c.172-.163.249-.25.251-.352a.12.12 0 0 0-.134-.13.23.23 0 0 0-.142.056l-.029-.064a.3.3 0 0 1 .19-.069.19.19 0 0 1 .206.2c0 .124-.091.224-.232.361l-.054.05h.3Zm.315.012c-.131 0-.22-.124-.222-.346s.1-.35.234-.35.222.126.222.341-.085.355-.234.355m.531 0c-.132 0-.221-.124-.223-.346s.1-.35.234-.35.223.126.223.341-.086.355-.237.355Zm.531 0c-.132 0-.221-.124-.223-.346s.1-.35.234-.35.223.126.223.341-.086.355-.234.355m.856-.012h-.084l-.076-.238c-.017-.057-.032-.106-.045-.165a2 2 0 0 1-.046.165l-.081.238h-.082l-.152-.5h.094l.066.254q.022.083.038.16.019-.077.045-.159l.081-.255h.077l.078.25q.027.089.044.164a1 1 0 0 1 .038-.163l.071-.25h.09Zm-1.382-.613c-.079 0-.137.1-.137.28s.053.274.137.274.137-.108.137-.28-.045-.274-.137-.274m.531 0c-.079 0-.137.1-.137.28s.054.274.137.274.137-.108.137-.28-.042-.274-.137-.274m5.375-2.668h.448v-.2h-2.035v.2h.417l-.331.2a2.06 2.06 0 0 0-.965 1.76 2 2 0 0 0 1.335 1.93l.075.024v.072h.942v-.072l.075-.025a2 2 0 0 0 1.334-1.928 2.06 2.06 0 0 0-.964-1.76Zm-10.577 0h.448v-.2H4.351v.2h.417l-.332.2a2.06 2.06 0 0 0-.965 1.761 2 2 0 0 0 1.335 1.93l.075.024v.072h.942v-.072l.075-.025a2 2 0 0 0 1.336-1.929 2.06 2.06 0 0 0-.966-1.759Zm4.061 5.755h.338c.018 0 .033.014.033.032v.018a.033.033 0 0 1-.033.033h-.338a.033.033 0 0 1-.033-.032v-.018c0-.019.015-.034.033-.034m1.52-.453a.042.042 0 1 0 0-.084h-.559a.042.042 0 1 0 0 .084Zm-1.071 0a.042.042 0 1 0 0-.084h-.559a.042.042 0 1 0 0 .084Zm-1.299.146a.486.451 90 0 1-.451.486.486.451 90 0 1-.451-.486.486.451 90 0 1 .451-.486.486.451 90 0 1 .451.486m12.351-10.04-4.948.023a1 1 0 0 0 .119.095l.071.043a3.2 3.2 0 0 0 .945.438h.189l-.575.531h-.028a2.03 2.03 0 0 1-1.04-.264 1.9 1.9 0 0 1-.589-.544 1.4 1.4 0 0 0-.359-.292L9.7 6.9a1.5 1.5 0 0 0-.454.38 1.84 1.84 0 0 1-.646.638 1.8 1.8 0 0 1-.876.232H7l.707-.839h.046a1 1 0 0 0 .414-.148.85.85 0 0 0 .28-.26l-2.191.01a2.46 2.46 0 0 0-1.2.321L2.435 9.199a2.47 2.47 0 0 1 1.573-.351h13.581a1.63 1.63 0 0 1 1.714 1.8l-.024 6.363c0 1.03-.545 1.194-.765 1.5l3.207-2.864a.27.27 0 0 0 .064-.166l.214-8.016c.005-.22-.007-.575-.5-.619m-2.34 10.263v-6.652A1.46 1.46 0 0 0 17.699 9H3.461A1.46 1.46 0 0 0 2 10.457v6.652a1.46 1.46 0 0 0 1.461 1.461h14.238a1.46 1.46 0 0 0 1.46-1.46M6.04 15.51v.134H4.664v-.134a2.22 2.22 0 0 1-1.41-2.109 2.3 2.3 0 0 1 .88-1.815v-.565H6.6v.59a2.3 2.3 0 0 1 .849 1.79 2.22 2.22 0 0 1-1.409 2.108Zm2.566 1.938a.556.556 0 1 1 .578-.557.567.567 0 0 1-.578.555Zm1.8-.126h-.473a.088.088 0 0 1 0-.175h.467a.088.088 0 1 1 0 .175Zm.179-.43h-.831v-.3h.826Zm.892.43H11a.088.088 0 0 1 0-.175h.468a.088.088 0 1 1 0 .175Zm.179-.43h-.826v-.3h.826Zm1.071-2.348a.585.585 0 0 1-.585.585H9.286a.584.584 0 0 1-.584-.585v-1.506a.584.584 0 0 1 .584-.585h2.851a.585.585 0 0 1 .585.585Zm3.9.963v.135h-1.386v-.135a2.22 2.22 0 0 1-1.41-2.108 2.3 2.3 0 0 1 .879-1.815v-.565h2.469v.59a2.3 2.3 0 0 1 .847 1.79 2.22 2.22 0 0 1-1.409 2.107Zm-5.558 1.685h.338c.018 0 .033.015.033.033v.018a.033.033 0 0 1-.033.033h-.338a.033.033 0 0 1-.033-.033v-.018c0-.018.015-.033.033-.033"/></svg>