<svg xmlns="http://www.w3.org/2000/svg" width="24" height="24" viewBox="0 0 24 24">
  <path id="Colore_riempimento_1" fill="#44739e" data-name="Colore riempimento 1" class="cls-1" d="m 20.926001,9.3360004 h 0.001 c 0.594442,0 1.073,0.478558 1.073,1.0729996 v 3.085 c 0,0.594442 -0.478558,1.073 -1.073,1.073 h -0.001 c -0.594442,0 -1.073,-0.478558 -1.073,-1.073 v -3.085 c 0,-0.5944416 0.478558,-1.0729996 1.073,-1.0729996 z M 16.428,17.153 H 4.806 A 2.809,2.809 0 0 1 2,14.347 V 9.652 a 2.809,2.809 0 0 1 2.806,-2.8 h 11.622 a 2.809,2.809 0 0 1 2.806,2.8 v 4.7 a 2.809,2.809 0 0 1 -2.806,2.801 z M 4.806,7.736 A 1.918,1.918 0 0 0 2.89,9.652 v 4.7 a 1.918,1.918 0 0 0 1.916,1.917 h 11.622 a 1.919,1.919 0 0 0 1.916,-1.917 v -4.7 A 1.919,1.919 0 0 0 16.428,7.736 Z M 4.6170001,8.4099998 H 7.46 c 0.635992,0 1.148,0.512008 1.148,1.148 V 14.345 c 0,0.635992 -0.512008,1.148 -1.148,1.148 H 4.6170001 c -0.635992,0 -1.148,-0.512008 -1.148,-1.148 V 9.5579998 c 0,-0.635992 0.512008,-1.148 1.148,-1.148 z"/>
</svg>
