<svg xmlns="http://www.w3.org/2000/svg" viewBox="0 0 24 24"><path fill="#44739e" d="M20.927 9.333a1.077 1.077 0 0 0-1.074 1.073v3.086a1.074 1.074 0 0 0 2.147 0v-3.086a1.076 1.076 0 0 0-1.073-1.073m-4.499-2.489H4.806A2.81 2.81 0 0 0 2 9.649v4.701a2.81 2.81 0 0 0 2.806 2.806h11.622a2.81 2.81 0 0 0 2.806-2.806V9.649a2.81 2.81 0 0 0-2.806-2.804m1.916 7.5a1.92 1.92 0 0 1-1.916 1.916H4.806a1.92 1.92 0 0 1-1.916-1.916V9.649a1.917 1.917 0 0 1 1.916-1.915h11.622a1.92 1.92 0 0 1 1.916 1.915ZM4.188 8.407h.579c.398 0 .719.32.719.719v5.645c0 .398-.32.719-.719.719h-.579a.717.717 0 0 1-.719-.719V9.126c0-.398.32-.719.719-.719"/></svg>