<?xml version="1.0" encoding="UTF-8"?>
<svg width="24px" fill="#44739e" height="24px" viewBox="0 0 24 24" version="1.1" xmlns="http://www.w3.org/2000/svg" xmlns:xlink="http://www.w3.org/1999/xlink">
            <path d="m 7.766012,7.7074966 -0.463,0.549 h 0.411 a 1.627,1.627 0 0 0 0.8,-0.213 1.7,1.7 0 0 0 0.6,-0.591 4.771,4.771 0 0 1 3.08,-1.185 5.017,5.017 0 0 1 3.559,1.064 1.8,1.8 0 0 0 0.546,0.506 1.877,1.877 0 0 0 0.939,0.244 l 0.289,-0.267 a 4.373,4.373 0 0 1 -0.866,-0.433 l -0.07,-0.042 a 1.243,1.243 0 0 1 -0.38,-0.36 c -0.506,-0.691 -2.3,-1.389 -4.053,-1.288 -1.466,0.088 -3.087,0.759 -3.54,1.465 a 1.117,1.117 0 0 1 -0.386,0.386 1.181,1.181 0 0 1 -0.466,0.165 z m 2.306,6.6509994 c -0.08,0 -0.1370003,0.1 -0.1370003,0.28 0,0.18 0.054,0.274 0.1360003,0.274 0.082,0 0.138,-0.108 0.138,-0.28 0,-0.172 -0.043,-0.274 -0.137,-0.274 z m 1.801,-1.424 h -2.29 a 0.609,0.609 0 0 0 -0.61,0.609 v 1.067 a 0.609,0.609 0 0 0 0.61,0.609 h 2.29 a 0.608,0.608 0 0 0 0.609,-0.609 v -1.067 a 0.608,0.608 0 0 0 -0.609,-0.609 z m -2.122,2.037 h -0.429 v -0.055 l 0.072,-0.065 c 0.172,-0.163 0.249,-0.25 0.251,-0.352 a 0.12,0.12 0 0 0 -0.134,-0.131 0.226,0.226 0 0 0 -0.142,0.057 l -0.029,-0.064 a 0.289,0.289 0 0 1 0.19,-0.069 0.19,0.19 0 0 1 0.206,0.2 c 0,0.124 -0.091,0.224 -0.232,0.361 l -0.054,0.05 v 0 h 0.3 z m 0.315,0.012 c -0.1310003,0 -0.22,-0.124 -0.222,-0.346 -0.002,-0.222 0.1,-0.35 0.234,-0.35 0.134,0 0.222,0.126 0.222,0.341 0,0.215 -0.085,0.355 -0.234,0.355 z m 0.531,0 c -0.132,0 -0.221,-0.124 -0.223,-0.346 -0.002,-0.222 0.1,-0.35 0.234,-0.35 0.134,0 0.223,0.126 0.223,0.341 0,0.215 -0.086,0.355 -0.237,0.355 z m 0.531,0 c -0.132,0 -0.221,-0.124 -0.223,-0.346 -0.002,-0.222 0.1,-0.35 0.234,-0.35 0.134,0 0.223,0.126 0.223,0.341 0,0.215 -0.086,0.355 -0.234,0.355 z m 0.856,-0.012 h -0.084 l -0.076,-0.238 c -0.017,-0.057 -0.032,-0.106 -0.045,-0.165 v 0 a 1.461,1.461 0 0 1 -0.046,0.165 l -0.081,0.238 h -0.082 l -0.152,-0.5 h 0.094 l 0.066,0.254 c 0.014,0.056 0.028,0.108 0.038,0.16 v 0 c 0.012,-0.051 0.028,-0.105 0.045,-0.159 l 0.081,-0.255 h 0.077 l 0.078,0.25 c 0.018,0.06 0.033,0.113 0.044,0.164 v 0 a 1.178,1.178 0 0 1 0.038,-0.163 l 0.071,-0.251 h 0.09 z m -1.382,-0.613 c -0.079,0 -0.137,0.1 -0.137,0.28 0,0.18 0.053,0.274 0.137,0.274 0.084,0 0.137,-0.108 0.137,-0.28 0,-0.172 -0.045,-0.274 -0.137,-0.274 z m 0.531,0 c -0.079,0 -0.137,0.1 -0.137,0.28 0,0.18 0.054,0.274 0.137,0.274 0.083,0 0.137,-0.108 0.137,-0.28 0,-0.172 -0.042,-0.274 -0.137,-0.274 z m 5.375,-2.668 h 0.448 v -0.2 h -2.035 v 0.2 h 0.417 l -0.331,0.2 a 2.056,2.056 0 0 0 -0.965,1.76 2,2 0 0 0 1.335,1.929 l 0.075,0.025 v 0.072 h 0.942 v -0.072 l 0.075,-0.025 a 2,2 0 0 0 1.335,-1.928 2.056,2.056 0 0 0 -0.965,-1.76 z m -10.577,0 h 0.448 v -0.2 h -2.034 v 0.2 h 0.417 l -0.332,0.2 a 2.057,2.057 0 0 0 -0.965,1.761 2,2 0 0 0 1.335,1.929 l 0.075,0.025 v 0.072 h 0.942 v -0.072 l 0.075,-0.025 a 2,2 0 0 0 1.336,-1.929 2.056,2.056 0 0 0 -0.966,-1.759 z m 4.061,5.754004 h 0.338 c 0.01828,0 0.033,0.01472 0.033,0.033 v 0.018 c 0,0.01828 -0.01472,0.033 -0.033,0.033 h -0.338 c -0.018282,0 -0.033,-0.01472 -0.033,-0.033 v -0.018 c 0,-0.01828 0.014718,-0.033 0.033,-0.033 z m 1.52,-0.452004 a 0.042,0.042 0 1 0 0,-0.084 h -0.559 a 0.042,0.042 0 1 0 0,0.084 z m -1.071,0 a 0.042,0.042 0 1 0 0,-0.084 h -0.559 a 0.042,0.042 0 1 0 0,0.084 z m -1.2990006,0.146 a 0.45100001,0.486 0 0 1 -0.451,0.486 0.45100001,0.486 0 0 1 -0.451,-0.486 0.45100001,0.486 0 0 1 0.451,-0.486 0.45100001,0.486 0 0 1 0.451,0.486 z M 21.494012,7.0964966 l -4.949,0.023 a 0.84,0.84 0 0 0 0.119,0.095 l 0.071,0.043 a 3.21,3.21 0 0 0 0.946,0.438 h 0.189 l -0.576,0.531 h -0.028 a 2.028,2.028 0 0 1 -1.04,-0.264 1.937,1.937 0 0 1 -0.589,-0.544 1.361,1.361 0 0 0 -0.359,-0.292 l -5.584,0.025 a 1.457,1.457 0 0 0 -0.454,0.379 1.84,1.84 0 0 1 -0.646,0.639 1.772,1.772 0 0 1 -0.876,0.232 h -0.724 l 0.707,-0.839 h 0.036 0.01 a 0.99,0.99 0 0 0 0.414,-0.148 0.851,0.851 0 0 0 0.28,-0.26 l -2.191,0.01 a 2.463,2.463 0 0 0 -1.2,0.321 l -2.621,1.9659995 a 2.474,2.474 0 0 1 1.573,-0.352 h 13.582 a 1.63,1.63 0 0 1 1.714,1.7999999 l -0.024,6.363 c 0,1.029 -0.545,1.194 -0.765,1.5 l 3.207,-2.864 a 0.266,0.266 0 0 0 0.064,-0.166 l 0.214,-8.0169994 c 0.005,-0.22 -0.007,-0.575 -0.5,-0.619 z m -2.34,10.2639994 v -6.652 a 1.46,1.46 0 0 0 -1.46,-1.4569999 h -14.239 a 1.46,1.46 0 0 0 -1.461,1.4569999 v 6.652 a 1.461,1.461 0 0 0 1.461,1.461 h 14.239 a 1.461,1.461 0 0 0 1.46,-1.461 z m -13.12,-1.6 v 0.134 h -1.376 v -0.134 a 2.219,2.219 0 0 1 -1.41,-2.109 2.292,2.292 0 0 1 0.88,-1.815 v -0.565 h 2.466 v 0.589 a 2.292,2.292 0 0 1 0.849,1.79 2.22,2.22 0 0 1 -1.409,2.109 z m 2.566,1.939 a 0.556,0.556 0 1 1 0.578,-0.556 0.567,0.567 0 0 1 -0.578,0.555 z m 1.8,-0.125 h -0.473 a 0.088,0.088 0 0 1 0,-0.175 h 0.467 a 0.088,0.088 0 1 1 0,0.175 z m 0.179,-0.431 h -0.831 v -0.3 h 0.826 z m 0.892,0.431 h -0.477 a 0.088,0.088 0 0 1 0,-0.175 h 0.468 a 0.088,0.088 0 1 1 0,0.175 z m 0.179,-0.431 h -0.826 v -0.3 h 0.826 z m 1.071,-2.347 a 0.585,0.585 0 0 1 -0.585,0.585 h -2.856 a 0.584,0.584 0 0 1 -0.584,-0.585 v -1.506 a 0.584,0.584 0 0 1 0.584,-0.585 h 2.851 a 0.585,0.585 0 0 1 0.585,0.585 z m 3.9,0.963 v 0.135 h -1.386 v -0.135 a 2.218,2.218 0 0 1 -1.41,-2.108 2.292,2.292 0 0 1 0.879,-1.815 v -0.565 h 2.469 v 0.59 a 2.291,2.291 0 0 1 0.848,1.79 2.218,2.218 0 0 1 -1.41,2.107 z m -5.558,1.685004 h 0.338 c 0.01828,0 0.033,0.01472 0.033,0.033 v 0.018 c 0,0.01828 -0.01472,0.033 -0.033,0.033 h -0.338 c -0.01828,0 -0.033,-0.01472 -0.033,-0.033 v -0.018 c 0,-0.01828 0.01472,-0.033 0.033,-0.033 z"/>

</svg>
