<svg xmlns="http://www.w3.org/2000/svg" viewBox="0 0 24 24"><path fill="#44739e" d="M19.967 8.32a2.374 2.374 0 0 0-2.083-1.955 93 93 0 0 0-11.768 0A2.374 2.374 0 0 0 4.034 8.32a31 31 0 0 0 0 7.042 2.374 2.374 0 0 0 2.082 1.971 93 93 0 0 0 11.768 0 2.374 2.374 0 0 0 2.083-1.971 31 31 0 0 0 0-7.042m-3.95 7.6a.39.39 0 0 1-.404.404h-7.22a.39.39 0 0 1-.404-.404.39.39 0 0 1 .404-.371h7.215a.39.39 0 0 1 .404.371Zm1.478-1.151H6.512a.391.391 0 0 1 0-.799h10.983a.391.391 0 0 1 0 .799m1.576-9.84A10 10 0 1 0 4.929 19.071 9.92 9.92 0 0 0 12 22a10 10 0 0 0 7.07-17.071ZM12 21.531A9.531 9.531 0 1 1 21.531 12 9.54 9.54 0 0 1 12 21.531"/></svg>