<svg xmlns="http://www.w3.org/2000/svg" viewBox="0 0 24 24"><path fill="#44739e" d="M19.951 8.336a2.374 2.374 0 0 0-2.083-1.955 93 93 0 0 0-11.752 0 2.374 2.374 0 0 0-2.082 1.955 31 31 0 0 0 0 7.041 2.374 2.374 0 0 0 2.082 1.956 93 93 0 0 0 11.752 0 2.374 2.374 0 0 0 2.083-1.956 31 31 0 0 0 0-7.041m-3.95 7.6a.39.39 0 0 1-.388.388H8.377a.39.39 0 0 1-.388-.388.39.39 0 0 1 .388-.387h7.231a.39.39 0 0 1 .388.387Zm1.494-1.167H6.496a.391.391 0 0 1 0-.783h10.999a.391.391 0 0 1 0 .783m1.576-9.84A10 10 0 1 0 4.929 19.071 9.92 9.92 0 0 0 12 22a10 10 0 0 0 7.07-17.071ZM12 21.531A9.531 9.531 0 1 1 21.531 12 9.54 9.54 0 0 1 12 21.531"/></svg>