<svg xmlns="http://www.w3.org/2000/svg" viewBox="0 0 24 24"><path fill="#44739e" d="M19.961 8.326a2.374 2.374 0 0 0-2.083-1.955 93 93 0 0 0-11.762 0 2.374 2.374 0 0 0-2.082 1.955 31 31 0 0 0 0 7.041 2.374 2.374 0 0 0 2.082 1.966 93 93 0 0 0 11.762 0 2.374 2.374 0 0 0 2.083-1.966 31 31 0 0 0 0-7.041m-3.95 7.6a.39.39 0 0 1-.398.398H8.387a.39.39 0 0 1-.398-.398.39.39 0 0 1 .398-.377h7.221a.39.39 0 0 1 .398.377Zm1.484-1.157H6.506a.391.391 0 0 1 0-.793h10.989a.391.391 0 0 1 0 .793m1.576-9.84A10 10 0 1 0 4.929 19.071 9.92 9.92 0 0 0 12 22a10 10 0 0 0 7.07-17.071ZM12 21.531A9.531 9.531 0 1 1 21.531 12 9.54 9.54 0 0 1 12 21.531"/></svg>