<svg xmlns="http://www.w3.org/2000/svg" viewBox="0 0 24 24"><path fill="#44739e" d="M19.973 8.314a2.374 2.374 0 0 0-2.083-1.955 93 93 0 0 0-11.774 0 2.374 2.374 0 0 0-2.082 1.955 31 31 0 0 0 0 7.042 2.374 2.374 0 0 0 2.082 1.977 93 93 0 0 0 11.774 0 2.374 2.374 0 0 0 2.083-1.977 31 31 0 0 0 0-7.042m-3.95 7.6a.39.39 0 0 1-.41.41H8.399a.39.39 0 0 1-.41-.41.39.39 0 0 1 .41-.365h7.209a.39.39 0 0 1 .41.365Zm1.472-1.145H6.518a.391.391 0 0 1 0-.805h10.977a.391.391 0 0 1 0 .805m1.576-9.84A10 10 0 1 0 4.929 19.071 9.92 9.92 0 0 0 12 22a10 10 0 0 0 7.07-17.071ZM12 21.531A9.531 9.531 0 1 1 21.531 12 9.54 9.54 0 0 1 12 21.531"/></svg>