<svg xmlns="http://www.w3.org/2000/svg" viewBox="0 0 24 24"><path fill="#44739e" d="M19.976 8.336a2.37 2.37 0 0 0-2.08-1.952 93 93 0 0 0-11.755 0 2.37 2.37 0 0 0-2.079 1.952 31 31 0 0 0 0 7.031 2.37 2.37 0 0 0 2.079 1.973 93 93 0 0 0 11.755 0 2.37 2.37 0 0 0 2.08-1.973 31 31 0 0 0 0-7.031m-3.944 7.588a.39.39 0 0 1-.409.409H8.42a.39.39 0 0 1-.409-.409.39.39 0 0 1 .409-.365h7.198a.39.39 0 0 1 .409.365Zm1.47-1.144H6.542a.39.39 0 0 1 0-.803h10.96a.39.39 0 0 1 0 .803m1.574-9.824a9.984 9.984 0 1 0-14.12 14.12A9.9 9.9 0 0 0 12.016 22a9.984 9.984 0 0 0 7.059-17.044Zm-7.06 16.576a9.516 9.516 0 1 1 9.516-9.516 9.525 9.525 0 0 1-9.516 9.516"/></svg>