<?xml version="1.0" encoding="UTF-8" standalone="no"?>
<svg
   version="1.1"
   width="24"
   height="24"
   viewBox="0 0 24 24"
   xmlns="http://www.w3.org/2000/svg"
   xmlns:svg="http://www.w3.org/2000/svg">
   <path
     d="M 12,2 C 6.4771725,2 2,6.4771725 2,12 2,17.522828 6.4771725,22 12,22 17.522828,22 22,17.522828 22,12 22,6.4771725 17.522828,2 12,2 Z m -0.0082,4.0559895 c 2.005471,0 4.010169,0.06293 6.015625,0.1904298 1.016757,0.069919 2.01095,0.9821152 2.133789,2.0019532 0.273839,2.4034735 0.273839,4.8068125 0,7.2102865 -0.122839,1.019877 -1.117072,1.932033 -2.133789,2.001953 -4.010911,0.255 -8.0219258,0.255 -12.0328775,0 -1.0167017,-0.06987 -2.0093461,-0.982076 -2.132146,-2.001953 -0.2738792,-2.403474 -0.2738792,-4.806813 0,-7.2102865 C 3.9652476,7.2285345 4.9578922,6.3163385 5.9746094,6.2464193 7.9800854,6.1189194 9.9863915,6.0559895 11.991862,6.0559895 Z M 6.3619792,14.034505 c -0.2199998,0 -0.4003907,0.18039 -0.4003907,0.40039 0,0.21996 0.1803909,0.400391 0.4003907,0.400391 H 17.621745 c 0.22,0 0.40039,-0.180431 0.40039,-0.400391 0,-0.22 -0.18039,-0.40039 -0.40039,-0.40039 z m 1.9270833,1.599935 c -0.2180796,0 -0.3971354,0.179055 -0.3971354,0.397135 0,0.21808 0.1790558,0.395509 0.3971354,0.395509 h 7.4055995 c 0.218079,0 0.397134,-0.177429 0.397134,-0.395509 0,-0.21808 -0.179055,-0.397135 -0.397134,-0.397135 z"
     style="fill:#44739e"/>
</svg>
