<svg xmlns="http://www.w3.org/2000/svg" viewBox="0 0 24 24"><path fill="#44739e" d="M19.961 8.351a2.37 2.37 0 0 0-2.08-1.952 93 93 0 0 0-11.74 0 2.37 2.37 0 0 0-2.079 1.952 31 31 0 0 0 0 7.03 2.37 2.37 0 0 0 2.079 1.959 93 93 0 0 0 11.74 0 2.37 2.37 0 0 0 2.08-1.959 31 31 0 0 0 0-7.03m-3.944 7.588a.39.39 0 0 1-.394.394H8.405a.39.39 0 0 1-.394-.394.39.39 0 0 1 .394-.38h7.213a.39.39 0 0 1 .394.38Zm1.485-1.159H6.527a.39.39 0 0 1 0-.788h10.975a.39.39 0 0 1 0 .788m1.574-9.824a9.984 9.984 0 1 0-14.12 14.12A9.9 9.9 0 0 0 12.016 22a9.984 9.984 0 0 0 7.059-17.044Zm-7.06 16.576a9.516 9.516 0 1 1 9.516-9.516 9.525 9.525 0 0 1-9.516 9.516"/></svg>