<?xml version="1.0" encoding="UTF-8"?>
<svg width="24px" fill="#44739e" height="24px" viewBox="0 0 24 24" version="1.1" xmlns="http://www.w3.org/2000/svg" xmlns:xlink="http://www.w3.org/1999/xlink">
            <path d="M 12,2 A 10,10 0 1 0 21.994,12 10,10 0 0 0 12,2 Z m 5.365,16.245 H 6.329 l 5.7,-6.688 c 0.811,-0.916 1.252,-1.539 1.252,-2.2 A 1.177,1.177 0 0 0 12.2,8.106 1.347,1.347 0 0 0 10.975,9.448 L 10.946,9.976 H 7.293 l 0.03,-0.587 a 4.081,4.081 0 0 1 0.711,-2.332 4.686,4.686 0 0 1 4.2,-2.215 c 3.108,0 5.038,1.639 5.038,4.278 A 4.207,4.207 0 0 1 16,12.109 L 13.736,14.7 h 3.63 z"/>

</svg>