<?xml version="1.0" encoding="UTF-8"?>
<svg width="24px" fill="#44739e" height="24px" viewBox="0 0 24 24" version="1.1" xmlns="http://www.w3.org/2000/svg" xmlns:xlink="http://www.w3.org/1999/xlink">
            <path d="m 5.578,10.571 h 12.844 a 0.72,0.72 0 0 0 0.721,-0.72 V 6.286 A 1.429,1.429 0 0 0 17.714,4.857 H 6.286 A 1.429,1.429 0 0 0 4.857,6.286 v 3.565 a 0.72,0.72 0 0 0 0.721,0.72 z M 13.429,7.714 H 17 a 0.715,0.715 0 0 1 0,1.429 h -3.571 a 0.715,0.715 0 1 1 0,-1.429 z M 7,7.714 h 3.571 a 0.715,0.715 0 1 1 0,1.429 H 7 A 0.715,0.715 0 0 1 7,7.714 Z M 19.143,12 H 4.857 A 2.857,2.857 0 0 0 2,14.857 v 1.429 A 0.713,0.713 0 0 0 2.714,17 h 0.715 v 0.714 a 1.429,1.429 0 1 0 2.857,0 V 17 h 6.758 A 5,5 0 0 1 22,15.016 V 14.857 A 2.857,2.857 0 0 0 19.143,12 Z"/>

</svg>