<svg xmlns="http://www.w3.org/2000/svg" viewBox="0 0 24 24"><path fill="#44739e" d="M10.661 12.979a2 2 0 0 0 1.346.372c.666-.015 1.286-.229 1.286-.848a.73.73 0 0 0-.516-.61c-.072-.024-.056-.1 0-.119a.76.76 0 0 0 .365-.571c0-.3-.317-.753-1.23-.753a1.84 1.84 0 0 0-1.26.388.33.33 0 0 1 .134.23v1.641a.47.47 0 0 1-.125.27m1.285-2.183a.462.462 0 1 1-.42.46.443.443 0 0 1 .42-.46m.055 1.2a.5.5 0 1 1-.485.5.49.49 0 0 1 .485-.5m1.75 1.32a1.73 1.73 0 0 0 .76-1.376 1.72 1.72 0 0 0-.762-1.363 3.21 3.21 0 0 0-3.621 0 1.72 1.72 0 0 0-.762 1.363 1.73 1.73 0 0 0 .759 1.376 3.2 3.2 0 0 0 3.626 0M9.483 11.94a1.6 1.6 0 0 1 .715-1.27 3.1 3.1 0 0 1 3.481 0 1.6 1.6 0 0 1 .715 1.27 1.62 1.62 0 0 1-.713 1.282 3.08 3.08 0 0 1-3.485 0 1.62 1.62 0 0 1-.713-1.282m5.148.396a2 2 0 0 1-.049.156c.154.3.284.225.354.2s.166-.119.095-.206-.19-.206-.309-.357Zm.305-.634c.063-.032.111-.095.047-.206s-.229-.285-.309-.222c-.087.087.048.27.072.333a.19.19 0 0 0 .19.095m.404-.135c.151-.1-.039-.237-.119-.325-.071-.039-.245-.2-.325-.111s.135.31.191.373.134.151.253.063m-1.681-1.982c-.1.262.119.4.254.508a1.13 1.13 0 0 1 .563.975c.111-.048.262-.071.159-.3-.064-.127-.373-.54-.3-.73s.31-.341.841-.365 1.276 0 1.53-.039 1.269-.3 1.475-.325c.087-.016.087-.056.031-.064-.237 0-1.03.048-1.316.048s-.951-.016-1.189-.032a9 9 0 0 0-1.134 0c-.256.023-.81.063-.914.324m.173-.084a1.2 1.2 0 0 1 .194-.118.066.066 0 1 1 .059.119 1 1 0 0 0-.172.1c-.039.03-.067.058-.069.081a.2.2 0 0 0 .018.105.4.4 0 0 0 .129.129.066.066 0 1 1-.076.108.5.5 0 0 1-.171-.176.3.3 0 0 1-.032-.177.27.27 0 0 1 .12-.171m1.802 1.67c-.08-.04-.318-.238-.389-.151-.087.1.1.246.19.318.159.142.452 0 .199-.167m.452-1.427a10 10 0 0 0-1.078.024.73.73 0 0 0-.547.269c-.087.151.064.4.135.5a3 3 0 0 0 .365.365c.071.055.206-.032.087-.167.151.087.341.071.254-.143.134.111.356.119.222-.158.087.071.341.063.182-.151.135.04.285-.04.182-.174.175.023.27-.1.1-.2.161.049.209-.149.098-.165m-1.007 2.164a1.4 1.4 0 0 1-.191.064 1.24 1.24 0 0 0 .563.642c.167.079.238-.1.143-.2-.151-.125-.373-.363-.515-.506m3.148.056a16 16 0 0 1-1.951-.737.9.9 0 0 1-.254.19 4.5 4.5 0 0 0 1.483.7 1.8 1.8 0 0 0 .761.039c.167-.06.095-.16-.039-.192m-1.896.38c-.087-.063-.618-.412-.848-.57-.048.023-.167.063-.214.079a1.5 1.5 0 0 0 1.007.69c.232.015.174-.119.055-.199m3.759-1.205c-.31-.039-2.4-.372-2.966-.523-.23-.055-.333-.032-.364.032s-.024.174.134.23 2.014.483 2.355.507a1.75 1.75 0 0 0 .856-.15c.103-.08-.015-.096-.015-.096m.674-.563c-.223 0-2.871-.2-3.426-.317-.19-.016-.317-.024-.333.056s-.008.119.151.166a23 23 0 0 0 3.124.428c.333-.007.721-.325.484-.333m.634-.594c-.325.008-1.943.016-2.133.008s-1.649-.088-1.824-.1-.333.032-.333.088.04.1.238.142a24 24 0 0 0 3.4.23 1 1 0 0 0 .7-.253c.094-.123-.009-.115-.048-.115m.333-.706c-.563 0-1.855.04-2.1.04a22 22 0 0 0-2.315.285c-.119.04-.151.167 0 .175s1.99.031 2.259.031 2.109.032 2.363-.293c.17-.238-.049-.23-.207-.238m-5.051 1.673c-.151-.048-.206 0-.23.056a.12.12 0 0 0 .056.182 10.3 10.3 0 0 0 2.164.658 1.4 1.4 0 0 0 .555-.135c.072-.039.04-.039.024-.1-.222-.05-2.041-.463-2.569-.661m.635 1.253a9.4 9.4 0 0 1-1.42-.666 2 2 0 0 1-.23.135 7 7 0 0 0 .706.5 1.35 1.35 0 0 0 .88.222c.135-.017.198-.144.064-.191m-.564-1.792c.024-.079-.055-.151-.15-.159-.246-.047-.476-.1-.5-.031s-.039.087.191.206.428.079.459-.016m.112-.722c-.175 0-.484.008-.492.1s.254.134.46.142c.269.012.269-.242.032-.242m.087.408c.015-.048.015-.1-.119-.127-.143-.016-.563-.063-.563.016s.127.174.357.206.301-.051.325-.095m-.452.449a2 2 0 0 0-.317-.151c-.032-.008-.135-.048-.183.032s-.031.2.31.293.277-.123.19-.174m-.5.674c.127-.175-.269-.31-.4-.365a.1.1 0 0 0-.119.008c-.071.111.214.3.27.333s.178.101.249.024m.286-.429c-.262-.142-.555-.214-.6-.126s.143.222.4.349.324-.151.2-.223M9.06 12.696a.21.21 0 0 0 .286-.079 1.6 1.6 0 0 1-.128-.406c-.1.112-.187.2-.246.279s.016.179.088.206m-.048-1.2c-.055.111-.016.174.048.206a.19.19 0 0 0 .162-.05 1.6 1.6 0 0 1 .118-.365l-.011-.013c-.087-.063-.253.122-.317.222M5.825 9.308c.206.024 1.205.277 1.467.325s1.007.024 1.538.039.761.175.832.365-.23.6-.293.73c-.1.2.008.243.105.282q.024-.038.051-.074a1.13 1.13 0 0 1 .566-.882c.134-.1.348-.246.245-.508s-.65-.3-.9-.325a9 9 0 0 0-1.133 0c-.238.016-.9.032-1.19.032s-1.078-.048-1.316-.048c-.067.008-.067.052.028.064m4.144.075a1.3 1.3 0 0 1 .2.117.3.3 0 0 1 .126.169v.006a.3.3 0 0 1-.035.177.6.6 0 0 1-.166.175.066.066 0 1 1-.078-.106.4.4 0 0 0 .127-.131.17.17 0 0 0 .02-.1.2.2 0 0 0-.075-.082 1 1 0 0 0-.174-.1.068.068 0 1 1 .055-.125m-1.401 1.955c.087-.072.27-.215.191-.318-.072-.087-.31.111-.389.151-.263.167.037.309.198.167m.087.229c.127.088.2 0 .262-.063s.27-.277.19-.373-.253.072-.325.111c-.075.088-.269.222-.127.325m.08.286a4 4 0 0 1-.222-.079c-.23.158-.753.507-.841.57-.119.08-.182.214.056.2a1.5 1.5 0 0 0 1.007-.691m-.328.563c-.1.1-.032.277.142.2a1.3 1.3 0 0 0 .563-.642 2 2 0 0 1-.2-.064c-.138.141-.352.379-.505.506m-5.151-2.062a24 24 0 0 0 3.4-.23c.2-.039.23-.087.23-.142s-.158-.1-.333-.088-1.633.088-1.815.1-1.808 0-2.133-.008c-.048 0-.143-.008-.056.119a1.05 1.05 0 0 0 .707.249m3.851.524c.159-.056.159-.167.135-.23s-.135-.087-.365-.032c-.563.151-2.656.484-2.973.523 0 0-.111.016-.008.1a1.76 1.76 0 0 0 .857.15c.342-.028 2.19-.456 2.354-.511m.058-.952c.214-.008.468-.063.468-.142s-.318-.1-.492-.1c-.234.004-.246.258.024.242M4.43 9.807c.269 0 2.1-.024 2.251-.031s.127-.135 0-.175a22 22 0 0 0-2.307-.285c-.254 0-1.546-.04-2.1-.04-.159.008-.39 0-.207.238.246.325 2.093.293 2.363.293m2.568.508c-.016-.08-.142-.072-.333-.056-.555.119-3.2.317-3.433.317s.159.326.492.333a23 23 0 0 0 3.124-.428c.159-.047.166-.085.15-.166m1.34 1.356c-.055-.024-.174-.1-.238-.135a9.4 9.4 0 0 1-1.419.666c-.135.047-.071.174.064.19a1.34 1.34 0 0 0 .88-.222 7 7 0 0 0 .713-.499m-.785-.666c-.023-.056-.079-.1-.23-.056-.523.2-2.347.611-2.569.658-.015.064-.047.064.024.1a1.4 1.4 0 0 0 .547.135 10 10 0 0 0 2.165-.658.118.118 0 0 0 .063-.179m.175.222a16 16 0 0 1-1.951.737c-.134.032-.206.135-.047.19a1.85 1.85 0 0 0 .769-.039 4.5 4.5 0 0 0 1.482-.7.9.9 0 0 1-.253-.188m-.04-.508c.349-.1.365-.214.317-.293s-.158-.04-.182-.032a1.7 1.7 0 0 0-.317.151c-.087.051-.159.261.182.174m1.848-.682a.73.73 0 0 0-.548-.269 10 10 0 0 0-1.081-.024c-.1.016-.055.214.111.166-.182.1-.079.222.087.2-.1.134.056.214.191.174-.159.214.1.222.182.151-.135.277.087.269.222.158-.087.214.1.23.254.143-.119.135.016.222.087.167.079-.072.285-.27.365-.365s.225-.35.13-.501m-1.285 1.159c.056-.032.333-.222.262-.333-.024-.04-.088-.024-.111-.008-.127.055-.524.19-.4.365.075.076.205.007.249-.024m-.88-1.008c.238-.032.365-.127.365-.206s-.421-.032-.563-.016c-.135.024-.135.079-.119.127s.087.134.317.095m.536.825c.262-.127.444-.254.4-.349s-.332-.016-.6.126c-.106.072-.051.349.2.223m-.195-.587c.23-.119.214-.143.19-.206s-.261-.016-.507.031c-.087.008-.167.08-.143.159.032.095.238.127.46.016m5.35 4.294-.078.247Zl-.341-.816a4 4 0 0 1-.209.039.04.04 0 0 0-.005.028l.206.864.013.046a.2.2 0 0 0 .089.124.17.17 0 0 0 .123.012l.03-.008.018-.006a.15.15 0 0 0 .088-.079.24.24 0 0 0 0-.166Zm-.941.158-.072-.88v-.01h-.219v.008l-.072.88v.037a.23.23 0 0 0 .048.16.18.18 0 0 0 .122.052h.051a.14.14 0 0 0 .1-.046.23.23 0 0 0 .049-.141q-.005-.025-.007-.06m-1.098-.982a.04.04 0 0 0 0-.031 3 3 0 0 1-.208-.062l-.447.752a.3.3 0 0 0-.048.193.18.18 0 0 0 .094.119.2.2 0 0 0 .166.01.26.26 0 0 0 .116-.15l.017-.049.051-.124.257-.652Zm.14.942.206-.865a.04.04 0 0 0 0-.028 4 4 0 0 1-.209-.039l-.288.69-.068.172a.25.25 0 0 0 0 .158.15.15 0 0 0 .089.079l.019.006.02.006a.17.17 0 0 0 .129-.01.24.24 0 0 0 .1-.136Zm1.229-.864-.006-.014a4 4 0 0 1-.21.019.04.04 0 0 0-.008.026l.052.732.011.132v.032a.27.27 0 0 0 .065.168.2.2 0 0 0 .155.043.17.17 0 0 0 .127-.084.3.3 0 0 0 .011-.2Zm-.685.03a.04.04 0 0 0-.008-.026 4 4 0 0 1-.213-.02v.016l-.2.855a.3.3 0 0 0 .011.2.17.17 0 0 0 .127.084.2.2 0 0 0 .154-.043.26.26 0 0 0 .066-.168v-.032l.011-.131.052-.733Zm1.355-.196a3 3 0 0 1-.209.061.05.05 0 0 0 0 .031l.257.652.052.124.018.051a.26.26 0 0 0 .115.15.2.2 0 0 0 .166-.01.17.17 0 0 0 .09-.116.3.3 0 0 0-.044-.2Zm-2.773-3.771a1.3 1.3 0 0 0-.584.725 3.12 3.12 0 0 1 2.233-.852 3.01 3.01 0 0 1 2.389 1.032 1.27 1.27 0 0 0-.612-.9c-.143-.126-.27-.238-.1-.563a.3.3 0 0 1 .03-.046 4.24 4.24 0 0 0-3.318-.041.3.3 0 0 1 .068.087c.155.317.036.432-.106.558m5.028 2.737a1 1 0 0 1-.143-.057c-.127.294-.579.167-.738.079a2.5 2.5 0 0 1-1.268.978l.427.719a3.6 3.6 0 0 0 .844-.512 2.84 2.84 0 0 0 .878-1.207m-5.845.065c-.2.074-.535.125-.642-.122a.9.9 0 0 1-.262.082 2.84 2.84 0 0 0 .87 1.179 3.6 3.6 0 0 0 .844.512l.427-.72a2.5 2.5 0 0 1-1.237-.931m2.466-3.88a4.2 4.2 0 0 1 1.792.389 1 1 0 0 1 .105-.058 4.43 4.43 0 0 0-3.735-.028 1 1 0 0 1 .117.052 4.3 4.3 0 0 1 1.721-.355m-1.704 5.63a3.7 3.7 0 0 1-.866-.526 2.95 2.95 0 0 1-.915-1.257 1 1 0 0 1-.1-.008.5.5 0 0 1-.13-.042 3.13 3.13 0 0 0 1 1.453 4 4 0 0 0 .993.6l-.009-.034a.3.3 0 0 1 0-.091.4.4 0 0 1 .027-.095m4.274-.528a3.7 3.7 0 0 1-.867.528.4.4 0 0 1 .023.094 3.8 3.8 0 0 0 .915-.559 3.04 3.04 0 0 0 .94-1.318q-.047.002-.092-.008a2.94 2.94 0 0 1-.919 1.263m-2.338 1.076h.038l-.021-.026Zm-1.482-.197-.028.021.04.012Zm.495.104-.031.032.049.008Zm1.995-.075.041-.012-.028-.021Zm-1.51.166h.042l-.021-.03Zm1.023-.088c0 .011-.009.022-.014.033l.047-.008Z"/></svg>