<svg xmlns="http://www.w3.org/2000/svg" viewBox="0 0 24 24"><path fill="#44739e" d="M18.631 7.613a9.2 9.2 0 0 0-2.313-2.716h.27a.45.45 0 0 0 .402-.247.45.45 0 0 0-.045-.467 6.37 6.37 0 0 0-4.911-2.18 6.2 6.2 0 0 0-4.925 2.184.45.45 0 0 0-.039.465.45.45 0 0 0 .4.245h.163a9.2 9.2 0 0 0-2.267 2.719.45.45 0 0 0 .02.433.45.45 0 0 0 .381.211h5.672v9.66l.003.098a.8.8 0 0 1-.093.331.93.93 0 0 1-.789.402 15 15 0 0 0-2.287.416 6.6 6.6 0 0 0-.989.33c-.175.079-.638.288-.638.713 0 .759 1.314 1.398 1.732 1.498a16.5 16.5 0 0 0 3.423.289 17.5 17.5 0 0 0 3.535-.29 3.3 3.3 0 0 0 .962-.562 1.64 1.64 0 0 0 .768-1.169c0-.55-.682-.79-1.703-.98a21 21 0 0 0-2.252-.272.73.73 0 0 1-.671-.378 1 1 0 0 1-.101-.351q0-.072-.003-.087V8.26h5.897a.45.45 0 0 0 .382-.213.45.45 0 0 0 .017-.434M14.8 4.006H8.58q.141-.106.307-.216a5.54 5.54 0 0 1 3.138-.897 5.8 5.8 0 0 1 3.148.916q.152.101.286.198Z"/></svg>