<?xml version="1.0" encoding="UTF-8"?>
<svg width="33px" height="32px" fill="#44739e" viewBox="0 0 33 32" version="1.1" xmlns="http://www.w3.org/2000/svg" xmlns:xlink="http://www.w3.org/1999/xlink">
            <path d="M19.42943,7.081a10.31247,10.31247,0,0,0-2.59311-3.04243h.30339a.50282.50282,0,0,0,.44983-.27645.49508.49508,0,0,0-.04919-.52268,7.13855,7.13855,0,0,0-5.50418-2.442L11.97381.79714A6.94708,6.94708,0,0,0,6.521,3.24382a.49508.49508,0,0,0-.04463.52072.50283.50283,0,0,0,.4486.274H7.1069A10.27,10.27,0,0,0,4.56842,7.08517a.495.495,0,0,0,.022.48492.50336.50336,0,0,0,.4274.2364h6.35349V18.627c-.00028.0191-.00019.05718.00307.10994a.87585.87585,0,0,1-.10366.37134,1.03683,1.03683,0,0,1-.88359.44987,16.75921,16.75921,0,0,0-2.56214.46557,7.42333,7.42333,0,0,0-1.10713.37021c-.19572.08824-.71564.32258-.71564.7988,0,.84941,1.47226,1.56625,1.93986,1.67782a18.50046,18.50046,0,0,0,3.83513.32348,19.57056,19.57056,0,0,0,3.9602-.32424,3.69473,3.69473,0,0,0,1.07735-.63067,1.84155,1.84155,0,0,0,.85981-1.30843c-.00012-.61632-.76248-.88448-1.90715-1.09747a23.31738,23.31738,0,0,0-2.523-.30512.81707.81707,0,0,1-.752-.42306,1.10624,1.10624,0,0,1-.1124-.39486c.00028-.0513-.00206-.08522-.003-.09665l-.00085.00007V7.80649h6.60612a.50327.50327,0,0,0,.42863-.23839A.49492.49492,0,0,0,19.42943,7.081Z"></path>

</svg>