<svg xmlns="http://www.w3.org/2000/svg" viewBox="0 0 24 24"><path fill="#44739e" d="M18.633 7.613a9.1 9.1 0 0 0-1.64-2.123 9 9 0 0 0-.677-.593h.273a.45.45 0 0 0 .401-.247.45.45 0 0 0-.044-.467 6.37 6.37 0 0 0-4.914-2.18 6.2 6.2 0 0 0-4.923 2.184.45.45 0 0 0-.04.465.45.45 0 0 0 .401.245h.165q-.323.259-.629.56a9.1 9.1 0 0 0-1.64 2.16.45.45 0 0 0 .019.432.45.45 0 0 0 .382.211h5.672v9.66l.002.098a.8.8 0 0 1-.092.331.93.93 0 0 1-.789.402 15 15 0 0 0-2.287.416 6.6 6.6 0 0 0-.988.33c-.175.079-.639.288-.639.713 0 .759 1.314 1.398 1.732 1.498a16.5 16.5 0 0 0 3.423.289 17.5 17.5 0 0 0 3.535-.29 3.3 3.3 0 0 0 .962-.562 1.64 1.64 0 0 0 .768-1.17c0-.549-.681-.789-1.703-.979a21 21 0 0 0-2.252-.272.73.73 0 0 1-.672-.378 1 1 0 0 1-.1-.352q0-.07-.002-.086V8.26h5.896a.45.45 0 0 0 .383-.213.45.45 0 0 0 .016-.434M6.564 7.371a9 9 0 0 1 1.073-1.282 7.1 7.1 0 0 1 1.596-1.191h5.463a7.2 7.2 0 0 1 1.649 1.21 9 9 0 0 1 1.08 1.264Z"/></svg>