<?xml version="1.0" encoding="UTF-8"?>
<svg width="33px" height="32px" viewBox="0 0 33 32" version="1.1" xmlns="http://www.w3.org/2000/svg" xmlns:xlink="http://www.w3.org/1999/xlink">
    <!-- Generator: Sketch 51.3 (57544) - http://www.bohemiancoding.com/sketch -->
    <title>beyond-down</title>
    <style>path{fill:#000}@media (prefers-color-scheme:dark){path{fill:#fff}}</style>
           <path d="M19.45087,7.081a10.31259,10.31259,0,0,0-2.59314-3.04248h.30334a.50276.50276,0,0,0,.44983-.27643.495.495,0,0,0-.04919-.5227,7.13843,7.13843,0,0,0-5.50415-2.442,6.95283,6.95283,0,0,0-5.5152,2.44648.495.495,0,0,0-.04462.52069.5028.5028,0,0,0,.44861.274h.182A10.27117,10.27117,0,0,0,4.58978,7.08514a.4949.4949,0,0,0,.022.48493.50331.50331,0,0,0,.42736.23639h6.35352V18.627c-.00024.01917-.00018.05732.003.11017a.87527.87527,0,0,1-.10358.37116,1.03689,1.03689,0,0,1-.88366.44983,16.76662,16.76662,0,0,0-2.56214.46557A7.41831,7.41831,0,0,0,6.7392,20.394c-.19574.0882-.71564.32257-.71564.79877,0,.84936,1.47229,1.56622,1.93988,1.67786a18.49975,18.49975,0,0,0,3.83508.32348,19.575,19.575,0,0,0,3.96027-.32422,3.69661,3.69661,0,0,0,1.07733-.63073,1.8417,1.8417,0,0,0,.8598-1.30835c-.00012-.6164-.76245-.88453-1.9071-1.09754a23.32241,23.32241,0,0,0-2.523-.30511.81716.81716,0,0,1-.75208-.423,1.10647,1.10647,0,0,1-.11236-.39459c.0003-.05145-.00208-.08545-.003-.09692l-.00092.00006V7.80646h6.6062a.50324.50324,0,0,0,.42859-.23834A.495.495,0,0,0,19.45087,7.081ZM15.15735,3.04175h-6.967c.1048-.07965.21924-.16113.34326-.24225a6.21879,6.21879,0,0,1,3.51624-1.00537,6.47368,6.47368,0,0,1,3.52569,1.02618c.11481.07422.22132.14856.31964.22144Z"/>

</svg>