<?xml version="1.0" encoding="UTF-8"?>
<svg width="24px" height="24px" viewBox="0 0 24 24" version="1.1" fill="#44739e" xmlns="http://www.w3.org/2000/svg" xmlns:xlink="http://www.w3.org/1999/xlink">
            <path d="M19.42943,7.081a10.31229,10.31229,0,0,0-2.59311-3.04243h.30339a.50282.50282,0,0,0,.44983-.27645.49506.49506,0,0,0-.04919-.52268,7.13855,7.13855,0,0,0-5.50418-2.442L11.97381.79714A6.94692,6.94692,0,0,0,6.521,3.24382a.49508.49508,0,0,0-.04466.52072.50287.50287,0,0,0,.44861.274h.182A10.26976,10.26976,0,0,0,4.56843,7.08516a.49488.49488,0,0,0,.022.48493.50333.50333,0,0,0,.42739.2364h6.35349V18.627c-.00026.0191-.00017.05725.00308.11a.87583.87583,0,0,1-.10367.37125,1.03683,1.03683,0,0,1-.88361.44987,16.75876,16.75876,0,0,0-2.56212.46557A7.42449,7.42449,0,0,0,6.7178,20.394c-.19573.08824-.71563.32258-.71563.7988,0,.84941,1.47228,1.56625,1.93988,1.67782a18.50016,18.50016,0,0,0,3.83512.32348,19.57056,19.57056,0,0,0,3.9602-.32424,3.69473,3.69473,0,0,0,1.07735-.63067,1.8416,1.8416,0,0,0,.85982-1.30843c-.00013-.61632-.76249-.88448-1.90716-1.09747a23.31738,23.31738,0,0,0-2.523-.30512.817.817,0,0,1-.752-.42306,1.10625,1.10625,0,0,1-.11237-.3947c.00029-.05137-.00209-.08538-.003-.09681l-.00085.00007V7.80649h6.60613a.50326.50326,0,0,0,.42862-.23839A.49492.49492,0,0,0,19.42943,7.081ZM8.5123,2.79951a6.22123,6.22123,0,0,1,3.51621-1.00539,6.47333,6.47333,0,0,1,3.52568,1.02621c.11481.07423.22133.14855.31961.22143H8.169C8.27376,2.96212,8.38823,2.88065,8.5123,2.79951Zm-2.6,4.0102A8.90309,8.90309,0,0,1,8.90043,4.03854h6.11308a9.03192,9.03192,0,0,1,3.06284,2.77117Z"></path>

</svg>