<?xml version="1.0" encoding="UTF-8"?>
<svg width="33px" height="32px" viewBox="0 0 33 32" version="1.1" xmlns="http://www.w3.org/2000/svg" xmlns:xlink="http://www.w3.org/1999/xlink">
    <!-- Generator: Sketch 51.3 (57544) - http://www.bohemiancoding.com/sketch -->
    <title>beyond-up</title>
    <style>path{fill:#000}@media (prefers-color-scheme:dark){path{fill:#fff}}</style>
            <path d="M19.42948,7.081A10.18576,10.18576,0,0,0,17.5932,4.703a9.75655,9.75655,0,0,0-.75865-.66442h.30515a.50281.50281,0,0,0,.44983-.27644.49508.49508,0,0,0-.04919-.52268,7.13856,7.13856,0,0,0-5.50419-2.442A6.95345,6.95345,0,0,0,6.521,3.24381a.49508.49508,0,0,0-.04463.52072.50282.50282,0,0,0,.4486.274h.18492q-.36146.29088-.70512.62731A10.19424,10.19424,0,0,0,4.56841,7.08517a.495.495,0,0,0,.022.48492.50336.50336,0,0,0,.4274.2364h6.35349V18.627c-.00028.01912-.00019.05731.00307.11015a.87581.87581,0,0,1-.10363.37113,1.03689,1.03689,0,0,1-.88362.44987,16.75921,16.75921,0,0,0-2.56214.46557,7.42333,7.42333,0,0,0-1.10713.37021c-.19572.08824-.71564.32258-.71564.7988,0,.84935,1.47226,1.56622,1.93989,1.67785a18.49982,18.49982,0,0,0,3.83507.32345,19.57379,19.57379,0,0,0,3.96026-.32421,3.69566,3.69566,0,0,0,1.07731-.63071,1.84153,1.84153,0,0,0,.85982-1.30839c-.00009-.61636-.76245-.88451-1.90712-1.0975a23.31323,23.31323,0,0,0-2.523-.30512.81715.81715,0,0,1-.75207-.42306A1.10653,1.10653,0,0,1,12.38,18.7105c.00028-.05146-.00206-.08547-.003-.09693l-.00088.0001V7.80649h6.60615a.50327.50327,0,0,0,.4286-.23836A.49492.49492,0,0,0,19.42948,7.081ZM5.91,6.80971A9.79694,9.79694,0,0,1,7.11158,5.37432,7.92871,7.92871,0,0,1,8.90064,4.03853h6.12073a8.1161,8.1161,0,0,1,1.84651,1.355,9.86715,9.86715,0,0,1,1.21,1.41614Z"></path>

</svg>