<svg xmlns="http://www.w3.org/2000/svg" viewBox="0 0 24 24"><path fill="#44739e" d="M21.185 8.091C18.704 1.689 9.619-.09 4.916 4.915c-6.277 6.157-1.728 17.139 7.064 17.054 6.923.216 12.088-7.592 9.205-13.878M11.98 21.535C2.913 21.52-.949 9.959 6.128 4.486v-.008c6.037-4.874 15.491-.308 15.378 7.521a9.54 9.54 0 0 1-9.526 9.536m-2.598-1.041a.038.038 0 1 0 .028.07.038.038 0 0 0-.028-.07m.657-.077.077-.011c-.034-.035-.062-.035-.077.011m.628-.088.077.011v-.033c-.036-.008-.054-.009-.077.022m.613-.077.056.033c-.007-.034-.017-.039-.056-.033m-1.843-.033c-.052.038.018.109.066.075s-.015-.112-.066-.075m.425-.166h.044l-.044-.011Zm.861.002c-.052.023-.042.152.017.126s.059-.16-.017-.126m-.905-.013h.033l-.033-.011Zm-.044-.011h.044l-.044-.011Zm-.033-.011h.033l-.033-.011Zm-.881-.003c-.075.03-.045.162.041.129s.036-.159-.041-.129m.516-.119-.033-.011v.011Zv.01l.122.045c-.12.178.144.222.11.044l.133.011v-.011Zm-.099-.022h.033l-.033-.011Zm1.485-.005c-.027.017 0 .063.028.042s-.004-.061-.028-.042m4.008-.181.011.065c.045-.024.039-.057-.011-.065m-.586-.082a.2.2 0 0 0-.053-.007c-.053.195.185.091.053.007m-.086-.161v.011l.055-.011Zm1.198-.043c-.044.029.006.113.052.076s-.013-.103-.052-.076m-6.087.087c-.129.144.149.256.264.26s.08-.065.112-.138c.149-.126-.04-.265-.176-.277l.023-.044-.155.022.011.044c-.073.029-.067.065-.079.133m5.429-.21.022-.022-.022.011Zm-2.779-.138c-.158.03-.018.144.088.123.153-.029.011-.142-.088-.123m.562-.006h-.1c-.348.089.222.215.232.01a.5.5 0 0 0-.132-.01m-1.092.001-.022.066c.273.149.36-.132.022-.066m4.46-.058c-.043.018 0 .077.035.056s0-.07-.035-.056m-2.72-.014c-.1.024-.546.03-.415.143.14-.019.443.005.533-.081.062-.063-.09-.065-.118-.062m.377-.088c-.181.041-.1.162.056.124.176-.044.092-.158-.056-.124m.497-.122c-.145.025-.171.165 0 .136.125-.02.147-.162 0-.136m.287-.039v.011c.099.052.215-.011.299-.066l-.011-.043a.37.37 0 0 0-.288.098m.452-.131.044-.022-.044.011Zm-7.446-.144.155.111a.27.27 0 0 0-.155-.111m.53-.242c-.027.066 0 .109.078.1-.004-.063-.012-.09-.078-.1m-.43.011c.024.091.077.124.143.187l-.154-.066c.033.046.136.157.165.055l.056.011.033-.033a.22.22 0 0 0-.243-.154m-1.64-.174c-.032.016-.007.068.023.05s.008-.066-.023-.05m5.743-.064c-.278.044-.114.468 0 .566.159-.077.346-.601 0-.566m.958.583a.8.8 0 0 0 .154-.334c.008-.13-.108-.29-.252-.235-.199.078-.086.319-.008.433.022.033.053.153.106.136m-.527-.56c-.219.052-.118.316-.045.435.018.03.044.14.089.134.148-.1.308-.636-.044-.569m-.916-.064c-.183.07-.12.3-.059.422.029.15.067.233.162.055.172-.147.223-.536-.103-.477m1.69.279a.9.9 0 0 0 .24.309 1 1 0 0 0 .114-.387c-.057-.303-.446-.208-.354.078m-5.231-.188.044-.1c-.082-.021-.138.067-.044.1m6.004.188c.171-.394-.454-.48-.313-.056a.8.8 0 0 0 .243.265 2 2 0 0 0 .07-.209m-7.251-.354a.23.23 0 0 0 .122.122.23.23 0 0 0-.122-.122m4.589.155c0-.1-.144-.232-.245-.155l.014-.022h-.21v.011c-.023-.077-.155-.162-.229-.1l.01-.028-.276-.1v.033c-.054-.106-.228-.074-.272.035.077-.199-.248-.359-.399-.274-.066.024-.121.146-.017.146a.4.4 0 0 0-.044.255v.07h.022v-.01a.14.14 0 0 0 .045.055l-.263-.121-.1-.1h-.018c.184-.016.468-.368.2-.477h-.009c-.046-.079-.2-.138-.278-.168q-.01.033-.017.066c0-.089-.058-.168-.155-.144l.017-.01c-.1-.087-.262-.314-.399-.232h.014a.15.15 0 0 0-.069.017l.007-.005c-.05-.01-.081.037-.1.077h.006a.4.4 0 0 0-.083.357c-.053-.021-.085-.069-.155-.054-.018.253-.3.48-.265.749.087-.053.3-.184.359-.037.041.1-.026.209.028.313.328-.176.474-.323.507.166.065-.022.164-.05.187-.121.076 0 .145-.1.219-.046s.039.244.135.264c.137.028.234-.247.363-.242s.065.236.167.261.164-.169.264-.189a.31.31 0 0 1 .266.14.6.6 0 0 0 .2-.045.17.17 0 0 0-.1-.067h.019c.042-.107.174-.158.199-.285v.009l.088.044.006-.009a.4.4 0 0 0 .029.219c.017.041 0 .219.084.176.106-.124.249-.249.248-.422m2.89-.259c-.3.075.006.488.15.527.101-.129.14-.583-.15-.527m.645.22c.035-.132-.006-.372-.192-.358-.404.012.18.794.192.358m-8.244-.292.055-.034-.077-.054Zm-.386-.22a.4.4 0 0 0 .22.242c.006-.095-.131-.224-.22-.242m8.823-.016c-.265.085 0 .467.174.454.128-.119.058-.508-.174-.454m-7.07-.006c-.15.041-.211.199-.311.306a.84.84 0 0 0-.323.388c.007.072.2.151.16.022a.29.29 0 0 0 .255-.276c.06-.116.267-.298.219-.44m8.724.352a1.14 1.14 0 0 0-.341-.399c-.031.023-.081.063-.011.077 0 .188.247.65.475.551l-.055-.055c.015-.07-.029-.115-.068-.174m-4.301-.26c.022-.029.01-.1.012-.136-.116-.023-.263-.051-.205.118a.17.17 0 0 0 .193.018m.628-.007c.085-.231-.25-.2-.374-.129-.056.205.272.243.374.129m-1.159-.156c-.099-.079-.25-.067-.217.1.087.088.265.049.217-.1m1.579-.079c-.059.008-.155 0-.2.04-.176.178.243.222.318.118s-.03-.173-.118-.158m2.019-.043c-.259.031-.062.468.153.42.149-.092.048-.444-.153-.42m-4.14.105c.081-.109-.15-.161-.206-.114a.4.4 0 0 0-.033.124c.08.046.203.113.239-.01m2.508-.147a.1.1 0 0 0-.038.168.28.28 0 0 0 .278-.057c.024-.043-.011-.095-.009-.141a.8.8 0 0 0-.231.03m-3.53.17v.011l.066.045a.37.37 0 0 1 .1-.21c-.155-.246-.125.122-.166.154m.471-.108c.132-.126-.056-.214-.173-.214-.006.041-.052.106-.041.142.017.053.17.107.214.072m-3.594.046c-.14.077-.205.071-.221.248-.026.051-.122.128-.117.187.008.093.2.141.185 0 .163 0 .21-.152.293-.264.105-.142.256-.23.281-.42-.198-.053-.294.149-.421.249m8.639-.275c-.215.071.006.432.199.376.147-.103-.007-.439-.199-.376m-5.329.015-.066-.022-.033.022.044.089h.011Zm3.916.159c.05-.007.149-.025.176-.073.045-.147-.188-.15-.253-.068a.093.093 0 0 0 .077.141m2.422-.072c-.032-.035-.24-.273-.254-.109a4 4 0 0 0 .666.949l.188-.122a2.6 2.6 0 0 0-.6-.718m-10.58-.186-.011.044-.1-.011c-.004.207.239.057.111-.033m3.869-.107c-.171.064.014.29.138.233.162-.075-.024-.275-.138-.233m6.321.14c-.005-.224-.379-.293-.308-.011.035.162.339.25.308.011m-1.437-.2c-.129 0-.25.136-.1.207.138.001.262-.138.1-.207m-9.133-.065a.15.15 0 0 0 .089.11.15.15 0 0 0-.089-.11m3.53-.099a.1.1 0 0 0-.077.088l.122-.022Zm8.339.66a2.4 2.4 0 0 0-.552-.517c-.054-.036-.227-.214-.282-.119.034.336.442.615.635.9l.023-.011c.065.199.3.026.3-.1-.012-.053-.088-.106-.124-.153M9.2 16.935c.039-.014.065-.075.099-.1-.082-.135-.231-.221-.33-.044.032.058.152.172.231.144m-3.629-.125.033-.011c-.086-.262-.257-.016-.022.055Zm10.413-.179c-.174.067.021.356.175.292s-.031-.348-.175-.292m-7.103-.008-.023.088.078-.011Zm6.011.183c.245-.113-.075-.286-.155-.073l.055.1a.3.3 0 0 0 .1-.027m-9.96-.194a.33.33 0 0 0 .188.275.27.27 0 0 0-.188-.275m1.411-.011c-.235.067-.258.241-.544.254-.088.238-.072.234.169.184.112-.156.244-.287.375-.438m-1.256-.011.11.132c-.011-.06-.044-.133-.11-.132m2.95.132c.021-.099-.2-.249-.282-.276-.044-.014-.1.04-.11-.021h-.022v.008a.1.1 0 0 0-.025-.1l.03.013c-.011-.192-.264-.318-.4-.42-.049-.135-.118-.384-.31-.405s-.245.171-.351.294c-.231.285-.613.456-.841.719-.026.084.185.199.255.206s.07-.069.125-.099c.29-.135.526-.39.813-.506-.025.058-.033.157.044.173a.1.1 0 0 0-.034.025l.078.011v.022c-.283.18-.482.499-.751.699-.04.076.11.193.154.245.02.025.042.058.078.05a6 6 0 0 0 .799-.737l.006.021a.32.32 0 0 0 .243-.067c.122.084-.053.232-.12.308a6 6 0 0 0-.499.6c-.055.082-.167.1-.1.22.037.071.139.156.227.11a1.4 1.4 0 0 1 .358-.354c.182-.269.493-.461.635-.739m8.09-.308-.066.066q.083.014.066-.066m-7.776-.023-.023.144c.107-.01.119-.098.023-.144m.375.034c-.236-.186-.243.273.007.224.143-.052.07-.165-.007-.224m7.749.168c.146-.057-.036-.292-.153-.248-.146.054.032.297.153.248m-8.003-.224-.022-.033.011.033Zm6.758.015c-.106.2.374.115.124-.081a.34.34 0 0 0-.124.081m-10.276-.103a.26.26 0 0 0 .11.177.26.26 0 0 0-.11-.177m-.331-.177a.4.4 0 0 0 .143.243c-.008-.08-.06-.219-.143-.243m11.824-.029a.17.17 0 0 0-.11.133c.093-.007.109-.05.11-.133m-10.708.311c.106-.093.254-.177.3-.326l-.1.033.022-.055a1.2 1.2 0 0 0-.354.162c-.135.069-.369.141-.265.335-.178-.223-.287.09-.044.176l.033-.032-.011-.045.045.011.011-.011-.014-.059c.184.059.263-.087.377-.189m-.499-.006.022-.143v-.055c-.108-.008-.164-.085-.242-.144l.089.21-.045-.011c-.01.138.072.112.176.143m2.956-.105c.274.136.245-.2.023-.248-.046 0-.099.057-.143.069a.28.28 0 0 0 .12.179m7.6-.185a.2.2 0 0 0 .044-.063c-.233-.103-.211.185-.044.063m.993.162c.164-.04 0-.289-.133-.262-.181.037-.004.295.133.262m-8.724-.269.022.022v-.022Zm10.908-.174c-.027.014 0 .054.023.04a.023.023 0 0 0-.023-.04m-13.656-.034c-.042 0-.055-.049-.11-.044a.149.149 0 0 0-.121.232h.045c.075-.074.144-.08.186-.188m2.567.166c.048 0 .093-.065.132-.091-.132-.435-.558-.092-.132.091m9.268-.024c.151-.124-.093-.38-.253-.31-.217.13.076.413.253.31m-1.025-.199a.15.15 0 0 0 .111-.12c-.09-.011-.15.025-.111.12m1.048-.49c-.418.215.431.575.271.16a.256.256 0 0 0-.271-.16m-12.36.237c-.062-.143-.043-.226-.225-.254l-.011.077c-.124-.042-.127.043-.133.133l-.066.011-.055-.056.055.154h.022l.011-.077h.011l.011.044.033-.011-.011-.044.144.188c-.013-.053-.05-.1-.011-.144l.044.088.055.034.033-.023h.011l.122.143-.011-.087c.038-.036-.011-.133-.029-.176m2.709.061c.049 0 .1-.062.143-.083-.12-.328-.174-.223-.331-.188.011.078.086.28.188.271m-3.387-.425a.27.27 0 0 0 .088.187.22.22 0 0 0-.088-.187m12.366-.033c-.105.02-.169.244-.012.224.121-.016.165-.253.012-.224m1.654-.067c-.051-.016-.133-.072-.177-.022l-.033-.011c0 .042.011.064.055.066.105.162.525.435.684.243l-.077-.022c-.046-.136-.326-.214-.452-.254m-.762-.148a.142.142 0 0 0-.056.235c.099.152.475.11.321-.12a.26.26 0 0 0-.265-.115m-12.441.097c.049-.042.1-.052.132-.114-.142.04-.393 0-.47.145.029.23.243.102.338-.031m2.249-.199c-.041-.012-.105.038-.153.041-.001.459.534.253.153-.041m-3.131.317h.016a.77.77 0 0 0-.155-.409.8.8 0 0 0 .139.409m12.703-.459c-.118.039-.123.278.02.223.111-.041.136-.274-.02-.223M3.95 14.572l-.033-.089.022.089Zm13.633-.103c-.208.123.071.36.231.272.194-.114-.084-.343-.231-.272m.827.082c-.135-.017-.283-.132-.411-.094-.094.09.152.173.2.199a1.94 1.94 0 0 0 .845.348c.052-.024.067-.123.081-.172a2.3 2.3 0 0 0-.715-.281m-11.56-.023c.044.069.186.09.226 0a.3.3 0 0 0-.126-.253c-.048-.012-.1.028-.154.025a.32.32 0 0 0 .054.228m-2.251-.251c-.113-.038-.276.087-.12.162.079.014.222-.15.12-.162m2.075-.081.056.056c-.008-.037-.018-.049-.056-.056m10.338-.053c-.107.048-.065.241.049.183.089-.049.077-.239-.049-.183M6.84 14.13l-.077.077h.066Zm10.934-.053c-.186.109.057.311.2.235.182-.084-.068-.292-.2-.235m-.026-.278h-.022l-.044.121c.123.076.117-.038.066-.121m-10.893.227c.043-.087-.063-.261-.159-.244-.175 0-.092.292.018.3.032.001.127-.027.141-.056m11.21-.202c.078-.04-.058-.121-.115-.094-.082.038.055.124.115.094m-14.391-.125a2.5 2.5 0 0 0 .177.762h.011a3.7 3.7 0 0 0-.188-.762m.739-.252-.21-.023c.009.117.148.078.21.023m-.739-.1-.022-.011v.033l.022-.011Zm1.413 2.111c.024.023.045.062.08.069a5 5 0 0 0 .955-.434c-.032.052.048.073.091.078v.005c.158.063-.061.17-.125.213-.232.167-.494.312-.726.464-.051.064.039.188.013.271.166.112.316-.014.452-.112.289-.235.988-.467 1.028-.648.044-.158-.214-.3-.273-.41-.05-.233-.126-.536-.414-.561v-.011c.3-.1.046-.544-.208-.464a.365.365 0 0 0-.055-.606.4.4 0 0 1-.053.06c.061-.073.043-.179-.083-.18a.09.09 0 0 0 .058-.057h-.041c.032-.033.1-.053.121-.092-.011-.125-.108-.269-.264-.2-.334.079-.075.186.077.257v.011l-.155.1.033.022.021-.005a.106.106 0 0 0-.035.161l-.03-.013c-.306.273-.799.222-1.131.423-.043.047-.02.174-.038.239-.075-.08-.126-.353-.254-.343l-.032-.033-.011.056-.1-.117c-.124.043-.052.28-.033.386l-.022-.023h-.016l-.022.023c-.014-.067-.054-.23-.11-.265a2 2 0 0 0 .187.706h.016a.15.15 0 0 1 .067-.132l.044.077.021-.022h.011l.066.033.022-.088.044.022c.157-.121.044-.171.13-.237.493.161.945-.278 1.515-.15v.022l-.243.118-.872.352-.264.143-.21-.083-.155.067v.142l-.099-.054H4.05a.43.43 0 0 0 .153.419l.011-.067.044.022v-.044l.155.055.033-.066c.111.077.1-.146.21-.163.47.117.913-.281 1.379-.355l-.144.173-.405.244-.599.388a1 1 0 0 0 .2.214m-1.159-2.067-.022-.077.011.077Zm2.667-.055a.5.5 0 0 0-.141-.022.32.32 0 0 0 .044.221c.104-.019.257-.108.097-.199m11.485-.124c-.266.029-.126.318.088.267.277-.029.119-.301-.088-.267m-12.906-.086h-.022v.022Zm13.137-.262c-.056-.1-.184-.036-.2.053.055.061.249.061.2-.053m-4.158-.257v.011c.056.022.315.1.33 0h.044Zm6.532-.583a.25.25 0 0 0 .094-.144v-.011c.056-.216-.028-.521-.254-.563l-.031-.01h-.026a1.4 1.4 0 0 0-.199-.006h-.83l-.33.011v.011h.01v.386l-.01-.374v1.278h.01v.011h.409l-.035-.011h.046v-.01l-.011-.209v.155c-.01-.093-.018-.224.037-.266h.647l-.21-.011h-.264c.31.015.713-.113.629.352h.407l-.034-.011h.045l-.011-.275v.035a.4.4 0 0 0-.01-.068h.01l-.011-.033v.018a.2.2 0 0 0-.2-.179 1 1 0 0 1 .122-.076m-.316-.191v-.008.015a.14.14 0 0 1-.107.087h-.015v.006a3.5 3.5 0 0 1-.706-.006v-.3c.222 0 .439-.016.662-.01v.01h.067l-.054-.009c.067.005.128.019.153.076a.18.18 0 0 1 0 .139m-14.373.785c.199.013.412 0 .617 0 .085 0 .187.007.284 0h.053-.026l.061-.011h.033-.014a.34.34 0 0 0 .269-.282h.011v-.018a1 1 0 0 0 .012-.092v-.032a.6.6 0 0 0-.012-.204v-.017h-.02a5 5 0 0 0-.808-.01h-.047v.009h-.011v.133h.011v.009h.046a4 4 0 0 0 .624 0 .04.04 0 0 1 .015.014v.155l-.009.05a.3.3 0 0 1-.112.123.3.3 0 0 1-.052.016l-.015-.005v.008a2 2 0 0 1-.286 0h-.589c-.207-.028-.278-.191-.268-.393.016-.144-.007-.263 0-.41v-.014h.023v-.021a.3.3 0 0 1 .045-.099.3.3 0 0 1 .1-.078l.026-.008h.03-.012a.4.4 0 0 1 .061-.007h.823v.008h.055-.027a.2.2 0 0 1 .198.138v.1h.176l-.006-.077h.006l-.011-.054v.031a.37.37 0 0 0-.299-.279h.01l-.044-.011a7 7 0 0 0-.992-.013v.003l-.04.007-.016-.005v.008l-.041.012a.3.3 0 0 0-.151.092.3.3 0 0 0-.068.1l.006-.014v.024l-.007.021v-.012.024l-.006.027v-.017.051l-.006.032v-.029.053a2 2 0 0 0-.011.29 1.4 1.4 0 0 0 .011.321v.02l.007.03v.025h.007v.039h.008v.033h.008a.3.3 0 0 0 .065.092.3.3 0 0 0 .057.045.4.4 0 0 0 .121.052v.008h.036l.031.006v.005Zm-.193-.263.022.022Zm.055.055.022.022Zm-.607.197-.176-.01v.01Zm.442-.098.011.011-.022-.022Zm5.923-.044-.022-.022Zm-.343-.62v-.023a.6.6 0 0 0-.015-.299l-.006-.026-.011-.04v.014a.35.35 0 0 0-.317-.211c-.26-.024-1.04.012-1.316 0v.418l-.011-.363v1.213h.011v.055a2.5 2.5 0 0 1 .346 0l.053-.006h.01v-.04l.01-.048v-.243c.125 0 .588-.01.705 0v.01h.021a.13.13 0 0 1 .079.082v.029h.007a.4.4 0 0 1 .007.08v-.058.187h.009v.01h.418l-.01-.07v-.006h.01l-.011-.188v.023l-.006-.056h.006l-.01-.044v.01l-.008-.025a.2.2 0 0 0-.08-.118.2.2 0 0 0-.038-.026h.005-.015l-.018-.01v-.007l-.022-.006.013-.01a.24.24 0 0 0 .085-.05.2.2 0 0 0 .078-.112h.01l-.005-.017.009-.027Zm-.484.42-.008-.01.017.019Zm.022.022.015.014Zm.044-.49a.14.14 0 0 1-.107.107h-.015v.006a3.4 3.4 0 0 1-.705-.006v-.3c.221 0 .438-.016.661-.01v.01h.066l-.053-.01c.07.006.133.027.153.092Zm.672.502h.011l-.011-.033Zm-2.25-.287.007.007-.018-.018Zm.022.022.011.011-.013-.013Zm-.011-.011.009.009-.013-.013Zm-.033-.033.011.011-.022-.022Zm-3.86.289c.155-.038.064-.235.022-.331-.115.044-.061.248-.022.331m1.808-.587-.054-.011v.011Zm7.899-.055h.033l-.033-.011Zm-9.707-.033a.65.65 0 0 0 0 .331c.064-.078.133-.293 0-.331m11.902.066h.011l-.011-.176Zm-10.148-.297-.022-.022Zm6.089 0 .007.007-.018-.018Zm-4.021.018-.016-.018Zm7.384.735a3.4 3.4 0 0 0 .011.463v.007h.409v-.017a8 8 0 0 0 0-1.276v-.007h-.008a.9.9 0 0 0-.393 0h-.008v.007a3 3 0 0 0-.011.444h-.871v-.462h-.034a1.7 1.7 0 0 0-.385 0c.012.24-.019 1.049 0 1.274v.038h.011v.01h.408v-.341l.013-.133h.005l.214-.017h.623Zm2.206-.841v.033h.011Zm-1.499 0v1.322h1.51v-.087h.011l-.011-.132v-.1h-.1v-.009h-.982v-.2h.999v-.276h-.999v-.2a7 7 0 0 0 .968 0h.047l.042.01v-.058a1 1 0 0 0 0-.269h-.034c-.286-.026-1.15.013-1.451-.001m-3.94.549v-.154l-.008-.051a.37.37 0 0 0-.299-.345l-.033-.011h-.025.014l-.055-.011v.006a1 1 0 0 0-.155-.006h.133l-.31-.011h-.206a4 4 0 0 0-.357 0h-.142v.01h.015l-.056.008-.036-.007v.01h.009l-.037.007-.02-.006v.01a.37.37 0 0 0-.288.316l-.01-.029v.033h.01l-.01.075-.011-.031v.552h.01v-.032c.035.618.886.4 1.315.429h.109-.06l.093-.012h.055l-.04-.007c.018 0 .035 0 .05-.01v.006h.033l-.022-.007a.4.4 0 0 0 .319-.38v.045h.01l-.008-.057a3 3 0 0 0 .013-.34m-.474-.165.012.01-.023-.021Zm-.033-.033.01.01-.021-.021Zm-.899.54.019.02Zm.033.034-.007-.007.018.018Zm.943-.15-.005-.038v.057a.23.23 0 0 1-.152.168h-.014v.006a4 4 0 0 1-.689 0h-.006c-.2-.055-.126-.335-.121-.487.108-.299.558-.133.805-.16v.006h.029c.17.033.193.265.148.449Zm2.186-.757v-.007h-.007a.2.2 0 0 0-.122-.024c-.326.043-1.244-.03-1.442.024h-.007v.007c-.042.054-.011.253-.011.312l.508.009h.077a7 7 0 0 0 0 .89v.048h.007v.022h-.011v.011l.418.01v-.01h.011v-.971h.067l.518-.01q-.002-.035.006-.094a1 1 0 0 0 0-.155.2.2 0 0 0-.012-.062m-10.49.621h.038l-.045-.011v.009a.3.3 0 0 0-.066-.009l.066-.011h-.04l.04-.016v.005h.034l-.024-.012a.2.2 0 0 0 .124-.111v.011h.011l-.006-.019.008-.025h.007v-.032a.4.4 0 0 0-.008-.165v-.023l-.01-.044v.029a.3.3 0 0 0-.2-.194l-.034-.011-.039-.006c-.184-.033-.733 0-.932-.008-.066 0-.237-.031-.29.011h-.01v.007c-.038.05-.01.225-.01.28.015.181-.03.849.01 1.007v.007h.007c.121.048 1.076-.008 1.262.01v-.01h-.014.066l-.025-.006a.315.315 0 0 0 .271-.248h.008v-.031a.336.336 0 0 0-.2-.384Zm-.029.132-.025-.022Zm-.033-.551-.022-.025Zm-1.125.335v-.399c.226.005.779-.009 1.004 0v.007h.03a.14.14 0 0 1 .1.095v.165c-.059.207-.307.129-.464.137h-.669Zm1.191.481a.165.165 0 0 1-.137.128l-.02-.006v.009c-.27.009-.765 0-1.038 0v-.442q.502-.024 1.004-.008v.008h.052a.17.17 0 0 1 .135.141Zm.624-.728-.011-.165v-.132a.23.23 0 0 0-.167 0h-.009v.008c-.051.141.011 1.075-.011 1.282v.011h.187v-.11h.011l-.011-.2v-.695Zm3.513 8.079-.045-.019Zm.277.105a7 7 0 0 1-.277-.107c.255.09-.014.217.141.299.133.049.1-.1.167-.14.041-.026.119.014.161.024-.061-.028-.128-.051-.192-.076m-4.86-8.989v.033l.011.033Zm13.932-.27c-.182.033-.173.253.022.219.179-.032.164-.256-.022-.219m-14.273-.171c-.091.028-.107.228-.088.308.109-.038.106-.212.088-.308m16.357-.241-.077.02c-.07.317.35-.014.077-.02m-15.872.219h.022l.011-.088-.055.011Zm12.861.33c.264-.025.19-.26.1-.323-.171.015-.173.198-.1.323m3.235-.594c-.061.014-.032.145.028.137s.04-.153-.028-.137m-15.864.286a.14.14 0 0 0-.122-.055l.033.055Zm1.393.21c-.037-.1-.2-.146-.29-.143a10 10 0 0 1-1.081-.1v.033l.143.011-.011.033a9 9 0 0 1 .982.381c.124.025.318-.055.257-.215m12.013-.502c-.243.064-.143.356.088.293.066-.018.247-.144.209-.23s-.233-.081-.297-.063m-12.425.109c.173.2.559.329.5-.049-.117-.185-.353-.105-.528-.086-.158-.009-.035.107.028.135m11.582-.27h-.022l-.011.034.044.022ZM3.988 9.781c-.075.024-.085.14-.088.21.088-.024.081-.127.088-.21m13.121-.03-.044-.077.011.055.022.022Zm.865.147a.52.52 0 0 0 .2-.258c-.178-.071-.562-.093-.5.2.037.109.208.106.3.058m2.271-.484c-.094.035-.028.265.072.239s.025-.271-.072-.239m-14.084.249c-.11-.137-.377-.107-.511-.049-.007.086.3.361.418.31a.163.163 0 0 0 .093-.261m10.793-.132c-.011-.17-.109-.146-.2-.044v.011c.079.089.1.047.2.033m3.549-.118c-.132.207.441.065.124-.07-.037.063-.086.024-.124.07m.341.007c.051-.028 0-.107-.048-.076s.004.101.048.076M4.358 9.41l-.011-.089-.067.2a.14.14 0 0 0 .107-.122Zm1.754-.122c.015.048.041.054.088.055-.015-.045-.043-.052-.088-.055M4.17 9.209c-.091-.042-.127.222-.131.289.073-.016.198-.216.131-.289m2.991-.155c-.051.012-.075.1-.089.146l.011.011c.181.005.21-.141.078-.157m12.106.047c.067-.048-.047-.266-.123-.21-.04.029.057.258.123.21m-2.699.023c.045 0 .078-.055.121-.068a.21.21 0 0 0-.121-.176c-.023.045-.156.25 0 .244M6.277 8.811c-.167.065.052.278.175.226.155-.065-.053-.275-.175-.226m13.379.135a.3.3 0 0 0-.026-.088c-.095-.276-.199.118.026.088m.751-.088c.025.012.057.036.086.031s.158-.11.152-.141c-.014-.077-.11-.029-.106.032l-.121-.044-.011.066c-.293-.142-.063.324 0 .056M4.336 8.682a.7.7 0 0 0-.1.287c.087-.04.188-.21.1-.287m.585-.012-.022.055h.011Zm2.676-.055c-.1-.174-.26.045-.257.163a.154.154 0 1 0 .257-.163m9.678-.018c.054-.02.058-.104-.01-.083s-.06.108.01.083m2.688.285c.109-.059-.038-.359-.127-.374-.077.032.052.374.127.374m-3.793-.28a.3.3 0 0 0 .046.079c.359-.094-.078-.37-.046-.079M4.987 8.67a2.9 2.9 0 0 0 1.078.428c.126-.073-.132-.209-.174-.239a2.8 2.8 0 0 0-.804-.42Zm1.511-.28c-.2.047.01.328.165.292a.126.126 0 0 0 .067-.199.22.22 0 0 0-.232-.093m-1.688.302a.45.45 0 0 0 .184-.204 2 2 0 0 0-.062.171h.011A11.8 11.8 0 0 1 6.52 6.421a7.9 7.9 0 0 0-1.512 2.035.5.5 0 0 0 .034-.138c-.188.005-.216.229-.232.374m12.244-.551c-.122 0-.053.133 0 0m-11.527.142a.7.7 0 0 0 .287.132c-.073-.114-.138-.284-.287-.308-.121.036-.125.138 0 .176m14.752.059c.1-.074-.084-.256-.148-.278 0 .062-.056.117-.051.176s.151.143.199.102m-4.41-.293c-.038.028-.053.106-.073.147.219.228.244-.224.073-.147m3.887.258a.5.5 0 0 0-.177-.324.32.32 0 0 0 .177.324M6.665 7.995c-.108.122.126.422.3.332.225-.164-.113-.428-.3-.332m11.58-.086h.022v.022h-.022Zm-12.98-.032c-.082-.056-.156.193-.156.242.055-.009.232-.19.156-.242m11.459-.081c-.046.016-.048.092.009.073s.048-.093-.009-.073m-1.134-.052a.26.26 0 0 0-.136-.089c-.177.299.193.262.136.089m-8.334-.05a.75.75 0 0 0-.399-.116c.014.159.216.6.427.384a.19.19 0 0 0-.028-.268m12.169.016a.4.4 0 0 0-.121-.209c.026.082.032.173.121.209M5.56 7.435a.2.2 0 0 0-.121.209.3.3 0 0 0 .121-.209m10.875-.014c-.076.018-.132.172-.022.154.089-.015.132-.179.022-.154m-7.776.006c-.066.009-.234.18-.11.206.134.215.378-.09.11-.206m-1.125.231c.2-.11-.037-.384-.209-.316-.162.098.039.394.209.316m7.504-.321c-.083.016-.032.183.053.174.134-.013.05-.193-.053-.174m-5.801-.1a1 1 0 0 0-.047-.133.28.28 0 0 0-.194.1c-.084.117.267.272.241.033m-1.5-.121c-.073.042.022.189.094.153s-.026-.193-.094-.153m8.357-.026c-.089.033-.126.229 0 .182.094-.034.132-.23 0-.182m-1.489-.026a.2.2 0 0 0-.067-.015c-.011.21.274.1.067.015m-4.846-.037c.043-.274-.231-.209-.323-.055a.167.167 0 0 0 .323.055m-5.18.97v.078a6.4 6.4 0 0 1 .683-.96l.111-.276-.078.033v-.044c-.222.051-.285.361-.462.486.024-.185.288-.364.276-.486a3 3 0 0 0-.464.706l.1-.077c-.012.222-.259.37-.243.585ZM8.192 6.96c.073-.042-.02-.2-.091-.153s.024.192.091.153m7.549-.168c-.1.036-.142.248 0 .205.105-.032.135-.254 0-.205m-1.798.058.022-.088c-.194-.078-.198.038-.022.088m-8.898.673a6 6 0 0 0-.353.651c0 .045.04.052.063.022l.022.011.11-.132.039-.13.2-.257.065.055a.32.32 0 0 0 .121-.176l-.077.033c-.016-.108.111-.246.2-.299l-.022.11a1.1 1.1 0 0 0 .32-.419l-.133.055.111-.21c-.058-.044.061-.124.044-.188l-.331.343-.138.134a1.2 1.2 0 0 1-.241.397m8.357-.861.033-.066-.156-.033c.022.075.052.082.123.099m-3.077-.055v-.033l-.088-.011c.015.043.044.043.088.044m5.074-.078c-.099 0-.184.222-.056.224s.192-.23.056-.224m-6.938-.045c-.148.042-.021.315.11.284.154-.038.031-.324-.11-.284m4.289-.019c-.055.05.084.099.126.058s-.097-.088-.126-.058m-.396-.056-.164-.011a.083.083 0 0 0 .164.011m-.562-.011-.154.023.154.011Zm3.199-.091c-.1.026-.144.238-.011.207.103-.024.138-.242.011-.207M5.98 6.233l-.044.066.066-.055Zm2.846-.014c-.159.063-.014.399.154.336s.015-.403-.154-.336m5.757.09c.094-.036.114-.249-.011-.2-.087.033-.108.245.011.2m-5.251-.315c-.289-.2-.208.525.066.379.165-.083.051-.317-.066-.379m4.81-.059c-.093.048-.078.264.042.2.081-.05.073-.259-.042-.2M7.006 6.3c-.058-.025-.064-.115-.144-.115a.6.6 0 0 0-.3.279 2.35 2.35 0 0 0 .916.651c-.066-.277-.312-.483-.385-.75.288.141.481.527.792.599.1-.019-.034-.272-.056-.316a4.4 4.4 0 0 0-.583-.794l-.299.232c.019.063.181.209.059.214m-.597-.454c-.041.007-.238.128-.18.18s.177-.132.18-.18m7.314-.061c-.082.029-.1.239.01.205s.105-.243-.01-.205m-7.303.699a6 6 0 0 1 .572-.499.4.4 0 0 0-.1.119 1.1 1.1 0 0 0 .319-.265 1 1 0 0 0-.085.044c.113-.077.12-.2-.013-.151a.76.76 0 0 0-.332.288.8.8 0 0 0-.42.4c-.1.099-.209.136-.241.288.139-.01.212-.133.3-.224m6.882-.599c.087-.03.091-.237-.02-.205-.093.026-.089.242.02.205m-2.248-.149c.018-.043.018-.072-.023-.1a.084.084 0 0 0 .023.1M9.9 5.957a1.3 1.3 0 0 0-.314-.32c0 .16-.066.335 0 .485a.177.177 0 1 0 .314-.165m2.919-.353c-.09.047-.056.251.054.2.093-.05.062-.261-.054-.2m-5.358.111a1.9 1.9 0 0 0 .46.683c.046.048.213.272.281.206s-.035-.199-.069-.272a5 5 0 0 0-.466-.74l-.033-.007-.038.024a7.84 7.84 0 0 1 4.296-1.358.4.4 0 0 0-.194-.031c.221-.066.062-.2-.138-.134a.3.3 0 0 1-.1-.033l.012-.066c-.219-.1-.115.081-.241.121a.6.6 0 0 0-.28.029c-.05 0-.1-.032-.147-.007a.3.3 0 0 0-.071.033l.067.033-.056.1v.011l.221-.022V4.27l-.024-.014a.2.2 0 0 0 .131.009 7.2 7.2 0 0 0-3.847 1.559 1.3 1.3 0 0 0 .249-.133Zm4.019-.13c-.053.031-.018.164.042.12.041-.034.016-.158-.042-.12m.5.131c.069-.045.032-.221-.062-.167-.075.041-.029.224.062.167m.439.035c.085-.03.075-.232-.031-.2s-.077.24.031.2m-4.223-.258c-.119 0-.205.053-.099.166a.7.7 0 0 0 .189.254l-.022-.265Zm-.529-.043a.32.32 0 0 0-.375.209.47.47 0 0 0 .375-.209m2.687.396c-.021-.108-.141-.188-.191-.287s-.09-.213-.2-.219c.084.227-.06.492.071.693.148.171.359.013.32-.187m-2.286-.667c-.069-.066-.227.059-.257.138.057.017.29-.052.257-.138m.285-.121a.22.22 0 0 0 .174-.138c-.044.004-.262.097-.174.138m8.612.083a.64.64 0 0 0-.331-.232.8.8 0 0 0 .331.232m-.375-.276v-.011l-.088-.044a.07.07 0 0 0 .088.055m-6.19.948a.208.208 0 1 0 .406-.077 4.2 4.2 0 0 1-.393-.926h-.022c-.033.321.057.68.009 1.003m1.26-1.026.055.012.011-.045h-.066Zm2.626.188a.33.33 0 0 0 .199-.254l-.231-.066Zm1.709-.309v-.022l-.077-.022c.017.041.032.054.077.044m.154-.055v.011l.253.143a.47.47 0 0 0-.253-.154m-4.489-.066c-.1-.093-.041.132-.022.176h.011l.022-.1.077.011c-.001-.066-.017-.098-.088-.087m2.294.011-.209-.056c-.045.209.127.214.209.056m-3.684-.089.055.011h.011l.033-.043Zm3.009-.022h.087c-.03-.027-.054-.029-.087 0m-6.12.092c.057-.019.043-.127-.021-.113s-.053.137.021.113m8.968-.092-.083-.051h-.005c.009.052.037.056.088.051m-8.107 0 .111-.043-.111.033Zm7.864.011-.176-.076v.011l.176.076Zm-4.632 1.077c.137-.162 0-.928.021-1.219-.22-.007-.399-.033-.29.253a6 6 0 0 0 .118.6c.024.085-.006.394.151.366m.353-1.047a.24.24 0 0 0 .165-.186l-.221-.011Zm.992-.216v.011a.53.53 0 0 0 .387.033.5.5 0 0 0-.14-.046c.214-.084-.067-.158-.158-.153a.093.093 0 0 0 .05.14.5.5 0 0 0-.139.015m-2.36 0 .088-.023a.07.07 0 0 0-.088.023m1.798 0h.319c-.049-.08-.236-.045-.319-.045v.011h-.143v.011l.143.012Zm3.662.088-.584-.254v.011a2.2 2.2 0 0 0 .584.254Zm-6.551-.133c.099 0 .312-.045.363-.143-.091.011-.326.047-.363.143m3.208-.055c-.042-.121-.313-.157-.253.033a.44.44 0 0 0 .253-.033m-2.591-.143.2-.056a.24.24 0 0 0-.2.056m-2.129.078c.091-.011.068-.165-.022-.148a.075.075 0 0 0 .022.148m5.666-.218c-.186 0-.075.15-.084.257a1 1 0 0 0 .099.034c-.116-.011-.149.138-.023.16a1 1 0 0 0-.142-.006c.082.089.293.094.408.1v-.01l.1.02h-.033v.014c.335.017.637.252.96.254a.3.3 0 0 0-.072-.059.086.086 0 0 0 .048-.164.17.17 0 0 0 .167-.118c.178.029-.017.241.2.256-.119-.021-.261.028-.124.143a.5.5 0 0 0-.094-.014.2.2 0 0 0 .079.082h-.035a3 3 0 0 0-.059.49c.047.048.121-.075.144-.1.042-.061.213-.224.153-.3a1.6 1.6 0 0 1 .355.156c-.093-.051-.123.027-.129.1-.085.39.192.2.299-.011l-.041-.027q.157.084.31.172c-.11-.025-.1.199-.1.254h.034a.335.335 0 0 0-.167.41c.264 0 .216.223.289.386.06.062.155-.008.23-.01.131 0 .142.152.133.252a.41.41 0 0 0 .47-.124c.046-.067.039-.193.128-.22.032-.133-.134-.214-.166-.331l-.015.006a.05.05 0 0 0 .01-.061l.237.154a1.2 1.2 0 0 0-.19-.21 1 1 0 0 1 .081-.131l.063.032.011-.011c-.048-.143.108-.057.166-.018.176.118.342.254.517.371l-.23-.244-.561-.455.075.027c-.018.068.155.12.108.019a.5.5 0 0 0 .2.099l-.177-.164a.94.94 0 0 0-.4-.29.08.08 0 0 1-.032-.045v-.037a1 1 0 0 1-.169-.039.74.74 0 0 0-.3-.185 1 1 0 0 0-.114-.065l-.01-.009-.073-.037a10 10 0 0 0-.971-.442.1.1 0 0 0-.029-.011 1.4 1.4 0 0 0-.167-.053 1.3 1.3 0 0 0-.325-.084l-.025-.008a.08.08 0 0 0-.078-.022l-.021-.003-.069-.016c-.116-.032-.236-.052-.35-.093a.27.27 0 0 0-.2-.033c-.052-.022-.442-.112-.299.012m-.614-.07c-.14.019-.03.338.143.287.045 0 .076.008.1-.033l-.034-.033a.23.23 0 0 0 .144-.133.5.5 0 0 0-.173-.088l.085.011.022-.055-.3-.022a.1.1 0 0 0 .054.043c-.02-.001-.038.004-.041.023m1.081.022.011-.022-.011-.044-.045.011v-.011h.023c-.081-.026-.034.049.022.066m-2.934-.052-.022-.011-.1.044v.011c.056.026.107.021.122-.044M9.19 3.773h-.067v.011l.045.011Zm3.087-.033v.011h.077Zm-.153 0v.011l.066-.011Zm2.293.011v-.022l-.088-.011a.075.075 0 0 0 .088.033m-2.945.011c-.036-.034-.2-.082-.2.013-.003.132.165.037.2-.013m2.814-.044v-.012a.9.9 0 0 0-.365-.1c.057.081.27.111.365.112m-5.185-.276-.018-.044h-.1l-.055.044v.011c.078.042.101.065.173-.011m3.53-.023c.012-.08-.125-.039-.155-.021.025.03.143.106.155.021m.587-.031a.1.1 0 0 0 .031-.022.13.13 0 0 0-.133 0 .13.13 0 0 0 .102.022m-1.838.01c-.024-.037-.046-.041-.089-.033v.033l.056.021Zm.6.018a.1.1 0 0 0 .044-.018c-.05-.163-.215.044-.044.018m2.976.542.021.013-.011-.055h-.011l-.039-.014a.72.72 0 0 0-.491-.142.9.9 0 0 0 .415.157ZM8.339 19.237c.207.106.418.2.628.3l-.1-.054a1 1 0 0 0 .139.037c0-.094.073-.135.077-.221.007-.14-.173-.284-.3-.185-.065.049-.061.174-.117.229a.2.2 0 0 0 .055.064 6 6 0 0 0-.331-.152v-.01l.055.021.123-.243-.024-.088-.024-.022c-.02-.045-.09-.061-.145-.061a.1.1 0 0 0-.051 0 .09.09 0 0 0-.075.071c-.027.064-.012.144-.09.172a.5.5 0 0 0 .22.14Zm1.743.834.026.02v-.02Zm-.725-7.781v-.063l-.009-.046a.3.3 0 0 0-.117-.17l-.036-.03v-.01l-.033-.01.022-.012h-.022a.3.3 0 0 0 .08-.063.2.2 0 0 0 .032-.044.3.3 0 0 0 .023-.048h.007v-.01l.012-.045v-.017a.4.4 0 0 0-.012-.149l-.011-.034v.007a.33.33 0 0 0-.234-.212 7.4 7.4 0 0 0-1.453-.015v.011h.011c0 .017-.007.034-.01.051v.008c0 .379-.02.766 0 1.147v.051h.007v.021h-.013l.486.011h.959v.007l.037-.007h.029-.014a.31.31 0 0 0 .254-.249v-.007a.4.4 0 0 0 .005-.073m-1.326-.47v-.182c.228 0 .456-.027.684-.008v.008h.068a.1.1 0 0 1 .082.053v.011h.005a.1.1 0 0 1 0 .062v-.007.014c-.04.11-.729.03-.838.052Zm.881.4a.08.08 0 0 1-.058.067h-.007c-.1.02-.699 0-.816.007v-.187c.1 0 .722-.01.805.008h.011a.082.082 0 0 1 .065.108Zm11.892-4.156h.011l-.022-.045Zm-.067-.155h.011l-.022-.044Zm-.033-.077h.011l-.033-.066Zm.155.364h.011l-.022-.044Zm.49 1.785c.033-.023.006-.089-.034-.065s-.002.091.034.065m-.523-1.862h.011l-.022-.044Zm-.188-.431h.011l-.022-.044ZM5.858 12.41l.022.022Zm-.055-.055.022.022Zm4.103 7.709h.033l-.033-.011Z"/></svg>