<svg xmlns="http://www.w3.org/2000/svg" viewBox="0 0 24 24"><path fill="#44739e" d="M14.038 13.706a5.6 5.6 0 0 1-3.235.029L2 10.895l.08 3.2c.949.461 7.228 2.739 7.308 2.816l1.67.455a5.2 5.2 0 0 0 2.799-.291s7.914-3.343 8.09-3.727c.062-.135.041-1.871.053-1.968v-1.1c-1.201.612-7.962 3.426-7.962 3.426M5.751 14.89c-.452 0-.836-.566-.836-1.108s.166-1.109.618-1.109.811.646.811 1.188-.144 1.029-.593 1.029m3.453.473-.863-.292-.264-.58 1.382.4Zm-6.765-4.924 8.084 2.631a5.6 5.6 0 0 0 3.965-.192l7.257-3.163a.422.422 0 0 0-.061-.795l-8.241-2.176a5.6 5.6 0 0 0-3.31.141l-7.7 2.754a.423.423 0 0 0 .006.8"/></svg>