<?xml version="1.0" encoding="UTF-8"?>
<svg width="24px" fill="#44739e" height="24px" viewBox="0 0 24 24" version="1.1" xmlns="http://www.w3.org/2000/svg" xmlns:xlink="http://www.w3.org/1999/xlink">
            <path d="m 2.7402344,2.3007812 v 1.6386719 h 4.0488281 v 0.890625 H 6.9902344 V 5.0703125 H 17.050781 V 4.8300781 h 0.179688 v 0.2402344 h 3.320312 v -0.25 H 17.230469 V 3.9394531 h 3.888672 V 2.3007812 Z M 17.230469,5.0703125 h -0.179688 v 1.1601563 h 0.179688 z m 0,1.1601563 v 0.25 h 3.320312 v -0.25 z m 0,0.25 H 17.050781 V 7.640625 h 0.179688 z m -0.179688,0 v -0.25 H 6.9902344 v 0.25 z m -10.0605466,-0.25 V 5.0703125 H 6.7890625 v 1.1601563 z m 0,-2.2910157 H 17.050781 V 4.8203125 H 6.9902344 Z M 3.3007812,4.8203125 v 0.25 h 3.4785157 v -0.25 z m 0,1.4101563 v 0.25 h 3.4785157 v -0.25 z M 6.7890625,6.4902344 V 7.6503906 H 6.9902344 V 6.4902344 Z m 0.2011719,1.1601562 v 0.25 H 17.050781 v -0.25 z m 10.0605466,0.25 v 1.1601563 h 0.179688 V 7.9003906 Z m 0.179688,0 h 3.320312 v -0.25 h -3.320312 z m 0,1.1601563 v 0.25 h 3.320312 v -0.25 z m 0,0.25 h -0.179688 v 1.1601561 h 0.179688 z m 0,1.1601561 v 0.25 h 3.320312 v -0.25 z m 0,0.25 h -0.179688 v 1.160156 h 0.179688 z m -0.179688,0 v -0.25 H 6.9902344 v 0.25 z m -10.0605466,0 H 6.7890625 v 1.160156 h 0.2011719 z m 0,-0.25 V 9.3105469 H 6.7890625 v 1.1601561 z m 0,-1.1601561 H 17.050781 v -0.25 H 6.9902344 Z m 0,-0.25 V 7.9003906 H 6.7890625 V 9.0605469 Z M 3.3007812,7.6503906 v 0.25 h 3.4785157 v -0.25 z m 0,1.4101563 v 0.25 h 3.4785157 v -0.25 z m 0,1.4101561 v 0.25 h 3.4785157 v -0.25 z m 0,1.419922 v 0.25 h 3.4785157 v -0.25 z m 3.6894532,0 v 0.25 H 17.050781 v -0.25 z m 10.0605466,0.25 v 1.160156 h 0.179688 v -1.160156 z m 0.179688,0 h 3.320312 v -0.25 h -3.320312 z m 0,1.160156 v 0.25 h 3.320312 v -0.25 z m 0,0.25 h -0.179688 v 1.160157 h 0.179688 z m 0,1.160157 v 0.25 h 3.320312 v -0.25 z m 0,0.25 h -0.179688 v 1.158203 h 0.179688 z m 0,1.158203 v 0.25 h 3.320312 v -0.25 z m 0,0.25 h -0.179688 v 1.160156 h 0.179688 z m -0.179688,0 v -0.25 H 6.9902344 v 0.25 z m -10.0605466,0 H 6.7890625 v 1.160156 h 0.2011719 z m 0,-0.25 V 14.960938 H 6.7890625 v 1.158203 z m 0,-1.158203 H 17.050781 v -0.25 H 6.9902344 Z m 0,-0.25 V 13.550781 H 6.7890625 v 1.160157 z m 0,-1.160157 H 17.050781 v -0.25 H 6.9902344 Z m 0,-0.25 V 12.140625 H 6.7890625 v 1.160156 z m -3.6894532,0 v 0.25 h 3.4785157 v -0.25 z m 0,1.410157 v 0.25 h 3.4785157 v -0.25 z m 0,1.408203 v 0.25 h 3.4785157 v -0.25 z m 0,1.419921 v 0.25 h 3.4785157 v -0.25 z m 3.6894532,0 v 0.25 H 17.050781 v -0.25 z m 10.0605466,0.25 v 1.160157 h 0.179688 v -1.160157 z m 0.179688,0 h 3.320312 v -0.25 h -3.320312 z m 0,1.160157 v 0.25 h 3.320312 v -0.25 z m 0,0.25 h -0.179688 v 1.160156 h 0.179688 z m 0,1.160156 v 0.25 h 3.320312 v -0.25 z m 0,0.25 h -0.179688 v 0.691406 H 6.9902344 V 20.609375 H 6.7890625 v 0.691406 H 3.3007812 v 0.5 H 20.550781 v -0.5 h -3.320312 z m -10.2402346,0 H 17.050781 v -0.25 H 6.9902344 Z m 0,-0.25 V 19.199219 H 6.7890625 v 1.160156 z m 0,-1.160156 H 17.050781 v -0.25 H 6.9902344 Z m 0,-0.25 V 17.789062 H 6.7890625 v 1.160157 z m -3.6894532,0 v 0.25 h 3.4785157 v -0.25 z m 0,1.410156 v 0.25 h 3.4785157 v -0.25 z"/>

</svg>
