<svg xmlns="http://www.w3.org/2000/svg" viewBox="0 0 24 24"><path fill="#44739e" d="M3.149 21.487h17.692V22H3.149Zm14.102-.225h.185v.225h-.185Zm-10.523 0h.205v.225h-.205Zm10.523-1.447h.185v.226h-.185Zm-10.523 0h.205v.226h-.205Zm10.523-1.446h.185v.226h-.185Zm-10.523 0h.205v.226h-.205Zm10.523-1.456h.185v.225h-.185Zm-10.523 0h.205v.225h-.205Zm10.523-1.446h.185v.225h-.185Zm-10.523 0h.205v.225h-.205Zm10.523-1.446h.185v.225h-.185Zm-10.523 0h.205v.225h-.205Zm10.523-1.457h.185v.226h-.185Zm-10.523 0h.205v.226h-.205Zm10.523-1.446h.185v.226h-.185Zm-10.523 0h.205v.226h-.205Zm10.523-1.446h.185v.225h-.185Zm-10.523 0h.205v.225h-.205Zm10.523-1.446h.185v.225h-.185Zm-10.523 0h.205v.225h-.205Zm10.523-1.457h.185v.226h-.185Zm-10.523 0h.205v.226h-.205Zm10.523-1.446h.185v.226h-.185Zm-10.523 0h.205v.226h-.205Zm10.523-1.641h.185v.431h-.185Zm-10.523 0h.205v.431h-.205ZM2.574 2h18.852v1.682H2.574Zm14.862 18.041h3.405v1.221h-3.405Zm-10.503 0h10.318v1.221H6.933Zm-3.784 0h3.569v1.221H3.149Zm14.287-1.446h3.405v1.22h-3.405Zm-10.503 0h10.318v1.22H6.933Zm-3.784 0h3.569v1.22H3.149Zm14.287-1.446h3.405v1.22h-3.405Zm-10.503 0h10.318v1.22H6.933Zm-3.784 0h3.569v1.22H3.149Zm14.287-1.457h3.405v1.221h-3.405Zm-10.503 0h10.318v1.221H6.933Zm-3.784 0h3.569v1.221H3.149Zm14.287-1.446h3.405v1.221h-3.405Zm-10.503 0h10.318v1.221H6.933Zm-3.784 0h3.569v1.221H3.149ZM17.436 12.8h3.405v1.221h-3.405Zm-10.503 0h10.318v1.221H6.933Zm-3.784 0h3.569v1.221H3.149Zm14.287-1.446h3.405v1.22h-3.405Zm-10.503 0h10.318v1.22H6.933Zm-3.784 0h3.569v1.22H3.149Zm14.287-1.457h3.405v1.221h-3.405Zm-10.503 0h10.318v1.221H6.933Zm-3.784 0h3.569v1.221H3.149Zm14.287-1.446h3.405v1.221h-3.405Zm-10.503 0h10.318v1.221H6.933Zm-3.784 0h3.569v1.221H3.149Zm14.287-1.446h3.405v1.221h-3.405Zm-10.503 0h10.318v1.221H6.933Zm-3.784 0h3.569v1.221H3.149Zm14.287-1.456h3.405v1.22h-3.405Zm-10.503 0h10.318v1.22H6.933Zm-3.784 0h3.569v1.22H3.149Zm14.287-1.446h3.405v1.22h-3.405Zm-10.503 0h10.318v1.22H6.933Zm-3.784 0h3.569v1.22H3.149Z"/></svg>