<?xml version="1.0" encoding="UTF-8"?>
<svg width="24px" height="24px" viewBox="0 0 24 24" version="1.1" fill="#44739e" xmlns="http://www.w3.org/2000/svg" xmlns:xlink="http://www.w3.org/1999/xlink">
            <path d="M 20.077,19.131 A 33.088,33.088 0 0 1 11.305,12.794 32.067,32.067 0 0 1 4.88,3.939 0.418,0.418 0 0 1 5.371,3.37 a 8.131,8.131 0 0 1 1.9,0.778 37.566,37.566 0 0 1 12.629,12.596 7.22,7.22 0 0 1 0.752,1.927 0.413,0.413 0 0 1 -0.575,0.46 M 21,16.146 A 38.579,38.579 0 0 0 7.867,3.048 7.331,7.331 0 0 0 4.521,2 2.742,2.742 0 0 0 3.612,2.151 c -1.035,0.447 -1.6,1.672 -1.6,4.362 A 14.728,14.728 0 0 0 5.5,15.621 l -3.354,5.058 a 0.834,0.834 0 0 0 0.69,1.3 l 5.5,-0.02 a 1.667,1.667 0 0 0 1.381,-0.741 l 0.838,-1.257 A 14.083,14.083 0 0 0 17.531,22 5.473,5.473 0 0 0 21.645,20.676 c 0.487,-0.456 0.64,-2.163 -0.649,-4.53"></path>

</svg>