<?xml version="1.0" encoding="UTF-8"?>
<svg width="24px" fill="#44739e" height="24px" viewBox="0 0 24 24" version="1.1" xmlns="http://www.w3.org/2000/svg" xmlns:xlink="http://www.w3.org/1999/xlink">
            <path d="m 6.423,16.3 c 0.523,0.01 15.244,0.523 15.572,-4.7 0.267,-4.319 -10.566,-3.908 -10.566,-3.908 -0.021,0 -0.092,0 -0.092,0.051 0,0.051 0.03,0.072 0.071,0.072 3.006,0 7.889,1.2 7.735,3.785 -0.123,2.093 -3.939,4.555 -12.72,4.555 a 0.088,0.088 0 0 0 -0.082,0.072 c 0,0.031 0.03,0.061 0.082,0.072 z M 4.1,8.4 C 4.08,8.4 4.08,8.411 4.07,8.421 A 27.261,27.261 0 0 0 2.1,11.529 l -0.062,0.113 -0.01,0.041 a 0.282,0.282 0 0 0 0.031,0.308 c 0.328,0.513 2.164,1.118 6.257,1.118 3.057,0 6.309,-0.492 6.309,-1.415 0,-0.872 -3.2,-1.4 -6.309,-1.4 a 15.794,15.794 0 0 0 -2.339,0.185 c 0.277,-0.431 1.447,-2 1.447,-2.011 0.02,-0.02 0.02,-0.02 0.02,-0.03 V 8.421 C 7.424,8.411 7.414,8.401 7.393,8.401 Z m 1.19,3.294 c 0,-0.185 1.16,-0.452 3.027,-0.452 1.867,0 3.016,0.267 3.016,0.452 0,0.2 -1.149,0.461 -3.016,0.461 -1.867,0 -3.027,-0.256 -3.027,-0.461 z"/>

</svg>