<svg xmlns="http://www.w3.org/2000/svg" viewBox="0 0 24 24"><path fill="#44739e" d="M6.426 16.299c.523.01 15.241.523 15.569-4.699.267-4.318-10.564-3.907-10.564-3.907-.021 0-.092 0-.092.051s.03.072.071.072c3.006 0 7.888 1.2 7.734 3.784-.123 2.093-3.938 4.554-12.718 4.554a.09.09 0 0 0-.082.072c0 .031.03.061.082.072ZM4.104 8.401c-.02 0-.02.011-.03.021a27 27 0 0 0-1.97 3.107l-.062.113-.01.041a.28.28 0 0 0 .031.308c.328.513 2.164 1.118 6.256 1.118 3.056 0 6.308-.492 6.308-1.415 0-.872-3.2-1.399-6.308-1.399a16 16 0 0 0-2.338.185c.276-.431 1.446-2 1.446-2.011.02-.02.02-.02.02-.03v-.017c-.02-.01-.03-.02-.051-.02Zm1.19 3.293c0-.185 1.159-.452 3.026-.452s3.015.267 3.015.452c0 .2-1.148.461-3.015.461s-3.026-.256-3.026-.461"/></svg>