<svg xmlns="http://www.w3.org/2000/svg" viewBox="0 0 24 24"><path fill="#44739e" d="M12.177 12.022a.177.177 0 0 1-.177.177.177.177 0 0 1-.177-.177.177.177 0 0 1 .177-.176.177.177 0 0 1 .177.177m.251 1.241a.428.428 0 1 0-.428.428.43.43 0 0 0 .428-.428m9.49-1.555L22 9.632c0-.1-.052-.184-.123-.184H2.113c-.064 0-.115.074-.113.164l.042 2.1h.078l.009.58c-.062 0-.111.075-.109.164l.04 1.976c0 .067.04.12.087.12h19.67c.057 0 .1-.063.107-.144l.026-1.93a.2.2 0 0 0-.11-.169l.011-.6Zm-10.513-1.8.005-.01a.03.03 0 0 1 .027-.016h.736a.44.44 0 0 1 .289.111.48.48 0 0 1 .133.35.6.6 0 0 1-.034.212.6.6 0 0 1 .034.212.47.47 0 0 1-.134.35.43.43 0 0 1-.284.11h-.74a.03.03 0 0 1-.031-.03v-.25a.206.206 0 0 1 .231-.21h.536a.38.38 0 0 0 .258-.1.3.3 0 0 0 .059-.087.3.3 0 0 0-.059-.087.38.38 0 0 0-.256-.1h-.538a.206.206 0 0 1-.231-.21v-.045c-.001-.057-.006-.087-.001-.2m.6 3.958a.6.6 0 1 1 .6-.6.6.6 0 0 1-.605.6Zm9.718-1.578H2.252l-.009-.58h19.484Zm-9.248-1.605a.44.44 0 0 1-.3.113h-.535c-.109 0-.166.053-.167.148v.216h.7a.38.38 0 0 0 .245-.095.4.4 0 0 0 .113-.3.6.6 0 0 0-.013-.129.4.4 0 0 1-.043.047m-1.005-.526q.002.143.168.148h.535a.44.44 0 0 1 .3.114.3.3 0 0 1 .042.05.6.6 0 0 0 .014-.128.42.42 0 0 0-.113-.3.38.38 0 0 0-.244-.093h-.7v.171Z"/></svg>