<svg xmlns="http://www.w3.org/2000/svg" viewBox="0 0 24 24"><path fill="#44739e" d="m7.105 14.755.368-.249h-.452l-.137-.403-.137.401-.455.002.368.251-.139.398.36-.244.368.244Zm-.723-1.329.368-.249h-.451l-.136-.402-.139.4-.454.002.367.25-.137.398.358-.242.368.242Zm2.154 1.729.36-.244.366.244-.144-.4.368-.249h-.451l-.136-.403-.139.401-.454.002.367.251Zm-.73.671-.138-.403-.138.401-.455.002.369.25-.139.399.36-.245.366.245-.142-.4.366-.249Zm1.301 1.394-.138-.401-.137.401h-.455l.368.253-.138.398.359-.244.366.244-.142-.4.367-.251Zm-1.474-4.977.582-.58-.001-.674H7.15v.463h-.577V9.721h.577v.47h1.064l.001-.685-.582-.581H6.088l-.58.581v2.157l.582.58Zm-.359-7.96.359-.243.368.243-.144-.4.368-.249h-.451l-.136-.401-.139.399-.454.002.368.251Zm3.023 14.257-.137-.402-.139.402h-.454l.369.252-.139.397.36-.243.366.243-.142-.398.366-.251ZM8.165 5.052l-.139.398.36-.244.368.244-.144-.401.368-.249h-.452l-.135-.402-.139.402h-.455ZM5.509 7.755h-.451l-.136-.402-.138.4-.455.002.368.252-.138.397.358-.243.368.243-.144-.4Zm1.049-1.278-.137.398.358-.244.368.244-.144-.401.368-.25h-.452l-.135-.401-.139.401H6.19Zm-1.925.154.366.244-.142-.401.366-.25h-.45l-.137-.401-.137.401h-.455l.368.253-.139.398Zm.993-1.181.36-.244.366.244-.142-.401.366-.249h-.45l-.137-.402-.137.402h-.455l.368.252Zm12.401 7.727-.137-.402-.137.4-.457.002.37.25-.139.398.36-.242.366.242-.142-.399.366-.249ZM8.71 6.224h-.455l.368.253-.138.398.359-.244.366.244-.142-.401.366-.25h-.449l-.138-.401Zm8.391 2.701v.796h.177v1.73l-.408.001-.002-.563-1 .001-.002.862.564.491h1.423l.453-.486-.001-2.036h.179l-.002-.796Zm.204 5.581-.137-.403-.138.401-.455.002.368.251-.138.398.359-.244.368.244-.144-.4.367-.249Zm3.461-9.165L16.062 2a6 6 0 0 1-4.063 1.564A6 6 0 0 1 7.934 2l-4.7 3.34A17.34 17.34 0 0 0 11.999 22a17.34 17.34 0 0 0 8.767-16.659m-8.767 15.681A16.42 16.42 0 0 1 4.024 5.731L7.891 2.98a7.2 7.2 0 0 0 4.108 1.376 7.26 7.26 0 0 0 4.109-1.379l3.867 2.752a16.43 16.43 0 0 1-7.976 15.293m7.503-14.798-.137-.401-.137.401h-.457l.37.253-.139.398.36-.244.366.244-.142-.401.366-.25Zm-.284 1.531-.137-.402-.139.4-.455.002.368.252-.137.397.359-.243.367.243-.143-.4.367-.249Zm-7.646 9.285h-.452l-.135-.402-.139.4-.455.002.368.251-.139.398.36-.243.368.243-.144-.4Zm.46.869-.138.4-.456.002.37.252-.139.397.359-.243.367.243-.143-.4.367-.249h-.45Zm.137 1.981-.137-.404-.138.402-.456.002.37.25-.139.397.359-.243.367.243-.143-.4.367-.247Zm1.12-2.601.367-.249h-.45l-.137-.402-.138.4-.455.002.368.251-.138.398.359-.243.366.243Zm.741 1.251-.137-.402-.137.402h-.457l.37.252-.139.397.36-.243.366.243-.142-.398.366-.251Zm1.124-4.437-.137.401-.457.002.37.251-.139.398.36-.244.366.244-.142-.4.366-.249h-.45Zm1.368 1.723-.137-.403-.137.401-.457.002.37.25-.139.399.359-.245.367.245-.142-.4.366-.249Zm-1.303 1.394-.135-.401-.139.401h-.455l.368.253-.139.398.36-.244.368.244-.144-.4.368-.251ZM7.133 7.755l-.137-.402-.137.4-.455.002.368.252-.139.397.36-.243.368.243-.144-.4.366-.249Zm6.073 6.751-.137-.403-.138.401-.455.002.368.251-.138.398.359-.244.366.244-.142-.4.367-.249Zm-2.086 0-.135-.403-.139.401-.455.002.368.251-.139.398.36-.244.368.244-.144-.4.368-.249Zm1.049 1.32-.137-.403-.138.401-.456.002.37.25-.139.399.359-.245.367.245-.143-.4.367-.249Zm0-2.649-.137-.402-.138.4-.456.002.37.25-.139.398.359-.242.367.242-.143-.399.367-.249Zm-2.218 2.649-.137-.403-.137.401-.457.002.37.25-.139.399.36-.245.366.245-.142-.4.366-.249Zm.254-2.649-.137-.402-.137.4-.456.002.369.25-.139.398.36-.242.366.242-.142-.399.366-.249Zm5.797-8.894.359-.243.367.243-.142-.4.366-.249h-.45l-.137-.401-.139.399-.455.002.37.251Zm.992 2.194-.138.398.36-.244.366.244-.142-.401.366-.25h-.45l-.137-.401-.138.401h-.455Zm.655-1.027.36-.244.366.244-.142-.401.366-.249h-.45l-.137-.402-.137.402h-.457l.37.252Zm-.517 2.305-.137-.402-.137.4-.456.002.369.252-.139.397.36-.243.366.243-.142-.4.366-.249Zm-2.756 8.071-.137-.403-.139.401-.455.002.368.25-.137.399.36-.245.366.245-.142-.4.366-.249Zm1.698-2.649-.137-.402-.138.4-.454.002.368.25-.139.398.359-.242.368.242-.144-.399.368-.249Zm-1.954 0-.135-.402-.139.4-.455.002.368.25-.137.398.36-.242.366.242-.144-.399.368-.249Zm1.119-7.727.36-.244.366.244-.144-.401.368-.249h-.451l-.136-.402-.139.402h-.455l.368.252Zm-6.987 7.727-.137-.402-.137.4-.455.002.368.25-.139.398.36-.242.367.242-.143-.399.366-.249Zm3.158-3.456v-.8H9.434v.8h.182l-.8 1.731h-.15v.791h1.371v-.791h-.169l.061-.14h.984l.062.14h-.169v.791h1.368v-.791h-.15l-.8-1.731Zm-1.206.952.219-.391.209.391Zm.224-5.223.359-.244.367.244-.143-.401.367-.249h-.45l-.137-.402-.137.402h-.457l.37.252ZM8.959 7.353l-.137.4-.455.002.368.252-.138.397.359-.243.366.243-.142-.4.366-.249h-.449Zm3.696 1.051.36-.243.366.243-.142-.4.366-.249h-.45l-.137-.402-.138.4-.455.002.369.252Zm-1.682-1.051-.137.4-.455.002.368.252-.139.397.36-.243.368.243-.144-.4.368-.249h-.452Zm1.753-.478.359-.244.368.244-.144-.401.368-.25h-.451l-.136-.401-.139.401h-.454l.367.253Zm2.065 0 .36-.244.366.244-.142-.401.366-.25h-.45l-.137-.401-.137.401h-.457l.37.253Zm.627 4.783v-1l-.241-.163.241-.167V9.5l-.605-.572h-2.206v.8h.283v1.732h-.281v.791h2.2Zm-1.1-.206h-.44v-.465h.44Zm0-1.274h-.44v-.457h.44Zm.361-1.774.36-.243.366.243-.142-.4.366-.249h-.45l-.137-.402-.137.4-.455.002.368.252Zm-3.629-2.18-.137-.401-.139.401h-.455l.37.253-.139.398.359-.244.367.244-.142-.401.366-.25Zm1.788-.774.359-.244.368.244-.144-.401.367-.249h-.45l-.137-.402-.138.402h-.454l.368.252Z"/></svg>