<?xml version="1.0" encoding="UTF-8"?>
<svg width="32px" height="32px" viewBox="0 0 32 32" version="1.1" xmlns="http://www.w3.org/2000/svg" xmlns:xlink="http://www.w3.org/1999/xlink">
    <title>Bollard</title>
    <style>path{fill:#000}@media (prefers-color-scheme:dark){path{fill:#fff}}</style>
    <path d="M21,12.5 C21,13.33 18.76,14 16,14 C13.24,14 11,13.33 11,12.5 L11,8.296 C11,8.053 11.265,7.921 11.47,8.052 C12.268,8.562 13.997,9 16,9 C18.003,9 19.732,8.562 20.53,8.052 C20.735,7.921 21,8.053 21,8.296 L21,12.5 Z M13.342,5.278 C14.942,4.907 17.398,4.907 18.883,5.278 C20.4,5.658 20.379,6.291 18.773,6.692 C17.133,7.103 14.523,7.103 13.011,6.692 C11.53,6.291 11.706,5.658 13.342,5.278 Z M20.33,4.48 C19.22,4.16 17.74,4 16.23,4 C14.73,4 13.21,4.16 12.01,4.48 C10.689,4.83 10,5.31 10,5.79 L10,26.35 C10,26.75 10.5,27.15 11.52,27.47 C12.66,27.82 14.2,28 15.77,28 C17.34,28 18.93,27.82 20.16,27.47 C21.39,27.12 22,26.66 22,26.21 L22,5.65 C22,5.22 21.439,4.8 20.33,4.48 Z"></path>
</svg>