<svg xmlns="http://www.w3.org/2000/svg" viewBox="0 0 24 24"><path fill="#44739e" d="M16.167 9.083c0 .692-1.867 1.25-4.167 1.25s-4.167-.558-4.167-1.25V5.58c0-.202.221-.312.392-.203.665.425 2.106.79 3.775.79s3.11-.365 3.775-.79c.171-.109.392.001.392.203ZM9.785 3.065c1.333-.309 3.38-.309 4.617 0 1.265.317 1.247.844-.091 1.178-1.367.343-3.542.343-4.802 0-1.234-.334-1.087-.861.276-1.178m5.823-.665c-.925-.267-2.158-.4-3.416-.4-1.25 0-2.517.133-3.517.4C7.574 2.692 7 3.092 7 3.492v17.133c0 .333.417.667 1.267.933.95.292 2.233.442 3.541.442s2.634-.15 3.659-.442S17 20.883 17 20.508V3.375c0-.358-.468-.708-1.392-.975"/></svg>