<svg xmlns="http://www.w3.org/2000/svg" viewBox="0 0 24 24"><path fill="#44739e" d="m17.982 7.619.835-.302V9.2l1.685-.603V6.092l-2.52.904ZM13.77 12.65a3.484 3.484 0 0 0 2.508-3.4 3.12 3.12 0 0 0-1.016-2.165c-.526-.448-1.285-.977-3.737-1.037-.507-.012-2.048.043-2.048.043v.087a3.47 3.47 0 0 1 1.128 1.52c.234-.007.589-.026.939-.007a2.85 2.85 0 0 1 1.857.585 1.94 1.94 0 0 1 .684 1.5 2.04 2.04 0 0 1-1.432 1.953 7.3 7.3 0 0 1-1.923.433v.271a3.9 3.9 0 0 1 1.259 1.134c.543.717 3.692 5.352 3.692 5.352h2.6s-4.2-5.856-4.512-6.265Zm5.73-7.569a2.5 2.5 0 1 0 2.5 2.5 2.5 2.5 0 0 0-2.5-2.5m0 4.639a2.136 2.136 0 1 1 2.137-2.137A2.136 2.136 0 0 1 19.5 9.72M8.052 11.998a3.04 3.04 0 0 0 1.641-2.756c0-1.385-.822-3.216-4.265-3.216A123 123 0 0 0 2 6.085v12.83h2.847c3.737 0 5.713-1.377 5.713-3.983a2.92 2.92 0 0 0-2.508-2.934m-2.6 5.129H3.993V7.678c.02 0 .654-.008 1.048-.008 1.626 0 2.528.841 2.553 2a2.06 2.06 0 0 1-.906 1.868 3.8 3.8 0 0 1-1.4.524v.305a8.2 8.2 0 0 1 1.7.435 2.24 2.24 0 0 1 1.39 2.27c.013 1.575-1.512 2.055-2.928 2.055Z"/></svg>