<?xml version="1.0" encoding="UTF-8"?>
<!-- Created with Inkscape (http://www.inkscape.org/) -->
<svg version="1.1" viewBox="0 0 24 24" width="24" height="24" xmlns="http://www.w3.org/2000/svg">
 <path d="m2 12.001v-1.1182l0.6638 0.01512c0.55608 0.01134 0.6858 0.02646 0.79937 0.09676 0.28668 0.17348 0.35902 0.50453 0.17087 0.7818-0.10586 0.15609-0.10609 0.15836-0.019276 0.20485 0.22998 0.12321 0.33033 0.55703 0.19109 0.82628-0.12249 0.23698-0.26918 0.27704-1.0766 0.29556l-0.72911 0.01512zm1.3973 0.73281c0.11766-0.11792 0.13587-0.41582 0.031748-0.51991-0.089613-0.08957-0.36491-0.14362-0.74347-0.14627l-0.29382-2e-3v0.79143l0.45592-0.01512c0.3973-0.01134 0.46798-0.02646 0.54958-0.10847zm-0.094564-1.0439c0.11762-0.14967 0.1155-0.33713-0.00491-0.44946-0.081713-0.07597-0.15284-0.08882-0.50056-0.08882h-0.40532v0.6531h0.41034c0.39148 0 0.4145-0.0038 0.50056-0.11452zm1.2655 0.30652v-1.114l0.64203 0.01512c0.77068 0.0189 0.91287 0.06765 1.0575 0.36662 0.16346 0.33751 0.032882 0.68806-0.31472 0.84359l-0.16728 0.07484 0.32712 0.43654c0.17991 0.24 0.32712 0.44878 0.32712 0.46375 0 0.01512-0.093052 0.02646-0.20678 0.02646l-0.20674-3.03e-4 -0.80489-1.153 0.26906-0.02646c0.22311-0.02268 0.28706-0.04762 0.37448-0.14929 0.085606-0.0994 0.1011-0.15496 0.082318-0.2948-0.036283-0.27175-0.10435-0.3103-0.57536-0.32768l-0.41204-0.01512v1.9672h-0.39179zm2.2656 1.062c0.0012-0.03024 0.22239-0.52702 0.49168-1.1016l0.4896-1.0447 0.39579-0.02268 0.12257 0.27402c0.067427 0.1508 0.21521 0.47002 0.3284 0.70942 0.34201 0.72333 0.56394 1.2047 0.56394 1.2231 0 0.01134-0.094148 0.0189-0.20923 0.0189h-0.20927l-0.27198-0.61228-1.1081 0.02268-0.11977 0.28309c-0.11735 0.27704-0.12336 0.28309-0.29775 0.29632-0.12514 0.0076-0.17737-0.0038-0.1759-0.04346zm1.5577-0.85591c-0.086513-0.22186-0.40362-0.87685-0.42459-0.87685-0.027591 0-0.39613 0.8211-0.39553 0.88146 1.814e-4 0.0189 0.18807 0.03402 0.41749 0.03402s0.41061-0.01512 0.40263-0.03779zm1.5537 0.26797c-0.16396-0.35414-0.38132-0.81396-0.48299-1.0216-0.2818-0.5754-0.28082-0.55861-0.032504-0.55714l0.20969 1e-3 0.41099 0.89106c0.22605 0.49013 0.42191 0.89065 0.43529 0.89008 0.01323-4.91e-4 0.19434-0.39719 0.40222-0.88142l0.37792-0.88044 0.17707-0.01512c0.0974-0.0076 0.17707-0.0038 0.17707 0.0038 0 0.01512-0.16112 0.37493-0.4837 1.075-0.0717 0.15572-0.21437 0.46904-0.31706 0.69645l-0.18671 0.41352-0.38906 0.02268zm2.2405-0.46998v-1.11h0.39179v2.2199h-0.39179zm0.91408 1.084c0-0.01512 0.14876-0.34242 0.3306-0.72911s0.41023-0.87447 0.50755-1.0839l0.17696-0.3809h0.37901l0.1906 0.40263c0.4461 0.94243 0.80942 1.7402 0.80942 1.7774 0 0.02268-0.08821 0.03969-0.19604 0.03969h-0.19604l-0.2725-0.60926h-1.1071l-0.26918 0.60926h-0.17662c-0.09713 0-0.17658-0.01134-0.17658-0.02646zm1.3884-1.3112c-0.11985-0.25663-0.22375-0.47256-0.23089-0.4797-0.0072-0.0076-0.07725 0.13909-0.15583 0.32542-0.07858 0.18595-0.16985 0.40188-0.20285 0.4797l-0.06002 0.14136h0.86752zm2.268 1.3122c0-0.02646 0.23974-0.33789 0.62891-0.81577 0.13289-0.16328 0.24166-0.31143 0.24166-0.32995 0-0.02646-0.49296-0.64592-0.77488-0.97308-0.06164-0.07143-0.04732-0.07635 0.23494-0.07597l0.30055 1.14e-4 0.56043 0.70904 0.14608-0.1697c0.08035-0.09335 0.20731-0.25285 0.28214-0.35452 0.13523-0.18368 0.13784-0.18482 0.41163-0.18482 0.15156 0 0.27557 0.0189 0.27557 0.0378s-0.17601 0.25096-0.39111 0.51145c-0.21509 0.26041-0.39141 0.48404-0.39175 0.49667-3.29e-4 0.01134 0.11909 0.16932 0.26544 0.3481 0.14634 0.17877 0.35316 0.43786 0.45959 0.57551l0.19351 0.2502h-0.5658l-0.25285-0.31143c-0.13909-0.17121-0.29204-0.35792-0.33993-0.41492l-0.08704-0.10356-0.32636 0.41496-0.3264 0.41495h-0.27213c-0.14967 0-0.27213-0.01134-0.27213-0.02646zm2.1623-0.56587-0.47119-0.58768 0.29915-0.35754c0.16452-0.19654 0.35441-0.43087 0.42195-0.52067 0.10496-0.13946 0.14736-0.16328 0.29174-0.16328 0.09294 0 0.16894 0.01134 0.16894 0.02646s-0.16762 0.23093-0.37251 0.48182c-0.20489 0.25096-0.38245 0.48219-0.39462 0.5139-0.01965 0.05065 0.26279 0.43158 0.70878 0.95622 0.07998 0.09411 0.1454 0.18709 0.1454 0.20674 0 0.0189-0.07344 0.03402-0.16324 0.03402-0.15674-2e-3 -0.18202-0.02646-0.63443-0.5893zm0.8702 0.5619c-0.01587-0.01512-0.0291-0.51541-0.0291-1.1099v-1.081l0.72911 1.89e-4c0.40101 1.14e-4 0.80591 0.02268 0.89979 0.04762 0.36064 0.10016 0.53526 0.46069 0.40895 0.84446-0.04796 0.14551-0.0946 0.19238-0.28543 0.28535l-0.22809 0.11112 0.33218 0.4111c0.1827 0.22602 0.35142 0.43555 0.37493 0.46549 0.03326 0.04233-0.02041 0.05443-0.24159 0.05443h-0.2843l-0.23221-0.29367c-0.12771-0.16139-0.33494-0.42603-0.4605-0.58764l-0.22832-0.29367h0.12401c0.26725 0 0.5277-0.05858 0.61278-0.13795 0.13844-0.12888 0.12427-0.43759-0.02532-0.5554-0.09842-0.07748-0.1756-0.09033-0.5441-0.09033h-0.42939v1.9587h-0.23214c-0.12767 0-0.24522-0.01134-0.26117-0.03024z" fill="#44739f"/>
</svg>
