<svg xmlns="http://www.w3.org/2000/svg" viewBox="0 0 24 24"><path fill="#44739e" d="M12 22a10 10 0 1 1 10-10 10 10 0 0 1-10 10m0-3.125A6.875 6.875 0 1 0 5.125 12 6.875 6.875 0 0 0 12 18.875m-.617-12.663a25 25 0 0 1 .819-.04v1.682h-.818Zm1.969 1.667V6.333a5.97 5.97 0 0 1 3.666 2.724 5.8 5.8 0 0 1 .414 5.037 5.93 5.93 0 0 1-4.084 3.572v-1.535a4.5 4.5 0 0 0 2.526-.738 2.64 2.64 0 0 0 .669-2.566 1.83 1.83 0 0 0-1.436-1.251 1.918 1.918 0 0 0 .309-3 3.9 3.9 0 0 0-2.064-.697m-5.466-.022a6.9 6.9 0 0 1 2.379-1.418v1.447c-.794 0-1.589.01-2.381-.029ZM6.96 9.1c.231-.433.595-.776.824-1.21a.24.24 0 0 1 .044.193 8 8 0 0 0 .058.983 6.5 6.5 0 0 1 1.214.052.5.5 0 0 1 .374.531c.013 1.447 0 2.894.008 4.34-.012.253.051.558-.169.743a3.9 3.9 0 0 1-1.174.067 4 4 0 0 0-.264 1.294c.8.044 1.594.015 2.39.023v1.445A5.93 5.93 0 0 1 6.7 14.4a5.79 5.79 0 0 1 .26-5.3m4.456.063a4.2 4.2 0 0 1 2.078.285.91.91 0 0 1 .05 1.5 3.85 3.85 0 0 1-2.127.348zm0 3.28a5.07 5.07 0 0 1 2.55.336.955.955 0 0 1 .082 1.576 5.1 5.1 0 0 1-2.632.454v-2.365Zm-.032 3.7h.854v1.68q-.428-.011-.855-.038l.001-1.638Z"/></svg>