<?xml version="1.0" encoding="UTF-8"?>
<svg width="32px" height="32px" viewBox="0 0 32 32" version="1.1" fill="#44739e" xmlns="http://www.w3.org/2000/svg" xmlns:xlink="http://www.w3.org/1999/xlink">
            <path d="m12.211 1.1035c-0.30153 0.0043-0.8125 0.24805-0.8125 0.24805 0-1e-7 -1.6904-0.11814-3.3906 1.3242-1.7002 1.4424-0.95312 4.1387-0.95312 4.1387l2.4336 9.3086c0.12001 0.01046 0.2412 0.018064 0.36133 0.027344 0.37383 0.01991 1.6062 0.089636 2.4102 0.097656 0.89619 0.0089 2.5866-0.049244 2.6875-0.052735 0.02658-0.001699 0.053498-0.004059 0.080078-0.005859l2.4062-9.1836s0.8756-2.6835-0.65625-4.1777c-1.5319-1.4943-3.6582-1.4766-3.6582-1.4766s-0.60668-0.25235-0.9082-0.24805zm2.4395 2.623c0.20456 0.031963 0.378 0.1646 0.43359 0.34961 0.03884 0.11922 0.020646 0.24536-0.052734 0.35156s-0.19465 0.18276-0.33398 0.20898l-3.4648 0.74805c-0.27974 0.074827-0.43945 0.20536-0.43945 0.29883 0 0.093557 0.16163 0.23346 0.46289 0.29883l3.334 0.79492c0.53506 0.13336 0.9043 0.55731 0.9043 1.041 0 0.48371-0.36924 0.90961-0.9043 1.043l-3.9922 0.93555c-0.07639 0.013486-0.13049 0.070962-0.12891 0.13867-0.0065 0.069021 0.049929 0.13103 0.12891 0.14063l3.3242 0.79492c0.67525 0.11163 1.1827 0.60202 1.2383 1.1973-0.05219 0.60161-0.56494 1.0963-1.248 1.2051l-3.3789 0.68164h-0.12891c-0.29706 0.02838-0.56495-0.15782-0.59766-0.41602-0.0327-0.2581 0.18145-0.4892 0.47852-0.51758l3.3574-0.68359c0.27974-0.07473 0.44141-0.20537 0.44141-0.29883s-0.16163-0.23337-0.46289-0.29883l-3.3359-0.73828c-0.54345-0.12765-0.91891-0.55783-0.91406-1.0469-0.0075001-0.48792 0.36997-0.91621 0.91406-1.0371l3.9941-0.93555c0.07639-0.013579 0.12854-0.072916 0.12695-0.14062 0.0026-0.069957-0.048946-0.13092-0.12695-0.14844l-3.3145-0.80469c-0.68504-0.10564-1.1995-0.60197-1.248-1.2051 0.052187-0.60161 0.56494-1.0982 1.248-1.207l3.4746-0.74609c0.07177-0.013322 0.14275-0.014556 0.21094-0.0039063zm-5.3027 13.297c-0.011108 0.24639-0.062815 0.48846-0.15234 0.71875-0.14412 0.40832-0.011179 0.86133 0.33203 1.1309l0.4082 2.5156c0.025824 0.20584 0.12747 0.39377 0.28516 0.53125l0.44727 0.40234 0.083984 0.083984 0.46484 0.54297c0.18286 0.21615 0.45651 0.33924 0.74219 0.33594h0.70117c0.28568 0.003278 0.55738-0.11979 0.74024-0.33594l0.4668-0.54297 0.083984-0.083984 0.44727-0.40234c0.1577-0.13748 0.25934-0.3254 0.28516-0.53125l0.4082-2.4863c0.34321-0.26943 0.47615-0.72264 0.33203-1.1309-0.087815-0.23085-0.13952-0.4745-0.15234-0.7207-0.9494 0.093461-1.8989 0.15039-2.7344 0.15039-1.0658-0.001405-2.1302-0.060858-3.1895-0.17773z"></path>
</svg>