<?xml version="1.0" encoding="UTF-8"?>
<svg width="33px" height="32px" viewBox="0 0 33 32" version="1.1" xmlns="http://www.w3.org/2000/svg" xmlns:xlink="http://www.w3.org/1999/xlink">
    <!-- Generator: Sketch 51.3 (57544) - http://www.bohemiancoding.com/sketch -->
    <style>path{fill:#000}@media (prefers-color-scheme:dark){path{fill:#fff}}</style>
            <path d="M12.37,18.4l0.47,2.9c0.02,0.2,0.12,0.39,0.28,0.53l0.44,0.4c0.03,0.02,0.06,0.05,0.08,0.08l0.46,0.54 c0.17,0.21,0.45,0.34,0.73,0.34h0.68c0.29,0,0.55-0.12,0.73-0.34l0.46-0.54c0.02-0.03,0.05-0.06,0.08-0.08l0.43-0.4 c0.16-0.14,0.26-0.33,0.28-0.53l0.47-2.9c-0.97,0.1-2.04,0.13-2.8,0.13C14.41,18.53,13.35,18.49,12.37,18.4 M21.05,2.11c-1.52-1.39-5.62-1.3-5.88-1.3s-4.36-0.09-5.88,1.3C7.87,3.42,9.16,5.83,9.6,6.69 c1.17,0.34,3.05,0.65,5.57,0.65c2.52,0,4.4-0.31,5.57-0.65C21.18,5.83,22.47,3.42,21.05,2.11z M15.17,8.27c-1.42,0-3.49-0.14-5.17-0.51c1.27,3.93,1.49,7.53,1.44,8.55c-0.01,0.24,0.07,0.47,0.23,0.65l0.41,0.47 c0.89,0.11,1.92,0.17,3.09,0.17s2.2-0.07,3.09-0.17l0.41-0.47c0.16-0.18,0.24-0.41,0.23-0.65c-0.04-1.02,0.17-4.62,1.44-8.55 C18.66,8.13,16.59,8.27,15.17,8.27z M4.67,18.34c0,0.35,0.28,0.63,0.63,0.63s0.63-0.28,0.63-0.63v-0.98c-0.57-0.05-0.98-0.17-1.27-0.34V18.34z M9.1,8.21c-0.02-0.05-0.03-0.1-0.05-0.15C8.99,7.88,8.99,7.69,9.03,7.51C8.9,7.42,8.79,7.29,8.71,7.14L8.67,7.06 C8.62,6.96,8.55,6.83,8.49,6.7c0-0.01-0.01-0.01-0.01-0.02C8.27,6.25,8.02,5.69,7.85,5.07c0,0,0,0,0,0 C7.44,5.04,7.01,5.03,6.57,5.03c-2.76,0-5.07,0.58-5.59,1.34C0.91,6.48,0.87,6.59,0.87,6.71c0,0.93,2.56,1.68,5.71,1.68 C7.48,8.39,8.34,8.33,9.1,8.21z M9.67,10.26C9.67,10.26,9.67,10.26,9.67,10.26C9.55,9.79,9.42,9.31,9.28,8.82c-0.94,0.14-1.92,0.2-2.71,0.2 c-1.47,0-3.56-0.19-4.94-0.77c0.21,1.22,0.72,2.88,2.26,3.99c0.13,0.12,0.14,0.32,0.14,0.71v2.34c0,0.3,0.1,0.6,0.29,0.82 c0.32,0.36,1,0.63,2.24,0.63c1.24,0,1.92-0.27,2.24-0.63c0.2-0.22,0.3-0.52,0.3-0.82v-2.34c0-0.4,0.01-0.59,0.14-0.71 c0.27-0.19,0.49-0.41,0.7-0.63c0,0,0,0,0,0C9.87,11.18,9.78,10.73,9.67,10.26z M7.21,18.34c0,0.35,0.28,0.63,0.63,0.63c0.35,0,0.63-0.28,0.63-0.63v-1.31c-0.29,0.16-0.7,0.28-1.27,0.34V18.34z"/>

</svg>