<?xml version="1.0" encoding="UTF-8"?>
<svg width="33px" height="32px" viewBox="0 0 24 24" fill="#44739e" version="1.1" xmlns="http://www.w3.org/2000/svg" xmlns:xlink="http://www.w3.org/1999/xlink">
            <path d="M 15.491528,4.4735742 C 14.561281,3.6322153 12.403103,3.5549719 11.464715,3.5668555 10.584467,3.5549719 8.4239651,3.6322153 7.4925537,4.4747626 6.434396,5.4254507 7.2785966,7.0523157 7.6204629,7.7142323 l 0.062791,0.1188359 0.134886,0.039216 a 13.721166,14.022649 0 0 0 3.6733191,0.4242446 13.759539,14.061866 0 0 0 3.672156,-0.4242446 l 0.163957,-0.092692 0.06163,-0.118836 c 0.316279,-0.609629 1.162804,-2.2317405 0.102322,-3.1871821 z M 14.835703,7.2674088 A 13.570001,13.868162 0 0 1 11.491459,7.6346121 13.565349,13.863409 0 0 1 8.1437278,7.2781041 5.5024201,5.62332 0 0 1 7.7344184,6.2846351 1.3046735,1.3333401 0 0 1 7.9390731,4.8586029 6.4780183,6.6203541 0 0 1 11.522856,4.1182547 6.3210388,6.4599255 0 0 1 15.039195,4.8586029 c 0.668617,0.5953684 0.12791,1.7706566 -0.203492,2.4088059 z M 7.820211,8.3222272 a 21.001249,21.059727 0 0 1 1.0433241,6.2052998 0.67383688,0.67571315 0 0 0 0.1695822,0.468494 l 0.2942421,0.337857 a 18.805664,18.858028 0 0 0 2.2348926,0.127259 18.867433,18.919968 0 0 0 2.238261,-0.127259 l 0.291996,-0.332226 a 0.67383688,0.67571315 0 0 0 0.16509,-0.468494 21.070879,21.12955 0 0 1 1.036586,-6.2052998 18.541745,18.593374 0 0 1 -3.735303,0.3671375 18.499068,18.550578 0 0 1 -3.738671,-0.3727685 z m 2.525765,11.0524148 -0.180813,0.181317 a 4.7381963,4.7513897 0 0 0 2.789685,-0.271412 l -0.09097,-0.0901 a 4.8123184,4.8257181 0 0 1 -2.517904,0.18019 z m 0.627791,0.807478 a 2.1989543,2.2050773 0 0 0 1.080386,0 c 0,-0.09009 0.179689,-0.270286 0.269534,-0.360381 h -1.619454 a 1.243229,1.2466908 0 0 1 0.269534,0.360381 z m -1.4330254,-4.138743 0.336917,2.102594 a 0.61880687,0.62052991 0 0 0 0.2010284,0.387409 h 2.968252 a 0.60982237,0.61152041 0 0 0 0.204397,-0.387409 l 0.336918,-2.102594 c -0.704159,0.06982 -1.474579,0.0946 -2.02151,0.0946 -0.546931,0 -1.329705,-0.02478 -2.0260024,-0.0946 z m 0.8041114,2.787316 -0.180813,0.180191 a 5.6433838,5.6590977 0 0 0 2.790808,-0.180191 8.4746218,8.4982191 0 0 1 -2.609995,0 z"/>

</svg>