<svg xmlns="http://www.w3.org/2000/svg" viewBox="0 0 24 24"><path fill="#44739e" d="M2.684 4.124c-.444.134-.684.329-.684.56v7.334c0 .222.213.409.649.542.418.124.969.196 1.555.196.578 0 1.165-.072 1.609-.196.507-.142.765-.347.765-.596V8.062l.586.587v6.364c0 .187.143.445.827.658.569.169 1.325.267 2.133.267.8 0 1.6-.098 2.205-.267.649-.187.987-.435.987-.729V14.8l.675.676v3.377c0 .267.338.534 1.013.747.765.231 1.787.356 2.836.356q.307 0 .613-.027l1.183 1.182 1.253-1.253L3.911 2.889Zm1.6 3.334c-1.075 0-1.635-.276-1.635-.391V5.644c.355.196.995.329 1.635.329.063 0 .125-.009.187-.017l1.262 1.262c-.24.115-.729.24-1.449.24m5.965-.916c.924 0 1.849-.195 2.302-.489.018-.017.036-.009.045 0s.008.027.008.027v2.08c0 .213-.568.48-1.528.587l2.24 2.24V4.773c.008-.275-.294-.506-.898-.684-.542-.16-1.271-.24-2.062-.24-.783 0-1.529.089-2.116.24-.684.178-1.058.444-1.076.747l1.503 1.502a6.2 6.2 0 0 0 1.582.204M8.382 4.969c0-.027.098-.16.578-.267.764-.186 1.973-.186 2.684-.009.392.098.472.214.472.231 0 .036-.098.152-.525.258-.791.196-2.071.196-2.791 0-.347-.089-.418-.186-.418-.213m12.489-.693c-.738-.214-1.724-.32-2.729-.32-.995 0-2.018.106-2.809.32-.88.231-1.342.551-1.342.871v6.506l7.556 7.556-.16.16c.4-.187.613-.4.613-.613V5.058c-.009-.285-.391-.569-1.129-.782m-4.658.533c1.067-.249 2.703-.249 3.698 0 1.013.258.996.675-.08.942-1.093.276-2.835.276-3.84 0-.987-.267-.862-.693.222-.942m5.111 4.818c0 .551-1.493.995-3.333.995s-3.333-.444-3.333-.995v-2.8c0-.16.178-.249.311-.16.533.337 1.68.631 3.022.631s2.489-.294 3.022-.631c.134-.089.311 0 .311.16Z"/></svg>