<svg xmlns="http://www.w3.org/2000/svg" viewBox="0 0 24 24"><path fill="#44739e" d="M12 2c4.734 0 8.571.639 8.571 1.429v17.142C20.571 21.36 16.734 22 12 22s-8.571-.64-8.571-1.429V3.429C3.429 2.639 7.266 2 12 2m6.857 17.404V7.714h-14v11.69c0 .645 3.277 1.167 7.143 1.167s6.857-.522 6.857-1.167M8.066 15.1c1.155.353 2.84.469 3.935.469s2.778-.116 3.935-.469c-.472 1.196-1.286 1.726-1.48 2.842-.085.486-.156.707-.109 1.204.03.315-.218.593-.544.626a19 19 0 0 1-1.803.085 19 19 0 0 1-1.803-.086c-.326-.031-.573-.309-.543-.625.047-.497-.025-.719-.11-1.205-.193-1.115-1.009-1.645-1.479-2.842m-.221-1.205a4 4 0 0 1-.078-.42c-.019-.155-.052-.305-.052-.477 0-1.878 1.927-3.854 4.286-3.854s4.286 1.976 4.286 3.855c0 .171-.034.322-.052.477a4 4 0 0 1-.078.419c-.667.273-2.084.587-4.156.587s-3.488-.314-4.156-.587"/></svg>