<?xml version="1.0" encoding="UTF-8"?>
<svg width="33px" height="32px" viewBox="0 0 33 32" version="1.1" xmlns="http://www.w3.org/2000/svg" xmlns:xlink="http://www.w3.org/1999/xlink">
    <!-- Generator: Sketch 51.3 (57544) - http://www.bohemiancoding.com/sketch -->
    <style>path{fill:#000}@media (prefers-color-scheme:dark){path{fill:#fff}}</style>
            <path d="M11.7,7.9L7.6,9.4c-0.2,0.1-0.5,0.1-0.7,0L2.8,7.9c-0.2-0.1-0.1-0.3,0-0.3l4.1-1.4c0.2-0.1,0.5-0.1,0.7,0l4.1,1.4 C11.9,7.6,11.9,7.9,11.7,7.9 M13.8,5.1L7.6,2.7c-0.2-0.1-0.5-0.1-0.7,0L0.7,5.1C0.5,5.2,0.4,5.4,0.4,5.6v2.1c0,0.2,0.1,0.4,0.3,0.5 l6.2,2.4c0.2,0.1,0.5,0.1,0.7,0l6.2-2.4c0.2-0.1,0.3-0.3,0.3-0.5V5.6C14.1,5.4,14,5.2,13.8,5.1 M20.4,16.6l-5.4,2c-0.3,0.1-0.6,0.1-0.9,0l-5.4-2c-0.2-0.1-0.2-0.4,0-0.5l5.4-1.9c0.3-0.1,0.6-0.1,0.9,0l5.4,1.9 C20.6,16.2,20.6,16.5,20.4,16.6 M23.2,12.8l-8.1-3.1c-0.3-0.1-0.6-0.1-0.9,0L6,12.8c-0.2,0.1-0.4,0.4-0.4,0.7v2.8 c0,0.3,0.2,0.6,0.4,0.7l8.1,3.1c0.3,0.1,0.6,0.1,0.9,0l8.1-3.1c0.2-0.1,0.4-0.4,0.4-0.7v-2.8C23.6,13.2,23.4,12.9,23.2,12.8"/>

</svg>