<svg xmlns="http://www.w3.org/2000/svg" viewBox="0 0 24 24"><path fill="#44739e" d="m7.612 6.731.155.039a15.716 13.856 0 0 0 4.221.42 15.752 13.888 0 0 0 4.219-.42l.188-.094.066-.114c.364-.604 1.337-2.212.118-3.159-1.073-.834-3.548-.911-4.627-.898-1.014-.012-3.494.063-4.565.898-1.216.946-.245 2.555.147 3.211Zm.293-2.959a7.435 6.555 0 0 1 3.053-.749 7.672 6.763 0 0 1 1.065.015 7.245 6.387 0 0 1 4.041.734c.768.602.146 1.767-.231 2.4a15.566 13.725 0 0 1-3.845.364 15.565 13.724 0 0 1-3.848-.36 6.194 5.46 0 0 1-.475-.984 1.502 1.324 0 0 1 .235-1.42Zm4.091 3.91a22.7 22.7 0 0 1-4.587-.456 25.8 25.8 0 0 1 1.28 7.59.83.83 0 0 0 .208.573l.362.413a23 23 0 0 0 2.74.155 23 23 0 0 0 2.746-.155l.358-.407a.83.83 0 0 0 .202-.573 25.9 25.9 0 0 1 1.271-7.59 22.8 22.8 0 0 1-4.58.45m-1.488 12.744-.221.221a5.8 5.8 0 0 0 3.422-.331l-.111-.111a5.9 5.9 0 0 1-3.09.221m.77.988a2.7 2.7 0 0 0 1.327 0c0-.111.221-.332.332-.442h-1.991a1.6 1.6 0 0 1 .332.442M9.52 16.352l.414 2.572a.77.77 0 0 0 .246.473h3.641a.75.75 0 0 0 .25-.473l.414-2.572c-.864.085-1.809.111-2.486.111s-1.625-.026-2.479-.111m.987 3.409-.222.222a6.9 6.9 0 0 0 3.43-.222 10.4 10.4 0 0 1-3.208 0M2.697 8.653a11.3 11.3 0 0 0 3.047.344 11 11 0 0 0 1.704-.089q-.069-.264-.144-.528a11 11 0 0 1-1.56.085 11.3 11.3 0 0 1-2.776-.294 4.4 4.4 0 0 1-.34-.812 1.08 1.08 0 0 1 .171-1.162 5.4 5.4 0 0 1 2.971-.601 5 5 0 0 1 .754-.007h.043q-.085-.199-.161-.42c-.266-.011-.502-.014-.684-.011a5.8 5.8 0 0 0-3.295.735c-.877.774-.177 2.092.111 2.628l.052.096Zm3.113.744a16 16 0 0 1-3.208-.318 18 18 0 0 1 .895 5.31.57.57 0 0 0 .146.4l.252.29a17 17 0 0 0 1.919.11 17 17 0 0 0 1.922-.11l.251-.285a.6.6 0 0 0 .141-.401q.014-.79.095-1.573a27 27 0 0 0-.608-3.52 16 16 0 0 1-1.805.097m-1.041 9.144-.155.155a4.1 4.1 0 0 0 2.395-.232l-.08-.071a4.1 4.1 0 0 1-2.16.148m.538.692a1.9 1.9 0 0 0 .929 0c0-.078.153-.232.231-.309H5.076a1.1 1.1 0 0 1 .231.309m-1.23-3.544.289 1.8a.53.53 0 0 0 .173.332h2.544a.53.53 0 0 0 .176-.332l.289-1.8a19 19 0 0 1-3.471 0m.691 2.386-.155.155a4.9 4.9 0 0 0 2.396-.155 7.3 7.3 0 0 1-2.241 0m10.336-10.77a2 2 0 0 1-.065-.314 2 2 0 0 0 .065.314m6.467-1.467a5.86 5.86 0 0 0-3.339-.736c-.176 0-.411 0-.68.013-.052.148-.111.29-.166.424.041 0 .083-.008.125-.011a5.5 5.5 0 0 1 .774.011 5 5 0 0 1 .755-.009 5.2 5.2 0 0 1 2.161.611c.554.492.111 1.445-.166 1.963a11 11 0 0 1-2.775.299 11 11 0 0 1-1.596-.085 31 31 0 0 0-.142.525 11 11 0 0 0 1.738.095 11.4 11.4 0 0 0 3.044-.343l.131-.078.051-.096c.262-.492.964-1.808.085-2.583m-5.184 3.455a27 27 0 0 0-.585 3.332q.101.877.117 1.77a.57.57 0 0 0 .146.401l.253.289a17 17 0 0 0 1.919.111 17 17 0 0 0 1.921-.111l.25-.284a.57.57 0 0 0 .142-.401 18.1 18.1 0 0 1 .885-5.31 16 16 0 0 1-3.208.314 16 16 0 0 1-1.84-.111m.806 9.248-.156.155a4.06 4.06 0 0 0 2.394-.232l-.077-.077a4.1 4.1 0 0 1-2.161.154m.538.692a1.9 1.9 0 0 0 .927 0c0-.078.155-.232.233-.309H17.5a1.1 1.1 0 0 1 .231.309m-1.23-3.544.289 1.8a.53.53 0 0 0 .172.332h2.545a.53.53 0 0 0 .176-.332l.288-1.8a19 19 0 0 1-3.47 0m.69 2.386-.156.155a4.9 4.9 0 0 0 2.396-.155 7.3 7.3 0 0 1-2.24 0"/></svg>