<svg xmlns="http://www.w3.org/2000/svg" fill="#44739e" width="24" height="24" version="1.1" viewBox="0 0 2400 2400"><path d="M1500 1559c-10 61-19 147-13 210 4 40-26 75-66 79-65 7-138 11-221 11s-156-4-221-11c-40-4-71-39-67-79 6-63-2-149-13-210-24-141-124-208-181-359 141 45 348 59 482 59s341-14 482-59c-58 151-158 218-182 359zm-112 597a73 73 0 01-23 43l-35 32c-3 2-5 5-7 7l-37 44c-14 17-36 27-59 27h-55a72 72 0 01-57-26l-37-44c-2-3-5-5-7-7l-35-32a68 68 0 01-23-43l-38-233c78 7 164 10 225 10s147-3 225-10l-37 232zm337-1160c0 22-4 41-6 61-3 19-6 35-10 53-82 35-255 75-509 75s-427-39-509-74c-4-18-8-34-10-53-2-20-6-40-6-61 0-238 236-488 525-488s525 250 525 487zm-199-697c-74-95-192-165-326-165s-252 70-326 165c61 35 113 82 153 136 56-17 114-26 173-26 61 0 118 10 173 26 40-53 92-101 153-136zM969 456c-74-91-190-158-320-158-224 0-407 194-407 378 0 16 3 32 5 47s5 27 8 41c59 26 179 53 353 57 59-160 195-297 361-365zM590 878c-100-3-224-15-315-44 44 117 121 169 140 278 8 48 15 114 10 163-3 31 21 58 52 61 50 6 107 9 171 9 10 0 19-1 28-1a728.4 728.4 0 01-83-210v-1l-2-7c-1-1-1-3-1-4-1-4-1-8-2-12-2-12-5-25-7-41-1-6-1-12-2-17-2-16-4-34-4-55 0-40 5-80 15-119zm59 525c-47 0-114-3-174-8l29 181c2 12 8 24 18 33l27 24c2 2 4 3 5 6l29 34c9 12 26 20 44 20h43c18 0 35-8 46-21l28-34c2-2 3-4 6-5l27-25c9-9 16-21 18-34l1-12c-12-51-38-92-71-142-4-6-8-13-12-19-23 1-45 1-64 2zm1510-728c0-183-183-377-407-377-131 0-245 66-320 157 171 70 301 212 359 366 174-4 295-32 354-57 3-14 6-26 8-41 2-16 5-30 6-48zm-435 668c9 0 18 1 28 1 64 0 121-4 171-9 31-3 54-30 51-61-5-49 2-116 10-163 19-109 96-161 141-278-92 29-216 41-316 44 10 39 16 79 16 118 0 22-3 40-5 55-1 5-1 11-2 16 0 2-1 4-1 6-1 10-3 18-5 27V1100c0 4-2 16-6 31v1c-10 38-27 94-31 104-15 41-34 76-51 107zm-121 216 3 17c2 12 8 24 18 33l27 25 5 5 29 34c9 12 26 20 44 20h43c18 0 35-8 46-21l29-34 5-5 25-25a60 60 0 00 18-33l29-180c-60 6-127 8-174 8-18 0-41 0-64-1l-12 18c-32 49-58 89-71 139"/></svg>
