<?xml version="1.0" encoding="UTF-8"?>
<svg width="33px" height="32px" viewBox="0 0 24 24" version="1.1" xmlns="http://www.w3.org/2000/svg" xmlns:xlink="http://www.w3.org/1999/xlink">
    <!-- Generator: Sketch 51.3 (57544) - http://www.bohemiancoding.com/sketch -->
    <style>path{fill:#000}@media (prefers-color-scheme:dark){path{fill:#fff}}</style>
            <path d="M15,17c-0.9,0.1-1.9,0.2-2.7,0.2c-1.1,0-2.1-0.1-3.2-0.2c0,0.2-0.1,0.5-0.2,0.7c-0.1,0.4,0,0.9,0.3,1.1l0.4,2.5 c0,0.2,0.1,0.4,0.3,0.5l0.4,0.4l0.1,0.1l0.5,0.5c0.2,0.2,0.5,0.3,0.7,0.3h0.7c0.3,0,0.6-0.1,0.7-0.3l0.5-0.5l0.1-0.1l0.4-0.4 c0.2-0.1,0.3-0.3,0.3-0.5l0.4-2.5c0.3-0.3,0.5-0.7,0.3-1.1C15,17.5,15,17.3,15,17z M18.7,6.9L18.7,6.9c0-2.9-0.8-6.1-6.7-6.1C6.1,0.7,5.3,4,5.3,6.9c0,0,0,0,0,0c0,2.2,1.2,5.8,3.1,8.1 c0.3,0.4,0.6,0.7,0.9,1c0,0,0.6,0.2,2.7,0.2c2.1,0,2.7-0.2,2.7-0.2c0.3-0.3,0.6-0.6,0.9-1c1.9-2.3,3.1-5.9,3.1-8.1 C18.7,6.9,18.7,6.9,18.7,6.9z M12.3,6.7c-2.9,0-4.7,0.1-6,0.2c0-2.7,0.8-5.1,5.7-5.1c4.9,0,5.7,2.4,5.7,5.1 C16.5,6.7,14.8,6.7,12.3,6.7z"/>

</svg>