<svg xmlns="http://www.w3.org/2000/svg" viewBox="0 0 24 24"><path fill="#44739e" d="M10.296 15.722c-.718.09-1.345.09-1.973.09-.807 0-1.525 0-2.332-.09 0 .179-.09.359-.09.538-.089.269 0 .628.269.807l.269 1.794c0 .179.09.269.18.359l.359.269.089.089.359.359c.09.18.269.269.448.269h.539c.179 0 .448-.089.538-.269l.358-.359v-.089l.359-.269c.09-.09.18-.269.18-.359l.269-1.794c.269-.179.358-.538.269-.807 0-.179-.09-.359-.09-.538m7.085.807c-.807.09-1.704.18-2.421.18-.987 0-1.884-.09-2.87-.18 0 .18-.09.449-.18.628-.089.359 0 .807.269.986l.359 2.243c0 .179.09.358.269.448l.359.359.09.09.448.448a.97.97 0 0 0 .628.269h.628c.269 0 .538-.09.627-.269l.449-.448.09-.09.358-.359a.49.49 0 0 0 .269-.448l.359-2.243c.269-.269.449-.627.269-.986ZM20.7 7.471C20.7 4.87 19.982 2 14.691 2c-2.87 0-4.305.807-5.113 2.063-.717.986-.896 2.332-.896 3.498 0 1.973 1.076 5.201 2.78 7.264.269.359.538.628.807.897 0 0 .538.179 2.422.179s2.421-.179 2.421-.179a8 8 0 0 0 .807-.897c1.704-2.063 2.781-5.291 2.781-7.264Zm-5.74-.18c-2.601 0-4.216.09-5.382.18 0-.897.09-1.794.539-2.601.089-.179.269-.448.448-.628.718-.807 1.973-1.345 4.215-1.345 4.395 0 5.112 2.152 5.112 4.574-1.166-.18-2.69-.18-4.932-.18m-6.817 7.893c1.525 0 1.974-.18 1.974-.18.089-.089.089-.179.179-.179-1.435-2.063-2.332-4.753-2.511-6.637-1.794 0-2.96.09-3.857.09 0-1.973.538-3.677 4.126-3.677h.089c.18-.269.27-.449.359-.718h-.359C3.839 3.883 3.3 6.305 3.3 8.368c0 1.614.897 4.215 2.243 5.919.179.269.448.538.627.717 0 0 .449.18 1.973.18"/></svg>