<?xml version="1.0" encoding="UTF-8"?>
<svg width="32px" height="32px" viewBox="0 0 32 32" version="1.1" fill="#44739e" xmlns="http://www.w3.org/2000/svg" xmlns:xlink="http://www.w3.org/1999/xlink">
            <path d="M11.9,13.9c-1.3,0-3.2-0.1-4.6-0.5c0,0,0,0.1,0,0.1c0,2.3,0.7,3.9,1.6,4.8c0.8,0.1,1.8,0.2,3,0.2c1.2,0,2.2-0.1,3-0.2c0.9-0.9,1.6-2.5,1.6-4.8c0,0,0-0.1,0-0.1C15.1,13.8,13.2,13.9,11.9,13.9z M9.6,19.4l0.4,2.3c0,0.2,0.1,0.3,0.2,0.4l0.4,0.3c0,0,0,0,0.1,0.1l0.4,0.4c0.1,0.2,0.4,0.3,0.6,0.3h0.6c0.2,0,0.5-0.1,0.6-0.3l0.4-0.4c0,0,0,0,0.1-0.1l0.4-0.3c0.1-0.1,0.2-0.3,0.2-0.4l0.4-2.3c-0.8,0.1-1.7,0.1-2.3,0.1S10.4,19.5,9.6,19.4z M13,12.4c0.2-0.1,0.4-0.2,0.4-0.3c0-0.1-0.2-0.2-0.4-0.3l-3-0.6c-0.5-0.1-0.8-0.5-0.9-1c0-0.5,0.3-0.9,0.8-1.1L13.3,8c0.1,0,0.1-0.1,0.1-0.1c0-0.1-0.1-0.1-0.1-0.1l-2-0.4l-1-0.2C9.8,7,9.3,6.5,9.2,5.9c0-0.6,0.4-1.1,1-1.3l3-0.9c0.3-0.1,0.5,0.1,0.6,0.3c0,0.1,0,0.2,0,0.4s-0.2,0.2-0.3,0.2l-3,0.9c-0.2,0.1-0.4,0.2-0.4,0.3c0,0.1,0.2,0.2,0.4,0.3l3,0.7c0.5,0.1,0.8,0.5,0.8,1c0,0.5-0.3,0.9-0.7,1.1L10.2,10c-0.1,0-0.1,0.1-0.1,0.1c0,0.1,0.1,0.1,0.1,0.1l3,0.7c0.6,0.1,1.1,0.6,1.1,1.1c0,0.3-0.1,0.6-0.3,0.8c1.1-0.1,1.9-0.2,2.5-0.4C16.2,7.6,13.7,1,11.9,1c-1.7,0-4.3,6.7-4.6,11.5c0.8,0.2,2.1,0.4,3.7,0.5L13,12.4z"/>

</svg>