<svg viewBox="0 0 24 24" height="24px" width="24px" fill="#44739e" xmlns="http://www.w3.org/2000/svg"><title>hue:bulb-spot-off</title><path d="M10.96,8.45l4.08,4.07c0.02-0.1,0.06-0.18,0.12-0.24c1.82-1.31,2.43-3.28,2.67-4.72 C16.21,8.25,13.73,8.48,12,8.48C11.68,8.48,11.32,8.47,10.96,8.45 M12,7.73c3.73,0,6.75-0.89,6.75-1.99S15.73,3.75,12,3.75c-2.02,0-3.83,0.26-5.07,0.68l3.23,3.23 C10.75,7.7,11.36,7.73,12,7.73z M12.75,19.5c0,0.41,0.34,0.75,0.75,0.75s0.75-0.34,0.75-0.75v-1.55c-0.34,0.19-0.83,0.34-1.5,0.4V19.5z M9.75,19.5c0,0.41,0.34,0.75,0.75,0.75s0.75-0.34,0.75-0.75v-1.16c-0.67-0.06-1.16-0.21-1.5-0.4V19.5z M21.98,20.94L2.86,1.87L1.45,3.28l4.81,4.8c0.3,1.37,0.96,3.04,2.57,4.2C8.98,12.43,9,12.66,9,13.13v2.77 c0,0.36,0.11,0.71,0.35,0.97c0.38,0.43,1.18,0.75,2.65,0.75s2.27-0.32,2.65-0.75c0.07-0.08,0.11-0.17,0.15-0.26l5.77,5.76 L21.98,20.94z"/></svg>