<?xml version="1.0" encoding="UTF-8"?>
<svg width="33px" height="32px" viewBox="0 0 24 24" fill="#44739e" version="1.1" xmlns="http://www.w3.org/2000/svg" xmlns:xlink="http://www.w3.org/1999/xlink">
            <path d="m 8.0169996,7.3577976 0.1396817,0.035064 a 14.206782,12.525624 0 0 0 3.8160217,0.3797199 14.239763,12.554701 0 0 0 3.814084,-0.3788646 l 0.169752,-0.085523 0.06014,-0.1034822 C 16.345514,6.6590789 17.225314,5.2051967 16.12338,4.3491165 15.153371,3.5948083 12.915555,3.525535 11.940693,3.5366529 11.024033,3.5272455 8.7823383,3.593953 7.8142674,4.3491165 6.7152448,5.2043414 7.5921349,6.6582237 7.9471589,7.2517498 Z M 8.2818127,4.6826543 a 6.7212065,5.9258531 0 0 1 2.7606503,-0.6764829 6.9346089,6.1140026 0 0 1 0.96225,0.012828 6.5485446,5.7736231 0 0 1 3.653063,0.6636546 c 0.694528,0.5439229 0.131921,1.5975599 -0.208552,2.1688502 A 14.07195,12.406747 0 0 1 11.972703,7.1807661 14.07098,12.405892 0 0 1 8.4952151,6.8557807 5.5989037,4.9363579 0 0 1 8.0655003,5.9654916 1.3580155,1.1973148 0 0 1 8.2779327,4.6826543 Z M 11.98,8.217 a 20.479,20.479 0 0 1 -4.146,-0.412 23.292,23.292 0 0 1 1.157,6.861 0.752,0.752 0 0 0 0.188,0.518 l 0.327,0.374 a 20.705,20.705 0 0 0 2.477,0.14 20.788,20.788 0 0 0 2.482,-0.14 l 0.324,-0.368 a 0.749,0.749 0 0 0 0.183,-0.518 23.36,23.36 0 0 1 1.149,-6.861 20.568,20.568 0 0 1 -4.141,0.406 z m -1.345,11.521 -0.2,0.2 a 5.248,5.248 0 0 0 3.094,-0.3 l -0.1,-0.1 a 5.335,5.335 0 0 1 -2.794,0.2 z m 0.696,0.893 a 2.453,2.453 0 0 0 1.2,0 c 0,-0.1 0.2,-0.3 0.3,-0.4 h -1.8 a 1.392,1.392 0 0 1 0.3,0.4 z m -1.589,-4.576 0.374,2.325 a 0.685,0.685 0 0 0 0.223,0.428 h 3.291 a 0.676,0.676 0 0 0 0.226,-0.428 l 0.374,-2.325 c -0.781,0.077 -1.635,0.1 -2.247,0.1 -0.612,0 -1.469,-0.023 -2.241,-0.1 z m 0.892,3.082 -0.2,0.2 a 6.263,6.263 0 0 0 3.1,-0.2 9.424,9.424 0 0 1 -2.9,0 z M 3.57456,9.0952515 a 10.225,10.225 0 0 0 2.754,0.311 10.158,10.158 0 0 0 1.54,-0.081 q -0.062,-0.238 -0.129,-0.477 a 10.224,10.224 0 0 1 -1.411,0.077 10.149,10.149 0 0 1 -2.51,-0.266 4.15,4.15 0 0 1 -0.307,-0.734 0.979,0.979 0 0 1 0.154,-1.05 4.87,4.87 0 0 1 2.686,-0.543 4.571,4.571 0 0 1 0.682,-0.007 h 0.039 c -0.051,-0.12 -0.1,-0.247 -0.146,-0.379 -0.24,-0.011 -0.454,-0.013 -0.618,-0.011 a 5.248,5.248 0 0 0 -2.978,0.666 c -0.7929996,0.7 -0.16,1.891 0.1,2.376 l 0.047,0.087 z M 6.388,9.768 a 14.344,14.344 0 0 1 -2.9,-0.288 16.331,16.331 0 0 1 0.809,4.8 0.518,0.518 0 0 0 0.132,0.362 l 0.228,0.262 a 14.577,14.577 0 0 0 1.735,0.1 14.622,14.622 0 0 0 1.737,-0.1 L 8.356,14.647 A 0.525,0.525 0 0 0 8.484,14.284 Q 8.496,13.57 8.57,12.862 A 24.262,24.262 0 0 0 8.02,9.68 14.344,14.344 0 0 1 6.388,9.768 Z m -0.941,8.266 -0.14,0.14 a 3.675,3.675 0 0 0 2.165,-0.21 L 7.4,17.9 a 3.732,3.732 0 0 1 -1.953,0.134 z m 0.487,0.625 a 1.7,1.7 0 0 0 0.839,0 c 0,-0.07 0.139,-0.209 0.209,-0.279 H 5.725 a 0.968,0.968 0 0 1 0.209,0.279 z m -1.112,-3.203 0.261,1.627 a 0.483,0.483 0 0 0 0.156,0.3 h 2.3 a 0.475,0.475 0 0 0 0.159,-0.3 l 0.261,-1.627 c -0.546,0.054 -1.144,0.073 -1.572,0.073 -0.428,0 -1.025,-0.019 -1.565,-0.073 z m 0.624,2.157 -0.14,0.14 a 4.374,4.374 0 0 0 2.166,-0.14 6.555,6.555 0 0 1 -2.026,0 z M 14.79,7.877 v 0 A 1.912,1.912 0 0 1 14.731,7.593 v 0 a 1.89,1.89 0 0 0 0.059,0.284 z m 5.846364,-1.3271053 a 5.307,5.307 0 0 0 -3.018,-0.665 c -0.159,0 -0.372,0 -0.615,0.012 -0.047,0.134 -0.1,0.262 -0.151,0.383 0.038,0 0.076,-0.007 0.114,-0.009 a 4.889,4.889 0 0 1 0.7,0.01 4.568,4.568 0 0 1 0.682,-0.009 4.719,4.719 0 0 1 1.954,0.552 c 0.5,0.445 0.1,1.307 -0.15,1.775 a 10.14,10.14 0 0 1 -2.509,0.27 10.076,10.076 0 0 1 -1.443,-0.077 c -0.044,0.158 -0.087,0.317 -0.128,0.475 a 10.176,10.176 0 0 0 1.571,0.086 10.25,10.25 0 0 0 2.752,-0.31 l 0.118,-0.071 0.046,-0.087 c 0.237,-0.444 0.872,-1.634 0.077,-2.335 z M 15.949,9.674 a 24.027,24.027 0 0 0 -0.529,3.012 q 0.091,0.793 0.106,1.6 a 0.518,0.518 0 0 0 0.132,0.362 l 0.228,0.262 a 14.577,14.577 0 0 0 1.735,0.1 14.622,14.622 0 0 0 1.737,-0.1 l 0.226,-0.257 a 0.521,0.521 0 0 0 0.128,-0.363 16.37,16.37 0 0 1 0.8,-4.8 14.328,14.328 0 0 1 -2.9,0.284 14.1,14.1 0 0 1 -1.663,-0.1 z m 0.728,8.36 -0.141,0.14 a 3.674,3.674 0 0 0 2.165,-0.21 l -0.07,-0.069 a 3.732,3.732 0 0 1 -1.954,0.139 z m 0.487,0.625 a 1.7,1.7 0 0 0 0.838,0 c 0,-0.07 0.14,-0.209 0.21,-0.279 h -1.257 a 0.968,0.968 0 0 1 0.209,0.279 z m -1.112,-3.203 0.261,1.627 a 0.483,0.483 0 0 0 0.156,0.3 h 2.3 a 0.475,0.475 0 0 0 0.159,-0.3 l 0.261,-1.627 c -0.547,0.054 -1.144,0.073 -1.572,0.073 -0.428,0 -1.025,-0.019 -1.565,-0.073 z m 0.624,2.157 -0.141,0.14 a 4.373,4.373 0 0 0 2.166,-0.14 6.548,6.548 0 0 1 -2.025,0 z"/>

</svg>