<?xml version="1.0" encoding="UTF-8"?>
<svg width="33px" height="32px" viewBox="0 0 33 32" version="1.1" fill="#44739e" xmlns="http://www.w3.org/2000/svg" xmlns:xlink="http://www.w3.org/1999/xlink">
            <path d="M21.6,2.1c-1.5-1.4-5.6-1.3-5.9-1.3c-0.3,0-4.4-0.1-5.9,1.3c-1.4,1.3-0.1,3.7,0.3,4.6c1.8,0.5,3.7,0.7,5.6,0.7 c1.9,0,3.8-0.2,5.6-0.7C21.7,5.8,23,3.4,21.6,2.1z M12.9,18.4l0.5,2.9c0,0.2,0.1,0.4,0.3,0.5l0.4,0.4c0,0,0.1,0.1,0.1,0.1l0.5,0.5c0.2,0.2,0.5,0.3,0.7,0.3H16 c0.3,0,0.6-0.1,0.7-0.3l0.5-0.5c0,0,0.1-0.1,0.1-0.1l0.4-0.4c0.2-0.1,0.3-0.3,0.3-0.5l0.5-2.9c-1,0.1-2.1,0.1-2.8,0.1 C14.9,18.6,13.8,18.5,12.9,18.4z M10.5,7.7c0.9,2.8,1.4,5.7,1.4,8.6c0,0.2,0.1,0.5,0.2,0.6l0.4,0.5c1,0.1,2.1,0.2,3.1,0.2c1,0,2.1-0.1,3.1-0.2l0.4-0.5 c0.2-0.2,0.2-0.4,0.2-0.6c0-2.9,0.5-5.8,1.4-8.6c-1.7,0.4-3.4,0.5-5.2,0.5C13.9,8.3,12.2,8.1,10.5,7.7 M10.9,16.3c0-0.6,0-1.1-0.1-1.7H5.2c-2.2,0-2.8-1.7-2.8-2.2v2.8c0,1.6,1.3,2.8,2.8,2.8h6.5l-0.3-0.4 C11.1,17.3,10.9,16.8,10.9,16.3z M5.7,16.9c-0.3,0-0.6-0.3-0.6-0.6s0.3-0.6,0.6-0.6s0.6,0.3,0.6,0.6S6,16.9,5.7,16.9z M8.5,16.9 c-0.3,0-0.6-0.3-0.6-0.6s0.3-0.6,0.6-0.6s0.6,0.3,0.6,0.6S8.9,16.9,8.5,16.9z M2.9,11.8c0.3,1.5,1.7,2.4,3.2,2.1l4.5-1c-0.2-1.3-0.4-2.5-0.8-3.7l-6.1,1.3C3.2,10.6,2.8,11.2,2.9,11.8z M7.6,11 c0.3-0.1,0.6,0.1,0.7,0.4c0.1,0.3-0.1,0.6-0.4,0.7c-0.3,0.1-0.6-0.1-0.7-0.4C7.1,11.4,7.3,11.1,7.6,11z M4.8,11.6 c0.3-0.1,0.6,0.1,0.7,0.4c0.1,0.3-0.1,0.6-0.4,0.7c-0.3,0.1-0.6-0.1-0.7-0.4C4.4,12,4.5,11.7,4.8,11.6z M2.9,8.4h6.7c0-0.1-0.1-0.3-0.1-0.4L9.3,7.4L9.2,7.1c-0.2-0.5-0.6-1.2-0.8-2H2.9c-0.3,0-0.6,0.3-0.6,0.6v2.2 C2.4,8.2,2.6,8.4,2.9,8.4z M6.9,6.2c0.3,0,0.6,0.3,0.6,0.6S7.2,7.3,6.9,7.3S6.3,7.1,6.3,6.8S6.6,6.2,6.9,6.2z M4.1,6.2 c0.3,0,0.6,0.3,0.6,0.6S4.4,7.3,4.1,7.3S3.5,7.1,3.5,6.8S3.8,6.2,4.1,6.2z"/>

</svg>