<?xml version="1.0" encoding="UTF-8"?>
<svg width="24px" fill="#44739e" height="24px" viewBox="0 0 24 24" version="1.1" xmlns="http://www.w3.org/2000/svg" xmlns:xlink="http://www.w3.org/1999/xlink">
            <path d="M15,15.59c-0.1,0.61-0.19,1.47-0.13,2.1c0.04,0.4-0.26,0.75-0.66,0.79c-0.65,0.07-1.38,0.11-2.21,0.11 s-1.56-0.04-2.21-0.11c-0.4-0.04-0.71-0.39-0.67-0.79c0.06-0.63-0.02-1.49-0.13-2.1C8.75,14.18,7.75,13.51,7.18,12 c1.41,0.45,3.48,0.59,4.82,0.59s3.41-0.14,4.82-0.59C16.24,13.51,15.24,14.18,15,15.59z M13.88,21.56 c-0.02,0.16-0.11,0.32-0.23,0.43l-0.35,0.32c-0.03,0.02-0.05,0.05-0.07,0.07l-0.37,0.44c-0.14,0.17-0.36,0.27-0.59,0.27h-0.55 c-0.23,0-0.45-0.1-0.57-0.26l-0.37-0.44c-0.02-0.03-0.05-0.05-0.07-0.07L10.36,22c-0.13-0.11-0.21-0.27-0.23-0.43l-0.38-2.33 c0.78,0.07,1.64,0.1,2.25,0.1s1.47-0.03,2.25-0.1L13.88,21.56z M17.25,9.96c0,0.22-0.04,0.41-0.06,0.61 c-0.03,0.19-0.06,0.35-0.1,0.53c-0.82,0.35-2.55,0.75-5.09,0.75s-4.27-0.39-5.09-0.74c-0.04-0.18-0.08-0.34-0.1-0.53 c-0.02-0.2-0.06-0.4-0.06-0.61c0-2.38,2.36-4.88,5.25-4.88S17.25,7.59,17.25,9.96z M15.26,2.99C14.52,2.04,13.34,1.34,12,1.34 s-2.52,0.7-3.26,1.65c0.61,0.35,1.13,0.82,1.53,1.36c0.56-0.17,1.14-0.26,1.73-0.26c0.61,0,1.18,0.1,1.73,0.26 C14.13,3.82,14.65,3.34,15.26,2.99z M9.69,4.56c-0.74-0.91-1.9-1.58-3.2-1.58c-2.24,0-4.07,1.94-4.07,3.78 c0,0.16,0.03,0.32,0.05,0.47S2.52,7.5,2.55,7.64C3.14,7.9,4.34,8.17,6.08,8.21C6.67,6.61,8.03,5.24,9.69,4.56z M5.9,8.78 c-1-0.03-2.24-0.15-3.15-0.44c0.44,1.17,1.21,1.69,1.4,2.78c0.08,0.48,0.15,1.14,0.1,1.63c-0.03,0.31,0.21,0.58,0.52,0.61 c0.5,0.06,1.07,0.09,1.71,0.09c0.1,0,0.19-0.01,0.28-0.01c-0.18-0.32-0.36-0.67-0.52-1.08c-0.07-0.17-0.22-0.61-0.31-1.02 c0-0.01,0-0.01,0-0.01l-0.02-0.07C5.9,11.25,5.9,11.23,5.9,11.22c-0.01-0.04-0.01-0.08-0.02-0.12c-0.02-0.12-0.05-0.25-0.07-0.41 c-0.01-0.06-0.01-0.12-0.02-0.17c-0.02-0.16-0.04-0.34-0.04-0.55C5.75,9.57,5.8,9.17,5.9,8.78z M6.49,14.03 c-0.47,0-1.14-0.03-1.74-0.08l0.29,1.81c0.02,0.12,0.08,0.24,0.18,0.33l0.27,0.24c0.02,0.02,0.04,0.03,0.05,0.06l0.29,0.34 c0.09,0.12,0.26,0.2,0.44,0.2H6.7c0.18,0,0.35-0.08,0.46-0.21l0.28-0.34c0.02-0.02,0.03-0.04,0.06-0.05l0.27-0.25 c0.09-0.09,0.16-0.21,0.18-0.34l0.01-0.12c-0.12-0.51-0.38-0.92-0.71-1.42c-0.04-0.06-0.08-0.13-0.12-0.19 C6.9,14.02,6.68,14.02,6.49,14.03z M21.59,6.75c0-1.83-1.83-3.77-4.07-3.77c-1.31,0-2.45,0.66-3.2,1.57 c1.71,0.7,3.01,2.12,3.59,3.66c1.74-0.04,2.95-0.32,3.54-0.57c0.03-0.14,0.06-0.26,0.08-0.41C21.55,7.07,21.58,6.93,21.59,6.75z M17.24,13.43c0.09,0,0.18,0.01,0.28,0.01c0.64,0,1.21-0.04,1.71-0.09c0.31-0.03,0.54-0.3,0.51-0.61c-0.05-0.49,0.02-1.16,0.1-1.63 c0.19-1.09,0.96-1.61,1.41-2.78c-0.92,0.29-2.16,0.41-3.16,0.44c0.1,0.39,0.16,0.79,0.16,1.18c0,0.22-0.03,0.4-0.05,0.55 c-0.01,0.05-0.01,0.11-0.02,0.16c0,0.02-0.01,0.04-0.01,0.06c-0.01,0.1-0.03,0.18-0.05,0.27c0,0.01,0,0.01,0,0.01 c0,0.04-0.02,0.16-0.06,0.31v0.01l0,0c-0.1,0.38-0.27,0.94-0.31,1.04C17.6,12.77,17.41,13.12,17.24,13.43z M16.03,15.59l0.03,0.17 c0.02,0.12,0.08,0.24,0.18,0.33l0.27,0.25c0.01,0.01,0.03,0.03,0.05,0.05l0.29,0.34c0.09,0.12,0.26,0.2,0.44,0.2h0.43 c0.18,0,0.35-0.08,0.46-0.21l0.29-0.34c0.01-0.01,0.03-0.03,0.05-0.05l0.25-0.25c0.09-0.08,0.16-0.21,0.18-0.33l0.29-1.8 c-0.6,0.06-1.27,0.08-1.74,0.08c-0.18,0-0.41,0-0.64-0.01c-0.04,0.06-0.08,0.12-0.12,0.18C16.42,14.69,16.16,15.09,16.03,15.59z"/>

</svg>