<?xml version="1.0" encoding="UTF-8"?>
<svg width="24px" height="24px" viewBox="0 0 24 24" version="1.1" fill="#44739e" xmlns="http://www.w3.org/2000/svg" xmlns:xlink="http://www.w3.org/1999/xlink">
            <path d="M16.657,16.507a.876.876,0,0,0,.239.716c.239.478,0,.717-.239.956l-.477,2.149c0,.239,0,.239-.239.478l-.478.477h0l-.478.478a.875.875,0,0,1-.716.239h-.478a.876.876,0,0,1-.716-.239l-.478-.478h0l-.478-.477a.835.835,0,0,1-.238-.478l-.239-2.149c-.478-.239-.478-.717-.478-1.195.239-.238.239-.238.239-.477.955,0,1.911.239,2.866.239a8.117,8.117,0,0,1,2.388-.239m4.3-7.882A5.482,5.482,0,0,1,20,11.969v.239c0,.238-.239.238-.239.477-1.433,1.433-2.388,1.911-2.866,2.866-.955,0-1.672.239-2.627.239a13.61,13.61,0,0,1-3.105-.239c-.478-.955-1.433-1.433-2.627-3.105,0-.238-.239-.238-.239-.477V11.73c-1.672-2.15-1.194-5.255.478-7.4a7.09,7.09,0,0,1,7.643-1.911,6.679,6.679,0,0,1,4.537,6.21ZM15.7,9.1c.478-.239.955-.717.717-1.195q0-.357-.717-.716l-2.627-.717a.835.835,0,0,1-.478-.238L12.836,6l2.627-.717a.234.234,0,0,0,.239-.239c.478,0,.478-.238.478-.238,0-.239-.239-.478-.478-.239l-2.866.716a1.092,1.092,0,0,0-.955,1.194,1.587,1.587,0,0,0,.955,1.2l2.627.716v.478l-3.1.239c-.477.239-.716.477-.716.955s.239.717.716.955l2.627.717a.834.834,0,0,1,.478.239l-.239.239-2.866.716a.478.478,0,0,0,0,.955h0l2.627-.716c.717-.239,1.2-.717,1.2-1.194a1.028,1.028,0,0,0-.956-.956L12.6,10.3V9.819ZM7.1,11.73a7.453,7.453,0,0,1,.477-7.4C7.1,3.609,6.865,3.132,6.387,3.132c-1.194,0-3.1,4.776-3.343,8.359a7.659,7.659,0,0,0,3.343.239H7.1M4.715,16.507l.239,1.672c0,.238,0,.238.239.238l.239.239h0l.239.478H7.1l.239-.239h0l.238-.239.239-.239.239-1.671H6.387c-.477,0-1.194-.239-1.672-.239M7.82,12.924c0-.239-.239-.239-.239-.478H6.626a15.83,15.83,0,0,1-3.344-.238h0a5.021,5.021,0,0,0,1.2,3.582c.716,0,1.433.239,2.149.239a6.611,6.611,0,0,0,2.15-.239c0-.477.239-.716.477-1.194A10.433,10.433,0,0,1,7.82,12.924"></path>
</svg>