<svg xmlns="http://www.w3.org/2000/svg" viewBox="0 0 24 24"><path fill="#44739e" d="M8.705 7.94c.899-.747 2.241-.729 3.291-.035a3.1 3.1 0 0 1 1.209-.49c.774-.133 1.512.054 2.081.525l1.512 1.058a4.87 4.87 0 0 0-4.802-4.09 4.86 4.86 0 0 0-4.803 4.09Zm12.309 3.282c-.97-.97-2.677-1.441-4.287-1.183l-1.983-1.396c-.365-.32-.863-.445-1.387-.356a2.4 2.4 0 0 0-1.352.774s0 .009-.009.009c0 0 0-.009-.009-.009-.783-.872-2.001-1.05-2.739-.418l-1.983 1.396c-1.601-.267-3.318.213-4.278 1.183-1.539 1.538-1.245 4.34.649 6.234 1.076 1.076 2.446 1.636 3.709 1.636.96 0 1.858-.32 2.525-.987 1.059-1.058 1.521-3.032 1.059-4.775l1.067-1.37 1.085 1.387a5.4 5.4 0 0 0-.196 1.477c.018 1.298.48 2.516 1.236 3.272.667.667 1.566.988 2.526.988 1.263 0 2.633-.561 3.709-1.637 1.903-1.885 2.196-4.687.658-6.225M9.239 17.483c-1.192 1.191-3.424.898-4.98-.649-.765-.765-1.245-1.717-1.361-2.677-.107-.925.142-1.743.711-2.304.498-.498 1.165-.738 1.895-.738 1.031 0 2.17.48 3.077 1.387 1.565 1.557 1.85 3.789.658 4.981m10.494-.649c-1.556 1.556-3.788 1.84-4.98.649-.56-.561-.818-1.379-.712-2.304.116-.96.596-1.912 1.361-2.677 1.556-1.547 3.789-1.84 4.98-.649s.899 3.424-.649 4.981"/></svg>