<svg xmlns="http://www.w3.org/2000/svg" viewBox="0 0 24 24"><path fill="#44739e" d="M6.644 9.673c1.573.498 3.867.66 5.356.66 1.49 0 3.783-.162 5.356-.66-.64 1.682-1.75 2.426-2.014 3.994-.115.682-.213 1.636-.148 2.334a.82.82 0 0 1-.742.879A24 24 0 0 1 12 17a24 24 0 0 1-2.453-.12.82.82 0 0 1-.741-.879c.065-.698-.033-1.652-.148-2.334-.264-1.568-1.374-2.312-2.014-3.994M9.5 17.718a27.3 27.3 0 0 0 5 0l-.418 2.59a.77.77 0 0 1-.25.478l-.389.353q-.038.038-.072.077l-.412.486a.86.86 0 0 1-.655.298h-.608a.86.86 0 0 1-.655-.298l-.412-.486a1 1 0 0 0-.072-.077l-.39-.353a.77.77 0 0 1-.25-.478ZM12 2c3.211 0 5.833 2.777 5.833 5.417 0 .241-.046.452-.071.671a6 6 0 0 1-.105.589C16.748 9.06 14.82 9.5 12 9.5s-4.748-.44-5.657-.823a6 6 0 0 1-.106-.589c-.025-.219-.07-.43-.07-.671C6.167 4.777 8.789 2 12 2"/></svg>