<?xml version="1.0" encoding="UTF-8"?>
<svg width="33px" height="32px" viewBox="0 0 33 32" version="1.1" xmlns="http://www.w3.org/2000/svg" xmlns:xlink="http://www.w3.org/1999/xlink">
    <!-- Generator: Sketch 51.3 (57544) - http://www.bohemiancoding.com/sketch -->
    <style>path{fill:#000}@media (prefers-color-scheme:dark){path{fill:#fff}}</style>
            <path d="M18.1,11.9c1.6-0.4,2.6-1,2.8-1.7c0.1-0.1,0.1-0.3,0.1-0.4V4.3c0-0.1,0-0.3-0.1-0.4c-0.3-0.7-1.3-1.3-3-1.7 c-3.8-1-9.8-1-13.6,0c-1.7,0.5-2.7,1-3,1.7C1.3,4,1.3,4.1,1.3,4.3v3.3c0,0,0,2.5,0.1,2.7c0.3,0.7,1.2,1.2,2.8,1.7 c1.9,0.5,4.4,0.8,7,0.8C13.7,12.6,16.2,12.4,18.1,11.9z M3.4,8.9c0-0.3,0.6-0.7,2.2-1.1c1.5-0.4,3.5-0.5,5.6-0.5c2,0,4,0.2,5.6,0.5 c1.6,0.4,2.2,0.8,2.2,1.1c0,0.3-0.5,0.7-2.1,1.1c-3.1,0.8-8.2,0.8-11.4,0C3.9,9.7,3.4,9.2,3.4,8.9z M23.3,15.2c-0.2-0.5-1-1-2.3-1.3c-2.9-0.8-7.5-0.8-10.4,0c-1.3,0.3-2.1,0.8-2.3,1.3c0,0.1-0.1,0.2-0.1,0.3V18 c0,0,0,1.9,0.1,2.1c0.2,0.5,0.9,0.9,2.2,1.3c1.5,0.4,3.4,0.6,5.4,0.6c1.9,0,3.9-0.2,5.4-0.6c1.2-0.3,2-0.8,2.2-1.3 c0-0.1,0.1-0.2,0.1-0.3v-4.3C23.3,15.4,23.3,15.3,23.3,15.2z M20.1,19.9c-2.4,0.6-6.3,0.6-8.7,0c-1.2-0.3-1.6-0.6-1.6-0.8 c0-0.2,0.5-0.6,1.7-0.9c1.2-0.3,2.7-0.4,4.3-0.4c1.5,0,3.1,0.1,4.3,0.4c1.3,0.3,1.7,0.6,1.7,0.9C21.7,19.3,21.3,19.7,20.1,19.9z"/>

</svg>