<svg xmlns="http://www.w3.org/2000/svg" viewBox="0 0 24 24"><path fill="#44739e" d="M7.889 11.667c.889-.223 2.222-.445 4.111-.445s3.222.222 4.111.445C15.889 16 13.556 22 12 22s-3.889-6-4.111-10.333m-.111-.889s0-.111 0 0c0-2.222.666-3.667 1.444-4.445.778-.111 1.667-.111 2.778-.111s2 .111 2.778.222c.778.778 1.444 2.223 1.444 4.334v.111c-1.333-.333-3-.445-4.222-.445s-2.889 0-4.222.334m6.333-5.334c-.778-.111-1.555-.111-2.111-.111s-1.333 0-2.111.111l.333-2.111c0-.111.111-.333.222-.333l.334-.333.111-.111.333-.445c.111 0 .334-.111.556-.111h.555c.223 0 .445.111.556.222l.222.445.111.111.334.333c.111.111.222.222.222.333Z"/></svg>