<svg xmlns="http://www.w3.org/2000/svg" viewBox="0 0 24 24"><path fill="#44739e" d="M20.907 13.932V2.687a.443.443 0 0 0-.42-.446l-.482-.018-.714.072-3.025-.125a.42.42 0 0 0-.268-.125L15.561 2h-.054c-.026 0-.053 0-.071.009l-2.758.41a.45.45 0 0 0-.375.438v18.027c0 .206.143.384.34.438l2.748.669c.036.009.072.009.107.009.027 0 .045 0 .072-.009l4.962-.776a.45.45 0 0 0 .375-.438Zm-1.285-3.704-3.285.134h-.214V3.008h.205l3.294.134Zm-8.166 2.58V5.124a.3.3 0 0 0-.295-.304l-.41-.009-.67.045-3.311-.089a.45.45 0 0 0-.196-.09l-.402-.035H6.11l-2.74.294a.31.31 0 0 0-.277.304v12.119c0 .152.107.277.259.304l2.749.437c.018 0 .027.009.044.009h.027l5.007-.509a.3.3 0 0 0 .277-.303Zm-1.062-.946-3.49.098h-.196V5.338h.187l3.49.107Z"/></svg>