<svg xmlns="http://www.w3.org/2000/svg" viewBox="0 0 24 24"><path fill="#44739e" d="M9.259 17.378c.936.084 1.969.12 2.701.12s1.765-.036 2.701-.12l-.456 2.797a.82.82 0 0 1-.276.516l-.421.385c-.024.024-.06.048-.084.084l-.444.528a.9.9 0 0 1-.696.312h-.66a.92.92 0 0 1-.709-.324l-.444-.528c-.024-.024-.048-.06-.084-.084l-.42-.385a.88.88 0 0 1-.276-.516Zm2.701-8.967c.336 0 .6.264.6.6v7.443c0 .336-.264.3-.6.3s-.6.036-.6-.3V9.011c0-.324.264-.6.6-.6m6.11-5.559C16.75 2.48 14.841 2 12.008 2s-4.61.456-6.051.852-1.02 1.525-1.02 1.525l4.034 12.101c.408.084.804.144 1.188.192V9.011c0-.997.804-1.801 1.801-1.801s1.801.804 1.801 1.801v7.683c.804-.096 1.296-.216 1.296-.216l4.034-12.101s.3-1.153-1.021-1.525"/></svg>