<svg xmlns="http://www.w3.org/2000/svg" viewBox="0 0 24 24"><path fill="#44739e" d="M13.723 3.66c-4.633 0-8.277 1.961-8.277 4.561v.63c0 2.528 3.653 4.562 8.277 4.562S22 11.451 22 8.851v-.63c0-2.528-3.644-4.561-8.277-4.561m0 8.979c-4.139 0-7.575-1.755-7.575-3.86s3.508-3.86 7.575-3.86 7.575 1.827 7.575 3.932-3.437 3.788-7.575 3.788m0-.702c2.951 0 5.47-1.26 5.335-2.879 0-.144 0-.279-.072-.495-.279-1.331-2.528-2.312-5.335-2.312S8.928 7.322 8.397 8.32c-.216.405-.306 1.485.378 2.142 1.007.962 3.194 1.475 4.948 1.475m0-4.984c2.663 0 4.561.98 4.633 1.898-.144.981-1.961 2.033-4.633 2.033S9.161 9.832 9.09 8.851c.071-.918 1.97-1.898 4.633-1.898m-4.687 7.251c-2.403 0-4.049.918-4.499 1.773-.189.341-.261 1.277.324 1.835.864.828 2.735 1.26 4.238 1.26 2.528 0 4.687-1.08 4.57-2.466 0-.117 0-.243-.063-.422-.243-1.143-2.168-1.98-4.57-1.98m.054 3.959c-2.286 0-3.905-.9-3.968-1.746.063-.782 1.682-1.619 3.968-1.619s3.904.846 3.967 1.619c-.117.846-1.682 1.746-3.967 1.746m4.966-3.86c.944.585 1.52 1.332 1.52 2.123 0 1.8-2.942 3.248-6.486 3.248s-6.487-1.502-6.487-3.302c0-1.601 2.366-2.959 5.335-3.247a8.4 8.4 0 0 1-1.449-.873C3.844 12.81 2 14.186 2 15.896v.539c0 2.16 3.122 3.905 7.09 3.905s7.089-1.682 7.089-3.905v-.539c0-.603-.243-1.161-.675-1.674q-.704.068-1.448.081"/></svg>