<?xml version="1.0" encoding="UTF-8"?>
<svg width="24px" fill="#44739e" height="24px" viewBox="0 0 24 24" version="1.1" xmlns="http://www.w3.org/2000/svg" xmlns:xlink="http://www.w3.org/1999/xlink">
            <path d="M9.77,17.15c0.78,0.07,1.64,0.1,2.25,0.1s1.47-0.03,2.25-0.1l-0.38,2.33c-0.02,0.16-0.1,0.32-0.23,0.43 l-0.35,0.32c-0.02,0.02-0.05,0.04-0.07,0.07l-0.37,0.44C12.74,20.9,12.52,21,12.29,21h-0.55c-0.23,0-0.45-0.1-0.59-0.27l-0.37-0.44 c-0.02-0.02-0.04-0.05-0.07-0.07l-0.35-0.32c-0.12-0.11-0.21-0.27-0.23-0.43L9.77,17.15z M12.02,9.68c0.28,0,0.5,0.22,0.5,0.5v6.2c0,0.28-0.22,0.25-0.5,0.25s-0.5,0.03-0.5-0.25v-6.2 C11.52,9.91,11.74,9.68,12.02,9.68 M17.11,5.05c-1.1-0.31-2.69-0.71-5.05-0.71S8.22,4.72,7.02,5.05S6.17,6.32,6.17,6.32l3.36,10.08 c0.34,0.07,0.67,0.12,0.99,0.16v-6.38c0-0.83,0.67-1.5,1.5-1.5s1.5,0.67,1.5,1.5v6.4c0.67-0.08,1.08-0.18,1.08-0.18l3.36-10.08 C17.96,6.32,18.21,5.36,17.11,5.05z"/>

</svg>