<?xml version="1.0" encoding="UTF-8"?>
<svg width="33px" height="32px" viewBox="0 0 33 32" version="1.1" xmlns="http://www.w3.org/2000/svg" xmlns:xlink="http://www.w3.org/1999/xlink">
    <!-- Generator: Sketch 51.3 (57544) - http://www.bohemiancoding.com/sketch -->
    <style>path{fill:#000}@media (prefers-color-scheme:dark){path{fill:#fff}}</style>
            <path d="M17,21.5c2.2,0,3.9-1,3.9-2.4s-1.7-2.4-3.9-2.4c-2.2,0-3.9,1-3.9,2.4S14.8,21.5,17,21.5z M14.9,17.8c0.1-0.3,0.5-0.4,1-0.5 H16c0.6,0,1.2,0.2,1.9,0.5s1.2,0.8,1.6,1.3c0.3,0.4,0.4,0.8,0.3,1.1c-0.1,0.3-0.5,0.4-1,0.5c-0.6,0-1.3-0.2-2-0.5s-1.2-0.8-1.6-1.3 C14.8,18.5,14.7,18.1,14.9,17.8z M22.9,14.3h-0.8l-0.2,1c0,0.2-0.1,0.3-0.1,0.5h0.7l-1,6.3h-9.2l-1-5.5h-0.6l1,5.9c0,0.2,0.2,0.2,0.3,0.2h9.7 c0.2,0,0.3-0.1,0.3-0.2l1.1-6.9v-0.1v-0.9C23.2,14.5,23.1,14.3,22.9,14.3z M22.4,1.3H1.6c-0.3,0-0.5,0.3-0.5,0.6v1.5l0,0v0.1l2.1,11.9c0,0.3,0.3,0.4,0.5,0.4h16.8c0.3,0,0.5-0.2,0.5-0.4l1.9-11.9V3.4 l0,0V1.9C22.9,1.6,22.7,1.3,22.4,1.3z M20,14.8H4.1L2.2,3.9h19.6L20,14.8z M12.2,13.8c3.8,0,6.7-1.8,6.7-4.1s-3-4.1-6.7-4.1 c-3.8,0-6.7,1.8-6.7,4.1S8.4,13.8,12.2,13.8z M8.5,7.4c0.2-0.5,0.9-0.7,1.8-0.8h0.1c1,0,2.1,0.3,3.3,0.9s2.1,1.4,2.7,2.2 c0.5,0.7,0.7,1.4,0.5,1.9s-0.9,0.7-1.8,0.8c-1,0-2.2-0.3-3.4-0.9S9.6,10.1,9,9.3C8.4,8.6,8.2,7.9,8.5,7.4z"/>

</svg>