<?xml version="1.0" encoding="UTF-8"?>
<svg width="24px" fill="#44739e" height="24px" viewBox="0 0 24 24" version="1.1" xmlns="http://www.w3.org/2000/svg" xmlns:xlink="http://www.w3.org/1999/xlink">
            <path d="M10.97,13.5c-0.1,0.61-0.19,1.47-0.13,2.1c0.04,0.4-0.26,0.75-0.66,0.79C9.53,16.46,8.8,16.5,7.97,16.5 s-1.56-0.04-2.21-0.11C5.36,16.35,5.05,16,5.09,15.6c0.06-0.63-0.02-1.49-0.13-2.1c-0.24-1.41-1.24-2.08-1.81-3.59 c1.41,0.45,3.48,0.59,4.82,0.59s3.41-0.14,4.82-0.59C12.21,11.42,11.21,12.09,10.97,13.5z M9.85,19.47 c-0.02,0.16-0.11,0.32-0.23,0.43l-0.35,0.32c-0.03,0.02-0.05,0.05-0.07,0.07l-0.37,0.44C8.69,20.9,8.47,21,8.24,21H7.69 c-0.23,0-0.45-0.1-0.57-0.26L6.75,20.3c-0.02-0.03-0.05-0.05-0.07-0.07l-0.35-0.32C6.2,19.8,6.12,19.64,6.1,19.48l-0.38-2.33 c0.78,0.07,1.64,0.1,2.25,0.1s1.47-0.03,2.25-0.1L9.85,19.47z M13.22,7.87c0,0.22-0.04,0.41-0.06,0.61 c-0.03,0.19-0.06,0.35-0.1,0.53c-0.82,0.35-2.55,0.75-5.09,0.75S3.7,9.37,2.88,9.02C2.84,8.84,2.8,8.68,2.78,8.49 c-0.02-0.2-0.06-0.4-0.06-0.61C2.72,5.5,5.08,3,7.97,3S13.22,5.5,13.22,7.87z M11.17,17.02l0.27,1.67c0.02,0.14,0.09,0.28,0.2,0.37 l0.3,0.28c0.02,0.02,0.04,0.03,0.06,0.06l0.32,0.39c0.1,0.13,0.29,0.22,0.49,0.22h0.47c0.2,0,0.39-0.08,0.51-0.23l0.32-0.38 c0.02-0.02,0.03-0.04,0.06-0.06l0.3-0.28c0.11-0.09,0.18-0.23,0.2-0.37l0.32-2c-0.68,0.06-1.42,0.09-1.94,0.09 c-0.43,0-1.01-0.02-1.57-0.06c-0.02,0.01-0.03,0.03-0.04,0.05C11.36,16.87,11.27,16.96,11.17,17.02z M17.55,8.7 c0-2.04-2.03-4.19-4.52-4.19c-0.02,0-0.04,0.01-0.06,0.01c0.78,1.01,1.24,2.2,1.24,3.34c0,0.22-0.03,0.4-0.05,0.55 c-0.01,0.05-0.01,0.11-0.02,0.16c0,0.02-0.01,0.04-0.01,0.06c-0.01,0.1-0.03,0.18-0.05,0.27c0,0.01,0,0.01,0,0.01 c0,0.04-0.02,0.16-0.06,0.31v0.01l0,0c-0.1,0.38-0.27,0.94-0.31,1.04c0,0.02-0.01,0.03-0.02,0.05c1.83-0.06,3.1-0.36,3.73-0.63 c0.04-0.16,0.06-0.3,0.09-0.46C17.53,9.06,17.57,8.9,17.55,8.7z M14.95,16.05c0.35-0.03,0.6-0.34,0.57-0.68 c-0.05-0.55,0.02-1.29,0.11-1.81c0.21-1.21,1.07-1.79,1.57-3.09c-1.1,0.35-2.65,0.48-3.79,0.5c-0.22,0.44-0.47,0.81-0.69,1.14 c-0.37,0.55-0.66,0.98-0.76,1.56c-0.09,0.55-0.17,1.33-0.12,1.84c0.02,0.19,0,0.39-0.05,0.58c0.39,0.02,0.8,0.04,1.26,0.04 C13.76,16.13,14.39,16.1,14.95,16.05z M21.27,9.48c0-1.78-1.77-3.66-3.94-3.66l0,0c0.34,0.42,0.6,0.89,0.79,1.37 c0,0.02,0.01,0.04,0.02,0.06c0.08,0.23,0.14,0.45,0.19,0.68c0.01,0.04,0.01,0.07,0.02,0.11c0.04,0.22,0.07,0.45,0.07,0.68 c0,0.18-0.02,0.34-0.04,0.47c-0.01,0.05-0.02,0.09-0.02,0.14c-0.01,0.02-0.01,0.03-0.01,0.05c-0.01,0.08-0.03,0.16-0.04,0.23 c0,0.01,0,0.01,0,0.01c0.01,0.03-0.02,0.13-0.05,0.26v0.01l0,0c-0.09,0.32-0.24,0.81-0.27,0.89c-0.01,0.03-0.03,0.06-0.04,0.09 c1.57-0.06,2.65-0.32,3.2-0.55c0.03-0.14,0.06-0.26,0.08-0.4C21.25,9.77,21.28,9.63,21.27,9.48z M16.28,15.92 c0.33,0.02,0.67,0.03,1.04,0.03c0.62,0,1.17-0.03,1.66-0.08c0.3-0.03,0.53-0.29,0.5-0.59c-0.04-0.48,0.02-1.12,0.1-1.58 c0.18-1.06,0.93-1.57,1.37-2.7c-0.95,0.3-2.27,0.41-3.26,0.43c-0.19,0.34-0.39,0.65-0.57,0.92c-0.31,0.48-0.57,0.85-0.65,1.35 c-0.07,0.47-0.14,1.14-0.1,1.58C16.4,15.5,16.37,15.71,16.28,15.92z M15.68,16.66l0.25,1.53c0.01,0.12,0.07,0.24,0.17,0.32 l0.27,0.24c0.01,0.01,0.03,0.03,0.05,0.05l0.28,0.3c0.09,0.12,0.26,0.2,0.43,0.2h0.41c0.17,0,0.33-0.07,0.44-0.2l0.28-0.33 c0.01-0.01,0.03-0.03,0.05-0.05l0.26-0.24c0.09-0.08,0.15-0.2,0.17-0.32l0.28-1.74c-0.59,0.06-1.23,0.08-1.69,0.08 c-0.38,0-0.9-0.01-1.4-0.05C15.85,16.53,15.77,16.6,15.68,16.66z"/>

</svg>