<svg xmlns="http://www.w3.org/2000/svg" viewBox="0 0 24 24"><path fill="#44739e" d="M10.894 13.617c-.108.658-.205 1.585-.14 2.264a.786.786 0 0 1-.712.852c-.7.075-1.487.118-2.382.118s-1.682-.043-2.383-.118c-.431-.044-.765-.421-.722-.852.065-.679-.022-1.606-.14-2.264-.259-1.52-1.337-2.242-1.951-3.87 1.52.485 3.751.636 5.196.636s3.676-.151 5.196-.636c-.625 1.628-1.703 2.35-1.962 3.87m-1.207 6.436a.8.8 0 0 1-.248.464l-.378.344c-.032.022-.054.054-.075.076l-.399.474a.82.82 0 0 1-.636.291h-.593a.78.78 0 0 1-.615-.28l-.398-.474c-.022-.033-.054-.054-.076-.076l-.377-.345a.73.73 0 0 1-.248-.463l-.41-2.512c.841.075 1.768.108 2.426.108s1.585-.033 2.425-.108ZM13.32 7.548c0 .237-.044.442-.065.657a9 9 0 0 1-.108.572c-.884.377-2.749.808-5.487.808s-4.604-.42-5.488-.798c-.043-.194-.086-.366-.107-.571C2.043 8 2 7.785 2 7.558c0-2.565 2.544-5.261 5.66-5.261s5.66 2.696 5.66 5.251m-2.21 9.864.291 1.8a.64.64 0 0 0 .215.399l.324.302c.021.021.043.032.064.064l.345.421c.108.14.313.237.529.237h.506a.7.7 0 0 0 .55-.248l.345-.41c.022-.021.032-.043.065-.064l.323-.302a.64.64 0 0 0 .216-.399l.345-2.156c-.733.065-1.531.097-2.092.097-.463 0-1.089-.022-1.692-.065-.022.011-.033.033-.043.054a1.2 1.2 0 0 1-.291.27m6.878-8.97c0-2.199-2.189-4.517-4.873-4.517-.022 0-.043.011-.065.011.841 1.089 1.337 2.372 1.337 3.601 0 .237-.033.431-.054.593-.011.054-.011.118-.022.172 0 .022-.01.043-.01.065-.011.108-.033.194-.054.291v.011c0 .043-.022.172-.065.334v.011a19 19 0 0 1-.334 1.121c0 .021-.011.032-.022.054 1.973-.065 3.342-.388 4.021-.679.043-.173.065-.324.097-.496.022-.184.065-.356.044-.572m-2.803 7.924a.676.676 0 0 0 .614-.733c-.054-.593.022-1.391.119-1.951.226-1.305 1.153-1.93 1.692-3.332-1.186.378-2.857.518-4.086.54-.237.474-.506.873-.743 1.228-.399.593-.712 1.057-.82 1.682-.097.593-.183 1.434-.129 1.984.021.205 0 .42-.054.625a23 23 0 0 0 3.407-.043m6.813-7.083c0-1.919-1.908-3.945-4.248-3.945.367.452.647.959.852 1.476 0 .022.011.044.022.065.086.248.15.485.204.733.011.043.011.076.022.119.043.237.075.485.075.733 0 .194-.021.366-.043.507-.01.053-.021.097-.021.151-.011.021-.011.032-.011.053-.011.087-.032.173-.043.248v.011c.011.032-.022.14-.054.28v.011c-.097.345-.259.873-.291.96-.011.032-.032.064-.043.097 1.692-.065 2.857-.345 3.449-.593.033-.151.065-.281.087-.431.021-.162.054-.313.043-.475m-5.38 6.943a19 19 0 0 0 2.911-.054.59.59 0 0 0 .539-.636c-.043-.518.022-1.208.108-1.703.194-1.143 1.003-1.693 1.477-2.911-1.024.323-2.447.442-3.515.463-.204.367-.42.701-.614.992-.334.518-.615.917-.701 1.456-.075.506-.151 1.229-.108 1.703.033.237 0 .463-.097.69m-.646.798.269 1.649a.5.5 0 0 0 .183.345l.291.259.054.054.302.323c.097.129.28.216.464.216h.442a.62.62 0 0 0 .474-.216l.302-.356.054-.054.28-.258a.6.6 0 0 0 .183-.345l.302-1.876a19 19 0 0 1-1.822.086c-.409 0-.97-.011-1.509-.054a2 2 0 0 1-.269.227"/></svg>