<?xml version="1.0" encoding="UTF-8"?>
<svg width="24px" fill="#44739e" height="24px" viewBox="0 0 24 24" version="1.1" xmlns="http://www.w3.org/2000/svg" xmlns:xlink="http://www.w3.org/1999/xlink">
            <path d="M7.09,7.95L6.8,6.12C6.78,5.99,6.72,5.87,6.62,5.78L6.35,5.53C6.33,5.51,6.31,5.5,6.3,5.48L6.01,5.14 C5.9,5,5.73,4.93,5.55,4.93H5.12c-0.18,0-0.35,0.08-0.46,0.21L4.37,5.48C4.35,5.5,4.34,5.52,4.32,5.53L4.05,5.78 c-0.1,0.09-0.16,0.21-0.18,0.34L3.58,7.95c0.61-0.06,1.29-0.08,1.77-0.08S6.48,7.89,7.09,7.95z M5.32,19.07 c0.43,0,0.83-0.09,1.22-0.21c-0.5-0.83-0.8-1.77-0.8-2.74c0-0.21,0.03-0.39,0.05-0.54c0.01-0.05,0.02-0.11,0.02-0.19 c0.03-0.23,0.07-0.42,0.11-0.62c0.01-0.02,0.01-0.05,0.02-0.07l0.27-0.9v-0.01c-0.29-0.01-0.58-0.02-0.9-0.02c-2,0-3.36,0.31-4,0.58 c-0.03,0.14-0.06,0.26-0.08,0.41c-0.02,0.16-0.05,0.31-0.05,0.48C1.19,17.11,3.05,19.07,5.32,19.07z M6.46,13.22 c0.25-0.52,0.53-0.94,0.78-1.33c0.2-0.29,0.37-0.55,0.5-0.82c-0.02-0.08-0.05-0.16-0.06-0.25c-0.08-0.48-0.15-1.16-0.1-1.65 c0.03-0.31-0.21-0.59-0.53-0.62C6.54,8.5,5.96,8.46,5.32,8.46c-0.65,0-1.23,0.03-1.73,0.09C3.28,8.58,3.04,8.86,3.06,9.17 c0.05,0.49-0.02,1.17-0.1,1.65c-0.19,1.11-0.97,1.64-1.42,2.82c1.11-0.35,2.74-0.47,3.79-0.47C5.65,13.18,6.05,13.2,6.46,13.22z M16.82,14.09c-1.41-0.45-3.48-0.59-4.82-0.59s-3.41,0.14-4.82,0.59c0.57-1.51,1.57-2.18,1.81-3.59C9.1,9.89,9.18,9.03,9.12,8.4 C9.08,8,9.39,7.65,9.79,7.61C10.44,7.54,11.17,7.5,12,7.5s1.56,0.04,2.21,0.11c0.4,0.04,0.7,0.39,0.66,0.79 C14.81,9.03,14.9,9.89,15,10.5C15.24,11.91,16.24,12.58,16.82,14.09z M14.25,6.85c-0.78-0.07-1.64-0.1-2.25-0.1s-1.47,0.03-2.25,0.1 l0.38-2.33c0.02-0.16,0.1-0.32,0.23-0.43l0.35-0.32c0.02-0.02,0.05-0.04,0.07-0.07l0.37-0.44C11.27,3.1,11.49,3,11.72,3h0.55 c0.23,0,0.45,0.1,0.59,0.27l0.37,0.44c0.02,0.02,0.04,0.05,0.07,0.07l0.35,0.32c0.12,0.11,0.21,0.27,0.23,0.43L14.25,6.85z M12,21 c-2.89,0-5.25-2.5-5.25-4.88c0-0.21,0.04-0.41,0.06-0.61c0.02-0.19,0.06-0.35,0.1-0.53c0.82-0.35,2.55-0.74,5.09-0.74 s4.27,0.4,5.09,0.75c0.04,0.18,0.07,0.34,0.1,0.53c0.02,0.2,0.06,0.39,0.06,0.61C17.25,18.5,14.89,21,12,21z M18.65,7.87c0.48,0,1.16,0.02,1.77,0.08l-0.29-1.83c-0.02-0.13-0.08-0.25-0.18-0.34l-0.27-0.25 c-0.02-0.01-0.03-0.03-0.05-0.05l-0.29-0.34c-0.11-0.13-0.28-0.21-0.46-0.21h-0.43c-0.18,0-0.35,0.07-0.46,0.21L17.7,5.48 c-0.01,0.02-0.03,0.03-0.05,0.05l-0.27,0.25c-0.1,0.09-0.16,0.21-0.18,0.34l-0.29,1.83C17.52,7.89,18.17,7.87,18.65,7.87z M22.82,15.24c0-0.17-0.03-0.32-0.05-0.48c-0.02-0.15-0.05-0.27-0.08-0.41c-0.64-0.27-2-0.58-4-0.58c-0.32,0-0.61,0.01-0.9,0.02 v0.01l0.27,0.9c0.01,0.02,0.01,0.05,0.02,0.07c0.04,0.2,0.08,0.39,0.11,0.62c0,0.08,0.01,0.14,0.02,0.19 c0.02,0.15,0.05,0.33,0.05,0.54c0,0.97-0.3,1.91-0.8,2.74c0.39,0.12,0.79,0.21,1.22,0.21C20.95,19.07,22.81,17.11,22.82,15.24z M18.67,13.17c1.05,0,2.68,0.12,3.79,0.47c-0.45-1.18-1.23-1.71-1.42-2.82c-0.08-0.48-0.15-1.16-0.1-1.65 c0.02-0.31-0.22-0.59-0.53-0.62c-0.5-0.06-1.08-0.09-1.73-0.09c-0.64,0-1.22,0.04-1.73,0.09c-0.32,0.03-0.56,0.31-0.53,0.62 c0.05,0.49-0.02,1.17-0.1,1.65c-0.01,0.09-0.04,0.17-0.06,0.25c0.13,0.27,0.3,0.53,0.5,0.82c0.25,0.39,0.53,0.81,0.78,1.33 C17.95,13.2,18.35,13.18,18.67,13.17z"/>

</svg>