<svg xmlns="http://www.w3.org/2000/svg" viewBox="0 0 24 24"><path fill="#44739e" d="M11.341 13.939c-1.308-.418-3.228-.548-4.471-.548s-3.163.13-4.471.548c.529-1.401 1.456-2.022 1.679-3.33.102-.566.176-1.364.12-1.948-.037-.371.251-.696.622-.733.603-.065 1.28-.102 2.05-.102s1.447.037 2.05.102a.675.675 0 0 1 .612.733c-.056.584.028 1.382.12 1.948.223 1.308 1.151 1.929 1.689 3.33M8.957 7.223c-.724-.065-1.522-.093-2.087-.093s-1.364.028-2.087.093l.352-2.161a.64.64 0 0 1 .213-.399l.325-.297c.019-.018.047-.037.065-.065l.343-.408a.67.67 0 0 1 .529-.241h.51a.71.71 0 0 1 .547.251l.344.408c.018.018.037.046.064.065l.325.296a.68.68 0 0 1 .213.399ZM6.87 20.348c-2.681 0-4.87-2.319-4.87-4.526 0-.195.037-.381.056-.566.018-.176.055-.325.092-.492.761-.324 2.366-.686 4.722-.686s3.96.371 4.721.695c.037.167.065.316.093.492.018.186.055.362.055.566 0 2.198-2.189 4.517-4.869 4.517M17.88 8.077c.371-.028.742-.038 1.029-.038.362 0 .872.019 1.327.056l-.223-1.373a.4.4 0 0 0-.139-.25l-.204-.186c-.019-.009-.028-.027-.037-.037l-.223-.259a.46.46 0 0 0-.352-.158h-.325c-.139 0-.269.055-.334.158l-.213.25c-.009.019-.028.028-.037.037l-.204.186a.44.44 0 0 0-.139.25l-.186 1.141c.093.065.176.148.26.223m4.09 5.138c-.018-.111-.037-.204-.055-.315-.418-.176-1.262-.371-2.449-.418.028.075.065.121.093.195.027.065.148.464.213.724v.009c.028.102.046.185.046.213v.01c.01.065.028.12.037.185 0 .009 0 .028.01.037 0 .037.009.074.009.112q.028.155.028.38c0 .695-.251 1.419-.677 2.059 1.558-.176 2.773-1.53 2.773-2.838.009-.121-.018-.232-.028-.353m-3.728-4.183c-.038.362.018.9.083 1.28.065.408.269.705.529 1.094q.195.281.389.631c.77.019 1.781.111 2.505.343-.344-.89-.937-1.289-1.076-2.114-.056-.362-.112-.872-.074-1.243a.427.427 0 0 0-.39-.464 13.4 13.4 0 0 0-2.05-.047c.065.158.102.334.084.52m-8.154-1.466c.01.019.019.037.037.047.52-.037 1.058-.056 1.457-.056.482 0 1.168.028 1.799.084l-.297-1.856a.56.56 0 0 0-.185-.343l-.278-.259c-.028-.019-.038-.038-.056-.056l-.297-.353a.6.6 0 0 0-.473-.213h-.436a.59.59 0 0 0-.454.204l-.297.353c-.019.027-.037.037-.056.055l-.278.26a.55.55 0 0 0-.186.343l-.259 1.558c.092.065.176.149.259.232m5.631 6.994c-.028-.148-.047-.278-.084-.427-.584-.25-1.762-.528-3.46-.584.01.019.019.028.019.046.037.093.195.613.287.965v.009c.037.14.056.251.056.288v.009c.019.084.037.158.046.251 0 .018.01.037.01.055.009.047.009.102.018.149.019.139.047.306.047.51 0 1.057-.427 2.161-1.151 3.098.019 0 .038.009.056.009 2.31 0 4.193-1.994 4.193-3.886.009-.176-.028-.325-.037-.492m-4.147-6.4c-.426 0-.807.019-1.168.037.046.176.065.362.046.538-.046.473.028 1.197.111 1.707.093.538.362.937.705 1.447.204.306.436.649.64 1.057 1.058.019 2.495.139 3.516.464-.464-1.206-1.262-1.744-1.457-2.866-.083-.483-.148-1.169-.102-1.679a.58.58 0 0 0-.528-.631 24 24 0 0 0-1.763-.074m7.597 5.769c-.018-.129-.046-.241-.074-.371-.51-.213-1.512-.454-2.968-.51.009.028.028.056.037.084.028.074.167.528.25.825v.01c.028.12.056.213.047.241v.009c.009.065.027.139.037.213 0 .019 0 .028.009.047 0 .046.009.083.019.13.018.12.037.269.037.435 0 .214-.028.427-.065.631-.01.037-.01.065-.019.102a5 5 0 0 1-.176.631c-.009.019-.019.037-.019.056a4.9 4.9 0 0 1-.732 1.27c2.012 0 3.654-1.743 3.654-3.394 0-.14-.028-.269-.037-.409m-4.508-4.971c-.037.408.028 1.029.093 1.465.074.464.315.807.603 1.252.167.251.352.538.529.854.918.018 2.142.12 3.023.399-.408-1.049-1.103-1.522-1.27-2.505-.075-.426-.13-1.02-.093-1.465a.51.51 0 0 0-.464-.548 15 15 0 0 0-1.54-.074c-.343 0-.658.019-.955.037.065.186.093.381.074.585m-.417-1.095c.464-.037.946-.046 1.298-.046.427 0 1.021.018 1.568.074l-.26-1.614a.52.52 0 0 0-.157-.297l-.242-.222-.046-.047-.26-.306a.53.53 0 0 0-.408-.185h-.38a.51.51 0 0 0-.399.185l-.26.288-.046.046-.251.223a.43.43 0 0 0-.157.297l-.232 1.419c.083.055.167.12.232.185"/></svg>