<svg xmlns="http://www.w3.org/2000/svg" viewBox="0 0 24 24"><path fill="#44739e" d="m7.462 8.257-.268-1.691a.53.53 0 0 0-.166-.315l-.25-.231c-.018-.018-.037-.027-.046-.046l-.268-.314a.53.53 0 0 0-.425-.194h-.398a.56.56 0 0 0-.425.194l-.268.314c-.018.019-.027.037-.046.046l-.25.231a.54.54 0 0 0-.166.315l-.268 1.691a18 18 0 0 1 3.244 0M5.826 18.534c.398 0 .767-.083 1.128-.194-.462-.767-.74-1.636-.74-2.532 0-.194.028-.361.047-.499a1 1 0 0 0 .018-.176c.028-.212.065-.388.102-.573.009-.018.009-.046.018-.065l.25-.831v-.01c-.268-.009-.536-.018-.832-.018-1.848 0-3.105.286-3.697.536-.028.129-.055.24-.074.379-.018.148-.046.286-.046.444.009 1.728 1.728 3.539 3.826 3.539m1.054-5.406c.231-.481.49-.869.721-1.23a6 6 0 0 0 .462-.757c-.019-.074-.046-.148-.056-.231-.074-.444-.138-1.073-.092-1.525a.536.536 0 0 0-.49-.573 16 16 0 0 0-1.599-.084c-.6 0-1.137.028-1.599.084a.547.547 0 0 0-.489.573c.046.452-.019 1.081-.093 1.525-.175 1.025-.896 1.515-1.312 2.606 1.026-.324 2.532-.435 3.502-.435.296.01.666.028 1.045.047m9.575.804c-1.303-.416-3.217-.546-4.455-.546s-3.152.13-4.455.546c.527-1.396 1.451-2.015 1.673-3.318.102-.564.176-1.359.12-1.941-.037-.37.25-.693.619-.73.601-.065 1.276-.102 2.043-.102s1.442.037 2.043.102c.369.037.646.36.609.73-.055.582.028 1.377.121 1.941.221 1.303 1.146 1.922 1.682 3.318M14.079 7.24c-.72-.064-1.515-.092-2.079-.092s-1.359.028-2.079.092l.351-2.153a.62.62 0 0 1 .212-.397l.324-.296c.018-.019.046-.037.064-.065l.342-.407a.67.67 0 0 1 .527-.24h.509a.71.71 0 0 1 .545.25l.342.406c.018.019.037.047.064.065l.324.296a.67.67 0 0 1 .213.397ZM12 20.318c-2.671 0-4.852-2.311-4.852-4.51 0-.194.037-.379.055-.564.019-.176.056-.323.093-.49.758-.323 2.356-.684 4.704-.684s3.946.37 4.704.693c.037.167.065.315.093.49.018.185.055.361.055.564 0 2.19-2.181 4.501-4.852 4.501m6.146-12.135c.444 0 1.072.019 1.636.074l-.268-1.691a.53.53 0 0 0-.166-.315l-.25-.231c-.019-.009-.028-.027-.046-.046l-.268-.314a.56.56 0 0 0-.425-.194h-.398a.53.53 0 0 0-.425.194l-.268.314c-.009.019-.028.028-.046.046l-.25.231a.53.53 0 0 0-.166.315l-.268 1.691a17 17 0 0 1 1.608-.074M22 14.995c0-.158-.028-.296-.046-.444-.019-.139-.046-.25-.074-.379-.592-.25-1.849-.536-3.697-.536-.296 0-.564.009-.832.018v.01l.25.831c.009.019.009.047.018.065.037.185.074.361.102.573 0 .074.009.13.018.176.019.138.047.305.047.499 0 .896-.278 1.765-.74 2.532.361.111.73.194 1.128.194 2.098 0 3.817-1.811 3.826-3.539m-3.835-1.914c.97 0 2.476.111 3.502.435-.416-1.091-1.137-1.581-1.312-2.606-.074-.444-.139-1.073-.093-1.525a.55.55 0 0 0-.489-.573 14 14 0 0 0-1.599-.084 16 16 0 0 0-1.599.084.534.534 0 0 0-.49.573c.046.452-.018 1.081-.092 1.525-.01.083-.037.157-.056.231.12.249.277.489.462.757.231.361.49.749.721 1.23.379-.019.749-.037 1.045-.047"/></svg>