<svg xmlns="http://www.w3.org/2000/svg" viewBox="0 0 24 24"><path fill="#44739e" d="M16.502 20.701c1.933 0 3.625-.967 3.625-2.175-.242-1.45-1.692-2.176-3.625-2.176s-3.627.726-3.627 2.176c0 1.208 1.692 2.175 3.627 2.175m-1.935-3.384c0-.241.483-.241.968-.483a4.5 4.5 0 0 1 1.692.483 2.48 2.48 0 0 1 1.45 1.209c.241.241.483.725.241.966 0 .242-.483.484-.966.484a7.5 7.5 0 0 1-1.934-.484c-.483-.241-.726-.725-1.209-1.208-.242-.483-.484-.725-.242-.967m7.252-3.142h-.725l-.242.725v.484h.725l-.967 5.801h-8.458l-.967-5.076h-.484l.967 5.318a.236.236 0 0 0 .241.242h8.701c.242 0 .242 0 .242-.242l.967-6.285v-.725c.241-.242.241-.242 0-.242m-.482-11.844H2.483A.52.52 0 0 0 2 2.815v1.451l1.934 10.877a.52.52 0 0 0 .483.483h15.229a.52.52 0 0 0 .483-.483l1.692-10.877V2.815a.52.52 0 0 0-.484-.484M19.162 14.66H4.659L2.967 4.749h17.645Zm-7.01-.967c3.385 0 6.043-1.693 6.043-3.627S15.537 6.2 12.152 6.2 6.109 7.891 6.109 9.825s2.659 3.868 6.043 3.868M8.768 7.892c.242-.483.725-.725 1.692-.725a6.44 6.44 0 0 1 2.9.725 5.05 5.05 0 0 1 2.417 1.934c.484.725.726 1.208.484 1.692a2.22 2.22 0 0 1-1.451.967 7.9 7.9 0 0 1-3.142-.967 6.6 6.6 0 0 1-2.416-1.935c-.484-.725-.725-1.208-.484-1.692"/></svg>