<svg xmlns="http://www.w3.org/2000/svg" viewBox="0 0 24 24"><path fill="#44739e" d="M15.394 2.007a.87.87 0 0 0-.714.238 3.65 3.65 0 0 0-3.098 1.19c-1.661 1.189-.947 3.568-.947 3.568l2.141 8.328h4.759l2.142-8.328s.713-2.379-.476-3.807a5.96 5.96 0 0 0-3.098-.951.87.87 0 0 0-.709-.238m2.141 2.379c.238 0 .238.238.476.238v.238l-.238.238-3.331.714a.83.83 0 0 0-.475.238.83.83 0 0 0 .475.238l3.098.713c.476 0 .714.476.714.952a1.06 1.06 0 0 1-.714.952l-3.568.951v.476l3.092.715c.476 0 .952.475 1.19 1.189 0 .476-.476.951-1.19 1.19h-3.336a.477.477 0 0 1 0-.952L16.584 12a.83.83 0 0 0 .475-.238.83.83 0 0 0-.475-.238l-3.098-.713c-.476 0-.714-.477-.714-.953a1.06 1.06 0 0 1 .714-.951l3.569-.952v-.476l-2.854-.238a1.95 1.95 0 0 1-1.19-1.189c0-.477.476-.952 1.19-1.19l3.331-.476m-4.756 11.897a.87.87 0 0 1-.237.714c-.238.475 0 .713.237.951l.476 2.379c0 .238 0 .477.238.477l.477.476.475.475a.87.87 0 0 0 .714.238h.713a.88.88 0 0 0 .715-.238l.238-.475.475-.476c.238-.239.238-.239.238-.477l.476-2.141c.238-.238.475-.714.238-.952 0-.237-.238-.475-.238-.713h-2.38a11.6 11.6 0 0 1-2.855-.238m-5.71-9.755a.238.238 0 0 0 0 .475l2.38.476c.238 0 .238.238.475.238v-.476c0-.475-.237-.713-.237-1.189Zm-.952 7.614h3.57l.951-3.57-.714-2.379q0 .358-.713.714l-2.617.714 2.379.475c.476 0 .714.476.951.953A.87.87 0 0 1 8.97 12l-2.379.476c-.238 0-.477 0-.477-.238s.239-.238.239-.476l2.378-.476a.238.238 0 1 0 0-.475l-2.378-.477a.76.76 0 0 1-.715-.713.63.63 0 0 1 .715-.719l2.852-.709-2.139-.476c-.475 0-.713-.476-.952-.951 0-.476.477-.714.952-.952l2.38-.476h.238c0-.476.237-.952.237-1.427a3 3 0 0 1-1.428-.238c-.238 0-.475-.238-.713-.238s-.476 0-.476.238a3.06 3.06 0 0 0-2.379.951 3.55 3.55 0 0 0-.714 3.098l1.665 6.425h.238m3.807.713H8.023a6.6 6.6 0 0 1-2.142-.238v.476c0 .238 0 .714.238.714l.239 1.665c0 .238 0 .238.238.476l.237.238.238.714c.238.238.238.238.476.238h.476c.237 0 .475 0 .475-.238l.238-.475.715-.239v-.476l.238-1.665a.88.88 0 0 0 .237-.714v-.476"/></svg>