<?xml version="1.0" encoding="UTF-8"?>
<svg width="24px" height="24px" viewBox="0 0 24 24" version="1.1" fill="#44739e" xmlns="http://www.w3.org/2000/svg" xmlns:xlink="http://www.w3.org/1999/xlink">
            <path d="M15.393,2a.874.874,0,0,0-.714.238,3.653,3.653,0,0,0-3.1,1.191C9.917,4.619,10.631,7,10.631,7l2.143,8.333h4.762L19.679,7s.714-2.381-.476-3.81a5.96,5.96,0,0,0-3.1-.952A.874.874,0,0,0,15.393,2m2.143,2.381c.238,0,.238.238.476.238v.238l-.238.238-3.333.715a.831.831,0,0,0-.476.238.831.831,0,0,0,.476.238l3.1.714c.476,0,.714.476.714.952a1.063,1.063,0,0,1-.714.953l-3.571.952v.476l3.095.715c.476,0,.952.476,1.19,1.19,0,.476-.476.952-1.19,1.191H13.726a.477.477,0,0,1,0-.953h0L16.584,12a.831.831,0,0,0,.476-.238.831.831,0,0,0-.476-.238l-3.1-.714c-.476,0-.714-.477-.714-.953a1.062,1.062,0,0,1,.714-.952l3.572-.953V7.476L14.2,7.238a1.954,1.954,0,0,1-1.191-1.19c0-.477.476-.953,1.191-1.191l3.333-.476h0M12.774,16.286a.874.874,0,0,1-.238.714c-.238.476,0,.714.238.952l.476,2.381c0,.238,0,.477.238.477l.477.476h0l.476.476a.874.874,0,0,0,.714.238h.714a.876.876,0,0,0,.715-.238l.238-.476h0l.476-.476c.238-.239.238-.239.238-.477l.476-2.143c.238-.238.476-.714.238-.952,0-.238-.238-.476-.238-.714H15.631a11.6,11.6,0,0,1-2.857-.238M7.06,6.524A.238.238,0,0,0,7.06,7l2.381.476c.238,0,.238.238.476.238V7.238c0-.476-.238-.714-.238-1.19h0Zm-.953,7.619H9.679l.952-3.572L9.917,8.19q0,.359-.714.715l-2.619.714h0l2.381.476c.476,0,.714.476.952.953A.872.872,0,0,1,8.965,12l-2.381.476h0c-.238,0-.477,0-.477-.238s.239-.238.239-.476h0l2.38-.476a.238.238,0,1,0,0-.476l-2.38-.477a.76.76,0,0,1-.715-.714A.631.631,0,0,1,6.346,8.9L9.2,8.19h0L7.06,7.714c-.476,0-.714-.476-.953-.952,0-.476.477-.714.953-.952l2.381-.477h.238c0-.476.238-.952.238-1.428a3.025,3.025,0,0,1-1.429-.238c-.238,0-.476-.238-.714-.238s-.476,0-.476.238a3.058,3.058,0,0,0-2.381.952,3.546,3.546,0,0,0-.714,3.1l1.666,6.429h.238m3.81.714h-1.9a6.6,6.6,0,0,1-2.143-.238V15.1c0,.238,0,.715.238.715l.239,1.666c0,.238,0,.238.238.476l.238.238h0l.238.715c.238.238.238.238.476.238h.476c.238,0,.476,0,.476-.238l.238-.476h0l.715-.239v-.476l.238-1.666a.876.876,0,0,0,.238-.715v-.476"></path>
</svg>