<svg xmlns="http://www.w3.org/2000/svg" viewBox="0 0 24 24"><path fill="#44739e" d="M9.652 13.391c-.092.566-.176 1.364-.12 1.948a.675.675 0 0 1-.612.733c-.603.065-1.28.102-2.05.102s-1.447-.037-2.05-.102c-.371-.037-.659-.362-.622-.733.056-.584-.018-1.382-.12-1.948-.223-1.308-1.15-1.929-1.679-3.33 1.308.418 3.228.548 4.471.548s3.163-.13 4.471-.548c-.538 1.401-1.466 2.022-1.689 3.33m-1.039 5.538a.68.68 0 0 1-.213.399l-.325.296c-.027.019-.046.047-.064.065l-.344.408a.71.71 0 0 1-.547.251h-.51a.67.67 0 0 1-.529-.241l-.343-.408c-.018-.028-.046-.047-.065-.065l-.325-.297a.63.63 0 0 1-.213-.399l-.352-2.161c.723.065 1.521.093 2.087.093s1.363-.028 2.087-.093Zm3.126-10.76c0 .204-.037.38-.055.566a8 8 0 0 1-.093.492c-.761.324-2.365.695-4.721.695s-3.961-.362-4.722-.686c-.037-.167-.074-.316-.092-.492C2.037 8.559 2 8.373 2 8.178c0-2.207 2.189-4.526 4.87-4.526s4.869 2.319 4.869 4.517m5.881 7.977.186 1.141a.44.44 0 0 0 .139.25l.204.186c.009.009.028.018.037.037l.213.25c.065.103.195.158.334.158h.325a.45.45 0 0 0 .352-.158l.223-.259c.009-.01.018-.028.037-.037l.204-.186a.4.4 0 0 0 .139-.25l.223-1.373a18 18 0 0 1-1.327.056c-.287 0-.658-.01-1.029-.038-.084.075-.167.158-.26.223m4.378-5.714c0-1.308-1.215-2.662-2.773-2.838.426.64.677 1.364.677 2.059q0 .225-.028.38c0 .038-.009.075-.009.112-.01.009-.01.028-.01.037-.009.065-.027.12-.037.185v.01c0 .028-.018.111-.046.213v.009c-.065.26-.186.659-.213.724-.028.074-.065.12-.093.195 1.187-.047 2.031-.242 2.449-.418.018-.111.037-.204.055-.315.01-.121.037-.232.028-.353m-3.84 5.056a13.4 13.4 0 0 0 2.05-.047.427.427 0 0 0 .39-.464c-.038-.371.018-.881.074-1.243.139-.825.732-1.224 1.076-2.114-.724.232-1.735.324-2.505.343a8 8 0 0 1-.389.631c-.26.389-.464.686-.529 1.094-.065.38-.121.918-.083 1.28.018.186-.019.362-.084.52m-8.329 1.178.259 1.558a.55.55 0 0 0 .186.343l.278.26c.019.018.037.028.056.055l.297.353c.092.12.269.204.454.204h.436a.6.6 0 0 0 .473-.213l.297-.353c.018-.018.028-.037.056-.056l.278-.259a.55.55 0 0 0 .185-.343l.297-1.856a22 22 0 0 1-1.799.084c-.399 0-.937-.019-1.457-.056-.018.01-.027.028-.037.047a2 2 0 0 1-.259.232m5.927-7.718c0-1.892-1.883-3.886-4.193-3.886-.018 0-.037.009-.056.009.724.937 1.151 2.041 1.151 3.098 0 .204-.028.371-.047.51-.009.047-.009.102-.018.149 0 .018-.01.037-.01.055-.009.093-.027.167-.046.251v.009c0 .037-.019.148-.056.288v.009c-.092.352-.25.872-.287.965 0 .018-.009.027-.019.046 1.698-.056 2.876-.334 3.46-.584.037-.149.056-.279.084-.427.009-.167.046-.316.037-.492m-2.421 6.818a.58.58 0 0 0 .528-.631c-.046-.51.019-1.196.102-1.679.195-1.122.993-1.66 1.457-2.866-1.021.325-2.458.445-3.516.464-.204.408-.436.751-.64 1.057-.343.51-.612.909-.705 1.447-.083.51-.157 1.234-.111 1.707.019.176 0 .362-.046.538.361.018.742.037 1.168.037.668 0 1.243-.037 1.763-.074m5.871-6.104c0-1.651-1.642-3.394-3.654-3.394.315.389.556.825.732 1.27 0 .019.01.037.019.056.074.213.13.417.176.631.009.037.009.065.019.102.037.204.065.417.065.631 0 .166-.019.315-.037.435-.01.047-.019.084-.019.13-.009.019-.009.028-.009.047-.01.074-.028.148-.037.213v.009c.009.028-.019.121-.047.241v.01c-.083.297-.222.751-.25.825-.009.028-.028.056-.037.084 1.456-.056 2.458-.297 2.968-.51.028-.13.056-.242.074-.371.009-.14.037-.269.037-.409m-4.619 5.965c.297.018.612.037.955.037.575 0 1.086-.028 1.54-.074a.51.51 0 0 0 .464-.548c-.037-.445.018-1.039.093-1.465.167-.983.862-1.456 1.27-2.505-.881.279-2.105.381-3.023.399-.177.316-.362.603-.529.854-.288.445-.529.788-.603 1.252-.065.436-.13 1.057-.093 1.465a1.4 1.4 0 0 1-.074.585m-.575.695.232 1.419a.43.43 0 0 0 .157.297l.251.223.046.046.26.288a.51.51 0 0 0 .399.185h.38a.53.53 0 0 0 .408-.185l.26-.306.046-.047.242-.222a.52.52 0 0 0 .157-.297l.26-1.614a16 16 0 0 1-1.568.074c-.352 0-.834-.009-1.298-.046-.065.065-.149.13-.232.185"/></svg>