<svg xmlns="http://www.w3.org/2000/svg" viewBox="0 0 24 24"><path fill="#44739e" d="M14.881 18.484a5 5 0 0 1-3.239-1.185 7.2 7.2 0 0 0 4.681-6.74 7.3 7.3 0 0 0-.294-2.024 5.05 5.05 0 0 1 3.895 4.906 5.05 5.05 0 0 1-5.043 5.043M4.076 10.559a5.05 5.05 0 0 1 5.043-5.043 5 5 0 0 1 3.239 1.185 7.2 7.2 0 0 0-4.681 6.74c0 .703.106 1.382.294 2.024a5.05 5.05 0 0 1-3.895-4.906m10.085 0a5.05 5.05 0 0 1-3.895 4.906 4.9 4.9 0 0 1-.427-2.024 5.05 5.05 0 0 1 3.895-4.906 5 5 0 0 1 .427 2.024m.72-4.322h-.009a7.19 7.19 0 0 0-5.753-2.881 7.204 7.204 0 0 0 0 14.407h.009a7.19 7.19 0 0 0 5.753 2.881 7.204 7.204 0 0 0 0-14.407"/></svg>