<svg xmlns="http://www.w3.org/2000/svg" viewBox="0 0 24 24"><path fill="#44739e" d="M16.845 7.989c-1.019.262-13.358 3.506-13.358 3.506s-.739.334-.45 1.307 2.658 7.851 2.658 7.851.352.811.947.757 5.885-.496 5.885-.496-.045.523.568.685 1.451.306 1.451.306l6.904-.477s.55-.045.55-.568v-8.067s-.045-.405-.352-.523-1.586-.522-1.586-.522-.243-.109-.685.027l-.234.072s-.667-2.83-.712-3.038c-.045-.18-.424-.883-1.208-.874a2 2 0 0 0-.378.054m-.983 1.893c.144.099.298.442.298.442l2.045 7.904s.118.288-.063.613c-.153.27-.522.297-.522.297S7.345 20.472 7.137 20.472c-.378-.027-.549-.288-.748-.586l-2.352-6.741s-.054-.325 0-.469c.045-.117.234-.279.234-.279l10.978-2.659c-.009 0 .442.027.613.144m-12.744.793.072-.027.072-.018c.333-.09 5.678-1.496 9.527-2.506l-.018-1.234-9.113-1.596V4.51l2.821-.739 8.644 2.434.189-.036v-.893L6.507 2.095 2 3.402l.009 7.489.712.045c.144-.117.279-.207.397-.261"/></svg>