<?xml version="1.0" encoding="UTF-8"?>
<svg width="32px" height="32px" viewBox="0 0 32 32" version="1.1" xmlns="http://www.w3.org/2000/svg" fill="#44739e" xmlns:xlink="http://www.w3.org/1999/xlink">
            <path d="M18.13919,17.00312a2.37106,2.37106,0,0,0,.1519.7198,1.00914,1.00914,0,0,1-.33229,1.131l-.40824,2.4865a.847.847,0,0,1-.28482.53278l-.44622.40195-.08545.08419-.46521.54215a.9556.9556,0,0,1-.74054.33649h-.70256a.95553.95553,0,0,1-.74054-.33649L13.62,22.35934l-.08545-.08419-.44622-.40195a.847.847,0,0,1-.28482-.53278l-.40824-2.5145a1.0093,1.0093,0,0,1-.33229-1.1311,2.26749,2.26749,0,0,0,.1519-.7197,29.43947,29.43947,0,0,0,3.19.17756C16.24037,17.15268,17.18979,17.09658,18.13919,17.00312Zm4.6332-8.7494a7.39034,7.39034,0,0,1-1.0065,3.7391l-.10444.15883c-.09494.14956-.18988.29921-.29432.43941-1.2912,1.8508-2.345,2.2528-2.9906,3.4493a27.25206,27.25206,0,0,1-2.9526.15892,28.81423,28.81423,0,0,1-3.4558-.20566c-.6456-1.1591-1.6899-1.5797-2.9621-3.4025-.10443-.1402-.19938-.28985-.29432-.43941l-.10443-.15883a7.38627,7.38627,0,0,1,.74785-8.5548,7.67188,7.67188,0,0,1,8.4233-2.2235,7.4846,7.4846,0,0,1,4.9941,7.0392Zm-5.6965.53278a1.07974,1.07974,0,0,0,0-2.0844l-2.9432-.79463c-.26583-.06537-.40824-.20556-.40824-.29912,0-.09346.14241-.22429.38926-.29912l3.0571-.7478a.45539.45539,0,0,0,.29413-.20762.44279.44279,0,0,0,.04766-.35325.48462.48462,0,0,0-.56964-.34585l-3.0666.7478a1.33511,1.33511,0,0,0-1.1013,1.2058,1.32553,1.32553,0,0,0,1.1013,1.2058l2.9242.8039a.14993.14993,0,0,1,.11393.14956.14078.14078,0,0,1-.11393.14029l-3.5223.93473a1.05921,1.05921,0,0,0-.807,1.0377,1.07772,1.07772,0,0,0,.807,1.0469l2.9432.73844c.26583.06546.40824.20566.40824.29912s-.14241.22439-.38926.29912l-2.9621.68243a.47033.47033,0,1,0,.10443.93473h.11393l2.9811-.68234a1.33512,1.33512,0,0,0,1.1013-1.2058,1.33525,1.33525,0,0,0-1.0918-1.1966l-2.9337-.79453a.13133.13133,0,0,1-.11393-.14019.14061.14061,0,0,1,.11393-.1402Z M4.50793,17.15363a.60447.60447,0,0,0,1.20893,0v-.93189a3.05823,3.05823,0,0,1-1.20893-.32111Z M6.62024,7.66339a8.36748,8.36748,0,0,1,.87439-3.16516c-.3783-.02454-.77-.03845-1.17328-.03845-2.62885,0-4.82947.551-5.33008,1.28137a.56467.56467,0,0,0-.11017.32111c0,.88464,2.43677,1.60559,5.44025,1.60559C6.42224,7.66785,6.52069,7.665,6.62024,7.66339Z M8.18555,13.16406c-.09864-.13281-.20606-.30029-.3125-.46826l-.10157-.1543A8.43489,8.43489,0,0,1,6.61505,8.26758c-.09833.00171-.20038.00476-.2937.00476a13.5894,13.5894,0,0,1-4.70673-.7367,5.70466,5.70466,0,0,0,2.15345,3.80311c.1228.11334.13537.30224.13537.68005v2.22894a1.18011,1.18011,0,0,0,.28021.78394,2.81945,2.81945,0,0,0,2.1377.60449,2.8104,2.8104,0,0,0,2.13452-.60449,1.16711,1.16711,0,0,0,.28333-.78394v-.35266C8.55945,13.67487,8.37506,13.43518,8.18555,13.16406Z M6.92578,17.15363a.60446.60446,0,0,0,1.20892,0v-1.253a3.05812,3.05812,0,0,1-1.20892.32111Z"></path>
</svg>