<?xml version="1.0" encoding="UTF-8"?>
<svg width="24px" height="24px" fill="#44739e" viewBox="0 0 24 24" version="1.1" xmlns="http://www.w3.org/2000/svg" xmlns:xlink="http://www.w3.org/1999/xlink">

            <path d="M17.1,16.507a.876.876,0,0,0,.239.716c.239.478,0,.717-.239.956l-.477,2.149c0,.239,0,.239-.239.478l-.478.477h0l-.478.478a.875.875,0,0,1-.716.239h-.478a.876.876,0,0,1-.716-.239l-.478-.478h0l-.478-.477a.835.835,0,0,1-.238-.478l-.239-2.149c-.478-.239-.478-.717-.478-1.195.239-.238.239-.238.239-.477.955,0,1.911.239,2.866.239a8.117,8.117,0,0,1,2.388-.239m4.3-7.882a5.482,5.482,0,0,1-.955,3.344v.239c0,.238-.239.238-.239.477-1.433,1.433-2.388,1.911-2.866,2.866a9.789,9.789,0,0,1-2.627.239,13.61,13.61,0,0,1-3.1-.239c-.478-.955-1.433-1.433-2.627-3.105,0-.238-.239-.238-.239-.477V11.73c-1.672-2.15-1.194-5.255.478-7.4a6.971,6.971,0,0,1,12.18,4.3ZM16.149,9.1a1.313,1.313,0,0,0,.716-1.195q0-.357-.716-.716l-2.627-.717a.835.835,0,0,1-.478-.238L13.283,6l3.105-.717a.234.234,0,0,0,.239-.239V4.8c0-.239-.239-.478-.478-.239l-2.866.716a1.092,1.092,0,0,0-.955,1.194,1.587,1.587,0,0,0,.955,1.2l2.627.716v.478L12.805,9.1c-.477.239-.716.477-.716.955s.239.717.716.955l2.627.717a.234.234,0,0,1,.239.239l-.239.239-2.627.716a.478.478,0,0,0,0,.955h0l2.627-.716a1.093,1.093,0,0,0,.956-1.194,1.028,1.028,0,0,0-.956-.956L13.044,10.3V9.819Zm-9.315,0A9.362,9.362,0,0,1,7.79,4.8H6.834c-.239,0-2.866,0-3.821.955s0,2.388.239,3.105c1.194,0,2.388.239,3.582.239Zm-1.91,7.165.238,1.911c0,.238,0,.238.239.238l.239.239h0l.478.478c0,.239.239.239.477.239h.478c.239,0,.478,0,.478-.239L7.79,18.9h0l.238-.239.239-.239.239-1.91a18.059,18.059,0,0,1-3.582-.239m4.3-1.911c-.239-.478-.717-.955-.956-1.433,0-.239-.239-.239-.239-.478v-.238A4.557,4.557,0,0,1,6.834,9.819h0A14.149,14.149,0,0,1,3.49,9.342a47.759,47.759,0,0,1,.956,5.732v.239l.239.238H8.506l.239-.238c.478,0,.478-.239.478-.239v-.717"></path>
</svg>