<svg xmlns="http://www.w3.org/2000/svg" viewBox="0 0 24 24"><path fill="#44739e" d="M11.898 19.079a8.5 8.5 0 0 1-1.694-.166c-.039 0-.069-.009-.108-.009l.302 1.879q.029.204.176.35l.282.254.049.048.301.351a.63.63 0 0 0 .478.214h.438c.185 0 .36-.078.477-.214l.302-.351.048-.048.283-.254a.54.54 0 0 0 .185-.35l.302-1.879-.331.029a8.4 8.4 0 0 1-1.49.146m9.708-15.541C20.165 2.409 15.744 2 12.083 2c-3.992 0-8.559.516-9.737 1.685a.5.5 0 0 0-.146.35v1.022c0 .069.009.127.039.185.029.069.282.624 1.051.818a5 5 0 0 1-.097-.37l-.088-.545a.35.35 0 0 1 .195-.38c.088-.048 2.298-1.149 8.549-1.149h.058c6.31 0 8.52 1.11 8.618 1.149a.375.375 0 0 1 .195.38l-.088.526c-.029.156-.078.311-.107.467.37-.126 1.275-.506 1.275-1.246v-.964a.55.55 0 0 0-.194-.39M7.73 12.506c1.354-.233 2.834-.409 4.177-.409 1.266 0 2.776.166 4.207.38 1.178-1.227 3.155-3.797 3.788-6.923l.039-.234c-.711-.263-3.058-.973-7.975-.973h-.059c-4.975 0-7.332.71-8.042.973l.039.244c.652 3.135 2.658 5.725 3.826 6.942m4.177.322c-1.129 0-2.385.136-3.573.321.019.039.049.068.058.107.127 1.071.682 1.354.711 1.363a.39.39 0 0 1 .214.312c0 .029.03.652 0 1.908-.019.974.633 1.266.663 1.276.009 0 1.781.516 3.875-.01.107-.058.672-.37.643-1.266-.03-1.256 0-1.879 0-1.908a.35.35 0 0 1 .214-.312c.019-.009.574-.292.701-1.363.01-.049.049-.088.068-.136-1.237-.176-2.502-.292-3.574-.292"/></svg>