<?xml version="1.0" encoding="UTF-8"?>
<svg width="33px" height="32px" viewBox="0 0 33 32" version="1.1" xmlns="http://www.w3.org/2000/svg" xmlns:xlink="http://www.w3.org/1999/xlink">
    <!-- Generator: Sketch 51.3 (57544) - http://www.bohemiancoding.com/sketch -->
    <style>path{fill:#000}@media (prefers-color-scheme:dark){path{fill:#fff}}</style>
            <path d="M17.7,2.2H4.2C3.8,2.2,3.5,2.6,3.5,3v3c0,0.4,0.3,0.8,0.8,0.8h13.5c3,0,3.8,2.2,3.8,3V6C21.5,3.9,19.8,2.2,17.7,2.2z M5.7,5.2C5.3,5.2,5,4.9,5,4.5s0.3-0.8,0.8-0.8s0.8,0.3,0.8,0.8S6.1,5.2,5.7,5.2z M9.5,5.2c-0.4,0-0.8-0.3-0.8-0.8s0.3-0.8,0.8-0.8 s0.8,0.3,0.8,0.8S9.9,5.2,9.5,5.2z M13.2,5.2c-0.4,0-0.8-0.3-0.8-0.8s0.3-0.8,0.8-0.8S14,4.1,14,4.5S13.6,5.2,13.2,5.2z M17,5.2 c-0.4,0-0.8-0.3-0.8-0.8s0.3-0.8,0.8-0.8s0.8,0.3,0.8,0.8S17.4,5.2,17,5.2z M17.7,8.2H4.2C3.8,8.2,3.5,8.6,3.5,9v3 c0,0.4,0.3,0.8,0.8,0.8h13.5c3,0,3.8,2.2,3.8,3V12C21.5,9.9,19.8,8.2,17.7,8.2z M5.7,11.2c-0.4,0-0.8-0.3-0.8-0.8s0.3-0.8,0.8-0.8 s0.8,0.3,0.8,0.8S6.1,11.2,5.7,11.2z M9.5,11.2c-0.4,0-0.8-0.3-0.8-0.8s0.3-0.8,0.8-0.8s0.8,0.3,0.8,0.8S9.9,11.2,9.5,11.2z M13.2,11.2c-0.4,0-0.8-0.3-0.8-0.8s0.3-0.8,0.8-0.8s0.8,0.3,0.8,0.8S13.6,11.2,13.2,11.2z M17,11.2c-0.4,0-0.8-0.3-0.8-0.8 s0.3-0.8,0.8-0.8s0.8,0.3,0.8,0.8S17.4,11.2,17,11.2z M17.7,14.2H4.2c-0.4,0-0.8,0.3-0.8,0.8v3c0,0.4,0.3,0.8,0.8,0.8h13.5 c3,0,3.8,2.2,3.8,3V18C21.5,15.9,19.8,14.2,17.7,14.2z M5.7,17.2c-0.4,0-0.8-0.3-0.8-0.8s0.3-0.8,0.8-0.8s0.8,0.3,0.8,0.8 S6.1,17.2,5.7,17.2z M9.5,17.2c-0.4,0-0.8-0.3-0.8-0.8s0.3-0.8,0.8-0.8s0.8,0.3,0.8,0.8S9.9,17.2,9.5,17.2z M13.2,17.2 c-0.4,0-0.8-0.3-0.8-0.8s0.3-0.8,0.8-0.8s0.8,0.3,0.8,0.8S13.6,17.2,13.2,17.2z M17,17.2c-0.4,0-0.8-0.3-0.8-0.8s0.3-0.8,0.8-0.8 s0.8,0.3,0.8,0.8S17.4,17.2,17,17.2z"/>

</svg>