<?xml version="1.0" encoding="UTF-8"?>
<svg width="24px" fill="#44739e" height="24px" viewBox="0 0 24 24" version="1.1" xmlns="http://www.w3.org/2000/svg" xmlns:xlink="http://www.w3.org/1999/xlink">
            <path d="M 12.008,6.433 C 6.764,6.433 2.5,9.06 2.5,12.305 c 0,3.22 4.264,5.857 9.508,5.857 5.272,0 9.492,-2.637 9.492,-5.857 0,-3.245 -4.22,-5.872 -9.492,-5.872 z m 0,1.126 c 4.9,0 8.868,2.107 8.868,4.746 0,2.615 -3.965,4.731 -8.868,4.731 -4.871,0 -8.839,-2.116 -8.839,-4.731 0,-2.639 3.968,-4.746 8.839,-4.746 z m -6.8,2.555 v 4.366 h 1.125 v -1.84 h 1.9 v 0.775 H 6.577 v 1.065 h 2.13 l 0.638,-0.441 v -1.46 L 9.056,12.305 9.345,12.046 V 10.8 L 8.767,10.115 Z m 4.594,0 v 2.145 l 0.471,0.457 1.05,-0.016 v -1.034 l -0.2,-0.183 v -1.369 z m 3.225,0 v 1.369 l -0.2,0.183 h -1.261 v 2.814 h 1.309 V 12.7 l 0.988,0.016 0.472,-0.442 v -2.16 z m 1.764,0 v 4.366 h 1.187 v -3.27 h 1.293 l 0.35,0.395 v 1.8 h -1.4 v 1.08 h 2.571 V 10.89 L 18.138,10.114 Z M 6.333,11.179 H 8.22 v 0.776 H 6.333 Z"/>

</svg>