<svg xmlns="http://www.w3.org/2000/svg" viewBox="0 0 24 24"><path fill="#44739e" d="M21.67 10.962a1.8 1.8 0 0 0-.444-.445v.006a2.55 2.55 0 0 0-1.499-.426c-.439-.01-1.1-.016-1.687-.018h-1.928v.743c1.448 0 2.461-.012 3.578.019a1.77 1.77 0 0 1 1 .263 1.087 1.087 0 0 1 .006 1.799 1.76 1.76 0 0 1-1 .263c-1.117.031-2.133.019-3.579.019v.743c1.455 0 2.5 0 3.615-.022a2.54 2.54 0 0 0 1.499-.425 1.805 1.805 0 0 0 .439-2.519m-7.295.266h-.006c0 .377-.125.5-.513.507-.185.006-.673.006-1.073.006h-1.106v2.182h1.008v-1.435h.1c.523 0 1.177 0 1.423-.009.755-.023.984-.239 1.013-.938.008-.094.008-.213.008-.344v-1.125h-.854Zm-6.676-.587a1.4 1.4 0 0 0-1.182-.56c-.312 0-1.664-.009-2.451-.009H2v.74c1.658 0 3.624 0 4.486.01a.62.62 0 0 1 .426.125.36.36 0 0 1 .1.394c-.08.221-.3.275-.528.279-.343.006-1.279.008-1.978.008H2v.737c1.658 0 3.628 0 4.486.01.267 0 .55.1.55.4s-.283.4-.55.4c-.856.013-2.828.009-4.486.009v.741c1.663 0 3.839.006 4.511-.01a1.39 1.39 0 0 0 1.182-.559A1.055 1.055 0 0 0 7.536 12a1.056 1.056 0 0 0 .163-1.359m1.919.573v-1.142h-.855c0 .365-.008 1.108.007 1.467.029.699.256.913.968.938.493.017.883.011 1.566.009v-.745c-.546 0-.769 0-1.173-.006-.388-.007-.511-.135-.513-.521"/></svg>