<?xml version="1.0" encoding="UTF-8"?>
<svg width="24px" fill="#44739e" height="24px" viewBox="0 0 24 24" version="1.1" xmlns="http://www.w3.org/2000/svg" xmlns:xlink="http://www.w3.org/1999/xlink">
            <path d="M 4.9366727,16.187513 A 5.5171023,5.4131988 0 0 0 7.733544,16.646507 4.7925036,4.7022465 0 0 1 5.1506682,16.095714 4.7337793,4.6446281 0 0 1 3.0017554,13.732384 c -0.00995,-0.02344 -0.017916,-0.04492 -0.027869,-0.06836 0.00597,0.01367 0.00995,0.02734 0.015925,0.04102 l -0.013935,-0.0332 a 4.7088961,4.6202135 0 0 1 0.115458,-3.8252757 l 0.02986,-0.058595 c 0.049766,-0.097658 0.099533,-0.1953166 0.1572618,-0.2851622 0.019907,-0.035157 0.041804,-0.068361 0.063701,-0.1035178 0.051757,-0.082033 0.1074954,-0.1640659 0.1652245,-0.2441457 0.023888,-0.033204 0.045785,-0.066408 0.069673,-0.097658 C 3.6586717,8.9481041 3.7442698,8.84068 3.8378306,8.7371622 3.945326,8.6160659 4.0587934,8.498876 4.1762421,8.3894987 c 0.045785,-0.04297 0.099533,-0.08008 0.1413365,-0.1210963 0.073654,-0.064454 0.1453179,-0.1308621 0.2229535,-0.189457 0.077636,-0.058595 0.1333739,-0.097658 0.1990655,-0.1425811 0.065692,-0.044923 0.1234207,-0.091799 0.1871217,-0.1328153 0.081617,-0.052736 0.167215,-0.097658 0.2508226,-0.1464874 0.051757,-0.029297 0.099533,-0.062501 0.1572618,-0.091799 0.099533,-0.052735 0.1990656,-0.097658 0.2985983,-0.1416045 0.041804,-0.019532 0.081617,-0.041016 0.1254113,-0.058595 0.1134674,-0.048829 0.2289255,-0.089846 0.3443835,-0.128909 0.031851,-0.011719 0.06171,-0.025391 0.093561,-0.035157 0.127402,-0.04297 0.2567946,-0.078127 0.3881779,-0.1113305 l 0.06171,-0.017578 c 0.1413365,-0.035157 0.2846638,-0.062501 0.4299816,-0.085939 l 0.027869,-0.00586 A 5.4106022,5.3087044 0 0 1 10.713554,7.632647 5.7788735,5.6700401 0 0 0 10.163138,7.3015854 5.3906956,5.2891728 0 0 0 8.4004132,6.7156357 5.5320322,5.4278476 0 0 0 5.2452239,7.1394726 5.4414574,5.3389785 0 0 0 3.5690918,8.3113721 l -0.041804,0.041016 A 5.3409292,5.2403436 0 0 0 2.04624,12.532163 a 4.9268729,4.8340852 0 0 0 0.2090188,0.810564 4.8860644,4.7940453 0 0 0 1.083912,1.732458 5.1408683,5.0440505 0 0 0 1.5975019,1.112328 z m 6.9274833,-5.56457 h 0.173187 c 0.118002,0 0.213,0.095 0.213,0.213 v 2.343589 c 0,0.118002 -0.095,0.213 -0.213,0.213 h -0.173187 c -0.118002,0 -0.213001,-0.095 -0.213001,-0.213 v -2.343589 c 0,-0.118002 0.095,-0.213 0.213001,-0.213 z m -0.333436,4.532322 a 0.4110704,0.40332872 0 0 0 -0.580277,0.0127 4.544667,4.4590774 0 0 1 -3.0168381,1.392607 v 0 a 5.4324994,5.3301893 0 0 1 -2.780946,-0.46583 4.7925036,4.7022465 0 0 0 2.5878524,0.550792 5.5171023,5.4131988 0 0 1 -2.7968713,-0.458994 5.6574435,5.550897 0 0 0 3.0098715,0.54884 4.7228306,4.6338857 0 0 0 3.1273195,-1.446319 0.23489737,0.23047356 0 0 1 0.327463,-0.0068 0.23091606,0.22656722 0 0 1 0.07067,0.156253 0.22693475,0.22266089 0 0 1 -0.06569,0.161136 A 5.1498263,5.0528397 0 0 1 8.3874774,17.141675 5.3080834,5.2081164 0 0 1 3.9473199,15.754927 5.1836674,5.0860436 0 0 1 3.3441512,15.082061 4.8681485,4.7764668 0 0 1 2.4603001,13.826176 5.4583779,5.3555804 0 0 0 5.9867466,17.128002 5.573836,5.468864 0 0 0 8.4133559,17.315506 5.3259993,5.2256949 0 0 0 11.541671,15.7227 0.40509843,0.39746923 0 0 0 11.530721,15.156282 Z M 10.723509,7.6365533 v 0 h -0.008 A 5.4106022,5.3087044 0 0 0 7.1064505,6.984196 l -0.027869,0.00586 C 6.9332636,7.013494 6.7899364,7.040838 6.6485998,7.075995 l -0.06171,0.017578 C 6.4555065,7.1267771 6.3261139,7.161934 6.198712,7.2049037 c -0.031851,0.00977 -0.06171,0.023438 -0.093561,0.035157 -0.115458,0.039063 -0.230916,0.08008 -0.3443834,0.1289089 -0.043794,0.017578 -0.083608,0.039063 -0.1254113,0.058595 -0.099533,0.043946 -0.1990656,0.088869 -0.2985984,0.1416045 -0.053748,0.029298 -0.1055047,0.062501 -0.1572618,0.091799 -0.083608,0.046876 -0.1692057,0.097658 -0.2508226,0.1464874 -0.063701,0.041017 -0.1254113,0.087892 -0.1871216,0.1328153 -0.06171,0.044923 -0.1353646,0.091799 -0.1990656,0.1425811 C 4.4787853,8.133634 4.3931871,8.2078543 4.3195329,8.2723088 4.2737479,8.3133252 4.2199999,8.3504354 4.1781963,8.393405 4.0607476,8.5027823 3.9472803,8.6199723 3.8397849,8.7410685 3.7462239,8.8445863 3.6606258,8.9520104 3.579009,9.0613877 3.555121,9.0926384 3.533224,9.1258422 3.509336,9.159046 3.451607,9.2391258 3.3958686,9.3211588 3.3441116,9.4031917 3.3222146,9.4383487 3.3003176,9.4715525 3.2804106,9.5067095 3.2246726,9.6043678 3.1729152,9.6961666 3.1231488,9.7918717 l -0.02986,0.058595 A 4.7088961,4.6202135 0 0 0 2.9758769,13.671836 v 0 A 4.535709,4.4502881 0 0 1 5.4791264,7.8631205 4.6909802,4.602635 0 0 1 8.1446144,7.6082324 4.5197838,4.4346628 0 0 1 10.474677,8.8201718 l 0.01692,0.016602 a 0.57629482,0.56544148 0 0 0 0.807211,-0.030274 0.56136491,0.55079274 0 0 0 -0.02886,-0.7812663 l -0.01394,-0.017579 A 5.2871815,5.1876082 0 0 0 10.721517,7.5877242 h -0.005 A 5.0841347,4.9883853 0 0 0 10.167096,7.302562 5.7788735,5.6700401 0 0 1 10.717513,7.6336236 Z m 0.426995,0.5156358 a 0.38220589,0.37500782 0 0 1 0.122426,0.2607476 0.38718253,0.37989073 0 0 1 -0.09953,0.2734432 0.39813114,0.39063315 0 0 1 -0.554398,0.021485 l -0.01194,-0.011719 A 4.7079007,4.6192369 0 0 0 8.1794579,7.4353773 4.8771065,4.785256 0 0 0 5.4074698,7.7000312 4.7775737,4.6875977 0 0 0 4.1483801,8.4432108 a 5.4106022,5.3087044 0 0 1 6.4696309,-0.707046 5.2812096,5.1817487 0 0 1 0.51558,0.4052819 z m 10.74755,2.5469279 a 0.182145,0.17871466 0 0 0 -0.157261,-0.07813 h -0.199066 a 0.25778991,0.25293496 0 0 0 -0.232907,0.158206 l -0.672841,1.726599 -0.69673,-1.728552 a 0.25878524,0.25391154 0 0 0 -0.232907,-0.156253 h -0.205037 a 0.182145,0.17871466 0 0 0 -0.173187,0.251958 l 0.981393,2.377003 a 0.10550475,0.10351778 0 0 1 0,0.04883 l -0.205037,0.511729 a 1.393459,1.367216 0 0 1 -0.05972,0.136722 0.44491155,0.43653254 0 0 1 -0.06967,0.107424 0.26973385,0.26465396 0 0 1 -0.08162,0.06641 0.29859835,0.29297486 0 0 1 -0.213,0.0059 c -0.03782,-0.0098 -0.05773,-0.01563 -0.06171,-0.01563 v 0 A 0.19906557,0.19531657 0 0 0 19.36395,14.27927 l -0.03185,0.285162 a 0.06270565,0.06152472 0 0 0 0.04579,0.06641 l 0.05773,0.01563 a 1.1854355,1.1631102 0 0 0 0.175178,0.03711 1.2282346,1.2051033 0 0 0 0.187122,0.01563 0.78431835,0.7695473 0 0 0 0.529514,-0.173832 1.4621366,1.4346002 0 0 0 0.256795,-0.355476 c 0.0219,-0.04297 0.05375,-0.111331 0.07166,-0.1543 l 1.260085,-3.144597 a 0.16920573,0.16601909 0 0 0 -0.01792,-0.171879 z m -5.541985,-0.07617 h -0.173187 a 0.24286,0.23828622 0 0 0 -0.228925,0.169925 l -0.473777,1.646519 -0.597196,-1.660191 a 0.25181795,0.24707546 0 0 0 -0.232907,-0.160159 h -0.155271 a 0.24883196,0.24414572 0 0 0 -0.230916,0.164066 l -0.559374,1.646518 -0.48373,-1.640659 A 0.24783663,0.24316913 0 0 0 12.98987,10.619038 h -0.207028 a 0.18811696,0.18457416 0 0 0 -0.18314,0.244145 l 0.756449,2.359424 a 0.24684131,0.24219255 0 0 0 0.230916,0.16602 h 0.18115 a 0.24982729,0.2451223 0 0 0 0.230916,-0.162113 l 0.573308,-1.644566 0.613122,1.648472 a 0.25480393,0.25000521 0 0 0 0.232907,0.16016 h 0.18314 a 0.24485065,0.24023938 0 0 0 0.230917,-0.169926 L 16.5412,10.86123 a 0.19010762,0.18652733 0 0 0 -0.185131,-0.242192 z m 2.751086,2.621148 c -0.01194,-0.06836 -0.01991,-0.136721 -0.02588,-0.207035 -0.006,-0.07031 -0.01,-0.150394 -0.01394,-0.230474 -0.004,-0.08008 -0.006,-0.171878 -0.008,-0.269537 -0.002,-0.09766 0,-0.250005 0,-0.250005 v -0.693374 a 0.97442596,0.95607462 0 0 0 -0.328458,-0.794938 1.2939262,1.2695577 0 0 0 -0.825127,-0.242193 1.8045294,1.7705447 0 0 0 -0.563355,0.09766 1.7408284,1.7080434 0 0 0 -0.427991,0.236333 0.21200483,0.20801215 0 0 0 -0.08162,0.142581 0.19906557,0.19531657 0 0 0 0.04977,0.1543 l 0.187122,0.216801 a 0.07166361,0.07031397 0 0 0 0.04379,0.02148 0.05673369,0.05566522 0 0 0 0.04579,-0.01563 l 0.05375,-0.04492 a 1.035141,1.0156462 0 0 1 0.69673,-0.251958 0.75843982,0.74415614 0 0 1 0.437944,0.117189 0.42002835,0.41211797 0 0 1 0.144323,0.382821 h -0.251818 a 4.2281527,4.148524 0 0 0 -0.447898,0.02539 1.8911229,1.8555074 0 0 0 -0.497664,0.11719 1.0659961,1.0459202 0 0 0 -0.420028,0.292975 0.81417818,0.79884478 0 0 0 -0.183141,0.54298 0.84901466,0.83302518 0 0 0 0.09953,0.406258 0.83508007,0.81935302 0 0 0 0.246842,0.273444 0.99532785,0.97658286 0 0 0 0.332439,0.150393 1.3755431,1.3496375 0 0 0 0.360309,0.04492 1.2342065,1.2109628 0 0 0 0.603168,-0.130862 0.8898231,0.87306508 0 0 0 0.192099,-0.152347 v 0.02344 a 0.22892541,0.22461406 0 0 0 0.222953,0.195317 h 0.312533 a 0.06370098,0.0625013 0 0 0 0.04778,-0.02148 0.06569164,0.06445447 0 0 0 0.01592,-0.04883 z m -0.613122,-1.074241 a 1.1655289,1.1435785 0 0 1 -0.03583,0.281256 0.58326212,0.57227756 0 0 1 -0.113467,0.226567 0.60914064,0.59766871 0 0 1 -0.225939,0.162113 0.96944933,0.95119171 0 0 1 -0.386188,0.06445 0.54543966,0.53516741 0 0 1 -0.169205,-0.02539 0.52851909,0.5185655 0 0 1 -0.147309,-0.06836 0.33841147,0.33203817 0 0 1 -0.09953,-0.105471 0.27570581,0.27051345 0 0 1 -0.03384,-0.138675 0.28267311,0.27734953 0 0 1 0.06171,-0.187504 0.51159851,0.50196359 0 0 1 0.199065,-0.136722 1.2302252,1.2070564 0 0 1 0.322486,-0.08399 c 0.12143,-0.01758 0.310543,-0.02344 0.314524,-0.02344 0.0418,0 0.110481,0 0.154276,0 h 0.15328 z m -8.156712,-0.558605 a 4.1992882,4.1202031 0 0 0 -0.4478969,0.02539 1.867235,1.8320695 0 0 0 -0.4976639,0.11719 1.0659961,1.0459202 0 0 0 -0.4200284,0.292975 0.81417818,0.79884478 0 0 0 -0.1831403,0.54298 0.84901466,0.83302518 0 0 0 0.099533,0.406258 0.83508007,0.81935302 0 0 0 0.2468413,0.273443 0.97641662,0.95802779 0 0 0 0.3324395,0.150394 1.3755431,1.3496375 0 0 0 0.3603087,0.04492 1.2421692,1.2187754 0 0 0 0.605159,-0.130862 0.9186876,0.90138598 0 0 0 0.193094,-0.152347 v 0.02344 a 0.22693475,0.22266089 0 0 0 0.220962,0.195317 h 0.312533 a 0.06370098,0.0625013 0 0 0 0.04778,-0.02149 0.06569164,0.06445447 0 0 0 0.01592,-0.04883 l -0.01194,-0.08008 a 1.8493191,1.814491 0 0 1 -0.02389,-0.207036 c -0.006,-0.07422 -0.01,-0.150394 -0.01393,-0.230473 -0.004,-0.08008 -0.006,-0.171879 -0.008,-0.269537 -0.002,-0.09766 0,-0.250005 0,-0.250005 v -0.693374 a 0.97442596,0.95607462 0 0 0 -0.328458,-0.794939 1.2939262,1.2695577 0 0 0 -0.826122,-0.242192 1.8045294,1.7705447 0 0 0 -0.5633552,0.09766 1.7408284,1.7080434 0 0 0 -0.427991,0.236333 0.21200483,0.20801215 0 0 0 -0.085598,0.138675 0.20603286,0.20215265 0 0 0 0.049766,0.1543 l 0.1871216,0.216801 a 0.06668697,0.06543105 0 0 0 0.041804,0.02149 0.05673369,0.05566522 0 0 0 0.045785,-0.01563 l 0.053748,-0.04492 a 1.0391223,1.0195525 0 0 1 0.6967286,-0.251958 0.75445851,0.74024981 0 0 1 0.437945,0.11719 0.41903302,0.41114139 0 0 1 0.145317,0.38282 z m 0.258786,0.521495 v 0.03711 a 1.1655289,1.1435785 0 0 1 -0.03583,0.281256 0.58724343,0.57618389 0 0 1 -0.115458,0.226567 0.62108458,0.60938771 0 0 1 -0.226935,0.162113 0.93560818,0.91798789 0 0 1 -0.3822056,0.06445 0.54543966,0.53516741 0 0 1 -0.1692057,-0.02539 0.52851909,0.5185655 0 0 1 -0.1473085,-0.06836 0.36329467,0.35645275 0 0 1 -0.099533,-0.105471 0.27570581,0.27051345 0 0 1 -0.033841,-0.138675 0.28267311,0.27734953 0 0 1 0.06171,-0.187504 0.49766392,0.48829143 0 0 1 0.1990655,-0.136722 1.2302252,1.2070564 0 0 1 0.322486,-0.08399 c 0.1214303,-0.01758 0.3105423,-0.02344 0.3125333,-0.02344 0.0418,0 0.111477,0 0.155271,0 z M 6.8098798,11.369053 a 0.85100531,0.83497835 0 0 1 0.2786918,-0.189457 0.89579506,0.87892458 0 0 1 0.3682713,-0.07031 0.64895376,0.63673203 0 0 1 0.3085516,0.07422 1.3148281,1.290066 0 0 1 0.2299207,0.173832 0.24186467,0.23730964 0 0 0 0.2926264,0.01563 l 0.2647572,-0.195317 a 0.06270565,0.06152472 0 0 0 0.025878,-0.04297 0.05872434,0.05761839 0 0 0 -0.015925,-0.04688 l -0.054743,-0.05274 a 1.514889,1.4863591 0 0 0 -0.4717854,-0.35157 1.329758,1.3047147 0 0 0 -0.5812715,-0.126956 1.5716227,1.5420243 0 0 0 -0.5971967,0.107424 1.3536459,1.3281527 0 0 0 -0.4717854,0.304694 1.4332721,1.4062793 0 0 0 -0.306561,0.460947 1.6403003,1.6094086 0 0 0 0,1.156274 1.4223235,1.3955369 0 0 0 0.306561,0.460948 1.393459,1.367216 0 0 0 0.4717854,0.304693 1.5646554,1.5351883 0 0 0 0.5971967,0.107425 1.3795244,1.3535438 0 0 0 0.5713182,-0.11719 1.8373752,1.802772 0 0 0 0.4080844,-0.300788 0.20603286,0.20215265 0 0 0 0.058724,-0.150394 0.19906557,0.19531657 0 0 0 -0.075645,-0.146487 L 8.1685016,12.542906 a 0.05573836,0.05468864 0 0 0 -0.045785,-0.01367 0.060715,0.05957155 0 0 0 -0.041804,0.02344 l -0.043794,0.05469 A 0.85299597,0.83693151 0 0 1 7.774352,12.826115 0.64298179,0.63087253 0 0 1 7.4538565,12.904241 0.91371097,0.89650307 0 0 1 7.0855852,12.833928 0.89579506,0.87892458 0 0 1 6.8068934,12.64447 0.79029031,0.77540679 0 0 1 6.6337063,12.363215 a 1.0729634,1.0527563 0 0 1 -0.06171,-0.355477 1.026183,1.0068569 0 0 1 0.06171,-0.355476 0.83806605,0.82228277 0 0 1 0.1761735,-0.283209 z M 11.949753,9.2635404 A 0.46481811,0.4560642 0 1 0 12.413575,9.718628 0.45884614,0.4502047 0 0 0 12.278211,9.3963556 0.44889286,0.44043887 0 0 0 11.949753,9.2635404 Z m 0.216981,0.6670061 a 0.29859835,0.29297486 0 0 1 -0.216981,0.086915 0.29163106,0.28613878 0 0 1 -0.213996,-0.084962 0.29859835,0.29297486 0 0 1 -0.08858,-0.2138716 0.29859835,0.29297486 0 0 1 0.298598,-0.2988344 0.29163106,0.28613878 0 0 1 0.215986,0.086916 0.29859835,0.29297486 0 0 1 0.08859,0.2119185 0.29163106,0.28613878 0 0 1 -0.08361,0.2119185 z"/>

</svg>