<svg xmlns="http://www.w3.org/2000/svg" viewBox="0 0 24 24"><path fill="#44739e" d="M2 8.699h20v6.602H2Zm3.778 5.847c1.425-.815 1.735-2.712.841-3.999a2.8 2.8 0 0 0-.482-.52c-.198-.173-.434-.287-.694-.393-.49-.2-1.101-.2-1.59.002-.247.102-.473.211-.662.371s-.353.316-.5.527c-.913 1.307-.582 3.215.834 4.014.673.38 1.571.388 2.253-.002m2.952-3.06c-.234-.147-.323-.396-.273-.662.034-.184.144-.306.298-.401s.29-.102.439.003l.218.152a.74.74 0 0 0 .098-.345c-.377-.296-.933-.241-1.213.138-.258.35-.27.8-.028 1.163.28.42.89.477 1.274.139a.8.8 0 0 0-.117-.342l-.216.16c-.157.115-.313.101-.48-.005m2.104.076.143.303.319-.014-.742-1.762c-.015-.021-.068-.063-.085-.048l-.057.055-.746 1.752c.124.027.253.03.327-.001l.137-.285zm9.255-.275.012.162c-.143.159-.347.148-.514.046-.183-.112-.294-.266-.305-.489a.59.59 0 0 1 .309-.572c.125-.071.249-.12.386-.032l.265.171q.065-.143.106-.332c-.38-.303-.939-.256-1.222.135a1.01 1.01 0 0 0-.022 1.158c.271.417.859.443 1.309.191l.002-.749-.553-.006-.004.309zm-7.245-.373.007.947.319-.004v-1.762c-.051-.036-.192-.045-.239-.005l-.591 1.039-.592-1.042c-.054-.036-.193-.031-.238.012v1.762h.32l.006-.959.347.57c.039.065.165.159.252.065s.164-.238.236-.35zm1.597.038c.205-.156.27-.347.213-.562a.46.46 0 0 0-.432-.319l-.649-.005v1.8h.649c.239 0 .442-.155.486-.361.049-.232-.038-.444-.267-.553m1.475.921.356-.018-.358-.726c.251-.092.375-.306.356-.562s-.216-.498-.497-.498h-.76l.001 1.796.32-.002v-.682l.268.012zm.991-.02v-1.775l-.316-.004v1.783q.166.017.316-.005Zm1.662-.311a.975.975 0 0 0-.012-1.166c-.15-.208-.415-.313-.678-.311l-.581.004.002 1.799.607-.001a.8.8 0 0 0 .661-.325Zm3.126-.442-.01-.297h-.628l.002-.439h.745v-.299l-1.061.001v1.8l1.06.003-.007-.3-.739-.001.002-.466ZM9.259 13.953l.124.323c.108.003.213.001.333-.015l-.748-1.774c-.007-.02-.063-.075-.081-.058l-.059.057-.754 1.777c.13.017.239.018.337.009l.126-.321zm6.199.011a1.003 1.003 0 0 0-.152-1.352.825.825 0 0 0-1.06.019.994.994 0 0 0-.07 1.401c.054.057.142.133.206.171.352.211.815.108 1.075-.238Zm-4.282-1.5-.329-.002-.01 1.177c-.001.198-.175.322-.342.321s-.33-.131-.331-.329l-.008-1.166a2 2 0 0 0-.328-.002l.006 1.203c0 .202.121.363.269.502.207.193.579.188.79.005.172-.15.278-.33.279-.553zm1.745 1.317c.183-.424.083-.865-.259-1.157a.74.74 0 0 0-.454-.168h-.653v1.825l.733-.006c.217-.002.534-.265.633-.494m.717.493v-1.808l-.322-.001v1.812Z"/><path fill="#44739e" d="M5.778 14.546a2.34 2.34 0 0 1-2.252.002c-1.417-.799-1.748-2.707-.836-4.016.147-.211.305-.361.5-.526s.415-.269.662-.371a2.16 2.16 0 0 1 1.59-.002c.26.106.496.22.694.393.187.163.34.314.482.52.894 1.287.584 3.183-.84 3.998Zm-.513-.372a1.1 1.1 0 0 0 .057-1.554.933.933 0 0 0-1.381.021 1.1 1.1 0 0 0 .089 1.544.92.92 0 0 0 1.236-.011Zm7.579-3.26-.173.273c-.072.113-.152.261-.236.351s-.213 0-.252-.065l-.347-.57-.006.959h-.319V10.1c.044-.044.183-.049.238-.012l.591 1.041.591-1.039c.048-.04.189-.03.24.006v1.761l-.319.005zm2.614 3.05c-.26.347-.724.45-1.075.238a.993.993 0 0 1-.136-1.572.824.824 0 0 1 1.059-.019c.4.333.458.945.153 1.353Zm-.104-.596a.567.567 0 1 0-1.135 0 .567.567 0 0 0 1.135 0m3.215-1.826a.8.8 0 0 1-.661.325l-.608.001-.001-1.799.58-.004c.264-.002.529.104.679.311a.98.98 0 0 1 .011 1.166m-.152-.535c.016-.298-.133-.52-.424-.621-.099-.035-.265-.023-.378-.015v1.193c.413.062.779-.139.802-.557m-5.496 2.774c-.099.229-.416.492-.633.494l-.733.006v-1.825h.653c.164 0 .337.069.454.168a.97.97 0 0 1 .259 1.157m-.346-.763a.48.48 0 0 0-.427-.234h-.28l.001 1.173c.187-.002.383.023.53-.069.292-.183.35-.573.176-.87m3.341-1.145-.315-.681-.267-.012v.683l-.321.002-.001-1.797h.76c.282 0 .478.234.498.499s-.106.471-.357.562l.358.726-.356.018Zm-.129-.995c.108-.005.166-.177.166-.266-.001-.076-.084-.18-.172-.241l-.446-.01v.533zm-1.346.074a.47.47 0 0 1 .267.553c-.044.206-.247.361-.486.361h-.65v-1.8l.649.005a.46.46 0 0 1 .432.319c.057.216-.008.406-.213.562Zm-.22-.15c.085-.06.126-.178.119-.24s-.087-.184-.15-.187l-.304-.018.001.474c.11 0 .27.016.333-.029Zm.161.527c-.014-.078-.104-.216-.168-.218l-.327-.009v.478l.343-.016c.068-.003.163-.168.152-.235m5.707-.042-.231-.009.004-.308.553.005-.002.749c-.45.253-1.037.226-1.308-.191a1.01 1.01 0 0 1 .021-1.157c.284-.392.843-.438 1.223-.135a1.6 1.6 0 0 1-.107.331l-.265-.17c-.137-.089-.261-.04-.386.031a.6.6 0 0 0-.309.573c.012.222.123.376.306.488.167.102.371.113.513-.046l-.011-.162Zm-8.913 1.177-.004 1.156c-.001.223-.107.402-.279.552-.211.184-.583.189-.79-.005-.148-.139-.269-.3-.27-.502l-.005-1.203c.121-.008.217-.007.328.002l.007 1.167c.001.198.166.327.331.328s.34-.123.342-.321l.01-1.176zm-1.917 1.489-.722-.003-.126.321a1.5 1.5 0 0 1-.337-.009l.754-1.777.059-.057c.018-.016.074.038.081.058l.748 1.775c-.12.016-.225.018-.333.014zm-.136-.314-.232-.543-.224.546zM21.695 11.1l-.636.002-.002.466.739.001.007.3-1.06-.003v-1.8l1.061-.001v.299h-.745l-.002.439h.629Zm-10.861.462h-.704l-.138.285c-.074.031-.204.028-.327.001l.746-1.752.058-.055c.016-.015.068.027.084.048l.742 1.762-.318.014zm-.118-.307-.239-.562-.231.562zm-1.986.231c.167.104.323.12.479.004l.216-.16a.8.8 0 0 1 .117.342c-.384.338-.993.282-1.274-.139a1 1 0 0 1 .028-1.163c.28-.38.836-.434 1.213-.138 0 .123-.041.24-.098.345l-.217-.152c-.15-.105-.292-.094-.44-.003s-.264.217-.298.401c-.049.266.04.516.273.662Zm4.908 2.788-.322.003v-1.812l.322.001Zm3.269-2.421a1.3 1.3 0 0 1-.316.005v-1.784l.315.004v1.775Z"/><path fill="#44739e" d="M5.265 14.174a.92.92 0 0 1-1.236.011 1.1 1.1 0 0 1-.089-1.544.934.934 0 0 1 1.382-.021 1.1 1.1 0 0 1-.058 1.554Zm13.152-3.167c-.024.418-.39.619-.802.557v-1.193c.113-.008.278-.02.378.015.291.102.44.323.424.621m-5.842 2.011c.174.297.115.687-.176.87-.147.092-.343.067-.53.069v-1.174h.279a.48.48 0 0 1 .427.234Zm3.212-2.14-.453.016v-.533l.446.01c.088.061.171.165.172.241.001.089-.058.261-.166.266Zm-1.405.451c.011.067-.084.233-.152.235l-.343.016v-.478l.327.009c.064.002.154.139.168.218m-.161-.527c-.063.045-.224.029-.333.029l-.001-.474.304.018c.062.004.142.127.149.187s-.034.179-.118.24Zm-5.098 2.837-.457.003.225-.546Zm1.593-2.384h-.471l.232-.562Z"/></svg>
