<svg xmlns="http://www.w3.org/2000/svg" viewBox="0 0 24 24"><path fill="#44739e" d="M9.247 18.724a.99.99 0 0 0-.941.794.587.587 0 0 0 .641.772.9.9 0 0 0 .939-.792.633.633 0 0 0-.639-.774m4.788 0c-.492 0-.673.376-.601.794a.96.96 0 0 0 .972.772.563.563 0 0 0 .6-.792 1.065 1.065 0 0 0-.971-.774m2.954-4.212a.83.83 0 0 0-.675-.354H6.441a.83.83 0 0 0-.693.378l-3.621 5.65a.828.828 0 0 0 .693 1.269h17.423a.828.828 0 0 0 .675-1.295Zm-7.001.645h.221l.421.964c.116.224.207.424.287.621h.007c-.011-.255 0-.486.011-.783l.04-.798h.194l-.049 1.906h-.262l-.508-.968a4 4 0 0 1-.231-.635h-.007a18 18 0 0 1-.104.785l-.126.814h-.238Zm-2.663 5.298h-.336l.22-.837c.074-.265.163-.584.249-.822h-.013c-.159.224-.343.46-.564.724l-.815.925H5.81l-.01-.907a5 5 0 0 1 .075-.741h-.008a24 24 0 0 1-.459.842l-.473.817h-.327l1.154-1.905h.374l-.018.922a6 6 0 0 1-.021.641h.013c.143-.192.319-.401.526-.641l.77-.922h.373Zm1.568.027c-.705 0-1.089-.39-.926-.967a1.386 1.386 0 0 1 1.335-1 .844.844 0 0 1 .925.964 1.203 1.203 0 0 1-1.334 1.003m2.448-1.727v1.696h-.348l.05-1.696h-.704l.019-.207h1.681l.012.207Zm1.106 1.696-.16-1.905h.294l.207 1.905Zm-.113-3.362a.894.894 0 0 1-.893-.967c-.006-.604.299-1 .716-1s.782.399.893.964c.126.66-.218 1.007-.721 1.007Zm2.105 3.393a1.24 1.24 0 0 1-1.34-.967.828.828 0 0 1 .905-1 1.41 1.41 0 0 1 1.339.964c.214.66-.228 1.003-.909 1.003Zm3.326-.031-1.261-.967a8 8 0 0 1-.709-.635h-.01c.112.241.207.469.333.786l.32.814h-.324l-.704-1.899h.321l1.173.964c.29.223.533.424.753.621h.006a9 9 0 0 1-.428-.783l-.398-.798h.276l.997 1.905Zm-5.6-5.124c-.343 0-.501.376-.485.794a.714.714 0 0 0 .644.772c.394 0 .557-.359.483-.792-.064-.377-.293-.774-.642-.774M3.051 2.995H2.016v1.034a1.034 1.034 0 0 0 1.035-1.034m1.381 0h-.693a1.72 1.72 0 0 1-1.723 1.722v.693a2.414 2.414 0 0 0 2.416-2.415m1.375 0H5.12a3.103 3.103 0 0 1-3.104 3.103v.688a3.79 3.79 0 0 0 3.791-3.791m8.968 5.497L13.74 6.698l-2.084.305 1.81 3.134Zm4.639 1.293V8.38a1.29 1.29 0 0 0 .776-1.185 1.22 1.22 0 0 0-.274-.775l1.019-.595a1.09 1.09 0 0 0 .398-1.495l-.714-1.241a1.1 1.1 0 0 0-1.495-.398L14.92 5.132a1.024 1.024 0 0 0-.378 1.401l.776 1.345a1.034 1.034 0 0 0 1.412.378l.972-.559a1.3 1.3 0 0 0 .678.688v1.4a1.034 1.034 0 0 0 1.034 1.035H22V9.785Z"/></svg>