<svg xmlns="http://www.w3.org/2000/svg" viewBox="0 0 24 24"><path fill="#44739e" d="M13.072 13.587a1.9 1.9 0 0 0-1.646-1.859 4.7 4.7 0 0 0-1.118-.018h-.065a.26.26 0 0 0-.23.288.305.305 0 0 0 .305.269h.016c1.39.007 2.033.455 2.077 1.348.027.553-.64 1.283-1.667 1.467a1.4 1.4 0 0 0-.358-.031 9 9 0 0 0-1.036.102 15 15 0 0 1-2.013.387 1.454 1.454 0 0 1-1.568-.876 5.5 5.5 0 0 1-.447-1.176 1.5 1.5 0 0 0-.323-.592l-.311-.349a3 3 0 0 0-.617-.764q-.14-.067-.114.501-.327-.45-.407-.442c-.079.008-.064.203-.045.401a1 1 0 0 0 .203.46 2 2 0 0 0-.489.174 2.5 2.5 0 0 0-.292.229.44.44 0 0 0-.14.226l-.024.101a.2.2 0 0 1-.063.107l-.439.413a.2.2 0 0 0-.047.064.3.3 0 0 0-.034.132.27.27 0 0 0 .052.155l.009.015.336.58a.22.22 0 0 0 .156.107l.424.069a.224.224 0 0 1 .185.195 16 16 0 0 0 .471 2.846 3.9 3.9 0 0 0 .766 1.262 1.98 1.98 0 0 1 0 1.298 1.2 1.2 0 0 1-.3.638.2.2 0 0 1-.124.069l-.382.068a.22.22 0 0 0-.182.217v.113a.22.22 0 0 0 .224.219h.802a.22.22 0 0 0 .203-.134l.726-1.696a6 6 0 0 0 .265.952.2.2 0 0 1 .013.073.213.213 0 0 1-.214.214h-.093a.224.224 0 0 0-.22.222v.151a.22.22 0 0 0 .22.218h.61a.224.224 0 0 0 .216-.227q-.028-1.094.006-1.525a3 3 0 0 1 .135-.705 2 2 0 0 0 .263 0 27 27 0 0 1 2.711-.36 5 5 0 0 1 .311 1.274 2.1 2.1 0 0 1-.124.842.22.22 0 0 1-.203.148l-.305.014a.22.22 0 0 0-.211.227v.101a.22.22 0 0 0 .229.211h.58a.22.22 0 0 0 .191-.11 8 8 0 0 0 .626-1.26 4.4 4.4 0 0 0 .228-1.047 15 15 0 0 1 1.322.783.9.9 0 0 1 .191.53c0 .262-.016.337-.191.473a.4.4 0 0 1-.254.078.224.224 0 0 0-.222.22v.112a.224.224 0 0 0 .222.221h.733a.22.22 0 0 0 .213-.159 9 9 0 0 0 .235-.945 1.47 1.47 0 0 0-.102-1.029c-.203-.461-.712-.688-.82-1.101s.033-1.038-.123-2.043a2.5 2.5 0 0 0-.305-.941l.024-.017a2.82 2.82 0 0 0 1.369-2.178M3.2 2.446H2.183v1.016A1.016 1.016 0 0 0 3.2 2.446m1.357 0h-.681a1.69 1.69 0 0 1-1.693 1.692v.684a2.37 2.37 0 0 0 2.374-2.376m1.351 0h-.675a3.05 3.05 0 0 1-3.05 3.049v.676a3.725 3.725 0 0 0 3.725-3.725m5.747 3.939 1.779 3.08 1.286-1.616-1.016-1.764Zm7.624 2.735V7.742a1.27 1.27 0 0 0 .762-1.164 1.2 1.2 0 0 0-.269-.762l1.001-.587a1.074 1.074 0 0 0 .391-1.47l-.701-1.22a1.077 1.077 0 0 0-1.469-.396l-4.132 2.398a1.003 1.003 0 0 0-.371 1.377l.763 1.321a1.016 1.016 0 0 0 1.387.371l.955-.55a1.3 1.3 0 0 0 .666.677V9.12a1.016 1.016 0 0 0 1.017 1.016h2.541V9.12Z"/></svg>