<svg xmlns="http://www.w3.org/2000/svg" viewBox="0 0 24 24"><path fill="#44739e" d="m12.149 15.86.137.1a1 1 0 0 0 .072-.114l-.146-.084a1 1 0 0 1-.063.098m-.62-8.996h.855a.084.084 0 0 0 .085-.082v-.655a.084.084 0 0 0-.085-.082h-.855a.084.084 0 0 0-.085.082v.655a.084.084 0 0 0 .085.082m.342-.491a.086.086 0 0 1 .171 0v.163a.086.086 0 0 1-.171 0Zm2.262 6.552a.2.2 0 0 0-.042 0v.377h.034c.085 0 .141-.06.141-.2 0-.117-.051-.177-.133-.177m-.411-1.326v.159a.134.134 0 0 0 .144.121h.309v-.4h-.309a.134.134 0 0 0-.144.12m-1.751-6.77a3.33 3.33 0 0 0-2.001.526c-.876.7-1.627 7.72-.882 10.819.23.955 2.832.982 2.832.982 1.754-.105 2.786-.288 2.92-.929.749-3.572-.03-10.323-.889-10.913a3.65 3.65 0 0 0-1.98-.485m-.7 1.3a.25.25 0 0 1 .256-.246v-.165a.428.428 0 0 1 .855 0v.163a.25.25 0 0 1 .256.246v.655a.25.25 0 0 1-.256.245h-.855a.25.25 0 0 1-.256-.245Zm0 2.869a.25.25 0 0 1 .251-.244h.689v-.156a.25.25 0 0 0-.259-.242.255.255 0 0 0-.25.183.09.09 0 0 1-.1.059.08.08 0 0 1-.062-.1.425.425 0 0 1 .417-.3.42.42 0 0 1 .431.4v.161a.25.25 0 0 1 .257.239v.647a.25.25 0 0 1-.258.241h-.865a.25.25 0 0 1-.258-.241Zm-1.397 4.387h-.088v-.231h-.157v.231H9.54v-.537h.089v.214h.157v-.214h.088Zm.257.008c-.121 0-.19-.119-.19-.275s.076-.279.2-.279.19.127.19.271c-.004.189-.086.283-.2.283m.516-.008h-.253v-.537h.088v.45h.165Zm.346-.061a.25.25 0 0 1-.187.066 1 1 0 0 1-.1-.007v-.529a1 1 0 0 1 .12-.011.22.22 0 0 1 .167.056.28.28 0 0 1 .069.206.3.3 0 0 1-.069.219m-.122-.681a.21.21 0 0 1-.201-.151l-.708.011a.207.207 0 0 1-.4.006h-.007l-.164-.022-.016-.032a.3.3 0 0 1-.021-.181.2.2 0 0 1 .014-.044l.005-.012c.048-.116.218-.158.258-.166a1 1 0 0 0 .114-.043 1 1 0 0 0 .083-.047 1.1 1.1 0 0 1 .605-.215.8.8 0 0 1 .549.185l.093-.137a.14.14 0 0 1 .12-.066h.1v.178h-.082l-.061.09.064.01c.082.007.1.11.094.262v.01l-.008.052c0 .057-.05.129-.224.152a.215.215 0 0 1-.207.16m.573 4.088h-.088v-.232h-.157v.232h-.088v-.538h.088v.214h.157v-.214h.088Zm.257.007c-.121 0-.19-.119-.19-.275s.076-.279.2-.279.19.128.19.271c-.004.187-.086.283-.2.283m.183-1.546a.47.47 0 0 0-.355.249.41.41 0 0 0 .105.453l-.131.105a.57.57 0 0 1-.127-.634.562.562 0 0 1 1.02-.036.53.53 0 0 1-.038.513l.093.054-.36.181.027-.373.094.054a.37.37 0 0 0 .033-.352.45.45 0 0 0-.361-.214m.333 1.539h-.253v-.538h.089v.45h.169Zm.345-.061a.25.25 0 0 1-.186.065 1 1 0 0 1-.1-.007v-.529a.6.6 0 0 1 .119-.011.22.22 0 0 1 .167.055.27.27 0 0 1 .069.206.3.3 0 0 1-.069.221m.609-3.284h-.088v-.232h-.161v.232h-.088v-.538h.088v.215h.157v-.215h.088Zm.257.008c-.121 0-.19-.119-.19-.275s.076-.279.2-.279.19.127.19.27c-.006.189-.086.289-.2.289Zm.2-1.118-.34.461.043-.333h-.312a.03.03 0 0 1-.008-.019q0-.01.022-.038l.341-.461-.043.333h.271q.033-.001.04.005a.03.03 0 0 1 .008.019.1.1 0 0 1-.022.033m.316 1.11h-.253v-.538h.089v.45h.164Zm.345-.061a.25.25 0 0 1-.186.066 1 1 0 0 1-.1-.007v-.529a.6.6 0 0 1 .119-.011.22.22 0 0 1 .167.056.27.27 0 0 1 .069.206.3.3 0 0 1-.069.219m.078-1.9h.313v.163h-.314v.181h.314v.163h-.314v.11h-.5a.314.314 0 0 1-.335-.282h-.469a.29.29 0 0 0-.309.266v.315l-.192.011v-.325a.47.47 0 0 1 .5-.43h.469a.314.314 0 0 1 .333-.285h.5Zm-2.154-5.707a.257.257 0 0 0-.513 0v.163h.513Zm-.508 10.551c-.07 0-.1.094-.1.192s.035.193.1.193.1-.086.1-.2-.033-.185-.1-.185m-.868-3.345a.1.1 0 0 0-.043 0v.377h.035c.084 0 .141-.061.141-.2 0-.116-.048-.177-.133-.177m.185-.812-.032.047-.04-.059-.034-.005.015-.023a.6.6 0 0 0-.501-.191 1 1 0 0 0-.531.192 1 1 0 0 1-.1.056 1 1 0 0 1-.14.052h.001c-.057.012-.143.047-.16.084v.011l-.007.017v.006a.14.14 0 0 0 0 .061l.082.011h.029l.085-.032v.093a.09.09 0 0 0 .077.093.09.09 0 0 0 .077-.093v-.064l.947-.015v.063a.09.09 0 0 0 .077.089.09.09 0 0 0 .077-.094h.068v-.059c.1-.008.146-.031.152-.041l.007-.049a1 1 0 0 0-.007-.127Zm2.41.812c-.07 0-.1.094-.1.193s.035.192.1.192.1-.086.1-.194-.033-.191-.1-.191m-3.297 0c-.07 0-.1.093-.1.192s.035.192.1.192.1-.086.1-.194-.033-.19-.1-.19m2.271 3.346a.2.2 0 0 0-.042 0v.377h.034c.085 0 .141-.06.141-.2 0-.117-.051-.177-.133-.177m-.884-6.547h.861a.084.084 0 0 0 .086-.08v-.645a.084.084 0 0 0-.086-.08h-.861a.083.083 0 0 0-.086.08v.647a.083.083 0 0 0 .086.078m.344-.485a.087.087 0 0 1 .173 0v.16a.087.087 0 0 1-.173 0Zm2.842-6.44a3.88 3.88 0 0 0-2.656-.786 3.92 3.92 0 0 0-2.701.854c-2.03 1.925-3.095 12.815-1.182 17.542C8.745 21.831 11.977 22 11.977 22c2.358-.169 3.61-.52 3.927-1.507 1.795-5.594.767-15.938-1.196-17.695M12.022 20.98c-1.146 0-2.076-.194-2.076-.432s.93-.433 2.076-.433 2.074.194 2.074.433-.934.432-2.074.432m3.3-4.001c-.157.733-1.369.944-3.426 1.063 0 0-3.054-.031-3.323-1.122-.878-3.547.003-11.572 1.031-12.369a4 4 0 0 1 2.354-.6 4.4 4.4 0 0 1 2.317.554c1.009.672 1.923 8.388 1.047 12.469Z"/></svg>