<svg xmlns="http://www.w3.org/2000/svg" viewBox="0 0 24 24"><path fill="#44739e" d="M15.626 12.916v-.01l-.002.007Zm-.313-.108a.95.95 0 0 0-.391.587c-.02.059.01.078.069.078a.7.7 0 0 0 .391-.136.56.56 0 0 0 .242-.421c-.019-.021-.038-.086-.076-.114a.19.19 0 0 0-.235.006m-5.64-.009a.5.5 0 0 0-.128.068 1.16 1.16 0 0 0-.352.411 1.16 1.16 0 0 0-.176.527.21.21 0 0 0 .089.21.17.17 0 0 0 .211-.039 2 2 0 0 0 .263-.303 3 3 0 0 0 .216-.421.74.74 0 0 0 .078-.323.147.147 0 0 0-.201-.13m8.319-.987c-.098-.05-.211-.079-.304-.118-.234-.087-.45-.185-.683-.263s-.46-.128-.694-.187c-.333-.078-.665-.156-.998-.21s-.674-.117-1.007-.147a44 44 0 0 0-1.613-.117 18 18 0 0 0-2.189.049c-.45.029-.89.088-1.33.146-.293.039-.577.089-.87.146-.21.04-.41.098-.616.148a10 10 0 0 0-.703.195c-.285.098-.548.21-.822.316a4.2 4.2 0 0 0-.929.526 1.5 1.5 0 0 0-.459.48 1.5 1.5 0 0 0-.176.469 1.07 1.07 0 0 0 .303.843 2.6 2.6 0 0 0 .557.469 5 5 0 0 0 .811.421c.226.089.45.176.675.244.303.098.606.196.919.265.479.098.968.185 1.457.264.332.049.674.088 1.016.106.548.029 1.095.058 1.58.078l.01-.02c.459-.019.86-.019 1.264-.049s.801-.059 1.203-.105c.342-.039.694-.089 1.035-.147.294-.049.587-.118.871-.186.302-.078.606-.156.898-.254a7 7 0 0 0 1.223-.548 2.6 2.6 0 0 0 .645-.498 1.26 1.26 0 0 0 .342-.606 1.03 1.03 0 0 0-.283-.919 3.4 3.4 0 0 0-1.133-.791m-9.473.341a1.05 1.05 0 0 0-.684.148 1.5 1.5 0 0 0-.578.625 1.14 1.14 0 0 0-.096.821.527.527 0 0 0 .615.362 1 1 0 0 0 .538-.244.1.1 0 0 1 .039-.02h.071c-.009.02 0 .049-.02.068a1.15 1.15 0 0 1-1.007.363.72.72 0 0 1-.658-.48.95.95 0 0 1-.04-.449 1.1 1.1 0 0 1 .211-.548 1.5 1.5 0 0 1 .303-.342 2.1 2.1 0 0 1 .509-.304 1.8 1.8 0 0 1 .665-.136h.009a.9.9 0 0 1 .47.097.226.226 0 0 1 .048.372.24.24 0 0 1-.264.02.2.2 0 0 1-.078-.216.1.1 0 0 0 .009-.058c.007-.049-.013-.079-.062-.079m1.809.616c-.059.157-.118.304-.167.46l-.235.684a.1.1 0 0 0 .02.089.074.074 0 0 0 .088-.011 2 2 0 0 0 .211-.195.08.08 0 0 1 .078-.029c-.01.029 0 .059-.01.078a1.05 1.05 0 0 1-.4.381c-.211.098-.363.01-.363-.211v-.048l-.019-.02-.02-.01-.059.059a.63.63 0 0 1-.37.254.352.352 0 0 1-.45-.333.9.9 0 0 1 .117-.507 1.5 1.5 0 0 1 .685-.665 1 1 0 0 1 .234-.068.26.26 0 0 1 .234.068q.047.059.079 0t.106-.059h.185q.084.01.056.083m1.612.323a.164.164 0 0 1-.263-.088c-.029-.059-.059-.068-.098-.009a4 4 0 0 0-.283.421c-.118.235-.211.479-.304.713-.049.098-.068.118-.175.118h-.157c-.058 0-.078-.029-.058-.079.028-.087.068-.185.097-.273l.264-.821c.009-.03-.01-.069-.01-.098a.2.2 0 0 0-.098.039 2 2 0 0 0-.146.157l-.02.019a.2.2 0 0 1-.078.02c0-.02-.02-.059 0-.078.088-.106.167-.211.263-.304a.37.37 0 0 1 .235-.146l.01.009c.166 0 .225.069.216.186a.4.4 0 0 0-.011.105c0 .03.02.05.02.069.02-.01.049-.01.059-.029.039-.049.078-.105.117-.157a.53.53 0 0 1 .254-.185.23.23 0 0 1 .274.117.26.26 0 0 1-.108.294m1.242-.097c-.02-.059-.049-.059-.078-.02a3 3 0 0 0-.274.362 4.2 4.2 0 0 0-.371.83.11.11 0 0 1-.128.089h-.156q-.1 0-.068-.089c.068-.185.137-.361.196-.547.058-.166.117-.342.165-.518a.13.13 0 0 0-.009-.105c-.039-.039-.078 0-.106.029-.048.049-.088.097-.137.147-.02.009-.029.039-.048.039h-.05v-.056a1.26 1.26 0 0 1 .45-.43.16.16 0 0 1 .196 0 .18.18 0 0 1 .058.195c-.009.05-.028.105-.039.157v.078h.02a.2.2 0 0 0 .039-.049 1.3 1.3 0 0 1 .352-.39.242.242 0 0 1 .352.098.263.263 0 0 1-.195.316.15.15 0 0 1-.169-.136m1.037.85a2 2 0 0 1-.265.274.8.8 0 0 1-.254.137c-.225.068-.351-.069-.283-.284.049-.157.105-.322.165-.479.089-.211.176-.44.255-.655.058-.156.058-.156.225-.156l-.019-.011h.097c.059 0 .079.03.059.079-.069.211-.147.41-.211.616q-.1.263-.185.526a.13.13 0 0 0 .019.106c.02.018.078.009.105-.011a2 2 0 0 0 .196-.165c.009-.011.019-.04.029-.04a.3.3 0 0 1 .088-.029.14.14 0 0 1-.022.092Zm-.084-1.321a.133.133 0 0 1-.142-.145.284.284 0 0 1 .226-.293.14.14 0 0 1 .165.097.284.284 0 0 1-.249.341m1.726.754a.74.74 0 0 1-.402.235 4 4 0 0 1-.488.078c-.078.009-.106.029-.106.105a.42.42 0 0 0 .039.265.23.23 0 0 0 .211.126.77.77 0 0 0 .527-.211 1 1 0 0 1 .097-.087c.01-.011.04 0 .049 0v.048a1.04 1.04 0 0 1-.801.422.5.5 0 0 1-.431-.195.53.53 0 0 1-.097-.342l.009-.011a1.14 1.14 0 0 1 .626-.967.8.8 0 0 1 .606-.068.354.354 0 0 1 .161.602m1.701-.235c-.069.078-.157.106-.226.059a.3.3 0 0 1-.078-.105c-.029-.069-.048-.069-.097-.02a1.6 1.6 0 0 0-.323.47c-.098.233-.196.478-.293.713a.12.12 0 0 1-.127.088h-.176q-.088-.002-.059-.079c.098-.293.211-.585.303-.879a2 2 0 0 0 .069-.245c.009-.019-.01-.068-.02-.068-.019-.019-.058-.01-.078 0a2 2 0 0 0-.176.176c-.009.02-.02.039-.039.039h-.059v-.058a1.26 1.26 0 0 1 .45-.431.18.18 0 0 1 .21.03.17.17 0 0 1 .039.088 2 2 0 0 1-.028.211 1 1 0 0 0-.02.117h.02l.009.02a2 2 0 0 1 .195-.265 1.3 1.3 0 0 1 .216-.185.25.25 0 0 1 .316.039.226.226 0 0 1-.028.285m-2.923 6.971a.4.4 0 0 0 .117-.538.41.41 0 0 0-.361-.186H9.556a.43.43 0 0 0-.363.274.406.406 0 0 0 .391.518h2.415l-.009-.01h2.414a.4.4 0 0 0 .235-.058M4.823 5.476a.388.388 0 0 0 .461-.4V3.023c0-.078.018-.098.096-.098h1.475c.078 0 .105.03.105.089v.596a.386.386 0 0 0 .304.411.393.393 0 0 0 .468-.402V2.566a.4.4 0 0 0-.048-.211.37.37 0 0 0-.352-.186h-2.4a.35.35 0 0 0-.176.029.39.39 0 0 0-.235.382v1.245h-.02v1.221a.6.6 0 0 1 .009.136.4.4 0 0 0 .313.294m14.988 6.489a6 6 0 0 0-.676-.493 5 5 0 0 0-.737-.386c-.279-.105-.547-.224-.826-.316a10.5 10.5 0 0 0-1.404-.385c-.514-.097-1.028-.205-1.553-.279a17 17 0 0 0-1.264-.118c-.451-.032-.901-.032-1.351-.054a22 22 0 0 0-2.561.161c-.316.043-.643.105-.965.161a9 9 0 0 0-.761.15q-.514.127-1.029.289c-.352.118-.706.247-1.053.396a6 6 0 0 0-1.053.59 2.84 2.84 0 0 0-.911.986 1.44 1.44 0 0 0-.139.943 1.9 1.9 0 0 0 .536.943 4.2 4.2 0 0 0 .836.654 7.4 7.4 0 0 0 1.21.59c.344.128.686.234 1.04.331.375.106.75.204 1.135.279s.762.129 1.147.183a19 19 0 0 0 2.069.149 21 21 0 0 0 3.086-.149c.354-.054.697-.106 1.054-.172.225-.043.46-.097.685-.151.332-.085.654-.182.986-.278a7 7 0 0 0 .793-.279c.279-.118.547-.257.815-.396a4 4 0 0 0 .911-.632 2.14 2.14 0 0 0 .632-.965 1.4 1.4 0 0 0-.054-.911 2.3 2.3 0 0 0-.598-.841m.16 2.133a2.7 2.7 0 0 1-.9.782 7 7 0 0 1-.761.396 10 10 0 0 1-.75.279c-.236.075-.472.15-.707.211-.182.054-.375.097-.557.14-.279.064-.569.117-.858.171a8 8 0 0 1-.751.105c-.567.064-1.135.118-1.703.15l-1.008.032c-.663-.043-1.328-.064-1.982-.118a12 12 0 0 1-1.393-.171 18 18 0 0 1-1.532-.332 6 6 0 0 1-.89-.268 6.5 6.5 0 0 1-1.49-.737 2.6 2.6 0 0 1-.737-.718 1.19 1.19 0 0 1 .011-1.383 3 3 0 0 1 .375-.407 2 2 0 0 1 .31-.269 6 6 0 0 1 .708-.421 8 8 0 0 1 .879-.364q.465-.161.932-.29c.21-.064.429-.105.643-.15s.407-.096.611-.128l.643-.097c.139-.01.279-.043.421-.064h.15c.246-.011.482-.033.729-.054a4 4 0 0 1 .503-.043c.439-.021.89-.032 1.329-.032a17 17 0 0 1 2.09.118c.375.042.75.086 1.114.15.514.097 1.03.211 1.533.343a10 10 0 0 1 1.04.332 6.3 6.3 0 0 1 1.178.579 3.4 3.4 0 0 1 .75.643 1.3 1.3 0 0 1 .332.948 1.33 1.33 0 0 1-.262.667m-1.041 6.698H5.068a.6.6 0 0 0-.264.058.51.51 0 0 0-.196.743.54.54 0 0 0 .47.235h6.921v-.01h7.039a.55.55 0 0 0 .43-.421.527.527 0 0 0-.538-.605m2.777-12.768c-.304-.185-.617-.351-.919-.526-.353-.196-.694-.401-1.047-.596-.302-.177-.606-.343-.909-.519l-.968-.557c-.361-.21-.737-.421-1.094-.625a48 48 0 0 0-.929-.539c-.45-.254-.9-.507-1.339-.762-.381-.211-.753-.43-1.125-.645l-.967-.557a.74.74 0 0 0-.392-.137v.039a.66.66 0 0 0-.341.087c-.166.098-.342.196-.509.294-.244.147-.498.284-.753.43-.316.176-.615.352-.928.527s-.616.351-.929.526c-.274.156-.547.323-.821.479-.254.136-.508.273-.752.421-.343.196-.695.401-1.037.597-.274.156-.557.316-.831.469q-.513.305-1.027.596c-.322.176-.632.362-.957.538-.255.147-.5.293-.753.43a.7.7 0 0 0-.362.44.646.646 0 0 0 .724.791 1.8 1.8 0 0 0 .43-.204c.127-.059.224-.137.342-.211.078-.049.166-.079.244-.127.195-.106.391-.225.587-.333.244-.137.478-.273.713-.41q.317-.177.626-.353c.204-.118.431-.244.645-.37s.422-.255.632-.372.422-.245.632-.362c.316-.175.626-.362.939-.538.176-.098.362-.21.538-.302.211-.127.421-.255.632-.372l.737-.411c.235-.137.48-.283.724-.421s.498-.283.753-.43a.15.15 0 0 1 .166 0c.105.069.225.137.332.195.211.128.43.245.645.372s.421.244.632.361.421.245.632.363.44.244.655.37.421.245.632.363.421.244.626.361c.244.137.498.283.742.421.211.128.431.245.646.372s.44.244.655.372c.244.137.479.274.724.41.185.105.361.21.546.316.235.137.48.273.715.41s.44.245.655.372a.66.66 0 0 0 .792.02.63.63 0 0 0 .283-.45.62.62 0 0 0-.287-.613"/></svg>