<?xml version="1.0" encoding="UTF-8"?>
<svg width="33px" height="32px" viewBox="0 0 6.3499998 6.3499998" fill="#44739e" version="1.1" xmlns="http://www.w3.org/2000/svg" xmlns:xlink="http://www.w3.org/1999/xlink">
            <path d="m 1.6648296,4.8603514 c -0.00749,-0.00201 -0.015812,-0.011824 -0.018491,-0.021812 -0.00268,-0.00999 -0.00492,-0.7463435 -0.00498,-1.6363444 l -1.129e-4,-1.6181847 0.018095,-0.016859 c 0.00995,-0.00927 0.024835,-0.016858 0.033073,-0.016858 0.00824,0 0.014978,-0.00372 0.014978,-0.00827 0,-0.00548 0.4740451,-0.00827 1.4055988,-0.00827 0.7942392,0 1.405599,0.00314 1.405599,0.00721 0,0.00397 0.014303,0.0095 0.031784,0.012294 0.021923,0.00351 0.038596,0.013306 0.053743,0.031589 l 0.02196,0.026507 c -0.037528,1.533184 0.00658,2.2891953 2.3e-6,3.0602905 v 0.1421778 l -0.022191,0.023945 -0.022191,0.023945 -1.4516208,0.00114 C 2.3316886,4.8634919 1.6723298,4.8623542 1.6648383,4.8603469 Z M 4.5268556,1.6329752 H 3.1336588 1.7404622 v 1.5709636 1.5709635 h 1.3931966 1.3931966 c 0,0 0,0 2e-7,-3.1419271 z M 1.0630532,5.5614564 c -0.011696,-0.00314 -0.024686,-0.018465 -0.028868,-0.03406 -0.00418,-0.015595 -0.00768,-1.0720787 -0.00778,-2.3477431 -1.628e-4,-2.1412569 0.00147,-2.32103157 0.02119,-2.34075657 0.011751,-0.0117512 0.035365,-0.0266883 0.052475,-0.0331934 0.041511,-0.0157821 4.0205387,-0.0151521 4.0886806,6.4823e-4 0.031491,0.007301 0.064976,0.0276991 0.087133,0.0530755 0.011996,0.0137388 0.02399,0.0274776 0.035986,0.0412164 V 2.0102704 c 0.00557,1.8579048 -0.015684,2.2841745 7e-7,3.2865204 -0.00605,0.1948929 0.00822,0.257484 -0.033788,0.266378 -0.7070051,0.00994 -1.4051727,0.00302 -2.1126148,0.00222 -1.1446307,9.789e-4 -2.0907161,-7.673e-4 -2.102412,-0.00392 z M 5.1698749,0.93587013 H 3.1690497 1.1682241 V 5.4409554 h 2.0008256 2.000826 c -8e-7,-4.50508527 -8e-7,-1.4741221 -8e-7,-4.50508527 z"/>

</svg>