<svg xmlns="http://www.w3.org/2000/svg" viewBox="0 0 24 24"><path fill="#44739e" d="M12.007 15.58a3.57 3.57 0 0 0 3.573-3.573 3.57 3.57 0 0 0-3.573-3.573 3.57 3.57 0 0 0-3.573 3.573 3.58 3.58 0 0 0 3.573 3.573c-.014 0 0 0 0 0m-4.129 0a3.57 3.57 0 0 1-3.573-3.573 3.57 3.57 0 0 1 3.573-3.572zm8.244 3.939v-3.397h3.397a3.4 3.4 0 0 1-3.397 3.397M7.878 4.481v3.397H4.481a3.4 3.4 0 0 1 3.397-3.397m0 15.038v-3.397H4.481a3.4 3.4 0 0 0 3.397 3.397m12.374-4.451V8.932a3.56 3.56 0 0 1 1.244 4.891 3.6 3.6 0 0 1-1.244 1.245M8.932 3.749h6.136a3.56 3.56 0 0 0-4.891-1.245 3.6 3.6 0 0 0-1.245 1.245m6.092 16.502H8.889a3.564 3.564 0 0 0 4.89 1.245 3.5 3.5 0 0 0 1.245-1.245m.556-4.129a3.57 3.57 0 0 1-3.572 3.573 3.57 3.57 0 0 1-3.573-3.573zm.542-.542a3.57 3.57 0 0 0 3.574-3.573 3.57 3.57 0 0 0-3.574-3.572zm-.542-7.702a3.57 3.57 0 0 0-3.572-3.573 3.57 3.57 0 0 0-3.573 3.573zm-11.831 7.19V8.932a3.58 3.58 0 0 0-1.245 4.906c.307.498.732.937 1.245 1.23m15.77-7.19h-3.397V4.495a3.397 3.397 0 0 1 3.397 3.383"/></svg>