<?xml version="1.0" encoding="UTF-8"?>
<!DOCTYPE svg PUBLIC "-//W3C//DTD SVG 1.1//EN" "http://www.w3.org/Graphics/SVG/1.1/DTD/svg11.dtd">
<svg xmlns="http://www.w3.org/2000/svg" xmlns:xlink="http://www.w3.org/1999/xlink" version="1.1" width="24" height="24" viewBox="0 0 24 24">
<style>path{fill:#000}@media (prefers-color-scheme:dark){path{fill:#fff}}</style>
<path d="m8 3.6799v2h3v5.2676a2 2 0 0 0-1 1.7324v1h4v-1a2 2 0 0 0-1-1.7324v-5.2676h3v-2h-6zm-2 9a4 1.5 0 0 0-4 1.5 4 1.5 0 0 0 4 1.5 4 1.5 0 0 0 4-1.5 4 1.5 0 0 0-4-1.5zm12 0a4 1.5 0 0 0-4 1.5 4 1.5 0 0 0 4 1.5 4 1.5 0 0 0 4-1.5 4 1.5 0 0 0-4-1.5zm-8 2v1a2 2 0 0 0 1 1.7324 2 2 0 0 0 2 0 2 2 0 0 0 1-1.7324v-1zm-0.53711 1.8867-1.7324 1 0.5 0.86719 1.7324-1zm5.0742 0-0.5 0.86719 1.7324 1 0.5-0.86719zm-3.0371 1.7539v2h1v-2z"/>
</svg>
