<?xml version="1.0" encoding="UTF-8"?>
<svg width="33px" height="32px" viewBox="0 0 24 24" version="1.1" fill="#44739e" xmlns="http://www.w3.org/2000/svg" xmlns:xlink="http://www.w3.org/1999/xlink">
            <path d="M21.76,9.22c-0.41-0.41-0.9-0.72-1.43-0.97h0.6c0.14,0,0.28-0.06,0.38-0.17l1.22-1.4c0.08-0.09,0.12-0.21,0.12-0.33V4.11 c0-0.28-0.22-0.5-0.5-0.5h-2.97h-1h-4.8h-2.35h-4.8H6.07H1.44c-0.28,0-0.5,0.22-0.5,0.5v2.25c0,0.12,0.04,0.24,0.12,0.33l1.2,1.4 C2.36,8.19,2.5,8.25,2.64,8.25H4C1.86,9.3,0.6,11.67,0.6,13.9c0,3.12,2.11,5.31,5.12,5.31c0.97,0,1.98-0.29,2.91-0.78 c0.79,0.49,1.74,0.78,2.81,0.78c0.97,0,1.98-0.29,2.91-0.78c0.79,0.49,1.74,0.78,2.81,0.78c2.89,0,6.24-2.51,6.24-5.75 C23.4,11.77,22.82,10.27,21.76,9.22z M15.43,8.25c-0.13,0.06-0.26,0.14-0.38,0.21c-0.13-0.08-0.28-0.15-0.42-0.21H15.43z M9.71,8.25 C9.58,8.32,9.46,8.39,9.33,8.47C9.2,8.39,9.05,8.32,8.91,8.25H9.71z M6.46,17.78c-0.29,0.41-0.85,0.44-1.17,0.43 c-0.62-0.03-1.31-0.29-1.93-0.73c-0.62-0.44-1.09-1-1.32-1.58c-0.12-0.29-0.27-0.84,0.02-1.25c0.26-0.36,0.74-0.43,1.06-0.43 c0.04,0,0.08,0,0.11,0c0.62,0.03,1.31,0.29,1.93,0.73C6.35,15.79,6.95,17.09,6.46,17.78z M12.17,17.78c-0.49,0.69-1.91,0.55-3.1-0.3 c-1.19-0.85-1.79-2.15-1.3-2.83c0.26-0.36,0.74-0.43,1.06-0.43c0.04,0,0.08,0,0.11,0c0.62,0.03,1.31,0.29,1.93,0.73 c0.62,0.44,1.09,1,1.32,1.58C12.31,16.82,12.47,17.37,12.17,17.78z M17.89,17.78c-0.49,0.69-1.91,0.55-3.1-0.3 c-0.62-0.44-1.09-1-1.32-1.58c-0.12-0.29-0.27-0.84,0.02-1.25c0.26-0.36,0.74-0.43,1.06-0.43c0.04,0,0.08,0,0.11,0 c0.62,0.03,1.31,0.29,1.93,0.73C17.78,15.79,18.38,17.09,17.89,17.78z"/>
</svg>