<svg xmlns="http://www.w3.org/2000/svg" viewBox="0 0 24 24"><path fill="#44739e" d="M22 12.907c0-1.384-1.625-2.614-4.119-3.37-.447-1.385-2.82-2.382-5.881-2.382s-5.434.997-5.881 2.382C3.625 10.293 2 11.523 2 12.907h.009c0 .026-.009.052-.009.086 0 2.133 4.48 3.852 10 3.852s10-1.728 10-3.852c0-.026-.009-.051-.009-.086ZM12 8.015c2.158 0 3.835.541 4.617 1.195-1.384-.301-2.949-.473-4.617-.473s-3.233.172-4.617.473C8.165 8.556 9.842 8.015 12 8.015m.232 8.117c-4.282 0-7.747-1.411-7.747-3.139 0-1.737 3.474-3.138 7.747-3.138s7.747 1.41 7.747 3.138-3.465 3.139-7.747 3.139"/></svg>