<?xml version="1.0" encoding="UTF-8"?>
<svg width="33px" height="32px" viewBox="0 0 33 32" version="1.1" fill="#44739e" xmlns="http://www.w3.org/2000/svg" xmlns:xlink="http://www.w3.org/1999/xlink">
            <path d="M22.6,2.6H4.7c-0.3,0-0.5,0.2-0.5,0.5v2.2c0,0,0,0.1,0,0.1c0,0,0,0,0,0c0,0.1,0.1,0.2,0.2,0.2c0,0,0,0,0,0 l1.7,1.3C6.2,7,6.3,7,6.4,7h3.2v0.6C9,7.7,8.4,8,8,8.4l-6.4,6.4c-1.3,1.3-1.2,3.7,0.4,5.3c0.9,0.9,2,1.3,3,1.3 c0.9,0,1.7-0.3,2.3-0.9L8.8,19c0.2,0.4,0.5,0.8,0.8,1.1c0.9,0.9,2,1.3,3,1.3c0.9,0,1.7-0.3,2.3-0.9l6.4-6.4c1.3-1.3,1.2-3.7-0.4-5.3 c-0.3-0.3-0.6-0.5-0.9-0.7V7h1.3c0.1,0,0.2,0,0.3-0.1L23,5.7c0,0,0,0,0,0c0,0,0,0,0-0.1c0,0,0-0.1,0.1-0.1c0,0,0,0,0-0.1 c0,0,0-0.1,0-0.1c0,0,0,0,0,0V3.1C23.1,2.8,22.9,2.6,22.6,2.6z M6.6,19.8c-1,1-2.7,0.8-3.9-0.4c-1.2-1.2-1.4-2.9-0.4-3.9 c0.4-0.4,1-0.6,1.6-0.6c0.8,0,1.6,0.3,2.3,1C7.3,17.1,7.5,18.8,6.6,19.8z M14.1,19.8c-1,1-2.7,0.8-3.9-0.4s-1.4-2.9-0.4-3.9 c0.4-0.4,1-0.6,1.6-0.6c0.8,0,1.6,0.3,2.3,1c0.6,0.6,0.9,1.3,1,2.1C14.8,18.7,14.6,19.3,14.1,19.8z M10.6,8.5v-2 c0-0.2,0.2-0.4,0.4-0.4s0.4,0.2,0.4,0.4v2.2L10.6,8.5z M17.1,7.6C16.5,7.7,16,8,15.5,8.4L14,9.9c-0.2-0.4-0.5-0.8-0.8-1.1 c-0.3-0.3-0.6-0.5-0.9-0.7V7h4.8V7.6z M18.9,8.7l-0.7-0.2v-2c0-0.2,0.2-0.4,0.4-0.4c0.2,0,0.4,0.2,0.4,0.4V8.7z M22.1,4.8H6.6H5.2 V3.6h16.9V4.8z"/>

</svg>