<svg xmlns="http://www.w3.org/2000/svg" viewBox="0 0 24 24"><path fill="#44739e" d="M2.675 4.106 7.89 9.312l-5.09 5.09c-1.161 1.161-1.072 3.304.357 4.733.804.804 1.786 1.161 2.679 1.161.804 0 1.518-.268 2.054-.803l1.34-1.34c.178.357.446.714.714.982.804.804 1.786 1.161 2.679 1.161.804 0 1.518-.268 2.054-.803l1.697-1.697 3.358 3.358 1.259-1.26L3.934 2.846Zm4.59 14.761c-.893.893-2.411.715-3.483-.357s-1.25-2.59-.357-3.483c.357-.357.893-.535 1.429-.535.714 0 1.429.267 2.054.893.982 1.071 1.161 2.589.357 3.482m6.698 0c-.893.893-2.411.715-3.483-.357s-1.25-2.59-.357-3.483c.357-.357.893-.535 1.429-.535.714 0 1.428.267 2.053.893.536.535.804 1.161.894 1.875q.133.938-.536 1.607m7.59-15.36H5.916l.894.893h14.297v1.072H7.881l1.965 1.965h.098v.098l.893.893V6.99c0-.179.179-.357.357-.357s.358.178.358.357v1.965l-.251-.063 6.993 6.993 2.107-2.108c1.161-1.161 1.072-3.304-.357-4.733-.268-.268-.536-.446-.803-.625v-.982h1.16c.09 0 .179 0 .268-.09l1.242-1.071v-.09s0-.089.089-.089V3.954c0-.268-.179-.447-.447-.447m-4.911 4.465c-.536.09-.983.358-1.429.715l-1.34 1.339c-.178-.357-.446-.714-.714-.982s-.536-.446-.804-.625v-.982h4.287Zm1.697.983h-.09l-.625-.179V6.99c0-.179.179-.357.357-.357s.358.178.358.357Z"/></svg>