<svg xmlns="http://www.w3.org/2000/svg" viewBox="0 0 24 24"><path fill="#44739e" d="M8 5.478v1.589h3.205v2.694c-.83-.796-1.879-1.37-3.118-1.37-1.418 0-2.83.933-3.754 2.136q.082-.004.167-.005a3.5 3.5 0 0 1 1.41.3c.591-.557 1.374-.931 2.178-.931a3.15 3.15 0 0 1 3.117 2.727q.392-.093.795-.096.404.003.795.096a3.15 3.15 0 0 1 3.118-2.727c.803 0 1.588.375 2.179.932a3.5 3.5 0 0 1 1.409-.3q.084.001.171.007c-.925-1.206-2.339-2.139-3.76-2.139-1.238 0-2.287.576-3.117 1.372V7.067H16V5.478Zm-3.5 6.044a2.5 2.5 0 1 0 0 5 2.5 2.5 0 0 0 0-5m15 0a2.5 2.5 0 1 0 0 5 2.5 2.5 0 0 0 0-5m-7.5 2a2.5 2.5 0 1 0 0 5 2.5 2.5 0 0 0 0-5"/></svg>