<?xml version="1.0" encoding="UTF-8"?>
<svg width="33px" height="32px" viewBox="0 0 33 32" version="1.1" fill="#44739e" xmlns="http://www.w3.org/2000/svg" xmlns:xlink="http://www.w3.org/1999/xlink">
            <path d="M20.6,2.6h-13c-0.3,0-0.5,0.2-0.5,0.5v2.3c0,0.1,0,0.1,0,0.2c0,0,0,0,0,0.1c0,0,0.1,0.1,0.1,0.1c0,0,0,0,0,0 l1.8,1.3c0.1,0.1,0.2,0.1,0.3,0.1h3.4v0.6c-0.7,0.1-1.3,0.4-1.7,0.9l-6.7,6.7c-0.7,0.7-1,1.7-0.9,2.7c0.1,1,0.6,2,1.4,2.8 c0.9,0.9,2.1,1.4,3.2,1.4c0.9,0,1.8-0.3,2.4-0.9l6.7-6.7c1.4-1.4,1.2-3.9-0.4-5.6c-0.3-0.3-0.6-0.5-1-0.8V7.2H19 c0.1,0,0.2,0,0.3-0.1l1.6-1.3c0,0,0,0,0,0c0,0,0.1-0.1,0.1-0.1c0,0,0,0,0,0c0-0.1,0-0.1,0-0.2V3.1C21.1,2.8,20.9,2.6,20.6,2.6z M5.5,20.3c-0.6-0.6-1-1.4-1.1-2.2c-0.1-0.8,0.2-1.5,0.6-1.9c0.4-0.4,1-0.7,1.7-0.7c0.1,0,0.2,0,0.3,0c0.8,0.1,1.6,0.5,2.2,1.1 c1.3,1.3,1.4,3.1,0.4,4.1C8.6,21.7,6.7,21.5,5.5,20.3z M13.8,8.7v-2c0-0.2,0.2-0.4,0.4-0.4s0.4,0.2,0.4,0.4l0,2.3 C14.4,8.9,14.1,8.7,13.8,8.7z M20.1,4.8h-12V3.6h12V4.8z"/>

</svg>