<svg xmlns="http://www.w3.org/2000/svg" viewBox="0 0 24 24"><path fill="#44739e" d="M2.071 10.045a.96.96 0 0 0 .079.878.13.13 0 0 1 .045.125l-.009.031a.116.116 0 0 0 .088.145l7.101 1.665a.19.19 0 0 0 .227-.137l.105-.404.662.176a1.79 1.79 0 0 0 .592 1.53l-.372.576-.352-.228a.19.19 0 0 0-.258.052l-4.133 6.007a.12.12 0 0 0 .034.167l.042.027a.13.13 0 0 1 .052.123c-.027.188.19.48.532.702a.96.96 0 0 0 .858.197.13.13 0 0 1 .134 0l.027.018a.116.116 0 0 0 .168-.043l3.777-6.238a.186.186 0 0 0-.063-.252l-.352-.227.372-.576a1.8 1.8 0 0 0 1.638-.09l.433.531-.325.263a.19.19 0 0 0-.031.263l4.438 5.786a.116.116 0 0 0 .168.02l.039-.033a.13.13 0 0 1 .132-.01c.17.083.516-.032.832-.29s.5-.573.453-.755a.13.13 0 0 1 .038-.128l.024-.021a.116.116 0 0 0 .015-.169l-4.765-5.522a.19.19 0 0 0-.262-.022l-.324.265-.431-.532a2 2 0 0 0 .179-.224 1.8 1.8 0 0 0 .246-1.367l.631-.245.151.389a.19.19 0 0 0 .239.111l6.873-2.432a.116.116 0 0 0 .07-.153l-.018-.049a.13.13 0 0 1 .032-.129.96.96 0 0 0-.019-.881c-.147-.38-.391-.652-.579-.663a.13.13 0 0 1-.11-.076l-.01-.03a.12.12 0 0 0-.157-.066l-6.721 2.826a.19.19 0 0 0-.105.242l.151.391-.639.247a1.74 1.74 0 0 0-1.378-.89l-.038-.685.42-.023a.19.19 0 0 0 .179-.193l-.189-7.288a.116.116 0 0 0-.125-.116h-.051a.13.13 0 0 1-.113-.068c-.089-.169-.436-.278-.842-.255s-.736.168-.81.345a.13.13 0 0 1-.105.082h-.032a.116.116 0 0 0-.11.129l.61 7.264a.19.19 0 0 0 .2.173l.421-.023.035.677a1.8 1.8 0 0 0-1.142.787 2 2 0 0 0-.13.256l-.661-.176.105-.405a.19.19 0 0 0-.129-.229L2.835 9.104a.116.116 0 0 0-.147.082l-.012.049a.13.13 0 0 1-.106.087c-.182.031-.394.329-.499.723m8.828 5.522-.351.542a.305.305 0 0 1-.42.089l-.316-.203a.305.305 0 0 1-.091-.421l.35-.541a.29.29 0 0 1 .323-.106l-.444.686a.185.185 0 0 0 .056.255l.157.105a.186.186 0 0 0 .256-.055l.443-.687a.295.295 0 0 1 .037.336m3.587-.775.406.499a.305.305 0 0 1-.044.427l-.291.237a.305.305 0 0 1-.427-.043l-.407-.501a.29.29 0 0 1 0-.34l.516.632a.186.186 0 0 0 .259.027l.148-.12a.184.184 0 0 0 .025-.259l-.516-.631a.28.28 0 0 1 .33.072m.37-3.652.601-.232a.305.305 0 0 1 .392.173l.137.351a.305.305 0 0 1-.175.392l-.599.232a.29.29 0 0 1-.327-.106l.763-.294a.185.185 0 0 0 .105-.238l-.068-.176a.185.185 0 0 0-.239-.105l-.761.295a.29.29 0 0 1 .171-.292m-3.358-1.48-.035-.644a.305.305 0 0 1 .287-.315l.374-.021a.305.305 0 0 1 .316.286l.035.644a.295.295 0 0 1-.197.276l-.046-.815a.184.184 0 0 0-.193-.173l-.189.01a.184.184 0 0 0-.174.194l.045.815a.284.284 0 0 1-.223-.257M8.68 11.28l.623.165a.29.29 0 0 1 .203.274l-.789-.21a.184.184 0 0 0-.226.131l-.049.182a.184.184 0 0 0 .131.225l.79.21a.29.29 0 0 1-.316.137l-.619-.164a.305.305 0 0 1-.211-.371l.096-.363a.305.305 0 0 1 .368-.216"/></svg>