<svg xmlns="http://www.w3.org/2000/svg" viewBox="0 0 24 24"><path fill="#44739e" d="M22 14.002c0-1.985-3.588-3.189-9.61-3.241V9.366c1.074-.061 2.166-.382 2.166-1.118v-.364c0-.832-1.395-1.127-2.591-1.127s-2.591.295-2.591 1.127v.364c0 .736 1.084 1.048 2.158 1.118v1.395C5.562 10.821 2 12.017 2 14.002c0 .121.009.242.026.355 0 .009 0 .009.009.009.338 1.984 3.449 2.877 9.974 2.877 6.542 0 9.653-.902 9.974-2.895 0-.008.008-.017.008-.026 0-.104.009-.216.009-.32m-10 2.374c-5.633 0-8.683-.693-9.09-2.054.321-.398 2.478-1.343 9.09-1.343 7.27 0 8.856 1.135 9.09 1.335-.398 1.369-3.449 2.062-9.09 2.062"/></svg>