<?xml version="1.0" encoding="UTF-8"?>
<!DOCTYPE svg PUBLIC "-//W3C//DTD SVG 1.1//EN" "http://www.w3.org/Graphics/SVG/1.1/DTD/svg11.dtd">
<svg xmlns="http://www.w3.org/2000/svg" xmlns:xlink="http://www.w3.org/1999/xlink" fill="#44739e" version="1.1" width="24" height="24" viewBox="0 0 24 24">
<path d="m7.6 4.8256v1.7488h3.5256v2.9621c-0.91334-0.87498-2.0664-1.5061-3.4289-1.5061-1.5609 0-3.1141 1.0253-4.1314 2.3504 0.06152-0.0036 0.12313-0.0058 0.18477-0.0064 0.53427 7.56e-4 1.0625 0.11269 1.5512 0.32871 0.64986-0.61129 1.5111-1.0227 2.3955-1.0227 1.7571 0 3.1924 1.3073 3.4289 2.9992 0.28648-0.06838 0.57988-0.10374 0.87441-0.10527 0.29454 0.0015 0.58793 0.03685 0.87441 0.10527 0.23635-1.6919 1.6718-2.9992 3.4289-2.9992 0.88436 0 1.7474 0.41273 2.3977 1.0248 0.48783-0.21646 1.0153-0.32913 1.549-0.33086 0.06309 0.0013 0.12612 0.0042 0.18906 0.0086-1.0173-1.3267-2.5734-2.3525-4.1357-2.3525-1.3626 0-2.5154 0.63312-3.4289 1.5082v-2.9643h3.5256v-1.7488zm-3.85 6.6488c-1.5188 0-2.75 1.2312-2.75 2.75s1.2312 2.75 2.75 2.75 2.75-1.2312 2.75-2.75-1.2312-2.75-2.75-2.75zm16.5 0c-1.5188 0-2.75 1.2312-2.75 2.75s1.2312 2.75 2.75 2.75 2.75-1.2312 2.75-2.75-1.2312-2.75-2.75-2.75zm-8.25 2.2c-1.5188 0-2.75 1.2312-2.75 2.75s1.2312 2.75 2.75 2.75 2.75-1.2312 2.75-2.75-1.2312-2.75-2.75-2.75z"/>
</svg>
