<svg xmlns="http://www.w3.org/2000/svg" viewBox="0 0 24 24"><path fill="#44739e" d="M7.603 13.514c0 1.293 2.242 1.983 4.397 1.983s4.397-.69 4.397-1.983c0-2.672-8.794-2.672-8.794 0m1.294-6.698C4.845 7.333 2 9.057 2 11.04v1.983c.086 2.5 4.483 4.31 10 4.31s9.914-1.81 10-4.138v-1.982c0-2.069-2.759-3.707-6.897-4.225-2.844-.603-6.206-.172-6.206-.172M12 16.471c-5.431 0-9.138-1.81-9.138-3.362l.086-.345c.518-1.379 4.311-2.758 9.052-2.758s8.534 1.379 9.052 2.758l.086.345c0 1.552-3.707 3.362-9.138 3.362"/></svg>