<svg xmlns="http://www.w3.org/2000/svg" viewBox="0 0 24 24"><path fill="#44739e" d="M18.901 2.144A.46.46 0 0 0 18.556 2h-13.1a.475.475 0 0 0-.48.479v1.179a.4.4 0 0 0 .029.153l1.351 3.92a.485.485 0 0 0 .451.326h2.127v3.632l-3.258 3.382c-1.064 1.064-.489 3.297 1.303 5.089a9 9 0 0 0 .451.422C8.503 21.502 9.682 22 10.64 22c.565 0 1.064-.172 1.418-.537l5.491-5.711c.087-.086.154-.201.221-.307.029-.057.076-.096.105-.153.249-.518.278-1.188.048-1.946-.268-.91-.872-1.859-1.687-2.683a8 8 0 0 0-.632-.565l-.23-.173a12 12 0 0 0-.422-.297l-.287-.172a4 4 0 0 0-.355-.182 2.4 2.4 0 0 0-.335-.144 5 5 0 0 0-.268-.096c-.135-.038-.259-.086-.384-.115-.019 0-.038-.009-.057-.009-.527-.115-1.007-.096-1.428.047-.019.01-.039.01-.048.01v-.91l3.114.747 1.208-.747h1.15a.48.48 0 0 0 .46-.336l1.236-3.948a.5.5 0 0 0 .019-.125l.039-1.15a.37.37 0 0 0-.115-.354m-7.504 18.649c-.575.575-2.252.182-3.737-1.304-1.476-1.485-1.869-3.162-1.304-3.737.278-.278.815-.336 1.457-.144.757.221 1.562.738 2.271 1.447 1.495 1.486 1.888 3.163 1.313 3.738"/></svg>