<?xml version="1.0" encoding="UTF-8"?>
<!DOCTYPE svg PUBLIC "-//W3C//DTD SVG 1.1//EN" "http://www.w3.org/Graphics/SVG/1.1/DTD/svg11.dtd">
<svg xmlns="http://www.w3.org/2000/svg" xmlns:xlink="http://www.w3.org/1999/xlink" version="1.1" width="24" height="24" viewBox="0 0 24 24">
<style>path{fill:#000}@media (prefers-color-scheme:dark){path{fill:#fff}}</style>
<path d="m8 4.9996v2h3v5.2676c-0.61892 0.35733-1.0001 1.0178-1 1.7324v1h4v-1c1.33e-4 -0.71466-0.38108-1.3751-1-1.7324v-5.2676h3v-2h-6zm-2 9c-2.2091 0-4 0.67157-4 1.5 0 0.82843 1.7909 1.5 4 1.5s4-0.67157 4-1.5c0-0.82843-1.7909-1.5-4-1.5zm12 0c-2.2091 0-4 0.67157-4 1.5 0 0.82843 1.7909 1.5 4 1.5s4-0.67157 4-1.5c0-0.82843-1.7909-1.5-4-1.5zm-8 2v1c-1.326e-4 0.71466 0.38108 1.3751 1 1.7324 0.6188 0.35726 1.3812 0.35726 2 0 0.61892-0.35733 1.0001-1.0178 1-1.7324v-1z"/>
</svg>
