<?xml version="1.0" encoding="UTF-8"?>
<!DOCTYPE svg PUBLIC "-//W3C//DTD SVG 1.1//EN" "http://www.w3.org/Graphics/SVG/1.1/DTD/svg11.dtd">
<svg xmlns="http://www.w3.org/2000/svg" xmlns:xlink="http://www.w3.org/1999/xlink" version="1.1"  width="24" height="24" viewBox="0 0 24 24">
<style>path{fill:#000}@media (prefers-color-scheme:dark){path{fill:#fff}}</style>
<path d="m9 2.5v1a3 1.5 0 0 0 1.5 1.2988 3 1.5 0 0 0 0.5 0.11328v3.8242a11 7.15 0 0 1 1 -0.037109 11 7.15 0 0 1 1 0.033203v-3.8203a3 1.5 0 0 0 0.5 -0.11328 3 1.5 0 0 0 1.5 -1.2988v-1h-6zm3 7.1992a10 6.15 0 0 0 -10 6.1504 10 6.15 0 0 0 10 6.1504 10 6.15 0 0 0 10 -6.1504 10 6.15 0 0 0 -10 -6.1504z"/>
</svg>
