<svg xmlns="http://www.w3.org/2000/svg" viewBox="0 0 24 24"><path fill="#44739e" d="M21.352 13.667c-.093-.093-.278-.186-.648-.463-1.111-.834-3.426-2.5-3.797-2.685-.185-.093-.277-.186-.463-.278-.092 0-.185 0-.277-.093h-.463v-.092c1.574 0 3.055-.649 3.055-1.482V6.722c0-.463-.463-.833-1.111-1.111-.555-.185-1.204-.37-1.944-.37H8.019c-.371 0-.741 0-1.112.092-.926.278-1.574.741-1.574 1.389v1.852c0 .833 1.111 1.482 2.686 1.482h.37v.092h-.556c-.092 0-.185 0-.277.093-.186.092-.371.092-.463.278-.371.185-2.686 1.851-3.797 2.685-.37.277-.555.37-.555.37-.463.37-.741.926-.741 1.574s.185 1.389.648 1.945c.463.648 1.019 1.111 1.574 1.296.185.278.463.37.741.37.37 0 .648-.092.926-.278h.092s3.982-2.777 4.445-3.148c1.018-.648 1.111-2.314.185-3.611q-.417-.694-1.111-1.111v-.463h4.907v.463c-.37.278-.74.556-1.111 1.019-.926 1.389-.833 2.963.185 3.611.463.278 4.445 3.148 4.445 3.148h.093c.277.185.555.278.925.278q.417 0 .834-.278c.555-.185 1.111-.648 1.574-1.296.463-.556.648-1.297.648-1.945s-.185-1.111-.648-1.481M5.981 17.37l-.555.371c-.556.37-1.574-.093-2.13-.926-.277-.463-.463-1.019-.463-1.482 0-.277.093-.648.371-.926l.555-.37c.185-.093.278-.093.463-.093s.371.093.463.093c.463.185.834.556 1.204 1.019.648.833.648 1.944.092 2.314m8.426-8.333v.093H9.5c0-.093-.37-.371-1.204-.093v.093h-.277c-1.112 0-1.76-.463-1.76-.556s.556-.555 1.76-.555h7.87c1.111 0 1.759.462 1.759.555s-.555.556-1.759.556h-.278v-.093c-.833-.278-1.204 0-1.204 0m6.204 7.685c-.648.926-1.574 1.297-2.13.926l-.555-.37c-.556-.371-.463-1.482.093-2.315a2.56 2.56 0 0 1 1.203-1.019c.093-.092.278-.092.463-.092s.278 0 .463.092l.556.371c.37.185.37.648.37.926.093.463-.093 1.018-.463 1.481"/></svg>