<svg xmlns="http://www.w3.org/2000/svg" viewBox="0 0 24 24"><path fill="#44739e" d="M20.561 10.079c-.359-.36-.789-.632-1.254-.851h.526a.46.46 0 0 0 .334-.149l1.07-1.228a.44.44 0 0 0 .105-.29V5.596a.434.434 0 0 0-.438-.438H2.737a.434.434 0 0 0-.439.438V7.57c0 .105.035.211.106.29l1.052 1.228c.088.087.211.14.333.14h1.193c-1.877.921-2.982 3-2.982 4.956 0 2.737 1.851 4.658 4.491 4.658.851 0 1.737-.254 2.553-.684.693.43 1.526.684 2.465.684.851 0 1.737-.254 2.552-.684a4.63 4.63 0 0 0 2.465.684c2.535 0 5.474-2.202 5.474-5.044 0-1.482-.509-2.798-1.439-3.719m-5.552-.851c-.114.053-.228.123-.334.184a3 3 0 0 0-.368-.184Zm-5.018 0a6 6 0 0 0-.333.193c-.114-.07-.246-.132-.369-.193Zm-2.851 8.36c-.254.359-.745.386-1.026.377-.544-.026-1.149-.254-1.693-.64s-.956-.878-1.158-1.386c-.105-.255-.237-.737.018-1.097.228-.316.649-.377.93-.377h.096c.544.026 1.149.254 1.693.64 1.044.737 1.57 1.877 1.14 2.483m5.009 0c-.43.605-1.675.482-2.719-.263s-1.57-1.886-1.141-2.483c.229-.316.65-.377.93-.377h.097c.544.026 1.149.254 1.693.64s.956.877 1.158 1.386c.105.255.245.737-.018 1.097m5.018 0c-.43.605-1.676.482-2.72-.263-.543-.386-.956-.878-1.158-1.386-.105-.255-.236-.737.018-1.097.228-.316.649-.377.93-.377h.096c.544.026 1.149.254 1.693.64 1.044.737 1.57 1.877 1.141 2.483"/></svg>