<?xml version="1.0" encoding="UTF-8"?>
<svg width="33px" height="32px" viewBox="0 0 33 32" version="1.1" xmlns="http://www.w3.org/2000/svg" xmlns:xlink="http://www.w3.org/1999/xlink">
    <!-- Generator: Sketch 51.3 (57544) - http://www.bohemiancoding.com/sketch -->
    <style>path{fill:#000}@media (prefers-color-scheme:dark){path{fill:#fff}}</style>
            <path d="M20.8,5.8H4.2c-1.5,0-2.7,0.6-2.7,1.5v1.8h0.1c0.2,0.9,1.3,1.5,2.6,1.5h2.5l0,0.1c-0.5-0.1-0.9,0-1.3,0.3 C4.9,11.3,1,14.1,1,14.1c0,0,0,0,0,0c-0.5,0.3-0.8,0.9-0.8,1.6c0,0.7,0.2,1.4,0.6,2c0.6,1,1.6,1.5,2.4,1.5c0.4,0,0.7-0.1,1-0.3 c0,0,0,0,0,0c0,0,0,0,0,0l0.4-0.3c0,0,0.1,0,0.1-0.1c0,0,0.1-0.1,0.1-0.1l0.7-0.5c0.6,0.8,1.5,1.3,2.2,1.3c0.4,0,0.7-0.1,1-0.3 c0,0,0,0,0,0c0,0,0,0,0,0l0.4-0.3c0,0,0.1,0,0.1-0.1c0,0,0.1-0.1,0.1-0.1l0.7-0.5c0.4,0.5,0.9,0.9,1.4,1.1c0.3,0.1,0.6,0.2,0.8,0.2 c0.4,0,0.7-0.1,1-0.3c0,0,0,0,0,0c0,0,0,0,0,0l0.4-0.3c0,0,0.1,0,0.1-0.1c0,0,0.1-0.1,0.1-0.1l0.7-0.5c0.6,0.8,1.5,1.3,2.2,1.3 c0.4,0,0.7-0.1,1-0.3c0,0,0,0,0,0c0,0,0,0,0,0c0,0,0.2-0.1,0.4-0.3c0,0,0.1,0,0.1-0.1c0,0,0.1-0.1,0.1-0.1c1.1-0.8,3.4-2.4,3.8-2.6 c1-0.7,1.1-2.3,0.2-3.6c-0.3-0.4-0.6-0.7-1-1l0-0.7c0.9-0.2,1.6-0.7,1.8-1.4h0.1V7.3C23.4,6.4,22.3,5.8,20.8,5.8z M5.6,14.1 C5.5,14.1,5.5,14.1,5.6,14.1c-0.3,0.2-0.5,0.5-0.6,0.8c-0.4-0.6-1-1.1-1.6-1.3c1.1-0.8,2.3-1.6,2.6-1.8c0.3-0.2,0.7-0.1,0.9,0 c0.3,0.1,0.7,0.4,0.9,0.7C6.7,13.3,5.6,14.1,5.6,14.1z M7.8,10.6h3.4l0,0.1c-0.5-0.1-0.9,0-1.3,0.3c-0.2,0.1-0.7,0.5-1.4,0.9 c-0.2-0.3-0.5-0.5-0.8-0.7L7.8,10.6z M12.3,12.5c-1.1,0.8-2.2,1.5-2.2,1.5c0,0,0,0,0,0c-0.3,0.2-0.5,0.5-0.6,0.8 c-0.4-0.6-1-1.1-1.6-1.3L8.8,13c0,0,0,0,0,0c0.8-0.6,1.6-1.1,1.8-1.2c0.3-0.2,0.7-0.1,0.9,0C11.8,11.9,12.1,12.2,12.3,12.5 L12.3,12.5z M12.4,10.6h3.4l0,0.1c-0.5-0.1-0.9,0-1.3,0.3c-0.2,0.1-0.7,0.5-1.4,0.9c-0.2-0.3-0.5-0.5-0.8-0.7L12.4,10.6z M16.7,12.7 c-1,0.7-1.9,1.4-2,1.4c0,0,0,0,0,0c0,0,0,0,0,0c0,0,0,0,0,0c0,0,0,0,0,0c-0.3,0.2-0.5,0.5-0.6,0.8c-0.4-0.6-1-1.1-1.6-1.3l0.7-0.5 c0.9-0.6,1.7-1.2,1.9-1.3c0.3-0.2,0.7-0.1,0.9,0c0.3,0.1,0.7,0.4,0.9,0.7L16.7,12.7z M17,10.6h3.4l0,0.1c-0.5-0.1-0.9,0-1.3,0.3 c-0.2,0.1-0.7,0.5-1.4,0.9c-0.2-0.3-0.5-0.5-0.8-0.7L17,10.6z M21.7,12.8C21.7,12.8,21.7,12.8,21.7,12.8c0.6,0.9,0.6,1.9,0.1,2.2 c-0.2,0.2-1.4,1-2.5,1.8c0-0.6-0.2-1.3-0.6-1.8c-0.4-0.6-1-1.1-1.6-1.3l0.8-0.6c0,0,0,0,0,0c0.8-0.6,1.6-1.1,1.8-1.2 c0.3-0.2,0.7-0.1,0.9,0C21,12,21.4,12.3,21.7,12.8z M21.5,9.5l0-0.8c0,0-0.4-0.4-1.2-0.1l0.1,1H17l0-0.9c0,0-0.4-0.4-1.2-0.1l0.1,1 h-3.4l0-0.9c0,0-0.4-0.4-1.2-0.1l0.1,1H7.8l0-0.9c0,0-0.4-0.4-1.2-0.1l0.1,1H4.2c-1,0-1.7-0.5-1.7-0.9s0.7-0.9,1.7-0.9h16.6 c1,0,1.7,0.5,1.7,0.9C22.4,9,22.1,9.3,21.5,9.5z"/>

</svg>