<?xml version="1.0" encoding="UTF-8"?>
<svg width="24px" fill="#44739e" height="24px" viewBox="0 0 24 24" version="1.1" xmlns="http://www.w3.org/2000/svg" xmlns:xlink="http://www.w3.org/1999/xlink">
            <path d="M23.42,10.55c0-2.34-7.47-2.96-11.41-2.96S0.58,8.21,0.58,10.55l0.04,2.24c-0.04,1.98,7.54,2.76,11.37,2.76 c3.86,0,11.06-0.6,11.38-2.81L23.42,10.55z M11.99,14.55c-6.74,0-10.41-1.3-10.41-1.96c0-0.52,2.22-1.41,6.35-1.78 c1.74-0.09,3.63-0.13,5.51-0.15c5.82,0.17,8.97,1.32,8.97,1.94C22.42,13.26,18.74,14.55,11.99,14.55z M18.6,12.73c0,0.66-2.93,0.94-6.54,0.94s-6.54-0.38-6.54-0.94s2.93-0.92,6.54-0.92S18.6,12.18,18.6,12.73z"/>

</svg>