<?xml version="1.0" encoding="UTF-8"?>
<svg width="24px" fill="#44739e" height="24px" viewBox="0 0 24 24" version="1.1" xmlns="http://www.w3.org/2000/svg" xmlns:xlink="http://www.w3.org/1999/xlink">
            <path d="M6.9,13.67c0,1.5,2.6,2.3,5.1,2.3s5.1-0.8,5.1-2.3C17.1,10.57,6.9,10.57,6.9,13.67z M8.4,5.9 c-4.7,0.6-8,2.6-8,4.9v2.3l0,0l0,0l0,0c0.1,2.9,5.2,5,11.6,5s11.5-2.1,11.6-4.8l0,0l0,0l0,0V11c0-2.4-3.2-4.3-8-4.9 C12.3,5.4,8.4,5.9,8.4,5.9z M12,17.1c-6.3,0-10.6-2.1-10.6-3.9l0.1-0.4c0.6-1.6,5-3.2,10.5-3.2s9.9,1.6,10.5,3.2l0.1,0.4 C22.6,15,18.3,17.1,12,17.1z"/>

</svg>