<?xml version="1.0" encoding="UTF-8"?>
<svg width="24px" fill="#44739e" height="24px" viewBox="0 0 24 24" version="1.1" xmlns="http://www.w3.org/2000/svg" xmlns:xlink="http://www.w3.org/1999/xlink">
            <path d="M22.46,1.84c-0.09-0.1-0.22-0.15-0.36-0.15h-6.27H8.42H2.15c-0.28,0-0.5,0.22-0.5,0.5v1.23c0,0.06,0.01,0.11,0.03,0.16 l1.41,4.09c0.07,0.2,0.26,0.34,0.47,0.34h2.22v3.79l-3.4,3.53c-1.11,1.11-0.51,3.44,1.36,5.31c0.15,0.15,0.31,0.3,0.47,0.44 c1.12,0.96,2.35,1.48,3.35,1.48c0.59,0,1.11-0.18,1.48-0.56l1.14-1.2c0.1,0.1,0.2,0.19,0.3,0.28c1.12,0.96,2.35,1.48,3.35,1.48 c0.59,0,1.11-0.18,1.48-0.56l5.73-5.96c0.09-0.09,0.16-0.21,0.23-0.32c0.03-0.06,0.08-0.1,0.11-0.16c0.26-0.54,0.29-1.24,0.05-2.03 c-0.28-0.95-0.91-1.94-1.76-2.8c-0.22-0.22-0.44-0.41-0.66-0.59c-0.08-0.06-0.16-0.12-0.24-0.18c-0.15-0.11-0.29-0.21-0.44-0.31 c-0.1-0.06-0.2-0.12-0.3-0.18c-0.12-0.07-0.24-0.13-0.37-0.19c-0.12-0.06-0.23-0.11-0.35-0.15c-0.1-0.04-0.19-0.07-0.28-0.1 c-0.14-0.04-0.27-0.09-0.4-0.12c-0.02,0-0.04-0.01-0.06-0.01c-0.55-0.12-1.05-0.1-1.49,0.05c-0.02,0.01-0.04,0.01-0.05,0.01V8.01 l3.25,0.78l1.26-0.78h1.2c0.22,0,0.41-0.14,0.48-0.35l1.29-4.12c0.01-0.04,0.02-0.09,0.02-0.13l0.04-1.2 C22.6,2.07,22.55,1.94,22.46,1.84z M12.05,9.64c-0.09-0.06-0.19-0.11-0.28-0.17c-0.12-0.07-0.24-0.13-0.37-0.19 c-0.12-0.06-0.23-0.11-0.35-0.15c-0.1-0.04-0.19-0.07-0.28-0.1c-0.14-0.04-0.27-0.09-0.4-0.12c-0.02,0-0.04-0.01-0.06-0.01 C9.76,8.78,9.26,8.8,8.82,8.95c0.01,0.02-0.01,0.02-0.03,0.02V8.01l3.25,0.78l0.01-0.01V9.64z M8.36,21.3 c-0.6,0.6-2.35,0.19-3.9-1.36c-1.55-1.55-1.96-3.3-1.36-3.9c0.29-0.29,0.85-0.35,1.52-0.15c0.8,0.24,1.64,0.78,2.38,1.51 C8.55,18.95,8.96,20.7,8.36,21.3z M14.63,21.3c-0.6,0.6-2.35,0.19-3.9-1.36c-1.55-1.55-1.96-3.3-1.36-3.9 c0.29-0.29,0.85-0.35,1.52-0.15c0.79,0.23,1.63,0.77,2.37,1.51C14.81,18.95,15.23,20.7,14.63,21.3z"/>

</svg>