<svg xmlns="http://www.w3.org/2000/svg" viewBox="0 0 24 24"><path fill="#44739e" d="M20.713 2H7.29a.59.59 0 0 0-.548.548v2.74l1.918 1.37h3.835v.547a2.34 2.34 0 0 0-1.644.822L4.005 15.15a3.52 3.52 0 0 0-1.1 2.739 3.37 3.37 0 0 0 1.369 2.74 5.06 5.06 0 0 0 3.29 1.37 3.82 3.82 0 0 0 2.465-.822l6.85-6.849a4.244 4.244 0 0 0-.275-5.753c-.274-.274-.548-.274-.822-.822V6.658h3.562l1.642-1.37v-2.74c.274-.274 0-.548-.274-.548M5.098 20.081a5.5 5.5 0 0 1-1.093-2.192 3.2 3.2 0 0 1 .547-1.917c.548-.274 1.1-.822 1.644-.822h.274a3.38 3.38 0 0 1 2.192 1.1 3.21 3.21 0 0 1 .822 4.383c-.822 1.1-3.014.822-4.384-.548M13.591 8.3V6.11a.59.59 0 0 1 .548-.548c.274 0 .274.274.274.548v2.465a1.2 1.2 0 0 0-.822-.274m6.575-4.109H7.838V3.1h12.328Z"/></svg>