<?xml version="1.0" encoding="UTF-8"?>
<svg width="24px" fill="#44739e" height="24px" viewBox="0 0 24 24" version="1.1" xmlns="http://www.w3.org/2000/svg" xmlns:xlink="http://www.w3.org/1999/xlink">
            <path d="m 2.4401544,9.8789406 a 0.91,0.91 0 0 0 0.074,0.8340004 0.116,0.116 0 0 1 0.043,0.119 l -0.008,0.03 a 0.112,0.112 0 0 0 0.083,0.138 l 6.751,1.582 a 0.18,0.18 0 0 0 0.215,-0.129 l 0.1,-0.385 0.6299996,0.167 a 1.707,1.707 0 0 0 0.562,1.455 l -0.353,0.547 -0.335,-0.216 a 0.18,0.18 0 0 0 -0.2449996,0.049 l -3.929,5.711 a 0.113,0.113 0 0 0 0.032,0.158 l 0.04,0.026 a 0.116,0.116 0 0 1 0.049,0.117 c -0.025,0.178 0.18,0.456 0.506,0.667 a 0.91,0.91 0 0 0 0.816,0.187 0.117,0.117 0 0 1 0.127,0 l 0.026,0.017 a 0.111,0.111 0 0 0 0.159,-0.04 l 3.5899996,-5.929 a 0.177,0.177 0 0 0 -0.059,-0.241 l -0.334,-0.216 0.353,-0.547 a 1.71,1.71 0 0 0 1.557,-0.086 l 0.412,0.505 -0.309,0.251 a 0.181,0.181 0 0 0 -0.029,0.249 l 4.218001,5.5 a 0.111,0.111 0 0 0 0.159,0.019 l 0.038,-0.031 a 0.117,0.117 0 0 1 0.126,-0.01 c 0.161,0.079 0.49,-0.03 0.791,-0.275 0.301,-0.245 0.475,-0.545 0.43,-0.718 a 0.116,0.116 0 0 1 0.036,-0.122 l 0.023,-0.02 a 0.111,0.111 0 0 0 0.014,-0.16 l -4.529001,-5.249 a 0.18,0.18 0 0 0 -0.249,-0.022 l -0.308,0.252 -0.411,-0.505 a 1.689,1.689 0 0 0 0.17,-0.213 1.711,1.711 0 0 0 0.235,-1.3 l 0.6,-0.233 0.143,0.371 a 0.18,0.18 0 0 0 0.228,0.105 l 6.533001,-2.3120004 a 0.112,0.112 0 0 0 0.067,-0.146 l -0.017,-0.046 a 0.116,0.116 0 0 1 0.029,-0.123 0.91,0.91 0 0 0 -0.017,-0.837 c -0.14,-0.362 -0.372,-0.62 -0.55,-0.631 a 0.115,0.115 0 0 1 -0.105,-0.072 l -0.011,-0.028 a 0.113,0.113 0 0 0 -0.148,-0.063 l -6.389001,2.6860004 a 0.179,0.179 0 0 0 -0.1,0.23 l 0.144,0.372 -0.608,0.235 a 1.654,1.654 0 0 0 -1.31,-0.846 l -0.036,-0.651 0.4,-0.022 a 0.179,0.179 0 0 0 0.169,-0.1840004 l -0.18,-6.928 a 0.112,0.112 0 0 0 -0.118,-0.109 h -0.048 a 0.117,0.117 0 0 1 -0.108,-0.066 c -0.084,-0.159 -0.414,-0.264 -0.8,-0.242 -0.386,0.022 -0.7,0.161 -0.77,0.328 a 0.118,0.118 0 0 1 -0.1,0.078 h -0.03 a 0.112,0.112 0 0 0 -0.105,0.122 l 0.58,6.906 a 0.18,0.18 0 0 0 0.189,0.1640004 l 0.4,-0.022 0.035,0.644 a 1.719,1.719 0 0 0 -1.086,0.748 1.854,1.854 0 0 0 -0.124,0.243 l -0.6279996,-0.167 0.1,-0.385 a 0.18,0.18 0 0 0 -0.123,-0.218 l -6.647,-1.9620004 a 0.112,0.112 0 0 0 -0.14,0.078 l -0.012,0.047 a 0.115,0.115 0 0 1 -0.1,0.082 c -0.173,0.031 -0.375,0.313 -0.474,0.688 z m 8.3909996,5.2490004 -0.333,0.515 a 0.289,0.289 0 0 1 -0.4,0.085 l -0.2999996,-0.193 a 0.289,0.289 0 0 1 -0.086,-0.4 l 0.3319996,-0.515 a 0.275,0.275 0 0 1 0.307,-0.1 l -0.4219996,0.652 a 0.176,0.176 0 0 0 0.053,0.242 l 0.1499996,0.1 a 0.177,0.177 0 0 0 0.243,-0.052 l 0.421,-0.653 a 0.277,0.277 0 0 1 0.035,0.319 z m 3.409,-0.737 0.387,0.475 a 0.29,0.29 0 0 1 -0.042,0.406 l -0.276,0.225 a 0.29,0.29 0 0 1 -0.406,-0.041 l -0.387,-0.476 a 0.275,0.275 0 0 1 0,-0.323 l 0.49,0.6 a 0.177,0.177 0 0 0 0.247,0.026 l 0.139,-0.114 a 0.175,0.175 0 0 0 0.025,-0.246 l -0.49,-0.6 a 0.274,0.274 0 0 1 0.313,0.068 z m 0.353,-3.471 0.571,-0.221 a 0.289,0.289 0 0 1 0.373,0.165 l 0.129,0.333 a 0.289,0.289 0 0 1 -0.165,0.373 l -0.571,0.221 a 0.275,0.275 0 0 1 -0.309,-0.1 l 0.725,-0.28 a 0.176,0.176 0 0 0 0.1,-0.227 l -0.065,-0.167 a 0.176,0.176 0 0 0 -0.227,-0.1 l -0.724,0.28 a 0.275,0.275 0 0 1 0.163,-0.277 z m -3.192,-1.4070004 -0.033,-0.612 a 0.289,0.289 0 0 1 0.272,-0.3 l 0.356,-0.02 a 0.29,0.29 0 0 1 0.3,0.272 l 0.034,0.612 a 0.276,0.276 0 0 1 -0.188,0.263 l -0.043,-0.775 a 0.175,0.175 0 0 0 -0.184,-0.165 l -0.18,0.01 a 0.175,0.175 0 0 0 -0.165,0.184 l 0.043,0.775 a 0.274,0.274 0 0 1 -0.212,-0.244 z m -2.6779996,1.5400004 0.592,0.157 a 0.275,0.275 0 0 1 0.193,0.26 l -0.751,-0.2 a 0.175,0.175 0 0 0 -0.214,0.125 l -0.046,0.173 a 0.175,0.175 0 0 0 0.124,0.214 l 0.751,0.2 a 0.275,0.275 0 0 1 -0.3,0.131 l -0.589,-0.157 a 0.289,0.289 0 0 1 -0.2,-0.353 l 0.091,-0.345 a 0.291,0.291 0 0 1 0.349,-0.205 z"/>

</svg>