<?xml version="1.0" encoding="UTF-8"?>
<svg width="24px" height="24px" viewBox="0 0 24 24" version="1.1" fill="#44739e" xmlns="http://www.w3.org/2000/svg" xmlns:xlink="http://www.w3.org/1999/xlink">
            <path d="M 20.71,2 H 7.286 A 0.589,0.589 0 0 0 6.738,2.548 v 2.74 0 l 1.918,1.37 h 3.835 V 7.205 A 2.342,2.342 0 0 0 10.847,8.027 L 4,15.151 A 3.517,3.517 0 0 0 2.9,17.89 3.372,3.372 0 0 0 4.27,20.63 5.055,5.055 0 0 0 7.56,22 3.82,3.82 0 0 0 10.025,21.178 l 6.85,-6.849 A 4.244,4.244 0 0 0 16.6,8.575 C 16.326,8.301 16.052,8.301 15.778,7.753 V 6.658 h 3.562 l 1.643,-1.37 v 0 -2.74 C 21.257,2.274 20.983,2 20.709,2 M 5.094,20.082 A 5.508,5.508 0 0 1 4,17.89 3.19,3.19 0 0 1 4.548,15.973 c 0.548,-0.274 1.1,-0.822 1.644,-0.822 h 0.274 a 3.383,3.383 0 0 1 2.192,1.1 3.21,3.21 0 0 1 0.822,4.383 c -0.822,1.1 -3.014,0.822 -4.384,-0.548 M 13.587,8.3 V 6.11 a 0.589,0.589 0 0 1 0.548,-0.548 c 0.274,0 0.274,0.274 0.274,0.548 V 8.575 A 1.2,1.2 0 0 0 13.587,8.301 M 20.162,4.192 H 7.834 V 3.1 h 12.328 z"/>

</svg>