<?xml version="1.0" encoding="UTF-8"?>
<svg width="33px" height="32px" viewBox="0 0 33 32" version="1.1" fill="#44739e" xmlns="http://www.w3.org/2000/svg" xmlns:xlink="http://www.w3.org/1999/xlink">
            <path d="M23.24512,13.23224a.11392.11392,0,0,0-.02344-.03711l-.01563-.01563c-.01074-.01464-.02148-.02734-.03027-.0371a.904.904,0,0,0-.083-.08692l-1.59668-1.72119H22.377a.1245.1245,0,0,0,.10938-.06445l.49023-.88379a.12373.12373,0,0,0,.01563-.06446l-.15137-5.10351a.12511.12511,0,0,0-.125-.1211H.67676a.12524.12524,0,0,0-.125.125v4.81983a.1302.1302,0,0,0,.00976.04883l.52735,1.24267a.1253.1253,0,0,0,.11474.07617l9.958.0376.00049,3.83008c.00488.66211.94922,1.18066,2.14941,1.18066,1.14063,0,2.07325-.48535,2.14356-1.10937a.1313.1313,0,0,0,.00488-.03418V11.33673l1.45117.03027a1.4705,1.4705,0,0,0-.1123,1.12647.14871.14871,0,0,0,.02344.04s2.27246,2.63623,2.92285,3.38623a1.17056,1.17056,0,0,0,.07715.10254,1.24888,1.24888,0,0,0,.98437.40625,2.67668,2.67668,0,0,0,1.68164-.69434A2.03718,2.03718,0,0,0,23.24512,13.23224ZM10.51758,10.889H1.605l-.32715-.82813h9.32324Zm2.79394,4.8706c-.96338,0-1.44482-.39062-1.45117-.4873.00537-.09668.48535-.48828,1.45117-.48828.96485,0,1.44434.3916,1.4502.48828C14.75586,15.369,14.27344,15.75958,13.31152,15.75958ZM22.707,14.21466a2.136,2.136,0,0,1-.67383.98926,2.01042,2.01042,0,0,1-1.22656.52637.59742.59742,0,0,1-.45508-.16309A.70157.70157,0,0,1,20.29,14.949a2.13364,2.13364,0,0,1,.67383-.99024,2.00877,2.00877,0,0,1,1.22656-.52539.60025.60025,0,0,1,.45508.16211A.70364.70364,0,0,1,22.707,14.21466Z"></path>

</svg>