<?xml version="1.0" encoding="UTF-8"?>
<svg width="33px" height="32px" viewBox="0 0 33 32" version="1.1" fill="#44739e" xmlns="http://www.w3.org/2000/svg" xmlns:xlink="http://www.w3.org/1999/xlink">
            <path d="M12.1,8.9c-3.8,0-6.7,1.8-6.7,4s2.9,4,6.7,4c3.8,0,6.7-1.8,6.7-4S15.9,8.9,12.1,8.9z M16.7,14.7 c-0.2,0.5-0.9,0.7-1.8,0.8c-1,0-2.2-0.3-3.4-0.9c-1.2-0.6-2.1-1.3-2.7-2.2c-0.5-0.7-0.7-1.4-0.4-1.9c0.2-0.5,0.9-0.7,1.8-0.8 c0,0,0.1,0,0.1,0c1,0,1.9,0.3,3,0.9c1.2,0.6,2.3,1.3,2.9,2.2C16.8,13.6,17,14.3,16.7,14.7z M18.9,6.8c-1.9-1.1-4.3-1.8-6.8-1.8S7.3,5.7,5.4,6.8C3.5,8,2.5,9.5,2.5,11.1v1.4c0,1.8,1,3.4,2.9,4.6 c1.8,1.2,4.2,1.8,6.8,1.8s5-0.6,6.8-1.8c1.9-1.2,2.9-2.8,2.9-4.6v-1.4C21.9,9.5,20.8,8,18.9,6.8z M12.2,17.9 c-4.8,0-8.7-2.4-8.7-5.4c0-3,3.9-5.4,8.7-5.4c4.8,0,8.7,2.4,8.7,5.4C20.8,15.5,17,17.9,12.2,17.9z"/>

</svg>