<svg xmlns="http://www.w3.org/2000/svg" viewBox="0 0 24 24"><path fill="#44739e" d="M7.778 10.222c-2 0-3.556.889-3.556 2.222s1.556 2.223 3.556 2.223 3.555-.889 3.555-2.223c0-1.111-1.555-2.222-3.555-2.222M10 13.556c0 .222-.222.222-.667.444a7 7 0 0 1-1.777-.444 8.4 8.4 0 0 1-1.334-1.112C6 12 5.778 11.778 6 11.556c0-.223.444-.223.667-.223a4.1 4.1 0 0 1 1.555.445c.889.222 1.111.666 1.556.889 0 .444.222.666.222.889m6.444 1.333c2 0 3.556-.889 3.556-2.222s-1.556-2.223-3.556-2.223-3.555.889-3.555 2.223c0 1.111 1.555 2.222 3.555 2.222m-2-2.222a8.4 8.4 0 0 1 1.334-1.111 2.4 2.4 0 0 1 1.555-.445c.667.222.889.222.889.445a.82.82 0 0 1-.222.666 2.27 2.27 0 0 1-1.333 1.111 7 7 0 0 1-1.778.445c-.445 0-.667-.222-.667-.445a.97.97 0 0 0 .222-.666m7.334-4.445H2.444A.48.48 0 0 0 2 8.667v.666l1.111 6a.48.48 0 0 0 .445.445h16.888c.223 0 .445 0 .445-.445l1.111-6v-.666c0-.445-.222-.445-.222-.445m-1.556 6.667H4l-.889-5.111h18Z"/></svg>