<?xml version="1.0" encoding="UTF-8"?>
<svg width="33px" height="32px" viewBox="0 0 33 32" version="1.1" fill="#44739e" xmlns="http://www.w3.org/2000/svg" xmlns:xlink="http://www.w3.org/1999/xlink">
            <path d="M6.8,10c-2.4,0-4.2,1.2-4.2,2.7c0,1.5,1.8,2.7,4.2,2.7s4.2-1.2,4.2-2.7C11.1,11.2,9.2,10,6.8,10z M9.4,13.9 c-0.1,0.2-0.4,0.3-0.9,0.4c-0.6,0-1.3-0.2-2-0.5c-0.8-0.4-1.3-0.9-1.6-1.3c-0.3-0.4-0.4-0.7-0.3-1c0.1-0.2,0.4-0.3,0.9-0.4h0.1 c0.6,0,1.2,0.2,1.9,0.5c0.8,0.4,1.3,0.9,1.6,1.3C9.3,13.3,9.5,13.7,9.4,13.9z M17.2,15.4c2.4,0,4.2-1.2,4.2-2.7c0-1.5-1.8-2.7-4.2-2.7c-2.4,0-4.2,1.2-4.2,2.7C12.9,14.2,14.7,15.4,17.2,15.4z M14.9,12.9c0.3-0.4,0.8-0.9,1.6-1.3c0.7-0.4,1.3-0.5,1.9-0.5l0,0c0.6,0.1,0.9,0.2,0.9,0.4c0.1,0.2,0,0.6-0.3,0.9 c-0.3,0.4-0.8,0.9-1.6,1.3c-0.7,0.3-1.4,0.5-2,0.5c-0.6-0.1-0.9-0.2-0.9-0.4C14.5,13.7,14.7,13.3,14.9,12.9z M23.5,7.4H0.5c-0.3,0-0.5,0.2-0.5,0.6v0.9l1.3,7.3c0,0.3,0.2,0.4,0.5,0.4h20.4c0.2,0,0.5-0.1,0.5-0.4l1.3-7.3v-1 C23.9,7.6,23.7,7.4,23.5,7.4z M21.8,15.6h-9.3h-1H2.2L1.1,9.4h9.9h0.4h1.1h0.4h9.9L21.8,15.6z"/>

</svg>