<svg xmlns="http://www.w3.org/2000/svg" viewBox="0 0 24 24"><path fill="#44739e" d="m21.915 13.987-1.64-1.641h.7l.469-.7-.231-4.451H2v4.217l.469 1.172h8.2l-1.406 1.403a1.76 1.76 0 0 0 .469 2.343 3.3 3.3 0 0 0 1.406.468.94.94 0 0 0 .937-.468 12 12 0 0 0 1.406-1.641v.938c0 .468.937.937 1.874.937s1.874-.469 1.874-.937v-.938l1.406 1.641a1.22 1.22 0 0 0 .937.468 1.67 1.67 0 0 0 1.406-.7c.937-.234 1.172-1.171.937-2.108M2.469 11.175h8.2v.7H2.7Zm9.137 4.92a.8.8 0 0 1-.468.235c-.469 0-.7-.235-1.172-.469a1.8 1.8 0 0 0-.468-.937v-.469a.73.73 0 0 1 .468-.234c.469 0 .7.234 1.172.468a1.22 1.22 0 0 1 .468.938c.235.234.235.234 0 .468m3.749.235c-.937 0-1.171-.235-1.171-.469a1.8 1.8 0 0 1 1.171-.469c.937 0 1.172.235 1.172.469.234 0-.235.469-1.172.469m6.092-1.406a1.25 1.25 0 0 1-.7.937c-.234.234-.7.234-.937.469-.235 0-.235 0-.469-.235 0-.234-.234-.468 0-.468a1.26 1.26 0 0 1 .7-.938c0-.234.469-.468.937-.468.235 0 .235 0 .469.234Z"/></svg>