<svg xmlns="http://www.w3.org/2000/svg" viewBox="0 0 24 24"><path fill="#44739e" d="M21.765 10.147c0-.236 0-.236-.236-.236l-2.824-.941-5.178-1.883c-2.118-.706-4.236-1.413-6.119-2.118h-.236L2.471 6.617c-.236.235-.471.235-.471.47v4.237c0 .235 0 .235.235.235l.706.235 6.355 2.118 1.647.471a1.01 1.01 0 0 1 .941-.942c1.178-.47 2.119-.706 3.295-1.176a4.7 4.7 0 0 1 1.884-.941 1.5 1.5 0 0 1 1.412 0 4.9 4.9 0 0 1 1.411.941 4.2 4.2 0 0 1 .943 2.354v.235c.235-.235.47-.235.941-.471a.23.23 0 0 0 .23-.235 21.6 21.6 0 0 1-.235-4.001m-8.473 1.647c-.235 0-.47.235-.706.235-.47.236-1.177.471-1.648.706h-.235c-1.177-.235-2.118-.706-3.295-.941l-2.353-.706c-.471-.235-.706-.235-1.178-.47a.23.23 0 0 1-.235-.236.23.23 0 0 1 .235-.235c.237 0 .472-.236.707-.236l2.118-.941h.235c1.178.47 2.589.941 3.766 1.412l2.589.942.235.235a.23.23 0 0 1-.235.235m5.883 1.412a3.2 3.2 0 0 0-.941-.706.716.716 0 0 0-.941 0c-.706.235-1.177.471-1.883.706a18.4 18.4 0 0 0-3.294 1.177.51.51 0 0 0-.472.471v1.412a2.54 2.54 0 0 0 .707 1.647 1.84 1.84 0 0 0 .941.942.442.442 0 0 0 .706 0c.941-.471 1.882-.706 2.825-1.178a4.8 4.8 0 0 1 2.117-1.176c.471-.235.706-.471.706-.941v-.706a3.4 3.4 0 0 0-.471-1.648m-4.942 4.001c0 .235-.235.235-.47.235a.506.506 0 0 1-.471-.47 1.52 1.52 0 0 1-.47-1.177v-.47c0-.236.235-.236.47-.236a.82.82 0 0 1 .471.236 3.34 3.34 0 0 1 .47 1.411Z"/></svg>