<?xml version="1.0" encoding="UTF-8"?>
<svg width="33px" height="32px" viewBox="0 0 80.555 100" version="1.1" xmlns="http://www.w3.org/2000/svg" xmlns:xlink="http://www.w3.org/1999/xlink">
    <!-- Generator: Sketch 51.3 (57544) - http://www.bohemiancoding.com/sketch -->
    <style>path{fill:#000}@media (prefers-color-scheme:dark){path{fill:#fff}}</style>
            <path d="M76.389,26.389V18.75c0-1.15-0.934-2.083-2.084-2.083c-1.149,0-2.083,0.933-2.083,2.083v7.639h-8.333V18.75
	c0-1.15-0.934-2.083-2.084-2.083c-1.149,0-2.083,0.933-2.083,2.083v7.639h-4.167v4.167c0,5.947,4.157,10.915,9.723,12.18v15.598
	l4.156,30.662c-0.059,3.014-2.518,5.449-5.545,5.449c-3.062,0-5.553-2.489-5.556-5.55h0.001V50.005L58.333,50
	c0-4.595-3.738-8.333-8.333-8.333h-8.334V8.102C41.667,3.634,37.929,0,33.333,0h-25C3.738,0,0,3.634,0,8.102V100h41.667V47.222H50
	c1.531,0,2.777,1.247,2.777,2.778l0.001,0.005v38.883h-0.001c0,6.127,4.984,11.111,11.111,11.111C70.015,100,75,95.016,75,88.889
	l-4.167-30.744V42.735c5.565-1.265,9.722-6.232,9.722-12.18v-4.167H76.389z M10.524,73.299l5.983-11.965H9.028l10.47-17.95h7.478
	L19.498,55.35h8.974L10.524,73.299z M36.111,29.398c0,1.404-1.247,2.546-2.778,2.546h-25c-1.531,0-2.778-1.142-2.778-2.546V8.102
	c0-1.404,1.247-2.546,2.778-2.546h25c1.531,0,2.778,1.142,2.778,2.546V29.398z"/>

</svg>