<?xml version="1.0" encoding="UTF-8"?>
<svg width="24px" height="24px" viewBox="0 0 24 24" version="1.1" xmlns="http://www.w3.org/2000/svg" fill="#44739e" xmlns:xlink="http://www.w3.org/1999/xlink">
            <path d="M 19.222,7.278 V 5.75 a 0.417,0.417 0 0 0 -0.833,0 V 7.278 H 16.722 V 5.75 a 0.417,0.417 0 0 0 -0.833,0 V 7.278 H 15.056 V 8.111 A 2.5,2.5 0 0 0 17,10.547 v 3.12 l 0.831,6.132 a 1.110045,1.110045 0 0 1 -2.22,-0.02 v 0 V 12 12 A 1.668,1.668 0 0 0 13.944,10.333 H 12.278 V 3.62 A 1.646,1.646 0 0 0 10.611,2 h -5 A 1.646,1.646 0 0 0 3.944,3.62 V 22 h 8.334 V 11.444 h 1.666 A 0.557,0.557 0 0 1 14.5,12 v 0 7.777 0 a 2.222,2.222 0 1 0 4.444,0 L 18.111,13.628 V 10.547 A 2.5,2.5 0 0 0 20.056,8.111 V 7.278 Z M 6.049,16.66 7.249,14.267 H 5.75 l 2.094,-3.59 h 1.5 l -1.5,2.393 h 1.795 z m 5.118,-8.78 a 0.535,0.535 0 0 1 -0.556,0.509 h -5 A 0.535,0.535 0 0 1 5.056,7.88 V 3.62 A 0.535,0.535 0 0 1 5.611,3.111 h 5 a 0.535,0.535 0 0 1 0.556,0.509 z"/>

</svg>