<?xml version="1.0" encoding="UTF-8"?>
<svg width="24px" fill="#44739e" height="24px" viewBox="0 0 24 24" version="1.1" xmlns="http://www.w3.org/2000/svg" xmlns:xlink="http://www.w3.org/1999/xlink">
            <path d="m 11.733,14.906 h 0.002 v 0.161 h -0.002 z m 0.019,-0.769 -0.015,0.768 0.338,-0.077 0.1,0.135 -0.441,0.1 -0.028,1.427 1.21,1.732 0.269,0.076 h 0.132 l 1.137,-0.412 -0.039,-0.168 z m 0.111,2.036 1,-0.244 0.105,0.129 -1.014,0.244 z m 0.981,1.457 -0.132,-0.153 1.1,-0.328 0.138,0.168 z m -3.501,-4.219 1.406,1.811 0.049,-2.169 -1.439,0.147 z m 1.439,0.351 v 0.165 l -0.472,0.094 -0.138,-0.16 z M 9.52,13.793 9.332,13.609 7.636,13.793 v 0.195 z m 1.415,-6.26 V 7.011 L 9.332,6.573 7.827,6.69 V 7.167 Z M 10.892,8.272 10.904,7.679 7.814,7.318 7.816,7.895 Z M 10.904,8.376 7.814,8.048 7.781,8.651 10.904,8.996 Z M 10.883,9.082 7.781,8.788 v 0.687 l 3.102,0.213 z m -1.766,3.213 -1.381,0.056 v 0.61 l 1.381,-0.097 z m 0.039,-0.745 -1.42,0.038 v 0.66 l 1.42,-0.05 z M 7.7360001,10.871 h 1.38 v 0.6 h -1.38 z M 9.182,10.133 7.736,10.116 v 0.612 h 1.42 z m 1.657,2.683 0.1,-2.721 V 9.78 l -3.2,-0.233 v 0.459 l 1.5,0.042 -0.05,2.873 -1.5,0.1 v 0.264 l 3.137,-0.3 z m -1.464,-2.586 1.419,0.055 -0.081,2.539 -1.376,0.088 z m -4.737,1.71 1.151,0.122 0.014,-0.707 -1.165,-0.094 z m 0,-0.784 1.165,0.102 L 5.814,10.641 4.642,10.59 Z M 4.627,7.758 H 4.5 l -0.1,4.56 1.7,0.19 V 12.2 L 6.173,7.669 Z m 1.3,2.416 L 5.359,10.15 5.376,9.208 H 5.941 Z M 4.595,10.118 4.609,9.208 H 5.172 L 5.159,10.142 Z M 5.94,8.958 5.377,8.976 5.394,8.042 5.953,8.01 Z M 5.183,8.058 5.171,8.986 4.608,9 4.622,8.086 Z m -0.622,4 0.025,-1.6 1.333,0.058 L 5.9,12.179 Z M 6.579,7.641 6.52,12.581 6.788,12.612 6.889,7.621 Z M 4.055,12.318 4.114,7.799 3.925,7.808 3.847,12.295 Z M 3.944,13.187 4.592,13.259 4.6,12.968 3.95,12.892 Z M 5.625,13.418 6.273,13.49 6.281,13.199 5.632,13.123 Z M 6.842,6.873 V 6.309 L 4.003,6.649 V 7.164 Z M 7.643,6.248 7.636,6.562 11.075,6.248 10.784,18.113 7.421,17.096 7.643,6.248 7.392,6.277 7.158,17.431 l 3.996,1.206 v -0.412 l 0.25,-12.42 z M 18.385,4.829 17.767,21.307 v 0.152 l 2.8,-1.855 v 0.009 L 20.843,19.4 21.435,6.385 18.385,4.173 Z m 2.2,14.3 -2.452,1.584 L 18.7,5.035 21.1,6.614 Z M 3.7,6.248 v 0.32 L 3.662,9.04 2,9.7 v 0.325 l 0.039,0.028 H 2.2 L 3.658,9.487 V 9.563 L 3.183,9.73 h 0.472 v 0.1 H 3 l -0.706,0.249 v 0.237 l 1.353,0.046 v 0.1 L 2.296,10.423 v 0.549 l 1.342,0.06 v 0.129 l -1.34,-0.082 v 0.539 l 1.331,0.114 v 0.1 l -1.33,-0.1 v 0.56 l 1.32,0.144 v 0.1 L 2.3,12.378 v 0.6 l 1.289,0.189 0.02,0.007 -0.066,3.586 13.619,4.547 0.487,0.152 0.617,-17.286 z m 3.152,7.5 -3.1,-0.437 0.01,-0.577 3.1,0.412 v 0 z m -3,-6.034 0.339,-0.026 -0.08,4.733 0.183,0.02 -0.52,-0.057 z M 4.321,12.444 4.44,7.669 6.253,7.528 6.177,12.65 Z M 6.879,12.728 6.438,12.679 6.49,7.51 6.996,7.471 Z M 7.021,6.14 7,7.055 3.853,7.384 3.867,6.546 Z m -3.27,7.375 3.1,0.459 -0.079,3.507 0.19,0.06 L 3.7,16.516 Z M 17.18,20.757 7.037,17.566 7.276,6.107 v 0 L 11.754,5.529 11.573,5.552 11.278,18.9 11.533,18.98 11.863,5.515 17.714,4.76 Z M 18.608,3.135 2.872,5.698 V 6.187 L 18.477,3.929 21.869,6.385 22,6.324 V 5.851 Z m -1.722,12.647 0.039,-0.005 a 0.1,0.1 0 0 1 0.043,0.01 c 0.011,0 0.023,0 0.019,-0.014 l -0.014,-0.039 a 0.029,0.029 0 0 0 -0.022,-0.019 v 0 a 0.022,0.022 0 0 1 -0.017,-0.027 0.062,0.062 0 0 1 0.01,-0.022 0.15,0.15 0 0 0 0.031,-0.132 0.106,0.106 0 0 0 -0.043,-0.054 0.016,0.016 0 0 1 0,-0.024 0.051,0.051 0 0 0 0.009,-0.027 0.162,0.162 0 0 0 -0.013,-0.061 0.119,0.119 0 0 1 0,-0.035 c 0,-0.016 -0.018,-0.026 -0.018,-0.026 0,0 0.017,-0.017 0,-0.051 -0.017,-0.034 -0.129,-0.044 -0.129,-0.044 0,0 0.016,-0.07 -0.075,-0.1 -0.074,-0.027 -0.132,0.083 -0.153,0.128 a 0.026,0.026 0 0 1 -0.03,0.014 v 0 a 0.017,0.017 0 0 1 -0.012,-0.027 l 0.061,-0.062 a 0.023,0.023 0 0 0 -0.009,-0.037 h -0.007 v 0 a 0.048,0.048 0 0 0 0.031,-0.062 v 0 a 0.049,0.049 0 0 0 -0.031,-0.03 h -0.011 a 0.055,0.055 0 0 1 -0.03,-0.026 l -0.009,-0.018 a 0.06,0.06 0 0 0 -0.058,-0.03 0.322,0.322 0 0 0 -0.194,0.085 1.574,1.574 0 0 0 -0.2,0.606 0.043,0.043 0 0 1 -0.013,0.026 l -0.058,0.064 a 0.812,0.812 0 0 1 -0.369,0.212 3.91,3.91 0 0 1 -0.5,0.026 1.5,1.5 0 0 1 -0.508,-0.084 c -0.116,-0.065 -0.215,-0.4 -0.348,-0.528 a 0.748,0.748 0 0 0 -0.337,-0.168 0.25,0.25 0 0 0 -0.074,0 0.015,0.015 0 0 1 -0.016,-0.023 l 0.016,-0.029 c 0,-0.01 -0.015,-0.034 -0.015,-0.034 l -0.03,-0.023 -0.012,-0.017 -0.034,-0.01 H 13.75 a 0.016,0.016 0 0 0 -0.022,0.007 l -0.01,0.027 c 0,0 -0.021,-0.041 -0.036,-0.034 -0.015,0.007 0,0.072 0,0.072 0,0 -0.044,-0.069 -0.067,-0.059 -0.044,0.019 0.009,0.108 0.009,0.108 0,0 -0.033,-0.054 -0.056,-0.046 -0.023,0.008 0,0.072 0,0.072 a 0.07,0.07 0 0 0 -0.032,0 c -0.009,0 0.01,0.057 0.01,0.057 h -0.027 a 0.016,0.016 0 0 0 -0.016,0.011 v 0.009 l -0.016,0.013 a 0.045,0.045 0 0 0 -0.016,0.041 v 0.018 l -0.005,0.019 v 0.02 a 0.377,0.377 0 0 0 -0.067,0.06 0.164,0.164 0 0 0 -0.026,0.1 0.094,0.094 0 0 1 0.039,-0.025 l 0.041,-0.02 a 0.157,0.157 0 0 1 0.083,-0.013 h 0.051 a 0.27,0.27 0 0 0 -0.021,0.075 0.123,0.123 0 0 0 0.145,0.117 0.12,0.12 0 0 0 0.085,-0.053 1.4,1.4 0 0 0 -0.14,0.453 0.932,0.932 0 0 0 0.2,0.687 1.867,1.867 0 0 0 0.72,0.447 c 0.092,0.061 0.211,0.191 0.295,0.234 0.084,0.043 0.183,0.151 0.3,0.238 a 0.8,0.8 0 0 0 0.139,0.089 2.389,2.389 0 0 1 -0.143,0.428 0.06,0.06 0 0 1 -0.061,0.032 1.336,1.336 0 0 0 -0.181,0 0.541,0.541 0 0 0 -0.117,0.035 c -0.009,0 0,0.014 0,0.014 h 0.129 l 0.048,0.014 H 14.91 a 1.708,1.708 0 0 0 -0.263,0.039 0.007,0.007 0 0 0 0,0.014 c 0.044,0 0.126,0.012 0.163,0.017 0.055,0.009 0.078,0.034 0.136,0.044 a 0.307,0.307 0 0 1 -0.067,0.034 c -0.028,0.006 -0.067,0.069 -0.091,0.111 0,0.006 0,0.013 0.012,0.01 0.049,-0.025 0.158,-0.08 0.172,-0.085 a 1.216,1.216 0 0 1 0.274,-0.077 c 0.006,0 0.017,0 0.035,-0.031 0.047,0.007 0.1,0.015 0.143,0.023 a 0.451,0.451 0 0 1 -0.067,0.034 c -0.028,0.006 -0.066,0.067 -0.09,0.109 0,0.006 0,0.014 0.012,0.01 0.042,-0.024 0.124,-0.069 0.159,-0.087 a 1.552,1.552 0 0 1 0.285,-0.073 c 0.007,0 0.02,0 0.044,-0.045 a 0.059,0.059 0 0 1 0.037,-0.028 0.461,0.461 0 0 1 0.092,-0.023 c 0.019,0.02 0.083,0.02 0.111,0.02 h 0.018 a 0.006,0.006 0 0 0 0.005,-0.009 l -0.013,-0.012 c 0,0 -0.03,-0.031 -0.053,-0.052 a 0.316,0.316 0 0 0 -0.14,-0.02 c 0.02,-0.053 0.045,-0.12 0.072,-0.21 0.027,-0.09 0.048,-0.155 0.067,-0.222 a 0.438,0.438 0 0 0 0.222,-0.231 0.606,0.606 0 0 0 0.263,-0.412 1.7,1.7 0 0 0 -0.125,-0.5 0.875,0.875 0 0 0 0.274,-0.083 0.54,0.54 0 0 0 0.182,-0.355 1.558,1.558 0 0 0 0.011,-0.214 0.044,0.044 0 0 1 0.026,-0.036 0.173,0.173 0 0 0 0.032,-0.018 0.625,0.625 0 0 1 0.11,-0.027 0.014,0.014 0 0 0 0.011,-0.021 0.164,0.164 0 0 0 -0.045,-0.042 l -0.051,-0.032 a 0.02583118,0.02583118 0 0 1 0.013,-0.05 z m -1.23,2.405 c -0.009,0.018 -0.044,0.018 -0.066,0.017 a 1.266,1.266 0 0 0 -0.187,0 c -0.015,0 -0.058,0.006 -0.072,0.01 0.02,-0.051 0.127,-0.384 0.148,-0.459 a 0.982,0.982 0 0 0 0.163,-0.095 c 0.062,-0.055 0.067,-0.082 0.067,-0.082 a 0.284,0.284 0 0 0 0.1,0.165 2.464,2.464 0 0 1 -0.153,0.444 z"/>

</svg>