<?xml version="1.0" encoding="UTF-8"?>
<svg width="24px" fill="#44739e" height="24px" viewBox="0 0 24 24" version="1.1" xmlns="http://www.w3.org/2000/svg" xmlns:xlink="http://www.w3.org/1999/xlink">
            <path d="M 21.378,11.378 H 18.462 V 10.6 a 2.6,2.6 0 0 0 1.095,-2.307 c 0,-1.824 -1.18,-4.53 -2.811,-4.53 -1.631,0 -2.811,2.706 -2.811,4.53 A 2.6,2.6 0 0 0 15.03,10.6 v 0.782 H 8.971 V 10.6 a 2.6,2.6 0 0 0 1.094,-2.307 c 0,-1.824 -1.18,-4.53 -2.811,-4.53 -1.631,0 -2.811,2.702 -2.811,4.526 a 2.6,2.6 0 0 0 1.1,2.307 v 0.782 H 2.622 a 0.622,0.622 0 0 0 0,1.244 h 7.662 V 13.4 a 2.6,2.6 0 0 0 -1.1,2.307 c 0,1.824 1.18,4.53 2.811,4.53 1.631,0 2.811,-2.706 2.811,-4.53 a 2.6,2.6 0 0 0 -1.1,-2.307 v -0.782 h 7.662 a 0.622,0.622 0 0 0 0,-1.244 M 16.746,5 c 0.545,0 1.568,1.742 1.568,3.287 0,0.651 -0.163,1.516 -1.568,1.516 -1.405,0 -1.568,-0.865 -1.568,-1.516 C 15.178,6.743 16.2,5 16.746,5 m -0.473,6.02 a 4.157,4.157 0 0 0 0.946,0 v 0.356 H 16.273 Z M 7.254,5 C 7.8,5 8.822,6.744 8.822,8.289 8.822,8.94 8.66,9.805 7.254,9.805 5.848,9.805 5.686,8.94 5.686,8.289 5.686,6.743 6.709,5 7.254,5 m -0.473,6.02 a 4.165,4.165 0 0 0 0.947,0 v 0.356 H 6.781 Z M 12,19 c -0.545,0 -1.568,-1.742 -1.568,-3.287 0,-0.651 0.163,-1.516 1.568,-1.516 1.405,0 1.568,0.865 1.568,1.516 C 13.568,17.256 12.545,19 12,19 m 0.473,-6.02 A 4.154,4.154 0 0 0 12,12.951 4,4 0 0 0 11.527,12.978 v -0.356 h 0.946 z"/>

</svg>