<?xml version="1.0" encoding="UTF-8"?>
<svg width="33px" fill="#44739e" height="32px" viewBox="0 0 512.113 512.113" version="1.1" xmlns="http://www.w3.org/2000/svg" xmlns:xlink="http://www.w3.org/1999/xlink">
            <path d="M499.829,267.689c0-11.677-5.389-22.456-14.372-29.642c6.288-8.982,8.084-20.66,5.389-32.337 c-3.593-11.677-11.677-20.66-21.558-25.151c4.491-10.779,3.593-22.456-2.695-33.235c-5.389-9.881-16.168-17.067-26.947-18.863 c0.898-11.677-3.593-23.354-11.677-31.439c-8.982-8.982-19.761-12.575-31.439-11.677c-1.509-9.81-6.836-18.343-15.42-24.552 c12.06-24.299,6.847-40.72-0.748-50.003c-6.288-8.084-17.067-12.575-27.846-11.677c-27.279,2.48-65.951,15.61-84.548,28.889 c-4.548-1.256-9.326-1.942-14.259-1.942c-4.611,0-9.091,0.588-13.371,1.691c-18.234-13.391-57.722-26.119-85.436-28.638 c-10.779-0.898-21.558,3.593-28.744,13.474c-7.655,9.356-12.882,25.163-0.451,50.457c-6.654,5.814-10.819,13.814-12.125,22.301 c-11.677-0.898-22.456,3.593-31.439,11.677c-8.084,8.982-12.575,19.761-11.677,31.439c-10.779,1.797-20.66,8.084-26.947,18.863 c-5.389,10.779-6.288,22.456-2.695,33.235c-10.779,4.491-18.863,13.474-21.558,25.151c-3.593,11.677-0.898,23.354,5.389,32.337 c-8.982,8.084-14.372,18.863-14.372,30.54s5.389,22.456,14.372,29.642c-6.288,8.982-8.084,20.66-5.389,32.337 c3.593,11.677,11.677,20.66,21.558,25.151c-4.491,10.779-3.593,22.456,2.695,33.235c5.389,9.881,16.168,17.067,26.947,18.863 c-0.898,11.677,3.593,23.354,11.677,31.439c8.982,8.982,19.761,12.575,31.439,11.677c1.796,10.779,8.084,20.66,18.863,26.947 c10.779,5.389,22.456,6.288,33.235,2.695c4.491,10.779,13.474,18.863,25.151,21.558c11.677,3.593,23.354,0.898,32.337-5.389 c8.084,8.982,18.863,14.372,30.54,14.372s22.456-5.389,33.235-15.27c8.982,6.288,20.66,8.084,32.337,5.389 c11.677-3.593,20.66-10.779,25.151-21.558c10.779,4.491,22.456,3.593,33.235-2.695c9.881-5.389,17.067-16.168,18.863-26.947 c11.677,0.898,23.354-3.593,31.439-11.677c8.982-8.982,12.575-19.761,11.677-31.439c10.779-1.796,20.66-8.084,26.947-18.863 c5.389-10.779,6.288-22.456,2.695-33.235c10.779-4.491,18.863-13.474,21.558-25.151c3.593-11.677,0.898-23.354-5.389-32.337 C494.439,290.145,499.829,279.366,499.829,267.689z M365.092,194.931c5.389,8.982,14.372,15.27,24.253,17.965 c-4.491,8.084-7.186,18.863-4.491,29.642c2.695,10.779,8.084,19.761,16.168,26.049c-8.084,6.288-14.372,15.27-16.168,26.049 c-2.695,10.779-0.898,20.66,4.491,29.642c-9.881,2.695-17.965,8.982-24.253,17.965c-6.288,8.982-8.084,19.761-7.186,29.642 c-9.881-0.898-20.66,0.898-29.642,7.186c-8.982,5.389-15.27,14.372-17.965,24.253c-8.084-4.491-18.863-6.288-29.642-4.491 c-10.779,2.695-19.761,8.084-26.049,16.168c-6.288-8.084-15.27-14.372-26.049-16.168c-10.779-2.695-20.66-0.898-29.642,4.491 c-2.695-9.881-8.982-17.965-17.965-24.253c-8.982-6.288-19.761-8.084-29.642-7.186c0.898-9.881-0.898-20.66-7.186-29.642 c-5.389-8.982-14.372-15.27-24.253-17.965c4.491-8.084,7.186-18.863,4.491-29.642c-2.695-10.779-8.084-19.761-16.168-26.049 c8.084-6.288,13.474-15.27,16.168-26.049c2.695-10.779,0.898-20.66-4.491-29.642c9.881-2.695,17.965-8.982,24.253-17.965 c6.288-8.982,8.084-19.761,7.186-29.642c3.204,0.458,6.408,0.503,9.552,0.189l-14.044,28.555 c-0.898,2.695-0.898,7.186,1.797,9.881c2.695,2.695,6.288,3.593,9.881,1.797l35.032-14.372l7.186,34.133 c0,3.593,3.593,6.288,7.186,7.186h0.898c3.593,0,6.288-1.797,8.982-4.491l36.604-73.207l36.154,72.309 c1.797,3.593,4.491,5.39,8.084,5.39c0,0,0.898,0,1.797,0c3.593-0.898,6.288-3.593,7.186-7.186l7.186-35.032l35.032,14.372 c3.593,1.797,7.186,0.898,9.881-1.797c2.695-2.695,3.593-6.288,1.797-9.881l-13.864-27.728c3.407,0.38,6.871,0.369,10.271-0.117 C357.008,175.169,358.804,185.948,365.092,194.931z M183.875,155.848c0.532-0.435,1.057-0.879,1.567-1.338 c0.898-0.898,0.898-1.797,1.797-2.695l0.822-1.233c14.597-1.16,29.535-5.412,43.192-12.241l11.324-5.662 c0.285,0.06,0.572,0.115,0.859,0.17l-31.046,62.979l-3.593-18.863c-0.898-2.695-1.797-5.389-4.491-6.288 c-1.797-0.898-2.695-0.898-4.491-0.898c-0.898,0-2.695,0-3.593-0.898l-23.354,8.982L183.875,155.848z M263.59,132.952 c0.898,0,0.898,0,1.796,0.898l10.779,5.389c13.474,7.186,27.846,11.677,43.116,12.575l14.372,28.744l-23.354-8.982 c-1.797-1.797-4.491-0.898-7.186,0c-2.695,1.797-3.593,3.593-4.491,6.288l-3.593,18.863L263.59,132.952L263.59,132.952z M354.313,17.078c4.491,0,8.982,1.797,11.677,4.491c7.186,8.084,5.39,19.761-2.695,35.032c-0.898,1.796-9.881,18.863-9.881,59.284 c0,0.898,0,12.575-15.27,16.168c0,0-1.796,0.898-5.389,0.898c-0.836,0-1.598,0-2.695,0h-2.695c-0.155,0-0.308,0.014-0.463,0.02 c-0.145-0.009-0.29-0.02-0.435-0.02c-13.222-0.881-27.305-4.365-39.71-10.436c9.383-7.141,16.043-17.365,19.044-28.787 c0.045-0.169,0.093-0.338,0.136-0.508c0.148-0.588,0.283-1.18,0.412-1.773c0.092-0.418,0.18-0.838,0.261-1.259 c0.091-0.473,0.177-0.946,0.256-1.421c0.092-0.552,0.171-1.108,0.246-1.666c0.053-0.398,0.109-0.795,0.153-1.196 c0.074-0.661,0.128-1.328,0.177-1.996c0.023-0.32,0.056-0.638,0.073-0.958c0.055-0.992,0.088-1.99,0.088-2.996 c0-1.006-0.033-2.005-0.089-2.998c-0.016-0.295-0.046-0.587-0.068-0.881c-0.051-0.706-0.109-1.409-0.187-2.108 c-0.036-0.319-0.08-0.634-0.122-0.951c-0.089-0.682-0.188-1.361-0.302-2.035c-0.05-0.296-0.104-0.59-0.159-0.885 c-0.133-0.71-0.28-1.414-0.44-2.114c-0.057-0.247-0.112-0.495-0.172-0.741c-0.188-0.772-0.396-1.535-0.617-2.294 c-0.051-0.174-0.097-0.351-0.15-0.524c-0.268-0.885-0.557-1.762-0.869-2.627c-0.02-0.054-0.036-0.11-0.056-0.164 c-0.327-0.896-0.674-1.783-1.047-2.657c-0.298-0.706-0.623-1.4-0.95-2.093c-0.041-0.086-0.078-0.174-0.119-0.26 c-3.602-7.532-8.86-14.251-15.313-19.782C304.011,27.857,331.857,18.875,354.313,17.078z M264.103,45.574 c0.69,0.506,1.435,0.898,2.182,1.147c2.158,0.674,4.213,1.555,6.151,2.611c10.298,6.336,17.204,17.712,17.204,30.625 c0,14.233-8.389,26.601-20.465,32.408c-1.508,0.669-3.07,1.251-4.686,1.726c-4.491,0.898-7.186,1.796-10.779,1.796 c-2.63,0-5.194-0.295-7.667-0.838c-0.683-0.428-1.425-0.761-2.213-0.959c-12.797-3.764-22.435-13.837-25.223-26.517 c-0.02-0.09-0.043-0.178-0.062-0.267c-0.047-0.221-0.084-0.445-0.127-0.667c-0.063-0.331-0.125-0.662-0.179-0.997 c-0.034-0.209-0.063-0.419-0.093-0.629c-0.05-0.354-0.097-0.709-0.137-1.066c-0.022-0.201-0.044-0.401-0.063-0.603 c-0.037-0.387-0.065-0.777-0.089-1.167c-0.011-0.174-0.024-0.346-0.033-0.521c-0.027-0.563-0.043-1.129-0.043-1.699 c0-0.793,0.039-1.577,0.087-2.36c0.023-0.348,0.047-0.695,0.08-1.04c0.023-0.264,0.059-0.525,0.087-0.787 c2.092-17.807,17.331-31.743,35.676-31.743C257.32,44.026,260.809,44.571,264.103,45.574z M140.53,22.468 c2.695-3.593,7.186-5.389,11.677-5.389c0.898,0,0.898,0,1.797,0c22.456,1.797,50.302,10.779,67.368,19.761 c-0.481,0.385-0.94,0.789-1.408,1.185c-9.879,7.975-16.903,19.349-19.266,32.303c-0.029,0.159-0.058,0.318-0.086,0.477 c-0.133,0.772-0.249,1.549-0.349,2.331c-0.034,0.264-0.071,0.527-0.102,0.792c-0.082,0.725-0.143,1.456-0.195,2.189 c-0.02,0.279-0.048,0.556-0.064,0.836c-0.055,0.994-0.089,1.994-0.089,3.002c0,1.005,0.033,2.003,0.088,2.996 c0.018,0.322,0.05,0.641,0.074,0.963c0.049,0.665,0.103,1.33,0.176,1.988c0.045,0.408,0.102,0.814,0.156,1.221 c0.073,0.543,0.15,1.084,0.239,1.621c0.083,0.503,0.174,1.004,0.271,1.505c0.072,0.37,0.149,0.739,0.229,1.107 c0.143,0.669,0.296,1.335,0.464,1.997c0.008,0.031,0.016,0.061,0.024,0.091c3.007,11.765,9.855,22.425,19.548,30.282 c-1.794,0.988-3.605,1.908-5.435,2.751c-9.599,3.898-19.457,6.366-29.147,7.195c-1.188-0.506-2.47-0.719-3.755-0.719h-2.695 c-1.797,0-2.695,0-4.491,0c-3.593-0.898-5.39-0.898-5.39-0.898c-15.27-4.491-15.27-14.372-15.27-17.067 c0-28.744-5.389-45.81-8.084-52.996c-0.299-0.597-0.806-1.195-1.403-1.792c-0.647-1.474-1.12-2.354-1.292-2.699 C135.141,42.229,134.243,30.552,140.53,22.468z M463.899,289.247c-3.593,0.898-6.288,3.593-6.288,7.186 c-0.898,3.593,0.898,7.186,3.593,8.982c8.982,6.288,9.881,15.27,8.084,22.456c-1.797,6.288-7.186,14.372-17.965,15.27 c-2.695,0-6.288,2.695-7.186,5.389c-0.898,2.695,0,6.288,1.797,8.982c7.186,8.084,5.389,17.965,1.797,24.253 c-3.593,6.288-10.779,11.677-21.558,9.881c-3.593,0-7.186,0.898-8.982,3.593c-1.796,2.695-2.695,6.288-0.898,8.982 c4.491,9.881,0.898,17.965-4.491,23.354c-4.491,5.389-13.474,8.982-23.354,4.491c-2.695-1.796-6.288-0.898-8.982,0.898 c-2.695,2.695-4.491,5.389-3.593,8.982c2.695,10.779-3.593,17.965-9.881,21.558s-16.168,5.389-24.253-1.796 c-2.695-2.695-6.288-2.695-8.982-1.797c-2.695,0.898-5.389,3.593-5.389,7.186c-0.898,9.881-8.084,16.168-15.27,17.965 c-7.186,1.796-16.168,0.898-22.456-8.084c-2.695-2.695-5.389-3.593-8.982-3.593c-3.593,0.898-6.288,2.695-7.186,6.288 c-3.593,9.881-12.575,13.474-19.761,13.474s-16.168-3.593-19.761-13.474c-0.898-3.593-3.593-6.288-7.186-6.288h-0.898 c-3.593,0-6.288,1.797-8.982,2.695c-6.288,8.982-15.27,9.881-22.456,8.084c-6.288-1.797-14.372-7.186-15.27-17.965 c0-2.695-2.695-6.288-5.389-7.186c-2.695-0.898-6.288,0-8.982,1.797c-8.084,7.186-17.965,5.389-24.253,1.797 c-6.288-3.593-11.677-10.779-9.881-21.558c0-3.593-0.898-7.186-3.593-8.982c-2.695-1.796-6.288-2.695-8.982-0.898 c-9.881,4.491-17.965,0.898-23.354-4.491c-5.39-4.491-8.982-13.474-4.491-23.354c1.797-2.695,0.898-6.288-0.898-8.982 c-2.695-2.695-5.389-4.491-8.982-3.593c-10.779,1.797-17.965-3.593-21.558-9.881c-3.593-6.288-5.389-16.168,1.797-24.253 c2.695-2.695,2.695-6.288,1.797-8.982c-0.898-2.695-3.593-5.389-7.186-5.389c-9.881-0.898-16.168-8.084-17.965-15.27 c-1.797-7.186-0.898-16.168,8.084-22.456c2.695-2.695,3.593-5.389,3.593-8.982c-0.898-3.593-2.695-6.288-6.288-7.186 c-9.881-3.593-13.474-12.575-13.474-19.761s3.593-16.168,13.474-19.761c3.593-0.898,6.288-3.593,6.288-7.186 c0.898-3.593-0.898-7.186-3.593-8.982c-8.982-6.288-9.881-15.27-8.084-22.456c1.797-6.288,7.186-14.372,17.965-15.27 c2.695,0,6.288-2.695,7.186-5.389c0.898-2.695,0-6.288-1.796-8.982c-6.288-8.084-5.389-17.965-1.797-24.253 c3.593-6.288,10.779-11.677,21.558-9.881c3.593,0,7.186-0.898,8.982-3.593c2.695-2.695,2.695-6.288,2.695-10.779 c-4.491-9.881-0.898-17.965,4.491-23.354c4.491-5.389,13.474-8.982,23.354-4.491c2.695,1.797,6.288,0.898,8.982-0.898 c2.695-2.695,4.491-5.39,3.593-8.982c-0.593-3.559-0.009-6.724,0.973-9.5c1.45,7.532,2.62,17.731,2.62,31.057 c0,7.708,3.98,22.685,19.864,30.755c-5.368-0.087-11.121-2.088-16.271-6.502c-3.593-3.593-8.982-3.593-12.575,0 c-2.695,3.593-3.593,8.982,0,12.575c8.982,10.779,7.186,24.253,1.797,31.439c-5.389,7.186-16.168,14.372-29.642,9.881 c-4.491-0.898-9.881,0.898-11.677,5.389c-1.797,4.491,0,9.881,4.491,11.677c13.474,6.288,15.27,18.863,13.474,27.846 c-1.797,8.982-8.982,19.761-23.354,20.66c-4.491,0-8.084,4.491-8.084,8.982s3.593,8.982,5.389,11.677 c14.372,0.898,21.558,11.677,23.354,20.66c1.796,8.982,0,21.558-13.474,27.846c-4.491,1.797-6.288,7.186-4.491,11.677 c1.797,4.491,7.186,7.186,11.677,5.389c13.474-4.491,24.253,2.695,29.642,9.881c5.389,8.084,8.084,20.66-1.797,31.439 c-3.593,3.593-3.593,8.982,0,12.576c3.593,2.695,8.982,3.593,12.575,0c10.779-8.982,24.253-7.186,31.439-1.797 s14.372,16.168,9.881,29.642c-0.898,4.491,0.898,9.881,5.389,11.677s9.881,0,11.677-4.491 c6.288-12.575,18.863-15.27,27.846-13.474c8.982,1.796,19.761,8.982,20.66,23.354c0,4.491,4.491,8.084,8.982,8.084 c4.491,0,8.982-3.593,8.982-8.084c0.898-14.372,11.677-21.558,20.66-23.354c8.982-1.797,21.558,0,27.846,13.474 c1.797,4.491,7.186,6.288,11.677,4.491c4.491-1.797,7.186-7.186,5.389-11.677c-4.491-13.474,2.695-24.253,9.881-29.642 c8.084-5.389,20.66-8.084,31.439,1.797c3.593,3.593,9.881,3.593,12.576,0c2.695-3.593,3.593-8.982,0-12.576 c-8.982-10.779-7.186-24.253-1.797-31.439c5.389-7.186,16.168-14.372,29.642-9.881c4.491,0.898,9.881-0.898,11.677-5.389 c1.797-4.491,0-9.881-4.491-11.677c-12.576-6.288-15.27-18.863-13.474-27.846c1.796-8.982,8.982-19.761,23.354-20.66 c4.491,0,8.084-4.491,8.084-8.982s-3.593-8.982-8.084-8.982c-14.372-0.898-21.558-11.677-23.354-20.66 c-1.797-8.982,0-21.558,13.474-27.846c4.491-1.796,6.288-7.186,4.491-11.677s-7.186-7.186-11.677-5.389 c-13.474,4.491-24.253-2.695-29.642-9.881c-5.389-8.084-8.084-20.66,1.797-31.439c3.593-3.593,3.593-9.881,0-12.575 c-3.593-2.695-8.982-3.593-12.576,0c-6.288,5.389-13.474,7.186-19.761,6.288c17.565-7.026,22.246-22.634,21.607-30.882 c0.064-1.129,0.048-2.18-0.039-3.124c0.032-4.649,0.153-8.864,0.364-12.699c0.389-6.354,1.048-11.811,1.825-16.42 c0.158-0.839,0.322-1.66,0.496-2.447c2.695,3.593,3.593,8.084,2.695,13.474c0,3.593,0.898,7.186,3.593,8.982 c2.695,1.797,6.288,2.695,8.982,0.898c9.881-4.491,17.965-0.898,23.354,4.491c5.389,4.491,8.982,13.474,4.491,23.354 c-1.797,2.695-0.898,6.288,0.898,8.982c2.695,2.695,5.389,4.491,8.982,3.593c10.779-1.797,17.965,3.593,21.558,9.881 c3.593,6.288,5.389,16.168-1.797,24.253c-2.695,2.695-2.695,6.288-1.797,8.982c0.898,2.695,3.593,5.389,7.186,5.389 c10.779,0.898,16.168,8.084,17.965,15.27c1.796,7.186,0.898,16.168-8.084,22.456c-2.695,2.695-4.491,5.39-3.593,8.982 s2.695,6.288,6.288,7.186c9.881,3.593,13.474,12.575,13.474,19.761S473.779,285.654,463.899,289.247z"/>

</svg>