<?xml version="1.0" encoding="UTF-8"?>
<svg width="24px" fill="#44739e" height="24px" viewBox="0 0 24 24" version="1.1" xmlns="http://www.w3.org/2000/svg" xmlns:xlink="http://www.w3.org/1999/xlink">
            <path d="m 13.284964,9.633 v -1.407 0 -1 h 0.254 l 0.325,-0.019 V 3.721 l -0.018,-0.321 h -0.39 V 2 h -2.362 v 1.4 h -0.083 l -0.325,0.018 V 6.9 l 0.019,0.325 h 0.56 v 1.315 0 1.093 a 4.955,4.955 0 0 0 -3.934,4.842 v 2.58 a 4.947,4.947 0 0 0 9.894,0 v -2.58 a 4.952,4.952 0 0 0 -3.94,-4.842 z m -1.578,-6.954 h 1.137 V 3.4 h -1.137 z m 0.986,9.238 a 3.815,3.815 0 0 1 2.914,1.926 5.649,5.649 0 0 0 -2,-0.1 2.38,2.38 0 0 0 -1.337,-0.409 v 0 a 2.391,2.391 0 0 0 -2.2,1.451 3.093,3.093 0 0 1 -0.639,-1.618 3.819,3.819 0 0 1 3.262,-1.25 z m 1.019,3.808 a 1.437,1.437 0 1 1 -1.437,-1.436 1.437,1.437 0 0 1 1.437,1.436 z m -5.052,1.268 a 3.814,3.814 0 0 1 0.059,-2.683 4.149,4.149 0 0 0 1.189,1.667 2.383,2.383 0 0 0 2.023,2.107 v 0 a 3.1,3.1 0 0 1 -1.549,0.966 3.82,3.82 0 0 1 -1.722,-2.057 z m 6.379,1.387 a 3.817,3.817 0 0 1 -3.326,1.127 3.64,3.64 0 0 0 1.43,-1.557 2.391,2.391 0 0 0 1.526,-2.225 v 0 a 2.359,2.359 0 0 0 -0.266,-1.076 3.725,3.725 0 0 1 1.634,0.364 3.819,3.819 0 0 1 -0.998,3.367 z"/>

</svg>