<svg xmlns="http://www.w3.org/2000/svg" viewBox="0 0 24 24"><path fill="#44739e" d="M13.007 9.632V7.225h.254l.325-.019V3.721l-.018-.321h-.39V2h-2.362v1.4h-.083l-.325.018V6.9l.019.324h.56v2.408a4.955 4.955 0 0 0-3.934 4.842v2.579a4.947 4.947 0 0 0 9.894 0v-2.579a4.95 4.95 0 0 0-3.94-4.842m-1.578-6.953h1.137V3.4h-1.137Zm.986 9.237a3.82 3.82 0 0 1 2.914 1.926 5.7 5.7 0 0 0-2-.1 2.4 2.4 0 0 0-1.337-.409 2.39 2.39 0 0 0-2.2 1.451 3.1 3.1 0 0 1-.639-1.618 3.82 3.82 0 0 1 3.262-1.25m1.019 3.808a1.437 1.437 0 1 1-1.437-1.436 1.437 1.437 0 0 1 1.437 1.436m-5.052 1.268a3.8 3.8 0 0 1 .059-2.683 4.15 4.15 0 0 0 1.189 1.667 2.38 2.38 0 0 0 2.023 2.106 3.1 3.1 0 0 1-1.549.966 3.82 3.82 0 0 1-1.722-2.056m6.379 1.386a3.82 3.82 0 0 1-3.326 1.127 3.64 3.64 0 0 0 1.43-1.557 2.39 2.39 0 0 0 1.526-2.224 2.36 2.36 0 0 0-.266-1.076 3.7 3.7 0 0 1 1.634.364 3.82 3.82 0 0 1-.998 3.366"/></svg>