<?xml version="1.0" encoding="UTF-8"?>
<svg width="24px" fill="#44739e" height="24px" viewBox="0 0 24 24" version="1.1" xmlns="http://www.w3.org/2000/svg" xmlns:xlink="http://www.w3.org/1999/xlink">
            <path d="M 2,2.0165244 V 22.016524 H 22 V 2.0165244 Z M 21.7,21.660524 2.367,21.628524 2.3,6.7105244 l 1.139,0.33 a 4.931,4.931 0 0 1 0.061,-0.515 0.589,0.589 0 0 1 0.1,-0.252 c 0,-0.183 0.049,-0.326 0.1,-0.326 0.051,0 0.094,0.136 0.1,0.312 a 1.286,1.286 0 0 1 0.186,0.457 c 0.04,0.133 0.089,0.294 0.153,0.479 l 0.166,0.037 -0.074,-0.488 a 0.956,0.956 0 0 1 -0.031,-0.184 l -0.036,-0.239 0.041,0.031 c 0.015,-0.138 0.052,-0.235 0.1,-0.235 0.048,0 0.1,0.164 0.1,0.366 v 0.018 l 0.272,0.205 0.008,0.017 0.019,0.038 c 0.041,0.086 0.144,0.3 0.27,0.559 h 2.9 l -0.194,0.696 -0.725,2.9549996 -0.35,0.994 0.315,1.52 a 0.54,0.54 0 0 0 0.235,0.347 0.481,0.481 0 0 0 0.373,0.065 L 9,13.558524 a 0.43,0.43 0 0 0 0.079,-0.026 0.548,0.548 0 0 0 0.318,-0.583 l -0.247,-1.746 -0.124,-0.7 -0.562,-3.1869996 h 0.66 a 3.34,3.34 0 0 0 0.182,1.3 4.927,4.927 0 0 1 0.207,1.09 2.028,2.028 0 0 1 -0.086,0.6239996 l 0.153,0.863 0.247,1.748 a 0.6,0.6 0 0 1 -0.414,0.669 c -0.142,0.309 -0.328,0.648 -0.521,1.01 -0.492,0.923 -0.018,0.717 -0.181,1.349 -0.171,0.662 -0.089,1.562 0.414,1.712 a 0.965,0.965 0 0 0 0.932,-0.342 c 0.138,-0.2 0.058,-0.4 0,-0.645 a 2.263,2.263 0 0 1 0.1,-1.591 c 0.1,0 0.074,1.193 0.466,1.249 0.235,0.033 0.563,-0.352 0.7,-0.7 0.157,-0.408 0.026,-0.689 -0.1,-1.249 a 8.5,8.5 0 0 1 -0.207,-1.812 c -0.018,-0.745 0.093,-0.75 0.078,-1.571 a 10.927,10.927 0 0 0 -0.156,-1.5309996 5.063,5.063 0 0 0 -0.491,-1.893 c -0.05,-0.084 -0.111,-0.177 -0.179,-0.271 h 0.4 v -1.5 H 4.7 l -1.692,-0.6 -0.709,-0.3 v -2.553 H 21.7 Z M 2.933,6.1435244 c 0,-0.2 0.046,-0.367 0.1,-0.367 0.054,0 0.1,0.164 0.1,0.367 0,0.203 -0.046,0.366 -0.1,0.366 -0.054,0 -0.1,-0.164 -0.1,-0.366 z m 2.262,0.4 c 0,-0.2 0.081,-0.367 0.181,-0.367 0.1,0 0.182,0.164 0.182,0.367 0,0.203 -0.081,0.366 -0.182,0.366 -0.101,0 -0.176,-0.16 -0.176,-0.362 z m 1.229,0.026 c 0,-0.2 0.081,-0.366 0.181,-0.366 0.1,0 0.181,0.164 0.181,0.366 0,0.202 -0.081,0.366 -0.181,0.366 -0.1,0 -0.181,-0.16 -0.181,-0.362 z m 1.507,-0.026 c 0,-0.2 0.081,-0.367 0.181,-0.367 0.1,0 0.182,0.164 0.182,0.367 a 0.627,0.627 0 0 1 -0.046,0.242 l -0.158,-0.28 -0.09,0.331 a 0.569,0.569 0 0 1 -0.069,-0.289 z m 0.4,0.773 0.669,4.0719996 -2.1,0.441 1.076,-4.5129996 z m -0.256,-0.415 0.034,-0.143 0.071,0.125 a 0.1,0.1 0 0 1 -0.067,0.026 0.1,0.1 0 0 1 -0.039,0 z m 1.28,-0.358 c 0,-0.2 0.081,-0.367 0.181,-0.367 0.1,0 0.182,0.164 0.182,0.367 a 0.692,0.692 0 0 1 -0.024,0.181 0.363,0.363 0 0 0 -0.257,-0.067 0.234,0.234 0 0 0 -0.068,0.026 0.691,0.691 0 0 1 -0.015,-0.136 z m -3.42,8.1569996 a 6.945,6.945 0 0 1 -0.294,-0.708 1.833,1.833 0 0 1 -0.106,-0.83 8.886,8.886 0 0 0 -0.08,-1.686 A 7.094,7.094 0 0 0 5,9.4075244 a 3.456,3.456 0 0 0 -0.3,-0.555 5.528,5.528 0 0 1 -0.368,-0.671 9.732,9.732 0 0 1 -0.53,-1.41 c -0.035,-0.114 -0.07,-0.231 -0.1,-0.3 a 7.49,7.49 0 0 0 -0.141,1.417 20.68,20.68 0 0 0 -0.02,2.2269996 6.3,6.3 0 0 1 -0.023,0.911 c -0.03,0.463 -0.08,1.237 -0.158,2.864 -0.16,3.441 -0.135,4.126 -0.126,4.347 a 0.952,0.952 0 0 1 0,0.151 0.466,0.466 0 0 1 0.091,-0.075 0.346,0.346 0 0 1 0.188,-0.052 1.374,1.374 0 0 1 0.4,0.1 c 0.08,0.026 0.17,0.056 0.276,0.088 a 2.649,2.649 0 0 0 0.875,0.177 1.1,1.1 0 0 0 0.835,-0.364 0.537,0.537 0 0 0 0.123,-0.293 0.545,0.545 0 0 0 -0.054,-0.242 0.24,0.24 0 0 1 -0.007,-0.253 0.254,0.254 0 0 1 0.257,-0.06 c 0.074,0.01 0.129,0.015 0.155,-0.01 0.045,-0.044 0.038,-0.175 0.032,-0.271 a 0.963,0.963 0 0 0 -0.021,-0.151 c -0.013,-0.066 -0.027,-0.141 0.038,-0.19 0.085,-0.064 0.18,0 0.264,0.065 l 0.057,0.04 a 2.718,2.718 0 0 0 -0.171,-0.663 c -0.281,-0.757 -0.478,-1.188 -0.637,-1.534 z m 0.365,-3.557 c -0.276,-0.852 -0.694,-2.1359996 -0.722,-2.1999996 -0.028,-0.064 -0.678,-1.415 -1.026,-2.136 l -0.177,-0.133 0.258,1.687 c 0.091,0.174 0.163,0.288 0.229,0.392 a 3.66,3.66 0 0 1 0.308,0.58 7.278,7.278 0 0 1 0.47,2.1209996 9.14,9.14 0 0 1 0.081,1.718 1.658,1.658 0 0 0 0.1,0.761 6.805,6.805 0 0 0 0.287,0.689 c 0.16,0.349 0.36,0.784 0.639,1.543 l 0.018,0.051 0.27,-0.843 0.205,-0.829 -0.527,-0.758 z m 13.002,5.733 h 0.375 l 0.144,-2.662 h -0.506 z m -6.558,0.104 h 0.375 l 0.143,-2.661 h -0.505 z m 8.398,-3.376 -1.439,0.019 a 0.708,0.708 0 0 0 0.219,-0.078 c 0.324,-0.175 0.47,-0.607 0.422,-0.655 -0.027,-0.026 -0.1,0.074 -0.306,0.165 -0.158,0.069 -0.313,0.136 -0.421,0.06 -0.093,-0.066 -0.054,-0.166 -0.185,-0.3 -0.012,-0.012 -0.148,-0.147 -0.225,-0.1 -0.039,0.024 -0.026,0.073 -0.075,0.119 -0.068,0.064 -0.165,0.035 -0.167,0.053 -0.002,0.018 0.062,0.018 0.127,0.066 a 0.4,0.4 0 0 1 0.127,0.178 c 0.04,0.1 0.012,0.138 0.04,0.225 a 0.415,0.415 0 0 0 0.185,0.219 0.34,0.34 0 0 0 0.135,0.047 l -1.17,0.015 a 0.5,0.5 0 0 0 0.083,-0.069 c 0.087,-0.088 0.242,-0.3 0.184,-0.463 -0.123,-0.35 -1.2,-0.333 -1.3,-0.007 -0.051,0.168 0.162,0.4 0.283,0.49 a 0.755,0.755 0 0 0 0.089,0.058 l -2.659,0.034 2.161,-0.036 v -1.921 l -2.731,0.061 v 1.907 l -2.77,0.036 v 0.459 l 9.391,-0.153 z m -6.563,-1.755 2.614,-0.058 v 1.791 l -2.614,0.044 z m 5.451,-6.5469996 -8.279,0.151 v 5.9539996 l 8.16,-0.157 z m -0.565,5.5369996 -7.261,0.14 V 5.8645244 l 7.364,-0.134 z m -4.745,2.683 2.333,-0.039 v -1.59 l -2.333,0.053 z"/>

</svg>