<?xml version="1.0" encoding="UTF-8"?>
<svg width="24px" fill="#44739e" height="24px" viewBox="0 0 24 24" version="1.1" xmlns="http://www.w3.org/2000/svg" xmlns:xlink="http://www.w3.org/1999/xlink">
            <path d="m 8.454,11.7 a 2.51,2.51 0 0 0 -2.013,1.629 c -0.124,0.347 -0.213,0.463 -0.374,0.49 -0.249,0.036 -0.347,0.151 -0.347,0.427 0,0.17 0.053,0.205 0.249,0.205 0.232,0 0.25,0.027 0.214,0.267 -0.027,0.178 -0.089,0.267 -0.2,0.267 -0.169,0 -0.267,0.17 -0.267,0.455 0,0.133 0.062,0.169 0.294,0.169 0.267,0 0.3,0.026 0.392,0.383 a 2.659,2.659 0 0 0 3.223,1.665 l 0.454,-0.107 v -0.632 c 0,-0.588 -0.009,-0.615 -0.16,-0.481 A 1.93,1.93 0 0 1 8.628,16.731 1.585,1.585 0 0 1 7.6,15.88 L 7.511,15.613 h 0.917 c 0.882,0 0.926,-0.009 0.98,-0.205 0.106,-0.419 0.106,-0.419 -0.971,-0.419 H 7.412 v -0.534 h 1.113 c 0.828,0 1.113,-0.027 1.113,-0.116 a 2.029,2.029 0 0 1 0.054,-0.311 c 0.053,-0.2 0.053,-0.2 -1.069,-0.2 A 5.006,5.006 0 0 1 7.5,13.769 a 1.977,1.977 0 0 1 0.748,-0.952 1.9,1.9 0 0 1 1.4,-0.009 c 0.294,0.16 0.285,0.169 0.419,-0.508 0.08,-0.418 0.08,-0.418 -0.2,-0.507 A 3.16,3.16 0 0 0 8.454,11.7 Z m 2.787,-3.14 v 3.713 l 2.627,2.627 2.632,2.627 0.552,-0.561 0.561,-0.552 -2.431,-2.431 -2.422,-2.422 V 4.838 H 11.241 Z M 10.662,2.086 a 9.819,9.819 0 0 0 -5.53,2.681 9.292,9.292 0 0 0 -2.083,2.787 9.972,9.972 0 0 0 0,8.9 A 9.1,9.1 0 0 0 4.99,19.112 9.979,9.979 0 1 0 18.846,4.749 9.88,9.88 0 0 0 10.662,2.086 Z M 14,3.769 a 10.227,10.227 0 0 1 3.081,1.452 8.885,8.885 0 0 1 3.17,4.835 9.279,9.279 0 0 1 -0.045,4.052 8.615,8.615 0 0 1 -6.26,6.153 A 9.3,9.3 0 0 1 9.9,20.217 8.578,8.578 0 0 1 3.792,14.108 6.421,6.421 0 0 1 3.56,12.008 6.418,6.418 0 0 1 3.792,9.908 9.878,9.878 0 0 1 5.017,7.189 9.165,9.165 0 0 1 9.46,3.9 9.015,9.015 0 0 1 14,3.769 Z"/>

</svg>