<svg xmlns="http://www.w3.org/2000/svg" viewBox="0 0 24 24"><path fill="#44739e" d="M8.449 11.687a2.51 2.51 0 0 0-2.011 1.627c-.124.346-.212.462-.372.489-.249.036-.347.151-.347.425 0 .17.053.205.249.205.231 0 .249.027.213.266-.026.178-.088.267-.199.267-.169 0-.267.17-.267.454 0 .134.062.17.294.17.266 0 .298.026.39.381a2.653 2.653 0 0 0 3.218 1.661l.454-.107v-.629c0-.588-.009-.615-.161-.482a1.93 1.93 0 0 1-1.287.295 1.6 1.6 0 0 1-1.027-.85l-.089-.265h.916c.88 0 .924-.009.978-.206.105-.418.105-.418-.969-.418H7.409v-.533H8.52c.826 0 1.11-.027 1.11-.116a2 2 0 0 1 .054-.31c.053-.199.053-.199-1.066-.199a5 5 0 0 1-1.122-.059 2 2 0 0 1 .747-.951 1.9 1.9 0 0 1 1.397-.009c.293.159.284.168.419-.506.08-.418.08-.418-.201-.507a3.2 3.2 0 0 0-1.409-.093m2.781-3.134v3.707l2.623 2.621 2.625 2.621.552-.559.559-.552-2.426-2.424-2.418-2.418V4.838H11.23Zm-.578-6.462a9.8 9.8 0 0 0-5.52 2.676 9.3 9.3 0 0 0-2.079 2.781 9.95 9.95 0 0 0 0 8.883 9.1 9.1 0 0 0 1.938 2.654A9.961 9.961 0 1 0 18.82 4.749a9.86 9.86 0 0 0-8.168-2.658m3.332 1.68a10.2 10.2 0 0 1 3.075 1.449 8.9 8.9 0 0 1 3.164 4.827 9.3 9.3 0 0 1-.045 4.044 8.62 8.62 0 0 1-6.248 6.141 9.3 9.3 0 0 1-4.039-.044 8.57 8.57 0 0 1-6.096-6.097 6.4 6.4 0 0 1-.232-2.096 6.4 6.4 0 0 1 .232-2.097 9.9 9.9 0 0 1 1.223-2.714 9.13 9.13 0 0 1 4.434-3.282 9 9 0 0 1 4.532-.131"/></svg>