<svg xmlns="http://www.w3.org/2000/svg" viewBox="0 0 24 24"><path fill="#44739e" d="M21.997 14.928c0 1.72-2.223 2.546-3.399.549L16.66 12.14v2.788c0 1.72-2.222 2.546-3.398.549l-1.938-3.337v2.629c0 1.193-.708 1.839-1.816 1.839h-2.9a4.608 4.608 0 0 1 0-9.216h1.495V8.5H6.608a3.502 3.502 0 1 0 0 7.002h2.875a.75.75 0 0 0 .733-.731V9.104a.225.225 0 0 1 .161-.227c.117-.032.241.04.332.194l1.794 3.091 1.735 2.99c.234.395.583.465.831.396a.67.67 0 0 0 .485-.656V9.104a.225.225 0 0 1 .159-.228c.117-.032.239.041.33.194l1.662 2.864 1.868 3.221c.183.309.437.419.659.419a.7.7 0 0 0 .171-.023.67.67 0 0 0 .492-.659v-7.5H22ZM8.669 13.642v-4.57c0-1.72 2.223-2.546 3.399-.548.085.144 1.938 3.335 1.938 3.335V9.072c0-1.72 2.221-2.546 3.397-.548.086.144 1.938 3.335 1.938 3.335V7.392h1.109v7.5a.225.225 0 0 1-.161.229c-.117.031-.242-.041-.333-.195a1133 1133 0 0 1-1.867-3.219l-1.661-2.861c-.234-.395-.58-.464-.827-.398a.67.67 0 0 0-.487.655v5.789a.225.225 0 0 1-.161.229c-.119.031-.242-.041-.332-.195-.017-.027-.891-1.534-1.736-2.991l-1.794-3.092c-.233-.396-.582-.465-.831-.398a.67.67 0 0 0-.487.655v5.667a.31.31 0 0 1-.29.29H6.606a3.059 3.059 0 0 1 0-6.12h1.496v1.107H6.618a1.953 1.953 0 1 0 0 3.906h1.745a.303.303 0 0 0 .306-.308"/></svg>