<?xml version="1.0" encoding="UTF-8"?>
<svg xmlns="http://www.w3.org/2000/svg" fill="#44739e" width="24" height="24" viewBox="0 0 24 24">
  <path d="m 11.712687,1.2819719 a 0.09722928,0.09722928 0 0 0 -0.08152,0.094973 l -0.01272,1.2363252 c 0,0.037945 0.0186,0.055697 0.0559,0.053256 l 0.163206,-0.011095 c 0.04219,-0.00333 0.06285,-0.02574 0.06163,-0.067901 l -0.01577,-0.5100475 c -6.41e-4,-0.021968 0.01021,-0.03273 0.03224,-0.032065 h 0.03762 a 0.02293143,0.02201418 4.6 0 1 0.02293,0.026517 c -0.02813,0.1498267 0.0093,0.2764537 0.112686,0.3798035 a 0.0623735,0.0623735 0 0 0 0.09997,-0.016531 l 0.191872,-0.3824996 a 0.03577304,0.03577304 0 0 1 0.06682,0.012981 c 0.01162,0.1449338 0.01323,0.2986548 0.0047,0.4613184 -0.003,0.060579 0.0082,0.1052914 0.03386,0.1340052 0.04648,0.051925 0.110361,0.048818 0.191692,-0.00888 a 0.12291248,0.12291248 0 0 0 0.05052,-0.099078 V 1.3982473 a 0.10915362,0.10915362 0 0 0 -0.204592,-0.052257 l -0.375144,0.6743309 a 0.04769738,0.04769738 0 0 1 -0.08617,-0.00555 C 11.976175,1.792796 12.009227,1.4296017 11.778079,1.2947644 a 0.09722928,0.09722928 0 0 0 -0.06539,-0.012426 z m -0.867095,0.06657 a 0.71546068,0.53109199 83.2 0 0 -0.06951,0.00222 0.71546068,0.53109199 83.2 0 0 -0.442684,0.7732205 0.71546068,0.53109199 83.2 0 0 0.612161,0.6476364 0.71546068,0.53109199 83.2 0 0 0.442506,-0.7733981 0.71546068,0.53109199 83.2 0 0 -0.542471,-0.6496002 z m 2.304788,0.013647 c -0.02388,0.00222 -0.03764,0.015866 -0.04138,0.042161 l -0.17611,1.2365023 a 0.06329076,0.06329076 0 0 0 0.04855,0.069676 c 0.391669,0.088094 1.173278,0.094529 0.843985,-0.5915513 -0.01407,-0.029956 -0.0132,-0.059469 0.0027,-0.088094 0.281598,-0.5054098 -0.315493,-0.6475033 -0.666803,-0.6685949 -0.0039,-1.886e-4 -0.0075,-2.773e-4 -0.01087,0 z m 1.245464,0.2164188 c -0.04064,0.00222 -0.07679,0.030289 -0.08725,0.072006 L 14.018547,2.805424 c -0.01287,0.051259 0.01807,0.1028505 0.06933,0.1157318 l 0.09961,0.025075 c 0.05125,0.01287 0.102862,-0.018085 0.115733,-0.069344 l 0.290047,-1.1548214 c 0.01287,-0.051259 -0.0179,-0.1028505 -0.06915,-0.1157318 l -0.09961,-0.024853 c -0.0097,-0.00222 -0.01928,-0.00333 -0.02867,-0.00222 z m -4.8654055,0.030622 c -0.038755,-0.00222 -0.08552,0.00888 -0.1400963,0.031732 a 0.08347042,0.08347042 0 0 0 -0.048552,0.095528 L 9.6205506,2.936279 c 0.00921,0.039165 0.033418,0.053922 0.072561,0.044824 L 10.256364,2.855518 c 0.03363,-0.00777 0.05308,-0.028958 0.05858,-0.063242 0.01407,-0.089315 -0.01651,-0.1531662 -0.09172,-0.191688 a 0.08713944,0.0880567 50 0 0 -0.06879,-0.00555 L 9.919745,2.669374 A 0.06053898,0.05962173 74 0 1 9.842535,2.626214 C 9.7703742,2.3308694 9.7040373,2.0346445 9.6434986,1.7374542 9.6294302,1.667112 9.6037675,1.62646 9.5664662,1.6154427 c -0.011162,-0.00333 -0.023089,-0.00555 -0.036014,-0.00555 z m 1.2827265,0.01165 a 0.43661449,0.22931433 83.5 0 1 0.277328,0.4077513 0.43661449,0.22931433 83.5 0 1 -0.178435,0.4598871 0.43661449,0.22931433 83.5 0 1 -0.277327,-0.4079404 0.43661449,0.22931433 83.5 0 1 0.178434,-0.459698 z m 2.628159,0.034062 a 0.13850585,0.12841603 45.6 0 1 0.11627,0.042938 0.13850585,0.12841603 45.6 0 1 0.005,0.1888256 0.13850585,0.12841603 45.6 0 1 -0.188646,-0.00888 0.13850585,0.12841603 45.6 0 1 -0.005,-0.1888367 0.13850585,0.12841603 45.6 0 1 0.07237,-0.03384 z m 1.88163,0.1512025 a 0.16418905,0.16418905 0 0 0 -0.139201,0.070564 C 14.95016,2.209358 14.720844,2.5541901 14.49581,2.9113043 c -0.03241,0.05137 -0.0082,0.092088 0.07256,0.1220005 a 0.15134745,0.14859569 36.8 0 0 0.137589,-0.018307 c 0.13392,-0.093531 0.266887,-0.090202 0.398971,0.00999 0.02018,0.015311 0.03142,0.035171 0.03386,0.059691 0.01162,0.1259614 0.07842,0.1988111 0.200113,0.2183826 a 0.08897396,0.08989122 5.4 0 0 0.103549,-0.086319 L 15.482763,1.976651 A 0.16418905,0.16418905 0 0 0 15.322959,1.8060989 Z M 8.6853791,1.8467509 A 0.71454348,0.53200925 71.1 0 0 8.5470746,1.8683861 0.71454348,0.53200925 71.1 0 0 8.2753007,2.7166642 0.71454348,0.53200925 71.1 0 0 9.0100028,3.2204431 0.71454348,0.53200925 71.1 0 0 9.2819553,2.3719875 0.71454348,0.53200925 71.1 0 0 8.6853791,1.8467065 Z m 4.6391369,0.2710616 h 0.0091 a 0.26783914,0.18253421 0.5 0 1 0.26604,0.1854193 v 0.023854 a 0.26783914,0.18253421 0.5 0 1 -0.269623,0.1796943 h -0.0091 a 0.04035932,0.04035932 0 0 1 -0.0396,-0.041162 l 0.002,-0.308141 a 0.04035932,0.04035932 0 0 1 0.04121,-0.039609 z m -4.6579473,0.00333 a 0.44211803,0.23573513 70.4 0 1 0.32946,0.3448654 0.44211803,0.23573513 70.4 0 1 -0.073626,0.4955352 0.44211803,0.23573513 70.4 0 1 -0.3704871,-0.337343 0.44211803,0.23573513 70.4 0 1 0.073815,-0.4955352 0.44211803,0.23573513 70.4 0 1 0.040841,-0.00777 z m 7.5177473,0.016975 a 0.10273282,0.10273282 0 0 0 -0.08868,0.057583 l -0.499117,1.0310124 a 0.14767843,0.14859569 21.4 0 0 0.08994,0.2063889 c 0.212804,0.06424 0.300781,-0.3779839 0.354899,-0.5247372 a 0.04586287,0.04586287 0 0 1 0.08438,-0.00444 c 0.102118,0.2231978 0.131274,0.435234 0.08725,0.6358091 -0.01407,0.06424 -0.01407,0.1072885 0,0.1293453 0.02262,0.034838 0.06763,0.058914 0.134901,0.072339 a 0.11282265,0.11282265 0 0 0 0.125585,-0.067014 c 0.142481,-0.3418364 0.298663,-0.686369 0.468661,-1.0337085 0.04219,-0.086208 0.0111,-0.1509584 -0.09352,-0.194373 -0.0691,-0.028736 -0.119016,-0.00888 -0.149592,0.059469 l -0.213548,0.4788817 a 0.03669029,0.03669029 0 0 1 -0.06987,-0.00888 L 16.289121,2.2235366 a 0.10273282,0.10273282 0 0 0 -0.104803,-0.085764 z m -8.4178057,0.083101 a 0.11007088,0.11098814 21.6 0 0 -0.034583,0.00444 C 6.9944532,2.4210273 7.4338128,3.7371476 8.2290735,3.51608 8.329361,3.4878987 8.3655906,3.4213288 8.3374604,3.3161484 A 0.06787705,0.06695978 79.6 0 0 8.2648992,3.2657772 C 7.9071692,3.3054972 7.7065452,3.1483146 7.6631283,2.7942404 7.6429466,2.6260848 7.6947491,2.5034963 7.8182728,2.4264527 a 0.11007088,0.11098814 21.6 0 0 -0.05178,-0.2045915 z m 7.4356967,0.076112 0.0062,0.00222 a 0.09906379,0.41001402 17.7 0 1 -0.0301,0.4209992 l -0.0038,0.011095 a 0.03852481,0.03852481 0 0 1 -0.04855,0.024742 l -0.122001,-0.0385 a 0.03852481,0.03852481 0 0 1 -0.02491,-0.048485 l 0.0038,-0.011095 A 0.09906379,0.41001402 17.7 0 1 15.202141,2.2978508 Z M 6.5618931,2.8204578 a 0.05962173,0.05962173 0 0 0 -0.029735,0.01165 l -0.1264828,0.094418 c -0.037945,0.027516 -0.043049,0.060246 -0.015533,0.098191 L 6.687354,3.4439293 A 0.032104,0.032104 0 0 1 6.651517,3.4924143 L 5.9076873,3.2401699 A 0.08713944,0.08622218 82.6 0 0 5.8077215,3.370414 c 0.2189151,0.3308191 0.4362437,0.6635577 0.6521077,0.9980492 0.044047,0.067901 0.1070666,0.077665 0.189003,0.029402 0.086219,-0.050704 0.1012307,-0.1173738 0.044968,-0.1999316 L 6.3790366,3.7364375 C 6.3441984,3.6857334 6.356181,3.6695347 6.4148734,3.6878415 6.6600948,3.7636202 6.88581,3.8770109 7.0918871,4.0280469 A 0.13942311,0.14034037 1 0 0 7.2900296,3.8363589 L 6.6176786,2.8467196 A 0.05962173,0.05962173 0 0 0 6.5619818,2.8204245 Z M 17.622369,2.9206455 a 0.1440094,0.1440094 0 0 0 -0.08312,0.033507 L 16.60461,3.7438489 a 0.12841603,0.12841603 0 0 0 0.141351,0.2128351 c 0.08867,-0.044602 0.180679,-0.055031 0.276073,-0.031177 a 0.23940417,0.23756965 7.1 0 1 0.179688,0.2293222 c 6.44e-4,0.1186276 0.06062,0.1874276 0.17987,0.2063778 a 0.06695978,0.06787705 11.8 0 0 0.07525,-0.049484 L 17.771429,3.1008391 A 0.1440094,0.1440094 0 0 0 17.622374,2.9206011 Z M 17.426914,3.361893 a 0.03118675,0.03118675 0 0 1 0.02526,0.04083 l -0.1349,0.3704837 a 0.03118675,0.03118675 0 0 1 -0.04587,0.015533 l -0.14583,-0.093531 a 0.03118675,0.03118675 0 0 1 -0.0054,-0.048485 l 0.281448,-0.2771416 a 0.03118675,0.03118675 0 0 1 0.02526,-0.00777 z M 12.034085,3.415482 C 11.770374,3.4151824 11.506868,3.434565 11.24331,3.473398 a 0.06695978,0.06695978 0 0 0 -0.03028,0.1191379 l 0.765873,0.5806227 c 0.0214,0.016532 0.04302,0.017308 0.06504,0.00222 0.260501,-0.1797831 0.518685,-0.3623732 0.774294,-0.5476706 0.03975,-0.028736 0.05503,-0.067236 0.04587,-0.1155542 -0.0037,-0.021413 -0.01651,-0.033618 -0.03851,-0.036724 -0.263867,-0.039389 -0.527784,-0.05936 -0.791495,-0.059693 z M 4.9937724,3.5518169 a 0.0816359,0.11832619 5.1 0 0 -0.081104,0.1105061 0.0816359,0.11832619 5.1 0 0 0.070786,0.1250516 0.0816359,0.11832619 5.1 0 0 0.091866,-0.1105061 0.0816359,0.11832619 5.1 0 0 -0.070786,-0.1250516 0.0816359,0.11832619 5.1 0 0 -0.011095,0 z m 13.6653466,0.094418 a 0.07429784,0.07429784 0 0 0 -0.05124,0.024298 l -0.814424,0.9181543 a 0.07429784,0.07429784 0 0 0 0.0054,0.1044038 l 0.0946,0.083434 a 0.69344651,0.6512527 41.6 0 0 0.951117,-0.026517 l 0.04873,-0.055031 a 0.69344651,0.6512527 41.6 0 0 -0.08635,-0.9466462 l -0.09441,-0.083434 a 0.07429784,0.07429784 0 0 0 -0.05339,-0.018861 z m -4.706676,0.022412 a 0.10273282,0.1008983 33 0 0 -0.04084,0.018418 L 12.50723,4.7299156 a 0.3632339,0.36048213 71.8 0 0 -0.145828,0.2907552 v 2.1620074 a 0.33755069,0.33846795 14.8 0 0 0.169657,0.2936298 c 1.281713,0.7393087 2.562569,1.4824652 3.842447,2.2297234 0.358648,0.210051 1.182325,-0.2154912 1.789548,-0.438385 0.132697,-0.048307 0.243764,-0.1009643 0.333044,-0.1578317 a 0.12291248,0.12199522 81.8 0 0 0.05124,-0.068789 L 19.05828,7.2450285 a 0.11098814,0.11190539 35.8 0 0 -0.01469,-0.09352 C 17.883257,5.4362401 16.011154,4.1484941 13.997776,3.6696901 a 0.10273282,0.1008983 33 0 0 -0.04532,-0.00111 z m -3.845852,0.00444 a 0.15226472,0.1504302 55.8 0 0 -0.06593,0.00222 C 7.9756152,4.2011953 6.3201001,5.3218219 5.073856,7.0370887 5.0005182,7.1379865 4.9931955,7.2040804 5.0280337,7.3178206 5.1870248,7.8400449 5.3342553,8.3655843 5.4700024,8.8945354 5.5076144,9.0385439 5.5700792,9.1294185 5.7159782,9.189956 6.2681645,9.4180478 6.8141886,9.6160389 7.3541475,9.784203 A 0.27609445,0.27701171 39 0 0 7.5752206,9.760371 L 11.546838,7.4691991 a 0.29627411,0.29627411 0 0 0 0.148696,-0.2569043 c 0.0018,-0.7013949 0.0018,-1.4187777 0,-2.1519709 -9.42e-4,-0.2192258 -0.0917,-0.2613867 -0.245796,-0.3833761 -0.413989,-0.3283782 -0.841475,-0.6540493 -1.28237,-0.9769133 a 0.15226472,0.1504302 55.8 0 0 -0.06073,-0.026517 z M 5.3780583,3.7383236 A 0.7062881,0.53017473 49 0 0 5.115784,3.8407303 0.7062881,0.53017473 49 0 0 5.1790254,4.7216277 0.7062881,0.53017473 49 0 0 6.0425369,4.9068695 0.7062881,0.53017473 49 0 0 5.9792955,4.0259833 0.7062881,0.53017473 49 0 0 5.3780583,3.7382682 Z m -0.00444,0.2649593 A 0.43569722,0.23390061 50 0 1 5.7546664,4.2180818 0.43569722,0.23390061 50 0 1 5.8555198,4.702156 0.43569722,0.23390061 50 0 1 5.3963539,4.5187004 0.43569722,0.23390061 50 0 1 5.2955005,4.0346374 0.43569722,0.23390061 50 0 1 5.3736092,4.0032386 Z m 13.2921647,0.00999 a 0.01651063,0.01651063 0 0 1 0.01183,0.00333 l 0.0055,0.00444 a 0.30269491,0.37791002 40.2 0 1 -0.0129,0.4842517 l -0.01827,0.022079 a 0.30269491,0.37791002 40.2 0 1 -0.47511,0.093531 l -0.0055,-0.00444 a 0.01651063,0.01651063 0 0 1 -0.0027,-0.023854 L 18.654674,4.018423 a 0.01651063,0.01651063 0 0 1 0.01111,-0.00555 z m 0.854733,0.4013056 a 0.05044916,0.04953189 46.8 0 0 -0.02274,0.012537 l -0.866019,0.8117423 a 0.1375886,0.13667134 47.3 0 0 -0.0073,0.1934799 l 0.317456,0.3448676 a 0.07429784,0.07429784 0 0 0 0.107311,0.00288 l 0.09352,-0.094596 c 0.0263,-0.026295 0.02658,-0.052812 9.42e-4,-0.079718 L 18.965744,5.4250086 c -0.02935,-0.029968 -0.02907,-0.059968 9.42e-4,-0.089936 l 0.207277,-0.2072765 a 0.05044916,0.05136641 45.4 0 1 0.07256,0 l 0.216414,0.2239411 a 0.07429784,0.07704961 58 0 0 0.08079,0.017419 c 0.0905,-0.034838 0.126836,-0.1036271 0.109108,-0.2063777 -0.0055,-0.028736 -0.02079,-0.050815 -0.04587,-0.066126 -0.09479,-0.055031 -0.149605,-0.1339276 -0.164281,-0.2366672 a 0.05503544,0.05503544 0 0 1 0.0928,-0.047708 l 0.22824,0.2164188 a 0.05228367,0.05320092 46.2 0 0 0.07166,8.765e-4 l 0.111791,-0.097969 c 0.0318,-0.028181 0.0334,-0.057583 0.0047,-0.088094 L 19.569332,4.429844 a 0.05044916,0.04953189 46.8 0 0 -0.04873,-0.0152 z m -14.9858671,0.00111 c -0.022745,2.774e-4 -0.045489,0.00888 -0.062687,0.027072 l -0.075557,0.077443 c -0.034395,0.035282 -0.033618,0.091312 0.00111,0.1257617 l 0.8547354,0.8341286 c 0.035282,0.034428 0.091312,0.033662 0.1257616,-0.00166 l 0.075557,-0.077399 c 0.034394,-0.035282 0.033618,-0.091345 -0.00111,-0.1257694 L 4.5979034,4.4411243 C 4.5802624,4.4239271 4.5574067,4.4153839 4.534662,4.4157168 Z M 4.089276,4.8357951 a 0.05595269,0.05686995 25.7 0 0 -0.045489,0.031177 c -0.3935058,0.7814996 0.5365201,1.5107773 1.0887064,0.9072224 0.015866,-0.017741 0.020193,-0.038211 0.01287,-0.061444 -0.027516,-0.086219 -0.087761,-0.1244413 -0.1807595,-0.1146577 -0.029402,0.003 -0.055364,0.014013 -0.077887,0.032963 -0.09109,0.075213 -0.1735921,0.1008867 -0.2475846,0.077032 C 4.2630568,5.5876222 4.134244,5.3399955 4.2528827,4.9651404 c 0.01165,-0.037945 -6.546e-4,-0.064684 -0.036724,-0.080661 l -0.099078,-0.044047 a 0.05595269,0.05686995 25.7 0 0 -0.027848,-0.00444 z m 16.344021,0.5883337 a 0.04769738,0.04769738 0 0 0 -0.02382,0.00877 l -1.038363,0.754946 a 0.06512527,0.06512527 0 0 0 -0.0129,0.09352 l 0.111074,0.1375889 c 0.01895,0.023843 0.04057,0.026584 0.06504,0.00821 l 0.46239,-0.3430758 c 0.02874,-0.021402 0.05412,-0.017641 0.07615,0.011106 l 0.159624,0.2173119 a 0.12107796,0.12107796 0 0 0 0.209966,-0.1155531 c -0.02874,-0.074603 -0.08225,-0.1546319 -0.16052,-0.2402431 a 0.0623735,0.0623735 0 0 1 -0.01271,-0.060556 c 0.01712,-0.054421 0.06355,-0.060645 0.139379,-0.018451 0.02508,0.013447 0.04772,0.030345 0.0679,0.050515 L 20.602989,6.054878 A 0.11649168,0.11649168 0 0 0 20.782845,5.9079688 L 20.47739,5.4457573 a 0.04769738,0.04769738 0 0 0 -0.04407,-0.02168 z M 3.3189291,5.8757701 A 0.12107796,0.12107796 0 0 0 3.2099764,6.0282284 c 0.077998,0.2926047 0.5979419,0.8200425 0.8070824,1.0695365 0.021413,0.025075 0.04438,0.026672 0.068789,0.00466 L 4.2024782,6.9995854 a 0.06420801,0.06420801 0 0 0 0.00777,-0.087062 C 4.0203762,6.6703673 4.2853577,6.5088232 4.5045946,6.5042365 A 0.13942311,0.13942311 0 0 0 4.541319,6.2319257 L 3.3608904,5.8806086 a 0.12107796,0.12107796 0 0 0 -0.042494,-0.00488 z m 0.3858947,0.3640364 a 0.03760756,0.03760756 0 0 1 0.019749,0.00211 l 0.3118911,0.112866 a 0.03760756,0.03760756 0 0 1 0.018307,0.056795 L 3.9548049,6.553824 a 0.03760756,0.03760756 0 0 1 -0.059691,0.00266 L 3.6824674,6.3015523 a 0.03760756,0.03760756 0 0 1 0.022412,-0.06181 z m 17.2673622,0.035116 a 0.06695978,0.06787705 49.4 0 0 -0.02615,0.00932 c -0.358647,0.2155555 -1.329012,0.5896673 -0.798837,1.1748767 0.343971,0.3797446 0.94921,-0.084255 1.267498,-0.2805511 0.07338,-0.045245 0.08914,-0.1110242 0.04694,-0.1972466 A 0.12291248,0.12291248 0 0 0 21.29646,6.9254243 c -0.208522,0.1033498 -0.422549,0.2194222 -0.64208,0.3484502 -0.133002,0.077964 -0.260464,0.1045147 -0.353108,-0.035826 a 0.20821741,0.20821741 0 0 1 0.07059,-0.295242 l 0.74939,-0.4292471 a 0.08347042,0.08347042 0 0 0 0.01087,-0.1366925 l -0.10821,-0.087251 a 0.06695978,0.06787705 49.4 0 0 -0.05177,-0.01469 z M 21.465749,6.49295 a 0.12199522,0.09172573 5.1 0 0 -0.113762,0.08116 0.12199522,0.09172573 5.1 0 0 0.113403,0.1022958 0.12199522,0.09172573 5.1 0 0 0.129528,-0.080439 0.12199522,0.09172573 5.1 0 0 -0.113224,-0.1022957 0.12199522,0.09172573 5.1 0 0 -0.01594,-7.4e-4 z M 2.9989609,6.7154562 C 2.7463059,6.7296689 2.5258153,7.121952 2.444134,7.3132861 a 0.05228367,0.05320092 24.7 0 0 0.024631,0.067901 l 1.0786764,0.561462 A 0.11740894,0.11740894 0 0 0 3.7188922,7.8333635 C 3.7144542,7.7263523 3.6585355,7.6630299 3.5521013,7.6434617 A 0.0256832,0.0256832 0 0 1 3.5383435,7.59957 l 0.03384,-0.033152 C 3.5880495,7.549909 3.6074655,7.543585 3.6300995,7.547246 3.83924,7.577824 3.9605082,7.488265 3.9941371,7.2785177 c 0.00555,-0.037911 -0.00888,-0.052346 -0.045933,-0.043182 L 3.292512,7.3949596 C 3.24791,7.4059436 3.232932,7.3898596 3.247577,7.3464076 3.306269,7.1721287 3.3649952,6.9436963 3.2164,6.8051898 3.142951,6.7371668 3.0696577,6.7114598 2.998905,6.7154318 Z m -0.021635,0.2726692 a 0.10823636,0.26050108 26.9 0 1 0.02452,0.00499 l 0.02097,0.011106 a 0.10823636,0.26050108 26.9 0 1 -0.02097,0.2807309 l -0.00777,0.014512 a 0.04311109,0.04311109 0 0 1 -0.057916,0.018451 L 2.7985744,7.2482307 a 0.04311109,0.04311109 0 0 1 -0.018307,-0.057872 l 0.00555,-0.013791 A 0.10823636,0.26050108 26.9 0 1 2.9760719,6.9880999 Z M 21.56433,7.3885301 c -0.01886,-3.939e-4 -0.03961,0.00388 -0.06234,0.012903 a 0.11098814,0.11007088 67.9 0 0 -0.06144,0.1458292 l 0.04497,0.109108 c 0.01529,0.037301 0.0042,0.064007 -0.03314,0.079906 l -0.913495,0.3869686 c -0.03363,0.014069 -0.04288,0.037568 -0.02759,0.070586 l 0.0679,0.150488 c 0.01957,0.042194 0.05043,0.053888 0.09262,0.034938 L 21.569892,7.985661 a 0.05320092,0.05320092 0 0 1 0.06879,0.023821 l 0.07327,0.1449338 a 0.06787705,0.0687943 61.8 0 0 0.09548,0.028481 l 0.118241,-0.069688 a 0.05778721,0.05778721 0 0 0 0.02293,-0.076134 c -0.09723,-0.1926244 -0.193115,-0.3853199 -0.287897,-0.5779443 -0.0227,-0.046244 -0.0549,-0.069721 -0.09638,-0.070586 z M 2.3080208,7.6923717 c -0.016532,0.00108 -0.029513,0.012282 -0.039054,0.033684 l -0.236656,0.5238397 c -0.017086,0.036691 -0.00666,0.062642 0.031177,0.077931 l 1.1677138,0.461315 A 0.07613236,0.0752151 18.8 0 0 3.332055,8.7397024 c 0.036059,-0.1278042 0.0841,-0.2568966 0.1440351,-0.3871472 0.029291,-0.062376 0.037501,-0.1131434 0.024742,-0.1522787 -0.020748,-0.062376 -0.071563,-0.092954 -0.1522787,-0.091722 -0.028181,0 -0.04671,0.013125 -0.055919,0.039409 l -0.09464,0.2642492 c -0.012204,0.032408 -0.034616,0.042227 -0.067014,0.029379 L 2.809048,8.3113498 A 0.05870447,0.05778721 24.5 0 1 2.7787587,8.2305561 L 2.9081041,7.971861 A 0.05595269,0.05595269 0 0 0 2.8798118,7.8948286 L 2.7522528,7.841617 C 2.7118668,7.825108 2.6837968,7.837067 2.6679308,7.877443 L 2.56153,8.1479628 A 0.09356025,0.09356025 0 0 1 2.3807595,8.1040711 c 0.00888,-0.092333 0.042827,-0.1761362 0.1008534,-0.2513513 A 0.05686995,0.05686995 0 0 0 2.4633062,7.7674437 L 2.3413057,7.7013398 c -0.012426,-0.00666 -0.02341,-0.00965 -0.033285,-0.00899 z m 9.6973052,0.3565118 c -0.04642,0.00233 -0.09903,0.021458 -0.171269,0.063419 C 10.581696,8.8369358 9.3518925,9.558477 8.1447827,10.276993 a 0.37515824,0.37607551 67.6 0 0 -0.172344,0.413664 c 0.3528383,1.407681 0.7126664,2.80508 1.0795697,4.191972 0.1064009,0.40451 0.068822,0.723666 0.6255973,0.728251 1.6596233,0.01407 3.3005923,0.0073 4.9229133,-0.02024 a 0.27884622,0.27884622 0 0 0 0.265144,-0.209071 l 1.220742,-4.759705 A 0.27059091,0.2687564 23 0 0 15.965297,10.324653 C 14.739232,9.5773951 13.500078,8.8512328 12.247719,8.1461677 12.142805,8.0871202 12.082692,8.0449149 12.005326,8.0488869 Z M 4.424167,8.2015206 A 0.10640185,0.10640185 0 0 0 4.338181,8.2699546 L 3.8127225,9.6743264 A 0.10640185,0.10640185 0 0 0 3.9732447,9.7990148 L 4.7253182,9.2800129 A 0.10640185,0.10640185 0 0 0 4.7684777,9.1662505 L 4.5409528,8.2801662 A 0.10640185,0.10640185 0 0 0 4.4241559,8.2015139 Z m 15.207473,0.012715 a 0.10273282,0.10273282 0 0 0 -0.11197,0.07417 l -0.242034,0.8934302 a 0.10273282,0.10273282 0 0 0 0.04299,0.1137602 l 0.777878,0.501625 A 0.10273282,0.10273282 0 0 0 20.249891,9.6743231 L 19.714227,8.2783722 a 0.10273282,0.10273282 0 0 0 -0.08259,-0.06414 z m 2.404754,0.1671482 c -0.0047,-7.66e-5 -0.0098,6.512e-4 -0.01522,0.00233 L 20.783772,8.760829 c -0.02323,0.00677 -0.0322,0.021724 -0.0267,0.044968 0.08714,0.3687363 0.39086,1.0217157 0.843985,0.5777647 0.166023,-0.1632716 0.328413,-0.071563 0.472423,-0.1825569 0.220141,-0.1715262 0.08986,-0.55952 -0.0064,-0.795254 -0.0064,-0.016055 -0.01664,-0.024132 -0.03063,-0.024365 z m -0.155325,0.3228318 c 0.02248,-0.00101 0.03727,0.013025 0.04461,0.041917 0.0532,0.2158606 -0.02597,0.2915517 -0.237554,0.2273439 a 0.10365007,0.10365007 0 0 1 -0.0073,-0.1952761 l 0.175211,-0.067901 c 0.0092,-0.00366 0.01759,-0.00577 0.02508,-0.0061 z M 2.3800383,8.7251738 A 0.68243946,0.70353636 14.8 0 0 1.7177121,9.2533139 l -0.032175,0.1211073 a 0.07338058,0.07338058 0 0 0 0.052368,0.089936 L 2.9294397,9.7789477 A 0.07338058,0.07338058 0 0 0 3.01942,9.7266348 L 3.0514845,9.6055286 A 0.68243946,0.70353636 14.8 0 0 2.5708276,8.7506157 l -0.013758,-0.00355 A 0.68243946,0.70353636 14.8 0 0 2.3802491,8.7252082 Z M 21.411335,8.8720792 a 0.0687943,0.0687943 0 0 1 0.06037,0.047298 l 0.0036,0.012005 a 0.24399045,0.18253421 71.9 0 1 -0.09818,0.2880768 l -0.02186,0.00732 A 0.24399045,0.18253421 71.9 0 1 21.105658,9.0515705 l -0.0038,-0.011106 a 0.0687943,0.0687943 0 0 1 0.04407,-0.087062 l 0.23845,-0.077931 a 0.0687943,0.0687943 0 0 1 0.02687,-0.00344 z M 2.3318417,9.0102051 a 0.38983436,0.30819846 15 0 1 0.1332951,0.016476 l 0.030289,0.00843 A 0.38983436,0.30819846 15 0 1 2.7926386,9.433188 l -0.00222,0.00544 A 0.01651063,0.01651063 0 0 1 2.7701146,9.450633 L 2.0189299,9.2487262 a 0.01651063,0.01651063 0 0 1 -0.011983,-0.02006 l 0.00222,-0.00555 A 0.38983436,0.30819846 15 0 1 2.331642,9.0102861 Z M 21.916542,9.6064218 a 0.53109199,0.7053709 80.2 0 0 -0.183093,0.013259 0.53109199,0.7053709 80.2 0 0 -0.604638,0.6435132 0.53109199,0.7053709 80.2 0 0 0.785403,0.403271 0.53109199,0.7053709 80.2 0 0 0.604815,-0.643514 0.53109199,0.7053709 80.2 0 0 -0.602487,-0.4165292 z M 1.7205857,9.7717803 A 0.11740894,0.11740894 0 0 0 1.5910518,9.863325 l -0.099078,0.533874 a 0.0623735,0.0623735 0 0 0 0.050593,0.07237 l 1.2501162,0.207278 c 0.035504,0.0061 0.05603,-0.0089 0.061466,-0.04497 L 2.945904,10.069699 A 0.05870447,0.05870447 0 0 0 2.88821,10.001799 H 2.7551042 c -0.034838,0 -0.055919,0.01689 -0.063241,0.05051 l -0.055031,0.257621 a 0.0687943,0.06971156 11.8 0 1 -0.080771,0.0532 L 2.2946745,10.31278 a 0.05962173,0.05870447 8.5 0 1 -0.048485,-0.06521 l 0.032952,-0.3127994 c 0.00444,-0.042194 -0.01287,-0.069743 -0.053256,-0.082591 L 2.1038842,9.8109878 a 0.05320092,0.05228367 13.8 0 0 -0.067901,0.040308 l -0.059691,0.3495252 c -0.00555,0.03547 -0.027183,0.0532 -0.063241,0.0532 h -0.075224 a 0.05320092,0.05411818 5.7 0 1 -0.052257,-0.06414 c 0.017752,-0.09233 0.030289,-0.1914224 0.037612,-0.297212 A 0.11740894,0.11740894 0 0 0 1.7206634,9.7717418 Z m 17.0355383,0.037801 a 0.09264299,0.09356025 52 0 0 -0.04354,0.00521 c -0.514885,0.1920137 -1.030044,0.3842447 -1.545542,0.5768697 -0.181616,0.06788 -0.321061,0.181609 -0.366007,0.359557 -0.401757,1.57768 -0.806596,3.154194 -1.21447,4.729429 -0.05963,0.22748 -0.06798,0.405464 0.08062,0.610012 0.2923,0.40237 0.583797,0.785982 0.87426,1.151052 a 0.2577493,0.2577493 0 0 0 0.205488,0.09728 l 1.788653,-0.03027 a 0.09264299,0.09539476 23.5 0 0 0.06503,-0.02669 c 0.129028,-0.124747 0.258689,-0.280361 0.388939,-0.466868 0.942941,-1.35326 1.458845,-2.844375 1.547513,-4.473421 0.01926,-0.348558 0.05592,-1.301618 -0.258695,-1.519925 -0.484311,-0.336327 -0.978138,-0.668602 -1.481405,-0.9969805 a 0.09264299,0.09356025 52 0 0 -0.04084,-0.015233 z m -13.4639742,0.00577 a 0.1311678,0.13025054 38.3 0 0 -0.057694,0.021313 C 4.7281252,10.176049 4.2146716,10.522475 3.6942835,10.875924 c -0.056806,0.03913 -0.091312,0.122365 -0.1035162,0.249559 -0.2207458,2.308428 0.374722,4.347161 1.7866808,6.116243 a 0.17978243,0.17886518 71 0 0 0.1384875,0.0679 l 1.780407,0.02562 a 0.33204715,0.33296441 18.8 0 0 0.2724906,-0.134723 l 0.8998797,-1.20802 a 0.27609445,0.27701171 56.2 0 0 0.046754,-0.234868 L 7.2377566,10.665959 A 0.31553652,0.31553652 0 0 0 7.0414049,10.446678 L 5.353616,9.823051 A 0.1311678,0.13025054 38.3 0 0 5.29215,9.815391 Z m 16.6489362,0.094052 a 0.22656256,0.44945609 80.9 0 1 0.325697,0.1635647 0.22656256,0.44945609 80.9 0 1 -0.407927,0.294705 0.22656256,0.44945609 80.9 0 1 -0.47959,-0.152637 0.22656256,0.44945609 80.9 0 1 0.407929,-0.2947053 0.22656256,0.44945609 80.9 0 1 0.153891,-0.010873 z M 1.9991586,10.758581 a 0.10823636,0.10823636 0 0 0 -0.1072885,0.09441 l -0.0385,0.288076 a 0.0891735,0.0891735 0 0 1 -0.177897,-0.01201 v -0.239346 a 0.12199522,0.12199522 0 0 0 -0.2431132,-0.01827 c -0.023854,0.158991 -0.038611,0.326872 -0.044047,0.503596 -6.435e-4,0.03608 0.016864,0.05553 0.052368,0.05858 l 1.2447462,0.122898 c 0.035504,0.0037 0.05603,-0.01218 0.061466,-0.04765 L 2.7698601,11.341 A 0.06329076,0.06329076 0 0 0 2.7101691,11.26863 L 2.159814,11.235472 A 0.05686995,0.05778721 4.1 0 1 2.106558,11.17313 l 0.033174,-0.351316 a 0.05686995,0.05778721 2.9 0 0 -0.057028,-0.06324 z m 20.5759454,0.06521 -1.264812,0.107311 a 0.05320092,0.05320092 0 0 0 -0.04873,0.0568 l 0.03673,0.598905 a 0.05320092,0.05320092 0 0 0 0.06432,0.04873 l 0.16052,-0.03494 a 0.05320092,0.05320092 0 0 0 0.04121,-0.05679 l -0.02669,-0.288076 a 0.05320092,0.05320092 0 0 1 0.04783,-0.05787 l 1.001637,-0.0833 a 0.05320092,0.05320092 0 0 0 0.04855,-0.05428 l -0.0027,-0.184346 a 0.05320092,0.05320092 0 0 0 -0.05787,-0.05214 z M 2.6835194,12.15274 1.4011501,12.2124 a 0.12658151,0.12658151 0 0 0 -0.1211018,0.13311 c 0.2733471,5.523718 4.6386464,10.201686 10.3008667,10.359453 0.107011,0.0024 0.16052,-0.04964 0.16052,-0.156041 v -1.245463 a 0.12107796,0.12107796 0 0 0 -0.11197,-0.121107 C 6.7395703,20.820946 3.0650315,17.164653 2.8164595,12.273842 A 0.12749877,0.12749877 0 0 0 2.6835194,12.152735 Z m 18.6441516,0.02203 a 0.10181556,0.10181556 0 0 0 -0.104626,0.09638 c -0.12169,2.267459 -0.93062,4.244188 -2.426971,5.930105 -0.02445,0.0269 -0.0239,0.05315 0.0018,0.07883 l 0.981393,0.967778 c 0.02935,0.02874 0.05794,0.02799 0.08545,-0.002 1.799657,-1.949477 2.751367,-4.261218 2.855323,-6.935326 A 0.09722928,0.09722928 0 0 0 22.62562,12.208785 Z M 9.2648402,16.330913 a 0.27150817,0.27242542 18.8 0 0 -0.215519,0.106412 l -0.9521926,1.246538 a 0.27976348,0.27976348 0 0 0 -0.046754,0.2449 c 0.1565446,0.549131 0.2949867,1.10034 0.4154527,1.653751 0.015588,0.07063 0.1019407,0.15961 0.1780767,0.190797 2.046094,0.849379 4.131826,0.915436 6.257414,0.198141 0.229315,-0.07705 0.432392,-0.16529 0.609117,-0.264965 0.02753,-0.0159 0.04469,-0.0393 0.05141,-0.06987 0.12383,-0.564112 0.420126,-1.273061 0.434803,-1.830752 a 0.14125763,0.14034037 27.5 0 0 -0.02758,-0.08617 l -0.986053,-1.319094 a 0.1742789,0.17244438 71.3 0 0 -0.138484,-0.06969 z m -1.9968264,1.718961 -0.9659875,0.01559 a 0.09080847,0.09080847 0 0 0 -0.054143,0.163208 l 1.2006808,0.92102 a 0.09080847,0.09080847 0 0 0 0.1431419,-0.0946 L 7.3568369,18.118667 a 0.09080847,0.09080847 0 0 0 -0.08886,-0.06879 z m 10.4805602,0.0018 -0.958641,9.42e-4 a 0.09172573,0.09172573 0 0 0 -0.08886,0.0679 l -0.244901,0.926394 a 0.09172573,0.09172573 0 0 0 0.144039,0.09638 l 1.204257,-0.927291 a 0.09172573,0.09172573 0 0 0 -0.0559,-0.164281 z m 0.565941,0.652112 a 0.0752151,0.0752151 0 0 0 -0.05141,0.01845 c -1.669407,1.494516 -3.630848,2.310521 -5.884242,2.44811 a 0.09172573,0.09172573 0 0 0 -0.08617,0.09172 v 1.351161 a 0.10548459,0.10640185 88.1 0 0 0.112866,0.105525 c 2.645368,-0.162048 4.942674,-1.127625 6.892149,-2.896705 a 0.05778721,0.06695978 75.8 0 0 0.0129,-0.01845 c 0.02568,-0.06116 0.01889,-0.111457 -0.02025,-0.151205 -0.310644,-0.317371 -0.619134,-0.626608 -0.925497,-0.927468 a 0.0752151,0.0752151 0 0 0 -0.05035,-0.02115 z" />
</svg>
