<?xml version="1.0" encoding="UTF-8"?>
<svg width="24px" fill="#44739e" height="24px" viewBox="0 0 24 24" version="1.1" xmlns="http://www.w3.org/2000/svg" xmlns:xlink="http://www.w3.org/1999/xlink">
            <path d="M 16.408,5.977 A 1.126,1.126 0 1 0 17.533,4.852 1.127,1.127 0 0 0 16.408,5.977 Z M 17.59,6.064 A 0.1,0.1 0 0 1 17.446,6.036 L 16.992,5.359 A 0.10414533,0.10414533 0 0 1 17.165,5.243 L 17.618,5.92 A 0.1,0.1 0 0 1 17.59,6.064 Z m 0.792,10.397 a 2.77,2.77 0 1 0 2.77,2.77 2.772,2.772 0 0 0 -2.77,-2.77 z m 0,3.879 a 1.11,1.11 0 1 1 1.11,-1.109 1.11,1.11 0 0 1 -1.11,1.109 z m 0,-4.167 a 3.048,3.048 0 0 1 2.294,1.04 A 5.39,5.39 0 0 0 16.309,8.66 H 9.636 V 3.377 h 4.469 a 0.484,0.484 0 0 0 0.41,0.226 h 2.729 A 0.485,0.485 0 0 0 17.729,3.118 V 2.486 A 0.485,0.485 0 0 0 17.244,2 h -2.729 a 0.484,0.484 0 0 0 -0.41,0.226 H 8.485 V 8.66 H 7.691 A 5.393,5.393 0 0 0 6.32,19.269 l -0.206,0.583 -0.63,1.784 H 8.65 l 0.362,-1.574 0.142,-0.616 h 6.18 c 0,-0.071 -0.009,-0.143 -0.009,-0.215 a 3.061,3.061 0 0 1 3.057,-3.058 z M 17.533,7.391 A 1.415,1.415 0 0 1 16.12,5.977 v -0.01 h -3.663 a 1.176,1.176 0 0 0 -1.176,1.177 v 0.9 h 5.028 a 5.974,5.974 0 0 1 3.039,0.827 V 7.144 A 1.171,1.171 0 0 0 18.922,6.238 1.415,1.415 0 0 1 17.533,7.391 Z M 9.062,21.508 v 0 -10e-4 z"/>

</svg>