<svg xmlns="http://www.w3.org/2000/svg" viewBox="0 0 24 24"><path fill="#44739e" d="m7.186 14.404 2.908.588 7.406-.372-1.612-.666Zm2.95.422-1.807-.328.612-.029 1.722.329Zm.761-.04-1.717-.328.819-.038 1.491.337Zm.8-.041-1.489-.336.79-.037 1.475.333Zm.982-.051-1.471-.332.933-.044 1.226.34Zm.901-.046-1.222-.34.917-.043 1.063.344Zm.915-.047-1.06-.344.8-.037 1.051.339Zm.947-.05-1.05-.338.624-.03 1.042.336Zm.773-.039-1.039-.337.624-.029.9.34Zm-.115-1.13-.119.447 1.745.78.098-.386-1.374-.708Zm-.14-.042a31.6 31.6 0 0 0-8.963.6s.056.217.11.37l8.734-.483a2.4 2.4 0 0 0 .119-.487m-.903-4.723-.127-.051Zm5.857 5.466a19 19 0 0 0-4.849-1.2l-.052-3.881-.956-.38v4.136l-.126-.015V8.566l-4.584.234-.034 3.913a.02.02 0 0 1-.008.014l-.343.036c-3.531.395-6.853 1.39-7.953 2.294-.02.016 0 .051 0 .077l3.441.3 1.113-.414.869-.294.385-.119-.774-.189-.165-.533a28.1 28.1 0 0 1 9.243-.6 9 9 0 0 1 1.742.875l3.506.709.561.168H22a8 8 0 0 0-1.086-.954"/></svg>