<?xml version="1.0" encoding="UTF-8"?>
<svg width="24px" fill="#44739e" height="24px" viewBox="0 0 24 24" version="1.1" xmlns="http://www.w3.org/2000/svg" xmlns:xlink="http://www.w3.org/1999/xlink">
            <path d="M 7.187,12.384 10.095,12.972 17.5,12.6 15.888,11.934 Z m 2.95,0.422 -1.807,-0.328 0.612,-0.029 1.722,0.329 z M 10.898,12.766 9.181,12.438 10,12.4 l 1.491,0.337 z m 0.8,-0.041 -1.489,-0.336 0.79,-0.037 1.475,0.333 z m 0.982,-0.051 -1.471,-0.332 0.933,-0.044 1.225,0.34 z m 0.9,-0.046 -1.221,-0.34 0.916,-0.043 1.063,0.344 z m 0.915,-0.047 -1.06,-0.344 0.8,-0.037 1.051,0.339 z m 0.947,-0.05 -1.05,-0.338 0.624,-0.03 1.042,0.336 z m 0.773,-0.039 -1.039,-0.337 0.624,-0.029 0.9,0.34 z m -0.115,-1.13 -0.119,0.447 1.745,0.78 0.098,-0.386 -1.374,-0.708 z M 15.96,11.32 a 31.628,31.628 0 0 0 -8.962,0.6 c 0,0 0.056,0.217 0.11,0.37 l 8.733,-0.483 A 2.421,2.421 0 0 0 15.96,11.32 Z M 15.057,6.597 14.93,6.546 Z m 5.857,5.466 a 19.074,19.074 0 0 0 -4.849,-1.2 L 16.013,6.982 15.057,6.602 v 4.136 L 14.931,10.723 V 6.546 l -4.583,0.234 -0.034,3.913 a 0.018,0.018 0 0 1 -0.008,0.014 c -0.008,0 -0.342,0.036 -0.343,0.036 -3.531,0.395 -6.853,1.39 -7.953,2.294 -0.02,0.016 0,0.051 0,0.077 l 3.441,0.3 L 6.564,13 7.433,12.706 7.818,12.587 7.044,12.398 6.879,11.865 a 28.121,28.121 0 0 1 9.242,-0.6 9.121,9.121 0 0 1 1.742,0.875 l 3.506,0.709 0.561,0.168 H 22 a 8.051,8.051 0 0 0 -1.086,-0.954 z"/>

</svg>
