<?xml version="1.0" encoding="UTF-8"?>
<svg width="24px" fill="#44739e" height="24px" viewBox="0 0 24 24" version="1.1" xmlns="http://www.w3.org/2000/svg" xmlns:xlink="http://www.w3.org/1999/xlink">
            <path d="M 22,17.37 V 12.532 A 0.542,0.542 0 0 0 21.825,12.116 V 11.292 A 12.461,12.461 0 0 0 21.666,8.548 L 21.571,8.115 a 3.944,3.944 0 0 0 -1.253,-2.5 L 20.247,5.553 4.359,5.753 H 4.279 L 4.21,5.805 A 4.558,4.558 0 0 0 2.722,9.142 C 2.675,10.129 2.645,10.897 2.637,11.474 L 2.554,11.522 A 1.075,1.075 0 0 0 2.143,12 H 2.135 v 0.034 A 1.408,1.408 0 0 0 2,12.6 v 5.77 h 0.584 a 0.381,0.381 0 0 1 0.159,-0.042 h 4.988 a 0.4,0.4 0 0 1 0.207,0.068 l 8.721,0.046 c 0.318,0 0.647,0 0.97,-0.026 l 3.6,-0.05 A 0.873,0.873 0 0 0 22,17.423 c 0,-0.017 0,-0.035 0,-0.053 z M 3.177,11.306 C 3.185,10.742 3.213,10.017 3.259,9.097 v 0.01 A 3.816,3.816 0 0 1 4.391,6.435 h 0.154 c -0.609,0.4 -1.1,2.434 -1.157,4.871 z M 4.324,11.294 A 16.186,16.186 0 0 1 4.977,7.027 H 5.419 A 1.446,1.446 0 0 0 4.975,6.417 L 7.894,6.381 C 7.251,6.663 6.725,8.762 6.664,11.294 Z m 3.1,0 H 7.249 A 9.584,9.584 0 0 1 8.279,6.435 0.457,0.457 0 0 0 8.179,6.379 H 8.673 C 8.021,6.615 7.481,8.729 7.421,11.294 Z m 9.047,0 h -0.18 A 18.488,18.488 0 0 1 16.85,7.027 h 0.146 a 19.8,19.8 0 0 0 -0.528,4.267 z m 4.722,0.01 H 20.981 C 20.918,8.578 20.313,6.359 19.603,6.359 c -0.71,0 -1.319,2.219 -1.383,4.941 h -0.159 q 0.023,-0.951 0.134,-1.893 c 0.056,-0.8 0.146,-1.59 0.27,-2.374 H 18.147 A 29.912,29.912 0 0 0 17.8,11.3 H 17.52 A 29.912,29.912 0 0 1 17.87,7.033 H 17.6 A 22.344,22.344 0 0 0 17.14,11.3 h -0.269 a 22.255,22.255 0 0 1 0.465,-4.267 h -0.191 c -0.2,-0.432 -0.422,-0.678 -0.659,-0.678 -0.71,0 -1.315,2.219 -1.38,4.945 H 14.947 A 10.273,10.273 0 0 1 15.9,6.553 0.518,0.518 0 0 0 15.54,6.353 c -0.71,0 -1.316,2.219 -1.38,4.945 h -0.35 a 29.2,29.2 0 0 1 0.35,-4.267 h -0.3 a 26.588,26.588 0 0 0 -0.408,4.263 H 13.05 a 22.263,22.263 0 0 1 0.465,-4.267 h -0.276 a 19.8,19.8 0 0 0 -0.525,4.267 h -0.425 a 18.708,18.708 0 0 1 0.559,-4.267 h 0.291 c -0.2,-0.432 -0.423,-0.678 -0.66,-0.678 -0.709,0 -1.315,2.219 -1.379,4.945 h -0.159 a 10,10 0 0 1 0.988,-4.8 0.462,0.462 0 0 0 -0.3,-0.138 c -0.708,0 -1.315,2.219 -1.378,4.945 H 10.092 A 12.586,12.586 0 0 1 10.785,7.034 H 10.359 A 29.2,29.2 0 0 0 10.01,11.301 H 9.794 A 26.18,26.18 0 0 1 10.182,7.034 H 9.849 A 22.334,22.334 0 0 0 9.385,11.3 H 9.051 A 19.741,19.741 0 0 1 9.576,7.033 h -0.1 A 1.168,1.168 0 0 0 8.935,6.375 l 11.1,-0.134 a 3.223,3.223 0 0 1 0.923,1.991 v 0.01 l 0.1,0.45 a 12.541,12.541 0 0 1 0.137,2.5 z"/>

</svg>