<svg xmlns="http://www.w3.org/2000/svg" viewBox="0 0 24 24"><path fill="#44739e" d="M12.68 16.906c-2.702-.76-4.067-1.489-4.951-2.342a5 5 0 0 1-.378-.403 1.844 1.844 0 0 1-.178-2.385c.875-1.36 4.752-1.843 6.174-.551a.082.082 0 0 0 .116-.115 4.11 4.11 0 0 0-3.272-1.032c-3.265.007-5.301 2.153-5.04 4.084.235 1.713 2.278 3.259 6.877 2.993a5 5 0 0 0 .64-.085.082.082 0 0 0 .012-.164m7.949-2.791-.108.036h-.008a19 19 0 0 1-6.296 1.022 10.5 10.5 0 0 1-4.773-1.015q-.151-.079-.303-.165c-1.721-1.008-.825-2.97 2.159-2.963a.082.082 0 1 0 0-.162 4.05 4.05 0 0 0-3.332.961c-.795.722-.595 1.559.173 2.329a8.9 8.9 0 0 0 3.501 1.884c2.989.917 6.879.926 8.901-1.467a1 1 0 0 0 .135-.21c.025-.057.038-.101.052-.14a.1.1 0 0 0 0-.067.08.08 0 0 0-.101-.043M5.508 11.428a7.86 7.86 0 0 1 4.502-1.684c2.948-.312 5.318 1.264 4.032 2.405a.081.081 0 0 0 .101.126c1.199-.879.665-1.551.078-2.072-1.516-1.349-5.676-1.299-8.696-.416-2.774.806-4.782 2.419-2.6 4.371h.004a6 6 0 0 0 .574.454 2 2 0 0 0 .265.171 1.3 1.3 0 0 0 .202.09.087.087 0 0 0 .12-.09 5 5 0 0 1 0-.625h-.007.005a3.63 3.63 0 0 1 1.42-2.73M3.371 9.881a19.2 19.2 0 0 1 6.411-1.058 10.2 10.2 0 0 1 5.074 1.18c1.722 1.008.826 2.97-2.159 2.963a.082.082 0 1 0 0 .162 4.05 4.05 0 0 0 3.334-.962c1.577-1.431-.761-3.318-3.675-4.212-2.99-.917-6.879-.926-8.901 1.467a1 1 0 0 0-.135.21c-.026.056-.039.101-.053.139a.078.078 0 0 0 .104.111m7.948-2.792c2.703.761 4.067 1.49 4.951 2.343.828.798 1.269 1.681.557 2.792-.875 1.36-4.753 1.843-6.175.551a.082.082 0 0 0-.116.114 4.11 4.11 0 0 0 3.278 1.033c6.16-.015 7.944-7.641-1.84-7.077a4.5 4.5 0 0 0-.64.085.081.081 0 0 0-.015.159m9.182 2.294a2 2 0 0 0-.271-.158q-.12-.056-.201-.091a.079.079 0 0 0-.116.079 3.73 3.73 0 0 1-1.422 3.355 7.4 7.4 0 0 1-3.777 1.588h-.009q-.342.054-.717.095a7 7 0 0 1-2.109-.094c-1.771-.381-2.878-1.463-1.925-2.309a.082.082 0 0 0-.101-.127c-1.199.878-.665 1.551-.079 2.072a5 5 0 0 0 .541.368c1.814.962 5.447.842 8.164.048l.176-.051c2.887-.893 4.843-2.659 1.846-4.775"/></svg>