<?xml version="1.0" encoding="UTF-8"?>
<svg width="24px" fill="#44739e" height="24px" viewBox="0 0 24 24" version="1.1" xmlns="http://www.w3.org/2000/svg" xmlns:xlink="http://www.w3.org/1999/xlink">
            <path d="m 16.181999,14.606 h 0.803 v 1.63 h -0.803 z M 19.973,14.627 a 0.138,0.138 0 0 0 -0.089,-0.021 0.136,0.136 0 0 0 -0.088,0.021 L 17.78,16.2 c -0.021,0.017 -0.012,0.039 0.021,0.039 h 0.98 l 1.04,-0.836 a 0.1,0.1 0 0 1 0.127,0 l 1.039,0.836 h 0.98 c 0.033,0 0.043,-0.022 0.022,-0.039 z m -8.083,0.043 -0.821,0.659 a 0.108,0.108 0 0 0 0,0.185 l 0.821,0.658 a 0.3,0.3 0 0 0 0.219,0.064 h 2.873 V 15.7 l -2.554,-0.013 a 0.189,0.189 0 0 1 -0.133,-0.04 l -0.272,-0.183 c -0.02,-0.015 -0.029,-0.025 -0.029,-0.041 0,-0.016 0.009,-0.025 0.029,-0.041 L 12.3,15.2 a 0.19,0.19 0 0 1 0.133,-0.041 l 2.554,-0.012 V 14.608 H 12.109 A 0.3,0.3 0 0 0 11.89,14.67 Z M 8.483,14.606 A 0.138,0.138 0 0 0 8.394,14.627 L 6.378,16.2 C 6.357,16.217 6.367,16.239 6.4,16.239 H 7.38 L 8.419,15.4 a 0.1,0.1 0 0 1 0.127,0 l 1.04,0.836 h 0.98 c 0.033,0 0.042,-0.022 0.021,-0.039 L 8.571,14.627 A 0.136,0.136 0 0 0 8.483,14.606 Z m 1.87,-3.042 1.806,-1.364 1.807,1.363 a 0.54,0.54 0 0 0 0.368,0.118 H 21.2 v -1.3 H 14.981 V 9.066 H 21.2 v -1.3 H 14.334 A 0.544,0.544 0 0 0 13.966,7.883 L 12.159,9.244 10.353,7.881 A 0.544,0.544 0 0 0 9.985,7.764 H 3.124 v 1.3 h 6.214 v 1.313 H 3.124 v 1.3 h 6.861 a 0.54,0.54 0 0 0 0.368,-0.113 z M 5.092,14.67 A 0.3,0.3 0 0 0 4.873,14.606 H 2 v 0.539 l 2.554,0.012 a 0.19,0.19 0 0 1 0.133,0.041 l 0.272,0.182 c 0.02,0.016 0.029,0.025 0.029,0.041 0,0.016 -0.009,0.026 -0.029,0.041 l -0.272,0.183 a 0.189,0.189 0 0 1 -0.133,0.04 L 2,15.7 v 0.538 h 2.873 a 0.3,0.3 0 0 0 0.219,-0.064 l 0.822,-0.658 a 0.109,0.109 0 0 0 0,-0.185 z"/>

</svg>