<?xml version="1.0" encoding="UTF-8"?>
<svg width="33px" height="32px" viewBox="0 0 33 32" version="1.1" fill="#44739e" xmlns="http://www.w3.org/2000/svg" xmlns:xlink="http://www.w3.org/1999/xlink">
            <path d="M20.26124,5.299A9.07608,9.07608,0,0,0,12.99133,1.5349a9.86832,9.86832,0,0,0-1.31718.09132l.00468-.00268A11.72286,11.72286,0,0,0,6.96374,3.24005a9.489,9.489,0,0,0-5.50395,9.224c.2391,3.62222,1.20784,8.00257,7.8626,9.87081a17.56663,17.56663,0,0,0,4.46612-.03218,10.06883,10.06883,0,0,0,1.49966-.235l.00156-.00032-.00009,0a9.3175,9.3175,0,0,0,4.94427-2.93215,10.31384,10.31384,0,0,0,2.32481-6.91846A11.934,11.934,0,0,0,20.26124,5.299ZM4.58793,17.10331l.00026.00048L4.588,17.10362Zm14.79016,1.29791a8.46349,8.46349,0,0,1-6.38676,2.80619,8.2,8.2,0,0,1-6-2.67433,9.49885,9.49885,0,0,1-2.55263-6.54181A10.0363,10.0363,0,0,1,6.83405,5.2675a8.41358,8.41358,0,0,1,6.15728-2.60512A7.95073,7.95073,0,0,1,19.365,5.98313a10.75755,10.75755,0,0,1,2.06621,6.23363A9.205,9.205,0,0,1,19.37809,18.40122Z"></path>

</svg>