<?xml version="1.0" encoding="UTF-8"?>
<svg width="24px" fill="#44739e" height="24px" viewBox="0 0 24 24" version="1.1" xmlns="http://www.w3.org/2000/svg" xmlns:xlink="http://www.w3.org/1999/xlink">
            <path d="m 16.784,13.216 -0.005,1.962 -0.008,1.97 -1.375,-1.97 -1.379,-1.962 h -0.432 -0.437 v 2.758 2.758 h 0.518 0.514 l 0.004,-1.781 0.009,-1.786 1.229,1.781 1.229,1.786 h 0.552 0.553 v -2.758 -2.758 h -0.484 z m -10.544,0 v 0.484 0.484 l 1.447,0.009 1.452,0.008 -1.447,1.773 -1.448,1.773 -0.004,0.489 v 0.496 h 2.09 2.094 V 18.248 17.76 L 8.981,17.756 7.546,17.747 8.981,15.966 10.424,14.18 v -0.484 -0.48 H 8.33 Z m 7.049,-2.432 0.535,-0.009 0.129,-0.317 0.128,-0.317 h 2.8 l 0.137,0.326 0.137,0.325 h 0.527 a 4.752,4.752 0 0 0 0.527,-0.013 c 0,-0.008 -0.51,-1.242 -1.135,-2.749 L 15.94,5.293 15.49,5.285 c -0.347,0 -0.458,0 -0.471,0.03 -0.013,0.03 -0.514,1.242 -1.126,2.719 -0.612,1.477 -1.118,2.7 -1.126,2.72 -0.008,0.02 0.098,0.034 0.522,0.03 z M 14.527,9.1 c 0.008,-0.03 0.227,-0.553 0.479,-1.165 0.252,-0.612 0.467,-1.114 0.48,-1.114 0.013,0 0.942,2.21 0.964,2.3 0.008,0.03 -0.18,0.038 -0.964,0.038 C 14.565,9.156 14.51,9.152 14.527,9.1 Z M 9.589,5.272 H 6.24 v 5.516 h 3.349 l 0.629,-0.63 0.626,-0.625 v -3 l -0.63,-0.629 z m 0.227,2.762 v 1.1 L 9.495,9.476 9.173,9.823 H 7.212 V 6.24 H 9.165 L 9.49,6.587 9.816,6.934 Z M 12,2 H 2 v 8.805 l 0.6,0.6 0.6,0.6 -0.6,0.6 -0.6,0.6 V 22 H 22 V 13.2 L 21.4,12.6 20.8,12 21.4,11.4 22,10.8 V 6.4 6.4 2 Z m 9.024,4.673 v 3.7 l -0.81,0.81 L 19.4,12 l 0.814,0.814 0.81,0.809 v 7.409 H 2.968 V 13.627 L 3.777,12.818 4.591,12 3.777,11.187 2.968,10.377 V 2.972 h 18.056 z"/>

</svg>