<?xml version="1.0" encoding="UTF-8"?>
<svg width="24px" fill="#44739e" height="24px" viewBox="0 0 24 24" version="1.1" xmlns="http://www.w3.org/2000/svg" xmlns:xlink="http://www.w3.org/1999/xlink">
            <path d="m 18.774,5.051 c 0.185,-1.072 0.457,-1.747 0.757,-1.748 v 0 c 0.561,0 1.015,2.341 1.015,5.228 0,2.887 -0.455,5.229 -1.016,5.229 -0.23,0 -0.443,-0.4 -0.614,-1.064 -0.27,2.439 -0.831,4.115 -1.48,4.115 -0.5,0 -0.953,-1.007 -1.256,-2.594 -0.207,3.018 -0.727,5.161 -1.334,5.161 -0.381,0 -0.73,-0.848 -0.987,-2.231 C 13.55,20 12.834,22 12,22 c -0.834,0 -1.551,-2 -1.86,-4.853 -0.255,1.383 -0.6,2.231 -0.986,2.231 -0.609,0 -1.128,-2.142 -1.335,-5.161 -0.3,1.587 -0.752,2.594 -1.256,2.594 -0.649,0 -1.21,-1.676 -1.481,-4.115 C 4.913,13.364 4.7,13.76 4.469,13.76 3.907,13.76 3.452,11.42 3.452,8.531 3.452,5.642 3.908,3.3 4.471,3.3 c 0.3,0 0.57,0.676 0.758,1.748 C 5.527,3.2 6.014,2 6.564,2 c 0.653,0 1.219,1.7 1.487,4.168 0.262,-1.8 0.658,-2.941 1.1,-2.941 0.624,0 1.154,2.252 1.351,5.393 C 10.874,7.01 11.41,6 12,6 c 0.59,0 1.128,1.011 1.5,2.62 0.2,-3.141 0.727,-5.393 1.351,-5.393 0.444,0 0.84,1.145 1.1,2.941 C 16.219,3.7 16.785,2 17.439,2 c 0.547,0 1.035,1.2 1.335,3.051 z m -16.2,5.3 C 2.258,10.355 2,9.31 2,8.017 2,6.724 2.258,5.68 2.576,5.68 c 0.318,0 0.578,1.044 0.578,2.337 0,1.293 -0.254,2.338 -0.578,2.338 z m 18.848,0 c -0.32,0 -0.577,-1.045 -0.577,-2.338 0,-1.293 0.257,-2.337 0.577,-2.337 0.32,0 0.578,1.048 0.578,2.341 0,1.293 -0.258,2.338 -0.576,2.338 z"/>

</svg>
