<svg xmlns="http://www.w3.org/2000/svg" viewBox="0 0 24 24"><path fill="#44739e" d="M15.586 9.783a2.27 2.27 0 0 0-2.255 2.233 2.2 2.2 0 0 0 2.222 2.2 2.27 2.27 0 0 0 2.266-2.125 2.245 2.245 0 0 0-2.233-2.308m-.033 3.809a1.576 1.576 0 0 1 0-3.151 1.53 1.53 0 0 1 1.593 1.575 1.6 1.6 0 0 1-1.593 1.576M3.374 9.918H2v4.153h1.379a2.1 2.1 0 0 0 1.947-2.093 2.007 2.007 0 0 0-1.952-2.06m-.017 3.537h-.708v-2.937h.573A1.42 1.42 0 0 1 4.685 12a1.4 1.4 0 0 1-1.328 1.455M22 9.918h-.649v2.683l-.004-.013-2.851-2.776v4.26h.658V11.36l-.003-.016L22 14.152ZM6.056 14.072h2.315v-.649H6.705v-1.234h1.298v-.648l-1.298.001v-.976h1.677v-.648H6.056Zm5.928-1.504L9.15 9.815v4.257h.649v-2.694l.005-.027 2.829 2.818V9.918h-.649Z"/></svg>