<svg xmlns="http://www.w3.org/2000/svg" viewBox="0 0 24 24"><path fill="#44739e" d="m15.608 4.562-13.6 1.725L2 6.505l7.457 2.27 12.315-2.654.006-.185Zm5.293 1.815-1.519.336s.059.122.218.179c.161.057 1.351-.258 1.347-.371s-.046-.144-.046-.144m-2.041.445-.491.124-.102 4.819v.002l-.002.001-.004.002h-.003l-.049.002q-.008 0-.009-.005l.103-4.81-.49.085-.065 4.701.477.135.549-.151Zm-13.404.856-.009 5.351.532.203.717-.141-.007-5.066-.67-.077.004 5.163q-.001.005-.01.005l-.048-.003q-.01 0-.01-.006l-.028-5.171Zm12.352 4.204-.01 2.265s-2.094-.554-2.191-.566-.755.177-.755.177-.034.013-.043.03c-.018.035-.011.181-.011.181l6.417 1.664s.102.032.206.03c.15-.004.542-.15.542-.15s.037-.001.037-.076c-.004-.06-.166-.258-.372-.329-.046-.015-2.947-.748-2.947-.748l.004-2.462-.461.13ZM5.539 13.27l.009 3.951s-1.574-.627-1.651-.639c-.066-.011-.86.111-.918.144-.037.02-.042.21-.042.21l5.586 2.469s.089.058.295.02c.208-.038.646-.151.646-.151s.196-.064.103-.195-.381-.368-.381-.368l-2.62-1.081-.004-4.324-.62.106Z"/></svg>