<?xml version="1.0" encoding="UTF-8"?>
<svg width="24px" fill="#44739e" height="24px" viewBox="0 0 24 24" version="1.1" xmlns="http://www.w3.org/2000/svg" xmlns:xlink="http://www.w3.org/1999/xlink">
            <path d="m 15.909195,3.9382947 -14.7382823,1.8691406 -0.00977,0.236328 8.0820318,2.460938 13.3476565,-2.8769534 0.0059,-0.2011721 z m 5.738281,1.9667969 -1.646484,0.3652343 c 0,0 0.06256,0.1319082 0.236328,0.1933595 0.173768,0.061451 1.463225,-0.2792006 1.458985,-0.4023438 -0.0042,-0.1231438 -0.04883,-0.15625 -0.04883,-0.15625 z m -2.21289,0.4824218 -0.53125,0.1347657 -0.111328,5.2226559 v 0.0019 l -0.002,0.002 c -8.72e-4,5.75e-4 -0.0028,0.0016 -0.0039,0.002 -0.0011,3.28e-4 -0.0027,-3.4e-5 -0.0039,0 l -0.05273,0.0019 c -0.0051,1.35e-4 -0.0098,-0.0026 -0.0098,-0.0059 l 0.111329,-5.2128905 -0.53125,0.091797 -0.07031,5.0957035 0.517578,0.146484 0.59375,-0.164062 z m -14.5273447,0.9277345 -0.00977,5.7988281 0.5761722,0.220703 0.7773437,-0.152344 -0.00781,-5.4902339 -0.7265626,-0.083984 0.00391,5.5957029 c 4.8e-6,0.0031 -0.00418,0.0062 -0.00977,0.0059 l -0.052735,-0.0039 c -0.00561,-3.54e-4 -0.00977,-0.0027 -0.00977,-0.0059 l -0.03125,-5.6054649 z m 13.3867197,4.5566401 -0.0098,2.455079 c 0,0 -2.269676,-0.599544 -2.375,-0.613282 -0.105324,-0.01374 -0.81836,0.191407 -0.81836,0.191407 0,0 -0.03665,0.01371 -0.04687,0.0332 -0.01998,0.0381 -0.01172,0.195312 -0.01172,0.195312 l 6.955079,1.804688 c 0,0 0.111036,0.03354 0.222656,0.03125 0.162596,-0.0033 0.587891,-0.16211 0.587891,-0.16211 0,0 0.04102,-0.0019 0.04102,-0.08203 -0.005,-0.0656 -0.18104,-0.27936 -0.404297,-0.357422 -0.05037,-0.01603 -3.19336,-0.810546 -3.19336,-0.810546 l 0.0039,-2.667969 -0.5,0.140625 z m -13.296876,1.503907 0.00977,4.283204 c 0,0 -1.7070001,-0.68002 -1.7890626,-0.69336 -0.072116,-0.01172 -0.9328994,0.119765 -0.996094,0.15625 -0.03889,0.02245 -0.044922,0.228516 -0.044922,0.228516 l 6.0546878,2.675781 c 0,0 0.095926,0.0627 0.3203125,0.02149 0.2243863,-0.04121 0.6992188,-0.164063 0.6992188,-0.164063 0,0 0.212073,-0.06898 0.1113283,-0.210937 C 9.2615747,19.530712 8.9502103,19.274233 8.9502103,19.274233 l -2.839844,-1.171875 -0.00391,-4.687501 -0.6738282,0.115235 z"/>

</svg>