<svg xmlns="http://www.w3.org/2000/svg" viewBox="0 0 24 24"><path fill="#44739e" d="M17.316 6.78c1.584-.532 1.89-.098.649.988-1.258 1.1-3.597 2.427-5.189 2.944-1.569.51-1.786.026-.52-1.059 1.249-1.072 3.5-2.349 5.06-2.873m-4.846 5.815c2.281-.632 5.555-2.493 7.269-4.127.865-.825 1.148-1.423.917-1.723-1.628-2.67-4.835-3.77-7.49-2.631a1.7 1.7 0 0 0 .068-.447 1.667 1.667 0 0 0-3.333 0c0 .819.592 1.501 1.372 1.637l-7.76 7.433a.803.803 0 0 0-.013 1.145l4.947 4.947a10 10 0 0 0-1.291.261c-.813.231-1.273.525-1.387.826a.4.4 0 0 0-.035.156v.521q-.001.078.035.156c.117.313.612.609 1.475.85 1.933.535 5.04.535 6.98 0 .855-.241 1.353-.537 1.478-.85a.4.4 0 0 0 .032-.156v-.521a.4.4 0 0 0-.032-.156c-.122-.301-.578-.595-1.387-.826-1.029-.295-2.4-.432-3.759-.418l-5.343-5.344 4.568-4.376a6.5 6.5 0 0 0 .731 3.536c.134.363.793.43 1.959.107"/></svg>