<?xml version="1.0" encoding="UTF-8"?>
<svg width="24px" fill="#44739e" height="24px" viewBox="0 0 24 24" version="1.1" xmlns="http://www.w3.org/2000/svg" xmlns:xlink="http://www.w3.org/1999/xlink">
            <path d="M 15.909194,5.9382949 1.1709108,7.8074358 1.1611108,8.0437638 9.2431428,10.504702 22.5908,7.6277478 22.5967,7.4265758 Z m 5.738281,1.9667969 -1.646484,0.365234 c 0,0 0.06256,0.131909 0.236328,0.1933604 0.173768,0.06145 1.463225,-0.2792014 1.458985,-0.4023444 -0.0042,-0.123144 -0.04883,-0.15625 -0.04883,-0.15625 z m -2.21289,0.482422 -0.531251,0.1347664 -0.111328,5.2226558 v 0.002 l -0.002,0.002 c -8.72e-4,5.75e-4 -0.0028,0.0016 -0.0039,0.002 -0.0011,3.27e-4 -0.0027,-3.4e-5 -0.0039,0 l -0.05273,0.002 c -0.0051,1.35e-4 -0.0098,-0.0026 -0.0098,-0.0059 l 0.111329,-5.2128908 -0.53125,0.0918 -0.07031,5.0957038 0.517578,0.146484 0.59375,-0.164062 z m -14.5273452,0.9277344 -0.0098,5.7988288 0.576172,0.220703 0.777344,-0.152344 -0.0078,-5.4902338 -0.726562,-0.08399 0.0039,5.5957038 c 5e-6,0.0031 -0.0042,0.0062 -0.0098,0.0059 l -0.05274,-0.0039 c -0.0056,-3.54e-4 -0.0098,-0.0027 -0.0098,-0.0059 L 5.4169038,9.5945472 Z M 15.909194,13.713686 c -0.105324,-0.01374 -0.81836,0.191406 -0.81836,0.191406 0,0 -0.03665,0.01371 -0.04687,0.0332 -0.01998,0.0381 -0.01172,0.195312 -0.01172,0.195312 l 6.955078,1.804688 c 0,0 0.111036,0.03354 0.222656,0.03125 0.162596,-0.0033 0.587891,-0.16211 0.587891,-0.16211 0,0 0.04102,-0.0019 0.04102,-0.08203 -0.005,-0.0656 -0.181041,-0.279361 -0.404297,-0.357422 -0.05037,-0.01603 -3.19336,-0.810547 -3.19336,-0.810547 l 0.0039,-0.689453 -0.5,0.138672 -0.451171,-0.134766 -0.0098,0.455078 c 0,0 -2.269676,-0.599543 -2.375,-0.613281 z M 3.2177868,14.965639 c -0.07212,-0.01172 -0.9329,0.119765 -0.996094,0.15625 -0.03889,0.02245 -0.04492,0.228516 -0.04492,0.228516 l 6.054688,2.675781 c 0,0 0.09593,0.0627 0.320312,0.02149 0.224387,-0.04121 0.699219,-0.164063 0.699219,-0.164063 0,0 0.212073,-0.06898 0.111328,-0.210937 -0.100745,-0.141959 -0.412109,-0.398438 -0.412109,-0.398438 l -2.839844,-1.171875 -0.0039,-0.765625 -0.673829,0.138672 -0.435547,-0.1875 0.0098,0.371094 c 0,0 -1.707,-0.68002 -1.789062,-0.69336 z"/>

</svg>