<svg xmlns="http://www.w3.org/2000/svg" viewBox="0 0 24 24"><path fill="#44739e" d="M17 9.5a1.667 1.667 0 1 0 .001 3.334A1.667 1.667 0 0 0 17 9.5m0 5c-1.838 0-3.333-1.495-3.333-3.333S15.162 7.833 17 7.833s3.333 1.495 3.333 3.334S18.838 14.5 17 14.5m-5 5.833c-1.838 0-3.333-1.495-3.333-3.333s1.495-3.333 3.333-3.333 3.333 1.495 3.333 3.333-1.495 3.333-3.333 3.333M7 9.5a1.667 1.667 0 1 1-.001 3.334A1.667 1.667 0 0 1 7 9.5m-3.333 1.667c0-1.839 1.495-3.334 3.333-3.334s3.333 1.495 3.333 3.334S8.838 14.5 7 14.5s-3.333-1.495-3.333-3.333M12 15.333a1.667 1.667 0 1 1-.001 3.335A1.667 1.667 0 0 1 12 15.333M12 2C6.477 2 2 6.477 2 12s4.478 10 10 10 10-4.477 10-10S17.523 2 12 2"/></svg>