<?xml version="1.0" encoding="UTF-8"?>
<svg xmlns="http://www.w3.org/2000/svg" width="24" height="24" fill="#44739e" viewBox="0 0 24 24"><path d="M5.76 2A3.758 3.758 0 0 0 2 5.76v12.48A3.758 3.758 0 0 0 5.76 22h12.48A3.758 3.758 0 0 0 22 18.24V5.76A3.758 3.758 0 0 0 18.24 2H5.76zm1.707.5H11.02c3.2-.003 5.806 2.523 5.834 5.658.007 3.132-2.58 5.676-5.777 5.688H7.471a.25.25 0 0 0-.006 0 .242.242 0 0 1-.098-.024.25.25 0 0 0-.008 0 .242.242 0 0 1-.082-.066.242.242 0 0 0-.007 0 .244.244 0 0 1-.043-.09.244.244 0 0 1-.008-.113 2.765 2.765 0 0 1 .113-.432 2.802 2.802 0 0 1 .014-.059c.039-.107.084-.212.134-.312a2.802 2.802 0 0 1 .073-.143c.041-.071.087-.133.135-.2A2.802 2.802 0 0 1 9.68 11.22c.061-.008.122-.018.185-.022a2.802 2.802 0 0 1 .112-.008h1.007a3.038 3.038 0 0 0 2.99-2.773 2.45 2.45 0 0 1 0-.008 2.45 2.45 0 0 1 0-.002 2.45 2.45 0 0 1 0-.002 2.45 2.45 0 0 1 0-.002 2.45 2.45 0 0 1 0-.002 2.45 2.45 0 0 1 0-.002 2.45 2.45 0 0 1 0-.002 2.45 2.45 0 0 1 0-.002 2.45 2.45 0 0 1 0-.001 2.45 2.45 0 0 1 0-.002 2.45 2.45 0 0 1 0-.002 2.45 2.45 0 0 1 0-.002 2.45 2.45 0 0 1 0-.006 2.45 2.45 0 0 1 0-.01 2.45 2.45 0 0 1 0-.008 2.45 2.45 0 0 1 0-.002 2.45 2.45 0 0 1 0-.002 2.45 2.45 0 0 1 0-.002 2.45 2.45 0 0 1 0-.002 2.45 2.45 0 0 1 0-.002 2.45 2.45 0 0 1 0-.001 2.45 2.45 0 0 1 0-.002 2.45 2.45 0 0 1 0-.002 2.45 2.45 0 0 1 0-.002 2.45 2.45 0 0 1 0-.002 2.45 2.45 0 0 1 0-.002 2.45 2.45 0 0 1 0-.008 2.45 2.45 0 0 1 0-.006 2.45 2.45 0 0 1 0-.002 2.45 2.45 0 0 1 0-.002 2.45 2.45 0 0 1 0-.002 2.45 2.45 0 0 1 0-.002 2.45 2.45 0 0 1 0-.002 2.45 2.45 0 0 1 0-.002 2.45 2.45 0 0 1 0-.002 2.45 2.45 0 0 1 0-.002 2.45 2.45 0 0 1 0-.002 2.45 2.45 0 0 1 0-.001 2.45 2.45 0 0 1 0-.002 2.45 2.45 0 0 1 0-.002 2.45 2.45 0 0 1 0-.008 2.45 2.45 0 0 1 0-.008 2.45 2.45 0 0 1 0-.002 2.45 2.45 0 0 1 0-.002 2.45 2.45 0 0 1 0-.002 2.45 2.45 0 0 1 0-.002 2.45 2.45 0 0 1 0-.002 2.45 2.45 0 0 1 0-.002 2.45 2.45 0 0 1 0-.002 2.45 2.45 0 0 1 0-.002 2.45 2.45 0 0 1 0-.002 2.45 2.45 0 0 1 0-.002 2.45 2.45 0 0 1 0-.001 2.45 2.45 0 0 1 0-.008 2.45 2.45 0 0 1 0-.008 2.45 2.45 0 0 1 0-.002 2.45 2.45 0 0 1 0-.002 2.45 2.45 0 0 1 0-.002 2.45 2.45 0 0 1 0-.002 2.45 2.45 0 0 1 0-.002 2.45 2.45 0 0 1 0-.002 2.45 2.45 0 0 1 0-.002 2.45 2.45 0 0 1 0-.002 2.45 2.45 0 0 1 0-.002 2.45 2.45 0 0 1 0-.002 2.45 2.45 0 0 1 0-.002 2.45 2.45 0 0 1 0-.007 2.45 2.45 0 0 1 0-.008 2.45 2.45 0 0 1 0-.002 2.45 2.45 0 0 1 0-.002 2.45 2.45 0 0 1 0-.002 2.45 2.45 0 0 1 0-.002 2.45 2.45 0 0 1 0-.002 2.45 2.45 0 0 1 0-.002 2.45 2.45 0 0 1 0-.002 2.45 2.45 0 0 1 0-.002 2.45 2.45 0 0 1 0-.002 2.45 2.45 0 0 1 0-.002 2.45 2.45 0 0 1 0-.002 2.45 2.45 0 0 1 0-.008 2.45 2.45 0 0 1 0-.007 2.45 2.45 0 0 1 0-.008 2.45 2.45 0 0 1 0-.002 2.45 2.45 0 0 1 0-.002 2.45 2.45 0 0 1 0-.002 2.45 2.45 0 0 1 0-.002 2.45 2.45 0 0 1 0-.002 2.45 2.45 0 0 1 0-.002 2.45 2.45 0 0 1 0-.002 2.45 2.45 0 0 1 0-.002 2.45 2.45 0 0 1 0-.002 2.45 2.45 0 0 1 0-.002 2.45 2.45 0 0 1 0-.002 2.45 2.45 0 0 1 0-.007v-.178a3.042 3.042 0 0 0-3.035-2.81h-.962a2.789 2.789 0 0 1-1.975-.829 2.848 2.848 0 0 1-.64-1.013 2.824 2.824 0 0 1-.04-.083 2.824 2.824 0 0 1 0-.001 2.824 2.824 0 0 1 0-.002 2.824 2.824 0 0 1 0-.002 2.824 2.824 0 0 1 0-.002 2.848 2.848 0 0 1-.103-.416.256.256 0 0 1 .017-.143.26.26 0 0 1 .014-.03.256.256 0 0 1 .031-.044.257.257 0 0 1 .022-.016.26.26 0 0 1 .045-.037.257.257 0 0 1 .103-.03.26.26 0 0 1 .016-.007zm3.748 3.969a1.701 1.701 0 0 1 1.672 1.703 1.703 1.703 0 1 1-3.408 0 1.701 1.701 0 0 1 1.58-1.7 1.701 1.701 0 0 1 .156-.003zm2.797 1.435c.004.084.006.169.006.254v-.201c-.001-.017-.005-.035-.006-.053zm.006.471a5.646 5.646 0 0 1-.006.111c0-.01.006-.021.006-.03v-.081zm-3.483 6.518a.13.13 0 0 1 .13.13 1.337 1.337 0 0 1-1.335 1.334h-.848a1.82 1.82 0 1 0 1.735 2.579H8.752a.199.199 0 0 1-.19-.188v-.102a1.227 1.227 0 0 1 1.225-1.226h1.973a3.241 3.241 0 0 1 .088.728l.007.034a3.29 3.29 0 0 1-6.58.056 3.29 3.29 0 0 1 3.207-3.343l2.053-.002zm4.98.002a3.29 3.29 0 0 1-.01 6.578 3.29 3.29 0 1 1 .01-6.578zm-.148 1.47a1.823 1.823 0 0 0 .149 3.64 1.819 1.819 0 0 0 1.822-1.821 1.823 1.823 0 0 0-1.416-1.78 1.823 1.823 0 0 0-.555-.039z"/></svg>