<svg xmlns="http://www.w3.org/2000/svg" viewBox="0 0 24 24"><path fill="#44739e" d="M3.34 11.969a1.45 1.45 0 0 0 .939-.3 1.3 1.3 0 0 0 .424-.824 15.6 15.6 0 0 0-2.41 1.124Zm2.778-1.589a5 5 0 0 0-.729.249c-.011.448 0 .893 0 1.34h.733ZM9.5 9.656a25 25 0 0 0-2.649.523v1.789h.733v-1.49H8.1c.238.5.489.992.727 1.492h.861c-.274-.537-.556-1.069-.828-1.606a1.05 1.05 0 0 0 .64-.708m3.1 1.641h-1.729v-.88h1.478v-.672h-1.478v-.256q-.366.036-.733.077v2.4H12.6c0-.222.007-.446 0-.669m3.159-.489H15a.9.9 0 0 1-.181.35.63.63 0 0 1-.912-.035 1.07 1.07 0 0 1-.163-.68c0-.338-.011-.677.017-1.014-.252-.013-.5-.023-.756-.027q-.028.562-.015 1.126a1.66 1.66 0 0 0 .223.891 1.46 1.46 0 0 0 2.128.22 1.4 1.4 0 0 0 .418-.831m5.003 1.161Q21.386 10.1 22 8.23h-.774c-.248.8-.491 1.6-.744 2.407q-.366-1.2-.743-2.407h-.764q.611 1.872 1.234 3.74ZM18.63 8.23h-2.688v.659h.977v3.08h.734v-3.08h.977Zm2.86 4.801a1.07 1.07 0 0 0-1.377.283.97.97 0 0 0-1.564-.039c0-.1.006-.2.007-.295h-.606v2.757h.605v-1.533a.83.83 0 0 1 .139-.508.57.57 0 0 1 .81-.1.75.75 0 0 1 .166.54v1.6h.6v-1.534a.78.78 0 0 1 .2-.585.57.57 0 0 1 .784.026.72.72 0 0 1 .135.5v1.6h.6v-1.795a1.06 1.06 0 0 0-.499-.917m-4.496.3a1.2 1.2 0 0 0-1.009-.428 1.37 1.37 0 0 0-1.239.929 1.54 1.54 0 0 0 .309 1.542 1.3 1.3 0 0 0 1.935-.005v.372h.6v-2.76h-.605q.006.175.009.35m-.766 1.886a.85.85 0 0 1-.942-.712.86.86 0 1 1 .942.712m-3.554-2.269a1.39 1.39 0 0 0-1.012 1.067 1.57 1.57 0 0 0 .195 1.154 1.553 1.553 0 0 0 2.493.026q-.255-.146-.5-.295a.91.91 0 0 1-1.584-.294h2.192a1.54 1.54 0 0 0-.5-1.408 1.46 1.46 0 0 0-1.284-.25m-.418 1.16a1.1 1.1 0 0 1 .2-.4.84.84 0 0 1 1.218.007 1 1 0 0 1 .186.388c-.534.009-1.069.005-1.604.005m-1.538-.721v-.407h-.6v2.758h.6v-1.349a.78.78 0 0 1 .205-.6.9.9 0 0 1 .649-.208v-.667a.94.94 0 0 0-.854.473m-3.761.557a.265.265 0 0 1-.2-.355.57.57 0 0 1 .838.039q.224-.178.454-.355a1.246 1.246 0 0 0-1.649-.171.77.77 0 0 0 .049 1.235c.347.188.776.194 1.094.442a.25.25 0 0 1-.091.368.677.677 0 0 1-.929-.331l-.525.3a1.317 1.317 0 0 0 1.841.475.79.79 0 0 0 .033-1.32c-.291-.153-.622-.19-.915-.327m2.136-1.395c-.213.149-.413.312-.62.467v1.872a.88.88 0 0 0 .288.722 1.46 1.46 0 0 0 .9.132v-.557c-.191 0-.475.05-.562-.172-.026-.485 0-.972-.012-1.457h.574v-.574h-.568Zm1.779-3.659h1.734v-.66h-2.468v1.039q.362-.035.73-.06a8 8 0 0 0 .004-.319m-3.287.706V8.89c.271.008.543-.015.813.012a.494.494 0 0 1 .394.517c.247-.029.5-.056.742-.09a1.3 1.3 0 0 0-.151-.532 1.15 1.15 0 0 0-1.007-.567H6.851v1.489c.249-.041.49-.084.734-.123M6.118 8.23h-.733v1.786q.367-.081.733-.158Zm-2.673 0H2v2.81c.248-.093.5-.189.746-.275V8.89c.217 0 .434-.007.651 0a.59.59 0 0 1 .547.5 7 7 0 0 1 .035.985c.248-.071.5-.132.746-.2a2.35 2.35 0 0 0-.273-1.471 1.26 1.26 0 0 0-1.007-.474m11.089.648a.64.64 0 0 1 .42.372c.269.03.535.075.8.113a1.4 1.4 0 0 0-.489-.876 1.5 1.5 0 0 0-1.278-.245 1.29 1.29 0 0 0-.941.9q.394 0 .789.023a.63.63 0 0 1 .699-.287"/></svg>