<?xml version="1.0" encoding="UTF-8"?>
<svg width="24px" fill="#44739e" height="24px" viewBox="0 0 24 24" version="1.1" xmlns="http://www.w3.org/2000/svg" xmlns:xlink="http://www.w3.org/1999/xlink">
            <path d="M 3.34,11.6 A 1.445,1.445 0 0 0 4.279,11.3 1.3,1.3 0 0 0 4.703,10.476 15.592,15.592 0 0 0 2.293,11.6 c 0.35,0 0.699,0 1.047,0 z M 6.118,10.011 A 4.849,4.849 0 0 0 5.389,10.26 c -0.011,0.448 0,0.893 0,1.34 H 6.122 Z M 9.5,9.287 A 25.359,25.359 0 0 0 6.851,9.81 c 0,0.6 0,1.191 0,1.789 h 0.733 v -1.49 H 8.1 c 0.238,0.5 0.489,0.992 0.727,1.492 0.287,0 0.574,0 0.861,0 C 9.414,11.064 9.132,10.532 8.86,9.995 A 1.045,1.045 0 0 0 9.5,9.287 Z m 3.1,1.641 h -1.729 v -0.88 h 1.478 V 9.376 H 10.871 V 9.12 q -0.366,0.036 -0.733,0.077 0,1.2 0,2.4 H 12.6 c 0,-0.222 0.007,-0.446 0,-0.669 z m 3.159,-0.489 H 15 a 0.936,0.936 0 0 1 -0.181,0.35 0.63,0.63 0 0 1 -0.912,-0.035 1.067,1.067 0 0 1 -0.163,-0.68 c 0,-0.338 -0.011,-0.677 0.017,-1.014 -0.252,-0.013 -0.5,-0.023 -0.756,-0.027 -0.02,0.375 -0.023,0.75 -0.015,1.126 a 1.663,1.663 0 0 0 0.223,0.891 1.459,1.459 0 0 0 2.128,0.22 1.409,1.409 0 0 0 0.418,-0.831 z M 20.762,11.6 Q 21.386,9.731 22,7.861 h -0.774 c -0.248,0.8 -0.491,1.6 -0.744,2.407 q -0.366,-1.2 -0.743,-2.407 h -0.764 q 0.611,1.872 1.234,3.74 z M 18.63,7.861 H 15.942 V 8.52 h 0.977 v 3.08 h 0.734 V 8.52 h 0.977 z m 2.86,4.801 a 1.072,1.072 0 0 0 -1.377,0.283 0.971,0.971 0 0 0 -1.564,-0.039 c 0,-0.1 0.006,-0.2 0.007,-0.295 H 17.95 v 2.757 h 0.605 v -1.533 a 0.827,0.827 0 0 1 0.139,-0.508 0.57,0.57 0 0 1 0.81,-0.1 0.747,0.747 0 0 1 0.166,0.54 v 1.6 h 0.6 v -1.534 a 0.777,0.777 0 0 1 0.2,-0.585 0.569,0.569 0 0 1 0.784,0.026 0.722,0.722 0 0 1 0.135,0.5 v 1.6 h 0.6 V 13.579 A 1.057,1.057 0 0 0 21.49,12.662 Z m -4.496,0.3 a 1.194,1.194 0 0 0 -1.009,-0.428 1.37,1.37 0 0 0 -1.239,0.929 v 0 A 1.543,1.543 0 0 0 15.055,15.005 1.3,1.3 0 0 0 16.99,15 v 0.372 h 0.6 v -2.76 h -0.605 c 0.005,0.117 0.006,0.233 0.009,0.35 z m -0.766,1.886 a 0.85,0.85 0 0 1 -0.942,-0.712 0.86,0.86 0 1 1 0.942,0.712 z m -3.554,-2.269 v 0 a 1.39,1.39 0 0 0 -1.012,1.067 1.573,1.573 0 0 0 0.195,1.154 1.553,1.553 0 0 0 2.493,0.026 q -0.255,-0.146 -0.5,-0.295 a 0.91,0.91 0 0 1 -1.584,-0.294 h 2.192 a 1.536,1.536 0 0 0 -0.5,-1.408 1.458,1.458 0 0 0 -1.284,-0.25 z m -0.418,1.16 a 1.066,1.066 0 0 1 0.2,-0.4 v 0 a 0.839,0.839 0 0 1 1.218,0.007 1.041,1.041 0 0 1 0.186,0.388 c -0.534,0.009 -1.069,0.005 -1.604,0.005 z m -1.538,-0.721 c 0,-0.136 0,-0.271 0,-0.407 h -0.6 v 2.758 h 0.6 V 14.02 a 0.775,0.775 0 0 1 0.205,-0.6 0.887,0.887 0 0 1 0.649,-0.208 v -0.667 a 0.936,0.936 0 0 0 -0.854,0.473 z m -3.761,0.557 a 0.265,0.265 0 0 1 -0.2,-0.355 0.568,0.568 0 0 1 0.838,0.039 c 0.15,-0.12 0.3,-0.236 0.454,-0.355 A 1.246,1.246 0 0 0 6.4,12.733 0.771,0.771 0 0 0 6.449,13.968 c 0.347,0.188 0.776,0.194 1.094,0.442 A 0.25,0.25 0 0 1 7.452,14.778 0.677,0.677 0 0 1 6.523,14.447 c -0.177,0.1 -0.349,0.2 -0.525,0.3 a 1.317,1.317 0 0 0 1.841,0.475 0.789,0.789 0 0 0 0.033,-1.32 C 7.581,13.749 7.25,13.712 6.957,13.575 Z M 9.093,12.18 c -0.213,0.149 -0.413,0.312 -0.62,0.467 0,0.624 0,1.25 0,1.872 a 0.883,0.883 0 0 0 0.288,0.722 1.463,1.463 0 0 0 0.9,0.132 v -0.557 c -0.191,0 -0.475,0.05 -0.562,-0.172 -0.026,-0.485 0,-0.972 -0.012,-1.457 H 9.661 V 12.613 H 9.093 Z m 1.779,-3.659 h 1.734 V 7.861 H 10.138 V 8.9 c 0.241,-0.023 0.485,-0.044 0.73,-0.06 0.004,-0.105 0.004,-0.212 0.004,-0.319 z M 7.585,9.227 V 8.521 C 7.856,8.529 8.128,8.506 8.398,8.533 A 0.494,0.494 0 0 1 8.792,9.05 C 9.039,9.021 9.292,8.994 9.534,8.96 A 1.335,1.335 0 0 0 9.383,8.428 1.148,1.148 0 0 0 8.376,7.861 H 6.851 V 9.35 C 7.1,9.309 7.341,9.266 7.585,9.227 Z M 6.118,7.861 H 5.385 V 9.647 C 5.629,9.592 5.874,9.541 6.118,9.489 Z m -2.673,0 H 2 v 2.81 C 2.248,10.578 2.5,10.482 2.746,10.396 V 8.521 c 0.217,0 0.434,-0.007 0.651,0 a 0.592,0.592 0 0 1 0.547,0.5 7.036,7.036 0 0 1 0.035,0.985 c 0.248,-0.071 0.5,-0.132 0.746,-0.2 A 2.345,2.345 0 0 0 4.452,8.335 1.257,1.257 0 0 0 3.445,7.861 Z m 11.089,0.648 a 0.636,0.636 0 0 1 0.42,0.372 c 0.269,0.03 0.535,0.075 0.8,0.113 a 1.4,1.4 0 0 0 -0.489,-0.876 1.5,1.5 0 0 0 -1.278,-0.245 1.292,1.292 0 0 0 -0.941,0.9 c 0.263,0 0.526,0.008 0.789,0.023 a 0.634,0.634 0 0 1 0.699,-0.287 z"/>

</svg>