<svg xmlns="http://www.w3.org/2000/svg" viewBox="0 0 24 24"><path fill="#44739e" d="M18.957 5.669a.06.06 0 0 0-.026-.023 16.5 16.5 0 0 0-4.069-1.262.06.06 0 0 0-.065.031 11 11 0 0 0-.507 1.041 15.2 15.2 0 0 0-4.572 0 11 11 0 0 0-.515-1.041.07.07 0 0 0-.066-.031 16.5 16.5 0 0 0-4.069 1.262.1.1 0 0 0-.027.022 16.86 16.86 0 0 0-2.953 11.377.07.07 0 0 0 .026.046 16.6 16.6 0 0 0 4.99 2.523.06.06 0 0 0 .07-.023 12 12 0 0 0 1.029-1.661.064.064 0 0 0-.028-.085h-.007a11 11 0 0 1-1.564-.747.064.064 0 0 1-.023-.087l.016-.019q.159-.117.31-.242a.06.06 0 0 1 .065-.009 11.83 11.83 0 0 0 10.048 0 .06.06 0 0 1 .065.008q.152.126.311.243a.065.065 0 0 1 .013.09l-.018.016a10.3 10.3 0 0 1-1.561.742.064.064 0 0 0-.037.083v.006a13 13 0 0 0 1.021 1.66.06.06 0 0 0 .07.024 16.6 16.6 0 0 0 4.999-2.522.07.07 0 0 0 .026-.046 16.76 16.76 0 0 0-2.952-11.376M8.686 14.774a1.92 1.92 0 0 1-1.799-2.014 1.91 1.91 0 0 1 1.799-2.015 1.9 1.9 0 0 1 1.8 2.015 1.91 1.91 0 0 1-1.8 2.014m6.644 0a1.92 1.92 0 0 1-1.799-2.014 1.91 1.91 0 0 1 1.799-2.015 1.9 1.9 0 0 1 1.8 2.015 1.906 1.906 0 0 1-1.8 2.014"/></svg>