<svg xmlns="http://www.w3.org/2000/svg" viewBox="0 0 24 24"><path fill="#44739e" d="M12 7.31a2.655 2.655 0 1 1 2.657-2.655A2.654 2.654 0 0 1 12 7.31m5.44 10.316A5.66 5.66 0 0 1 12.017 22h-.034a5.66 5.66 0 0 1-5.423-4.374c-.062-.25.095-.538.389-.373a10.34 10.34 0 0 0 10.099 0c.298-.167.452.121.393.373Zm-1.14-4.652a4.47 4.47 0 0 1-4.283 3.453h-.026a4.47 4.47 0 0 1-4.29-3.453c-.048-.2.075-.426.309-.3a8.15 8.15 0 0 0 7.975 0c.232-.13.357.1.307.3Zm-1.224-4.187a3.2 3.2 0 0 1-3.067 2.472h-.018a3.2 3.2 0 0 1-3.066-2.472c-.035-.142.053-.306.219-.211a5.85 5.85 0 0 0 5.713 0c.165-.093.254.069.219.211"/></svg>