<?xml version="1.0" encoding="UTF-8" standalone="no"?>
<svg
   version="1.1"
   width="24"
   height="24"
   viewBox="0 0 24 24"
   xmlns="http://www.w3.org/2000/svg"
   xmlns:svg="http://www.w3.org/2000/svg">
  <path
     style="fill:#44739e"
     d="M 10.542969 2.9589844 C 9.0290047 2.960341 7.4289256 3.450095 5.9003906 4.7949219 C 1.0090779 9.0983786 0.66865137 16.154779 5.1640625 19.365234 C 9.0990141 22.175426 14.951603 21.031135 18.535156 19 C 19.045583 18.710708 19.509814 18.404342 19.916016 18.087891 C 23.174087 15.549661 21.978223 11.831513 20.583984 9.8144531 C 19.189759 7.7973841 18.719275 7.3013914 17.572266 6.125 C 16.783694 5.316223 13.873687 2.9559997 10.542969 2.9589844 z M 10.576172 3.15625 C 13.834616 3.15333 16.679715 5.4607266 17.451172 6.2519531 C 18.573294 7.402817 19.032514 7.8880297 20.396484 9.8613281 C 21.760468 11.834617 22.931511 15.471931 19.744141 17.955078 C 19.346753 18.264665 18.893882 18.564644 18.394531 18.847656 C 14.888744 20.834715 9.1601102 21.954286 5.3105469 19.205078 C 0.91268605 16.064287 1.2480305 9.1612437 6.0332031 4.9511719 C 7.5285686 3.6355278 9.0950612 3.1575772 10.576172 3.15625 z M 10.607422 3.3574219 C 9.1602237 3.3587187 7.6310484 3.8277614 6.1699219 5.1132812 C 1.494316 9.2269555 1.1676795 15.970188 5.4648438 19.039062 C 9.2262635 21.725324 14.822526 20.632968 18.248047 18.691406 C 18.735961 18.414875 19.17812 18.120858 19.566406 17.818359 C 22.680798 15.392068 21.537831 11.838263 20.205078 9.9101562 C 18.872336 7.98204 18.422601 7.5073252 17.326172 6.3828125 C 16.572379 5.6097026 13.791258 3.3545689 10.607422 3.3574219 z M 11.035156 6.0058594 C 13.243757 6.0038794 15.172412 7.5672158 15.695312 8.1035156 C 16.455897 8.8835812 16.766895 9.2132616 17.691406 10.550781 C 18.615925 11.888293 19.410428 14.354011 17.25 16.037109 C 16.980647 16.24695 16.672448 16.450748 16.333984 16.642578 C 13.957731 17.989424 10.076062 18.746251 7.4667969 16.882812 C 4.4858899 14.75396 4.711649 10.076279 7.9550781 7.2226562 C 8.9686498 6.3309018 10.031247 6.006759 11.035156 6.0058594 z M 11.460938 8.6523438 C 10.900316 8.6528461 10.308205 8.8340411 9.7421875 9.3320312 C 7.9309303 10.925605 7.8040957 13.537728 9.46875 14.726562 C 10.925866 15.767177 13.092929 15.343927 14.419922 14.591797 C 14.608933 14.484672 14.781225 14.371089 14.931641 14.253906 C 16.138108 13.313998 15.694022 11.938325 15.177734 11.191406 C 14.661452 10.444484 14.487239 10.259838 14.0625 9.8242188 C 13.770492 9.5247274 12.694305 8.6512385 11.460938 8.6523438 z" />
</svg>
