<?xml version="1.0" encoding="UTF-8" standalone="no"?>
<svg
   id="Livello_1"
   data-name="Livello 1"
   viewBox="0 0 24 24"
   version="1.1"
   width="24"
   height="24"
   xmlns="http://www.w3.org/2000/svg"
   xmlns:svg="http://www.w3.org/2000/svg">
  <path id="Colore_riempimento_1" fill="#44739e" data-name="Colore riempimento 1" class="cls-1"
     d="m 0.21053,15.46244 v -0.9157 a 0.60486,0.60486 0 0 1 0.6768,-0.39978 0.68519,0.68519 0 0 0 0.09244,4.5e-4 c 0.22172,-0.0023 0.2234,-0.0024 0.2237,-0.25406 9.1e-4,-0.7714 -0.00133,-1.54281 0.00107,-2.3142 0.00156,-0.5042 0.17133,-0.68679 0.63147,-0.68729 0.70143,-7.6e-4 1.40287,3.5e-4 2.10431,-5.6e-4 0.22169,-2.9e-4 0.22259,-0.0021 0.22374,-0.25388 C 4.16522,10.38311 4.1643,10.1288 4.16437,9.87449 4.16451,9.332 4.159,8.78935 4.16674,8.247 4.1726,7.836 4.35752,7.64329 4.72725,7.63611 4.78119,7.63511 4.83516,7.63589 4.88912,7.63589 q 2.46275,0 4.92548,-9e-5 c 0.27006,0 0.27055,-5.5e-4 0.2707,-0.30444 4e-4,-0.7714 -0.0034,-1.54283 0.0018,-2.31419 0.003,-0.44076 0.18548,-0.63414 0.58376,-0.63656 0.3854,-0.00236 0.77081,-5.6e-4 1.15622,-5.4e-4 0.54727,0 1.09457,-0.00314 1.64181,0.0013 0.34569,0.00281 0.52613,0.19539 0.54866,0.57243 0.0051,0.08443 0.0022,0.16947 0.0022,0.25424 q 1.5e-4,2.70839 3.3e-4,5.41676 c 6e-5,0.26523 0.0014,0.26645 0.23539,0.26666 q 1.0406,10e-4 2.08119,3.9e-4 c 0.47314,3.7e-4 0.64156,0.182 0.64313,0.70037 0.0021,0.68662 -0.0052,1.37334 0.0024,2.05987 0.0058,0.51851 -0.10486,0.44882 0.43894,0.4463 a 0.48265,0.48265 0 0 0 0.47705,-0.53218 1.86794,1.86794 0 0 0 -0.02477,-0.27778 4.698,4.698 0 0 1 0.63885,-3.19533 c 0.23184,-0.37908 0.48383,-0.42473 0.81832,-0.152 a 4.50211,4.50211 0 0 1 1.44843,2.15342 c 0.05044,0.15582 0.104,0.22373 0.27086,0.22287 a 4.54683,4.54683 0 0 1 2.407,0.69805 1.01406,1.01406 0 0 1 0.43781,0.46307 v 0.25436 c -0.04226,0.06844 -0.08264,0.13838 -0.12706,0.20509 a 4.95146,4.95146 0 0 1 -3.198,2.22511 0.524,0.524 0 0 0 -0.39159,0.29435 14.68548,14.68548 0 0 1 -4.31939,4.90914 A 13.14629,13.14629 0 0 1 8.96525,23.8669 9.43242,9.43242 0 0 1 5.26425,23.44343 6.6982,6.6982 0 0 1 1.21356,19.835 10.41685,10.41685 0 0 1 0.30715,16.3923 Z m 12.8349,-8.92755 c 0,-0.3052 -0.0031,-0.61044 0.0015,-0.91556 0.0019,-0.13021 -0.04385,-0.17968 -0.163,-0.17883 q -0.8325,0.006 -1.66506,0 c -0.12151,-9e-4 -0.1611,0.054 -0.16046,0.18158 0.003,0.61037 0.0045,1.22081 -10e-4,1.83114 -0.0013,0.14683 0.04935,0.18619 0.17558,0.18489 q 0.8209,-0.00846 1.64192,1.6e-4 c 0.12942,0.00144 0.17651,-0.04383 0.173,-0.18784 -0.0073,-0.305 -0.0022,-0.61035 -0.0024,-0.91554 z m -6.93361,4.3565 c 0.28523,0 0.57056,-0.005 0.85563,0.0023 0.12207,0.0032 0.15962,-0.04766 0.15877,-0.17708 q -0.006,-0.9155 4.2e-4,-1.8311 C 7.12783,8.73951 7.07614,8.69477 6.94916,8.69588 6.40957,8.70061 5.86987,8.70304 5.33037,8.69444 c -0.15686,-0.0025 -0.1962,0.06371 -0.19446,0.224 0.00635,0.58488 0.00886,1.17 -0.00121,1.75478 -0.0032,0.18619 0.059,0.2292 0.21409,0.22173 0.2539,-0.01226 0.50864,-0.0033 0.76303,-0.0036 z m 3.97335,-1.07423 c 0,-0.3052 -0.0053,-0.61055 0.0022,-0.91552 C 10.09117,8.74816 10.043,8.69331 9.90113,8.69509 q -0.80931,0.01014 -1.61878,0 C 8.13977,8.69328 8.09539,8.74986 8.09678,8.90234 q 0.00831,0.90278 0,1.80568 c -0.00133,0.1457 0.04726,0.18732 0.17465,0.186 q 0.8209,-0.0087 1.64192,0 c 0.12822,0.0014 0.17765,-0.04163 0.174,-0.18677 -0.0075,-0.2965 -0.0023,-0.59337 -0.0022,-0.89009 z m 2.96055,-0.0215 c 0,-0.29672 -0.005,-0.59358 0.0021,-0.8901 C 13.0514,8.75638 13.01126,8.69306 12.86526,8.695 q -0.80929,0.01074 -1.61878,2.4e-4 c -0.13819,-0.0016 -0.19073,0.04672 -0.18923,0.20315 q 0.0087,0.90278 1.4e-4,1.80569 c -0.0012,0.14147 0.039,0.19168 0.171,0.19012 0.54726,-0.0065 1.09469,-0.0082 1.64189,8.9e-4 0.15053,0.0025 0.18118,-0.06352 0.17761,-0.20935 -0.0072,-0.2965 -0.0021,-0.59337 -0.0022,-0.89008 z m -8.88186,3.25109 c 0,-0.3052 -0.003,-0.61044 0.00144,-0.91556 0.00191,-0.13 -0.04346,-0.1799 -0.16277,-0.17905 q -0.8325,0.006 -1.66506,0 c -0.12132,-9e-4 -0.1613,0.0536 -0.16066,0.18136 0.003,0.61037 0.0045,1.2208 -0.00105,1.83113 -0.00134,0.14659 0.04891,0.18643 0.17538,0.18512 q 0.82092,-0.0085 1.64192,1.4e-4 C 4.12222,14.15132 4.16978,14.10653 4.1663,13.96228 4.15894,13.65729 4.16406,13.352 4.16386,13.04675 Z m 2.96079,0.0275 c 0,-0.30519 -0.00522,-0.61054 0.0022,-0.91552 0.0037,-0.15208 -0.04186,-0.20968 -0.18505,-0.20785 q -0.80931,0.01033 -1.61878,0 c -0.14131,-0.0017 -0.18825,0.05208 -0.1868,0.20595 q 0.00848,0.90278 8e-5,1.80569 c -0.00129,0.1443 0.04462,0.18872 0.17349,0.1873 q 0.8209,-0.009 1.64192,-10e-5 C 7.07847,14.15104 7.13062,14.11084 7.12684,13.96429 7.11919,13.66785 7.12456,13.371 7.12465,13.07425 Z m 2.96052,-0.02585 c 0,-0.29672 -0.0053,-0.59361 0.0022,-0.89009 0.0039,-0.15256 -0.0427,-0.20923 -0.18544,-0.20742 q -0.80931,0.01028 -1.61878,0 c -0.14174,-0.0018 -0.18784,0.053 -0.18641,0.20638 q 0.00843,0.90278 8e-5,1.80569 c -0.00131,0.14476 0.0455,0.18826 0.17387,0.18686 q 0.82091,-0.0089 1.64192,-6e-5 c 0.12724,0.0013 0.17835,-0.0398 0.17475,-0.18587 -0.0075,-0.30495 -0.0023,-0.6103 -0.0022,-0.91549 z m 1.94658,1.09882 c 0.28522,0 0.57055,-0.0049 0.85562,0.0023 0.1208,0.003 0.16083,-0.04491 0.15995,-0.17581 q -0.0062,-0.91554 2.8e-4,-1.83114 c 0.0011,-0.14413 -0.04758,-0.19218 -0.17626,-0.191 q -0.82092,0.0076 -1.64192,-1.7e-4 c -0.134,-0.0014 -0.17243,0.05812 -0.17151,0.1961 q 0.0061,0.91554 -9e-5,1.83114 c -10e-4,0.13693 0.04871,0.17353 0.16455,0.17069 0.26968,-0.0066 0.53957,-0.0021 0.80938,-0.0021 z m 2.96371,1.3e-4 c 0.27752,0 0.55512,-0.0044 0.83251,0.0021 0.12055,0.0028 0.182,-0.02613 0.18052,-0.1792 q -0.0088,-0.91548 -3.5e-4,-1.83113 c 0.0012,-0.14732 -0.05394,-0.18851 -0.17945,-0.18741 q -0.80935,0.0071 -1.6188,-4.9e-4 c -0.135,-0.0015 -0.1938,0.0398 -0.19219,0.19986 0.006,0.60184 0.0073,1.20387 -7.5e-4,1.80566 -0.0022,0.16686 0.06036,0.19749 0.19229,0.19322 0.26187,-0.0085 0.52413,-0.0025 0.78622,-0.0026 z m -9.85078,3.241 A 1.05372,1.05372 0 0 0 4.145,18.48659 1.06874,1.06874 0 0 0 5.15576,19.58015 1.05745,1.05745 0 0 0 6.13821,18.48745 1.0433,1.0433 0 0 0 5.14468,17.38837 Z" />
</svg>
