<svg xmlns="http://www.w3.org/2000/svg" fill="#44739e" width="32.026" height="32.026" viewBox="0 0 576 576">
  <path id="Colore_riempimento_1" data-name="Colore riempimento 1" class="cls-1" d="M100,87H433c15.661,0,34.418-.825,47,2,2.279,3.427,6.481,5.975,8,10,2.481,6.574,1,17.783,1,26V397c0,29.435,7.912,85.665-15,92H179c-24.655,0-83.971,6.281-90-11-3.534-4.7-2-17.1-2-25V100C89.213,93.135,95.4,91.4,100,87Zm1,6c-2.519,2.637-5.364,5.479-8,8V435c0,13.6-1.267,30.092,1,42,16.729,10.87,77.517,6,106,6H379c31.715,0,67.046,2.438,97-1,2.213-2.945,5.835-4.979,7-9V194c0-30.508,4.063-69.1-2-96-9.981-6.249-21.624-5-38-5H101ZM235,255c42.247,0.631,45.343,56,8,65-22.62,5.452-44.989-20.2-37-42,3.295-8.991,11.1-17.685,20-21C229.3,255.771,232.494,256.572,235,255Zm101,0c42.346,0.615,45.652,55.624,8,65-24.592,6.124-45.395-22.908-36-45,2.857-6.718,10.275-14.152,17-17C328.63,256.463,332.928,256.939,336,255Zm-106,7c-7.056,5.309-14.71,7.975-18,17-6.6,18.1,11.5,40.5,31,35,14.732-4.156,27.917-24.466,16-42C253.647,264.124,243.943,261.544,230,262Zm101,0c-7.056,5.309-14.71,7.975-18,17-6.6,18.1,11.5,40.5,31,35,14.732-4.156,27.917-24.466,16-42C354.647,264.124,344.943,261.544,331,262Zm-92,10v23c-2.076-.372-1.924-0.242-3-1-2.5-3.839-1.132-15.225-1-21h1v-1h3Zm101,0v23c-2.076-.372-1.924-0.242-3-1-2.5-3.839-1.132-15.225-1-21h1v-1h3ZM229,283h2c-0.507,5.762-1.916,7.732-1,13,3.049,1.913,4.245,3.35,9,4,2.2-2.088,3.689-1.716,5-5,2.522-3.762-.24-7.371-1-11h1v-1h2c0.961,1.766,1.257,1.68,2,4,2.7,3.91-.047,9.68-1,13-9.988,5.5-22.146,4.581-22-11a11.725,11.725,0,0,0,2-5C228.754,283.369,227.971,283.807,229,283Zm101,0h2c-0.507,5.762-1.916,7.732-1,13,3.049,1.913,4.245,3.35,9,4,2.2-2.088,3.689-1.716,5-5,2.522-3.762-.24-7.371-1-11h1v-1h2c0.961,1.766,1.257,1.68,2,4,2.7,3.91-.047,9.68-1,13-9.988,5.5-22.146,4.581-22-11a11.725,11.725,0,0,0,2-5C329.754,283.369,328.971,283.807,330,283Z"/>
</svg>
