<svg xmlns="http://www.w3.org/2000/svg" fill="#44739e" width="24" height="24" viewBox="0 0 24 24">
  <path id="Colore_riempimento_1" data-name="Colore riempimento 1" class="cls-1" d="m 6.408,7.117 h 8.13 a 14.283,14.283 0 0 1 4.211,0.25 4.963,4.963 0 0 1 2.585,2.209 5.046,5.046 0 0 1 0.333,4.3 5.056,5.056 0 0 1 -2.585,2.624 c -1.235,0.533 -3.29,0.376 -5.045,0.376 H 8.576 A 11.943,11.943 0 0 1 5.824,16.792 5.607,5.607 0 0 1 3.114,15.166 5.094,5.094 0 0 1 2.822,9.2 5.338,5.338 0 0 1 5.24,7.367 Z m 0,0.25 a 12.013,12.013 0 0 1 -1.251,0.292 4.976,4.976 0 0 0 -2.126,1.667 4.83,4.83 0 0 0 0.833,6.254 5.792,5.792 0 0 0 2.168,1 6.874,6.874 0 0 0 1.46,0.041 h 8.088 a 11.454,11.454 0 0 0 2.585,-0.083 4.77,4.77 0 0 0 3.252,-2.71 A 4.762,4.762 0 0 0 21,9.493 4.655,4.655 0 0 0 18.457,7.534 15.574,15.574 0 0 0 14.413,7.367 Z m 0.25,0.625 A 4.581,4.581 0 0 1 8.117,8.2 4.1,4.1 0 0 1 10.494,13.578 4.217,4.217 0 0 1 7.116,16 3.3,3.3 0 0 1 5.074,15.583 4.006,4.006 0 0 1 3.074,10.497 4.26,4.26 0 0 1 5.365,8.242 C 5.644,8.126 6.457,8.115 6.658,7.992 m 10.423,0 A 4.724,4.724 0 0 1 18.5,8.2 4.083,4.083 0 0 1 20.876,13.578 4.2,4.2 0 0 1 17.5,16 3.222,3.222 0 0 1 15.665,15.667 4.02,4.02 0 0 1 14.331,14.833 4.23,4.23 0 0 1 13.414,10.622 4.287,4.287 0 0 1 15.872,8.2 C 16.13,8.1 16.897,8.1 17.081,7.991 M 6.533,8.159 C 6.307,8.295 5.573,8.328 5.282,8.451 A 4.017,4.017 0 0 0 3.2,10.619 3.84,3.84 0 0 0 5.282,15.5 3.209,3.209 0 0 0 7.158,15.833 4.027,4.027 0 0 0 10.368,13.457 4.2,4.2 0 0 0 10.327,10.58 3.737,3.737 0 0 0 6.533,8.159 m 10.381,0 c -0.091,0.055 -0.236,0.008 -0.375,0.042 a 6.108,6.108 0 0 0 -0.959,0.291 3.972,3.972 0 0 0 -2.043,2.252 4.029,4.029 0 0 0 1.168,4.211 4.785,4.785 0 0 0 1.084,0.583 3.085,3.085 0 0 0 1.751,0.292 4.015,4.015 0 0 0 3.127,-2.168 3.87,3.87 0 0 0 -3.753,-5.5 m -12.257,3.207 0.542,0.042 a 0.917,0.917 0 0 1 0.333,0.792 C 5.365,12.422 5.054,12.913 4.657,12.62 A 0.524,0.524 0 0 1 4.24,12.12 C 4.029,11.788 4.506,11.506 4.657,11.369 m 3.835,0 c 0.425,-0.017 0.694,0.074 0.792,0.375 a 0.626,0.626 0 0 1 0.084,0.417 c -0.18,0.236 -0.2,0.466 -0.584,0.5 A 0.322,0.322 0 0 1 8.451,12.619 C 8.151,12.53 8.023,12.277 8.034,11.869 A 0.5,0.5 0 0 0 8.117,11.66 3.306,3.306 0 0 0 8.492,11.368 m 6.546,0 a 2,2 0 0 1 0.625,0.084 2.09,2.09 0 0 0 0.251,0.333 c 0.015,0.582 -0.14,0.617 -0.417,0.876 -0.2,0.017 -0.317,0.063 -0.459,-0.042 -0.249,-0.067 -0.269,-0.219 -0.417,-0.375 -0.015,-0.582 0.14,-0.617 0.417,-0.876 m 3.836,0 a 1.8,1.8 0 0 1 0.667,0.125 c 0.339,0.635 0.227,0.737 -0.209,1.168 -0.2,0.019 -0.352,0.068 -0.5,-0.042 a 0.516,0.516 0 0 1 -0.333,-0.334 c -0.146,-0.177 -0.052,-0.428 0,-0.625 a 2.516,2.516 0 0 0 0.375,-0.292 M 4.7,11.536 c -0.187,0.176 -0.322,0.215 -0.333,0.584 0.146,0.186 0.142,0.347 0.458,0.375 0.1,0.059 0.2,-0.008 0.334,-0.042 l 0.208,-0.25 A 2.022,2.022 0 0 0 5.326,11.744 l -0.25,-0.208 z m 3.794,0 c -0.163,0.206 -0.291,0.226 -0.292,0.625 0.1,0.105 0.2,0.229 0.292,0.334 0.189,0.014 0.281,0.058 0.417,-0.042 0.231,-0.074 0.3,-0.269 0.292,-0.583 A 0.684,0.684 0 0 0 8.494,11.536 m 6.588,0 c -0.094,0.1 -0.191,0.2 -0.292,0.292 -0.046,0.543 0.242,0.757 0.75,0.625 l 0.209,-0.25 a 2.081,2.081 0 0 0 -0.042,-0.459 l -0.25,-0.208 z m 3.835,0 c -0.106,0.1 -0.191,0.09 -0.25,0.25 a 0.555,0.555 0 0 0 -0.083,0.375 c 0.1,0.105 0.194,0.229 0.292,0.334 0.188,0.014 0.28,0.058 0.417,-0.042 a 0.31,0.31 0 0 0 0.208,-0.167 0.622,0.622 0 0 0 0.084,-0.416 c -0.1,-0.1 -0.195,-0.229 -0.292,-0.334 z"/>
</svg>
