<?xml version="1.0" encoding="UTF-8"?>
<svg width="33px" fill="#44739e" height="32px" viewBox="0 0 33 32" version="1.1" xmlns="http://www.w3.org/2000/svg" xmlns:xlink="http://www.w3.org/1999/xlink">
            <path d="M 5.81,3.82 18.94,3.15 18.45,3.33 5.33,3.98 Z m 12.64,-0.49 0.02,17.2 0.39,-0.17 0.08,-17.21 z M 11.16,18.95 7.01,18.75 V 4.95 L 6.51,4.95531 V 18.91 l 4.65,0.27 z m 1.47,0.14 V 4.78 l -0.5,-0.03 v 14.49 l 5.1,0.26 V 19.28 Z M 11.855156,4.8085937 11.9,19.38 11.16,19.34 11.175625,4.8339062 Z M 6.28,19.14 6.2760937,4.98875 5.33,5.05 V 19.01 Z M 5.33,19.866094 17.387969,20.545625 17.394062,19.68 5.33,19.01 m 12.98,1.6 V 4.57 L 17.233906,4.5396875 17.22,20.53 Z M 18.317812,3.466875 5.33,4.09 V 5.05 L 18.31,4.57 Z"/>

</svg>