<?xml version="1.0" encoding="UTF-8"?>
<svg width="33px" fill="#44739e" height="32px" viewBox="0 0 33 32" version="1.1" xmlns="http://www.w3.org/2000/svg" xmlns:xlink="http://www.w3.org/1999/xlink">
            <path d="M 7.8926562,19.330937 7.1521875,19.297035 6.936875,19.19266 7.88875,19.226566 Z M 11.5,19.42094 8.95,19.36703 v -0.116094 l 2.553906,0.04219 z M 12.49,19.05 12.52,4.51 12.09,4.48 l -0.0078,14.819531 5.36791,0.16532 -1.6e-4,-0.230471 z M 6.0198438,3.78875 6.3042188,3.7548437 6.0928125,3.8570313 5.3773437,3.9009375 Z M 8.9617188,3.5823438 18.9,3.0535937 18.463906,3.2109375 8.9578125,3.7079688 Z M 18.463906,3.2109375 18.49,20.47 18.88,20.14 18.9,3.0535937 Z M 7.9,4.52 6.92,4.57 7.9,4.05 Z M 5.45,4.19 5.86,3.98 5.35,4.01 V 4.2 Z M 5.35,19.55 V 4.08 4.2 l 0.1,-0.01 0.023906,15.406875 z m 0,0.26 0.4865625,0.01953 L 5.4739062,19.596875 5.35,19.55 Z m 2.5465624,-0.337032 -0.4985936,-0.03 0.5024999,0.224531 z M 8.52,2.82 8.27,2.81 8.26,21.19 8.45,21.17 Z M 11.498655,19.570297 8.95,19.5 v 0.52 l 2.55,0.1 z M 11.461451,4.3632991 8.96,4.48 8.95,3.9 11.46,3.77 m 0.48,16.37 5.510779,0.321248 -5.53e-4,-0.828442 L 11.94,19.41 Z m 6.386873,-15.8931271 -0.02,16.2700001 -0.856094,-0.05562 -5.53e-4,-0.828447 v 0 L 17.44995,19.23438 17.439569,4.2907841 Z M 18.323906,3.4017188 11.94,3.74 V 4.56 L 18.326873,4.2468729 Z M 11.5,20.12 11.498655,19.570297 11.461451,4.3632991 11.46,3.77 11.94,3.74 v 16.4 z M 5.99,19 8.01,20.05 V 19.86 L 6.23,18.95 Z M 8.01,3.796875 6.03,4.88 6.23,4.87 8.01,3.9101563 M 5.99,19 6.03,4.88 6.23,4.87 V 18.95 Z M 8.83,3.07 8.63,3.04 8.58,20.93 8.84,20.89 Z M 8.15,3.6 V 20.32 L 8.01,20.25 V 3.9101563 3.796875 3.6817188 Z M 8.15,2.81 5.91,4.05 5.9060937,4.8478125 8.01,3.6817188 8.15,3.6 Z m 0,18.38 L 5.86,19.73 5.86209,19.074227 8.15,20.32 Z M 5.56,19.54 5.86,19.73 5.86209,19.074227 5.91,4.05 5.56,4.24"/>

</svg>