<?xml version="1.0" encoding="UTF-8"?>
<svg width="24px" fill="#44739e" height="24px" viewBox="0 0 24 24" version="1.1" xmlns="http://www.w3.org/2000/svg" xmlns:xlink="http://www.w3.org/1999/xlink">
            <path d="m 13.261,14.285336 a 4.918,4.918 0 0 0 2.948,-0.659 1.7,1.7 0 0 0 0.684,-1.36 1.9,1.9 0 0 0 -1.693,-1.7 l -0.121,-0.026 v -0.237 l 0.108,-0.055 c 0.852,-0.2620004 1.381,-0.8290007 1.381,-1.4780007 a 1.331,1.331 0 0 0 -0.66,-1.176 4,4 0 0 0 -2.334,-0.514 13.5,13.5 0 0 0 -1.923,0.13 v 7.0080007 c 0.316,0.028 0.863,0.067 1.61,0.067 z m -0.78,-6.6890007 0.126,-0.023 a 6.037,6.037 0 0 1 1.032,-0.068 c 1.723,0 2.086,0.739 2.086,1.36 0,0.833 -0.828,1.3920007 -2.06,1.3920007 h -1.184 z m 0,3.0800007 h 1.093 c 1.518,0 2.425,0.59 2.425,1.579 0,1.01 -0.88,1.591 -2.412,1.591 a 7.215,7.215 0 0 1 -0.976,-0.046 l -0.13,-0.02 z m 2.942,-5.2740007 -0.034,-0.018 0.021,-0.5 -2.842,1.921 c 0.266,-0.018 0.539,-0.028 0.813,-0.031 z m -7.6010003,8.3129997 -1.103,0.617 5.3900003,3.28 0.932,-0.593 -0.108,-0.069 z m 3.5230003,-0.549 v -1.209 l -1.063,-0.673 -1.0580003,0.591 z m 0,0.61 v -0.459 l -2.2440003,-1.374 0.042,0.462 z m 5.529,-5.0099997 a 1.836,1.836 0 0 1 -1.192,1.6150007 2.116,2.116 0 0 1 1.494,1.625 l 4.7,-3.2340007 0.124,0.065 -6.41,-3.348 -1.932,1.284 a 4.188,4.188 0 0 1 2.417,0.561 1.62,1.62 0 0 1 0.799,1.432 z m -1.631,5.6590007 -0.041,-0.027 a 7.715,7.715 0 0 1 -1.542,0.177 l 0.687,0.419 z m -8.7060003,0.590999 -3.188,1.574 5.182,3.66 3.3680003,-1.857 z m 4.8080003,-3.214 v -0.392 l -1.076,-0.659 0.036,0.404 z m 1.442,0.342001 2,1.22 a 1.267,1.267 0 0 0 0.8,-0.663 l -2.8,-1.639 z m 2.905,0.111 a 1.08,1.08 0 0 0 -0.026,-0.156 l -1.874,-1.111 c -0.078,0 -0.155,-0.006 -0.218,-0.006 H 12.9 l 2.748,1.578 a 1.16,1.16 0 0 0 0.044,-0.305 z m -2.905,0.444 1.3,0.812 a 3.437,3.437 0 0 0 0.536,-0.093 l -1.84,-1.126 z m 0,0.814 c 0.189,0.018 0.448,0.026 0.8,0.026 0.076,0 0.161,0 0.246,-0.007 l -1.046,-0.662 z M 11.471,6.9253353 c 0.236,-0.041 0.525,-0.074 0.833,-0.1 l 2.981,-2 -1.032,-0.517 -4.9060003,3.309 0.9570003,0.55 1.041,-0.7 v -0.519 z m 5.72,5.2380007 c 0,0.035 0.009,0.067 0.009,0.1 a 2,2 0 0 1 -0.8,1.6 3.041,3.041 0 0 1 -0.99,0.465 l 0.127,0.074 -0.152,0.109 h -0.006 l -1.015,0.653 -0.946,-0.578 c -0.055,0 -0.1,0.006 -0.156,0.006 -0.225,0 -0.431,0 -0.62,-0.009 l 1.653,1.029 0.138,0.08 -0.025,0.019 v 0 l -0.053,0.034 -0.075,0.054 v 0 l -1,0.64 -5.4100003,-3.307 0.045,0.5 5.1640003,3.214 0.137,0.081 v 0 l 0.108,0.066 v 0.028 l -1.2,0.773 -5.0000003,-3.063 -0.53,-0.326 0.047,0.527 5.4370003,3.365 v 0 l 0.1,0.059 v 0 h 0.008 l -0.148,0.084 v 0 l -3.5070003,1.992 -5.317,-3.776 v 0.552 l 5.317,3.8 3.8620003,-2.276 0.628,-0.37 0.582,-0.341 1.973,-2.413 0.01,-0.006 v 0 l 1.02,-1.248 v 0 l 2.3,-2.808 3.073,-2.1760007 0.021,-0.533 z M 7.0959997,5.7043353 l 2.088,1.26 4.8840003,-3.277 -2.06,-1.034 z m 4.2490003,3.833 -1.069,-0.634 10e-4,-0.019 -0.033,-0.014 0.383,-0.248 0.718,-0.482 v -0.51 l -1.049,0.708 -1.1380003,-0.663 v -0.015 l -0.057,-0.034 0.116,-0.085 4.9530003,-3.324 0.021,-0.469 -5.0140003,3.383 -2.211,-1.372 0.106,0.657 -0.003,-0.001 0.003,0.004 0.002,0.013 0.025,0.015 1.071,1.164 0.003,0.015 0.023,0.014 1.083,1.177 0.004,0.015 0.024,0.015 1.4840003,1.6129997 -0.402,0.225 0.956,0.582 v -1.047 l -0.036,-0.021 0.036,-0.024 z m 2.791,1.4790007 1.5,0.884 c -0.205,-0.6 -0.912,-0.814 -1.5,-0.884 z m -3.631,-2.1470007 0.84,0.497 v -1.055 z m 4.913,-0.004 c 0,-0.7 -0.6,-1.054 -1.779,-1.054 a 6.789,6.789 0 0 0 -0.852,0.044 v 2.1000003 h 0.878 c 1.065,-0.003 1.753,-0.4300003 1.753,-1.0900003 z m -4.073,5.6230007 v -0.545 l -2.3120003,-1.463 -1.033,0.579 5.2670003,3.207 0.873,-0.556 -1.8,-1.141 c -0.387,-0.02 -0.684,-0.046 -0.854,-0.065 z m -4.6950003,-7.8320007 -1.043,0.594 2.317,2.9819997 -4.375,2.944 -0.008,-0.009 -0.026,0.033 -0.022,0.014 -0.752,-0.877 -0.741,3.202 3.098,-0.45 -0.71,-0.831 5.492,-3.715 z"/>

</svg>