<?xml version="1.0" encoding="UTF-8"?>
<svg width="24px" fill="#44739e" height="24px" viewBox="0 0 24 24" version="1.1" xmlns="http://www.w3.org/2000/svg" xmlns:xlink="http://www.w3.org/1999/xlink">
            <path d="m 16.052058,13.737762 v -3.507 h -2.2 v 0.492 h 1.559 v 2.61 l -0.089,0.045 a 3.322,3.322 0 0 1 -1.395,0.228999 3,3 0 0 1 -3.122,-3.345 3.081,3.081 0 0 1 3.247,-3.3280008 4.16,4.16 0 0 1 1.591,0.279 l 0.149,-0.516 a 4.785,4.785 0 0 0 -1.717,-0.29 3.75,3.75 0 0 0 -3.992,3.9000008 3.957,3.957 0 0 0 1.022,2.814999 3.732,3.732 0 0 0 2.754,0.992001 6.728,6.728 0 0 0 2.193,-0.375999 z m -1.052,-8.6210018 -0.037,-0.02 0.022,-0.528 -2.796,1.885 a 4.67,4.67 0 0 1 1.292,-0.318 z m -5.4890001,5.6940008 0.039,0.43 0.35,0.221 c -0.034,-0.151 -0.063,-0.3 -0.083,-0.461 z m 0.128,-0.071 0.163,0.1 c -0.006,-0.061 -0.011,-0.121001 -0.015,-0.182001 z m -4.1010001,4.611998 -3.394,1.675 5.516,3.896 3.5860002,-1.976 z m 5.8240002,-13.1629999 -5.2290002,3.249 2.223,1.341 5.1990002,-3.489 z m 1.1,15.2959999 -0.115,-0.074 -5.4410002,-3.445 -1.174,0.657 5.7380002,3.492 z M 9.5180579,8.8427602 v -0.019 l -0.034,-0.015 0.407,-0.264 0.3150001,-0.212 a 3.816,3.816 0 0 1 0.685,-1 l -1.351,0.909 -1.212,-0.706 v -0.015 l -0.061,-0.037 0.124,-0.09 5.273,-3.539 0.023,-0.5 -5.338,3.607 -2.3490001,-1.465 0.113,0.7 v 0 0 0.015 l 0.026,0.015 1.14,1.24 v 0.015 l 0.025,0.015 1.1530001,1.255 v 0.017 l 0.025,0.015 1.283,1.4000008 a 4.854,4.854 0 0 1 0.162,-1.0900008 z m 0.4580003,0.091 c 0.033,-0.11 0.054,-0.227 0.095,-0.332 l -0.308,0.206 z m 6.4029998,3.7280018 v 1.3 l -0.107,0.04 a 7.363,7.363 0 0 1 -1.647,0.394 l 0.346,0.216 0.147,0.086 -0.162,0.116 h -0.006 l -1.081,0.693999 -5.6000002,-3.429 0.045,0.491999 5.4860002,3.415 0.146,0.086 -0.027,0.019 v 0 l -0.056,0.036 -0.08,0.057 h -0.005 l -1.061,0.682 -5.7600001,-3.523 0.048,0.533 5.5000001,3.422 0.147,0.086 v 0 l 0.115,0.07 v 0.031 l -1.278,0.822 -5.3300001,-3.261 -0.565,-0.347 0.05,0.561 5.7890001,3.583 v 0 l 0.1,0.062 v 0 l 0.008,0.006 -0.157,0.09 v 0 l -3.7240001,2.117 -5.66,-4.02 v 0.587 l 5.66,4.05 4.1130001,-2.424 0.668,-0.394 0.619,-0.363 2.1,-2.569 0.01,-0.007 v 0 l 1.086,-1.327999 v 0 l 2.444,-2.996001 3.271,-2.3179994 0.029,-0.5620004 z m -2.896,0.58 -1.883,-1.152 a 2.5,2.5 0 0 0 1.883,1.152 z m 1.601,-1.288002 v -0.906 h -1.532 z m -3.604,-0.092 2.313,1.407999 c 0.046,0 0.087,0.012 0.134,0.012 a 3.537,3.537 0 0 0 1.157,-0.154 V 12.82776 l -3.933,-2.3 a 3.419,3.419 0 0 0 0.329,1.334002 z m 3.371,-7.3610019 -1.099,-0.55 -5.2230002,3.523 1.02,0.587 z m -3.72,5.7610019 c 0,0.042 0.007,0.078 0.008,0.119 l 3.945,2.265 v -0.506 l -3.919,-2.3200014 a 4.245,4.245 0 0 0 -0.034,0.4420014 z m 4.929,-3.8000018 0.122,0.06 -0.33,1.142 -0.172,-0.079 a 3.679,3.679 0 0 0 -1.628,-0.323 2.684,2.684 0 0 0 -2.873,2.3810004 l 2.346,1.3869994 V 9.9047606 h 2.854 v 2.5760014 l 5.485,-3.7770018 0.135,0.07 -6.824,-3.565 -1.349,0.9 c 0.084,0 0.162,-0.021 0.249,-0.021 a 4.75,4.75 0 0 1 1.985,0.374 z m -5.183,6.9000018 A 3.767,3.767 0 0 1 9.9480579,11.647761 l -0.423,-0.268 -1.125,0.628 5.4540001,3.32 0.953,-0.606 -0.475,-0.3 c -0.155,0.012 -0.308,0.027 -0.472,0.027 a 4.036,4.036 0 0 1 -2.983,-1.086999 z m -3.7850002,-0.094 5.6070002,3.414 0.929,-0.592 -5.4320002,-3.438 z"/>

</svg>