<svg version="1.1" id="DPD_Black" xmlns:x="ns_extend;" xmlns:i="ns_ai;" xmlns:graph="ns_graphs;" xmlns="http://www.w3.org/2000/svg" xmlns:xlink="http://www.w3.org/1999/xlink" x="0px" y="0px" viewBox="0 0 64.4 75" style="enable-background:new 0 0 64.4 75;" xml:space="preserve">
 <style type="text/css">
  .st0{fill:url(#SVGID_1_);}
 </style>
 <metadata>
  <sfw xmlns="ns_sfw;">
   <slices>
   </slices>
   <sliceSourceBounds bottomLeftOrigin="true" height="75" width="64.4" x="277.6" y="6.1">
   </sliceSourceBounds>
  </sfw>
 </metadata>
 <g>
  <linearGradient id="SVGID_1_" gradientUnits="userSpaceOnUse" x1="853.55" y1="-312.2374" x2="995.8518" y2="-431.6428" gradientTransform="matrix(0.229 0 0 0.229 -195.1519 135.152)">
   <stop offset="0" style="stop-color:#A90034">
   </stop>
   <stop offset="0.2717" style="stop-color:#BB0033">
   </stop>
   <stop offset="0.7226" style="stop-color:#D30032">
   </stop>
   <stop offset="1" style="stop-color:#DC0032">
   </stop>
  </linearGradient>
  <path class="st0" d="M44.7,33.5c-0.3,0.2-0.8,0.2-1.1,0l-1.7-1c-0.1-0.1-0.3-0.2-0.4-0.4c0,0,0,0,0,0c-0.1-0.2-0.2-0.4-0.2-0.5l0-2
		c0-0.3,0.2-0.8,0.5-0.9l20.9-12.2l-29.4-16C33,0.1,32.6,0,32.2,0c-0.4,0-0.9,0.1-1.2,0.3l-29.4,16l32.9,19.2
		c0.3,0.2,0.5,0.6,0.5,0.9v27.9c0,0.4-0.3,0.8-0.6,0.9l-1.8,1c-0.1,0.1-0.3,0.1-0.5,0.1c0,0,0,0,0,0c-0.2,0-0.4,0-0.6-0.1l-1.8-1
		c-0.3-0.2-0.5-0.6-0.5-0.9l0-24.9c0-0.2-0.1-0.4-0.3-0.5L0,22v33.1c0,0.7,0.5,1.7,1.2,2L31,74.7c0.3,0.2,0.7,0.3,1.2,0.3
		c0.4,0,0.8-0.1,1.2-0.3l29.9-17.6c0.6-0.4,1.2-1.3,1.2-2V22L44.7,33.5z">
  </path>
 </g>
</svg>