<?xml version="1.0" encoding="UTF-8"?>
<svg width="24px" fill="#44739e" height="24px" viewBox="0 0 24 24" version="1.1" xmlns="http://www.w3.org/2000/svg" xmlns:xlink="http://www.w3.org/1999/xlink">
            <path d="m 11.793,12.638 h 0.745 A 3.167,3.167 0 0 0 15.705,9.471 V 3.065 A 6.832,6.832 0 0 0 12.2,2 C 12.073,2 12,2.006 12,2.006 12,2.006 11.93,2 11.8,2 A 6.762,6.762 0 0 0 8.624,2.87 v 6.6 a 3.167,3.167 0 0 0 3.169,3.168 z M 11.012,3.5 A 1.61,1.61 0 0 1 11.06,3.3 1.532,1.532 0 0 1 11.227,2.939 1.411,1.411 0 0 1 11.351,2.789 C 11.415,2.718 11.378,2.766 11.496,2.67 a 1.425,1.425 0 0 1 0.344,-0.193 1,1 0 0 1 0.364,-0.092 1.8,1.8 0 0 1 0.41,0.023 2.423,2.423 0 0 1 0.361,0.095 2.015,2.015 0 0 1 0.245,0.133 0.68,0.68 0 0 1 0.162,0.17 2.684,2.684 0 0 1 0.153,0.225 1.7,1.7 0 0 1 0.113,0.223 c 0.016,0.052 0.053,0.246 0.056,0.267 0.003,0.021 0.033,0.14 -0.069,0.147 C 13.533,3.675 13.512,3.562 13.505,3.53 A 2.947,2.947 0 0 0 13.4,3.2 3.3,3.3 0 0 0 13.149,2.85 0.859,0.859 0 0 0 12.798,2.633 1.87,1.87 0 0 0 12.258,2.555 0.809,0.809 0 0 0 12.009,2.59 a 1.375,1.375 0 0 0 -0.312,0.152 1.274,1.274 0 0 0 -0.26,0.22 1.364,1.364 0 0 0 -0.2,0.4 1.312,1.312 0 0 0 -0.018,0.416 1.036,1.036 0 0 0 0.312,0.606 0.983,0.983 0 0 0 0.416,0.186 1.483,1.483 0 0 0 0.269,0.017 0.587,0.587 0 0 0 0.247,-0.03 1,1 0 0 0 0.156,-0.06 0.833,0.833 0 0 0 0.261,-0.167 0.69,0.69 0 0 0 0.163,-0.288 0.5,0.5 0 0 0 0.005,-0.176 c 0,-0.028 0,-0.052 -0.006,-0.075 A 1.171,1.171 0 0 0 13,3.616 0.776,0.776 0 0 0 12.956,3.462 0.667,0.667 0 0 0 12.903,3.35 C 12.888,3.327 12.875,3.311 12.859,3.287 A 0.685,0.685 0 0 0 12.335,3 0.72,0.72 0 0 0 12.102,3.031 0.78,0.78 0 0 0 11.937,3.11 a 0.509,0.509 0 0 0 -0.063,0.039 0.39,0.39 0 0 0 -0.051,0.04 0.887,0.887 0 0 0 -0.051,0.074 0.537,0.537 0 0 0 -0.126,0.4 0.5,0.5 0 0 0 0.468,0.507 0.69,0.69 0 0 0 0.425,-0.161 0.356,0.356 0 0 0 0.054,-0.241 0.4,0.4 0 0 0 -0.089,-0.24 0.384,0.384 0 0 0 -0.262,-0.109 0.184,0.184 0 0 0 -0.2,0.163 0.16,0.16 0 0 0 0.1,0.173 1.087,1.087 0 0 0 0.165,0 c 0.027,0 0.068,0 0.068,0.08 -0.007,0.15 -0.333,0.066 -0.337,0.063 a 0.361,0.361 0 0 1 -0.177,-0.264 0.371,0.371 0 0 1 0.215,-0.366 0.443,0.443 0 0 1 0.148,-0.029 0.648,0.648 0 0 1 0.3,0.07 0.477,0.477 0 0 1 0.053,0.029 l 0.031,0.021 a 0.537,0.537 0 0 1 0.169,0.329 0.877,0.877 0 0 1 0.009,0.127 0.443,0.443 0 0 1 -0.035,0.2 0.383,0.383 0 0 1 -0.173,0.184 1,1 0 0 1 -0.355,0.127 0.779,0.779 0 0 1 -0.338,-0.032 0.643,0.643 0 0 1 -0.4,-0.537 0.764,0.764 0 0 1 0.128,-0.586 0.883,0.883 0 0 1 0.073,-0.094 0.965,0.965 0 0 1 0.249,-0.179 0.691,0.691 0 0 1 0.269,-0.09 1.271,1.271 0 0 1 0.133,0 1.343,1.343 0 0 1 0.209,0.033 1.035,1.035 0 0 1 0.166,0.048 0.665,0.665 0 0 1 0.1,0.06 0.825,0.825 0 0 1 0.208,0.175 0.921,0.921 0 0 1 0.131,0.256 c 0.024,0.074 0.044,0.181 0.068,0.3 A 0.949,0.949 0 0 1 13.202,4.156 0.747,0.747 0 0 1 13.002,4.45 1.26,1.26 0 0 1 12.621,4.686 0.753,0.753 0 0 1 12.194,4.769 1.49,1.49 0 0 1 11.687,4.674 0.9,0.9 0 0 1 11.312,4.42 0.917,0.917 0 0 1 11.085,4.041 C 11.058,3.962 11.009,3.758 11.009,3.758 c 0,0 0.006,0 -0.006,-0.106 A 0.71,0.71 0 0 1 11.012,3.5 Z M 9.49,10.716 V 6.286 A 0.179,0.179 0 0 1 9.669,6.107 h 4.994 a 0.179,0.179 0 0 1 0.178,0.179 v 4.43 a 0.178,0.178 0 0 1 -0.178,0.178 H 9.669 A 0.179,0.179 0 0 1 9.49,10.716 Z M 14.629,6.319 H 9.7 v 4.364 h 4.927 z m -0.285,4.059 A 0.062,0.062 0 0 1 14.282,10.44 H 10.049 A 0.061,0.061 0 0 1 9.988,10.378 V 6.623 a 0.061,0.061 0 0 1 0.061,-0.061 h 4.233 a 0.061,0.061 0 0 1 0.062,0.061 z m -2.778,6.794 h 1.2 l -0.6,-1.019 z M 6.231,12.023 H 5.669 v 0.82 H 4.85 v 0.561 h 0.819 v 0.819 H 6.231 V 13.404 H 7.05 V 12.843 H 6.231 Z M 20.638,5.784 A 28.037,28.037 0 0 0 17.891,5.078 8.244,8.244 0 0 0 15.917,3.2 V 9.471 A 3.382,3.382 0 0 1 12.538,12.85 H 11.793 A 3.383,3.383 0 0 1 8.414,9.471 V 2.994 a 8.148,8.148 0 0 0 -2.3,2.084 28.037,28.037 0 0 0 -2.747,0.706 c -0.359,0.19 -1.656,2.367 -0.769,7.973 0.887,5.606 2.85,9.407 3.294,7.918 0.444,-1.489 0.38,-1.488 0.6,-2.027 0.22,-0.539 0.665,-0.57 1.235,-0.7 a 28.106,28.106 0 0 1 3.977,-0.439 0.048,0.048 0 0 0 0,0.012 q 0.079,1.411 0.16,2.822 c 0.03,0.543 0.878,0.546 0.847,0 q -0.081,-1.412 -0.16,-2.822 v 0 a 28.454,28.454 0 0 1 3.729,0.43 c 0.57,0.127 1.014,0.159 1.235,0.7 0.221,0.541 0.159,0.539 0.6,2.027 0.441,1.488 2.407,-2.312 3.294,-7.918 C 22.296,8.154 21,5.974 20.638,5.784 Z M 2.93,8.4 A 1.563,1.563 0 1 1 4.493,9.967 1.565,1.565 0 0 1 2.93,8.4 Z m 4.678,5.131 A 0.169,0.169 0 0 1 7.439,13.7 H 6.531 v 0.908 A 0.169,0.169 0 0 1 6.362,14.777 H 5.538 A 0.169,0.169 0 0 1 5.369,14.608 V 13.7 H 4.461 A 0.169,0.169 0 0 1 4.292,13.531 v -0.823 a 0.17,0.17 0 0 1 0.169,-0.17 h 0.908 v -0.907 a 0.169,0.169 0 0 1 0.169,-0.169 h 0.824 a 0.169,0.169 0 0 1 0.169,0.169 v 0.907 h 0.908 a 0.17,0.17 0 0 1 0.169,0.17 z m 5.543,4.055 h -1.97 a 0.131,0.131 0 0 1 -0.116,-0.064 0.133,0.133 0 0 1 0,-0.132 l 0.985,-1.673 a 0.132,0.132 0 0 1 0.225,0 l 0.984,1.673 a 0.128,0.128 0 0 1 0,0.132 0.13,0.13 0 0 1 -0.108,0.068 z m 5.69,-9.83 A 0.866,0.866 0 1 1 17.975,8.622 0.867,0.867 0 0 1 18.841,7.76 Z M 17.173,11.1 a 0.866,0.866 0 1 1 0.866,-0.866 0.868,0.868 0 0 1 -0.866,0.866 z m 1.647,1.625 a 0.866,0.866 0 1 1 0.866,-0.866 0.867,0.867 0 0 1 -0.866,0.863 z m 1.669,-1.6 a 0.866,0.866 0 1 1 0.866,-0.866 0.868,0.868 0 0 1 -0.866,0.859 z M 17.173,9.731 a 0.5,0.5 0 1 0 0.5,0.5 0.5,0.5 0 0 0 -0.5,-0.5 z M 5.493,8.4040003 a 1,1 0 0 1 -1,1 1,1 0 0 1 -1,-1 1,1 0 0 1 1,-1 1,1 0 0 1 1,1 z M 18.82,11.356 a 0.5,0.5 0 1 0 0.5,0.5 0.5,0.5 0 0 0 -0.5,-0.5 z m 2.169,-1.104 a 0.5,0.5 0 0 1 -0.5,0.5 0.5,0.5 0 0 1 -0.5,-0.5 0.5,0.5 0 0 1 0.5,-0.5000001 0.5,0.5 0 0 1 0.5,0.5000001 z M 19.341,8.6260004 a 0.5,0.5 0 0 1 -0.5,0.5 0.5,0.5 0 0 1 -0.5,-0.5 0.5,0.5 0 0 1 0.5,-0.5 0.5,0.5 0 0 1 0.5,0.5 z"/>

</svg>