<svg xmlns="http://www.w3.org/2000/svg" viewBox="0 0 24 24"><path fill="#44739e" d="M14.119 12.073a1.04 1.04 0 0 1-.656.2h-.079a1.05 1.05 0 0 1-.676-.35h-.013l-.005.004-.275.337a.04.04 0 0 0-.011.027q0 .015.011.028a1.53 1.53 0 0 0 .821.42c.03 0 .063.01.093.013a1.5 1.5 0 0 0 .998-.24Zm-1.339.507c-.09.226-.26.466-.308.683.255.001.589.07.642-.266.09-.222.392-.535-.334-.417m1.205-1.843c-.286-.089-.412.107-.488.352l-.37.767.47.137c.11-.139.218-.714.329-.32.247.516.499 1.03.747 1.545.095.03.622.156.518-.045l-1.164-2.41Zm4.253.032-.874 1.065c-.32-.356-.588-.779-.939-1.097-.233-.032-.49-.03-.385.285.003.738-.005 1.478.004 2.215.183.048.592.111.48-.217v-1.447c.285.328.543.695.844 1 .3-.31.558-.67.84-1 .009.559-.017 1.125.013 1.679.13-.023.508.126.472-.112-.002-.789.003-1.581-.003-2.37-.122-.05-.32-.036-.452-.001m2.082 2.017c.049-.197-.144-.636.202-.537.414-.003.829.005 1.244-.004.048-.126.06-.376-.015-.48h-1.432c.049-.199-.144-.637.202-.539.479-.002.96.005 1.438-.003.068-.213.08-.594-.257-.48h-1.827c-.097.262-.016.598-.042.888v1.596c.263.095.598.016.888.042h1.222c.074-.167.13-.602-.2-.481Zm-10.457 0c.048-.197-.144-.636.201-.537.418-.01.845.018 1.258-.013-.016-.148.13-.54-.15-.472h-1.31c.048-.198-.144-.636.201-.538.483-.009.974.018 1.453-.012-.006-.171.123-.567-.191-.47-.646.008-1.297-.018-1.94.012-.027.819-.003 1.649-.01 2.471.246.097.571.016.847.043.429-.01.869.017 1.294-.013-.002-.17.116-.562-.192-.469Zm-3.679-1.568h1.135a.27.27 0 0 1 .27.27.27.27 0 0 1-.27.269H6.183Zm1.328.999a.75.75 0 0 0-.191-1.475h-1.58a.04.04 0 0 0-.028.012.04.04 0 0 0-.012.03v2.44a.043.043 0 0 0 .04.043h.4a.043.043 0 0 0 .043-.043v-.977h.777l.603.981a.1.1 0 0 0 .031.029.1.1 0 0 0 .041.01h.499l.007-.002.005-.005.002-.008-.001-.007Zm-5.026-.995c.497.027 1.115-.14 1.418.402.43.874-.555 1.267-1.242 1.158-.325.077-.119-.375-.176-.565Zm2.043.779c.026-1.034-1.029-1.343-1.862-1.263-.211.031-.492-.06-.665.042.009.822-.017 1.654.013 2.471.426.03.866.004 1.298.012.659-.01 1.231-.603 1.216-1.262"/></svg>