<svg xmlns="http://www.w3.org/2000/svg" viewBox="0 0 24 24"><path fill="#44739e" d="M14.1245 12.0696a1.036 1.036 0 0 1-.6554.201H13.39a1.048 1.048 0 0 1-.6773-.35.02.02 0 0 0-.0064 0 .03.03 0 0 0-.0055 0 .01.01 0 0 0-.0045.0035l-.2754.3364a.043.043 0 0 0-.0109.0273c0 .01.0036.02.011.0282a1.53 1.53 0 0 0 .8217.42c.031 0 .0628.01.0937.0127a1.515 1.515 0 0 0 .9981-.24zm-1.34.5073c-.0895.2257-.2603.4672-.3072.6836.2543.0015.5891.0705.643-.2653.0895-.2234.3913-.536-.3358-.4183m1.2064-1.8437c-.2864-.0891-.4118.1072-.4876.3515l-.3706.7686.471.1363c.1092-.1384.2173-.7148.3281-.3196.2474.5163.5011 1.0295.7482 1.546.0948.0308.622.1563.5177-.0453l-1.165-2.412-.0427-.0264Zm4.2573.0319-.8755 1.0663c-.3198-.3579-.5886-.78-.94-1.0982-.2328-.032-.4893-.0297-.3845.2847.0024.7389-.0048 1.4789.0036 2.2171.1835.0476.5924.1112.481-.217v-1.4485c.2849.3286.5436.6957.8445 1.001.299-.31.5575-.6713.8409-1.001.0084.5592-.0168 1.1251.0125 1.6802.1302-.0228.5082.1265.472-.1117-.0018-.7906.0037-1.582-.0027-2.372-.1225-.0504-.3194-.0363-.4518-.001m2.0827 2.0181c.0487-.1976-.1436-.6361.2016-.5372.415-.0025.8312.0049 1.2457-.0036.0478-.1266.059-.376-.0155-.481h-1.4318c.0487-.1981-.1437-.6374.2016-.539.4802-.0025.9615.0049 1.4411-.0036.0672-.213.0792-.5934-.2583-.4792h-1.828c-.0974.2612-.016.5976-.0428.8885v1.597c.2633.0952.598.0156.8895.0418h1.2233c.0738-.167.13-.6026-.2016-.4821-.4747-.0003-.9515-.0027-1.4248-.0015zm-10.4654 0c.0486-.1976-.1437-.6361.2016-.5372.4184-.009.846.0177 1.2589-.0129-.0161-.1484.13-.5398-.1506-.4717h-1.31c.0488-.1982-.1436-.6374.2017-.539.4837-.0089.9744.0173 1.4538-.0128-.006-.1707.1244-.5666-.1913-.47-.6453.0087-1.2978-.0172-1.9387.0127-.0276.8198-.004 1.6493-.0118 2.4728.247.0972.5702.016.8473.0427.4301-.0091.8695.0178 1.2941-.0128-.0014-.1705.1179-.5627-.1918-.4693zm-3.681-1.569H7.32a.271.271 0 0 1 .27.27.27.27 0 0 1-.27.269H6.1836v-.539zm1.3291 1a.751.751 0 0 0-.1909-1.4764h-1.579a.04.04 0 0 0-.0292.0127.043.043 0 0 0-.0118.0291v2.4427a.0427.0427 0 0 0 .041.0428h.4a.0427.0427 0 0 0 .0418-.0428v-.9781h.7781l.6037.9818a.095.095 0 0 0 .0309.029.08.08 0 0 0 .0409.01h.5a.02.02 0 0 0 .0073-.0017.01.01 0 0 0 .0045-.0055.013.013 0 0 0 .0018-.0073l-.0009-.0073zm-5.03-.9964c.4982.0277 1.116-.1406 1.4203.403.4305.874-.5562 1.2687-1.2432 1.1579-.3258.0786-.1197-.3747-.177-.5645zm2.0455.78c.0262-1.035-1.0308-1.3434-1.863-1.2636-.212.0312-.493-.0607-.6661.0418.0086.8231-.0171 1.6548.0127 2.4727.4267.0299.8672.0041 1.2991.0127.661-.0112 1.2324-.604 1.2173-1.2636"/></svg>