<?xml version="1.0" encoding="UTF-8"?>
<svg width="24px" fill="#44739e" height="24px" viewBox="0 0 24 24" version="1.1" xmlns="http://www.w3.org/2000/svg" xmlns:xlink="http://www.w3.org/1999/xlink">
            <path d="m 12.488,21.065 c 0.006,0.014 0.02,0.017 0.032,0 0.012,-0.017 0.039,0 0.073,0 a 0.278,0.278 0 0 0 -0.071,-0.006 c -0.009,0.008 -0.026,0.01 -0.032,0 A 0.411,0.411 0 0 0 12.344,21 l -0.032,-0.007 v 0 0 L 12.344,21 a 0.411,0.411 0 0 1 0.144,0.065 z m 6.852,-0.705 0.028,0.044 c 0.021,0.028 0.025,0.017 0.037,-0.027 0.007,-0.026 0.019,-0.064 0.025,-0.083 0.006,-0.019 0.012,-0.035 0.015,-0.046 V 20.23 c 0,-0.011 0,-0.015 -0.013,-0.015 a 0.4,0.4 0 0 0 -0.09,0.026 l -0.036,0.017 c -0.02,0.008 -0.028,0.02 -0.022,0.029 l 0.01,0.006 C 19.3,20.3 19.32,20.329 19.34,20.36 Z m -6.844,1.061 V 21.42 L 12.495,21.419 Z M 12.31,20.996 h -0.002 z m 0.172,0.4 -0.002,-0.006 -0.006,0.006 z M 12.245,21 v 0 a 0.14,0.14 0 0 1 0.063,0 c -0.035,-0.009 -0.063,-0.009 -0.063,0 z M 11.578,20.998 V 20.996 L 11.563,20.99 Z m -0.039,-0.027 a 0.847,0.847 0 0 1 -0.1,-0.079 0.357,0.357 0 0 0 -0.043,-0.034 0.1,0.1 0 0 1 -0.026,-0.019 v 0 a 0.105,0.105 0 0 0 0.027,0.02 0.357,0.357 0 0 1 0.043,0.034 0.847,0.847 0 0 0 0.1,0.079 l 0.009,0.007 0.014,0.009 -0.015,-0.012 z m 0.098,-0.115 a 0.027,0.027 0 0 1 0.006,0.016 V 20.9 l -0.01,0.008 a 0.035,0.035 0 0 0 -0.006,0.019 0.034,0.034 0 0 0 0.034,0.036 c 0.014,0 0.014,0 0,-0.037 a 0.06,0.06 0 0 0 -0.013,-0.025 h 0.01 a 0.026,0.026 0 0 0 0.007,-0.036 v 0 c -0.011,-0.014 -0.022,-0.017 -0.026,-0.01 z m -0.044,-0.047 -0.007,0.015 a 0.053,0.053 0 0 0 0,0.025 0.674,0.674 0 0 0 -0.008,0.1 V 21 h 0.009 v -0.05 a 0.674,0.674 0 0 1 0.008,-0.1 0.053,0.053 0 0 1 0,-0.025 l 0.007,-0.015 q 0.006,-0.018 0.015,-0.039 c 0.021,-0.055 0.033,-0.075 0.021,-0.081 h -0.009 c 0.011,0.006 0,0.026 -0.021,0.08 q -0.008,0.021 -0.015,0.039 z m 0.733,0.281 H 12.313 A 0.161,0.161 0 0 1 12.265,21.056 V 21.05 L 12.251,21.032 A 0.041,0.041 0 0 1 12.245,21 v 0 a 0.042,0.042 0 0 0 0.006,0.027 l 0.017,0.018 v 0.006 a 0.161,0.161 0 0 0 0.048,0.034 h 0.013 c 0.081,0.032 0.263,0.095 0.308,0.107 0.015,0 0.023,0 0.028,-0.01 v 0 c 0,0.007 -0.013,0.01 -0.027,0.009 -0.049,-0.006 -0.231,-0.069 -0.312,-0.101 z m 0.359,0.01 -0.014,0.054 c 0,0.011 -0.006,0.023 -0.01,0.034 v 0 c 0,-0.012 0.008,-0.024 0.011,-0.036 l 0.014,-0.054 a 0.194,0.194 0 0 0 -0.082,-0.027 0.209,0.209 0 0 1 0.081,0.029 z m -0.758,-0.182 c 0,-0.01 0,-0.01 -0.01,-0.01 v 0 l 0.011,0.015 v 0 z m -0.534,-0.195 a 0.416,0.416 0 0 1 -0.017,0.063 c -0.011,0.031 -0.015,0.042 -0.007,0.052 v 0 c -0.006,-0.01 0,-0.02 0.007,-0.05 a 0.45,0.45 0 0 0 0.017,-0.063 L 11.4,20.7 11.443,20.69 H 11.5 a 0.869,0.869 0 0 1 0.125,0 v 0 a 0.75,0.75 0 0 0 -0.134,0 h -0.1 z m 0.798,-0.172 v 0 z M 12.1,21.059 12.089,21.07 c 0,0 0.019,0 0.019,0 a 0.027,0.027 0 0 0 0.017,-0.01 v 0 H 12.116 A 0.019,0.019 0 0 0 12.1,21.059 Z m 0.175,-0.715 -0.002,0.003 z m -0.167,-0.087 h 10e-4 l -10e-4,-0.003 z m 0.38,0.149 c 0,-0.006 -0.016,-0.008 -0.016,0 v 0.011 c -0.006,0 -0.009,-0.011 -0.016,0 -0.029,0.052 -0.1,0.163 -0.129,0.2 a 0.147,0.147 0 0 0 -0.024,0.037 c 0,0 0,0.006 0.014,-0.009 0.014,-0.015 0.019,-0.015 0.158,-0.015 0.116,0 0.141,0 0.141,-0.01 0,-0.01 -0.005,-0.007 -0.018,-0.009 a 1.286,1.286 0 0 1 -0.215,0 l -0.011,0.007 0.005,-0.007 h -0.006 -0.007 a 0.014,0.014 0 0 1 0,-0.019 l 0.009,-0.008 a 0.4,0.4 0 0 0 0.039,-0.043 l 0.013,-0.016 c 0.008,-0.013 0.013,-0.013 0.013,-0.013 a 0.135,0.135 0 0 1 -0.015,0.026 l -0.012,0.019 -0.014,0.022 v 0 c 0.024,-0.031 0.072,-0.105 0.106,-0.162 v -0.01 C 12.5,20.394 12.493,20.412 12.488,20.406 Z M 12.1,20.258 c 0,0 0.006,0 0.009,0 0.003,0 -0.008,-0.005 -0.009,0 z m 0.373,0.342 a 0.128,0.128 0 0 1 -0.027,0 0.26,0.26 0 0 0 -0.037,0 0.6,0.6 0 0 0 0.064,0 z m -0.365,1.089 -0.001,0.001 h 0.001 z m -0.128,0.004 v 0.013 0 -0.006 c 0,0 0.024,-0.011 0.066,-0.011 0.042,0 0.059,0 0.06,0.007 v 0 A 0.2,0.2 0 0 0 12.044,21.689 C 12,21.683 11.98,21.687 11.98,21.693 Z m 0.064,0.013 a 0.167,0.167 0 0 1 -0.063,0 v 0 a 0.172,0.172 0 0 0 0.064,0 c 0.067,0 0.069,0 0.064,-0.017 v 0 C 12.107,21.7 12.1,21.7 12.044,21.706 Z m 0.049,-0.073 h -0.1 V 21.6 a 2.464,2.464 0 0 1 0.023,-0.429 v 0 a 2.533,2.533 0 0 0 -0.023,0.435 v 0.029 H 12.1 Z M 12.409,20.6 c -0.016,0 -0.017,-0.011 -0.013,-0.023 v 0 a 0.137,0.137 0 0 0 -0.019,0.03 h 0.006 v 0 A 0.067,0.067 0 0 1 12.409,20.6 Z m 0.191,0.011 h 0.01 a 0.482,0.482 0 0 0 -0.1,-0.008 h -0.033 a 0.109,0.109 0 0 0 0.035,0.007 0.866,0.866 0 0 1 0.088,0.001 z m -0.589,0.343 c 0,0 0,0.009 0.025,0.013 h 0.012 c 0.005,0 0.021,0 0.024,-0.006 v 0 0 0 c 0,-0.011 -0.056,-0.009 -0.068,0 v 0 h 0.008 z m 7.424,-0.878 -0.041,0.009 -0.048,0.012 c -0.021,0.006 -0.039,0.018 -0.059,0.025 a 0.8,0.8 0 0 1 0.252,-0.053 0.717,0.717 0 0 0 -0.104,0.007 z m -5.69,-1.051 0.019,-0.051 a 0.148,0.148 0 0 1 0.036,-0.059 1.4,1.4 0 0 0 -0.2,0.156 0.192,0.192 0 0 0 0.1,-0.025 z m 1.677,0.114 -0.318,0.019 c -0.351,0.019 -0.659,0.037 -0.764,0.049 l 0.3,-0.02 0.377,-0.023 0.445,-0.026 0.5,-0.029 0.165,-0.009 c -0.012,0 -0.023,0 -0.035,0 -0.125,0 -0.326,0.017 -0.67,0.039 z m 3.541,1.771 0.022,0.018 c -0.03,-0.025 -0.058,-0.054 -0.09,-0.077 a 0.275,0.275 0 0 0 0.068,0.059 z m -5.14,-1.691 c 0.029,0.011 0.03,0.011 0.067,-0.006 a 0.422,0.422 0 0 1 0.045,-0.018 c 0.012,0 0.014,-0.012 0,-0.029 -0.027,-0.041 0.038,-0.053 0.087,-0.016 0.03,0.023 0.045,0.024 0.067,0.006 0.022,-0.018 0.093,-0.021 0.106,0 l 0.008,0.013 0.067,-0.005 V 19.1 l 0.009,-0.125 v -0.068 l -0.035,-0.063 v -0.058 l 0.043,-0.038 c -0.031,0 -0.046,0 -0.05,-0.011 -0.004,-0.011 0,-0.017 0.017,-0.031 l 0.006,-0.007 a 0.365,0.365 0 0 0 -0.053,0.025 c -0.053,0.028 -0.069,0.04 -0.059,0.053 a 0.043,0.043 0 0 0 0.018,0.015 0.087,0.087 0 0 1 0.021,0.022 c 0.046,0.058 0.06,0.174 0.007,0.145 A 0.2,0.2 0 0 0 14.139,18.952 H 14.1 l -0.006,-0.016 h 0.091 V 18.9 a 0.082,0.082 0 0 0 -0.015,-0.053 0.044,0.044 0 0 0 -0.013,-0.014 0.073,0.073 0 0 0 -0.029,-0.007 0.416,0.416 0 0 0 -0.091,0.017 0.009,0.009 0 0 0 -0.01,0.006 0.061,0.061 0 0 1 0,-0.016 c 0.006,-0.013 0.005,-0.008 0,-0.01 a 0.38,0.38 0 0 0 -0.176,0.087 0.2,0.2 0 0 0 -0.054,0.1 c 0,0.024 -0.007,0.028 -0.024,0.031 -0.017,0.003 -0.04,0.021 -0.037,0.028 h 0.009 a 0.021,0.021 0 0 1 -0.013,0.007 H 13.72 a 0.32,0.32 0 0 0 -0.146,0.028 c -0.037,0.014 -0.1,0.088 -0.088,0.1 a 0.828,0.828 0 0 0 0.122,0 0.524,0.524 0 0 1 0.215,0.015 z m 0.4,-0.17 c 0,0.007 -0.009,0.01 -0.042,0.011 -0.06,0 -0.088,0 -0.094,-0.007 v 0 a 0.284,0.284 0 0 1 0.132,-0.004 z m -0.143,-0.2 0.044,-0.01 c 0.01,0 0.029,0.01 0.027,0.018 a 0.2,0.2 0 0 1 -0.1,0 v 0 a 0.1,0.1 0 0 1 0.025,-0.008 z m -0.054,0.008 c 0,0.007 0.007,0.013 0.021,0.021 v 0 0 a 0.106,0.106 0 0 1 -0.026,-0.017 z m -0.2,0.217 c 0.011,-0.006 0.014,-0.011 0.012,-0.02 a 0.021,0.021 0 0 1 0.022,-0.023 h 0.01 l 0.007,0.008 a 0.038,0.038 0 0 1 0,0.015 0.034,0.034 0 0 0 0.005,0.017 0.055,0.055 0 0 0 0.017,0.014 0.055,0.055 0 0 1 0.02,0.017 c 0.015,0.017 0,0.026 -0.054,0.026 -0.022,0 -0.033,0 -0.04,-0.011 a 0.051,0.051 0 0 1 -0.01,-0.021 c -0.004,-0.011 -0.004,-0.016 0.007,-0.022 z m 0.288,-0.267 -0.044,0.009 a 0.068,0.068 0 0 0 -0.031,0.011 0.193,0.193 0 0 0 0.1,0 C 14.14,18.816 14.124,18.8 14.114,18.807 Z m 5.465,1.344 c 0.032,0 0.063,0 0.095,0 h -0.007 a 0.431,0.431 0 0 0 -0.088,0 z m -0.434,0.762 c -0.008,0 -0.017,0.018 -0.011,0.024 0.006,0.006 0.017,0 0.017,-0.014 0,-0.014 -0.006,-0.01 -0.006,-0.01 z M 18.6,19.005 h 0.109 0.047 z m 0.825,1.929 v -0.003 l -0.005,0.003 z m -0.189,-0.69 a 1.055,1.055 0 0 1 0.191,-0.067 0.029,0.029 0 0 0 0.022,-0.007 l 0.016,-0.006 0.016,-0.005 a 0.4,0.4 0 0 1 0.091,-0.008 h 0.007 a 1.048,1.048 0 0 0 -0.137,-0.007 0.819,0.819 0 0 0 -0.206,0.1 z m -7.679,0.317 A 0.183,0.183 0 0 1 11.52,20.507 v 0 a 0.365,0.365 0 0 0 0.037,0.054 z M 11.4,20.68 a 0.13,0.13 0 0 0 0.062,0 l 0.112,-0.009 h -0.03 a 1,1 0 0 1 -0.134,0.006 v -0.006 0 z m 0.332,0.162 a 0.181,0.181 0 0 0 -0.013,0.074 0.171,0.171 0 0 1 0.013,-0.066 l 0.026,-0.035 c 0.011,-0.016 0.033,-0.013 0.051,0 a 0.093,0.093 0 0 1 0.031,0.06 c 0,0 0,0 0,-0.008 a 0.09,0.09 0 0 0 -0.022,-0.042 l -0.016,-0.018 c -0.016,-0.009 -0.035,-0.014 -0.044,0 z m -0.175,-0.281 0.007,0.01 0.006,0.009 -0.006,-0.01 z m -0.143,0.11 0.005,-10e-4 z m 0.426,0.217 V 20.9 c 0,0 0.005,0.01 0.01,-0.007 0.005,-0.017 0.012,0 0.019,0 v -0.008 c -0.005,0 -0.014,0 -0.015,0 A 0.011,0.011 0 0 1 11.84,20.888 Z M 11.6,20.633 v 0 c 0,-0.009 -0.013,-0.025 -0.036,-0.052 a 0.123,0.123 0 0 1 0.036,0.052 z m -0.263,0.187 v 0 l -0.006,0.019 v 0 z m 0.953,-0.463 a 0.4,0.4 0 0 0 -0.064,0.1 c -0.023,0.044 -0.038,0.045 -0.051,0.012 v 0 c 0.013,0.041 0.03,0.039 0.054,-0.008 a 0.4,0.4 0 0 1 0.063,-0.1 l 0.013,-0.017 c 0,-0.009 0.008,0 0,-0.009 v 0 0 z m -0.279,0.597 v 0 l -0.009,0.002 v 0 z m -0.649,-0.247 c 0,0 0,-0.012 -0.005,0 a 0.276,0.276 0 0 0 -0.019,0.055 l -0.007,0.047 c 0,0.016 0,0.006 0,0.008 0,-0.019 0.009,-0.037 0.017,-0.064 0.008,-0.027 0.011,-0.031 0.014,-0.046 z m 0.104,0.246 a 0.472,0.472 0 0 0 -0.077,-0.052 0.534,0.534 0 0 0 0.065,0.05 v 0 l 0.025,0.018 a 0.518,0.518 0 0 1 0.067,0.057 v 0 A 0.031,0.031 0 0 0 11.534,21 0.56,0.56 0 0 1 11.466,20.953 Z m -0.104,-0.246 v 0 -0.017 0.006 0 z m -0.025,0.113 v 0 a 0.649,0.649 0 0 0 0.034,-0.114 c 0,-0.014 0,0 -0.006,0 v 0.015 a 0.65,0.65 0 0 1 -0.028,0.099 z m 1.145,0.58 v 0.01 c 0,0.006 0.007,0.008 0.01,0.013 a 0.063,0.063 0 0 1 -0.009,-0.024 z m -0.457,-0.564 c 0.014,0.008 0.036,-0.007 0.037,-0.025 v 0 c -0.004,0.004 -0.023,0.033 -0.037,0.025 z M 11.4,21.341 c 0,-0.008 0.009,-0.008 0.028,-0.008 a 0.222,0.222 0 0 0 0.09,-0.029 0.231,0.231 0 0 1 0.068,-0.025 h -0.01 v 0 a 0.22,0.22 0 0 0 -0.062,0.023 0.222,0.222 0 0 1 -0.09,0.029 0.044,0.044 0 0 0 -0.028,0.008 0.27,0.27 0 0 0 0.054,0.083 c 0.038,0.046 0.075,0.1 0.09,0.088 A 0.4,0.4 0 0 1 11.458,21.428 0.27,0.27 0 0 1 11.4,21.341 Z m 0.158,0.116 c 0.006,-0.034 0.014,-0.067 0.023,-0.1 0.009,-0.033 0.017,-0.067 0.019,-0.084 0.002,-0.017 -0.013,0 -0.014,0 l -0.018,0.076 -0.019,0.079 c 0,0.008 -0.024,0 -0.036,-0.012 v 0 c 0,0 0,0 0.008,0 0.029,0.023 0.036,0.02 0.036,0.012 l 0.019,-0.079 c 0.01,-0.041 0.018,-0.073 0.018,-0.076 v 0 c 0,0.007 -0.009,0.044 -0.019,0.084 -0.01,0.04 -0.017,0.066 -0.023,0.1 0,0.01 0,0.01 0.007,0.01 0.007,0 0.013,-0.013 0.019,-0.034 v 0 c -0.006,0.019 -0.012,0.032 -0.018,0.032 -0.006,0 -0.003,0.002 -0.002,-0.008 z m 0.068,-0.205 a 0.05,0.05 0 0 0 0,-0.021 v -0.037 l -0.021,0.022 -0.013,0.018 v 0.008 a 0.076,0.076 0 0 1 0.019,0.012 h 0.016 c -0.006,0.037 -0.023,0.107 -0.042,0.181 v 0 a 1.9,1.9 0 0 0 0.047,-0.2 v 0 z m -0.113,0.183 c 0,0.006 -0.006,0 0,0.008 0.022,0.037 0.032,0.055 0.018,0.063 v 0 l 0.008,0.006 c 0.007,0 0.008,-0.028 -0.018,-0.063 z m 0.471,-0.195 c 0,-0.01 0,0 -0.006,0.023 v 0.053 l 0.006,-0.065 z m -0.006,0.076 v 0.033 0 -0.007 z M 11.663,20.33 c 0,0 0,0 0.007,-0.006 v 0 0 z m -0.246,0.97 c 0.007,-0.006 0.012,-0.006 0.021,0 0.009,0.006 0.023,0 0.076,-0.023 a 0.094,0.094 0 0 1 0.044,-0.012 c -0.007,0 -0.018,0 -0.046,0.007 -0.046,0.018 -0.067,0.029 -0.076,0.023 -0.009,-0.006 -0.014,-0.006 -0.021,0 a 0.014,0.014 0 0 1 -0.019,0 c 0,0 0,0.009 0.007,0.01 A 0.017,0.017 0 0 0 11.417,21.3 Z m -0.025,-0.013 a 0.373,0.373 0 0 1 0.072,-0.036 c 0.025,-0.009 0.028,-0.013 0.048,-0.021 l -0.033,0.013 c -0.063,0.025 -0.079,0.036 -0.087,0.044 z m 0.518,0.193 v 0 0.015 z m -0.33,0.045 c 0,0.023 0.115,0.1 0.129,0.082 h 0.009 c -0.017,0.012 -0.106,-0.052 -0.118,-0.074 0,0 -0.02,-0.014 -0.02,-0.008 z m -0.019,-0.256 0.006,0.006 0.002,-10e-4 z m 0.389,-0.228 -0.011,0.009 v 0 c -0.006,0.007 0,0.014 0.008,0.019 0.008,0.005 0.016,0.017 0.016,0.04 0,0.023 0,0.048 0,0.072 v 0.039 a 0.28,0.28 0 0 0 0,0.041 v 0.1 c 0,0.042 0,0.049 -0.015,0.058 l -0.062,0.049 a 0.72,0.72 0 0 1 -0.139,0.1 c 0.028,0 0.063,-0.03 0.15,-0.1 H 11.9 v 0.01 l 0.009,-0.007 v 0.018 a 0.081,0.081 0 0 1 0.008,0.034 v 0.017 c 0,0 0,0.008 0,0.025 a 0.2,0.2 0 0 0 0.011,0.073 0.048,0.048 0 0 1 0,0.027 c 0,0.02 0,0.034 0.014,0.02 v -0.044 a 0.541,0.541 0 0 1 -0.005,-0.175 c 0.01,-0.034 0.009,-0.049 0,-0.034 a 0.018,0.018 0 0 1 -0.015,0.007 c -0.005,0 -0.008,0.005 -0.012,0.007 l 0.035,-0.028 c 0.012,-0.007 0.012,-0.022 0.012,-0.048 0,-0.026 0,-0.028 0,-0.042 0,-0.014 0.008,-0.058 0.008,-0.089 v -0.011 c -0.006,-0.01 -0.006,0 -0.006,0.023 0,-0.039 0.01,-0.083 0.01,-0.119 v 0.047 a 0.583,0.583 0 0 0 0.006,-0.092 v 0 a 0.1,0.1 0 0 0 -0.011,-0.05 h 0.006 a 0.018,0.018 0 0 0 -0.02,0.004 z m 0.107,-0.233 h 10e-4 v 0 z M 11.4,21.3 c 0,0 -0.008,0 -0.007,-0.008 v 0 0 0.01 z m 0.72,0.1 c -0.006,-0.061 -0.007,-0.122 -0.008,-0.183 v 0.026 A 0.971,0.971 0 0 0 12.12,21.4 Z m -0.29,0.322 v 0 l 0.028,0.008 H 11.9 a 0.242,0.242 0 0 0 -0.07,-0.008 z m 0.13,-0.032 v 0 a 0.167,0.167 0 0 0 0.006,-0.077 v 0.007 a 0.184,0.184 0 0 1 -0.006,0.07 z m 0.048,-0.881 v 0 a 0.033,0.033 0 0 0 0.018,0.026 v 0 A 0.032,0.032 0 0 1 12.008,20.809 Z M 11.736,21.6 a 0.053,0.053 0 0 0 -0.018,0 v 0 a 0.05,0.05 0 0 1 0.027,-0.007 0.046,0.046 0 0 0 0.015,-0.009 1.238,1.238 0 0 1 0.143,-0.107 v 0 a 1.151,1.151 0 0 0 -0.138,0.1 0.043,0.043 0 0 1 -0.029,0.023 z m 0.006,-0.028 c -0.021,0 -0.039,0 -0.072,-0.024 -0.057,-0.033 -0.077,-0.039 -0.078,-0.024 l 0.008,0.007 c 0.008,0 0.015,-0.006 0.058,0.018 0.043,0.024 0.056,0.033 0.084,0.023 z m 0.082,-0.46 c -0.051,0.022 -0.107,0.044 -0.124,0.051 -0.045,0.017 -0.068,0.038 -0.068,0.063 v 0.005 c 0,-0.024 0.023,-0.045 0.067,-0.062 0.017,-0.007 0.073,-0.029 0.124,-0.051 0.132,-0.053 0.131,-0.054 0.134,0.044 v 0.052 -0.028 -0.03 c 10e-4,-0.1 10e-4,-0.1 -0.133,-0.044 z m 0.237,0.072 a 0.054,0.054 0 0 1 0.01,0.03 v 0.074 a 1.036,1.036 0 0 1 0.022,0.158 c 0,0.045 0,0.089 0,0.134 v 0.053 H 12.1 v -0.059 c 0,-0.045 0,-0.091 0,-0.137 0,-0.046 -0.01,-0.117 -0.013,-0.164 l -0.009,-0.045 v -0.02 a 0.054,0.054 0 0 0 -0.01,-0.03 0.062,0.062 0 0 0 -0.032,-0.009 0.067,0.067 0 0 0 -0.02,0 v 0.006 a 0.075,0.075 0 0 1 0.015,0 0.062,0.062 0 0 1 0.03,0.009 z M 12.018,20.8 c 0,0 -0.008,0 -0.011,0 v 0.008 -0.005 z m -0.081,0.89 v -0.016 a 0.03,0.03 0 0 0 -0.012,-0.017 0.015,0.015 0 0 1 -0.008,-0.016 v -0.009 a 0.136,0.136 0 0 0 0.006,-0.029 0.561,0.561 0 0 0 0,-0.058 0.012,0.012 0 0 1 0,-0.01 0.47,0.47 0 0 1 0,0.075 0.136,0.136 0 0 1 -0.006,0.029 v 0.009 a 0.015,0.015 0 0 0 0.008,0.016 0.03,0.03 0 0 1 0.012,0.017 V 21.7 c 0,0.009 0.016,0.01 0.026,0 V 21.69 H 11.94 Z m 0.031,-0.09 v -0.052 a 1.655,1.655 0 0 1 0.007,-0.2 v 0.011 0 0.01 c 0,0.052 -0.006,0.105 -0.005,0.158 z m 0.15,-1.375 v 0 -0.001 z m 0.075,0.186 a 0.607,0.607 0 0 1 -0.05,-0.124 0.253,0.253 0 0 0 -0.019,-0.048 v -0.006 0 a 0.02,0.02 0 0 0 0.006,0.015 v 0 a 0.253,0.253 0 0 1 0.019,0.048 0.607,0.607 0 0 0 0.05,0.124 c 0.006,0.006 0.026,-0.025 0.07,-0.107 0.011,-0.019 0.015,-0.029 0.011,-0.037 v 0 a 0.044,0.044 0 0 1 -0.009,0.03 c -0.052,0.08 -0.071,0.111 -0.078,0.105 z m -0.519,-0.09 -0.004,0.003 h 0.012 z m 0.444,-0.096 v 0.008 c 0.005,-0.006 0.016,-0.006 0.035,0 l 0.074,0.023 c 0.024,0.007 0.036,0.011 0.041,0.018 v -0.007 c 0,-0.007 -0.018,-0.012 -0.043,-0.019 v 0 L 12.151,20.225 Z M 11.839,20.579 11.83,20.55 v 0 l 0.007,0.024 z m 0.452,-0.269 a 0.368,0.368 0 0 0 -0.051,0.073 c -0.023,0.042 -0.035,0.059 -0.046,0.058 0.013,0.009 0.026,-0.008 0.052,-0.055 l 0.007,-0.01 0.02,-0.034 h 0.005 a 0.165,0.165 0 0 1 0.019,-0.027 0.049,0.049 0 0 0 0.018,-0.022 c 0,-0.006 0.01,0 0.019,-0.006 h -0.007 c -0.008,0 -0.018,0 -0.018,0 a 0.049,0.049 0 0 1 -0.018,0.023 z m -0.453,0.187 -0.002,-0.002 -10e-4,0.005 z m 0.262,0.692 c 0,0 -0.011,0.01 -0.011,0.016 L 12.1,21.194 Z M 11.911,21.7 a 0.417,0.417 0 0 1 -0.169,-0.045 0.067,0.067 0 0 1 -0.028,-0.017 v 0 a 0.141,0.141 0 0 0 0.03,0.018 0.417,0.417 0 0 0 0.169,0.045 v -0.011 0 z m 0.279,-1.243 c 0.009,0 0.022,0 0.048,-0.049 l 0.035,-0.061 c -0.007,0.01 -0.014,0.019 -0.02,0.029 l -0.017,0.029 c -0.026,0.045 -0.031,0.049 -0.049,0.049 h -0.015 v 0.01 0 c 0,-0.006 0,-0.009 0,-0.011 z m 0.11,-0.122 v 0 a 0.057,0.057 0 0 0 -0.025,0.008 v 0 C 12.284,20.331 12.3,20.329 12.3,20.335 Z m 0.036,-0.028 v -0.014 0 h -0.009 v 0.01 a 0.023,0.023 0 0 0 0.005,0.013 0.011,0.011 0 0 0 0.004,-0.009 z m -0.208,-0.02 -0.014,-0.03 h -0.005 l 0.013,0.027 0.025,0.067 c 0.023,0.064 0.034,0.089 0.047,0.09 -0.011,-0.007 -0.021,-0.031 -0.041,-0.087 z m -0.006,0.072 c 0.013,0.033 0.025,0.066 0.035,0.1 a 0.108,0.108 0 0 0 0.016,0.03 0.054,0.054 0 0 1 0.012,0.034 v 0.025 c 0,0.008 0,0 0.006,0 v -0.025 a 0.054,0.054 0 0 0 -0.012,-0.034 0.108,0.108 0 0 1 -0.016,-0.03 1.027,1.027 0 0 0 -0.029,-0.105 0.829,0.829 0 0 1 -0.035,-0.1 c 0,0 -0.008,0 -0.012,0 a 0.912,0.912 0 0 0 0.035,0.105 z m -0.4,-0.005 a 0.024,0.024 0 0 0 -0.026,0 0.026,0.026 0 0 1 0.023,0 v 0 a 0.022,0.022 0 0 0 -0.022,0 v 0 l 0.006,0.008 c 0.022,-0.008 0.028,0 0.067,0.055 0.039,0.055 0.042,0.06 0.057,0.06 0.015,0 0.01,0.008 0.011,0.015 v -0.006 c 0.005,-0.008 0,-0.018 -0.016,-0.018 -0.016,0 -0.019,-0.008 -0.032,-0.025 0.006,0.006 0.012,0.009 0.014,0 A 0.194,0.194 0 0 1 11.76,20.389 C 11.736,20.353 11.725,20.34 11.711,20.338 a 0.038,0.038 0 0 1 -0.017,-0.008 0.025,0.025 0 0 0 0.012,0.008 0.129,0.129 0 0 1 0.016,0.016 z m 0.005,0 v 0 0 z m 0,0 z m 0.3,-0.154 a 0.458,0.458 0 0 0 -0.117,0.006 0.227,0.227 0 0 1 -0.015,0.025 c 0.014,0 0.027,-0.007 0.041,-0.008 a 0.266,0.266 0 0 0 0.063,0 0.341,0.341 0 0 0 0.084,-0.007 0.417,0.417 0 0 0 -0.132,0 C 11.977,20.213 12,20.2 12.027,20.2 Z m -0.197,0.353 a 0.067,0.067 0 0 1 -0.007,-0.024 v 0 a 0.062,0.062 0 0 0 0.007,0.024 z m -0.067,1.079 a 0.511,0.511 0 0 0 0.083,0.029 0.16,0.16 0 0 1 0.065,0.028 v 0 C 11.905,21.68 11.885,21.672 11.844,21.66 a 0.48,0.48 0 0 1 -0.083,-0.029 c -0.028,-0.011 -0.039,-0.012 -0.049,0 v 0.007 0 0 c 0.012,-0.021 0.023,-0.02 0.051,-0.006 z m 0.066,-1.118 a 0.018,0.018 0 0 0 -0.006,0.013 v 0 l 0.006,-0.012 0.006,-0.017 v 0 z m 0.219,0.256 c 0,-0.008 -0.005,-0.008 -0.005,-0.008 H 12.03 c -0.018,0 -0.018,0.009 -0.018,0.009 v 0 a 0.032,0.032 0 0 0 0.03,0 z M 11.836,20.5 a 2.2,2.2 0 0 0 0.073,-0.226 v 0 a 2.269,2.269 0 0 1 -0.073,0.225 z m 0.027,-0.11 a 0.052,0.052 0 0 0 0,0.021 l 0.006,-0.016 c 0.006,-0.023 0,-0.033 0,-0.023 l -0.007,0.017 z m 0.037,1.233 h -0.006 0.009 v -0.062 c 0,-0.045 0,-0.063 -0.014,-0.058 v 0 c 0.011,0 0.013,0.012 0.013,0.053 z M 11.8,20.521 11.781,20.482 A 0.589,0.589 0 0 0 11.723,20.399 0.124,0.124 0 0 1 11.696,20.361 H 11.69 c 0,0 0.006,0.016 0.033,0.046 a 0.589,0.589 0 0 1 0.058,0.083 l 0.019,0.034 0.018,-0.014 a 0.041,0.041 0 0 0 0.013,-0.01 v -0.006 0 A 0.04,0.04 0 0 1 11.818,20.51 Z M 11.76,21.7 h 0.013 a 0.072,0.072 0 0 0 0.029,0.006 0.558,0.558 0 0 0 -0.067,-0.028 c 0.009,0.01 0.016,0.022 0.025,0.022 z m -0.055,-1.3 a 0.225,0.225 0 0 1 -0.042,-0.07 v 0 a 0.219,0.219 0 0 0 0.043,0.072 c 0.023,0.031 0.059,0.082 0.078,0.113 0.036,0.056 0.056,0.079 0.056,0.066 v 0 c 0,0.011 -0.019,-0.009 -0.054,-0.064 -0.022,-0.035 -0.058,-0.086 -0.081,-0.117 z m -0.011,-0.071 -0.007,-0.005 h -0.005 l 0.008,0.003 z m 0.166,0.035 A 0.524,0.524 0 0 1 11.893,20.27 L 11.9,20.263 c 0.008,0 0.008,0 0.008,0.006 v 0 c 0,-0.006 0,-0.006 -0.009,-0.006 l -0.007,0.007 a 0.524,0.524 0 0 0 -0.033,0.094 c -0.025,0.075 -0.037,0.091 -0.054,0.081 v 0 c 0.018,0.01 0.031,-0.004 0.055,-0.081 z m -0.054,0.078 h -0.002 z m 0.087,1.181 h -0.005 a 0.273,0.273 0 0 1 -0.1,-0.032 0.509,0.509 0 0 1 0.1,-0.081 v 0 a 0.47,0.47 0 0 0 -0.1,0.083 v 0.005 a 0.273,0.273 0 0 0 0.1,0.032 z m 8.717,-2.672 -0.006,-0.003 0.006,0.009 z m -9.718,0.872 v 0 l 0.085,-0.008 v 0 z M 11.129,19.8 a 0.544,0.544 0 0 0 -0.156,0.008 v 0 h 0.032 C 11.065,19.805 11.1,19.8 11.129,19.8 Z m 8.032,1.763 -0.039,-0.031 h -0.008 c 0,0.02 0.132,0.111 0.142,0.1 0.01,-0.011 -0.013,-0.015 -0.03,-0.025 a 0.57,0.57 0 0 1 -0.065,-0.044 z m -8.036,-1.758 0.068,-0.006 c -0.014,0 -0.039,0 -0.064,0 z m 8.347,1.845 v -0.122 c 0,-0.017 -0.007,-0.019 -0.024,-0.008 a 0.73,0.73 0 0 0 -0.115,0.1 0.277,0.277 0 0 0 0.12,0.03 z m -4.631,-3.439 -0.03,0.013 0.032,-0.013 z m -3.933,1.766 v 0 c 0,0 0,0.013 0.006,0.014 a 0.018,0.018 0 0 0 0.024,0 v 0 l 0.008,-0.007 a 0.113,0.113 0 0 0 0,-0.026 l -0.005,0.015 c -0.009,0.009 -0.015,0.012 -0.02,0.01 h -0.005 a 0.067,0.067 0 0 1 0,-0.02 v -0.025 a 0.132,0.132 0 0 1 0.008,-0.059 c 0,0 0.006,-0.008 0.011,-0.008 h 0.006 a 0.091,0.091 0 0 1 0.005,0.033 v -0.036 h -0.028 a 0.036,0.036 0 0 0 -0.016,0.011 0.194,0.194 0 0 0 -0.006,0.059 v 0.025 c 0,0 0,0.007 0.005,0.012 z m 8.57,1.73 a 0.112,0.112 0 0 0 -0.05,-0.018 0.589,0.589 0 0 1 -0.083,-0.031 c -0.034,-0.017 -0.057,-0.021 -0.069,-0.013 l -0.006,0.012 a 0.468,0.468 0 0 0 0.122,0.044 c 0.03,0.007 0.057,-0.001 0.086,0.006 z m -5.456,-3.101 0.119,-0.07 0.154,-0.086 -0.055,0.028 -1.234,0.69 -0.018,0.004 0.008,0.008 0.004,0.001 0.946,-0.527 z m 7.084,3.291 V 21.9 h 0.042 v 0.094 h 0.14 V 21.9 h 0.042 v -0.002 l -0.112,-0.001 z m -0.627,-0.004 h -0.473 v 0.007 0.092 h 0.981 v -0.1 h -0.508 z m -4.235,0.009 v 0.004 0.085 h 0.982 v -0.085 h 0.001 v -0.01 h -0.983 z m 1.152,0.005 h 0.14 V 22 h -0.14 z m -3.443,-0.012 h 0.982 v 0.1 h -0.982 z m 1.147,0.007 v 10e-4 0.088 h 0.982 V 21.903 21.902 21.893 L 15.1,21.896 Z m -2.12,-2.71 h -0.005 c 0,0.006 -0.011,0.007 -0.016,0.011 v 0 z M 19.5,21.7 h 0.006 L 19.5,21.683 Z m 0.005,-0.142 a 0.282,0.282 0 0 0 0,-0.082 V 21.47 a 0.145,0.145 0 0 1 0,-0.036 1.376,1.376 0 0 1 -0.137,0.093 0.567,0.567 0 0 0 -0.089,0.073 c 0,0.016 0.021,0 0.1,-0.054 0.115,-0.089 0.11,-0.091 0.111,0.048 a 0.435,0.435 0 0 0 0.006,0.1 V 21.66 a 0.428,0.428 0 0 1 0.009,-0.102 z M 18.218,22 18.221,21.996 H 18.22 Z m -1.672,-4.023 -0.123,0.006 0.143,-0.006 z M 17.713,22 h 0.507 l 0.008,-0.019 h 0.01 a 0.05,0.05 0 0 0 -0.017,0.023 H 18.7 V 21.9 h -0.982 z m -1.607,-4 0.129,-0.007 h 0.053 l 0.094,-0.006 h 0.041 -0.071 -0.106 c -0.054,0 -0.115,0.01 -0.177,0.01 l -0.143,0.01 v 0 z m 3.339,0.475 v -0.014 h 0.007 -0.008 -0.008 c -0.004,0.002 0,0.007 0.009,0.014 z m -3.209,-0.483 v 0 L 16.222,18 a 0.044,0.044 0 0 1 0.014,-0.008 z m -0.3,0.025 a 0.173,0.173 0 0 0 0.105,-0.012 v 0 a 0.178,0.178 0 0 1 -0.107,0.006 v 0 z m -2.347,3.887 h 0.042 V 22 h 0.14 v -0.096 h 0.04 v -0.002 h -0.224 z m 3.055,-3.927 H 17.86 17.81 17.8 L 17.609,17.97 h -0.8 c -0.037,0 -0.105,0.006 -0.177,0.006 h -0.071 0.078 z m 1.767,0.032 v 0 c 0,0.026 0.04,0.048 0.12,0.048 -0.079,-0.003 -0.117,-0.023 -0.12,-0.048 z m 1.696,2.6 c -0.095,0 -0.111,0 -0.108,-0.02 a 0.142,0.142 0 0 1 0.034,-0.053 c 0.043,-0.055 0.056,-0.075 0.056,-0.087 v -0.023 c 0.014,-0.011 0.013,-0.025 0,-0.033 a 0.12,0.12 0 0 0 -0.051,0.058 0.735,0.735 0 0 1 -0.114,0.163 c -0.032,0.036 -0.087,0.1 -0.123,0.15 -0.036,0.05 -0.076,0.1 -0.09,0.115 a 0.1,0.1 0 0 0 -0.024,0.038 0.016,0.016 0 0 0 0.011,0.018 c 0.02,0.011 0.028,0.011 0.029,0 v -0.019 -0.038 l 0.055,-0.062 c 0.03,-0.034 0.071,-0.084 0.091,-0.11 0.057,-0.076 0.069,-0.088 0.086,-0.082 a 0.965,0.965 0 0 0 0.263,0 C 20.217,20.614 20.2,20.612 20.107,20.609 Z m -0.125,0.012 c -0.018,0 -0.022,0 -0.017,-0.016 v 0 a 0.028,0.028 0 0 1 0.015,0.007 l 0.014,0.012 z m -1.451,-2.564 c 0.037,0 0.1,0.011 0.137,0.011 v 0 C 18.631,18.063 18.57,18.057 18.531,18.057 Z m 0.295,0.011 h 0.02 l -0.01,-0.019 a 0.07,0.07 0 0 0 -0.039,-0.013 0.635,0.635 0 0 0 -0.1,-0.009 h -0.034 a 0.255,0.255 0 0 0 0.038,0.026 c 0.042,0.002 0.083,0.009 0.125,0.015 z m 1.304,3.209 C 20.062,21.25 20.066,21.251 20.066,21.261 a 0.919,0.919 0 0 0 0.051,0.159 0.028,0.028 0 0 0 0.02,-0.009 l 0.025,-0.021 c 0.006,0 0.009,0 0.011,0 a 0.078,0.078 0 0 1 -0.021,0.055 c -0.021,0.028 -0.029,0.054 -0.023,0.059 0.006,0.005 0.038,-0.014 0.073,-0.059 0.064,-0.084 0.086,-0.117 0.079,-0.126 h -0.01 A 0.434,0.434 0 0 1 20.13,21.277 Z m -1.719,-3.268 c 0,0 -0.011,-0.009 -0.006,-0.009 0.005,0 0.006,0.007 0.006,0.011 h 0.045 l 0.2,0.015 h 0.007 a 0.181,0.181 0 0 1 -0.032,-0.022 h -0.026 a 0.165,0.165 0 0 1 -0.046,-0.032 l -0.007,-0.006 v 0 c -0.006,0.012 -0.015,0.01 -0.012,0 0.003,-0.01 0,0 -0.009,0.015 l -0.006,0.012 c 0.007,-0.018 0.01,-0.028 0.008,-0.033 l -0.025,-0.021 a 0.082,0.082 0 0 0 -0.02,-0.012 H 18.48 a 0.012,0.012 0 0 0 -0.015,0.008 v 0 a 0.061,0.061 0 0 1 -0.025,0.023 0.044,0.044 0 0 0 -0.017,0.016 0.025,0.025 0 0 1 0.013,-0.014 c 0.023,-0.015 0.037,-0.032 0.034,-0.04 h -0.026 a 0.074,0.074 0 0 0 -0.021,0 h -0.009 l -0.009,0.006 a 0.1,0.1 0 0 1 -0.043,0.017 H 18.34 18.329 l 0.006,0.006 c 0,-0.008 0,-0.006 -0.008,-0.006 l -0.018,0.005 -0.049,0.012 h -0.014 a 0.2,0.2 0 0 1 -0.033,0.009 0.364,0.364 0 0 1 -0.109,0.007 H 17.86 l 0.18,0.007 c 0.106,0.007 0.22,0.017 0.371,0.026 z m 0.562,0.068 H 19 v -0.011 a 0.366,0.366 0 0 1 0.081,0 h 0.035 l 0.157,0.014 H 19.3 c 0.061,0.005 0.115,0.013 0.121,0.013 a 0.193,0.193 0 0 0 0.041,0.006 l 0.089,0.011 0.089,0.01 c 0.017,0 0.053,0.009 0.079,0.009 l 0.047,0.006 -0.033,-0.005 a 0.347,0.347 0 0 0 -0.045,-0.006 0.631,0.631 0 0 1 -0.076,-0.01 0.3,0.3 0 0 0 -0.079,-0.009 c -0.018,0 -0.058,-0.01 -0.089,-0.01 l -0.089,-0.011 a 0.14,0.14 0 0 1 -0.041,-0.006 0.559,0.559 0 0 0 -0.121,-0.013 h -0.024 l -0.157,-0.014 h -0.035 a 0.547,0.547 0 0 0 -0.081,0 l -0.014,0.007 v 0.01 H 18.9 Z m 0.783,2.985 -0.006,-0.002 0.001,0.002 z m 0.297,0.347 c -0.005,-0.015 -0.016,-0.007 -0.052,0.031 a 0.518,0.518 0 0 1 -0.078,0.062 c -0.029,0.017 -0.037,0.024 -0.027,0.036 l 0.017,0.013 c 0.031,0.022 0.044,0.019 0.1,-0.028 0.056,-0.047 0.065,-0.05 0.05,-0.091 a 0.16,0.16 0 0 0 -0.01,-0.023 z m -9.321,-1.497 0.003,-0.004 h -0.003 z m 0.219,0.038 v 0 -0.009 -0.023 a 0.069,0.069 0 0 0 0,-0.02 z m -0.362,-0.073 h -0.011 c 0,0 -0.008,0 -0.015,0.012 a 0.088,0.088 0 0 0 -0.011,0.042 0.213,0.213 0 0 0 0.006,0.087 v 0.007 a 0.033,0.033 0 0 0 0.027,0.007 l 0.017,-0.009 0.006,-0.007 a 0.282,0.282 0 0 0 0,-0.082 0.093,0.093 0 0 0 -0.012,-0.057 z m 0.006,0.075 a 0.081,0.081 0 0 0 0,0.022 v 0.019 c 0,0.023 -0.009,0.034 -0.021,0.032 -0.012,-0.002 0,-0.024 -0.006,-0.042 a 0.3,0.3 0 0 1 0,-0.085 c 0,-0.01 0.011,-0.013 0.016,0 a 0.141,0.141 0 0 1 0.011,0.045 z m 4.27,-1.752 h 0.011 v 0 c 0.043,-0.017 0.1,-0.037 0.156,-0.055 0.056,-0.018 0.124,-0.037 0.181,-0.051 0.027,-0.007 0.064,-0.015 0.1,-0.022 0.036,-0.007 0.078,-0.014 0.116,-0.02 v 0 l 0.045,-0.008 0.073,-0.013 h 0.071 c 0.034,-0.006 0.161,-0.017 0.3,-0.027 H 15.9 a 0.084,0.084 0 0 1 -0.1,0 h -0.024 v 0.005 -0.005 h -0.025 l -0.065,0.007 0.012,0.007 v 0 l -0.013,-0.007 -0.059,0.008 v 0 h -0.025 l -0.14,0.019 h -0.022 a 0.581,0.581 0 0 0 -0.107,0.015 h -0.066 l -0.049,0.012 -0.031,0.008 -0.059,0.016 -0.046,0.014 -0.063,0.019 -0.062,0.047 -0.073,0.026 v 0 l -0.03,0.011 h 0.005 z m 5.348,3.069 c 0.008,-0.006 -0.007,-0.015 -0.027,-0.015 h -0.019 l 0.021,0.009 a 0.036,0.036 0 0 0 0.025,0.006 z M 15.297,18.09 h 10e-4 l -0.002,-0.002 h -10e-4 l 10e-4,10e-4 z m -0.11509,0.03018 8.03e-4,-5.96e-4 0.003,0.004 -8.03e-4,5.96e-4 z M 14.879,18.23 h 0.004 v 0.003 H 14.879 Z M 14.875,18.2 v 0 l -0.073,0.018 a 0.059,0.059 0 0 1 -0.036,0.009 h 0.006 l 0.032,-0.007 0.071,-0.016 v 0 z M 5.466,19.673 H 5.463 v 1.639 h 0.003 0.509 l 0.003,-1.64 H 5.466 Z M 20.92,19.487 c -0.018,0 -0.024,0 -0.024,0.008 0,0.008 0.008,0.012 0.024,0.012 0.016,0 0.022,0 0.024,-0.012 0.002,-0.012 0,-0.011 -0.022,-0.011 z M 5.473,18.253 v 0.761 H 5.964 L 5.966,18.253 H 5.964 Z M 5.321,21.526 H 6.146 V 19.508 H 5.321 Z M 5.4,19.612 h 0.646 v 1.8 H 5.4 Z M 5.321,19.247 h 0.825 v -1.2 H 5.321 Z m 0.063,-1.078 h 0.67 V 19.1 h -0.67 z m 14.16,2.779 c 0,0.009 0,0.012 0.035,0.015 a 0.056,0.056 0 0 0 0.041,-0.012 v 0 A 0.12,0.12 0 0 0 19.544,20.948 Z M 5.495,17.192 V 17.697 17.7 H 5.966 V 17.697 H 5.968 V 17.189 H 5.495 Z M 5.522,16.284 A 1.012,1.012 0 0 0 5.386,16.472 0.634,0.634 0 0 0 5.321,16.701 H 6.042 L 6.054,16.678 Z M 5.321,17.88 H 6.146 V 16.968 H 5.321 Z m 0.087,-0.776 h 0.646 v 0.678 H 5.408 Z m 0.738,-0.457 v -0.719 a 0.892,0.892 0 0 0 -0.485,0.209 z m 14.793,2.762 a 0.08,0.08 0 0 0 -0.037,0.006 l -0.006,0.006 a 0.011,0.011 0 0 0 0.007,0.01 h 0.023 c 0.021,0 0.032,-0.008 0.032,-0.024 0,-0.016 -0.007,0.002 -0.019,0.002 z M 20.347,18.9 a 0.4,0.4 0 0 1 0.023,0.034 l 0.01,-0.006 v 0 A 0.315,0.315 0 0 0 20.347,18.9 Z m 0.027,-0.177 a 0.251,0.251 0 0 1 -0.035,-0.044 l 0.011,0.014 z m 0.007,0.199 -0.001,10e-4 0.01,0.009 z M 15.633,18.01 h -10e-4 z m -3.696,3.033 a 0.038,0.038 0 0 1 0.037,-0.008 v 0 0 h -0.01 a 0.039,0.039 0 0 0 -0.03,0.006 l -0.055,0.025 a 0.645,0.645 0 0 1 -0.069,0.032 l -0.073,0.032 -0.018,0.007 -0.1,0.042 a 0.6,0.6 0 0 1 -0.11,0.054 c 0.136,-0.056 0.411,-0.178 0.428,-0.19 z m 3.702,-3.026 -10e-4,-0.003 -10e-4,-10e-4 -0.001,-0.001 -0.003,-0.002 v 10e-4 z m -5.88,-7.105 v 0.152 h 0.4 a 0.154,0.154 0 0 0 0.16,-0.146 v -0.2 a 0.205,0.205 0 0 0 0.107,-0.1 l 0.15,0.08 a 0.173,0.173 0 0 0 0.22,-0.054 l 0.121,-0.188 A 0.136,0.136 0 0 0 10.883,10.268 L 10.862,10.256 10.207,9.915 A 0.183,0.183 0 0 0 9.974,9.971 l -0.111,0.173 a 0.145,0.145 0 0 0 0.044,0.2 l 0.018,0.009 0.159,0.083 a 0.157,0.157 0 0 0 -0.044,0.109 0.184,0.184 0 0 0 0.12,0.166 v 0.2 z m 10.077,10.714 c 0.039,-0.015 0.054,-0.021 0.042,-0.036 a 0.29,0.29 0 0 0 -0.053,-0.039 c -0.081,-0.055 -0.079,-0.055 -0.073,0.014 a 0.2,0.2 0 0 0 0.011,0.073 c 0.01,0.012 0.029,0.004 0.073,-0.012 z m -8.472,-11.097 -0.325,-0.043 -0.161,0.251 0.203,0.23 z m 8.236,11.06 c -0.03,0 -0.048,0 -0.047,0.013 a 0.073,0.073 0 0 0 0.043,0.007 h 0.031 v -0.02 z m -4.036,-3.563 -0.004,-0.002 0.004,0.003 z m -5.39,3.870999 h 0.982 v 0.1 H 10.174 Z M 9.823,21.904 H 9.865 V 22 h 0.14 v -0.096 h 0.042 V 21.902 H 9.824 Z M 6.316,16.64 6.802,16.131 A 0.882,0.882 0 0 0 6.316,15.924 Z m 0.001,1.241 H 7.142 V 16.969 H 6.317 Z M 6.4,17.1 h 0.646 v 0.678 H 6.4 Z M 10.224,15.685 9.758,15.68 v -4.612 0 -0.194 h 0.006 v -2 h 1.307 L 2.609,2 V 22 H 4.766 V 15.32 H 7.65 V 22 h 2.1 v -5.179 h 0.474 z m -2.6,-2.8 -0.07,0.008 -2.761,-0.006 V 12.8 L 4.8,8.993 V 8.9 h 2.826 z m 2.51,3.728 h -0.21 v -0.728 h 0.21 z m 10.155,4.452 v -0.014 c 0,-0.015 -0.023,-0.024 -0.085,-0.039 -0.062,-0.015 -0.077,-0.018 -0.076,-0.027 a 0.517,0.517 0 0 1 0.078,-0.077 0.329,0.329 0 0 0 0.078,-0.08 c 0,-0.013 -0.017,0 -0.054,0.028 l -0.09,0.078 a 0.347,0.347 0 0 0 -0.059,0.062 c -0.007,0.014 -0.014,0.019 -0.034,0.021 -0.02,0.002 -0.017,0 -0.018,0 a 0.349,0.349 0 0 0 0.085,0.026 c 0.044,0.011 0.1,0.028 0.129,0.037 0.058,0.018 0.078,0.02 0.083,0 v -0.009 c 0,-0.009 -0.01,-0.012 -0.025,-0.008 -0.015,0.004 -0.013,0.008 -0.012,0.002 z m -0.067,-0.189 0.012,-0.014 h 0.012 l -0.014,0.011 -0.018,0.011 z M 20.115,21 c 0,0.008 -0.009,0.008 -0.014,0 a 0.015,0.015 0 0 1 0,-0.016 0.009,0.009 0 0 1 0.009,-0.009 0.026,0.026 0 0 1 0.007,0.016 z M 6.317,19.248 h 0.825 v -1.2 H 6.317 Z M 6.385,18.17 H 7.056 V 19.1 H 6.385 Z m 1.026,-9 H 5.054 L 5.038,12.7 H 7.4 Z M 7.248,10.315 H 7.222 V 10.277 H 5.244 v 0.038 H 5.216 a 0.419,0.419 0 0 1 0,-0.211 h 0.026 v 0.038 h 1.98 V 10.1 h 0.026 a 0.419,0.419 0 0 1 0,0.215 z M 7.263,10.031 H 5.2 V 9.27 h 2.063 z m -0.781,7.16 V 17.697 17.7 H 6.956 V 17.697 17.191 17.188 H 6.482 Z M 7.141,16.7 A 0.593,0.593 0 0 0 7.075,16.471 0.988,0.988 0 0 0 6.935,16.283 L 6.396,16.678 6.407,16.7 Z M 21.3,20.556 v 0 c -0.025,-0.008 -0.046,-0.017 -0.046,-0.021 a 0.408,0.408 0 0 0 -0.022,-0.054 c -0.046,-0.1 -0.124,-0.283 -0.124,-0.293 0,-0.01 0.009,-0.013 0.02,-0.02 a 0.109,0.109 0 0 0 0.05,-0.085 0.914,0.914 0 0 0 0,-0.148 v -0.008 l -0.009,-0.1 v -0.06 l -0.008,-0.106 -0.006,-0.013 q -0.009,-0.014 -0.027,-0.036 c -0.022,-0.02 -0.021,-0.052 -0.029,-0.08 l 0.008,-0.016 0.006,-0.018 v -0.017 -0.009 l 0.006,-0.007 c 0.009,-0.008 0.012,-0.011 0.006,-0.014 h -0.021 v 0 0 c 0,-0.014 -0.012,-0.026 -0.021,-0.025 0.008,0 0.016,0 0.018,0.008 0.002,0.008 0,0 0,-0.01 V 19.4 l 0.006,-0.009 c 0.006,-0.009 0,-0.009 -0.006,-0.009 -0.006,0 -0.012,-0.023 -0.008,-0.033 V 19.343 A 0.021,0.021 0 0 0 21.1,19.328 c 0,-0.01 -0.022,-0.012 -0.039,0 l -0.011,0.009 a 0.033,0.033 0 0 1 -0.016,0.007 h -0.008 c -0.01,0.006 -0.015,0.023 -0.012,0.045 a 0.018,0.018 0 0 1 0,0.024 v 0.007 c -0.008,0 -0.01,0.034 -0.006,0.053 a 0.118,0.118 0 0 0 0.027,0.032 0.211,0.211 0 0 0 0.033,0.018 v 0.02 c 0,0 -0.01,0 -0.014,0.006 a 0.052,0.052 0 0 1 -0.038,0.009 c -0.03,0 -0.041,0.011 -0.035,0.02 a 0.046,0.046 0 0 0 0.031,0.015 0.19,0.19 0 0 1 0.04,0.014 c 0.02,0.011 0.049,0.013 0.043,0 v 0 h 0.01 a 0.031,0.031 0 0 1 0.024,0.019 0.029,0.029 0 0 1 0.008,0.014 l 0.006,0.011 v 0.013 l 0.008,0.123 0.014,0.231 c 0,0.016 -0.007,0.027 -0.013,0.025 -0.006,-0.002 -0.009,0 -0.008,0 0,0.019 0,0.038 -0.006,0.033 v 0.027 l -0.009,0.011 a 0.089,0.089 0 0 1 -0.025,0.014 0.277,0.277 0 0 1 -0.063,0.022 c -0.02,0 -0.036,0.008 -0.042,0 L 20.983,20.141 V 20 a 2.187,2.187 0 0 0 -0.021,-0.343 c -0.006,-0.006 -0.021,-0.009 -0.053,-0.012 l -0.076,-0.008 h -0.027 l -0.017,0.039 c -0.009,0.021 -0.039,0.1 -0.067,0.179 -0.028,0.079 -0.056,0.153 -0.062,0.169 a 0.481,0.481 0 0 0 -0.039,0.114 0.3,0.3 0 0 1 -0.083,0.129 c -0.034,0.034 -0.042,0.014 -0.058,0.019 a 0.427,0.427 0 0 0 0.11,-0.139 0.389,0.389 0 0 1 0.021,-0.066 c 0.012,-0.029 0.054,-0.142 0.093,-0.249 0.039,-0.107 0.076,-0.206 0.083,-0.218 a 0.277,0.277 0 0 0 0.022,-0.065 0.9,0.9 0 0 1 0.057,-0.173 0.072,0.072 0 0 0 0.008,-0.032 V 19.3 h 0.07 a 0.5,0.5 0 0 0 0.093,-0.015 c 0.009,0 0.015,0 0.014,-0.007 l -0.108,-0.1 -0.008,-0.006 -0.05,-0.04 -0.049,-0.037 -0.057,-0.039 -0.083,-0.055 -0.04,-0.022 -0.042,-0.018 H 20.6 l -0.017,0.019 h -0.008 c -0.013,0.013 -0.019,0.013 -0.092,0.009 -0.073,-0.004 -0.085,-0.014 -0.113,-0.053 l 0.013,0.008 0.015,-0.007 -0.049,-0.028 v 0 c -0.021,-0.032 -0.051,-0.073 -0.066,-0.092 l -0.064,-0.078 c -0.056,-0.069 -0.141,-0.17 -0.171,-0.2 -0.03,-0.03 -0.013,-0.034 -0.025,-0.053 l 0.019,0.024 v 0.006 l 0.065,0.077 0.009,0.011 0.04,0.05 0.007,0.009 0.023,0.021 0.033,0.041 0.011,0.014 0.024,0.03 0.053,0.066 0.075,0.043 L 20,18.425 h -0.014 c -0.007,-0.02 -0.03,-0.044 -0.029,-0.062 0.006,-0.054 -0.012,-0.073 -0.064,-0.066 h -0.04 c 0,0 0,-0.026 0.057,-0.053 a 0.32,0.32 0 0 0 0.057,-0.032 l 0.011,-0.015 h -0.016 l -0.008,0.005 a 0.292,0.292 0 0 0 0.037,-0.024 c 0,-0.006 0,-0.009 -0.006,-0.012 a 0.482,0.482 0 0 0 -0.1,-0.014 l -0.047,-0.007 a 0.347,0.347 0 0 0 -0.045,-0.006 h -0.029 0.014 a 0.573,0.573 0 0 1 0.1,0.014 c 0.007,0 0.009,0.006 0.006,0.012 -0.003,0.006 -0.013,0.008 -0.02,0.013 L 19.752,18.161 19.677,18.15 H 19.67 c -0.151,-0.022 -0.275,-0.035 -0.353,-0.044 l -0.19,-0.02 H 19.088 L 19.022,18.079 H 19 a 0.03,0.03 0 0 0 0,0.025 v 0 0.008 l 0.008,0.017 0.007,0.013 0.007,0.011 0.01,0.011 a 0.137,0.137 0 0 0 0.037,0.035 c 0.05,0.028 0.158,0.078 0.374,0.175 h 0.009 L 19.417,18.391 19.369,18.37 19.336,18.355 C 19.12,18.255 19.012,18.208 18.962,18.18 A 0.1,0.1 0 0 1 18.93,18.159 l -0.01,-0.011 -0.007,-0.011 -0.007,-0.013 -0.008,-0.017 v -0.023 c -0.017,-0.01 -0.012,-0.015 -0.011,-0.021 h -0.038 v 0 H 18.828 18.69 c 0.035,0 0.077,0 0.106,0 0.029,0 0.035,0 0.052,0 v 0 l 0.027,0.054 0.015,0.032 a 1.1,1.1 0 0 0 0.328,0.173 c 0.078,0.035 0.148,0.084 0.225,0.12 l 0.012,-0.007 0.006,0.006 h -0.01 a 8.849,8.849 0 0 1 0.891,0.476 l 0.015,0.015 h -0.019 a 0.185,0.185 0 0 1 -0.047,0 c -0.032,0 -0.076,0.011 -0.078,0.019 -0.002,0.008 -0.008,0.005 -0.015,0 a 0.009,0.009 0 0 0 -0.012,0 c 0,0 0,0.006 -0.008,0 a 0.044,0.044 0 0 0 -0.032,0 1.055,1.055 0 0 1 -0.159,0 4.684,4.684 0 0 0 -0.474,0 c 0,0.011 -0.049,0.008 -0.053,0 a 0.135,0.135 0 0 0 -0.1,-0.023 h -0.054 l -0.053,-0.043 c -0.03,-0.023 -0.123,-0.1 -0.207,-0.169 -0.2,-0.165 -0.419,-0.343 -0.585,-0.471 -0.07,-0.053 -0.13,-0.1 -0.174,-0.128 C 18.275,18.108 18.262,18.1 18.249,18.092 A 0.306,0.306 0 0 0 18.178,18.059 H 18.15 c 0.026,0.008 0.048,0.017 0.048,0.017 l 0.015,0.006 0.029,0.014 c 0.039,0.023 0.035,0.034 0.072,0.055 0.01,0.006 0.017,0.009 0.018,0.016 10e-4,0.007 -0.009,-0.009 -0.019,-0.015 -0.036,-0.02 -0.032,-0.032 -0.072,-0.054 L 18.217,18.085 18.2,18.1 c 0,0 -0.022,-0.009 -0.048,-0.017 H 18.14 a 0.792,0.792 0 0 0 -0.2,-0.017 c -0.072,0 -0.016,-0.006 -0.348,-0.017 -0.032,0 -0.13,0 -0.291,-0.008 h -0.456 a 11.389,11.389 0 0 0 -1.2,0.069 1.517,1.517 0 0 0 -0.191,0.022 2.743,2.743 0 0 0 -0.368,0.09 l 0.024,-0.01 c -0.023,0.006 -0.045,0.012 -0.068,0.02 h -0.006 l -0.027,0.007 -0.112,0.042 c -0.027,0.011 -0.119,0.047 -0.243,0.106 l -0.013,0.007 -0.014,0.006 c -0.054,0.025 -0.065,0.031 -0.093,0.046 l -0.05,0.027 -0.046,0.024 H 14.43 l -0.018,0.009 -0.018,0.01 -0.08,0.048 -0.046,0.027 -0.064,0.037 c -0.005,0 -0.024,0.015 -0.05,0.028 l -0.023,0.011 c -0.065,0.039 -0.169,0.1 -0.292,0.181 l -0.075,0.049 c -0.1,0.065 -0.213,0.145 -0.23,0.161 -0.042,0.039 -0.254,0.117 -0.235,0.086 a 3.641,3.641 0 0 1 0.406,-0.293 l -0.49,0.312 -0.08,0.023 a 0.064,0.064 0 0 0 -0.026,0.007 H 13.1 c 0.008,0 0.017,0 0.019,-0.005 l 0.08,-0.023 0.49,-0.312 0.029,-0.018 0.2,-0.127 0.361,-0.211 0.153,-0.084 0.131,-0.067 0.082,-0.043 0.058,-0.027 0.034,-0.017 0.02,-0.009 0.042,-0.018 h 0.013 -0.014 l -0.049,0.021 -0.048,0.023 -0.043,0.02 -0.054,0.025 H 14.6 l -0.261,0.122 -0.2,0.11 -0.188,0.1 -0.06,0.039 -0.146,0.089 -0.051,0.028 v 0 l -0.013,0.009 -0.653,0.365 c -0.007,0 -0.014,0 -0.02,0 l -0.018,0.01 H 13 c -0.029,0.048 -0.108,0.054 -0.126,0.056 -0.191,0.017 -1.9,0.485 -2.24,0.581 h 0.025 c 0.057,0 0.361,-0.028 0.465,-0.041 l 0.221,-0.017 a 0.507,0.507 0 0 0 0.177,-0.026 0.123,0.123 0 0 1 0.041,-0.013 h 0.01 a 0.121,0.121 0 0 1 -0.039,0.024 0.094,0.094 0 0 0 -0.022,0.007 0.507,0.507 0 0 1 -0.177,0.026 l -0.134,0.01 a 0.039,0.039 0 0 1 0.026,0.008 h -0.011 l -0.017,0.007 -0.027,0.016 -0.023,0.02 -0.009,0.008 -0.049,0.044 c -0.017,0.014 -0.03,0.031 -0.045,0.045 0,-0.009 -0.011,-0.009 -0.011,-0.031 a 0.208,0.208 0 0 0 0,-0.023 0.657,0.657 0 0 0 0.1,-0.089 h -0.019 l -0.13,0.012 v 0.009 a 0.076,0.076 0 0 1 0.006,0.042 0.075,0.075 0 0 0 0.01,0.044 H 11 c 0.007,0 0.011,-0.011 0.018,-0.016 v 0.06 0.011 c -0.016,0.016 -0.034,0.031 -0.048,0.048 h 0.015 c 0.005,0 0.009,0 0.013,0 v 0 c 0,0.007 -0.023,0.036 -0.067,0.058 a 2.543,2.543 0 0 1 -0.333,0.086 c -0.086,0.019 -0.116,0.024 -0.119,0.046 a 0.16,0.16 0 0 0 0.02,0.064 c 0.012,0.031 0.036,0.1 0.055,0.16 0.032,0.1 0.061,0.182 0.117,0.33 0.027,0.072 0.049,0.094 0.057,0.057 l 0.013,-0.064 a 1.686,1.686 0 0 1 0.095,-0.3 0.356,0.356 0 0 0 0.01,-0.047 c 0.01,-0.046 0.047,-0.068 0.131,-0.076 a 1.7,1.7 0 0 0 0.188,-0.027 c 0.007,0 0.025,-0.02 0.041,-0.04 a 0.889,0.889 0 0 1 1.062,-0.349 1.012,1.012 0 0 0 -1.034,0.368 0.1,0.1 0 0 1 -0.1,0.047 c -0.176,0.016 -0.231,0.029 -0.231,0.054 a 0.921,0.921 0 0 1 -0.031,0.093 3.1,3.1 0 0 0 -0.1,0.337 c -0.007,0.042 -0.018,0.056 -0.046,0.056 a 0.035,0.035 0 0 1 -0.033,-0.013 0.373,0.373 0 0 1 -0.047,-0.106 c -0.02,-0.052 -0.042,-0.106 -0.048,-0.12 A 0.339,0.339 0 0 1 10.578,20.576 0.864,0.864 0 0 0 10.54,20.468 C 10.524,20.423 10.494,20.34 10.476,20.284 a 0.448,0.448 0 0 0 -0.038,-0.1 c -0.011,-0.01 -0.018,0.021 -0.028,0.094 -0.014,0.092 -0.015,0.1 -0.024,0.1 l -0.008,-0.006 -0.006,-0.013 -0.005,-0.017 v -0.1 l 0.005,0.02 v -0.011 c 0,-0.046 0.017,-0.076 0.045,-0.081 a 0.059,0.059 0 0 0 0.023,-0.013 0.037,0.037 0 0 1 0.023,-0.01 0.99,0.99 0 0 0 0.268,-0.059 0.534,0.534 0 0 1 0.118,-0.035 c 0.092,-0.019 0.1,-0.022 0.1,-0.034 v -0.006 c -0.007,-0.012 -0.037,-0.014 -0.1,0 -0.132,0.017 -0.145,0.02 -0.163,0.038 a 0.064,0.064 0 0 1 -0.076,0.014 0.115,0.115 0 0 0 -0.058,-0.009 0.1,0.1 0 0 1 -0.042,0 H 10.5 v -0.061 c 0,-0.043 0,-0.063 0.006,-0.059 h 0.008 a 0.088,0.088 0 0 0 -0.01,-0.035 c -0.009,-0.016 -0.011,-0.023 -0.008,-0.033 a 0.2,0.2 0 0 0 0.041,-0.008 h 0.055 a 0.6,0.6 0 0 0 0.071,-0.009 v 0 a 0.055,0.055 0 0 0 0.035,0.01 0.037,0.037 0 0 1 0.025,0.007 0.117,0.117 0 0 0 0.034,0.006 c 0.017,0 0.029,0 0.037,0.011 l 0.008,0.013 0.006,0.009 c 0.019,0.021 0.043,0 0.071,-0.05 a 0.143,0.143 0 0 0 0.013,-0.033 l -0.219,0.021 h 0.024 c 0.047,-0.007 0.1,-0.012 0.143,-0.016 h 0.053 v 0 h -0.009 a 0.979,0.979 0 0 0 -0.222,0.029 v 0 h -0.034 -0.044 l 0.022,-0.021 c 0.343,-0.1 2.049,-0.564 2.24,-0.581 a 0.184,0.184 0 0 0 0.113,-0.047 3.947,3.947 0 0 0 -0.8,0.06 c -0.278,0.04 -0.418,0.06 -0.517,0.081 a 4.188,4.188 0 0 0 -0.621,0.187 2.265,2.265 0 0 0 -0.5,0.3 c -0.039,0.03 -0.062,0.052 -0.057,0.062 0.005,0.01 0.008,0 0.015,0 v 0.189 l -0.038,0.029 c -0.025,0.017 -0.038,0.031 -0.035,0.035 0.003,0.004 -0.052,0.034 -0.063,0.065 a 1.6,1.6 0 0 0 -0.026,0.384 0.137,0.137 0 0 0 0.055,0.057 0.634,0.634 0 0 1 -0.006,0.107 l 0.008,0.008 v -0.01 c 0,-0.015 0.009,-0.022 0.013,-0.015 v 0.016 c 0,0 -0.006,0 -0.008,0.009 l 0.033,0.029 0.009,0.006 a 0.062,0.062 0 0 1 0,0.033 0.069,0.069 0 0 0 0,0.035 0.409,0.409 0 0 1 0.007,0.06 0.453,0.453 0 0 0 0.009,0.077 0.076,0.076 0 0 1 -0.025,0.089 c -0.025,0.017 -0.037,0.023 -0.044,0.016 C 10.361,21.111 10.36,21.095 10.36,21.06 a 0.109,0.109 0 0 0 -0.005,-0.044 h -0.006 l -0.032,-0.005 -0.006,0.031 c -0.044,0.194 -0.042,0.273 0.008,0.3 a 1.094,1.094 0 0 0 0.515,0.115 c 0.132,0.006 0.143,0.009 0.143,0.03 a 0.065,0.065 0 0 0 0.065,0.067 h 0.016 a 1.183,1.183 0 0 0 0.165,-0.027 c 0.022,0 0.021,0 0.05,0.043 a 0.878,0.878 0 0 0 0.611,0.338 H 11.319 V 22 H 12.3 v -0.1 h -0.037 c -0.028,0 -0.045,0.013 -0.076,0.016 v 0 a 1.361,1.361 0 0 0 0.691,-0.278 l 0.052,-0.041 h 0.248 l 0.065,-0.035 a 0.477,0.477 0 0 0 0.116,-0.084 l 0.053,-0.05 h 1.223 l 2.5,-0.01 h 1.278 v 0.034 c 0,0.023 0.018,0.025 0.028,0.036 a 0.053,0.053 0 0 1 -0.022,-0.05 c 0,-0.035 0,-0.042 0.009,-0.044 0.009,-0.002 0.011,-0.007 0.018,0 0.007,0.007 0.01,0.015 0.013,0.04 v 0.011 a 0.062,0.062 0 0 0 0.009,0.027 c 0,0 0.006,0 0.006,-0.015 0,-0.015 0,-0.013 0.006,-0.013 h 0.02 v 0.011 a 0.02,0.02 0 0 0 0,0.015 0.04,0.04 0 0 0 0.015,0.014 h 0.007 l 0.015,0.014 a 0.594,0.594 0 0 0 0.2,0.114 0.222,0.222 0 0 1 0.064,0.042 1.149,1.149 0 0 0 0.442,0.246 H 18.86 V 22 h 0.982 v -0.066 h -0.095 a 0.667,0.667 0 0 0 0.088,-0.013 1.056,1.056 0 0 0 0.654,-0.7 c 0.007,-0.045 0.017,-0.047 0.046,-0.006 0.029,0.041 0.047,0.054 0.142,0.037 0.095,-0.017 0.185,-0.031 0.291,-0.042 0.192,-0.021 0.217,-0.039 0.28,-0.194 0.019,-0.049 0.092,-0.237 0.114,-0.3 0.064,-0.096 0.05,-0.127 -0.062,-0.16 z m -1.531,-2.245 a 1.63,1.63 0 0 0 -0.253,0.111 0.246,0.246 0 0 0 -0.045,0.025 h -0.008 a 0.238,0.238 0 0 1 0.044,-0.025 1.536,1.536 0 0 1 0.253,-0.11 0.124,0.124 0 0 0 0.03,-0.016 c 0.025,-0.012 0.055,-0.027 0.069,-0.032 -0.008,0.006 -0.017,0.009 -0.024,0.015 a 0.13,0.13 0 0 1 -0.067,0.032 z m 0.452,0.487 v 0 c 0.021,0.019 0.051,0.043 0.076,0.062 A 0.971,0.971 0 0 1 20.22,18.8 Z m -9.872,1.749 0.006,-0.009 -0.007,-0.006 c -0.009,-0.01 -0.01,-0.025 -0.014,-0.1 0,-0.03 0.008,-0.044 0.022,-0.035 h 0.01 c 0,-0.008 0.009,-0.01 0.012,0 a 0.214,0.214 0 0 1 0.009,0.079 c -0.01,0.084 -0.015,0.095 -0.039,0.071 z m 0.521,0.735 0.011,-0.009 c -0.107,-0.01 -0.126,-0.015 -0.08,-0.02 a 0.617,0.617 0 0 1 0.182,0 c -0.006,0.032 -0.035,0.037 -0.114,0.029 z m 9.747,-2.053 a 1.571,1.571 0 0 0 0.356,-0.013 l -0.007,-0.009 a 0.5,0.5 0 0 0 -0.041,-0.032 c -0.033,-0.027 -0.105,-0.082 -0.152,-0.115 0.046,0.032 0.122,0.09 0.156,0.118 0.016,0.013 0.034,0.028 0.041,0.032 0.007,0.004 0.008,0.007 0.007,0.009 a 1.457,1.457 0 0 1 -0.355,0.013 h -0.01 z m -0.439,0.438 0.014,0.006 a 2.132,2.132 0 0 1 0.265,0.155 l 0.016,0.009 a 0.027,0.027 0 0 0 0.032,-0.006 0.031,0.031 0 0 0 0,-0.019 0.019,0.019 0 0 1 0,-0.015 0.12,0.12 0 0 1 0.013,-0.021 0.316,0.316 0 0 0 0.018,-0.027 0.214,0.214 0 0 1 0.039,-0.028 c 0.036,-0.022 0.05,-0.032 0.054,-0.044 v -0.021 a 0.041,0.041 0 0 1 0.018,-0.019 0.145,0.145 0 0 0 0.037,-0.037 c 0.01,-0.014 0.02,-0.024 0.022,-0.022 a 0.068,0.068 0 0 0 0.034,-0.023 0.175,0.175 0 0 1 0.018,-0.029 0.208,0.208 0 0 0 0.02,-0.036 0.338,0.338 0 0 0 0.018,-0.044 c 0.009,-0.028 0.029,-0.08 0.043,-0.115 v -0.006 a 0.194,0.194 0 0 1 -0.012,0.043 l 0.011,-0.007 c -0.015,0.035 -0.035,0.087 -0.044,0.115 a 0.338,0.338 0 0 1 -0.018,0.044 0.3,0.3 0 0 1 -0.019,0.036 0.166,0.166 0 0 0 -0.019,0.03 c -0.006,0.01 -0.031,0.027 -0.035,0.023 -0.004,-0.004 -0.012,0.008 -0.021,0.022 a 0.166,0.166 0 0 1 -0.038,0.037 0.047,0.047 0 0 0 -0.018,0.019 v 0.031 c 0,0.012 -0.019,0.022 -0.055,0.044 -0.021,0.013 -0.038,0.025 -0.038,0.029 a 0.127,0.127 0 0 1 -0.018,0.027 0.113,0.113 0 0 0 -0.012,0.021 0.02,0.02 0 0 0 0,0.015 0.031,0.031 0 0 1 0,0.019 c 0,0.01 -0.017,0.012 -0.033,0.006 l -0.02,-0.011 c -0.024,-0.018 -0.061,-0.041 -0.1,-0.065 -0.039,-0.024 -0.056,-0.044 -0.084,-0.062 a 1.033,1.033 0 0 1 -0.1,-0.074 z m -1.066,-0.044 c -0.007,0 -0.012,0 -0.012,-0.009 v -0.006 a 0.212,0.212 0 0 1 0.02,-0.024 l 0.024,-0.026 v 0.02 a 0.077,0.077 0 0 1 -0.007,0.027 h 0.011 l -0.021,0.023 z m 0.01,0.038 a 0.28,0.28 0 0 0 -0.016,0.046 0.411,0.411 0 0 1 0.015,-0.046 z m -0.035,-0.394 c -0.5,0.021 -1.742,0.093 -2.425,0.14 a 2.329,2.329 0 0 1 -0.4,0.017 2.226,2.226 0 0 0 0.391,-0.017 c 0.684,-0.047 1.92,-0.119 2.426,-0.14 z m 0,0.379 c 0,0.007 -0.01,0.017 -0.012,0.026 v -0.019 z m -0.611,0.709 h 0.011 a 0.4,0.4 0 0 0 0.038,-0.059 1.335,1.335 0 0 1 0.385,-0.4 0.462,0.462 0 0 0 0.135,-0.118 l 0.018,-0.023 v 0.01 l 0.006,-0.008 V 19.8 l -0.011,0.015 a 0.512,0.512 0 0 1 -0.136,0.118 1.345,1.345 0 0 0 -0.388,0.4 c -0.023,0.037 -0.033,0.051 -0.04,0.051 -0.007,0 -0.006,0 -0.008,-0.008 a 0.011,0.011 0 0 1 0,-0.013 z M 14.022,19.261 C 14,19.249 13.989,19.242 13.989,19.236 a 0.105,0.105 0 0 0 0.032,0.023 0.367,0.367 0 0 1 0.1,0.084 0.758,0.758 0 0 0 0.121,0.112 0.756,0.756 0 0 1 -0.122,-0.1 v -0.007 a 0.325,0.325 0 0 0 -0.098,-0.087 z m 0.166,0.361 0.118,-0.01 h 0.015 v 0 c 0,0.006 -0.035,0.01 -0.17,0.018 l -0.134,0.011 h -0.03 a 1.385,1.385 0 0 1 0.201,-0.019 z m 0.133,1.355 0.873,-0.036 0.393,-0.016 c 0.471,-0.019 0.555,-0.024 0.567,-0.03 a 0.037,0.037 0 0 1 0.029,0 1.18,1.18 0 0 0 0.188,0 l 0.346,-0.016 0.312,-0.013 0.327,-0.013 L 18,20.826 a 1.519,1.519 0 0 0 0.189,-0.013 c 0.017,0 0.014,0.007 0.023,0.009 -0.014,-0.008 -0.04,-0.007 -0.125,0 -0.154,0.008 -0.516,0.024 -0.755,0.033 -0.1,0 -0.275,0.011 -0.391,0.016 l -0.457,0.019 -0.371,0.017 -0.3,0.013 c -0.1,0 -0.243,0.009 -0.318,0.013 l -0.3,0.013 -0.324,0.013 -0.394,0.016 -0.809,0.035 c -0.067,0 -0.134,0 -0.2,0 L 13.678,21 c 0.131,0 0.422,-0.014 0.643,-0.023 z m 2.191,-1.538 0.406,-0.026 c 0.651,-0.043 1.265,-0.079 1.673,-0.1 L 18.857,19.3 a 0.094,0.094 0 0 1 -0.043,0.013 l -0.221,0.016 h -0.02 l -0.256,0.015 a 1.792,1.792 0 0 0 -0.366,0.014 l -0.425,0.029 a 1.788,1.788 0 0 0 -0.209,0.017 l -0.071,0.007 h -0.013 l -0.155,0.011 -0.4,0.026 -0.371,0.026 a 0.324,0.324 0 0 1 -0.089,0.017 v 0 l -0.1,0.006 -0.235,0.015 c -0.377,0.023 -0.656,0.041 -0.737,0.049 a 0.866,0.866 0 0 1 -0.161,0 c 0,0 0.054,-0.006 0.117,-0.01 l 0.219,-0.017 c 0.058,0 0.148,-0.013 0.2,-0.016 l 0.263,-0.02 0.261,-0.02 a 1.313,1.313 0 0 0 0.149,-0.013 z m -0.3,-0.018 v -0.02 l 0.007,-0.023 v 0 l -0.006,0.019 -0.007,0.024 z m 2.355,-0.015 a 0.142,0.142 0 0 1 -0.041,0.008 0.828,0.828 0 0 1 -0.172,0.01 0.022,0.022 0 0 1 0,-0.016 0.023,0.023 0 0 1 0.012,-0.012 h 0.1 a 0.481,0.481 0 0 1 0.1,0.007 z m -0.24,-0.021 c 0.008,0.006 0,0.015 0,0.029 A 0.025,0.025 0 0 1 18.32,19.382 Z m -2.091,0.926 -0.017,0.015 -0.017,0.016 -0.018,-0.021 -0.007,-0.01 -0.007,-0.012 V 20.152 A 1.405,1.405 0 0 1 16.183,20 v -0.076 c 0,-0.027 0,-0.041 0.007,-0.04 0.007,0.001 0.007,0.076 0.012,0.164 0.005,0.088 0.011,0.186 0.015,0.215 l 0.007,0.052 z m 1.913,-0.765 a 0.058,0.058 0 0 1 -0.032,0 c -0.019,-0.008 -0.027,-0.009 -0.128,-0.01 a 0.78,0.78 0 0 1 -0.167,-0.014 0.336,0.336 0 0 0 -0.095,-0.008 1.379,1.379 0 0 1 -0.257,0 h -0.02 a 0.307,0.307 0 0 1 -0.113,0 h -0.022 a 0.173,0.173 0 0 1 -0.064,-0.012 c -0.01,0 -0.016,-0.008 -0.013,-0.011 0.003,-0.003 0,-0.035 0.01,-0.035 v -0.007 l 0.071,-0.007 h 0.015 a 0.274,0.274 0 0 0 0.114,0 0.025,0.025 0 0 1 0.021,0 1.368,1.368 0 0 0 0.256,0 0.308,0.308 0 0 1 0.1,0.008 0.707,0.707 0 0 0 0.166,0.014 c 0.1,0 0.11,0 0.129,0.01 a 0.058,0.058 0 0 0 0.032,0 0.258,0.258 0 0 1 0.068,0 0.123,0.123 0 0 0 0.054,0 0.145,0.145 0 0 1 0.085,0.006 0.172,0.172 0 0 0 0.064,0.01 0.125,0.125 0 0 1 0.057,0.01 l 0.016,0.009 0.014,0.009 a 0.606,0.606 0 0 0 0.119,0.021 0.3,0.3 0 0 1 0.072,0.021 0.115,0.115 0 0 1 0.045,0.03 l 0.012,0.009 h 0.016 a 0.082,0.082 0 0 1 0.02,0.012 h 0.018 a 0.076,0.076 0 0 1 0.02,0.006 l 0.022,0.013 0.017,0.01 c 0.015,0.006 0.03,0 0.086,-0.019 0.056,-0.019 0.074,-0.024 0.072,-0.018 a 0.29,0.29 0 0 1 -0.064,0.041 0.335,0.335 0 0 0 -0.045,0.027 c -0.027,0.008 -0.038,0.01 -0.049,0.006 a 0.107,0.107 0 0 1 -0.028,0.028 L 18.825,19.694 18.806,19.688 H 18.8 l -0.012,-0.007 -0.015,-0.01 H 18.756 A 0.036,0.036 0 0 1 18.74,19.66 0.115,0.115 0 0 0 18.699,19.632 0.3,0.3 0 0 0 18.628,19.611 0.6,0.6 0 0 1 18.508,19.59 0.042,0.042 0 0 1 18.49,19.579 l -0.011,-0.007 a 0.127,0.127 0 0 0 -0.058,-0.01 0.2,0.2 0 0 1 -0.064,-0.01 0.145,0.145 0 0 0 -0.085,-0.006 0.123,0.123 0 0 1 -0.054,0 0.258,0.258 0 0 0 -0.068,0 z m 0.563,0.355 c -0.02,0.014 -0.022,0.01 -0.009,0 a 1.885,1.885 0 0 1 0.266,-0.185 0.365,0.365 0 0 0 0.064,-0.041 c 0.037,-0.016 0.041,-0.011 0.025,0.017 -0.016,0.028 -0.041,0.033 -0.123,0.076 l 0.007,-0.007 A 1.986,1.986 0 0 0 18.713,19.9 Z m -0.256,0.3 h 0.007 a 0.849,0.849 0 0 1 0.082,-0.126 0.276,0.276 0 0 0 0.028,-0.039 v -0.02 l 0.014,-0.013 a 0.115,0.115 0 0 1 0.037,0 0.1,0.1 0 0 1 0.043,0 0.013,0.013 0 0 1 0.011,0.015 v 0 a 0.052,0.052 0 0 1 -0.012,0.017 0.2,0.2 0 0 0 -0.035,0 c -0.028,0 -0.04,0 -0.047,0.012 -0.007,0.012 -0.091,0.125 -0.128,0.177 H 18.449 A 0.059,0.059 0 0 1 18.457,20.2 Z m 0.207,-0.152 -0.026,0.025 a 0.02,0.02 0 0 1 -0.013,-0.012 v -0.007 a 0.024,0.024 0 0 1 0.02,-0.006 v 0.007 z m 0.746,-0.474 h 0.011 a 1.444,1.444 0 0 1 0.263,0 c 0.123,0.013 0.2,0.029 0.2,0.044 a 0.634,0.634 0 0 0 -0.075,-0.007 0.345,0.345 0 0 1 -0.1,-0.008 1.828,1.828 0 0 0 -0.5,0.051 c -0.056,0.016 -0.067,0.016 -0.067,0 -0.015,-0.03 0.117,-0.063 0.269,-0.076 z m 0.128,-0.325 h 0.009 c -0.1,0 -0.2,0.006 -0.225,0 z m -0.229,0.063 a 0.232,0.232 0 0 0 0.075,-0.009 l 0.157,-0.007 h 0.024 a 0.246,0.246 0 0 1 0.066,0.006 0.025,0.025 0 0 1 0.008,0.014 c 0,0.013 0.014,0.008 0.022,-0.008 0.008,-0.016 0.1,-0.018 0.123,0 0.023,0.018 -0.025,0.053 -0.045,0.053 h 0.011 c -0.015,0 -0.033,0.016 -0.024,0.021 0.009,0.005 0,0.057 -0.018,0.057 -0.018,0 -0.018,0 -0.018,0.006 0,0.006 -0.006,0 -0.013,0 a 0.013,0.013 0 0 0 -0.016,0.006 c 0,0.007 -0.017,0.01 -0.057,0.01 -0.059,0 -0.087,0.007 -0.073,0.015 a 0.015,0.015 0 0 0 0.016,0 0.109,0.109 0 0 1 0.044,0 c 0.082,0 0.112,0.023 0.035,0.023 -0.031,0 -0.044,0 -0.041,-0.007 0.003,-0.007 0,0 -0.009,0 a 0.084,0.084 0 0 1 -0.043,0 0.329,0.329 0 0 0 -0.053,-0.01 0.048,0.048 0 0 1 -0.029,-0.009 0.039,0.039 0 0 0 -0.025,-0.01 0.027,0.027 0 0 1 -0.025,-0.017 c 0,-0.012 -0.012,-0.015 -0.036,-0.015 a 0.077,0.077 0 0 1 -0.071,-0.048 0.021,0.021 0 0 0 -0.014,-0.01 q -0.009,0 -0.009,-0.018 c 0.001,-0.025 0.015,-0.039 0.039,-0.039 z m -0.05,-0.063 h 0.009 -0.026 z M 19.237,19 h -0.153 c -0.073,0 -0.212,0 -0.33,0.008 h 0.269 a 0.965,0.965 0 0 1 0.142,0.007 0.3,0.3 0 0 1 0.057,0.015 c 0.016,0.008 0.025,0.017 0.025,0.028 0,0.011 -0.007,0.009 -0.017,0.015 a 0.207,0.207 0 0 1 -0.064,0.02 0.384,0.384 0 0 0 -0.059,0.011 0.933,0.933 0 0 1 -0.165,0.028 l -0.048,0.007 c -0.02,0 -0.161,0.015 -0.222,0.018 a 0.114,0.114 0 0 0 -0.045,0.006 0.562,0.562 0 0 1 -0.1,0.008 c -0.048,0 -0.12,0.006 -0.159,0.01 a 0.33,0.33 0 0 1 -0.077,0 0.134,0.134 0 0 0 -0.04,0 1.192,1.192 0 0 1 -0.146,0.009 0.611,0.611 0 0 0 -0.136,0.007 c -0.013,0.007 -0.136,0.007 -0.5,0.013 -0.105,0 -0.223,0.006 -0.263,0.008 -0.142,0.008 -0.461,0.011 -0.78,0.007 -0.147,0 -0.141,0 -0.141,-0.057 0,-0.028 -0.015,-0.043 0.035,-0.053 0.068,-0.014 0.259,-0.021 0.781,-0.045 l 0.282,-0.013 h 0.043 l 0.373,-0.015 h 0.037 c 0.471,-0.018 0.642,-0.026 0.592,-0.027 L 18,19.026 18.578,19.006 H 18.6 c 0.231,-0.007 0.42,-0.013 0.505,-0.014 h 0.128 z m -0.887,-0.768 0.045,0.035 c 0.433,0.336 0.6,0.471 0.776,0.635 0.03,0.027 0.049,0.044 0.048,0.054 0,-0.01 -0.019,-0.027 -0.048,-0.053 -0.179,-0.164 -0.344,-0.3 -0.776,-0.635 L 18.35,18.233 18.318,18.208 Z m -2.78,-0.091 h 0.006 c 0.016,0 0.06,-0.005 0.113,-0.011 h 0.005 0.017 -0.018 l 0.05,-0.006 h -0.032 c 0.113,-0.012 0.244,-0.022 0.386,-0.031 h 0.074 0.029 c -0.1,0 -0.188,0.011 -0.274,0.018 -0.138,0.009 -0.265,0.02 -0.372,0.032 z m -0.234,0.051 h 0.014 a 0.133,0.133 0 0 1 -0.034,0 c 0.009,0 0.011,-0.003 0.02,-0.003 z m -1.714,0.83 c 0.036,-0.026 0.07,-0.05 0.155,-0.106 -0.077,0.051 -0.128,0.086 -0.17,0.118 z m -0.167,0.172 v 0 c 0,-0.006 0,-0.005 0,-0.015 0,-0.01 0.022,-0.015 0.031,-0.025 a 0.366,0.366 0 0 0 -0.033,0.04 1.554,1.554 0 0 1 0.149,-0.119 c -0.006,0 -0.01,0 -0.016,0 -0.006,0 -0.013,0.009 -0.018,0.01 a 1.471,1.471 0 0 1 0.287,-0.23 c 0.021,-0.012 0.067,-0.042 0.1,-0.066 l 0.056,-0.037 0.033,-0.021 c 0.033,-0.021 0.076,-0.045 0.114,-0.068 l 0.03,-0.017 0.064,-0.037 0.046,-0.027 0.064,-0.038 0.053,-0.029 h 0.007 l 0.046,-0.024 0.05,-0.027 c 0.028,-0.015 0.05,-0.025 0.093,-0.046 0.043,-0.021 0.072,-0.034 0.112,-0.051 0.06,-0.027 0.121,-0.051 0.182,-0.075 h 0.005 c 0.052,-0.019 0.082,-0.031 0.116,-0.042 0.034,-0.011 0.045,-0.014 0.068,-0.02 0.023,-0.006 0.044,-0.012 0.072,-0.018 l -0.052,0.015 a 4.043,4.043 0 0 0 -0.541,0.222 C 14.4,18.537 14.184,18.66 14.031,18.757 L 14,18.776 13.944,18.813 c -0.035,0.024 -0.08,0.054 -0.1,0.066 -0.02,0.012 -0.015,0.014 -0.023,0.019 a 0.492,0.492 0 0 1 0.08,-0.051 0.328,0.328 0 0 1 0.1,-0.038 c 0.034,-0.005 0.044,-0.007 0.045,-0.016 V 18.77 c 0,-0.021 0.041,-0.048 0.229,-0.152 a 0.708,0.708 0 0 1 0.131,-0.068 0.582,0.582 0 0 1 -0.083,0.057 0.789,0.789 0 0 0 -0.082,0.056 c 0.009,0 0.154,-0.074 0.361,-0.183 a 2.737,2.737 0 0 1 1.3,-0.341 c 0.176,-0.01 0.291,-0.008 0.351,-0.006 H 16.3 l -0.028,0.18 -0.079,0.736 0.106,-0.01 0.042,-0.348 0.021,-0.175 v -0.007 l 0.05,-0.428 h 0.041 v 0.024 l -0.09,0.959 0.12,-0.006 0.054,-0.917 c 0,-0.011 0.05,-0.009 0.073,-0.013 h 0.63 c 0.262,0 0.525,0.007 0.611,0.012 a 1.282,1.282 0 0 1 0.152,0.015 0.347,0.347 0 0 1 0.045,0.006 0.387,0.387 0 0 1 0.043,0.027 1.517,1.517 0 0 1 0.211,0.173 l 0.288,0.273 0.038,0.019 h 0.1 a 0.282,0.282 0 0 0 0.1,-0.006 1.859,1.859 0 0 1 0.367,0.3 c 0.006,0.006 0.01,0.011 0.009,0.014 a 1.883,1.883 0 0 1 -0.356,0.025 c -0.386,0.012 -1.324,0.047 -1.548,0.057 l -0.371,0.017 c -0.128,0.006 -0.315,0.014 -0.416,0.02 L 16.25,19.093 16.115,19.1 a 0.607,0.607 0 0 1 0.127,0.012 v 0.015 c -0.008,0.041 -0.026,0.089 -0.033,0.088 a 1.427,1.427 0 0 0 -0.32,0 c -0.088,0.008 -0.273,0.013 -0.367,0.01 a 0.049,0.049 0 0 0 -0.029,0.006 0.188,0.188 0 0 1 -0.058,0 h -0.3 a 1.713,1.713 0 0 0 -0.19,0.008 0.813,0.813 0 0 1 -0.11,0.007 1.181,1.181 0 0 0 -0.146,0.012 0.146,0.146 0 0 1 -0.051,0 0.49,0.49 0 0 0 -0.077,0.007 0.318,0.318 0 0 1 -0.173,-0.011 c -0.09,-0.021 -0.112,-0.03 -0.1,-0.041 a 0.3,0.3 0 0 1 0.048,-0.006 H 14.28 a 0.59,0.59 0 0 1 -0.157,0 0.039,0.039 0 0 0 -0.03,0 0.268,0.268 0 0 1 -0.074,0.013 c -0.083,0.01 -0.123,0.024 -0.125,0.051 -0.002,0.027 0.005,0.031 0.031,0.053 v 0 c 0.025,0.026 0.038,0.048 0.037,0.058 -10e-4,0.01 -0.011,0.011 -0.036,-0.008 a 0.993,0.993 0 0 1 -0.124,-0.1 l -0.013,-0.008 a 0.267,0.267 0 0 0 -0.022,-0.036 0.933,0.933 0 0 0 -0.269,0 0.129,0.129 0 0 1 -0.048,0 h -0.006 c -0.005,-0.005 0.004,-0.023 0.011,-0.039 z m 0.116,0.091 a 0.568,0.568 0 0 1 -0.1,0.027 c -0.015,0 -0.012,-0.02 0,-0.027 0.012,-0.007 0.109,-0.013 0.1,-0.003 z m -0.118,-0.009 h 0.01 a 0.045,0.045 0 0 0 -0.02,0.027 0.148,0.148 0 0 1 0.01,-0.03 z m -0.382,0.018 a 0.457,0.457 0 0 1 0.116,-0.016 l 0.17,-0.006 a 0.1,0.1 0 0 1 0.043,0 c 0.007,0.013 -0.026,0.05 -0.054,0.059 l -0.041,0.014 a 0.656,0.656 0 0 1 -0.132,0.026 c -0.034,0 -0.049,0.01 -0.049,0.017 0,0.007 0,0.009 -0.039,0.011 a 0.107,0.107 0 0 0 -0.054,0.019 0.441,0.441 0 0 1 -0.11,0.051 0.21,0.21 0 0 0 -0.042,0.022 l -0.041,0.025 c -0.012,0.006 -0.044,0.024 -0.07,0.04 a 0.289,0.289 0 0 1 -0.058,0.03 0.183,0.183 0 0 0 -0.042,0.026 0.114,0.114 0 0 1 -0.042,0.026 0.114,0.114 0 0 0 -0.039,0.03 c -0.024,0.025 -0.03,0.029 -0.045,0.025 -0.04,-0.01 -0.038,-0.014 0.034,-0.062 0.034,-0.023 0.079,-0.055 0.1,-0.071 l 0.137,-0.1 0.16,-0.113 a 0.4,0.4 0 0 1 0.098,-0.056 z m 0.259,1.176 v 0.016 c 0,0.01 0,0.02 0,0.03 a 0.158,0.158 0 0 1 -0.011,-0.037 z m -0.019,-0.763 a 0.1,0.1 0 0 1 -0.01,0.029 0.059,0.059 0 0 1 -0.043,0.031 0.654,0.654 0 0 0 -0.152,0.064 0.052,0.052 0 0 1 -0.026,0.01 0.075,0.075 0 0 0 -0.038,0.021 l -0.037,0.032 a 0.112,0.112 0 0 0 -0.018,0.02 0.087,0.087 0 0 1 -0.023,0.02 0.061,0.061 0 0 0 -0.016,0.016 v 0.008 c -0.005,0.008 -0.019,0.007 -0.041,0 H 12.901 L 12.886,19.94 c -0.034,-0.033 -0.049,-0.051 -0.047,-0.053 h 0.007 a 0.11,0.11 0 0 1 0.026,0.015 0.208,0.208 0 0 0 0.047,0.028 c 0.021,0.009 0.036,0.01 0.041,0 V 19.922 A 0.121,0.121 0 0 1 12.976,19.906 0.074,0.074 0 0 0 13,19.88 0.112,0.112 0 0 1 13.018,19.86 l 0.037,-0.032 a 0.084,0.084 0 0 1 0.038,-0.021 0.039,0.039 0 0 0 0.025,-0.01 0.708,0.708 0 0 1 0.153,-0.064 0.057,0.057 0 0 0 0.04,-0.033 z m -1.246,-0.214 h 0.006 a 0.143,0.143 0 0 0 0.044,-0.016 c 0.01,0 0.078,-0.024 0.151,-0.043 a 1.806,1.806 0 0 0 0.287,-0.091 l 0.018,-0.007 A 1.024,1.024 0 0 1 12.776,19.3 c 0.043,0 0.088,-0.006 0.133,-0.007 h 0.056 l -0.016,0.015 c -0.009,0.008 -0.06,0.044 -0.114,0.079 -0.082,0.054 -0.23,0.156 -0.37,0.258 l -0.03,0.022 -0.084,-0.017 a 2.436,2.436 0 0 0 -0.27,-0.038 C 12,19.605 11.99,19.602 11.99,19.587 a 0.032,0.032 0 0 0 -0.013,-0.022 c -0.026,-0.025 0.008,-0.051 0.088,-0.075 z m -1.043,0.548 v -0.007 c 0.013,-0.016 0.03,-0.03 0.045,-0.045 a 0.472,0.472 0 0 0 0.05,-0.036 c 0.039,-0.033 0.1,-0.08 0.136,-0.105 0.012,-0.008 0.023,-0.017 0.034,-0.026 a 0.411,0.411 0 0 1 0.061,-0.012 0.041,0.041 0 0 1 0.022,0 0.075,0.075 0 0 1 -0.016,0.015 0.341,0.341 0 0 1 -0.048,0.037 c -0.035,0.025 -0.1,0.072 -0.136,0.1 -0.077,0.063 -0.1,0.073 -0.134,0.074 z m 0.919,0.038 h 0.007 c 0.012,0 0.067,0.007 0.123,0.011 a 0.9,0.9 0 0 1 0.353,0.091 c 0.048,0.021 0.059,0.02 0.062,0.015 0.014,0.015 0,0.019 -0.063,-0.01 A 0.9,0.9 0 0 0 12.07,20.095 0.8,0.8 0 0 1 11.947,20.084 h -0.022 z m -0.058,0.788 a 0.1,0.1 0 0 0 0.031,0.028 0.069,0.069 0 0 1 0.018,0.016 v 0.023 0 l -0.005,-0.008 c 0,0.007 -0.01,0.012 -0.015,0.007 v -0.009 0 -0.007 h 0.005 a 0.152,0.152 0 0 0 -0.02,-0.029 l -0.1,-0.107 A 0.926,0.926 0 0 1 11.719,20.693 C 11.706,20.676 11.691,20.66 11.676,20.644 v 0 c 0,0 -0.006,-0.01 -0.021,-0.018 -0.015,-0.008 -0.01,-0.012 -0.016,-0.017 -0.02,-0.022 -0.041,-0.047 -0.061,-0.072 a 0.532,0.532 0 0 0 -0.055,-0.061 v 0 c -0.006,0 -0.01,0 -0.011,0.006 l 0.006,0.008 a 0.024,0.024 0 0 1 0.006,0.023 v 0 0 a 0.463,0.463 0 0 1 0.05,0.058 0.272,0.272 0 0 0 0.029,0.03 c 0.007,0.011 0.024,0.028 0.021,0.034 h -0.018 v 0 0 -0.005 a 0.216,0.216 0 0 1 -0.079,0.013 0.36,0.36 0 0 0 -0.093,0.013 v 0.006 h 0.028 a 0.257,0.257 0 0 0 -0.04,0.006 0.3,0.3 0 0 1 0.052,-0.007 0.739,0.739 0 0 0 0.094,0 0.694,0.694 0 0 0 0.09,-0.012 l 0.005,0.005 c 0,0 0,0.007 -0.013,0.012 -0.013,0.005 -0.017,0.011 0,0.007 0.017,-0.004 0.042,0.012 0.122,0.1 l 0.033,0.036 h 0.007 c 0.005,0.005 0.005,0.012 0.009,0.018 l 0.043,0.046 v 0.01 c 0.006,0 0.009,-0.006 0.015,0 v 0.008 H 11.871 V 20.9 c 0,0.007 0.005,0.016 -0.007,0.019 a 0.267,0.267 0 0 0 -0.04,0.013 0.712,0.712 0 0 1 -0.1,0.029 c -0.006,0 -0.007,-0.019 -0.007,-0.043 0,0.031 0,0.059 0.007,0.059 a 0.7,0.7 0 0 0 0.1,-0.037 0.267,0.267 0 0 1 0.04,-0.013 c 0.014,0 0.009,-0.013 0.009,-0.023 0,0.008 0.013,0.017 0.012,0.025 a 0.035,0.035 0 0 1 -0.005,0.018 c -0.006,0.011 -0.033,0.021 -0.15,0.056 l -0.1,0.029 c -0.051,0.016 -0.069,0.015 -0.08,0 l 0.006,0.008 a 0.016,0.016 0 0 1 -0.01,0.008 l -0.043,0.016 a 0.7,0.7 0 0 1 -0.14,0.043 l 0.011,-0.014 v -0.008 c 0,-0.007 0.02,-0.015 0.071,-0.03 0.051,-0.015 0.065,-0.022 0.071,-0.033 0.006,-0.011 -0.017,-0.033 -0.061,-0.065 l -0.066,-0.05 a 0.179,0.179 0 0 0 -0.042,-0.025 h -0.008 a 0.461,0.461 0 0 0 0.079,0.073 c 0.053,0.041 0.076,0.057 0.076,0.069 0,0.012 -0.024,0.018 -0.073,0.033 a 0.3,0.3 0 0 0 -0.041,0.018 c 0.022,-0.011 0.012,-0.028 0.049,-0.038 0.037,-0.01 0.045,-0.012 0.037,-0.023 a 0.181,0.181 0 0 0 -0.034,-0.028 l -0.074,-0.058 a 0.56,0.56 0 0 0 -0.049,-0.036 l -0.011,-0.01 c 0,0 0,-0.022 0,-0.03 0,0.02 0.024,0.013 0.028,-0.009 v -0.006 c -0.013,0.014 -0.02,0.018 -0.016,-0.008 l 0.011,-0.009 0.007,-0.047 a 0.276,0.276 0 0 1 0.019,-0.055 0.058,0.058 0 0 1 0.012,-0.02 c 0,-0.015 0,-0.023 -0.009,-0.017 a 0.33,0.33 0 0 0 -0.05,0.151 0.2,0.2 0 0 1 0.012,-0.12 c 0.025,-0.055 0.037,-0.059 0.208,-0.073 0.051,0 0.057,0 0.029,-0.039 l -0.015,-0.017 -0.015,-0.018 a 0.341,0.341 0 0 1 -0.03,-0.044 0.094,0.094 0 0 0 -0.012,-0.022 c -0.01,-0.007 -0.008,-0.031 0,-0.044 0.008,-0.013 0.034,-0.016 0.121,0.088 0.147,0.177 0.2,0.239 0.221,0.239 a 0.05,0.05 0 0 1 0.04,0.015 0.019,0.019 0 0 1 0,0.018 0.069,0.069 0 0 0 0.024,0.049 z m -0.5,0.25 -0.008,0.007 c -0.018,0.013 -0.045,0.011 -0.041,0 v -0.007 a 0.042,0.042 0 0 1 0.027,0 z m -0.064,-0.215 a 0.054,0.054 0 0 1 0,0.018 c 0,0.01 0,0.019 -0.006,0.019 v 0 a 0.032,0.032 0 0 1 0,-0.033 z m 0.182,-0.529 a 0.71,0.71 0 0 0 -0.156,0.2 v 0 a 0.7,0.7 0 0 1 0.165,-0.217 0.049,0.049 0 0 0 0.017,-0.025 v 0 c 0.002,0.005 0.002,0.019 -0.027,0.039 z m -0.22,0.268 a 0.548,0.548 0 0 1 -0.016,0.058 0.181,0.181 0 0 1 -0.036,0.067 c -0.024,0.029 -0.028,0.05 -0.012,0.066 l 0.009,0.008 h 0.006 v 0.037 a 0.128,0.128 0 0 0 0,0.055 v 0.026 h -0.006 a 0.116,0.116 0 0 1 0,-0.064 V 20.857 H 11.22 l -0.009,-0.008 c -0.016,-0.016 -0.012,-0.037 0.012,-0.066 a 0.181,0.181 0 0 0 0.036,-0.067 0.184,0.184 0 0 1 0.016,-0.058 0.14,0.14 0 0 0 0.006,-0.041 0.109,0.109 0 0 1 0.041,-0.084 c 0.014,-0.007 0.016,-0.012 0.016,-0.037 a 0.063,0.063 0 0 1 0.006,-0.033 0.106,0.106 0 0 0 0.011,-0.025 0.309,0.309 0 0 1 0.077,-0.121 v 0 a 0.317,0.317 0 0 0 -0.066,0.1 0.033,0.033 0 0 1 -0.011,0.025 0.063,0.063 0 0 0 -0.006,0.033 c 0,0.025 0,0.03 -0.016,0.037 a 0.114,0.114 0 0 0 -0.041,0.084 0.14,0.14 0 0 1 -0.011,0.042 z m 1.438,0.448 a 0.06,0.06 0 0 0 -0.022,0.036 0.192,0.192 0 0 1 -0.015,0.048 c -0.015,0.033 -0.015,0.034 0,0.048 0.015,0.014 0,0.013 0,0.018 a 0.14,0.14 0 0 0 -0.021,-0.013 h -0.01 l -0.037,-0.013 -0.165,-0.058 0.007,0.007 a 0.644,0.644 0 0 0 0.111,0.041 c 0.094,0.029 0.117,0.039 0.109,0.053 v 0.006 h 0.011 c -0.007,0.028 -0.041,0.047 -0.1,0.025 -0.059,-0.022 -0.093,-0.032 -0.093,-0.013 a 0.547,0.547 0 0 0 0.035,0.132 c 0.005,0.01 -0.016,0.019 -0.015,0.029 a 0.638,0.638 0 0 0 -0.022,-0.086 0.4,0.4 0 0 1 -0.027,-0.108 c 0,-0.02 0.026,-0.009 0.084,0.012 a 0.22,0.22 0 0 0 0.075,0.02 0.03,0.03 0 0 1 0.023,0 0.022,0.022 0 0 0 0.021,-0.008 c 0.007,-0.008 -0.011,0.008 -0.016,0 a 0.048,0.048 0 0 0 -0.031,-0.008 0.3,0.3 0 0 1 -0.078,-0.02 c -0.058,-0.02 -0.08,-0.024 -0.089,-0.012 v 0.006 c 0,0 0,0.007 -0.006,0.006 l -0.006,-0.016 v 0 c 0.009,-0.011 0.03,-0.008 0.088,0.012 a 0.3,0.3 0 0 0 0.078,0.02 0.048,0.048 0 0 1 0.031,0.008 c 0,0 0.009,0 0.016,0 v -0.006 c 0.007,-0.014 -0.016,-0.024 -0.11,-0.053 A 0.587,0.587 0 0 1 12.463,21.171 0.75,0.75 0 0 0 12.37,21.134 l -0.122,-0.046 a 0.3,0.3 0 0 0 -0.039,-0.014 c -0.008,0 0,0 0,0.007 a 0.211,0.211 0 0 1 -0.036,-0.009 0.059,0.059 0 0 0 -0.053,0 0.091,0.091 0 0 0 -0.013,0.053 c 0,0.036 0,0.073 0.005,0.109 v -0.109 c 0,-0.012 0.015,0 0.017,0 0.002,0 0.025,-0.018 0.046,-0.012 0.021,0.006 0.007,-0.016 0.027,-0.007 0.02,0.009 0.083,0.035 0.123,0.05 0.075,0.028 0.1,0.04 0.1,0.058 a 0.692,0.692 0 0 0 0.025,0.089 c 0.011,0.036 0.022,0.077 0.03,0.1 v 0 a 0.119,0.119 0 0 1 0.011,0.026 v 0.009 c 0,0.008 0.01,0.019 0.015,0.019 a 0.138,0.138 0 0 1 -0.074,0.146 c -0.051,0.036 -0.066,0.032 -0.19,-0.049 -0.027,-0.018 -0.044,-0.027 -0.053,-0.032 0.014,0 0.019,-0.012 0.063,0.018 a 0.143,0.143 0 0 0 0.067,0.032 L 12.281,21.551 C 12.255,21.533 12.239,21.52 12.246,21.522 l 0.019,0.01 a 0.1,0.1 0 0 0 0.024,0.02 l 0.033,0.02 0.019,0.011 v -0.023 0 l 0.01,0.005 -0.006,-0.005 v 0 h -0.006 c 0,-0.009 -0.009,-0.017 -0.036,-0.033 l -0.1,-0.062 A 0.328,0.328 0 0 0 12.136,21.43 c -0.012,0 -0.019,0 -0.023,-0.023 0,0.011 0,0.023 0,0.034 0,0.028 0.008,0.1 0.01,0.155 0,0.105 0.009,0.12 0.031,0.112 a 0.012,0.012 0 0 0 0.008,-0.013 v -0.008 a 0.02,0.02 0 0 1 0,-0.015 l 0.007,-0.008 a 0.013,0.013 0 0 0 0.007,-0.01 v -0.015 h 0.052 c 0,0 -0.007,0.013 -0.037,0.027 -0.03,0.014 -0.052,0.045 -0.04,0.058 a 0.823,0.823 0 0 0 0.159,-0.046 c 0.039,-0.016 0.058,-0.019 0.059,-0.013 10e-4,0.006 -0.023,0.026 -0.076,0.053 a 0.64,0.64 0 0 1 -0.33,0.03 h -0.06 c -0.019,0 -0.038,-0.01 -0.057,-0.015 -0.019,-0.005 -0.049,0 -0.074,0 l 0.011,-0.009 h 0.035 a 0.648,0.648 0 0 1 -0.063,-0.017 0.7,0.7 0 0 1 -0.144,-0.074 0.493,0.493 0 0 1 -0.054,-0.034 c -0.027,-0.022 -0.061,-0.05 -0.089,-0.078 a 0.243,0.243 0 0 0 -0.052,-0.044 l 0.013,0.021 0.033,0.037 C 11.446,21.518 11.42,21.516 11.406,21.498 a 0.665,0.665 0 0 1 -0.125,-0.249 c -0.01,-0.041 0,-0.046 0.014,-0.028 a 0.262,0.262 0 0 1 0.029,0.058 0.057,0.057 0 0 0 0.013,0.027 c 0.007,0.009 0.014,0.006 0.025,-0.006 0.011,-0.012 0.012,0 0.018,-0.009 v 0 c 0,-0.009 0.022,-0.02 0.09,-0.047 l 0.145,-0.062 c 0.014,-0.011 0.017,-0.019 -0.009,-0.02 -0.026,-10e-4 -0.02,0 -0.025,-0.036 0,-0.016 0,-0.029 0,-0.034 -0.06,0.017 -0.119,0.037 -0.176,0.059 -0.057,0.022 -0.091,0.029 -0.1,0.011 v -0.01 c 0,0 0.018,-0.008 0.018,-0.013 0,-0.005 0,0.018 0.008,0.02 a 0.161,0.161 0 0 0 0.052,-0.014 c 0.115,-0.045 0.222,-0.084 0.289,-0.105 l 0.139,-0.044 0.086,-0.027 c 0.016,0 0.019,-0.008 0.024,-0.015 -0.008,0.015 -0.027,0.025 -0.1,0.049 l -0.13,0.042 h -0.01 c -0.01,0 -0.011,0.01 0,0.014 0.011,0.004 0.011,0.021 0,0.056 -0.011,0.035 -0.013,0.036 0.016,0.028 h 0.01 0.01 l 0.16,-0.071 c 0.01,-0.007 0.011,-0.011 0.007,-0.018 l -0.006,-0.007 c -0.015,-0.016 -0.013,-0.033 0,-0.04 0.013,-0.007 0.02,0 0.028,0.013 a 0.03,0.03 0 0 1 0.008,0.016 h 0.016 a 0.148,0.148 0 0 1 0.032,0 h 0.007 l 0.007,0.006 v 0 h -0.005 v 0 0 a 0.132,0.132 0 0 1 0.008,0.033 v 0.018 a 0.106,0.106 0 0 0 0.006,0.05 H 12 c 0.012,0 0.014,0 0.01,-0.009 -0.012,-0.029 -0.008,-0.045 0.014,-0.047 0.022,-0.002 0.025,-0.008 0.014,-0.028 -0.011,-0.02 0.032,-0.036 0.082,-0.023 0.033,0.009 0.056,0.007 0.051,0 a 0.051,0.051 0 0 0 -0.016,-0.009 0.039,0.039 0 0 1 -0.02,-0.013 c -0.007,-0.01 -0.009,-0.021 0,-0.028 0.009,-0.007 0.008,-0.01 0.006,-0.014 -0.002,-0.004 -0.008,-0.007 -0.017,-0.01 A 0.049,0.049 0 0 1 12.102,20.944 V 20.935 L 12.093,20.921 A 0.035,0.035 0 0 0 12.08,20.913 0.035,0.035 0 0 1 12.055,20.899 c -0.006,-0.009 0,-0.017 0.028,-0.017 0.028,0 0.026,0 0.026,-0.009 V 20.867 H 12.1 12.091 a 0.038,0.038 0 0 1 -0.009,-0.034 c 0,-0.011 0.03,-0.01 0.039,0 0.009,0.01 0.019,0.012 0.027,-0.007 0.008,-0.019 0.006,-0.016 0,-0.022 v 0.007 l -0.007,-0.006 c -0.011,-0.012 0,-0.018 0.017,-0.008 0.017,0.01 0.024,0.006 0.071,-0.065 0.013,-0.02 0.046,-0.068 0.074,-0.108 0.1,-0.137 0.137,-0.206 0.129,-0.227 L 12.427,20.39 c -0.019,-0.021 -0.07,-0.05 -0.08,-0.042 a 2.781,2.781 0 0 0 -0.2,0.336 C 12.061,20.865 12.036,20.898 12,20.876 l -0.022,-0.013 -0.012,0.015 c -0.009,0.011 -0.021,0.012 -0.028,0 a 0.031,0.031 0 0 1 -0.009,-0.022 c 0,-0.014 0,-0.018 0.014,-0.021 0.014,-0.003 0.02,-0.007 0,-0.029 L 11.919,20.778 11.903,20.76 A 0.144,0.144 0 0 1 11.88,20.728 0.533,0.533 0 0 0 11.83,20.654 c -0.027,-0.037 -0.065,-0.09 -0.083,-0.119 -0.018,-0.029 -0.054,-0.078 -0.078,-0.11 -0.045,-0.06 -0.053,-0.083 -0.031,-0.095 0.022,-0.012 0.019,0 0.029,0 0.01,0 0,-0.006 0.007,-0.006 a 0.023,0.023 0 0 1 0.016,0.006 0.051,0.051 0 0 0 0.021,0.01 c 0.014,0 0.025,0.015 0.049,0.051 a 0.173,0.173 0 0 0 0.046,0.057 c 0.012,-0.042 0.023,-0.077 0.032,-0.106 0.009,-0.029 0.017,-0.052 0.024,-0.069 a 0.1,0.1 0 0 1 0.017,-0.027 0.766,0.766 0 0 0 -0.272,0.058 c -0.035,0.022 -0.057,0.026 -0.059,0.016 -0.002,-0.01 0,-0.017 0.019,-0.033 0.019,-0.016 0.007,-0.009 0.006,-0.011 a 0.048,0.048 0 0 0 -0.036,0.014 c -0.008,0.007 -0.007,0.01 -0.011,0.016 v 0 c 0,-0.007 0,-0.019 0.023,-0.032 0.023,-0.013 0.031,-0.016 0.036,-0.014 0.005,0.002 0,0 -0.006,0.011 -0.006,0.011 -0.021,0.028 -0.019,0.033 0.002,0.005 0.024,0.006 0.059,-0.016 a 0.766,0.766 0 0 1 0.272,-0.058 0.04,0.04 0 0 1 0.015,-0.022 0.458,0.458 0 0 1 0.117,-0.006 c 0.036,0 0.069,-0.028 0.106,-0.022 a 0.834,0.834 0 0 1 0.282,0.1 0.4,0.4 0 0 0 0.047,0.033 0.961,0.961 0 0 1 0.07,0.073 v 0 0 C 12.507,20.365 12.489,20.34 12.466,20.321 a 0.4,0.4 0 0 1 -0.047,-0.033 0.856,0.856 0 0 0 -0.282,-0.1 C 12.1,20.182 12.067,20.21 12.031,20.21 q 0.031,0 0.063,0 a 0.47,0.47 0 0 0 0.063,0.013 0.764,0.764 0 0 1 0.08,0.029 v 0 a 0.691,0.691 0 0 1 0.1,0.035 c 0,0 0.007,-0.007 0.011,0 v 0 h -0.006 0.008 v 0.008 a 0.377,0.377 0 0 1 -0.052,0.089 c -0.029,0.045 -0.061,0.1 -0.07,0.116 a 0.27,0.27 0 0 1 -0.029,0.051 c 0,0.007 0.015,-0.009 0.035,-0.048 0.009,-0.019 0.041,-0.071 0.07,-0.116 a 0.377,0.377 0 0 0 0.052,-0.089 v -0.009 a 0.146,0.146 0 0 0 0.019,0.007 0.055,0.055 0 0 0 0.025,0.02 0.753,0.753 0 0 1 0.116,0.077 v 0.012 l -0.006,0.01 v 0 l -0.007,0.012 a 0.054,0.054 0 0 0 -0.011,0.026 0.263,0.263 0 0 1 -0.041,0.071 0.265,0.265 0 0 0 -0.038,0.06 c 0,0.007 0.027,0.008 0.037,0.011 v 0 c 0.022,0 0.043,0 0.1,0 v 0 c 0.064,0 0.091,0 0.1,0.019 a 0.185,0.185 0 0 1 0.021,0.045 c 0.026,0.068 0,0.082 -0.006,0.115 v 0.041 a 0.421,0.421 0 0 0 -0.052,0.04 l -0.09,0.076 a 0.145,0.145 0 0 0 -0.017,0.018 h -0.005 a 0.049,0.049 0 0 0 -0.011,0.014 0.106,0.106 0 0 0 -0.015,0.015 c 0,0.008 -0.024,0 -0.034,0 h -0.014 c -0.014,0 -0.017,0.009 -0.039,0 a 1.109,1.109 0 0 0 -0.123,-0.03 c -0.05,-0.011 -0.043,-0.022 -0.061,-0.031 -0.018,-0.009 -0.032,-0.01 -0.034,-0.017 -0.002,-0.007 -0.017,0 -0.016,-0.008 a 0.255,0.255 0 0 1 0.044,-0.085 0.556,0.556 0 0 0 0.045,-0.079 c 0,0 -0.008,0 -0.025,0.029 a 0.489,0.489 0 0 0 -0.09,0.152 0.032,0.032 0 0 0 0.019,0.03 3.363,3.363 0 0 0 0.372,0.091 0.568,0.568 0 0 1 0.1,0.027 0.089,0.089 0 0 0 0.051,0 c 0,0 0.007,0 0.019,-0.011 0.012,-0.011 0.019,-0.007 0.024,0 a 0.128,0.128 0 0 1 0,0.019 v 0 c 0.006,0.004 0.012,0.012 0.006,0.021 z m -0.253,0.22 v 0.02 L 12.457,21.313 A 0.127,0.127 0 0 1 12.445,21.274 L 12.44,21.251 h 0.005 l 0.008,0.019 a 0.3,0.3 0 0 1 0.013,0.036 z m -0.148,-0.192 c 0.037,0.014 0.075,0.029 0.113,0.04 h -0.007 z m 0.1,0.059 a 0.552,0.552 0 0 0 -0.066,-0.031 l -0.021,-0.008 -0.019,-0.008 -0.047,-0.02 h -0.012 l -0.036,-0.017 c -0.01,-0.007 -0.008,-0.01 0,-0.008 l 0.024,0.011 h 0.012 l 0.047,0.02 0.04,0.016 c 0.06,0.019 0.074,0.03 0.082,0.042 z m -0.287,0.266 a 0.03,0.03 0 0 1 0.037,0 v 0.013 -0.008 c -0.004,-0.015 -0.022,-0.013 -0.033,-0.008 z m 0.012,0.125 v 0 l -0.012,-0.06 A 0.215,0.215 0 0 1 12.124,21.44 v 0 a 0.209,0.209 0 0 0 0.007,0.066 z m 0,-0.059 c 0,-0.007 0.018,0.009 0.022,0.006 a 0.215,0.215 0 0 0 0,0.067 0.6,0.6 0 0 1 -0.022,-0.072 z m 0.016,-0.046 h -0.01 v 0 l 0.011,-0.005 v 0 z m -0.133,-0.487 c -0.03,0 -0.032,-0.008 -0.03,-0.016 v 0 c 0.009,-0.011 0.006,-0.027 0.022,-0.027 a 0.071,0.071 0 0 0 0.029,0 0.014,0.014 0 0 1 0.015,0 h 0.011 v 0.006 0.012 a 0.03,0.03 0 0 1 0,0.016 0.046,0.046 0 0 1 -0.038,0.026 0.071,0.071 0 0 1 -0.074,-0.006 c -0.006,0.006 0.013,0 0.017,-0.007 L 12,20.967 c 0,0.007 0.009,0.011 0.032,0.014 0.023,0.003 0.009,-0.007 0.016,-0.009 0.007,-0.002 -0.011,0 -0.017,0 z m 0.075,0.024 V 20.99 c 0,-0.013 0,-0.021 0.014,-0.021 v 0.015 C 12.122,21 12.111,21 12.106,21 Z m 0.406,-0.774 v 0 a 0.207,0.207 0 0 0 0.061,0.044 v 0 a 0.194,0.194 0 0 1 -0.056,-0.047 z m -0.055,0.306 c -0.022,0.029 -0.034,0.045 -0.031,0.053 a 0.012,0.012 0 0 1 -0.009,-0.013 v -0.007 h 0.009 a 0.164,0.164 0 0 0 0.036,-0.036 z m 0.158,0.47 c -0.046,-0.01 -0.082,-0.018 -0.081,-0.032 10e-4,-0.014 0.025,-0.035 0.078,-0.081 a 0.26,0.26 0 0 0 0.062,-0.066 c -0.007,0.009 0.009,0.033 0,0.039 a 0.532,0.532 0 0 0 -0.115,0.107 0.418,0.418 0 0 0 0.089,0.04 c 0.013,0 0.018,0 0.024,-0.019 0.006,-0.019 0.011,-0.023 0.015,-0.016 a 0.062,0.062 0 0 1 0.007,0.023 0.129,0.129 0 0 0 0.019,0.047 v 0 -0.005 A 0.028,0.028 0 0 1 12.687,21.026 C 12.688,21.017 12.661,21.008 12.615,21 Z m 0.055,0.024 H 12.657 L 12.645,21.02 Z m -0.14,-0.049 h -0.007 a 0.03,0.03 0 0 1 0,-0.023 v -0.005 h 0.007 v 0.009 a 0.028,0.028 0 0 0 0,0.022 z m -0.046,0.037 A 0.424,0.424 0 0 1 12.39,21 a 1.354,1.354 0 0 1 -0.179,-0.05 0.3,0.3 0 0 1 0.053,0.007 c 0.1,0.024 0.187,0.044 0.209,0.047 0.022,0.003 0.012,10e-4 0.011,0.006 z M 12.16,20.935 h -0.009 a 0.015,0.015 0 0 1 -0.01,-0.014 h 0.009 a 0.045,0.045 0 0 1 0.015,0.011 z M 12.732,20.65 12.715,20.633 A 0.161,0.161 0 0 1 12.7,20.6 a 0.084,0.084 0 0 1 -0.018,-0.028 0.509,0.509 0 0 0 -0.066,-0.1 c -0.017,-0.022 -0.04,-0.039 -0.059,-0.06 v -0.006 c 0.017,0.019 0.037,0.035 0.053,0.055 a 0.509,0.509 0 0 1 0.066,0.1 0.134,0.134 0 0 0 0.018,0.028 0.209,0.209 0 0 0 0.024,0.028 l 0.017,0.017 c 0.013,0.014 0.018,0.034 0.03,0.088 a 0.223,0.223 0 0 0 -0.028,-0.075 z m -0.115,-0.334 v 0.005 c -0.01,0 -0.031,-0.022 -0.031,-0.028 v 0 0 0 c 0.014,0.007 0.027,0.019 0.036,0.02 z m 0.017,0.014 h 0.01 a 0.014,0.014 0 0 1 0.009,0.013 c 0.005,0.007 0,0.007 -0.009,0 -0.009,-0.007 -0.005,-0.013 -0.005,-0.016 z m 0.128,0.411 a 0.492,0.492 0 0 0 0.033,0.105 v 0 a 0.455,0.455 0 0 1 -0.03,-0.1 z m 0.061,0.46 c -0.015,0 -0.01,0 -0.016,-0.013 a 0.227,0.227 0 0 1 -0.035,-0.111 v 0 a 0.23,0.23 0 0 0 0.032,0.1 c 0.006,0.008 0.011,0.013 0.016,0.013 a 0.359,0.359 0 0 0 0.043,-0.118 h 0.006 C 12.881,21.09 12.843,21.2 12.828,21.2 Z m 0.073,-0.286 c -0.006,0.061 -0.016,0.087 -0.027,0.076 a 0.046,0.046 0 0 1 -0.011,-0.022 c 0,-0.009 -0.006,-0.018 -0.01,-0.027 -0.004,-0.009 -0.011,-0.006 -0.02,0 -0.009,0.006 -0.012,0.011 -0.015,0.006 v -0.007 c -0.014,-0.015 -0.021,0.05 -0.008,0.093 v 0 c -0.016,-0.038 -0.008,-0.112 0.007,-0.1 v 0.007 a 0.03,0.03 0 0 0 0.015,-0.006 c 0.009,-0.006 0.014,-0.009 0.02,0 0.006,0.009 0.007,0.018 0.01,0.027 a 0.057,0.057 0 0 0 0.011,0.022 c 0.011,0.011 0.021,-0.015 0.027,-0.076 a 0.2,0.2 0 0 0 0,-0.055 v 0 a 0.2,0.2 0 0 1 0.005,0.059 z m -0.312,-0.862 a 1.066,1.066 0 0 1 0.45,0.614 1.082,1.082 0 0 0 -0.445,-0.617 z m 0.456,0.3 a 1.332,1.332 0 0 1 -0.107,-0.119 1.275,1.275 0 0 0 -0.347,-0.272 c -0.024,-0.014 -0.043,-0.04 -0.067,-0.052 l -0.013,-0.011 h -0.025 a 1.247,1.247 0 0 0 -1.128,0.094 l -0.064,0.012 a 1.364,1.364 0 0 0 -0.124,0.07 0.05,0.05 0 0 1 -0.019,0.01 V 20.08 l 0.011,-0.019 a 0.933,0.933 0 0 1 0.257,-0.236 v 0 a 0.95,0.95 0 0 0 -0.24,0.22 l -0.011,0.019 v 0 a 0.056,0.056 0 0 0 0.017,-0.009 c 0.04,-0.025 0.082,-0.049 0.124,-0.07 l 0.05,-0.027 a 1.254,1.254 0 0 1 1.122,-0.1 1.421,1.421 0 0 0 -0.765,-0.1 c -0.19,0.027 -0.212,0.023 -0.119,-0.024 a 1.249,1.249 0 0 1 0.348,-0.1 1.525,1.525 0 0 1 0.331,0.012 1.053,1.053 0 0 1 0.148,0.032 0.423,0.423 0 0 0 0.058,0.017 1.313,1.313 0 0 1 0.355,0.228 0.258,0.258 0 0 0 0.034,0.039 1.276,1.276 0 0 1 0.148,0.18 c -0.01,-0.006 -0.01,0 -0.031,-0.017 a 1.209,1.209 0 0 0 -0.166,-0.117 c -0.018,-0.009 -0.07,-0.039 -0.115,-0.065 a 1.509,1.509 0 0 0 -0.173,-0.067 c 0.024,0.012 0.043,0.038 0.067,0.052 a 1.238,1.238 0 0 1 0.347,0.271 c 0.038,0.044 0.086,0.1 0.107,0.119 l 0.1,0.1 c 0.015,0.017 0.02,0.021 0.029,0.03 l 0.007,0.014 a 0.114,0.114 0 0 1 0.007,0.041 l -0.026,-0.024 c -0.009,-0.01 -0.012,-0.01 -0.03,-0.029 A 1.336,1.336 0 0 0 13.045,20.353 Z M 13.1,21 a 0.275,0.275 0 0 1 -0.014,-0.094 c 0,-0.025 -0.008,-0.05 -0.012,-0.075 0,0.028 0.018,0.053 0.019,0.082 A 0.2,0.2 0 0 0 13.1,20.99 Z m 0.145,0.32 0.015,-0.009 c -0.123,0.006 -0.158,0 -0.158,-0.011 0,-0.011 0.009,-0.015 0.082,-0.017 a 0.273,0.273 0 0 0 0.07,0 c 0.01,-0.011 0.124,0 0.124,0.014 0,0.014 -0.014,0.021 -0.13,0.026 z m 0.149,-0.3 a 0.129,0.129 0 0 0 -0.048,0 0.86,0.86 0 0 1 -0.134,0.007 c -0.071,0 -0.1,0 -0.111,-0.016 h 0.11 c 0.1,0 0.124,0 0.129,-0.034 0.005,-0.034 0,-0.051 0,-0.076 -0.009,-0.1 -0.014,-0.28 -0.011,-0.311 a 1.9,1.9 0 0 1 0.017,0.2 c 0.012,0.2 0.019,0.228 0.055,0.23 z m -0.012,-1.356 a 0.016,0.016 0 0 1 -0.008,-0.01 V 19.47 c 0,-0.015 0.007,-0.031 0.011,-0.046 0.004,-0.015 0.006,-0.01 0.007,0 v 0 a 0.122,0.122 0 0 1 0,0.027 v 0.175 a 0.016,0.016 0 0 0 0.008,0.01 0.111,0.111 0 0 0 0.054,-0.01 c 0.141,-0.039 0.168,-0.05 0.194,-0.078 a 0.1,0.1 0 0 1 0.025,-0.02 c 0.025,0 0.111,-0.085 0.15,-0.139 v 0 c -0.026,0.049 -0.137,0.159 -0.165,0.159 a 0.086,0.086 0 0 0 -0.026,0.02 c -0.026,0.028 -0.053,0.039 -0.193,0.078 a 0.122,0.122 0 0 1 -0.054,0.016 z m 4.55,1.711 0.011,-0.009 h -0.021 c 0.213,0 0.388,-0.007 0.391,-0.009 a 0.027,0.027 0 0 1 0.03,0 2.571,2.571 0 0 1 -0.408,0.016 z m 0.466,0 0.011,-0.008 h 0.006 z m 0,-0.013 0.011,-0.008 h 0.006 z m 0.069,-0.408 a 0.967,0.967 0 0 0 -0.014,0.2 l 0.011,-0.008 c 0,0.126 0.014,0.116 -0.135,0.116 -0.19,0 -0.288,-0.011 -0.206,-0.023 0.056,-0.009 0.051,-0.016 -0.012,-0.016 -0.063,0 -0.09,0 -0.085,0.019 0.005,0.019 -0.026,0.022 -0.064,0.027 a 0.115,0.115 0 0 1 -0.033,0.006 h -0.627 c -0.917,0.012 -1.715,0.021 -3.445,0.037 a 2.342,2.342 0 0 1 -0.443,0 c -0.018,-0.022 0,-0.023 0.542,-0.027 l 0.784,-0.007 0.647,-0.007 c 0.219,0 0.43,0 0.47,-0.007 0.04,-0.007 0.322,-0.006 0.626,-0.009 l 0.714,-0.01 0.429,-0.007 c 0.3,0 0.329,-0.007 0.332,-0.026 a 0.2,0.2 0 0 1 0.079,-0.09 2.125,2.125 0 0 0 0.16,-0.155 l 0.1,-0.1 0.01,-0.011 a 0.1,0.1 0 0 1 0.022,-0.018 0.427,0.427 0 0 1 0.138,0.008 c 0.009,0.006 0.01,0.028 0.003,0.105 z m 0.65,-0.39 -0.019,-0.022 -0.043,-0.034 c -0.029,-0.036 -0.04,-0.054 -0.04,-0.064 0,-0.01 0.036,-0.056 0.047,-0.056 a 0.08,0.08 0 0 0 0.029,-0.023 0.345,0.345 0 0 1 0.054,-0.046 l 0.039,-0.029 a 0.813,0.813 0 0 0 -0.132,0.066 1.583,1.583 0 0 0 -0.145,0.162 c 0,0.015 -0.023,0.029 -0.03,0.018 -0.007,-0.011 -0.046,0.014 -0.046,0.046 a 0.081,0.081 0 0 1 -0.019,0.034 0.473,0.473 0 0 0 -0.066,0.2 0.1,0.1 0 0 1 -0.021,0.039 0.138,0.138 0 0 0 -0.023,0.135 l 0.01,0.016 c 0.011,0.01 0.022,0 0.038,-0.024 0.016,-0.024 0.022,-0.027 0.026,-0.02 a 0.157,0.157 0 0 1 -0.019,0.1 c -0.023,0.054 -0.048,0.072 -0.059,0.051 a 0.063,0.063 0 0 1 -0.007,-0.036 0.048,0.048 0 0 0 0,-0.017 0.089,0.089 0 0 1 -0.007,-0.03 V 21 a 0.2,0.2 0 0 1 -0.014,-0.076 0.944,0.944 0 0 1 0.057,-0.349 1.136,1.136 0 0 1 0.083,-0.163 0.232,0.232 0 0 0 0.021,-0.038 1.187,1.187 0 0 1 0.207,-0.212 0.445,0.445 0 0 0 0.048,-0.032 1.055,1.055 0 0 1 0.17,-0.08 0.2,0.2 0 0 0 0.039,-0.014 0.7,0.7 0 0 1 0.209,-0.04 0.8,0.8 0 0 1 0.138,0 h 0.094 l 0.027,0.006 0.033,0.009 h 0.016 c 0.043,0.013 0.064,0.05 0.1,0.068 a 0.8,0.8 0 0 0 -0.134,-0.051 l -0.063,-0.016 a 1.554,1.554 0 0 0 -0.226,-0.01 l -0.067,0.01 a 0.4,0.4 0 0 0 -0.123,0.029 0.106,0.106 0 0 1 -0.034,0.012 0.942,0.942 0 0 0 -0.169,0.082 0.1,0.1 0 0 1 -0.025,0.016 0.927,0.927 0 0 0 -0.158,0.142 0.071,0.071 0 0 1 -0.019,0.023 0.247,0.247 0 0 0 -0.048,0.068 0.245,0.245 0 0 1 -0.024,0.038 0.082,0.082 0 0 0 -0.015,0.036 c 0,0.009 0,0.015 0.008,0.012 a 0.592,0.592 0 0 0 0.052,-0.059 0.5,0.5 0 0 1 0.079,-0.081 c 0.019,-0.014 0.062,-0.05 0.094,-0.08 a 0.249,0.249 0 0 1 0.081,-0.059 0.116,0.116 0 0 0 0.04,-0.016 0.889,0.889 0 0 1 0.123,-0.052 c -0.023,0.009 -0.049,0 -0.071,0.015 -0.06,0.027 -0.1,0.035 -0.1,0.022 a 0.158,0.158 0 0 1 0.069,-0.047 0.027,0.027 0 0 0 0.02,-0.009 0.167,0.167 0 0 1 0.08,-0.036 0.025,0.025 0 0 0 0.018,-0.006 0.341,0.341 0 0 1 0.137,-0.033 l 0.076,-0.01 a 1.05,1.05 0 0 1 0.177,0.009 0.389,0.389 0 0 1 0.047,0.009 l 0.009,0.016 h -0.012 c -0.041,0 -0.081,0 -0.121,0 a 0.66,0.66 0 0 0 -0.077,0.017 0.563,0.563 0 0 1 0.059,0 0.513,0.513 0 0 1 0.308,0.07 c 0.03,0.029 0.032,0.029 0.049,0.016 a 0.06,0.06 0 0 1 0.035,-0.01 c 0.009,0 0.01,0 0.01,-0.007 a 0.849,0.849 0 0 1 0.238,0.155 l 0.006,0.009 0.026,0.036 0.042,0.066 c 0.016,0.023 0.015,0.031 0,0.031 -0.015,0 -0.02,0.011 -0.006,0.03 0.014,0.019 0.013,0.048 0.007,0.048 a 0.04,0.04 0 0 1 -0.028,-0.019 l -0.008,-0.014 c -0.005,-0.009 -0.011,-0.018 -0.017,-0.027 a 0.023,0.023 0 0 1 -0.009,-0.031 l 0.009,-0.009 a 0.023,0.023 0 0 0 0.012,-0.015 0.03,0.03 0 0 0 -0.007,-0.015 c -0.012,-0.012 -0.013,-0.012 -0.013,0 0,0.012 -0.023,0.023 -0.054,-0.009 -0.055,-0.059 -0.054,-0.058 -0.082,-0.058 -0.028,0 -0.034,-0.006 -0.064,-0.028 l -0.066,-0.046 a 0.446,0.446 0 0 1 -0.056,-0.041 0.111,0.111 0 0 0 -0.045,-0.022 0.164,0.164 0 0 1 -0.049,-0.01 1.092,1.092 0 0 0 -0.162,-0.008 0.1,0.1 0 0 1 0.013,0.009 l 0.014,0.029 a 0.737,0.737 0 0 0 0.029,0.078 0.461,0.461 0 0 0 0.04,0.107 c 0.013,0.015 0.025,-0.006 0.053,-0.054 0.066,-0.113 0.071,-0.117 0.115,-0.089 a 0.053,0.053 0 0 1 0.014,0.012 c 0.015,0.018 0,0.047 -0.078,0.165 l -0.105,0.164 0.053,-0.086 c 0.019,-0.035 0.055,-0.092 0.079,-0.126 a 0.221,0.221 0 0 0 0.043,-0.074 0.019,0.019 0 0 0 -0.011,-0.016 c -0.018,-0.01 -0.019,-0.009 -0.027,0.012 -0.008,0.021 -0.009,0.018 -0.015,0.016 -0.006,-0.002 -0.024,0.015 -0.065,0.086 -0.041,0.071 -0.051,0.082 -0.117,-0.107 A 0.145,0.145 0 0 0 19.684,20.243 H 19.68 a 0.356,0.356 0 0 0 0.033,0.1 l 0.042,0.114 a 0.076,0.076 0 0 0 0.02,0.036 0.018,0.018 0 0 1 0.007,0.017 0.757,0.757 0 0 1 -0.089,0.163 l -0.076,0.124 h -0.028 c -0.035,0 -0.031,0.009 -0.119,-0.142 -0.057,-0.1 -0.072,-0.128 -0.069,-0.148 v -0.015 c 0.006,-0.01 0.022,-0.059 0.067,-0.2 0.009,-0.028 0.012,-0.046 0.009,-0.049 -0.003,-0.003 -0.016,0.021 -0.026,0.042 a 0.106,0.106 0 0 0 -0.011,0.03 0.72,0.72 0 0 1 -0.047,0.135 c -0.012,0.01 -0.018,0 -0.06,-0.062 a 0.379,0.379 0 0 0 -0.058,-0.074 c -0.011,-0.008 -0.019,-0.018 -0.019,-0.023 0,-0.005 -0.027,-0.013 -0.037,0 l -0.007,0.011 c 0,0.014 0.011,0.034 0.045,0.079 0.052,0.069 0.088,0.127 0.225,0.332 a 0.71,0.71 0 0 0 0.09,0.121 c 0,0 -0.01,0.009 -0.014,0 -0.004,-0.009 -0.066,-0.1 -0.135,-0.2 -0.1,-0.147 -0.171,-0.257 -0.209,-0.3 -0.013,-0.015 -0.022,-0.023 -0.025,-0.023 a 0.108,0.108 0 0 0 -0.031,0.019 0.375,0.375 0 0 1 -0.036,0.024 c -0.025,0.008 0,0.059 0.09,0.168 l 0.041,0.05 0.042,0.051 c 0.023,0.029 0.044,0.055 0.054,0.069 l 0.043,0.055 0.012,0.015 0.022,0.027 0.017,0.022 0.008,0.009 c 0.006,0.007 0.009,0 0.022,0 0.013,0 0.019,-0.011 0.028,0 0.009,0.011 0,0.029 -0.017,0.032 -0.017,0.003 -0.012,0 0,0.027 a 0.036,0.036 0 0 1 -0.006,0.054 c 0,0 0,-0.008 -0.007,-0.008 v 0 a 2.42,2.42 0 0 0 -0.22,-0.294 c -0.038,-0.045 -0.09,-0.112 -0.117,-0.149 -0.05,-0.069 -0.06,-0.076 -0.081,-0.053 l -0.008,0.012 0.01,0.011 a 0.151,0.151 0 0 1 0.018,0.026 0.365,0.365 0 0 0 0.055,0.074 c 0.032,0.037 0.05,0.057 0.047,0.069 -0.003,0.012 -0.036,0.016 -0.12,0.018 -0.067,0 -0.1,0.006 -0.107,0.014 v 0.008 a 2.012,2.012 0 0 0 0.257,-0.014 c 0.016,-0.008 0.036,0.013 0.136,0.136 0.1,0.123 0.1,0.136 0.081,0.149 l 0.014,-0.007 a 0.034,0.034 0 0 1 0.014,-0.009 c 0,0 0.008,0 0.01,0.012 v 0 0 l -0.019,0.01 c -0.016,0.007 -0.06,0.02 -0.092,0.03 -0.032,0.01 -0.054,0 -0.092,0.016 l 0.072,-0.024 a 0.386,0.386 0 0 0 0.054,-0.019 l -0.066,0.02 -0.146,0.04 c -0.054,0.018 -0.071,0.021 -0.073,0.015 -0.002,-0.006 -0.033,-0.026 -0.048,-0.04 0.007,0.007 0.016,0.015 0.016,0.02 0,0.005 -0.032,0.022 -0.1,0.04 a 0.111,0.111 0 0 0 -0.036,0.018 c 0.021,-0.012 0,-0.027 0.04,-0.038 0.04,-0.011 0.069,-0.018 0.055,-0.035 a 0.4,0.4 0 0 0 -0.06,-0.049 0.607,0.607 0 0 1 -0.1,-0.082 c -0.029,-0.035 -0.019,-0.063 0.006,-0.146 0.025,-0.083 0.024,-0.08 0.058,-0.085 a 1.04,1.04 0 0 1 0.168,-0.017 c 0.053,0.004 0.06,0.004 0.023,-0.041 z m -0.022,-0.377 a 0.415,0.415 0 0 1 -0.067,0.052 c -0.014,0 0,-0.018 0.016,-0.034 a 0.091,0.091 0 0 1 0.044,-0.024 c 0,0.006 0,0.007 -0.006,0.014 z M 19.014,20.249 19,20.26 v 0.006 c -0.007,0.005 -0.011,0.006 -0.013,0 -0.002,-0.006 0,-0.007 0,-0.018 l 0.009,-0.006 H 19 Z m 1.322,0.294 0.006,0.01 c 0.006,0.009 0.006,0.018 0,0.023 -0.006,0.005 -0.016,-0.006 -0.024,-0.015 a 0.031,0.031 0 0 1 -0.009,-0.018 c 0.003,-0.016 0.015,-0.016 0.03,-0.003 z m -0.554,-0.067 a 0.013,0.013 0 0 1 -0.011,0 v -0.011 c 0,0 0.007,0 0.011,0 0.004,0 0.003,0.006 0.003,0.008 z m -0.153,0.316 c 0.008,-0.013 0.015,-0.026 0.024,-0.038 0.009,-0.012 0.038,-0.056 0.059,-0.088 l -0.007,0.011 c -0.031,0.051 -0.054,0.085 -0.073,0.112 z m 0.039,0.044 a 0.015,0.015 0 0 1 -0.014,0.016 0.015,0.015 0 0 1 -0.011,0 0.015,0.015 0 0 1 0,-0.022 h 0.011 0.008 z m -0.022,0.817 c 0,0.045 0.009,0.064 0.019,0.067 h -0.036 c 0,0 -0.006,-0.007 -0.01,-0.007 H 19.564 19.557 19.53 v -0.18 a 0.107,0.107 0 0 0 0.056,0.008 h 0.052 a 0.374,0.374 0 0 0 0,0.041 v 0.009 a 0.206,0.206 0 0 0 0.011,0.059 z m 0.006,-0.435 v -0.007 l 0.007,0.045 a 0.473,0.473 0 0 1 0,0.053 c 0.003,-0.033 -0.002,-0.069 -0.004,-0.094 z m -0.016,0.5 v 0 z m -0.1,-0.007 v 0 z m 0,-0.183 v -0.061 a 0.127,0.127 0 0 0 0,0.032 c 0.006,0.017 0.015,0.008 0.03,0.008 h 0.02 c 0,0 0,0.009 -0.027,0.011 -0.027,0.002 -0.025,0.007 -0.026,0.011 z m 0.049,-0.538 a 0.081,0.081 0 0 0 -0.031,0 0.021,0.021 0 0 1 -0.026,-0.009 0.034,0.034 0 0 1 -0.01,-0.044 h 0.013 a 0.18,0.18 0 0 1 0.1,-0.01 l 0.008,0.005 a 0.035,0.035 0 0 1 0,0.037 C 19.623,20.991 19.605,21 19.582,20.991 Z m -0.062,-0.105 a 0.019,0.019 0 0 1 0.015,0 h 0.013 l -0.006,0.009 -0.012,0.006 h -0.006 z m 0.066,-0.073 H 19.6 v 0.007 0 z m -0.2,-0.327 v 0 a 0.01,0.01 0 0 1 -0.008,0.01 v 0.048 L 19.366,20.524 C 19.353,20.51 19.348,20.5 19.351,20.496 h 0.016 v -0.019 h 0.01 a 0.011,0.011 0 0 1 0.012,0.009 z M 19.328,20.393 H 19.3 c 0,0.014 -0.072,-0.075 -0.074,-0.1 0,-0.008 0.016,-0.006 0.02,0.009 a 0.027,0.027 0 0 0 0.022,0.02 0.035,0.035 0 0 1 0.025,0.022 0.117,0.117 0 0 0 0.019,0.03 0.03,0.03 0 0 1 0.016,0.02 z m 0.124,0.376 a 0.012,0.012 0 0 1 -0.011,0.018 H 19.434 V 20.78 a 0.013,0.013 0 0 1 0.013,-0.013 z m 0,0.241 a 0.021,0.021 0 0 1 -0.019,0.021 0.02,0.02 0 0 1 -0.015,-0.006 0.016,0.016 0 0 1 0,-0.024 L 19.427,21 c 0.012,0 0.021,0 0.024,0.006 z m -0.258,0.007 a 0.184,0.184 0 0 0 0.052,-0.01 v 0 l -0.019,0.006 a 0.191,0.191 0 0 1 -0.052,0.01 h -0.018 l 0.019,-0.011 a 0.282,0.282 0 0 1 0.051,-0.019 v 0 a 0.267,0.267 0 0 0 -0.036,0.014 l -0.019,0.011 z m -0.288,0.295 c -0.008,-0.028 0,-0.036 0.125,-0.087 0.147,-0.062 0.154,-0.066 0.1,-0.061 h -0.04 l -0.013,-0.022 a 0.1,0.1 0 0 1 -0.013,-0.037 c 0,-0.009 0,-0.013 -0.014,-0.013 a 0.558,0.558 0 0 0 -0.091,0.026 c -0.083,0.03 -0.1,0.033 -0.114,0.015 -0.014,-0.018 0.028,-0.017 0.028,-0.027 0.006,0.013 0.013,0.021 0.069,0 a 1.382,1.382 0 0 1 0.219,-0.066 c 0.088,-0.021 0.151,-0.04 0.2,-0.057 v 0 c -0.034,0.01 -0.065,0.021 -0.08,0.027 -0.015,0.006 -0.012,0.019 -0.012,0.041 0,0.022 0,0.035 -0.022,0.045 -0.022,0.01 -0.045,0.032 -0.033,0.032 l 0.023,-0.008 0.022,-0.008 0.1,-0.046 c 0.109,-0.049 0.151,-0.061 0.168,-0.04 a 0.075,0.075 0 0 1 0.01,0.032 0.042,0.042 0 0 0 0,0.016 h -0.007 v 0.108 a 1.853,1.853 0 0 1 -0.007,0.2 c 0,0.033 0,0.053 0,0.071 v -0.067 c 0,-0.012 0,-0.024 0,-0.036 0,0.02 0,0.031 -0.006,0.031 -0.006,0 0,-0.011 -0.006,-0.03 v -0.035 h 0.012 v -0.081 0.049 -0.138 -0.031 -0.055 h -0.009 v -0.006 c -0.013,-0.008 -0.041,0 -0.193,0.07 -0.073,0.032 -0.364,0.15 -0.389,0.158 a 0.02,0.02 0 0 0 -0.014,0.018 0.027,0.027 0 0 0 0.008,0.023 h 0.022 a 0.031,0.031 0 0 1 0.023,-0.006 0.333,0.333 0 0 0 0.081,-0.026 c 0.043,-0.018 0.036,0 0.051,0 -0.135,0.053 -0.177,0.068 -0.192,0.052 a 0.046,0.046 0 0 1 -0.005,-0.03 z m 0.621,-0.247 v 0 0.017 z m -0.364,0.589 a 0.334,0.334 0 0 1 -0.056,-0.05 c -0.011,-0.012 -0.014,-0.02 0,-0.015 0.029,0.011 0.037,0.012 0.027,0 l -0.016,-0.017 a 0.1,0.1 0 0 1 -0.021,-0.021 c -0.008,-0.01 -0.009,-0.016 -0.006,-0.024 a 0.22,0.22 0 0 0 0.006,-0.037 0.91,0.91 0 0 1 0.025,-0.107 0.312,0.312 0 0 0 0.02,-0.1 c 0,0.005 0.027,-0.01 0.026,0 a 0.079,0.079 0 0 1 -0.007,0.034 0.153,0.153 0 0 0 -0.007,0.036 0.5,0.5 0 0 0 0.032,-0.115 c 0,-0.027 0.009,-0.033 0.057,-0.055 l 0.145,-0.068 c 0.065,-0.031 0.093,-0.043 0.109,-0.04 0.016,0.003 0.016,0 0.017,0.016 v -0.031 0 0.415 a 0.275,0.275 0 0 1 0,0.081 c 0,0.036 -0.009,0.081 -0.01,0.1 a 0.338,0.338 0 0 1 0,0.045 c 0,0 0,0.007 0.011,0.009 h -0.014 v 0 0 H 19.47 a 0.42,0.42 0 0 1 -0.086,-0.006 0.393,0.393 0 0 0 -0.084,0 h -0.016 l 0.024,0.013 a 0.651,0.651 0 0 1 -0.144,-0.062 z m 0.168,0.079 0.013,-0.008 a 0.674,0.674 0 0 0 0.237,0.009 h 0.036 a 0.721,0.721 0 0 0 0.147,0.006 0.142,0.142 0 0 1 0.035,-0.011 l 0.073,-0.026 a 0.676,0.676 0 0 0 0.318,-0.218 0.739,0.739 0 0 1 -0.858,0.249 z m 0.4,-0.169 a 0.4,0.4 0 0 1 0,-0.069 c 0,-0.025 0.011,-0.028 0.029,-0.017 a 1.238,1.238 0 0 1 0.148,0.1 0.039,0.039 0 0 0 0.03,0.014 c 0.011,0 0.02,0 0.022,0.009 0.002,0.009 0.025,0 0.043,-0.01 -0.02,0.013 -0.04,0.025 -0.061,0.036 -0.021,0.011 -0.02,0.011 -0.03,0.017 v 0 c -0.029,0.013 -0.059,0.024 -0.089,0.034 -0.03,0.01 -0.014,0.01 -0.024,0.016 -0.01,0.006 -0.044,0.009 -0.067,0.012 0,0 0.01,0 0.011,-0.009 V 21.68 a 0.018,0.018 0 0 1 0.006,-0.015 V 21.65 a 0.485,0.485 0 0 1 -0.021,-0.085 z m -0.008,-0.1 v 0 l 0.011,-0.007 c 0,0 -0.004,0.013 -0.014,0.013 z m 0,0 h -0.006 v 0 a 0.008,0.008 0 0 1 0.009,-0.007 v 0 c -0.012,0.006 -0.009,0.008 -0.009,0.011 z m 0.5,-0.012 a 0.3,0.3 0 0 0 -0.051,0.049 c -0.036,0.038 -0.087,0.044 -0.128,0.074 0.043,-0.035 0.077,-0.067 0.077,-0.077 0,-0.01 -0.034,0 -0.1,0.045 -0.066,0.045 -0.073,0.042 -0.115,0.013 -0.019,-0.013 -0.039,-0.026 -0.059,-0.037 a 0.453,0.453 0 0 1 -0.123,-0.09 0.055,0.055 0 0 1 -0.016,-0.018 v 0.071 a 0.492,0.492 0 0 0 0.01,0.094 0.351,0.351 0 0 1 0.01,0.129 v 0 a 0.324,0.324 0 0 0 -0.009,-0.12 0.423,0.423 0 0 1 -0.009,-0.1 2.527,2.527 0 0 0 -0.022,-0.275 v -0.052 -0.01 a 0.127,0.127 0 0 1 0,-0.067 c 0,-0.013 0.017,-0.016 0.035,-0.012 h 0.014 a 0.076,0.076 0 0 0 0,0.026 v 0 c 0,-0.019 0.01,-0.021 0.017,-0.028 h 0.01 -0.008 c 0,0 0.008,-0.009 0.015,-0.008 l -0.006,-0.015 a 0.025,0.025 0 0 0 -0.025,0.013 l -0.013,-0.009 c -0.027,-0.014 -0.025,0 -0.035,0 -0.01,0 -0.022,0.039 -0.029,0.034 -0.007,-0.005 -0.006,-0.016 0,-0.026 h -0.01 a 0.362,0.362 0 0 0 0,0.093 v 0.117 a 1.536,1.536 0 0 0 -0.025,-0.191 v 0 c 0,-0.012 0.005,-0.012 0,-0.026 -0.005,-0.014 0.016,-0.043 0.053,-0.042 0.037,10e-4 0.032,0 0.032,-0.008 0,-0.008 0,-0.008 0.008,-0.011 h 0.019 a 0.017,0.017 0 0 1 0,0.017 v 0.015 a 0.171,0.171 0 0 0 0.045,0.022 c 0.021,0.012 0.034,0.02 0.034,0.023 h -0.035 a 0.526,0.526 0 0 1 0.119,0.039 c 0.063,0.022 0.118,0.042 0.122,0.042 a 0.086,0.086 0 0 1 0.06,0.045 c 0.009,0.036 0.015,0.042 0.028,0.03 0.013,-0.012 0.016,-0.01 0.084,0.016 a 0.43,0.43 0 0 0 0.095,0.026 0.124,0.124 0 0 1 0.016,0 v 0.006 0 h 0.008 c 0,0.007 0.011,0 0.017,-0.009 a 0.177,0.177 0 0 1 -0.009,0.061 l 0.013,-0.008 a 0.7,0.7 0 0 1 -0.125,0.143 z m 0.006,-0.23 h 0.018 l 0.014,0.005 v 0 a 0.028,0.028 0 0 1 -0.025,-0.006 z m 0.092,0.022 a 0.018,0.018 0 0 0 -0.011,-0.01 c 0.006,-0.011 0.014,-0.027 0.016,-0.023 0.002,0.004 -0.016,0.026 -0.016,0.037 z m -0.062,-0.143 v 0 c -0.108,-0.031 -0.242,-0.067 -0.4,-0.109 -0.119,-0.031 -0.174,-0.048 -0.188,-0.07 -0.014,-0.022 0,-0.037 0.031,-0.07 0.031,-0.033 0.042,-0.053 0.034,-0.063 -0.008,-0.01 0,-0.016 0.015,-0.012 a 1.134,1.134 0 0 0 0.275,-0.333 0.37,0.37 0 0 1 0.047,-0.065 c 0.014,-0.013 0.024,-0.009 0.04,0 l 0.011,0.011 c 0.02,0.025 0,0.058 -0.058,0.139 -0.024,0.031 -0.036,0.047 -0.03,0.055 0.006,0.008 0.037,0.008 0.094,0.009 a 0.8,0.8 0 0 1 0.109,0.008 0.026,0.026 0 0 0 0.021,0 0.025,0.025 0 0 1 0.019,0.01 0.431,0.431 0 0 1 0.063,0.159 l 0.007,0.03 -0.028,0.029 c -0.015,0.015 -0.059,0.054 -0.1,0.086 -0.041,0.032 -0.063,0.052 -0.058,0.062 0.005,0.01 0.023,0.011 0.056,0.019 a 0.256,0.256 0 0 1 0.126,0.055 0.036,0.036 0 0 1 0.005,0.041 c -0.034,0.03 -0.05,0.031 -0.102,0.013 z m 0.143,-0.228 h 0.009 a 0.186,0.186 0 0 1 -0.032,-0.075 0.465,0.465 0 0 0 -0.02,-0.08 c -0.007,-0.026 -0.012,-0.045 -0.013,-0.052 a 0.058,0.058 0 0 1 0.01,0.021 0.221,0.221 0 0 0 0.014,0.041 0.174,0.174 0 0 0 0.032,0.072 l 0.019,0.021 0.018,0.02 a 0.056,0.056 0 0 1 0.017,0.038 c -0.015,0.038 -0.041,0.026 -0.065,-0.002 z m 0.035,-0.6 -0.015,-0.02 -0.032,-0.042 a 1.093,1.093 0 0 0 -1.514,-0.106 1.145,1.145 0 0 0 -0.367,0.626 l 0.011,-0.008 c -0.009,0.052 -0.02,0.069 -0.046,0.073 l -0.078,0.01 a 0.257,0.257 0 0 0 -0.078,0.021 c -0.022,0.014 -0.078,0.02 -0.082,0.008 l -0.007,-0.014 c 0.006,0 0.023,0 0.023,0.008 0,0.008 0.014,0.016 0.04,0 A 0.92,0.92 0 0 1 18.44,20.79 c 0.029,-0.006 0.033,-0.012 0.047,-0.074 a 1.181,1.181 0 0 1 0.416,-0.663 c 0.028,-0.022 0.059,-0.049 0.07,-0.06 0.011,-0.011 0.022,-0.019 0.029,-0.017 A 0.324,0.324 0 0 0 19.091,19.941 1.1,1.1 0 0 1 20.4,20.2 c 0.03,0.035 0.049,0.057 0.056,0.063 0.007,0.006 -0.022,0.024 -0.03,0.015 z m 0.027,-0.193 a 0.034,0.034 0 0 1 -0.02,0 0.154,0.154 0 0 1 -0.047,-0.033 1.241,1.241 0 0 0 -0.285,-0.184 1.258,1.258 0 0 0 -0.992,-0.031 0.191,0.191 0 0 1 -0.05,0.019 c -0.007,0 0,-0.008 0,-0.026 V 19.81 a 0.207,0.207 0 0 0 0.047,-0.018 1.258,1.258 0 0 1 0.992,0.031 1.24,1.24 0 0 1 0.289,0.186 0.162,0.162 0 0 0 0.043,0.031 0.031,0.031 0 0 0 0.019,0 h 0.023 l 0.036,0.018 c 0.025,0.01 0.039,0.01 0.045,0 v 0.01 a 0.031,0.031 0 0 1 0,0.019 c 0,0.026 -0.011,0.031 -0.045,0.013 A 0.222,0.222 0 0 1 20.478,20.08 Z M 6.466,19.683 H 6.464 v 1.639 H 6.976 V 20.785 L 6.978,19.681 H 6.466 Z m 6.001,2.212 h 0.982 v 0.097 H 12.467 Z M 6.473,18.252 v 0.761 H 6.964 L 6.966,18.252 H 6.964 Z M 6.317,21.526 H 7.142 V 19.507 H 6.317 Z m 0.08,-1.905 h 0.646 v 1.794 H 6.4 Z"/>

</svg>