<svg xmlns="http://www.w3.org/2000/svg" viewBox="0 0 24 24"><path fill="#44739e" d="M12.483 21.061c.006.014.02.017.032 0s.039 0 .073 0a.3.3 0 0 0-.071-.006c-.009.008-.026.01-.032 0a.4.4 0 0 0-.146-.059l-.032-.007.032.007a.4.4 0 0 1 .144.065m6.851-.705.028.044c.021.028.025.017.037-.027l.025-.083.015-.046v-.018c0-.011 0-.015-.013-.015a.4.4 0 0 0-.09.026l-.036.017q-.03.014-.022.029l.01.006c.006.007.026.036.046.067m-6.843 1.061-.001-.001Zm-.186-.425h-.002Zm.172.4-.002-.006-.006.006Zm-.237-.396a.14.14 0 0 1 .063 0c-.035-.009-.063-.009-.063 0m-.666-.002v-.002l-.015-.006Zm-.039-.027a1 1 0 0 1-.1-.079l-.043-.034a.1.1 0 0 1-.026-.019.1.1 0 0 0 .027.02l.043.034a1 1 0 0 0 .1.079l.009.007.014.009-.015-.012Zm.098-.115a.03.03 0 0 1 .006.016v.028l-.01.008a.04.04 0 0 0-.006.019.034.034 0 0 0 .034.036c.014 0 .014 0 0-.037l-.013-.025h.01a.026.026 0 0 0 .007-.036q-.018-.02-.026-.01Zm-.044-.047-.007.015v.025a1 1 0 0 0-.008.1v.051h.009v-.05a1 1 0 0 1 .008-.1v-.025l.007-.015.015-.039c.021-.055.033-.075.021-.081h-.009c.011.006 0 .026-.021.08Zm.732.281h-.013a.2.2 0 0 1-.048-.034v-.006l-.014-.018a.04.04 0 0 1-.006-.032.04.04 0 0 0 .006.027l.017.018v.006a.2.2 0 0 0 .048.034h.013c.081.032.263.095.308.107.015 0 .023 0 .028-.01 0 .007-.013.01-.027.009a2.4 2.4 0 0 1-.312-.101m.359.01-.014.054q-.002.017-.01.034c0-.012.008-.024.011-.036l.014-.054a.2.2 0 0 0-.082-.027.2.2 0 0 1 .081.029m-.758-.182c0-.01 0-.01-.01-.01l.011.015Zm-.533-.195a.4.4 0 0 1-.017.063c-.011.031-.015.042-.007.052-.006-.01 0-.02.007-.05l.017-.063.007-.025.043-.01h.057a1 1 0 0 1 .125 0 1 1 0 0 0-.134 0h-.1Zm.706.336-.011.011h.019a.03.03 0 0 0 .017-.01h-.009a.02.02 0 0 0-.016-.001m.175-.715-.002.003Zm-.167-.087-.001-.003Zm.38.149c0-.006-.016-.008-.016 0v.011c-.006 0-.009-.011-.016 0a2 2 0 0 1-.129.2.2.2 0 0 0-.024.037s0 .006.014-.009.019-.015.158-.015c.116 0 .141 0 .141-.01s-.005-.007-.018-.009a1.3 1.3 0 0 1-.215 0l-.011.007.005-.007h-.013a.014.014 0 0 1 0-.019l.009-.008a.4.4 0 0 0 .039-.043l.013-.016c.008-.013.013-.013.013-.013l-.015.026-.012.019-.014.022c.024-.031.072-.105.106-.162v-.01c-.003-.013-.01.005-.015-.001m-.388-.148h.009c.003 0-.008-.005-.009 0m.373.342h-.064Zm-.493 1.093v.013-.006s.024-.011.066-.011.059 0 .06.007a.2.2 0 0 0-.062-.007q-.065-.007-.064.004m.064.013a.2.2 0 0 1-.063 0 .2.2 0 0 0 .064 0c.067 0 .069 0 .064-.017-.002.011-.009.011-.065.017m.049-.073h-.1v-.033a2.5 2.5 0 0 1 .023-.429 2.5 2.5 0 0 0-.023.435v.029h.107Zm.316-1.033c-.016 0-.017-.011-.013-.023a.1.1 0 0 0-.019.03h.006Zm.191.011h.01a.5.5 0 0 0-.1-.008h-.033a.1.1 0 0 0 .035.007Zm-.589.343s0 .009.025.013h.012c.005 0 .021 0 .024-.006 0-.011-.056-.009-.068 0h.008Zm7.423-.878-.041.009-.048.012c-.021.006-.039.018-.059.025a.8.8 0 0 1 .252-.053 1 1 0 0 0-.104.007m-5.689-1.05.019-.051a.15.15 0 0 1 .036-.059 1.4 1.4 0 0 0-.2.156.2.2 0 0 0 .1-.025Zm1.677.114-.318.019a21 21 0 0 0-.764.049l.3-.02.377-.023.445-.026.5-.029.165-.009h-.035c-.125 0-.326.017-.67.039m3.54 1.77.022.018c-.03-.025-.058-.054-.09-.077a.3.3 0 0 0 .068.059m-5.139-1.69c.029.011.03.011.067-.006l.045-.018q.02-.002 0-.029c-.027-.041.038-.053.087-.016.03.023.045.024.067.006s.093-.021.106 0l.008.013.067-.005v-.064l.009-.125v-.068l-.035-.063v-.058l.043-.038c-.031 0-.046 0-.05-.011s0-.017.017-.031l.006-.007a.4.4 0 0 0-.053.025c-.053.028-.069.04-.059.053a.04.04 0 0 0 .018.015.1.1 0 0 1 .021.022c.046.058.06.174.007.145a.2.2 0 0 0-.055-.007h-.039l-.006-.016h.091v-.036a.1.1 0 0 0-.015-.053.04.04 0 0 0-.013-.014.1.1 0 0 0-.029-.007.4.4 0 0 0-.091.017.01.01 0 0 0-.01.006v-.016c.006-.013.005-.008 0-.01a.4.4 0 0 0-.176.087.2.2 0 0 0-.054.1c0 .024-.007.028-.024.031s-.04.021-.037.028h.009a.02.02 0 0 1-.013.007h-.012a.3.3 0 0 0-.146.028c-.037.014-.1.088-.088.1a1 1 0 0 0 .122 0 .5.5 0 0 1 .215.015m.4-.17c0 .007-.009.01-.042.011-.06 0-.088 0-.094-.007a.3.3 0 0 1 .132-.004Zm-.143-.2.044-.01c.01 0 .029.01.027.018a.2.2 0 0 1-.1 0l.025-.008Zm-.054.008q0 .01.021.021a.1.1 0 0 1-.026-.017Zm-.2.217q.016-.008.012-.02a.02.02 0 0 1 .022-.023h.01l.007.008v.015a.03.03 0 0 0 .005.017l.017.014.02.017c.015.017 0 .026-.054.026-.022 0-.033 0-.04-.011l-.01-.021q-.008-.015.007-.022Zm.288-.267-.044.009a.1.1 0 0 0-.031.011.2.2 0 0 0 .1 0c.001-.011-.015-.027-.025-.02m5.464 1.343h.095-.007a.4.4 0 0 0-.088 0m-.434.762c-.008 0-.017.018-.011.024s.017 0 .017-.014-.006-.01-.006-.01m-.545-1.907h.156Zm.825 1.928v-.003l-.005.003Zm-.189-.69a1 1 0 0 1 .191-.067.03.03 0 0 0 .022-.007l.016-.006.016-.005a.4.4 0 0 1 .091-.008h.007a1 1 0 0 0-.137-.007.8.8 0 0 0-.206.1m-7.677.317a.2.2 0 0 1-.037-.054.4.4 0 0 0 .037.054m-.157.119a.13.13 0 0 0 .062 0l.112-.009h-.03a1 1 0 0 1-.134.006v-.006Zm.332.162a.2.2 0 0 0-.013.074.2.2 0 0 1 .013-.066l.025-.035c.011-.016.033-.013.051 0a.1.1 0 0 1 .031.06v-.008a.1.1 0 0 0-.022-.042l-.016-.018c-.016-.009-.035-.014-.044 0Zm-.175-.281.007.01.006.009-.006-.01Zm-.143.11.005-.001Zm.425.217v.012s.005.01.01-.007.012 0 .019 0v-.008h-.015a.01.01 0 0 1-.014.003m-.239-.255q0-.012-.036-.052a.1.1 0 0 1 .036.052m-.263.187-.006.019Zm.952-.463a.4.4 0 0 0-.064.1c-.023.044-.038.045-.051.012q.019.062.054-.008a.4.4 0 0 1 .063-.1l.013-.017c0-.009.008 0 0-.009Zm-.279.597-.009.002Zm-.648-.247s0-.012-.005 0a.3.3 0 0 0-.019.055l-.007.047v.008c0-.019.009-.037.017-.064s.011-.031.014-.046m.104.246a.5.5 0 0 0-.077-.052l.065.05.025.018.067.057a.03.03 0 0 0-.012-.026Zm-.104-.246v-.017.006Zm-.025.113a1 1 0 0 0 .034-.114c0-.014 0 0-.006 0v.015a1 1 0 0 1-.028.099m1.144.58v.01c0 .006.007.008.01.013l-.009-.024Zm-.457-.564c.014.008.036-.007.037-.025-.004.004-.023.033-.037.025m-.624.505q0-.01.028-.008a.2.2 0 0 0 .09-.029.2.2 0 0 1 .068-.025h-.01a.2.2 0 0 0-.062.023.2.2 0 0 1-.09.029.04.04 0 0 0-.028.008.3.3 0 0 0 .054.083c.038.046.075.1.09.088a.4.4 0 0 1-.082-.082.3.3 0 0 1-.058-.087m.158.116q.01-.05.023-.1l.019-.084c.002-.017-.013 0-.014 0l-.018.076-.019.079c0 .008-.024 0-.036-.012h.008c.029.023.036.02.036.012l.019-.079.018-.076-.019.084c-.01.04-.017.066-.023.1 0 .01 0 .01.007.01q.01-.001.019-.034-.009.03-.018.032c-.006 0-.003.002-.002-.008m.068-.205v-.058l-.021.022-.013.018v.008l.019.012h.016a3 3 0 0 1-.042.181 2 2 0 0 0 .047-.2Zm-.113.183c0 .006-.006 0 0 .008.022.037.032.055.018.063l.008.006c.007 0 .008-.028-.018-.063Zm.47-.195c0-.01 0 0-.006.023v.053l.006-.065Zm-.006.076v.033-.007Zm-.314-.986.007-.006Zm-.246.97q.009-.009.021 0c.009.006.023 0 .076-.023a.1.1 0 0 1 .044-.012c-.007 0-.018 0-.046.007-.046.018-.067.029-.076.023q-.012-.009-.021 0a.014.014 0 0 1-.019 0s0 .009.007.01a.02.02 0 0 0 .014-.005m-.025-.013a.4.4 0 0 1 .072-.036c.025-.009.028-.013.048-.021l-.033.013a.3.3 0 0 0-.087.044m.517.193v.015Zm-.329.045c0 .023.115.1.129.082h.009c-.017.012-.106-.052-.118-.074 0 0-.02-.014-.02-.008m-.019-.256.006.006.002-.001Zm.388-.228-.011.009c-.006.007 0 .014.008.019q.014.006.016.04v.252c0 .042 0 .049-.015.058l-.062.049a.7.7 0 0 1-.138.1c.027 0 .062-.03.149-.1h.003v.01l.009-.007v.018a.1.1 0 0 1 .008.034v.042a.2.2 0 0 0 .011.073v.027c0 .02 0 .034.014.02v-.044a.5.5 0 0 1-.005-.175c.01-.034.009-.049 0-.034a.02.02 0 0 1-.015.007q-.007.002-.012.007l.035-.028c.012-.007.012-.022.012-.048v-.042c0-.014.008-.058.008-.089v-.011q-.008-.013-.006.023c0-.039.01-.083.01-.119v.047a1 1 0 0 0 .006-.092.1.1 0 0 0-.011-.05h.006a.02.02 0 0 0-.02.004m-.549.259s-.008 0-.007-.008v.01Zm.719.1q-.008-.091-.008-.183v.026a1 1 0 0 0 .008.157m-.29.322.028.008h.042a.2.2 0 0 0-.07-.008m.13-.032a.2.2 0 0 0 .006-.077v.007a.2.2 0 0 1-.006.07m.048-.881a.03.03 0 0 0 .018.026.03.03 0 0 1-.018-.026m-.271.791h-.018a.05.05 0 0 1 .027-.007l.014-.009a1 1 0 0 1 .143-.107 1 1 0 0 0-.138.1.04.04 0 0 1-.028.023m.006-.028c-.021 0-.039 0-.072-.024-.057-.033-.077-.039-.078-.024l.008.007c.008 0 .015-.006.058.018s.056.033.084.023m.081-.46-.123.051q-.068.025-.068.063v.005q0-.036.067-.062l.123-.051c.132-.053.131-.054.134.044v.052-.058c.001-.1.001-.1-.133-.044m.237.072a.05.05 0 0 1 .01.03v.074a1 1 0 0 1 .022.158v.187h.007v-.196c0-.046-.01-.117-.013-.164l-.009-.045v-.02a.05.05 0 0 0-.01-.03.1.1 0 0 0-.032-.009h-.02v.006h.015a.1.1 0 0 1 .03.009m-.043-.384h-.011v.008-.005Zm-.081.89v-.016a.03.03 0 0 0-.012-.017.02.02 0 0 1-.008-.016v-.009l.006-.029v-.058a.01.01 0 0 1 0-.01v.075l-.006.029v.009a.02.02 0 0 0 .008.016.03.03 0 0 1 .012.017v.019c0 .009.016.01.026 0v-.01h-.023Zm.031-.09v-.052a2 2 0 0 1 .007-.2v.021c0 .052-.006.105-.005.158Zm.15-1.375v-.001Zm.075.186a.6.6 0 0 1-.05-.124.3.3 0 0 0-.019-.048v-.006a.02.02 0 0 0 .006.015.3.3 0 0 1 .019.048.6.6 0 0 0 .05.124c.006.006.026-.025.07-.107q.017-.027.011-.037a.04.04 0 0 1-.009.03c-.052.08-.071.111-.078.105m-.518-.09-.004.003h.012Zm.443-.096v.008q.007-.009.035 0l.074.023q.035.009.041.018v-.007c0-.007-.018-.012-.043-.019l-.074-.023Zm-.279.354-.009-.029.007.024Zm.452-.269a.4.4 0 0 0-.051.073c-.023.042-.035.059-.046.058.013.009.026-.008.052-.055l.007-.01.02-.034h.005l.019-.027a.05.05 0 0 0 .018-.022c0-.006.01 0 .019-.006h-.025a.05.05 0 0 1-.018.023m-.453.187-.002-.002-.001.005Zm.262.692s-.011.01-.011.016l.011-.011Zm-.189.511a.4.4 0 0 1-.168-.045.1.1 0 0 1-.028-.017.1.1 0 0 0 .03.018.4.4 0 0 0 .168.045v-.011Zm.279-1.243c.009 0 .022 0 .048-.049l.035-.061-.02.029-.017.029c-.026.045-.031.049-.049.049h-.015v.01-.011Zm.11-.122-.025.008c.009-.012.025-.014.025-.008m.036-.028v-.014h-.009v.01a.02.02 0 0 0 .005.013.01.01 0 0 0 .004-.009m-.208-.02-.014-.03h-.005l.013.027.025.067c.023.064.034.089.047.09-.011-.007-.021-.031-.041-.087Zm-.006.072q.02.05.035.1a.1.1 0 0 0 .016.03.05.05 0 0 1 .012.034v.025c0 .008 0 0 .006 0v-.025a.05.05 0 0 0-.012-.034.1.1 0 0 1-.016-.03 1 1 0 0 0-.029-.105 1 1 0 0 1-.035-.1h-.012a1 1 0 0 0 .035.105m-.399-.005a.02.02 0 0 0-.026 0 .03.03 0 0 1 .023 0 .02.02 0 0 0-.022 0l.006.008c.022-.008.028 0 .066.055s.042.06.057.06.01.008.011.015v-.006c.005-.008 0-.018-.016-.018s-.019-.008-.032-.025c.006.006.012.009.014 0a.2.2 0 0 1-.044-.054c-.023-.036-.034-.049-.048-.051a.04.04 0 0 1-.017-.008l.012.008Zm.304-.154a.5.5 0 0 0-.117.006l-.015.025c.014 0 .027-.007.041-.008a.3.3 0 0 0 .063 0 .3.3 0 0 0 .084-.007.4.4 0 0 0-.132 0c.026-.003.049-.016.076-.016m-.197.353-.007-.024Zm-.067 1.079.083.029a.2.2 0 0 1 .065.028q-.007-.012-.067-.029l-.083-.029c-.027-.011-.038-.012-.048 0v.007c.012-.021.023-.02.05-.006m.066-1.118a.02.02 0 0 0-.006.013Zl.006-.017Zm.219.256c0-.008-.005-.008-.005-.008h-.013c-.018 0-.018.009-.018.009a.03.03 0 0 0 .03 0Zm-.212-.27a2 2 0 0 0 .073-.226 2 2 0 0 1-.073.225Zm.027-.11v.021l.006-.016c.006-.023 0-.033 0-.023Zm.037 1.233h-.006.009v-.062c0-.045 0-.063-.014-.058.011 0 .013.012.013.053Zm-.1-1.102-.019-.039a1 1 0 0 0-.057-.083.1.1 0 0 1-.027-.038h-.006s.006.016.033.046a1 1 0 0 1 .057.083l.019.034.018-.014.013-.01v-.006a.04.04 0 0 1-.013.016Zm-.04 1.179h.013a.1.1 0 0 0 .029.006l-.066-.028c.009.01.015.022.024.022m-.054-1.3a.2.2 0 0 1-.042-.07.2.2 0 0 0 .043.072c.023.031.058.082.077.113q.055.085.056.066 0 .017-.054-.064a2 2 0 0 0-.08-.117m-.011-.071-.007-.005h-.005l.008.003Zm.165.035a.5.5 0 0 1 .033-.094l.007-.007q.01-.001.008.006c0-.006 0-.006-.009-.006l-.007.007a.5.5 0 0 0-.033.094c-.025.075-.037.091-.054.081.018.01.031-.004.055-.081m-.054.078h-.002Zm.087 1.181h-.005a.3.3 0 0 1-.1-.032.5.5 0 0 1 .1-.081.5.5 0 0 0-.1.083v.005a.3.3 0 0 0 .1.032Zm8.716-2.671-.006-.003.006.009Zm-9.716.871.085-.008Zm.237-.023a.5.5 0 0 0-.156.008h.032c.06-.003.095-.008.124-.008m8.03 1.763-.039-.031h-.008c0 .02.132.111.142.1s-.013-.015-.03-.025Zm-8.034-1.758.068-.006h-.064Zm8.345 1.845v-.122q0-.025-.024-.008a.7.7 0 0 0-.115.1.3.3 0 0 0 .12.03Zm-4.63-3.438-.03.013.032-.013Zm-3.932 1.765s0 .013.006.014a.02.02 0 0 0 .024 0l.008-.007v-.026l-.005.015q-.013.013-.02.01h-.005v-.045a.13.13 0 0 1 .008-.059s.006-.008.011-.008h.006a.1.1 0 0 1 .005.033v-.036h-.028a.04.04 0 0 0-.016.011.2.2 0 0 0-.006.059v.025s0 .007.005.012Zm8.568 1.73a.1.1 0 0 0-.05-.018l-.083-.031q-.051-.025-.069-.013l-.006.012a.5.5 0 0 0 .122.044c.03.007.057-.001.086.006m-5.455-3.1.119-.07.154-.086-.055.028-1.234.69-.018.004.008.008.004.001.946-.527Zm7.083 3.29v.003h.042v.094h.14v-.094h.042v-.002l-.112-.001Zm-.627-.004H20v.099h.981v-.1Zm-4.234.009v.089h.981v-.085h.001v-.01h-.982Zm1.151.005h.14v.093h-.14Zm-3.442-.012h.982v.1h-.982Zm1.147.007v.089h.982v-.098l-.982.003Zm-2.12-2.709h-.005c0 .006-.011.007-.016.011Zm6.519 2.507h.006l-.006-.017Zm.005-.142a.3.3 0 0 0 0-.082v-.006a.1.1 0 0 1 0-.036 1 1 0 0 1-.137.093.6.6 0 0 0-.089.073c0 .016.021 0 .1-.054.115-.089.11-.091.111.048a.4.4 0 0 0 .006.1v-.034a.4.4 0 0 1 .009-.102m-1.287.442.003-.004h-.001Zm-1.671-4.022-.123.006.143-.006Zm1.166 4.022h.507l.008-.019h.01a.05.05 0 0 0-.017.023h.479v-.104h-.982Zm-1.606-3.999.129-.007h.053l.094-.006h.041-.177c-.054 0-.115.01-.177.01l-.143.01Zm3.338.475v-.014h.007-.016q-.005.003.009.014m-3.208-.483-.014.008Zm-.3.025a.17.17 0 0 0 .105-.012.2.2 0 0 1-.107.006ZM13.584 21.9h.042v.096h.14V21.9h.04v-.002h-.224Zm3.055-3.926h1.215-.06l-.191-.007h-.8c-.037 0-.104.006-.176.006h-.071.078Zm1.766.032c0 .026.04.048.12.048-.079-.003-.117-.023-.12-.048m1.696 2.599c-.095 0-.111 0-.108-.02a.14.14 0 0 1 .034-.053c.043-.055.056-.075.056-.087v-.023c.014-.011.013-.025 0-.033a.12.12 0 0 0-.051.058.7.7 0 0 1-.114.163c-.032.036-.087.1-.123.15a2 2 0 0 1-.09.115.1.1 0 0 0-.024.038.02.02 0 0 0 .011.018q.029.016.029 0v-.057l.055-.062c.03-.034.071-.084.091-.11.057-.076.069-.088.086-.082a1 1 0 0 0 .263 0c-.005-.01-.022-.012-.115-.015m-.125.012c-.018 0-.022 0-.017-.016a.03.03 0 0 1 .015.007l.014.012Zm-1.451-2.563c.037 0 .1.011.137.011a1 1 0 0 0-.137-.011m.295.011h.02l-.01-.019a.1.1 0 0 0-.039-.013 1 1 0 0 0-.1-.009h-.034l.038.026q.063.005.125.015m1.304 3.208c-.068-.027-.064-.026-.064-.016a1 1 0 0 0 .051.159.03.03 0 0 0 .02-.009l.025-.021h.011a.08.08 0 0 1-.021.055c-.021.028-.029.054-.023.059s.038-.014.073-.059c.064-.084.086-.117.079-.126h-.01a.4.4 0 0 1-.141-.042m-1.719-3.267s-.011-.009-.006-.009.006.007.006.011h.045l.2.015h.007l-.032-.022h-.026a.2.2 0 0 1-.046-.032l-.007-.006c-.006.012-.015.01-.012 0s0 0-.009.015l-.006.012q.01-.026.008-.033l-.025-.021-.02-.012h-.008a.012.012 0 0 0-.015.008.1.1 0 0 1-.025.023.04.04 0 0 0-.017.016.03.03 0 0 1 .013-.014c.023-.015.037-.032.034-.04h-.056l-.009.006a.1.1 0 0 1-.043.017h-.033l.006.006c0-.008 0-.006-.008-.006l-.018.005-.049.012h-.014l-.033.009a.4.4 0 0 1-.109.007h-.244l.18.007c.106.007.22.017.371.026m.562.068h.027v-.011a.4.4 0 0 1 .081 0h.035l.157.014h.027c.061.005.115.013.121.013a.2.2 0 0 0 .041.006l.089.011.089.01c.017 0 .053.009.079.009l.047.006-.033-.005-.045-.006-.076-.01a.3.3 0 0 0-.079-.009c-.018 0-.058-.01-.089-.01l-.089-.011a.1.1 0 0 1-.041-.006.6.6 0 0 0-.121-.013h-.024l-.157-.014h-.116l-.014.007v.01h.018Zm.783 2.984-.006-.002.001.002Zm.297.347c-.005-.015-.016-.007-.052.031a.5.5 0 0 1-.078.062c-.029.017-.037.024-.027.036l.017.013c.031.022.044.019.1-.028s.065-.05.05-.091Zm-9.319-1.497.003-.004h-.003Zm.219.038v-.052Zm-.362-.073h-.011s-.008 0-.015.012a.1.1 0 0 0-.011.042.2.2 0 0 0 .006.087v.007a.03.03 0 0 0 .027.007l.017-.009.006-.007a.3.3 0 0 0 0-.082.1.1 0 0 0-.012-.057Zm.006.075v.041q-.002.035-.021.032c-.012-.002 0-.024-.006-.042a.3.3 0 0 1 0-.085c0-.01.011-.013.016 0a.1.1 0 0 1 .011.045Zm4.269-1.751h.011a2.7 2.7 0 0 1 .553-.148l.045-.008.073-.013h.071c.034-.006.161-.017.3-.027h-.018a.084.084 0 0 1-.1 0h-.024v.005-.005h-.025l-.065.007.012.007-.013-.007-.059.008h-.025l-.14.019h-.022a1 1 0 0 0-.107.015h-.066l-.049.012-.031.008-.059.016-.046.014-.063.019-.062.047-.073.026-.03.011h.005Zm5.347 3.068c.008-.006-.007-.015-.027-.015h-.019l.021.009a.04.04 0 0 0 .025.006m-4.915-3.178-.002-.002h-.001l.001.001Zm-.115.03.004.004h-.001Zm-.303.11h.004v.003h-.004Zm-.004-.03-.073.018a.06.06 0 0 1-.036.009h.006l.032-.007.071-.016Zm-9.407 1.472H5.46v1.639h.512l.003-1.64Zm15.451-.185q-.026-.002-.024.008 0 .011.024.011c.016 0 .022 0 .024-.011s0-.011-.022-.011ZM5.47 18.25v.761h.491l.002-.761h-.002Zm-.152 3.272h.825v-2.018h-.825Zm.079-1.914h.646v1.8h-.646Zm-.079-.364h.825v-1.2h-.825Zm.063-1.078h.67v.931h-.67Zm14.157 2.778c0 .009 0 .012.035.015a.06.06 0 0 0 .041-.012.12.12 0 0 0-.076-.003M5.492 17.189v.508h.471v-.003h.002v-.508h-.473Zm.027-.908a1 1 0 0 0-.136.188.6.6 0 0 0-.065.229h.721l.012-.023Zm-.201 1.596h.825v-.912h-.825Zm.087-.776h.646v.678h-.646Zm.738-.457v-.719a.9.9 0 0 0-.485.209Zm14.79 2.762a.1.1 0 0 0-.037.006l-.006.006a.01.01 0 0 0 .007.01h.023q.032 0 .032-.024c0-.016-.007.002-.019.002m-.592-.509.023.034.01-.006Zm.027-.177a.3.3 0 0 1-.035-.044l.011.014Zm.007.199-.001.001.01.009Zm-8.443 2.12a.04.04 0 0 1 .037-.008h-.01a.04.04 0 0 0-.03.006l-.055.025-.069.032-.072.032-.018.007-.1.042a.6.6 0 0 1-.11.054c.136-.056.41-.178.427-.19m3.702-3.025-.001-.003-.001-.001-.001-.001-.003-.002v.001ZM9.755 10.91v.152h.4a.154.154 0 0 0 .16-.146v-.2a.2.2 0 0 0 .107-.1l.15.08a.17.17 0 0 0 .22-.054l.121-.188a.136.136 0 0 0-.034-.188l-.021-.012-.655-.341a.18.18 0 0 0-.233.056l-.111.173a.145.145 0 0 0 .044.2l.018.009.159.083a.16.16 0 0 0-.044.109.18.18 0 0 0 .12.166v.2ZM19.83 21.622c.039-.015.054-.021.042-.036a.3.3 0 0 0-.053-.039c-.081-.055-.079-.055-.073.014a.2.2 0 0 0 .011.073c.01.012.029.004.073-.012m-8.47-11.095-.325-.043-.161.251.203.23Zm8.234 11.058c-.03 0-.048 0-.047.013a.1.1 0 0 0 .043.007h.031v-.02Zm-4.035-3.562-.004-.002Zm-5.389 3.87h.982v.1h-.982Zm-.351.007h.042v.096h.14V21.9h.042v-.002H9.82Zm-3.506-5.263.485-.509a.9.9 0 0 0-.485-.207Zm.001 1.241h.824v-.912h-.824Zm.083-.781h.645v.678h-.645Zm3.823-1.415-.466-.005v-4.805h.006V8.873h1.307L2.606 2v19.996h2.157v-6.679h2.883v6.679h2.1v-5.178h.474Zm-2.6-2.799-.07.008-2.76-.006v-.087l.007-3.806v-.093h2.825Zm2.51 3.727h-.21v-.728h.21Zm10.153 4.451v-.014c0-.015-.023-.024-.085-.039s-.077-.018-.076-.027a.5.5 0 0 1 .078-.077.3.3 0 0 0 .078-.08c0-.013-.017 0-.054.028l-.09.078a.4.4 0 0 0-.059.062c-.007.014-.014.019-.034.021s-.017 0-.018 0a.4.4 0 0 0 .085.026c.044.011.1.028.129.037.058.018.078.02.083 0v-.009q-.001-.014-.025-.008c-.015.004-.013.008-.012.002m-.067-.189.012-.014h.012l-.014.011-.018.011Zm-.107.124c0 .008-.009.008-.014 0a.02.02 0 0 1 0-.016.01.01 0 0 1 .009-.009.03.03 0 0 1 .007.016ZM6.314 19.245h.824v-1.2h-.824Zm.068-1.078h.67v.93h-.67Zm1.025-8.998H5.051l-.016 3.529h2.361Zm-.163 1.144h-.026v-.038H5.241v.038h-.028a.4.4 0 0 1 0-.211h.026v.038h1.979v-.042h.026a.4.4 0 0 1 0 .215m.015-.284H5.197v-.76h2.062Zm-.78 7.159v.509h.473v-.512h-.473Zm.658-.491a.6.6 0 0 0-.066-.229 1 1 0 0 0-.14-.188l-.538.395.011.022Zm14.157 3.855c-.025-.008-.046-.017-.046-.021a.4.4 0 0 0-.022-.054 4 4 0 0 1-.124-.293c0-.01.009-.013.02-.02a.11.11 0 0 0 .05-.085 1 1 0 0 0 0-.148v-.008l-.009-.1v-.06l-.008-.106-.006-.013q-.009-.014-.027-.036c-.022-.02-.021-.052-.029-.08l.008-.016.006-.017v-.026l.006-.007q.014-.01.006-.014h-.021c0-.014-.012-.026-.021-.025q.013-.002.018.008c.002.008 0 0 0-.01v-.024l.006-.009c.006-.009 0-.009-.006-.009s-.012-.023-.008-.033v-.006a.02.02 0 0 0 .007-.015c0-.01-.022-.012-.039 0l-.011.009a.03.03 0 0 1-.016.007h-.008q-.016.01-.012.045a.02.02 0 0 1 0 .024v.007c-.008 0-.01.034-.006.053a.1.1 0 0 0 .027.031l.033.018v.02s-.01 0-.014.006a.05.05 0 0 1-.038.009c-.03 0-.041.011-.035.02a.05.05 0 0 0 .031.015.2.2 0 0 1 .04.014c.02.011.049.013.043 0h.01a.03.03 0 0 1 .024.019.03.03 0 0 1 .008.014l.006.011v.013l.008.123.014.231c0 .016-.007.027-.013.025q-.01-.002-.008 0c0 .019 0 .038-.006.033v.027l-.009.011a.1.1 0 0 1-.025.014.3.3 0 0 1-.063.022c-.02 0-.036.008-.042 0l-.016-.009v-.141a2 2 0 0 0-.021-.343q-.007-.008-.053-.012l-.076-.008H20.8l-.017.039c-.009.021-.039.1-.067.179l-.062.169a.5.5 0 0 0-.039.114.3.3 0 0 1-.083.129c-.034.034-.042.014-.058.019a.4.4 0 0 0 .11-.139.4.4 0 0 1 .021-.066c.012-.029.054-.142.093-.249s.076-.206.083-.218a.3.3 0 0 0 .022-.065 1 1 0 0 1 .057-.172.1.1 0 0 0 .008-.032v-.044h.07a.5.5 0 0 0 .093-.015q.015.002.014-.007l-.108-.1-.008-.006-.05-.04-.049-.037-.057-.039-.083-.055-.04-.022-.042-.018h-.014l-.017.019h-.008c-.013.013-.019.013-.092.009s-.085-.014-.113-.053l.013.008.015-.007-.049-.028-.066-.092-.064-.078a4 4 0 0 0-.171-.2c-.03-.03-.013-.034-.025-.053l.019.024v.006l.065.077.009.011.04.05.007.009.023.021.033.041.011.014.024.03.053.066.075.043-.382-.453h-.014c-.007-.02-.03-.044-.029-.062.006-.054-.012-.073-.064-.066h-.04s0-.026.057-.053a.3.3 0 0 0 .057-.032l.011-.015h-.016l-.008.005.037-.024q.002-.008-.006-.012a.5.5 0 0 0-.1-.014l-.047-.007-.045-.006h-.029.014a1 1 0 0 1 .1.014q.01.002.006.012c-.003.006-.013.008-.02.013l-.112-.017-.075-.011h-.007c-.151-.022-.275-.035-.353-.044l-.19-.02h-.039l-.066-.007h-.022a.03.03 0 0 0 0 .025v.008l.008.017.007.013.007.011.01.011a.1.1 0 0 0 .037.035c.05.028.158.078.374.175h.009l-.035.017-.048-.021-.033-.015c-.216-.1-.324-.147-.374-.175a.1.1 0 0 1-.032-.021l-.01-.011-.007-.011-.007-.013-.008-.017v-.023c-.017-.01-.012-.015-.011-.021h-.197.158l.027.054.015.032a1.1 1.1 0 0 0 .328.173c.078.035.148.084.225.12l.012-.007.006.006h-.01a9 9 0 0 1 .891.476l.015.015h-.019a.2.2 0 0 1-.047 0c-.032 0-.076.011-.078.019s-.008.005-.015 0a.01.01 0 0 0-.012 0s0 .006-.008 0a.04.04 0 0 0-.032 0 1 1 0 0 1-.159 0 5 5 0 0 0-.474 0c0 .011-.049.008-.053 0a.14.14 0 0 0-.1-.023H19.3l-.053-.043c-.03-.023-.123-.1-.207-.169-.2-.165-.419-.343-.585-.471-.07-.053-.13-.1-.174-.128l-.038-.025a.3.3 0 0 0-.071-.033h-.028l.048.017.015.006.029.014c.039.023.035.034.072.055q.016.007.018.016c.001.007-.009-.009-.019-.015-.036-.02-.032-.032-.072-.054l-.024-.013-.017.015s-.022-.009-.048-.017h-.012a.8.8 0 0 0-.2-.017c-.072 0-.016-.006-.348-.017q-.049.002-.291-.008h-.456a11 11 0 0 0-1.199.069 2 2 0 0 0-.191.022 3 3 0 0 0-.368.09l.024-.01-.068.02h-.006l-.027.007-.112.042c-.027.011-.119.047-.243.106l-.013.007-.014.006c-.054.025-.065.031-.093.046l-.05.027-.046.024h-.008l-.018.009-.018.01-.08.048-.046.027-.064.037c-.005 0-.024.015-.05.028l-.023.011c-.065.039-.169.1-.292.181l-.075.049c-.1.065-.213.145-.23.161-.042.039-.254.117-.235.086a4 4 0 0 1 .406-.293l-.49.312-.08.023-.026.007h-.009q.014.001.019-.005l.08-.023.49-.312.029-.018.2-.127.361-.211.153-.084.131-.067.082-.043.058-.027.034-.017.02-.009.042-.018h.013-.014l-.049.021-.048.023-.043.02-.054.025h-.004l-.261.122-.2.11-.188.1-.06.039-.146.089-.051.028-.013.009-.653.365h-.02l-.018.01h.01c-.029.048-.108.054-.126.056-.191.017-1.899.484-2.239.58h.025c.057 0 .361-.028.465-.041l.221-.017a.5.5 0 0 0 .177-.026.1.1 0 0 1 .041-.013h.01a.1.1 0 0 1-.039.024l-.022.007a.5.5 0 0 1-.177.026l-.134.01a.04.04 0 0 1 .026.008h-.011l-.017.007-.027.016-.023.02-.009.008-.049.044q-.024.022-.045.045c0-.009-.011-.009-.011-.031v-.023a1 1 0 0 0 .1-.089h-.019l-.13.012v.009a.1.1 0 0 1 .006.042.1.1 0 0 0 .01.044h-.002c.007 0 .011-.011.018-.016v.071q-.026.023-.048.048h.028c0 .007-.023.036-.067.058a3 3 0 0 1-.333.086c-.086.019-.116.024-.119.046a.2.2 0 0 0 .02.064c.012.031.036.1.055.16.032.1.061.182.117.33.027.072.049.094.057.057l.013-.064a1.7 1.7 0 0 1 .095-.3l.01-.047c.01-.046.047-.068.131-.076a2 2 0 0 0 .188-.027c.007 0 .025-.02.041-.04a.89.89 0 0 1 1.061-.349 1.01 1.01 0 0 0-1.033.368.1.1 0 0 1-.1.047c-.176.016-.231.029-.231.054a1 1 0 0 1-.031.093 3 3 0 0 0-.1.337c-.007.042-.018.056-.046.056a.04.04 0 0 1-.033-.013.4.4 0 0 1-.047-.106l-.048-.12a.3.3 0 0 1-.02-.053 1 1 0 0 0-.038-.108c-.016-.045-.046-.128-.064-.184a.5.5 0 0 0-.038-.1q-.015-.015-.028.094c-.014.092-.015.1-.024.1l-.008-.006-.006-.013-.005-.017v-.1l.005.02v-.011c0-.046.017-.076.045-.081l.023-.013a.04.04 0 0 1 .023-.01 1 1 0 0 0 .268-.059.5.5 0 0 1 .118-.035c.092-.019.1-.022.1-.034v-.006c-.007-.012-.037-.014-.1 0-.132.017-.145.02-.163.038a.064.064 0 0 1-.076.014.1.1 0 0 0-.058-.009.1.1 0 0 1-.042 0h-.01v-.061q-.002-.065.006-.059h.008a.1.1 0 0 0-.01-.035c-.009-.016-.011-.023-.008-.033a.2.2 0 0 0 .041-.008h.055l.071-.009a.06.06 0 0 0 .035.01.04.04 0 0 1 .025.007.1.1 0 0 0 .034.006c.017 0 .029 0 .037.011l.008.013.006.009c.019.021.043 0 .071-.05a.1.1 0 0 0 .013-.033l-.219.021h.024c.047-.007.1-.012.143-.016h.053-.009a1 1 0 0 0-.222.029h-.078l.022-.021c.343-.1 2.048-.563 2.239-.58a.2.2 0 0 0 .113-.047 4 4 0 0 0-.8.06c-.278.04-.417.06-.516.081a4 4 0 0 0-.621.186 2.3 2.3 0 0 0-.5.3c-.039.03-.062.052-.057.062s.008 0 .015 0v.189l-.038.029q-.038.027-.035.035c.003.004-.052.034-.063.065a1.6 1.6 0 0 0-.026.384.14.14 0 0 0 .055.057 1 1 0 0 1-.006.107l.008.008v-.01c0-.015.009-.022.013-.015v.016s-.006 0-.008.009l.033.029.009.006a.1.1 0 0 1 0 .033.1.1 0 0 0 0 .035.4.4 0 0 1 .007.06l.009.077a.08.08 0 0 1-.025.089q-.036.026-.044.016c-.007-.007-.008-.023-.008-.058a.1.1 0 0 0-.005-.044h-.006l-.032-.005-.006.031c-.044.194-.042.273.008.3a1.1 1.1 0 0 0 .515.115c.132.006.143.009.143.03a.065.065 0 0 0 .065.067h.016a1 1 0 0 0 .165-.027c.022 0 .021 0 .05.043a.88.88 0 0 0 .61.338h-.564v.092h.98v-.1h-.037c-.028 0-.045.013-.076.016a1.36 1.36 0 0 0 .691-.278l.052-.041h.248l.065-.035a.5.5 0 0 0 .116-.084l.053-.05h1.223l2.499-.01h1.278v.034c0 .023.018.025.028.036a.05.05 0 0 1-.022-.05c0-.035 0-.042.009-.044s.011-.007.018 0 .01.015.013.04v.011a.1.1 0 0 0 .009.027s.006 0 .006-.015 0-.013.006-.013h.02v.011a.02.02 0 0 0 0 .015.04.04 0 0 0 .015.014h.007l.015.014a.6.6 0 0 0 .2.114.2.2 0 0 1 .064.042 1.15 1.15 0 0 0 .442.246h-.383v.1h.982v-.066h-.095l.088-.013a1.06 1.06 0 0 0 .654-.7c.007-.045.017-.047.046-.006s.047.054.142.037.185-.031.291-.042c.192-.021.217-.039.28-.194.019-.049.092-.237.114-.3.064-.096.05-.127-.062-.16m-1.531-2.244a1.6 1.6 0 0 0-.253.111.3.3 0 0 0-.045.025h-.008a.2.2 0 0 1 .044-.025 1.5 1.5 0 0 1 .253-.11.1.1 0 0 0 .03-.016c.025-.012.055-.027.069-.032l-.024.015a.13.13 0 0 1-.067.032Zm.452.487c.021.019.051.043.076.062a1 1 0 0 1-.077-.06Zm-9.87 1.748.006-.009-.007-.006c-.009-.01-.01-.025-.014-.1q0-.047.022-.035h.01c0-.008.009-.01.012 0a.2.2 0 0 1 .009.079c-.01.084-.015.095-.039.071Zm.521.735.011-.009c-.107-.01-.126-.015-.08-.02a.6.6 0 0 1 .182 0c-.006.032-.035.037-.114.029Zm9.745-2.052a1.6 1.6 0 0 0 .356-.013l-.007-.009-.041-.032.004.003c.016.013.034.028.041.032q.01.006.007.009a1.5 1.5 0 0 1-.355.013h-.01Zm-.439.437.014.006a2 2 0 0 1 .265.155l.016.009a.03.03 0 0 0 .032-.006.03.03 0 0 0 0-.019.02.02 0 0 1 0-.015l.013-.021.018-.027a.2.2 0 0 1 .039-.028c.036-.022.05-.032.054-.044v-.021a.04.04 0 0 1 .018-.019.14.14 0 0 0 .037-.037c.01-.014.02-.024.022-.022a.1.1 0 0 0 .034-.023l.018-.029a.2.2 0 0 0 .02-.035l.018-.044c.009-.028.029-.08.043-.115v-.006a.2.2 0 0 1-.012.043l.011-.007-.044.115-.018.043-.019.036-.019.03c-.006.01-.031.027-.035.023s-.012.008-.021.022a.2.2 0 0 1-.038.037l-.018.019v.031c0 .012-.019.022-.055.044-.021.013-.038.025-.038.029a.1.1 0 0 1-.018.027l-.012.021a.02.02 0 0 0 0 .015.03.03 0 0 1 0 .019c0 .01-.017.012-.033.006l-.02-.011-.1-.065c-.039-.024-.056-.044-.084-.062a1 1 0 0 1-.1-.074Zm-1.066-.044c-.007 0-.012 0-.012-.009v-.006l.02-.024.024-.026v.02l-.007.027h.011l-.021.023Zm.01.038-.016.046Zm-.035-.393c-.5.021-1.742.093-2.424.14a2.3 2.3 0 0 1-.4.017 2 2 0 0 0 .391-.017c.683-.047 1.919-.119 2.425-.14Zm0 .378c0 .007-.01.017-.012.026v-.019Zm-.611.709h.011a.4.4 0 0 0 .038-.059 1.3 1.3 0 0 1 .385-.4.5.5 0 0 0 .135-.118l.018-.023v.01l.006-.008v.043l-.011.015a.5.5 0 0 1-.136.118 1.35 1.35 0 0 0-.388.4c-.023.037-.033.051-.04.051s-.006 0-.008-.008a.01.01 0 0 1 0-.013Zm-4.453-1.093q-.033-.017-.033-.025a.1.1 0 0 0 .032.023.4.4 0 0 1 .1.084 1 1 0 0 0 .121.112 1 1 0 0 1-.122-.1v-.007a.3.3 0 0 0-.098-.087m.166.36.118-.01h.015c0 .006-.035.01-.17.018l-.134.011h-.03a1.4 1.4 0 0 1 .201-.019m.133 1.355.873-.036.393-.016c.471-.019.555-.024.567-.03a.04.04 0 0 1 .029 0 1 1 0 0 0 .188 0l.346-.016.311-.013.327-.013.644-.027a2 2 0 0 0 .189-.013c.017 0 .014.007.023.009-.014-.008-.04-.007-.125 0a70 70 0 0 1-.755.033c-.1 0-.275.011-.391.016l-.456.019-.371.017-.3.013c-.1 0-.243.009-.318.013l-.3.013-.324.013-.394.016-.809.035h-.2l.21-.01c.131 0 .422-.014.643-.023m2.191-1.537.405-.026c.651-.043 1.265-.079 1.673-.1l.266-.013a.1.1 0 0 1-.043.013l-.221.016h-.02l-.256.015a2 2 0 0 0-.366.014l-.425.029a2 2 0 0 0-.209.017l-.071.007h-.013l-.155.011-.399.026-.371.026a.3.3 0 0 1-.089.017l-.1.006-.235.014a35 35 0 0 0-.737.049 1 1 0 0 1-.161 0s.054-.006.117-.01l.219-.017c.058 0 .148-.013.2-.016l.263-.019.261-.02a1 1 0 0 0 .149-.013Zm-.3-.018v-.02l.007-.023-.006.019-.007.024Zm2.354-.015a.1.1 0 0 1-.041.008 1 1 0 0 1-.172.01.02.02 0 0 1 0-.016.02.02 0 0 1 .012-.012h.1a.5.5 0 0 1 .1.007Zm-.24-.021c.008.006 0 .015 0 .029a.025.025 0 0 1-.007-.032Zm-2.09.925-.017.015-.017.016-.018-.021-.007-.01-.007-.012v-.147a1 1 0 0 1 .013-.152v-.076q-.002-.041.007-.04c.007.001.007.076.012.164s.011.186.015.215l.007.052Zm1.912-.765a.1.1 0 0 1-.032 0c-.019-.008-.027-.009-.128-.01a1 1 0 0 1-.167-.014.3.3 0 0 0-.095-.008 1.4 1.4 0 0 1-.257 0h-.02a.3.3 0 0 1-.113 0h-.022a.2.2 0 0 1-.064-.011c-.01 0-.016-.008-.013-.011s0-.035.01-.035v-.007l.071-.007h.015a.3.3 0 0 0 .114 0 .03.03 0 0 1 .021 0 1.4 1.4 0 0 0 .256 0 .3.3 0 0 1 .1.008.7.7 0 0 0 .166.014c.1 0 .11 0 .129.01a.1.1 0 0 0 .032 0 .3.3 0 0 1 .068 0 .1.1 0 0 0 .054 0 .14.14 0 0 1 .085.006.2.2 0 0 0 .064.01.1.1 0 0 1 .057.01l.016.008.014.009a.6.6 0 0 0 .119.021.3.3 0 0 1 .072.021.1.1 0 0 1 .045.03l.012.009h.016l.02.012h.018l.02.006.022.013.017.01c.015.006.03 0 .086-.019s.074-.024.072-.018a.3.3 0 0 1-.064.041.3.3 0 0 0-.045.027c-.027.008-.038.01-.049.006a.1.1 0 0 1-.028.028l-.018-.011-.019-.006h-.006l-.012-.007-.015-.01h-.017a.04.04 0 0 1-.016-.011.1.1 0 0 0-.041-.028.3.3 0 0 0-.071-.021.6.6 0 0 1-.12-.021.04.04 0 0 1-.018-.011l-.011-.007a.1.1 0 0 0-.058-.01.2.2 0 0 1-.064-.01.14.14 0 0 0-.085-.006.1.1 0 0 1-.054 0 .3.3 0 0 0-.068 0Zm.563.355c-.02.014-.022.01-.009 0a2 2 0 0 1 .266-.185.4.4 0 0 0 .064-.041c.037-.016.041-.011.025.017s-.041.033-.123.076l.007-.007a2 2 0 0 0-.229.139Zm-.256.3h.007a1 1 0 0 1 .082-.126l.028-.039v-.02l.014-.013a.1.1 0 0 1 .037 0 .1.1 0 0 1 .043 0 .013.013 0 0 1 .011.015l-.012.017h-.035c-.028 0-.04 0-.047.012s-.091.125-.128.177h-.007l.008-.024Zm.207-.152-.026.025a.02.02 0 0 1-.013-.012v-.007a.02.02 0 0 1 .02-.006v.007Zm.746-.474h.011a1.4 1.4 0 0 1 .263 0c.123.013.2.029.2.044l-.075-.007a.4.4 0 0 1-.1-.008 1.8 1.8 0 0 0-.5.051c-.056.016-.067.016-.067 0-.015-.03.117-.063.269-.076Zm.128-.324h.009c-.1 0-.2.006-.225 0Zm-.229.063a.2.2 0 0 0 .075-.009l.157-.007h.024a.3.3 0 0 1 .066.006.03.03 0 0 1 .008.014c0 .013.014.008.022-.008s.1-.018.123 0-.025.053-.045.053h.011c-.015 0-.033.016-.024.021s0 .057-.018.057-.018 0-.018.006-.006 0-.013 0a.013.013 0 0 0-.016.006q.001.01-.057.01c-.059 0-.087.007-.073.015a.02.02 0 0 0 .016 0 .1.1 0 0 1 .044 0c.082 0 .112.023.035.023q-.046.002-.041-.007c.003-.007 0 0-.009 0a.1.1 0 0 1-.043 0 .3.3 0 0 0-.053-.01.05.05 0 0 1-.029-.009.04.04 0 0 0-.025-.01.03.03 0 0 1-.025-.017q0-.016-.036-.015a.08.08 0 0 1-.071-.048.02.02 0 0 0-.014-.01q-.009 0-.009-.018.002-.038.039-.039Zm-.05-.063h.009-.026Zm-.021-.25h-.153c-.073 0-.212 0-.33.008h.269a1 1 0 0 1 .142.007.3.3 0 0 1 .057.015q.024.012.025.028c0 .011-.007.009-.017.015a.2.2 0 0 1-.064.02.4.4 0 0 0-.059.011 1 1 0 0 1-.165.028l-.048.007c-.02 0-.161.015-.222.018a.1.1 0 0 0-.045.006 1 1 0 0 1-.1.008c-.048 0-.12.006-.159.01a.3.3 0 0 1-.077 0 .1.1 0 0 0-.04 0 1 1 0 0 1-.146.009.6.6 0 0 0-.136.007c-.013.007-.136.007-.5.013-.105 0-.223.006-.263.008-.142.008-.46.011-.779.007-.147 0-.141 0-.141-.057 0-.028-.015-.043.035-.053.068-.014.259-.021.78-.045l.282-.013h.043l.373-.015h.037c.471-.018.642-.026.592-.027l-.428.011.578-.02h.022c.231-.007.42-.013.505-.014h.128Zm-.887-.768.045.035c.433.336.6.471.776.635.03.027.049.044.048.054 0-.01-.019-.027-.048-.053-.179-.164-.344-.3-.776-.635Zl-.032-.025Zm-2.779-.091h.006c.016 0 .06-.005.113-.011h.022-.018l.05-.006h-.032q.171-.018.386-.031h.103c-.1 0-.188.011-.274.018a8 8 0 0 0-.372.032Zm-.234.051h.014a.1.1 0 0 1-.034 0c.009 0 .011-.003.02-.003Zm-1.714.83-.015.012Zm-.167.172v-.015c0-.01.022-.015.031-.025l-.033.04a2 2 0 0 1 .149-.119h-.016c-.006 0-.013.009-.018.01a1.5 1.5 0 0 1 .287-.23 1 1 0 0 0 .1-.066l.056-.037.033-.021c.033-.021.076-.045.114-.068l.03-.017.064-.037.046-.027.064-.038.053-.029h.007l.046-.024.05-.027c.028-.015.05-.025.093-.046s.072-.034.112-.051q.09-.04.182-.075h.005c.052-.019.082-.031.116-.042l.068-.02.072-.018-.052.015a4 4 0 0 0-.541.222 7 7 0 0 0-.542.308l-.031.019-.056.037c-.035.024-.08.054-.1.066s-.015.014-.023.019a.5.5 0 0 1 .08-.051.3.3 0 0 1 .1-.038c.034-.005.044-.007.045-.016v-.023c0-.021.041-.048.229-.152a.7.7 0 0 1 .131-.068 1 1 0 0 1-.083.057 1 1 0 0 0-.082.056c.009 0 .154-.074.361-.183a2.74 2.74 0 0 1 1.3-.341 4 4 0 0 1 .351-.006h.047l-.028.18-.079.736.106-.01.042-.348.021-.175v-.007l.05-.428h.041v.024l-.09.959.12-.006.054-.917c0-.011.05-.009.073-.013h.629c.262 0 .525.007.611.012a1 1 0 0 1 .152.015l.045.006.043.027a1.5 1.5 0 0 1 .211.173l.288.273.038.019h.1a.3.3 0 0 0 .1-.006 2 2 0 0 1 .367.3q.01.01.009.014a2 2 0 0 1-.356.025c-.386.012-1.324.047-1.548.057l-.371.017c-.128.006-.314.014-.415.02l-.263.013-.135.007a.6.6 0 0 1 .127.012v.015c-.008.041-.026.089-.033.088a1.4 1.4 0 0 0-.32 0 4 4 0 0 1-.367.01.05.05 0 0 0-.029.006.2.2 0 0 1-.058 0h-.3a2 2 0 0 0-.19.008 1 1 0 0 1-.11.007 1 1 0 0 0-.146.012.2.2 0 0 1-.051 0l-.077.007a.3.3 0 0 1-.173-.011c-.09-.021-.112-.03-.1-.041l.048-.006h-.056a.6.6 0 0 1-.157 0 .04.04 0 0 0-.03 0 .3.3 0 0 1-.074.013c-.083.01-.123.024-.125.051s.005.031.031.053q.038.041.037.058c-.001.01-.011.011-.036-.008a1 1 0 0 1-.124-.1l-.013-.008-.022-.036a1 1 0 0 0-.269 0 .1.1 0 0 1-.048 0h-.006c-.005-.005.004-.023.011-.039Zm.116.091a1 1 0 0 1-.1.027c-.015 0-.012-.02 0-.027s.109-.013.1-.003Zm-.118-.009h.01a.05.05 0 0 0-.02.027l.01-.03Zm-.382.018a.5.5 0 0 1 .116-.016l.17-.006a.1.1 0 0 1 .043 0c.007.013-.026.05-.054.059l-.041.014a1 1 0 0 1-.132.026c-.034 0-.049.01-.049.017s0 .009-.039.011a.1.1 0 0 0-.054.019.4.4 0 0 1-.11.051.2.2 0 0 0-.042.022l-.041.024-.07.04a.3.3 0 0 1-.058.03.2.2 0 0 0-.042.026.1.1 0 0 1-.042.026.1.1 0 0 0-.039.03c-.024.025-.03.029-.045.025-.04-.01-.038-.014.034-.062l.1-.071.137-.099.16-.113a.4.4 0 0 1 .098-.056Zm.259 1.175v.046l-.011-.037Zm-.019-.763a.1.1 0 0 1-.01.029.06.06 0 0 1-.043.031.7.7 0 0 0-.152.064l-.026.01a.1.1 0 0 0-.038.021L13 19.89l-.018.02a.1.1 0 0 1-.023.02l-.016.016v.008q-.008.011-.041 0h-.006l-.015-.018q-.05-.05-.047-.053h.007a.1.1 0 0 1 .026.015.2.2 0 0 0 .047.028q.033.014.041 0v-.008l.016-.016a.1.1 0 0 0 .024-.026l.018-.02.037-.032a.1.1 0 0 1 .038-.021.04.04 0 0 0 .025-.01.7.7 0 0 1 .153-.064.06.06 0 0 0 .04-.033Zm-1.246-.213h.006a.1.1 0 0 0 .044-.016c.01 0 .078-.024.151-.043a2 2 0 0 0 .287-.091l.018-.007a1 1 0 0 1 .205-.036c.043 0 .088-.006.133-.007h.056l-.016.015c-.009.008-.06.044-.114.079-.082.054-.23.155-.37.257l-.03.022-.084-.017a2 2 0 0 0-.27-.038c-.081-.007-.091-.01-.091-.025a.03.03 0 0 0-.013-.022c-.026-.025.008-.051.088-.074Zm-1.042.547v-.007q.021-.023.045-.045l.05-.036c.039-.033.1-.08.136-.105l.034-.026a.4.4 0 0 1 .061-.012.04.04 0 0 1 .022 0l-.016.015a.3.3 0 0 1-.048.037c-.035.025-.1.072-.136.1-.077.063-.1.073-.134.074Zm.918.038h.007c.012 0 .067.007.123.011a.9.9 0 0 1 .353.091c.048.021.059.02.062.015.014.015 0 .019-.063-.01a.9.9 0 0 0-.353-.091 1 1 0 0 1-.123-.011h-.022Zm-.058.788a.1.1 0 0 0 .031.028l.018.016v.023l-.005-.008c0 .007-.01.012-.015.007v-.016h.005l-.02-.029-.1-.107a1 1 0 0 1-.077-.088q-.02-.025-.043-.049s-.006-.01-.021-.018-.01-.012-.016-.017l-.061-.072-.055-.061q-.01-.002-.011.006l.006.008a.02.02 0 0 1 .006.023l.05.058.029.03c.007.011.024.028.021.034h-.018v-.005a.2.2 0 0 1-.079.013.4.4 0 0 0-.093.013v.006h.028l-.04.006a.3.3 0 0 1 .052-.007 1 1 0 0 0 .094 0 1 1 0 0 0 .09-.012l.005.005s0 .007-.013.012-.017.011 0 .007.042.012.121.1l.033.036h.007c.005.005.005.012.009.018l.043.046v.01c.006 0 .009-.006.015 0v.008h-.008v.009c0 .007.005.016-.007.019l-.04.013a1 1 0 0 1-.099.029c-.006 0-.007-.019-.007-.043 0 .031 0 .059.007.059a1 1 0 0 0 .099-.037l.04-.013c.014 0 .009-.013.009-.023 0 .008.013.017.012.025a.04.04 0 0 1-.005.018c-.006.011-.033.021-.149.056l-.1.029c-.051.016-.069.015-.08 0l.006.008a.02.02 0 0 1-.01.008l-.043.016a.7.7 0 0 1-.14.043l.011-.014v-.008c0-.007.02-.015.071-.03s.065-.022.071-.033-.017-.033-.061-.065l-.066-.05a.2.2 0 0 0-.042-.025h-.008a.5.5 0 0 0 .079.073c.053.041.076.057.076.069s-.024.018-.073.033l-.041.018c.022-.011.012-.028.049-.038s.045-.012.037-.023a.2.2 0 0 0-.034-.028l-.074-.058-.049-.036-.011-.01v-.03c0 .02.024.013.028-.009v-.006c-.013.014-.02.018-.016-.008l.011-.009.007-.047a.3.3 0 0 1 .019-.055l.012-.02c0-.015 0-.023-.009-.017a.33.33 0 0 0-.05.151.2.2 0 0 1 .012-.12c.025-.055.037-.059.208-.073.051 0 .057 0 .029-.039l-.015-.017-.015-.018a.3.3 0 0 1-.03-.044l-.012-.022c-.01-.007-.008-.031 0-.044s.034-.016.121.088c.147.177.199.239.22.239a.05.05 0 0 1 .04.015.02.02 0 0 1 0 .018.07.07 0 0 0 .024.049Zm-.499.25-.008.007c-.018.013-.045.011-.041 0v-.007a.04.04 0 0 1 .027 0Zm-.064-.215v.018q.001.017-.006.019a.03.03 0 0 1 0-.033Zm.182-.529a.7.7 0 0 0-.156.2.7.7 0 0 1 .165-.217.05.05 0 0 0 .017-.025c.002.005.002.019-.027.039Zm-.22.268-.016.058a.2.2 0 0 1-.036.067q-.036.043-.012.066l.009.008h.006v.037a.1.1 0 0 0 0 .055v.026h-.006a.1.1 0 0 1 0-.064v-.037h-.006l-.009-.008q-.024-.023.012-.066a.2.2 0 0 0 .036-.067.2.2 0 0 1 .016-.058.1.1 0 0 0 .006-.041.11.11 0 0 1 .041-.084c.014-.007.016-.012.016-.037a.1.1 0 0 1 .006-.033l.011-.025a.3.3 0 0 1 .077-.121.3.3 0 0 0-.066.1.03.03 0 0 1-.011.025.1.1 0 0 0-.006.033c0 .025 0 .03-.016.037a.11.11 0 0 0-.041.084.1.1 0 0 1-.011.042Zm1.437.448a.06.06 0 0 0-.022.036.2.2 0 0 1-.015.048c-.015.033-.015.034 0 .048s0 .013 0 .018l-.021-.013h-.01l-.037-.013-.165-.058.007.007a1 1 0 0 0 .111.041c.094.029.117.039.109.053v.006h.011c-.007.028-.041.047-.1.025s-.093-.032-.093-.013a.6.6 0 0 0 .035.132c.005.01-.016.019-.015.029l-.022-.086a.4.4 0 0 1-.027-.108c0-.02.026-.009.084.012a.2.2 0 0 0 .075.02.03.03 0 0 1 .023 0 .02.02 0 0 0 .021-.008c.007-.008-.011.008-.016 0a.05.05 0 0 0-.031-.008.3.3 0 0 1-.078-.02c-.058-.02-.08-.024-.089-.012v.006s0 .007-.006.006l-.006-.016c.009-.011.03-.008.088.012a.3.3 0 0 0 .078.02.05.05 0 0 1 .031.008h.016v-.006c.007-.014-.016-.024-.11-.053l-.082-.031a1 1 0 0 0-.093-.037l-.122-.046-.039-.014c-.008 0 0 0 0 .007l-.036-.009a.06.06 0 0 0-.053 0 .1.1 0 0 0-.013.053q-.001.055.005.109v-.109c0-.012.015 0 .017 0s.025-.018.046-.012.007-.016.027-.007.083.035.123.05c.075.028.1.04.1.058a1 1 0 0 0 .025.089c.011.036.022.077.03.1l.011.026v.009c0 .008.01.019.015.019a.14.14 0 0 1-.074.146c-.051.036-.066.032-.19-.049q-.04-.026-.053-.032c.014 0 .019-.012.063.018a.14.14 0 0 0 .067.032l-.038-.021c-.026-.018-.042-.031-.035-.029l.019.01a.1.1 0 0 0 .024.02l.033.02.019.011v-.023l.01.005-.006-.005h-.006c0-.009-.009-.017-.036-.033l-.1-.062a.3.3 0 0 0-.067-.035c-.012 0-.019 0-.023-.023v.034c0 .028.008.1.01.155 0 .105.009.12.031.112a.01.01 0 0 0 .008-.013v-.008a.02.02 0 0 1 0-.015l.007-.008a.01.01 0 0 0 .007-.01v-.015h.052s-.007.013-.037.027-.052.045-.04.058a1 1 0 0 0 .159-.046q.058-.023.059-.013.002.01-.076.053a.64.64 0 0 1-.33.03h-.06c-.019 0-.038-.01-.057-.015s-.049 0-.074 0l.011-.009h.035l-.063-.017a.7.7 0 0 1-.143-.074l-.054-.034a1 1 0 0 1-.089-.078.2.2 0 0 0-.052-.044l.013.021.033.037c-.016-.017-.042-.019-.056-.037a.7.7 0 0 1-.125-.249c-.01-.041 0-.046.014-.028a.3.3 0 0 1 .029.058.1.1 0 0 0 .013.027q.01.013.025-.006c.011-.012.012 0 .018-.009 0-.009.022-.02.09-.047l.145-.062c.014-.011.017-.019-.009-.02s-.02 0-.025-.036v-.034q-.09.026-.176.059c-.057.022-.091.029-.1.011v-.01s.018-.008.018-.013 0 .018.008.02a.2.2 0 0 0 .052-.014c.115-.045.222-.084.289-.105l.138-.044.086-.027c.016 0 .019-.008.024-.015-.008.015-.027.025-.1.049l-.129.042h-.01c-.01 0-.011.01 0 .014q.017.005 0 .056c-.011.035-.013.036.016.028h.02l.159-.071q.014-.009.007-.018l-.006-.007c-.015-.016-.013-.033 0-.04s.02 0 .028.013a.03.03 0 0 1 .008.016h.055l.007.006h-.005a.1.1 0 0 1 .008.033v.018a.1.1 0 0 0 .006.05h.015c.012 0 .014 0 .01-.009q-.018-.044.014-.047c.022-.002.025-.008.014-.028s.032-.036.082-.023c.033.009.056.007.051 0l-.016-.009a.04.04 0 0 1-.02-.013q-.012-.016 0-.028c.009-.007.008-.01.006-.014q-.003-.006-.017-.01a.05.05 0 0 1-.022-.018v-.009l-.009-.014-.013-.008a.04.04 0 0 1-.025-.014c-.006-.009 0-.017.028-.017s.026 0 .026-.009v-.006h-.018a.04.04 0 0 1-.009-.034c0-.011.03-.01.039 0s.019.012.027-.007.006-.016 0-.022v.007l-.007-.006c-.011-.012 0-.018.017-.008s.024.006.071-.065l.074-.108c.1-.137.137-.206.129-.227l-.005-.007c-.019-.021-.07-.05-.08-.042a3 3 0 0 0-.2.336c-.086.181-.111.214-.147.192l-.022-.013-.012.015q-.016.017-.028 0a.03.03 0 0 1-.009-.022c0-.014 0-.018.014-.021s.02-.007 0-.029l-.024-.028-.016-.018a.1.1 0 0 1-.023-.032l-.05-.074-.082-.119a2 2 0 0 0-.078-.11c-.045-.06-.053-.083-.031-.095s.019 0 .029 0 0-.006.007-.006a.02.02 0 0 1 .016.006l.021.01c.014 0 .025.015.048.051a.2.2 0 0 0 .046.057l.032-.106.024-.069a.1.1 0 0 1 .017-.027.8.8 0 0 0-.271.058q-.054.032-.059.016c-.002-.01 0-.017.019-.033s.007-.009.006-.011a.05.05 0 0 0-.036.014c-.008.007-.007.01-.011.016 0-.007 0-.019.023-.032s.031-.016.036-.014 0 0-.006.011-.021.028-.019.033.024.006.059-.016a.8.8 0 0 1 .271-.058.04.04 0 0 1 .015-.022.5.5 0 0 1 .117-.006c.036 0 .069-.028.106-.022a.8.8 0 0 1 .282.1.4.4 0 0 0 .047.033 1 1 0 0 1 .07.073c-.021-.021-.039-.046-.062-.065a.4.4 0 0 1-.047-.033.9.9 0 0 0-.282-.1c-.037-.006-.07.022-.106.022h.063l.063.013.08.029a1 1 0 0 1 .1.035s.007-.007.011 0h-.006.008v.008a.4.4 0 0 1-.052.089l-.07.116a.3.3 0 0 1-.029.051c0 .007.015-.009.035-.048.009-.019.041-.071.07-.116a.4.4 0 0 0 .052-.089v-.009l.019.007a.1.1 0 0 0 .025.02 1 1 0 0 1 .116.077v.012l-.006.01-.007.012a.1.1 0 0 0-.011.026.3.3 0 0 1-.041.071.3.3 0 0 0-.038.06c0 .007.027.008.037.011h.1c.064 0 .091 0 .1.019a.2.2 0 0 1 .021.045c.026.068 0 .082-.006.115v.041a.4.4 0 0 0-.052.04l-.09.076-.017.018h-.005l-.011.014-.015.015c0 .008-.024 0-.034 0h-.014c-.014 0-.017.009-.039 0a1 1 0 0 0-.123-.03c-.05-.011-.043-.022-.061-.031s-.032-.01-.034-.017-.017 0-.016-.008a.3.3 0 0 1 .044-.085 1 1 0 0 0 .045-.079s-.008 0-.025.029a.5.5 0 0 0-.09.152.03.03 0 0 0 .019.03 3 3 0 0 0 .372.091 1 1 0 0 1 .1.027.1.1 0 0 0 .051 0s.007 0 .019-.011.019-.007.024 0v.019c.006.004.012.012.006.021Zm-.253.22v.02l-.009-.016a.1.1 0 0 1-.012-.039l-.005-.023h.005l.008.019.013.036Zm-.148-.192q.056.022.113.04h-.007Zm.1.059-.066-.031-.021-.008-.019-.008-.047-.02h-.012l-.036-.017q-.013-.01 0-.008l.024.011h.012l.047.02.04.016c.06.019.074.03.082.042Zm-.287.266a.03.03 0 0 1 .037 0v.013-.008c-.004-.015-.022-.013-.033-.008Zm.012.125-.012-.06a.2.2 0 0 1-.007-.067.2.2 0 0 0 .007.066Zm0-.059c0-.007.018.009.022.006a.2.2 0 0 0 0 .067Zm.016-.046h-.01l.011-.005Zm-.133-.487c-.03 0-.032-.008-.03-.016.009-.011.006-.027.022-.027a.1.1 0 0 0 .029 0 .014.014 0 0 1 .015 0h.011v.018a.03.03 0 0 1 0 .016.05.05 0 0 1-.038.026.07.07 0 0 1-.074-.006c-.006.006.013 0 .017-.007l.022-.012q-.001.01.032.014c.023.003.009-.007.016-.009s-.011 0-.017 0Zm.075.024v-.009c0-.013 0-.021.014-.021v.015c.007.016-.004.016-.009.016Zm.406-.774a.2.2 0 0 0 .061.044.2.2 0 0 1-.056-.047Zm-.055.306q-.034.042-.031.053a.01.01 0 0 1-.009-.013v-.007h.009a.2.2 0 0 0 .036-.036Zm.158.47c-.046-.01-.082-.018-.081-.032s.025-.035.078-.081a.3.3 0 0 0 .062-.066c-.007.009.009.033 0 .039a.5.5 0 0 0-.115.107.4.4 0 0 0 .089.04c.013 0 .018 0 .024-.019q.009-.027.015-.016l.007.023a.1.1 0 0 0 .019.047v-.005a.03.03 0 0 1-.021-.012c.001-.009-.026-.018-.072-.026Zm.055.024h-.008l-.012-.005Zm-.14-.049h-.007a.03.03 0 0 1 0-.023v-.005h.007v.009a.03.03 0 0 0 0 .022Zm-.046.037a.4.4 0 0 1-.089-.013 1.4 1.4 0 0 1-.179-.05.3.3 0 0 1 .053.007c.1.024.187.044.209.047s.012.001.011.006Zm-.319-.078h-.009a.02.02 0 0 1-.01-.014h.009l.015.011Zm.572-.285-.017-.017-.015-.033a.1.1 0 0 1-.018-.028.5.5 0 0 0-.066-.1c-.017-.022-.04-.039-.059-.06v-.006l.053.055a.5.5 0 0 1 .066.1.1.1 0 0 0 .018.028l.024.028.017.017c.013.014.018.034.03.088a.2.2 0 0 0-.028-.075Zm-.115-.334v.005c-.01 0-.031-.022-.031-.028.014.007.027.019.036.02Zm.017.014h.01a.014.014 0 0 1 .009.013q.006.01-.009 0c-.009-.007-.005-.013-.005-.016Zm.128.411a.5.5 0 0 0 .033.105.5.5 0 0 1-.03-.1Zm.061.46c-.015 0-.01 0-.016-.013a.23.23 0 0 1-.035-.111.2.2 0 0 0 .032.1q.009.013.016.013a.4.4 0 0 0 .043-.118h.006c.012.018-.026.128-.041.128Zm.073-.286q-.01.092-.027.076l-.011-.022q-.002-.014-.01-.027c-.004-.009-.011-.006-.02 0s-.012.011-.015.006v-.007c-.014-.015-.021.05-.008.093-.016-.038-.008-.112.007-.1v.007a.03.03 0 0 0 .015-.006c.009-.006.014-.009.02 0q.007.013.01.027l.011.022q.017.016.027-.076a.2.2 0 0 0 0-.055.2.2 0 0 1 .005.059Zm-.312-.862a1.07 1.07 0 0 1 .45.614 1.08 1.08 0 0 0-.445-.617Zm.456.3a1 1 0 0 1-.107-.119 1.3 1.3 0 0 0-.347-.272c-.024-.014-.043-.04-.067-.052l-.013-.011h-.025a1.25 1.25 0 0 0-1.127.094l-.064.012a1 1 0 0 0-.124.07l-.019.01v-.005l.011-.019a.9.9 0 0 1 .257-.236 1 1 0 0 0-.24.22l-.011.019.017-.009q.06-.038.124-.07l.05-.027a1.25 1.25 0 0 1 1.121-.1 1.4 1.4 0 0 0-.764-.1c-.19.027-.212.023-.119-.024a1.3 1.3 0 0 1 .347-.1 1.5 1.5 0 0 1 .331.012 1 1 0 0 1 .148.032.4.4 0 0 0 .058.017 1.3 1.3 0 0 1 .355.228.3.3 0 0 0 .034.039 1.3 1.3 0 0 1 .148.18c-.01-.006-.01 0-.031-.017a1 1 0 0 0-.166-.117l-.115-.065a2 2 0 0 0-.173-.067c.024.012.043.038.067.052a1.2 1.2 0 0 1 .347.271c.038.044.086.1.107.119l.1.1c.015.017.02.021.029.03l.007.014a.1.1 0 0 1 .007.041l-.026-.024c-.009-.01-.012-.01-.03-.029a1 1 0 0 0-.092-.097Zm.06.647a.3.3 0 0 1-.014-.094c0-.025-.008-.05-.012-.075 0 .028.018.053.019.082a.2.2 0 0 0 .007.077Zm.145.32.015-.009c-.123.006-.158 0-.158-.011s.009-.015.082-.017a.3.3 0 0 0 .07 0c.01-.011.124 0 .124.014s-.014.021-.13.026Zm.149-.3a.1.1 0 0 0-.048 0 1 1 0 0 1-.134.007c-.071 0-.1 0-.111-.016h.11c.1 0 .124 0 .129-.034s0-.051 0-.076c-.009-.1-.014-.28-.011-.311a2 2 0 0 1 .017.2c.012.2.019.228.055.23Zm-.012-1.356a.02.02 0 0 1-.008-.01v-.183c0-.015.007-.031.011-.046s.006-.01.007 0v.201a.02.02 0 0 0 .008.01.1.1 0 0 0 .054-.01c.141-.039.168-.05.194-.078a.1.1 0 0 1 .025-.02c.025 0 .111-.084.15-.138-.026.049-.137.158-.165.158a.1.1 0 0 0-.026.02c-.026.028-.053.039-.193.078a.1.1 0 0 1-.054.016Zm4.549 1.711.011-.009h-.021c.213 0 .388-.007.391-.009a.03.03 0 0 1 .03 0 2.6 2.6 0 0 1-.408.016Zm.466 0 .011-.008h.006Zm0-.013.011-.008h.006Zm.069-.408a1 1 0 0 0-.014.2l.011-.008c0 .126.014.116-.135.116-.19 0-.288-.011-.206-.023q.083-.015-.012-.016c-.063 0-.09 0-.085.019s-.026.022-.064.027a.1.1 0 0 1-.033.006h-.627c-.916.012-1.714.021-3.444.037a2.3 2.3 0 0 1-.443 0c-.018-.022 0-.023.542-.027l.784-.007.647-.007c.219 0 .43 0 .47-.007s.322-.006.626-.009l.713-.01.429-.007c.3 0 .329-.007.332-.026a.2.2 0 0 1 .079-.09 2 2 0 0 0 .16-.155l.1-.1.01-.011a.1.1 0 0 1 .022-.018.4.4 0 0 1 .138.008c.009.006.01.028.003.105Zm.65-.39-.019-.022-.043-.034c-.029-.036-.04-.054-.04-.064s.036-.056.047-.056a.1.1 0 0 0 .029-.023.4.4 0 0 1 .054-.046l.039-.029a1 1 0 0 0-.132.066 2 2 0 0 0-.145.162c0 .015-.023.029-.03.018s-.046.014-.046.046a.1.1 0 0 1-.019.034.5.5 0 0 0-.066.2.1.1 0 0 1-.021.039.14.14 0 0 0-.023.135l.01.016q.015.014.038-.024c.016-.024.022-.027.026-.02a.16.16 0 0 1-.019.1c-.023.054-.048.072-.059.051a.06.06 0 0 1-.007-.036v-.017a.1.1 0 0 1-.007-.03v-.03a.2.2 0 0 1-.014-.076 1 1 0 0 1 .057-.349 1 1 0 0 1 .083-.163.2.2 0 0 0 .021-.038 1.2 1.2 0 0 1 .207-.212l.048-.032a1 1 0 0 1 .17-.08.2.2 0 0 0 .039-.014.7.7 0 0 1 .209-.04 1 1 0 0 1 .138 0h.094l.027.006.033.009h.016c.043.013.064.05.1.068a1 1 0 0 0-.134-.051l-.063-.016a2 2 0 0 0-.226-.01l-.067.01a.4.4 0 0 0-.123.029.1.1 0 0 1-.034.012 1 1 0 0 0-.169.082.1.1 0 0 1-.025.016 1 1 0 0 0-.158.142.1.1 0 0 1-.019.023.3.3 0 0 0-.048.068l-.024.038a.1.1 0 0 0-.015.036q-.002.015.008.012l.052-.059a.5.5 0 0 1 .079-.081c.019-.014.062-.05.094-.08a.3.3 0 0 1 .081-.059.1.1 0 0 0 .04-.016 1 1 0 0 1 .123-.052c-.023.009-.049 0-.071.015-.06.027-.1.035-.1.022a.16.16 0 0 1 .069-.047.03.03 0 0 0 .02-.009.2.2 0 0 1 .08-.036.03.03 0 0 0 .018-.006.34.34 0 0 1 .137-.033l.076-.01a1 1 0 0 1 .177.009l.047.009.009.016h-.133l-.077.017h.059a.5.5 0 0 1 .308.07c.03.029.032.029.049.016a.06.06 0 0 1 .035-.01q.012.002.01-.007a.9.9 0 0 1 .238.155l.006.009.026.036.042.066q.023.033 0 .031c-.015 0-.02.011-.006.03s.013.048.007.048a.04.04 0 0 1-.028-.019l-.008-.014-.017-.027a.023.023 0 0 1-.009-.031l.009-.009a.02.02 0 0 0 .012-.015.03.03 0 0 0-.007-.015c-.012-.012-.013-.012-.013 0s-.023.023-.054-.009c-.055-.059-.054-.058-.082-.058s-.034-.006-.064-.028l-.066-.046-.056-.041a.1.1 0 0 0-.045-.022.2.2 0 0 1-.049-.01 1 1 0 0 0-.162-.008l.013.009.014.029.029.078a.5.5 0 0 0 .04.107c.013.015.025-.006.053-.054.066-.113.071-.117.115-.089l.014.012c.015.018 0 .047-.078.165l-.105.164.053-.086c.019-.035.055-.092.079-.126a.2.2 0 0 0 .043-.074.02.02 0 0 0-.011-.016c-.018-.01-.019-.009-.027.012s-.009.018-.015.016-.024.015-.065.086-.051.082-.117-.107a.1.1 0 0 0-.022-.045h-.004a.4.4 0 0 0 .033.1l.042.114a.1.1 0 0 0 .02.036.02.02 0 0 1 .007.017.8.8 0 0 1-.089.163l-.076.124h-.028c-.035 0-.031.009-.119-.142-.057-.1-.072-.128-.069-.148v-.015c.006-.01.022-.059.067-.2q.014-.043.009-.049c-.003-.003-.016.021-.026.042a.1.1 0 0 0-.011.03 1 1 0 0 1-.047.135c-.012.01-.018 0-.06-.062a.4.4 0 0 0-.058-.074q-.018-.014-.019-.023c0-.005-.027-.013-.037 0l-.007.011c0 .014.011.034.045.079.052.069.088.127.225.332a.7.7 0 0 0 .09.121s-.01.009-.014 0a6 6 0 0 0-.135-.2c-.1-.147-.171-.257-.209-.3q-.02-.023-.025-.023a.1.1 0 0 0-.031.019l-.036.024c-.025.008 0 .059.09.168l.041.05.042.051.054.069.043.055.012.015.022.027.017.022.008.009c.006.007.009 0 .022 0s.019-.011.028 0 0 .029-.017.032-.012 0 0 .027a.036.036 0 0 1-.006.054s0-.008-.007-.008a2.4 2.4 0 0 0-.22-.294 3 3 0 0 1-.117-.149c-.05-.069-.06-.076-.081-.053l-.008.012.01.011.018.026a.4.4 0 0 0 .055.074c.032.037.05.057.047.069s-.036.016-.12.018q-.099.001-.107.014v.008a2 2 0 0 0 .257-.014c.016-.008.036.013.136.136s.1.136.081.149l.014-.007a.03.03 0 0 1 .014-.009s.008 0 .01.012l-.019.01c-.016.007-.06.02-.092.03s-.054 0-.092.016l.072-.024a.4.4 0 0 0 .054-.019l-.066.02-.146.04c-.054.018-.071.021-.073.015s-.033-.026-.048-.04c.007.007.016.015.016.02s-.032.022-.1.04a.1.1 0 0 0-.036.018c.021-.012 0-.027.04-.038s.069-.018.055-.035a.4.4 0 0 0-.06-.049.6.6 0 0 1-.1-.082c-.029-.035-.019-.063.006-.146s.024-.08.058-.085a1 1 0 0 1 .168-.017c.053.004.06.004.023-.041Zm-.022-.377a.4.4 0 0 1-.067.052c-.014 0 0-.018.016-.034a.1.1 0 0 1 .044-.024c0 .006 0 .007-.006.014Zm-.081.062-.014.011v.006q-.01.008-.013 0c-.002-.006 0-.007 0-.018l.009-.006h.004Zm1.322.294.006.01q.009.015 0 .023c-.006.005-.016-.006-.024-.015a.03.03 0 0 1-.009-.018q.006-.023.03-.003Zm-.554-.067a.01.01 0 0 1-.011 0v-.011h.011c.004 0 .003.006.003.008Zm-.153.316q.011-.02.024-.038l.059-.088-.007.011a2 2 0 0 1-.073.112Zm.039.044a.015.015 0 0 1-.014.016h-.011a.015.015 0 0 1 0-.022h.019Zm-.022.817c0 .045.009.064.019.067h-.036s-.006-.007-.01-.007h-.089v-.18a.1.1 0 0 0 .056.008h.052v.05a.2.2 0 0 0 .011.059Zm.006-.435v-.007l.007.045v.053c.003-.033-.002-.069-.004-.094Zm-.116.31v-.061a.1.1 0 0 0 0 .032c.006.017.015.008.03.008h.02s0 .009-.027.011-.025.007-.026.011Zm.049-.538a.1.1 0 0 0-.031 0 .02.02 0 0 1-.026-.009.034.034 0 0 1-.01-.044h.013a.2.2 0 0 1 .1-.01l.008.005a.04.04 0 0 1 0 .037q-.023.034-.057.022Zm-.062-.105a.02.02 0 0 1 .015 0h.013l-.006.009-.012.006h-.006Zm.066-.073h.011v.007Zm-.2-.327a.01.01 0 0 1-.008.01v.048l-.015-.019q-.02-.022-.015-.028h.016v-.019h.01a.01.01 0 0 1 .012.009Zm-.061-.092h-.028c0 .014-.072-.075-.074-.1 0-.008.016-.006.02.009a.03.03 0 0 0 .022.02.04.04 0 0 1 .025.022.1.1 0 0 0 .019.03.03.03 0 0 1 .016.02Zm.124.376a.012.012 0 0 1-.011.018h-.007v-.007a.013.013 0 0 1 .013-.013Zm0 .241a.02.02 0 0 1-.019.021.02.02 0 0 1-.015-.006.016.016 0 0 1 0-.024l.009-.001q.019-.002.024.006Zm-.258.007a.2.2 0 0 0 .052-.01l-.019.006a.2.2 0 0 1-.052.01h-.018l.019-.011a.3.3 0 0 1 .051-.019l-.036.014-.019.011Zm-.288.295c-.008-.028 0-.036.125-.087.147-.062.154-.066.1-.061h-.04l-.013-.022a.1.1 0 0 1-.013-.037c0-.009 0-.013-.014-.013a1 1 0 0 0-.091.026c-.083.03-.1.033-.114.015s.028-.017.028-.027c.006.013.013.021.069 0a1.4 1.4 0 0 1 .219-.066c.088-.021.151-.04.2-.057l-.08.027c-.015.006-.012.019-.012.041s0 .035-.022.045-.045.032-.033.032l.023-.008.022-.008.1-.046c.109-.049.151-.061.168-.04a.1.1 0 0 1 .01.032v.016h-.007v.108a2 2 0 0 1-.007.2v.071-.103q.002.03-.006.031c-.006 0 0-.011-.006-.03v-.035h.012v-.081.049-.224h-.009v-.006c-.013-.008-.041 0-.193.07-.073.032-.364.15-.389.158a.02.02 0 0 0-.014.018.03.03 0 0 0 .008.023h.022a.03.03 0 0 1 .023-.006.3.3 0 0 0 .081-.026c.043-.018.036 0 .051 0-.135.053-.177.068-.192.052a.05.05 0 0 1-.005-.03Zm.621-.247v.017Zm-.364.589a.3.3 0 0 1-.056-.05c-.011-.012-.014-.02 0-.015q.043.017.027 0l-.016-.017a.1.1 0 0 1-.021-.021q-.011-.013-.006-.024l.006-.037a1 1 0 0 1 .025-.107.3.3 0 0 0 .02-.1c0 .005.027-.01.026 0a.1.1 0 0 1-.007.034l-.007.036a.5.5 0 0 0 .032-.115c0-.027.009-.033.057-.055l.145-.068c.065-.031.093-.043.109-.04s.016 0 .017.016v-.031.415a.3.3 0 0 1 0 .081c0 .036-.009.081-.01.1v.045s0 .007.011.009h-.045a.4.4 0 0 1-.086-.006.4.4 0 0 0-.084 0h-.016l.024.013a.7.7 0 0 1-.144-.062Zm.168.079.013-.008a.7.7 0 0 0 .237.009h.036a.7.7 0 0 0 .147.006.1.1 0 0 1 .035-.011l.073-.026a.7.7 0 0 0 .318-.218.74.74 0 0 1-.858.249Zm.4-.169a.4.4 0 0 1 0-.069q.001-.035.029-.017a1 1 0 0 1 .148.1.04.04 0 0 0 .03.014c.011 0 .02 0 .022.009s.025 0 .043-.01l-.061.036-.03.017a1 1 0 0 1-.089.034c-.03.01-.014.01-.024.016s-.044.009-.067.012c0 0 .01 0 .011-.009v-.017a.02.02 0 0 1 .006-.015v-.015l-.021-.085Zm-.008-.1.011-.007s-.004.013-.014.013Zm0 0h-.006a.01.01 0 0 1 .009-.007c-.012.006-.009.008-.009.011Zm.5-.012a.3.3 0 0 0-.051.049c-.036.038-.087.044-.128.074.043-.035.077-.067.077-.077s-.034 0-.1.045-.073.042-.115.013l-.059-.037a.5.5 0 0 1-.123-.09l-.016-.018v.071a.5.5 0 0 0 .01.094.4.4 0 0 1 .01.129.3.3 0 0 0-.009-.12.4.4 0 0 1-.009-.1 3 3 0 0 0-.022-.275v-.062a.13.13 0 0 1 0-.067c0-.013.017-.016.035-.012h.014v.026c0-.019.01-.021.017-.028h.01-.008s.008-.009.015-.008l-.006-.015a.03.03 0 0 0-.025.013l-.013-.009c-.027-.014-.025 0-.035 0s-.022.039-.029.034q-.01-.01 0-.026h-.01a.4.4 0 0 0 0 .093v.117a2 2 0 0 0-.025-.191c0-.012.005-.012 0-.026s.016-.043.053-.042.032 0 .032-.008 0-.008.008-.011h.019a.02.02 0 0 1 0 .017v.015a.2.2 0 0 0 .045.022q.033.018.034.023h-.035a.5.5 0 0 1 .119.039c.063.022.118.042.122.042a.1.1 0 0 1 .06.045c.009.036.015.042.028.03s.016-.01.084.016a.4.4 0 0 0 .095.026h.016v.006h.008c0 .007.011 0 .017-.009a.2.2 0 0 1-.009.061l.013-.008a.7.7 0 0 1-.125.143Zm.006-.23h.018l.014.005a.03.03 0 0 1-.025-.006Zm.092.022a.02.02 0 0 0-.011-.01c.006-.011.014-.027.016-.023s-.016.026-.016.037Zm-.062-.143-.4-.109c-.119-.031-.174-.048-.188-.07s0-.037.031-.07q.046-.049.034-.063c-.008-.01 0-.016.015-.012a1.1 1.1 0 0 0 .275-.333.4.4 0 0 1 .047-.065c.014-.013.024-.009.04 0l.011.011c.02.025 0 .058-.058.139q-.037.045-.03.055c.006.008.037.008.094.009a1 1 0 0 1 .109.008.03.03 0 0 0 .021 0 .03.03 0 0 1 .019.01.4.4 0 0 1 .063.159l.007.03-.028.029a1 1 0 0 1-.1.086q-.063.047-.058.062c.005.01.023.011.056.019a.26.26 0 0 1 .126.055.04.04 0 0 1 .005.041c-.034.03-.05.031-.102.013Zm.143-.228h.009a.2.2 0 0 1-.032-.075l-.02-.08-.013-.052.01.021a.2.2 0 0 0 .014.041.2.2 0 0 0 .032.072l.019.021.018.02a.06.06 0 0 1 .017.038c-.015.038-.041.026-.065-.002Zm.035-.6-.015-.02-.032-.042a1.093 1.093 0 0 0-1.514-.106 1.15 1.15 0 0 0-.367.626l.011-.008c-.009.052-.02.069-.046.073l-.078.01a.3.3 0 0 0-.078.021c-.022.014-.078.02-.082.008l-.007-.014c.006 0 .023 0 .023.008s.014.016.04 0a1 1 0 0 1 .148-.039c.029-.006.033-.012.047-.074a1.18 1.18 0 0 1 .416-.663c.028-.022.059-.049.07-.06q.017-.018.029-.017a.3.3 0 0 0 .089-.035 1.1 1.1 0 0 1 1.309.259q.045.053.056.063c.007.006-.022.024-.03.015Zm.027-.193a.03.03 0 0 1-.02 0 .2.2 0 0 1-.047-.033 1.2 1.2 0 0 0-.285-.184 1.26 1.26 0 0 0-.992-.031.2.2 0 0 1-.05.019c-.007 0 0-.008 0-.026v-.015a.2.2 0 0 0 .047-.018 1.26 1.26 0 0 1 .992.031 1.2 1.2 0 0 1 .289.186.2.2 0 0 0 .043.031.03.03 0 0 0 .019 0h.023l.036.018q.037.015.045 0v.01a.03.03 0 0 1 0 .019c0 .026-.011.031-.045.013a.2.2 0 0 1-.041-.02Zm-13.995-.397h-.002v1.639h.511v-.537l.002-1.104h-.511Zm5.999 2.212h.982v.097h-.982ZM6.47 18.249v.761h.49l.002-.761H6.96Zm-.156 3.273h.824v-2.019h-.824Zm.08-1.905h.645v1.794h-.642Z"/></svg>