<svg xmlns="http://www.w3.org/2000/svg" fill="#44739e" width="24" height="24" version="1.1" viewBox="0 0 24000 24000"><path d="M10192 21300a1400 1400 0 00 286 70c53 6 80 15 83 27 6 30 61-16 61-50 0-36 0-30-174-43-248-15-280-16-256-4Zm9170 533c235 0 423 0 560-7h-560zm-1143-7v12h980v-8Zm-2611 3v10h981v-10zm-1142 0v7h980v-10zm-1145 4h980zm-503-2h-10zm4121 5h-223 182zM10255 20100c11 8 13 13 0 13s0-12 0-22c-16-5-16-3 0 10zm9567 1382a864 864 0 00 147-332c16-86 17-86 89-95 72-9 79 0 50-186a990 990 0 00-430-717 528 528 0 01-66-52 1580 1580 0 00 233-49 1384 1384 0 00-138 20 300 300 0 01-210-8 1012 1012 0 00-1354 1030v132l28 26 75 70a1438 1438 0 01 145 150l40 58h-6093a710 710 0 01 147-187c64-65 75-72 125-72h10l114 120h4274v-48H12730l-71-70v-100l693-10 1313-15c3024-33 2822-23 2926-134a11348 11348 0 00 1009-1840l26-100 340-6c189 0 417-8 508-8a2000 2000 0 00 622-89c25-40-51-108-361-325a1500 1500 0 00-783-280 12338 12338 0 00-2011-240 4886 4886 0 00-3670 924 1424 1424 0 01-230 140c-17 0-23 0-14 6 9 7 0 25-33 62a987 987 0 00-100 163l-54 107 8 263A4736 4736 0 00 13000 20898c30 122 56 227 56 233a785 785 0 01-200 12h-200l-7-70-18-142a1008 1008 0 00-1448-837l-107 50-80-84c-70-73-78-87-64-105 14-18 14-19 0 0-14 20-40 0-156-125l-135-142-130 10a3850 3850 0 00-634 115c-123 33-167 40-177 30-10-12-10-13 0-7a500 500 0 00 148-30c73-20 189-50 257-64 128-26 157-37 100-38-17 0-24 0-16-8a17 17 0 00 8-24c0-10 0-18 9-18s12-9 8-20a58 58 0 01 5-44c17-33 7-32-110 12-230 85-445 210-430 250 6 14-105 54-158 56-27 0-28 0-6 11s20 12 10 18a31 31 0 01-28 0c-7 0-13 0-13 12a18 18 0 01-16 20c-10 0-10 0 0 13 9 13 16 15 0 21-16 6-14 8 0 20 14 10 14 12 0 17-14 5-12 13 0 31 12 22 8 27 0 27s-16 33-21 73a4750 4750 0 01-32 192c-28 143-13 217 24 121 89-226 168-299 348-318 53-6 94-7 90 0-2 7 25 16 50 10 7 0 9 19 0 44-7 54 9 60 29 10 20-50 166-200 166-176a432 432 0 01-64 80c-35 37-61 73-56 80 5 7 0 13-7 13s-10 5-6 12 0 13-6 13-11 6-7 13c4 7 0 12-7 12s-13 0-10 8a144 144 0 01-21 67 1744 1744 0 00-78 233 953 953 0 01-57 173 2152 2152 0 01 92-364c25-76 24-110 0-84a1883 1883 0 00-100 330c-27 133-62 170-200 213l-100 30-34-45a1596 1596 0 00-63-78l-30-33 22 35c10 20 16 34 10 32a141 141 0 00-54 10l-40 16v140c0 116 0 140 18 140a18 18 0 01 20 17c0 10 12 14 42 10 30-2 46 0 57 22 10 20 27 27 72 27h58l-10-87L9557 21000l73-10c68-8 75-6 100 20 160 200 233 200 375-26a490 490 0 00 79-410c-10-87-54-84-193 14-55 38-100 64-100 57 0-126 193-508 246-487 10-1 20-1 20-6s16-10 35-7c20 3 30 0 16-10-15-8-10-11 23-5s55-17 14-30c0 10-10 23 0 23s8 0 0-13-16-13 0-10c0-5-12-8 0-13 12-5 18-14 13-14-5 0 0-10 12-25 12-14 26-22 30-18 6 4 12 0 12-8 0-10 6-10 13-7a16 16 0 01 0 22c-5 8 0 10 6 0a24 24 0 00 7-27c-8-20 80-90 240-187l100-63 187 200 187 195-41 32a1000 1000 0 00-411 890c6 200 13 230 48 210 60-31 149-15 164 32a944 944 0 00 82 144l68 100-65 6c-36 0-174 13-306 20a5985 5985 0 00-766 79c-233 53-160 86 316 143 100 12 1214 22 2655 30h1655v-8h981v10h165v-10h980v10h170-42 224-12 176v-8h980v7h166v-13h979v8h162v-7h750c610-25 860-63 810-122a2270 2270 0 00-853-120c-346-25-321-16-261-104zm-638-2907a1800 1800 0 01 323 258c0 26-68 32-428 36-400 0-414 0-422-52a65 65 0 00-32-40 3685 3685 0 01-308-369 4792 4792 0 01 867 167zm-2720-306a222 222 0 01 90-15l350 11a7781 7781 0 01 800 61 1893 1893 0 01 192 272 1432 1432 0 01-60 351c-5 0-223 15-484 23l-680 22-203 6 7-87a582 582 0 00-84-327 279 279 0 01 73-317zm800 826c330-10 770-24 972-28l370-9-7 43a1090 1090 0 01-174 395c-7 0-10 0 0 6s-43 131-57 122c-14-9-7 0 0 15s0 20-10 11c-8-8-12 0-7 0a10882 10882 0 01-753 1324c-94 108-192 118-1220 125h-509l-7-430a6641 6641 0 01 35-1019l40-235a1200 1200 0 01 61-269c6-3 565-29 1270-46zm-3192-344a3182 3182 0 01 1476-457c90-7 180-13 200-13 42 0 100 44 100 75s-200 674-213 686a2555 2555 0 01-280 23c-513 27-930 50-989 58l-58 6-33-76c-50-118-130-100-120 20v63h-64c-60 0-62 0-42-20a193 193 0 00-42-269c-48-18-43-26 67-90zm-245 183c80 20 100 18 64-7a56 56 0 01-20-30c0-45 70-58 130-26 63 32 76 70 50 186-14 60-13 57-64 67l-43 10 7-60c8-68 0-78-66-74-34 0-40 0-26-10a127 127 0 01 50-14c20 0-30-12-106-26a415 415 0 00-170-11c-30 12-32 12-8-6a273 273 0 01 204 0zm-50 81c6 0-13 26-44 57a280 280 0 01-70 58c-5 0 14-26 45-57a280 280 0 01 70-58zm-885 405c50-88 46-87 222-90 176-5 175 0 286 80a269 269 0 00 90 50q23 0-10 11c-30 10-29 10 11 11a558 558 0 01 185 47c22 10 50 23 65 28 14 5 24 10 0 39-24 29-30 23-30 17 0-6-20-8-47 0a2348 2348 0 01-256 20l-260 12-112 7c-33 0-60 8-60 13 0 5-18 12-40 15-24 3 10 0 74 0a475 475 0 00 114-8s0-6 10-6c12 0 12 0 10 10-2 8 15 12 25 0a1300 1300 0 01 200-13c345-6 484-22 426-48h12c12 0 30 0 35-6a51 51 0 01 40-14 46 46 0 00 45-33c10-19 22-29 33-25a37 37 0 00 30 0 181 181 0 01 48-10 1918 1918 0 00 248-30c44-12 39-35 0-29a49 49 0 01-42-13c-8-10-14-10-18 0-4 13-35 10-91 0a594 594 0 00-125 0 274 274 0 01-207-58 100 100 0 00-93-38c-51 0-112-40-92-60 20-20 670-49 1520-100 888-50 847-50 840-30-7 22-20 70-36 134-24 94-34 117-53 117-20 0-22 6-22 12s9 9 20-1c10-9 20 0 12 60l-33 214c-13 110-20 300-24 775l-6 628-951 8c-524 0-1144 12-1378 16l-426 8-14-50a3962 3962 0 01-177-1668zm917 140c0-8 23-13 50-13 27 0 50 0 50 12s-22 13-50 13c-28 0-47-7-47-14zm-4240 625h-45c28-13 123-29 112-19a163 163 0 01-66 20zm300-183a142 142 0 00-68 35l-40 35 7-35a100 100 0 00-9-73c-20-36-18-38 10-49 87-32 91-30 85 7-5 38 0 35 16 33 16-2 20 7 20 22 2 15 0 27-15 27zm175-43c-54 23-85 22-33 0a179 179 0 01 57-18c16 0 5 7-18 18zM9740 20980c-17-15-38-18-92-10-80 10-100-12-24-25a390 390 0 01 60-6c75 11 90 14 100 25 10 11-14 38-38 16zm546-1169c15 10 10 12-16 12-27 0-35-6-35-12s32-16 57 0zm-13 126c-72 65-130 90-77 33 20-20 24-32 12-36-12-4-10-8 6-13 15-5 20 0 15 0-8 0 14 13 40-10a164 164 0 01 45-31c20 0 0 24-40 60zm1346 500c0-12 6 0 5 28s0 38-5 22a140 140 0 01 6-53zm-56 288c0 10 0 33 10 51 8 18 0 28-9 10a81 81 0 01-10-52c10-18 14-22 15-12zm-70 222a1844 1844 0 01-345-59c-17-10-17-12 0-7a1200 1200 0 00 235 31c28-6 20-9-77-38-97-28-38-22 100 13 138 35 206 72 92 58zm-128 354-30-28c-34-30-82-107-66-100 16 7 44 0 38-19a36 36 0 01 14-35c20-15 20-14 0 6s-10 22 0 22a119 119 0 00 43-25l30-24 20 34a65 65 0 01-17 92 32 32 0 00-14 20 15 15 0 01-16 10c-10 0-12 8-8 24zm123-968c7 0 13 12 13 28s-25 12-25-17c6-8 10-12 18-12zm-124 456c18-29 48-35 48-10s-50 53-60 43c-10-9 10-19 18-35zm-15-39a89 89 0 00-50 26c-35 34-52 0-20-39s30-27 73-16c40 11 34 26 3 26zm0-78c28 22 28 22 0 24a34 34 0 01-34-17c-3-30 6-36 38-10zm-122 30c16-16 73-20 73-6a239 239 0 01-78 80c-10-3-10-60 10-74zm-173 92 100 31 44 13-45-6c-54-7-70 0-40 28 30 28 16 15-15 0s-30-18-22-20c8-5 16-29-10-29a100 100 0 01-46-19c-30-23-28-23 38-2zm-32 130c0-13 27-10 240 23 215 33 200 40-25 11a4829 4829 0 00-187-23c-16 0-24-8-24-14zm278 378c57 48 24 140-34 92a647 647 0 01-100-108c-12-36 94-24 138 16zm-56 216c-18-12-32-25-32-29s8 0 20 8c10 8 42 6 113-109 43-68 65-93 80-88a34 34 0 00 35-15c27-35 20-8-13 57-50 106-160 200-200 174zm200-55a446 446 0 00-48 128s0 7-7 7c-37 0-31-30 26-135 104-185 116-185 32-3zm56-270c0-12 0-10-20 0-18 11-10-19 30-77 42-58 50-66 60-52a141 141 0 01-17 70c-18 53-41 84-41 56zm40 333c0-42 18-55 43-36 25 20 22 21 6 32s-44 14-43 1zm70-1219c13 0 14 6 6 22a70 70 0 00-5 42v10a86 86 0 01-10-42c0-24 8-38 20-38zm16 544c-20-30-30-128-15-137a74 74 0 00 20-46c0-20 10 12 18 73 17 107 10 143-12 107zm583-214c0 7-6 10-13 6-7-4-12 0-12 6s-6 11-13 6c-7-5-13 0-13 0s-20 20-47 31a2080 2080 0 00-177 100 1092 1092 0 01-138 71c-7-7-17 0 200-124 217-124 220-120 220-99zm-430-105 48 18c22 8 27 15 17 26a363 363 0 00-28 70c-18 60-21 61-70 40-24-12-31-25-31-57a244 244 0 00-12-74c-6-37 28-47 82-26zm30 844c-76 25-72 26-65-10 0-19 0-30-5-26s-18-43-13-74c0 0-8-10-20-10-12-2-12 0 10-12 47-15 58-14 75 6s15 20 10 20 10 14 30 32c60 40 57 47-16 70zm214 138a1429 1429 0 00-230-300c-10-12-13-20-7-20a207 207 0 01 54 56c35 45 46 53 60 41 16-12 10-25-40-76-50-50-64-58-79-46-12 12-102-73-97-100 5-27 20-20 152 114 150 152 237 300 200 328-3 6-8 7-3 0zm130-120-24 27-176-167-177-170h6a1973 1973 0 01 180 157c146 136 173 156 190 142 20-14 20-10 4 7zm-230-509a478 478 0 01 90-46 259 259 0 01 87-30 643 643 0 01-170 71zm172 60v65h-152v-48c0-39 0-45 33-47a176 176 0 00 68-28c50-32 58-24 58 55zm142-179-47 15c-18 6-16 0 6-10s30-18-38-10a166 166 0 00-74 19 11 11 0 01-17 0c-16-10-150 58-142 72 8 14 0 7-10 0a33 33 0 00-35 13c-13 16-12 20 8 21 20 1-93 60-126 61-100 0 262-200 380-208a932 932 0 00 100-15 12 12 0 01 17 12 29 29 0 01-15 30zm7380-110a214 214 0 00 49-35c8-12 24 0 24 18s-6 8-13 0c-7-8-12 0-12 0s-20 20-45 32c-48 31-51 14 4-18zm-280 155 154-85c40-23 72-37 72-30a221 221 0 01-72 48c-40 20-106 56-147 80a265 265 0 01-80 37s37-30 80-53zm-105-209c33 13 44 35 26 54a56 56 0 00-12 28c-7 50-15 56-47 41s-46-44-46-100c0-46 17-50 79-23zm-186 106 8 38c8 38 0 55-10 41a82 82 0 01 0-43zm-40-220c29 177 22 180-12 0a1000 1000 0 01-25-156c9-9 16 20 37 151zm-200 236c22-32 60-52 42-22v12a128 128 0 01 45 30c52 48 10 91-70 73a154 154 0 00-66 0c-14-2 10-50 44-98zm-243 80c17 5 127 34 243 63 150 38 212 60 212 72 0 13-10 16-34 11a3031 3031 0 00-162-20c-128-17-357-100-340-130 17-28 30-17 76 1zm-100 112c0-12 28-16 39-7 10 10 100 18 212 34 245 35 253 48 10 20-240-30-267-39-267-52zm342 281c-34-48-33-55 9-86 58-42 62-43 76-13 14 30 7 41-13 82-36 57-43 60-78 11zm32 100c10 26 0 43-20 26a24 24 0 01 0-30c3-17 7-16 14 3zm125 110a1557 1557 0 00-73 174c0 18-17 21-27 0a1037 1037 0 01 89-193c108-206 110-203 9 14zm-220 114c-30-17-36-30-8-19 13 0 39-24 83-92a464 464 0 01 76-100 38 38 0 00 19-10c6-8 0-9-5 0s-16 0-16 0 22-30 32-15c10 15 30 0 23-19-8-19-12-16-18-12-6 4 0-10 10-32 12-20 27-38 33-38 6 0 6 5 0 12s0 13 6 13 17-19 0-35 0-33 20-66c32-53 48-64 60-43 38 53-260 481-320 450zm352-890a52 52 0 00 0-49c-10-15-12-15-6 0a49 49 0 01 0 36c-5 10-13-10-18-50a574 574 0 01 10-200 419 419 0 00 7-48 20 20 0 01 17-24c10 0 16 40 20 143 0 78 5 160 8 180 20 160 22 234 0 234s-62-178-44-225zm40 592c37-32 140 0 129 45 0 7 0 10 8 5a15 15 0 01 20 0c9 14-48 47-93 53-34 8-86-87-70-104zm73 285v-25a390 390 0 01 85-70 1068 1068 0 01 90-58 168 168 0 01 46 80c-10 34-222 106-227 72zm329-6a13 13 0 01-20-7 863 863 0 00-73-95c-47-56-67-88-63-107 4-19 0-27-8-27s-10 0 0-10c10-12 0-20-17-33-17-12-27-16-32-10-5 6 0 20 12 30a154 154 0 01 33 41c7 15-10 0-40-30a286 286 0 01-50-70c0-7 5 0 12 6s14 17 28 0 13-16 0-8-15 5-10 0c5-5-6-12-25-10-20 0-44-13-72-47-28-34-34-52-26-60a745 745 0 01 225 200v6c0-4 42 20 100 126 23 70 30 97 20 104zm110-112-24 27-127-126a7450 7450 0 00-178-170c-28-26-45-46-38-46a2043 2043 0 01 182 160c146 134 172 154 190 140 18-14 5-6-10 12zm-285-400c0-40 19-60 38-37s57 27 44 0c-13-27 35-62 56-62a22 22 0 00 14-16c5-10 7-9 8 0a100 100 0 01-18 45 100 100 0 00-20 53c0 25-5 28-62 28s-70 8-70-9zm168 170c8-25 27-24 70 0 43 20 56 61 26 61-30 0-107-49-102-63zm207-400a20 20 0 00-23 0 3968 3968 0 01-470 190c-48 0-12-29 140-109 187-97 371-142 371-87a25 25 0 01-24 2zm-9694 450h354-173c-195 0-277-3-181 0zm2402-1410v50c0 88 69 183 112 156a200 200 0 00 78-152V19800Zm34 111a61 61 0 01 6-45 48 48 0 01 28-16c8 0 0 8-7 17-7 10-32 40-10 27 22-13 16 6 0 30s-10 5-17-17zm112-36c27 30 14 34-15 6-11-10-17-23-14-26 3-3 16 2 29 16zm-26 60c-10-38-8-40 18-24s-5 68-42 68a55 55 0 01-38-10c0-8 0-10 19 0 19 8 24 0 18-18-11-17-11-22 9 0s20 17 13-17zm8083-930a1031 1031 0 01 100 45 28 28 0 00 30 0c9-6 12 0 7 0-38 60 226 110 315 58l60-35-80-17a400 400 0 00-100-10h-20a327 327 0 00-54-63c-50-46-53-50-24-45 45 10 94-47 72-83-22-36-38-20-84 30-26 27-34 30-60 17-28-13-34-10-43 0-48 78-409-318-450-495-7-28 0-37 28-53s30-20 20-20c-9 0-12-10-8-20s-7-20-40-30l-94-25c-80-22-84-14-8 18a207 207 0 00 88 22c8 0 0 6-14 24-14 18-25 35-20 40 3 3-50 24-216 60a1706 1706 0 00-130 30 5924 5924 0 00 725 551zm86 5c15 0 28 6 28 13 0 7-13 16-38 0s-13-13 10-13zm-2620 590c19-20 28-32 20-27-8 5-18 0-22-10s0-17 0-13 10 0 0-27c-11-50-16-55-47-68a1143 1143 0 00-600 64c-57 115 536 190 649 80zm-271 10c-140 14-267-10-180-33a715 715 0 01 273 8c-3 7-41 14-93 23zm-356-83c14-20 50-27 200-40 278-28 400-26 400 6 0 50-50 60-380 70-213 3-247-2-220-38zm1454-156c0 30 20-24 20-57 0-12 0-10-10 6a156 156 0 00-10 50Zm-7312-72c280-42 406-63 418-70a281 281 0 01 69-10 869 869 0 00 114-16 1149 1149 0 01 188-25c13 0 23 0 23-10a275 275 0 01 100 0c54 5 143 10 200 10h100l224-137a11833 11833 0 01 1445-780 500 500 0 00 76-40 1900 1900 0 01 450-106c10 8 33 10 70 0a14685 14685 0 01 4073 133c210 50 465-7 333-75a14027 14027 0 00-2200-208c-520-17-1428 0-1787 37a5090 5090 0 01-305 16 886 886 0 00-200 18 1343 1343 0 01-183 46c-274 55-350 77-322 94 28 17 20 18-28 0s-156 30-463 174c-128 60-140 75-100 123 40 48 25 42-47 78-72 36-506 285-676 390l-115 68-144 5c-133 0-150 7-208 42a287 287 0 01-107 40 225 225 0 00-70 11c-17 8-21 0-18-14 3-14-132-29-215 0l-34 10 33 12c60 24 100 42 72 35a1194 1194 0 00-326 37c0 7-6 0-13-5-7-5-16-14-20-7-2 7-33 12-68 11-34 0-60 0-56 7 4 7-14 8-38 6s-44 0-44 7-18 15-41 18c-23 3 0 0 48 0 126 0 69 13-184 57-230 31-242 44-27 17zm2452-889c0-30 15-38 143-80 216-74 212-54-10 50l-137 65zm-3394 963c0-25-10-24-207 18l-117 24c-5 0-5 0 0 11s-8 10-25 7a1118 1118 0 00-426 165c-147 100-151 112-16 51a2300 2300 0 01 266-112 4638 4638 0 01 917-200c143-22 308-50 367-64 59-13 79-20 45-16l-100 12a257 257 0 00-38 2 560 560 0 01-70 8 256 256 0 00-81 18c-15 15-36 15-27 0 9-15-13-7-40 0a1788 1788 0 01-128 24 754 754 0 00-92 20s-23 0-38-9c-15-8-23-8-20 0 5 8-32 28-100 28-30 1-54 8-58 17-4 10-12 8-12-6zm-83 18c0-6 7-10 24-9 17 1 27 6 24 11a34 34 0 01-51-2Zm8513-1355a226 226 0 01-13-80V17900l-67-13a438 438 0 00-110-7 989 989 0 00-292 140c22 4 448 42 476 42 28 0 16-7 6-26zm550 1263v-20a429 429 0 00-50 122 323 323 0 00 50-102zm-1513 2010v-45h5v-19h-5511v20h4475v43zm-2971-1603c55 12 66 11 76-6a71 71 0 01 50-20c23 0-15-7-85-12s-132-8-140-10c-43-7 47 41 99 48zm2945-63c15 0 26-6 26-13 0-6-8-10-18-10a32 32 0 00-26 11c-4 7 4 13 18 13zm-2620 15c-100 0-100 0-25 7a200 200 0 01 90 20c18 26 149-25 159-62 10-37-12-28-20-40 17 44-51 71-203 75zm200-82c-6-7 0-23-12-26-156-35-605 27-605 83 0 8 9 0 23-7a2000 2000 0 01 595-50zm0 0 4 7 4-6zm5445-367a120 120 0 01 12-57 53 53 0 00 8-40c-10-16-20-17-17 0 0 30 0 53-16 45-21-8-15 0-11 0a17 17 0 01 0 22c-10 6-10 15 0 30 10 13 10 16 0 10a2467 2467 0 00-1024 31c-70 44-57 60 50 64 77 0 100 15 182 91 25 24 38 45 33 58-5 13 0 15 12 0a450 450 0 01 268 20 544 544 0 00 158 11q132 0 140 12c19 30 133-15 134-50 0-37 0-35 52-20 25 7 26 0 22-70-6-96-10-100-88-113l-61-10h74c67-4 72-6 69-33zm-505 100a207 207 0 01-75-10c-12-9 0-12 39-12a207 207 0 01 75 11c14 12 0 15-40 15zm13-76c0-12 0-13 43 0 18 0 20 10 7 17-13 8-50 3-50-13zm136-19a400 400 0 00-65-10c-13 0-24-6-21-10 3-6 74-10 100 8 26 20 23 23-6 16zm150 43a64 64 0 01-100 10c-14-18-10-20 29-20a243 243 0 00 68-9c26-4 26-3 3 23zm115 74s-25-6-50-20c-23-14-35-26-28-26 7 0 85 43 78 50zm-852 502a1557 1557 0 00 122-222c0-12 0-7-70 114a779 779 0 00-52 111zm990 1051a81 81 0 00 37-26c12-14 17-25 10-25a77 77 0 00-36 25c-10 14-17 26-10 26zm92-117c-15 23-24 45-20 50a206 206 0 00 47-82c0-19-12 10-27 32zm-4170 497-130 71v48l130-75zm4010-316v11c0 11 16 13 35 12h34l-32-10zm56-95c130-138 136-150 127-300a448 448 0 00-75-269c-28-24-42-18-50 22-8 40-42 40-82 20-40-22-37-23-165 214-145 270-100 236-637 436-167 62-184 71-187 100-3 30 0 33 50 27a7050 7050 0 01 440-39 3394 3394 0 00 510-54c10-9 0-10-15-6-50 15-18-40 84-150zm105-163c0 12-15-6-32-40a200 200 0 01-26-76c6-18 59 88 58 116zm-1930 1235h980v-100h-420c-137 0-325 0-560 7zm-1143 0h980v-92h-980zm-1145 4h980v-95h-980zm-1466-5h980v-89h-980zm-1142 0h980v-89h-980zm-1145 4h980v-100h-980zm-1483-100h980v97h-980zm-1143 0h980v97h-980zm-1145 2h980v100h-980Zm-415-6205h-6v1138H9600V15630Zm375 933H9300v-727h210Zm-375-5540h400a154 154 0 00 160-145v-200a200 200 0 00 106-100l150 80a174 174 0 00 220-54l120-187a135 135 0 00-55-200l-653-340a183 183 0 00-233 55l-111 173a145 145 0 00 62 210l159 83a156 156 0 00-44 108 183 183 0 00 120 166v200h-400v145zm1320-96 282-438-324-43-161 251zM20460 21830h42v97h140v-97h42v-2l-112-1h-112zm-3702 103h140v-93h-140zm-3800-96H13000v96h140v-96h40v-2h-224zm-3759 0h42v96h140v-96h42v-2H9200Zm-4493-377h824v-2014h-824Zm75-1910h645v1791h-645Zm1065 71h511v1636h-510zm-146-435h824v-1200H5700Zm68-1076h670v927h-670Zm-238-1520v-717a881 881 0 00-484 208zm326 1602h490v760h-490ZM5700 21460h824v-2015H5700Zm80-1901h645v1790H5780Zm-1074-1738h824v-910h-824Zm87-774h645v676h-645Zm65 1146h490v760h-490zm21-1062h473v507H4880zm-173 2054h824v-1200h-824Zm63-1076h669v927h-669Zm79 1502h511v1636h-511Zm590-2990-531-393a980 980 0 00-136 188 617 617 0 00-65 228h720Zm746-546a891 891 0 00-485-206v714zm-394 567h733a611 611 0 00-66-228 983 983 0 00-140-188l-538 394Zm-90 1180h824v-910H5700Zm80-775h645v676H5780Zm3350-1417h5v-4608H9130v-193h6v-2000h1300L2000 1972V21930h2151v-6664h2880v6663h2100v-5165h-2Zm-2193-2790-2756-6v-87l8-3800v-90h2818v3975zm-1072 4290h473v508h-473zM4400 12600h2352l16-3520H4416zm163-3420H6620v760H4564zm14 832h27v38H6580v-38h26a431 431 0 01 0 211H6580v-38H4605v38h-28a431 431 0 01 1-211zm16082 9226c0 16 31 25 50 14 20-11 11-12-7-17-39-10-43-9-43 3zm-88 62a207 207 0 00 78 11c40 0 51 0 40-11a207 207 0 00-76-10c-40 2-50 10-40 10Zm-9968 92a34 34 0 00 47 0s-9-10-25-11c-16-1-24 5-24 10Zm10691 1299c0-28-52-134-58-116a200 200 0 00 26 76c17 34 32 49 32 40zm-586-1490c0-1 8 9 25 10a400 400 0 01 67 10c33 7 33 7 10-12s-90-28-100-9zm-1435 2210a390 390 0 00-85 70v25c0 34 218-38 218-73a168 168 0 00-46-80 1068 1068 0 00-87 58zm-1608-1835c-88 23 40 47 180 33 51-6 90-16 92-25a715 715 0 00-272-8Zm-1200-661-6 85 206-8 680-22a7210 7210 0 00 484-23 1432 1432 0 00 60-350 1893 1893 0 00-193-273 7781 7781 0 00-800-60l-350-12a222 222 0 00-88 15 279 279 0 00-73 320 582 582 0 01 80 328zm4550 401c23 14 45 23 48 20a210 210 0 00-78-46c-19-1 6 10 30 26zm-2368-499c8 56 20 57 422 52 360 0 428-10 428-36a1800 1800 0 00-323-258 4792 4792 0 00-867-167 3685 3685 0 00 308 368 65 65 0 01 32 40zm-4852 129c76 14 125 25 107 26a127 127 0 00-50 14c-14 10-8 13 26 10 65 0 74 6 66 74l-7 60 43-10c50-10 50-8 63-67 26-117 17-152-49-186s-130-19-130 25a56 56 0 00 21 31c30 25 15 27-64 6a273 273 0 00-200 0c-25 18-24 18 6 6a415 415 0 01 170 11zm7057 325a64 64 0 00 100-9c23-26 23-27 0-19a243 243 0 01-68 10c-42 0-46 1-32 18zm-7127-203c31-31 50-57 44-57a280 280 0 00-69 57c-30 31-50 57-44 57a280 280 0 00 70-57zm3268 2268 131-70h-4475l70 68h4274zm-4486-1472c12-9 15-17 7-17a48 48 0 00-28 16 61 61 0 00-6 45c6 22 11 25 20 12 7-13 12-39 0-29-14 10-17-9 7-27zm1718-1539c-128 43-140 50-143 81v34l137-64c218-104 222-124 6-51zm6510 686c-23 0-25 0-10 13 15 13 38 16 38 0s-13-13-28-13zm-8143 861c-13-14-26-23-29-20-3 3 0 15 14 26 25 28 42 22 15-6zm5120-311c330-10 380-19 380-69 1-32-125-34-399-7-149 14-186 22-200 41-30 36 3 41 220 35zm-3810-6c1-7-22-12-49-12-29 0-50 0-50 12s22 13 50 13c26 0 50-6 50-13zm-3858 400c23-11 34-19 24-19a179 179 0 00-57 18c-52 23-20 24 33 1zm-194-37c5-38 0-39-83-7-28 15-29 17-10 50a100 100 0 01 11 76l-8 35 41-35A142 142 0 01 9862 20000c16 0 23-8 22-25-1-17-10-24-21-22-10 2-20-8-16-35Zm-229 1025c-78 13-57 34 23 24 54-7 75 0 92 11 17 10 68 6 46-16-20-22-26-14-99-25a390 390 0 00-62 6zm2902-986h-19a55 55 0 00 38 10c37 0 68-47 42-64-26-17-27-14-18 24 10 38 8 34-12 9s-20-23-13 0c7 23 2 26-18 20zm-2963 224a163 163 0 00 67-18c11-10-84 6-112 19-7 4 13 3 44-1zm721-372c-25-16-50-16-50 0s15 12 34 12c20 0 36-3 16-12zm-57 114c0-8 0-9-15 0s-17 10-6 13c10 3 8 15-12 36-53 57 6 32 78-33 38-35 60-59 45-55a164 164 0 00-47 32c-24 20-56 28-42 7"/></svg>
