<svg xmlns="http://www.w3.org/2000/svg" viewBox="0 0 24 24"><path fill="#44739e" d="M2 6.604h3.878v3.861H2Zm0 7.035h3.878V17.5H2ZM21.122 8.23c-.592-1.13-1.452-2.026-2.609-2.687-1.148-.669-2.583-1-4.287-1h-5.93v14.914h5.93q2.348.002 4.096-.922a6.64 6.64 0 0 0 2.713-2.609c.643-1.122.965-2.435.965-3.948 0-1.365-.296-2.617-.878-3.748m-3.426 3.757c0 .739-.139 1.409-.409 2.009-.278.591-.67 1.061-1.183 1.4s-1.139.504-1.878.504H12.53V8.117h1.696c.722 0 1.348.157 1.87.487s.921.774 1.191 1.357c.278.574.409 1.252.409 2.026"/></svg>