<svg xmlns="http://www.w3.org/2000/svg" viewBox="0 0 24 24"><path fill="#44739e" d="M21.94 11.142h-.44a.3.3 0 0 0-.156.077l-1.654 2.17a.061.061 0 0 1-.11 0l-1.544-2.17a.23.23 0 0 0-.17-.077h-2.931a.1.1 0 0 1-.093-.093v-.717a.18.18 0 0 0-.187-.187h-4.51a2.5 2.5 0 0 0-1.311.28.76.76 0 0 0-.453.657c0 .28.233.56.687.827.123.077.547.28 1.263.61.454.22.7.39.687.56-.03.28-.28.374-.873.374H7.414c-.063 0-.123-.017-.123-.064 0-.03.017-.046.047-.063a1.5 1.5 0 0 0 .81-1.31c0-.857-.7-1.874-3.511-1.874h-2.45a.18.18 0 0 0-.187.187v3.34a.18.18 0 0 0 .187.187h8.848a2.56 2.56 0 0 0 1.31-.28.74.74 0 0 0 .437-.657c0-.28-.234-.547-.687-.827-.11-.076-.547-.28-1.264-.61-.453-.2-.686-.373-.686-.513q0-.42.89-.42h2.074a.1.1 0 0 1 .093.093v2.417c0 .36.233.78.95.78h5.694a.25.25 0 0 0 .2-.093L22 11.186c-.013.013.02-.044-.06-.044M4.264 13.449h-.61a.1.1 0 0 1-.094-.093v-2.731a.1.1 0 0 1 .094-.093h.61c1.5 0 2.277.61 2.277 1.45 0 .86-.797 1.467-2.277 1.467m13.665.017H15.3c-.361 0-.454-.11-.454-.39v-1.467a.086.086 0 0 1 .093-.077h1.531a.22.22 0 0 1 .14.064l1.373 1.793c.01.047-.004.077-.054.077"/></svg>