<svg xmlns="http://www.w3.org/2000/svg" viewBox="0 0 24 24"><path fill="#44739e" d="M22 10.514h-1.709l-4.425 4.406h1.716l1.174-1.171.646.638h1.792l-1.542-1.531Zm-3.515 1.171-.639-.638h-1.793l1.536 1.531Zm-3.828 1.323-.639-.637a.465.465 0 0 1 .334-.79h.319a.187.187 0 0 0 .188-.187v-.347h-2.647a.813.813 0 0 0-.813.811.8.8 0 0 0 .236.568l.646.644a.46.46 0 0 1 .132.326.465.465 0 0 1-.465.464h-.994a.71.71 0 0 1-.708-.707v-1.565h.611a.187.187 0 0 0 .188-.187v-.347h-.8V9.329l-2.077.908v.817H7.161V9.08H5.619a.53.53 0 0 0-.535.533v1.441H3.973c-1.16 0-1.973.624-1.973 1.67a1.875 1.875 0 0 0 1.973 1.669h2.473a.71.71 0 0 0 .709-.706v-2.1h1.007v1.365a1.343 1.343 0 0 0 1.424 1.44h4.495a.81.81 0 0 0 .812-.81.83.83 0 0 0-.236-.575Zm-9.573.734a.116.116 0 0 1-.118.118H4.9c-.723 0-.987-.5-.994-1.136.007-.665.285-1.136.994-1.136h.187Z"/></svg>