<?xml version="1.0" encoding="UTF-8"?>
<svg width="24px" fill="#44739e" height="24px" viewBox="0 0 24 24" version="1.1" xmlns="http://www.w3.org/2000/svg" xmlns:xlink="http://www.w3.org/1999/xlink">
            <path d="m 6.42,8.048 v 3.373 A 4.123,4.123 0 0 0 5.177,11.235 C 3.422,11.235 2,12.176 2,13.592 c 0,1.595 1.422,2.36 3.177,2.36 a 4.088,4.088 0 0 0 1.24,-0.186 v 0.169 H 10 v -3.772 h 1.064 v 2.806 c 0,0 0.176,0.953 2.409,0.953 a 12.908,12.908 0 0 0 1.96,-0.25 1.687,1.687 0 0 1 0.605,-0.069 5.269,5.269 0 0 1 0.814,0.163 9.681,9.681 0 0 0 1.559,0.156 9.184,9.184 0 0 0 1.683,-0.107 c 0.892,-0.15 2.246,-0.866 1.826,-1.852 a 3.1,3.1 0 0 0 -0.96,-0.97 C 20.843,12.905 19.912,12.234 20.687,11.961 A 1.84,1.84 0 0 1 21.1,11.909 c 0.127,0 0.534,0.01 0.534,0.01 l 0.094,-0.424 A 8.435,8.435 0 0 0 19.192,11.17 c -0.68,0 -3.092,0.247 -3.092,1.374 0,0.856 1.488,1.689 1.563,1.754 0.094,0.088 0.273,0.277 0.247,0.427 0,0.179 -0.283,0.628 -1.169,0.423 a 2.8,2.8 0 0 0 -1.429,-0.069 c 0,0 -0.54,0.072 -0.641,-0.123 v -2.793 h 0.954 V 11.238 H 14.658 V 8.7 l -3.584,1.526 v 1.009 h -1.06 V 8.048 Z m 0.114,6.914 a 1.414,1.414 0 0 1 0,-2.724 z"/>

</svg>