<svg xmlns="http://www.w3.org/2000/svg" viewBox="0 0 24 24"><path fill="#44739e" d="M14.708 3.131a4.2 4.2 0 0 0-2.034.485A4.6 4.6 0 0 0 10.18 7.02a4.37 4.37 0 0 0 .247 2.4 9 9 0 0 0 .383.852c-.732.051-1.472.093-2.204.161a.34.34 0 0 1-.307-.161 6.64 6.64 0 0 0-3.404-2.596.587.587 0 0 0-.783.204 8.2 8.2 0 0 0-1.626 2.723 8.5 8.5 0 0 0-.476 2.554 10.6 10.6 0 0 0 .145 2.264 7.5 7.5 0 0 0 .74 2.263 2.4 2.4 0 0 1 .332.511c.289.392.315.332.596.758l.246.272.273.162a14 14 0 0 0 3.591 1.191 14 14 0 0 0 2.664.29 12 12 0 0 0 1.362-.052 17 17 0 0 0 2.077-.272 20 20 0 0 0 2.281-.689 1.94 1.94 0 0 0 1.063-.656 8.5 8.5 0 0 0 1.618-3.719 8 8 0 0 0-.188-3.294c-.127-.485-.332-.936-.502-1.404v-.085a.315.315 0 0 1 .307-.332 5.5 5.5 0 0 0 1.114-.111 2.91 2.91 0 0 0 2.145-2.051 6.6 6.6 0 0 0 .119-1.583.434.434 0 0 0-.366-.502h-2.621c0-.085-.077-.179-.119-.264a4.5 4.5 0 0 0-3.481-2.638 4 4 0 0 0-.698-.085m-.391 1.064a3 3 0 0 1 .774 0 3.4 3.4 0 0 1 1.796.723 3.46 3.46 0 0 1 1.251 2.128 3.25 3.25 0 0 1-.255 2.077 8 8 0 0 1-.656 1.012.63.63 0 0 0-.076.664c.212.519.434.996.595 1.507a6.3 6.3 0 0 1 .213 2.732 6.6 6.6 0 0 1-.851 2.553 5.5 5.5 0 0 1-.655.97 1.8 1.8 0 0 1-.613.315 13.6 13.6 0 0 1-2.936.757q-.718.078-1.447.103a7 7 0 0 1-.953 0 15.3 15.3 0 0 1-2.868-.375 15.7 15.7 0 0 1-2.852-.987 1.7 1.7 0 0 1-.851-.979c-.247-.562-.442-1.225-.672-1.881a4.5 4.5 0 0 1-.128-.851 5.7 5.7 0 0 1-.068-1.064h-.051a15 15 0 0 1 .375-2.221 6.6 6.6 0 0 1 1.353-2.553.2.2 0 0 1 .196 0 5.6 5.6 0 0 1 2.723 2.442.5.5 0 0 0 .528.298c.706-.051 1.413-.136 2.119-.187.281 0 .562 0 .851.042h.962a.5.5 0 0 0 .536-.314.61.61 0 0 0-.213-.664 2.95 2.95 0 0 1-1.089-1.575 3.4 3.4 0 0 1 0-2.264 3.5 3.5 0 0 1 1.498-1.923 3.4 3.4 0 0 1 1.464-.485m1.412 1.574a.936.936 0 0 0-.953.851.945.945 0 1 0 1.881-.068.97.97 0 0 0-.928-.783m3.405 1.107h1.889c.332 0 .332 0 .332.34a2.68 2.68 0 0 1-.8 1.804 2.38 2.38 0 0 1-1.702.656 4.66 4.66 0 0 0 .289-2.817Z"/></svg>