<?xml version="1.0" encoding="UTF-8"?>
<svg width="24px" fill="#44739e" height="24px" viewBox="0 0 24 24" version="1.1" xmlns="http://www.w3.org/2000/svg" xmlns:xlink="http://www.w3.org/1999/xlink">
            <path d="m 4.218,14.2 a 18.945,18.945 0 0 1 2.672,1.1 c 3.589,1.645 5.549,1.975 7.752,1.3 a 12.824,12.824 0 0 0 5.368,-3.7 c 0.6,-0.666 0.62,-0.7 0.209,-0.407 a 11.412,11.412 0 0 1 -7.011,2.064 11.13,11.13 0 0 1 -4.244,-1.086 8.85,8.85 0 0 0 -5.3,-0.894 0.5,0.5 0 0 1 -0.16,0.013 c 0,0.1 0,0.2 0,0.309 0,0.362 0.013,0.748 0.036,1.146 H 3.596 A 3.3,3.3 0 0 1 4.218,14.2 Z m 0,-5.244 a 18.945,18.945 0 0 1 2.672,1.1 c 3.589,1.645 5.549,1.974 7.752,1.3 a 12.824,12.824 0 0 0 5.368,-3.7 c 0.6,-0.666 0.62,-0.7 0.209,-0.407 A 11.419,11.419 0 0 1 13.208,9.313 11.13,11.13 0 0 1 8.964,8.228 8.843,8.843 0 0 0 3.664,7.334 0.5,0.5 0 0 1 3.504,7.347 c 0,0.1 0,0.2 0,0.309 0,0.362 0.013,0.748 0.036,1.145 h 0.056 a 3.3,3.3 0 0 1 0.622,0.155 z"/>

</svg>