<svg xmlns="http://www.w3.org/2000/svg" viewBox="0 0 24 24"><path fill="#44739e" d="M20.476 2.001H3.526a1.525 1.525 0 0 0-1.524 1.524v.455h.011a9.9 9.9 0 0 1 5.944 1.004 12.6 12.6 0 0 0 4.761 1.218 12.8 12.8 0 0 0 7.861-2.316c.462-.324.449-.29-.234.458a14.36 14.36 0 0 1-6.02 4.149c-2.467.753-4.669.383-8.694-1.458a21 21 0 0 0-2.994-1.237 4.5 4.5 0 0 0-.635-.161v4.072h.011a9.9 9.9 0 0 1 5.944 1.004 12.6 12.6 0 0 0 4.761 1.217 12.8 12.8 0 0 0 7.861-2.315c.462-.324.449-.291-.234.457a14.36 14.36 0 0 1-6.02 4.15c-2.467.752-4.669.383-8.694-1.458a21 21 0 0 0-2.996-1.234A4.5 4.5 0 0 0 2 11.369v4.22h.011a9.9 9.9 0 0 1 5.944 1.002 12.5 12.5 0 0 0 4.76 1.218 12.8 12.8 0 0 0 7.862-2.316c.462-.324.448-.289-.235.458a14.36 14.36 0 0 1-6.019 4.149c-2.468.753-4.669.384-8.694-1.458a21 21 0 0 0-2.992-1.235 4.5 4.5 0 0 0-.635-.162v3.23a1.525 1.525 0 0 0 1.524 1.524h16.95A1.525 1.525 0 0 0 22 20.475V3.525a1.525 1.525 0 0 0-1.524-1.524"/></svg>