<?xml version="1.0" encoding="UTF-8"?>
<svg width="24px" fill="#44739e" height="24px" viewBox="0 0 24 24" version="1.1" xmlns="http://www.w3.org/2000/svg" xmlns:xlink="http://www.w3.org/1999/xlink">
            <path d="M 19.557,3.084 H 4.443 A 1.36,1.36 0 0 0 3.084,4.443 v 0.406 h 0.01 a 8.844,8.844 0 0 1 5.3,0.895 11.148,11.148 0 0 0 4.245,1.086 11.412,11.412 0 0 0 7.01,-2.065 c 0.412,-0.289 0.4,-0.259 -0.209,0.408 a 12.824,12.824 0 0 1 -5.368,3.7 C 11.872,9.544 9.909,9.214 6.32,7.573 A 18.767,18.767 0 0 0 3.65,6.47 4.439,4.439 0 0 0 3.084,6.326 v 3.631 h 0.01 a 8.844,8.844 0 0 1 5.3,0.895 11.148,11.148 0 0 0 4.245,1.086 11.412,11.412 0 0 0 7.01,-2.065 c 0.412,-0.289 0.4,-0.259 -0.209,0.408 a 12.815,12.815 0 0 1 -5.368,3.7 c -2.2,0.671 -4.163,0.342 -7.752,-1.3 A 18.767,18.767 0 0 0 3.648,11.581 4.439,4.439 0 0 0 3.082,11.437 V 15.2 h 0.01 a 8.835,8.835 0 0 1 5.3,0.894 11.13,11.13 0 0 0 4.245,1.086 11.412,11.412 0 0 0 7.01,-2.065 c 0.412,-0.289 0.4,-0.258 -0.209,0.408 a 12.815,12.815 0 0 1 -5.368,3.7 c -2.2,0.671 -4.163,0.342 -7.752,-1.3 A 18.9,18.9 0 0 0 3.65,16.821 4.439,4.439 0 0 0 3.084,16.677 v 2.88 a 1.36,1.36 0 0 0 1.359,1.359 h 15.114 a 1.36,1.36 0 0 0 1.359,-1.359 V 4.443 A 1.36,1.36 0 0 0 19.557,3.084 Z"/>

</svg>