<?xml version="1.0" encoding="UTF-8"?>
<svg width="24px" fill="#44739e" height="24px" viewBox="0 0 24 24" version="1.1" xmlns="http://www.w3.org/2000/svg" xmlns:xlink="http://www.w3.org/1999/xlink">
            <path d="m 19.013,9.53 c -1.207,0 -2.049,1.086 -2.049,2.641 0,1.506 0.817,2.556 1.987,2.556 1.02,0 2.049,-0.819 2.049,-2.648 C 21,10.554 20.2,9.53 19.013,9.53 Z m 1.172,2.577 c 0,0.905 -0.377,1.878 -1.2,1.878 -0.785,0 -1.2,-0.92 -1.2,-1.828 0,-0.938 0.372,-1.885 1.2,-1.885 0.789,0 1.2,0.928 1.2,1.835 z m -7.627,-1.735 h 1.617 v 4.277 h 0.945 v -4.277 h 1.625 V 9.608 h -4.187 z m -1.278,2.199 c 0,0.938 -0.393,1.414 -1.169,1.414 -0.718,0 -1.113,-0.5 -1.113,-1.414 V 9.608 H 8.054 v 2.949 a 1.9,1.9 0 0 0 2.034,2.17 1.974,1.974 0 0 0 2.137,-2.2 V 9.608 H 11.28 Z M 5.9,9.608 H 4.895 L 3,14.649 h 0.976 l 0.553,-1.511 h 1.708 l 0.568,1.511 h 1 L 5.93,9.687 Z m 0.105,2.809 H 4.758 l 0.463,-1.235 c 0.053,-0.15 0.1,-0.308 0.157,-0.484 0.048,0.158 0.1,0.321 0.166,0.494 z"/>

</svg>