<svg xmlns="http://www.w3.org/2000/svg" viewBox="0 0 24 24"><path fill="#44739e" d="M2.84 17.592a22.4 22.4 0 0 1 3.145 1.295c4.224 1.935 6.53 2.323 9.123 1.53a15.1 15.1 0 0 0 6.317-4.354c.706-.785.73-.824.246-.481a13.4 13.4 0 0 1-8.251 2.431 13.2 13.2 0 0 1-4.994-1.278 10.4 10.4 0 0 0-6.238-1.06.5.5 0 0 1-.188.016v.365c0 .426.015.88.042 1.347h.066a4 4 0 0 1 .732.189m0-12.18a22.4 22.4 0 0 1 3.145 1.286c4.224 1.936 6.53 2.325 9.123 1.53a15.06 15.06 0 0 0 6.317-4.346c.706-.784.73-.824.246-.479a13.4 13.4 0 0 1-8.251 2.429 13.1 13.1 0 0 1-4.994-1.279 10.4 10.4 0 0 0-6.238-1.052.6.6 0 0 1-.188.015v.364c0 .426.015.88.042 1.347h.066a4 4 0 0 1 .732.185m0 6.009a22.4 22.4 0 0 1 3.145 1.288c4.224 1.935 6.53 2.324 9.123 1.529a15.06 15.06 0 0 0 6.317-4.354c.706-.784.73-.824.246-.479a13.4 13.4 0 0 1-8.251 2.429 13.1 13.1 0 0 1-4.994-1.278 10.4 10.4 0 0 0-6.238-1.052.6.6 0 0 1-.188.015v.364c0 .426.015.88.042 1.349h.066a4 4 0 0 1 .732.189"/></svg>