<svg xmlns="http://www.w3.org/2000/svg" width="24" height="24" viewBox="0 0 24 24">
  <path id="Colore_riempimento_1" fill="#44739e" data-name="Colore riempimento 1" class="cls-1" d="m 2,13.432 c -0.061,0.039 -0.048,0.076 0,0.112 v 0.5 h 20 v -0.8 H 2 Z M 1.951,11.813 h 20.037001 v 0.788 H 1.951 Z m 0,-1.292 H 22 v 0.742 H 1.951 Z m 10.323,9.304 c -3.5,-0.522 -3.254,-4.509 0.283,-5.06 0,0 -7.3,0.074 -9.005,0.037 1.5,5.256 7.21,6.714 12.282,5.178 1.44,-0.436 4.065,-2.5 3.929,-5.361 -0.857,3.281 -3.502,5.733 -7.489,5.206 z M 6.2,5.9 c 1.755,-1.254 4.98,-2.1 7.032,-0.593 1.383,1.047 0.958,3.821 -1.005,3.835 0.548,0 7.958,0 7.958,0 a 13.818,13.818 0 0 0 -2.478,-3.7 C 14.56,2.324 8.058,2.785 5.107,6.442 A 6.782,6.782 0 0 0 4.148,7.949 C 4.013,8.241 3.689,9.063 3.689,9.063 A 10.058,10.058 0 0 1 6.2,5.9 Z"/>
</svg>
