<?xml version="1.0" encoding="UTF-8"?>
<svg width="24px" fill="#44739e" height="24px" viewBox="0 0 24 24" version="1.1" xmlns="http://www.w3.org/2000/svg" xmlns:xlink="http://www.w3.org/1999/xlink">
            <path d="M 11.442,13.76 C 6.228,13.76 2,14.372 2,15.128 c 0,0.756 4.228,1.372 9.442,1.372 5.214,0 9.453,-0.612 9.453,-1.368 0,-0.756 -4.229,-1.372 -9.453,-1.372 z m -0.334,1.854 c -1.2,0 -2.158,-0.207 -2.158,-0.459 0,-0.252 0.96,-0.459 2.158,-0.459 1.198,0 2.15,0.206 2.15,0.459 0,0.253 -0.958,0.459 -2.15,0.459 z M 18.763,7.5 H 14.676 C 13.592,8.8 13.39,9.057 13.39,9.057 A 19.493,19.493 0 0 0 12.1,10.8 13.39,13.39 0 0 0 11.6,9.039 c 0,0 -0.123,-0.36 -0.51,-1.539 H 3.718 L 3.462,8.611 h 2.387 c 1.242,0 2,0.513 1.788,1.422 -0.229,0.991 -1.312,1.413 -2.466,1.413 H 4.739 L 5.294,9.025 H 3.365 l -0.819,3.537 h 2.739 c 2.062,0 4.017,-1.106 4.37,-2.529 A 2.754,2.754 0 0 0 9.549,8.733 0.354,0.354 0 0 0 9.531,8.679 C 9.523,8.67 9.514,8.607 9.549,8.598 9.566,8.589 9.602,8.625 9.602,8.634 c 0,0.009 0.018,0.045 0.035,0.081 l 1.744,5.032 4.44,-5.122 1.879,-0.014 h 0.458 c 1.243,0 2.009,0.513 1.8,1.422 -0.229,0.99 -1.32,1.413 -2.475,1.413 h -0.44 L 17.6,9.025 h -1.929 l -0.819,3.537 h 2.739 c 2.061,0 4.035,-1.106 4.361,-2.529 C 22.278,8.61 20.842,7.5 18.763,7.5 Z"/>

</svg>