<?xml version="1.0" encoding="UTF-8"?>
<svg width="32px" height="32px" viewBox="0 0 512 512" version="1.1" fill="#44739e" xmlns="http://www.w3.org/2000/svg" xmlns:xlink="http://www.w3.org/1999/xlink">
            <path d="M236,0c44.008-.9,87.859,1.625,119,14h3v1h3v1h2v1h3v1l6,2v1l4,1,1,2h2l2,3h2l1,3,2,1v6c-2.435,1.541-1.54,2.843-3,4h-2l-2,3h-2l-1,2-4,1v1l-6,2v1h-3v1h-2v1l-32,9h-6v1h-6v1h-7v1h-8v1l-26,1c-7.992,2.2-32.023,2.253-40,0H220V66H210V65h-8V64h-7V63h-6V62h-5V61h-5V60h-4V59h-4V58h-4V57h-4V56h-3V55h-3V54h-3V53h-3V52h-2V51h-3V50l-6-2V47l-4-1-1-2h-2l-2-3-3-1V38l-2-1V31c2.179-1.343,1.526-2.828,3-4h2l2-3h2l1-2,4-1V20l6-2V17h3V16h2V15h3V14h3V13h3V12h3V11l7-1V9h4V8h5V7h5V6h5V5h6V4h7V3h8V2h10V1C224.808-.366,232.806,2.853,236,0Zm39,18q0.5-2.5,1-5l-3-1V11h-2V10c-3.252-1.4-16.833-3.515-22-2l-12,4a12.709,12.709,0,0,0-1,5l3,1c3.363,3.916,21.993,5.419,29,3C270.226,20.232,272.208,18.639,275,18ZM169,31q-0.5,2.5-1,5l3,1v1h2v1c3.252,1.4,16.833,3.516,22,2l12-4c0.594-3.715.58-2.289,0-6-2.795-.62-4.776-2.253-7-3l-19-1Zm136,6c2.8,0.62,4.776,2.253,7,3l19,1,12-4q0.5-2.5,1-5l-3-1V30h-2V29c-3.252-1.4-16.833-3.515-22-2l-12,4a10.6,10.6,0,0,0-1,4C305.139,36.139,304.4,35,305,37ZM275,52q0.5-2.5,1-5l-3-1V45h-2V44c-3.252-1.4-16.833-3.516-22-2l-12,4a12.709,12.709,0,0,0-1,5l3,1c3.363,3.916,21.993,5.419,29,3C270.226,54.232,272.208,52.639,275,52Zm116-5V45h1V470h-1l-1,5h-1v2l-3,2-1,3h-2l-3,4h-2l-1,2h-2l-1,2-24,10h-4v1h-3v1h-4v1h-4v1h-4v1l-10,1v1h-6v1h-7v1h-8v1l-25,1c-7.7,2.14-30.3,2.16-38,0H222v-1H212v-1h-8v-1h-7v-1h-6v-1h-5v-1h-5v-1h-4v-1h-4v-1h-4v-1h-3v-1h-4v-1h-3v-1h-2v-1l-6-1v-1h-2v-1h-3v-1l-4-1v-1h-2l-1-2-4-1-1-2h-2l-2-3-3-1-1-3-3-2q-0.5-2-1-4h-1c-2.7-6.231-1-28.03-1-37V46h1c1.1,1.321,2.741,1.842,4,3l1,2h2l1,2,4,1,1,2h2v1h2v1h3v1l4,1v1l6,1v1h2v1l7,1c7.278,2.832,17.137,4.647,25,7h6v1h6v1h8v1l20,1c5.454,1.515,14.912-.684,21,1v1c4.634,1.291,16.8-.1,20-1h21V76h12V75h9V74h7V73h6l28-6V66h3V65l7-1V63h2V62l6-1V60l4-1V58h3V57h2V56h2l1-2,4-1,1-2h2V50C387.761,48.562,388.408,47.728,391,47Z"/>

</svg>