<svg xmlns="http://www.w3.org/2000/svg" viewBox="0 0 24 24"><path fill="#44739e" d="m4.021 17.526-.016-.054h.016c.015.049.029.084.081.054v.042l.298.122.028-.055.095.123c.047.01.121.063.135 0h.013c.02.114.242.145.339.161.361.058.71.028 1.074.028 1.523 0 3.043-.181 4.564-.176v-.013h-.11v-.015c1.017 0 2.044-.077 3.057-.137.452-.025.905-.072 1.359-.053v-.032h-.028c1.325 0 2.656-.141 3.98-.21.307-.016.616-.04.923-.061.216-.016.435-.013.639-.097.121-.048.209-.129.313-.203l-.015-.055.042.014.161-.163.123-.041.205-.149-.016-.055a1.2 1.2 0 0 0 .339-.145c.709-.477.242-1.552.064-2.194a641 641 0 0 1-1.516-5.375c-.226-.823-.404-1.792-1.291-2.162-.403-.166-.876-.116-1.305-.134-.878-.038-1.757-.056-2.634-.096-1.831-.081-3.667-.125-5.5-.204-.827-.034-1.657-.092-2.484-.093-.855-.016-1.71-.11-2.57-.11-.387-.002-.807-.053-1.139.189-.197.143-.329.355-.474.543-.215.281-.473.563-.597.897-.107.278-.081.592-.087.883 0 .353-.021.708-.028 1.06-.017 1.703-.167 3.407.091 5.091.121.773.242 1.742.848 2.307.287.266.662.41 1.017.556M2.882 6.738l-.013.016Zm-.013.042-.014.013.016-.013m-.029.108-.016.016Zm15.022.178.081.409-.436-.016-.161-.032-.113-.358c.185-.055.432 0 .626 0m-14.969.298v.081h-.013Zm15.796.502c.026.189.097.374.147.557.113.413.229.824.339 1.237.321 1.178.636 2.358.971 3.531q.198.683.379 1.371.044.17.094.339c.009.037.035.094.013.131-.034.053-.15.032-.204.032-.2 0-.398.015-.597.015-.516 0-1.035.032-1.548.053-.271.013-.547-.008-.816.016-.291.029-.589.013-.883.026-.755.032-1.511.035-2.268.068-1.807.08-3.623.142-5.433.161-.705.008-1.412.068-2.118.068-.173 0-.344.014-.517.014-.051 0-.153.016-.193-.016-.037-.024-.037-.097-.045-.134l-.075-.364-.29-1.454-.81-4.049-.258-1.307c-.044-.226-.121-.461-.121-.693l.447.016 1.087.027 3.165.081 4.196.109 5.34.149M2.266 7.53l-.013.016Zm.652.029v.045h-.01l.013-.04m-.637.013-.015.015.015-.017m.651.057v.04h-.016Zm-.721.068-.013.016Zm.734 0 .013.096h-.013Zm.022.172-.005.007Zm.018.032v.053h-.013Zm.015.068.012.122h-.012Zm.027.15v.055h-.016l.016-.051m.013.072v.055H3.03Zm.013.065v.056h-.013Zm.014.081v.042h-.016l.015-.04m.013.069.054.326h-.011Zm.068.353v.055h-.013l.013-.058m.014.081.013.109h-.011v-.108m.027.121.041.258h-.016Zm.053.286.113.693h-.016l-.079-.475-.021-.218m-1.086.611-.016.013Zm1.221.097v.053h-.013l.013-.055m.015.068.068.394h-.013c-.016-.113-.097-.287-.055-.394m.081.42v.056H3.46Zm.014.068v.068h-.014l.016-.068m.008.108.15.802h-.016l-.097-.529-.036-.275m.162.831v.055h-.01l.013-.055m.014.068.096.544h-.016c-.012-.154-.138-.399-.081-.544m-.992.544-.013.012Zm1.1.012.108.626H3.88l-.081-.435-.016-.191m.125.652.08.408h-.016c-.032-.1-.102-.306-.066-.408m.081.42.08.477h-.013Zm.096.491.081.461h-.016c-.023-.123-.11-.344-.068-.461m-1.81.201-.013.013Zm1.915.286v.053h-.013Zm.016.068v.053h-.016l.013-.053m.008.09-.005.008Zm-1.097.016-.011.016.013-.016m1.113.029v.04H4.21zm.013.067v.055h-.013Zm.013.068.028.218h-.015l-.016-.218m.043.245v.041h-.016l.015-.041m.013.053v.055h-.013Zm.013.068v.042h-.013Zm.014.07.041.271h-.01l-.028-.271m.055.284v.041h-.014l.016-.041m.011.067v.042h-.013Zm.013.07v.053H4.4Zm.01.09-.005.008Zm.018.058v.04h-.013Zm.014.055.013.108h-.011v-.108m.025.122.015.081h-.016v-.081m.029.097-.013.013Zm.014.041v.04h-.016l.016-.048m.008.064-.003.002.003-.01m.02.032.013.068h-.013v-.064m-1.033.04-.016.013Zm1.055.049-.004.01Zm.026.068-.004.009Zm.054.122-.004.008v-.008m.032.073-.011.013Zm15.987.745-.014.013.014-.011m-.027.013-.013.016Zm-.461.301.012.013-.011-.016m-.871.016v.013h.15v-.013h-.148m.311 0v.013h.042Zm-.529.013-.016.028h.029l-.015-.028m.123 0v.015h.068l-.068-.017m-.381.026v.013l.136-.013Zm.173-.009.008.004Zm-14.922.022-.017.015Zm13.739.048.01.003h-.005m-2.481.115v.014h.069l-.069-.016m-.258.016.013.013-.016-.013m-1.63.081v.014h.081l-.065-.003m-.343.02.008.004Zm-.308.008.013.016Zm-8.394.042v.012l.068.033v-.016l-.068-.018m7.642 0 .01.005Zm-1.068.05.013.016Zm-.955.045.008.005Zm-1.345.068.009.005Zm-.336.009.015.013Zm-1.484.086.008.002-.008-.005m.058-.005.016.016Zm-.611.016.016.011-.016-.013m.054 0 .017.013Zm-.298.013v.016h.108Zm-.366.016.013.012Zm.026.013v.013H5.8Zm.209-.01V18l-.011-.005m-.306.01v.013h.051"/></svg>