<svg xmlns="http://www.w3.org/2000/svg" viewBox="0 0 24 24"><path fill="#44739e" d="M15.254 17.3c-.078-.015-.158-.02-.235-.037.05.041.093.091.141.135.069.064.14.124.202.193a9 9 0 0 0 2.406.266 10.3 10.3 0 0 0 2.374-.253c.101-.02.294-.342.294-.342a12.8 12.8 0 0 1-2.701.279 13 13 0 0 1-2.481-.241m3.123-.465a6.1 6.1 0 0 1-2.164-.554 6 6 0 0 1-.629-.321 7 7 0 0 1-.339-.223 4.12 4.12 0 0 1-1.692-2.124 4.6 4.6 0 0 0 .556 2.461c.053.101.106.189.165.281a4 4 0 0 0 .386.52c.023.025.038.057.061.082a2 2 0 0 0 .376.119q.132.033.316.068a14.5 14.5 0 0 0 2.731.186 8.8 8.8 0 0 0 2.59-.349 6 6 0 0 0 .742-1.088 3.47 3.47 0 0 1-3.099.941m-.263-7.491a4 4 0 0 0-1.432.119 4.39 4.39 0 0 0-3.099 3.797 4.07 4.07 0 0 0 1.879 2.379c.111.071.218.146.33.208q.263.151.529.27a5.8 5.8 0 0 0 1.194.398c1.336.273 3.308.324 4.147-1.133 1.005-1.755-.247-5.709-3.548-6.038m-9.477 8.225c.022-.026.049-.046.074-.071a3 3 0 0 1 .269-.258c-.218.047-.438.069-.658.101a13 13 0 0 1-2.059.175 12.8 12.8 0 0 1-2.701-.279 2 2 0 0 0 .166.233c.047.055.093.101.13.108h.009a10 10 0 0 0 2.365.253 9 9 0 0 0 2.405-.262m1.178-1.357a4.6 4.6 0 0 0 .63-2.62 4.35 4.35 0 0 1-2.044 2.35 5 5 0 0 1-.326.18 6 6 0 0 1-.587.278 6.2 6.2 0 0 1-1.866.411 3.47 3.47 0 0 1-3.097-.94 6 6 0 0 0 .741 1.088 8.8 8.8 0 0 0 2.59.349 16 16 0 0 0 2.338-.125c.202-.028.363-.056.506-.084a3 3 0 0 0 .583-.165 4 4 0 0 0 .349-.47c.057-.089.132-.163.183-.252m-3.331.28a5.6 5.6 0 0 0 .865-.267 6 6 0 0 0 .793-.368 4.32 4.32 0 0 0 2.273-2.62A4.36 4.36 0 0 0 6.81 9.341a4 4 0 0 0-.925-.02c-3.301.329-4.552 4.284-3.547 6.039.837 1.457 2.809 1.409 4.146 1.133m5.332.874a19 19 0 0 1-2.362-.155 4 4 0 0 1-.375.354 12 12 0 0 0 2.696.246 13.6 13.6 0 0 0 3.126-.318 4 4 0 0 1-.349-.328 18 18 0 0 1-2.736.201m-1.802-.87a4 4 0 0 1-.339.475 15 15 0 0 0 1.577.101 23 23 0 0 0 3.088-.154 5 5 0 0 1-.371-.52 14 14 0 0 1-2.218.163 23 23 0 0 1-1.737-.065m.77-2.78a5.3 5.3 0 0 1-.62 2.522c.673.047 1.281.038 1.665.037a12.6 12.6 0 0 0 2.004-.163 5.36 5.36 0 0 1-.562-2.396 4.7 4.7 0 0 1 3.257-4.533 5.323 5.323 0 0 0-9.553-.136 4.67 4.67 0 0 1 3.809 4.669"/></svg>