<svg xmlns="http://www.w3.org/2000/svg" viewBox="0 0 24 24"><path fill="#44739e" d="M8.897 4.413C14.486 5.845 22.415 2.3 11.153 2c-2.353.057-6.89 1.275-2.256 2.413m6.411-1.186c.444.475-1.154.456-1.424.237-.159-.549 1.29-.464 1.424-.237m-2.611-.515c-.364.227-1.641.284-1.5-.237.414-.209 1.611-.325 1.5.237m0 1.346c-.364.226-1.641.284-1.5-.238.414-.209 1.611-.32 1.5.238m-2.691-.831c.111.608-1.729.524-1.501 0a1.94 1.94 0 0 1 1.501 0m6.858.659-1.146.541a13.3 13.3 0 0 1-8.823-.335s-.212 16.763-.159 16.788a13.33 13.33 0 0 0 10.236.192s-.108-16.319-.108-17.186"/></svg>