<svg xmlns="http://www.w3.org/2000/svg" width="32" height="32" viewBox="0 0 12.7 12.7">
    <style>path{fill:#000}@media (prefers-color-scheme:dark){path{fill:#fff}}</style>
  <path id="Colore_riempimento_1" data-name="Colore riempimento 1" class="cls-1" d="m 3.3538331,10.358378 -0.00817,0.02457 0.073663,-0.02457 c 0.2507971,0.05415 0.5386349,0.02457 0.7939472,0.02457 l -0.00817,-0.0164 h 0.3846983 v -0.0081 h -0.114595 v -0.0081 l 0.2455541,-0.0081 v 0.0081 h -0.040918 v 0.0081 l 0.1718844,-0.02457 v 0.0081 h -0.016343 v 0.0081 h 0.040918 l -0.00817,-0.0164 0.3110344,-0.0081 v 0.0081 h -0.040918 v 0.0081 l 0.098221,-0.0081 v -0.0081 h -0.032746 v -0.0081 l 0.1800739,0.01634 0.122777,-0.02594 0.3928819,-0.0232 v 0.0081 h -0.024575 v 0.0081 h 0.04909 v -0.0081 h -0.016343 v -0.0081 l 0.9985719,-0.04891 1.6206406,-0.06594 0.581134,-0.03251 0.7530233,-0.03274 0.2209979,-0.02457 h 0.0081 c 0.02183,-0.02224 0.03973,-0.02731 0.06548,-0.0081 h 0.0081 l 0.114588,-0.02177 0.31103,-0.01551 0.8438,-0.046345 0.334845,-0.063675 c 0.05983,-0.079666 0.20209,-0.1429263 0.286478,-0.1991677 0.01736,-0.011571 0.09756,-0.054454 0.07366,-0.070939 0.06957,-0.029643 0.139227,-0.063954 0.196112,-0.1146238 0.283204,-0.2524138 0.131618,-0.6692316 0.04468,-0.9739852 -0.02642,-0.092697 -0.05004,-0.1866468 -0.07981,-0.2782942 -0.02791,-0.086005 -0.05142,-0.1747355 -0.07571,-0.2619213 C 11.878232,6.81971 11.524718,5.6189119 11.179887,4.4159124 11.102454,4.1457837 11.027233,3.874999 10.947264,3.605598 10.860502,3.3132986 10.784959,3.048413 10.54849,2.837621 10.284767,2.6025945 9.9364946,2.6211149 9.6072139,2.6066983 9.1215939,2.585464 8.6360563,2.5624999 8.1502745,2.5412179 6.5513931,2.4712045 4.9530127,2.3902577 3.353845,2.3202264 2.8686537,2.2989921 2.3817088,2.2842593 1.8969171,2.2543584 1.6172211,2.2371204 1.3038963,2.1888721 1.0292942,2.2622913 0.81623553,2.3192542 0.69474089,2.5254891 0.56746044,2.6888558 0.48391917,2.796083 0.38204229,2.8916313 0.34037896,3.0244409 c -0.0661605,0.2108814 -0.0166411,0.4547416 -0.007161,0.6711702 0.0190274,0.4351595 0.0231426,0.8761346 0.064413,1.3096063 0.0433631,0.4555886 0.0376972,0.9182572 0.0681408,1.3750862 0.0508187,0.7629548 0.16343236,1.5405766 0.34680466,2.2836273 0.0798373,0.3235305 0.15416915,0.6736516 0.33699868,0.9576476 0.1523798,0.2366908 0.3743017,0.3571834 0.6163487,0.4853535 0.2449577,0.129708 0.4597461,0.247564 0.740122,0.273969 0.1188165,0.01121 0.2382236,-0.0047 0.3566703,-0.0063 0.1607244,-0.0018 0.3321315,0.0081 0.4911022,-0.0164 m -2.49643517,-7.9885918 -0.008171,0.00817 0.008171,-0.00817 m -0.0982207,0.106404 -0.0982207,0.212814 -0.0409181,0.2619213 -0.0900367,0.057261 0.008171,0.024575 C 0.48698053,3.0484629 0.4363226,3.1409511 0.41538661,3.1881139 l -0.0245747,-0.00817 0.008171,0.032746 -0.0245748,-0.00817 -0.0163433,0.1391502 h -0.008171 C 0.34363546,3.1972677 0.30635646,2.9859388 0.46448614,2.901634 0.46388968,2.857854 0.51840694,2.802346 0.55452314,2.7788569 L 0.64456001,2.6233457 0.75914753,2.476012 m 7.62844937,0.1227771 -0.00814,0.00817 0.00814,-0.00817 m 1.8007091,0.098221 -0.0081,0.00817 0.0081,-0.00817 m -9.51100586,0.00817 c 0,0.3951903 0.15720526,0.7639449 0.1882514,1.1540889 h -0.008171 C 0.80703806,3.5997348 0.75512733,3.3403485 0.70013897,3.0816959 0.67800994,2.9777076 0.63455124,2.8070758 0.67729416,2.7051811 m 9.54374584,0 -0.0081,0.00817 0.0081,-0.00817 m -9.65015582,0.04909 0.008171,0.00817 -0.008171,-0.00817 m -0.0163433,0.00817 0.008171,0.00817 -0.008171,-0.00817 m 9.83022412,0.00817 -0.0081,0.00817 0.0081,-0.00817 m 0.04092,0.024575 -0.0081,0.00817 0.0081,-0.00817 m 0.04909,0.032746 0.02457,0.024575 -0.03274,-0.016403 0.0081,-0.00817 m 0.04908,0.032746 0.0081,0.016343 -0.0081,-0.016343 M 9.6725821,2.8934272 9.7380605,3.2371957 9.263325,3.2208524 C 9.226109,3.1191604 9.1862243,2.9940333 9.1814744,2.8852673 l 0.4911025,0.00817 m 0.8757941,-0.00817 0.0081,0.016343 -0.0081,-0.016343 m 0.02457,0.016343 0.0081,0.016403 -0.0081,-0.016403 m 0.04909,0.05732 0.04092,0.05732 -0.04092,-0.05732 m 0.04908,0.065481 0.0081,0.016343 -0.0081,-0.016343 m 0.03275,0.040918 -0.0081,0.00817 0.0081,-0.00817 m 0.03274,0.05732 -0.0081,0.00817 0.0081,-0.00817 m -9.221922,0.037697 c 0.034595,-0.017118 0.098548,-0.00477 0.1365317,-0.00477 0.1198245,4.77e-5 0.2403946,0.014912 0.3601416,0.016343 0.4638736,0.00537 0.9280036,0.029943 1.3914655,0.048851 1.6149085,0.065844 3.2309742,0.101185 4.8455312,0.1718902 0.3764313,0.016463 0.7531903,0.024455 1.1295381,0.040918 0.1438918,0.00633 0.2907303,-0.00239 0.433805,0.014375 0.1082893,0.012765 0.2264789,0.010558 0.3355849,0.010558 0.03788,0 0.103703,-0.011929 0.134563,0.01521 0.02219,0.019504 0.02613,0.064049 0.03388,0.091194 l 0.06311,0.2209975 c 0.08062,0.2806801 0.15838,0.5622133 0.238432,0.8430604 0.301699,1.0580458 0.595789,2.1182862 0.89929,3.175789 0.09306,0.3243596 0.182441,0.6497808 0.275914,0.9740211 l 0.06548,0.229181 c 0.0067,0.023441 0.02696,0.068629 -0.0024,0.083965 -0.03829,0.019863 -0.110579,0.00608 -0.152898,0.00608 -0.112137,0 -0.232129,-0.0012 -0.34377,0.0096 -0.504689,0.048016 -1.023539,0.03543 -1.5306042,0.047837 -0.8862737,0.021711 -1.7744514,0.05082 -2.6601358,0.089596 -0.7526356,0.03292 -1.5064227,0.033167 -2.2590704,0.066117 -0.5153189,0.022544 -1.0315146,0.026542 -1.5469708,0.049086 -0.1360484,0.00598 -0.2729439,0.016042 -0.4092489,0.016042 -0.035191,0 -0.1124403,0.014497 -0.1412915,-0.00845 -0.021204,-0.016874 -0.02353,-0.06496 -0.028839,-0.089812 C 2.7665381,9.2017694 2.7519845,9.1249947 2.7348066,9.0488973 2.6647987,8.7391038 2.5994376,8.4272463 2.5371425,8.1158062 2.2998971,6.9298181 2.0466664,5.7448323 1.7871967,4.5635025 1.7094172,4.2094388 1.6350018,3.8544208 1.5615109,3.4994445 1.5439744,3.4147636 1.5262,3.3301788 1.5076496,3.2457128 c -0.00537,-0.024038 -0.022069,-0.070532 0.00734,-0.085104 m 9.2601434,0.041455 -0.003,0.00537 0.003,-0.00537 m 0.01908,0.043662 -0.0081,0.00817 0.0081,-0.00817 m -9.92026709,0.622063 0.0327464,0.1964409 h -0.008171 l -0.0245711,-0.196442 m 0.0409181,0.2046244 c 0.0428262,0.3317617 0.13532679,0.6623427 0.20095029,0.9903884 0.1479658,0.7397223 0.2951982,1.4801541 0.452123,2.2181407 0.092065,0.4329407 0.1771511,0.8677065 0.2652793,1.3014226 0.051892,0.2555033 0.086666,0.5236516 0.1759463,0.7693963 0.029167,0.080305 0.075364,0.1513545 0.1088973,0.2291816 h -0.00817 C 1.9739152,9.3754343 1.9327588,9.138851 1.8852204,8.9015818 1.8392922,8.6723351 1.7919267,8.4432734 1.7460761,8.2140386 1.5598229,7.2829513 1.3630004,6.354065 1.1768008,5.4229421 1.1113026,5.0954333 1.0386766,4.7689801 0.97717466,4.4407374 0.95939987,4.3459705 0.88233617,4.1631767 0.9148795,4.0724121 m -0.45290441,0.9631059 -0.002978,0.00537 0.002978,-0.00537 m 10.89700791,0.1582431 -0.0081,0.00817 0.0081,-0.00817 m -10.71421424,1.0231283 -0.008171,0.00817 0.008171,-0.00817 m -0.12277114,0.3274013 -0.008171,0.00817 0.008171,-0.00817 m 0.26192125,1.366903 -0.008171,0.00817 0.008171,-0.00817 m 1.35052983,1.686115 0.00817,0.016403 -0.00817,-0.016403 m 7.9312943,0.4829183 0.0081,0.0081 -0.0081,-0.0081 m -3.5877692,0.190978 0.00537,0.003 -0.00537,-0.003 m 0.051832,-0.003 v 0.0081 h 0.024575 l -0.024575,-0.0081 m -0.1418759,0.01091 0.00537,0.003 -0.00537,-0.003 m -1.7570529,0.07912 v 0.0081 h 0.024575 l -0.024575,-0.0081 m 0.1446077,0.003 0.00537,0.003 z"/>
</svg>
