<svg xmlns="http://www.w3.org/2000/svg" viewBox="0 0 24 24"><path fill="#44739e" d="M3.027 7.02a.3.3 0 1 0-.3-.3.3.3 0 0 0 .3.3m12.388 8.851-.022-.097h-.024l-.022.097-.017-.097h-.033l.036.151h.026l.022-.099.022.099h.026l.036-.151h-.033Zm-.18-.1a.05.05 0 0 0-.036.014.05.05 0 0 0-.013.039v.05a.06.06 0 0 0 .013.04.05.05 0 0 0 .036.014.05.05 0 0 0 .037-.014.06.06 0 0 0 .012-.039v-.051a.06.06 0 0 0-.012-.039.05.05 0 0 0-.037-.014m.016.1v.014a.01.01 0 0 1-.012 0h-.011a.02.02 0 0 1 0-.014v-.047a.02.02 0 0 1 0-.014.01.01 0 0 1 .011 0h.012v.014Zm-.128-.1a.03.03 0 0 0-.019.008l-.011.017v-.022h-.033v.151h.033v-.114a.02.02 0 0 1 .024 0 .02.02 0 0 1 0 .014v.1h.034v-.1a.06.06 0 0 0-.01-.037.03.03 0 0 0-.018-.017m-.161.073-.013-.006h-.037v-.017h.025l.009.012.027-.015a.04.04 0 0 0-.017-.026.1.1 0 0 0-.032-.009.05.05 0 0 0-.034.012.04.04 0 0 0-.013.034v.021l.01.012.012.007h.028l.01.005v.009l-.005.01h-.012a.03.03 0 0 1-.016-.005.03.03 0 0 1-.011-.013l-.027.016a.04.04 0 0 0 .018.027.06.06 0 0 0 .034.01.06.06 0 0 0 .037-.013.05.05 0 0 0 .013-.035.04.04 0 0 0 0-.022Zm-.154-.072a.05.05 0 0 0-.037.015.07.07 0 0 0-.013.045v.038a.06.06 0 0 0 .013.043.05.05 0 0 0 .039.015.04.04 0 0 0 .03-.01.05.05 0 0 0 .016-.027l-.029-.012-.007.011h-.011a.02.02 0 0 1-.015-.006.03.03 0 0 1-.005-.017v-.007h.068v-.026a.1.1 0 0 0-.013-.049.04.04 0 0 0-.036-.013m.017.065h-.036v-.007a.03.03 0 0 1 .005-.018.02.02 0 0 1 .014-.006.02.02 0 0 1 .012.005.02.02 0 0 1 0 .016Zm-.106-.107h-.034v.044h-.013v.033h.013v.079a.05.05 0 0 0 .008.03.03.03 0 0 0 .027.01h.016v-.037h-.015v-.079h.017v-.033h-.017Zm-.119.041a.05.05 0 0 0-.03.009.05.05 0 0 0-.016.025l.026.013.008-.009h.011a.02.02 0 0 1 .013 0 .02.02 0 0 1 .005.013v.012H14.6a.05.05 0 0 0-.035.012.05.05 0 0 0-.012.036.05.05 0 0 0 .01.033.03.03 0 0 0 .027.012h.016l.012-.009v-.009.019h.031v-.1a.05.05 0 0 0-.013-.037.05.05 0 0 0-.036-.02m.017.11a.01.01 0 0 1-.006.012h-.027v-.01a.02.02 0 0 1 .005-.014h.032Zm-.124-.081-.01-.016a.03.03 0 0 0-.018-.007.03.03 0 0 0-.027.014.1.1 0 0 0-.009.039v.05a.1.1 0 0 0 .009.039.03.03 0 0 0 .027.014.03.03 0 0 0 .018-.007.03.03 0 0 0 .01-.016v.02h.034v-.212h-.034Zm0 .079v.017h-.008a.01.01 0 0 1-.012-.006v-.075a.01.01 0 0 1 .012-.006h.008v.016Zm-.125-.108a.03.03 0 0 0-.017.008l-.011.016v-.021h-.034v.213h.034v-.082l.01.016a.03.03 0 0 0 .018.007.03.03 0 0 0 .027-.014.1.1 0 0 0 .009-.04v-.049a.1.1 0 0 0-.009-.039.03.03 0 0 0-.027-.015m0 .1a.03.03 0 0 1 0 .016.01.01 0 0 1-.011.006h-.009v-.082h.009a.01.01 0 0 1 .011.006.03.03 0 0 1 0 .016Zm-.126.005a.02.02 0 0 1 0 .013.015.015 0 0 1-.022 0v-.112h-.034v.1a.06.06 0 0 0 .01.038.03.03 0 0 0 .027.013.03.03 0 0 0 .019-.008.04.04 0 0 0 .008-.017v.022h.034v-.151h-.034Zm2.38-.461h-.035l-.037.065v-.126h-.033v.213h.033v-.033l.017-.028.024.061h.037l-.041-.094Zm-.187.039a.02.02 0 0 1 .013-.006h.011l.006.014.031-.012a.06.06 0 0 0-.015-.032.05.05 0 0 0-.032-.01.05.05 0 0 0-.039.015.06.06 0 0 0-.013.041v.044a.06.06 0 0 0 .013.041.05.05 0 0 0 .039.015.04.04 0 0 0 .046-.041l-.031-.012v.013h-.011a.02.02 0 0 1-.013 0 .03.03 0 0 1 0-.016v-.041Zm-.111-.041a.04.04 0 0 0-.037.016.06.06 0 0 0-.014.044v.039a.06.06 0 0 0 .014.042.05.05 0 0 0 .039.015.05.05 0 0 0 .03-.009.05.05 0 0 0 .015-.028l-.028-.012-.007.011h-.011a.02.02 0 0 1-.015-.006.03.03 0 0 1 0-.017v-.007h.068v-.026a.1.1 0 0 0-.013-.049.05.05 0 0 0-.041-.013m.017.066h-.036v-.008a.04.04 0 0 1 0-.018.02.02 0 0 1 .014-.006.01.01 0 0 1 .012.006.02.02 0 0 1 .005.015Zm-.13-.066a.03.03 0 0 0-.02.007l-.01.018v-.084h-.034v.213h.034v-.1a.02.02 0 0 1 0-.014s.006-.005.011-.005h.012a.02.02 0 0 1 0 .015v.1h.034v-.1a.06.06 0 0 0-.009-.037.03.03 0 0 0-.018-.013m-.145.041a.01.01 0 0 1 .012-.006h.011a.02.02 0 0 1 .006.014l.031-.012a.05.05 0 0 0-.015-.032.05.05 0 0 0-.032-.01.05.05 0 0 0-.039.015.07.07 0 0 0-.013.041v.044a.06.06 0 0 0 .013.041.05.05 0 0 0 .039.015.05.05 0 0 0 .032-.01.05.05 0 0 0 .015-.031l-.032-.012-.005.013h-.023a.02.02 0 0 1 0-.016Zm-.157.164.034-.037v-.052h-.034Zm-.036-.247h-.034v.044h-.012v.034h.012v.078a.05.05 0 0 0 .008.03.03.03 0 0 0 .027.01h.016v-.037h-.015v-.078h.017v-.034h-.017Zm-.102.042a.03.03 0 0 0-.02.007l-.01.017v-.022h-.034v.152h.034v-.1a.02.02 0 0 1 0-.014h.012a.01.01 0 0 1 .011 0 .02.02 0 0 1 0 .014v.1h.033v-.1a.1.1 0 0 0-.009-.037.03.03 0 0 0-.017-.017m-.143 0a.05.05 0 0 0-.03.009.05.05 0 0 0-.016.025l.027.012.008-.009h.011a.02.02 0 0 1 .013.005v.024h-.021a.04.04 0 0 0-.034.012.05.05 0 0 0-.012.036.06.06 0 0 0 .009.034.04.04 0 0 0 .028.011h.016l.012-.01v-.009.02h.032v-.1a.06.06 0 0 0-.013-.038.05.05 0 0 0-.03-.022m.017.109v.012h-.027v-.01a.02.02 0 0 1 0-.014h.032Zm-.105-.151h-.034v.044h-.013v.034h.013v.078a.05.05 0 0 0 .008.03.03.03 0 0 0 .027.01h.016v-.037h-.015v-.078h.017v-.034h-.019Zm-.102.042a.03.03 0 0 0-.02.007l-.01.017v-.022h-.034v.152h.034v-.1a.02.02 0 0 1 0-.014.01.01 0 0 1 .011 0h.012a.02.02 0 0 1 0 .014v.1h.034v-.1a.1.1 0 0 0-.009-.037.03.03 0 0 0-.018-.017m-.133.121a.02.02 0 0 1-.016-.005.03.03 0 0 1-.011-.013l-.027.016a.04.04 0 0 0 .018.027.05.05 0 0 0 .034.01.046.046 0 0 0 .05-.048v-.022a.02.02 0 0 0-.01-.013l-.013-.007h-.037v-.016h.012l.013.005.009.011.027-.015a.05.05 0 0 0-.017-.026.1.1 0 0 0-.032-.009.05.05 0 0 0-.034.012.05.05 0 0 0-.013.034v.021l.009.012.013.007h.038v.019Zm-.106-.18h.034v.038h-.034Zm0 .061h.034v.152h-.034Zm-.032.071-.014-.007h-.036v-.016h.012l.012.005.009.011.028-.015a.05.05 0 0 0-.1.011v.021l.009.012.012.007h.039v.01l-.005.009h-.013a.02.02 0 0 1-.015-.005.03.03 0 0 1-.012-.013l-.027.016a.04.04 0 0 0 .018.027.06.06 0 0 0 .034.01.05.05 0 0 0 .037-.013.05.05 0 0 0 .013-.035v-.022Zm-.103.014a.02.02 0 0 0-.01-.013l-.013-.007h-.037v-.016h.012l.013.005.009.011.027-.015a.05.05 0 0 0-.017-.026.1.1 0 0 0-.032-.009.05.05 0 0 0-.034.012.05.05 0 0 0-.013.034.04.04 0 0 0 0 .021l.008.012L15 15.5h.038v.01l-.005.009h-.012a.02.02 0 0 1-.021.01.03.03 0 0 1-.011-.013l-.027.016a.04.04 0 0 0 .018.027.05.05 0 0 0 .034.01.05.05 0 0 0 .037-.013.05.05 0 0 0 .013-.035Zm-.141.067h.035l-.058-.213h-.023l-.059.213h.036l.008-.034h.053Zm-.052-.07.017-.072.018.072Zm-.179-.084a.05.05 0 0 0-.037.016.06.06 0 0 0-.013.044v.039a.06.06 0 0 0 .014.042.05.05 0 0 0 .038.015.05.05 0 0 0 .03-.009.05.05 0 0 0 .016-.028l-.028-.012-.007.011h-.012a.02.02 0 0 1-.014-.006.02.02 0 0 1-.005-.017v-.007h.068v-.026a.1.1 0 0 0-.013-.049.05.05 0 0 0-.037-.013m.018.066h-.036v-.008a.03.03 0 0 1 .005-.018.017.017 0 0 1 .026 0 .02.02 0 0 1 .005.015Zm-.133-.025v.115h.034v-.1a.06.06 0 0 0-.01-.039.03.03 0 0 0-.026-.013.03.03 0 0 0-.02.007l-.014.02-.006-.014a.03.03 0 0 0-.027-.013.03.03 0 0 0-.019.007.04.04 0 0 0-.011.017v-.022h-.034v.152h.034v-.1a.02.02 0 0 1 0-.014h.012a.01.01 0 0 1 .012.006.02.02 0 0 1 0 .015v.1h.034v-.1a.03.03 0 0 1 .005-.016.01.01 0 0 1 .012 0 .014.014 0 0 1 .024-.008m-.206-.041a.04.04 0 0 0-.036.014.05.05 0 0 0-.013.039v.049a.06.06 0 0 0 .013.04.053.053 0 0 0 .072 0 .05.05 0 0 0 .013-.039v-.05a.05.05 0 0 0-.013-.039.04.04 0 0 0-.036-.014m.016.1a.02.02 0 0 1-.005.014h-.011a.01.01 0 0 1-.012 0v-.075h.012a.01.01 0 0 1 .011 0 .02.02 0 0 1 .005.014Zm-.128-.069h-.046v-.09h-.034v.213h.034v-.087h.046v.087h.034v-.213h-.034Zm2.509-.39a.03.03 0 0 0-.02.008.04.04 0 0 0-.012.017v-.023H16.7v.152h.035v-.086a.04.04 0 0 1 .006-.022.02.02 0 0 1 .017-.008h.012l.01-.035h-.006Zm-.144 0a.05.05 0 0 0-.037.014.06.06 0 0 0-.013.039v.05a.06.06 0 0 0 .013.039.05.05 0 0 0 .037.014.05.05 0 0 0 .036-.014.05.05 0 0 0 .013-.039v-.05a.05.05 0 0 0-.013-.039.05.05 0 0 0-.036-.014m.015.1a.02.02 0 0 1 0 .014.01.01 0 0 1-.011.005.02.02 0 0 1-.012-.005.02.02 0 0 1 0-.014v-.048a.02.02 0 0 1 0-.014h.012a.01.01 0 0 1 .011 0 .02.02 0 0 1 0 .014Zm-.097.054v-.119h.022v-.033h-.022v-.022h.02V15h-.021a.03.03 0 0 0-.026.01.05.05 0 0 0-.008.03v.02H16.5v.033h.014v.119Zm-.126-.061v-.027a.1.1 0 0 0-.013-.049.05.05 0 0 0-.036-.017.04.04 0 0 0-.037.016.06.06 0 0 0-.014.044v.039a.06.06 0 0 0 .014.042.05.05 0 0 0 .038.015.05.05 0 0 0 .032-.01.04.04 0 0 0 .015-.028l-.028-.012-.007.012h-.011a.02.02 0 0 1-.015-.006.03.03 0 0 1-.005-.017v-.007Zm-.068-.035a.03.03 0 0 1 .005-.017.02.02 0 0 1 .014-.007.01.01 0 0 1 .012.006.02.02 0 0 1 0 .015v.011h-.036Zm-.048.096v-.037h-.007V15h-.043v.172a.04.04 0 0 0 .009.029.03.03 0 0 0 .025.011Zm-.142-.021.01.016a.02.02 0 0 0 .018.007.03.03 0 0 0 .027-.014.1.1 0 0 0 .01-.04v-.048a.1.1 0 0 0-.01-.04.03.03 0 0 0-.026-.014.02.02 0 0 0-.018.007.04.04 0 0 0-.011.017V15h-.033v.212h.033Zm0-.079v-.017h.009a.01.01 0 0 1 .011.006.03.03 0 0 1 0 .016v.043a.03.03 0 0 1 0 .016.01.01 0 0 1-.011.005h-.009v-.017Zm-.096-.112h.034v.038h-.034Zm0 .06h.034v.151h-.034Zm-.018.152v-.037h-.007V15H16v.172a.04.04 0 0 0 0 .028.03.03 0 0 0 .025.011Zm-.111-.152h.034v.151h-.034Zm0-.06h.034v.038h-.034Zm-.076.058a.05.05 0 0 0-.03.009.04.04 0 0 0-.016.025l.026.012.008-.009h.011a.017.017 0 0 1 .018.018v.012h-.021a.05.05 0 0 0-.035.012.05.05 0 0 0-.012.035.06.06 0 0 0 .01.034.03.03 0 0 0 .027.011h.016a.03.03 0 0 0 .012-.01v-.008.019h.031v-.1a.06.06 0 0 0-.012-.038.05.05 0 0 0-.033-.022m.017.109a.02.02 0 0 1-.005.012.03.03 0 0 1-.016 0h-.012v-.011a.02.02 0 0 1 0-.013.01.01 0 0 1 .012 0h.02Zm-.125.045.043-.152h-.034l-.022.098-.022-.098h-.033l.043.152Zm-.129-.001a.03.03 0 0 0 .012-.01v-.008.019h.031v-.1a.05.05 0 0 0-.013-.038.05.05 0 0 0-.035-.013.05.05 0 0 0-.03.009.04.04 0 0 0-.016.025l.026.012.008-.009h.011a.017.017 0 0 1 .018.018v.012h-.021a.042.042 0 0 0-.047.047.06.06 0 0 0 .009.034.04.04 0 0 0 .028.011Zm-.022-.042v-.013h.033v.016a.01.01 0 0 1-.006.012.02.02 0 0 1-.016 0h-.011Zm-.124-.038-.013-.007h-.037v-.017h.025l.009.011.027-.015a.05.05 0 0 0-.017-.026.1.1 0 0 0-.032-.009.04.04 0 0 0-.034.013.04.04 0 0 0-.013.034v.02l.009.012.013.008h.028l.01.005v.009l-.005.009h-.012a.03.03 0 0 1-.016 0 .03.03 0 0 1-.011-.014l-.027.016a.04.04 0 0 0 .018.028.06.06 0 0 0 .034.009.05.05 0 0 0 .037-.013.06.06 0 0 0 .009-.057.02.02 0 0 0-.002-.016m-.105.02v-.027a.1.1 0 0 0-.013-.049.05.05 0 0 0-.073 0 .06.06 0 0 0-.014.044v.039a.06.06 0 0 0 .014.042.05.05 0 0 0 .039.015.05.05 0 0 0 .03-.009.04.04 0 0 0 .015-.028l-.028-.012-.007.012h-.011a.02.02 0 0 1-.015-.006.03.03 0 0 1 0-.017v-.007Zm-.068-.035a.03.03 0 0 1 0-.017.02.02 0 0 1 .014-.007.01.01 0 0 1 .012.006.02.02 0 0 1 0 .015v.011H15.3Zm-.101.057a.04.04 0 0 0 .008.029.03.03 0 0 0 .027.011h.016v-.037h-.015v-.082h.017v-.034h-.017v-.044H15.2v.044h-.013v.034h.013Zm-.036.039v-.1a.05.05 0 0 0-.013-.038.05.05 0 0 0-.035-.013.05.05 0 0 0-.03.009.04.04 0 0 0-.016.025l.026.012.008-.009h.011a.017.017 0 0 1 .018.018v.012h-.021a.042.042 0 0 0-.047.047.05.05 0 0 0 .01.034.03.03 0 0 0 .027.011h.016a.03.03 0 0 0 .012-.01v-.008.019Zm-.037-.033a.02.02 0 0 1-.015 0H15.1v-.024a.02.02 0 0 1 .013 0h.02v.016a.01.01 0 0 1-.006.008m-.088.033V15h-.034v.082l-.01-.017a.03.03 0 0 0-.018-.007.03.03 0 0 0-.027.014.1.1 0 0 0-.009.04v.049a.1.1 0 0 0 .009.039.03.03 0 0 0 .027.014A.024.024 0 0 0 15 15.2a.03.03 0 0 0 .01-.016v.021ZM15 15.167v.006h-.008a.01.01 0 0 1-.012-.005v-.059a.03.03 0 0 1 0-.016.01.01 0 0 1 .012-.006H15v.072Zm-.148.02a.04.04 0 0 0 .01.016.02.02 0 0 0 .018.007.03.03 0 0 0 .027-.014.1.1 0 0 0 .009-.04v-.048a.1.1 0 0 0-.009-.04.03.03 0 0 0-.027-.014.03.03 0 0 0-.018.007l-.01.017v-.022h-.034v.214h.034Zm0-.079v-.011l.005-.006h.008a.01.01 0 0 1 .012.006.03.03 0 0 1 0 .016v.043a.03.03 0 0 1 0 .016.02.02 0 0 1-.012.005h-.008l-.005-.006v-.011Zm-.064.1v-.152h-.034v.1a.02.02 0 0 1 0 .014.02.02 0 0 1-.022 0 .02.02 0 0 1 0-.013v-.1h-.042v.1a.06.06 0 0 0 .01.037.03.03 0 0 0 .027.013.02.02 0 0 0 .018-.008.04.04 0 0 0 .009-.016v.022Zm-.231-.055-.022-.097h-.024l-.022.097-.017-.097h-.033l.036.152h.026l.022-.1.022.1h.026l.036-.152h-.033Zm-.179-.099a.04.04 0 0 0-.037.016.06.06 0 0 0-.014.044v.039a.06.06 0 0 0 .014.042.05.05 0 0 0 .039.015.05.05 0 0 0 .03-.009.04.04 0 0 0 .015-.028l-.028-.012-.007.012h-.011a.02.02 0 0 1-.015-.006.03.03 0 0 1-.005-.017v-.007h.068v-.023a.1.1 0 0 0-.013-.049.05.05 0 0 0-.036-.017m.017.066h-.036v-.008a.03.03 0 0 1 .005-.017.02.02 0 0 1 .014-.007.01.01 0 0 1 .012.006.02.02 0 0 1 0 .015Zm-.128.019-.054-.143h-.034v.212h.031v-.139l.054.139h.035v-.212h-.032Zm2.26-.351v-.026a.1.1 0 0 0-.013-.049.04.04 0 0 0-.036-.018.05.05 0 0 0-.037.016.07.07 0 0 0-.014.044v.039a.06.06 0 0 0 .014.042.05.05 0 0 0 .038.015.05.05 0 0 0 .031-.009.04.04 0 0 0 .015-.027L16.5 14.8l-.007.012h-.011a.02.02 0 0 1-.015-.006.03.03 0 0 1 0-.017v-.007Zm-.068-.034a.03.03 0 0 1 0-.018.02.02 0 0 1 .014-.006.01.01 0 0 1 .012 0 .02.02 0 0 1 .005.015v.011h-.036Zm-.104-.1v.046h-.013v.033h.013v.079a.05.05 0 0 0 .008.03.03.03 0 0 0 .026.01h.016v-.037h-.01v-.079h.017V14.7h-.017v-.044Zm-.127.075.026.012.008-.008h.011a.015.015 0 0 1 .017.017v.012h-.021a.05.05 0 0 0-.034.012.05.05 0 0 0-.012.035.05.05 0 0 0 .009.034.03.03 0 0 0 .028.011h.016a.02.02 0 0 0 .012-.01v-.008.019h.032v-.1a.05.05 0 0 0-.013-.037.05.05 0 0 0-.036-.014.05.05 0 0 0-.029.009.04.04 0 0 0-.014.016m.062.076v.011a.02.02 0 0 1-.016 0h-.011v-.024h.032Zm-.09.044v-.212h-.034v.082a.04.04 0 0 0-.011-.016.03.03 0 0 0-.017-.008.03.03 0 0 0-.027.014.1.1 0 0 0-.009.04v.051a.1.1 0 0 0 .009.04.03.03 0 0 0 .027.014.03.03 0 0 0 .018-.007.03.03 0 0 0 .01-.017v.021Zm-.036-.041-.005.007h-.008a.01.01 0 0 1-.012-.006.02.02 0 0 1 0-.015v-.044a.03.03 0 0 1 0-.016.01.01 0 0 1 .012-.006h.008l.005.007v.065Zm-.154.02a.03.03 0 0 0 .01.017.03.03 0 0 0 .018.006.03.03 0 0 0 .027-.014.1.1 0 0 0 .009-.04v-.048a.1.1 0 0 0-.009-.04.03.03 0 0 0-.027-.014.03.03 0 0 0-.018.008l-.01.016V14.7h-.034v.213h.034Zm0-.079v-.017h.008a.01.01 0 0 1 .012.006v.078a.01.01 0 0 1-.012.006h-.008v-.016Zm-.064.1V14.7h-.034v.1a.02.02 0 0 1 0 .013.01.01 0 0 1-.011 0h-.012V14.7h-.034v.1a.1.1 0 0 0 .009.038.04.04 0 0 0 .028.012.02.02 0 0 0 .018-.007l.009-.017v.022Zm-.186-.118V14.7h-.017v-.044h-.034v.044H15.7v.033h.012v.079a.05.05 0 0 0 .009.03.03.03 0 0 0 .026.01h.016v-.037h-.015v-.079Zm-.119-.031a.03.03 0 0 0-.019.008.04.04 0 0 0-.011.017V14.7h-.034v.151h.034v-.1a.02.02 0 0 1 0-.014.02.02 0 0 1 .024 0v.114h.034v-.1a.1.1 0 0 0-.01-.037.03.03 0 0 0-.018-.014m-.094.149v-.1a.05.05 0 0 0-.013-.037.05.05 0 0 0-.065 0 .04.04 0 0 0-.016.025l.026.012.008-.008h.011a.015.015 0 0 1 .017.017v.012h-.021a.05.05 0 0 0-.034.012.05.05 0 0 0-.012.035.05.05 0 0 0 .009.034.03.03 0 0 0 .028.011h.016a.02.02 0 0 0 .012-.01v-.008.019Zm-.037-.033a.03.03 0 0 1-.016 0h-.011v-.011a.02.02 0 0 1 0-.013h.032v.016a.01.01 0 0 1-.005.008m-.083-.085V14.7h-.017v-.044h-.034v.044h-.013v.033h.013v.079a.05.05 0 0 0 .008.03.03.03 0 0 0 .027.01h.016v-.037h-.015v-.079Zm-.122.086a.03.03 0 0 1-.016-.005.03.03 0 0 1-.011-.013l-.027.016a.04.04 0 0 0 .018.027.06.06 0 0 0 .034.009.05.05 0 0 0 .036-.012.05.05 0 0 0 .014-.035v-.023a.03.03 0 0 0-.01-.013l-.013-.007h-.037v-.017h.025l.009.012.027-.016a.05.05 0 0 0-.017-.026.06.06 0 0 0-.037-.014.05.05 0 0 0-.034.013.04.04 0 0 0-.013.034v.02l.009.013.013.007.014.005h.013l.011.005v.018Zm-.106-.18h.034v.038h-.034Zm0 .061h.034v.152h-.034Zm-.032.07-.014-.007h-.036v-.017h.024l.009.012.028-.016a.05.05 0 0 0-.018-.026.055.055 0 0 0-.066 0 .05.05 0 0 0-.012.034v.02l.009.013.012.007.014.005h.014l.011.005v.009l-.005.009h-.013a.03.03 0 0 1-.015-.005.03.03 0 0 1-.012-.013l-.027.016a.05.05 0 0 0 .018.027.1.1 0 0 0 .034.009.05.05 0 0 0 .037-.012.05.05 0 0 0 .013-.035v-.023Zm-.099.032v-.023a.03.03 0 0 0-.01-.013l-.013-.007h-.037v-.017h.025l.009.012.027-.016a.05.05 0 0 0-.017-.026.1.1 0 0 0-.032-.009.05.05 0 0 0-.034.013.04.04 0 0 0-.013.034.04.04 0 0 0 0 .02l.008.013.013.007.014.005h.014l.01.005v.009l-.005.009h-.012a.03.03 0 0 1-.015-.004.03.03 0 0 1-.011-.013l-.027.016a.04.04 0 0 0 .018.027.06.06 0 0 0 .034.009.05.05 0 0 0 .037-.012.05.05 0 0 0 .017-.039m-.11.049-.058-.212h-.023l-.059.212h.036l.008-.033h.053l.008.033Zm-.087-.069.017-.073.018.073Zm-.129.008v-.026a.1.1 0 0 0-.013-.049.04.04 0 0 0-.037-.018.05.05 0 0 0-.037.016.07.07 0 0 0-.013.044v.039a.06.06 0 0 0 .014.042.05.05 0 0 0 .038.015.05.05 0 0 0 .03-.009.05.05 0 0 0 .016-.027l-.028-.013-.007.012h-.012a.02.02 0 0 1-.014-.006.02.02 0 0 1-.005-.017v-.007Zm-.068-.034a.02.02 0 0 1 .005-.018.02.02 0 0 1 .013-.006.02.02 0 0 1 .013 0 .03.03 0 0 1 .005.015v.011h-.036Zm-.059-.006a.06.06 0 0 0-.01-.039.03.03 0 0 0-.026-.014.03.03 0 0 0-.02.008l-.014.019-.006-.014a.03.03 0 0 0-.027-.013.03.03 0 0 0-.019.008.04.04 0 0 0-.011.016V14.7h-.034v.151h.034v-.1a.02.02 0 0 1 0-.014.01.01 0 0 1 .012-.005.02.02 0 0 1 .012.005.03.03 0 0 1 0 .016v.1h.034v-.1a.03.03 0 0 1 .005-.015.01.01 0 0 1 .012-.005.02.02 0 0 1 .012.005v.116h.034Zm-.28-.039a.05.05 0 0 0-.013.039v.05a.05.05 0 0 0 .013.039.04.04 0 0 0 .036.014.05.05 0 0 0 .036-.013.06.06 0 0 0 .013-.04v-.05a.05.05 0 0 0-.013-.039.053.053 0 0 0-.072 0m.052.041v.05a.02.02 0 0 1-.005.014.01.01 0 0 1-.011.005.02.02 0 0 1-.012-.005v-.078a.01.01 0 0 1 .012-.005s.009 0 .011.005a.02.02 0 0 1 .005.014m-.094.099v-.212h-.034v.089h-.046v-.089h-.034v.212h.034v-.087h.046v.087Zm.517-.755h.034v.038h-.034Zm-.028.027a.05.05 0 0 0 .013-.035v-.022a.03.03 0 0 0-.01-.013l-.014-.007h-.027l-.009-.005v-.016h.024l.009.011.028-.015a.05.05 0 0 0-.018-.026.05.05 0 0 0-.031-.009.042.042 0 0 0-.047.047v.02l.009.012.012.007.014.005h.025v.01l-.005.009h-.028a.04.04 0 0 1-.012-.014l-.027.016a.04.04 0 0 0 .018.027.06.06 0 0 0 .034.01.05.05 0 0 0 .042-.012m-.123-.112.034-.037v-.052h-.034Zm-.012.072v-.05a.05.05 0 0 0-.013-.039.05.05 0 0 0-.036-.014.05.05 0 0 0-.037.014.06.06 0 0 0-.013.039v.049a.06.06 0 0 0 .013.04.05.05 0 0 0 .037.014.05.05 0 0 0 .036-.014.05.05 0 0 0 .013-.039m-.034 0a.02.02 0 0 1 0 .015.01.01 0 0 1-.011.005.02.02 0 0 1-.012-.005.02.02 0 0 1 0-.015v-.047a.02.02 0 0 1 0-.014.02.02 0 0 1 .012-.005.01.01 0 0 1 .011.005.02.02 0 0 1 0 .014Zm-.13.072a.01.01 0 0 1-.01 0h-.01l-.006-.011-.032.011a.05.05 0 0 0 .014.03.05.05 0 0 0 .031.009.05.05 0 0 0 .038-.014.06.06 0 0 0 .013-.04v-.158h-.034V14l-.01-.016a.02.02 0 0 0-.018-.007.03.03 0 0 0-.027.014.1.1 0 0 0-.009.039v.05a.1.1 0 0 0 .009.039.03.03 0 0 0 .027.014.03.03 0 0 0 .019-.007.04.04 0 0 0 .009-.016v.029a.02.02 0 0 1-.004.014m0-.062-.005.006h-.009a.01.01 0 0 1-.011-.005.03.03 0 0 1 0-.016v-.044a.03.03 0 0 1 0-.016.01.01 0 0 1 .011-.005h.009l.005.006v.07Zm-.133.043a.05.05 0 0 0 .036-.014.06.06 0 0 0 .013-.039v-.05a.06.06 0 0 0-.013-.039.05.05 0 0 0-.036-.014.05.05 0 0 0-.037.014.05.05 0 0 0-.013.039v.049a.06.06 0 0 0 .013.04.05.05 0 0 0 .037.014m-.016-.1a.02.02 0 0 1 0-.014.01.01 0 0 1 .011-.005.02.02 0 0 1 .012.005.02.02 0 0 1 0 .014v.047a.02.02 0 0 1 0 .015.02.02 0 0 1-.012.005.01.01 0 0 1-.011-.005.02.02 0 0 1 0-.015Zm-.155-.114v.212h.104v-.037h-.07v-.175Zm2.57-.301a.05.05 0 0 0-.036.014.05.05 0 0 0-.013.039v.05a.05.05 0 0 0 .013.039.05.05 0 0 0 .036.014.05.05 0 0 0 .037-.014.06.06 0 0 0 .013-.039v-.05a.06.06 0 0 0-.013-.039.05.05 0 0 0-.037-.014m.016.1v.014a.02.02 0 0 1-.012.005.01.01 0 0 1-.011-.005.02.02 0 0 1 0-.014v-.048a.02.02 0 0 1 0-.013s.006-.005.011-.005a.01.01 0 0 1 .012.005v.013Zm-.128-.1a.03.03 0 0 0-.019.008.04.04 0 0 0-.011.017v-.083h-.033v.212h.033v-.114a.02.02 0 0 1 .024 0 .02.02 0 0 1 0 .014v.1h.034v-.1a.1.1 0 0 0-.009-.037.03.03 0 0 0-.019-.017m-.183.101a.06.06 0 0 0 .013.041.05.05 0 0 0 .038.014.05.05 0 0 0 .033-.01.05.05 0 0 0 .014-.031l-.031-.012-.005.013-.011.005a.02.02 0 0 1-.013-.006.03.03 0 0 1 0-.016v-.041a.03.03 0 0 1 0-.016.02.02 0 0 1 .013-.006h.011l.005.014.031-.012a.05.05 0 0 0-.014-.031.055.055 0 0 0-.071 0 .06.06 0 0 0-.013.042Zm-.092.053h.071v-.037h-.071v-.05h.061v-.037h-.061v-.051h.071v-.037h-.105v.212h.013Zm-.176-.154a.05.05 0 0 0-.03.009.04.04 0 0 0-.016.025l.027.012.007-.008h.011a.02.02 0 0 1 .013 0 .02.02 0 0 1 0 .013v.012h-.021a.042.042 0 0 0-.047.047.06.06 0 0 0 .01.034.03.03 0 0 0 .027.011h.016a.02.02 0 0 0 .012-.01v-.008.019h.031v-.1a.06.06 0 0 0-.012-.038.05.05 0 0 0-.028-.018m.017.109a.01.01 0 0 1 0 .012.03.03 0 0 1-.016 0h-.011v-.011a.02.02 0 0 1 0-.013.01.01 0 0 1 .012-.005h.02Zm-.127-.084v-.022h-.035v.151h.035v-.086a.03.03 0 0 1 .007-.022.02.02 0 0 1 .017-.008h.007l.01-.036h-.014a.03.03 0 0 0-.02.008Zm-.06.13v-.037h-.015v-.079h.017v-.033H16v-.044h-.034v.044h-.012v.033h.012v.079a.05.05 0 0 0 .008.029.03.03 0 0 0 .027.011Zm-.149-.001.02-.043.021.043h.036l-.04-.075.038-.076h-.036l-.018.042-.018-.042h-.037l.038.075-.04.076Zm-.048-.061v-.027a.1.1 0 0 0-.013-.048.04.04 0 0 0-.037-.018.05.05 0 0 0-.037.016.06.06 0 0 0-.013.044v.039a.06.06 0 0 0 .014.042.05.05 0 0 0 .038.015.05.05 0 0 0 .03-.009.05.05 0 0 0 .016-.027l-.028-.013-.007.012h-.012a.02.02 0 0 1-.014-.006.03.03 0 0 1-.005-.017v-.007Zm-.068-.035a.02.02 0 0 1 .005-.017.02.02 0 0 1 .013-.007.02.02 0 0 1 .013.006.03.03 0 0 1 .005.015v.011h-.036Zm-.129-.077h.02v-.035h-.021a.03.03 0 0 0-.026.01.05.05 0 0 0-.008.03v.021h-.013v.032h.013v.119h.034v-.119h.021v-.032h-.021Zm-.066.072a.05.05 0 0 0-.013-.039.053.053 0 0 0-.072 0 .05.05 0 0 0-.013.039v.05a.05.05 0 0 0 .013.039.053.053 0 0 0 .072 0 .05.05 0 0 0 .013-.039Zm-.033.049a.02.02 0 0 1 0 .014.01.01 0 0 1-.011.005.02.02 0 0 1-.012-.005v-.075a.01.01 0 0 1 .012-.005q.008-.001.011.005a.02.02 0 0 1 0 .013Zm-.194-.16v.172a.05.05 0 0 0 .009.03.03.03 0 0 0 .025.01h.015v-.037h-.012v-.172Zm-.069 0v.172a.05.05 0 0 0 .009.03.03.03 0 0 0 .025.01h.015v-.037h-.016v-.172Zm-.031.212v-.151H15.2v.1a.02.02 0 0 1 0 .013.01.01 0 0 1-.011 0h-.012v-.113h-.034v.1a.06.06 0 0 0 .009.037.03.03 0 0 0 .028.013.02.02 0 0 0 .018-.008.04.04 0 0 0 .009-.016v.022ZM15.1 13.6h.02v-.035h-.02a.03.03 0 0 0-.026.01.05.05 0 0 0-.008.03v.021h-.013v.032h.013v.119h.034v-.119h.022v-.032H15.1v-.015Zm-.126.135h-.034v.09l.034-.038Zm-.05-.023v-.027a.07.07 0 0 0-.013-.048.04.04 0 0 0-.036-.018.05.05 0 0 0-.037.016.06.06 0 0 0-.014.044v.039a.06.06 0 0 0 .014.042.05.05 0 0 0 .039.015.05.05 0 0 0 .03-.009.04.04 0 0 0 .015-.027l-.028-.013-.007.012h-.011a.02.02 0 0 1-.015-.006.03.03 0 0 1-.005-.017v-.007Zm-.068-.035a.03.03 0 0 1 .005-.017.02.02 0 0 1 .014-.007.01.01 0 0 1 .012.006.02.02 0 0 1 0 .015v.011h-.036Zm-.056.028a.03.03 0 0 0-.01-.013l-.013-.007h-.037v-.017h.024l.009.012.028-.016a.05.05 0 0 0-.017-.026.1.1 0 0 0-.032-.009.04.04 0 0 0-.034.013.04.04 0 0 0-.013.034v.02l.009.013.013.007h.038v.018h-.012a.03.03 0 0 1-.016 0 .03.03 0 0 1-.011-.013l-.028.016a.05.05 0 0 0 .018.027.1.1 0 0 0 .035.009.05.05 0 0 0 .036-.012.05.05 0 0 0 .014-.036Zm-.168-.022a.05.05 0 0 0-.034.012.05.05 0 0 0-.012.035.06.06 0 0 0 .009.034.03.03 0 0 0 .028.011h.016a.02.02 0 0 0 .012-.01v-.008.019h.032v-.1a.06.06 0 0 0-.013-.038.05.05 0 0 0-.036-.013.05.05 0 0 0-.029.009.04.04 0 0 0-.016.025l.026.012.008-.008h.011a.02.02 0 0 1 .013 0 .02.02 0 0 1 0 .013v.012Zm.021.045q.001.009-.005.012a.03.03 0 0 1-.016 0h-.011v-.011a.02.02 0 0 1 0-.013.02.02 0 0 1 .012-.005h.02Zm-.09-.016v-.027a.07.07 0 0 0-.013-.048.04.04 0 0 0-.036-.018.05.05 0 0 0-.037.016.06.06 0 0 0-.014.044v.039a.06.06 0 0 0 .014.042.05.05 0 0 0 .038.015.05.05 0 0 0 .031-.009.04.04 0 0 0 .015-.027l-.028-.013-.007.012h-.011a.02.02 0 0 1-.015-.006.03.03 0 0 1-.005-.017v-.007Zm-.068-.035a.03.03 0 0 1 .005-.017.02.02 0 0 1 .014-.007.01.01 0 0 1 .012.006.02.02 0 0 1 .005.015v.011H14.5Zm-.049.096v-.037h-.007v-.172H14.4v.172a.05.05 0 0 0 .009.03.03.03 0 0 0 .025.01Zm-.076-.061v-.027a.07.07 0 0 0-.013-.048.04.04 0 0 0-.036-.018.05.05 0 0 0-.037.016.06.06 0 0 0-.013.044v.039a.06.06 0 0 0 .013.042.05.05 0 0 0 .039.015.05.05 0 0 0 .03-.009.05.05 0 0 0 .016-.027l-.029-.013-.007.012h-.011a.02.02 0 0 1-.015-.006.03.03 0 0 1-.005-.017v-.007Zm-.068-.035a.03.03 0 0 1 .005-.017.02.02 0 0 1 .014-.007.02.02 0 0 1 .013.006.02.02 0 0 1 0 .015v.011H14.3Zm-.124-.055v.151h.035v-.086a.04.04 0 0 1 .006-.022.02.02 0 0 1 .018-.008h.006l.011-.036h-.014a.03.03 0 0 0-.02.008l-.012.017v-.022Zm2.552-.208.035-.151h-.033l-.017.097-.022-.097h-.023l-.022.097-.018-.097h-.032l.035.151h.026l.022-.099.023.099Zm-.192.003a.05.05 0 0 0 .03-.01.05.05 0 0 0 .016-.027l-.029-.013-.006.012h-.012a.02.02 0 0 1-.014-.006.02.02 0 0 1 0-.017v-.007h.067v-.026a.1.1 0 0 0-.012-.049.04.04 0 0 0-.037-.018.05.05 0 0 0-.037.016.07.07 0 0 0-.013.044v.039a.06.06 0 0 0 .014.042.05.05 0 0 0 .033.02m-.02-.1a.02.02 0 0 1 0-.018.02.02 0 0 1 .013-.006.02.02 0 0 1 .013.005.03.03 0 0 1 0 .016v.01h-.036Zm-.125-.002v-.014a.02.02 0 0 1 .024 0v.114h.034v-.1a.06.06 0 0 0-.01-.037.03.03 0 0 0-.026-.013.03.03 0 0 0-.019.008.04.04 0 0 0-.011.017v-.022h-.034v.151h.034Zm-.121.061h-.034v.09l.034-.037Zm-.097.006a.03.03 0 0 1-.016 0l-.011-.013-.027.016a.05.05 0 0 0 .018.027.06.06 0 0 0 .034.01.05.05 0 0 0 .037-.013.05.05 0 0 0 .013-.035v-.023l-.01-.013-.014-.006h-.036v-.008l.005-.009h.024l.009.012.027-.015a.04.04 0 0 0-.017-.026.05.05 0 0 0-.031-.01.05.05 0 0 0-.035.013.05.05 0 0 0-.013.034.04.04 0 0 0 0 .02l.009.013.012.007.014.005h.024v.018Zm-.139-.067a.02.02 0 0 1 0-.014.01.01 0 0 1 .011-.005.02.02 0 0 1 .012.005.02.02 0 0 1 0 .014v.1h.041v-.1a.1.1 0 0 0-.009-.037.03.03 0 0 0-.026-.013.03.03 0 0 0-.02.008l-.01.017v-.022H16v.151h.034Zm-.161-.002v.05a.06.06 0 0 0 .013.04.05.05 0 0 0 .037.014.05.05 0 0 0 .036-.014.06.06 0 0 0 .013-.04v-.05a.05.05 0 0 0-.013-.039.05.05 0 0 0-.036-.014.05.05 0 0 0-.037.014.06.06 0 0 0-.013.039m.034 0v-.014a.01.01 0 0 1 .012-.005s.009 0 .011.005a.02.02 0 0 1 0 .014v.047a.02.02 0 0 1 0 .014.01.01 0 0 1-.011.005.02.02 0 0 1-.012-.005v-.014Zm-.098.104a.05.05 0 0 0 .032-.01.05.05 0 0 0 .015-.031l-.032-.013-.005.014h-.011a.01.01 0 0 1-.012-.006.03.03 0 0 1-.005-.016v-.04a.03.03 0 0 1 .007-.015.01.01 0 0 1 .012-.006h.011l.006.014.031-.011a.05.05 0 0 0-.015-.032.05.05 0 0 0-.032-.011.05.05 0 0 0-.039.015.07.07 0 0 0-.013.042v.044a.07.07 0 0 0 .013.041.05.05 0 0 0 .037.021m-.112-.215h.034v.212h-.034Zm-.125.212h.034V13.2h-.034v.082l-.011-.016a.03.03 0 0 0-.018-.008.03.03 0 0 0-.026.014.1.1 0 0 0-.009.04v.049a.1.1 0 0 0 .009.04.03.03 0 0 0 .026.014.03.03 0 0 0 .019-.007l.01-.016Zm0-.041v.007h-.008a.01.01 0 0 1-.012-.006.02.02 0 0 1 0-.015v-.044a.03.03 0 0 1 0-.016.01.01 0 0 1 .012-.006h.008v.065Zm-.13-.073a.02.02 0 0 1 0 .014v.1h.033v-.1a.1.1 0 0 0-.009-.037.03.03 0 0 0-.026-.013.03.03 0 0 0-.02.008l-.01.017v-.022h-.034v.151h.034v-.1a.02.02 0 0 1 0-.014.01.01 0 0 1 .011-.005.014.014 0 0 1 .021.001m-.144.024a.04.04 0 0 0-.034.012.05.05 0 0 0-.012.035.05.05 0 0 0 .009.034.03.03 0 0 0 .028.012h.016a.03.03 0 0 0 .012-.01v-.008.019h.032v-.1a.05.05 0 0 0-.013-.037.05.05 0 0 0-.036-.014.05.05 0 0 0-.03.009.05.05 0 0 0-.016.025l.027.012.008-.008h.011a.02.02 0 0 1 .013 0 .02.02 0 0 1 0 .013v.012Zm.021.046v.012h-.027v-.011a.02.02 0 0 1 0-.013h.032Zm-.121-.042a.03.03 0 0 1 .006-.021.02.02 0 0 1 .017-.008h.012l.01-.036h-.013a.03.03 0 0 0-.02.008l-.012.017v-.022h-.04v.151h.04Zm-.069-.064v-.011a.06.06 0 0 0-.013-.038.05.05 0 0 0-.036-.013h-.063v.212h.065a.05.05 0 0 0 .036-.013.05.05 0 0 0 .013-.038v-.014a.05.05 0 0 0-.009-.03.04.04 0 0 0-.026-.014.04.04 0 0 0 .024-.014.04.04 0 0 0 .009-.027m-.079-.026h.027a.017.017 0 0 1 .018.018v.011a.02.02 0 0 1 0 .015.02.02 0 0 1-.013.005h-.027Zm.047.106v.015a.017.017 0 0 1-.019.019h-.028v-.055h.028a.02.02 0 0 1 .014.006.02.02 0 0 1 .006.015Zm-.279-.044a.03.03 0 0 1 0 .016v.1h.034v-.115a.01.01 0 0 1 .012-.005.02.02 0 0 1 .012.005.03.03 0 0 1 0 .016v.1h.034v-.1a.06.06 0 0 0-.01-.039.03.03 0 0 0-.026-.014.03.03 0 0 0-.02.008l-.014.02-.006-.014a.03.03 0 0 0-.027-.014.03.03 0 0 0-.019.008l-.011.017v-.022h-.034v.151h.034v-.114a.01.01 0 0 1 .012-.005.017.017 0 0 1 .029.001m-.175-.026a.05.05 0 0 0-.013.039v.05a.06.06 0 0 0 .013.04.05.05 0 0 0 .036.014.05.05 0 0 0 .036-.014.06.06 0 0 0 .013-.04v-.05a.05.05 0 0 0-.013-.039.05.05 0 0 0-.036-.014.05.05 0 0 0-.036.014m.052.041v.061a.02.02 0 0 1-.024 0v-.075a.02.02 0 0 1 .024 0l.003.014Zm-.138.06a.05.05 0 0 0 .008.03.03.03 0 0 0 .027.01h.016v-.037h-.016V13.3h.017v-.033h-.017v-.044h-.034v.044h-.013v.033h.013Zm-.074-.075h.012l.009.012.028-.015a.04.04 0 0 0-.017-.026.1.1 0 0 0-.032-.01.05.05 0 0 0-.034.013.04.04 0 0 0-.013.034v.02l.009.013.013.007.013.005h.025v.009l-.005.009h-.012a.03.03 0 0 1-.016 0 .02.02 0 0 1-.011-.013l-.028.016a.05.05 0 0 0 .018.027.1.1 0 0 0 .035.01.05.05 0 0 0 .036-.013.05.05 0 0 0 .014-.035v-.023a.03.03 0 0 0-.01-.013l-.013-.006h-.037v-.017Zm-.132.117a.02.02 0 0 0 .018-.008l.009-.017v.022h.034v-.151h-.034v.1a.02.02 0 0 1 0 .013.015.015 0 0 1-.022 0 .02.02 0 0 1 0-.013v-.1h-.034v.1a.06.06 0 0 0 .01.038.03.03 0 0 0 .019.016m-.153-.008a.1.1 0 0 0 .031.008.1.1 0 0 0 .029-.008.05.05 0 0 0 .019-.024.1.1 0 0 0 .008-.041h-.035l-.006.026a.02.02 0 0 1-.015.008.02.02 0 0 1-.016-.007.03.03 0 0 1-.006-.021v-.083a.03.03 0 0 1 .006-.021.02.02 0 0 1 .016-.008h.011l.007.011v.019h.035a.1.1 0 0 0-.008-.04.04.04 0 0 0-.019-.024.1.1 0 0 0-.029-.008.1.1 0 0 0-.031.008.05.05 0 0 0-.019.022.1.1 0 0 0-.007.037v.083a.1.1 0 0 0 .007.036.05.05 0 0 0 .022.027m1.614-.609a.04.04 0 0 0 .027-.008l.014-.02v.028h.045v-.265h-.048v.1l-.015-.018a.04.04 0 0 0-.026-.009.05.05 0 0 0-.038.017.1.1 0 0 0-.013.05v.061a.1.1 0 0 0 .013.049.04.04 0 0 0 .041.015m0-.124a.03.03 0 0 1 .006-.02.02.02 0 0 1 .016-.007h.012l.007.008v.086l-.007.008h-.012a.02.02 0 0 1-.016-.007.03.03 0 0 1-.006-.019Zm-.153.124a.1.1 0 0 0 .043-.011.06.06 0 0 0 .023-.035l-.041-.015a.03.03 0 0 1-.01.015.03.03 0 0 1-.016 0 .025.025 0 0 1-.028-.028v-.009h.1v-.033a.1.1 0 0 0-.019-.06.06.06 0 0 0-.051-.022.07.07 0 0 0-.054.019.08.08 0 0 0-.019.056v.048a.07.07 0 0 0 .02.053.08.08 0 0 0 .052.022m-.029-.121a.03.03 0 0 1 .007-.023.03.03 0 0 1 .02-.008.02.02 0 0 1 .017.008.02.02 0 0 1 .007.018v.014h-.051Zm-.148.121a.1.1 0 0 0 .044-.011.06.06 0 0 0 .022-.035l-.041-.015-.009.015a.03.03 0 0 1-.017 0 .02.02 0 0 1-.02-.007.03.03 0 0 1-.008-.021v-.009h.1v-.033a.1.1 0 0 0-.018-.06.07.07 0 0 0-.052-.022.07.07 0 0 0-.053.019.08.08 0 0 0-.019.056v.048a.07.07 0 0 0 .019.053.08.08 0 0 0 .052.022m-.029-.121a.04.04 0 0 1 .007-.023.03.03 0 0 1 .02-.008.03.03 0 0 1 .018.008.02.02 0 0 1 .007.018v.014h-.052Zm-.168.012h.086v-.045h-.086v-.067h.101v-.046h-.149v.265h.048Zm-.237.066-.023-.006a.04.04 0 0 1-.015-.016l-.039.019a.05.05 0 0 0 .025.034.1.1 0 0 0 .049.012.08.08 0 0 0 .053-.016.05.05 0 0 0 .019-.043v-.028L15.1 12.7l-.02-.009-.021-.005h-.018l-.013-.005a.01.01 0 0 1-.005-.01.01.01 0 0 1 .006-.011.03.03 0 0 1 .017 0 .04.04 0 0 1 .018.005.04.04 0 0 1 .013.015l.039-.019a.06.06 0 0 0-.025-.033.1.1 0 0 0-.044-.011.07.07 0 0 0-.05.016.05.05 0 0 0-.018.042l.005.025a.03.03 0 0 0 .013.016l.017.009.02.006h.02l.015.006a.01.01 0 0 1 .006.011.01.01 0 0 1-.007.012.03.03 0 0 1-.018-.003m-.243.041.031-.125.033.125h.037l.05-.189h-.047l-.024.12-.032-.12h-.033l-.032.12-.024-.12h-.047l.05.189Zm-.174.002a.1.1 0 0 0 .044-.011.06.06 0 0 0 .022-.035l-.041-.015-.009.015a.03.03 0 0 1-.017 0 .02.02 0 0 1-.02-.007.03.03 0 0 1-.008-.021v-.009h.1v-.033a.1.1 0 0 0-.018-.06.07.07 0 0 0-.052-.022.07.07 0 0 0-.053.019.08.08 0 0 0-.019.056v.048a.07.07 0 0 0 .019.053.08.08 0 0 0 .052.022m-.029-.121a.04.04 0 0 1 .007-.023.03.03 0 0 1 .02-.008.03.03 0 0 1 .018.008.02.02 0 0 1 .007.018v.014H14.6Zm-.212-.054.077.172h.049v-.264h-.045v.178l-.078-.178h-.049v.264h.046Zm-3.416 3.249a.074.074 0 0 1-.074.074.074.074 0 0 1-.074-.074.074.074 0 0 1 .074-.074.074.074 0 0 1 .074.074m.446-2.386a.02.02 0 0 1 .008-.018.04.04 0 0 1 .024-.006.03.03 0 0 1 .024.007.02.02 0 0 1 .009.02v.076h.031v-.076a.05.05 0 0 0-.014-.038.06.06 0 0 0-.04-.013l-.026.006-.016.015v-.019h-.031v.125h.031Zm-.116-.088a.1.1 0 0 0-.041-.008.1.1 0 0 0-.041.008.1.1 0 0 0-.028.023.1.1 0 0 0-.009.034v.043a.1.1 0 0 0 .009.034.06.06 0 0 0 .028.022.1.1 0 0 0 .041.008.1.1 0 0 0 .041-.008.05.05 0 0 0 .027-.022.06.06 0 0 0 .01-.034v-.049a.06.06 0 0 0-.01-.034.1.1 0 0 0-.027-.017m.005.107a.04.04 0 0 1-.013.029.05.05 0 0 1-.033.01.05.05 0 0 1-.034-.01.04.04 0 0 1-.012-.029v-.051a.04.04 0 0 1 .012-.029.05.05 0 0 1 .034-.011.05.05 0 0 1 .033.011.04.04 0 0 1 .013.029Zm1.805-.259a.06.06 0 0 0 .011.037.05.05 0 0 0 .036.013h.025v-.048h-.02v-.094h.023v-.046h-.023v-.055h-.049v.055H13.1v.042h.019Zm-.162-.064a.03.03 0 0 1 .008-.022.03.03 0 0 1 .021-.008.03.03 0 0 1 .022.008.03.03 0 0 1 .008.021v.117h.049v-.114a.1.1 0 0 0-.016-.056.06.06 0 0 0-.046-.02.05.05 0 0 0-.03.009l-.016.02v-.1h-.049v.261h.049Zm-.19.116a.05.05 0 0 0 .028-.008l.015-.019v.027a.03.03 0 0 1-.01.023.04.04 0 0 1-.025.009h-.019l-.015-.011-.033.031a.1.1 0 0 0 .027.022.1.1 0 0 0 .04.008.08.08 0 0 0 .062-.022.08.08 0 0 0 .022-.06v-.19h-.049v.025l-.016-.019a.05.05 0 0 0-.027-.009.06.06 0 0 0-.047.021.1.1 0 0 0-.016.061v.029a.1.1 0 0 0 .016.06.06.06 0 0 0 .047.022m-.014-.11a.04.04 0 0 1 .008-.027.03.03 0 0 1 .021-.009h.015l.01.01v.074l-.01.01h-.015a.02.02 0 0 1-.021-.01.04.04 0 0 1-.008-.026Zm-.139-.155h.049v.049h-.049Zm0 .075h.049v.187h-.049Zm-.156.187h.126v-.048h-.126v-.214h-.049v.262h.021Zm-.294.003a.05.05 0 0 0 .029-.008l.015-.019v.027a.03.03 0 0 1-.01.023.04.04 0 0 1-.025.009h-.019a.04.04 0 0 1-.015-.011l-.033.031a.1.1 0 0 0 .027.022.1.1 0 0 0 .04.008.08.08 0 0 0 .062-.022.08.08 0 0 0 .022-.06v-.19h-.049v.025l-.016-.019a.05.05 0 0 0-.028-.009.06.06 0 0 0-.046.021.1.1 0 0 0-.016.061v.029a.1.1 0 0 0 .016.06.06.06 0 0 0 .046.022m-.013-.11a.04.04 0 0 1 .007-.027.03.03 0 0 1 .022-.009h.015l.01.01v.074l-.01.01h-.015a.03.03 0 0 1-.022-.01.04.04 0 0 1-.007-.026Zm-.201-.006a.03.03 0 0 1 .008-.022.03.03 0 0 1 .021-.008.03.03 0 0 1 .022.008.03.03 0 0 1 .008.021v.117h.049v-.114a.1.1 0 0 0-.016-.056.06.06 0 0 0-.046-.02.05.05 0 0 0-.03.009l-.016.02v-.029H11.9v.19h.049Zm-.145-.149h.049v.049h-.049Zm0 .075h.049v.187h-.049Zm-.056.19h.025v-.048h-.019v-.21H11.7v.212a.05.05 0 0 0 .013.037.05.05 0 0 0 .033.009m-.143-.265h.049v.049h-.049Zm0 .075h.049v.187h-.049Zm-.115.19a.1.1 0 0 0 .037-.007.1.1 0 0 0 .033-.021l-.033-.028-.017.01h-.02a.04.04 0 0 1-.03-.01.04.04 0 0 1-.01-.023h.114v-.012a.12.12 0 0 0-.02-.077.07.07 0 0 0-.057-.027.08.08 0 0 0-.061.023.1.1 0 0 0-.022.064v.022a.08.08 0 0 0 .023.061.1.1 0 0 0 .063.025m-.031-.137a.04.04 0 0 1 .028-.01.03.03 0 0 1 .022.009.04.04 0 0 1 .01.025h-.069a.04.04 0 0 1 .009-.025Zm-.236.125a.1.1 0 0 0 .052.011.1.1 0 0 0 .044-.01.1.1 0 0 0 .032-.031.1.1 0 0 0 .017-.049h-.051a.1.1 0 0 1-.015.03.04.04 0 0 1-.027.011.04.04 0 0 1-.033-.013.05.05 0 0 1-.011-.035v-.072a.06.06 0 0 1 .011-.036.05.05 0 0 1 .033-.013.04.04 0 0 1 .019.005l.014.014.009.022h.051a.1.1 0 0 0-.017-.049.1.1 0 0 0-.032-.03.1.1 0 0 0-.044-.011.1.1 0 0 0-.052.012.07.07 0 0 0-.032.033.1.1 0 0 0-.011.053v.07a.1.1 0 0 0 .011.053.1.1 0 0 0 .032.035m-.444.039h.155v.12h-.155Zm.07-.027a.173.173 0 1 0-.173-.173.173.173 0 0 0 .173.173m2.108 2.464a.03.03 0 0 0-.02.008.03.03 0 0 0-.008.022v.01h.054v-.014a.02.02 0 0 0-.007-.019.03.03 0 0 0-.019-.007m.309.079a.02.02 0 0 0-.006.016.02.02 0 0 0 .005.013.03.03 0 0 0 .017.005l.024-.005a.02.02 0 0 0 .008-.015v-.02h-.03a.02.02 0 0 0-.018.006m-1.59.028a.02.02 0 0 0 .023-.023v-.059a.023.023 0 1 0-.046 0v.059a.02.02 0 0 0 .023.023m1.609-.515h-2.6a.23.23 0 0 0-.228.228v.581a.23.23 0 0 0 .228.228h2.6a.23.23 0 0 0 .228-.228v-.581a.23.23 0 0 0-.228-.228m-1.683.431a.06.06 0 0 1 .02-.048.08.08 0 0 1 .054-.017.1.1 0 0 1 .055.017.06.06 0 0 1 .019.048v.062a.07.07 0 0 1-.019.049.1.1 0 0 1-.055.017.08.08 0 0 1-.054-.017.06.06 0 0 1-.02-.049Zm-.138-.062h.052v.027l.018-.02a.05.05 0 0 1 .03-.01h.02l-.015.044h-.018a.03.03 0 0 0-.025.01.04.04 0 0 0-.01.027v.106h-.052Zm-.56.322a.173.173 0 1 1 .173-.173.17.17 0 0 1-.175.173Zm.436.175h-.03l-.072-.175h.034l.053.137.054-.137h.033Zm.1-.527h-.105v.067h.09v.045h-.09v.105h-.05v-.262h.155Zm.038.527h-.036V16.1h.031Zm0-.15h-.036v-.025h.031Zm.172.1h-.1a.03.03 0 0 0 .01.022.04.04 0 0 0 .029.009h.019l.017-.009.02.016a.1.1 0 0 1-.026.014.1.1 0 0 1-.03 0 .1.1 0 0 1-.051-.015.05.05 0 0 1-.018-.041v-.014a.05.05 0 0 1 .017-.043.1.1 0 0 1 .05-.015.06.06 0 0 1 .046.017.07.07 0 0 1 .016.048Zm.2.052h-.024l-.038-.086-.039.086h-.024l-.049-.125h.026l.028.089.04-.089h.022l.039.089.028-.089h.033Zm.1-.31h-.05v-.123a.02.02 0 0 0-.007-.017.02.02 0 0 0-.018-.006.02.02 0 0 0-.023.023v.123h-.051v-.187h.051v.026l.016-.02a.054.054 0 0 1 .068.007.07.07 0 0 1 .014.046Zm.125-.145h-.025v.097h.022v.046h-.024A.05.05 0 0 1 12 15.9a.05.05 0 0 1-.013-.036v-.1h-.019v-.042h.019v-.054h.051v.054h.025Zm.191.091a.03.03 0 0 0 .024.009.03.03 0 0 0 .023-.01.1.1 0 0 0 .01-.031h.052a.1.1 0 0 1-.012.05.1.1 0 0 1-.028.029.1.1 0 0 1-.045.01.1.1 0 0 1-.046-.01.1.1 0 0 1-.029-.028.1.1 0 0 1-.01-.044v-.1a.1.1 0 0 1 .01-.045.1.1 0 0 1 .029-.028.1.1 0 0 1 .046-.009.1.1 0 0 1 .045.009.1.1 0 0 1 .028.03.1.1 0 0 1 .012.05h-.052l-.005-.024a.04.04 0 0 0-.016-.018.03.03 0 0 0-.017 0 .03.03 0 0 0-.024.009.04.04 0 0 0-.009.026v.1a.03.03 0 0 0 .004.023Zm.289.054H12.5v-.024.011a.04.04 0 0 1-.017.012h-.024a.06.06 0 0 1-.042-.014.06.06 0 0 1-.014-.042.05.05 0 0 1 .018-.044.1.1 0 0 1 .052-.014h.027v-.015a.02.02 0 0 0-.006-.016.03.03 0 0 0-.02 0h-.016a.03.03 0 0 0-.012.011l-.04-.015a.05.05 0 0 1 .024-.031.1.1 0 0 1 .045-.011.08.08 0 0 1 .053.017.06.06 0 0 1 .019.046Zm.3 0h-.051v-.12a.03.03 0 0 0-.006-.019.02.02 0 0 0-.018-.007.02.02 0 0 0-.018.006.03.03 0 0 0-.007.019v.121h-.05v-.12a.03.03 0 0 0-.007-.019.02.02 0 0 0-.019-.007.02.02 0 0 0-.023.023v.123h-.051v-.187h.051v.025l.016-.019a.05.05 0 0 1 .029-.009.05.05 0 0 1 .04.016l.009.017a.1.1 0 0 1 .021-.024.05.05 0 0 1 .03-.009.05.05 0 0 1 .04.017.07.07 0 0 1 .014.048Zm.19-.076h-.1v.009a.03.03 0 0 0 .008.021.03.03 0 0 0 .022.007.03.03 0 0 0 .017 0 .03.03 0 0 0 .01-.015l.043.016A.05.05 0 0 1 13 15.9a.1.1 0 0 1-.045.012.08.08 0 0 1-.055-.012.07.07 0 0 1-.02-.052V15.8a.07.07 0 0 1 .02-.054.07.07 0 0 1 .055-.02.07.07 0 0 1 .055.022.1.1 0 0 1 .019.06Zm.146-.063h-.017a.034.034 0 0 0-.036.037v.106h-.066v-.187h.052v.026l.018-.019a.05.05 0 0 1 .03-.01h.02Zm.184.139h-.047v-.024.011l-.018.012h-.024a.06.06 0 0 1-.041-.014.07.07 0 0 1 0-.086.1.1 0 0 1 .052-.014h.032v-.015a.02.02 0 0 0-.007-.016.03.03 0 0 0-.019 0h-.017a.03.03 0 0 0-.012.011l-.039-.015a.05.05 0 0 1 .024-.031.1.1 0 0 1 .044-.011.08.08 0 0 1 .054.017.06.06 0 0 1 .019.046Zm-.925-.071a.02.02 0 0 0-.006.016.02.02 0 0 0 .006.013.03.03 0 0 0 .017.005l.023-.005a.02.02 0 0 0 .008-.015v-.02h-.03a.02.02 0 0 0-.018.006m-.867.275a.04.04 0 0 0-.028.009.03.03 0 0 0-.009.023h.07a.04.04 0 0 0-.01-.024.04.04 0 0 0-.023-.008m.235-1.645a.03.03 0 0 0-.022-.009.04.04 0 0 0-.028.01.05.05 0 0 0-.01.028h.07V14.5a.05.05 0 0 0-.01-.027m-.544.253a.05.05 0 0 0-.033.011.04.04 0 0 0-.013.029v.051a.03.03 0 0 0 .013.028.05.05 0 0 0 .033.011.05.05 0 0 0 .034-.011.04.04 0 0 0 .013-.028v-.051a.04.04 0 0 0-.013-.029.05.05 0 0 0-.034-.011m2.009-.709h-2.588a.235.235 0 0 0-.235.235v.637a.235.235 0 0 0 .235.235h2.588a.235.235 0 0 0 .235-.235v-.637a.235.235 0 0 0-.235-.235m-2.33.742H10.8v-.12h.155Zm-.084-.15a.173.173 0 1 1 .172-.173.173.173 0 0 1-.172.173m.484.207a.1.1 0 0 1-.01.034.1.1 0 0 1-.027.022.1.1 0 0 1-.042.008.1.1 0 0 1-.041-.008.06.06 0 0 1-.027-.022.06.06 0 0 1-.01-.034v-.05a.05.05 0 0 1 .01-.033.06.06 0 0 1 .027-.023.1.1 0 0 1 .041-.008.1.1 0 0 1 .042.008.1.1 0 0 1 .027.023.06.06 0 0 1 .01.033Zm.033-.284a.07.07 0 0 1-.026.058.12.12 0 0 1-.074.021h-.037a.1.1 0 0 1-.033-.011.1.1 0 0 1-.029-.017l.023-.041a.1.1 0 0 0 .035.019.1.1 0 0 0 .041.007.1.1 0 0 0 .037-.008.03.03 0 0 0 .014-.023.02.02 0 0 0-.007-.017.04.04 0 0 0-.018-.009l-.023-.005-.031-.006a.1.1 0 0 1-.029-.011.05.05 0 0 1-.021-.022.1.1 0 0 1-.008-.038.07.07 0 0 1 .025-.059.1.1 0 0 1 .071-.021.1.1 0 0 1 .044.007.2.2 0 0 1 .04.02l-.02.042a.1.1 0 0 0-.032-.016.1.1 0 0 0-.032-.006.1.1 0 0 0-.035.007.02.02 0 0 0-.012.021.03.03 0 0 0 .007.019l.019.009.026.006.03.007a.1.1 0 0 1 .027.013.05.05 0 0 1 .02.021.1.1 0 0 1 .008.036Zm.081.2h-.029v.024h.031v.021h-.031v.1H11.4v-.1h-.017v-.021h.017v-.017a.03.03 0 0 1 .009-.025.05.05 0 0 1 .03-.008h.023Zm.007-.118h-.05v-.188h.05Zm0-.213h-.05v-.05h.05Zm.093.331h-.03v.024h.032v.021h-.032v.1H11.5v-.1h-.017v-.021h.017v-.017a.03.03 0 0 1 .01-.025.05.05 0 0 1 .03-.008h.023Zm.1-.118h-.049v-.025l-.015.019a.06.06 0 0 1-.075-.013.1.1 0 0 1-.017-.06V14.5a.1.1 0 0 1 .017-.06.06.06 0 0 1 .046-.021.04.04 0 0 1 .027.009l.017.019v-.1h.049Zm.2-.074h-.114a.04.04 0 0 0 .01.023.04.04 0 0 0 .03.01h.019l.018-.01.032.028a.1.1 0 0 1-.032.021.1.1 0 0 1-.037.007.1.1 0 0 1-.063-.022.08.08 0 0 1-.023-.062v-.021a.1.1 0 0 1 .022-.064.08.08 0 0 1 .061-.023.07.07 0 0 1 .057.027.12.12 0 0 1 .02.077Zm.322.074h-.176v-.263h.05v.215h.126Zm.079 0h-.05v-.188h.05Zm0-.213h-.05v-.05h.05Zm.2.207a.08.08 0 0 1-.022.06.1.1 0 0 1-.062.022.1.1 0 0 1-.04-.008.1.1 0 0 1-.027-.022l.033-.031a.04.04 0 0 0 .015.011h.018a.04.04 0 0 0 .026-.008.03.03 0 0 0 .01-.023v-.023l-.015.019a.06.06 0 0 1-.075-.013.1.1 0 0 1-.017-.06V14.5a.1.1 0 0 1 .017-.06.06.06 0 0 1 .046-.021.05.05 0 0 1 .028.009l.016.019v-.026h.049Zm.206.006h-.049V14.5a.03.03 0 0 0-.008-.021.034.034 0 0 0-.044 0 .03.03 0 0 0-.007.022v.113h-.049v-.263h.049v.1l.016-.02a.05.05 0 0 1 .03-.009.05.05 0 0 1 .046.02.1.1 0 0 1 .016.056Zm.126-.145h-.023v.094h.025v.047h-.025a.05.05 0 0 1-.036-.012.05.05 0 0 1-.011-.037v-.1h-.02v-.043h.02v-.054h.049v.054h.023Zm-.392-.001h-.015a.03.03 0 0 0-.022.009.04.04 0 0 0-.007.027v.029a.04.04 0 0 0 .007.026.03.03 0 0 0 .022.009h.015l.009-.01a.03.03 0 0 0 0-.016V14.5a.03.03 0 0 0 0-.016Zm-.8 0h-.015a.03.03 0 0 0-.022.009.04.04 0 0 0-.007.027v.029a.04.04 0 0 0 .007.026.03.03 0 0 0 .022.009h.015l.009-.01a.03.03 0 0 0 0-.016V14.5a.03.03 0 0 0 0-.016Zm-.859-.631h2.469a.293.293 0 0 0 .293-.293v-.654a.294.294 0 0 0-.293-.293h-2.469a.293.293 0 0 0-.293.293v.654a.293.293 0 0 0 .293.293m-.17-.947a.17.17 0 0 1 .17-.17h2.469a.17.17 0 0 1 .17.17v.654a.17.17 0 0 1-.17.17h-2.469a.17.17 0 0 1-.17-.17Zm-4.93-3.768a.1.1 0 0 0 .053-.01.1.1 0 0 0 .037-.029L5.7 9.049a.1.1 0 0 1-.025.02.1.1 0 0 1-.029.007.06.06 0 0 1-.046-.016.06.06 0 0 1-.016-.046v-.041a.055.055 0 0 1 .06-.061.1.1 0 0 1 .029.007.1.1 0 0 1 .025.018l.035-.031a.1.1 0 0 0-.037-.03.1.1 0 0 0-.053-.01.1.1 0 0 0-.08.028.1.1 0 0 0-.028.079v.041a.1.1 0 0 0 .108.108Zm-.276-.337a.07.07 0 0 0-.019.052.07.07 0 0 0 .019.053.07.07 0 0 0 .052.019.07.07 0 0 0 .052-.019.07.07 0 0 0 .018-.052.07.07 0 0 0-.018-.053.07.07 0 0 0-.052-.019.07.07 0 0 0-.052.019m.082.052a.04.04 0 0 1-.008.025.03.03 0 0 1-.022.009.03.03 0 0 1-.023-.009.04.04 0 0 1-.008-.025.04.04 0 0 1 .008-.024.03.03 0 0 1 .023-.013.03.03 0 0 1 .022.009.04.04 0 0 1 .008.028m-.163.282v-.35h-.049l-.05.034v.05l.05-.03v.296Zm-.214-.183a.1.1 0 0 0 .04-.028.07.07 0 0 0 .014-.046v-.005a.1.1 0 0 0-.024-.067.1.1 0 0 0-.07-.024.1.1 0 0 0-.066.024.1.1 0 0 0-.033.066h.05A.06.06 0 0 1 5 8.823a.06.06 0 0 1 .065 0 .04.04 0 0 1 .012.032v.011a.05.05 0 0 1-.007.034.04.04 0 0 1-.032.012h-.025v.048h.025a.04.04 0 0 1 .036.015.06.06 0 0 1 .013.04v.011a.05.05 0 0 1-.013.036.05.05 0 0 1-.038.013.06.06 0 0 1-.036-.01.05.05 0 0 1-.018-.033h-.05a.1.1 0 0 0 .017.049.1.1 0 0 0 .036.031.1.1 0 0 0 .052.01.1.1 0 0 0 .073-.022.1.1 0 0 0 .026-.071V9.02a.1.1 0 0 0-.016-.056.07.07 0 0 0-.044-.028m-.652.079v.014h.04a.14.14 0 0 1 .125.074l.011.021.009-.009.013-.015a.249.249 0 1 0-.409-.25v.022h.023a.22.22 0 0 1 .188.143m.083-.3a.215.215 0 0 1 .151.262.2.2 0 0 1-.045.084.18.18 0 0 0-.144-.073h-.017a.25.25 0 0 0-.2-.147.214.214 0 0 1 .255-.126m.238.206a.02.02 0 0 0 .022.022H4.8a.022.022 0 1 0 0-.044h-.033a.02.02 0 0 0-.022.022m-.031-.177a.022.022 0 0 0-.006.031.02.02 0 0 0 .028.008l.031-.018a.022.022 0 0 0 .006-.031.02.02 0 0 0-.028-.007Zm-.577.021.031.018a.023.023 0 0 0 .03-.01.02.02 0 0 0-.007-.028l-.032-.018a.02.02 0 0 0-.03.008.023.023 0 0 0 .008.03m.293-.159a.022.022 0 1 0 .044 0v-.035a.022.022 0 1 0-.044 0Zm.16.032a.022.022 0 0 0 .039.022l.018-.031a.023.023 0 0 0-.01-.03.02.02 0 0 0-.029.008Zm-.315.022a.023.023 0 0 0 .041-.02L4.3 8.607a.022.022 0 0 0-.03-.01.023.023 0 0 0-.01.03Zm.325.523v-.016a.14.14 0 0 0-.14-.123h-.04V9.03a.216.216 0 0 0-.417.062v.016h-.029a.107.107 0 0 0 0 .213h.638a.072.072 0 0 0 0-.144Zm.136-.124a.022.022 0 0 0-.025.037l.031.017a.022.022 0 0 0 .03-.009.023.023 0 0 0-.008-.029Zm1.317-.732a.25.25 0 0 0 .177-.06.22.22 0 0 0 .062-.167v-.063a.22.22 0 0 0-.061-.168.23.23 0 0 0-.171-.06.2.2 0 0 0-.06.009.2.2 0 0 0-.05.024v-.167h.314v-.1h-.429v.392h.109a.2.2 0 0 1 .05-.043.1.1 0 0 1 .059-.016.11.11 0 0 1 .089.034.13.13 0 0 1 .031.094V8.1a.13.13 0 0 1-.031.094.11.11 0 0 1-.089.034.13.13 0 0 1-.08-.023.1.1 0 0 1-.037-.064h-.119a.2.2 0 0 0 .077.138.25.25 0 0 0 .159.048m-.653 0a.26.26 0 0 0 .182-.056.2.2 0 0 0 .061-.155v-.338a.2.2 0 0 0-.061-.155.26.26 0 0 0-.182-.056.26.26 0 0 0-.18.056.2.2 0 0 0-.062.155v.338a.2.2 0 0 0 .061.154.26.26 0 0 0 .181.057m-.123-.549a.1.1 0 0 1 .028-.078.13.13 0 0 1 .094-.03.13.13 0 0 1 .095.03.1.1 0 0 1 .029.082v.338a.1.1 0 0 1-.029.082.13.13 0 0 1-.095.03.13.13 0 0 1-.094-.03.1.1 0 0 1-.029-.082Zm-.37.432h.125v.109h-.125Zm0-.426h.125v.109h-.125Zm-.38.543a.24.24 0 0 0 .175-.06.22.22 0 0 0 .062-.167.23.23 0 0 0-.055-.163.2.2 0 0 0-.154-.058.13.13 0 0 0-.082.023l.19-.325h-.129L4.35 7.9a.5.5 0 0 0-.044.1.4.4 0 0 0-.015.1.22.22 0 0 0 .062.166.24.24 0 0 0 .174.061m-.117-.218a.15.15 0 0 1 .029-.1.1.1 0 0 1 .082-.034.12.12 0 0 1 .092.034.14.14 0 0 1 .032.1.12.12 0 0 1-.03.087.12.12 0 0 1-.088.031.108.108 0 0 1-.117-.118m-.413.21h.119v-.743h-.119l-.121.071v.107l.121-.064Zm3.555 6.994a.1.1 0 0 1 .038.008.2.2 0 0 1 .04.025l.033-.034a.2.2 0 0 0-.05-.033.2.2 0 0 0-.061-.01.1.1 0 0 0-.076.025.1.1 0 0 0-.027.069.1.1 0 0 0 .018.055.2.2 0 0 0 .054.039l.059.026a.05.05 0 0 1 .031.045.04.04 0 0 1-.016.036.1.1 0 0 1-.05.012.2.2 0 0 1-.045-.006.3.3 0 0 1-.051-.017l-.009.047a.2.2 0 0 0 .047.014.3.3 0 0 0 .054 0 .15.15 0 0 0 .091-.023.093.093 0 0 0 .011-.127.2.2 0 0 0-.058-.04l-.05-.024a.1.1 0 0 1-.026-.018.04.04 0 0 1-.009-.022.05.05 0 0 1 .014-.035.06.06 0 0 1 .038-.012M7 15.356a.1.1 0 0 0-.048.012.05.05 0 0 0-.019.039v-.047h-.061v.255h.051v-.143q0-.07.06-.071a.04.04 0 0 1 .034.013.05.05 0 0 1 .012.035v.166h.051v-.166a.1.1 0 0 0-.022-.069.08.08 0 0 0-.058-.024m-.27.049v-.045h-.133v.045h.082v.165h-.097v.045h.226v-.045H6.73Zm-.03-.085a.03.03 0 0 0 .025-.01.04.04 0 0 0 .011-.025.04.04 0 0 0-.011-.026.036.036 0 0 0-.05 0 .04.04 0 0 0-.011.026.04.04 0 0 0 .011.025.03.03 0 0 0 .025.01m-.287.036q-.059 0-.063.051v-.152H6.3v.36h.068a.16.16 0 0 0 .115-.039.14.14 0 0 0 .041-.11.12.12 0 0 0-.027-.085.1.1 0 0 0-.084-.025m.031.193a.1.1 0 0 1-.071.028h-.027v-.1q0-.073.064-.073a.05.05 0 0 1 .044.019.1.1 0 0 1 .015.053.1.1 0 0 1-.025.073m-.333-.193a.1.1 0 0 0-.082.034.15.15 0 0 0-.029.1.15.15 0 0 0 .029.1.115.115 0 0 0 .165 0 .15.15 0 0 0 .029-.1.15.15 0 0 0-.029-.1.1.1 0 0 0-.083-.034m.044.2a.05.05 0 0 1-.044.022.05.05 0 0 1-.043-.022.1.1 0 0 1-.015-.064.1.1 0 0 1 .015-.064.05.05 0 0 1 .043-.023.05.05 0 0 1 .044.023.1.1 0 0 1 .015.064.1.1 0 0 1-.015.06Zm-.243-.099a.1.1 0 0 0 .029-.08.1.1 0 0 0-.029-.076.12.12 0 0 0-.082-.027h-.118v.341h.05v-.13h.072l.062.13h.057l-.07-.139a.1.1 0 0 0 .029-.019m-.082-.017h-.068v-.12h.068a.06.06 0 0 1 .044.016.06.06 0 0 1 .016.046.06.06 0 0 1-.016.043.06.06 0 0 1-.044.015m1.289-.675a.11.11 0 0 0-.086.035.14.14 0 0 0-.033.1.13.13 0 0 0 .036.1.14.14 0 0 0 .1.034h.036l.045-.005-.006-.062h-.069a.08.08 0 0 1-.059-.019.05.05 0 0 1-.016-.026h.161v-.032a.13.13 0 0 0-.028-.09.11.11 0 0 0-.081-.035m-.051.113a.1.1 0 0 1 .012-.035.05.05 0 0 1 .04-.018.04.04 0 0 1 .036.014.05.05 0 0 1 .014.039Zm-.194.147.087-.255h-.066l-.061.197H6.83l-.061-.197h-.066l.087.255Zm-.215-.125a.14.14 0 0 0-.03-.1.1.1 0 0 0-.085-.035.11.11 0 0 0-.086.035.14.14 0 0 0-.03.1.14.14 0 0 0 .03.1.11.11 0 0 0 .086.034.1.1 0 0 0 .085-.034.14.14 0 0 0 .03-.1m-.079.052a.04.04 0 0 1-.036.019.04.04 0 0 1-.036-.019.1.1 0 0 1-.008-.052.1.1 0 0 1 .013-.052.04.04 0 0 1 .036-.018.04.04 0 0 1 .036.018.1.1 0 0 1 .013.052.1.1 0 0 1-.018.049Zm-.434-.268v.341h.234v-.059h-.171v-.282Zm2.991-.509a.1.1 0 0 0-.086.034.14.14 0 0 0-.031.1.13.13 0 0 0 .036.1.14.14 0 0 0 .1.034h.035l.045-.006-.006-.061h-.069a.1.1 0 0 1-.059-.019.05.05 0 0 1-.016-.026h.164V14.3a.13.13 0 0 0-.029-.093.1.1 0 0 0-.084-.032m-.051.112a.1.1 0 0 1 .012-.034.05.05 0 0 1 .04-.019.05.05 0 0 1 .036.014.05.05 0 0 1 .014.039Zm-.164-.112a.04.04 0 0 0-.03.01.04.04 0 0 0-.013.026h-.006l-.009-.023a.04.04 0 0 0-.029-.013.037.037 0 0 0-.039.036v-.031h-.067v.254h.064v-.17q0-.029.018-.029t.015.022v.177h.049v-.17q0-.029.017-.029.016 0 .015.027v.172h.064v-.2a.07.07 0 0 0-.012-.046.05.05 0 0 0-.037-.013m-.594.199h-.005l-.029-.194h-.046l-.029.194h-.005l-.009-.194h-.063l.017.254h.085l.026-.192h.003l.025.192h.083l.024-.254h-.062Zm-.343-.199a.1.1 0 0 0-.085.034.14.14 0 0 0-.03.1.14.14 0 0 0 .03.1.12.12 0 0 0 .17 0 .14.14 0 0 0 .031-.1.14.14 0 0 0-.031-.1.1.1 0 0 0-.085-.034m.036.184a.04.04 0 0 1-.036.018.04.04 0 0 1-.036-.018.1.1 0 0 1-.013-.052.1.1 0 0 1 .013-.052.04.04 0 0 1 .036-.018.04.04 0 0 1 .036.018.1.1 0 0 1 .013.052.1.1 0 0 1-.013.052m-.301-.184a.06.06 0 0 0-.042.012.1.1 0 0 0-.018.039h-.006v-.152h-.065v.36h.065V14.3q0-.067.049-.067a.03.03 0 0 1 .027.012.05.05 0 0 1 .01.033v.153h.065v-.166a.1.1 0 0 0-.022-.069.08.08 0 0 0-.063-.021m-.201.184a.06.06 0 0 0-.016-.044.1.1 0 0 0-.049-.026l-.071-.02-.011-.005v-.009q0-.01.017-.014a.3.3 0 0 1 .055 0h.066l.007-.06h-.076a.2.2 0 0 0-.1.02.07.07 0 0 0-.034.061.06.06 0 0 0 .013.041.1.1 0 0 0 .038.023l.083.024.011.005v.01c0 .006 0 .011-.015.014a.2.2 0 0 1-.047 0h-.033l-.05-.005-.008.062h.091a.2.2 0 0 0 .1-.02.06.06 0 0 0 .029-.057m-.602.041a.14.14 0 0 0 .031-.1.15.15 0 0 0-.031-.1.123.123 0 0 0-.17 0 .15.15 0 0 0-.031.1.14.14 0 0 0 .031.1.12.12 0 0 0 .17 0m-.134-.1a.1.1 0 0 1 .013-.052.045.045 0 0 1 .072 0 .1.1 0 0 1 .013.052.1.1 0 0 1-.013.052.045.045 0 0 1-.072 0 .1.1 0 0 1-.013-.045Zm-.208.134v-.283h.098v-.058h-.258v.058h.097v.283ZM5.9 14.31v.018a.1.1 0 0 0 .029.085.14.14 0 0 0 .095.026h.032l.031-.005-.006-.061h-.055a.07.07 0 0 1-.049-.013.05.05 0 0 1-.015-.042v-.083h.113v-.055h-.113v-.08H5.9v.077h-.064v.059H5.9v.071Zm-.106-.003a.14.14 0 0 0-.03-.1.1.1 0 0 0-.085-.034.1.1 0 0 0-.085.034.14.14 0 0 0-.031.1.14.14 0 0 0 .031.1.1.1 0 0 0 .085.035.1.1 0 0 0 .085-.035.14.14 0 0 0 .03-.1m-.079.052a.045.045 0 0 1-.072 0 .1.1 0 0 1-.013-.052.1.1 0 0 1 .013-.052.045.045 0 0 1 .072 0 .1.1 0 0 1 .013.052.1.1 0 0 1-.013.052m-.299-.21a.1.1 0 0 1 .036.008.1.1 0 0 1 .028.022l.04-.046a.1.1 0 0 0-.043-.033.2.2 0 0 0-.064-.012.15.15 0 0 0-.114.046.2.2 0 0 0-.041.129.2.2 0 0 0 .042.137.15.15 0 0 0 .118.044.3.3 0 0 0 .06-.006l.037-.008v-.167h-.122v.058h.056v.059h-.028a.1.1 0 0 1-.072-.03.14.14 0 0 1-.024-.088.13.13 0 0 1 .024-.083.08.08 0 0 1 .067-.03m-.501.199v-.168h-.066v.12a.1.1 0 0 1-.011.06.04.04 0 0 1-.035.017.03.03 0 0 1-.027-.012.05.05 0 0 1-.01-.033v-.152H4.7v.168a.1.1 0 0 0 .02.067.07.07 0 0 0 .056.024.06.06 0 0 0 .042-.014.07.07 0 0 0 .024-.04h.008v.052h.1v-.053l-.035-.005Zm-.389-.173a.11.11 0 0 0-.086.034.14.14 0 0 0-.03.1.14.14 0 0 0 .03.1.1.1 0 0 0 .086.035.1.1 0 0 0 .085-.035.14.14 0 0 0 .03-.1.14.14 0 0 0-.03-.1.1.1 0 0 0-.085-.034m.036.184a.04.04 0 0 1-.036.018.04.04 0 0 1-.036-.018.1.1 0 0 1-.013-.052.1.1 0 0 1 .013-.052.04.04 0 0 1 .036-.018.04.04 0 0 1 .036.018.1.1 0 0 1 .013.052.1.1 0 0 1-.013.052m-.322-.107h-.005l-.069-.159h-.071l.111.232v.109h.063v-.109l.111-.232h-.071Zm3.065-1.678-.737-.418a.12.12 0 0 0-.179.1v.844a.12.12 0 0 0 .179.1l.737-.418a.12.12 0 0 0 0-.208m-1.474-2.021a.872.872 0 1 0 .869-.871.87.87 0 0 0-.869.871m1.2.4a1 1 0 0 0-.766-.084.054.054 0 1 1-.024-.106 1.1 1.1 0 0 1 .847.1.056.056 0 0 1 .018.075.054.054 0 0 1-.078.019Zm.088-.233a1.15 1.15 0 0 0-.869-.1.066.066 0 0 1-.084-.045.07.07 0 0 1 .045-.085 1.27 1.27 0 0 1 .979.116.07.07 0 0 1 .022.094.067.067 0 0 1-.096.024Zm-.96-.52a1.6 1.6 0 0 1 1.143.116.082.082 0 0 1-.083.141 1.45 1.45 0 0 0-1.013-.1.08.08 0 0 1-.1-.055.08.08 0 0 1 .053-.102m6.125 1.484h.032v-.162h.11v-.029h-.11v-.045q0-.1.077-.1h.046l.005-.028a.2.2 0 0 0-.049 0q-.111 0-.111.132v.042H12.2v.029h.086Zm-.284 0h.032v-.162h.11v-.029h-.11v-.045q0-.1.078-.1h.045l.006-.028a.2.2 0 0 0-.049 0q-.112 0-.112.132v.042h-.09v.029H12Zm-.255.005a.1.1 0 0 0 .08-.035.18.18 0 0 0 0-.2.1.1 0 0 0-.08-.035.1.1 0 0 0-.079.035.18.18 0 0 0 0 .2.1.1 0 0 0 .079.035m-.055-.208a.07.07 0 0 1 .055-.027.06.06 0 0 1 .055.027.15.15 0 0 1 0 .151.06.06 0 0 1-.055.027.07.07 0 0 1-.055-.027.13.13 0 0 1-.019-.075.13.13 0 0 1 .019-.076m-.529.203-.015.029a.2.2 0 0 1-.034.037.1.1 0 0 1-.043.016h-.024v.03h.029a.1.1 0 0 0 .05-.018.2.2 0 0 0 .041-.043.3.3 0 0 0 .035-.074l.088-.232h-.035l-.079.22v.008l-.094-.228h-.034l.107.255Zm-.317.005a.1.1 0 0 0 .046-.008.1.1 0 0 0 .033-.023.1.1 0 0 0 .013-.028v.056h.069v-.026h-.044v-.118a.1.1 0 0 0-.029-.083.13.13 0 0 0-.091-.027H10.8v.03h.054a.1.1 0 0 1 .066.018.07.07 0 0 1 .021.057v.011h-.06a.14.14 0 0 0-.084.021.07.07 0 0 0-.028.06.06.06 0 0 0 .021.051.1.1 0 0 0 .054.009m.03-.122h.061v.023a.05.05 0 0 1-.011.033.1.1 0 0 1-.031.024.1.1 0 0 1-.047.009.06.06 0 0 1-.038-.011.04.04 0 0 1-.013-.031c.005-.03.026-.047.079-.047m-.359.117h.047q.152 0 .153-.166c0-.111-.051-.175-.153-.175h-.078v.341Zm0-.312h.047a.11.11 0 0 1 .091.037.17.17 0 0 1 .03.109.15.15 0 0 1-.03.1.11.11 0 0 1-.091.034h-.047Zm6.097-.818a.2.2 0 0 0 .094-.018.065.065 0 0 0 .011-.1.1.1 0 0 0-.056-.027l-.046-.011a.1.1 0 0 1-.038-.015.03.03 0 0 1-.011-.023.04.04 0 0 1 .023-.032.2.2 0 0 1 .074-.01h.061v-.029h-.063a.2.2 0 0 0-.1.017.06.06 0 0 0-.031.056.05.05 0 0 0 .016.041.13.13 0 0 0 .054.025l.058.014a.1.1 0 0 1 .031.015.04.04 0 0 1 .01.025.03.03 0 0 1-.021.032.2.2 0 0 1-.069.009h-.036l-.043-.006v.03l.036.006Zm-.336-.149q0-.086.075-.086a.06.06 0 0 1 .045.017.06.06 0 0 1 .016.046v.167h.032v-.166a.1.1 0 0 0-.024-.069.1.1 0 0 0-.067-.025.1.1 0 0 0-.05.013.05.05 0 0 0-.024.038v-.046h-.029v.255h.032Zm-.221.149a.1.1 0 0 0 .08-.035.15.15 0 0 0 .028-.1.15.15 0 0 0-.028-.1.1.1 0 0 0-.08-.035.1.1 0 0 0-.079.035.15.15 0 0 0-.028.1.15.15 0 0 0 .028.1.1.1 0 0 0 .079.035M16 10.346a.07.07 0 0 1 .055-.027.06.06 0 0 1 .055.027.15.15 0 0 1 0 .151.06.06 0 0 1-.055.026A.06.06 0 0 1 16 10.5a.13.13 0 0 1-.019-.076.13.13 0 0 1 .019-.078m-.219-.107a.03.03 0 0 0 .02-.009.02.02 0 0 0 .008-.019.02.02 0 0 0-.008-.02.03.03 0 0 0-.02-.008.03.03 0 0 0-.019.008.02.02 0 0 0-.008.02.02.02 0 0 0 .008.019.03.03 0 0 0 .019.009m-.008.31h.111v-.03H15.8v-.225h-.12v.029h.088v.196h-.103v.03h.103Zm-.344-.14v.042a.1.1 0 0 0 .023.077.1.1 0 0 0 .073.026h.063v-.029h-.058a.07.07 0 0 1-.052-.018.07.07 0 0 1-.017-.055v-.127h.117v-.029h-.117v-.077h-.032v.077h-.074v.029h.074Zm-.275.145a.1.1 0 0 0 .046-.009.1.1 0 0 0 .033-.022.1.1 0 0 0 .013-.028v.056h.069v-.024h-.044V10.4a.1.1 0 0 0-.029-.082.14.14 0 0 0-.091-.028h-.048l-.005.029h.055a.1.1 0 0 1 .065.019.07.07 0 0 1 .021.057v.011h-.06a.14.14 0 0 0-.083.02.07.07 0 0 0-.029.061.06.06 0 0 0 .021.051.1.1 0 0 0 .066.016m.03-.122h.061v.023a.05.05 0 0 1-.011.033.1.1 0 0 1-.031.024.1.1 0 0 1-.047.009.06.06 0 0 1-.038-.011.04.04 0 0 1-.013-.031q0-.046.079-.047m-.309.117h.072v-.03h-.072v-.08a.2.2 0 0 1 .019-.089.06.06 0 0 1 .055-.032.04.04 0 0 1 .038.016.1.1 0 0 1 .012.051h.032a.12.12 0 0 0-.018-.073.07.07 0 0 0-.06-.023.07.07 0 0 0-.075.07l-.006-.065h-.078v.029h.052v.2h-.062v.03h.094Zm-.275.005a.1.1 0 0 0 .056-.017.07.07 0 0 0 .025-.044v.041a.1.1 0 0 1-.022.071.1.1 0 0 1-.067.026h-.077v.03h.071a.13.13 0 0 0 .1-.035.14.14 0 0 0 .03-.1v-.232h-.029v.054a.07.07 0 0 0-.026-.044.1.1 0 0 0-.131.019.16.16 0 0 0-.026.1.15.15 0 0 0 .026.1.1.1 0 0 0 .07.031m-.05-.209a.07.07 0 0 1 .057-.027.07.07 0 0 1 .057.026.12.12 0 0 1 .02.074v.007a.12.12 0 0 1-.02.074.077.077 0 0 1-.114 0 .12.12 0 0 1-.019-.075.13.13 0 0 1 .017-.079Zm-.202.209h.07v-.03l-.03.005h-.03a.1.1 0 0 1-.079-.028.1.1 0 0 1-.027-.064h.181v-.025a.13.13 0 0 0-.027-.087.1.1 0 0 0-.077-.031.1.1 0 0 0-.082.034.14.14 0 0 0-.029.1.13.13 0 0 0 .034.1.13.13 0 0 0 .096.026m-.08-.209a.07.07 0 0 1 .059-.026.07.07 0 0 1 .054.022.1.1 0 0 1 .019.064h-.152a.1.1 0 0 1 .02-.06m-.281.064v.042a.1.1 0 0 0 .024.077.1.1 0 0 0 .072.026h.063v-.029h-.055a.07.07 0 0 1-.052-.018.08.08 0 0 1-.017-.055v-.127h.118v-.029h-.118v-.077h-.032v.077h-.073v.029h.073Zm-.306-.004q0-.086.075-.086a.06.06 0 0 1 .045.017.06.06 0 0 1 .016.046v.167h.032v-.166a.1.1 0 0 0-.024-.069.1.1 0 0 0-.117-.012.06.06 0 0 0-.024.038v-.046h-.029v.255h.032Zm-.206-.166a.03.03 0 0 0 .02-.009.03.03 0 0 0 .008-.019.03.03 0 0 0-.008-.02.03.03 0 0 0-.04 0 .03.03 0 0 0-.008.02.03.03 0 0 0 .008.019.03.03 0 0 0 .02.009m-.009.31h.112v-.03h-.084v-.225h-.121v.029h.088v.196h-.102v.03h.102Zm-.621 0 .035-.225h.003l.036.225h.044l.045-.255h-.031l-.036.229h-.003l-.037-.229h-.039l-.036.229h-.004l-.032-.229h-.029l.037.255Zm-.227.005h.071l-.005-.03-.03.005h-.03a.1.1 0 0 1-.079-.028.1.1 0 0 1-.027-.064h.182v-.025a.13.13 0 0 0-.027-.087.1.1 0 0 0-.077-.031.1.1 0 0 0-.082.034.14.14 0 0 0-.029.1.13.13 0 0 0 .034.1.13.13 0 0 0 .099.026m-.08-.209a.07.07 0 0 1 .06-.026.07.07 0 0 1 .053.022.1.1 0 0 1 .019.064h-.152a.1.1 0 0 1 .02-.06m-.298.06q0-.086.075-.086a.06.06 0 0 1 .044.017.06.06 0 0 1 .017.046v.167h.031v-.166a.1.1 0 0 0-.023-.069.1.1 0 0 0-.067-.025.1.1 0 0 0-.051.013.06.06 0 0 0-.024.038v-.046h-.029v.255h.032Zm-.579.042h.024a.2.2 0 0 0 .068-.012l.064.114h.04l-.076-.131.011-.008a.2.2 0 0 0 .049-.116h-.034a.2.2 0 0 1-.022.072.1.1 0 0 1-.041.04.2.2 0 0 1-.067.012h-.016v-.23h-.032v.361h.032Zm-.194.107h.041l.04-.006v-.03l-.036.006h-.042a.1.1 0 0 1-.076-.026.1.1 0 0 1-.027-.079.1.1 0 0 1 .024-.073.1.1 0 0 1 .068-.026.1.1 0 0 1 .041.01.1.1 0 0 1 .032.031l.026-.018a.1.1 0 0 0-.036-.039.13.13 0 0 0-.062-.014.12.12 0 0 0-.092.035.133.133 0 0 0 .1.23Zm-.29 0h.07v-.03l-.031.005h-.03a.1.1 0 0 1-.086-.029.1.1 0 0 1-.027-.064h.182v-.025a.13.13 0 0 0-.028-.087.1.1 0 0 0-.076-.031.1.1 0 0 0-.083.034.15.15 0 0 0-.029.1.13.13 0 0 0 .035.1.13.13 0 0 0 .103.027m-.081-.209a.08.08 0 0 1 .06-.026.07.07 0 0 1 .054.022.1.1 0 0 1 .019.064h-.152a.1.1 0 0 1 .023-.06Zm-.296.06q0-.087.075-.087a.06.06 0 0 1 .045.017.06.06 0 0 1 .016.047v.167h.032v-.166a.1.1 0 0 0-.023-.069.1.1 0 0 0-.067-.025.1.1 0 0 0-.051.013.06.06 0 0 0-.024.038v-.152h-.032v.361h.029Zm-.188.149a.2.2 0 0 0 .089-.018l-.008-.029a.2.2 0 0 1-.076.017q-.128 0-.128-.149a.16.16 0 0 1 .032-.106.1.1 0 0 1 .086-.037.1.1 0 0 1 .041.009.1.1 0 0 1 .032.027l.022-.022a.07.07 0 0 0-.037-.032.14.14 0 0 0-.059-.011.13.13 0 0 0-.11.046.2.2 0 0 0-.04.129c0 .122.052.176.156.176m2.277-1.212a.2.2 0 0 0 .094-.017.06.06 0 0 0 .029-.055.06.06 0 0 0-.018-.045.13.13 0 0 0-.056-.027l-.046-.011a.1.1 0 0 1-.037-.015.03.03 0 0 1-.012-.022.03.03 0 0 1 .023-.032.2.2 0 0 1 .074-.01h.062v-.029h-.063a.2.2 0 0 0-.1.017.06.06 0 0 0-.031.055.05.05 0 0 0 .017.041.1.1 0 0 0 .054.025l.057.015a.1.1 0 0 1 .031.014.035.035 0 0 1-.011.057.2.2 0 0 1-.069.01h-.035L12.81 9.3v.031h.036Zm-.336-.149q0-.085.075-.085a.06.06 0 0 1 .045.016.07.07 0 0 1 .016.047v.166h.032v-.166A.1.1 0 0 0 12.7 9.1a.1.1 0 0 0-.066-.024.1.1 0 0 0-.051.012.06.06 0 0 0-.024.038V9.08h-.029v.255h.032Zm-.22.149a.1.1 0 0 0 .079-.035.15.15 0 0 0 .028-.1.15.15 0 0 0-.028-.1.1.1 0 0 0-.079-.034.1.1 0 0 0-.08.034.15.15 0 0 0-.028.1.15.15 0 0 0 .028.1.1.1 0 0 0 .08.035m-.056-.208a.072.072 0 0 1 .111 0 .13.13 0 0 1 .019.076.13.13 0 0 1-.019.075.07.07 0 0 1-.111 0 .13.13 0 0 1-.019-.075.13.13 0 0 1 .019-.076m-.208.208h.04l.041-.006v-.03l-.037.006h-.038A.1.1 0 0 1 12 9.285a.1.1 0 0 1-.026-.078.1.1 0 0 1 .024-.074.1.1 0 0 1 .067-.025.1.1 0 0 1 .042.009.1.1 0 0 1 .031.032l.027-.019a.1.1 0 0 0-.037-.039.13.13 0 0 0-.061-.013.12.12 0 0 0-.093.034.14.14 0 0 0-.032.1.13.13 0 0 0 .034.1.13.13 0 0 0 .093.03m-.299-.315a.03.03 0 0 0 .02-.008.03.03 0 0 0 0-.04.03.03 0 0 0-.02-.008.03.03 0 0 0-.019.008.027.027 0 0 0 0 .04.03.03 0 0 0 .019.008m-.008.31h.111v-.029h-.084v-.226h-.121v.03h.089v.196h-.103v.029h.103Zm-.598.005a.1.1 0 0 0 .056-.016.07.07 0 0 0 .025-.045v.058h.027v-.362h-.032v.159a.06.06 0 0 0-.025-.044.11.11 0 0 0-.131.02.16.16 0 0 0-.026.1.16.16 0 0 0 .026.1.09.09 0 0 0 .08.03m-.05-.209a.06.06 0 0 1 .056-.026.07.07 0 0 1 .058.025.12.12 0 0 1 .019.074v.008a.12.12 0 0 1-.019.073.075.075 0 0 1-.114 0 .12.12 0 0 1-.02-.075.13.13 0 0 1 .02-.079m-.239.209a.1.1 0 0 0 .057-.016.1.1 0 0 0 .025-.045l.005.058h.027v-.362h-.032v.159a.07.07 0 0 0-.025-.044.1.1 0 0 0-.055-.014.09.09 0 0 0-.076.034.16.16 0 0 0-.026.1.15.15 0 0 0 .026.1.09.09 0 0 0 .074.03m-.05-.209a.07.07 0 0 1 .057-.026.07.07 0 0 1 .057.025.1.1 0 0 1 .02.074v.008a.12.12 0 0 1-.019.073.077.077 0 0 1-.115 0 .12.12 0 0 1-.019-.075.13.13 0 0 1 .019-.079m-.291.113h.138l.027.091h.033L10.625 9h-.045l-.107.341h.033Zm.067-.223.059.193h-.12Zm1.575-1.073-.113-.241h-.072l.138.284h.033l-.014.023a.1.1 0 0 1-.041.035.2.2 0 0 1-.059.015h-.054v.051h.059a.3.3 0 0 0 .08-.02.15.15 0 0 0 .057-.047.3.3 0 0 0 .044-.082l.1-.259h-.072Zm-.276-.127a.1.1 0 0 0-.042-.086.24.24 0 0 0-.127-.03h-.07l-.007.051h.083a.2.2 0 0 1 .073.015.05.05 0 0 1 .024.042v.013h-.065a.23.23 0 0 0-.116.024.08.08 0 0 0-.041.07.07.07 0 0 0 .03.06.14.14 0 0 0 .081.018.2.2 0 0 0 .059-.008.1.1 0 0 0 .039-.025.06.06 0 0 0 .012-.033h.008v.063h.111v-.049l-.052-.006Zm-.066.065a.05.05 0 0 1-.011.03.1.1 0 0 1-.032.023.14.14 0 0 1-.054.009.1.1 0 0 1-.044-.01.03.03 0 0 1-.016-.029q0-.045.09-.045h.067Zm-.38-.128h-.007a.06.06 0 0 0-.028-.042.1.1 0 0 0-.063-.015.13.13 0 0 0-.1.039.16.16 0 0 0-.035.112.15.15 0 0 0 .035.108.13.13 0 0 0 .1.037.1.1 0 0 0 .064-.015.06.06 0 0 0 .027-.042h.007l.007.058h.062v-.4h-.069Zm0 .1a.1.1 0 0 1-.021.067.08.08 0 0 1-.062.022.08.08 0 0 1-.063-.024.1.1 0 0 1-.022-.072.1.1 0 0 1 .022-.076.07.07 0 0 1 .063-.026.08.08 0 0 1 .062.023.1.1 0 0 1 .021.066Zm-.463-.16a.15.15 0 0 0-.112.039.17.17 0 0 0 0 .218.18.18 0 0 0 .224 0 .17.17 0 0 0 0-.218.15.15 0 0 0-.112-.039m.059.22a.08.08 0 0 1-.059.025.07.07 0 0 1-.059-.025.1.1 0 0 1-.021-.072.1.1 0 0 1 .021-.071.07.07 0 0 1 .059-.026.07.07 0 0 1 .059.026.1.1 0 0 1 .02.071.1.1 0 0 1-.02.075Zm-.484-.308h-.136v.051h.136v.33h.068v-.33h.135v-.051h-.135Zm8.706 7.607h-.007c-.129 0-.258.018-.352.028l-.007-.006a.06.06 0 0 0-.067 0l-.01.012h-.05q-.037 0-.054.022l-.008.014v.013c.008.03.039.031.076.026l-.084.187-.015.035a.06.06 0 0 0 0 .053.05.05 0 0 0 .039.021.1.1 0 0 0 .045-.012l.013-.006a1 1 0 0 1 .242-.032c.045 0 .062.012.062.014a.2.2 0 0 1-.077.06 1 1 0 0 1-.112.057 1.2 1.2 0 0 1-.239.082h-.006a.05.05 0 0 0-.043.021l-.008.014.008.036h.033a.4.4 0 0 0 .092-.016l.084-.025a1.1 1.1 0 0 0 .278-.125c.041-.026.1-.062.094-.115 0-.031-.029-.082-.168-.085a1 1 0 0 0-.211.022q.019-.042.035-.083a2 2 0 0 1 .052-.119h.04c.1-.011.209-.023.307-.032h.01a.1.1 0 0 0 .059-.015l.017-.017-.011-.021c-.013-.012-.041-.009-.057-.008m-.823.573.006-.014a4 4 0 0 1 .226-.44l.009-.013a.2.2 0 0 0 .03-.072v-.017l-.009-.007h-.006a.07.07 0 0 0-.053-.007c-.052.015-.12.039-.16.054s-.049.016-.054.039v.024l.018.011a.08.08 0 0 0 .072 0l.041-.014h.007a2 2 0 0 0-.226.47h-.05c-.031 0-.07 0-.07.04v.016l.01.009a.06.06 0 0 0 .04.011h.11q.046.001.09-.006h.012c.033 0 .062 0 .075-.025l.022-.037-.043-.009a.4.4 0 0 0-.097-.013m1.29-1.328a.1.1 0 0 0-.032 0h-.006a.2.2 0 0 1-.1.049L19.6 14.5c.006-.017.024-.062-.021-.081a.054.054 0 0 0-.074.043c-.036.053-.058.073-.108.075v-.016l.012-.017c.012-.016.027-.035.018-.058a.04.04 0 0 0-.034-.025.07.07 0 0 0-.077.041l.024.02-.025-.019a.26.26 0 0 1-.1.09.2.2 0 0 1 .039-.06c.023-.028.041-.05.026-.074a.05.05 0 0 0-.053-.014h-.007a.2.2 0 0 0-.059.054.4.4 0 0 1-.1.048.1.1 0 0 0 .025-.051.06.06 0 0 0-.041-.064.25.25 0 0 0-.231.018.18.18 0 0 0-.109.067l-.033.025a.6.6 0 0 1-.156.1v-.013a.2.2 0 0 0 .02-.105c-.007-.027-.035-.072-.139-.069a.2.2 0 0 0-.108.031l.013-.042c.15-.08.3-.191.293-.266a.055.055 0 0 0-.047-.046.26.26 0 0 0-.26.125.7.7 0 0 0-.089.162 1 1 0 0 0-.028.086.7.7 0 0 1-.155.052.2.2 0 0 0-.039-.029l-.008-.005a.2.2 0 0 1 .044-.024v.025l.014.005a.1.1 0 0 0 .1-.046.05.05 0 0 0 0-.052.09.09 0 0 0-.094-.027.3.3 0 0 0-.178.093.05.05 0 0 0-.008.043.07.07 0 0 0 .03.037c-.065.019-.106.049-.112.086a.06.06 0 0 0 .038.062.1.1 0 0 0 .054.011.22.22 0 0 0 .143-.054.1.1 0 0 0 .036-.049 1 1 0 0 0 .12-.037v.038a.1.1 0 0 0 .032.059v.039l.019-.031a.1.1 0 0 0 .032.005q.044 0 .049-.058a.2.2 0 0 1 .07-.1.1.1 0 0 1 .068-.009.3.3 0 0 1-.018.076l-.009.03a.06.06 0 0 0 0 .055.1.1 0 0 0 .081.027.4.4 0 0 0 .234-.113.2.2 0 0 0 .1.021.4.4 0 0 0 .086-.01h.008A.3.3 0 0 0 19 14.6a.3.3 0 0 0 .118-.022.07.07 0 0 0 .028.042.1.1 0 0 0 .058.016.2.2 0 0 0 .116-.041.1.1 0 0 0 .057.028.2.2 0 0 0 .151-.04.1.1 0 0 0 .057.019.3.3 0 0 0 .173-.078.03.03 0 0 0 .009-.033l-.009-.021Zm-.949.052.008-.008.007.009Zm.127-.019a.2.2 0 0 1-.032-.027.1.1 0 0 1 .049-.01.1.1 0 0 1 .035 0 .14.14 0 0 1-.052.04ZM20.1 13.4c-.018 0-.032.005-.059.023a.4.4 0 0 1-.127.063.1.1 0 0 0 .025-.051.07.07 0 0 0-.041-.064.25.25 0 0 0-.231.018.18.18 0 0 0-.11.067l-.032.025a.6.6 0 0 1-.156.1v-.013a.2.2 0 0 0 .02-.1c-.007-.028-.035-.073-.139-.07a.2.2 0 0 0-.108.031q.007-.027.013-.042c.15-.08.3-.191.293-.266a.06.06 0 0 0-.048-.046.26.26 0 0 0-.26.126.7.7 0 0 0-.122.275.5.5 0 0 1-.279.069c-.029 0-.046-.011-.049-.017a.04.04 0 0 1 .01-.028.14.14 0 0 1 .045-.038c0 .017.018.034.052.039a.2.2 0 0 0 .1-.016.07.07 0 0 0 .047-.081c-.013-.036-.069-.049-.115-.046a.3.3 0 0 0-.231.106.09.09 0 0 0-.011.091q.029.058.146.066h.035a.54.54 0 0 0 .247-.06v.008a.1.1 0 0 0 .032.059v.039l.018-.031a.1.1 0 0 0 .033 0q.044 0 .048-.058a.18.18 0 0 1 .071-.1.1.1 0 0 1 .067-.009.3.3 0 0 1-.017.076l-.01.03a.06.06 0 0 0 0 .055.1.1 0 0 0 .081.027.4.4 0 0 0 .234-.113.2.2 0 0 0 .1.021.4.4 0 0 0 .086-.01h.008a.3.3 0 0 0 .089.013.36.36 0 0 0 .236-.093q.034-.033.027-.057l-.006-.019Zm-.448.091.008-.008.006.01Zm.127-.019a.2.2 0 0 1-.032-.027.1.1 0 0 1 .049-.01.1.1 0 0 1 .036.005.2.2 0 0 1-.053.036Zm-1.716.454a1.2 1.2 0 0 0 .3-.086c.076-.036.181-.084.181-.163s-.067-.12-.17-.13-.109.011-.114.017l-.015.017.007.018c.008.021.028.023.054.025l.05.006c.044.009.069.025.075.038a.014.014 0 0 1 0 .015.57.57 0 0 1-.286.136 1.4 1.4 0 0 1-.314.043.6.6 0 0 1-.164-.02.11.11 0 0 1-.081-.055.1.1 0 0 1 .014-.087.5.5 0 0 1 .171-.156 1.6 1.6 0 0 1 .5-.205c.055-.008.082-.015.092-.038l.007-.021-.01-.014c-.019-.029-.056-.022-.085-.017h-.096c-.115 0-.165-.027-.17-.045s.012-.045.073-.088a1 1 0 0 1 .291-.116.8.8 0 0 1 .207-.034.2.2 0 0 1 .105.013.023.023 0 0 1 .014.031c0 .017-.028.053-.151.106-.02.007-.042.015-.044.038v.023l.019.01a.16.16 0 0 0 .118-.02q.167-.077.167-.165a.1.1 0 0 0-.042-.082.6.6 0 0 0-.44 0c-.126.037-.449.162-.425.305q.01.072.114.1a1.7 1.7 0 0 0-.3.142.7.7 0 0 0-.163.125.27.27 0 0 0-.086.185.14.14 0 0 0 .061.1.56.56 0 0 0 .308.069 1.4 1.4 0 0 0 .228-.02M20.59 10.9V7.12H3.41v9.734h17.18ZM9.846 16.255a.28.28 0 0 1-.28.28H4.008a.28.28 0 0 1-.279-.28v-8.59a.28.28 0 0 1 .279-.279h5.558a.28.28 0 0 1 .28.279Zm3.856.04a.24.24 0 0 1-.239.24h-2.926a.24.24 0 0 1-.239-.24v-3.75a.24.24 0 0 1 .239-.239h2.926a.24.24 0 0 1 .239.239Zm3.3-.068a.31.31 0 0 1-.307.308h-2.321a.307.307 0 0 1-.307-.308v-3.614a.306.306 0 0 1 .307-.307h2.319a.307.307 0 0 1 .307.307Zm3.191.082a.226.226 0 0 1-.226.226h-2.395a.226.226 0 0 1-.226-.226v-3.777a.226.226 0 0 1 .226-.226h2.393a.226.226 0 0 1 .226.226Zm0-4.615a.266.266 0 0 1-.265.266h-9.364a.266.266 0 0 1-.266-.266v-.8h9.893Zm0-.9H10.3V9.673h9.893Zm0-1.224H10.3v-1.2h9.893Zm0-1.3H10.3v-.618a.266.266 0 0 1 .266-.266h9.362a.266.266 0 0 1 .265.266ZM2 5.71v12.58h20V5.71Zm19.415 12.061H2.505V6.229h18.91Z"/></svg>