<svg xmlns="http://www.w3.org/2000/svg" viewBox="0 0 24 24"><path fill="#44739e" d="M21.986 15.471 19.525 3.385a.7.7 0 0 0-.662-.564l-15.3-.637h-.03a.7.7 0 0 0-.695.821L5.06 16.387a.706.706 0 0 0 .726.589l15.538-.659a.706.706 0 0 0 .662-.846m-1.568.219-13.882.582a.785.785 0 0 1-.81-.65L3.744 3.79a.782.782 0 0 1 .809-.905l13.666.563a.785.785 0 0 1 .739.623l2.2 10.685a.782.782 0 0 1-.74.934m-7.456 5.407H3.656a.36.36 0 0 0 0 .719h9.306a.36.36 0 0 0 0-.719m-7.207-3.77a1.06 1.06 0 0 1-1.041-.883l-.98-5.908A2.61 2.61 0 0 0 2 12.997v5.187a2.61 2.61 0 0 0 2.611 2.613h7.4a2.61 2.61 0 0 0 2.612-2.611v-1.234l-8.823.374Z"/></svg>