<svg xmlns="http://www.w3.org/2000/svg" viewBox="0 0 24 24"><path fill="#44739e" d="M11.688 21.997a9.2 9.2 0 0 1-2.308-.364 10.7 10.7 0 0 1-2.058-.85 14 14 0 0 1-1.775-1.143 12 12 0 0 1-.662-.533.75.75 0 0 1 1.057-1.067c.89.738 1.815 1.327 2.719 1.732q1.953.876 3.922.698 1.804-.162 3.659-1.205a14 14 0 0 0 1.785-1.2c.147-.114.16-.123.227-.156a.8.8 0 0 1 .209-.069.5.5 0 0 1 .122-.008c.087 0 .111.003.18.019a.751.751 0 0 1 .323 1.286 13 13 0 0 1-.446.346 15 15 0 0 1-1.877 1.206 13 13 0 0 1-.708.354c-1.46.672-2.922.992-4.369.954m.665-6.637c-.804 0-1.468-.003-1.475-.005a3 3 0 0 1-2.043-1.016 3.4 3.4 0 0 1-.615-1.029 3.9 3.9 0 0 1-.249-1.581 4 4 0 0 1 .104-.722 3.25 3.25 0 0 1 .858-1.543 3.27 3.27 0 0 1 1.824-.89c.113-.016-.03-.015 2.487-.015 1.273 0 2.314 0 2.314.002l-.426.746-.425.743-1.871.002-1.869.002-.052.01a1.75 1.75 0 0 0-.708.275 1.6 1.6 0 0 0-.505.588 2.2 2.2 0 0 0-.223.809 2.37 2.37 0 0 0 .238 1.238c.095.192.2.337.344.481a1.34 1.34 0 0 0 .866.405c.041.005.155.005 1.891.006l1.849.002.426.745.427.747c0 .003-.692.003-3.167 0m-.975-2.711a.748.748 0 0 1 .004-1.494c.049-.004 2.855-.004 2.905 0a.75.75 0 0 1 .458.21.75.75 0 0 1 .225.622.75.75 0 0 1-.59.65c-.078.017.019.015-1.55.014-.793 0-1.447 0-1.453-.002ZM5.337 6.167a.75.75 0 0 1-.505-1.217c.05-.063.093-.1.3-.258a16 16 0 0 1 2.01-1.33c.283-.155.595-.313.868-.436 1.16-.524 2.301-.824 3.457-.905A8 8 0 0 1 12.092 2a8 8 0 0 1 .638.022c1.381.1 2.754.527 4.103 1.275.738.408 1.474.917 2.2 1.517a.753.753 0 0 1 .097 1.123.75.75 0 0 1-.365.21.6.6 0 0 1-.18.019.5.5 0 0 1-.122-.008.8.8 0 0 1-.208-.067 1 1 0 0 1-.208-.147 13 13 0 0 0-1.364-.992c-1.388-.881-2.772-1.358-4.166-1.441a8 8 0 0 0-.856 0c-1.264.075-2.521.463-3.822 1.181q-.915.504-1.863 1.242a2 2 0 0 1-.184.134.8.8 0 0 1-.256.091 1 1 0 0 1-.199.006Z"/></svg>