<svg xmlns="http://www.w3.org/2000/svg" viewBox="0 0 24 24"><path fill="#44739e" d="M19.223 15.023a3 3 0 0 1-.2-.037.8.8 0 0 1-.126-.163 3.6 3.6 0 0 0-3.419-1.492 3.4 3.4 0 0 0-2.67 1.762c-.084.165-.085.165-.207.165a3.32 3.32 0 0 0-3.092 2.12 2.7 2.7 0 0 0-.111 1.193 7 7 0 0 0 .72.014h.711l-.008-.052c0-.029-.018-.1-.03-.154a1.41 1.41 0 0 1 .732-1.641 2.7 2.7 0 0 1 1.485-.19l.1.009.116-.171a4.4 4.4 0 0 1 1.052-1.243 2.814 2.814 0 0 1 3.963.8 2.6 2.6 0 0 0 .337.49l.199.029c1.383.191 2.029.809 1.986 1.899l-.008.219h1.17l.011-.031a3.1 3.1 0 0 0 .037-.953 3.2 3.2 0 0 0-2.748-2.573m-1.891 2.318c-.159.041-.157.042-.212-.067a1.7 1.7 0 0 0-1.821-.777 1.55 1.55 0 0 0-1.107.799c-.029.071-.049.075-.195.04-.972-.233-1.993.342-2.017 1.135v.109h7.406v-.1a1.567 1.567 0 0 0-2.054-1.139m1.369-7.574c-.437.039-.91.27-.965.472-.1.364.253.59.588.376a.91.91 0 0 1 1.38.626.357.357 0 0 0 .708.034 1.45 1.45 0 0 0-.165-.626 1.63 1.63 0 0 0-1.546-.882m-1.066-.338a2.259 2.259 0 0 1 3.481 1.813.7.7 0 0 0 .046.286.439.439 0 0 0 .8-.005l.038-.086-.008-.251A3.134 3.134 0 0 0 18.558 8.2a3.2 3.2 0 0 0-1.395.487c-.215.14-.271.226-.271.417 0 .4.372.563.743.325m-6.709 3.287a5.1 5.1 0 0 0 1.823.13h1.023v-.738l-.933-.009a3.9 3.9 0 0 1-1.448-.116 1.33 1.33 0 0 1-.745-1.041.7.7 0 0 1-.009-.341c.009-.006 3.135-.025 3.135-.025v-.743l-3.163.041a1.79 1.79 0 0 1 .7-1.383c.254-.123.312-.128 1.468-.138l.995-.008v-.752h-1.899l-.2.019a2.21 2.21 0 0 0-2.084 2.23c-.143 1.458.369 2.56 1.337 2.874M8.922 7.351l-.037-2.469v-.1a.14.14 0 0 0-.093-.135l-.056-.021-.027-.014-.072-.05a.1.1 0 0 1-.028-.025l-.049-.058a.2.2 0 0 0-.062-.043l-.1-.034c0-.016.047-.09 0-.11a23.6 23.6 0 0 0-5.915 0c-.04.02.026.082.044.1l-.168.093a.1.1 0 0 0-.032.024l-.078.077a.14.14 0 0 1-.062.037l-.1.029L2 4.691v2.767h.12v.058a.084.084 0 0 0 .084.084.085.085 0 0 1 .084.081V7.7a.084.084 0 0 0 .085.081h.6a.145.145 0 0 1 .145.15l-.031.953a.143.143 0 0 1-.129.139l-.548.059a.14.14 0 0 0-.1.06l-.167.232a.2.2 0 0 0-.033.05 11.5 11.5 0 0 0 .158 2.531.14.14 0 0 0 .119.122 22.6 22.6 0 0 0 6.172-.03.14.14 0 0 0 .11-.124 11.4 11.4 0 0 0 .122-2.521.14.14 0 0 0-.027-.052l-.114-.142a.14.14 0 0 0-.063-.045l-.185-.069-.028-.007-.225-.035a.144.144 0 0 1-.123-.143V7.9a.144.144 0 0 1 .143-.144l.369-.005a.084.084 0 0 0 .083-.08v-.008a.084.084 0 0 1 .088-.08h.072l-.007-.088a.146.146 0 0 0 .148-.144m-2.025 1.6-.325-.052-.347-.015-1.081-.01-1.034.031-.347.042v-1.2h3.139Zm.673.043-.274-.014V7.75h.327Zm.105 3.397a23 23 0 0 1-4.339 0 11 11 0 0 0-.831.8v.022c-.01.063-.017.117.011.14a7 7 0 0 0 3.083.442 6.06 6.06 0 0 0 2.87-.43.26.26 0 0 0 .019-.189 7.4 7.4 0 0 0-.813-.785m.411 1.357a12 12 0 0 1-2.49.236h-.037a11.5 11.5 0 0 1-2.643-.255 4 4 0 0 0-.326.346v.023c-.01.061-.017.117.011.141.479.4 2.713.533 4.313.38a2.83 2.83 0 0 0 1.44-.367.27.27 0 0 0 .018-.192 3 3 0 0 0-.286-.312m.123.812a5 5 0 0 1-1.283.253c-.41.039-.891.06-1.385.06a9.4 9.4 0 0 1-2.746-.314c-.043.06-.08.114-.1.156v.038c-.009.067-.022.168.017.21.436.467 2.41.639 3.908.5.9-.083 1.52-.265 1.661-.487a.5.5 0 0 0 .022-.28 2 2 0 0 0-.094-.136m-.121.785a5 5 0 0 1-1.457.312c-.352.033-.725.049-1.1.049a7.1 7.1 0 0 1-2.652-.4 2 2 0 0 0-.1.157v.038c-.008.064-.021.169.017.212.411.459 2.28.633 3.699.5.885-.081 1.5-.264 1.633-.49a.5.5 0 0 0 .022-.282.5.5 0 0 1-.062-.096m-.079.729a4.6 4.6 0 0 1-1.494.34c-.319.029-.657.044-1 .044a6.9 6.9 0 0 1-2.519-.378 2 2 0 0 0-.1.163v.039c-.008.064-.021.17.017.213.4.459 2.158.63 3.552.506.862-.078 1.48-.266 1.613-.492a.53.53 0 0 0 .021-.284 2 2 0 0 0-.09-.151M5.55 17.233a9 9 0 0 1-1.681-.145l.044.361.011.125c0 .018.006.084.014.16l.172 1.916a3.63 3.63 0 0 0 2.755-.058l.217-2.477a8 8 0 0 1-.6.078c-.303.029-.617.04-.932.04"/></svg>