<svg xmlns="http://www.w3.org/2000/svg" viewBox="0 0 24 24"><path fill="#44739e" d="M20.92 2.011H3.08A1.08 1.08 0 0 0 2 3.091v17.818a1.08 1.08 0 0 0 1.08 1.08h17.84a1.08 1.08 0 0 0 1.08-1.08V3.091a1.08 1.08 0 0 0-1.08-1.08M7.952 12.045a.27.27 0 0 1-.27.27H4.441v.28a1.526 1.526 0 0 0 1.488 1.544 1.42 1.42 0 0 0 1.25-.764.27.27 0 1 1 .479.25 1.96 1.96 0 0 1-1.731 1.054h-.006a2.07 2.07 0 0 1-2.02-2.09v-1.178a2.07 2.07 0 0 1 2.02-2.09h.011a2.07 2.07 0 0 1 2.02 2.09Zm4.858 0a.27.27 0 0 1-.27.27H9.3v.28a1.526 1.526 0 0 0 1.488 1.544 1.42 1.42 0 0 0 1.251-.764.27.27 0 1 1 .479.25 1.96 1.96 0 0 1-1.731 1.054h-.007a2.07 2.07 0 0 1-2.02-2.09v-1.178a2.07 2.07 0 0 1 2.02-2.09h.011a2.07 2.07 0 0 1 2.021 2.09Zm2.8-2.184a1.526 1.526 0 0 0-1.497 1.539v3.007a.27.27 0 1 1-.54 0V9.591a.27.27 0 1 1 .54 0V10a2.06 2.06 0 0 1 1.481-.675h.006a.27.27 0 0 1 .006.54Zm4.49 2.728a2.07 2.07 0 0 1-2.02 2.09h-.011a2.07 2.07 0 0 1-2.02-2.09v-1.178a2.07 2.07 0 0 1 2.02-2.09h.011a2.07 2.07 0 0 1 2.02 2.09Zm-.541-1.184a1.487 1.487 0 1 0-2.971 0V12.6a1.487 1.487 0 1 0 2.971 0v-1.19Zm-8.775-1.544A1.527 1.527 0 0 0 9.3 11.405v.37h2.97v-.37a1.527 1.527 0 0 0-1.486-1.544m-4.858 0a1.526 1.526 0 0 0-1.485 1.544v.37h2.971v-.37a1.527 1.527 0 0 0-1.486-1.544"/></svg>