<svg xmlns="http://www.w3.org/2000/svg" viewBox="0 0 24 24"><path fill="#44739e" d="M12.004 2.99a9.23 9.23 0 0 1 9.35 8.981 9.23 9.23 0 0 1-9.35 9.039 9.23 9.23 0 0 1-9.375-9.039 9.23 9.23 0 0 1 9.375-8.981m0 15.661a6.8 6.8 0 0 0 6.924-6.68 6.8 6.8 0 0 0-6.924-6.631 6.79 6.79 0 0 0-6.924 6.631 6.79 6.79 0 0 0 6.924 6.714m0-16.29A9.836 9.836 0 0 0 2 11.971a9.845 9.845 0 0 0 10.004 9.668A9.836 9.836 0 0 0 22 11.971a9.83 9.83 0 0 0-9.996-9.61Zm0 15.66a6.17 6.17 0 0 1-6.294-6.084 6.17 6.17 0 0 1 6.294-6.026 6.177 6.177 0 0 1 6.295 6.026 6.177 6.177 0 0 1-6.295 6.026Z"/></svg>