<?xml version="1.0" encoding="UTF-8"?>
<svg width="24px" height="24px" viewBox="0 0 24 24" version="1.1" fill="#44739e" xmlns="http://www.w3.org/2000/svg" xmlns:xlink="http://www.w3.org/1999/xlink">
            <path d="M 21.091,9.955 A 4.271,4.271 0 0 0 19.273,9.5 3.055,3.055 0 0 0 17.227,9.955 L 14.5,10.864 V 6.545 L 16.091,5.864 C 16.773,5.636 16.773,5.182 16.773,5.182 V 2.909 c 0,-0.227 0,-0.455 -0.682,-0.682 C 15.864,2 15.636,2 15.182,2 A 1.7,1.7 0 0 0 14.046,2.227 L 5.409,5.864 A 0.726,0.726 0 0 0 4.727,6.545 v 2.273 q 0,0.341 0.682,0.682 a 1.367,1.367 0 0 0 0.909,0.227 h 0.909 v 4.546 L 2.909,15.864 A 1.37,1.37 0 0 0 2,17 v 3.636 A 1.361,1.361 0 0 0 3.136,21.773 3.875,3.875 0 0 0 4.727,22 4.1,4.1 0 0 0 7,21.545 L 20.864,15.864 A 1.362,1.362 0 0 0 22,14.727 V 11.091 A 1.37,1.37 0 0 0 21.091,9.955 Z M 8.136,9.045 13.591,6.773 v 4.545 l -5.455,2.273 z m 12.273,6.364 c 0,0 -11.818,5 -12.727,5.227 -1.364,0.682 -2.727,1.137 -4.091,0.455 -1.364,-0.455 0,-0.909 0,-0.909 0,0 12.727,-5.455 13.636,-5.909 a 4.005,4.005 0 0 1 3.637,-0.228 c 1.136,0.682 -0.455,1.364 -0.455,1.364 z"/>

</svg>