<svg xmlns="http://www.w3.org/2000/svg" viewBox="0 0 24 24"><path fill="#44739e" d="M8.146 2A1.084 1.084 0 0 0 7.07 3.034V4.32a2.3 2.3 0 0 0-.404.21.95.95 0 0 0-.261.765V17.72H2.69v-.588h2.858c.261 0 .361-.093.361-.471s.009-.723 0-1.135-.1-.538-.411-.538H2.69v-.605h2.85c.26 0 .361-.076.361-.471v-1.177c0-.37-.101-.496-.387-.496H2.69v-.614h2.833c.277 0 .378-.1.378-.487V9.986c0-.378-.092-.504-.387-.504H2.639V5.716a1 1 0 0 0 0-.286.244.244 0 0 0-.327-.168c-.135.033-.219.193-.219.428v4.103c0 .311.109.479.345.462h2.757c.05 0 .134.084.134.084a3.4 3.4 0 0 1 0 .521H2.463c-.269 0-.37.135-.37.48v1.143c0 .412.092.53.403.53h2.833v.613H2.446c-.244 0-.353.126-.353.454v1.16c0 .404.092.513.403.513h2.833v.622H2.438c-.236 0-.345.135-.345.454v1.143c0 .446.084.555.437.555h3.892c.017.53.252.841.673.841v1.252a1.45 1.45 0 0 0 .311.925.84.84 0 0 0 1.059.278 1.22 1.22 0 0 0 .647-1.127v-1.177l.101-.143a2 2 0 0 1 .32 0v1.371a1.126 1.126 0 0 0 1.118 1.185 1.2 1.2 0 0 0 .967-1.295v-1.059a2 2 0 0 0 0-.185h.395v1.261a1.25 1.25 0 0 0 .84 1.269 1.04 1.04 0 0 0 1.118-.966 2.5 2.5 0 0 0 0-.488v-1.084h.404c0 .445-.009.866.025 1.286a1.31 1.31 0 0 0 .563 1.126.79.79 0 0 0 1.026-.101 1.4 1.4 0 0 0 .437-1.101v-1.202h.395v1.37a1.143 1.143 0 0 0 1.009 1.169 1.15 1.15 0 0 0 1.009-1.177v-1.16a2 2 0 0 1 0-.202h.386v1.311a1.21 1.21 0 0 0 .967 1.295c.547.025 1.001-.471 1.059-1.168V19.46l.219-.042c.286-.092.437-.395.437-.84V5.127a.75.75 0 0 0-.319-.613 2.5 2.5 0 0 0-.337-.127V3.169A1.16 1.16 0 0 0 20.293 2a1.07 1.07 0 0 0-1.017 1.026 8 8 0 0 0-.042 1.109v.252h-.395V3.286A1.22 1.22 0 0 0 17.864 2a1.126 1.126 0 0 0-1.076 1.143v1.228h-.396V3.244a1.24 1.24 0 0 0-.613-1.135c-.673-.37-1.404.252-1.404 1.202v1.051h-.404V3.353a1.43 1.43 0 0 0-.445-1.118.84.84 0 0 0-1.043-.084 1.36 1.36 0 0 0-.546 1.144v1.067h-.404V3.278c-.016-.849-.655-1.455-1.286-1.228a1.33 1.33 0 0 0-.714 1.32v1.001h-.437V3.202A1.18 1.18 0 0 0 8.146 2m0 .782c.193.017.37.235.37.521v1.084l-.833-.016V3.202a.412.412 0 0 1 .463-.42m7.271 0a.504.504 0 0 1 .395.529v1.076l-.849-.016v-1.16a.42.42 0 0 1 .454-.429m2.405.008a.47.47 0 0 1 .42.505v1.092h-.832V3.244a.446.446 0 0 1 .412-.454m-7.272.009a.454.454 0 0 1 .395.479v1.109h-.824V3.202a.41.41 0 0 1 .429-.403m2.455 0a.454.454 0 0 1 .369.462v1.126h-.815V3.202a.404.404 0 0 1 .446-.403m7.254 0c.227 0 .404.201.404.546v1.042h-.841c0-.369-.008-.765 0-1.076s.21-.512.437-.512M7.078 5.228H21.26v13.316l-14.182-.025Zm7.119 3.001q-.107 0-.227.152l-3.05 3.993a.42.42 0 0 0-.093.412.28.28 0 0 0 .295.218h.47v2.32c0 .345.084.454.345.454h4.497c.261-.008.345-.109.345-.462v-2.312h.462a.277.277 0 0 0 .295-.227.45.45 0 0 0-.101-.412c-.194-.26-.395-.513-.589-.782a.5.5 0 0 1-.075-.252V9.894c0-.286-.093-.412-.32-.412h-.227c-.42 0-.47.042-.47.58v.109l-.127-.218c-.369-.522-.798-1.051-1.21-1.572q-.113-.152-.22-.152m4.052 11.139a1 1 0 0 1 0 .151v1.085c-.016.327-.168.554-.428.554s-.429-.243-.429-.613v-1.16Zm-4.866.008v1.354a.42.42 0 0 1-.841 0v-1.345Zm-5.717.009h.824v1.353a.437.437 0 0 1-.42.43.46.46 0 0 1-.404-.479Zm2.438 0h.841l.008.008c0 .42.017.95 0 1.261s-.218.513-.445.504-.404-.243-.404-.546Zm4.859 0 .875.042v1.303a.454.454 0 0 1-.421.47.47.47 0 0 1-.454-.538Zm4.859 0h.816v1.328a.454.454 0 0 1-.379.437.446.446 0 0 1-.437-.378 3 3 0 0 1 0-.353Z"/></svg>