<?xml version="1.0" encoding="UTF-8"?>
<svg width="24px" fill="#44739e" height="24px" viewBox="0 0 24 24" version="1.1" xmlns="http://www.w3.org/2000/svg" xmlns:xlink="http://www.w3.org/1999/xlink">
            <path d="m 12.883,2.624 a 1.253,1.253 0 0 0 -1.767,0 L 2.884,10.856 A 3.481,3.481 0 0 0 2,12.991 v 7.5 a 1.254,1.254 0 0 0 1.25,1.25 H 8.166 V 9.3 a 0.5,0.5 0 0 1 0.5,-0.5 h 6.667 a 0.5,0.5 0 0 1 0.5,0.5 v 2 a 0.5,0.5 0 0 1 -0.5,0.5 h -4.167 v 1 h 4.167 a 0.5,0.5 0 0 1 0.5,0.5 v 2 a 0.5,0.5 0 0 1 -0.5,0.5 h -4.167 v 1 h 4.167 a 0.5,0.5 0 0 1 0.5,0.5 v 2 a 0.5,0.5 0 0 1 -0.5,0.5 h -4.667 a 0.5,0.5 0 0 1 0,-1 h 4.167 v -1 h -4.167 a 0.5,0.5 0 0 1 -0.5,-0.5 v -2 a 0.5,0.5 0 0 1 0.5,-0.5 h 4.167 v -1 h -4.167 a 0.5,0.5 0 0 1 -0.5,-0.5 v -2 a 0.5,0.5 0 0 1 0.5,-0.5 h 4.167 v -1 H 9.166 V 21.741 H 20.75 A 1.254,1.254 0 0 0 22,20.491 v -7.5 a 3.481,3.481 0 0 0 -0.884,-2.135 z"/>

</svg>