<svg xmlns="http://www.w3.org/2000/svg" fill="#44739e" width="24" height="24" viewBox="0 0 24 24">
  <path id="Colore_riempimento_1" data-name="Colore riempimento 1" class="cls-1" d="m 12.005,19.328 h -1.387 a 0.15,0.15 0 0 0 -0.15,0.15 v 0.073 a 0.15,0.15 0 0 0 0.15,0.15 h 1.387 z M 14.941,2 H 9.027 C 12.412,9.671 0.115,17.308 7.486,21.989 h 7.781 L 16.525,22 V 21.756 C 23.725,17.694 12.059,9.459 14.941,2 Z M 8.6,21.887 H 7.624 V 21.774 H 8.6 Z m 0.258,-0.194 h 6.477 a 64.482,64.482 0 0 1 -6.475,0 z m 1.464,-2.179 a 0.331,0.331 0 0 1 0.331,-0.33 h 2.887 a 0.331,0.331 0 1 1 0,0.661 h -2.885 a 0.331,0.331 0 0 1 -0.331,-0.331 z m 6.1,2.369 h -0.847 v -0.105 h 0.847 z m -10.9,-4.534 h 13.146 c -0.968,0.088 -12.203,0.094 -13.139,0 z m 8.185,2.202 v -0.073 a 0.15,0.15 0 0 0 -0.15,-0.15 H 12.192 V 19.7 h 1.365 a 0.15,0.15 0 0 0 0.15,-0.149 z"/>
</svg>
