<svg xmlns="http://www.w3.org/2000/svg" viewBox="0 0 24 24"><path fill="#44739e" d="M10.656 8.468s-.242.305-.562.531v.063h.031c0 .053.054.08.094.093.053.014.094.046.094.125v2.063h2.28v.094c0 .173.033.272.126.312 0 0 .076.063.156.063.053 0 .09-.023.156-.063l.031-.031-.03-.031c-.054-.053-.095-.22-.095-.313h.844V9.468s-.118.256-.531.563c0 0 .014.085.094.124.106.054.094.126.094.126v.75h-.5v-.094c0-.187-.057-.625-.563-.625h-.469c-.293 0-.447-.045-.5-.125l-.031-.031a.24.24 0 0 0-.094.187c0 .12.081.281.188.281h.687c.413 0 .438.17.438.25v.094h-1.938Zm3.438.031v2.469l.406.438-.344.312.594.594.563-.594-.344-.344.437-.469V8.499s-.189.376-.469.563c0 .053.054.08.094.093.04.014.063.046.063.125v1.47l-.344.374-.375-.375V9.28c0-.093.054-.111.094-.125s.036-.04.062-.093c-.266-.187-.437-.563-.437-.563m1.719 0v2.875h.374c-.013-.013-.03-2.04-.03-2.094 0-.093.053-.111.093-.125s.08-.045.094-.125c0-.04.008-.049-.032-.062s-.112-.032-.218-.125c-.187-.147-.219-.25-.219-.25Zm-2.876.375-.25.25.25.282.282-.25.25.25.281-.282-.062-.031-.22-.219-.25.25h-.03v-.031Zm-5.279.594v1.031h1.78c.054 0 .126.005.126.125v.844s.016.156-.157.156c-.28 0-.281-.156-.281-.156v-.437h-1.47v.343h1.157v.281c-.003.024-.038.313.562.313.506 0 .531-.344.531-.344v-1.156c0-.08-.005-.281-.219-.281h-1.78v-.125c0-.04.022-.05.062-.063.093-.053.107-.13.093-.156-.2-.12-.406-.375-.406-.375m7.062 2.031.25.219-.25.25-.219-.25ZM3.406 12.905a.4.4 0 0 0-.187.032 1.9 1.9 0 0 0-.531.219c-.294.16-.488.367-.594.593a1.1 1.1 0 0 0-.094.439c0 .413.23.747.656 1 .187.12.417.179.656.219.187.04.413.03.72.03h1.687L6.156 15H6l-.094.031a.14.14 0 0 1-.062.032H4.03c-.413 0-.737-.068-.937-.188-.262-.142-.331-.359-.375-.594-.01-.052-.094-.066-.094-.124 0-.134.032-.287.125-.407.147-.226.386-.384.719-.437.093-.014.165-.031.219-.031h.937c.053 0 .063.03.063.03l-.032.063h.063l.406-.469H4c-.266 0-.46-.013-.594 0m-.687 1.376h2.437l-.031.093h.094l.406-.5H2.969Zm2.719-1.376-.375.47.062.03h.031l.094-.062c.04-.013.054-.031.094-.031h1.468v2h-.03l-.063.062v.063h.812v-.063l-.062-.062h-.032v-2H8.75c.053 0 .031.031.031.031v.063h.094l.406-.5Zm4 0V13l.062.063.063.031v2.25H9.53l-.094.063v.061h.813v-.062l-.094-.063v-2.281l.094-.063v-.094Zm1.062.032V13l.094.063v2.312l-.094.063v.094h.813v-.094l-.094-.063v-1.031h.094l.093-.031.063-.031h1.75v.812l.625-.656v-1.344l.094-.031V13h-.813l.094.063c.013.013 0 .004 0 .031v.75h-1.625l-.375.469v-1.219l.031-.031.063-.063v-.062Zm5.094 0-.375.375.406.406.406.438h-.687l-.375.374.094.063.093-.062h1.219l.813.874s-.028.032-.094.032v.062H18Zm2.156 0v.094l.094.062v.25h2.125c.426 0 .75.068.937.188.293.173.438.407.438.687a.9.9 0 0 1-.094.406 1 1 0 0 1-.375.313c-.2.12-.524.156-.937.156h-1.094v-1.562h-.594v1.812h-.031l-.063.031v.093h1.813c.36 0 .6-.023.812-.062a1.8 1.8 0 0 0 .688-.282c.2-.133.37-.309.437-.469.053-.133.094-.26.094-.406a4 4 0 0 1-.062-.344c-.094-.306-.324-.532-.657-.718-.293-.173-.74-.25-1.312-.25Zm-2.656.469-1.969 2.061h.906v-.094h-.125l1.531-1.594Z"/></svg>