<svg xmlns="http://www.w3.org/2000/svg" viewBox="0 0 24 24"><path fill="#44739e" d="M9.936 2.002a3.4 3.4 0 0 0-.557.026s-.531.07-.771.115c-.16.033-.233.173-.233.355v19.237c0 .238.265.265.265.265s5.75-.181 5.973-.192c.417-.023 1.016-.079 1.012-.353 0 0-.004-18.307 0-18.526.002-.219-.205-.241-.205-.241s-4.727-.635-5.173-.671q-.168-.012-.311-.014m.529.406c.022 0 .041.003.082.007l.168.017.557.065a1690 1690 0 0 1 3.97.474h.003s.018.002.044.011a.34.34 0 0 1 .145.096.34.34 0 0 1 .074.148.4.4 0 0 1 .013.099l.001.83v8.079l-.001 8.724v-.005s.002.02-.001.052a.3.3 0 0 1-.035.119.34.34 0 0 1-.113.121.3.3 0 0 1-.093.041.4.4 0 0 1-.117.017c-.288.006-4.635.147-4.635.147l-.027-.003s-.018-.006-.045-.02a.5.5 0 0 1-.152-.115.4.4 0 0 1-.081-.149.4.4 0 0 1-.014-.099l-.001-.246-.001-.606v-2.096l.001-6.249.004-9.019v-.002l.003-.188.002-.019.011-.033a.4.4 0 0 1 .069-.117.3.3 0 0 1 .043-.039.2.2 0 0 1 .125-.042m0 .164a.05.05 0 0 0-.034.012.2.2 0 0 0-.029.034.2.2 0 0 0-.025.056l-.003.175-.004 17.362.001.849a.3.3 0 0 0 .026.108q.023.043.055.069a.3.3 0 0 0 .089.05c.036-.002 4.313-.14 4.618-.147a.3.3 0 0 0 .078-.009.2.2 0 0 0 .051-.021.1.1 0 0 0 .031-.027.17.17 0 0 0 .037-.091q.003-.026.002-.028v-.005l.002-8.725-.001-8.907a.3.3 0 0 0-.007-.064.17.17 0 0 0-.065-.101.2.2 0 0 0-.045-.026l-.02-.005-2.335-.28a582 582 0 0 0-2.189-.256l-.166-.018Zm2.437 2.049a.073.065 74.408 0 1 .069.073.073.065 74.408 0 1-.061.073.073.065 74.408 0 1-.07-.073.073.065 74.408 0 1 .061-.073m-.059.338a1.6 1.6 0 0 1 .571.101 1.7 1.7 0 0 1 .347.17 2 2 0 0 1 .311.242 2.2 2.2 0 0 1 .382.476 2.6 2.6 0 0 1 .258.586 2.6 2.6 0 0 1 .106.889 2.6 2.6 0 0 1-.116.64 2.3 2.3 0 0 1-.264.553 2 2 0 0 1-.246.304 1.7 1.7 0 0 1-.294.241 1.7 1.7 0 0 1-.515.226 1.6 1.6 0 0 1-.58.035 1.6 1.6 0 0 1-.552-.166 1.7 1.7 0 0 1-.33-.207 2 2 0 0 1-.29-.275 2.3 2.3 0 0 1-.344-.515 2.6 2.6 0 0 1-.21-.614 2.7 2.7 0 0 1 .007-1.111 2.4 2.4 0 0 1 .217-.586 2.2 2.2 0 0 1 .349-.476 1.7 1.7 0 0 1 .295-.241 1.7 1.7 0 0 1 .515-.226 1.7 1.7 0 0 1 .383-.046m.006.164a1.46 1.46 0 0 0-.816.248 1.7 1.7 0 0 0-.268.223 1.7 1.7 0 0 0-.227.279 2 2 0 0 0-.243.513 2.2 2.2 0 0 0-.107.596 2.5 2.5 0 0 0 .337 1.376 2.2 2.2 0 0 0 .352.441 2 2 0 0 0 .284.222 1.7 1.7 0 0 0 .316.156 1.6 1.6 0 0 0 .517.093 1.46 1.46 0 0 0 .815-.249 1.7 1.7 0 0 0 .269-.222 1.7 1.7 0 0 0 .226-.281 2 2 0 0 0 .244-.512 2.2 2.2 0 0 0 .107-.596 2.5 2.5 0 0 0-.337-1.377 2.2 2.2 0 0 0-.352-.439 2 2 0 0 0-.284-.223 1.7 1.7 0 0 0-.316-.155 1.6 1.6 0 0 0-.517-.093m.02 1.149a.978.825 79.03 0 1 .881.973.978.825 79.03 0 1-.775.973.978.825 79.03 0 1-.882-.973.978.825 79.03 0 1 .775-.973m.038.687a.284.247 69.425 0 0-.228.281.284.247 69.425 0 0 .274.28.284.247 69.425 0 0 .228-.28.284.247 69.425 0 0-.274-.281m0 3.535a.166.152 74.168 0 1 .16.164.166.152 74.168 0 1-.145.166.166.152 74.168 0 1-.16-.166.166.152 74.168 0 1 .146-.164m.346 1.39a.15.15 0 0 1 .082.026c.062.037.037.077-.055.087-.103.013-.156.155-.054.147.03-.003.062.014.07.036.008.024-.013.04-.054.04-.062 0-.069.019-.069.246 0 .195-.008.244-.048.244s-.049-.056-.049-.308c0-.326.067-.513.177-.518m-1.014.198c.196 0 .284.241.066.324-.086.033-.092-.02-.013-.104.083-.089.082-.095-.024-.129-.159-.048-.266.207-.155.367.091.128.281.067.314-.101.018-.092.077-.062.071.036a.241.241 0 0 1-.412.152c-.165-.166-.13-.461.064-.528a.3.3 0 0 1 .089-.017m.37.006c.02-.003.042.083.042.226 0 .238.04.315.154.293.049-.009.06-.051.069-.248.007-.181.021-.237.057-.237.081 0 .065.439-.018.523q-.123.121-.256.009c-.067-.057-.081-.136-.074-.425.002-.095.014-.139.026-.141m.793.034c.017 0 .067.114.111.253.079.254.079.254.151.017.064-.209.131-.31.131-.196 0 .081-.206.663-.255.719-.055.063-.123.074-.154.024-.01-.017.017-.046.06-.063.117-.043.119-.114.015-.41-.097-.281-.108-.344-.06-.344m-1.259 1.014c.043 0 .089.016.102.036q.023.037-.047.014c-.04-.012-.069-.008-.069.011 0 .017.029.041.065.053.097.03.086.147-.015.147-.043 0-.089-.016-.102-.036q-.023-.037.048-.014c.038.012.069.008.069-.009s-.03-.039-.066-.048c-.099-.026-.087-.155.015-.155m.247 0c.112 0 .135.064.024.069q-.082.003-.016.019c.07.018.076.076.008.076-.026 0-.049.014-.049.032s.03.032.066.032.065.016.065.033c0 .037-.14.046-.175.011-.012-.012-.021-.077-.021-.146 0-.118.006-.126.098-.126m.234.003q.034.003.051.052.012.036-.057.02c-.061-.016-.069-.007-.059.076.008.069.026.091.068.084.032-.005.057.006.057.025 0 .08-.162.034-.184-.053-.026-.105.061-.212.124-.204m.123.03c.018 0 .035.047.041.106s.026.106.043.106.038-.048.043-.106c.011-.116.071-.149.071-.039 0 .155-.103.24-.189.155-.046-.047-.053-.222-.009-.222m.273 0c.039.002.105-.005.129.034.017.027-.033.089-.002.153.052.104-.005.153-.039.046-.027-.085-.089-.089-.103-.002-.006.038-.018.061-.028.051-.024-.028-.008-.112-.008-.182 0-.057.008-.104.051-.1m.363 0c.047 0 .086.014.086.032s-.016.033-.034.033c-.017 0-.029.057-.025.119.012.166-.013.119-.031.12-.046.005-.035-.055-.035-.108 0-.052.01-.074-.011-.121-.009-.018-.047.002-.046-.046.001-.026.044-.03.096-.029m-.151.014.008.002c.017.01.033.078.033.149s-.016.129-.033.129-.033-.068-.033-.15c0-.079.009-.127.026-.13Zm.271.011c.014 0 .062.004.072.048.007.032.047.046.07-.009.028-.067.081-.038.057.023-.007.019-.047.053-.06.089-.011.033.004.067-.002.092-.014.061-.055.073-.065.042-.009-.027-.009-.07-.017-.133-.009-.06-.071-.152-.055-.152m-.429.044a.1.1 0 0 0-.036.006c-.026.011-.018.036.019.037.035.001.038-.018.036-.037l.007.003q-.009-.009-.026-.009m-.186 1.758a1.66 1.66 0 0 1 .921.277 2 2 0 0 1 .307.246 2 2 0 0 1 .26.31 2.3 2.3 0 0 1 .286.563 2.6 2.6 0 0 1 .141.652 2.7 2.7 0 0 1-.141 1.116 2.6 2.6 0 0 1-.286.562 2 2 0 0 1-.26.31 2 2 0 0 1-.308.246 1.8 1.8 0 0 1-.53.23 1.64 1.64 0 0 1-1.143-.133 1.7 1.7 0 0 1-.327-.211 2 2 0 0 1-.284-.28 2.2 2.2 0 0 1-.33-.526 2.6 2.6 0 0 1-.192-.626 2.7 2.7 0 0 1 .047-1.131 2.6 2.6 0 0 1 .241-.596 2.3 2.3 0 0 1 .371-.486 2 2 0 0 1 .306-.246 1.8 1.8 0 0 1 .531-.23 1.7 1.7 0 0 1 .39-.047m0 .164a1.46 1.46 0 0 0-.682.165 1.7 1.7 0 0 0-.3.194 1.7 1.7 0 0 0-.261.258 2 2 0 0 0-.305.486 2.3 2.3 0 0 0-.178.583 2.6 2.6 0 0 0-.026.647 2.6 2.6 0 0 0 .129.61 2.3 2.3 0 0 0 .266.522 2 2 0 0 0 .375.407 1.7 1.7 0 0 0 .3.194 1.6 1.6 0 0 0 .503.155 1.46 1.46 0 0 0 .861-.155 1.7 1.7 0 0 0 .299-.194 1.7 1.7 0 0 0 .261-.258 2 2 0 0 0 .305-.486 2.3 2.3 0 0 0 .178-.584 2.6 2.6 0 0 0 .026-.646 2.6 2.6 0 0 0-.129-.609 2.3 2.3 0 0 0-.265-.523 2 2 0 0 0-.24-.286 1.7 1.7 0 0 0-.281-.226 1.7 1.7 0 0 0-.315-.16 1.6 1.6 0 0 0-.521-.094"/></svg>