<?xml version="1.0" encoding="UTF-8"?>
<svg width="24px" fill="#44739e" height="24px" viewBox="0 0 24 24" version="1.1" xmlns="http://www.w3.org/2000/svg" xmlns:xlink="http://www.w3.org/1999/xlink">
            <path d="m 14.392728,10.404037 v 0.132647 l 0.02178,0.319152 a 0.90295785,0.90958291 0 0 1 0.396034,-0.234377 l 0.09901,-0.01496 0.02376,-0.324139 c -0.09901,0.07979 -0.571279,0.008 -0.684149,0 a 0.31880749,0.3211466 0 0 1 0.143562,0.121677 z m 0.958403,-0.0379 h 0.01485 a 0.87127511,0.87766772 0 0 1 0.588111,0.220415 l 0.157424,0.149602 c 0.03861,0.03291 0.150493,0.125666 0.177225,0.144616 a 2.1781878,2.1941693 0 0 0 0.866325,0.28225 1.4534453,1.4641093 0 0 0 0.573259,-0.09974 c 0.146533,-0.04887 0.23762,-0.07979 0.274254,-0.09973 a 3.9197479,3.9485074 0 0 0 0.638605,-0.391959 c 0.624744,-0.53059 0.524745,-0.465762 0.860384,-1.2217532 a 0.31682731,0.3191519 0 0 0 -0.07624,-0.0359 2.5742219,2.5931092 0 0 1 -1.51384,1.5578612 2.2771963,2.2939043 0 0 1 -0.746525,0.183512 2.1088818,2.1243548 0 0 1 -0.58118,-0.140626 l -0.03069,-0.01496 A 1.948488,1.9627842 0 0 1 16.046169,10.53669 1.1524594,1.160915 0 0 0 15.364,10.246461 a 0.34751996,0.35006974 0 0 0 -0.190096,0.04289 0.45840952,0.4617729 0 0 1 -0.151483,0.04987 l -0.01188,0.137634 a 0.28118424,0.28324731 0 0 0 0.09901,-0.04189 0.47623106,0.4797252 0 0 1 0.241581,-0.06882 z m 4.806864,-1.4641088 a 0.28217433,0.28424466 0 0 0 0.09901,-0.017952 l -0.06832,-0.027926 z m -0.725732,0.3181546 0.09901,0.02394 0.0099,-0.004 c 0.05049,-0.092754 0.176235,-0.099735 0.259403,-0.1426211 a 1.4643362,1.4750802 0 0 0 0.314847,-0.4488073 l -0.01287,-0.034907 h -0.0069 l -0.221779,-0.020944 -0.0059,0.025931 c -0.181259,0.152601 -0.431751,0.3500762 -0.435711,0.6014084 z m 0.299006,-0.8028666 0.01881,0.01895 a 0.27920407,0.28125261 0 0 1 0.0594,-0.099735 l 0.0198,-0.61337 a 3.2672817,3.2912539 0 0 0 -0.09802,0.6941553 z m 0.601972,0.3600433 0.297025,-0.1486051 c -0.0069,-0.039894 0.23069,-1.2636421 0.198017,-1.2965546 l -0.09901,-0.04887 -0.527716,1.1339865 0.01089,0.015958 a 0.34751996,0.35006974 0 0 1 0.06931,0.2882341 z m 1.485128,-2.1014158 a 1.4633462,1.4740828 0 0 0 -0.362372,0.5635026 l -0.806919,6.5555797 0.46138,-0.348076 0.806919,-6.7710063 z m -0.474251,0.2642977 a 1.6286904,1.6406402 0 0 1 0.34554,-0.4178896 L 19.893643,6.328866 a 0.75345496,0.75898311 0 0 0 -0.427717,0.5794602 l -0.329699,2.8374596 a 3.5930198,3.619382 0 0 0 0.211879,-0.456786 l -0.0297,-0.008 a 1.1069154,1.1150369 0 0 1 0.141582,-0.4268654 c 0.01188,-0.02992 0.271284,-0.2523295 0.297026,-0.2792579 a 0.33365877,0.33610684 0 0 1 -0.143562,-0.265295 c 0.04455,-0.1146952 0.150493,-1.1459548 0.316827,-1.174878 l 0.02079,-0.012965 0.724742,0.017952 0.23069,0.1107058 A 9.8374881,9.9096664 0 0 1 20.718384,8.684606 l -0.355441,0.1795229 a 0.21286835,0.21443018 0 0 1 -0.304946,0.071809 0.76533598,0.7709513 0 0 1 -0.273264,0.2682869 0.2841545,0.28623936 0 0 0 -0.198017,0.111703 3.0771853,3.0997628 0 0 1 -0.518805,0.9863792 l -0.23663,2.035591 a 1.3861195,1.3962896 0 0 0 -1.85344,-0.146611 c -0.04554,0.0369 -0.411875,0.336107 -0.424746,0.349073 a 0.85543375,0.86171012 0 0 0 -0.263363,0.66224 c 0,0.08876 0,0.171544 0.01089,0.251332 h 0.02178 l 0.337619,0.08876 a 1.5583944,1.5698284 0 0 1 0.0069,-0.348075 0.73662351,0.74202816 0 0 1 0.743554,-0.638304 1.5583944,1.5698284 0 0 1 1.296021,1.481064 c 0,0.01496 0,0.02992 0,0.04488 l 0.11485,0.02992 -0.12277,0.109708 a 0.99008536,0.99734968 0 0 1 -0.03762,0.178526 l 0.128712,-0.12068 v 0.789901 l 0.170324,-0.128652 a 3.9791531,4.0083484 0 0 0 0.315837,-0.284244 c 0.163365,-0.19947 0.382173,-0.235375 0.320788,-0.96344 l 0.594051,0.171544 0.272274,0.07081 0.823751,-6.7550494 z m -1.346516,1.3803319 0.04257,0.00598 0.484152,-1.081127 -0.495043,-0.00997 z m 0.182175,-0.8776677 h 0.05941 l -0.08713,0.4428233 -0.06337,-0.00598 z m -0.12079,1.0721509 0.04554,-0.037899 -0.0198,-0.042886 -0.191086,-0.028923 -0.03861,0.034907 -0.01386,0.054854 z m -4.568254,5.2869505 v 0.292223 l 1.904924,0.464765 0.359401,-0.307183 -1.549483,-0.449805 z m -0.11485,0.362038 v -0.485709 l -1.533642,1.084119 0.185146,-9.98e-4 0.2297,0.05585 0.154453,0.06981 z m 0.46237,2.076482 0.155443,0.03092 9.91e-4,0.02294 0.04653,0.800872 0.652466,0.185507 2.039576,-2.129342 v -0.731057 l -2.094031,1.951813 -0.01683,-0.006 -0.841573,-0.244351 z m 0.737614,-0.19947 2.125713,-1.898954 -2.384126,-0.629327 -0.608902,-0.02992 -0.184156,0.13165 0.701971,0.01596 1.874231,0.529592 -0.04257,0.03591 -1.796014,1.515972 -1.098005,-0.370017 0.0802,0.0738 0.101979,0.09874 0.167324,0.197476 z M 5.3690909,13.406059 5.3374082,13.625476 5.5265145,13.496818 Z m -0.00495,-0.429858 0.016831,0.122674 0.0099,0.1885 0.1851459,0.102727 0.3534605,-0.179523 -0.5940512,-0.351067 z m 2.0831396,-1.740375 -1.0752327,-0.287236 -1.7524511,0.702134 0.00396,0.002 0.087127,0.0768 0.1079193,0.110706 0.1138598,0.139629 0.1316814,0.227396 1.4168121,-0.600405 1.4900785,0.605392 0.7980088,-0.394951 z m 1.4920586,0.483715 0.1445524,-0.06383 -1.5296818,-0.659248 -1.2267158,-0.318154 -2.0158138,0.811842 0.127721,0.08877 1.9276962,-0.780925 1.1187965,0.292223 z m 4.8306259,5.181231 v 0 l 0.06931,0.06184 0.742564,0.686177 v -0.009 l 0.04257,0.0379 a 1.2950316,1.3045334 0 0 0 -0.08911,-0.985382 l -0.03663,0.01 -0.005,-0.01197 -0.733653,0.19947 z m -0.634645,-1.134984 -0.01188,-0.02792 c -0.3495,0.08078 -0.529696,0.315162 -0.551478,0.773943 l 0.981175,0.285242 v -0.007 h 0.005 L 13.148242,15.75979 Z m -0.450489,1.224746 v 0.008 h -0.04653 a 1.4009708,1.4112498 0 0 0 0.518805,0.804861 l 0.01584,-0.0359 v 0 l 0.275244,-0.61337 0.09901,-0.212435 v 0 -0.009 z m 1.014838,0.0389 -0.10891,1.051206 v 0 0.04089 c 0.23069,0.09973 0.717812,0.04887 0.821771,-0.116689 l -0.46237,-0.630325 z m -0.07228,-1.272619 v 0.02593 0 l 0.09901,1.011313 h 0.0049 v 0.009 l 0.57425,-0.488701 A 1.2920614,1.3015413 0 0 0 13.62734,15.756838 Z m 1.551464,-0.226398 a 1.7029468,1.7154415 0 0 0 -2.363334,-0.367025 c -0.05148,0.04289 -0.475241,0.386972 -0.495042,0.39894 a 0.9801845,0.98737618 0 0 0 -0.303956,0.761975 2.5682814,2.5871251 0 0 0 0.485141,1.574815 1.5148306,1.525945 0 0 0 0.274254,0.285242 1.8197769,1.8331287 0 0 0 1.428693,0.578463 1.2484976,1.2576579 0 0 0 0.22574,-0.04687 1.3465161,1.3563956 0 0 0 0.442568,-0.21842 l 0.225739,-0.170547 a 4.477166,4.5100153 0 0 0 0.365342,-0.32713 c 0.206928,-0.251332 0.489102,-0.274271 0.343559,-1.35839 a 2.1247232,2.1403124 0 0 0 -0.628704,-1.111048 z m -1.15741,2.768643 c -0.741574,0.11669 -1.716808,-0.841763 -1.565325,-1.979739 a 0.85147341,0.85772073 0 0 1 0.858404,-0.735047 1.797995,1.811187 0 0 1 1.498,1.70447 0.89107682,0.89761471 0 0 1 -0.791079,1.010316 z M 4.1601967,13.827938 A 1.1475089,1.1559283 0 0 0 4.0958411,13.01809 l -0.5841503,0.171544 z m -0.7574153,-1.582794 0.075246,0.857721 0.4376177,-0.39894 A 1.0108772,1.018294 0 0 0 3.4027814,12.245144 Z M 2.5958618,12.86749 3.3433762,13.102865 3.0166481,12.232179 c -0.266333,0.06383 -0.405935,0.257316 -0.4207863,0.635311 z m 0.4475186,1.067164 0.2970256,-0.708118 -0.6930598,0.04488 a 1.1643404,1.1728832 0 0 0 0.3960342,0.663237 z m 0.324748,0.262303 c 0.1752451,0.08278 0.5465271,0.03989 0.6257339,-0.09974 L 3.4552559,13.299343 Z m 0.071286,-2.798563 c 0,0 -0.7999889,0.323142 -0.8623643,0.37999 a 1.4465147,1.4571279 0 0 0 -0.4613798,1.030263 2.2217515,2.2380527 0 0 0 0.5158345,1.378337 1.5079,1.5189636 0 0 0 1.2811704,0.573476 0.5544478,0.55851582 0 0 0 0.2475214,-0.07081 L 4.8195935,14.314645 A 0.42969705,0.43284976 0 0 0 4.9512749,14.203939 1.8019554,1.8151764 0 0 0 3.4394144,11.398394 Z m 0.6702878,2.73573 A 0.69305975,0.69814478 0 0 1 3.699807,14.34257 C 3.1354583,14.442305 2.3928943,13.644426 2.5117045,12.708912 a 0.69305975,0.69814478 0 0 1 0.2128684,-0.425869 0.67325804,0.67819778 0 0 1 0.440588,-0.179523 c 0.4950427,-0.02593 1.1088956,0.673211 1.1395882,1.405266 a 0.85147341,0.85772073 0 0 1 -0.1950469,0.625338 z m 11.4008328,-0.829795 -2.031655,1.428205 0.169304,-0.02394 1.862351,-1.300544 z m -2.172247,1.376343 2.152445,-1.512979 -0.07723,-0.171545 -2.933622,-0.797879 c 0.08515,-0.152595 0.198017,-0.608384 1.262358,-1.221754 h 0.0069 l 0.401975,0.02892 a 0.1554434,0.1565839 0 0 0 0.113859,-0.0389 0.14356238,0.1446157 0 0 0 0.04753,-0.107714 V 10.536677 A 0.1485128,0.14960245 0 0 0 14.17092,10.389069 l -0.396034,-0.02194 h -0.0059 a 0.10395896,0.10472172 0 0 0 -0.0703,0.02693 0.09900854,0.09973497 0 0 0 -0.03168,0.07281 v 0.235374 a 3.9336091,3.9624703 0 0 0 -1.548494,1.39629 l -2.064328,-0.5645 H 9.6918036 L 9.3304224,11.712559 A 1.3435458,1.3534035 0 0 0 9.5284395,10.747125 1.3653277,1.3753452 0 0 0 8.0987562,9.5263688 c 0,0 -0.6415753,0.255321 -0.6930597,0.299205 a 1.1277072,1.1359813 0 0 0 -0.370292,0.8128402 1.2554282,1.2646394 0 0 0 0.011881,0.164562 l 0.3069264,0.07979 a 1.1960231,1.2047984 0 0 1 0,-0.323141 0.54949737,0.55352907 0 0 1 0.1712848,-0.336107 0.54256678,0.54654762 0 0 1 0.3772225,-0.163565 c 0.3960342,-0.01995 0.8910768,0.531587 0.9148389,1.109053 a 0.81385016,0.81982144 0 0 1 -0.037623,0.290229 l 0.4504889,0.193485 -0.2970256,0.129656 -0.012871,-0.005 -0.2613826,-0.113698 a 0.21781878,0.21941693 0 0 1 -0.022772,0.01995 l -0.00792,0.008 0.2970256,0.130653 -0.1257409,0.04089 -0.6089024,0.299205 a 1.2207752,1.2297322 0 0 0 0.1900963,0.01596 l -2.8989699,1.436183 0.063366,0.07879 5.7830875,1.929871 h 0.68811 l 1.195033,-0.943492 z m 0.11782,-0.616362 -1.823738,-0.504659 0.207918,-0.144616 1.824728,0.503662 z m 0.370292,-0.278261 -1.802946,-0.498674 0.23069,-0.159576 1.802945,0.498674 z m -4.0504393,-2.082466 5.0731973,1.364375 -0.213859,0.153591 -5.0939885,-1.38831 z m -0.476231,0.247343 5.1563643,1.376343 -0.222769,0.155586 -1.790075,-0.485709 0.10693,-0.0748 -2.065318,-0.556522 -0.116831,0.06782 -1.3118623,-0.356054 z m 1.7821533,1.296555 -1.1079054,0.660245 c 0.014851,0.02693 0.1089094,0.0369 0.2455414,0.04289 l -0.5584082,0.108711 0.018812,-0.299205 c 0.079207,0.06483 0.1049491,0.08278 0.1564335,0.09076 l 0.7098907,-0.54954 -0.519794,-0.183512 0.771276,-0.507651 0.404944,0.09974 -0.681178,0.347078 z M 8.8215185,12.180316 10.166054,12.55133 9.905662,12.70193 8.5512252,12.331914 Z m -0.5207849,0.258314 1.3950303,0.384977 -0.2326701,0.135639 -1.427703,-0.398939 z m -0.5128642,0.249337 1.438594,0.408914 -0.2881148,0.167554 -1.4692867,-0.4139 z M 7.2255009,12.968223 8.7254802,13.388107 8.4571671,13.543693 6.9403563,13.107852 Z M 11.569005,15.35488 6.0245274,13.568627 6.2958108,13.445953 11.848209,15.17835 Z m 0.452469,-0.32713 -5.5325966,-1.682529 0.2584123,-0.123672 1.5069099,0.439832 -0.1564335,0.09076 2.2465029,0.698145 0.187127,-0.123671 1.782153,0.519619 z m 0.482172,-0.32015 -1.782154,-0.513635 0.255442,-0.176531 1.794035,0.498675 z m -1.345526,-0.818824 0.249501,-0.173538 1.811856,0.514632 -0.254452,0.167555 z M 5.4443374,13.737179 v 0.128658 l 0.061385,0.05785 5.8444736,2.043569 h 0.591081 l -0.01485,-0.160573 -0.57425,0.004 -5.8405131,-2.007665 z m 5.9108096,2.90528 0.526725,-0.03291 0.01188,-0.51164 -0.531676,0.02493 -6.1137765,-2.1074 v 0.493688 z m 5.359332,-2.071495 a 1.3326549,1.3424327 0 0 0 0.23762,0.24834 c 0.04752,0.04189 0.09307,0.07879 0.137622,0.114695 l 0.253462,-0.213433 a 1.4544354,1.4651067 0 0 1 -0.198017,-0.160573 l -0.521775,-0.126664 c 0.03267,0.04688 0.06139,0.09275 0.09109,0.137635 z"/>

</svg>