<svg xmlns="http://www.w3.org/2000/svg" viewBox="0 0 24 24"><path fill="#44739e" d="M17.157 12.019v-.568l-1.752 1.269.212-.002.262.066.176.081Zm.708 2.493.053.938.746.216 2.331-2.491v-.856l-2.393 2.284-.019-.006-.963-.286.066.139.178.035Zm-.858-1.028.116.116.192.231 1.214.385 2.431-2.222-2.726-.737-.696-.036-.21.155.802.018 2.142.621-.048.042-2.054 1.774-1.255-.433ZM5.899 11.238l-.181-.106-.036.256Zm-.156-.245.212.121.404-.211-.678-.411.032.137.019.144Zm-.881-1.916.004.003.1.09.124.129.129.164.151.266 1.62-.703 1.703.709.913-.462-1.512-.681-1.229-.336Zm3.354-.766-1.402-.372-2.304.951.146.103 2.203-.914 1.28.343 1.66.736.166-.075Zm7.106 6.91.079.073.849.8v-.011l.049.045a1.58 1.58 0 0 0-.1-1.154l-.042.012-.006-.014-.838.237Zm-.726-1.328-.014-.032c-.4.1-.606.369-.631.9l1.122.335v-.008l-.468-1.206Zm-.514 1.434v.009h-.052a1.65 1.65 0 0 0 .592.942l.019-.042.315-.717.112-.249v-.011Zm1.155.046-.125 1.23-.005.048c.264.118.82.057.94-.136l-.529-.738Zm-.078-1.489v.029l.109 1.183v-.005.011l.657-.572a1.5 1.5 0 0 0-.766-.646m1.774-.263c-.809-.812-1.823-1.165-2.7-.431l-.561.47a1.18 1.18 0 0 0-.347.892 3.1 3.1 0 0 0 .555 1.843 1.8 1.8 0 0 0 .313.334 2.05 2.05 0 0 0 1.634.677 1.4 1.4 0 0 0 .257-.055 1.5 1.5 0 0 0 .506-.256l.259-.2a5 5 0 0 0 .417-.383c.236-.293.559-.32.393-1.589a2.53 2.53 0 0 0-.726-1.302m-1.323 3.24c-.848.136-1.963-.985-1.79-2.317a.983.983 0 0 1 .982-.86c.738-.036 1.665.955 1.711 1.994a1.04 1.04 0 0 1-.903 1.181ZM4.337 11.629a1.4 1.4 0 0 0-.078-.952l-.668.2Zm-.87-1.855.086 1 .5-.471a1.16 1.16 0 0 0-.586-.529m-.918.728.854.275-.374-1.022c-.304.078-.461.304-.48.747m.512 1.249.342-.829-.793.052a1.38 1.38 0 0 0 .451.777m.37.306c.2.1.625.047.716-.112l-.616-.932Zm.082-3.275s-.915.378-.986.445A1.74 1.74 0 0 0 2 10.433a2.66 2.66 0 0 0 .59 1.613 1.7 1.7 0 0 0 1.464.671.6.6 0 0 0 .283-.083l.754-.439a.5.5 0 0 0 .15-.13 2.05 2.05 0 0 0 .312-1.469 1.973 1.973 0 0 0-2.04-1.814m.766 3.2a.8.8 0 0 1-.468.244c-.646.112-1.494-.813-1.363-1.912a.84.84 0 0 1 .244-.5.77.77 0 0 1 .5-.211c.561-.03 1.268.788 1.3 1.645a1.02 1.02 0 0 1-.21.736Zm10.903.674 2.129-1.521v-.122l-2.322 1.672Zm-.354-.035 2.461-1.77-.088-.2-6.127-1.706h-.414l-.413.208a1.62 1.62 0 0 0 .229-1.132 1.574 1.574 0 0 0-1.637-1.429s-.734.3-.791.351a1.36 1.36 0 0 0-.423.952 2 2 0 0 0 .014.193l.351.093a1.5 1.5 0 0 1 0-.378.66.66 0 0 1 .2-.394.62.62 0 0 1 .423-.188c.45-.023 1.017.622 1.045 1.3a1 1 0 0 1-.043.339l.515.228-.336.151-.012-.011-.3-.132-.026.023-.009.008.341.154-.143.048-.7.352a1.4 1.4 0 0 0 .216.019l-3.318 1.676.073.093 6.615 2.259h.781l1.37-1.107Zm.135-.72-2.081-.589.237-.169 2.087.589Zm.423-.327-2.06-.583.263-.187 2.06.582Zm-4.63-2.437 5.8 1.6-.245.179-5.829-1.627Zm-.544.29 5.894 1.611-.254.181-2.047-.568.123-.087-2.362-.651-.133.079-1.5-.416Zm2.038 1.523-1.268.771c.016.031.124.043.28.05l-.638.128.021-.35c.091.076.121.1.179.106l.813-.634-.594-.215.882-.6.464.118-.779.407ZM9.665 9.697l1.537.435-.3.176-1.552-.439Zm-.6.3 1.6.451-.266.158-1.632-.462Zm-.586.292 1.645.478-.33.2-1.68-.485Zm-.644.328 1.715.491-.307.182-1.733-.51Zm4.966 2.793-6.337-2.089.311-.144 6.346 2.027Zm.517-.383-6.324-1.97.295-.144 1.723.515-.179.106 2.567.821.211-.15 2.034.608Zm.551-.375-2.041-.6.291-.207 2.052.588Zm-1.538-.958.285-.2 2.071.6-.29.2Zm-6.457.044 6.681 2.392h.676l-.017-.188-.656.004-6.676-2.349-.077-.078v.151Zm7.303 2.544-.607.03-6.989-2.467v.578l6.981 2.496.601-.037Zm5.511-1.787a1.6 1.6 0 0 0 .271.291q.081.072.158.135l.289-.25a2 2 0 0 1-.222-.188l-.6-.149Zm3.272-1.28a2.2 2.2 0 0 0-.627-1.131c-.7-.706-1.578-1.013-2.34-.374-.051.043-.47.394-.485.408a1.03 1.03 0 0 0-.3.775c0 .105 0 .2.013.295h.025l.386.1a2 2 0 0 1 .008-.407.85.85 0 0 1 .849-.747c.64-.032 1.443.83 1.483 1.733v.053l.131.035-.139.128a1 1 0 0 1-.044.209l.148-.141v.924l.194-.15a5 5 0 0 0 .361-.333c.202-.25.481-.271.337-1.377m-2.493 1.267.41-.36-1.771-.527h-.817v.342Z"/></svg>