<svg xmlns="http://www.w3.org/2000/svg" viewBox="0 0 24 24"><path fill="#44739e" d="M15.977 14.031h-.061a.114.113 90 0 0-.115.115v.879h.291v-.879a.115.114 90 0 0-.115-.115m-.885-.583a.115.114 90 0 0-.113-.115h-.061a.114.113 90 0 0-.114.115v.879h.291Zm-2.678-2.019h-.06a.115.114 90 0 0-.116.115v.879h.291v-.879a.114.113 90 0 0-.115-.115m-.884-.582a.114.113 90 0 0-.114-.116h-.062a.115.114 90 0 0-.114.116v.878h.291ZM9.113 8.948h-.062a.116.115 90 0 0-.114.115v.88h.291v-.88a.115.114 90 0 0-.115-.115m-.885-.582a.115.114 90 0 0-.114-.115h-.061a.116.115 90 0 0-.115.115v.88h.29ZM3.073 6.093c-.017-.186-.406-.279-.611-.642a.354.352 90 0 1-.022-.259c.049-.19.273-.286.374-.317.585-.182 1.145-.385 1.736-.547a5.123 5.099 90 0 0 1.8-.744c.428-.319.949-1.302.855-1.457-.054-.088-.427-.009-.448.167a1.192 1.186 90 0 1-.551.866 3.984 3.965 90 0 1-1.746.802 10.108 10.06 90 0 0-1.98.635.853.849 90 0 0-.478.635.613.611 90 0 0 .07.333 1.512 1.505 90 0 0 .768.739ZM4.805 7.53l.443.336a.125.124 90 0 0 .14.006l1.313-.814a.12.12 0 0 0 0-.2l-.435-.301a.127.126 90 0 0-.134 0l-.047.027.365.255.079.243-1.157.714-.508-.378c-.058-.044.025-.079.088-.116l.239-.184-.376.224a.119.118 90 0 0-.01.188m.709-2.604L3.109 6.485a.465.463 90 0 0-.031.759L18.783 19.45a.463.461 90 0 0 .598-.027l2.281-2.128a.466.464 90 0 0-.04-.714L6.042 4.943a.463.461 90 0 0-.527-.017m14.054 10.952.938.721-.299.287-.95-.741Zm-.555.473.939.722-.299.286-.949-.741Zm-.625.535.939.722-.3.285-.95-.739Zm-.625.556.939.722-.3.286-.95-.74Zm-3.682-3.553a1.257 1.251 90 0 1 1.558-.801 1.257 1.251 90 0 1 1.082 1.385.944.939 90 0 1-.111.279.907.902 90 0 0-.439-.581v.936h-.445v-.957a.193.192 90 0 1 .09-.163 2.322 2.311 90 0 0-.35-.107 2.249 2.238 90 0 0-.293-.045v.574h-.445v-.563a.923.919 90 0 0-.662.348.953.948 90 0 1 .015-.305m-3.517-2.632a1.256 1.25 90 0 1 1.558-.801 1.256 1.25 90 0 1 1.082 1.384.933.929 90 0 1-.111.279.946.942 90 0 0-.493-.615.161.16 90 0 1 .006.044v.957h-.445v-.957a.193.192 90 0 1 .15-.188 2.352 2.341 90 0 0-.703-.161v.609h-.445v-.591a.894.89 90 0 0-.614.341.951.946 90 0 1 .016-.301M8.889 7.985A1.255 1.249 90 0 1 9.97 9.37a.915.911 90 0 1-.11.28 1.002.997 90 0 0-.565-.661.2.199 90 0 1 .01.074v.957h-.444v-.957a.191.19 90 0 1 .173-.192 2.316 2.305 90 0 0-.726-.146v.601h-.445v-.564a.847.843 90 0 0-.548.327.923.919 90 0 1 .016-.301 1.257 1.251 90 0 1 1.558-.803M6.557 6.162l.675.48a.193.192 90 0 1-.008.32L5.19 8.261a.193.192 90 0 1-.221-.009l-.688-.533a.193.192 90 0 1 .017-.318l2.048-1.245a.2.199 90 0 1 .211.006m12.899 13.357a.55.547 90 0 1-.707.032L2.75 7.116l-.006 2.105 16.172 12.688 2.709-2.606.375-2.154Z"/></svg>