<?xml version="1.0" encoding="UTF-8"?>
<svg width="24px" fill="#44739e" height="24px" viewBox="0 0 24 24" version="1.1" xmlns="http://www.w3.org/2000/svg" xmlns:xlink="http://www.w3.org/1999/xlink">
            <path d="m 11.112,12.534 a 1.24,1.24 0 0 0 0,-1.458 0.8,0.8 0 0 0 -1.307,0 1.244,1.244 0 0 0 0,1.458 0.8,0.8 0 0 0 1.307,0 z m -0.974,-0.729 c 0,-0.295 0.169,-0.5 0.321,-0.5 0.152,0 0.32,0.206 0.32,0.5 0,0.294 -0.169,0.5 -0.32,0.5 -0.151,0 -0.321,-0.205 -0.321,-0.5 z m 1.83,1.84 a 3.16,3.16 0 0 0 0,-3.68 1.822,1.822 0 0 0 -3.018,0 3.16,3.16 0 0 0 0,3.68 1.822,1.822 0 0 0 3.018,0 z M 9.4,13.3 a 2.591,2.591 0 0 1 0,-2.985 1.256,1.256 0 0 1 2.116,0 2.591,2.591 0 0 1 0,2.985 1.255,1.255 0 0 1 -2.116,0 z m 3.308,1.305 a 4.591,4.591 0 0 0 0.9,-2.8 4.6,4.6 0 0 0 -0.9,-2.8 2.84,2.84 0 0 0 -2.249,-1.2 A 2.839,2.839 0 0 0 8.21,9 a 4.6,4.6 0 0 0 -0.9,2.8 4.591,4.591 0 0 0 0.9,2.8 2.839,2.839 0 0 0 2.249,1.2 2.84,2.84 0 0 0 2.249,-1.195 z m -4.826,-2.8 c 0,-1.892 1.156,-3.43 2.577,-3.43 1.421,0 2.577,1.538 2.577,3.43 0,1.892 -1.156,3.43 -2.577,3.43 -1.421,0 -2.577,-1.535 -2.577,-3.43 z m 4.285,4.911 a 4.407,4.407 0 0 0 1.376,-1.158 6.006,6.006 0 0 0 1.247,-3.753 6.011,6.011 0 0 0 -1.247,-3.754 4.4,4.4 0 0 0 -1.376,-1.157 3.607,3.607 0 0 0 -3.416,0 4.392,4.392 0 0 0 -1.376,1.157 6.011,6.011 0 0 0 -1.247,3.754 6.006,6.006 0 0 0 1.247,3.753 4.4,4.4 0 0 0 1.376,1.158 3.607,3.607 0 0 0 3.416,0 z M 6.7,11.805 c 0,-2.631 1.688,-4.772 3.762,-4.772 2.074,0 3.762,2.141 3.762,4.772 0,2.631 -1.688,4.772 -3.762,4.772 -2.074,0 -3.762,-2.141 -3.762,-4.772 z m 4.178,8.481 c 1.926,0.1 4.885,0.439 7.722,0.879 a 0.641,0.641 0 0 0 0.449,-0.058 0.108,0.108 0 0 0 0.033,-0.095 C 18.932,19.472 18.669,16.285 18.6,12.238 A 52.754,52.754 0 0 1 19.057,4.744 C 19.22,3.381 19.337,2.396 19.1,2.297 A 3.813,3.813 0 0 0 17.932,2.449 36.209,36.209 0 0 1 11.461,3.184 C 7.679,3.284 4.915,3.135 4.213,3.091 L 4.066,3.081 C 4,3.192 3.7,4.116 3.621,11.8 a 32.283,32.283 0 0 0 0.539,6.32 c 0.148,0.777 0.3,1.376 0.41,1.77 0.072,0.257 0.127,0.427 0.152,0.5 a 15.346,15.346 0 0 1 2.915,-0.2 c 0.839,-0.003 1.894,0.025 3.241,0.096 z m 7.345,-2.422 a 0.236,0.236 0 1 1 -0.231,-0.284 0.262,0.262 0 0 1 0.231,0.284 z m -0.138,-1 a 0.236,0.236 0 1 1 -0.231,-0.284 0.262,0.262 0 0 1 0.231,0.281 z m -0.324,-1.343 a 0.291,0.291 0 1 1 -0.23,0.285 0.262,0.262 0 0 1 0.23,-0.288 z M 5.451,11.879 c 0,-3.33 2.246,-6.039 5.008,-6.039 2.762,0 5.008,2.709 5.008,6.039 0,3.33 -2.247,6.039 -5.008,6.039 -2.761,0 -5.008,-2.709 -5.008,-6.039 z M 11.536,2.794 A 36.252,36.252 0 0 0 17.989,2.06 L 18.3,2 4.681,2.61 a 0.526,0.526 0 0 0 -0.28,0.1 c 0.838,0.046 3.521,0.179 7.135,0.084 z m 8.757,0.341 a 0.525,0.525 0 0 0 -0.55,-0.523 l -0.209,0.009 c 0.236,0.216 0.14,1.024 -0.039,2.521 a 52.745,52.745 0 0 0 -0.456,7.479 c 0.069,4.044 0.331,7.228 0.481,8.766 a 0.221,0.221 0 0 1 -0.066,0.186 0.535,0.535 0 0 1 -0.355,0.1 1.307,1.307 0 0 1 -0.187,-0.014 C 16.078,21.22 13.123,20.884 11.2,20.782 a 26.308,26.308 0 0 0 -6.145,0.1 0.527,0.527 0 0 0 0.342,0.158 L 19.333,22 a 0.981,0.981 0 0 0 1.047,-0.983 z"/>

</svg>