<svg xmlns="http://www.w3.org/2000/svg" viewBox="0 0 24 24"><path fill="#44739e" d="M11.113 12.533a1.24 1.24 0 0 0 0-1.458.8.8 0 0 0-1.307 0 1.24 1.24 0 0 0 0 1.458.8.8 0 0 0 1.307 0m-.974-.729c0-.295.169-.5.321-.5s.32.206.32.5-.169.5-.32.5-.321-.205-.321-.5m1.83 1.84a3.16 3.16 0 0 0 0-3.68 1.822 1.822 0 0 0-3.018 0 3.16 3.16 0 0 0 0 3.68 1.822 1.822 0 0 0 3.018 0m-2.568-.345a2.59 2.59 0 0 1 0-2.985 1.256 1.256 0 0 1 2.116 0 2.59 2.59 0 0 1 0 2.985 1.255 1.255 0 0 1-2.116 0m3.308 1.305a4.6 4.6 0 0 0 .9-2.8 4.6 4.6 0 0 0-.9-2.8 2.84 2.84 0 0 0-2.249-1.2 2.84 2.84 0 0 0-2.249 1.195 4.6 4.6 0 0 0-.9 2.8 4.6 4.6 0 0 0 .9 2.8 2.84 2.84 0 0 0 2.249 1.199 2.84 2.84 0 0 0 2.249-1.194m-4.826-2.8c0-1.892 1.156-3.43 2.577-3.43s2.577 1.538 2.577 3.43-1.156 3.429-2.577 3.429-2.577-1.534-2.577-3.429m4.285 4.91a4.4 4.4 0 0 0 1.376-1.158 6 6 0 0 0 1.247-3.752 6 6 0 0 0-1.247-3.754 4.4 4.4 0 0 0-1.376-1.157 3.6 3.6 0 0 0-3.416 0A4.4 4.4 0 0 0 7.376 8.05a6 6 0 0 0-1.246 3.754 6 6 0 0 0 1.246 3.752 4.4 4.4 0 0 0 1.376 1.158 3.6 3.6 0 0 0 3.416 0m-5.466-4.91c0-2.631 1.687-4.772 3.761-4.772s3.762 2.141 3.762 4.772-1.688 4.771-3.762 4.771-3.761-2.14-3.761-4.771m4.177 8.48c1.926.1 4.884.439 7.721.879a.64.64 0 0 0 .449-.058.11.11 0 0 0 .033-.095c-.15-1.54-.413-4.727-.482-8.773a53 53 0 0 1 .457-7.493c.163-1.363.28-2.348.043-2.447a3.8 3.8 0 0 0-1.168.152 36 36 0 0 1-6.47.735c-3.782.1-6.545-.049-7.247-.093l-.147-.01c-.066.111-.366 1.035-.445 8.718a32.3 32.3 0 0 0 .539 6.319c.148.777.3 1.376.41 1.77.072.257.127.427.152.5a15.4 15.4 0 0 1 2.914-.2c.839-.003 1.894.025 3.241.096m7.344-2.422a.236.236 0 1 1-.231-.284.26.26 0 0 1 .231.284m-.138-1a.236.236 0 1 1-.231-.284.26.26 0 0 1 .231.281Zm-.324-1.343a.291.291 0 1 1-.23.285.26.26 0 0 1 .23-.288ZM5.453 11.878c0-3.33 2.245-6.038 5.007-6.038s5.008 2.708 5.008 6.038-2.247 6.038-5.008 6.038-5.007-2.709-5.007-6.038m6.084-9.084a36.3 36.3 0 0 0 6.452-.734L18.3 2l-13.617.61a.53.53 0 0 0-.28.1c.838.046 3.52.179 7.134.084m8.756.341a.525.525 0 0 0-.55-.523l-.209.009c.236.216.14 1.024-.039 2.521a53 53 0 0 0-.456 7.478c.069 4.043.331 7.227.481 8.765a.22.22 0 0 1-.066.186.54.54 0 0 1-.355.1 1.3 1.3 0 0 1-.187-.014c-2.834-.439-5.788-.775-7.711-.877a26.3 26.3 0 0 0-6.144.1.53.53 0 0 0 .342.158l13.934.96a.98.98 0 0 0 1.047-.983Z"/></svg>