<?xml version="1.0" encoding="UTF-8"?>
<svg width="24px" fill="#44739e" height="24px" viewBox="0 0 24 24" version="1.1" xmlns="http://www.w3.org/2000/svg" xmlns:xlink="http://www.w3.org/1999/xlink">
            <path d="M 7.192,12.209 C 6.646,12.724 5.459,13.877 4.819,14.5 H 2 c 0,0 2.259,-2.252 3.514,-3.488 C 6.808,9.781 7.452,9.5 9.825,9.5 h 8.636 l -1.87,1.87 H 10 c -1.667,0 -2.041,0.115 -2.808,0.839 z m 9.091,-0.532 H 10.23 c -1.844,0 -2.167,0.1 -2.957,0.888 -0.739,0.739 -1.94,1.935 -1.94,1.935 h 2.622 l 0.626,-0.626 c 0.411,-0.411 0.623,-0.453 1.487,-0.453 H 14.54 Z M 17,14.5 l 5,-5 h -3.009 l -5,5 z"/>

</svg>