<svg xmlns="http://www.w3.org/2000/svg" viewBox="0 0 24 24"><path fill="#44739e" d="M11.994 9.641c-2.103 0-3.155 2.541-1.668 4.028s4.028.435 4.028-1.668a2.355 2.355 0 0 0-2.36-2.36m0 4.54c-1.948 0-2.922-2.357-1.543-3.733s3.733-.396 3.729 1.553a2.185 2.185 0 0 1-2.186 2.184Zm6.995 1.893-.325-.883q-.739-.092-1.325-.205l-.616.64-.317-.855a4.5 4.5 0 0 1-2.052-1.09c1.642-.116 3.662-.896 7.395-3.891a10.1 10.1 0 0 0-1.879-3.433q-.41.493-.791.929l.171.962-.827-.233q-.421.455-.808.834l.156.874-.847-.237a5.23 5.23 0 0 1-2.341 1.326c.718-1.539 1.091-3.332.352-8.247A8 8 0 0 0 11.994 2a7.8 7.8 0 0 0-1.653.192q.257.505.478.959l1.383.343-.844.831q.267.613.454 1.129l.968.24-.673.663a5 5 0 0 1 .129 2.746c-.88-1.475-2.933-3.032-6.361-4.56a12.5 12.5 0 0 0-3.15 4.026q.758.048 1.408.102l.843-.894.274 1.011q.683.083 1.238.184l.745-.789.275 1.017a4.6 4.6 0 0 1 2.145 1.115c-1.642.115-3.663.892-7.402 3.889a10.1 10.1 0 0 0 1.87 3.433q.479-.577.923-1.078l-.343-.934.99.221q.493-.526.941-.948l-.292-.797.955.212a4.9 4.9 0 0 1 2.115-1.139c-.718 1.547-1.095 3.337-.35 8.261a8 8 0 0 0 2.934.565 7.8 7.8 0 0 0 1.652-.192 46 46 0 0 1-.577-1.167l-1.042-.221.591-.764a19 19 0 0 1-.592-1.528l-.74-.156.505-.655a4.8 4.8 0 0 1-.045-2.433c.875 1.479 2.926 3.043 6.367 4.58a12.5 12.5 0 0 0 3.164-4.042 54 54 0 0 1-1.546-.116Zm-6.961-1.437a2.634 2.634 0 1 1 2.634-2.636 2.633 2.633 0 0 1-2.634 2.632Zm-.034-3.662a1.026 1.026 0 1 0 1.026 1.026 1.026 1.026 0 0 0-1.026-1.026"/></svg>