<svg xmlns="http://www.w3.org/2000/svg" viewBox="0 0 24 24"><path fill="#44739e" d="M12.89 5.64a.184.184 0 0 1-.166-.238 23 23 0 0 1 1.292-3.065.264.264 0 0 1 .288-.144 19.95 19.95 0 0 1 7.499 2.415.36.36 0 0 1 .195.363 20.1 20.1 0 0 1-8.721 16.365.185.185 0 0 1-.283-.086 24 24 0 0 1-.946-3.181.29.29 0 0 1 .107-.328 16.5 16.5 0 0 0 6.152-10.875 16.5 16.5 0 0 0-5.422-1.226ZM6.301 9.697A13.6 13.6 0 0 1 10.4 8.545c.149-.023.212.081.194.2a26 26 0 0 0-.337 3.209.23.23 0 0 1-.216.228 10.3 10.3 0 0 0-2.329.759 16.6 16.6 0 0 0 2.617 3.442.76.76 0 0 1 .211.44 25 25 0 0 0 1.3 4.883.17.17 0 0 1-.013.2.19.19 0 0 1-.225 0 20.1 20.1 0 0 1-9.6-16.935.38.38 0 0 1 .193-.367 20.16 20.16 0 0 1 10.283-2.541.177.177 0 0 1 .151.274 22 22 0 0 0-1.224 3.099.24.24 0 0 1-.247.189 16.6 16.6 0 0 0-5.467 1.236 17 17 0 0 0 .61 2.832v.01Z"/></svg>