<svg xmlns="http://www.w3.org/2000/svg" fill="#44739e" width="24" height="24" viewBox="0 0 24 24">
  <path id="Colore_riempimento_1" data-name="Colore riempimento 1" class="cls-1" d="m 13.324,8.637 a 6.873,6.873 0 0 1 0,3.883 c -0.02,0.078 0,0.08 0,0.081 h 1.441 a 5.126,5.126 0 0 0 0.4,-2.051 6.207,6.207 0 0 0 -0.4,-1.913 z M 12.31,12.6 a 5.126,5.126 0 0 0 0.4,-2.051 6.207,6.207 0 0 0 -0.4,-1.913 h -1.441 a 6.873,6.873 0 0 1 0,3.883 c -0.02,0.078 0,0.08 0,0.081 z m -2.492,0 a 5.125,5.125 0 0 0 0.4,-2.051 6.234,6.234 0 0 0 -0.4,-1.913 H 8.376 a 6.873,6.873 0 0 1 0,3.883 c -0.02,0.078 0,0.08 0,0.081 z m -0.101,0.493 h -1.48 a 3.477,3.477 0 0 1 -1.931,2.5 c -0.046,0.029 0.014,0.039 0.073,0.036 a 3.437,3.437 0 0 0 3.338,-2.536 z m 2.483,0 h -1.486 a 3.479,3.479 0 0 1 -1.93,2.5 c -0.047,0.029 0.013,0.039 0.073,0.036 A 3.438,3.438 0 0 0 12.2,13.093 Z m -0.915,2.496 c -0.047,0.029 0.014,0.039 0.073,0.036 A 3.437,3.437 0 0 0 14.7,13.093 h -1.485 a 3.476,3.476 0 0 1 -1.93,2.496 z M 19.387,2.18 H 4.613 A 2.613,2.613 0 0 0 2,4.793 V 19.207 A 2.613,2.613 0 0 0 4.613,21.82 H 19.387 A 2.613,2.613 0 0 0 22,19.207 V 4.793 A 2.613,2.613 0 0 0 19.387,2.18 Z m -1.323,17.032 a 1.226,1.226 0 0 1 -1.226,1.226 H 4.76 A 1.226,1.226 0 0 1 3.533,19.212 V 4.881 A 1.226,1.226 0 0 1 4.76,3.655 h 12.078 a 1.226,1.226 0 0 1 1.226,1.226 z m 3.02,-3.576 h -1.757 v -1.757 h 1.757 z m 0,-2.758 h -1.757 v -1.756 h 1.757 z m 0,-2.757 H 19.327 V 8.364 h 1.757 z"/>
</svg>
