<?xml version="1.0" encoding="UTF-8" standalone="no"?>
<svg
   width="24"
   height="24"
   version="1.1"
   viewBox="0 0 24 24"
   xmlns="http://www.w3.org/2000/svg"
   xmlns:svg="http://www.w3.org/2000/svg">
  <path
     style="fill:#44739e"
     d="M 12,2 C 6.4643017,2 2,6.4643017 2,12 2,17.535698 6.4643017,22 12,22 17.535698,22 22,17.535698 22,12 22,6.4643017 17.535698,2 12,2 Z m 0,1.6428575 c 4.607129,0 8.357143,3.7500133 8.357143,8.3571425 0,4.607129 -3.750014,8.357143 -8.357143,8.357143 C 7.3928708,20.357143 3.6428575,16.607129 3.6428575,12 3.6428575,7.3928708 7.3928708,3.6428575 12,3.6428575 Z M 10.392858,7.035505 v 2.092e-4 h 4.035714 V 7.0355 Z m 4.035714,2.092e-4 V 10.535505 H 10.392858 V 7.0357142 H 7.75 c -0.1785717,0 -0.2857142,0.1071433 -0.2857142,0.2857141 v 9.3571437 c 0,0.178571 0.1071425,0.285714 0.2857142,0.285714 h 8.5 c 0.178572,0 0.285714,-0.107143 0.285714,-0.285714 V 7.8928575 L 15.178572,7.0357142 Z M 13.071428,7.535505 c -0.107142,0 -0.214285,0.071425 -0.214285,0.1785717 v 1.4285708 c 0,0.1071433 0.107143,0.2142858 0.214285,0.2142858 h 0.357144 c 0.107142,0 0.214286,-0.1071425 0.214286,-0.2142858 V 7.7140767 c 0,-0.1071434 -0.107144,-0.1785717 -0.214286,-0.1785717 z M 8.5714283,7.57143 c 0.3571409,0 0.6071434,0.2500025 0.6071434,0.6071433 0,0.3214259 -0.2500025,0.5714284 -0.6071434,0.5714284 -0.3214258,0 -0.6071425,-0.2500025 -0.6071425,-0.5714284 0,-0.3571408 0.2857167,-0.6071433 0.6071425,-0.6071433 z m 0.035717,4.892857 h 6.7499997 c 0.107143,0 0.178572,0.07142 0.178572,0.142857 V 16.75 H 8.4285742 v -4.142857 c 0,-0.07143 0.071425,-0.142857 0.1785708,-0.142857 z m 0.4285717,0.642857 c -0.071425,0 -0.1071425,0.07143 -0.1071425,0.107143 0,0.07143 0.035717,0.107143 0.1071425,0.107143 h 5.892857 c 0.07143,0 0.107143,-0.03572 0.107143,-0.107143 0,-0.03572 -0.03572,-0.107143 -0.107143,-0.107143 z m 0,1.214286 c -0.071425,0 -0.1071425,0.03572 -0.1071425,0.107143 0,0.03572 0.035717,0.07142 0.1071425,0.07142 h 5.892857 c 0.07143,0 0.107143,-0.03572 0.107143,-0.07142 0,-0.07143 -0.03572,-0.107143 -0.107143,-0.107143 z m 0,1.178572 c -0.071425,0 -0.1071425,0.03572 -0.1071425,0.107142 0,0.03572 0.035717,0.107143 0.1071425,0.107143 h 5.892857 c 0.07143,0 0.107143,-0.07142 0.107143,-0.107143 C 15.035714,15.535714 15,15.5 14.928572,15.5 Z m -1.1071425,0.857142 c 0.1071425,0 0.1785708,0.07142 0.1785708,0.178572 0,0.07142 -0.071425,0.142857 -0.1785708,0.142857 -0.1071434,0 -0.1785717,-0.07143 -0.1785717,-0.142857 0,-0.107143 0.071425,-0.178572 0.1785717,-0.178572 z m 8.1071425,0 c 0.107143,0 0.178571,0.07142 0.178571,0.178572 0,0.07142 -0.07142,0.142857 -0.178571,0.142857 -0.107143,0 -0.178572,-0.07143 -0.178572,-0.142857 0,-0.107143 0.07143,-0.178572 0.178572,-0.178572 z"/>
</svg>
