<svg xmlns="http://www.w3.org/2000/svg" viewBox="0 0 24 24"><path fill="#44739e" d="M13.841 5.886c.806 0 1.228-.2 1.228-.31s-.422-.309-1.228-.309-1.227.2-1.227.309.422.31 1.227.31m-3.735-1.915c.806 0 1.228-.2 1.228-.309s-.422-.31-1.228-.31-1.227.2-1.227.31.421.309 1.227.309m5.043.39c.805 0 1.227-.2 1.227-.31s-.422-.309-1.227-.309-1.228.2-1.228.309.422.31 1.228.31M8.114 5.512c.806 0 1.228-.2 1.228-.31s-.422-.309-1.228-.309-1.227.2-1.227.309.421.31 1.227.31M2.2 4.442l5.559 2.7a2.84 2.84 0 0 0 1.716.246l12.3-2.065a.22.22 0 0 0 .192-.2.216.216 0 0 0-.149-.229l-6.111-2.129a4.65 4.65 0 0 0-2.914-.3L2.29 3.892a.29.29 0 0 0-.255.246.284.284 0 0 0 .165.304m12.95-.86c.689 0 1.387.161 1.387.469s-.7.47-1.387.47-1.388-.162-1.388-.47.697-.469 1.387-.469Zm-1.309 1.525c.69 0 1.388.161 1.388.469s-.7.47-1.388.47-1.387-.161-1.387-.47.698-.469 1.387-.469m-3.735-1.915c.69 0 1.388.161 1.388.47s-.7.469-1.388.469-1.387-.161-1.387-.469.698-.47 1.387-.47M8.114 4.733c.69 0 1.387.161 1.387.469s-.7.47-1.387.47-1.387-.161-1.387-.472.698-.467 1.387-.467m1.917 15.558a2.23 2.23 0 0 1-1.694-.073h-.006l-5.987-4.595v.918l5.863 4.78a2.2 2.2 0 0 0 1.761.237l10.988-2.88a.84.84 0 0 0 .567-.5l.006-.73-11.166 2.77q-.172.04-.332.073M21.947 5.5 9.907 7.553a3.36 3.36 0 0 1-2.241-.264l-.477-.246-5.06-2.457A.5.5 0 0 1 2 4.494v.462l5.661 3.026a3.24 3.24 0 0 0 2.152.364l12.13-2.085.057-.4a3 3 0 0 0-.053-.361M7.7 8.272 2.14 5.265l.36 10.183 5.55 4.215A1.88 1.88 0 0 0 9.635 20l11.739-2.824.347-10.686-12.2 2.08A2.8 2.8 0 0 1 7.7 8.272"/></svg>