<svg role="img" viewBox="0 0 24 24" xmlns="http://www.w3.org/2000/svg"><title>3sat</title>
    <path
     d="m 14.90582,1.1488565 c -1.864674,1.2927571 -3.07637,3.465153 -3.274667,5.71694 1.432759,-0.16529 2.893352,0.360521 3.873569,1.423157 0.298357,0.312656 1.76303,1.679155 0.581152,0.968719 -0.429053,-0.263685 -1.908141,-0.461754 -1.770629,-0.183917 2.480729,1.3115835 2.857861,5.0503375 0.912467,6.9838065 -1.922552,1.96992 -5.5204161,1.676387 -7.1683744,-0.506548 -0.4927,-0.694171 -1.104057,-1.641446 -0.790278,-2.501746 0.703887,-1.281066 2.2719563,-1.54507 3.5958754,-1.608804 0.54521,-0.299974 1.780165,-1.28567 0.512,-1.4992125 C 10.363477,9.4911605 9.4440099,8.8628595 8.6926449,8.0454875 7.7393696,7.5019825 8.4989419,5.5546135 8.1614619,5.2545035 7.2008816,5.5782955 6.3237176,6.7925925 5.6528102,7.0464135 5.0644016,6.3859515 5.6097452,4.8068865 5.1818305,4.5514575 2.7256471,6.1767585 1.3335331,9.0901545 1.2281951,11.995458 c -0.0075,-0.421303 0.236748,-1.711478 0.04388,-0.633541 -0.43947702,3.838525 1.492698,7.804724 4.7046775,9.9293 3.6271193,2.513925 8.8034454,2.431467 12.3420824,-0.208382 3.097192,-2.193718 4.885504,-6.118192 4.388783,-9.898107 -0.248626,-2.1008205 -1.035628,-4.3633555 -2.879542,-5.5755595 0.530859,1.03467 0.877037,2.155449 1.095813,3.295185 C 20.058,6.0046745 17.022738,3.7599256 15.848053,1.7232015 15.547602,1.2900205 15.524149,0.44493152 14.90582,1.1488565 Z m 0.355951,0.06833 c 0.446183,1.8323651 4.065978,4.605407 5.286413,7.45921 0.530492,1.302233 0.188291,2.6711505 -0.387369,3.8974695 -0.365864,0.772896 -1.346024,2.118809 -1.759109,2.228316 0.527114,-1.83679 0.0054,-4.062779 -1.390782,-5.2434495 -0.365076,-1.087008 -1.605472,-1.815641 -2.258162,-2.931396 -0.907736,-1.745089 -0.703692,-3.8818769 0.509009,-5.41015 z"
     fill="#44739e" />
</svg>
