<svg xmlns="http://www.w3.org/2000/svg" viewBox="0 0 24 24"><path fill="#44739e" d="M14.613 2.243c-1.677 1.163-2.767 3.116-2.945 5.141a4.12 4.12 0 0 1 3.484 1.279c.268.282 1.585 1.511.521.872-.385-.238-1.715-.416-1.591-.166 2.23 1.179 2.569 4.541.821 6.28-1.73 1.772-4.964 1.507-6.447-.456-.442-.624-.992-1.475-.71-2.249.633-1.151 2.043-1.39 3.233-1.447.49-.27 1.601-1.156.461-1.348a7.2 7.2 0 0 1-2.414-1.705c-.857-.488-.174-2.239-.478-2.509-.863.291-1.652 1.383-2.255 1.611-.53-.594-.039-2.014-.424-2.244-2.208 1.462-3.46 4.083-3.555 6.694-.006-.378.213-1.539.04-.569-.396 3.451 1.342 7.018 4.23 8.928 3.262 2.26 7.916 2.185 11.098-.188 2.785-1.972 4.392-5.501 3.946-8.9-.223-1.889-.931-3.924-2.589-5.013.476.93.788 1.938.985 2.962-.778-2.607-3.507-4.625-4.564-6.456-.27-.39-.291-1.151-.847-.517m.32.061c.401 1.649 3.656 4.142 4.753 6.708.477 1.171.169 2.401-.348 3.504-.329.695-1.21 1.906-1.582 2.004.474-1.652.005-3.654-1.25-4.715-.328-.977-1.444-1.633-2.031-2.636a4.51 4.51 0 0 1 .458-4.865"/></svg>