<svg xmlns="http://www.w3.org/2000/svg" xmlns:xlink="http://www.w3.org/1999/xlink" aria-hidden="true" role="img" width="24" height="24" preserveAspectRatio="xMidYMid meet" viewBox="0 0 24 24"><path d="M20.196 15.12c.265.337-.294 1.73-.542 2.353c-.077.19.085.266.257.123c1.106-.926 1.39-2.867 1.166-3.149c-.226-.277-2.16-.516-3.341.314c-.183.127-.151.304.05.279c.665-.08 2.147-.257 2.41.08m-.858.981c-2.064 1.523-5.056 2.333-7.632 2.333c-3.611 0-6.862-1.334-9.322-3.555c-.194-.176-.02-.414.21-.28c2.655 1.545 5.939 2.477 9.328 2.477c2.287 0 4.803-.476 7.115-1.458c.348-.147.642.231.3.483m2.034-3.155a.388.388 0 0 1-.201-.04c-.041-.026-.087-.1-.133-.225l-1.734-4.355a1.79 1.79 0 0 0-.046-.117a.266.266 0 0 1-.023-.108c0-.084.049-.128.146-.128h.58c.098 0 .165.014.205.04c.04.026.082.102.127.226l1.344 3.823l1.343-3.823c.046-.124.089-.2.128-.226a.402.402 0 0 1 .205-.04h.54c.1 0 .148.044.148.128a.3.3 0 0 1-.025.108c-.016.04-.032.078-.044.117l-1.727 4.355c-.045.124-.09.199-.132.225a.388.388 0 0 1-.201.04zm-3.644.068c-.929 0-1.392-.463-1.392-1.392V8.739h-.706c-.13 0-.197-.066-.197-.196v-.246a.22.22 0 0 1 .045-.147c.03-.031.086-.055.171-.067l.717-.09l.127-1.215c.013-.13.082-.196.207-.196h.41c.13 0 .196.066.196.196v1.196h1.276c.13 0 .195.065.195.197v.372c0 .13-.064.196-.195.196h-1.276v2.834c0 .243.055.411.162.51c.108.098.293.147.555.147c.124 0 .277-.016.46-.049c.099-.02.164-.03.197-.03c.052 0 .088.014.108.044c.02.03.029.077.029.142v.266a.366.366 0 0 1-.04.19c-.026.043-.078.078-.157.103a3.018 3.018 0 0 1-.892.118m-4.665-2.976c.006-.052.011-.137.011-.255c0-.399-.094-.698-.28-.901c-.186-.204-.46-.306-.818-.306c-.412 0-.732.123-.962.369c-.228.245-.36.61-.392 1.093zm-.942 3.07c-.803 0-1.411-.222-1.824-.667c-.412-.444-.616-1.102-.616-1.972c0-.83.204-1.475.616-1.937c.413-.46.988-.691 1.728-.691c.62 0 1.098.176 1.432.524c.332.351.5.846.5 1.487c0 .21-.017.422-.05.638c-.014.077-.034.13-.064.156c-.029.027-.077.04-.142.04h-3.08c.013.563.154.977.418 1.245c.265.268.674.403 1.23.403c.196 0 .385-.014.564-.04a5.04 5.04 0 0 0 .682-.166l.117-.035a.284.284 0 0 1 .09-.016c.085 0 .125.06.125.177v.276c0 .085-.012.144-.037.18a.441.441 0 0 1-.167.114a3.38 3.38 0 0 1-.701.205a4.236 4.236 0 0 1-.82.079m-5.424-.147c-.13 0-.195-.066-.195-.197v-4.58c0-.13.064-.195.195-.195h.432c.064 0 .116.012.153.039c.036.025.06.076.072.146l.07.55c.176-.19.343-.34.499-.452a1.725 1.725 0 0 1 1.02-.323c.079 0 .158.003.235.01c.112.014.168.072.168.176v.53c0 .117-.058.177-.178.177c-.058 0-.114-.004-.17-.01a1.638 1.638 0 0 0-.18-.01c-.524 0-.973.157-1.346.47v3.472c0 .131-.066.197-.195.197zm-2.249 0c-.13 0-.196-.066-.196-.197v-4.58c0-.13.066-.195.196-.195h.579c.13 0 .195.064.195.195v4.58c0 .131-.065.197-.195.197zm.295-5.856c-.19 0-.339-.054-.447-.16a.581.581 0 0 1-.161-.428c0-.176.054-.318.16-.426c.11-.109.257-.163.448-.163c.189 0 .337.054.446.163c.107.108.16.25.16.426a.581.581 0 0 1-.16.427a.608.608 0 0 1-.446.161m-3.625 5.856c-.132 0-.197-.066-.197-.197v-4.01H.195c-.13 0-.195-.066-.195-.197v-.245c0-.065.014-.114.043-.147c.03-.033.088-.055.173-.07l.705-.087v-.804c0-1.091.523-1.638 1.57-1.638c.248 0 .51.036.784.109c.072.019.122.047.152.088c.029.038.044.107.044.205v.255c0 .124-.048.186-.148.186c-.058 0-.14-.01-.248-.029c-.11-.02-.23-.03-.369-.03c-.3 0-.51.057-.633.172c-.121.115-.181.303-.181.564v.903h1.324c.131 0 .197.064.197.195v.373c0 .13-.066.197-.197.197H1.892v4.01c0 .131-.065.197-.196.197z" fill="#44739e"/></svg>