<svg viewBox="0 0 24 24" height="24px" width="24px" fill="#44739e" xmlns="http://www.w3.org/2000/svg"><title>hue:floor-lantern-off</title><path d="M7.29,3.12C7.4,3.15,7.53,3.17,7.64,3.2l0.33,2.27l1.77,1.77L9.2,3.46c1.78,0.22,3.82,0.22,5.6,0l-0.91,6.27 c-0.54-0.19-1.23-0.28-1.92-0.27l2.49,2.48c0.43-0.19,0.64-0.42,0.72-0.61l1.18-8.13c0.12-0.03,0.25-0.05,0.36-0.08 c2.65-0.7,2.73-1.85,0.12-2.57c-2.66-0.73-7.02-0.73-9.67,0C4.55,1.27,4.63,2.42,7.29,3.12z M20.57,22.36l1.41-1.42L2.86,1.87L1.45,3.28l7.26,7.24l0.12,0.8c0.09,0.31,0.56,0.66,1.56,0.87l0.12,0.11v8.89 c-0.73,0.12-1.27,0.31-1.44,0.55C9.02,21.8,9,21.86,9,21.91v0.54c0,0.45,1.34,0.82,3,0.82s3-0.37,3-0.82v-0.54 c0-0.3-0.61-0.56-1.5-0.71v-5.9L20.57,22.36z"/></svg>