<svg viewBox="0 0 24 24" height="24px" width="24px" fill="#44739e" xmlns="http://www.w3.org/2000/svg"><path d="M20.97,3.59c-1.24-0.34-2.97-0.48-4.59-0.4c-0.39,0.49-1.11,0.89-2.14,1.19l-0.29,1.98l0.81,5.58 c0.07,0.25,0.45,0.54,1.3,0.7v6.95c-0.57,0.09-0.98,0.24-1.12,0.42c-0.03,0.04-0.05,0.08-0.05,0.13v0.42 c0,0.35,1.04,0.64,2.32,0.64c1.28,0,2.32-0.28,2.32-0.64v-0.42c0-0.24-0.47-0.44-1.16-0.55v-6.95c0.84-0.16,1.21-0.45,1.3-0.7 l0.91-6.3c0.09-0.02,0.19-0.04,0.28-0.06C22.94,5.04,23,4.15,20.97,3.59z M18.69,10.7c-0.83-0.28-2.1-0.28-2.93,0l-0.71-4.86 c1.38,0.17,2.96,0.17,4.34,0L18.69,10.7z M13.83,0.91c-2.66-0.73-7.02-0.73-9.67,0C1.55,1.64,1.63,2.79,4.29,3.48C4.4,3.51,4.52,3.54,4.64,3.56 l1.18,8.12c0.09,0.32,0.58,0.7,1.68,0.9v8.97c-0.73,0.12-1.27,0.31-1.44,0.55C6.02,22.16,6,22.22,6,22.27v0.54 c0,0.45,1.34,0.82,3,0.82s3-0.37,3-0.82v-0.54c0-0.3-0.61-0.56-1.5-0.71v-8.98c1.09-0.2,1.56-0.59,1.68-0.9l1.18-8.13 c0.12-0.03,0.25-0.05,0.36-0.08C16.36,2.79,16.45,1.64,13.83,0.91z M10.89,10.1c-1.07-0.37-2.71-0.37-3.78,0L6.2,3.83 c1.78,0.22,3.82,0.22,5.6,0L10.89,10.1z"/></svg>