<?xml version="1.0" encoding="UTF-8"?>
<svg width="32px" height="33px" viewBox="0 0 32 33" version="1.1" xmlns="http://www.w3.org/2000/svg" xmlns:xlink="http://www.w3.org/1999/xlink">
    <!-- Generator: Sketch 51.3 (57544) - http://www.bohemiancoding.com/sketch -->
    <title>FloorLantern</title>
<style>path{fill:#000}@media (prefers-color-scheme:dark){path{fill:#fff}}</style>
            <path d="M18.5234,13.383 C17.0904,12.88 14.9094,12.88 13.4774,13.383 L12.2654,4.766 C14.6374,5.067 17.3634,5.067 19.7344,4.767 L18.5234,13.383 Z M22.4404,0.756 C18.8994,-0.252 13.0894,-0.252 9.5534,0.756 C6.0664,1.75 6.1794,3.332 9.7184,4.291 C9.8674,4.331 10.0384,4.36 10.1934,4.397 L11.7654,15.572 C11.8834,16.009 12.5424,16.53 14.0004,16.811 L14.0004,29.151 C13.0254,29.31 12.3094,29.58 12.0804,29.901 C12.0264,29.972 12.0004,30.049 12.0004,30.125 L12.0004,30.875 C12.0004,31.496 13.7914,32 16.0004,32 C18.2094,32 20.0004,31.496 20.0004,30.875 L20.0004,30.125 C20.0004,29.71 19.1904,29.352 18.0004,29.156 L18.0004,16.812 C19.4524,16.53 20.0834,16.008 20.2344,15.574 L21.8064,4.398 C21.9634,4.361 22.1374,4.331 22.2884,4.291 C25.8244,3.332 25.9314,1.75 22.4404,0.756 Z"></path>
</svg>