<svg xmlns="http://www.w3.org/2000/svg" viewBox="0 0 24 24"><path fill="#44739e" d="M9.762 3.439c1.227-.252 3.245-.252 4.474 0 1.213.248 1.175.643-.053.883-1.21.236-3.152.236-4.364 0-1.229-.24-1.268-.636-.057-.883m5.296 6.33c.752-.21 1.183-.476 1.29-.753a.4.4 0 0 0 .027-.139V3.246a.4.4 0 0 0-.027-.139c-.104-.266-.506-.523-1.217-.732-1.72-.5-4.545-.5-6.265 0-.707.209-1.11.466-1.214.732a.4.4 0 0 0-.027.139v5.632a.4.4 0 0 0 .027.138c.107.277.542.543 1.294.754.687.192 1.543.301 2.429.338v8.782c-1.829.071-3.3.443-3.663.923a.38.38 0 0 0-.087.234v.782C7.625 21.475 9.584 22 12 22s4.375-.525 4.375-1.172v-.781c0-.59-1.631-1.078-3.75-1.159v-8.78c.888-.037 1.744-.146 2.433-.338"/></svg>