<svg xmlns="http://www.w3.org/2000/svg" viewBox="0 0 24 24"><path fill="#44739e" d="M19.407 4.774c-1.065-.292-2.553-.412-3.945-.344-.335.422-.954.765-1.84 1.023l-.249 1.702.696 4.797c.061.215.387.464 1.118.601v5.974c-.49.078-.842.207-.963.361a.17.17 0 0 0-.043.112v.361c0 .301.894.55 1.994.55s1.995-.24 1.995-.55V19c0-.206-.404-.378-.997-.473v-5.974c.722-.137 1.04-.386 1.117-.601l.782-5.416.241-.051c1.788-.464 1.839-1.229.094-1.711m-1.959 6.112c-.714-.241-1.806-.241-2.519 0l-.61-4.178c1.186.146 2.544.146 3.73 0ZM13.27 2.471c-2.286-.628-6.034-.628-8.312 0-2.243.627-2.175 1.616.112 2.209.094.025.197.051.301.068l1.014 6.98c.077.275.498.602 1.444.774v7.71c-.627.103-1.092.267-1.238.473a.27.27 0 0 0-.051.146v.464c0 .387 1.151.705 2.578.705s2.579-.318 2.579-.705v-.464c0-.258-.524-.481-1.289-.61v-7.719c.937-.172 1.341-.507 1.444-.774l1.014-6.988c.103-.026.215-.043.31-.069 2.269-.584 2.346-1.573.094-2.2m-2.527 7.899c-.92-.318-2.329-.318-3.249 0l-.782-5.389c1.53.189 3.283.189 4.813 0Z"/></svg>