<svg xmlns="http://www.w3.org/2000/svg" viewBox="0 0 46 41"><path fill="#44739e" d="M45.321,8.217C43.417,5.907 40.5,4.667 37.516,4.9C37.088,4.917 36.648,4.936 36.181,4.966C32.525,1.763 27.825,-0.003 22.964,0C11.837,0.104 2.739,9.287 2.739,20.415C2.739,25.92 4.966,31.198 8.909,35.039C6.33,37.48 3.306,39.401 0,40.698C3.918,40.166 7.698,38.882 11.129,36.917C14.562,39.429 18.709,40.781 22.963,40.777C34.088,40.671 43.183,31.49 43.183,20.364C43.183,16.184 41.9,12.104 39.507,8.677C41.419,8.29 43.372,8.136 45.321,8.217ZM6.239,20.388C6.203,11.177 13.752,3.568 22.963,3.53C25.909,3.528 28.803,4.312 31.345,5.801C26.37,7.349 20.585,11.724 15.831,24.664C14.786,27.51 13.26,30.156 11.319,32.486C8.065,29.305 6.231,24.939 6.239,20.388ZM39.689,20.388C39.689,20.411 39.689,20.433 39.689,20.456C39.689,29.643 32.15,37.212 22.963,37.249C19.892,37.254 16.879,36.403 14.263,34.793C16.994,32.619 19.352,30.014 21.243,27.08C23.243,24.35 25.264,20.708 29.204,19.226C31.489,18.476 33.88,18.099 36.285,18.111C38.69,18.123 32.257,15.295 27.935,16.711C27.444,16.872 26.971,17.056 26.512,17.255C28.64,13.706 31.956,11.021 35.87,9.678C38.344,12.698 39.694,16.484 39.689,20.388Z"/></svg>