<svg xmlns="http://www.w3.org/2000/svg" viewBox="0 0 24 24"><path fill="#44739e" d="m2 16.185 1.654.01.034-3.425 4.737.005.021-1.454-4.775.022S3.513 9.315 5.39 9.29s2.983-.022 2.983-.022l1.758 2.735-2.774 4.162 1.981.013 1.77-2.881 1.62 2.898 2.019-.026-2.713-4.29 2.546-4.047h-1.925l-1.603 2.628L9.41 7.837l-4.05.042s-3.448-.331-3.336 3.474Zm19.516-8.38v1.462h-3.21c-.702 0-1.056.237-1.419.547-.364.31-.395.861-.486 1.555l3.141-.039c.859 0 1.334.184 1.727.552s.731.847.731 1.623c0 .372-.073.696-.168 1.022s-.281.525-.492.765c-.21.239-.425.386-.745.547-.322.161-.484.297-1.198.33h-1.426a3.8 3.8 0 0 1-1.432-.26q-.637-.26-1.084-.78c-.447-.52-.527-.781-.688-1.301q-.242-.781-.242-1.835 0-2.118.974-3.153.972-1.035 2.807-1.035Zm-5.09 4.906c.049.81.053 1.18.404 1.54.351.359.721.465 1.34.456l.805-.025c.422 0 .613-.104.845-.292.182-.147.293-.311.293-.674 0-.372-.045-.586-.248-.76-.202-.173-.476-.294-.856-.294Z"/></svg>