<svg xmlns="http://www.w3.org/2000/svg" viewBox="0 0 570 237"><path fill="#44739e" d="M0.5,235.433L46.79,235.718L47.75,139.87L180.3,139.99L180.9,99.323L47.27,99.923C47.27,99.923 42.83,43.182 95.37,42.462C147.91,41.742 178.86,41.862 178.86,41.862L228.05,118.397L150.43,234.878L205.85,235.238L255.4,154.625L300.74,235.718L357.24,234.998L281.31,114.918L352.57,1.676L298.7,1.676L253.84,75.211L207.89,1.795L94.53,2.995C94.53,2.995 -1.95,-6.288 1.18,100.21L0.5,235.433Z M349.2,191.93L348.97,148.6L479.47,2.28L538.75,1.82L538.98,153.26L568.97,153.26L569.44,192.63L538.75,192.4L538.51,235.04L492.12,235.74L492.36,192.87L349.2,191.93Z M402.86,152.79L492.83,152.56L491.89,52.84L402.86,152.79Z"/></svg>