<svg xmlns="http://www.w3.org/2000/svg" viewBox="0 0 632 820"><path fill="#44739e" transform="matrix(0.0999364,2.75187e-21,-2.75187e-21,-0.0999139,-125.465,861.054)" d="M2603,8613C2650,8622 2676,8619 2701,8602C2741,8575 2858,8443 2876,8403C2892,8370 2892,8366 2875,8337C2865,8319 2792,8241 2712,8163C2576,8031 2567,8019 2577,7998C2605,7940 2620,7871 2620,7795C2620,7677 2591,7596 2509,7480C2417,7349 2419,7354 2439,7275C2449,7237 2463,7204 2469,7202C2491,7195 2520,7232 2520,7266C2520,7293 2526,7302 2550,7315C2566,7323 2586,7330 2594,7330C2603,7330 2624,7336 2642,7344C2660,7352 2691,7365 2712,7374C2732,7383 2753,7390 2760,7390C2776,7390 2868,7419 2908,7436C2926,7444 2951,7450 2963,7450C2975,7450 3002,7456 3025,7464C3047,7472 3101,7486 3145,7495C3189,7504 3241,7516 3260,7520C3279,7525 3320,7532 3350,7535C3380,7539 3419,7546 3435,7552C3452,7557 3501,7566 3545,7571C3589,7576 3639,7582 3656,7586C3681,7591 3688,7588 3698,7566C3711,7537 3739,7533 3802,7552C3837,7562 3842,7561 3861,7542C3890,7510 3933,7514 3970,7550C3996,7576 4008,7580 4054,7580C4095,7580 4116,7586 4146,7606L4184,7632L4390,7625C4503,7621 4617,7614 4644,7609C4671,7604 4731,7600 4779,7600C4826,7600 4894,7595 4930,7589C4966,7583 5033,7575 5080,7570C5127,7566 5179,7558 5195,7552C5212,7546 5253,7539 5288,7536C5372,7528 5388,7518 5392,7472L5395,7435L5465,7430C5529,7425 5536,7423 5548,7398C5562,7369 5612,7351 5633,7368C5641,7374 5680,7375 5744,7369C5824,7361 5847,7362 5864,7373C5882,7385 5889,7385 5918,7372C5956,7353 5987,7365 5982,7396C5969,7473 5970,7535 5985,7606C5995,7649 6006,7690 6010,7695C6014,7701 6021,7716 6025,7729C6040,7778 6125,7904 6177,7956C6233,8011 6336,8080 6362,8080C6370,8080 6380,8084 6386,8090C6399,8103 6522,8105 6546,8092C6582,8072 6633,8050 6643,8050C6649,8050 6662,8043 6671,8034C6688,8019 6692,8019 6717,8036C6733,8046 6759,8053 6778,8052C6808,8049 6822,8060 6935,8174C7038,8279 7070,8305 7126,8331C7227,8377 7262,8369 7349,8282C7429,8201 7459,8143 7441,8102C7413,8041 7351,7962 7288,7905C7182,7810 7180,7806 7180,7646C7180,7547 7176,7499 7165,7473C7157,7454 7150,7426 7150,7413C7150,7399 7144,7376 7137,7362C7129,7347 7115,7317 7105,7295C7094,7273 7067,7225 7043,7189C6986,7101 6985,7053 7036,6944C7071,6869 7071,6868 7060,6797C7043,6684 7013,6659 6943,6695C6853,6741 6818,6753 6810,6740C6800,6725 6818,6692 6840,6685C6848,6682 6877,6660 6903,6635C6930,6610 6961,6590 6974,6590C7035,6590 7107,6435 7130,6254C7140,6170 7140,6132 7127,6005C7118,5923 7103,5831 7094,5803C7078,5753 7059,5737 7045,5760C7042,5765 7015,5781 6987,5795C6958,5809 6916,5838 6893,5859C6797,5948 6732,5980 6644,5980C6601,5980 6590,5970 6590,5930C6590,5921 6564,5887 6531,5856C6466,5792 6457,5768 6441,5605C6431,5508 6435,5491 6473,5471C6493,5460 6502,5461 6528,5474C6567,5494 6599,5494 6621,5474C6631,5465 6657,5454 6680,5449C6714,5441 6730,5443 6767,5460C6800,5475 6834,5480 6892,5480C6945,5480 6981,5485 7002,5496L7033,5512L7025,5473C7022,5452 7012,5428 7004,5419C6996,5411 6990,5398 6990,5392C6990,5385 6986,5372 6981,5362C6977,5353 6965,5327 6956,5305C6916,5213 6818,5083 6787,5078C6775,5076 6764,5066 6762,5055C6760,5044 6745,5022 6730,5005C6714,4989 6695,4954 6689,4928C6677,4884 6678,4877 6699,4840C6723,4797 6723,4794 6696,4695C6687,4662 6676,4609 6670,4578C6664,4537 6650,4505 6620,4463C6577,4401 6554,4333 6544,4235C6541,4202 6532,4155 6525,4130C6518,4105 6507,4018 6500,3935C6494,3853 6484,3755 6479,3718C6468,3637 6467,3563 6478,3557C6486,3551 6594,3563 6740,3585C6938,3615 7045,3630 7139,3642L7233,3653L7286,3598C7343,3538 7340,3548 7346,3415C7349,3332 7366,3314 7450,3308C7483,3305 7487,3301 7529,3215C7582,3108 7588,3051 7571,2865C7530,2444 7482,2328 7295,2213C7264,2194 7189,2160 7176,2160C7170,2160 7156,2153 7146,2145C7135,2137 7115,2130 7100,2130C7086,2130 7066,2124 7055,2116C7044,2109 7022,2100 7005,2097C6989,2094 6944,2082 6905,2070C6867,2058 6814,2042 6788,2034C6761,2026 6716,2013 6688,2004C6659,1996 6617,1984 6595,1978C6573,1973 6546,1965 6535,1960C6524,1955 6495,1946 6471,1938C6418,1922 6397,1895 6422,1876C6441,1862 6495,1705 6504,1638C6512,1574 6481,1537 6402,1514C6370,1505 6336,1489 6324,1479C6313,1468 6294,1460 6283,1460C6257,1460 6208,1422 6216,1408C6220,1402 6226,1382 6230,1363C6241,1315 6218,1294 6146,1285C6090,1278 6079,1280 6049,1302C6028,1316 5967,1290 5930,1250C5910,1229 5892,1222 5842,1216C5771,1208 5762,1212 5738,1262C5695,1351 5695,1350 5708,1370C5726,1400 5723,1430 5702,1430C5689,1430 5678,1417 5668,1391C5654,1355 5649,1352 5599,1342C5413,1306 5421,1310 5410,1271C5404,1251 5395,1179 5389,1110C5384,1041 5375,965 5370,940C5365,915 5358,850 5354,795C5351,740 5341,683 5334,667C5323,647 5295,628 5234,600C5188,578 5144,560 5137,560C5130,560 5120,556 5115,552C5097,536 4904,479 4790,456C4749,448 4690,436 4660,429C4630,423 4540,415 4460,413C4265,406 4267,404 4231,620C4226,650 4217,688 4211,703C4205,719 4200,749 4200,771C4200,834 4167,860 4088,860C4026,860 3981,866 3845,894C3708,922 3675,930 3655,939C3644,943 3608,955 3575,965C3542,975 3502,989 3485,995C3373,1041 3340,1055 3300,1075C3230,1109 3116,1172 3110,1179C3107,1183 3087,1197 3065,1210C2954,1277 2753,1468 2764,1497C2767,1504 2763,1507 2754,1503C2746,1500 2740,1504 2740,1514C2740,1523 2744,1530 2750,1530C2764,1530 2773,1595 2762,1616C2756,1628 2755,1655 2760,1688C2769,1740 2769,1740 2727,1783C2671,1840 2607,1917 2596,1941C2591,1951 2583,1960 2578,1960C2574,1960 2570,1965 2570,1972C2570,1978 2563,1991 2555,2000C2534,2023 2482,2119 2437,2217C2426,2241 2433,2270 2450,2270C2455,2270 2460,2258 2460,2244C2460,2230 2464,2221 2468,2224C2478,2230 2447,2441 2430,2484C2424,2501 2420,2523 2421,2534C2424,2557 2404,2682 2389,2741C2379,2782 2376,2800 2360,2915C2354,2959 2344,3013 2339,3035C2333,3057 2324,3095 2320,3120C2315,3145 2304,3194 2294,3230C2285,3266 2275,3322 2270,3355C2266,3388 2253,3458 2241,3510C2228,3562 2212,3643 2205,3690C2192,3777 2171,3873 2144,3968C2123,4041 2118,4061 2114,4095C2108,4149 2080,4274 2060,4341C2049,4377 2040,4416 2040,4427C2040,4443 2032,4449 2008,4453C1897,4473 1871,4479 1838,4494C1817,4503 1800,4514 1800,4519C1800,4525 1791,4531 1781,4535C1771,4538 1760,4550 1757,4562C1753,4575 1746,4581 1736,4577C1726,4573 1719,4580 1715,4600C1711,4616 1701,4632 1692,4634C1671,4641 1583,4785 1567,4837C1560,4859 1538,4896 1518,4921C1497,4947 1480,4972 1480,4979C1480,4985 1476,4990 1471,4990C1460,4990 1383,5106 1337,5190C1262,5330 1234,5465 1273,5507C1283,5519 1290,5543 1290,5567C1290,5615 1318,5645 1372,5655C1392,5659 1418,5673 1430,5685L1453,5709L1431,5797C1404,5908 1385,6042 1392,6061C1397,6073 1433,6079 1551,6089C1736,6104 1748,6106 1756,6132C1759,6143 1756,6191 1749,6238C1740,6302 1730,6337 1709,6368C1691,6396 1679,6432 1674,6468C1665,6544 1657,6556 1604,6580L1559,6601L1607,6663C1633,6697 1682,6753 1715,6788C1748,6823 1786,6871 1800,6895C1814,6919 1842,6957 1862,6980C1899,7020 1899,7021 1894,7088C1891,7125 1879,7202 1868,7259C1855,7325 1851,7378 1855,7406C1860,7442 1857,7455 1836,7487C1822,7508 1810,7528 1810,7533C1810,7543 1752,7600 1742,7600C1737,7600 1691,7642 1639,7693C1559,7772 1543,7793 1528,7840C1500,7930 1499,7947 1515,8018C1557,8198 1672,8313 1835,8338C1879,8345 1933,8357 1955,8365C2008,8384 2064,8384 2106,8364C2145,8345 2149,8333 2118,8328C2082,8323 2092,8308 2156,8271C2188,8253 2237,8224 2264,8208C2291,8192 2315,8181 2317,8184C2319,8186 2294,8215 2260,8248C2183,8323 2182,8343 2258,8350C2301,8355 2315,8361 2334,8384C2349,8404 2361,8411 2370,8405C2380,8399 2382,8401 2377,8413C2373,8424 2380,8435 2400,8446C2416,8456 2431,8472 2433,8482C2436,8492 2445,8500 2454,8500C2463,8500 2470,8507 2470,8515C2470,8523 2478,8530 2488,8530C2499,8530 2512,8541 2518,8555C2524,8569 2536,8580 2544,8580C2551,8580 2563,8586 2570,8594C2576,8602 2591,8611 2603,8613ZM5212.97,3988.17C5212.97,3911.83 5135.13,3886.38 4668.11,3813.03L4344.78,3760.64L4344.78,3537.61L4457.05,3552.58C4518.42,3561.56 4735.47,3601.97 4940.54,3642.39C5144.11,3681.31 5316.26,3709.75 5322.24,3703.76C5341.7,3684.3 4771.39,3491.2 4472.02,3413.37C4346.28,3381.93 4344.78,3378.94 4344.78,3250.21L4344.78,3118.48L5422.53,3112.5L5422.53,3217.28C5422.53,3311.58 5413.55,3323.56 5344.69,3323.56C5286.32,3323.56 5271.35,3335.53 5284.82,3371.46C5295.3,3396.9 5302.78,3431.33 5302.78,3446.3C5302.78,3462.76 5337.21,3488.21 5377.63,3503.18C5443.49,3528.63 5452.47,3549.58 5452.47,3675.32C5452.47,3753.16 5461.45,3847.46 5471.93,3884.88C5486.9,3943.26 5477.92,3952.24 5406.07,3952.24C5359.66,3952.24 5298.29,3974.7 5268.36,4001.64C5215.96,4048.04 5212.97,4048.04 5212.97,3988.17ZM5073.76,3323.56C5028.86,3281.64 4603.74,3251.71 4627.69,3292.12C4639.67,3311.58 4656.13,3322.06 4663.62,3314.57C4671.1,3307.09 4766.9,3323.56 4877.67,3352C5060.29,3398.4 5141.12,3387.92 5073.76,3323.56ZM4344.78,2980.77L4344.78,2874.49L4696.55,2871.5C5085.74,2868.51 5052.81,2841.56 4549.86,2751.75L4344.78,2715.83L4344.78,2337.12L4427.11,2350.59C4472.02,2358.07 4624.7,2377.53 4763.91,2395.49C4904.61,2413.46 5043.82,2435.91 5073.76,2444.89C5114.18,2456.87 5126.15,2447.88 5118.67,2407.47C5105.19,2343.1 5016.88,2317.66 4638.17,2272.75L4344.78,2236.83L4344.78,2151.5C4344.78,2090.13 4359.75,2066.18 4397.17,2066.18C4481,2066.18 5013.89,2150.01 5070.77,2172.46C5109.69,2187.43 5123.16,2176.95 5123.16,2130.55C5123.16,2097.62 5099.21,2063.19 5070.77,2054.21C5024.36,2039.24 4427.11,1947.93 4367.24,1946.43C4355.26,1946.43 4344.78,1907.51 4344.78,1858.12C4344.78,1759.32 4307.36,1759.32 4838.75,1846.14C5229.44,1909.01 5314.76,1958.41 5326.73,2121.57C5335.71,2244.31 5332.72,2250.3 5266.86,2229.34C5200.99,2208.39 5200.99,2211.38 5278.83,2284.72C5549.77,2537.7 5377.63,2676.91 4898.63,2590.09C4766.9,2566.14 4626.2,2548.18 4584.28,2548.18L4509.44,2549.67L4584.28,2575.12C4626.2,2588.59 4823.78,2649.96 5025.86,2712.83C5353.68,2813.12 5392.6,2831.08 5392.6,2892.46C5392.6,2928.38 5400.08,2977.78 5407.56,2998.73C5419.54,3031.66 5335.71,3040.65 4983.95,3043.64C4741.45,3046.63 4498.96,3058.61 4443.58,3067.59C4346.28,3087.05 4344.78,3084.06 4344.78,2980.77ZM4750.44,1756.33C4719,1733.88 4704.03,1702.44 4714.51,1684.48C4724.99,1668.01 4702.54,1645.56 4666.61,1636.58C4563.33,1608.14 4554.35,1612.63 4554.35,1685.98C4554.35,1747.35 4542.37,1753.34 4449.57,1742.86C4347.78,1730.88 4344.78,1726.39 4344.78,1600.65C4344.78,1440.49 4388.19,1421.03 4650.15,1467.43C5121.66,1549.76 5302.78,1617.12 5302.78,1706.93L5302.78,1790.76L5130.64,1736.87C4946.53,1679.99 4906.11,1682.98 4933.06,1753.34C4955.51,1810.22 4826.78,1813.21 4750.44,1756.33ZM4770,6755C4745,6758 4676,6763 4615,6765C4519,6768 4500,6766 4467,6748C4398,6712 4368,6628 4408,6583C4443,6543 4548,6511 4678,6502C4749,6498 4824,6524 4834,6558C4850,6606 4787,6660 4716,6660C4702,6660 4668,6665 4638,6671C4609,6677 4574,6684 4560,6687C4537,6691 4537,6692 4554,6702C4577,6715 4751,6706 4798,6689C4840,6675 4860,6683 4860,6714C4860,6741 4854,6744 4770,6755ZM5001,5223C4966,5243 4953,5244 4920,5225C4906,5217 4875,5210 4850,5210C4781,5209 4559,5173 4547,5161C4541,5155 4529,5150 4521,5150C4512,5150 4488,5135 4468,5117L4431,5085L4429,4969C4428,4905 4430,4849 4433,4843C4437,4838 4467,4830 4502,4826C4567,4820 4610,4793 4610,4760C4610,4735 4649,4706 4710,4686C4740,4675 4772,4661 4780,4654C4790,4646 4828,4640 4879,4638C4984,4634 4991,4641 4983,4743C4978,4812 4980,4817 5012,4865L5045,4915L5042,5045C5040,5116 5037,5182 5035,5190C5032,5199 5017,5213 5001,5223ZM4212,6799L4185,6830L4035,6834C3953,6837 3872,6836 3856,6833C3819,6827 3751,6784 3743,6762C3739,6753 3724,6723 3708,6697C3675,6641 3673,6624 3699,6615C3735,6604 3764,6620 3786,6663L3808,6705L3911,6701C4016,6697 4060,6688 4060,6671C4060,6666 4050,6658 4038,6654C4006,6644 3960,6608 3966,6598C3978,6578 4049,6591 4113,6625C4149,6644 4185,6657 4192,6655C4199,6652 4217,6629 4232,6605C4258,6562 4262,6560 4305,6560C4360,6560 4361,6568 4315,6639C4295,6669 4281,6699 4284,6707C4289,6720 4388,6770 4409,6770C4415,6770 4420,6776 4420,6784C4420,6810 4338,6819 4305,6796C4260,6766 4240,6766 4212,6799ZM2445,5527C2419,5544 2284,5543 2243,5525C2210,5511 2210,5511 2210,5438C2209,5394 2204,5355 2195,5340C2176,5307 2176,5200 2195,5130C2203,5100 2210,5058 2210,5037C2210,5009 2217,4993 2236,4975C2272,4942 2305,4944 2347,4980C2381,5010 2383,5011 2454,5004L2527,4998L2567,5038C2589,5061 2620,5082 2636,5085C2686,5095 2774,5144 2786,5169C2794,5184 2795,5203 2789,5224C2784,5241 2780,5283 2780,5318C2780,5398 2770,5418 2722,5425C2648,5438 2495,5494 2445,5527Z M3868,6782C3852,6773 3840,6762 3840,6759C3840,6748 3900,6740 3986,6740C4071,6740 4092,6731 4069,6704C4049,6680 4069,6675 4108,6695C4128,6706 4147,6715 4149,6717C4151,6719 4145,6735 4135,6754C4113,6794 4093,6800 3976,6800C3917,6800 3887,6795 3868,6782Z M4527,6623C4514,6611 4520,6600 4550,6585C4578,6570 4681,6564 4693,6576C4710,6593 4683,6609 4627,6615C4593,6618 4558,6623 4549,6626C4541,6628 4531,6627 4527,6623Z"/></svg>