<svg xmlns="http://www.w3.org/2000/svg" viewBox="0 0 24 24"><path fill="#44739e" d="m2 16.103 1.627.01.034-3.369 4.66.004.021-1.429-4.698.021s-.156-1.995 1.691-2.02 2.935-.021 2.935-.021l1.729 2.69-2.728 4.095 1.948.012 1.742-2.833 1.593 2.85 1.987-.025-2.67-4.221 2.505-3.981h-1.893l-1.577 2.585L9.29 7.89l-3.985.042s-3.391-.326-3.281 3.418Zm12.258-1.529-.008-1.523 4.587-5.144 2.084-.016.008 5.324h1.054L22 14.599l-1.079-.008-.008 1.498-1.631.025.008-1.507Zm1.886-1.376 3.163-.008-.033-3.505Z"/></svg>