<svg xmlns="http://www.w3.org/2000/svg" viewBox="0 0 24 24"><path fill="#44739e" d="M18.117 20.075c-.17-.07-.274-.134-.274-.277 0-.085.065-.223.28-.223a.47.47 0 0 1 .269.081c.033.018.055.018.07-.01l.02-.034a.047.047 0 0 0-.006-.066.66.66 0 0 0-.346-.1.386.386 0 0 0-.43.336v.025c0 .231.134.316.357.411s.354.18.354.32a.245.245 0 0 1-.257.232h-.014a.6.6 0 0 1-.348-.148c-.03-.024-.045-.014-.065.012l-.03.038c-.03.037 0 .055.012.07a.66.66 0 0 0 .427.163.41.41 0 0 0 .437-.372c-.012-.243-.188-.347-.456-.458m-1.584 0c-.17-.07-.273-.134-.273-.277 0-.085.065-.223.279-.223a.47.47 0 0 1 .27.081c.032.018.054.018.07-.01l.02-.034a.047.047 0 0 0-.006-.066.67.67 0 0 0-.346-.1.386.386 0 0 0-.43.337v.024c0 .231.134.316.357.411s.354.18.354.32a.245.245 0 0 1-.257.232h-.014a.6.6 0 0 1-.35-.148c-.027-.024-.043-.014-.063.012l-.031.038c-.028.037 0 .055.012.07a.66.66 0 0 0 .428.163.41.41 0 0 0 .437-.372c-.007-.243-.183-.347-.457-.458m-1.194-.615h-.8a.037.037 0 0 0-.04.037v1.341a.04.04 0 0 0 .039.038h.8a.04.04 0 0 0 .039-.037v-.059a.04.04 0 0 0-.04-.039h-.68v-.516h.582a.04.04 0 0 0 .039-.038v-.059a.04.04 0 0 0-.04-.039h-.58V19.6h.68a.04.04 0 0 0 .039-.037V19.5a.04.04 0 0 0-.036-.04Zm-1.43.57 1.084-1.67c.049-.07 0-.15-.09-.15h-.78a.1.1 0 0 0-.085.048l-.625.993h-.005l-.614-.993a.12.12 0 0 0-.086-.048h-.78a.1.1 0 0 0-.1.1.1.1 0 0 0 .014.053l1.079 1.671L11.8 21.8a.1.1 0 0 0 .036.137.1.1 0 0 0 .054.013h.742a.12.12 0 0 0 .089-.05l.684-1.079h.01l.7 1.08a.12.12 0 0 0 .09.047h.742a.093.093 0 0 0 .105-.079.1.1 0 0 0-.02-.07Zm-1.91.053A1.919 1.919 0 1 0 10.077 22 1.92 1.92 0 0 0 12 20.083m-.853 0a1.068 1.068 0 1 1 0-.01ZM7.952 18.21h-2.21a.1.1 0 0 0-.1.1v3.534a.1.1 0 0 0 .1.1h.63a.106.106 0 0 0 .1-.1v-1.3h1.219a.106.106 0 0 0 .1-.1v-.582a.106.106 0 0 0-.1-.1H6.474v-.768h1.478a.1.1 0 0 0 .1-.1v-.582a.1.1 0 0 0-.1-.1Zm3.647-4.683q.211-.139.424-.3l.052-.04c.069-.052.136-.1.2-.157l.07-.057c.058-.047.115-.1.17-.14l.076-.067.15-.134.07-.063.146-.136.059-.056.094-.093.089-.09.15-.157.044-.047.138-.15.024-.027q.073-.088.156-.18l.02-.025.03-.035.127-.154.04-.05c.052-.065.1-.132.154-.2l.05-.07.116-.159.049-.07c.048-.069.1-.14.142-.213l.042-.067v-.016l.093-.153.05-.086q.064-.11.123-.222l.06-.092.078-.16.046-.1.02-.046v.006a6.6 6.6 0 0 1-1.02 1.345c-.62.63-2.773 2.557-4.542.861a5.7 5.7 0 0 1-1.752-4 3.26 3.26 0 0 1 .72-2.317 3.24 3.24 0 0 1 2.268-.765h.029a5.7 5.7 0 0 1 2.9.786 6.6 6.6 0 0 0-1.227-.648l-.02-.012-.073-.028-.17-.063a6.7 6.7 0 0 0-2.21-.38h-.181c-.16 0-.3.01-.44.021h-.056q-.234.021-.434.054h-.02a7 7 0 0 0-.414.086l-.055.013a5 5 0 0 0-.376.111l-.066.023q-.087.03-.173.064l-.168.071-.064.03c-.11.05-.214.1-.31.16l-.05.031a3 3 0 0 0-.28.19l-.03.022a3 3 0 0 0-.25.22l-.006.004a3.4 3.4 0 0 0-.75 1.3 4 4 0 0 0-.135.47q-.03.123-.053.25a6 6 0 0 0-.1.785 7 7 0 0 0 0 .834 7 7 0 0 0 .546 2.29 7 7 0 0 0 .426.825 6.2 6.2 0 0 0 1.007 1.251 3 3 0 0 0 .239.21l.044.033q.093.07.193.131l.02.014h.009L7.94 14l.038.023.03.016q.078.044.16.081l.017.008.015.006a2.6 2.6 0 0 0 .529.171l.038.007q.1.02.207.03h.315a3 3 0 0 0 .41-.042l.047-.007.063-.01.032-.006.067-.016.029-.007h.01l.036-.009.023-.006q.075-.018.147-.038l.116-.038c.074-.025.135-.046.2-.07l.114-.045q.1-.042.2-.088l.02-.009.076-.036q.113-.056.225-.116l.066-.035a3 3 0 0 0 .429-.237m6.857-8.658A10.07 10.07 0 0 0 11.374 2h-.375a9.3 9.3 0 0 0-2.825.5q-.172.048-.337.1c-.077.026-.151.054-.24.087l-.014.013a4 4 0 0 0-.2.085l-.045.015a5 5 0 0 0-.186.09l-.053.028q-.087.045-.17.091l-.1.06q-.061.034-.116.071a4 4 0 0 0-.48.358q-.09.079-.171.161a3 3 0 0 0-.263.311l-.036.046a4 4 0 0 0-.225.341l-.04.067-.022.042c-1.785 2.716-1.75 8.31 1.86 11.754a3.94 3.94 0 0 0 2.754 1.166h.187c2.368-.075 4.773-2.067 6.1-3.423 1.905-1.946 5.056-6.108 2.079-9.094m-7.634 9.168-.2.09-.115.045a5 5 0 0 1-.19.067q-.063.022-.13.042c-.043.013-.115.031-.173.046l-.144.035c-.044.01-.1.016-.145.023a3 3 0 0 1-.421.041h-.032a2 2 0 0 1-.2-.008l-.083-.006a2 2 0 0 1-.221-.03l-.04-.009-.118-.027-.1-.028a3 3 0 0 1-.338-.126 3 3 0 0 1-.211-.107l-.062-.038c-.076-.046-.15-.1-.22-.149l-.045-.033a3 3 0 0 1-.244-.215 6.3 6.3 0 0 1-1.021-1.262 6.4 6.4 0 0 1-.431-.833 7 7 0 0 1-.217-.573 6 6 0 0 1-.162-.582 7 7 0 0 1-.172-1.158 7 7 0 0 1 0-.842 6 6 0 0 1 .149-1.045q.058-.247.136-.476a3.5 3.5 0 0 1 .763-1.319 3 3 0 0 1 .264-.229l.03-.024a3 3 0 0 1 .292-.193l.05-.03q.151-.089.316-.165l.064-.029a3 3 0 0 1 .346-.138l.062-.022q.186-.063.38-.113l.05-.017q.208-.05.423-.087h.02q.215-.034.439-.055h.056q.22-.018.445-.022h.183a7 7 0 0 1 2.239.388c.053.018.1.038.157.058l.088.033a6.7 6.7 0 0 1 2.2 1.434q.095.097.177.194.054.063.1.13l.08.112.069.1q.073.12.134.245l.013.03c.036.077.066.156.1.236v.016a2.4 2.4 0 0 0-.568-.86l-.028-.034c-2.034-2-5.144-1.957-6.212-.868-1.068 1.09-1.05 4.241 1.03 6.23 1.606 1.54 3.556.053 4.45-.86a5.7 5.7 0 0 0 1.292-1.942 2.7 2.7 0 0 0 .174-1.008v.338a2 2 0 0 1-.014.17 1 1 0 0 1-.015.117q-.012.083-.028.163a4 4 0 0 1-.08.335l-.034.112-.055.162-.035.1q-.044.116-.1.23-.022.052-.046.1-.038.083-.08.163-.02.045-.044.09-.06.113-.123.223l-.051.087a3 3 0 0 1-.1.162l-.05.081c-.047.072-.1.144-.144.215l-.05.07q-.055.08-.114.16l-.052.07c-.051.068-.1.135-.155.2l-.04.051-.124.146-.05.06-.158.181-.024.027-.138.151-.044.048-.151.157-.09.091-.1.093-.06.057q-.069.068-.145.137l-.073.066-.151.135-.077.066-.17.142-.071.058-.2.158-.053.04a8 8 0 0 1-.853.557l-.067.036q-.113.06-.227.117Zm4.463-5.963a4.54 4.54 0 0 1-1.447 2.9c-.6.61-2.676 2.472-4.36.86a5.57 5.57 0 0 1-1.71-3.914A3.17 3.17 0 0 1 8.45 5.7a3.15 3.15 0 0 1 2.178-.726h.027A5.6 5.6 0 0 1 14.608 6.6a2.3 2.3 0 0 1 .552.836l.01.027.018.054.008.028a2.6 2.6 0 0 1 .089.53m1.514-.624a5 5 0 0 1-.282.984 8 8 0 0 1-.74 1.4 11 11 0 0 1-.917 1.212q-.285.333-.6.65l-.18.18-.054.052-.151.145-.054.05q-.102.095-.21.192l-.044.038-.188.163-.066.057-.188.154-.055.045-.243.188-.074.055-.191.138-.084.06a7 7 0 0 1-.254.17l-.034.021a7 7 0 0 1-.253.156l-.09.053-.21.116-.083.045c-.094.05-.188.1-.283.14l-.067.03-.231.1-.043.017.018-.008q.116-.057.23-.119l.067-.036a8 8 0 0 0 .76-.489l.1-.073.053-.04.2-.159.07-.058.146-.12.027-.023.076-.067c.053-.045.1-.09.153-.135l.074-.067.156-.148.05-.047.186-.185c.059-.06.1-.1.152-.159l.036-.039.008-.008.139-.152.024-.027q.078-.088.158-.183l.05-.06q.066-.073.129-.157l.04-.05c.053-.066.1-.133.157-.2l.052-.07.129-.182.04-.058q.076-.108.145-.217l.05-.08q.052-.083.1-.164l.053-.088.124-.227.045-.09a4 4 0 0 0 .127-.266l.1-.233.022-.06.013-.037.056-.165a4 4 0 0 0 .115-.449l.029-.166.016-.12q.009-.088.014-.174c.004-.058 0-.1 0-.157v-.228a2.6 2.6 0 0 0-.092-.516l-.011-.025q-.008-.029-.018-.056l-.012-.03-.007-.017a3 3 0 0 0-.088-.222l-.014-.033-.005-.01v-.012a3 3 0 0 0-.138-.25q-.026-.044-.055-.085l-.015-.022-.008-.012-.073-.1a3 3 0 0 0-.105-.133 3 3 0 0 0-.184-.2l-.007.002a6.4 6.4 0 0 0-2.215-1.44l-.088-.034h-.012l-.02-.008-.111-.04-.025-.017h-.006a6.8 6.8 0 0 0-2.211-.392h-.231q-.242.002-.448.022h-.057c-.16.015-.3.033-.443.056h-.021a8 8 0 0 0-.427.088l-.057.02a5 5 0 0 0-.386.113l-.068.023-.081.03q-.136.05-.27.11l-.064.03a4 4 0 0 0-.321.166l-.052.031c-.1.062-.2.13-.292.2l-.03.025a3 3 0 0 0-.26.227l-.025.014v.013a3.6 3.6 0 0 0-.762 1.324 5 5 0 0 0-.14.482 7 7 0 0 0-.053.254 6 6 0 0 0-.1.8 7 7 0 0 0 0 .85 7.3 7.3 0 0 0 .338 1.755c.064.193.137.39.218.58a7 7 0 0 0 .435.84l.075.12a8 8 0 0 1-.864-1.485l-.021-.047-.031-.075-.02-.048a8.3 8.3 0 0 1-.6-2.662l-.007-.16v-.537c0-.164.015-.334.032-.52l.008-.088q.024-.241.065-.485l.016-.09q.046-.25.1-.468l.017-.063q.063-.24.134-.446l.009-.022c.048-.136.1-.274.168-.42l.032-.066a5 5 0 0 1 .228-.434 4 4 0 0 1 .217-.33l.039-.045a3 3 0 0 1 .255-.3q.061-.063.128-.123a3.6 3.6 0 0 1 .5-.378q.054-.035.113-.069l.1-.057q.081-.045.165-.089l.05-.025.18-.086.045-.019q.096-.042.2-.083l.033-.01c.072-.029.145-.057.235-.087a7.5 7.5 0 0 1 2.223-.369h.045a8.6 8.6 0 0 1 2.828.444 7.9 7.9 0 0 1 2.888 1.781v.02l.026.012a3.06 3.06 0 0 1 .94 2.1 3.7 3.7 0 0 1-.054.737"/></svg>