<?xml version="1.0" encoding="UTF-8"?>
<svg width="24px" fill="#44739e" height="24px" viewBox="0 0 24 24" version="1.1" xmlns="http://www.w3.org/2000/svg" xmlns:xlink="http://www.w3.org/1999/xlink">
            <path d="m 18.534781,20.081164 c -0.17,-0.071 -0.274,-0.134 -0.274,-0.277 0,-0.085 0.065,-0.223 0.28,-0.223 a 0.468,0.468 0 0 1 0.269,0.081 c 0.033,0.018 0.055,0.018 0.071,-0.01 l 0.02,-0.034 a 0.047,0.047 0 0 0 -0.007,-0.066 v 0 a 0.663,0.663 0 0 0 -0.346,-0.1 0.386,0.386 0 0 0 -0.429,0.336 v 0.025 c 0,0.231 0.133,0.316 0.356,0.411 0.223,0.095 0.354,0.18 0.354,0.32 a 0.245,0.245 0 0 1 -0.257,0.232 h -0.014 a 0.594,0.594 0 0 1 -0.348,-0.148 c -0.029,-0.024 -0.045,-0.014 -0.065,0.012 l -0.03,0.038 c -0.029,0.037 0,0.055 0.012,0.069 v 0 a 0.659,0.659 0 0 0 0.427,0.164 0.408,0.408 0 0 0 0.437,-0.372 c -0.012,-0.243 -0.188,-0.347 -0.456,-0.458 z m -1.584,0 c -0.17,-0.071 -0.273,-0.134 -0.273,-0.277 0,-0.085 0.065,-0.223 0.279,-0.223 a 0.473,0.473 0 0 1 0.27,0.081 c 0.032,0.018 0.054,0.018 0.071,-0.01 l 0.02,-0.034 a 0.047,0.047 0 0 0 -0.007,-0.066 v 0 a 0.672,0.672 0 0 0 -0.346,-0.1 0.386,0.386 0 0 0 -0.43,0.337 v 0.024 c 0,0.231 0.134,0.316 0.357,0.411 0.223,0.095 0.354,0.18 0.354,0.32 a 0.245,0.245 0 0 1 -0.257,0.232 h -0.014 a 0.594,0.594 0 0 1 -0.349,-0.148 c -0.028,-0.024 -0.044,-0.014 -0.064,0.012 l -0.031,0.038 c -0.028,0.037 0,0.055 0.012,0.069 v 0 a 0.66,0.66 0 0 0 0.428,0.164 0.408,0.408 0 0 0 0.437,-0.372 c -0.007,-0.243 -0.183,-0.347 -0.457,-0.458 z m -1.194,-0.615 h -0.8 a 0.037,0.037 0 0 0 -0.039,0.037 v 0 1.341 a 0.038,0.038 0 0 0 0.038,0.038 h 0.8 a 0.038,0.038 0 0 0 0.039,-0.037 v 0 -0.059 a 0.04,0.04 0 0 0 -0.039,-0.039 h -0.68 v -0.516 h 0.581 a 0.04,0.04 0 0 0 0.039,-0.038 v 0 -0.059 a 0.041,0.041 0 0 0 -0.039,-0.039 h -0.581 v -0.489 h 0.68 a 0.038,0.038 0 0 0 0.039,-0.037 v 0 -0.063 a 0.038,0.038 0 0 0 -0.036,-0.04 z m -1.429,0.57 1.083,-1.671 c 0.049,-0.069 0,-0.149 -0.09,-0.149 h -0.78 a 0.1,0.1 0 0 0 -0.085,0.048 l -0.625,0.993 h -0.005 l -0.614,-0.993 a 0.115,0.115 0 0 0 -0.086,-0.048 h -0.779 a 0.1,0.1 0 0 0 -0.1,0.1 0.1,0.1 0 0 0 0.013,0.053 l 1.079,1.671 -1.121,1.766 a 0.1,0.1 0 0 0 0.036,0.137 0.1,0.1 0 0 0 0.054,0.013 h 0.742 a 0.123,0.123 0 0 0 0.089,-0.05 l 0.684,-1.079 h 0.01 l 0.7,1.079 a 0.115,0.115 0 0 0 0.09,0.048 h 0.742 a 0.093,0.093 0 0 0 0.105,-0.079 0.091,0.091 0 0 0 -0.019,-0.071 z m -1.91,0.053 a 1.919,1.919 0 1 0 -1.923,1.917 1.919,1.919 0 0 0 1.923,-1.917 z m -0.854,0 v 0 a 1.068,1.068 0 1 1 0,-0.011 z m -3.1930004,-1.873 h -2.211 a 0.1,0.1 0 0 0 -0.1,0.1 v 0 3.534 a 0.1,0.1 0 0 0 0.1,0.1 h 0.63 a 0.106,0.106 0 0 0 0.1,-0.1 v -1.3 h 1.219 a 0.106,0.106 0 0 0 0.1,-0.1 v -0.582 a 0.106,0.106 0 0 0 -0.1,-0.1 h -1.217 v -0.769 h 1.479 a 0.1,0.1 0 0 0 0.1,-0.1 v 0 -0.582 a 0.1,0.1 0 0 0 -0.1,-0.1 z m 3.6470004,-4.683 c 0.141,-0.093 0.283,-0.192 0.424,-0.3 l 0.052,-0.04 c 0.069,-0.052 0.136,-0.1 0.2,-0.157 l 0.07,-0.057 c 0.058,-0.047 0.115,-0.1 0.17,-0.141 l 0.076,-0.066 0.151,-0.134 0.07,-0.063 0.145,-0.136 0.059,-0.056 0.094,-0.093 c 0.031,-0.03 0.061,-0.06 0.089,-0.09 l 0.151,-0.157 0.043,-0.047 c 0.046,-0.049 0.091,-0.1 0.138,-0.15 l 0.024,-0.027 c 0.051,-0.058 0.1,-0.119 0.156,-0.18 l 0.021,-0.025 0.029,-0.035 0.127,-0.154 0.041,-0.05 c 0.051,-0.065 0.1,-0.132 0.153,-0.2 l 0.051,-0.07 0.115,-0.159 0.049,-0.07 c 0.048,-0.069 0.1,-0.14 0.142,-0.213 l 0.042,-0.067 v 0 -0.008 -0.008 l 0.093,-0.153 0.051,-0.086 c 0.042,-0.073 0.082,-0.148 0.122,-0.222 l 0.06,-0.092 c 0.027,-0.053 0.053,-0.1060001 0.078,-0.1599997 l 0.046,-0.1 0.02,-0.046 v 0.006 a 6.614,6.614 0 0 1 -1.02,1.3449997 c -0.619,0.63 -2.773,2.557 -4.5420004,0.861 a 5.709,5.709 0 0 1 -1.752,-3.9999997 3.261,3.261 0 0 1 0.72,-2.317 3.24,3.24 0 0 1 2.2680004,-0.765 h 0.029 a 5.719,5.719 0 0 1 2.9,0.786 6.631,6.631 0 0 0 -1.227,-0.648 l -0.02,-0.012 -0.073,-0.028 -0.17,-0.063 v 0 a 6.673,6.673 0 0 0 -2.209,-0.38 h -0.182 c -0.1600004,0 -0.3000004,0.009 -0.4400004,0.021 h -0.056 c -0.157,0.014 -0.3,0.032 -0.434,0.054 h -0.02 c -0.067,0.011 -0.134,0.024 -0.2,0.038 -0.066,0.014 -0.14,0.03 -0.214,0.048 l -0.055,0.013 c -0.123,0.031 -0.246,0.068 -0.376,0.111 l -0.066,0.023 c -0.058,0.02 -0.116,0.042 -0.173,0.064 l -0.168,0.071 -0.064,0.029 c -0.109,0.051 -0.214,0.1 -0.309,0.161 l -0.05,0.031 a 3.135,3.135 0 0 0 -0.281,0.189 l -0.029,0.023 a 2.622,2.622 0 0 0 -0.25,0.22 l -0.007,0.004 a 3.419,3.419 0 0 0 -0.75,1.3 4.268,4.268 0 0 0 -0.135,0.47 c -0.02,0.082 -0.037,0.165 -0.053,0.249 a 6.119,6.119 0 0 0 -0.1,0.786 6.826,6.826 0 0 0 0,0.834 c 0.012,0.188 0.033,0.381 0.061,0.571 0.028,0.1899997 0.065,0.3859997 0.109,0.5759997 0.044,0.19 0.1,0.386 0.161,0.575 0.061,0.189 0.135,0.383 0.215,0.568 a 6.565,6.565 0 0 0 0.426,0.825 6.225,6.225 0 0 0 1.007,1.251 2.511,2.511 0 0 0 0.239,0.21 l 0.044,0.033 c 0.062,0.046 0.126,0.09 0.193,0.131 l 0.021,0.014 h 0.008 l 0.013,0.007 0.038,0.023 v 0 l 0.03,0.016 c 0.052,0.029 0.106,0.056 0.16,0.081 l 0.017,0.008 0.015,0.006 a 2.593,2.593 0 0 0 0.529,0.171 l 0.038,0.007 q 0.1,0.019 0.207,0.03 h 0.315 a 3.157,3.157 0 0 0 0.4100004,-0.042 l 0.047,-0.007 0.063,-0.011 0.032,-0.005 0.067,-0.016 0.029,-0.007 h 0.01 l 0.036,-0.009 v 0 l 0.023,-0.006 c 0.049,-0.012 0.1,-0.024 0.147,-0.038 l 0.116,-0.038 c 0.074,-0.025 0.135,-0.046 0.2,-0.07 l 0.114,-0.045 c 0.067,-0.028 0.134,-0.057 0.2,-0.088 l 0.02,-0.009 c 0.026,-0.012 0.051,-0.023 0.076,-0.036 0.076,-0.037 0.151,-0.076 0.225,-0.116 l 0.066,-0.035 a 3.1,3.1 0 0 0 0.429,-0.237 z m 6.857,-8.6579997 a 10.073,10.073 0 0 0 -7.082,-2.869 h -0.375 a 9.336,9.336 0 0 0 -2.8250004,0.5 c -0.114,0.032 -0.227,0.066 -0.337,0.1 -0.077,0.026 -0.151,0.054 -0.239,0.087 l -0.015,0.013 c -0.069,0.027 -0.136,0.056 -0.2,0.085 l -0.045,0.015 c -0.063,0.029 -0.125,0.058 -0.186,0.089 l -0.053,0.029 c -0.058,0.029 -0.115,0.06 -0.17,0.091 l -0.1,0.059 c -0.04,0.024 -0.08,0.047 -0.116,0.072 a 3.65,3.65 0 0 0 -0.48,0.358 v 0 c -0.06,0.053 -0.117,0.106 -0.171,0.161 a 3.281,3.281 0 0 0 -0.263,0.311 l -0.036,0.046 a 3.669,3.669 0 0 0 -0.225,0.341 l -0.039,0.067 -0.023,0.042 c -1.785,2.716 -1.75,8.3099997 1.86,11.7539997 a 3.943,3.943 0 0 0 2.7540004,1.166 h 0.187 c 2.368,-0.075 4.773,-2.067 6.1,-3.423 1.905,-1.946 5.056,-6.1079997 2.079,-9.0939997 z m -7.634,9.1679997 c -0.067,0.031 -0.135,0.061 -0.2,0.089 l -0.115,0.046 c -0.063,0.024 -0.126,0.046 -0.189,0.067 -0.043,0.014 -0.086,0.029 -0.13,0.042 -0.044,0.013 -0.116,0.031 -0.174,0.046 l -0.144,0.035 c -0.044,0.01 -0.1,0.016 -0.145,0.023 a 2.971,2.971 0 0 1 -0.4210004,0.041 h -0.032 a 1.681,1.681 0 0 1 -0.2,-0.008 l -0.083,-0.006 c -0.074,-0.007 -0.148,-0.017 -0.221,-0.031 l -0.039,-0.008 c -0.04,-0.008 -0.08,-0.017 -0.119,-0.027 l -0.1,-0.028 a 2.921,2.921 0 0 1 -0.338,-0.126 c -0.072,-0.033 -0.143,-0.068 -0.211,-0.107 l -0.062,-0.038 c -0.076,-0.046 -0.149,-0.1 -0.22,-0.149 l -0.045,-0.033 a 2.778,2.778 0 0 1 -0.244,-0.215 6.262,6.262 0 0 1 -1.021,-1.262 6.374,6.374 0 0 1 -0.431,-0.833 c -0.081,-0.189 -0.153,-0.381 -0.217,-0.573 a 5.953,5.953 0 0 1 -0.162,-0.582 c -0.045,-0.2 -0.082,-0.388 -0.111,-0.5819997 -0.029,-0.194 -0.048,-0.385 -0.061,-0.576 a 6.571,6.571 0 0 1 0,-0.842 c 0.01,-0.2 0.032,-0.4 0.062,-0.6 0.01,-0.065 0.021,-0.13 0.033,-0.194 0.016,-0.085 0.034,-0.168 0.054,-0.251 0.039,-0.164 0.084,-0.324 0.136,-0.476 a 3.483,3.483 0 0 1 0.763,-1.319 v 0 a 2.683,2.683 0 0 1 0.264,-0.229 l 0.03,-0.024 a 3.135,3.135 0 0 1 0.292,-0.193 l 0.051,-0.031 c 0.1,-0.058 0.206,-0.113 0.315,-0.164 l 0.064,-0.029 a 3.281,3.281 0 0 1 0.346,-0.138 l 0.062,-0.022 c 0.124,-0.042 0.25,-0.08 0.381,-0.113 l 0.05,-0.017 c 0.138,-0.033 0.278,-0.063 0.422,-0.087 h 0.02 c 0.143,-0.023 0.29,-0.041 0.439,-0.055 h 0.056 c 0.146,-0.013 0.295,-0.019 0.4450004,-0.022 h 0.183 a 7.031,7.031 0 0 1 2.239,0.388 c 0.053,0.018 0.1,0.038 0.157,0.058 l 0.088,0.033 a 6.732,6.732 0 0 1 2.2,1.434 v 0 c 0.063,0.064 0.122,0.129 0.177,0.194 0.036,0.042 0.069,0.086 0.1,0.13 l 0.08,0.112 0.069,0.1 c 0.048,0.08 0.094,0.161 0.134,0.245 l 0.013,0.03 c 0.036,0.077 0.066,0.156 0.1,0.236 v 0.016 a 2.367,2.367 0 0 0 -0.568,-0.86 l -0.028,-0.034 c -2.034,-2 -5.1440004,-1.957 -6.2120004,-0.868 -1.068,1.089 -1.049,4.241 1.03,6.2299997 1.6060004,1.539 3.5560004,0.053 4.4500004,-0.86 a 5.736,5.736 0 0 0 1.292,-1.9419997 2.73,2.73 0 0 0 0.174,-1.008 v 0.338 a 1.649,1.649 0 0 1 -0.014,0.169 0.793,0.793 0 0 1 -0.015,0.118 c -0.008,0.055 -0.018,0.109 -0.028,0.163 -0.01,0.054 -0.018,0.09 -0.029,0.135 -0.015,0.067 -0.032,0.133 -0.051,0.2 -0.011,0.037 -0.022,0.074 -0.034,0.112 -0.018,0.054 -0.036,0.108 -0.055,0.162 -0.012,0.031 -0.023,0.063 -0.035,0.1 -0.03,0.077 -0.062,0.154 -0.1,0.23 -0.015,0.034 -0.03,0.068 -0.046,0.1 -0.025,0.055 -0.052,0.1089997 -0.079,0.1629997 -0.015,0.029 -0.029,0.059 -0.045,0.089 -0.039,0.076 -0.08,0.15 -0.123,0.224 -0.017,0.03 -0.034,0.058 -0.051,0.087 -0.032,0.055 -0.065,0.109 -0.1,0.162 l -0.05,0.081 c -0.047,0.072 -0.1,0.144 -0.144,0.215 l -0.049,0.069 c -0.038,0.054 -0.076,0.108 -0.115,0.16 l -0.052,0.071 c -0.051,0.068 -0.1,0.135 -0.155,0.2 l -0.04,0.051 -0.124,0.146 -0.05,0.06 c -0.053,0.062 -0.106,0.123 -0.158,0.181 l -0.024,0.027 c -0.046,0.052 -0.092,0.1 -0.138,0.151 l -0.044,0.048 -0.151,0.157 -0.09,0.091 v 0 l -0.1,0.093 -0.059,0.057 c -0.047,0.045 -0.095,0.091 -0.146,0.137 -0.023,0.022 -0.048,0.044 -0.073,0.066 -0.049,0.045 -0.1,0.09 -0.151,0.135 l -0.077,0.066 c -0.055,0.047 -0.112,0.095 -0.17,0.142 l -0.071,0.058 -0.2,0.158 -0.053,0.04 a 7.853,7.853 0 0 1 -0.853,0.557 l -0.067,0.036 c -0.075,0.04 -0.151,0.08 -0.227,0.117 z m 4.463,-5.9629997 a 4.538,4.538 0 0 1 -1.447,2.8999997 c -0.6,0.61 -2.676,2.472 -4.3590004,0.859 a 5.569,5.569 0 0 1 -1.711,-3.9129997 3.172,3.172 0 0 1 0.682,-2.22 3.154,3.154 0 0 1 2.1780004,-0.726 h 0.027 a 5.591,5.591 0 0 1 3.953,1.626 2.312,2.312 0 0 1 0.552,0.836 v 0 l 0.01,0.027 0.018,0.054 0.008,0.028 v 0 a 2.566,2.566 0 0 1 0.089,0.529 z m 1.514,-0.624 a 5.008,5.008 0 0 1 -0.282,0.984 7.871,7.871 0 0 1 -0.74,1.4 c -0.138,0.2109997 -0.29,0.4249997 -0.451,0.6369997 -0.146,0.191 -0.3,0.385 -0.466,0.575 -0.19,0.221 -0.39,0.439 -0.6,0.65 -0.057,0.058 -0.118,0.118 -0.18,0.179 l -0.054,0.053 -0.151,0.145 -0.054,0.05 c -0.068,0.064 -0.138,0.127 -0.21,0.192 l -0.044,0.038 c -0.059,0.053 -0.12,0.105 -0.188,0.163 l -0.066,0.057 -0.188,0.154 -0.055,0.045 c -0.079,0.063 -0.161,0.125 -0.243,0.188 l -0.074,0.055 -0.191,0.138 -0.084,0.059 c -0.083,0.058 -0.167,0.115 -0.254,0.17 l -0.034,0.022 c -0.083,0.054 -0.167,0.105 -0.253,0.156 l -0.09,0.053 -0.209,0.116 -0.084,0.045 c -0.094,0.049 -0.188,0.1 -0.283,0.14 l -0.067,0.03 -0.231,0.1 -0.043,0.017 0.018,-0.008 c 0.078,-0.038 0.154,-0.078 0.23,-0.119 l 0.067,-0.036 a 7.673,7.673 0 0 0 0.76,-0.489 l 0.1,-0.073 0.053,-0.04 0.2,-0.159 0.071,-0.058 0.145,-0.121 0.027,-0.022 0.076,-0.067 c 0.053,-0.045 0.1,-0.09 0.153,-0.135 l 0.074,-0.067 0.156,-0.148 0.05,-0.047 c 0.064,-0.063 0.127,-0.125 0.186,-0.185 0.059,-0.06 0.1,-0.1 0.152,-0.159 l 0.036,-0.039 0.008,-0.008 0.139,-0.152 0.024,-0.027 c 0.052,-0.059 0.105,-0.12 0.158,-0.183 l 0.051,-0.06 c 0.043,-0.051 0.086,-0.1 0.128,-0.157 l 0.041,-0.05 c 0.052,-0.066 0.1,-0.133 0.156,-0.2 l 0.052,-0.071 0.129,-0.181 0.041,-0.058 c 0.049,-0.072 0.1,-0.144 0.144,-0.217 l 0.051,-0.081 c 0.034,-0.054 0.067,-0.109 0.1,-0.163 0.017,-0.03 0.035,-0.059 0.052,-0.088 0.042,-0.075 0.084,-0.151 0.124,-0.227 l 0.045,-0.09 c 0.028,-0.054 0.055,-0.1090001 0.086,-0.1760001 0.014,-0.03 0.028,-0.06 0.041,-0.09 0.034,-0.078 0.067,-0.155 0.1,-0.233 0.008,-0.021 0.015,-0.041 0.022,-0.061 l 0.013,-0.036 c 0.019,-0.055 0.038,-0.11 0.056,-0.165 0.012,-0.037 0.024,-0.075 0.035,-0.113 0.019,-0.066 0.036,-0.132 0.052,-0.2 0.01,-0.045 0.02,-0.091 0.028,-0.136 0.008,-0.045 0.021,-0.111 0.029,-0.166 0.008,-0.055 0.011,-0.08 0.016,-0.121 0.006,-0.058 0.01,-0.115 0.014,-0.173 0.004,-0.058 0,-0.1 0,-0.157 v -0.191 a 0.229,0.229 0 0 0 0,-0.037 v 0 a 2.585,2.585 0 0 0 -0.092,-0.516 v 0 l -0.011,-0.025 c -0.005,-0.019 -0.012,-0.038 -0.018,-0.056 v 0 l -0.012,-0.03 -0.007,-0.017 c -0.026,-0.075 -0.054,-0.146 -0.088,-0.222 l -0.014,-0.033 -0.005,-0.011 v -0.011 c -0.042,-0.086 -0.088,-0.17 -0.138,-0.251 -0.017,-0.029 -0.036,-0.056 -0.055,-0.084 l -0.015,-0.022 v 0 l -0.008,-0.012 -0.073,-0.1 c -0.034,-0.045 -0.068,-0.089 -0.105,-0.133 a 2.623,2.623 0 0 0 -0.184,-0.2 l -0.007,0.002 a 6.4,6.4 0 0 0 -2.215,-1.44 v 0 l -0.088,-0.034 h -0.012 l -0.02,-0.008 -0.111,-0.041 -0.025,-0.016 h -0.006 a 6.77,6.77 0 0 0 -2.211,-0.392 h -0.231 c -0.1620004,0 -0.3090004,0.01 -0.4480004,0.022 h -0.057 c -0.16,0.015 -0.3,0.033 -0.443,0.056 h -0.021 c -0.068,0.011 -0.137,0.024 -0.208,0.039 -0.071,0.015 -0.144,0.031 -0.219,0.049 l -0.057,0.019 c -0.126,0.032 -0.252,0.069 -0.386,0.114 l -0.068,0.023 -0.081,0.03 c -0.091,0.034 -0.181,0.07 -0.269,0.109 l -0.065,0.03 c -0.114,0.053 -0.221,0.109 -0.321,0.167 l -0.052,0.031 c -0.1,0.062 -0.2,0.129 -0.292,0.2 l -0.03,0.025 a 2.663,2.663 0 0 0 -0.259,0.227 l -0.026,0.014 v 0.013 a 3.592,3.592 0 0 0 -0.762,1.324 4.737,4.737 0 0 0 -0.139,0.482 c -0.02,0.084 -0.037,0.168 -0.054,0.254 a 6.335,6.335 0 0 0 -0.1,0.8 6.7,6.7 0 0 0 0,0.85 c 0.013,0.192 0.033,0.388 0.062,0.582 0.029,0.1939991 0.066,0.3939991 0.112,0.5869991 0.046,0.193 0.1,0.393 0.164,0.586 0.064,0.193 0.137,0.39 0.218,0.579 a 6.691,6.691 0 0 0 0.435,0.841 l 0.075,0.12 a 7.839,7.839 0 0 1 -0.864,-1.485 l -0.021,-0.047 c -0.011,-0.025 -0.021,-0.05 -0.031,-0.075 l -0.02,-0.048 a 8.268,8.268 0 0 1 -0.6,-2.6619991 l -0.007,-0.161 v -0.536 c 0,-0.164 0.015,-0.334 0.032,-0.52 l 0.008,-0.088 c 0.016,-0.16 0.038,-0.323 0.065,-0.485 l 0.016,-0.091 c 0.03,-0.165 0.064,-0.322 0.1,-0.467 l 0.017,-0.063 c 0.042,-0.159 0.087,-0.309 0.134,-0.446 l 0.009,-0.022 c 0.048,-0.136 0.1,-0.274 0.168,-0.421 l 0.032,-0.065 c 0.056,-0.123 0.12,-0.247 0.19,-0.369 0.012,-0.022 0.025,-0.044 0.038,-0.065 a 3.83,3.83 0 0 1 0.217,-0.33 l 0.039,-0.045 a 3.311,3.311 0 0 1 0.255,-0.3 c 0.041,-0.042 0.084,-0.083 0.128,-0.123 v 0 a 3.6,3.6 0 0 1 0.5,-0.378 c 0.036,-0.024 0.074,-0.046 0.113,-0.069 l 0.1,-0.057 c 0.054,-0.03 0.109,-0.061 0.165,-0.089 l 0.05,-0.025 c 0.059,-0.029 0.119,-0.058 0.181,-0.086 l 0.044,-0.019 c 0.065,-0.028 0.131,-0.056 0.2,-0.083 l 0.033,-0.011 c 0.072,-0.028 0.145,-0.056 0.235,-0.086 a 7.461,7.461 0 0 1 2.2230004,-0.369 h 0.045 a 8.593,8.593 0 0 1 2.828,0.444 7.856,7.856 0 0 1 2.888,1.781 v 0.019 l 0.026,0.013 a 3.056,3.056 0 0 1 0.94,2.1 3.713,3.713 0 0 1 -0.054,0.7370004 z"/>

</svg>