<svg role="img" viewBox="0 0 24 24" xmlns="http://www.w3.org/2000/svg"><title>France3</title>
    <path
       d="m 15.81886,22.232585 c -1.87212,-0.13881 -3.66288,-0.90752 -5.13695,-2.20511 -0.27668,-0.24356 -0.91648,-0.89139 -0.90692,-0.9183 0.007,-0.0189 2.78482,-2.34126 2.79948,-2.34021 0.006,3.9e-4 0.0641,0.0733 0.13018,0.16204 0.48448,0.65047 1.3406,1.29455 2.11204,1.58894 1.45892,0.55674 3.07332,0.24022 4.18293,-0.82013 0.89409,-0.8544 1.27475,-2.08409 1.02438,-3.30915 -0.12198,-0.59687 -0.43901,-1.22544 -0.85655,-1.6983 -0.98144,-1.11145 -2.68355,-1.53404 -4.39818,-1.09195 -0.26697,0.0688 -0.71599,0.23194 -0.91757,0.3333 -0.0741,0.0372 -0.13942,0.0677 -0.1452,0.0677 -0.006,0 -0.0105,-0.51744 -0.0105,-1.14986 V 9.7017051 l 1.88255,-2.23377 c 1.0354,-1.22858 1.88254,-2.23871 1.88254,-2.24474 0,-0.006 -1.51855,-0.011 -3.37456,-0.011 h -3.37457 v -1.73234 -1.73235 h 6.14832 6.14832 v 1.15064 1.15064 l -1.83324,2.25654 c -1.00829,1.2411 -1.83043,2.25936 -1.82698,2.26281 0.003,0.003 0.10969,0.0506 0.23609,0.10479 1.08535,0.46528 2.0128,1.12873 2.74893,1.9664399 0.95975,1.09221 1.46752,2.22993 1.64022,3.67515 0.0351,0.29367 0.0352,1.38887 2e-4,1.67226 -0.14279,1.15478 -0.4457,2.02675 -1.03077,2.9672 -1.2853,2.06593 -3.76166,3.31802 -6.52336,3.29829 -0.20378,-0.001 -0.47415,-0.0103 -0.60082,-0.0197 z M 3.54769,18.829255 c -1.06305,-0.0817 -2.09882,-0.64838 -2.75317995,-1.50621 -1.10588,-1.44976 -1.05238,-3.45391 0.12963,-4.8562 C 1.70535,11.540035 2.94549,11.020635 4.14412,11.118235 c 0.93502,0.0761 1.7409,0.43656 2.39939,1.07315 0.44551,0.43068 0.75675,0.90783 0.96275,1.47595 0.23701,0.65361 0.28787,1.40807 0.14218,2.10921 -0.27719,1.33409 -1.27255,2.44406 -2.57522,2.87177 -0.29741,0.0977 -0.58465,0.15435 -0.92,0.18158 -0.27902,0.0226 -0.30287,0.0226 -0.60553,-6.4e-4 z"
       fill="#44739e" />
</svg>
