<svg xmlns="http://www.w3.org/2000/svg" viewBox="0 0 24 24"><path fill="#44739e" d="m16.649 10.772-1.754-5.526c.614-.264.965-.614.965-1.053v-.614C15.86 2.702 14.105 2 12 2s-3.86.702-3.86 1.579v.614c0 .439.351.789.965 1.053l-1.754 5.526C4.368 11.298 2 12.439 2 14.105v4.123C2 20.684 7.175 22 12 22s10-1.316 10-3.772v-4.123c0-1.666-2.368-2.807-5.351-3.333M12 15.947c2.018 0 3.772.176 5.175.527-1.403.351-3.157.526-5.175.526-1.93 0-3.684-.175-5.175-.526 1.403-.263 3.157-.527 5.175-.527m2.018-10.438 1.666 5.087a19.5 19.5 0 0 0-3.245-.263V5.772q.921 0 1.579-.263m-4.036 0a9 9 0 0 0 1.579.175v4.562c-1.052 0-2.193.087-3.245.263ZM12 20.421c-5.263 0-8.509-1.316-8.509-2.193 0-.439.614-.877 1.755-1.228 1.929.614 4.386.965 6.754.965s4.912-.351 6.754-.965c1.141.439 1.755.877 1.755 1.228 0 .877-3.246 2.193-8.509 2.193"/></svg>