<svg viewBox="0 0 24 24" height="24px" width="24px" fill="#44739e" xmlns="http://www.w3.org/2000/svg"><title>hue:friends-of-hue-iq-flush</title><path d="M20.2,6.7C19,5.4,15.8,4.6,12,4.6c-3.8,0-7,0.7-8.2,2.1c-1.9,0.7-3.2,1.7-3.2,3v4.7c0,2.8,5.9,4.3,11.4,4.3 c5.5,0,11.4-1.5,11.4-4.3V9.8C23.4,8.5,22.1,7.5,20.2,6.7z M17.9,12.5c-1.6,0.4-3.6,0.6-5.9,0.6c-2.2,0-4.2-0.2-5.9-0.6 c1.6-0.3,3.5-0.6,5.9-0.6C14.3,11.9,16.3,12.2,17.9,12.5z M12,17c-6,0-9.7-1.5-9.7-2.5c0-0.5,0.7-1,2-1.4c2.2,0.7,5,1.1,7.7,1.1 c2.7,0,5.6-0.4,7.7-1.1c1.3,0.5,2,1,2,1.4C21.7,15.5,18,17,12,17z"/></svg>