<svg xmlns="http://www.w3.org/2000/svg" viewBox="0 0 24 24"><path fill="#44739e" d="M21.627 2.009H2.444c-.178 0-.444.266-.444.444v19.094c0 .267.178.444.444.444h19.094c.267 0 .444-.177.444-.444V2.453c.089-.178-.177-.444-.355-.444m-.444 19.183H2.888V2.897h18.206v18.295Zm-14.92-3.375h11.456c.267 0 .445-.178.445-.444V6.716c0-.267-.178-.444-.445-.444H6.263c-.267 0-.444.177-.444.444v10.657c0 .266.177.444.444.444m11.012-.888H12.48V7.16h4.795ZM6.707 7.16h4.885v9.769H6.707Zm1.421 1.776h1.954c.266 0 .444-.178.444-.444s-.267-.444-.444-.444H8.128c-.267 0-.444.178-.444.444s.177.444.444.444m1.954 6.306H8.128c-.267 0-.444.177-.444.444s.177.444.444.444h1.954c.266 0 .444-.178.444-.444s-.267-.444-.444-.444m3.907-6.306h1.954c.267 0 .444-.178.444-.444s-.177-.444-.444-.444h-1.954c-.266 0-.444.178-.444.444s.178.444.444.444m1.954 6.306h-1.954c-.266 0-.444.177-.444.444s.178.444.444.444h1.954c.267 0 .444-.178.444-.444s-.177-.444-.444-.444"/></svg>