<svg viewBox="0 0 24 24" height="24px" width="24px" fill="#44739e" xmlns="http://www.w3.org/2000/svg"><path d="M15.45,2.76c-0.17-0.04-0.34-0.06-0.51-0.06h-0.08h-4.17H9.86c-2.94,0-5.25,3.97-5.25,9.03 c0,5.06,2.31,9.03,5.25,9.03h0.83h4.17h0.08c0.17,0,0.34-0.02,0.51-0.06c2.66-0.49,4.66-4.25,4.66-8.97 C20.11,7.01,18.11,3.25,15.45,2.76z M11.69,19.76h-0.83c-0.06,0-0.12-0.01-0.18-0.02c2.02-0.6,3.52-3.86,3.52-7.92 c0-4.37-1.74-7.82-3.99-8.01c0.21-0.06,0.43-0.11,0.65-0.11h0.83c1.71,0,3.54,3.23,3.54,8.03S13.4,19.76,11.69,19.76z"/></svg>