<svg xmlns="http://www.w3.org/2000/svg" viewBox="0 0 24 24"><path fill="#44739e" d="M8.89 12.096c0 3.237-.99 5.857-2.204 5.857s-2.205-2.62-2.205-5.857.991-5.857 2.205-5.857S8.89 8.858 8.89 12.096m4.622-9.659a3 3 0 0 0-.522-.054H7.591C4.46 2.383 2 6.611 2 12s2.46 9.617 5.591 9.617h5.41c.17 0 .352-.022.522-.054 2.843-.5 4.995-4.515 4.995-9.563s-2.162-9.063-5.006-9.563M3.289 12.096c0-4.473 1.757-7.487 3.397-7.487s3.397 3.003 3.397 7.487-1.757 7.487-3.397 7.487-3.397-3.014-3.397-7.487m5.175 8.456h-.873a1.3 1.3 0 0 1-.202-.022c2.151-.628 3.759-4.1 3.759-8.434 0-4.654-1.853-8.318-4.249-8.531a2.6 2.6 0 0 1 .692-.117h.873c1.821 0 3.77 3.44 3.77 8.552s-1.949 8.552-3.77 8.552M19.476 6.239a.52.52 0 0 0-.5.234.55.55 0 0 0-.032.543c.585 1.108.926 2.971.926 4.984s-.351 3.876-.926 4.984a.5.5 0 0 0 .032.543.52.52 0 0 0 .436.234h.053C21.329 17.57 22 14.662 22 12s-.66-5.57-2.524-5.761"/></svg>