<svg xmlns="http://www.w3.org/2000/svg" viewBox="0 0 24 24"><path fill="#44739e" d="M12.48 7.16v9.769h4.795V7.16Zm3.463 8.97h-1.954c-.266 0-.444-.178-.444-.444s.178-.444.444-.444h1.954c.267 0 .444.177.444.444s-.177.444-.444.444m0-7.194h-1.954c-.266 0-.444-.178-.444-.444s.178-.444.444-.444h1.954c.267 0 .444.178.444.444s-.177.444-.444.444M6.707 7.16v9.769h4.885V7.16Zm3.375 8.97H8.128c-.267 0-.444-.178-.444-.444s.177-.444.444-.444h1.954c.266 0 .444.177.444.444s-.267.444-.444.444m0-7.194H8.128c-.267 0-.444-.178-.444-.444s.177-.444.444-.444h1.954c.266 0 .444.178.444.444s-.267.444-.444.444m11.545-6.927H2.444c-.178 0-.444.266-.444.444v19.094c0 .267.178.444.444.444h19.094c.267 0 .444-.177.444-.444V2.453c.089-.178-.177-.444-.355-.444m-3.463 15.364c0 .266-.178.444-.445.444H6.263c-.267 0-.444-.178-.444-.444V6.716c0-.267.177-.444.444-.444h11.456c.267 0 .445.177.445.444Z"/></svg>