<svg xmlns="http://www.w3.org/2000/svg" viewBox="0 0 24 24"><path fill="#44739e" d="M21.627 2.009H2.444c-.178 0-.444.266-.444.444v19.094c0 .267.178.444.444.444h19.094c.267 0 .444-.177.444-.444V2.453c.089-.178-.177-.444-.355-.444m-.444 19.183H2.888V2.897h18.206ZM8.128 8.936h1.954c.266 0 .444-.178.444-.444s-.267-.444-.444-.444H8.128c-.267 0-.444.178-.444.444s.177.444.444.444m1.954 6.306H8.128c-.267 0-.444.177-.444.444s.177.444.444.444h1.954c.266 0 .444-.178.444-.444s-.267-.444-.444-.444m3.907-6.306h1.954c.267 0 .444-.178.444-.444s-.177-.444-.444-.444h-1.954c-.266 0-.444.178-.444.444s.178.444.444.444m1.954 6.306h-1.954c-.266 0-.444.177-.444.444s.178.444.444.444h1.954c.267 0 .444-.178.444-.444s-.177-.444-.444-.444m1.776-9.326H6.174c-.533 0-.888.356-.888.889v10.657c0 .533.355.888.888.888h11.457c.533 0 .888-.355.888-.888V6.805c.089-.533-.355-.889-.8-.889m-.444 1.244v9.769H12.48V7.16Zm-5.683 0v9.769H6.707V7.16Z"/></svg>