<svg viewBox="0 0 24 24" height="24px" width="24px" fill="#44739e" xmlns="http://www.w3.org/2000/svg"><title>hue:friends-of-hue-iq-pendant</title><path d="M17.3,10.6l-2-6.3C16,4,16.4,3.6,16.4,3.1l0-0.7c0-1-2-1.8-4.4-1.8S7.6,1.4,7.6,2.4l0,0.7C7.6,3.6,8,4,8.7,4.3l-2,6.3 c-3.4,0.6-6.1,1.9-6.1,3.8v4.7c0,2.8,5.9,4.3,11.4,4.3c5.5,0,11.4-1.5,11.4-4.3v-4.7C23.4,12.5,20.7,11.2,17.3,10.6z M12,16.5 c2.3,0,4.3,0.2,5.9,0.6c-1.6,0.4-3.6,0.6-5.9,0.6c-2.2,0-4.2-0.2-5.9-0.6C7.7,16.8,9.7,16.5,12,16.5z M14.3,4.6l1.9,5.8 c-1.2-0.2-2.4-0.3-3.7-0.3V4.9C13.2,4.9,13.8,4.8,14.3,4.6z M9.7,4.6c0.5,0.1,1.2,0.2,1.8,0.2v5.2c-1.2,0-2.5,0.1-3.7,0.3L9.7,4.6z M12,21.6c-6,0-9.7-1.5-9.7-2.5c0-0.5,0.7-1,2-1.4c2.2,0.7,5,1.1,7.7,1.1c2.7,0,5.6-0.4,7.7-1.1c1.3,0.5,2,1,2,1.4 C21.7,20.1,18,21.6,12,21.6z"/></svg>