<svg xmlns="http://www.w3.org/2000/svg" viewBox="0 0 24 24"><path fill="#44739e" d="M6.043 22h-.049l-.156-.164-.16-.164-.193-.293-.194-.292-.205-.36-.205-.36-.325-.654-.324-.654-.149-.36-.149-.36-.075-.215-.074-.214-.103-.41-.103-.411-.068-.337-.067-.338-.057-.395-.056-.394-.026-.349-.027-.349.013-.289.013-.288.058-.103.057-.103.103-.091.102-.091.23-.137.23-.137.277-.132.279-.131.373-.159.374-.158.776-.297.775-.298.339-.136.337-.136.17-.085.168-.085.051-.047.051-.049v-.059l-.041-.016-.042-.038-.081-.027-.075-.024-.607-.013-.61-.016-.06-.039-.061-.04v-.091l.096-.042.096-.041.336-.049.335-.05.127-.033.126-.032.115-.053.114-.052.246-.247.246-.248.192-.096.192-.093.229-.079.229-.079.103-.049.102-.049.103-.077.103-.078.124-.188.124-.187.128-.278.134-.28.103-.282.102-.281.075-.26.076-.259.028-.14.028-.141-.011-.122-.01-.121-.062-.126-.061-.126-.126-.165-.128-.163-.347-.368-.347-.369-.065-.102-.066-.103v-.165l.072-.095.064-.09.178-.115.177-.119.27-.13.271-.13.371-.158.372-.158.586-.242.586-.242.394-.144.394-.146.699-.233.698-.233.767-.237.766-.236.688-.206.686-.205.666-.184.665-.184.566-.144.567-.144.323-.066.324-.067.137-.016.139-.015.014.024.016.024-.028.044-.028.045-.153.102-.153.103-.287.146-.289.146-.489.217-.49.217-.524.212-.524.211-.719.275-.718.274-.574.238-.575.238-.495.224-.496.224-.35.178-.349.178-.188.112-.188.112-.109.084-.108.082-.029.054-.029.055.029.205.029.205.012.316.005.326-.06.507-.059.507-.044.24-.046.24-.053.165-.054.166-.035.135-.035.136-.028.265-.028.264.027.277.027.275.046.178.047.178.064.126.064.127.102.14.103.14.139.121.14.121.108.073.108.073.102.049.103.049h2.829l.226.038.225.039.117.036.117.037.047.044.048.044-.008.027-.009.026-.058.027-.056.029-.167.022-.167.021-.441.035-.443.034-.174.034-.175.033-.071.042-.07.041-.008.048-.006.048.074.04.075.041.789.012.791.011.06.04.062.04v.047l-.023.041-.021.04-.095.038-.093.038-.243.025-.243.026-1.348-.027-1.349-.024-.225-.022-.226-.022-.205-.034-.205-.034-.073-.02-.073-.022-.045.152-.045.152-.254.04-.254.041-.271.019-.27.018-.205.047-.205.049-.429.012-.428.013-.276-.037-.266-.044-.197-.013-.197-.013-.18.06-.181.06-.25.131-.252.132-.271.172-.271.171-.289.206-.29.205-.292.228-.294.228-.308.261-.308.262-.185.196-.186.196-.077.162-.077.163-.036.163-.037.163-.024.288-.023.287.014.282.015.281.033.485.034.484-.016 1.097-.031 1.093.026.36.025.361.037.124.037.124.044.09.046.09.122.194.121.194.013.068.014.068-.053.037-.052.036Z"/></svg>