<svg xmlns="http://www.w3.org/2000/svg" fill="#44739e" width="24" height="24" version="1.1" viewBox="0 0 24000 24000"><path d="M5179 2754c-213 88-200 40-800 3100-169 829-350 1768-420 2086a216020 216020 0 00-350 1775c-126 658-320 1653-432 2210-110 557-306 1550-434 2209s-258 1328-292 1487c-34 159-107 530-163 826-56 296-120 620-143 722-180 846-180 846-109 986a500 500 0 00 200 193c120 55 2985 640 3760 768 354 58 330 126-35 94l-206-17 166 56a3271 3271 0 00 454 100 17956 17956 0 01 1818 351 8291 8291 0 00 910 187c317 50 810 142 1093 210 287 68 780 177 1097 243 318 67 673 148 790 181 190 53 514 120 2222 464 294 60 647 122 785 141 138 21 464 71 725 115 260 44 745 113 1074 152 330 40 720 100 867 132a1871 1871 0 00 610 33c326-26 340-32 340-129a563 563 0 01 58-213 8382 8382 0 00 300-1432 3012018 3012018 0 01 680-3840c323-1874 290-1747 500-1935 100-92 200-149 240-136 157 51 655 200 786 233 194 50 443 48 475 0 13-24-40-40-134-40-278 0-1184-289-1118-355a268 268 0 01 136 20c66 20 241 68 390 108 147 40 388 108 536 151l268 80 73-90a339 339 0 00 54-400c-92-182-192-234-684-359a2815 2815 0 01-500-157 1777 1777 0 01-367-735c0-76 94-668 208-1315 115-647 245-1380 288-1630l140-800c63-350 210-1190 250-1426 46-273 150-850 230-1273 168-906 170-900-847-1292-273-100-617-238-764-300a2025 2025 0 00-857-125 5365 5365 0 00-590 0c0 8-37 238-83 510l-120 723c-20 123-54 311-78 413a7855 7855 0 00-90 500c-27 175-73 422-100 558a7590 7590 0 00-80 433 9948 9948 0 01-90 517c-37 182-80 423-100 536l-100 580a13510 13510 0 00-100 600c-16 125-66 375-100 557a11960 11960 0 00-100 600 2164 2164 0 01-80 384 784 784 0 00-46 237 1663 1663 0 01-40 300c-72 332-130 630-165 857a6833 6833 0 01-167 924 948 948 0 00-40 251 1036 1036 0 01-37 252 6067 6067 0 00-105 533c-37 227-93 534-125 682a8323 8323 0 00-100 578c-20 171-72 421-99 557-27 136-66 322-77 413-10 91-52 333-90 537-36 204-82 465-100 578a5490 5490 0 01-74 393 7704 7704 0 00-92 500c-26 175-73 431-100 578-27 148-86 455-124 683-38 228-87 481-108 564-48 194-244 406-377 406-56 0-425-66-820-147a929630 929630 0 00-3980-800c-1793-357-3438-700-3654-744a88730 88730 0 00-2735-575c-901-180-1681-353-1727-382-130-80-144-220-67-630 39-205 100-512 127-682 27-170 80-412 106-537 26-127 73-350 100-500 27-154 160-809 290-1468 127-659 358-1839 513-2622 155-783 350-1778 433-2210l190-970a370800 370800 0 00 720-3655 10909 10909 0 01 457-2018 391 391 0 01 214-106c188-33 3757 50 5300 124a6023 6023 0 00 1219 7c100-37 55-45-300-48-233 0-600-20-805-42a48168 48168 0 00-2490-105C7112 2770 5970 2740 5720 2730a2411 2411 0 00-545 20m6767 261c-50 100-544 2686-544 2850a173 173 0 00 76 148c53 30 1748 168 2063 168 108 0 180-266 416-1528 138-738 266-1388 285-1445l34-98 900 15c500 8 988 30 1090 50a15900 15900 0 01 1069 323 3623 3623 0 01 1000 400c100 92 118 100 118 40 0-157-200-257-1142-560l-943-300-1012-33a22081 22081 0 01-1115-53c-57-10-588-30-1182-40-1076-20-1080-20-1123 70m1516 55c510 24 583 35 520 83-65 48-72 55 13 55 115 0 116 58 10 622a17758 17758 0 01-445 2192 3087 3087 0 01-864 0c-1170-67-1170-67-1170-206 0-122 219-1347 390-2193l106-523a5385 5385 0 01 1440-28m3030 331a100 100 0 00-51 91c0 40-148 870-328 1844-322 1740-550 2990-2000 10907-400 2161-740 3968-766 4016-40 75-35 87 32 87a200 200 0 00 136-72c52-66 50-67-18-14-68 51-70 50-33-43 23-55 146-685 273-1400 127-715 267-1486 310-1714a2189780 2189780 0 00 933-5100c30-172 400-2169 812-4440l754-4133 247 74c340 101 390 70 64-40-280-96-283-96-363-63m-4580 924a600 600 0 01-44 137c-70 166-63 400 10 400a453 453 0 01 134 27c73 26 73 24 0-55a285 285 0 01 167-470c90 0 100-10 45-40-55-30-322-40-316 0M19000 4400c331 23 537 153 537 337 0 184-91 235-363 150a1965 1965 0 01-628-270 1641 1641 0 01 26-163c20-100 42-125 93-100A1730 1730 0 00 19000 4400m-364 55c11 75 77 116 339 211a1015 1015 0 00 350 90c15-15 1-36-26-46-27-10-43-32-32-50 10-16-87-63-217-100a1800 1800 0 01-332-133c-91-58-95-56-82 32m1043-7c133 147 52 200-87 55-100-107-115-135-58-135a242 242 0 01 145 80m-6067 100a411 411 0 00-7 420c49 67 59 40 78-231a1613 1613 0 00 7-320c-10-6-44 54-78 136M12170 4540c-75 105-87 264-25 300 23 13 40-13 40-58 0-107 86-294 135-294 20 0 27 33 16 73-11 40-32 128-45 200l-23 124 65-139a477 477 0 00 50-207c-20-100-140-100-213 0m7746 190c0 84-100 680-216 1330a1175927 1175927 0 01-1091 6131c-123 685-300 1660-390 2171l-330 1860-484 2670a50220 50220 0 01-350 1847c-22 60-27 107 0 107a41 41 0 00 40-43c0-63 172-50 800 65 317 58 600 107 630 110 90 7 53 72-43 72-51 0-362-47-691-100a3974 3974 0 00-733-78c-156 30-152 48-73-366 34-177 330-1830 660-3676l1070-6000 562-3138 315-1755A13271 13271 0 00 19800 4560c-21-108-18-110 45-48a305 305 0 01 62 220m-7440-164a405 405 0 00-43 158 364 364 0 01-64 168c-60 86-60 92 20 92 54 0 85-27 86-72 0-125 85-386 118-365a448 448 0 01 5 230c-16 119-10 197 10 168a575 575 0 00 45-237c6-158-7-200-62-214a119 119 0 00-114 68m335-25c-60 77-130 400-86 400 20 0 57-81 83-184 85-335 160-265 80 75-25 114-22 153 13 140 65-20 110-412 50-450-57-40-90-40-140 20m310 25a242 242 0 00 30 370l100 45-69-120c-64-115-64-130 0-247 78-138 42-165-64-48m260 28c-80 86-90 124-57 213a400 400 0 00 142 174c100 64 100 64 30-20a306 306 0 01-7-380c86-124 13-115-108 13m5308 356a4812 4812 0 01 464 170c252 100 300 139 300 220 0 200-170 200-775-30-171-63-216-100-216-170 0-50 14-72 30-50a2886 2886 0 00 784 253c23-24-183-120-534-248a760 760 0 01-242-130c-60-72-30-75 188-15m2645 1298a409030 409030 0 00-233 1313c-86 500-113 653-386 2190a478510 478510 0 00-450 2580c-12 78-20 68-22-42a12124 12124 0 01 220-1445l210-1177 200-1156 270-1508c116-648 232-1307 260-1466 26-160 53-250 60-200a8656 8656 0 01-128 909m-2460-625c408 137 530 222 490 344-40 122-192 132-617-20-366-132-400-150-400-252 0-77 10-92 37-52a3400 3400 0 00 807 294c100 0-76-100-350-188-300-101-410-164-410-227 0-44 49-33 443 100m-386 400c30 63 136 123 319 185 406 137 457 170 442 300-20 165-222 167-644 6-300-116-340-140-340-237 0-97 8-100 53-44a2943 2943 0 00 782 283c100 0-115-113-387-200-320-100-361-143-356-327 0-142 46-130 130 37m-121 560c7 50 80 100 214 150l376 137c273 100 280 348 9 348a2032 2032 0 01-823-314c0-73-20-75 359 40 177 55 367 110 422 123 200 45-5-84-244-157a3051 3051 0 01-318-114 300 300 0 01-114-324c36-58 100 0 119 110m-100 573c24 59 100 118 236 165 509 186 556 215 542 338-18 160-176 166-612 20-300-100-352-130-360-216-5-55 0-76 14-48a93 93 0 00 77 52 2794 2794 0 01 370 100 2612 2612 0 00 365 100c106 0-120-125-352-190-330-92-436-181-412-342 20-138 77-130 133 17m-120 556c38 100 90 137 372 230 326 110 450 187 450 283 0 96-92 150-207 150a2130 2130 0 01-700-233c-36-30-74-48-84-37-10 10-22-20-25-65-3-46 8-73 43-47a934 934 0 00 216 86c90 26 255 75 364 109 345 106 200-24-160-144-265-88-335-130-365-215-30-87-13-240 38-240 13 0 43 55 66 120m-88 580c0 107 67 149 400 250 334 100 400 154 378 300-23 146-200 140-568 15a3604 3604 0 00-337-105c-17 0-17 50 0 113 30 118 77 140 590 320 206 74 284 189 200 290-70 86-178 79-560-34-217-65-330-120-340-165-17-86 0-85 323 15a2028 2028 0 00 350 82c143 0 11-73-300-164-355-100-410-172-337-415 27-90 70-166 94-166a3232 3232 0 01 355 100c292 93 400 100 354 28a1115 1115 0 00-290-106c-355-100-469-185-445-347 20-135 133-140 133-7m-190 1200c32 65 141 125 364 200 364 122 417 162 400 300-17 138-172 145-592 17-232-70-350-128-350-168 0-80 8-78 393 38a1400 1400 0 00 360 80c68-40-20-89-300-160-337-88-488-210-420-340a176 176 0 00 32-100c-7-10 5-6 27 12a527 527 0 01 86 126m-138 528c0 108 66 152 350 233a2626 2626 0 01 362 130c186 93 127 300-86 300a2827 2827 0 01-740-218c-60-50-66-18-13 81a965 965 0 01 58 137c13 41 145 100 354 161 362 101 430 154 410 301-10 70-45 100-134 110-214 22-810-170-810-265 0-42 90-30 377 48a1471 1471 0 00 400 78c40-39-80-98-381-173-342-88-410-164-356-400a536 536 0 00 20-190 1700 1700 0 01 380 90 2127 2127 0 00 417 100c46-46-51-100-310-168-381-100-465-169-410-319 50-133 109-153 109-39m-190 1212c35 70 147 127 418 218 380 127 458 200 349 332-73 88-267 74-628-47-453-150-424-257 33-122 112 33 267 71 345 84 263 46 64-89-243-164-330-80-431-167-391-328 30-119 47-116 118 27m-54 652a1035 1035 0 00 357 142c320 80 393 134 373 280-12 80-42 100-180 106a1576 1576 0 01-752-226c-20-60 209-30 459 56 187 65 314 70 314 16a1226 1226 0 00-465-167 739 739 0 01-173-64c-102-47-134-88-127-155 23-220 23-220 74-136a1029 1029 0 00 116 150m-170 499c0 92 133 160 475 240 342 80 448 229 248 356-148 93-984-146-880-252a1118 1118 0 01 340 60 2347 2347 0 00 406 86c87 0 88 0 18-58a1483 1483 0 00-360-126c-322-79-420-160-368-300 45-116 120-120 120-8m3370 807c118 93 52 94-200 0-207-75-255-109-247-174 7-45 23-178 37-295l25-213 167 316a2056 2056 0 00 220 363m-3450-162c0 30 100 82 236 118 460 126 526 160 540 271 20 190-79 222-418 141-393-95-592-178-543-228 24-24 156-8 348 42 334 87 537 106 473 44a1982 1982 0 00-380-128 1420 1420 0 01-382-142 277 277 0 01-16-188c24-126 30-130 82-60a283 283 0 01 56 130m2870 384a1375 1375 0 01-140 554 869 869 0 01 22-339c30-200 56-424 57-500 0-139 6-140 46-40a874 874 0 01 15 330m1230-69c375 100 567 224 567 366 0 124-110 132-468 33a2251 2251 0 00-450-87c-120 6-157-65-57-100a4184 4184 0 01 866 212c60 24 73 15 62-44-10-59-100-100-347-166a1400 1400 0 01-618-266c-38-62 45-52 445 55m-4223 195c0 107 72 150 412 244 374 100 448 164 380 310-56 126-126 130-510 30-279-73-377-68-399 24-14 74 144 160 400 217 375 84 517 234 350 372a1478 1478 0 01-780-115c-264-100-80-136 300-52a954 954 0 00 358 41c30-47 10-56-420-164-325-82-375-106-362-174 34-176 70-238 135-239 66 0 58-8 13-36-46-28-50-55-42-78 10-23 123-13 300 34 315 81 534 100 500 42a1667 1667 0 00-392-127c-324-80-370-100-394-200a200 200 0 01 17-155c23-28 30-65 13-80-17-17 0-18 41 0a117 117 0 01 70 100m2638 1754-288 1632c-46 262 30-182 0 0-274 1600-707 4014-750 4150-73 236-164 311-374 311a21070 21070 0 01-2787-474c-84-83 267-100 788-46 300 33 328 30 418-55l100-90 20 100c13 70 0 100-32 81a67 67 0 00-80 25 375 375 0 01-216 44c-105 0-182 8-172 18 10 10 500 88 1086 173 1042 150 1070 152 1125 76 70-100 100-230 217-907 50-300 126-732 170-970 282-1578 350-1952 515-2912l120-682 124-722c122-720 175-957 206-925 10 11-76 537-188 1173m-2834-558c-24 92 67 147 344 207 410 90 530 193 408 360-50 66-77 67-357 16-443-80-467-79-482 25-10 80 20 100 227 157 536 148 634 221 500 378-55 67-78 66-670-12-192-24-200-20-185 74 14 95 57 110 358 186 383 100 433 130 413 265-20 135-140 158-500 88-270-52-330-53-358-7-58 95 0 155 200 206 580 150 675 220 518 376-86 86-90 86-422 18-355-72-420-63-420 60 0 87 34 100 400 188 317 74 383 118 383 252s-137 161-413 100c-276-63-442-59-476 0q-78 125 377 226c300 68 430 140 430 244 0 105-120 158-300 134l-390-53c-214-28-217-27-217 78s20 112 333 180c407 87 473 130 436 277-24 95-50 110-186 110a2480 2480 0 01-370-40c-246-47-338-24-338 82 0 82 14 90 430 183 331 75 397 117 374 238-34 176-100 184-615 70-454-100-427-100-448 13-16 80-20 77-24-20-7-148 114-179 462-119a2877 2877 0 00 383 44c188 0 45-67-269-125a1439 1439 0 01-382-117l-109-67 74-153c41-84 64-163 51-175-38-39 265-25 483 21a1125 1125 0 00 300 30c81-13 75-20-50-62a4246 4246 0 00-382-95c-268-53-392-140-320-228a187 187 0 00 33-130c-7-42 10-70 37-65 28 6 40-15 30-45-28-70 62-70 408 1 325 66 400 70 400 23a2985 2985 0 00-830-190c-18 11-7-68 26-177 33-109 60-200 60-210 0-10 24 0 52 18 30 18 40 15 0-35-83-105-12-110 383-27a1051 1051 0 00 406 41c20-20-56-57-184-86a7517 7517 0 01-437-114c-192-57-214-75-187-152a586 586 0 00 26-176c0-60 15-84 54-69s50 0 32-44c-30-82 13-82 335-5 280 68 534 82 433 25a3281 3281 0 00-410-122 2818 2818 0 01-367-108c-36-36 78-355 118-330 20 11 30 0 16-40s-40-66-60-66a42 42 0 01-38-46c0-30 17-33 52-7a2000 2000 0 00 782 144c27-27-67-65-284-110-420-94-480-138-445-327 20-113 42-140 95-120 53 20 60 16 10-46-30-38-50-77-40-84a1112 1112 0 01 263 40c456 101 558 113 558 70a687 687 0 00-300-115c-320-77-527-165-527-222 0-92 110-236 166-217 56 20 52 8 10-42-80-100-26-110 250-53 400 86 524 102 524 61s-186-100-470-146a675 675 0 01-266-120c-100-84-100-106-60-200 56-123 180-110 146 13m-12360 53a7168 7168 0 00-200 940c0 20 28 47 63 60 35 13 82-17 124-117a900 900 0 01 164-247c100-100 100-109 37-208-75-115-54-228 42-228a154 154 0 00 113-195 284 284 0 00-164-66c-105-17-144 0-178 60m1100 206a2751 2751 0 00-192 800c0 60 24 100 60 100 80 0 100-47 140-254 30-182 137-293 211-219 30 30 27 151-7 381-50 340-26 453 80 387a939 939 0 00 115-338 659 659 0 01 195-427c120-108 124-124 60-170a924 924 0 00-485-80 48 48 0 00-10 68c16 26 8 33-20 15-28-18-48-7-48 21s-10 40-24 27a300 300 0 01 16-165c53-190 0-282-90-148m828 22a156 156 0 00 60 234c83 22 80 37-100 372-100 192-190 360-190 371 0 12 88 45 326 90 194 36 295-163 106-210-57-14-100-48-100-74a2109 2109 0 01 186-366c100-174 186-325 186-335a1724 1724 0 00-400-109 100 100 0 00-62 27m-1510 100a4139 4139 0 00-110 485c-60 327-63 392-14 422 85 52 110 0 160-300 52-333 106-487 170-487 31 0 37 46 20 135a1541 1541 0 00-47 593c27 142 30 145 107 77 58-53 78-126 77-283a3180 3180 0 01 26-400c30-212-10-269-220-310-110-23-135-10-168 71m2046 356a3015 3015 0 00-90 400 789 789 0 01-74 268c-26 34 0 17 66-38a337 337 0 00 113-165 2039 2039 0 01 81-327c100-312 100-337 24-337-34 0-85 83-120 200m3245 634a160 160 0 00 40 260 955 955 0 00 630 66 185 185 0 00-20-290 1100 1100 0 00-650-36m660 154c85 85-15 140-206 110-232-34-387-100-354-156a1016 1016 0 01 560 46m5457 3412c387 74 490 125 472 238-23 154-123 180-472 120-410-68-556-120-470-168a973 973 0 01 370 24c280 53 462 50 400-7a2756 2756 0 00-405-100 1117 1117 0 01-398-122c-20-65 121-62 501 10m-135 584c460 87 507 115 474 280-48 236-100 257-510 200a1435 1435 0 01-400-100c-28-30 8-37 125-20 536 77 580 78 636 10 55-67 46-66 0-67-46 0-44-8 0-40 44-30 42-44-40-75a1918 1918 0 00-309-67c-245-35-475-110-475-156s114-40 500 32m6 267c130 25 230 60 218 80a779 779 0 01-320-24 6370 6370 0 00-334-57c-19 0-23-18-9-40 12-24 64-34 114-23l328 65"/></svg>
