<svg xmlns="http://www.w3.org/2000/svg" fill="#44739e" width="24" height="24" version="1.1" viewBox="0 0 24 24"><path d="m 5.187,2.608 c -0.213,0.088 -0.2,0.04 -0.8,3.1 -0.169,0.829 -0.35,1.768 -0.42,2.086 Q 3.788,8.681 3.617,9.569 c -0.126,0.658 -0.32,1.653 -0.432,2.21 -0.112,0.557 -0.306,1.55 -0.434,2.209 -0.128,0.659 -0.258,1.328 -0.292,1.487 -0.034,0.159 -0.107,0.53 -0.163,0.826 -0.056,0.296 -0.12,0.62 -0.143,0.722 -0.18,0.846 -0.18,0.846 -0.109,0.986 a 0.5,0.5 0 0 0 0.2,0.193 c 0.12,0.055 2.985,0.64 3.76,0.768 0.354,0.058 0.33,0.126 -0.035,0.094 l -0.206,-0.017 0.166,0.056 a 3.375,3.375 0 0 0 0.454,0.1 17.779,17.779 0 0 1 1.818,0.351 8.342,8.342 0 0 0 0.91,0.187 c 0.317,0.05 0.81,0.142 1.093,0.21 0.283,0.068 0.78,0.177 1.1,0.243 0.32,0.066 0.673,0.148 0.79,0.181 0.19,0.053 0.514,0.12 2.222,0.464 0.294,0.06 0.647,0.122 0.785,0.141 0.138,0.019 0.464,0.071 0.725,0.115 0.261,0.044 0.745,0.113 1.074,0.152 0.329,0.039 0.72,0.1 0.867,0.132 a 1.894,1.894 0 0 0 0.61,0.033 c 0.326,-0.026 0.34,-0.032 0.34,-0.129 a 0.563,0.563 0 0 1 0.058,-0.213 8.342,8.342 0 0 0 0.3,-1.432 q 0.339,-1.92 0.68,-3.84 c 0.323,-1.874 0.29,-1.747 0.5,-1.935 0.1,-0.092 0.2,-0.149 0.24,-0.136 0.157,0.051 0.655,0.2 0.786,0.233 0.194,0.05 0.443,0.048 0.475,0 0.013,-0.024 -0.04,-0.04 -0.134,-0.04 -0.278,0 -1.184,-0.289 -1.118,-0.355 a 0.265,0.265 0 0 1 0.136,0.02 c 0.066,0.02 0.241,0.068 0.39,0.108 0.149,0.04 0.388,0.108 0.536,0.151 l 0.268,0.08 0.073,-0.09 a 0.339,0.339 0 0 0 0.054,-0.4 C 21.869,13.252 21.769,13.2 21.277,13.075 a 2.817,2.817 0 0 1 -0.5,-0.157 1.777,1.777 0 0 1 -0.367,-0.735 c 0,-0.076 0.094,-0.668 0.208,-1.315 0.114,-0.647 0.245,-1.38 0.288,-1.63 l 0.14,-0.8 c 0.063,-0.35 0.21,-1.19 0.25,-1.426 0.046,-0.273 0.15,-0.85 0.23,-1.273 0.168,-0.906 0.17,-0.9 -0.847,-1.292 -0.273,-0.1 -0.617,-0.238 -0.764,-0.3 a 2.019,2.019 0 0 0 -0.857,-0.125 5.278,5.278 0 0 0 -0.59,0 c 0,0.008 -0.037,0.238 -0.083,0.51 l -0.12,0.723 c -0.02,0.123 -0.054,0.311 -0.078,0.413 -0.035,0.166 -0.065,0.332 -0.09,0.5 -0.025,0.168 -0.073,0.422 -0.1,0.558 -0.027,0.136 -0.058,0.288 -0.08,0.433 q -0.038,0.26 -0.09,0.517 c -0.037,0.182 -0.08,0.423 -0.1,0.536 l -0.1,0.58 q -0.057,0.3 -0.1,0.6 c -0.016,0.125 -0.066,0.375 -0.1,0.557 -0.038,0.2 -0.072,0.4 -0.1,0.6 a 2.183,2.183 0 0 1 -0.08,0.384 0.8,0.8 0 0 0 -0.046,0.237 1.69,1.69 0 0 1 -0.04,0.3 c -0.072,0.332 -0.13,0.63 -0.165,0.857 a 6.755,6.755 0 0 1 -0.167,0.924 0.927,0.927 0 0 0 -0.04,0.251 1.023,1.023 0 0 1 -0.037,0.252 q -0.064,0.264 -0.105,0.533 c -0.037,0.227 -0.093,0.534 -0.125,0.682 q -0.06,0.287 -0.1,0.578 c -0.02,0.171 -0.072,0.421 -0.1,0.557 -0.028,0.136 -0.066,0.322 -0.077,0.413 -0.011,0.091 -0.052,0.333 -0.09,0.537 -0.038,0.204 -0.082,0.465 -0.1,0.578 -0.02,0.132 -0.045,0.263 -0.074,0.393 -0.036,0.165 -0.067,0.332 -0.092,0.5 -0.025,0.168 -0.073,0.431 -0.1,0.578 -0.027,0.147 -0.086,0.455 -0.124,0.683 -0.038,0.228 -0.087,0.481 -0.108,0.564 -0.048,0.194 -0.244,0.406 -0.377,0.406 -0.056,0 -0.425,-0.066 -0.82,-0.147 q -1.989,-0.405 -3.98,-0.8 C 8.587,19.452 6.942,19.109 6.726,19.065 Q 5.364,18.756 3.991,18.49 c -0.9,-0.18 -1.681,-0.353 -1.727,-0.382 -0.13,-0.08 -0.144,-0.22 -0.067,-0.63 0.039,-0.205 0.1,-0.512 0.127,-0.682 0.027,-0.17 0.08,-0.412 0.106,-0.537 0.026,-0.125 0.073,-0.35 0.1,-0.5 0.027,-0.15 0.16,-0.809 0.29,-1.468 0.13,-0.659 0.358,-1.839 0.513,-2.622 0.155,-0.783 0.35,-1.778 0.433,-2.21 l 0.19,-0.97 Q 4.325,6.663 4.676,4.834 A 10.9,10.9 0 0 1 5.133,2.816 0.392,0.392 0 0 1 5.347,2.71 c 0.188,-0.033 3.757,0.05 5.3,0.124 a 5.984,5.984 0 0 0 1.219,0.007 c 0.1,-0.037 0.055,-0.045 -0.3,-0.048 -0.233,0 -0.6,-0.02 -0.8,-0.042 Q 9.522,2.667 8.276,2.651 C 7.127,2.629 5.985,2.599 5.735,2.589 A 2.423,2.423 0 0 0 5.19,2.609 m 6.767,0.261 c -0.05,0.1 -0.544,2.686 -0.544,2.85 a 0.172,0.172 0 0 0 0.076,0.148 c 0.053,0.03 1.748,0.168 2.063,0.168 0.108,0 0.18,-0.266 0.416,-1.528 0.138,-0.738 0.266,-1.388 0.285,-1.445 l 0.034,-0.1 0.9,0.015 c 0.5,0.008 0.988,0.03 1.09,0.05 q 0.54,0.143 1.069,0.323 a 3.654,3.654 0 0 1 1,0.4 c 0.1,0.092 0.118,0.1 0.118,0.04 0,-0.157 -0.2,-0.257 -1.142,-0.56 L 16.379,2.931 15.36,2.9 Q 14.802,2.888 14.245,2.847 c -0.057,-0.01 -0.588,-0.03 -1.182,-0.04 -1.076,-0.02 -1.08,-0.02 -1.123,0.07 m 1.516,0.055 c 0.51,0.024 0.583,0.035 0.52,0.083 -0.063,0.048 -0.072,0.055 0.013,0.055 0.115,0 0.116,0.058 0.01,0.622 a 17.807,17.807 0 0 1 -0.445,2.192 3.125,3.125 0 0 1 -0.864,0 C 11.52,5.817 11.52,5.817 11.52,5.678 c 0,-0.122 0.219,-1.347 0.39,-2.193 l 0.106,-0.523 a 5.384,5.384 0 0 1 1.44,-0.028 m 3.03,0.331 a 0.1,0.1 0 0 0 -0.051,0.091 c 0,0.04 -0.148,0.87 -0.328,1.844 -0.322,1.74 -0.55,2.99 -2,10.907 -0.4,2.161 -0.74,3.968 -0.766,4.016 -0.04,0.075 -0.035,0.087 0.032,0.087 a 0.2,0.2 0 0 0 0.136,-0.072 c 0.052,-0.066 0.05,-0.067 -0.018,-0.014 -0.068,0.053 -0.07,0.05 -0.033,-0.043 0.023,-0.055 0.146,-0.685 0.273,-1.4 0.127,-0.715 0.267,-1.486 0.31,-1.714 q 0.469,-2.55 0.933,-5.1 c 0.03,-0.172 0.4,-2.169 0.812,-4.44 l 0.754,-4.133 0.247,0.074 c 0.34,0.1 0.39,0.07 0.064,-0.04 -0.28,-0.1 -0.283,-0.1 -0.363,-0.063 m -4.58,0.924 a 0.608,0.608 0 0 1 -0.044,0.137 c -0.07,0.166 -0.063,0.4 0.01,0.4 a 0.438,0.438 0 0 1 0.134,0.027 c 0.073,0.026 0.073,0.024 0,-0.055 a 0.285,0.285 0 0 1 0.025,-0.4 0.281,0.281 0 0 1 0.142,-0.068 c 0.09,0 0.1,-0.01 0.045,-0.04 -0.055,-0.03 -0.322,-0.04 -0.316,0 m 7.1,0.071 c 0.331,0.023 0.537,0.153 0.537,0.337 0,0.184 -0.091,0.235 -0.363,0.15 A 1.969,1.969 0 0 1 18.55,4.478 c 0.006,-0.055 0.015,-0.109 0.026,-0.163 0.02,-0.1 0.042,-0.125 0.093,-0.1 a 1.721,1.721 0 0 0 0.335,0.046 M 18.64,4.316 c 0.011,0.075 0.077,0.116 0.339,0.211 a 1.011,1.011 0 0 0 0.35,0.09 c 0.015,-0.015 0,-0.036 -0.026,-0.046 C 19.277,4.561 19.26,4.539 19.271,4.521 19.282,4.503 19.184,4.458 19.054,4.421 A 1.8,1.8 0 0 1 18.722,4.288 C 18.631,4.23 18.627,4.232 18.64,4.32 m 1.043,-0.007 c 0.133,0.147 0.052,0.2 -0.087,0.055 -0.1,-0.107 -0.115,-0.135 -0.058,-0.135 a 0.242,0.242 0 0 1 0.145,0.08 m -6.067,0.1 a 0.411,0.411 0 0 0 -0.007,0.42 c 0.049,0.067 0.059,0.04 0.078,-0.231 a 1.629,1.629 0 0 0 0.007,-0.32 C 13.684,4.276 13.65,4.336 13.616,4.418 M 12.174,4.401 c -0.075,0.1 -0.087,0.264 -0.025,0.3 0.023,0.013 0.04,-0.013 0.04,-0.058 0,-0.107 0.086,-0.294 0.135,-0.294 0.02,0 0.027,0.033 0.016,0.073 -0.011,0.04 -0.032,0.128 -0.045,0.2 L 12.272,4.746 12.337,4.607 A 0.478,0.478 0 0 0 12.387,4.4 c -0.02,-0.1 -0.14,-0.1 -0.213,0 m 7.746,0.19 c 0,0.084 -0.1,0.68 -0.216,1.33 q -0.537,3.067 -1.091,6.131 c -0.123,0.685 -0.3,1.66 -0.39,2.171 l -0.33,1.86 -0.484,2.67 q -0.158,0.927 -0.35,1.847 c -0.022,0.06 -0.027,0.107 0,0.107 a 0.041,0.041 0 0 0 0.04,-0.042 v 0 c 0,-0.063 0.172,-0.05 0.8,0.065 0.317,0.058 0.6,0.107 0.63,0.11 0.09,0.007 0.053,0.072 -0.043,0.072 -0.051,0 -0.362,-0.047 -0.691,-0.1 a 3.923,3.923 0 0 0 -0.733,-0.078 c -0.156,0.03 -0.152,0.048 -0.073,-0.366 0.034,-0.177 0.33,-1.83 0.66,-3.676 l 1.07,-6 L 19.281,7.553 19.6,5.79 A 13.317,13.317 0 0 0 19.808,4.414 C 19.787,4.306 19.79,4.304 19.853,4.366 a 0.305,0.305 0 0 1 0.062,0.22 M 12.475,4.422 A 0.4,0.4 0 0 0 12.432,4.58 0.368,0.368 0 0 1 12.368,4.748 c -0.06,0.086 -0.06,0.092 0.02,0.092 0.054,0 0.085,-0.027 0.086,-0.072 0,-0.125 0.085,-0.386 0.118,-0.365 a 0.448,0.448 0 0 1 0,0.23 c -0.016,0.119 -0.01,0.2 0.01,0.168 A 0.568,0.568 0 0 0 12.647,4.564 C 12.653,4.406 12.64,4.364 12.585,4.35 a 0.119,0.119 0 0 0 -0.114,0.068 m 0.335,-0.025 c -0.06,0.077 -0.13,0.4 -0.086,0.4 0.02,0 0.057,-0.081 0.083,-0.184 0.085,-0.335 0.16,-0.265 0.08,0.075 -0.025,0.114 -0.022,0.153 0.013,0.14 0.065,-0.02 0.11,-0.412 0.05,-0.45 -0.06,-0.038 -0.09,-0.04 -0.14,0.02 m 0.31,0.025 a 0.243,0.243 0 0 0 0,0.342 0.222,0.222 0 0 0 0.033,0.028 l 0.1,0.045 -0.069,-0.12 c -0.064,-0.115 -0.064,-0.13 0,-0.247 0.078,-0.138 0.042,-0.165 -0.064,-0.048 m 0.26,0.028 c -0.08,0.086 -0.09,0.124 -0.057,0.213 a 0.4,0.4 0 0 0 0.142,0.174 c 0.1,0.064 0.1,0.064 0.03,-0.02 A 0.307,0.307 0 0 1 13.484,4.434 C 13.57,4.31 13.497,4.319 13.376,4.447 m 5.308,0.356 a 4.865,4.865 0 0 1 0.464,0.17 c 0.252,0.1 0.3,0.139 0.3,0.22 0,0.2 -0.17,0.2 -0.775,-0.03 -0.171,-0.063 -0.216,-0.1 -0.216,-0.17 0,-0.05 0.014,-0.072 0.03,-0.05 a 2.888,2.888 0 0 0 0.784,0.253 C 19.294,5.172 19.088,5.076 18.737,4.948 A 0.746,0.746 0 0 1 18.495,4.818 C 18.435,4.746 18.465,4.743 18.683,4.803 M 21.33,6.1 q -0.117,0.657 -0.233,1.313 c -0.086,0.5 -0.113,0.653 -0.386,2.19 q -0.228,1.29 -0.45,2.58 c -0.012,0.078 -0.02,0.068 -0.022,-0.042 a 12.144,12.144 0 0 1 0.22,-1.445 l 0.21,-1.177 0.2,-1.156 0.27,-1.508 c 0.116,-0.648 0.232,-1.307 0.26,-1.466 0.028,-0.159 0.053,-0.25 0.06,-0.2 a 8.717,8.717 0 0 1 -0.128,0.909 m -2.46,-0.625 c 0.408,0.137 0.53,0.222 0.49,0.344 -0.04,0.122 -0.192,0.132 -0.617,-0.02 -0.366,-0.132 -0.4,-0.15 -0.4,-0.252 0,-0.077 0.01,-0.092 0.037,-0.052 a 3.408,3.408 0 0 0 0.807,0.294 c 0.1,0 -0.076,-0.1 -0.35,-0.188 -0.3,-0.1 -0.41,-0.164 -0.41,-0.227 0,-0.044 0.049,-0.033 0.443,0.1 m -0.386,0.4 c 0.03,0.063 0.136,0.123 0.319,0.185 0.406,0.137 0.457,0.17 0.442,0.3 -0.02,0.165 -0.222,0.167 -0.644,0.006 -0.3,-0.116 -0.34,-0.14 -0.34,-0.237 0,-0.097 0.008,-0.1 0.053,-0.044 a 2.941,2.941 0 0 0 0.782,0.283 c 0.1,0 -0.115,-0.113 -0.387,-0.2 -0.32,-0.1 -0.361,-0.143 -0.356,-0.327 0,-0.142 0.046,-0.13 0.13,0.037 m -0.121,0.56 c 0.007,0.05 0.08,0.1 0.214,0.15 l 0.376,0.137 c 0.273,0.1 0.28,0.348 0.009,0.348 A 2.022,2.022 0 0 1 18.139,6.756 c 0,-0.073 -0.02,-0.075 0.359,0.04 0.177,0.055 0.367,0.11 0.422,0.123 0.2,0.045 -0.005,-0.084 -0.244,-0.157 A 3.01,3.01 0 0 1 18.358,6.648 0.3,0.3 0 0 1 18.244,6.324 c 0.036,-0.058 0.1,0 0.119,0.11 m -0.1,0.573 a 0.37,0.37 0 0 0 0.236,0.165 c 0.509,0.186 0.556,0.215 0.542,0.338 -0.018,0.16 -0.176,0.166 -0.612,0.02 -0.3,-0.1 -0.352,-0.13 -0.36,-0.216 0,-0.055 0,-0.076 0.014,-0.048 a 0.093,0.093 0 0 0 0.077,0.052 2.809,2.809 0 0 1 0.37,0.1 2.7,2.7 0 0 0 0.365,0.1 c 0.106,0 -0.12,-0.125 -0.352,-0.19 -0.33,-0.092 -0.436,-0.181 -0.412,-0.342 0.02,-0.138 0.077,-0.13 0.133,0.017 m -0.12,0.556 c 0.038,0.1 0.09,0.137 0.372,0.23 0.326,0.11 0.45,0.187 0.45,0.283 0,0.096 -0.092,0.15 -0.207,0.15 a 2.118,2.118 0 0 1 -0.7,-0.233 C 18.023,7.959 17.985,7.941 17.975,7.952 17.965,7.963 17.953,7.932 17.95,7.887 17.947,7.842 17.958,7.814 17.993,7.84 a 0.937,0.937 0 0 0 0.216,0.086 c 0.09,0.026 0.255,0.075 0.364,0.109 0.345,0.106 0.2,-0.024 -0.16,-0.144 -0.265,-0.088 -0.335,-0.13 -0.365,-0.215 -0.03,-0.085 -0.013,-0.24 0.038,-0.24 0.013,0 0.043,0.055 0.066,0.12 m -0.088,0.58 c 0,0.107 0.067,0.149 0.4,0.25 0.333,0.101 0.4,0.154 0.378,0.3 -0.022,0.146 -0.2,0.14 -0.568,0.015 A 3.365,3.365 0 0 0 17.937,8.596 c -0.017,0 -0.017,0.05 0,0.113 0.03,0.118 0.077,0.14 0.59,0.32 0.206,0.074 0.284,0.189 0.2,0.29 -0.07,0.086 -0.178,0.079 -0.56,-0.034 -0.217,-0.065 -0.33,-0.12 -0.34,-0.165 -0.017,-0.086 0,-0.085 0.323,0.015 a 2,2 0 0 0 0.35,0.082 c 0.143,0 0.011,-0.073 -0.3,-0.164 -0.355,-0.1 -0.41,-0.172 -0.337,-0.415 0.027,-0.09 0.07,-0.166 0.094,-0.166 a 3.117,3.117 0 0 1 0.355,0.1 c 0.292,0.093 0.4,0.1 0.354,0.028 a 1.109,1.109 0 0 0 -0.29,-0.106 c -0.355,-0.1 -0.469,-0.185 -0.445,-0.347 0.02,-0.135 0.133,-0.14 0.133,-0.007 m -0.19,1.2 c 0.032,0.065 0.141,0.125 0.364,0.2 0.364,0.122 0.417,0.162 0.4,0.3 -0.017,0.138 -0.172,0.145 -0.592,0.017 -0.232,-0.07 -0.35,-0.128 -0.35,-0.168 0,-0.08 0.008,-0.078 0.393,0.038 a 1.432,1.432 0 0 0 0.36,0.08 c 0.068,-0.04 -0.02,-0.089 -0.3,-0.16 -0.337,-0.088 -0.488,-0.21 -0.42,-0.34 a 0.17,0.17 0 0 0 0.032,-0.1 c -0.007,-0.01 0,-0.006 0.027,0.012 a 0.512,0.512 0 0 1 0.086,0.126 m -0.138,0.528 c 0,0.108 0.066,0.152 0.35,0.233 a 2.558,2.558 0 0 1 0.362,0.13 c 0.186,0.093 0.127,0.3 -0.086,0.3 a 2.862,2.862 0 0 1 -0.74,-0.218 c -0.06,-0.05 -0.066,-0.018 -0.013,0.081 a 0.97,0.97 0 0 1 0.058,0.137 c 0.013,0.041 0.145,0.1 0.354,0.161 0.362,0.1 0.43,0.154 0.41,0.3 -0.01,0.07 -0.045,0.1 -0.134,0.11 -0.214,0.022 -0.81,-0.17 -0.81,-0.265 0,-0.042 0.09,-0.03 0.377,0.048 a 1.477,1.477 0 0 0 0.4,0.078 c 0.04,-0.039 -0.08,-0.1 -0.381,-0.173 -0.342,-0.088 -0.41,-0.164 -0.356,-0.4 a 0.531,0.531 0 0 0 0.02,-0.19 1.656,1.656 0 0 1 0.38,0.09 2.129,2.129 0 0 0 0.417,0.1 c 0.046,-0.046 -0.051,-0.1 -0.31,-0.168 -0.381,-0.1 -0.465,-0.169 -0.41,-0.319 0.05,-0.133 0.109,-0.153 0.109,-0.039 m -0.19,1.212 c 0.035,0.07 0.147,0.127 0.418,0.218 0.38,0.127 0.458,0.2 0.349,0.332 -0.073,0.088 -0.267,0.074 -0.628,-0.047 -0.453,-0.15 -0.424,-0.257 0.033,-0.122 0.112,0.033 0.267,0.071 0.345,0.084 0.263,0.046 0.064,-0.089 -0.243,-0.164 -0.33,-0.08 -0.431,-0.167 -0.391,-0.328 0.03,-0.119 0.047,-0.116 0.118,0.027 m -0.054,0.652 a 1.044,1.044 0 0 0 0.357,0.142 c 0.32,0.08 0.393,0.134 0.373,0.28 -0.012,0.08 -0.042,0.1 -0.18,0.106 a 1.586,1.586 0 0 1 -0.752,-0.226 c -0.02,-0.06 0.209,-0.03 0.459,0.056 0.187,0.065 0.314,0.07 0.314,0.016 A 1.209,1.209 0 0 0 17.596,11.94 0.766,0.766 0 0 1 17.423,11.876 c -0.1,-0.047 -0.134,-0.088 -0.127,-0.155 0.023,-0.22 0.023,-0.22 0.074,-0.136 a 1.053,1.053 0 0 0 0.116,0.15 m -0.17,0.5 c 0,0.092 0.133,0.16 0.475,0.24 0.342,0.08 0.448,0.229 0.248,0.356 -0.148,0.093 -0.984,-0.146 -0.88,-0.252 a 1.1,1.1 0 0 1 0.34,0.06 2.444,2.444 0 0 0 0.406,0.086 c 0.087,0 0.088,0 0.018,-0.058 a 1.48,1.48 0 0 0 -0.36,-0.126 c -0.322,-0.079 -0.42,-0.16 -0.368,-0.3 0.045,-0.116 0.12,-0.12 0.12,-0.008 m 3.37,0.807 c 0.118,0.093 0.052,0.094 -0.2,0 -0.207,-0.075 -0.255,-0.109 -0.247,-0.174 0.007,-0.045 0.023,-0.178 0.037,-0.3 l 0.025,-0.213 0.167,0.316 a 2.065,2.065 0 0 0 0.22,0.363 m -3.45,-0.162 c 0,0.03 0.1,0.082 0.236,0.118 0.46,0.126 0.526,0.16 0.54,0.271 0.02,0.19 -0.079,0.222 -0.418,0.141 -0.393,-0.1 -0.592,-0.178 -0.543,-0.228 0.024,-0.024 0.156,-0.008 0.348,0.042 0.334,0.087 0.537,0.106 0.473,0.044 A 1.953,1.953 0 0 0 17.493,13.13 1.441,1.441 0 0 1 17.111,12.988 0.277,0.277 0 0 1 17.095,12.8 c 0.024,-0.126 0.03,-0.13 0.082,-0.06 a 0.285,0.285 0 0 1 0.056,0.13 m 2.87,0.384 a 1.371,1.371 0 0 1 -0.14,0.554 0.861,0.861 0 0 1 0.022,-0.339 c 0.03,-0.2 0.056,-0.424 0.057,-0.5 0,-0.139 0.006,-0.14 0.046,-0.04 a 0.873,0.873 0 0 1 0.015,0.33 m 1.23,-0.069 c 0.375,0.1 0.567,0.224 0.567,0.366 0,0.124 -0.11,0.132 -0.468,0.033 a 2.224,2.224 0 0 0 -0.45,-0.087 c -0.12,0.006 -0.157,-0.065 -0.057,-0.1 a 4.166,4.166 0 0 1 0.866,0.212 c 0.06,0.024 0.073,0.015 0.062,-0.044 -0.011,-0.059 -0.1,-0.1 -0.347,-0.166 a 1.4,1.4 0 0 1 -0.618,-0.266 c -0.038,-0.062 0.045,-0.052 0.445,0.055 m -4.223,0.2 c 0,0.107 0.072,0.15 0.412,0.244 0.374,0.1 0.448,0.164 0.38,0.31 -0.056,0.126 -0.126,0.13 -0.51,0.03 -0.279,-0.073 -0.377,-0.068 -0.4,0.024 -0.014,0.074 0.144,0.16 0.4,0.217 0.375,0.084 0.517,0.234 0.35,0.372 a 1.48,1.48 0 0 1 -0.78,-0.115 c -0.264,-0.1 -0.08,-0.136 0.3,-0.052 a 0.964,0.964 0 0 0 0.358,0.041 c 0.03,-0.047 0.01,-0.056 -0.42,-0.164 -0.325,-0.082 -0.375,-0.106 -0.362,-0.174 0.034,-0.176 0.07,-0.238 0.135,-0.239 0.065,-0.001 0.058,-0.008 0.013,-0.036 -0.045,-0.028 -0.05,-0.055 -0.042,-0.078 0.008,-0.023 0.123,-0.013 0.3,0.034 0.315,0.081 0.534,0.1 0.5,0.042 a 1.648,1.648 0 0 0 -0.392,-0.127 c -0.324,-0.08 -0.37,-0.1 -0.394,-0.2 a 0.2,0.2 0 0 1 0.017,-0.155 c 0.023,-0.028 0.03,-0.065 0.013,-0.08 -0.017,-0.015 0,-0.018 0.041,0 a 0.117,0.117 0 0 1 0.07,0.1 m 2.638,1.754 -0.288,1.632 c -0.046,0.262 0.03,-0.182 0,0 -0.274,1.6 -0.707,4.014 -0.75,4.15 -0.073,0.236 -0.164,0.311 -0.374,0.311 A 21.178,21.178 0 0 1 15.538,20.76 c -0.084,-0.083 0.267,-0.1 0.788,-0.046 0.3,0.033 0.328,0.03 0.418,-0.055 l 0.1,-0.09 0.02,0.1 c 0.013,0.07 0,0.1 -0.032,0.081 a 0.067,0.067 0 0 0 -0.08,0.025 0.377,0.377 0 0 1 -0.216,0.044 c -0.105,0 -0.182,0.008 -0.172,0.018 0.01,0.01 0.5,0.088 1.086,0.173 1.042,0.15 1.07,0.152 1.125,0.076 0.07,-0.1 0.1,-0.23 0.217,-0.907 0.05,-0.3 0.126,-0.732 0.17,-0.97 0.282,-1.578 0.35,-1.952 0.515,-2.912 l 0.12,-0.682 0.124,-0.722 c 0.122,-0.72 0.175,-0.957 0.206,-0.925 0.01,0.011 -0.076,0.537 -0.188,1.173 m -2.834,-0.558 c -0.024,0.092 0.067,0.147 0.344,0.207 0.41,0.09 0.53,0.193 0.408,0.36 -0.05,0.066 -0.077,0.067 -0.357,0.016 -0.443,-0.08 -0.467,-0.079 -0.482,0.025 -0.01,0.08 0.02,0.1 0.227,0.157 0.536,0.148 0.634,0.221 0.5,0.378 -0.055,0.067 -0.078,0.066 -0.67,-0.012 -0.192,-0.024 -0.2,-0.02 -0.185,0.074 0.015,0.094 0.057,0.11 0.358,0.186 0.383,0.1 0.433,0.13 0.413,0.265 -0.02,0.135 -0.14,0.158 -0.5,0.088 -0.27,-0.052 -0.33,-0.053 -0.358,-0.007 -0.058,0.095 0,0.155 0.2,0.206 0.58,0.15 0.675,0.22 0.518,0.376 -0.086,0.086 -0.09,0.086 -0.422,0.018 -0.355,-0.072 -0.42,-0.063 -0.42,0.06 0,0.087 0.034,0.1 0.4,0.188 0.317,0.074 0.383,0.118 0.383,0.252 0,0.134 -0.137,0.161 -0.413,0.1 -0.276,-0.061 -0.442,-0.059 -0.476,0 q -0.078,0.124 0.377,0.226 c 0.3,0.068 0.43,0.14 0.43,0.244 0,0.104 -0.12,0.158 -0.3,0.134 l -0.39,-0.053 c -0.214,-0.028 -0.217,-0.027 -0.217,0.078 0,0.105 0.02,0.112 0.333,0.18 0.407,0.087 0.473,0.13 0.436,0.277 -0.024,0.1 -0.05,0.11 -0.186,0.11 a 2.553,2.553 0 0 1 -0.37,-0.04 c -0.246,-0.047 -0.338,-0.024 -0.338,0.082 0,0.082 0.014,0.09 0.43,0.183 0.331,0.075 0.4,0.117 0.374,0.238 -0.034,0.176 -0.1,0.184 -0.615,0.07 -0.454,-0.1 -0.427,-0.1 -0.448,0.013 -0.016,0.08 -0.02,0.077 -0.024,-0.02 -0.007,-0.148 0.114,-0.179 0.462,-0.119 a 2.9,2.9 0 0 0 0.383,0.044 c 0.188,0 0.045,-0.067 -0.269,-0.125 a 1.457,1.457 0 0 1 -0.382,-0.117 l -0.109,-0.067 0.074,-0.153 c 0.041,-0.084 0.064,-0.163 0.051,-0.175 -0.038,-0.039 0.265,-0.025 0.483,0.021 a 1.163,1.163 0 0 0 0.3,0.03 c 0.081,-0.013 0.075,-0.02 -0.05,-0.062 -0.125,-0.042 -0.253,-0.069 -0.382,-0.095 -0.268,-0.053 -0.392,-0.14 -0.32,-0.228 a 0.188,0.188 0 0 0 0.033,-0.13 c -0.007,-0.042 0.01,-0.07 0.037,-0.065 0.027,0.005 0.04,-0.015 0.03,-0.045 -0.028,-0.07 0.062,-0.07 0.408,0 0.325,0.066 0.4,0.07 0.4,0.023 a 2.963,2.963 0 0 0 -0.83,-0.19 c -0.018,0.011 -0.007,-0.068 0.026,-0.177 0.033,-0.109 0.06,-0.2 0.06,-0.21 0,-0.01 0.024,0 0.052,0.018 0.028,0.018 0.04,0.015 0,-0.035 -0.083,-0.105 -0.012,-0.11 0.383,-0.027 a 1.051,1.051 0 0 0 0.406,0.041 c 0.02,-0.02 -0.056,-0.057 -0.184,-0.086 -0.147,-0.034 -0.293,-0.072 -0.437,-0.114 -0.192,-0.057 -0.214,-0.075 -0.187,-0.152 a 0.586,0.586 0 0 0 0.026,-0.176 c 0,-0.06 0.015,-0.084 0.054,-0.069 0.039,0.015 0.05,0 0.032,-0.044 -0.03,-0.082 0.013,-0.082 0.335,-0.005 0.28,0.068 0.534,0.082 0.433,0.025 a 3.269,3.269 0 0 0 -0.41,-0.122 2.914,2.914 0 0 1 -0.367,-0.108 c -0.036,-0.036 0.078,-0.355 0.118,-0.33 0.02,0.011 0.03,0 0.016,-0.04 -0.014,-0.04 -0.04,-0.066 -0.06,-0.066 a 0.042,0.042 0 0 1 -0.038,-0.046 v 0 c 0,-0.03 0.017,-0.033 0.052,-0.007 a 1.992,1.992 0 0 0 0.782,0.144 c 0.027,-0.027 -0.067,-0.065 -0.284,-0.11 -0.42,-0.094 -0.48,-0.138 -0.445,-0.327 0.02,-0.113 0.042,-0.14 0.1,-0.12 0.058,0.02 0.06,0.016 0.01,-0.046 -0.03,-0.038 -0.05,-0.077 -0.04,-0.084 a 1.116,1.116 0 0 1 0.263,0.04 c 0.456,0.1 0.558,0.113 0.558,0.07 a 0.681,0.681 0 0 0 -0.3,-0.115 c -0.32,-0.077 -0.527,-0.165 -0.527,-0.222 0,-0.092 0.11,-0.236 0.166,-0.217 0.056,0.019 0.052,0.008 0.01,-0.042 -0.08,-0.1 -0.026,-0.11 0.25,-0.053 0.4,0.086 0.524,0.1 0.524,0.061 0,-0.039 -0.186,-0.1 -0.47,-0.146 a 0.675,0.675 0 0 1 -0.266,-0.12 c -0.1,-0.084 -0.1,-0.106 -0.06,-0.2 0.056,-0.123 0.18,-0.11 0.146,0.013 m -12.36,0.053 a 7.306,7.306 0 0 0 -0.2,0.94 c 0,0.02 0.028,0.047 0.063,0.06 0.035,0.013 0.082,-0.017 0.124,-0.117 a 0.909,0.909 0 0 1 0.164,-0.247 c 0.1,-0.1 0.1,-0.109 0.037,-0.208 -0.075,-0.115 -0.054,-0.228 0.042,-0.228 a 0.155,0.155 0 0 0 0.116,-0.185 v -0.01 A 0.283,0.283 0 0 0 4.733,14.577 c -0.1,-0.017 -0.144,0 -0.178,0.06 m 1.1,0.206 a 2.752,2.752 0 0 0 -0.192,0.8 c 0,0.06 0.024,0.1 0.06,0.1 0.08,0 0.1,-0.047 0.14,-0.254 0.03,-0.182 0.137,-0.293 0.211,-0.219 0.03,0.03 0.027,0.151 -0.007,0.381 -0.05,0.34 -0.026,0.453 0.08,0.387 a 0.923,0.923 0 0 0 0.115,-0.338 0.66,0.66 0 0 1 0.2,-0.427 c 0.12,-0.108 0.124,-0.124 0.06,-0.17 A 0.919,0.919 0 0 0 5.837,15.023 0.049,0.049 0 0 0 5.826,15.09 v 0 c 0.016,0.026 0.008,0.033 -0.02,0.015 -0.028,-0.018 -0.048,-0.007 -0.048,0.021 0,0.028 -0.01,0.04 -0.024,0.027 A 0.3,0.3 0 0 1 5.75,14.988 c 0.053,-0.19 0,-0.282 -0.09,-0.148 m 0.828,0.022 a 0.156,0.156 0 0 0 0.033,0.218 l 0.027,0.016 c 0.083,0.022 0.08,0.037 -0.1,0.372 -0.1,0.192 -0.19,0.36 -0.19,0.371 0,0.011 0.088,0.045 0.326,0.09 0.194,0.036 0.295,-0.163 0.106,-0.21 -0.057,-0.014 -0.1,-0.048 -0.1,-0.074 a 2.1,2.1 0 0 1 0.186,-0.366 c 0.1,-0.174 0.186,-0.325 0.186,-0.335 A 1.73,1.73 0 0 0 6.562,14.835 0.1,0.1 0 0 0 6.5,14.862 m -1.51,0.1 a 4.2,4.2 0 0 0 -0.11,0.485 c -0.06,0.327 -0.063,0.392 -0.014,0.422 0.085,0.052 0.11,0 0.16,-0.3 0.052,-0.333 0.106,-0.487 0.17,-0.487 0.031,0 0.037,0.046 0.02,0.135 A 1.542,1.542 0 0 0 5.169,15.81 c 0.027,0.142 0.03,0.145 0.107,0.077 0.058,-0.053 0.078,-0.126 0.077,-0.283 a 3.136,3.136 0 0 1 0.026,-0.4 c 0.03,-0.212 -0.01,-0.269 -0.22,-0.31 -0.11,-0.023 -0.135,-0.01 -0.168,0.071 m 2.046,0.356 a 3.042,3.042 0 0 0 -0.09,0.4 0.781,0.781 0 0 1 -0.074,0.268 c -0.026,0.034 0,0.017 0.066,-0.038 a 0.332,0.332 0 0 0 0.113,-0.165 2.029,2.029 0 0 1 0.081,-0.327 c 0.1,-0.312 0.1,-0.337 0.024,-0.337 -0.034,0 -0.085,0.083 -0.12,0.2 m 3.245,0.634 a 0.16,0.16 0 0 0 -0.006,0.226 0.172,0.172 0 0 0 0.046,0.034 0.957,0.957 0 0 0 0.63,0.066 0.184,0.184 0 0 0 0.013,-0.261 A 0.181,0.181 0 0 0 10.921,16 1.1,1.1 0 0 0 10.271,15.964 m 0.66,0.154 c 0.085,0.085 -0.015,0.14 -0.206,0.11 -0.232,-0.034 -0.387,-0.1 -0.354,-0.156 a 1.01,1.01 0 0 1 0.56,0.046 m 5.457,3.412 c 0.387,0.074 0.49,0.125 0.472,0.238 -0.023,0.154 -0.123,0.18 -0.472,0.12 -0.41,-0.068 -0.556,-0.12 -0.47,-0.168 a 0.962,0.962 0 0 1 0.37,0.024 c 0.28,0.053 0.462,0.05 0.4,-0.007 a 2.691,2.691 0 0 0 -0.4,-0.1 1.137,1.137 0 0 1 -0.4,-0.122 c -0.02,-0.065 0.121,-0.062 0.5,0.01 m -0.135,0.584 c 0.46,0.087 0.507,0.115 0.474,0.28 -0.048,0.236 -0.1,0.257 -0.51,0.2 a 1.459,1.459 0 0 1 -0.4,-0.1 c -0.028,-0.03 0.008,-0.037 0.125,-0.02 0.536,0.077 0.58,0.078 0.636,0.01 0.056,-0.068 0.046,-0.066 0,-0.067 -0.046,-10e-4 -0.044,-0.008 0,-0.04 0.044,-0.032 0.042,-0.044 -0.04,-0.075 A 1.912,1.912 0 0 0 16.229,20.23 c -0.245,-0.035 -0.475,-0.11 -0.475,-0.156 0,-0.046 0.114,-0.04 0.5,0.032 m 0.006,0.267 c 0.13,0.025 0.23,0.06 0.218,0.08 a 0.787,0.787 0 0 1 -0.32,-0.024 c -0.111,-0.022 -0.222,-0.041 -0.334,-0.057 -0.019,0 -0.023,-0.018 -0.009,-0.04 0.014,-0.022 0.064,-0.034 0.114,-0.023 l 0.328,0.065"/></svg>
