<?xml version="1.0" encoding="UTF-8"?>
<svg width="24px" fill="#44739e" height="24px" viewBox="0 0 24 24" version="1.1" xmlns="http://www.w3.org/2000/svg" xmlns:xlink="http://www.w3.org/1999/xlink">
            <path d="M 21.729,11.088 A 14.72,14.72 0 0 0 19.791,10.564 C 19.467,10.497 18.534,10.271 14.74,9.338 13.156,8.949 10.107,8.184 9.3,7.974 A 5.6,5.6 0 0 0 8.482,7.806 2.094,2.094 0 0 0 7.905,7.991 a 21.475,21.475 0 0 0 -3.2,1.8 14.251,14.251 0 0 0 -2.67,2.2 0.829,0.829 0 0 0 0.07,0.674 0.9,0.9 0 0 0 0.3,0.166 1.129,1.129 0 0 1 0.312,0.16 1.565,1.565 0 0 0 0.293,0.18 c 0.182,0.088 0.2,0.117 0.238,0.335 A 0.626,0.626 0 0 1 3.232,13.9 L 3.58,13.894 C 3.535,13.846 3.52,13.817 3.546,13.83 a 3.039,3.039 0 0 0 0.561,0.231 c 0.032,0 0.47,0.139 0.975,0.309 0.505,0.17 1.6,0.529 2.433,0.8 1.874,0.6 5.8,1.9 6.158,2.029 a 1.724,1.724 0 0 0 1.395,-0.133 19.02,19.02 0 0 0 1.916,-1.133 0.073,0.073 0 0 1 0.065,-0.041 0.776,0.776 0 0 0 0.225,-0.137 19.152,19.152 0 0 1 1.894,-1.076 1.343,1.343 0 0 0 0.289,-0.15 1.108,1.108 0 0 1 0.553,-0.132 3.854,3.854 0 0 0 0.656,-0.111 0.725,0.725 0 0 1 0.269,-0.054 c 0.02,0.012 0.069,-0.005 0.109,-0.037 a 4.784,4.784 0 0 0 0.678,-0.949 c 0.368,-0.813 0.367,-1.922 0.007,-2.158 z m -5.568,4.764 c -1.478,0.936 -1.454,0.925 -1.95,0.92 A 2.441,2.441 0 0 1 13.249,16.572 9.07,9.07 0 0 1 12.263,16.205 1.352,1.352 0 0 0 12,16.122 2.86,2.86 0 0 1 11.352,15.938 0.535,0.535 0 0 0 11.182,15.874 5.286,5.286 0 0 1 10.557,15.668 C 10.464,15.634 10.096,15.516 9.739,15.405 9.382,15.294 9.014,15.175 8.921,15.141 8.828,15.107 8.655,15.053 8.536,15.021 A 3.258,3.258 0 0 1 8.16,14.9 0.833,0.833 0 0 0 7.917,14.833 0.232,0.232 0 0 1 7.786,14.792 1.4,1.4 0 0 0 7.476,14.671 c -0.892,-0.27 -1.1,-0.336 -1.24,-0.4 A 0.844,0.844 0 0 0 6.006,14.203 0.407,0.407 0 0 1 5.852,14.159 C 5.806,14.134 5.476,14.024 5.119,13.914 a 5.679,5.679 0 0 1 -1.381,-0.48 c 0.017,0 0.318,0.084 0.67,0.188 0.352,0.104 0.79,0.235 0.975,0.293 0.942,0.3 1.547,0.5 1.614,0.528 a 1.383,1.383 0 0 0 0.238,0.073 1.265,1.265 0 0 1 0.239,0.075 c 0.041,0.021 0.529,0.183 1.084,0.36 1.542,0.492 2.151,0.689 2.309,0.746 0.08,0.029 0.307,0.1 0.506,0.166 0.199,0.066 0.425,0.137 0.505,0.165 0.482,0.172 1.087,0.374 1.609,0.539 a 1.867,1.867 0 0 0 0.818,0.159 c 0.282,-0.038 0.4,-0.071 0.368,-0.1 -0.014,-0.014 0.1,-0.085 0.249,-0.157 a 4.149,4.149 0 0 0 0.682,-0.476 5.734,5.734 0 0 1 0.746,-0.531 c 0.327,-0.18 0.667,-0.484 0.543,-0.486 -0.033,0 -0.006,-0.043 0.06,-0.1 a 8.856,8.856 0 0 1 0.844,-0.529 c 0.062,0 -0.136,0.292 -0.231,0.342 a 2.881,2.881 0 0 0 -0.709,0.509 c 0,0.032 0.168,-0.041 0.373,-0.162 0.546,-0.322 0.634,-0.393 0.663,-0.536 0.075,-0.367 0.128,-0.485 0.251,-0.564 l 0.132,-0.084 -0.113,0.123 c -0.12,0.132 -0.124,0.29 -0.006,0.312 a 1.936,1.936 0 0 0 0.5,-0.259 c 0.64,-0.405 0.823,-0.465 1.2,-0.4 0.358,0.063 0.428,0.159 0.082,0.113 -0.371,-0.049 -0.339,-0.065 -3.778,2.111 z m 4.075,-1.615 a 1.479,1.479 0 0 1 -0.312,0 c -0.086,-0.01 -0.016,-0.019 0.156,-0.019 0.172,0 0.242,0.009 0.156,0.019 z m 1.363,-1 a 2.776,2.776 0 0 1 -0.378,0.516 c -0.255,0.274 -0.256,0.275 -0.427,0.218 -0.205,-0.067 -0.313,-0.181 -0.517,-0.545 -0.2,-0.348 -0.348,-0.47 -0.588,-0.47 -0.344,0 -0.6,0.133 -1.662,0.855 -0.439,0.3 -1.911,1.507 -2.613,2.145 a 1.6,1.6 0 0 1 -1.179,0.532 6.031,6.031 0 0 1 -1.708,-0.45 C 11.773,15.792 9.311,15 7.055,14.277 4.799,13.554 2.874,12.914 2.775,12.853 A 1.024,1.024 0 0 0 2.508,12.729 0.548,0.548 0 0 1 2.116,12.068 18.464,18.464 0 0 1 5.071,9.7 17.5,17.5 0 0 1 8.438,7.9 4.124,4.124 0 0 1 9.015,8.013 c 0.252,0.062 0.522,0.138 0.6,0.169 0.172,0.066 9.584,2.4 9.847,2.44 0.1,0.016 0.182,0.042 0.182,0.059 a 2.254,2.254 0 0 1 -0.865,0.425 13.615,13.615 0 0 1 -2.333,-0.514 Q 8.917,8.685 8.771,8.63 C 8.677,8.595 8.715,8.566 9.061,8.404 9.28,8.304 9.436,8.204 9.408,8.204 A 2.191,2.191 0 0 0 8.682,8.55 c -0.1,0.122 0.106,0.2 1.608,0.577 1.436,0.363 2.693,0.683 6.331,1.611 1.146,0.292 2,0.486 2.142,0.486 a 1.109,1.109 0 0 0 0.621,-0.22 2.476,2.476 0 0 1 0.529,-0.245 7.427,7.427 0 0 1 1.755,0.441 1.46,1.46 0 0 1 0.24,0.815 3.436,3.436 0 0 1 -0.308,1.218 z m -6.835,4.086 v 0 z m 5.549,-5.561 a 41.881,41.881 0 0 0 -4.4,3.427 c -0.94,0.816 -1.145,0.934 -1.647,0.946 A 10.375,10.375 0 0 1 12.021,15.512 C 10.936,15.166 8.707,14.458 7.066,13.938 L 3.29,12.738 C 2.29,12.42 2.216,12.4 2.241,12.476 c 0.025,0.076 0.08,0.11 1.409,0.525 0.688,0.215 1.641,0.516 2.117,0.67 0.476,0.154 1.126,0.36 1.443,0.458 0.8,0.247 3.331,1.045 4.114,1.3 2.316,0.75 2.7,0.856 3,0.831 a 2.139,2.139 0 0 0 1.181,-0.589 c 0.576,-0.526 1.992,-1.681 2.6,-2.118 0.145,-0.105 0.513,-0.385 0.817,-0.623 a 18.334,18.334 0 0 1 2.56,-1.693 c 0.047,0.013 0.074,0 0.059,-0.021 A 0.3,0.3 0 0 0 21.354,11.173 C 21.232,11.172 21,11.3 20.313,11.762 Z M 4.83,11.456 c 0.112,0 0.113,-0.006 0.024,-0.047 -0.066,-0.031 -0.011,-0.037 0.176,-0.018 0.169,0.017 0.284,0.008 0.3,-0.024 0.016,-0.032 0,-0.051 -0.04,-0.051 A 0.792,0.792 0 0 1 5.083,11.265 c -0.12,-0.046 -0.126,-0.058 -0.052,-0.1 a 0.173,0.173 0 0 1 0.172,0 0.215,0.215 0 0 0 0.215,-0.018 1.066,1.066 0 0 1 0.213,-0.083 C 5.678,11.054 5.562,11.044 5.373,11.041 A 0.91,0.91 0 0 0 4.973,11.088 0.188,0.188 0 0 0 4.92,11.2 c 0,0.032 -0.078,0.084 -0.174,0.116 -0.127,0.042 -0.156,0.069 -0.108,0.1 a 0.4,0.4 0 0 0 0.192,0.04 z m 4.845,2.121 a 0.89,0.89 0 0 0 0.254,-0.168 c 0.209,-0.175 0.208,-0.231 0,-0.086 -0.187,0.129 -0.312,0.254 -0.254,0.254 z M 5.287,10.931 a 0.169,0.169 0 0 0 0.135,0.045 c 0.1,0 0.1,-0.005 0.009,-0.045 -0.131,-0.057 -0.179,-0.057 -0.144,0 z m 9.045,6.439 a 1.983,1.983 0 0 0 0.432,-0.047 L 14,17.37 a 3.032,3.032 0 0 0 0.332,0 z M 4.5,11.846 C 4.271,11.774 4.312,11.694 4.557,11.733 a 0.367,0.367 0 0 0 0.3,-0.089 L 5.006,11.533 H 4.779 a 1.057,1.057 0 0 0 -0.46,0.109 C 3.976,11.807 3.97,11.833 4.26,11.898 4.606,11.971 4.788,11.935 4.5,11.846 Z M 5.875,10.8 C 5.949,10.751 6.11,10.642 6.233,10.558 a 2.49,2.49 0 0 1 0.337,-0.2 C 6.664,10.32 6.647,10.312 6.458,10.31 A 0.678,0.678 0 0 0 6,10.463 2.628,2.628 0 0 1 5.484,10.715 l -0.283,0.1 0.27,0.038 C 5.7,10.881 5.764,10.873 5.875,10.8 Z m 3.068,4.926 c 0.529,0.173 1.7,0.553 2.6,0.844 0.9,0.291 1.8,0.594 2,0.673 A 1.438,1.438 0 0 0 14,17.37 L 3.589,13.891 a 23.3,23.3 0 0 0 3.069,1.09 z M 14.327,9.56 c 2.6,0.648 4.808,1.177 4.9,1.176 0.092,-0.001 -0.112,-0.072 -0.49,-0.166 C 15.207,9.687 9.923,8.37 9.788,8.339 a 0.56,0.56 0 0 0 -0.265,0 C 9.444,8.37 9.442,8.376 9.511,8.379 9.553,8.38 11.722,8.912 14.327,9.56 Z m -0.521,5.285 c 0.124,-0.045 0.469,-0.354 0.393,-0.352 a 0.936,0.936 0 0 0 -0.273,0.194 c -0.116,0.106 -0.17,0.177 -0.12,0.158 z m -0.236,-1.055 0.2,-0.159 a 1.632,1.632 0 0 0 0.2,-0.173 0.412,0.412 0 0 0 -0.145,-0.036 0.44,0.44 0 0 0 -0.276,0.062 c -0.259,0.163 -0.44,0.366 -0.414,0.465 0.032,0.122 -0.333,0.446 -0.5,0.446 -0.1,0 -0.108,0.011 -0.058,0.072 0.1,0.116 0.182,0.086 0.438,-0.154 0.158,-0.147 0.235,-0.255 0.22,-0.309 -0.023,-0.088 0.131,-0.255 0.377,-0.409 l 0.144,-0.09 -0.092,0.142 z m 1.254,0.124 a 0.235,0.235 0 0 0 0.157,-0.154 c 0,-0.07 -0.265,-0.04 -0.386,0.043 a 6.6,6.6 0 0 0 -0.925,0.853 c -0.081,0.116 -0.045,0.1 0.167,-0.093 0.447,-0.4 1.065,-0.842 0.978,-0.7 -0.015,0.027 -0.015,0.051 0.009,0.051 z M 9.212,8.45 c 0.052,0.052 9.63,2.433 9.771,2.429 0.17,0 -9.479,-2.446 -9.675,-2.448 C 9.244,8.43 9.2,8.439 9.212,8.45 Z M 8.871,8.569 c 0,0.029 0.042,0.053 0.092,0.053 0.05,0 0.554,0.118 1.119,0.262 5.959,1.518 8.48,2.143 8.635,2.139 0.2,0 -0.439,-0.171 -6.118,-1.6 C 8.938,8.5 8.871,8.489 8.871,8.569 Z m 5.665,4.316 a 3.643,3.643 0 0 1 0.567,-0.427 c 0.056,-0.015 0.026,-0.027 -0.075,-0.03 -0.147,-0.005 -0.229,0.046 -0.61,0.379 -0.319,0.28 -0.477,0.386 -0.576,0.389 -0.119,0 -0.124,0.008 -0.04,0.044 0.188,0.081 0.266,0.044 0.734,-0.355 z m 0.364,0.643 -0.138,0.041 h 0.163 c 0.162,0 0.487,-0.156 0.487,-0.24 0,-0.025 -0.006,-0.042 -0.012,-0.039 -0.006,0.003 -0.056,0.016 -0.109,0.029 a 0.5,0.5 0 0 0 -0.175,0.093 0.685,0.685 0 0 1 -0.216,0.116 z m -2.837,0.387 a 2.123,2.123 0 0 0 0.272,-0.289 0.916,0.916 0 0 0 -0.169,0.075 1.515,1.515 0 0 0 -0.288,0.212 0.782,0.782 0 0 1 -0.276,0.171 c -0.159,0.039 -0.129,0.118 0.043,0.118 0.084,-0.002 0.214,-0.089 0.418,-0.287 z m -0.378,-1.293 0.1,0.041 a 0.809,0.809 0 0 0 0.122,0.045 2.666,2.666 0 0 0 0.356,-0.213 c 0.256,-0.168 0.3,-0.217 0.214,-0.216 a 0.936,0.936 0 0 0 -0.356,0.167 1.078,1.078 0 0 1 -0.336,0.171 z m 1.852,-0.057 c 0.182,-0.159 0.2,-0.19 0.114,-0.19 a 0.837,0.837 0 0 0 -0.337,0.208 c -0.271,0.243 -0.4,0.319 -0.555,0.326 -0.093,0 -0.085,0.013 0.044,0.054 0.173,0.056 0.297,-0.009 0.734,-0.398 z M 9.622,13.4 a 2.876,2.876 0 0 0 0.279,-0.25 0.312,0.312 0 0 1 0.138,-0.1 1.214,1.214 0 0 0 0.276,-0.169 0.587,0.587 0 0 1 0.3,-0.143 c 0.037,0.014 0.119,-0.029 0.182,-0.1 l 0.114,-0.121 h -0.146 a 0.744,0.744 0 0 0 -0.333,0.127 5.91,5.91 0 0 0 -0.942,0.8 C 9.448,13.524 9.481,13.511 9.622,13.4 Z m 1.72,-1.239 a 3.547,3.547 0 0 1 0.446,-0.31 c 0.167,-0.088 0.173,-0.1 0.066,-0.1 a 0.689,0.689 0 0 0 -0.265,0.073 1.73,1.73 0 0 0 -0.289,0.209 c -0.229,0.213 -0.371,0.293 -0.527,0.3 -0.156,0.007 -0.145,0 -0.027,0.051 0.172,0.064 0.302,0.016 0.596,-0.223 z m 0.752,1.372 c 0,0.073 0.108,0.05 0.214,-0.046 0.146,-0.132 0.39,-0.28 0.347,-0.211 -0.053,0.086 0.087,0.077 0.159,-0.01 0.12,-0.144 -0.066,-0.224 -0.263,-0.113 a 1.618,1.618 0 0 0 -0.457,0.38 z m -0.472,-0.524 a 0.364,0.364 0 0 0 0.2,-0.093 L 11.96,12.807 H 11.8 a 0.706,0.706 0 0 0 -0.355,0.126 c -0.306,0.2 -0.414,0.319 -0.344,0.364 0.048,0.03 0.047,0.038 0,0.039 -0.034,0 -0.05,0.021 -0.035,0.045 0.037,0.061 -0.375,0.392 -0.5,0.4 -0.125,0.008 -0.129,0.068 0,0.109 a 0.273,0.273 0 0 0 0.209,-0.042 c 0.18,-0.117 0.64,-0.571 0.522,-0.513 -0.085,0.041 -0.108,0.038 -0.108,-0.015 -0.009,-0.083 0.343,-0.332 0.433,-0.311 z"/>

</svg>
