<svg xmlns="http://www.w3.org/2000/svg" fill="#44739e" width="24" height="24" version="1.1" viewBox="0 0 24000 24000"><path d="M21729 11088a14720 14720 0 00-1938-524c-324-67-1257-293-5051-1226A675446 675446 0 01 9300 7974a5600 5600 0 00-818-168 2094 2094 0 00-577 185 21475 21475 0 00-3200 1800 14251 14251 0 00-2670 2200 829 829 0 00 70 674 900 900 0 00 300 166 1129 1129 0 01 312 160 1565 1565 0 00 293 180c182 88 200 117 238 335a626 626 0 01-16 394l348-6c-45-48-60-77-34-64a3039 3039 0 00 561 231c32 0 470 139 975 309 505 170 1600 529 2433 800 1874 600 5800 1900 6158 2029a1724 1724 0 00 1395-133 19020 19020 0 00 1916-1133 73 73 0 01 65-41 776 776 0 00 220-137 19152 19152 0 01 1891-1076 1343 1343 0 00 290-150 1108 1108 0 01 552-132 3854 3854 0 00 656-111 725 725 0 01 270-54c20 12 69-5 109-37a4784 4784 0 00 678-950c368-812 367-1921 7-2157zm-5568 4764c-1478 936-1454 925-1950 920a2441 2441 0 01-962-200 9070 9070 0 01-986-367 1352 1352 0 00-263-83 2860 2860 0 01-648-184 535 535 0 00-170-64 5286 5286 0 01-625-206 30917 30917 0 00-818-263c-357-110-725-230-818-264a5610 5610 0 00-385-120 3258 3258 0 01-376-120 833 833 0 00-243-68 232 232 0 01-130-40 1400 1400 0 00-310-122c-893-270-1100-336-1240-400a844 844 0 00-230-59 407 407 0 01-155-45 10002 10002 0 00-733-245 5679 5679 0 01-1389-480c17 1 318 85 670 190a59377 59377 0 01 2590 820 1383 1383 0 00 237 73 1265 1265 0 01 240 76c40 21 528 183 1083 360 1542 493 2151 690 2310 747 80 30 306 100 505 166 200 66 424 137 504 165a49610 49610 0 00 1610 540 1867 1867 0 00 817 160c282-39 400-70 368-100-14-15 100-86 250-158A4149 4149 0 00 15600 16000a5734 5734 0 01 747-530c327-180 667-486 543-488-33 0-6-43 60-100a8856 8856 0 01 845-530c62 0-136 293-230 343a2881 2881 0 00-710 510c0 31 168-42 373-163 545-322 633-393 662-536 75-367 128-485 250-564l133-84-113 123c-120 132-124 290-6 312a1936 1936 0 00 500-260c640-404 823-464 1200-400 358 64 428 160 82 114-370-50-340-65-3778 2110zm4075-1615a1479 1479 0 01-312 0c-86-10-16-19 156-19s242 9 156 19zm1363-1000a2776 2776 0 01-378 516c-255 274-256 275-427 218-205-67-313-181-517-545-200-348-348-470-588-470-344 0-600 133-1662 855-439 300-1911 1507-2613 2145a1600 1600 0 01-1179 532 6031 6031 0 01-1708-450 1738620 1738620 0 00-5472-1761c-2256-723-4180-1363-4280-1424a1024 1024 0 00-267-124 548 548 0 01-392-660A18464 18464 0 01 5071 9700a17500 17500 0 01 3367-1800 4124 4124 0 01 577 112c252 62 522 138 600 170 172 65 9584 2400 9847 2440 100 15 182 40 182 58a2254 2254 0 01-865 425 13615 13615 0 01-2333-514q-7530-1906-7676-1960c-94-36-56-65 290-227 219-100 375-200 347-200a2191 2191 0 00-726 346c-100 122 106 200 1608 577 1436 363 2693 683 6330 1611 1147 292 2000 486 2143 486a1109 1109 0 00 620-220 2476 2476 0 01 530-245 7427 7427 0 01 1755 441 1460 1460 0 01 240 815 3436 3436 0 01-308 1218zm-6835 4086zm5549-5561a41881 41881 0 00-4400 3427c-940 816-1145 934-1647 946a10375 10375 0 01-2245-623c-1085-346-3314-1054-4955-1574l-3776-1200c-1000-318-1074-338-1050-262 26 76 80 110 1410 525 688 215 1640 516 2117 670 476 154 1126 360 1443 458 800 247 3330 1045 4114 1300 2316 750 2700 856 3000 831a2139 2139 0 00 1180-589 42034 42034 0 01 2600-2118c146-105 514-385 818-623a18334 18334 0 01 2560-1693c47 13 74 0 60-20a300 300 0 00-188-44c-122 0-354 127-1041 590ZM4830 11456c112 0 113-6 24-47-66-31-11-37 176-18 169 17 284 8 300-24 16-32 0-51-40-51a792 792 0 01-207-51c-120-46-126-58-52-100a173 173 0 01 172 0 215 215 0 00 215-18 1066 1066 0 01 213-83c47-10-69-20-258-23a910 910 0 00-400 47 188 188 0 00-53 112c0 32-78 84-174 116-127 42-156 69-108 100a400 400 0 00 192 40zm4845 2121a890 890 0 00 254-168c209-175 208-231 0-86-187 129-312 254-254 254zm-4388-2646a169 169 0 00 135 45c100 0 100-5 10-45-132-57-180-57-145 0zm9045 6440a1983 1983 0 00 432-48L14000 17370a3032 3032 0 00 332 0zM4500 11845c-230-72-188-152 57-113a367 367 0 00 300-89l150-111H4780a1057 1057 0 00-460 109c-343 165-349 191-60 256 347 73 530 37 240-52ZM5875 10800l358-242a2490 2490 0 01 337-200c94-38 77-46-112-48a678 678 0 00-458 153 2628 2628 0 01-516 252l-283 100 270 38c230 28 293 20 404-53Zm3068 4926c529 173 1700 553 2600 844 900 291 1800 594 2000 673a1438 1438 0 00 457 127L3590 13890a23300 23300 0 00 3068 1090zm5384-6166c2600 648 4808 1177 4900 1176 92-1-112-72-490-166-3530-883-8814-2200-8949-2231a560 560 0 00-265 0c-79 30-80 37-12 40 42 1 2211 533 4816 1181Zm-521 5285c124-45 469-354 393-352a936 936 0 00-273 194c-116 106-170 177-120 158zm-236-1055 200-159a1632 1632 0 00 200-170 412 412 0 00-145-32 440 440 0 00-276 62c-260 163-440 366-414 465 32 122-333 446-500 446-100 0-108 10-58 72 100 117 182 87 438-153 158-147 235-255 220-310-23-87 131-254 377-408l144-90-92 142zm1254 124a235 235 0 00 157-154c0-70-265-40-386 43a6600 6600 0 00-925 853c-81 116-45 100 167-93 447-400 1065-842 978-700-15 27-15 51 9 51zM9212 8450c52 52 9630 2433 9771 2429 170 0-9479-2446-9675-2448-64 0-108 8-96 20Zm-340 120c0 28 41 52 91 52 50 0 554 118 1120 262 5958 1518 8480 2143 8634 2140 200 0-439-172-6118-1600-3660-924-3728-935-3728-855Zm5664 4315a3643 3643 0 01 567-427c56-15 26-27-75-30-147-5-229 46-610 380-319 280-477 385-576 388-119 0-124 8-40 44 188 81 266 44 734-355zm364 643-138 40h163c162 0 487-155 487-240 0-24-6-41-12-38a1574 1574 0 01-109 30 500 500 0 00-175 92 685 685 0 01-216 116zm-2837 387a2123 2123 0 00 272-289 916 916 0 00-169 75 1515 1515 0 00-288 220 782 782 0 01-276 170c-159 40-129 119 43 119 84-2 214-90 418-287zm-378-1293 100 41a809 809 0 00 122 45 2666 2666 0 00 356-213c256-168 300-217 214-216a936 936 0 00-356 167 1078 1078 0 01-336 171zm1852-57c182-159 200-190 114-190a837 837 0 00-337 208c-270 243-400 320-555 326-93 0-85 13 44 54 173 56 297-9 734-398zm-3915 835a2876 2876 0 00 279-250 312 312 0 01 138-100 1214 1214 0 00 276-170 587 587 0 01 300-142c37 14 119-30 182-100l114-121h-146a744 744 0 00-333 127 5910 5910 0 00-942 800c-42 80-10 67 132-44Zm1720-1240a3547 3547 0 01 446-310c167-86 173-100 66-100a689 689 0 00-265 75 1730 1730 0 00-289 209c-229 213-371 293-527 300-156 7-145 0-27 50 172 65 302 17 596-222zm752 1373c0 73 108 50 214-46 146-132 390-280 347-211-53 86 87 77 160-10 120-144-67-224-264-113a1618 1618 0 00-457 380zm-472-524a364 364 0 00 200-93l138-110h-160a706 706 0 00-355 127c-306 200-414 319-344 364 48 30 47 38 0 39-34 0-50 20-35 45 37 60-375 392-500 400-125 8-129 68 0 109a273 273 0 00 209-42c180-117 640-571 522-513-85 40-108 38-108-15-9-83 343-332 433-311"/></svg>
