<svg xmlns="http://www.w3.org/2000/svg" viewBox="0 0 24 24"><path fill="#44739e" d="M5.187 2.607c-.213.088-.2.04-.8 3.1-.169.828-.35 1.767-.42 2.085q-.179.887-.35 1.775c-.126.658-.32 1.653-.432 2.21s-.306 1.549-.434 2.208-.258 1.328-.292 1.487-.107.53-.163.826-.12.62-.143.722c-.18.846-.18.846-.109.986a.5.5 0 0 0 .2.193c.12.055 2.985.64 3.76.768.354.058.33.126-.035.094l-.206-.017.166.056a3.4 3.4 0 0 0 .454.099 18 18 0 0 1 1.817.351 8 8 0 0 0 .91.187c.317.05.81.142 1.093.21s.78.177 1.1.243.673.148.79.181c.19.053.514.12 2.221.464.294.06.647.122.785.141s.464.071.725.115.745.113 1.074.152.72.1.867.132a1.9 1.9 0 0 0 .61.033c.326-.026.34-.032.34-.129a.6.6 0 0 1 .058-.213 8.3 8.3 0 0 0 .3-1.432l.68-3.839c.322-1.874.289-1.747.499-1.935.1-.092.2-.149.24-.136.157.051.655.2.786.233.194.05.443.048.475 0 .013-.024-.04-.04-.134-.04-.278 0-1.184-.289-1.118-.355a.3.3 0 0 1 .136.02c.066.02.241.068.39.108s.388.108.536.151l.268.08.073-.09a.34.34 0 0 0 .054-.4c-.092-.182-.192-.234-.684-.359a3 3 0 0 1-.5-.157 1.8 1.8 0 0 1-.367-.734c0-.076.094-.668.208-1.315s.245-1.38.288-1.63l.14-.8c.063-.35.21-1.19.25-1.426.046-.273.15-.85.23-1.272.168-.906.17-.9-.847-1.292-.273-.1-.617-.238-.764-.3a2 2 0 0 0-.856-.125 5 5 0 0 0-.59 0c0 .008-.037.238-.083.51l-.12.723c-.02.123-.054.311-.078.413a8 8 0 0 0-.09.499c-.025.168-.073.422-.1.558s-.058.288-.08.433q-.038.26-.09.517c-.037.182-.08.423-.1.536l-.1.58q-.057.3-.1.6c-.016.125-.066.375-.1.557q-.057.3-.1.6a2 2 0 0 1-.08.384.8.8 0 0 0-.046.237 1.7 1.7 0 0 1-.04.3c-.072.332-.13.63-.165.857a7 7 0 0 1-.167.923 1 1 0 0 0-.04.251 1 1 0 0 1-.037.252q-.064.264-.105.533c-.037.227-.093.534-.125.682q-.06.287-.1.578c-.02.171-.072.421-.1.557a7 7 0 0 0-.077.413c-.011.091-.052.333-.09.537s-.082.465-.1.578q-.03.198-.074.393a8 8 0 0 0-.092.5 21 21 0 0 1-.1.578c-.027.146-.086.454-.124.682s-.087.481-.108.564c-.048.194-.244.406-.377.406-.056 0-.425-.066-.82-.147q-1.988-.405-3.979-.8c-1.793-.357-3.438-.699-3.654-.743q-1.361-.309-2.734-.575c-.9-.18-1.681-.353-1.727-.382-.13-.08-.144-.22-.067-.63.039-.205.1-.512.127-.682s.08-.412.106-.537.073-.35.1-.5.16-.809.29-1.468.358-1.838.513-2.621.35-1.778.433-2.21l.19-.97q.369-1.826.72-3.654a11 11 0 0 1 .457-2.018.4.4 0 0 1 .214-.106c.188-.033 3.756.05 5.299.124a6 6 0 0 0 1.219.007c.1-.037.055-.045-.3-.048-.233 0-.6-.02-.8-.042q-1.244-.084-2.49-.1a202 202 0 0 1-2.54-.062 2.4 2.4 0 0 0-.545.02m6.766.261c-.05.1-.544 2.686-.544 2.85a.17.17 0 0 0 .076.148c.053.03 1.747.168 2.062.168.108 0 .18-.266.416-1.528.138-.738.266-1.388.285-1.445l.034-.1.9.015c.5.008.988.03 1.09.05q.54.143 1.069.323a3.7 3.7 0 0 1 1 .4c.1.092.118.1.118.04 0-.157-.2-.257-1.142-.56l-.943-.3-1.019-.031q-.558-.012-1.115-.053c-.057-.01-.588-.03-1.181-.04-1.076-.02-1.08-.02-1.123.07m1.515.055c.51.024.583.035.52.083s-.072.055.013.055c.115 0 .116.058.01.622a18 18 0 0 1-.445 2.192 3.1 3.1 0 0 1-.863 0c-1.17-.067-1.17-.067-1.17-.206 0-.122.219-1.347.39-2.193l.106-.523a5.4 5.4 0 0 1 1.439-.028m3.03.331a.1.1 0 0 0-.051.091c0 .04-.148.87-.328 1.844-.322 1.739-.55 2.989-2 10.905-.4 2.161-.74 3.967-.766 4.015-.04.075-.035.087.032.087a.2.2 0 0 0 .136-.072c.052-.066.05-.067-.018-.014s-.07.05-.033-.043c.023-.055.146-.685.273-1.399s.267-1.486.31-1.714q.469-2.55.933-5.099c.03-.172.4-2.169.812-4.44l.754-4.132.247.074c.34.1.39.07.064-.04-.28-.1-.283-.1-.363-.063m-4.579.924a.6.6 0 0 1-.044.137c-.07.166-.063.4.01.4a.4.4 0 0 1 .134.027c.073.026.073.024 0-.055a.285.285 0 0 1 .025-.4.3.3 0 0 1 .142-.068c.09 0 .1-.01.045-.04s-.322-.04-.316 0m7.099.071c.331.023.537.153.537.337s-.091.235-.363.15a2 2 0 0 1-.628-.27q.01-.082.026-.163c.02-.1.042-.125.093-.1a1.7 1.7 0 0 0 .335.046m-.364.055c.011.075.077.116.339.211a1 1 0 0 0 .35.09c.015-.015 0-.036-.026-.046s-.043-.032-.032-.05-.087-.063-.217-.1a2 2 0 0 1-.332-.133c-.091-.058-.095-.056-.082.032m1.043-.007c.132.147.052.2-.087.055-.1-.107-.115-.135-.058-.135a.24.24 0 0 1 .145.08m-6.067.1a.41.41 0 0 0-.007.42c.049.067.059.04.078-.231a1.6 1.6 0 0 0 .007-.32c-.01-.006-.044.054-.078.136M12.173 4.4c-.075.1-.087.264-.025.3.023.013.04-.013.04-.058 0-.107.086-.294.135-.294.02 0 .027.033.016.073s-.032.128-.045.2l-.023.124.065-.139a.5.5 0 0 0 .05-.207c-.02-.1-.14-.1-.213 0m7.744.19c0 .084-.1.68-.215 1.33q-.537 3.066-1.091 6.13c-.123.684-.3 1.659-.39 2.17l-.33 1.86-.484 2.67q-.158.926-.35 1.846c-.022.06-.027.107 0 .107a.04.04 0 0 0 .04-.042c0-.063.172-.05.8.065.317.058.6.107.63.11.09.007.053.072-.043.072-.051 0-.362-.047-.691-.1a4 4 0 0 0-.733-.078c-.156.03-.152.048-.073-.366.034-.177.33-1.829.66-3.675l1.07-5.999.562-3.138.319-1.762a13 13 0 0 0 .207-1.376c-.021-.108-.018-.11.045-.048a.3.3 0 0 1 .062.22m-7.438-.164a.4.4 0 0 0-.043.158.4.4 0 0 1-.064.168c-.06.086-.06.092.02.092.054 0 .085-.027.086-.072 0-.125.085-.386.118-.365a.45.45 0 0 1 0 .23c-.016.119-.01.2.01.168a.6.6 0 0 0 .045-.237c.006-.158-.007-.2-.062-.214a.12.12 0 0 0-.114.068m.335-.025c-.06.077-.13.4-.086.4.02 0 .057-.081.083-.184.085-.335.16-.265.08.075-.025.114-.022.153.013.14.065-.02.11-.412.05-.45s-.09-.04-.14.02m.31.025a.243.243 0 0 0 0 .342.2.2 0 0 0 .033.028l.099.045-.068-.12c-.064-.115-.064-.13 0-.247.077-.138.041-.165-.064-.048m.259.028c-.08.086-.09.124-.057.213a.4.4 0 0 0 .142.174c.1.064.1.064.03-.02a.31.31 0 0 1-.007-.38c.086-.124.013-.115-.108.013m5.308.356a5 5 0 0 1 .464.17c.252.1.3.139.3.22 0 .2-.17.2-.775-.03-.171-.063-.216-.1-.216-.17 0-.05.014-.072.03-.05a3 3 0 0 0 .784.253c.023-.024-.183-.12-.534-.248a.8.8 0 0 1-.242-.13c-.06-.072-.03-.075.188-.015m2.646 1.296-.233 1.313c-.086.5-.113.653-.386 2.19q-.228 1.29-.45 2.58c-.012.078-.02.068-.022-.042a12 12 0 0 1 .22-1.445l.21-1.177.2-1.156.27-1.508.26-1.465c.028-.159.053-.25.06-.2a9 9 0 0 1-.128.908m-2.459-.624c.408.137.53.222.49.344s-.192.132-.617-.02c-.366-.132-.4-.15-.4-.252q-.002-.114.037-.052a3.4 3.4 0 0 0 .807.294c.1 0-.076-.1-.35-.188-.3-.1-.41-.164-.41-.227 0-.044.049-.033.443.1m-.386.4q.045.093.319.185c.406.136.457.169.442.299-.02.165-.222.167-.644.006-.3-.116-.34-.14-.34-.237s.008-.099.053-.043a3 3 0 0 0 .782.282c.1 0-.115-.113-.387-.2-.32-.099-.361-.142-.356-.326q.002-.213.13.037m-.121.559q.012.075.214.15l.376.137c.273.1.28.348.009.348a2 2 0 0 1-.823-.314c0-.073-.02-.075.359.04.177.055.367.11.422.123.2.045-.005-.084-.244-.157a3 3 0 0 1-.318-.114.3.3 0 0 1-.114-.324c.036-.058.1 0 .119.11m-.1.573a.37.37 0 0 0 .236.165c.509.186.556.215.542.338-.018.16-.176.166-.612.02-.3-.1-.352-.13-.36-.216 0-.055 0-.076.014-.048a.1.1 0 0 0 .077.052 3 3 0 0 1 .37.1 3 3 0 0 0 .365.1c.106 0-.12-.125-.352-.19-.33-.092-.436-.181-.412-.342.02-.138.077-.13.133.017m-.12.556c.038.1.09.137.372.23.326.11.45.187.45.283s-.092.15-.207.15a2.1 2.1 0 0 1-.7-.233c-.036-.03-.074-.048-.084-.037s-.022-.02-.025-.065.008-.073.043-.047a1 1 0 0 0 .216.086c.09.026.255.075.364.109.345.106.2-.024-.16-.144-.265-.088-.335-.13-.365-.215s-.013-.24.038-.24c.013 0 .043.055.066.12m-.088.58c0 .107.067.149.4.25s.4.154.378.3-.2.14-.568.015a3 3 0 0 0-.337-.105c-.017 0-.017.05 0 .113.03.118.077.14.59.32.206.074.284.189.2.29-.07.086-.178.079-.56-.034q-.325-.097-.34-.165c-.017-.086 0-.085.323.015a2 2 0 0 0 .35.082c.143 0 .011-.073-.3-.164-.355-.1-.41-.172-.337-.415.027-.09.07-.166.094-.166a3 3 0 0 1 .355.1c.292.093.4.1.354.028a1.1 1.1 0 0 0-.29-.106c-.355-.1-.469-.185-.445-.347.02-.135.133-.14.133-.007m-.19 1.2c.032.065.141.125.364.2.364.122.417.162.4.3s-.172.145-.592.017q-.349-.106-.35-.168c0-.08.008-.078.393.038a1.4 1.4 0 0 0 .36.08c.068-.04-.02-.089-.3-.16-.337-.088-.488-.21-.42-.34a.17.17 0 0 0 .032-.1q-.012-.015.027.012a.5.5 0 0 1 .086.126m-.138.528c0 .108.066.152.35.233a3 3 0 0 1 .362.13c.186.093.127.3-.086.3a3 3 0 0 1-.74-.218c-.06-.05-.066-.018-.013.081a1 1 0 0 1 .058.137c.013.041.145.1.354.161.362.1.43.154.41.3-.01.07-.045.1-.134.11-.214.022-.81-.17-.81-.265 0-.042.09-.03.377.048a1.5 1.5 0 0 0 .4.078c.04-.039-.08-.1-.381-.173-.342-.088-.41-.164-.356-.4a.5.5 0 0 0 .02-.19 1.7 1.7 0 0 1 .38.09 2 2 0 0 0 .417.1c.046-.046-.051-.1-.31-.168-.381-.1-.465-.169-.41-.319.05-.133.109-.153.109-.039m-.19 1.212c.035.07.147.127.418.218.38.127.458.2.349.332-.073.088-.267.074-.628-.047-.453-.15-.424-.257.033-.122.112.033.267.071.345.084.263.046.064-.089-.243-.164-.33-.08-.431-.167-.391-.328.03-.119.047-.116.118.027m-.054.652a1 1 0 0 0 .357.142c.32.08.393.134.373.28-.012.08-.042.1-.18.106a1.6 1.6 0 0 1-.752-.226c-.02-.06.209-.03.459.056.187.065.314.07.314.016a1.2 1.2 0 0 0-.465-.167.8.8 0 0 1-.173-.064c-.1-.047-.134-.088-.127-.155.023-.22.023-.22.074-.136a1 1 0 0 0 .116.15m-.17.5c0 .092.133.16.475.24s.448.228.248.355c-.148.093-.984-.146-.88-.251a1.1 1.1 0 0 1 .34.059 2.4 2.4 0 0 0 .406.086c.087 0 .088 0 .018-.058a1.5 1.5 0 0 0-.36-.125c-.322-.079-.42-.16-.368-.3.045-.116.12-.12.12-.008m3.369.806q.177.14-.2 0c-.207-.075-.255-.109-.247-.174.007-.045.023-.178.037-.299l.025-.213.167.315a2 2 0 0 0 .22.363m-3.449-.162c0 .03.1.082.236.118.46.126.526.16.54.271.02.19-.079.222-.418.141-.393-.1-.592-.178-.543-.228.024-.024.156-.008.348.042.334.087.537.106.473.044a2 2 0 0 0-.38-.128 1.4 1.4 0 0 1-.382-.142.28.28 0 0 1-.016-.188c.024-.126.03-.13.082-.06a.3.3 0 0 1 .056.13m2.869.384a1.4 1.4 0 0 1-.14.554.9.9 0 0 1 .022-.339c.03-.2.056-.424.057-.5 0-.139.006-.14.046-.04a.9.9 0 0 1 .015.33m1.23-.069c.375.1.567.224.567.366 0 .124-.11.132-.468.033a2.2 2.2 0 0 0-.45-.087c-.12.006-.157-.065-.057-.1a4 4 0 0 1 .866.212c.06.024.073.015.062-.044s-.1-.1-.347-.166a1.4 1.4 0 0 1-.618-.266c-.038-.062.045-.052.445.055m-4.222.2c0 .107.072.15.412.244.374.1.448.164.38.31-.056.126-.126.13-.51.03-.279-.073-.377-.068-.4.024-.014.074.144.16.4.217.375.084.517.234.35.372a1.5 1.5 0 0 1-.78-.115c-.264-.1-.08-.136.3-.052a1 1 0 0 0 .358.041c.03-.047.01-.056-.42-.164-.325-.082-.375-.106-.362-.174.034-.176.07-.238.135-.239s.058-.008.013-.036-.05-.055-.042-.078.123-.013.3.034c.315.081.534.1.5.042a1.7 1.7 0 0 0-.392-.127c-.324-.08-.37-.1-.394-.2a.2.2 0 0 1 .017-.155c.023-.028.03-.065.013-.08s0-.018.041 0a.12.12 0 0 1 .07.1m2.638 1.754-.288 1.632c-.046.262.03-.182 0 0-.274 1.6-.707 4.013-.75 4.149-.073.236-.164.311-.374.311a21 21 0 0 1-2.787-.474c-.084-.083.267-.1.788-.046.3.033.328.03.418-.055l.1-.09.02.1c.013.07 0 .1-.032.081a.07.07 0 0 0-.08.025.4.4 0 0 1-.216.044c-.105 0-.182.008-.172.018s.5.088 1.086.173c1.042.15 1.07.152 1.125.076.07-.1.1-.23.217-.907.05-.3.126-.732.17-.97.282-1.577.35-1.951.515-2.911l.12-.682.124-.722c.121-.72.174-.957.205-.925.01.011-.076.537-.187 1.173m-2.834-.558c-.024.092.067.147.344.207.41.09.53.193.408.36-.05.066-.077.067-.357.016-.443-.08-.467-.079-.482.025-.01.08.02.1.227.157.536.148.634.221.5.378-.055.067-.078.066-.67-.012-.192-.024-.2-.02-.185.074s.057.11.358.186c.383.1.433.13.413.265s-.14.158-.5.088c-.27-.052-.33-.053-.358-.007-.058.095 0 .155.2.206.58.15.675.22.518.376-.086.086-.09.086-.422.018-.355-.072-.42-.063-.42.06 0 .087.034.1.4.188.317.074.383.118.383.252s-.137.161-.413.1-.442-.059-.476 0q-.078.124.377.226c.3.068.43.14.43.244s-.12.158-.3.134l-.39-.053c-.214-.028-.217-.027-.217.078s.02.112.333.18c.407.087.473.13.436.277-.024.1-.05.11-.186.11a3 3 0 0 1-.37-.04c-.246-.047-.338-.024-.338.082 0 .082.014.09.43.183.331.075.4.117.374.238-.034.175-.1.183-.615.069-.454-.099-.427-.099-.448.013-.016.08-.02.077-.024-.02-.007-.147.114-.178.462-.118a3 3 0 0 0 .383.044c.188 0 .045-.067-.269-.125a1.5 1.5 0 0 1-.382-.117l-.109-.067.074-.153c.041-.084.064-.163.051-.175-.038-.039.265-.025.483.021a1.2 1.2 0 0 0 .3.03c.081-.013.075-.02-.05-.062a3 3 0 0 0-.382-.095c-.268-.053-.392-.14-.32-.228a.2.2 0 0 0 .033-.13c-.007-.042.01-.07.037-.065s.04-.015.03-.045c-.028-.07.062-.07.408 0 .325.066.4.07.4.023a3 3 0 0 0-.83-.19c-.018.011-.007-.068.026-.177s.06-.2.06-.21.024 0 .052.018.04.015 0-.035c-.083-.105-.012-.11.383-.027a1.1 1.1 0 0 0 .406.041c.02-.02-.056-.057-.184-.086a8 8 0 0 1-.437-.114c-.192-.057-.214-.075-.187-.152a.6.6 0 0 0 .026-.176c0-.06.015-.084.054-.069q.059.022.032-.044c-.03-.082.013-.082.335-.005.28.068.534.082.433.025a3 3 0 0 0-.41-.122 3 3 0 0 1-.367-.108c-.036-.036.078-.355.118-.33.02.011.03 0 .016-.04s-.04-.066-.06-.066a.04.04 0 0 1-.038-.046q0-.046.052-.007a2 2 0 0 0 .782.144q.041-.042-.284-.11c-.42-.094-.48-.138-.445-.327.02-.113.042-.14.1-.12s.06.016.01-.046c-.03-.038-.05-.077-.04-.084a1 1 0 0 1 .263.04c.456.1.558.113.558.07a.7.7 0 0 0-.3-.115c-.32-.077-.527-.165-.527-.222 0-.092.11-.236.166-.217s.052.008.01-.042c-.08-.1-.026-.11.25-.053.4.086.524.1.524.061s-.186-.1-.47-.146a.7.7 0 0 1-.266-.12c-.1-.084-.1-.106-.06-.2.056-.123.18-.11.146.013m-12.358.053a7 7 0 0 0-.2.94c0 .02.028.047.063.06s.082-.017.124-.117a.9.9 0 0 1 .164-.247c.1-.1.1-.109.037-.208-.075-.115-.054-.228.042-.228a.155.155 0 0 0 .116-.185v-.01a.3.3 0 0 0-.164-.066c-.1-.017-.144 0-.178.06m1.1.206a2.8 2.8 0 0 0-.192.8c0 .06.024.1.06.1.08 0 .1-.047.14-.254.03-.182.137-.293.211-.219.03.03.027.151-.007.381-.05.34-.026.453.08.387a.9.9 0 0 0 .115-.338.66.66 0 0 1 .2-.427c.12-.108.124-.124.06-.17a.9.9 0 0 0-.485-.08.05.05 0 0 0-.011.067q.023.04-.02.015c-.028-.018-.048-.007-.048.021s-.01.04-.024.027a.3.3 0 0 1 .016-.165c.053-.19 0-.282-.09-.148m.828.022a.156.156 0 0 0 .033.218l.027.016c.083.022.08.037-.1.372-.1.192-.19.36-.19.371s.088.045.326.09c.193.036.294-.163.105-.21-.056-.014-.099-.048-.099-.074a2 2 0 0 1 .185-.366c.1-.174.186-.325.186-.335a1.7 1.7 0 0 0-.399-.109.1.1 0 0 0-.062.027m-1.51.1a4 4 0 0 0-.11.485c-.06.327-.063.392-.014.422.085.052.11 0 .16-.3.052-.333.106-.487.17-.487q.046 0 .02.135a1.5 1.5 0 0 0-.047.593c.027.142.03.145.107.077.058-.053.078-.126.077-.283a3 3 0 0 1 .026-.4c.03-.212-.01-.269-.22-.31-.11-.023-.135-.01-.168.071m2.045.356a3 3 0 0 0-.09.4.8.8 0 0 1-.074.268c-.026.034 0 .017.066-.038a.33.33 0 0 0 .113-.165 2 2 0 0 1 .081-.327c.1-.312.1-.337.024-.337-.034 0-.085.083-.12.2m3.245.634a.16.16 0 0 0-.006.226.2.2 0 0 0 .046.034.96.96 0 0 0 .63.066.184.184 0 0 0 .013-.261.2.2 0 0 0-.044-.021 1.1 1.1 0 0 0-.65-.036m.66.154c.085.085-.015.14-.206.11-.232-.034-.387-.1-.354-.156a1 1 0 0 1 .56.046m5.456 3.411c.387.074.49.125.472.238-.023.154-.123.18-.472.12-.41-.068-.556-.12-.47-.168a1 1 0 0 1 .37.024c.28.053.462.05.4-.007a3 3 0 0 0-.4-.1 1.1 1.1 0 0 1-.4-.122c-.02-.065.121-.062.5.01m-.135.584c.46.087.507.115.474.28-.048.236-.1.257-.51.2a1.5 1.5 0 0 1-.4-.1c-.028-.03.008-.037.125-.02.536.077.58.078.636.01s.046-.066 0-.067-.044-.008 0-.04.042-.044-.04-.075a2 2 0 0 0-.309-.067c-.245-.035-.475-.11-.475-.156s.114-.04.5.032m.006.267c.13.025.23.06.218.08a.8.8 0 0 1-.32-.024 6 6 0 0 0-.334-.057c-.019 0-.023-.018-.009-.04s.064-.034.114-.023l.328.065"/></svg>