<svg xmlns="http://www.w3.org/2000/svg" viewBox="0 0 24 24"><path fill="#44739e" d="M9.855 13.671a1.3 1.3 0 0 1 .377.162c.22.135.3.156.413.111s.06-.374-.073-.462c-.06-.04-.134-.034-.34.031a1.1 1.1 0 0 1-.446.031c-.186-.017-.267-.011-.267.02s.046.06.336.107m4.574 1.493a1 1 0 0 1-.136.191c-.1.108-.154.277-.094.277a.5.5 0 0 0 .357-.307 2.6 2.6 0 0 0 .181-.406l-.135.077a.55.55 0 0 0-.173.168m-5.013-.11c.761.362.855.391.855.267s-.112-.188-.688-.415a3 3 0 0 1-.584-.271c-.019-.029-.034-.035-.034-.013-.002.133.173.3.451.432M21.9 9.639a1.74 1.74 0 0 0-.607-1.144 4.07 4.07 0 0 0-2.419-.837c-.329-.005-.375.007-1.565.4l-1.328.4a3 3 0 0 0-.411.059c-.272.052-.323.052-.421 0a4.6 4.6 0 0 1-.572-.609 3 3 0 0 0-.608-.623 2.9 2.9 0 0 0-.922-.1 9 9 0 0 1-.9-.07 2.1 2.1 0 0 0-.78.1l-.079.026.079-.067a.96.96 0 0 1 .7-.177c.275 0 .354-.012.32-.046a1.7 1.7 0 0 0-.738-.041 1.5 1.5 0 0 0-.258.128c-.129.08-.232.1-.783.136a3.2 3.2 0 0 0-.739.1 6.5 6.5 0 0 0-.83.878c-.03.053-.023.069.029.069a1.1 1.1 0 0 0 .313-.258 2.3 2.3 0 0 1 .271-.253c.118 0-.176.461-.364.57a1.7 1.7 0 0 1-.427.04c-.346 0-.376.011-.549.133a.7.7 0 0 1-.254.128 4 4 0 0 1-.5-.136 11 11 0 0 0-2.168-.577 5.4 5.4 0 0 0-2.464.712 1.8 1.8 0 0 0-.813 1.154 2.5 2.5 0 0 1-.063.42 1.45 1.45 0 0 0 .064.943 1.8 1.8 0 0 0 .649.675c.076.032.611.173 1.189.314l1.229.337a9 9 0 0 0 1.212.411c1.949.554 1.928.549 2.028.433.128-.15.132-.192.01-.113l-.117.075.075-.084a.4.4 0 0 1 .154-.11c.062-.02.067-.032.024-.059a.4.4 0 0 0-.159-.036.8.8 0 0 1-.5-.226l-.084-.104-.028.088a.53.53 0 0 0 .083.417c.082.082.021.076-.124-.013a.4.4 0 0 1-.173-.259 1 1 0 0 0-.121-.268l-.062-.084-.065.1a.23.23 0 0 0-.028.23.3.3 0 0 1 .015.153c-.042.041-.25-.231-.292-.382-.064-.226-.126-.284-.322-.3a.9.9 0 0 1-.262-.061 2 2 0 0 0-.193-.087c-.1-.036-.1-.033-.058.02a.17.17 0 0 0 .1.061.4.4 0 0 1 .159.121c.068.072.138.111.174.1s.049-.01.017.027-.026.094.01.2c.028.082.038.149.022.149-.075 0-.235-.172-.292-.312a.6.6 0 0 0-.183-.241c-.066-.048-.12-.11-.12-.139 0-.082-.159-.106-.188-.028a.18.18 0 0 1-.155.125c-.026 0-.112-.091-.192-.2a.7.7 0 0 0-.224-.223c-.043-.012-.069-.044-.058-.072s-.065-.078-.215-.122l-.4-.121a5 5 0 0 0-.536-.12 1.25 1.25 0 0 1-.758-.3 1.06 1.06 0 0 0-.6-.232h-.093l.078.153c.079.155.18.216.438.264a1.7 1.7 0 0 1 .436.137.4.4 0 0 0 .139.026 1.4 1.4 0 0 1 .277.054 2 2 0 0 0 .356.068.8.8 0 0 1 .293.083.5.5 0 0 0 .154.072c.085.013.113.054.037.054a.07.07 0 0 0-.066.071c0 .053.064.087.274.141a1 1 0 0 1 .324.13.5.5 0 0 0 .384.162c.095-.014.119.009.214.2l.106.211-.107-.061a.6.6 0 0 1-.16-.117 1.1 1.1 0 0 0-.273-.163 2 2 0 0 1-.284-.156 1.25 1.25 0 0 0-.516-.149.5.5 0 0 0 .089.122l.089.1-.135-.077a.4.4 0 0 1-.19-.241.4.4 0 0 0-.107-.185 1 1 0 0 0-.324.055 2 2 0 0 1-.413.073c-.133 0-.129-.005.079-.079.357-.125.35-.119.218-.178-.238-.105-.389-.054-.476.162-.027.067-.036.056-.059-.067-.036-.2-.1-.263-.271-.292a3 3 0 0 1-.355-.1 1.3 1.3 0 0 0-.368-.076.3.3 0 0 1-.253-.1 1.17 1.17 0 0 1 .075-1.306 1 1 0 0 0 .115-.19c.015-.042.046-.06.072-.044s.036.012.021-.013c-.078-.126.566-.516 1.071-.648a1.6 1.6 0 0 1 1.101.059l.694.183.438.122a3 3 0 0 0 .307.076c.03 0 .047-.073.047-.2 0-.219-.093-.357-.241-.357a1.6 1.6 0 0 1-.3-.063 1.7 1.7 0 0 0-.719-.018l-.622.063c-.1.015-.094.008.04-.043a4 4 0 0 1 .733-.1 1.6 1.6 0 0 1 .852.051c.2.066.288.118.316.182.022.049.051.089.066.089s.019.04.009.089c-.015.082-.014.082.019.01s.042-.054.083.1c.091.335.144.365.441.257a1.87 1.87 0 0 1 1.047-.14 6 6 0 0 1 1.005.181 3.3 3.3 0 0 1-1.086-.1c-.515-.089-.96.178-.7.417.06.054.114.063.258.041s.182-.016.182.03c0 .139.308.261.376.15q.025-.039.106 0c.089.048.194.037.588-.06l.733-.163a1.2 1.2 0 0 1 .742-.035 1.3 1.3 0 0 1 .268.082 1.7 1.7 0 0 1-.347-.008 1.9 1.9 0 0 0-.822.1 5 5 0 0 1-.567.127c-.075 0-.089.016-.079.1.021.183.115.174 1.419-.135a1.64 1.64 0 0 1 .931-.066c.066.039.038.047-.179.048a5 5 0 0 0-.97.187 4 4 0 0 1-.991.184c-.317 0-.3.007.282.186l.362.11.562-.14.562-.141.291.085.33.084a1.2 1.2 0 0 0 .261-.172l.227-.175-.218-.044c-.23-.046-.346-.027-1.49.25-.368.089-.8.135-.739.078.024-.024 1.333-.336 1.748-.417a.9.9 0 0 1 .515.011 1 1 0 0 0 .262.047q.08-.08-.632-.253l-.852-.218-.713-.18a5 5 0 0 1-.524-.143.7.7 0 0 0-.225-.053.17.17 0 0 1-.118-.033c-.039-.063.379.021 1.442.289l.871.22a6 6 0 0 1 .7.206q.052.044.05-.021a.12.12 0 0 0-.042-.089.07.07 0 0 1-.021-.083c.013-.032.005-.047-.017-.033s-.039 0-.039-.038a.06.06 0 0 1 .05-.066c.111-.009-.322-.123-.506-.133a1.2 1.2 0 0 1-.336-.074l-.139-.063.158.023c.088.013.147.011.132-.005a5.4 5.4 0 0 0-.922-.219.4.4 0 0 1-.195-.075.43.43 0 0 0-.208-.084 1 1 0 0 1-.212-.038c-.088-.031-.085-.034.034-.022l.134.012-.094-.071a.4.4 0 0 0-.386-.081.6.6 0 0 1-.25.04h-.171l.153-.049a1.4 1.4 0 0 0 .242-.1.41.41 0 0 1 .452.1c.2.208.25.085.237-.548-.012-.591-.006-.678.06-.762.053-.069.058.01.049.755l-.009.832.178.022a9.6 9.6 0 0 1 1.721.473 4 4 0 0 1 .042.362l.026.3-.271.22-.447.352a.7.7 0 0 0-.269.376 2.4 2.4 0 0 1-.731.906c-.1.07-.178.135-.17.144s-.043.009-.116 0-.144 0-.159.028a.1.1 0 0 1-.074.044c-.066 0 .414-.316.488-.321.032 0-.011-.02-.1-.04-.142-.034-.174-.024-.4.121a2.4 2.4 0 0 1-.379.206l-.136.047.137.05c.134.049.135.05.027.053a.7.7 0 0 1-.259-.073c-.126-.065-.156-.106-.2-.28-.057-.224-.032-.317.037-.135.061.161.155.253.256.253a2.2 2.2 0 0 0 .965-.781c.037-.069.031-.085-.038-.1a2 2 0 0 0-.652.092.7.7 0 0 1-.223.039.53.53 0 0 0-.409.24c-.013.042-.041.077-.061.077s-.032.11-.027.243c.011.282-.057.353-.129.136-.048-.146-.108-.176-.19-.094s-.06.131.066.386a.64.64 0 0 1 .095.334c-.025.131.028.133.148 0a.35.35 0 0 1 .128-.1c.036 0-.084.24-.142.282a.1.1 0 0 0-.034.06.6.6 0 0 1-.036.126c-.065.17-.036.428.121 1.101a3.9 3.9 0 0 0 .357 1.142 2 2 0 0 1 .141.638 2 2 0 0 0 .133.613 3.1 3.1 0 0 0 1.1.544 5.6 5.6 0 0 0 3.675-.314c.462-.24.487-.281.52-.869a1.65 1.65 0 0 1 .125-.7l.136-.306c.046-.123.318-1.594.318-1.723a.47.47 0 0 0-.119-.228.5.5 0 0 1-.119-.2c0-.058-.072-.062-.7-.042a7 7 0 0 1-.8-.005c-.095-.027-.09-.035.139-.218.368-.294.372-.295.644-.129s.647.278.69.21c.017-.026.08.013.164.1.149.158.185.155.185-.016 0-.121.253-.509.331-.508a1 1 0 0 1 .135.024c.1.028.123.1.019.07-.088-.022-.355.368-.293.43.085.085.232 0 .312-.19.043-.1.094-.179.113-.176.086.014.051-.08-.05-.133a1.3 1.3 0 0 1-.248-.2.5.5 0 0 0-.182-.142c-.072 0-.165.127-.2.267-.015.071-.044.129-.064.129-.066 0-.038-.255.042-.387s.151-.159.236-.079c.029.027-.164-.173-.429-.446-.477-.49-.567-.628-.492-.747a1.4 1.4 0 0 1 .412-.176c.611-.186.6-.179.331-.182a.6.6 0 0 0-.293.046q-.056.052-.026 0c.04-.073-.066-.113-.772-.291a2.8 2.8 0 0 0-.907-.147l-.258.018.23-.073c.257-.081.279-.078 1.1.121l.746.181c.316.077.364.063.422-.128.021-.072.011-.089-.052-.089-.043 0-.322-.062-.621-.137a1.5 1.5 0 0 0-.759-.1 1.2 1.2 0 0 1-.283.026c-.076-.015.418-.149.551-.149.048 0 .392.073.765.161.919.219 1.336.237 1.266.054-.014-.036-.079-.057-.178-.057a.6.6 0 0 1-.244-.046 3.7 3.7 0 0 0-1-.18l-.356-.024.177-.045a1.3 1.3 0 0 1 .456-.01 3 3 0 0 0 .555.011l.556-.037a3 3 0 0 0 .406-.044c.081-.019.129-.016.129.009 0 .089-.261.148-.614.139s-.355-.007-.241.055a1.4 1.4 0 0 0 .378.1l.358.054c.153.034.216-.032.217-.23v-.164l.138.074c.16.086.252.1.229.025a.9.9 0 0 0-.35-.139 2.1 2.1 0 0 0-1.127.006l-.476.059c-.162 0 .087-.07.524-.142a2.3 2.3 0 0 1 1.291.043c.335.109.351.111.426.043a.63.63 0 0 0 .142-.437c-.024-.064-.073-.056-.5.078-.512.162-.547.113-.044-.059.534-.183.634-.193.64-.067q0 .12.024.01c.029-.121.044-.129.461-.237a2.2 2.2 0 0 1 .88-.079c.73.032.775.086.076.092a2.5 2.5 0 0 0-.865.093c-.15.049-.252.1-.228.1a.06.06 0 0 1 .044.052c0 .022-.035.019-.083-.007-.123-.066-.179-.023-.229.176-.032.127-.062.174-.1.159a.07.07 0 0 0-.081.021c-.038.062.226.053.4-.014a2 2 0 0 1 .329-.08c.248-.034.424-.146.414-.265s.032-.191.059-.077c.043.183.124.19.564.043a2.5 2.5 0 0 0 .43-.163c.018-.041.3.032.548.143.322.142.24.162-.14.033-.292-.1-.336-.1-.451-.056a.7.7 0 0 1-.226.053c-.054 0-.077.008-.049.018s.028.057-.035.17c-.049.087-.107.143-.136.132s-.032-.052.029-.155c.044-.075.068-.136.054-.136a1.4 1.4 0 0 0-.211.1.9.9 0 0 1-.258.1.5.5 0 0 0-.178.055 2.3 2.3 0 0 1-.365.117l-.488.142a1.3 1.3 0 0 1-.259.072c-.04-.014-.244.155-.219.181a1 1 0 0 1-.4.075c-.024 0-.074.025-.111.066-.065.072-.062.074.083.044a1.3 1.3 0 0 0 .552-.217.07.07 0 0 1 .086-.033 1 1 0 0 0 .3-.049c.9-.253 1.141-.294 1.282-.218a1.6 1.6 0 0 1 .261.3c.18.245.394.415.45.359.014-.013-.014-.034-.061-.047-.084-.021-.084-.023-.009-.1.093-.1.072-.144-.059-.119-.224.043-.072-.072.424-.321a3.3 3.3 0 0 1 .626-.263c.071 0 .145.053.252.181l.152.182-.115-.015c-.094-.011-.119-.039-.148-.162-.036-.155-.132-.2-.264-.109-.052.033-.051.039.006.039s.085.061.119.166a.26.26 0 0 0 .192.215c.076.027.119.051.1.053s-.069.058-.1.126l-.058.123-.11-.166c-.09-.135-.12-.157-.166-.118s-.045.069.03.2c.117.209.185.262.348.276a.5.5 0 0 1 .2.053c.046.034.051.027.024-.038a.96.96 0 0 1-.074-.5c.024-.024.073.088.134.309s.117.351.16.359.059-.014.035-.158a1.7 1.7 0 0 0-.093-.318.8.8 0 0 1-.065-.229.82.82 0 0 0-.287-.489 4.5 4.5 0 0 0-1.489-.623l-.633-.174c-.07-.071.087-.059.5.036a4.7 4.7 0 0 1 1.131.341 1 1 0 0 0 .256.1c.008-.009-.045-.062-.118-.118a2 2 0 0 0-.528-.206 3 3 0 0 1-.437-.139c-.024-.02-.055-.024-.068-.011s-.009-.031.011-.1c.031-.109.026-.124-.041-.124s-.077.028-.078.109v.109l-.076-.1-.136-.167c-.036-.037-.044-.078-.025-.09a.04.04 0 0 1 .057.012.4.4 0 0 0 .2.037 3.5 3.5 0 0 1 1.133.433 2.6 2.6 0 0 1 .584.587l.061.119-.133-.119a2 2 0 0 1-.163-.159q-.03-.037-.03.008a.1.1 0 0 0 .049.079c.107.069.2.213.329.532.375.9.326 1.269-.243 1.846-.187.189-.262.249-.2.155a.7.7 0 0 0 .124-.268l.013-.114-.16.081a.5.5 0 0 0-.181.138.3.3 0 0 1-.166.1 1 1 0 0 0-.366.2c-.013.017-.055 0-.1-.049a.32.32 0 0 0-.435.019c-.109.088-.112.1-.04.121l.177.059.178.054c.044.011-.038.014-.181.005a1.1 1.1 0 0 1-.379-.084c-.183-.106-.315-.052-.422.171a.6.6 0 0 1-.226.266l-.139.08.089-.113c.161-.206.1-.351-.154-.364-.119-.005-.186.012-.22.057-.092.122-.063.158.1.121.324-.075.46-.009.164.079a1.3 1.3 0 0 0-.32.162 1 1 0 0 1-.27.139.35.35 0 0 0-.165.087 1.5 1.5 0 0 1-.368.25c-.011 0 .024-.065.078-.145.109-.16.122-.25.049-.326-.04-.04-.03-.045.051-.025s.125 0 .228-.116.118-.141.051-.141a.25.25 0 0 0-.153.1.4.4 0 0 1-.22.123c-.129.024-.163.059-.309.315a.8.8 0 0 1-.3.351l-.131.062.1-.146a.4.4 0 0 0 .083-.236q-.017-.088.036-.09c.06 0 .075-.141.019-.175-.088-.054-.313.1-.453.311a1.3 1.3 0 0 0-.146.255c0 .062-.162.243-.219.243s-.038-.039.026-.188a1.3 1.3 0 0 1 .139-.253c.051-.056.05-.067-.006-.089-.084-.032-.336.215-.45.44a.6.6 0 0 1-.201.228l-.117.061.057-.109c.032-.06.096-.2.141-.313.07-.173.1-.2.169-.184s.084.018-.007-.049-.095-.066-.269.131a.64.64 0 0 1-.3.227l-.278.069-.15.043.13.138c.124.131.089.14-.058.014-.1-.082-.087 0 .013.126a.24.24 0 0 0 .193.105c.061 0 .636-.16 1.276-.355a15 15 0 0 0 1.837-.614c.131-.059.7-.23 1.268-.381l1.162-.335a2.3 2.3 0 0 0 .676-.648 1.7 1.7 0 0 0 .236-.754 5 5 0 0 0-.1-.637M2.604 11.471a1 1 0 0 1 .175.2 2 2 0 0 1-.215-.2 1 1 0 0 1-.175-.2 1.6 1.6 0 0 1 .215.2m2.914-3.2a.6.6 0 0 1-.089.213 4 4 0 0 1-.46.078l-.828.147c-.277.063-.419.079-.447.052a.25.25 0 0 1 0-.263c.03-.045.039-.028.039.07 0 .143.032.154.213.072a4.3 4.3 0 0 1 .801-.237l.248-.048c.048-.013.089-.007.089.017s-.058.049-.129.058l-.128.016.142.006c.14.006.413-.065.379-.1a.4.4 0 0 1 .011-.152c.032-.144 0-.175-.078-.08a.15.15 0 0 1-.113.052 1.1 1.1 0 0 0-.441.144q-.062.05-.029 0c.033-.05-.008-.041-.106-.025-.077.012-.146 0-.161-.02a.08.08 0 0 0-.093-.017c-.053.02-.043.035.051.074l.118.048-.139.034c-.118.032-.144.026-.175-.037s-.074-.072-.188-.065c-.293.017-.192-.039.272-.149a4 4 0 0 1 .836-.119 2 2 0 0 0 .386-.03c.012-.012.048-.011.081 0s.042.034.022.047a.6.6 0 0 0-.084.215Zm1.437.839-.4-.108a.37.37 0 0 1-.182-.092c-.025-.067.3 0 .669.138.342.13.288.162-.087.062m-1.142-.817a.3.3 0 0 0 .072.173 14 14 0 0 0 1.395.444c.4.1.692.216.693.271a.027.027 0 0 1-.024.029c-.085 0-2.135-.679-2.176-.721a1 1 0 0 1-.074-.432c.012-.02.052-.027.089-.016l.561.162 1.735.555a1 1 0 0 1-.268-.063 3 3 0 0 0-.357-.09.5.5 0 0 1-.141-.034 3 3 0 0 0-.355-.091 7 7 0 0 1-.654-.189 4 4 0 0 0-.427-.131c-.083-.01-.09.001-.069.133m2.319.939c-.07-.043-.046-.416.026-.416a1 1 0 0 1 .013.22c0 .137-.015.211-.039.196m.931.323a.9.9 0 0 1 .416.025l.178.057h-.376a2 2 0 0 0-.485.045 2 2 0 0 1-.357.07 1.3 1.3 0 0 0-.355.08.3.3 0 0 1-.35-.007c-.028-.034-.035-.057-.015-.051a1.2 1.2 0 0 0 .492-.09c0-.022-.121-.034-.287-.028-.282.01-.664-.069-.664-.137 0-.019.039-.021.087-.006a4 4 0 0 0 .5.048 7 7 0 0 0 1.216-.006m-.057-.93a1.4 1.4 0 0 1-.377.024l-.279-.012.138-.067a.52.52 0 0 1 .456-.026c.155.043.155.046.062.081m.715-.453a.64.64 0 0 0-.056.285c.022.085.021.085-.12.018-.08-.039-.131-.087-.116-.111a2.4 2.4 0 0 1 .355-.4.7.7 0 0 1-.063.208m1.478-.544a.4.4 0 0 1-.21.039c-.134 0-.169-.012-.126-.039.082-.052.371-.052.336 0m-.851 1.366a3.5 3.5 0 0 1 .025-1.129c.008 0 .014.26.014.577.003.375-.011.568-.036.552Zm.219-1.5c0 .089-.022.119-.091.128l-.089.013.087-.148.087-.147-.176.028a.7.7 0 0 0-.205.056 7 7 0 0 0-.073.8 5 5 0 0 1-.085.811c-.028.027-.033-.119-.015-.456.056-1.089.071-1.223.138-1.241a3.5 3.5 0 0 1 .916.013.45.45 0 0 1-.193.039c-.126 0-.132.008-.116.121.011.075 0 .114-.025.106s-.048-.072-.055-.142c-.013-.16-.1-.145-.102.017Zm.488 1.547a.8.8 0 0 1-.02-.357l.025-.371c.001-.049.01-.089.021-.089a2.5 2.5 0 0 1 .018.446c0 .34-.008.426-.041.369Zm-.1-1.179-.229.025-.02.575c-.012.341-.033.553-.054.521a4 4 0 0 1 .068-1.111c.068-.056.544-.114.49-.059a1 1 0 0 1-.254.047ZM9.214 11.51c.066 0 .111.04.159.14.091.192.084.2-.036.062a.34.34 0 0 0-.159-.122c-.03 0-.056-.018-.056-.04s.042-.04.092-.04m8.417-2.6c.048-.122.061.034.016.191l-.038.132v-.125a.6.6 0 0 1 .022-.198m-3.174-.887a6 6 0 0 1 .469.511c-.048.048-.386-.214-.58-.45-.454-.552-.396-.584.111-.062Zm-.895-.6a.2.2 0 0 1 .109.109.22.22 0 0 0 .143.11c.115.022.119.016.061-.091q-.042-.078 0-.077c.042.001.046.023.057.168a.12.12 0 0 0 .027.07 1.54 1.54 0 0 1 .074.932c-.07.044-.078.007-.093-.4-.016-.469-.037-.53-.179-.53a.23.23 0 0 1-.249-.2c-.013-.093-.005-.11.05-.096Zm-2.152.932c-.009.093-.016.026-.016-.148s.007-.251.016-.169a2 2 0 0 1 0 .312Zm.051-.722c-.084-.045-.118-.278-.041-.278.022 0 .04.043.04.1 0 .091.016.1.307.121a5 5 0 0 0 .676.027c.159-.006.167-.011.107-.071a.14.14 0 0 1-.043-.121c.013-.032.005-.045-.019-.03a2 2 0 0 1-.426-.006c-.3-.025-.354-.038-.245-.058.209-.04.231-.04.255 0 .014.021.071.022.141 0a6 6 0 0 1 1.123.028c-.029.009-.038.071-.025.167s0 .162-.03.182-.04.015-.025-.01a.25.25 0 0 0-.036-.164.19.19 0 0 0-.2-.131l-.248-.014c-.1-.006-.112.006-.1.091.016.147.08.188.286.182.115 0 .157.005.109.023a9 9 0 0 1-1.606-.043Zm1.772.977c-.008.126-.015.033-.015-.207s.006-.343.014-.229a4 4 0 0 1 .001.436m-.349-1.049c0 .017-.015.03-.037.03s-.039-.049-.037-.109c0-.1.007-.1.037-.03a1 1 0 0 1 .037.106Zm-.365 1.136c.023-.08.033-.059.055.115a.9.9 0 0 1 .007.268c-.072.188-.127-.151-.062-.383m-.534-.842c-.147-.008-.027-.014.267-.014s.415.006.268.014-.388.008-.535 0m-.03 2.908a3 3 0 0 1 .647.055c.258.061.424.13.391.163a1.6 1.6 0 0 1-.35-.067 2.1 2.1 0 0 0-.826-.058c-.324.017-.482.013-.456-.012.063-.062.172-.077.594-.081m-.257.859a.3.3 0 0 1-.063.109c-.034.042-.055.059-.045.037s.027-.071.041-.109c.025-.071.068-.094.068-.037Zm-1.185.265.093.178c.1.184.362.429.312.288a.5.5 0 0 0-.093-.149c-.09-.1-.169-.26-.144-.284s.057.017.1.062c.132.132.274.1.2-.044a.2.2 0 0 1-.018-.138c.019-.049.036-.044.1.03.086.106.2.081.2-.044 0-.088.066-.236.105-.236.013 0 .015.076 0 .169l-.019.17.23-.038a3.3 3.3 0 0 1 1.013.074.13.13 0 0 0 .158-.054q.16-.188.117.075c-.043.263 0 .2.176.052l.127-.107-.029.1a.6.6 0 0 1-.1.176.6.6 0 0 0-.1.154c-.059.165.233-.124.3-.3l.067-.174v.157a.34.34 0 0 1-.124.287.46.46 0 0 1-.179.131.6.6 0 0 0-.2.133 1.13 1.13 0 0 1-.6.3 1.6 1.6 0 0 1-1.583-.583.3.3 0 0 1-.127-.251Zm2.714.545c.048.048-.426.422-.639.505a2.4 2.4 0 0 1-1.306.023 1.45 1.45 0 0 1-.629-.437q-.22-.286.173.041a1.36 1.36 0 0 0 1.03.391 1.43 1.43 0 0 0 .982-.269c.174-.153.361-.276.389-.254m-3.957.152.447-.2c.108-.07.185-.042.432.156a2 2 0 0 1 .253.224c0 .015-.062.052-.148.082a3 3 0 0 1-.8.044c-.77-.015-.791-.049-.184-.306m1 .645a.17.17 0 0 1-.07.129c-.062.038-.07.027-.074-.1s.007-.145.07-.128a.1.1 0 0 1 .075.099Zm-.793 0c0 .1-.013.148-.032.118-.03-.048-.015-.286.018-.286a.5.5 0 0 1 .015.163Zm4.24-.208c.022 0 .039.04.037.089a.5.5 0 0 1-.037.168c-.026.062-.034.042-.037-.089 0-.097.019-.173.038-.173Zm-.125.344a.62.62 0 0 0 .384.016 4 4 0 0 1 .624-.043c.4 0 .452.008.456.069a2.3 2.3 0 0 1-.112.645c-.017 0-.022.033-.011.074a3.6 3.6 0 0 1-.249 1.07 1.9 1.9 0 0 0-.147.688 1.7 1.7 0 0 1-.076.466c-.03 0-.022-.144.031-.564l.019-.149-.325.119a2 2 0 0 1-.445.119c-.117 0-.115 0 .055-.09a.36.36 0 0 0 .228-.251.4.4 0 0 1 .15-.215c.054-.029.1-.068.1-.088 0-.052-.14 0-.466.167a1.1 1.1 0 0 1-.286.125c0-.08.127-.162.637-.42.476-.241.577-.308.618-.409l.05-.122-.227.1-.6.268a1.04 1.04 0 0 0-.429.262c-.052.1-.053.1-.027-.023a.4.4 0 0 1 .072-.163 6 6 0 0 1 .562-.275c.576-.258.678-.33.7-.494.009-.062.006-.109-.006-.1l-.791.359a4 4 0 0 1-.437.18.07.07 0 0 0-.056.05q-.02.046-.023-.016c0-.083.089-.142.552-.349.7-.315.786-.363.826-.478l.037-.108-.243.119-1.046.468c-.064.025-.09.02-.09-.015a3 3 0 0 1 .624-.34c.69-.323.763-.372.763-.507 0-.089-.012-.093-.295-.093a.8.8 0 0 0-.318.039.7.7 0 0 0-.043.182.7.7 0 0 1-.042.184 2.8 2.8 0 0 1-.636.309.13.13 0 0 0-.089.07c-.034.059-.041.06-.042.006 0-.081.084-.151.356-.292s.317-.176.317-.231c0-.082-.28.009-.511.167a.67.67 0 0 1-.448.166h-.21l.151.04c.26.069.278.133.251.912l-.042 1.1v.317a1 1 0 0 1 .043-.159.6.6 0 0 0 .046-.208c.008-.095.153-.088.183.009a.22.22 0 0 1-.138.259.11.11 0 0 0-.079.094.3.3 0 0 1-.1.166.73.73 0 0 0-.213.418c0 .06.009.059.083-.008a.9.9 0 0 1 .248-.136c.106-.04.168-.089.175-.139.032-.209.055-.271.084-.224.019.03.052-.039.084-.174l.054-.224.176.024a3 3 0 0 0 .29.024c.063 0 .113.018.113.039s-.026.028-.059.015a.8.8 0 0 0-.317.11l-.257.133v.4l-.352.127-.38.127a.25.25 0 0 1-.1-.086.34.34 0 0 0-.264-.1c-.3-.022-1.257-.035-1.315-.017a.3.3 0 0 0-.11.129c-.054.1-.053.114.009.114a.3.3 0 0 0 .162-.089c.088-.082.127-.088.516-.079a1.2 1.2 0 0 1 .51.069.44.44 0 0 0 .2.06.4.4 0 0 1 .17.039c.041.027-.02.038-.205.039s-.27-.016-.28-.047-.125-.052-.308-.059a.66.66 0 0 0-.425.067.63.63 0 0 1-.476.054c-.07-.019-.084-.043-.065-.118.035-.138-.082-.168-.205-.052l-.1.091-.277-.089a.7.7 0 0 1-.276-.126.04.04 0 0 0-.042-.038c-.023 0-.029.021-.014.046s.011.035-.017.018a.4.4 0 0 1-.046-.224v-.2l-.242-.122a.7.7 0 0 0-.3-.1.3.3 0 0 0-.108.144c-.052.122-.052.121-.1-.167l-.065-.479a1.8 1.8 0 0 0-.139-.443 5.5 5.5 0 0 1-.381-1.445.034.034 0 0 0-.022-.052c-.061-.02-.1-.428-.04-.428.025 0 .045.014.045.032a2.8 2.8 0 0 0 .614.03h.614v-.189c0-.245.071-.245.087 0 .011.175.019.187.111.174a1 1 0 0 0 .218-.063 4 4 0 0 1 1.374-.17 5.7 5.7 0 0 1 1.814.177Zm1.338-2a.4.4 0 0 1 .069.067c.048.054.052.073.014.073a.5.5 0 0 0-.178.093c-.106.078-.138.085-.215.045-.05-.027-.062-.04-.026-.03s.264-.154.337-.256ZM17.72 8.6a7.5 7.5 0 0 1-1.567.447c-.04-.015-.057-.085-.057-.222s-.015-.2-.061-.2-.059.048-.059.193a.4.4 0 0 1-.051.236 1.6 1.6 0 0 1-.367.106c-.655.133-3.088.777-3.238.857s-.031.083.23.013a2.85 2.85 0 0 1 1.518.177 6 6 0 0 0 .732.164c.124 0 .124 0 .027.042a.7.7 0 0 1-.258.024 12 12 0 0 1-1.406-.367l-.139-.061.1.078c.147.116.059.155-.118.053a.44.44 0 0 0-.445-.047l-.148.041.2.177a.9.9 0 0 0 .246.176 3 3 0 0 0 .32-.086.83.83 0 0 1 .616-.016c.37.077.626.167.586.208a2 2 0 0 1-.461-.066 1.3 1.3 0 0 0-.564-.054l-.129.036.144.069a.8.8 0 0 0 .268.068 2.2 2.2 0 0 1 .7.161c.013.02-.045.038-.128.04a2 2 0 0 0-.25.02q-.1.016-.045-.018c.061-.039.033-.062-.121-.1-.059-.014-.117-.008-.13.013s.026.051.086.067l.111.028-.113.03a.38.38 0 0 1-.375-.133.57.57 0 0 0-.411-.188h-.131l.205.118a.6.6 0 0 1 .224.188l.043.179c.022.095.044.109.172.109a.5.5 0 0 1 .2.036.25.25 0 0 0 .195-.024.6.6 0 0 1 .4-.012c.339.06.518.116.518.161s-.049.045-.357-.023q-.555-.122-.554.012c0 .179.341.577.668.779.226.141.331.113.482-.126s.154-.168.017.1c-.188.375-.421.446-.806.245a2 2 0 0 0-.331-.139 1.8 1.8 0 0 1-.83-1.095c-.042-.207-.067-.249-.189-.323a3.4 3.4 0 0 1-.408-.342c-.3-.284-.306-.315-.222-.733a.5.5 0 0 1 .137-.3 2.8 2.8 0 0 1 .579-.2l.725-.206.768-.213c.462-.119.55-.131.68-.092a.7.7 0 0 0 .42-.02l.518-.1a5 5 0 0 0 .624-.159 3 3 0 0 1 .489-.122.3.3 0 0 0 .149-.034 5 5 0 0 1 .825-.3q.232-.065.272-.026c.04.039-.013.054-.114.082-.536.147-.667.194-.658.236.013.058-.182.135-.278.11a.5.5 0 0 0-.2.013l-.373.084c-.211.044-.249.065-.27.152a.5.5 0 0 1-.109.191q-.081.088-.031.089c.059 0 1.728-.492 1.943-.573.123-.046.141-.071.159-.225.043-.355.143-.369.125-.018-.015.293.084.233-.918.547Zm.2-.309a.66.66 0 0 1-.3.125c-.01-.009.041-.045.113-.081.134-.075.186-.087.186-.052Zm2.932.679a4.7 4.7 0 0 1-1.179.349c-.05-.02.008-.055.208-.123l.337-.118c.037-.018-.04-.054-.188-.1-.294-.092-.336-.176-.068-.136a1.7 1.7 0 0 1 .321.086.66.66 0 0 0 .355.033c.121-.024.213-.02.213.001Zm-2.219 3.341a.7.7 0 0 1-.178.076c-.022 0 .023-.035.1-.076a.7.7 0 0 1 .178-.076c.02-.008-.024.026-.101.068Zm-9.022 3.383.113.028-.06-.118a.7.7 0 0 0-.126-.17.7.7 0 0 1-.12-.161.6.6 0 0 0-.2-.192l-.144-.085.147.268c.178.323.243.394.39.43m11.676-5.284a4 4 0 0 1-.436.052c-.216.015-.257.029-.257.089s.035.076.118.086a4.6 4.6 0 0 0 1.09-.242c-.002-.043-.289-.035-.515.015m-10.754 6.176a.17.17 0 0 1-.064-.1.4.4 0 0 0-.121-.156c-.143-.127-.146-.279-.007-.371.087-.057.089-.055.089.1a.3.3 0 0 0 .039.185c.025.015.04-.06.04-.2s-.014-.214-.031-.2-.031-.055-.032-.146l-.034-.822-.034-.658.094-.066.094-.065h-.09a1 1 0 0 1-.316-.145c-.222-.143-.6-.277-.6-.211s.138.165.44.3a.8.8 0 0 1 .313.2c0 .057-.064.075-.086.023a1.3 1.3 0 0 0-.3-.141c-.362-.141-.487-.238-.487-.378a.26.26 0 0 0-.047-.156 1.1 1.1 0 0 0-.607-.008c-.084.137.046.218.993.612.383.16.442.2.484.306l.046.124-.088-.083a5 5 0 0 0-.721-.346l-.664-.282c-.016-.01-.03 0-.03.026 0 .1.232.24.763.456a5 5 0 0 1 .633.289c.075.063.054.153-.022.1a8 8 0 0 0-.621-.266l-.629-.274c-.046-.035-.05-.025-.027.056.064.22.157.286.736.522a4 4 0 0 1 .639.3 1 1 0 0 1 .048.708c-.054.066-.058.067-.038 0 .048-.155-.048-.268-.351-.412-.328-.155-.465-.163-.247-.013a.34.34 0 0 1 .165.226.35.35 0 0 0 .326.25c.068 0 .068 0 0 .041-.05.03-.153.017-.376-.045a3 3 0 0 1-.382-.125c-.066-.035-.072-.029-.05.054a1 1 0 0 1 .026.192c0 .175.037.191.348.162.285-.026.289-.025.313.075a1 1 0 0 0 .114.242.8.8 0 0 1 .1.232c.01.067.076.119.255.2l.241.109-.089-.185a1 1 0 0 0-.148-.236m10.9-5.771c-.1.183-.1.184-.016.158a.54.54 0 0 0 .317-.336 1 1 0 0 0 .055-.157l-.13.076a.8.8 0 0 0-.226.259m-.556-1.405c.069 0 .069 0 0-.059-.108-.082-.169-.073-.283.041a.34.34 0 0 1-.178.1c-.148 0-.128.116.076.427.278.422.309.453.435.43.058-.011.21-.032.336-.046.322-.035.277-.115-.073-.13a.7.7 0 0 1-.337-.069 1.7 1.7 0 0 1-.263-.5c-.015-.066.173-.194.287-.194m-2.422 2.546a.5.5 0 0 1 .109-.176c.027-.017.031-.03.009-.029a1.3 1.3 0 0 0-.252.237 1 1 0 0 0-.186.236.49.49 0 0 0 .32-.268m-7.143.719a1.41 1.41 0 0 0 1.393-.114l.223-.148-.072-.123a1.27 1.27 0 0 0-1.2-.356c-.339.057-.706.244-.711.363s.165.281.367.378m5.22-4.165c0-.035-.068 0-.163.077s-.112.187-.015.187c.046.003.178-.199.178-.264m-4.55 4.813q.015.069.132.079l.445.053c.3.041.337.038.447-.032l.12-.076-.407-.047c-.592-.068-.753-.063-.737.023m1.717-1.413.165.095.336.212c.208.142.329.184.408.14.045-.026-.016-.084-.253-.241-.257-.17-.344-.206-.485-.206Zm6.547-1.709a.16.16 0 0 0 .2.174c.1-.027.108-.047.026-.163s-.199-.115-.226-.011m-8.847 3.251a4 4 0 0 0 .407-.054c.035-.036-.044-.144-.1-.138l-.223.02-.486.057-.327.044.1.078a.22.22 0 0 0 .169.055c.034-.012.242-.04.46-.062m4.347-4.786a.26.26 0 0 0-.136.015 2 2 0 0 1-.413.055 6.2 6.2 0 0 0-1.532.383 3 3 0 0 1-.463.133 2.6 2.6 0 0 0-.75.256.22.22 0 0 0-.034.148l.013.091.078-.089a.38.38 0 0 1 .417-.048c.042.027 0 .038-.149.039-.116 0-.208.018-.208.041 0 .093.147.08.625-.053l2.011-.518a2.4 2.4 0 0 0 .616-.186.35.35 0 0 0 .036-.157c.001-.083-.02-.103-.111-.11m-1.973.668c-.088.088-.4.162-.356.083a.12.12 0 0 1 .1-.046.5.5 0 0 0 .186-.074c.14-.087.178-.071.07.037m.366-.042c-.089 0-.138-.016-.123-.04s.206-.016.254.025c.009.008-.05.015-.131.015m.352-.244c-.114 0-.112-.005.04-.055.211-.069.3-.069.178 0a.5.5 0 0 1-.218.055m1.037-.088a2 2 0 0 1-.662.153.043.043 0 0 0-.058.019.1.1 0 0 1-.066.041c-.065 0 .138-.2.205-.2.052 0 .052-.006 0-.038-.073-.047-.046-.059.316-.136.3-.066.341-.061.323.039a.26.26 0 0 1-.058.122m-1.705 2.828c.122 0 .128-.006.073-.07a4 4 0 0 1-.188-.266c-.106-.163-.154-.2-.274-.222l-.145-.02.14.221c.203.317.246.357.394.357m-2.724 2.198c-.048-.028-.048-.024 0 .034a.24.24 0 0 0 .179.063h.124l-.123-.03a.8.8 0 0 1-.18-.067m1.144 2.704a.4.4 0 0 0 .158 0c.038-.01 0-.017-.089-.017s-.113.008-.069.017m-.308-3.175a2 2 0 0 0-.376.018l-.446.059c-.114.016-.208.044-.208.062a1.8 1.8 0 0 0 .559.288c.084.02.111.006.149-.077a.2.2 0 0 0 .021-.143c-.014-.022.019-.012.073.025.109.071.2.053.332-.066.084-.075.084-.074.065.026a.22.22 0 0 0 .03.162c.054.065.3.081.335.021a1 1 0 0 1 .219-.144c.108-.06.188-.121.178-.137a1.7 1.7 0 0 0-.405-.055Zm.65.453a.6.6 0 0 1-.2.077l-.157.04.191-.015c.191-.014.306-.071.234-.116a.06.06 0 0 0-.068.014m.581-.04a.85.85 0 0 0 .485-.223.66.66 0 0 1 .306-.118.5.5 0 0 0 .242-.077c.034-.042-.021-.051-.287-.047a4 4 0 0 1-.515-.028c-.182-.031-.188-.029-.267.1a.6.6 0 0 0-.082.263c-.003.119.008.13.118.13m2.433-4.002c-.016 0 .012.035.062.079a.34.34 0 0 0 .13.079c.021 0-.006-.036-.062-.079a.4.4 0 0 0-.13-.079M3.558 9.575c-.175-.088-.268-.105-.314-.059s-.025.081.132.152a.5.5 0 0 1 .159.09 3 3 0 0 1-.2.291l-.2.273H2.86c-.241 0-.365.043-.3.106a2 2 0 0 0 .351.042l.33.02.224-.279c.366-.458.372-.501.093-.636m-.626-.283a1 1 0 0 0-.163.109q-.148.108-.128.181a.34.34 0 0 1-.112.218 1.3 1.3 0 0 0-.262.553c0 .092.072.047.158-.1.054-.092.1-.129.114-.1a.5.5 0 0 0 .388.047.7.7 0 0 0 .209-.212l.124-.18-.081-.08a.27.27 0 0 0-.121-.081c-.056 0 .065-.225.145-.27.054-.03.048-.039-.037-.055-.128-.024-.17 0-.222.138-.023.059-.067.108-.1.108a.5.5 0 0 0-.13.023c-.054.017-.047 0 .028-.069.114-.102.218-.23.19-.23m.014.515c.019 0 .033.022.032.049 0 .069-.109.3-.113.243-.007-.095.048-.289.081-.289Zm.4.967c.158-.05.058-.139-.183-.163l-.453-.054c-.354-.045-.522-.047-.522-.006a4.1 4.1 0 0 0 1.158.223m.136-.126a.36.36 0 0 1 .156-.108c.162-.067.208-.161.122-.248-.057-.057-.073-.051-.183.067a.37.37 0 0 0-.118.234c.002.058.012.082.023.055m-1.184.07q-.074 0-.075.082a.48.48 0 0 0 .294.314c.055 0 .054-.016-.005-.148-.09-.208-.125-.248-.214-.248m1.616-.651c.061-.046.067-.067.027-.107s-.05-.037-.05.017a.063.063 0 0 1-.059.067c-.033 0-.059.018-.059.04 0 .056.051.049.141-.017m8.398-3.272c.1.028.171.061.159.072-.033.033.1.166.172.166.1 0-.187-.27-.328-.312a.94.94 0 0 0-.508-.042c-.257.042-.472.156-.514.273-.032.09-.03.092.037.034a1.19 1.19 0 0 1 .982-.191M4.056 9.21l-.212.066.213.049a2 2 0 0 0 .362.05c.129 0 .147-.012.147-.095 0-.162-.154-.183-.51-.07m.233.446c0-.114-.069-.155-.52-.306-.634-.214-.69-.17-.129.1.616.294.649.304.649.206m1.316 2.24a.6.6 0 0 0 .139.186c.1.04.067-.042-.078-.2l-.151-.159ZM4.314 9.85c.115-.071.284-.321.216-.321-.017 0-.05.044-.075.1a.34.34 0 0 1-.344.2c-.077-.019-.094-.011-.076.036.031.081.129.076.279-.015m-.338-.74a1.3 1.3 0 0 1 .352-.067h.179l-.119-.053a.87.87 0 0 0-.635.026 2 2 0 0 1-.357.081c-.117 0-.117.005-.02.036a1.05 1.05 0 0 0 .6-.023m5.123 2.281a1.4 1.4 0 0 0 .216-.086 1.85 1.85 0 0 1 .779-.109l.593-.022.038-.136c.029-.1.09-.167.237-.257.168-.1.184-.124.109-.135a.7.7 0 0 0-.284.089.9.9 0 0 1-.327.1 3 3 0 0 0-.368.04l-.353.06c-.106.018-.112.014-.058-.04a2.1 2.1 0 0 1 .731-.181 1 1 0 0 0 .293-.073c.161-.065.167-.073.08-.1a1.3 1.3 0 0 0-.681.072l-.446.115c-.032.015-.058.005-.058-.016a.037.037 0 0 0-.033-.039c-.018 0-.025.05-.016.111.013.093-.024.15-.233.357a1.1 1.1 0 0 0-.219.25m9.672.161c-.062.028-.05.032.053.02a.5.5 0 0 0 .155-.039c.036-.035-.12-.023-.208.019m1.416-1.734c-.03-.04-.051-.047-.054-.019-.019.179-.014.186.124.2s.135.007.059-.051a1 1 0 0 1-.129-.13m-5.405 1.078a4 4 0 0 0 .407.436q.466.455.027-.043c-.169-.192-.471-.464-.434-.393m-6.65 1.664c0 .109.139.274.2.237s.044-.121-.059-.231c-.121-.13-.141-.131-.141-.006M6.676 9.653c-.071.02-.129.052-.129.069a.9.9 0 0 0 .428.141c.116.019.125.015.072-.037a.32.32 0 0 0-.19-.06c-.072 0-.114-.013-.092-.029s.078-.135.049-.125Zm3.538 1.894a2 2 0 0 0-.18.257c0 .037.157.027.236-.016a1.8 1.8 0 0 0 .358-.451c0-.014-.053-.025-.117-.025-.095-.002-.149.043-.297.235m8.824-.016c-.1.11-.114.177-.029.177a.06.06 0 0 1 .061.05c0 .027.032-.013.069-.089.06-.123.094-.145.306-.191l.557-.148.348-.1c.016 0 .054.058.083.128l.054.129.028-.148c.02-.107.048-.149.1-.149s.069-.023.052-.148c-.02-.145-.019-.146.035-.05.1.188.393.1.529-.166a.6.6 0 0 0 .056-.129c0-.04-.177-.012-.4.065-.142.048-.235.1-.25.15-.033.105-.236.213-.515.276a3 3 0 0 0-1.084.343M6.349 9.51c0-.051-.013-.052-.079-.011s-.125.034-.346-.036l-1.351-.369c-.012 0 .019.042.068.094s.072.106.052.119a.2.2 0 0 0-.06.106c-.021.08-.018.081.053.016.127-.114.6-.051 1.357.182.134.041.306-.016.306-.101"/></svg>