<?xml version="1.0" encoding="UTF-8"?>
<svg width="24px" fill="#44739e" height="24px" viewBox="0 0 24 24" version="1.1" xmlns="http://www.w3.org/2000/svg" xmlns:xlink="http://www.w3.org/1999/xlink">
            <path d="m 9.856,14.061 a 1.294,1.294 0 0 1 0.377,0.161 c 0.22,0.135 0.3,0.156 0.413,0.111 0.113,-0.045 0.06,-0.373 -0.073,-0.461 -0.06,-0.04 -0.134,-0.034 -0.34,0.031 A 1.13,1.13 0 0 1 9.787,13.934 C 9.601,13.917 9.52,13.923 9.52,13.954 c 0,0.031 0.046,0.06 0.336,0.107 z m 4.574,1.492 a 1.157,1.157 0 0 1 -0.136,0.191 c -0.1,0.108 -0.154,0.277 -0.094,0.277 a 0.5,0.5 0 0 0 0.357,-0.307 2.556,2.556 0 0 0 0.181,-0.406 c 0,0 -0.065,0.035 -0.135,0.077 a 0.546,0.546 0 0 0 -0.173,0.168 z m -5.013,-0.11 c 0.761,0.362 0.855,0.391 0.855,0.267 0,-0.124 -0.112,-0.188 -0.688,-0.415 A 3.148,3.148 0 0 1 9,15.024 C 8.981,14.995 8.966,14.989 8.966,15.011 c -0.002,0.133 0.173,0.3 0.451,0.432 z M 21.9,10.029 A 1.744,1.744 0 0 0 21.293,8.885 4.074,4.074 0 0 0 18.874,8.048 c -0.329,-0.005 -0.375,0.007 -1.565,0.4 -0.674,0.222 -1.271,0.4 -1.327,0.4 a 3.336,3.336 0 0 0 -0.411,0.059 c -0.272,0.052 -0.323,0.052 -0.421,0 A 4.6,4.6 0 0 1 14.578,8.298 2.99,2.99 0 0 0 13.97,7.675 a 2.867,2.867 0 0 0 -0.922,-0.1 8.885,8.885 0 0 1 -0.9,-0.07 2.118,2.118 0 0 0 -0.78,0.1 l -0.079,0.026 0.079,-0.067 a 0.961,0.961 0 0 1 0.7,-0.177 c 0.275,0 0.354,-0.012 0.32,-0.046 A 1.663,1.663 0 0 0 11.65,7.3 1.456,1.456 0 0 0 11.392,7.428 c -0.129,0.08 -0.232,0.1 -0.783,0.136 A 3.179,3.179 0 0 0 9.87,7.664 6.46,6.46 0 0 0 9.04,8.542 C 9.01,8.595 9.017,8.611 9.069,8.611 A 1.062,1.062 0 0 0 9.382,8.353 2.267,2.267 0 0 1 9.653,8.1 C 9.771,8.1 9.477,8.561 9.289,8.67 A 1.686,1.686 0 0 1 8.862,8.71 C 8.516,8.71 8.486,8.721 8.313,8.843 A 0.737,0.737 0 0 1 8.059,8.971 4.013,4.013 0 0 1 7.559,8.835 11,11 0 0 0 5.391,8.258 5.418,5.418 0 0 0 2.928,8.97 a 1.811,1.811 0 0 0 -0.813,1.154 2.488,2.488 0 0 1 -0.063,0.42 1.454,1.454 0 0 0 0.064,0.943 1.791,1.791 0 0 0 0.649,0.675 c 0.076,0.032 0.611,0.173 1.189,0.314 0.578,0.141 1.13,0.293 1.228,0.337 a 9.1,9.1 0 0 0 1.212,0.411 c 1.949,0.554 1.928,0.549 2.028,0.433 0.128,-0.15 0.132,-0.192 0.01,-0.113 L 8.315,13.619 8.39,13.535 a 0.433,0.433 0 0 1 0.154,-0.11 c 0.062,-0.02 0.067,-0.032 0.024,-0.059 A 0.377,0.377 0 0 0 8.409,13.33 0.8,0.8 0 0 1 7.909,13.104 L 7.825,13 7.797,13.088 a 0.529,0.529 0 0 0 0.083,0.417 c 0.082,0.082 0.021,0.076 -0.124,-0.013 A 0.408,0.408 0 0 1 7.583,13.233 0.957,0.957 0 0 0 7.462,12.965 L 7.4,12.881 l -0.065,0.1 a 0.233,0.233 0 0 0 -0.028,0.23 0.28,0.28 0 0 1 0.015,0.153 C 7.28,13.405 7.072,13.133 7.03,12.982 6.966,12.756 6.904,12.698 6.708,12.682 A 0.864,0.864 0 0 1 6.446,12.621 C 6.399,12.596 6.312,12.557 6.253,12.534 c -0.1,-0.036 -0.1,-0.033 -0.058,0.02 a 0.166,0.166 0 0 0 0.1,0.061 0.422,0.422 0 0 1 0.159,0.121 c 0.068,0.072 0.138,0.111 0.174,0.1 0.036,-0.011 0.049,-0.01 0.017,0.027 -0.032,0.037 -0.026,0.094 0.01,0.2 0.028,0.082 0.038,0.149 0.022,0.149 -0.075,0 -0.235,-0.172 -0.292,-0.312 A 0.621,0.621 0 0 0 6.202,12.659 c -0.066,-0.048 -0.12,-0.11 -0.12,-0.139 0,-0.082 -0.159,-0.106 -0.188,-0.028 a 0.176,0.176 0 0 1 -0.155,0.125 c -0.026,0 -0.112,-0.091 -0.192,-0.2 A 0.7,0.7 0 0 0 5.323,12.194 C 5.28,12.182 5.254,12.15 5.265,12.122 5.276,12.094 5.2,12.044 5.05,12 4.926,11.965 4.744,11.91 4.65,11.879 4.556,11.848 4.312,11.794 4.115,11.759 a 1.247,1.247 0 0 1 -0.758,-0.3 1.056,1.056 0 0 0 -0.6,-0.232 H 2.664 l 0.078,0.153 c 0.079,0.155 0.18,0.216 0.438,0.264 a 1.722,1.722 0 0 1 0.436,0.137 0.346,0.346 0 0 0 0.139,0.026 1.369,1.369 0 0 1 0.277,0.054 2.215,2.215 0 0 0 0.355,0.068 0.808,0.808 0 0 1 0.293,0.083 0.506,0.506 0 0 0 0.154,0.072 c 0.085,0.013 0.113,0.054 0.037,0.054 a 0.068,0.068 0 0 0 -0.066,0.071 c 0,0.053 0.064,0.087 0.274,0.141 a 0.946,0.946 0 0 1 0.324,0.13 0.512,0.512 0 0 0 0.384,0.162 c 0.095,-0.014 0.119,0.009 0.214,0.2 L 6.107,13.053 6,12.992 A 0.637,0.637 0 0 1 5.84,12.875 1.1,1.1 0 0 0 5.567,12.712 1.747,1.747 0 0 1 5.283,12.556 1.254,1.254 0 0 0 4.767,12.407 0.45,0.45 0 0 0 4.856,12.529 l 0.089,0.1 L 4.81,12.552 A 0.4,0.4 0 0 1 4.62,12.311 0.381,0.381 0 0 0 4.513,12.126 1.073,1.073 0 0 0 4.189,12.181 2.026,2.026 0 0 1 3.777,12.254 c -0.133,0 -0.129,-0.005 0.079,-0.079 C 4.212,12.05 4.205,12.056 4.074,11.997 3.836,11.892 3.685,11.943 3.598,12.159 3.571,12.226 3.562,12.215 3.539,12.092 3.503,11.892 3.439,11.829 3.268,11.8 A 2.777,2.777 0 0 1 2.913,11.7 1.327,1.327 0 0 0 2.545,11.624 0.3,0.3 0 0 1 2.292,11.524 1.169,1.169 0 0 1 2.367,10.218 1.036,1.036 0 0 0 2.482,10.028 C 2.497,9.986 2.528,9.968 2.554,9.984 2.58,10 2.59,9.996 2.575,9.971 2.497,9.845 3.141,9.455 3.646,9.323 a 1.594,1.594 0 0 1 1.1,0.059 L 5.44,9.565 c 0.1,0.025 0.295,0.08 0.438,0.122 a 2.5,2.5 0 0 0 0.307,0.076 c 0.03,0 0.047,-0.073 0.047,-0.2 0,-0.219 -0.093,-0.357 -0.241,-0.357 A 1.571,1.571 0 0 1 5.691,9.143 1.662,1.662 0 0 0 4.972,9.125 C 4.695,9.15 4.415,9.178 4.35,9.188 4.25,9.203 4.256,9.196 4.39,9.145 a 3.893,3.893 0 0 1 0.733,-0.1 1.608,1.608 0 0 1 0.852,0.051 c 0.2,0.066 0.288,0.118 0.316,0.182 0.022,0.049 0.051,0.089 0.066,0.089 0.015,0 0.019,0.04 0.009,0.089 -0.015,0.082 -0.014,0.082 0.019,0.01 0.033,-0.072 0.042,-0.054 0.083,0.1 0.091,0.335 0.144,0.365 0.441,0.257 a 1.865,1.865 0 0 1 1.047,-0.14 6.211,6.211 0 0 1 1.005,0.181 3.274,3.274 0 0 1 -1.086,-0.1 c -0.515,-0.089 -0.96,0.178 -0.7,0.417 0.06,0.054 0.114,0.063 0.258,0.041 0.144,-0.022 0.182,-0.016 0.182,0.03 0,0.139 0.308,0.261 0.376,0.15 0.016,-0.027 0.053,-0.025 0.106,0 0.089,0.048 0.194,0.037 0.588,-0.06 0.141,-0.036 0.471,-0.109 0.733,-0.163 a 1.2,1.2 0 0 1 0.742,-0.035 1.263,1.263 0 0 1 0.268,0.082 1.7,1.7 0 0 1 -0.347,-0.008 1.879,1.879 0 0 0 -0.822,0.1 4.466,4.466 0 0 1 -0.567,0.127 c -0.075,0 -0.089,0.016 -0.079,0.1 0.021,0.183 0.115,0.174 1.419,-0.135 a 1.637,1.637 0 0 1 0.931,-0.066 c 0.066,0.039 0.038,0.047 -0.179,0.048 a 4.826,4.826 0 0 0 -0.97,0.187 4.028,4.028 0 0 1 -0.991,0.184 c -0.317,0 -0.3,0.007 0.282,0.186 l 0.362,0.11 0.562,-0.14 0.562,-0.141 0.291,0.085 c 0.161,0.046 0.309,0.084 0.33,0.084 a 1.23,1.23 0 0 0 0.261,-0.172 L 11.7,10.6 11.482,10.556 c -0.23,-0.046 -0.346,-0.027 -1.49,0.25 -0.368,0.089 -0.8,0.135 -0.739,0.078 0.024,-0.024 1.333,-0.336 1.748,-0.417 a 0.881,0.881 0 0 1 0.515,0.011 0.961,0.961 0 0 0 0.262,0.047 C 11.832,10.472 11.62,10.388 11.146,10.272 10.852,10.201 10.468,10.102 10.294,10.054 10.12,10.006 9.799,9.924 9.581,9.874 A 5.041,5.041 0 0 1 9.057,9.731 0.7,0.7 0 0 0 8.832,9.678 0.17,0.17 0 0 1 8.714,9.645 C 8.675,9.582 9.093,9.666 10.156,9.934 l 0.871,0.22 a 5.551,5.551 0 0 1 0.7,0.206 c 0.036,0.029 0.05,0.023 0.05,-0.021 A 0.115,0.115 0 0 0 11.735,10.25 0.07,0.07 0 0 1 11.714,10.167 c 0.013,-0.032 0.005,-0.047 -0.017,-0.033 -0.022,0.014 -0.039,0 -0.039,-0.038 a 0.062,0.062 0 0 1 0.05,-0.066 C 11.819,10.021 11.386,9.907 11.202,9.897 A 1.148,1.148 0 0 1 10.866,9.823 L 10.727,9.76 10.885,9.783 c 0.088,0.013 0.147,0.011 0.132,-0.005 A 5.349,5.349 0 0 0 10.095,9.559 0.381,0.381 0 0 1 9.9,9.484 0.427,0.427 0 0 0 9.692,9.4 0.855,0.855 0 0 1 9.48,9.362 C 9.392,9.331 9.395,9.328 9.514,9.34 L 9.648,9.352 9.554,9.281 A 0.4,0.4 0 0 0 9.168,9.2 0.628,0.628 0 0 1 8.918,9.24 H 8.747 L 8.9,9.191 a 1.4,1.4 0 0 0 0.242,-0.1 0.408,0.408 0 0 1 0.452,0.1 C 9.794,9.399 9.844,9.276 9.831,8.643 9.819,8.052 9.825,7.965 9.891,7.881 9.944,7.812 9.949,7.891 9.94,8.636 L 9.931,9.468 10.109,9.49 a 9.546,9.546 0 0 1 1.721,0.473 c 0.009,0.033 0.028,0.2 0.042,0.362 l 0.026,0.3 -0.271,0.22 c -0.148,0.121 -0.35,0.279 -0.447,0.352 a 0.706,0.706 0 0 0 -0.269,0.376 2.427,2.427 0 0 1 -0.731,0.906 c -0.1,0.07 -0.178,0.135 -0.17,0.144 0.008,0.009 -0.043,0.009 -0.116,0 -0.073,-0.009 -0.144,0 -0.159,0.028 a 0.1,0.1 0 0 1 -0.074,0.044 c -0.066,0 0.414,-0.316 0.488,-0.321 0.032,0 -0.011,-0.02 -0.1,-0.04 C 9.907,12.3 9.875,12.31 9.649,12.455 A 2.4,2.4 0 0 1 9.27,12.661 l -0.136,0.047 0.137,0.05 c 0.134,0.049 0.135,0.05 0.027,0.053 A 0.7,0.7 0 0 1 9.039,12.738 c -0.126,-0.065 -0.156,-0.106 -0.2,-0.28 -0.057,-0.224 -0.032,-0.317 0.037,-0.135 0.061,0.161 0.155,0.253 0.256,0.253 a 2.181,2.181 0 0 0 0.965,-0.781 c 0.037,-0.069 0.031,-0.085 -0.038,-0.1 a 1.976,1.976 0 0 0 -0.652,0.092 0.729,0.729 0 0 1 -0.223,0.039 0.528,0.528 0 0 0 -0.409,0.24 c -0.013,0.042 -0.041,0.077 -0.061,0.077 -0.02,0 -0.032,0.11 -0.027,0.243 C 8.698,12.668 8.63,12.739 8.558,12.522 8.51,12.376 8.45,12.346 8.368,12.428 8.286,12.51 8.308,12.559 8.434,12.814 a 0.637,0.637 0 0 1 0.095,0.334 c -0.025,0.131 0.028,0.133 0.148,0 a 0.346,0.346 0 0 1 0.128,-0.1 c 0.036,0 -0.084,0.24 -0.142,0.282 a 0.09,0.09 0 0 0 -0.034,0.06 0.627,0.627 0 0 1 -0.036,0.126 c -0.065,0.17 -0.036,0.428 0.121,1.1 a 3.861,3.861 0 0 0 0.357,1.142 2.021,2.021 0 0 1 0.141,0.638 1.944,1.944 0 0 0 0.133,0.613 3.142,3.142 0 0 0 1.1,0.544 5.6,5.6 0 0 0 3.675,-0.314 c 0.462,-0.24 0.487,-0.281 0.52,-0.869 a 1.648,1.648 0 0 1 0.125,-0.7 c 0.054,-0.113 0.115,-0.251 0.136,-0.306 0.046,-0.123 0.318,-1.593 0.318,-1.722 a 0.468,0.468 0 0 0 -0.119,-0.228 0.493,0.493 0 0 1 -0.119,-0.2 c 0,-0.058 -0.072,-0.062 -0.7,-0.042 a 6.667,6.667 0 0 1 -0.8,-0.005 c -0.095,-0.027 -0.09,-0.035 0.139,-0.218 0.368,-0.294 0.372,-0.295 0.644,-0.129 0.272,0.166 0.647,0.278 0.69,0.21 0.017,-0.026 0.08,0.013 0.164,0.1 0.149,0.158 0.185,0.155 0.185,-0.016 0,-0.121 0.253,-0.509 0.331,-0.508 a 0.716,0.716 0 0 1 0.135,0.024 c 0.1,0.028 0.123,0.1 0.019,0.07 -0.088,-0.022 -0.355,0.368 -0.293,0.43 0.085,0.085 0.232,0 0.312,-0.19 0.043,-0.1 0.094,-0.179 0.113,-0.176 0.086,0.014 0.051,-0.08 -0.05,-0.133 a 1.246,1.246 0 0 1 -0.248,-0.2 0.524,0.524 0 0 0 -0.182,-0.142 c -0.072,0 -0.165,0.127 -0.2,0.267 -0.015,0.071 -0.044,0.129 -0.064,0.129 -0.066,0 -0.038,-0.255 0.042,-0.387 0.08,-0.132 0.151,-0.159 0.236,-0.079 0.029,0.027 -0.164,-0.173 -0.429,-0.446 -0.477,-0.49 -0.567,-0.628 -0.492,-0.747 a 1.356,1.356 0 0 1 0.412,-0.176 c 0.611,-0.186 0.6,-0.179 0.331,-0.182 a 0.574,0.574 0 0 0 -0.293,0.046 c -0.038,0.035 -0.045,0.035 -0.026,0 0.04,-0.073 -0.066,-0.113 -0.772,-0.291 a 2.758,2.758 0 0 0 -0.907,-0.147 l -0.258,0.018 0.23,-0.073 c 0.257,-0.081 0.279,-0.078 1.1,0.121 l 0.746,0.181 c 0.316,0.077 0.364,0.063 0.422,-0.128 0.021,-0.072 0.011,-0.089 -0.052,-0.089 -0.043,0 -0.322,-0.062 -0.621,-0.137 a 1.518,1.518 0 0 0 -0.759,-0.1 1.148,1.148 0 0 1 -0.283,0.026 c -0.076,-0.015 0.418,-0.149 0.551,-0.149 0.048,0 0.392,0.073 0.765,0.161 0.919,0.219 1.335,0.237 1.265,0.054 -0.014,-0.036 -0.079,-0.057 -0.178,-0.057 a 0.618,0.618 0 0 1 -0.243,-0.046 3.7,3.7 0 0 0 -1,-0.18 L 14.607,9.854 14.784,9.809 a 1.268,1.268 0 0 1 0.456,-0.01 3.218,3.218 0 0 0 0.555,0.011 c 0.153,-0.013 0.4,-0.029 0.555,-0.037 a 2.754,2.754 0 0 0 0.406,-0.044 c 0.081,-0.019 0.129,-0.016 0.129,0.009 0,0.089 -0.261,0.148 -0.614,0.139 -0.353,-0.009 -0.354,-0.007 -0.24,0.055 a 1.383,1.383 0 0 0 0.377,0.1 c 0.142,0.018 0.3,0.042 0.358,0.054 0.153,0.034 0.216,-0.032 0.217,-0.23 V 9.692 l 0.138,0.074 c 0.16,0.086 0.252,0.1 0.229,0.025 A 0.939,0.939 0 0 0 17,9.652 2.119,2.119 0 0 0 15.874,9.658 c -0.218,0.033 -0.432,0.06 -0.476,0.059 -0.162,0 0.087,-0.07 0.524,-0.142 a 2.308,2.308 0 0 1 1.29,0.043 c 0.335,0.109 0.351,0.111 0.426,0.043 A 0.63,0.63 0 0 0 17.78,9.224 C 17.756,9.16 17.707,9.168 17.28,9.302 16.768,9.464 16.733,9.415 17.236,9.243 17.77,9.06 17.87,9.05 17.876,9.176 c 0,0.081 0.007,0.082 0.024,0.01 0.029,-0.121 0.044,-0.129 0.461,-0.237 a 2.2,2.2 0 0 1 0.88,-0.079 c 0.73,0.032 0.775,0.086 0.076,0.092 a 2.449,2.449 0 0 0 -0.865,0.093 c -0.15,0.049 -0.252,0.1 -0.228,0.1 a 0.063,0.063 0 0 1 0.044,0.052 c 0,0.022 -0.035,0.019 -0.083,-0.007 -0.123,-0.066 -0.179,-0.023 -0.229,0.176 -0.032,0.127 -0.062,0.174 -0.1,0.159 a 0.069,0.069 0 0 0 -0.081,0.021 c -0.038,0.062 0.226,0.053 0.4,-0.014 a 1.78,1.78 0 0 1 0.329,-0.08 C 18.752,9.428 18.928,9.316 18.918,9.197 18.908,9.078 18.95,9.006 18.977,9.12 19.02,9.303 19.101,9.31 19.541,9.163 A 2.51,2.51 0 0 0 19.971,9 c 0.018,-0.041 0.3,0.032 0.548,0.143 0.322,0.142 0.24,0.162 -0.14,0.033 -0.292,-0.1 -0.336,-0.1 -0.451,-0.056 a 0.732,0.732 0 0 1 -0.226,0.053 c -0.054,0 -0.077,0.008 -0.049,0.018 0.028,0.01 0.028,0.057 -0.035,0.17 C 19.569,9.448 19.511,9.504 19.482,9.493 19.453,9.482 19.45,9.441 19.511,9.338 19.555,9.263 19.579,9.202 19.565,9.202 a 1.4,1.4 0 0 0 -0.211,0.1 0.85,0.85 0 0 1 -0.258,0.1 0.5,0.5 0 0 0 -0.178,0.055 2.325,2.325 0 0 1 -0.365,0.117 c -0.142,0.034 -0.361,0.1 -0.488,0.142 a 1.318,1.318 0 0 1 -0.259,0.072 c -0.04,-0.014 -0.244,0.155 -0.219,0.181 a 1.02,1.02 0 0 1 -0.4,0.075 c -0.024,0 -0.074,0.025 -0.111,0.066 -0.065,0.072 -0.062,0.074 0.083,0.044 a 1.3,1.3 0 0 0 0.552,-0.217 0.071,0.071 0 0 1 0.086,-0.033 0.979,0.979 0 0 0 0.3,-0.049 c 0.9,-0.253 1.141,-0.294 1.282,-0.218 a 1.621,1.621 0 0 1 0.261,0.3 c 0.18,0.245 0.394,0.415 0.45,0.359 0.014,-0.013 -0.014,-0.034 -0.061,-0.047 -0.084,-0.021 -0.084,-0.023 -0.009,-0.1 0.093,-0.1 0.072,-0.144 -0.059,-0.119 -0.224,0.043 -0.072,-0.072 0.424,-0.321 a 3.258,3.258 0 0 1 0.626,-0.263 c 0.071,0 0.145,0.053 0.252,0.181 L 21.415,9.809 21.3,9.794 C 21.206,9.783 21.181,9.755 21.152,9.632 21.116,9.477 21.02,9.432 20.888,9.523 c -0.052,0.033 -0.051,0.039 0.006,0.039 0.057,0 0.085,0.061 0.119,0.166 a 0.263,0.263 0 0 0 0.192,0.215 c 0.076,0.027 0.119,0.051 0.1,0.053 -0.019,0.002 -0.069,0.058 -0.1,0.126 l -0.058,0.123 -0.11,-0.166 c -0.09,-0.135 -0.12,-0.157 -0.166,-0.118 -0.046,0.039 -0.045,0.069 0.03,0.2 0.117,0.209 0.185,0.262 0.348,0.276 a 0.488,0.488 0 0 1 0.2,0.053 c 0.046,0.034 0.051,0.027 0.024,-0.038 a 0.957,0.957 0 0 1 -0.074,-0.5 c 0.024,-0.024 0.073,0.088 0.134,0.309 0.061,0.221 0.117,0.351 0.16,0.359 0.043,0.008 0.059,-0.014 0.035,-0.158 A 1.676,1.676 0 0 0 21.635,10.144 0.751,0.751 0 0 1 21.57,9.915 0.822,0.822 0 0 0 21.283,9.426 4.5,4.5 0 0 0 19.794,8.803 C 19.457,8.719 19.173,8.64 19.161,8.629 c -0.07,-0.071 0.087,-0.059 0.5,0.036 a 4.735,4.735 0 0 1 1.131,0.341 0.95,0.95 0 0 0 0.256,0.1 C 21.056,9.097 21.003,9.044 20.93,8.988 A 1.918,1.918 0 0 0 20.402,8.782 2.829,2.829 0 0 1 19.965,8.643 C 19.941,8.623 19.91,8.619 19.897,8.632 19.884,8.645 19.888,8.601 19.908,8.532 19.939,8.423 19.934,8.408 19.867,8.408 19.8,8.408 19.79,8.436 19.789,8.517 v 0.109 l -0.076,-0.1 C 19.671,8.471 19.613,8.396 19.577,8.359 19.541,8.322 19.533,8.281 19.552,8.269 a 0.041,0.041 0 0 1 0.057,0.012 0.38,0.38 0 0 0 0.2,0.037 3.508,3.508 0 0 1 1.133,0.433 2.631,2.631 0 0 1 0.584,0.587 L 21.587,9.457 21.454,9.338 A 1.967,1.967 0 0 1 21.291,9.179 c -0.019,-0.025 -0.03,-0.022 -0.03,0.008 a 0.106,0.106 0 0 0 0.049,0.079 c 0.107,0.069 0.2,0.213 0.329,0.532 0.375,0.9 0.326,1.269 -0.243,1.846 -0.187,0.189 -0.262,0.249 -0.2,0.155 a 0.739,0.739 0 0 0 0.124,-0.268 l 0.013,-0.114 -0.16,0.081 a 0.476,0.476 0 0 0 -0.181,0.138 0.317,0.317 0 0 1 -0.166,0.1 0.963,0.963 0 0 0 -0.366,0.2 c -0.013,0.017 -0.055,0 -0.1,-0.049 a 0.319,0.319 0 0 0 -0.435,0.019 c -0.109,0.088 -0.112,0.1 -0.04,0.121 l 0.177,0.059 c 0.054,0.018 0.134,0.043 0.178,0.054 0.044,0.011 -0.038,0.014 -0.181,0.005 A 1.118,1.118 0 0 1 19.68,12.061 c -0.183,-0.106 -0.315,-0.052 -0.422,0.171 a 0.615,0.615 0 0 1 -0.226,0.266 l -0.139,0.08 0.089,-0.113 c 0.161,-0.206 0.1,-0.351 -0.154,-0.364 -0.119,-0.005 -0.186,0.012 -0.22,0.057 -0.092,0.122 -0.063,0.158 0.1,0.121 0.324,-0.075 0.46,-0.009 0.164,0.079 a 1.3,1.3 0 0 0 -0.32,0.162 0.926,0.926 0 0 1 -0.27,0.139 0.35,0.35 0 0 0 -0.165,0.087 1.509,1.509 0 0 1 -0.368,0.25 c -0.011,0 0.024,-0.065 0.078,-0.145 0.109,-0.16 0.122,-0.25 0.049,-0.326 -0.04,-0.04 -0.03,-0.045 0.051,-0.025 0.081,0.02 0.125,0 0.228,-0.116 0.103,-0.116 0.118,-0.141 0.051,-0.141 a 0.248,0.248 0 0 0 -0.153,0.1 0.4,0.4 0 0 1 -0.22,0.123 c -0.129,0.024 -0.163,0.059 -0.309,0.315 a 0.791,0.791 0 0 1 -0.3,0.351 l -0.131,0.062 0.1,-0.146 a 0.383,0.383 0 0 0 0.083,-0.236 c -0.011,-0.058 0,-0.09 0.036,-0.09 0.06,0 0.075,-0.141 0.019,-0.175 -0.088,-0.054 -0.313,0.1 -0.453,0.311 a 1.342,1.342 0 0 0 -0.146,0.255 c 0,0.062 -0.162,0.243 -0.219,0.243 -0.057,0 -0.038,-0.039 0.026,-0.188 a 1.246,1.246 0 0 1 0.139,-0.253 c 0.051,-0.056 0.05,-0.067 -0.006,-0.089 -0.084,-0.032 -0.336,0.215 -0.45,0.44 a 0.585,0.585 0 0 1 -0.2,0.228 l -0.117,0.061 0.057,-0.109 c 0.032,-0.06 0.095,-0.2 0.14,-0.313 0.07,-0.173 0.1,-0.2 0.169,-0.184 0.069,0.016 0.084,0.018 -0.007,-0.049 -0.091,-0.067 -0.095,-0.066 -0.268,0.131 a 0.636,0.636 0 0 1 -0.3,0.227 c -0.071,0.014 -0.2,0.045 -0.278,0.069 l -0.15,0.043 0.13,0.138 c 0.124,0.131 0.089,0.14 -0.058,0.014 -0.1,-0.082 -0.087,0 0.013,0.126 a 0.243,0.243 0 0 0 0.193,0.105 c 0.061,0 0.635,-0.16 1.275,-0.355 a 14.61,14.61 0 0 0 1.837,-0.614 c 0.131,-0.059 0.7,-0.23 1.268,-0.381 0.568,-0.151 1.09,-0.3 1.162,-0.335 A 2.283,2.283 0 0 0 21.764,11.42 1.685,1.685 0 0 0 22,10.666 5.04,5.04 0 0 0 21.9,10.029 Z M 2.606,11.861 a 1.144,1.144 0 0 1 0.175,0.2 1.7,1.7 0 0 1 -0.215,-0.2 1.144,1.144 0 0 1 -0.175,-0.2 1.626,1.626 0 0 1 0.215,0.2 z m 2.913,-3.2 A 0.578,0.578 0 0 1 5.43,8.874 3.59,3.59 0 0 1 4.97,8.952 C 4.737,8.983 4.37,9.052 4.142,9.099 3.866,9.162 3.724,9.178 3.696,9.151 a 0.246,0.246 0 0 1 0,-0.263 c 0.03,-0.045 0.039,-0.028 0.039,0.07 0,0.143 0.032,0.154 0.213,0.072 a 4.335,4.335 0 0 1 0.8,-0.237 C 4.836,8.78 4.948,8.758 4.996,8.745 5.044,8.732 5.085,8.738 5.085,8.762 5.085,8.786 5.027,8.811 4.956,8.82 L 4.828,8.836 4.97,8.842 C 5.11,8.848 5.383,8.777 5.349,8.742 A 0.361,0.361 0 0 1 5.36,8.59 C 5.392,8.446 5.36,8.415 5.282,8.51 A 0.152,0.152 0 0 1 5.169,8.562 1.139,1.139 0 0 0 4.728,8.706 C 4.685,8.74 4.678,8.739 4.699,8.706 4.72,8.673 4.691,8.665 4.593,8.681 4.516,8.693 4.447,8.681 4.432,8.661 A 0.079,0.079 0 0 0 4.339,8.644 C 4.286,8.664 4.296,8.679 4.39,8.718 L 4.508,8.766 4.369,8.8 C 4.251,8.832 4.225,8.826 4.194,8.763 4.163,8.7 4.121,8.691 4.007,8.698 3.714,8.715 3.815,8.659 4.278,8.549 A 3.891,3.891 0 0 1 5.114,8.43 2.086,2.086 0 0 0 5.5,8.4 C 5.512,8.388 5.548,8.389 5.581,8.4 5.614,8.411 5.623,8.434 5.603,8.447 A 0.643,0.643 0 0 0 5.519,8.662 Z M 6.956,9.5 C 6.83,9.465 6.651,9.416 6.556,9.392 A 0.368,0.368 0 0 1 6.374,9.3 C 6.349,9.233 6.674,9.3 7.043,9.438 7.385,9.568 7.331,9.6 6.956,9.5 Z M 5.814,8.683 A 0.309,0.309 0 0 0 5.886,8.856 13.975,13.975 0 0 0 7.281,9.3 c 0.4,0.1 0.692,0.216 0.693,0.271 A 0.027,0.027 0 0 1 7.95,9.6 C 7.865,9.6 5.815,8.921 5.774,8.879 A 0.971,0.971 0 0 1 5.7,8.447 C 5.712,8.427 5.752,8.42 5.789,8.431 L 6.35,8.593 c 0.7,0.2 1.754,0.537 1.735,0.555 A 1.1,1.1 0 0 1 7.817,9.085 2.6,2.6 0 0 0 7.46,8.995 0.514,0.514 0 0 1 7.319,8.961 3.149,3.149 0 0 0 6.964,8.87 6.556,6.556 0 0 1 6.31,8.681 3.52,3.52 0 0 0 5.883,8.55 C 5.8,8.54 5.793,8.551 5.814,8.683 Z M 8.133,9.622 C 8.063,9.579 8.087,9.206 8.159,9.206 a 0.9,0.9 0 0 1 0.013,0.22 c 0,0.137 -0.015,0.211 -0.039,0.196 z M 9.064,9.945 A 0.907,0.907 0 0 1 9.48,9.97 l 0.178,0.057 H 9.282 a 1.962,1.962 0 0 0 -0.485,0.045 1.755,1.755 0 0 1 -0.357,0.07 1.334,1.334 0 0 0 -0.355,0.08 0.3,0.3 0 0 1 -0.35,-0.007 C 7.707,10.181 7.7,10.158 7.72,10.164 a 1.188,1.188 0 0 0 0.492,-0.09 C 8.212,10.052 8.091,10.04 7.925,10.046 7.643,10.056 7.261,9.977 7.261,9.909 7.261,9.89 7.3,9.888 7.348,9.903 a 3.9,3.9 0 0 0 0.5,0.048 7.145,7.145 0 0 0 1.216,-0.006 z M 9.007,9.015 A 1.423,1.423 0 0 1 8.63,9.039 L 8.351,9.027 8.489,8.96 A 0.517,0.517 0 0 1 8.945,8.934 C 9.1,8.977 9.1,8.98 9.007,9.015 Z M 9.722,8.562 A 0.64,0.64 0 0 0 9.666,8.847 C 9.688,8.932 9.687,8.932 9.546,8.865 9.466,8.826 9.415,8.778 9.43,8.754 A 2.345,2.345 0 0 1 9.785,8.354 0.7,0.7 0 0 1 9.722,8.562 Z M 11.2,8.018 a 0.385,0.385 0 0 1 -0.21,0.039 c -0.134,0 -0.169,-0.012 -0.126,-0.039 0.082,-0.052 0.371,-0.052 0.336,0 z m -0.851,1.366 a 3.483,3.483 0 0 1 0.025,-1.129 c 0.008,0 0.014,0.26 0.014,0.577 0.003,0.375 -0.011,0.568 -0.036,0.552 z m 0.219,-1.5 c 0,0.089 -0.022,0.119 -0.091,0.128 L 10.388,8.025 10.475,7.877 10.562,7.73 10.386,7.758 a 0.656,0.656 0 0 0 -0.205,0.056 6.8,6.8 0 0 0 -0.073,0.8 4.933,4.933 0 0 1 -0.085,0.811 C 9.995,9.452 9.99,9.306 10.008,8.969 10.064,7.88 10.079,7.746 10.146,7.728 a 3.517,3.517 0 0 1 0.916,0.013 0.451,0.451 0 0 1 -0.193,0.039 c -0.126,0 -0.132,0.008 -0.116,0.121 0.011,0.075 0,0.114 -0.025,0.106 C 10.703,7.999 10.68,7.935 10.673,7.865 10.66,7.705 10.573,7.72 10.571,7.882 Z m 0.488,1.547 A 0.817,0.817 0 0 1 11.036,9.074 C 11.049,8.919 11.06,8.752 11.061,8.703 11.062,8.654 11.071,8.614 11.082,8.614 A 2.522,2.522 0 0 1 11.1,9.06 c 0,0.34 -0.008,0.426 -0.041,0.369 z m -0.1,-1.179 -0.229,0.025 -0.02,0.575 c -0.012,0.341 -0.033,0.553 -0.054,0.521 a 3.97,3.97 0 0 1 0.068,-1.111 c 0.068,-0.056 0.544,-0.114 0.49,-0.059 A 0.919,0.919 0 0 1 10.957,8.25 Z M 9.215,11.9 c 0.066,0 0.111,0.04 0.159,0.14 0.091,0.192 0.084,0.2 -0.036,0.062 A 0.34,0.34 0 0 0 9.179,11.98 c -0.03,0 -0.056,-0.018 -0.056,-0.04 0,-0.022 0.042,-0.04 0.092,-0.04 z m 8.416,-2.6 c 0.048,-0.122 0.061,0.034 0.016,0.191 L 17.609,9.623 V 9.498 A 0.612,0.612 0 0 1 17.631,9.3 Z M 14.458,8.413 a 5.88,5.88 0 0 1 0.469,0.511 C 14.879,8.972 14.541,8.71 14.347,8.474 13.893,7.922 13.951,7.89 14.458,8.412 Z m -0.895,-0.6 a 0.213,0.213 0 0 1 0.109,0.109 0.223,0.223 0 0 0 0.143,0.11 c 0.115,0.022 0.119,0.016 0.061,-0.091 -0.028,-0.053 -0.028,-0.077 0,-0.077 0.028,0 0.046,0.023 0.057,0.168 a 0.123,0.123 0 0 0 0.027,0.07 1.537,1.537 0 0 1 0.074,0.932 c -0.07,0.044 -0.078,0.007 -0.093,-0.4 -0.016,-0.469 -0.037,-0.53 -0.179,-0.53 a 0.23,0.23 0 0 1 -0.249,-0.2 C 13.5,7.811 13.508,7.794 13.563,7.808 Z m -2.152,0.932 c -0.009,0.093 -0.016,0.026 -0.016,-0.148 0,-0.174 0.007,-0.251 0.016,-0.169 a 2.1,2.1 0 0 1 0,0.312 z M 11.462,8.023 C 11.378,7.978 11.344,7.745 11.421,7.745 c 0.022,0 0.04,0.043 0.04,0.1 0,0.091 0.016,0.1 0.307,0.121 a 4.69,4.69 0 0 0 0.676,0.027 C 12.603,7.987 12.611,7.982 12.551,7.922 A 0.135,0.135 0 0 1 12.508,7.801 C 12.521,7.769 12.513,7.756 12.489,7.771 A 1.9,1.9 0 0 1 12.063,7.765 c -0.3,-0.025 -0.354,-0.038 -0.245,-0.058 0.209,-0.04 0.231,-0.04 0.255,0 0.014,0.021 0.071,0.022 0.141,0 a 5.98,5.98 0 0 1 1.123,0.028 c -0.029,0.009 -0.038,0.071 -0.025,0.167 0.013,0.096 0,0.162 -0.03,0.182 -0.03,0.02 -0.04,0.015 -0.025,-0.01 A 0.252,0.252 0 0 0 13.221,7.91 0.19,0.19 0 0 0 13.021,7.779 L 12.773,7.765 c -0.1,-0.006 -0.112,0.006 -0.1,0.091 0.016,0.147 0.08,0.188 0.286,0.182 0.115,0 0.157,0.005 0.109,0.023 A 9.112,9.112 0 0 1 11.462,8.018 Z M 13.234,9 c -0.008,0.126 -0.015,0.033 -0.015,-0.207 0,-0.24 0.006,-0.343 0.014,-0.229 A 3.954,3.954 0 0 1 13.234,9 Z M 12.885,7.951 c 0,0.017 -0.015,0.03 -0.037,0.03 -0.022,0 -0.039,-0.049 -0.037,-0.109 0,-0.1 0.007,-0.1 0.037,-0.03 a 0.689,0.689 0 0 1 0.037,0.106 z M 12.52,9.087 c 0.023,-0.08 0.033,-0.059 0.055,0.115 A 0.88,0.88 0 0 1 12.582,9.47 C 12.51,9.658 12.455,9.319 12.52,9.087 Z M 11.986,8.245 c -0.147,-0.008 -0.027,-0.014 0.267,-0.014 0.294,0 0.415,0.006 0.268,0.014 -0.147,0.008 -0.388,0.008 -0.535,0 z m -0.03,2.908 a 3.176,3.176 0 0 1 0.647,0.055 c 0.258,0.061 0.424,0.13 0.391,0.163 a 1.55,1.55 0 0 1 -0.35,-0.067 2.089,2.089 0 0 0 -0.826,-0.058 c -0.324,0.017 -0.482,0.013 -0.456,-0.012 0.063,-0.062 0.172,-0.077 0.594,-0.081 z m -0.257,0.859 a 0.292,0.292 0 0 1 -0.063,0.109 c -0.034,0.042 -0.055,0.059 -0.045,0.037 0.01,-0.022 0.027,-0.071 0.041,-0.109 0.025,-0.071 0.068,-0.094 0.068,-0.037 z m -1.185,0.265 0.093,0.178 c 0.1,0.184 0.362,0.429 0.312,0.288 a 0.54,0.54 0 0 0 -0.093,-0.149 c -0.09,-0.1 -0.169,-0.26 -0.144,-0.284 0.025,-0.024 0.057,0.017 0.1,0.062 0.132,0.132 0.274,0.1 0.2,-0.044 A 0.192,0.192 0 0 1 10.964,12.19 c 0.019,-0.049 0.036,-0.044 0.1,0.03 0.086,0.106 0.2,0.081 0.2,-0.044 0,-0.088 0.066,-0.236 0.105,-0.236 0.013,0 0.015,0.076 0,0.169 l -0.019,0.17 0.23,-0.038 a 3.265,3.265 0 0 1 1.013,0.074 0.13,0.13 0 0 0 0.158,-0.054 c 0.107,-0.126 0.145,-0.1 0.117,0.075 -0.028,0.175 0,0.2 0.176,0.052 l 0.127,-0.107 -0.029,0.1 a 0.6,0.6 0 0 1 -0.1,0.176 0.58,0.58 0 0 0 -0.1,0.154 c -0.059,0.165 0.233,-0.124 0.3,-0.3 l 0.067,-0.174 v 0.157 a 0.339,0.339 0 0 1 -0.124,0.287 0.46,0.46 0 0 1 -0.179,0.131 0.585,0.585 0 0 0 -0.2,0.133 1.128,1.128 0 0 1 -0.6,0.3 1.6,1.6 0 0 1 -1.583,-0.583 0.3,0.3 0 0 1 -0.127,-0.251 z m 2.714,0.545 c 0.048,0.048 -0.426,0.422 -0.639,0.505 a 2.408,2.408 0 0 1 -1.306,0.023 1.452,1.452 0 0 1 -0.629,-0.437 c -0.147,-0.191 -0.088,-0.177 0.173,0.041 a 1.355,1.355 0 0 0 1.03,0.391 1.433,1.433 0 0 0 0.982,-0.269 C 13.013,12.923 13.2,12.8 13.228,12.822 Z m -3.957,0.152 c 0.213,-0.09 0.414,-0.181 0.447,-0.2 0.108,-0.07 0.185,-0.042 0.432,0.156 a 1.86,1.86 0 0 1 0.253,0.224 c 0,0.015 -0.062,0.052 -0.148,0.082 a 2.93,2.93 0 0 1 -0.8,0.044 C 8.685,13.265 8.664,13.231 9.271,12.974 Z m 1,0.645 a 0.167,0.167 0 0 1 -0.07,0.129 c -0.062,0.038 -0.07,0.027 -0.074,-0.1 -0.004,-0.127 0.007,-0.145 0.07,-0.128 a 0.1,0.1 0 0 1 0.075,0.099 z m -0.793,0 c 0,0.1 -0.013,0.148 -0.032,0.118 -0.03,-0.048 -0.015,-0.286 0.018,-0.286 a 0.477,0.477 0 0 1 0.015,0.163 z m 4.24,-0.208 c 0.022,0 0.039,0.04 0.037,0.089 a 0.526,0.526 0 0 1 -0.037,0.168 c -0.026,0.062 -0.034,0.042 -0.037,-0.089 0,-0.097 0.019,-0.173 0.038,-0.173 z m -0.125,0.344 a 0.623,0.623 0 0 0 0.384,0.016 3.667,3.667 0 0 1 0.624,-0.043 c 0.4,0 0.452,0.008 0.456,0.069 a 2.275,2.275 0 0 1 -0.112,0.644 c -0.017,0 -0.022,0.033 -0.011,0.074 a 3.572,3.572 0 0 1 -0.249,1.07 1.924,1.924 0 0 0 -0.147,0.688 1.716,1.716 0 0 1 -0.076,0.466 c -0.03,0 -0.022,-0.144 0.031,-0.564 l 0.019,-0.149 -0.325,0.119 a 2.023,2.023 0 0 1 -0.445,0.119 c -0.117,0 -0.115,0 0.055,-0.09 a 0.362,0.362 0 0 0 0.228,-0.251 0.389,0.389 0 0 1 0.15,-0.215 c 0.054,-0.029 0.1,-0.068 0.1,-0.088 0,-0.052 -0.14,0 -0.466,0.167 a 1.093,1.093 0 0 1 -0.286,0.125 c 0,-0.08 0.127,-0.162 0.637,-0.42 0.476,-0.241 0.577,-0.308 0.618,-0.409 l 0.05,-0.122 -0.227,0.1 -0.6,0.268 a 1.038,1.038 0 0 0 -0.429,0.262 c -0.052,0.1 -0.053,0.1 -0.027,-0.023 a 0.382,0.382 0 0 1 0.072,-0.163 5.452,5.452 0 0 1 0.562,-0.275 c 0.576,-0.258 0.678,-0.33 0.7,-0.494 0.009,-0.062 0.006,-0.109 -0.006,-0.1 -0.045,0.022 -0.4,0.183 -0.791,0.359 a 4.244,4.244 0 0 1 -0.437,0.18 0.074,0.074 0 0 0 -0.056,0.05 c -0.013,0.031 -0.021,0.025 -0.023,-0.016 0,-0.083 0.089,-0.142 0.552,-0.349 0.7,-0.315 0.786,-0.363 0.826,-0.478 l 0.037,-0.108 -0.243,0.119 c -0.253,0.122 -0.89,0.408 -1.046,0.468 -0.064,0.025 -0.09,0.02 -0.09,-0.015 a 3.042,3.042 0 0 1 0.624,-0.34 c 0.69,-0.322 0.763,-0.371 0.763,-0.506 0,-0.089 -0.012,-0.093 -0.295,-0.093 a 0.766,0.766 0 0 0 -0.318,0.039 0.728,0.728 0 0 0 -0.043,0.182 0.706,0.706 0 0 1 -0.042,0.183 2.778,2.778 0 0 1 -0.636,0.309 0.131,0.131 0 0 0 -0.089,0.07 c -0.034,0.059 -0.041,0.06 -0.042,0.006 0,-0.081 0.084,-0.151 0.356,-0.292 0.272,-0.141 0.317,-0.176 0.317,-0.23 0,-0.082 -0.28,0.009 -0.511,0.166 a 0.672,0.672 0 0 1 -0.448,0.166 h -0.21 l 0.151,0.04 c 0.26,0.069 0.278,0.133 0.251,0.912 -0.013,0.376 -0.032,0.871 -0.042,1.1 -0.01,0.229 -0.01,0.371 0,0.317 a 1.039,1.039 0 0 1 0.043,-0.159 0.61,0.61 0 0 0 0.046,-0.208 c 0.008,-0.095 0.153,-0.088 0.183,0.009 a 0.22,0.22 0 0 1 -0.138,0.259 0.112,0.112 0 0 0 -0.079,0.094 0.313,0.313 0 0 1 -0.1,0.166 0.729,0.729 0 0 0 -0.213,0.418 c 0,0.06 0.009,0.059 0.083,-0.008 a 0.9,0.9 0 0 1 0.248,-0.136 c 0.106,-0.04 0.168,-0.089 0.175,-0.139 0.032,-0.209 0.055,-0.271 0.084,-0.224 0.019,0.03 0.052,-0.039 0.084,-0.174 l 0.054,-0.224 0.176,0.024 a 2.781,2.781 0 0 0 0.29,0.024 c 0.063,0 0.113,0.018 0.113,0.039 0,0.021 -0.026,0.028 -0.059,0.015 a 0.78,0.78 0 0 0 -0.317,0.11 l -0.257,0.133 v 0.4 l -0.352,0.127 c -0.193,0.07 -0.364,0.127 -0.38,0.127 a 0.254,0.254 0 0 1 -0.1,-0.086 0.336,0.336 0 0 0 -0.264,-0.1 c -0.3,-0.022 -1.257,-0.035 -1.315,-0.017 a 0.3,0.3 0 0 0 -0.11,0.129 c -0.054,0.1 -0.053,0.114 0.009,0.114 a 0.319,0.319 0 0 0 0.162,-0.089 c 0.088,-0.082 0.127,-0.088 0.516,-0.079 a 1.242,1.242 0 0 1 0.51,0.069 0.44,0.44 0 0 0 0.2,0.06 0.381,0.381 0 0 1 0.17,0.039 c 0.041,0.027 -0.02,0.038 -0.205,0.039 -0.185,10e-4 -0.27,-0.016 -0.28,-0.047 -0.01,-0.031 -0.125,-0.052 -0.308,-0.059 a 0.664,0.664 0 0 0 -0.425,0.067 0.626,0.626 0 0 1 -0.476,0.054 c -0.07,-0.019 -0.084,-0.043 -0.065,-0.118 0.035,-0.138 -0.082,-0.168 -0.205,-0.052 l -0.1,0.091 -0.277,-0.089 A 0.729,0.729 0 0 1 10.233,17.248 0.04,0.04 0 0 0 10.191,17.21 c -0.023,0 -0.029,0.021 -0.014,0.046 0.015,0.025 0.011,0.035 -0.017,0.018 A 0.383,0.383 0 0 1 10.114,17.05 v -0.2 L 9.872,16.728 a 0.718,0.718 0 0 0 -0.3,-0.1 0.3,0.3 0 0 0 -0.108,0.144 C 9.412,16.894 9.412,16.893 9.364,16.605 9.339,16.445 9.31,16.229 9.299,16.126 A 1.76,1.76 0 0 0 9.16,15.683 5.508,5.508 0 0 1 8.779,14.238 0.034,0.034 0 0 0 8.757,14.186 c -0.061,-0.02 -0.1,-0.427 -0.04,-0.427 0.025,0 0.045,0.014 0.045,0.032 a 2.8,2.8 0 0 0 0.614,0.03 H 9.99 v -0.189 c 0,-0.245 0.071,-0.245 0.087,0 0.011,0.175 0.019,0.187 0.111,0.174 a 1.045,1.045 0 0 0 0.218,-0.063 4.026,4.026 0 0 1 1.374,-0.17 5.7,5.7 0 0 1 1.814,0.177 z m 1.338,-2 A 0.4,0.4 0 0 1 15,11.822 c 0.048,0.054 0.052,0.073 0.014,0.073 a 0.485,0.485 0 0 0 -0.178,0.093 c -0.106,0.078 -0.138,0.085 -0.215,0.045 -0.05,-0.027 -0.062,-0.04 -0.026,-0.03 0.036,0.01 0.264,-0.154 0.337,-0.256 z M 17.72,8.99 a 7.5,7.5 0 0 1 -1.567,0.447 c -0.04,-0.015 -0.057,-0.085 -0.057,-0.222 0,-0.137 -0.015,-0.2 -0.06,-0.2 -0.045,0 -0.059,0.048 -0.059,0.193 A 0.4,0.4 0 0 1 15.926,9.444 1.568,1.568 0 0 1 15.559,9.55 c -0.655,0.133 -3.088,0.777 -3.238,0.857 -0.15,0.08 -0.031,0.083 0.23,0.013 a 2.849,2.849 0 0 1 1.518,0.177 6.114,6.114 0 0 0 0.732,0.164 c 0.124,0 0.124,0 0.027,0.042 A 0.663,0.663 0 0 1 14.57,10.827 11.462,11.462 0 0 1 13.164,10.46 l -0.139,-0.061 0.1,0.078 c 0.147,0.116 0.059,0.155 -0.118,0.053 a 0.441,0.441 0 0 0 -0.445,-0.047 l -0.148,0.041 0.2,0.177 a 0.91,0.91 0 0 0 0.246,0.176 2.527,2.527 0 0 0 0.32,-0.086 0.828,0.828 0 0 1 0.616,-0.016 c 0.37,0.077 0.626,0.167 0.586,0.208 a 1.985,1.985 0 0 1 -0.461,-0.066 1.326,1.326 0 0 0 -0.564,-0.054 l -0.129,0.036 0.144,0.069 a 0.773,0.773 0 0 0 0.268,0.068 2.231,2.231 0 0 1 0.7,0.161 c 0.013,0.02 -0.045,0.038 -0.128,0.04 a 1.861,1.861 0 0 0 -0.25,0.02 q -0.1,0.016 -0.045,-0.018 c 0.061,-0.039 0.033,-0.062 -0.121,-0.1 -0.059,-0.014 -0.117,-0.008 -0.13,0.013 -0.013,0.021 0.026,0.051 0.086,0.067 l 0.111,0.028 -0.113,0.03 a 0.381,0.381 0 0 1 -0.375,-0.133 0.569,0.569 0 0 0 -0.411,-0.188 h -0.131 l 0.205,0.118 a 0.588,0.588 0 0 1 0.224,0.188 c 0.011,0.038 0.03,0.119 0.043,0.179 0.022,0.095 0.044,0.109 0.172,0.109 a 0.518,0.518 0 0 1 0.2,0.036 0.254,0.254 0 0 0 0.195,-0.024 0.594,0.594 0 0 1 0.4,-0.012 c 0.339,0.06 0.518,0.116 0.518,0.161 0,0.045 -0.049,0.045 -0.357,-0.023 -0.371,-0.081 -0.554,-0.077 -0.554,0.012 0,0.179 0.341,0.577 0.668,0.779 0.226,0.141 0.331,0.113 0.482,-0.126 0.151,-0.239 0.154,-0.168 0.017,0.1 -0.188,0.375 -0.421,0.446 -0.806,0.245 a 1.753,1.753 0 0 0 -0.331,-0.139 1.806,1.806 0 0 1 -0.83,-1.095 C 13.037,11.257 13.012,11.215 12.89,11.141 a 3.405,3.405 0 0 1 -0.408,-0.342 c -0.3,-0.284 -0.306,-0.315 -0.222,-0.733 a 0.5,0.5 0 0 1 0.137,-0.3 2.792,2.792 0 0 1 0.579,-0.2 c 0.268,-0.071 0.594,-0.163 0.725,-0.206 0.131,-0.043 0.476,-0.138 0.768,-0.213 0.462,-0.119 0.55,-0.131 0.68,-0.092 a 0.7,0.7 0 0 0 0.42,-0.02 C 15.718,9 15.951,8.954 16.086,8.935 A 5.163,5.163 0 0 0 16.71,8.776 2.743,2.743 0 0 1 17.199,8.654 0.281,0.281 0 0 0 17.348,8.62 5,5 0 0 1 18.173,8.32 c 0.154,-0.043 0.246,-0.052 0.272,-0.026 0.026,0.026 -0.013,0.054 -0.114,0.082 -0.536,0.147 -0.667,0.194 -0.658,0.236 0.013,0.058 -0.182,0.135 -0.278,0.11 a 0.49,0.49 0 0 0 -0.2,0.013 c -0.07,0.018 -0.238,0.055 -0.373,0.084 -0.211,0.044 -0.249,0.065 -0.27,0.152 a 0.521,0.521 0 0 1 -0.109,0.191 c -0.054,0.058 -0.065,0.089 -0.031,0.089 0.059,0 1.728,-0.492 1.943,-0.573 0.123,-0.046 0.141,-0.071 0.159,-0.225 0.043,-0.355 0.143,-0.369 0.125,-0.018 -0.015,0.293 0.084,0.233 -0.918,0.547 z m 0.2,-0.309 a 0.656,0.656 0 0 1 -0.3,0.125 C 17.61,8.797 17.661,8.761 17.733,8.725 17.867,8.65 17.919,8.638 17.919,8.673 Z m 2.932,0.679 a 4.692,4.692 0 0 1 -1.179,0.349 c -0.05,-0.02 0.008,-0.055 0.208,-0.123 0.153,-0.052 0.3,-0.1 0.337,-0.118 C 20.255,9.45 20.178,9.414 20.03,9.368 19.736,9.276 19.694,9.192 19.962,9.232 a 1.666,1.666 0 0 1 0.321,0.086 0.655,0.655 0 0 0 0.355,0.033 c 0.121,-0.024 0.213,-0.02 0.213,10e-4 z m -2.219,3.341 a 0.711,0.711 0 0 1 -0.178,0.076 c -0.022,0 0.023,-0.035 0.1,-0.076 a 0.687,0.687 0 0 1 0.178,-0.076 c 0.02,-0.008 -0.024,0.026 -0.101,0.068 z m -9.021,3.382 0.113,0.028 -0.06,-0.118 a 0.663,0.663 0 0 0 -0.126,-0.17 0.654,0.654 0 0 1 -0.12,-0.161 0.6,0.6 0 0 0 -0.2,-0.192 l -0.144,-0.085 0.147,0.268 c 0.178,0.323 0.243,0.394 0.39,0.43 z M 21.287,10.8 a 4.225,4.225 0 0 1 -0.436,0.052 c -0.216,0.015 -0.257,0.029 -0.257,0.089 0,0.06 0.035,0.076 0.118,0.086 a 4.628,4.628 0 0 0 1.09,-0.242 C 21.8,10.742 21.513,10.75 21.287,10.8 Z m -10.753,6.175 a 0.17,0.17 0 0 1 -0.064,-0.1 0.385,0.385 0 0 0 -0.121,-0.156 c -0.143,-0.127 -0.146,-0.279 -0.007,-0.371 0.087,-0.057 0.089,-0.055 0.089,0.1 a 0.314,0.314 0 0 0 0.039,0.185 c 0.025,0.015 0.04,-0.06 0.04,-0.2 0,-0.14 -0.014,-0.214 -0.031,-0.2 -0.017,0.014 -0.031,-0.055 -0.032,-0.146 -10e-4,-0.091 -0.016,-0.461 -0.034,-0.822 l -0.034,-0.658 0.094,-0.066 0.094,-0.065 h -0.09 a 0.943,0.943 0 0 1 -0.316,-0.145 c -0.222,-0.143 -0.6,-0.276 -0.6,-0.211 0,0.065 0.138,0.165 0.44,0.3 a 0.811,0.811 0 0 1 0.313,0.2 c 0,0.057 -0.064,0.075 -0.086,0.023 a 1.327,1.327 0 0 0 -0.3,-0.141 C 9.566,14.361 9.441,14.264 9.441,14.124 A 0.257,0.257 0 0 0 9.394,13.969 1.092,1.092 0 0 0 8.787,13.961 c -0.084,0.137 0.046,0.217 0.993,0.611 0.383,0.16 0.442,0.2 0.484,0.306 l 0.046,0.124 -0.088,-0.083 A 4.921,4.921 0 0 0 9.501,14.573 C 9.152,14.428 8.853,14.301 8.837,14.291 c -0.016,-0.01 -0.03,0 -0.03,0.026 0,0.1 0.232,0.24 0.763,0.456 a 5.324,5.324 0 0 1 0.633,0.289 c 0.075,0.063 0.054,0.153 -0.022,0.1 C 10.155,15.143 9.881,15.023 9.56,14.896 9.239,14.769 8.96,14.645 8.931,14.622 8.885,14.587 8.881,14.597 8.904,14.678 8.968,14.898 9.061,14.964 9.64,15.2 a 4.071,4.071 0 0 1 0.639,0.3 0.994,0.994 0 0 1 0.048,0.708 c -0.054,0.066 -0.058,0.067 -0.038,0 C 10.337,16.053 10.241,15.94 9.938,15.796 9.61,15.641 9.473,15.633 9.691,15.783 a 0.341,0.341 0 0 1 0.165,0.226 0.347,0.347 0 0 0 0.326,0.25 c 0.068,0 0.068,0 0,0.041 -0.05,0.03 -0.153,0.017 -0.376,-0.045 A 3.163,3.163 0 0 1 9.424,16.13 C 9.358,16.095 9.352,16.101 9.374,16.184 A 1.02,1.02 0 0 1 9.4,16.376 c 0,0.175 0.037,0.191 0.348,0.162 0.285,-0.026 0.289,-0.025 0.313,0.075 a 1.084,1.084 0 0 0 0.114,0.242 0.827,0.827 0 0 1 0.1,0.232 c 0.01,0.067 0.076,0.119 0.255,0.2 l 0.241,0.109 -0.089,-0.185 a 0.958,0.958 0 0 0 -0.148,-0.236 z m 10.899,-5.77 c -0.1,0.183 -0.1,0.184 -0.016,0.158 a 0.536,0.536 0 0 0 0.317,-0.336 1.172,1.172 0 0 0 0.055,-0.157 c 0,0 -0.062,0.034 -0.13,0.076 a 0.816,0.816 0 0 0 -0.226,0.259 z M 20.877,9.8 c 0.069,0 0.069,0 0,-0.059 -0.108,-0.082 -0.169,-0.073 -0.283,0.041 a 0.336,0.336 0 0 1 -0.178,0.1 c -0.148,0 -0.128,0.116 0.076,0.427 0.278,0.422 0.309,0.453 0.435,0.43 0.058,-0.011 0.21,-0.032 0.336,-0.046 0.322,-0.035 0.277,-0.115 -0.073,-0.13 A 0.7,0.7 0 0 1 20.853,10.494 1.661,1.661 0 0 1 20.59,9.994 C 20.575,9.928 20.763,9.8 20.877,9.8 Z m -2.422,2.546 a 0.523,0.523 0 0 1 0.109,-0.176 c 0.027,-0.017 0.031,-0.03 0.009,-0.029 a 1.259,1.259 0 0 0 -0.252,0.237 1.068,1.068 0 0 0 -0.186,0.236 0.486,0.486 0 0 0 0.32,-0.268 z m -7.142,0.719 a 1.41,1.41 0 0 0 1.393,-0.114 l 0.223,-0.148 -0.072,-0.123 a 1.272,1.272 0 0 0 -1.2,-0.356 c -0.339,0.057 -0.706,0.244 -0.711,0.363 -0.005,0.119 0.165,0.281 0.367,0.378 z M 16.532,8.9 c 0,-0.035 -0.068,0 -0.163,0.077 C 16.274,9.054 16.257,9.164 16.354,9.164 16.4,9.167 16.532,8.965 16.532,8.9 Z m -4.549,4.813 c 0.009,0.045 0.055,0.073 0.132,0.079 0.077,0.006 0.266,0.029 0.445,0.053 0.3,0.041 0.337,0.038 0.447,-0.032 l 0.12,-0.076 -0.407,-0.047 c -0.592,-0.068 -0.753,-0.063 -0.737,0.023 z M 13.7,12.3 l 0.165,0.095 c 0.09,0.052 0.242,0.147 0.336,0.212 0.208,0.142 0.329,0.184 0.408,0.14 0.045,-0.026 -0.016,-0.084 -0.253,-0.241 C 14.099,12.336 14.012,12.3 13.871,12.3 Z m 6.546,-1.709 a 0.159,0.159 0 0 0 0.2,0.174 c 0.1,-0.027 0.108,-0.047 0.026,-0.163 -0.082,-0.116 -0.199,-0.115 -0.226,-0.011 z M 11.4,13.842 a 3.852,3.852 0 0 0 0.407,-0.054 c 0.035,-0.036 -0.044,-0.144 -0.1,-0.138 l -0.223,0.02 c -0.087,0.008 -0.306,0.033 -0.486,0.057 l -0.327,0.044 0.1,0.078 a 0.223,0.223 0 0 0 0.169,0.055 c 0.034,-0.012 0.242,-0.04 0.46,-0.062 z m 4.347,-4.786 a 0.256,0.256 0 0 0 -0.136,0.015 2.16,2.16 0 0 1 -0.413,0.055 6.226,6.226 0 0 0 -1.532,0.383 3.241,3.241 0 0 1 -0.463,0.133 2.583,2.583 0 0 0 -0.75,0.256 0.217,0.217 0 0 0 -0.034,0.148 l 0.013,0.091 0.078,-0.089 A 0.379,0.379 0 0 1 12.927,10 c 0.042,0.027 0,0.038 -0.149,0.039 -0.116,0 -0.208,0.018 -0.208,0.041 0,0.093 0.147,0.08 0.625,-0.053 0.949,-0.265 1.43,-0.389 2.011,-0.518 a 2.424,2.424 0 0 0 0.616,-0.186 0.35,0.35 0 0 0 0.036,-0.157 c 10e-4,-0.083 -0.02,-0.103 -0.111,-0.11 z m -1.973,0.668 c -0.088,0.088 -0.4,0.162 -0.356,0.083 a 0.122,0.122 0 0 1 0.1,-0.046 0.516,0.516 0 0 0 0.186,-0.074 c 0.14,-0.087 0.178,-0.071 0.07,0.037 z M 14.14,9.682 c -0.089,0 -0.138,-0.016 -0.123,-0.04 0.015,-0.024 0.206,-0.016 0.254,0.025 0.009,0.008 -0.05,0.015 -0.131,0.015 z m 0.352,-0.244 c -0.114,0 -0.112,-0.005 0.04,-0.055 0.211,-0.069 0.3,-0.069 0.178,0 A 0.481,0.481 0 0 1 14.492,9.438 Z M 15.529,9.35 a 1.984,1.984 0 0 1 -0.662,0.153 0.043,0.043 0 0 0 -0.058,0.019 0.086,0.086 0 0 1 -0.066,0.041 c -0.065,0 0.138,-0.2 0.205,-0.2 0.052,0 0.052,-0.006 0,-0.038 -0.073,-0.047 -0.046,-0.059 0.316,-0.136 0.3,-0.066 0.341,-0.061 0.323,0.039 A 0.261,0.261 0 0 1 15.529,9.35 Z m -1.705,2.828 c 0.122,0 0.128,-0.006 0.073,-0.07 -0.032,-0.038 -0.117,-0.158 -0.188,-0.266 -0.106,-0.163 -0.154,-0.2 -0.274,-0.222 l -0.145,-0.02 0.14,0.221 c 0.203,0.317 0.246,0.357 0.394,0.357 z M 11.1,14.375 c -0.048,-0.028 -0.048,-0.024 0,0.034 a 0.237,0.237 0 0 0 0.179,0.063 h 0.124 L 11.28,14.442 A 0.79,0.79 0 0 1 11.1,14.375 Z m 1.144,2.704 a 0.438,0.438 0 0 0 0.158,0 c 0.038,-0.01 0,-0.017 -0.089,-0.017 -0.089,0 -0.113,0.008 -0.069,0.017 z m -0.308,-3.174 a 2.19,2.19 0 0 0 -0.376,0.018 l -0.446,0.059 C 11,13.998 10.906,14.026 10.906,14.044 a 1.8,1.8 0 0 0 0.559,0.287 c 0.084,0.02 0.111,0.006 0.149,-0.077 a 0.2,0.2 0 0 0 0.021,-0.142 c -0.014,-0.022 0.019,-0.012 0.073,0.024 0.109,0.071 0.2,0.053 0.332,-0.065 0.084,-0.075 0.084,-0.074 0.065,0.026 a 0.222,0.222 0 0 0 0.03,0.161 c 0.054,0.065 0.3,0.081 0.335,0.021 a 1.107,1.107 0 0 1 0.219,-0.144 c 0.108,-0.059 0.188,-0.12 0.178,-0.136 A 1.649,1.649 0 0 0 12.462,13.944 C 12.249,13.93 12.013,13.912 11.936,13.905 Z m 0.65,0.452 a 0.616,0.616 0 0 1 -0.2,0.077 l -0.157,0.04 0.191,-0.015 c 0.191,-0.014 0.306,-0.071 0.234,-0.116 a 0.064,0.064 0 0 0 -0.068,0.014 z m 0.581,-0.04 A 0.852,0.852 0 0 0 13.652,14.095 0.655,0.655 0 0 1 13.958,13.977 0.528,0.528 0 0 0 14.2,13.9 c 0.034,-0.042 -0.021,-0.051 -0.287,-0.047 a 3.613,3.613 0 0 1 -0.515,-0.028 c -0.182,-0.031 -0.188,-0.029 -0.267,0.1 a 0.608,0.608 0 0 0 -0.082,0.262 c -0.003,0.119 0.008,0.13 0.118,0.13 z M 15.6,10.316 c -0.016,0 0.012,0.035 0.062,0.079 a 0.341,0.341 0 0 0 0.13,0.079 c 0.021,0 -0.006,-0.036 -0.062,-0.079 A 0.414,0.414 0 0 0 15.6,10.316 Z M 3.56,9.965 C 3.385,9.877 3.292,9.86 3.246,9.906 3.2,9.952 3.221,9.987 3.378,10.058 a 0.533,0.533 0 0 1 0.159,0.09 2.883,2.883 0 0 1 -0.2,0.291 l -0.2,0.273 H 2.862 c -0.241,0 -0.365,0.043 -0.3,0.106 a 1.91,1.91 0 0 0 0.351,0.042 l 0.33,0.02 0.224,-0.279 C 3.833,10.143 3.839,10.1 3.56,9.965 Z M 2.934,9.682 A 1.028,1.028 0 0 0 2.771,9.791 C 2.671,9.864 2.631,9.923 2.643,9.972 A 0.344,0.344 0 0 1 2.531,10.19 1.272,1.272 0 0 0 2.269,10.743 c 0,0.092 0.072,0.047 0.158,-0.1 0.054,-0.092 0.1,-0.129 0.114,-0.1 a 0.485,0.485 0 0 0 0.388,0.047 0.69,0.69 0 0 0 0.209,-0.212 l 0.124,-0.18 -0.081,-0.08 A 0.267,0.267 0 0 0 3.06,10.037 c -0.056,0 0.065,-0.225 0.145,-0.27 C 3.259,9.737 3.253,9.728 3.168,9.712 3.04,9.688 2.998,9.712 2.946,9.85 2.923,9.909 2.879,9.958 2.846,9.958 a 0.51,0.51 0 0 0 -0.13,0.023 c -0.054,0.017 -0.047,0 0.028,-0.069 0.114,-0.102 0.218,-0.23 0.19,-0.23 z m 0.014,0.515 c 0.019,0 0.033,0.022 0.032,0.049 0,0.069 -0.109,0.3 -0.113,0.243 C 2.86,10.394 2.915,10.2 2.948,10.2 Z m 0.4,0.967 C 3.506,11.114 3.406,11.025 3.165,11.001 3.075,10.992 2.872,10.968 2.712,10.947 2.358,10.902 2.19,10.9 2.19,10.941 a 4.135,4.135 0 0 0 1.158,0.223 z M 3.484,11.038 A 0.358,0.358 0 0 1 3.64,10.93 C 3.802,10.863 3.848,10.769 3.762,10.682 3.705,10.625 3.689,10.631 3.579,10.749 a 0.371,0.371 0 0 0 -0.118,0.234 c 0.002,0.058 0.012,0.082 0.023,0.055 z M 2.3,11.108 c -0.049,0 -0.075,0.028 -0.075,0.082 0,0.1 0.2,0.314 0.294,0.314 0.055,0 0.054,-0.016 -0.005,-0.148 C 2.424,11.148 2.389,11.108 2.3,11.108 Z M 3.916,10.457 C 3.977,10.411 3.983,10.39 3.943,10.35 3.903,10.31 3.893,10.313 3.893,10.367 a 0.063,0.063 0 0 1 -0.059,0.067 c -0.033,0 -0.059,0.018 -0.059,0.04 0,0.056 0.051,0.049 0.141,-0.017 z m 8.397,-3.272 c 0.1,0.028 0.171,0.061 0.159,0.072 -0.033,0.033 0.1,0.166 0.172,0.166 0.1,0 -0.187,-0.27 -0.328,-0.312 A 0.939,0.939 0 0 0 11.808,7.069 c -0.257,0.042 -0.472,0.156 -0.514,0.273 -0.032,0.09 -0.03,0.092 0.037,0.034 A 1.188,1.188 0 0 1 12.313,7.185 Z M 4.058,9.6 3.846,9.666 4.059,9.715 A 1.934,1.934 0 0 0 4.42,9.765 C 4.549,9.765 4.567,9.753 4.567,9.67 4.567,9.508 4.413,9.487 4.058,9.6 Z M 4.29,10.046 C 4.29,9.932 4.221,9.891 3.771,9.74 3.137,9.526 3.081,9.57 3.642,9.84 4.257,10.134 4.29,10.144 4.29,10.046 Z m 1.316,2.24 a 0.554,0.554 0 0 0 0.139,0.186 c 0.1,0.04 0.067,-0.042 -0.078,-0.2 L 5.516,12.113 Z M 4.315,10.24 C 4.43,10.169 4.599,9.919 4.531,9.919 c -0.017,0 -0.05,0.044 -0.075,0.1 a 0.338,0.338 0 0 1 -0.343,0.2 C 4.036,10.2 4.019,10.208 4.037,10.255 4.068,10.336 4.165,10.331 4.315,10.24 Z M 3.978,9.5 A 1.336,1.336 0 0 1 4.329,9.433 H 4.508 L 4.389,9.38 A 0.872,0.872 0 0 0 3.755,9.406 1.852,1.852 0 0 1 3.398,9.487 c -0.117,0 -0.117,0.005 -0.02,0.036 A 1.046,1.046 0 0 0 3.978,9.5 Z M 9.1,11.781 a 1.414,1.414 0 0 0 0.216,-0.086 1.85,1.85 0 0 1 0.779,-0.109 l 0.593,-0.022 0.038,-0.136 c 0.029,-0.1 0.09,-0.167 0.237,-0.257 0.168,-0.1 0.184,-0.124 0.109,-0.135 a 0.66,0.66 0 0 0 -0.284,0.089 0.906,0.906 0 0 1 -0.327,0.1 2.868,2.868 0 0 0 -0.368,0.04 l -0.353,0.06 c -0.106,0.018 -0.112,0.014 -0.058,-0.04 a 2.062,2.062 0 0 1 0.731,-0.181 1.03,1.03 0 0 0 0.293,-0.073 c 0.161,-0.065 0.167,-0.073 0.08,-0.1 a 1.323,1.323 0 0 0 -0.681,0.072 c -0.213,0.051 -0.414,0.1 -0.446,0.115 -0.032,0.015 -0.058,0.005 -0.058,-0.016 A 0.037,0.037 0 0 0 9.568,11.063 c -0.018,0 -0.025,0.05 -0.016,0.111 0.013,0.093 -0.024,0.15 -0.233,0.357 A 1.144,1.144 0 0 0 9.1,11.781 Z m 9.671,0.161 c -0.062,0.028 -0.05,0.032 0.053,0.02 a 0.446,0.446 0 0 0 0.155,-0.039 c 0.036,-0.035 -0.12,-0.023 -0.208,0.019 z m 1.416,-1.734 c -0.03,-0.04 -0.051,-0.047 -0.054,-0.019 -0.019,0.179 -0.014,0.186 0.124,0.2 0.138,0.014 0.135,0.007 0.059,-0.051 a 0.864,0.864 0 0 1 -0.129,-0.13 z m -5.404,1.078 a 3.894,3.894 0 0 0 0.407,0.436 q 0.466,0.455 0.027,-0.043 c -0.169,-0.192 -0.471,-0.464 -0.434,-0.393 z m -6.65,1.664 c 0,0.109 0.139,0.274 0.2,0.237 C 8.394,13.15 8.377,13.066 8.274,12.956 8.153,12.826 8.133,12.825 8.133,12.95 Z M 6.677,10.043 c -0.071,0.02 -0.129,0.052 -0.129,0.069 a 0.925,0.925 0 0 0 0.428,0.141 c 0.116,0.019 0.125,0.015 0.072,-0.037 a 0.322,0.322 0 0 0 -0.19,-0.06 c -0.072,0 -0.114,-0.013 -0.092,-0.029 0.022,-0.016 0.078,-0.135 0.049,-0.125 z m 3.538,1.894 a 2.04,2.04 0 0 0 -0.18,0.257 c 0,0.037 0.157,0.027 0.236,-0.016 a 1.765,1.765 0 0 0 0.358,-0.451 c 0,-0.014 -0.053,-0.025 -0.117,-0.025 -0.095,-0.002 -0.149,0.043 -0.297,0.235 z m 8.823,-0.016 c -0.1,0.11 -0.114,0.177 -0.029,0.177 a 0.059,0.059 0 0 1 0.061,0.05 c 0,0.027 0.032,-0.013 0.069,-0.089 0.06,-0.123 0.094,-0.145 0.306,-0.191 0.13,-0.028 0.381,-0.1 0.557,-0.148 0.176,-0.048 0.332,-0.1 0.348,-0.1 0.016,0 0.054,0.058 0.083,0.128 l 0.054,0.129 0.028,-0.148 c 0.02,-0.107 0.048,-0.149 0.1,-0.149 0.052,0 0.069,-0.023 0.052,-0.148 -0.02,-0.145 -0.019,-0.146 0.035,-0.05 0.1,0.188 0.393,0.1 0.529,-0.166 a 0.621,0.621 0 0 0 0.056,-0.129 c 0,-0.04 -0.177,-0.012 -0.4,0.065 -0.142,0.048 -0.235,0.1 -0.25,0.15 -0.033,0.105 -0.236,0.213 -0.515,0.276 a 2.967,2.967 0 0 0 -1.084,0.343 z M 6.35,9.9 C 6.35,9.849 6.337,9.848 6.271,9.889 6.205,9.93 6.146,9.923 5.925,9.853 5.49,9.716 4.641,9.484 4.574,9.484 4.562,9.484 4.593,9.526 4.642,9.578 4.691,9.63 4.714,9.684 4.694,9.697 A 0.205,0.205 0 0 0 4.634,9.803 C 4.613,9.883 4.616,9.884 4.687,9.819 4.814,9.705 5.287,9.768 6.044,10.001 6.178,10.042 6.35,9.985 6.35,9.9 Z"/>

</svg>