<svg xmlns="http://www.w3.org/2000/svg" fill="#44739e" width="33" height="32" version="1.1" viewBox="0 0 24000 24000"><path d="M8957 11210a300 300 0 01 182-32c20 15 30 0 20-26-30-83-87-80-220 7-170 106-166 124 10 51zm327 402a600 600 0 01-236 31c-56-34-39-88 35-107 57-15 55-18-10-20a1616 1616 0 00-383 144c-332 158-420 244-423 412v110l118-69c65-39 118-83 118-100s22-36 50-45c26-9 0-9-70 0-112 15-114 13-40-45a268 268 0 01 130-60c30 0 41-20 26-45-15-24 0-34 62-15 62 19 80 14 60-16-18-30-8-43 13-43a75 75 0 01 58 50c10 26 23 0 26-50 3-49 14-79 24-56 23 55 378 40 530-24 185-76 128-109-88-52ZM6200 10921c-67 32-63 35 30 23 60-10 119 0 131 19 12 20-10 37-48 37-37 0-57 10-44 24a100 100 0 00 90 0c53-20 56-36 17-84-55-69-68-70-176-20Zm609 266c0-21-38-26-85-11-67 21-79 14-60-37 30-78-8-79-108 0-75 57-75 58 6 58 46 0 90 18 100 41 13 47 147 4 147-51zM6500 8112c-50-13-113 18-181 90-143 150-72 175 110 40 126-95 135-112 70-130Zm437 3136c-54-33-83-30-123 13-70 75-43 94 86 60 100-27 100-34 37-73Zm2727 143c-14-22 0-40 37-40 88 0 75-66-18-90-43-10-79 0-79 15a38 38 0 01-40 36c-24 0-34-15-23-33 10-18-60-34-155-35-96 0-175 11-175 27 0 67-370 30-500-37-120-68-200-88-200-50a783 783 0 00 174 120c146 84 188 93 270 55a179 179 0 01 180 1c59 31 84 31 95 1 10-29 47-22 120 24 70 47 123 57 147 40a162 162 0 01 130 20 184 184 0 00 183 0l100-42-106 20c-60 13-120 4-132-17ZM7500 11700c-24 39 39 100 147 136 40 14 62 42 49 62-13 20 0 45 27 56 27 10 14 22-29 24-65 0-68 10-20 40 75 48 123-31 92-151-24-93-230-223-266-167Zm3286 5143c-22-13-39-10-37 8a494 494 0 00 37 110c32 76 33 76 36-7a143 143 0 00-36-111ZM9700 15280l-125 67 350 82 349 82-64-110a349 349 0 00-510-120Zm2149 44c-100 28-100 28-15 74a176 176 0 00 186 0c195-93 73-144-171-74zm-1216 791c-19 0-25 120-15 266 26 355 49 363 49 16a613 613 0 00-34-282zm2820 266a1828 1828 0 00 0-300c-9-80-16-14-16 148s7 233 15 152zM10534 11000c-166-100-173-100-167 7 0 75 23 86 132 75 142-14 170 47 52 110-183 100-435 12-436-150 0-41-12-50-30-21a265 265 0 01-118 80c-49 17-81 40-71 59 10 16-12 29-48 27-100 0-100 70 0 105 48 18 69 14 54-10-15-24 5-40 40-40s53 19 39 40c-14 20 19 40 75 40a164 164 0 01 122 40c14 23 0 40-30 40a285 285 0 00-131 59c-42 33 39 13 180-43 520-205 565-263 336-405Zm2846 6079a433 433 0 00-56-137c-30-54-56-81-56-59a433 433 0 00 56 137c31 55 56 80 56 59zm-2761-1590c-87-54-87-54-18 51 40 58 60 125 50 150-15 23-10 32 18 15 74-45 53-157-40-216zm618-4803a5242 5242 0 00-366 56c-89 20-89 20 26 118a400 400 0 00 307 100c241 0 374-68 411-206 33-126 58-121-378-68zm-6764-852 145-68-90-74c-110-92-119-92-230 34a186 186 0 01-220 74c-115-22-120-20-46 29 100 70 343 152 316 109-10-20 45-66 124-104ZM4150 9690c7-5-30-43-82-82-52-40-94-53-94-30 0 40 153 140 176 114zm7368 680c-142-86-205-90-635-35a7940 7940 0 00-433 67c-132 27-145 37-79 64a1276 1276 0 01 196 107c100 70 136 70 511 30 661-74 684-87 450-232zm-150-220c12-10-10-18-47-18a965 965 0 01-261-100c-217-110-190-108-728-34-217 29-420 58-453 64-40 6 20 58 120 120l183 109 580-61a5400 5400 0 00 598-80Zm-1346-676a1948 1948 0 01-310-173c-250-161-268-164-713-112a1414 1414 0 00-289 50 4114 4114 0 00 1177 260c112-4 176-15 135-25Zm743 313c77-46 77-47-10-48a534 534 0 01-216-80c-120-70-180-76-550-55a1471 1471 0 01-670-59c-270-86-315-100-315-63a2787 2787 0 00 343 240l345 223 238-26a3021 3021 0 00 828-132zm-4941 930c77-20 81-27 20-28a529 529 0 00-168 34c-106 43-114 74-19 70a500 500 0 01 147 25l79 28-80-50c-75-49-75-50 20-78Zm-532-330c-156 56-156 56-20 34a462 462 0 00 176-57c51-44 40-43-156 25Zm296 55c0-20-5-33-10-31l-143 40c-73 30-126 50-118 60 30 27 270-28 270-61zm88 167c-70 20-128 45-128 56 0 29 211-26 254-66 43-40 45-40-126 10zm-355-374c-27-16-48-12-48 9 0 20-58 52-128 68-70 16-108 35-83 44 73 25 314-87 260-121zm-285-121c0-12 0-20-9-20l-154 57a400 400 0 01-168 37c-13-10-8 0 10 25 20 25 80 24 180-18a371 371 0 00 141-81Zm-275-320c10-32-50-10-179 70-69 44-119 89-109 100a756 756 0 00 300-170zm430 350c-15-13-27-7-27 15s-76 60-168 84l-167 43 154-16c158-18 256-76 207-125Zm-903 4579c-83-26-94 36-13 68a60 60 0 00 77-26c12-30 57 0 120 70 100 114 130 100 78-33a2550 2550 0 00-378-347c-523-424-490-406-542-310-37 67-34 80 21 80 86 0 417 272 388 319-12 19 0 27 30 16s100 27 168 83c70 56 90 92 50 80zm17686-1286c-79-147 40-120-2107-490a6955 6955 0 01-1140-250 4462 4462 0 00-1339-230c-266 28-900 130-1378 223a7537 7537 0 01-877 100l-482 22-142-111a1445 1445 0 00-328-180 837 837 0 01-275-160l-95-100 126 65c206 100 328 80 600-118l250-182 222 50c172 39 200 56 142 79a1455 1455 0 00-268 199c-131 118-184 193-176 250 20 149 149 96 323-131a600 600 0 01 257-230c100-15 357 106 357 166a249 249 0 00 66 109c59 67 59 72-23 72a322 322 0 01-187-118 342 342 0 00-148-120c-27 0-100 78-172 173l-123 170 283-14a6186 6186 0 00 630-78l344-63-127-91-127-94h107a432 432 0 01 216 80c92 68 144 76 330 55 213-26 217-28 146-100a432 432 0 01-100-174l-24-100-123 75a947 947 0 01-260 100c-134 27-130 20 76-110a2419 2419 0 00 355-272 1232 1232 0 01 228-192l94-47-100 132a809 809 0 00-127 262l-28 129 190-176c161-150 200-167 226-113 26 52 0 88-89 173a447 447 0 01-183 110c-79 0-74 54 13 133 160 144 360 62 980-400a3200 3200 0 00 550-483 14753 14753 0 01 1553-1245c813-610 1490-1140 1500-1173a500 500 0 00 24-144c0-70-664-1600-870-2010-142-278 0-246-2313-520a4762 4762 0 00-1356-110c-36 10-603 460-1257 1000a59800 59800 0 01-1240 1005 1558 1558 0 01-433-160 4900 4900 0 00-1300-400 2294 2294 0 01-433-113 1356 1356 0 00-366-83 1100 1100 0 00-610 90 4211 4211 0 01-529 147 4915 4915 0 00-1570 613 340 340 0 01-148 73c-29-5-528-345-1109-760-1370-978-1363-975-1580-975-180-2-2842 438-3130 515-257 70-358 224-717 1100-365 890-463 1184-429 1292a1870 1870 0 00 440 325c226 139 812 516 1300 836 482 320 980 637 1100 700a2557 2557 0 01 440 343 3469 3469 0 00 950 614c84 20 90 18 40-26-50-44-40-72 93-210 85-85 140-131 122-100a873 873 0 00-60 205c-26 144-20 160 95 230a624 624 0 00 154 75 900 900 0 00 200-157c193-178 291-193 500-75l137 78-220-23c-210-22-228-17-310 87l-87 110 131 26a448 448 0 00 450-100c70-81 90-90 130-45 33 44 31 62 1 80a105 105 0 00-46 82c0 42 54 57 210 57a367 367 0 00 360-155 1041 1041 0 01 270-206c117-48 123-45 338 193 183 200 233 236 291 200 124-73 78-183-139-325a2384 2384 0 00-266-157c-36-13-22-23 37-25a849 849 0 00 218-47c112-40 144-31 355 100a500 500 0 00 587 79 375 375 0 01 170-45 1951 1951 0 01-507 308 1800 1800 0 00-264 155c-108 80-156 87-544 77-640-17-778-25-1270-73a2609 2609 0 01-957-181c-113-80-260-75-872 23a2535 2535 0 00-638 160 9421 9421 0 01-1524 310c-770 130-1418 237-1436 237-93 0-207 168-207 300a3687 3687 0 00 447 1145 8621 8621 0 00 1032 468l942 384 340-10c186 0 753-46 1260-92s1177-90 1491-100a14231 14231 0 00 1601-120c135-30 106-75-56-86-162-10-592-200-456-200a1057 1057 0 01 290 73 506 506 0 00 277 47c76-30 76-30 0-96a1218 1218 0 00-700-130c-932 97-1779 190-2007 228-265 40-700 80-1457 132l-355 25-240-170a14516 14516 0 01-1300-1038 587 587 0 00-16-95c-9-33 25-70 83-86 218-67 4148-555 4300-535 181 24 300 128 1022 900 356 383 424 475 385 522-39 47-35 57 0 57a90 90 0 00 70-60c20-53 33-50 106 15 150 135 247 170 352 120 105-47 86-48-165-180a2282 2282 0 01-300-172c-24-23 110-37 362-37s410 18 427 48c18 30-59 40-300 24l-330-20 201 90c353 158 353 158 530-18 215-216 214-344 0-558l-164-160 30-400c27-400 50-500 90-380a2323 2323 0 00 1171 700c201 30 257 76 256 205 0 167-50 210-220 190-205-22-330 33-873 389l-608 394a305 305 0 00-172 275 1863 1863 0 00 200 956c124 147 174 327 377 1340 80 400 90 406 1040 615 455 100 916 192 1024 200a4038 4038 0 00 1100-200c495-121 933-240 973-260 90-47 122-174 250-955a2177 2177 0 01 200-767 1936 1936 0 00 178-900V15100l-187-106c-100-59-346-207-540-331-672-425-700-440-935-426l-208 13v-152c0-151 0-153 276-269 640-270 880-429 1047-694l114-180v921l-157 162c-200 210-208 336-20 524 150 150 295 242 295 190a1092 1092 0 01 480-200c55 18-300 226-396 228-33 0-3 27 68 58 117 50 143 50 226-5a324 324 0 00 118-137c30-100 100-100 100 0a121 121 0 00 88 105c82 27 78 32-47 65a739 739 0 00-226 107l-87 70 92 24a687 687 0 00 295-54 1085 1085 0 01 312-75c62 0 83 12 50 25a2793 2793 0 00-225 100 1100 1100 0 01-305 83c-150 10-184 50-70 85a9994 9994 0 00 1460 130 5530 5530 0 01 753 34c862 90 1727 171 2107 200l356 26 900-359c1050-421 1190-489 1250-600a6552 6552 0 00 352-1042 441 441 0 00-50-184ZM9100 13124a310 310 0 01 37 144 793 793 0 00 178 293c162 192 210 270 154 270a1137 1137 0 01-314-400c-95-182-144-440-58-307Zm-1056 1930a1123 1123 0 01 315 80 1250 1250 0 01 246 119c61 60-210 0-450-105-177-74-198-92-112-93zm-467 60a1559 1559 0 01 354 117l200 95-154-25a1537 1537 0 01-355-116l-200-100zm-270 136c94 24 70 30-118 32a1169 1169 0 01-315-32c-100-44 263-44 433 0zm-1358 67c336 10 616 26 624 33 53 47-408 48-780 0l-453-57Zm-1400 38 570 53a3270 3270 0 01 470 64 11053 11053 0 01-1337-54c-93-23-90-26 40-50a1200 1200 0 01 256-13zm-200-188c107 42-442 90-614 55l-130-28 120-26a1805 1805 0 01 626-1zm-300-237c32 20-50 42-217 58a2433 2433 0 01-710 0 2200 2200 0 01 930-58zm-342-240a2991 2991 0 01-994 100c-75-34-44-46 207-80a2162 2162 0 01 787-20Zm-325-272c38 22 56 40 40 40s-216 30-445 64a2392 2392 0 01-470 42 260 260 0 01-100-110c-44-84-43-87 18-38 60 49 134 47 480 9a1213 1213 0 01 477-7Zm-612-160c-372 47-384 46-450-37-85-100-93-180-10-100 46 50 130 60 426 40 504-30 528 40 33 100zm6965 35c160 135 155 220-10 152a1242 1242 0 00-484-33 977 977 0 01-458-34c-90-50-70-57 287-113l382-61-186-200-185-200-370 35c-344 33-377 29-450-43-70-72-76-78 230-130 285-47 412-107 412-200 0-57-118-40-450 65-293 101-314 101-384 40a433 433 0 01-100-218c-30-176-54-200-277-230-160-24-164-23-130 68s28 89-44 50a146 146 0 00-124-14c-29 16-37 4-20-36 38-100-63-190-242-215l-170-23 12 134c10 112 31 137 130 158 100 20 80 26-82 30h-200l-36-185c-38-200-93-236-273-191-115 29-144 118-100 306 32 139 30 144-70 142-78 0-98-24-107-100-14-222-52-290-165-290a364 364 0 00-186 55c-67 50-70 74-32 216 38 142 40 160-50 160-89 0-100-24-117-153-28-174-132-230-308-162a136 136 0 00-100 156c0 100-30 135-180 222-247 144-459 168-557 63l-74-80-487 176a3277 3277 0 01-540 165 1805 1805 0 01 456-227 2417 2417 0 00 473-230 3964 3964 0 00-1393 470c-23 22-10 88 30 174l66 139-113-84c-100-77-138-81-430-48s-316 28-332-33c-12-45 0-60 38-46a558 558 0 00 226-23 4053 4053 0 00 840-360 3121 3121 0 00-894 234c-247 125-280 125-280 0 0-160-70-143 2000-472a5600 5600 0 00 1023-218 3244 3244 0 01 700-160c300-44 557-88 567-100a1290 1290 0 01 553 39c140 30 388 90 551 135l844 222c644 169 674 183 710 320a3631 3631 0 00 651 795zm4090-2157c-133-71-134-74-34-76a222 222 0 01 155 59c75 92 32 98-120 17zm94-406a1552 1552 0 00-257 192 583 583 0 01-200 135 1590 1590 0 01-400-114 1771 1771 0 00 314-212c150-116 280-200 287-178 7 22 43 35 80 36 53 0 54 8 5 27a3045 3045 0 00-472 349c0 8 32 15 71 15a780 780 0 00 273-172c157-134 225-168 300-153l100 20zm249 338c-10 49-18 18-18-68 0-86 7-127 17-90a433 433 0 01 0 158zm3100-700a14350 14350 0 00-650 474c-377 300-550 410-652 410-103 0-1537-548-2340-888-366-154-439-200-460-285-30-124-33-123 1300-1238l1775-1487c455-381 871-723 924-760 184-125 377-85 888 185 1063 560 2091 1132 2160 1200a150 150 0 01 50 147 2436 2436 0 01-468 388c-243 174-823 600-1289 948-465 348-1020 758-1237 908zm207 726a100 100 0 01-81-80c-10-42-16-77-10-77a500 500 0 01 80 78c63 70 64 83 13 83zm170-400c-93 93-134 100-243 40-109-58-100-175 11-251 112-76 121-78 226 34l90 95zm550-806a327 327 0 00-20 230c21 155 14 184-67 240-122 86-240 80-300-13s-39-152 200-344c220-170 262-197 187-103zm371-13c-145 140-177 200-177 312a429 429 0 01-59 218c-57 72-58 70-26-22a651 651 0 00 16-243c-15-127 0-167 149-325s274-231 274-146a865 865 0 01-176 212zm1047-770a2663 2663 0 00-300 347 1948 1948 0 01-500 500 335 335 0 01 0-138 379 379 0 00-46-232c-60-93-57-100 143-268a1618 1618 0 01 482-338 1384 1384 0 01-255 250c-313 270-332 300-254 400 55 70 61 67 145-43 48-64 251-292 451-508a3915 3915 0 00 365-423 1200 1200 0 01 263-214 1122 1122 0 00 255-218 40 40 0 01 43-36c24 0 36 22 27 49a857 857 0 01-200 187 1972 1972 0 00-343 368 2129 2129 0 01-274 324zm1670-1665c23 0 72 60 108 137 136 283 64 423-385 750l-157 115 110-138c368-461 416-537 394-621-22-84-31-80-100-33a1110 1110 0 00-193 230 2347 2347 0 01-300 350 3250 3250 0 00-346 389 3217 3217 0 01-677 653 8700 8700 0 01 878-1067 5500 5500 0 00 430-500 1171 1171 0 01 239-265Zm-240-135c-373 330-806 549-806 406 0-23-18-30-40-16-50 30 175 208 300 240a274 274 0 00 167-23c120-60 106-30-33 134l-120 138-127-166c-122-160-256-248-892-590l-515-282a16423 16423 0 00-1470-755c-90-28-126-52-83-54a516 516 0 00 178-60c135-78 157-74 157 30a184 184 0 00 80 138c70 43 100 37 207-44 214-158 231-162 200-50a534 534 0 00 157 415c71 58 182 8 365-165l125-118-47 133a1235 1235 0 01-76 180 56 56 0 00 20 78 381 381 0 01 93 110c75 137 200 118 388-61 220-200 220-200 56 126-32 68-26 105 36 187 100 140 223 148 406 27 157-100 200-71 100 70-47 62-45 82 10 144 38 40 88 100 113 130 100 122 330 54 687-200a1400 1400 0 01 431-240c90-2 85 8-62 138zm-118-618a3246 3246 0 01-847 633c-150 0-68-100 308-383 376-283 490-330 540-250zm-266-522c27 72 10 88-590 546a1478 1478 0 01-487 294c-54 0-93-20-86-41A11814 11814 0 01 20600 7100c17 0 42 29 56 65zm-480-343c-70-28-67-33 26-35a661 661 0 01 215 39c88 33 100 49 52 78a310 310 0 01-179 14 229 229 0 00-216 60c-200 170-848 662-933 707a161 161 0 01-152 12c-52-30-8-83 244-300 430-366 618-483 834-517 148-20 170-33 108-58ZM19230 6700c152 10 410 32 571 47 251 24 270 30 118 40-266 19-268 20-300 50-32 30-224-10-272-73a415 415 0 00-217-67c-95-13-50-12 100 3Zm100 105a6641 6641 0 01-700 568c-125 65-210 55-207-24a1669 1669 0 01 641-523c150-39 265-48 265-26Zm-707-114c21 13 38 0 38-23s27-35 62-22a385 385 0 00 108 25c25 0 14 20-26 43a262 262 0 01-168 18c-75-20-152 20-357 173-272 206-310 221-406 160-49-30-37-60 73-173a566 566 0 01 385-180 900 900 0 01 290-25zm-3660 1531c320-239 900-700 1485-1189 493-410 788-573 972-542 65 11 240 31 385 46 250 24 300 38 206 55a540 540 0 00-112 46 746 746 0 01-200 55 3356 3356 0 00-557 207c-235 105-454 200-486 212a5150 5150 0 00-473 330c-227 170-463 343-525 383-140 90-113 127 38 48 200-106 812-382 1144-517a2600 2600 0 00 826-440l100-100-78 173c-70 160-100 183-420 320a2642 2642 0 00-385 190 166 166 0 01-100 31 625 625 0 00-200 76c-77 40-300 140-486 218-186 80-456 200-589 264-388 194-932 624-790 624 13 0 186-79 384-174 198-95 544-250 767-345a3460 3460 0 00 807-474 4082 4082 0 01 435-300 16790 16790 0 01-1719 1500c-837 691-2027 1700-2180 1844-155 147-210 336-113 435 76 76-6 54-133-36a858 858 0 00-345-110l-230-29 44 100c73 173 100 188 392 216a4436 4436 0 01 540 90c215 55 240 70 157 93a4200 4200 0 00-406 170c-550 254-660 193-853-488-154-537-180-743-110-833 70-90 770-665 1075-890 305-223 334-263 293-406-30-100-22-115 54-116 76 0 134-26 500-285a973 973 0 01 266-147c68 0-150 175-442 356-272 168-417 446-200 376a621 621 0 00 170-113 16060 16060 0 01 1102-935Zm-2800 1056a5192 5192 0 01 730 27c56 23 110 0 190-62 181-152 211-105 43 70-85 90-262 250-392 358-130 108-320 276-423 373-178 168-234 173-148 12a2863 2863 0 01 394-357 2300 2300 0 00 355-317c0-20-76-37-168-39a44920 44920 0 01-700-33l-530-28Zm-255-1110 413 16a4900 4900 0 01 720 83 973 973 0 01 286 87 572 572 0 01-207-27 7427 7427 0 00-700-100zm1673 240a432 432 0 01 138 34c50 21 56 34 20 34a460 460 0 01-140-34c-48-26-55-42-20-42Zm-1969-793a1200 1200 0 01 551 0c64 20-32 32-275 32-243 0-340-16-276-36zm-1628 725a1200 1200 0 00 217-80A5500 5500 0 01 11475 8000a7991 7991 0 01 1627 63 4439 4439 0 01 580 129c164 55 214 60 214 21a142 142 0 00-70-94c-57-36-52-39 30-18a2491 2491 0 01 530 270c84 80-363 27-721-84a4852 4852 0 00-1659-235 6015 6015 0 00-1843 280 800 800 0 01-270 60c-12-9 29-30 90-46Zm-420 23a200 200 0 01 137 88c60 96 83 237 38 237a249 249 0 01-90-78c-50-57-80-68-130-40-46 30-39 58 73 147a1746 1746 0 00 691 400 600 600 0 01 255 84 11016 11016 0 01 1220 940c100 187 90 408-55 978-149 601-215 712-418 716a3358 3358 0 01-827-279 4188 4188 0 01 820-213c130-20 177-49 206-124 54-143 54-143-162-122a536 536 0 00-285 100c-146 133-200 154-150 60 85-160 50-238-200-440A68813 68813 0 00 8501 9200a8882 8882 0 01-590-440l-138-123 157 90c87 50 262 160 390 245a584 584 0 00 453 150 3663 3663 0 00 448-48 500 500 0 01 433 62c113 57 276 146 363 200a542 542 0 00 316 90c186-10 272 33 526 254 105 90 320 263 476 382 157 120 310 240 340 268 65 62 68 46 20-82a2683 2683 0 00-500-445c-670-500-768-566-900-567a800 800 0 01-298-110 2432 2432 0 01-673-550 300 300 0 01 236-213ZM7327 7300a3668 3668 0 01 315 242l131 115-130-70a2106 2106 0 01-316-243l-184-170Zm-1661-238A2712 2712 0 00 6040 7000c329-74 630-76 690 0a1200 1200 0 00 223 160c100 58 168 114 156 126-29 30-348-138-405-212-36-46-86-54-207-33-194 43-200 82-32 140a7013 7013 0 01 1000 404 1038 1038 0 00 260 115 986 986 0 01 266 152 4154 4154 0 00 410 257 1973 1973 0 01 292 185c80 68 86 90 39 120-47 30-42 35-7 35a1600 1600 0 01 480 308 1350 1350 0 00 237 171c76 43 105 67 63 54-165-52-332-60-356-23-50 70-240 45-580-80-660-242-760-271-790-252a5864 5864 0 01-1084-760 973 973 0 01 257 136l470 298a4289 4289 0 00 784 323c306 100 610 206 674 240 125 64 240 80 238 30a1400 1400 0 00-286-217 10263 10263 0 00-2170-832 69 69 0 01-82-20 144 144 0 00-112-44 515 515 0 01-212-81c-126-75-276-262-240-300a1000 1000 0 01 280 119 5600 5600 0 00 726 280 6900 6900 0 01 1010 377 2889 2889 0 00 600 218c30-30-207-178-519-320a7015 7015 0 01-630-338A5083 5083 0 00 6000 7150a910 910 0 01-295-33l-175-50ZM5000 7182c163-27 313-55 335-63 77-30 77-20 0 30-77 57-64 58 100 60a691 691 0 01 360 111c171 100 180 111 108 156-117 73-179 60-412-100-182-120-238-140-363-120a909 909 0 01-286-9c-130-23-120-28 158-74Zm-1273 881a2886 2886 0 00 600 335 738 738 0 01 265 100l174 100 217-110c181-92 206-116 148-146a820 820 0 01-150-130c-71-74-105-86-164-54a331 331 0 01-112 40 5469 5469 0 01-550-337l-512-338-250 25c-227 22-242 20-175-35a583 583 0 01 236-83c229-33 486 73 950 390 286 200 410 259 475 243a227 227 0 01 180 50c219 170 259 175 470 60l200-107-125-130c-113-115-143-127-287-107-144 20-190 0-515-220-300-209-371-239-473-216-170 38-472 24-430-20a1475 1475 0 01 286-66c145-25 270-47 275-50 4-3-1 11-11 30-9 20 60 43 156 54a1107 1107 0 01 475 222c286 193 449 258 384 153-17-26 30-7 105 42 266 176 299 184 499 112q455-163-60 106a4609 4609 0 00-374 210 3012 3012 0 01-287 170 2971 2971 0 00-300 177c-230 190-414 200-570 21-60-68-100-80-217-62-116 18-186-8-649-323a3700 3700 0 01-525-400c-40-110 175-16 645 294Zm53-243c0-28 240 122 288 182 26 30-29 6-120-55a886 886 0 01-170-127ZM3050 8000a1000 1000 0 01 157 100l80 65-80-39a1012 1012 0 01-158-100l-78-64Zm100 963c400 240 608 279 780 144a362 362 0 01 160-79c32 0-15-53-100-118-115-83-193-112-255-100-62 12-192-45-490-240-380-247-476-353-275-300a2886 2886 0 01 423 235 1059 1059 0 00 407 193 488 488 0 01 250 95c190 120 250 116 464-23a232 232 0 01 146-48c28 10-38 67-146 128a9680 9680 0 00-373 223 8060 8060 0 01-360 209 920 920 0 00-280 218c-100 140-200 150-300 35-75-83-75-84 13-56a532 532 0 00 400-211c43-51 30-56-100-35-130 20-190 0-517-206a2214 2214 0 01-365-258c3-80 196-7 512 184Zm-160-355a1232 1232 0 01 355 214c32 31-34 0-148-69a1026 1026 0 01-207-145Zm1190 2113a2608 2608 0 01-688-585 3168 3168 0 00-392-379 1933 1933 0 01-300-291c-170-200-323-266-323-134a1069 1069 0 00 245 315c135 136 225 247 200 247a1370 1370 0 01-294-170c-230-160-248-182-238-306 16-200 130-514 180-500 25 9 40 63 33 121-7 58 6 100 30 100a1800 1800 0 01 327 286c158 157 321 313 364 347 43 34 212 210 374 393 162 182 345 380 405 440 60 60 97 116 77 116zm1000 229a1075 1075 0 00-26 234v129l-120-70a2350 2350 0 01-363-320c-380-400-860-880-1040-1032a541 541 0 01-160-191c0-28 39 0 84 53a886 886 0 00 247 189 5008 5008 0 01 687 610 3372 3372 0 00 560 500 153 153 0 00 40-115c0-70-65-140-254-274a2089 2089 0 01-282-226c-31-51 232 100 489 282 153 110 170 137 145 230zm444 730a250 250 0 01-30-148c0-107-35-158-200-295a851 851 0 01-200-200c0-81 129-30 280 110a379 379 0 01 166 352c6 109-4 192-20 180Zm162-256a368 368 0 00-42-220c-28-34 59 20 194 124a1677 1677 0 01 246 206 200 200 0 01-193 170c-156 0-224-92-210-280zm386 478c-32 84-70 118-135 118-86 0-84-6 38-117 70-64 132-117 135-118a549 549 0 01-43 115Zm447 16c-63 120-156 130-274 34-79-65-80-75-22-158a174 174 0 01 276-33c63 50 65 65 15 157zm437 340c-66 84-87 89-178 47-126-57-131-137-17-244 75-70 100-73 165-27a262 262 0 01 92 92c3 22-25 82-67 133zm2644-510c-173 80-515 227-758 327s-514 216-600 260c-278 140-369 116-1000-285l-1116-700c-297-187-814-508-1150-724l-748-480c-737-468-714-450-700-556 10-88 186-200 1308-863 713-420 1333-770 1378-778l110-22a372 372 0 01 123 32c81 30 834 563 1621 1145l1400 1017c660 480 1218 900 1232 940 45 120-81 230-436 390-189 90-488 227-664 307zm300-6a1000 1000 0 01 333-110 1610 1610 0 01 315 170c239 154 261 177 166 178a812 812 0 01-322-141 736 736 0 00-255-128c-23 8 69 89 200 180 222 154 234 169 133 169a1506 1506 0 01-570-318Zm-300 1144c-39-62 47-45 115 23a259 259 0 01 62 80c3 28-147-60-177-103Zm190 3893c10-40 0-64-17-52-17 12-35 0-35-16a424 424 0 00-27-110c-24-68-22-69 49-7a575 575 0 00 227 93 432 432 0 01 387 373 560 560 0 01 0 157 546 546 0 01-65-128 565 565 0 00-357-328c-107-26-94 0 170 310 213 260 287 380 300 490 20 168 0 160-95-13a3581 3581 0 00-315-400c-160-198-233-310-219-361Zm509 1058a885 885 0 01-397-412c-100-226-60-257 86-63a3284 3284 0 00 315 353c230 215 223 285-13 122Zm489 87c-174 0-316-36-316-81 0-45 294-40 376 23 83 63 74 57-60 58zm629 175a1156 1156 0 00-216-75c-126-31-160-60-170-138-10-80 0-100 168-84s180 22 180 120a273 273 0 00 49 159c46 43 45 47-3 19zm845 8c-205 86-253 53-253-172 0-186-70-400-128-400a2252 2252 0 00 32 620c27 87-320-25-386-125-50-75-33-261 27-284 40-16 50-57 33-143s-10-112 24-92c33 20 38 42 28 57a100 100 0 00 22 86c30 43 36 27 26-61-14-114-10-118 144-115 93 0 162 22 164 49l10 106c4 33 20 60 40 60s26-43 16-95c-10-52 0-100 19-117 19-10 30 20 19 80s0 100 26 100 46-40 48-90c0-60 10-70 22-20a233 233 0 01-24 148c-38 70-30 80 85 90 114 12 130 28 141 142 11 114 2 130-128 185zm127-518c20-51 30-53 58-11 27 42 33 40 34 0 0-40 17-50 36-50 40 0 35 100-6 143-40 42-142-16-120-82zm384 400a723 723 0 01-184 55 190 190 0 00-100 39c-34 29-36 27-7-7a342 342 0 00 40-171c0-154 0-155 190-162 137 0 158 6 174 93 16 87 4 107-108 153zm-45-365c30 13 25 20-15 23a90 90 0 01-84-71c-20-76 56-93 117-25 17 18 10 20-18 5-27-16-50-11-50 10a77 77 0 00 57 58zm147-31c0-171-60-181-948-170l-838 10-52 127c-46 110-45 124 6 100a109 109 0 00 60-100c0-53 27-74 100-74 71 0 100 22 100 69 0 47 7 56 33 16 26-40 40-30 64 20 24 60 34 70 60-20 26-84 31-91 34-10v119a1450 1450 0 01-392 36 3432 3432 0 00-469 34c-66 20-77 0-100-200a18090 18090 0 00-65-582c-70-590-159-1688-136-1711 23-23 1217-60 2240-60h826l11 470a14300 14300 0 01-23 1150c-40 773-70 860-295 887-173 25-213 7-213-100zm1242-900a1900 1900 0 01-314 490c-230 278-337 479-282 534 36 36 215-154 383-405l158-237-28 158a910 910 0 01-380 555 810 810 0 00-170 132 87 87 0 01-67 40c-22 0-20-25 14-63 47-57 44-62-25-43-43 13-140 35-216 50a554 554 0 00-190 70c-41 32-42 21 0-60 46-100 169-150 370-150 72 0 89-23 93-130a871 871 0 01 43-230 3189 3189 0 01 500-636c100-60 50-100-76-59a547 547 0 00-346 307l-73 138v-129c0-170 136-308 375-372 128-34 200-78 227-143 70-149 77-16 9 190zm94-400a839 839 0 01-210 137 2363 2363 0 00-300 177c-200 143-200 83-17-105a1000 1000 0 01 558-266c18-2 3 24-25 57zm-1235-1800c73-72 245 0 825 346 781 466 790 490 224 650-232 67-300 100-343 193l-57 110 343-92a3717 3717 0 00 400-130c52-28 63-11 68 100 6 168-90 367-176 367-245 0-683 282-683 439 0 43-15 68-34 57-60-37 0-236 105-348a932 932 0 01 380-200c270-84 376-155 376-251s-646 100-750 232c-66 80-69 69-74-325a1273 1273 0 00-53-468c-40-48-33-54 35-32a481 481 0 00 236-28l154-53-120-60c-120-63-146-63-400 0-390 100-476 49-113-62l300-92-162-73c-147-65-170-66-253-11a663 663 0 00-158 159 329 329 0 01-394 153c-165-25-173-31-115-100a146 146 0 00 36-135c-40-100-113-51-127 90-18 184-100 132-125-77l-20-174h-826v200c0 172-10 200-70 183-60-17-70-57-70-134 0-77-14-106-40-92-22 14-38 0-38-20 0-85-73 0-100 119-35 157-100 150-100-10s-43-228-222-291c-227-80-254-66-132 65a1674 1674 0 01 190 252l76 133h-144a2792 2792 0 01-443-60c-280-57-307-57-432 8-125 70-127 80-56 100a1024 1024 0 00 256 40c150 0 167 10 113 57-53 40-119 382-62 382 18 0 30 76 27 168a1235 1235 0 00 22 267c27 100 27 100-66-13-70-85-162-127-406-186-380-90-373-90-373-17s143 163 332 200a867 867 0 01 515 274 458 458 0 01 50 270c-13 200-30 200-287 8a869 869 0 00-198-113 410 410 0 01-153-100c-69-76-69-76 113-22a1227 1227 0 01 340 180c161 128 200 100 107-66a844 844 0 00-524-330c-252-58-317-140-346-435-13-141-10-184 14-130 23 56 120 100 426 182l387 100-54-111a293 293 0 00-220-153 6132 6132 0 01-280-80 800 800 0 00-206-37c-100 0-120-70-44-164a9900 9900 0 01 1100-706 500 500 0 01 424-45 14312 14312 0 00 2080-47zm838-1465a1100 1100 0 01-670 600 3369 3369 0 01-1194 223c-110-23-116-20-60 40a418 418 0 00 384 46c88-30 91-25 80 160l-13 190-170 10c-200 16-269-30-322-227-35-125-68-157-216-214-184-70-200-120-69-270 54-61 52-67-23-67a142 142 0 01-108-40c-40-76-346-55-493 24a245 245 0 01-285 16c-83-33-135-76-120-100 11-24 3-30-29-10-108 67 205 226 613 310 285 60 394 137 478 335 60 139 41 186-87 207-68 10-80-14-100-184-19-170-30-200-119-208a3200 3200 0 01-1000-380c-345-230-430-372-410-682 10-180 36-267 91-320a4763 4763 0 01 1074-466 1614 1614 0 00 342-117 1211 1211 0 01 956 15 1045 1045 0 00 348 130 3976 3976 0 01 605 191c526 207 628 364 516 772zm-2500 574c-50 50-338 6-305-47a41 41 0 01 56-15 46 46 0 00 60-22c24-40 283-20 328 26 10 10-6 39-35 66-26 27-44 38-22 0 36-65-20-70-80-10zm3243-160c8 0 0 34-26 76-44 83-119 143-119 100a434 434 0 01 147-180zm-509-530-128 60 110-100c120-110 145-120 145-61 3 17-54 62-124 96zm840 1563a2806 2806 0 01-800 38c-24-16-10-38 35-57a2192 2192 0 01 765 20Zm510 692h-138l138-60a1918 1918 0 01 453-128c23 0-40 40-136 93a833 833 0 01-315 95zm500 64-165 22 137-66c244-116 392-154 392-100 0 54-175 119-364 144zm957-20c-250 45-355 44-355 0 0-22 112-37 266-34 260 3 263 4 90 34zm1300 77a2774 2774 0 01-492 29c-386 0-388 0-118-29 417-38 730-38 610 0zm660 107a1033 1033 0 01-236 0c-71-8-23-16 107-16s188 7 129 21zm580-206c-145 100-180 106-435 85-153-13-400-40-551-63a57504 57504 0 00-1000-120c-400-35-907-96-1123-126a40940 40940 0 00-771-100c-520-60-554-70-540-179a8122 8122 0 01 978-1173 591 591 0 01 530-236c45 8 840 120 1770 247 934 130 1870 258 2085 286 570 74 577 90 226 425a12560 12560 0 01-1167 965zm119 175c-124 0-140-10-80-36 100-45 110-45 179 0 43 28 17 37-100 36zm614-183c-113 30-400-13-375-55a631 631 0 01 400 0c44 25 37 38-25 55zm334-208c-263 0-461-38-433-83 28-45 190-44 478-10 260 32 230 93-45 93zm713-219c-200 43-910-39-871-100 36-60 278-40 684 20 316 46 327 51 185 80zm580-982a2713 2713 0 01-215 594c-20 24-27 53-16 64 10 11-6 42-37 68-32 26-140 40-422 0-548-66-580-129-50-100l437 24 68-106c38-57 50-93 26-78a1470 1470 0 01-649-100 853 853 0 01 341-25c281 11 320 0 370-68 50-68 45-82-114-100a5510 5510 0 00-350-17c-100 0-175-16-164-33 40-64-100-163-460-334a3576 3576 0 00-1090-310 1419 1419 0 00 292 144c715 305 750 321 600 300a3918 3918 0 01-500-160c-410-153-453-160-518-80-35 41-34 60 0 77 34 18-29 13-127 0a1577 1577 0 01-385-132c-180-88-219-125-242-237-32-159-93-206-250-192-100 10-120 30-150 175-40 210-100 231-495 172l-675-100c-206-30-326-56-266-58 100 0 107-17 107-160 0-117-16-159-60-159-110 0-333 113-333 168 0 30-67 85-148 123-80 38-126 48-100 20 100-100 60-165-92-140-200 31-252 90-252 268 0 126-18 162-100 200-82 38-155 28-437-63-336-110-435-100-386 24 16 53 126 88 346 124a2664 2664 0 00 352 43c50-13 32 60-27 108a1025 1025 0 01-600 30l-240-30-149 160c-250 262-250 261 110 300 390 35 416 32 535-76l94-85-54 90a655 655 0 01-185 173c-115 73-166 80-489 54a1408 1408 0 00-473 17c-63 23-122 35-132 25a2460 2460 0 01 300-385 3245 3245 0 00 400-538 473 473 0 01 163-206c110-47 1747-483 1956-520a2626 2626 0 01 847 32c200 33 474 78 624 100a1746 1746 0 01 414 114 8869 8869 0 00 1892 375c206 31 471 75 590 100 120 25 280 51 355 63 177 28 251 117 217 272zM5995 15000a721 721 0 00 200 0c48-9 0-17-109-17s-150 9-90 17zm9419-1785-157 48 248 84c268 92 334 64 245-100-48-95-110-100-336-32zM7200 14720c100-11 272-39 390-61a2642 2642 0 01 400-40c104 0 190-20 190-40 0-50-420-50-545 0a4319 4319 0 01-570 90 11118 11118 0 00-1164 160c-30 30 164 14 646-40zm9993-1920c-52 13-70 59-70 189 0 100-20 177-48 187-29 10 44 29 160 44a681 681 0 00 245 0c55-34 46-317-11-363a363 363 0 00-276-57Zm1830 377c-113-25-206-32-206-16a780 780 0 00 184 174c193 150 266 144 243-20-11-76-50-100-220-138zm-1177-290c-115 0-130 13-154 137-35 191-6 242 158 273 185 35 219 10 219-169-10-178-67-240-234-240zm3737 792c-268-135-1000-300-894-207a4064 4064 0 00 392 193c570 255 1006 268 502 14zM9530 12532c22 0 28-19 13-43a1461 1461 0 00-429-271c-22 0 40 53 142 116a1047 1047 0 01 209 157 89 89 0 00 65 41zm-1545 1461c63-40 43-56-245-190-271-127-300-112-124 68 151 154 261 190 369 122zm6927-1893a869 869 0 00-273 165c-132 100-198 172-168 180 29 10 107-34 175-100a2251 2251 0 01 221-181c70-46 80-64 33-64Zm-5941 652-129-152a940 940 0 00-166-170c-20-5-87 52-148 130a474 474 0 00-100 153 2100 2100 0 00 278 28zm-3361 2100c28-45-91-43-200 0a593 593 0 01-178 37c-120-10-225 55-183 96 16 18 42 13 58-11a579 579 0 01 253-71 619 619 0 00 250-62Zm-385 228a433 433 0 00 157 0c38-10 0-18-89-17-90 0-117 7-68 17zm6221-3668a2558 2558 0 01-410 73l-388 50 280 85c390 120 425 115 500-72 58-154 62-180 18-136zm-1290 1416c-17-156-27-178-48-100a453 453 0 00 93 400l78 100-50-100a1070 1070 0 01-73-300zm6694 1849c100 16 120 11 77-17s-267-59-231-24a549 549 0 00 154 41zm-4840-1983c35-75 74-116 89-93 30 52-6 164-85 256-80 92 10 89 110-10 187-187-8-421-263-315a250 250 0 00-154 262c43 111 233 48 303-100zm-83-122c20 0 6 52-31 117s-73 100-80 81c-16-50 66-198 110-198zm1784-72c-34-11-41 26-24 128 21 129 7 160-150 322a1575 1575 0 01-731 406 3020 3020 0 00-414 82 3172 3172 0 01-393 82c-38 0-83 48-106 114-23 66-70 116-108 116-58 0-55-15 24-100 106-112 80-132-40-30-157 135-100 176 207 154a5512 5512 0 00 1040-184 1086 1086 0 00 509-413 1242 1242 0 01 174-236c76-57 79-57 79 11 0 71 7 67 39 17 83-115 10-415-106-457zm-1577 1085a644 644 0 00-111 108c-34 42-50 50-33 17 49-100 100-157 149-157 29 4 27 15-5 35zm406 9a454 454 0 00-268 100c-37 66-110 83-110 24a200 200 0 01 60-95c45-45 47-64 10-79s13-22 89-25a3200 3200 0 00 394-58c295-60 354-68 354-41a1218 1218 0 01-530 180Zm-1723-344c-200-89-543-410-544-510a281 281 0 00-40-129c-27-43-37-15-37 107a241 241 0 00 118 254c100 74 116 108 100 200-16 92-14 110 87 112 200 6 459 76 275 76-36 0-65 17-65 37 0 57 70 87 100 42 30-45 100-54 89-10-6 16 8 38 29 50 20 10 45-20 52-70 4-70-30-108-164-168zm3000 2110a192 192 0 01-50 120c-26 26 10 20 82-17a1944 1944 0 01 414-115c200-35 259-58 200-78a3465 3465 0 01-170-64 412 412 0 00-372 26c-55 32-104 90-104 128zm-3384-547-135 72 135 27a2500 2500 0 01 300 90 448 448 0 00 187 43c30-30-243-308-300-306a667 667 0 00-187 74zm2546 149a1018 1018 0 01 343-384c70-30 66-33-36-33a407 407 0 00-178 37 1048 1048 0 01-167 75c-100 35-108 58-108 217 0 197 75 243 146 88zm3030-957c166-40 179-55 160-178-8-63 0-114 17-114a36 36 0 00 33-40c0-67-61-42-166 70a638 638 0 00-128 200c-25 80-18 86 84 62zm1607 732c-107-46-138-46-138 0 0 22 49 38 109 37 96-3 99-7 29-37zm190 63a1980 1980 0 00 347 30 4073 4073 0 01 467 38l138 26-138-55a2533 2533 0 00-814-40Zm2602-680a264 264 0 00-100-52 1987 1987 0 00-300 229c-431 370-562 500-562 570 0 45 22 57 69 40 120-44 287-175 265-210-22-35 52-95 119-100a1720 1720 0 00 309-215c249-192 266-215 200-262zm-4027 617a80 80 0 00-60 32 3600 3600 0 00 986 144c258 15 280 12 132-18a19065 19065 0 00-1058-158zm-723-210a94 94 0 00-70 85c0 40 13 50 30 23a388 388 0 01 108-87c80-48 56-48-68-20zm606 18a728 728 0 00-414-13c-10 15 92 32 225 38 149 6 225-4 189-25zm230-860c0-33-113-5-146 38a587 587 0 00-67 128c-22 62 0 54 93-37a900 900 0 00 120-128zm-10800-3207c-12-32-22-34-23-7-1 27-70 65-151 88l-148 42 158-20c182-20 192-30 164-100ZM19400 9316l-130-16 157 75 158 74-118 18-118 19 113 6c100 5 380-125 380-177 0-10-15-10-30 0-68 40-215-60-267-180-30-70-56-106-57-79a300 300 0 01-87 135c-58 68-65 88-23 72a100 100 0 01 105 25c32 40 17 48-83 38Zm-406 303c109 40 147 40 118 0A140 140 0 00 19000 9580c-80 3-82 4-6 37Zm-5026 270a4514 4514 0 00-510-60c-406-28-410-27-591 90-281 180-275 200 56 200 160 0 400 10 524 23a469 469 0 00 426-106c186-122 189-128 95-153zm-1076 330c-335-20-363-17-500 80-100 68-148 130-148 200a538 538 0 01-24 155c-16 43-7 57 30 43 37-13 81 30 120 100 62 110 85 119 283 119a420 420 0 00 336-100 392 392 0 00 120-138 1110 1110 0 00-388-36c-310 0-394-13-412-60-26-66 0-70 447-55 479 16 500 13 670-113l164-120-171-23a5137 5137 0 00-527-53zm5433-108c-70-50-108-30-78 40a448 448 0 01 30 117 80 80 0 00 49 65c57 22 56-178-1-220zm360-245c-13-34-6-60 15-60 21 0 38 35 38 78s19 80 42 80c23 0 30 18 17 40-13 22 109-50 273-162a2972 2972 0 00 300-215 400 400 0 00-132 42c-138 58-435 40-400-25 11-20 12-34 0-34s-30 19-44 40c-14 23 0 50 37 64 37 12 62 39 62 59 0 20-33 20-77 0-107-58-300 26-233 100 67 74 130 66 102-7zM4772 13280c-94 36-130 234-43 234a960 960 0 00 387-238c0-47-225-45-344 3zm10915-1435a330 330 0 00-138-170 1026 1026 0 00-520-124c-36 23-26 32 35 33 60 0 92 20 100 45 8 25 70 47 137 49 67 2 115 17 106 30-10 15 7 35 34 45 27 10 35 33 18 50-26 19-56 10-75-17-17-28-42-37-57-13s42 66 123 100a733 733 0 01 224 142c88 100 177 114 100 18a684 684 0 01-95-188zm2449-1664a75 75 0 00 16 87c60 43 86-4 45-78-34-59-40-59-61-4zm533-168c-41 0-50 11-20 23 30 12 40 35 29 54-12 20-91 10-177-22-86-30-156-39-156-16s52 50 117 62c65 13 108 38 100 56a60 60 0 01-70 13 38 38 0 00-53 40c0 62 20 55 194-65 120-85 138-150 36-145zm-6003 1690a2280 2280 0 00 357-109l300-108-236-25c-364-40-571-38-571 0 2 88 97 240 150 240zm2834-770a400 400 0 00-165 64c-140 75-158 76-280 20-166-80-184-79-405 22a1137 1137 0 01-230 86c-25 0-36 24-25 52 10 28-10 47-100 28-90-19-123-9-123 25s50 43 183 25c100-14 210-26 246-28 35-2 45-10-15-40s-64-35 28-22c60 8 100 0 88-17-27-45 114-116 228-116a330 330 0 01 170 58c74 56 74 58-12 60-50 0-90 20-90 42 0 23-60 66-134 100-166 70-230 150-90 115 60-15 110-6 128 24 18 30 14 38-15 20-30-14-76 4-113 44-62 61-60 64 30 36a383 383 0 00 156-97 853 853 0 01 216-150c142-69 364-304 324-342zm-1423 153a355 355 0 00-290 15 629 629 0 01-462-10c-55-20-67-17-40 12a1934 1934 0 00 606 224c12-12 0-39-36-60-36-20-25-33 60-22 65 8 100 6 67 0s-40-30 0-75c41-45 56-44 74-15 18 30 60 30 116 10 76-34 65-43-95-79zm-5900 2154c-16 0-30 60-30 136a351 351 0 00 15 138c17 0 327-107 419-144 47-19-274-123-404-130zm5436-2207c45 0 47-10 8-58a132 132 0 01-20-118c30-79 16-76-63 11-50 60-54 86-18 122a171 171 0 00 103 47zm3236-4143a2429 2429 0 00 646-310c-38-62-150-36-371 86-220 120-400 263-275 220zm1178 3395c-44 0-70 18-56 40a100 100 0 00 80 40c32 0 57-19 57-40 0-20-36-40-81-40zM14910 9190l-325 121a1162 1162 0 01-669 100l-354-24-208 144a882 882 0 00-200 156c7 7 240 31 517 53l500 41 370-277a3792 3792 0 00 380-295c10-15 4-20 0-19zm2590-1407c-167-40-184-38-133 13a255 255 0 00 190 44c135-12 133-14-57-57Zm-6252-413c400-358 638-423 1013-271a800 800 0 01 293 192c70 94 79 100 100 30a317 317 0 00-36-207c-51-107-120-160-325-253a776 776 0 00-675-57 683 683 0 00-482 584c4 76 10 76 112-18Zm264-370a791 791 0 01 961 77c51 60 44 60-100 0-84-34-190-80-238-100a806 806 0 00-555 54 2143 2143 0 01-226 152c-222 130-102-12 158-183Zm3566 2009a837 837 0 00-366-51l-365-11-216 184-216 190 217-20a3111 3111 0 00 946-282zm1729 2430a235 235 0 00-136 59c-28 35-55 37-100 6-40-31-40-40 10-20 70 19 80 0 80-40s-26-56-77-43c-51 13-70 0-55-35 14-35 9-54-1-54-10 0-23 15-23 34a509 509 0 01-160 144c-114 80-144 120-107 143 37 24 34 32 6 33-28 1-42 70-40 180l6 178 153-169a722 722 0 01 180-162 782 782 0 00 200-129c148-116 160-134 77-125zm-2183-2604a1078 1078 0 00 754-53c463-336 663-510 577-500a7960 7960 0 00-524 237c-400 188-522 230-650 219a666 666 0 00-250 26c-90 36-80 44 100 70Zm3198-553a744 744 0 00 150-122c38-60 6-42-140 86-144 128-132 120-10 36Zm-47 2297c-78-24-150-30-161-11-24 40 145 87 238 68 38-8 6-30-77-57zM12100 7257c-100 0-32 50 135 100 80 24 216 75 300 112l158 68-114-120a556 556 0 00-230-146 464 464 0 01-192-100 483 483 0 00-448-36c-124 54-436 344-405 376 16 16 126-44 245-134 226-170 534-258 590-167 18 29 0 47-40 47Zm5810 3243c-86-23-156-28-156-12a529 529 0 00 300 68c6-10-54-35-144-56Zm-743 405c14 81-8 100-67 49-59-51-62-43-49 24 20 100 152 130 152 39 0-38 18-53 44-37s38 7 27-24c-19-56-116-104-107-51zm406-217c-11 18 21 33 72 33a225 225 0 01 134 40c28 29 41 24 41-15 0-62-214-112-247-58zm-724 412c-44-12-89 0-100 15-11 15 23 35 79 35 119 4 129-18 21-50"/></svg>
