<?xml version="1.0" encoding="UTF-8" standalone="no"?>
<svg
   id="Livello_1"
   data-name="Livello 1"
   viewBox="0 0 24 24"
   version="1.1"
   width="24"
   height="24"
   xmlns="http://www.w3.org/2000/svg"
   xmlns:svg="http://www.w3.org/2000/svg">
  <path id="Colore_riempimento_1" fill="#44739e" data-name="Colore riempimento 1" class="cls-1"
     d="M 9.792,4.892 A 6.43033,6.43033 0 0 1 6.49532,1.3675 C 6.42279,1.15563 6.50403,1.0865 6.77255,1.04539 a 3.11246,3.11246 0 0 1 1.40864,0.16129 6.7457,6.7457 0 0 1 0.724,0.26794 1.50531,1.50531 0 0 0 1.3035,-0.02691 c 0.34213,-0.16124 0.675,-0.33514 1.02912,-0.48009 a 2.17986,2.17986 0 0 1 1.74019,-0.0141 5.25385,5.25385 0 0 0 3.37814,0.26487 7.18411,7.18411 0 0 1 0.85488,-0.14078 c 0.51624,-0.05156 0.66142,0.08435 0.49458,0.44069 a 7.3887,7.3887 0 0 1 -2.78135,3.161 c -0.07491,0.048 -0.13666,0.10747 -0.27742,0.21972 a 2.68725,2.68725 0 0 1 0.31665,0.15712 18.15819,18.15819 0 0 1 6.00614,6.18439 8.48529,8.48529 0 0 1 0.95322,3.43583 c 0.08259,1.10522 0.14248,2.213 0.14022,3.31962 a 5.44013,5.44013 0 0 1 -0.65612,2.60749 c -0.73644,1.36444 -2.1488,2.06491 -4.04171,2.28172 a 11.46879,11.46879 0 0 1 -1.278,0.05567 c -2.678,0.0047 -5.35619,0.013 -8.03408,-0.0021 A 6.53492,6.53492 0 0 1 4.27515,21.91334 3.97446,3.97446 0 0 1 2.68581,19.51689 11.07062,11.07062 0 0 1 2.51638,15.578 20.05784,20.05784 0 0 1 2.87276,12.97654 10.56879,10.56879 0 0 1 5.759,8.22362 21.63236,21.63236 0 0 1 9.70919,4.96227 0.93078,0.93078 0 0 0 9.792,4.892 Z m 2.63429,4.96753 a 13.84086,13.84086 0 0 0 0.43418,-4.7993 C 12.85,4.89892 12.745,4.845 12.53575,4.8527 A 4.85022,4.85022 0 0 1 11.72734,4.84946 2.09814,2.09814 0 0 0 9.83643,5.51932 10.62907,10.62907 0 0 0 6.48014,12.38793 c -0.03088,0.31046 -0.00421,0.6241 -0.00421,1.00448 0.03368,-0.10942 0.04927,-0.1545 0.06135,-0.2001 A 17.07348,17.07348 0 0 1 8.3503,8.775 10.393,10.393 0 0 1 11.55162,5.265 C 11.6378,5.20779 11.73291,5.15806 11.82386,5.10485 l 0.11986,0.0227 z M 12.95051,4.887 C 17.003,8.3469 18.58155,12.5241 19.43,16.92325 A 3.73167,3.73167 0 0 0 19.44,16.3969 C 19.37485,15.51738 19.34507,14.63497 19.22585,13.75941 A 13.19237,13.19237 0 0 0 16.95635,7.89341 11.59172,11.59172 0 0 0 14.34524,5.2163 1.60024,1.60024 0 0 0 12.95051,4.887 Z" />
</svg>
