<?xml version="1.0" encoding="UTF-8" standalone="no"?>
<svg
   id="Livello_1"
   data-name="Livello 1"
   viewBox="0 0 24 24"
   version="1.1"
   width="24"
   height="24"
   xmlns="http://www.w3.org/2000/svg"
   xmlns:svg="http://www.w3.org/2000/svg">
  <path id="Colore_riempimento_1" fill="#44739e" data-name="Colore riempimento 1" class="cls-1"
     d="m 7.0878906,0.18945312 c -0.966529,0.04914 -1.3927012,0.41826641 -1.3945312,1.19726568 -0.00458,1.934878 -0.038875,3.8707694 0.015625,5.8046874 a 2.89423,2.89423 0 0 1 -0.796875,2.046875 C 4.31583,9.9254206 3.7068132,10.606089 3.1210938,11.298828 a 2.11056,2.11056 0 0 0 -0.6015626,1.38086 c 0.01694,3.137596 0.023394,6.274602 -0.00391,9.412109 -0.00599,0.687709 0.3925795,1.102388 1.1367188,1.304687 a 9.13848,9.13848 0 0 0 2,0.361328 c 1.3761886,0.05499 2.7600132,0.03571 4.1386718,0.0059 a 7.77832,7.77832 0 0 0 1.5410152,-0.216797 c 1.155709,-0.26363 1.532593,-0.683753 1.533203,-1.638672 0.0019,-2.980777 -0.01527,-5.962782 0.01563,-8.943359 a 2.553,2.553 0 0 0 -0.59375,-1.701172 c -0.2126,-0.26357 -0.431398,-0.52317 -0.654298,-0.78129 C 11.168483,9.9447924 10.688885,9.4139332 10.234375,8.8710938 A 2.18151,2.18151 0 0 1 9.6972656,7.390625 c 0.01656,-0.993409 0.00586,-1.9868797 0.00586,-2.9804688 -5e-5,-1.0197389 0.00417,-2.0388947 -0.00195,-3.0585937 C 9.6967819,0.61750323 9.2779766,0.24704619 8.3671875,0.19140625 A 11.499,11.499 0 0 0 7.0878906,0.18945312 Z M 8.0117188,9.6972656 c 0.1362098,0.00178 0.2784071,0.1354572 0.5292968,0.4042964 0.5677395,0.60831 1.07699,1.255579 1.6933594,1.830079 a 2.34905,2.34905 0 0 1 0.814453,2.013671 c -0.06959,1.043619 -0.01758,2.092083 -0.01758,3.138672 -7e-5,1.229769 -0.0041,2.459705 0.002,3.689454 0.0042,0.860509 -0.127814,0.668223 -0.902344,0.871093 a 4.13943,4.13943 0 0 1 -0.9765621,0.05273 c -0.7560193,0.0064 -1.513432,0.003 -2.2695313,0.002 -0.1971598,-2.5e-4 -0.3951139,0.0091 -0.5898437,-0.0098 -1.030899,-0.09982 -1.1417782,-0.199501 -1.1425781,-1.03125 -0.0023,-2.407147 0.00661,-4.813615 -0.00977,-7.220703 A 1.59429,1.59429 0 0 1 5.6035156,12.275391 C 6.265615,11.560191 6.8786488,10.814857 7.5175781,10.085938 7.7460279,9.8253078 7.8755089,9.6954831 8.0117188,9.6972656 Z M 6.2714844,10.058594 c -0.09218,0.13702 -0.1755939,0.277796 -0.2773438,0.410156 -0.3069997,0.39944 -0.6440946,0.785803 -0.9277344,1.195312 a 3.55092,3.55092 0 0 0 -0.7285156,2.078126 c 0.01493,1.147328 0.025376,2.29691 -0.021484,3.443359 -0.04873,1.192139 -0.1670457,2.381814 -0.2597656,3.632812 C 4.008431,20.733589 3.983212,20.71098 3.982422,20.6875 3.904322,18.345692 3.8585112,16.002497 3.7382813,13.662109 a 3.50207,3.50207 0 0 1 1.2480469,-2.716797 4.481,4.481 0 0 1 1.2851562,-0.886718 z m 11.7460936,3.5 a 12.07485,12.07485 0 0 0 -1.707031,0.107422 c -1.400639,0.168159 -1.947594,0.936923 -1.933594,1.820312 0.01495,0.940569 0.0038,1.881547 0.0039,2.822266 7e-5,0.992979 0.0086,1.987579 -0.0039,2.980468 -0.0095,0.75492 0.480767,1.223958 1.316406,1.492188 a 3.47142,3.47142 0 0 0 0.945313,0.197266 c 0.950749,0.02472 1.909576,0.06138 2.853516,-0.0078 1.518968,-0.11138 2.210796,-0.758208 2.216796,-1.966797 0.0089,-1.803018 0.01256,-3.605205 -0.002,-5.408203 -0.0089,-1.100329 -0.652139,-1.688527 -1.986328,-1.904297 a 12.07485,12.07485 0 0 0 -1.703125,-0.132812 z m 0.792969,0.361328 a 14.01393,14.01393 0 0 1 1.490234,0.351562 c 0.25093,0.08218 0.263882,0.31681 0.01367,0.4375 a 7.91842,7.91842 0 0 1 -0.935547,0.314454 7.20415,7.20415 0 0 1 -0.835937,-0.580079 c -0.06567,-0.05988 0.05463,-0.259432 0.111328,-0.388671 0.02419,-0.05514 0.11918,-0.142496 0.15625,-0.134766 z m -1.634766,0.01367 c 0.15306,-0.01265 0.343268,0.247284 0.460938,0.339844 -0.17287,0.252589 -0.310622,0.431393 -0.419922,0.621093 -0.07318,0.127 -0.12603,0.156718 -0.537109,0.08594 a 5.49228,5.49228 0 0 1 -1.015626,-0.232422 c -0.343869,-0.13165 -0.340055,-0.405811 0.02149,-0.519531 a 6.92664,6.92664 0 0 1 1.490234,-0.294922 z m -2.003906,1.734375 c 0.06563,0.09934 0.1845,0.198318 0.1875,0.298828 0.01783,0.601309 0.0098,1.203048 0.0098,1.804687 h -0.002 c -10e-7,0.62779 0.0047,1.255214 -0.0078,1.882813 -0.0017,0.08473 -0.09353,0.167853 -0.144531,0.251953 -0.06457,-0.07276 -0.181947,-0.14411 -0.185547,-0.21875 -0.02016,-0.41794 -0.01536,-0.835407 -0.01563,-1.253906 -5.4e-4,-0.810909 -0.0037,-1.622815 0.0098,-2.433594 0.0018,-0.11123 0.09644,-0.221331 0.148437,-0.332031 z" />
</svg>
