<?xml version="1.0" encoding="UTF-8"?>
<svg width="24px" fill="#44739e" height="24px" viewBox="0 0 24 24" version="1.1" xmlns="http://www.w3.org/2000/svg" xmlns:xlink="http://www.w3.org/1999/xlink">
            <path d="m 13.263,10.516 0.324,-0.042 0.161,0.25 -0.203,0.23 z m 1.608,5.142 H 14.4 V 16.8 h 0.473 z M 14.696,16.59 H 14.49 v -0.726 h 0.21 z m 0.175,-5.54 h -0.4 A 0.154,0.154 0 0 1 14.31,10.905 v -0.2 a 0.194,0.194 0 0 1 -0.105,-0.1 l -0.151,0.078 a 0.172,0.172 0 0 1 -0.22,-0.053 l -0.12,-0.188 a 0.135,0.135 0 0 1 0.059,-0.2 l 0.653,-0.341 a 0.183,0.183 0 0 1 0.233,0.057 l 0.111,0.173 a 0.145,0.145 0 0 1 -0.062,0.209 l -0.159,0.083 a 0.159,0.159 0 0 1 0.043,0.109 0.181,0.181 0 0 1 -0.121,0.165 v 0.2 h 0.4 z M 3.3653036,19.019998 h -0.042 v -0.064 l 0.112,-0.024 0.112,0.024 v 0.064 h -0.042 v 2.937 h -0.14 z M 2.149,21.294 a 3.852,3.852 0 0 1 0.125,0.559 v 0.109 L 2,21.95 v -1.276 c 0,0.011 0,0.024 0.007,0.035 a 5.683,5.683 0 0 0 0.142,0.585 z M 2.133,5.21 a 0.513,0.513 0 0 0 0.022,0.24 c 0.021,0.023 0.037,0 0.037,-0.055 a 0.088,0.088 0 0 1 0.076,-0.1 c 0.077,0 0.206,0.412 0.168,0.538 C 2.425,5.87 2.464,5.933 2.523,5.96 2.69,6.054 2.7,6.242 2.535,6.207 2.411,6.18 2.408,6.185 2.478,6.298 2.573,6.45 2.572,6.479 2.469,6.598 2.391,6.686 2.393,6.698 2.495,6.779 a 0.3,0.3 0 0 1 0.11,0.2 0.218,0.218 0 0 0 0.1,0.169 c 0.2,0.12 0.115,0.928 -0.1,0.928 -0.028,0 -0.049,0.045 -0.047,0.1 0.002,0.055 0.015,0.072 0.03,0.029 A 0.115,0.115 0 0 1 2.688,8.133 0.082,0.082 0 0 0 2.761,8.044 0.14,0.14 0 0 1 2.833,7.925 0.122,0.122 0 0 0 2.879,7.782 C 2.849,7.655 2.961,7.629 3.06,7.74 3.159,7.851 3.138,7.978 3.032,7.94 2.971,7.916 2.979,7.94 3.059,8.007 a 0.622,0.622 0 0 1 0.145,0.66 C 3.134,8.779 3.135,8.808 3.214,8.957 3.284,9.09 3.288,9.133 3.235,9.17 3.182,9.207 3.185,9.23 3.246,9.287 a 0.9,0.9 0 0 1 -0.06,0.74 c -0.09,0.08 -0.007,0.247 0.123,0.247 a 0.08,0.08 0 0 1 0.071,0.087 c 0,0.054 -0.048,0.087 -0.127,0.087 -0.079,0 -0.119,0.025 -0.1,0.08 a 0.109,0.109 0 0 1 -0.026,0.119 c -0.037,0.025 -0.034,0.074 0.009,0.153 0.053,0.1 0.048,0.129 -0.03,0.2 -0.078,0.071 -0.084,0.094 -0.026,0.2 0.058,0.106 0.053,0.133 0.007,0.165 a 0.194,0.194 0 0 0 -0.051,0.157 c 0.005,0.065 -0.019,0.109 -0.055,0.1 -0.036,-0.009 -0.065,0.008 -0.065,0.034 0,0.1 0.068,0.116 0.176,0.037 0.108,-0.079 0.128,-0.072 0.236,0.013 0.108,0.085 0.123,0.1 0.04,-0.036 -0.1,-0.156 -0.067,-0.293 0.065,-0.293 0.1,0 0.2,0.394 0.131,0.513 a 0.33,0.33 0 0 0 0.03,0.2 0.35,0.35 0 0 1 0.009,0.276 0.343,0.343 0 0 0 0.022,0.29 0.822,0.822 0 0 1 -0.049,0.659 c -0.033,0.023 -0.028,0.053 0.015,0.083 0.1,0.069 -0.037,0.228 -0.2,0.228 -0.1,0 -0.12,0.023 -0.1,0.091 a 0.7,0.7 0 0 1 0.032,0.185 c 0,0.078 0.01,0.076 0.069,-0.014 0.13,-0.2 0.227,-0.072 0.227,0.3 0,0.338 -0.134,0.6 -0.311,0.6 -0.033,0 -0.008,0.041 0.055,0.09 0.158,0.125 0.143,0.2 -0.04,0.2 -0.161,0 -0.194,0.05 -0.1,0.152 0.036,0.041 0.019,0.108 -0.055,0.213 a 0.54,0.54 0 0 0 -0.092,0.473 c 0.013,0.089 -0.012,0.115 -0.112,0.115 -0.1,0 -0.258,0.091 -0.258,0.162 0,0.013 0.058,0.012 0.129,0 0.175,-0.037 0.176,0.169 0,0.365 a 0.3,0.3 0 0 0 -0.1,0.228 c 0.038,0.112 0.122,0.111 0.122,0 A 0.081,0.081 0 0 1 2.931,16.7 c 0.093,0 0.257,0.372 0.216,0.49 -0.018,0.054 0,0.088 0.046,0.088 a 0.082,0.082 0 0 1 0.076,0.086 0.1,0.1 0 0 1 -0.1,0.087 c -0.109,0 -0.139,0.084 -0.052,0.144 0.087,0.06 0.054,0.2 -0.068,0.234 -0.1,0.028 -0.115,0.063 -0.1,0.211 0.022,0.17 0.017,0.176 -0.138,0.151 -0.089,-0.015 -0.162,0 -0.162,0.021 0,0.021 0.059,0.048 0.131,0.048 0.148,0 0.23,0.159 0.122,0.236 -0.055,0.038 -0.046,0.051 0.038,0.052 a 0.171,0.171 0 0 1 0.145,0.237 0.128,0.128 0 0 1 -0.1,0.052 c -0.04,0 -0.074,0.051 -0.074,0.113 a 0.2,0.2 0 0 1 -0.046,0.143 0.529,0.529 0 0 0 -0.079,0.235 c -0.026,0.156 -0.06,0.2 -0.143,0.2 -0.106,0 -0.106,0 -0.014,0.117 0.126,0.156 0.027,0.295 -0.131,0.184 -0.158,-0.111 -0.228,-0.087 -0.132,0.02 0.108,0.122 0.1,0.161 -0.034,0.228 a 0.936,0.936 0 0 0 -0.328,0.649 c 0,-0.011 -0.005,-0.024 -0.007,-0.035 V 4.92 a 0.259,0.259 0 0 1 0.136,0.29 z m 4.9763036,13.809998 h -0.041 v -0.064 l 0.111,-0.024 0.112,0.024 v 0.064 h -0.042 v 2.937 h -0.14 z m -0.083,0.126 h -3.446 v 2.811 h 3.446 z m -2.361,0.543 h -0.892 v -0.267 h 0.892 z m 0,0.328 h -0.892 v -0.2 h 0.892 z m 0,0.327 h -0.892 v -0.2 h 0.892 z m 0,0.327 h -0.892 v -0.2 h 0.892 z m 0,0.328 h -0.892 v -0.2 h 0.892 z m 0,0.327 h -0.892 v -0.2 h 0.892 z m 0,0.354 h -0.892 v -0.222 h 0.892 z m 1.089,-1.991 h -0.892 v -0.267 h 0.892 z m 0,0.328 h -0.892 v -0.2 h 0.892 z m 0,0.327 h -0.892 v -0.2 h 0.892 z m 0,0.327 h -0.892 v -0.2 h 0.892 z m 0,0.328 h -0.892 v -0.2 h 0.892 z m 0,0.327 h -0.892 v -0.2 h 0.892 z m 0,0.354 h -0.892 v -0.222 h 0.892 z m 1.09,-1.991 h -0.892 v -0.267 h 0.892 z m 0,0.328 h -0.892 v -0.2 h 0.892 z m 0,0.327 h -0.892 v -0.2 h 0.892 z m 0,0.327 h -0.892 v -0.2 h 0.892 z m 0,0.328 h -0.892 v -0.2 h 0.892 z m 0,0.327 h -0.892 v -0.2 h 0.892 z m 0,0.354 h -0.892 v -0.222 h 0.892 z m 4.0240004,-2.66 h -0.042 v -0.064 l 0.112,-0.024 0.112,0.024 v 0.064 h -0.042 v 2.937 h -0.14 z m -0.083,0.126 H 7.3393036 v 2.811 h 3.4460004 z m -2.3620004,0.543 h -0.892 v -0.267 h 0.892 z m 0,0.328 h -0.892 v -0.2 h 0.892 z m 0,0.327 h -0.892 v -0.2 h 0.892 z m 0,0.327 h -0.892 v -0.2 h 0.892 z m 0,0.328 h -0.892 v -0.2 h 0.892 z m 0,0.327 h -0.892 v -0.2 h 0.892 z m 0,0.354 h -0.892 v -0.222 h 0.892 z m 1.089,-1.991 h -0.891 v -0.267 h 0.891 z m 0,0.328 h -0.891 v -0.2 h 0.891 z m 0,0.327 h -0.891 v -0.2 h 0.891 z m 0,0.327 h -0.891 v -0.2 h 0.891 z m 0,0.328 h -0.891 v -0.2 h 0.891 z m 0,0.327 h -0.891 v -0.2 h 0.891 z m 0,0.354 h -0.891 v -0.222 h 0.891 z m 1.0900004,-1.991 H 9.7073036 v -0.267 h 0.9000004 z m 0,0.328 H 9.7073036 v -0.2 h 0.9000004 z m 0,0.327 H 9.7073036 v -0.2 h 0.9000004 z m 0,0.327 H 9.7073036 v -0.2 h 0.9000004 z m 0,0.328 H 9.7073036 v -0.2 h 0.9000004 z m 0,0.327 H 9.7073036 v -0.2 h 0.9000004 z m 0,0.354 H 9.7073036 v -0.222 h 0.9000004 z m 4.024,-2.66 h -0.042 v -0.064 l 0.112,-0.024 0.112,0.024 v 0.064 h -0.042 v 2.937 h -0.14 z m -0.084,0.126 h -3.446 v 2.811 h 3.446 z m -2.361,0.543 h -0.892 v -0.267 h 0.892 z m 0,0.328 h -0.892 v -0.2 h 0.892 z m 0,0.327 h -0.892 v -0.2 h 0.892 z m 0,0.327 h -0.892 v -0.2 h 0.892 z m 0,0.328 h -0.892 v -0.2 h 0.892 z m 0,0.327 h -0.892 v -0.2 h 0.892 z m 0,0.354 h -0.892 v -0.222 h 0.892 z m 1.089,-1.991 h -0.892 v -0.267 h 0.892 z m 0,0.328 h -0.892 v -0.2 h 0.892 z m 0,0.327 h -0.892 v -0.2 h 0.892 z m 0,0.327 h -0.892 v -0.2 h 0.892 z m 0,0.328 h -0.892 v -0.2 h 0.892 z m 0,0.327 h -0.892 v -0.2 h 0.892 z m 0,0.354 h -0.892 v -0.222 h 0.892 z m 1.09,-1.991 h -0.892 v -0.267 h 0.892 z m 0,0.328 h -0.892 v -0.2 h 0.892 z m 0,0.327 h -0.892 v -0.2 h 0.892 z m 0,0.327 h -0.892 v -0.2 h 0.892 z m 0,0.328 h -0.892 v -0.2 h 0.892 z m 0,0.327 h -0.892 v -0.2 h 0.892 z m 0,0.354 h -0.892 v -0.222 h 0.892 z m 5.08138,-2.183099 h -0.944 v 2.034 h 0.944 z m -0.216,1.818 h -0.493 v -1.6 h 0.493 z m -0.907,-1.818 h -0.933 v 2.034 h 0.933 z m -0.21,1.819 h -0.5 v -1.6 h 0.5 z M 19.43,15.971 h -2.056 v 3.076 h 2.056 z m -0.163,0.7 H 17.5 v -0.533 h 1.768 z m 0.026,0.2 H 19.268 V 16.844 H 17.5 v 0.027 h -0.025 a 0.249,0.249 0 0 1 0,-0.148 H 17.5 v 0.027 h 1.772 v -0.027 h 0.024 c 0.012,-10e-4 0.012,0.147 -0.003,0.147 z M 14.865,16.8 v 5.16 h 2.108 v -6.63 h 2.879 l -0.006,6.388 V 21.96 H 22 V 2 l -8.432,6.855 h 1.3 v 2 h 0.006 v 0.193 h -0.006 v 4.608 h 0.006 V 16.8 Z m 2.126,-3.932 V 8.982 8.889 h 2.818 v 0.094 l 0.008,3.8 v 0.087 l -2.756,0.006 z m 2.587,-3.76 h -2.353 l 0.016,3.516 h 2.352 z M 19.43,9.967 H 17.374 V 9.208 h 2.056 z m -0.013,0.284 h -0.028 v -0.038 h -1.974 v 0.038 h -0.028 a 0.431,0.431 0 0 1 0,-0.211 h 0.027 v 0.038 h 1.974 V 10.04 h 0.027 a 0.431,0.431 0 0 1 0.002,0.211 z"/>

</svg>