<svg xmlns="http://www.w3.org/2000/svg" viewBox="0 0 24 24"><path fill="#44739e" d="m13.264 10.535.324-.042.161.25-.203.23Zm1.608 5.141h-.471v1.142h.473Zm-.175.932h-.206v-.726h.21Zm.175-5.539h-.4a.154.154 0 0 1-.161-.145v-.2a.2.2 0 0 1-.105-.1l-.151.078a.17.17 0 0 1-.22-.053l-.12-.188a.135.135 0 0 1 .059-.2l.653-.341a.18.18 0 0 1 .233.057l.111.173a.145.145 0 0 1-.062.209l-.159.083a.16.16 0 0 1 .043.109.18.18 0 0 1-.121.165v.2h.4ZM3.368 19.038h-.042v-.064l.112-.024.112.024v.064h-.042v2.937h-.14Zm-1.215 2.274a4 4 0 0 1 .125.559v.109l-.275-.012v-1.276q-.002.017.007.035a6 6 0 0 0 .142.585M2.136 5.23a.5.5 0 0 0 .022.24c.021.023.037 0 .037-.055a.09.09 0 0 1 .076-.1c.077 0 .206.412.168.538-.011.037.028.1.087.127.167.094.177.282.012.247-.124-.027-.127-.022-.057.091.095.152.094.181-.009.3-.078.088-.076.1.026.181a.3.3 0 0 1 .11.2.22.22 0 0 0 .1.169c.2.12.115.928-.1.928-.028 0-.049.045-.047.1s.015.072.03.029a.12.12 0 0 1 .1-.072.08.08 0 0 0 .073-.089.14.14 0 0 1 .072-.119.12.12 0 0 0 .046-.143c-.03-.127.082-.153.181-.042s.078.238-.028.2q-.092-.035.027.067a.62.62 0 0 1 .145.659c-.07.112-.069.141.01.29.07.133.074.176.021.213s-.05.06.011.117a.9.9 0 0 1-.06.74c-.09.08-.007.247.123.247a.08.08 0 0 1 .071.087c0 .054-.048.087-.127.087s-.119.025-.1.08a.11.11 0 0 1-.026.119q-.055.036.009.153c.053.1.048.129-.03.2s-.084.094-.026.2.053.133.007.165a.2.2 0 0 0-.051.157c.005.065-.019.109-.055.1s-.065.008-.065.034c0 .1.068.116.176.037s.128-.072.236.013.123.1.04-.036c-.1-.156-.067-.293.065-.293.1 0 .2.394.131.513a.33.33 0 0 0 .03.2.35.35 0 0 1 .009.276.34.34 0 0 0 .022.29.82.82 0 0 1-.049.659q-.05.036.015.083c.1.069-.037.228-.2.228-.1 0-.12.023-.1.091a.7.7 0 0 1 .032.185c0 .078.01.076.069-.014.13-.2.227-.072.227.3 0 .338-.134.6-.311.6-.033 0-.008.041.055.09.158.125.143.2-.04.2q-.241 0-.1.152c.036.041.019.107-.055.212a.54.54 0 0 0-.092.473c.013.089-.012.115-.112.115s-.258.091-.258.162c0 .013.058.012.129 0 .175-.037.176.169 0 .365a.3.3 0 0 0-.1.228c.038.112.122.111.122 0a.08.08 0 0 1 .074-.086c.093 0 .257.372.216.49-.018.054 0 .088.046.088a.08.08 0 0 1 .076.086.1.1 0 0 1-.1.087c-.109 0-.139.084-.052.144s.054.2-.068.234c-.1.028-.115.063-.1.211.022.17.017.176-.138.151-.089-.015-.162 0-.162.021s.059.048.131.048c.148 0 .23.159.122.236-.055.038-.046.051.038.052a.17.17 0 0 1 .145.237.13.13 0 0 1-.1.052c-.04 0-.074.051-.074.113a.2.2 0 0 1-.046.143.5.5 0 0 0-.079.235c-.026.156-.06.2-.143.2-.106 0-.106 0-.014.117.126.156.027.295-.131.184s-.228-.087-.132.02c.108.122.1.161-.034.228a.94.94 0 0 0-.328.649c0-.011-.005-.024-.007-.035V4.94a.26.26 0 0 1 .136.29m4.975 13.808h-.04v-.064l.11-.024.112.024v.064h-.041v2.937h-.14Zm-.083.126H3.583v2.811h3.445Zm-2.359.543h-.893v-.267h.892Zm0 .328h-.893v-.2h.892Zm0 .327h-.893v-.2h.892Zm0 .327h-.893v-.2h.892Zm0 .328h-.893v-.2h.892Zm0 .327h-.893v-.2h.892Zm0 .354h-.893v-.222h.892Zm1.087-1.991h-.891v-.267h.891Zm0 .328h-.891v-.2h.891Zm0 .327h-.891v-.2h.891Zm0 .327h-.891v-.2h.891Zm0 .328h-.891v-.2h.891Zm0 .327h-.891v-.2h.891Zm0 .354h-.891v-.222h.891Zm1.09-1.991h-.892v-.267h.892Zm0 .328h-.892v-.2h.892Zm0 .327h-.892v-.2h.892Zm0 .327h-.892v-.2h.892Zm0 .328h-.892v-.2h.892Zm0 .327h-.892v-.2h.892Zm0 .354h-.892v-.222h.892Zm4.024-2.66h-.042v-.064l.112-.024.112.024v.064h-.042v2.937h-.14Zm-.083.126H7.342v2.811h3.446Zm-2.362.543h-.892v-.267h.892Zm0 .328h-.892v-.2h.892Zm0 .327h-.892v-.2h.892Zm0 .327h-.892v-.2h.892Zm0 .328h-.892v-.2h.892Zm0 .327h-.892v-.2h.892Zm0 .354h-.892v-.222h.892Zm1.09-1.991h-.893v-.267h.891Zm0 .328h-.893v-.2h.891Zm0 .327h-.893v-.2h.891Zm0 .327h-.893v-.2h.891Zm0 .328h-.893v-.2h.891Zm0 .327h-.893v-.2h.891Zm0 .354h-.893v-.222h.891Zm1.09-1.991h-.896v-.267h.9Zm0 .328h-.896v-.2h.9Zm0 .327h-.896v-.2h.9Zm0 .327h-.896v-.2h.9Zm0 .328h-.896v-.2h.9Zm0 .327h-.896v-.2h.9Zm0 .354h-.896v-.222h.9Zm4.022-2.66h-.042v-.064l.112-.024.112.024v.064h-.042v2.937h-.14Zm-.084.126h-3.445v2.811h3.445Zm-2.36.543h-.892v-.267h.891Zm0 .328h-.892v-.2h.891Zm0 .327h-.892v-.2h.891Zm0 .327h-.892v-.2h.891Zm0 .328h-.892v-.2h.891Zm0 .327h-.892v-.2h.891Zm0 .354h-.892v-.222h.891Zm1.088-1.991h-.892v-.267h.892Zm0 .328h-.892v-.2h.892Zm0 .327h-.892v-.2h.892Zm0 .327h-.892v-.2h.892Zm0 .328h-.892v-.2h.892Zm0 .327h-.892v-.2h.892Zm0 .354h-.892v-.222h.892Zm1.09-1.991h-.892v-.267h.892Zm0 .328h-.892v-.2h.892Zm0 .327h-.892v-.2h.892Zm0 .327h-.892v-.2h.892Zm0 .328h-.892v-.2h.892Zm0 .327h-.892v-.2h.892Zm0 .354h-.892v-.222h.892Zm5.081-2.183h-.943v2.034h.943Zm-.216 1.818h-.493v-1.6h.493Zm-.906-1.818h-.933v2.034h.933Zm-.21 1.819h-.5v-1.6h.5Zm1.32-5.345h-2.055v3.076h2.055Zm-.163.7h-1.766v-.533h1.767Zm.026.2h-.025v-.027h-1.767v.027h-.025a.25.25 0 0 1 0-.148h.025v.027h1.771v-.027h.024c.012-.001.012.147-.003.147Zm-4.427-.071v5.16h2.108v-6.63h2.878l-.006 6.388v.242H22V2.02l-8.431 6.854h1.3v2h.006v.193h-.006v4.607h.006v1.144Zm2.126-3.931V8.908h2.817v.094l.008 3.8v.087l-2.755.006Zm2.586-3.76h-2.352l.016 3.516h2.351Zm-.148.859h-2.055v-.759h2.055Zm-.013.284h-.028v-.038h-1.973v.038h-.028a.43.43 0 0 1 0-.211h.027v.038h1.973v-.038h.027a.43.43 0 0 1 .002.211"/></svg>