<?xml version="1.0" encoding="UTF-8" standalone="no"?>
<svg
   id="Livello_1"
   data-name="Livello 1"
   viewBox="0 0 24 24"
   version="1.1"
   width="24"
   height="24"
   xmlns="http://www.w3.org/2000/svg"
   xmlns:svg="http://www.w3.org/2000/svg">
  <path
     id="Colore_riempimento_1" fill="#44739e" data-name="Colore riempimento 1" class="cls-1"
     d="M 10.089844,0.140625 9.8007812,0.1601563 c 0,0.12999987 0.088906,0.21078134 0.1289063,0.30078125 C 12.743018,5.8742654 15.546513,11.282792 18.339844,16.689453 a 0.37,0.37 0 0 0 0.371094,0.25 h 4.828124 0.25 c -0.05,-0.1 -0.06961,-0.168516 -0.09961,-0.228515 L 15.720703,0.390625 a 0.36,0.36 0 0 0 -0.371094,-0.25 z M 8.3105469,1.0996094 8.2304688,1.2304688 0.23046875,17.660156 a 0.39,0.39 0 0 0 0,0.439453 L 2.8398438,22.580078 A 2.5,2.5 0 0 0 3,22.820312 L 3.1308594,22.589844 11.130859,6.8808594 a 0.43,0.43 0 0 0 0,-0.4609375 L 8.4492188,1.3300781 c 0,-0.08 -0.088672,-0.1504688 -0.1386719,-0.2304687 z M 12.179688,8.5390625 7.9296875,16.919922 H 16.529297 Z M 7.1601562,18.910156 a 0.38,0.38 0 0 0 -0.3808593,0.269532 c -0.7399993,1.459998 -1.4818497,2.92086 -2.2285157,4.380859 0,0.08 -0.071094,0.169297 -0.1210937,0.279297 H 20.609375 a 0.46,0.46 0 0 0 0.320313,-0.230469 c 0.749999,-1.259999 1.480703,-2.528829 2.220703,-3.798828 l 0.529297,-0.900391 z" />
</svg>
