<?xml version="1.0" encoding="UTF-8"?>
<svg width="24px" fill="#44739e" height="24px" viewBox="0 0 24 24" version="1.1" xmlns="http://www.w3.org/2000/svg" xmlns:xlink="http://www.w3.org/1999/xlink">
            <path d="m 18.362,12.924 h -2.25 c -0.132,0 -0.19,-0.041 -0.19,-0.172 v -2.305 c 0,-0.095 -0.035,-0.1 -0.106,-0.1 h -0.75 c -0.076,0 -0.1,0 -0.1,0.1 v 2.226 c 0,0.741 0.265,0.981 0.987,0.981 h 2.421 c 0.089,0 0.089,-0.029 0.089,-0.105 v -0.516 c 0,-0.075 0,-0.109 -0.1,-0.109 z m -4.109,-2.577 h -2.424 c -0.664,0 -1.063,0.211 -1.063,0.907 v 1.494 c 0,0.7 0.4,0.906 1.071,0.906 h 2.416 c 0.1,0 0.09,-0.029 0.09,-0.1 v -0.517 c 0,-0.07 0,-0.1 -0.09,-0.1 h -2.375 c -0.106,0 -0.161,-0.039 -0.161,-0.146 v -0.453 h 2.471 c 0.095,0 0.09,-0.03 0.09,-0.1 v -0.51 c 0,-0.075 0,-0.1 -0.09,-0.1 h -2.471 v -0.421 c 0,-0.105 0.055,-0.145 0.161,-0.145 h 2.375 c 0.1,0 0.09,-0.03 0.09,-0.105 v -0.512 c 0,-0.067 0.009,-0.098 -0.09,-0.098 z m -4.119,0 H 7.711 c -0.664,0 -1.072,0.211 -1.072,0.907 v 1.494 c 0,0.7 0.411,0.906 1.072,0.906 h 2.423 c 0.094,0 0.094,-0.029 0.094,-0.1 v -0.517 c 0,-0.07 0,-0.1 -0.094,-0.1 H 7.763 c -0.1,0 -0.161,-0.039 -0.161,-0.146 v -0.453 h 2.466 c 0.1,0 0.1,-0.03 0.1,-0.1 v -0.51 c 0,-0.075 0,-0.1 -0.1,-0.1 H 7.6 v -0.421 c 0,-0.105 0.056,-0.145 0.161,-0.145 h 2.371 c 0.094,0 0.094,-0.03 0.094,-0.105 v -0.512 c 0.009,-0.067 0.009,-0.098 -0.092,-0.098 z m -4.21,0 H 3.077 C 2.405,10.347 2,10.558 2,11.254 v 1.494 c 0,0.7 0.4,0.906 1.077,0.906 h 2.847 c 0.095,0 0.09,-0.029 0.09,-0.1 V 11.73 c 0,-0.075 0,-0.1 -0.09,-0.1 H 3.573 c -0.095,0 -0.089,0.025 -0.089,0.1 v 0.512 c 0,0.07 0,0.1 0.089,0.1 h 1.482 v 0.6 H 3.117 c -0.1,0 -0.159,-0.039 -0.159,-0.146 v -1.587 c 0,-0.105 0.058,-0.145 0.159,-0.145 h 2.807 c 0.095,0 0.09,-0.03 0.09,-0.105 v -0.512 c 0,-0.069 0,-0.1 -0.09,-0.1 z m 16.007,0 h -0.867 a 0.338,0.338 0 0 0 -0.282,0.11 l -1.2,1.309 -1.182,-1.309 a 0.35,0.35 0 0 0 -0.287,-0.11 h -0.866 c -0.069,0 -0.1,0.036 -0.014,0.125 l 1.878,2.065 v 1.023 c 0,0.094 0.03,0.094 0.106,0.094 h 0.751 c 0.07,0 0.1,0 0.1,-0.094 v -1.023 l 1.884,-2.065 c 0.079,-0.089 0.054,-0.125 -0.021,-0.125 z"/>

</svg>