<?xml version="1.0" encoding="UTF-8"?>
<svg width="24px" fill="#44739e" height="24px" viewBox="0 0 24 24" version="1.1" xmlns="http://www.w3.org/2000/svg" xmlns:xlink="http://www.w3.org/1999/xlink">
            <path d="M 3.84,19.973 3.292,19.724 2.86,19.2 2.427,18.678 2.213,17.948 2,17.221 2.075,16.586 2.15,15.952 l 0.3,-0.639 0.3,-0.638 0.617,-0.6 0.617,-0.6 L 5.6,12.735 7.216,12 l 0.232,-0.229 0.233,-0.228 -0.2,-0.661 -0.2,-0.66 V 9.592 H 7.044 l -0.3,0.243 -0.3,0.244 0.173,0.277 L 6.79,10.633 6.702,10.862 6.614,11.091 6.243,11.048 5.872,11.005 5.83,10.568 5.788,10.13 h -0.2 L 5.296,10.467 5,10.8 H 4.9 4.8 L 4.614,10.682 4.427,10.564 4.511,10.229 4.595,9.894 4.866,9.823 5.137,9.752 V 9.426 L 4.857,9.5 4.586,9.571 4.392,9.377 4.2,9.18 4.276,8.98 4.352,8.78 H 4.808 L 4.967,8.939 5.126,9.098 5.212,9.013 5.3,8.931 5.082,8.713 4.86,8.495 V 8.278 L 5.077,8.1 5.295,7.92 5.583,8.281 5.871,8.642 V 7.781 l 0.237,-0.047 0.236,-0.047 0.105,0.284 0.1,0.284 0.3,-0.409 0.3,-0.409 H 7.802 L 8.276,7.926 8.751,8.415 9.023,9.143 9.296,9.871 V 10.13 H 9.539 L 9.9,9.519 10.258,8.908 10.673,8.435 11.088,7.962 11.505,7.737 11.923,7.511 13.168,7.525 14.414,7.54 V 7.184 L 14.284,7.1 14.15,7.017 V 6.107 L 14.02,6.027 13.891,5.947 13.619,6.117 13.346,6.288 13.111,6.052 12.875,5.817 13.021,5.584 13.167,5.35 13.49,5.305 13.813,5.26 13.939,5.139 14.065,5.017 13.754,4.686 13.442,4.354 l 0.082,-0.211 0.081,-0.212 0.207,-0.08 0.206,-0.079 0.193,0.16 0.192,0.159 0.041,0.283 0.042,0.282 0.159,0.052 0.158,0.053 L 14.847,4.382 14.89,4 l 0.3,-0.043 0.3,-0.043 0.083,0.216 0.083,0.217 -0.218,0.241 -0.218,0.241 v 0.2 L 15.58,4.746 15.941,4.462 16.15,4.671 16.36,4.88 16.213,5.113 16.067,5.346 15.778,5.39 15.489,5.433 v 0.216 l 0.4,0.081 0.4,0.081 v 0.554 l -0.22,0.084 -0.22,0.084 -0.251,-0.157 -0.252,-0.157 v 0.419 l 0.47,0.735 0.469,0.734 h 0.268 l 0.28,-0.549 0.279,-0.549 0.459,-0.192 0.459,-0.191 h 1.048 1.048 l 0.736,0.3 0.735,0.3 0.194,0.346 0.209,0.355 -0.085,0.337 -0.084,0.338 -0.632,0.622 -0.632,0.623 -0.76,0.405 -0.76,0.4 -0.538,0.086 -0.538,0.086 -0.449,-0.378 -0.45,-0.378 -0.552,0.617 -0.553,0.617 -0.249,0.625 -0.25,0.624 0.107,0.235 0.107,0.234 0.051,-0.37 0.05,-0.371 h 0.689 l -0.081,0.4 -0.08,0.4 h 0.4 V 12.81 h 0.673 v 0.545 l -0.37,0.145 -0.371,0.145 0.313,0.12 0.312,0.12 -0.043,0.3 -0.043,0.3 -0.236,-0.04 -0.235,-0.039 v 0.415 h -0.525 l -0.122,-0.216 -0.121,-0.217 -0.083,0.217 -0.083,0.216 H 15.2 l 0.086,-0.508 0.086,-0.508 -0.628,-0.306 -0.629,-0.3 0.1,-0.432 0.1,-0.431 0.1,-0.505 0.1,-0.5 h -0.108 l -0.335,0.22 -0.336,0.22 L 12.9,11.7 12.063,11.622 11.78,11.537 l -0.283,-0.085 -0.236,0.236 -0.237,0.236 0.611,0.311 0.612,0.311 0.211,0.3 0.211,0.3 v 0.441 l -0.344,0.506 -0.343,0.506 0.042,0.219 0.042,0.218 0.4,0.07 0.4,0.07 v 0.67 l -0.435,0.008 -0.431,0.014 -0.08,0.08 -0.08,0.08 0.165,0.264 0.166,0.265 -0.088,0.229 -0.083,0.229 -0.3,-0.043 -0.3,-0.043 -0.043,-0.37 -0.043,-0.37 h -0.141 l -0.236,0.291 -0.236,0.292 -0.223,-0.085 -0.223,-0.086 v -0.514 l 0.3,-0.222 0.3,-0.222 -0.293,0.138 -0.293,0.138 -0.212,-0.082 -0.212,-0.081 V 15.435 L 10,15.273 10.161,15.112 h 0.276 0.276 l -0.324,-0.249 -0.324,-0.249 0.085,-0.22 0.084,-0.219 h 0.379 l 0.166,0.2 0.167,0.2 0.119,-0.074 0.12,-0.073 v -0.792 h -0.952 l -0.5,-0.207 -0.495,-0.207 -1.352,0.417 -1.351,0.418 -0.876,0.27 -0.875,0.27 -0.549,0.348 -0.55,0.347 -0.317,0.462 -0.317,0.463 v 0.83 0.83 l 0.22,0.421 0.221,0.422 0.412,0.347 0.413,0.347 L 4.8,19.5 5.267,19.587 5.6,19.5 l 0.341,-0.085 0.086,0.224 0.086,0.225 -0.249,0.182 -0.25,0.183 H 5 4.386 Z"/>

</svg>