<svg xmlns="http://www.w3.org/2000/svg" viewBox="0 0 24 24"><path fill="#44739e" d="m3.84 19.972-.548-.249-.432-.524-.433-.522-.214-.73L2 17.22l.075-.635.075-.634.3-.639.3-.638.617-.6.617-.6 1.616-.739L7.216 12l.232-.229.233-.228-.2-.661-.2-.66v-.63h-.237l-.3.243-.3.244.173.277.173.277-.088.228-.088.229-.371-.043-.371-.042-.042-.437-.042-.438h-.2l-.292.336L5 10.8h-.2l-.186-.118-.187-.118.084-.335.084-.336.271-.071.271-.07v-.327l-.28.074-.271.071-.194-.194L4.2 9.18l.076-.2.076-.2h.456l.159.159.159.159.086-.085.088-.082-.218-.218-.222-.218v-.217l.217-.178.218-.18.288.361.288.361v-.861l.237-.047.236-.047.105.284.1.284.3-.409.3-.409h.653l.474.489.475.489.272.728.273.728v.259h.243l.361-.611.358-.611.415-.473.415-.473.417-.225.418-.226 1.245.014 1.246.015v-.356l-.13-.084-.134-.083v-.91l-.13-.08-.129-.08-.272.17-.273.171-.235-.236-.236-.235.146-.233.146-.234.323-.045.323-.045.126-.121.126-.122-.311-.331-.312-.332.082-.211.081-.212.207-.08.206-.079.193.16.192.159.041.283.042.282.159.052.158.053.044-.379L14.89 4l.3-.043.3-.043.083.216.083.217-.218.241-.218.241v.2l.36-.283.361-.284.209.209.21.209-.147.233-.146.233-.289.043-.289.044v.216l.4.081.4.081v.554l-.22.084-.22.084-.251-.157-.252-.157v.419l.47.734.469.734h.268l.28-.549.279-.549.459-.192.459-.191h2.096l.736.3.735.3.194.346.209.355-.085.337-.084.338-.632.622-.632.623-.76.405-.76.4-.538.086-.538.086-.449-.378-.45-.378-.552.617-.553.617-.249.625-.25.624.107.235.107.234.051-.37.05-.371h.689l-.081.4-.08.4h.4v-.269h.673v.545l-.37.145-.371.145.313.12.312.12-.043.3-.043.3-.236-.04-.235-.039v.415h-.525l-.122-.216-.121-.217-.083.217-.083.216H15.2l.086-.508.086-.508-.628-.306-.629-.3.1-.432.1-.431.1-.505.1-.5h-.108l-.335.22-.336.22-.836-.071-.837-.078-.283-.085-.283-.085-.236.236-.237.236.611.311.612.311.211.3.211.301v.44l-.344.506-.343.506.042.219.042.218.4.07.4.07v.67l-.435.008-.431.014-.08.08-.08.08.165.264.166.265-.088.229-.083.229-.3-.043-.3-.043-.043-.37-.043-.37h-.141l-.236.291-.236.292-.223-.085-.223-.086v-.514l.3-.222.3-.221-.293.137-.293.138-.212-.082-.212-.081v-.321l.155-.162.161-.161h.552l-.324-.249-.324-.249.085-.22.084-.219h.379l.166.2.167.2.119-.074.12-.073v-.792h-.952l-.5-.207-.495-.207-1.352.417-1.351.418-.876.27-.875.27-.549.348-.55.347-.317.462-.317.463v1.66l.22.421.221.422.412.347.413.347.483.086.467.087.333-.087.341-.085.086.224.086.225-.249.182-.25.183H4.386Z"/></svg>