<svg xmlns="http://www.w3.org/2000/svg" viewBox="0 0 24 24"><path fill="#44739e" d="M14.645 14.102v1.377h.215v-1.377h-.107Zm-2.322 0v1.377h.731v-.173h-.538v-.43h.495v-.193h-.495v-.409h.538v-.172h-.366Zm-.646 0v.957l-.466-.48a6 6 0 0 0-.493-.477 2.5 2.5 0 0 0-.028.688v.689h.194v-.476l.006-.475.458.486a6 6 0 0 0 .489.486c.028 0 .032-.1.032-.7v-.7h-.194Zm-2.107 0v1.377h.731v-.173h-.538v-.43h.497l-.006-.092-.007-.091-.241-.006-.243-.006v-.407h.538v-.172h-.366Zm6.179.568c-.218-.065-.286-.116-.286-.213a.18.18 0 0 1 .15-.183.32.32 0 0 1 .319.105l.051.065.073-.047c.039-.026.073-.054.073-.063a.4.4 0 0 0-.068-.092.5.5 0 0 0-.489-.159.4.4 0 0 0-.284.221c-.111.248.02.456.34.542.256.067.308.108.308.254q-.001.182-.22.2a.33.33 0 0 1-.339-.159l-.056-.09-.069.043c-.039.023-.069.051-.069.062 0 .09.183.277.312.321a.8.8 0 0 0 .226.017.42.42 0 0 0 .383-.233c.133-.259-.004-.484-.355-.591m-1.849.002c-.206-.062-.286-.123-.286-.222 0-.2.3-.253.465-.079l.066.071.067-.043c.08-.05.082-.052.03-.131a.5.5 0 0 0-.5-.19.382.382 0 0 0-.3.525.46.46 0 0 0 .348.243c.252.067.3.11.3.256a.2.2 0 0 1-.064.144c-.063.06-.076.065-.2.056a.3.3 0 0 1-.295-.172l-.045-.079-.073.045c-.041.023-.076.056-.076.068a.6.6 0 0 0 .22.265.38.38 0 0 0 .251.067.4.4 0 0 0 .259-.043.4.4 0 0 0 .234-.329c.015-.231-.101-.364-.401-.452m-5.191.054v.176h.28v.125c0 .094-.011.135-.037.159a.57.57 0 0 1-.344.12.4.4 0 0 1-.271-.047.49.49 0 0 1-.273-.486.5.5 0 0 1 .88-.334l.069.08.073-.052a.3.3 0 0 0 .075-.062.6.6 0 0 0-.075-.1.76.76 0 0 0-.658-.219.7.7 0 0 0-.572.765.72.72 0 0 0 .4.592.6.6 0 0 0 .317.051.6.6 0 0 0 .337-.058 1.3 1.3 0 0 0 .2-.116l.076-.056v-.533h-.477Zm11.743-5.192c-.419.039-1.262.12-1.871.181s-1.4.137-1.763.174a5.8 5.8 0 0 0-1.725.292 2.1 2.1 0 0 0-.575.63 5.5 5.5 0 0 1-1 1.205.5.5 0 0 0-.112.1c.01.011.555-.09.871-.159.34-.078 1.1-.286 1.127-.312.013-.011 0-.019-.028-.019-.078 0-.669-.043-.774-.056l-.093-.013.05-.054c.116-.123.109-.123 1.019-.125h.839l.3-.067a15 15 0 0 0 1.718-.481q.024-.022-.376-.009c-.843.026-2.437.054-2.45.041s.022-.045.065-.084a.4.4 0 0 1 .193-.092c.065-.013.465-.039.891-.058.89-.039 1.622-.084 2.161-.132a3.18 3.18 0 0 0 2.28-.858 2 2 0 0 0 .168-.165c.017-.025-.076-.019-.915.061m-9.973 2.482a5.5 5.5 0 0 1-1-1.2 2.1 2.1 0 0 0-.575-.63 5.6 5.6 0 0 0-1.614-.284 387 387 0 0 0-4.635-.441c-.019 0-.032.009-.028.018a2 2 0 0 0 .168.165 3.18 3.18 0 0 0 2.28.858c.537.048 1.271.093 2.161.132.426.019.826.045.891.058a.4.4 0 0 1 .193.092c.043.039.071.078.065.084a95 95 0 0 1-2.439-.041c-.276-.008-.4-.006-.387.009a15 15 0 0 0 1.718.481l.3.067h.839c.91 0 .9 0 1.019.125l.05.054-.093.013c-.105.013-.7.056-.774.056q-.046.001-.028.019c.024.026.787.234 1.127.312.316.069.861.17.871.159a.5.5 0 0 0-.109-.106m2.99-2.022c-.06-.032-.093-.067-.093-.092s.011-.041.119-.03.118.006.118-.028a.06.06 0 0 0-.034-.052.44.44 0 0 0-.269.019c-.125.069-.088.2.077.288q.109.058.108.1c0 .052-.088.069-.185.035-.063-.022-.065-.02-.058.036s.013.059.137.065q.246.012.246-.155c0-.078-.028-.111-.166-.186m-.514-.192a.022.022 0 0 0 .009.034q.025 0 .025.254v.245h.129v-.559h-.073a.13.13 0 0 0-.09.026m-.331.1c0-.041.008-.043.118-.032s.118.006.118-.028a.06.06 0 0 0-.034-.052.6.6 0 0 0-.263.009.14.14 0 0 0-.068.077q-.048.125.139.228c.124.069.145.131.048.142a.3.3 0 0 1-.125-.015c-.062-.022-.065-.02-.058.036s.013.059.138.065c.105 0 .139 0 .187-.039.109-.086.071-.208-.093-.29-.077-.037-.107-.065-.107-.101m-.334.35h-.118v-.172h.108c.081 0 .107-.008.107-.032s-.026-.032-.107-.032h-.108v-.151h.12c.1 0 .119-.006.112-.039s-.036-.036-.206-.043-.2 0-.2.026a.06.06 0 0 0 .021.045.8.8 0 0 1 .022.25v.234h.183c.168 0 .183 0 .183-.043s-.013-.043-.117-.043m-.434-.469c-.045-.006-.047 0-.054.166l-.006.174-.136-.172c-.1-.131-.146-.172-.185-.172a.1.1 0 0 0-.069.026.022.022 0 0 0 .009.034q.026-.001.026.256c0 .243 0 .245.049.239s.048-.022.058-.155l.011-.15.125.157c.1.118.137.152.172.148s.047-.017.047-.275-.003-.269-.047-.276m-.656.469h-.129l.006-.082c.007-.079.007-.079.11-.086.071 0 .1-.015.1-.038s-.028-.03-.107-.03h-.108v-.151h.131c.112 0 .129 0 .119-.034l-.013-.043a1.7 1.7 0 0 0-.394.006c-.008.007-.006.024.007.039a1 1 0 0 1 .025.26l.007.235.189.006c.177.006.187 0 .187-.039s-.01-.043-.13-.043m-.523-.159c.02.009.033.041.033.086 0 .067-.005.073-.065.073a.2.2 0 0 1-.127-.333c.041-.05.06-.056.136-.05a1 1 0 0 1 .127.026c.03.015.036.007.036-.036 0-.061-.043-.08-.2-.08a.3.3 0 0 0-.172.049.275.275 0 0 0-.1.321.31.31 0 0 0 .424.166c.064-.024.067-.028.067-.151v-.127h-.1c-.089 0-.123.032-.059.056m8.786-1.191c-2.527.114-3.856.17-4.516.185a3 3 0 0 1-1.491-.258 5 5 0 0 0-1.413-.327 1.7 1.7 0 0 0-.5.045c-.237.05-.787.211-1.5.439l-.312.1H9.15c-.608 0-1.488-.039-4.613-.181-2.725-.124-2.549-.12-2.527-.084a.85.85 0 0 0 .561.383c.232.045 1.043.123 3.676.357.733.067 1.507.138 1.72.162 1.114.122 1.345.23 1.661.772a5.7 5.7 0 0 0 .729 1.064 5.4 5.4 0 0 0 1.413 1.067l.23.118.23-.118a5.4 5.4 0 0 0 1.413-1.067 5.7 5.7 0 0 0 .729-1.064c.316-.542.547-.65 1.661-.772.213-.024.987-.1 1.72-.162 2.633-.234 3.444-.312 3.676-.357a.85.85 0 0 0 .561-.383c.022-.044.198-.048-2.527.081m-5.953 2.187a4.7 4.7 0 0 1-.747.774 5 5 0 0 1-.737.49 3 3 0 0 1-.955-.632 3.6 3.6 0 0 1-.891-1.161 4.2 4.2 0 0 1-.3-.835c-.028-.185.105-.3.526-.464a10.5 10.5 0 0 1 1.463-.415 2.2 2.2 0 0 1 .692.1 8.4 8.4 0 0 1 1.259.418c.241.118.3.185.292.344a3.9 3.9 0 0 1-.602 1.381"/></svg>