<?xml version="1.0" encoding="UTF-8"?>
<svg width="24px" fill="#44739e" height="24px" viewBox="0 0 24 24" version="1.1" xmlns="http://www.w3.org/2000/svg" xmlns:xlink="http://www.w3.org/1999/xlink">
            <path d="m 14.645,15.3 v 0.688 0.689 h 0.108 0.107 V 15.988 15.3 h -0.107 z m -2.322,0 v 0.688 0.689 h 0.365 0.366 V 16.59 16.504 h -0.269 -0.269 v -0.215 -0.215 h 0.247 0.248 v -0.096 -0.097 h -0.248 -0.247 v -0.205 -0.204 h 0.269 0.269 V 15.386 15.3 h -0.366 z m -0.646,0 v 0.477 0.48 l -0.466,-0.48 A 6.4,6.4 0 0 0 10.718,15.3 2.464,2.464 0 0 0 10.69,15.988 v 0.689 h 0.194 v -0.476 l 0.006,-0.475 0.458,0.486 a 5.53,5.53 0 0 0 0.489,0.486 c 0.028,0 0.032,-0.1 0.032,-0.7 v -0.7 h -0.194 z m -2.107,0 v 0.688 0.689 h 0.365 0.366 V 16.59 16.504 H 10.032 9.763 v -0.215 -0.215 h 0.25 0.247 L 10.254,15.982 10.247,15.891 10.006,15.885 9.763,15.879 v -0.203 -0.204 h 0.269 0.269 V 15.386 15.3 H 9.935 Z m 6.179,0.568 c -0.218,-0.065 -0.286,-0.116 -0.286,-0.213 a 0.179,0.179 0 0 1 0.15,-0.183 0.324,0.324 0 0 1 0.319,0.105 l 0.051,0.065 0.073,-0.047 c 0.039,-0.026 0.073,-0.054 0.073,-0.063 a 0.4,0.4 0 0 0 -0.068,-0.092 0.5,0.5 0 0 0 -0.489,-0.159 0.4,0.4 0 0 0 -0.284,0.221 c -0.111,0.248 0.02,0.456 0.34,0.542 0.256,0.067 0.308,0.108 0.308,0.254 0,0.12 -0.075,0.189 -0.22,0.2 a 0.329,0.329 0 0 1 -0.339,-0.159 l -0.056,-0.09 -0.069,0.043 c -0.039,0.023 -0.069,0.051 -0.069,0.062 0,0.09 0.183,0.277 0.312,0.321 a 0.782,0.782 0 0 0 0.226,0.017 0.422,0.422 0 0 0 0.383,-0.233 C 16.237,16.2 16.1,15.975 15.749,15.868 Z M 13.9,15.87 c -0.206,-0.062 -0.286,-0.123 -0.286,-0.222 0,-0.2 0.3,-0.253 0.465,-0.079 l 0.066,0.071 0.067,-0.043 c 0.08,-0.05 0.082,-0.052 0.03,-0.131 a 0.505,0.505 0 0 0 -0.5,-0.19 0.382,0.382 0 0 0 -0.3,0.525 0.456,0.456 0 0 0 0.348,0.243 c 0.252,0.067 0.3,0.11 0.3,0.256 a 0.186,0.186 0 0 1 -0.064,0.144 c -0.063,0.06 -0.076,0.065 -0.2,0.056 a 0.3,0.3 0 0 1 -0.295,-0.172 l -0.045,-0.079 -0.073,0.045 c -0.041,0.023 -0.076,0.056 -0.076,0.068 a 0.6,0.6 0 0 0 0.22,0.265 0.383,0.383 0 0 0 0.251,0.067 0.414,0.414 0 0 0 0.259,-0.043 0.4,0.4 0 0 0 0.234,-0.329 C 14.316,16.091 14.2,15.958 13.9,15.87 Z M 8.709,15.924 V 16.1 h 0.28 v 0.125 c 0,0.094 -0.011,0.135 -0.037,0.159 a 0.57,0.57 0 0 1 -0.344,0.12 0.408,0.408 0 0 1 -0.271,-0.047 0.486,0.486 0 0 1 -0.273,-0.486 0.5,0.5 0 0 1 0.88,-0.334 l 0.069,0.08 0.073,-0.052 a 0.246,0.246 0 0 0 0.075,-0.062 0.637,0.637 0 0 0 -0.075,-0.1 0.757,0.757 0 0 0 -0.658,-0.219 0.7,0.7 0 0 0 -0.572,0.765 0.721,0.721 0 0 0 0.4,0.592 0.58,0.58 0 0 0 0.317,0.051 0.6,0.6 0 0 0 0.337,-0.058 1.263,1.263 0 0 0 0.2,-0.116 L 9.186,16.462 V 15.929 H 8.709 Z m 11.743,-5.192 c -0.419,0.039 -1.262,0.12 -1.871,0.181 -0.609,0.061 -1.4,0.137 -1.763,0.174 a 5.825,5.825 0 0 0 -1.725,0.292 2.138,2.138 0 0 0 -0.575,0.63 5.527,5.527 0 0 1 -1,1.205 0.454,0.454 0 0 0 -0.112,0.1 c 0.01,0.011 0.555,-0.09 0.871,-0.159 0.34,-0.078 1.1,-0.286 1.127,-0.312 0.013,-0.011 0,-0.019 -0.028,-0.019 -0.078,0 -0.669,-0.043 -0.774,-0.056 l -0.093,-0.013 0.05,-0.054 c 0.116,-0.123 0.109,-0.123 1.019,-0.125 h 0.839 l 0.3,-0.067 a 14.984,14.984 0 0 0 1.718,-0.481 c 0.016,-0.015 -0.109,-0.017 -0.376,-0.009 -0.843,0.026 -2.437,0.054 -2.45,0.041 -0.013,-0.013 0.022,-0.045 0.065,-0.084 a 0.383,0.383 0 0 1 0.193,-0.092 c 0.065,-0.013 0.465,-0.039 0.891,-0.058 0.89,-0.039 1.622,-0.084 2.161,-0.132 a 3.181,3.181 0 0 0 2.28,-0.858 1.817,1.817 0 0 0 0.168,-0.165 c 0.017,-0.025 -0.076,-0.019 -0.915,0.061 z m -9.973,2.482 a 5.527,5.527 0 0 1 -1,-1.2 A 2.138,2.138 0 0 0 8.904,11.384 5.625,5.625 0 0 0 7.29,11.1 c -2.5,-0.245 -4.543,-0.441 -4.635,-0.441 -0.019,0 -0.032,0.009 -0.028,0.018 a 2.164,2.164 0 0 0 0.168,0.165 3.178,3.178 0 0 0 2.28,0.858 c 0.537,0.048 1.271,0.093 2.161,0.132 0.426,0.019 0.826,0.045 0.891,0.058 A 0.383,0.383 0 0 1 8.32,11.982 C 8.363,12.021 8.391,12.06 8.385,12.066 8.379,12.072 6.821,12.053 5.946,12.025 5.67,12.017 5.546,12.019 5.559,12.034 a 14.8,14.8 0 0 0 1.718,0.481 l 0.3,0.067 h 0.839 c 0.91,0 0.9,0 1.019,0.125 l 0.05,0.054 -0.093,0.013 c -0.105,0.013 -0.7,0.056 -0.774,0.056 -0.03,0 -0.041,0.008 -0.028,0.019 0.024,0.026 0.787,0.234 1.127,0.312 0.316,0.069 0.861,0.17 0.871,0.159 a 0.454,0.454 0 0 0 -0.109,-0.106 z m 2.99,-2.022 c -0.06,-0.032 -0.093,-0.067 -0.093,-0.092 0,-0.025 0.011,-0.041 0.119,-0.03 0.108,0.011 0.118,0.006 0.118,-0.028 A 0.057,0.057 0 0 0 13.579,10.99 0.443,0.443 0 0 0 13.31,11.009 c -0.125,0.069 -0.088,0.2 0.077,0.288 0.073,0.039 0.108,0.071 0.108,0.1 0,0.052 -0.088,0.069 -0.185,0.035 -0.063,-0.022 -0.065,-0.02 -0.058,0.036 0.007,0.056 0.013,0.059 0.137,0.065 0.164,0.009 0.246,-0.045 0.246,-0.155 0,-0.078 -0.028,-0.111 -0.166,-0.186 z M 12.955,11 a 0.022,0.022 0 0 0 0.009,0.034 c 0.017,0 0.025,0.084 0.025,0.254 v 0.245 h 0.129 V 10.974 H 13.045 A 0.125,0.125 0 0 0 12.955,11 Z m -0.331,0.1 c 0,-0.041 0.008,-0.043 0.118,-0.032 0.11,0.011 0.118,0.006 0.118,-0.028 a 0.057,0.057 0 0 0 -0.034,-0.052 0.575,0.575 0 0 0 -0.263,0.009 0.141,0.141 0 0 0 -0.068,0.077 c -0.033,0.084 0.015,0.159 0.139,0.228 0.124,0.069 0.145,0.131 0.048,0.142 a 0.314,0.314 0 0 1 -0.125,-0.015 c -0.062,-0.022 -0.065,-0.02 -0.058,0.036 0.007,0.056 0.013,0.059 0.138,0.065 0.105,0 0.139,0 0.187,-0.039 0.109,-0.086 0.071,-0.208 -0.093,-0.29 -0.077,-0.037 -0.107,-0.065 -0.107,-0.101 z m -0.334,0.35 h -0.118 v -0.172 h 0.108 c 0.081,0 0.107,-0.008 0.107,-0.032 0,-0.024 -0.026,-0.032 -0.107,-0.032 h -0.108 v -0.151 h 0.12 c 0.1,0 0.119,-0.006 0.112,-0.039 -0.007,-0.033 -0.036,-0.036 -0.206,-0.043 -0.17,-0.007 -0.2,0 -0.2,0.026 a 0.062,0.062 0 0 0 0.021,0.045 0.755,0.755 0 0 1 0.022,0.25 v 0.234 h 0.183 c 0.168,0 0.183,0 0.183,-0.043 0,-0.043 -0.013,-0.043 -0.117,-0.043 z m -0.434,-0.469 c -0.045,-0.006 -0.047,0 -0.054,0.166 l -0.006,0.174 -0.136,-0.172 c -0.1,-0.131 -0.146,-0.172 -0.185,-0.172 a 0.087,0.087 0 0 0 -0.069,0.026 0.022,0.022 0 0 0 0.009,0.034 c 0.017,0 0.026,0.084 0.026,0.256 0,0.243 0,0.245 0.049,0.239 0.049,-0.006 0.048,-0.022 0.058,-0.155 l 0.011,-0.15 0.125,0.157 c 0.1,0.118 0.137,0.152 0.172,0.148 0.035,-0.004 0.047,-0.017 0.047,-0.275 0,-0.258 -0.003,-0.269 -0.047,-0.276 z M 11.2,11.45 h -0.129 l 0.006,-0.082 c 0.007,-0.079 0.007,-0.079 0.11,-0.086 0.071,0 0.1,-0.015 0.1,-0.038 0,-0.023 -0.028,-0.03 -0.107,-0.03 h -0.108 v -0.151 h 0.131 c 0.112,0 0.129,0 0.119,-0.034 a 0.3,0.3 0 0 1 -0.013,-0.043 1.743,1.743 0 0 0 -0.394,0.006 c -0.008,0.007 -0.006,0.024 0.007,0.039 a 1.053,1.053 0 0 1 0.025,0.26 l 0.007,0.235 0.189,0.006 c 0.177,0.006 0.187,0 0.187,-0.039 0,-0.039 -0.01,-0.043 -0.13,-0.043 z m -0.523,-0.159 c 0.02,0.009 0.033,0.041 0.033,0.086 0,0.067 -0.005,0.073 -0.065,0.073 a 0.2,0.2 0 0 1 -0.127,-0.333 c 0.041,-0.05 0.06,-0.056 0.136,-0.05 a 0.857,0.857 0 0 1 0.127,0.026 c 0.03,0.015 0.036,0.007 0.036,-0.036 0,-0.061 -0.043,-0.08 -0.2,-0.08 a 0.294,0.294 0 0 0 -0.172,0.049 0.275,0.275 0 0 0 -0.1,0.321 0.311,0.311 0 0 0 0.424,0.166 c 0.064,-0.024 0.067,-0.028 0.067,-0.151 v -0.127 h -0.1 c -0.089,0 -0.123,0.032 -0.059,0.056 z M 19.463,10.1 c -2.527,0.114 -3.856,0.17 -4.516,0.185 A 3.013,3.013 0 0 1 13.456,10.027 5.062,5.062 0 0 0 12.043,9.7 a 1.73,1.73 0 0 0 -0.5,0.045 c -0.237,0.05 -0.787,0.211 -1.5,0.439 l -0.312,0.1 H 9.15 C 8.542,10.284 7.662,10.245 4.537,10.103 1.812,9.979 1.988,9.983 2.01,10.019 a 0.851,0.851 0 0 0 0.561,0.383 c 0.232,0.045 1.043,0.123 3.676,0.357 0.733,0.067 1.507,0.138 1.72,0.162 1.114,0.122 1.345,0.23 1.661,0.772 a 5.7,5.7 0 0 0 0.729,1.064 5.364,5.364 0 0 0 1.413,1.067 l 0.23,0.118 0.23,-0.118 a 5.393,5.393 0 0 0 1.413,-1.067 5.7,5.7 0 0 0 0.729,-1.064 c 0.316,-0.542 0.547,-0.65 1.661,-0.772 0.213,-0.024 0.987,-0.1 1.72,-0.162 2.633,-0.234 3.444,-0.312 3.676,-0.357 A 0.851,0.851 0 0 0 21.99,10.019 C 22.012,9.975 22.188,9.971 19.463,10.1 Z m -5.953,2.187 a 4.669,4.669 0 0 1 -0.747,0.774 5.22,5.22 0 0 1 -0.737,0.49 3.049,3.049 0 0 1 -0.955,-0.632 3.643,3.643 0 0 1 -0.891,-1.161 4.239,4.239 0 0 1 -0.3,-0.835 c -0.028,-0.185 0.105,-0.3 0.526,-0.464 a 10.519,10.519 0 0 1 1.463,-0.415 2.171,2.171 0 0 1 0.692,0.1 8.4,8.4 0 0 1 1.259,0.418 c 0.241,0.118 0.3,0.185 0.292,0.344 a 3.943,3.943 0 0 1 -0.602,1.381 z"/>

</svg>