<?xml version="1.0" encoding="UTF-8"?>
<svg width="24px" fill="#44739e" height="24px" viewBox="0 0 24 24" version="1.1" xmlns="http://www.w3.org/2000/svg" xmlns:xlink="http://www.w3.org/1999/xlink">
            <path d="m 10.04,9.829 h 0.227 V 9.904 H 9.989 V 9.631 h 0.388 l 0.18,-0.123 H 9.951 L 9.765,9.634 v 0.393 h 0.554 L 10.49,9.911 V 9.706 H 10.221 Z M 11.827,9.66 11.553,9.508 h -0.227 v 0.519 h 0.223 V 9.681 l 0.278,0.173 v 0.173 h 0.224 V 9.508 H 11.827 Z M 11.094,9.631 11.276,9.508 h -0.533 l -0.195,0.12 v 0.399 H 11.09 L 11.273,9.904 H 10.772 V 9.829 h 0.214 L 11.168,9.706 H 10.772 V 9.631 Z m 1.243,0.273 V 9.829 h 0.214 L 12.734,9.706 H 12.337 V 9.631 h 0.323 l 0.181,-0.123 h -0.533 l -0.194,0.12 v 0.399 h 0.542 l 0.183,-0.123 z m 2.137,-0.273 0.182,-0.123 h -0.549 l -0.184,0.126 v 0.195 h 0.498 v 0.075 h -0.322 l -0.182,0.123 h 0.55 l 0.178,-0.121 v -0.2 H 14.147 V 9.631 Z M 13.613,9.5080004 h 0.224 V 10.026 H 13.613 Z M 13.373,9.631 13.555,9.508 h -0.55 l -0.183,0.126 v 0.195 h 0.498 v 0.075 h -0.322 l -0.182,0.123 h 0.549 l 0.179,-0.121 v -0.2 H 13.045 V 9.631 Z m 7.876,0.403 C 19.849,7.991 16.309,6.653 12.608,6.511 12.603,6.499 12.6,6.487 12.594,6.474 c -0.2,-0.4 0.914,-0.932 1.113,-1.246 a 1.6,1.6 0 0 0 0.163,-1.45 c -0.188,-0.51 -1.007,-0.29 -0.817,0.227 0.295,0.8 -0.529,1.071 -0.993,1.536 A 1.126,1.126 0 0 0 11.742,6.5 c -3.851,0.052 -7.614,1.412 -9.065,3.534 -1.48,2.165 -0.417,5.422 0.994,6.888 1.411,1.466 3.05,1.978 3.908,-0.122 0.751,-1.842 4.176,-1.92 4.384,-1.923 0.208,-0.003 3.633,0.081 4.384,1.923 0.858,2.106 2.5,1.591 3.908,0.124 1.408,-1.467 2.474,-4.724 0.994,-6.89 z M 15.349,8.961 16.94,8.253 A 0.3152162,0.3152162 0 1 1 17.194,8.83 L 15.6,9.538 a 0.321,0.321 0 0 1 -0.424,-0.156 0.309,0.309 0 0 1 0,-0.246 0.324,0.324 0 0 1 0.168,-0.175 z m -9,6.02 A 3.283,3.283 0 1 1 9.605,11.7 3.276,3.276 0 0 1 6.342,14.981 Z m 3.439,-4.8 v 0 L 9.445,9.981 V 9.536 L 9.767,9.348 h 1.584 l 0.287,-0.412 h 1.154 l 0.289,0.412 h 1.608 l 0.324,0.189 v 0.44 l -0.343,0.2 z m 10.34,2.419 c -0.738,0.267 -2.031,0.895 -2.044,0.9 -0.091,0.039 -0.378,0.2 -0.71,0.395 -0.376,0.215 -0.844,0.484 -1.187,0.661 a 1.547,1.547 0 0 1 -0.7,0.153 v 0 a 1.861,1.861 0 0 1 -1.883,-1.793 c -0.164,-1.688 2.75,-3.122 2.874,-3.182 1.969,-0.89 3.42,-0.846 4.26,0.113 a 1.691,1.691 0 0 1 0.481,1.576 1.791,1.791 0 0 1 -1.091,1.177 z m -2.536,-1.644 a 0.755,0.755 0 1 0 0.75,0.754 0.752,0.752 0 0 0 -0.75,-0.754 z m 1.349,-1.65 a 5.975,5.975 0 0 0 -2.372,0.621 c -0.027,0.013 -2.9,1.428 -2.753,2.968 a 1.658,1.658 0 0 0 1.673,1.6 1.348,1.348 0 0 0 0.6,-0.129 c 0.339,-0.175 0.8,-0.443 1.179,-0.657 0.352,-0.2 0.63,-0.362 0.728,-0.4 0.008,-0.005 1.311,-0.638 2.059,-0.909 A 1.569,1.569 0 0 0 21.015,11.373 1.518,1.518 0 0 0 20.58,9.99 2.077,2.077 0 0 0 18.941,9.306 Z m -3.291,4.442 a 0.968,0.968 0 1 1 0.961,-0.968 0.965,0.965 0 0 1 -0.961,0.968 z m 1.942,-1.07 a 0.968,0.968 0 1 1 0.962,-0.968 0.965,0.965 0 0 1 -0.962,0.968 z m 2.036,-0.885 a 0.968,0.968 0 1 1 0.961,-0.967 0.965,0.965 0 0 1 -0.961,0.967 z M 5.878,13.4 V 12.15 L 4.649,12.162 A 1.778,1.778 0 0 0 5.878,13.4 Z m 13.75,-3.329 a 0.755,0.755 0 1 0 0.749,0.755 0.753,0.753 0 0 0 -0.749,-0.755 z M 15.65,12.026 A 0.755,0.755 0 1 0 16.4,12.78 0.753,0.753 0 0 0 15.65,12.026 Z M 15.512,9.344 17.1,8.635 a 0.109,0.109 0 0 0 0.062,-0.14 0.1,0.1 0 0 0 -0.1,-0.058 0.116,0.116 0 0 0 -0.049,0.01 l -1.592,0.708 a 0.116,0.116 0 0 0 -0.062,0.063 0.1,0.1 0 0 0 0,0.078 0.11,0.11 0 0 0 0.153,0.048 z m -8.705,0.65 v 1.251 L 8.036,11.232 A 1.782,1.782 0 0 0 6.807,9.994 Z m -0.014,1.45 a 0.2,0.2 0 0 1 -0.2,-0.2 V 9.95 a 1.71,1.71 0 0 0 -0.5,0 v 1.3 a 0.2,0.2 0 0 1 -0.2,0.2 H 4.605 a 1.808,1.808 0 0 0 0,0.509 h 1.287 a 0.2,0.2 0 0 1 0.2,0.2 v 1.3 a 1.78,1.78 0 0 0 0.5,0 v -1.307 a 0.2,0.2 0 0 1 0.2,-0.2 H 8.08 a 1.808,1.808 0 0 0 0,-0.509 z M 5.878,9.994 A 1.781,1.781 0 0 0 4.649,11.231 H 5.878 Z M 6.342,8.628 A 3.07,3.07 0 1 0 9.393,11.7 3.064,3.064 0 0 0 6.342,8.628 Z M 3.776,11.9 3.293,11.7 3.776,11.494 Z M 6.342,8.63 6.547,9.115 H 6.138 Z m 0,6.137 -0.2,-0.486 H 6.551 Z M 8.3,11.953 8.276,12.079 8.259,12.166 h -0.01 a 1.956,1.956 0 0 1 -1.442,1.452 v 0.006 l -0.084,0.017 v 0 L 6.597,13.666 V 13.66 A 1.956,1.956 0 0 1 6.344,13.678 2.135,2.135 0 0 1 6.092,13.66 v 0.006 L 5.966,13.641 v 0 L 5.883,13.624 V 13.618 A 1.958,1.958 0 0 1 4.44,12.166 H 4.428 L 4.412,12.079 4.387,11.953 h 0.006 a 1.808,1.808 0 0 1 0,-0.509 H 4.387 L 4.412,11.317 4.428,11.231 H 4.435 A 1.957,1.957 0 0 1 5.878,9.779 V 9.772 L 5.963,9.755 v 0 L 6.09,9.731 v 0.006 a 1.94,1.94 0 0 1 0.5,0 V 9.731 l 0.126,0.024 v 0 l 0.086,0.017 v 0.007 a 1.957,1.957 0 0 1 1.448,1.452 h 0.006 l 0.017,0.086 0.024,0.127 H 8.291 a 1.714,1.714 0 0 1 0,0.509 z m 0.612,-0.461 0.482,0.206 -0.482,0.206 z M 6.805,13.4 a 1.778,1.778 0 0 0 1.23,-1.237 H 6.793 Z"/>

</svg>