<svg xmlns="http://www.w3.org/2000/svg" viewBox="0 0 24 24"><path fill="#44739e" d="M13.833 8.524c1.12.645 2.414.5 2.414.5s-.459-1.303-1.575-1.947-2.472-.39-2.472-.39.517 1.189 1.633 1.837M2.972 12.993a10.4 10.4 0 0 1 2.16-3.884q-.362.048-.704.205c-.013-.01-.023-.014-.032-.023-.009-.01-.022-.014-.031-.023a10.8 10.8 0 0 1 3.18-3.112A8.2 8.2 0 0 1 6.365 2q2.616.422 4.406 2.341a13.5 13.5 0 0 1 5.771 2.455q.64.456.975 1.157.15.544.273 1.089c.15.33.372.612.657.839q.559.49 1.225.817.844.265 1.73.34a1.88 1.88 0 0 1-.341 1.225q-1.444 1.082-3.249.84-1.491-.259-2.976-.523c-.762.023-1.202.413-1.32 1.18a2.66 2.66 0 0 0 .408 1.774c.173.268.354.522.545.771.53.6 1.102 1.162 1.706 1.683q-.464.131-.953.16c.336.199.74.453 1.157.716.712.45 1.474.935 2.069 1.234-2.464 1.43-5.127 2.967-10.635.89-2.364-.894-4.193-2.505-4.837-4.165-.567-1.434-.449-2.378-.004-3.83m6.161-8.865q-.599-.313-1.225-.59l-.045.045q.299.47.544.976a1.2 1.2 0 0 1-.453-.25l-.046.046c.068.304.127.603.182.907a6 6 0 0 1-1.044-2.364 4.53 4.53 0 0 1 2.087 1.23m4.859 13.084a11 11 0 0 1-.771-.068 7.3 7.3 0 0 1 2.182 2.681 3.7 3.7 0 0 0-.68-.159l.544 1.316q-4.484 1.305-8.335-1.316a3 3 0 0 1 0-.771 28 28 0 0 1 .227-1.638 5.4 5.4 0 0 0-.998 1.82l-.295-.295c.132-.98.431-1.906.908-2.772a1 1 0 0 1-.318 0q.082.06 0 .113-.32.227-.635.454a8.9 8.9 0 0 1 2.59-3.294 5.3 5.3 0 0 1 .999-.522q.143.911.476 1.774a.4.4 0 0 0 .136.182c.44-.826.98-1.584 1.61-2.273l-.045-.046a5.3 5.3 0 0 0-1.383 1.09 5.5 5.5 0 0 1-.318-1.543.18.18 0 0 0-.09-.091c-.713.25-1.375.58-2.001.998q.38-1.232 1.157-2.273a.3.3 0 0 0-.273-.023 31 31 0 0 1-.862.25v-.046a5.3 5.3 0 0 1 3.18-1.819 8.5 8.5 0 0 0-1.043-.386q1.396-.013 2.682.545c1.18.59 2.327 1.225 3.452 1.91a6.36 6.36 0 0 0 3.861.862q.389-.191.681.113-1.154.926-2.636.704a44 44 0 0 1-2.41-.5c-1.927-.417-2.844.359-2.748 2.342q.076.707.363 1.36.366.689.793 1.32m.096-8.869v-.78q-.03.026-.078.059a1 1 0 0 1-.09.05c-.032.013-.064.031-.096.045s-.059.023-.081.032v-.232a.4.4 0 0 0 .09-.05c.037-.022.069-.045.105-.068l.09-.072q.041-.034.055-.055h.254v1.076h-.25Z"/></svg>