<?xml version="1.0" encoding="UTF-8"?>
<svg width="24px" fill="#44739e" height="24px" viewBox="0 0 24 24" version="1.1" xmlns="http://www.w3.org/2000/svg" xmlns:xlink="http://www.w3.org/1999/xlink">
            <path d="m 4.682,11.525 v -1.514 c 0,-0.18 0.072,-0.241 0.294,-0.143 0.258,0.112 0.324,0.133 0.324,0.348 0,0.818 0,1.732 -0.008,2.573 0,0.166 0.008,0.236 -0.194,0.327 -0.041,0.019 -0.124,0.061 -0.186,0.083 -0.121,0.05 -0.233,0 -0.23,-0.177 v -1.063 c -0.003,-0.138 -0.003,-0.29 0,-0.434 z m 12.087,0.002 V 13 c 0,0.115 -0.041,0.16 -0.153,0.155 a 2.371,2.371 0 0 0 -0.292,0 c -0.133,0.008 -0.175,-0.053 -0.175,-0.173 v -2.9 c 0,-0.165 0.023,-0.191 0.188,-0.193 h 0.279 c 0.113,0 0.153,0.045 0.153,0.155 -0.003,0.5 0,0.993 0,1.483 z m -5.927,0.464 a 1.186,1.186 0 1 1 1.169,1.2 1.186,1.186 0 0 1 -1.169,-1.2 z m 1.761,0 a 0.573,0.573 0 0 0 -0.541,-0.6 h -0.056 a 0.589,0.589 0 0 0 -0.563,0.612 0.184,0.184 0 0 0 0,0.041 0.6,0.6 0 0 0 0.6,0.579 0.585,0.585 0 0 0 0.561,-0.606 v 0 -0.021 z m -4.646,0.003 a 1.192,1.192 0 0 1 -2.383,0.055 v 0 -0.076 a 1.191,1.191 0 0 1 1.2,-1.175 1.177,1.177 0 0 1 1.183,1.169 z M 7.334,12.021 A 0.57824995,0.57824995 0 1 0 6.18,11.945 v 0.028 a 0.6,0.6 0 0 0 0.556,0.647 h 0.017 a 0.586,0.586 0 0 0 0.581,-0.592 z m 11.481,-0.955 c 0.03,-0.215 0,-0.217 0.236,-0.215 h 0.212 c 0.119,-0.013 0.156,0.054 0.156,0.157 V 13 c 0,0.112 -0.048,0.174 -0.169,0.163 h -0.187 c -0.212,0 -0.254,0 -0.254,-0.234 a 0.84,0.84 0 0 1 -0.613,0.278 0.953,0.953 0 0 1 -0.7,-0.248 A 1.242,1.242 0 0 1 17.338,11.21 1.226,1.226 0 0 1 17.597,10.976 0.933,0.933 0 0 1 18.71,11 Z M 17.672,12 a 0.571,0.571 0 1 0 1.14,0.044 V 12 a 0.585,0.585 0 0 0 -0.558,-0.611 h -0.02 a 0.575,0.575 0 0 0 -0.56,0.59 v 0 0.013 z m -3.549,0.953 v 0.933 c 0,0.223 0,0.223 -0.23,0.223 h -0.239 c -0.1,0 -0.133,-0.048 -0.133,-0.144 v -2.974 c 0,-0.1 0.037,-0.148 0.141,-0.134 h 0.252 c 0.183,0 0.172,0.054 0.172,0.228 a 1.063,1.063 0 0 1 1.75,0.626 1.215,1.215 0 0 1 -0.615,1.385 0.916,0.916 0 0 1 -0.955,-0.052 c -0.045,-0.024 -0.077,-0.05 -0.143,-0.091 z m -0.01,-0.959 a 0.581,0.581 0 0 0 0.543,0.619 h 0.028 a 0.569,0.569 0 0 0 0.579,-0.559 v 0 V 12 a 0.547,0.547 0 0 0 -0.549,-0.606 0.568,0.568 0 0 0 -0.6,0.536 v 0 a 0.442,0.442 0 0 0 0,0.063 z M 8.859,11.039 a 0.91,0.91 0 0 1 0.607,-0.243 1.1,1.1 0 0 1 0.877,0.437 1.333,1.333 0 0 1 -0.032,1.58 1.036,1.036 0 0 1 -1.456,0.159 L 8.81,12.934 c -0.014,-0.013 0,0.133 -0.032,0.174 -0.039,0.075 -0.488,0.069 -0.533,0 A 0.218,0.218 0 0 1 8.221,13 v -2.968 c 0,-0.119 0.052,-0.165 0.165,-0.165 a 2.844,2.844 0 0 0 0.292,0 c 0.133,0 0.169,0.056 0.169,0.174 0.005,0.288 0.012,0.988 0.012,0.998 z m 0.547,0.354 a 0.6,0.6 0 1 0 0.569,0.69 0.508,0.508 0 0 0 0,-0.078 0.567,0.567 0 0 0 -0.522,-0.61 v 0 a 0.346,0.346 0 0 0 -0.046,0 z m 10.265,2.618 c -0.082,-0.041 -0.057,-0.133 -0.018,-0.2 0.014,-0.026 0.029,-0.053 0.045,-0.079 0.11,-0.212 0.11,-0.215 0.335,-0.162 a 0.275,0.275 0 0 0 0.333,-0.133 2.426,2.426 0 0 0 0.187,-0.357 c 0,0 -0.611,-1.392 -0.889,-2.029 -0.079,-0.18 -0.071,-0.191 0.124,-0.191 h 0.371 a 0.151,0.151 0 0 1 0.166,0.115 c 0.165,0.418 0.519,1.332 0.519,1.332 0.068,-0.2 0.146,-0.4 0.209,-0.581 0.087,-0.248 0.18,-0.5 0.267,-0.748 a 0.157,0.157 0 0 1 0.183,-0.126 v 0 c 0.113,0.008 0.227,0 0.344,0 0.157,0 0.183,0.041 0.123,0.188 -0.133,0.353 -0.28,0.708 -0.423,1.066 -0.176,0.437 -0.4,0.97 -0.573,1.4 a 0.949,0.949 0 0 1 -0.8,0.656 0.772,0.772 0 0 1 -0.503,-0.151 z M 3.1,14.178 a 1.6,1.6 0 0 1 -0.973,-0.3 c -0.1,-0.08 -0.116,-0.142 -0.062,-0.239 0.037,-0.069 0.07,-0.141 0.1,-0.209 0.061,-0.124 0.12,-0.144 0.241,-0.072 a 1.361,1.361 0 0 0 0.748,0.207 0.554,0.554 0 0 0 0.581,-0.644 0.765,0.765 0 0 1 -0.605,0.23 1.174,1.174 0 0 1 -0.667,-0.219 1.108,1.108 0 0 1 -0.444,-1.113 1.143,1.143 0 0 1 0.849,-0.987 0.89,0.89 0 0 1 0.918,0.236 c 0,-0.105 0.008,-0.172 0.052,-0.207 A 0.432,0.432 0 0 1 4.051,10.83 c 0.341,0 0.334,-0.014 0.331,0.222 v 1.683 c 0,0.641 -0.201,1.443 -1.282,1.443 z M 3.762,12 A 0.562,0.562 0 0 0 3.243,11.395 H 3.2 a 0.559,0.559 0 0 0 -0.585,0.531 c 0,0.023 0,0.046 0,0.07 a 0.57216125,0.57216125 0 1 0 1.143,0.055 V 12 Z"/>

</svg>