<svg xmlns="http://www.w3.org/2000/svg" viewBox="0 0 24 24"><path fill="#44739e" d="M21.207 9.705c-1.46-2.389-4.534-5.463-6.923-6.923-1.127-.694-1.911-.919-2.28-.703-1.289 1.046-2.218 2.686-2.506 4.444 2.812 1.911 6.048 5.147 7.968 7.968 1.749-.297 3.398-1.235 4.444-2.497.225-.378-.009-1.162-.703-2.289m-1.902 1.217c-2.028-1.433-4.795-4.201-6.229-6.229-1.451-2.055-1.009-2.614 1.028-1.199 2.073 1.433 4.949 4.318 6.382 6.391 1.424 2.046.874 2.488-1.181 1.037m-4.543 6.364c-2.605-1.839-6.175-5.409-8.023-8.023-1.865-2.65-1.298-3.371 1.335-1.541 2.668 1.848 6.372 5.561 8.22 8.23 1.83 2.632 1.118 3.2-1.532 1.334m2.461-1.569c-1.884-3.074-5.841-7.04-8.915-8.915-1.46-.901-2.47-1.198-2.939-.919-2.019 1.641-3.362 4.381-3.362 7.184a8.91 8.91 0 0 0 3.272 6.914h-.225a1.008 1.008 0 1 0 0 2.019h5.318c.063 0 .126-.009.189-.018.127.009.253.018.388.018 2.767 0 5.553-1.379 7.184-3.353.28-.469-.027-1.478-.91-2.93"/></svg>