<svg viewBox="0 0 24 24" height="24px" width="24px" fill="#44739e" xmlns="http://www.w3.org/2000/svg"><title>hue:go-off</title><path d="M9.73,5.15c2.96,2.05,7.07,6.17,9.12,9.13c1.28,1.84,1.43,2.77,0.65,2.69l0.87,0.87 c0.18-0.18,0.36-0.36,0.52-0.56c0.31-0.53-0.02-1.65-1.01-3.27c-2.09-3.41-6.48-7.81-9.89-9.89C8.37,3.13,7.25,2.8,6.73,3.11 c-0.2,0.16-0.39,0.35-0.58,0.53l0.91,0.9C6.94,3.72,7.86,3.85,9.73,5.15z M21.98,20.94L2.86,1.87L1.45,3.28l2.85,2.84C3.48,7.62,3,9.33,3,11.08c0,3.09,1.41,5.85,3.63,7.67H6.38 c-0.62,0-1.12,0.5-1.12,1.12c0,0.62,0.51,1.12,1.12,1.12h5.9c0.07,0,0.14-0.01,0.21-0.02c0.14,0.01,0.28,0.02,0.43,0.02 c1.73,0,3.46-0.5,4.97-1.32l2.69,2.68L21.98,20.94z"/></svg>