<svg xmlns="http://www.w3.org/2000/svg" viewBox="0 0 24 24"><path fill="#44739e" d="M10.066 5.22c2.884 1.997 6.888 6.01 8.885 8.894 1.247 1.792 1.393 2.698.633 2.621l.848.847a7 7 0 0 0 .506-.545c.302-.517-.019-1.608-.984-3.186-2.036-3.322-6.312-7.608-9.634-9.635-1.579-.964-2.67-1.286-3.176-.984-.195.156-.38.341-.565.517l.886.876c-.117-.798.78-.672 2.601.595M22 20.602 3.374 2.024 2 3.398l2.776 2.767C3.978 7.626 3.51 9.292 3.51 10.997a9.64 9.64 0 0 0 3.536 7.472h-.243c-.604 0-1.091.487-1.091 1.091s.496 1.091 1.091 1.091h5.747c.069 0 .137-.01.205-.02.136.01.273.02.419.02 1.685 0 3.371-.487 4.842-1.286l2.62 2.611Z"/></svg>