<svg xmlns="http://www.w3.org/2000/svg" viewBox="0 0 24 24"><path fill="#44739e" d="M19.59 15.459a.473.473 0 0 0 .357-.514l-.293-2.125c0-.009-.009-.009-.009-.009v-.019L17.602 3.09a.45.45 0 0 0-.349-.348C13.983 2 13.378 2 12.022 2l-.018.458L11.958 2c-1.301 0-1.961 0-5.204.742a.45.45 0 0 0-.348.348l-2.153 9.702v.037c0 .009-.009.018-.009.028l-.193 2.125a.453.453 0 0 0 .358.486c.082.018 1.997.439 6.789.43v3.143c-3.665.064-6.505.495-6.505 1.017 0 .174.311.33.852.476v.44c0 .568 2.977 1.026 6.66 1.026s6.661-.458 6.661-1.026v-.44c.54-.137.852-.302.852-.476 0-.532-2.959-.971-6.752-1.017v-3.143c4.672-.018 6.541-.421 6.624-.439m-14.586-.825.119-1.328c1.109-.101 4.444-.385 6.881-.367 2.437 0 5.726.275 6.789.376l.183 1.328c-.843.128-3.014.367-6.981.33-3.986.027-6.166-.211-6.991-.339"/></svg>