<?xml version="1.0" encoding="UTF-8"?>
<svg width="24px" fill="#44739e" height="24px" viewBox="0 0 24 24" version="1.1" xmlns="http://www.w3.org/2000/svg" xmlns:xlink="http://www.w3.org/1999/xlink">
            <path d="M20.21,15.3c0.25-0.06,0.42-0.3,0.39-0.56l-0.32-2.32c0-0.01-0.01-0.01-0.01-0.01c0-0.01,0-0.01,0-0.02 L18.04,1.8C18,1.61,17.85,1.46,17.66,1.42c-3.57-0.81-4.23-0.81-5.71-0.81l-0.02,0.5l-0.05-0.5c-1.42,0-2.14,0-5.68,0.81 C6.01,1.46,5.86,1.61,5.82,1.8L3.47,12.39c0,0.01,0,0.03,0,0.04c0,0.01-0.01,0.02-0.01,0.03l-0.21,2.32 c-0.02,0.25,0.14,0.48,0.39,0.53c0.09,0.02,2.18,0.48,7.41,0.47v3.43c-4,0.07-7.1,0.54-7.1,1.11c0,0.19,0.34,0.36,0.93,0.52v0.48 c0,0.62,3.25,1.12,7.27,1.12s7.27-0.5,7.27-1.12v-0.48c0.59-0.15,0.93-0.33,0.93-0.52c0-0.58-3.23-1.06-7.37-1.11v-3.43 C18.08,15.76,20.12,15.32,20.21,15.3z M4.29,14.4l0.13-1.45c1.21-0.11,4.85-0.42,7.51-0.4c2.66,0,6.25,0.3,7.41,0.41l0.2,1.45 c-0.92,0.14-3.29,0.4-7.62,0.36C7.57,14.8,5.19,14.54,4.29,14.4z"/>

</svg>