<svg xmlns="http://www.w3.org/2000/svg" viewBox="0 0 24 24"><path fill="#44739e" d="M17.724 16.177c-3.216-2.273-7.612-6.671-9.885-9.892C5.533 3.02 6.235 2.139 9.475 4.388c3.285 2.279 7.854 6.851 10.135 10.141 2.249 3.245 1.374 3.952-1.886 1.648m3.026-1.935c-2.317-3.79-7.204-8.679-10.987-10.996C7.968 2.148 6.725 1.78 6.142 2.125 3.653 4.145 2 7.519 2 10.976c0 3.435 1.571 6.502 4.032 8.524H5.75c-.687 0-1.25.563-1.25 1.25S5.063 22 5.75 22h6.559q.121 0 .234-.023c.159.006.314.023.473.023 3.408 0 6.84-1.696 8.86-4.129.344-.586-.027-1.833-1.126-3.629"/></svg>