<svg xmlns="http://www.w3.org/2000/svg" viewBox="0 0 24 24"><path fill="#44739e" d="M9.311 11.744v.833c0 1.899-.971 3.712-3.469 3.712S2 14.407 2 11.996c0-2.437 1.353-4.285 3.86-4.285 1.726 0 2.87.876 3.191 2.307H7.958c-.26-.832-.902-1.362-2.107-1.362-1.943 0-2.802 1.553-2.802 3.34 0 1.76.833 3.339 2.793 3.339 1.717 0 2.403-1.171 2.403-2.515v-.157H5.686v-.928h3.625Zm5.603 1.466c0-1.145-.598-2.212-1.89-2.212-1.301 0-1.891 1.067-1.891 2.212s.59 2.212 1.891 2.212c1.283 0 1.89-1.059 1.89-2.212m.989 0c0 1.726-1.058 3.07-2.871 3.07-1.83 0-2.871-1.344-2.871-3.07s1.041-3.07 2.871-3.07c1.813 0 2.871 1.344 2.871 3.07m5.022-1.769a4 4 0 0 0-.729-.148l.009-.009c.572-.312 1.015-.624 1.301-.928.52-.546.538-1.032.46-1.344s-.321-.728-1.041-.963c-.399-.13-.937-.199-1.587-.199h-1.813v1.492h1.813c.147 0 .269 0 .39.008.399.026.451.209.104.425a5 5 0 0 1-.338.191l-1.969 1.067v1.691h1.813c.147 0 .269 0 .39.009.399.026.451.208.104.425-.095.061-.208.121-.338.191l-1.969 1.066v1.692l2.68-1.449c.572-.312 1.015-.624 1.301-.928.52-.546.538-1.032.46-1.344-.078-.295-.321-.711-1.041-.945"/></svg>