<svg xmlns="http://www.w3.org/2000/svg" width="32.026" height="33.306" viewBox="0 0 1251 1301">
  <path id="Colore_riempimento_1" fill="#44739e" data-name="Colore riempimento 1" class="cls-1" d="M615,2c16.915-.2,28.311.321,40,5h3V8h2V9h3v1l4,1v1l4,1,1,2,4,1,1,2,3,1,3,4h2l11,12,17,16v2h1l2,3,26,25,50,51,18,17c7.214,9.979,16.428,17.428,25,26l35,36,38,37v2l7,6,15,16,8,7,42,43c9.211,9.211,19.257,17.291,27,28q11,10.5,22,21,23.505,24,47,48c10.17,10.17,21.46,19.195,30,31q13.005,12.5,26,25,21.495,22,43,44c9.53,9.531,19.99,17.926,28,29q3.495,3,7,6,8.505,9,17,18v2l3,2v2c0.67,0.333,1.33.667,2,1,0.33,1.333.67,2.667,1,4,0.67,0.333,1.33.667,2,1,0.67,2,1.33,4,2,6h1v2h1c0.67,2,1.33,4,2,6h1v3h1v2h1l3,13h1v5h1v5h1v9h1v560c0,14.12.4,27.64-3,38v4h-1c-0.67,3-1.33,6-2,9h-1c-0.67,2-1.33,4-2,6h-1v2h-1c-0.33,1.33-.67,2.67-1,4-0.67.33-1.33,0.67-2,1v2h-1c-0.33,1-.67,2-1,3-0.67.33-1.33,0.67-2,1v2c-2,1.67-4,3.33-6,5v2h-1c-0.67,1-1.33,2-2,3h-2c-1.67,2-3.33,4-5,6h-2c-0.67,1-1.33,2-2,3h-2v1h-2c-0.33.67-.67,1.33-1,2h-2v1h-2v1h-2v1h-2v1c-1.33.33-2.67,0.67-4,1v1c-21.15,9.26-57.37,6-87,6H100c-9.928,0-19.6.24-27-2H68v-1c-2.333-.33-4.667-0.67-7-1v-1H59v-1H56v-1c-2-.67-4-1.33-6-2v-1H48v-1c-2-.67-4-1.33-6-2-0.333-.67-0.667-1.33-1-2H39c-0.333-.67-0.667-1.33-1-2-1-.33-2-0.67-3-1-1.333-1.67-2.667-3.33-4-5H29c-0.333-.67-0.667-1.33-1-2-1-.67-2-1.33-3-2v-2c-2-1.67-4-3.33-6-5v-2c-0.667-.33-1.333-0.67-2-1v-2c-0.667-.33-1.333-0.67-2-1l-1-3H13c-0.333-1.33-.667-2.67-1-4H11v-2H10l-2-6H7v-3H6v-3H5v-3H4v-4H3v-5H2v-6H1V675c0-12.215-1.884-30.852,1-41v-8H3l1-10H5l1-7H7v-3H8v-3H9v-2h1v-3h1l2-6h1v-2h1l2-6,2-1,1-4,2-1v-2l3-2v-2l3-2v-2l18-17,2-3h1v-2l33-32,38-39c8.892-8.892,18.521-16.657,26-27l32-31L288,305l56-55v-2l3-2,5-6,90-89c7.743-10.709,17.789-18.789,27-28l8-9,42-41,48-50h2l3-4h2l1-2h2l1-2,3-1V13l4-1V11l4-1V9h3V8h2V7ZM301,1001H951V704L713,467l-17-18h-2l-4-5-9-8v-2l-8-7-3-4a139.729,139.729,0,0,1-17-15l-16-16c-2.611-2.61-3.838-5.866-8-7-2.978,5.248-9.747,9.747-14,14-9.131,9.131-18.458,22.751-32,27l-13-1v-1l-5-1-2-3h-2q-0.5-1-1-2h-1v-2l-3-2q-0.5-2.5-1-5h-1q-0.5-6.5-1-13h1v-3h1q0.5-2.5,1-5l2-1v-2l50-49L711,232l35-34,4-5c3.867-3.867,14.589-11.817,16-17-4.115-2.406-6.721-6.721-10-10l-2-1-19-20-33-32v-2l-6-5L684,93,667,77,650,59h-2l-1-2h-2l-1-2h-2V54l-6-1c-3.14-1.17-10.424-3.669-16-2l-12,4-1,2c-14.49,9.542-24.988,22.988-37,35l-22,21c-8,11.076-18.47,19.47-28,29l-43,44-27,26c-6.95,9.613-15.747,16.747-24,25l-33,34-41,40v2l-8,7-16,17-75,74c-8.008,11.074-18.469,19.469-28,29l-44,45-26,25c-6.688,9.247-15.066,16.066-23,24l-31,32c-19.016,19.016-37.985,32.6-48,61v4c-2.273,7.036-2,16.373-2,26V892h1L399,544l59-58,27-28h2l1-2,5-1v-1l13-1v1h3v1l5,1,2,3h2q0.5,1,1,2h1v2l2,1v2h1c0.915,1.357.725,1.758,1,4,3.179,3.394,1.893,14.816,0,19h-1v2c-3.369,5.462-9.521,9.522-14,14l-5,6-25,24L354,661l-53,52v288Zm700,250h168q6-1.995,12-4v-1c1-.33,2-0.67,3-1,0.33-.67.67-1.33,1-2h2c0.33-.67.67-1.33,1-2,1.67-1.33,3.33-2.67,5-4v-2c0.67-.33,1.33-0.67,2-1v-2h1c0.67-2,1.33-4,2-6h1v-3h1c2.78-8.22,1-28.41,1-39V676c0-11.619,1.78-29.422-1-39v-6h-1v-4h-1c-0.67-3-1.33-6-2-9h-1c-0.67-2-1.33-4-2-6h-1c-0.33-1.333-.67-2.667-1-4-0.67-.333-1.33-0.667-2-1v-2c-0.67-.333-1.33-0.667-2-1v-2l-6-5c-7.22-9.976-16.43-17.427-25-26q-13.005-13.5-26-27-17.505-17-35-34c-1.67-2-3.33-4-5-6-0.67-.333-1.33-0.667-2-1v-2q-20.505-20-41-40-18.495-19-37-38-9.5-9-19-18v-2l-7-6-15-16-38-37-10-11c-9.211-9.211-19.257-17.291-27-28l-23-22-46-47q-8-8-16-16c-2.381-2.381-5.234-3.972-7-7-1.135.844-.145-0.127-1,1-4.118,2.391-6.726,6.726-10,10l-21,20v1l-52,51-17,18h-1l-24,25c-3.294,3.294-8.621,5.929-10,11,3.029,1.763,4.619,4.62,7,7q8.5,8.5,17,17l9,8,43,44,66,65L910,594l48,47,15,16c8.6,8.6,19.079,15.779,25,27h1v2h1v4c1.15,3.572,1,8.02,1,13v548Zm-750,0V764h-1L98,917,51,963v255q1.5,4.995,3,10h1l2,6c0.667,0.33,1.333.67,2,1v2c1.666,1.33,3.334,2.67,5,4,0.333,0.67.667,1.33,1,2h2c0.333,0.67.667,1.33,1,2h2c0.333,0.67.667,1.33,1,2h2v1c12.258,5.55,38.754,3,56,3H251ZM371,851c6.866-.111,13.816.412,18,3l1,2h2l3,4h1v2l2,1v2h1c3.266,7.266,2,19.854,2,30,0,29.969,3.962,48.519-20,56l-13-1v-1h-3v-1h-2l-1-2h-2l-3-4h-1v-2l-2-1v-2h-1v-2h-1c-2.707-6.849-1-27.589-1-37V871h1q0.5-3,1-6h1v-2l2-1v-2l4-3v-1c2.309-1.633,5.118-1.88,7-4h4v-1Zm125,0c6.866-.111,13.816.412,18,3q0.5,1,1,2h2l3,4h1v2l2,1v2h1c3.266,7.266,2,19.854,2,30,0,29.969,3.962,48.519-20,56l-13-1v-1h-3v-1h-2l-1-2h-2l-3-4h-1v-2l-2-1v-2h-1v-2h-1c-2.707-6.849-1-27.589-1-37V871h1q0.5-3,1-6h1v-2l2-1v-2l4-3v-1c2.309-1.633,5.118-1.88,7-4h4v-1Zm125,0c6.866-.111,13.816.412,18,3q0.5,1,1,2h2l3,4h1v2l2,1v2h1c3.266,7.266,2,19.854,2,30,0,29.969,3.962,48.519-20,56l-13-1v-1h-3v-1h-2q-0.5-1-1-2h-2l-3-4h-1v-2l-2-1v-2h-1v-2h-1c-2.707-6.849-1-27.589-1-37V871h1q0.5-3,1-6h1v-2l2-1v-2l4-3v-1c2.309-1.633,5.118-1.88,7-4h4v-1Zm125,0c6.866-.111,13.816.412,18,3q0.5,1,1,2h2l3,4h1v2l2,1v2h1c3.266,7.266,2,19.854,2,30,0,29.969,3.962,48.519-20,56l-13-1v-1h-3v-1h-2q-0.5-1-1-2h-2l-3-4h-1v-2l-2-1v-2h-1v-2h-1c-2.707-6.849-1-27.589-1-37V871h1q0.5-3,1-6h1v-2l2-1v-2l4-3v-1c2.309-1.633,5.118-1.88,7-4h4v-1Zm125,0c6.866-.111,13.816.412,18,3q0.5,1,1,2h2l3,4h1v2l2,1v2h1c3.266,7.266,2,19.854,2,30,0,29.969,3.962,48.519-20,56l-13-1v-1h-3v-1h-2q-0.5-1-1-2h-2l-3-4h-1v-2l-2-1v-2h-1v-2h-1c-2.707-6.849-1-27.589-1-37V871h1q0.5-3,1-6h1v-2l2-1v-2l4-3v-1c2.309-1.633,5.118-1.88,7-4h4v-1ZM301,1051v200H951V1051H301Z"/>
</svg>
