<svg xmlns="http://www.w3.org/2000/svg" viewBox="0 0 24 24"><path fill="#44739e" d="M12 2C6.477 2 2 6.477 2 12s4.477 10 10 10 10-4.477 10-10S17.523 2 12 2m3.728 14.142c-.907.836-2.143 1.327-3.619 1.327A5.467 5.467 0 0 1 6.644 12a5.467 5.467 0 0 1 5.467-5.471c1.472 0 2.709.542 3.657 1.425l-1.566 1.569c-.568-.543-1.288-.818-2.089-.818-1.425 0-2.63.962-3.061 2.255-.109.328-.171.678-.171 1.04s.062.712.171 1.039c.431 1.294 1.636 2.256 3.059 2.256.736 0 1.361-.195 1.85-.523a2.5 2.5 0 0 0 1.091-1.652h-2.941v-2.115h5.149q.097.539.098 1.118c0 1.667-.597 3.067-1.629 4.019"/></svg>