<svg xmlns="http://www.w3.org/2000/svg" width="24" height="24" viewBox="0 0 24 24">
  <path id="Colore_riempimento_1" fill="#44739e" data-name="Colore riempimento 1" class="cls-1" d="M 12.165,2 A 1.51,1.51 0 0 0 11.549,2.076 H 11.5 V 2.092 H 11.469 V 2.107 H 11.423 V 2.123 L 11.361,2.138 V 2.153 L 11.3,2.17 11.285,2.201 11.223,2.216 11.208,2.247 11.161,2.262 11.115,2.324 h -0.031 l -0.169,0.184 -0.261,0.247 v 0.03 H 10.638 L 10.607,2.832 10.207,3.216 9.441,4 9.164,4.262 a 3.466,3.466 0 0 1 -0.385,0.4 L 8.24,5.216 7.656,5.785 V 5.816 L 7.548,5.908 7.317,6.155 7.194,6.262 6.548,6.924 A 3.684,3.684 0 0 0 6.132,7.355 L 5.794,7.678 Q 5.431,8.047 5.07,8.417 A 4.076,4.076 0 0 0 4.609,8.894 l -0.4,0.385 -0.661,0.677 a 3.864,3.864 0 0 0 -0.431,0.446 l -0.108,0.093 -0.262,0.277 v 0.03 l -0.046,0.031 v 0.031 L 2.67,10.879 2.655,10.941 2.624,10.956 2.594,11.049 H 2.577 v 0.03 H 2.562 L 2.531,11.172 H 2.516 v 0.046 H 2.5 v 0.031 H 2.485 l -0.046,0.2 H 2.423 v 0.077 H 2.408 V 11.6 H 2.392 v 0.138 H 2.377 v 8.622 a 2.037,2.037 0 0 0 0.046,0.585 v 0.062 h 0.016 l 0.03,0.138 h 0.016 l 0.031,0.092 h 0.015 v 0.031 h 0.015 l 0.016,0.062 0.031,0.015 v 0.031 h 0.015 l 0.015,0.046 0.031,0.015 v 0.031 l 0.092,0.077 v 0.031 h 0.016 l 0.031,0.046 h 0.03 L 2.9,21.714 h 0.031 l 0.031,0.047 h 0.031 v 0.015 h 0.03 l 0.016,0.031 H 3.07 v 0.015 H 3.1 v 0.016 h 0.031 v 0.015 h 0.031 v 0.015 l 0.061,0.016 V 21.9 a 3.972,3.972 0 0 0 1.339,0.092 H 20.09 a 1.579,1.579 0 0 0 0.416,-0.03 h 0.077 v -0.016 l 0.107,-0.015 v -0.016 h 0.031 V 21.9 h 0.046 v -0.015 l 0.093,-0.031 v -0.015 h 0.031 v -0.016 l 0.092,-0.031 0.015,-0.03 h 0.031 l 0.015,-0.031 0.047,-0.016 0.061,-0.077 h 0.031 l 0.015,-0.03 0.047,-0.031 v -0.031 l 0.092,-0.077 v -0.031 l 0.031,-0.015 v -0.031 l 0.03,-0.015 0.016,-0.046 h 0.015 l 0.016,-0.062 h 0.015 v -0.031 h 0.015 l 0.031,-0.092 h 0.016 V 21.1 h 0.015 v -0.046 h 0.015 v -0.046 h 0.016 v -0.062 h 0.015 V 20.869 H 21.6 v -0.092 h 0.016 V 12.358 A 2.9,2.9 0 0 0 21.6,11.727 V 11.6 H 21.585 L 21.57,11.446 H 21.554 L 21.539,11.338 H 21.524 V 11.3 H 21.508 V 11.25 H 21.493 V 11.219 H 21.477 V 11.173 H 21.46 L 21.429,11.08 H 21.414 V 11.05 H 21.4 l -0.03,-0.093 -0.031,-0.015 -0.016,-0.062 -0.03,-0.015 v -0.031 l -0.046,-0.031 v -0.03 L 21.2,10.742 v -0.031 l -0.277,-0.262 -0.03,-0.046 H 20.877 V 10.372 L 20.369,9.88 19.785,9.28 a 3.583,3.583 0 0 1 -0.4,-0.416 L 18.893,8.387 17.2,6.664 16.338,5.817 V 5.786 L 16.292,5.756 16.215,5.663 14.827,4.294 A 3.678,3.678 0 0 0 14.412,3.863 L 14.288,3.724 13.642,3.093 12.9,2.324 H 12.87 L 12.823,2.262 H 12.8 L 12.784,2.231 h -0.03 L 12.738,2.201 12.692,2.185 V 2.17 L 12.63,2.154 V 2.139 L 12.569,2.124 V 2.108 H 12.523 V 2.093 H 12.492 V 2.077 Z M 17,17.375 H 7 V 12.8 l 3.663,-3.647 0.261,-0.277 h 0.031 L 11.017,8.799 11.155,8.676 V 8.649 l 0.123,-0.108 0.046,-0.062 a 2.045,2.045 0 0 0 0.262,-0.23 L 11.826,8 c 0.04,-0.04 0.059,-0.09 0.123,-0.107 a 1.256,1.256 0 0 0 0.216,0.215 c 0.14,0.141 0.284,0.35 0.492,0.416 l 0.2,-0.016 V 8.495 L 12.934,8.479 12.965,8.433 H 13 l 0.015,-0.03 h 0.016 V 8.372 L 13.077,8.341 13.092,8.264 H 13.1 l 0.015,-0.2 H 13.1 V 8.018 H 13.084 L 13.069,7.941 13.038,7.925 V 7.9 L 12.268,7.146 10.683,5.546 10.145,5.023 10.083,4.946 C 10.024,4.886 9.859,4.764 9.837,4.684 A 0.863,0.863 0 0 0 9.991,4.53 L 10.022,4.515 10.314,4.207 10.822,3.715 V 3.678 l 0.092,-0.077 0.185,-0.2 0.261,-0.246 0.262,-0.277 h 0.031 L 11.668,2.847 H 11.7 l 0.015,-0.031 h 0.031 V 2.8 l 0.093,-0.016 a 0.429,0.429 0 0 1 0.246,-0.03 l 0.184,0.061 0.016,0.031 a 3.822,3.822 0 0 1 0.569,0.539 l 0.339,0.323 a 3.864,3.864 0 0 0 0.431,0.446 l 0.661,0.677 0.416,0.4 a 3.278,3.278 0 0 0 0.369,0.385 l 0.508,0.523 0.631,0.616 v 0.031 l 0.123,0.107 0.247,0.262 1.157,1.145 a 3.864,3.864 0 0 0 0.431,0.446 l 0.677,0.693 0.4,0.384 a 3.1,3.1 0 0 0 0.354,0.37 l 0.477,0.492 a 2.446,2.446 0 0 1 0.739,0.939 v 0.062 a 1.413,1.413 0 0 1 0.03,0.4 V 15.7 H 20.829 L 15.489,10.345 14.581,9.452 14.165,9.021 h -0.03 L 14.119,8.99 14.042,8.975 V 8.957 l -0.2,-0.016 V 8.957 H 13.8 v 0.015 l -0.077,0.015 -0.031,0.047 h -0.03 l -0.016,0.03 H 13.631 V 9.1 L 13.6,9.11 v 0.031 h -0.015 c -0.015,0.021 -0.012,0.027 -0.016,0.062 -0.049,0.052 -0.029,0.228 0,0.292 h 0.016 V 9.526 A 1.286,1.286 0 0 0 13.8,9.741 l 0.077,0.093 0.385,0.369 1.923,1.939 0.816,0.8 z M 6.224,21.222 H 3.639 L 3.454,21.16 V 21.145 L 3.408,21.13 3.393,21.1 H 3.362 L 3.347,21.069 3.27,21.008 V 20.977 L 3.239,20.961 v -0.03 H 3.223 L 3.193,20.838 H 3.177 V 20.792 H 3.162 a 2.737,2.737 0 0 1 -0.015,-0.6 v -7.819 a 2.746,2.746 0 0 1 0.015,-0.6 V 11.681 H 3.177 V 11.619 H 3.193 L 3.223,11.48 H 3.239 L 3.27,11.388 H 3.285 L 3.3,11.327 3.331,11.311 V 11.28 l 0.031,-0.015 v -0.031 l 0.092,-0.077 a 3.466,3.466 0 0 1 0.385,-0.4 L 4.239,10.342 4.778,9.818 4.855,9.726 4.886,9.711 V 9.68 L 5.517,9.064 6.086,8.479 6.378,8.2 V 8.17 L 6.486,8.077 6.717,7.831 7.3,7.264 7.454,7.094 A 3.749,3.749 0 0 0 7.869,6.664 L 8.223,6.325 8.933,5.6 9.179,5.353 A 0.547,0.547 0 0 0 9.287,5.246 c 0.017,0.013 0,0 0.015,0.015 A 0.832,0.832 0 0 1 9.456,5.415 L 9.779,5.723 V 5.74 l 0.8,0.785 0.261,0.277 h 0.016 l 0.369,0.385 c 0.051,0.05 0.133,0.091 0.154,0.169 a 0.552,0.552 0 0 0 -0.108,0.108 l -0.261,0.261 -0.139,0.124 -0.662,0.677 -1.015,1 -1.57,1.585 -0.739,0.723 -0.231,0.247 A 1.85,1.85 0 0 0 6.27,12.496 H 6.255 v 0.031 H 6.24 v 0.061 a 0.688,0.688 0 0 0 -0.016,0.2 z m 11.543,0 v -7.5 h 0.015 l 2.339,2.355 0.723,0.708 v 3.924 l -0.046,0.154 h -0.015 l -0.031,0.092 -0.031,0.016 v 0.031 l -0.077,0.061 -0.015,0.031 H 20.6 l -0.015,0.031 h -0.031 l -0.015,0.03 h -0.031 v 0.016 a 2.8,2.8 0 0 1 -0.862,0.046 z M 15.92,15.066 a 0.56,0.56 0 0 0 -0.277,0.046 l -0.016,0.031 H 15.6 l -0.047,0.062 h -0.015 v 0.03 l -0.031,0.016 v 0.031 h -0.015 a 1.349,1.349 0 0 0 -0.031,0.461 c 0,0.462 -0.061,0.747 0.308,0.862 l 0.2,-0.015 v -0.016 h 0.046 v -0.015 h 0.031 l 0.015,-0.031 h 0.031 l 0.046,-0.061 h 0.016 v -0.031 l 0.03,-0.016 V 16.39 H 16.2 v -0.031 h 0.015 a 2.518,2.518 0 0 0 0.016,-0.57 V 15.374 H 16.215 L 16.2,15.282 h -0.016 v -0.031 l -0.03,-0.016 v -0.03 L 16.092,15.159 V 15.143 C 16.057,15.118 16.013,15.114 15.984,15.082 H 15.92 Z m -1.924,0 a 0.56,0.56 0 0 0 -0.277,0.046 l -0.015,0.031 h -0.031 l -0.046,0.062 h -0.016 v 0.03 l -0.03,0.016 v 0.031 h -0.016 a 1.349,1.349 0 0 0 -0.031,0.461 c 0,0.462 -0.061,0.747 0.308,0.862 l 0.2,-0.015 v -0.016 h 0.046 v -0.015 h 0.031 l 0.016,-0.031 h 0.03 l 0.047,-0.061 h 0.015 v -0.031 l 0.031,-0.016 v -0.03 h 0.015 v -0.031 h 0.015 a 2.518,2.518 0 0 0 0.016,-0.57 v -0.415 h -0.016 l -0.015,-0.092 h -0.015 v -0.031 l -0.031,-0.016 v -0.03 L 14.165,15.159 V 15.143 C 14.13,15.118 14.087,15.114 14.058,15.082 H 14 Z m -1.924,0 a 0.564,0.564 0 0 0 -0.277,0.046 l -0.015,0.031 h -0.031 l -0.046,0.062 h -0.015 v 0.03 l -0.031,0.016 v 0.031 h -0.015 a 1.324,1.324 0 0 0 -0.031,0.461 c 0,0.462 -0.061,0.747 0.308,0.862 l 0.2,-0.015 v -0.016 h 0.046 V 16.559 H 12.2 l 0.015,-0.031 h 0.031 l 0.046,-0.061 H 12.3 v -0.031 l 0.031,-0.016 v -0.03 h 0.015 v -0.031 h 0.016 a 2.581,2.581 0 0 0 0.015,-0.57 V 15.374 H 12.362 L 12.346,15.282 H 12.331 V 15.251 L 12.3,15.235 v -0.03 L 12.239,15.159 V 15.143 C 12.203,15.118 12.16,15.114 12.131,15.082 h -0.062 z m -1.923,0 A 0.56,0.56 0 0 0 9.872,15.112 L 9.856,15.143 H 9.826 L 9.779,15.205 H 9.764 v 0.03 l -0.031,0.016 v 0.031 H 9.718 a 1.349,1.349 0 0 0 -0.031,0.461 c 0,0.462 -0.061,0.747 0.308,0.862 l 0.2,-0.015 v -0.016 h 0.046 v -0.015 h 0.031 l 0.015,-0.031 h 0.031 l 0.046,-0.061 h 0.016 v -0.031 l 0.03,-0.016 v -0.03 h 0.016 v -0.031 h 0.015 a 2.518,2.518 0 0 0 0.016,-0.57 V 15.374 H 10.441 L 10.426,15.282 H 10.41 v -0.031 l -0.03,-0.016 v -0.03 L 10.318,15.159 V 15.143 C 10.282,15.118 10.239,15.114 10.21,15.082 h -0.061 z m -1.924,0 A 0.56,0.56 0 0 0 7.948,15.112 L 7.933,15.143 H 7.9 L 7.854,15.205 H 7.84 v 0.03 l -0.03,0.016 v 0.031 H 7.794 a 1.349,1.349 0 0 0 -0.031,0.461 c 0,0.462 -0.061,0.747 0.308,0.862 l 0.2,-0.015 v -0.016 h 0.046 v -0.015 h 0.031 l 0.016,-0.031 h 0.03 L 8.44,16.467 H 8.456 V 16.436 L 8.487,16.42 V 16.39 H 8.5 v -0.031 h 0.015 a 2.518,2.518 0 0 0 0.016,-0.57 V 15.374 H 8.517 L 8.5,15.282 H 8.487 V 15.251 L 8.456,15.235 v -0.03 L 8.394,15.159 V 15.143 C 8.359,15.118 8.316,15.114 8.287,15.082 H 8.225 Z M 17,18.144 v 3.078 H 7 v -3.078 z"/>
</svg>
