<?xml version="1.0" encoding="utf-8"?>
<!-- Generator: Adobe Illustrator 28.1.0, SVG Export Plug-In . SVG Version: 6.00 Build 0)  -->
<svg
   width="24"
   height="24"
   viewBox="0 0 24 24"
   version="1.1"
   xmlns="http://www.w3.org/2000/svg"
   xmlns:svg="http://www.w3.org/2000/svg">
   <path
     style="fill:#44739e"
     d="M23.4,9.5c-0.2,0-0.3,0.1-0.4,0.3l0,0l-1.1,2l-1.2-2c-0.1-0.2-0.3-0.2-0.4-0.2c-0.3,0-0.5,0.2-0.5,0.4c0,0.1,0,0.2,0.1,0.3l1.5,2.5v1.3c0,0.3,0.2,0.4,0.4,0.4s0.4-0.2,0.4-0.4v-1.3l0,0l1.4-2.4c0.1-0.1,0.1-0.2,0.1-0.3C23.9,9.7,23.6,9.5,23.4,9.5L23.4,9.5z M18.8,9.8c-0.1-0.2-0.2-0.3-0.5-0.3c-0.2,0-0.4,0.1-0.5,0.3l-1.7,4.1c0,0,0,0.1,0,0.2c0,0.2,0.2,0.4,0.4,0.4c0.2,0,0.3-0.1,0.4-0.3l0.3-0.7h2.1l0.3,0.7c0.1,0.2,0.3,0.3,0.4,0.3c0.3,0,0.5-0.2,0.5-0.4c0-0.1,0-0.1,0-0.2L18.8,9.8z M17.6,12.7l0.7-1.8l0.7,1.8H17.6z M15.2,13.7h-1.3V10c0-0.3-0.2-0.4-0.4-0.4C13.2,9.5,13,9.7,13,10v4.6h2.2c0.3,0,0.4-0.1,0.4-0.4C15.7,13.8,15.5,13.7,15.2,13.7z M10.9,9.5H7.8V13c0,0.8,0.7,1.5,1.5,1.5c0.8,0,1.5-0.7,1.5-1.5v-0.3h0.1c0.9,0,1.6-0.7,1.6-1.6C12.5,10.2,11.8,9.5,10.9,9.5L10.9,9.5z M10.9,11.9h-1V13c0,0.4-0.3,0.6-0.6,0.6S8.7,13.4,8.7,13v-2.6h2.2c0.4,0,0.7,0.3,0.7,0.7S11.3,11.9,10.9,11.9z M5.5,9.5C4.7,9.5,4,10.2,4,11v2c0,0.8,0.7,1.5,1.5,1.5C6.3,14.5,7,13.9,7,13v-2C7,10.2,6.3,9.5,5.5,9.5z M6.4,11v2c0,0.5-0.4,0.9-0.9,0.9c-0.5,0-0.9-0.4-0.9-0.9v-2c0-0.5,0.4-0.9,0.9-0.9C6,10.1,6.4,10.5,6.4,11z M1.6,9.5c-0.8,0-1.5,0.7-1.5,1.5V13c0,0.8,0.7,1.5,1.5,1.5s1.5-0.7,1.5-1.5v-0.8c0-0.2-0.1-0.3-0.3-0.3H1.7v0.6h0.9V13c0,0.5-0.4,0.9-0.9,0.9c-0.3,0-0.5-0.1-0.7-0.2c-0.2-0.2-0.3-0.4-0.3-0.7v-2c0-0.5,0.4-0.9,0.9-0.9c0.3,0,0.5,0.1,0.7,0.2c0.2,0.2,0.3,0.4,0.3,0.7v0.1c0,0.2,0.1,0.3,0.3,0.3c0.2,0,0.3-0.1,0.3-0.3V11C3.2,10.1,2.5,9.5,1.6,9.5z"
   />
</svg>
