<svg xmlns="http://www.w3.org/2000/svg" viewBox="0 0 24 24"><path fill="#44739e" d="M6.023 16.626h4.078l-.144-2.483h4.086l-.144 2.483h4.078l.448-7.546H5.575Zm15.654-8.585h-3.131A4.263 4.263 0 0 0 14.3 4.106h-.1a2.22 2.22 0 0 0-4.392 0H9.7a4.263 4.263 0 0 0-4.246 3.935H2.323a.323.323 0 1 0 0 .645h19.354a.323.323 0 1 0 0-.645M10.459 4.083a1.574 1.574 0 0 1 3.082 0ZM5.992 17.546a3.13 3.13 0 0 0 1.422 1.547v1.084a.97.97 0 0 1-.968.962.323.323 0 0 0 0 .645 1.613 1.613 0 0 0 1.613-1.607v-.942h7.882v.945a1.613 1.613 0 0 0 1.613 1.608.323.323 0 0 0 0-.646.97.97 0 0 1-.968-.962v-1.092A3.15 3.15 0 0 0 18 17.546l.011-.521h-12Z"/></svg>