<?xml version="1.0" encoding="UTF-8"?>
<svg width="24px" fill="#44739e" height="24px" viewBox="0 0 24 24" version="1.1" xmlns="http://www.w3.org/2000/svg" xmlns:xlink="http://www.w3.org/1999/xlink">
            <path d="M21.6,5.386H20.542a6.7,6.7,0,0,0,.069-.955H3.36a6.7,6.7,0,0,0,.069.955H2.463a.435.435,0,0,0,0,.869H3.614a7.77,7.77,0,0,0,4.1,4.738L4.256,20.448a.65.65,0,0,0,.388.835h0a.65.65,0,0,0,.835-.388l.951-2.6H17.11a1.766,1.766,0,1,0,1.653-.628.642.642,0,0,0-.034-.311l-2.347-6.422a7.75,7.75,0,0,0,3.975-4.676H21.6a.435.435,0,0,0,0-.869ZM18.479,18.162a1.245,1.245,0,1,1-1.244,1.245A1.244,1.244,0,0,1,18.479,18.162ZM17.21,16.99H6.906l2.009-5.5a9.707,9.707,0,0,0,3.071.493,9.664,9.664,0,0,0,3.2-.537Z"/>

</svg>