<?xml version="1.0" encoding="UTF-8"?>
<svg width="24px" fill="#44739e" height="24px" viewBox="0 0 24 24" version="1.1" xmlns="http://www.w3.org/2000/svg" xmlns:xlink="http://www.w3.org/1999/xlink">
            <path d="m 6.023,16.628 h 4.078 L 9.957,14.145 h 4.086 l -0.144,2.483 h 4.078 L 18.425,9.082 H 5.575 Z M 21.677,8.043 H 18.546 A 4.263,4.263 0 0 0 14.3,4.108 h -0.1 a 2.22,2.22 0 0 0 -4.392,0 H 9.7 A 4.263,4.263 0 0 0 5.454,8.043 H 2.323 a 0.323,0.323 0 1 0 0,0.645 h 19.354 a 0.323,0.323 0 1 0 0,-0.645 z M 10.459,4.085 a 1.574,1.574 0 0 1 3.082,0 z M 5.992,17.548 a 3.128,3.128 0 0 0 1.422,1.541 v 1.084 a 0.969,0.969 0 0 1 -0.968,0.968 0.323,0.323 0 0 0 0,0.645 1.615,1.615 0 0 0 1.613,-1.613 v -0.936 h 7.882 v 0.939 a 1.615,1.615 0 0 0 1.613,1.614 0.323,0.323 0 0 0 0,-0.646 0.969,0.969 0 0 1 -0.968,-0.968 V 19.084 A 3.147,3.147 0 0 0 18,17.548 l 0.011,-0.521 h -12 z"/>

</svg>
