<svg xmlns="http://www.w3.org/2000/svg" viewBox="0 0 24 24"><path fill="#44739e" d="m14.686 9.89-.03-.083-.032-.08-.03-.075-.032-.07-.032-.065-.033-.061-.031-.055-.034-.052-.048-.07-.049-.062-.048-.045-.066-.057-.063-.046-.047-.024-.034-.016-.063-.021-.067-.012h-.13l-.07.011-.072.019-.036.013-.036.015-.036.017-.071.04-.035.023-.069.051-.032.027-.034.031-.032.03-.06.064-.058.068-.054.074-.024.036-.046.076-.04.076-.036.078-.027.075-.023.076-.007.029.022.014.103.066.07.059.093.09.103.084.049.037.122.076.103.046.069.026.023.007.047.013.044.011.044.008.089.006h.042l.064-.005.094-.014.057-.015.061-.021.058-.024.081-.04.082-.05.074-.056.049-.04.089-.085.041-.045.041-.049-.013-.039Zm-.64-.188v.054l-.012.032-.008.025-.01.022-.013.022-.013.018-.016.019-.018.018-.02.015-.02.014-.022.011-.023.008-.023.007h-.113l-.012-.005-.023-.008-.022-.011-.021-.014-.019-.015-.017-.024-.017-.019-.013-.022-.012-.022-.012-.022v-.026l-.006-.025v-.106l.006-.024v-.037l.008-.012.012-.022.013-.021.017-.019.017-.018.019-.015.021-.015.01-.005.012-.006.023-.008.024-.007h.1l.024.007.023.008.022.011.02.015.02.015.018.018.02.019.013.021.013.022.01.023.008.026.007.024v.056Zm.156-.397v.05l-.006.008v.007l-.006.008-.006.005-.008.008h-.017l-.008.005h-.076l-.008-.005h-.016l-.009-.008-.003-.006h-.006l-.006-.007v-.12l.006-.009.006-.007.007-.007.008-.006h.007l.009-.005h.073l.009.005h.007l.009.006.006.007.006.007v.009l.005.008v.038Zm-3.533 1.004.047-.03.048-.034.046-.035.096-.084.073-.07.044-.038.028-.022.062-.04.058-.034-.018-.071-.011-.036-.025-.076-.015-.036-.019-.039-.046-.082-.045-.074-.025-.028-.055-.078-.088-.103-.064-.062-.032-.03-.067-.052-.034-.025-.035-.024-.072-.04-.037-.017-.035-.015-.036-.013-.073-.019-.033-.006-.067-.009h-.099L10.073 9l-.029.009-.05.019-.032.015-.032.018-.064.045-.049.043-.048.05-.066.08-.015.021-.033.049-.066.108-.032.059-.063.136-.031.074-.032.08-.031.085-.029.088-.013.04.044.053.02.021.092.091.048.042.077.058.03.019.027.018.027.016.087.044.058.024.063.021.03.009.031.007.064.013.066.006h.107l.085-.012.042-.008.041-.011.089-.031.044-.017.044-.022.045-.024Zm-.119-.605v.054l-.012.03-.008.025-.01.022-.014.022-.013.022-.016.02-.018.017-.019.015-.021.014-.022.011-.023.008-.023.007h-.113l-.012-.005-.023-.008-.022-.011-.019-.014-.021-.015-.017-.017-.016-.02-.014-.021-.012-.023-.012-.022V9.79l-.006-.026v-.11l.006-.024v-.026l.006-.011.006-.012.012-.022.014-.021.016-.019.017-.018.021-.015.019-.014.011-.005.011-.007.023-.008.024-.007h.101l.023.007.023.008.022.012.021.014.019.015.018.018.016.019.013.021.014.022.01.023.008.026.006.024v.056Zm.059-.294h-.025l-.008-.005h-.016l-.007-.007-.01-.021h-.006l-.007-.007v-.008l-.005-.01v-.086l.005-.008V9.25l.007-.009.006-.007.007-.007.007-.006h.007l.009-.005h.074l.008.005h.008l.008.006.006.007.006.007.005.009.005.008v.099l-.005.008-.005.007-.006.008-.006.005-.008.008h-.016l-.009.005h-.019Zm6.096 4.369-.012-.062-.013-.061-.015-.057-.022-.08-.028-.075-.031-.069-.023-.042-.025-.041-.011-.016-.03-.036-.031-.034-.05-.044-.04-.028-.066-.039-.047-.022-.052-.018-.058-.019-.029-.008-.099-.019-.034-.005-.115-.013-.038-.003-.087-.003h-.138l-.167.008-.085.007-.085.009-.085.01-.172.024-.173.03-.087.018-.088.019-.176.042-.178.049-.194.054-.105.029-.109.025-.536.12-.213.053-.162.046-.106.034-.107.038-.161.064-.05.023-.07.034-.006.016-.015.053-.015.052-.013.054-.012.055-.012.058-.01.058-.009.058-.008.062-.006.062-.006.065-.003.065-.002.066.009.067.008.065.005.064.003.065.002.065.001.062-.001.064-.004.063-.004.063-.006.062-.007.063-.009.062-.008.06-.011.063-.012.061-.012.061-.014.076-.012.076-.009.075-.008.076-.006.076-.005.075-.003.076-.003.076v.228l.003.076.005.152.007.152v.03l-.001.013-.002.014-.002.016-.004.014-.004.013-.005.016-.01.02-.011.023-.013.02-.016.023-.031.043-.03.042-.003-.119-.003-.144-.001-.157-.002-.164v-.166l.003-.158.003-.146.002-.064.004-.059.005-.08.007-.08.01-.082.012-.082.013-.06.011-.06.011-.061.008-.061.009-.062.006-.063.006-.063.004-.065.003-.064.004-.065v-.133l-.001-.068-.003-.068-.003-.069-.004-.068-.004-.055v-.054l.002-.054.002-.054.004-.053.007-.052.007-.052.01-.053.01-.051.013-.052.012-.052.015-.05.015-.052.017-.05.018-.049.018-.049.005-.018.003-.036-.002-.021-.011-.026-.006-.008-.018-.014-.026-.014-.01-.004-.051-.014-.028-.006-.031-.003-.033-.003-.035-.001h-.076l-.038.001-.079.006-.315.031-.068.004-.226.011-.099.002h-.092l-.09-.001-.123-.01-.079-.008-.079-.013-.078-.016-.044-.011-.125-.036-.045-.014-.095-.033-.101-.037-.281-.11-.051-.016-.108-.033-.113-.028-.179-.035-.185-.028-.279-.039-.069-.001-.075.004-.038.004-.087.007-.085.003h-.045l-.045-.004-.073-.01-.065-.018-.025-.009-.074-.031-.104-.039-.05-.015-.099-.026-.021-.003-.091-.008-.063.005-.021.003-.037.011-.042.015-.015.007-.037.023-.034.027-.018.018-.033.036-.035.046-.032.052-.032.062-.046.111-.027.086-.027.095-.013.052-.013.053-.022.117-.03.198-.018.146-.014.156-.012.171-.01.182-.004.096-.006.237.002.067.008.062.011.066.018.065.023.066.011.03.046.096.037.063.042.062.048.061.052.062.056.059.095.09.069.056.074.056.038.026.082.054.041.025.135.075.146.071.048.022.05.021.053.023.108.041.113.039.115.036.184.05.061.014.129.028.133.025.135.022.141.02.131.015.067.009.118.023.062.013.055.014.056.016.059.018.041.015.047.017.042.019.118.059.185.101.106.046.034.011.107.03.149.047.46.164.145.044.104.027.065.013.093.011.029.001h.025l.032-.002.029-.004.028-.007.035-.01.035-.017.025-.019.036-.037.004-.006.028-.051.016-.046.014-.059.006-.044.009-.074.013-.075.009-.033.008-.032.025-.045.038-.021h.017l.07-.019.084-.014.056-.006.065-.004h.124l.088.006.087.015.077.017.292.062.282.052.113.016.168.016.053.003.052.001h.049l.045-.002.044-.006.042-.007.055-.011.046-.017.029-.016.091-.053.131-.071.044-.022.086-.041.08-.035.157-.063.145-.052.331-.114.058-.022.115-.049.11-.058.052-.03.104-.076.051-.043.026-.024.077-.078.078-.091.078-.107.078-.124.055-.092.082-.155.044-.085.085-.148.04-.066.1-.178.027-.054.035-.08.017-.052.014-.057.005-.028.005-.029.003-.031.002-.032.001-.033v-.036l-.003-.076-.004-.041-.028-.228-.019-.142Zm-8.79-2.145-.032-.062-.029-.06-.026-.061-.023-.057-.025-.057-.019-.054-.021-.054-.015-.052-.017-.05-.014-.048-.011-.048-.012-.046-.007-.045-.007-.044-.005-.042-.004-.04-.001-.04v-.038l.001-.035.004-.035.004-.034.006-.032.007-.031.011-.029.009-.029.013-.027.013-.024.007-.014.005-.011.004-.009.002-.011.001-.011.002-.008-.002-.01-.001-.006-.002-.009-.003-.008-.003-.006-.005-.006-.006-.004-.006-.004-.006-.004-.006-.003-.008-.001-.007-.002h-.017l-.008.002-.009.002-.009.005-.009.004-.009.005-.008.007-.007.007-.01.009-.008.01-.008.011-.007.012-.007.015-.01.02-.01.022-.007.02-.007.022-.008.02-.007.022-.005.021-.004.022-.005.022-.004.022-.002.021-.003.022-.001.023-.001.023v.045l.001.022.001.024.004.045.007.046.009.048.012.047.013.047.016.049.018.048.019.05.022.049.023.049.027.05.026.051.031.05.029.051.033.05.035.053.035.051.037.052.039.053.04.053.042.053.042.052.044.054-.042-.07-.037-.066-.037-.068-.035-.065Zm8.614-1.021-.004-.022-.005-.022-.006-.021-.007-.022-.006-.02-.007-.022-.009-.02-.01-.022-.009-.02-.006-.015-.008-.012-.008-.011-.009-.01-.008-.009-.009-.007-.008-.007-.01-.005-.008-.004-.009-.005-.008-.002-.008-.002h-.016l-.008.002-.007.001-.007.003-.006.004-.006.004-.006.004-.004.006-.004.006-.003.008-.003.009-.001.006v.018l.001.011.004.011.003.009.005.011.006.014.015.024.011.027.011.029.008.029.009.031.006.032.005.034.003.035.001.035v.038l-.002.04-.004.04-.004.042-.007.044-.009.045-.01.046-.012.048-.012.048-.017.05-.017.052-.019.054-.021.054-.023.057-.025.057-.026.061-.029.06-.03.062-.033.063-.033.065-.036.068-.039.066-.04.07.044-.054.042-.052.041-.053.04-.053.039-.053.038-.052.035-.051.034-.053.031-.05.032-.051.029-.05.028-.051.024-.05.024-.049.022-.049.021-.05.017-.048.015-.049.014-.047.011-.047.01-.048.006-.046.005-.045.003-.046v-.045l-.001-.023-.003-.023-.001-.022-.004-.021ZM22 8.893V8.87l-.006-.01-.007-.009-.01-.01-.011-.011-.012-.009-.022-.008-.016-.009-.018-.01-.018-.008-.022-.007-.022-.008-.025-.009-.022-.006-.058-.014-.064-.012-.074-.01-.082-.01-.089-.008-.102-.009h-1.09l-.178.007-.164.006h-.164l-.334.008-.339.008h-.506l-.082.006-.082.007-.167.027h-.626l-.041-.008-.042-.007-.041-.008-.041-.01-.042-.012-.071-.019-.074-.019-.073-.02-.077-.014-.076-.012-.078-.01-.08-.007h-.167l-.045.007-.047.009-.046.012-.047.011-.047.014-.047.012-.047.008-.046.007h-.132l-.021-.006-.021-.006-.022-.01-.022-.015-.021-.013-.019-.013-.028-.02-.029-.022-.058-.035-.064-.041-.07-.04-.074-.041-.079-.04-.082-.04-.089-.04-.355-.318-.078-.085-.077-.084-.082-.092-.039-.039-.04-.041-.04-.038-.041-.039-.041-.035-.041-.037-.042-.034-.041-.034-.042-.033-.043-.032-.043-.031-.044-.028-.043-.029-.045-.027-.044-.023-.046-.024-.045-.021-.046-.019-.047-.018-.047-.016-.048-.017-.047-.011-.047-.005-.049-.007h-.27l-.042-.005h-.082l-.041-.007-.044-.007-.044-.008-.043-.011-.043-.009-.044-.033-.041-.011-.043-.014-.042-.014-.033-.013-.034-.011-.035-.01-.033-.01-.034-.008-.03-.011-.065-.014-.061-.012-.062-.012-.061-.014h-.211l-.028.006h-.029l-.027.011-.023.008-.024.007-.023.007h-.501l-.024-.007-.023-.007-.023-.008-.027-.011h-.029l-.029-.006h-.207l-.062.014-.061.012-.061.012-.067.014-.032.008-.034.008-.034.01L11 6.95l-.034.012-.034.013-.042.013-.042.015-.039.014-.043.011-.042.01-.044.01-.043.008-.044.007-.041.008h-.083l-.042.005h-.271l-.05.007-.048.008-.049.029-.047.013-.047.016-.046.018-.046.018-.046.022-.045.024-.044.023-.045.027-.044.029-.044.028-.043.031-.037.036-.042.033-.042.034-.042.037-.041.037-.04.036-.042.039-.04.038-.04.041-.045.035-.077.084-.078.084-.077.085-.355.318-.089.045-.083.04-.079.04-.073.041-.07.04-.033.022-.033.022-.059.042-.029.022-.028.021-.019.012-.021.013-.019.009-.022.01-.024.001-.021.006H7.68l-.047-.007-.046-.004-.048-.012-.046-.01-.047-.011-.047-.012-.046-.009-.045-.007h-.17l-.08.007-.077.01-.071.013-.08.009-.074.013-.074.019-.071.019-.041.012-.042.01-.041.008-.041.007-.042.015h-.623l-.166-.014-.082-.007-.086-.01h-.505l-.339-.007-.334-.009h-.165l-.164-.006-.177-.007H2.671l-.096.009-.09.009-.081.009-.074.01-.064.012-.03.008-.03.007-.025-.004-.024.007-.023.008-.021.007-.019.008-.017.01-.016.009-.015.008-.012.009-.011.011-.009.01-.007.015-.007.01v.08l.007.012.007.012.009.012.01.014.011.013.012.013.015.013.014.014.034.028.039.029.044.027.021.015.022.009.022.01.023.008.023.007.023.008.046.011.046.009.044.011.023.007.021.007.021.008.02.008.035.019.035.02.034.021.033.021.03.025.03.025.029.025.028.028.057.06.061.061.059.06.062.058.062.057.064.058.065.056.067.056.024.019.027.017.027.017.028.016.057.03.058.031.029.015.027.018.026.017.027.02.023.021.024.024.01.013.011.013.011.014.012.009.044.071.043.07.045.069.047.068.046.07.047.067.047.067.048.065.043.064.051.062.051.064.051.061.052.058.052.058.053.058.056.054.054.053.056.051.056.049.057.046.059.048.059.042.059.04.061.04.06.035.063.034.062.03.031.016.033.014.033.012.03.013.033.011.033.011.033.011.033.009.034.009.032.008h.382l.034.029.068.012.063.015.057.012.047.014.038.01.037.01.039.007.038.007h.076l.076.006h.299l.042-.006h.255l.049.006.05.009.05.011.049.011.049.013.048.016.049.017.048.017.048.019.047.022.048.02.043.019.042.017.042.016.044.013.087.026.087.025.084.024.085.023.085.022.084.02.169.04.17.036.019.007h.021l.019.006.022.007.039.016.04.018.012.008.043.029.067.041.082.048.044.026.047.025.048.025.048.026.047.022.046.02.044.018.041.014.034.017.035.017.035.017.036.015.073.031.08.044.075.028.08.026.08.026.066.021h.011l.069.021.017.005.084.024.167.046.166.047.084.024.084.024.032.006h.034l.034.008.034.007.035.01.035.01.072.021.072.024.076.025.074.024h.179l.205-.007.183-.011.314-.03.084-.005h.242l.039.007.069.02.035.016.047.028.029.026.023.029.011.018.009.017.044-.008.044-.007.042-.008.041-.008.08-.019.077-.019.074-.023.07-.022.067-.025.066-.023.126-.048.119-.047.055-.02.053-.019.052-.016.052-.018.05-.015.048-.013.097-.026.094-.023.083-.006.166-.038.078-.017.075-.021.035-.009.035-.011.034-.012.036-.014.031-.013.031-.014.03-.015.029-.015.028-.018.025-.019.027-.02.025-.021.574-.299.04-.017.039-.017.02-.007.021-.006h.02l.02-.006.169-.036.17-.04.084-.021.085-.021.083-.024.085-.024.087-.025.088-.026.043-.013.043-.016.042-.017.043-.019.047-.02.048-.022.048-.019.048-.017.047-.017.05-.015.048-.014.05-.011.049-.011.05-.008.05-.007h.254l.042.007h.303l.077-.007h.076l.038-.007.037-.007.039-.01.037-.009.048-.015.057-.012.063-.015.064-.021h.415l.033-.008.034-.01.032-.009.034-.01.033-.011.032-.012.031-.012.033-.012.031-.015.033-.015.062-.031.062-.034.06-.035.062-.04.058-.04.06-.042.058-.047.057-.046.057-.049.055-.052.055-.052.055-.054.053-.059.053-.057.051-.059.052-.06.051-.064.048-.091.049-.064.049-.065.047-.067.046-.067.046-.07.047-.068.045-.069.044-.07.044-.071.008-.013.01-.014.011-.013.011-.013.011-.012.013-.012.023-.021.027-.02.025-.017.028-.018.029-.015.057-.031.058-.031.028-.015.027-.017.026-.017.025-.019.066-.056.066-.056.064-.058.062-.057.062-.059.059-.059.061-.061.057-.06.027-.028.029-.026.03-.024.031-.025.033-.021.034-.021.034-.02.036-.019.019-.008.022-.008.021-.007.023-.007.044-.011.046-.009.046-.011.023-.008.022-.007.023-.008.022-.01.022-.009.022-.015.044-.028.039-.028.033-.028.015-.014.013-.013.014-.013L21.96 9l.009-.014.009-.012.008-.012.006-.012v-.057Zm-19.115.205-.039-.042-.041-.038-.037-.038-.037-.037-.035-.032-.034-.029-.03-.025h.348l.073.007.071.009.073.01.073.011.074.011.075.015.075.015.075.015.076.019.077.017.076.021.095.023.095.023.092.018.093.016.092.015.089.012.09.011.089.009.089.008.087.01.176.013.176.014.087.008.088.009.103.011.103.013.102.013.103.014.102.013.103.017.103.015.102.017.198.034.194.037.187.038.183.038.174.039.166.039.151.048.148.038.135.038.123.035.111.034.096.031h.015l.013.007.015.009.012.014.012.01.013.011.011.013.011.012.012.014.01.016.021.03.02.034.02.037.04.074.02.04.023.038.023.037.03.044.012.019.014.016.015.019.015.015-.005.06v.251l-.013-.024-.011-.021-.027-.05-.025-.071-.015-.05-.012-.052-.039-.147-.031-.086-.009-.019-.011-.019-.02-.032-.014-.014-.014-.013-.014-.011-.015-.009-.015-.007-.019-.006-.174-.041-.348-.086-.172-.046-.513-.131-.173-.042-.174-.039-.261-.055-.093-.017-.177-.031-.09-.014-.09-.012-.182-.023-.091-.01-.092-.008-.093-.008-.277-.016-.177-.013-.351-.035-.174-.021-.171-.024-.172-.027-.172-.028-.19-.034-.278-.043-.175-.022-.166-.015h-.077Zm5.752 3.058-.143-.049-.14-.047-.14-.049-.139-.045-.139-.041-.071-.021-.071-.021-.069-.019-.073-.019-.072-.018-.073-.018-.074-.016-.075-.016-.077-.014-.076-.012-.079-.014-.08-.01-.081-.01-.083-.008-.084-.008h-.735l-.07-.007-.072-.008-.071-.013-.069-.03-.073-.018-.071-.019-.038-.011-.036-.012-.038-.012-.037-.013-.037-.016-.041-.01-.039-.02-.037-.017-.039-.017-.038-.02-.039-.019-.037-.02-.039-.022-.039-.023-.04-.024-.037-.023-.039-.026-.04-.026-.04-.028-.04-.03-.04-.031-.04-.03-.04-.034-.041-.034-.042-.037-.041-.037-.041-.036-.041-.039-.043-.041-.043-.042-.043-.042-.042-.045-.043-.045-.043-.049-.042-.048-.043-.049-.044-.053-.045-.053-.044-.055-.046-.056-.048-.06-.044-.06-.047-.06-.049-.06-.035-.047-.034-.044-.032-.041-.031-.037-.029-.035-.028-.033-.028-.029-.026-.028-.023-.024-.024-.024-.045-.041-.042-.034-.034-.03-.07-.053-.032-.024-.031-.026-.031-.026-.014-.016-.016-.016-.011-.018-.02-.015-.015-.021-.016-.025-.019-.026-.023-.031-.027-.034-.03-.036-.068-.08-.038-.043.155.018.079.011.159.027.162.032.342.084.096.022.092.019.185.031.18.022.089.01.176.017.351.027.278.029.205.026.206.028.205.03.297.053.193.036.371.076.173.039.166.04.308.077.259.072.111.034.094.031.03.013.014.009.013.009.013.011.023.026.034.044.021.033.021.037.064.119.022.041.024.04.027.039.014.02.045.056.018.017.02.019v.069l.005.057.007.057.007.056.009.056.009.057.011.054.013.055.014.055.017.053v.159l.005.031v.033l.005.032.006.03.008.033.007.031.01.032.008.032.01.031.011.031.012.033.012.031.012.032.015.032.013.031.031.029.014.031.018.033.018.03.018.033.019.031.022.032.019.031.023.032.022.032.024.031.025.033.013.015Zm2.233-4.421.042-.032.041-.027.04-.026.039-.023.04-.023.039-.019.04-.02.038-.017.039-.016.038-.012.038-.012.038-.011.038-.01.037-.006.038-.006h.254l.035.006.037.007.035.008.035.012.035.011.033.012.035.015.034.015.035.015.037-.018.035-.016.035-.016.035-.014.034-.013.033-.011.032-.01.034-.008.032-.007h.033l.031-.007h.238l.026.005h.028l.028.007.027.006.026.009.027.008.026.008.026.012.026.01.051.024.048.025.04.021.04.023.039.025.039.025.038.026.038.027.075.053-.065-.03-.062-.028-.061-.026-.058-.023-.057-.022-.053-.017-.051-.018-.052-.014-.033-.008-.034-.009h-.031l-.033-.006h-.219l-.022.006h-.023l-.022.008-.022.008-.019.01-.021.009-.018.012-.018.013-.017.013-.017.015-.015.015-.016.016-.014.018-.016.023-.012.02-.013.019-.012.023-.01.023-.012.022-.01.026-.008.024-.009.027-.008.027-.007.03-.008.029-.006.03-.006.031v.099l-.007.07-.006.075v.62l.006.102.007.103v.058h-.055l-.006-.006-.005-.007v-.788l-.005-.084v-.121l-.032-.041-.005-.038v-.036l-.01-.029-.008-.035-.008-.033-.009-.034-.009-.036-.01-.031-.012-.03-.012-.027-.012-.027-.015-.027-.013-.028-.016-.023-.013-.018-.017-.021-.021-.019-.024-.021-.023-.017-.017-.009-.026-.013-.025-.011-.027-.01-.029-.008-.03-.006h-.216l-.041.007-.043.01-.046.012-.046.012-.047.016-.05.019-.052.019-.053.023-.056.026-.058.032-.059.03Zm1.628 2.668v-.036l-.006-.018-.007-.017-.01-.018-.024-.013-.012-.017-.012-.014-.012-.013-.014-.014-.014-.012-.016-.012-.016-.012-.018-.01-.018-.009-.021-.01-.02-.008-.022-.007-.024-.007h-.099v-.019h.162l.017.006.018.005.016.007.017.007.016.008.016.009.013.01.013.01.015.009.012.012.011.013.011.012.011.013.01.012.009.014.009.013.008.014.007.015.007.015.006.015v.015l.009.03v.125l-.005.009v.008l-.007.008-.008.009-.01.007-.013.007-.014.007-.016.006h-.076l.01-.007.028-.02.015-.013.016-.011.009-.008.007-.012.006-.011v-.073Zm-.968.049v.028l.005.013.006.011.007.011.009.008.016.012.015.013.029.02.009.007h-.075l-.016-.006-.014-.008-.013-.007-.009-.006-.009-.009-.008-.008-.006-.009v-.148l.005-.016.005-.014.007-.016.006-.014.007-.015.008-.015.008-.012.01-.014.009-.013.011-.012.011-.012.012-.014.012-.011.013-.009.014-.01.015-.011.014-.008.016-.008.016-.007.018-.007.017-.006.018-.006h.162-.106l-.023.007-.022.008-.02.007-.02.01-.019.009-.017.011-.018.011-.015.012-.014.012-.014.014-.012.013-.011.015-.013.016-.011.018-.008.018-.008.017-.007.019-.006.017v.067Zm.166-.017.041-.019h.065l.024.012.023.018.023.024.027.022.034.018.032.016-.077.015h-.112l-.034-.008-.031-.012-.042-.024-.025-.023Zm.256-.491h-.138l-.024.006.019-.015.018-.015.021-.015.01-.009.012-.007.013-.007.013-.007h.015l.017-.005h.181l.016.007.015.005.015.007.014.007.012.009.023.015.018.014.019.015-.062-.009-.057-.007-.056-.006h-.083Zm-.087-.216.012-.011.013-.013.014-.014.014-.013.009-.006h.009l.01-.006h.131l.011.006.011.005.008.006.018.012.015.015.013.012.011.011-.04-.007-.039-.006-.036-.005h-.111l-.036.007h-.017Zm.251.773.029-.021.014-.01.044-.041.022-.011h.069l.021.009.019.01.052.038-.038.031-.027.016-.031.013-.034.008h-.133l-.058-.011ZM9.031 8.494l-.028.042-.024.043-.024.044-.023.046-.021.048-.019.045-.018.05-.014.052-.016.054.005-.054.011-.055.011-.056.014-.051.015-.052.016-.051.018-.049.021-.047.023-.049.023-.045.027-.043.027-.043.03-.041.016-.019.016-.014.034-.038.016-.018.02-.018.018-.017.02-.012.02-.017.021-.015.021-.015.022-.016.023-.019.022-.015.024-.014.023-.012.025-.013.026-.013.052-.023.055-.021.058-.018.063-.019.032-.007.031-.008.067-.013.066-.011.072-.009.074-.006h.076l.057-.011.052-.011.049-.011.045-.012.041-.015.039-.014.035-.016.034-.015.027-.022.028-.016.029-.018.027-.018.051-.036.049-.037-.034.04-.035.038-.034.036-.035.033-.035.031-.034.028-.035.026-.034.023-.034.021-.034.018-.035.016-.034.012-.035.01h-.104l-.068.006-.066.007-.064.008-.061.012-.06.012-.057.014-.053.029-.056.013-.051.021-.051.019-.047.026-.046.024-.044.025-.043.027-.041.028-.04.029-.037.032-.037.033-.034.035-.032.035-.032.038-.03.039Zm.114 1.294-.005.022v.029h-.034v-.006l-.008-.015-.008-.019-.02-.022-.005-.027v-.411l.009-.057.01-.057.017-.053.015-.053.018-.05.018-.05.022-.052.022-.048.024-.047.026-.045.024-.044.029-.042.031-.039.043-.043.033-.036.037-.036.032-.031.039-.03.04-.031.041-.028.043-.026.042-.024.046-.023.046-.021.051-.022.048-.016.051-.015.033-.008.034-.007h.035l.034-.005h.247l.038.005.074.008.075.012.076.015.079.015.16.031.081.016.084.017.086.013.087.011h.041l.02.007.021.007.021.007.021.009.02.011.021.011.019.012.022.014.021.014.019.015.021.018.019.018.018.018.021.02.018.02.019.022.019.023.019.022.017.025.019.026.017.024.017.028.017.028.017.027.016.03.016.031.015.031.015.03.016.033.013.034-.019-.011-.019-.012-.018-.014-.018-.015-.036-.024-.035-.033-.034-.034-.034-.033-.031-.034-.032-.033-.03-.028-.009-.014-.019-.011-.014-.012-.014-.009-.015-.008-.013-.007-.012-.006h-.065l-.011.007-.012.01.022.034.02.035.02.034.021.035.017.036.017.036.017.037.014.036.016.037.012.038.011.037.011.038.01.038.007.039.006.038.005.039-.038-.061-.037-.057-.039-.054-.04-.05-.04-.051-.04-.047-.041-.045-.041-.044-.043-.041-.042-.039-.043-.036-.041-.037-.042-.032-.044-.03-.045-.029-.043-.024-.044-.024-.044-.021-.043-.02-.044-.017-.045-.009-.044-.013-.043-.011-.046-.011-.044-.007-.043-.005h-.217l-.043.006-.045.006-.043.01-.044.011-.042.012-.043.016-.041.016-.041.021-.04.02-.04.024-.039.025-.038.027-.036.03-.036.029-.035.033-.034.037-.032.032-.031.039-.031.042-.03.045-.023.049-.026.049-.027.05-.023.052-.027.055-.021.058-.019.059-.017.061-.017.064-.015.066-.014.067-.009.071-.01.073Zm1.353.821-.053.016-.053.014-.05.01-.102.013h-.208l-.038-.006-.038-.008-.038-.01-.032-.012-.071-.024-.072-.029-.063-.032-.034-.02-.034-.02-.034-.019-.036-.022-.086-.067-.057-.048-.102-.103-.068-.08-.042-.054-.034-.044.048-.155.032-.092.037-.089.033-.085.035-.082.068-.145.036-.067.072-.12.034-.057.039-.05.059-.07.058-.061.059-.05.02-.017.064-.042.06-.032.043-.02.062-.021.027-.007.084-.016h.129l.082.01.043.009.084.022.048.017.044.018.043.022.084.047.042.028.04.028.079.063.071.064.039.04.102.114.06.082.028.043.05.083.048.089.022.046.018.044.035.092.024.085.012.049.009.046.015.116-.139.072-.035.021-.052.034-.02.016-.038.032-.069.067-.103.094-.052.04-.053.037-.052.034-.052.03-.053.029-.054.027-.052.02Zm2.07 1.459-.04-.023-.04-.019-.04-.019-.039-.018-.04-.016-.039-.014-.039-.012-.038-.012-.039-.01-.039-.008-.037-.007-.039-.005h-.223l-.036.005-.037.007-.034.008-.036.01-.035.012-.036.012-.035.015-.035.016-.035.018-.034.019-.033.02-.034.023-.034.024.011-.022.013-.023.013-.021.013-.021.014-.019.015-.019.015-.017.017-.016.017-.015.017-.012.018-.013.019-.011.021-.01.022-.007.02-.008h.023l.042-.007h.039l.042-.013h.363l.042.005h.04l.041.007.04.007.024.007.022.008.022.008.019.01.021.013.017.012.018.014.016.016.016.017.015.017.013.016.015.018.025.038.027.039Zm.821-.181-.039-.012-.041-.012-.046-.016-.05-.018-.053-.02-.056-.024-.06-.028-.059-.03-.061-.034-.032-.019-.033-.02-.028-.019-.033-.022-.031-.02-.034-.02-.037-.018-.04-.017-.041-.015-.045-.016-.046-.012-.048-.013-.052-.013-.053-.01-.052-.008-.055-.008-.056-.007h-.405l-.057.005-.056.007-.057.008-.054.011-.053.013-.051.013-.051.017-.048.017-.047.019-.022.012-.021.011-.021.011-.021.012-.019.012-.019.014-.026.018-.029.018-.03.019-.032.016-.031.019-.036.018-.036.018-.039.019-.035.015-.041.018-.088.036-.096.036-.103.036.047-.019.045-.019.043-.021.043-.021.042-.023.04-.023.04-.022.039-.022.075-.047.072-.044.065-.041.063-.038.046-.026.045-.023.047-.023.046-.023.048-.02.047-.021.047-.019.05-.016.048-.016.049-.015.05-.014.05-.011.05-.009.05-.008.052-.006h.258l.051.006.053.008.052.011.054.014.053.017.052.019.055.022.052.025.053.026.055.031.025.018.027.016.053.037.029.019.035.023.04.026.044.024.096.056.103.054.096.05.082.042.061.032.022.008h.011Zm1.469-1.729-.044.052-.046.051-.05.05-.053.048-.107.085-.034.024-.093.056-.063.033-.034.016-.067.027-.071.024-.072.018-.072.013h-.037l-.075.006h-.102l-.053-.001-.053-.009-.053-.013-.079-.022-.03-.01-.055-.022-.111-.053-.084-.051-.111-.078-.025-.021-.089-.073-.093-.09-.057-.049-.021-.013-.066-.041-.038-.019-.102-.052.015-.123.009-.047.017-.086.015-.051.035-.091.04-.087.046-.086.053-.088.029-.044.06-.08.065-.077.069-.074.036-.033.038-.034.04-.033.078-.059.043-.027.082-.046.046-.023.045-.019.046-.015.086-.022.082-.014h.175l.085.017.043.013.042.015.065.031.062.037.062.045.081.073.057.063.055.069.02.028.035.051.039.062.035.062.036.066.035.072.034.074.032.08.034.085.032.086.032.094.05.156Zm.177-.582v.174l-.019.027V9.8l-.008.02-.006.014v.006h-.017v-.012l-.006-.017-.034-.023v-.027l-.009-.073-.01-.071-.012-.064-.015-.066-.016-.064-.018-.061-.018-.059-.022-.058-.022-.055-.024-.052-.025-.05-.027-.049-.028-.047-.029-.045-.031-.042-.033-.041-.033-.038-.034-.037-.036-.027-.036-.032-.037-.03-.037-.027-.039-.025-.04-.024-.04-.02-.04-.021-.039-.02-.042-.016-.043-.012-.043-.011-.043-.01-.045-.006-.043-.006h-.218l-.043.005-.044.007-.044.011-.045.011-.043.013-.044.016-.045.017-.044.02-.044.021-.044.024-.043.024-.044.029-.043.03-.049.032-.043.033-.042.037-.041.039-.043.041-.041.044-.04.045-.041.047-.04.051-.039.054-.039.054-.038.057-.038.061v-.039l.006-.038.007-.039.011-.038.01-.038.011-.037.014-.038.013-.037.015-.036.017-.037.017-.036.019-.035.019-.036.02-.034.021-.035.022-.034-.012-.01-.013-.007h-.057l-.014.006-.013.007-.014.008-.014.009-.015.011-.013.011-.016.014-.031.028-.031.033-.031.034-.034.033-.034.034-.035.033-.035.03-.017.015-.02.014-.018.012-.021.016.014-.033.014-.033.014-.031.017-.031.015-.031.017-.029.016-.028.018-.028.017-.028.017-.024.018-.026.017-.024.019-.023.018-.023.02-.022.019-.02.02-.02.019-.018.019-.018.02-.018.022-.015.019-.013.021-.015.019-.012.022-.011.019-.01.022-.01.019-.007.022-.007.021-.006h.042l.086-.012.085-.013.084-.016.082-.017.16-.03.078-.016.076-.014.075-.013.075-.008.037-.005h.247l.035.005h.034l.034.007.034.009.05.014.048.016.047.019.049.021.045.023.043.025.043.025.042.028.04.031.039.031.037.033.036.036.035.036.032.04.031.039.03.042.028.043.026.046.024.046.023.041.019.049.02.05.017.053.014.053.015.054.017.056.008.057.009.058v.122Zm.176-.821-.02-.047-.02-.048-.022-.046-.024-.044-.026-.043-.027-.042-.024-.031-.032-.039-.031-.038-.032-.035-.035-.035-.035-.033-.038-.032-.034-.029-.041-.028-.042-.027-.044-.025-.046-.024-.05-.023-.049-.019-.051-.021-.055-.016-.056-.015L14.32 8l-.059-.012-.062-.011-.063-.009-.066-.007-.068-.006h-.138l-.034-.012-.035-.017-.034-.017-.035-.022-.033-.022-.041-.047-.033-.028-.036-.031-.035-.033-.034-.036-.037-.038-.035-.04.05.037.052.036.025.018.028.018.031.017.031.015.033.015.035.016.039.014.042.014.045.013.048.011.053.011.057.011h.076l.073.006.071.009.068.011.067.013.03.008.032.007.06.018.057.019.056.02.052.024.025.013.023.013.026.012.024.014.022.015.023.014.021.015.021.016.02.015.02.017.02.017.019.017.018.018.018.016.034.038.032.038.016.022.014.019.028.042.026.044.024.045.022.046.02.047.018.049.017.051.015.052.014.051.011.056.01.054.01.056-.014-.051-.017-.051Zm5.86.422-.038.043-.036.042-.034.041-.032.038-.028.035-.024.031-.019.029-.015.02-.017.022-.014.018-.017.019-.015.015-.014.016-.031.027-.031.026-.033.023-.069.053-.039.031-.041.033-.021.02-.022.02-.024.025-.025.025-.027.026-.025.03-.029.033-.03.035-.031.038-.031.04-.034.044-.035.048-.043.075-.046.062-.045.059-.045.058-.045.055-.045.056-.045.053-.044.052-.043.05-.044.048-.042.048-.045.046-.042.045-.043.043-.042.043-.042.04-.042.04-.041.038-.041.036-.042.037-.041.034-.04.033-.04.032-.04.031-.041.024-.04.03-.04.027-.039.026-.04.026-.038.024-.039.022-.038.023-.039.021-.038.02-.038.019-.039.019-.037.016-.038.016-.037.015-.038.014-.036.015-.038.012-.036.011-.038.012-.072.019-.037.008-.035.008-.073.014-.071.011-.072.008h-.783l-.08.006-.08.009-.079.008-.077.01-.076.012-.076.014-.073.015-.073.016-.073.016-.071.017-.072.02-.071.019-.071.02-.14.044-.14.044-.139.047-.284.094-.146.048-.148.045-.039.011.027-.03.023-.033.024-.032.023-.033.022-.032.02-.033.02-.031.02-.033.017-.032.017-.033.017-.032.016-.031.016-.032.013-.033.01-.025.013-.033.011-.031.011-.033.009-.032.011-.033.009-.032.007-.03.007-.033.006-.032.007-.033v-.032l.005-.033v-.031l.005-.065v-.064l.016-.054.014-.053.014-.056.011-.055.011-.056.008-.056.006-.057.006-.056.005-.058v-.055l.035-.032.033-.032.046-.056.04-.059.047-.081.043-.08.02-.039.02-.036.037-.036.022-.03.025-.028.024-.023.026-.018.031-.013.095-.031.111-.034.258-.073.146-.038.158-.039.164-.04.176-.039.181-.038.189-.037.192-.036.199-.036.103-.017.205-.031.205-.028.205-.025.103-.011.175-.018.35-.027.178-.017.089-.01.18-.023.185-.03.092-.019.436-.102.082-.017.16-.03.159-.023.136-.016Zm.308-.308-.033.029-.035.032-.035.047-.039.038-.04.041-.04.043h-.062l-.165.015-.177.022-.185.036-.285.049-.172.028-.169.026-.173.024-.172.021-.176.018-.175.017-.179.013-.276.016-.092.008-.092.008-.092.01-.182.023-.09.012-.09.014-.177.031-.089.017-.262.055-.173.039-.173.042-.513.131-.173.046-.346.086-.178.041-.027.002-.015.007-.015.009-.014.01-.013.014-.024.031-.01.016-.017.037-.01.022-.021.065-.039.146-.027.102-.016.05-.011.023-.008.024-.033.065-.033.052v-.288l-.006-.061v-.007l.016-.016.013-.016.014-.018.014-.019.025-.037.023-.037.022-.038.021-.04.04-.074.02-.037.02-.033.02-.031.011-.016.01-.014.012-.012.012-.013.019-.013.013-.01.014-.009.013-.01.014-.007h.015l.097-.031.109-.033.124-.035.136-.038.143-.047.158-.04.165-.039.174-.039.182-.037.189-.038.193-.037.198-.035.102-.017.103-.015.102-.017.103-.013.103-.014.102-.013.103-.013.103-.011.087-.008.088-.009.174-.014.176-.013.088-.01.089-.008.089-.009.09-.011.09-.012.092-.015.092-.015.089-.011.095-.022.096-.024.077-.02.076-.02.077-.016.076-.018.077-.013.075-.014.074-.013.072-.011.074-.01.073-.007.073-.008h.351Z"/></svg>