<svg xmlns="http://www.w3.org/2000/svg" fill="#44739e" width="24" height="24" version="1.1" viewBox="0 0 24 240"><path d="m 15.939,17.257 0.058,0.147 0.024,-0.284 -0.145,0.02 z m -0.692,0.357 0.294,-0.016 0.049,-0.439 -0.298,0.023 z m 1.498,-0.417 0.069,0.148 0.03,-0.284 -0.141,0.018 z m -0.698,0.353 0.294,-0.016 0.05,-0.44 -0.299,0.023 z m -0.92,-0.229 0.069,0.148 0.024,-0.282 -0.146,0.018 z m -2.206,0.495 0.294,-0.016 0.049,-0.44 -0.298,0.024 z m -0.119,-0.294 0.07,0.147 0.023,-0.283 -0.144,0.018 z m 4.062,-0.031 0.294,-0.017 0.049,-0.439 -0.298,0.024 z m -2.401,0.183 0.295,-0.017 0.049,-0.439 -0.297,0.025 z m -0.12,-0.293 0.07,0.148 0.025,-0.283 -0.145,0.018 z m -0.798,0.083 0.07,0.145 0.023,-0.283 -0.145,0.018 z m -1.389,0.415 0.294,-0.015 0.049,-0.44 -0.298,0.023 z m 1.508,-0.123 0.294,-0.016 0.049,-0.44 -0.298,0.023 z m 1.649,-2.182 a 0.082,0.082 0 0 0 -0.066,-0.033 l -0.138,0.011 -0.063,0.221 a 0.1,0.1 0 0 1 -0.067,0.053 l -1.316,0.126 a 0.057,0.057 0 0 1 -0.026,0 c -0.007,0 -0.012,-0.019 0,-0.04 l 0.068,-0.236 0.008,-0.005 -0.227,0.018 a 0.124,0.124 0 0 0 -0.107,0.087 l -0.111,0.535 a 0.127,0.127 0 0 0 0.006,0.094 0.052,0.052 0 0 0 0.036,0.008 l 1.83,-0.153 c 0.03,0 0.086,-0.057 0.1,-0.11 l 0.1,-0.492 a 0.089,0.089 0 0 0 -0.028,-0.083 z m -2.55,-1.151 a 0.1,0.1 0 0 0 -0.076,-0.035 h -0.008 l -0.2,0.013 -0.056,0.191 a 0.1,0.1 0 0 1 -0.068,0.051 l -1.315,0.124 a 0.042,0.042 0 0 1 -0.027,0 c -0.009,0 -0.014,-0.02 -0.007,-0.04 l 0.068,-0.229 -0.194,0.013 a 0.1,0.1 0 0 0 -0.09,0.083 l -0.077,0.5 a 0.106,0.106 0 0 0 0.024,0.082 0.1,0.1 0 0 0 0.081,0.032 l 1.753,-0.117 a 0.1,0.1 0 0 0 0.091,-0.076 l 0.115,-0.5 a 0.1,0.1 0 0 0 -0.016,-0.091 z m 2.761,-0.202 A 0.08,0.08 0 0 0 15.46,14.193 v 0 l -0.217,0.017 c 0,0.007 0.01,0.012 0.007,0.021 l -0.06,0.216 a 0.1,0.1 0 0 1 -0.068,0.052 l -1.315,0.126 a 0.045,0.045 0 0 1 -0.028,0 c -0.01,0 -0.015,-0.019 -0.01,-0.039 L 13.84,14.35 c 0,-0.014 0.03,-0.02 0.053,-0.029 l -0.2,0.016 a 0.124,0.124 0 0 0 -0.109,0.088 l -0.111,0.533 a 0.123,0.123 0 0 0 0.006,0.094 c 0.007,0.01 0.025,0.01 0.038,0.01 l 1.831,-0.154 c 0.03,0 0.084,-0.058 0.1,-0.113 l 0.1,-0.491 a 0.086,0.086 0 0 0 -0.018,-0.08 z m 1.988,2.906 0.069,0.141 0.024,-0.282 -0.146,0.017 z m 0.713,-1.78 A 0.068,0.068 0 0 0 18.167,15.32 l -0.2,0.012 -0.07,0.215 a 0.1,0.1 0 0 1 -0.072,0.052 l -1.389,0.1 a 0.051,0.051 0 0 1 -0.03,0 c -0.007,0 -0.012,-0.019 0,-0.04 l 0.073,-0.224 -0.155,0.011 a 0.071,0.071 0 0 0 -0.064,0.053 l -0.1,0.374 a 0.069,0.069 0 0 0 0.012,0.063 l 0.14,0.183 a 0.074,0.074 0 0 0 0.06,0.027 l 0.7,-0.053 0.627,-0.031 a 0.061,0.061 0 0 0 0.037,-0.015 l 0.377,-0.267 a 0.078,0.078 0 0 0 0.026,-0.036 l 0.109,-0.328 A 0.07,0.07 0 0 0 18.222,15.35 Z m 2.265,-0.702 a 0.179,0.179 0 0 1 -0.141,-0.057 0.176,0.176 0 0 1 -0.04,-0.148 l 0.02,-0.1 v -0.01 h -0.007 l -0.711,0.053 -0.01,0.007 -0.05,0.171 a 0.175,0.175 0 0 1 -0.152,0.121 l -0.3,0.022 a 0.01,0.01 0 0 0 -0.01,0.008 l -0.171,0.675 a 0.083,0.083 0 0 0 0.086,0.1 l 1.324,-0.09 a 0.161,0.161 0 0 0 0.146,-0.124 l 0.154,-0.619 v -0.01 L 20.61,14.636 Z m 1.292,-1.082 v 0 c -0.224,-0.2 -2.518,-0.511 -6.667,-0.284 -4.906,0.269 -7.348,1.02 -7.592,1.19 a 2.79,2.79 0 0 0 -1.061,3.153 c 0.02,0.079 0.121,0.108 0.2,0.1 1.241,-0.108 13,-1.169 14.562,-1.306 a 0.4,0.4 0 0 0 0.31,-0.187 c 0.407,-0.646 0.677,-2.289 0.248,-2.666 z M 8.561,16.558 a 0.654,0.654 0 0 1 -0.459,-0.173 0.556,0.556 0 0 1 -0.171,-0.452 0.815,0.815 0 0 1 0.8,-0.7 0.654,0.654 0 0 1 0.5,0.193 0.561,0.561 0 0 1 0.15,0.44 0.831,0.831 0 0 1 -0.82,0.692 z m 4.19,-0.615 -0.062,0.478 a 0.335,0.335 0 0 1 -0.211,0.231 l -0.013,0.006 -1.829,0.141 h -0.01 a 0.273,0.273 0 0 1 -0.235,-0.307 v -0.005 l 0.087,-0.537 a 0.258,0.258 0 0 1 0.236,-0.221 l 1.758,-0.12 a 0.265,0.265 0 0 1 0.213,0.093 0.3,0.3 0 0 1 0.074,0.248 z m 0.2,-1.4 v 0.005 l -0.117,0.5 a 0.258,0.258 0 0 1 -0.236,0.2 l -1.754,0.117 H 10.82 a 0.26,0.26 0 0 1 -0.26,-0.259 0.209,0.209 0 0 1 0,-0.043 l 0.077,-0.5 a 0.261,0.261 0 0 1 0.24,-0.221 l 1.794,-0.118 a 0.26,0.26 0 0 1 0.277,0.241 0.248,0.248 0 0 1 -0.002,0.081 z m 2.2,1.877 -1.83,0.156 H 13.3 A 0.192,0.192 0 0 1 13.148,16.51 0.26,0.26 0 0 1 13.107,16.278 l 0.111,-0.534 a 0.285,0.285 0 0 1 0.253,-0.215 l 1.768,-0.14 a 0.24,0.24 0 0 1 0.2,0.086 0.247,0.247 0 0 1 0.055,0.215 l -0.1,0.492 a 0.306,0.306 0 0 1 -0.246,0.241 z m 0.565,-2.079 h -0.01 l -0.1,0.492 a 0.308,0.308 0 0 1 -0.242,0.241 l -1.83,0.151 h -0.02 A 0.193,0.193 0 0 1 13.362,15.161 0.263,0.263 0 0 1 13.32,14.928 l 0.111,-0.533 a 0.287,0.287 0 0 1 0.253,-0.217 l 1.778,-0.136 a 0.243,0.243 0 0 1 0.261,0.223 0.255,0.255 0 0 1 -0.01,0.079 z m 2.663,1.123 -0.108,0.327 a 0.23,0.23 0 0 1 -0.081,0.108 l -0.374,0.268 a 0.223,0.223 0 0 1 -0.114,0.039 l -0.625,0.032 -0.7,0.053 H 16.36 a 0.211,0.211 0 0 1 -0.168,-0.082 l -0.138,-0.181 a 0.214,0.214 0 0 1 -0.038,-0.189 l 0.1,-0.374 a 0.216,0.216 0 0 1 0.193,-0.157 l 1.846,-0.13 a 0.217,0.217 0 0 1 0.22,0.283 z m 2.41,-0.765 -0.153,0.619 a 0.318,0.318 0 0 1 -0.292,0.244 l -1.325,0.091 H 19 a 0.243,0.243 0 0 1 -0.243,-0.243 0.238,0.238 0 0 1 0.007,-0.059 l 0.17,-0.674 a 0.173,0.173 0 0 1 0.156,-0.131 l 0.3,-0.02 a 0.011,0.011 0 0 0 0.01,-0.009 l 0.052,-0.166 a 0.168,0.168 0 0 1 0.15,-0.122 l 0.711,-0.055 a 0.175,0.175 0 0 1 0.184,0.209 l -0.022,0.1 V 14.5 h 0.01 l 0.126,-0.008 a 0.171,0.171 0 0 1 0.143,0.062 0.167,0.167 0 0 1 0.041,0.151 z m -3.158,2.719 0.293,-0.02 0.05,-0.441 -0.298,0.023 z m 0.616,-0.353 0.07,0.146 0.024,-0.283 -0.146,0.018 z m 0.12,0.293 0.293,-0.02 0.04,-0.442 -0.298,0.02 z M 8.75,15.493 v 0 H 8.736 A 0.547,0.547 0 0 0 8.198,15.945 0.29,0.29 0 0 0 8.285,16.183 0.414,0.414 0 0 0 8.626,16.277 0.55,0.55 0 0 0 9.111,15.828 0.283,0.283 0 0 0 9.033,15.6 0.376,0.376 0 0 0 8.75,15.493 Z m 11.52,1.741 0.293,-0.023 0.059,-0.515 -0.299,0.024 z m -0.163,-0.285 0.109,0.202 0.036,-0.429 -0.268,0.033 z M 12.553,15.8 a 0.1,0.1 0 0 0 -0.076,-0.04 h -0.006 l -0.169,0.013 c 0,0.006 0.01,0.01 0.007,0.02 l -0.061,0.236 a 0.1,0.1 0 0 1 -0.067,0.056 l -1.316,0.132 a 0.042,0.042 0 0 1 -0.027,0 c -0.008,0 -0.012,-0.02 -0.006,-0.044 L 10.9,15.917 a 0.089,0.089 0 0 1 0.073,-0.043 l -0.257,0.017 a 0.1,0.1 0 0 0 -0.088,0.083 l -0.08,0.536 a 0.115,0.115 0 0 0 0.1,0.131 v 0 l 1.778,-0.139 a 0.18,0.18 0 0 0 0.107,-0.107 l 0.062,-0.477 A 0.14,0.14 0 0 0 12.555,15.8 Z M 6.813,18.509 7.062,18.482 7.105,17.917 6.83,17.938 Z M 8.97,18.141 9.263,18.125 9.312,17.684 9.016,17.709 Z M 8.852,17.847 8.92,17.995 8.944,17.712 8.798,17.73 Z m 3.185,-0.262 0.069,0.149 0.024,-0.284 -0.145,0.019 z M 6.085,16.976 v 0 L 5.875,16.548 2.4,9.552 l 0.017,0.5 4.239,8.465 0.03,-0.58 A 0.666,0.666 0 0 1 6.379,17.781 1.572,1.572 0 0 1 6.085,16.976 Z M 7.441,14.145 H 7.435 c 0.569,-0.371 7.974,-1.763 14.074,-0.984 L 15.725,5.925 C 14.307,5.175 5.063,5.479 2.857,6.154 2.577,6.242 2.349,6.817 2.349,6.817 A 5.371,5.371 0 0 0 2,8.5 c 1.488,2.89 2.584,5.24 4.07,8.134 A 3.16,3.16 0 0 1 7.441,14.145 Z M 8.357,9.426 10.833,7.2 a 0.343,0.343 0 0 1 0.309,0 l 2.574,1 L 13.567,8 c -0.035,-0.047 0,-0.085 0.081,-0.086 l 0.59,-0.012 a 0.278,0.278 0 0 1 0.209,0.078 l 0.577,0.725 1.153,0.454 c 0.1,0.039 0.156,0.107 0.12,0.151 a 0.122,0.122 0 0 1 -0.094,0.035 l -0.653,0.024 1.306,1.645 c 0.046,0.056 0.013,0.105 -0.071,0.11 l -2.835,0.161 0.329,-0.422 0.545,-0.028 a 0.633,0.633 0 0 0 0.381,0.116 c 0.167,-0.01 0.238,-0.1 0.156,-0.212 a 0.574,0.574 0 0 0 -0.444,-0.178 c -0.131,0.007 -0.2,0.066 -0.191,0.144 l -0.627,0.032 -0.3,0.388 -0.3,-0.437 0.366,-0.446 1.034,-0.048 a 0.619,0.619 0 0 0 0.372,0.113 c 0.163,-0.008 0.231,-0.1 0.15,-0.2 A 0.568,0.568 0 0 0 14.99,9.936 c -0.127,0 -0.2,0.061 -0.183,0.135 l -0.83,0.036 0.325,-0.392 -0.223,-0.3 L 14.3,9.15 a 0.561,0.561 0 0 0 0.136,0.013 C 14.594,9.158 14.662,9.076 14.589,8.982 A 0.555,0.555 0 0 0 14.177,8.825 C 14.02,8.83 13.949,8.91 14.02,9.004 a 0.321,0.321 0 0 0 0.085,0.075 L 13.951,9.256 13.559,8.724 c 0.1,-0.028 0.129,-0.092 0.074,-0.166 a 0.548,0.548 0 0 0 -0.4,-0.157 c -0.157,0 -0.231,0.08 -0.164,0.173 a 0.493,0.493 0 0 0 0.31,0.154 l 0.387,0.528 -0.4,-0.16 A 0.109,0.109 0 0 0 13.34,9.021 0.542,0.542 0 0 0 12.925,8.858 c -0.162,0 -0.238,0.086 -0.171,0.182 a 0.541,0.541 0 0 0 0.42,0.164 0.34,0.34 0 0 0 0.114,-0.022 l 0.6,0.241 0.184,0.25 -0.295,0.355 -0.174,-0.245 c 0.1,-0.03 0.13,-0.1 0.074,-0.181 A 0.552,0.552 0 0 0 13.252,9.434 C 13.088,9.44 13.011,9.525 13.081,9.625 a 0.508,0.508 0 0 0 0.322,0.166 l 0.263,0.371 -0.285,0.346 -1.244,-1.788 0.239,-0.243 a 0.527,0.527 0 0 0 0.137,0.013 c 0.159,0 0.235,-0.081 0.169,-0.173 a 0.531,0.531 0 0 0 -0.4,-0.157 c -0.158,0 -0.235,0.08 -0.172,0.17 a 0.271,0.271 0 0 0 0.08,0.071 l -0.223,0.219 -0.5,-0.2 a 0.1,0.1 0 0 0 -0.02,-0.073 0.514,0.514 0 0 0 -0.4,-0.161 c -0.161,0 -0.244,0.082 -0.184,0.175 a 0.518,0.518 0 0 0 0.409,0.16 0.354,0.354 0 0 0 0.116,-0.02 L 11.951,8.725 12.8,9.979 11.768,9.563 11.529,9.211 c 0.1,-0.031 0.142,-0.1 0.09,-0.176 A 0.525,0.525 0 0 0 11.203,8.869 c -0.166,0 -0.252,0.088 -0.19,0.186 a 0.469,0.469 0 0 0 0.315,0.164 L 11.475,9.446 10.684,9.128 10.481,8.8 c 0.1,-0.028 0.147,-0.094 0.1,-0.17 A 0.517,0.517 0 0 0 10.169,8.466 c -0.165,0 -0.255,0.085 -0.2,0.181 a 0.452,0.452 0 0 0 0.3,0.16 l 0.236,0.379 0.876,0.354 -0.364,0.013 a 0.6,0.6 0 0 0 -0.37,-0.111 c -0.173,0 -0.263,0.093 -0.2,0.2 a 0.525,0.525 0 0 0 0.432,0.174 C 11.017,9.811 11.1,9.753 11.097,9.679 l 0.574,-0.022 1.24,0.5 0.671,0.981 -0.693,-0.284 -0.251,-0.379 c 0.1,-0.034 0.142,-0.109 0.086,-0.193 a 0.548,0.548 0 0 0 -0.439,-0.178 c -0.171,0.008 -0.256,0.1 -0.186,0.206 a 0.506,0.506 0 0 0 0.332,0.175 l 0.158,0.247 -0.991,-0.4 a 0.116,0.116 0 0 0 -0.02,-0.085 0.534,0.534 0 0 0 -0.442,-0.179 c -0.173,0.007 -0.264,0.1 -0.2,0.207 a 0.533,0.533 0 0 0 0.441,0.183 0.4,0.4 0 0 0 0.128,-0.027 l 0.994,0.408 -0.379,0.02 a 0.6,0.6 0 0 0 -0.386,-0.117 c -0.178,0.008 -0.269,0.106 -0.2,0.218 a 0.538,0.538 0 0 0 0.454,0.18 c 0.14,-0.007 0.226,-0.07 0.218,-0.151 l 0.592,-0.03 0.844,0.351 -3.037,0.171 a 0.273,0.273 0 0 1 -0.238,-0.1 l -1,-1.782 -0.754,0.024 A 0.311,0.311 0 0 1 8.349,9.512 0.067,0.067 0 0 1 8.363,9.432 Z m 6.829,1.316 c 0.03,0.044 0,0.082 -0.064,0.085 a 0.229,0.229 0 0 1 -0.181,-0.072 c -0.031,-0.043 0,-0.081 0.065,-0.085 v 0 a 0.231,0.231 0 0 1 0.18,0.072 z m -0.121,-0.7 v 0 a 0.224,0.224 0 0 1 0.174,0.07 c 0.032,0.04 0,0.076 -0.061,0.08 a 0.221,0.221 0 0 1 -0.174,-0.07 C 14.972,10.077 15,10.041 15.065,10.039 Z M 14.252,8.926 a 0.221,0.221 0 0 1 0.167,0.065 c 0.029,0.038 0,0.071 -0.061,0.073 A 0.22,0.22 0 0 1 14.19,8.998 c -0.029,-0.044 0,-0.075 0.062,-0.075 z M 13.4,8.635 v 0 A 0.216,0.216 0 0 1 13.235,8.57 c -0.028,-0.037 0,-0.068 0.064,-0.07 a 0.229,0.229 0 0 1 0.165,0.064 C 13.49,8.6 13.463,8.634 13.4,8.635 Z M 13.086,9.1 v 0 A 0.215,0.215 0 0 1 12.919,9.033 c -0.028,-0.04 0,-0.071 0.067,-0.073 a 0.223,0.223 0 0 1 0.168,0.065 C 13.181,9.066 13.148,9.1 13.085,9.1 Z m 0.345,0.589 H 13.425 A 0.221,0.221 0 0 1 13.252,9.62 c -0.028,-0.04 0,-0.075 0.068,-0.077 a 0.215,0.215 0 0 1 0.171,0.068 C 13.52,9.651 13.49,9.686 13.43,9.689 Z M 12.507,8.316 c 0.027,0.038 0,0.069 -0.067,0.07 A 0.211,0.211 0 0 1 12.277,8.322 c -0.026,-0.037 0,-0.068 0.068,-0.07 v 0 a 0.212,0.212 0 0 1 0.161,0.064 z M 11.268,8.349 C 11.293,8.386 11.261,8.42 11.194,8.42 v 0 A 0.212,0.212 0 0 1 11.031,8.355 c -0.025,-0.039 0.01,-0.071 0.074,-0.071 a 0.213,0.213 0 0 1 0.162,0.065 z m 0.178,0.7 c 0.026,0.037 -0.005,0.075 -0.075,0.075 A 0.219,0.219 0 0 1 11.202,9.056 C 11.177,9.016 11.21,8.983 11.278,8.981 a 0.207,0.207 0 0 1 0.167,0.068 z M 10.4,8.639 c 0.025,0.036 -0.01,0.069 -0.078,0.071 v 0 A 0.21,0.21 0 0 1 10.156,8.643 C 10.132,8.605 10.166,8.572 10.235,8.57 A 0.2,0.2 0 0 1 10.4,8.639 Z m 0.492,0.985 c 0.026,0.04 -0.009,0.075 -0.079,0.078 v 0 A 0.216,0.216 0 0 1 10.64,9.632 C 10.615,9.59 10.65,9.555 10.719,9.552 a 0.21,0.21 0 0 1 0.173,0.072 z m 1.578,0.752 v 0 a 0.22,0.22 0 0 1 -0.177,-0.072 c -0.028,-0.043 0,-0.08 0.074,-0.083 a 0.213,0.213 0 0 1 0.176,0.072 c 0.03,0.043 -0.004,0.081 -0.073,0.083 z m -1.065,-0.121 c 0.027,0.04 -0.007,0.074 -0.078,0.08 h -0.01 A 0.215,0.215 0 0 1 11.14,10.263 c -0.016,-0.043 0.02,-0.081 0.09,-0.084 a 0.215,0.215 0 0 1 0.175,0.076 z m 0.594,0.676 c 0.03,0.04 -0.005,0.08 -0.078,0.081 v 0.011 A 0.219,0.219 0 0 1 11.74,10.949 c -0.028,-0.047 0.007,-0.086 0.08,-0.089 A 0.218,0.218 0 0 1 12,10.931 Z m -1.573,6.798 0.068,0.146 0.023,-0.284 -0.145,0.018 z m 0.925,0.211 0.293,-0.017 0.049,-0.439 -0.297,0.023 z m -1.693,-0.151 0.069,0.146 0.022,-0.284 -0.145,0.018 z m 1.572,-0.143 0.071,0.148 0.024,-0.283 -0.145,0.018 z m -1.454,0.435 0.294,-0.016 0.049,-0.44 -0.298,0.022 z m 0.769,-0.059 0.293,-0.016 0.049,-0.439 -0.297,0.023 z"/></svg>
