<?xml version="1.0" encoding="UTF-8"?>
<svg width="24px" fill="#44739e" height="24px" viewBox="0 0 24 24" version="1.1" xmlns="http://www.w3.org/2000/svg" xmlns:xlink="http://www.w3.org/1999/xlink">
            <path d="m 20.03,17.092 0.108,0.201 0.036,-0.427 -0.267,0.033 z m 0.162,0.283 0.292,-0.022 0.058,-0.513 -0.297,0.024 z m -2.014,-0.168 0.069,0.146 0.024,-0.282 -0.145,0.018 z m 0.119,0.292 0.292,-0.016 0.049,-0.437 -0.296,0.023 z m -0.851,-0.228 0.068,0.147 0.024,-0.282 -0.145,0.018 z m 0.118,0.292 0.292,-0.016 0.05,-0.437 -0.297,0.023 z m -0.882,-0.215 0.069,0.147 0.023,-0.283 -0.144,0.018 z m 0.118,0.292 0.293,-0.016 0.049,-0.437 -0.297,0.023 z m -0.921,-0.232 0.069,0.147 0.023,-0.283 -0.144,0.018 z m 0.119,0.292 0.292,-0.016 0.049,-0.437 -0.297,0.023 z m -0.917,-0.228 0.069,0.147 0.024,-0.282 -0.145,0.018 z m 0.119,0.292 0.292,-0.016 0.049,-0.437 -0.297,0.023 z m -0.899,-0.232 0.069,0.147 0.024,-0.282 -0.145,0.018 z m 0.119,0.292 0.292,-0.016 0.049,-0.437 -0.296,0.023 z m -0.915,-0.21 0.069,0.146 0.023,-0.282 -0.144,0.018 z m 0.118,0.292 0.293,-0.016 0.049,-0.437 -0.297,0.023 z m -0.858,-0.233 0.069,0.147 0.023,-0.282 -0.144,0.018 z m 0.118,0.293 0.293,-0.016 0.049,-0.438 -0.297,0.024 z m -0.882,-0.233 0.069,0.147 0.024,-0.282 -0.145,0.018 z m 0.119,0.292 0.292,-0.015 0.049,-0.438 -0.297,0.024 z m -0.922,-0.232 0.069,0.147 0.024,-0.282 -0.145,0.018 z m 0.119,0.292 0.292,-0.016 0.049,-0.437 -0.296,0.023 z m -0.921,-0.21 0.069,0.146 0.024,-0.282 -0.145,0.018 z m 0.119,0.292 0.292,-0.016 0.049,-0.437 -0.297,0.023 z M 9.632,17.935 9.701,18.081 9.725,17.799 9.58,17.817 Z m 0.119,0.292 0.292,-0.016 0.049,-0.437 -0.296,0.023 z M 8.83,17.994 8.898,18.141 8.922,17.859 8.777,17.877 Z m 0.118,0.293 0.292,-0.016 0.049,-0.438 -0.296,0.024 z m 3.568,-2.335 a 0.1,0.1 0 0 0 -0.076,-0.04 h -0.006 l -0.168,0.013 c 0,0.006 0.01,0.011 0.007,0.019 l -0.062,0.235 a 0.1,0.1 0 0 1 -0.067,0.056 l -1.309,0.131 a 0.05,0.05 0 0 1 -0.028,0 c -0.008,0 -0.012,-0.021 -0.006,-0.044 l 0.068,-0.255 a 0.089,0.089 0 0 1 0.073,-0.043 l -0.256,0.018 a 0.1,0.1 0 0 0 -0.088,0.083 l -0.079,0.534 a 0.115,0.115 0 0 0 0.1,0.129 l 1.77,-0.137 a 0.182,0.182 0 0 0 0.105,-0.107 l 0.062,-0.475 a 0.14,0.14 0 0 0 -0.04,-0.117 z M 8.727,15.653 H 8.712 A 0.543,0.543 0 0 0 8.179,16.104 0.284,0.284 0 0 0 8.265,16.341 0.415,0.415 0 0 0 8.604,16.435 0.549,0.549 0 0 0 9.087,15.99 0.286,0.286 0 0 0 9.009,15.762 0.377,0.377 0 0 0 8.727,15.653 Z m 3.998,-1.067 a 0.1,0.1 0 0 0 -0.074,-0.035 h -0.007 l -0.2,0.013 -0.056,0.189 a 0.1,0.1 0 0 1 -0.067,0.052 l -1.31,0.123 a 0.046,0.046 0 0 1 -0.027,0 c -0.008,0 -0.013,-0.019 -0.006,-0.04 l 0.067,-0.228 -0.193,0.013 a 0.1,0.1 0 0 0 -0.09,0.083 l -0.076,0.5 a 0.1,0.1 0 0 0 0.024,0.081 0.1,0.1 0 0 0 0.079,0.032 l 1.747,-0.116 a 0.1,0.1 0 0 0 0.089,-0.076 l 0.116,-0.5 a 0.1,0.1 0 0 0 -0.016,-0.091 z m 5.439,0.92 a 0.069,0.069 0 0 0 -0.056,-0.027 v 0 l -0.2,0.013 -0.07,0.214 a 0.1,0.1 0 0 1 -0.072,0.051 l -1.383,0.1 a 0.052,0.052 0 0 1 -0.029,0 c -0.008,-0.005 -0.013,-0.019 0,-0.041 l 0.072,-0.221 -0.154,0.011 a 0.071,0.071 0 0 0 -0.064,0.052 l -0.1,0.372 a 0.071,0.071 0 0 0 0.012,0.063 l 0.139,0.178 a 0.071,0.071 0 0 0 0.062,0.027 l 0.7,-0.053 0.623,-0.031 A 0.073,0.073 0 0 0 17.681,16.2 l 0.374,-0.266 a 0.078,0.078 0 0 0 0.026,-0.036 l 0.108,-0.327 a 0.068,0.068 0 0 0 -0.025,-0.065 z m -2.898,0.226 A 0.082,0.082 0 0 0 15.2,15.7 v 0 L 15.063,15.711 15,15.93 a 0.1,0.1 0 0 1 -0.067,0.052 l -1.309,0.126 a 0.06,0.06 0 0 1 -0.028,0 c -0.007,0 -0.012,-0.019 0,-0.04 l 0.068,-0.235 0.008,-0.005 -0.226,0.018 a 0.124,0.124 0 0 0 -0.108,0.087 l -0.109,0.532 a 0.123,0.123 0 0 0 0.005,0.094 0.052,0.052 0 0 0 0.038,0.008 l 1.822,-0.152 c 0.031,0 0.085,-0.058 0.1,-0.112 l 0.1,-0.489 a 0.088,0.088 0 0 0 -0.028,-0.082 z m 0.211,-1.347 a 0.082,0.082 0 0 0 -0.064,-0.028 h -0.007 l -0.216,0.017 c 0,0.006 0.01,0.011 0.007,0.019 l -0.063,0.216 a 0.1,0.1 0 0 1 -0.067,0.052 l -1.309,0.126 a 0.048,0.048 0 0 1 -0.028,0 c -0.008,0 -0.012,-0.019 -0.006,-0.04 l 0.069,-0.235 c 0,-0.014 0.03,-0.021 0.053,-0.029 l -0.2,0.016 a 0.124,0.124 0 0 0 -0.108,0.087 l -0.109,0.531 a 0.123,0.123 0 0 0 0.005,0.094 c 0.007,0.009 0.025,0.01 0.038,0.009 l 1.823,-0.153 c 0.031,0 0.084,-0.057 0.1,-0.112 l 0.1,-0.489 a 0.086,0.086 0 0 0 -0.018,-0.081 z m 5.071,0.415 -0.126,0.008 a 0.176,0.176 0 0 1 -0.141,-0.059 0.173,0.173 0 0 1 -0.038,-0.148 l 0.021,-0.1 v -0.01 h -0.009 l -0.708,0.053 a 0.016,0.016 0 0 0 -0.01,0.008 l -0.05,0.166 a 0.174,0.174 0 0 1 -0.152,0.121 l -0.294,0.022 a 0.011,0.011 0 0 0 -0.01,0.008 l -0.171,0.672 a 0.079,0.079 0 0 0 0.016,0.072 0.08,0.08 0 0 0 0.069,0.03 l 1.319,-0.089 a 0.161,0.161 0 0 0 0.145,-0.122 l 0.153,-0.616 v -0.01 z m 1.161,-1.068 C 21.486,13.537 19.202,13.224 15.071,13.45 10.186,13.718 7.754,14.466 7.51,14.635 a 2.779,2.779 0 0 0 -1.054,3.141 c 0.021,0.078 0.12,0.107 0.2,0.1 1.236,-0.107 12.939,-1.164 14.5,-1.3 a 0.4,0.4 0 0 0 0.308,-0.186 c 0.404,-0.646 0.673,-2.282 0.245,-2.658 z M 9.353,16.014 a 0.826,0.826 0 0 1 -0.815,0.692 0.652,0.652 0 0 1 -0.457,-0.172 0.549,0.549 0 0 1 -0.169,-0.451 0.81,0.81 0 0 1 0.792,-0.7 0.653,0.653 0 0 1 0.5,0.193 0.555,0.555 0 0 1 0.149,0.438 z m 3.357,0.08 -0.062,0.476 a 0.332,0.332 0 0 1 -0.21,0.231 l -0.013,0.005 -1.821,0.141 h -0.011 a 0.272,0.272 0 0 1 -0.232,-0.312 l 0.078,-0.534 a 0.257,0.257 0 0 1 0.235,-0.219 l 1.749,-0.127 a 0.264,0.264 0 0 1 0.213,0.093 0.3,0.3 0 0 1 0.074,0.246 z m 0.193,-1.386 -0.116,0.5 a 0.256,0.256 0 0 1 -0.235,0.2 v 0 l -1.747,0.116 h -0.018 a 0.258,0.258 0 0 1 -0.255,-0.3 l 0.076,-0.5 a 0.26,0.26 0 0 1 0.239,-0.219 l 1.786,-0.119 a 0.259,0.259 0 0 1 0.27,0.317 z m 2.536,1.137 -0.1,0.489 a 0.306,0.306 0 0 1 -0.242,0.238 l -1.822,0.152 h -0.019 a 0.19,0.19 0 0 1 -0.153,-0.065 0.26,0.26 0 0 1 -0.04,-0.231 l 0.109,-0.532 a 0.283,0.283 0 0 1 0.253,-0.214 l 1.76,-0.139 a 0.241,0.241 0 0 1 0.2,0.084 0.246,0.246 0 0 1 0.054,0.218 z m 0.211,-1.345 -0.1,0.489 a 0.307,0.307 0 0 1 -0.242,0.239 l -1.822,0.152 h -0.019 a 0.193,0.193 0 0 1 -0.153,-0.064 0.262,0.262 0 0 1 -0.04,-0.232 l 0.109,-0.531 a 0.285,0.285 0 0 1 0.253,-0.215 L 15.4,14.2 a 0.242,0.242 0 0 1 0.255,0.3 z m 2.661,1.119 -0.108,0.327 a 0.222,0.222 0 0 1 -0.079,0.107 L 17.75,16.32 a 0.216,0.216 0 0 1 -0.113,0.039 l -0.622,0.032 -0.693,0.053 H 16.305 A 0.213,0.213 0 0 1 16.137,16.362 L 16,16.182 a 0.214,0.214 0 0 1 -0.038,-0.189 l 0.1,-0.372 a 0.214,0.214 0 0 1 0.192,-0.156 l 1.838,-0.129 a 0.214,0.214 0 0 1 0.184,0.083 0.216,0.216 0 0 1 0.035,0.198 z m 2.4,-0.761 -0.153,0.617 a 0.319,0.319 0 0 1 -0.29,0.243 l -1.32,0.089 h -0.016 a 0.242,0.242 0 0 1 -0.235,-0.3 l 0.171,-0.671 a 0.171,0.171 0 0 1 0.154,-0.129 l 0.294,-0.022 a 0.011,0.011 0 0 0 0.01,-0.008 l 0.051,-0.165 a 0.17,0.17 0 0 1 0.151,-0.122 l 0.707,-0.054 a 0.172,0.172 0 0 1 0.143,0.058 0.174,0.174 0 0 1 0.039,0.149 l -0.021,0.1 v 0.009 h 0.009 l 0.126,-0.008 a 0.172,0.172 0 0 1 0.143,0.062 0.168,0.168 0 0 1 0.041,0.15 z M 6.068,17.119 5.859,16.691 2.4,9.726 2.417,10.22 6.638,18.649 6.669,18.072 A 0.661,0.661 0 0 1 6.362,17.916 1.564,1.564 0 0 1 6.068,17.119 Z m 0.729,1.53 0.248,-0.027 0.043,-0.562 -0.274,0.021 z M 7.418,14.3 c 0.565,-0.365 7.94,-1.752 14.013,-0.976 l -5.767,-7.2 C 14.252,5.378 5.048,5.681 2.851,6.354 2.571,6.44 2.344,7.013 2.344,7.013 A 5.321,5.321 0 0 0 2,8.679 c 1.481,2.878 2.572,5.218 4.052,8.1 A 3.142,3.142 0 0 1 7.418,14.3 Z M 8.335,9.61 10.8,7.384 a 0.344,0.344 0 0 1 0.308,0 v 0 l 2.563,1 -0.148,-0.2 c -0.035,-0.046 0,-0.084 0.079,-0.085 l 0.589,-0.012 a 0.278,0.278 0 0 1 0.2,0.078 l 0.574,0.722 1.148,0.452 c 0.1,0.039 0.156,0.107 0.121,0.15 a 0.12,0.12 0 0 1 -0.095,0.035 l -0.648,0.024 1.3,1.638 c 0.045,0.056 0.012,0.105 -0.071,0.11 l -2.823,0.161 0.328,-0.421 0.543,-0.028 a 0.627,0.627 0 0 0 0.381,0.115 c 0.166,-0.009 0.236,-0.1 0.155,-0.211 a 0.574,0.574 0 0 0 -0.442,-0.177 c -0.131,0.007 -0.2,0.066 -0.189,0.143 l -0.626,0.032 -0.3,0.387 -0.3,-0.436 0.363,-0.444 1.03,-0.047 a 0.615,0.615 0 0 0 0.371,0.112 c 0.161,-0.008 0.229,-0.1 0.15,-0.2 A 0.566,0.566 0 0 0 14.93,10.111 c -0.127,0.006 -0.2,0.061 -0.183,0.135 l -0.826,0.036 0.323,-0.392 -0.222,-0.3 0.225,-0.266 a 0.575,0.575 0 0 0 0.136,0.013 C 14.54,9.332 14.608,9.25 14.535,9.156 A 0.554,0.554 0 0 0 14.124,9 c -0.155,0.005 -0.226,0.085 -0.155,0.179 a 0.307,0.307 0 0 0 0.084,0.074 L 13.9,9.43 13.511,8.9 c 0.093,-0.027 0.127,-0.091 0.072,-0.164 a 0.542,0.542 0 0 0 -0.4,-0.157 c -0.156,0 -0.23,0.081 -0.163,0.173 a 0.493,0.493 0 0 0 0.307,0.153 l 0.386,0.526 -0.4,-0.159 A 0.11,0.11 0 0 0 13.288,9.196 0.541,0.541 0 0 0 12.874,9.033 c -0.161,0 -0.237,0.086 -0.169,0.182 a 0.539,0.539 0 0 0 0.417,0.165 0.343,0.343 0 0 0 0.113,-0.022 l 0.6,0.238 0.183,0.249 -0.293,0.353 -0.174,-0.244 c 0.1,-0.03 0.131,-0.1 0.074,-0.179 A 0.547,0.547 0 0 0 13.202,9.607 c -0.163,0.006 -0.24,0.091 -0.17,0.191 a 0.5,0.5 0 0 0 0.321,0.164 l 0.261,0.37 L 13.33,10.674 12.1,8.9 12.335,8.657 a 0.527,0.527 0 0 0 0.136,0.013 c 0.158,0 0.234,-0.081 0.168,-0.172 a 0.527,0.527 0 0 0 -0.4,-0.157 c -0.157,0 -0.234,0.08 -0.171,0.171 a 0.277,0.277 0 0 0 0.079,0.071 l -0.214,0.216 -0.5,-0.2 a 0.1,0.1 0 0 0 -0.019,-0.073 0.518,0.518 0 0 0 -0.4,-0.159 c -0.161,0 -0.245,0.081 -0.185,0.173 a 0.518,0.518 0 0 0 0.407,0.161 0.35,0.35 0 0 0 0.116,-0.02 l 0.56,0.222 0.854,1.252 L 11.738,9.74 11.5,9.391 c 0.1,-0.029 0.142,-0.1 0.091,-0.174 A 0.523,0.523 0 0 0 11.176,9.051 c -0.166,0 -0.251,0.088 -0.189,0.185 A 0.47,0.47 0 0 0 11.3,9.4 L 11.446,9.626 10.659,9.309 10.454,8.982 c 0.1,-0.028 0.146,-0.094 0.1,-0.17 A 0.514,0.514 0 0 0 10.145,8.649 c -0.165,0 -0.255,0.085 -0.2,0.18 a 0.45,0.45 0 0 0 0.3,0.159 l 0.234,0.378 0.872,0.352 -0.366,0.013 A 0.6,0.6 0 0 0 10.617,9.62 c -0.172,0.006 -0.262,0.093 -0.2,0.2 a 0.52,0.52 0 0 0 0.429,0.174 c 0.137,-0.005 0.221,-0.062 0.217,-0.136 l 0.573,-0.022 1.237,0.5 0.668,0.977 -0.69,-0.283 -0.252,-0.378 c 0.1,-0.033 0.142,-0.108 0.086,-0.192 a 0.546,0.546 0 0 0 -0.437,-0.177 c -0.17,0.008 -0.255,0.1 -0.185,0.205 a 0.5,0.5 0 0 0 0.329,0.174 l 0.162,0.246 -0.987,-0.4 a 0.118,0.118 0 0 0 -0.021,-0.085 0.535,0.535 0 0 0 -0.437,-0.178 c -0.173,0.007 -0.264,0.1 -0.2,0.206 a 0.528,0.528 0 0 0 0.44,0.181 0.388,0.388 0 0 0 0.125,-0.026 l 0.99,0.406 -0.377,0.02 a 0.6,0.6 0 0 0 -0.385,-0.118 c -0.177,0.008 -0.267,0.106 -0.2,0.217 a 0.538,0.538 0 0 0 0.452,0.187 c 0.141,-0.008 0.225,-0.071 0.217,-0.152 l 0.591,-0.031 0.839,0.35 v 0 l -3.025,0.172 a 0.273,0.273 0 0 1 -0.237,-0.1 L 9.335,9.776 8.586,9.8 A 0.309,0.309 0 0 1 8.321,9.69 0.066,0.066 0 0 1 8.335,9.61 Z m 6.62,1.24 a 0.232,0.232 0 0 1 0.179,0.071 c 0.032,0.044 0,0.082 -0.063,0.085 A 0.226,0.226 0 0 1 14.892,10.934 C 14.86,10.891 14.888,10.853 14.955,10.85 Z m 0.06,-0.629 a 0.222,0.222 0 0 1 0.173,0.069 c 0.032,0.041 0,0.077 -0.06,0.08 A 0.223,0.223 0 0 1 14.954,10.3 C 14.922,10.259 14.95,10.223 15.015,10.221 Z M 14.2,9.1 a 0.222,0.222 0 0 1 0.166,0.065 c 0.029,0.038 0,0.07 -0.061,0.072 A 0.219,0.219 0 0 1 14.138,9.172 C 14.109,9.131 14.137,9.1 14.2,9.1 Z M 13.35,8.816 A 0.215,0.215 0 0 1 13.186,8.752 c -0.028,-0.037 0,-0.068 0.064,-0.07 a 0.226,0.226 0 0 1 0.164,0.064 C 13.441,8.78 13.413,8.812 13.35,8.813 Z M 13.038,9.28 A 0.216,0.216 0 0 1 12.871,9.214 c -0.028,-0.039 0,-0.071 0.067,-0.073 a 0.221,0.221 0 0 1 0.167,0.065 C 13.133,9.242 13.1,9.275 13.038,9.277 Z m 0.337,0.586 A 0.221,0.221 0 0 1 13.203,9.797 c -0.028,-0.04 0,-0.075 0.068,-0.077 a 0.216,0.216 0 0 1 0.17,0.068 c 0.029,0.037 0,0.072 -0.066,0.075 z M 12.3,8.433 a 0.208,0.208 0 0 1 0.161,0.063 c 0.027,0.037 0,0.068 -0.067,0.069 A 0.209,0.209 0 0 1 12.232,8.502 C 12.206,8.465 12.236,8.434 12.3,8.433 Z M 11.154,8.6 A 0.212,0.212 0 0 1 10.991,8.535 C 10.967,8.497 11,8.466 11.065,8.465 a 0.208,0.208 0 0 1 0.162,0.064 C 11.252,8.565 11.22,8.6 11.154,8.6 Z M 11.33,9.3 A 0.212,0.212 0 0 1 11.162,9.232 C 11.137,9.193 11.17,9.16 11.237,9.158 a 0.207,0.207 0 0 1 0.168,0.067 C 11.43,9.262 11.4,9.3 11.33,9.3 Z M 10.286,8.89 A 0.21,0.21 0 0 1 10.121,8.823 C 10.097,8.785 10.132,8.752 10.2,8.751 a 0.2,0.2 0 0 1 0.164,0.066 c 0.025,0.036 -0.01,0.069 -0.078,0.071 z m 0.489,0.988 a 0.214,0.214 0 0 1 -0.172,-0.07 c -0.025,-0.042 0.01,-0.077 0.079,-0.08 a 0.213,0.213 0 0 1 0.172,0.07 c 0.026,0.04 -0.009,0.075 -0.079,0.078 z m 1.65,0.672 a 0.22,0.22 0 0 1 -0.176,-0.072 c -0.028,-0.043 0,-0.08 0.074,-0.083 a 0.215,0.215 0 0 1 0.175,0.072 c 0.029,0.041 -0.004,0.078 -0.073,0.081 z m -1.148,-0.041 a 0.212,0.212 0 0 1 -0.176,-0.072 c -0.027,-0.043 0.008,-0.08 0.079,-0.083 a 0.215,0.215 0 0 1 0.175,0.072 c 0.027,0.041 -0.007,0.074 -0.078,0.081 z m 0.6,0.682 a 0.219,0.219 0 0 1 -0.181,-0.074 c -0.028,-0.046 0.007,-0.085 0.079,-0.088 a 0.216,0.216 0 0 1 0.18,0.074 c 0.031,0.043 -0.004,0.083 -0.076,0.086 z"/>

</svg>