<svg xmlns="http://www.w3.org/2000/svg" viewBox="0 0 24 24"><path fill="#44739e" d="M12 6.531a5.469 5.469 0 1 0 0 10.938 5.469 5.469 0 0 0 0-10.938m0 7.786c-1.276 0-2.317-1.04-2.317-2.317S10.724 9.683 12 9.683s2.317 1.041 2.317 2.317-1.041 2.317-2.317 2.317M13.899 12c0 1.047-.852 1.899-1.899 1.899s-1.899-.852-1.899-1.899.852-1.899 1.899-1.899 1.899.852 1.899 1.899m6.247-10H3.854A1.854 1.854 0 0 0 2 3.854v16.292C2 21.171 2.83 22 3.854 22h16.292A1.854 1.854 0 0 0 22 20.146V3.854A1.854 1.854 0 0 0 20.146 2m1.344 17.986a1.5 1.5 0 0 1-.392 1.011 1.5 1.5 0 0 1-1.112.493H4.014a1.5 1.5 0 0 1-1.357-.853 1.5 1.5 0 0 1-.147-.651V4.014a1.5 1.5 0 0 1 .547-1.16 1.5 1.5 0 0 1 .957-.343h15.972a1.51 1.51 0 0 1 1.504 1.504ZM19.906 2.81H4.094a1.286 1.286 0 0 0-1.283 1.284v15.812c0 .707.576 1.283 1.283 1.283h15.812c.707 0 1.283-.576 1.283-1.283V4.094c0-.707-.576-1.283-1.283-1.283M3.737 12.402a.402.402 0 1 1 0-.804.402.402 0 0 1 0 .804M12 18.563a6.563 6.563 0 1 1 0-13.126 6.563 6.563 0 0 1 0 13.126m8.263-6.161a.402.402 0 1 1 0-.804.402.402 0 0 1 0 .804"/></svg>