<svg xmlns="http://www.w3.org/2000/svg" viewBox="0 0 24 24"><path fill="#44739e" d="M16.667 8.372v-.014c0-.011-.007-.03-.009-.037l-.015-.059a13.5 13.5 0 0 0-.711-2.176 6 6 0 0 0-.4-.801 6.1 6.1 0 0 0-1.137-1.405 3.8 3.8 0 0 0-1.371-.9 5 5 0 0 0-.862-.166q-.205-.024-.28-.025h-.006c-.052 0-.142.01-.279.025a5 5 0 0 0-.862.166 3.8 3.8 0 0 0-1.372.9 6.1 6.1 0 0 0-1.138 1.406 7 7 0 0 0-.4.801 13.6 13.6 0 0 0-.71 2.176l-.015.059-.009.037v.014c-.016.068-.068.301-.093.428v.008c.382-.061 1.911-.3 2.701-.385a16 16 0 0 1 2.118-.13h.113a16 16 0 0 1 2.119.13c.794.084 2.325.324 2.706.385v-.006c-.02-.131-.073-.363-.088-.431m1.026-3.752a6.7 6.7 0 0 0-2.042-1.694 3 3 0 0 0-.579-.182 1.4 1.4 0 0 0-.384-.034 1.2 1.2 0 0 0-.507.157 1.7 1.7 0 0 0-.4.326 6 6 0 0 1 .714.583 6.2 6.2 0 0 1 1.166 1.439 7 7 0 0 1 .4.816 14 14 0 0 1 .718 2.2l.012.048.012.051v.012l.043.191.019.006a2 2 0 0 0 .329.091 1 1 0 0 0 .366 0h.033a.93.93 0 0 0 .455-.194 2 2 0 0 0 .457-.48 3 3 0 0 0 .363-.569 7.3 7.3 0 0 0-1.175-2.767m-9.597.595a6.2 6.2 0 0 1 1.165-1.439 5.2 5.2 0 0 1 .943-.725 1.7 1.7 0 0 0-.378-.3 1.2 1.2 0 0 0-.507-.156 1.4 1.4 0 0 0-.384.034 3 3 0 0 0-.579.182 6.7 6.7 0 0 0-2.04 1.69A7.3 7.3 0 0 0 5.132 7.26a3 3 0 0 0 .363.57 2.1 2.1 0 0 0 .457.48.9.9 0 0 0 .451.193l.033.006a1 1 0 0 0 .366 0 1 1 0 0 0 .108-.023l.033-.144V8.33c0-.021.009-.038.013-.051l.012-.048a13.7 13.7 0 0 1 .718-2.2 7 7 0 0 1 .41-.816m2.208-2.214a2.4 2.4 0 0 1 .384-.154 5.4 5.4 0 0 1 .889-.171c.147-.017.235-.026.294-.027h.01c.058 0 .148.01.295.027a5.4 5.4 0 0 1 .889.171 2.6 2.6 0 0 1 .621.289 1.8 1.8 0 0 1 .437-.359l.035-.019A3.28 3.28 0 0 0 12.013 2h-.127a3.63 3.63 0 0 0-1.962.674 2 2 0 0 1 .38.327m5.658 17.361-.037-.059s-.134-.219-.319-.53a8 8 0 0 1-.531-1.2 22 22 0 0 1-.429-1.21 13.3 13.3 0 0 1-.6-2.227c-.09-.628-.271-1.246-.314-1.879a.6.6 0 0 0-.066-.25.8.8 0 0 0-.12-.162v-1.219a.34.34 0 0 0-.3-.331 1 1 0 0 0 .039-.292V9.572a.37.37 0 0 0-.231-.377 1.3 1.3 0 0 0 .015-.209v-.508l-.149-.011v.519c0 .5-.235.553-.411.553h-.883q-.451 0-.452-.525v-.567l-.149.008v.559a1 1 0 0 0 .017.191.44.44 0 0 0-.235.423v1.4a.8.8 0 0 0 .047.283.38.38 0 0 0-.258.358v1.117a.4.4 0 0 0-.143.15.3.3 0 0 0-.024.105 1.5 1.5 0 0 0-.018.285 10.6 10.6 0 0 1-.26 1.623c-.084.4-.14.667-.235 1.041a22 22 0 0 1-.742 2.291 8.6 8.6 0 0 1-.495 1.169c-.027.051-.2.333-.447.738l-.156.253a.5.5 0 0 0-.188.359c0 .664 1.873 1.2 4.182 1.2s4.181-.539 4.181-1.2a.58.58 0 0 0-.289-.438M10.96 9.628a.33.33 0 0 1 .127-.282.5.5 0 0 0 .129.191.6.6 0 0 0 .415.146h.874a.52.52 0 0 0 .4-.159.5.5 0 0 0 .108-.189.26.26 0 0 1 .116.237v1.431a.57.57 0 0 1-.147.438.54.54 0 0 1-.376.116h-1.078q-.572-.002-.573-.526Zm2.44 3.184c0 .192-.066.446-.643.446h-1.301c-.321 0-.7-.073-.7-.422v-1.163a.24.24 0 0 1 .179-.229.5.5 0 0 0 .112.116.8.8 0 0 0 .493.141h1.085a.7.7 0 0 0 .477-.153.5.5 0 0 0 .082-.101l.04-.015a.193.193 0 0 1 .183.19Z"/></svg>