<svg xmlns="http://www.w3.org/2000/svg" viewBox="0 0 24 24"><path fill="#44739e" d="M22 14.028h-1.706a12 12 0 0 1-1.394 1.76 11 11 0 0 1-1.395-1.76h-1.724a17 17 0 0 0 2.036 2.56 22 22 0 0 0-2.036 2.633h1.724c.403-.65.87-1.258 1.395-1.815a11.7 11.7 0 0 1 1.36 1.819H22a21 21 0 0 0-2.027-2.637A20 20 0 0 0 22 14.028m-7.83.685a2.2 2.2 0 0 0-1.776-.825 2.677 2.677 0 0 0-2.6 2.737 2.68 2.68 0 0 0 2.6 2.737 2.21 2.21 0 0 0 1.776-.823v.684h1.36v-5.195h-1.36Zm-1.56 3.447c-1.366 0-2.05-1.651-1.084-2.617s2.617-.282 2.617 1.084a1.53 1.53 0 0 1-1.533 1.533m-4.426-4.272a3.03 3.03 0 0 0-1.828.779 1.23 1.23 0 0 0-1.2-.779 3 3 0 0 0-1.81.788v-.648H2v5.2h1.429v-3.234c.624-.493.91-.649 1.144-.649.277 0 .459.173.459.606v3.274h1.429v-3.237c.623-.485.9-.641 1.143-.641.277 0 .459.173.459.606v3.274h1.429v-3.778c0-1.17-.667-1.561-1.308-1.561m3.918-6.638a.643.643 0 0 0-.585-.675h-1.115v1.35h1.115a.64.64 0 0 0 .585-.675m0 3.034a.64.64 0 0 0-.585-.675h-1.115v1.368h1.115a.647.647 0 0 0 .585-.694Zm1.737-.918a3.5 3.5 0 0 1 0-1.116 1.73 1.73 0 0 1-.845.494c.339.112.636.33.844.623Zm4.083-2.232c1.438.003 2.155 1.746 1.134 2.76-1.02 1.012-2.757.287-2.752-1.15a1.613 1.613 0 0 1 1.613-1.611Zm0 3.671c1.832.002 2.755-2.21 1.461-3.507-1.289-1.298-3.507-.386-3.51 1.446a2.053 2.053 0 0 0 2.049 2.057ZM2 4.78h2.245v3.016h1.418V4.784h2.196v8.07H5.668V9.725H4.25v3.128H2Zm6.308 0h3.747a2.354 2.354 0 0 1 2.16 2.193C16.095 3.035 22.01 4.38 22 8.744c.052 4.377-5.877 5.774-7.785 1.833a2.43 2.43 0 0 1-2.42 2.276H8.31Z"/></svg>