<?xml version="1.0" encoding="UTF-8"?>
<svg xmlns="http://www.w3.org/2000/svg" width="24" height="24" fill="#44739e" viewBox="0 0 24 24"><path d="M5.76 2A3.758 3.758 0 0 0 2 5.76v12.48A3.758 3.758 0 0 0 5.76 22h12.48A3.758 3.758 0 0 0 22 18.24V5.76A3.758 3.758 0 0 0 18.24 2H5.76zm9.644 4.633c1.217-.007 2.433.884 2.43 2.394.03 2.554-3.426 3.367-4.54 1.069a1.418 1.418 0 0 1-1.411 1.328H9.848V6.717h2.185a1.374 1.374 0 0 1 1.262 1.277c.444-.933 1.276-1.357 2.11-1.361zm-9.234.084h1.309v1.758h.826V6.719h1.279v4.705H8.309V9.6h-.827v1.826H6.17v-4.71zm4.9 1.047v.785h.65a.373.373 0 0 0 .342-.393.374.374 0 0 0-.341-.392h-.65zm4.43.064v.002a1.196 1.196 0 0 0-1.238 1.197c-.002.662.531 1.2 1.193 1.202 1.068.001 1.608-1.287.854-2.045a1.175 1.175 0 0 0-.809-.356zm-.047.26h.002c.84.002 1.257 1.018.662 1.61-.594.59-1.608.168-1.605-.67 0-.52.422-.94.941-.94zm-2.379.652a1.003 1.003 0 0 1-.492.287c.198.066.37.193.49.364l.002-.002a2.026 2.026 0 0 1 0-.649zm-2.004.791v.797h.65a.378.378 0 0 0 .342-.402.374.374 0 0 0-.341-.395h-.65zm1.85 3.215c.452-.008.896.133 1.26.402a.415.415 0 0 1 .406-.328h.39c.04 0 .074.031.075.07v4.383c0 .04-.033.07-.072.07h-.391a.416.416 0 0 1-.418-.376c-1.473 1.056-3.506-.111-3.332-1.916l.002.004a2.564 2.564 0 0 1 .387-1.434 2.014 2.014 0 0 1 1.693-.875zm-6.672.008c.49-.018.963.17 1.309.514a1.767 1.767 0 0 1 1.31-.514c.474-.014.934.162 1.278.488.307.318.478.744.472 1.186v2.845a.07.07 0 0 1-.068.069v-.004h-.393a.41.41 0 0 1-.41-.387c0-.008-.004-.017-.004-.025v-2.5a.814.814 0 0 0-.873-.826.815.815 0 0 0-.871.828v2.84a.07.07 0 0 1-.068.072h-.395a.416.416 0 0 1-.416-.418v-2.5a.899.899 0 0 0-.043-.201.8.8 0 0 0-.828-.623.812.812 0 0 0-.807.556.94.94 0 0 0-.058.278v2.841c0 .04-.031.073-.07.073h-.395a.417.417 0 0 1-.416-.418v-2.5a1.582 1.582 0 0 1 1.144-1.582c.195-.06.398-.092.602-.092zm9.074.068h.668c.185 0 .356.091.46.244l.562.834.174.256a.241.241 0 0 0 .4 0l.738-1.088a.558.558 0 0 1 .457-.246h.668c.041.003.065.049.041.082l-1.312 1.95a.414.414 0 0 0 0 .462l1.314 1.948a.051.051 0 0 1-.043.078v-.004h-.668a.552.552 0 0 1-.459-.242l-.736-1.09a.242.242 0 0 0-.4 0l-.737 1.09a.558.558 0 0 1-.168.15.55.55 0 0 1-.293.092h-.666c-.044.003-.073-.048-.045-.082l.807-1.194.506-.751a.417.417 0 0 0 0-.465l-.033-.051-1.278-1.89c-.023-.035.001-.081.043-.083zm-2.402.79a1.208 1.208 0 0 0-1.217 1.109c-.017.11-.024.224-.023.336a1.271 1.271 0 0 0 1.24 1.445c.398.01.773-.187.992-.52.173-.277.26-.6.25-.927a1.274 1.274 0 0 0-1.242-1.444z"/></svg>