<svg xmlns="http://www.w3.org/2000/svg" viewBox="0 0 24 24"><path fill="#44739e" d="M17.411 10.536a1.783 1.783 0 1 0 1.766 1.803 1.78 1.78 0 0 0-1.767-1.804m-.016 3.181a1.4 1.4 0 1 1 1.396-1.403 1.397 1.397 0 0 1-1.396 1.403m-5.549-.653h-.968v1.186h.968a.601.601 0 0 0 0-1.186m0-2.626h-.968v1.17h.968a.591.591 0 0 0 0-1.17m8.308-8.434H3.846A1.84 1.84 0 0 0 2 3.843v16.315a1.84 1.84 0 0 0 1.847 1.839H20.16A1.84 1.84 0 0 0 22 20.158V3.845a1.84 1.84 0 0 0-1.846-1.842M8.672 15.878H6.773v-2.713H5.542v2.714h-1.95V8.88h1.947v2.611h1.23v-2.61h1.903Zm8.723.031a3.57 3.57 0 0 1-3.211-2.004 2.1 2.1 0 0 1-2.098 1.973H9.064V8.877h3.244a2.04 2.04 0 0 1 1.873 1.902 3.547 3.547 0 0 1 6.749 1.535 3.58 3.58 0 0 1-3.534 3.594m-4.27-3.595a1.45 1.45 0 0 1 .733.54 3 3 0 0 1 0-.969 1.5 1.5 0 0 1-.733.429"/></svg>