<?xml version="1.0" encoding="UTF-8" standalone="no"?>
<svg
   id="Livello_1"
   data-name="Livello 1"
   viewBox="0 0 24 24"
   version="1.1"
   width="24"
   height="24"
   xmlns="http://www.w3.org/2000/svg"
   xmlns:svg="http://www.w3.org/2000/svg">
  <path id="Colore_riempimento_1" fill="#44739e" data-name="Colore riempimento 1" class="cls-1"
     d="m 4.5976562,1.0957031 c -0.5440694,1e-5 -0.7089843,0.1554849 -0.7089843,0.6777344 -3.34e-5,3.4608032 0,6.9220293 0,10.3828125 -6.67e-5,3.46079 -8e-5,6.922003 0,10.382812 2e-5,0.51996 0.164448,0.675782 0.7109375,0.675782 5.0260349,1.8e-4 10.0520896,1.8e-4 15.0781246,0 0.5237,-2e-5 0.695313,-0.1646 0.695313,-0.667969 1.47e-4,-6.92994 1.47e-4,-13.8590694 0,-20.7890625 -10e-6,-0.5002695 -0.170266,-0.6621094 -0.697266,-0.6621094 -5.026035,-1.266e-4 -10.0520898,-1.266e-4 -15.0781248,0 z m 4.3261719,0.9921875 a 2.81682,2.81682 0 0 1 0.5410157,0.00977 8.57813,8.57813 0 0 0 -2.7949219,1.9140626 7.9682,7.9682 0 0 0 -1.7246094,2.8339843 c -1.33e-5,-0.1715131 -1.33e-5,-0.342132 0,-0.5136719 2e-5,-0.7207492 0.00262,-1.44138 -0.00195,-2.1621093 A 0.55,0.55 0 0 1 5.2949219,3.6269531 C 6.3252708,3.1418236 7.342456,2.6312933 8.390625,2.1835938 a 2.81682,2.81682 0 0 1 0.5332031,-0.095703 z m 7.0742189,0 c 0.21676,-8.05e-4 0.434371,0.00211 0.650391,0.013672 a 0.7299,0.7299 0 0 1 0.417968,0.1777344 c 0.69226,0.6356193 1.376523,1.2795806 2.044922,1.9375 A 0.80765,0.80765 0 0 1 19.308594,4.6835938 4.88679,4.88679 0 0 1 19.294922,5.5683594 8.17719,8.17719 0 0 0 15.347656,2.09375 c 0.21671,0 0.433631,-0.00505 0.650391,-0.00586 z m -3.599609,5.0351563 a 2.13557,2.13557 0 0 1 2.130859,2.0078125 2.13475,2.13475 0 0 1 -4.263672,0 2.13557,2.13557 0 0 1 2.132813,-2.0078125 z M 4.9609375,10.863281 c 0.08247,0.22027 0.1390251,0.381003 0.203125,0.539063 A 7.49453,7.49453 0 0 0 9.53125,15.658203 0.41646,0.41646 0 0 0 9.9667969,15.607422 33.75957,33.75957 0 0 0 14.365234,12.125 c 0.25739,-0.24207 0.529165,-0.471326 0.802735,-0.697266 a 2.1491,2.1491 0 0 1 0.410156,-0.27539 0.61055,0.61055 0 0 1 0.673828,0.04883 0.49764,0.49764 0 0 1 0.169922,0.613281 2.38539,2.38539 0 0 1 -0.279297,0.539063 c -0.626969,0.903129 -1.265485,1.798569 -1.896484,2.699218 -0.22897,0.32682 -0.446485,0.661019 -0.708985,1.048828 a 7.99231,7.99231 0 0 0 5.78125,-3.880859 v 2.134766 c 0.0012,1.575538 -4.93e-4,3.151037 -0.002,4.726562 a 2.54857,2.54857 0 0 1 -2.394531,2.56836 12.50541,12.50541 0 0 1 -2.009766,-0.03906 c -0.430379,-0.02863 -0.572771,-0.223066 -0.582031,-0.634766 -0.0018,-0.08182 -0.0089,-0.163559 -0.01758,-0.318359 a 1.27606,1.27606 0 0 0 -0.353516,0.169922 2.94034,2.94034 0 0 1 -2.1875,0.878906 c -2.0652076,0.02637 -4.1297342,0.009 -6.1953121,0.0078 -0.4115196,-2.4e-4 -0.6286863,-0.188095 -0.6289063,-0.552735 -9.266e-4,-3.37733 -0.00237,-6.755482 -0.00195,-10.132812 0,-0.03293 0.00633,-0.06465 0.015625,-0.166016 z M 15.820312,11.5625 c -0.993359,0.865649 -1.953532,1.767038 -2.988281,2.585938 -1.035269,0.819309 -2.145212,1.556452 -3.269531,2.363281 a 4.63914,4.63914 0 0 0 0.597656,-0.0039 7.50322,7.50322 0 0 1 2.222656,-0.01953 0.30063,0.30063 0 0 0 0.357422,-0.148437 c 0.723,-1.053499 1.459881,-2.097759 2.1875,-3.148438 0.29577,-0.427099 0.583058,-0.860792 0.867188,-1.294922 a 1.54166,1.54166 0 0 0 0.113281,-0.273437 z m -4.675781,5.345703 a 5.1002,5.1002 0 0 0 -0.96289,0.111328 v 4.126953 a 15.70426,15.70426 0 0 0 1.691406,0.03516 c 1.500948,-0.12479 2.242869,-0.934256 2.162109,-2.302735 a 1.786,1.786 0 0 0 -0.990234,-1.642578 5.1002,5.1002 0 0 0 -1.900391,-0.328125 z m 4.994141,0.01953 a 6.49841,6.49841 0 0 0 -1.083984,0.06836 c -0.17222,0.017 -0.180348,0.12274 -0.179688,0.25 0.0032,0.602679 0.002,1.205894 0.002,1.808594 -6e-5,0.594329 0.01285,1.18757 -0.0078,1.78125 -0.0079,0.225689 0.08674,0.306183 0.294921,0.308593 a 16.68712,16.68712 0 0 0 1.69336,0 1.89864,1.89864 0 0 0 1.791016,-1.408203 3.57794,3.57794 0 0 0 0.07031,-0.970703 1.80822,1.80822 0 0 0 -1.5,-1.726563 6.49841,6.49841 0 0 0 -1.080078,-0.111328 z m -7.9960939,0.06445 V 18.5625 H 6.4707031 V 17 H 5.5 v 4.132812 h 0.9863281 v -1.740234 h 1.6679688 v 1.740234 h 0.9746093 v -4.140624 z m 8.1992189,0.716796 A 1.64872,1.64872 0 0 1 17.4375,18.125 a 1.63677,1.63677 0 0 1 0.09766,1.695312 1.5554,1.5554 0 0 1 -1.666015,0.552735 v -2.59375 a 1.64872,1.64872 0 0 1 0.472656,-0.07031 z m -4.703125,0.01367 c 0.445363,-0.0014 0.863548,0.06486 1.142578,0.478516 a 1.4565,1.4565 0 0 1 0.02734,1.646484 c -0.3564,0.58567 -0.982142,0.569098 -1.619141,0.548828 v -2.660156 c 0.15016,-0.005 0.300764,-0.01319 0.449219,-0.01367 z" />
</svg>
