<?xml version="1.0" encoding="UTF-8"?>
<svg version="1.1" viewBox="0 0 24 24" width="24" height="24" xmlns="http://www.w3.org/2000/svg">
 <path d="m7.1851 10.237v3.5251h-1.4008v-1.2634h-2.405v1.2634h-1.3793v-3.5251h1.3793v1.4394h2.405v-1.4394zm6.3305-4e-5v3.5266h1.3362v-2.6472h1.2708v2.6472h1.3288v-2.6472h1.2716v2.6472h1.334l7.65e-4 -2.5996c0-0.25696-0.09064-0.47613-0.27039-0.65658-0.18051-0.17975-0.39735-0.27044-0.65066-0.27044zm-5.7475 0-0.00592 0.87718h3.8616v1.7707h-2.5209l-0.00592-1.2085h-1.3347l0.00592 2.0856h4.2633c0.25405 0 0.47164-0.0907 0.65364-0.27044 0.18198-0.18057 0.27333-0.39872 0.27333-0.65654l6.4e-5 -1.6712c0-0.25778-0.09141-0.47613-0.27333-0.65658-0.18198-0.17975-0.39958-0.27044-0.65364-0.27044zm12.853 1e-3h1.3785v3.5251h-1.3785z" fill="#44739e"/>
</svg>
