<svg xmlns="http://www.w3.org/2000/svg" viewBox="0 0 24 24"><path fill="#44739e" d="M11.577 20.104v.187l.919.155.612-.352v-.287l-.924-.126Zm1.265-17.133v-.542l-.704-.133-.494.009v.542l.478.012Zm-2.919-.952a.2.2 0 0 0-.2.2V21.8a.2.2 0 0 0 .4 0V2.22a.2.2 0 0 0-.2-.201m1.565.467-1.209-.054v.225l1.209.038Zm2.86 16.479v-.105a.03.03 0 0 0-.017-.03.03.03 0 0 0-.017 0h-.017l-1.359.8.263.035 1.13-.665a.034.034 0 0 0 .017-.035m-4.069 2.22v.202l1.525-.9-.26-.044ZM16.387 2h.743v19.278h-.743ZM8.63 19.331a.13.13 0 0 0-.084.031.13.13 0 0 0-.043.1v.069c0 .029.005.033.03.042a1 1 0 0 0 .212.05l.822.105v-.276l-.921-.116Zm3.205.403-1.556-.196v.277l1.217.155Zm1.429.45-.017.01 3.023.386v-.286l-3.006-.379ZM17.999 4.6v-.334a.03.03 0 0 0-.024-.027l-.289-.04h-.435v.442l.721-.011a.03.03 0 0 0 .027-.03m-4.024-.392a.02.02 0 0 0-.007.02l.018.41a.03.03 0 0 0 .024.026l.229.021 2.031-.03V4.2h-2.271a.03.03 0 0 0-.024.008m-.101 12.067.018.281a.1.1 0 0 0 .09.09l.221.015a.1.1 0 0 0 .046-.009l2.021-.912v-.553l-2.338.993a.1.1 0 0 0-.058.095m3.991-1.752h-.01a.1.1 0 0 0-.038.008l-.57.242v.527l.765-.345a.1.1 0 0 0 .056-.088v-.234a.1.1 0 0 0-.086-.1Zm-3.983-4.142v.356a.08.08 0 0 0 .05.071l.123.043a.07.07 0 0 0 .043 0l2.172-.551v-.543l-2.331.552a.074.074 0 0 0-.057.072m4.144-.948-.227-.033h-.027l-.523.123v.529l.787-.2a.075.075 0 0 0 .057-.073v-.272a.075.075 0 0 0-.067-.074M8.267 2.6a.13.13 0 0 0-.029.1l.01.068c0 .029.009.032.036.038a1 1 0 0 0 .215.014l1.068-.02v-.272l-1.206.022a.13.13 0 0 0-.094.05m4.731.144 3.272-.055v-.284l-3.272.06Zm-2.719.03v.016l.325-.006Zm-3.424 12.72a.12.12 0 0 0 .112.128l2.6.187v-.241l-2.583-.186a.12.12 0 0 0-.129.112m7.032.579.389-.166-4-.287v.241l3.543.255a.2.2 0 0 1 .068-.043m-6.033-.922a.116.116 0 0 0-.116.11v.006a.117.117 0 0 0 .11.124l1.72.11v-.241l-1.7-.109Zm7.091.472a.1.1 0 0 0-.065-.025l-4.6-.293v.241l4.216.268Zm.704-.299-5.37-.342v.241l4.877.31Zm-6.897-.439a.12.12 0 0 0-.077.03.11.11 0 0 0-.04.08V15a.117.117 0 0 0 .109.124l.823.053v-.241l-.807-.051Zm7.411.221-5.884-.375v.212l5.45.347Zm-6.752-.429a.12.12 0 0 0-.077.029.12.12 0 0 0-.039.08v.006a.12.12 0 0 0 .035.091l.238.015v-.212l-.148-.009Zm.868-.006 5.991.381v-.241l-5.991-.381Zm.382-.461a.11.11 0 0 0-.04.08v.01a.115.115 0 0 0 .1.121l5.554.354v-.24l-5.525-.351a.11.11 0 0 0-.089.026m6.586.384v.051l.104-.044Zm-3.482-4.198-3.486-.151v.24l3.486.152ZM6.504 10.2a.12.12 0 0 0 .115.125l2.948.128v-.24l-2.938-.127a.12.12 0 0 0-.125.114m7.408 0 .168-.04-3.8-.108v.159l3.488.151a.19.19 0 0 1 .144-.162M7.449 10a.12.12 0 0 0-.036.08l2.154.094v-.148l-2.034-.057a.12.12 0 0 0-.084.031m7.305-.004-4.475-.128v.14l3.948.112ZM8.34 9.93v.023l1.227.035v-.14L8.46 9.817a.116.116 0 0 0-.12.113m.743-.266a.11.11 0 0 0-.037.082v.006a.1.1 0 0 0 .007.043l.514.014v-.166l-.4-.011a.11.11 0 0 0-.084.032m6.445.149-5.249-.149v.165l4.623.132Zm.704-.167-5.953-.169v.148l5.396.153Zm-5.58-.283a.11.11 0 0 0-.037.082l5.655.16v-.12l-5.534-.157a.11.11 0 0 0-.084.035M6.448 4.521a.12.12 0 0 0-.034.086.12.12 0 0 0 .123.118l3.03-.06v-.241l-3.035.06a.12.12 0 0 0-.084.037m7.408-.181-3.577.07v.241l3.587-.071Zm-6.748.44a.12.12 0 0 0 .086.034l2.373-.047V4.7l-2.479.049a.1.1 0 0 0 .02.031m6.761-.137v-.024l-3.59.071v.063l3.6-.071a.1.1 0 0 1-.01-.039M6.036 15.587l.018.255a.156.156 0 0 0 .155.144h.148a.2.2 0 0 0 .048-.007l.9-.293-.345-.025a.15.15 0 0 1-.109-.055.15.15 0 0 1-.038-.115.16.16 0 0 1 .17-.148l.774.056a.16.16 0 0 1-.063-.134v-.007a.157.157 0 0 1 .165-.146l1.018.065h.009l-.149-.01A.156.156 0 0 1 8.599 15v-.007a.154.154 0 0 1 .165-.145l.515.032a.15.15 0 0 1-.021-.089v-.006a.156.156 0 0 1 .166-.146l.145.009v-.275l-3.424 1.054a.156.156 0 0 0-.109.16m4.546-1.293v-.006a.16.16 0 0 1 .053-.107.15.15 0 0 1 .113-.039l.367.023v-.025a.16.16 0 0 0-.1-.115l-.091-.036a.15.15 0 0 0-.1 0l-.542.167v.239l.348.022a.16.16 0 0 1-.048-.123m-.006-4.85a.157.157 0 0 1 .161-.152l.268.008v-.025a.047.047 0 0 0-.046-.046h-.219l-.461.07v.138l.3.008Zm-4.551.544v.331a.047.047 0 0 0 .046.046h.135l.3-.049a.159.159 0 0 1 .122-.269l.743.032a.15.15 0 0 1 .048-.106.16.16 0 0 1 .112-.043l.767.022v-.023a.154.154 0 0 1 .16-.151l.551.015a.2.2 0 0 1-.005-.042v-.006a.157.157 0 0 1 .161-.152l.4.011v-.195l-3.5.534a.045.045 0 0 0-.04.045m3.542-5.084v-.098l-2.163.043Zm-3.324-.085.889.023a.16.16 0 0 1-.089-.088l-.508.01a.16.16 0 0 1-.159-.156.16.16 0 0 1 .156-.163l1.62-.032-1.98-.106h-.237a.03.03 0 0 0-.028.027v.5a.03.03 0 0 0 .01.021.03.03 0 0 0 .022.007l.29-.04Zm4.585.108a.03.03 0 0 0 .008-.019v-.127l-.557.011v.13l.529.013a.03.03 0 0 0 .02-.008m-3.19 15.44h.861v-.728a.11.11 0 0 1-.073-.112v-.069a.2.2 0 0 1 .073-.158v-3.53l-.86-.061ZM8.499 2.9h-.02a1 1 0 0 1-.211-.021.106.106 0 0 1-.1-.1l-.01-.068a.2.2 0 0 1 .046-.162.2.2 0 0 1 .153-.072h.138v-.249h-.86v2.08l.86.046Zm-.861 2.032v4.692l.86-.131V4.954Zm0 5.478v4.475l.86-.265v-4.173Zm6.609-5.608v4.59l.32.009V4.798Zm0 6.134v3.429l.32.02v-3.53Zm.107 4.938.061-.026-.168-.011v.029Zm-.107-13.076h.32v1.284h-.32Zm.144 16.302-.144.085v.315a.16.16 0 0 0 .32 0v-2.863l-.27.122a.2.2 0 0 1-.05.015v1.951a.15.15 0 0 1 .142 0 .15.15 0 0 1 .076.131v.105a.15.15 0 0 1-.074.139m-.145-3.575h.321v.004h-.321Z"/></svg>