<svg xmlns="http://www.w3.org/2000/svg" viewBox="0 0 24 24"><path fill="#44739e" d="M17.853 11.346h-.505v.625h.464c.209 0 .445-.129.445-.3a.36.36 0 0 0-.404-.325m-.008 1.129h-.507v.544h.411c.207 0 .4-.105.4-.278a.275.275 0 0 0-.304-.266m.901-3.097H5.253a2.621 2.621 0 0 0 0 5.242H18.75a2.621 2.621 0 0 0 0-5.242Zm-10.417 4.14H7.112l-.039-1.031h-.921L6.135 13.5h-1.26l-.152-2.955h1.485l-.039 1.336h.9l-.056-1.318h1.45Zm1.509-1.049h-.891l-.019-.549h.91Zm4.17-1.073h-2.21v.5h1.588l-.019.587h-1.591v.5h2.158l-.02.547h-3.431l-.135-2.956h3.699Zm1.349 1.091h-.874v-.567h.874Zm3.65-.245a.5.5 0 0 1 .441.564c0 .712-.675.753-1.034.753h-2.4l-.134-2.976h2.792a.87.87 0 0 1 .961.85.755.755 0 0 1-.625.787Zm2.039-2.543a3.23 3.23 0 0 0-2.3-.95H5.253A3.254 3.254 0 0 0 2 12a3.26 3.26 0 0 0 3.252 3.251h13.497a3.253 3.253 0 0 0 2.3-5.552Zm-.241 4.36a2.9 2.9 0 0 1-2.059.853H5.253a2.912 2.912 0 1 1 0-5.824H18.75a2.91 2.91 0 0 1 2.059 4.971Z"/></svg>