<svg xmlns="http://www.w3.org/2000/svg" viewBox="0 0 24 24"><path fill="#44739e" d="M14.663 7.2a1.495 1.495 0 0 1 2.114 2.114 1.48 1.48 0 0 1-1.264.425h-.073a.77.77 0 0 0-.424.062.8.8 0 0 0-.4.435.76.76 0 0 0 .021.581 2.87 2.87 0 0 1-3.8 3.8.73.73 0 0 0-.591-.021.76.76 0 0 0-.433.404.8.8 0 0 0-.072.383v.073a1.493 1.493 0 0 1-2.529 1.3 1.48 1.48 0 0 1-.435-1.056 1.5 1.5 0 0 1 .435-1.057 1.48 1.48 0 0 1 1.265-.424H8.5a1 1 0 0 0 .156.02.7.7 0 0 0 .321-.072.75.75 0 0 0 .394-.425.76.76 0 0 0-.021-.6 2.869 2.869 0 0 1 3.8-3.8.74.74 0 0 0 .591.021.8.8 0 0 0 .435-.394.8.8 0 0 0 .062-.467 1.51 1.51 0 0 1 .425-1.302m-1.482 5.969a1.656 1.656 0 1 0-2.342 0 1.663 1.663 0 0 0 2.342.002ZM12 2A10 10 0 1 1 2 12 10 10 0 0 1 12 2m5.326 7.876a2.264 2.264 0 1 0-3.2-3.2 2.33 2.33 0 0 0-.621 1.15 4.393 4.393 0 0 0-5.66 5.674 2.24 2.24 0 0 0-1.161.621 2.264 2.264 0 1 0 3.824 2.031 4.4 4.4 0 0 0 1.533.28 4.4 4.4 0 0 0 4.135-5.927 2.53 2.53 0 0 0 1.15-.629"/></svg>