<?xml version="1.0" encoding="UTF-8"?>
<svg width="24px" fill="#44739e" height="24px" viewBox="0 0 24 24" version="1.1" xmlns="http://www.w3.org/2000/svg" xmlns:xlink="http://www.w3.org/1999/xlink">
            <path d="m 14.663,7.2 a 1.495,1.495 0 0 1 2.114,2.114 1.482,1.482 0 0 1 -1.264,0.425 H 15.44 a 0.774,0.774 0 0 0 -0.424,0.062 0.793,0.793 0 0 0 -0.4,0.435 0.756,0.756 0 0 0 0.021,0.581 2.87,2.87 0 0 1 -3.8,3.8 A 0.731,0.731 0 0 0 10.246,14.596 0.758,0.758 0 0 0 9.813,15 0.831,0.831 0 0 0 9.741,15.383 v 0.073 A 1.493,1.493 0 0 1 7.212,16.756 1.481,1.481 0 0 1 6.777,15.7 1.5,1.5 0 0 1 7.212,14.643 1.483,1.483 0 0 1 8.477,14.219 H 8.5 a 0.833,0.833 0 0 0 0.156,0.02 0.692,0.692 0 0 0 0.321,-0.072 0.748,0.748 0 0 0 0.394,-0.425 0.763,0.763 0 0 0 -0.021,-0.6 2.869,2.869 0 0 1 3.8,-3.8 0.738,0.738 0 0 0 0.591,0.021 0.813,0.813 0 0 0 0.435,-0.394 0.8,0.8 0 0 0 0.062,-0.467 v 0 A 1.514,1.514 0 0 1 14.663,7.2 Z m -1.482,5.969 a 1.656,1.656 0 1 0 -2.342,0 1.663,1.663 0 0 0 2.342,0.002 z M 12,2 A 10,10 0 1 1 2,12 10,10 0 0 1 12,2 Z m 5.326,7.876 a 2.264,2.264 0 1 0 -3.2,-3.2 2.329,2.329 0 0 0 -0.621,1.15 4.393,4.393 0 0 0 -5.66,5.674 2.242,2.242 0 0 0 -1.161,0.621 2.264,2.264 0 1 0 3.824,2.031 4.347,4.347 0 0 0 1.533,0.28 4.4,4.4 0 0 0 4.135,-5.927 2.531,2.531 0 0 0 1.15,-0.629 z"/>

</svg>