<?xml version="1.0" encoding="UTF-8" standalone="no"?>
<svg
   width="24"
   height="24"
   viewBox="0 0 24 24"
   version="1.1"
   xmlns="http://www.w3.org/2000/svg"
   xmlns:svg="http://www.w3.org/2000/svg">
   <path
     style="fill:#44739e" d="M12,2.03721l7.88775,2.53291c.09093.02923.15263.11366.14613.20783l-.52282,7.42663c-.00325.05845.01948.1169.0617.15912l2.34132,2.29586c.07794.07469.08118.19484.01299.27602l-3.14991,3.63376c-.05845.06819-.15912.09417-.2468.05845l-1.85422-.7274c-.0552-.02273-.1169-.01948-.17211.00325-.05521.02598-.09417.07144-.11366.12989l-.86704,2.7992c-.02273.06495-.07469.1169-.14288.13963l-3.31877.98069c-.03897.01299-.08443.01299-.1234,0l-3.31877-.98069c-.06819-.02273-.12015-.07469-.14288-.13963l-.86704-2.7992c-.01948-.05845-.05845-.10392-.11366-.12989-.0552-.02273-.1169-.02598-.17211-.00325l-1.85422.7274c-.08768.03572-.18834.00974-.2468-.05845l-3.14991-3.63376c-.06819-.08118-.06495-.20133.01299-.27602l2.34132-2.29586c.04222-.04221.06495-.10067.0617-.15912l-.52282-7.42663c-.0065-.09417.0552-.1786.14613-.20783l7.88775-2.53291ZM11.90907,15.78963l-1.18527,1.66588c-.04546.06819-.03247.15912.03572.21108l.43514.32798c.06495.04871.15912.04222.21757-.01624l.53256-.56179c.01299-.01299.03247-.02273.0552-.02273.01948,0,.04222.00974.0552.02273l.53256.56179c.0552.05845.15262.06495.21757.01624l.43514-.32798c.06819-.05196.08118-.14288.03572-.21108l-1.18527-1.66588c-.01948-.02922-.0552-.04546-.09093-.04546s-.07144.01624-.09093.04546ZM16.36441,11.61032c-1.14955,0-2.08478.89951-2.08478,2.01009,0,1.10734.93523,2.00685,2.08478,2.00685s2.08154-.89951,2.08154-2.00685c0-1.11058-.93198-2.01009-2.08154-2.01009ZM7.63559,11.61032c-1.14955,0-2.08154.89951-2.08154,2.01009,0,1.10734.93198,2.00685,2.08154,2.00685s2.08478-.89951,2.08478-2.00685c0-1.11058-.93523-2.01009-2.08478-2.01009Z"/>
</svg>