<svg xmlns="http://www.w3.org/2000/svg" viewBox="0 0 24 24"><path fill="#44739e" d="M13.051 11.999c-.063.062 0 .116.139.116s.23-.066.156-.12a.47.47 0 0 0-.295.004m.563 0c-.063.062 0 .116.139.116s.217-.054.164-.118a.47.47 0 0 0-.303.002m.562 0c-.06.06.011.115.147.115s.208-.056.156-.118a.46.46 0 0 0-.303.003m.695 1.956a.24.24 0 0 0-.1.315.235.235 0 1 0 .1-.315m.185.278a.101.101 0 0 1-.169-.112.1.1 0 0 1 .176-.02.09.09 0 0 1-.007.132M8.852 7.38v.381c0 .464 0 .464.143.499l.042.009.007 2.045c.007 2.204.006 2.179.09 2.429.214.639.725.778 2.868.778s2.653-.14 2.861-.766c.092-.276.09-.216.1-2.441l.006-2.044.058-.016c.127-.036.128-.041.128-.485a2 2 0 0 1 .018-.411c.01-.019.15-.238.311-.488l1.2-2.079a1.13 1.13 0 0 0-.283-1.076c-.332-.335-.734-.373-2.316-.218a17.8 17.8 0 0 1-4.165 0 8 8 0 0 0-1.61-.077 1.033 1.033 0 0 0-1.025.936c-.06.442.1.755 1.328 2.656Zm2.369 5.997c-1.64-.034-1.981-.221-2.048-1.124l-.01-.137.048-.01a.066.066 0 0 0-.009-.131h-.037v-1.856c0-2.09-.013-1.9.119-1.809.095.069.814.852 1.421 1.549l.248.336a1.24 1.24 0 0 0 .16.73 1.75 1.75 0 0 1 .19.792l.009.254h-.038c-.11 0-.1.08.014.15a2 2 0 0 1-.029.2c-.054.316-.025.438.14.577.066.055.078.074.086.138a.47.47 0 0 0 .124.288l.065.062Zm-.007-2.536a1.14 1.14 0 0 1-.145-.52c.01-.028.044.009.216.238a1.6 1.6 0 0 1 .289 1.182l-.058.829c-.031.246-.026.234-.078.186-.094-.087-.1-.154-.045-.477a2.27 2.27 0 0 0-.179-1.442Zm3.617-.559-.011 1.69-.043.009c-.083.017-.076.105.011.127l.04.01-.011.156c-.063.884-.4 1.069-2.032 1.099l-.454.01.066-.073a.53.53 0 0 0 .122-.295c.006-.04.016-.074.023-.074a.7.7 0 0 0 .185-.2.56.56 0 0 0 .02-.392c-.041-.235-.041-.236 0-.253.074-.029.068-.1-.011-.123-.128-.033-.046-.605.152-1.063a1.1 1.1 0 0 0 .152-.699c-.016-.055-.028-.04.561-.7L14.738 8.3c.083-.052.094-.039.1.135.002.081-.001.913-.007 1.843Zm-2.229 1.959c.058.322.049.439-.039.519-.043.039-.041.045-.07-.163a3.6 3.6 0 0 1 .086-1.843 4 4 0 0 1 .278-.376l.072-.084v.057a.7.7 0 0 1-.026.172 4 4 0 0 1-.141.37 2.2 2.2 0 0 0-.16 1.348m2.27-4.099c-.2 0-.217.018-.942.821l-1.528 1.861a4.3 4.3 0 0 0-.046 1.732c.077.617.014.751-.352.751s-.44-.137-.37-.687a3.9 3.9 0 0 0-.076-1.886 16 16 0 0 0-1.691-1.999c-.524-.571-.552-.594-.728-.595l-.126-.009-.035-.01v-.372a2.4 2.4 0 0 1 .014-.374c.008 0 .566.583 1.239 1.293l1.763 1.68c.192 0 .114.074 1.578-1.472l1.445-1.499a3 3 0 0 1 .012.367c-.001.421.008.396-.161.397Zm-3.669 1.096c-.251-1-.206-1.333.189-1.433a4 4 0 0 1 1.141-.016c.466.1.517.406.248 1.471-.1.4-.066.332-.313.594-.462.489-.469.489-.905.037a.9.9 0 0 1-.36-.653M7.547 3.975c.229-.383.629-.494 1.539-.43l.868.078a17.4 17.4 0 0 0 4.099 0c1.899-.182 2.246-.107 2.478.529.167.457.077.7-.727 1.972-.6.956-.686 1.079-.722 1.07-.068-.016-.146.06-1.156 1.126L12.891 9.4s.026-.135.063-.293c.295-1.239.093-1.517-1.077-1.479-.976.032-1.131.346-.799 1.621l.034.152s-.47-.482-1.422-1.488c-.657-.695-.7-.734-.764-.721A17.4 17.4 0 0 1 7.57 5.081a1.07 1.07 0 0 1-.023-1.106m8.129 5.355a.239.239 0 0 0-.057.425.235.235 0 1 0 .057-.425m.055.324a.1.1 0 0 1-.03-.194.1.1 0 0 1 .129.038c.056.076.002.165-.099.156M8.19 9.329a.237.237 0 0 0-.1.384.231.231 0 0 0 .351-.3.25.25 0 0 0-.251-.084m.148.295a.107.107 0 1 1-.013-.15.11.11 0 0 1 .013.15m10.849 11.632c0-.753 0-.743-.093-.758l-.061-.01-.006-.283c-.009-.411-.048-.479-.328-.571-.2-.066-.1-.041-2.929-.69l-2.999-.709-.058-.024v-.287c0-.362.009-.346-.2-.353l-.158-.006v-1.451h.219v.129c0 .256.056.293.442.293.358 0 .429-.033.446-.2.009-.092-.008-.089.262-.055a9.4 9.4 0 0 0 1.379 0 .48.48 0 0 0 .332-.425v-.084h.088c.1.005.1.009.13.119.034.126.043.128.61.128.465 0 .5 0 .558-.032a.59.59 0 0 0 0-.968 5.6 5.6 0 0 0-1.08-.017.2.2 0 0 0-.1.158c0 .066-.025.077-.189.077-.118 0-.155 0-.171-.025a.5.5 0 0 0-.1-.063l-.076-.038v-.479l.163-.011a.84.84 0 0 0 .715-.38c.041-.06.058-.07.181-.107a2.8 2.8 0 0 0 1.12-.669c.148-.148.149-.148.279-.11.033.009.053.081.067.239.02.223.117.318.223.22a1.76 1.76 0 0 0-.086-1.266 5.7 5.7 0 0 1 0-1.1 5 5 0 0 0 .093-.758c.047-.669.051-.679.283-.79a.3.3 0 0 0 .139-.108c.035-.054.045-.06.129-.069.249-.029.386-.176.5-.542a1 1 0 0 0 .038-.667c-.159-.31-.932-.438-1.7-.279a.648.648 0 0 0-.569.837 1.2 1.2 0 0 1 .057.244c.028.233.07.318.181.367a.12.12 0 0 1 .083.09c.022.074.037.087.188.167.171.09.187.158.12.539-.043.241-.024.234-.665.234h-.443v-.566c-.005-1.07-.016-1.022.839-3.475.706-2.023.725-2.099.617-2.667a2.08 2.08 0 0 0-1.799-1.616 20.7 20.7 0 0 0-4.519-.382 23 23 0 0 0-3.222.396 2.034 2.034 0 0 0-1.8 1.819c-.045.444-.02.537.69 2.573.815 2.336.807 2.299.8 3.374v.551l-.5-.005c-.626-.006-.582.012-.63-.258-.061-.353-.041-.435.126-.512.12-.055.175-.1.193-.174a.11.11 0 0 1 .058-.067c.125-.058.17-.14.2-.351a2 2 0 0 1 .05-.282c.194-.573-.361-.938-1.361-.895-.644.028-.934.212-.93.59.006.535.274.968.6.97.047 0 .062.01.1.072a.5.5 0 0 0 .156.113c.214.11.217.12.262.753l.086.741a2.2 2.2 0 0 1 .03.5 2.06 2.06 0 0 0 .256 1.3 2.6 2.6 0 0 0 1.3.909c.147.046.162.055.207.117a.83.83 0 0 0 .709.378l.168.01v.477l-.089.048c-.121.066-.208.051-.208-.035a.24.24 0 0 0-.116-.191.57.57 0 0 0-.518.078c-.022.034-.038.04-.1.04a.18.18 0 0 0-.18.119l-.022.053h-.198c-.347 0-.45.073-.43.307.015.188.088.231.4.238l.242.005.025.062a.17.17 0 0 0 .181.107.1.1 0 0 1 .1.049c.09.12.58.132.58.014 0-.04.043-.009.077.054a.46.46 0 0 0 .22.2 7.6 7.6 0 0 0 1.42.019c.283-.035.268-.037.268.04 0 .176.083.217.441.217.385 0 .434-.032.448-.292l.007-.13h.199v1.454h-.123c-.226 0-.215-.019-.228.363l-.011.293-.1.031c-.154.05-1.092.268-4.826 1.12-1.409.322-1.359.292-1.372.829l-.006.284-.061.01c-.094.015-.093.005-.093.756 0 .824-.031.738.271.738.278 0 .261.024.261-.363v-.287h.2v.293c0 .387-.018.363.264.363.3 0 .267.085.267-.74 0-.751 0-.739-.094-.754-.067-.011-.093-.085-.038-.106s1.519-.191 1.534-.177c.03.031-.016.277-.053.277a.17.17 0 0 0-.118.053c-.006.009-.011.327-.012.707 0 .826-.031.74.269.74.28 0 .261.025.266-.353v-.299h.2v.293c0 .388-.017.364.266.364s.266.089.266-.75v-.7l-.035-.025a.15.15 0 0 0-.069-.024c-.086 0-.064-.1.03-.132.054-.02 2.708-.431 2.783-.431.019 0 .025.1.034.637.007.351.018.649.026.664a2 2 0 0 1 .014.338c0 .443-.013.424.283.424.28 0 .263.024.263-.363v-.299h.2v.299c0 .38-.02.354.269.354s.262.033.262-.388a1.2 1.2 0 0 1 .022-.37 3.2 3.2 0 0 0 .028-.66c0-.346.012-.633.018-.639s2.747.4 2.809.429.091.128.027.128a.16.16 0 0 0-.08.032l-.041.033v.692c0 .831-.033.743.278.743.288 0 .27.025.27-.363v-.29h.183l.01.072c.006.04.01.176.01.3 0 .3-.014.281.269.281s.263.085.263-.746v-.689l-.041-.033a.16.16 0 0 0-.084-.032c-.04 0-.091-.243-.058-.276.014-.014 1.499.158 1.531.177s.011.1-.028.1a.14.14 0 0 0-.079.038l-.038.039v.677c0 .83-.03.746.272.746s.275.027.275-.357v-.299h.188v.272c0 .4-.01.384.284.384s.276.088.276-.734m-3.686-5.83c.181 0 .272-.056.308-.191l.016-.058h.9l.046.038a.436.436 0 0 1-.006.586c-.04.031-.059.032-.493.032h-.45l-.017-.061c-.036-.134-.124-.188-.3-.189-.05 0-.09-.005-.091-.012l-.013-.078-.013-.066Zm-7.54.072v.258H7.91c-.043 0-.056-.009-.081-.054-.05-.095-.124-.118-.372-.118-.231 0-.262-.01-.262-.086s.03-.086.272-.086.294-.015.361-.121a.08.08 0 0 1 .082-.05h.051Zm.646-.033a.6.6 0 0 0-.021.12.07.07 0 0 1-.04.062.24.24 0 0 0-.109.149c-.024.107-.013.1-.164.1q-.14 0-.151-.02a1.3 1.3 0 0 1 0-.758c.021-.034.288-.027.3.008l.018.074a.26.26 0 0 0 .139.165l.051.019Zm4.676.764-.009.121h-.514v-.266h.158c.2 0 .218-.01.218-.099v-.07h.066a.13.13 0 0 1 .087.023.14.14 0 0 1 .01.1Zm.363-.146c-.227-.026-.213-.019-.213-.109a.14.14 0 0 0-.053-.133l-.053-.053h.049c.027 0 .123.011.214.023.276.039.25.022.25.166s.019.13-.194.105Zm.522-.399v.429h-.2v-.261l.054-.042c.063-.048.079-.1.094-.29.03-.418.055-.344.055.164Zm.415-1.028-.017.191c0 .073-.013.167-.018.208l-.009.074h-.387v-.057l.019-.237.018-.18.171-.026c.249-.037.231-.039.221.03Zm.591.719a.206.206 0 0 1 .09.25 1 1 0 0 0-.018.168c0 .274-.081.319-.582.32h-.356v-.859h.231l.017.068c.063.251.45.276.5.032.009-.068.015-.067.118.022Zm-.5-.1a7 7 0 0 1 .045-.69.3.3 0 0 1 .186 0 5.5 5.5 0 0 1-.006.787c-.053.068-.198.005-.221-.098Zm1.244-1.256a1 1 0 0 0-.075.094c-.166.249-.291.309-.687.328-.28.014-.323 0-.405-.093a.3.3 0 0 1-.063-.159.35.35 0 0 1 .223-.333c.279-.141.4-.4.457-.992.009-.091.023-.791.03-1.557.016-1.619.029-1.822.122-1.932a.28.28 0 0 1 .348-.072.22.22 0 0 1 .139.222l.007 2.048Zm1.258-.712a2.5 2.5 0 0 1-.947.61c-.137.049-.134.05-.113-.056l.026-.178.009-.095.166-.082a1.66 1.66 0 0 0 1.029-1.291.53.53 0 0 1 .207-.287v.393c-.009.567-.042.652-.373.985Zm-1.014-.43v-.557l.215-.011a2.7 2.7 0 0 0 .799-.117c.039-.023.039-.023.028.066-.018.149-.036.19-.109.241a.35.35 0 0 0-.141.279l-.007.093-.137.134a2.3 2.3 0 0 1-.653.433s.006-.255.009-.562Zm1.581.352c0 .027 0 .027-.043 0a.4.4 0 0 0-.113-.051l-.074-.023a1 1 0 0 1 .057-.134 1 1 0 0 0 .071-.182q.023-.105.053.017a3 3 0 0 1 .053.372Zm-.703-3.686c-.064-.016-.089-.069-.106-.223a2 2 0 0 0-.064-.291.384.384 0 0 1 .154-.492 2.2 2.2 0 0 1 1.27-.16c.4.07.524.173.511.413-.027.479-.222.774-.51.774a.4.4 0 0 0-.113.027 4 4 0 0 1-1.029 0 1 1 0 0 0-.113-.048m-.351 1.361c.753-.01.767-.018.831-.516.05-.387.015-.485-.218-.6l-.1-.05h.4l.419.005c.009 0-.005.012-.031.026-.2.106-.258.228-.288.607l-.041.499-.055.446-.045.237c-.063.4-.378.574-1.122.6l-.27.01v-1.257ZM5.828 9.6a.5.5 0 0 0-.135-.032c-.182-.026-.226-.042-.281-.105a1.15 1.15 0 0 1-.193-.875 1.67 1.67 0 0 1 1.311-.193c.5.07.723.3.611.61a2 2 0 0 0-.064.289c-.034.243-.089.289-.4.323a5 5 0 0 1-.849-.017m.57 1.789a6 6 0 0 1-.088-.766c-.042-.607-.083-.723-.292-.833-.08-.042-.079-.042.393-.043h.4l-.1.05c-.24.114-.28.251-.206.7.065.388.091.399.819.411l.52.006v1.265h-.16c-.8 0-1.189-.2-1.249-.631a2 2 0 0 0-.037-.163ZM7.84 12.88v.56a2 2 0 0 1-.357-.187 1.5 1.5 0 0 1-.664-.811c-.036-.12-.056-.247-.038-.247s.079.017.161.037a3.6 3.6 0 0 0 .683.081l.207.01Zm-.136 1.018a1.91 1.91 0 0 1-1.217-1.151 4.6 4.6 0 0 1-.058-.789c.007-.018.034 0 .11.072l.1.1.019.137a1.68 1.68 0 0 0 1.035 1.258l.151.072.019.142.027.185c.014.046.008.045-.186-.026m.231-4.709a14 14 0 0 0-.726-2.34l-.3-.877a.07.07 0 0 0-.015-.04c-.02-.031-.274-.793-.336-1.03a1.785 1.785 0 0 1 1.283-2.241 18.7 18.7 0 0 1 3.798-.482l1.244.023 2.931.365A1.89 1.89 0 0 1 17.5 4.223c.046.415.016.525-.699 2.566l-.71 2.22-.041.205c-.007.034-.009.034-.11-.019a.4.4 0 0 0-.559.163c-.082.151-.089.263-.1 1.769l-.1 2.152a.66.66 0 0 1-.33.466.45.45 0 0 0-.238.614c.05.1.066.088-.191.127a17.4 17.4 0 0 1-4.44.056l-.627-.094a.3.3 0 0 1 .035-.095.45.45 0 0 0-.246-.616c-.363-.181-.399-.425-.419-2.548l-.1-1.829a.41.41 0 0 0-.593-.146c-.08.048-.082.048-.094-.03Zm1.131 5.739v-.325l.037-.015a.3.3 0 0 1 .107-.012h.071l.022.222c.036.417.034.5-.018.556-.083.086-.214.051-.211-.057-.003-.03-.003-.199-.005-.374Zm-.232-.483c-.371-.018-.477-.062-.637-.264l-.116-.146c-.115-.143-.127-.347-.116-1.934l.024-2.652c0-.137.28-.219.422-.125.163.108.186.364.188 2.067 0 1.874.078 2.281.466 2.462.179.083.244.177.234.336-.011.216-.107.268-.462.251Zm.859 1.245v.429h-.349c-.56 0-.599-.037-.621-.546 0-.072.028-.172.053-.172a.4.4 0 0 0 .079-.047c.081-.06.085-.059.099.01.051.27.407.216.5-.077.007-.023.028-.027.126-.027h.118Zm-.043-.561h-.2l-.011-.086a2 2 0 0 1-.019-.438c.008 0 .1.013.2.029l.187.027.018.179.02.236v.058Zm.387.99h-.216v-.429c0-.372 0-.43.024-.43s.023.005.023.012c.012.328.056.51.132.56.037.024.039.034.039.157Zm-.007-.443a36 36 0 0 1-.087-.97c0-.025.009-.028.074-.019l.3.032a13 13 0 0 0 1.672.064l1.758-.072.3-.026c.014.015-.091 1.008-.108 1.025s-.06.015-.238-.011a14.6 14.6 0 0 0-3.399 0c-.227.027-.258.025-.269-.028Zm.612.148a.22.22 0 0 0-.086.169l-.011.071-.148.019-.191.019h-.043v-.248l.057-.011a4 4 0 0 1 .394-.051h.069Zm.6.393-.005.129h-.516l-.011-.125-.021-.181c-.016-.091.01-.123.1-.123h.077v.067c0 .099.014.099.208.099h.169Zm-.248-.276v-.091q0-.09.02-.091c.276-.026 1.738-.03 1.923 0l.074.01v.177Zm1.188.147v1.509h-.36v-1.514Zm-.715 1.88v-.2l.156-.01c.169-.011.88 0 .9.012a1 1 0 0 1 .013.2v.2h-1.073Zm-6.279 3.099-.01.57v.17H4.99v-1.125l.059-.007.1-.008h.046l-.011.4Zm.4.084h-.269v-.485h.266v.242Zm.328.656h-.191v-.17l-.01-.572-.01-.4.075.01.1.011c.028 0 .029.024.029.563Zm1.761-.746-.01.578v.168h-.191V20.69l.074-.009a.2.2 0 0 0 .084-.019c.046-.04.05.007.04.397Zm.146.09v-.5h.243v.493Zm.579.656h-.186l-.012-.563c-.012-.587-.011-.605.044-.587a1 1 0 0 0 .092.018l.059.008Zm.849-1.759c-.967.146-1.006.162-1.006.407v.07h-.581v-.141c0-.238-.106-.208 1.22-.35l1.154-.109-.79.121Zm-1.506-.039c-.024-.012-1.55.152-1.753.189-.171.031-.232.1-.232.258v.07h-.6l-.01-.23c-.008-.44-.017-.43.485-.567.019-.006.027 0 .031.036.008.07.009.07 1.523-.244l4.199-.865a1 1 0 0 1 .11-.006h.07l.01.07c.012.075.063.877.056.882s-3.874.415-3.892.405Zm3.78-.145c.066-.018.07-.014.06.061a5 5 0 0 0-.019.336c-.01.243-.013.264-.04.264a1.7 1.7 0 0 1-.004-.663Zm.215 1.08-.017.57-.009.293h-.169v-.336l-.016-.343a2 2 0 0 1 0-.468.1.1 0 0 1 .065 0 1 1 0 0 0 .107.009h.051Zm.382-.036v.243h-.25v-.485h.25Zm-.12-.388h-.311v-.1a2.4 2.4 0 0 1 .051-.578 5 5 0 0 0-.032-1.107c-.009-.109-.05-.186-.112-.21a13 13 0 0 0-2.362.446l-2.098.425s.013-.01.037-.015l3.879-.894a.8.8 0 0 0 .382-.163c.026-.031.039-.032.563-.032h.537l.036.038c.092.1.142.111 2.608.674l1.759.409c-.006 0-.961-.192-2.123-.433-2.399-.499-2.34-.484-2.418-.447-.1.045-.094.038-.147.834l-.026.4.036.072c.032.065.036.1.043.382l.007.31Zm.474.492-.011.578v.215h-.085c-.109 0-.1.06-.11-.581l-.011-.558.076-.006.113-.009h.038Zm0-.489a.04.04 0 0 1-.038-.019 7 7 0 0 1-.011-.653l.046.01a1.4 1.4 0 0 1 .005.662Zm3.31.55-.01.578v.154h-.172V20.68h.054c.03 0 .058-.007.063-.016a.06.06 0 0 1 .043-.016c.037 0 .037.001.024.425Zm.4-.174v.25h-.251v-.24c0-.28-.01-.261.136-.261h.115Zm-.423-.376v-.07c0-.245-.038-.261-1.006-.407-1.104-.168-1.105-.168.34-.015l1.167.139c.06.024.074.07.077.264v.089Zm.751.16v1.122h-.173v-.154l-.01-.581c-.011-.417-.01-.427.019-.414a.5.5 0 0 0 .1.02Zm1.761.392-.011.569v.161h-.172v-1.123l.059-.007.1-.008h.038Zm.4-.169v.243h-.25v-.485h.25Zm-.422-.382v-.071c0-.154-.067-.229-.23-.257l-1.754-.19c-.015.009-.78-.066-1.962-.191l-1.937-.206.01-.164c.051-.875.036-.805.172-.792.053.005 1.356.269 2.899.588l2.899.527q.001-.046.031-.036l.181.05c.278.077.289.1.29.48v.262ZM19 21.805h-.172v-.17l-.011-.57c-.009-.353-.007-.4.014-.4a1 1 0 0 1 .1.01l.073.01ZM9.527 11.99c-.08.08.067.148.245.112a.067.067 0 0 0 .049-.103.5.5 0 0 0-.294-.009m.563 0c-.08.08.1.156.259.112a.072.072 0 0 0 .035-.103.5.5 0 0 0-.294-.009m-1.176 1.963a.23.23 0 0 0-.124.211.225.225 0 1 0 .448.018.221.221 0 0 0-.324-.229m.2.25a.1.1 0 0 1-.063.057.104.104 0 0 1-.092-.186c.051-.027.054-.028.1-.006a.1.1 0 0 1 .055.135m1.689-2.232a.3.3 0 0 0-.145.019c-.06.06.012.122.14.122s.17-.02.17-.067-.034-.074-.165-.074"/></svg>