<svg xmlns="http://www.w3.org/2000/svg" viewBox="0 0 24 24"><path fill="#44739e" d="M3.88 11.64V7.83h1.176v3.81Zm.44-1.366.012-1.023h3.244v1.023Zm2.592 1.367V7.83h1.176v3.81Zm1.981 0V7.83h1.176v3.81Zm.496-1.285V9.43h2.695v.926Zm.076-1.524V7.83h2.82v1.002Zm3.479 2.809V7.83h1.012l1.737 2.15h-.751l1.737-2.15h1.012v3.81H16.56v-.963q0-.451.021-.85.022-.397.087-.81l.115.364-1.285 1.459h-.36l-1.306-1.48.136-.344q.066.414.087.812.021.397.022.849v.964ZM2 16.17v-3.81h1.176v3.81Zm.495-1.284v-.925H5.19v.925Zm.077-1.524V12.36h2.82v1.002Zm3.479 2.809V12.36H9.66v.953H7.177v1.905h2.58v.953Zm.615-1.48v-.894h2.793v.893Zm3.723 1.48V12.36h1.176v2.809h1.693v1.002Zm4.665 0h-1.176V12.36h1.176Zm2.213 0H15.74l3.266-3.82h1.528Zm-1.527-3.82h1.527l3.267 3.82h-1.527ZM22 10.64h-2.327V7.83h-1.176v3.81h2.646ZM6.746 17.605 4.926 22H7.47l1.82-4.395Zm10.508-11.21L19.075 2H16.53l-1.82 4.396Zm-4.651-2.93-1.214 2.93h2.546l1.213-2.93Zm-1.206 17.07 1.214-2.93h-2.546l-1.214 2.93Z"/></svg>