<?xml version="1.0" encoding="UTF-8"?>
<svg width="24px" fill="#44739e" height="24px" viewBox="0 0 24 24" version="1.1" xmlns="http://www.w3.org/2000/svg" xmlns:xlink="http://www.w3.org/1999/xlink">
            <path d="m 21.012,13.905 a 2.066,2.066 0 0 0 -0.824,0.066 l -7.22,1.288 a 5.677,5.677 0 0 1 -1.946,0 L 3.813,13.971 a 2.071,2.071 0 0 0 -0.825,-0.066 0.7,0.7 0 0 0 0,1.349 c 0.234,0.077 0.4,0.112 0.825,0.214 l 6.67,1.639 a 6.333,6.333 0 0 0 3.029,0 l 6.676,-1.639 c 0.422,-0.1 0.59,-0.137 0.824,-0.214 a 0.7,0.7 0 0 0 0,-1.349 z m 0.96,-3.251 a 0.7,0.7 0 0 0 -0.476,-0.476 2.357,2.357 0 0 0 -0.825,0.01 l -7.693,0.774 a 9.785,9.785 0 0 1 -1.966,0 L 3.329,10.188 a 2.357,2.357 0 0 0 -0.825,-0.01 0.7,0.7 0 0 0 0,1.344 4.625,4.625 0 0 0 0.825,0.168 l 7.352,1.181 a 8.425,8.425 0 0 0 2.633,0 l 7.357,-1.181 a 4.3,4.3 0 0 0 0.825,-0.168 0.7,0.7 0 0 0 0.476,-0.868 z m -2.948,7.474 a 1.62,1.62 0 0 0 -0.824,0.1 l -4.517,1.217 a 6.48,6.48 0 0 1 -3.38,0 l -4.5,-1.22 a 1.62,1.62 0 0 0 -0.824,-0.1 0.7,0.7 0 0 0 -0.5,0.677 0.724,0.724 0 0 0 0.5,0.682 A 7.888,7.888 0 0 0 5.8,19.8 l 4.282,1.492 a 5.833,5.833 0 0 0 3.834,0 L 18.2,19.8 a 7.868,7.868 0 0 0 0.824,-0.311 0.724,0.724 0 0 0 0.5,-0.682 0.7,0.7 0 0 0 -0.5,-0.679 z M 6.588,4.236 a 3.355,3.355 0 0 0 0.825,0.062 h 9.175 a 3.351,3.351 0 0 0 0.824,-0.062 0.7,0.7 0 0 0 0,-1.343 4.87,4.87 0 0 0 -0.824,-0.118 l -2.3,-0.259 a 20.272,20.272 0 0 0 -4.593,0 L 7.41,2.775 A 4.881,4.881 0 0 0 6.585,2.893 0.7,0.7 0 0 0 6.085,3.565 0.693,0.693 0 0 0 6.588,4.236 Z M 3.853,8.055 a 4.493,4.493 0 0 0 0.825,0.1 l 6.507,0.463 a 12.5,12.5 0 0 0 1.619,0 l 6.518,-0.463 a 4.408,4.408 0 0 0 0.825,-0.1 0.7,0.7 0 0 0 0,-1.345 3.215,3.215 0 0 0 -0.825,-0.061 H 4.678 a 3.215,3.215 0 0 0 -0.825,0.061 0.7,0.7 0 0 0 0,1.345 z"/>

</svg>