<?xml version="1.0" encoding="UTF-8"?>
<svg width="24px" fill="#44739e" height="24px" viewBox="0 0 24 24" version="1.1" xmlns="http://www.w3.org/2000/svg" xmlns:xlink="http://www.w3.org/1999/xlink">
            <path d="m 16.743,10.59 a 0.834,0.834 0 0 0 -0.43,0.1 c -0.026,0.013 -0.376,0.177 -0.406,0.177 -0.01,0 -0.037,-0.01 -0.037,-0.03 v 0 -1.454 c 0,-0.086 0.034,-0.3 -0.106,-0.3 A 0.726,0.726 0 0 0 15.53,9.153 3.956,3.956 0 0 1 14.694,9.38 c -0.09,0.013 -0.274,0.026 -0.274,0.146 0,0.07 0.077,0.09 0.127,0.1 0.357,0.05 0.337,0.117 0.337,0.463 v 2.964 a 3,3 0 0 1 -0.014,0.423 0.651,0.651 0 0 0 -0.013,0.107 c 0,0.076 0.03,0.126 0.113,0.126 0.184,0 0.207,-0.393 0.347,-0.393 a 0.8,0.8 0 0 1 0.183,0.083 1.541,1.541 0 0 0 0.83,0.217 1.693,1.693 0 0 0 1.837,-1.577 1.409,1.409 0 0 0 -1.424,-1.449 z m 0.214,2.337 a 0.742,0.742 0 0 1 -0.6,0.463 c -0.524,0 -0.487,-0.45 -0.487,-0.837 v 0 -1.12 A 0.36,0.36 0 0 1 16.28,11 c 0.577,0 0.837,0.7 0.837,1.184 a 1.691,1.691 0 0 1 -0.16,0.743 z M 12.943,10.59 a 0.834,0.834 0 0 0 -0.43,0.1 4.391,4.391 0 0 1 -0.4,0.177 c -0.013,0 -0.04,-0.01 -0.04,-0.03 V 9.383 c 0,-0.086 0.033,-0.3 -0.107,-0.3 a 0.713,0.713 0 0 0 -0.233,0.07 3.965,3.965 0 0 1 -0.837,0.227 c -0.09,0.013 -0.273,0.026 -0.273,0.146 0,0.07 0.077,0.09 0.127,0.1 0.356,0.05 0.336,0.117 0.336,0.463 v 2.964 a 3,3 0 0 1 -0.013,0.423 0.559,0.559 0 0 0 -0.013,0.107 c 0,0.076 0.03,0.126 0.113,0.126 0.187,0 0.21,-0.393 0.35,-0.393 a 0.726,0.726 0 0 1 0.183,0.083 1.55,1.55 0 0 0 0.83,0.217 1.7,1.7 0 0 0 1.837,-1.577 1.409,1.409 0 0 0 -1.43,-1.449 z m 0.214,2.337 a 0.738,0.738 0 0 1 -0.6,0.463 c -0.524,0 -0.487,-0.45 -0.487,-0.837 v -1.12 A 0.474,0.474 0 0 1 12.133,11.143 0.459,0.459 0 0 1 12.48,11 c 0.577,0 0.837,0.7 0.837,1.184 a 1.691,1.691 0 0 1 -0.16,0.743 z M 9.97,10.957 A 1.93,1.93 0 0 0 8.793,10.59 1.682,1.682 0 0 0 7,12.1 1.59,1.59 0 0 0 8.743,13.61 1.683,1.683 0 0 0 10.553,12.053 1.4,1.4 0 0 0 9.97,10.957 Z M 8.853,13.4 c -0.633,0 -0.836,-0.994 -0.836,-1.464 0,-0.423 0.166,-1.126 0.71,-1.126 a 0.768,0.768 0 0 1 0.613,0.473 2.2,2.2 0 0 1 0.2,0.923 C 9.537,12.62 9.41,13.393 8.853,13.4 Z M 6.63,9.857 C 6.707,9.843 6.807,9.83 6.807,9.73 6.807,9.63 6.74,9.61 6.65,9.61 c -0.3,0 -0.6,0.027 -0.907,0.027 -0.33,0 -0.646,-0.027 -0.976,-0.027 -0.09,0 -0.154,0.02 -0.154,0.12 0,0.1 0.127,0.113 0.2,0.127 0.4,0.07 0.366,0.233 0.366,0.62 v 0.613 c 0,0.233 0.007,0.227 -0.21,0.227 v 0 H 3.843 c -0.22,0 -0.226,0 -0.226,-0.226 v -0.614 c 0,-0.423 -0.03,-0.55 0.4,-0.62 0.076,-0.013 0.176,-0.026 0.176,-0.126 0,-0.1 -0.07,-0.12 -0.156,-0.12 -0.3,0 -0.6,0.026 -0.907,0.026 C 2.8,9.637 2.483,9.611 2.153,9.611 2.063,9.611 2,9.631 2,9.731 c 0,0.1 0.127,0.113 0.2,0.126 0.4,0.07 0.367,0.234 0.367,0.62 v 2.243 c 0,0.413 0.017,0.52 -0.4,0.59 -0.077,0.013 -0.17,0.047 -0.17,0.147 0,0.1 0.063,0.12 0.153,0.12 0.3,0 0.607,-0.027 0.91,-0.027 0.33,0 0.647,0.027 0.977,0.027 0.083,0 0.153,-0.024 0.153,-0.12 0,-0.117 -0.12,-0.134 -0.2,-0.147 -0.4,-0.063 -0.373,-0.217 -0.373,-0.59 v -0.887 c 0,-0.26 -0.02,-0.233 0.246,-0.233 H 4.99 c 0.17,0 0.183,-0.017 0.19,0.153 v 0.97 c 0,0.414 0.017,0.52 -0.4,0.59 -0.077,0.014 -0.17,0.047 -0.17,0.147 0,0.1 0.063,0.12 0.153,0.12 0.3,0 0.61,-0.027 0.914,-0.027 0.326,0 0.643,0.027 0.973,0.027 0.083,0 0.153,-0.023 0.153,-0.12 0,-0.117 -0.12,-0.133 -0.2,-0.147 -0.4,-0.066 -0.373,-0.216 -0.37,-0.59 V 10.477 C 6.23,10.053 6.2,9.927 6.63,9.857 Z m 15.207,0.8 c -0.184,0 -0.36,0.013 -0.544,0.013 -0.184,0 -0.36,-0.013 -0.543,-0.013 -0.077,0 -0.2,0 -0.2,0.1 0,0.133 0.146,0.14 0.24,0.146 0.123,0.007 0.286,0.05 0.286,0.2 A 0.716,0.716 0 0 1 21,11.356 l -0.424,0.957 c -0.013,0.047 -0.07,0.2 -0.133,0.2 -0.063,0 -0.113,-0.166 -0.133,-0.2 l -0.467,-0.977 a 0.857,0.857 0 0 1 -0.1,-0.277 c 0,-0.13 0.163,-0.133 0.247,-0.153 0.084,-0.02 0.163,-0.043 0.163,-0.14 0,-0.097 -0.143,-0.107 -0.227,-0.107 -0.246,0 -0.5,0.014 -0.74,0.014 -0.276,0 -0.57,-0.014 -0.846,-0.014 -0.1,0 -0.217,0 -0.217,0.107 0,0.107 0.107,0.127 0.183,0.14 0.12,0.02 0.177,0.02 0.26,0.12 a 2.916,2.916 0 0 1 0.28,0.47 l 0.937,1.893 a 1.063,1.063 0 0 1 0.12,0.347 0.614,0.614 0 0 1 -0.133,0.3 c -0.134,0.157 -0.287,0.12 -0.477,0.114 -0.133,-0.007 -0.28,-0.027 -0.373,0.1 a 0.589,0.589 0 0 0 -0.084,0.31 c 0,0.333 0.277,0.353 0.557,0.353 0.42,0 0.393,-0.1 0.52,-0.47 L 20.256,13.62 21.21,11.6 a 3,3 0 0 1 0.3,-0.55 c 0.11,-0.133 0.16,-0.123 0.316,-0.147 0.087,-0.013 0.177,-0.04 0.177,-0.146 0,-0.106 -0.083,-0.1 -0.166,-0.1 z"/>

</svg>