<?xml version="1.0" encoding="UTF-8"?>
<!DOCTYPE svg PUBLIC "-//W3C//DTD SVG 1.1//EN" "http://www.w3.org/Graphics/SVG/1.1/DTD/svg11.dtd">
<svg xmlns="http://www.w3.org/2000/svg" xmlns:xlink="http://www.w3.org/1999/xlink" fill="#44739e" version="1.1" id="mdi-google-home" width="32" height="32" viewBox="0 0 24 24">
<path d="M19,5H5C2.79,5,1,6.79,1,9v5c0,2.21,1.79,4,4,4h2v1h10v-1h2c2.21,0,4-1.79,4-4V9C23,6.79,21.21,5,19,5z M21,14 c0,1.1-0.9,2-2,2H5c-1.1,0-2-0.9-2-2V9c0-1.1,0.9-2,2-2h14c1.1,0,2,0.9,2,2V14z" />
</svg>