<svg version="1.1" viewBox="0 0 24 24" fill="#44739e"
    xmlns="http://www.w3.org/2000/svg"
    xmlns:svg="http://www.w3.org/2000/svg">
    <path d="M 11.970985,0.30200076 A 0.7165682,0.71657139 0 0 0 11.526737,0.45708123 C 8.0124129,3.2443132 4.4981804,6.0316 0.98385644,8.8188319 A 0.7165682,0.71657139 0 0 0 0.84518791,8.9648793 C 0.95583178,8.8092959 0.88158242,8.919364 0.7970992,8.9795096 0.71261599,9.0396552 0.59792078,9.1155651 0.48375918,9.1990907 0.42667837,9.2408535 0.36972408,9.2836592 0.30603445,9.3410671 0.24234482,9.3984756 0.16315441,9.438838 0.06533639,9.6607699 0.01642738,9.7717355 -0.03976827,9.9768792 0.03989262,10.209721 c 0.07966089,0.232843 0.27733754,0.384011 0.40493759,0.441324 0.25356547,0.113893 0.35290062,0.07879 0.46320383,0.07137 0.39871096,0.02123 0.73685296,-0.01892 0.92208216,3.91e-4 0.076889,0.008 0.086499,0.01608 0.096686,0.01985 0.032113,3.578454 0.00452,7.166523 0.014248,10.759328 a 0.7165682,0.71657139 0 0 0 0.014249,0.140068 c -3.713e-4,-0.0018 -0.027469,0.366646 -0.033204,0.764208 -0.00287,0.19878 -0.00902,0.430127 0.1373964,0.720698 0.1464146,0.29057 0.5647967,0.551451 0.9082154,0.558875 a 0.7165682,0.71657139 0 0 0 0.015521,1.17e-4 h 14.680801 a 0.7165682,0.71657139 0 0 0 0.02137,-3.91e-4 c 1.147213,-0.03416 2.389253,0.08383 3.685403,-0.06972 a 0.7165682,0.71657139 0 0 0 0.63215,-0.711529 c 4.7e-5,-0.497404 -1.6e-5,-0.995486 0,-1.493048 0.01591,-0.17099 0.01696,-0.34247 0,-0.514474 0,-0.0083 0,-0.01662 0,-0.02494 -0.0074,-2.132192 -0.0015,-4.268304 0,-6.406261 -3e-6,-0.664241 -3.7e-5,-1.328427 0,-1.99251 l -0.002,0.05407 c 0.05872,-0.776409 -0.03092,-1.389428 0.05343,-1.803463 0.04107,-0.0094 0.100558,-0.01245 0.215381,-0.01348 0.239418,-0.0022 0.601413,0.06488 1.055535,0.008 a 0.7165682,0.71657139 0 0 0 0.07188,-0.01272 c 0.08353,-0.01925 0.19649,-0.05082 0.329115,-0.160297 0.132625,-0.109476 0.256893,-0.332057 0.270595,-0.523762 C 24.024262,9.6380262 23.865274,9.5232723 23.795217,9.4411888 23.655103,9.2770224 23.558287,9.2210123 23.451471,9.1437502 23.344656,9.0664881 23.238415,8.9942069 23.159504,8.9367638 23.080593,8.8793208 23.017348,8.8039639 23.084445,8.8874029 a 0.7165682,0.71657139 0 0 0 -0.06437,-0.069971 C 22.668519,8.4828013 22.307333,8.2640585 22.045958,8.057805 21.815976,7.8763247 21.688477,7.7263913 21.612141,7.5599953 V 4.8018786 c 0.03017,-0.157125 0.04762,-0.3164859 0.02265,-0.4929752 C 21.603616,4.0886468 21.48872,3.8311521 21.291041,3.65983 20.947447,3.3620485 20.579774,3.3659691 20.255479,3.4196397 c -0.24751,-0.027789 -0.551521,0.01163 -0.779342,0.2291222 -0.294137,0.2808019 -0.289742,0.5729039 -0.291459,0.7477957 -0.0017,0.1748918 0.01777,0.3049172 0.02583,0.3980695 0.0081,0.093152 -0.0085,0.1520878 0.0126,0.06679 a 0.7165682,0.71657139 0 0 0 -0.0071,0.3124509 c 0.03365,0.1682927 -0.02189,0.4746795 -0.07353,0.5830466 -0.0033,-0.00151 -0.0052,-0.0025 -0.0089,-0.00433 C 16.894238,3.9869845 14.654911,2.2214137 12.415615,0.45580903 A 0.7165682,0.71657139 0 0 0 11.970985,0.30200076 Z M 11.92137,2.3597748 c 0.179047,-9.347e-4 0.367703,0.043045 0.536991,0.1240389 2.046746,1.5523587 4.052966,3.1907642 6.10256,4.789811 l -0.03689,-0.03066 c 0.497704,0.4449216 1.032904,0.7760037 1.411366,1.1154598 0.374404,0.3358156 0.574629,0.614024 0.614339,1.0248793 0.0069,0.5623819 0.0032,1.1267172 0.0067,1.6896012 -0.01153,0.256388 -0.01,0.496534 0.0028,0.716246 0.0038,0.890907 0.01131,1.781239 0.01069,2.673261 1.3e-5,2.138461 3.4e-5,4.276658 0,6.414403 -2e-6,0.150812 5e-6,0.301719 0,0.452519 -0.02522,0.172382 -0.07832,0.341017 -0.158387,0.467786 -0.135641,0.214748 -0.271696,0.31357 -0.522615,0.318049 -5.108048,0.01755 -10.2191776,0.0025 -15.3324157,0.0075 a 0.7165682,0.71657139 0 0 0 -0.1147514,0.0093 C 4.1826617,22.174256 3.8848486,22.100659 3.6840785,21.95729 3.4833083,21.81392 3.3791233,21.647648 3.3807888,21.394725 a 0.7165682,0.71657139 0 0 0 1.302e-4,-0.0081 C 3.365033,18.11633 3.378589,14.841989 3.374049,11.564523 l -0.00165,0.05012 C 3.4189842,10.936947 3.3449622,10.304285 3.367683,9.7789565 3.3897573,9.2685807 3.4786104,8.907433 3.7460318,8.5963249 6.2668915,6.538345 8.8614646,4.5467905 11.425852,2.5030239 11.552366,2.408471 11.730431,2.3607718 11.92137,2.3597748 Z m 0.05292,3.0879968 A 0.7165682,0.71657139 0 0 0 11.528772,5.6013255 C 10.214669,6.6361849 8.9004908,7.6711283 7.5863873,8.7059877 a 0.7165682,0.71657139 0 0 0 -0.047198,0.040583 C 7.2210034,9.045395 6.4911494,9.3355012 6.0235039,10.135171 a 0.7165682,0.71657139 0 0 0 -0.097958,0.355069 c -0.026113,2.818812 -0.00381,5.632633 -0.011195,8.438846 a 0.7165682,0.71657139 0 0 0 0.7164966,0.718408 H 17.313159 a 0.7165682,0.71657139 0 0 0 0.716496,-0.7165 v -3.428182 a 0.7165682,0.71657139 0 0 0 -1.3e-4,-0.01056 c -0.02484,-1.682551 0.05341,-3.414129 -0.0416,-5.165489 A 0.7165682,0.71657139 0 0 0 17.728143,9.8125428 C 17.505839,9.6293709 17.27851,9.4552823 17.054774,9.2744046 16.995806,9.2217686 16.936815,9.165907 16.878449,9.1185607 16.75352,9.0172183 16.63843,8.9348593 16.519946,8.8470744 15.879141,8.3352356 15.241777,7.8209158 14.59856,7.3177695 14.389016,7.1473689 14.174972,6.9810003 13.955468,6.8121999 13.442093,6.4102286 12.926055,6.0088013 12.418792,5.6041243 A 0.7165682,0.71657139 0 0 0 11.974293,5.4477716 Z m 0.01552,1.8898443 c 0.121147,5.86e-5 0.232049,0.023008 0.325043,0.059793 0.858104,0.5635466 1.67289,1.3108786 2.598446,2.0070135 l -0.0603,-0.050761 c 0.297389,0.2797691 0.591394,0.4863294 0.85631,0.6798606 0.118268,0.09462 0.237449,0.188855 0.355195,0.283827 0.2183,0.190198 0.368028,0.364643 0.438905,0.561928 0.06297,1.935368 0.0094,3.90057 0.02811,5.885425 a 0.7165682,0.71657139 0 0 0 0.0014,0.03702 c 0.02196,0.358408 0.0053,0.751323 -0.06883,0.974882 -0.06887,0.207717 -0.07807,0.248202 -0.270212,0.284208 -2.468247,0.05303 -4.956371,0.0078 -7.457442,0.02341 a 0.7165682,0.71657139 0 0 0 -0.041473,0.0014 c -0.3644733,0.02343 -0.7647878,0.0049 -0.9851828,-0.07112 -0.2109541,-0.07275 -0.2439977,-0.06842 -0.2742833,-0.296676 -0.051405,-1.595585 -0.00806,-3.219025 -0.023027,-4.86258 l -0.00216,0.06259 C 7.4886096,11.920617 7.3333012,11.150028 7.5390634,10.6541 8.3335362,9.8938596 9.3283298,9.2419283 10.29297,8.4476069 l -0.06844,0.049743 c 0.436691,-0.2803459 0.76006,-0.6052355 1.047898,-0.826036 0.283333,-0.2173456 0.490917,-0.321679 0.717387,-0.3336967 z M 0.8409897,9.2830553 c 0.004653,1.303e-4 0.0245896,0.00894 0.0307869,0.0098 a 0.7165682,0.71657139 0 0 0 -0.052923,-6.514e-4 c -0.007463,4.56e-4 -0.006743,-0.010131 0.0221361,-0.00916 z M 11.972003,10.072452 a 0.7165682,0.71657139 0 0 0 -0.429873,0.143249 c -0.607937,0.455954 -1.215873,0.911909 -1.8238091,1.367863 a 0.7165682,0.71657139 0 0 0 -0.2866241,0.573251 v 3.19168 a 0.7165682,0.71657139 0 0 0 0.7293462,0.716373 c 1.215872,-0.02171 2.431745,-0.04342 3.647619,-0.06514 a 0.7165682,0.71657139 0 0 0 0.703647,-0.716373 v -3.12654 A 0.7165682,0.71657139 0 0 0 14.225685,11.583564 C 13.617748,11.12761 13.009812,10.671655 12.401875,10.215701 A 0.7165682,0.71657139 0 0 0 11.972003,10.072452 Z M 1.2949065,10.38274 c -0.019872,0.0226 -0.030006,0.02333 -0.029387,0.02277 5.406e-4,-4.56e-4 0.019705,-0.01507 0.029387,-0.02277 z m 10.6787505,1.44623 c 0.353169,0.165888 0.668832,0.433888 0.976786,0.782145 0.106981,0.484471 0.04471,1.1194 0.04745,1.859948 -0.0059,-0.002 -0.0216,-0.01206 -0.08778,0.0051 -0.141391,0.03663 -0.442474,0.03692 -0.747792,0.02595 l 0.01946,0.001 c -0.454607,-0.02875 -0.855292,0.02186 -1.07767,-0.0076 -0.111189,-0.01475 -0.155857,-0.04108 -0.156734,-0.04173 -6.5e-5,-6.5e-5 -0.0019,-0.0065 -0.0019,-0.0061 -0.0041,-0.705068 -0.05199,-1.323163 0.04478,-1.810205 0.345935,-0.348362 0.68199,-0.65439 0.983402,-0.808479 z m 1.036706,2.569578 c -0.01256,0.06292 -0.0024,0.07306 -0.0067,0.07213 z"></path>
</svg>