<svg xmlns="http://www.w3.org/2000/svg" width="24" height="24" viewBox="0 0 24 24">
  <path id="Colore_riempimento_1" fill="#44739e" data-name="Colore riempimento 1" class="cls-1" d="M 13.266,2 10.787,2.071 A 6.188,6.188 0 0 0 4.255,8.6 v 6.3 a 7.118,7.118 0 0 0 7.1,7.1 h 1.3 a 7.118,7.118 0 0 0 7.1,-7.1 V 8.6 C 19.745,4.7 17.545,2.211 13.266,2 Z M 12,5.375 C 9.32,5.375 7.148,4.701 7.148,3.868 7.148,3.035 9.32,2.361 12,2.361 c 2.68,0 4.852,0.675 4.852,1.507 0,0.832 -2.172,1.507 -4.852,1.507 z"/>
</svg>
