<svg xmlns="http://www.w3.org/2000/svg" viewBox="0 0 24 24"><path fill="#44739e" d="M17.732 10.362a60 60 0 0 1-.166 4.613.807.807 0 0 1-.875.875 60 60 0 0 1-4.614.166 60 60 0 0 1-4.613-.166.808.808 0 0 1-.876-.875 60 60 0 0 1-.165-4.613c0-1.537.047-3.076.165-4.614a.808.808 0 0 1 .876-.875 60 60 0 0 1 4.613-.166c1.538 0 3.076.047 4.614.166a.807.807 0 0 1 .875.875c.1 1.538.166 3.076.166 4.614m1.869 0c0-1.87-.071-3.715-.237-5.56a1.87 1.87 0 0 0-1.7-1.7 63 63 0 0 0-5.56-.236c-1.869 0-3.715.071-5.56.236a1.87 1.87 0 0 0-1.7 1.7 60 60 0 0 0-.244 5.56c0 1.846.094 3.714.236 5.559a1.87 1.87 0 0 0 1.7 1.7 62 62 0 0 0 5.56.237c1.869 0 3.714-.095 5.56-.237a1.87 1.87 0 0 0 1.7-1.7c.166-1.845.237-3.69.237-5.559m-6.972-.024V8.019H13.8a1.057 1.057 0 0 1 1.14 1.136 1.07 1.07 0 0 1-1.159 1.159h-1.16Zm-1.254 3.407h1.254v-2.342h1.4a2.11 2.11 0 0 0 2.173-2.224 2.08 2.08 0 0 0-2.177-2.2h-2.65Zm-2.579 0h1.254V6.979H8.788Zm11.387 6.387a.986.986 0 0 0 1.038 1 1.08 1.08 0 0 0 .787-.31l-.182-.337a.88.88 0 0 1-.562.244.583.583 0 0 1-.6-.6.57.57 0 0 1 .582-.593.76.76 0 0 1 .5.2l.21-.325a.98.98 0 0 0-.737-.287.986.986 0 0 0-1.038 1m-.937.957h.476v-1.902h-.476Zm0-2.24h.472v-.422h-.472Zm-1.407 1.539a.7.7 0 0 0 .794.72 1 1 0 0 0 .148-.011v-.41a.4.4 0 0 1-.086.008.34.34 0 0 1-.379-.36v-.744h.434v-.38h-.434v-.55h-.465v.55h-.26v.38h.248v.8ZM16 20.515c0-.267.4-.3.64-.3h.081v.047a.49.49 0 0 1-.43.5c-.2-.007-.291-.128-.291-.252m-.48.02a.6.6 0 0 0 .651.6.62.62 0 0 0 .581-.338h.008a1 1 0 0 0-.008.136v.159h.438v-1.2a.712.712 0 0 0-.794-.764 1.3 1.3 0 0 0-.752.237l.178.341a1.03 1.03 0 0 1 .527-.182c.209 0 .368.085.368.337v.027h-.062c-.314 0-1.135.039-1.135.647m-3.413.554h.476v-.841a1 1 0 0 1 .023-.244.5.5 0 0 1 .469-.438c.225 0 .26.175.26.384v1.144h.476v-.841a1 1 0 0 1 .024-.248.5.5 0 0 1 .461-.434c.221 0 .263.167.263.384v1.139h.473v-1.232c0-.5-.229-.729-.628-.729a.75.75 0 0 0-.655.4h-.009a.53.53 0 0 0-.558-.4.72.72 0 0 0-.624.4h-.008a1 1 0 0 0 .008-.132v-.217H12.1v1.91Zm-1.961-1.143a.637.637 0 0 1 .651-.577.526.526 0 0 1 .535.577Zm-.275.2a.954.954 0 0 0 .988.988 1.08 1.08 0 0 0 .7-.263l-.116-.194a.87.87 0 0 1-.573.229.71.71 0 0 1-.732-.748h1.449s.007-.085.007-.132a.79.79 0 0 0-.786-.871.92.92 0 0 0-.934.991m-3.3.942h.246v-.891a1 1 0 0 1 .027-.252.69.69 0 0 1 .62-.554c.356 0 .4.279.4.562v1.141h.256v-.891a.9.9 0 0 1 .035-.275.67.67 0 0 1 .6-.535c.345 0 .411.256.411.562v1.135h.251v-1.2c0-.465-.171-.732-.628-.732a.77.77 0 0 0-.694.472h-.007a.524.524 0 0 0-.585-.472.77.77 0 0 0-.682.476h-.008a1 1 0 0 0 .008-.151v-.283h-.252v1.894Zm-2.212-.953a.736.736 0 1 1 1.472 0 .737.737 0 1 1-1.472 0m-.26 0a1 1 0 0 0 2 0 1 1 0 0 0-2 0M2 21.089h.26v-.9a.8.8 0 0 1 .031-.252.714.714 0 0 1 .685-.534c.365 0 .411.263.411.558v1.128h.252v-1.2c0-.465-.167-.732-.632-.732a.82.82 0 0 0-.751.468h-.008a1 1 0 0 0 .008-.155v-1.155H2Z"/></svg>