
<svg height='30px' width='30px'  fill="#44739e" xmlns="http://www.w3.org/2000/svg" xmlns:xlink="http://www.w3.org/1999/xlink" version="1.1" viewBox="0 0 100 100" style="enable-background:new 0 0 100 100;" xml:space="preserve"><path d="M88.3,48.6c-1.4-13.5-7.2-21.2-8.5-22.7c-0.6-0.7-2.7-3.6-6.6-5.6c-17.5-8.7-41.9-2.9-46.1-0.1  c-11.4,7.6-15.9,23.9-14.5,35.5c1.7,13.9,13,23.5,19.5,27.4c15.4,7.8,28.4,3.3,34.1,1.3c3.6-1.4,6-3.3,7.9-4.9l-1.1,0.9 C73.1,80.4,89,71.5,88.3,48.6z M33.3,25.3c-1.4-1.5-1.5-2.5-0.2-4.1c2-2.5,10.7-3.5,18-3.4c16.5,0.3,19.5,3.7,19.5,5.9  C69.1,31.4,36.8,29.1,33.3,25.3z"></path></svg>