
<svg height='24px' width='24px'  fill="#44739e" xmlns="http://www.w3.org/2000/svg" xmlns:xlink="http://www.w3.org/1999/xlink" version="1.1" viewBox="0 0 24 24" style="enable-background:new 0 0 100 100;" xml:space="preserve"><path d="M 21.994,11.208 A 11.253,11.253 0 0 0 19.756,5.232 5.319,5.319 0 0 0 18.019,3.758 C 13.412,1.468 6.988,2.994 5.882,3.732 c -3,2 -4.185,6.292 -3.817,9.345 0.448,3.66 3.423,6.187 5.134,7.214 a 10.824,10.824 0 0 0 8.977,0.342 7.094,7.094 0 0 0 2.08,-1.29 l -0.29,0.237 c 0.027,0 4.212,-2.343 4.028,-8.372 M 7.515,5.074 A 0.68,0.68 0 0 1 7.462,4 c 0.527,-0.658 2.817,-0.922 4.739,-0.895 4.344,0.079 5.133,0.974 5.133,1.553 -0.395,2.027 -8.9,1.422 -9.819,0.421"></path></svg>