<svg xmlns="http://www.w3.org/2000/svg" width="29.986" height="31.227" viewBox="0 0 290 302">
  <path id="Colore_riempimento_1" fill="#44739e" data-name="Colore riempimento 1" class="cls-1" d="M131,5c46.063-.519,82.135,5.371,101,32l3,2v2l2,1q1,3,2,6h1q0.5,2,1,4h1q1,6,2,12h1V76c1.766,6.383,1,16.963,1,25V209h-1v5h-1v4h-1v4h-1v3h-1v4l-2,1v3h-1v2h-1v2l-2,1v3l-3,2v2l-4,3v2l-6,5q-0.5,1-1,2h-2l-3,4h-2l-2,3h-2l-1,2-4,1-1,2h-2v1l-4,1v1h-3v1l-4,1v1l-34,8H142c-15.6,0-28.783-2.6-40-7l-9-2v-1l-6-2v-1H85v-1l-6-2-1-2H76l-1-2H73l-1-2H70l-8-9-5-4v-2l-5-4-1-4-2-1v-2H48v-2H47v-3H46l-1-4H44v-5H43v-3H42c-1.992-6.018-1-18.256-1-26V137c0-29.8-3.531-69.263,6-90h1V45l2-1,2-6,6-5,7-8h2l1-2,4-1,1-2,4-1,1-2h3V16l4-1V14l6-1V12h3V11h2V10h4V9l18-2V6C122.187,4.816,128.239,7.391,131,5Zm-7,7v1h-8v1l-11,1v1h-2v1H98v1H95v1l-6,2v1l-4,1-8,9v8h1v2l2,1,3,4h2l1,2,4,1v1h2v1l6,1v1h3v1h3v1l11,1v1h2v1h9v1h10c8.017,0,18.643.805,25-1l17-1V57h3V56h6V55h3V54h2V53l9-3,5-6,2-1V39c2.117-2.215.534-6.491,0-9l-6-5V24h-2l-1-2h-2V21l-4-1V19l-6-1C169.515,11.119,148.446,12.181,124,12Z"/>
</svg>
