<?xml version="1.0" encoding="UTF-8"?>
<svg width="24px" fill="#44739e" height="24px" viewBox="0 0 24 24" version="1.1" xmlns="http://www.w3.org/2000/svg" xmlns:xlink="http://www.w3.org/1999/xlink">
            <path d="m 12.092,15.872 c 0.964,0 1.927,-0.041 2.884,-0.1 a 8.226,8.226 0 0 0 2.921,-0.508 2.513,2.513 0 0 0 1.068,-0.86 4.242,4.242 0 0 0 0.553,-1.354 17.355,17.355 0 0 0 0.439,-3.12 26.122,26.122 0 0 0 0.057,-3.19 3.869,3.869 0 0 0 -0.871,-2.6 3.939,3.939 0 0 0 -2.351,-0.9 35.467,35.467 0 0 0 -4.7,-0.268 35.467,35.467 0 0 0 -4.7,0.268 3.939,3.939 0 0 0 -2.351,0.9 3.869,3.869 0 0 0 -0.871,2.6 26.122,26.122 0 0 0 0.057,3.19 17.355,17.355 0 0 0 0.439,3.12 4.242,4.242 0 0 0 0.553,1.35 2.513,2.513 0 0 0 1.068,0.86 8.226,8.226 0 0 0 2.921,0.508 c 0.957,0.063 1.92,0.099 2.884,0.104 z m 2.156,-0.817 c -0.1,0.017 -0.424,0.017 -0.785,0.025 -0.458,0.011 -0.914,0.013 -1.371,0.012 -0.457,-0.001 -0.913,0 -1.371,-0.012 C 10.36,15.072 10.033,15.072 9.935,15.055 9.837,15.038 9.735,15.032 9.767,14.924 9.799,14.816 10.235,13.4 10.235,13.4 c 0.288,-0.941 0.308,-1 1.048,-1.148 a 4.081,4.081 0 0 1 1.618,0 c 0.74,0.145 0.76,0.207 1.048,1.148 0,0 0.439,1.415 0.468,1.524 0.029,0.109 -0.071,0.114 -0.169,0.131 z m 1.967,-0.681 c 0.169,-1.327 0.3,-2.656 0.4,-3.988 l 0.022,-0.222 A 53.839,53.839 0 0 0 16.954,4.118 0.159,0.159 0 0 1 17.092,4.04 c 0.178,0.052 0.362,0.1 0.541,0.17 l 0.078,0.031 h 0.007 a 2.662,2.662 0 0 1 0.314,0.151 1.505,1.505 0 0 1 0.288,0.216 l 0.005,0.006 a 1.345,1.345 0 0 1 0.1,0.113 l 0.037,0.046 a 5.231,5.231 0 0 1 0.547,3.015 25.167,25.167 0 0 1 -0.213,3.732 c -0.014,0.1 -0.028,0.212 -0.042,0.323 v 0.015 c -0.011,0.086 -0.023,0.174 -0.035,0.263 -0.006,0.038 -0.011,0.076 -0.017,0.115 -0.006,0.039 -0.012,0.085 -0.019,0.128 -0.01,0.063 -0.021,0.126 -0.032,0.188 -0.007,0.042 -0.016,0.084 -0.024,0.126 -0.008,0.042 -0.014,0.07 -0.022,0.105 -0.013,0.063 -0.028,0.125 -0.044,0.187 -0.01,0.042 -0.021,0.083 -0.032,0.123 -0.011,0.04 -0.023,0.078 -0.036,0.117 -0.013,0.039 -0.03,0.092 -0.046,0.136 -0.016,0.044 -0.028,0.077 -0.044,0.114 -0.023,0.058 -0.048,0.115 -0.075,0.17 a 2.055,2.055 0 0 1 -0.338,0.508 c -0.21,0.226 -1.792,1.149 -1.8,0.508 0.002,-0.055 0.01,-0.146 0.025,-0.272 z M 6.2,14.141 A 2.064,2.064 0 0 1 5.862,13.633 C 5.835,13.578 5.811,13.522 5.787,13.466 5.771,13.426 5.756,13.386 5.741,13.345 5.726,13.304 5.711,13.259 5.697,13.214 5.683,13.169 5.672,13.135 5.661,13.095 5.65,13.055 5.64,13.018 5.63,12.98 5.614,12.915 5.598,12.85 5.584,12.78 L 5.563,12.68 C 5.555,12.638 5.546,12.595 5.538,12.553 5.527,12.49 5.517,12.427 5.507,12.364 5.5,12.322 5.494,12.28 5.488,12.239 5.482,12.198 5.476,12.158 5.471,12.118 5.46,12.041 5.45,11.964 5.44,11.888 L 5.431,11.82 C 5.418,11.72 5.405,11.62 5.392,11.52 A 25.167,25.167 0 0 1 5.179,7.788 5.24,5.24 0 0 1 5.725,4.773 L 5.76,4.73 A 1.356,1.356 0 0 1 5.86,4.617 L 5.866,4.611 A 1.494,1.494 0 0 1 6.152,4.4 2.717,2.717 0 0 1 6.469,4.247 v 0 L 6.55,4.216 C 6.728,4.15 6.912,4.098 7.09,4.046 a 0.159,0.159 0 0 1 0.138,0.078 53.806,53.806 0 0 0 0.317,6.046 l 0.022,0.222 c 0.1,1.33 0.229,2.657 0.4,3.982 0.014,0.133 0.024,0.224 0.03,0.283 C 7.987,15.289 6.406,14.367 6.2,14.141 Z M 8.682,3.856 a 23.6,23.6 0 0 1 3.41,-0.161 23.6,23.6 0 0 1 3.41,0.161 c 0.057,0.023 0.062,0.065 0.035,0.164 -0.338,1.23 -0.728,2.862 -1.076,4.1 -0.278,0.988 -0.6,2.262 -1.8,2.388 -0.181,0.019 -0.372,0.034 -0.565,0.037 -0.193,0.003 -0.385,-0.018 -0.565,-0.037 C 10.324,10.382 10.005,9.108 9.731,8.12 9.383,6.884 8.993,5.252 8.655,4.02 8.619,3.921 8.625,3.879 8.682,3.856 Z m 3.857,13.893 0.316,0.039 c 0.111,0.014 0.137,0.107 0.137,0.214 v 1.121 l -1.2,-1.579 a 0.224,0.224 0 0 0 -0.187,-0.1 h -1.6 v 0.307 l 0.3,0.035 c 0.107,0.016 0.146,0.071 0.146,0.219 v 1.147 c 0,0.136 -0.037,0.2 -0.151,0.218 L 10,19.405 v 0.3 h 1.449 v -0.3 L 11.138,19.37 A 0.168,0.168 0 0 1 11,19.185 v -1.152 l 1.206,1.588 a 0.244,0.244 0 0 0 0.187,0.089 h 1.138 v -1.717 c 0,-0.08 0.021,-0.191 0.138,-0.2 l 0.316,-0.035 v -0.307 h -1.45 z M 8.062,17.357 c -1.281,0 -1.855,0.5 -1.855,1.21 0,0.729 0.574,1.223 1.855,1.223 1.281,0 1.846,-0.494 1.846,-1.223 0,-0.712 -0.574,-1.21 -1.846,-1.21 z m 0,2 c -0.516,0 -0.809,-0.191 -0.809,-0.787 0,-0.596 0.293,-0.778 0.809,-0.778 0.516,0 0.81,0.191 0.81,0.778 0,0.587 -0.299,0.788 -0.815,0.788 z M 4.3,17.749 4.616,17.788 c 0.107,0.014 0.138,0.1 0.138,0.21 v 0.351 h -1.4 v -0.356 c 0,-0.133 0.053,-0.2 0.147,-0.2 L 3.807,17.758 V 17.451 H 2 v 0.307 l 0.3,0.035 c 0.12,0.014 0.151,0.1 0.147,0.219 v 1.147 c 0,0.129 -0.036,0.2 -0.151,0.218 l -0.3,0.035 v 0.3 h 1.818 v -0.3 L 3.5,19.372 C 3.429,19.363 3.358,19.318 3.358,19.172 V 18.8 h 1.4 v 0.348 c 0,0.1 -0.018,0.2 -0.138,0.213 L 4.3,19.4 v 0.311 H 6.118 V 19.4 L 5.798,19.364 C 5.736,19.355 5.665,19.306 5.665,19.177 V 18 c 0,-0.121 0.044,-0.2 0.137,-0.21 L 6.118,17.755 V 17.448 H 4.3 Z m 12.119,-0.303 h -2.243 v 0.307 l 0.281,0.029 a 0.17,0.17 0 0 1 0.147,0.193 v 1.219 a 0.159,0.159 0 0 1 -0.129,0.178 l -0.3,0.039 v 0.3 h 2.244 c 1.032,0 1.476,-0.5 1.476,-1.165 0.005,-0.597 -0.444,-1.1 -1.476,-1.1 z m -0.347,1.828 h -0.578 v -1.4 h 0.578 c 0.552,0 0.783,0.13 0.783,0.7 0,0.57 -0.231,0.7 -0.783,0.7 z m 5.608,0.089 c -0.1,-0.013 -0.164,-0.111 -0.245,-0.236 l -1.018,-1.556 a 0.246,0.246 0 0 0 -0.2,-0.125 h -1.744 v 0.307 l 0.4,0.047 a 0.118,0.118 0 0 1 0.079,0.193 l -0.765,1.245 a 0.228,0.228 0 0 1 -0.165,0.133 l -0.306,0.035 v 0.3 h 1.449 V 19.4 l -0.249,-0.031 c -0.1,-0.014 -0.169,-0.076 -0.1,-0.183 l 0.107,-0.173 h 1.392 l 0.093,0.142 c 0.1,0.147 0,0.2 -0.12,0.214 L 20.039,19.4 v 0.307 H 22 V 19.4 Z m -2.508,-0.747 0.436,-0.7 0.444,0.7 z"/>

</svg>