<?xml version="1.0" encoding="UTF-8"?>
<svg width="24px" fill="#44739e" height="24px" viewBox="0 0 24 24" version="1.1" xmlns="http://www.w3.org/2000/svg" xmlns:xlink="http://www.w3.org/1999/xlink">
            <path d="m 18.7,10.96 a 1.055,1.055 0 1 0 0,2.1 1.165,1.165 0 0 0 1.007,-0.55 L 19.454,12.417 A 0.9,0.9 0 0 1 18.7,12.807 0.3,0.3 0 0 1 18.415,12.5 v -0.34 h 1.422 A 1.262,1.262 0 0 0 19.846,12.009 1.1,1.1 0 0 0 18.7,10.96 Z m 0.285,0.933 h -0.57 v -0.374 a 0.285,0.285 0 1 1 0.57,0 z m -7.94,0.916 A 0.3,0.3 0 0 1 10.76,12.502 v -0.34 h 1.421 a 1.262,1.262 0 0 0 0.009,-0.151 1.15,1.15 0 1 0 -1.145,1.051 1.166,1.166 0 0 0 1.007,-0.55 l -0.253,-0.093 a 0.9,0.9 0 0 1 -0.754,0.39 z m -0.285,-1.29 a 0.285,0.285 0 0 1 0.57,0 v 0.374 H 10.76 Z M 6.05,10.96 a 1.055,1.055 0 1 0 0,2.1 1.055,1.055 0 1 0 0,-2.1 z m 0.285,1.54 a 0.285,0.285 0 0 1 -0.57,0 v -0.983 a 0.285,0.285 0 0 1 0.57,0 z m 10.497,-0.355 -0.385,-1.09 H 15.883 L 15.5,12.19 15.1,11.055 h -1.111 l -0.4,0.956 -0.558,-0.956 h -0.945 l 1.112,1.9 -0.145,0.357 c -0.05,0.112 -0.171,0.118 -0.194,0.012 a 0.35,0.35 0 0 0 -0.7,0 0.52,0.52 0 0 0 0.6,0.447 0.712,0.712 0 0 0 0.62,-0.486 l 0.919,-2.222 0.663,1.87 h 0.6 l 0.369,-1.079 0.379,1.079 h 0.57 l 0.643,-1.878 H 17.2 Z M 8.341,11.234 8.279,11.055 H 7.452 v 1.878 H 8.279 V 11.8 c 0,-0.246 0.157,-0.38 0.291,-0.38 0.112,0 0.257,0.023 0.257,0.268 v 1.241 H 9.654 V 11.715 A 0.751,0.751 0 0 0 8.341,11.234 Z M 3.62,11.279 H 3.006 v -1.05 H 2 v 2.704 H 3.006 V 11.592 H 3.62 v 1.341 H 4.626 V 10.229 H 3.62 Z m 17.62,-1.05 H 22 v 2.704 h -0.76 z m -1.117001,0 h 0.76 v 2.704 h -0.76 z"/>

</svg>