<?xml version="1.0" encoding="UTF-8"?>
<svg width="24px" fill="#44739e" height="24px" viewBox="0 0 24 24" version="1.1" xmlns="http://www.w3.org/2000/svg" xmlns:xlink="http://www.w3.org/1999/xlink">
            <path d="m 14.9,16.959 a 2.3,2.3 0 0 0 -0.272,-0.832 c -0.17,-0.292 -0.33,-0.615 -0.587,-0.506 v 0 c -0.359,0.152 -0.017,0.506 0.093,0.688 a 1.755,1.755 0 0 1 0.266,0.85 c 0.107,1.542 -1.253,1.629 -1.03,3.449 a 2.379,2.379 0 0 0 0.482,1.186 c 0.083,0.123 0.182,0.262 0.388,0.182 0.36,-0.139 -0.016,-0.545 -0.109,-0.7 a 1.737,1.737 0 0 1 -0.259,-0.85 C 13.781,18.855 15.128,18.841 14.9,16.959 Z M 10.633,16.933 C 10.597,16.671 10.192,15.375 9.76,15.644 v 0 c -0.058,0.036 -0.116,0.02 -0.136,0.165 -0.027,0.2 0.138,0.3 0.283,0.561 a 1.841,1.841 0 0 1 0.234,0.895 c 0.034,1.472 -1.283,1.582 -1.027,3.4 0.053,0.373 0.467,1.572 0.909,1.291 0.394,-0.251 -0.385,-0.589 -0.416,-1.6 -0.046,-1.495 1.282,-1.585 1.026,-3.423 z m 2.134,0.008 a 2.488,2.488 0 0 0 -0.5,-1.163 c -0.089,-0.128 -0.185,-0.234 -0.372,-0.148 -0.353,0.164 0,0.506 0.124,0.708 a 1.778,1.778 0 0 1 0.249,0.856 c 0.071,1.544 -1.255,1.587 -1.029,3.435 a 2.3,2.3 0 0 0 0.273,0.832 c 0.1,0.186 0.306,0.636 0.607,0.515 0.473,-0.19 -0.354,-0.62 -0.383,-1.623 -0.036,-1.502 1.288,-1.587 1.031,-3.412 z m 1.564,-3.522 v 0 a 0.271,0.271 0 1 0 0.271,0.271 0.271,0.271 0 0 0 -0.271,-0.271 z m 1.405,0 v 0 a 0.271,0.271 0 1 0 0.271,0.271 0.271,0.271 0 0 0 -0.271,-0.271 z m 1.402,0 v 0 a 0.271,0.271 0 1 0 0.271,0.271 0.27,0.27 0 0 0 -0.271,-0.271 z M 19.76,12.988 V 12.8 H 4.245 v 1.778 h 15.5 l 0.017,-0.134 z m -5.429,1.126 a 0.424,0.424 0 1 1 0,-0.848 v 0 a 0.424,0.424 0 1 1 0,0.848 z m 1.405,0 a 0.424,0.424 0 1 1 0,-0.848 v 0 a 0.424,0.424 0 1 1 0,0.848 z m 1.4,0 a 0.424,0.424 0 0 1 0,-0.848 v 0 a 0.424,0.424 0 1 1 0,0.848 z m 1.412,0 a 0.424,0.424 0 1 1 0,-0.848 v 0 a 0.424,0.424 0 1 1 0,0.848 z m 0.002,-0.695 v 0 a 0.271,0.271 0 1 0 0.27,0.271 0.271,0.271 0 0 0 -0.27,-0.271 z M 14.164,2 9.853,2.001 9.844,7.386 v 0 l 4.319,0.002 z m 4.502,9.821 -4.412,-3.987 C 14.114,7.717 13.871,7.766 13.554,7.766 H 10.5 c -0.759,0 -0.554,-0.136 -1.126,0.4 l -4.413,3.988 a 2.393,2.393 0 0 0 -0.41,0.407 h 14.906 a 8.322,8.322 0 0 0 -0.791,-0.74 z"/>

</svg>