<?xml version="1.0" encoding="UTF-8"?>
<svg width="24px" fill="#44739e" height="24px" viewBox="0 0 24 24" version="1.1" xmlns="http://www.w3.org/2000/svg" xmlns:xlink="http://www.w3.org/1999/xlink">
            <path d="m 14.949,8.387 a 16.96,16.96 0 0 0 -2.61,0.261 2.228,2.228 0 0 0 -1.93,1.964 5.311,5.311 0 0 0 -0.033,0.777 v 4.973 h 1.841 v -5.08 a 1.172,1.172 0 0 1 0.327,-1 2.991,2.991 0 0 1 1.513,-0.368 c 0.3,-0.024 0.892,-0.057 0.892,-0.057 V 8.387 M 3.759,4.828 V 8.64 A 12.3,12.3 0 0 1 6.008,8.4 c 1.743,0.024 2.618,0.965 2.683,2.192 0.017,0.311 0.008,0.483 0.008,0.818 v 4.957 H 6.859 V 11.3 c 0,-0.622 0.041,-1.391 -1.35,-1.383 a 6.829,6.829 0 0 0 -1.693,0.2 v 6.249 h -1.8 V 4.943 L 3.759,4.828 m 8.36,15.354 A 27.047,27.047 0 0 1 2,18.481 V 17.45 A 25.8,25.8 0 0 0 11.939,19.2 31.017,31.017 0 0 0 22,17.491 v 1 a 31.11,31.11 0 0 1 -9.881,1.693 M 18.2,4.174 A 2.086,2.086 0 1 0 20.282,6.26 2.09,2.09 0 0 0 18.2,4.174 M 19.182,7.25 V 4.8 L 16.728,5.691 V 6.297 L 17.534,6 V 7.839 L 19.178,7.25 Z M 18.2,3.814 A 2.442,2.442 0 1 1 15.759,6.26 2.447,2.447 0 0 1 18.2,3.814"/>

</svg>