<?xml version="1.0" encoding="UTF-8"?>
<svg width="24px" fill="#44739e" height="24px" viewBox="0 0 24 24" version="1.1" xmlns="http://www.w3.org/2000/svg" xmlns:xlink="http://www.w3.org/1999/xlink">
            <path d="M 13.17,11.364 V 11.5 c 0.091,-0.051 0.091,-0.085 0,-0.136 z m -0.675,0.18 h 0.045 0.045 l -0.09,-0.18 v 0.09 z m 0.9,-0.09 -0.045,-0.135 v 0.135 z m -0.045,0.045 -0.09,-0.18 0.045,0.18 z m -0.405,0 0.18,-0.045 -0.135,-0.135 -0.045,0.135 z m -0.27,-0.18 0.135,0.225 h 0.045 v -0.225 l -0.075,0.075 -0.015,-0.075 z m 0.81,0.09 0.09,-0.135 h -0.09 c -0.046,0.131 -0.055,0.194 0.09,0.225 0.138,-0.029 0.133,-0.09 0.135,-0.225 l -0.19,0.153 z m 0.045,-0.27 v -0.09 h -0.27 v 0.045 z m -0.585,-0.045 -0.27,-0.045 c 0.085,0.112 0.143,0.094 0.27,0.045 z M 13.26,11 c 0.183,0 0.424,-0.033 0.36,-0.27 l -0.36,0.225 z M 12.945,10.959 12.54,10.734 c 0.039,0.243 0.18,0.267 0.405,0.27 z m 0.54,-0.54 -0.27,0.495 c 0.219,-0.085 0.444,-0.26 0.27,-0.495 z m -0.495,0.495 -0.315,-0.495 c -0.069,0.264 0.077,0.402 0.315,0.495 z m 0.09,-0.045 -0.045,-0.63 c -0.306,0.1 -0.115,0.432 0,0.63 z m 0.09,-0.63 -0.045,0.63 c 0.167,-0.169 0.357,-0.527 0.045,-0.63 z M 19.3,3.1 A 3.566,3.566 0 0 0 17.86,2.875 C 17.022,2.793 16.178,2.775 15.34,2.695 13.24,2.495 11.134,2.448 9.04,2.244 A 11.848,11.848 0 0 0 5.754,2.079 2.415,2.415 0 0 0 4.18,3.232 C 4.09,3.412 3.98,4.177 3.813,4.177 3.783,4.377 3.625,4.516 3.594,4.717 A 9.463,9.463 0 0 0 3.6,5.977 c -0.012,1.088 0.045,2.187 0,3.273 -0.014,0.379 -0.171,1.563 0.345,1.588 l -0.046,0.539 -0.268,0.5 v 6.391 l 0.09,0.135 c 0.284,0 0.33,0.733 0.412,0.945 a 2.264,2.264 0 0 0 1.478,1.336 6.4,6.4 0 0 0 2.306,-0.037 v 0.48 h 0.788 v -0.588 l 0.192,-0.02 c 0.453,-0.044 0.9,-0.081 1.355,-0.115 v 0.431 h 0.993 v -0.5 l 0.993,-0.065 v 0.362 h 0.885 V 20.21 c 0.571,-0.04 1.143,-0.085 1.715,-0.14 0.1,-0.01 0.193,-0.018 0.29,-0.025 V 22 h 0.911 v -2.013 c 0.561,-0.027 1.122,-0.047 1.68,-0.1 a 3.841,3.841 0 0 0 1.485,-0.233 c 1.343,-0.709 1.126,-2.32 1.126,-3.593 0,-3.159 0.09,-6.3 0.09,-9.453 C 20.422,5.341 20.608,3.807 19.3,3.1 Z m -4.7,9.376 -3.388,0.082 H 11.176 A 1.478,1.478 0 0 1 9.7,11.077 v -0.146 a 1.477,1.477 0 0 1 1.5,-1.477 l 3.388,0.065 A 1.485,1.485 0 0 1 16.041,11 1.468,1.468 0 0 1 14.6,12.473 Z"/>

</svg>