<?xml version="1.0" encoding="UTF-8"?>
<svg width="24px" fill="#44739e" height="24px" viewBox="0 0 24 24" version="1.1" xmlns="http://www.w3.org/2000/svg" xmlns:xlink="http://www.w3.org/1999/xlink">
            <path d="m 13.262,13.576 a 0.071,0.071 0 0 0 0.074,0 27.541,27.541 0 0 0 5.453,-3.406 2.685,2.685 0 0 0 0.911,-1.81 4.507,4.507 0 0 0 -1.46,-2.98 41.238,41.238 0 0 0 -4.994,8.106 c 0,0 -0.025,0.058 0.016,0.09 z m 7.574,-3.603 c 0,0 -4.7,2.522 -7.132,4.168 a 0.094,0.094 0 0 0 -0.033,0.082 c 0,0 0.025,0.041 0.058,0.041 0.868,0 4.168,0 4.249,-0.008 a 3.222,3.222 0 0 0 0.95,-0.221 3.281,3.281 0 0 0 1.785,-1.7 3.367,3.367 0 0 0 0.123,-2.362 z m -1.474,4.889 -5.535,-0.2 v 0.009 a 0.075,0.075 0 0 0 -0.066,0.04 0.083,0.083 0 0 0 0.025,0.074 14.167,14.167 0 0 0 2.907,1.72 c 0,0 1.433,0.486 2.669,-1.643 z m -6.853,-1.744 0.008,0.016 c 0.049,0.025 0.082,-0.033 0.082,-0.033 0.532,-0.769 2.915,-4.315 3.406,-6.477 a 3.637,3.637 0 0 0 0,-1.76 2.572,2.572 0 0 0 -1.826,-1.712 c 0,0 -0.418,-0.106 -0.868,-0.172 0,0 -1.638,2.113 -0.843,10.08 a 0.055,0.055 0 0 0 0.041,0.058 z m -1.109,0 c 0.033,0.041 0.065,0.024 0.065,0.024 a 0.06,0.06 0 0 0 0.05,-0.065 C 12.3,5.109 10.674,3 10.674,3 L 10.683,2.992 C 10.445,3.016 9.79,3.164 9.79,3.164 a 2.556,2.556 0 0 0 -1.81,1.708 3.405,3.405 0 0 0 0,1.76 c 0.492,2.168 2.891,5.741 3.42,6.486 z m -6.351,0.909 a 3.213,3.213 0 0 0 1.056,0.229 c 0.082,0.016 3.292,0 4.152,0 0.032,0 0.057,-0.041 0.057,-0.041 v 0.008 C 10.339,14.182 10.298,14.141 10.298,14.141 7.866,12.5 3.157,9.982 3.157,9.982 a 3.275,3.275 0 0 0 1.892,4.045 z m 5.11,0.647 -5.528,0.188 c 0.6,1.073 1.613,1.9 2.662,1.646 a 13.965,13.965 0 0 0 2.915,-1.72 c 0.041,-0.041 0.024,-0.074 0.024,-0.074 v 0.009 A 0.079,0.079 0 0 0 10.159,14.674 Z M 5.2,10.17 a 27.6,27.6 0 0 0 5.47,3.414 c 0.009,0 0.05,0.017 0.074,-0.016 v 0.008 A 0.054,0.054 0 0 0 10.76,13.511 40.874,40.874 0 0 0 5.753,5.38 c 0,0 -1.572,1.49 -1.453,2.988 a 2.642,2.642 0 0 0 0.9,1.802 z m 15.112,7.917999 H 21 v 2.899 H 20.312 Z M 17.16,19.6 a 1.321,1.321 0 0 0 0.483,1.138 1.451,1.451 0 0 0 0.974,0.254 h 1.114 V 20.484 H 18.65 c -0.516,0 -0.745,-0.188 -0.745,-0.712 h 1.826 v -0.508 h -1.815 v 0.017 l -0.008,-0.017 h 0.011 a 0.637,0.637 0 0 1 0.734,-0.655 h 1.081 V 18.1 h -1.1 c -1.008,0 -1.474,0.479 -1.474,1.5 z m 0.753,-0.316 v -0.017 h -0.011 z m -2.244,1.031 -0.704,-2.227 h -0.778 l -0.614,2.227 -0.721,-2.227 H 12.14 l 1.048,2.899 h 0.803 l 0.581,-2.162 0.672,2.162 h 0.802 l 0.974,-2.899 h -0.679 z m -4.407262,-2.203631 h -0.7 l -1.3270003,2.9 h 0.7 l 0.2790003,-0.688 h 1.359 l 0.287,0.688 h 0.736 z m -0.835,1.7 0.458,-1.114 0.475,1.114 z M 8.4,19.824 C 8.4,20.34 8.236,20.553 7.7,20.553 7.164,20.553 7,20.332 7,19.824 V 18.088 H 6.334 v 1.752 a 1.112,1.112 0 0 0 0.181,0.778 1.461,1.461 0 0 0 1.179,0.4 1.464,1.464 0 0 0 1.179,-0.4 1.157,1.157 0 0 0 0.188,-0.778 V 18.088 H 8.4 Z M 5.139,19.267 H 3.665 V 18.088 H 3.002 v 2.899 h 0.663 v -1.212 h 1.474 v 1.212 H 5.794 V 18.088 H 5.139 Z"/>

</svg>