<?xml version="1.0" encoding="UTF-8"?>
<svg width="24px" fill="#44739e" height="24px" viewBox="0 0 24 24" version="1.1" xmlns="http://www.w3.org/2000/svg" xmlns:xlink="http://www.w3.org/1999/xlink">
            <path d="M 6.153,15.232 H 5.5 v 0.447 h 0.653 v 0.264 H 5.5 V 16.39 H 6.153 V 16.7 H 5.5 v 0.447 h 0.653 v 0.109 a 1.382,1.382 0 0 0 1.382,1.382 h 9.584 A 1.381,1.381 0 0 0 18.5,17.255 V 12.721 H 6.153 Z M 17.124,6.166 h -0.1 v -0.8 h -0.55 v 0.8 H 7.529 A 1.376,1.376 0 0 0 6.153,7.541 v 4.54 H 18.5 V 7.541 A 1.376,1.376 0 0 0 17.124,6.166 Z m -2.639,2.96 a 0.857,0.857 0 0 1 -0.857,0.857 h -2.6 A 0.857,0.857 0 0 1 10.171,9.126 v 0 a 0.856,0.856 0 0 1 0.857,-0.857 h 2.6 a 0.857,0.857 0 0 1 0.857,0.857 z"/>

</svg>