<svg xmlns="http://www.w3.org/2000/svg" viewBox="0 0 24 24"><path fill="#44739e" d="M13.4 13.742a.08.08 0 0 0 .082 0 30.5 30.5 0 0 0 6.043-3.774 3 3 0 0 0 1.009-2.006 5 5 0 0 0-1.618-3.302 45.7 45.7 0 0 0-5.534 8.983s-.028.064.018.099m8.393-3.992s-5.208 2.794-7.903 4.619a.11.11 0 0 0-.037.09s.028.046.064.046c.962 0 4.619 0 4.709-.009a3.6 3.6 0 0 0 1.053-.245 3.64 3.64 0 0 0 1.978-1.884 3.74 3.74 0 0 0 .136-2.617m-1.633 5.418-6.134-.222v.01a.09.09 0 0 0-.073.044.09.09 0 0 0 .028.082 15.7 15.7 0 0 0 3.221 1.906s1.588.539 2.958-1.82m-7.595-1.933.009.018c.055.027.091-.037.091-.037.59-.852 3.231-4.782 3.775-7.178a4 4 0 0 0 0-1.95 2.85 2.85 0 0 0-2.024-1.897s-.463-.118-.962-.191c0 0-1.815 2.342-.934 11.171a.06.06 0 0 0 .045.064m-1.229 0c.037.045.072.026.072.026a.066.066 0 0 0 .056-.072c.87-8.83-.932-11.167-.932-11.167l.01-.009c-.264.027-.99.191-.99.191a2.84 2.84 0 0 0-2.006 1.893 3.77 3.77 0 0 0 0 1.95c.546 2.403 3.204 6.362 3.79 7.188m-7.038 1.007a3.6 3.6 0 0 0 1.171.254c.09.018 3.648 0 4.601 0 .035 0 .063-.045.063-.045v.008c.028-.045-.018-.09-.018-.09C7.42 12.55 2.202 9.76 2.202 9.76a3.63 3.63 0 0 0 2.096 4.482m5.663.717-6.126.209c.665 1.189 1.788 2.105 2.95 1.824a15.5 15.5 0 0 0 3.23-1.906c.046-.046.027-.082.027-.082v.01a.09.09 0 0 0-.081-.055M4.466 9.968a30.6 30.6 0 0 0 6.061 3.783c.01 0 .056.019.082-.017v.008a.06.06 0 0 0 .018-.072 45.4 45.4 0 0 0-5.549-9.01s-1.742 1.651-1.61 3.311a2.93 2.93 0 0 0 .998 1.997m16.747 8.775h.762v3.212h-.762Zm-3.493 1.675a1.46 1.46 0 0 0 .535 1.261 1.6 1.6 0 0 0 1.079.282h1.235v-.563h-1.198c-.572 0-.826-.209-.826-.789h2.024v-.563h-2.012v.019l-.008-.019h.012a.706.706 0 0 1 .813-.726h1.198v-.564h-1.219c-1.117 0-1.633.531-1.633 1.662m.834-.35v-.019h-.012Zm-2.487 1.143-.78-2.468h-.862l-.68 2.468-.799-2.468h-.789l1.161 3.212h.89l.644-2.396.744 2.396h.889l1.08-3.212h-.753Zm-4.883-2.443h-.776l-1.471 3.214h.776l.309-.763h1.506l.318.763h.816Zm-.926 1.884.508-1.235.526 1.235Zm-2.246.014c0 .572-.182.808-.776.808s-.776-.245-.776-.808v-1.923h-.738v1.941a1.22 1.22 0 0 0 .201.862 1.62 1.62 0 0 0 1.306.444 1.62 1.62 0 0 0 1.307-.444 1.3 1.3 0 0 0 .208-.862v-1.941h-.732Zm-3.614-.617H2.765v-1.306H2.03v3.212h.735v-1.343h1.633v1.343h.726v-3.212h-.726Z"/></svg>