<?xml version="1.0" encoding="UTF-8"?>
<svg width="33px" height="32px" viewBox="0 0 24 24" fill="#44739e" version="1.1" xmlns="http://www.w3.org/2000/svg" xmlns:xlink="http://www.w3.org/1999/xlink">
            <path d="m 17.447,7.933 c 0.1,-0.08 0.2,-0.057 0.29,-0.146 a 0.378,0.378 0 0 0 0.045,-0.131 85.53,85.53 0 0 0 -11.5,0.029 0.122,0.122 0 0 0 0.049,0.124 c 0.036,0.03 0.26,0 0.322,0.078 a 0.493,0.493 0 0 1 0.073,0.332 c 0.133,3.1 1.62,3.9 2.416,5.568 a 36.834,36.834 0 0 1 0.406,3.791 2.547,2.547 0 0 0 1.021,0.676 l 0.006,0.552 a 0.293,0.293 0 0 0 -0.193,0.148 l 0.009,0.668 a 0.822,0.822 0 0 0 1.153,0.012 v -0.721 a 0.182,0.182 0 0 0 -0.159,-0.116 l -0.007,-0.483 h 1.512 v 0.5 a 0.4,0.4 0 0 0 -0.2,0.156 V 19 l 0.005,0.228 0.009,0.388 a 0.8,0.8 0 0 0 1.131,0 v 0 l 0.018,-0.019 c 0.01,-0.013 -0.012,-0.665 -0.012,-0.665 a 0.187,0.187 0 0 0 -0.16,-0.114 v -0.58 c 0.457,-0.043 0.925,-0.676 0.985,-0.749 a 14.9,14.9 0 0 1 0.29,-3.575 c 0.275,-1.028 2.19,-1.849 2.38,-5.516 0.001,-0.062 -0.021,-0.354 0.111,-0.465 z m -8.253,4.04 A 0.13816114,0.13816114 0 1 1 8.919,12 v 0 a 0.088,0.088 0 0 1 0,-0.023 v -0.734 h 0.275 z m 0.61,-1.628 a 0.627,0.627 0 0 0 -0.613,0.64 v 0.046 H 8.915 V 9.537 a 0.13802264,0.13802264 0 0 1 0.275,-0.024 0.088,0.088 0 0 1 0,0.023 v 1.04 L 9.226,10.503 A 0.691,0.691 0 0 1 9.88,10.132 c 0.468,0 0.725,0.3 0.725,0.839 v 0.064 h -0.272 v -0.072 c 0,-0.4 -0.187,-0.618 -0.533,-0.618 z m 0.8,1.628 a 0.13847834,0.13847834 0 1 1 -0.276,0.023 v -0.757 h 0.276 z M 11.17,10.3 a 0.138,0.138 0 0 1 0.275,0 v 0.74 H 11.17 Z m 1.686,1.686 a 0.13821089,0.13821089 0 1 1 -0.275,0.028 V 12 a 0.088,0.088 0 0 1 0,-0.023 v -0.218 a 0.68,0.68 0 0 1 -0.648,0.386 c -0.5,0 -0.758,-0.275 -0.758,-0.816 v -0.09 h 0.274 v 0.07 c 0,0.416 0.185,0.618 0.565,0.618 a 0.6,0.6 0 0 0 0.562,-0.625 v 0 -0.067 h 0.275 z m 0,-1.686 v 0.74 h -0.28 V 10.3 a 0.138,0.138 0 0 1 0.275,-0.023 0.088,0.088 0 0 1 0.005,0.023 z m 2.417,0.8 v 0.016 a 0.12,0.12 0 0 1 -0.116,0.124 h -1.463 v 0.006 a 0.7,0.7 0 0 0 0.706,0.7 h 0.076 a 1.058,1.058 0 0 0 0.423,-0.073 c 0.029,-0.009 0.059,-0.021 0.1,-0.031 a 0.137,0.137 0 0 1 0.112,0 0.089,0.089 0 0 1 0.039,0.064 0.112,0.112 0 0 1 -0.077,0.125 1.4,1.4 0 0 1 -0.617,0.121 0.951,0.951 0 0 1 -1.034,-0.862 v -0.045 h -0.185 a 0.1,0.1 0 0 1 -0.112,-0.087 v 0 a 0.1,0.1 0 0 1 0.087,-0.111 h 0.025 v 0.009 h 0.176 a 0.943,0.943 0 0 1 0.975,-0.9 0.854,0.854 0 0 1 0.888,0.817 1.071,1.071 0 0 1 -0.003,0.127 z m -0.762,-0.742 v 0 a 0.565,0.565 0 0 0 -0.1,-0.006 0.686,0.686 0 0 0 -0.7,0.673 v 0.025 h 1.324 V 11.042 A 0.609,0.609 0 0 0 14.511,10.358 Z M 6.277,7.349 a 92.491,92.491 0 0 1 11.511,0 1.14,1.14 0 0 0 0.031,-0.184 1.189,1.189 0 0 0 -0.03,-0.424 101.868,101.868 0 0 0 -11.512,0.02 C 6.239,6.761 6.225,7.01 6.236,7.184 6.242,7.278 6.255,7.35 6.277,7.349 Z M 11.94,6.331 c 1.622,0 3.263,0.03 4.881,0.1 l 0.44,0.017 -0.347,-0.27 C 15.688,5.221 13.656,5.232 12.171,5.24 H 11.994 C 9.606,5.232 7.979,5.547 7.154,6.176 L 6.8,6.444 7.248,6.427 C 8.8,6.364 10.382,6.332 11.94,6.331 Z m 0.054,-0.813 h 0.179 a 9.326,9.326 0 0 1 4.143,0.605 C 14.892,6.074 13.453,6.049 12.032,6.049 H 11.94 c -1.375,0 -2.767,0.025 -4.146,0.072 a 10.752,10.752 0 0 1 4.2,-0.603 z m 4.999,5.659 v 0.071 0.008 0.577 h -0.214 v -0.169 a 7.009,7.009 0 0 1 -0.438,0.768 v 0.133 a 0.107,0.107 0 0 1 -0.1,0.116 v 0 a 0.092,0.092 0 0 1 -0.06,-0.015 c -0.159,0.225 -0.314,0.423 -0.454,0.6 a 4.58,4.58 0 0 0 -0.526,0.758 29.018,29.018 0 0 1 0.31,2.911 1.984,1.984 0 0 0 0.8,0.528 v 0.43 a 0.234,0.234 0 0 0 -0.151,0.115 l 0.008,0.522 a 0.64,0.64 0 0 0 0.9,0.009 v -0.562 a 0.144,0.144 0 0 0 -0.125,-0.091 v -0.377 h 1.18 v 0.385 a 0.309,0.309 0 0 0 -0.157,0.123 l 0.011,0.5 a 0.625,0.625 0 0 0 0.885,0 l 0.014,-0.015 c 0.008,-0.01 -0.01,-0.518 -0.01,-0.518 a 0.145,0.145 0 0 0 -0.124,-0.089 v -0.453 c 0.356,-0.033 0.722,-0.527 0.768,-0.584 a 11.648,11.648 0 0 1 0.226,-2.788 c 0.214,-0.8 1.708,-1.443 1.857,-4.3 0,-0.036 -0.014,-0.264 0.089,-0.351 0.076,-0.062 0.159,-0.044 0.227,-0.114 a 0.322,0.322 0 0 0 0.035,-0.1 Q 19.722,9.056 17.5,9.056 a 8.19,8.19 0 0 1 -0.507,2.121 z m 1.381,0.65 H 18.4 v 0.007 h 0.137 a 0.737,0.737 0 0 1 0.76,-0.706 0.666,0.666 0 0 1 0.693,0.636 v 0 a 0.64,0.64 0 0 1 0,0.116 v 0.012 a 0.092,0.092 0 0 1 -0.086,0.1 h -1.155 a 0.549,0.549 0 0 0 0.558,0.542 h 0.052 a 0.826,0.826 0 0 0 0.33,-0.056 l 0.075,-0.024 a 0.1,0.1 0 0 1 0.088,0 0.071,0.071 0 0 1 0.031,0.05 0.09,0.09 0 0 1 -0.061,0.1 1.077,1.077 0 0 1 -0.481,0.094 0.743,0.743 0 0 1 -0.807,-0.673 v 0 -0.033 H 18.4 a 0.081,0.081 0 0 1 -0.088,-0.072 0.08,0.08 0 0 1 0.062,-0.093 z m -0.491,-0.571 a 0.108,0.108 0 1 1 0.214,-0.028 v 0.605 h -0.219 z m 0,0.8 V 12.05 11.998 H 18.1 v 0.579 a 0.108,0.108 0 0 1 -0.215,0.018 0.054,0.054 0 0 1 0,-0.018 V 12.4 a 0.53,0.53 0 0 1 -0.5,0.3 c -0.393,0 -0.592,-0.215 -0.592,-0.637 v -0.07 H 17 v 0.062 c 0,0.324 0.144,0.482 0.441,0.482 a 0.464,0.464 0 0 0 0.44,-0.486 z m 1.89,-0.225 a 0.475,0.475 0 0 0 -0.407,-0.534 0.511,0.511 0 0 0 -0.078,-0.005 0.536,0.536 0 0 0 -0.547,0.525 v 0 0.02 h 1.033 z M 21.97,8.413 q -2.206,-0.121 -4.416,-0.119 -0.013,0.234 -0.036,0.453 2.227,0 4.451,0.14 A 0.94,0.94 0 0 0 21.97,8.413 Z M 17.56,8.094 c 1.216,0 2.443,0.024 3.655,0.074 l 0.343,0.014 -0.27,-0.211 A 5.516,5.516 0 0 0 18.023,7.239 v 0.2 a 7.281,7.281 0 0 1 2.8,0.494 c -1.07,-0.039 -1.93,-0.034 -3,-0.036 C 17.79,7.965 17.555,8.018 17.56,8.094 Z M 7.841,12.542 C 7.769,12.442 7.697,12.331 7.625,12.222 7.58,12.154 7.536,12.084 7.492,12.014 H 7.448 A 0.079,0.079 0 0 1 7.362,11.942 0.076,0.076 0 0 1 7.401,11.866 C 7.314,11.722 7.229,11.573 7.149,11.416 v 0.446 H 6.93 V 11.285 A 0.108,0.108 0 0 1 7.024,11.169 6.906,6.906 0 0 1 6.443,9.085 Q 4.229,9.094 2.019,9.247 a 0.1,0.1 0 0 0 0.039,0.1 c 0.028,0.024 0.2,0 0.251,0.061 a 0.393,0.393 0 0 1 0.057,0.259 c 0.1,2.42 1.263,3.042 1.884,4.343 a 29.067,29.067 0 0 1 0.317,2.957 1.977,1.977 0 0 0 0.8,0.528 v 0.43 A 0.236,0.236 0 0 0 5.216,18.04 l 0.008,0.522 a 0.64,0.64 0 0 0 0.9,0.009 V 18.009 A 0.144,0.144 0 0 0 6,17.918 L 5.994,17.541 h 1.18 v 0.385 a 0.309,0.309 0 0 0 -0.157,0.123 l 0.011,0.5 a 0.625,0.625 0 0 0 0.885,0 L 7.927,18.534 C 7.935,18.524 7.918,18.016 7.918,18.016 A 0.149,0.149 0 0 0 7.793,17.927 V 17.474 C 8.149,17.441 8.515,16.947 8.562,16.89 A 11.5,11.5 0 0 1 8.788,14.1 0.241,0.241 0 0 1 8.801,14.059 10,10 0 0 0 8,12.769 C 7.943,12.685 7.892,12.616 7.841,12.542 Z m -3.549,0.052 a 0.10737784,0.10737784 0 1 1 -0.214,0.018 0.028,0.028 0 0 1 0,-0.018 v -0.573 h 0.214 z m 1.1,0 a 0.108,0.108 0 0 1 -0.215,0.018 v -0.591 h 0.215 z m 0,-0.732 H 5.177 v -0.057 c 0,-0.31 -0.146,-0.481 -0.414,-0.481 a 0.488,0.488 0 0 0 -0.477,0.5 V 11.86 H 4.075 v -1.166 a 0.10737784,0.10737784 0 0 1 0.214,-0.018 0.054,0.054 0 0 1 0,0.018 v 0.81 l 0.028,-0.057 a 0.54,0.54 0 0 1 0.511,-0.29 0.506,0.506 0 0 1 0.477,0.254 0.83,0.83 0 0 1 0.088,0.4 z m 0.437,-0.577 a 0.107,0.107 0 0 1 0.214,0 v 0.577 H 5.833 Z M 7.145,12.6 A 0.108,0.108 0 0 1 6.93,12.618 v -0.189 a 0.532,0.532 0 0 1 -0.5,0.3 c -0.393,0 -0.592,-0.215 -0.592,-0.637 v -0.07 h 0.214 v 0.063 c 0,0.324 0.145,0.482 0.44,0.482 A 0.464,0.464 0 0 0 6.931,12.08 V 12.028 H 7.146 Z M 6.415,8.748 C 6.399,8.602 6.385,8.448 6.375,8.295 Q 4.2,8.3 2.035,8.428 c -0.045,0 -0.048,0.462 0,0.459 Q 4.224,8.75 6.415,8.748 Z M 3.221,7.929 v 0 A 8.378,8.378 0 0 1 5.995,7.448 C 6.004,7.373 6.018,7.3 6.029,7.248 A 6.017,6.017 0 0 0 2.722,7.973 L 2.443,8.185 2.793,8.172 C 3.976,8.12 5.177,8.1 6.364,8.093 L 6.3,8.04 A 0.348,0.348 0 0 0 6.2,7.97 L 6.143,7.877 c -0.972,0 -1.952,0.02 -2.922,0.052 z"/>

</svg>