<?xml version="1.0" encoding="UTF-8"?>
<svg width="24px" fill="#44739e" height="24px" viewBox="0 0 24 24" version="1.1" xmlns="http://www.w3.org/2000/svg" xmlns:xlink="http://www.w3.org/1999/xlink">
            <path d="m 3.1149998,15.301431 a 0.379,0.379 0 1 0 0.379,0.379 0.379,0.379 0 0 0 -0.379,-0.379 z m 0,-1.28 a 0.38,0.38 0 1 0 0.379,0.379 0.379,0.379 0 0 0 -0.379,-0.379 z m 0,-1.263 a 0.379,0.379 0 1 0 0.379,0.379 0.379,0.379 0 0 0 -0.379,-0.379 z m 0.379,-3.4779993 a 0.37900001,0.37900001 0 0 1 -0.379,0.3790001 0.37900001,0.37900001 0 0 1 -0.379,-0.3790001 0.37900001,0.37900001 0 0 1 0.379,-0.379 0.37900001,0.37900001 0 0 1 0.379,0.379 z m -0.379,2.2139993 a 0.38,0.38 0 1 0 0.379,0.38 0.379,0.379 0 0 0 -0.379,-0.38 z m 0,-1.257 a 0.379,0.379 0 1 0 0.379,0.379 0.379,0.379 0 0 0 -0.379,-0.379 z m 0.379,-2.23 a 0.37900001,0.37900001 0 0 1 -0.379,0.379 0.37900001,0.37900001 0 0 1 -0.379,-0.379 0.37900001,0.37900001 0 0 1 0.379,-0.379 0.37900001,0.37900001 0 0 1 0.379,0.379 z m -0.379,-1.5799998 a 0.379,0.379 0 1 0 0.379,0.379 0.378,0.378 0 0 0 -0.379,-0.379 z M 20.949,15.268431 a 0.379,0.379 0 1 0 0.379,0.379 0.379,0.379 0 0 0 -0.379,-0.379 z m 0,-1.284 a 0.379,0.379 0 1 0 0.379,0.379 0.379,0.379 0 0 0 -0.379,-0.379 z m 0,-1.26 a 0.38,0.38 0 1 0 0.379,0.38 0.38,0.38 0 0 0 -0.379,-0.38 z m 0,-1.263 a 0.379,0.379 0 1 0 0.379,0.379 0.379,0.379 0 0 0 -0.379,-0.379 z m 0,-1.257 a 0.379,0.379 0 1 0 0.379,0.379 0.379,0.379 0 0 0 -0.379,-0.379 z m 0,-1.3369998 a 0.379,0.379 0 1 0 0.379,0.379 0.379,0.379 0 0 0 -0.379,-0.379 z m 0,-1.272 a 0.379,0.379 0 1 0 0.379,0.379 0.379,0.379 0 0 0 -0.379,-0.379 z m 0,-1.202 a 0.379,0.379 0 1 0 0.379,0.379 0.379,0.379 0 0 0 -0.379,-0.379 z m -1.439,-0.009 a 0.379,0.379 0 1 0 0.379,0.379 0.379,0.379 0 0 0 -0.379,-0.379 z m -1.279,0 a 0.379,0.379 0 1 0 0.379,0.379 0.38,0.38 0 0 0 -0.379,-0.379 z m -1.264,0 a 0.379,0.379 0 1 0 0.379,0.379 0.379,0.379 0 0 0 -0.379,-0.379 z m -1.267,0 a 0.379,0.379 0 1 0 0.379,0.379 0.379,0.379 0 0 0 -0.379,-0.379 z m -1.287,0 a 0.379,0.379 0 1 0 0.379,0.379 0.379,0.379 0 0 0 -0.379,-0.379 z m -1.303,0 a 0.379,0.379 0 1 0 0.379,0.379 0.379,0.379 0 0 0 -0.379,-0.379 z m -1.272,0 a 0.379,0.379 0 1 0 0.379,0.379 0.38,0.38 0 0 0 -0.379,-0.379 z m -1.202,0 a 0.379,0.379 0 1 0 0.379,0.379 0.379,0.379 0 0 0 -0.379,-0.379 z m -1.1770002,0 a 0.379,0.379 0 1 0 0.379,0.379 0.379,0.379 0 0 0 -0.379,-0.379 z m -1.187,0 a 0.379,0.379 0 1 0 0.379,0.379 0.379,0.379 0 0 0 -0.379,-0.379 z m -1.211,0 a 0.379,0.379 0 1 0 0.379,0.379 0.379,0.379 0 0 0 -0.379,-0.379 z m -1.223,0 a 0.379,0.379 0 1 0 0.379,0.379 0.38,0.38 0 0 0 -0.379,-0.379 z m -1.324,0 a 0.379,0.379 0 1 0 0.379,0.379 0.38,0.38 0 0 0 -0.379,-0.379 z m -2.514,-0.638 V 16.875431 h 3.929 a 1.2,1.2 0 0 0 1.2,0.947 H 17.309 a 1.2,1.2 0 0 0 1.2,-0.947 H 22 V 5.7464312 Z M 17.307,17.322431 H 7.1269998 a 0.7,0.7 0 0 1 -0.643,-0.392 H 17.949 a 0.7,0.7 0 0 1 -0.642,0.392 z m 4.152,-1.015 H 20.405 V 7.5914312 a 0.284,0.284 0 0 0 -0.283,-0.284 H 3.9049998 a 0.284,0.284 0 0 0 -0.283,0.284 v 8.7159998 h -1.054 V 6.8364312 a 0.582,0.582 0 0 1 0.582,-0.583 H 20.877 a 0.582,0.582 0 0 1 0.582,0.583 z"/>

</svg>