<?xml version="1.0" encoding="UTF-8"?>
<svg width="24px" fill="#44739e" height="24px" viewBox="0 0 24 24" version="1.1" xmlns="http://www.w3.org/2000/svg" xmlns:xlink="http://www.w3.org/1999/xlink">
            <path d="m 2.01,13.443 v 2.279 a 0.421,0.421 0 0 0 0.127,0.3 0.438,0.438 0 0 0 0.613,0 0.425,0.425 0 0 0 0.126,-0.3 v -2.279 z m 4.453,0 v 2.279 a 0.413,0.413 0 0 0 0.033,0.163 0.438,0.438 0 0 0 0.094,0.139 0.445,0.445 0 0 0 0.306,0.125 0.447,0.447 0 0 0 0.166,-0.033 0.43,0.43 0 0 0 0.141,-0.092 0.438,0.438 0 0 0 0.094,-0.139 0.413,0.413 0 0 0 0.033,-0.163 v -2.279 z m 7.073,0 v 0.207 a 1.854,1.854 0 0 1 -1.8,1.942 c -1.2,0 -1.776,-0.637 -1.776,-1.91 V 13.443 H 9.1 v 0.277 c 0,1.681 0.8,2.546 2.39,2.546 a 2.166,2.166 0 0 0 1.2,-0.29 2.116,2.116 0 0 0 0.836,-0.9 v 0.678 a 0.425,0.425 0 0 0 0.127,0.3 0.438,0.438 0 0 0 0.613,0 0.425,0.425 0 0 0 0.127,-0.3 V 13.443 Z M 9.1,10.509 v 2.3 h 0.866 v -2.3 a 0.419,0.419 0 0 0 -0.127,-0.3 0.437,0.437 0 0 0 -0.612,0 0.419,0.419 0 0 0 -0.127,0.3 z m 4.44,0 v 2.3 h 0.86 v -2.3 a 0.423,0.423 0 0 0 -0.127,-0.3 0.438,0.438 0 0 0 -0.613,0 0.423,0.423 0 0 0 -0.127,0.3 z m 3.519,2.269 a 2.146,2.146 0 0 1 2.205,-2.135 1.89,1.89 0 0 1 1.936,2.138 v 0.026 h -4.148 z m -0.886,0.029 H 15.62 a 0.325,0.325 0 0 0 -0.229,0.093 0.316,0.316 0 0 0 -0.1,0.225 0.312,0.312 0 0 0 0.1,0.225 0.325,0.325 0 0 0 0.229,0.093 h 0.553 a 2.979,2.979 0 0 0 3.26,2.811 4.44,4.44 0 0 0 1.94,-0.373 0.353,0.353 0 0 0 0.193,-0.148 0.348,0.348 0 0 0 0.05,-0.237 0.273,0.273 0 0 0 -0.123,-0.2 0.433,0.433 0 0 0 -0.177,-0.038 0.413,0.413 0 0 0 -0.176,0.038 c -0.107,0.032 -0.2,0.066 -0.294,0.1 a 3.386,3.386 0 0 1 -1.333,0.223 2.2,2.2 0 0 1 -2.458,-2.139 v -0.035 h 4.528 A 0.382,0.382 0 0 0 21.744,13.43 0.359,0.359 0 0 0 21.883,13.35 0.374,0.374 0 0 0 21.976,13.22 0.383,0.383 0 0 0 22,13.061 V 13.014 C 22,10.223 19.878,10 19.228,10 a 3,3 0 0 0 -2.114,0.785 2.911,2.911 0 0 0 -0.945,2.019 z M 2.01,8.157 v 4.65 H 2.876 A 1.957,1.957 0 0 1 4.8,10.678 c 1.073,0 1.665,0.681 1.665,1.909 v 0.22 H 7.33 v -0.2 C 7.33,10.926 6.518,10 5.05,10 A 2.192,2.192 0 0 0 3.841,10.273 2.15,2.15 0 0 0 2.98,11.152 L 2.867,11.381 V 8.157 A 0.423,0.423 0 0 0 2.74,7.857 0.438,0.438 0 0 0 2.127,7.857 0.423,0.423 0 0 0 2,8.157"/>

</svg>