<?xml version="1.0" encoding="UTF-8"?>
<svg width="24px" fill="#44739e" height="24px" viewBox="0 0 24 24" version="1.1" xmlns="http://www.w3.org/2000/svg" xmlns:xlink="http://www.w3.org/1999/xlink">
            <path d="m 14.248,8.7019997 h 1.59 V 15.298 h -1.59 z M 5.143,10.764 H 4.124 a 1.4,1.4 0 0 0 -0.36,0.037 C 3.673,10.826 3.615,10.843 3.59,10.851 V 8.7 H 2 v 6.6 h 1.59 v -2.66 a 0.428,0.428 0 0 1 0.124,-0.3 0.4,0.4 0 0 1 0.3,-0.13 h 0.92 a 0.446,0.446 0 0 1 0.435,0.435 V 15.3 h 1.575 v -2.871 a 1.53,1.53 0 0 0 -0.5,-1.261 2,2 0 0 0 -1.301,-0.404 z m 15.267,0 v 2.658 a 0.423,0.423 0 0 1 -0.422,0.423 h -0.932 a 0.423,0.423 0 0 1 -0.422,-0.423 v -2.658 h -1.59 v 2.783 a 1.679,1.679 0 0 0 0.49,1.3 1.874,1.874 0 0 0 1.323,0.453 H 20.41 A 1.47,1.47 0 0 0 21.571,14.816 1.842,1.842 0 0 0 22,13.547 v -2.783 z m -8.957,2.658 a 0.4,0.4 0 0 1 -0.13,0.3 0.43,0.43 0 0 1 -0.3,0.124 H 10.1 A 0.423,0.423 0 0 1 9.678,13.423 V 10.764 H 8.087 v 2.783 a 1.676,1.676 0 0 0 0.491,1.3 1.855,1.855 0 0 0 1.31,0.453 h 1.565 a 1.473,1.473 0 0 0 1.162,-0.484 1.842,1.842 0 0 0 0.429,-1.267 v -2.785 h -1.591 z"/>

</svg>