<?xml version="1.0" encoding="UTF-8"?>
<svg width="24px" fill="#44739e" height="24px" viewBox="0 0 24 24" version="1.1" xmlns="http://www.w3.org/2000/svg" xmlns:xlink="http://www.w3.org/1999/xlink">
            <path d="m 18.743,10.440631 a 0.175,0.175 0 1 0 0.172,0.175 0.173,0.173 0 0 0 -0.172,-0.175 z M 17.368,9.5676309 a 0.175,0.175 0 1 0 -0.172,-0.175 0.173,0.173 0 0 0 0.172,0.175 z m 0.687,2.7950001 a 3.008,3.008 0 0 0 2.984,-3.0300001 v 0 a 3.846,3.846 0 0 0 -0.346,-1.311 0.171,0.171 0 0 0 -0.22,-0.1 0.87,0.87 0 0 1 -0.734,-0.081 1.193,1.193 0 0 0 -1.236,0 0.854,0.854 0 0 1 -0.9,0 1.19,1.19 0 0 0 -1.236,0 0.878,0.878 0 0 1 -0.731,0.082 0.171,0.171 0 0 0 -0.222,0.1 v 0 a 3.815,3.815 0 0 0 -0.344,1.31 3.007,3.007 0 0 0 2.985,3.0300001 z m 0.688,-1.223 a 0.524,0.524 0 1 1 0.516,-0.524 0.52,0.52 0 0 1 -0.516,0.524 z M 17.368,8.8696309 a 0.524,0.524 0 1 1 -0.516,0.523 0.519,0.519 0 0 1 0.516,-0.523 z M 16.907,10.835631 18.97,8.9146309 a 0.171,0.171 0 0 1 0.244,0.01 0.177,0.177 0 0 1 -0.01,0.248 l -2.063,1.9210001 a 0.171,0.171 0 0 1 -0.244,-0.01 0.177,0.177 0 0 1 0.01,-0.248 z m 2.385,-4.3590001 a 0.344,0.344 0 0 0 0.3,0.176 0.332,0.332 0 0 0 0.171,-0.046 0.35,0.35 0 0 0 0.129,-0.476 q -0.655,-1.161 -1.359,-2.294 a 0.343,0.343 0 0 0 -0.477,-0.111 0.352,0.352 0 0 0 -0.11,0.483 q 0.696,1.119 1.346,2.268 z m -1.237,6.5840001 a 3.684,3.684 0 0 0 3.587,-2.938 c 0.489,-1.8060001 -1.565,-4.7890001 -1.809,-5.2340001 -0.507,-0.834 -1.007,-1.582 -1.348,-2.08 a 0.52,0.52 0 0 0 -0.731,-0.13 0.545,0.545 0 0 0 -0.128,0.13 c -0.975,1.417 -3.241,4.887 -3.241,6.523 a 3.7,3.7 0 0 0 3.67,3.7290001 z M 17.908,3.0096309 a 0.18,0.18 0 0 1 0.253,-0.043 0.19,0.19 0 0 1 0.042,0.043 c 0.747,1.083 3.18,4.742 3.18,6.322 a 3.327,3.327 0 1 1 -6.654,0 c 0,-1.58 2.432,-5.239 3.179,-6.322 z M 5.3859998,16.108631 H 11.845 v -2.458 H 5.3859998 Z m 3.714,-1.846 H 11.23 v 1.234 H 9.0999998 Z m -3.1,0 h 2.49 v 1.234 h -2.49 z m 1.5509994,-2.49 h 0.5709999 v 0.612 H 7.5509992 Z m 13.8370008,6.615 v 1.133 h -0.612 v -1.133 h -0.613 v 1.133 h -0.612 v -1.133 h -0.612 v 1.133 h -0.653 v -1.133 h -0.612 v 1.133 h -0.613 v -1.133 h -0.612 v 1.133 h -0.612 v -1.133 h -0.613 v 1.133 h -0.612 v -1.133 H 14 v 1.133 h -0.612 v -6.326 l 0.82,0.99 1.3,-1.572 -6.7390002,-8.1360001 -0.712,0.859 h -3.894 v 0.741 h 3.282 l -0.327,0.394 h -2.669 v 3.2190005 l -2.422,2.9229996 1.3,1.572 0.548,-0.66 v 6 h -0.651 v -1.137 h -0.612 v 1.133 h -0.612 v 0.739 h 0.612 v 1.083 h 0.612 v -1.083 h 0.654 v 1.083 h 0.612 v -2.61 h 2.122 v -0.739 h -2.122 v -5.171 h -0.031 l 4.31,-5.2000001 L 12.776,12.456631 v 5.538 h -2.164 v 0.739 h 2.164 v 2.61 h 0.612 v -1.084 H 14 v 1.083 h 0.612 v -1.083 h 0.612 v 1.083 h 0.613 v -1.083 h 0.612 v 1.083 h 0.612 v -1.083 h 0.612 v 1.083 h 0.613 v -1.083 h 0.653 v 1.083 h 0.612 v -1.083 h 0.612 v 1.083 h 0.612 v -1.083 h 0.613 v 1.083 H 22 v -2.955 z M 5.0609998,6.9496309 h 1.445 l -1.445,1.743 z m 3.708,-0.631 -5.439,6.5640001 -0.437,-0.528 5.876,-7.0910001 5.8770002,7.0910001 -0.438,0.528 z m 0.6190016,5.4540001 h 0.6119996 v 0.612 H 9.3880014 Z m -0.8980007,0 h 0.571 v 0.612 h -0.571 z m -0.3269996,7.714 H 8.775001 v 0.612 H 8.1630011 Z M 10.306,16.960271 H 7.2319998 v 4.33 h -5.232 v 0.612 H 22 v -0.612 H 10.306 Z m -0.6120002,4.308 h -1.849 v -3.695 h 1.849 z m -0.918,-12.1916401 a 1.036,1.036 0 1 0 1.035,1.0370001 v 0 a 1.036,1.036 0 0 0 -1.035,-1.0370001 z m 0,1.5320001 v 0 a 0.5,0.5 0 1 1 0.5,-0.5 0.5,0.5 0 0 1 -0.5,0.504 z"/>

</svg>