<svg xmlns="http://www.w3.org/2000/svg" viewBox="0 0 24 24"><path fill="#44739e" d="M12.047 7.311c-3.172 0-5.742 1.269-5.742 2.834s2.57 2.835 5.742 2.835 5.741-1.269 5.741-2.835-2.571-2.834-5.741-2.834m-.547.632a6.66 6.66 0 0 1 3.359.364c.242.232-1.08.978-2.653 1.3-2.247.453-1.178-1.282-.706-1.664M7.639 11.3c-.5-.352-1.463-1.361.141-2.41a5.4 5.4 0 0 1 1.906-.727c.283-.06.484.01.232.222a12.6 12.6 0 0 0-1.745 2.794c-.08.273-.242.343-.534.121m4.619 1.17c-.948.1-3.056-.212-3.1-.484.042-.656 3.352-1.743 3.948-1.143.252.477-.233 1.6-.848 1.627m4.822-1.906c-.243.554-1.06 1.18-2.774 1.6-.263.06-.353-.1-.182-.252a16 16 0 0 0 1.816-2.9c.1-.233.292-.141.413-.051a1.39 1.39 0 0 1 .727 1.603m4.156 3.659H22v2.466h-.764Zm-3.336.836v1.558h.861v-.619h1.469v.619h.851v-2.4H18.7a.827.827 0 0 0-.8.842m.851.01a.212.212 0 0 1 .233-.223h1.238v.61h-1.468Zm-1.786-.841H14.74v2.389h2.4c.339 0 .61-.465.615-.658v-1.1a.775.775 0 0 0-.79-.631m.028 1.576a.29.29 0 0 1-.3.281h-1.174v-1.248h1.156a.283.283 0 0 1 .318.271Zm-3.027-1.576h-2.544v2.394h.842v-1.779h1.151c.261 0 .329.121.329.324v1.451h.764v-1.834a.51.51 0 0 0-.542-.556m-3.473 1.45a.36.36 0 0 1-.319.4H8.946v-1.85h-.764v2.379h2.544c.193 0 .532-.174.532-.474v-1.905h-.765Zm-3.937-.532-.793-.918h-.754l1.16 1.392v.997h.765v-.929l1.151-1.46H7.34Zm-2.399-.067H2.774v-.851H2v2.379h.764v-.996h1.393v1.006h.765v-2.389h-.765Z"/></svg>