<svg xmlns="http://www.w3.org/2000/svg" viewBox="0 0 24 24"><path fill="#44739e" d="M12.002 2.01a9.56 9.56 0 0 1 6.213 1.937 6.23 6.23 0 0 1 1.799 3.991 11.3 11.3 0 0 1 .054 2.799 3.14 3.14 0 0 1-1.799 2.43A13.66 13.66 0 0 1 12 14.366a13.66 13.66 0 0 1-6.268-1.199 3.14 3.14 0 0 1-1.799-2.43 11.2 11.2 0 0 1 .053-2.799 6.23 6.23 0 0 1 1.8-3.991 9.57 9.57 0 0 1 6.216-1.937m5.663 11.911a29 29 0 0 1-.152 4.329 2.23 2.23 0 0 1-1.137 1.826 9.24 9.24 0 0 1-4.374.9 9.24 9.24 0 0 1-4.373-.9 2.3 2.3 0 0 1-.456-.332l-.007-.006a2.38 2.38 0 0 1-.675-1.488 29 29 0 0 1-.15-4.328 15.5 15.5 0 0 0 5.661.875 15.5 15.5 0 0 0 5.663-.875m-1.164 6.575a2.4 2.4 0 0 1-.245.41 3.16 3.16 0 0 1-1.513.769 10.6 10.6 0 0 1-2.71.323 10.7 10.7 0 0 1-2.705-.322 3.2 3.2 0 0 1-1.525-.761 2.4 2.4 0 0 1-.237-.385 9.8 9.8 0 0 0 4.436.874 9.7 9.7 0 0 0 4.499-.907"/></svg>