<?xml version="1.0" encoding="UTF-8"?>
<svg width="24px" fill="#44739e" height="24px" viewBox="0 0 24 24" version="1.1" xmlns="http://www.w3.org/2000/svg" xmlns:xlink="http://www.w3.org/1999/xlink">
            <path d="M 2.4,3.357 A 0.151,0.151 0 1 1 2.266,3.223 0.151,0.151 0 0 1 2.4,3.357 Z m 0,-0.664 a 0.151,0.151 0 0 1 -0.3,0 0.151,0.151 0 0 1 0.3,0 z M 6.049,3.542 H 3.114 V 3.364 H 2.922 v -0.6 h 0.2 V 2.617 H 6.044 Z M 1.773,2.215 v 1.848 l 0.021,2.29 a 3.207,3.207 0 0 0 0.071,0.7 H 2.121 Q 2.194,5.56 2.162,4.06 V 4.031 H 21.9 q -0.033,1.514 0.041,3.025 H 22.2 a 3.207,3.207 0 0 0 0.071,-0.7 l 0.021,-2.437 v -1.7 z M 6.236,3.733 H 2.76 V 2.456 H 6.236 Z M 21.8,8.136 h -0.27 v -0.13 h -19 v 0.13 H 2.26 c -0.16,0 -0.16,-0.72 0.01,-0.72 h 0.26 v 0.13 h 19 v -0.13 h 0.26 c 0.17,0 0.17,0.72 0.01,0.72 z M 2.54,4.576 H 21.49 V 7.169 H 2.54 Z"/>

</svg>
