<?xml version="1.0" encoding="UTF-8"?>
<svg width="24px" fill="#44739e" height="24px" viewBox="0 0 24 24" version="1.1" xmlns="http://www.w3.org/2000/svg" xmlns:xlink="http://www.w3.org/1999/xlink">
            <path d="M 17.066,15.922 A 0.426,0.426 0 0 0 16.64,15.496 h -1.221 a 0.426,0.426 0 0 0 -0.426,0.426 v 2.485 h 2.073 z m -3.503,3.593 V 22 h 2.074 V 19.515 A 0.428,0.428 0 0 0 15.21,19.088 h -1.221 a 0.427,0.427 0 0 0 -0.426,0.427 z M 6.934,17.639 v 2.485 H 9.007 V 17.639 A 0.426,0.426 0 0 0 8.581,17.213 H 7.36 a 0.426,0.426 0 0 0 -0.426,0.426 z m 7.415,-5.116 0.007,6.453 h 0.511 l 0.013,-6.309 a 1,1 0 0 0 -1,-1 h -0.7 a 0.262,0.262 0 0 0 -0.265,0.227 0.252,0.252 0 0 0 0.252,0.278 h 0.819 a 0.355,0.355 0 0 1 0.363,0.351 z M 13,10.13 A 0.256,0.256 0 0 0 12.932,9.93 0.25,0.25 0 0 0 12.75,9.851 v 0 L 9.273,9.9 a 1.579,1.579 0 0 0 -1.55,1.557 L 7.678,17.1 h 0.509 l 0.062,-5.78 a 0.933,0.933 0 0 1 0.918,-0.919 l 3.567,-0.042 A 0.263,0.263 0 0 0 13,10.13 Z m -0.1,2.031 a 0.364,0.364 0 0 1 -0.093,-0.281 0.376,0.376 0 0 1 0.377,-0.329 h 0.358 V 8.793 h 1.693 a 0.531,0.531 0 0 1 0.531,0.53 v 6.06 h 0.5 V 9.369 A 1.083,1.083 0 0 0 15.185,8.287 h -1.639 v -6 A 0.283,0.283 0 0 0 13.263,2 h -0.418 a 0.283,0.283 0 0 0 -0.283,0.283 v 7.461 h 0.179 a 0.367,0.367 0 0 1 0.368,0.4 0.377,0.377 0 0 1 -0.374,0.332 h -0.173 v 3.084 a 0.283,0.283 0 0 0 0.283,0.283 h 0.418 A 0.283,0.283 0 0 0 13.546,13.56 V 12.281 H 13.175 A 0.367,0.367 0 0 1 12.9,12.161 Z"/>

</svg>