<svg xmlns="http://www.w3.org/2000/svg" viewBox="0 0 24 24"><path fill="#44739e" d="M10.11 16.26a1.125 1.125 0 0 0 0 2.221 1.125 1.125 0 0 0 0-2.221m9.581-9.165a3.6 3.6 0 0 0-3.319-3.675l-9.248-.73a3.6 3.6 0 0 0-2.657.882 3.6 3.6 0 0 0-1.532 2.926l-.066 10.883a3.6 3.6 0 0 0 3.21 3.603l9.053.994a3.58 3.58 0 0 0 2.415-.601 4 4 0 0 0 .353-.272 3.59 3.59 0 0 0 1.529-2.862Zm-9.822-.472.478.04v2.546l-.478-.038Zm.24 12.174a1.446 1.446 0 0 1 0-2.869 1.446 1.446 0 0 1 0 2.869M17.81 2.741l-9.248-.73a3.6 3.6 0 0 0-2.472.73 3.6 3.6 0 0 1 1.691-.277l9.249.728a3.6 3.6 0 0 1 3.318 3.679l-.26 11.147a3.6 3.6 0 0 1-1.414 2.778 3.6 3.6 0 0 0 2.194-3.233L21.13 6.42a3.6 3.6 0 0 0-3.32-3.679"/></svg>