<svg xmlns="http://www.w3.org/2000/svg" viewBox="0 0 24 24"><path fill="#44739e" d="M21.921 11.263v-.007l-.025-.151a4.4 4.4 0 0 0-.917-2.081 6.6 6.6 0 0 0-1.94-1.485 11.4 11.4 0 0 0-2.36-.908 18 18 0 0 0-2.434-.471 20 20 0 0 0-1.228-.116v.008q-.468-.034-.937-.042t-.938.018V6.02q-.616.022-1.23.085a18 18 0 0 0-2.446.408 11.3 11.3 0 0 0-2.382.847q-.133.066-.264.137l-.107.06-.154.087c-.054.03-.089.054-.133.081s-.082.049-.122.075-.1.064-.144.1-.071.046-.105.071q-.076.052-.147.107l-.095.07c-.048.038-.1.077-.143.117a3 3 0 0 0-.226.196l-.085.079q-.064.063-.127.128l-.058.059v.006l-.067.066a4.4 4.4 0 0 0-.969 2.058 7 7 0 0 0-.07 2.352q.016.113.035.224v.022l.029.15.024.123.033.143.032.129.037.135q.019.068.041.134.02.066.042.128l.05.139a4 4 0 0 0 .109.265c.021.046.031.071.048.106l.082.161.045.084q.067.121.143.238a4 4 0 0 0 .8.889 5.2 5.2 0 0 0 1.082.65 12.45 12.45 0 0 0 5.174 1.006h.367a4 4 0 0 0 .555.029c.288 0 .577.01.865.017s.6 0 .9 0h1.492a12.35 12.35 0 0 0 5.125-.873 5.2 5.2 0 0 0 1.1-.63 4 4 0 0 0 .82-.868c.05-.072.1-.146.141-.22l.039-.067q.047-.084.092-.17l.035-.067q.056-.114.106-.231l.02-.047q.04-.096.076-.194l.031-.087q.029-.084.055-.168l.026-.084q.035-.112.063-.226.076-.3.125-.6a7 7 0 0 0 .014-2.186M9.315 9.184v.015a2 2 0 0 1-.085-.257c.029.081.07.157.085.242m-1.381.074.016-.009a.03.03 0 0 1 .009.037l-.014.034a.5.5 0 0 0-.105.007 1 1 0 0 1 .094-.069M8 10.33a1.48 1.48 0 0 0 .951.262 3.5 3.5 0 0 0 1.095-.339 4 4 0 0 1 1.261-.271 6.4 6.4 0 0 1 1.321.091c.223.034.445.07.669.093a1.3 1.3 0 0 0 .547-.083 1.8 1.8 0 0 1 .52-.118.34.34 0 0 1 .333.149.3.3 0 0 1 .022.081.34.34 0 0 0-.333-.148 1.8 1.8 0 0 0-.52.118 1.3 1.3 0 0 1-.547.082c-.224-.022-.447-.058-.669-.092a6.4 6.4 0 0 0-1.321-.092 4 4 0 0 0-1.261.272 3.5 3.5 0 0 1-1.095.339 1.48 1.48 0 0 1-.951-.262.72.72 0 0 1-.29-.427.76.76 0 0 0 .268.345m7.1-.746a2 2 0 0 1-.116.068l.005-.009.094-.147a2 2 0 0 0 .175-.318.3.3 0 0 0 .015-.058.14.14 0 0 1 .007.139 2 2 0 0 1-.175.318Zm-.08.914a1.5 1.5 0 0 0 .416-.2.94.94 0 0 0 .376-.358.5.5 0 0 0 .054-.268.44.44 0 0 1-.032.349.93.93 0 0 1-.376.358 1.5 1.5 0 0 1-.416.205c-.109.028-.248.026-.279-.1l-.005-.039c.048.08.167.078.262.054Zm-.5-1.061a.8.8 0 0 0-.122.317l-.013.009a.58.58 0 0 1 .113-.408.9.9 0 0 0 .169-.455v-.034a.3.3 0 0 1 .027.115.9.9 0 0 1-.173.456Zm1.872.6a.46.46 0 0 0-.083-.2c-.02-.029-.071.01-.057.039a.43.43 0 0 1 0 .394.9.9 0 0 1-.3.294 4.2 4.2 0 0 1-.923.432 8.7 8.7 0 0 1-2.783.509 14.4 14.4 0 0 1-2.612-.194 9 9 0 0 1-.959-.2 3 3 0 0 1-.9-.384.81.81 0 0 1-.437-.743.84.84 0 0 1 .228-.408 2 2 0 0 1 .151-.145 1 1 0 0 0-.135.154.5.5 0 0 0-.1.173v.013l-.019.044a.03.03 0 0 0 0 .028.6.6 0 0 0 .07.406.76.76 0 0 0 .2.3 1.7 1.7 0 0 0 .556.333c.213.084.436.153.656.217a1.5 1.5 0 0 0 .707.06 3 3 0 0 0 .624-.239 3 3 0 0 1 .312-.124c.121-.037.246-.062.37-.088a7 7 0 0 1 .771-.112 6.6 6.6 0 0 1 1.527.05c.253.038.5.105.749.166a2.8 2.8 0 0 0 .636.107 1.8 1.8 0 0 0 1.026-.31c.274-.188.592-.555.39-.9a.56.56 0 0 0-.284-.238 1 1 0 0 0-.094-.1l-.07-.007q-.034-.031-.064-.064c-.036-.04.043-.1.08-.084l.136.047a.6.6 0 0 1 .159-.073c.007 0 .013 0 .013.009a.02.02 0 0 1-.014.014.4.4 0 0 0-.124.062 1.53 1.53 0 0 1 .661.4.517.517 0 0 1-.078.727 3 3 0 0 1-.434.307 3 3 0 0 1-.586.27 4 4 0 0 0 .542-.28c.219-.131.529-.362.493-.661Z"/></svg>