<svg xmlns="http://www.w3.org/2000/svg" viewBox="0 0 24 24"><path fill="#44739e" d="M6.495 12A5.503 5.503 0 1 0 12 6.498 5.5 5.5 0 0 0 6.495 12m6.298-.915a.27.27 0 0 1 .381.02 1.579 1.579 0 1 1-2.346 0 .269.269 0 0 1 .401.361 1.039 1.039 0 1 0 1.544 0 .27.27 0 0 1 .023-.381Zm-.52-.687v1.764a.271.271 0 1 1-.54 0v-1.764a.271.271 0 0 1 .54 0M12 17.98a5.97 5.97 0 0 1-4.789-2.4l-2.385 1.934a9.044 9.044 0 0 0 14.455-.142l-2.494-1.784A5.97 5.97 0 0 1 12 17.98m.298.681c0-.019.033-.035.075-.035s.074.016.074.035v.07c0 .018-.035.034-.076.034s-.075-.016-.075-.034Zm-.665.882h-.076c-.021 0-.038-.035-.038-.077s.018-.074.039-.074h.076c.021 0 .038.034.038.076s-.019.075-.039.075m.136-.642a.037.037 0 0 1 .065-.026l.053.052a.038.038 0 1 1-.053.054l-.053-.054a.03.03 0 0 1-.012-.026m.118 1.105-.052.054a.038.038 0 1 1-.054-.054l.054-.052a.03.03 0 0 1 .025-.012.038.038 0 0 1 .027.064m.562.277c0 .021-.035.038-.076.038s-.075-.018-.075-.039v-.074c0-.021.033-.037.075-.039.041 0 .074.018.074.039Zm-.075-.263a.553.553 0 1 1 .552-.553.554.554 0 0 1-.552.553m.614.068a.042.042 0 0 1-.063 0l-.063-.066a.04.04 0 0 1-.014-.034.045.045 0 0 1 .045-.046.04.04 0 0 1 .032.014l.063.066a.047.047 0 0 1 0 .066m0-1.157-.063.053a.05.05 0 0 1-.063 0 .034.034 0 0 1 0-.053l.063-.053a.05.05 0 0 1 .064 0 .034.034 0 0 1-.001.049Zm.201.615h-.075c-.021 0-.038-.034-.038-.077s.018-.074.039-.074h.076c.021 0 .037.034.036.077s-.016.071-.038.071Zm-.858-15.129a.4.4 0 0 1-.403.402.4.4 0 0 1-.402-.402.4.4 0 0 1 .402-.402.4.4 0 0 1 .403.402m.043 14.648a.402.402 0 1 0 .402.402.4.4 0 0 0-.402-.402m6.514-12.927-2.385 1.928a5.98 5.98 0 0 1 .461 7.269l2.494 1.783a9.04 9.04 0 0 0-.57-10.98m.441 6.03a.053.053 0 0 1-.077 0l-.146-.128a.057.057 0 0 1 0-.079l.326-.365a.053.053 0 0 0 0-.078l-.326-.29a.056.056 0 0 1 0-.077l.13-.146a.053.053 0 0 1 .078 0l.533.521a.074.074 0 0 1 0 .106l-.367.382ZM6.02 12a5.96 5.96 0 0 1 1.041-3.368L4.567 6.844a9.04 9.04 0 0 0 .077 10.421l2.39-1.931A5.96 5.96 0 0 1 6.02 12m-1.113-.4-.333.28a.053.053 0 0 0-.007.077l.316.376a.053.053 0 0 1-.006.078l-.15.125a.056.056 0 0 1-.078-.008l-.134-.162-.356-.392a.074.074 0 0 1 0-.106l.55-.504a.053.053 0 0 1 .077.008l.13.15a.053.053 0 0 1-.009.078M12 6.02a5.96 5.96 0 0 1 4.297 1.821l2.389-1.933a9.045 9.045 0 0 0-13.941.689L7.24 8.386A5.97 5.97 0 0 1 12 6.02m-.575-.939-.136.157a.087.087 0 0 1-.135 0 .12.12 0 0 1 0-.157l.135-.156a.1.1 0 0 1 .067-.033.1.1 0 0 1 .071.033.12.12 0 0 1-.002.156m.579.346c0 .056-.035.106-.077.106s-.074-.048-.073-.106v-.204c0-.057.032-.105.073-.105a.095.095 0 0 1 .075.105Zm.707-.189a.09.09 0 0 1-.139 0l-.139-.157a.1.1 0 0 1-.03-.079.105.105 0 0 1 .098-.105.1.1 0 0 1 .071.034l.139.155a.12.12 0 0 1 0 .152m.261-.897c.061 0 .105.036.105.077s-.052.075-.113.075h-.227c-.061 0-.105-.035-.105-.077s.051-.075.112-.075Zm-.532-.588.172-.157a.13.13 0 0 1 .083-.033.13.13 0 0 1 .091.033.105.105 0 0 1 0 .157l-.171.156a.13.13 0 0 1-.172 0 .105.105 0 0 1-.003-.156m-.586-.362c0-.059.032-.106.073-.106s.076.05.075.106v.217c0 .06-.035.106-.077.106s-.074-.05-.073-.106Zm.074.473a.553.553 0 1 1-.552.553.554.554 0 0 1 .552-.553m-.743-.301a.1.1 0 0 1 .079.033l.157.157a.111.111 0 0 1-.157.156l-.156-.156a.1.1 0 0 1-.033-.079.105.105 0 0 1 .11-.111m-.302.778h.231c.063 0 .113.036.112.077s-.052.075-.115.075h-.232c-.062 0-.113-.035-.112-.077s.053-.075.116-.075M12 2a10 10 0 1 0 10 10A10 10 0 0 0 12 2m0 19.422A9.422 9.422 0 1 1 21.422 12 9.42 9.42 0 0 1 12 21.422"/></svg>