<svg xmlns="http://www.w3.org/2000/svg" viewBox="0 0 24 24"><path fill="#44739e" d="M12.073 2.001c-.905-.026-1.822.573-2.022 1.954-.111.763.003 11.5.005 17.249l-.1.018a4 4 0 0 1-.268.038c-1.405.15-1.146.672.364.734a8 8 0 0 0 1.43-.075c.141-.02 2.339-.325 2.432-.336.983-.116 1.321-.227 1.321-.421 0-.047-.064-.147-.086-.165-.114-.098-.294-.151-.453-.178-.212-.036-.67-.03-.676-.04-.038-.062.03-16.451-.04-16.972-.153-1.125-1.002-1.778-1.907-1.805m.164.35c.233.01.495.106.711.214.18.09.736.667.778 1.26.05.715.08 7.25.075 10.7-.006 4.713.004 6.263-.029 6.264l-.445.05c.002-5.572.004-11.142-.01-14.038-.005-1.449-.016-2.23-.035-2.675s-.049-.558-.092-.66a1.3 1.3 0 0 0-.443-.544 1.4 1.4 0 0 0-.7-.24c-.233-.01-.484.06-.673.185a1.5 1.5 0 0 0-.466.53.8.8 0 0 0-.079.207c-.023.099-.094.23-.111.456-.035.452-.007 1.256-.021 2.735-.028 2.956-.016 8.646-.004 14.336l-.078.009c-.006.007-.008-16.443-.004-17.216.133-1.1.927-1.602 1.626-1.572Zm-.193.402c.217.01.481.1.663.227.182.126.337.325.418.515.04.094.067.192.086.634.02.442.03 1.223.036 2.673.013 2.896.01 8.47.009 14.044-.693.075-2.266.25-2.491.277-.012-5.688-.024-11.374.004-14.328.014-1.478 0-2.277.034-2.725.018-.224.075-.357.097-.45a.7.7 0 0 1 .071-.189c.11-.199.269-.39.443-.505a1.1 1.1 0 0 1 .63-.173"/></svg>