<?xml version="1.0" encoding="UTF-8"?>
<svg width="24px" fill="#44739e" height="24px" viewBox="0 0 24 24" version="1.1" xmlns="http://www.w3.org/2000/svg" xmlns:xlink="http://www.w3.org/1999/xlink">
            <path d="M 6.5,12.062 A 5.228,5.228 0 1 0 11.73,6.835 5.227,5.227 0 0 0 6.5,12.062 Z m 5.983,-0.869 a 0.256,0.256 0 0 1 0.362,0.019 1.5,1.5 0 1 1 -2.228,0 0.25632499,0.25632499 0 0 1 0.381,0.343 0.987,0.987 0 1 0 1.466,0 0.256,0.256 0 0 1 0.022,-0.362 z M 11.989,10.54 v 1.676 a 0.257,0.257 0 1 1 -0.513,0 V 10.54 a 0.257,0.257 0 0 1 0.513,0 z M 11.73,17.743 A 5.671,5.671 0 0 1 7.18,15.463 L 4.915,17.3 a 8.592,8.592 0 0 0 13.732,-0.135 l -2.369,-1.694 a 5.672,5.672 0 0 1 -4.548,2.272 z m 0.283,0.647 c 0,-0.018 0.031,-0.033 0.071,-0.033 v 0 c 0.039,0 0.071,0.015 0.071,0.033 v 0.066 0 c 0,0.018 -0.034,0.033 -0.073,0.033 -0.039,0 -0.071,-0.015 -0.071,-0.033 z m -0.632,0.838 h -0.072 c -0.02,0 -0.036,-0.033 -0.036,-0.073 0,-0.04 0.017,-0.071 0.037,-0.071 h 0.072 c 0.02,0 0.036,0.033 0.036,0.073 0,0.04 -0.018,0.071 -0.037,0.071 z m 0.13,-0.61 a 0.035,0.035 0 0 1 0.061,-0.025 l 0.051,0.05 a 0.03606245,0.03606245 0 1 1 -0.051,0.051 l -0.05,-0.051 a 0.034,0.034 0 0 1 -0.011,-0.025 z m 0.112,1.05 -0.05,0.051 a 0.03606245,0.03606245 0 1 1 -0.051,-0.051 l 0.051,-0.05 a 0.032,0.032 0 0 1 0.024,-0.011 0.036,0.036 0 0 1 0.026,0.061 z m 0.534,0.263 v 0 c 0,0.02 -0.034,0.036 -0.073,0.036 -0.039,0 -0.071,-0.017 -0.071,-0.037 v -0.07 c 0,-0.02 0.031,-0.036 0.071,-0.037 v 0 c 0.039,0 0.071,0.017 0.071,0.037 z m -0.072,-0.25 a 0.525,0.525 0 1 1 0.525,-0.525 0.526,0.526 0 0 1 -0.525,0.525 z m 0.584,0.065 a 0.04,0.04 0 0 1 -0.06,0 l -0.06,-0.063 a 0.042,0.042 0 0 1 -0.013,-0.032 0.043,0.043 0 0 1 0.042,-0.044 0.044,0.044 0 0 1 0.031,0.013 l 0.06,0.063 v 0 a 0.045,0.045 0 0 1 0,0.063 z m 0,-1.1 -0.06,0.051 a 0.048,0.048 0 0 1 -0.06,0 0.032,0.032 0 0 1 0,-0.051 l 0.06,-0.05 a 0.048,0.048 0 0 1 0.061,0 0.032,0.032 0 0 1 -10e-4,0.047 z m 0.191,0.585 h -0.072 c -0.02,0 -0.036,-0.033 -0.036,-0.073 0,-0.04 0.017,-0.071 0.037,-0.071 h 0.072 c 0.02,0 0.036,0.033 0.035,0.073 -0.001,0.04 -0.016,0.068 -0.036,0.068 z M 12.044,4.8579998 a 0.382,0.382 0 0 1 -0.382,0.382 0.382,0.382 0 0 1 -0.382,-0.382 0.382,0.382 0 0 1 0.382,-0.382 0.382,0.382 0 0 1 0.382,0.382 z M 12.085,18.774 a 0.382,0.382 0 1 0 0.382,0.382 0.381,0.381 0 0 0 -0.382,-0.382 z M 18.274,6.493 16.008,8.325 a 5.68,5.68 0 0 1 0.438,6.905 l 2.369,1.694 A 8.592,8.592 0 0 0 18.274,6.493 Z m 0.419,5.729 a 0.051,0.051 0 0 1 -0.074,0 L 18.481,12.1 a 0.054,0.054 0 0 1 0,-0.075 l 0.309,-0.347 a 0.051,0.051 0 0 0 0,-0.074 l -0.309,-0.275 a 0.053,0.053 0 0 1 0,-0.074 l 0.123,-0.138 a 0.051,0.051 0 0 1 0.074,0 l 0.507,0.495 a 0.068,0.068 0 0 1 0,0.1 l -0.349,0.363 z M 6.049,12.062 a 5.659,5.659 0 0 1 0.989,-3.2 L 4.669,7.164 a 8.593,8.593 0 0 0 0.073,9.9 l 2.27,-1.835 A 5.655,5.655 0 0 1 6.049,12.062 Z m -1.057,-0.38 -0.317,0.266 a 0.051,0.051 0 0 0 -0.006,0.073 l 0.3,0.357 A 0.052,0.052 0 0 1 4.963,12.452 L 4.821,12.571 A 0.053,0.053 0 0 1 4.747,12.564 L 4.619,12.41 4.281,12.037 a 0.07,0.07 0 0 1 0,-0.1 l 0.523,-0.479 a 0.052,0.052 0 0 1 0.073,0.007 L 5,11.608 A 0.051,0.051 0 0 1 4.992,11.682 Z M 11.73,6.381 a 5.664,5.664 0 0 1 4.082,1.73 l 2.27,-1.836 A 8.593,8.593 0 0 0 4.838,6.929 l 2.37,1.7 A 5.671,5.671 0 0 1 11.73,6.381 Z M 11.184,5.489 11.055,5.638 v 0 a 0.083,0.083 0 0 1 -0.129,0 0.116,0.116 0 0 1 0,-0.149 l 0.129,-0.148 a 0.085,0.085 0 0 1 0.063,-0.032 0.086,0.086 0 0 1 0.068,0.032 0.116,0.116 0 0 1 -0.002,0.148 z m 0.55,0.329 v 0 c 0,0.053 -0.033,0.1 -0.073,0.1 -0.04,0 -0.071,-0.045 -0.07,-0.1 V 5.624 c 0,-0.054 0.031,-0.1 0.07,-0.1 v 0 a 0.088,0.088 0 0 1 0.071,0.1 z m 0.671,-0.18 a 0.086,0.086 0 0 1 -0.132,0 L 12.141,5.489 a 0.109,0.109 0 0 1 -0.028,-0.075 0.1,0.1 0 0 1 0.093,-0.1 0.086,0.086 0 0 1 0.067,0.032 l 0.132,0.148 v 0 a 0.116,0.116 0 0 1 0,0.144 z m 0.248,-0.852 c 0.058,0 0.1,0.034 0.1,0.073 0,0.039 -0.049,0.071 -0.107,0.071 H 12.43 c -0.058,0 -0.1,-0.033 -0.1,-0.073 0,-0.04 0.049,-0.071 0.107,-0.071 z M 12.148,4.227 12.311,4.078 a 0.118,0.118 0 0 1 0.079,-0.031 0.123,0.123 0 0 1 0.087,0.031 0.1,0.1 0 0 1 0,0.149 l -0.163,0.149 a 0.123,0.123 0 0 1 -0.163,0 0.1,0.1 0 0 1 -0.003,-0.149 z M 11.591,3.883 c 0,-0.056 0.031,-0.1 0.07,-0.1 v 0 c 0.04,0 0.072,0.047 0.071,0.1 V 4.09 c 0,0.057 -0.033,0.1 -0.073,0.1 -0.04,0 -0.071,-0.047 -0.07,-0.1 z m 0.071,0.45 A 0.525,0.525 0 1 1 11.137,4.858 0.526,0.526 0 0 1 11.662,4.333 Z M 10.956,4.047 a 0.1,0.1 0 0 1 0.075,0.031 L 11.18,4.227 A 0.10535891,0.10535891 0 0 1 11.031,4.376 L 10.883,4.227 A 0.1,0.1 0 0 1 10.851,4.152 0.1,0.1 0 0 1 10.956,4.047 Z m -0.287,0.739 h 0.219 c 0.06,0 0.108,0.034 0.107,0.073 -10e-4,0.039 -0.05,0.071 -0.11,0.071 h -0.22 c -0.059,0 -0.107,-0.033 -0.106,-0.073 0.001,-0.04 0.05,-0.071 0.11,-0.071 z M 11.73,2.562 a 9.5,9.5 0 1 0 9.5,9.5 9.5,9.5 0 0 0 -9.5,-9.5 z m 0,18.451 a 8.951,8.951 0 1 1 8.951,-8.951 8.952,8.952 0 0 1 -8.951,8.951 z"/>

</svg>