<svg xmlns="http://www.w3.org/2000/svg" viewBox="0 0 24 24"><path fill="#44739e" d="M3.71 11.247a.752.752 0 1 0 0 1.506.75.75 0 0 0 .753-.753.75.75 0 0 0-.753-.753m4.133 0a.75.75 0 0 0-.754.753.752.752 0 1 0 1.506 0 .75.75 0 0 0-.753-.753m4.131 0a.75.75 0 0 0-.752.753.752.752 0 1 0 .753-.753m4.133 0a.752.752 0 1 0 0 1.506.752.752 0 1 0 0-1.506m4.132 0a.752.752 0 1 0 0 1.506.752.752 0 1 0 0-1.506M2 11.542v.916h.919a.9.9 0 0 1 0-.916Zm2.503 0a.9.9 0 0 1 0 .916h2.548a.91.91 0 0 1 0-.916Zm4.131 0a.91.91 0 0 1 0 .916h2.549a.91.91 0 0 1 0-.916Zm4.132 0a.91.91 0 0 1 0 .916h2.55a.91.91 0 0 1 0-.916Zm4.133 0a.91.91 0 0 1 0 .916h2.548a.91.91 0 0 1 0-.916Zm4.131 0a.91.91 0 0 1 0 .916H22v-.916Z"/></svg>