<?xml version="1.0" encoding="UTF-8" standalone="no"?>
<svg width="24" height="24" version="1.1" viewBox="0 0 24 24" xmlns="http://www.w3.org/2000/svg">
  <path style="fill: #44739e" d="m12 0.81749c2.401 0 5.1219 0.56055 6.9508 2.1664 1.2811 1.1249 1.7876 2.7894 2.0162 4.4654 0.14086 1.0322 0.17934 2.1037 0.05929 3.1316-0.14359 1.2292-0.89233 2.1151-2.0143 2.7179-2.0537 1.1033-4.7199 1.3436-7.0119 1.3436-2.2919 0-4.9583-0.24037-7.0119-1.3436-1.1221-0.60277-1.8707-1.4886-2.0143-2.7179-0.12005-1.0279-0.081572-2.0994 0.059292-3.1316 0.22861-1.676 0.73507-3.3405 2.0162-4.4654 1.8288-1.6058 4.5497-2.1664 6.9508-2.1664zm6.3337 13.324c0.0217 1.6193 0.04954 3.2682-0.16824 4.8438v1.92e-4c-0.12612 0.91139-0.45237 1.5763-1.2725 2.0414-1.3894 0.78796-3.2831 1.0048-4.8929 1.0048-1.6099 0-3.5035-0.21687-4.8929-1.0048-0.19765-0.11209-0.36602-0.23604-0.51041-0.37201-0.00228-0.0022-0.00463-0.0042-0.00705-0.0063-0.45-0.42724-0.65972-0.97487-0.75495-1.6632-0.21783-1.5755-0.18994-3.2245-0.16824-4.8438 2.0009 0.80625 4.3208 0.98005 6.3336 0.98005 2.0128 0 4.3328-0.17377 6.3336-0.98005zm-1.306 7.3557c-0.1093 0.21349-0.20698 0.38209-0.27335 0.45748a0.19154 0.19154 0 0 0-0.0039 0.0047c-4.26e-4 5.77e-4 -8.55e-4 0.0011-0.0013 0.0017l-2.76e-4 2.51e-4c-0.24928 0.30359-0.85997 0.63324-1.6929 0.85894-0.83355 0.22586-1.8875 0.36266-3.0312 0.36266-1.1414 0-2.1934-0.1362-3.0262-0.36125-0.8324-0.22495-1.4437-0.55347-1.6951-0.85689-2.507e-4 -4.52e-4 -5.015e-4 -7.83e-4 -9.941e-4 -0.0012a0.19154 0.19154 0 0 0-0.00434-0.0048c-0.067533-0.07618-0.1625-0.23362-0.26746-0.43045 1.4931 0.78746 3.3749 0.98229 4.9693 0.98229v-6.4e-5c1.6151 0 3.5255-0.19973 5.0277-1.0132z" />
</svg>
