<svg xmlns="http://www.w3.org/2000/svg" viewBox="0 0 24 24"><path fill="#44739e" d="M12.753 3.71a.752.752 0 1 0-1.506 0 .752.752 0 1 0 1.506 0m0 4.133A.75.75 0 0 0 12 7.09a.752.752 0 1 0 0 1.506.75.75 0 0 0 .753-.753m0 4.132a.75.75 0 0 0-.753-.753.752.752 0 1 0 .753.753m0 4.132a.752.752 0 1 0-1.506 0 .752.752 0 1 0 1.506 0m0 4.132a.752.752 0 1 0-1.506 0 .752.752 0 1 0 1.506 0M12.458 2h-.916v.919a.9.9 0 0 1 .916 0Zm0 2.502a.9.9 0 0 1-.916 0v2.549a.91.91 0 0 1 .916 0Zm0 4.132a.91.91 0 0 1-.916 0v2.55a.91.91 0 0 1 .916 0Zm0 4.132a.91.91 0 0 1-.916 0v2.55a.91.91 0 0 1 .916 0Zm0 4.133a.91.91 0 0 1-.916 0v2.549a.91.91 0 0 1 .916 0Zm0 4.132a.91.91 0 0 1-.916 0V22h.916Z"/></svg>