<svg xmlns="http://www.w3.org/2000/svg" viewBox="0 0 24 24"><path fill="#44739e" d="M2 6.237v1.8l.02 2.232a3 3 0 0 0 .07.683h.249q.07-1.457.04-2.918v-.027h19.239q-.033 1.476.04 2.949h.252a3 3 0 0 0 .069-.683L22 7.898V6.237Zm.48 1.275a.147.147 0 1 1-.031-.292.1.1 0 0 1 .031 0 .147.147 0 0 1 0 .292m-.032-.675a.146.146 0 0 1-.129-.129.147.147 0 0 1 .292 0 .147.147 0 0 1-.163.129m3.9.885H2.962v-1.25H6.35ZM3.307 7.53h2.861l-.005-.901H3.315v.143H3.12v.585h.187Zm-.56 1.008h18.471v8.269H2.747Zm18.766 8.519h-.253v.126H2.74v-.126h-.253c-.166 0-.166.7-.01.7h.263v-.12h18.52v.126h.263c.156-.005.156-.706-.01-.706"/></svg>