<svg xmlns="http://www.w3.org/2000/svg" fill="#44739e" width="24" height="24" version="1.1" viewBox="0 0 24 24"><path d="m 9.736,16.313 0.025,0.2 a 4.32,4.32 0 0 0 2.017,-0.074 4.646,4.646 0 0 0 1.525,-0.766 l -0.049,-0.2 a 4.939,4.939 0 0 1 -3.518,0.84 z m 2.522,-2.22 a 2.408,2.408 0 0 0 -1.1,-0.064 v 0 a 2.478,2.478 0 0 0 -0.9,0.475 h 0.007 a 1.861,1.861 0 0 0 -0.549,1.573 5.683,5.683 0 0 0 3.41,-0.912 1.47,1.47 0 0 0 -0.868,-1.072 z M 8.856,14.832 A 1.918,1.918 0 0 0 7.936,13.975 1.546,1.546 0 0 0 7.122,14.02 2.984,2.984 0 0 0 6.217,14.595 2.96,2.96 0 0 0 5.559,16.06 3.268,3.268 0 0 1 8.856,14.832 Z m -0.185,0.112 a 2.688,2.688 0 0 0 -1.129,0.1 2.793,2.793 0 0 0 -1.913,1.356 c -0.089,0.477 0.614,0.646 1.572,0.369 H 7.206 A 2.831,2.831 0 0 0 9.12,15.417 C 9.168,15.164 8.992,15 8.671,14.944 Z m -1.456,1.731 c -0.807,0.227 -1.408,0.1 -1.322,-0.31 A 2.416,2.416 0 0 1 7.509,15.222 L 7.516,15.215 A 2.157,2.157 0 0 1 8.46,15.123 v 0.005 c 0.268,0.05 0.414,0.19 0.369,0.4 a 2.4,2.4 0 0 1 -1.614,1.147 z m 1.456,-1.731 v 0 H 8.672 Z M 21.9,13.77 a 6.742,6.742 0 0 1 -3.735,1.751 1.327,1.327 0 0 0 0.07,0.181 6.163,6.163 0 0 0 2.233,-0.636 A 5.8,5.8 0 0 0 22,13.942 Z M 20.377,12.8 a 2.741,2.741 0 0 0 -1.108,0.2 2.564,2.564 0 0 0 -0.786,0.641 v 0 a 2.054,2.054 0 0 0 -0.328,1.712 12.894,12.894 0 0 0 3.529,-1.778 2.047,2.047 0 0 0 -1.307,-0.775 z m -4.246,-1.285 a 1.562,1.562 0 0 0 -0.485,0.077 2.75,2.75 0 0 0 -1.586,2.364 c -0.026,1.314 0.4,2.3 1.282,2.077 v 0 a 3.039,3.039 0 0 0 1.734,-2.663 c 0.098,-1.026 -0.165,-1.84 -0.945,-1.855 z m -0.761,4.142 c -0.733,0.184 -1.121,-0.607 -1,-1.7 a 2.28,2.28 0 0 1 1.275,-2.085 v 0 a 0.9,0.9 0 0 1 0.364,-0.084 c 0.6,0 0.9,0.765 0.826,1.634 a 2.553,2.553 0 0 1 -1.465,2.235 z m -0.283,-4.49 -0.879,-1.186 a 0.533,0.533 0 0 0 -0.1,-0.009 V 9.539 H 13.874 V 10 a 0.632,0.632 0 0 0 -0.178,0.059 c -0.02,0.037 -0.478,0.539 -0.382,0.9 l 0.526,1.67 c 0.193,-0.881 0.865,-1.524 1.247,-1.462 z m 1.313,0.12 c 0.031,0 -0.178,-0.187 -0.645,-0.183 v 0 a 2.225,2.225 0 0 0 -0.551,0.082 1.33,1.33 0 0 0 -0.785,0.487 3.368,3.368 0 0 0 -0.646,3.05 v 0 a 3.936,3.936 0 0 1 0.828,-2.74 2.207,2.207 0 0 1 1.799,-0.696 z M 10.139,10 v 0.5 a 1.29,1.29 0 0 0 -0.3,0.147 l 0.38,3.6 c 0.412,-0.332 1.425,-0.659 1.806,-0.385 l -0.706,-3.486 a 1.8,1.8 0 0 0 -0.823,-0.05 c -0.035,0.007 -0.057,0.036 -0.092,0.045 V 10 Z M 19.373,8.4 19.369,6.835 2.577,8.69 2.592,10.218 Z M 3.454,10.306 v 0.182 l 0.035,0.03 H 3.702 L 3.731,10.493 V 10.275 L 6.666,9.963 v 0.156 l 0.032,0.036 H 6.906 L 6.932,10.129 V 9.938 l 3.19,-0.339 v 0.172 l 0.028,0.031 h 0.211 l 0.03,-0.024 V 9.566 l 3.476,-0.37 v 0.185 l 0.032,0.031 h 0.209 l 0.03,-0.026 V 9.168 l 3.819,-0.406 v 0.191 l 0.032,0.028 h 0.214 L 18.234,8.955 V 8.729 l 1.339,-0.14 -0.166,-0.098 -16.835,1.813 0.159,0.075 z m 14.5,-1.192 v 0.375 a 2.031,2.031 0 0 0 -0.288,0.086 v 0 a 2.023,2.023 0 0 0 -0.61,0.49 l 1.368,3.386 a 2.33,2.33 0 0 1 1.634,-0.808 L 18.414,9.35 C 18.352,9.356 18.298,9.392 18.237,9.403 V 9.114 Z m 1.72,-2.021 -0.215,-0.258 v 1.564 l 0.215,0.142 z M 6.679,10.338 v 0.293 c -0.027,0 -0.055,-0.005 -0.08,0 a 1.714,1.714 0 0 0 -0.647,0.441 l 0.242,3.3 A 2.162,2.162 0 0 1 7.852,13.76 l -0.61,-3.081 a 0.934,0.934 0 0 0 -0.155,-0.05 v 0 a 0.909,0.909 0 0 0 -0.173,0 v -0.29 z M 5.321,15.512 A 1.954,1.954 0 0 0 4.392,14.655 v 0 A 1.607,1.607 0 0 0 3.573,14.688 2.985,2.985 0 0 0 2.659,15.234 L 2.67,15.241 A 2.769,2.769 0 0 0 2,16.665 3.3,3.3 0 0 1 5.321,15.512 Z M 4.3,14.475 3.853,11.414 A 1.243,1.243 0 0 0 3.731,11.374 V 10.74 H 3.478 v 0.622 a 1.051,1.051 0 0 0 -0.28,0 1.656,1.656 0 0 0 -0.656,0.422 L 2.76,14.92 A 1.769,1.769 0 0 1 4.3,14.475 Z m 0.823,1.093 A 2.594,2.594 0 0 0 4.085,15.648 3.117,3.117 0 0 0 2.1,16.806 C 2,17.179 2.692,17.273 3.6,17.032 A 3.135,3.135 0 0 0 5.437,15.965 C 5.52,15.759 5.4,15.621 5.123,15.568 Z m -1.484,1.347 c -0.759,0.2 -1.334,0.131 -1.244,-0.2 a 2.566,2.566 0 0 1 1.659,-0.966 2.218,2.218 0 0 1 0.869,-0.07 c 0.233,0.043 0.339,0.16 0.271,0.329 a 2.61,2.61 0 0 1 -1.555,0.907 z m 4.297,-2.94 v 0 h 0.001 z"/></svg>
