<?xml version="1.0" encoding="UTF-8"?>
<svg width="24px" fill="#44739e" height="24px" viewBox="0 0 24 24" version="1.1" xmlns="http://www.w3.org/2000/svg" xmlns:xlink="http://www.w3.org/1999/xlink">
            <path d="m 21.921,11.264 v -0.007 c -0.008,-0.051 -0.016,-0.1 -0.025,-0.151 A 4.422,4.422 0 0 0 20.979,9.025 6.563,6.563 0 0 0 19.039,7.54 11.366,11.366 0 0 0 16.679,6.632 17.818,17.818 0 0 0 14.245,6.161 C 13.837,6.11 13.427,6.07 13.017,6.045 V 6.053 Q 12.549,6.019 12.08,6.011 11.611,6.003 11.142,6.029 V 6.021 Q 10.526,6.043 9.912,6.106 A 17.91,17.91 0 0 0 7.466,6.514 11.3,11.3 0 0 0 5.084,7.361 C 4.995,7.405 4.907,7.451 4.82,7.498 4.784,7.517 4.748,7.538 4.713,7.558 4.662,7.587 4.613,7.615 4.559,7.645 4.505,7.675 4.47,7.699 4.426,7.726 4.382,7.753 4.344,7.775 4.304,7.801 4.264,7.827 4.204,7.865 4.16,7.901 4.116,7.937 4.089,7.947 4.055,7.972 4.005,8.006 3.955,8.043 3.908,8.079 L 3.813,8.149 C 3.765,8.187 3.713,8.226 3.67,8.266 3.64,8.29 3.61,8.314 3.581,8.339 3.534,8.379 3.489,8.42 3.444,8.462 L 3.359,8.541 C 3.316,8.582 3.274,8.626 3.232,8.669 3.213,8.689 3.192,8.708 3.174,8.728 V 8.734 L 3.107,8.8 a 4.428,4.428 0 0 0 -0.969,2.058 6.933,6.933 0 0 0 -0.07,2.352 c 0.01,0.075 0.023,0.15 0.035,0.224 v 0 0.022 c 0.009,0.05 0.019,0.1 0.029,0.15 l 0.024,0.123 0.033,0.143 c 0.01,0.043 0.021,0.086 0.032,0.129 0.011,0.043 0.025,0.09 0.037,0.135 0.012,0.045 0.027,0.09 0.041,0.134 0.014,0.044 0.027,0.086 0.042,0.128 0.015,0.042 0.033,0.093 0.05,0.139 0.017,0.046 0.03,0.079 0.046,0.119 0.016,0.04 0.042,0.1 0.063,0.146 0.021,0.046 0.031,0.071 0.048,0.106 0.026,0.054 0.054,0.107 0.082,0.161 0.015,0.028 0.029,0.056 0.045,0.084 0.045,0.081 0.092,0.16 0.143,0.238 a 3.928,3.928 0 0 0 0.8,0.889 5.164,5.164 0 0 0 1.082,0.65 12.445,12.445 0 0 0 5.174,1.006 h 0.367 a 4.12,4.12 0 0 0 0.555,0.029 c 0.288,0 0.577,0.01 0.865,0.017 0.288,0.007 0.6,0 0.9,0 0.3,0 0.6,0 0.9,0 0.072,0 0.145,0 0.217,0 h 0.091 0.151 c 0.044,0 0.089,0 0.133,0 a 12.346,12.346 0 0 0 5.125,-0.873 5.2,5.2 0 0 0 1.1,-0.63 3.928,3.928 0 0 0 0.82,-0.868 c 0.05,-0.072 0.1,-0.146 0.141,-0.22 l 0.039,-0.067 c 0.032,-0.056 0.062,-0.113 0.092,-0.17 l 0.035,-0.067 c 0.037,-0.076 0.073,-0.153 0.106,-0.231 l 0.02,-0.047 c 0.026,-0.064 0.052,-0.129 0.076,-0.194 l 0.031,-0.087 c 0.019,-0.056 0.038,-0.112 0.055,-0.168 0.009,-0.028 0.018,-0.056 0.026,-0.084 0.023,-0.075 0.044,-0.15 0.063,-0.226 v 0 c 0.051,-0.2 0.092,-0.4 0.125,-0.6 a 6.973,6.973 0 0 0 0.014,-2.186 z M 9.315,9.185 V 9.2 A 2.208,2.208 0 0 1 9.23,8.943 C 9.259,9.024 9.3,9.1 9.315,9.185 Z M 7.934,9.259 7.95,9.25 A 0.032,0.032 0 0 1 7.959,9.287 0.2,0.2 0 0 1 7.945,9.321 0.464,0.464 0 0 0 7.84,9.328 C 7.871,9.3 7.9,9.281 7.934,9.259 Z M 8,10.331 a 1.48,1.48 0 0 0 0.951,0.262 3.448,3.448 0 0 0 1.095,-0.339 4.042,4.042 0 0 1 1.261,-0.271 6.356,6.356 0 0 1 1.321,0.091 c 0.223,0.034 0.445,0.07 0.669,0.093 a 1.329,1.329 0 0 0 0.547,-0.083 1.826,1.826 0 0 1 0.52,-0.118 0.336,0.336 0 0 1 0.333,0.149 0.3,0.3 0 0 1 0.022,0.081 0.335,0.335 0 0 0 -0.333,-0.148 1.761,1.761 0 0 0 -0.52,0.118 1.312,1.312 0 0 1 -0.547,0.082 C 13.095,10.226 12.872,10.19 12.65,10.156 A 6.362,6.362 0 0 0 11.329,10.064 4.009,4.009 0 0 0 10.068,10.336 3.473,3.473 0 0 1 8.973,10.675 1.478,1.478 0 0 1 8.022,10.413 0.723,0.723 0 0 1 7.732,9.986 v 0 A 0.763,0.763 0 0 0 8,10.331 Z M 15.1,9.585 C 15.062,9.609 15.024,9.632 14.984,9.653 L 14.989,9.644 15.083,9.497 A 1.757,1.757 0 0 0 15.258,9.179 0.248,0.248 0 0 0 15.273,9.121 0.135,0.135 0 0 1 15.28,9.26 1.757,1.757 0 0 1 15.105,9.578 Z m -0.08,0.914 a 1.5,1.5 0 0 0 0.416,-0.2 0.94,0.94 0 0 0 0.376,-0.358 0.485,0.485 0 0 0 0.054,-0.268 0.438,0.438 0 0 1 -0.032,0.349 0.933,0.933 0 0 1 -0.376,0.358 1.521,1.521 0 0 1 -0.416,0.205 c -0.109,0.028 -0.248,0.026 -0.279,-0.1 a 0.244,0.244 0 0 1 -0.005,-0.039 c 0.048,0.08 0.167,0.078 0.262,0.054 z m -0.5,-1.061 a 0.784,0.784 0 0 0 -0.122,0.317 l -0.013,0.009 a 0.577,0.577 0 0 1 0.113,-0.408 0.911,0.911 0 0 0 0.169,-0.455 0.186,0.186 0 0 0 0,-0.034 0.329,0.329 0 0 1 0.027,0.115 0.92,0.92 0 0 1 -0.173,0.456 z m 1.872,0.6 a 0.459,0.459 0 0 0 -0.083,-0.2 c -0.02,-0.029 -0.071,0.01 -0.057,0.039 a 0.428,0.428 0 0 1 0,0.394 0.9,0.9 0 0 1 -0.3,0.294 4.223,4.223 0 0 1 -0.923,0.432 8.739,8.739 0 0 1 -2.783,0.509 14.378,14.378 0 0 1 -2.612,-0.194 8.493,8.493 0 0 1 -0.959,-0.2 3.051,3.051 0 0 1 -0.9,-0.384 A 0.806,0.806 0 0 1 7.338,9.985 0.842,0.842 0 0 1 7.566,9.577 2.059,2.059 0 0 1 7.717,9.432 1.23,1.23 0 0 0 7.582,9.586 0.507,0.507 0 0 0 7.482,9.759 V 9.772 C 7.475,9.787 7.469,9.801 7.463,9.816 a 0.032,0.032 0 0 0 0,0.028 0.611,0.611 0 0 0 0.07,0.406 0.757,0.757 0 0 0 0.2,0.3 1.692,1.692 0 0 0 0.556,0.333 c 0.213,0.084 0.436,0.153 0.656,0.217 a 1.466,1.466 0 0 0 0.707,0.06 2.913,2.913 0 0 0 0.624,-0.239 2.7,2.7 0 0 1 0.312,-0.124 c 0.121,-0.037 0.246,-0.062 0.37,-0.088 a 6.45,6.45 0 0 1 0.771,-0.112 6.614,6.614 0 0 1 1.527,0.05 c 0.253,0.038 0.5,0.105 0.749,0.166 a 2.811,2.811 0 0 0 0.636,0.107 1.823,1.823 0 0 0 1.026,-0.31 c 0.274,-0.188 0.592,-0.555 0.39,-0.9 A 0.559,0.559 0 0 0 15.773,9.472 C 15.744,9.437 15.712,9.403 15.679,9.372 a 0.553,0.553 0 0 0 -0.07,-0.007 v 0 C 15.587,9.344 15.565,9.323 15.545,9.301 c -0.036,-0.04 0.043,-0.1 0.08,-0.084 l 0.136,0.047 A 0.588,0.588 0 0 1 15.92,9.191 c 0.007,0 0.013,0 0.013,0.009 a 0.02,0.02 0 0 1 -0.014,0.014 0.437,0.437 0 0 0 -0.124,0.062 1.531,1.531 0 0 1 0.661,0.4 0.517,0.517 0 0 1 -0.078,0.727 3.008,3.008 0 0 1 -0.434,0.307 3.051,3.051 0 0 1 -0.586,0.27 v 0 A 3.854,3.854 0 0 0 15.9,10.7 c 0.219,-0.131 0.529,-0.362 0.493,-0.661 z"/>

</svg>