<?xml version="1.0" encoding="UTF-8"?>
<svg width="24px" fill="#44739e" height="24px" viewBox="0 0 24 24" version="1.1" xmlns="http://www.w3.org/2000/svg" xmlns:xlink="http://www.w3.org/1999/xlink">
            <path d="m 11.352,4.672 c 0,-0.039 -0.008,-0.1 -0.008,-0.145 a 8.157,8.157 0 0 1 0.1,-1.168 c 0.03,-0.218 0.057,-0.407 0.061,-0.556 A 1.5,1.5 0 0 0 10.941,2.427 1.013,1.013 0 0 0 10.723,2.402 0.658,0.658 0 0 0 10.286,2.555 C 9.901,2.872 9.727,3.655 9.754,4.949 Z m 3.027,1.502 a 1.023,1.023 0 0 1 0.016,-0.187 c 0,-0.022 0.007,-0.05 0.007,-0.057 A 5.89,5.89 0 0 0 13.617,2.717 1.78,1.78 0 0 0 12.528,2 C 12.464,2.01 12.072,2.071 11.68,2.126 11.339,2.174 11.127,2.2 10.992,2.213 11.07,2.252 11.154,2.295 11.2,2.321 A 2.887,2.887 0 0 1 12.38,4.3 10.167,10.167 0 0 1 12.609,6.445 Z M 18.146,5.822 14.66,4.156 A 0.634,0.634 0 0 0 14.298,4.131 H 14.29 q 0.072,0.33 0.12,0.708 c 0.043,0 0.086,0 0.128,0 0.426,0 0.879,0.129 0.879,0.369 0,0.24 -0.453,0.368 -0.879,0.368 h -0.063 c 0.007,0.116 0.012,0.234 0.016,0.355 A 0.413,0.413 0 0 1 14.483,6 0.788,0.788 0 0 0 14.47,6.18 0.031,0.031 0 0 0 14.443,6.165 L 14.45,6.253 12.521,6.548 V 6.5 a 10.715,10.715 0 0 0 -0.2,-2.059 l -0.883,0.137 c 0,0.063 0.01,0.129 0.01,0.129 V 4.749 L 9.67,5.058 V 5 c 0,-0.052 0,-0.1 0,-0.153 L 6.636,5.318 H 6.618 a 1.876,1.876 0 0 0 -1.738,2 L 5.3,18.334 a 1.093,1.093 0 0 0 0.334,0.744 L 8.27,21.6 a 1.424,1.424 0 0 0 1.37,0.343 l 7.781,-2.189 a 1.791,1.791 0 0 0 1.306,-1.687 L 19.118,7.742 C 19.139,6.753 19.072,6.183 18.146,5.822 Z m -1.119,13.385 -0.34,0.1 1.474,-1.8 -0.007,0.339 z m 1.111,-1.037 a 1.172,1.172 0 0 1 -0.766,0.937 z m -1.798,1.23 -0.265,0.074 2.1,-2.566 -0.006,0.273 z m -0.617,0.174 -0.322,0.09 2.787,-3.408 -0.007,0.335 z m -0.665,0.187 -0.324,0.091 3.468,-4.24 -0.008,0.342 z m -0.673,0.19 -0.332,0.093 4.163,-5.09 -0.008,0.356 z m -0.687,0.193 -0.256,0.072 4.787,-5.853 -0.007,0.289 z m -0.617,0.174 -0.354,0.1 5.516,-6.746 -0.008,0.391 z m -0.714,0.2 -0.307,0.087 6.2,-7.579 -0.007,0.352 z m -0.673,0.19 -0.315,0.088 6.892,-8.428 -0.008,0.366 z M 9.235,19.442 9.274,19.477 A 0.089,0.089 0 0 0 9.402,19.468 L 18.354,8.521 18.346,8.887 A 0.086,0.086 0 0 0 18.288,8.918 L 9.215,19.93 9.18,18.86 9.189,18.87 9.228,18.906 A 0.089,0.089 0 0 0 9.356,18.897 L 18.368,7.876 18.36,8.245 A 0.092,0.092 0 0 0 18.334,8.267 L 9.226,19.321 a 0.088,0.088 0 0 0 0.009,0.121 z m 9,-12.592 a 0.423,0.423 0 0 1 0.147,0.306 0.1,0.1 0 0 0 -0.031,-0.045 v 0 A 0.088,0.088 0 0 0 18.229,7.125 L 9.156,18.138 9.149,17.915 A 0.09,0.09 0 0 0 9.185,17.889 L 18.222,6.838 Z M 17.889,6.756 a 0.426,0.426 0 0 1 0.167,0 L 9.138,17.586 9.132,17.407 17.832,6.766 Z M 9.7,8.205 l -0.823,1 a 1.188,1.188 0 0 1 0.823,-1 z M 8.873,9.53 10.01,8.14 10.31,8.087 8.883,9.82 Z m 0.02,0.6 1.716,-2.1 0.275,-0.048 -1.984,2.41 z m 0.019,0.572 2.266,-2.771 0.389,-0.068 -2.643,3.211 z m 0.023,0.709 2.947,-3.6 0.239,-0.042 -3.179,3.858 z m 0.018,0.553 3.478,-4.253 0.307,-0.054 -3.776,4.586 z m 0.021,0.617 4.069,-4.977 0.3,-0.053 -4.36,5.292 z m 0.019,0.6 L 13.643,7.5 13.916,7.452 9,13.419 Z m 0.019,0.572 5.2,-6.357 L 14.47,7.35 9.02,13.965 Z M 9.03,14.307 14.761,7.299 15.086,7.242 9.039,14.587 Z M 9.051,14.923 15.373,7.2 15.69,7.144 9.059,15.19 Z m 0.019,0.6 6.9,-8.439 0.423,-0.075 -7.311,8.885 z m 0.024,0.7 L 16.672,6.97 16.948,6.921 9.1,16.446 Z m 0.027,0.825 -0.009,-0.271 8.11,-9.918 0.343,-0.06 z m 0.049,1.274 a 0.089,0.089 0 0 0 0.128,-0.01 L 18.366,7.237 a 0.073,0.073 0 0 0 0.016,-0.03 l -0.01,0.458 a 0.086,0.086 0 0 0 -0.084,0.03 L 9.181,18.749 v 0.006 L 9.167,18.328 Z m 0.252,2.85 C 9.309,21.09 9.246,20.85 9.233,20.459 l -0.012,-0.351 0.007,0.007 a 0.089,0.089 0 0 0 0.128,-0.01 l 8.985,-10.973 -0.007,0.3 -9.04,10.977 a 0.087,0.087 0 0 0 0.009,0.121 l 0.039,0.036 a 0.087,0.087 0 0 0 0.127,-0.01 L 18.328,9.723 18.32,10.094 9.352,20.979 a 0.09,0.09 0 0 0 0.008,0.122 l 0.039,0.035 a 0.089,0.089 0 0 0 0.128,-0.009 l 8.787,-10.746 -0.008,0.357 -8.651,10.5 A 0.386,0.386 0 0 1 9.422,21.186 Z m 0.711,-0.036 v 0 c -0.049,0.014 -0.1,0.027 -0.141,0.038 l 8.308,-10.148 -0.01,0.463 -7.9,9.588 z m 8.151,-9.371 -0.006,0.3 -7.271,8.835 -0.239,0.068 z M 5.118,10.561 5.1,10.548 A 0.048,0.048 0 0 1 5.076,10.508 L 4.976,7.354 A 1.838,1.838 0 0 1 6.486,5.487 L 9.212,5.02 a 0.224,0.224 0 0 1 0.115,0 C 9.373,5.039 9.354,5.094 9.305,5.102 L 6.574,5.57 A 1.757,1.757 0 0 0 5.113,7.351 l 0.08,3.167 A 0.049,0.049 0 0 1 5.118,10.561 Z M 5.362,10.747 5.341,10.734 A 0.05,0.05 0 0 1 5.317,10.693 L 5.217,7.539 A 1.84,1.84 0 0 1 6.731,5.672 L 9.456,5.206 a 0.214,0.214 0 0 1 0.115,0 C 9.617,5.225 9.598,5.28 9.549,5.289 L 6.818,5.756 A 1.758,1.758 0 0 0 5.357,7.537 l 0.08,3.166 A 0.049,0.049 0 0 1 5.362,10.747 Z M 5.642,10.979 5.62,10.966 A 0.054,0.054 0 0 1 5.596,10.924 L 5.5,7.713 a 1.872,1.872 0 0 1 1.541,-1.9 L 9.816,5.338 a 0.212,0.212 0 0 1 0.117,0 C 9.98,5.357 9.961,5.413 9.911,5.421 L 7.125,5.9 A 1.79,1.79 0 0 0 5.637,7.71 l 0.082,3.225 A 0.05,0.05 0 0 1 5.642,10.979 Z M 5.89,11.168 5.869,11.154 A 0.047,0.047 0 0 1 5.845,11.113 L 5.743,7.9 A 1.871,1.871 0 0 1 7.284,6 l 2.775,-0.476 a 0.232,0.232 0 0 1 0.117,0 C 10.223,5.543 10.204,5.6 10.154,5.608 L 7.373,6.084 A 1.791,1.791 0 0 0 5.885,7.9 l 0.082,3.224 A 0.051,0.051 0 0 1 5.89,11.168 Z m 0.329,0.2 L 6.2,11.358 A 0.052,0.052 0 0 1 6.175,11.316 L 6.075,8.07 A 1.89,1.89 0 0 1 7.628,6.149 l 2.805,-0.481 a 0.235,0.235 0 0 1 0.118,0 c 0.048,0.02 0.029,0.077 -0.022,0.085 L 7.718,6.234 a 1.81,1.81 0 0 0 -1.5,1.83 L 6.3,11.327 A 0.051,0.051 0 0 1 6.219,11.371 Z M 6.47,11.559 6.449,11.546 A 0.049,0.049 0 0 1 6.425,11.504 L 6.325,8.258 A 1.89,1.89 0 0 1 7.879,6.34 l 2.805,-0.481 a 0.224,0.224 0 0 1 0.118,0 c 0.048,0.02 0.029,0.076 -0.022,0.085 L 7.969,6.425 a 1.81,1.81 0 0 0 -1.5,1.83 l 0.083,3.258 A 0.051,0.051 0 0 1 6.47,11.562 Z M 6.762,11.724 6.74,11.711 A 0.054,0.054 0 0 1 6.716,11.669 L 6.616,8.423 A 1.89,1.89 0 0 1 8.171,6.505 l 2.805,-0.481 a 0.235,0.235 0 0 1 0.118,0 c 0.048,0.02 0.028,0.077 -0.022,0.085 L 8.261,6.59 a 1.81,1.81 0 0 0 -1.5,1.83 l 0.083,3.259 A 0.051,0.051 0 0 1 6.762,11.727 Z M 7.085,11.915 7.064,11.902 A 0.052,0.052 0 0 1 7.039,11.86 L 6.939,8.614 A 1.89,1.89 0 0 1 8.494,6.7 L 11.3,6.215 a 0.225,0.225 0 0 1 0.118,0 c 0.048,0.02 0.029,0.076 -0.022,0.085 L 8.585,6.781 a 1.81,1.81 0 0 0 -1.5,1.83 l 0.083,3.258 A 0.051,0.051 0 0 1 7.085,11.918 Z M 7.424,12.064 7.4,12.053 A 0.049,0.049 0 0 1 7.376,12.011 L 7.276,8.765 A 1.89,1.89 0 0 1 8.833,6.844 l 2.805,-0.48 a 0.214,0.214 0 0 1 0.118,0 c 0.048,0.019 0.029,0.076 -0.022,0.084 L 8.923,6.929 a 1.81,1.81 0 0 0 -1.5,1.83 L 7.5,12.022 A 0.051,0.051 0 0 1 7.424,12.067 Z M 7.67,8.954 7.753,12.213 A 0.05,0.05 0 0 1 7.676,12.257 L 7.654,12.244 A 0.049,0.049 0 0 1 7.63,12.2 L 7.53,8.954 A 1.891,1.891 0 0 1 9.084,7.035 l 2.805,-0.481 a 0.235,0.235 0 0 1 0.118,0 c 0.048,0.02 0.029,0.077 -0.022,0.085 L 9.174,7.12 A 1.811,1.811 0 0 0 7.67,8.954 Z m 1.43,12.638 0.017,0.013 c 0.021,0.015 0.042,0.029 0.064,0.042 L 9.102,21.671 Z M 15.324,5.205 c 0,-0.128 -0.336,-0.27 -0.786,-0.27 -0.04,0 -0.078,0 -0.116,0 l 0.008,0.079 h 0.091 c 0.256,0 0.529,0.073 0.529,0.208 0,0.135 -0.273,0.208 -0.529,0.208 h -0.055 v 0.044 h 0.069 c 0.453,0 0.789,-0.142 0.789,-0.269 z m -0.652,0.054 h 0.027 L 14.682,5.252 14.697,5.243 A 0.232,0.232 0 0 0 14.573,5.209 l -0.128,-0.05 v 0.02 l 0.134,0.053 -0.1,-0.009 -0.031,-0.011 0.006,0.059 a 0.477,0.477 0 0 0 0.083,0.007 0.381,0.381 0 0 0 0.135,-0.019 z M 15,5.222 c 0,-0.073 -0.2,-0.155 -0.475,-0.155 -0.029,0 -0.058,0 -0.085,0 l 0.008,0.087 a 0.484,0.484 0 0 1 0.094,-0.008 c 0.109,0 0.218,0.029 0.218,0.1 0,0.071 -0.109,0.1 -0.218,0.1 a 0.5,0.5 0 0 1 -0.078,0 v 0.04 h 0.058 C 14.8,5.377 15,5.3 15,5.222 Z"/>

</svg>