<svg xmlns="http://www.w3.org/2000/svg" viewBox="0 0 24 24"><path fill="#44739e" d="M2.611 10.227a.147.147 0 1 1-.13-.13.146.146 0 0 1 .13.13m0-.647a.147.147 0 0 1-.292 0 .147.147 0 0 1 .292 0m3.557.828H3.307v-.174H3.12v-.585h.195v-.143h2.848ZM2 9.114v1.802l.02 2.232a3 3 0 0 0 .07.682h.249q.071-1.455.04-2.917v-.029h19.239q-.032 1.476.04 2.949h.252a3 3 0 0 0 .07-.682l.02-2.376V9.118Zm4.35 1.48H2.962V9.349H6.35Zm15.17 4.292h-.263v-.127H2.738v.127h-.263c-.156 0-.156-.702.009-.702h.254v.127h18.519v-.127h.254c.165 0 .165.702.009.702m-18.772-3.47h18.47v2.527H2.748Z"/></svg>