<?xml version="1.0" encoding="UTF-8"?>
<svg width="24px" fill="#44739e" height="24px" viewBox="0 0 24 24" version="1.1" xmlns="http://www.w3.org/2000/svg" xmlns:xlink="http://www.w3.org/1999/xlink">
            <path d="M 9.6482719,2.0196893 9.656,2 7.326,2.614 V 20.74 l 4.151,0.685 3.45,0.575 1.7,-1.388 0.047,-8.941 -0.0221,-9.2781165 z M 9.643,3.188 V 3.123 l 1.133,0.09 V 6.255 L 9.643,6.217 Z M 7.809,2.92 H 7.92 l -0.007,4.007 2.863,0.189 v 0.1 L 7.77,7.016 Z m 2.966,18.028 -3.006,-0.5 0.039,-4.094 h 0.111 l -0.007,4.007 2.863,0.466 z m 0,-1.664 -1.179,-0.2 0.046,-2.493 v -0.1 l 1.133,0.151 z m 0,-3 -3.005,-0.356 0.038,-4.054 0.112,0.01 -0.007,3.953 2.863,0.343 z m 0,-1.054 v 0 l -1.133,-0.1 v -3.091 l 1.133,0.1 z m 0,-3.451 L 7.77,11.543 V 11.406 L 7.808,7.444 H 7.92 l -0.007,3.925 v 0.045 l 2.863,0.235 z m 0,-1.3 L 9.6,10.37 9.646,7.679 V 7.444 l 1.133,0.053 z m 2.452,-7 1.34,0.108 v 3.06 L 13.228,6.6 Z m -0.007,8.537 1.344,0.111 v 0.127 l -1.345,-0.105 z m 0,0.494 1.347,0.122 v 3.126 L 13.2,15.63 Z m -0.02,4.049 1.37,0.166 0.01,0.1 -1.38,-0.161 z m 0,0.446 1.371,0.185 v 2.7 l -1.385,-0.241 z m 1.055,4.514 -0.01672,-0.0053 -2.332094,-0.424063 -0.0092,-0.123313 L 14.579,21.45 14.591,21.575 Z M 13.23,10.819 V 7.846 l 1.34,0.064 0.026,3.033 z M 14.588,7.63 13.228,7.54 v -0.1 l 1.366,0.091 z"/>

</svg>
