<svg xmlns="http://www.w3.org/2000/svg" viewBox="0 0 24 24"><path fill="#44739e" d="M12.209 19.056c.115-.031.155-.042.201-.1v-.424a.7.7 0 0 1-.382.089.63.63 0 0 1-.381-.082v.449a.3.3 0 0 0 .17.082.76.76 0 0 0 .392-.014m-.471-.376a1 1 0 0 0 .292.031.9.9 0 0 0 .293-.041v.248c-.022.02-.05.028-.138.052a.7.7 0 0 1-.343.016.4.4 0 0 1-.101-.037Zm.764-.298-.042.023h.042Zm-.804.083-.138-.089v.12l.147-.025Zm1.523-1.061.149-12.646-.134-.086c-.066-.007-.935 0-.935 0 .051 3.892.026 11.69 0 12.57l-.017.248c-.073.303-.112.212-.152.124a6 6 0 0 0-.14-.264 4.9 4.9 0 0 1-.209-1.839C11.754 14.058 11.814 2 11.814 2l-1.039.027.085 14.535s.194 1.591.855 1.886a.4.4 0 0 0 .088.006l1.109-.194a2 2 0 0 0 .309-.856m-1.089.47a.19.19 0 0 1-.165.148c-.175.02-.333-.255-.413-.396a2.7 2.7 0 0 1-.33-1.254c.054-2.331-.016-14.245-.016-14.245h.363l.016 14.245a2.32 2.32 0 0 0 .545 1.502v.047-.018Zm4.311 1.293-7.431 1.282-1.485-.957-.099 1.386L9.012 22l7.56-1.387Zm-4.413-.636a.6.6 0 0 0 .342-.079l.09-.049a7 7 0 0 1-.655.049l-.101.017a.55.55 0 0 0 .324.062m.472-.131v.582l-.019.024a.4.4 0 0 1-.251.135 1 1 0 0 1-.259.038.7.7 0 0 1-.179-.023.4.4 0 0 1-.21-.108l-.024-.025v-.527l-3.901.682 1.41.899 7.357-1.266-1.59-.887-1.927.336-.058.064a1.1 1.1 0 0 1-.349.076"/></svg>