<?xml version="1.0" encoding="UTF-8"?>
<svg width="24px" fill="#44739e" height="24px" viewBox="0 0 24 24" version="1.1" xmlns="http://www.w3.org/2000/svg" xmlns:svg="http://www.w3.org/2000/svg">  
  <path d="M 2.4,3.357 C 2.4264971,3.603548 2.019452,3.1965029 2.266,3.223 2.336624,3.2305901 2.3924099,3.286376 2.4,3.357 Z m 0,-0.664 c -0.020611,0.1782008 -0.2793889,0.1782008 -0.3,0 0.020611,-0.1782008 0.2793889,-0.1782008 0.3,0 z M 6.049,3.542 H 3.114 V 3.364 H 2.922 v -0.6 h 0.2 V 2.617 H 6.044 Z M 1.773,2.215 v 1.848 l 0.021,2.29 c -0.00208,0.2352311 0.021732,0.4699769 0.071,0.7 H 2.121 C 2.1696667,6.0576667 2.1833333,5.06 2.162,4.06 V 4.031 H 21.9 c -0.022,1.0093333 -0.0083,2.0176667 0.041,3.025 H 22.2 c 0.04927,-0.2300231 0.07308,-0.4647689 0.071,-0.7 l 0.021,-2.437 v -1.7 z M 6.236,3.733 H 2.76 V 2.456 H 6.236 Z M 21.77,14.335663 H 21.5 v -0.13 h -19 v 0.13 H 2.23 c -0.16,0 -0.16,-0.72 0.01,-0.72 H 2.5 v 0.13 h 19 v -0.13 h 0.26 c 0.17,0 0.17,0.72 0.01,0.72 z M 2.54,4.576 h 18.95 l 0,8.791663 H 2.54 Z"/>
</svg>
