<?xml version="1.0" encoding="UTF-8"?>
<svg
   width="24"
   height="24"
   viewBox="0 0 24 24"
   version="1.1"
   xmlns="http://www.w3.org/2000/svg"
   xmlns:svg="http://www.w3.org/2000/svg">
  <path style="fill:#44739e" d="M12.04,13.21c4.28,0,7.88-.85,8.43-1.92v-6.03c-1.06.97-4.42,1.67-8.46,1.67s-7.4-.71-8.44-1.68l.03,6.05c.55,1.08,4.16,1.91,8.44,1.91ZM12.04,13.44c-4.28,0-7.92-.8-8.46-1.8v.37c0,1.28,3.8,2.28,8.46,2.28s8.36-.99,8.44-2.27v-.38c-.55,1.01-4.16,1.8-8.44,1.8ZM12,6.6c4.19,0,7.42-.67,8.36-1.58.06-.06.08-.14.1-.22l.02-.68h0c-.03-1.13-3.85-2.12-8.46-2.12-3.96,0-8.42.83-8.46,2.08l-.02.69c0,.07.02.11.05.16.78.96,4.23,1.67,8.42,1.67h-.01ZM12.59,15.32c.45-.06.8-.44.8-.91-.98.12-1.91.12-2.78,0v.04c0,.48.39.87.87.87v5.12h-6.6v1.55h14.32v-1.55h-6.61s0-5.12,0-5.12Z"/>
</svg>