<?xml version="1.0" encoding="UTF-8"?>
<svg width="24px" fill="#44739e" height="24px" viewBox="0 0 24 24" version="1.1" xmlns="http://www.w3.org/2000/svg" xmlns:xlink="http://www.w3.org/1999/xlink">
            <path d="m 1.966,2 v 1.8 l 0.02,2.232 a 3.076,3.076 0 0 0 0.07,0.683 H 2.305 Q 2.375,5.258 2.345,3.797 V 3.77 h 19.239 q -0.033,1.476 0.04,2.949 h 0.252 A 3.135,3.135 0 0 0 21.945,6.036 L 21.966,3.661 V 2 Z m 0.48,1.275 a 0.147,0.147 0 1 1 -0.031,-0.292 0.081,0.081 0 0 1 0.031,0 0.147,0.147 0 0 1 0,0.292 z M 2.414,2.6 A 0.146,0.146 0 0 1 2.285,2.471 0.147,0.147 0 0 1 2.577,2.471 0.147,0.147 0 0 1 2.414,2.6 Z m 3.9,0.885 H 2.928 V 2.235 H 6.316 Z M 3.273,3.293 H 6.134 L 6.129,2.392 H 3.281 V 2.535 H 3.086 V 3.12 H 3.273 Z M 2.7130001,4.3010001 H 21.184001 V 12.57 H 2.7130001 Z M 21.479,12.82 h -0.253 v 0.126 H 2.706 V 12.82 H 2.453 c -0.166,0 -0.166,0.7 -0.01,0.7 H 2.706 V 13.4 h 18.52 v 0.126 h 0.263 c 0.156,-0.005 0.156,-0.706 -0.01,-0.706 z"/>

</svg>