<svg xmlns="http://www.w3.org/2000/svg" viewBox="0 0 24 24"><path fill="#44739e" d="M13.112 6.87a1.5 1.5 0 0 0 .39-1c0-.048 0-.1-.006-.144a1.5 1.5 0 0 0-.576.162 1.63 1.63 0 0 0-.92 1.39 1 1 0 0 0 .009.135 1.33 1.33 0 0 0 1.103-.543m-3.335 5.078a3.7 3.7 0 0 0 .517.619.9.9 0 0 0 .648.288 1.8 1.8 0 0 0 .561-.147 1.7 1.7 0 0 1 .648-.138 1.7 1.7 0 0 1 .631.138 1.6 1.6 0 0 0 .585.141.97.97 0 0 0 .633-.279 3.5 3.5 0 0 0 .493-.6 4 4 0 0 0 .384-.691q.068-.157.123-.327a1.7 1.7 0 0 1-.492-.324 1.556 1.556 0 0 1 .3-2.5 1.72 1.72 0 0 0-1.351-.712 2 2 0 0 0-.81.144 3.3 3.3 0 0 1-.6.186 2.2 2.2 0 0 1-.537-.159 2 2 0 0 0-.678-.159 1.75 1.75 0 0 0-.877.249 1.85 1.85 0 0 0-.648.658A2.35 2.35 0 0 0 9 9.574a4 4 0 0 0 .231 1.288 4.3 4.3 0 0 0 .546 1.086m11.712-8.505H2.51a.51.51 0 0 0-.51.511v12.867a.51.51 0 0 0 .51.511h7.781l-.113 1.69a.82.82 0 0 1-.262.554l-.791.7a.16.16 0 0 0 .105.281h5.54a.16.16 0 0 0 .1-.282l-.8-.7a.8.8 0 0 1-.269-.567l-.1-1.68h7.783a.51.51 0 0 0 .516-.507V3.954a.51.51 0 0 0-.511-.511M12 3.576a.186.186 0 0 1 .019.372h-.038A.186.186 0 0 1 12 3.576m9.36 10.925H2.64V4.083h18.72Z"/></svg>