<svg xmlns="http://www.w3.org/2000/svg" viewBox="0 0 24 24"><path fill="#44739e" d="M11.987 2.224c-2.007 0-4.337.91-4.337 3.246v.126c1.118.497 2.445 1.385 3.676 2.475 1.31 1.16 2.365 2.402 3.044 3.573 1.167-2.086 1.946-4.565 1.956-6.144v-.03c0-2.336-2.331-3.246-4.339-3.246m6.261 3.741a3 3 0 0 0-.993.154l-.12.04c-.127 1.217-.562 2.754-1.219 4.26-.698 1.605-1.554 2.993-2.458 4.001 2.345.464 4.944.44 6.449-.04l.03-.009c2.221-.721 2.366-3.22 1.745-5.129-.523-1.61-1.733-3.24-3.433-3.277m-12.498.034c-1.7.036-2.91 1.666-3.434 3.277-.62 1.909-.476 4.407 1.747 5.129l.12.04c.818-.911 2.073-1.898 3.49-2.733 1.508-.888 3.016-1.507 4.339-1.791-1.623-1.754-3.74-3.261-5.24-3.759l-.028-.01a3 3 0 0 0-.996-.153m3.894 5.632c-2.17 1.003-4.258 2.551-5.194 3.821l-.018.026c-1.373 1.89-.022 3.995 1.602 5.175 1.623 1.18 4.043 1.815 5.417-.076l.074-.102c-.613-1.06-1.164-2.559-1.519-4.164-.378-1.708-.501-3.333-.362-4.681m.893 2.781c.283 2.373 1.11 4.837 2.03 6.12l.018.025c1.373 1.89 3.794 1.256 5.418.076s2.975-3.286 1.602-5.176l-.075-.102c-1.197.256-2.793.316-4.43.158-1.741-.168-3.325-.553-4.563-1.101"/></svg>