<svg xmlns="http://www.w3.org/2000/svg" viewBox="0 0 24 24"><path fill="#44739e" fill-rule="evenodd" d="m16.561 15.619 4.43-1.013a.52.52 0 0 0 .188-.08.63.63 0 0 0 .141-.15.43.43 0 0 0 .066-.197.434.434 0 0 0-.019-.206l-1.884-8.142a.52.52 0 0 0-.239-.319.536.536 0 0 0-.398-.061l-4.43 1.013a.519.519 0 0 0-.375.633l1.88 8.142a.52.52 0 0 0 .239.319.54.54 0 0 0 .4.063zm-1.523 5.029 5.372-4.955c.202-.202.15-.328-.127-.23l-3.694.834a.932.932 0 0 0-.661.609l-1.12 3.591c-.089.282.014.357.221.155zm-9.802-1.617 8.044 2.475c.136.023.281 0 .398-.066a.58.58 0 0 0 .262-.309l1.35-4.298a.62.62 0 0 0 .019-.206c-.009-.07-.028-.136-.061-.197s-.08-.117-.136-.159a.57.57 0 0 0-.183-.094l-8.044-2.452a.54.54 0 0 0-.666.366l-1.397 4.341a.548.548 0 0 0 .042.403.524.524 0 0 0 .314.256zm-2.597-8.798 1.631 7.111c.052.277.183.277.253 0l1.12-3.591c.038-.155.038-.314.005-.464a1.07 1.07 0 0 0-.206-.417l-2.573-2.766c-.192-.206-.324-.145-.244.132zM8.93 2.63 2.766 8.311a.516.516 0 0 0-.023.726l3.08 3.319a.524.524 0 0 0 .741.023l6.159-5.691c.098-.094.159-.22.164-.356s-.047-.267-.136-.37L9.676 2.643a.47.47 0 0 0-.169-.117c-.061-.028-.131-.042-.202-.047s-.136.009-.202.038a.465.465 0 0 0-.174.108zm5.953 12.857c.281.075.459-.075.384-.366l-1.781-7.683c-.075-.277-.305-.356-.511-.155l-5.803 5.378c-.206.202-.155.427.127.506zm3.028-10.715L10.889 2.63c-.281-.075-.328.023-.103.253l2.573 2.756a.974.974 0 0 0 .408.23c.15.042.314.047.469.019l3.694-.834c.282-.061.282-.187.001-.262z"/></svg>