<svg xmlns="http://www.w3.org/2000/svg" viewBox="0 0 24 24"><path fill="#44739e" fill-rule="evenodd" d="m16.795 15.806 4.654-1.064a.5.5 0 0 0 .197-.084.6.6 0 0 0 .148-.158.4.4 0 0 0 .07-.207.4.4 0 0 0-.02-.216l-1.98-8.554a.55.55 0 0 0-.251-.335.57.57 0 0 0-.418-.065l-4.653 1.065a.546.546 0 0 0-.394.665l1.974 8.554a.55.55 0 0 0 .251.335.57.57 0 0 0 .42.066Zm-1.6 5.283 5.643-5.205c.213-.212.158-.345-.133-.242l-3.881.876a.98.98 0 0 0-.695.64l-1.175 3.773c-.094.296.015.375.232.163ZM4.897 19.391l8.451 2.6a.65.65 0 0 0 .419-.069.6.6 0 0 0 .275-.325l1.417-4.516a.6.6 0 0 0 .02-.216q-.012-.11-.064-.207a.4.4 0 0 0-.142-.167.6.6 0 0 0-.192-.099L6.63 13.816a.567.567 0 0 0-.7.385l-1.468 4.56a.58.58 0 0 0 .045.424.55.55 0 0 0 .329.269Zm-2.728-9.244 1.714 7.471c.054.291.192.291.265 0l1.177-3.772c.04-.163.04-.33.005-.488a1.2 1.2 0 0 0-.216-.438l-2.703-2.906c-.202-.216-.341-.152-.257.139Zm6.609-7.986L2.302 8.128a.54.54 0 0 0-.024.763l3.236 3.487a.55.55 0 0 0 .779.024l6.47-5.979c.103-.099.167-.231.173-.374s-.05-.28-.143-.389L9.562 2.174a.5.5 0 0 0-.177-.123q-.099-.042-.213-.049c-.114-.007-.143.01-.212.04a.5.5 0 0 0-.183.113Zm6.255 13.506c.295.079.481-.078.402-.384l-1.87-8.072c-.079-.291-.321-.374-.537-.163l-6.097 5.65c-.216.213-.162.449.134.532Zm3.18-11.257-7.377-2.249c-.295-.079-.344.024-.108.265l2.703 2.895a1.05 1.05 0 0 0 .429.242c.158.044.33.049.493.02l3.88-.877c.296-.064.296-.196.001-.275Z"/></svg>