<svg xmlns="http://www.w3.org/2000/svg" viewBox="0 0 24 24"><path fill="#44739e" d="M8.007 14.614V6.292c-1.188-.801-2.656-.801-3.966 1.503l-.045 6.819c-.148 1.987 3.504 2.93 4.011 0m11.907-3.754c-.463-1.957-1.314-1.984-3.381-3.643 0 0 1.831 3.128-.602 4.543.044-.027-4.543 3.355-4.543 3.355L6.702 18.53a1.994 1.994 0 0 0 2.229 3.261l9.14-6.389a4.4 4.4 0 0 0 1.489-1.704 4.35 4.35 0 0 0 .354-2.838M8.007 6.052c-.039-.036 4.605 3.293 4.605 3.293l3.047 2.243c1.488-.592 1.634-2.435.566-4.611L9.714 2.36C8.705 1.838 3.673.929 4.005 7.603c.001 0 1.32-3.285 4.002-1.551"/></svg>