<?xml version="1.0" encoding="UTF-8"?>
<svg width="24px" fill="#44739e" height="24px" viewBox="0 0 24 24" version="1.1" xmlns="http://www.w3.org/2000/svg" xmlns:xlink="http://www.w3.org/1999/xlink">
            <path d="M 18.57,2 H 5.43 A 3.429,3.429 0 0 0 2,5.43 V 18.57 A 3.429,3.429 0 0 0 5.43,22 H 6.8 a 0.971,0.971 0 0 1 0.132,-0.274 c 2.338,-3.17 6.779,-3.74 9.277,-3.608 a 1.826,1.826 0 0 0 1.183,-0.263 c 0.3,-0.274 0.307,-0.468 0.366,-0.965 h 1.087 a 2.876,2.876 0 0 1 -0.576,1.973 c -1,1 -2.921,0.285 -4.31,1.11 -0.727,0.432 -0.757,1.218 -1.044,2.027 H 18.57 A 3.429,3.429 0 0 0 22,18.57 V 5.43 A 3.429,3.429 0 0 0 18.57,2 Z M 16.718,17.548 H 13.974 A 0.3,0.3 0 0 1 13.68,17.259 l -0.05,-3.25 A 0.294,0.294 0 0 0 13.336,13.72 h -2.6 a 0.293,0.293 0 0 0 -0.293,0.295 l 0.012,3.238 a 0.293,0.293 0 0 1 -0.294,0.295 h -2.7 A 0.294,0.294 0 0 1 7.167,17.254 v -5.291 a 1.041,1.041 0 0 1 0.4,-0.82 l 3.794,-2.976 a 1.043,1.043 0 0 1 1.281,0 l 3.915,3.028 a 1.042,1.042 0 0 1 0.4,0.814 l 0.051,5.246 a 0.294,0.294 0 0 1 -0.29,0.293 z m 2.012,-6.51 -0.049,0.058 a 0.486,0.486 0 0 1 -0.667,0.067 L 12.3,6.718 a 0.488,0.488 0 0 0 -0.593,0 l -5.773,4.4 A 0.486,0.486 0 0 1 5.34,10.349 L 11.7,5.364 a 0.486,0.486 0 0 1 0.6,0 l 2.3,1.8 V 6.798 a 0.432,0.432 0 0 1 0.423,-0.515 h 1.5 a 0.431,0.431 0 0 1 0.431,0.431 v 2.293 l 1.7,1.333 a 0.485,0.485 0 0 1 0.076,0.698 z"/>

</svg>