<svg xmlns="http://www.w3.org/2000/svg" viewBox="0 0 24 24"><path fill="#44739e" d="M13.051 19.267a14.5 14.5 0 0 1-4.64-1.013c-1.022-.328-1.483-.386-1.8-1.372a5.7 5.7 0 0 1-.216-1.894 19 19 0 0 1 .208-2.548 11 11 0 0 1 .282-1.445 15 15 0 0 1 .518-1.707c.112-.314.258-.613.386-.922.184-.475.393-.976.612-1.436a17 17 0 0 1 1.733-3.022c.215-.3.55-.725.778-1.031.076-.1-.036-.041-.13-.067a6 6 0 0 0-1.012-.041 4.5 4.5 0 0 0-2.048 1.223 6.5 6.5 0 0 0-.975 1.029c-.2.242-.376.424-.575.711a16.7 16.7 0 0 0-1.522 2.65 10 10 0 0 0-.82 2.221 10.4 10.4 0 0 0-.344 1.561 12 12 0 0 0-.171 2.484 4.54 4.54 0 0 0 .547 2.173 2.35 2.35 0 0 0 1.359.975 20 20 0 0 0 3.186.955 21 21 0 0 0 2.424.4c.414-.007-.006.3.364.336 0 .1 0 .16.138.16.48.063-.225.08-.1.213.02.094.238.077.312.132-.064.05-.332.055-.3.156 0 .064.012.071.173.1.193.036.19.061-.015.1-.186.013-.164.159-.037.182.456.084.062.07-.053.184-.07.073.057.11.194.151.24.056-.252.071-.2.205-.036.127.307.182.482.193.1 0 .1 0 .095.31a4 4 0 0 0 .007.42c.355-.035.479.166.446-.4.023-.479-.071-.309.221-.389.264-.038.3-.078.271-.232-.015-.018-.027-.023-.124-.05-.152-.042-.14-.037-.125-.054.035-.054.224-.027.242-.11q.07-.14-.139-.145c-.139-.004-.144-.058-.012-.082s.155-.035.176-.084c.038-.092.007-.117-.171-.136-.228 0 .023-.106.08-.112.119-.027.183-.167-.034-.175a.5.5 0 0 1-.147-.035 1 1 0 0 1 .214-.1c.262-.113-.121-.2-.216-.2-.027-.027.107-.066.181-.078.194-.024.047-.151.222-.178.1 0 .171-.1.142-.153Zm6.81-7.367c-.508.568-.388 2.001-.454 2.613a4.3 4.3 0 0 1-.391 1.256 3.9 3.9 0 0 1-.985 1.35 5.5 5.5 0 0 1-2.337.983 5.07 5.07 0 0 1-4.112-1.869 7.3 7.3 0 0 1-1.045-1.889 8 8 0 0 1 .111-5.381 3 3 0 0 1 .288-.529 5.9 5.9 0 0 1 1.114-1.341 6.1 6.1 0 0 1 4.483-1.056c.7-.017 1 .337.358-.382a22 22 0 0 1-.593-.691 58 58 0 0 1-1.03-1.582 6 6 0 0 1-.552-1.026c-.034-.206-.787-.362-1.2-.348a1.67 1.67 0 0 1 .2 1.5 5.35 5.35 0 0 1-1.801 2.283 8.4 8.4 0 0 0-1.367 1.3 10 10 0 0 0-.817 1.481 8.03 8.03 0 0 0-.6 4.052 9.3 9.3 0 0 0 .573 2.314c.472 1.119 1.222 2.133 1.641 3.221.372.93-.07.767.972.881 2.214.257 3.045.253 4.888-.637.311-.18 1.014-.442 1.183-.756.081-.221.178-.475.268-.685.937-2.014 1.351-2.721 1.205-5.062m.646.541c-.028-.118-.193-1.486-.292-1.233a1.02 1.02 0 0 0-.181.758 10.8 10.8 0 0 1-.075 2.212 14 14 0 0 1-1.062 2.679c-.067.132-.131.3-.186.426-.015.057-.124.247-.1.276s0 .029.25-.153l.068-.049c.2-.148.363-.257.5-.354a2.66 2.66 0 0 0 1.057-1.072 7.9 7.9 0 0 0 .021-3.49M15.89 6.193c-1.823-.009-3.601.423-4.562 2.023a5.66 5.66 0 0 0-.94 2.501 8 8 0 0 0 .543 4.031 5 5 0 0 0 .751 1.26 4.4 4.4 0 0 0 1.724 1.4 3.69 3.69 0 0 0 3.317.23 3.82 3.82 0 0 0 2.409-2.85c.174-.716.081-1.529.242-2.272a2 2 0 0 1 .244-.6 6.8 6.8 0 0 0 .824-2.022 2.67 2.67 0 0 0-.213-1.4 2.8 2.8 0 0 0-.9-1.242 4 4 0 0 0-.693-.484 6.3 6.3 0 0 0-2.746-.575M8.024 8.265c-.172.443-.37.922-.54 1.359a13 13 0 0 0-.435 1.571 15 15 0 0 0-.405 2.449 10.8 10.8 0 0 0 .014 2.595 2.5 2.5 0 0 0 .216.777 1.5 1.5 0 0 0 .506.648 2.6 2.6 0 0 0 .623.251 24.5 24.5 0 0 0 3.365.987 9.1 9.1 0 0 0-1.2-2.639 8.4 8.4 0 0 1-.888-2.055 20 20 0 0 1-.371-1.772 8.2 8.2 0 0 1 .437-3.394 6.6 6.6 0 0 1 .487-1.1 7 7 0 0 1 .756-1.189 6.5 6.5 0 0 1 1.1-1 11 11 0 0 0 1.255-1.31 2.1 2.1 0 0 0 .553-2.101 1.5 1.5 0 0 0-.137-.227c-.018-.043-.093-.139-.157-.109-1.741.18-2.037.766-2.959 2.1a18.6 18.6 0 0 0-2.22 4.159m7.552-4.763a20 20 0 0 0 1.381 1.966c.135.169.287.347.438.52.291.332.278.253.838.41.048.012.052 0 .02-.06a14 14 0 0 0-.701-1.175 8.2 8.2 0 0 0-2.639-2.742 3.3 3.3 0 0 0 .279.488c.136.198.254.39.384.593"/></svg>