<?xml version="1.0" encoding="UTF-8"?>
<svg width="24px" fill="#44739e" height="24px" viewBox="0 0 24 24" version="1.1" xmlns="http://www.w3.org/2000/svg" xmlns:xlink="http://www.w3.org/1999/xlink">
            <path d="M 9.149,12.947 H 9.128 a 0.064,0.064 0 0 0 -0.075,0.05 v 0.01 1.523 a 0.061,0.061 0 0 0 0.049,0.059 H 9.111 A 0.064,0.064 0 0 0 9.185,14.537 V 14.526 L 9.2,13 A 0.063,0.063 0 0 0 9.149,12.947 Z M 8.796,12.887 H 8.775 a 0.065,0.065 0 0 0 -0.076,0.051 v 0.009 1.523 a 0.062,0.062 0 0 0 0.049,0.059 H 8.757 A 0.063,0.063 0 0 0 8.836,14.485 V 14.471 L 8.849,12.947 A 0.062,0.062 0 0 0 8.8,12.887 Z M 8.452,12.808 H 8.431 a 0.064,0.064 0 0 0 -0.075,0.048 v 0.011 1.524 A 0.062,0.062 0 0 0 8.405,14.45 H 8.414 A 0.065,0.065 0 0 0 8.493,14.403 V 14.391 L 8.508,12.87 A 0.063,0.063 0 0 0 8.452,12.808 Z M 8.109,12.732 H 8.088 a 0.064,0.064 0 0 0 -0.075,0.05 v 0.01 1.523 a 0.062,0.062 0 0 0 0.049,0.059 H 8.071 A 0.062,0.062 0 0 0 8.149,14.331 V 14.316 L 8.164,12.794 A 0.063,0.063 0 0 0 8.109,12.732 Z M 7.771,12.662 H 7.75 a 0.064,0.064 0 0 0 -0.075,0.05 v 0.01 1.523 a 0.062,0.062 0 0 0 0.049,0.059 H 7.733 A 0.063,0.063 0 0 0 7.812,14.26 V 14.246 L 7.827,12.724 A 0.062,0.062 0 0 0 7.771,12.662 Z M 7.46,12.593 H 7.439 a 0.065,0.065 0 0 0 -0.075,0.051 v 1.524 a 0.062,0.062 0 0 0 0.049,0.059 H 7.422 A 0.064,0.064 0 0 0 7.5,14.181 V 14.169 L 7.515,12.655 A 0.063,0.063 0 0 0 7.46,12.593 Z M 7.146,12.539 H 7.125 A 0.064,0.064 0 0 0 7.05,12.587 v 0.011 1.515 a 0.059,0.059 0 0 0 0.048,0.059 H 7.107 A 0.063,0.063 0 0 0 7.184,14.127 V 14.112 L 7.2,12.6 A 0.061,0.061 0 0 0 7.146,12.539 Z M 6.818,12.482 H 6.8 A 0.064,0.064 0 0 0 6.725,12.53 v 0.011 1.515 a 0.062,0.062 0 0 0 0.049,0.059 h 0.008 a 0.063,0.063 0 0 0 0.079,-0.044 v -0.014 l 0.012,-1.51 A 0.058,0.058 0 0 0 6.818,12.482 Z m -0.3,-0.074 H 6.5 A 0.064,0.064 0 0 0 6.425,12.456 V 12.468 14 a 0.062,0.062 0 0 0 0.049,0.059 H 6.483 A 0.063,0.063 0 0 0 6.562,14.015 V 14 L 6.577,12.473 A 0.063,0.063 0 0 0 6.516,12.408 Z M 6.186,12.347 H 6.162 a 0.064,0.064 0 0 0 -0.075,0.048 v 0.012 1.529 A 0.062,0.062 0 0 0 6.134,14 H 6.143 A 0.063,0.063 0 0 0 6.222,13.956 V 13.941 L 6.237,12.414 A 0.064,0.064 0 0 0 6.184,12.347 Z M 5.862,12.274 H 5.839 a 0.065,0.065 0 0 0 -0.076,0.051 v 0.009 1.529 a 0.063,0.063 0 0 0 0.049,0.06 H 5.821 A 0.063,0.063 0 0 0 5.9,13.879 V 13.864 L 5.915,12.337 A 0.062,0.062 0 0 0 5.86,12.274 Z M 5.553,12.209 H 5.53 a 0.064,0.064 0 0 0 -0.075,0.05 v 0.01 1.531 a 0.063,0.063 0 0 0 0.049,0.06 H 5.513 A 0.063,0.063 0 0 0 5.592,13.816 V 13.801 L 5.607,12.274 A 0.061,0.061 0 0 0 5.551,12.209 Z m -0.3,-0.037 H 5.233 A 0.059,0.059 0 0 0 5.164,12.219 V 13.7 a 0.059,0.059 0 0 0 0.045,0.057 H 5.217 A 0.059,0.059 0 0 0 5.289,13.714 V 13.7 L 5.3,12.232 A 0.059,0.059 0 0 0 5.252,12.172 Z M 4.946,12.117 h -0.02 a 0.059,0.059 0 0 0 -0.069,0.047 v 1.479 A 0.06,0.06 0 0 0 4.9,13.7 H 4.908 A 0.059,0.059 0 0 0 4.98,13.657 V 13.643 L 5,12.177 A 0.059,0.059 0 0 0 4.945,12.117 Z M 4.66,12.064 H 4.64 a 0.059,0.059 0 0 0 -0.069,0.047 v 1.479 a 0.059,0.059 0 0 0 0.042,0.057 H 4.62 A 0.059,0.059 0 0 0 4.692,13.604 V 13.59 L 4.706,12.124 A 0.059,0.059 0 0 0 4.659,12.064 Z M 4.36,12.009 H 4.34 a 0.059,0.059 0 0 0 -0.068,0.046 v 1.479 a 0.062,0.062 0 0 0 0.045,0.058 H 4.325 A 0.059,0.059 0 0 0 4.397,13.549 V 13.535 L 4.41,12.069 A 0.056,0.056 0 0 0 4.361,12.009 Z M 4.052,11.938 H 4.034 a 0.059,0.059 0 0 0 -0.069,0.047 v 1.479 a 0.059,0.059 0 0 0 0.044,0.057 H 4.017 A 0.059,0.059 0 0 0 4.089,13.478 V 13.465 L 4.1,12 A 0.059,0.059 0 0 0 4.053,11.938 Z m -0.285,-0.06 h -0.02 a 0.058,0.058 0 0 0 -0.068,0.045 0.05,0.05 0 0 0 0,0.012 V 13.4 a 0.059,0.059 0 0 0 0.045,0.057 H 3.732 A 0.057,0.057 0 0 0 3.803,13.416 V 13.401 L 3.816,11.935 A 0.06,0.06 0 0 0 3.768,11.878 Z M 3.483,11.828 H 3.465 a 0.059,0.059 0 0 0 -0.069,0.047 v 1.479 a 0.06,0.06 0 0 0 0.045,0.057 h 0.008 a 0.059,0.059 0 0 0 0.072,-0.043 v -0.014 l 0.013,-1.466 a 0.059,0.059 0 0 0 -0.05,-0.06 z m -0.3,-0.046 H 3.163 A 0.06,0.06 0 0 0 3.095,11.83 v 1.478 a 0.058,0.058 0 0 0 0.044,0.057 H 3.147 A 0.057,0.057 0 0 0 3.218,13.324 V 13.309 L 3.231,11.842 A 0.057,0.057 0 0 0 3.184,11.782 Z M 21.988,9.1 A 0.293,0.293 0 0 0 21.888,8.882 0.3,0.3 0 0 0 21.661,8.808 L 11.169,9.891 A 4.865,4.865 0 0 1 9.86,9.851 L 2.36,8.608 a 0.3,0.3 0 0 0 -0.34,0.254 0.219,0.219 0 0 0 0,0.036 L 2,13.97 a 0.442,0.442 0 0 0 0.148,0.332 v 0.319 a 0.237,0.237 0 0 0 0.191,0.232 l 0.426,0.084 a 0.236,0.236 0 0 0 0.277,-0.187 0.212,0.212 0 0 0 0,-0.044 V 14.564 L 9.54,16.1 a 5.627,5.627 0 0 0 0.753,0.123 V 16.4 a 0.236,0.236 0 0 0 0.236,0.235 h 0.611 a 0.235,0.235 0 0 0 0.236,-0.234 v 0 -0.192 c 0.087,-0.009 0.174,-0.021 0.26,-0.034 l 9.046,-1.426 -0.015,0.167 a 0.236,0.236 0 0 0 0.213,0.257 0.29,0.29 0 0 0 0.051,0 l 0.553,-0.07 a 0.235,0.235 0 0 0 0.206,-0.221 l 0.016,-0.3 A 0.439,0.439 0 0 0 22,14.164 Z M 11.554,15.651 A 4.9,4.9 0 0 1 9.661,15.58 L 2.53,13.9 2.542,9.175 l 7.232,1.2 a 5.46,5.46 0 0 0 1.45,0.045 l 10.234,-1.056 0.012,4.727 z m 0,0 A 4.9,4.9 0 0 1 9.661,15.58 L 2.53,13.9 2.542,9.175 l 7.232,1.2 a 5.46,5.46 0 0 0 1.45,0.045 l 10.234,-1.056 0.012,4.727 z m -4.845,-4.007 0.172,0.031 v 0.118 l 2.077,0.372 v -0.112 l 0.22,0.03 V 11.614 L 6.709,11.181 Z m 0.147,-0.288 2.175,0.381 v 0.178 L 8.81,11.885 v 0.1 L 7.028,11.672 v -0.12 L 6.856,11.521 Z M 2.54,8.375 10.01,9.551 a 4.936,4.936 0 0 0 1.262,0.034 L 21.5,8.545 a 0.059,0.059 0 0 0 0,-0.117 L 13.565,7.4 A 4.936,4.936 0 0 0 12.506,7.379 L 2.544,8.26 a 0.059,0.059 0 0 0 0,0.115 z m 8.376,0.754 c 0.412,0.026 0.6,0.111 0.514,0.18 A 1.406,1.406 0 0 1 10.815,9.403 1.435,1.435 0 0 1 10.09,9.275 C 10.005,9.175 10.413,9.1 10.916,9.129 Z m 8.908,2.149 -6.892,0.8 a 0.425,0.425 0 0 0 -0.269,0.332 v 1.128 c 0,0.131 0.127,0.314 0.269,0.3 l 6.961,-0.9 A 0.225,0.225 0 0 0 20.1,12.722 V 11.5 a 0.239,0.239 0 0 0 -0.252,-0.227 z m -4.7,1.821 a 0.155,0.155 0 0 1 -0.136,0.154 v 0 l -1.2,0.15 h -0.019 a 0.153,0.153 0 0 1 -0.155,-0.151 v -0.664 a 0.155,0.155 0 0 1 0.137,-0.154 l 1.2,-0.138 a 0.155,0.155 0 0 1 0.172,0.138 V 13.1 Z m 1.922,-0.249 a 0.148,0.148 0 0 1 -0.13,0.146 v 0 l -1.147,0.143 h -0.018 a 0.148,0.148 0 0 1 -0.1,-0.037 0.152,0.152 0 0 1 -0.05,-0.111 v -0.625 a 0.147,0.147 0 0 1 0.131,-0.147 l 1.147,-0.132 a 0.148,0.148 0 0 1 0.164,0.132 v 0.015 z m 0.814,-0.169 h -0.023 a 0.261,0.261 0 0 1 -0.176,-0.069 0.318,0.318 0 0 1 -0.1,-0.232 0.34,0.34 0 0 1 0.291,-0.351 0.254,0.254 0 0 1 0.2,0.07 0.318,0.318 0 0 1 0.1,0.239 0.338,0.338 0 0 1 -0.293,0.343 z m 1.413,-0.395 -0.616,0.079 V 12.074 L 19.278,12 Z m -4.3,0.134 v 0 l -1.2,0.138 a 0.037,0.037 0 0 0 -0.033,0.037 v 0.66 a 0.034,0.034 0 0 0 0.034,0.037 h 0.008 l 1.2,-0.15 v 0 a 0.038,0.038 0 0 0 0.032,-0.037 V 12.457 A 0.047,0.047 0 0 0 15,12.429 0.039,0.039 0 0 0 14.971,12.42 Z m 2.906,-0.3 h -0.015 a 0.25,0.25 0 0 0 -0.209,0.262 0.235,0.235 0 0 0 0.07,0.168 0.172,0.172 0 0 0 0.133,0.044 A 0.252,0.252 0 0 0 18.067,12.34 0.228,0.228 0 0 0 18,12.167 0.174,0.174 0 0 0 17.877,12.121 Z M 16.9,12.2 v 0 l -1.147,0.131 a 0.038,0.038 0 0 0 -0.032,0.036 V 13 a 0.045,0.045 0 0 0 0.012,0.027 0.037,0.037 0 0 0 0.028,0.009 l 1.147,-0.143 A 0.037,0.037 0 0 0 16.94,12.857 V 12.239 A 0.036,0.036 0 0 0 16.928,12.212 0.037,0.037 0 0 0 16.9,12.2 Z"/>

</svg>