<svg xmlns="http://www.w3.org/2000/svg" viewBox="0 0 24 24"><path fill="#44739e" d="M17.41 2H6.59A4.58 4.58 0 0 0 2 6.59v10.82A4.58 4.58 0 0 0 6.59 22h10.82A4.58 4.58 0 0 0 22 17.41V6.59A4.58 4.58 0 0 0 17.41 2m-2.653 12.447a1.924 1.924 0 0 1-1.924 1.923h-5.86a1.924 1.924 0 0 1-1.923-1.923v-4.87a1.923 1.923 0 0 1 1.927-1.924h5.856a1.925 1.925 0 0 1 1.924 1.924Zm4.2.74a.771.771 0 0 1-1.266.59l-2.211-1.854a.85.85 0 0 1-.3-.653v-2.52a.85.85 0 0 1 .31-.657l2.206-1.82a.769.769 0 0 1 1.26.594Z"/></svg>