<?xml version="1.0" encoding="UTF-8"?>
<svg width="24px" fill="#44739e" height="24px" viewBox="0 0 24 24" version="1.1" xmlns="http://www.w3.org/2000/svg" xmlns:xlink="http://www.w3.org/1999/xlink">
            <path d="M 21.275,6.013 A 4.77,4.77 0 0 0 19.209,3.221 4.689,4.689 0 0 0 18.053,2.7 4.833,4.833 0 0 0 16.733,2.5 h -9.6 A 4.868,4.868 0 0 0 6.178,2.607 4.7,4.7 0 0 0 4.389,3.407 4.748,4.748 0 0 0 2.453,6.882 c -0.011,0.11 -0.01,0.22 -0.015,0.33 v 9.573 a 4.907,4.907 0 0 0 0.162,1.2 4.765,4.765 0 0 0 2.066,2.791 4.692,4.692 0 0 0 1.044,0.49 4.8,4.8 0 0 0 1.432,0.233 h 9.592 a 4.844,4.844 0 0 0 0.8,-0.077 4.749,4.749 0 0 0 3.766,-3.541 4.99,4.99 0 0 0 0.137,-1.1 V 7.222 A 4.932,4.932 0 0 0 21.275,6.013 Z M 15.721,5.745 a 2.465,2.465 0 0 1 1.467,0.349 2.421,2.421 0 0 1 1.156,1.973 2.513,2.513 0 0 1 -0.272,1.256 2.953,2.953 0 0 0 -0.622,-0.066 h -1.9 c -0.157,0 -0.319,0 -0.481,0 v 0 a 2.987,2.987 0 0 0 -0.4,0.044 2.781,2.781 0 0 0 0.041,-0.473 q 0,-0.549 0,-1.1 V 7.247 c 0,-0.081 0,-0.164 0,-0.244 v 0 c 0,-0.151 0,-0.307 0,-0.461 v 0 A 2.687,2.687 0 0 0 14.649,6.078 2.545,2.545 0 0 1 15.721,5.745 Z M 14.6,9.613 v 0 h 0.006 a 2.46,2.46 0 0 1 0.472,-0.064 c 0.157,0 0.316,0 0.47,0 h 1.9 a 2.746,2.746 0 0 1 0.47,0.041 2.467,2.467 0 0 1 -0.25,0.32 c -0.105,0.111 -0.216,0.222 -0.323,0.328 v 0 c -0.058,0.057 -0.117,0.117 -0.175,0.175 l -0.35,0.35 -0.793,0.793 a 2.736,2.736 0 0 1 -0.345,0.289 2.8,2.8 0 0 0 -1.492,-0.428 h -0.12 a 2.788,2.788 0 0 0 -1.326,0.407 c -0.041,-0.031 -0.079,-0.061 -0.114,-0.092 0,-0.042 0.011,-0.083 0.018,-0.122 0.007,-0.039 0.012,-0.069 0.02,-0.1 a 2.75,2.75 0 0 0 0.515,-0.2 v 0 A 2.779,2.779 0 0 0 14.6,9.621 Z m 0.806,2.4 A 2.534,2.534 0 0 1 13.45,12.191 2.389,2.389 0 0 1 13.011,12 2.489,2.489 0 0 1 14.08,11.7 v 0 a 2.525,2.525 0 0 1 1.325,0.313 z m -2.64,-0.837 a 2.469,2.469 0 0 1 0.5,-0.8 2.574,2.574 0 0 1 1,-0.662 2.5,2.5 0 0 1 -1.21,1.343 2.832,2.832 0 0 1 -0.291,0.119 z m 1.657,-4.625 c 0,0.149 0,0.3 0,0.451 0,0.081 0,0.164 0,0.246 v 0.487 q 0,0.547 0,1.095 a 2.5,2.5 0 0 1 -0.06,0.546 2.9,2.9 0 0 0 -1.307,0.8 2.746,2.746 0 0 0 -0.625,1.092 c -0.073,0.013 -0.14,0.023 -0.2,0.03 -0.05,-0.068 -0.087,-0.123 -0.108,-0.159 l -0.039,-0.067 c 0.038,-0.085 0.074,-0.178 0.107,-0.277 A 2.781,2.781 0 0 0 12.316,9.732 2.846,2.846 0 0 0 12.05,8.727 C 12.075,8.68 12.1,8.633 12.127,8.589 l 0.016,-0.027 v 0 0 c 0.03,-0.048 0.061,-0.1 0.094,-0.144 v 0 A 3.047,3.047 0 0 1 12.62,7.981 l 0.632,-0.632 0.1,-0.1 0.613,-0.612 v 0 a 3.668,3.668 0 0 1 0.421,-0.381 2.965,2.965 0 0 1 0.036,0.295 z m -1.966,5.649 -0.089,0.086 c -0.056,0.056 -0.111,0.114 -0.161,0.174 l -0.073,0.085 h -0.111 c -0.068,0 -0.136,0 -0.2,0 l -0.109,0.006 -0.073,-0.085 c -0.046,-0.055 -0.1,-0.108 -0.145,-0.158 L 11.467,12.279 11.42,12.148 v 0 -0.04 c 0,-0.055 0.005,-0.109 0,-0.162 v -0.132 l 0.091,-0.1 0.054,-0.062 v -0.005 c 0.025,-0.028 0.051,-0.06 0.077,-0.093 l 0.066,-0.083 0.1,0.006 c 0.047,0 0.093,0 0.138,0 0.045,0 0.06,0 0.09,0 h 0.1 l 0.081,0.08 0.035,0.04 c 0.038,0.044 0.078,0.087 0.118,0.128 l 0.087,0.087 v 0.122 c 0,0.048 0,0.1 0,0.149 z m -0.366,1.836 a 2.538,2.538 0 0 1 -0.169,1.026 2.563,2.563 0 0 1 -0.164,-0.729 v 0 a 2.471,2.471 0 0 1 0.164,-1.094 2.47,2.47 0 0 1 0.169,0.792 z M 11.776,9.991 a 2.564,2.564 0 0 1 0.117,-0.883 2.512,2.512 0 0 1 0.023,1.6 v 0 a 2.4,2.4 0 0 1 -0.14,-0.722 z m 0.411,1.473 z M 9.515,6.036 a 2.412,2.412 0 0 1 0.538,-1.021 2.479,2.479 0 0 1 1.285,-0.774 2.459,2.459 0 0 1 2.214,0.565 2.477,2.477 0 0 1 0.717,1.128 v 0 l -0.027,0.019 -0.036,0.025 v 0 A 3.657,3.657 0 0 0 13.719,6.411 L 13.043,7.088 C 12.82,7.31 12.598,7.533 12.377,7.754 A 3.381,3.381 0 0 0 11.96,8.231 c -0.038,0.052 -0.071,0.106 -0.1,0.158 l -0.018,0.028 a 2.982,2.982 0 0 0 -0.4,-0.5 L 10.65,7.126 10.298,6.774 C 10.239,6.716 10.18,6.656 10.122,6.598 10.013,6.488 9.901,6.375 9.786,6.266 v 0 A 3.205,3.205 0 0 0 9.524,6.053 v 0 z M 9.5,6.371 c 0.042,0.034 0.085,0.071 0.13,0.112 0.111,0.105 0.222,0.216 0.328,0.323 v 0 l 0.177,0.177 0.352,0.351 0.791,0.792 a 2.663,2.663 0 0 1 0.441,0.587 l 0.009,0.015 A 2.838,2.838 0 0 0 11.489,10 a 2.763,2.763 0 0 0 0.272,1.077 1.579,1.579 0 0 1 -0.089,0.153 l -0.02,0.031 v 0.006 l -0.013,0.019 v 0 C 11.59,11.279 11.522,11.269 11.462,11.258 A 2.609,2.609 0 0 0 11.253,10.727 2.858,2.858 0 0 0 9.537,9.327 C 9.537,9.31 9.53,9.291 9.527,9.273 v 0 A 2.958,2.958 0 0 1 9.484,8.7 V 6.84 A 4.045,4.045 0 0 1 9.5,6.371 Z m 1.63,4.8 A 2.48,2.48 0 0 1 9.624,9.66 a 2.57,2.57 0 0 1 1.37,1.2 2.51,2.51 0 0 1 0.136,0.311 z m -1.836,-1.6 v 0.006 a 2.762,2.762 0 0 0 1.92,1.922 c 0.016,0.086 0.061,0.142 0.067,0.215 -0.009,0.008 0.017,0.082 0.008,0.09 L 11.124,11.84 11.08,11.813 A 2.748,2.748 0 0 0 9.441,11.422 2.819,2.819 0 0 0 8.141,11.85 L 8.094,11.88 H 8.088 a 3.251,3.251 0 0 1 -0.4,-0.357 L 7.016,10.851 6.343,10.178 A 3.336,3.336 0 0 1 5.943,9.732 L 5.913,9.689 5.9,9.665 V 9.658 L 5.891,9.646 5.84,9.562 v 0 H 5.846 A 2.441,2.441 0 0 1 6.318,9.497 c 0.155,0 0.314,0 0.468,0 h 1.9 a 2.751,2.751 0 0 1 0.613,0.07 z m 1.582,2.451 -0.014,0.008 a 2.441,2.441 0 0 1 -1.151,0.345 2.537,2.537 0 0 1 -1.322,-0.3 v -0.028 a 2.544,2.544 0 0 1 1.084,-0.334 2.472,2.472 0 0 1 1.403,0.31 z m -2.658,0 -0.069,0.06 L 8.138,12.075 8.12,12.06 8.14,12.046 8.193,12.01 8.215,12 v 0.017 z M 5.818,6.967 A 2.415,2.415 0 0 1 7.792,5.808 c 0.036,0 0.071,0 0.107,0 a 2.515,2.515 0 0 1 1.338,0.383 v 0.013 0 A 3.509,3.509 0 0 0 9.2,6.842 V 8.7 A 3.478,3.478 0 0 0 9.231,9.253 2.975,2.975 0 0 0 8.679,9.2 h -1.9 c -0.158,0 -0.32,0 -0.482,0 v 0 A 2.694,2.694 0 0 0 5.771,9.272 L 5.691,9.3 A 2.532,2.532 0 0 1 5.47,8.435 2.465,2.465 0 0 1 5.819,6.964 Z m -1.91,5.56 A 2.41,2.41 0 0 1 3.874,11.555 2.45,2.45 0 0 1 4.5,10.316 2.581,2.581 0 0 1 5.548,9.637 C 5.57,9.676 5.593,9.715 5.616,9.752 l 0.03,0.046 0.009,0.014 0.014,0.023 v 0 L 5.689,9.863 5.753,9.816 5.69,9.863 5.715,9.899 v 0 a 3.587,3.587 0 0 0 0.433,0.486 l 0.672,0.672 0.671,0.671 a 3.684,3.684 0 0 0 0.365,0.333 c -0.122,0.1 -0.232,0.211 -0.342,0.322 l -0.672,0.672 -0.056,0.056 c -0.205,0.206 -0.411,0.411 -0.615,0.615 a 3.317,3.317 0 0 0 -0.416,0.477 c -0.029,0.04 -0.055,0.08 -0.081,0.12 A 2.62,2.62 0 0 1 4.715,13.81 2.461,2.461 0 0 1 3.908,12.527 Z m 5.277,5.432 A 2.53,2.53 0 0 1 7.196,18.159 2.22,2.22 0 0 1 6.67,17.915 L 6.64,17.895 H 6.634 a 2.451,2.451 0 0 1 -0.266,-0.2 L 6.36,17.688 A 1.977,1.977 0 0 1 6.121,17.451 L 6.047,17.361 C 6.007,17.308 5.911,17.18 5.867,17.106 A 2.451,2.451 0 0 1 5.523,15.955 2.551,2.551 0 0 1 5.813,14.66 h 0.011 0.019 l 0.023,0.005 v 0 l 0.037,0.006 0.045,0.007 v 0 A 3.348,3.348 0 0 0 6.51,14.715 H 8.544 A 3.418,3.418 0 0 0 9.186,14.672 L 9.224,14.666 A 2.77,2.77 0 0 0 9.177,15.172 V 17 c 0,0.15 0,0.306 0,0.461 v 0 A 2.638,2.638 0 0 0 9.238,17.92 Z M 9.14,14.391 v 0 A 3.229,3.229 0 0 1 8.548,14.429 H 6.61 A 3.523,3.523 0 0 1 6,14.4 l -0.027,-0.005 0.014,-0.02 v 0 A 3.1,3.1 0 0 1 6.37,13.938 l 0.672,-0.672 0.672,-0.672 a 3.743,3.743 0 0 1 0.384,-0.353 l 0.025,0.015 v 0 l 0.031,0.019 0.028,0.018 H 8.19 a 2.836,2.836 0 0 0 1.407,0.375 H 9.72 a 2.747,2.747 0 0 0 1.285,-0.385 c 0.033,-0.019 0.075,-0.047 0.127,-0.083 l 0.08,0.064 0.025,0.021 c -0.009,0.063 -0.024,0.155 -0.039,0.224 A 2.707,2.707 0 0 0 10.704,12.7 v 0 A 2.781,2.781 0 0 0 9.3,14.359 c -0.054,0.012 -0.108,0.024 -0.16,0.032 z m 1.96,-1.552 a 2.446,2.446 0 0 1 -0.485,0.763 2.624,2.624 0 0 1 -0.972,0.653 2.5,2.5 0 0 1 1.2,-1.3 2.708,2.708 0 0 1 0.257,-0.116 z m -1.633,4.615 c 0,-0.15 0,-0.3 0,-0.452 v -1.828 a 2.529,2.529 0 0 1 0.069,-0.581 2.9,2.9 0 0 0 1.288,-0.795 2.738,2.738 0 0 0 0.613,-1.055 c 0.072,-0.014 0.14,-0.024 0.2,-0.032 l 0.008,0.012 c 0.04,0.055 0.078,0.114 0.113,0.174 a 2.786,2.786 0 0 0 -0.287,1.453 2.857,2.857 0 0 0 0.287,1.047 c -0.019,0.032 -0.038,0.064 -0.058,0.1 v 0 a 2.386,2.386 0 0 1 -0.282,0.373 c -0.105,0.111 -0.216,0.221 -0.323,0.328 v 0 c -0.058,0.058 -0.118,0.117 -0.176,0.176 l -0.35,0.35 -0.793,0.793 a 2.68,2.68 0 0 1 -0.273,0.237 2.6,2.6 0 0 1 -0.036,-0.3 z m 4.321,1.528 a 2.48,2.48 0 0 1 -1.285,0.775 2.513,2.513 0 0 1 -0.974,0.032 2.477,2.477 0 0 1 -1.959,-1.731 3.029,3.029 0 0 0 0.4,-0.337 l 0.777,-0.777 0.366,-0.366 c 0.058,-0.059 0.118,-0.118 0.176,-0.176 v 0 c 0.109,-0.109 0.222,-0.221 0.332,-0.336 v 0 a 2.721,2.721 0 0 0 0.293,-0.382 l 0.008,0.013 0.008,0.013 0.015,0.024 v 0 L 11.966,15.763 12,15.8 v 0 a 3.529,3.529 0 0 0 0.433,0.487 l 0.672,0.671 0.056,0.056 q 0.308,0.309 0.615,0.615 a 3.3,3.3 0 0 0 0.476,0.416 l 0.043,0.03 a 2.476,2.476 0 0 1 -0.507,0.907 z m 0.584,-1.233 v 0.022 A 3.341,3.341 0 0 1 13.985,17.424 L 13.314,16.753 12.641,16.08 a 3.352,3.352 0 0 1 -0.4,-0.447 l -0.03,-0.042 -0.022,-0.031 c -0.011,-0.016 -0.03,-0.043 -0.044,-0.066 v -0.011 l -0.03,-0.035 v 0 l -0.027,-0.046 a 2.813,2.813 0 0 0 0.293,-1.379 2.753,2.753 0 0 0 -0.293,-1.122 l 0.023,-0.037 c 0.015,-0.026 0.032,-0.052 0.049,-0.078 l 0.062,-0.066 c 0.047,0.006 0.147,0.016 0.206,0.026 a 2.761,2.761 0 0 0 0.874,1.343 2.908,2.908 0 0 0 1.051,0.566 c 0.006,0.026 0.011,0.053 0.016,0.08 v 0 a 2.884,2.884 0 0 1 0.038,0.567 v 0.93 c 0,0.311 0,0.621 0,0.932 a 3.322,3.322 0 0 1 -0.035,0.585 z m -1.615,-4.916 a 2.486,2.486 0 0 1 1.5,1.483 2.583,2.583 0 0 1 -0.769,-0.45 v 0 a 2.493,2.493 0 0 1 -0.731,-1.033 z m 1.706,5.116 v 0.006 l -0.008,0.031 h -0.008 v -0.054 h 0.017 l -0.005,0.022 z M 14.49,17.82 v 0 l -0.049,-0.008 0.049,0.007 z m -0.72,-4.713 a 2.77,2.77 0 0 0 -1.108,-0.6 2.378,2.378 0 0 1 -0.038,-0.239 c 0.038,-0.031 0.077,-0.062 0.115,-0.09 l 0.021,0.014 0.025,0.016 h 0.008 a 2.543,2.543 0 0 0 0.566,0.259 2.7,2.7 0 0 0 0.848,0.134 2.832,2.832 0 0 0 1.37,-0.351 c 0.035,-0.019 0.069,-0.04 0.1,-0.061 a 2.843,2.843 0 0 1 0.238,0.194 c 0.111,0.105 0.221,0.216 0.328,0.323 v 0 c 0.058,0.058 0.118,0.119 0.178,0.177 l 0.352,0.353 0.79,0.79 a 2.672,2.672 0 0 1 0.342,0.423 v 0 a 3.138,3.138 0 0 1 -0.591,0.038 H 15.381 A 3.432,3.432 0 0 1 14.77,14.454 l -0.052,-0.008 -0.045,-0.009 -0.03,-0.006 -0.057,-0.012 A 2.755,2.755 0 0 0 13.77,13.107 Z M 18.2,16.6 a 2.26,2.26 0 0 1 -0.243,0.526 l -0.021,0.031 v 0.005 a 2.47,2.47 0 0 1 -0.2,0.267 l -0.007,0.007 a 2.03,2.03 0 0 1 -0.235,0.239 v 0 l -0.089,0.071 v 0 l -0.008,0.007 c -0.057,0.044 -0.175,0.132 -0.245,0.173 A 2.451,2.451 0 0 1 16,18.272 2.518,2.518 0 0 1 14.629,17.939 V 17.92 17.909 l 0.008,-0.034 v 0 l 0.005,-0.03 0.008,-0.042 v 0 a 3.5,3.5 0 0 0 0.038,-0.637 q 0,-0.465 0,-0.931 V 15.3 a 3.309,3.309 0 0 0 -0.035,-0.581 h 0.018 l 0.045,0.008 v 0 a 3.353,3.353 0 0 0 0.562,0.038 h 2.032 a 3.49,3.49 0 0 0 0.642,-0.042 l 0.1,-0.02 A 2.539,2.539 0 0 1 18.2,16.6 Z m 1.813,-4.306 c -0.009,0.065 -0.032,0.223 -0.054,0.306 a 2.431,2.431 0 0 1 -0.581,1.057 2.582,2.582 0 0 1 -1.177,0.721 2.925,2.925 0 0 0 -0.435,-0.556 l -0.79,-0.791 -0.353,-0.353 C 16.564,12.62 16.505,12.561 16.448,12.503 v 0 c -0.109,-0.11 -0.221,-0.223 -0.336,-0.332 v 0 c -0.064,-0.057 -0.123,-0.108 -0.18,-0.152 a 3.161,3.161 0 0 0 0.3,-0.258 l 0.793,-0.793 0.35,-0.351 0.177,-0.176 c 0.109,-0.109 0.222,-0.221 0.332,-0.336 v 0 a 2.621,2.621 0 0 0 0.315,-0.417 l 0.017,-0.027 a 2.565,2.565 0 0 1 1.551,1.262 2.171,2.171 0 0 1 0.2,0.544 l 0.008,0.036 v 0 a 2.512,2.512 0 0 1 0.047,0.33 v 0.01 a 1.965,1.965 0 0 1 0,0.335 z"/>

</svg>