<svg xmlns="http://www.w3.org/2000/svg" viewBox="0 0 24 24"><path fill="#44739e" d="M21.829 5.698a5.02 5.02 0 0 0-2.174-2.939 5 5 0 0 0-1.217-.548A5 5 0 0 0 17.048 2H6.942a5.3 5.3 0 0 0-1.005.113 4.95 4.95 0 0 0-1.883.842 5 5 0 0 0-2.038 3.658c-.012.116-.011.231-.016.347v10.078a5.3 5.3 0 0 0 .171 1.263 5 5 0 0 0 2.174 2.938 5 5 0 0 0 1.099.516A5 5 0 0 0 6.952 22h10.097a5 5 0 0 0 .842-.081 5 5 0 0 0 3.965-3.728A5.3 5.3 0 0 0 22 17.033V6.971a5.3 5.3 0 0 0-.171-1.273m-5.846-.282a2.6 2.6 0 0 1 1.544.367 2.55 2.55 0 0 1 1.217 2.077 2.63 2.63 0 0 1-.286 1.322 3 3 0 0 0-.655-.069h-2.507a3 3 0 0 0-.421.046 3 3 0 0 0 .044-.498V6.255a3 3 0 0 0-.065-.488 2.7 2.7 0 0 1 1.129-.351m-1.18 4.072h.006a2.6 2.6 0 0 1 .497-.068h2.495a3 3 0 0 1 .495.044 2.6 2.6 0 0 1-.264.336 15 15 0 0 1-.34.346l-.184.184-.368.368-.835.835a3 3 0 0 1-.363.304 2.95 2.95 0 0 0-1.571-.45h-.126a2.95 2.95 0 0 0-1.396.428 2 2 0 0 1-.12-.097c0-.044.012-.087.019-.128s.013-.073.021-.105a3 3 0 0 0 .542-.211 2.93 2.93 0 0 0 1.492-1.778Zm.848 2.526a2.66 2.66 0 0 1-2.059.188 2.5 2.5 0 0 1-.462-.201 2.6 2.6 0 0 1 1.125-.316 2.63 2.63 0 0 1 1.395.329Zm-2.779-.881a2.6 2.6 0 0 1 .526-.842 2.74 2.74 0 0 1 1.053-.697 2.63 2.63 0 0 1-1.274 1.414 3 3 0 0 1-.306.125Zm1.744-4.869v2.4a2.6 2.6 0 0 1-.063.574 3.05 3.05 0 0 0-1.376.842 2.9 2.9 0 0 0-.657 1.15q-.116.021-.211.032a2 2 0 0 1-.114-.168l-.041-.07q.06-.135.113-.292a3 3 0 0 0 .131-1.119 3 3 0 0 0-.28-1.058q.039-.075.081-.145l.017-.029c.032-.05.065-.105.099-.151a3 3 0 0 1 .403-.46l.666-.666.105-.105.645-.644a4 4 0 0 1 .444-.401 3 3 0 0 1 .037.31Zm-2.069 5.947-.094.091a3 3 0 0 0-.169.183l-.077.089h-.328l-.114.007-.077-.09c-.049-.058-.105-.114-.153-.166l-.03-.031-.05-.138v-.042c0-.058.005-.115 0-.17v-.139l.096-.106.057-.065v-.005q.04-.045.081-.098l.069-.087.106.006h.345l.085.084.037.042q.061.07.124.135l.092.092v.285Zm-.385 1.933a2.6 2.6 0 0 1-.178 1.08 2.7 2.7 0 0 1-.173-.768 2.6 2.6 0 0 1 .173-1.151 2.6 2.6 0 0 1 .178.834Zm-.332-4.258a2.7 2.7 0 0 1 .123-.93 2.63 2.63 0 0 1 .024 1.684 2.5 2.5 0 0 1-.147-.76ZM9.45 5.722a2.5 2.5 0 0 1 .566-1.074 2.63 2.63 0 0 1 1.353-.815 2.59 2.59 0 0 1 2.331.594 2.63 2.63 0 0 1 .754 1.188l-.028.02-.038.026a4 4 0 0 0-.513.456l-.711.713-.701.701a3.6 3.6 0 0 0-.439.502 2 2 0 0 0-.106.166l-.019.03a3 3 0 0 0-.421-.527l-.833-.832-.371-.371-.185-.185a16 16 0 0 0-.354-.35 3 3 0 0 0-.276-.224Zm-.016.353q.066.053.137.118c.117.11.234.227.345.34l.187.186.37.37.833.833a2.8 2.8 0 0 1 .464.618l.009.016a3 3 0 0 0-.251 1.339 3 3 0 0 0 .286 1.134 2 2 0 0 1-.093.161l-.022.033v.006l-.013.02-.187-.03a2.7 2.7 0 0 0-.22-.559 3 3 0 0 0-1.806-1.473c0-.018-.007-.038-.011-.057a3 3 0 0 1-.045-.603V6.569a4 4 0 0 1 .017-.494m1.716 5.053a2.61 2.61 0 0 1-1.585-1.591 2.7 2.7 0 0 1 1.442 1.263 3 3 0 0 1 .143.328M9.217 9.444v.006a2.9 2.9 0 0 0 2.021 2.023c.017.091.065.15.071.226-.01.009.018.087.008.095l-.173.038-.047-.028a2.9 2.9 0 0 0-1.725-.412 2.95 2.95 0 0 0-1.369.451l-.049.031h-.006a3 3 0 0 1-.421-.376l-.708-.707-.708-.708a3.5 3.5 0 0 1-.421-.47l-.032-.045-.014-.025v-.008l-.009-.012-.054-.089h.007a2.5 2.5 0 0 1 .496-.068h2.493a3 3 0 0 1 .645.073Zm1.666 2.58-.015.008a2.6 2.6 0 0 1-1.212.363 2.7 2.7 0 0 1-1.391-.316v-.029a2.7 2.7 0 0 1 1.141-.352 2.6 2.6 0 0 1 1.477.327Zm-2.798 0-.073.063L8 12.079l-.019-.015.021-.015.056-.038.023-.01v.017ZM5.558 6.702a2.55 2.55 0 0 1 2.078-1.22h.113a2.63 2.63 0 0 1 1.408.403v.014a3.7 3.7 0 0 0-.039.672v1.956a4 4 0 0 0 .033.582 3 3 0 0 0-.581-.056H6.062a3 3 0 0 0-.553.076l-.085.029a2.6 2.6 0 0 1-.232-.91 2.6 2.6 0 0 1 .367-1.549Zm-2.011 5.853a2.5 2.5 0 0 1-.035-1.023 2.6 2.6 0 0 1 .659-1.304 2.74 2.74 0 0 1 1.103-.715l.071.121.032.049.009.014.015.024.021.03.068-.05-.067.05.027.038a4 4 0 0 0 .455.511l.708.708.706.706a4 4 0 0 0 .384.351 5 5 0 0 0-.36.339l-.707.707-.059.059-.647.647a3.5 3.5 0 0 0-.438.503q-.046.063-.086.126a2.7 2.7 0 0 1-1.009-.54 2.6 2.6 0 0 1-.85-1.351m5.555 5.718a2.66 2.66 0 0 1-2.093.211 2.3 2.3 0 0 1-.554-.257l-.032-.021h-.006a3 3 0 0 1-.28-.21l-.008-.008a2 2 0 0 1-.252-.249l-.078-.095a4 4 0 0 1-.189-.268 2.6 2.6 0 0 1-.362-1.212 2.7 2.7 0 0 1 .305-1.363h.031l.025.005.039.006.047.008a3.6 3.6 0 0 0 .592.039h2.141a3.6 3.6 0 0 0 .676-.046l.04-.006a3 3 0 0 0-.05.533v2.409a3 3 0 0 0 .064.483Zm-.047-3.755a3 3 0 0 1-.623.04h-2.04a3.7 3.7 0 0 1-.642-.031l-.029-.005.015-.021a3 3 0 0 1 .403-.46l.708-.708.707-.707a4 4 0 0 1 .404-.372l.027.016.032.02.03.019h.008a3 3 0 0 0 1.481.395h.13a2.9 2.9 0 0 0 1.352-.406 2 2 0 0 0 .134-.087l.084.067.027.023a4 4 0 0 1-.041.235 3 3 0 0 0-.52.201 2.93 2.93 0 0 0-1.478 1.747q-.087.02-.169.034m2.063-1.634a2.6 2.6 0 0 1-.51.803 2.7 2.7 0 0 1-1.023.687 2.63 2.63 0 0 1 1.263-1.368 3 3 0 0 1 .27-.122m-1.719 4.858v-2.4a2.6 2.6 0 0 1 .073-.612 3.05 3.05 0 0 0 1.356-.837 2.84 2.84 0 0 0 .645-1.11q.115-.021.211-.034l.008.013q.063.087.119.183a2.95 2.95 0 0 0-.302 1.529 3 3 0 0 0 .302 1.103l-.061.105a2.5 2.5 0 0 1-.297.392c-.11.117-.227.233-.34.346l-.185.185-.369.368-.834.835a3 3 0 0 1-.288.25 3 3 0 0 1-.038-.316m4.549 1.608a2.63 2.63 0 0 1-1.353.816 2.6 2.6 0 0 1-1.025.034 2.61 2.61 0 0 1-2.062-1.822 3 3 0 0 0 .421-.355l.818-.818.385-.385.185-.186q.174-.172.35-.353a3 3 0 0 0 .308-.402l.009.013.008.014.016.025.022.031.036.039a3.7 3.7 0 0 0 .456.512l.707.707.059.059.647.647a3.5 3.5 0 0 0 .501.438l.046.032a2.6 2.6 0 0 1-.534.954m.615-1.298v.024a3.5 3.5 0 0 1-.408-.366l-.706-.706-.708-.709a3.6 3.6 0 0 1-.422-.47l-.031-.044-.023-.033c-.012-.017-.032-.045-.047-.069v-.012l-.031-.037-.029-.048a2.95 2.95 0 0 0 .309-1.452 2.9 2.9 0 0 0-.309-1.181l.025-.039.051-.082.065-.07c.05.007.155.017.217.028a2.9 2.9 0 0 0 .92 1.414 3.05 3.05 0 0 0 1.107.595l.017.085a3 3 0 0 1 .04.596v1.961a3.5 3.5 0 0 1-.037.615m-1.7-5.175a2.62 2.62 0 0 1 1.579 1.562 2.7 2.7 0 0 1-.81-.474 2.63 2.63 0 0 1-.769-1.088m1.796 5.386v.006l-.009.033h-.008v-.057h.018l-.006.023Zm.028-.136-.052-.008Zm-.758-4.961a2.95 2.95 0 0 0-1.166-.632 2 2 0 0 1-.04-.251q.061-.05.121-.095l.022.015.026.016h.009a2.6 2.6 0 0 0 .595.273 2.8 2.8 0 0 0 .893.141 2.95 2.95 0 0 0 1.442-.369q.056-.031.106-.065a3 3 0 0 1 .25.205c.117.11.233.227.345.34l.188.186.37.372.832.831a3 3 0 0 1 .36.446 3 3 0 0 1-.622.04h-2.035a3.6 3.6 0 0 1-.643-.035l-.055-.009-.047-.009-.032-.006-.06-.013a2.9 2.9 0 0 0-.859-1.381m4.663 3.677a2.4 2.4 0 0 1-.255.554l-.022.032v.005a3 3 0 0 1-.211.282l-.007.007a2 2 0 0 1-.248.252l-.093.074-.009.008a3 3 0 0 1-.258.182 2.6 2.6 0 0 1-1.212.364 2.63 2.63 0 0 1-1.444-.351v-.031l.009-.036.005-.032.008-.044a3.7 3.7 0 0 0 .04-.67v-1.965a3.5 3.5 0 0 0-.036-.611h.019l.047.008a3.6 3.6 0 0 0 .592.04h2.139a3.7 3.7 0 0 0 .675-.044l.106-.021a2.67 2.67 0 0 1 .155 1.997m1.909-4.533a3 3 0 0 1-.057.322 2.5 2.5 0 0 1-.611 1.113 2.74 2.74 0 0 1-1.239.759 3.2 3.2 0 0 0-.458-.585l-.832-.833-.372-.372-.184-.184a16 16 0 0 0-.354-.349 3 3 0 0 0-.189-.16 3 3 0 0 0 .316-.272l.835-.835.368-.369.186-.186q.174-.172.35-.353a2.7 2.7 0 0 0 .331-.439l.018-.029a2.7 2.7 0 0 1 1.633 1.329 2.3 2.3 0 0 1 .211.572l.008.038a3 3 0 0 1 .049.348v.01a2 2 0 0 1 0 .353Z"/></svg>