<svg xmlns="http://www.w3.org/2000/svg" viewBox="0 0 24 24"><path fill="#44739e" d="M18.918 12.322v-.077h.1a3.3 3.3 0 0 0 .825-.11 3.3 3.3 0 0 0-.825-.112h-.1v-.077c0-.143-.013-.29-.026-.437l-.007-.079.1-.009a3.3 3.3 0 0 0 .807-.205 3.3 3.3 0 0 0-.832-.015l-.1.013-.01-.077a7 7 0 0 0-.076-.43l-.015-.076.086-.02a3.3 3.3 0 0 0 .784-.3 3.4 3.4 0 0 0-.828.082l-.094.02-.019-.072a8 8 0 0 0-.126-.42l-.024-.072.083-.03a3.3 3.3 0 0 0 .744-.389 3.3 3.3 0 0 0-.812.178l-.09.034-.028-.073a8 8 0 0 0-.174-.4l-.034-.07.086-.042A3.3 3.3 0 0 0 19 8.588a3.3 3.3 0 0 0-.787.272l-.086.043-.036-.068a7 7 0 0 0-.219-.379l-.04-.066.08-.052a3.3 3.3 0 0 0 .63-.546 3.3 3.3 0 0 0-.752.361l-.075.051-.049-.06a7 7 0 0 0-.262-.35l-.048-.062.07-.057a3.4 3.4 0 0 0 .565-.619 3.3 3.3 0 0 0-.7.445l-.073.064-.052-.059q-.15-.164-.3-.318l-.055-.055.066-.069a3.3 3.3 0 0 0 .487-.677 3.4 3.4 0 0 0-.647.524l-.062.068-.062-.048a6 6 0 0 0-.335-.282L16.2 6.6l.057-.077a3.3 3.3 0 0 0 .4-.728 3.3 3.3 0 0 0-.58.6l-.058.077-.064-.045a6 6 0 0 0-.365-.24l-.066-.04.047-.082a3.3 3.3 0 0 0 .318-.77 3.3 3.3 0 0 0-.508.658l-.047.083L15.265 6a11 11 0 0 0-.39-.2l-.07-.03.033-.082a3.3 3.3 0 0 0 .228-.808 3.4 3.4 0 0 0-.428.714l-.033.082-.075-.024c-.135-.054-.273-.1-.412-.15l-.072-.024.024-.078a3.4 3.4 0 0 0 .133-.828 3.3 3.3 0 0 0-.343.758l-.028.09-.073-.02a6 6 0 0 0-.426-.1l-.074-.015.014-.086a3.3 3.3 0 0 0 .035-.838 3.4 3.4 0 0 0-.252.793l-.014.093-.078-.012a7 7 0 0 0-.435-.05l-.078-.006.007-.093a3.3 3.3 0 0 0-.063-.83 3.3 3.3 0 0 0-.158.816v.094h-.078a6 6 0 0 0-.438 0h-.08v-.092a3.4 3.4 0 0 0-.159-.819 3.3 3.3 0 0 0-.062.83l.006.087-.078.013a7 7 0 0 0-.434.05l-.077.012-.014-.084a3.4 3.4 0 0 0-.254-.8 3.4 3.4 0 0 0 .034.832l.021.09-.08.016q-.212.045-.426.1l-.076.021-.024-.088a3.3 3.3 0 0 0-.343-.76 3.3 3.3 0 0 0 .125.816l.028.085-.075.025c-.139.046-.278.1-.41.15l-.072.028-.03-.067-.008-.01a3.4 3.4 0 0 0-.427-.714 3.3 3.3 0 0 0 .225.8l.036.084-.067.03a5 5 0 0 0-.39.2l-.069.036-.045-.078a3.3 3.3 0 0 0-.51-.658 3.3 3.3 0 0 0 .315.77l.044.08-.063.04a8 8 0 0 0-.366.24l-.064.045-.052-.075a3.4 3.4 0 0 0-.583-.6 3.4 3.4 0 0 0 .4.728l.052.068-.057.053a8 8 0 0 0-.335.282l-.057.052-.05-.056.047-.065-.058.054a3.3 3.3 0 0 0-.646-.524A3.3 3.3 0 0 0 7 7.069l.065.065-.056.056q-.15.151-.3.32l-.052.058-.069-.06a3.3 3.3 0 0 0-.7-.446 3.3 3.3 0 0 0 .561.615l.07.058-.054.066a8 8 0 0 0-.26.351l-.046.064-.076-.05a3.3 3.3 0 0 0-.749-.365 3.3 3.3 0 0 0 .628.546l.077.048L6 8.46a7 7 0 0 0-.219.38l-.039.061-.082-.04a3.3 3.3 0 0 0-.786-.27 3.3 3.3 0 0 0 .688.468l.07.035-.022.075a7 7 0 0 0-.174.4l-.029.071-.083-.03a3.3 3.3 0 0 0-.814-.179 3.3 3.3 0 0 0 .738.387l.085.028-.025.075a7 7 0 0 0-.126.42l-.019.073-.087-.013a3.3 3.3 0 0 0-.829-.083 3.3 3.3 0 0 0 .777.3h.015l.072.02-.015.072a8 8 0 0 0-.075.432l-.01.075-.085-.009a3.4 3.4 0 0 0-.838.013 3.3 3.3 0 0 0 .807.206h.016l.073.011-.006.074a8 8 0 0 0-.026.438v.077H4.86a3.4 3.4 0 0 0-.825.11 3.3 3.3 0 0 0 .825.111h.091v.077c0 .143.012.29.025.437l.007.078-.09.01a3.3 3.3 0 0 0-.806.205 3.4 3.4 0 0 0 .832.014l.09-.01.011.076q.032.222.075.431l.016.077-.076.017-.029-.075.018.077a3.3 3.3 0 0 0-.777.3 3.3 3.3 0 0 0 .828-.083l.088-.018.02.072c.036.142.08.284.124.42l.025.074-.084.03a3.3 3.3 0 0 0-.737.385 3.4 3.4 0 0 0 .813-.178l.072-.026.04.067q.077.196.174.4l.032.068-.076.04a3.4 3.4 0 0 0-.69.471 3.4 3.4 0 0 0 .786-.27l.08-.043.036.07q.103.188.22.378l.041.066-.065.042-.054-.059.043.066a3.3 3.3 0 0 0-.628.546 3.3 3.3 0 0 0 .75-.36l.077-.049.043.061q.125.18.262.351l.048.06-.068.057a3.3 3.3 0 0 0-.563.617 3.4 3.4 0 0 0 .7-.445l.07-.06.051.058q.15.165.3.32l.054.053-.059.074a3.3 3.3 0 0 0-.485.674 3.3 3.3 0 0 0 .647-.524l.063-.067.058.051c.113.1.225.2.335.282l.06.047-.052.071a3.3 3.3 0 0 0-.406.731 3.4 3.4 0 0 0 .581-.6l.046-.064.072.035q.181.127.366.24l.065.04-.043.076a3.4 3.4 0 0 0-.319.773 3.3 3.3 0 0 0 .508-.659l.04-.066.073.024q.189.102.392.2l.068.032-.028.07-.006.013a3.3 3.3 0 0 0-.226.8 3.3 3.3 0 0 0 .428-.713l.076.023-.07-.035.03-.072.072.03c.13.051.27.1.411.148l.072.024-.023.083a3.3 3.3 0 0 0-.132.826 3.3 3.3 0 0 0 .342-.758l.021-.076.08.008q.217.06.426.1l.075.015-.016.091a3.3 3.3 0 0 0-.034.831 3.3 3.3 0 0 0 .252-.792l.014-.085h.078q.216.032.435.05l.08.007-.008.092a3.3 3.3 0 0 0 .062.831 3.3 3.3 0 0 0 .158-.817l.007-.094h.076c.145.005.292 0 .437 0h.077v.087a3.4 3.4 0 0 0 .16.824 3.3 3.3 0 0 0 .061-.829V19.1l.076-.006q.225-.02.434-.05l.077-.012.016.093a3.3 3.3 0 0 0 .252.792 3.4 3.4 0 0 0-.034-.83l-.015-.086.076-.016q.206-.042.426-.1l.075-.02.024.083a3.3 3.3 0 0 0 .344.764 3.3 3.3 0 0 0-.13-.82l-.027-.09.072-.025c.141-.046.28-.1.412-.15l.071-.028.036.083a3.4 3.4 0 0 0 .43.716 3.3 3.3 0 0 0-.226-.8l-.036-.086.07-.033q.209-.096.39-.2l.066-.036.046.076a3.3 3.3 0 0 0 .511.664 3.3 3.3 0 0 0-.317-.77l-.046-.083.064-.039q.191-.119.366-.242l.061-.043.056.072a3.3 3.3 0 0 0 .584.6 3.4 3.4 0 0 0-.4-.728l-.057-.076.06-.048q.171-.136.335-.282l.058-.052.065.071a3.3 3.3 0 0 0 .646.524 3.3 3.3 0 0 0-.485-.676l-.068-.068.056-.056q.15-.151.3-.319l.05-.057.07.057a3.3 3.3 0 0 0 .708.45 3.3 3.3 0 0 0-.56-.615l-.076-.06.05-.062q.133-.169.26-.35l.044-.063.078.051a3.3 3.3 0 0 0 .753.362 3.3 3.3 0 0 0-.628-.546l-.08-.053.04-.065q.116-.189.218-.379l.038-.069.085.045a3.3 3.3 0 0 0 .786.271 3.3 3.3 0 0 0-.687-.469l-.087-.04.034-.073q.095-.203.173-.4l.03-.073.09.034a3.3 3.3 0 0 0 .811.178 3.3 3.3 0 0 0-.738-.386l-.089-.033.024-.073a7 7 0 0 0 .125-.419l.02-.075.091.022a3.4 3.4 0 0 0 .83.083 3.4 3.4 0 0 0-.777-.3l-.093-.022.015-.075q.044-.21.075-.43l.01-.065h.093a3.4 3.4 0 0 0 .837-.013 3.3 3.3 0 0 0-.806-.206l-.1-.013.007-.075q.018-.226.024-.439m-9.295-5.75.016-.027.007-.01a2 2 0 0 1 1.575-.726 6.25 6.25 0 0 1 3.86.861 6.26 6.26 0 0 1 2.72 2.87 2 2 0 0 1 .183 1.721l-.009.018-.012.021a.97.97 0 0 1-.656.47 3 3 0 0 1-.75.052l-.175-.006a9 9 0 0 0-.357-.009l-2.459.014q-.224.012-.45.014a3 3 0 0 1-.5-.037 1.25 1.25 0 0 1-.686-.389 4.4 4.4 0 0 1-.5-.8l-.025-.046-1.222-2.073q-.088-.15-.19-.3l-.119-.185a2.8 2.8 0 0 1-.314-.633.97.97 0 0 1 .063-.8m2.734 5.565a.422.422 0 1 1-.42-.42.42.42 0 0 1 .42.42M9.448 16.1a2.7 2.7 0 0 1-.372.552.97.97 0 0 1-.72.344h-.054a2 2 0 0 1-1.414-1A6.26 6.26 0 0 1 5.7 12.217a6.26 6.26 0 0 1 1.13-3.79 2.01 2.01 0 0 1 1.4-1.02l.015.078-.007-.079h.043a.97.97 0 0 1 .728.334 2.6 2.6 0 0 1 .376.54l.13.24q.083.164.168.31l1.244 2.127a4.5 4.5 0 0 1 .45.826 1.1 1.1 0 0 1 .066.4 1.1 1.1 0 0 1-.06.392 4.5 4.5 0 0 1-.443.84l-.026.041-1.183 2.1c-.056.1-.108.2-.164.312Zm8.43-1.444a6.27 6.27 0 0 1-2.678 2.91 6.5 6.5 0 0 1-3.263.95 5 5 0 0 1-.585-.035 2.01 2.01 0 0 1-1.58-.7l-.014-.02-.016-.028a.97.97 0 0 1-.074-.8 2.2 2.2 0 0 1 .2-.464q.107-.188.22-.365.098-.15.183-.3l1.23-2.13a4.4 4.4 0 0 1 .491-.808 1.1 1.1 0 0 1 .31-.255 1.1 1.1 0 0 1 .37-.144 4.4 4.4 0 0 1 .946-.036h.05l2.408-.023c.115 0 .233-.008.358-.014l.136-.007a3 3 0 0 1 .788.04.97.97 0 0 1 .66.455l.015.027.01.017a2 2 0 0 1-.166 1.726Zm-9.802-2.487a3.85 3.85 0 0 1 1.57-3.1l-.1-.163c-.06-.1-.117-.21-.173-.316q-.063-.12-.127-.237l-.068-.118c-.262-.256-.472-.433-.472-.433s.134.312.347.7q-.1.08-.2.165a10 10 0 0 0-.63-.463s.17.294.424.654a5 5 0 0 0-.179.188c-.368-.229-.675-.384-.675-.384s.2.27.494.6a5 5 0 0 0-.158.21c-.39-.184-.71-.3-.71-.3s.227.242.556.531q-.07.111-.134.227a10 10 0 0 0-.736-.215s.253.214.61.462q-.057.12-.107.243a10 10 0 0 0-.75-.127s.273.181.654.385q-.042.126-.078.255a10 10 0 0 0-.757-.038s.292.147.693.3a5 5 0 0 0-.049.264c-.422.013-.752.05-.752.05s.3.112.72.222a5 5 0 0 0-.018.27c-.416.061-.737.136-.737.136s.313.075.736.135q.001.138.014.272c-.4.11-.713.22-.713.22s.318.038.743.05q.018.135.045.27c-.387.153-.678.3-.678.3s.318 0 .74-.038q.033.134.077.264c-.365.2-.635.374-.635.374s.314-.036.726-.12q.05.128.11.253c-.339.238-.586.444-.586.444s.307-.072.7-.2q.066.122.14.241c-.308.274-.529.507-.529.507s.3-.107.674-.284q.08.114.166.224a10 10 0 0 0-.463.563s.28-.14.634-.359q.093.105.192.2c-.234.337-.394.612-.394.612s.261-.17.587-.429q.105.093.214.18c-.193.361-.319.652-.319.652s.24-.2.532-.493l.054.035q.061-.112.118-.227c.054-.106.11-.216.168-.318l.1-.169a3.85 3.85 0 0 1-1.61-3.127m9.232.574s-.27-.1-.647-.2h-.089l-.135.007c-.12.006-.246.013-.365.014h-.317a3.845 3.845 0 0 1-5.255 3.18l-.083.144c-.058.1-.124.206-.187.307-.073.116-.149.236-.216.357a2.4 2.4 0 0 0-.152.32c-.03.14-.046.226-.046.226s.186-.248.4-.6q.13.051.265.095c-.058.4-.077.72-.077.72s.156-.269.331-.645q.135.036.274.064c-.01.408.007.724.007.724s.124-.285.254-.68q.138.02.28.031c.036.408.091.721.091.721s.09-.3.173-.707h.28c.084.4.175.707.175.707s.055-.308.091-.723q.14-.013.277-.034a10 10 0 0 0 .256.682s.02-.312.006-.73a6 6 0 0 0 .271-.066c.175.372.334.65.334.65s-.018-.314-.079-.728q.131-.045.26-.1c.217.351.41.61.41.61s-.055-.312-.165-.718q.125-.06.245-.126c.26.324.48.56.48.56s-.09-.3-.248-.7q.116-.073.228-.153c.295.294.545.5.545.5s-.127-.294-.33-.668q.106-.085.207-.177l.2-.189q.095-.096.184-.2c.36.221.654.37.654.37s-.194-.26-.48-.58q.081-.106.158-.218c.383.178.7.292.7.292s-.224-.238-.547-.523q.07-.114.131-.233c.4.133.73.211.73.211s-.253-.212-.609-.458a3 3 0 0 0 .1-.246c.418.087.752.126.752.126s-.276-.182-.66-.386q.039-.126.072-.254c.428.037.767.037.767.037s-.3-.15-.706-.308q.024-.129.042-.259c.424-.007.763-.046.763-.046m-7.3-4.824.118.184c.066.1.133.206.194.308l.122.207a3.844 3.844 0 0 1 5.3 3.034h.284c.118 0 .244 0 .364.01l.173.005h.178c.328-.094.564-.18.564-.18s-.338-.04-.782-.049a4 4 0 0 0-.047-.253c.407-.16.718-.316.718-.316s-.342 0-.785.042a6 6 0 0 0-.076-.244c.386-.208.678-.4.678-.4s-.34.04-.778.134l-.1-.232c.361-.252.631-.478.631-.478s-.336.08-.76.225a4 4 0 0 0-.13-.218c.331-.293.573-.55.573-.55s-.326.12-.732.313a5 5 0 0 0-.152-.2c.295-.33.507-.615.507-.615s-.31.156-.693.4a4 4 0 0 0-.174-.182c.256-.363.434-.67.434-.67s-.292.19-.644.475a5 5 0 0 0-.193-.16c.213-.39.354-.719.354-.719s-.268.225-.585.55a4 4 0 0 0-.209-.138c.165-.413.268-.755.268-.755s-.24.254-.518.613a5 5 0 0 0-.224-.112c.117-.429.18-.78.18-.78s-.21.28-.443.668a4 4 0 0 0-.236-.085c.066-.44.087-.8.087-.8s-.175.3-.362.716a4 4 0 0 0-.244-.058c.014-.444-.006-.8-.006-.8s-.139.321-.276.752a5 5 0 0 0-.249-.028c-.038-.443-.1-.794-.1-.794s-.1.334-.187.778h-.236c-.087-.436-.188-.777-.188-.777s-.062.343-.1.793a4 4 0 0 0-.25.028c-.139-.42-.276-.746-.276-.746s-.022.345 0 .8a4 4 0 0 0-.247.058c-.184-.4-.36-.708-.36-.708s.02.345.088.788a4 4 0 0 0-.24.086c-.229-.376-.438-.658-.438-.658s.046.265.14.624a1 1 0 0 0 .065.114M17.455 2H6.546A4.546 4.546 0 0 0 2 6.546v10.908A4.546 4.546 0 0 0 6.546 22h10.908A4.546 4.546 0 0 0 22 17.454V6.546A4.546 4.546 0 0 0 17.454 2m2.592 13.574a8.806 8.806 0 1 1 .7-3.436 8.8 8.8 0 0 1-.7 3.436"/></svg>