<?xml version="1.0" encoding="UTF-8"?>
<svg width="24px" fill="#44739e" height="24px" viewBox="0 0 24 24" version="1.1" xmlns="http://www.w3.org/2000/svg" xmlns:xlink="http://www.w3.org/1999/xlink">
            <path d="m 18.922234,12.313062 v -0.077 h 0.1 a 3.339,3.339 0 0 0 0.825,-0.111 3.339,3.339 0 0 0 -0.825,-0.111 h -0.1 v -0.077 c 0,-0.143 -0.013,-0.29 -0.026,-0.437 l -0.007,-0.079 0.1,-0.009 a 3.323,3.323 0 0 0 0.807,-0.205 3.3,3.3 0 0 0 -0.832,-0.015 l -0.1,0.013 -0.011,-0.077 c -0.021,-0.15 -0.047,-0.295 -0.075,-0.431 l -0.015,-0.075 0.086,-0.021 a 3.328,3.328 0 0 0 0.784,-0.3 3.381,3.381 0 0 0 -0.828,0.083 l -0.094,0.02 -0.019,-0.072 c -0.038,-0.141 -0.08,-0.282 -0.126,-0.4199997 l -0.024,-0.072 0.083,-0.031 a 3.311,3.311 0 0 0 0.744,-0.3879999 3.323,3.323 0 0 0 -0.812,0.1779999 l -0.09,0.034 -0.028,-0.073 c -0.053,-0.1319999 -0.112,-0.2669999 -0.174,-0.3999999 l -0.034,-0.07 0.086,-0.042 a 3.331,3.331 0 0 0 0.687,-0.469 3.313,3.313 0 0 0 -0.787,0.272 l -0.086,0.043 -0.036,-0.068 c -0.068,-0.127 -0.142,-0.254 -0.219,-0.379 l -0.041,-0.066 0.081,-0.052 a 3.32,3.32 0 0 0 0.629,-0.546 3.342,3.342 0 0 0 -0.751,0.361 l -0.075,0.051 -0.049,-0.061 c -0.083,-0.118 -0.171,-0.236 -0.262,-0.35 l -0.048,-0.061 0.069,-0.057 a 3.406,3.406 0 0 0 0.566,-0.619 3.3,3.3 0 0 0 -0.7,0.445 l -0.073,0.064 -0.052,-0.059 c -0.1,-0.109 -0.2,-0.216 -0.3,-0.318 l -0.055,-0.055 0.066,-0.069 a 3.33,3.33 0 0 0 0.487,-0.677 3.369,3.369 0 0 0 -0.647,0.524 l -0.062,0.068 -0.062,-0.048 c -0.109,-0.1 -0.222,-0.193 -0.335,-0.282 l -0.058,-0.049 0.057,-0.077 a 3.326,3.326 0 0 0 0.4,-0.728 3.312,3.312 0 0 0 -0.581,0.6 l -0.057,0.077 -0.064,-0.045 c -0.117,-0.083 -0.24,-0.164 -0.365,-0.24 l -0.066,-0.041 0.047,-0.081 a 3.337,3.337 0 0 0 0.318,-0.771 3.3,3.3 0 0 0 -0.508,0.659 l -0.047,0.083 -0.069,-0.036 c -0.123,-0.067 -0.255,-0.133 -0.391,-0.2 l -0.069,-0.031 0.033,-0.081 a 3.288,3.288 0 0 0 0.228,-0.808 3.364,3.364 0 0 0 -0.428,0.714 l -0.033,0.082 -0.075,-0.024 c -0.135,-0.054 -0.273,-0.1 -0.412,-0.15 l -0.072,-0.024 0.024,-0.078 a 3.405,3.405 0 0 0 0.133,-0.828 3.3,3.3 0 0 0 -0.343,0.758 l -0.028,0.089 -0.073,-0.019 c -0.148,-0.04 -0.287,-0.073 -0.426,-0.1 l -0.074,-0.015 0.014,-0.086 a 3.335,3.335 0 0 0 0.035,-0.838 3.373,3.373 0 0 0 -0.252,0.793 l -0.014,0.093 -0.078,-0.012 c -0.143,-0.021 -0.29,-0.038 -0.435,-0.05 l -0.078,-0.006 0.007,-0.093 a 3.329,3.329 0 0 0 -0.063,-0.831 3.332,3.332 0 0 0 -0.158,0.817 v 0.094 h -0.078 c -0.145,-0.005 -0.293,-0.005 -0.438,0 h -0.08 v -0.092 a 3.345,3.345 0 0 0 -0.159,-0.819 3.336,3.336 0 0 0 -0.062,0.83 l 0.006,0.087 -0.078,0.013 c -0.144,0.012 -0.291,0.029 -0.434,0.05 l -0.077,0.012 -0.014,-0.084 a 3.382,3.382 0 0 0 -0.254,-0.8 3.374,3.374 0 0 0 0.034,0.832 l 0.021,0.09 -0.08,0.016 c -0.14,0.029 -0.284,0.063 -0.426,0.1 l -0.076,0.021 -0.024,-0.088 a 3.339,3.339 0 0 0 -0.3430002,-0.76 3.319,3.319 0 0 0 0.125,0.816 l 0.028,0.085 -0.075,0.025 c -0.139,0.046 -0.278,0.1 -0.411,0.15 l -0.071,0.028 -0.031,-0.067 -0.007,-0.011 a 3.355,3.355 0 0 0 -0.427,-0.713 3.3,3.3 0 0 0 0.225,0.8 l 0.036,0.084 -0.067,0.029 c -0.136,0.063 -0.267,0.129 -0.391,0.2 l -0.068,0.037 -0.045,-0.079 a 3.31,3.31 0 0 0 -0.511,-0.658 3.309,3.309 0 0 0 0.316,0.769 l 0.044,0.081 -0.063,0.039 c -0.123,0.076 -0.246,0.157 -0.366,0.241 l -0.064,0.045 -0.052,-0.075 a 3.368,3.368 0 0 0 -0.583,-0.6 3.359,3.359 0 0 0 0.4,0.728 l 0.052,0.068 -0.057,0.053 c -0.111,0.088 -0.224,0.183 -0.335,0.282 l -0.057,0.052 -0.05,-0.056 0.047,-0.065 v 0 l -0.058,0.054 a 3.321,3.321 0 0 0 -0.646,-0.524 3.318,3.318 0 0 0 0.487,0.676 l 0.065,0.065 -0.056,0.056 c -0.1,0.1 -0.2,0.208 -0.3,0.319 l -0.052,0.059 -0.069,-0.06 a 3.271,3.271 0 0 0 -0.7,-0.446 3.323,3.323 0 0 0 0.561,0.615 l 0.07,0.058 -0.054,0.066 c -0.089,0.113 -0.177,0.231 -0.261,0.351 l -0.045,0.064 -0.076,-0.051 a 3.333,3.333 0 0 0 -0.749,-0.364 3.278,3.278 0 0 0 0.628,0.546 l 0.077,0.048 -0.039,0.065 c -0.078,0.126 -0.152,0.254 -0.219,0.379 l -0.039,0.062 -0.082,-0.04 a 3.3,3.3 0 0 0 -0.786,-0.271 3.293,3.293 0 0 0 0.688,0.469 l 0.069,0.035 -0.021,0.075 c -0.063,0.134 -0.122,0.269 -0.174,0.3999999 l -0.029,0.071 -0.083,-0.03 a 3.317,3.317 0 0 0 -0.814,-0.1789999 3.341,3.341 0 0 0 0.738,0.3869999 l 0.085,0.028 -0.025,0.075 c -0.046,0.1369997 -0.088,0.2779997 -0.126,0.4199997 l -0.019,0.073 -0.087,-0.013 a 3.288,3.288 0 0 0 -0.829,-0.083 3.318,3.318 0 0 0 0.777,0.3 h 0.015 l 0.072,0.019 -0.015,0.073 c -0.029,0.141 -0.054,0.287 -0.075,0.432 l -0.011,0.075 -0.084,-0.009 a 3.358,3.358 0 0 0 -0.838,0.013 3.3,3.3 0 0 0 0.807,0.206 h 0.016 l 0.073,0.011 -0.006,0.074 c -0.013,0.149 -0.022,0.3 -0.026,0.438 v 0.077 h -0.092 a 3.345,3.345 0 0 0 -0.825,0.11 3.339,3.339 0 0 0 0.825,0.111 h 0.091 v 0.077 c 0,0.143 0.012,0.29 0.025,0.437 l 0.007,0.078 -0.09,0.009 a 3.275,3.275 0 0 0 -0.806,0.206 3.354,3.354 0 0 0 0.832,0.014 l 0.09,-0.01 0.011,0.076 c 0.021,0.147 0.046,0.292 0.075,0.431 l 0.016,0.077 -0.076,0.017 -0.029,-0.075 v 0 l 0.018,0.077 a 3.3,3.3 0 0 0 -0.777,0.3 3.285,3.285 0 0 0 0.828,-0.083 l 0.088,-0.018 0.019,0.072 c 0.037,0.142 0.08,0.284 0.125,0.42 l 0.025,0.074 -0.084,0.029 a 3.311,3.311 0 0 0 -0.737,0.386 3.349,3.349 0 0 0 0.813,-0.178 l 0.072,-0.026 0.04,0.067 c 0.051,0.13 0.11,0.265 0.174,0.4 l 0.032,0.068 -0.076,0.04 a 3.373,3.373 0 0 0 -0.691,0.471 3.349,3.349 0 0 0 0.787,-0.271 l 0.079,-0.042 0.037,0.069 c 0.068,0.126 0.142,0.253 0.22,0.379 l 0.041,0.066 -0.065,0.042 -0.054,-0.059 0.043,0.066 a 3.278,3.278 0 0 0 -0.628,0.546 3.337,3.337 0 0 0 0.75,-0.361 l 0.077,-0.048 0.043,0.061 c 0.083,0.119 0.171,0.238 0.262,0.351 l 0.048,0.06 -0.068,0.057 a 3.311,3.311 0 0 0 -0.563,0.617 3.38,3.38 0 0 0 0.7,-0.445 l 0.07,-0.06 0.051,0.058 c 0.1,0.109 0.2,0.216 0.3,0.319 l 0.054,0.054 -0.059,0.074 a 3.314,3.314 0 0 0 -0.485,0.674 3.294,3.294 0 0 0 0.647,-0.524 l 0.063,-0.067 0.058,0.051 c 0.113,0.1 0.225,0.2 0.335,0.282 l 0.059,0.047 -0.051,0.071 a 3.318,3.318 0 0 0 -0.406,0.731 3.346,3.346 0 0 0 0.581,-0.6 l 0.046,-0.064 0.072,0.035 c 0.12,0.084 0.244,0.165 0.366,0.24 l 0.065,0.04 -0.043,0.076 a 3.347,3.347 0 0 0 -0.319,0.773 3.31,3.31 0 0 0 0.508,-0.659 l 0.039,-0.066 0.074,0.024 c 0.125,0.068 0.257,0.134 0.392,0.2 l 0.068,0.032 -0.028,0.069 -0.006,0.014 a 3.289,3.289 0 0 0 -0.226,0.8 3.287,3.287 0 0 0 0.428,-0.713 l 0.076,0.023 v 0 l -0.071,-0.035 0.03,-0.072 0.073,0.029 c 0.13,0.052 0.269,0.1 0.411,0.149 l 0.072,0.024 -0.023,0.083 a 3.328,3.328 0 0 0 -0.132,0.826 3.342,3.342 0 0 0 0.3420002,-0.758 l 0.021,-0.076 0.08,0.008 c 0.144,0.039 0.287,0.073 0.426,0.1 l 0.075,0.015 -0.016,0.091 a 3.319,3.319 0 0 0 -0.034,0.831 3.287,3.287 0 0 0 0.252,-0.792 l 0.014,-0.085 h 0.078 c 0.143,0.021 0.29,0.038 0.435,0.05 l 0.079,0.007 -0.007,0.092 a 3.293,3.293 0 0 0 0.062,0.831 3.305,3.305 0 0 0 0.158,-0.817 l 0.007,-0.094 h 0.076 c 0.145,0.005 0.292,0 0.437,0 h 0.077 v 0.087 a 3.382,3.382 0 0 0 0.159,0.824 3.28,3.28 0 0 0 0.062,-0.829 v -0.095 l 0.076,-0.006 c 0.149,-0.013 0.295,-0.03 0.434,-0.051 l 0.077,-0.011 0.016,0.093 a 3.257,3.257 0 0 0 0.252,0.792 3.367,3.367 0 0 0 -0.034,-0.831 l -0.015,-0.085 0.076,-0.016 c 0.136,-0.027 0.28,-0.062 0.426,-0.1 l 0.075,-0.02 0.024,0.083 a 3.316,3.316 0 0 0 0.344,0.764 3.319,3.319 0 0 0 -0.131,-0.821 l -0.026,-0.09 0.072,-0.024 c 0.141,-0.046 0.28,-0.1 0.412,-0.15 l 0.071,-0.028 0.036,0.083 a 3.348,3.348 0 0 0 0.429,0.716 3.308,3.308 0 0 0 -0.225,-0.8 l -0.036,-0.086 0.069,-0.033 c 0.141,-0.065 0.269,-0.13 0.391,-0.2 l 0.066,-0.036 0.046,0.076 a 3.339,3.339 0 0 0 0.511,0.664 3.323,3.323 0 0 0 -0.317,-0.77 l -0.046,-0.083 0.064,-0.039 c 0.127,-0.079 0.25,-0.16 0.366,-0.242 l 0.061,-0.043 0.056,0.072 a 3.312,3.312 0 0 0 0.584,0.6 3.369,3.369 0 0 0 -0.4,-0.728 l -0.057,-0.076 0.06,-0.048 c 0.114,-0.09 0.226,-0.185 0.335,-0.282 l 0.058,-0.052 0.065,0.071 a 3.321,3.321 0 0 0 0.646,0.524 3.318,3.318 0 0 0 -0.485,-0.676 l -0.068,-0.068 0.056,-0.056 c 0.1,-0.1 0.2,-0.208 0.3,-0.319 l 0.05,-0.057 0.069,0.057 a 3.335,3.335 0 0 0 0.709,0.45 3.323,3.323 0 0 0 -0.561,-0.615 l -0.075,-0.061 0.049,-0.061 c 0.089,-0.112 0.177,-0.23 0.261,-0.351 l 0.044,-0.062 0.078,0.051 a 3.336,3.336 0 0 0 0.753,0.362 3.341,3.341 0 0 0 -0.628,-0.546 l -0.081,-0.053 0.041,-0.065 c 0.077,-0.125 0.151,-0.253 0.218,-0.379 l 0.038,-0.069 0.085,0.045 a 3.329,3.329 0 0 0 0.786,0.271 3.31,3.31 0 0 0 -0.687,-0.469 l -0.087,-0.041 0.034,-0.072 c 0.063,-0.134 0.121,-0.27 0.173,-0.4 l 0.029,-0.073 0.09,0.034 a 3.323,3.323 0 0 0 0.812,0.178 3.344,3.344 0 0 0 -0.738,-0.386 l -0.089,-0.033 0.024,-0.073 c 0.046,-0.139 0.088,-0.28 0.125,-0.419 l 0.02,-0.075 0.091,0.022 a 3.347,3.347 0 0 0 0.83,0.083 3.363,3.363 0 0 0 -0.777,-0.3 l -0.093,-0.022 0.015,-0.075 c 0.029,-0.139 0.054,-0.284 0.075,-0.431 l 0.009,-0.064 h 0.064 0.03 a 3.351,3.351 0 0 0 0.837,-0.013 3.3,3.3 0 0 0 -0.806,-0.206 l -0.1,-0.013 0.007,-0.075 c 0.012,-0.151 0.02,-0.298 0.024,-0.439 z m -9.2950002,-5.7489996 0.016,-0.027 0.007,-0.011 v 0 a 2.006,2.006 0 0 1 1.5750002,-0.725 6.254,6.254 0 0 1 3.859,0.861 6.261,6.261 0 0 1 2.72,2.8689999 2.007,2.007 0 0 1 0.184,1.7219997 l -0.009,0.018 -0.012,0.021 a 0.974,0.974 0 0 1 -0.656,0.469 2.876,2.876 0 0 1 -0.751,0.053 l -0.174,-0.006 c -0.124,-0.005 -0.242,-0.009 -0.357,-0.009 l -2.459,0.014 c -0.149,0.007 -0.3,0.014 -0.45,0.014 a 2.885,2.885 0 0 1 -0.5,-0.037 1.252,1.252 0 0 1 -0.686,-0.389 4.438,4.438 0 0 1 -0.5,-0.8 l -0.025,-0.046 -1.222,-2.0729996 c -0.058,-0.1 -0.122,-0.1999999 -0.1900002,-0.3 -0.04,-0.061 -0.08,-0.123 -0.119,-0.185 a 2.77,2.77 0 0 1 -0.314,-0.633 0.974,0.974 0 0 1 0.063,-0.8 z m 2.7340002,5.5649996 a 0.422,0.422 0 1 1 -0.421,-0.421 0.422,0.422 0 0 1 0.421,0.421 z m -2.9090002,3.962 a 2.69,2.69 0 0 1 -0.372,0.552 0.967,0.967 0 0 1 -0.721,0.344 h -0.033 -0.02 a 2,2 0 0 1 -1.414,-1 6.255,6.255 0 0 1 -1.188,-3.779 6.258,6.258 0 0 1 1.13,-3.7899995 2.01,2.01 0 0 1 1.4,-1.021 l 0.015,0.079 -0.007,-0.079 h 0.043 a 0.971,0.971 0 0 1 0.728,0.334 2.635,2.635 0 0 1 0.376,0.54 c 0.044,0.079 0.087,0.16 0.129,0.24 0.057,0.109 0.112,0.212 0.169,0.31 l 1.2440002,2.1269995 a 4.491,4.491 0 0 1 0.45,0.826 1.06,1.06 0 0 1 0.066,0.4 1.093,1.093 0 0 1 -0.06,0.392 4.5,4.5 0 0 1 -0.443,0.839 l -0.026,0.042 -1.1830002,2.1 c -0.056,0.1 -0.108,0.2 -0.164,0.312 -0.037,0.071 -0.078,0.15 -0.119,0.232 z m 8.4290002,-1.444 a 6.266,6.266 0 0 1 -2.677,2.909 6.505,6.505 0 0 1 -3.263,0.95 5.148,5.148 0 0 1 -0.585,-0.034 2.013,2.013 0 0 1 -1.5800002,-0.7 l -0.014,-0.02 -0.016,-0.028 a 0.968,0.968 0 0 1 -0.074,-0.8 2.225,2.225 0 0 1 0.2,-0.464 c 0.069,-0.125 0.1460002,-0.247 0.2200002,-0.365 0.065,-0.1 0.127,-0.2 0.183,-0.3 l 1.229,-2.131 a 4.4,4.4 0 0 1 0.492,-0.807 1.067,1.067 0 0 1 0.31,-0.255 1.077,1.077 0 0 1 0.37,-0.144 4.442,4.442 0 0 1 0.946,-0.036 h 0.05 l 2.408,-0.023 c 0.115,0 0.233,-0.008 0.358,-0.014 l 0.136,-0.007 a 3.021,3.021 0 0 1 0.788,0.04 0.974,0.974 0 0 1 0.66,0.455 l 0.015,0.027 0.009,0.017 a 2.007,2.007 0 0 1 -0.165,1.726 z m -9.8010002,-2.487 a 3.846,3.846 0 0 1 1.569,-3.0999995 l -0.1,-0.163 c -0.059,-0.1 -0.116,-0.211 -0.172,-0.3160001 -0.042,-0.079 -0.084,-0.159 -0.127,-0.237 l -0.068,-0.118 c -0.262,-0.256 -0.472,-0.433 -0.472,-0.433 0,0 0.134,0.312 0.347,0.7 q -0.1,0.08 -0.2,0.165 c -0.341,-0.272 -0.63,-0.463 -0.63,-0.463 0,0 0.169,0.294 0.424,0.654 -0.061,0.061 -0.121,0.124 -0.179,0.188 -0.368,-0.2289999 -0.675,-0.384 -0.675,-0.384 0,0 0.2,0.27 0.494,0.6 -0.055,0.068 -0.107,0.138 -0.158,0.209 -0.39,-0.183 -0.711,-0.3 -0.711,-0.3 0,0 0.228,0.243 0.557,0.5319999 -0.047,0.074 -0.091,0.15 -0.134,0.227 -0.407,-0.136 -0.736,-0.215 -0.736,-0.215 0,0 0.253,0.214 0.61,0.4619997 -0.038,0.08 -0.073,0.16 -0.107,0.243 -0.417,-0.087 -0.751,-0.127 -0.751,-0.127 0,0 0.274,0.181 0.655,0.385 q -0.042,0.126 -0.078,0.255 c -0.422,-0.037 -0.757,-0.038 -0.757,-0.038 0,0 0.292,0.147 0.693,0.3 -0.019,0.087 -0.035,0.175 -0.049,0.264 -0.422,0.013 -0.752,0.05 -0.752,0.05 0,0 0.3,0.112 0.719,0.222 -0.008,0.089 -0.014,0.179 -0.017,0.269 -0.416,0.062 -0.737,0.137 -0.737,0.137 0,0 0.313,0.075 0.736,0.135 0,0.092 0.006,0.182 0.014,0.272 -0.4,0.109 -0.713,0.22 -0.713,0.22 0,0 0.318,0.038 0.743,0.049 q 0.018,0.136 0.045,0.27 c -0.387,0.154 -0.678,0.3 -0.678,0.3 0,0 0.318,0 0.739,-0.037 q 0.034,0.134 0.078,0.264 c -0.365,0.2 -0.635,0.374 -0.635,0.374 0,0 0.314,-0.036 0.726,-0.121 0.033,0.086 0.07,0.171 0.109,0.254 -0.338,0.238 -0.585,0.444 -0.585,0.444 0,0 0.307,-0.072 0.7,-0.2 0.044,0.081 0.09,0.162 0.139,0.241 -0.307,0.274 -0.528,0.507 -0.528,0.507 0,0 0.3,-0.107 0.674,-0.284 0.053,0.076 0.109,0.151 0.166,0.224 -0.272,0.307 -0.463,0.563 -0.463,0.563 0,0 0.28,-0.14 0.634,-0.359 0.062,0.069 0.126,0.137 0.192,0.2 -0.234,0.337 -0.394,0.612 -0.394,0.612 0,0 0.261,-0.171 0.587,-0.429 0.07,0.062 0.141,0.122 0.214,0.18 -0.193,0.361 -0.319,0.652 -0.319,0.652 0,0 0.239,-0.2 0.532,-0.493 l 0.054,0.035 c 0.041,-0.075 0.079,-0.151 0.118,-0.227 0.054,-0.106 0.11,-0.216 0.168,-0.318 l 0.1,-0.169 a 3.847,3.847 0 0 1 -1.611,-3.127 z m 9.2320002,0.574 c 0,0 -0.27,-0.1 -0.647,-0.2 h -0.089 l -0.135,0.007 c -0.121,0.006 -0.246,0.013 -0.365,0.014 h -0.317 a 3.845,3.845 0 0 1 -5.255,3.179 l -0.083,0.145 c -0.058,0.1 -0.124,0.206 -0.187,0.307 -0.073,0.116 -0.149,0.236 -0.216,0.357 a 2.361,2.361 0 0 0 -0.1520002,0.319 c -0.03,0.14 -0.046,0.227 -0.046,0.227 0,0 0.1860002,-0.248 0.4000002,-0.6 0.087,0.034 0.175,0.066 0.265,0.095 -0.058,0.4 -0.077,0.72 -0.077,0.72 0,0 0.156,-0.269 0.331,-0.645 0.09,0.024 0.181,0.045 0.274,0.064 -0.011,0.408 0.007,0.724 0.007,0.724 0,0 0.124,-0.285 0.254,-0.68 0.092,0.013 0.185,0.024 0.279,0.031 0.037,0.408 0.092,0.721 0.092,0.721 0,0 0.09,-0.3 0.173,-0.707 h 0.113 c 0.056,0 0.112,0 0.167,0 0.084,0.4 0.175,0.707 0.175,0.707 0,0 0.055,-0.308 0.091,-0.723 0.093,-0.009 0.185,-0.02 0.277,-0.034 0.13,0.389 0.256,0.682 0.256,0.682 0,0 0.019,-0.312 0.006,-0.73 0.091,-0.02 0.181,-0.042 0.271,-0.066 0.175,0.372 0.334,0.65 0.334,0.65 0,0 -0.018,-0.314 -0.079,-0.728 0.088,-0.03 0.174,-0.063 0.26,-0.1 0.217,0.351 0.409,0.61 0.409,0.61 0,0 -0.054,-0.312 -0.164,-0.718 0.083,-0.04 0.165,-0.082 0.245,-0.126 0.259,0.324 0.48,0.56 0.48,0.56 0,0 -0.091,-0.3 -0.248,-0.7 0.078,-0.048 0.153,-0.1 0.228,-0.153 0.295,0.294 0.545,0.5 0.545,0.5 0,0 -0.127,-0.294 -0.33,-0.668 0.07,-0.057 0.14,-0.116 0.207,-0.177 l 0.2,-0.189 c 0.063,-0.064 0.125,-0.131 0.184,-0.2 0.359,0.221 0.654,0.369 0.654,0.369 0,0 -0.194,-0.26 -0.481,-0.579 0.055,-0.071 0.108,-0.144 0.159,-0.218 0.383,0.178 0.7,0.292 0.7,0.292 0,0 -0.224,-0.238 -0.547,-0.523 0.046,-0.076 0.09,-0.154 0.131,-0.233 0.4,0.133 0.729,0.211 0.729,0.211 0,0 -0.252,-0.212 -0.608,-0.458 0.037,-0.081 0.071,-0.163 0.1,-0.246 0.418,0.087 0.752,0.126 0.752,0.126 0,0 -0.276,-0.182 -0.661,-0.386 0.027,-0.084 0.051,-0.169 0.073,-0.254 0.428,0.037 0.767,0.037 0.767,0.037 0,0 -0.3,-0.15 -0.706,-0.308 0.016,-0.086 0.03,-0.172 0.042,-0.259 0.424,-0.007 0.763,-0.046 0.763,-0.046 z m -7.3,-4.8239996 c 0.039,0.062 0.078,0.123 0.118,0.184 0.066,0.1 0.133,0.206 0.194,0.308 l 0.122,0.2070001 a 3.844,3.844 0 0 1 5.3,3.0339995 h 0.284 c 0.118,0 0.244,0 0.364,0.009 l 0.173,0.006 c 0.058,0 0.118,0 0.178,0 0.328,-0.094 0.564,-0.18 0.564,-0.18 0,0 -0.338,-0.04 -0.782,-0.049 -0.013,-0.085 -0.029,-0.169 -0.047,-0.253 0.407,-0.16 0.718,-0.316 0.718,-0.316 0,0 -0.342,0 -0.785,0.042 -0.024,-0.082 -0.049,-0.164 -0.076,-0.244 0.386,-0.208 0.678,-0.4 0.678,-0.4 0,0 -0.341,0.04 -0.778,0.134 -0.032,-0.078 -0.067,-0.156 -0.1,-0.232 0.361,-0.2519996 0.631,-0.4779996 0.631,-0.4779996 0,0 -0.336,0.08 -0.761,0.225 -0.041,-0.074 -0.084,-0.147 -0.129,-0.218 0.331,-0.2929999 0.573,-0.5499999 0.573,-0.5499999 0,0 -0.326,0.119 -0.732,0.313 -0.049,-0.068 -0.1,-0.135 -0.152,-0.2 0.295,-0.33 0.507,-0.615 0.507,-0.615 0,0 -0.311,0.156 -0.693,0.4 -0.056,-0.062 -0.114,-0.123 -0.174,-0.182 0.256,-0.363 0.434,-0.671 0.434,-0.671 0,0 -0.292,0.191 -0.644,0.476 -0.063,-0.055 -0.127,-0.109 -0.193,-0.161 0.213,-0.39 0.354,-0.718 0.354,-0.718 0,0 -0.268,0.225 -0.585,0.549 -0.068,-0.048 -0.138,-0.093 -0.209,-0.137 0.165,-0.413 0.268,-0.755 0.268,-0.755 0,0 -0.24,0.254 -0.518,0.613 -0.073,-0.039 -0.148,-0.076 -0.224,-0.112 0.117,-0.429 0.179,-0.781 0.179,-0.781 0,0 -0.209,0.28 -0.442,0.669 -0.078,-0.031 -0.157,-0.059 -0.236,-0.085 0.066,-0.44 0.087,-0.8 0.087,-0.8 0,0 -0.175001,0.3 -0.362001,0.716 -0.08,-0.022 -0.162,-0.041 -0.244,-0.058 0.014,-0.444 -0.006,-0.8 -0.006,-0.8 0,0 -0.139,0.321 -0.276,0.752 -0.083,-0.011 -0.166,-0.021 -0.249,-0.028 -0.038,-0.443 -0.1,-0.794 -0.1,-0.794 0,0 -0.1,0.334 -0.187,0.778 h -0.119 -0.117 c -0.087,-0.436 -0.188,-0.777 -0.188,-0.777 0,0 -0.062,0.343 -0.1,0.793 -0.084,0.007 -0.167,0.016 -0.25,0.028 -0.139,-0.42 -0.276,-0.746 -0.276,-0.746 0,0 -0.022,0.345 0,0.8 -0.083,0.017 -0.165,0.036 -0.247,0.058 -0.184,-0.4 -0.36,-0.708 -0.36,-0.708 0,0 0.02,0.345 0.088,0.788 -0.081,0.026 -0.161,0.055 -0.24,0.086 -0.229,-0.376 -0.4379996,-0.658 -0.4379996,-0.658 0,0 0.046,0.265 0.139,0.624 0.017,0.036 0.042,0.076 0.066001,0.1139999 z m 7.446,-5.919 H 6.5502338 a 4.546,4.546 0 0 0 -4.546,4.5460001 V 17.445062 a 4.546,4.546 0 0 0 4.546,4.546 H 17.458234 a 4.546,4.546 0 0 0 4.546,-4.546 V 6.5370624 a 4.546,4.546 0 0 0 -4.546,-4.546 z m 2.592,13.5739996 a 8.806,8.806 0 1 1 0.7,-3.436 8.77,8.77 0 0 1 -0.7,3.436 z"/>

</svg>