<?xml version="1.0" encoding="UTF-8" standalone="no"?>
<svg
   id="Livello_1"
   data-name="Livello 1"
   viewBox="0 0 24 24"
   version="1.1"
   width="24"
   height="24"
   xmlns="http://www.w3.org/2000/svg"
   xmlns:svg="http://www.w3.org/2000/svg">
  <path id="Colore_riempimento_1" fill="#44739e" data-name="Colore riempimento 1" class="cls-1"
       d="M 8.3424714,1.4134232 C 8.1550705,1.4049566 7.9709812,1.4116186 7.8483308,1.4739701 7.6721885,1.563515 7.5233567,1.7771041 7.3854402,1.9173294 L 6.4577058,2.8606888 3.3776276,5.9915482 2.3971589,6.9895951 C 2.206295,7.1836422 1.9860479,7.3568248 1.899112,7.6263138 1.7465378,8.0992725 1.852237,8.7388659 1.852237,9.2337357 v 3.3828123 2.355469 c 0,0.376255 -0.071628,0.835635 0.066406,1.191406 0.09699,0.24998 0.2959402,0.42374 0.4785156,0.609375 l 0.84375,0.859375 3.0800781,3.130859 1.0097656,1.025391 c 0.1464849,0.148936 0.3153183,0.384293 0.5175782,0.455078 0.1432682,0.05015 0.3401321,0.01758 0.4902344,0.01758 h 1.0371093 3.4335938 2.507812 c 0.272649,0 0.764466,0.0954 1.009766,-0.0293 0.176145,-0.08955 0.324973,-0.303133 0.462891,-0.443359 l 0.925781,-0.941406 c 1.022211,-1.039321 2.057522,-2.063841 3.080078,-3.103515 l 0.982422,-0.998047 c 0.188734,-0.191834 0.40904,-0.368804 0.488281,-0.638672 0.145168,-0.494393 0.0293,-1.096593 0.0293,-1.607422 v -3.380859 c 0,-0.794313 -0.0093,-1.588563 0,-2.3828122 0.0045,-0.380543 0.09417,-0.7958497 -0.04883,-1.1640625 -0.09235,-0.237796 -0.295332,-0.4057104 -0.46875,-0.5820312 L 20.932315,6.1302201 C 19.89196,5.0724474 18.837294,4.0272154 17.797549,2.9700638 17.44745,2.6141051 17.086743,2.2706579 16.735049,1.9173294 16.595598,1.777231 16.432501,1.5326085 16.244815,1.4622513 16.111524,1.4122781 15.920442,1.4466263 15.779971,1.4466263 H 14.772158 11.336612 8.8561433 c -0.1363241,0 -0.326271,-0.024736 -0.5136719,-0.033203 z m 1.5390625,2.0351562 c 0.4024951,-0.013429 0.8177241,0.021484 1.2109371,0.021484 h 3.134766 c 0.554499,0 1.321187,-0.1240136 1.726562,0.3613282 0.394739,0.4726049 0.263672,1.2255959 0.263672,1.8007812 0,1.475527 0.09752,2.9894346 -0.0039,4.4609372 -0.03418,0.495873 -0.357352,0.896075 -0.841797,0.990235 -0.548274,0.10657 -1.159609,0.03516 -1.716797,0.03516 h -3.244141 c -0.5861681,0 -1.3308267,0.112266 -1.7226555,-0.443359 C 8.3575018,10.206241 8.4752839,9.4730834 8.4752839,8.9290482 V 5.9075638 c 0,-0.5281992 -0.070393,-1.1167563 0.044922,-1.6347656 C 8.6290366,3.783915 9.0243759,3.5453024 9.4830964,3.4817826 9.6129586,3.4638006 9.7473688,3.4530556 9.8815339,3.4485794 Z M 9.6198152,4.6614701 v 3.9628906 h 1.2812498 v 1.1367187 h 2.917969 V 8.6243607 H 15.07294 V 4.6614701 Z m 0.5722658,0.5546875 h 0.68164 v 1.1367187 h -0.68164 z m 1.199218,0 h 0.681641 v 1.1367187 h -0.681641 z m 1.226563,0 h 0.68164 v 1.1367187 h -0.68164 z m 1.201172,0 h 0.679687 V 6.3528763 H 13.819034 Z M 10.79169,11.977876 h 0.845703 v 3.4375 h -0.708985 l -0.02734,-0.777344 -0.07813,-1.884765 z m 2.291015,0 h 0.708985 l 0.08008,2.521484 0.02734,0.638672 -0.02734,0.228516 -0.244141,0.04883 -0.544922,0.02734 z m -1.617187,5.177734 c 0.176058,0.0014 0.348312,0.02369 0.498047,0.05469 0.168623,0.0349 0.361456,0.09366 0.476562,0.232422 0.125942,0.151819 0.124989,0.361843 0.125,0.548828 0,0.368381 0.01456,0.741393 -0.002,1.109375 -0.02389,0.534309 -0.637845,0.521986 -0.761719,0.970703 -0.152703,0 -0.378197,0.04156 -0.517578,-0.0293 -0.148186,-0.07533 -0.248503,-0.23986 -0.382812,-0.33789 -0.171488,-0.125164 -0.354119,-0.212888 -0.417969,-0.4375 -0.07922,-0.278679 -0.01758,-0.652127 -0.01758,-0.941407 0,-0.312165 -0.07907,-0.726198 0.193359,-0.945312 0.212286,-0.170739 0.513211,-0.226895 0.806641,-0.22461 z m -1.7792966,0.01758 c 0.1180046,-5.45e-4 0.217424,0.04215 0.2519535,0.160156 0.06255,0.213836 0.0098,0.519266 0.0098,0.742187 v 1.607422 H 9.211612 v -1.109376 c -0.3877555,0.274404 -0.5345758,0.336879 -0.9003906,-0.02734 v 1.164062 H 7.5748933 v -2.439453 c 0.1634296,-0.04442 0.3194715,-0.103622 0.4921875,-0.07227 0.3306039,0.06002 0.5517913,0.483186 0.6816406,0.765625 0.1525549,-0.182435 0.2474499,-0.407643 0.4101562,-0.582031 0.082706,-0.08864 0.3306694,-0.208077 0.5273438,-0.208984 z m 5.2226556,0.07031 c 2e-5,0.130774 0.09158,0.492041 -0.01758,0.582031 -0.137274,0.11318 -0.484666,-0.01857 -0.566406,0.171875 -0.05967,0.139007 -0.01563,0.371649 -0.01563,0.521485 v 1.164062 h -0.791016 v -1.773437 l -0.626953,-0.05664 -0.05469,-0.582031 z m 0.216797,0 h 2.044922 v 0.609375 l -0.599609,0.05664 v 1.800783 H 15.807315 V 17.93686 l -0.654297,-0.08398 z m -3.923828,0.638672 v 1.273437 l 0.599609,-0.02734 v -1.246094 z" />
</svg>
