<svg xmlns="http://www.w3.org/2000/svg" viewBox="0 0 24 24"><path fill="#44739e" d="M7.538 3.593H7.5Zv-.002ZM18.24 2H5.76A3.76 3.76 0 0 0 2 5.76v12.48A3.76 3.76 0 0 0 5.76 22h12.48A3.76 3.76 0 0 0 22 18.24V5.76A3.76 3.76 0 0 0 18.24 2M9.551 19.771c-1.587 1.752-2.987 1.523-3.878.868-1.324-.974-1.708-2.068-.2-4.084l2.835-3.7a11.34 11.34 0 0 1 1.243 6.916m8.561.929c-1.177.869-2.145 1.127-3.7-.664l-2.54-3.7-1.764 2.727a20 20 0 0 0-.331-3.737 11.2 11.2 0 0 0-1.129-2.862l-3.5-5.489a2.865 2.865 0 0 1 .642-3.718 2.623 2.623 0 0 1 3.617.236l2.628 3.835 1.985-2.786a11.5 11.5 0 0 0 1.3 6.871l3.289 5.373c.667 1.343.745 2.997-.497 3.914m.413-13.5-3.006 3.921a12.7 12.7 0 0 1-1.081-7.144c1.587-1.752 3-1.516 3.889-.861 1.324.977 1.708 2.068.198 4.084"/></svg>