<?xml version="1.0" encoding="UTF-8"?>
<svg width="24px" fill="#44739e" height="24px" viewBox="0 0 24 24" version="1.1" xmlns="http://www.w3.org/2000/svg" xmlns:xlink="http://www.w3.org/1999/xlink">
            <path d="M 7.538,3.593 H 7.5 7.538 V 3.591 Z M 18.24,2 H 5.76 A 3.759,3.759 0 0 0 2,5.76 V 18.24 A 3.759,3.759 0 0 0 5.76,22 H 18.24 A 3.759,3.759 0 0 0 22,18.24 V 5.76 A 3.759,3.759 0 0 0 18.24,2 Z M 9.551,19.771 C 7.964,21.523 6.564,21.294 5.673,20.639 4.349,19.665 3.965,18.571 5.473,16.555 l 2.835,-3.7 a 11.344,11.344 0 0 1 1.243,6.916 z m 8.561,0.929 c -1.177,0.869 -2.145,1.127 -3.7,-0.664 l -2.54,-3.7 -1.764,2.727 A 20.191,20.191 0 0 0 9.777,15.326 11.224,11.224 0 0 0 8.648,12.464 L 5.148,6.975 A 2.865,2.865 0 0 1 5.79,3.257 2.623,2.623 0 0 1 9.407,3.493 l 2.628,3.835 1.985,-2.786 a 11.48,11.48 0 0 0 1.3,6.871 l 3.289,5.373 c 0.667,1.343 0.745,2.997 -0.497,3.914 z M 18.525,7.2 15.519,11.121 A 12.694,12.694 0 0 1 14.438,3.977 c 1.587,-1.752 3,-1.516 3.889,-0.861 1.324,0.977 1.708,2.068 0.198,4.084 z" />

</svg>
