<svg xmlns="http://www.w3.org/2000/svg" viewBox="0 0 24 24"><path fill="#44739e" d="M19.997 13.938c-1.28-.414-3.16-1.645-5.712-4.197-2.047-2.045-3.652-4.304-4.172-5.692-.113-.3.156-.605.47-.545.323.063.764.198 1.336.465 1.54.716 2.955 1.648 4.723 3.416 1.767 1.767 2.698 3.181 3.415 4.722.272.584.408 1.03.468 1.355.057.307-.232.572-.528.476m-2.965 3.487a.417.417 0 0 1-.525.267c-1.144-.37-2.57-1.297-4.188-2.71-1.914 1.05-5.043 2.291-4.962 2.825.155 1.023-.458 1.589-1.613.434s-.59-1.767.435-1.613c.536.081 1.784-3.089 2.838-4.999-1.258-1.496-2.253-3-2.655-4.075a.417.417 0 1 1 .779-.294c.527 1.404 2.165 3.633 4.077 5.545 2.81 2.81 4.567 3.777 5.546 4.095a.417.417 0 0 1 .268.525m4.341-5.649c-1.6-3.435-5.699-7.564-9.094-9.16-1.383-.65-2.416-.764-3.043-.443-.078.048-.153.102-.229.152a15.4 15.4 0 0 0-2.406 1.95C1.901 8.967.045 14.72 4.681 19.35c4.576 4.568 10.401 2.775 15.1-1.917a15.3 15.3 0 0 0 1.926-2.362l.103-.153c.344-.633.233-1.703-.438-3.141"/></svg>