<?xml version="1.0" encoding="UTF-8" standalone="no"?>
<svg
   width="24"
   height="24"
   viewBox="0 0 24 24"
   version="1.1"
   xmlns="http://www.w3.org/2000/svg"
   xmlns:svg="http://www.w3.org/2000/svg">
  <path
     style="fill:#44739e"
     d="M 11.775722,2.0000083 C 10.042159,1.9975083 8.9777779,2.5646738 8.916228,2.7098401 8.8388115,2.8922397 8.9650612,4.0421707 8.9490613,4.0220124 5.7812095,4.3210034 3.9952549,5.7937087 3.9952549,5.7937087 L 3.0767485,21.967167 5.734018,21.999997 c 0,0 0.7628567,-9.277947 0.7545401,-9.317047 C 6.831249,12.454342 7.144565,12.7157 7.144565,12.7157 l 0.098525,3.6415 1.8043546,0.295283 -0.032833,0.656157 -1.7387713,-0.360874 c 0,0 0.022917,2.767061 0,2.755794 1.2658057,0.82179 4.3632407,1.049815 4.3632407,1.049815 L 11.475114,3.3987887 c 0,0 -1.395697,0.06325 -1.5747964,-0.065583 C 9.726818,3.2084974 9.747918,2.8046316 9.9331509,2.7098401 10.28335,2.5305988 11.065857,2.4218991 11.868822,2.4176407 v 0.00167 c 0.04367,-8.333e-4 0.0874,-3e-4 0.131175,-7e-4 0.04375,4e-4 0.08748,-3.416e-4 0.131175,7e-4 v -0.00167 c 0.802965,0.00417 1.585472,0.1129581 1.935671,0.2921994 0.185191,0.094791 0.206291,0.4986573 0.03283,0.6233654 -0.1791,0.1287914 -1.574797,0.065583 -1.574797,0.065583 L 12.360913,20.753378 c 0,0 3.097434,-0.228025 4.36324,-1.049815 -0.02292,0.01125 0,-2.755794 0,-2.755794 l -1.738763,0.360874 -0.03283,-0.656157 1.804354,-0.295283 0.09852,-3.6415 c 0,0 0.313317,-0.2614 0.656015,-0.03275 C 17.503149,12.722033 18.265981,22 18.265981,22 l 2.65727,-0.03283 -0.918507,-16.1734583 c 0,0 -1.785955,-1.4727053 -4.953806,-1.7716963 -0.01608,0.020167 0.110216,-1.1297727 0.03283,-1.3121723 -0.06417,-0.1512747 -1.219196,-0.7588901 -3.083726,-0.7045068 -0.07525,-0.0025 -0.151316,-0.005 -0.224233,-0.005 z"/>
</svg>
