<svg xmlns="http://www.w3.org/2000/svg" viewBox="0 0 24 24"><path fill="#44739e" d="M14.442 9.771a2.32 2.32 0 0 0-2.168 2.555 2.21 2.21 0 0 0 2.309 2.326c1.357.017 2.256-.864 2.256-1.516h-1.5a.76.76 0 0 1-.7.423c-.529 0-.829-.3-.829-1.022h3.048c-.003-2.273-1.13-2.766-2.416-2.766m-.583 1.85c0-.476.194-.864.74-.864a.79.79 0 0 1 .811.864Zm-4.29-1.85A2.32 2.32 0 0 0 7.4 12.326a2.21 2.21 0 0 0 2.31 2.326c1.357.017 2.256-.864 2.256-1.516h-1.5a.76.76 0 0 1-.7.423c-.529 0-.828-.3-.828-1.022h3.048c-.003-2.273-1.13-2.766-2.417-2.766m-.582 1.85c0-.476.194-.864.74-.864a.79.79 0 0 1 .81.864Zm-3.516.687a.862.862 0 0 1-.969.9.877.877 0 0 1-.916-.916v-.775H2v.792c0 .811.247 2.257 2.52 2.257s2.59-1.552 2.59-2.292V7.975H5.471Zm14.59-2.484a1.43 1.43 0 0 0-1.117.435c-.106.128-.239.263-.239-.065v-.247h-1.516v6.079h1.533v-1.674c0-.124.123-.105.212 0a1.6 1.6 0 0 0 1.146.37c1.216 0 1.92-1.057 1.92-2.5 0-1.87-1.18-2.398-1.939-2.398m-.456 3.823c-.741 0-.935-.476-.918-1.374s.37-1.273.846-1.273c.776 0 .917.6.917 1.216s-.106 1.43-.845 1.43"/></svg>