<?xml version="1.0" encoding="UTF-8"?>
<svg width="24px" fill="#44739e" height="24px" viewBox="0 0 24 24" version="1.1" xmlns="http://www.w3.org/2000/svg" xmlns:xlink="http://www.w3.org/1999/xlink">
            <path d="m 14.442,10.191643 a 2.32,2.32 0 0 0 -2.168,2.554999 2.211,2.211 0 0 0 2.309,2.326 c 1.357,0.017 2.256,-0.864 2.256,-1.516 h -1.5 a 0.758,0.758 0 0 1 -0.7,0.423 c -0.529,0 -0.829,-0.3 -0.829,-1.022 h 3.048 c -0.003,-2.272999 -1.13,-2.765999 -2.416,-2.765999 z m -0.583,1.849999 c 0,-0.476 0.194,-0.864 0.74,-0.864 a 0.789,0.789 0 0 1 0.811,0.864 z M 9.5690002,10.191643 a 2.32,2.32 0 0 0 -2.169,2.554999 2.211,2.211 0 0 0 2.31,2.326 c 1.3569998,0.017 2.2559998,-0.864 2.2559998,-1.516 h -1.5 a 0.757,0.757 0 0 1 -0.6999998,0.423 c -0.529,0 -0.828,-0.3 -0.828,-1.022 H 11.986 c -0.003,-2.272999 -1.13,-2.765999 -2.4169998,-2.765999 z m -0.582,1.849999 c 0,-0.476 0.194,-0.864 0.74,-0.864 a 0.789,0.789 0 0 1 0.8099998,0.864 z m -3.516,0.687 a 0.862,0.862 0 0 1 -0.969,0.9 0.877,0.877 0 0 1 -0.916,-0.916 v -0.775 h -1.586 v 0.793 c 0,0.81 0.247,2.256 2.52,2.256 2.273,0 2.59,-1.551 2.59,-2.291 V 8.3956427 h -1.639 z M 20.061,10.244643 a 1.426,1.426 0 0 0 -1.117,0.435 c -0.106,0.128 -0.239,0.262999 -0.239,-0.065 v -0.247 h -1.516 v 6.078999 h 1.533 v -1.674 c 0,-0.124 0.123,-0.105 0.212,0 a 1.611,1.611 0 0 0 1.146,0.37 c 1.216,0 1.92,-1.057 1.92,-2.5 0,-1.869999 -1.18,-2.397999 -1.939,-2.397999 z m -0.456,3.822999 c -0.741,0 -0.935,-0.476 -0.918,-1.374 0.017,-0.898 0.37,-1.273 0.846,-1.273 0.776,0 0.917,0.6 0.917,1.216 0,0.616 -0.106,1.431 -0.845,1.431 z"/>

</svg>