<?xml version="1.0" encoding="UTF-8"?>
<svg width="24px" fill="#44739e" height="24px" viewBox="0 0 24 24" version="1.1" xmlns="http://www.w3.org/2000/svg" xmlns:xlink="http://www.w3.org/1999/xlink">
            <path d="M 11.979,7 V 7 A 2.147,2.147 0 0 0 11.358,7.092 1.052,1.052 0 1 1 9.965,8.492 2.107,2.107 0 1 0 11.979,7 Z m 5.683,5.316 c 0.631,-0.953 0.979,-1.478 0.979,-3.8 v 0 A 6.6,6.6 0 0 0 12.185,2 6.645,6.645 0 0 0 7.518,4.089 7.5,7.5 0 0 0 5.359,9.447 5.714,5.714 0 0 0 6.4,12.1 c 0.076,0.12 0.14,0.223 0.186,0.3 a 0.942,0.942 0 0 1 -0.237,1.177 c -0.169,0.2 -0.192,0.25 -0.169,0.29 a 4.425,4.425 0 0 0 1.047,-0.335 12.9,12.9 0 0 1 1.279,-0.446 2.54,2.54 0 0 1 1.553,0.163 2.481,2.481 0 0 0 0.744,0.173 4.083,4.083 0 0 0 1.057,-0.245 2.487,2.487 0 0 1 1.194,-0.208 4.558,4.558 0 0 1 0.531,0.219 3.853,3.853 0 0 0 1.172,0.412 7.691,7.691 0 0 1 1.284,-0.132 2.06,2.06 0 0 1 1.4,0.494 C 17.58,14.075 17.58,14.075 17.724,14 17.716,13.992 17.656,13.881 17.611,13.8 A 1.18,1.18 0 0 1 17.543,12.491 Z M 7.14,7.206 a 0.404,0.404 0 0 1 -0.808,0 c 0,-2.453 3.169,-4.894 5.624,-4.894 a 0.4035,0.4035 0 1 1 0,0.807 C 9.947,3.119 7.14,5.2 7.14,7.206 Z m 7.874,3.364 c -0.025,0.051 -0.053,0.1 -0.082,0.147 v 0 a 2.244,2.244 0 0 1 -1.313,1.013 4.052,4.052 0 0 1 -1.565,0.343 C 10.186,12.106 8.637,10.913 8.576,9.399 A 4.246,4.246 0 0 1 9.332,7.292 4.456,4.456 0 0 1 10.78,5.582 c 1.342,-0.706 3.151,0.041 4.056,1.675 a 4.057,4.057 0 0 1 0.486,1.511 2.22,2.22 0 0 1 0.066,0.513 2.338,2.338 0 0 1 -0.374,1.289 z m -1.588,2.978 a 4.652,4.652 0 0 0 -0.471,-0.2 0.683,0.683 0 0 0 -0.288,0.011 c 0,0.23 0.008,0.459 0.012,0.69 0.018,0.949 0.036,1.931 0.033,2.923 A 42.262,42.262 0 0 0 13.065,22 66.071,66.071 0 0 0 13.788,15.3 c 0.026,-0.553 0.015,-1.084 -0.008,-1.592 -0.114,-0.052 -0.231,-0.108 -0.354,-0.16 z m -4.815,-0.08 c -0.268,0.071 -0.554,0.173 -0.832,0.277 a 25.319,25.319 0 0 0 -0.222,4.1 18.194,18.194 0 0 0 0.7,4.116 C 8.257,21.883 8.249,21.8 8.245,21.717 A 38.368,38.368 0 0 1 8.227,17.85 25.9,25.9 0 0 1 8.678,14.5 c 0.064,-0.353 0.128,-0.71 0.19,-1.074 a 1.392,1.392 0 0 0 -0.257,0.042 z m 1.457,0.198 a 29.1,29.1 0 0 0 -0.021,3.126 20.572,20.572 0 0 0 0.912,5.155 c 0,-0.163 -0.015,-0.357 -0.025,-0.563 a 44.93,44.93 0 0 1 -0.022,-4.584 29.6,29.6 0 0 1 0.343,-3.043 2.118,2.118 0 0 1 -0.449,0.06 2.339,2.339 0 0 1 -0.738,-0.151 z m 5.164,0.258 a 28.22,28.22 0 0 1 0.326,2.928 44.663,44.663 0 0 1 -0.022,4.585 c -0.01,0.206 -0.02,0.4 -0.025,0.563 a 20.43,20.43 0 0 0 0.912,-5.154 27.989,27.989 0 0 0 -0.012,-2.954 4.274,4.274 0 0 0 -1.179,0.032 z m -1.055,-0.059 c 0.016,0.413 0.021,0.84 0,1.283 0.04,0.394 0.084,0.777 0.128,1.151 0.085,0.714 0.166,1.388 0.2,2.084 0.054,1.162 0.026,2.034 0,2.618 a 14.178,14.178 0 0 0 0.394,-2.624 21.786,21.786 0 0 0 -0.2,-4.383 1.92,1.92 0 0 1 -0.522,-0.129 z M 9.1,15.109 A 26.043,26.043 0 0 0 8.86,19.134 10.639,10.639 0 0 0 9.042,20.6 C 9.033,20.21 9.033,19.725 9.06,19.142 a 32.462,32.462 0 0 1 0.509,-4.086 c 0.017,-0.093 0.039,-0.2 0.063,-0.311 0.01,-0.395 0.026,-0.8 0.051,-1.2 A 3.43,3.43 0 0 0 9.334,13.456 C 9.259,13.941 9.152,14.664 9.1,15.109 Z"/>

</svg>