<svg xmlns="http://www.w3.org/2000/svg" viewBox="0 0 24 24"><path fill="#44739e" d="M11.979 7a2.2 2.2 0 0 0-.621.092 1.052 1.052 0 1 1-1.393 1.4A2.107 2.107 0 1 0 11.979 7m5.683 5.316c.631-.953.979-1.478.979-3.8A6.6 6.6 0 0 0 12.185 2a6.65 6.65 0 0 0-4.667 2.089 7.5 7.5 0 0 0-2.159 5.358A5.7 5.7 0 0 0 6.4 12.1c.076.12.14.223.186.3a.94.94 0 0 1-.237 1.177c-.169.2-.192.25-.169.29a4.4 4.4 0 0 0 1.047-.335 13 13 0 0 1 1.279-.446 2.54 2.54 0 0 1 1.553.163 2.5 2.5 0 0 0 .744.173 4 4 0 0 0 1.057-.245 2.5 2.5 0 0 1 1.194-.208 5 5 0 0 1 .531.219 3.9 3.9 0 0 0 1.172.412 7.7 7.7 0 0 1 1.284-.132 2.06 2.06 0 0 1 1.4.494c.139.113.139.113.283.038-.008-.008-.068-.119-.113-.2a1.18 1.18 0 0 1-.068-1.309ZM7.14 7.206a.404.404 0 0 1-.808 0c0-2.453 3.169-4.894 5.624-4.894a.404.404 0 1 1 0 .807C9.947 3.119 7.14 5.2 7.14 7.206m7.874 3.364q-.038.076-.082.147a2.24 2.24 0 0 1-1.313 1.013 4.1 4.1 0 0 1-1.565.343c-1.868.033-3.417-1.16-3.478-2.674a4.25 4.25 0 0 1 .756-2.107 4.46 4.46 0 0 1 1.448-1.71c1.342-.706 3.151.041 4.056 1.675a4.1 4.1 0 0 1 .486 1.511 2.2 2.2 0 0 1 .066.513 2.34 2.34 0 0 1-.374 1.289m-1.588 2.978a5 5 0 0 0-.471-.2.7.7 0 0 0-.288.011c0 .23.008.459.012.69.018.949.036 1.931.033 2.923A42 42 0 0 0 13.065 22a66 66 0 0 0 .723-6.7c.026-.553.015-1.084-.008-1.592-.114-.052-.231-.108-.354-.16m-4.815-.08a9 9 0 0 0-.832.277 25.3 25.3 0 0 0-.222 4.1 18.2 18.2 0 0 0 .7 4.116c0-.078-.008-.161-.012-.244a38 38 0 0 1-.018-3.867 26 26 0 0 1 .451-3.35q.097-.529.19-1.074a1.4 1.4 0 0 0-.257.042m1.457.198a29 29 0 0 0-.021 3.126 20.6 20.6 0 0 0 .912 5.155c0-.163-.015-.357-.025-.563a45 45 0 0 1-.022-4.584 30 30 0 0 1 .343-3.043 2 2 0 0 1-.449.06 2.3 2.3 0 0 1-.738-.151m5.164.258a28 28 0 0 1 .326 2.928 45 45 0 0 1-.022 4.585c-.01.206-.02.4-.025.563a20.4 20.4 0 0 0 .912-5.154 28 28 0 0 0-.012-2.954 4.3 4.3 0 0 0-1.179.032m-1.055-.059c.016.413.021.84 0 1.283q.061.59.128 1.151c.085.714.166 1.388.2 2.084a28 28 0 0 1 0 2.618 14 14 0 0 0 .394-2.624 21.8 21.8 0 0 0-.2-4.383 2 2 0 0 1-.522-.129M9.1 15.109a26 26 0 0 0-.24 4.025 11 11 0 0 0 .182 1.466 21 21 0 0 1 .018-1.458 33 33 0 0 1 .509-4.086c.017-.093.039-.2.063-.311.01-.395.026-.8.051-1.2a3 3 0 0 0-.349-.089 54 54 0 0 0-.234 1.653"/></svg>