<?xml version="1.0" encoding="UTF-8"?>
<svg width="24px" fill="#44739e" height="24px" viewBox="0 0 24 24" version="1.1" xmlns="http://www.w3.org/2000/svg" xmlns:xlink="http://www.w3.org/1999/xlink">
            <path d="M 11.792,6.479 9.229,7.1 c 0.042,0.188 0.1,0.375 0.146,0.563 q 1.25,-0.313 2.563,-0.625 z m -5.709,6.167 c 0.875,-1.625 1.75,-3.271 2.584,-4.813 -1.438,0.209 -3,3 -2.584,4.813 z M 12,8.292 a 1.489,1.489 0 0 0 -0.841,0.257 c 0.024,0 0.046,-0.007 0.07,-0.007 A 0.771,0.771 0 0 1 12,9.313 c 0,0.01 0,0.02 0,0.031 0,0.011 0,0.02 0,0.031 A 0.788,0.788 0 0 1 10.458,9.563 1.326,1.326 0 0 0 10.438,9.854 1.563,1.563 0 1 0 12,8.292 Z M 12,2.4 A 9.808,9.808 0 0 0 2,12 9.808,9.808 0 0 0 12,21.6 9.808,9.808 0 0 0 22,12 9.808,9.808 0 0 0 12,2.4 Z m 5.458,12.187 c -0.4,1.6 -0.145,2.5 0.938,4.73 -0.188,0.145 -0.375,0.291 -0.583,0.437 a 5.869,5.869 0 0 1 -0.521,-0.958 15.3,15.3 0 0 1 -0.688,-3.334 c -0.125,-1.25 0,-1.271 -1.479,-1.562 -0.021,2.791 -0.292,4.937 1.229,6.708 -0.229,0.1 -0.479,0.209 -0.708,0.292 a 6.152,6.152 0 0 1 -1.021,-2.354 23.092,23.092 0 0 1 -0.208,-4.167 c -0.042,-0.792 -0.292,-1.042 -1.209,-0.854 -0.041,3.062 -0.083,5.708 0.98,7.812 -0.209,0.042 -0.417,0.084 -0.646,0.125 A 11.022,11.022 0 0 1 12.354,17.5 c -0.208,-1.729 0.125,-2.354 0.021,-4.146 -0.708,-0.271 -1.062,-0.1 -1,0.813 0.167,2.5 -0.4,3.875 -1.312,6.229 -0.126,0.312 -0.271,0.625 -0.417,0.916 L 8.958,21.125 A 8.886,8.886 0 0 0 9.583,19.6 c 0.75,-2.354 1.292,-3.646 1,-6.083 -0.854,-0.188 -1.083,0.1 -1.145,0.875 A 23.15,23.15 0 0 1 8.25,19.271 5.824,5.824 0 0 1 7.667,20.646 c -0.23,-0.1 -0.459,-0.229 -0.688,-0.354 a 5.788,5.788 0 0 0 0.479,-0.875 c 0.938,-2.105 1.417,-3.209 1.229,-5.459 -1.208,-0.062 -1.52,0.459 -1.437,1.584 0.125,1.687 -0.4,2.291 -1.458,3.75 a 0.378,0.378 0 0 1 -0.1,0.145 C 5.504,19.292 5.358,19.167 5.192,19.021 A 4.865,4.865 0 0 0 6.484,14.687 C 4.755,14.396 4.63,14.229 4.713,12.521 a 7.722,7.722 0 0 1 7.334,-6.979 7.7,7.7 0 0 1 7.125,7.166 c 0.036,1.584 -0.109,1.75 -1.714,1.875 z"/>

</svg>