<?xml version="1.0" encoding="UTF-8"?>
<svg width="24px" fill="#44739e" height="24px" viewBox="0 0 24 24" version="1.1" xmlns="http://www.w3.org/2000/svg" xmlns:xlink="http://www.w3.org/1999/xlink">
            <path d="M 12,2 V 2 C 9.355,2 0.835,17.448 2.134,20.055 c 1.299,2.607 18.45,2.578 19.735,0 C 23.154,17.477 14.648,2 12,2 Z m 6.469,15.793 v 0 c -0.84,1.69 -12.077,1.708 -12.928,0 C 4.69,16.085 10.267,5.963 12,5.963 c 1.733,0 7.311,10.137 6.469,11.83 z M 12,9.664 v 0 c -0.878,0 -3.7,5.125 -3.275,5.991 0.425,0.866 6.124,0.856 6.55,0 C 15.701,14.799 12.88,9.664 12,9.664 Z"/>

</svg>
