<?xml version="1.0" encoding="UTF-8"?>
<svg id="Layer_1" data-name="Layer 1" xmlns="http://www.w3.org/2000/svg" viewBox="0 0 275.98 193.41">
  <defs>
    <style>
      .cls-1 {
        fill: #8b8b8b;
      }

      .cls-2 {
        fill: #414141;
      }

      .cls-3 {
        fill: #fff;
      }

      .cls-4 {
        fill: #b1b1b1;
      }

      .cls-5 {
        fill: #606060;
      }

      .cls-6 {
        fill: #424242;
      }

      .cls-7 {
        fill: #fcfcfc;
      }

      .cls-8 {
        opacity: .5;
      }

      .cls-9 {
        fill: #080808;
      }
    </style>
  </defs>
  <g class="cls-8">
    <path class="cls-7" d="M141.19.12v26.85s26.58-13.45,26.58-13.45L141.3.12h134.55l-.03,170.36c0-.62-.28-1.3-.44-1.91-.71-2.71-2.65-3.95-5.43-4.25s-5.65-.34-8.46.11c-1.46.24-2.83.76-3.84,1.83l-.73.94c-.49.64-.58,1.5-.79,2.26l-.23.84c-.29,2.79-.28,5.53-.02,8.32.03.35.18.71.28,1.03.24.76.39,1.56.85,2.17.43.57.86,1.06,1.47,1.45,1.13.72,2.45,1.06,3.82,1.22,2.72.31,5.42.29,8.14,0,1.33-.14,2.61-.52,3.66-1.27.87-.63,1.69-2.15,1.71-2.84l.04,12.89H.12V.12h141.07ZM98.92,45.22v-26.94s-26.66,13.47-26.66,13.47l26.66,13.47ZM131.74,31.75l-26.57-13.44v26.88s26.57-13.44,26.57-13.44ZM170.92,45.18v-26.87s-26.59,13.44-26.59,13.44l26.59,13.43ZM203.84,31.75l-26.63-13.46v26.91s26.63-13.45,26.63-13.45ZM95.71,49.96l-26.59-13.44v26.89s26.59-13.44,26.59-13.44ZM134.9,63.4v-26.88s-26.61,13.44-26.61,13.44l26.61,13.44ZM167.76,49.96l-26.57-13.45v26.89s26.57-13.44,26.57-13.44ZM206.97,63.4v-26.89s-26.6,13.45-26.6,13.45l26.6,13.44ZM98.92,81.65v-26.94s-26.66,13.47-26.66,13.47l26.66,13.47ZM131.74,68.18l-26.57-13.44v26.88s26.57-13.44,26.57-13.44ZM95.72,86.4l-26.6-13.44v26.88s26.6-13.44,26.6-13.44ZM134.9,99.84v-26.88s-26.61,13.44-26.61,13.44l26.61,13.44ZM167.76,86.4l-26.57-13.45v26.88s26.57-13.44,26.57-13.44ZM206.97,99.83v-26.89s-26.6,13.45-26.6,13.45l26.6,13.44ZM98.74,117.99v-26.75s-26.46,13.38-26.46,13.38l26.46,13.38ZM170.93,118.06v-26.89s-26.61,13.45-26.61,13.45l26.61,13.44ZM203.82,104.62l-26.61-13.45v26.91s26.61-13.45,26.61-13.45ZM134.9,136.27v-26.88s-26.61,13.44-26.61,13.44l26.61,13.44ZM167.76,122.83l-26.57-13.45v26.89s26.57-13.44,26.57-13.44ZM17.64,164.36h-4.37s-.99,1.03-.99,1.03l-1.03,1.01-1.1,1.07-.98.95-.86.83-.98.95-1.04,1.01-1.32,1.18-1.19-.07v-16.57s-3.53,0-3.53,0v28.74s3.53,0,3.53,0v-9.64s1.22-.04,1.22-.04l1.48,1.41,8.34,8.26h4.61s-10.76-10.08-10.76-10.08c-.34-.27-.6-.53-.81-.84l8.54-8.03,1.24-1.17ZM53.49,155.74h-3.56v28.74h3.56v-28.74ZM91.1,155.73h-3.56s0,3.35,0,3.35h3.56s0-3.35,0-3.35ZM98.76,180.94l.58.99c1.73,2.96,7.25,3.04,10.62,2.58,1.05-.14,2.05-.5,2.91-1.05.65-.42.94-.88,1.51-1.62l.06,2.64h3.4s0-28.74,0-28.74h-3.41s-.02,11.13-.02,11.13c-.54-.7-.77-1.18-1.38-1.53-.65-.38-1.38-.7-2.16-.85-3.6-.69-9.78-.7-11.6,2.57l-.56,1c-1.07,1.92-1.09,10.93.05,12.89ZM24.6,173.48c-.23.15-.64.43-.79.65l-.92,1.36c-.55,1.92-.6,3.91-.05,5.84.91,1.94,2.41,2.81,4.58,3.12,2.73.4,8.8.6,10.47-1.08l.99-.99.02,2.09h3.41s-.01-14.51-.01-14.51c0-3.2-1.86-5-4.95-5.55-1.7-.3-3.38-.42-5.11-.31l-4.75.3c-3.2.59-4.46,2.43-4.26,5.65h3.52c-.09-1.17.07-1.6.74-2.51.84-.54,1.78-.81,2.77-.88,1.68-.12,3.32-.11,5.01.03.98.08,1.91.36,2.67.99.3.25.95,1.58.95,2.18v4.51s-.82-.93-.82-.93c-.86-.56-1.87-.82-2.92-.95-3-.37-8.15-.53-10.54.98ZM80.58,178.36h-3.61c-.02.72.03,1.48-.2,2.17-.28.83-1.14,1.37-2.03,1.48-2.55.33-5.14.32-7.68,0-1.57-.2-2.76-1.26-2.83-2.78l-.18-4.13h16.52s-.12-4.94-.12-4.94l-.21-.41c-.32-3.18-2.09-4.89-5.26-5.36-2.67-.39-5.34-.36-8.03-.08-1.28.14-2.52.47-3.59,1.1-1.23.73-1.89,1.84-2.33,3.14l-.33.98c-.43,2.82-.54,7.85.15,10.46l.48,1.17c.91,2.22,3.44,3.11,5.81,3.36,2.66.27,5.29.27,7.95-.02,1.3-.14,2.55-.48,3.6-1.23l.82-.75c.47-.43.61-1.17.85-1.81.26-.72.21-1.57.21-2.37ZM141.54,178.36c-.03.68-.06.8-.18,1.19-.06.59-.12,1.39-.65,1.81-.62.5-1.48.7-2.29.76-2.08.15-4.11.17-6.18,0-1.57-.13-2.91-.69-3.3-2.17-.13-.26-.3-.62-.31-.9l-.16-3.95h16.52s-.02-3.36-.02-3.36c0-1.14-.19-2.29-.43-3.38l-.4-.84c-.27-.57-.55-1.07-1.02-1.52-.9-.87-2.09-1.36-3.37-1.56-3.18-.5-10.04-.67-12.22,1.2l-.77.66-.82,1.17c-.37.52-.51,1.29-.63,1.96l-.36,1.93c-.23,2.2-.19,4.36,0,6.56l.26,1.2c.17.8.26,1.72.72,2.35l.84,1.13c.15.2.55.49.79.64,1.16.73,2.44,1.1,3.83,1.25,2.89.32,5.78.33,8.66-.05,1.94-.26,3.69-1.1,4.51-2.83.49-1.03.43-2.14.42-3.27h-3.44ZM165.55,184.52c1.39-.14,2.63-.55,3.63-1.34.59-.47.93-1.02,1.21-1.71l.31-.78c.27-1.28.34-2.79-.07-4.01-.23-.68-.47-1.38-.91-1.85-1.47-1.58-3.78-1.85-5.97-1.93l-6.27-.23c-1.44-.05-2.01-.42-2.43-1.56-.31-.83-.25-1.77-.15-2.68l.66-.91c.73-.36,1.49-.6,2.3-.6h6.34c.65,0,1.52.23,1.96.66.55.55.41,1.35.4,2.08h3.66c.03-.92.09-1.95-.39-2.85-.86-1.63-2.84-2.31-4.72-2.49-2.92-.28-5.82-.25-8.74,0-1.72.15-3.57.8-4.39,2.24-.9,1.57-.97,5.08-.02,6.6.89,1.42,2.93,2.13,4.63,2.22l7.41.38c.76.04,1.51.05,2.2.4l.75.69c.31,1.13.48,2.33.07,3.45-.67,1.82-3.29,1.76-5.19,1.74-2.2-.03-6.39.16-6.99-1.4-.3-.78-.14-1.67-.16-2.53h-3.66s0,2.38,0,2.38c0,.31.15.72.29.99.55,2.03,3.09,2.84,5.18,3.05,3,.29,5.99.33,9.06.02ZM190.1,182.06c-1.93.24-3.75.23-5.61.05s-3.4-.71-3.93-2.39l-.4-1.28c-.18-2.6-.2-5.12,0-7.72.06-.7.35-1.53.62-2.16.45-1.06,1.62-1.57,2.73-1.75,2.02-.32,4.01-.27,6.05-.07,1.19.12,2.04.61,2.64,1.57.32.87.33,1.71.32,2.63h3.53c0-.84.05-1.73-.22-2.48-.23-.65-.34-1.39-.81-1.86l-.77-.79c-.97-.81-2.17-1.21-3.44-1.39-2.66-.39-5.33-.43-8-.08-1.42.19-2.73.6-3.85,1.46l-.8.76c-1.43,1.35-1.67,4.57-1.64,6.69-.27.57-.28,1.25,0,1.82.01,2.81-.05,6.2,2.24,7.93,1.07.81,2.35,1.25,3.73,1.44,2.99.41,6.02.44,8.98-.09,1.42-.25,2.72-.82,3.67-1.89.29-.33.58-.86.77-1.27.59-1.24.45-2.63.46-4.01h-3.54s0,2.01,0,2.01c-.12,1.68-.99,2.66-2.74,2.88ZM204.1,173.55c-2.25,1.46-2.34,5.05-1.68,7.65.8,1.98,2.4,2.92,4.55,3.25,2.7.41,8.76.6,10.43-.99l1.1-1.04v2.06s3.42,0,3.42,0v-14.47c-.02-3.34-1.92-5.11-5.12-5.62-1.67-.27-3.32-.39-5.01-.28l-4.85.33c-1.04.21-2.11.59-2.83,1.37l-.7.76c-.49,1.09-.64,2.22-.57,3.49h3.53c-.08-.99.17-2.05.94-2.62.72-.54,1.73-.77,2.62-.77h4.79c.73,0,1.49.25,2.13.54.96.44,1.65,1.83,1.65,2.77v4.33s-.98-.98-.98-.98c-2.3-1.32-7.5-1.19-10.36-.84-1.1.14-2.13.46-3.05,1.06ZM247.66,182.36l.67-1c.49-.73.58-1.66.76-2.52l.27-1.31c.17-2.43.15-4.84-.06-7.27l-.21-.52c-.18-.73-.28-1.67-.72-2.29l-.71-1c-.93-1.09-2.25-1.71-3.67-1.99-2.55-.5-5.18-.49-7.68.14-1.38.35-2.46,1.12-3.28,2.21l-.02-2.45h-3.52s0,28.81,0,28.81h3.53s0-11.02,0-11.02c.85,1.38,2.46,2.09,4.1,2.33,3.18.47,8.77.52,10.55-2.12ZM87.54,164.35v20.14s3.55,0,3.55,0v-20.14s-3.55,0-3.55,0Z"/>
    <polygon class="cls-5" points="141.19 .12 141.3 .12 167.77 13.53 141.19 26.98 141.19 .12"/>
    <path class="cls-9" d="M275.82,170.49l.03,4.63-16.49-.02.17,4.07c.06,1.56,1.31,2.65,2.89,2.85,2.48.31,4.97.31,7.47.02.77-.09,1.66-.45,2.02-1.12.41-.76.35-1.61.34-2.55h3.6s-.04,2.03-.04,2.03c-.02.7-.84,2.22-1.71,2.84-1.04.75-2.33,1.13-3.66,1.27-2.72.29-5.42.31-8.14,0-1.37-.16-2.69-.5-3.82-1.22-.61-.39-1.04-.88-1.47-1.45-.47-.62-.62-1.41-.85-2.17-.1-.32-.24-.68-.28-1.03-.27-2.79-.27-5.53.02-8.32l.23-.84c.21-.76.3-1.62.79-2.26l.73-.94c1-1.06,2.38-1.59,3.84-1.83,2.81-.46,5.63-.42,8.46-.11s4.72,1.54,5.43,4.25c.16.61.44,1.28.44,1.91ZM259.36,172.63h12.84s-.25-3.3-.25-3.3c-.11-1.42-1.22-2.42-2.66-2.57l-6.19.02c-.94.12-1.93.36-2.59,1.05-1.11,1.14-1.1,3.09-1.16,4.81Z"/>
    <path class="cls-3" d="M275.85,175.12v3.26s-3.6,0-3.6,0c0,.94.07,1.8-.34,2.55-.36.67-1.24,1.03-2.02,1.12-2.5.29-5,.29-7.47-.02-1.58-.2-2.82-1.29-2.89-2.85l-.17-4.07,16.49.02Z"/>
    <polygon class="cls-5" points="98.92 81.65 72.26 68.18 98.92 54.71 98.92 81.65"/>
    <polygon class="cls-5" points="98.92 45.22 72.26 31.75 98.92 18.27 98.92 45.22"/>
    <polygon class="cls-5" points="203.84 31.75 177.2 45.2 177.2 18.29 203.84 31.75"/>
    <polygon class="cls-5" points="170.93 118.06 144.32 104.62 170.93 91.17 170.93 118.06"/>
    <polygon class="cls-5" points="131.74 31.75 105.16 45.19 105.17 18.31 131.74 31.75"/>
    <polygon class="cls-5" points="131.74 68.18 105.16 81.62 105.17 54.74 131.74 68.18"/>
    <polygon class="cls-1" points="134.9 63.4 108.29 49.97 134.91 36.52 134.9 63.4"/>
    <polygon class="cls-4" points="134.9 99.84 108.3 86.39 134.91 72.96 134.9 99.84"/>
    <polygon class="cls-4" points="134.9 136.27 108.3 122.83 134.91 109.39 134.9 136.27"/>
    <polygon class="cls-5" points="206.97 99.83 180.38 86.4 206.98 72.95 206.97 99.83"/>
    <polygon class="cls-5" points="206.97 63.4 180.38 49.96 206.98 36.52 206.97 63.4"/>
    <polygon class="cls-4" points="167.76 122.83 141.19 136.27 141.18 109.38 167.76 122.83"/>
    <polygon class="cls-4" points="167.76 49.96 141.19 63.41 141.19 36.52 167.76 49.96"/>
    <polygon class="cls-4" points="167.76 86.4 141.19 99.83 141.18 72.95 167.76 86.4"/>
    <polygon class="cls-4" points="95.71 49.96 69.12 63.41 69.12 36.52 95.71 49.96"/>
    <polygon class="cls-1" points="95.72 86.4 69.12 99.84 69.12 72.96 95.72 86.4"/>
    <polygon class="cls-1" points="203.82 104.62 177.21 118.07 177.21 91.16 203.82 104.62"/>
    <polygon class="cls-4" points="170.92 45.18 144.33 31.75 170.93 18.31 170.92 45.18"/>
    <polygon class="cls-4" points="98.74 117.99 72.28 104.61 98.75 91.24 98.74 117.99"/>
    <path class="cls-9" d="M247.66,182.36c-1.78,2.65-7.37,2.6-10.55,2.12-1.64-.24-3.25-.95-4.1-2.33v11.02s-3.53,0-3.53,0v-28.8s3.52,0,3.52,0l.02,2.45c.82-1.09,1.9-1.86,3.28-2.21,2.5-.63,5.13-.64,7.68-.14,1.42.28,2.75.9,3.67,1.99l.71,1c.44.62.54,1.56.72,2.29l.21.52c.21,2.43.23,4.84.06,7.27l-.27,1.31c-.18.87-.27,1.79-.76,2.52l-.67,1ZM242.87,181.88c1.29-.32,1.95-1.2,2.39-2.31l.31-.78.25-4.69c.1-1.97-.02-4.66-1.16-6.07-1.42-1.75-6.01-1.62-8.41-1.1-1.76.38-2.92,1.7-3.08,3.49-.2,2.31-.21,4.6-.04,6.94.18,2.62,1.44,4.25,4.05,4.67,1.88.31,3.82.31,5.7-.15Z"/>
    <path class="cls-2" d="M98.76,180.94c-1.15-1.96-1.13-10.97-.05-12.89l.56-1c1.82-3.27,8-3.26,11.6-2.57.78.15,1.51.47,2.16.85.61.36.84.84,1.38,1.53l.02-11.12h3.41s0,28.74,0,28.74h-3.4s-.06-2.65-.06-2.65c-.57.74-.86,1.2-1.51,1.62-.86.55-1.86.91-2.91,1.05-3.37.46-8.89.38-10.62-2.58l-.58-.99ZM113.45,180.3c.6-1.02.65-2.16.79-3.29l.16-1.33c.02-1.38.02-2.68-.19-4.02-.24-1.49-.25-2.65-1.44-3.76-1.67-1.56-5.46-1.45-7.85-1.09-1.12.17-2.28.79-2.68,1.89-.27.72-.53,1.52-.62,2.29-.27,2.29-.24,4.55,0,6.84l.35,1.33c.28,1.56,1.48,2.62,3.05,2.88,1.67.27,3.35.28,5.04.09,1.36-.15,2.71-.69,3.37-1.81Z"/>
    <path class="cls-2" d="M24.6,173.48c2.39-1.51,7.54-1.35,10.54-.98,1.04.13,2.05.39,2.92.95l.83.93v-4.51c-.01-.6-.66-1.93-.96-2.18-.76-.63-1.69-.91-2.67-.99-1.68-.14-3.33-.14-5.01-.03-1,.07-1.93.33-2.77.88-.67.91-.83,1.35-.74,2.51h-3.52c-.2-3.22,1.06-5.06,4.26-5.65l4.75-.3c1.73-.11,3.41,0,5.11.31,3.09.54,4.95,2.35,4.95,5.55v14.52s-3.4,0-3.4,0l-.02-2.09-.99.99c-1.67,1.68-7.74,1.47-10.47,1.08-2.17-.32-3.67-1.18-4.58-3.12-.55-1.93-.5-3.92.05-5.84l.92-1.36c.15-.22.56-.5.79-.65ZM37.8,181c1.68-1.63,1.1-4.91-.57-5.65-.61-.27-1.39-.51-2.12-.51l-5.99.02c-.94,0-1.94.35-2.51,1.11-.69.94-.66,3.83.04,4.93.48.76,1.42,1.13,2.3,1.21,2.55.23,7.25.45,8.85-1.1Z"/>
    <path class="cls-9" d="M204.1,173.55c.91-.59,1.94-.92,3.05-1.06,2.86-.35,8.05-.48,10.36.84l.99.98v-4.33c-.01-.94-.7-2.33-1.66-2.77-.64-.29-1.4-.53-2.13-.53h-4.79c-.89,0-1.9.23-2.62.76-.77.57-1.02,1.63-.94,2.61h-3.53c-.07-1.27.09-2.39.57-3.48l.7-.76c.72-.78,1.79-1.16,2.83-1.37l4.85-.33c1.7-.12,3.34.01,5.01.28,3.21.51,5.11,2.28,5.11,5.62v14.47s-3.39,0-3.39,0v-2.06s-1.11,1.04-1.11,1.04c-1.67,1.59-7.72,1.39-10.43.99-2.15-.32-3.75-1.26-4.55-3.25-.66-2.6-.57-6.19,1.68-7.65ZM217.41,181.05c.34-.28.58-.83.78-1.28.56-1.28.06-3.33-.71-3.99s-1.72-.92-2.7-.93l-5.66-.03c-1.34,0-2.99.57-3.22,1.87s-.31,2.76.26,4c.4.87,1.42,1.32,2.35,1.41,2.11.2,4.16.21,6.26-.03.97-.11,1.89-.41,2.64-1.02Z"/>
    <path class="cls-9" d="M141.54,178.36h3.44c.02,1.12.07,2.23-.42,3.26-.82,1.73-2.57,2.56-4.51,2.83-2.88.39-5.77.38-8.66.05-1.38-.15-2.67-.52-3.83-1.25-.23-.15-.64-.44-.79-.64l-.84-1.13c-.47-.63-.55-1.55-.72-2.35l-.26-1.2c-.2-2.2-.24-4.36,0-6.56l.36-1.93c.12-.66.27-1.44.63-1.96l.82-1.17.77-.66c2.17-1.88,9.04-1.7,12.22-1.2,1.29.2,2.47.7,3.37,1.56.47.45.75.95,1.02,1.52l.4.84c.24,1.09.42,2.24.43,3.38l.02,3.36h-16.52s.16,3.95.16,3.95c.01.28.19.64.31.9.4,1.48,1.73,2.04,3.3,2.17,2.08.17,4.1.16,6.18,0,.81-.06,1.67-.26,2.29-.76.52-.42.58-1.21.65-1.81.11-.39.15-.51.18-1.19ZM128.51,172.63h12.82s-.28-3.54-.28-3.54c-.1-1.22-1.05-2.01-2.25-2.28-2.22-.28-4.46-.31-6.7,0-1.01.14-2.06.49-2.67,1.32l-.67,1.44-.24,3.07Z"/>
    <path class="cls-2" d="M80.58,178.36c0,.79.05,1.65-.21,2.37-.23.64-.38,1.37-.85,1.81l-.82.75c-1.06.74-2.3,1.08-3.6,1.23-2.66.29-5.29.29-7.95.02-2.37-.24-4.9-1.13-5.81-3.36l-.48-1.17c-.69-2.61-.58-7.65-.15-10.46l.33-.98c.44-1.3,1.1-2.41,2.33-3.14,1.06-.63,2.3-.96,3.59-1.1,2.69-.29,5.36-.31,8.03.08,3.16.46,4.93,2.18,5.26,5.36l.21.41.12,4.94h-16.52s.18,4.13.18,4.13c.07,1.53,1.25,2.59,2.83,2.78,2.54.32,5.12.32,7.68,0,.89-.11,1.75-.65,2.03-1.48.23-.69.18-1.45.2-2.17h3.61ZM76.66,169.24l-.25-.45c-.29-.52-.29-1.83-2.68-2.06-1.98-.19-3.92-.17-5.89.03-.88.09-1.68.4-2.43.82l-.82,1.01c-.42,1.3-.48,2.58-.54,4.04h12.85s-.24-3.39-.24-3.39Z"/>
    <path class="cls-9" d="M165.55,184.52c-3.07.31-6.05.28-9.06-.02-2.09-.2-4.63-1.02-5.18-3.05-.14-.28-.29-.69-.29-.99v-2.38s3.66,0,3.66,0c.03.86-.13,1.75.16,2.53.59,1.56,4.79,1.37,6.99,1.4,1.9.03,4.52.08,5.19-1.74.41-1.12.24-2.32-.07-3.45l-.75-.69c-.69-.35-1.44-.36-2.2-.4l-7.41-.38c-1.69-.09-3.74-.8-4.63-2.22-.95-1.51-.87-5.03.02-6.6.82-1.43,2.67-2.09,4.39-2.24,2.92-.25,5.83-.29,8.74,0,1.89.18,3.87.86,4.72,2.49.48.9.41,1.93.39,2.86h-3.66c.02-.73.16-1.54-.4-2.09-.43-.43-1.3-.66-1.96-.66h-6.34c-.81,0-1.57.24-2.3.6l-.66.91c-.11.92-.16,1.85.15,2.68.42,1.14.99,1.51,2.43,1.56l6.27.23c2.2.08,4.5.36,5.97,1.93.44.47.68,1.17.91,1.85.41,1.22.34,2.74.07,4.01l-.31.78c-.28.7-.61,1.24-1.21,1.71-1,.79-2.25,1.2-3.63,1.34Z"/>
    <path class="cls-2" d="M17.64,164.36l-1.24,1.17-8.54,8.03c.21.32.47.57.81.84l10.76,10.07h-4.61s-8.34-8.26-8.34-8.26l-1.48-1.41-1.22.04v9.64s-3.53,0-3.53,0v-28.74s3.53,0,3.53,0v16.57s1.19.07,1.19.07l1.32-1.18,1.04-1.01.98-.95.86-.83.98-.95,1.1-1.07,1.03-1.01.99-1.01h4.37Z"/>
    <path class="cls-9" d="M190.1,182.06c1.75-.22,2.62-1.2,2.74-2.88v-2s3.55,0,3.55,0c-.01,1.37.13,2.77-.46,4.01-.2.41-.48.94-.77,1.27-.94,1.07-2.24,1.64-3.67,1.89-2.97.53-5.99.5-8.98.09-1.38-.19-2.66-.63-3.73-1.44-2.29-1.72-2.22-5.11-2.24-7.93-.29-.57-.28-1.24,0-1.82-.02-2.12.22-5.35,1.64-6.69l.8-.76c1.12-.86,2.43-1.27,3.85-1.46,2.66-.35,5.34-.31,8,.08,1.27.18,2.47.58,3.44,1.39l.77.79c.46.47.57,1.21.81,1.86.27.76.22,1.64.22,2.48h-3.53c0-.91,0-1.75-.32-2.63-.61-.96-1.46-1.45-2.64-1.57-2.04-.2-4.04-.25-6.05.07-1.11.17-2.27.69-2.73,1.75-.27.64-.56,1.46-.62,2.16-.2,2.61-.18,5.12,0,7.72l.4,1.28c.53,1.68,2.15,2.22,3.93,2.39,1.86.17,3.68.19,5.61-.05Z"/>
    <rect class="cls-2" x="49.93" y="155.74" width="3.56" height="28.74"/>
    <rect class="cls-2" x="79.25" y="172.64" width="20.14" height="3.56" transform="translate(-85.11 263.71) rotate(-89.99)"/>
    <rect class="cls-6" x="87.55" y="155.73" width="3.56" height="3.35"/>
    <path class="cls-3" d="M259.36,172.63c.05-1.71.04-3.66,1.16-4.81.67-.68,1.66-.93,2.59-1.05l6.19-.02c1.44.15,2.55,1.15,2.66,2.57l.25,3.3h-12.84Z"/>
    <path class="cls-3" d="M242.87,181.88c-1.88.47-3.82.46-5.7.15-2.61-.43-3.87-2.06-4.05-4.67-.16-2.34-.16-4.63.04-6.94.16-1.79,1.32-3.11,3.08-3.49,2.4-.52,6.99-.65,8.41,1.1,1.14,1.41,1.27,4.1,1.16,6.07l-.25,4.69-.31.78c-.44,1.11-1.1,1.99-2.39,2.31Z"/>
    <path class="cls-3" d="M113.45,180.3c-.66,1.12-2.01,1.66-3.37,1.81-1.69.19-3.37.18-5.04-.09-1.58-.25-2.78-1.31-3.05-2.88l-.35-1.33c-.25-2.29-.28-4.55,0-6.84.09-.77.35-1.57.62-2.29.41-1.09,1.56-1.71,2.68-1.89,2.39-.36,6.18-.47,7.85,1.09,1.19,1.11,1.2,2.27,1.44,3.76.21,1.34.2,2.64.19,4.02l-.16,1.33c-.14,1.13-.19,2.27-.79,3.29Z"/>
    <path class="cls-3" d="M37.8,181c-1.6,1.55-6.3,1.34-8.85,1.1-.89-.08-1.83-.45-2.3-1.21-.69-1.09-.73-3.98-.04-4.93.56-.76,1.57-1.11,2.51-1.11l5.99-.02c.73,0,1.5.24,2.12.51,1.67.74,2.25,4.02.57,5.65Z"/>
    <path class="cls-3" d="M217.41,181.05c-.75.62-1.67.92-2.64,1.02-2.1.23-4.15.23-6.26.03-.93-.09-1.95-.54-2.35-1.41-.57-1.24-.49-2.69-.26-4s1.88-1.88,3.22-1.87l5.66.03c.98,0,1.95.29,2.7.93s1.27,2.71.71,3.99c-.2.45-.44,1-.78,1.28Z"/>
    <path class="cls-3" d="M128.51,172.63l.24-3.07.67-1.44c.61-.83,1.66-1.18,2.67-1.32,2.24-.3,4.49-.28,6.7,0,1.21.27,2.16,1.06,2.25,2.28l.28,3.54h-12.82Z"/>
    <path class="cls-3" d="M76.66,169.24l.24,3.39h-12.85c.06-1.47.12-2.75.54-4.05l.82-1.01c.75-.42,1.54-.73,2.43-.82,1.98-.21,3.91-.22,5.89-.03,2.39.23,2.4,1.54,2.68,2.06l.25.45Z"/>
  </g>
</svg>