<svg xmlns="http://www.w3.org/2000/svg" viewBox="0 0 24 24"><path fill="#44739e" d="M12.232 4.995v1.948l1.928-.976-1.92-.972H22l-.002 12.357c0-.045-.02-.094-.032-.139-.052-.196-.192-.286-.394-.308s-.41-.025-.614.008a.48.48 0 0 0-.278.133l-.053.068c-.036.046-.042.109-.057.164l-.017.061q-.03.302-.002.603c.003.026.014.052.021.075.017.055.028.113.061.158a.5.5 0 0 0 .107.105.65.65 0 0 0 .277.088q.295.033.591 0a.55.55 0 0 0 .265-.092.36.36 0 0 0 .124-.206l.003.935H2V4.995ZM9.166 8.266V6.312l-1.933.977Zm2.381-.977L9.62 6.314v1.95Zm2.842.974V6.314l-1.929.975Zm2.388-.974-1.932-.976v1.952ZM8.934 8.61l-1.929-.975v1.951l1.929-.975Zm2.842.975v-1.95l-1.93.975Zm2.384-.975-1.928-.976v1.951Zm2.844.975V7.634l-1.93.976Zm-7.838 1.324V8.955l-1.933.977Zm2.381-.977L9.62 8.957v1.95Zm-2.613 1.321-1.929-.975v1.95Zm2.842.975v-1.95l-1.93.975Zm2.384-.975-1.928-.975v1.949Zm2.844.974v-1.95l-1.93.976Zm-7.851 1.318v-1.941l-1.919.971Zm5.237.005v-1.951l-1.93.976Zm2.385-.975-1.93-.976v1.952l1.93-.975Zm-4.999 2.296v-1.95l-1.93.975Zm2.384-.975-1.928-.976v1.951ZM3.271 16.908h-.317l-.072.075-.075.073-.079.078-.072.069-.062.06-.071.069-.075.073-.096.086-.087-.006v-1.201h-.256v2.084h.256v-.699l.089-.003.107.102.605.599h.335l-.781-.731a.3.3 0 0 1-.059-.061l.62-.582Zm2.6-.625h-.258v2.084h.258Zm2.728-.001h-.258v.243h.258Zm.556 1.829.042.071c.125.215.526.221.77.188a.5.5 0 0 0 .211-.077c.047-.03.068-.063.11-.117l.004.191h.247v-2.084h-.248l-.001.807c-.039-.051-.056-.085-.1-.111a.5.5 0 0 0-.157-.062c-.261-.05-.709-.05-.841.187l-.041.072c-.077.14-.079.793.004.935m-5.379-.541a.2.2 0 0 0-.058.047l-.066.098a.76.76 0 0 0-.004.424c.066.141.175.204.332.226.198.029.639.044.76-.078l.071-.072.002.152h.247v-1.053c0-.232-.135-.362-.36-.402a1.5 1.5 0 0 0-.37-.023l-.345.022c-.232.043-.323.176-.309.41h.256c-.007-.085.005-.116.053-.182a.4.4 0 0 1 .201-.064q.181-.013.364.002a.34.34 0 0 1 .193.072.33.33 0 0 1 .069.158v.327l-.059-.067a.5.5 0 0 0-.212-.069c-.218-.027-.591-.039-.765.071Zm4.06.354h-.262c-.001.052.002.107-.014.157-.021.06-.083.099-.147.107a2.2 2.2 0 0 1-.558 0c-.113-.014-.2-.091-.205-.201l-.013-.3h1.198l-.008-.358-.016-.03c-.023-.231-.151-.355-.381-.389a2.4 2.4 0 0 0-.583-.006.7.7 0 0 0-.26.08.4.4 0 0 0-.169.228l-.024.071c-.031.205-.039.569.011.759l.035.085c.066.161.249.225.421.243q.289.03.577-.001a.54.54 0 0 0 .261-.089l.06-.055c.034-.031.044-.085.061-.131.019-.052.015-.114.015-.172Zm4.422 0a.3.3 0 0 1-.013.086c-.005.043-.009.101-.047.131a.3.3 0 0 1-.166.055 3 3 0 0 1-.449 0c-.114-.009-.211-.05-.239-.157a.2.2 0 0 1-.023-.065l-.011-.287h1.198l-.001-.244a1 1 0 0 0-.032-.245l-.029-.061a.3.3 0 0 0-.074-.11.44.44 0 0 0-.244-.113c-.231-.036-.728-.049-.886.087l-.056.048-.06.085a.34.34 0 0 0-.045.142l-.026.14a2.4 2.4 0 0 0 0 .476l.018.087c.013.058.019.124.053.17l.061.082c.01.015.039.036.057.047a.65.65 0 0 0 .278.09q.314.036.628-.003c.141-.019.267-.08.327-.206.035-.074.031-.155.03-.237h-.249Zm1.741.446a.5.5 0 0 0 .264-.097.3.3 0 0 0 .087-.124l.023-.056a.6.6 0 0 0-.005-.291.4.4 0 0 0-.066-.134c-.107-.115-.274-.135-.433-.14l-.455-.017c-.104-.004-.146-.031-.176-.113a.4.4 0 0 1-.011-.195l.048-.066a.4.4 0 0 1 .167-.043h.459c.048 0 .111.016.143.048.04.04.029.098.029.15h.265c.002-.066.007-.141-.028-.206-.063-.118-.206-.168-.342-.181a3.5 3.5 0 0 0-.634 0c-.125.011-.259.058-.319.163-.065.114-.07.368-.001.478.064.103.212.155.336.161l.537.028c.055.003.11.004.16.029l.054.05a.4.4 0 0 1 .005.25c-.049.132-.239.128-.376.126-.16-.002-.464.012-.507-.101-.022-.057-.011-.121-.012-.184h-.266v.173c0 .023.011.052.022.072.039.147.224.206.375.221q.325.033.657.002Zm1.781-.178c-.14.017-.272.017-.407.004s-.246-.052-.285-.174l-.029-.093a4 4 0 0 1 0-.56.6.6 0 0 1 .045-.156c.033-.077.118-.114.198-.127.147-.023.291-.02.439-.005a.23.23 0 0 1 .191.114c.024.063.024.124.024.19h.256c0-.061.003-.125-.016-.18-.017-.047-.025-.1-.059-.134l-.056-.058a.5.5 0 0 0-.249-.101 2 2 0 0 0-.581-.005.55.55 0 0 0-.279.106l-.058.055c-.104.098-.121.331-.119.485a.15.15 0 0 0 0 .132c.001.204-.004.45.163.575.077.059.17.091.27.105.217.029.437.031.652-.007a.45.45 0 0 0 .266-.137.4.4 0 0 0 .056-.092c.042-.09.032-.191.033-.291h-.257v.146c-.009.122-.072.193-.199.209Zm1.016-.617c-.164.106-.17.366-.122.555.058.143.174.211.33.235.196.03.635.044.756-.072l.08-.075v.149h.248v-1.049c-.001-.242-.139-.371-.371-.408a1.6 1.6 0 0 0-.364-.02l-.351.024a.4.4 0 0 0-.206.099l-.05.055a.5.5 0 0 0-.042.254h.256c-.006-.072.013-.149.068-.191a.33.33 0 0 1 .191-.055h.347c.053 0 .108.018.154.039.07.032.12.133.12.201v.314l-.071-.071c-.167-.096-.544-.087-.751-.061a.5.5 0 0 0-.222.077m3.159.639.049-.073c.035-.053.042-.12.055-.183l.02-.095q.018-.263-.005-.527l-.015-.038c-.013-.053-.02-.121-.052-.166l-.052-.072a.46.46 0 0 0-.266-.145 1.3 1.3 0 0 0-.557.01.43.43 0 0 0-.238.161l-.001-.178h-.256v2.09h.256v-.8c.062.101.179.152.298.169.23.035.636.038.765-.153ZM8.341 16.907v1.461h.257v-1.461Z"/><path fill="#44739e" d="M12.232 4.995h.008l1.92.973-1.928.975Zm9.766 12.358.002.336-1.196-.002.012.295c.005.113.095.193.21.207q.27.034.542.001c.056-.006.12-.032.146-.081.03-.055.026-.117.025-.185H22l-.003.148a.35.35 0 0 1-.124.206.56.56 0 0 1-.265.092 2.7 2.7 0 0 1-.591 0 .7.7 0 0 1-.277-.089.4.4 0 0 1-.107-.105c-.034-.045-.045-.102-.061-.157-.007-.024-.018-.05-.021-.075a3 3 0 0 1 .002-.604l.017-.061c.015-.055.021-.117.057-.163l.053-.069a.48.48 0 0 1 .278-.132c.204-.034.409-.031.614-.008s.342.111.394.308c.012.044.032.093.032.138m-1.194.155h.931l-.018-.239c-.008-.103-.088-.176-.193-.187l-.449.002c-.068.008-.14.026-.188.076-.08.082-.079.224-.084.349Z"/><path fill="#44739e" d="M22 17.689v.236h-.261c0 .068.005.131-.025.185-.026.049-.09.075-.146.081a2.3 2.3 0 0 1-.542-.001c-.115-.015-.205-.094-.21-.207l-.012-.295Zm-12.834-6.78-1.933-.977 1.933-.977Zm0-2.643-1.933-.977 1.933-.978Zm7.611-.977-1.933.976V6.313ZM14.39 13.55l-1.93-.975 1.93-.976Zm-2.843-6.261-1.928.975.001-1.95Zm0 2.643-1.928.975.001-1.95Zm.229-.347-1.93-.974 1.931-.976Zm0 2.643-1.929-.975 1.93-.975Zm0 2.643-1.929-.975 1.93-.975Zm5.228-2.644-1.929-.974 1.93-.975Zm0-2.642-1.929-.975 1.93-.975Zm-2.844 4.311-1.928.975V12.92Zm0-5.286-1.928.976V7.635Zm0 2.643-1.928.974v-1.949ZM8.934 8.61l-1.929.976V7.635Zm0 2.643-1.929.975v-1.95Zm7.841 1.322-1.93.975v-1.951Zm-2.386-4.312-1.929-.974 1.93-.975Zm-5.236 5.282-1.919-.971 1.92-.97Zm10.802 4.669c-.129.192-.534.188-.765.153-.119-.017-.236-.068-.297-.169v.8h-.256v-2.089h.255l.001.177a.43.43 0 0 1 .238-.16c.182-.046.372-.046.557-.01.103.02.2.065.267.144l.051.073c.032.045.039.113.052.166l.015.038q.023.263.005.527l-.02.095c-.013.063-.019.13-.055.183Zm-.347-.035c.093-.023.141-.087.173-.168l.023-.056.018-.34c.007-.143-.002-.338-.084-.441-.103-.127-.436-.117-.61-.08a.276.276 0 0 0-.224.254 3 3 0 0 0-.003.503c.013.19.105.308.294.339.136.022.277.022.414-.011Zm-10.453-.068c-.084-.142-.082-.796-.004-.935l.041-.073c.132-.237.58-.236.841-.186q.086.018.157.061c.044.027.061.061.1.111l.001-.806h.248v2.084h-.247l-.004-.192c-.042.054-.063.087-.11.118a.5.5 0 0 1-.211.076c-.244.033-.645.027-.77-.187l-.042-.072Zm1.065-.047c.044-.074.048-.156.058-.238l.011-.097c.002-.1.002-.194-.014-.291-.017-.109-.018-.193-.104-.273-.121-.113-.396-.105-.569-.079-.082.012-.166.057-.195.137a1 1 0 0 0-.045.166q-.027.248 0 .496l.026.097c.02.113.107.19.221.208q.182.029.365.007c.099-.011.197-.05.245-.131Zm-6.444-.494c.173-.11.547-.098.764-.072.076.01.149.029.212.069l.06.068v-.327a.35.35 0 0 0-.069-.158.34.34 0 0 0-.194-.072 2.5 2.5 0 0 0-.364-.002.4.4 0 0 0-.2.063c-.049.066-.061.098-.054.183h-.255c-.015-.234.076-.368.309-.41l.344-.022c.126-.008.247 0 .371.022.224.04.359.171.359.403v1.053h-.247l-.001-.151-.072.071c-.121.122-.562.107-.76.079-.157-.023-.266-.086-.332-.227a.76.76 0 0 1 .004-.423l.067-.099a.2.2 0 0 1 .057-.047Zm.957.545c.122-.118.08-.356-.041-.41a.4.4 0 0 0-.154-.037l-.434.002a.23.23 0 0 0-.183.08c-.05.068-.047.278.003.358.035.055.103.082.167.088.185.016.526.032.642-.08Zm12.063-.54a.5.5 0 0 1 .221-.077c.207-.026.584-.035.751.061l.072.071v-.314c-.001-.068-.051-.169-.12-.201a.4.4 0 0 0-.155-.039h-.347a.33.33 0 0 0-.19.055c-.056.042-.074.119-.068.19h-.256a.5.5 0 0 1 .041-.253l.051-.055a.37.37 0 0 1 .205-.099l.352-.024c.123-.009.242.001.363.02.233.037.371.166.371.408v1.049h-.246v-.149l-.081.075c-.121.116-.56.101-.756.072-.156-.023-.272-.091-.33-.235-.048-.189-.042-.449.122-.555m.965.544c.025-.021.042-.061.057-.093.04-.093.004-.242-.052-.29s-.125-.066-.196-.067l-.41-.002c-.097 0-.217.041-.234.135s-.022.201.019.291c.029.063.103.095.171.102.153.014.301.015.454-.002a.36.36 0 0 0 .191-.074m-5.503-.195h.249c.002.081.005.161-.03.236-.06.125-.186.186-.327.205a2.5 2.5 0 0 1-.628.004.64.64 0 0 1-.278-.091.3.3 0 0 1-.057-.046l-.061-.082c-.034-.046-.04-.113-.053-.171l-.018-.087a2.3 2.3 0 0 1 0-.475l.026-.14a.4.4 0 0 1 .045-.143l.06-.084.056-.048c.157-.137.655-.124.886-.087.094.014.179.05.244.113a.3.3 0 0 1 .074.11l.029.061q.029.12.032.245l.001.244H11.31l.011.286c.001.021.014.047.023.066.029.107.125.148.239.157q.225.018.449 0a.3.3 0 0 0 .166-.055c.037-.031.042-.088.047-.131.008-.029.011-.037.013-.087m-.945-.416h.93l-.021-.257c-.007-.088-.076-.146-.163-.165a1.8 1.8 0 0 0-.486 0c-.073.01-.149.035-.194.096l-.048.104Zm-3.477.416c0 .057.004.119-.015.171-.017.047-.028.1-.062.132l-.059.054a.56.56 0 0 1-.261.089 3 3 0 0 1-.577.002c-.172-.018-.355-.082-.421-.244l-.035-.085c-.05-.189-.042-.555-.011-.758l.024-.072a.4.4 0 0 1 .169-.227.6.6 0 0 1 .26-.08c.195-.021.389-.023.583.006.229.033.357.158.381.388l.015.03.009.359H6.638l.013.299c.005.111.091.188.205.202q.278.034.557 0c.065-.008.127-.047.148-.108.016-.05.013-.105.014-.157h.262Zm-.284-.662-.018-.033c-.021-.037-.021-.132-.195-.149a2 2 0 0 0-.427.002.5.5 0 0 0-.176.06l-.06.073a1 1 0 0 0-.039.293h.932Zm6.447 1.108a3.2 3.2 0 0 1-.657-.001c-.151-.015-.336-.074-.375-.221a.2.2 0 0 1-.022-.072v-.173h.266c.002.063-.009.127.012.184.042.113.347.099.507.101.137.002.327.006.376-.126a.4.4 0 0 0-.005-.25l-.054-.05c-.05-.026-.105-.026-.16-.029l-.537-.028c-.123-.006-.272-.058-.336-.161-.069-.109-.063-.365.001-.479.06-.103.194-.151.319-.162.211-.018.422-.021.634 0 .137.013.28.062.342.181.035.065.03.14.028.207h-.265c.001-.053.011-.112-.029-.152-.032-.031-.095-.047-.143-.047h-.459a.4.4 0 0 0-.167.043l-.048.066a.4.4 0 0 0 .011.194c.03.083.072.11.176.114l.455.016c.159.006.326.026.433.14.032.034.049.085.066.135a.6.6 0 0 1 .005.29l-.023.057a.3.3 0 0 1-.087.124.5.5 0 0 1-.264.097ZM3.271 16.908l-.09.085-.62.582a.3.3 0 0 0 .059.061l.781.731h-.335l-.605-.599-.107-.103-.089.003v.699h-.256v-2.084h.256v1.202l.087.005.096-.086.075-.073.071-.069.062-.06.072-.069.079-.078.075-.073.072-.073Zm12.509 1.284c.127-.016.19-.087.199-.209v-.145h.257c0 .099.01.201-.033.291a.4.4 0 0 1-.056.092.44.44 0 0 1-.266.137 2.1 2.1 0 0 1-.651.007.6.6 0 0 1-.271-.105c-.166-.125-.161-.371-.162-.575a.15.15 0 0 1 0-.132c-.002-.154.016-.388.119-.485l.058-.055a.55.55 0 0 1 .279-.106q.29-.038.58.005a.5.5 0 0 1 .25.101l.055.058c.034.034.042.087.059.134.02.056.016.119.016.18h-.256c0-.066 0-.127-.023-.19a.24.24 0 0 0-.192-.114 1.7 1.7 0 0 0-.438.005c-.081.012-.165.05-.198.127a.5.5 0 0 0-.045.156c-.015.19-.013.372 0 .56l.029.093c.038.122.156.161.285.174.135.012.267.013.407-.004ZM5.613 16.283h.258v2.084h-.258Zm2.728 2.085.001-1.461H8.6l-.001 1.461Zm.001-2.086H8.6v.243h-.258Zm12.462 1.226c.004-.124.003-.266.084-.349a.32.32 0 0 1 .188-.076l.449-.002c.104.011.185.084.193.187l.018.239h-.931Z"/><path fill="#44739e" d="M19.608 18.179a1 1 0 0 1-.414.011c-.189-.031-.28-.15-.293-.339a3 3 0 0 1 .002-.503.276.276 0 0 1 .224-.254c.174-.037.507-.047.61.08.083.103.092.298.084.441l-.018.34-.023.056c-.031.081-.079.145-.173.168Zm-9.388-.115c-.048.082-.145.121-.244.132a1.4 1.4 0 0 1-.366-.007.255.255 0 0 1-.221-.209l-.025-.096a2 2 0 0 1 0-.496.7.7 0 0 1 .045-.167c.029-.079.113-.124.194-.137.173-.026.448-.034.569.079.087.081.088.165.105.273.015.097.014.192.014.292l-.012.096c-.01.082-.014.165-.057.239Zm-5.487.051c-.116.112-.457.097-.642.08-.064-.006-.133-.033-.167-.088-.05-.079-.053-.289-.003-.358.041-.055.114-.08.183-.08l.434-.001c.053 0 .109.017.154.036.121.054.163.292.041.41Zm13.028.004a.36.36 0 0 1-.191.074 2.3 2.3 0 0 1-.454.002c-.068-.007-.142-.039-.171-.102-.041-.09-.035-.196-.019-.291s.137-.136.234-.135l.41.002c.071 0 .142.021.196.067s.092.197.052.29c-.015.032-.032.072-.057.093m-6.448-.611.017-.223.049-.104c.044-.06.12-.086.193-.096q.245-.031.486 0c.088.02.157.077.164.165l.02.257h-.93Zm-3.761-.246.017.246h-.932c.004-.107.009-.2.039-.294l.06-.073a.44.44 0 0 1 .176-.06q.214-.023.427-.002c.174.017.174.112.195.15l.018.032Z"/></svg>