<?xml version="1.0" encoding="UTF-8"?>
<svg width="24px" fill="#44739e" height="24px" viewBox="0 0 24 24" version="1.1" xmlns="http://www.w3.org/2000/svg" xmlns:xlink="http://www.w3.org/1999/xlink">
            <path d="M 20.965,7.488 A 10.135,10.135 0 0 0 13.055,2.02 h -2.11 A 11.1,11.1 0 0 0 8.055,2.781 10.135,10.135 0 0 0 2,10.965 v 2.109 a 12.63,12.63 0 0 0 0.41,1.914 10.071,10.071 0 0 0 8.184,6.992 h 2.812 A 12.156,12.156 0 0 0 15.945,21.258 10.135,10.135 0 0 0 22,13.074 V 10.965 A 11.274,11.274 0 0 0 20.965,7.488 Z m -4.2,8.2 H 15.2 A 2.223,2.223 0 0 0 13.091,12.817 Q 11.197,12.727 9.302,12.778 9.253,14.17 9.243,15.571 A 15.234,15.234 0 0 1 7.7,15.61 V 8.348 a 13.733,13.733 0 0 1 1.465,0.039 l 0.039,2.773 a 0.36,0.36 0 0 0 0.1,0.059 l 1.054,0.019 a 8.531,8.531 0 0 0 1.133,-0.058 q 1.386,-1.444 2.852,-2.813 1.191,-0.048 2.383,0.02 -1.553,1.431 -3.086,2.89 a 3.761,3.761 0 0 1 3.126,4.414 z"/>

</svg>
