<svg xmlns="http://www.w3.org/2000/svg" viewBox="0 0 24 24"><path fill="#44739e" d="M18.254 14.172c-.97.834-1.949 1.496-2.912 1.965-1.15.562-2.275.847-3.342.847-3.753 0-7.099-3.448-8.403-4.985a20 20 0 0 1 2.149-2.17c.97-.834 1.949-1.496 2.911-1.966 1.151-.561 2.276-.846 3.343-.846 3.752 0 7.098 3.448 8.403 4.985a20 20 0 0 1-2.149 2.17M12 5.771C6.477 5.771 2 12 2 12s4.477 6.229 10 6.229S22 12 22 12s-4.477-6.229-10-6.229m-.474 4.533c.054 0 .096.043.096.097v3.185a.096.096 0 0 1-.096.096h-1.03a.096.096 0 0 1-.096-.096v-3.185a.096.096 0 0 1 .096-.097Zm-1.591.11-.924 1.488-.003.004a.16.16 0 0 0-.001.162l.001.002.002.004.924 1.488a.074.074 0 0 1-.021.103.1.1 0 0 1-.041.012H8.778a.1.1 0 0 1-.081-.045c-.202-.319-.735-1.182-.735-1.182v1.13a.096.096 0 0 1-.096.097H6.87a.097.097 0 0 1-.096-.097v-3.185a.096.096 0 0 1 .096-.097h.996c.053 0 .096.043.096.097v1.129s.533-.863.735-1.182a.1.1 0 0 1 .081-.044h1.094c.041 0 .074.034.074.075a.07.07 0 0 1-.011.041m7.13-.115a.096.096 0 0 1 .096.097v3.185a.096.096 0 0 1-.096.097h-.996a.096.096 0 0 1-.096-.097v-1.13s-.534.863-.736 1.182a.1.1 0 0 1-.08.045h-1.095a.076.076 0 0 1-.075-.075q0-.022.013-.04l.924-1.488.002-.004.002-.002a.16.16 0 0 0 .022-.08.2.2 0 0 0-.022-.081l-.002-.001-.002-.004L14 10.415a.075.075 0 0 1 .022-.104.1.1 0 0 1 .04-.012h1.095c.033 0 .063.017.08.045.202.318.736 1.181.736 1.181v-1.129a.096.096 0 0 1 .096-.097Zm-3.641.005a.096.096 0 0 1 .096.097v3.264c0 .251-.062.492-.191.687l-.597.897a.095.095 0 0 1-.133.027.1.1 0 0 1-.029-.03l-.598-.964a.1.1 0 0 1 .001-.104l.248-.373a.46.46 0 0 0 .076-.251V10.4a.096.096 0 0 1 .096-.096Z"/></svg>