<svg xmlns="http://www.w3.org/2000/svg" viewBox="0 0 24 24"><path fill="#44739e" d="M2.002 16.066a24 24 0 0 1 .008-.84c.002.008.09.367.193.797s.195.797.204.816c.015.035.021.036.2.032l.183-.004.22-.835c.122-.459.22-.857.219-.883l-.002-.048-.15-.004c-.108-.003-.155 0-.166.016-.009.011-.074.262-.144.558s-.132.545-.136.552c-.015.025-.034.009-.05-.039a17 17 0 0 1-.119-.559 7 7 0 0 0-.116-.521.7.7 0 0 0-.179-.008L2 15.101l.002-.852c0-.746.005-.839.022-.756a.71.71 0 0 0 .553.546c.083.018.299.022 1.06.023h.958v-.711c0-.391.004-.711.008-.711.005 0 .35.297.767.66.416.364.786.676.822.695.109.058.21.067.729.067.542 0 .634-.011.792-.089a.8.8 0 0 0 .171-.117l.081-.074.066.069a.75.75 0 0 0 .356.188c.127.027.754.031.864.005.134-.03.259-.109.555-.349.163-.134.302-.242.308-.242s.011.137.011.304v.305h.95c.616 0 .984-.006 1.044-.017a.72.72 0 0 0 .564-.522c.014-.056.021-.194.021-.481 0-.221.006-.402.011-.402.007 0 .35.292.762.649.613.53.772.659.867.706l.116.059.515.005c.335.003.552-.002.62-.013a.75.75 0 0 0 .382-.188l.085-.081.069.071a.7.7 0 0 0 .153.114c.182.092.156.09 1.22.096l.981.006v-2.048h.953v2.047h.933c.568 0 .974-.007 1.036-.017a.75.75 0 0 0 .375-.18.75.75 0 0 0 .201-.381c.01-.058.015.1.016.5l.001.586h-1.164v2.297l.18.004c.155.004.182.001.199-.023.015-.02.019-.14.019-.483 0-.425.002-.458.03-.493.029-.035.039-.037.309-.044l.279-.009.004-.147c.004-.126 0-.151-.023-.169-.019-.013-.1-.019-.279-.019-.331 0-.32.01-.32-.283 0-.207.001-.213.04-.25.04-.037.047-.038.384-.045l.341-.008v2.024H2.001Zm2.221.808a.48.48 0 0 0 .245-.234c.03-.066.032-.101.032-.657v-.587l-.039-.081a.46.46 0 0 0-.225-.212c-.062-.029-.1-.034-.29-.034s-.228.005-.291.034a.5.5 0 0 0-.235.221c-.036.073-.037.079-.037.66 0 .653-.001.64.111.765a.54.54 0 0 0 .225.141c.022.008.125.014.23.014.155 0 .207-.004.274-.03m-.363-.3c-.122-.062-.125-.077-.125-.587 0-.475.002-.488.084-.564.03-.028.064-.04.127-.045.083-.007.087-.005.148.055l.063.062v.479c0 .517-.004.54-.084.592q-.099.067-.213.008m9.203.305a2 2 0 0 0 .105-.085.3.3 0 0 1 .079-.06c.018 0 .067.053.088.097.017.033.027.035.189.035h.171l.005-.873c.003-.689 0-.877-.016-.887-.032-.021-.315-.016-.337.006-.014.014-.018.179-.018.646 0 .625 0 .627-.035.679-.067.098-.205.14-.287.087-.093-.062-.092-.05-.1-.766l-.008-.657-.158-.004c-.122-.003-.161 0-.176.018s-.017.214-.015.801l.005.779.044.073c.066.112.117.137.286.137.105 0 .15-.006.179-.025Zm3.066.013a.5.5 0 0 0 .104-.071c.036-.031.073-.052.08-.048s.017.029.023.055l.011.047.174-.004.175-.004v-2.328l-.175-.005-.175-.004-.006.328c-.002.18-.008.331-.013.336a.4.4 0 0 1-.13-.053c-.116-.06-.127-.062-.268-.062-.213 0-.306.045-.368.179-.027.058-.029.115-.029.731 0 .719 0 .733.082.821.065.072.145.096.319.096.087 0 .175-.006.195-.013Zm-.151-.345c-.084-.056-.086-.066-.087-.553 0-.5.003-.517.099-.563.125-.059.273-.011.329.106.023.049.025.108.021.474l-.005.418-.038.052a.3.3 0 0 1-.082.075.3.3 0 0 1-.238-.008Zm-10.856.308c.015-.014.02-.181.02-.658v-.64l.038-.05a.44.44 0 0 1 .242-.133c.045 0 .098.039.124.089.011.024.016.241.016.704 0 .5.006.675.02.688.012.013.075.019.178.019.131 0 .161-.004.168-.025.019-.046.011-1.51-.008-1.576a.32.32 0 0 0-.202-.196c-.125-.033-.25-.011-.416.078-.08.044-.15.079-.154.079s-.007-.028-.007-.061c0-.075-.01-.08-.188-.08a1 1 0 0 0-.162.01c-.023.008-.025.099-.025.866 0 .47.004.866.009.88.008.02.038.025.169.025.103 0 .166-.006.178-.019m2.204-.016a3 3 0 0 0 .042-.205c.022-.13.038-.181.067-.215l.037-.045h.217c.286 0 .26-.025.345.336l.037.156h.39l-.005-.062a110 110 0 0 0-.482-2.145l-.025-.097h-.278c-.153 0-.282.006-.286.013-.019.03-.463 2.175-.463 2.234v.065h.196c.188 0 .196-.001.208-.035m.225-.84c-.071-.029-.071-.06.003-.471.038-.213.077-.402.088-.421.017-.033.02-.033.039-.008.03.041.179.825.162.855-.028.053-.205.08-.292.045m1.453.423.004-.452.038-.04c.03-.033.052-.041.116-.041.047 0 .088.01.104.025.014.012.105.234.203.491l.177.469h.369v-.051c0-.029-.077-.259-.171-.512a12 12 0 0 1-.172-.478c0-.009.026-.038.059-.062a.6.6 0 0 0 .188-.217c.038-.072.042-.095.047-.305.005-.205.002-.235-.03-.32a.63.63 0 0 0-.319-.322c-.091-.037-.105-.038-.539-.038h-.445l-.004 1.134a43 43 0 0 0 .003 1.151c.005.015.058.02.187.02h.179Zm.078-.87c-.071-.036-.085-.097-.079-.36.007-.29.004-.287.227-.287.128 0 .175.006.221.03.11.057.159.149.158.302q-.001.182-.112.268c-.091.069-.316.094-.415.047m2.033 1.299a1 1 0 0 0 .154-.057.75.75 0 0 0 .271-.275l.046-.09.004-.67c.005-.742.003-.766-.094-.91a.7.7 0 0 0-.303-.243c-.088-.035-.106-.037-.529-.037h-.438l-.004 1.134c-.002.622 0 1.141.003 1.151.012.031.77.028.889-.004Zm-.449-.353-.041-.032V14.97l.041-.032c.05-.039.196-.045.277-.011a.5.5 0 0 1 .202.188c.034.061.035.084.04.553.005.575 0 .623-.095.731a.34.34 0 0 1-.287.131c-.073 0-.105-.008-.137-.032m3.725-.257c0-.5.004-.644.021-.684a.33.33 0 0 1 .19-.16c.087-.033.137-.021.186.045.031.042.033.064.041.734.005.38.01.692.012.695s.078.003.171 0l.167-.004.005-.782c.004-.516 0-.8-.011-.838-.021-.072-.105-.147-.192-.17-.121-.033-.237-.011-.408.078a1 1 0 0 1-.16.075.3.3 0 0 1-.019-.067l-.012-.062-.14-.005a1 1 0 0 0-.175.004l-.035.009v.872c0 .48.005.877.01.883.006.005.087.01.18.01h.169Zm4.562.462v-.171l-.413-.005c-.294-.003-.419-.01-.432-.023-.015-.015.079-.2.414-.825l.432-.807-.004-.152-.004-.151h-1.25v.313l.375.007c.352.008.414.015.414.046 0 .007-.193.375-.43.819l-.43.807v.313h1.328Zm1.133.147a.6.6 0 0 0 .461-.494c.011-.067.016-.305.012-.701-.005-.581-.006-.604-.04-.687a.63.63 0 0 0-.429-.382c-.082-.022-.163-.025-.497-.021l-.398.005-.004 1.133c-.003.623 0 1.141.003 1.152.012.031.769.027.891-.004Zm-.454-.358-.039-.038v-1.471l.039-.039c.033-.031.053-.038.133-.038a.5.5 0 0 1 .147.022.5.5 0 0 1 .202.188c.034.061.034.084.039.556.006.578 0 .626-.096.731a.35.35 0 0 1-.289.128c-.083 0-.104-.005-.136-.038Zm-17.11-2.728a.4.4 0 0 1-.144-.1c-.121-.13-.111.108-.111-3.1v-2.87l.036-.079a.47.47 0 0 1 .217-.233l.081-.04h1.743l.004.869.004.869.975-.846a42 42 0 0 1 1.019-.868c.035-.019.144-.023.596-.023.639 0 .657.003.779.126.119.118.124.147.122.772v.532l-1.111.891c-.61.489-1.112.895-1.116.9-.003.006.496.413 1.11.906l1.117.895v.515c0 .621-.006.659-.133.786-.126.127-.148.13-.784.13-.444 0-.545-.004-.582-.023a39 39 0 0 1-1.018-.868l-.974-.845-.005.868-.004.868-.871-.001c-.83 0-.875-.002-.951-.031m5.816 0a.42.42 0 0 1-.228-.229c-.031-.082-.031-.125-.031-2.295V9.031h.856c.951 0 .942-.001 1.062.102a.6.6 0 0 1 .109.144l.043.089.004 1.859.004 1.86-.4.32c-.22.176-.428.336-.463.356-.062.034-.077.035-.472.034-.364 0-.415-.004-.484-.03Zm2.038-3.194V7.343h.864c.95 0 .946 0 1.062.096a.5.5 0 0 1 .101.128l.043.081.004.714c.002.394.008.715.013.715s.448-.381.985-.847a61 61 0 0 1 1.011-.867c.025-.014.185-.019.597-.019l.564-.001.096.048a.4.4 0 0 1 .216.232c.023.061.028.15.033.604l.005.532-1.121.903c-.618.497-1.119.908-1.115.913s.506.411 1.116.9l1.11.892v.523c0 .37-.005.542-.02.588a.46.46 0 0 1-.206.262l-.086.048-.565.005c-.436.003-.575 0-.612-.015a33 33 0 0 1-1.025-.868 81 81 0 0 0-.983-.848c-.005 0-.011.318-.013.707-.004.681-.006.71-.038.778a.43.43 0 0 1-.235.218c-.081.03-.12.031-.943.031h-.858Zm6.119 3.2a.53.53 0 0 1-.263-.235l-.037-.075-.003-2.351-.003-2.352.87-.706.871-.707 1.749.003c1.64.004 1.753.005 1.8.031.08.044.159.119.205.198l.041.072.005 2.889c.005 3.268.015 2.999-.121 3.134-.125.127-.111.125-1.081.125h-.841V11.75h-1.453v2.046h-.831c-.722-.001-.842-.005-.908-.026m3.192-4.302v-.703h-1.453v1.406h1.454Zm-1.203 0v-.437h.954v.875h-.954ZM6.961 11.31c-.465-.379-.857-.7-.873-.716-.028-.028-.003-.05.843-.743l.873-.714.004.711c.003.392.003 1.035 0 1.43l-.004.718Zm8.069-.023a27 27 0 0 1-.877-.722c.007-.016 1.758-1.424 1.772-1.424.007 0 .012.642.012 1.429 0 .785-.005 1.429-.012 1.428a45 45 0 0 1-.895-.711M8.078 8.229c0-.619.003-.641.124-.762.127-.126.104-.124 1.089-.124h.864v1.422H8.079Zm-3.485-.441v-.711l.911.002c.755.001.895.004.824.021a1 1 0 0 0-.143.05c-.032.016-.399.326-.816.69s-.762.66-.767.66-.008-.32-.008-.711Zm8.107.27-.005-.442-.052-.105a.8.8 0 0 0-.495-.412c-.064-.015.15-.019 1.148-.019 1.107 0 1.218.001 1.14.022a.7.7 0 0 0-.163.075c-.044.029-.408.339-.813.688-.403.349-.738.634-.745.634s-.013-.198-.016-.442Zm3.518.013a3 3 0 0 0-.017-.403c-.057-.274-.3-.522-.562-.573-.043-.009.374-.014 1.086-.016.635 0 1.149.004 1.14.012-.07.061-1.631 1.3-1.638 1.3-.005 0-.008-.145-.008-.32m-14.217-.67-.001-.324.308.001c.296.001.305.002.227.023a.6.6 0 0 0-.309.186.8.8 0 0 0-.202.356c-.021.079-.023.068-.023-.242m19.982.271a.75.75 0 0 0-.133-.327.65.65 0 0 0-.398-.245c-.079-.019-.059-.02.23-.021L22 7.077v.32c0 .177-.003.321-.008.321-.004 0-.007-.021-.007-.047ZM7.882 7.28a.8.8 0 0 0-.35-.185c-.046-.009.098-.014.422-.014.318 0 .467.005.423.014a.8.8 0 0 0-.342.176 1 1 0 0 1-.084.072.5.5 0 0 1-.069-.063"/></svg>