<svg xmlns="http://www.w3.org/2000/svg" viewBox="0 0 24 24"><path fill="#44739e" d="M7.969 7.584v1h2.132V7.117H8.434a.447.447 0 0 0-.465.467M9.634 8.85H7.969v4.398a.447.447 0 0 0 .499.5h.6a.3.3 0 0 0 .2-.066l.833-.667V9.316a.45.45 0 0 0-.467-.466M7.269 7.117h-.934a.27.27 0 0 0-.2.067L4.136 8.917v-1.8h-1.7a.48.48 0 0 0-.432.467v5.664a.447.447 0 0 0 .499.5h1.633v-1.799l1.999 1.733a.3.3 0 0 0 .2.066h.894a.462.462 0 0 0 .506-.5v-.974l-2.3-1.841 2.3-1.849v-1a.436.436 0 0 0-.466-.467m14.261 0h-3.432l-1.799 1.462v4.669a.48.48 0 0 0 .533.5h1.566v-2.099h1.5v2.099h1.599a.45.45 0 0 0 .5-.5V7.584a.466.466 0 0 0-.467-.467m-1.632 2.899h-1.5V8.584h1.5Zm-4.299-2.899h-.933a.26.26 0 0 0-.2.067l-1.999 1.733V7.584A.44.44 0 0 0 12 7.117h-1.666v6.631h1.633a.457.457 0 0 0 .5-.5v-1.299l1.999 1.733a.3.3 0 0 0 .2.066h.893a.462.462 0 0 0 .507-.5v-.974l-2.299-1.841 2.299-1.849v-1a.455.455 0 0 0-.467-.467m-5.527 9.645-.353-.944a.1.1 0 0 1 .026-.024.53.53 0 0 0 .279-.482v-.172a.57.57 0 0 0-.607-.561h-.683a.032.032 0 0 0-.035.034v2.199a.03.03 0 0 0 .035.033h.306a.036.036 0 0 0 .037-.033V16a.12.12 0 0 1 .121-.121h.07c.052 0 .081.044.1.088l.316.834c.015.041.024.045.036.044h.33c.021 0 .03-.013.025-.022l-.016-.043c.011-.001.017-.011.013-.018m-.415-1.46a.277.277 0 0 1-.292.263h-.164a.13.13 0 0 1-.121-.12v-.408a.113.113 0 0 1 .109-.121h.179a.277.277 0 0 1 .292.264Zm3.963-.197h-.27c-.021 0-.048.014-.048.034v1.173c0 .113-.123.2-.226.216a.2.2 0 0 1-.183-.2v-1.189a.034.034 0 0 0-.037-.034h-.282a.034.034 0 0 0-.036.034v1.467a.29.29 0 0 0 .243.274h.172c.124 0 .181-.142.271-.17.043.014.06.055.078.093s.027.044.048.044h.27a.05.05 0 0 0 .049-.044v-1.664c0-.02-.024-.034-.049-.034m-2.651-.527h-.668a.05.05 0 0 0-.048.045v2.18a.05.05 0 0 0 .048.044h.67a.62.62 0 0 0 .642-.593v-1.072a.63.63 0 0 0-.644-.604m.227 1.58a.363.363 0 0 1-.375.352h-.034a.13.13 0 0 1-.133-.121v-1.352a.13.13 0 0 1 .133-.121h.034a.37.37 0 0 1 .375.361Zm-2.662.617a.02.02 0 0 0 .009-.025l-.484-2.116q-.014-.055-.037-.056h-.5a.05.05 0 0 0-.049.045l-.448 2.127a.02.02 0 0 0 .008.024l-.008.04c0 .022.017.033.035.033h.332a.05.05 0 0 0 .048-.044l.061-.34a.134.134 0 0 1 .133-.11h.313a.124.124 0 0 1 .121.11l.073.329c.009.041.025.055.037.055h.329c.021 0 .042-.014.036-.033Zm-.589-.862a.11.11 0 0 1-.107.08h-.157a.11.11 0 0 1-.093-.081l.132-.732a.14.14 0 0 1 .04-.087.16.16 0 0 1 .042.087Zm-2.177-.841h-.063a1 1 0 0 0-.4.167.1.1 0 0 1-.013-.057v-.043c0-.023-.027-.034-.047-.034h-.279a.032.032 0 0 0-.037.034v1.664a.04.04 0 0 0 .037.044h.282a.05.05 0 0 0 .047-.044v-1.206c0-.094.129-.181.23-.209l.047-.009c.074.011.133.064.133.185v1.24a.05.05 0 0 0 .049.044h.281a.04.04 0 0 0 .036-.044v-1.448a.28.28 0 0 0-.303-.284m10.787-.526h-.283c-.02 0-.036.024-.035.043v.561a.14.14 0 0 1-.011.065.63.63 0 0 0-.315-.132h-.16a.3.3 0 0 0-.3.299v1.194a.307.307 0 0 0 .3.307h.16a.29.29 0 0 0 .244-.1.2.2 0 0 1 .058-.04.07.07 0 0 1 .024.062.04.04 0 0 0 .035.044h.283a.05.05 0 0 0 .048-.044v-2.216a.05.05 0 0 0-.048-.043m-.318 1.831a.24.24 0 0 1-.2.176h-.038a.19.19 0 0 1-.194-.176v-.792a.19.19 0 0 1 .194-.176h.046a.23.23 0 0 1 .2.176Zm5.503-1.799h-1.07a.05.05 0 0 0-.049.045v2.18a.05.05 0 0 0 .049.044h.306a.05.05 0 0 0 .048-.044v-.856a.123.123 0 0 1 .121-.12h.452a.05.05 0 0 0 .049-.045v-.249a.055.055 0 0 0-.049-.045h-.436a.13.13 0 0 1-.134-.12v-.32a.134.134 0 0 1 .134-.12h.582c.024 0 .036-.022.036-.045v-.26c-.003-.025-.015-.045-.039-.045m-2.001 0h-.669a.05.05 0 0 0-.049.045v2.18a.05.05 0 0 0 .049.044h.669a.61.61 0 0 0 .63-.593v-1.072a.62.62 0 0 0-.63-.604m.228 1.58a.364.364 0 0 1-.376.352h-.034a.13.13 0 0 1-.133-.121v-1.352a.13.13 0 0 1 .133-.121h.034a.37.37 0 0 1 .376.361ZM4.228 15.072h-.2a.44.44 0 0 0-.461.416v.964a.447.447 0 0 0 .461.428h.2a.437.437 0 0 0 .449-.428v-.955a.44.44 0 0 0-.449-.425m.107 1.305a.2.2 0 0 1-.194.2h-.01a.21.21 0 0 1-.206-.2v-.8a.21.21 0 0 1 .206-.2h.01a.2.2 0 0 1 .194.2Zm10.497-1.305h-.063a1.1 1.1 0 0 0-.407.169.1.1 0 0 1-.015-.059v-.043a.033.033 0 0 0-.037-.034h-.28c-.021 0-.048.012-.048.034v1.664a.05.05 0 0 0 .048.044h.28a.04.04 0 0 0 .037-.044v-1.206c0-.094.13-.181.231-.209l.047-.009c.074.011.132.064.132.185l.012 1.24a.04.04 0 0 0 .036.044h.282a.04.04 0 0 0 .036-.044v-1.448a.27.27 0 0 0-.291-.284m3.974-.243v-.217c0-.017-.025-.034-.049-.034h-1.159c-.024 0-.048.018-.049.034v.26c0 .017.021.033.049.033h.655a.12.12 0 0 1 .084.046l-.836 1.569a.13.13 0 0 0-.012.065v.228a.033.033 0 0 0 .036.033h1.24a.034.034 0 0 0 .037-.033v-.283a.034.034 0 0 0-.037-.033h-.739a.1.1 0 0 1-.074-.035l.837-1.558a.13.13 0 0 0 .017-.075m-15.378.321c.006-.031 0-.045-.036-.045h-.258c-.012 0-.034.012-.036.023l-.243 1.019a.2.2 0 0 1-.033.076.16.16 0 0 1-.037-.076l-.206-1.019a.05.05 0 0 0-.037-.023h-.268c-.033 0-.055.014-.049.045l.008.031a.04.04 0 0 0-.008.031l.388 1.6a.07.07 0 0 0 .036.033h.33a.04.04 0 0 0 .024-.031l.424-1.6a.04.04 0 0 0-.007-.036Zm5.306-.572"/></svg>