<svg xmlns="http://www.w3.org/2000/svg" viewBox="0 0 24 24"><path fill="#44739e" d="m13.13 14.75-2.525-2.576 4.569 2.553 3.09 1.726v-3.14l-6.641-2.493 6.641.622V8.466l-6.641.623L18.2 6.621l.068-.026V3.454l-7.663 4.281 4.123-4.207h-3.376L8.875 7.174V3.528h-2.74V16.38h2.738v-3.645l1.234 1.818.044.064.068.1 1.128 1.661h3.379l-1.6-1.63Zm4.926-.023v1.368l-2.429-1.357Zm-9.393 1.442H6.345v-1.388l1.155-.006 1.159-.005Zm5.563 0H11.46l-.955-1.408h.631l1.7-.008Zm6.903 2.742.849-1.477h-.741l-.588 1.373v-1.373h-.718v3.05h.719v-1.372l.544 1.372H22Zm-2.58 1.18c-.283 0-.422-.5-.422-1.133s.139-1.132.422-1.132c.2 0 .323.266.375.688l.7-.157-.021-.091a1.05 1.05 0 0 0-1.055-.893c-.806 0-1.181.715-1.181 1.586s.375 1.586 1.181 1.586a1.04 1.04 0 0 0 1.063-.928l.022-.105-.684-.1c-.049.401-.186.68-.4.679m-2.993-.683.109-1.974h-.719v3.05h.588l.894-1.973-.109 1.973h.719v-3.05h-.589Zm-2.148-2.035c-.806 0-1.207.715-1.207 1.586s.4 1.586 1.207 1.586 1.207-.714 1.207-1.586-.401-1.586-1.207-1.586m0 2.719c-.283 0-.449-.5-.449-1.133s.166-1.132.449-1.132.449.5.449 1.132-.166 1.133-.449 1.133m-3.608.392h.719v-2.571h.632v2.571h.719v-3.05H9.8Zm-1.538-3.111c-.806 0-1.207.715-1.207 1.586s.4 1.586 1.207 1.586 1.207-.714 1.207-1.586-.401-1.586-1.207-1.586m0 2.719c-.283 0-.448-.5-.449-1.133s.166-1.132.449-1.132.449.5.449 1.132-.166 1.133-.449 1.133m-2.257-1.481h-.61v-1.177h-.719v3.05h.719V19.09h.61v1.394h.719v-3.05h-.719Zm-3.37.814.113-2.053H2v3.173h.612l.929-2.053-.113 2.053h.747v-3.173h-.612Z"/></svg>