<svg xmlns="http://www.w3.org/2000/svg" viewBox="0 0 24 24"><path fill="#44739e" d="M21.231 8.937h.311c.289 0 .458.145.458.37 0 .213-.158.386-.444.386h-.095v.297h-.23Zm.536.379c0-.11-.084-.168-.203-.168h-.103v.34h.104c.119 0 .202-.062.202-.172m-1.372-.168h-.308v-.21h.844v.21h-.307v.841h-.229Zm-.689.841-.093-.256h-.394l-.09.257h-.24l.394-1.052h.265l.4 1.052Zm-.423-.445h.265l-.133-.366Zm-1.422-.607h.66v.207h-.43v.219h.393v.19h-.393v.23h.43v.206h-.66Zm-.898.21h-.309v-.21h.844v.21h-.307v.841h-.228Zm-1.661.316a.533.533 0 0 1 .543-.55c.308 0 .543.231.543.55s-.234.55-.543.55a.533.533 0 0 1-.543-.55m.853 0c0-.216-.15-.339-.31-.339-.161 0-.31.124-.31.339 0 .217.15.34.31.34.159 0 .31-.125.31-.34m-1.473.104h-.43v.421h-.23V8.937h.23v.421h.43v-.421h.228v1.052h-.228Zm-2.096-.63h.219v.706h.001l.484-.706h.222v1.052h-.219v-.716h-.001l-.485.716h-.22Zm-.667 1.052-.396-.501v.5h-.23v-1.05h.23v.494l.394-.494h.27l-.421.52.429.533Zm-1.516-.536h.41v.174h-.41Zm-.71.115h-.43v.421h-.23V8.937h.23v.421h.43v-.421h.228v1.052h-.228Zm-2.097-.631h.219v.706h.001l.484-.706h.222v1.052h-.219v-.716h-.002l-.485.716h-.22Zm.47-.095c-.148 0-.272-.075-.272-.254h.162c0 .086.033.133.11.133.076 0 .11-.048.11-.133h.161c.001.18-.122.254-.271.254M6.955 9.99l-.092-.257h-.394l-.09.257h-.24l.393-1.052h.266l.399 1.052Zm-.423-.446h.266l-.134-.366Zm-1.694.253c.125 0 .176-.079.176-.269v-.591h.722v1.052h-.23v-.841h-.268v.377c0 .335-.116.472-.4.472Zm-.701-.229h-.431v.422h-.23V8.937h.23v.421h.431v-.421h.228v1.052h-.229ZM2 9.463a.533.533 0 0 1 .544-.55.533.533 0 0 1 .543.55c0 .32-.234.55-.543.55A.533.533 0 0 1 2 9.463m.854 0c0-.215-.151-.338-.31-.338-.161 0-.311.123-.311.338 0 .218.151.341.311.341s.31-.125.31-.341m5.714 1.384v4.386a.177.177 0 0 1-.178.178H7.247a.177.177 0 0 1-.178-.178v-4.386c0-.098.08-.177.178-.177H8.39c.099 0 .178.079.178.177m-1.789 4.365-1.332-2.28 1.263-2.055a.132.132 0 0 0-.108-.208l-1.388.003a.13.13 0 0 0-.11.058l-.981 1.667h-.574v-1.549a.177.177 0 0 0-.176-.178H2.229a.177.177 0 0 0-.177.177v4.386c0 .098.08.178.177.178h1.144a.177.177 0 0 0 .177-.178v-1.544h.697l.975 1.658a.13.13 0 0 0 .113.065h1.332a.13.13 0 0 0 .112-.2m14.992.199a.177.177 0 0 0 .177-.178v-4.386a.177.177 0 0 0-.177-.177h-1.103a.177.177 0 0 0-.176.177l.006 2.244-2-2.419h-1.272a.177.177 0 0 0-.177.177v4.387c0 .097.079.176.177.176h1.1a.175.175 0 0 0 .177-.176v-2.247l1.98 2.422Zm-5.18-4.546v4.35a.196.196 0 0 1-.196.196H9.221a.196.196 0 0 1-.195-.196v-4.35c0-.108.088-.196.195-.196h7.175c.107 0 .195.089.195.196m-1.489 1.065a.062.062 0 0 0-.075-.061c-.775.155-3.519.178-4.439-.001a.062.062 0 0 0-.074.061v2.153c0 .038.034.066.072.061.763-.113 3.663-.094 4.447.003a.062.062 0 0 0 .069-.062Zm-6.534-1.083v4.386a.177.177 0 0 1-.178.178H7.247a.177.177 0 0 1-.178-.178v-4.386c0-.098.08-.177.178-.177H8.39c.099 0 .178.079.178.177m-1.789 4.365-1.332-2.28 1.263-2.055a.132.132 0 0 0-.108-.208l-1.388.003a.13.13 0 0 0-.11.058l-.981 1.667h-.574v-1.549a.177.177 0 0 0-.176-.178H2.229a.177.177 0 0 0-.177.177v4.386c0 .098.08.178.177.178h1.144a.177.177 0 0 0 .177-.178v-1.544h.697l.975 1.658a.13.13 0 0 0 .113.065h1.332a.13.13 0 0 0 .112-.2m14.992.199a.177.177 0 0 0 .177-.178v-4.386a.177.177 0 0 0-.177-.177h-1.103a.177.177 0 0 0-.176.177l.006 2.244-2-2.419h-1.272a.177.177 0 0 0-.177.177v4.387c0 .097.079.176.177.176h1.1a.175.175 0 0 0 .177-.176v-2.247l1.98 2.422Zm-5.18-4.546v4.35a.196.196 0 0 1-.196.196H9.221a.196.196 0 0 1-.195-.196v-4.35c0-.108.088-.196.195-.196h7.175c.107 0 .195.089.195.196m-1.489 1.065a.062.062 0 0 0-.075-.061c-.775.155-3.519.178-4.439-.001a.062.062 0 0 0-.074.061v2.153c0 .038.034.066.072.061.763-.113 3.663-.094 4.447.003a.062.062 0 0 0 .069-.062Z"/></svg>