<svg xmlns="http://www.w3.org/2000/svg" viewBox="0 0 24 24"><path fill="#44739e" d="M11.473 10.596h1.399v-.7H11.75l-.938-3.94a.35.35 0 0 0-.341-.27H8.967a.35.35 0 0 0-.341.27l-.939 3.94H6.561v.7ZM9.244 6.385h.949l.836 3.509H8.408Zm1.527 8.07H8.666a.35.35 0 0 0-.351.35v1.755a.35.35 0 0 0 .351.351h2.105a.35.35 0 0 0 .351-.351v-1.755a.35.35 0 0 0-.351-.35m-.35 1.754H9.017v-1.053h1.4ZM6.21 14.455h.702v1.754H6.21Zm11.227-2.457h.702v1.754h-.702Zm0-3.156h.702v1.754h-.702Zm4.211-2.457h-4.912a.35.35 0 0 0-.35.351v6.666H2.35a.35.35 0 0 0-.35.351v4.21a.35.35 0 0 0 .35.351h19.299a.35.35 0 0 0 .351-.351V6.736a.35.35 0 0 0-.352-.351m-5.263 9.122h-4.211v-1.4h4.211Zm-13.684-1.4h4.562v3.509H2.701Zm5.263 0h3.509v1.4h-.012v.7h.012v1.4H7.964Zm4.21 2.1h4.211v1.4h-4.211Zm9.123 1.4h-4.211v-5.958h4.211Zm-4.211-6.66v-3.86h4.211v3.86Z"/></svg>