<svg xmlns="http://www.w3.org/2000/svg" viewBox="0 0 24 24"><path fill="#44739e" d="M18.69 14.677c.474-.206.721-.465.75-.76 0-.014.009-.028.009-.042l.006-2.585a.3.3 0 0 0 0-.067c0-.126-.103-.35-.442-.54a1 1 0 0 0-.196-.103h-.008a3.2 3.2 0 0 0-1.34-.229 3.2 3.2 0 0 0-1.345.224l-.272.103-1.807.715-.015-.715-.016-.794-.015-.743-.016-.791v-.243l1.255-.498c.403-.163.446-.367.446-.447V5.615c0-.08-.037-.278-.376-.384a1.75 1.75 0 0 0-.791-.116 3 3 0 0 0-.79.114l-6.422 2.5a.43.43 0 0 0-.32.387v1.522l.017.034a.62.62 0 0 0 .422.374l.021.009a1.13 1.13 0 0 0 .582.103 2.5 2.5 0 0 0 .663-.054l.115-.036v3.394l-.06.024-2.474.963-.732.284c-.467.196-.633.491-.633.685v2.539a1.04 1.04 0 0 0 .758.757 2.6 2.6 0 0 0 1.101.172 4.3 4.3 0 0 0 1.598-.229l4.742-1.83 3.862-1.488Zm-9.309-1.614v-3.02l.029-.01v-.077l.323-.121.712-.273.794-.303 1.551-.596.653-.25v.184l.022-.009.044 2.095.02.992-2.886 1.173-1.204.489v-.111l-.056.023Zm-4.102 5.148a.16.16 0 0 1-.006-.146v-.016l.028-.032a.8.8 0 0 1 .25-.19l.067-.035 2.922-1.161.636-.252 2.051-.812 1.536-.608.459-.179.67-.263a86 86 0 0 1 2.404-.921q.209-.075.451-.139a2.85 2.85 0 0 1 2 .103.62.62 0 0 1 .35.254.1.1 0 0 1 .007.056v.02q.002.011-.006.02a.2.2 0 0 1-.03.082 1.44 1.44 0 0 1-.643.353l-2.507.993-2.979 1.167c-.951.371-1.856.721-2.578 1.006l-.731.282c-.399.153-.691.264-.794.299a4.05 4.05 0 0 1-3.138.363.9.9 0 0 1-.35-.172.3.3 0 0 1-.069-.072m14.797-9.856h-5.911l.018.88a.38.38 0 0 1 .128.284.4.4 0 0 1-.117.278l.008.387.007.334v.165h1.134l.383-.151.324-.128a2 2 0 0 1 .24-.072 3.4 3.4 0 0 1 .902-.151c.095 0 .173-.022.275-.022s.179.017.273.021a3.4 3.4 0 0 1 .947.165 2 2 0 0 1 .2.06 1.6 1.6 0 0 1 .317.17 1 1 0 0 1 .13.103h.745A1.746 1.746 0 0 1 22 12.235v-1.939a1.93 1.93 0 0 0-1.924-1.941M15.85 9.902a.388.388 0 1 1 .384-.388.386.386 0 0 1-.388.392Zm1.923 0a.388.388 0 1 1 .385-.388.387.387 0 0 1-.385.392Zm1.923 0a.388.388 0 1 1 .384-.388.386.386 0 0 1-.388.392Zm1.922 2.747a1.835 1.835 0 0 0-1.979-1.443.4.4 0 0 1-.006.13v2.539l1.396-.304a.773.773 0 0 0 .589-.922m-1.341.15a.38.38 0 0 1-.456-.297.386.386 0 1 1 .456.297m1.337 2.54h-4.123l-.276.103-1.927.742a.383.383 0 1 1-.597.315.3.3 0 0 1 .019-.092l-1.477.569a1.9 1.9 0 0 0 1.458.687h6.922a.387.387 0 0 0 .386-.388v-1.549a.387.387 0 0 0-.385-.387m-4.615 1.551a.389.389 0 1 1 .385-.388.386.386 0 0 1-.385.388m1.924 0a.389.389 0 1 1 .384-.388.386.386 0 0 1-.384.388m1.922 0a.389.389 0 1 1 .385-.388.386.386 0 0 1-.385.388M7.877 13.628l.754-.292v-1.067l-4.06-.879a1.84 1.84 0 0 0-2.187 1.423.773.773 0 0 0 .589.923l2.971.646.103-.041 1.443-.558a.391.391 0 1 1 .387-.155m-3.69-.967a.38.38 0 0 1-.458.297.388.388 0 1 1 .456-.297m1.879.413a.385.385 0 1 1-.294-.461.386.386 0 0 1 .289.458Zm-3.678 2.424a.387.387 0 0 0-.386.388v1.546a.387.387 0 0 0 .386.389h2.338v-1.012a.4.4 0 0 1 0-.304v-1.012H2.387Zm.769 1.552a.389.389 0 1 1 .384-.388.386.386 0 0 1-.384.388m.769-6.207h4.7v-.531a3 3 0 0 1-.545.031h-.054a1.6 1.6 0 0 1-.561-.087 1 1 0 0 1-.103-.033.8.8 0 0 1-.524-.468l-.023-.048-.01-.044V8.515h-2.88A1.93 1.93 0 0 0 2 10.455v1.938a1.746 1.746 0 0 1 1.924-1.55m2.303-1.552a.388.388 0 1 1-.385.388.387.387 0 0 1 .385-.388m-1.923 0a.388.388 0 1 1-.384.388.386.386 0 0 1 .388-.388Z"/></svg>