<?xml version="1.0" encoding="UTF-8"?>
<svg width="24px" fill="#44739e" height="24px" viewBox="0 0 24 24" version="1.1" xmlns="http://www.w3.org/2000/svg" xmlns:xlink="http://www.w3.org/1999/xlink">
            <path d="m 11.274,15.054 -0.547,1.304 h 1.084 z m 2.881,-0.637 h -0.3 v 1.6 h 0.3 c 0.635,0 0.892,-0.3 0.892,-0.8 0,-0.5 -0.26,-0.8 -0.892,-0.8 z m 5.858,-0.931 -1,-1 -0.464,-0.464 1.464,-1.464 A 5,5 0 1 0 13.031,3.4 L 12.942,3.49 11.878,4.55 V 2.022 h -9.4 v 15.05 a 4.949,4.949 0 0 0 4.9479999,4.95 v 0 a 5.118,5.118 0 0 0 0.567,-0.032 A 4.96,4.96 0 0 0 11.793,19.41 l 0.085,0.085 0.065,0.065 1,1 a 5,5 0 0 0 7.071,-7.071 z M 6.513,17.278 5.266,16.11 v 1.168 H 4.748 v -3.294 h 0.518 v 1.838 l 1.318,-1.84 h 0.571 l -1.377,1.929 1.457,1.367 z m 2.749,0 H 7.878 V 13.984 H 8.4 v 2.838 h 1.06 z m 2.922,0 L 12,16.818 h -1.479 l -0.189,0.46 H 9.8089997 L 11.252,13.916 h 0.03 l 1.447,3.362 z m 2.783,0 -0.562,-0.8 a 1.885,1.885 0 0 1 -0.237,0.015 h -0.325 v 0.785 h -0.518 v -3.294 h 0.843 a 1.231,1.231 0 0 1 1.389,1.047 1.363,1.363 0 0 1 0.011,0.212 1.135,1.135 0 0 1 -0.659,1.1 l 0.669,0.935 z m 3.415,0 -0.19,-0.46 h -1.473 l -0.189,0.46 h -0.523 l 1.443,-3.362 h 0.028 l 1.448,3.362 z m -0.922,-2.224 -0.548,1.304 h 1.085 z"/>

</svg>