<svg xmlns="http://www.w3.org/2000/svg" viewBox="0 0 24 24"><path fill="#44739e" d="m11.242 15.072-.544 1.297h1.077Zm2.863-.634h-.298v1.591h.298c.632 0 .887-.298.887-.795s-.258-.796-.887-.796m5.824-.925-.993-.995-.461-.459 1.454-1.458a4.971 4.971 0 1 0-6.939-7.117l-.09.09-1.058 1.055V2.115H2.496v14.964A4.924 4.924 0 0 0 7.415 22a5 5 0 0 0 .564-.032 4.93 4.93 0 0 0 3.778-2.566l.085.085.065.064.994.995a4.971 4.971 0 0 0 7.029-7.03ZM6.508 17.284l-1.241-1.162v1.162h-.514v-3.276h.514v1.826l1.31-1.828h.569l-1.368 1.917 1.448 1.361Zm2.733 0H7.865v-3.276h.519v2.822h1.054Zm2.905 0-.184-.458h-1.468l-.191.458h-.518l1.436-3.344h.029l1.437 3.344Zm2.767 0-.559-.795a2 2 0 0 1-.236.015h-.323v.78h-.513v-3.276h.836a1.223 1.223 0 0 1 1.383 1.041 1.4 1.4 0 0 1 .011.211 1.13 1.13 0 0 1-.657 1.094l.666.93Zm3.396 0-.188-.458h-1.466l-.188.458h-.52l1.433-3.344h.028l1.442 3.344Zm-.919-2.212-.543 1.297h1.079Z"/></svg>