<svg xmlns="http://www.w3.org/2000/svg" viewBox="0 0 24 24"><path fill="#44739e" d="m11.255 15.062-.544 1.298h1.079Zm2.869-.635h-.299v1.594h.299c.632 0 .888-.299.888-.797s-.259-.797-.888-.797m5.833-.927-.996-.995-.462-.462 1.458-1.458a4.979 4.979 0 1 0-6.952-7.128l-.089.09-1.059 1.055V2.085h-9.36v14.986A4.93 4.93 0 0 0 7.424 22a5 5 0 0 0 .564-.032 4.94 4.94 0 0 0 3.784-2.569l.085.085.065.064.995.996a4.979 4.979 0 0 0 7.041-7.041ZM6.515 17.276l-1.242-1.163v1.163h-.516v-3.28h.516v1.83l1.312-1.832h.569l-1.371 1.921 1.451 1.361Zm2.737 0H7.874v-3.28h.52v2.826h1.055Zm2.91 0-.184-.458h-1.472l-.189.458h-.52l1.437-3.348h.029l1.441 3.348Zm2.771 0-.56-.796a2 2 0 0 1-.236.015h-.324v.781h-.515v-3.28h.839a1.225 1.225 0 0 1 1.383 1.043 1.4 1.4 0 0 1 .011.211 1.13 1.13 0 0 1-.656 1.095l.666.931Zm3.4 0-.189-.458h-1.467l-.188.458h-.521l1.437-3.348h.028l1.442 3.348Zm-.918-2.214-.546 1.298h1.081Z"/></svg>