<?xml version="1.0" encoding="UTF-8"?>
<svg width="24px" fill="#44739e" height="24px" viewBox="0 0 24 24" version="1.1" xmlns="http://www.w3.org/2000/svg" xmlns:xlink="http://www.w3.org/1999/xlink">
            <path d="m 19.479,14.060214 2.459,-2.5 H 20.2 l -1.5,1.463 -1.3,-1.463 h -1.982 l 2.192,2.533 -2.759,2.728 H 16.6 l 1.813,-1.8 1.553,1.8 2.036,0.01 z m -1.059,0.71 -1.893,1.884 h -1.274 l 2.585,-2.557 -2.058,-2.377 h 1.543 l 1.364,1.541 1.58,-1.541 h 1.278 l -2.3,2.335 2.374,2.6 -1.581,-0.007 z m -5.689,-3.199 0.01,2.662 -1.985,-2.672 H 8.6880001 v 5.258 H 10.51 l 0.022,-2.668 2.068,2.667 h 1.973 v -5.252 z m -0.031,5.069 -2.352,-3.034 -0.028,3.034 H 8.8800001 v -4.9 H 10.657 l 2.278,3.067 -0.012,-3.057 h 1.458 v 4.89 z m -2.142,-4.714 H 9.0710001 v 4.526 H 10.13 l 0.028,-3.399 2.636,3.399 1.397,10e-4 -0.001,-4.52 -1.075,0.002 0.014,3.452 z M 7.1670001,9.2402142 a 16.159,16.159 0 0 1 4.6999999,-0.707 h 0.1 a 20.437,20.437 0 0 1 4.6,0.765 10.871,10.871 0 0 1 3.556,1.8549998 l 1.733,0.009 -0.075,-0.08 a 8.307,8.307 0 0 0 -1.171,-0.974 13.484,13.484 0 0 0 -3.439,-1.7379998 17.408,17.408 0 0 0 -3.742,-0.838 10.085,10.085 0 0 0 -1.48,-0.065 H 11.87 v 0 a 14.809,14.809 0 0 0 -5.0999999,0.887 12.588,12.588 0 0 0 -4.764,2.8639998 h 1.504 a 9.816,9.816 0 0 1 3.657,-1.9779998 z m 4.8699999,-1.617 a 15.573,15.573 0 0 1 5.079,0.9 13.33,13.33 0 0 1 3.389,1.7169998 8.074,8.074 0 0 1 0.923,0.737 H 20.2 a 11.308,11.308 0 0 0 -3.582,-1.8269998 19.7,19.7 0 0 0 -4.587,-0.776 z m -6.3499999,3.9329998 -2.178,2.215 v -2.209 h -1.505 l -0.004,5.256 h 1.509 v -1.501 l 0.596,-0.605 1.765,2.1 h 1.805 l -2.384,-2.816 -0.215,-0.27 2.139,-2.17 z"/>

</svg>