<?xml version="1.0" encoding="UTF-8"?>
<svg width="24px" fill="#44739e" height="24px" viewBox="0 0 24 24" version="1.1" xmlns="http://www.w3.org/2000/svg" xmlns:xlink="http://www.w3.org/1999/xlink">
<path d="M 23 12 C 23 12.347656 22.867188 12.699219 22.609375 12.960938 L 19.113281 16.488281 C 19.019531 16.578125 18.902344 16.628906 18.773438 16.628906 C 18.648438 16.628906 18.523438 16.578125 18.433594 16.488281 L 15.007812 13.027344 C 14.820312 12.84375 14.820312 12.539062 15.007812 12.355469 L 19.117188 8.203125 C 19.296875 8.019531 19.617188 8.019531 19.796875 8.203125 L 22.609375 11.039062 C 22.867188 11.300781 23 11.652344 23 12 Z M 5.5 8.078125 L 5.5 15.921875 C 5.5 16.109375 5.390625 16.28125 5.230469 16.355469 C 5.171875 16.386719 5.113281 16.398438 5.050781 16.398438 C 4.9375 16.398438 4.828125 16.351562 4.742188 16.269531 L 1.40625 12.972656 C 1.144531 12.710938 1 12.367188 1 12 C 1 11.628906 1.144531 11.28125 1.40625 11.023438 L 4.742188 7.730469 C 4.875 7.601562 5.066406 7.566406 5.230469 7.644531 C 5.390625 7.714844 5.5 7.886719 5.5 8.078125 Z M 17.285156 6.394531 L 8.832031 14.800781 C 8.742188 14.894531 8.613281 14.945312 8.488281 14.945312 C 8.421875 14.945312 8.359375 14.929688 8.300781 14.90625 C 8.121094 14.835938 8 14.660156 8 14.46875 L 8 4.574219 C 8 4.449219 8.046875 4.324219 8.140625 4.238281 L 10.992188 1.402344 C 11.25 1.144531 11.597656 1 11.964844 1 C 12.332031 1 12.675781 1.144531 12.933594 1.402344 L 17.285156 5.726562 C 17.472656 5.910156 17.472656 6.207031 17.285156 6.394531 Z M 16.640625 18.96875 L 12.960938 22.601562 C 12.703125 22.855469 12.359375 23 11.988281 23 C 11.621094 23 11.273438 22.855469 11.011719 22.601562 L 8.144531 19.761719 C 7.953125 19.574219 7.953125 19.277344 8.144531 19.09375 L 12.449219 14.832031 C 12.632812 14.648438 12.957031 14.648438 13.144531 14.832031 L 16.640625 18.292969 C 16.832031 18.480469 16.832031 18.78125 16.640625 18.96875 Z M 16.640625 18.96875 "/>
</svg>
