<svg xmlns="http://www.w3.org/2000/svg" viewBox="0 0 24 24"><path fill="#44739e" d="m4.818 21.336.892-.007c.3 0 .5-.105.535-.416l.119-.952c.041-.328-.119-.417-.416-.416h-.9c-.2 0-.493.023-.542.416l-.119.952c-.046.364.171.423.431.423m.312-.6.074-.617a.23.23 0 0 1 .238-.23c.207 0 .185.182.178.23l-.074.617c-.01.089-.031.231-.238.231s-.189-.137-.178-.226Zm-2.223-.329h.007l.446.907h.795l-.58-1.145.781-1.048h-.751l-.639.877h-.007l.104-.877h-.714l-.275 2.2h.721Zm4.328.208h1.137l.082-.654c.041-.334-.144-.416-.431-.416h-.87c-.319 0-.517.091-.557.416l-.119.952c-.046.357.159.417.416.416h.922c.287 0 .479-.094.52-.416l.015-.126h-.723a.22.22 0 0 1-.229.186c-.189 0-.19-.146-.178-.238Zm.059-.5a.23.23 0 0 1 .229-.216c.121 0 .208.063.186.238l-.015.119h-.416ZM2 21.924l9.256-.015.052-.439-9.249.015Zm7.658-.611.721-.007.164-1.346c.043-.346-.14-.424-.394-.424h-.231a.5.5 0 0 0-.364.111.36.36 0 0 0-.119.186h-.007l.03-.275h-.721l-.216 1.754h.721l.141-1.152c.008-.07.033-.267.238-.268s.187.171.178.245Zm1.167-1.754-.216 1.747h.721l.216-1.754Zm10.454-.016-.037.245a.35.35 0 0 0-.394-.26h-.353a.41.41 0 0 0-.394.416l-.119.937c-.041.326.13.417.394.416h.224a.53.53 0 0 0 .357-.112.5.5 0 0 0 .134-.193l-.052.468-1.085.008-.052.438 1.288-.005c.214 0 .526-.028.572-.4L22 19.543Zm-.076.566-.074.58c-.006.046-.031.253-.238.253-.17 0-.183-.136-.171-.231l.074-.624a.25.25 0 0 1 .179-.231.3.3 0 0 1 .059 0c.207 0 .179.187.168.253Zm-5.554-.022.015-.134c.039-.314-.119-.417-.394-.416h-.959a1 1 0 0 0-.1 0 .42.42 0 0 0-.4.416l-.03.238c-.053.431.207.44.491.446l.6.015-.007.052a.26.26 0 0 1-.268.253.2.2 0 0 1-.134-.037.14.14 0 0 1-.059-.126h-.714l-.015.1c-.05.4.22.424.461.424h.885c.3 0 .5-.115.535-.424l.03-.23c.05-.4-.239-.411-.483-.416l-.61-.008.015-.134a.23.23 0 0 1 .238-.216.2.2 0 0 1 .111.037.16.16 0 0 1 .067.156Zm3.535-.544-.03.253h-.007a.35.35 0 0 0-.387-.268h-.26a.43.43 0 0 0-.5.416l-.113.937c-.04.326.124.417.388.416h.238a.53.53 0 0 0 .357-.1c.052-.046.056-.064.126-.2H19l-.059.476H17.86l-.044.438H19.1c.214 0 .526-.035.572-.409l.238-1.955Zm-.069.566-.074.587a.246.246 0 0 1-.238.245c-.17 0-.191-.137-.178-.23l.082-.624a.23.23 0 0 1 .23-.231c.207 0 .186.187.178.253m-6.215-.557-.03.253h-.008a.35.35 0 0 0-.387-.268h-.26a.43.43 0 0 0-.5.416l-.112.937c-.041.326.13.417.394.416h.231a.53.53 0 0 0 .357-.1c.052-.046.057-.064.126-.2h.008l-.059.476h-1.076l-.052.439h1.286c.214 0 .519-.035.565-.409l.238-1.955Zm-.068.565-.074.587a.245.245 0 0 1-.238.245c-.17 0-.191-.136-.178-.231l.082-.624a.23.23 0 0 1 .23-.23c.207 0 .187.187.178.253m.654 1.791 4.059-.007.052-.439-3.947.008a.8.8 0 0 1-.164.438m3.846-2.379h-.872c-.319 0-.516.1-.557.424l-.119.952c-.045.357.16.416.416.416h.922c.288 0 .481-.094.52-.416l.016-.134h-.722a.23.23 0 0 1-.23.193c-.188 0-.189-.147-.177-.238l.015-.127h1.137l.082-.654c.037-.334-.144-.416-.431-.416m-.314.6L17 20.25h-.416l.016-.149a.233.233 0 0 1 .23-.215c.123 0 .21.071.188.245Zm-5.449-.726.03-.29h-.714l-.037.297Zm.446-10.029 2.81.877 1.8-.3q.061-.234.113-.457l-1.918-.6Zm0 1.464 2.81.773 1.377-.282q.115-.322.213-.634l-1.59-.437Zm2.81-4.668-2.81.26 2.81 1.093 2.275-.208v-.041c0-.078.009-.151.013-.219Zm-2.166 10.622q.261-.24.5-.489l-1.147.415Zm1.185-1.251a13 13 0 0 0 .844-1.149l-2.674.855Zm-1.829-3.23 2.81.661.766-.183q.216-.45.4-.9l-1.161-.274Zm0 1.464 2.721.544c.259-.4.491-.808.7-1.213l-.609-.119Zm0-5.874 2.81.981 2.1-.267q.03-.171.055-.332l-2.154-.754Zm4.267-1.822a19.5 19.5 0 0 0-2.5-1.219l-1.769.1 2.81 1.2Zm-4.268 3.295L9.2 8.901l-1.936.6q.048.215.106.441l1.83.311ZM9.3 14.373a13 13 0 0 0 .868 1.169l1.851-.3Zm2.715-6.472L9.2 7.53l-2.162.757q.024.16.052.329l2.111.267Zm0 2.937-2.815-.58-1.612.443q.094.3.205.62l1.412.288ZM9.2 12.987l-.642.125a14 14 0 0 0 .7 1.213l2.75-.549Zm2.814-6.557L9.2 6.17l-2.29.884c0 .08.01.167.018.261l2.272.208Zm-1.158 9.871q.251.253.523.5l.635-.079ZM9.2 6.162l2.81-1.2-1.765-.1c-.388.158-.81.341-1.235.545s-.86.431-1.268.673Zm2.814 6.148L9.2 11.619l-1.189.282q.176.437.388.881l.805.19Zm-.146 5.383.148.108.15-.11a13.76 13.76 0 0 0 4.772-7.4 24 24 0 0 0 .7-4.649v-.126l-.094-.077a18.5 18.5 0 0 0-5.45-3.338l-.076-.025-.075.025A19.5 19.5 0 0 0 6.5 5.436l-.1.077v.126a21.7 21.7 0 0 0 .7 4.649 13.28 13.28 0 0 0 4.768 7.405M11.5 2.65a.7.7 0 0 1 .409.112L11.9 2.48h.232v.275a.7.7 0 0 1 .387-.1.8.8 0 0 1 .26.052l-.015.193a.5.5 0 0 0-.253-.059.382.382 0 0 0-.387.416.384.384 0 0 0 .394.416.6.6 0 0 0 .253-.045l.007.193a1 1 0 0 1-.26.037.77.77 0 0 1-.387-.1v.243H11.9l.008-.253a.77.77 0 0 1-.409.1 1.2 1.2 0 0 1-.26-.037l.007-.193a.6.6 0 0 0 .253.045.416.416 0 0 0 .007-.832.5.5 0 0 0-.253.059l-.012-.189a.7.7 0 0 1 .259-.051M7.086 8.615c-.019-.111-.031-.222-.046-.327q-.08-.563-.11-.972l-.015-.26C6.9 6.871 6.9 6.729 6.9 6.638a13 13 0 0 1 2.114-1.232c.424-.2.844-.387 1.231-.546a26 26 0 0 1 1.773-.655 20.8 20.8 0 0 1 5.116 2.432c0 .125-.01.343-.035.636v.041c-.024.268-.062.6-.121.969h.009c-.015.1-.033.215-.052.327h-.012q-.073.412-.181.877l.022.007c-.032.144-.072.295-.111.446h-.024q-.096.362-.215.745l.032.009c-.063.2-.135.408-.208.617l-.037.008q-.1.279-.216.564l.035.008q-.179.445-.386.877l-.044.011c-.051.105-.1.211-.157.317l.037.007a13 13 0 0 1-.706 1.212l-.029-.006-.048.073.047-.015a12 12 0 0 1-.87 1.167h-.021q-.319.389-.682.762l.02-.007q-.253.256-.52.5-.3.279-.637.545-.336-.262-.643-.538h-.019c-.183-.166-.351-.337-.52-.506h.016q-.369-.37-.692-.759h-.008a12 12 0 0 1-.87-1.174h.01l-.032-.048h-.008a13 13 0 0 1-.706-1.213h.012q-.085-.165-.163-.33h-.014q-.2-.431-.379-.877c-.078-.2-.15-.388-.218-.578h-.008a14 14 0 0 1-.2-.617q-.12-.392-.214-.763h-.001c-.038-.15-.071-.3-.1-.439a16 16 0 0 1-.174-.883Z"/></svg>