<svg xmlns="http://www.w3.org/2000/svg" viewBox="0 0 24 24"><path fill="#44739e" fill-rule="evenodd" d="M21.322 11.995c.02 1.571-1.219 3.622-1.542 5.087-.328 1.345-1.2 4.918-3.748 4.918-.95 0-1.617-.296-2.594-1.161.495-.137 1.137-.435 1.613-.641 2.055 1.385 2.969-2.198 3.279-3.479.191-.774.541-1.673.733-2.14.376-.914.765-1.86.765-2.584-.051-1.367-1.23-2.449-3.128-2.439a7 7 0 0 0-1.007.082 6 6 0 0 0-.4-1.462s.556-.129 1.407-.129c2.425-.07 4.585 1.577 4.622 3.948M4.474 10.947c.168.483.372.971.559 1.434-.586.468-.861 1.079-.861 1.921 0 .602.416 1.376 1.11 2.069 1.935 1.874 5.242 3.034 7.886 2.042a40 40 0 0 0 1.126 1.136c-3.432 1.772-8.077-.042-10.068-2.126-.998-.994-1.548-2.103-1.548-3.121-.001-1.445.608-2.578 1.796-3.355m7.79 4.114c1.097.002 2.192.151 3.234.449l-.424 1.252a10.3 10.3 0 0 0-2.81-.392c-.951.001-1.902.133-2.809.392l-.424-1.252a11.8 11.8 0 0 1 3.233-.449m4.874-2.232c.03.526-.293 1.154-1.293 2.007-.411-.134-.87-.243-1.312-.331l.266-.258.274-.268.08-.08c.62-.624.735-.837.735-1.032 0-.285-.45-.217-.45-.217.091-.345.132-.692.107-1.025.859-.083 1.601.395 1.593 1.204m-8.177-1.204c-.025.333.016.68.107 1.025l-.023-.003-.026-.002c-.118-.008-.401-.003-.401.222 0 .195.116.408.736 1.032l.08.08q.124.123.274.268l.266.258c-.443.088-.902.197-1.313.331-1-.853-1.322-1.481-1.292-2.007-.009-.809.734-1.287 1.592-1.204m5.978-.007c.09.687-.283 1.661-1.02 2.808a10.5 10.5 0 0 0-1.374-.106l.122-.235c.752-1.44.904-1.894.909-2.203v-.016c.017-.473-.382-.516-.889-.46v-1.14c1.174-.426 2.131.244 2.252 1.352m-3.12-1.352v1.14c-.507-.056-.906-.013-.889.461 0 .309.145.755.909 2.219l.122.234-.151.003c-.402.011-.807.042-1.223.103-.737-1.147-1.11-2.121-1.02-2.808.121-1.108 1.078-1.778 2.252-1.352M9.156 2c2.177 0 5.656 2.071 7.37 5.154-.535.002-1.157.101-1.682.175-1.714-2.6-5.459-5.055-7.373-3.132-.73.726-1.148 2.139-1.148 3.874-.014.789.263 1.813.751 2.974-.576.309-1.071.632-1.297.778l-.039-.097-.079-.195c-.42-1.045-.824-2.143-.831-3.46C4.828 5.049 6.167 2 9.156 2m3.097 5.662 1.02 1.053-1.02 1.054-1.02-1.054Z" clip-rule="evenodd"/></svg>