<svg xmlns="http://www.w3.org/2000/svg" fill="#44739e" width="32.026" height="32.026" viewBox="0 0 576 576">
  <path id="Colore_riempimento_1" data-name="Colore riempimento 1" class="cls-1" d="M204,99H312c18.034,0,40.4-2.147,54,3,33.565,12.7,42.021,53.291,51,91,2.751,11.553,1.653,24.2,4,35q1,20.5,2,41c3.6,16.641,6.789,49.488,3,65-10.428,2.587-26.538,2-40,2H197c-20.867,0-47.5,2.335-65-2-3.755-14.435-.479-48.078,3-64q1-20.5,2-41c2.313-10.371,1.3-22.866,4-34,6.366-26.244,11.43-52.071,25-71,5.169-7.21,14.546-16.287,23-20C193.761,101.909,199.845,101.837,204,99Zm0,6-14,5a76.285,76.285,0,0,0-23,23c-16.194,26.007-16.215,60.473-24,96q-1,20.5-2,41c-3.836,17.581-4.587,39.951-5,59,7.3,2.4,19.942,1,29,1H421c0.85-2.448,1.039-6.184,1-10-3.7-6.226-.283-18.253-2-26-5.224-23.564-1.862-51.781-7-75V208c-8.435-37.261-11.892-76.869-39-95-13.544-9.059-34.849-8-58-8H204ZM363,478c-0.418,5.136-1.687,8.718-5,11-6.961,5.271-30.041,2-41,2H244c-14.757,0-32.282.682-44-2-0.665-1.483-2.612-11.117-4-12l-11-1c-8.024-2.535-16.644-6.384-23-11-28.825-20.935-35.271-74.463-32-124a18.068,18.068,0,0,0,4-3H402c6.174,0,17.767-1.616,22,1,3.6,1.187,3.657,1.509,4,6,3.844,5.985.393,38.635-1,45-1.965,8.98.177,15.884-2,24C416.41,446.022,402.737,477.638,363,478ZM136,344c-3.751,10.976-1.288,32.564,1,43q0.5,8.5,1,17c4.585,18.568,9.227,34.861,19,48,20.523,27.591,81.441,20,129,20h61c9.313,0,20.1,1.274,28-1,44.551-12.831,48.208-68.275,48-126h-1v-1H136Zm102,11h67c11.308,0,21.9-1.279,25,7,3.457,3.618,2.534,7.336,2,13-2.818,2.22-3.1,4.6-7,6-4.664,3.552-17.132,2-25,2-21.283,0-45.4,1.386-65-1a85.326,85.326,0,0,0-7-8c-0.243-4.2-1.272-6.736,1-10C230.739,358.413,234.085,358.187,238,355Zm1,6c-3.635,3.695-5.137,3.963-5,12a24.935,24.935,0,0,1,5,4h83c2.636-3.933,4.054-4.612,4-12a24.935,24.935,0,0,1-5-4H239ZM356,484a14.338,14.338,0,0,1,1-5h-2c-5.383-3.339-33.215-1-42-1H204a14.124,14.124,0,0,0-1,4c0.8,1.021.355,0.274,1,2H356Z"/>
</svg>
