<svg xmlns="http://www.w3.org/2000/svg" viewBox="0 0 24 24"><path fill="#44739e" d="m21.889 15.268-1.163-.197-11.385 1.948 1.37.175L22 15.438Zm-5.251.295a.45.45 0 0 0 .069-.36l-1.804-8.155a.524.524 0 0 0-.504-.404.5.5 0 0 0-.145.022L4.016 9.633a.51.51 0 0 0-.355.605l1.651 7.049a.353.353 0 0 0 .398.265l3.376-.569 7.362-1.26a.45.45 0 0 0 .19-.16m-1.562-8.536 1.67 7.741.012.053c.049.21.146.627-.034.855l.052-.008.459-.294a.48.48 0 0 0 .212-.515L15.662 6.77a.42.42 0 0 0-.497-.317l-.595.129.136.041a.54.54 0 0 1 .37.404M3.765 14.261a.5.5 0 0 0 .118-.013l.604-.141-.018-.068-.605.133a.464.464 0 0 1-.554-.355l-.023-.101a.467.467 0 0 1 .355-.555l.59-.13-.018-.077-.588.13a.54.54 0 0 0-.225.108.6.6 0 0 0-.101.101l-.907.214a.506.506 0 0 0 .226.986l1.078-.238Zm13.554 1.238-.056.044-.089.056 3.326-.568.201-.033.07-3.212h-.018l-3.654.731.509 2.304a.645.645 0 0 1-.289.678m4.644-.262v-2.653a.21.21 0 0 0-.106-.187l-1.032-.615-.055 3.217 1.17.196ZM4.498 14.16l-.046.012-1.64.361 1.945.73-.251-1.069Z"/></svg>