<svg xmlns="http://www.w3.org/2000/svg" fill="#44739e" width="32.026" height="32.026" viewBox="0 0 576 576">
  <path id="Colore_riempimento_1" data-name="Colore riempimento 1" class="cls-1" d="M262,73c50.893-.853,95.406-0.888,120,25q1.5,134.487,3,269,0.5,41,1,82c0,12.742,1.339,24.522-1,35-36.717,24-163.42,29.77-195-3q0.5-64.994,1-130c0-22.7-3.454-51.287,1-72V260c0-21.154-3.131-47.795,1-67V169c0-24.1-2.663-54.3,2-75,10.635-6.724,18.665-11.984,33-16Zm21,5c-7.214,4.267-22.282.034-31,2-19.55,4.409-28.758,4.341-41,16,0.631,1.754.193,0.971,1,2,2.805,9.695,13.356,9.948,23,13,26.146,8.275,74.662,9.031,102,1,9.778-2.873,22.722-3.826,26-13,0.752-1.073.6-.946,1-3-1.262-1.359-1.365-1.768-2-4C340.8,81.624,314.749,78.426,283,78Zm-7,2c17-.544,55.577-1.234,57,12h-2c0.374-2.4.63-1.538,0-4-21.632-10.278-58.959-6.969-82-1-0.961,1.766-1.257,1.68-2,4h1c14.215,13.472,65.794,5.126,83,1v1h-1c-13.864,12.7-67.311,4.19-83,0a15.705,15.705,0,0,1-1-5,58.951,58.951,0,0,1,14-6C264.962,80.735,272.161,82.466,276,80Zm-5,3c10.774-.192,38.577-2.173,45,2l-38-1c-5.077.063-11.034,2.484-15,0C266.09,84.094,269.33,84.141,271,83Zm-13,2c2.532,0.074,3.716.121,5,1C260.468,85.926,259.284,85.88,258,85Zm58,0c2.532,0.074,3.716.121,5,1C318.468,85.926,317.284,85.88,316,85Zm-62,1c2.328,0.2,2.826.193,4,1-4.517.617-4.514,1.761-7,4V88A10.943,10.943,0,0,0,254,86Zm67,0,6,1a14.124,14.124,0,0,1,1,4h-1C325.523,87.313,323.7,88.148,321,86ZM210,90c-3.33,3.248-8.209,4.126-10,9-0.752,1.073-.6.946-1,3,3.072,2.905,5.164,5.714,9,8C208.019,102.967,210.719,92.011,210,90Zm154,0c0.71,2.461,2.41,3.229,3,5,1.585,4.76-1.286,11.452,1,15,3.267-4.046,7.255-4.073,8-11C372.109,95.363,369.259,92.513,364,90ZM252,91h2v1C252.246,91.369,253.029,91.807,252,91Zm73,0h2v1C325.246,91.369,326.029,91.807,325,91Zm-71,1c2.076,0.372,1.924.242,3,1C254.924,92.628,255.076,92.758,254,92Zm68,0c2.076,0.372,1.924.242,3,1C322.924,92.628,323.076,92.758,322,92Zm-65,1c2.328,0.2,2.826.193,4,1C258.672,93.8,258.174,93.807,257,93Zm60,0c2.532,0.074,3.716.121,5,1-12.424,1-50.94,6.5-61,0C274.466,94.295,306.977,99.5,317,93Zm47,19v-8h-1c-7.44,9.608-22.968,9.7-37,13-38.528,9.059-90.329,1.791-115-13v7c19.149,8.762,66,17.254,95,11h13c7.793-1.716,16.871-1.752,25-4C350.328,116.25,357.3,113.044,364,112ZM196,451l8,1q2-167.983,4-336c-3.9-.983-5.422-2.812-9-4v63c-2.613,4.241-1,15.819-1,22v56Q197,351.99,196,451Zm176,1,8-1q-2-169.483-4-339h-2c-1.471,1.769-5.876,2.376-7,4v39c2.276,3.722,1,13.459,1,19v50c2.19,12.189,1,36.869,1,54v19c3.774,17.377.989,41.716,1,61Q371,405,372,452Zm-165,1,37,6c8.5,1.879,17.591.411,25,2h21c29.315,0,54.189-4.972,79-8q-2.5-167.482-5-335h-2c-8.5,6.673-22.542,5.192-35,8-38.638,8.709-84.89-.671-116-8v48c-5.381,8.746,1.926,49.335-1,63-4.678,21.845-.81,59.3-1,84C208.648,358.764,206.964,405.514,207,453Zm-11,4c-0.342,8.942-.766,17.442,1,25,10.78,3.333,23.09,7.886,35,11,26.983,7.055,81.38,6.568,108,0,11.712-2.89,36.382-4.525,40-14,2.5-3.839,1.132-15.225,1-21a15.7,15.7,0,0,0-5-1c-8.409,5.9-23.57,3.45-35,6-21.11,4.71-60.4,6.879-83,2l-29-2C218.8,460.627,206.966,457.851,196,457Z"/>
</svg>
