<svg xmlns="http://www.w3.org/2000/svg" viewBox="0 0 24 24"><path fill="#44739e" d="m9.768 9.946-.426.693h.432Zm-.97 2.623h-.165l-.162.476h.15a.42.42 0 0 0 .4-.208s.134-.268-.223-.268m3.199-4.734c-4.913 0-8.9 1.863-8.9 4.161s3.983 4.161 8.9 4.161 8.9-1.863 8.9-4.161-3.986-4.161-8.9-4.161m3.852 3.135 1.126-.39h-.987l.185-.532h1.526l-.191.569-1.734.568ZM13.78 9.143h.8a.821.821 0 0 1 .862 1.19 1.574 1.574 0 0 1-1.52 1.178h-.957c.066-.03.114-.185.114-.185s.61-1.646.688-1.867.014-.314.013-.316m-3.2 2.362c.042 0 .09-.131.09-.131l.768-2.106a.16.16 0 0 0-.014-.126h.724l.15 1.221.406-1.083a.25.25 0 0 0 .005-.138h.674c-.046 0-.08.106-.08.106l-.832 2.255h-.634l-.162-1.268s-.371 1.011-.412 1.119a.18.18 0 0 0 .018.149Zm-2.393-.076s1.3-1.924 1.4-2.074.049-.216.049-.216h.759c-.063.029-.059.162-.059.162l.1 2.082a.16.16 0 0 0 .068.126h-.772a.18.18 0 0 0 .053-.127v-.208h-.774s-.1.167-.132.236a.2.2 0 0 0-.018.1h-.767a.2.2 0 0 0 .091-.081ZM6.521 11.4c.048-.1.736-2.011.736-2.011s.094-.2-.012-.251h.854c-.014 0-.059.023-.127.191-.046.116-.622 1.652-.622 1.652h.621s.143.013.161-.041l-.208.567H6.437s.036-.007.084-.107m.558 1.484-.186.532H5.367l.191-.569 1.734-.568-.075.215-1.126.39Zm2.631.035a.85.85 0 0 1-.768.577l.416.748s.082.151.162.151h-.837a.13.13 0 0 0-.012-.087l-.374-.734-.276.744s0 .078.024.078h-.786a.7.7 0 0 0 .135-.23l.662-1.892s.056-.168-.015-.247h.989s.966-.027.679.892Zm1.035 1.535a.92.92 0 0 1-.873-1.19 1.436 1.436 0 0 1 1.39-1.3c.6 0 .86.4.86 1.035a1.473 1.473 0 0 1-1.378 1.455Zm2.232-.05h-.641c.042-.023.05-.135.05-.135v-2.051c0-.151-.059-.183-.059-.183h.807c-.079.016-.077.214-.077.214l-.011 1.231s.817-1.221.872-1.309a.093.093 0 0 0-.016-.135h.919c-.079 0-.383.375-.383.375s-1.333 1.787-1.4 1.867a.23.23 0 0 0-.062.122Zm2.622 0h-1.6c.032 0 .144-.223.144-.223s.63-1.7.7-1.9.016-.249.016-.249h1.556l-.208.56a.12.12 0 0 0-.12-.056h-.646l-.151.423h.51c.134 0 .157-.048.159-.054l-.215.6c-.024-.032-.135-.024-.135-.024h-.527l-.143.383h.678c.151 0 .175-.031.175-.031Zm2.743-1.456a.82.82 0 0 1-.758.556l.416.747s.088.152.168.152h-.867a.13.13 0 0 0-.013-.087l-.361-.735-.25.677s-.042.147.018.145h-.816a.6.6 0 0 0 .142-.223l.688-1.9s.056-.168-.016-.247h.981a.637.637 0 0 1 .667.916Zm-7.189-.427c-.191-.024-.447.2-.55.655-.048.21-.1.664.195.718.215.04.452-.115.576-.61.187-.749-.153-.755-.221-.763m3.506-2.086c.334-.811-.131-.784-.131-.784h-.18l-.466 1.315h.11c.163-.001.464-.037.667-.531m2.831 2.15h-.217l-.159.471h.151s.293.022.383-.208c.106-.27-.158-.263-.158-.263m-5.493-5.362c-5.25 0-9.506 2.137-9.506 4.777s4.256 4.774 9.506 4.774 9.506-2.141 9.506-4.774-4.256-4.777-9.506-4.777m0 9.171c-5.044 0-9.133-1.969-9.133-4.4s4.089-4.4 9.133-4.4 9.133 1.969 9.133 4.4-4.089 4.4-9.133 4.4m9.205-6.472a6.8 6.8 0 0 0-2.152-1.674 12.8 12.8 0 0 0-3.172-1.122 18 18 0 0 0-3.877-.411 18 18 0 0 0-3.88.411A12.8 12.8 0 0 0 4.95 8.248a6.8 6.8 0 0 0-2.151 1.674A3.28 3.28 0 0 0 2 12a3.28 3.28 0 0 0 .8 2.078 6.8 6.8 0 0 0 2.151 1.674 12.8 12.8 0 0 0 3.17 1.122 18 18 0 0 0 3.878.411 18 18 0 0 0 3.877-.411 12.8 12.8 0 0 0 3.172-1.122 6.8 6.8 0 0 0 2.152-1.674A3.28 3.28 0 0 0 22 12a3.28 3.28 0 0 0-.798-2.078M18.969 15.6a15.3 15.3 0 0 1-6.968 1.513 15.3 15.3 0 0 1-6.97-1.513c-1.842-.966-2.857-2.244-2.857-3.6s1.015-2.632 2.857-3.6a15.3 15.3 0 0 1 6.97-1.513A15.3 15.3 0 0 1 18.969 8.4c1.843.966 2.857 2.244 2.857 3.6s-1.014 2.632-2.857 3.6"/></svg>