<svg xmlns="http://www.w3.org/2000/svg" viewBox="0 0 24 24"><path fill="#44739e" d="m10.511 19.076.004-1.463 2.047-.005 2.048-.004v-5.163c0-2.839-.003-5.163-.006-5.163s-.747.414-1.653.918a70 70 0 0 1-1.659.908 60 60 0 0 1-.011-1.563V5.987l2.145-1.264 2.143-1.264h2.343v14.145l2.04.004 2.04.005.004 1.463.004 1.465H10.506Zm-5.759-1.254a3.225 3.225 0 0 1-2.727-2.75 4 4 0 0 1 0-.89 3.24 3.24 0 0 1 2.687-2.745 4.3 4.3 0 0 1 1.023 0c.358.065.589.139.893.286a3.225 3.225 0 0 1 1.494 4.321 3.23 3.23 0 0 1-2.128 1.719 3.5 3.5 0 0 1-1.242.059"/></svg>