<svg xmlns="http://www.w3.org/2000/svg" viewBox="0 0 24 24"><path fill="#44739e" d="M12 2C6.48 2 2 6.48 2 12s4.48 10 10 10 10-4.48 10-10S17.52 2 12 2m3.93 14.17c-2.97 0-4-1.34-4.55-3.01l-.55-1.72c-.41-1.25-.89-2.23-2.41-2.23-1.05 0-2.11.76-2.11 2.87 0 1.65.84 2.68 2.03 2.68 1.34 0 2.23-1 2.23-1l.55 1.49s-.93.91-2.87.91c-2.41 0-3.75-1.41-3.75-4.02s1.34-4.31 3.87-4.31c2.29 0 3.44.82 4.16 3.06l.57 1.72c.41 1.25 1.13 2.17 2.87 2.17 1.17 0 1.79-.26 1.79-.89 0-.5-.29-.86-1.17-1.07l-1.17-.27c-1.43-.34-1.99-1.08-1.99-2.25 0-1.87 1.51-2.46 3.06-2.46 1.75 0 2.82.64 2.96 2.18l-1.72.21c-.07-.74-.52-1.05-1.34-1.05-.76 0-1.22.34-1.22.93 0 .52.22.82.98 1l1.1.24c1.48.34 2.27 1.07 2.27 2.46 0 1.72-1.44 2.37-3.57 2.37Z"/></svg>