<?xml version="1.0" encoding="UTF-8" standalone="no"?>
<svg
   width="24"
   height="24"
   viewBox="0 0 19.8 11"
   version="1.1"
   xmlns="http://www.w3.org/2000/svg"
   xmlns:svg="http://www.w3.org/2000/svg">
  <path
    style="fill: #46749f;" 
    d="M16.81,4.63l-1.45-.32c-1-.23-1.29-.64-1.29-1.32,0-.77.61-1.22,1.61-1.22,1.09,0,1.68.41,1.77,1.38l2.27-.27C19.53.84,18.12,0,15.81,0,13.77,0,11.77.77,11.77,3.24c0,1.54.75,2.52,2.63,2.97l1.54.36c1.16.27,1.54.75,1.54,1.41,0,.84-.82,1.18-2.36,1.18-2.29,0-3.24-1.2-3.79-2.86l-.75-2.27C9.64,1.09,8.12,0,5.1,0,1.77,0,0,2.11,0,5.69s1.77,5.31,4.94,5.31c2.56,0,3.79-1.2,3.79-1.2l-.73-1.97s-1.18,1.32-2.95,1.32c-1.56,0-2.68-1.36-2.68-3.54,0-2.79,1.41-3.79,2.79-3.79,2,0,2.63,1.29,3.18,2.95l.73,2.27c.73,2.2,2.09,3.97,6.01,3.97,2.81,0,4.72-.86,4.72-3.13,0-1.84-1.04-2.79-2.99-3.24Z"
    />
</svg>