<svg xmlns="http://www.w3.org/2000/svg" viewBox="0 0 24 24"><path fill="#44739e" d="M2 12V8.133h20v7.734H2Zm11.57 2.795a2.5 2.5 0 0 0 1.122-.4c.098-.067.313-.242.321-.262a61 61 0 0 0-.831-1.308 1 1 0 0 0-.096.075 1.33 1.33 0 0 1-.944.306c-.474-.029-.844-.261-1.032-.643-.1-.204-.117-.291-.117-.586 0-.228.004-.272.036-.375.095-.307.292-.555.542-.684.22-.113.324-.137.593-.136.195 0 .257.006.367.036q.349.094.627.333l.087.075.378-.707.377-.706-.082-.077c-.154-.145-.475-.331-.727-.422a4 4 0 0 0-.575-.145c-.225-.039-.921-.04-1.132 0-.621.116-1.115.368-1.516.775q-.641.65-.764 1.642a5 5 0 0 0 0 .781q.087.7.464 1.274c.145.219.469.54.698.692.621.414 1.347.567 2.204.462m-5.086-.936v-.82H7.017V9.273H5.172v5.407h3.312Zm10.407-1.883V9.274h-1.844v5.407h1.844Z"/></svg>