<svg role="img" viewBox="0 0 24 24" xmlns="http://www.w3.org/2000/svg"><title>LCI</title>
    <path
       d="m 0,12.000005 v -4.64063 h 12 12 v 4.64063 4.64062 H 12 0 Z m 13.88437,3.35414 c 0.51827,-0.0632 0.96227,-0.2216 1.34564,-0.47997 0.11802,-0.0795 0.37598,-0.29034 0.38498,-0.3146 0.004,-0.0103 -0.9447,-1.50305 -0.99708,-1.5691 -10e-4,-0.002 -0.0532,0.0388 -0.11494,0.0901 -0.31536,0.26225 -0.71798,0.39252 -1.13279,0.36653 -0.56793,-0.0356 -1.01243,-0.3128 -1.23807,-0.77214 -0.1197,-0.24369 -0.1408,-0.34877 -0.14117,-0.70313 -2.8e-4,-0.27251 0.005,-0.32612 0.0436,-0.45 0.11479,-0.36746 0.35088,-0.66508 0.64982,-0.81918 0.26454,-0.13637 0.38934,-0.16524 0.7125,-0.16483 0.23407,3e-4 0.30798,0.008 0.44062,0.0435 0.27917,0.0756 0.52811,0.20779 0.75161,0.3992 l 0.10474,0.0897 0.45323,-0.84763 0.45322,-0.84763 -0.0986,-0.0924 c -0.1848,-0.17316 -0.57099,-0.39667 -0.87273,-0.5051 -0.17481,-0.0628 -0.45147,-0.13289 -0.68916,-0.17456 -0.27068,-0.0474 -1.10532,-0.0476 -1.35857,-2.6e-4 -0.74537,0.13937 -1.33835,0.4425 -1.81875,0.92975 -0.51382,0.52113 -0.81939,1.1771 -0.91779,1.97018 -0.0254,0.2044 -0.0254,0.73379 -4e-5,0.93849 0.0691,0.55842 0.25617,1.07066 0.55781,1.52763 0.17359,0.263 0.56111,0.64849 0.8361,0.83174 0.74522,0.49659 1.61748,0.67912 2.6458,0.55365 z m -6.10312,-1.12289 v -0.98438 H 6.9 6.01875 v -2.25937 -2.25938 H 4.9125 3.80625 v 3.24375 3.24375 h 1.9875 1.9875 z m 12.4875,-2.25938 V 8.728125 H 19.1625 18.05625 v 3.24375 3.24375 h 1.10625 1.10625 z"
       fill="#44739e" />
</svg>
