<svg xmlns="http://www.w3.org/2000/svg" viewBox="0 0 24 24"><path fill="#44739e" d="M18.453 9.933a.46.46 0 0 0-.443.232 12 12 0 0 0-1.136 3.191.294.294 0 0 0 .306.315c.237 0 .369-.164.486-.362a13.7 13.7 0 0 0 1.049-3.046c.006-.151-.015-.327-.262-.33M18.581 8a2.82 2.82 0 0 0-2.262 1 1.3 1.3 0 0 0-.234-.35 2.44 2.44 0 0 0-1.912-.665 3.12 3.12 0 0 0-2.039.68 1.85 1.85 0 0 0-1.591-.687 2.78 2.78 0 0 0-2.612 1.13 1 1 0 0 0-.248-.76 1.38 1.38 0 0 0-1.026-.327 1.78 1.78 0 0 0-1.612.932c-.551.88-1.889 3.78-1.859 5.185A1.583 1.583 0 0 0 4.9 15.725a2.58 2.58 0 0 0 1.944-.636 2.2 2.2 0 0 0 1.658.657 2.73 2.73 0 0 0 2.015-.741 2.2 2.2 0 0 0 1.783.75 3.22 3.22 0 0 0 2.517-1.238 2 2 0 0 0 2.036 1.229c1.961 0 2.822-1.348 3.54-3.48a8.2 8.2 0 0 0 .413-1.956A2 2 0 0 0 18.581 8M6.772 13.894c-.1 1.016-1.028 1.244-1.838 1.225-.587-.014-1.116-.283-1.131-.965a13.7 13.7 0 0 1 1.765-4.868 1.18 1.18 0 0 1 1.1-.649c.486 0 .607.25.6.55a13.7 13.7 0 0 1-1.313 3.29c-.171.352-.32.661-.421.887 1.016-.176 1.266.191 1.238.53m2.066-1.467c-.067.182-.194.562-.3.965a3.3 3.3 0 0 1 1.01-.131c.488.012.8.214.8.618 0 .976-1.081 1.263-1.829 1.263a1.393 1.393 0 0 1-1.546-1.367 9.9 9.9 0 0 1 1.108-3.719 2.28 2.28 0 0 1 2.491-1.482c.51 0 1.1.218 1.1.7 0 .667-.564.921-1.124.953a8 8 0 0 1-.828.011 4.7 4.7 0 0 0-.385.79c1.037-.146 1.477.09 1.3.69-.235.809-.935.863-1.797.709M13.94 9.9a.74.74 0 0 0-.6.369 10.7 10.7 0 0 0-1.053 2.81c-.069.475.136.573.36.573.361 0 .765-.382.9-1.011 0 0-.686-.016-.5-.625.184-.59.532-.718 1.11-.741 1.139-.047 1.026.794.935 1.242a2.98 2.98 0 0 1-2.8 2.625 1.463 1.463 0 0 1-1.627-1.578 7.9 7.9 0 0 1 .648-2.543C11.932 9.6 12.572 8.6 14.2 8.6c.979 0 1.75.351 1.637 1.267a1.1 1.1 0 0 1-1.031 1.116c-.171.013-.871 0-.639-.666.083-.23.117-.417-.227-.417m6.158 1.2a9.9 9.9 0 0 1-.982 2.63 2.31 2.31 0 0 1-2.248 1.4c-.728-.009-1.549-.277-1.555-1.4a8.4 8.4 0 0 1 .638-2.691c.516-1.352 1.041-2.455 2.7-2.436 1.943.03 1.597 1.755 1.449 2.506ZM22 2H2v20h20Zm-.767 9.072v.008a11.4 11.4 0 0 1-.844 2.616c-.7 1.444-1.638 2.554-3.442 2.554a2.73 2.73 0 0 1-2.221-.9 3.63 3.63 0 0 1-2.425.907 2.83 2.83 0 0 1-1.784-.574 3.47 3.47 0 0 1-1.994.569 2.86 2.86 0 0 1-1.688-.507 3.33 3.33 0 0 1-1.942.483 2.08 2.08 0 0 1-2.21-2.039c-.034-1.581 1.3-4.473 1.925-5.475A2.33 2.33 0 0 1 6.671 7.53c.953 0 1.3.272 1.468.619a3.6 3.6 0 0 1 2.4-.661 2.46 2.46 0 0 1 1.656.529 3.75 3.75 0 0 1 1.988-.517 3.02 3.02 0 0 1 2.23.735 3.32 3.32 0 0 1 2.178-.723 2.6 2.6 0 0 1 2.258.993 3.3 3.3 0 0 1 .384 2.567"/></svg>