<svg xmlns="http://www.w3.org/2000/svg" viewBox="0 0 24 24"><path fill="#44739e" d="M21.203 18.38h-2.28a.566.566 0 0 1 .512-.505h2.308l-.008-.483h-2.448a1.43 1.43 0 0 0-1.414 1.391.08.08 0 0 0 .09.085l2.778-.01a.28.28 0 0 1 .253.264.286.286 0 0 1-.303.27H17.64V17.39h-.9v2.002h-1.655a.47.47 0 0 1-.541-.522v-1.493h-1.492c-.147.101-.29.21-.442.303l-.886.544-1.15-.839h-3.48a1.7 1.7 0 0 0-1.071.324 1.4 1.4 0 0 0-.612.935h.606a1.5 1.5 0 0 0-.543.718H3.478a.55.55 0 0 1-.593-.505v-1.491H2v1.551c0 .558.53.943 1.38.943h5.404v-.505H6.638a.586.586 0 0 1 .53-.513h1.946v-.512H6.613c-.029-.15.25-.445.466-.445h2.352v-.275l1.523 1.093-1.041.652H8.784v.505h1.307c.141-.095.273-.195.417-.283l.91-.553 1.155.826h1.314l-1.739-1.308.893-.583c.19-.125.39-.23.585-.344v1.313c0 .556.142.941 1.261.941l6.313-.015a.737.737 0 0 0 .8-.738.773.773 0 0 0-.797-.736m-9.201-1.723c3.481 0 5.758-1.12 7.077-2.56h-1.332a8.46 8.46 0 0 1-5.749 1.819c-5.312 0-7.273-2.986-7.273-5.557.038-2.295 2.139-5.462 7.403-5.566.202-.006.353.176.215.347-.899 1.112-3.464 4.689-3.756 5.153a3.13 3.13 0 0 0-.627 1.605 1.41 1.41 0 0 0 .442 1.203 3.97 3.97 0 0 0 2.797.574h7.861a.64.64 0 0 0 .618-.342 5.4 5.4 0 0 0 .91-2.935c0-1.998-1.296-4.513-4.58-5.65l-.37.533c2.605 1.235 3.681 2.852 3.681 5.114a3.23 3.23 0 0 1-.542 1.871h-7.644c-.458 0-.525-.52-.359-.809a30 30 0 0 1 2.19-3.36 134 134 0 0 1 2.334-3.006c.215-.281.071-.552-.359-.64a14 14 0 0 0-2.957-.32c-6.272-.003-8.568 3.6-8.568 6.27 0 2.896 2.312 6.256 8.588 6.256"/></svg>