<?xml version="1.0" encoding="UTF-8"?>
<svg width="24px" fill="#44739e" height="24px" viewBox="0 0 24 24" version="1.1" xmlns="http://www.w3.org/2000/svg" xmlns:xlink="http://www.w3.org/1999/xlink">
            <path d="m 21.108,18.316 h -2.257 a 0.561,0.561 0 0 1 0.507,-0.5 h 2.285 l -0.008,-0.478 h -2.423 a 1.416,1.416 0 0 0 -1.4,1.377 0.078,0.078 0 0 0 0.089,0.084 l 2.75,-0.01 a 0.277,0.277 0 0 1 0.25,0.262 0.283,0.283 0 0 1 -0.3,0.267 h -3.02 V 17.336 H 16.69 v 1.982 H 15.052 A 0.466,0.466 0 0 1 14.517,18.801 V 17.323 H 13.04 c -0.146,0.1 -0.287,0.208 -0.438,0.3 l -0.877,0.539 -1.138,-0.831 H 7.142 a 1.672,1.672 0 0 0 -1.06,0.321 1.382,1.382 0 0 0 -0.606,0.926 h 0.6 a 1.482,1.482 0 0 0 -0.537,0.71 H 3.563 a 0.546,0.546 0 0 1 -0.587,-0.5 V 17.313 H 2.1 v 1.535 c 0,0.552 0.525,0.933 1.366,0.933 h 5.349 v -0.5 H 6.691 A 0.58,0.58 0 0 1 7.216,18.774 H 9.142 V 18.267 H 6.666 C 6.637,18.118 6.914,17.826 7.127,17.826 h 2.329 v -0.272 l 1.507,1.082 -1.03,0.645 H 8.815 v 0.5 h 1.294 c 0.139,-0.094 0.27,-0.193 0.413,-0.28 l 0.9,-0.547 1.144,0.817 h 1.3 L 12.145,18.477 13.029,17.9 c 0.188,-0.124 0.386,-0.228 0.579,-0.341 v 1.3 c 0,0.55 0.141,0.931 1.248,0.931 l 6.249,-0.015 a 0.731,0.731 0 0 0 0.792,-0.73 0.765,0.765 0 0 0 -0.789,-0.729 z M 12,16.611 c 3.446,0 5.7,-1.109 7.006,-2.534 h -1.319 a 8.37,8.37 0 0 1 -5.69,1.8 c -5.259,0 -7.2,-2.955 -7.2,-5.5 0.038,-2.272 2.118,-5.407 7.328,-5.51 0.2,-0.006 0.35,0.174 0.213,0.344 -0.89,1.1 -3.429,4.641 -3.718,5.1 A 3.089,3.089 0 0 0 8,11.9 a 1.4,1.4 0 0 0 0.437,1.191 3.933,3.933 0 0 0 2.769,0.568 h 7.781 a 0.627,0.627 0 0 0 0.612,-0.339 5.358,5.358 0 0 0 0.9,-2.905 c 0,-1.977 -1.283,-4.467 -4.533,-5.592 L 15.6,5.35 c 2.578,1.223 3.643,2.823 3.643,5.062 a 3.214,3.214 0 0 1 -0.536,1.852 H 11.14 c -0.453,0 -0.519,-0.514 -0.355,-0.8 a 30.2,30.2 0 0 1 2.168,-3.326 c 0.764,-1.021 1.518,-1.977 2.31,-2.976 0.213,-0.278 0.07,-0.546 -0.355,-0.633 A 13.75,13.75 0 0 0 11.981,4.212 C 5.772,4.209 3.5,7.775 3.5,10.418 c 0,2.867 2.288,6.193 8.5,6.193 z"/>

</svg>