<svg xmlns="http://www.w3.org/2000/svg" width="24" fill="#44739e" height="24" viewBox="0 0 24 24"><path d="M10.742 20.1a.381.381 0 0 0-.059-.008v-.009h-.008c-.016 0-.029.008-.045.009h-.006v.008a.505.505 0 0 0-.056.012V20.1a.345.345 0 0 0-.054.011.472.472 0 0 0-.061.037.539.539 0 0 0-.05.033.364.364 0 0 0-.05.046.44.44 0 0 0-.065.1.446.446 0 0 0-.039.144.356.356 0 0 0-.01.047.4.4 0 0 0 .006.05.408.408 0 0 0 .025.124.425.425 0 0 0 .069.1.383.383 0 0 0 .036.044.44.44 0 0 0 .1.065l.014.01a.435.435 0 0 0 .1.027l.036.007a.4.4 0 0 0 .05.01.375.375 0 0 0 .094-.02.406.406 0 0 0 .085-.021.423.423 0 0 0 .194-.182h0 0a.374.374 0 0 0 .033-.347c0-.011-.01-.021-.015-.032v.024a.435.435 0 0 0-.035-.076v-.006a.434.434 0 0 0-.174-.166h-.011 0a.4.4 0 0 0-.067-.02h0c-.013 0-.026-.005-.039-.008zm.038.576v.043h-.131v-.391h.044v.348zm-.009-.176h.269v.022a.369.369 0 1 1-.369-.37h0 .022v.048h-.022a.326.326 0 1 0 .325.348h-.225zm-.182-.115a.057.057 0 0 1-.114 0 .057.057 0 0 1 .114 0zm1.463-4.04l.038 2.709.018 1.225c.008 0 .017 0 .025.007a.1.1 0 0 1 .034.01l-.016-1.037-.099-2.914zm-1.809 4.219v.007.01zm.023.136a.444.444 0 0 1-.023-.114 4.612 4.612 0 0 0 0 .576c0-.026.012-.197.023-.462zm.073.1v.5a3.118 3.118 0 0 0 .033-.453.5.5 0 0 1-.033-.047zm.607.055c-.011.009-.024.016-.036.025l.011.566c.011-.008.016-.237.025-.591zm-.322-.764l.029-1.421.047-2.724a.018.018 0 0 0-.025 0h0c-.009.01-.038 1.086-.065 2.392l-.038 1.765h.006a.4.4 0 0 1 .046-.012zm1.282.429a.152.152 0 0 0 .045.111l-.006-.183c-.014.024-.039.031-.039.072zm-.837.192V20.7l-.019.028v.007c.004.181.01.183.019-.023zm-.269-3.82a6.436 6.436 0 0 0 0-.9c-.026.025-.09 2.49-.117 4.091a.309.309 0 0 1 .059.012l.058-3.203zm.735-4.423c.048-.511.191-8.943.155-8.979-.014-.014-.026.039-.026.118L11.6 7l-.065 5.469zm-.576-.639c0 .268.007.378.015.244a4.413 4.413 0 0 0 0-.488c-.008-.134-.015-.024-.015.244zm-.048 8.341a.459.459 0 0 1 .051.035l.055-4.085c0-.027 0-.05-.007-.07a3.642 3.642 0 0 0-.038.454l-.061 3.666zm-1.665.955a.239.239 0 0 0 .018.044v-.075c-.012-.002-.018.005-.018.031zm1.347-9.308c-.008-.144-.015-.016-.015.288s.007.421.015.263.007-.407 0-.551zM11 9.541l.014.476v-.953c-.007-.262-.014-.048-.014.477zm.058-3.298a1.079 1.079 0 0 0 0-.254c-.01-.064-.017 0-.017.139s.008.192.017.115zm-.423 2.265c-.009-.075-.017 0-.016.16s.006.232.016.14a1.5 1.5 0 0 0 0-.3zm.72-4.532a1.009 1.009 0 0 0 0-.233c-.01-.064-.018-.012-.018.116s.008.181.018.117zm.817-1.419c-.105 0-.148.008-.1.018a.612.612 0 0 0 .191 0c.057-.01.014-.018-.091-.018zM11.1 5.587c.009-.157.009-.415 0-.572s-.014-.029-.014.286l.014.286zm2.435 12.974l-.142-2.756-.146-2.968-.367-7.424-.083-1.971-.042-1c0-.273-.1-.372-.372-.37a.8.8 0 0 0-.611.26 1.891 1.891 0 0 0-.077.523l-.022.424-.173.021c-.165.022-.167.023-.05.055.265.072.325-.033.325-.569 0-.255.012-.3.1-.351.118-.075.764-.141.667-.068-.056.043-.056.046 0 .031a.09.09 0 0 0 .064-.077c0-.046-.061-.059-.254-.056-.14 0-.221 0-.18-.013s.067-.032.057-.048c-.031-.05.351 0 .392.05a35.7 35.7 0 0 1 .2 3.61l.1 2.12.064 1.314.171 3.519.083 1.912.021.767-.2.107a3.548 3.548 0 0 1-1.627.286c-.873 0-1.629-.2-1.766-.466a8.354 8.354 0 0 1 .055-2.2l.1-1.95.149-2.947.151-3.01.084-1.569.065-1.044.026-.45.2.07c.137.05.2.1.219.166s.008.834-.009 1.737l-.018 3.973a12.161 12.161 0 0 1-.013 1.675c-.018-.425-.026-.028-.025 1.123l-.035 2.934-.038 1.153.155.156a.329.329 0 0 0 .375.135c.332-.032.4-.132.433-.654a12.653 12.653 0 0 0-.026-1.795c-.017 0-.041-.062-.053-.138-.041-.245-.13-4.332-.13-5.924l-.059-4.213c-.025-.466-.042-.554-.11-.6a1.018 1.018 0 0 0-.634-.011c-.3.07-.3.084-.336.875l-.091 1.642-.1 2.014-.368 6.847-.145 2.8-.1 1.887a16.5 16.5 0 0 0-.126 2.995.085.085 0 0 1 .037.025.2.2 0 0 1 .055.132c0 .076 0 .076-.055.006a.282.282 0 0 1-.036-.088v.163c.183.356 1.03.622 2.1.661a3.579 3.579 0 0 0 1.091-.085 2.106 2.106 0 0 0 1.156-.526c.097-.146.104.15-.076-2.827zm-2.828-6.668l.013-.5v.975c-.008.275-.013.062-.013-.474zm.663 2.207c-.031-.019-.132.087-.107.112.01.011-.044.013-.119.006-.115-.011-.121-.008-.035.019.166.052.16.167-.007.141a.033.033 0 0 0-.032.037c0 .023-.039.043-.087.043s-.077-.018-.057-.053.015-.039 0-.022-.065.008-.1-.021c-.059-.046-.061-.044-.013.017s.045.074 0 .092.015.024.1.026c.226 0 .249.087.026.092h-.183l.212.04c.3.057.314.1.03.089-.174-.007-.218 0-.157.029a.657.657 0 0 0 .205.042c.194 0 .11.109-.089.109s-.192.061.024.07c.156.006.155.006-.034.036l-.191.029.18.007c.1 0 .18.027.18.053s-.056.041-.143.03c-.123-.014-.137-.007-.1.052a.151.151 0 0 0 .154.055c.1-.013.1-.01-.015.027a.29.29 0 0 1-.363-.19v-.01a7.232 7.232 0 0 1-.01-1.24.563.563 0 0 1 .075.122.4.4 0 0 0 .549.136.361.361 0 0 0 .051-.036c.075-.049.088-.048.088 0s-.018.07-.032.061zm-.526-3.848c-.007.342-.013.051-.013-.649l.016-.622h0l-.003 1.271zM10.81 5.64h0l-.051 3.307c-.008.431-.008-.542 0-2.162l.077-3.68c.006.007-.006 1.148-.026 2.535zm-.005 7.067h0c-.008.252-.014.058-.014-.432l.014-.458v.89zm.586.5c.035-.117.038-.118.052-.024h0a.193.193 0 0 1-.03.146.2.2 0 0 0-.046.123 1.568 1.568 0 0 1-.345.547l-.09.014a.152.152 0 0 1-.158-.119c0-.031.012-.033.032-.006.076.1.17.039.356-.249a2.355 2.355 0 0 0 .229-.434zm-.264-.931l.014-.479v.933c-.008.264-.011.06-.011-.453zm.162-2.676c.02.257.028 1.163.018 2.014l-.081 1.808a5.519 5.519 0 0 1-.013-.9l.031-2.162c.006-1.06.012-1.16.045-.76zm-.057-3.812h0l-.015 2.854-.049 2.367c-.01-.011 0-1.294.016-2.853l.048-2.368zm-.1-1.823h0c.009.094.016-.04.015-.3 0-.6 0-.763.037-.73.015.015 0 1.444-.025 3.176l-.08 5.13A12.038 12.038 0 0 1 11 13.272c-.045.044-.062.043-.1-.009s-.032-1.385.047-5.528l.041-3.2c-.001-1.321.048-1.52.141-.57zm-.143-.987h0a.7.7 0 0 0 .054.23c.017.016 0 .06-.03.1a14.211 14.211 0 0 0-.1 2.483L10.871 8.2l.018-2.323.097-2.899zM10.54 2.2a2.61 2.61 0 0 1 .306-.024c.107 0 .126.012.09.055-.051.062-.208.071-.422.025l-.144-.031zm2.722 18.226h0a.612.612 0 0 1 0 .191c-.01.052-.018.009-.018-.1s.008-.144.018-.091zm-.03.583c-.073.088-.3.206-.33.174-.013-.014 0-.025.03-.025s.043-.026.022-.074c-.036-.084-.143-2.491-.138-3.106a11.537 11.537 0 0 1 .076 1.327l.1 1.757c.014.016.061.01.1-.015.058-.036.07-.117.069-.443 0-.387 0-.389.015-.062a.869.869 0 0 0 .066.367h0c.034.022.032.049-.01.1zm-.372-4.091c0-.222.027.093.056.7l.051 1.526c-.001.233-.027-.081-.056-.7l-.05-1.526zm.169 3.137c-.035.578-.037.591-.043.212a3.21 3.21 0 0 1 .067-.912l-.026.7zm.108-1.771c-.009.1-.016.028-.016-.158s.007-.268.016-.181a2.132 2.132 0 0 1 0 .339zm0 1.274a2.706 2.706 0 0 1 0 .382c-.008.1-.015.007-.015-.2h0c-.003-.213.005-.293.013-.182zm.085-1.4h0a.909.909 0 0 1 0 .233c-.009.064-.017.011-.017-.117s.006-.18.015-.116zm0 1.441a1.876 1.876 0 0 1 0 .318h0c-.009.088-.017.016-.017-.159s.005-.246.014-.158zm-.041-.51c-.009.1-.017.029-.017-.158s.007-.268.016-.181a2.132 2.132 0 0 1 0 .339zm0-1.737h0a.437.437 0 0 1 0 .169c-.01.053-.018.02-.019-.073s.004-.137.015-.096zm-.043-.852h0a.437.437 0 0 1 0 .169c-.01.053-.019.02-.019-.073s.005-.133.015-.096zm-.041.661h0a1.273 1.273 0 0 1 0 .276c-.009.076-.017.014-.017-.138s.004-.213.013-.138zm0 1.931c-.009.1-.016.007-.016-.2s.007-.29.016-.179a2.82 2.82 0 0 1 0 .379zm-.036 1.477h0c.02-.461.034-.431.055.111a.668.668 0 0 1-.031.323c-.028.011-.037-.144-.025-.434zm-.2-4.769v-.005c-.017-.019.011-.011.064.016.082.043.094.08.087.271l-.007.221-.016-.223c-.009-.122-.033-.222-.054-.222s-.031.023-.021.053.039.444.063.922l.068 1.208c.015.222.009.317-.017.276a6.187 6.187 0 0 1-.071-.891l-.06-1.187-.029-.36-.035.629-.066 1.336c-.029.67-.03.682-.037.225a17.3 17.3 0 0 1 .124-2.194.063.063 0 0 0 .007-.075zm-.121.024h0l-.019.712-.024.7-.007-.615c-.006-.497.017-.87.05-.797zm-.14.2h0c.019.082.066 1.265.1 2.629l.093 2.5c.011.01.012-.522 0-1.187l.011-.551.037 1.219c0 .473 0 .562-.058.562s-.064-.057-.064-.254l-.14-4.58c-.007-.291 0-.425.021-.335zm-.08.679h0c.008-.458.01-.465.021-.106l.078 2.495.047 2.134c-.045.048-.166-3.592-.146-4.52zm-.088-.8v-.006a.13.13 0 0 1 .069.1c.009.076.007.075-.029 0-.025-.054-.032.131-.02.509l.077 4.706c-.007-.047-.033-.991-.058-2.1L12.4 16.5c-.022-.508-.017-.607.032-.591zm-.032 2.62l.006-.006.041 2.787c-.032-.033-.144-4.293-.141-5.034.003-.918.037-.15.094 2.259zm-.145-1.548v-.006l.065 2.72c.032 1.635.031 1.66-.052 1.7-.057.03-.076.019-.091-.621h.058v-.286l.024.536c.022.235.028-.016.016-.723l-.036-2.734.016-.58zm-.085 3.493v-.043h.065v.043zm-.143-4.489c.066-.108.1-.02.123.326l.052 2.366.036 1.758a.171.171 0 0 0-.066-.137h-.005v.008c-.01-.012-.027-.006-.039-.012l-.02-.007h0a.283.283 0 0 0-.05-.013l-.023-1.681-.008-2.602zm-.019 4.267a.082.082 0 0 1 .019.006.129.129 0 0 0-.021 0zm0 .115a.072.072 0 0 1 .074.066h.034v.043h-.056v-.06c-.012-.024-.026-.047-.054-.048zm-.053.287a.153.153 0 0 1-.052-.128.165.165 0 0 1 .043-.122v.044c.012-.02.013-.054.033-.061v.272a.078.078 0 0 1-.02-.011zm-.048.122c.02.006.033.026.056.026h.008c.016 0 .024-.012.036-.017a.175.175 0 0 0 .1-.045v.052h.006a6.04 6.04 0 0 1-.011.631c-.018.019-.034-.037-.034-.123l-.006-.539a.271.271 0 0 1-.052.024c-.014 0-.02.016-.036.017 0 .1-.007.114-.013 0a.1.1 0 0 1-.051-.024l-.029-.013a4.262 4.262 0 0 1-.025.723 5.224 5.224 0 0 1-.033-.75h0a.28.28 0 0 0 .055.026.151.151 0 0 1 .022.018zm.158-.155v-.036h.035c-.007.031-.028.027-.038.042zm-.239-4.112l.047 2.738.011 1.046a.254.254 0 0 1 .06-.022h0l-.025-4.3c.018.02.042 1.267.054 2.771l.006 1.516a.282.282 0 0 1-.048.019.254.254 0 0 0-.06.022c-.017.01-.039.011-.054.021h0l-.009-1.579.015-2.226zm-.116-.567v-.006c.026 0 .041 1.026.041 2.785v1.771c0 .008-.008.014-.008.022v.022.008l-.012.951c-.031-.04-.062-5.547-.024-5.547zm-.235.023c.012.114.031 1.268.043 2.668l.006 2.016h-.046v-.39h-.018l-.006-1.542.018-2.746zm.048 4.814a5.049 5.049 0 0 1-.024.627 2.741 2.741 0 0 1-.033-.627zM11.364 16c.012.073.026 1.2.032 2.618v1.646h-.061L11.364 16zm.027 4.784a5.148 5.148 0 0 1-.027.633 4.955 4.955 0 0 1-.023-.633zm-.144-3.738c.006-.621.015.112.021 1.627a26.419 26.419 0 0 1-.037 2.8 8.13 8.13 0 0 1-.018-1.621v-.006l.034-2.805zM10.313 16a5.338 5.338 0 0 1 .021.681c-.008.781-.026.681-.044-.24a1.972 1.972 0 0 1 .023-.441zm-.032 2.51l-.007-.006-.035 1.908v.063a.446.446 0 0 1 .039-.144l.059-1.808.16-2.626c.011 0 .009.02-.006.044-.03.047-.116 2.749-.148 4.294a.364.364 0 0 1 .05-.046l.031-1.08.09-2.682c.028-.384.031-.328.016.318l-.088 3.411a.472.472 0 0 1 .061-.037l.054-2.123.062-2.046c.022-.068.069-.067.165 0 .073.053.074.174.026 2.744l-.029 1.412h.011a.362.362 0 0 1 .056.017l.007-.458.035-2.727c0-.938.009-1.009.078-1 .015 0 .026.014.036.054V16c0 .012 0 .031.006.047v-.046.013.1c.019.267.019.925.016 2.583v1.587c0 .006.012.008.015.014a.349.349 0 0 1 .02.044l.028-2.419a12.6 12.6 0 0 1 .055-2c.036 0 .041.22.021.859l-.028 2.778v1.94l-.13-.01a.286.286 0 0 1-.162-.054 4.643 4.643 0 0 1-.013-.514.406.406 0 0 1-.085.021l-.021.47a4.222 4.222 0 0 1-.008-.464.358.358 0 0 1-.065.014l.006.467c.019.034.012.034-.026 0a1.586 1.586 0 0 1-.03-.476l-.036-.007-.032-.007c-.014.492-.024.458-.047.444a2.119 2.119 0 0 1-.017-.464l-.014-.01c-.017-.01-.032-.021-.048-.032l-.029.463a.178.178 0 0 1-.128-.039l-.1-.07.033-1.106.066-1.89c.049-.744.049-.728.03.271zm-.081.064l-.006-.006-.108 2.395c-.03.174-.033.147-.018-.148l.093-2.565.09-2.035c.008.093-.01 1.155-.051 2.356zm-.122-2.664l-.007-.006c.07.013.082.059.091.354a18.7 18.7 0 0 1-.028 1.144l-.034.798.011-1.124-.016-.615c-.016.316-.031.412-.036.255l-.037-.545c-.022-.26-.022-.279.056-.264zm-.071 1.145l.05 1.343c.017.725.015.8-.01.318a11.372 11.372 0 0 1-.04-1.664zm.037 2.852a7.743 7.743 0 0 1-.028.848l-.041.378.019-.395.028-.848.009-.449zM9.918 18.8l-.077 1.357c-.011-.012.011-.635.041-1.393l-.007-.007.077-1.357c.011.012 0 .638-.034 1.4zm-.069-1.043c0-.245.007-.346.016-.223a4.129 4.129 0 0 1 0 .445c0 .134-.009.034-.009-.21zm.1-1.744a1.6 1.6 0 0 1 0 .294c-.009.088-.017.027-.017-.136 0-.129.009-.171.017-.161zm-.035.662l-.007-.012a3.333 3.333 0 0 1 0 .424c-.008.123-.016.034-.016-.2s.009-.325.023-.215zM9.8 15.8c.037.029.075.045.085.035a1.322 1.322 0 0 1 0 .308l-.02.325-.014-.3a.984.984 0 0 0-.064-.36c-.045-.047-.043-.049.013-.008zm.018 2.513a2.154 2.154 0 0 1 .017.417h0l-.005.413-.038-.318c-.037-.295-.025-.512.026-.512zm-.007-1.421c0-.187.007-.268.016-.181a2.068 2.068 0 0 1 0 .343h0c-.009.096-.016.025-.016-.162zm-.069-.392a.437.437 0 0 1 0 .169c-.01.053-.019.02-.019-.073s.009-.133.019-.096zm0 1.551h0c-.009.088-.017.026-.017-.137s.008-.235.017-.16a1.593 1.593 0 0 1 .002.297zm-.042-.932a1.414 1.414 0 0 1 0 .276c-.01.075-.017.013-.017-.138s.009-.214.017-.138zm0 1.377a2.132 2.132 0 0 1 0 .339c-.009.1-.016.029-.017-.158s.008-.268.017-.177zm0 1.489a2.663 2.663 0 0 1 0 .379c-.009.1-.016.007-.016-.2s.007-.29.016-.179zm-.041-2.125h0a1.088 1.088 0 0 1 0 .255c-.009.076-.017.024-.017-.116s.007-.199.017-.139zm0 1.36a2.217 2.217 0 0 1 0 .336h0c-.009.1-.017.028-.017-.158s.005-.264.014-.178zm-.017 1.326l.027.234.028.233.023-.191.023-.191v.2c0 .11.013.2.034.2a1.318 1.318 0 0 0 .011-.456l-.047-1.007-.02-.551.059.721.061 1.035c.007.621.04.256.1-1.056l.072-1.209c.008.07-.008.678-.035 1.35a4.374 4.374 0 0 0 0 1.277h0a.189.189 0 0 0 .02.027c.086.1.066.1-.1.028a.387.387 0 0 1-.259-.435zM9.616 18.6a.753.753 0 0 1 0 .212c-.01.065-.018.022-.019-.1s.009-.162.019-.112zm0 1.72h0c-.01.076-.017.014-.017-.138s.007-.213.017-.138a1.435 1.435 0 0 1 .001.276zm3.468 1.327h0a4.14 4.14 0 0 1-1.618.316 6.525 6.525 0 0 1-1.521-.238c-.069-.033-.092-.051-.05-.039a14.49 14.49 0 0 0 .506.109 5.366 5.366 0 0 0 2.644-.165c.116-.067.138-.057.04.017zm-1.677.16c.245 0 .345.007.223.015a3.671 3.671 0 0 1-.445 0c-.122-.006-.022-.013.223-.013zm1.74-.507h0a3.988 3.988 0 0 1-2.814.3c-.321-.087-.79-.338-.79-.423 0-.049.022-.043.094.024a1.461 1.461 0 0 0 .307.188 2.972 2.972 0 0 0 1.485.254 3.4 3.4 0 0 0 1.014-.1 1.9 1.9 0 0 0 .764-.37c.037-.036.067-.047.067-.025a.4.4 0 0 1-.126.152zm.294-.053h0a.341.341 0 0 1-.093.107c-.038.022-.036.011 0-.038s.047-.087.034-.108 0-.037.037-.037.052.02.023.076z"/></svg>