<?xml version="1.0" encoding="UTF-8"?>
<svg width="24px" fill="#44739e" height="24px" viewBox="0 0 24 24" version="1.1" xmlns="http://www.w3.org/2000/svg" xmlns:xlink="http://www.w3.org/1999/xlink">
            <path d="m 10.906,13.111 a 0.37,0.37 0 1 0 0.37,0.37 V 13.46 h -0.27 V 13.5 13.495 13.5 h 0.226 a 0.328,0.328 0 0 1 -0.326,0.3 0.326,0.326 0 0 1 -0.325,-0.326 0.324,0.324 0 0 1 0.325,-0.326 h 0.022 v 0 0 h 0.005 v -0.043 h -0.005 v 0 h 0.005 z M 10.768,13.4 a 0.057,0.057 0 1 0 -0.057,-0.056 0.056,0.056 0 0 0 0.057,0.056 z m 0.161,-0.115 h -0.044 v 0.391 h 0.13 V 13.633 H 10.929 Z M 21.345,10.077 A 0.514,0.514 0 0 0 21.091,9.922 0.321,0.321 0 0 1 20.898,9.822 1.486,1.486 0 0 0 20.628,9.609 L 20.452,9.5 11.98,9.491 3.507,9.485 3.3,9.652 a 1.686,1.686 0 0 1 -0.567,0.321 0.367,0.367 0 0 0 -0.18,0.184 49.237,49.237 0 0 0 0.028,5.1 c 0.11,0.984 0.111,0.986 0.9,1.009 0.391,0.012 0.438,0.024 0.456,0.116 0.044,0.242 -0.262,0.232 6.716,0.225 3.626,0 7.206,-0.021 7.956,-0.038 l 1.363,-0.032 0.068,-0.142 c 0.067,-0.14 0.073,-0.141 0.569,-0.141 a 1.5,1.5 0 0 0 0.591,-0.065 0.917,0.917 0 0 0 0.171,-0.373 18.65,18.65 0 0 0 0.105,-2.945 L 21.5,10.234 Z m -2.144,-0.4 c 0.114,0 0.166,0.01 0.117,0.023 a 0.59,0.59 0 0 1 -0.206,0 C 19.048,9.689 19.088,9.679 19.2,9.678 Z m 0.559,0.116 c 0.044,-0.113 0.553,-0.1 0.745,0.013 l 0.148,0.09 -0.469,0.012 c -1.442,0.039 -3.413,0.046 -3.17,0.012 0.156,-0.022 0.831,-0.042 1.5,-0.045 1.031,-0.003 1.221,-0.016 1.246,-0.081 z m 0.072,2.141 0.141,-0.105 h -0.18 c -0.135,0 -0.161,-0.015 -0.1,-0.052 a 0.235,0.235 0 0 1 0.3,0.01 c 0.089,0.09 0.077,0.134 -0.075,0.275 l -0.136,0.127 H 19.9 c 0.087,0 0.105,0.015 0.064,0.056 -0.041,0.041 -0.086,0.04 -0.164,0 -0.149,-0.083 -0.138,-0.183 0.032,-0.31 z m -0.3,1.8 c -0.133,-0.013 -0.206,-0.045 -0.206,-0.091 0,-0.085 0.17,-0.095 0.312,-0.019 0.162,0.091 0.12,0.136 -0.102,0.115 z m 1.076,-0.08 c 0.045,0.042 -0.033,0.066 -0.3,0.092 -0.267,0.026 -0.467,-0.026 -0.467,-0.114 a 2.6,2.6 0 0 1 0.771,0.027 z m -0.36,-1.833 c 0.023,-0.124 0.025,-0.123 0.072,0.036 a 0.658,0.658 0 0 1 0.007,0.308 l -0.041,0.145 -0.031,-0.18 a 1.085,1.085 0 0 1 -0.003,-0.304 z m -2.98,-2.1 1.055,0.007 -0.977,0.039 A 6.327,6.327 0 0 1 16.3,9.766 3.874,3.874 0 0 1 17.272,9.726 Z M 14.952,9.682 c 0.58,0 0.818,0.007 0.528,0.017 -0.29,0.01 -0.765,0.009 -1.055,0 -0.29,-0.009 -0.049,-0.012 0.531,-0.012 z m -1.471,0.024 c 0.168,0 0.291,0.019 0.275,0.035 C 13.712,9.786 10.27,9.798 10.27,9.753 A 24.372,24.372 0 0 1 13.485,9.711 Z M 7.954,9.712 C 8.081,9.692 8.568,9.676 9.035,9.677 H 9.884 L 9.266,9.713 C 8.431,9.767 7.643,9.766 7.958,9.717 Z m -0.9,0 a 1.638,1.638 0 0 1 0.489,0.05 c 0.054,0.035 -0.05,0.05 -0.334,0.05 A 1.643,1.643 0 0 1 6.72,9.762 C 6.67,9.734 6.773,9.718 7.057,9.718 Z m -1.6,0.009 c 0.5,0 0.611,0.013 0.438,0.044 a 3.009,3.009 0 0 1 -1,0 C 4.832,9.741 5.046,9.725 5.462,9.727 Z M 3.674,9.706 A 2.681,2.681 0 0 1 4.399,9.794 1.37,1.37 0 0 1 4,9.82 0.973,0.973 0 0 1 3.58,9.772 C 3.584,9.746 3.625,9.716 3.674,9.706 Z m -0.97,0.564 c 0.094,-0.257 0.229,-0.266 4.431,-0.3 4.309,-0.032 9.2,0 9.305,0.052 a 7.079,7.079 0 0 1 -1.1,0.07 c -1.67,0.049 -2.144,0.044 -2.1,-0.019 a 3.745,3.745 0 0 0 -1.091,-0.025 c -0.618,0.016 -2.929,0.04 -5.137,0.053 -4.076,0.025 -4.245,0.034 -4.245,0.214 0,0.038 -0.023,0.069 -0.05,0.069 -0.027,0 -0.039,-0.045 -0.017,-0.114 z m 9.535,3.368 c 0.05,0 0.079,-0.027 0.091,-0.09 h -0.1 v -0.109 h 0.24 v 0.3 H 12.34 V 13.69 a 0.158,0.158 0 0 1 -0.14,0.065 c -0.135,0 -0.223,-0.107 -0.223,-0.274 a 0.247,0.247 0 0 1 0.263,-0.272 0.264,0.264 0 0 1 0.164,0.05 0.171,0.171 0 0 1 0.067,0.137 H 12.31 A 0.071,0.071 0 0 0 12.236,13.33 c -0.062,0 -0.1,0.058 -0.1,0.153 0,0.095 0.04,0.155 0.103,0.155 z m -0.3,-0.026 v 0.13 H 11.56 v -0.52 h 0.154 v 0.39 z m -0.6,-0.13 a 0.436,0.436 0 1 1 -0.436,-0.436 0.436,0.436 0 0 1 0.439,0.436 z M 3.4,14.419 c 0.34,0 0.485,0.008 0.324,0.018 -0.161,0.01 -0.44,0.01 -0.618,0 C 2.928,14.427 3.064,14.419 3.4,14.419 Z m 0.129,1.215 A 0.168,0.168 0 0 1 3.4,15.583 c -0.019,-0.03 0.035,-0.052 0.129,-0.052 0.094,0 0.147,0.022 0.128,0.052 a 0.166,0.166 0 0 1 -0.124,0.051 z m 0.31,-0.129 A 2.76,2.76 0 0 1 3.789,15.03 V 14.759 H 3.57 A 1.026,1.026 0 0 1 3.25,14.7 c -0.07,-0.033 0,-0.039 0.231,-0.018 a 2.263,2.263 0 0 1 0.35,0.046 4.305,4.305 0 0 1 0.038,0.5 c 0.016,0.372 0.01,0.435 -0.026,0.277 z m -1.1,-1.312 A 13.064,13.064 0 0 1 2.68,12.274 v -1.863 l 0.034,1.827 c 0.018,1.005 0.037,1.833 0.042,1.84 0.005,0.007 4.009,0.016 8.9,0.02 5.967,0 8.8,0.023 8.606,0.057 -0.422,0.074 -17.45,0.111 -17.523,0.038 z m 17.417,1.415 c -0.051,0.2 -0.052,0.2 -0.028,-0.077 0.013,-0.155 0.029,-0.4 0.035,-0.54 0.009,-0.228 0.012,-0.219 0.028,0.077 a 2.232,2.232 0 0 1 -0.035,0.54 z m 0.269,-0.018 c -0.034,-0.019 0.088,-0.035 0.27,-0.034 a 0.749,0.749 0 0 1 0.333,0.04 c 0,0.067 -0.479,0.062 -0.603,-0.006 z m 0.2,-0.469 c 0.151,-0.061 0.134,-0.061 0.248,0 0.055,0.03 0.1,0.075 0.1,0.1 0,0.082 -0.21,0.164 -0.34,0.132 -0.152,-0.038 -0.156,-0.171 -0.004,-0.232 z m -0.038,-0.685 c -0.507,0 -0.594,-0.011 -0.36,-0.037 a 2.671,2.671 0 0 1 0.874,0 c 0.099,0.024 -0.107,0.039 -0.51,0.037 z"/>

</svg>
