<?xml version="1.0" encoding="UTF-8"?>
<svg width="24px" fill="#44739e" height="24px" viewBox="0 0 24 24" version="1.1" xmlns="http://www.w3.org/2000/svg" xmlns:xlink="http://www.w3.org/1999/xlink">
            <path d="m 10.742,20.1 a 0.381,0.381 0 0 0 -0.059,-0.008 v -0.009 h -0.008 c -0.016,0 -0.029,0.008 -0.045,0.009 H 10.624 V 20.1 a 0.505,0.505 0 0 0 -0.056,0.012 V 20.1 a 0.345,0.345 0 0 0 -0.054,0.011 0.472,0.472 0 0 0 -0.061,0.037 0.539,0.539 0 0 0 -0.05,0.033 0.364,0.364 0 0 0 -0.05,0.046 0.44,0.44 0 0 0 -0.065,0.1 0.446,0.446 0 0 0 -0.039,0.144 0.356,0.356 0 0 0 -0.01,0.047 0.4,0.4 0 0 0 0.006,0.05 0.408,0.408 0 0 0 0.025,0.124 0.425,0.425 0 0 0 0.069,0.1 0.383,0.383 0 0 0 0.036,0.044 0.44,0.44 0 0 0 0.1,0.065 l 0.014,0.01 a 0.435,0.435 0 0 0 0.1,0.027 l 0.036,0.007 a 0.4,0.4 0 0 0 0.05,0.01 0.375,0.375 0 0 0 0.094,-0.02 0.406,0.406 0 0 0 0.085,-0.021 0.423,0.423 0 0 0 0.194,-0.182 v 0 0 a 0.374,0.374 0 0 0 0.033,-0.347 c 0,-0.011 -0.01,-0.021 -0.015,-0.032 v 0.024 a 0.435,0.435 0 0 0 -0.035,-0.076 v -0.006 a 0.434,0.434 0 0 0 -0.174,-0.166 h -0.011 v 0 a 0.4,0.4 0 0 0 -0.067,-0.02 v 0 c -0.013,0 -0.026,-0.005 -0.039,-0.008 z m 0.038,0.576 v 0.043 h -0.131 v -0.391 h 0.044 v 0.348 z M 10.771,20.5 h 0.269 v 0.022 a 0.369,0.369 0 1 1 -0.369,-0.37 v 0 h 0.022 V 20.2 h -0.022 a 0.326,0.326 0 1 0 0.325,0.348 h -0.225 z m -0.182,-0.115 a 0.057,0.057 0 0 1 -0.114,0 0.057,0.057 0 0 1 0.114,0 z m 1.463,-4.04 c 0,0.21 0.014,1.429 0.038,2.709 0.009,0.449 0.015,0.866 0.018,1.225 0.008,0 0.017,0 0.025,0.007 a 0.1,0.1 0 0 1 0.034,0.01 c 0,-0.278 -0.01,-0.605 -0.016,-1.037 -0.031,-2.166 -0.085,-3.77 -0.099,-2.914 z m -1.809,4.219 v 0.007 0.01 z m 0.023,0.136 a 0.444,0.444 0 0 1 -0.023,-0.114 4.612,4.612 0 0 0 0,0.576 c 0,-0.026 0.012,-0.197 0.023,-0.462 z m 0.073,0.1 v 0.5 A 3.118,3.118 0 0 0 10.372,20.847 0.5,0.5 0 0 1 10.339,20.8 Z m 0.607,0.055 c -0.011,0.009 -0.024,0.016 -0.036,0.025 0,0.35 0,0.574 0.011,0.566 0.011,-0.008 0.016,-0.237 0.025,-0.591 z m -0.322,-0.764 c 0.006,-0.372 0.016,-0.831 0.029,-1.421 0.035,-1.488 0.056,-2.714 0.047,-2.724 a 0.018,0.018 0 0 0 -0.025,0 v 0 c -0.009,0.01 -0.038,1.086 -0.065,2.392 -0.016,0.764 -0.028,1.334 -0.038,1.765 h 0.006 a 0.4,0.4 0 0 1 0.046,-0.012 z m 1.282,0.429 a 0.152,0.152 0 0 0 0.045,0.111 c 0,-0.055 0,-0.117 -0.006,-0.183 -0.014,0.024 -0.039,0.031 -0.039,0.072 z m -0.837,0.192 V 20.7 l -0.019,0.028 v 0.007 c 0.004,0.181 0.01,0.183 0.019,-0.023 z M 10.8,16.892 a 6.436,6.436 0 0 0 0,-0.9 c -0.026,0.025 -0.09,2.49 -0.117,4.091 a 0.309,0.309 0 0 1 0.059,0.012 c 0.01,-0.986 0.033,-2.312 0.058,-3.203 z m 0.735,-4.423 C 11.583,11.958 11.726,3.526 11.69,3.49 11.676,3.476 11.664,3.529 11.664,3.608 11.664,3.687 11.636,5.213 11.6,7 c -0.094,4.965 -0.1,5.927 -0.065,5.469 z M 10.959,11.83 c 0,0.268 0.007,0.378 0.015,0.244 a 4.413,4.413 0 0 0 0,-0.488 c -0.008,-0.134 -0.015,-0.024 -0.015,0.244 z m -0.048,8.341 a 0.459,0.459 0 0 1 0.051,0.035 c 0.031,-1.429 0.064,-3.618 0.055,-4.085 0,-0.027 0,-0.05 -0.007,-0.07 a 3.642,3.642 0 0 0 -0.038,0.454 c -0.028,0.53 -0.054,2.386 -0.061,3.666 z m -1.665,0.955 a 0.239,0.239 0 0 0 0.018,0.044 c 0,-0.025 0,-0.05 0,-0.075 C 9.252,21.093 9.246,21.1 9.246,21.126 Z m 1.347,-9.308 c -0.008,-0.144 -0.015,-0.016 -0.015,0.288 0,0.304 0.007,0.421 0.015,0.263 0.008,-0.158 0.007,-0.407 0,-0.551 z M 11,9.541 c 0,0.524 0.006,0.739 0.014,0.476 0.008,-0.263 0.007,-0.691 0,-0.953 C 11.007,8.802 11,9.016 11,9.541 Z m 0.058,-3.298 a 1.079,1.079 0 0 0 0,-0.254 c -0.01,-0.064 -0.017,0 -0.017,0.139 0,0.139 0.008,0.192 0.017,0.115 z m -0.423,2.265 c -0.009,-0.075 -0.017,0 -0.016,0.16 10e-4,0.16 0.006,0.232 0.016,0.14 a 1.5,1.5 0 0 0 0,-0.3 z m 0.72,-4.532 a 1.009,1.009 0 0 0 0,-0.233 c -0.01,-0.064 -0.018,-0.012 -0.018,0.116 0,0.128 0.008,0.181 0.018,0.117 z m 0.817,-1.419 c -0.105,0 -0.148,0.008 -0.1,0.018 a 0.612,0.612 0 0 0 0.191,0 C 12.32,2.565 12.277,2.557 12.172,2.557 Z M 11.1,5.587 c 0.009,-0.157 0.009,-0.415 0,-0.572 -0.009,-0.157 -0.014,-0.029 -0.014,0.286 0,0.315 0.007,0.443 0.014,0.286 z m 2.435,12.974 C 13.476,17.57 13.411,16.33 13.393,15.805 13.375,15.28 13.307,13.945 13.247,12.837 13.054,9.286 12.922,6.615 12.88,5.413 12.858,4.769 12.821,3.882 12.797,3.442 c -0.024,-0.44 -0.042,-0.892 -0.042,-1 0,-0.273 -0.1,-0.372 -0.372,-0.37 a 0.8,0.8 0 0 0 -0.611,0.26 1.891,1.891 0 0 0 -0.077,0.523 L 11.673,3.279 11.5,3.3 c -0.165,0.022 -0.167,0.023 -0.05,0.055 0.265,0.072 0.325,-0.033 0.325,-0.569 0,-0.255 0.012,-0.3 0.1,-0.351 0.118,-0.075 0.764,-0.141 0.667,-0.068 -0.056,0.043 -0.056,0.046 0,0.031 a 0.09,0.09 0 0 0 0.064,-0.077 c 0,-0.046 -0.061,-0.059 -0.254,-0.056 -0.14,0 -0.221,0 -0.18,-0.013 0.041,-0.013 0.067,-0.032 0.057,-0.048 -0.031,-0.05 0.351,0 0.392,0.05 a 35.7,35.7 0 0 1 0.2,3.61 c 0.035,0.816 0.082,1.77 0.1,2.12 0.018,0.35 0.051,0.941 0.064,1.314 0.028,0.76 0.079,1.823 0.171,3.519 0.034,0.63 0.072,1.49 0.083,1.912 l 0.021,0.767 -0.2,0.107 a 3.548,3.548 0 0 1 -1.627,0.286 c -0.873,0 -1.629,-0.2 -1.766,-0.466 a 8.354,8.354 0 0 1 0.055,-2.2 c 0.033,-0.571 0.079,-1.449 0.1,-1.95 0.021,-0.501 0.091,-1.828 0.149,-2.947 0.058,-1.119 0.126,-2.474 0.151,-3.01 0.025,-0.536 0.063,-1.242 0.084,-1.569 0.021,-0.327 0.051,-0.8 0.065,-1.044 l 0.026,-0.45 0.2,0.07 c 0.137,0.05 0.2,0.1 0.219,0.166 0.019,0.066 0.008,0.834 -0.009,1.737 -0.017,0.903 -0.026,2.69 -0.018,3.973 a 12.161,12.161 0 0 1 -0.013,1.675 c -0.018,-0.425 -0.026,-0.028 -0.025,1.123 0,0.98 -0.014,2.3 -0.035,2.934 l -0.038,1.153 0.155,0.156 a 0.329,0.329 0 0 0 0.375,0.135 c 0.332,-0.032 0.4,-0.132 0.433,-0.654 a 12.653,12.653 0 0 0 -0.026,-1.795 c -0.017,0 -0.041,-0.062 -0.053,-0.138 -0.041,-0.245 -0.13,-4.332 -0.13,-5.924 0,-2.018 -0.023,-3.535 -0.059,-4.213 -0.025,-0.466 -0.042,-0.554 -0.11,-0.6 A 1.018,1.018 0 0 0 10.529,2.04 c -0.3,0.07 -0.3,0.084 -0.336,0.875 -0.016,0.39 -0.057,1.129 -0.091,1.642 -0.034,0.513 -0.08,1.419 -0.1,2.014 -0.043,1.1 -0.17,3.46 -0.368,6.847 -0.059,1.026 -0.125,2.285 -0.145,2.8 -0.02,0.515 -0.066,1.362 -0.1,1.887 A 16.5,16.5 0 0 0 9.263,21.1 0.085,0.085 0 0 1 9.3,21.125 0.2,0.2 0 0 1 9.355,21.257 c 0,0.076 0,0.076 -0.055,0.006 A 0.282,0.282 0 0 1 9.264,21.175 c 0,0.054 0,0.108 0,0.163 0.183,0.356 1.03,0.622 2.1,0.661 a 3.579,3.579 0 0 0 1.091,-0.085 2.106,2.106 0 0 0 1.156,-0.526 c 0.097,-0.146 0.104,0.15 -0.076,-2.827 z m -2.828,-6.668 c 0,-0.537 0.006,-0.762 0.013,-0.5 0.007,0.262 0.008,0.7 0,0.975 -0.008,0.275 -0.013,0.062 -0.013,-0.474 z M 11.37,14.1 c -0.031,-0.019 -0.132,0.087 -0.107,0.112 0.01,0.011 -0.044,0.013 -0.119,0.006 -0.115,-0.011 -0.121,-0.008 -0.035,0.019 0.166,0.052 0.16,0.167 -0.007,0.141 a 0.033,0.033 0 0 0 -0.032,0.037 c 0,0.023 -0.039,0.043 -0.087,0.043 -0.048,0 -0.077,-0.018 -0.057,-0.053 0.02,-0.035 0.015,-0.039 0,-0.022 -0.015,0.017 -0.065,0.008 -0.1,-0.021 -0.059,-0.046 -0.061,-0.044 -0.013,0.017 0.048,0.061 0.045,0.074 0,0.092 -0.045,0.018 0.015,0.024 0.1,0.026 0.226,0 0.249,0.087 0.026,0.092 h -0.183 l 0.212,0.04 c 0.3,0.057 0.314,0.1 0.03,0.089 -0.174,-0.007 -0.218,0 -0.157,0.029 a 0.657,0.657 0 0 0 0.205,0.042 c 0.194,0 0.11,0.109 -0.089,0.109 -0.199,0 -0.192,0.061 0.024,0.07 0.156,0.006 0.155,0.006 -0.034,0.036 l -0.191,0.029 0.18,0.007 c 0.1,0 0.18,0.027 0.18,0.053 0,0.026 -0.056,0.041 -0.143,0.03 -0.123,-0.014 -0.137,-0.007 -0.1,0.052 a 0.151,0.151 0 0 0 0.154,0.055 c 0.1,-0.013 0.1,-0.01 -0.015,0.027 a 0.29,0.29 0 0 1 -0.363,-0.19 v -0.01 a 7.232,7.232 0 0 1 -0.01,-1.24 0.563,0.563 0 0 1 0.075,0.122 0.4,0.4 0 0 0 0.549,0.136 0.361,0.361 0 0 0 0.051,-0.036 c 0.075,-0.049 0.088,-0.048 0.088,0 0,0.048 -0.018,0.07 -0.032,0.061 z m -0.526,-3.848 c -0.007,0.342 -0.013,0.051 -0.013,-0.649 0,-0.7 0.009,-0.979 0.016,-0.622 v 0 c 0.004,0.356 0.004,0.929 -0.003,1.271 z M 10.81,5.64 v 0 c -0.02,1.387 -0.043,2.876 -0.051,3.307 -0.008,0.431 -0.008,-0.542 0,-2.162 0.013,-2.538 0.038,-3.727 0.077,-3.68 0.006,0.007 -0.006,1.148 -0.026,2.535 z m -0.005,7.067 v 0 c -0.008,0.252 -0.014,0.058 -0.014,-0.432 0,-0.49 0.006,-0.7 0.014,-0.458 0.008,0.242 0.007,0.638 0,0.89 z m 0.586,0.5 c 0.035,-0.117 0.038,-0.118 0.052,-0.024 v 0 a 0.193,0.193 0 0 1 -0.03,0.146 0.2,0.2 0 0 0 -0.046,0.123 1.568,1.568 0 0 1 -0.345,0.547 l -0.09,0.014 a 0.152,0.152 0 0 1 -0.158,-0.119 c 0,-0.031 0.012,-0.033 0.032,-0.006 0.076,0.1 0.17,0.039 0.356,-0.249 a 2.355,2.355 0 0 0 0.229,-0.434 z m -0.264,-0.931 c 0,-0.513 0.007,-0.729 0.014,-0.479 0.007,0.25 0.008,0.669 0,0.933 -0.008,0.264 -0.011,0.06 -0.011,-0.453 z M 11.289,9.6 c 0.02,0.257 0.028,1.163 0.018,2.014 -0.02,1.628 -0.025,1.752 -0.081,1.808 a 5.519,5.519 0 0 1 -0.013,-0.9 C 11.226,12.009 11.239,11.036 11.244,10.36 11.25,9.3 11.256,9.2 11.289,9.6 Z M 11.232,5.788 v 0 c 0.008,0.257 0,1.541 -0.015,2.854 -0.015,1.313 -0.039,2.378 -0.049,2.367 -0.01,-0.011 0,-1.294 0.016,-2.853 0.016,-1.559 0.041,-2.624 0.048,-2.368 z m -0.1,-1.823 v 0 c 0.009,0.094 0.016,-0.04 0.015,-0.3 0,-0.6 0,-0.763 0.037,-0.73 0.015,0.015 0,1.444 -0.025,3.176 -0.025,1.732 -0.064,4.041 -0.08,5.13 A 12.038,12.038 0 0 1 11,13.272 c -0.045,0.044 -0.062,0.043 -0.1,-0.009 -0.038,-0.052 -0.032,-1.385 0.047,-5.528 0.022,-1.164 0.041,-2.6 0.041,-3.2 -10e-4,-1.321 0.048,-1.52 0.141,-0.57 z M 10.989,2.978 v 0 a 0.7,0.7 0 0 0 0.054,0.23 c 0.017,0.016 0,0.06 -0.03,0.1 a 14.211,14.211 0 0 0 -0.1,2.483 L 10.871,8.2 10.889,5.877 C 10.9,3.543 10.936,2.57 10.986,2.978 Z M 10.54,2.2 a 2.61,2.61 0 0 1 0.306,-0.024 c 0.107,0 0.126,0.012 0.09,0.055 -0.051,0.062 -0.208,0.071 -0.422,0.025 L 10.37,2.225 Z m 2.722,18.226 v 0 a 0.612,0.612 0 0 1 0,0.191 c -0.01,0.052 -0.018,0.009 -0.018,-0.1 0,-0.109 0.008,-0.144 0.018,-0.091 z m -0.03,0.583 c -0.073,0.088 -0.3,0.206 -0.33,0.174 -0.013,-0.014 0,-0.025 0.03,-0.025 0.03,0 0.043,-0.026 0.022,-0.074 C 12.918,21 12.811,18.593 12.816,17.978 a 11.537,11.537 0 0 1 0.076,1.327 c 0.04,0.95 0.086,1.741 0.1,1.757 0.014,0.016 0.061,0.01 0.1,-0.015 0.058,-0.036 0.07,-0.117 0.069,-0.443 0,-0.387 0,-0.389 0.015,-0.062 a 0.869,0.869 0 0 0 0.066,0.367 v 0 c 0.034,0.022 0.032,0.049 -0.01,0.1 z M 12.86,16.918 c 0,-0.222 0.027,0.093 0.056,0.7 0.029,0.607 0.052,1.293 0.051,1.526 -0.001,0.233 -0.027,-0.081 -0.056,-0.7 -0.029,-0.619 -0.051,-1.3 -0.05,-1.526 z m 0.169,3.137 c -0.035,0.578 -0.037,0.591 -0.043,0.212 a 3.21,3.21 0 0 1 0.067,-0.912 c 0,0.045 -0.006,0.362 -0.026,0.7 z m 0.108,-1.771 c -0.009,0.1 -0.016,0.028 -0.016,-0.158 0,-0.186 0.007,-0.268 0.016,-0.181 a 2.132,2.132 0 0 1 0,0.339 z m 0,1.274 a 2.706,2.706 0 0 1 0,0.382 c -0.008,0.1 -0.015,0.007 -0.015,-0.2 v 0 c -0.003,-0.213 0.005,-0.293 0.013,-0.182 z m 0.085,-1.4 v 0 a 0.909,0.909 0 0 1 0,0.233 c -0.009,0.064 -0.017,0.011 -0.017,-0.117 0,-0.128 0.006,-0.18 0.015,-0.116 z m 0,1.441 a 1.876,1.876 0 0 1 0,0.318 v 0 c -0.009,0.088 -0.017,0.016 -0.017,-0.159 0,-0.175 0.005,-0.246 0.014,-0.158 z m -0.041,-0.51 c -0.009,0.1 -0.017,0.029 -0.017,-0.158 0,-0.187 0.007,-0.268 0.016,-0.181 a 2.132,2.132 0 0 1 0,0.339 z m 0,-1.737 v 0 a 0.437,0.437 0 0 1 0,0.169 c -0.01,0.053 -0.018,0.02 -0.019,-0.073 -0.001,-0.093 0.004,-0.137 0.015,-0.096 z M 13.138,16.5 v 0 a 0.437,0.437 0 0 1 0,0.169 c -0.01,0.053 -0.019,0.02 -0.019,-0.073 0,-0.093 0.005,-0.133 0.015,-0.096 z m -0.041,0.661 v 0 a 1.273,1.273 0 0 1 0,0.276 c -0.009,0.076 -0.017,0.014 -0.017,-0.138 0,-0.152 0.004,-0.213 0.013,-0.138 z m 0,1.931 c -0.009,0.1 -0.016,0.007 -0.016,-0.2 0,-0.207 0.007,-0.29 0.016,-0.179 a 2.82,2.82 0 0 1 0,0.379 z m -0.036,1.477 v 0 c 0.02,-0.461 0.034,-0.431 0.055,0.111 a 0.668,0.668 0 0 1 -0.031,0.323 c -0.028,0.011 -0.037,-0.144 -0.025,-0.434 z m -0.2,-4.769 v -0.005 c -0.017,-0.019 0.011,-0.011 0.064,0.016 0.082,0.043 0.094,0.08 0.087,0.271 l -0.007,0.221 -0.016,-0.223 c -0.009,-0.122 -0.033,-0.222 -0.054,-0.222 -0.021,0 -0.031,0.023 -0.021,0.053 0.01,0.03 0.039,0.444 0.063,0.922 0.024,0.478 0.055,1.021 0.068,1.208 0.015,0.222 0.009,0.317 -0.017,0.276 a 6.187,6.187 0 0 1 -0.071,-0.891 c -0.017,-0.454 -0.044,-0.989 -0.06,-1.187 l -0.029,-0.36 -0.035,0.629 c -0.02,0.347 -0.049,0.948 -0.066,1.336 -0.029,0.67 -0.03,0.682 -0.037,0.225 a 17.3,17.3 0 0 1 0.124,-2.194 0.063,0.063 0 0 0 0.007,-0.075 z m -0.121,0.024 v 0 c 0,0.007 -0.006,0.327 -0.019,0.712 l -0.024,0.7 -0.007,-0.615 c -0.006,-0.497 0.017,-0.87 0.05,-0.797 z m -0.14,0.2 v 0 c 0.019,0.082 0.066,1.265 0.1,2.629 0.034,1.364 0.082,2.49 0.093,2.5 0.011,0.01 0.012,-0.522 0,-1.187 -0.013,-0.814 -0.01,-0.994 0.011,-0.551 0.017,0.361 0.034,0.91 0.037,1.219 0,0.473 0,0.562 -0.058,0.562 -0.058,0 -0.064,-0.057 -0.064,-0.254 0,-0.213 -0.08,-2.844 -0.14,-4.58 -0.007,-0.291 0,-0.425 0.021,-0.335 z m -0.08,0.679 v 0 c 0.008,-0.458 0.01,-0.465 0.021,-0.106 0.006,0.209 0.041,1.333 0.078,2.495 0.037,1.162 0.058,2.123 0.047,2.134 -0.045,0.048 -0.166,-3.592 -0.146,-4.52 z m -0.088,-0.8 v -0.006 a 0.13,0.13 0 0 1 0.069,0.1 c 0.009,0.076 0.007,0.075 -0.029,0 -0.025,-0.054 -0.032,0.131 -0.02,0.509 0.078,2.4 0.121,4.989 0.077,4.706 -0.007,-0.047 -0.033,-0.991 -0.058,-2.1 C 12.446,18.003 12.416,16.83 12.4,16.5 12.378,15.992 12.383,15.893 12.432,15.909 Z m -0.032,2.62 0.006,-0.006 c 0.075,2.936 0.073,2.82 0.041,2.787 -0.032,-0.033 -0.144,-4.293 -0.141,-5.034 0.003,-0.918 0.037,-0.15 0.094,2.259 z m -0.145,-1.548 v -0.006 c 0.018,0.583 0.048,1.807 0.065,2.72 0.032,1.635 0.031,1.66 -0.052,1.7 -0.057,0.03 -0.076,0.019 -0.091,-0.621 h 0.058 v -0.286 c 0.008,0.266 0.017,0.464 0.024,0.536 0.022,0.235 0.028,-0.016 0.016,-0.723 -0.01,-0.594 -0.026,-1.825 -0.036,-2.734 -0.014,-1.397 -0.012,-1.484 0.016,-0.58 z m -0.085,3.493 v -0.043 h 0.065 v 0.043 z m -0.143,-4.489 c 0.066,-0.108 0.1,-0.02 0.123,0.326 0.014,0.2 0.037,1.269 0.052,2.366 0.009,0.661 0.023,1.3 0.036,1.758 A 0.171,0.171 0 0 0 12.172,20.292 H 12.167 V 20.3 c -0.01,-0.012 -0.027,-0.006 -0.039,-0.012 l -0.02,-0.007 v 0 a 0.283,0.283 0 0 0 -0.05,-0.013 c -0.007,-0.469 -0.014,-1.054 -0.023,-1.681 -0.02,-1.402 -0.023,-2.575 -0.008,-2.602 z m -0.019,4.267 a 0.082,0.082 0 0 1 0.019,0.006 0.129,0.129 0 0 0 -0.021,0 z m 0,0.115 a 0.072,0.072 0 0 1 0.074,0.066 h 0.034 V 20.47 H 12.06 v -0.06 c -0.012,-0.024 -0.026,-0.047 -0.054,-0.048 z m -0.053,0.287 a 0.153,0.153 0 0 1 -0.052,-0.128 0.165,0.165 0 0 1 0.043,-0.122 v 0.044 c 0.012,-0.02 0.013,-0.054 0.033,-0.061 v 0.272 a 0.078,0.078 0 0 1 -0.02,-0.011 c -0.005,0 0,-0.012 -0.007,-0.017 z m -0.048,0.122 c 0.02,0.006 0.033,0.026 0.056,0.026 h 0.008 c 0.016,0 0.024,-0.012 0.036,-0.017 a 0.175,0.175 0 0 0 0.1,-0.045 v 0.052 h 0.006 a 6.04,6.04 0 0 1 -0.011,0.631 c -0.018,0.019 -0.034,-0.037 -0.034,-0.123 0,-0.033 0,-0.231 -0.006,-0.539 a 0.271,0.271 0 0 1 -0.052,0.024 c -0.014,0 -0.02,0.016 -0.036,0.017 0,0.1 -0.007,0.114 -0.013,0 A 0.1,0.1 0 0 1 11.91,20.772 l -0.029,-0.013 a 4.262,4.262 0 0 1 -0.025,0.723 5.224,5.224 0 0 1 -0.033,-0.75 v 0 a 0.28,0.28 0 0 0 0.055,0.026 0.151,0.151 0 0 1 0.022,0.018 z m 0.158,-0.155 V 20.579 H 12.1 c -0.007,0.031 -0.028,0.027 -0.038,0.042 z m -0.239,-4.112 c 0.012,0.28 0.03,1.512 0.047,2.738 0.006,0.406 0.009,0.751 0.011,1.046 a 0.254,0.254 0 0 1 0.06,-0.022 v 0 c -0.037,-1.408 -0.058,-4.341 -0.025,-4.3 0.018,0.02 0.042,1.267 0.054,2.771 0.005,0.628 0.006,1.144 0.006,1.516 a 0.282,0.282 0 0 1 -0.048,0.019 0.254,0.254 0 0 0 -0.06,0.022 c -0.017,0.01 -0.039,0.011 -0.054,0.021 v 0 c -0.005,-0.419 -0.007,-0.942 -0.009,-1.579 0.003,-1.503 0.003,-2.506 0.015,-2.226 z M 11.71,15.936 V 15.93 c 0.026,0 0.041,1.026 0.041,2.785 v 1.771 c 0,0.008 -0.008,0.014 -0.008,0.022 v 0.022 0.008 c 0,0.581 -0.007,0.956 -0.012,0.951 -0.031,-0.04 -0.062,-5.547 -0.024,-5.547 z m -0.235,0.023 c 0.012,0.114 0.031,1.268 0.043,2.668 0.007,0.866 0.009,1.545 0.006,2.016 h -0.046 v -0.39 H 11.46 c 0,-0.407 -0.005,-0.913 -0.006,-1.542 -0.001,-1.469 0.006,-2.669 0.018,-2.746 z m 0.048,4.814 A 5.049,5.049 0 0 1 11.499,21.4 2.741,2.741 0 0 1 11.466,20.773 Z M 11.364,16 c 0.012,0.073 0.026,1.2 0.032,2.618 v 1.646 H 11.335 C 11.325,18.721 11.333,16.147 11.364,16 Z m 0.027,4.784 a 5.148,5.148 0 0 1 -0.027,0.633 4.955,4.955 0 0 1 -0.023,-0.633 z m -0.144,-3.738 c 0.006,-0.621 0.015,0.112 0.021,1.627 a 26.419,26.419 0 0 1 -0.037,2.8 8.13,8.13 0 0 1 -0.018,-1.621 v -0.006 c 0.012,-0.924 0.028,-2.184 0.034,-2.805 z M 10.313,16 a 5.338,5.338 0 0 1 0.021,0.681 c -0.008,0.781 -0.026,0.681 -0.044,-0.24 A 1.972,1.972 0 0 1 10.313,16 Z m -0.032,2.51 -0.007,-0.006 c -0.009,0.583 -0.025,1.442 -0.035,1.908 v 0.063 a 0.446,0.446 0 0 1 0.039,-0.144 c 0.017,-0.476 0.038,-1.117 0.059,-1.808 0.069,-2.287 0.09,-2.626 0.16,-2.626 0.011,0 0.009,0.02 -0.006,0.044 -0.03,0.047 -0.116,2.749 -0.148,4.294 a 0.364,0.364 0 0 1 0.05,-0.046 c 0.01,-0.319 0.021,-0.684 0.031,-1.08 0.031,-1.219 0.071,-2.426 0.09,-2.682 0.028,-0.384 0.031,-0.328 0.016,0.318 -0.032,1.433 -0.062,2.605 -0.088,3.411 a 0.472,0.472 0 0 1 0.061,-0.037 c 0.016,-0.552 0.037,-1.361 0.054,-2.123 0.024,-1.1 0.052,-2.017 0.062,-2.046 0.022,-0.068 0.069,-0.067 0.165,0 0.073,0.053 0.074,0.174 0.026,2.744 -0.009,0.517 -0.02,1 -0.029,1.412 h 0.011 a 0.362,0.362 0 0 1 0.056,0.017 c 0,-0.148 0,-0.3 0.007,-0.458 0.017,-0.944 0.033,-2.171 0.035,-2.727 0,-0.938 0.009,-1.009 0.078,-1 0.015,0 0.026,0.014 0.036,0.054 V 16 c 0,0.012 0,0.031 0.006,0.047 0,-0.015 0,-0.031 0,-0.046 v 0.013 c 0,0.013 0,0.063 0,0.1 0.019,0.267 0.019,0.925 0.016,2.583 v 1.587 c 0,0.006 0.012,0.008 0.015,0.014 a 0.349,0.349 0 0 1 0.02,0.044 c 0.014,-0.568 0.026,-1.535 0.028,-2.419 a 12.6,12.6 0 0 1 0.055,-2 c 0.036,0 0.041,0.22 0.021,0.859 -0.015,0.472 -0.028,1.722 -0.028,2.778 v 1.94 l -0.13,-0.01 a 0.286,0.286 0 0 1 -0.162,-0.054 4.643,4.643 0 0 1 -0.013,-0.514 0.406,0.406 0 0 1 -0.085,0.021 c -0.009,0.292 -0.016,0.465 -0.021,0.47 a 4.222,4.222 0 0 1 -0.008,-0.464 0.358,0.358 0 0 1 -0.065,0.014 c 0,0.277 0,0.456 0.006,0.467 0.019,0.034 0.012,0.034 -0.026,0 a 1.586,1.586 0 0 1 -0.03,-0.476 L 10.567,20.947 10.535,20.94 c -0.014,0.492 -0.024,0.458 -0.047,0.444 A 2.119,2.119 0 0 1 10.471,20.92 l -0.014,-0.01 c -0.017,-0.01 -0.032,-0.021 -0.048,-0.032 -0.012,0.284 -0.022,0.455 -0.029,0.463 a 0.178,0.178 0 0 1 -0.128,-0.039 l -0.1,-0.07 0.033,-1.106 c 0.018,-0.608 0.048,-1.459 0.066,-1.89 0.049,-0.744 0.049,-0.728 0.03,0.271 z M 10.2,18.574 10.194,18.568 c -0.04,1.2 -0.089,2.279 -0.108,2.395 -0.03,0.174 -0.033,0.147 -0.018,-0.148 0.01,-0.2 0.052,-1.352 0.093,-2.565 0.041,-1.213 0.082,-2.128 0.09,-2.035 0.008,0.093 -0.01,1.155 -0.051,2.356 z M 10.078,15.91 10.071,15.904 c 0.07,0.013 0.082,0.059 0.091,0.354 0.007,0.186 -0.006,0.7 -0.028,1.144 L 10.1,18.2 10.111,17.076 c 0.007,-0.7 0,-0.931 -0.016,-0.615 -0.016,0.316 -0.031,0.412 -0.036,0.255 -0.005,-0.14 -0.021,-0.385 -0.037,-0.545 C 10,15.911 10,15.892 10.078,15.907 Z m -0.071,1.145 c 0.018,0.3 0.039,0.867 0.05,1.343 0.017,0.725 0.015,0.8 -0.01,0.318 a 11.372,11.372 0 0 1 -0.04,-1.664 z m 0.037,2.852 a 7.743,7.743 0 0 1 -0.028,0.848 l -0.041,0.378 0.019,-0.395 c 0.011,-0.219 0.023,-0.6 0.028,-0.848 l 0.009,-0.449 z M 9.918,18.8 C 9.884,19.559 9.852,20.169 9.841,20.157 9.83,20.145 9.852,19.522 9.882,18.764 L 9.875,18.757 c 0.031,-0.758 0.066,-1.369 0.077,-1.357 0.011,0.012 0,0.638 -0.034,1.4 z M 9.849,17.757 c 0,-0.245 0.007,-0.346 0.016,-0.223 a 4.129,4.129 0 0 1 0,0.445 c 0,0.134 -0.009,0.034 -0.009,-0.21 z m 0.1,-1.744 a 1.6,1.6 0 0 1 0,0.294 C 9.94,16.395 9.932,16.334 9.932,16.171 9.932,16.042 9.941,16 9.949,16.01 Z M 9.914,16.675 9.907,16.663 a 3.333,3.333 0 0 1 0,0.424 c -0.008,0.123 -0.016,0.034 -0.016,-0.2 0,-0.234 0.009,-0.325 0.023,-0.215 z M 9.8,15.8 c 0.037,0.029 0.075,0.045 0.085,0.035 a 1.322,1.322 0 0 1 0,0.308 l -0.02,0.325 -0.014,-0.3 A 0.984,0.984 0 0 0 9.787,15.808 C 9.742,15.761 9.744,15.759 9.8,15.8 Z m 0.018,2.513 a 2.154,2.154 0 0 1 0.017,0.417 v 0 L 9.83,19.143 9.792,18.825 C 9.755,18.53 9.767,18.313 9.818,18.313 Z M 9.811,16.892 c 0,-0.187 0.007,-0.268 0.016,-0.181 a 2.068,2.068 0 0 1 0,0.343 v 0 C 9.818,17.15 9.811,17.079 9.811,16.892 Z M 9.742,16.5 a 0.437,0.437 0 0 1 0,0.169 c -0.01,0.053 -0.019,0.02 -0.019,-0.073 0,-0.093 0.009,-0.133 0.019,-0.096 z m 0,1.551 v 0 c -0.009,0.088 -0.017,0.026 -0.017,-0.137 0,-0.163 0.008,-0.235 0.017,-0.16 a 1.593,1.593 0 0 1 0.002,0.297 z M 9.7,17.119 a 1.414,1.414 0 0 1 0,0.276 c -0.01,0.075 -0.017,0.013 -0.017,-0.138 0,-0.151 0.009,-0.214 0.017,-0.138 z m 0,1.377 a 2.132,2.132 0 0 1 0,0.339 C 9.691,18.935 9.684,18.864 9.683,18.677 9.682,18.49 9.691,18.409 9.7,18.5 Z m 0,1.489 a 2.663,2.663 0 0 1 0,0.379 c -0.009,0.1 -0.016,0.007 -0.016,-0.2 0,-0.207 0.007,-0.29 0.016,-0.179 z M 9.659,17.86 v 0 a 1.088,1.088 0 0 1 0,0.255 c -0.009,0.076 -0.017,0.024 -0.017,-0.116 0,-0.14 0.007,-0.199 0.017,-0.139 z m 0,1.36 a 2.217,2.217 0 0 1 0,0.336 v 0 c -0.009,0.1 -0.017,0.028 -0.017,-0.158 0,-0.186 0.005,-0.264 0.014,-0.178 z m -0.017,1.326 0.027,0.234 0.028,0.233 0.023,-0.191 0.023,-0.191 v 0.2 c 0,0.11 0.013,0.2 0.034,0.2 a 1.318,1.318 0 0 0 0.011,-0.456 c -0.015,-0.25 -0.036,-0.7 -0.047,-1.007 l -0.02,-0.551 0.059,0.721 c 0.031,0.4 0.059,0.862 0.061,1.035 0.007,0.621 0.04,0.256 0.1,-1.056 0.031,-0.735 0.064,-1.279 0.072,-1.209 0.008,0.07 -0.008,0.678 -0.035,1.35 a 4.374,4.374 0 0 0 0,1.277 v 0 a 0.189,0.189 0 0 0 0.02,0.027 c 0.086,0.1 0.066,0.1 -0.1,0.028 A 0.387,0.387 0 0 1 9.639,20.755 Z M 9.616,18.6 a 0.753,0.753 0 0 1 0,0.212 C 9.606,18.877 9.598,18.834 9.597,18.712 9.596,18.59 9.606,18.55 9.616,18.6 Z m 0,1.72 v 0 c -0.01,0.076 -0.017,0.014 -0.017,-0.138 0,-0.152 0.007,-0.213 0.017,-0.138 a 1.435,1.435 0 0 1 0.001,0.276 z m 3.468,1.327 v 0 a 4.14,4.14 0 0 1 -1.618,0.316 6.525,6.525 0 0 1 -1.521,-0.238 c -0.069,-0.033 -0.092,-0.051 -0.05,-0.039 0.042,0.012 0.27,0.061 0.506,0.109 a 5.366,5.366 0 0 0 2.644,-0.165 c 0.116,-0.067 0.138,-0.057 0.04,0.017 z m -1.677,0.16 c 0.245,0 0.345,0.007 0.223,0.015 a 3.671,3.671 0 0 1 -0.445,0 c -0.122,-0.006 -0.022,-0.013 0.223,-0.013 z m 1.74,-0.507 v 0 a 3.988,3.988 0 0 1 -2.814,0.3 c -0.321,-0.087 -0.79,-0.338 -0.79,-0.423 0,-0.049 0.022,-0.043 0.094,0.024 a 1.461,1.461 0 0 0 0.307,0.188 2.972,2.972 0 0 0 1.485,0.254 3.4,3.4 0 0 0 1.014,-0.1 1.9,1.9 0 0 0 0.764,-0.37 c 0.037,-0.036 0.067,-0.047 0.067,-0.025 A 0.4,0.4 0 0 1 13.148,21.3 Z m 0.294,-0.053 v 0 a 0.341,0.341 0 0 1 -0.093,0.107 c -0.038,0.022 -0.036,0.011 0,-0.038 0.036,-0.049 0.047,-0.087 0.034,-0.108 -0.013,-0.021 0,-0.037 0.037,-0.037 0.037,0 0.052,0.02 0.023,0.076 z"/>

</svg>