<svg xmlns="http://www.w3.org/2000/svg" fill="#44739e" width="24" height="24" version="1.1" viewBox="0 0 24000 24000"><path d="M11094 6715a369 369 0 00 370-370v-20h-270v42h226a326 326 0 11-320-347h22-5 5v-44h-5 5-23a370 370 0 00 0 739zm-138-452a57 57 0 10-57-56 56 56 0 00 57 56Zm161-113h-44v390h130V6500h-86Zm-1477 783c100 23 1140 33 2320 21l2145-22 22-683 23-687h-2291c-1260 0-2314 23-2343 52a2452 2452 0 00-52 660c0 570 12 614 176 654zm3977-1124c125 0 214 33 214 89 0 200-100 449-170 449-40 0-50-75-20-166 34-111 23-148-35-112-58 36-86 16-86-30s61-86 136-90c90 0 72-30-58-70l-200-63zm-214 850a421 421 0 01 300-70c238 7 240 10 54 70-283 84-410 84-357-5zm-975-586a265 265 0 01 164 50 168 168 0 01 67 138h-160a71 71 0 00-73-65c-62 0-100 58-100 153s38 155 100 155c62 0 79-28 90-90h-100V6300h240v300h-130v-45a158 158 0 01-140 65c-135 0-223-108-223-274a248 248 0 01 265-273zm-680 13h152v390h228v130h-382ZM11100 5910a436 436 0 11-436 436 436 436 0 01 436-436Zm3410 910a1016 1016 0 00 843 70 778 778 0 00-39-1207 548 548 0 00-754 84c-176 175-200 249-164 589a1178 1178 0 00 114 465zm547-916c55 0 100 78 100 173a243 243 0 00 120 220c100 37 100 79 34 208s-148 156-335 138c-205-20-250-58-253-220-3-224 186-520 334-520ZM8300 6893c340 141 768 40 860-205a1048 1048 0 00-46-870 721 721 0 00-914-37c-319 362-267 962 100 1112Zm30-593a258 258 0 00 120-233c0-224 105-238 300-40 124 124 149 273 100 575 0 32-114 59-240 59-273-2-490-282-280-360Zm10453 6871v-8270l-415-1054a12100 12100 0 00-500-1150 8141 8141 0 00-2177-100c-1987 0-2096-8-2247-156-150-148-259-156-1627-156-1353 0-1487 13-1669 156-182 143-317 156-2300 156a7546 7546 0 00-2188 100 11091 11091 0 00-479 1239L4790 5082V21400l176 42c100 23 3246 33 7000 21l6824-21zm-1910-8759a4445 4445 0 01-1091-92c0-37 80-83 175-100a7572 7572 0 01 1808 21c402 151 178 194-890 171zm900 300c33 50-236 74-754 68-562-8-722-28-530-68a3029 3029 0 01 1280-3Zm-3587-1490a10579 10579 0 01 2452 0c73 47 133 43 166-11 33-54 161-64 353-26 547 100 64 168-1434 187-1394 20-1623-4-1537-150zm-380 213c79-80 119-62 64 27-100 156 188 330 452 277a7932 7932 0 01 2045-73l857 63-545 129a2064 2064 0 01-1131 23c-766-140-885-140-832 0 34 88-18 100-245 72-446-62-717-190-717-336a311 311 0 01 52-187zm300 962c-141 0-274 44-300 100-26 56-40 57-45-23a328 328 0 01 87-214 1364 1364 0 01 908-26c118 73-236 166-656 166Zm-654 123c81 100-113 112-1443 107-1493 0-1948-45-1659-146 70-25 776-51 1568-60 1167-11 1453 8 1529 99zm-785-1665c150 0 211 16 136 36a661 661 0 01-273 0c-80-20-18-36 132-36Zm-1092 0c236 0 332 15 214 33a1711 1711 0 01-429 0c-123-13-26-28 210-28Zm-1520 885c36-278 116-371 116-135 0 307 190 130 252-233 69-408 114-540 185-540 28 0 33 137 11 300a600 600 0 00 48 400c67 73 65 84-9 42-53-30-100-18-100 27a3423 3423 0 00 1209 83 3423 3423 0 00 1209-83c0-45-44-57-100-27-78 44-78 34 0-50a745 745 0 00 100-406c0-181 30-282 78-253a566 566 0 01 78 349c0 377 63 548 200 548 60 0 109 34 109 75a8727 8727 0 01-1710 100l-1710 22zm-118 67c0 94-118 116-600 114-564 0-592-10-410-114 264-150 1005-150 1005 5Zm-162 682A1200 1200 0 00 9200 4400c-333 0-438-24-355-77a1255 1255 0 01 485-77c300 0 383 30 458 174 75 144 67 155-18 74ZM9730 3217c23 38-240 93-580 122a13076 13076 0 01-2807-123 21759 21759 0 01 3387 0Zm-1320 900a660 660 0 01-620-70c-140-106-124-114 202-113A1229 1229 0 01 8437 4000c83 50 78 73-26 113Zm-2300-238a1838 1838 0 00 507-100A4693 4693 0 01 7900 3638c135-6 100 20-100 82-165 50-273 118-240 150a2889 2889 0 01-870 45c-512-7-773-26-580-40Zm-350 420c127-100 360-140 900-158 400-14 820-30 928-38 174-12 165 0-80 132a2593 2593 0 01-1100 172c-784 28-810 23-650-107Zm-675 1500c50 0 88-66 88-147a221 221 0 01 126-194c68-26 990-50 2047-54 1058-4 2100-32 2314-63l390-57-528-63c-290-34-1392-50-2449-34-1489 22-1930 7-1955-70-25-75 256-100 1240-100 852 0 1235-26 1157-76a2460 2460 0 00-740-78c-790 0-1260-74-1118-171a3917 3917 0 01 960-44 2400 2400 0 01 1132 180c260 145 460 152 4250 165 7165 24 6513 8 6514 162 0 127-115 134-1619 100a45203 45203 0 00-2437 0l-819 40 585 56c321 30 1322 76 2223 100a6162 6162 0 01 1813 160c288 185 200 273-100 100a666 666 0 00-907 110 1048 1048 0 00 100 1017 845 845 0 00 874 20c210-110 219-106 200 60-20 166-33 174-2170 235-2190 64-11062 17-11137-60a3169 3169 0 01-34-1290Zm13372 1789a300 300 0 01-207 190c-360 86-6877 147-9822 91-2627-50-3122-77-3227-178-105-100-100-130-16-184 57-36 3075-66 6706-67 6470-1 6610 2 6568 148Zm-500-1553c45 0 58 59 30 130-38 100-18 119 81 80 99-37 130-8 130 89a363 363 0 01-608 231 547 547 0 01-17-576c100-105 409-129 350-30-24 40-10 71 34 71Zm-12850 2400c66 67 347 100 880 88l785-10-546-92a3271 3271 0 01-700-180 44735 44735 0 01 5370-88c3039 0 5546-20 5570-44a6500 6500 0 01 1026-41c952 0 974 7 747 130a4023 4023 0 01-546 230c-310 100-309 100 254 84l566-18v2453c0 1962-20 2433-100 2355a9334 9334 0 01-120-2256 20290 20290 0 00-87-2226c-85-84-12721-85-12800 0a20808 20808 0 00-90 2180c-14 1165-50 2145-83 2177a83 83 0 01-117 0c-32-32-70-1135-82-2450-20-1917-5-2372 74-2294Zm13448 11570c-51 538-71 593-206 558-83-22-151-70-151-108 0-110-12847-90-12915 21-38 62-88 45-160-54a14108 14108 0 01-106-3070c0-2788 7-2920 137-2790 130 130 140 400 175 2800l40 2664 200 54c265 74 12500 82 12610 10a14349 14349 0 00 116-2770c22-2385 11-2700-92-2660a89067 89067 0 01-12615 26c-244-86-318-180-195-250 32-17 17-23-33-10-114 26-182-146-180-464v-247l174 215 175 214 1910 88c1870 86 9058 43 10246-60 517-45 538-56 644-310a830 830 0 01 144-264 8818 8818 0 01 35 1073c0 590 26 1900 55 2900s22 2112-8 2441zM7139 6950c489 55 685-138 685-675 0-322-33-410-200-545a516 516 0 00-616-88c-244 100-344 260-394 636-65 456 64 623 523 672Zm316-934a388 388 0 01-147 614c-300 75-420-15-420-315 0-394 326-566 567-300Zm9406 830c160-112 177-180 156-600a1737 1737 0 01 34-571c38-61 0-89-94-81-84 6-132 48-108 93 24 45 0 37-60-17a800 800 0 00-736 0c-232 130-270 220-272 628a670 670 0 00 155 527 837 837 0 00 925 20zm-223-810c266 267 156 625-192 623a351 351 0 01-393-307c-80-421 283-618 585-316Zm-10824 936c410 0 606-213 606-655 0-584-390-850-920-628a673 673 0 00-369 792 613 613 0 00 683 490Zm-250-664c86-27 136-84 110-125-60-100 120-317 232-280a451 451 0 01 160 241 341 341 0 01-262 500c-170 26-400-100-400-225 2-35 73-86 160-113Zm8252 2126c1058-12 170-22-1975-22s-3010 10-1925 22c1086 12 2841 12 3900 0zM10000 14600c1043 12 2728 12 3744 0s162-23-1900-23-2891 5-1844 23"/></svg>
