<?xml version="1.0" encoding="UTF-8"?>
<svg width="24px" fill="#44739e" height="24px" viewBox="0 0 24 24" version="1.1" xmlns="http://www.w3.org/2000/svg" xmlns:xlink="http://www.w3.org/1999/xlink">
            <path d="m 13.666,19.181 a 0.554,0.554 0 0 0 0,1.108 0.555,0.555 0 0 0 0.554,-0.554 V 19.7 h -0.4 v 0.065 l 0.007,-0.008 v 0 l -0.007,0.008 h 0.338 l 0.007,-0.008 v 0 l -0.008,0.008 v 0 a 0.49,0.49 0 0 1 -0.487,0.456 0.489,0.489 0 1 1 0,-0.978 h 0.03 l -0.007,-0.007 0.007,0.007 v -0.065 l -0.007,0.007 v 0 L 13.7,19.178 Z m -0.293,0.345 a 0.085,0.085 0 0 0 0.085,0.085 0.085,0.085 0 1 0 0,-0.17 0.085,0.085 0 0 0 -0.085,0.085 z m 0.327,0.437 v -0.522 h -0.066 v 0.587 h 0.2 v -0.065 l -0.007,0.007 0.007,-0.007 z M 14.189,5.806 c 0.164,0.043 0.177,0.033 0.146,-0.111 -0.023,-0.1 -0.014,-0.129 0.024,-0.076 a 0.267,0.267 0 0 0 0.243,0.049 c 0.145,-0.026 0.2,0 0.245,0.12 0.058,0.143 0.062,0.144 0.066,0.015 0.008,-0.253 -0.123,-0.3 -0.843,-0.3 -0.507,0 -0.706,0.025 -0.764,0.095 -0.058,0.07 -0.015,0.1 0.311,0.128 a 4.385,4.385 0 0 1 0.572,0.08 z M 16.946,2.11 C 16.863,2.01 16.4,2 11.858,2 A 49.25,49.25 0 0 0 6.78,2.081 C 6.717,2.143 6.699,4.424 6.699,11.937 v 9.776 l 0.144,0.155 c 0.133,0.143 0.177,0.151 0.589,0.1 0.6,-0.068 8.3,-0.069 8.745,0 0.479,0.074 0.658,0.017 0.769,-0.248 0.136,-0.32 0.136,-19.445 0,-19.61 z m -1.085,0.182 c 0.277,0 0.391,0.012 0.252,0.026 a 2.839,2.839 0 0 1 -0.5,0 C 15.469,2.3 15.583,2.292 15.861,2.292 Z M 11.953,2.269 H 12.2 c 0.136,0 0.227,0.021 0.2,0.046 -0.027,0.025 0.005,0.1 0.067,0.168 0.1,0.114 0.263,0.124 2.105,0.13 A 6.574,6.574 0 0 1 16.33,2.681 3.323,3.323 0 0 1 15.555,2.709 17.171,17.171 0 0 0 12.328,2.87 c -0.1,0.082 -0.106,0.543 -0.091,4.848 l 0.017,4.758 h 0.337 l 0.018,-4.767 0.017,-4.766 h 1.915 a 12.425,12.425 0 0 1 1.959,0.067 8.407,8.407 0 0 1 -1.765,0.078 9.236,9.236 0 0 0 -1.5,0.05 c 0.224,0.03 0.271,0.054 0.179,0.092 a 0.274,0.274 0 0 1 -0.2,0.007 c -0.052,-0.03 -0.055,-0.022 -0.01,0.024 a 1.934,1.934 0 0 0 0.572,0.147 5.431,5.431 0 0 1 0.775,0.174 c 0.25,0.089 0.278,0.086 0.381,-0.036 0.236,-0.277 0.678,-0.1 0.8,0.325 0.1,0.348 0.088,0.487 -0.031,0.487 a 0.12,0.12 0 0 1 -0.1,-0.131 0.226,0.226 0 0 0 -0.068,-0.173 0.073,0.073 0 0 1 -0.036,-0.1 C 15.515,3.925 15.432,3.904 15.312,3.908 l -0.216,0.007 v 0.741 l 0.26,-0.008 c 0.167,-0.006 0.227,0.012 0.168,0.049 A 0.509,0.509 0 0 1 15,4.678 0.965,0.965 0 0 1 14.884,4.371 C 14.831,4.12 14.694,4.115 14.655,4.363 14.632,4.516 14.627,4.518 14.576,4.392 14.525,4.266 14.521,4.279 14.517,4.44 c -0.006,0.214 -0.17,0.323 -0.489,0.321 -0.3,0 -0.371,-0.058 -0.426,-0.35 -0.046,-0.245 -0.05,-0.248 -0.208,-0.144 a 0.362,0.362 0 0 1 -0.262,0.067 c -0.229,-0.088 -0.3,0.025 -0.3,0.455 a 1.054,1.054 0 0 0 0.081,0.5 4.1,4.1 0 0 0 1.278,0.081 c 1.025,0 1.172,0 1.262,0.1 v 0 a 0.52,0.52 0 0 1 0.044,0.06 0.5,0.5 0 0 0 0.22,0.194 c 0.079,0.021 0.067,0.032 -0.039,0.038 -0.083,0 -0.151,0.038 -0.151,0.075 a 0.062,0.062 0 0 1 -0.056,0.067 c -0.031,0 -0.047,-0.1 -0.037,-0.219 L 15.453,5.47 v 0 l -0.056,0.2 c -0.061,0.216 -0.084,0.662 -0.028,0.522 a 0.131,0.131 0 0 1 0.1,-0.085 c 0.037,0 0.053,0.038 0.036,0.085 -0.017,0.047 0.064,0.186 0.18,0.31 0.206,0.222 0.207,0.226 0.042,0.178 a 1.658,1.658 0 0 1 -0.4,-0.221 c -0.13,-0.094 -0.2,-0.13 -0.152,-0.079 0.111,0.12 0.107,0.2 -0.007,0.16 A 1,1 0 0 1 14.921,6.171 1.668,1.668 0 0 0 14.739,5.838 1.673,1.673 0 0 0 14.508,5.944 0.609,0.609 0 0 1 14.14,6.011 c -0.2,-0.052 -0.207,0.049 0,0.209 a 0.261,0.261 0 0 1 0.113,0.325 c -0.043,0.2 -0.046,0.2 -0.241,-0.2 C 13.832,6 13.774,5.94 13.57,5.9 a 0.406,0.406 0 0 0 -0.553,0.391 c -0.079,0.68 0.015,0.717 1.73,0.68 1.127,-0.025 1.309,-0.015 1.23,0.064 -0.079,0.079 -0.376,0.094 -1.368,0.1 -0.7,0 -1.388,-0.019 -1.527,-0.045 l -0.253,-0.049 0.008,0.632 c 0,0.347 0.023,0.571 0.041,0.5 0.073,-0.3 0.1,-0.3 1.627,-0.3 h 1.457 V 7.48 c 0,-0.263 0.028,-0.391 0.092,-0.413 0.064,-0.022 0.087,0.063 0.065,0.445 a 2.28,2.28 0 0 1 -0.063,0.513 c -0.02,0.02 -0.688,0.039 -1.484,0.042 A 13.68,13.68 0 0 0 13.05,8.119 c -0.043,0.026 -0.066,0.176 -0.053,0.349 0.013,0.173 0.024,0.374 0.028,0.461 0.006,0.156 0.017,0.159 0.561,0.135 0.524,-0.023 0.565,-0.036 0.742,-0.237 a 0.973,0.973 0 0 1 0.434,-0.271 c 0.3,-0.07 0.381,-0.224 0.123,-0.224 A 2.507,2.507 0 0 0 14.416,8.406 0.536,0.536 0 0 1 13.965,8.391 c -0.146,-0.081 -0.114,-0.093 0.38,-0.144 0.543,-0.056 0.9,0.011 0.808,0.154 -0.023,0.037 0.027,0.093 0.111,0.124 0.132,0.049 0.1,0.069 -0.213,0.145 a 2.4,2.4 0 0 0 -0.57,0.212 l -0.2,0.124 h 0.741 c 0.79,0.005 1.391,0.071 1.28,0.14 -0.037,0.023 -0.813,0.053 -1.725,0.066 -1.291,0.019 -1.652,0.044 -1.627,0.109 0.025,0.065 0.167,0.086 0.379,0.089 0.251,0 0.309,0.019 0.211,0.06 a 1.347,1.347 0 0 0 -0.591,0.706 c -0.049,0.279 0.006,0.4 0.133,0.3 a 0.16,0.16 0 0 1 0.221,-0.006 c 0.112,0.071 0.116,0.061 0.046,-0.124 -0.064,-0.17 -0.052,-0.244 0.084,-0.5 0.088,-0.165 0.187,-0.3 0.22,-0.3 0.033,0 0.012,0.091 -0.046,0.2 a 1.655,1.655 0 0 0 -0.129,0.522 c -0.025,0.312 -0.03,0.32 -0.268,0.34 -0.156,0.014 -0.242,0.056 -0.242,0.118 0,0.062 0.086,0.1 0.316,0.1 0.352,0 0.332,0.083 -0.047,0.193 -0.188,0.054 -0.052,0.068 0.674,0.069 2.186,0 2.209,0 2.319,0.113 a 1.2,1.2 0 0 1 0,1 c -0.089,0.089 -0.32,0.106 -1.465,0.107 -1.595,0 -1.865,0.031 -1.865,0.21 0,0.111 0.06,0.127 0.489,0.134 0.9,0.015 0.939,0.11 0.046,0.119 -0.629,0.006 -0.879,0.033 -0.976,0.107 -0.116,0.087 0.117,0.1 2.058,0.111 1.2,0.006 2.106,0.025 2,0.04 -0.106,0.015 -0.169,0.057 -0.147,0.091 0.042,0.069 -4.13,0.091 -4.309,0.022 -0.1,-0.037 -0.107,-0.58 -0.107,-5.457 z m 4.5,2.274 c -0.013,0.25 -0.024,0.046 -0.024,-0.455 0,-0.501 0.011,-0.7 0.024,-0.454 0.013,0.246 0.009,0.659 -0.003,0.909 z m -0.2,1.615 C 16.238,6.298 16.226,6.2 16.225,5.941 16.224,5.682 16.237,5.567 16.252,5.687 A 2.549,2.549 0 0 1 16.247,6.158 Z M 15.8,4.8 C 15.74,4.728 15.746,4.7 15.825,4.667 a 0.252,0.252 0 0 0 0.1,-0.232 0.457,0.457 0 0 1 0.05,-0.243 C 16.04,4.126 16.138,4.6 16.113,4.859 l -0.02,0.2 -1.606,0.018 c -1.273,0.015 -1.6,0 -1.576,-0.067 C 12.935,4.943 13.123,4.924 13.574,4.923 15.438,4.924 15.879,4.9 15.8,4.8 Z M 15.461,4.274 C 15.331,4.511 15.206,4.641 15.168,4.58 15.115,4.494 15.386,4.074 15.463,4.122 15.5,4.149 15.5,4.21 15.461,4.278 Z M 14.87,6.734 C 14.693,6.671 14.513,6.502 14.513,6.398 c 0,-0.154 0.111,-0.1 0.3,0.144 0.139,0.189 0.151,0.23 0.057,0.196 z M 13.9,6.745 C 13.692,6.626 13.57,6.482 13.57,6.356 c 0,-0.168 0.117,-0.079 0.3,0.226 0.083,0.151 0.094,0.204 0.03,0.167 z m 0.331,0.676 c 0,0.131 -0.037,0.228 -0.071,0.217 A 0.076,0.076 0 0 1 14.104,7.569 c 0,-0.027 0.005,-0.125 0.005,-0.217 0,-0.092 0.029,-0.169 0.065,-0.169 0.036,0 0.062,0.111 0.057,0.242 z m -1.01,0.015 c 0.012,0.123 -0.011,0.219 -0.051,0.219 -0.04,0 -0.075,-0.046 -0.08,-0.1 A 0.489,0.489 0 0 0 13.005,7.262 c -0.041,-0.066 -0.023,-0.084 0.069,-0.067 0.092,0.017 0.132,0.096 0.147,0.245 z m 2.453,3.385 c 0.685,0 0.628,0.117 -0.07,0.145 -0.374,0.015 -0.508,0 -0.559,-0.08 A 4.677,4.677 0 0 1 15.1,9.528 c 0.085,-0.137 0.158,-0.019 0.158,0.254 a 1.049,1.049 0 0 0 0.079,0.43 c 0.064,0.1 0.051,0.172 -0.065,0.369 l -0.144,0.244 z M 15.751,9.802 A 0.607,0.607 0 0 0 15.604,9.491 c -0.116,-0.093 -0.063,-0.1 0.176,-0.041 0.148,0.039 0.154,0.063 0.122,0.539 -0.018,0.274 -0.011,0.484 0.016,0.467 a 0.179,0.179 0 0 1 0.148,0.032 c 0.066,0.042 -0.01,0.06 -0.239,0.056 -0.269,-0.005 -0.3,-0.017 -0.168,-0.06 0.092,-0.029 0.137,-0.057 0.1,-0.06 -0.095,-0.01 -0.251,-0.564 -0.214,-0.759 0.028,-0.149 0.03,-0.148 0.039,0.019 a 0.414,0.414 0 0 0 0.11,0.261 C 15.78,10.022 15.787,10 15.751,9.806 Z M 14.756,9.625 a 4.754,4.754 0 0 0 -0.085,0.573 1.007,1.007 0 0 1 -0.091,0.421 2.079,2.079 0 0 1 -0.163,-0.972 c 0.032,-0.129 0.087,-0.173 0.212,-0.173 0.143,0.004 0.163,0.026 0.127,0.155 z m -0.823,1.3 c -0.111,-0.042 -0.108,-0.326 0.014,-1.168 0.072,-0.5 0.162,-0.31 0.162,0.34 a 1.719,1.719 0 0 0 0.079,0.705 C 14.285,10.907 14.1,11 13.933,10.932 Z M 9.292,8.554 c 0.186,0 0.269,0.012 0.187,0.028 a 1.223,1.223 0 0 1 -0.337,0 C 9.039,8.567 9.107,8.554 9.292,8.554 Z M 9.608,8.865 C 9.386,8.865 9.266,8.846 9.292,8.804 9.34,8.726 9.555,8.726 9.798,8.804 9.93,8.846 9.889,8.859 9.608,8.865 Z m 0.1,0.324 a 1.432,1.432 0 0 1 -0.37,0 C 9.238,9.174 9.319,9.161 9.523,9.161 c 0.204,0 0.292,0.013 0.19,0.028 z M 7.654,10.546 A 11.574,11.574 0 0 1 7.762,8.568 C 7.827,8.456 7.84,8.507 7.842,8.868 V 9.306 L 8.415,9.321 C 8.73,9.33 9.131,9.339 9.307,9.341 A 9.58,9.58 0 0 0 10.978,9.191 2.078,2.078 0 0 0 10.99,8.32 C 10.944,8.149 10.917,8.14 10.335,8.094 10.002,8.067 9.746,8.019 9.766,7.985 a 1.733,1.733 0 0 1 0.6,-0.06 c 0.437,0 0.591,0.026 0.7,0.118 0.13,0.112 0.139,0.217 0.174,2.177 0.033,1.779 0.024,2.08 -0.065,2.207 -0.1,0.143 -0.136,0.146 -1.463,0.135 C 8.812,12.554 8.501,12.535 8.789,12.506 9.21,12.464 9.201,12.462 8.559,12.45 7.373,12.43 7.925,12.362 9.379,12.35 a 4.5,4.5 0 0 0 1.523,-0.106 c 0.1,-0.083 0.111,-0.247 0.095,-1.415 L 10.979,9.508 10.421,9.489 c -0.432,-0.015 -0.582,0 -0.662,0.084 -0.133,0.133 -0.424,0.132 -0.757,0 A 1.748,1.748 0 0 0 8.31,9.489 l -0.43,0.02 -0.034,1.5 C 7.818,12.26 7.797,12.496 7.719,12.448 7.641,12.4 7.629,12.066 7.654,10.546 Z M 10.1,12 A 4.375,4.375 0 0 1 9.426,12.017 C 8.805,12.011 8.756,12.004 9.126,11.971 A 3.185,3.185 0 0 1 10.1,12 Z M 10.013,9.743 c 0.029,0 0.053,0.091 0.053,0.2 a 5.74,5.74 0 0 0 0.129,0.792 c 0.175,0.793 0.24,1.363 0.157,1.363 -0.083,0 -0.162,-0.308 -0.317,-1.1 A 3.9,3.9 0 0 0 9.875,10.369 C 9.814,10.265 9.927,9.747 10.014,9.747 Z m -0.608,1.135 -0.316,-0.01 0.3,-0.047 0.358,-0.057 c 0.03,-0.006 0.036,0.02 0.013,0.057 a 0.619,0.619 0 0 1 -0.354,0.061 z m -0.1,-0.569 -0.371,-0.008 -0.141,0.648 c -0.078,0.356 -0.161,0.759 -0.185,0.9 -0.05,0.29 -0.231,0.5 -0.231,0.267 0,-0.077 0.078,-0.513 0.174,-0.969 0.096,-0.456 0.19,-0.957 0.21,-1.115 a 0.886,0.886 0 0 1 0.064,-0.286 0.516,0.516 0 0 1 0.1,0.185 0.976,0.976 0 0 1 0.072,0.219 0.963,0.963 0 0 0 0.361,0.028 c 0.238,0 0.358,0.02 0.341,0.067 -0.017,0.047 -0.174,0.072 -0.388,0.068 z M 9.04,12.98 c 1.1,0 2.118,-0.02 2.257,-0.042 l 0.252,-0.042 V 7.622 A 47.259,47.259 0 0 0 11.465,2.314 C 11.415,2.294 11.43,2.278 11.5,2.275 c 0.07,-0.003 0.147,0.067 0.186,0.167 0.039,0.1 0.065,2.172 0.065,5.416 V 13.1 l -0.17,0.043 C 11.381,13.192 7.67,13.184 7.288,13.133 7.149,13.115 7.036,13.073 7.036,13.04 A 16.165,16.165 0 0 1 9.04,12.98 Z m -1.55,8.67 a 0.548,0.548 0 0 1 -0.235,0 C 7.19,21.633 7.243,21.619 7.372,21.619 c 0.129,0 0.183,0.014 0.118,0.031 z m 3.588,-0.068 c -1.148,0.046 -3.436,0.052 -3.436,0.009 0,-0.026 0.887,-0.043 1.97,-0.038 a 11.245,11.245 0 0 1 1.466,0.029 z M 11.697,21.064 11.642,21.213 9.358,21.2 c -1.256,0 -2.3,-0.024 -2.314,-0.04 -0.106,-0.106 0.3,-0.134 2.246,-0.152 l 2.175,-0.02 0.041,-0.25 c 0.023,-0.137 0.042,-1.64 0.042,-3.34 0,-2.866 -0.008,-3.1 -0.117,-3.181 -0.109,-0.081 -0.112,-0.09 0,-0.092 0.065,0 0.118,-0.028 0.118,-0.059 A 10.526,10.526 0 0 0 8.826,13.921 11.354,11.354 0 0 1 7.266,13.87 c 0.027,-0.027 1.04,-0.065 2.251,-0.084 l 2.2,-0.034 0.017,3.58 c 0.011,1.968 -0.006,3.65 -0.034,3.732 z m 2.962,0.556 c -2.247,-0.029 -2.466,-0.056 -0.55,-0.069 0.982,-0.007 1.82,0.01 1.863,0.037 a 8.151,8.151 0 0 1 -1.313,0.032 z m 1.791,0.03 a 0.552,0.552 0 0 1 -0.236,0 c -0.065,-0.017 -0.012,-0.031 0.118,-0.031 0.13,0 0.183,0.014 0.118,0.031 z m 0.213,-0.49 c -0.015,0.015 -1.074,0.036 -2.352,0.048 l -2.324,0.02 -0.017,-3.719 -0.018,-3.72 2.14,0.007 c 1.176,0 2.215,0.031 2.308,0.061 a 35.309,35.309 0 0 1 -3.655,0.1 c -0.538,0 -0.557,0.007 -0.592,0.17 a 0.246,0.246 0 0 0 0.033,0.218 c 0.046,0.032 0.041,0.05 -0.014,0.05 a 37.307,37.307 0 0 0 -0.039,4.973 l 0.044,1.368 0.174,0.095 0.175,0.1 -0.168,0.017 c -0.093,0.009 0.821,0.033 2.032,0.053 1.951,0.026 2.377,0.057 2.273,0.159 z m -1,-1.189 c 0.075,0 0.119,-0.042 0.136,-0.135 h -0.148 v -0.164 h 0.36 v 0.455 h -0.2 v -0.078 a 0.241,0.241 0 0 1 -0.21,0.1 c -0.2,0 -0.335,-0.161 -0.335,-0.411 a 0.371,0.371 0 0 1 0.394,-0.409 0.4,0.4 0 0 1 0.247,0.076 0.256,0.256 0 0 1 0.1,0.206 h -0.241 a 0.107,0.107 0 0 0 -0.111,-0.1 c -0.093,0 -0.148,0.086 -0.148,0.229 0,0.143 0.063,0.231 0.158,0.231 z m -0.445,-0.04 v 0.2 H 14.645 V 19.35 h 0.231 v 0.585 z m -0.9,-0.194 a 0.654,0.654 0 1 1 -0.654,-0.654 0.654,0.654 0 0 1 0.656,0.654 z m 2.348,-6.05 c -0.037,-0.023 -2.22,-0.041 -4.85,-0.04 -2.971,0 -4.782,-0.024 -4.782,-0.063 0,-0.039 1.821,-0.064 4.809,-0.064 4.285,0 4.814,0.011 4.85,0.1 0.025,0.065 0.013,0.091 -0.025,0.067 z m 0.119,6.451 c -0.013,0.343 -0.023,0.063 -0.023,-0.623 0,-0.686 0.01,-0.966 0.023,-0.623 0.013,0.343 0.015,0.908 0.002,1.246 z m -3.72,-8.067 H 16.1 l 0.021,-0.387 0.02,-0.387 h -1.525 c -1.235,0 -1.528,0.017 -1.557,0.093 a 1.326,1.326 0 0 0 -0.015,0.387 z m 0.916,-7.602 -0.3,0.158 h 0.263 c 0.325,0 0.469,-0.081 0.389,-0.217 -0.047,-0.085 -0.099,-0.076 -0.352,0.059 z m 0.04,-0.515 a 0.288,0.288 0 0 0 -0.168,0.08 0.478,0.478 0 0 0 -0.081,0.282 v 0.2 L 13.941,4.358 C 14.12,4.189 14.167,3.954 14.021,3.954 Z M 13.551,3.846 C 13.658,3.7 13.736,3.67 14.034,3.661 c 0.337,-0.01 0.357,0 0.392,0.176 0.035,0.176 0.066,0.185 0.257,0.172 C 14.874,3.996 14.891,3.976 14.836,3.888 14.714,3.694 14.418,3.596 13.816,3.552 13.29,3.514 13.205,3.489 13.094,3.344 L 12.967,3.179 V 3.47 a 1.118,1.118 0 0 0 0.069,0.421 c 0.098,0.187 0.364,0.164 0.515,-0.045 z"/>

</svg>