<svg xmlns="http://www.w3.org/2000/svg" viewBox="0 0 24 24"><path fill="#44739e" d="M16.824 10.161v-.06h-.054l-.709.039v.119l.013-.013-.012.014.631-.032.013-.014-.013.014a.925.925 0 0 1-.893.871.854.854 0 0 1-.881-.83v-.012a.923.923 0 0 1 .842-.936h.06v-.007l.012.01v-.115l-.012.014.012-.013h-.061a1.05 1.05 0 0 0-.947 1.06.97.97 0 0 0 .991.947 1.045 1.045 0 0 0 1.017-1.052Zm-1.57-.289a.144.144 0 0 0 .147.142h.007a.16.16 0 0 0 .149-.162.145.145 0 0 0-.145-.144h-.013a.16.16 0 0 0-.147.163m.462-.186.022 1.063.358-.013v-.118l-.013.013.013-.013-.238.009-.021-.947-.13.009Zm.239-4.328c.209.2.244.261.209.421-.03.18-.03.183.063.056.169-.234.179-.344.047-.428s-.176-.282-.06-.282c.067 0 .1.106.07.236-.007.038.009.046.037.018s.091-.016.141.025a.5.5 0 0 0 .336.037c.316-.052.238.021-.093.085l-.254.046.316.01c.344.008.42-.094.209-.272-.087-.07-.119-.072-.141-.007s-.061.067-.175 0a.4.4 0 0 0-.168-.063c-.014.011-.042 0-.063-.021s.02-.039.092-.039a.6.6 0 0 0 .291-.112c.153-.106.155-.116.037-.2a.455.455 0 0 0-.638.075c-.049.092-.105.163-.129.161s-.118 0-.213 0c-.153.018-.15.027.094.25Zm.673-.432c.21 0 .255.017.181.066-.135.087-.562.087-.507 0a.55.55 0 0 1 .326-.067Zm-7.484 1.92c-.12-.042-.125-.038-.034.053a1.3 1.3 0 0 0 .799.252h.243l-.2-.087a2.3 2.3 0 0 0-.439-.127 2.5 2.5 0 0 1-.37-.089Zm7.987-1.648c-.011-.135-.082-.179-.139-.084-.017.028.01.088.059.134.072.072.088.057.08-.052Zm-7.095 9.661a1.4 1.4 0 0 1-.305-.042c-.084-.022-.152-.022-.152 0 0 .075.371.223.49.2.171-.04.15-.153-.033-.154m3.06-9.665c-.079.056-.06.063.081.032a1.3 1.3 0 0 1 .49.042c.258.069.323.067.405-.016s.038-.105-.388-.114a1.7 1.7 0 0 0-.588.056m.607-.21.236-.018-.27-.043a1.3 1.3 0 0 0-.452 0c-.115.03-.191.019-.21-.03s-.043-.011-.064.069c-.026.1-.01.134.046.113a3.5 3.5 0 0 1 .715-.092Zm-1.033-.158c.019.052 0 .093-.038.093s-.057.042-.038.091a.18.18 0 0 1-.07.177c-.056.047-.086.113-.066.145s0 .06-.046.06-.067.017-.048.036c.074.074.267-.058.363-.242.126-.242.126-.446 0-.446a.06.06 0 0 0-.064.059.1.1 0 0 0 .007.031ZM10.325 6.16a.4.4 0 0 0-.211.117c-.052.061-.075.076-.049.034s-.024-.074-.179-.072c-.125 0-.216.026-.2.049s-.019.063-.074.084a.15.15 0 0 0-.104.116c0 .042.043.057.104.035.255-.106.323-.106.169-.015-.22.137-.384.135-.459 0-.056-.1-.065-.1-.106 0-.057.147.189.268.455.225.234-.037.855-.585.655-.571Zm-.074.432-.164.179.185-.119c.106-.065.187-.145.187-.179 0-.091-.029-.074-.208.119m1.823-1.563q.095-.055.047.023a.19.19 0 0 1-.144.079c-.122 0-.057.179.084.232s.335-.156.305-.307a.6.6 0 0 1 .186-.331c.114-.121.2-.233.179-.25s-.05 0-.075.043-.066.063-.091.05-.169.1-.316.246-.227.244-.175.214Zm5.184.159c.022.143.088.176.174.09.06-.061.118-.044.247.074s.119.087-.044-.116a.85.85 0 0 0-.355-.287c-.1-.015-.126 0-.088.063a.5.5 0 0 1 .066.185Zm-4.703 2.369c.047-.091.105-.21.137-.266s.084-.094.125-.084c.124.028.082-.187-.044-.227a2 2 0 0 1-.3-.133c-.211-.1-.326-.123-.326-.037 0 .063.172.136.505.211l.2.045-.2.056a.4.4 0 0 1-.326-.027c-.125-.078-.131-.067-.093.206a.7.7 0 0 0 .106.325.6.6 0 0 1 .133.223q.072.184.172.144c.084-.031.079-.058-.04-.154s-.134-.137-.057-.282m.7.414a.12.12 0 0 1-.142.035c-.055-.021-.08-.008-.057.03a.23.23 0 0 0 .177.066c.084 0 .117-.028.087-.078s0-.067.089-.042a.34.34 0 0 0 .23-.021q.096-.061-.124-.061a.38.38 0 0 0-.26.071m-.246-.202c-.105 0-.113-.021-.036-.123s.075-.1 0-.035c-.113.106-.228.113-.169.018s.029-.092-.105-.008c-.079.048-.06.077.1.135a.5.5 0 0 0 .268.042c.041-.019.018-.035-.053-.038Zm2.689.226c.075.06.135.129.135.155 0 .052.339.029.54-.036.106-.034.075-.053-.134-.093q-.237-.043-.473-.093c-.191-.041-.194-.037-.068.067m.814-2.26c-.022.038.024.069.106.069s.124-.031.105-.069a.117.117 0 0 0-.211 0m-3.164 6.856c-.025.063-.014.09.025.067s.067 0 .067.059a.2.2 0 0 0 .074.148c.05.032.059 0 .026-.114-.068-.226-.143-.289-.192-.16m2.087-8.473c-.172 0-.243.017-.2.06s.143.042.268 0c.2-.054.2-.055-.067-.06m.106.599c.041 0 .058-.041.038-.091a.18.18 0 0 1 .04-.17c.082-.08.068-.086-.069-.031-.1.046-.113.292-.011.292ZM14.31 6.463a2.2 2.2 0 0 0 .555.574c.063.024.054.068-.039.171-.12.137-.12.14.017.105s.182-.19.082-.348c-.032-.05-.084-.088-.115-.084s-.138-.152-.231-.348c-.138-.29-.211-.361-.36-.379l-.179-.022.14.14a.5.5 0 0 1 .14.19Zm2.228-2.315c0 .056-.03.1-.067.1s-.068-.045-.068-.1.03-.1.068-.1c.037 0 .067.046.067.1m.345 2.166a.17.17 0 0 0-.145.024c-.078.051-.068.064.042.064a.43.43 0 0 1 .267.136c.114.127.13.13.246.025a.37.37 0 0 0 .124-.184c0-.037-.038-.021-.084.043-.074.094-.105.1-.211.015s-.119-.095.051-.138c.1-.025.177-.071.177-.1 0-.077 0-.078-.227.041a.43.43 0 0 1-.24.072Zm-3.663.623a.7.7 0 0 0 .344.026c.341-.046.678.129.678.352a.29.29 0 0 1-.13.242c-.105.051-.148.037-.223-.076s-.16-.14-.4-.136c-.285 0-.315-.011-.42-.211l-.106-.216.014.224a.55.55 0 0 0 .118.315 1.5 1.5 0 0 0 1.176.249c.147-.042.257-.04.3 0q.064.06.105-.075c.027-.09.008-.14-.028-.14s-.048-.031-.024-.066a1.4 1.4 0 0 0-.344-.429c-.358-.346-.485-.519-.295-.4.116.074.253.087.253.024s-.232-.134-.4-.137c-.049 0-.072.028-.051.063.049.076-.372.343-.543.344-.1 0-.11.015-.038.06Zm-.431-.351.316.01c.176 0 .315-.021.315-.058s-.007-.063-.015-.057a4 4 0 0 1-.316.056ZM8.747 5.287c.023-.191.058-.224.276-.263.273-.049.536-.163.351-.153a2 2 0 0 0-.237.035l-.285.061c-.127.028-.15.073-.141.285.013.246.014.247.036.034Zm6.206 1.14c-.028-.046-.008-.079.048-.079.114 0 .453-.3.453-.399 0-.122-.106-.077-.3.129-.1.105-.218.185-.248.165s-.058.011-.058.067a.2.2 0 0 0 .078.149c.063.021.074.021.032-.032Zm-10.092.29c.074.081.579-.239.621-.392.042-.173-.095-.474-.232-.499a.24.24 0 0 0-.189.063.77.77 0 0 0-.084.399c0 .193-.036.33-.085.348s-.063.052-.041.08Zm-.02-.134-.011-.2a.7.7 0 0 1 .042-.287c.071-.114.011-.105-.09.016-.06.073-.063.15-.013.287Zm-.733 5.6q.29-.103.574-.229l.134-.062h-.134a1.4 1.4 0 0 0-.354.08 1 1 0 0 0-.336.211c-.08.084-.086.1-.02.068a.7.7 0 0 1 .137-.068Zm6.541-7.327a.5.5 0 0 0 .21-.067q.17-.109-.199-.008c-.09.024-.171.084-.179.13q-.01.07.016.015a.17.17 0 0 1 .15-.07M3.16 17.447a1.4 1.4 0 0 0 .1.692c.09.118.1.062.106-.561 0-.572-.015-.693-.1-.693s-.106.111-.106.562m18.834.474c-.011-.962-.026-1.654-.035-1.538a.57.57 0 0 1-.151.33.44.44 0 0 0-.135.281.5.5 0 0 1-.135.294c-.104.105-.112.135-.035.135s.106.173.106 1.146a5.7 5.7 0 0 0 .08 1.322c.154.337.055.344-2.378.169q-1.485-.105-2.972-.2-1.537-.1-3.073-.21c-.939-.066-4.64-.308-7.26-.473-.613-.041-1.489-.105-1.946-.137-1.268-.1-1.683-.088-1.731.048a.21.21 0 0 0 .042.21c.089.092.641.137 8.493.7 1.1.078 2.374.169 2.841.2 2.086.157 3.627.27 4.597.337.576.04 1.399.104 1.824.136s.859.064.958.065c.255 0 .57-.289.767-.707.159-.357.159-.364.141-2.104Zm-.137.399c-.014.158-.025.021-.025-.316s.012-.462.026-.283a4 4 0 0 1 0 .61ZM3.162 6.578c-.038-.023-.07-.031-.073-.021l-.027.132a3 3 0 0 1-.066.253c-.054.168 0 .185.137.047.112-.111.128-.347.029-.411m.106 12.262c1.229.081 3.897.254 5.26.342 2.687.172 3.213.21 4.629.299l2.535.167c3.123.2 4.754.316 5.488.374.268.022.42.01.42-.034s-.046-.07-.105-.07-.099-.023-.099-.05a.6.6 0 0 0-.037-.187c-.038-.118-.105-.14-.5-.152q-1.848-.079-3.697-.22-1.064-.078-2.129-.134c-.725-.038-1.834-.1-2.466-.137l-2.23-.134c-4.597-.277-6.063-.345-6.907-.316a6 6 0 0 1-.961-.011c0-.114.129-.22.2-.173q.086.053.035-.029c-.034-.055 0-.095.086-.119.144-.038.175-.186.233-1.112l.024-.381-.336-.04a1.1 1.1 0 0 1-.408-.104c-.087-.088.157-.089 2.153 0 1.378.058 4.724.175 11.592.405 1.171.04 2.856.079 3.749.086 1.578.015 1.621.011 1.621-.12s-.059-.138-.743-.179q-1.874-.066-3.749-.111c-2.979-.073-4.354-.115-10.506-.31-4.115-.126-4.331-.126-4.384.011a14 14 0 0 0-.032 1.346c0 1.211 0 1.252.123 1.144s.23-.105 1.132-.046ZM5.613 5.921c.017.066.022.039.009-.057a.36.36 0 0 1 .057-.253c.084-.086-.011-.1-.119-.028-.083.067-.115.219-.031.219.038 0 .079.053.094.118Zm2.991 10.352 7.162.2a55 55 0 0 0 5.911.076c.129-.086.129-.037.077-7.365l-.043-5.91-.405-.01a10 10 0 0 0-1.116.077c-.389.046-1.058.12-1.484.164s-1.294.141-1.926.211l-2.264.263c-.614.069-1.769.211-2.567.3l-2.336.274c-.483.054-1.075.13-1.317.167s-.879.113-1.418.17q-2.235.185-4.443.591c-.1.086-.124 10.253-.019 10.45.088.164.407.182 6.184.342M2.616 6.825a.8.8 0 0 0 .141-.271c0-.139.299-.229.722-.218.386.011.427 0 .427-.124q0-.132.094-.1c.062.022.08.091.047.218-.04.147-.1.19-.316.219-.2.029-.237.053-.147.093a.19.19 0 0 1 .117.149.18.18 0 0 1-.117.14.4.4 0 0 0-.173.133.33.33 0 0 1-.253.089c-.1 0-.2.013-.2.029a1 1 0 0 1-.044.143c-.041.099-.032.099.137 0 .1-.065.2-.105.218-.083.052.053-.369.509-.512.557-.1.031-.123.1-.114.334s.03.284.116.239a.5.5 0 0 1 .236-.045c.095.009.131-.029.126-.137 0-.082.021-.133.052-.114.082.05.067.258-.025.35a.42.42 0 0 1-.257.081.43.43 0 0 0-.253.078c-.059.059-.079.047-.082-.05 0-.071-.021-.439-.042-.819-.036-.631-.027-.711.1-.892M2.5 6.139c0-.129.015-.182.032-.118a.6.6 0 0 1 0 .242c-.017.07-.032.01-.032-.116Zm2.993 2.842a.3.3 0 0 1-.1-.185c0-.082.019-.085.1-.019.099.082.216.52.154.581a.8.8 0 0 1-.326-.137.88.88 0 0 0-.675-.127.7.7 0 0 1-.599-.132 1.27 1.27 0 0 1-.512-.646c-.066-.232.01-.183.139.084a.94.94 0 0 0 .599.512 1.8 1.8 0 0 0 .421-.032.66.66 0 0 1 .556.105.8.8 0 0 1 .299.258c.017.061.032.042.036-.042a.3.3 0 0 0-.093-.232Zm.075-.54a.4.4 0 0 1 .169.136c.064.073.091.134.06.134a.44.44 0 0 1-.179-.133c-.067-.079-.093-.14-.059-.14ZM3.77 10.982a11 11 0 0 0-.548-.053c-.133-.011.085-.037.474-.059l.841-.05a.7.7 0 0 1 .267.046c.186.073-.63.163-1.044.116Zm.757.44a4.2 4.2 0 0 1-1.262-.009c-.253-.038-.106-.05.515-.044a2.2 2.2 0 0 1 .737.048Zm.053-1.299c-.129-.037-.053-.052.261-.051.389 0 .41.008.174.054a1.2 1.2 0 0 1-.439 0Zm.291-.341c.049.081.036.082-1.262.106a3.3 3.3 0 0 1-.833-.044c-.019-.03.178-.06.441-.065s.508-.016.546-.025a1.4 1.4 0 0 1 .185-.028c.1-.01.079-.047-.084-.194a3 3 0 0 1-.3-.316c-.094-.13-.094-.131.036-.025a2.5 2.5 0 0 0 .365.227.9.9 0 0 0 .543.081.8.8 0 0 1 .562.1c.235.132.361.308.168.235-.294-.109-.4-.127-.361-.057Zm-2.036.42a.38.38 0 0 0-.175.25c-.021.141-.029.128-.037-.063-.009-.21.008-.238.176-.248s.178 0 .037.066Zm.047-1.299c0-.078.527-.077.569 0 .021.034-.006.078-.063.1-.132.056-.506-.019-.506-.1m1.425-2.007a.54.54 0 0 0-.021.291c.022.041 0 .029-.063-.026-.089-.085-.093-.148-.028-.411s.087-.293.126-.191a.7.7 0 0 1-.015.348Zm-.167.631c-.094.023-.169.082-.169.132a.33.33 0 0 1-.119.184c-.361.309-.6.1-.481-.436.074-.338.2-.452.145-.135l-.032.189.093-.17a.3.3 0 0 1 .116-.112h.015a.254.254 0 0 1 .3.058q.06.059-.118 0a.7.7 0 0 0-.182-.054h-.011a2.2 2.2 0 0 0-.035.583.6.6 0 0 0 .146-.207c.072-.14.154-.199.267-.199.228 0 .276.11.072.167ZM2.739 8.694c.217-.134.264-.142.32-.05.023.037-.017.066-.088.066a.3.3 0 0 0-.21.09c-.057.069-.03.13.106.262a1.3 1.3 0 0 0 .285.211c.071.026.062.037-.035.042a.6.6 0 0 1-.315-.16l-.179-.166.037.4c.025.278.013.4-.04.4s-.077-.169-.077-.491c.011-.464.021-.5.2-.608m.011 6.984c-.061.148-.1.179-.141.114a24 24 0 0 1-.045-2.42c.007-1.281.022-2.168.036-1.973.016.225.06.372.119.395a.106.106 0 0 1 .057.132c-.024.063.009.1.099.1s.147.035.158.079c.024.077.313-.07.513-.267.067-.063.189-.075.408-.043a2 2 0 0 1 .336.065 1.1 1.1 0 0 0 .316-.068.7.7 0 0 1 .341-.045c.028.023.031.009.007-.032s.07-.132.211-.211.249-.178.251-.235a.4.4 0 0 1 .091-.211.72.72 0 0 0 .065-.449c-.025-.363.049-.463.116-.153a3 3 0 0 0 .1.368c.056.148.043.242-.073.478-.189.393-.18.477.078.693a1.1 1.1 0 0 1 .294.4l.074.21.046-.339a1.2 1.2 0 0 0-.025-.526 1.5 1.5 0 0 1-.071-.42c0-.211.013-.232.2-.232.228 0 .274.129.065.183-.119.032-.132.072-.095.31a1.1 1.1 0 0 0 .17.44.6.6 0 0 1 .128.309c0 .105-.038.066-.129-.128l-.129-.27v.346a.82.82 0 0 1-.145.525c-.184.234-.274.228-.182-.012a.7.7 0 0 0 .028-.364c-.072-.292-.227-.281-.539.04-.284.293-.586.456-.586.315a.083.083 0 0 1 .092-.071.9.9 0 0 0 .327-.22 2.7 2.7 0 0 1 .364-.295c.105-.061.07-.074-.191-.063a.7.7 0 0 1-.355-.043c-.064-.106-.31-.064-.766.118a1.06 1.06 0 0 1-.748.116.86.86 0 0 0-.611.07c-.375.158-.35.13-.299.333a.49.49 0 0 0 .536.289c.074-.015.258-.056.407-.09a.7.7 0 0 1 .421.01c.265.12.163.172-.271.139-.455-.034-.429.057.04.141.143.026.242.063.221.084a1.6 1.6 0 0 1-.5-.077 2.5 2.5 0 0 0-.593-.092c-.074.012-.12-.014-.099-.063s-.013-.085-.05-.085c-.1 0-.081.211.036.339a3.2 3.2 0 0 0 .799.337c.379.12.742.247.807.278s.122.032.126-.026q.006-.085.036-.011c.059.146 1.329-.2 1.76-.481a.94.94 0 0 1 .673-.079c.027.027-.074.048-.224.048a.56.56 0 0 0-.347.09 1 1 0 0 1-.348.179c-.147.05-.269.112-.269.139s-.1.068-.211.091-.193.059-.178.078a3.7 3.7 0 0 0 .757-.16A2.4 2.4 0 0 1 7 13.664c.02.031-.04.058-.132.058a.28.28 0 0 0-.216.078c-.07.113.699.024 1.66-.191a3.55 3.55 0 0 1 2.027.014c.25.084.261.094.067.06a9 9 0 0 0-1.02-.039 3.3 3.3 0 0 0-1.216.15 4 4 0 0 1-1.389.168 5 5 0 0 0-1.095.093 3.84 3.84 0 0 1-2.126-.226c-.14-.055-.253-.072-.253-.037s-.147.087-.323.116l-.32.053.269.041.271.045-.288.01-.286.01v.651c0 .465.021.63.077.599a3.3 3.3 0 0 1 .673-.078 4 4 0 0 1 1.223.111l.779.176c.084.018.152.068.152.106 0 .073-.547.034-.789-.058-.076-.03-.1-.018-.061.039.066.105-.239.035-.582-.137-.49-.246-1.2-.127-1.344.224Zm4.052-5.167a.5.5 0 0 0-.253-.186c-.063 0-.023-.029.089-.055.262-.061.348-.028.399.152a1.7 1.7 0 0 1 .04.367.64.64 0 0 0 .21.439c.165.174.191.187.129.061q-.083-.165 0-.116c.056.032.074.015.074-.024a.065.065 0 0 1 .058-.072c.031 0 .042.074.026.168-.04.209.128.29.351.17s.454-.03.429.191c-.016.137-.053.174-.156.158a.42.42 0 0 1-.225-.135c-.084-.1-.089-.1-.052.021s.008.136-.289.136c-.211 0-.316-.027-.3-.076.058-.152-.2-.159-.46-.014-.34.193-.467.106-.343-.237a1.3 1.3 0 0 0 .082-.336c0-.063.028-.115.063-.115.058 0 .018.21-.095.483a.134.134 0 0 0 .037.163c.048.03.065.023.042-.017s.031-.132.123-.21c.171-.148.223-.441.094-.52a.9.9 0 0 0-.308-.045c-.228 0-.238-.007-.118-.094a.316.316 0 0 1 .428-.014c.132.142.087-.05-.064-.242Zm1.29-2.779a5 5 0 0 0 .381-.382.34.34 0 0 1 .415-.13.6.6 0 0 1-.119.183.8.8 0 0 0-.14.237c0 .031.2.048.44.036.488-.025.599.064.169.132a.42.42 0 0 0-.379.247c-.13.253-.08.316.084.106.179-.226.289-.278.4-.19.071.06.116.044.192-.069a.32.32 0 0 0 .07-.232.52.52 0 0 0-.526-.105.4.4 0 0 1-.2.056c-.111 0-.105-.021.051-.155s.189-.147.386-.05a.56.56 0 0 0 .355.059 4 4 0 0 1 .52-.076c.352-.031.363-.027.2.067a.75.75 0 0 1-.44.065c-.148-.018-.238-.008-.2.021a.57.57 0 0 1 .089.316.53.53 0 0 1-.2.492.7.7 0 0 1-.323.221c-.084-.017-.086-.026-.01-.055.153-.06.479-.372.479-.458 0-.043-.134.05-.299.21a6 6 0 0 1-.625.512 1.34 1.34 0 0 1-.937.264l-.607.031-.105.232c-.121.259-.181.183-.14-.174.021-.181.084-.267.288-.4a1.08 1.08 0 0 0 .5-.788.6.6 0 0 1 .106-.285c.056-.052.054-.024 0 .095-.087.147-.08.147.133-.047Zm2.63.337c.04.025.069-.043.069-.164a.53.53 0 0 1 .134-.342.5.5 0 0 0 .135-.308.8.8 0 0 1 .071-.3c.057-.105.1-.117.2-.06.081.042.132.045.132 0s-.065-.086-.145-.112-.116-.061-.053-.1.049-.063-.034-.094a.26.26 0 0 0-.225.04q-.107.08.019-.067c.122-.143.136-.145.252-.039.07.062.1.129.09.148s.091.1.249.177a.8.8 0 0 1 .31.217c.027.089-.228.35-.41.42-.115.044-.112.059.029.239l.15.191-.151-.081c-.139-.074-.148-.07-.085.048.053.1.039.18-.058.338l-.126.21.18-.037a1.5 1.5 0 0 1 .316-.031c.105 0 .113-.008.034-.056-.169-.105-.026-.149.243-.075l.255.071-.249-.206c-.21-.173-.242-.234-.21-.387s.034-.172-.07-.086c-.058.051-.13.072-.156.046-.061-.06.122-.18.242-.158.05.011.129.137.176.263a1.7 1.7 0 0 0 .226.432c.119.158.129.21.065.347l-.076.168-.154-.189c-.084-.105-.155-.147-.156-.105 0 .1.235.357.326.357a.27.27 0 0 0 .143-.104.3.3 0 0 1 .2-.106.32.32 0 0 0 .194-.078c.044-.044.1-.063.118-.042.063.063-.171.256-.308.256a.34.34 0 0 0-.229.148c-.093.131-.121.138-.268.06a.43.43 0 0 1-.195-.2c-.027-.104-.09-.104-.718-.038-.672.073-.691.081-.938.34-.137.144-.182.21-.1.136s.153-.1.153-.073.063-.021.139-.106l.142-.161-.084.171c-.144.3-.428.611-.554.611-.093 0-.113.031-.081.131.054.169.039.169-.337-.015a.76.76 0 0 0-.699-.06 1.66 1.66 0 0 1-.899.044c-.345-.046-.394-.034-.593.133-.259.217-.28.163-.052-.137a.493.493 0 0 1 .667-.2l.033.004c.479.169.613.116.834-.329.116-.23.167-.2.074.043-.105.265-.024.21.129-.088a.6.6 0 0 1 .375-.344.49.49 0 0 0 .336-.309.8.8 0 0 1 .119-.231 1.4 1.4 0 0 1 .021.356c0 .35-.006.353-.242.399-.192.035-.172.042.114.033.249-.006.37-.042.421-.126s.053-.105-.019-.08-.105-.045-.134-.22c-.05-.31-.046-.737.007-.527a3 3 0 0 0 .1.3.7.7 0 0 1 .061.27c0 .06.006.069.027.021a.105.105 0 0 1 .135-.045q.1.037.056-.07a.23.23 0 0 1 .067-.21c.114-.114.121-.2.047-.537-.045-.2-.048-.2-.127-.056a.36.36 0 0 0-.018.316c.049.126.045.173-.017.173a.21.21 0 0 1-.217-.2.23.23 0 0 1 .067-.157c.04-.035.021-.043-.044-.022a.3.3 0 0 1-.234-.059c-.114-.086-.1-.094.15-.1.272 0 .388-.074.607-.373.091-.127.1-.122.031.054-.089.245-.089.635 0 .689Zm1.183-.034c.023.039 0 .052-.056.031a.19.19 0 0 0-.19.089c-.117.163-.306.285-.227.147.171-.3.382-.415.474-.266Zm1.42 2.42c-.044-.044.161-.326.239-.326a.06.06 0 0 1 .063.056v.012c0 .083-.256.316-.299.273Zm.476 1.228c.09 0 .164.029.164.067s-.093.067-.211.067-.189-.028-.165-.067a.28.28 0 0 1 .213-.063Zm-.267.389a.6.6 0 0 0 .295.042 4.2 4.2 0 0 1 1.293-.042.8.8 0 0 0 .5-.022 4.7 4.7 0 0 1 1.245-.26c.241-.019.378-.017.3 0-.259.072-.28.166-.033.158a2.5 2.5 0 0 1 .604.1 3 3 0 0 0 .5.105c.068 0 .105.031.082.067a.9.9 0 0 1-.688 0c-.052-.052-.163-.042-.388.034a2 2 0 0 1-.433.105.4.4 0 0 0-.21.085c-.082.071-.083.066 0-.034a.3.3 0 0 1 .219-.119c.105 0 .115-.023.061-.126-.037-.069-.046-.149-.019-.176.081-.084-.533.035-.999.195a2 2 0 0 1-.608.126 4.4 4.4 0 0 0-1.281.048.9.9 0 0 1-.337.069c-.16 0-.21-.03-.21-.137 0-.074-.027-.134-.061-.134s-.043.069-.022.153c.037.141.03.145-.086.052-.074-.059-.106-.067-.076-.017.068.112-.127.078-.411-.072a2.16 2.16 0 0 0-.971-.116 12 12 0 0 1-1.357-.079c-.5-.067-.6-.1-.6-.2 0-.068-.031-.123-.067-.123s-.068.057-.068.126c0 .169-.175.316-.224.2-.019-.047-.037-.018-.04.067 0 .141.023.153.349.15a14 14 0 0 1 2.682.063 3 3 0 0 1-.764.082c-.579.015-.639.027-.495.106a1.5 1.5 0 0 0 .742.035c.539-.047.573-.043.513.07s-.087.104-.191.039-.21-.057-.499.011a1.1 1.1 0 0 1-.445.042 4 4 0 0 0-.63-.141 2 2 0 0 1-.682-.211c-.112-.1-.122-.1-.085-.006.053.136-.185.168-.937.119-.377-.025-.55-.011-.6.05s.01.084.294.086c.5 0 .3.105-.316.166l-.499.046-.368-.378c-.291-.3-.341-.376-.235-.376.21 0 .368.112.52.369.111.189.183.239.346.239.112 0 .199-.023.193-.05a.4.4 0 0 1 .042-.172c.074-.169 0-.222-.135-.09s-.392.158-.352.032.399-.171.793-.116c.441.074.542.031.542-.214a.9.9 0 0 1 .072-.334c.066-.121.06-.126-.057-.053a.35.35 0 0 1-.348 0c-.2-.069-.211-.063-.173.041.079.22.088.35.014.4q-.066.036-.032-.026c.024-.04-.019-.086-.092-.105-.119-.031-.128-.06-.065-.226.1-.253.174-.292.443-.217a.5.5 0 0 0 .361-.009 1.2 1.2 0 0 1 .42-.071.49.49 0 0 1 .463.2c.188.21.563.295 1.241.272a11.5 11.5 0 0 1 2.04.127Zm3.026-4.996a2 2 0 0 1 .485-.022c.456 0 .49 0 .316-.077s-.179-.074.146-.084a1.4 1.4 0 0 0 .575-.129 1.1 1.1 0 0 1 .474-.126h.236l-.253.063c-.285.07-.745.4-.553.4a1.3 1.3 0 0 0 .383-.139.9.9 0 0 1 .3-.116c.013.013-.067.123-.179.242-.144.153-.173.216-.1.216.058 0 .105-.029.105-.067s.061-.006.135.067a.44.44 0 0 0 .21.135c.043 0 .063.017.042.038a1.4 1.4 0 0 1-.458-.07 2.3 2.3 0 0 0-.6-.088c-.142.017-.085.056.294.199.262.1.409.185.328.187a1.5 1.5 0 0 1-.439-.121 3 3 0 0 0-1.373-.137c-.086.141-.153.05-.1-.136a.46.46 0 0 0 .029-.222Zm2.332 6.058a.16.16 0 0 1 .068.116c0 .041-.055.024-.123-.038a.43.43 0 0 0-.199-.111.17.17 0 0 1-.122-.078q-.05-.08.1-.04c.08.021.162.01.18-.019.065-.1.3-.042.3.084a.117.117 0 0 0 .113.121h.017a.23.23 0 0 1 .177.073q.041.071-.148.051a.31.31 0 0 1-.26-.174c-.037-.085-.09-.152-.118-.152-.074 0-.062.123.017.172Zm-.337-.415c-.169.105-.191.105-.158.013a.16.16 0 0 1 .133-.104.06.06 0 0 0 .066-.054.05.05 0 0 0-.007-.033c-.021-.053.021-.091.1-.1s.12.023.105.073a.7.7 0 0 1-.234.205Zm-.449.119c-.076-.122-.055-.21.05-.21.026 0 .063.122.084.273a.9.9 0 0 0 .158.407c.105.115.105.13.01.13a.3.3 0 0 1-.2-.135c-.052-.074-.117-.112-.147-.084s-.011-.018.041-.106a.22.22 0 0 0 .009-.273Zm-.431-1.965-.014-1.505.479-.035.012 1.145.736-.032v.39Zm.67.911a1.35 1.35 0 0 1-.642.01c-.025-.024.116-.044.316-.044s.345.018.327.037Zm-3.707-1.499a1.24 1.24 0 0 1 1.117-1.252 1.14 1.14 0 0 1 1.256 1.014 1 1 0 0 1 .006.114 1.23 1.23 0 0 1-1.218 1.244 1.143 1.143 0 0 1-1.168-1.117Zm2.016 5.655a.9.9 0 0 0 .351-.1c.2-.117.2-.117.2-.042 0 .034-.054.084-.119.112-.194.082-.69.149-.652.088a.33.33 0 0 1 .218-.056Zm-.2-.723a.4.4 0 0 1 .547-.084c.074.047.029.065-.173.066a.67.67 0 0 0-.362.084c-.074.073-.075.061-.01-.063Zm.422.525c-.379.172-.443.171-.158 0a2 2 0 0 1 .473-.2c.137-.031.257-.061.267-.065s.016.024.016.061-.068.069-.152.07a1.5 1.5 0 0 0-.445.128Zm-.249-1.12a1.8 1.8 0 0 0-1.111.014c-.361.066-.2-.038.237-.152a1.6 1.6 0 0 1 .58-.057c.129.028.2.016.2-.035s.042-.035.106.029a.5.5 0 0 0 .3.105c.105 0 .2.029.2.063 0 .125-.256.141-.513.032Zm-2.867.791a5 5 0 0 0 1.08-.064 1.8 1.8 0 0 1 .542-.072c.271 0 .332.017.229.058a2 2 0 0 1-.474.076 1.3 1.3 0 0 0-.464.1 3.1 3.1 0 0 1-1.072.046c-1.207-.045-1.077-.16.158-.144Zm-1.121.29a3.2 3.2 0 0 0-.873.071 2 2 0 0 1-.632.062c-.063-.029.106-.092.442-.165a2.26 2.26 0 0 1 1.277.009c.094.042.033.051-.207.023Zm2.209-.678q-.362-.04-.41.038a6.9 6.9 0 0 1-2.735.116l-.4-.043.372.128c.358.121.365.125.136.133a1.9 1.9 0 0 1-.664-.199 2.3 2.3 0 0 0-.548-.204c-.184 0-.408.128-.36.21.021.036-.032.064-.116.064-.153 0-.6-.346-.6-.461 0-.031-.121-.063-.273-.068a.95.95 0 0 0-.737.293c-.082.1-.07.105.106.071.105-.021.157-.021.113 0a.074.074 0 0 0-.051.091l.006.015c.021.034-.129.063-.342.063a1.5 1.5 0 0 0-.499.062 9 9 0 0 1-2.063.076 2.7 2.7 0 0 1 .827-.105 4.7 4.7 0 0 0 1.249-.179 1 1 0 0 1 .466-.087q.074.044.029-.031c-.031-.049-.008-.077.044-.077a.5.5 0 0 0 .225-.106c.124-.1.105-.105-.243-.071-.2.019-.535.063-.739.1a5.7 5.7 0 0 1-1.654-.039c-.554-.055-.546-.105.034-.191a1.8 1.8 0 0 0 .434-.116 4.2 4.2 0 0 1 .899-.1 6 6 0 0 0 1.046-.114c.25-.079.262-.092.094-.1-.115 0-.171-.035-.144-.079.048-.077.527-.027.708.073.14.078-.193.2-.543.2a.5.5 0 0 0-.3.069.47.47 0 0 1-.29.073 1.2 1.2 0 0 0-.385.067c-.089.041.041.046.371.018a4.6 4.6 0 0 1 1.898.07 3.7 3.7 0 0 0 .81.185 9 9 0 0 1 1.419.2 2.2 2.2 0 0 0 .473.059c.21 0 .218-.011.084-.065a3 3 0 0 0-.499-.105c-.331-.044-.34-.05-.187-.132s.235-.06.665.083c.617.2 1.112.272 1.178.166a.46.46 0 0 1 .3-.076 1.2 1.2 0 0 0 .453-.095 4 4 0 0 1 .974-.127c.736-.034.761-.032.474.059a2.3 2.3 0 0 1-.474.1c-.154 0-.158.009-.042.076a1.2 1.2 0 0 0 .494.042c.255-.011.334 0 .255.042-.11.053-.321.042-1.315-.063Zm-4.208.223a.6.6 0 0 1-.231 0c-.063-.016-.011-.031.121-.031s.179.015.109.031Zm-.526.45c-.284-.054-.347-.092-.126-.091a.6.6 0 0 1 .263.068c.073.047.032.052-.137.023m-1.241-.393a1.2 1.2 0 0 1 .372-.1q.176-.002-.133.1c-.388.118-.506.118-.24 0Zm-.134.491a4 4 0 0 1-.642-.051c-.3-.052-.292-.054.136-.054a3.5 3.5 0 0 1 .642.051c.172.044.154.052-.137.053Zm-4.755-1.069a2.5 2.5 0 0 1 .641.105 1.7 1.7 0 0 1-.646.011c-.632-.039-.728-.063-1-.248a2 2 0 0 1-.299-.23 1.6 1.6 0 0 1 .354.15 2.4 2.4 0 0 0 .947.212m-.579-.671a.14.14 0 0 1 .116.055 3 3 0 0 0 .773.093 3.4 3.4 0 0 1 .863.116c.105.073.037.073-.345.052q-.405-.032-.81-.039a.8.8 0 0 1-.495-.139c-.1-.074-.133-.134-.089-.134Zm1.111.564a2.3 2.3 0 0 1-.751-.112c0-.042.249-.048.678-.018.575.04.7.031.851-.065a1.94 1.94 0 0 1 1.066-.3 1 1 0 0 1 .367.027 3.3 3.3 0 0 1-.51.133 3 3 0 0 0-.715.24c-.214.126-.3.134-.989.093Zm2.39-.464.372-.043a3 3 0 0 1 .566-.016c.105.013.236.024.287.024s.092.03.092.068q0 .12-.884.017Zm1.513-.31c0-.037.116-.067.257-.067a.66.66 0 0 1 .489.21l.235.21-.242-.143a1.2 1.2 0 0 0-.491-.14c-.136 0-.247-.028-.247-.07Zm4.036-.548c.094.056.052.071-.2.073a.65.65 0 0 1-.358-.067c-.025-.04.042-.068.161-.068.23 0 .294-.065.209-.21-.042-.069-.178-.1-.448-.095-.372 0-.379 0-.188-.081a1.3 1.3 0 0 1 .422-.088c.175 0 .233.031.286.171a.37.37 0 0 1 .03.232c-.021.042.018.1.084.137Zm.3 1.22c.231-.035.262.017.054.1s-.266.088-.574-.014a5 5 0 0 1-.547-.21c-.195-.091-.189-.093.168-.058q.315.03.631.038c.167 0 .242.026.211.073s0 .077.048.07Zm2.445-.678c.162.036.093.058-.326.1-.394.039-.552.031-.609-.032s-.05-.068 0-.042a.47.47 0 0 0 .271-.019 1.13 1.13 0 0 1 .665 0Zm-.193-.415c.042-.071.126-.056.666.114l.337.105-.411-.032c-.478-.035-.65-.084-.592-.183Zm-.347 1.099c.225-.07.371-.089.371-.047a3.4 3.4 0 0 1-1.032.304c-.175 0-.154-.019.13-.1.183-.047.432-.119.542-.155Zm.178-.316c-.017-.019 0-.035.032-.038s.274-.06.534-.129a1.22 1.22 0 0 1 .93-.006c.03.027-.135.056-.365.063a6 6 0 0 0-.757.081 1 1 0 0 1-.372.038Zm1.005-1.321c-.074-.051-.034-.057.145-.026.147.025.262.013.29-.032s.063-.074.084-.074 0 .046-.047.106a.38.38 0 0 1-.472.031Zm.237-.361a.4.4 0 0 0-.323.059.6.6 0 0 1-.254.104 1.5 1.5 0 0 0-.471.271 1.2 1.2 0 0 1-.536.265c-.147 0-.134-.019.093-.1a2 2 0 0 0 .301-.13 2 2 0 0 0-.499-.012 2.07 2.07 0 0 0-1.136.295l-.2.105.162-.177c.09-.1.181-.166.2-.154.086.051.345-.1.345-.195 0-.064.061-.105.164-.105a1.2 1.2 0 0 0 .354-.071c.162-.071.21-.06.3.056.121.151.291.185.361.072a.075.075 0 0 1 .1-.035h.005a.08.08 0 0 0 .106-.036.5.5 0 0 1 .189-.132c.126-.051.116-.057-.056-.042a1.3 1.3 0 0 0-.326.074.4.4 0 0 1-.294-.026c-.253-.113-.9.026-.947.199s-.252.16-.384-.04c-.061-.092-.14-.167-.174-.167-.079 0-.243.25-.3.473-.044.163-.042.161.127-.035s.171-.191.173-.059a.27.27 0 0 1-.254.282.3.3 0 0 1-.056 0c-.123-.01-.132-.039-.085-.284.094-.509.1-.515.55-.526a.6.6 0 0 1 .199.049 1.5 1.5 0 0 0 .542-.017 4.2 4.2 0 0 1 .965-.018 1.23 1.23 0 0 0 .743-.053.8.8 0 0 1 .337-.089.66.66 0 0 0 .338-.116c.256-.164.255-.164.178-.021-.137.25-.341.379-.521.334ZM11.43 14.59a1.5 1.5 0 0 1 .37.052l.169.055h-.167a2 2 0 0 1-.372-.053l-.2-.052Zm-.373-.256c-.353-.068-.486-.16-.231-.163a.6.6 0 0 1 .336.094c.126.106.118.11-.105.068Zm.467-.585c-.089-.014.077-.031.37-.035.318 0 .509.017.475.052a1.4 1.4 0 0 1-.466.106c-.277.028-.376.021-.31-.025s.063-.067-.067-.089Zm.615.406c-.453 0-.661-.017-.575-.054a2 2 0 0 1 .947 0c.281.05.224.059-.372.062Zm.447-1.324c-.106.394-.158.462-.148.173.006-.181.163-.553.211-.504a2 2 0 0 1-.063.34Zm-.789.206c.14.01.242.042.225.068a.6.6 0 0 1-.3.051c-.166 0-.255-.027-.228-.069s.16-.052.3-.042Zm-.226.254c.269.049.21.166-.094.188-.177.014-.226 0-.16-.044s.079-.081-.017-.176a.37.37 0 0 1-.105-.227c0-.081.027-.063.094.056a.44.44 0 0 0 .285.211Zm-.363.169-.145-.129a.45.45 0 0 1-.145-.186c0-.1.048-.063.171.13Zm-.507-.59a5 5 0 0 0-.931-.019c-.277.024-.483.024-.46 0a2.2 2.2 0 0 1 1.069-.155l.557.09c.141.021.242.063.223.093a1.04 1.04 0 0 1-.457 0Zm-.24.472a1.8 1.8 0 0 1 .555.093c.105.1-.673.068-.87-.032-.161-.077-.133-.082.316-.053Zm.282.574a1.2 1.2 0 0 1 .406.042 4.5 4.5 0 0 1-1.078.186c-.29.021-.377.011-.3-.039a.8.8 0 0 1 .359-.07c.15 0 .24-.029.217-.067s.127-.052.4-.044Zm-.625.428c.78.042.961.148.257.148a1.5 1.5 0 0 1-.811-.131c-.13-.074-.175-.112-.104-.088a5 5 0 0 0 .659.08Zm6.649-.564a1.8 1.8 0 0 0 .774-.053c.226-.119.306-.046.116.106-.141.105-.22.115-.799.059-.824-.077-.885-.148-.093-.1Zm.3-.855c.11.2.117.236.032.165a1.3 1.3 0 0 1-.3-.504c0-.021.105-.038.231-.038a.42.42 0 0 0 .275-.067c.05-.08.169-.091.169-.014 0 .03-.104.105-.236.161s-.237.077-.237.035-.016-.052-.036-.033.03.161.109.305Zm.358.042c-.168.021-.211 0-.211-.08s.058-.105.189-.084a.32.32 0 0 0 .273-.078c.105-.115.193-.14.193-.053 0 .118-.232.274-.446.3Zm-9.32.405c.112-.13.353-.187.821-.2.105 0 .105 0-.019.027-.083.016-.152.057-.152.092s-.105.063-.241.063a1 1 0 0 0-.389.078c-.145.084-.145.084-.024-.053Zm-.615-.254a2.3 2.3 0 0 1 .788-.167c.119-.006.145.011.093.064-.083.094-.957.185-.879.1Zm-.316-.393c.036.137-.083.2-.599.316-.106.023-.187.072-.187.1a.075.075 0 0 1-.081.067c-.044 0-.008-.077.079-.169a.54.54 0 0 1 .316-.17c.086 0 .158-.032.158-.069s-.023-.063-.052-.057a.9.9 0 0 1-.421-.175c0-.019.078 0 .174.032.222.083.385.083.334 0s.076-.34.158-.34a.85.85 0 0 1 .231.271c.184.283.175.344-.026.162-.1-.091-.112-.089-.079.034Zm-.173-.874c.147-.21.229-.224.155-.031-.023.061-.07.11-.105.11s-.06.046-.06.1-.032.106-.068.106c-.09 0-.076-.056.082-.279Zm3.613-2.341c-.063-.106.113-.106.217 0s.11.688.012.63a.22.22 0 0 1-.067-.167.22.22 0 0 0-.073-.169c-.037-.024-.05 0-.031.051s-.074.124-.344.199l-.379.1.144-.154a.42.42 0 0 0 .124-.315c-.021-.164.105-.387.221-.387.031 0 .058.044.058.1a.19.19 0 0 0 .078.145q.08.046.036-.026Zm.432 1.005c1.884-.075 1.887-.075 1.689.013a5.7 5.7 0 0 1-1.114.089c-2.735.042-4.164.042-4.202 0a8 8 0 0 1 1.207-.038q1.213-.01 2.424-.057Zm-.336.4c.599.035.355.047-1.082.051a11 11 0 0 1-1.688-.05 18.5 18.5 0 0 1 2.776.007Zm-6.066 1.941c.038-.022.068-.011.068.031s.116.072.256.072c.211 0 .258.025.266.134a.21.21 0 0 1-.054.173c-.036.021-.057 0-.048-.048s-.065-.1-.217-.112c-.421-.04-.505-.219-.271-.599.143-.235.255-.306.138-.088-.135.251-.208.486-.137.441Zm.47.521a.3.3 0 0 0 .106.087l.158-.179c.147-.166.148-.181.033-.21-.073-.018-.084-.032-.023-.032a1 1 0 0 1 .27.053c.133.042.141.054.038.06a.64.64 0 0 0-.305.158l-.168.151a.24.24 0 0 0 .21-.018 2.5 2.5 0 0 1 .459-.113c.211-.029.158 0-.228.141-.407.145-.506.161-.554.084a.2.2 0 0 0-.1-.1 1 1 0 0 1-.176-.06c-.087-.038-.174 0-.3.121a.35.35 0 0 1-.42.12c-.381-.088-1.257-.481-1.072-.481.021 0 .285.092.594.2s.583.2.61.2a.8.8 0 0 0 .229-.168.42.42 0 0 1 .591-.072l.051.048Zm.277 2.612a4 4 0 0 1-1.179-.055 6.9 6.9 0 0 1 2.227-.01c.137.039-.2.06-1.045.063Zm1.281-.2a3 3 0 0 1-.439-.059l-.271-.056.338-.006a1.1 1.1 0 0 1 .448.061c.075.055.061.067-.072.065Zm.34-.105c-.159-.088-.157-.09.113-.09a.7.7 0 0 1 .44.131l.158.132-.263-.042a1.7 1.7 0 0 1-.438-.133Zm2.199.407c-1.407-.039-1.857-.068-1.588-.1a4 4 0 0 1 .742-.021 2 2 0 0 0 .71-.063 1.8 1.8 0 0 1 .571-.067c.131.017.558.057.948.09a17 17 0 0 0 1.672.021 2.7 2.7 0 0 1 .962.031 20 20 0 0 1-4.019.11Zm4.745.092a3 3 0 0 1-.505 0c-.141-.015-.026-.028.252-.028s.393.011.253.026Zm.789-.261a1.4 1.4 0 0 1-.467.094c-.382.032-.394.029-.2-.057.225-.1.775-.132.67-.04Zm.157-.292a1.5 1.5 0 0 1 .625-.1l.441.007-.407.052a5 5 0 0 0-.626.121c-.268.082-.281.048-.034-.087Zm.676.143a.55.55 0 0 1-.236 0c-.065-.017-.01-.031.118-.031s.183.01.118.028Zm1.132.52c-1.699-.034-2.23-.105-1.547-.2a6 6 0 0 0 .632-.133c.42-.123.448-.121.263.021a1.5 1.5 0 0 1-.263.166c-.054.023.22.04.61.038a4.6 4.6 0 0 1 .831.045 1.1 1.1 0 0 0 .406.013 2 2 0 0 1 .553.021 5.8 5.8 0 0 1-1.483.021Zm1.387-1.129a1.5 1.5 0 0 1-.339.049.8.8 0 0 1 .187-.124c.2-.106.49-.14.49-.053 0 .029-.152.084-.337.122Zm.1.286c-.1.089-.571.16-.571.084s.125-.131.4-.138c.139-.005.208.017.17.052Zm-.128-.671c-.165.061-.527-.008-.558-.105-.025-.072.126-.065.526.021.148.031.152.038.032.082Zm.445 1.178a3 3 0 0 0-.534-.035c-.357 0-.421-.074-.115-.141.231-.056.3-.051.3.024 0 .039.021.057.05.04a.46.46 0 0 1 .253.063q.212.094.044.053Zm.229-.54a.55.55 0 0 1 .58-.007c.088.066.027.084-.337.088-.424.006-.436 0-.243-.084Zm2.55.593c.066-.007.119.015.119.048 0 .076-.5.127-.657.067-.112-.042-.014-.063.539-.118Zm-.895-.2c-.148-.057-.132-.063.137-.071a1.8 1.8 0 0 0 .541-.105.5.5 0 0 1 .293-.063c.033.021-.058.084-.2.137a1.05 1.05 0 0 1-.768.1Zm.716-.999c-.163-.063-.129-.168.044-.135a2 2 0 0 0 .237.034.08.08 0 0 1 .083.073c0 .072-.199.087-.364.024Zm.036-.632a.34.34 0 0 1-.187-.107c-.13-.13-.031-.128.14 0 .074.054.095.1.047.1Zm-.211 0c0 .035-.068.065-.153.066a2 2 0 0 0-.317.037l-.168.037.168-.105c.188-.121.469-.144.469-.042Zm-.434.891.127.149-.184-.116a.8.8 0 0 0-.315-.113c-.105 0-.134-.043-.128-.186.009-.16.014-.164.039-.034a.164.164 0 0 0 .173.153h.009a.44.44 0 0 1 .277.144Zm-.499.231c.273.031.452.116.452.223 0 .08-.699-.137-.81-.254-.061-.061-.066-.084-.013-.053a1.4 1.4 0 0 0 .37.082Zm-.463-.43c-.134.094-.544.2-.468.121a2 2 0 0 1 .537-.211c.035 0 .005.037-.069.087Zm-.027-.267a.63.63 0 0 0-.45.2q-.115.156-.071.033c.055-.168-.064-.148-.19.031-.056.085-.104.118-.104.078 0-.123.315-.337.677-.455.174-.055.549-.045.512.016a.9.9 0 0 1-.373.1Zm-.316 1.629a3 3 0 0 0 .373-.235.83.83 0 0 1 .741-.077c.059.037-.024.06-.231.064a.72.72 0 0 0-.429.111c-.095.095-.071.106.231.067.324-.037.33-.035.169.063a1.4 1.4 0 0 1-.609.105c-.431 0-.438 0-.248-.1Zm1.61.169a3 3 0 0 1-.755-.05 6.4 6.4 0 0 1 1.472.015 3.2 3.2 0 0 1-.72.031Zm.736-3.462a2 2 0 0 1 .033-.526c.018 0 .034.827.034 1.837a16 16 0 0 1-.048 1.788 9 9 0 0 1-.051-1.278c0-1.059-.017-1.225-.099-1.199q-.3.053-.608.078a7 7 0 0 0-.776.122 5 5 0 0 1-.842.076c-.623.007-1.149.142-.918.235a.3.3 0 0 0 .257-.03 4.5 4.5 0 0 1 1.609 0 1.6 1.6 0 0 1-.592.07 8 8 0 0 0-1.013.052.07.07 0 0 1-.045-.01c-.016-.011-.1.054-.2.147-.169.158-.19.159-.605.084a6 6 0 0 0-.725-.084c-.162 0-.258-.021-.211-.042s.074-.053.057-.079.137-.047.337-.051.365.022.365.051c0 .1.316.061.407-.046.111-.135.031-.21-.105-.106-.056.049-.118.072-.137.053-.141-.14.81-.374 1.55-.381a4 4 0 0 0 .911-.118 4 4 0 0 1 .9-.12l.525-.006Zm-2.02.417a1 1 0 0 1 .4-.055c.169 0 .273.014.238.026-.178.053-.727.077-.641.023Zm1.425-.322c.187-.008.276.027.354.139.14.2.073.244-.114.071a.8.8 0 0 0-.316-.172c-.134-.026-.116-.036.07-.042Zm.258-1.075c.128 0 .182.014.116.031a.55.55 0 0 1-.236 0c-.074-.021-.019-.036.111-.036Zm.209.421a3 3 0 0 0-.033.315c-.008.136-.032.163-.095.11a.232.232 0 0 1 .017-.366c.054-.021.105-.068.105-.106 0-.088-.284-.042-.395.064a.33.33 0 0 1-.185.084c-.053 0-.1.027-.1.064a2.6 2.6 0 0 1-.757.61c-.042 0-.036-.043.015-.106s.058-.105.025-.105.027-.08.13-.177c.21-.199.21-.353 0-.429l-.149.13a.65.65 0 0 1-.3.146c-.5.032-.781.016-.76-.043.014-.041.21-.061.474-.049.371.018.449 0 .449-.084 0-.063.059-.106.145-.106h.139l-.03-.015-.372-.106a.39.39 0 0 0-.337.042c-.084.053-.153.067-.153.029 0-.063-.145-.105-.666-.2-.161-.027-.2-.056-.135-.1a.28.28 0 0 1 .193-.03q.149.037.299.067c.211.04.594.075 1.824.16.613.05.661.063.638.19Zm-1.967-.71c.133-.086.315-.086.372 0 .025.04-.061.066-.21.066-.2 0-.239-.014-.169-.067Zm1.272-1.99-.579.034a.225.225 0 0 0-.254-.19c-.21.015-.339.2-.337.491s.131.467.351.459a.317.317 0 0 0 .315-.292l-.346.017v-.338l.854-.048v.954l-.469.013v-.161a.6.6 0 0 1-.49.212.72.72 0 0 1-.761-.674 1 1 0 0 1 0-.125.86.86 0 0 1 .829-.89h.061a.97.97 0 0 1 .585.116.47.47 0 0 1 .238.419Zm-.36-4.497a.25.25 0 0 1-.189.067c-.12 0-.129-.014-.048-.067.127-.09.285-.09.232 0Zm-1.856-1.119c.036.021.053-.019.039-.09-.059-.308 1.319-.599 1.41-.295a2 2 0 0 1 .052.375.46.46 0 0 0 .12.316c.077.044.042.061-.13.063a.74.74 0 0 0-.407.145c-.092.077-.123.116-.067.086.086-.044.088-.035.013.057a.38.38 0 0 1-.274.106c-.152 0-.179-.034-.173-.181a1 1 0 0 0-.046-.328c-.1-.27 0-.162.158.164.084.182.161.273.178.219a.7.7 0 0 1 .1-.184c.04-.048.042-.079.01-.067a.054.054 0 0 1-.07-.029v-.011a.24.24 0 0 0-.106-.118c-.061-.036-.038-.05.074-.031.189.026.411-.137.361-.27a.6.6 0 0 0-.259-.2c-.175-.085-.256-.09-.366-.032-.08.042-.127.1-.106.137s-.039.047-.13.032c-.182-.034-.308.09-.173.172q.081.053-.161.142c-.316.116-.316.225.009.179.138-.021.215-.023.168 0a.14.14 0 0 0-.084.119c0 .127-.369.259-.554.199a2.2 2.2 0 0 1-.442-.25c-.187-.133-.331-.19-.42-.164-.117.031-.129.021-.064-.059.145-.174.385-.106.852.225.236.168.4.193.47.074q.048-.08-.056-.04a.34.34 0 0 1-.256-.066c-.134-.094-.139-.113-.04-.168.063-.034.09-.1.063-.141s-.013-.053.058 0c.089.071.114.067.148-.021.015-.055.063-.088.1-.063Zm.867-.021c.115-.071.285-.071.285 0 0 .032-.085.056-.185.055q-.194-.001-.107-.059Zm-.999 1.22c0 .048-.063.011-.133-.082-.174-.221-.174-.337 0-.15a.47.47 0 0 1 .126.229Zm-.789-1.266c.111-.082.852-.145.777-.067a1.7 1.7 0 0 1-.464.094c-.329.037-.4.032-.319-.029ZM6.063 5.133c.163 0 .284 0 .27.02a8 8 0 0 1-1.263.144 3.4 3.4 0 0 1 .992-.166Zm-.474.372a1.1 1.1 0 0 0 .406-.093 1.7 1.7 0 0 1 .478-.142 2.3 2.3 0 0 0 .506-.142c.078-.064 1.928-.332 3.75-.544.687-.08 1.851-.219 2.588-.308 1.746-.211 1.698-.211 1.368.076a.94.94 0 0 1-1.053.21c-.342-.123-.816-.147-.816-.042 0 .037.122.067.274.067a1.5 1.5 0 0 1 .546.139.85.85 0 0 0 .605.1 1.4 1.4 0 0 1 .649.06c.488.159.864.16 1.053 0l.155-.131-.129.152c-.136.161-.075.2.1.066a.42.42 0 0 0-.07-.595l-.035-.024c-.079-.03-.081-.013-.013.1a.2.2 0 0 1 .011.25c-.132.21-.815.193-1.081-.023-.111-.092-.113-.1-.011-.068.072.021.118 0 .118-.053a.28.28 0 0 1 .105-.177.26.26 0 0 0 .106-.16c0-.042-.062 0-.134.093s-.133.131-.134.087c0-.175.284-.347.632-.377a36 36 0 0 0 1.998-.248 4 4 0 0 1 .609-.056c.246 0 .272.008.134.052a1.6 1.6 0 0 1-.357.062 2.35 2.35 0 0 0-.926.381c-.111.1-.7.189-.643.1.018-.032-.011-.09-.061-.133-.137-.112-.199.025-.093.2a.66.66 0 0 0 .556.211c.115-.034.383.06.345.119-.021.032.019.045.088.027.123-.031.563.276.532.374a1.3 1.3 0 0 0 .394.482c.025 0-.032-.105-.129-.231-.121-.158-.151-.24-.093-.259.128-.042-.043-.218-.377-.384-.159-.078-.228-.139-.157-.139a.99.99 0 0 1 .689.518c.091.156.219.288.284.293.4.032.636.014.699-.047s.021-.066-.1-.053a.55.55 0 0 1-.358-.147c-.184-.156-.186-.163-.034-.121.119.032.147.022.105-.041s-.026-.069.026-.036.063.073.044.1c-.047.076.171.176.431.2.074 0 .069.036-.025.14-.2.225-.526.284-1.316.247a2.7 2.7 0 0 0-.78.026c-.07.112.656.27 1.241.27.439 0 .557.019.499.079a1.1 1.1 0 0 1-.456.105c-.316.026-.4.058-.489.21-.2.33-.379.481-.551.482a2 2 0 0 0-.482.1c-.264.078-.327.078-.436 0a.7.7 0 0 0-.351-.1c-.123 0-.224-.033-.224-.073s.091-.063.252-.039c.954.138.999.139.905.021-.078-.093-.237-.112-.962-.112a2.5 2.5 0 0 1-.871-.067c0-.063.161-.081.913-.095a1.4 1.4 0 0 0 .891-.375.4.4 0 0 1 .201-.072c.11 0 .105-.009-.009-.055-.34-.133-1.094.199-.9.39.053.054.042.075-.042.075-.154 0-.267-.316-.215-.599.039-.211.032-.22-.092-.153-.146.074-.239 0-.244-.2 0-.137-.252-.12-.7.053a4 4 0 0 1-.641.183 1.1 1.1 0 0 0-.372.117c-.066.053-.076.042-.045-.041a.6.6 0 0 1 .324-.193 2.2 2.2 0 0 0 .509-.238.9.9 0 0 1 .299-.149c.041 0 .007.038-.078.078s-.15.1-.15.137.113-.007.252-.091c.325-.187.354-.216.176-.162a.25.25 0 0 1-.248-.059.37.37 0 0 0-.22-.105c-.063 0-.1.018-.071.043.068.067-.394.358-.646.405a1.3 1.3 0 0 0-.391.16.74.74 0 0 1-.457.106.56.56 0 0 0-.326.042.55.55 0 0 1-.305.058q-.465 0-.559.243c-.038.1-.029.105.072.019.068-.062.09-.066.056-.011s-.018.084.021.084.072-.046.072-.104.065-.1.208-.1c.114 0 .19.027.169.061-.048.078.234.012.368-.087.086-.064.088-.059.014.036s-.071.117 0 .143a.22.22 0 0 0 .189-.054 1.2 1.2 0 0 1 .473-.121c.211-.019.406-.041.442-.049a1 1 0 0 1 .2 0c.158.017-.244.137-.5.148-.105 0-.129.024-.078.056s.066.112.037.21-.025.13.017.069a.2.2 0 0 1 .122-.089c.034 0 .052-.04.042-.09-.025-.125.347-.199.521-.106a.7.7 0 0 1 .242.292 2.5 2.5 0 0 0 .662.869l.147.076-.134-.161c-.2-.242-.316-.466-.237-.466a.06.06 0 0 1 .067.057c0 .092.552.234.879.225.167 0 .265.009.219.03a.15.15 0 0 0-.084.127c0 .059-.05.079-.136.056s-.211.037-.374.217c-.131.139-.224.267-.21.284s.137-.077.267-.211a.9.9 0 0 1 .322-.24c.05 0 0 .093-.11.21-.155.161-.17.2-.063.156s.124-.039.042.063c-.053.064-.075.116-.053.116a1.8 1.8 0 0 0 .289-.375 2.6 2.6 0 0 1 .273-.368c.042 0-.018.286-.105.499-.105.263-.105.263.2.439.152.087.258.175.236.2s.007.093.066.158c.1.111.091.114-.174.055-.24-.053-.307-.041-.454.075a.75.75 0 0 1-.412.136c-.277 0-.261-.059.025-.105a.65.65 0 0 0 .295-.134c.085-.084.076-.1-.08-.1a.46.46 0 0 0-.287.1c-.085.084-.179.1-.411.063-.165-.027-.3-.079-.3-.116s.113-.058.315-.03l.316.043-.179-.14c-.106-.08-.186-.179-.186-.221s-.063-.118-.137-.166c-.21-.132-.26.085-.056.254.087.074.122.134.073.135s-.076-.022-.076-.054a.9.9 0 0 0-.441-.1 1.06 1.06 0 0 0-.785.126 1.3 1.3 0 0 1-.693.16 1.3 1.3 0 0 0-.5.069c-.125.065-.151.063-.151-.021a.3.3 0 0 0-.107-.177 1.75 1.75 0 0 1-.349-.967c0-.221-.118-.358-.557-.621-.3-.186-.337-.26-.055-.114a1.4 1.4 0 0 0 .546.1.8.8 0 0 1 .588.186c.222.168.236.171.165.039-.116-.219-.1-.358.053-.358s.476-.14.476-.211-.012-.078-.463.116c-.316.137-.432.161-.526.105s-.095-.071.087-.073a.45.45 0 0 0 .282-.086c.063-.073-.21-.094-.745-.052-.029 0-.051.052-.051.113 0 .089-.044.106-.21.069-.245-.05-.3-.09-.234-.159.027-.026.105-.011.181.035.114.071.132.063.132-.05 0-.16-.137-.477-.211-.477-.1 0-.12.192-.026.229.151.056.115.14-.072.16a1.7 1.7 0 0 1-.725-.011c-.106-.048-.113-.035-.052.126a.37.37 0 0 1 0 .3c-.036.067-.046.141-.021.164s.005.046-.038.053a.8.8 0 0 0-.281.077 1.7 1.7 0 0 1-.3.074q-.21.031.067.019a.5.5 0 0 1 .383.1c.149.148.078.175-.615.232-.474.04-.553.03-.736-.1-.21-.151-.21-.118-.057-.821a.13.13 0 0 1 .116-.105.073.073 0 0 0 .078-.058v-.015c-.01-.044.011-.073.042-.063a.046.046 0 0 0 .061-.022.04.04 0 0 0 0-.031c0-.099.168-.174.392-.175s.409-.141.316-.228c-.021-.024-.013-.044.021-.044s.071-.16.081-.355c.013-.256 0-.326-.05-.252s-.069.073-.069.015c0-.158-.124-.084-.195.119-.1.28-.193.253-.157-.042.021-.171 0-.231-.049-.2a.23.23 0 0 0-.077.174.22.22 0 0 1-.064.168.26.26 0 0 0-.07.19.9.9 0 0 1-.186.394c-.15.2-.21.232-.329.189-.158-.057-.295-.393-.316-.768 0-.137-.038-.236-.073-.221a1.3 1.3 0 0 0-.063.567v.543l-.315.3a1.5 1.5 0 0 0-.316.369 1.3 1.3 0 0 1-.407.316c-.376.231-.472.356-.361.466.025.025.088-.016.14-.09s.123-.119.155-.1.1-.025.151-.099.12-.138.161-.138a.43.43 0 0 0 .2-.145 1.1 1.1 0 0 1 .331-.233c.112-.05.164-.092.118-.093-.121 0-.105-.116.017-.116.164 0 .116.218-.069.316-.122.067-.146.1-.084.146a.28.28 0 0 0 .2.017c.089-.027.106-.008.076.074s-.1.1-.304.066c-.234-.039-.284-.021-.455.163a2 2 0 0 0-.3.439.83.83 0 0 1-.421.382 1.6 1.6 0 0 0-.642.646 2 2 0 0 1-.408.5c-.037 0-.016-.078.046-.172.084-.13.095-.192.035-.25s-.077-.057-.077.007c0 .047-.031.067-.068.043a.14.14 0 0 1-.063-.106c0-.063.128-.056.239.014a.18.18 0 0 0 .168-.017c.081-.05.072-.086-.058-.209s-.145-.127-.112-.036c.026.063.015.117-.021.117a.14.14 0 0 1-.105-.099 1.7 1.7 0 0 0-.411-.341c-.221-.153-.365-.3-.346-.35s0-.069-.047-.039-.063.011-.034-.063.015-.114-.017-.114-.1-.116-.142-.256a1.6 1.6 0 0 0-.135-.32 2.14 2.14 0 0 1-.263-.947c.084-.084.081-.171 0-.171-.038 0-.106.077-.148.168-.09.2-.188.221-.188.042 0-.158-.155-.199-.638-.179-.211.01-.377-.011-.377-.047s-.037-.036-.091.008-.09.049-.09-.03.042-.094.126-.073a.75.75 0 0 0 .316-.021.8.8 0 0 1 .453.041c.3.105.668.066.499-.053-.068-.05-.03-.057.139-.028a.55.55 0 0 0 .473-.125 1.4 1.4 0 0 1 .599-.2Zm9.194.432a.9.9 0 0 1-.322-.089c-.133-.074-.067-.087.487-.091.442 0 .666.021.714.081a.6.6 0 0 1 .1.231c.022.116-.021.168-.2.244a1.3 1.3 0 0 1-.372.092.2.2 0 0 0-.179.105c-.035.092-.051.089-.123-.016-.146-.217-.165-.421-.046-.49.094-.056.085-.068-.056-.071Zm-10.206-.6c.3.009.39.034.364.105-.042.106-.156.127-.156.021 0-.036-.032-.052-.071-.025s-.046.074.008.14.037.095-.169.095c-.147 0-.231-.027-.21-.067s.012-.068-.023-.068-.083-.041-.106-.105c-.029-.087.029-.1.361-.093Zm-1.975.321c.1-.08.106-.079.063.009-.031.062-.014.055.043-.015a.41.41 0 0 1 .343-.105.8.8 0 0 0 .277-.021c.088-.1.374-.038.642.117.365.211.249.292-.144.095-.2-.1-.316-.118-.4-.073a1 1 0 0 1-.384.063.7.7 0 0 0-.314.049c-.07.069-.247.084-.247.023a.3.3 0 0 1 .116-.148Zm.274 8.023c-.1-.026-.187-.017-.187.024s.1.069.209.069q.375 0-.023-.093Zm8.142-8.421c.21 0 .275.035.369.2a.5.5 0 0 0 .27.228 2.57 2.57 0 0 0 1.399-.227c.024-.037-.032-.034-.133 0a.54.54 0 0 1-.291.028q-.122-.04-.036.021c.057.04-.052.06-.287.058a.9.9 0 0 1-.368-.04c0-.025-.068-.029-.152-.009-.124.031-.137.021-.068-.052a.3.3 0 0 0 .085-.153c0-.034-.056.007-.124.091-.1.124-.131.134-.163.053-.031-.063.042-.174.19-.293a.55.55 0 0 0 .223-.349c0-.129.036-.157.2-.157.11 0 .199-.03.199-.066 0-.074-.137-.074-.607 0-.169.026-.237.052-.155.056a.38.38 0 0 1 .291.299c0 .058-.422.181-.624.181-.3 0-.164-.114.2-.169.195-.028.284-.067.232-.1a1.1 1.1 0 0 0-.654.158c-.08.081-.176.058-.122-.027q.043-.074-.032-.028a.084.084 0 0 0-.041.105c.02.036-.049.044-.168.02s-.211-.013-.211.027c0 .089.238.151.565.152ZM6.822 7.788c.041-.134-.247-.364-.457-.364-.456 0-.642-.077-.756-.315s-.178-.266-.369-.155c-.154.091-.15.216.011.361a1.1 1.1 0 0 1 .211.331 2.8 2.8 0 0 0 .818.874c.027-.009.029.036.006.1s-.017.099.036.063a.2.2 0 0 0 .084-.144c0-.144.381-.494.599-.544a.36.36 0 0 0 .234-.137c.027-.071-.019-.082-.2-.053-.125.021-.22.011-.212-.021Zm2.182-2.529c-.059.1-.018.541.045.5a.33.33 0 0 0 .063-.219.43.43 0 0 1 .092-.264c.063-.063.055-.081-.03-.081a.2.2 0 0 0-.152.064Zm1.121.763a.72.72 0 0 1 .659-.01.36.36 0 0 0 .394-.043c.175-.115.177-.121.043-.171a2.3 2.3 0 0 0-.43-.076c-.163-.013-.3-.061-.309-.1s0-.057.015-.022.126.033.264-.01a.52.52 0 0 1 .399.006c.179.082.225.026.089-.105-.081-.08-.122-.083-.618-.031-.189.019-.272.063-.295.158-.02.072-.057.129-.084.129s-.087.085-.133.187c-.067.142-.066.161 0 .095Zm.94 2.147c.092.05.126.031.158-.088.064-.235.049-.577-.026-.623-.037-.024-.067.024-.067.1a.7.7 0 0 1-.125.326 5 5 0 0 0-.178.279c-.057.095-.036.086.033.021a.16.16 0 0 1 .205-.008ZM5.598 6.684c.048.077.062.067.063-.046a.66.66 0 0 1 .145-.315c.164-.211.4-.355.4-.249 0 .039-.044.071-.1.071-.186 0-.326.316-.288.649a.9.9 0 0 0 .1.381 1.1 1.1 0 0 0 .453.106 1.1 1.1 0 0 0 .693-.122c.5-.243.733-.446.78-.674a.39.39 0 0 1 .21-.285.42.42 0 0 0 .21-.24c.052-.21-.064-1.022-.128-.919a.18.18 0 0 1-.179.046c-.14-.037-.252.078-.143.147a.8.8 0 0 1 .068.4c0 .26-.033.387-.124.469-.179.161-.337.147-.187-.016a.5.5 0 0 0 .1-.389c-.021-.27-.085-.36-.257-.36q-.103 0-.023.05a.55.55 0 0 1 .123.288.454.454 0 0 1-.335.547.4.4 0 0 1-.086.012.56.56 0 0 1-.585-.2c-.047-.121.024-.115.169.015q.116.104.161.034c.029-.047 0-.073-.066-.073s-.1-.046-.088-.151c.019-.137.057-.15.341-.141a1 1 0 0 0 .321-.016 1.2 1.2 0 0 0-.49-.231.8.8 0 0 0-.309.21c-.119.116-.235.195-.257.173s.011-.091.072-.153.1-.127.08-.147a3.1 3.1 0 0 0-.807.842.31.31 0 0 0-.034.288m.642-.35c-.04.067.068.168.249.232.066.023.119.012.119-.023s-.061-.066-.135-.066-.135-.031-.135-.067c0-.1.282-.079.421.044.176.158.153.27-.072.348-.172.061-.218.046-.381-.124-.111-.115-.168-.234-.144-.3s.058-.105.08-.105.019.029 0 .061Zm2.074 2.269c-.123-.124-.199-.126-.244 0a.14.14 0 0 0 0 .135.36.36 0 0 0 .399-.044c.027-.046.025-.062 0-.036s-.1 0-.151-.055m-.568.238c.032 0 .1-.09.143-.199s.105-.187.138-.168a.076.076 0 0 0 .1-.035q.041-.068.179 0c.185.105.241.026.064-.084a.32.32 0 0 1-.142-.274c0-.2.111-.259.147-.074.011.06.056-.016.1-.17a2 2 0 0 0 .063-.278c-.006 0-.105.1-.223.221a1.1 1.1 0 0 0-.252.394 1 1 0 0 1-.21.351c-.164.19-.211.328-.1.328Zm.999-.369c-.105.047-.169.105-.135.124s.137-.019.23-.09c.189-.153.171-.16-.1-.034m2.817-1.237c.023-.036 0-.105-.059-.15s-.105-.057-.105-.024c.007.115.122.242.164.168"/></svg>