<?xml version="1.0" encoding="UTF-8"?>
<svg width="24px" fill="#44739e" height="24px" viewBox="0 0 24 24" version="1.1" xmlns="http://www.w3.org/2000/svg" xmlns:xlink="http://www.w3.org/1999/xlink">
            <path d="m 14.078,9.137 h -1.319 v 5.619 h 4.051 v -1.094 h -2.732 z m 5.633,2.43 v 1.048 h 1.074 V 13.6 a 3.057,3.057 0 0 1 -0.952,0.149 c -1.187,0 -1.582,-0.594 -1.582,-1.8 0,-1.149 0.377,-1.827 1.564,-1.827 a 1.534,1.534 0 0 1 1.346,0.594 l 0.82,-0.742 a 2.582,2.582 0 0 0 -2.2,-0.918 2.545,2.545 0 0 0 -2.816,2.884 c 0,1.882 0.876,2.9 2.807,2.9 A 4.256,4.256 0 0 0 22,14.293 V 11.567 Z M 6.389,7.683 a 4.318,4.318 0 1 0 0,8.634 4.318,4.318 0 1 0 0,-8.634 z m 1.046,5.87 v 0.341 H 6.212 v -3.788 h 0.353 v 3.447 z m 2.628,-1.715 V 12 a 3.564,3.564 0 0 1 -1.078,2.558 3.723,3.723 0 0 1 -5.195,0 A 3.57,3.57 0 0 1 2.715,12 3.651,3.651 0 0 1 6.39,8.383 c 0.042,0 0.129,0 0.175,0.005 v 0.337 c -0.043,0 -0.137,0 -0.175,0 a 3.337,3.337 0 0 0 -2.355,0.959 3.233,3.233 0 0 0 0,4.635 3.344,3.344 0 0 0 5.676,-2.093 0.47,0.47 0 0 0 0,-0.052 H 7.439 v -0.333 h 2.624 z m -4.55,-1.216 a 0.526,0.526 0 1 1 -0.526,-0.518 0.522,0.522 0 0 1 0.526,0.518 z"/>

</svg>