<svg xmlns="http://www.w3.org/2000/svg" viewBox="0 0 24 24"><path fill="#44739e" d="M16.071 2.269 15.227 2l-.152.071c-.755.261-6.363 3.611-7.001 9.091a12.1 12.1 0 0 0 2.247 9.088l-.849.2a.052.052 0 0 0-.009.1l1.71.731a.6.6 0 0 0 .454 0l1.128-.454a.052.052 0 0 0 0-.1l-1.073-.368-.039-.045a11.3 11.3 0 0 1-2.912-8.94c.653-5.631 6.013-8.69 7.183-9.065l.1-.027.044-.011h-.01Zm-5.057 3.515a10.9 10.9 0 0 0-1.989 3.359 9.8 9.8 0 0 0-.5 4.537l-.278.034a10.14 10.14 0 0 1 .6-4.68 10.7 10.7 0 0 1 2-3.37 15.2 15.2 0 0 1 4.364-3.511l.4.123a12.7 12.7 0 0 0-4.597 3.508m1.794 15.137-1.24.531a.44.44 0 0 1-.359 0l-1.819-.806v.431l1.818.882a.42.42 0 0 0 .363 0l1.26-.6v-.484a.05.05 0 0 1-.023.046"/></svg>