<?xml version="1.0" encoding="UTF-8"?>
<svg width="24px" fill="#44739e" height="24px" viewBox="0 0 24 24" version="1.1" xmlns="http://www.w3.org/2000/svg" xmlns:xlink="http://www.w3.org/1999/xlink">
            <path d="M 16.056,2.269 15.212,2 15.06,2.071 v 0 c -0.755,0.261 -6.362,3.61 -7,9.089 a 12.1,12.1 0 0 0 2.247,9.087 l -0.849,0.2 a 0.052,0.052 0 0 0 -0.009,0.1 l 1.71,0.73 a 0.6,0.6 0 0 0 0.454,0 l 1.128,-0.454 a 0.052,0.052 0 0 0 0,-0.1 L 11.668,20.356 11.629,20.311 A 11.288,11.288 0 0 1 8.717,11.372 C 9.37,5.742 14.729,2.684 15.899,2.309 l 0.1,-0.027 0.044,-0.011 h -0.01 z M 11,5.783 a 10.921,10.921 0 0 0 -1.989,3.359 9.78,9.78 0 0 0 -0.5,4.536 l -0.278,0.034 a 10.141,10.141 0 0 1 0.6,-4.679 10.679,10.679 0 0 1 2,-3.37 15.171,15.171 0 0 1 4.363,-3.51 l 0.4,0.123 A 12.725,12.725 0 0 0 11,5.783 Z m 1.794,15.134 -1.24,0.531 a 0.436,0.436 0 0 1 -0.359,0 L 9.376,20.642 v 0.431 l 1.818,0.882 a 0.417,0.417 0 0 0 0.363,0 l 1.26,-0.6 v -0.484 a 0.053,0.053 0 0 1 -0.023,0.046 z"/>

</svg>