<?xml version="1.0" encoding="UTF-8"?>
<svg width="24px" fill="#44739e" height="24px" viewBox="0 0 24 24" version="1.1" xmlns="http://www.w3.org/2000/svg" xmlns:xlink="http://www.w3.org/1999/xlink">
            <path d="m 7.081,16.872 11.418,0.642 V 17.409 L 7.444,16.8 Z M 7.1,5.033 7.081,16.872 7.444,16.799 V 5.1 Z m 0,0 L 18.508,4.2 V 4.3 L 7.444,5.1 Z M 6.824,17.022 6.815,4.915 6.39,4.947 6.4,17 Z M 18.5,18.444 6.39,17.664 6.4,17 18.5,17.734 Z M 18.509,4.063 18.5,18.444 19.138,18.483 19.119,4.024 Z m 0.6,-0.675 -12.716,1 V 4.95 L 18.511,4.066 19.122,4.027 Z m 0.682,15.574 0.328,-0.151 0.009,-15.77 -0.337,-0.17 z M 6.23,17.769 V 4.22 L 5.982,4.24 5.947,17.749 Z m 13.057,1.245 -13.34,-0.957 v -0.308 l 13.34,0.878 z M 19.624,3.152 19.633,19.027 19.287,19.014 19.252,3.178 Z M 5.982,3.925 19.624,2.785 V 3.152 L 5.982,4.24 Z"></path>

</svg>