<?xml version="1.0" encoding="UTF-8"?>
<svg width="24px" fill="#44739e" height="24px" viewBox="0 0 24 24" version="1.1" xmlns="http://www.w3.org/2000/svg" xmlns:xlink="http://www.w3.org/1999/xlink">
            <path d="m 7.408,14.959 0.343,0.8 L 7.76,5.731 7.408,5.75 Z M 7.025,4.089 7.288,4.07 V 4.194 L 7.025,4.214 Z M 7.288,4.158 V 4.194 L 7.52,4.181 Z M 19.051,3.3 V 3.6 L 15.857,3.836 15.783,3.576 7.52,4.178 7.288,4.154 19.051,3.294 M 7.252,17.505 7.052,17.033 v 0.538 l 0.306,0.024 H 7.291 Z m 6.126,-0.177 0.256,-0.026 M 7.025,4.089 v 0 L 7.288,4.07 v 0 z m 8.281,-0.138 3.713,14.334 V 17.159 L 15.579,3.7 Z M 2.322,4.961 14.483,4.129 14.77,5.179 3.305,5.832 3,5.849 H 2.952 L 2.719,5.864 Z M 7.943,16.6 3.305,5.832 2.952,5.855 7.72,16.78 Z m 0,0 10.165,0.772 0.064,0.234 L 7.715,16.78 Z M 1.882,4.984 7.152,16.845 7.615,16.885 2.719,5.864 2.319,4.964 Z M 15.306,3.951 2.121,4.842 2.514,4.626 15.579,3.7 Z m 3.465,13.84 -3.6,-13.7 -0.687,0.04 3.625,13.24 0.064,0.234 0.044,0.146 z m 0,0 -0.421,-0.034 -11.2,-0.907 0.248,0.573 11.523,1.013 z m 0.738,1.159 0.3,-0.171 L 19.8,3 19.505,2.849 Z M 7.025,5.767 v 8.4 L 7.28,14.704 V 5.753 Z M 19.051,3.188 7.025,4.088 V 3.754 L 19.051,2.8 Z M 19.019,18.636 V 17.162 L 19.051,2.8 19.367,2.786 19.354,18.66 Z m -11.962,-1.063 0.3,0.024 11.997,1.063 v 0.367 l -12.3,-1.14 z"></path>

</svg>
