<svg xmlns="http://www.w3.org/2000/svg" viewBox="0 0 24 24"><path fill="#44739e" d="M17.9 20.913v-.343L5.556 14.816 5.375 4.048l-.218-.093.221 11.04Zm-13.285-5.57L18.765 22l.082-15.283L4.41 2.927Zm13.616-8.137-.076 13.982-9.878-4.649v-.009h-.006l-3.059-1.432-.189-11.359Zm-3.71 8.257c1.038 0 2.079-.005 3.109 0-1.014-.025-2.073-.003-3.109 0m-5.438-.13c2.76 0 5.54-.015 8.3-.006a1 1 0 0 0 .247-.006v-.435c-3.703-.007-7.377.006-11.088.013v.027q.43.196.86.406c.556-.009 1.129.028 1.681.001m-1.387.159c.162.069.304.158.458.24q.061.034.122.064c.55.012 1.129-.015 1.687 0 2.548 0 5.105 0 7.654-.007v-.258h.013v-.065c-1.03-.008-2.071 0-3.109 0-2.278 0-4.562.012-6.825.007Zm11.756-7.339v.017-.01Zm.609-5.661v-.009c-5.256-.022-10.512-.011-15.762-.047a1.7 1.7 0 0 0-.38.007c.066 4.438.141 8.885.203 13.311l.007.019c.305-.007.641-.006.96-.006v-.022c-.19-.087-.399-.203-.593-.282-.048-4.231-.13-8.451-.18-12.684a4.3 4.3 0 0 1 1.307.263c.751.18 1.524.375 2.26.586 3.745.951 7.491 1.944 11.235 2.907l-.204 15.461h.021a2 2 0 0 0 .159-.375c.132-.147.043-.344.073-.521.012-.697.035-1.411.027-2.102.025-.759.028-1.547.032-2.318.028-1.104.047-2.222.047-3.334.016-.527.041-1.074.021-1.602.033-.05.01-.192.007-.256a.7.7 0 0 0 0-.271c.028-.412.019-.868.019-1.29a44 44 0 0 0 .026-2.002c.026-.557.023-1.126.028-1.694-1.327-.325-2.651-.691-4.014-1.016-.542-.156-1.134-.293-1.693-.449l-.021.006c-2.52-.65-5.048-1.302-7.567-1.931a.7.7 0 0 0-.203-.059c4.454-.032 8.942.023 13.4 0-.011.407-.029.818-.019 1.227-.044.6-.016 1.261-.047 1.863v.091a1.4 1.4 0 0 0 .256.069l.017-3.268v-.016l.218.006v.028h-.059L19.5 15.454h.05v.176h-.132v-.178l.015-2.663v-.858l.019-3.759a1.8 1.8 0 0 0-.007.451 7 7 0 0 0-.013.922c-.035.609-.033 1.264-.034 1.883a.7.7 0 0 0 0 .238c-.052 1.356-.039 2.744-.067 4.123h.521c.033-.576 0-1.183.041-1.749.042-3.76.133-7.514.187-11.27a1.2 1.2 0 0 0-.019-.278m-.609 4.55c.009.367-.024.747 0 1.111l.008-1.607c0 .174 0 .346-.008.496m.534-4.691h.007a3 3 0 0 0-.174-.296C14.612 2.055 9.416 2 4.21 2a2 2 0 0 0-.203.312c5.226 0 10.428.049 15.648.039a1.2 1.2 0 0 0 .331 0"/></svg>