<?xml version="1.0" encoding="UTF-8"?>
<svg width="33px" fill="#44739e" height="32px" viewBox="0 0 33 32" version="1.1" xmlns="http://www.w3.org/2000/svg" xmlns:xlink="http://www.w3.org/1999/xlink">
            <path d="M 6.94,20.27 7.38,20.3 7.37,4.99 6.94,6.21 Z m -0.48,2.34 0.33,0.03 V 22.695312 22.83 L 6.46,22.8 Z m 0.62,0.05 -0.29,-0.02 v 0.05531 z M 21.52,24.001406 6.79,22.695312 7.08,22.66 17.42875,23.586094 17.52,23.19 l 4,0.36 v 0.451406 M 6.7973444,2.1879486 6.8832819,2.1840424 6.5,2.22 V 3.04 L 6.7476469,2.3199321 Z M 14.74,2.6300001 l -0.32,-0.04 M 6.79,22.83 v 0 L 6.46,22.8 v 0 z M 17.17,23.4 21.483725,2.8505428 21.480881,1.1324898 16.83,23.01 Z m -16.0974926,-3.309432 0.2870798,0.01997 0.054594,0.0038 0.3871316,0.02693 L 16.16,21.14 15.8,22.74 0.57,21.47 Z M 7.33,3.43 1.3595872,20.110536 1.8013131,20.141261 7.61,3.71 Z m 0,0 L 20.424774,2.1738728 20.344723,2.5298534 7.61,3.71 Z M 0.57,21.47 1.0725074,20.090568 7.2,3.27 6.62,3.33 0.01953125,21.434375 Z M 17.17,23.4 0.81,21.98 0.32,21.65 16.83,23.01 Z M 20.48,1.95 20.424774,2.1738728 20.344723,2.5298534 15.8,22.74 16.66,22.8 21.17,1.89 Z M 21.36,0.91 6.93,2.45 6.62,3.33 20.64,1.95 21.17,1.9 Z M 22.09,24.69 22.46,24.46 22.47,0.39 22.09,0.13 Z M 6.78,20.26 V 6.61 L 6.46,7.43 V 20.24 Z M 21.52,24.77 6.46,23.31 V 22.8 l 15.06,1.38 z M 21.9,0.56 21.91,24.79 21.52,24.77 21.483725,2.8505428 21.480881,1.1324898 21.48,0.6 Z M 6.5,1.74 21.9,0 V 0.56 L 6.8832819,2.1840424 6.5,2.22 Z"/>

</svg>
