<svg xmlns="http://www.w3.org/2000/svg" fill="#44739e" width="24" height="24" version="1.1" viewBox="0 0 24000 24000"><path d="M14325 15445c957 0 1916-5 2866 0-935-24-1911-3-2866 0zm-244 2c-2017 0-4039 0-6048 6v18c189 83 361 200 535 280 507 11 1041-13 1555 0 2349 0 4706 0 7056-7v-237h12v-60c-950-7-1909 0-2866 0zm-4769-122c2545 0 5108-14 7652-6a862 862 0 00 227-6 862 862 0 01-227 6c-2544-8-5107 9-7652 6ZM6970 14930c3419-7 6808-19 10221-12-138-13-306 0-455 0-3264 8-6500-6-9766 12zm0 19c264 121 530 245 793 376 512-10 1040 24 1549 0 2545 0 5108-14 7652-6a862 862 0 00 227-6v-400c-3413-7-6800 5-10221 12zm10451-7228v-3l-3-1v4Zm-1556 11634a58 58 0 00-40-21 68 68 0 01 40 21zm-1121-538zm-1392-668c-41 0-100-47-130-61a1635 1635 0 01-288-139c-578-254-1140-550-1721-808-220-140-475-207-682-340a43600 43600 0 01-1930-917 45803 45803 0 01-1630-777c-270-116-543-259-820-382 278 123 550 267 827 383 510 257 1100 535 1635 777 630 317 1285 632 1930 917 207 133 463 200 682 340 579 258 1142 554 1719 808a1635 1635 0 00 290 140c30 13 89 60 130 60 23 37 60 33 100 48-36-17-75-11-102-50zm3899 1718v142-146c35-2035 59-4077 86-6100l88-6040c-64 4062-110 8092-174 12144zm-2926-4422c-2100 0-4206 13-6292 8 2009-6 4030-6 6048-6zm-5757 305c-174-80-346-200-535-279 190 80 360 195 535 279Zm7478 3689h2v-2l-2-1zm875 1121a3200 3200 0 01 332 152v-246c-200-87-463-234-668-321-6 0-139-68-127-77-16-6-80-16-62-30a1263 1263 0 01-319-152l-19 6a5582 5582 0 00-650-316v-12l-14 6c-12-12-60-45-73-36v-12c-437-200-873-400-1300-632l-10 10a1206 1206 0 01-117-67l-20 6c-118-72-290-130-412-218l-17 6c-339-190-739-341-1099-547l-25 6a100 100 0 00-74-36l7-12c-426-200-836-384-1242-600l-18 6v-13a48240 48240 0 01-1672-800c-200-75-422-215-620-283v-11l-14 6a5391 5391 0 00-640-310 1200 1200 0 00-299-145c-330-191-750-352-1093-548a2429 2429 0 01-418-200c-122-76-276-72-307-201 0-400-7-800-12-1207-10-672-15-1342-23-2012 0-394-13-790-13-1181l-13-7c18-240-14-500 0-734l-14-6a513 513 0 01 13-146l-13-6c14-308-20-692 0-984h-10a636 636 0 00 0-138V8490a471 471 0 01 0-131c0-5-12-14-12-17a148 148 0 01 11-30 59 59 0 01-12-52 368 368 0 01 10-56l-10-8a1480 1480 0 01 3-250 629 629 0 01 0-200c-38-200 7-550-26-764 20-76-12-180 13-234 8-10-12 0-13-6a52 52 0 01 12-46 2944 2944 0 01 6-300 320 320 0 01-10-70 145 145 0 01 10-77c-20-20-14-94-10-150l1-50c0-10 0-55-9-90a175 175 0 01 10-102H5800c0-362-10-744-12-1110-12-135 45-234-109-238 39 1508 28 3046 74 4550a1951 1951 0 01 37-260h18a1334 1334 0 00-37 243 80 80 0 01-20 15c-7 184 11 440 6 625 24 865 20 1750 43 2618 0 822 25 1650 31 2472 41 100-46 327 91 334 350 187 741 380 1105 546 13 13 70 50 80 43 55 62 140 50 200 110l13-7c13 13 70 44 80 36v13c26 19 63 12 92 30v13h8c352 200 724 357 1082 540 8-5 0 0 5 10 17 10 100 27 83 40 378 167 730 365 1100 531v10a1200 1200 0 01 241 120l18-6v6h7l-4 10c212 100 448 200 636 314 173 60 320 165 473 220a3562 3562 0 00 446 217v10a300 300 0 00 82 30 1567 1567 0 00 142 84c17 14 116 43 145 64 10 6 15 10 10 16 580 245 1140 580 1720 830h5l-5 10a937 937 0 01 134 60c10 0 10 10 10 13 313 125 633 314 932 447a372 372 0 00 154 73c120 66 258 136 380 188 22 15 58 10 70 40 52 0 194 110 252 110a1300 1300 0 00 320 158h4l-3 10 63 16v10c274 110 545 288 818 387 12 42 120 96 112 102zM5849 8643c-21 292 14 676 0 984l13 6a513 513 0 00-13 146l13 6c-13 234 19 494 0 734l12 7c0 392 9 787 13 1181 0-400-11-791-11-1184l-12-7c19-240-13-500 0-734l-13-6a513 513 0 01 13-146l-13-6c14-308-20-692 0-984h-12zm4166 8504-3 6 5 2 5-10zm1558 761v10l4 1v-10ZM7386 15850v-13c-10 8-67-23-80-36l-13 6c-60-58-145-47-200-109-11 8-67-30-80-43a20267 20267 0 01-1106-546c-137-7-50-234-80-334-6-822-30-1650-30-2472-24-868-20-1753-44-2618 0-186-13-440-6-625-7 184 6 440 6 625 24 865 20 1750 43 2618 0 822 25 1650 31 2472 30 94-57 328 80 334 351 187 742 380 1106 546 13 13 69 50 80 43 59 62 143 50 200 109l13-6c13 13 70 44 80 36v13c26 20 63 13 92 30v20-13c-29-24-66-17-92-36Zm1183 582s-7 0 0 10c0-6 0-15-5-10zm1190 583-5 10 5 2 5-10zM5845 8343c0-6-10-16-11-17 0 0 11 11 11 17zM15930 20058l-5 10 5 1 5-10zm62 31-5 10 5 2 5-11zM6230 15126a2429 2429 0 00 418 200c343 200 763 358 1094 547a1200 1200 0 01 300 145 5391 5391 0 01 640 310l12-6v12c200 68 421 208 621 286 553 280 1116 552 1672 807v13l18-6c406 216 816 400 1242 600l-7 12a100 100 0 01 74 36l25-6c360 206 761 358 1100 547l18-6c121 88 294 146 412 218l10-6a1206 1206 0 00 112 70l20-5c426 232 862 432 1300 632v12c11-9 60 24 72 36l13-6v12a5582 5582 0 01 651 316l20-6a1263 1263 0 00 320 152c-20 14 45 24 61 30-12 10 121 74 127 77 205 87 468 234 668 321v-10c-200-87-463-235-670-322 0 0-134-64-122-73-16-6-80-16-62-30a1263 1263 0 01-320-152l-16 6a5427 5427 0 00-650-316v-12l-14 6c-13-12-60-45-74-36v-12c-440-200-876-400-1300-632l-17 6a1206 1206 0 01-116-67l-20 6c-117-72-290-130-410-218l-20 6c-340-189-740-340-1100-547l-24 6a100 100 0 00-77-36l7-12a21569 21569 0 01-1242-600l-18 17v-14a48240 48240 0 01-1672-808c-200-78-420-218-620-286v-12l-13 7a5384 5384 0 00-640-310 1208 1208 0 00-300-146c-330-189-750-346-1092-546a2429 2429 0 01-418-200c-122-76-276-70-307-200 2-400-8-800-12-1200 0 400 10 804 13 1205 35 125 190 121 310 196zm9056 4616v4l4 2v-4zm-1612-795-5 10 5 2 5-10zm134 70c7 0 13 10 9 13 0 0 1-8-9-13zm-1862-917c8 6 14 10 9 15 0 0 2-15-9-15zM5753 9037A2086 2086 0 01 5790 8800a1951 1951 0 00-37 229Zm87-563v28-28zm-32 326a1374 1374 0 00-40 246 1334 1334 0 01 40-246Zm20-2078c8-6-11-6-13-6 0 6 20-3 12 6zm-2-55 1-3h-13v3Zm-12-649c0-19 0-54-9-89 0 36 9 72 9 90zm6 350a282 282 0 01-10-68 320 320 0 00 10 67Zm25 1925c-12-8-14-29-12-50a59 59 0 00 12 50ZM5820 6220c-20-17-14-91-10-148-4 54-10 128 10 148Zm-32-1504c0 367 17 749 12 1110h14H5800c5-361-12-743-12-1110-11-137 47-237-111-237 156 4 100 103 111 237zm51 3008c-37-200 8-548-25-763 33 213-14 563 25 763Zm5 460v-2l-11-6v3Zm11579-460V7720h-2v3ZM6107 11700c-11-77 27-226-6-280 0-1218-16-2484-43-3710a2742 2742 0 00-6-462c0-869-12-1791-31-2666 3788 1037 7600 2100 11400 3140V7720c-3800-1040-7613-2100-11400-3140 20 876 40 1800 40 2667a2742 2742 0 01 7 462c27 1226 40 2492 43 3710 33 54 0 200 6 280a1000 1000 0 01 0 279c28 908 28 1832 37 2751-10-919-10-1842-37-2750a1000 1000 0 00 0-279zm9468 7500a3154 3154 0 01-424-200l-19 7a1992 1992 0 00-283-146c-9 18-66-49-92-49a24 24 0 00-13 0h11c15 0 82 67 92 49a1893 1893 0 01 283 146l19-7a3154 3154 0 00 413 200c60 63 175 64 240 127h12-11c-66-61-180-62-240-127Zm-1223-580-20 6v-12c-242-118-488-211-718-346-24 0-43-29-74-19v-10l-86-30v-20 10l86 31v13c31-10 50 24 74 20 230 134 476 227 719 345v13l19-6c107 73 254 108 375 194h10-8c-134-90-281-125-388-198zm1542 734-18 6h-11c-3 0 7 0 9 8l18-6a639 639 0 01 148 85h6a639 639 0 00-152-93zm566 279v-12a387 387 0 00-68-12 2931 2931 0 00-344-176 2754 2754 0 01 342 175 387 387 0 01 68 12v12l12-6c244 150 490 234 780 383-290-148-535-232-778-382zM5887 11707c8 670 13 1340 23 2012-10-680-10-1350-23-2020Zm-53-3384a100 100 0 01 11-23 148 148 0 00-12 29Zm11 20a471 471 0 00 0 131 433 433 0 01 0-131zm-6 297a707 707 0 00 0-138 636 636 0 01 0 138zm-25-2620v52zm-137-1540c40 1510 28 3053 74 4560v-10c-40-1500-30-3043-70-4550Zm11576 16232a3200 3200 0 00-332-152c8-6-100-58-111-73-273-100-544-277-818-386 275 108 548 285 823 388 15 15 119 67 110 73a3107 3107 0 01 333 152v-249zm-1322-646 2-2 58 28v3zM5814 6664a2944 2944 0 01 6-300 2944 2944 0 00-6 300zm-10-735a166 166 0 01 10-100 175 175 0 00-9 90zm-37 3117c-5 5-18 12-20 15a80 80 0 00 20-15Zm47-2088c20-77-14-184 13-236-25 53 8 158-13 234Zm20 1283a465 465 0 01 11-56 368 368 0 00-12 56Zm1652 7650h-8v10l12-7c350 200 722 356 1079 539-360-186-731-342-1083-543ZM5833 8175a1685 1685 0 01 6-246 1480 1480 0 00-6 250Zm-18-1463a49 49 0 01 12-46 52 52 0 00-12 46ZM5810 6300a141 141 0 01 10-76 145 145 0 00-10 76Zm6147 11814c574 244 1140 579 1715 830-572-250-1138-585-1715-830zm1717 845c16 8 100 35 135 56a937 937 0 00-135-56zm1231 593a372 372 0 01-154-73c-300-133-619-322-932-448 314 126 630 316 934 449a372 372 0 00 154 73 4287 4287 0 01-2-1zm707 348c-58 0-200-109-252-109-12-30-48-20-70-40 22 20 61 10 74 50 53 0 200 110 252 110a1315 1315 0 00 314 156 1300 1300 0 01-318-158ZM11800 18034a1567 1567 0 01-142-85 300 300 0 01-82-30 328 328 0 00 86 30 1567 1567 0 00 142 86c16 13 106 40 141 60-28-18-127-47-145-60Zm-3140-1549c14-14-66-30-83-41 6 0 100 28 86 42 376 163 726 360 1100 527-374-166-725-364-1103-528Zm2465 1203c-154-54-300-160-473-219-188-113-424-214-635-314a6926 6926 0 01 640 316c170 59 319 165 473 219a3639 3639 0 00 444 216 3562 3562 0 01-449-218ZM10000 17147a1200 1200 0 00-240-119 1200 1200 0 01 245 121h10v-6Zm8451-9826C14016 6170 9544 4970 5108 3830a115 115 0 00-37 6q100 5745 178 11478c200 200 583 262 823 443l20-6c265 167 542 256 810 419l20-6a4315 4315 0 00 528 260l-6 13c175 57 312 172 510 236v6h-6a4000 4000 0 01 357 183l18-7c160 119 391 172 560 292 156 40 335 190 500 230 320 194 667 315 990 510l17-6c500 247 1017 525 1512 747 200 122 422 212 633 328l20-6a1200 1200 0 00 128 80l18-7v13a409 409 0 00 49 18v12a513 513 0 01 209 100 126 126 0 01 62 24s0 11 10 6c380 183 757 348 1120 558l20-6a694 694 0 00 180 85l-6 12c542 251 1083 540 1623 800l13-8a239 239 0 00 123 61v12l55 18v12c376 174 846 400 1174 583l74 25v12a7491 7491 0 01 725 358l20-6c36 24 54 52 110 55 23-2673 80-5324 110-8000 31-1684 61-3364 73-5052 14-444 26-936 18-1389zm-1194 13410a3107 3107 0 00-332-152c8-5-100-57-111-72-275-100-548-280-823-388h-5l5-10-63-17v-11a1315 1315 0 01-314-155c-52 0-200-110-252-110-13-31-52-23-74-42a4253 4253 0 01-377-185 372 372 0 01-154-73c-300-133-620-323-934-450 0 0 0-7-10-12-34-21-118-48-134-56v-10c-575-250-1141-585-1715-830 5 0 0-10-10-14-34-20-124-47-140-60a1567 1567 0 01-142-85 328 328 0 01-86-31v-10a3639 3639 0 01-444-216c-154-53-300-160-473-220a6926 6926 0 00-640-314V17200h-10a1200 1200 0 00-247-120v-1h-5l5-10c-370-166-720-363-1100-526 14-14-80-40-86-42-12-10 0-10 0-10-357-180-728-340-1080-540l-11 9v-20c-30-18-66-10-92-30v-14c-10 8-67-23-80-36l-13 6c-57-58-141-47-200-110-11 9-67-30-80-42a20632 20632 0 01-1106-546c-137-6-50-240-80-334-6-822-27-1650-31-2472-23-868-20-1753-43-2618 0-186-13-440-6-625l20-15a1374 1374 0 01 24-291H5790a2086 2086 0 00-37 237v-10 10c-46-1506-35-3050-74-4560 158 0 100 100 111 237 0 367 17 749 12 1110h12a166 166 0 00-10 100c0 36 10 70 10 90v49c0 57-11 130 9 148a141 141 0 00-10 76 282 282 0 00 10 68 2944 2944 0 00-6 300h13a49 49 0 00-12 46s21-1 12 5c-27 52 7 159-13 236 33 215-12 560 25 763a629 629 0 00 0 200 1685 1685 0 00-6 246l12 6a465 465 0 00-12 56c0 23 0 44 12 50a100 100 0 00-11 30s12 10 10 17a433 433 0 00 0 130v27a707 707 0 01 0 138h13c-20 292 14 676 0 984l13 6a513 513 0 00-13 146l13 6c-13 232 19 494 0 734l12 7c0 393 7 789 10 1184 9 670 14 1340 24 2012 0 400 12 800 15 1200 30 130 185 126 307 200a2429 2429 0 00 418 200c343 200 763 358 1094 547a1208 1208 0 01 300 146 5384 5384 0 01 640 309l12-6v12c200 68 421 208 621 286 553 278 1116 549 1672 805v13l18-7c406 217 816 406 1242 600l-7 12a100 100 0 01 74 36l25-10c360 208 761 360 1100 550l18-8c121 88 294 146 412 218l20-6a1206 1206 0 00 115 67l20-6c423 228 860 434 1300 632v12c11-10 60 24 72 36l13-6v12a5427 5427 0 01 651 316l20-6a1263 1263 0 00 318 152c-20 10 40 20 60 30-20 6 120 70 120 70 202 87 470 235 670 322v6zm82-6952-90 6100v147c-290-150-540-232-780-382l-19 6v-12a387 387 0 00-68-12 2754 2754 0 00-342-175h-10a639 639 0 00-148-85l-18 6s-5 0-10-8a68 68 0 00-40-21h-10c-68-62-183-63-243-126a3154 3154 0 01-423-200l-20 7a1893 1893 0 00-283-147c-10 18-77-50-92-50h-30c-120-84-268-120-375-192l-20 6v-12c-242-118-488-210-718-346-24 0-43-30-74-20v-10l-86-30v-10c-36-15-74-11-99-50-40 2-100-45-130-60a1635 1635 0 01-287-138c-578-254-1140-550-1720-808-220-140-475-207-682-340-644-285-1300-600-1930-917a48418 48418 0 01-1634-778c-276-115-550-260-824-382-10-920-10-1843-37-2750a1000 1000 0 00 0-280c-10-80 27-226-6-280 0-1218-16-2484-43-3710a2742 2742 0 00-6-462c0-866-10-1790-30-2666 3787 1042 7600 2102 11401 3142zm1460 1663v8h72v-70 63zm270-11509c-25 1095-40 2190-56 3284 17-1148 33-2300 62-3443a837 837 0 00-6 160zm-140 8035v-26c0-146 0-294 7-440 0 143 0 288-8 432zm-100 1379Zm603-9856v-12c-4845-20-9690-10-14530-43a1584 1584 0 00-350 6c61 4092 130 8190 184 12274l6 18c283-7 591-6 885-6v-20c-175-80-368-190-547-260-44-3900-120-7790-166-11692a3910 3910 0 01 1205 242c692 166 1400 346 2083 540 3453 877 6906 1792 10357 2680-60 4750-116 9500-190 14252h18a1954 1954 0 00 147-346c122-135 40-317 68-480 10-643 32-1300 24-1937 24-700 26-1427 30-2138 25-1017 43-2047 43-3073 15-485 38-990 20-1476 30-47 8-177 5-236a614 614 0 00 0-250c27-380 18-800 18-1190 23-610 30-1223 25-1845 23-513 20-1038 25-1561-1223-300-2444-637-3700-935-500-143-1045-270-1560-414l-20 6c-2323-600-4653-1200-6975-1780a635 635 0 00-190-54c4106-30 8240 20 12352 0-10 374-27 754-18 1130-40 554-15 1163-43 1718v85a1317 1317 0 00 246 67c-20 284-6 640-20 917 8 340-23 693-5 1034a1778 1778 0 00-6 425 6700 6700 0 00-12 850c-32 562-30 1165-31 1736a654 654 0 00 0 219c-48 1250-37 2529-62 3800h480c30-530 0-1090 38-1612 38-3466 123-6926 172-10388a1087 1087 0 00-6-255Zm-357 283c-29 1146-45 2300-62 3443q-30 2145-77 4284c0 147 0 295-8 440v27c0 1135-45 2274-50 3410v70h-74v-8c0-700 35-1394 24-2090v-10c65-3190 95-6390 148-9582h93v5h6v10zm288-417h6a2667 2667 0 00-160-273c-4800 0-9590-53-14388-50a2149 2149 0 00-185 287c4817 0 9613 45 14427 36a1077 1077 0 00 300 0zm-294 407h-84c-54 3192-84 6392-149 9583 11 690-19 1387-24 2090h73v-61c0-1136 45-2275 50-3410v-33c0-144 0-290 7-433 33-1425 56-2854 77-4284 15-1095 30-2190 55-3284a837 837 0 01 5-160h-5zm7-2v-10h-92c-54 3192-84 6392-149 9583v8c65-3191 95-6391 148-9583h93v5h8v-8Zm-140 8205c0 1135-48 2274-50 3410 6-1136 48-2275 50-3410zm-124 3470c0-700 35-1400 24-2090 11 698-24 1395-24 2092zm208-8220c-18 1430-42 2860-75 4284q48-2137 77-4284"/></svg>
