<?xml version="1.0" encoding="UTF-8"?>
<svg width="24px" height="24px" viewBox="0 0 24 24" version="1.1" fill="#44739e" xmlns="http://www.w3.org/2000/svg" xmlns:xlink="http://www.w3.org/1999/xlink">
            <path d="M 5.906,3.966 A 3.33,3.33 0 0 0 2.5,7.377 v 12.165 a 0.645,0.645 0 0 0 0.73,0.73 h 2.676 a 0.645,0.645 0 0 0 0.73,-0.73 V 7.377 c 0,-2.676 1.946,-3.406 2.676,-3.406 H 5.906 Z m -1.46,15.089 a 0.645,0.645 0 0 1 -0.73,-0.729 0.777,0.777 0 0 1 0.73,-0.73 0.645,0.645 0 0 1 0.73,0.73 0.776,0.776 0 0 1 -0.73,0.729 m 0,-3.406 a 0.73,0.73 0 1 1 0,-1.459 0.645,0.645 0 0 1 0.73,0.729 0.776,0.776 0 0 1 -0.73,0.73 m 0,-3.649 a 0.645,0.645 0 0 1 -0.73,-0.73 0.646,0.646 0 0 1 0.73,-0.73 0.645,0.645 0 0 1 0.73,0.73 0.645,0.645 0 0 1 -0.73,0.73 m 0,-3.163 a 0.645,0.645 0 0 1 -0.73,-0.73 0.646,0.646 0 0 1 0.73,-0.73 0.777,0.777 0 0 1 0.73,0.73 0.776,0.776 0 0 1 -0.73,0.73 M 18.314,3.728 h -3.649 c 0.729,0 2.676,0.73 2.676,3.406 v 12.408 a 0.645,0.645 0 0 0 0.73,0.73 h 2.676 a 0.645,0.645 0 0 0 0.73,-0.73 V 7.377 A 3.345,3.345 0 0 0 18.314,3.728 m 1.216,15.084 c -0.486,0 -0.73,-0.243 -0.73,-0.486 a 0.73,0.73 0 0 1 1.46,0 c 0,0.486 -0.243,0.486 -0.73,0.486 M 18.8,14.676 a 0.73,0.73 0 0 1 1.46,0 0.73,0.73 0 0 1 -1.46,0 M 19.53,12 a 0.645,0.645 0 0 1 -0.73,-0.73 0.73,0.73 0 0 1 1.46,0 0.645,0.645 0 0 1 -0.73,0.73 m 0,-3.406 a 0.645,0.645 0 0 1 -0.73,-0.73 0.778,0.778 0 0 1 0.73,-0.73 0.645,0.645 0 0 1 0.73,0.73 0.645,0.645 0 0 1 -0.73,0.73 M 11.988,3.728 c -4.136,0 -4.136,3.163 -4.136,3.649 h 8.272 c 0,0 0.487,-3.649 -4.136,-3.649 M 10.529,6.4 c -0.487,0 -0.73,-0.243 -0.73,-0.486 0,-0.487 0.243,-0.73 0.486,-0.73 0.243,0 0.73,0.243 0.73,0.486 0,0.243 -0.243,0.73 -0.486,0.73 m 3.406,0 c -0.244,0 -0.73,-0.243 -0.73,-0.486 0,-0.487 0.243,-0.73 0.486,-0.73 0.243,0 0.73,0.243 0.73,0.486 0,0.243 -0.243,0.73 -0.486,0.73"/>

</svg>