<?xml version="1.0" encoding="UTF-8"?>
<svg width="24px" height="24px" viewBox="0 0 24 24" fill="#44739e" version="1.1" xmlns="http://www.w3.org/2000/svg" xmlns:xlink="http://www.w3.org/1999/xlink">
            <path d="M 9.089,3.519 H 5.544 A 3.678,3.678 0 0 0 2,7.316 v 8.861 a 0.671,0.671 0 0 0 0.759,0.76 h 2.785 a 0.671,0.671 0 0 0 0.76,-0.76 V 7.063 c 0,-2.785 2.025,-3.544 2.785,-3.544 m -5.064,11.9 a 0.671,0.671 0 0 1 -0.759,-0.76 0.808,0.808 0 0 1 0.759,-0.759 0.671,0.671 0 0 1 0.76,0.759 0.671,0.671 0 0 1 -0.76,0.76 m 0,-3.291 a 0.672,0.672 0 0 1 -0.759,-0.76 0.671,0.671 0 0 1 0.759,-0.759 0.808,0.808 0 0 1 0.76,0.759 0.672,0.672 0 0 1 -0.76,0.76 m 0,-3.545 A 0.671,0.671 0 0 1 3.266,7.824 0.671,0.671 0 0 1 4.025,7.064 0.809,0.809 0 0 1 4.785,7.824 0.671,0.671 0 0 1 4.025,8.583 M 18.456,3.519 h -3.8 c 0.76,0 2.785,0.759 2.785,3.544 v 9.114 c 0.253,0.507 0.506,0.76 1.013,0.76 h 2.785 a 0.671,0.671 0 0 0 0.759,-0.76 V 7.063 A 3.811,3.811 0 0 0 18.454,3.519 m 1.266,11.9 a 0.671,0.671 0 0 1 -0.76,-0.76 1.14,1.14 0 0 1 0.76,-0.759 0.808,0.808 0 0 1 0.759,0.759 0.671,0.671 0 0 1 -0.759,0.76 m 0,-3.291 a 0.672,0.672 0 0 1 -0.76,-0.76 0.808,0.808 0 0 1 0.76,-0.759 0.671,0.671 0 0 1 0.759,0.759 0.672,0.672 0 0 1 -0.759,0.76 m 0,-3.545 a 0.671,0.671 0 0 1 -0.76,-0.759 0.76,0.76 0 1 1 1.519,0 0.671,0.671 0 0 1 -0.759,0.759 M 7.57,7.316 h 8.607 c 0,0 0.507,-3.8 -4.3,-3.8 -4.3,0 -4.3,3.291 -4.3,3.8 m 6.076,-2.531 c 0.506,0 0.759,0.253 0.759,0.506 0,0.253 -0.26,1.009 -0.512,1.009 -0.252,0 -0.76,-0.253 -0.76,-0.507 -0.253,-0.506 0,-0.759 0.507,-1.012 m -3.545,0 c 0.507,0 0.76,0.253 0.76,0.506 C 10.862,5.54 10.608,6.3 10.354,6.3 10.1,6.3 9.6,6.051 9.6,5.8 9.347,5.294 9.6,5.041 10.106,4.788 m 6.836,12.152 a 0.744,0.744 0 0 1 -0.76,-0.76 V 8.582 H 7.57 v 7.595 a 0.936,0.936 0 0 1 -0.507,0.76 h 3.8 V 18.2 H 8.835 a 1.088,1.088 0 0 0 -1.012,1.012 v 0.253 a 1.088,1.088 0 0 0 1.012,1.013 h 6.33 a 1.088,1.088 0 0 0 1.012,-1.013 V 19.212 A 1.088,1.088 0 0 0 15.165,18.2 h -2.026 v -1.263 z"/>

</svg>