<svg xmlns="http://www.w3.org/2000/svg" viewBox="0 0 24 24"><path fill="#44739e" d="M9.092 3.527H5.549a3.68 3.68 0 0 0-3.542 3.795v8.855a.67.67 0 0 0 .759.76h2.783a.67.67 0 0 0 .759-.76V7.069c0-2.783 2.024-3.542 2.784-3.542M4.031 15.42a.67.67 0 0 1-.759-.76.81.81 0 0 1 .759-.758.67.67 0 0 1 .759.758.67.67 0 0 1-.759.76m0-3.289a.672.672 0 0 1-.759-.76.67.67 0 0 1 .759-.758.81.81 0 0 1 .759.758.672.672 0 0 1-.759.76m0-3.543a.67.67 0 0 1-.759-.758.67.67 0 0 1 .759-.76.81.81 0 0 1 .759.76.67.67 0 0 1-.759.758m14.422-5.061h-3.798c.76 0 2.784.759 2.784 3.542v9.108c.253.507.505.76 1.012.76h2.783a.67.67 0 0 0 .759-.76V7.069a3.81 3.81 0 0 0-3.542-3.542m1.265 11.893a.67.67 0 0 1-.759-.76 1.14 1.14 0 0 1 .759-.758.81.81 0 0 1 .759.758.67.67 0 0 1-.759.76m0-3.289a.672.672 0 0 1-.759-.76.81.81 0 0 1 .759-.758.67.67 0 0 1 .759.758.672.672 0 0 1-.759.76m0-3.543a.67.67 0 0 1-.759-.758.76.76 0 1 1 1.518 0 .67.67 0 0 1-.759.758M7.574 7.322h8.601s.507-3.798-4.297-3.798c-4.297 0-4.297 3.289-4.297 3.798m6.072-2.53c.506 0 .759.253.759.506s-.26 1.008-.512 1.008-.76-.252-.76-.506c-.253-.506 0-.759.507-1.012m-3.543 0c.507 0 .76.253.76.506s-.254 1.012-.508 1.012-.754-.248-.754-.499c-.252-.506 0-.759.506-1.012M16.94 16.94a.744.744 0 0 1-.76-.76V8.587H7.574v7.59a.94.94 0 0 1-.507.76h3.798v1.262H8.838a1.09 1.09 0 0 0-1.011 1.012v.252a1.09 1.09 0 0 0 1.011 1.013h6.326a1.09 1.09 0 0 0 1.011-1.013v-.252a1.09 1.09 0 0 0-1.011-1.012h-2.025v-1.262Z"/></svg>