<svg viewBox="0 0 24 24" height="24px" width="24px" fill="#44739e" xmlns="http://www.w3.org/2000/svg"><title>hue:lightstrip-tv-off</title><path d="M17,5.8C17,5.4,16.7,5,16.2,5s-0.8,0.3-0.8,0.8s0.3,0.8,0.8,0.8S17.1,6.2,17,5.8z M13.1,5.8c0-0.4-0.3-0.8-0.8-0.8s-0.8,0.3-0.8,0.8s0.3,0.8,0.8,0.8S13.2,6.2,13.1,5.8z M21.8,3.4H5.9L7,4.5h14.8c0,0.1,0,0.2,0,0.2v10.2h-0.1c0,0.1-0.1,0.2-0.2,0.2H19c-0.2,0-0.3,0-0.4-0.1 c-0.1-0.1-0.1-0.2-0.1-0.2V9c0-0.6-0.2-0.9-0.4-1.1c-0.4-0.4-0.9-0.4-1-0.4h-7.09l8.62,8.6h0.67h1.2h1c0.7,0,1.2-0.6,1.2-1.2V4.7 C22.7,4.4,22.7,3.4,21.8,3.4z M20.2,10.4c0.5,0,0.9-0.4,0.8-0.8c0-0.4-0.3-0.8-0.8-0.8s-0.8,0.3-0.8,0.8S19.7,10.4,20.2,10.4z M9.1,5.8C9.1,5.4,8.8,5,8.3,5C8.05,5,7.85,5.07,7.71,5.21l1.17,1.17C9.06,6.23,9.15,6.02,9.1,5.8z M4.3,12.6c-0.5,0-0.8,0.3-0.8,0.8s0.3,0.8,0.8,0.8s0.9-0.4,0.8-0.8C5.1,13,4.8,12.6,4.3,12.6z M4.4,8.8c-0.5,0-0.8,0.3-0.8,0.8s0.3,0.8,0.8,0.8S5.3,10,5.2,9.6C5.2,9.2,4.9,8.8,4.4,8.8z M20.2,6.6c0.5,0,0.9-0.4,0.8-0.8C21,5.4,20.7,5,20.2,5s-0.8,0.3-0.8,0.8S19.7,6.6,20.2,6.6z M20.2,14.1c0.5,0,0.9-0.4,0.8-0.8c0-0.4-0.3-0.8-0.8-0.8s-0.8,0.3-0.8,0.8S19.7,14.1,20.2,14.1z M1.45,3.28l0.64,0.64C1.92,4.14,1.8,4.41,1.8,4.7v10.2c0,0.7,0.5,1.2,1.2,1.2h0.4h8.2v2.8h-1.4 c-0.4,0-0.8,0.3-0.8,0.8s0.3,0.8,0.8,0.8h4.4c0.4,0,0.8-0.3,0.8-0.8s-0.3-0.8-0.8-0.8h-1.5v-2.8h1.2l6.28,6.26l1.41-1.42L2.86,1.87 L1.45,3.28z M5.9,8.8v6c0,0.2-0.2,0.3-0.2,0.3H3.1c-0.1,0-0.2-0.1-0.2-0.2V4.73l0.75,0.75C3.62,5.58,3.6,5.68,3.6,5.8 c0,0.5,0.3,0.8,0.8,0.8c0.11,0,0.22-0.03,0.31-0.06l1.47,1.47C5.99,8.26,5.9,8.56,5.9,8.8z"/></svg>