<svg xmlns="http://www.w3.org/2000/svg" viewBox="0 0 24 24"><path fill="#44739e" d="M2.907 6.406v.727c.689.349 1.373.715 2.089 1.004l-.471 1.757 2.108.564.462-1.724c1.07.25 2.314.454 3.814.518v1.796h2.181V9.253a20.4 20.4 0 0 0 3.815-.518l.461 1.723 2.108-.564-.471-1.757c.653-.25 1.42-.635 2.089-1.004v-.636s-.81.449-2.272 1.008c-1.463.559-3.706 1.122-6.821 1.122s-5.358-.563-6.82-1.122-2.272-1.1-2.272-1.1m16.851 4.177a.4.4 0 0 0-.096.012l-2.108.566a.364.364 0 0 0-.257.445l.212.794a2.55 2.55 0 0 0-.514 2.299 2.546 2.546 0 1 0 3.324-3.052l-.213-.795a.364.364 0 0 0-.348-.269m-15.53.002a.36.36 0 0 0-.337.268l-.212.794a2.546 2.546 0 0 0 .207 4.852 2.546 2.546 0 0 0 2.603-4.1l.213-.793a.364.364 0 0 0-.257-.445l-2.108-.566a.4.4 0 0 0-.109-.01m6.681 1.191a.364.364 0 0 0-.363.364v.822a2.544 2.544 0 0 0 1.453 4.634 2.544 2.544 0 0 0 1.455-4.634v-.821a.364.364 0 0 0-.363-.364Z"/></svg>