<?xml version="1.0" encoding="UTF-8"?>
<svg width="33px" height="32px" viewBox="0 0 33 32" version="1.1" xmlns="http://www.w3.org/2000/svg" xmlns:xlink="http://www.w3.org/1999/xlink">
    <!-- Generator: Sketch 51.3 (57544) - http://www.bohemiancoding.com/sketch -->
    <title>lily-xl</title>
    <style>path{fill:#000}@media (prefers-color-scheme:dark){path{fill:#fff}}</style>
            <path d="M 10.305181,22.262247 C 9.402292,22.22838 8.5179225,22.137061 7.7862005,22.001655 7.6085686,21.96856 7.4385931,21.937694 7.408542,21.932464 l -0.054787,-0.0093 v -0.314916 -0.314932 l 0.099739,-0.06156 C 7.788335,21.025041 8.5066733,20.913411 9.6508202,20.89021 l 0.5061288,-0.01029 0.0099,-0.463799 c 0.0051,-0.255096 0.0086,-0.465008 0.0069,-0.466457 -0.0017,-0.0017 -0.116655,-0.01526 -0.255414,-0.03061 C 8.6108453,19.775032 7.6717318,19.428839 7.2980343,18.953156 6.9090069,18.457994 6.6829331,17.166266 6.6143856,15.046978 L 6.5980954,14.54842 6.4185858,14.315487 C 5.8983965,13.640387 5.5821006,13.035462 5.2827637,12.143136 4.7179392,10.459343 4.916071,9.0669138 5.8348389,8.2636947 5.989596,8.1283916 6.2238921,7.9632346 6.3545224,7.8973621 6.4276569,7.8604091 6.4445473,7.8422326 6.4705259,7.7732564 6.5538632,7.5513152 6.6940533,7.3207829 6.8181075,7.2017529 6.8893558,7.133334 7.5536706,6.7095999 9.8844908,5.2457358 13.185574,3.1725234 14.965614,2.07825 15.384795,1.8644967 c 0.529406,-0.2699544 1.07698,-0.2080001 1.594537,0.1804356 0.638645,0.4793179 1.231892,1.4448987 1.635315,2.6616661 0.297605,0.8975821 0.411207,1.7565821 0.387055,2.926828 -0.05504,2.6609806 -0.830218,4.9894046 -1.889124,5.6730706 -0.317025,0.204665 -1.879025,0.941334 -4.016138,1.894072 -0.295976,0.131933 -0.738666,0.3304 -0.983757,0.440976 -0.313827,0.141622 -0.48201,0.208112 -0.568554,0.224856 -0.180444,0.03498 -0.516897,0.07433 -0.633355,0.07442 -0.08596,1.7e-5 -0.138347,0.0156 -0.344564,0.101728 -0.446703,0.186874 -0.6247035,0.239766 -0.777017,0.230926 -0.072448,-0.0043 -0.1317106,-0.0026 -0.1316763,0.0026 4.63e-4,0.06293 0.040125,0.53395 0.060274,0.716117 0.094878,0.855931 0.2894853,1.496513 0.5446243,1.792567 l 0.06379,0.07408 h 1.006744 c 1.070421,0 1.139937,0.0043 1.276141,0.08162 0.106666,0.06044 0.16081,0.142916 0.171536,0.261132 0.02495,0.276959 -0.156361,0.426237 -0.642778,0.528866 l -0.184979,0.0391 -0.0043,0.554631 -0.0043,0.554587 0.525736,0.02058 c 1.174139,0.04578 1.787362,0.1358 2.141846,0.314007 l 0.153059,0.07691 0.01072,0.163279 c 0.01655,0.248649 -0.01715,0.39442 -0.09465,0.411679 -0.02058,0.0043 -0.131907,0.03567 -0.247508,0.06876 -0.910468,0.262118 -2.506283,0.389199 -4.128454,0.328694 z m 5.280018,-10.001641 c 0.779469,-0.364747 0.981391,-1.333082 0.571838,-2.7423762 -0.426581,-1.4678855 -1.525364,-3.0952776 -2.369634,-3.5095891 -0.08257,-0.040554 -0.158941,-0.073649 -0.169719,-0.073649 -0.02469,0 -0.08068,0.2037905 -0.124586,0.4540511 -0.154551,0.8821149 -0.09233,2.3688542 0.15204,3.6323662 0.158735,0.82078 0.416669,1.568906 0.637007,1.84764 0.283355,0.35847 0.947379,0.558026 1.303054,0.391582 z M 8.1359942,11.318533 C 8.452273,11.174862 8.5557158,10.471329 8.3038606,10.177075 8.1672886,10.017551 7.9520863,9.9897375 7.8234108,10.115001 c -0.3455754,0.336377 -0.2158796,1.236258 0.1779234,1.234501 0.037039,-2.06e-4 0.097587,-0.01423 0.13466,-0.03095 z"></path>

</svg>