<svg xmlns="http://www.w3.org/2000/svg" viewBox="0 0 24 24"><path fill="#44739e" d="M18.921 6.666c-.243-2.434-.974-3.9-1.947-4.382a1.415 1.415 0 0 0-1.7 0L6.992 7.153c-.243.243-.487.487-.487.73l-.486.244a1.68 1.68 0 0 0-.974 1.217 7.55 7.55 0 0 0 1.46 5.113 25 25 0 0 0 .244 2.678 2.63 2.63 0 0 0 .73 1.7 3.32 3.32 0 0 0 2.678.974h.244v.73c-2.922 0-3.165.244-3.165.731s0 .73 3.651.73 3.652 0 3.652-.73c0-.487 0-.731-3.165-.731v-.73c1.218-.243 1.461-.243 1.461-.73 0-.731-1.217-.731-1.461-.731-.487 0-.73 0-.973-.243-.244 0-.487-.73-.487-1.948.243 0 .487-.243.73-.243.243.243.73 0 1.217-.244 1.217-.243 4.382-1.948 4.626-1.948s2.921-1.948 2.434-7.06m-3.408 5.843c-3.165 1.217-2.191-6.573-2.191-6.573 1.217-.487 5.6 5.356 2.191 6.573"/></svg>