<?xml version="1.0" encoding="UTF-8"?>
<svg width="33px" height="32px" viewBox="0 0 33 32" version="1.1" fill="#44739e" xmlns="http://www.w3.org/2000/svg" xmlns:xlink="http://www.w3.org/1999/xlink">
            <path d="M20.55,6.31c-0.26-2.72-0.98-4.4-2.16-5c-0.7-0.36-1.4-0.22-1.78,0.01L7.53,6.73C7.3,6.88,6.97,7.2,6.92,7.63 L6.49,7.88C6.42,7.91,5.77,8.27,5.51,9.25c-0.37,1.37,0.15,3.22,1.56,5.5c0.01,1.11,0.17,3,0.18,3.04c0,0.04,0,1.1,0.87,1.92 c0.65,0.62,1.6,0.93,2.82,0.93c0.12,0,0.26-0.01,0.39-0.01v0.87c-3.27,0.01-3.37,0.14-3.37,0.75c0,0.65,0.11,0.75,3.97,0.75 s3.97-0.11,3.97-0.75c0-0.61-0.1-0.74-3.37-0.75v-0.96c1.32-0.14,1.7-0.36,1.67-0.84c-0.04-0.74-1.36-0.71-1.62-0.7l-0.22,0.01 c-0.49,0.04-0.83,0.04-1.09-0.2c-0.24-0.22-0.52-0.78-0.54-2.12c0.29-0.12,0.59-0.22,0.8-0.3c0.33,0.14,0.8,0.02,1.39-0.2 c1.22-0.45,4.91-2.19,5.14-2.3C18.17,13.81,21.07,11.76,20.55,6.31z M16.96,12.57c-3.61,1.39-2.46-7.12-2.46-7.12 C15.71,4.92,20.57,11.17,16.96,12.57z"></path>

</svg>