<?xml version="1.0" encoding="UTF-8"?>
<svg width="33px" height="32px" viewBox="0 0 24 24" version="1.1" fill="#44739e" xmlns="http://www.w3.org/2000/svg" xmlns:xlink="http://www.w3.org/1999/xlink">
            <path d="M20.5,6.6c0-1-0.4-2.1-1-3.2c-0.6-1.1-1.4-2-2.3-2.5c-0.9-0.6-1.8-0.7-2.5-0.3c0,0,0,0,0,0c0,0,0,0,0,0L4.5,6.7c0,0,0,0,0,0 c-0.7,0.4-1,1.2-1,2.3c0,1,0.4,2.1,1,3.2c0.6,1.1,1.4,2,2.3,2.5C7,14.8,7.2,14.9,7.4,15c0.1,1.5,0.4,2.8,0.6,3.2 c0.3,0.4,1,0.9,1.9,1.2c-1.8,0.2-3.7,0.6-3.7,1.8v0.7c0,1.4,3.2,1.8,5.1,1.8c1.9,0,5.1-0.4,5.1-1.8v-0.7c0-1-1.6-1.5-3.2-1.7 c0.7-0.2,1-0.6,1.2-0.7c0.2-0.1,0.3-0.4,0.3-0.7c-0.1-0.6-0.7-0.9-1.2-1c-0.9-0.3-1.4-0.3-1.8-0.2c-0.2-0.7-0.2-1.9-0.2-3.1l8-4.7 c0,0,0,0,0,0c0,0,0,0,0,0c0,0,0,0,0,0c0,0,0,0,0.1,0c0,0,0,0,0,0C20.2,8.4,20.6,7.7,20.5,6.6z M16.7,1.7c0.7,0.5,1.4,1.2,1.9,2.2 c0.5,0.9,0.9,1.9,0.9,2.8c0,0.7-0.1,1.2-0.5,1.4c-0.3,0.2-0.9,0.1-1.5-0.3c-0.7-0.5-1.4-1.2-1.9-2.2c-0.5-0.9-0.9-1.9-0.9-2.8 c0-0.5,0.1-1,0.3-1.2c0,0,0,0,0,0c0.1-0.1,0.1-0.1,0.2-0.2c0,0,0,0,0,0c0.1-0.1,0.2-0.1,0.4-0.1C15.9,1.3,16.3,1.5,16.7,1.7z"/>

</svg>