<svg xmlns="http://www.w3.org/2000/svg" viewBox="0 0 24 24"><path fill="#44739e" d="M6.089 10.004a.14.14 0 0 0-.008-.057 1.5 1.5 0 0 0-.219-.211 1.7 1.7 0 0 0-.362-.215 1.53 1.53 0 0 0-1.079-.035 1.6 1.6 0 0 0-.46.25 1.5 1.5 0 0 0-.219.211.14.14 0 0 0-.008.057.3.3 0 0 0 0 .053 2 2 0 0 0 .195.206.1.1 0 0 0 .067 0 .2.2 0 0 0 .047-.044 1.2 1.2 0 0 1 .476-.315 1.18 1.18 0 0 1 .779 0 1.2 1.2 0 0 1 .476.315.2.2 0 0 0 .047.044.1.1 0 0 0 .065 0 2 2 0 0 0 .2-.207.3.3 0 0 0 .003-.052m-.619.331a.9.9 0 0 0-.362-.183.9.9 0 0 0-.393 0 .9.9 0 0 0-.362.183 1 1 0 0 0-.119.122.1.1 0 0 0-.008.058v.058a2 2 0 0 0 .191.2.1.1 0 0 0 .071 0 .2.2 0 0 0 .035-.032l.052-.052a.5.5 0 0 1 .6-.049.6.6 0 0 1 .118.1.2.2 0 0 0 .035.032.1.1 0 0 0 .071 0 2 2 0 0 0 .194-.2.3.3 0 0 0 0-.108.7.7 0 0 0-.123-.129m-.614 1.417a.4.4 0 0 0 .265-.057.44.44 0 0 0 .207-.394.43.43 0 0 0-.235-.376.35.35 0 0 0-.187-.042.3.3 0 0 0-.089.008.435.435 0 0 0-.325.448.43.43 0 0 0 .118.283.4.4 0 0 0 .246.13M3.439 9.746a.1.1 0 0 0 .071 0 .4.4 0 0 0 .069-.062 1.9 1.9 0 0 1 .474-.356 1.8 1.8 0 0 1 .621-.2 2 2 0 0 1 .389-.01 1.87 1.87 0 0 1 1.181.564.4.4 0 0 0 .069.062.1.1 0 0 0 .07 0 1.5 1.5 0 0 0 .191-.2.2.2 0 0 0 0-.055.1.1 0 0 0-.008-.056 1.6 1.6 0 0 0-.2-.2 2.2 2.2 0 0 0-1.135-.53 1.7 1.7 0 0 0-.327-.021 1.7 1.7 0 0 0-.326.021 2.2 2.2 0 0 0-1.135.53 1.6 1.6 0 0 0-.2.2.1.1 0 0 0-.008.056.2.2 0 0 0 0 .055 1.6 1.6 0 0 0 .204.202m15.096 4.35-.02-.052h-.006l-.034-.07v-.01l-.035-.072v-.008l-.036-.074v-.014l-.037-.075-.038-.077-.165-.339a.8.8 0 0 0-.126-.257l-.138-.283c0-.014-.008-.028-.01-.043h-.939l-1.283 2.565h.882c.032-.257.193-.365.241-.6.623.044 1.233-.255 1.401.6h.922a3 3 0 0 0-.191-.391Zm-.942.269c-.842.211-.594-.818-.28-1.123.376.021.618.799.28 1.119Zm-4.892-1.648h-.962a14 14 0 0 0-.921 1.123h-.04a4 4 0 0 0-.041-1.123 3.1 3.1 0 0 0-.881.04v2.525h.922v-1c.909.8.59 1.115 2 1-1.493-1.742-1.577-.822-.077-2.565m9.261.401-.04-.08c-.064-.2-.521-.321-.521-.321h-1.884v2.565h.8v-.6c.66.009 1.515.083 1.643-.441l.04-.12v-.925Zm-1.643.842v-.6c1.358-.212 1.361.793 0 .6m-7.496-1.523h.962v2.845h.841v-2.845h1.002v-.682h-2.805Zm-3.688.28a2.8 2.8 0 0 0-.8.04v1.288l-.9-.737-.027-.03h-.007l-.235-.193a.3.3 0 0 0-.092-.077l-.111-.09c-.182-.258-.622-.23-.955-.2v2.565h.721v-1.36l1.277 1.081.032.027.04.034a1.38 1.38 0 0 0 1.1.22c-.034-.562.064-2.058-.043-2.568m-6.253-.962H2v3.527h2.124v-.681H2.882Zm2.405.962h-.8v2.565h.842c-.029-.559.065-2.055-.042-2.565"/></svg>