<svg xmlns="http://www.w3.org/2000/svg" viewBox="0 0 24 24"><path fill="#44739e" d="M12.1 16.74a8.36 8.36 0 0 1-6.121-2.899l.877 6.379a2 2 0 0 0 1.968 1.73l6.233.05a2.31 2.31 0 0 0 2.317-2.085l.612-6.213A7 7 0 0 1 12.1 16.74m5.529.161q-.59.15-1.185.277a1 1 0 0 1 .031.248 2.79 2.79 0 0 1-.975 2.373c-.49.313-1.214.4-3.37.428h-.443c-2.37 0-2.792-.226-3.146-.563a3.04 3.04 0 0 1-.844-1.993l-.02-.449-.052-.011-1-.212.039-.183q.552.115 1 .213v-.01l.123.036.737.158a29 29 0 0 0 3.528.358 24 24 0 0 0 3.974-.5l.235-.049h.015q.657-.141 1.312-.3Zm-5.295.867h-.691a13 13 0 0 1-3.111-.354 11 11 0 0 1-.677-.138l.018.393a2.85 2.85 0 0 0 .788 1.867c.339.325.766.536 3.457.508 2.088-.022 2.822-.111 3.273-.4a2.61 2.61 0 0 0 .893-2.213.6.6 0 0 0-.029-.21 24 24 0 0 1-3.921.547M12 2.001a7.225 7.225 0 0 0-7.311 7.137A7.226 7.226 0 0 0 12 16.276a7.226 7.226 0 0 0 7.311-7.138A7.226 7.226 0 0 0 12 2.001m5.4 9.57a1.23 1.23 0 0 1-.172.772 4.87 4.87 0 0 1-1.9 1.726 6.7 6.7 0 0 1-2.422.799 6 6 0 0 1-.907.068 6 6 0 0 1-2.176-.399 8 8 0 0 1-.93-.352 4.7 4.7 0 0 1-2.1-1.63 1.4 1.4 0 0 1-.215-1.041 6.009 6.009 0 1 1 10.822.057m-10.546.018-.066-.016c0 1.933 3.341 3.2 5.274 3.2s5.036-1.31 5.036-3.243a20.9 20.9 0 0 1-10.244.059m2.208 9.918"/></svg>