<?xml version="1.0" encoding="UTF-8"?>
<svg width="24px" fill="#44739e" height="24px" viewBox="0 0 24 24" version="1.1" xmlns="http://www.w3.org/2000/svg" xmlns:xlink="http://www.w3.org/1999/xlink">
            <path d="m 12,16.277 v 0 z m 0.1,0.464 a 8.364,8.364 0 0 1 -6.121,-2.9 l 0.877,6.38 a 2,2 0 0 0 1.968,1.73 l 6.233,0.05 a 2.311,2.311 0 0 0 2.317,-2.085 l 0.612,-6.214 A 7,7 0 0 1 12.1,16.741 Z m 5.529,0.161 q -0.59,0.15 -1.185,0.277 A 0.986,0.986 0 0 1 16.475,17.427 2.792,2.792 0 0 1 15.5,19.8 c -0.49,0.313 -1.214,0.4 -3.37,0.428 h -0.443 c -2.37,0 -2.792,-0.226 -3.146,-0.563 A 3.04,3.04 0 0 1 7.697,17.672 L 7.677,17.223 7.625,17.212 6.625,17 6.664,16.817 q 0.552,0.115 1,0.213 v -0.01 l 0.123,0.036 c 0.27,0.058 0.513,0.111 0.737,0.158 a 29.2,29.2 0 0 0 3.528,0.358 24.034,24.034 0 0 0 3.974,-0.5 l 0.235,-0.049 h 0.015 q 0.657,-0.141 1.312,-0.3 z m -5.295,0.867 H 11.643 A 12.987,12.987 0 0 1 8.532,17.415 C 8.305,17.376 8.08,17.33 7.855,17.277 l 0.018,0.393 a 2.85,2.85 0 0 0 0.788,1.867 c 0.339,0.325 0.766,0.536 3.457,0.508 2.088,-0.022 2.822,-0.111 3.273,-0.4 a 2.61,2.61 0 0 0 0.893,-2.213 0.6,0.6 0 0 0 -0.029,-0.21 24,24 0 0 1 -3.921,0.547 z M 12,2 A 7.226,7.226 0 0 0 4.688,9.138 7.227,7.227 0 0 0 12,16.277 7.227,7.227 0 0 0 19.312,9.138 v 0 A 7.227,7.227 0 0 0 12,2 Z m 5.4,9.571 a 1.23,1.23 0 0 1 -0.172,0.772 4.867,4.867 0 0 1 -1.9,1.726 6.707,6.707 0 0 1 -2.422,0.8 6.123,6.123 0 0 1 -0.907,0.068 6.015,6.015 0 0 1 -2.176,-0.4 8.076,8.076 0 0 1 -0.93,-0.352 4.694,4.694 0 0 1 -2.1,-1.63 A 1.4,1.4 0 0 1 6.578,11.514 6.009,6.009 0 1 1 17.4,11.571 Z M 6.854,11.589 6.788,11.573 c 0,1.933 3.341,3.2 5.274,3.2 1.933,0 5.036,-1.31 5.036,-3.243 A 20.884,20.884 0 0 1 6.854,11.589 Z m 2.208,9.919 v 0 -10e-4 z"/>

</svg>