<?xml version="1.0" encoding="UTF-8"?>
<svg width="24px" fill="#44739e" height="24px" viewBox="0 0 24 24" version="1.1" xmlns="http://www.w3.org/2000/svg" xmlns:xlink="http://www.w3.org/1999/xlink">
            <path d="m 12.839521,11.022 v 0.024 a 0.658,0.658 0 0 0 0.229,0.529 0.87,0.87 0 0 1 -0.071,-0.121 0.552,0.552 0 0 1 -0.057,-0.324 l 0.032,-0.137 0.035,0.147 0.01,0.046 a 0.583,0.583 0 0 0 0.5,0.5 0.481,0.481 0 0 0 0.4,-0.161 0.683,0.683 0 0 0 0.169,-0.522 0.07,0.07 0 0 0 -0.006,-0.028 v 0 h -0.016 v 0 a 0.2,0.2 0 0 1 -0.172,-0.188 0.19,0.19 0 0 1 0.143,-0.192 0.207,0.207 0 0 1 0.234,0.146 0.778,0.778 0 0 1 0,0.583 0.763,0.763 0 0 1 -0.8,0.494 0.69,0.69 0 0 0 0.671,-0.17 0.887,0.887 0 0 0 0.105,-1.15 l -0.029,-0.036 0.086,-0.036 0.147,-0.061 h 0.008 a 0.191,0.191 0 0 0 0.055,-0.03 0.145,0.145 0 0 0 -0.03,0 l -0.1,0.025 -0.171,0.044 0.1,-0.092 0.008,-0.007 c -0.181,0.09 -0.368,0.181 -0.556,0.261 a 3.439,3.439 0 0 1 -0.388,0.139 l -0.115,0.034 0.083,-0.091 c 0.036,-0.039 0.071,-0.077 0.1,-0.117 -0.034,0.027 -0.066,0.056 -0.1,0.085 l -0.034,0.03 -0.04,0.036 a 0.559,0.559 0 0 1 -0.209,0.142 0.187,0.187 0 0 1 -0.173,-0.024 0.231,0.231 0 0 1 -0.085,-0.183 0.593,0.593 0 0 1 0.011,-0.141 0.622,0.622 0 0 0 -0.069,0.208 0.182,0.182 0 0 0 0.029,0.153 0.217,0.217 0 0 1 0.066,0.185 z m -1.672,0.788 a 0.863,0.863 0 0 1 -0.2,0.007 0.77,0.77 0 0 1 -0.643,-0.559 0.741,0.741 0 0 1 0.043,-0.553 0.176,0.176 0 0 1 0.263,-0.091 0.079,0.079 0 0 1 0.044,0.047 0.074,0.074 0 0 1 -0.021,0.06 0.533,0.533 0 0 0 -0.106,0.263 0.622,0.622 0 0 0 0.2,0.582 0.454,0.454 0 0 0 0.421,0.11 0.571,0.571 0 0 0 0.384,-0.352 c 0.014,-0.035 0.026,-0.073 0.037,-0.109 l 0.021,-0.068 0.059,-0.173 0.006,0.183 a 0.687,0.687 0 0 1 -0.134,0.426 0.679,0.679 0 0 0 0.226,-0.615 v 0 a 0.072,0.072 0 0 1 0.029,-0.082 0.16,0.16 0 0 0 0.065,-0.127 0.487,0.487 0 0 0 -0.071,-0.282 q 0.006,0.03 0.012,0.063 a 0.3,0.3 0 0 1 -0.037,0.22 0.189,0.189 0 0 1 -0.13,0.08 0.24,0.24 0 0 1 -0.173,-0.052 1.2,1.2 0 0 1 -0.176,-0.149 c -0.029,-0.028 -0.059,-0.058 -0.091,-0.084 l -0.019,-0.017 -0.02,-0.017 c 0.034,0.044 0.072,0.088 0.113,0.133 l 0.086,0.095 -0.116,-0.043 a 4.8,4.8 0 0 1 -0.576,-0.229 l -0.248,-0.12 -0.092,-0.044 0.026,0.017 -0.043,0.029 a 0.052,0.052 0 0 1 -0.047,0.008 l -0.041,-0.01 c -0.035,-0.01 -0.069,-0.019 -0.1,-0.027 -0.007,0 -0.011,0 -0.012,0 v 0 c 0,0 0,0.006 0.015,0.013 l 0.013,0.005 h 0.011 l 0.068,0.027 a 1.413,1.413 0 0 1 0.152,0.067 l 0.039,0.022 -0.031,0.032 a 0.885,0.885 0 0 0 0.087,1.119 0.669,0.669 0 0 0 0.707,0.195 z m 1.219,2.909 a 5.946,5.946 0 0 0 4.913,-2.465 0.914,0.914 0 0 0 0.109,-0.787 9.869,9.869 0 0 1 -1.26,0.421 0.8,0.8 0 0 1 0.1,0.414 v 0 0 a 0.716,0.716 0 0 1 -0.107,0.3 0.343,0.343 0 0 1 -0.125,0.072 0.045,0.045 0 0 1 0,0.02 v 0.013 l -0.007,0.01 a 0.038,0.038 0 0 1 -0.034,0.021 0.412,0.412 0 0 0 -0.121,0.024 0.51,0.51 0 0 1 -0.142,0.026 h -0.026 a 0.489,0.489 0 0 1 -0.131,-0.012 0.131,0.131 0 0 0 -0.1,0.01 0.45,0.45 0 0 1 -0.391,0.013 c -0.015,-0.006 -0.021,-0.008 -0.027,-0.006 a 0.525,0.525 0 0 1 -0.436,-0.055 0.092,0.092 0 0 0 -0.047,-0.009 h -0.027 a 0.559,0.559 0 0 1 -0.31,-0.228 h 0.067 a 0.109,0.109 0 0 1 0.111,0.066 l 0.015,0.027 c 0.033,0 0.065,0.005 0.1,0.009 h 0.006 a 0.067,0.067 0 0 1 0.07,0.058 0.129,0.129 0 0 1 0.05,0.017 0.456,0.456 0 0 0 0.385,0.048 0.1,0.1 0 0 1 0.068,0.008 0.394,0.394 0 0 0 0.339,-0.01 0.19,0.19 0 0 1 0.146,-0.015 0.436,0.436 0 0 0 0.115,0.01 h 0.027 a 0.461,0.461 0 0 0 0.123,-0.019 0.719,0.719 0 0 1 0.083,-0.021 v -0.026 l 0.015,-0.01 a 0.219,0.219 0 0 1 0.07,-0.035 l 0.018,-0.029 a 0.485,0.485 0 0 0 0.151,-0.276 0.68,0.68 0 0 0 -0.143,-0.47 c -0.022,-0.035 -0.046,-0.068 -0.071,-0.1 l -0.035,-0.048 -0.026,-0.036 0.04,-0.016 c 0.047,-0.02 0.052,-0.031 0.039,-0.085 a 2.807,2.807 0 0 0 -0.1,-0.333 l -0.014,-0.038 0.038,-0.008 c 0.024,-0.005 0.058,-0.013 0.065,-0.025 a 0.149,0.149 0 0 0 -0.005,-0.079 v 0 -0.01 a 2.977,2.977 0 0 0 -0.51,-1.166 0.109,0.109 0 0 1 -0.02,-0.107 c 0.021,-0.069 0.039,-0.14 0.055,-0.211 a 7.946,7.946 0 0 0 0.181,-1.195 3.962,3.962 0 0 0 0,-0.689 c -0.015,-0.147 -0.082,-0.218 -0.209,-0.224 a 1.739,1.739 0 0 0 -0.295,0.01 2.87,2.87 0 0 0 -0.942,0.268 l -0.1,0.045 -0.123,0.058 0.029,-0.078 a 0.118,0.118 0 0 1 0.028,-0.041 l 0.006,-0.007 v 0 c -0.006,-0.008 -0.008,-0.011 -0.035,0.007 l -0.09,0.045 -0.139,0.089 0.063,-0.14 0.024,-0.051 v -0.012 0 l -0.028,0.034 a 0.43,0.43 0 0 0 -0.055,0.076 0.083,0.083 0 0 1 -0.053,0.05 0.089,0.089 0 0 1 -0.072,-0.026 1.238,1.238 0 0 0 -0.24,-0.143 2.685,2.685 0 0 0 -1.054,-0.23 2.775,2.775 0 0 0 -0.765,0.077 1.749,1.749 0 0 0 -0.706,0.311 0.059,0.059 0 0 1 -0.049,0.017 0.072,0.072 0 0 1 -0.046,-0.036 1.118,1.118 0 0 0 -0.1,-0.133 v 0 l 0.026,0.073 0.058,0.169 -0.1,-0.1 a 0.7,0.7 0 0 0 -0.123,-0.092 v 0 c -0.023,-0.014 -0.024,-0.013 -0.028,-0.009 v 0 l 0.008,0.015 0.008,0.017 0.013,0.032 -0.031,0.013 a 0.065,0.065 0 0 1 -0.064,-0.008 v 0 A 3.006,3.006 0 0 0 10.139521,7.62 2.589,2.589 0 0 0 9.1505213,7.451 c -0.125,0.005 -0.191,0.073 -0.206,0.214 a 3.5,3.5 0 0 0 -0.012,0.507 7.1,7.1 0 0 0 0.246,1.591 0.129,0.129 0 0 1 -0.024,0.124 2.39,2.39 0 0 0 -0.314,0.543 3.391,3.391 0 0 0 -0.2,0.649 c -0.008,0.039 -0.005,0.054 0,0.06 0.005,0.006 0.015,0.013 0.048,0.017 a 0.038,0.038 0 0 1 0.019,0.007 l 0.029,0.013 -0.008,0.032 a 2.252,2.252 0 0 0 -0.1,0.323 c -0.014,0.07 -0.014,0.07 0.039,0.1 l 0.031,0.02 -0.032,0.043 -0.02,0.027 a 0.848,0.848 0 0 0 -0.207,0.579 0.667,0.667 0 0 0 0.058,0.2 0.071,0.071 0 0 0 0.023,0.026 l 0.081,0.059 c 0.012,0 0.016,0.014 0.028,0.02 a 0.271,0.271 0 0 1 0.038,0.023 c 0.016,0.01 0.033,0.018 0.049,0.026 a 0.659,0.659 0 0 0 0.087,0.024 0.442,0.442 0 0 0 0.27,0.014 0.088,0.088 0 0 1 0.027,0 0.122,0.122 0 0 1 0.054,0.016 0.389,0.389 0 0 0 0.346,0.03 0.186,0.186 0 0 1 0.121,-0.007 0.411,0.411 0 0 0 0.3,-0.026 0.5,0.5 0 0 1 0.1069997,-0.041 0.061,0.061 0 0 1 0.062,-0.062 c 0.037,0 0.075,-0.006 0.112,-0.01 v -0.046 l 0.021,-0.01 0.016,-0.01 a 0.1,0.1 0 0 1 0.067,-0.027 h 0.1 c -0.06,0.045 -0.145,0.157 -0.186,0.161 h -0.015 v 0.013 a 0.055,0.055 0 0 1 -0.065,0.051 0.317,0.317 0 0 0 -0.1819997,0.041 0.477,0.477 0 0 1 -0.346,0.03 0.125,0.125 0 0 0 -0.081,0 0.442,0.442 0 0 1 -0.163,0.032 0.492,0.492 0 0 1 -0.236,-0.065 c -0.016,-0.009 -0.023,-0.01 -0.032,-0.007 a 0.576,0.576 0 0 1 -0.329,0 0.709,0.709 0 0 0 -0.144,-0.03 l -0.062,-0.03 a 0.129,0.129 0 0 1 -0.064,-0.049 0.651,0.651 0 0 1 -0.125,-0.35 v -0.029 a 0.736,0.736 0 0 1 0.1,-0.4 10.424,10.424 0 0 1 -1.424,-0.484 1.144,1.144 0 0 0 0.143,1.058 c 0.736,1.235 3.0669997,2.253 5.1909997,2.278 z m 0.089,-2.357 a 0.058,0.058 0 0 1 -0.026,0.007 h -0.158 a 1.017,1.017 0 0 1 -0.145,-0.009 l -0.055,-0.008 0.033,-0.046 c 0.05,-0.072 0.111,-0.145 0.185,-0.145 v 0 c 0.059,0 0.114,0.044 0.185,0.145 l 0.025,0.036 z m 3.5,-0.425 a 0.535,0.535 0 0 1 0.095,0.334 0.362,0.362 0 0 1 -0.324,0.335 h -0.022 a 0.115,0.115 0 0 1 -0.1,-0.018 c -0.029,-0.028 -0.011,-0.068 0,-0.1 a 0.207,0.207 0 0 0 0.012,-0.03 0.44,0.44 0 0 0 -0.062,-0.345 0.585,0.585 0 0 1 0.022,0.174 0.378,0.378 0 0 1 -0.117,0.279 0.311,0.311 0 0 1 -0.21,0.08 h -0.04 a 0.167,0.167 0 0 1 -0.127,-0.1 0.657,0.657 0 0 1 -0.061,-0.335 v 0 c 0,-0.024 0,-0.049 0,-0.074 a 0.554,0.554 0 0 0 -0.028,0.376 c 0.015,0.056 0,0.086 -0.053,0.1 a 0.314,0.314 0 0 1 -0.28,-0.044 0.326,0.326 0 0 1 -0.13,-0.251 0.569,0.569 0 0 1 0.049,-0.262 0.627,0.627 0 0 0 -0.105999,0.367 v 0.049 l -0.044,-0.017 a 0.248,0.248 0 0 1 -0.123,-0.253 0.686,0.686 0 0 1 0.189,-0.42 0.9,0.9 0 0 1 0.742999,-0.3 0.982,0.982 0 0 1 0.717,0.455 z m -5.811,0.53 -0.05,0.022 v -0.057 a 0.541,0.541 0 0 0 -0.109,-0.377 0.511,0.511 0 0 1 0.036,0.363 0.3,0.3 0 0 1 -0.2949997,0.213 h -0.02 a 0.143,0.143 0 0 1 -0.108,-0.03 0.1,0.1 0 0 1 -0.012,-0.115 0.114,0.114 0 0 0 0.008,-0.027 0.588,0.588 0 0 0 -0.042,-0.312 v 0 a 0.825,0.825 0 0 1 -0.033,0.353 0.188,0.188 0 0 1 -0.191,0.156 h -0.032 a 0.325,0.325 0 0 1 -0.228,-0.124 0.4,0.4 0 0 1 -0.072,-0.3 V 12.22 a 0.869,0.869 0 0 1 0.016,-0.1 0.423,0.423 0 0 0 -0.058,0.144 0.477,0.477 0 0 0 0.028,0.29 l 0.018,0.043 h -0.045 a 0.371,0.371 0 0 1 -0.364,-0.139 0.464,0.464 0 0 1 0,-0.482 0.926,0.926 0 0 1 0.453,-0.412 0.883,0.883 0 0 1 1.0669997,0.265 0.612,0.612 0 0 1 0.151,0.415 0.22,0.22 0 0 1 -0.118,0.223 z m 0.231,-0.165 a 0.741,0.741 0 0 0 -0.156,-0.519 0.979,0.979 0 0 0 -1.1679997,-0.355 l -0.078,0.031 -0.083,0.032 v -0.054 a 0.208,0.208 0 0 1 0.03,-0.086 l 0.006,-0.013 a 0.062,0.062 0 0 1 -0.032,0.005 h -0.034 v -0.036 a 1.176,1.176 0 0 1 0.086,-0.314 l -0.038,0.057 -0.006,-0.1 a 0.688,0.688 0 0 1 0.08,-0.265 l -0.1,0.141 0.046,-0.176 a 0.723,0.723 0 0 1 0.138,-0.25 l 0.016,-0.021 -0.011,-0.011 -0.12,0.112 0.073,-0.157 a 2.94,2.94 0 0 1 0.213,-0.39 0.927,0.927 0 0 1 0.253,-0.239 c -0.031,0 -0.062,0.007 -0.094,0.012 -0.032,0.005 -0.053,0.009 -0.082,0.012 l -0.075,0.008 0.046,-0.063 a 0.82,0.82 0 0 1 0.254,-0.23 l -0.081,0.006 0.1,-0.071 a 0.934,0.934 0 0 1 0.2,-0.107 c -0.042,0.007 -0.084,0.016 -0.125,0.027 l -0.17,0.047 0.142,-0.108 a 0.626,0.626 0 0 1 0.134,-0.077 v 0 l -0.156,0.033 0.131,-0.095 A 0.617,0.617 0 0 1 10.051521,9 c -0.038,-0.02 -0.076,-0.04 -0.1149997,-0.058 -0.039,-0.018 -0.1,-0.048 -0.16,-0.071 l -0.08,-0.034 -0.125,-0.055 0.135,-0.011 a 1.339,1.339 0 0 1 0.152,-0.006 1.716,1.716 0 0 0 -0.282,-0.128 l -0.153,-0.052 0.161,-0.014 a 0.715,0.715 0 0 1 0.191,0.009 0.711,0.711 0 0 0 -0.106,-0.016 l -0.214,-0.012 0.208,-0.052 a 0.63,0.63 0 0 1 0.3859997,0.054 1.349,1.349 0 0 1 0.18,0.106 c -0.017,-0.022 -0.035,-0.043 -0.051,-0.063 l -0.119,-0.146 0.159,0.089 a 1.674,1.674 0 0 1 0.2,0.14 1.553,1.553 0 0 0 -0.328,-0.334 8.217,8.217 0 0 0 -0.9099997,-0.645 h -0.005 a 0.126,0.126 0 0 1 -0.052,-0.052 l -0.022,-0.049 h 0.053 a 2.365,2.365 0 0 1 0.9209997,0.157 1.926,1.926 0 0 1 0.755,0.479 V 8.229 l 0.02,-0.031 0.016,0.012 a 1.3,1.3 0 0 0 -0.077,-0.109 l -0.107,-0.145 0.127,0.064 a 1.376,1.376 0 0 1 0.2,0.124 v 0 l -0.006,-0.044 h 0.048 c -0.033,-0.04 -0.066,-0.079 -0.1,-0.115 l -0.086,-0.092 0.132,0.038 c 0.049,0.015 0.1,0.029 0.148,0.049 l -0.036,-0.038 -0.058,-0.059 h 0.111 l -0.135,-0.04 0.121,-0.031 a 0.873,0.873 0 0 1 0.252,-0.022 h -0.009 l -0.089,-0.028 0.086,-0.037 a 0.286,0.286 0 0 1 0.185,0 l 0.034,0.012 -0.009,-0.01 -0.053,-0.06 h 0.079 a 0.623,0.623 0 0 1 0.158,0.03 l -0.017,-0.01 -0.074,-0.049 0.07,-0.021 c 0.075,-0.023 0.1,-0.021 0.218,0.033 l -0.007,-0.02 -0.009,-0.03 0.033,-0.008 a 0.145,0.145 0 0 1 0.127,0.03 v -0.03 h 0.031 a 0.162,0.162 0 0 1 0.15,0.025 0.225,0.225 0 0 1 0.083,-0.036 0.09,0.09 0 0 1 0.083,0.016 0.049,0.049 0 0 1 0.012,0.031 0.146,0.146 0 0 1 0.133,-0.031 l 0.024,0.003 v 0.031 0.011 a 0.262,0.262 0 0 1 0.21,-0.024 l 0.061,0.018 -0.066,0.055 -0.02,0.016 a 0.644,0.644 0 0 1 0.167,-0.036 l 0.089,-0.005 -0.064,0.064 -0.014,0.014 a 0.34,0.34 0 0 1 0.226,-0.024 l 0.092,0.026 -0.088,0.039 -0.035,0.015 a 1.394,1.394 0 0 1 0.251,0.013 l 0.121,0.02 -0.114,0.046 -0.023,0.009 h 0.046 0.081 l -0.063,0.068 c -0.013,0.013 -0.024,0.026 -0.035,0.039 a 0.647,0.647 0 0 1 0.179,-0.058 l 0.115,-0.019 -0.089,0.079 a 0.669,0.669 0 0 0 -0.083,0.092 l 0.011,-0.006 v 0.052 a 0.1,0.1 0 0 1 0,0.025 1.78,1.78 0 0 1 0.213,-0.132 l 0.145,-0.073 -0.106,0.127 a 1.343,1.343 0 0 0 -0.092,0.122 l 0.019,-0.016 0.017,0.043 v 0 a 2.364,2.364 0 0 1 1.66,-0.635 h 0.023 l 0.027,0.066 -0.05,0.034 -0.065,0.044 a 6.624,6.624 0 0 0 -0.963,0.707 1.2,1.2 0 0 0 -0.23,0.252 1.31,1.31 0 0 1 0.2,-0.137 l 0.148,-0.078 -0.108,0.131 -0.029,0.035 -0.02,0.024 a 0.924,0.924 0 0 1 0.382,-0.172 0.482,0.482 0 0 1 0.174,0 l 0.238,0.048 -0.241,0.02 a 0.567,0.567 0 0 0 -0.144,0.03 0.776,0.776 0 0 1 0.232,-0.023 l 0.154,0.01 -0.145,0.057 a 2.19,2.19 0 0 0 -0.282,0.131 1.271,1.271 0 0 1 0.136,0.006 l 0.132,0.009 -0.121,0.056 -0.112,0.05 c -0.078,0.034 -0.159,0.069 -0.238,0.113 a 0.956,0.956 0 0 1 0.227,0.039 0.36,0.36 0 0 1 0.086,0.039 l 0.154,0.1 -0.176,-0.045 h -0.022 a 0.868,0.868 0 0 1 0.165,0.081 l 0.138,0.088 -0.16,-0.025 -0.063,-0.01 -0.069,-0.012 a 1.36,1.36 0 0 1 0.2,0.1 l 0.131,0.08 -0.1,-0.011 a 0.717,0.717 0 0 1 0.255,0.233 l 0.038,0.059 -0.067,-0.005 a 0.779,0.779 0 0 1 -0.088,-0.012 0.74,0.74 0 0 0 -0.093,-0.012 1.371,1.371 0 0 1 0.456,0.6 l 0.07,0.156 -0.044,-0.042 -0.031,0.035 a 0.929,0.929 0 0 1 0.124,0.231 l 0.072,0.22 -0.129,-0.187 a 1.078,1.078 0 0 1 0.075,0.231 l 0.037,0.175 -0.1,-0.147 a 1.549,1.549 0 0 1 0.1,0.343 l 0.012,0.082 -0.084,-0.063 v 0 c 0.007,0.017 0.015,0.034 0.025,0.053 l 0.02,0.041 0.039,0.081 -0.081,-0.034 a 1.574,1.574 0 0 0 -0.317,-0.1 1,1 0 0 0 -1.06,0.566 0.681,0.681 0 0 0 -0.064,0.353 0.081,0.081 0 0 1 -0.015,0.061 0.067,0.067 0 0 1 -0.051,0.019 c -0.1,0 -0.2,0 -0.289,0 a 0.091,0.091 0 0 1 -0.067,-0.033 0.955,0.955 0 0 0 -0.551,-0.287 1.071,1.071 0 0 1 0.409,0.214 v 0 a 0.091,0.091 0 0 1 0.038,0.059 l 0.009,0.047 -0.046,-0.006 a 0.355,0.355 0 0 0 -0.086,0 0.239,0.239 0 0 1 -0.225,-0.069 0.255,0.255 0 0 0 -0.057,-0.047 0.253,0.253 0 0 1 0.045,0.067 l 0.013,0.03 -0.029,0.015 a 0.061,0.061 0 0 1 -0.075,-0.017 v -0.005 a 0.7,0.7 0 0 0 -0.243,-0.132 h -0.007 a 0.959,0.959 0 0 1 0.115,0.064 l 0.019,0.014 0.031,0.023 -0.009,0.025 a 0.054,0.054 0 0 1 -0.06,0.036 h -0.438 a 0.079,0.079 0 0 1 -0.078,-0.054 0.481,0.481 0 0 0 -0.189,-0.218 0.1,0.1 0 0 1 -0.05,-0.1 v -0.073 c 0,-0.02 0,-0.04 0,-0.06 a 0.2,0.2 0 0 1 0.15,-0.212 l 0.015,-0.005 a 0.191,0.191 0 0 0 0.046,-0.016 0.107,0.107 0 0 0 0.064,-0.084 0.122,0.122 0 0 0 -0.045,-0.105 0.251,0.251 0 0 0 -0.118,-0.053 0.58,0.58 0 0 0 -0.359,0.028 0.125,0.125 0 0 0 -0.081,0.111 0.112,0.112 0 0 0 0.089,0.112 h 0.018 a 0.212,0.212 0 0 1 0.1,0.048 0.263,0.263 0 0 1 0.068,0.188 0.246,0.246 0 0 1 -0.118,0.268 0.294,0.294 0 0 0 -0.113,0.161 v 0.006 a 0.06,0.06 0 0 1 -0.057,0.047 h -0.617 l 0.074,-0.061 a 0.665,0.665 0 0 1 0.138,-0.09 0.683,0.683 0 0 0 -0.208,0.115 h -0.006 a 0.106,0.106 0 0 1 -0.081,0.028 h -0.053 l 0.028,-0.047 a 0.327,0.327 0 0 1 0.028,-0.041 0.7,0.7 0 0 0 -0.076,0.064 l -0.006,0.006 a 0.067,0.067 0 0 1 -0.053,0.029 h -0.315 l 0.061,-0.06 a 1.046,1.046 0 0 1 0.439,-0.256 0.973,0.973 0 0 0 -0.527,0.281 0.1,0.1 0 0 1 -0.072,0.034 h -0.188 -0.1 a 0.055,0.055 0 0 1 -0.048,-0.016 0.068,0.068 0 0 1 -0.02,-0.043 z m -1.0699997,-3.11 0.015,0.027 a 0.221,0.221 0 0 1 0.044,0.138 v 0.024 l -0.069,0.019 -0.131,-0.47 z m -0.109,-0.363 0.059,0.014 c 0.065,0.015 0.127,0.035 0.187,0.055 a 1.7,1.7 0 0 0 0.205,0.058 l 0.065,0.013 -0.048,0.046 a 1.345,1.345 0 0 0 -0.236,0.289 l -0.032,0.053 -0.026,-0.057 c -0.045,-0.1 -0.079,-0.2 -0.115,-0.3 -0.012,-0.036 -0.025,-0.073 -0.038,-0.11 z m 6.1849997,-0.005 -0.189,0.539 -0.036,-0.054 a 1.188,1.188 0 0 0 -0.253,-0.289 l -0.055,-0.042 z m -3.162,7.453 a 7.226,7.226 0 0 0 7.312,-7.139 A 7.226,7.226 0 0 0 12.239521,2 7.226,7.226 0 0 0 4.9275213,9.138 7.226,7.226 0 0 0 12.239521,16.277 Z M 6.8145213,11.514 a 6.009,6.009 0 1 1 10.8219997,0.057 1.219,1.219 0 0 1 -0.172,0.772 4.847,4.847 0 0 1 -1.9,1.726 6.65,6.65 0 0 1 -2.421,0.8 6.076,6.076 0 0 1 -0.908,0.068 6.011,6.011 0 0 1 -2.175,-0.4 8.376,8.376 0 0 1 -0.9309997,-0.352 4.684,4.684 0 0 1 -2.1,-1.63 1.4,1.4 0 0 1 -0.215,-1.041 z m 5.5249997,5.227 a 8.355,8.355 0 0 1 -6.1199997,-2.9 l 0.876,6.38 a 2,2 0 0 0 1.968,1.73 l 6.2339997,0.05 a 2.309,2.309 0 0 0 2.316,-2.085 l 0.612,-6.214 a 7,7 0 0 1 -5.886,3.039 z m 5.531,0.161 c -0.237,0.061 -0.655,0.163 -1.186,0.277 a 0.858,0.858 0 0 1 0.031,0.248 2.787,2.787 0 0 1 -0.98,2.373 c -0.491,0.313 -1.216,0.4 -3.371,0.428 h -0.443 c -2.3699997,0 -2.7929997,-0.226 -3.1459997,-0.563 a 3.042,3.042 0 0 1 -0.845,-1.993 l -0.02,-0.449 -0.051,-0.011 -0.998,-0.212 0.039,-0.183 c 0.367,0.078 0.7,0.148 0.994,0.213 v 0 -0.01 l 0.123,0.036 c 0.27,0.058 0.513,0.111 0.738,0.158 a 28.8,28.8 0 0 0 3.5279997,0.358 23.75,23.75 0 0 0 3.974,-0.5 l 0.235,-0.049 h 0.014 c 0.437,-0.092 0.876,-0.194 1.312,-0.3 z m -5.297,0.867 c -0.076,0 -0.148,0 -0.216,0 h -0.074 -0.166 -0.235 A 12.886,12.886 0 0 1 8.7715213,17.415 c -0.329,-0.058 -0.551,-0.107 -0.677,-0.138 l 0.018,0.393 a 2.854,2.854 0 0 0 0.787,1.867 c 0.341,0.325 0.766,0.536 3.4579997,0.508 2.088,-0.022 2.822,-0.111 3.272,-0.4 a 2.612,2.612 0 0 0 0.894,-2.213 0.61,0.61 0 0 0 -0.029,-0.21 24.266,24.266 0 0 1 -3.921,0.547 z"/>

</svg>