<svg xmlns="http://www.w3.org/2000/svg" viewBox="0 0 24 24"><path fill="#44739e" d="M9.934 14.41c-1.962 0-3.329.338-3.329.641 0 .218.711.455 1.844.57l.024.092a1 1 0 0 1 .031.193 1.15 1.15 0 0 1-.133.575c-.148.292-.34.326-.321.442s.26.227.434.135a.43.43 0 0 0 .177-.211.76.76 0 0 0 .048-.366 4 4 0 0 1 .022-.746l.009-.088c.339.027.709.042 1.1.044q-.002.047-.011.089a1.2 1.2 0 0 1-.108.379l.075.053c.114.13.433.01.428-.009a2.2 2.2 0 0 1-.07-.424v-.089c.44-.006.848-.028 1.213-.064l-.016.091a1.25 1.25 0 0 0 .218.976.63.63 0 0 0 .273.173c.153.049.413.064.466-.077.041-.108-.06-.243-.177-.317-.14-.09-.2-.082-.273-.154a1.03 1.03 0 0 1-.251-.628 1 1 0 0 1 .01-.091c1.017-.121 1.646-.343 1.646-.548.001-.303-1.363-.641-3.329-.641m-3.403.641a.2.2 0 0 1 .029-.1l-.438.086-.122.018v-.081.18l.008.537 1.052-.236c-.327-.108-.529-.243-.529-.404m-.829-1.572-1.157-.087.002-.022v-.003l-.008.002.053 1.905 1.163.447.002-.031Zm-.62-.168v-.049a.16.16 0 0 1 .025-.11.11.11 0 0 1 .079-.048h-.078a.15.15 0 0 0-.12.068.2.2 0 0 0-.036.1l.035.03Zm.042-.059.009.063.82.062v.022h.038a1.2 1.2 0 0 0 .335-.025l.481-.1c.03-.006.056.024.055.062l-.009.33v.014l.047.3a.1.1 0 0 0 .024-.044.1.1 0 0 0 0-.031l-.024-.338-.028-.362v-.106a.1.1 0 0 0-.028-.059l-.02-.013-.026-.006h-.01l-.408.061-.074.011-.082.012q-.08.011-.162.018h.006l-.1.006H5.9l-.69.02a.07.07 0 0 0-.056.031.1.1 0 0 0-.03.072m2.769-.04c.076-.012.181-.029.24-.04l-1-.061-.222.04v.017Zm.015.039-1-.044.028.355.032.339a.15.15 0 0 1-.017.085l.953.094Zm-1.279 1.614a2.8 2.8 0 0 1 1.252-.4v-.249l-1.842.284.013.478Zm1.471-.434.005-1.188-.131.011v1.194Zm-.373-.289-.767-.064-.044.007v.024a.06.06 0 0 1-.04.072l-.9.148v.094h.012Zm-1.659 1.641v.124l1.412-.342a5 5 0 0 1-.221-.052Zm-.982-.172.879.306v-.133l-.081-.025-.124.032-.001-.022-.646-.248-.034-.011Zm5.348-1.282v-.115l-.541.107h.041q.25 0 .5.008m-1.798-1.248-.715-.056-.038-.032-.23.035.888.069-.001-.006Zm-.436.082-.016.011-.018.005v1.245a10 10 0 0 1 .412-.044l-.03-1.238-.986-.077v-.022.08Zm.571-.096h.021a1 1 0 0 0 .287-.022l.411-.092c.025-.006.048.021.047.055l-.007.292v.013l.041.267a.07.07 0 0 0 .022-.04v-.028l-.027-.3-.03-.412a.08.08 0 0 0-.023-.052l-.018-.012-.022-.005h-.008l-.483.075a2 2 0 0 1-.221.02l-.648.02a.06.06 0 0 0-.048.028.1.1 0 0 0-.013.06l.007.052.705.056v.021Zm1.661.602v-.729l-.851-.04.024.312.027.3a.13.13 0 0 1-.014.074Zm-.908.657.883-.179V13.8l-1.568.254.008.309c.221-.02.453-.031.677-.037m1.076.009.006-1.4-.1.01v1.387Zm-6.359 7.282 1.691-.763.022-.521-1.7.767Zm.159-.392 1.394-.63v.133l-1.394.623ZM2 2v20h20V2Zm19.7 4.2-3.338.73v.27l3.338-.731v15.175h-9.714l6.789-5.228-5.487-1.231a.6.6 0 0 1-.177.142l5.27 1.181-6.669 5.136H2.3v-.09a.1.1 0 0 0 .017.035.06.06 0 0 0 .051.023l.34-.014.022-.006 3.086-1.4a.08.08 0 0 0 .045-.077v-1.426a.1.1 0 0 0-.028-.066.06.06 0 0 0-.06-.013l-1.117.382a.19.19 0 0 1-.188-.041.28.28 0 0 1-.089-.2l-.07-3.21.148-.034.388-.087-.286-.11v-.01l-.106.024-.148.034v-.069a.1.1 0 0 0-.025-.061.06.06 0 0 0-.044-.019h-.01l-1.87.32a.08.08 0 0 0-.055.055v-.221l.034-.01.953-.163-.618-.507a.26.26 0 0 0-.2-.055l-.165.017V8.16l3.55.472v-.906L2.3 7.069v-.09l3.624.67v5.4l.04.021h-.055.046a2 2 0 0 0 .254-.023l.518-.077a.1.1 0 0 0-.048 0l-.309.046-.074.011v-5.59l-4-.743V4.686L12.374 7.3v-.273L2.3 4.413V2.356h19.4ZM8.015 12.988v-.012a.04.04 0 0 1 0-.02v-.01a.14.14 0 0 1 .022-.1.1.1 0 0 1 .075-.044l.649-.02a2 2 0 0 0 .216-.019l.454-.07h.029a.09.09 0 0 1 .076.026.12.12 0 0 1 .037.083v.037l.15-.028.042-.008h.059l.551.034.09.006.1-.012.17-.02.153-.023h.036l.27-.04V8.894a.2.2 0 0 0-.058-.142.13.13 0 0 0-.13-.03l-.074.03a.16.16 0 0 0-.114-.117l-.692-.15a.1.1 0 0 0-.064 0l-.005-.019-.114-.022-.2-.041a.13.13 0 0 0-.082.012.13.13 0 0 0-.072-.042l-.435-.085a.13.13 0 0 0-.079.011.13.13 0 0 0-.072-.04l-.179-.035-.1-.02-.061-.014-.084-.016v2.334a.2.2 0 0 0 .052.132v.006a.2.2 0 0 0-.057.139v.277a3 3 0 0 0 .091.375.18.18 0 0 0-.095.165v1.187l-.543.016a.13.13 0 0 0-.1.061.2.2 0 0 0-.031.089l.032.027Zm1.042-.444q.001.04-.005.077v.121l-.154.024a2 2 0 0 1-.169.017V11.6l.007.017c.054.154.113.293.166.418a2.6 2.6 0 0 1 .146.394l.009.051v.043Zm1.769-3.508a.5.5 0 0 1 .225-.142v3.7l-.071.011a1.5 1.5 0 0 0-.042-.26l-.014-.066a5 5 0 0 1-.046-.243c-.023-.146-.031-.308-.047-.631-.007-.151-.009-.248-.011-.315a.7.7 0 0 0-.029-.244 1 1 0 0 0-.067-.158c-.028-.059-.072-.149-.148-.321a1 1 0 0 1-.084-.212.9.9 0 0 1 .028-.426 1.3 1.3 0 0 1 .092-.222l.072-.152c.035-.077.057-.134.075-.179a.6.6 0 0 1 .067-.14M10.1 10.2c.008-.062.018-.133.026-.228a2 2 0 0 0 .005-.3c0-.08-.008-.19-.005-.414a3 3 0 0 0-.022-.6l.691.15-.056.077-.026.037a.7.7 0 0 0-.089.179c-.018.045-.037.1-.07.168l-.071.15a1.4 1.4 0 0 0-.1.254 1.1 1.1 0 0 0-.031.527 1.3 1.3 0 0 0 .1.25c.078.175.122.267.152.328a1 1 0 0 1 .055.13.5.5 0 0 1 .021.186c0 .069 0 .167.011.322 0 .082.008.155.011.219s0 .1.008.138c.008.119.016.209.03.3q.033.193.062.32l.018.083v.024l.009.051v.079l-.358.042a4 4 0 0 1-.014-.343c-.002-.167 0-.237 0-.294v-.04a1 1 0 0 0 0-.123 2.6 2.6 0 0 0-.162-.543l-.084-.224a1.4 1.4 0 0 1-.064-.193 2 2 0 0 1-.063-.384 1.4 1.4 0 0 1 .016-.328m-.444-1.3a.9.9 0 0 1 .067-.328l.221.043.015.075v.571c0 .23 0 .344.005.427a2 2 0 0 1-.005.272c-.008.09-.017.158-.025.218a1.6 1.6 0 0 0-.017.36v.067a3 3 0 0 0 .064.357 2 2 0 0 0 .072.215c.019.05.044.115.081.219l.062.173.035.1a1 1 0 0 1 .055.218v.133c0 .056-.006.14 0 .3v.358l-.113.014a1.4 1.4 0 0 0-.09-.364l-.042-.127a4 4 0 0 1-.159-.654 1.6 1.6 0 0 1 0-.449 1.5 1.5 0 0 0-.018-.524 1 1 0 0 0-.05-.182c-.019-.06-.041-.128-.077-.282a5 5 0 0 1-.1-.565 3.3 3.3 0 0 1 .019-.639Zm-.088-.35-.005.018-.018.066-.007.034q-.008.033-.012.069l-.005.035c0 .037-.009.075-.012.117a3.6 3.6 0 0 0 .018.683 5 5 0 0 0 .105.589 3 3 0 0 0 .082.3 1 1 0 0 1 .044.16 1.3 1.3 0 0 1 .015.457 1.8 1.8 0 0 0 0 .5 4 4 0 0 0 .166.688l.043.129a1.4 1.4 0 0 1 .08.306l-.2.032a1 1 0 0 1-.045-.273 6 6 0 0 0-.026-.246 3 3 0 0 0-.069-.388 1.1 1.1 0 0 1-.039-.294v-.185a1.5 1.5 0 0 0-.022-.38A1.3 1.3 0 0 0 9.5 10.5a1 1 0 0 0-.091-.125.3.3 0 0 1-.068-.114.8.8 0 0 1 0-.3c.015-.168.031-.26.043-.328A.6.6 0 0 0 9.4 9.4a.6.6 0 0 0-.09-.242 1 1 0 0 1-.085-.171c0-.012-.009-.025-.014-.041v-.013L9.193 8.9v-.017l-.01-.044v-.022l-.009-.045V8.74l-.018-.04-.006-.046v-.033l-.005-.059v-.099Zm-.585-.115a2.2 2.2 0 0 0 .1.631 1.3 1.3 0 0 0 .1.2.4.4 0 0 1 .065.168.4.4 0 0 1-.01.158c-.011.067-.029.169-.045.345a.9.9 0 0 0 .011.387.5.5 0 0 0 .1.177 1 1 0 0 1 .076.1 1.1 1.1 0 0 1 .132.406 1.4 1.4 0 0 1 .019.335v.2a1.3 1.3 0 0 0 .044.339 3 3 0 0 1 .065.365q.016.138.026.241a2 2 0 0 0 .038.271l-.081.01-.025-.014a.3.3 0 0 1-.018-.069c0-.024-.009-.051-.013-.08l-.025-.141v-.024l-.022-.105a7 7 0 0 1-.059-.258c0-.019-.007-.039-.012-.058a2 2 0 0 1-.027-.2 4 4 0 0 1 0-.5q.002-.071.007-.119a2 2 0 0 0 0-.207.75.75 0 0 0-.1-.446.26.26 0 0 0-.127-.092.15.15 0 0 1-.077-.051c-.024-.028-.029-.044-.066-.164l-.041-.131a5 5 0 0 0-.076-.228.4.4 0 0 1-.028-.1.6.6 0 0 1 0-.187q.008-.065.018-.174a4 4 0 0 0 0-.62v-.111l-.005-.048v-.01L8.9 8.572v-.018l-.007-.047v-.022l-.009-.05v-.018Zm-.255.008c.029.144.044.292.053.384a3.5 3.5 0 0 1 0 .578 3 3 0 0 1-.016.165.8.8 0 0 0 0 .243.6.6 0 0 0 .038.141 5 5 0 0 1 .114.351.6.6 0 0 0 .1.23.3.3 0 0 0 .135.093.1.1 0 0 1 .063.042.6.6 0 0 1 .06.334 2 2 0 0 1 0 .185c0 .034 0 .072-.008.124s-.005.113-.006.2a9 9 0 0 0-.236-.5l-.039-.077c-.049-.1-.1-.183-.135-.25l-.008-.009a1 1 0 0 0-.114-.166Zm0 2.342a7.3 7.3 0 0 1 .573 1.27l.012.06c.016.074.035.158.061.265l.02.1.027.154.01.066a.1.1 0 0 0-.051 0l-.18.02q-.002-.058.006-.162v-.018a.4.4 0 0 0 0-.06 1.9 1.9 0 0 0-.171-.522 4.2 4.2 0 0 1-.306-.935Zm5.601 2.077a.1.1 0 0 0 .033.062.073.073 0 0 0 .113-.024.11.11 0 0 0-.02-.135.1.1 0 0 0-.046-.017h-.015a.08.08 0 0 0-.052.04.1.1 0 0 0-.013.074m-.307.023a.07.07 0 0 0 .074.056.059.059 0 1 0 0-.113.07.07 0 0 0-.074.057m.221-.019.011-.008a.2.2 0 0 1 .026-.117.077.077 0 0 0-.1-.052.1.1 0 0 0-.048.056.15.15 0 0 1 .111.121m.148-.249c-.005 0-.018.017-.024.05h.046q-.01-.051-.022-.05m.136.11a.1.1 0 0 0 .012-.049c0-.04-.017-.061-.024-.061s-.023.024-.023.061v.012a.1.1 0 0 1 .035.037m.132.082a.05.05 0 0 0 .046-.055.05.05 0 0 0-.046-.055.05.05 0 0 0-.046.055.05.05 0 0 0 .046.055m.784.132a.072.072 0 1 0-.071.084.08.08 0 0 0 .071-.084m-.336.074a.07.07 0 0 0 .057.023.07.07 0 0 0 .058-.024.07.07 0 0 0-.058-.022.07.07 0 0 0-.057.023M4.67 17.941a.44.44 0 0 0-.062.24v.279a.134.134 0 0 0 .12.144h.094l1.129-.426a1 1 0 0 0 .028-.106l.026-.612-.022.009Zm1.179-.647-1.38-1.132.031 1.553.017.02 1.31-.435Zm8.842-4.278a.09.09 0 0 0 .079-.094.1.1 0 0 0-.025-.067.11.11 0 0 1-.086.043.1.1 0 0 1-.041-.009.1.1 0 0 0-.005.033.087.087 0 0 0 .078.094m.091-.24a.2.2 0 0 1 .062.146v.013a.09.09 0 0 0 .045-.081.08.08 0 0 0-.073-.088.1.1 0 0 0-.034.01m.111.224a.3.3 0 0 0 .079.013.2.2 0 0 0 .062-.008.1.1 0 0 1 .042-.077.2.2 0 0 0-.1-.026h-.017a.17.17 0 0 1-.066.098m.353-.141h-.007a.06.06 0 0 0-.055.047.2.2 0 0 1 .046.013.2.2 0 0 1 .016-.06m-.195-.032a.2.2 0 0 1 .069.03.2.2 0 0 1 .034-.051.1.1 0 0 0-.04-.011.07.07 0 0 0-.063.032m-.126-.089a.2.2 0 0 1 .031.065l.018.009a.14.14 0 0 1 .086-.1.08.08 0 0 0-.06-.028.074.074 0 0 0-.075.054m-.033-.098c-.032 0-.053.023-.053.036l.021.007a.2.2 0 0 1 .032-.043m-1.036.117v.56l.075.007 1.683.152.029.003v-.642l-.029-.002-.07-.005v.353l-1.605-.123v-.303h-.008Zm-.938-2.344 4.108-.151V6.65l-4.108 1.069Zm3.821-3.474v3.141l-3.65.177-.014-2.434Zm-.597 4.545.193-.034-.004-.637-.191-.023Zm-2.807-.028 2.732.033-.001-.702-2.731.112Zm-2.47 2.108 8.315 1.233-.009-.419-8.306-1.029Zm9.364.631-.005-.369-.942.533.009.407Zm-2.803.938.006-.461-5.043-.748v.36Zm.746-.351-.594-.088-.003.401Zm-6.974-1.526 2.046.254 5.985.686.861-.476-1.887-.175-.645.26-.008-.001-5.125-.552.01-.123-.312-.024Zm6.996.199.007.001.015.001V3.864l-.624-.573v10.363l.542-.187h.031Zm-4.412-.146v-1.624l1.981.022v1.809l1.68.159V3.244l-4.936 2.295.07 7.64Zm2.346-1.733h-.325l-.813-.009-1.207-.013-.521-.007v-.731l2.878-.118.266.032v.8Zm-3.285-3.929L17.1 6.539v3.809l-4.258.156Zm-6.996 5.767-.874-.067-.045-.036-.294.043 1.066.08v-.006Z"/></svg>