<?xml version="1.0" encoding="UTF-8"?>
<svg width="33px" height="32px" viewBox="0 0 24 24" fill="#44739e" version="1.1" xmlns="http://www.w3.org/2000/svg" xmlns:xlink="http://www.w3.org/1999/xlink">
            <path d="m 21.905924,12.166763 a 9.415,9.415 0 0 0 -3.879,-3.9080001 1.58,1.58 0 0 0 -1.3,-0.189 c -0.034,0.021 -0.065,0.043 -0.1,0.065 a 6.887,6.887 0 0 0 -0.879,0.691 18.57,18.57 0 0 0 -0.831,5.1850001 0.8,0.8 0 0 1 -0.2,0.559 l -0.317,0.361 h -0.025 a 4.659,4.659 0 0 0 0.408,0.464 c 1.952,1.95 4.437,1.185 6.443,-0.817 a 6.7,6.7 0 0 0 0.822,-1.007 c 0.015,-0.022 0.029,-0.044 0.042,-0.067 a 1.593,1.593 0 0 0 -0.184,-1.337 z m -1.852,2.411 a 0.176,0.176 0 0 1 -0.168,0.122 0.161,0.161 0 0 1 -0.054,-0.008 5.637,5.637 0 0 1 -1.787,-1.158 c -0.816,0.448 -2.152,0.978 -2.118,1.206 0.066,0.437 -0.2,0.677 -0.687,0.185 -0.487,-0.492 -0.252,-0.754 0.185,-0.689 0.228,0.035 0.761,-1.317 1.211,-2.132 a 6.862,6.862 0 0 1 -1.133,-1.738 0.17802036,0.17802036 0 1 1 0.333,-0.126 8.16,8.16 0 0 0 1.739,2.367 6.7,6.7 0 0 0 2.367,1.747 0.175,0.175 0 0 1 0.112,0.224 z m 1.267,-1.487 a 7.026,7.026 0 0 1 -2.437,-1.791 8.285,8.285 0 0 1 -1.781,-2.4300001 0.176,0.176 0 0 1 0.2,-0.231 2.4,2.4 0 0 1 0.572,0.195 6.731,6.731 0 0 1 2.017,1.4570001 6.707,6.707 0 0 1 1.455,2.015 2.421,2.421 0 0 1 0.2,0.578 0.177,0.177 0 0 1 -0.226,0.207 z M 8.8459995,8.1110172 l 0.116,0.033 a 11.773,11.773 0 0 0 3.1590005,0.357 11.806,11.806 0 0 0 3.158,-0.356 l 0.141,-0.078 0.053,-0.1 c 0.272,-0.513 1,-1.878 0.088,-2.682 -0.8,-0.708 -2.656,-0.773 -3.463,-0.763 -0.757,-0.01 -2.6150005,0.055 -3.4160005,0.764 -0.91,0.8 -0.184,2.169 0.11,2.726 z m 0.223,-2.512 a 5.567,5.567 0 0 1 3.0800005,-0.623 5.414,5.414 0 0 1 3.023,0.623 c 0.575,0.511 0.11,1.5 -0.172,2.037 a 11.651,11.651 0 0 1 -2.879,0.309 11.651,11.651 0 0 1 -2.8790005,-0.305 c -0.245,-0.465 -0.76,-1.518 -0.173,-2.041 z M 14.385,14.6 A 0.6,0.6 0 0 0 14.532,14.184 18.756,18.756 0 0 1 15.455,8.674 16.516,16.516 0 0 1 12.129,9 16.5,16.5 0 0 1 8.8,8.669 a 18.7,18.7 0 0 1 0.929,5.51 0.6,0.6 0 0 0 0.151,0.416 l 0.262,0.3 a 16.757,16.757 0 0 0 1.99,0.113 16.807,16.807 0 0 0 1.993,-0.113 z m -3.336,3.883 v 0 l -0.161,0.161 a 4.219,4.219 0 0 0 2.484,-0.241 l -0.081,-0.08 a 4.281,4.281 0 0 1 -2.242,0.16 z m 0.559,0.717 a 1.958,1.958 0 0 0 0.962,0 c 0,-0.08 0.16,-0.24 0.24,-0.32 h -1.442 a 1.107,1.107 0 0 1 0.24,0.32 z m 0.524,-3.591 c -0.491,0 -1.18,-0.022 -1.8,-0.084 l 0.3,1.867 a 0.551,0.551 0 0 0 0.179,0.344 h 2.643 a 0.541,0.541 0 0 0 0.182,-0.344 l 0.3,-1.867 c -0.627,0.062 -1.313,0.084 -1.804,0.084 z M 11.048,18 10.887,18.16 A 5.025,5.025 0 0 0 13.372,18 v 0 a 7.54,7.54 0 0 1 -2.324,0 z m -0.670841,-2.804636 h 0.01 a 0.351,0.351 0 0 0 -0.3,-0.174 h -6.3 a 1.584,1.584 0 0 1 -1.758,-1.4 v 1.751 a 1.751,1.751 0 0 0 1.751,1.751 h 6.3 a 0.35,0.35 0 0 0 0.3,-0.178 l -0.288,-1.777 z m -6.248,1.228 a 0.351,0.351 0 1 1 0.351,-0.35 0.35,0.35 0 0 1 -0.351,0.35 z m 1.752,0 a 0.351,0.351 0 1 1 0.35,-0.35 0.351,0.351 0 0 1 -0.349,0.35 z m 1.751,0 a 0.351,0.351 0 1 1 0.35,-0.35 0.35,0.35 0 0 1 -0.353,0.35 z m 1.751,0 a 0.351,0.351 0 1 1 0.35,-0.35 0.35,0.35 0 0 1 -0.349,0.35 z M 2.1336901,8.7800172 a 0.35,0.35 0 0 0 -0.35,0.35 v 1.3999998 a 0.35,0.35 0 0 0 0.35,0.35 h 6.3 a 2.328,2.328 0 0 1 0.526,0.057 18.558,18.558 0 0 0 -0.554,-2.1579998 z m 0.7,1.3999998 a 0.351,0.351 0 1 1 0.35,-0.3509998 0.351,0.351 0 0 1 -0.349,0.3519998 z m 1.751,0 a 0.351,0.351 0 1 1 0.35,-0.3509998 0.351,0.351 0 0 1 -0.351,0.3519998 z m 1.751,0 a 0.351,0.351 0 1 1 0.35,-0.3509998 0.351,0.351 0 0 1 -0.349,0.3519998 z m 1.751,0 a 0.351,0.351 0 1 1 0.35,-0.3509998 0.351,0.351 0 0 1 -0.353,0.3519998 z m -0.175205,1.140067 -5.186,1.118 a 0.7,0.7 0 0 0 -0.536,0.832 1.677,1.677 0 0 0 1.992,1.286 l 5.154,-1.114 a 18.552,18.552 0 0 0 -0.2,-1.914 1.665,1.665 0 0 0 -1.224,-0.208 z m -4.367,2.53 a 0.351,0.351 0 1 1 0.268,-0.416 0.353,0.353 0 0 1 -0.268,0.416 z m 1.711,-0.37 a 0.351,0.351 0 1 1 0.268,-0.418 0.351,0.351 0 0 1 -0.264,0.418 z m 1.711,-0.371 a 0.35,0.35 0 1 1 0.268,-0.417 0.351,0.351 0 0 1 -0.264,0.417 z m 1.713,-0.37 a 0.35,0.35 0 1 1 0.268,-0.416 0.352,0.352 0 0 1 -0.264,0.416 z M 5.88,6.034 v 0 z"/>

</svg>