<svg xmlns="http://www.w3.org/2000/svg" viewBox="0 0 24 24"><path fill="#44739e" d="M21.75 12.272a9.23 9.23 0 0 0-3.808-3.835 1.55 1.55 0 0 0-1.276-.187q-.047.033-.098.065a7 7 0 0 0-.862.677 18.3 18.3 0 0 0-.816 5.09.8.8 0 0 1-.196.549l-.311.353h-.024a5 5 0 0 0 .4.456c1.916 1.914 4.355 1.164 6.324-.801a6.6 6.6 0 0 0 .806-.989l.041-.065a1.57 1.57 0 0 0-.18-1.313m-1.818 2.366a.18.18 0 0 1-.165.12.2.2 0 0 1-.053-.007 5.5 5.5 0 0 1-1.754-1.137c-.8.44-2.112.96-2.078 1.184.065.429-.197.664-.674.181s-.248-.74.181-.677c.224.035.746-1.292 1.188-2.092a6.8 6.8 0 0 1-1.111-1.705.175.175 0 1 1 .326-.124 8 8 0 0 0 1.707 2.323 6.6 6.6 0 0 0 2.323 1.715.17.17 0 0 1 .11.22m1.244-1.459a6.9 6.9 0 0 1-2.392-1.758 8.2 8.2 0 0 1-1.748-2.385.173.173 0 0 1 .196-.226 2.4 2.4 0 0 1 .562.191 6.6 6.6 0 0 1 1.979 1.43 6.6 6.6 0 0 1 1.428 1.978 2.4 2.4 0 0 1 .197.567.174.174 0 0 1-.222.203M8.932 8.291l.114.032a11.6 11.6 0 0 0 3.1.35 11.6 11.6 0 0 0 3.1-.349l.138-.077.052-.098c.267-.503.982-1.843.087-2.632-.786-.695-2.607-.759-3.399-.749-.743-.01-2.567.054-3.353.75-.893.785-.18 2.129.108 2.675Zm.219-2.466a5.47 5.47 0 0 1 3.023-.611 5.3 5.3 0 0 1 2.967.611c.564.502.108 1.472-.169 1.999a11.5 11.5 0 0 1-2.826.304 11.5 11.5 0 0 1-2.825-.3c-.241-.456-.746-1.49-.17-2.003m5.217 8.834a.6.6 0 0 0 .145-.408 18.5 18.5 0 0 1 .906-5.408 16.2 16.2 0 0 1-3.265.321 16.2 16.2 0 0 1-3.267-.325 18.4 18.4 0 0 1 .912 5.408.6.6 0 0 0 .148.408l.257.295a17 17 0 0 0 1.953.111 17 17 0 0 0 1.956-.111Zm-3.274 3.811-.158.158a4.1 4.1 0 0 0 2.438-.236l-.079-.079a4.2 4.2 0 0 1-2.201.157m.549.704a1.9 1.9 0 0 0 .944 0c0-.079.157-.236.236-.314h-1.416a1.1 1.1 0 0 1 .236.314m.514-3.524c-.482 0-1.158-.022-1.767-.083l.295 1.832a.54.54 0 0 0 .176.338h2.594a.53.53 0 0 0 .178-.338l.295-1.832c-.616.061-1.289.083-1.771.083m-1.064 2.347-.158.157a4.9 4.9 0 0 0 2.439-.157 7.4 7.4 0 0 1-2.281 0m-.657-2.753h.009a.34.34 0 0 0-.294-.171H3.968a1.555 1.555 0 0 1-1.727-1.374v1.719a1.72 1.72 0 0 0 1.719 1.718h6.183a.34.34 0 0 0 .295-.174l-.283-1.744Zm-6.133 1.205a.344.344 0 1 1 .344-.343.344.344 0 0 1-.344.343m1.72 0a.344.344 0 1 1 .344-.343.344.344 0 0 1-.343.343Zm1.719 0a.344.344 0 1 1 .343-.343.344.344 0 0 1-.346.343Zm1.718 0a.344.344 0 1 1 .344-.343.344.344 0 0 1-.343.343ZM2.344 8.948A.344.344 0 0 0 2 9.292v1.374a.344.344 0 0 0 .344.343h6.183a2.3 2.3 0 0 1 .517.056A19 19 0 0 0 8.5 8.947Zm.687 1.374a.344.344 0 1 1 .343-.344.344.344 0 0 1-.342.345Zm1.719 0a.344.344 0 1 1 .344-.344.344.344 0 0 1-.345.345Zm1.718 0a.344.344 0 1 1 .343-.344.344.344 0 0 1-.341.345Zm1.719 0a.344.344 0 1 1 .344-.344.344.344 0 0 1-.347.345Zm-.173 1.119-5.089 1.097a.687.687 0 0 0-.527.817 1.646 1.646 0 0 0 1.956 1.262l5.058-1.093a19 19 0 0 0-.196-1.879 1.64 1.64 0 0 0-1.202-.204m-4.286 2.483a.344.344 0 1 1 .263-.408.346.346 0 0 1-.263.408m1.68-.363a.344.344 0 1 1 .263-.41.344.344 0 0 1-.259.41Zm1.679-.363a.344.344 0 1 1 .263-.41.344.344 0 0 1-.259.409Zm1.681-.363a.344.344 0 1 1 .263-.41.344.344 0 0 1-.259.409ZM6.021 6.252"/></svg>