<?xml version="1.0" encoding="UTF-8"?>
<svg width="24px" fill="#44739e" height="24px" viewBox="0 0 24 24" version="1.1" xmlns="http://www.w3.org/2000/svg" xmlns:xlink="http://www.w3.org/1999/xlink">
            <path d="M 5.567,12.35 H 2.79 c -0.249,0 -0.36,-0.112 -0.36,-0.352 V 11.462 H 2 V 12 a 0.555,0.555 0 0 0 0.588,0.538 h 2.979 z m 4.482,-0.888 V 12.35 H 7.51 c -0.248,0 -0.359,-0.112 -0.359,-0.352 V 11.462 H 6.72 V 12 a 0.555,0.555 0 0 0 0.588,0.538 h 3.172 v -1.076 z m 5.307,0.888 h -2.927 c -0.249,0 -0.36,-0.112 -0.36,-0.352 0,-0.24 0.111,-0.35 0.36,-0.35 h 2.927 v -0.186 h -3.129 a 0.539,0.539 0 1 0 0,1.074 h 3.129 z m 6.056,-0.888 a 0.539,0.539 0 1 1 0,1.074 H 18.2 v -1.074 z m 0.157,0.536 c 0,-0.242 -0.11,-0.35 -0.359,-0.35 h -2.582 v 0.7 h 2.582 c 0.248,0 0.359,-0.112 0.359,-0.352 z m -5,0.567 h 0.419 v -1.13 h -0.419 z"/>

</svg>