<svg xmlns="http://www.w3.org/2000/svg" viewBox="0 0 24 24"><path fill="#44739e" d="M12 2c5.497 0 10 4.508 10 10.004C22 17.492 17.497 22 12 22c-5.498 0-10-4.5-10-9.996S6.503 2 12 2m-.007.579a9.5 9.5 0 0 0-7 3.118 9.46 9.46 0 0 0-2.414 6.3 9.46 9.46 0 0 0 3.112 6.99 9.47 9.47 0 0 0 6.302 2.42 9.47 9.47 0 0 0 6.994-3.11 9.46 9.46 0 0 0 2.42-6.3 9.47 9.47 0 0 0-3.112-6.999 9.5 9.5 0 0 0-6.302-2.42m-8.66 6.843.22-.388 1.129.571.247-.43 4.354 2.455-.113.204L6.637 10.6c.973.867 2.173 1.792 3.542 1.792 1.581 0 2.851-1.25 3.543-2.568.36-.029.72-.057 1.087-.057 1.842 0 3.754.36 5.526.875l.607.176.162.043-.53.458c-1.573-.451-3.196-.804-4.833-.903l-.184.261a21.5 21.5 0 0 1 3.96.663l.458.12.332.085-.53.451c-1.517-.409-3.09-.698-4.671-.705l-.163.204c1.56.057 3.077.339 4.594.699l-.494.416c-1.496-.31-2.999-.5-4.53-.522l-.155.212h.303c1.25 0 2.512.183 3.733.437l.41.092-.516.43a15 15 0 0 0-2.787-.29c-1.228 0-2.491.227-3.606.756 1.326 1.467 3.154 2.688 5.2 2.688h.022l-.664.747c-2.484-.755-4.77-2.01-6.887-3.499-1.165-.818-2.245-1.763-3.416-2.575a22 22 0 0 0-2.512-1.51Z"/></svg>