<svg xmlns="http://www.w3.org/2000/svg" viewBox="0 0 24 24"><path fill="#44739e" d="M5.417 12.005c0 .947-.764 1.706-1.71 1.706-.944 0-1.707-.76-1.707-1.702a1.71 1.71 0 0 1 1.736-1.719c.922 0 1.68.776 1.68 1.715m-3.242 0c0 .847.684 1.527 1.531 1.527.843 0 1.531-.676 1.531-1.523 0-.864-.675-1.54-1.543-1.54-.83 0-1.519.693-1.519 1.536m1.156-.071-.021.041a2.4 2.4 0 0 1-.371-.137l-.021.037.062.034c.217.112.292.137.413.137.255 0 .447-.142.539-.396q.232-.048.596-.046c.205 0 .38.008.61.038l-.06.07a5 5 0 0 0-.437-.024c-.171 0-.271 0-.33.004l-.025.062c.138-.008.188-.008.296-.008.188 0 .334.008.455.017l-.058.079c-.217-.008-.313-.013-.476-.013-.087 0-.154.005-.258.009l-.03.062c.092-.008.221-.012.35-.012.13 0 .28.004.368.008l-.059.075c-.062-.004-.179-.004-.27-.004-.147 0-.334.008-.426.02l-.03.055a4 4 0 0 1 .685-.017l-.067.08c-.117-.009-.154-.009-.2-.009-.321 0-.534.046-.747.167.196.196.517.33.81.33.024 0 .037 0 .1-.004l-.138.142c-.772-.205-.91-.26-1.619-.68a3.5 3.5 0 0 0-.692-.322l.025-.087c.041.008.137.033.225.066l.042-.095Zm16.981.764c0-.246.158-.421.47-.509.05-.012.21-.05.48-.096.113-.025.16-.058.16-.142 0-.091-.097-.15-.239-.15-.17 0-.28.084-.28.226h-.487c0-.372.292-.593.78-.593.509 0 .755.213.755.643v.838c0 .142 0 .142.05.23h-.5l-.03-.138c-.196.158-.317.204-.53.204-.367 0-.63-.217-.63-.513m.98-.296c-.058.008-.124.025-.195.042q-.26.067-.259.22c0 .11.08.168.217.168.263 0 .384-.117.384-.36v-.112c-.067.021-.092.021-.146.042m-2.687.196h.526v.02c0 .139.112.222.292.222.154 0 .25-.058.25-.15 0-.096-.088-.154-.296-.188l-.171-.03c-.388-.066-.555-.208-.555-.466 0-.36.296-.572.784-.572.342 0 .555.092.664.292.046.08.054.109.066.288h-.5c-.013-.154-.08-.213-.242-.213-.134 0-.217.05-.217.138 0 .08.08.125.259.154l.183.034c.388.066.568.233.568.517 0 .346-.293.567-.76.567-.55 0-.85-.217-.85-.613m-3.522.1c0-.246.163-.421.476-.509q.075-.02.475-.096c.117-.025.163-.058.163-.142 0-.091-.096-.15-.242-.15-.171 0-.275.08-.28.226h-.488c0-.372.292-.593.776-.593q.765-.001.764.643v.838c0 .142 0 .142.041.23h-.496l-.03-.138a.72.72 0 0 1-.529.204c-.363 0-.63-.217-.63-.513m.985-.296c-.067.012-.126.03-.197.042-.175.045-.258.117-.258.22 0 .11.083.168.217.168.254 0 .38-.117.38-.36v-.112c-.072.021-.092.021-.142.042m-6.656.526c-.07-.121-.083-.184-.083-.455v-.968h.538v.947c0 .242.067.338.238.338.175 0 .267-.113.267-.338v-.947h.534v1.64h-.488l-.017-.163a.6.6 0 0 1-.471.204c-.23 0-.422-.091-.518-.258m8.537.217v-.93c0-.243-.07-.343-.238-.343q-.263 0-.263.342v.93h-.534v-1.639h.489l.016.184a.56.56 0 0 1 .476-.234c.23 0 .413.1.509.271.07.125.08.196.08.467v.952Zm-3.521 0v-.93c0-.239-.075-.343-.238-.343q-.263 0-.263.342v.93h-.538v-2.281h.538v.826c.096-.163.238-.234.443-.234.225 0 .409.096.509.271.07.125.079.192.079.467v.952Zm-1.556 0c-.317 0-.463-.15-.463-.48v-.801h-.225v-.359h.225v-.517h.534v.517h.304v.359h-.304v.65c.004.243.02.255.225.255h.104v.376Zm-1.624 0v-1.281h-.234v-.359h.234v-.05c0-.434.163-.592.581-.592h.292v.363h-.088c-.2 0-.25.045-.25.229v.05h.317v.359h-.317v1.28Zm-3.554 0v-2.281h.567v1.831h.964v.45Z"/></svg>