<?xml version="1.0" encoding="UTF-8"?>
<svg version="1.1" viewBox="0 0 24 24" width="24" height="24" xmlns="http://www.w3.org/2000/svg">
 <path d="m19.86 15.03c1.3773 0.50929 2.1397 1.5503 2.1397 2.9244 0 1.8354-1.3517 3.1742-3.1999 3.1742-0.68866 0-1.3133-0.18578-2.1909-0.65022-1.8802-0.99295-3.8405-1.3645-7.2005-1.3645-1.9987 0-3.0173 0.13133-4.1544 0.53491a3.2031 3.2031 0 0 1-1.1787 0.25304c-1.1947 0-2.0756-0.84561-2.0756-1.9955 0-0.79436 0.42281-1.4222 1.4638-2.1781 2.9628-2.1461 5.1698-6.3229 5.41-10.237a2.7546 2.7546 0 0 1 2.8123-2.6201c1.5247 0 2.7643 1.1339 2.8571 2.6169 0.29148 4.5324 2.5048 8.501 5.3171 9.542m-5.3139 2.6778c1.2812 0.01922 2.0948-0.73991 2.0948-1.9443a2.114 2.114 0 0 0-0.28507-1.0955l-2.9853-5.1121c-0.43562-0.74311-0.99936-1.0987-1.7489-1.0987a1.9218 1.9218 0 0 0-1.7649 1.0826l-2.6714 5.0288a2.5625 2.5625 0 0 0-0.29148 1.1531c0 1.0955 0.81999 1.8834 1.9731 1.8994z" fill="#44739e"/>
</svg>
