<svg xmlns="http://www.w3.org/2000/svg" viewBox="0 0 24 24"><path fill="#44739e" d="M19.86 15.03c1.377.51 2.14 1.55 2.14 2.924 0 1.836-1.352 3.175-3.2 3.175-.689 0-1.313-.186-2.191-.65-1.88-.994-3.84-1.365-7.2-1.365-2 0-3.018.131-4.155.535a3.2 3.2 0 0 1-1.179.253C2.881 19.902 2 19.056 2 17.906c0-.794.423-1.422 1.464-2.178 2.962-2.146 5.17-6.323 5.41-10.237a2.755 2.755 0 0 1 2.812-2.62c1.525 0 2.764 1.134 2.857 2.617.291 4.532 2.505 8.501 5.317 9.542m-5.314 2.678c1.281.019 2.095-.74 2.095-1.944a2.1 2.1 0 0 0-.285-1.096L13.37 9.556c-.436-.743-1-1.099-1.75-1.099A1.92 1.92 0 0 0 9.858 9.54l-2.672 5.029a2.56 2.56 0 0 0-.291 1.153c0 1.095.82 1.883 1.973 1.9Z"/></svg>