<?xml version="1.0" encoding="UTF-8" standalone="no"?>
<svg
	width="24"
	height="24"
	viewBox="0 0 24 24"
	version="1.1"
	xmlns="http://www.w3.org/2000/svg"
	xmlns:svg="http://www.w3.org/2000/svg">
	<path
		style="fill:#44739e"
		d="M 6.3730469,2.0195313 6.0214844,2.71875 C 5.8286544,3.10414 5.671875,3.4265469 5.671875,3.4355469 c 0,0.0085 0.3829325,0.015625 0.8515625,0.015625 H 7.375 l 0.1171875,-0.1660156 0.1152344,-0.1679688 1.8125,0.00781 1.8144531,0.00781 0.0078,0.078125 c 0.009,0.07792 -0.01226,0.087865 -1.158204,0.515625 -0.6420296,0.23966 -1.1818184,0.4536094 -1.1992184,0.4746094 -0.01742,0.02096 -0.1114843,0.3675543 -0.2089843,0.7714843 -0.09751,0.40393 -0.1845125,0.734965 -0.1953125,0.734375 C 8.4696488,5.7064413 8.3598012,5.57102 8.2382813,5.40625 L 8.0175781,5.1054687 V 4.5957031 c 0,-0.46749 -0.0044,-0.5160562 -0.0625,-0.5976562 -0.1203,-0.16899 -0.1737487,-0.1796875 -0.9179687,-0.1796875 -0.60047,0 -0.6934563,0.00549 -0.7851563,0.054687 C 6.1087331,3.9498669 6.0371094,4.09709 6.0371094,4.3125 V 4.4882812 H 5.9296875 5.8242187 v 1.7070313 1.7070312 h 0.1054688 0.1074219 v 0.1894532 c 1.3e-4,0.21347 0.062475,0.3491062 0.203125,0.4414062 0.07158,0.0469 0.1742343,0.056712 0.7089843,0.070312 0.56008,0.0142 0.6460044,0.023238 0.8027344,0.085937 0.084297,0.033688 0.1554559,0.069639 0.171875,0.085937 0,0 0,0.00195 0,0.00195 0,0 0.00195,0 0.00195,0 0,0 0,0.00195 0,0.00195 0,0 0.00195,0 0.00195,0 0,0 0,0.00195 0,0.00195 0,0.01978 -2.7383969,1.345703 -2.7792969,1.345703 0,0 -0.00195,0 -0.00195,0 0,0 0,-0.002 0,-0.002 0,0 0,-0.002 0,-0.002 -0.00264,-0.02414 0.024809,-0.1609217 0.066406,-0.3242189 0.06345,-0.24906 0.1471863,-0.4541256 0.3476563,-0.8535156 0.14504,-0.28897 0.2636718,-0.5320156 0.2636718,-0.5410156 0,0 0,-0.00195 0,-0.00195 0,0 -0.00195,0 -0.00195,0 -0.023945,-0.00727 -0.1622265,-0.010391 -0.3242187,-0.00586 l -0.3242188,0.00781 -0.2558594,0.4570312 c -0.4237099,0.75516 -0.4969999,0.9608613 -0.5,1.4257809 -9.4e-4,0.13798 0.092711,1.564602 0.2070313,3.169922 l 0.2070312,2.917969 0.3574219,0.28125 0.3574219,0.28125 0.00781,1.882812 0.00977,1.88086 0.099609,0.09961 0.099609,0.09961 1.0878906,0.0078 c 1.19366,0.0085 1.1877569,0.01034 1.3105469,-0.171875 0.06873,-0.10198 0.068359,-0.114199 0.068359,-1.074219 0,-0.53392 0.00858,-0.970703 0.017578,-0.970703 0.00906,0 0.3965912,0.22737 0.8632812,0.50586 l 0.8496094,0.505859 0.4199215,1.140625 0.419922,1.136719 1.205078,-0.0078 1.205079,-0.0078 0.414062,-1.126953 0.414063,-1.128907 0.83789,-0.507812 c 0.46063,-0.27946 0.848728,-0.508766 0.861328,-0.509766 0.0126,-0.0013 0.02149,0.424033 0.02149,0.945313 0,1.05039 0.01047,1.10484 0.197265,1.21875 0.08709,0.0534 0.169017,0.05848 1.154297,0.05859 1.19125,1.2e-4 1.189795,-7.23e-4 1.302734,-0.220703 0.055,-0.10748 0.05859,-0.20369 0.05859,-1.9375 v -1.822265 l 0.345703,-0.277344 0.347657,-0.277344 0.01758,-0.208984 c 0.0105,-0.11472 0.111306,-1.484079 0.222656,-3.042969 0.21889,-3.06485 0.218362,-3.056456 0.07617,-3.4785155 -0.03328,-0.09881 -0.195025,-0.4232431 -0.359375,-0.7207031 L 18.824219,8.3886719 h -0.328125 -0.328125 l 0.273437,0.5449219 c 0.20436,0.40824 0.292563,0.6246418 0.351563,0.8574218 0.0434,0.17115 0.07341,0.3172184 0.06641,0.3242184 -0.01634,0.01634 -2.791969,-1.309084 -2.792969,-1.333984 0,0 0,-0.00195 0,-0.00195 0,0 0,-0.00195 0,-0.00195 0,0 0.002,0 0.002,0 0.01588,-0.015169 0.08752,-0.051638 0.171875,-0.085937 0.15698,-0.0638 0.241112,-0.073544 0.800782,-0.089844 0.43236,-0.0126 0.649331,-0.031947 0.707031,-0.060547 0.13336,-0.06617 0.190131,-0.1771793 0.207031,-0.4121093 l 0.01563,-0.2128907 0.113281,-0.00977 0.115235,-0.00977 V 6.1933594 4.4882812 H 18.076172 17.955078 V 4.296875 c -10e-5,-0.13512 -0.01835,-0.2179094 -0.06055,-0.2871094 -0.10962,-0.17976 -0.167865,-0.1933593 -0.921875,-0.1933593 -0.60047,0 -0.691503,0.00744 -0.783203,0.056641 -0.18762,0.10065 -0.214844,0.1978256 -0.214844,0.7597656 v 0.4960937 l -0.21875,0.2910157 c -0.108695,0.1446103 -0.20796,0.2558295 -0.234375,0.265625 0,0 -0.002,0 -0.002,0 0,0 -0.002,0 -0.002,0 0,0 -0.002,0 -0.002,0 C 15.503755,5.6722269 15.415159,5.3392225 15.318359,4.9453125 15.221589,4.5514025 15.130434,4.2140656 15.115234,4.1972656 15.100084,4.1805056 14.56959,3.9734681 13.9375,3.7363281 l -1.148437,-0.4316406 -0.0098,-0.09375 -0.0098,-0.095703 h 1.808594 1.810547 l 0.11914,0.1679687 0.121094,0.1660157 0.859375,0.00195 h 0.861328 L 17.992187,2.734375 17.634766,2.0195313 h -5.63086 z"
	/>
</svg>
