<svg xmlns="http://www.w3.org/2000/svg" viewBox="0 0 24 24"><path fill="#44739e" d="m6.362 2-.353.7c-.192.386-.35.71-.35.719 0 .008.384.015.853.015h.854l.117-.166.115-.169 1.817.008 1.818.008.008.078c.01.079-.012.089-1.161.517-.643.241-1.184.454-1.202.475-.017.021-.11.369-.208.774s-.186.736-.197.735c-.01 0-.12-.136-.242-.3l-.221-.303V4.58c0-.468-.005-.516-.063-.598-.12-.169-.174-.18-.92-.18-.601 0-.694.006-.786.055q-.216.116-.216.441v.175h-.213v3.421h.213v.19c0 .214.063.35.204.442.072.047.174.057.711.07.561.015.646.024.804.086a1 1 0 0 1 .172.087v.002h.002v.002h.002v.002c0 .02-2.744 1.348-2.786 1.348h-.002v-.004a2 2 0 0 1 .068-.324c.063-.251.147-.455.348-.856.146-.29.264-.533.264-.541v-.003H5.81a2 2 0 0 0-.325-.006l-.324.008-.257.458c-.425.756-.498.963-.501 1.429-.001.138.093 1.568.207 3.176l.208 2.924.358.281.358.282.008 1.887.01 1.884.101.101.099.1 1.09.007c1.195.009 1.189.01 1.313-.172.069-.103.068-.115.068-1.077 0-.535.009-.972.018-.972.01 0 .397.228.864.506l.852.507.421 1.143.421 1.139 1.207-.007 1.208-.008.414-1.129.415-1.133.84-.508c.461-.28.851-.51.863-.511s.022.425.022.948c0 1.052.01 1.107.197 1.221.087.054.17.059 1.156.059 1.195 0 1.193 0 1.306-.221.055-.108.059-.204.059-1.941v-1.826l.346-.279.349-.277.018-.211c.01-.114.11-1.486.222-3.048.22-3.071.219-3.063.076-3.486a7 7 0 0 0-.36-.721l-.299-.541h-.657l.273.547c.206.409.294.625.353.859.043.171.073.317.066.324-.016.017-2.798-1.311-2.799-1.336v-.004h.002a1 1 0 0 1 .173-.087c.157-.063.241-.073.802-.09.433-.012.652-.031.709-.06.133-.066.19-.177.207-.413l.016-.213.113-.01.116-.01V4.473h-.244v-.191a.5.5 0 0 0-.061-.288c-.11-.18-.168-.194-.924-.194-.601 0-.693.008-.785.057-.188.1-.215.198-.215.761v.497l-.22.291c-.108.146-.208.257-.235.267h-.006a11 11 0 0 1-.197-.741c-.096-.396-.189-.734-.204-.751-.015-.016-.546-.224-1.18-.461l-1.15-.432-.01-.095-.01-.096h3.627l.119.169.12.166.862.002h.864l-.359-.719L17.647 2h-5.643Z"/></svg>