<svg xmlns="http://www.w3.org/2000/svg" viewBox="0 0 24 24"><path fill="#44739e" d="M21.298 5.676c-.564.237-.659.258-1.395.31-.541.037-.63.047-1.01.174-.625.205-1.162.625-1.683 1.325-.247.332-1.041 1.594-1.041 1.657 0 .047-.541.831-.762 1.1-.479.594-.9.899-1.784 1.325-.641.3-1.02.436-3.418 1.231-.894.294-1.777.615-1.972.72-.71.374-1.263.863-1.836 1.615-.836 1.1-.81 1.094-2.535.789a10 10 0 0 0-.563-.053c-.536-.041-.852.037-1.11.279L2 16.327l.148.073c.078.042.294.195.467.332.179.141.384.289.458.326.074.036.142.073.153.084s-.074.141-.19.294c-.363.484-.494.726-.478.873.015.137.026.142.358.142a2.9 2.9 0 0 0 1.051-.173c.541-.195 1.715-.784 2.32-1.167.646-.417 1.431-.832 1.63-.868.068-.017.295-.059.495-.095.483-.09 1.22-.08 2.156.041.09.011.31.038.5.054.189.02.358.047.378.063.022.01.395.031.832.047.778.021.92.005 1.083-.158.105-.111.321-.526.415-.821.174-.536.347-.767.305-.41-.094.805-.268 1.41-.594 2.009-.216.416-.553.91-.779 1.163-.268.289-.262.3.074.262.516-.052 1.226-.33 1.746-.683.69-.468 1.373-1.409 1.825-2.525.09-.225.184-.183.153.069-.011.079-.032.263-.048.415l-.025.274.294-.169c.694-.4 1.178-1.051 1.772-2.403.189-.432.731-2.435.894-3.313a8 8 0 0 1 .226-.869c.106-.357.164-.462.4-.715.153-.158.521-.462.815-.673.6-.421.794-.625.989-1.004.174-.348.237-.942.11-1.131-.11-.168-.236-.163-.635.005"/></svg>