<svg xmlns="http://www.w3.org/2000/svg" viewBox="0 0 24 24"><path fill="#44739e" d="M8.644 8.337v7.328H7.97V9.68l-2.41 4.681h-.473l-2.414-4.67v5.974H2V8.337h.7l2.624 5.06 2.625-5.06Zm7.131 7.433-1.219-1.3a2.28 2.28 0 0 1-2.028 1.2 2.064 2.064 0 0 1-2.206-1.964c0-.9.557-1.459 1.627-2.067A2.5 2.5 0 0 1 11 9.924a1.6 1.6 0 0 1 1.63-1.566 1.58 1.58 0 0 1 1.649 1.566 2.35 2.35 0 0 1-1.322 1.838l1.511 1.649.892-1.449.535.335-.986 1.609 1.354 1.438Zm-3.4-3.677c-.953.525-1.376.947-1.376 1.6a1.454 1.454 0 0 0 1.533 1.365 1.74 1.74 0 0 0 1.601-1.052Zm-.7-2.173c0 .408.273.757.87 1.4.7-.411 1.092-.841 1.092-1.4a.937.937 0 0 0-1-.976.95.95 0 0 0-.964.976m10.272-.014-.608.222a1.826 1.826 0 0 0-1.849-1.263c-1.008 0-1.667.5-1.667 1.354 0 1.827 4.179.859 4.179 3.433a2.184 2.184 0 0 1-2.457 2.089 2.9 2.9 0 0 1-2.749-1.689l.568-.346a2.28 2.28 0 0 0 2.123 1.416c1.215 0 1.849-.556 1.849-1.481 0-1.838-4.179-.936-4.179-3.433a2.067 2.067 0 0 1 2.319-1.962 2.4 2.4 0 0 1 2.471 1.66"/></svg>