<?xml version="1.0" encoding="UTF-8"?>
<svg width="24px" fill="#44739e" height="24px" viewBox="0 0 24 24" version="1.1" xmlns="http://www.w3.org/2000/svg" xmlns:xlink="http://www.w3.org/1999/xlink">
            <path d="M 7.506,19.967 7.413,19.714 6.868,18.251 H 6.51 l 0.05,0.143 -0.528,1.32 -0.055,0.138 -0.066,0.165 a 0.337,0.337 0 0 1 -0.3,0.22 v 0.1 h 0.814 v -0.1 L 6.3,20.22 C 6.212,20.204 6.113,20.182 6.113,20.072 A 1.124,1.124 0 0 1 6.2,19.72 l 0.093,-0.248 h 0.655 l 0.088,0.242 0.05,0.143 a 0.8,0.8 0 0 1 0.065,0.248 c 0,0.115 -0.137,0.121 -0.308,0.126 v 0.1 h 1 v -0.1 C 7.711,20.226 7.656,20.215 7.612,20.176 A 0.614,0.614 0 0 1 7.506,19.967 Z m -1.155,-0.638 0.28,-0.72 0.259,0.72 z m 5.577,0.88 h -0.352 c -0.187,0 -0.2,0 -0.2,-0.187 v -0.3 h -0.005 v -0.347 h 0.456 c 0.226,0 0.259,0.011 0.27,0.264 h 0.11 V 19.007 H 12.1 c -0.027,0.247 -0.071,0.247 -0.237,0.247 h -0.489 v -0.8 h 0.5 c 0.22,0 0.292,0.022 0.347,0.33 h 0.1 l -0.022,-0.462 h -1.608 v 0.094 c 0.264,-0.006 0.324,0.033 0.324,0.258 v 1.3 c 0,0.181 -0.022,0.264 -0.324,0.253 v 0.1 h 1.694 l 0.05,-0.506 h -0.11 c -0.088,0.355 -0.193,0.388 -0.397,0.388 z m 2.877,-0.341 -0.066,-0.143 a 1.837,1.837 0 0 0 -0.1,-0.192 1.047,1.047 0 0 0 -0.105,-0.116 c 0.033,-0.016 0.077,-0.027 0.121,-0.049 a 0.5,0.5 0 0 0 0.314,-0.484 c 0,-0.589 -0.748,-0.589 -0.908,-0.589 a 7.242,7.242 0 0 0 -0.825,0.05 v 0.1 c 0.3,0.017 0.33,0.017 0.33,0.226 v 1.309 c 0,0.181 -0.022,0.264 -0.33,0.253 v 0.1 h 1.051 v -0.1 h -0.149 c -0.187,0 -0.214,-0.05 -0.214,-0.314 v -0.44 h 0.28 c 0.022,0.039 0.083,0.138 0.138,0.242 0.055,0.104 0.121,0.22 0.148,0.259 a 0.77,0.77 0 0 0 0.726,0.4 v -0.105 c -0.174,-0.033 -0.257,-0.093 -0.411,-0.407 z m -0.4,-0.561 a 0.649,0.649 0 0 1 -0.286,0.055 h -0.2 v -0.94 c 0.044,0 0.121,-0.011 0.192,-0.011 A 0.452,0.452 0 0 1 14.595,18.9 0.412,0.412 0 0 1 14.4,19.307 Z M 9.673,19.412 A 1.121,1.121 0 0 0 9.42,19.212 L 9.129,19.02 a 1.54,1.54 0 0 1 -0.182,-0.138 0.283,0.283 0 0 1 -0.11,-0.231 0.3,0.3 0 0 1 0.308,-0.28 c 0.226,0 0.385,0.159 0.484,0.418 h 0.11 L 9.69,18.3 H 9.59 C 9.562,18.333 9.546,18.344 9.535,18.344 A 1.085,1.085 0 0 1 9.4,18.3 0.841,0.841 0 0 0 9.1,18.251 0.547,0.547 0 0 0 8.545,18.773 c 0,0.182 0.077,0.369 0.489,0.622 a 1.625,1.625 0 0 1 0.435,0.324 0.353,0.353 0 0 1 -0.3,0.572 0.575,0.575 0 0 1 -0.517,-0.445 H 8.54 l 0.061,0.522 h 0.1 c 0,-0.033 0.011,-0.044 0.049,-0.044 a 0.108,0.108 0 0 1 0.055,0.011 c 0.121,0.033 0.193,0.055 0.248,0.066 a 1.239,1.239 0 0 0 0.154,0.011 0.6,0.6 0 0 0 0.632,-0.583 0.612,0.612 0 0 0 -0.011,-0.1 0.676,0.676 0 0 0 -0.155,-0.317 z m 11.969,0.522 v -0.214 0 -0.9 c 0,-0.336 0,-0.385 0.347,-0.4 v -0.105 h -1.04 v 0.105 c 0.3,0.022 0.346,0.055 0.346,0.3 v 1.018 a 1.189,1.189 0 0 1 -0.049,0.423 c -0.028,0.05 -0.033,0.055 -0.281,0.072 v 0.1 H 22 v -0.1 C 21.708,20.22 21.642,20.182 21.642,19.934 Z m -4.07,0.033 -0.093,-0.253 -0.545,-1.463 h -0.358 l 0.05,0.143 -0.523,1.32 -0.055,0.138 a 1.28,1.28 0 0 1 -0.066,0.165 0.342,0.342 0 0 1 -0.3,0.22 v 0.1 H 16.5 v -0.1 L 16.368,20.226 C 16.286,20.21 16.181,20.188 16.181,20.078 a 1.012,1.012 0 0 1 0.094,-0.352 l 0.088,-0.248 h 0.66 l 0.082,0.242 0.05,0.143 a 0.661,0.661 0 0 1 0.066,0.248 c 0,0.115 -0.132,0.121 -0.308,0.126 v 0.1 h 0.99 v -0.1 c -0.126,-0.005 -0.187,-0.016 -0.225,-0.055 a 0.614,0.614 0 0 1 -0.106,-0.215 z m -1.144,-0.638 0.28,-0.72 0.259,0.72 z m 3.619,-1.072 c -0.022,0.055 -0.038,0.066 -0.187,0.066 H 18.485 A 0.12,0.12 0 0 1 18.37,18.257 h -0.083 l -0.044,0.533 h 0.1 c 0.039,-0.115 0.055,-0.181 0.072,-0.225 a 0.144,0.144 0 0 1 0.06,-0.083 0.415,0.415 0 0 1 0.22,-0.033 h 0.336 v 1.529 c 0,0.121 -0.011,0.182 -0.055,0.209 a 0.32,0.32 0 0 1 -0.11,0.033 c -0.05,0 -0.116,0.006 -0.215,0.011 v 0.1 h 1.117 v -0.1 a 1.7,1.7 0 0 1 -0.2,-0.011 0.251,0.251 0 0 1 -0.11,-0.033 c -0.049,-0.033 -0.06,-0.093 -0.06,-0.231 v -1.507 h 0.374 c 0.17,0 0.236,0.006 0.308,0.341 h 0.1 L 20.131,18.257 Z M 4.64,19.9 4.629,19.719 l -0.066,-1 c -0.011,-0.154 0,-0.226 0.028,-0.259 a 0.2,0.2 0 0 1 0.082,-0.033 1.657,1.657 0 0 1 0.176,0 V 18.322 H 4.178 l -0.61,1.4 -0.05,0.105 -0.044,-0.105 -0.6,-1.4 H 2.187 v 0.105 c 0.264,0.016 0.3,0.016 0.286,0.209 L 2.385,19.719 2.374,19.851 C 2.347,20.203 2.347,20.22 2,20.236 v 0.1 h 0.8 v -0.1 c -0.11,0 -0.286,0 -0.286,-0.126 A 0.863,0.863 0 0 1 2.52,19.972 l 0.022,-0.247 0.093,-1.095 0.468,1.1 0.264,0.622 h 0.1 l 0.269,-0.622 0.484,-1.1 0.066,1.1 0.011,0.2 c 0,0.027 0.011,0.121 0.011,0.148 A 0.122,0.122 0 0 1 4.22,20.205 1.2,1.2 0 0 1 3.978,20.238 v 0.1 h 0.985 v -0.1 C 4.662,20.248 4.657,20.165 4.64,19.9 Z m 6.099,-5.103 h 2.523 v 0.623 h -2.523 z m 0.311,0.872 h 1.915 v 1.292 H 11.05 Z m 4.672,-2.601 h -0.9 c 0,0.53 0.342,0.779 0.9,0.654 z m -2.834,1.464 a 1.584,1.584 0 0 1 0.42,-1.059 1.978,1.978 0 0 1 0.623,-0.327 c 0.233,-0.047 0.233,-0.093 0.233,-0.093 H 9.789 c 0,0.015 0,0.046 0.233,0.093 a 1.466,1.466 0 0 1 0.654,0.327 1.582,1.582 0 0 1 0.421,1.059 z M 7.8270001,11.324 H 16.142 v 0.311 H 7.8270001 Z M 9.181,13.068 h -0.9 v 0.654 c 0.558,0.125 0.9,-0.122 0.9,-0.654 z M 14.8,11.091 h 0.95 A 14.346,14.346 0 0 1 16.217,7.883 11.067,11.067 0 0 1 17.5,5.422 2.161,2.161 0 0 0 16.161,5.874 3.794,3.794 0 0 0 15.037,7 c 0.031,0.031 0.218,-0.14 0.576,-0.265 a 1.2,1.2 0 0 1 0.545,-0.109 9.7,9.7 0 0 0 -0.95,2.18 14.519,14.519 0 0 0 -0.408,2.285 z m -6.553,0 h 0.934 a 14.6,14.6 0 0 0 -0.4,-2.29 9.755,9.755 0 0 0 -0.95,-2.18 1.176,1.176 0 0 1 0.545,0.109 c 0.373,0.125 0.56,0.3 0.591,0.265 A 3.794,3.794 0 0 0 7.842,5.874 2.138,2.138 0 0 0 6.5,5.422 11.067,11.067 0 0 1 7.78,7.883 15.437,15.437 0 0 1 8.247,11.091 Z m 1.931,0 h 1.043 l 0.094,-0.156 A 6.719,6.719 0 0 0 12,9.269 a 5.962,5.962 0 0 0 0.67,1.666 l 0.093,0.156 h 1.043 a 8.9,8.9 0 0 1 -1.23,-2.554 11.611,11.611 0 0 1 -0.28,-3.27 c 0,0 0.265,0.109 0.592,0.264 0.2,0.094 0.607,0.3 0.654,0.218 A 11.709,11.709 0 0 1 12.514,4.441 16.1,16.1 0 0 1 12,2.651 c -0.093,0.015 -0.171,1.074 -0.529,1.79 a 8.839,8.839 0 0 1 -1.028,1.308 c 0.047,0.078 0.451,-0.124 0.654,-0.218 0.327,-0.14 0.592,-0.264 0.592,-0.264 a 10.986,10.986 0 0 1 -0.281,3.27 9.072,9.072 0 0 1 -1.23,2.554 z m -2.336,1.401 h 8.315 v 0.311 H 7.842 Z M 8.2469997,11.9 H 15.768 v 0.311 H 8.2469997 Z"/>

</svg>