<svg xmlns="http://www.w3.org/2000/svg" viewBox="0 0 24 24"><path fill="#44739e" d="M19.248 9.219a1.6 1.6 0 0 0-.325-.261l-2.564-2.766a1.257 1.257 0 0 0-1.771-.113 1 1 0 0 0-.114.113l-2.712 2.924-.313-.339a2 2 0 0 0-.36-.311l-2.1-2.274a1.26 1.26 0 0 0-1.777-.113 1 1 0 0 0-.113.113L2 11.701 4.599 14.5l3.06-3.314 2.548 2.753a1.566 1.566 0 0 0 2.21.127 1.4 1.4 0 0 0 .127-.127l2.58-2.784 3.877 4.022L22 12.073Zm-7.147 4.305a.955.955 0 0 1-1.347.093 1 1 0 0 1-.094-.093l-2.55-2.753 1.455-1.57a1 1 0 0 1 .723-.328.79.79 0 0 1 .714.32l1.799 1.949a1.63 1.63 0 0 0 1.028.514Zm3.607-2.378 1.579-1.633a1.137 1.137 0 0 1 1.6-.058q.03.028.057.058l2.467 2.56-2.406 2.499ZM8.95 16.092h-.348a.1.1 0 0 0-.1.048.13.13 0 0 0 .015.135l.6.831-.771 1.068h.4a.42.42 0 0 0 .293-.151l.659-.91Zm.839 1.151-.287.393.394.539h.356a.11.11 0 0 0 .1-.048.13.13 0 0 0-.015-.135Zm-2.237-.98v.072a1 1 0 0 0-.284-.207.9.9 0 0 0-.415-.1.97.97 0 0 0-.72.324 1.167 1.167 0 0 0 0 1.555.98.98 0 0 0 .72.323.94.94 0 0 0 .415-.1 1 1 0 0 0 .284-.207v.244h.306a.173.173 0 0 0 .174-.171v-1.904h-.301a.17.17 0 0 0-.175.169Zm-.614 1.491a.622.622 0 1 1 .621-.623.62.62 0 0 1-.617.623Zm7.351-1.722a1.1 1.1 0 1 0 .778.323 1.1 1.1 0 0 0-.774-.323Zm0 1.722a.622.622 0 1 1 .621-.623.62.62 0 0 1-.617.623Zm6.082-1.721a1.06 1.06 0 0 0-.761.322 1.12 1.12 0 0 0 0 1.556 1.15 1.15 0 0 0 1.626-.027 1 1 0 0 0 .115-.14l-.265-.151a.27.27 0 0 0-.269.051.68.68 0 0 1-.442.133.625.625 0 0 1-.57-.428h1.624v-.021a1.1 1.1 0 0 0-.3-.972 1.06 1.06 0 0 0-.754-.323Zm-.576.899a.6.6 0 0 1 1.152 0Zm-15.191-.899a.8.8 0 0 0-.626.309.7.7 0 0 0-1.126-.04v-.209H2.55a.174.174 0 0 0-.175.171v1.912h.306a.174.174 0 0 0 .175-.171v-1.106a.4.4 0 0 1 .792-.019v1.3h.3a.173.173 0 0 0 .174-.171v-1.11a.4.4 0 0 1 .792-.013v1.292h.306a.174.174 0 0 0 .175-.171v-1.184a.79.79 0 0 0-.792-.791Zm7.663-.582v.885a1 1 0 0 0-.278-.212.94.94 0 0 0-.414-.1.97.97 0 0 0-.72.324 1.165 1.165 0 0 0 0 1.555.98.98 0 0 0 .72.323.9.9 0 0 0 .414-.1 1 1 0 0 0 .284-.207v.244h.3a.173.173 0 0 0 .175-.171v-2.713h-.306a.17.17 0 0 0-.171.171Zm-.614 2.299a.622.622 0 1 1 .62-.623.62.62 0 0 1-.616.627Zm-1.224-1.662h-.4a.43.43 0 0 0-.284.151l-.245.339.291.399.642-.887Zm7.634-.06a.79.79 0 0 0-.626.309.7.7 0 0 0-.964-.192.7.7 0 0 0-.163.152v-.209h-.306a.173.173 0 0 0-.173.17v1.912h.299a.173.173 0 0 0 .175-.171v-1.1a.4.4 0 0 1 .792-.019v1.3h.306a.17.17 0 0 0 .174-.17v-1.111a.4.4 0 0 1 .793-.013v1.292h.3a.173.173 0 0 0 .175-.171v-1.184a.79.79 0 0 0-.792-.791Z"/></svg>