<?xml version="1.0" encoding="UTF-8"?>
<svg width="24px" fill="#44739e" height="24px" viewBox="0 0 24 24" version="1.1" xmlns="http://www.w3.org/2000/svg" xmlns:xlink="http://www.w3.org/1999/xlink">
            <path d="M 19.261,9.794 A 1.605,1.605 0 0 0 18.936,9.533 L 16.372,6.766 A 1.257,1.257 0 0 0 14.6,6.653 1.216,1.216 0 0 0 14.486,6.766 L 11.773,9.691 11.46,9.352 A 1.9,1.9 0 0 0 11.1,9.04 L 9,6.766 A 1.26,1.26 0 0 0 7.222,6.653 1.339,1.339 0 0 0 7.109,6.766 l -5.1,5.51 2.6,2.8 3.06,-3.315 2.549,2.754 a 1.566,1.566 0 0 0 2.211,0.127 1.384,1.384 0 0 0 0.127,-0.127 l 2.58,-2.785 3.878,4.023 3,-3.105 z M 12.113,14.1 A 0.955,0.955 0 0 1 10.765,14.193 0.918,0.918 0 0 1 10.671,14.1 l -2.55,-2.754 1.455,-1.57 v 0 a 0.986,0.986 0 0 1 0.723,-0.328 0.793,0.793 0 0 1 0.714,0.32 l 1.8,1.949 a 1.63,1.63 0 0 0 1.028,0.514 z m 3.607,-2.379 1.58,-1.633 v 0 a 1.137,1.137 0 0 1 1.6,-0.058 c 0.02,0.019 0.039,0.038 0.057,0.058 l 2.468,2.56 -2.407,2.5 z M 8.961,16.668 H 8.613 a 0.1,0.1 0 0 0 -0.1,0.048 0.134,0.134 0 0 0 0.015,0.135 l 0.6,0.832 -0.771,1.068 h 0.4 A 0.422,0.422 0 0 0 9.05,18.6 L 9.709,17.69 Z M 9.8,17.82 9.513,18.213 9.907,18.752 h 0.356 a 0.106,0.106 0 0 0 0.1,-0.048 0.134,0.134 0 0 0 -0.015,-0.135 z M 7.562,16.839 v 0.072 a 0.988,0.988 0 0 0 -0.284,-0.207 0.93,0.93 0 0 0 -0.415,-0.1 0.972,0.972 0 0 0 -0.72,0.324 1.167,1.167 0 0 0 0,1.556 0.98,0.98 0 0 0 0.72,0.323 0.943,0.943 0 0 0 0.415,-0.1 0.988,0.988 0 0 0 0.284,-0.207 v 0.244 H 7.868 A 0.173,0.173 0 0 0 8.043,18.573 V 16.668 H 7.741 a 0.172,0.172 0 0 0 -0.175,0.169 z m -0.614,1.492 a 0.622,0.622 0 1 1 0.621,-0.623 v 0 a 0.622,0.622 0 0 1 -0.617,0.623 z m 7.353,-1.723 a 1.1,1.1 0 1 0 0.778,0.323 1.1,1.1 0 0 0 -0.774,-0.323 z m 0,1.723 a 0.622,0.622 0 1 1 0.621,-0.623 v 0 a 0.622,0.622 0 0 1 -0.617,0.623 z m 6.084,-1.722 a 1.058,1.058 0 0 0 -0.762,0.322 1.121,1.121 0 0 0 0,1.557 1.15,1.15 0 0 0 1.627,-0.027 1.032,1.032 0 0 0 0.115,-0.14 L 21.1,18.17 a 0.272,0.272 0 0 0 -0.269,0.051 0.679,0.679 0 0 1 -0.442,0.133 0.625,0.625 0 0 1 -0.571,-0.428 h 1.625 v -0.021 a 1.107,1.107 0 0 0 -0.3,-0.973 1.055,1.055 0 0 0 -0.754,-0.323 z m -0.577,0.9 a 0.6,0.6 0 0 1 1.153,0 z M 4.614,16.609 A 0.792,0.792 0 0 0 3.987,16.918 0.7,0.7 0 0 0 2.861,16.878 V 16.669 H 2.559 A 0.174,0.174 0 0 0 2.384,16.84 v 0 1.913 H 2.69 a 0.174,0.174 0 0 0 0.175,-0.171 v -1.106 a 0.4,0.4 0 0 1 0.792,-0.019 v 1.3 h 0.3 a 0.173,0.173 0 0 0 0.175,-0.171 v 0 -1.11 a 0.4,0.4 0 0 1 0.792,-0.013 v 1.292 H 5.23 A 0.174,0.174 0 0 0 5.405,18.584 V 17.4 A 0.791,0.791 0 0 0 4.613,16.608 v 0 z m 7.665,-0.582 v 0.885 A 1.007,1.007 0 0 0 12,16.7 a 0.942,0.942 0 0 0 -0.414,-0.1 0.972,0.972 0 0 0 -0.72,0.324 1.165,1.165 0 0 0 0,1.556 0.976,0.976 0 0 0 0.72,0.323 0.929,0.929 0 0 0 0.414,-0.1 1.007,1.007 0 0 0 0.285,-0.207 v 0.244 h 0.3 a 0.173,0.173 0 0 0 0.175,-0.171 v 0 -2.714 h -0.306 a 0.172,0.172 0 0 0 -0.171,0.171 z m -0.615,2.3 a 0.622,0.622 0 1 1 0.621,-0.623 v 0 a 0.622,0.622 0 0 1 -0.617,0.627 z M 10.44,16.664 h -0.4 a 0.426,0.426 0 0 0 -0.284,0.151 l -0.245,0.339 0.291,0.4 0.642,-0.888 v 0 z m 7.636,-0.06 a 0.79,0.79 0 0 0 -0.626,0.309 0.7,0.7 0 0 0 -0.964,-0.192 0.714,0.714 0 0 0 -0.163,0.152 v -0.209 h -0.306 a 0.173,0.173 0 0 0 -0.174,0.17 v 0 1.913 h 0.3 a 0.173,0.173 0 0 0 0.175,-0.171 v 0 -1.1 a 0.4,0.4 0 0 1 0.792,-0.019 v 1.3 h 0.306 a 0.172,0.172 0 0 0 0.174,-0.17 v -1.111 a 0.4,0.4 0 0 1 0.793,-0.013 v 1.292 h 0.3 a 0.173,0.173 0 0 0 0.175,-0.171 v 0 -1.184 a 0.791,0.791 0 0 0 -0.792,-0.792 z"/>

</svg>