<svg xmlns="http://www.w3.org/2000/svg" viewBox="0 0 24 24"><path fill="#44739e" d="M20.583 8.971A1.417 1.417 0 1 0 22 10.388a1.417 1.417 0 0 0-1.417-1.417m0 2.579a1.162 1.162 0 1 1 1.162-1.162 1.16 1.16 0 0 1-1.162 1.162m-.711-1.191.387-.141v.874l.781-.28V9.648l-1.168.421ZM8.066 11.841a2.12 2.12 0 0 0-1.6.717 1.074 1.074 0 0 0-1.1-.717 2.68 2.68 0 0 0-1.62.815v-.378a.333.333 0 0 0-.367-.365H2v.655h.582a.26.26 0 0 1 .29.289v1.645c0 .039.008.058.033.066a.064.064 0 0 0 .071-.024c.439-.459.751-.793 1.092-1.127.436-.427.8-.777 1.246-.777a.558.558 0 0 1 .6.638v.775c0 .039.009.058.034.067a.07.07 0 0 0 .071-.024c.2-.227.6-.647.887-.912a1.6 1.6 0 0 1 1.019-.544.51.51 0 0 1 .535.32 1 1 0 0 1 .05.359v.794h.871v-.844a1.53 1.53 0 0 0-.182-.783 1.27 1.27 0 0 0-1.133-.645m6.076-2.19h-1.376v.651h.562a.26.26 0 0 1 .289.29v1.859a2 2 0 0 0-1.469-.614 2.1 2.1 0 0 0-2.107 2.028 2.06 2.06 0 0 0 .308 1.164h.973a2 2 0 0 1-.407-1.164 1.23 1.23 0 0 1 1.229-1.229 1.88 1.88 0 0 1 1.165.54c.328.259.851.688 1.1.908a.07.07 0 0 0 .071.024q.036-.01.034-.066v-4.03a.333.333 0 0 0-.372-.361m2.69 3.005v-.378a.333.333 0 0 0-.367-.365h-1.376v.655h.582a.258.258 0 0 1 .289.289v1.651q-.002.056.034.066a.065.065 0 0 0 .071-.024c.2-.2.651-.693.947-.982a2.6 2.6 0 0 1 1.672-.928v-.8a1.95 1.95 0 0 0-1.142.273 3.4 3.4 0 0 0-.71.543"/></svg>