<svg xmlns="http://www.w3.org/2000/svg" viewBox="0 0 24 24"><path fill="#44739e" d="M10.96 6.111a.652.652 0 0 0-.658-.724h-.201l-.176 1.525h.387c.459 0 .648-.404.648-.801m2.351-.657h-.007l-.34 1.015h.45ZM19.34 2H4.66A2.67 2.67 0 0 0 2 4.66v14.68A2.67 2.67 0 0 0 4.66 22h14.68A2.67 2.67 0 0 0 22 19.34V4.66A2.67 2.67 0 0 0 19.34 2m-3.414 3.004h1.218l-.046.383h-.805l-.065.539h.704l-.047.384h-.703l-.074.604h1.013l-.047.384h-1.425Zm-1.768 1.699a.96.96 0 0 0 .552.236.25.25 0 0 0 .281-.252c0-.38-.718-.423-.718-1.025a.67.67 0 0 1 .685-.691 1 1 0 0 1 .555.182l-.059.402a.9.9 0 0 0-.483-.201.255.255 0 0 0-.274.251c0 .331.717.374.717 1.016a.646.646 0 0 1-.658.704 1 1 0 0 1-.662-.218Zm-.566-1.732.344 2.322h-.428l-.059-.503h-.603l-.188.503h-.457l.952-2.322Zm-1.739.033h.413l-.274 2.289h-.413Zm-2.111 0h.647a.993.993 0 0 1 1.006 1.114c0 .682-.402 1.175-.919 1.175H9.47Zm-1.64 0h1.217l-.047.383h-.804l-.066.539h.703l-.046.384h-.704l-.072.604h1.01l-.046.384H7.822Zm-3.14 2.289.634-2.289h.454l.314 1.442.655-1.442h.439l.093 2.289h-.402l-.06-1.549h-.005l-.72 1.549h-.195l-.344-1.591h-.006l-.441 1.591Zm2.259 1.574v1.835H5.387V8.867Zm11.237 11.017h-1.833v-3.9a1.835 1.835 0 0 0-1.834-1.834c-.402 0-1.734.16-1.954 2.164a4.17 4.17 0 0 1-1.624 3.098 3.77 3.77 0 0 1-2.156.704 3.67 3.67 0 0 1-3.668-3.669v-3.901h1.832v3.899a1.835 1.835 0 0 0 1.834 1.834c.402 0 1.734-.16 1.956-2.165a4.17 4.17 0 0 1 1.623-3.097 3.8 3.8 0 0 1 2.155-.703 3.67 3.67 0 0 1 3.669 3.668Zm.537-14.497h-.635l-.228 1.911h-.413l.228-1.911h-.618l.046-.383h1.663Z"/></svg>