<?xml version="1.0" encoding="UTF-8" standalone="no"?>
<svg
   width="24"
   height="24"
   viewBox="0 0 24 24"
   version="1.1"
   xmlns="http://www.w3.org/2000/svg"
   xmlns:svg="http://www.w3.org/2000/svg">
  <path
     style="fill:#44739e"
     d="M 2.9594854,2.4054544 C 1.3957843,12.315788 2.2139602,21.594627 2.2139602,21.594625 H 7.1018075 C 7.0436743,21.285376 6.9667968,20.838076 6.8793769,20.292165 6.7929403,19.7524 6.6959979,19.113609 6.5971072,18.418789 c -6.59e-5,-4.63e-4 -1.8e-4,-0.001 -2.45e-4,-0.0015 -0.093676,-0.658434 -0.1888007,-1.374937 -0.2795723,-2.106108 -0.00567,-0.04552 -0.0118,-0.08553 -0.017408,-0.131203 -0.0361,-0.293801 -0.070267,-0.591901 -0.1042266,-0.88948 -0.011542,-0.101143 -0.024083,-0.20112 -0.035317,-0.302379 -0.0433,-0.3905 -0.084019,-0.781233 -0.1213932,-1.16758 -0.023133,-0.239166 -0.042042,-0.471607 -0.062292,-0.706287 -0.013608,-0.15771 -0.029317,-0.318954 -0.041442,-0.473801 -0.013458,-0.17181 -0.022392,-0.333607 -0.033842,-0.501022 -0.013607,-0.198969 -0.029257,-0.402385 -0.039724,-0.59372 -0.00965,-0.176311 -0.013642,-0.337598 -0.020358,-0.506174 -0.00675,-0.169436 -0.016092,-0.345776 -0.019617,-0.50617 -0.00358,-0.162925 -4.925e-4,-0.306269 -4.9e-4,-0.458597 1.08e-5,-0.1501479 -0.003,-0.3096902 7.358e-4,-0.4482959 0.002,-0.074875 0.00567,-0.1448232 0.00883,-0.2160548 0.0025,-0.056708 0.00433,-0.1156641 0.00758,-0.1699507 0.00433,-0.0721 0.01045,-0.1381207 0.016183,-0.2057548 0.00433,-0.050558 0.00792,-0.1036066 0.013,-0.1515574 0.006,-0.056467 0.013742,-0.1066991 0.020842,-0.1594049 0.00717,-0.053275 0.013692,-0.108914 0.022075,-0.158179 0.007,-0.041292 0.015675,-0.076633 0.023542,-0.1150174 0.010733,-0.052275 0.021233,-0.1061299 0.0336,-0.1527832 0.00851,-0.032125 0.018658,-0.058433 0.027958,-0.087795 0.013867,-0.043725 0.027242,-0.088675 0.042917,-0.1260532 0.010217,-0.024417 0.022108,-0.042625 0.033108,-0.06425 0.017467,-0.034242 0.0347,-0.069633 0.0542,-0.096624 0.011558,-0.01605 0.024983,-0.025817 0.037275,-0.039242 0.022658,-0.024633 0.044942,-0.050792 0.070142,-0.066217 0.00283,-0.00175 0.00575,-0.00308 0.00858,-0.00467 0.01595,-0.00899 0.032317,-0.016825 0.049292,-0.022075 0.0025,-7.717e-4 0.00508,-0.001 0.00758,-0.00175 0.018667,-0.00508 0.037717,-0.00854 0.057633,-0.00908 0.0783,0.012425 0.1872581,0.1335415 0.317338,0.3313164 -0.00217,-1.42e-5 -0.00442,-2.459e-4 -0.00658,0 0.392138,0.5889336 0.9932758,1.9447069 1.6028786,3.4338299 0.06815,0.166703 0.135684,0.331888 0.2037931,0.501266 0.1570624,0.390141 0.3132406,0.78298 0.4652171,1.172239 0.057592,0.147732 0.1132899,0.291554 0.1694598,0.437016 0.1493982,0.38638 0.2964914,0.768482 0.4311288,1.124173 0.058833,0.155678 0.1117683,0.29698 0.1667632,0.443636 0.1110799,0.295829 0.2216781,0.590383 0.3136602,0.838716 0.265645,0.719373 0.478459,1.30712 0.478459,1.30712 0,0 0.187156,-0.02329 0.468405,-0.04659 0.281251,-0.0233 0.656624,-0.04659 1.033191,-0.04659 0.753133,0 1.501594,0.09319 1.501594,0.09319 0,0 3.398499,-9.4712476 4.142323,-9.5893116 0.30361,0.00817 0.461023,0.555467 0.516717,1.4314562 1.93e-4,0.003 3e-4,0.0065 4.91e-4,0.00957 0.0089,0.1409599 0.01332,0.2958631 0.01717,0.4529555 0.0057,0.2362356 0.0062,0.4894799 0.0015,0.7570509 -6.05e-4,0.03478 -4.56e-4,0.06678 -0.0013,0.102019 -0.02762,1.256182 -0.157849,2.807372 -0.328619,4.361566 -0.05672,0.515032 -0.1189,1.025064 -0.182213,1.529797 -0.06639,0.530048 -0.134782,1.039089 -0.203302,1.533476 -0.02804,0.20189 -0.05586,0.415442 -0.08363,0.608437 -0.07175,0.499273 -0.13988,0.945472 -0.205509,1.364752 -0.02109,0.134535 -0.04471,0.29755 -0.06474,0.421809 -0.08239,0.511559 -0.15671,0.946829 -0.212131,1.241642 h 4.887848 c 0,0 0.817931,-9.27884 -0.74577,-19.1891707 H 16.51501 c -0.02692,3.183e-4 -0.05607,0.00625 -0.08755,0.017408 -0.472102,0.1676049 -1.438445,1.5170928 -2.351592,2.8653666 -0.608763,0.8988483 -1.193888,1.7971159 -1.593068,2.3444787 -0.19959,0.2736814 -0.352868,0.4596446 -0.439222,0.5140204 -0.01727,0.010875 -0.03188,0.016433 -0.04365,0.016433 -0.05483,0 -0.176543,-0.1321574 -0.337939,-0.3403914 C 11.567102,7.7008788 11.454906,7.5458198 11.3317,7.3704824 11.31922,7.3526904 11.30813,7.3377244 11.29541,7.3194744 11.25569,7.2626244 11.20795,7.1912321 11.165924,7.1301504 10.792413,6.5866006 10.345602,5.9102529 9.8742517,5.2158185 9.6683811,4.9125788 9.4626513,4.6147241 9.2584573,4.3268293 9.0909116,4.0904712 8.9273717,3.8649823 8.768716,3.6556116 8.7606327,3.6450033 8.7531911,3.6354783 8.7451744,3.6249533 8.5881579,3.418666 8.438463,3.2327153 8.297369,3.0685071 8.284619,3.0536821 8.271219,3.0370655 8.258619,3.0226488 8.2041857,2.9602572 8.1526149,2.9049507 8.1014216,2.8507365 8.0751133,2.8229116 8.049305,2.7958033 8.0239217,2.7702949 8.0027051,2.7488283 7.9809301,2.72607 7.9604051,2.7062867 7.8393444,2.5904476 7.729142,2.5017835 7.6359546,2.4536911 c -0.013833,-0.00725 -0.027567,-0.014308 -0.040708,-0.019867 -0.011175,-0.00467 -0.02245,-0.00983 -0.033108,-0.013242 -0.027308,-0.00888 -0.053508,-0.014925 -0.07725,-0.015208 z M 9.8791325,19.280801 c -0.6388919,0 -1.1567897,0.517898 -1.1567897,1.15679 0,0.638894 0.5178978,1.157034 1.1567897,1.157034 0.6388925,2e-6 1.1567895,-0.51814 1.1567895,-1.157034 0,-0.638892 -0.517897,-1.15679 -1.1567895,-1.15679 z m 4.2416435,0 c -0.638893,0 -1.15679,0.517898 -1.15679,1.15679 0,0.638894 0.517897,1.157034 1.15679,1.157034 0.638892,2e-6 1.157036,-0.51814 1.157036,-1.157034 0,-0.638892 -0.518144,-1.15679 -1.157036,-1.15679 z"/>
</svg>
