<svg xmlns="http://www.w3.org/2000/svg" viewBox="0 0 24 24"><path fill="#44739e" d="M17.067 8.468a7 7 0 0 1-.337 1.182c.438.085.386.68.886.571l.57-.634c.208-.427-.377-.528-.169-.992a.47.47 0 0 0-.443-.19 3 3 0 0 0-.507.063M12.78 9.566h.549l.909-1.33a1.95 1.95 0 0 1 .759-.57v-.212a.66.66 0 0 0-.7-.4c-.309.288-.548-.037-.886-.021a.6.6 0 0 0-.148.042c-.703.283-.414 1.654-.483 2.491m-4.814 0-.067-.275a3 3 0 0 0-.9-.087 1.51 1.51 0 0 0-1.267.699c-.085.208.125.328.3.317a2.65 2.65 0 0 1 1.934-.654m-1.141-1.9c.062.17-.108.243-.085.4 0 .257.285.2.444.3.488 0 1.147.532 1.415-.127.159-.146.491-.063.528-.3-.267-.3 0-.854-.337-1.1-.318.366-.542-.2-.909-.064-.31.278-.555-.017-.887-.021a.6.6 0 0 0-.148.021.41.41 0 0 0-.253.275.66.66 0 0 0 .232.616m6.8 1.921 1.689-.021c.072 0 .764.009.972.021.5-.451.292-1.242.549-1.816.121-.536.599-.754.844-1.287-.173-.092-.436-.419-.634-.36-.065.02-.123.084-.168.212a2.4 2.4 0 0 1-1.246 1.287c-1.001.221-1.396 1.293-2.006 1.964m-5.342 0h1.329l.086-.464a1.56 1.56 0 0 1 .4-.57 1.55 1.55 0 0 0-.739-.211 1.16 1.16 0 0 0-.76.19 1.08 1.08 0 0 0-.316 1.055m1.773-1.372c.013-.007.065 0 .232.148.276-.1.45-.261.74-.19.012-.11 0-.486 0-.486a2 2 0 0 0-.549-.085 1.85 1.85 0 0 0-1.141.444 2.2 2.2 0 0 1 .676.148c.016.022.038.017.042.021m.127.634a1.3 1.3 0 0 0-.233.738h1.12V8.532a1.3 1.3 0 0 0-.887.317m-3.142 1.503c-.025.333 0 .731 0 1.151 0 .442.009.909.009 1.342 0 .517 0 .986-.01 1.313 0 .287-.008.463 0 .466a.91.91 0 0 0 .572.733l.781-.018h7.211l.781.018a.91.91 0 0 0 .571-.733v-.466c0-.327-.011-.8-.011-1.313 0-.433.008-.9.009-1.342 0-.42.029-.818 0-1.151a.85.85 0 0 0-.61-.524h-3.889l-.005-4.806c-.062-.207-.27-.259-.453-.32-.184.061-.39.113-.451.32l-.006 4.806H7.651a.85.85 0 0 0-.61.524m2.634 10.247a.4.4 0 0 1 .287.116l.092.1a.32.32 0 0 0 .213.078.326.326 0 0 0 .328-.323.5.5 0 0 0-.24-.384 1.08 1.08 0 0 0-.675-.24 1.027 1.027 0 1 0-.005 2.053 1.1 1.1 0 0 0 .7-.259.5.5 0 0 0 .217-.36.33.33 0 0 0-.328-.315.34.34 0 0 0-.231.093l-.07.069a.4.4 0 0 1-.295.129.379.379 0 1 1 0-.758Zm-3.354 0a.36.36 0 0 0 .253-.069.3.3 0 0 0 .107-.236.29.29 0 0 0-.231-.282 1 1 0 0 0-.25-.013h-.4a.6.6 0 0 0-.287.033.28.28 0 0 0-.157.157.5.5 0 0 0-.032.25v1.06a.7.7 0 0 0 .014.194.3.3 0 0 0 .189.236.7.7 0 0 0 .254.023h.513a.4.4 0 0 0 .277-.065.31.31 0 0 0 .106-.235.3.3 0 0 0-.106-.227.38.38 0 0 0-.277-.074h-.3v-.152h.236a.3.3 0 0 0 .207-.051.235.235 0 0 0-.179-.416h-.27v-.133Zm1.899.6a.7.7 0 0 0 .217-.5.71.71 0 0 0-.531-.675 1.3 1.3 0 0 0-.324-.025h-.377a.32.32 0 0 0-.2.084.33.33 0 0 0-.111.286v1.207a.4.4 0 0 0 .079.272.35.35 0 0 0 .263.121.32.32 0 0 0 .324-.329v-.263l.277.439a.31.31 0 0 0 .273.153.323.323 0 0 0 .333-.319.4.4 0 0 0-.065-.208Zm-.587-.393h-.074v-.207h.069c.1 0 .158.032.158.1s-.053.11-.153.107m13.525.685-.638-1.313a.34.34 0 0 0-.309-.2.33.33 0 0 0-.3.194l-.628 1.3a.4.4 0 0 0-.046.171.326.326 0 0 0 .332.324c.16 0 .257-.082.342-.273h.614c.094.2.188.273.342.273a.33.33 0 0 0 .333-.324.3.3 0 0 0-.042-.152m-1.049-.264.1-.231.1.231Zm-1.4-1.248a.34.34 0 0 0-.272.143.37.37 0 0 0-.061.254v.366l-.527-.634a.3.3 0 0 0-.249-.129.327.327 0 0 0-.347.347v1.238a.38.38 0 0 0 .07.273.35.35 0 0 0 .268.13.34.34 0 0 0 .254-.121.35.35 0 0 0 .074-.258v-.407l.527.652a.33.33 0 0 0 .522.013.4.4 0 0 0 .074-.3v-1.188a.36.36 0 0 0-.078-.259.34.34 0 0 0-.255-.12m-6.879-1.185a8.397 8.397 0 1 0-8.383-8.404 8.414 8.414 0 0 0 8.383 8.404m0-16.194a7.803 7.803 0 1 1-7.797 7.797 7.797 7.797 0 0 1 7.797-7.8ZM7.987 9.104l.127-.3a5 5 0 0 1-1.564-.5.76.76 0 0 1 .043-.549 1.1 1.1 0 0 0-.799-.232.55.55 0 0 0-.254.1c-.024.477-.656.283-.8.7-.184.452.447.374.422.74a.457.457 0 0 0 .549.299 3.3 3.3 0 0 1 2.276-.258m8.014 10.843a1.027 1.027 0 1 0 1.063 1.026 1.035 1.035 0 0 0-1.063-1.026m.005 1.414a.394.394 0 0 1-.4-.388.4.4 0 0 1 .8 0 .4.4 0 0 1-.4.388m-3.928-1.183a.35.35 0 0 0-.314-.2.34.34 0 0 0-.305.194l-.628 1.3a.4.4 0 0 0-.042.171.32.32 0 0 0 .328.324c.161 0 .258-.082.342-.273h.619c.093.2.183.273.337.273a.33.33 0 0 0 .333-.324.3.3 0 0 0-.037-.152Zm-.416 1.049.1-.231.1.231Zm2.763-.985a1.05 1.05 0 0 0-.728-.243h-.476a.32.32 0 0 0-.3.213.7.7 0 0 0-.014.227v1.07a1 1 0 0 0 .009.213.28.28 0 0 0 .139.175.46.46 0 0 0 .282.051h.282a2 2 0 0 0 .342-.023 1 1 0 0 0 .47-.236.96.96 0 0 0-.009-1.447Zm-.489 1.045c-.078.053-.135.057-.365.06v-.748h.055a.6.6 0 0 1 .259.037.38.38 0 0 1 .213.338.4.4 0 0 1-.162.313m-8.988-1.003a.34.34 0 0 0-.1-.217.35.35 0 0 0-.227-.088.34.34 0 0 0-.3.176l-.333.688-.299-.647a.37.37 0 0 0-.333-.217.33.33 0 0 0-.328.3l-.227 1.253v.083a.33.33 0 0 0 .333.352.335.335 0 0 0 .332-.3l.056-.31.129.351a.346.346 0 0 0 .341.264.356.356 0 0 0 .338-.268l.134-.347.074.365a.32.32 0 0 0 .328.25.32.32 0 0 0 .328-.315.6.6 0 0 0-.014-.111Z"/></svg>