<?xml version="1.0" encoding="UTF-8"?><svg id="a" xmlns="http://www.w3.org/2000/svg" viewBox="0 0 24 24"><path id="b" d="M11.03,20.06c2.34-2.63,1.77-7.42-.78-9.72-1.81-1.63-4.21-1.47-5.66.51h0c-1.98,2.7-1.31,7.12,1.12,9.33,1.64,1.49,3.81,1.59,5.33-.12h-.01ZM5.91,16.7c-.08-.41-.14-.82-.21-1.23-.11-.65-.52-1.69.36-1.97.29-.09.67-.15.97-.21.65-.14,1.3-.27,1.95-.4.64-.02.74.52.84,1.02h0c.14.74.24,1.48.39,2.22,0,.67-.42.77-.97.89-.83.18-1.66.32-2.49.49-.52,0-.75-.33-.84-.79v-.02ZM10.39,19.52c-.05.04-.28.07-.36.08-.7.14-1.4.28-2.11.35-.44-.05-.67-1.22-.14-1.4.06-.02.15-.04.22-.05.66-.14,1.35-.22,2.01-.36.27-.05.4.34.46.55h0c.04.17.08.71-.08.83ZM8.74,19.39s.01.08-.02.11c-.04.03-.45.1-.5.08-.04-.01-.05-.07-.06-.11-.04-.18-.06-.4-.09-.59,0-.02.01-.03.03-.05h0s.33-.08.4-.09c.06,0,.13-.02.15.05.02.19.08.4.09.59h0ZM10.17,19.1s.01.09-.03.13c-.04.03-.43.1-.48.09-.09-.02-.07-.14-.08-.2-.02-.13-.08-.36-.08-.47h0s.02-.06.03-.09c.11-.01.4-.11.48-.08.05.02.06.07.07.12.03.13.08.38.09.51h0ZM18.35,17.54c.35.81-.14,1.44-.66,2.01-2.01,2.21-5.05,3.01-7.9,2.04-.05-.02-.17-.05-.21-.08-.02-.01-.03-.02,0-.03.7-.23,1.3-.68,1.78-1.23,2.23-2.56,1.89-6.82-.11-9.41-.28-.37-.62-.69-.95-1.01.83.35,1.57.87,2.25,1.45h0c.61.52,1.14,1.08,1.69,1.66.48.51.95,1.03,1.43,1.53.63.67,1.29,1.31,1.91,1.98.29.32.61.69.79,1.08h-.02ZM9.38,18.75c.02.08.09.51.08.56,0,.01,0,.03-.02.04-.02.02-.35.09-.4.1-.1,0-.15,0-.17-.11-.04-.18-.06-.41-.08-.6.01-.03.03-.06.06-.07h0s.28-.05.34-.06c.15-.01.15,0,.18.14h.01ZM12.21,5.42c-.03.06-.05.11-.09.19,0,.02-.03.03-.05.03h-.85s-.04,0-.05.04c-.04.1-.09.19-.13.29-.02.04.01.08.06.08.24,0,.49-.01.73-.01.04,0,.07.04.05.08-.03.06-.05.11-.08.19,0,.02-.03.03-.05.03-.64,0-1.27.03-1.91.07-.04,0-.08-.04-.06-.08.24-.55.47-1.09.71-1.64,0-.02.03-.03.05-.04.65-.03,1.29-.04,1.94-.03.04,0,.07.04.05.08-.03.06-.05.11-.08.18,0,.02-.03.03-.05.03h-.86s-.04,0-.05.03c-.04.1-.09.19-.13.29-.02.04.01.08.05.08h.74s.07.04.05.08v.03ZM20.07,4.91c-2.1-.8-4.81-1.04-7.06-1.1-2.77-.07-6.08.1-8.72.99-.65.23-2.14.79-2.12,1.64,0,.28.06.66.1.94.06.48.15.96.27,1.42.02.07.19.68.23.68.03-.06.04-.13.07-.19.28-.67,1.58-1.09,2.23-1.28,2.41-.71,5.24-.84,7.75-.79,2.2.04,5,.24,7.04,1.09.55.23,1.25.55,1.4,1.18.01,0,.03-.03.04-.04h0c.06-.15.13-.4.17-.57.2-.72.36-1.63.39-2.37.04-.85-1.11-1.33-1.78-1.59h0ZM18.69,5.07c-.29.52-.58,1.04-.86,1.57-.08.14-.15.28-.23.42-.05.1-.16.15-.27.13-3.9-.63-7.87-.56-11.75.2-.11.02-.19-.08-.16-.18.29-.78.59-1.57.89-2.35.04-.1.12-.16.22-.18,4-.65,8.08-.58,12.06.21.08.02.12.11.08.18h.02ZM21.85,4.61v1.08c-.32-.44-.79-.71-1.28-.94-.72-.34-1.6-.58-2.39-.75-2.43-.52-5.08-.65-7.56-.55-2.24.09-5.02.36-7.08,1.25-.51.22-1.04.51-1.38.96,0-.43-.1-.93.08-1.33.2-.44.93-.85,1.36-1.05.12-.06.63-.27.74-.26.16.03.12.33.13.45.04.45.42.58.78.34.21-.14.34-.36.37-.61.02-.23-.07-.49.2-.59.17-.06.52-.11.71-.15,2.53-.46,5.22-.55,7.77-.38,1.98.13,4.27.4,6.09,1.21.45.2,1.46.75,1.46,1.32h0ZM17.77,5.24c-.32.2-.64.41-.95.62-.02.02-.03.04-.02.07.1.24.19.48.29.73.02.04-.02.09-.06.08-.33-.05-.65-.09-.98-.14-.02,0-.04-.02-.05-.04-.07-.18-.15-.37-.22-.55-.01-.04-.06-.05-.09-.03-.23.16-.45.32-.68.49-.01,0-.03.01-.04.01-.1,0-.2-.02-.3-.03-.05,0-.07-.07-.03-.11.31-.23.63-.46.94-.68.02-.02.03-.05.02-.07-.1-.24-.2-.48-.3-.72-.02-.04.02-.09.06-.08.33.03.67.07,1,.12.02,0,.04.02.05.04.07.18.15.37.22.55.01.03.06.05.09.03.23-.15.46-.3.69-.45.01,0,.03,0,.04,0,.1.02.2.03.3.05.05,0,.07.08.02.11ZM14.11,5.89s0-.07.04-.08c.31-.06.58-.17.72-.47.18-.37-.22-.6-.54-.62-.44-.03-.87-.05-1.31-.07-.02,0-.05,0-.06.03-.25.53-.5,1.06-.74,1.59-.02.04.01.08.05.08.33,0,.66.01.99.02.02,0,.05-.01.06-.03.08-.16.15-.32.23-.48.01-.02.03-.03.06-.03.02,0,.04.02.05.04.07.17.14.33.21.5,0,.02.03.03.05.04.1,0,.21.01.31.02.04,0,.08-.04.06-.08-.06-.15-.13-.3-.19-.45h0ZM13.81,5.54s-.07-.05-.05-.08c.07-.14.14-.28.21-.42.01-.02.03-.03.06-.03.08,0,.13,0,.22,0,.14,0,.41.08.3.28-.13.24-.47.26-.73.25h-.01ZM10.05,4.78c-.24.55-.48,1.1-.71,1.65,0,.02-.03.03-.05.04-.09,0-.18.02-.27.02-.04,0-.08-.04-.06-.08.13-.32.27-.64.4-.95.02-.06-.05-.11-.09-.07l-.87.81s-.07.02-.09-.02c-.11-.22-.23-.44-.34-.66-.02-.04-.09-.04-.11,0-.15.37-.3.74-.45,1.11,0,.02-.03.03-.05.04-.33.05-.65.1-.98.15-.05,0-.08-.04-.07-.08.22-.57.44-1.14.67-1.71,0-.02.03-.03.05-.04.3-.04.61-.09.91-.12.02,0,.05,0,.06.03.13.26.27.51.4.77.02.03.06.04.09.02.34-.33.69-.65,1.04-.96l.04-.02c.14,0,.28-.02.42-.03.04,0,.08.04.06.08v.02ZM7.94,13.65c-.93.04-1.38,1.05-1.21,1.87h0c.22,1.05,1.41,1.68,2.21.76.77-.88.25-2.67-1-2.63ZM8.69,15.07c-.2,0-.2-.21-.28-.34-.12-.2-.26-.21-.46-.29-.17-.07-.17-.33,0-.37.36-.08.78.35.88.67.04.14.02.32-.15.33h.01ZM20.89,9.85c-.01.64-.07,1.35-.13,2-.17,1.86-.64,3.59-1.27,5.33-.11.31-.36,1.08-.62,1.25-.02.01-.03.02-.05.01h0c0-.07.03-.14.04-.21.08-.7-.34-1.26-.78-1.76-.66-.76-1.41-1.47-2.1-2.21-1.69-1.8-3.28-3.84-5.63-4.81-1.03-.43-2.33-.73-3.44-.53-1.82.33-3.07,1.9-3.57,3.6l-.05-.25c-.09-.72-.14-1.45-.17-2.18-.02-.43-.07-.65.29-.95.73-.6,2.41-.97,3.34-1.14,3.14-.56,6.98-.57,10.13-.07,1.05.17,2.48.47,3.4,1.01.4.24.6.42.59.91h.02Z" style="fill:#44739f;"/></svg>