<svg xmlns="http://www.w3.org/2000/svg" viewBox="0 0 24 24"><path fill="#44739e" d="M11.033 20.063c2.341-2.63 1.77-7.421-.78-9.722-1.81-1.63-4.211-1.47-5.661.511-1.98 2.7-1.31 7.121 1.12 9.331 1.64 1.491 3.811 1.591 5.331-.12Zm-5.121-3.36c-.08-.41-.14-.821-.21-1.231-.11-.65-.52-1.69.36-1.97.29-.09.67-.15.97-.21.651-.14 1.301-.27 1.951-.4.64-.02.74.52.84 1.02.14.74.24 1.48.39 2.22 0 .671-.42.771-.97.891-.83.18-1.66.32-2.491.49-.52 0-.75-.33-.84-.79Zm4.481 2.82c-.05.04-.28.07-.36.08-.7.14-1.4.28-2.11.35-.44-.05-.671-1.22-.14-1.4.06-.02.15-.04.22-.05.66-.14 1.35-.22 2.01-.36.27-.05.4.34.46.55.04.17.08.71-.08.83m-1.65-.13s.01.08-.02.11c-.04.03-.45.1-.5.08-.04-.01-.05-.07-.06-.11-.04-.18-.06-.4-.09-.59 0-.02.01-.03.03-.05s.33-.08.4-.09c.06 0 .13-.02.15.05.02.19.08.4.09.59Zm1.43-.29s.01.09-.03.13c-.04.03-.43.1-.48.09-.09-.02-.07-.14-.08-.2-.02-.13-.08-.36-.08-.47s.02-.06.03-.09c.11-.01.4-.11.48-.08.05.02.06.07.07.12.03.13.08.38.09.51Zm8.182-1.56c.35.81-.141 1.44-.661 2.01-2.01 2.211-5.051 3.011-7.901 2.041-.05-.02-.17-.051-.21-.081-.02-.01-.03-.02 0-.03.7-.23 1.3-.68 1.78-1.23 2.231-2.56 1.891-6.821-.11-9.411-.28-.371-.62-.691-.95-1.011.83.35 1.57.87 2.25 1.451.611.52 1.141 1.08 1.691 1.66.48.51.95 1.03 1.43 1.53.63.67 1.29 1.31 1.91 1.981.29.32.61.69.791 1.08h-.02Zm-8.972 1.21c.02.08.09.51.08.56 0 .01 0 .03-.02.04-.02.02-.35.09-.4.1-.1 0-.15 0-.17-.11-.04-.18-.06-.41-.08-.6.01-.03.03-.06.06-.07s.28-.05.34-.06c.15-.01.15 0 .18.14Zm2.83-13.332c-.03.06-.05.11-.09.19 0 .02-.03.03-.05.03h-.85s-.04 0-.05.04c-.04.1-.09.19-.13.29-.02.04.01.08.06.08.24 0 .49-.01.73-.01.04 0 .07.04.05.08-.03.06-.05.11-.08.19 0 .02-.03.03-.05.03-.64 0-1.27.03-1.91.07-.04 0-.08-.04-.06-.08.24-.55.47-1.091.71-1.641 0-.02.03-.03.05-.04.65-.03 1.29-.04 1.94-.03.04 0 .07.04.05.08-.03.06-.05.11-.08.18 0 .02-.03.03-.05.03h-.86s-.04 0-.05.03c-.04.1-.09.19-.13.29-.02.04.01.08.05.08h.74s.07.04.05.081v.03Zm7.862-.511c-2.101-.8-4.811-1.04-7.061-1.1-2.771-.07-6.082.1-8.722.99-.65.23-2.14.791-2.12 1.641 0 .28.06.66.1.94.06.48.15.96.27 1.42.02.07.19.68.23.68.03-.06.04-.13.07-.19.28-.67 1.58-1.09 2.23-1.28 2.411-.71 5.241-.84 7.751-.79 2.201.04 5.001.24 7.042 1.09.55.23 1.25.55 1.4 1.18.01 0 .03-.03.04-.04.06-.15.13-.4.17-.57.2-.72.36-1.63.39-2.37.04-.85-1.11-1.331-1.78-1.591Zm-1.38.16c-.29.521-.581 1.041-.861 1.571-.08.14-.15.28-.23.42-.05.1-.16.15-.27.13-3.9-.63-7.871-.56-11.752.2a.14.14 0 0 1-.16-.18c.29-.78.59-1.57.89-2.351.04-.1.12-.16.22-.18 4.001-.65 8.082-.58 12.063.21.08.02.12.11.08.18Zm3.16-.46v1.081c-.32-.441-.79-.711-1.28-.941-.72-.34-1.6-.58-2.391-.75-2.43-.52-5.08-.65-7.561-.55-2.24.09-5.021.36-7.081 1.25-.51.22-1.04.51-1.38.961 0-.431-.1-.931.08-1.331.2-.44.93-.85 1.36-1.05.12-.06.63-.27.74-.26.16.03.12.33.13.45.04.45.42.58.78.34.21-.14.34-.36.37-.61.02-.23-.07-.49.2-.59.17-.06.52-.11.71-.15 2.531-.46 5.221-.55 7.772-.38 1.98.13 4.271.4 6.091 1.21.45.2 1.46.75 1.46 1.32m-4.081.63c-.32.201-.64.411-.95.621-.02.02-.03.04-.02.07.1.24.19.48.29.73.02.04-.02.09-.06.08-.33-.05-.65-.09-.98-.14-.02 0-.04-.02-.05-.04-.07-.18-.15-.37-.22-.55-.01-.04-.06-.05-.09-.03-.23.16-.45.32-.68.49-.01 0-.03.01-.04.01-.1 0-.2-.02-.3-.03-.05 0-.07-.07-.03-.11.31-.23.63-.46.94-.68.02-.02.03-.05.02-.07l-.3-.721c-.02-.04.02-.09.06-.08.33.03.67.07 1 .12.02 0 .04.02.05.04.07.18.15.37.22.551.01.03.06.05.09.03l.69-.451h.04c.1.02.2.03.3.05.05 0 .07.08.02.11m-3.66.651s0-.07.04-.08c.31-.06.58-.17.72-.471.18-.37-.22-.6-.54-.62-.44-.03-.87-.05-1.31-.07-.02 0-.05 0-.06.03-.251.53-.501 1.061-.741 1.591-.02.04.01.08.05.08.33 0 .661.01.991.02.02 0 .05-.01.06-.03.08-.16.15-.32.23-.48q.015-.03.06-.03c.02 0 .04.02.05.04.07.17.14.33.21.5 0 .02.03.03.05.04.1 0 .21.01.31.02.04 0 .08-.04.06-.08-.06-.15-.13-.3-.19-.45Zm-.3-.35s-.07-.05-.05-.08l.21-.421q.015-.03.06-.03h.22c.14 0 .41.08.3.28-.13.241-.47.261-.73.251Zm-3.761-.761c-.24.55-.48 1.101-.71 1.651 0 .02-.03.03-.05.04-.09 0-.18.02-.27.02-.04 0-.08-.04-.06-.08.13-.32.27-.64.4-.95.02-.06-.05-.111-.09-.07l-.87.81s-.07.02-.09-.02c-.11-.22-.23-.44-.34-.66-.02-.04-.09-.04-.11 0l-.451 1.11c0 .02-.03.03-.05.04l-.98.15c-.05 0-.08-.04-.07-.08.22-.57.44-1.14.67-1.711 0-.02.03-.03.05-.04.3-.04.611-.09.911-.12.02 0 .05 0 .06.03.13.26.27.511.4.771.02.03.06.04.09.02.34-.331.69-.651 1.04-.961l.04-.02c.14 0 .28-.02.42-.03.04 0 .08.04.06.08Zm-2.11 8.872c-.931.04-1.381 1.05-1.211 1.87.22 1.051 1.411 1.681 2.211.761.77-.881.25-2.671-1-2.631m.75 1.42c-.2 0-.2-.21-.28-.34-.12-.2-.26-.21-.46-.29-.17-.07-.17-.33 0-.37.36-.08.78.35.88.67.04.14.02.32-.15.33Zm12.202-5.221c-.01.64-.07 1.351-.13 2.001-.17 1.86-.64 3.59-1.27 5.331-.11.31-.36 1.08-.62 1.25-.02.01-.03.02-.05.01 0-.07.03-.14.04-.21.08-.7-.34-1.26-.781-1.76-.66-.761-1.41-1.471-2.1-2.211-1.69-1.8-3.281-3.841-5.631-4.811-1.03-.43-2.33-.73-3.441-.53-1.82.33-3.07 1.901-3.57 3.601l-.05-.25c-.09-.72-.14-1.45-.17-2.181-.02-.43-.07-.65.29-.95.73-.6 2.41-.97 3.34-1.14 3.141-.56 6.982-.57 10.132-.07 1.05.17 2.481.47 3.401 1.01.4.24.6.42.59.91Z"/></svg>