<?xml version="1.0" encoding="UTF-8"?>
<svg width="24px" fill="#44739e" height="24px" viewBox="0 0 24 24" version="1.1" xmlns="http://www.w3.org/2000/svg" xmlns:xlink="http://www.w3.org/1999/xlink">
            <path d="M 21.582,7.186 A 2.5,2.5 0 0 0 19.814,5.418 C 18.255,5 12,5 12,5 12,5 5.745,5 4.186,5.418 A 2.5,2.5 0 0 0 2.418,7.186 26.019,26.019 0 0 0 2,12 26.019,26.019 0 0 0 2.418,16.814 2.5,2.5 0 0 0 4.186,18.582 C 5.745,19 12,19 12,19 c 0,0 6.255,0 7.814,-0.418 A 2.5,2.5 0 0 0 21.582,16.814 26.019,26.019 0 0 0 22,12 26.2,26.2 0 0 0 21.582,7.186 Z M 15,13.843 v 1.325 H 9 v -1.325 h 3 L 9,8.648 h 6 l -3,5.2 z"/>

</svg>
