<?xml version="1.0" encoding="UTF-8"?>
<svg width="24px" fill="#44739e" height="24px" viewBox="0 0 24 24" version="1.1" xmlns="http://www.w3.org/2000/svg" xmlns:xlink="http://www.w3.org/1999/xlink">
            <path d="M 16.409,2 H 7.682 L 2,7.682 v 8.659 L 7.636,22 h 8.682 L 22,16.318 V 7.636 Z m 3.864,13.545 -4.728,4.728 h -7.09 l -4.728,-4.7 V 8.455 l 4.728,-4.7 h 7.181 l 4.637,4.659 z M 12.93,4.863 v 14.228 h 2.182 l 4.136,-4.114 v -3 H 16.066 V 13.7 h 1.182 c 0.318,-0.045 0.341,0.319 0.113,0.591 -0.228,0.272 -2.522,2.523 -2.522,2.523 V 7.136 l 2.682,2.8 v 0.682 h 1.727 V 9.023 L 15.157,4.863 Z M 7.753,9.727 6.549,7.273 4.754,8.955 v 6.022 l 1.727,1.75 v -5.863 l 1.5,3.34 1.704,-4.454 v 9.341 h 1.909 V 4.863 H 9.572 Z"/>

</svg>
