<?xml version="1.0" encoding="UTF-8"?>
<svg width="24px" fill="#44739e" height="24px" viewBox="0 0 24 24" version="1.1" xmlns="http://www.w3.org/2000/svg" xmlns:xlink="http://www.w3.org/1999/xlink">
            <path d="M 17.291,2.55 A 3.238,3.238 0 0 0 15.927,2.184 C 14.677,2.073 13.309,1.992 12,2 A 32.708,32.708 0 0 0 7.89,2.253 C 6.16,2.43 5.42,3.161 5.42,5.328 v 13.047 c 1.357,1.023 4.452,1.38 6.735,1.369 2.416,-0.009 5.291,-0.45 6.424,-1.409 0,-0.028 0,-0.055 0,-0.084 V 5.332 C 18.58,3.5 18.14,3.079 17.291,2.55 Z m -4.215,15.467 a 1.011,1.011 0 1 1 -2.021,0 v -6.352 a 1.011,1.011 0 0 1 2.021,0 z m -1.012,1.877 c -2.348,0 -5.24,-0.352 -6.643,-1.332 a 2.58,2.58 0 0 0 0.4,1.508 4.852,4.852 0 0 0 3.574,1.779 A 18.3,18.3 0 0 0 12,22 c 0.839,-0.01 1.914,-0.056 2.779,-0.148 2.426,-0.372 3.692,-1.238 3.794,-3.318 -1.293,0.986 -4.21,1.352 -6.417,1.361 z m 0.002,-9.059 a 0.832,0.832 0 0 0 -0.831,0.83 v 6.352 a 0.831,0.831 0 1 0 1.661,0 v -6.352 a 0.831,0.831 0 0 0 -0.83,-0.83 z m 0.071,6.809 v 0.326 h -0.132 v -0.326 z m -0.28,-0.255 V 17.24 h 0.428 v 0.149 z m 0.134,-0.357 v -4.355 h 0.15 v 4.355 z m 0.15,-4.685 V 12.5 h -0.15 V 12.349 H 11.857 V 12.2 h 0.134 v -0.152 h 0.15 V 12.2 h 0.144 v 0.15 z m -0.075,-0.532 a 0.365,0.365 0 0 1 -0.348,-0.258 h 0.128 a 0.244,0.244 0 0 0 0.44,0 h 0.128 a 0.364,0.364 0 0 1 -0.348,0.258 z m 0,-0.728 a 0.363,0.363 0 0 1 0.347,0.257 h -0.128 a 0.244,0.244 0 0 0 -0.44,0 h -0.128 a 0.364,0.364 0 0 1 0.349,-0.257 z m 0,7.378 a 0.364,0.364 0 0 1 -0.145,-0.7 v 0.138 a 0.244,0.244 0 1 0 0.388,0.2 0.245,0.245 0 0 0 -0.088,-0.188 v -0.14 a 0.363,0.363 0 0 1 -0.155,0.692 z"/>

</svg>