<?xml version="1.0" encoding="UTF-8"?>
<svg xmlns="http://www.w3.org/2000/svg" version="1.1" viewBox="0 0 100 38.3">
  <path fill="#8C0014" d="M0,38.3 L100,38.3 L100,0 L0,0 z"/>
  <path fill="#FFFFFF" d="M79.617,21.127 L79.617,22.105 C79.617,22.927 80.359,23.682 81.524,23.682 C83.195,23.682 83.866,22.419 84.003,21.89 C85.809,21.89 87.23,21.889 87.741,21.889 C87.184,23.621 84.887,25.678 80.663,25.678 C75.158,25.678 73.432,22.696 73.432,20.417 C73.432,17.986 75.426,15.093 80.654,15.093 C85.174,15.093 87.876,17.713 87.876,20.418 C87.876,20.87 87.838,21.127 87.838,21.127 z M79.617,19.483 L81.711,19.483 L81.711,18.142 C81.711,17.737 81.388,17.096 80.657,17.096 C79.979,17.096 79.617,17.71 79.617,18.136 z M64.278,23.111 L62.79,23.111 L62.79,25.209 L72.845,25.209 L72.845,23.111 L71.337,23.111 L71.337,12.443 L62.79,12.443 L62.79,14.542 L64.278,14.542 z M53.919,21.127 L53.919,22.105 C53.919,22.927 54.663,23.682 55.828,23.682 C57.498,23.682 58.17,22.419 58.306,21.89 C60.113,21.89 61.534,21.889 62.045,21.889 C61.488,23.621 59.19,25.678 54.967,25.678 C49.461,25.678 47.736,22.696 47.736,20.417 C47.736,17.986 49.728,15.093 54.959,15.093 C59.477,15.093 62.181,17.713 62.181,20.418 C62.181,20.87 62.142,21.127 62.142,21.127 z M53.919,19.483 L56.014,19.483 L56.014,18.142 C56.014,17.737 55.691,17.096 54.96,17.096 C54.283,17.096 53.919,17.71 53.919,18.136 z M44.435,13.76 L43.462,11.908 L40.39,13.492 L41.363,15.362 z M45.656,15.611 L37.396,15.611 L37.396,17.71 L38.902,17.71 L38.902,23.111 L37.396,23.111 L37.396,25.209 L47.163,25.209 L47.163,23.111 L45.656,23.111 z M28.524,12.443 L36.041,12.443 L36.041,14.543 L34.534,14.543 L34.534,23.111 L36.041,23.111 L36.041,25.209 L26.271,25.209 L26.271,23.111 L27.779,23.111 L27.779,17.558 L22.228,25.209 L16.656,17.558 L16.656,23.111 L18.164,23.111 L18.164,25.209 L12.763,25.209 L12.763,23.111 L14.252,23.111 L14.252,14.543 L12.763,14.543 L12.763,12.443 L21.292,12.443 L24.917,17.424 z"/>
</svg>
