<?xml version="1.0" encoding="UTF-8"?>
<svg width="24px" fill="#44739e" height="24px" viewBox="0 0 24 24" version="1.1" xmlns="http://www.w3.org/2000/svg" xmlns:xlink="http://www.w3.org/1999/xlink">
            <path d="m 21.193,8.3 v 7.4 a 2.933,2.933 0 0 1 -0.183,1.142 c -0.023,0.053 -0.05,0.106 -0.076,0.156 a 2.824,2.824 0 0 1 -1.052,0.862 l -6.758,3.7 a 3.432,3.432 0 0 1 -1.132,0.423 1.251,1.251 0 0 1 -0.18,0.013 1.292,1.292 0 0 1 -0.183,-0.013 3.428,3.428 0 0 1 -1.131,-0.423 L 7.119,19.713 3.743,17.862 A 2.776,2.776 0 0 1 2.691,17 2.564,2.564 0 0 1 2.428,15.7 V 8.3 A 2.936,2.936 0 0 1 2.611,7.161 1.086,1.086 0 0 1 2.691,7 1.118,1.118 0 0 1 2.791,6.857 3.315,3.315 0 0 1 3.743,6.134 L 7.119,4.284 10.5,2.433 A 2.95,2.95 0 0 1 11.812,2 a 1.251,1.251 0 0 1 0.18,0.013 3.331,3.331 0 0 1 1.132,0.42 l 3.376,1.851 3.379,1.85 a 3.29,3.29 0 0 1 0.948,0.723 0.979,0.979 0 0 1 0.1,0.143 1.512,1.512 0 0 1 0.076,0.156 2.917,2.917 0 0 1 0.19,1.144 z M 17.781,9.4 A 0.884,0.884 0 0 0 17.322,8.621 L 12.239,5.835 a 0.886,0.886 0 0 0 -0.856,0 l -1.295,0.709 a 0.222,0.222 0 0 0 0,0.389 l 3.875,2.124 a 0.223,0.223 0 0 1 0,0.39 l -1.724,0.945 a 0.886,0.886 0 0 1 -0.856,0 L 7.655,8.348 a 0.891,0.891 0 0 0 -0.856,0 l -0.5,0.273 A 0.886,0.886 0 0 0 5.84,9.4 v 0.233 l 4.511,2.474 a 0.879,0.879 0 0 1 0.463,0.775 v 4.707 a 0.447,0.447 0 0 0 0.229,0.39 l 0.34,0.186 a 0.886,0.886 0 0 0 0.856,0 l 0.342,-0.186 a 0.454,0.454 0 0 0 0.23,-0.39 v -4.707 a 0.879,0.879 0 0 1 0.463,-0.775 l 2.18,-1.2 a 0.224,0.224 0 0 1 0.33,0.2 v 4.74 a 0.223,0.223 0 0 0 0.329,0.2 l 1.209,-0.662 a 0.892,0.892 0 0 0 0.459,-0.779 z M 7.838,12 A 0.447,0.447 0 0 0 7.608,11.611 L 6.17,10.825 a 0.223,0.223 0 0 0 -0.33,0.2 V 14.6 a 0.89,0.89 0 0 0 0.463,0.779 l 1.209,0.662 a 0.221,0.221 0 0 0 0.326,-0.2 z"/>

</svg>