<svg xmlns="http://www.w3.org/2000/svg" viewBox="0 0 24 24"><path fill="#44739e" d="M21.385 8.301v7.402a2.9 2.9 0 0 1-.183 1.142q-.036.08-.076.156a2.8 2.8 0 0 1-1.052.862l-6.759 3.701a3.4 3.4 0 0 1-1.132.423 1 1 0 0 1-.18.013 1 1 0 0 1-.183-.013 3.4 3.4 0 0 1-1.132-.423l-3.379-1.848-3.377-1.851a2.8 2.8 0 0 1-1.052-.862 2.56 2.56 0 0 1-.263-1.3V8.301A2.9 2.9 0 0 1 2.8 7.162a1 1 0 0 1 .08-.161 1 1 0 0 1 .1-.143 3.3 3.3 0 0 1 .952-.723l3.377-1.85 3.381-1.852A2.95 2.95 0 0 1 12.003 2a1 1 0 0 1 .18.013 3.3 3.3 0 0 1 1.132.42l3.377 1.852 3.379 1.85a3.3 3.3 0 0 1 .948.723 1 1 0 0 1 .1.143 2 2 0 0 1 .076.156 2.9 2.9 0 0 1 .19 1.144m-3.412 1.101a.88.88 0 0 0-.459-.78L12.43 5.836a.89.89 0 0 0-.856 0l-1.296.709a.222.222 0 0 0 0 .389l3.876 2.124a.223.223 0 0 1 0 .391l-1.724.945a.89.89 0 0 1-.856 0L7.845 8.349a.89.89 0 0 0-.856 0l-.5.273a.89.89 0 0 0-.459.78v.233l4.511 2.474a.88.88 0 0 1 .464.775v4.708a.45.45 0 0 0 .229.39l.34.186a.89.89 0 0 0 .856 0l.342-.186a.45.45 0 0 0 .23-.39v-4.708a.88.88 0 0 1 .463-.775l2.18-1.2a.224.224 0 0 1 .33.2v4.741a.223.223 0 0 0 .33.2l1.209-.662a.89.89 0 0 0 .459-.78Zm-9.945 2.6a.45.45 0 0 0-.23-.389l-1.438-.786a.223.223 0 0 0-.33.2v3.575a.89.89 0 0 0 .463.78l1.209.662a.221.221 0 0 0 .326-.2Z"/></svg>