<?xml version="1.0" encoding="UTF-8"?>
<svg width="24px" fill="#44739e" height="24px" viewBox="0 0 24 24" version="1.1" xmlns="http://www.w3.org/2000/svg" xmlns:xlink="http://www.w3.org/1999/xlink">
            <path d="m 22,9.641 h -6.3 a 4.384,4.384 0 0 0 -7.392,0 H 2 l 0.628,0.628 H 7.977 A 4.375,4.375 0 0 0 7.736,11 H 3.359 l 0.62,0.62 H 7.635 C 7.622,11.746 7.616,11.873 7.615,12 7.614,12.127 7.622,12.234 7.633,12.351 H 4.71 l 0.62,0.62 h 2.4 a 4.434,4.434 0 0 0 0.231,0.731 h -1.9 l 0.628,0.628 h 1.6 a 4.375,4.375 0 0 0 7.418,0 h 1.6 l 0.628,-0.628 h -1.9 a 4.434,4.434 0 0 0 0.231,-0.731 h 2.4 l 0.62,-0.62 H 16.367 Q 16.383,12.175 16.385,12 c 0,-0.127 -0.008,-0.254 -0.02,-0.38 h 3.656 L 20.641,11 h -4.377 a 4.375,4.375 0 0 0 -0.241,-0.731 h 5.349 z m -10,6.15 A 3.791,3.791 0 0 1 8.209,12 v 0 A 3.79,3.79 0 0 1 12,8.21 v 0 a 3.791,3.791 0 1 1 0,7.581 z m 1.71,-3.461 -0.894,-1.312 h -0.429 v 1.964 h 0.409 v -1.281 l 0.881,1.281 h 0.443 v -1.964 h -0.41 z m 0.864,-1.312 h 0.441 v 1.965 h -0.441 z m -4.533,1.34 -0.396,-1.34 h -0.66 v 1.964 h 0.409 v -1.546 l 0.433,1.546 h 0.424 l 0.434,-1.546 v 1.546 h 0.41 v -1.964 h -0.662 z m 1.481,-1.34 h 0.441 v 1.965 h -0.441 z"/>

</svg>