<svg xmlns="http://www.w3.org/2000/svg" viewBox="0 0 24 24"><path fill="#44739e" d="M22 9.641h-6.3a4.384 4.384 0 0 0-7.392 0H2l.628.628h5.349a4.4 4.4 0 0 0-.241.731H3.359l.62.62h3.656a4 4 0 0 0-.02.38c-.001.127.007.234.018.351H4.71l.62.62h2.4a4.4 4.4 0 0 0 .231.731h-1.9l.628.628h1.6a4.375 4.375 0 0 0 7.418 0h1.6l.628-.628h-1.9a4.4 4.4 0 0 0 .231-.731h2.4l.62-.62h-2.919q.016-.176.018-.351-.001-.19-.02-.38h3.656l.62-.62h-4.377a4.4 4.4 0 0 0-.241-.731h5.349Zm-10 6.15A3.79 3.79 0 0 1 8.209 12 3.79 3.79 0 0 1 12 8.21a3.791 3.791 0 1 1 0 7.581m1.71-3.461-.894-1.312h-.429v1.964h.409v-1.281l.881 1.281h.443v-1.964h-.41Zm.864-1.312h.441v1.965h-.441Zm-4.533 1.34-.396-1.34h-.66v1.964h.409v-1.546l.433 1.546h.424l.434-1.546v1.546h.41v-1.964h-.662Zm1.481-1.34h.441v1.965h-.441Z"/></svg>