<svg xmlns="http://www.w3.org/2000/svg" viewBox="0 0 24 24"><path fill="#44739e" d="M14.876 2.928a3.795 3.795 0 0 1 3.805 3.795v5.385a3.804 3.804 0 0 1-3.805 3.804H9.151a3.804 3.804 0 0 1-3.804-3.804V6.723a3.795 3.795 0 0 1 3.804-3.795Zm-2.61 8.427a1.939 1.939 0 1 0-1.929-1.939 1.93 1.93 0 0 0 1.929 1.939m-.11 5.127 4.402 4.53H7.479ZM14.913 2H9.151a4.723 4.723 0 0 0-4.723 4.723v5.385a4.723 4.723 0 0 0 4.723 4.723h1.333l-3.676 3.538a.919.919 0 0 0 .671 1.627h9.079a.92.92 0 0 0 .845-.561.92.92 0 0 0-.193-1.002l-3.464-3.602h1.103a4.723 4.723 0 0 0 4.723-4.723V6.723a4.723 4.723 0 0 0-4.723-4.714Zm-2.61 8.426a1.02 1.02 0 1 1 .983-1.01 1.02 1.02 0 0 1-1.02 1.02Z"/></svg>