<svg xmlns="http://www.w3.org/2000/svg" viewBox="0 0 24 24"><path fill="#44739e" d="M18.446 16.662a.367.367 0 0 0-.348.348v.292a.345.345 0 0 0 .322.367h.045a.7.7 0 0 0 .274-.056.08.08 0 0 0 .056-.076.09.09 0 0 0-.084-.094h-.01c-.01 0-.028.009-.038.009a.4.4 0 0 1-.2.048.18.18 0 0 1-.188-.167v-.1h.433a.127.127 0 0 0 .123-.123v-.099a.37.37 0 0 0-.385-.349m.21.392h-.368v-.048a.163.163 0 0 1 .135-.187.2.2 0 0 1 .044 0 .174.174 0 0 1 .189.158v.03Zm-.962-.414a.27.27 0 0 0-.273.267v.666a.095.095 0 0 0 .189 0v-.649a.1.1 0 0 1 .084-.1.3.3 0 0 1 .085.009h.01c.009 0 .018.01.028.01a.09.09 0 0 0 .094-.084v-.01a.1.1 0 0 0-.075-.1 1 1 0 0 0-.142-.009m-.909-.002h-.052a.365.365 0 0 0-.386.343v.297a.36.36 0 0 0 .334.386h.052a.366.366 0 0 0 .386-.343v-.297a.36.36 0 0 0-.334-.386m.157.387v.273a.19.19 0 0 1-.172.207h-.028a.185.185 0 0 1-.2-.168v-.313q.002-.208.2-.206a.187.187 0 0 1 .2.17Zm-1.217-.381a.45.45 0 0 0-.255.076.3.3 0 0 0-.226-.076.9.9 0 0 0-.3.057.11.11 0 0 0-.075.1v.771a.07.07 0 0 0 .058.084h.017v.008a.09.09 0 0 0 .095-.083v-.736a.6.6 0 0 1 .188-.028c.066 0 .142.038.142.1v.649a.094.094 0 1 0 .188 0v-.706a.26.26 0 0 1 .17-.047.167.167 0 0 1 .16.17v.592a.094.094 0 0 0 .188 0v-.583a.354.354 0 0 0-.35-.348m-1.923-.373a.1.1 0 0 0-.085.085v.321a.4.4 0 0 0-.188-.038.34.34 0 0 0-.368.314v.345a.364.364 0 0 0 .363.367h.014a.8.8 0 0 0 .292-.047.11.11 0 0 0 .076-.113v-1.149a.1.1 0 0 0-.104-.085m-.075 1.199a1 1 0 0 1-.189.029.173.173 0 0 1-.188-.156v-.332a.18.18 0 0 1 .163-.19h.025a.3.3 0 0 1 .189.057Zm-1.164-.831h-.042a.7.7 0 0 0-.292.047.114.114 0 0 0-.075.113v.772a.08.08 0 0 0 .06.093h.025a.09.09 0 0 0 .094-.084v-.744a1 1 0 0 1 .188-.028.166.166 0 0 1 .18.151v.611a.095.095 0 0 0 .189 0v-.565a.347.347 0 0 0-.327-.366m-1.061-.003h-.04a.6.6 0 0 0-.292.075.1.1 0 0 0-.047.076.09.09 0 0 0 .084.094h.01l.047-.009a.4.4 0 0 1 .2-.057c.057 0 .17.009.17.141v.085h-.179a.42.42 0 0 0-.273.075.3.3 0 0 0-.1.226.35.35 0 0 0 .1.235.4.4 0 0 0 .273.085.8.8 0 0 0 .292-.047.1.1 0 0 0 .075-.113v-.555a.317.317 0 0 0-.32-.311m.118.831a1 1 0 0 1-.179.029c-.16 0-.188-.076-.188-.142s.038-.141.188-.141h.179Zm-1.672-.651a.34.34 0 0 1 .178.047.09.09 0 0 0 .123-.042.1.1 0 0 0 .009-.033.07.07 0 0 0-.056-.076.6.6 0 0 0-.254-.056.346.346 0 0 0-.367.324v.334a.346.346 0 0 0 .323.368h.044a.6.6 0 0 0 .254-.059.08.08 0 0 0 .056-.075.094.094 0 0 0-.094-.094.1.1 0 0 0-.038.009.4.4 0 0 1-.168.047.17.17 0 0 1-.189-.146.2.2 0 0 1 0-.042v-.299c0-.141.066-.207.179-.207m-.781-.177a.09.09 0 0 0-.094.084v.848a.094.094 0 0 0 .188 0v-.838a.094.094 0 0 0-.094-.094m-.617.447-.169-.075a.1.1 0 0 1-.076-.1c0-.1.123-.1.132-.1a.5.5 0 0 1 .189.038.06.06 0 0 0 .038.009.087.087 0 0 0 .094-.08v-.005a.08.08 0 0 0-.055-.089.5.5 0 0 0-.235-.048.3.3 0 0 0-.329.268v.02a.27.27 0 0 0 .179.263l.169.075c.076.038.1.066.1.123 0 .075-.066.1-.132.1a.4.4 0 0 1-.188-.047c-.01-.01-.019-.01-.038-.01a.09.09 0 0 0-.094.084v.01a.09.09 0 0 0 .056.085.6.6 0 0 0 .255.057.3.3 0 0 0 .319-.279v-.021a.35.35 0 0 0-.215-.278m-.914-.37v.751a1 1 0 0 1-.179.029.17.17 0 0 1-.188-.147.2.2 0 0 1 0-.042v-.574a.095.095 0 0 0-.189 0v.565a.34.34 0 0 0 .315.367h.053a.8.8 0 0 0 .292-.047.106.106 0 0 0 .075-.113v-.772a.093.093 0 0 0-.079-.094.09.09 0 0 0-.1.077m-1.21-.085v.008a.45.45 0 0 0-.254.075.32.32 0 0 0-.226-.075.9.9 0 0 0-.3.056.11.11 0 0 0-.075.1v.772a.094.094 0 1 0 .188 0v-.725a.6.6 0 0 1 .189-.028c.066 0 .141.038.141.1v.649a.095.095 0 0 0 .189 0v-.706a.26.26 0 0 1 .169-.047.17.17 0 0 1 .161.17v.592a.094.094 0 0 0 .188 0v-.583a.394.394 0 0 0-.37-.358m9.615-6.767.895 1.244a.046.046 0 0 0 .057.018.05.05 0 0 0 .037-.056l.01-1.536a.28.28 0 0 1 .207-.283l1.454-.462c.01-.009.019-.009.029-.019s.009-.019.009-.037a.05.05 0 0 0-.038-.057l-1.459-.481a.3.3 0 0 1-.207-.291l.009-1.527a.05.05 0 0 0-.038-.056.06.06 0 0 0-.066.019s-.9 1.225-.914 1.234a.28.28 0 0 1-.339.1l-1.45-.481c-.048-.009-.095.047-.066.085.031 0 .913 1.247.922 1.257a.28.28 0 0 1-.009.358l-.899 1.234a.08.08 0 0 0 0 .066.045.045 0 0 0 .057.019s1.45-.462 1.459-.462a.3.3 0 0 1 .34.114m-2.164 1.099h-.762c-.123 0-.207.047-.217.245a67 67 0 0 0 0 1.922c0 .113-.085.141-.16.056-.057-.075-1.122-1.535-1.5-2.044a.31.31 0 0 0-.312-.169c-.113.009-.5.009-.763 0-.15 0-.253.075-.263.311-.009.207-.009 3.052-.009 3.919 0 .161.056.236.234.255.123.009.538.009.792.009.113 0 .189-.056.189-.235v-2.208s1.47 2.027 1.63 2.224.254.217.377.217c.236 0 .613.01.763 0a.237.237 0 0 0 .217-.245v-4.056a.21.21 0 0 0-.216-.201m-4.716-.019h-.037c-.141.01-.518.01-.763 0a.4.4 0 0 0-.387.208c-.122.151-1.027 1.384-1.432 1.95-.123.169-.2-.01-.2-.01v-1.959s.037-.179-.236-.179h-.745c-.132 0-.255.038-.434.273-.141.189-2.1 2.864-2.827 3.844-.17.227-.114.368.094.368h.91a.41.41 0 0 0 .39-.216c.4-.546 1.414-1.913 1.452-1.979.056-.075.169-.141.169.009-.009.547-.018 1.81 0 1.961.019.188.1.235.217.235.273 0 .734.01.829 0a.32.32 0 0 0 .273-.141c.339-.471 1.385-1.894 1.517-2.055.132-.207.151-.141.151.01 0 .546-.009 1.781 0 1.894a.29.29 0 0 0 .264.283c.236 0 .556.009.7-.009.236-.01.255-.283.255-.283l.009-4.005a.187.187 0 0 0-.169-.199m12.796 4.239s-2.695-3.684-2.883-3.967-.386-.254-.386-.254h-.745s-.254-.038-.254.292v1.809c0 .141-.113.169-.2.065a265 265 0 0 1-1.451-1.987.5.5 0 0 0-.368-.189h-.769c-.122 0-.207.123-.207.311v3.929c0 .161.085.255.217.255.245 0 .631.009.782 0 .226-.009.217-.255.217-.255v-.068h-.031v-1.887s.057-.151.142-.029c.367.5 1.329 1.829 1.479 2.008.18.235.264.235.4.235.264 0 .688.01.792 0 .16-.009.188-.141.188-.254 0-.5.01-1.583 0-1.894-.009-.406.17-.048.17-.048s1.199 1.631 1.385 1.9.329.311.48.311c.264.009.66.009.877-.01.335-.032.165-.273.165-.273m-12.79 1.079a.12.12 0 0 0-.113.113.115.115 0 0 0 .113.113.113.113 0 0 0 0-.226"/></svg>