<svg xmlns="http://www.w3.org/2000/svg" viewBox="0 0 24 24"><path fill="#44739e" d="M21.916 11.662c-.022-.022-.145-.1-.785-.1h-.036c-.523 0-.708.058-.769.109a.56.56 0 0 0-.227.485c0 .238.145.335.501.335h.654c.154 0 .254.063.254.162 0 .114-.089.248-.341.248h-.433c-.301 0-.343-.116-.343-.185h-.45a.6.6 0 0 0-.016.124.32.32 0 0 0 .089.239 1.7 1.7 0 0 0 .824.116c.25 0 .77 0 .913-.145a.85.85 0 0 0 .194-.519.28.28 0 0 0-.079-.22c-.041-.04-.192-.109-.736-.109-.507 0-.6-.039-.6-.151 0-.132.147-.191.476-.191s.44.008.5.071a.14.14 0 0 1 .039.073h.448c0-.042.007-.1.007-.134v-.013a.24.24 0 0 0-.084-.195m-3.029.972a.66.66 0 0 1-.465.17.7.7 0 0 1-.384-.118c-.1-.101.037-.764.116-1.101h-.475c-.07.32-.224 1.052-.224 1.178a.37.37 0 0 0 .336.407 1.3 1.3 0 0 0 .301.028 1 1 0 0 0 .256-.028.96.96 0 0 0 .53-.332l.126-.157-.093.487h.451l.309-1.58h-.47a3.5 3.5 0 0 1-.314 1.046m-1.886-.987c-.047-.04-.186-.088-.585-.088-.45 0-.609.1-.731.261l-.132.18.215-1.109h-.482l-.449 2.268h.49l.071-.361.065.15c.058.137.142.241.624.241s.601-.025.736-.166a2.3 2.3 0 0 0 .294-.955.45.45 0 0 0-.116-.42Zm-.386.757v.008c-.051.179-.074.262-.148.315a1.5 1.5 0 0 1-.465.083c-.1 0-.416-.006-.5-.088-.014-.014-.056-.056-.026-.27.018-.127.076-.38.168-.431a1.1 1.1 0 0 1 .468-.073c.279 0 .414.015.47.071a.4.4 0 0 1 .033.389Zm-2.538-.448-.065-.152c-.075-.18-.216-.241-.557-.241-.582 0-.675.092-.844.26a2.15 2.15 0 0 0-.25.887v.038a.4.4 0 0 0 .091.323c.116.117.208.126.672.126.427 0 .582-.136.661-.238l.129-.166-.072.374h.501l.443-2.272h-.509Zm-.063.287-.04.2c-.043.163-.066.243-.138.294a1.5 1.5 0 0 1-.468.083c-.1 0-.416-.007-.5-.089-.014-.014-.056-.056-.026-.27.018-.127.076-.38.168-.431a1.1 1.1 0 0 1 .468-.073c.279 0 .413.016.472.071a.26.26 0 0 1 .063.209Zm-2.122-.561a1.45 1.45 0 0 0-.77-.119 1.42 1.42 0 0 0-1.034.26 2.15 2.15 0 0 0-.25.887v.038a.4.4 0 0 0 .09.323c.117.117.432.126.9.126a1.6 1.6 0 0 0 .908-.2c.145-.1.26-.658.287-.923a.46.46 0 0 0-.126-.388Zm-.392.726v.008c-.051.179-.074.262-.148.315a1.5 1.5 0 0 1-.465.083c-.1 0-.415-.006-.499-.088-.014-.014-.057-.056-.026-.27.018-.127.076-.38.167-.431a1.1 1.1 0 0 1 .467-.073c.28 0 .415.015.471.071s.094.168.033.385m-3.927-.035-.509-1.482h-1.01l-.456 2.272h.585l.357-1.814.643 1.814h.466l1.362-1.836-.36 1.836h.569l.462-2.272H8.679Zm-1.869-.248-.02.012.017.004Zm-.021.105-.023-.007.018.035Zm-.129.642.027-.132.029-.145.013-.067-.216-.099Zm1.295-2.081v-.11l-.119.11Zm-1.074.983.002-.009.022-.113-.19.177.152.011Zm1.831.386.212-.282a.8.8 0 0 0-.29.056Zm.094 1.104h-.419a.801.801 0 0 0 1.192-1.045Zm-1.105-2.473.193-.179-.263-.017.074-.071.318.029v.238h.215l.127.355a.801.801 0 1 0-.956-.358Zm.708.484.182.532.04-.015a2 2 0 0 0-.145-.548Zm-.735.454-.11.562-.013.066.385.112-.027-.078Zm.144 2.028a2.3 2.3 0 0 0 .426-.447.9.9 0 0 1-.213-.448l.05.015-.017-.047-.036.02a1 1 0 0 1-.033-.173v-.03l-.028-.078-.434-.122-.012.066-.149.754h-.582l.265.801.128-.243.037.111-.162.283-.3-.13-.037-.109.247.117-.276-.825h-.11l.016-.08.026-.132-.2-.594-.125.232-.034-.101.156-.279.293.127.011.022.01.03.023-.114-.115-.236.186-.113.023-.111-.27-.027-.005-.326.083-.077v.272l.283-.263.023-.113.12-.601h.18a.92.92 0 0 1-.011-.768 2.4 2.4 0 0 0-.635-.164.94.94 0 0 1-.582.673l-.037-.129a.801.801 0 1 0-.293.056h.076l.038.131a1 1 0 0 1-.114.007.93.93 0 0 1-.721-.342 2.3 2.3 0 0 0-.476.43.92.92 0 0 1 .315.838l-.13-.04a1 1 0 0 0 0-.09.795.795 0 1 0-.061.308l.128.039a.94.94 0 0 1-.745.577 2.1 2.1 0 0 0 .163.601.93.93 0 0 1 1.025.133l-.095.094a.807.807 0 1 0 .148.168l.1-.1a.93.93 0 0 1 .094.901 2.4 2.4 0 0 0 .716.156.93.93 0 0 1 .538-.77l.043.128a.801.801 0 1 0 .349-.081 1 1 0 0 0-.136.012l-.043-.128a1 1 0 0 1 .179-.018.93.93 0 0 1 .719.347M4.57 9.882l-.128.25-.036-.119.164-.294.293.162.034.117-.242-.141.527 1.819.134-.255.037.128-.168.294-.301-.159-.037-.127.249.144Zm-1.544 1.591.131.241-.113-.035-.156-.3.294-.159.113.035-.245.129 1.778.544-.137-.247.121.037.153.3-.294.162-.122-.033.252-.128Zm1.959 1.192v-.269L3.739 13.62l.277.007-.085.085-.328-.021-.015-.327.084-.082v.275l1.242-1.228-.265-.006.075-.076.326.015.009.326Z"/></svg>