<?xml version="1.0" encoding="UTF-8"?>
<svg width="33px" height="32px" viewBox="0 0 24 24" fill="#44739e" version="1.1" xmlns="http://www.w3.org/2000/svg" xmlns:xlink="http://www.w3.org/1999/xlink">
            <path d="m 20.421018,4.9445773 a 13.472,13.472 0 0 0 -6.631,-1.113 c -0.722,0.15 -0.975,0.621 -1.146,2.135 l -0.111,0.984 h -1.2 l -0.107,-0.832 c -0.2,-1.581 -0.361,-1.967 -0.9,-2.19 a 8.689,8.689 0 0 0 -4.4140005,0.218 c -1.967,0.532 -3.392,1.126 -3.456,1.442 -0.091,0.448 0.373,0.438 1.573,-0.036 a 13.134,13.134 0 0 1 4.634,-1.041 c 1.04,-0.015 1.276,0.03 1.4570005,0.277 a 4.119,4.119 0 0 1 0.321,2.15 3.051,3.051 0 0 1 -1.3540005,0.171 6.877,6.877 0 0 0 -1.661,0.157 3.609,3.609 0 0 0 -1.61,1.786 c -0.337,0.663 -0.423,0.736 -0.694,0.591 a 1.312,1.312 0 0 0 -1.3,0.223 c -0.3,0.4409997 -0.126,0.7279997 0.433,0.7279997 0.3,0 0.555,0.042 0.555,0.093 a 4.311,4.311 0 0 1 -0.534,0.753 c -0.94,1.163001 -0.952,1.217001 -1.022,4.579001 a 34.637,34.637 0 0 0 0.032,3.533 0.921,0.921 0 0 0 0.455,0.558 4.458,4.458 0 0 0 1.362,0.1 c 1.125,-0.052 1.447,-0.3 1.447,-1.1 0,-0.454 0,-0.455 0.753,-0.339 a 89.455,89.455 0 0 0 9.1050005,0 l 0.9,-0.121 0.05,0.6 c 0.062,0.744 0.489,1 1.682,1 0.682,0 0.912,-0.071 1.228,-0.387 0.380999,-0.381 0.388999,-0.442 0.388999,-2.959 a 29.856,29.856 0 0 0 -0.179999,-3.6 2.683,2.683 0 0 0 -0.871,-1.773001 4.866,4.866 0 0 1 -0.692,-0.842 c 0,-0.057 0.252,-0.1 0.559,-0.1 0.614,0 0.871,-0.326 0.557,-0.6999997 a 1.291,1.291 0 0 0 -1.343,-0.255 c -0.169,0.14 -0.313,0 -0.69,-0.66 a 6.809,6.809 0 0 0 -0.979,-1.312 c -0.471,-0.445 -0.6,-0.481 -2.038,-0.555 l -1.535,-0.077 0.021,-0.829 c 0.037,-1.427 0.12,-1.578 0.932,-1.7 a 12.119,12.119 0 0 1 4.948,0.89 7.582,7.582 0 0 0 1.953999,0.524 c 0.365,-0.225 0.027,-0.599 -0.878999,-0.971 z M 5.9380175,13.585578 c -1.422,-0.046 -1.608,-0.114 -1.608,-0.59 0,-0.7 0.216,-0.794 1.319,-0.584 a 6.389,6.389 0 0 1 1.367,0.4 l 0.387,0.211 -0.365,0.295 a 1.583,1.583 0 0 1 -1.1,0.268 z m 0.929,4.367 a 6.194,6.194 0 0 1 0.66,-0.867 2.909,2.909 0 0 1 1.228,-0.953 20.821,20.821 0 0 1 3.5400005,-0.118 l 2.971,0.051 0.9,0.906 a 3.588,3.588 0 0 1 0.822,0.99 77.7,77.7 0 0 1 -10.1210005,-0.009 z m 1.268,-4.56 a 39.313,39.313 0 0 1 7.5160005,0 c 0.246,0.145 0,0.2 -1.308,0.295 a 3.879,3.879 0 0 0 -1.993,0.415 v 0 c -0.457,0.359 -0.4,0.36 -0.845,-0.007 -0.274,-0.228 -0.747,-0.323 -2.0600005,-0.413 -1.428,-0.098 -1.641,-0.145 -1.31,-0.29 z m 11.2160005,-1.018 a 0.9,0.9 0 0 1 0.2,0.6 c 0,0.38 -0.076,0.448 -0.595,0.534 -1.188,0.2 -2.417,0 -2.417,-0.394 -0.002,-0.407 2.439,-1.048 2.812,-0.74 z m -3.164,-4.3320007 a 4.569,4.569 0 0 1 1.3,1.627 c 0,0.074 -2.5,0.135 -5.548,0.135 -3.0480005,0 -5.5490005,-0.058 -5.5490005,-0.128 a 4.263,4.263 0 0 1 0.463,-0.856 c 0.341,-0.539 0.6,-0.761 0.99,-0.853 a 53.535,53.535 0 0 1 8.3440005,0.075 z"/>

</svg>
