<svg xmlns="http://www.w3.org/2000/svg" viewBox="0 0 24 24"><path fill="#44739e" d="M14.187 14.715c-.367.072-.423-.062-.144-.348.192-.2.2-.221.084-.314a.4.4 0 0 0-.22-.109q-.152-.002-.154.264c0 .365-.18.42-.331.1-.158-.333-.151-.329-.314-.171-.2.193-.184.243.125.418.148.084.227.153.175.155s-.075.036-.052.076-.08.083-.229.1c-.226.02-.267.05-.246.178.055.339.164.366.417.1a.84.84 0 0 0 .24-.393c0-.093.042-.136.119-.119.172.035.207.22.05.264-.1.03-.137.123-.151.426-.018.388-.018.388.179.335.27-.072.274-.084.141-.384q-.215-.48.235-.232c.266.147.359.1.359-.187 0-.208-.008-.213-.283-.159m-.269.343h-.01c-.02.021.039.125.132.23s.184.174.2.153-.04-.124-.133-.23a.5.5 0 0 0-.189-.153m-.517.157a1.2 1.2 0 0 0-.151.288c0 .115.127.055.163-.076.019-.074.059-.2.087-.289q.017-.047 0-.047-.018.002-.099.124m.567-.612c0 .055.048.044.248-.053.1-.049.182-.119.182-.156q0-.02-.037-.017a.6.6 0 0 0-.178.07.6.6 0 0 0-.215.156m7.889.443c-.139-.039-.143-.119-.161-3.546l-.019-3.507h-3.876l-.015 1.432-.02 1.433-.175.047a1.8 1.8 0 0 0-.831 1.03c-.417 1.125-.639 1.399-1.139 1.399-.2 0-.219-.024-.224-.25-.008-.432-.084-.516-.714-.794a9.8 9.8 0 0 0-4.399-1.107 6.8 6.8 0 0 0-3.742.966 4.5 4.5 0 0 1-1.9.605c-1.512.2-2.216.474-2.518.989a1.49 1.49 0 0 0 .044 1.281c.157.186.9.5.98.41a.67.67 0 0 0-.017-.375A1.257 1.257 0 0 1 4.57 13.49a1.31 1.31 0 0 1 .924 1.41l-.024.4h6.999l.012-.513a1.17 1.17 0 0 1 .55-1.12 1.14 1.14 0 0 1 1.226 0 1.5 1.5 0 0 1 .568.831 1.3 1.3 0 0 0 .07.336c.07.195.076.2.255.071a.9.9 0 0 0 .353-.906l-.046-.331.276-.048c.587-.1.865-.447 1.249-1.546.151-.434.5-.886.681-.886.086 0 .1.307.1 1.889 0 1.84 0 1.893-.154 2.023a.29.29 0 0 0-.106.339l.048.205H22v-.276c0-.217-.034-.292-.143-.322m-10.292-.415a37 37 0 0 1-4.263.083c.138-.039 1.235-.087 2.438-.108.309 0 .59-.009.835-.01.732-.004 1.142.008.99.035M9.69 12.797c-1.059.04-2.038.085-2.176.1a2.9 2.9 0 0 1-1.148-.1 5.4 5.4 0 0 1 2.044-1.245 3.45 3.45 0 0 1 1.469-.177h.432a5.8 5.8 0 0 1 2.079.2c.933.272 1.519.518 1.488.624-.097.347-1.029.478-4.188.598m4.206.094c-1.338.043-1.06-.054.395-.138q.35-.02.558-.022.348-.002.3.045a6 6 0 0 1-1.248.115Zm7.172-2.238h-2.646c-.02-.056.028-1.661.028-1.661l2.618-.042Zm-11.01.794a5.4 5.4 0 0 0-1.325.142 8 8 0 0 0-1.936.963l-.18.162h.169a.7.7 0 0 0 .382-.189c.269-.242.378-.241.606 0l.182.2 2.2-.083c1.208-.046 2.414-.116 2.677-.156.572-.088.9-.209.806-.3a6 6 0 0 0-1.611-.554 9 9 0 0 0-1.97-.185m3.657 2.15a1.05 1.05 0 0 0-.484.1 1.15 1.15 0 0 0-.666 1.278 1.19 1.19 0 0 0 .722.928.72.72 0 0 0 .827-.058 1.2 1.2 0 0 0-.4-2.252Zm.31 2.087c-.773.429-1.6-.593-1.136-1.406a.89.89 0 0 1 .742-.469.84.84 0 0 1 .632.262 1 1 0 0 1-.238 1.613m-9.737-2.101a1.04 1.04 0 0 0-.5.11 1.247 1.247 0 0 0 0 2.11 1.113 1.113 0 0 0 1.614-.856 1.45 1.45 0 0 0-.479-1.179 1.1 1.1 0 0 0-.635-.185m.6 1.895a.919.919 0 0 1-1.473-1 .87.87 0 0 1 .887-.684.62.62 0 0 1 .6.256.955.955 0 0 1-.011 1.428Zm-.846-.532c-.089 0-.4.248-.4.319 0 .042.054.04.131 0 .145-.088.343-.319.269-.319m1.021-.505c.035-.029-.212-.417-.265-.416a1.6 1.6 0 0 0-.4.729c0 .085-.052.154-.111.154-.136 0-.186-.257-.059-.309.065-.027.087-.147.07-.384s-.062-.354-.175-.345a.5.5 0 0 0-.2.081c-.137.078-.136.086.031.326q.362.523-.173.322c-.3-.113-.331-.082-.284.27.023.175.051.183.282.08.319-.141.4-.039.214.28-.13.224-.139.283-.057.339.232.157.342.079.366-.257l.024-.326.092.329c.05.18.122.308.159.283s.022-.14-.044-.278c-.145-.3-.089-.361.1-.108.175.238.24.245.362.035.11-.187.083-.23-.226-.351l-.228-.091.3-.006c.168 0 .3-.039.3-.081s-.14-.059-.341-.035l-.34.04.287-.131c.163-.067.303-.139.316-.15m-1.299-.001c.3.176.317.154.064-.1-.078-.078-.146-.119-.187-.114a.04.04 0 0 0-.031.02c-.025.043.045.13.154.194m.782-.547q-.024-.028-.043-.027c-.038 0-.062.1-.1.35l-.045.308.116-.292a.6.6 0 0 0 .072-.339m9.063.231c0-.153-.019-.234-.051-.222a.04.04 0 0 0-.015.011.42.42 0 0 0-.027.284c.054.295.093.264.093-.073m-.591.486a.5.5 0 0 0-.114-.017c-.052 0-.084.015-.084.044 0 .044.1.079.228.079q.393.001-.03-.106"/></svg>