<svg xmlns="http://www.w3.org/2000/svg" width="33" height="32" viewBox="0 0 24 24" fill="#44739e" xmlns:v="https://vecta.io/nano"><path d="M20.093 8.577c-.382-.039-.451 0-.56.323-.094.278-.082.395.051.479s.111.112-.088.113c-.406 0-.623-.246-1-1.152a6.514 6.514 0 0 0-.6-1.155c-.164-.207-.1.02.186.644a12.052 12.052 0 0 1 .52 1.283l.08.318-6.244-.039c-3.857-.024-6.382.01-6.6.087-.62.216-.555-.275.248-1.893a3.477 3.477 0 0 0 .328-.785 6.122 6.122 0 0 0-.944 1.668c-.322.775-.57 1.032-.97 1.016-.145-.005-.192-.039-.1-.075.21-.084.207-.615 0-.79a1.713 1.713 0 0 0-1.231.16c-.324.2-.141.459.337.477l.481.018-.513.087c-.688.116-.326.282.671.307l.737.019.087.6a3.269 3.269 0 0 0 .164.729 1.97 1.97 0 0 0 .765.268 4.723 4.723 0 0 1 1.313.543l.625.4-.407.169a11.092 11.092 0 0 1-3.08.059c-.3-.024-.554-.422-.554-.855 0-.478-.129-.555-.394-.236a15.777 15.777 0 0 0-.086 4.693c.088.012.506.031.929.042l3.143.089 1.315.017c-.948-.047-1.059-.078-1.059-.3 0-.246.115-.252 4.414-.252 4.323 0 4.413.005 4.348.252-.058.221-.2.257-1.175.294-1.083.042-1.076.043.3.069a34.563 34.563 0 0 0 4.618-.295c.3-.049.326-.037.128.049-.242.106-.238.116.064.185.177.041-.012.052-.418.025s-.711 0-.675.058c.163.264-8.437.4-12.536.2a10.053 10.053 0 0 1-1.967-.19c.031-.05-.286-.087-.7-.083s-.761.066-.76.136c0 .328.256.44 1.091.486l.894.048-.994-.01-.995-.01v.361a1.543 1.543 0 0 0 .133.609c.113.211.275.248 1.086.248s.972-.037 1.086-.248c.18-.338.167-.743-.028-.821-.088-.036 2.813-.069 6.446-.073s6.531.04 6.439.1c-.19.12-.08.788.155.946a4.054 4.054 0 0 0 1.975-.056 1.07 1.07 0 0 0 .155-.609v-.455l-.995.01-.994.01.926-.048.927-.047.147-.54a30.785 30.785 0 0 0-.052-5.021c-.067-.361-.88-1.013-1.009-.809-.072.113-.1.1-.1-.058 0-.44-.232-.341-.358.154-.105.414-.1.512.049.512a.223.223 0 0 0 .193-.225c.015-.214.018-.214.074 0 .042.16.194.228.53.235.26 0 .4.039.311.075s-.128.119-.087.185a1.04 1.04 0 0 1-.362 1.03 9.077 9.077 0 0 1-3.367.061l-.385-.166.606-.387a4.972 4.972 0 0 1 1.376-.55c.829-.176.812-.152.934-1.284.032-.3.086-.323.78-.342 1-.029 1.352-.189.666-.3l-.513-.087.481-.018c.857-.036.53-.586-.412-.682zM6.74 10.649a4.6 4.6 0 0 1-.6-.77 6.394 6.394 0 0 1 .731.77 4.494 4.494 0 0 1 .6.77 6.342 6.342 0 0 1-.731-.77zm-.794 3.119a.261.261 0 0 1 .246.01c.042.043-.033.073-.169.068s-.18-.037-.077-.078zm-.513-.641a.258.258 0 0 1 .246.01c.042.043-.034.073-.169.067s-.18-.036-.077-.077zm0 .513a.261.261 0 0 1 .246.01c.042.043-.034.073-.169.068s-.18-.037-.077-.078zm-.489-.061c-.177 0-.249-.029-.161-.065a.5.5 0 0 1 .321 0c.088.036.016.065-.16.065zm-.834-.721a3.367 3.367 0 0 1 .641.1c.346.088.352.1.064.1a2.459 2.459 0 0 1-.641-.1c-.251-.08-.265-.102-.064-.1zm.414.536c.043.042-.033.073-.168.067s-.18-.037-.078-.078a.257.257 0 0 1 .246.011zm-.513-.129c.042.043-.033.073-.169.068s-.179-.037-.077-.078a.26.26 0 0 1 .246.01zm-.543-.7l.31.224c.029.024-.007.037-.08.037a.562.562 0 0 1-.31-.225c-.163-.201-.157-.201.08-.032zm.246 3.458c-.149-.006-.18-.037-.077-.078a.261.261 0 0 1 .246.01c.042.045-.034.077-.169.072zm1.871 0c-1.585-.164-1.924-.414-1.924-1.398 0-.354.019-.365.481-.291a15.59 15.59 0 0 1 1.122.243l.642.165-.561-.072c-.437-.056-.548-.034-.5.1a.635.635 0 0 0 .432.255l.374.081-.353.016c-.194.008-.352.073-.352.143s.158.136.352.146c.3.015.312.025.064.073-.541.1-.336.423.273.423a6.073 6.073 0 0 1 .956.078c.371.075.392.057.366-.288s-.075-.373-.667-.444l-.639-.076.577-.03.578-.03-.449-.184c-.424-.173-.428-.179-.064-.113a.94.94 0 0 1 .808.948c-.048.391-.16.41-1.516.263zm.415-.46a.741.741 0 0 1 .385 0c.087.035-.015.062-.227.059S5.88 15.6 6 15.563zm13.6-2.654a3.273 3.273 0 0 0 .93-.333c.108-.089.2-.107.2-.039s-.136.186-.3.262a3.977 3.977 0 0 1-.93.209l-.626.071zm.194.485c.042.042-.034.073-.169.067s-.18-.037-.077-.078a.257.257 0 0 1 .242.011zm-.514.128c.043.043-.033.073-.168.067s-.18-.036-.077-.077a.255.255 0 0 1 .241.01zm-.895-.392a.491.491 0 0 1 .321 0c.088.035.016.064-.16.064s-.253-.029-.165-.064zm0 .513a.491.491 0 0 1 .321 0c.088.035.016.064-.16.064s-.253-.029-.165-.064zm-.363 2.287c.969-.087 1.365-.341.691-.442l-.36-.054.353-.019c.194-.011.353-.074.353-.139s-.159-.144-.353-.174c-.329-.049-.324-.054.064-.072.29-.014.417-.082.417-.226 0-.231-.378-.2-1.42.131l-.568.178.577.033.577.033-.641.078c-.75.091-.794.078-.587-.171a10.642 10.642 0 0 1 2.8-.765c.413-.073.416-.07.416.442 0 .788-.387 1.1-1.489 1.2-.486.045-1.088.111-1.337.147a.981.981 0 0 1-.545-.028c-.135-.134-.113-.562.029-.562.2 0 .279.229.1.292-.39.143.044.197.919.118zm-.34-.367a.741.741 0 0 1 .385 0c.087.035-.015.062-.227.059s-.287-.022-.162-.059zm-1.091-2.253a1.429 1.429 0 0 1 .326.531l.021.02h-.016a.8.8 0 0 1-.346.947c-.347.258-.526.271-4.3.3-3.176.022-4.031-.008-4.444-.158-.966-.352-1.072-.851-.346-1.629a1.979 1.979 0 0 1 1.315-.7 18.693 18.693 0 0 1 6.853.1 2.394 2.394 0 0 1 .937.589zM17 10.97a2.8 2.8 0 0 1-.5.449c-.035 0 .131-.2.371-.449a2.8 2.8 0 0 1 .5-.449c.037 0-.13.202-.371.449zm1.171-1.187a.568.568 0 0 1-.31.225c-.074 0-.11-.017-.081-.037s.169-.121.31-.224c.24-.174.246-.172.083.036zM4.187 10.4a4.415 4.415 0 0 0-.8.6c-.153.188-.145.2.061.126a2.328 2.328 0 0 1 .655-.088c.385 0 .417-.031.377-.353s-.038-.334.054-.042a.612.612 0 0 0 .274.371c.123.041.152-.008.093-.162a1.771 1.771 0 0 1-.085-.529v-.313zM7.28 6.529c2.113-.308 9.073-.239 10.079.1.128.044.091-.021-.088-.155-.39-.289-2.851-.556-5.208-.563a20.128 20.128 0 0 0-5.283.537c-.153.152-.08.165.5.081zm8.577 6.301h-1.632c-1.516 0-1.654.02-1.94.288l-.308.289-.234-.289c-.221-.272-.327-.288-1.915-.288H8.147l-.452.417c-.6.555-.68 1.017-.233 1.369a.822.822 0 0 0 1.029.131 41.457 41.457 0 0 1 7.071.018 1.006 1.006 0 0 0 1.11-.213c.356-.355.237-.546-.408-.656-.743-.127-7.541-.139-8.434-.015-.541.075-.591.066-.321-.059a75.144 75.144 0 0 1 8.723-.06l.69.1v-.017l-.519-.5z"/></svg>