<svg xmlns="http://www.w3.org/2000/svg" width="31.944" height="31.68" viewBox="0 0 605 600">
    <style>path{fill:#000}@media (prefers-color-scheme:dark){path{fill:#fff}}</style>
  <path id="Colore_riempimento_2" data-name="Colore riempimento 2" class="cls-1" d="M519,56q0.5,3,1,6h1V474c0,25.305,2.287,57.157-2,79-7.883,4.029-28.4,2-40,2H47l-3-4H43V58c1.116-.6,1.558-1.733,2-2h2V55c6.84-2.809,29.415-1,39-1H473C488.738,54,506.213,53.6,519,56ZM200,536l1-4h1V142c0-22.718,2.092-51.718-2-71l-89-1c-16.52,0-35.464-.488-49,2-0.944,1.8-1.385,1.575-2,4-2.309,2.66-1,22.46-1,28V533h1v2h1l1,3c23,2.168,50.336,1,75,1C158.642,539,182.166,539.8,200,536Zm21,0h2q0.5,1,1,2l70,1c10.683,0,25.089,1.5,34-1h19v-1c1.763-.639,2.609-0.44,4-1,4.068-9.2,3-23.586,3-37V97c0-9.292,2.325-23.792-5-26-1.706-1.487-5.8-1-9-1H222l-1,3c-5.1,4.572-3,20.7-3,30V528C218.749,530.492,220.394,533.165,221,536ZM373,70c-0.6,1.116-1.733,1.558-2,2v2h-1c-2.757,6.713-1,23.14-1,32V510c0,10.019-1.706,24.682,6,27,1.824,1.594,6.632,1,10,1l22,1h60c11.135,0,24.482.733,34-1l2-3h1v-2h1c2.836-6.837,1-23.958,1-33V107c0-9.993,1.95-25.235-2-32-4.062-6.957-22.729-5-34-5H373Zm73,12h32c5.375,0,12.158-.416,16,1a15.683,15.683,0,0,0-1,6l-26,18c2.395,3.8,7.269,5.472,11,8l1,2h2l2,3h2l1,2h2l1,2h2l1,2h1v7H446v-7h35v-1c-7.909-3.549-13.289-10.305-21-14q-0.5-3-1-6l22-15V89H446c-0.844-1.135.127-.145-1-1A15.683,15.683,0,0,0,446,82Zm19,57c12.835-.269,17.941,3.448,23,11l2,1v2h1v3h1q0.5,6.5,1,13h-1v4h-1l-1,4h-1v2l-3,2-4,5h-2v1h-2v1c-3.553,1.527-14.457,1.564-18,0v-1h-2v-1h-2l-1-2-6-5v-2h-1c-1.158-2.05-.029-2.219-2-4-0.1-7.557-.953-17.213,2-22l2-1v-2l4-3v-1c2.306-1.632,5.123-1.878,7-4h4v-1Zm-1,7c-1.786,1.968-1.966.838-4,2v1h-2l-2,3h-1v2l-2,1v3c-0.921.89-2.776,6.514-2,9h1v4h1c0.786,4.135,5.121,9.039,9,10,1.153,1.264,6.707,3.071,10,2v-1h4v-1c5.622-1.467,6.311-6.757,10-10,0.232-4.54,1.722-10.089-1-13C483.185,148.756,475.65,145.7,464,146Zm2,57c-6.1,1.011-12.348,5.575-13,12-3.347,3.486-1.319,13.532,1,17l5,4v8h-1a12.223,12.223,0,0,0-6-4,8.46,8.46,0,0,0-2-4h-1v-2h-1l-1-4h-1V212h1c1.453-7.321,15.113-19.883,27-16v1l6,1,1,2h2l3,4,3,2,1,4h1v2h1v3h1v4h1c1.127,4.124-2.05,8.675-3,11q-0.5,2.5-1,5l-3,2c-4.271,5.818-10.239,9.752-20,10-1.414-3.844-1-10.624-1-16V203Zm6,0v36l6-1,5-6h1l1-4h1v-4h1v-6h-1v-4h-1C483.681,208.29,478.014,204.1,472,203Zm-26,50h5c2.239,10.589,7.7,8.278,17,11h6v1c2.735,0.99,5.747.609,8,2l1,2c3.036,2.044,4.909,1.936,6,6,2.34,2.043,3.655,7.12,4,11h-6c-2.023-10.521-7.5-13.13-17-16l-13-1c-2.224-.726-4.2-2.414-7-3C447.3,261.081,446.008,261.179,446,253ZM94,501l-1-3H92l1-3c1.8-.945,1.575-1.385,4-2,3.23-3.2,12.756-2,19-2,16.606,0,34.96.168,50,1,1.584,2.731,2.742,2.446,3,7a7.742,7.742,0,0,0-2,3C146.883,503.919,112.292,504.915,94,501Zm230,0c-19.04,4.007-47.547,2-70,2a21.9,21.9,0,0,0-4-5c0.574-2.01-.12-0.865,1-2,0.723-2.762.279-2.237,3-3,2.706-2.457,13.3-1,18-1h36c8.848,0,16.027-1.01,17,7C323.861,500.139,324.6,499,324,501Zm84-9h45c5.012,0,14.778-.866,18,1v1c2.581,2,2.9,2.275,3,7l-3,1c-2.493,2.243-11.631,1-16,1H417c-5.487,0-12.233.765-15-2h-1v-5c1.384-.742,2.59-2.777,3-3h4v-1Z"/>
</svg>
