<svg xmlns="http://www.w3.org/2000/svg" viewBox="0 0 24 24"><path fill="#44739e" d="M20.034 2H3.966a1.8 1.8 0 0 0-1.8 1.8v16.4a1.8 1.8 0 0 0 1.8 1.8h16.068a1.8 1.8 0 0 0 1.8-1.8V3.8a1.8 1.8 0 0 0-1.8-1.8m.918 18.2a.92.92 0 0 1-.918.918H3.966a.92.92 0 0 1-.918-.918V3.8a.92.92 0 0 1 .918-.918h16.068a.92.92 0 0 1 .918.918ZM7.825 3.107H4.282a1.014 1.014 0 0 0-1.014 1.015v15.657a1.014 1.014 0 0 0 1.014 1.014h3.543a1.014 1.014 0 0 0 1.014-1.014V4.122a1.014 1.014 0 0 0-1.014-1.015m-.671 16.1h-2.2a.205.205 0 1 1 0-.41h2.2a.205.205 0 0 1 0 .41M18.957 9.1v1.548a.784.784 0 0 0 0-1.548m.76-5.944h-3.542a1.014 1.014 0 0 0-1.014 1.015v15.657a1.014 1.014 0 0 0 1.014 1.014h3.542a1.014 1.014 0 0 0 1.015-1.014V4.171a1.014 1.014 0 0 0-1.015-1.015M17.7 5.736h1.67l-1.011-.72.007-.191 1-.715H17.7v-.262h2.182V4.1l-1.182.817 1.186.811v.258H17.7Zm2.2 1.645a1.091 1.091 0 1 1-1.09-1.09 1.09 1.09 0 0 1 1.096 1.09Zm-.86 11.835h-2.2a.205.205 0 0 1 0-.41h2.2a.205.205 0 1 1 0 .41m.644-6.53a.867.867 0 0 0-.928-.713c-.392-.013-1.064 0-1.014-.759H18c.058.556.577.461.843.493a1.11 1.11 0 0 1 1.079.979Zm-.858-1.719a1 1 0 0 1-.15 0V9.106a.784.784 0 0 0-.3 1.41v.351a1.089 1.089 0 1 1 .454.1Zm-.01-4.367a.785.785 0 1 0 .785.785.787.787 0 0 0-.785-.785m-5.045-3.448h-3.542a1.015 1.015 0 0 0-1.015 1.014v15.657a1.015 1.015 0 0 0 1.015 1.014h3.542a1.014 1.014 0 0 0 1.014-1.014V4.166a1.014 1.014 0 0 0-1.014-1.014m-.671 16.06h-2.2a.206.206 0 0 1 0-.411h2.2a.206.206 0 0 1 0 .411"/></svg>