<svg xmlns="http://www.w3.org/2000/svg" viewBox="0 0 24 24"><path fill="#44739e" d="M20.014 2H3.986a1.8 1.8 0 0 0-1.793 1.808v16.384A1.8 1.8 0 0 0 3.986 22h16.028a1.8 1.8 0 0 0 1.793-1.808V3.808A1.8 1.8 0 0 0 20.014 2m.912 18.192a.916.916 0 0 1-.912.919H3.986a.916.916 0 0 1-.912-.919V3.808a.916.916 0 0 1 .912-.919h16.028a.916.916 0 0 1 .912.919ZM10.734 3.164H4.56A1.266 1.266 0 0 0 3.294 4.43v15.1A1.266 1.266 0 0 0 4.56 20.8h6.174A1.266 1.266 0 0 0 12 19.53V4.43a1.266 1.266 0 0 0-1.266-1.266m-1.99 16.06H6.55a.205.205 0 0 1 0-.409h2.194a.205.205 0 0 1 0 .409M19.477 3.213h-5.735a1.23 1.23 0 0 0-1.228 1.228v15.176a1.23 1.23 0 0 0 1.228 1.228h5.735a1.23 1.23 0 0 0 1.229-1.228V4.441a1.23 1.23 0 0 0-1.229-1.228m-1.793 2.571h1.665l-1.008-.717.007-.191 1-.713h-1.664V3.9h2.176v.255l-1.183.81 1.183.808v.258h-2.176Zm2.2 1.641A1.088 1.088 0 1 1 18.8 6.338a1.09 1.09 0 0 1 1.083 1.087Zm-2.177 11.8h-2.194a.205.205 0 1 1 0-.409h2.193a.205.205 0 1 1 0 .409Zm1.961-6.51a.866.866 0 0 0-.926-.715c-.391-.013-1.061 0-1.012-.757h.253c.057.554.575.46.841.491a1.11 1.11 0 0 1 1.075.977ZM18.812 11a1 1 0 0 1-.15 0V9.145a.782.782 0 0 0-.3 1.406v.349a1.085 1.085 0 1 1 .453.1ZM18.8 6.642a.783.783 0 1 0 .783.783.784.784 0 0 0-.783-.783m.137 2.499v1.544a.782.782 0 0 0 0-1.544"/></svg>