<svg xmlns="http://www.w3.org/2000/svg" viewBox="0 0 24 24"><path fill="#44739e" d="m21.493 13.359-.371.98-.381-.98H19.04v.492h.447v1.411h.533v-1.411h.686l-.27.108.55 1.3h.264l.75-1.785v-.115Zm-2.757 1.349a.278.278 0 1 0 0 .554.274.274 0 0 0 .291-.275.28.28 0 0 0-.291-.279m-12.179-.777a20 20 0 0 1 .24-2.009c.074-.419.222-1.119.3-1.512a.37.37 0 0 0-.044-.285.9.9 0 0 0-.27-.18h-.009a.47.47 0 0 0-.4.017 1.7 1.7 0 0 0-.536.475 6.6 6.6 0 0 0-.884 1.787c.072-.379.331-1.485.374-1.77 0-.033.04-.128.015-.181a.63.63 0 0 0-.271-.228l-.075-.029a.4.4 0 0 0-.359.033 1.64 1.64 0 0 0-.53.492 8 8 0 0 0-.87 1.991l.136-.864c.063-.373.309-1.776.359-2.123.005-.033.026-.132.006-.164a.35.35 0 0 0-.235-.1.9.9 0 0 0-.382.024h-.013l-.012.01a3.3 3.3 0 0 0-.669.813c-.216.366-.3.521-.408.72-.069.132.048.49.188.268a8 8 0 0 1 .68-.924c-.114.748-.433 3.189-.48 3.501-.024.161-.146.891.148.857h.024c.101-.024.456-.171.488-.308a8.85 8.85 0 0 1 1.481-3.401 46 46 0 0 0-.309 1.946c-.04.356-.14 1.08.1 1.069h.028c.095-.021.46-.156.493-.292a7.2 7.2 0 0 1 1.421-2.828c-.044.236-.061.314-.107.549a23 23 0 0 0-.438 2.861 1.02 1.02 0 0 0 .713 1.083c.093.027.435 0 .367-.108a2.04 2.04 0 0 1-.26-1.194Zm1.54-.609a1.4 1.4 0 0 0 .857-.624 2.7 2.7 0 0 0 .439-1.063q.028-.13.044-.241a1.03 1.03 0 0 0 .436-.369c-.093.55-.141.923-.158 1.159a1.6 1.6 0 0 0 .091.769.56.56 0 0 0 .456.348.79.79 0 0 0 .676-.3 1 1 0 0 0 .094-.1.72.72 0 0 0 .844.386 1.4 1.4 0 0 0 .861-.618 2.7 2.7 0 0 0 .449-1.059q.027-.127.045-.236a1.1 1.1 0 0 0 .479-.353 11 11 0 0 0-.201 1.078 1.6 1.6 0 0 0 .071.775.6.6 0 0 0 .451.38.76.76 0 0 0 .689-.255q.054-.05.109-.109a.72.72 0 0 0 .865.44 1.4 1.4 0 0 0 .864-.611 2.65 2.65 0 0 0 .453-1.05 4 4 0 0 0 .045-.229.83.83 0 0 0 .464-.512c.046-.124.015-.441-.056-.281a.81.81 0 0 1-.532.526.8.8 0 0 0 .16-.127 1 1 0 0 0-.08-.432.427.427 0 0 0-.513-.259c0-.183-.085-.295-.383-.241a1.2 1.2 0 0 0-.493.207 2.1 2.1 0 0 0-.623.829 3.4 3.4 0 0 0-.252.914 2 2 0 0 0 0 .528 1 1 0 0 1-.081.074.5.5 0 0 1-.312.137c-.2-.03-.171-.383-.164-.52a7 7 0 0 1 .154-.915c.035-.189.159-.794.357-1.552a7.6 7.6 0 0 1 1.985.146 4 4 0 0 1 .58.175c.519.219.5.924.443 1.341a9.7 9.7 0 0 1-.479 1.732.4.4 0 0 0 .072.277 1.2 1.2 0 0 0 .266.215.47.47 0 0 0 .391.071 5.65 5.65 0 0 0 1.785-1.828 3.5 3.5 0 0 0 .5-1.231c0-.21-.806-.152-.827.165a3.16 3.16 0 0 1-.713 1.632 2.8 2.8 0 0 1-.783.708 9.2 9.2 0 0 0 .533-2.305 1.63 1.63 0 0 0-.168-.947c-.3-.446-1.187-.66-2.331-.656a10 10 0 0 0-1.133.069c.071-.3.118-.484.125-.521.014-.07-.105-.1-.34-.092s-.4.043-.444.209c-.048.2-.088.349-.131.527a8 8 0 0 0-.313.069 3.7 3.7 0 0 0-.615.189c-.155.055-.265.439-.127.389a5.4 5.4 0 0 1 .909-.236l.058-.01-.036.165c-.159.7-.521.963-.813 1.018a.8.8 0 0 0 .168-.132 1 1 0 0 0-.086-.41.43.43 0 0 0-.51-.252c0-.183-.086-.3-.384-.241a1.2 1.2 0 0 0-.492.21 2.1 2.1 0 0 0-.62.837 3.5 3.5 0 0 0-.248.921 2 2 0 0 0 .018.6l-.06.061a.5.5 0 0 1-.307.158c-.2-.015-.179-.37-.176-.507a7 7 0 0 1 .13-.911c.068-.445.475-2.484.5-2.606.012-.071-.107-.092-.34-.068s-.4.073-.434.242c-.109.51-.174.906-.248 1.292a1.15 1.15 0 0 1-.68.837 1 1 0 0 0 .137-.112 1 1 0 0 0-.085-.426.43.43 0 0 0-.513-.248c0-.183-.088-.295-.386-.238a1.16 1.16 0 0 0-.491.214 2.14 2.14 0 0 0-.613.841 3.5 3.5 0 0 0-.24.924 1.9 1.9 0 0 0 .086.821.72.72 0 0 0 .873.436Zm7.438-1.7a1.7 1.7 0 0 1 .351-.665.6.6 0 0 1 .4-.207c-.051.078-.014.127.066.143a.24.24 0 0 1 .191.222c-.123-.078-.265.371-.1.4a1.15 1.15 0 0 0 .5-.038 1.1 1.1 0 0 1-.429.117 2.3 2.3 0 0 1-.336.889c-.215.308-.447.437-.59.331-.22-.162-.245-.608-.057-1.189Zm-3.837-.054a1.8 1.8 0 0 1 .348-.671.58.58 0 0 1 .4-.209c-.05.078-.013.128.066.144a.23.23 0 0 1 .186.193c-.108-.036-.231.389-.076.411a1.2 1.2 0 0 0 .447-.022 1 1 0 0 1-.387.1 2.3 2.3 0 0 1-.336.915c-.213.31-.445.441-.588.335-.216-.162-.244-.611-.06-1.196m-3.794.044a1.75 1.75 0 0 1 .343-.673.58.58 0 0 1 .4-.213c-.05.078-.012.128.067.143a.23.23 0 0 1 .188.2c-.1-.007-.27.382-.078.411a1.1 1.1 0 0 0 .483-.036 1 1 0 0 1-.418.116 2.3 2.3 0 0 1-.327.912c-.211.313-.443.445-.586.34-.222-.161-.253-.61-.073-1.2Zm9.837 2.646c-1.242-.724-4.64-.851-7.97-.563a28 28 0 0 0-2.972.416c.052 0 .391-.044.549-.069-.141.038-.543.115-.56.119.008 0 .329-.046.518-.069-.22.049-.525.113-.526.114 0 0 .293-.04.5-.061-.192.041-.5.118-.5.118s.285-.04.5-.062c-.187.038-.48.12-.48.121 0 0 .308-.045.492-.069-.189.045-.466.12-.466.122v.008a25 25 0 0 1 3.138-.342c4.715-.206 7.242.5 7.863 1.181.152-.194.4-.7-.078-.982Zm-12.12.2v-.007a4 4 0 0 0-.466.09c.152-.055.458-.136.458-.137v-.007s-.3.051-.469.1c.176-.061.454-.132.454-.134v-.005c-.8.18-1.509.373-2.108.571-.289.1-.009.222.249.153a35 35 0 0 1 1.865-.448 4 4 0 0 0-.517.094c.128-.047.512-.141.53-.143v-.007a4 4 0 0 0-.491.089c.21-.074.5-.142.5-.144v-.008a5 5 0 0 0-.475.089c.169-.064.472-.138.472-.141Z"/></svg>