<?xml version="1.0" encoding="UTF-8"?>
<svg width="24px" fill="#44739e" height="24px" viewBox="0 0 24 24" version="1.1" xmlns="http://www.w3.org/2000/svg" xmlns:xlink="http://www.w3.org/1999/xlink">
            <path d="m 21.493,12.614 -0.371,0.979 -0.381,-0.979 h -1.7 v 0.491 h 0.446 v 1.411 h 0.533 v -1.411 h 0.686 l -0.27,0.108 0.55,1.3 H 21.25 L 22,12.728 v -0.114 z m -2.756,1.348 a 0.278,0.278 0 1 0 0,0.554 0.274,0.274 0 0 0 0.291,-0.275 0.279,0.279 0 0 0 -0.291,-0.279 z M 6.56,13.185 A 19.9,19.9 0 0 1 6.8,11.177 C 6.874,10.758 7.022,10.058 7.1,9.665 A 0.372,0.372 0 0 0 7.056,9.38 0.887,0.887 0 0 0 6.786,9.2 H 6.777 A 0.468,0.468 0 0 0 6.377,9.217 1.669,1.669 0 0 0 5.841,9.692 6.618,6.618 0 0 0 4.957,11.479 C 5.029,11.1 5.288,9.994 5.331,9.709 5.331,9.676 5.371,9.581 5.346,9.528 A 0.632,0.632 0 0 0 5.075,9.3 L 5,9.271 v 0 A 0.408,0.408 0 0 0 4.641,9.304 1.641,1.641 0 0 0 4.111,9.796 7.872,7.872 0 0 0 3.241,11.787 C 3.263,11.649 3.365,10.993 3.377,10.923 3.44,10.55 3.686,9.147 3.736,8.8 3.741,8.767 3.762,8.668 3.742,8.636 A 0.346,0.346 0 0 0 3.507,8.536 0.937,0.937 0 0 0 3.125,8.56 H 3.112 L 3.1,8.57 A 3.318,3.318 0 0 0 2.432,9.383 c -0.216,0.366 -0.3,0.521 -0.408,0.72 -0.069,0.132 0.048,0.49 0.188,0.268 A 7.8,7.8 0 0 1 2.891,9.447 c -0.114,0.748 -0.432,3.188 -0.479,3.5 -0.024,0.161 -0.146,0.891 0.148,0.857 a 0.075,0.075 0 0 0 0.024,0 c 0.1,-0.024 0.455,-0.171 0.487,-0.308 a 8.846,8.846 0 0 1 1.481,-3.4 c -0.113,0.6 -0.284,1.723 -0.309,1.946 -0.04,0.356 -0.14,1.079 0.1,1.068 h 0.028 c 0.095,-0.021 0.46,-0.156 0.493,-0.292 A 7.191,7.191 0 0 1 6.285,9.991 C 6.241,10.227 6.224,10.305 6.178,10.54 A 22.512,22.512 0 0 0 5.74,13.4 1.018,1.018 0 0 0 6.453,14.483 c 0.093,0.027 0.435,0 0.367,-0.108 A 2.038,2.038 0 0 1 6.56,13.181 Z M 8.1,12.577 A 1.394,1.394 0 0 0 8.956,11.953 2.662,2.662 0 0 0 9.395,10.89 C 9.414,10.803 9.428,10.723 9.439,10.649 A 1.028,1.028 0 0 0 9.875,10.28 c -0.093,0.55 -0.141,0.923 -0.158,1.159 a 1.61,1.61 0 0 0 0.091,0.769 0.561,0.561 0 0 0 0.456,0.348 0.788,0.788 0 0 0 0.676,-0.3 1.042,1.042 0 0 0 0.094,-0.1 0.719,0.719 0 0 0 0.844,0.386 1.4,1.4 0 0 0 0.861,-0.618 2.669,2.669 0 0 0 0.449,-1.059 c 0.018,-0.085 0.033,-0.163 0.045,-0.236 a 1.094,1.094 0 0 0 0.478,-0.353 10.829,10.829 0 0 0 -0.2,1.078 1.634,1.634 0 0 0 0.071,0.775 0.6,0.6 0 0 0 0.45,0.38 0.761,0.761 0 0 0 0.689,-0.255 c 0.036,-0.033 0.072,-0.069 0.109,-0.109 a 0.718,0.718 0 0 0 0.865,0.44 1.4,1.4 0 0 0 0.864,-0.611 2.65,2.65 0 0 0 0.453,-1.05 c 0.019,-0.083 0.033,-0.158 0.045,-0.229 a 0.832,0.832 0 0 0 0.464,-0.512 c 0.046,-0.124 0.015,-0.441 -0.056,-0.281 a 0.81,0.81 0 0 1 -0.532,0.526 0.788,0.788 0 0 0 0.16,-0.127 A 1.019,1.019 0 0 0 17.013,9.869 0.427,0.427 0 0 0 16.5,9.61 c 0,-0.183 -0.085,-0.295 -0.383,-0.241 a 1.167,1.167 0 0 0 -0.493,0.207 2.128,2.128 0 0 0 -0.623,0.829 3.434,3.434 0 0 0 -0.252,0.914 2.079,2.079 0 0 0 0,0.528 0.933,0.933 0 0 1 -0.081,0.074 0.494,0.494 0 0 1 -0.312,0.137 c -0.2,-0.03 -0.171,-0.383 -0.164,-0.52 a 7.3,7.3 0 0 1 0.154,-0.915 c 0.035,-0.189 0.159,-0.794 0.357,-1.552 a 7.555,7.555 0 0 1 1.985,0.146 3.942,3.942 0 0 1 0.58,0.175 c 0.519,0.219 0.5,0.924 0.443,1.341 a 9.681,9.681 0 0 1 -0.479,1.732 0.392,0.392 0 0 0 0.072,0.276 1.149,1.149 0 0 0 0.266,0.215 0.471,0.471 0 0 0 0.391,0.071 5.647,5.647 0 0 0 1.784,-1.827 3.445,3.445 0 0 0 0.5,-1.231 c 0,-0.21 -0.806,-0.152 -0.827,0.165 a 3.16,3.16 0 0 1 -0.712,1.632 2.811,2.811 0 0 1 -0.783,0.708 9.167,9.167 0 0 0 0.533,-2.305 1.632,1.632 0 0 0 -0.168,-0.947 c -0.3,-0.446 -1.187,-0.66 -2.331,-0.656 a 9.861,9.861 0 0 0 -1.133,0.069 c 0.071,-0.3 0.118,-0.484 0.125,-0.521 0.014,-0.07 -0.105,-0.1 -0.34,-0.092 -0.235,0.008 -0.4,0.043 -0.444,0.209 -0.048,0.2 -0.088,0.349 -0.131,0.527 C 13.925,8.78 13.82,8.803 13.721,8.827 A 3.649,3.649 0 0 0 13.107,9.016 C 12.952,9.071 12.842,9.455 12.98,9.405 a 5.376,5.376 0 0 1 0.908,-0.236 l 0.058,-0.01 c -0.015,0.071 -0.029,0.132 -0.036,0.165 -0.159,0.7 -0.52,0.963 -0.812,1.018 A 0.843,0.843 0 0 0 13.266,10.21 1.042,1.042 0 0 0 13.18,9.8 0.428,0.428 0 0 0 12.67,9.548 c 0,-0.183 -0.086,-0.3 -0.384,-0.241 a 1.163,1.163 0 0 0 -0.492,0.21 2.135,2.135 0 0 0 -0.62,0.837 3.461,3.461 0 0 0 -0.248,0.921 2.072,2.072 0 0 0 0.018,0.6 l -0.06,0.061 a 0.515,0.515 0 0 1 -0.307,0.158 c -0.2,-0.015 -0.179,-0.37 -0.176,-0.507 a 7.355,7.355 0 0 1 0.13,-0.911 c 0.068,-0.445 0.475,-2.484 0.5,-2.606 0.012,-0.071 -0.107,-0.092 -0.34,-0.068 -0.233,0.024 -0.4,0.073 -0.434,0.242 -0.109,0.51 -0.174,0.906 -0.248,1.292 A 1.147,1.147 0 0 1 9.329,10.373 0.8,0.8 0 0 0 9.466,10.261 1.043,1.043 0 0 0 9.381,9.835 0.43,0.43 0 0 0 8.868,9.587 C 8.868,9.404 8.78,9.292 8.482,9.349 a 1.157,1.157 0 0 0 -0.49,0.214 2.144,2.144 0 0 0 -0.613,0.841 3.52,3.52 0 0 0 -0.24,0.924 1.879,1.879 0 0 0 0.086,0.821 0.721,0.721 0 0 0 0.873,0.436 z m 7.436,-1.7 a 1.731,1.731 0 0 1 0.351,-0.665 0.59,0.59 0 0 1 0.4,-0.207 c -0.051,0.078 -0.014,0.127 0.066,0.143 a 0.243,0.243 0 0 1 0.191,0.222 c -0.123,-0.078 -0.265,0.371 -0.1,0.4 a 1.151,1.151 0 0 0 0.5,-0.038 1.083,1.083 0 0 1 -0.429,0.117 2.281,2.281 0 0 1 -0.336,0.889 c -0.215,0.308 -0.447,0.437 -0.59,0.331 -0.22,-0.162 -0.245,-0.608 -0.057,-1.189 z M 11.7,10.823 a 1.756,1.756 0 0 1 0.348,-0.671 0.584,0.584 0 0 1 0.4,-0.209 c -0.05,0.078 -0.013,0.128 0.066,0.144 A 0.232,0.232 0 0 1 12.7,10.28 c -0.108,-0.036 -0.231,0.389 -0.076,0.411 a 1.2,1.2 0 0 0 0.447,-0.022 0.98,0.98 0 0 1 -0.387,0.1 2.313,2.313 0 0 1 -0.336,0.915 c -0.213,0.31 -0.445,0.441 -0.588,0.335 -0.216,-0.162 -0.244,-0.611 -0.06,-1.196 z m -3.793,0.044 a 1.747,1.747 0 0 1 0.342,-0.673 0.583,0.583 0 0 1 0.4,-0.213 c -0.05,0.078 -0.012,0.128 0.067,0.143 a 0.234,0.234 0 0 1 0.188,0.2 c -0.1,-0.007 -0.27,0.382 -0.078,0.411 a 1.1,1.1 0 0 0 0.483,-0.036 0.984,0.984 0 0 1 -0.418,0.116 2.317,2.317 0 0 1 -0.327,0.912 c -0.211,0.313 -0.442,0.445 -0.585,0.34 -0.222,-0.161 -0.253,-0.61 -0.073,-1.2 z m 9.835,2.645 C 16.5,12.788 13.103,12.661 9.773,12.949 a 28.1,28.1 0 0 0 -2.971,0.416 v 0 c 0.052,0 0.391,-0.044 0.549,-0.069 -0.141,0.038 -0.543,0.115 -0.56,0.119 v 0 c 0.008,0 0.329,-0.046 0.518,-0.069 -0.22,0.049 -0.525,0.113 -0.526,0.114 v 0 c 0,0 0.293,-0.04 0.5,-0.061 -0.192,0.041 -0.5,0.118 -0.5,0.118 v 0 c 0,0 0.285,-0.04 0.5,-0.062 -0.187,0.038 -0.48,0.12 -0.48,0.121 v 0 c 0,0 0.308,-0.045 0.492,-0.069 -0.189,0.045 -0.466,0.12 -0.466,0.122 v 0.008 a 25.412,25.412 0 0 1 3.137,-0.342 c 4.714,-0.206 7.241,0.5 7.862,1.181 0.152,-0.194 0.4,-0.7 -0.078,-0.982 z m -12.118,0.2 v -0.007 a 3.726,3.726 0 0 0 -0.466,0.09 C 5.31,13.74 5.616,13.659 5.616,13.658 v -0.007 c 0,0 -0.3,0.051 -0.469,0.1 0.176,-0.061 0.454,-0.132 0.454,-0.134 v -0.005 c -0.8,0.18 -1.509,0.373 -2.108,0.571 -0.289,0.1 -0.009,0.222 0.249,0.153 0.628,-0.169 1.251,-0.318 1.865,-0.448 v 0 A 4.192,4.192 0 0 0 5.09,13.982 c 0.128,-0.047 0.512,-0.141 0.53,-0.143 v -0.007 a 4.313,4.313 0 0 0 -0.491,0.089 c 0.21,-0.074 0.5,-0.142 0.5,-0.144 V 13.769 A 4.638,4.638 0 0 0 5.154,13.858 C 5.323,13.794 5.626,13.72 5.626,13.717 Z"/>

</svg>