<?xml version="1.0" encoding="UTF-8" standalone="no"?>
<!-- Created with Inkscape (http://www.inkscape.org/) -->

<svg
   width="24"
   height="24"
   viewBox="0 0 24 24"
   version="1.1"
   id="svg130"
   xml:space="preserve"
   inkscape:version="1.2.2 (b0a8486541, 2022-12-01)"
   sodipodi:docname="monitlogo2.svg"
   xmlns:inkscape="http://www.inkscape.org/namespaces/inkscape"
   xmlns:sodipodi="http://sodipodi.sourceforge.net/DTD/sodipodi-0.dtd"
   xmlns="http://www.w3.org/2000/svg"
   xmlns:svg="http://www.w3.org/2000/svg"><path
       style="fill:#44739e;stroke-width:0.0469518"
       d="M 10.778785,23.937677 C 8.0041949,23.63275 5.5730531,22.494651 3.6201722,20.586489 2.9077771,19.890406 2.5590647,19.470154 1.9834812,18.614023 1.3459761,17.665788 0.80503869,16.513956 0.47323232,15.398209 0.12209783,14.217468 0.00185023,13.341134 4.2618921e-5,11.949725 -0.00104038,11.122084 0.01808952,10.818849 0.10655471,10.260672 0.31175139,8.9659722 0.62602089,7.9269643 1.126297,6.8892934 1.9586924,5.1627426 2.8349965,4.0435186 4.3417767,2.7824547 5.1637849,2.0944933 5.6277824,1.7808348 6.4598328,1.3506593 7.2214521,0.95689638 7.8882706,0.68800088 8.637111,0.47266748 c 2.904341,-0.83515645 6.034144,-0.55605931 8.719641,0.77756372 3.144445,1.5615412 5.451521,4.4354351 6.310528,7.8609463 0.256757,1.0238765 0.335293,1.7106445 0.332656,2.9089255 -0.0026,1.15957 -0.0742,1.80454 -0.303758,2.734323 -0.773618,3.133419 -2.642755,5.73443 -5.342594,7.434515 -0.563671,0.354942 -1.600528,0.855838 -2.292794,1.107628 -1.6211,0.589621 -3.583353,0.82779 -5.282005,0.641108 z m 1.881294,-4.032113 c 0.1411,-0.03694 0.464187,-0.163617 0.717969,-0.281509 0.253784,-0.117891 0.516037,-0.214349 0.582787,-0.214349 0.06675,0 0.234526,0.05346 0.372842,0.1188 0.270835,0.127942 0.387797,0.111089 0.484773,-0.06986 0.03786,-0.07065 0.01843,-0.137572 -0.09166,-0.315622 -0.07684,-0.124281 -0.226008,-0.458208 -0.331482,-0.742063 -0.340356,-0.915982 -0.822339,-1.785836 -1.169869,-2.111308 l -0.150294,-0.140754 -0.862355,-0.01459 c -1.065632,-0.01803 -1.187554,0.0092 -1.505253,0.335493 -0.274158,0.281622 -0.505873,0.714081 -0.9125875,1.703206 -0.160661,0.390722 -0.3642294,0.819757 -0.4523762,0.953411 -0.1537619,0.233141 -0.1573793,0.248584 -0.089095,0.380441 0.089296,0.172434 0.206085,0.175973 0.4818462,0.01459 0.175585,-0.102753 0.245151,-0.118016 0.4254365,-0.09334 0.11854,0.01623 0.29555,0.08238 0.393355,0.147011 0.196311,0.129726 0.57086,0.286637 0.831353,0.348278 0.27366,0.06476 0.997806,0.05462 1.27461,-0.01784 z m 4.025357,-0.290614 c 0.304393,-0.187924 0.468712,-0.468245 0.530124,-0.90437 0.05733,-0.407157 0.05641,-0.40525 0.531474,-1.105307 1.011681,-1.490822 1.22714,-2.493681 1.16466,-5.420957 -0.01856,-0.869526 0.01071,-1.047807 0.180879,-1.101739 0.05319,-0.01686 0.11805,-0.07047 0.144129,-0.119128 0.03792,-0.07074 0.01907,-0.120716 -0.09402,-0.249336 -0.07779,-0.08847 -0.141441,-0.172891 -0.141441,-0.187597 0,-0.0147 0.18421,-0.112939 0.409357,-0.218295 0.225146,-0.105356 0.424535,-0.216078 0.443083,-0.246049 0.04851,-0.07838 -0.03306,-0.2062934 -0.190978,-0.2994424 -0.157756,-0.09305 -0.238593,-0.244066 -0.238593,-0.4457111 0,-0.2109179 0.07961,-0.3220709 0.3006,-0.4196831 0.109224,-0.048246 0.238947,-0.1322497 0.288272,-0.1866736 0.08861,-0.097772 0.0881,-0.1018698 -0.04234,-0.3426658 -0.109691,-0.202486 -0.126279,-0.2753219 -0.09807,-0.4305782 0.07274,-0.4003153 0.272969,-0.5932983 0.505715,-0.4874049 0.180429,0.082092 0.218974,0.2032964 0.290446,0.9133583 0.03778,0.3753191 0.09228,0.7710115 0.121122,0.8793148 0.07074,0.2656756 0.322149,0.7312596 0.424368,0.785888 0.208152,0.11124 0.402719,-0.3601314 0.511638,-1.2395259 0.04166,-0.3363193 0.03693,-0.5425203 -0.02468,-1.076903 C 21.659271,7.3486307 21.595263,6.9938161 21.558937,6.9236685 21.471617,6.7550576 21.274726,6.6216499 21.053786,6.5813981 20.955196,6.5634348 20.460981,6.4232744 19.955539,6.2699297 18.863805,5.9387104 18.691497,5.9247759 18.345265,6.1396961 18.040165,6.3290846 17.783219,6.3380486 17.491703,6.1694767 16.696276,5.7095134 14.550112,4.6203324 14.322625,4.5611632 14.00571,4.4787374 13.645324,4.4691741 13.409659,4.5369402 13.099938,4.6260012 12.446412,4.7252328 11.976913,4.7544902 11.55979,4.7804832 11.451688,4.7694032 11.01371,4.6558402 10.598212,4.5480994 10.446212,4.5305723 10.050447,4.5447692 L 9.5805335,4.5616331 7.9856132,5.4023097 C 6.1347466,6.3778943 6.0720527,6.3976043 5.6598881,6.1334985 5.3262685,5.919722 4.9935225,5.9259817 4.360459,6.1579415 3.5933702,6.4390105 3.2183275,6.5541463 3.0698664,6.5541463 2.8005229,6.5541463 2.607057,6.6745168 2.5045792,6.9058541 2.2586091,7.4611119 2.1723838,8.7581734 2.338422,9.405305 2.5009459,10.038738 2.7313668,10.22508 2.9517134,9.9012746 3.1485871,9.6119656 3.2542667,9.2068391 3.3046843,8.5481669 c 0.025678,-0.3354645 0.068513,-0.6849646 0.095188,-0.77667 0.057974,-0.1992923 0.2088392,-0.3728241 0.3241296,-0.3728241 0.1281936,0 0.3216168,0.2350754 0.3826219,0.4650154 0.050624,0.1908124 0.044754,0.2270105 -0.07521,0.4637758 l -0.1301203,0.256807 0.192459,0.1696217 c 0.3354754,0.2956632 0.3730058,0.5004278 0.1732055,0.9450059 -0.06699,0.149061 -0.1144149,0.3100504 -0.1053866,0.3577534 0.011632,0.06143 0.1567702,0.14148 0.4975553,0.274405 0.2646269,0.10322 0.4811982,0.201218 0.4812692,0.217775 9.41e-5,0.01656 -0.047441,0.0425 -0.1055872,0.05765 -0.058144,0.01514 -0.1668019,0.07691 -0.2414595,0.137244 l -0.1357426,0.109697 0.1448402,0.199657 c 0.3008893,0.414772 0.3324831,0.643523 0.2672676,1.935159 -0.055797,1.105084 0.076078,2.202429 0.3727838,3.101975 0.2349297,0.712257 0.5072176,1.214848 0.9824418,1.813402 0.2855036,0.359597 0.2604768,0.403246 0.3887645,-0.678023 0.1230028,-1.036717 0.1246153,-3.672223 0.00273,-4.478248 -0.1346292,-0.890382 -0.1891009,-1.359575 -0.1610872,-1.387549 0.014562,-0.01454 0.1291081,0.04717 0.2545366,0.137158 0.3539742,0.25394 0.6869351,0.366433 1.1437316,0.386413 0.3379118,0.01477 0.3740677,0.0097 0.2349279,-0.03276 -0.5941249,-0.181469 -0.8231624,-0.33944 -0.8762188,-0.60434 -0.043433,-0.21686 -0.1934677,-0.271318 -0.4882003,-0.177201 -0.1281971,0.04094 -0.2330864,0.05456 -0.2330864,0.03027 0,-0.08164 0.2285154,-0.495417 0.3593407,-0.650672 0.1658944,-0.196871 0.3728602,-0.281934 0.6845768,-0.281359 0.3045476,5.32e-4 0.5922585,0.127573 1.1106567,0.490305 0.4482867,0.313671 0.8173624,0.472338 1.2738029,0.54761 0.860468,0.1419 1.62751,-0.271293 1.811982,-0.976081 0.03261,-0.124579 0.06971,-0.194836 0.08245,-0.156129 0.132981,0.403921 0.214959,0.558987 0.3856,0.729382 0.59405,0.593201 1.795461,0.519695 2.72605,-0.166788 0.350069,-0.258242 0.797362,-0.470303 1.056672,-0.50097 0.272739,-0.03226 0.58689,0.09882 0.776692,0.324065 0.123438,0.146486 0.350886,0.561222 0.350886,0.639812 0,0.02384 -0.108126,0.01169 -0.24028,-0.02699 -0.264199,-0.07734 -0.4645,-0.03189 -0.4645,0.105395 0,0.126448 -0.130412,0.332826 -0.267767,0.423744 -0.07239,0.04791 -0.269043,0.133825 -0.437015,0.190912 -0.283327,0.09629 -0.293131,0.104063 -0.135624,0.107521 0.432013,0.0095 1.007012,-0.188459 1.361249,-0.468618 0.252529,-0.19972 0.264544,-0.141625 0.144351,0.697899 -0.16649,1.16288 -0.205015,1.680912 -0.204794,2.75375 1.77e-4,0.891776 0.07367,2.044772 0.180912,2.838544 0.05387,0.39872 -0.03571,0.150249 -0.26447,-0.733574 -0.497421,-1.921797 -1.107677,-3.388264 -1.764331,-4.239745 -0.26712,-0.346374 -0.748446,-0.799575 -1.012526,-0.953363 -0.324009,-0.188689 -0.713541,-0.307408 -1.189266,-0.362458 -0.690842,-0.07994 -0.727813,-0.08971 -0.895153,-0.236421 -0.14666,-0.128586 -0.162062,-0.132826 -0.18784,-0.05172 -0.04358,0.137114 -0.239165,0.201152 -0.825027,0.270133 -0.880955,0.103726 -1.2878655,0.285096 -1.8626057,0.830204 -0.5734542,0.543887 -1.0343334,1.29773 -1.4983131,2.450733 -0.4788913,1.190062 -1.0729079,3.395022 -0.9711369,3.604819 0.027136,0.05594 0.0625,0.214635 0.078584,0.352652 0.016089,0.138018 0.06239,0.333661 0.1029004,0.434761 0.09153,0.228427 0.4199498,0.523103 0.664572,0.596288 0.4086644,0.122263 1.2269735,0.01084 1.3299023,-0.1811 0.02026,-0.03778 0.1566601,-0.374832 0.3031074,-0.749003 0.5145781,-1.314733 1.0960006,-2.369687 1.4883126,-2.700448 0.227514,-0.191818 0.596556,-0.348252 0.822784,-0.348772 0.136592,-3.54e-4 0.229382,-0.03011 0.29366,-0.09429 0.08897,-0.08884 0.09397,-0.156393 0.09397,-1.268441 0,-1.018478 -0.01044,-1.190506 -0.07851,-1.294252 -0.06691,-0.101968 -0.06864,-0.125884 -0.01174,-0.161844 0.08423,-0.05323 0.235594,-0.05429 0.317868,-0.0022 0.05219,0.03303 0.05015,0.0651 -0.01174,0.184624 -0.06254,0.120767 -0.07491,0.333356 -0.07491,1.287509 0,0.840284 0.01556,1.164061 0.05873,1.222955 0.03643,0.04968 0.174708,0.09849 0.364137,0.128532 0.364741,0.05784 0.619227,0.172897 0.885141,0.400184 0.519446,0.443989 1.070367,1.510771 1.50547,2.915144 0.110405,0.356356 0.17559,0.49431 0.253347,0.536178 0.492671,0.265271 1.147439,0.289859 1.524229,0.05724 z m -5.412807,-5.787982 c -0.09858,-0.102746 -0.194897,-0.148231 -0.360286,-0.17014 -0.237023,-0.0314 -0.268745,-0.111885 -0.0441,-0.111885 0.169938,0 0.27444,-0.119785 0.312645,-0.358372 0.01689,-0.105438 0.04901,-0.22101 0.07138,-0.256825 0.06248,-0.100023 0.197261,0.0065 0.265499,0.20978 0.05085,0.151522 0.04602,0.194279 -0.0408,0.360601 -0.06653,0.127462 -0.08945,0.233866 -0.07062,0.327887 0.01533,0.07656 0.02179,0.139192 0.01435,0.139192 -0.0074,0 -0.07407,-0.06311 -0.148076,-0.140238 z m 1.301002,-0.06777 c 0,-0.08885 -0.03383,-0.209765 -0.07518,-0.268711 -0.09486,-0.135239 -0.0955,-0.286298 -0.002,-0.466889 0.1112,-0.214731 0.22022,-0.160527 0.29464,0.146492 0.07648,0.315542 0.09648,0.337128 0.347759,0.375375 0.213628,0.03252 0.203297,0.03954 -0.171641,0.116761 -0.06261,0.01289 -0.176788,0.07634 -0.253722,0.140977 l -0.139878,0.117533 V 13.759198 Z M 20.3391,8.127225 C 20.31684,7.8604238 20.28737,7.7290695 20.25238,7.7406916 c -0.09881,0.032816 -0.110165,0.2839773 -0.02104,0.4654445 0.04702,0.095741 0.08549,0.2206604 0.08549,0.2776006 0,0.056938 0.01259,0.090948 0.02799,0.075576 0.0154,-0.015374 0.01282,-0.2098114 -0.0057,-0.4320872 z"
       id="path204" /></g></svg>
