<?xml version="1.0" encoding="UTF-8"?>
<svg width="24px" fill="#44739e" height="24px" viewBox="0 0 24 24" version="1.1" xmlns="http://www.w3.org/2000/svg" xmlns:xlink="http://www.w3.org/1999/xlink">
            <path d="M 10.982321,21.948064 C 8.6701623,21.693958 6.6442109,20.745542 5.0168102,19.155407 4.4231476,18.575338 4.1325539,18.225128 3.652901,17.511686 3.1216468,16.72149 2.6708656,15.76163 2.3943603,14.831841 2.1017482,13.84789 2.0015419,13.117612 2.0000355,11.958104 1.999133,11.268403 2.0150746,11.015707 2.0887956,10.55056 2.2597928,9.4716434 2.5216841,8.6058035 2.9385808,7.7410778 3.6322437,6.3022854 4.3624971,5.3695988 5.6181473,4.3187122 6.3031541,3.7454111 6.6898187,3.484029 7.383194,3.1255494 8.0178766,2.7974136 8.5735587,2.5733341 9.1975923,2.3938896 11.617877,1.6979259 14.226046,1.9305068 16.46396,3.0418593 c 2.620371,1.3012843 4.542934,3.6961959 5.258773,6.5507885 0.213965,0.8532302 0.279411,1.4255372 0.277214,2.4241042 -0.0022,0.966309 -0.06183,1.503784 -0.253132,2.278603 -0.644682,2.611182 -2.202296,4.778691 -4.452162,6.195429 -0.469725,0.295785 -1.333773,0.713198 -1.910661,0.923023 -1.350917,0.491351 -2.986128,0.689825 -4.401671,0.534257 z m 1.567745,-3.360094 c 0.117583,-0.03078 0.386822,-0.136348 0.598307,-0.234591 0.211487,-0.09824 0.430031,-0.178624 0.485656,-0.178624 0.05563,0 0.195439,0.04455 0.310702,0.099 0.225696,0.106618 0.323164,0.09257 0.403977,-0.05822 0.03155,-0.05887 0.01536,-0.114643 -0.07638,-0.263018 -0.06403,-0.103568 -0.18834,-0.38184 -0.276235,-0.618386 -0.28363,-0.763318 -0.685282,-1.488197 -0.974891,-1.759423 l -0.125245,-0.117295 -0.718629,-0.01216 c -0.888027,-0.01502 -0.989628,0.0077 -1.254378,0.279578 -0.228465,0.234685 -0.42156,0.595067 -0.760489,1.419338 -0.133884,0.325602 -0.3035247,0.683131 -0.3769804,0.794509 -0.1281349,0.194284 -0.1311494,0.207154 -0.074246,0.317034 0.074413,0.143695 0.1717375,0.146645 0.4015384,0.01216 0.146321,-0.08563 0.204293,-0.09835 0.354531,-0.07778 0.09878,0.01353 0.246291,0.06865 0.327795,0.12251 0.163593,0.108105 0.475717,0.238864 0.692795,0.290231 0.22805,0.05397 0.831505,0.04552 1.062175,-0.01487 z m 3.354464,-0.242179 c 0.253661,-0.156603 0.390593,-0.390204 0.44177,-0.753641 0.04778,-0.339298 0.04701,-0.337709 0.442895,-0.921089 0.843068,-1.242352 1.022617,-2.078068 0.97055,-4.517464 -0.01547,-0.724605 0.0089,-0.873173 0.150733,-0.918116 0.04433,-0.01405 0.09837,-0.05873 0.120107,-0.09927 0.0316,-0.05895 0.01589,-0.100597 -0.07835,-0.20778 -0.06483,-0.07372 -0.117867,-0.144076 -0.117867,-0.156331 0,-0.01225 0.153508,-0.09412 0.34113,-0.181913 0.187622,-0.0878 0.35378,-0.180065 0.369236,-0.20504 0.04043,-0.06532 -0.02755,-0.171912 -0.159148,-0.249536 -0.131463,-0.07754 -0.198828,-0.2033881 -0.198828,-0.3714257 0,-0.1757649 0.06634,-0.2683924 0.2505,-0.3497359 0.09102,-0.040205 0.199123,-0.1102081 0.240227,-0.1555614 0.07384,-0.081477 0.07342,-0.084892 -0.03528,-0.2855548 -0.09141,-0.1687383 -0.105233,-0.2294349 -0.08173,-0.3588152 0.06062,-0.333596 0.227474,-0.4944152 0.421429,-0.4061707 0.150357,0.06841 0.182478,0.1694137 0.242038,0.7611319 0.03148,0.3127659 0.0769,0.6425096 0.100935,0.7327623 0.05895,0.2213964 0.268458,0.6093835 0.35364,0.6549065 0.17346,0.0927 0.335599,-0.300109 0.426365,-1.032938 0.03472,-0.2802661 0.03078,-0.4521003 -0.02057,-0.8974192 C 20.049393,8.1238588 19.996053,7.82818 19.965781,7.7697237 19.893014,7.6292146 19.728938,7.5180415 19.544822,7.4844983 19.462663,7.4695289 19.050818,7.3527286 18.629616,7.2249414 17.719838,6.9489253 17.576248,6.9373132 17.287721,7.1164134 17.033471,7.2742371 16.819349,7.2817071 16.576419,7.1412305 15.913563,6.7579278 14.125093,5.850277 13.935521,5.8009693 13.671425,5.7322811 13.371103,5.7243117 13.174716,5.7807835 12.916615,5.855001 12.37201,5.937694 11.980761,5.9620751 11.633158,5.9837359 11.543073,5.9745026 11.178092,5.8798668 10.831843,5.7900828 10.705177,5.7754769 10.375372,5.7873076 L 9.9837778,5.8013609 8.6546775,6.5019247 C 7.1122889,7.3149118 7.060044,7.3313368 6.7165734,7.1112487 6.4385571,6.9331016 6.1612688,6.938318 5.6337159,7.1316179 4.9944752,7.365842 4.6819396,7.4617885 4.558222,7.4617885 c -0.2244529,0 -0.3856745,0.1003088 -0.4710727,0.2930898 C 3.8821743,8.2175932 3.8103198,9.2984777 3.948685,9.8377541 4.0841216,10.365615 4.276139,10.5209 4.4597612,10.251062 4.6238226,10.009971 4.7118889,9.6723658 4.7539036,9.1234723 c 0.021398,-0.2795537 0.057094,-0.5708038 0.079323,-0.647225 0.048312,-0.1660769 0.1740327,-0.3106867 0.270108,-0.3106867 0.106828,0 0.268014,0.1958962 0.3188516,0.3875128 0.042187,0.1590103 0.037295,0.1891754 -0.062675,0.3864798 L 5.2510779,9.1535591 5.4114604,9.2949105 c 0.2795629,0.246386 0.3108382,0.4170232 0.144338,0.7875045 -0.055825,0.124218 -0.095346,0.258376 -0.087822,0.298128 0.00969,0.05119 0.1306418,0.1179 0.4146294,0.228671 0.2205224,0.08602 0.4009985,0.167682 0.4010577,0.181479 7.84e-5,0.0138 -0.039534,0.03542 -0.087989,0.04804 -0.048453,0.01262 -0.1390015,0.06409 -0.2012162,0.11437 L 5.8813389,11.044519 6.002039,11.2109 c 0.2507411,0.345643 0.2770693,0.536269 0.222723,1.612632 -0.046498,0.920904 0.063398,1.835358 0.3106532,2.584979 0.1957747,0.593548 0.4226813,1.012374 0.8187015,1.511169 0.2379197,0.299664 0.217064,0.336038 0.3239702,-0.565019 0.1025024,-0.863931 0.1038461,-3.060186 0.00228,-3.731874 -0.1121908,-0.741985 -0.1575839,-1.132979 -0.1342391,-1.15629 0.012135,-0.01212 0.1075901,0.03931 0.2121136,0.114298 0.2949785,0.211617 0.5724459,0.305361 0.9531097,0.322011 0.2815932,0.01231 0.3117231,0.0081 0.1957732,-0.0273 C 8.4120203,11.724282 8.2211557,11.592639 8.176942,11.371889 8.140748,11.191172 8.0157189,11.145791 7.7701084,11.224222 7.6632776,11.258338 7.57587,11.269688 7.57587,11.249447 c 0,-0.06803 0.1904293,-0.412848 0.2994503,-0.542227 0.1382454,-0.164059 0.3107169,-0.234945 0.5704807,-0.234466 0.2537897,4.43e-4 0.4935488,0.106311 0.9255473,0.408588 0.3735722,0.261392 0.6811357,0.393615 1.0615027,0.456341 0.717056,0.11825 1.356258,-0.226077 1.509985,-0.813401 0.02717,-0.103815 0.05809,-0.162363 0.06871,-0.130107 0.110818,0.336601 0.179133,0.465822 0.321334,0.607818 0.495041,0.494334 1.496217,0.433079 2.271708,-0.13899 0.291724,-0.215201 0.664468,-0.391919 0.88056,-0.417475 0.227282,-0.02688 0.489075,0.08235 0.647243,0.270054 0.102865,0.122072 0.292405,0.467685 0.292405,0.533177 0,0.01987 -0.09011,0.0097 -0.200233,-0.02249 -0.220166,-0.06445 -0.387083,-0.02657 -0.387083,0.08783 0,0.105374 -0.108677,0.277355 -0.22314,0.35312 -0.06033,0.03993 -0.224202,0.111521 -0.364179,0.159094 -0.236106,0.08024 -0.244276,0.08672 -0.11302,0.0896 0.360011,0.0079 0.839177,-0.15705 1.134374,-0.390515 0.210441,-0.166434 0.220454,-0.118021 0.120293,0.581582 -0.138742,0.969067 -0.170846,1.40076 -0.170662,2.294792 1.48e-4,0.743147 0.06139,1.703976 0.15076,2.365453 0.04489,0.332267 -0.02976,0.125208 -0.220391,-0.611312 -0.414518,-1.601497 -0.923065,-2.823553 -1.470276,-3.53312 -0.2226,-0.288645 -0.623705,-0.666313 -0.843772,-0.794469 -0.270007,-0.157241 -0.594617,-0.256174 -0.991055,-0.302049 -0.575702,-0.06662 -0.606511,-0.07476 -0.745961,-0.197017 -0.122217,-0.107155 -0.135052,-0.110689 -0.156534,-0.0431 -0.03632,0.114261 -0.199304,0.167626 -0.687522,0.225111 -0.734129,0.08644 -1.073221,0.23758 -1.5521716,0.691836 -0.4778785,0.453239 -0.8619445,1.081442 -1.2485943,2.042278 -0.3990761,0.991718 -0.8940897,2.829185 -0.8092805,3.004015 0.022613,0.04662 0.052083,0.178863 0.065487,0.293877 0.013408,0.115015 0.051992,0.278051 0.08575,0.362301 0.076275,0.190356 0.3499581,0.435919 0.55381,0.496907 0.3405536,0.101885 1.0224779,0.009 1.1082519,-0.150917 0.016883,-0.03148 0.1305501,-0.31236 0.2525895,-0.624169 0.4288151,-1.095611 0.9133341,-1.974739 1.2402601,-2.250374 0.189595,-0.159848 0.49713,-0.290209 0.685654,-0.290643 0.113826,-2.95e-4 0.191151,-0.02509 0.244716,-0.07858 0.07414,-0.07403 0.07831,-0.130327 0.07831,-1.057034 0,-0.848732 -0.0087,-0.992088 -0.06543,-1.078543 -0.05576,-0.08497 -0.0572,-0.104904 -0.0098,-0.13487 0.07019,-0.04436 0.196329,-0.04524 0.264891,-0.0018 0.04349,0.02753 0.04179,0.05425 -0.0098,0.153854 -0.05212,0.100639 -0.06243,0.277796 -0.06243,1.072924 0,0.700237 0.01297,0.970051 0.04894,1.019129 0.03036,0.0414 0.14559,0.08207 0.303448,0.10711 0.303951,0.0482 0.516022,0.144081 0.737617,0.333487 0.432872,0.36999 0.891973,1.258975 1.254559,2.429286 0.092,0.296964 0.146325,0.411925 0.211122,0.446815 0.410559,0.221059 0.956199,0.241549 1.270191,0.0477 z m -4.510673,-4.823318 c -0.08215,-0.08562 -0.162414,-0.123526 -0.300238,-0.141783 -0.197519,-0.02617 -0.223954,-0.09324 -0.03675,-0.09324 0.141615,0 0.2287,-0.09982 0.260538,-0.298643 0.01408,-0.08786 0.04084,-0.184175 0.05948,-0.214021 0.05207,-0.08335 0.164384,0.0054 0.221249,0.174817 0.04237,0.126268 0.03835,0.161899 -0.034,0.300501 -0.05544,0.106218 -0.07454,0.194888 -0.05885,0.273239 0.01278,0.0638 0.01816,0.115993 0.01196,0.115993 -0.0062,0 -0.06172,-0.05259 -0.123397,-0.116865 z m 1.084169,-0.05647 c 0,-0.07404 -0.02819,-0.174804 -0.06265,-0.223926 -0.07905,-0.112699 -0.07958,-0.238581 -0.0017,-0.389074 0.09267,-0.178942 0.183517,-0.133772 0.245534,0.122077 0.06373,0.262952 0.0804,0.28094 0.289799,0.312812 0.178023,0.0271 0.169414,0.03295 -0.143034,0.0973 -0.05218,0.01074 -0.147324,0.06362 -0.211435,0.117481 l -0.116565,0.09794 V 13.465998 Z M 18.94925,8.7726874 C 18.9307,8.5503531 18.90614,8.4408912 18.87698,8.4505763 c -0.08234,0.027347 -0.0918,0.2366477 -0.01753,0.3878704 0.03918,0.079784 0.07124,0.1838836 0.07124,0.2313338 0,0.047448 0.01049,0.07579 0.02332,0.06298 0.01283,-0.012812 0.01068,-0.1748428 -0.0048,-0.3600727 z"/>

</svg>