<?xml version="1.0" encoding="UTF-8"?>
<svg width="24px" fill="#44739e" height="24px" viewBox="0 0 24 24" version="1.1" xmlns="http://www.w3.org/2000/svg" xmlns:xlink="http://www.w3.org/1999/xlink">
            <path d="M 12,2.5 A 9.5,9.5 0 1 0 21.5,12 9.5,9.5 0 0 0 12,2.5 Z M 7.172,6.752 v 0 A 7.1,7.1 0 0 1 11.7,4.882 V 4.875 h 0.6 v 0.007 a 7.1,7.1 0 0 1 4.526,1.874 v 0 l 0.2,0.2 q -0.1,-0.1 -0.2,-0.192 L 12.3,11.283 v -6.4 c -0.1,0 -0.2,-0.007 -0.3,-0.007 -0.1,0 -0.2,0 -0.3,0.007 v 6.4 L 7.177,6.756 q -0.1,0.095 -0.2,0.192 z m -0.42,10.076 v 0 A 7.1,7.1 0 0 1 4.882,12.3 H 4.875 V 11.7 H 4.882 A 7.1,7.1 0 0 1 6.756,7.177 v 0 l 0.2,-0.2 q -0.1,0.1 -0.192,0.2 l 4.519,4.523 h -6.4 c 0,0.1 -0.007,0.2 -0.007,0.3 0,0.1 0,0.2 0.007,0.3 h 6.4 l -4.527,4.523 q 0.095,0.1 0.192,0.2 z m 10.076,0.42 v 0 a 7.1,7.1 0 0 1 -4.528,1.87 v 0.007 H 11.7 V 19.118 A 7.1,7.1 0 0 1 7.174,17.244 v 0 l -0.2,-0.2 q 0.1,0.1 0.2,0.192 L 11.7,12.717 v 6.4 c 0.1,0 0.2,0.007 0.3,0.007 0.1,0 0.2,0 0.3,-0.007 v -6.4 l 4.526,4.527 q 0.1,-0.094 0.2,-0.192 z m 2.3,-4.951 h -0.007 a 7.1,7.1 0 0 1 -1.874,4.526 v 0 l -0.2,0.2 q 0.1,-0.1 0.192,-0.2 L 12.717,12.3 h 6.4 c 0,-0.1 0.007,-0.2 0.007,-0.3 0,-0.1 0,-0.2 -0.007,-0.3 h -6.4 l 4.527,-4.526 q -0.094,-0.1 -0.192,-0.2 l 0.2,0.2 v 0 a 7.1,7.1 0 0 1 1.866,4.526 h 0.007 v 0.6 z"></path>

</svg>
