<?xml version="1.0" encoding="UTF-8" standalone="no"?>
<svg
   role="img"
   viewBox="0 0 24 24"
   fill="#44739e"
   version="1.1"
   id="svg1"
   sodipodi:docname="more.svg"
   inkscape:version="1.3 (0e150ed6c4, 2023-07-21)"
   xmlns:inkscape="http://www.inkscape.org/namespaces/inkscape"
   xmlns:sodipodi="http://sodipodi.sourceforge.net/DTD/sodipodi-0.dtd"
   xmlns="http://www.w3.org/2000/svg"
   xmlns:svg="http://www.w3.org/2000/svg"
   xmlns:rdf="http://www.w3.org/1999/02/22-rdf-syntax-ns#"
   xmlns:cc="http://creativecommons.org/ns#"
   xmlns:dc="http://purl.org/dc/elements/1.1/">
  <title
     id="title1">MORE</title>
  <path
     id="path1"
     style="fill:#44739e;fill-opacity:1;stroke-width:0.301502"
     d="m 12.015736,-0.00432629 c -6.6330292,0 -12.00000019,5.36697099 -12.00000019,12.00000029 0,6.633029 5.36697099,12 12.00000019,12 6.633029,0 12,-5.366971 12,-12 0,-6.6330293 -5.366971,-12.00000029 -12,-12.00000029 z M 3.0914058,9.5836608 c 0.7236029,0 1.3565221,0.3616846 1.7183234,0.9345372 0.3618017,-0.5427024 1.0254598,-0.9345372 1.7189126,-0.9345372 1.145705,0 2.0798903,0.9347742 2.0798903,2.0804792 v 2.713514 H 7.9154317 v -2.683482 c 0,-0.753753 -0.6028863,-1.356757 -1.3867899,-1.356757 -0.7537531,0 -1.3572282,0.603004 -1.3873784,1.356757 v 2.65345 H 4.4781953 v -2.65345 c 0,-0.753753 -0.6028862,-1.386789 -1.3867895,-1.386789 -0.7537535,0 -1.3566397,0.603003 -1.3867898,1.356757 v 2.652861 H 1.0109267 V 11.66414 c 0,-1.145705 0.9347739,-2.0804792 2.0804791,-2.0804792 z m 8.9243302,0.030032 c 1.356756,0 2.442045,1.0852892 2.442045,2.4420462 0,1.356755 -1.085289,2.442634 -2.442045,2.442634 -1.356756,0 -2.4420454,-1.085879 -2.4420454,-2.442634 0,-1.356757 1.0852894,-2.4420462 2.4420454,-2.4420462 z m 5.457061,0 h 0.06065 v 0.7237222 h -0.03062 -0.03003 c -0.753753,0 -1.356757,0.603004 -1.356757,1.356757 v 2.65345 h -0.723721 v -2.65345 c 0,-1.145705 0.934773,-2.050329 2.080478,-2.0804792 z m 3.105703,0 c 1.356756,0 2.442045,1.0852892 2.442045,2.4420462 v 0.15075 h -1.175974 -2.984984 c 0.0603,0.904504 0.814409,1.598194 1.718913,1.598194 0.663302,0 1.266189,-0.391717 1.53754,-0.964569 l 0.633036,0.331534 c -0.391952,0.783903 -1.235922,1.326725 -2.170576,1.326725 -1.356756,0 -2.442046,-1.085879 -2.442046,-2.442634 0,-1.356757 1.08529,-2.4420462 2.442046,-2.4420462 z m 0,0.7237222 c -0.783904,0 -1.417058,0.512553 -1.658259,1.206006 h 3.286485 C 21.995675,10.849968 21.332253,10.337415 20.5785,10.337415 Z" />

</svg>
