<?xml version="1.0" encoding="UTF-8" standalone="no"?>
<svg
   id="Livello_1"
   data-name="Livello 1"
   viewBox="0 0 24 24"
   version="1.1"
   width="24"
   height="24"
   xmlns="http://www.w3.org/2000/svg"
   xmlns:svg="http://www.w3.org/2000/svg">
  <path id="Colore_riempimento_1" fill="#44739e" data-name="Colore riempimento 1" class="cls-1"
     d="m 20.134766,0.41210938 c -0.1175,-0.02 -0.235001,0.0582814 -0.375,0.23828124 -0.82,1.03999898 -1.629454,2.11914168 -2.439454,3.11914058 a 0.5,0.5 0 0 0 0,0.3808594 10.37,10.37 0 0 1 2,4.0996094 13.13,13.13 0 0 1 0.369141,3 12.12,12.12 0 0 1 -0.5,4.330078 c -0.17,0.5 -0.339063,1.010079 -0.539062,1.580078 l -1,-1.220703 c 0.519999,-0.709999 1.039062,-4.768985 0.789062,-5.708984 -0.479999,-1.8399984 -0.88922,-3.7407828 -2.199219,-5.0507815 l -2.759765,3.3398437 a 4.16,4.16 0 0 1 1.199219,2.6308598 4.26,4.26 0 0 1 -1.298829,3.759765 0.92,0.92 0 0 0 -0.490234,0.900391 v 1.089844 A 4.25,4.25 0 0 0 15.679688,13.630859 7,7 0 0 0 15.25,8.6308594 l 0.839844,-1 A 4.57,4.57 0 0 1 16.390625,8.2402344 12.14,12.14 0 0 1 17.089844,11 9,9 0 0 1 16.410156,15.279297 c -0.12,0.31 -0.320937,0.561563 -0.460937,0.851562 a 0.55,0.55 0 0 0 0,0.359375 c 0.399999,0.56 0.770938,0.990548 1.210937,1.560547 0.44,0.57 0.969454,1.090157 1.439453,1.660157 0.2,0.249999 0.319454,0.129687 0.439453,-0.07031 a 12.4,12.4 0 0 0 0.771485,-1.441406 18.74,18.74 0 0 0 0.759765,-2.439453 17,17 0 0 0 0.5,-4.048828 9.17,9.17 0 0 0 -0.201171,-2.0000005 c -0.17,-0.6999993 -0.159376,-1.4703913 -0.359375,-2.1503906 a 12.45,12.45 0 0 0 -1.179688,-3 c -0.31,-0.4899995 -0.279687,-0.5800004 0.07031,-1 0.209999,-0.2399998 0.430156,-0.4607034 0.660156,-0.7207031 0.429999,0.939999 0.909297,1.7910166 1.279297,2.7910156 A 13.16,13.16 0 0 1 22,8 a 21.11,21.11 0 0 1 0.339844,4.580078 15.25,15.25 0 0 1 -0.708985,4.359375 c -0.209999,0.61 -0.40039,1.220782 -0.65039,1.800781 a 15.6,15.6 0 0 1 -1,2.060547 c -0.21,0.3 -0.21,0.349844 0,0.589844 0.21,0.24 0.418672,0.48875 0.638672,0.71875 a 0.19,0.19 0 0 0 0.201171,0.05078 1.94,1.94 0 0 0 0.320313,-0.419922 c 0.42,-0.879999 0.88,-1.739922 1.25,-2.669922 a 16.45,16.45 0 0 0 0.728516,-2.5 16.53,16.53 0 0 0 0.521484,-3.730468 25.35,25.35 0 0 0 -0.191406,-4.0800784 20.8,20.8 0 0 0 -1.369141,-5 19.33,19.33 0 0 0 -1.570312,-2.99999998 c -0.14,-0.20999979 -0.2575,-0.32765626 -0.375,-0.34765524 z M 3.8613281,0.48046875 C 3.7350783,0.49171874 3.6099999,0.5940627 3.5,0.7890625 3.3800001,1.0090623 3.2391405,1.1999221 3.1191406,1.4199219 A 28.31,28.31 0 0 0 1.6796875,4.1796875 18.39,18.39 0 0 0 0.84960938,7 a 15.91,15.91 0 0 0 -0.51953126,3.599609 21.07,21.07 0 0 0 0.18945313,4.121094 17.16,17.16 0 0 0 0.66015625,3 c 0.2599997,0.629999 0.3896878,1.370001 0.6796875,2 0.3699996,0.819999 0.8314848,1.57961 1.2714844,2.349609 0.04,0.1 0.2089844,0.09961 0.2089844,0.09961 a 6.14,6.14 0 0 0 0.6503906,-0.769531 0.72,0.72 0 0 0 0.099609,-0.5 C 3.839844,20.380391 3.5392966,19.900859 3.2792969,19.380859 A 15.7,15.7 0 0 1 2,15.529297 16.69,16.69 0 0 1 1.6992188,11.050781 17.07,17.07 0 0 1 2.25,7.140625 23.59,23.59 0 0 1 3.25,4.2109375 C 3.4499998,3.730938 3.709219,3.2998433 3.9492188,2.8398438 4.1792185,3.0798435 4.3805471,3.270469 4.5605469,3.4804688 4.9205465,3.9004683 4.9491403,4.090313 4.6191406,4.5703125 A 10.43,10.43 0 0 0 3.5097656,7.3691406 12.75,12.75 0 0 0 3,10 a 13.57,13.57 0 0 0 0.099609,3.960938 23.65,23.65 0 0 0 0.6894531,3.109374 17.91,17.91 0 0 0 1,2.230469 1.62,1.62 0 0 0 0.2714844,0.439453 0.23,0.23 0 0 0 0.2695312,0 C 5.8500776,19.170235 6.4396098,18.5 6.8496094,18 7.259609,17.500001 7.6392973,17.000703 8.0292969,16.470703 a 0.55,0.55 0 0 0 0,-0.371094 4.63,4.63 0 0 1 -0.8398438,-2 A 8.32,8.32 0 0 1 7,10.25 9.54,9.54 0 0 1 7.9394531,7.5605469 l 0.8007813,1 A 17.39,17.39 0 0 0 8.1894531,10.560547 16.16,16.16 0 0 0 8.1191406,12.279297 6,6 0 0 0 8.5,14.179688 a 2.22,2.22 0 0 0 0.2402344,0.621093 4.18,4.18 0 0 0 2.1699216,2.06836 c 0.21,0.06 0.270313,0.05109 0.320313,-0.128907 A 3.25,3.25 0 0 1 11.160156,15.910156 0.9,0.9 0 0 0 10.75,15 3.58,3.58 0 0 1 9.4296875,12.070312 4.18,4.18 0 0 1 10.429688,8.8105469 a 0.5,0.5 0 0 0 0,-0.3808594 C 10.229688,8.1296878 10.009062,7.8598435 9.7890625,7.5898438 9.309063,6.9998443 8.8696089,6.4605462 8.3496094,5.8105469 c -0.5199995,-0.6499994 -0.6503129,-0.6899993 -1.0703125,0 A 8.77,8.77 0 0 0 5.9296875,9 16.52,16.52 0 0 0 5.5605469,11.759766 10.09,10.09 0 0 0 5.859375,14.029297 c 0.1599998,0.699999 0.3202345,1.350001 0.4902344,2 l -1,1.201172 c -0.2699998,-0.869999 -0.5700002,-1.610392 -0.75,-2.400391 A 13.51,13.51 0 0 1 4.3105469,12.519531 13.76,13.76 0 0 1 4.9101562,7.6503906 11.16,11.16 0 0 1 6.6894531,4.2109375 a 0.46,0.46 0 0 0 0,-0.3613281 C 6.2494536,3.2896099 5.7493746,2.6792183 5.359375,2.1992188 4.9693754,1.7192192 4.6004684,1.2207026 4.2304688,0.72070312 4.1154689,0.55070329 3.987578,0.46921876 3.8613281,0.48046875 Z M 12.130859,9.7890625 A 1.56,1.56 0 0 0 10.570312,11.140625 2.47,2.47 0 0 0 10.960938,13.300781 1.9,1.9 0 0 1 11.419922,14 a 6.26,6.26 0 0 1 0.160156,1.269531 c 0.08,1.699999 0.150703,3.399611 0.220703,5.09961 0.08,0.839999 0.08008,1.69125 0.08008,2.53125 a 1,1 0 0 0 0.169922,0.330078 l 0.08008,-0.13086 c 0.04,-0.599999 0.09961,-1.210547 0.09961,-1.810547 0.08,-1.909998 0.140469,-3.808751 0.230469,-5.71875 0.02,-0.549999 0.08844,-1.100391 0.148437,-1.65039 a 0.56,0.56 0 0 1 0.121094,-0.269531 c 0.18,-0.22 0.369062,-0.420391 0.539062,-0.650391 a 3.16,3.16 0 0 0 0.08008,-2.289062 1.66,1.66 0 0 0 -1.21875,-0.9218755 z" />
</svg>
