<svg xmlns="http://www.w3.org/2000/svg" viewBox="0 0 24 24"><path fill="#44739e" d="m10.59 12.516-.236-.237a1.427 1.427 0 0 1 0-2.006 1.423 1.423 0 0 1 1.958-.037V3.802c0-.955-.776-1.741-1.722-1.741H3.722C2.776 2.061 2 2.847 2 3.802v6.973c0 .955.776 1.741 1.722 1.741ZM7.156 2.781c.312 0 .577.264.577.586a.573.573 0 1 1-1.145 0 .58.58 0 0 1 .568-.586m0 6.253c-.946 0-1.722-.785-1.722-1.741s.776-1.75 1.722-1.75 1.722.785 1.722 1.75-.776 1.741-1.722 1.741m14.371 5.979h-1.239a4.64 4.64 0 0 0-1.032-2.545l.861-.861c.19-.189.19-.482 0-.671s-.482-.19-.671 0l-.852.851a4.73 4.73 0 0 0-2.554-1.078V9.535c0-.264-.208-.473-.473-.473s-.473.209-.473.473v1.183a4.8 4.8 0 0 0-2.574 1.06l-.823-.833c-.189-.189-.482-.189-.671 0s-.19.483 0 .672l.842.842a4.77 4.77 0 0 0-1.051 2.564H9.616c-.265 0-.473.208-.473.473s.208.473.473.473h1.211a4.73 4.73 0 0 0 1.078 2.535l-.87.871a.47.47 0 0 0 0 .671.46.46 0 0 0 .662 0l.88-.879c.71.567 1.571.936 2.526 1.031v1.267c0 .265.208.474.473.474s.473-.209.473-.474v-1.267a4.7 4.7 0 0 0 2.507-1.041l.899.899a.46.46 0 0 0 .662 0 .467.467 0 0 0 0-.672l-.898-.899c.577-.7.955-1.561 1.059-2.507h1.249c.265 0 .473-.208.473-.473s-.208-.492-.473-.492m-6.424-3.349v5.289l-.019 2.28c-1.892-.237-3.368-1.836-3.368-3.785 0-1.958 1.486-3.557 3.387-3.784"/></svg>