<svg xmlns="http://www.w3.org/2000/svg" viewBox="0 0 24 24"><path fill="#44739e" d="M14.443 15.556c-.027.018-.03.044-.02.188q.027.445.184.918c.069.214.112.267.221.273.106.007.178-.056.235-.204.048-.126.175-.612.21-.809.004-.018.009-.033.012-.033s.016.042.026.093c.041.194.133.553.173.673.045.142.088.215.143.253.033.021.046.025.105.025.06 0 .071-.003.104-.026.05-.035.08-.09.128-.236.111-.339.187-.741.187-.992 0-.131 0-.131-.109-.131-.105 0-.105 0-.112.141a3.8 3.8 0 0 1-.174.905 1 1 0 0 1-.043.116c-.013 0-.078-.222-.16-.552-.099-.395-.12-.447-.189-.483a.26.26 0 0 0-.155 0 .2.2 0 0 0-.087.105 6 6 0 0 0-.1.373c-.082.329-.148.557-.162.557a2.5 2.5 0 0 1-.118-.384 3.5 3.5 0 0 1-.099-.634c-.006-.144-.005-.143-.111-.143a.4.4 0 0 0-.089.007m-1.378.011c-.014.014-.015.027-.01.098a3.7 3.7 0 0 0 .32 1.143.26.26 0 0 0 .146.102l.045.014c.003.004-.048.098-.089.163-.086.133-.166.166-.357.147a.5.5 0 0 0-.116-.006c-.017.007-.019.134-.002.157.025.034.283.039.396.009a.43.43 0 0 0 .204-.117c.078-.08.211-.321.313-.563a4 4 0 0 0 .262-.951c.022-.184.022-.177.002-.196-.016-.015-.029-.018-.097-.018-.095 0-.113.012-.113.071 0 .191-.13.69-.261 1.007l-.043.104-.038.003q-.04.003-.05-.009a3 3 0 0 1-.135-.351 3.5 3.5 0 0 1-.163-.699c-.014-.125-.015-.127-.118-.127-.069 0-.082.003-.095.018Zm-6.498-.004-.019.012v.663c0 .501.003.663.011.671q.012.01.095.01c.078 0 .087-.002.098-.019.013-.017.014-.096.014-.669 0-.758.013-.683-.107-.683-.052 0-.078.005-.092.014Zm-1.434.003-.02.014.024.105c.108.461.325 1.043.434 1.168.047.052.074.066.134.066s.09-.014.131-.063c.112-.13.347-.761.442-1.184l.021-.091-.021-.016c-.029-.025-.165-.025-.187 0a1 1 0 0 0-.051.15 9 9 0 0 1-.328.937c-.006.013-.025-.026-.079-.163a7 7 0 0 1-.268-.795.6.6 0 0 0-.044-.129c-.022-.025-.158-.025-.188 0Zm15.265-.026a.54.54 0 0 0-.422.35c-.088.221-.076.565.027.763a.6.6 0 0 0 .225.217.6.6 0 0 0 .293.065c.133.004.271-.013.39-.051.082-.025.086-.029.086-.121 0-.094-.007-.098-.091-.071a1.04 1.04 0 0 1-.446.045q-.194-.033-.269-.174a.7.7 0 0 1-.059-.208v-.029h.449c.535 0 .495.009.495-.109q0-.153-.046-.288a.5.5 0 0 0-.146-.241.5.5 0 0 0-.24-.139 1 1 0 0 0-.246-.009m.159.202c.164.027.256.13.295.333l.012.059h-.733l.005-.041a.5.5 0 0 1 .141-.286c.056-.043.102-.058.217-.073Zm-.892-.202a.5.5 0 0 0-.194.066l-.073.039v-.033c0-.052-.018-.062-.106-.062-.06 0-.077.003-.088.016-.014.014-.015.073-.015.668q0 .651.009.669c.009.015.019.018.095.018.072 0 .088-.003.099-.016.013-.016.015-.066.015-.55v-.534l.064-.031a.7.7 0 0 1 .231-.062c.106-.009.098-.001.098-.095 0-.106-.002-.107-.135-.093m-1.424 0a.52.52 0 0 0-.404.3 1 1 0 0 0-.057.149c-.035.149-.034.367.003.514a.56.56 0 0 0 .397.413c.072.02.261.026.358.013.113-.014.267-.056.282-.075a.3.3 0 0 0 .012-.092c0-.062-.003-.077-.014-.081a.4.4 0 0 0-.108.021 1 1 0 0 1-.298.043c-.251 0-.382-.095-.431-.311l-.014-.084v-.023h.449c.447 0 .448 0 .472-.02l.024-.018-.005-.115a.74.74 0 0 0-.138-.436.56.56 0 0 0-.288-.188 1 1 0 0 0-.239-.01Zm.202.212a.33.33 0 0 1 .195.163 1 1 0 0 1 .057.191l.005.028h-.734l.006-.033a.5.5 0 0 1 .119-.271c.082-.083.214-.113.352-.079Zm-6.124-.21a1 1 0 0 0-.229.07l-.055.025c-.002 0-.004-.013-.004-.029 0-.047-.02-.058-.106-.058-.052 0-.079.004-.093.014l-.02.012v.659c0 .587.002.659.014.671.02.02.171.02.191 0 .012-.012.014-.073.014-.548 0-.418.003-.538.011-.544.018-.015.139-.061.198-.078a.6.6 0 0 1 .13-.015c.136 0 .206.04.247.14l.021.051.002.489c.001.434.005.489.017.503.011.013.029.016.098.016q.082 0 .096-.011c.006-.007.009-.129.009-.493 0-.401-.003-.494-.013-.55-.05-.252-.232-.363-.527-.325Zm-3.541-.001c-.125.018-.209.056-.268.122a.32.32 0 0 0-.04.349.6.6 0 0 0 .085.105c.053.052.099.085.228.16.204.122.279.171.308.207.073.085.034.209-.078.247a.6.6 0 0 1-.235.015 2 2 0 0 1-.185-.05c-.153-.05-.154-.05-.157.043-.004.087.009.102.123.142.206.074.451.076.599.006a.35.35 0 0 0 .154-.143.4.4 0 0 0 .031-.227c-.024-.142-.093-.212-.391-.39a3 3 0 0 1-.242-.158c-.078-.079-.064-.179.028-.221.036-.017.057-.019.163-.019a.6.6 0 0 1 .321.072c.09.04.097.036.101-.053a.3.3 0 0 0-.007-.086c-.014-.025-.158-.093-.231-.108a1.2 1.2 0 0 0-.307-.014Zm-1.261.005a.5.5 0 0 0-.286.156c-.125.134-.186.343-.173.598.013.278.115.471.298.565.112.058.159.068.336.069a1 1 0 0 0 .355-.051c.083-.024.092-.034.088-.124-.002-.09-.009-.093-.108-.064a.9.9 0 0 1-.3.046c-.173 0-.255-.024-.336-.1a.43.43 0 0 1-.121-.278l-.004-.035.458-.003.458-.002.017-.022c.018-.021.018-.03.013-.12-.013-.225-.072-.377-.192-.496a.5.5 0 0 0-.228-.131.8.8 0 0 0-.275-.008m.188.197q.22.039.278.302l.014.075c0 .013-.041.014-.362.014h-.362v-.02c0-.011.007-.05.017-.087.041-.162.124-.252.256-.281a.35.35 0 0 1 .159-.003m-3.408-.201c-.231.035-.408.202-.474.449a1 1 0 0 0-.022.218c-.005.193.01.281.077.414a.54.54 0 0 0 .523.315c.294 0 .504-.167.581-.461a.7.7 0 0 0 .024-.233.8.8 0 0 0-.051-.332.56.56 0 0 0-.389-.358.9.9 0 0 0-.269-.012m.237.226q.164.051.23.249c.032.093.039.26.017.372-.035.178-.117.28-.261.323a.5.5 0 0 1-.269-.01c-.104-.038-.185-.143-.224-.288a1 1 0 0 1 .001-.358c.044-.158.125-.252.255-.293a.6.6 0 0 1 .251.005m16.986-.497v.217h.079l.002-.167.002-.168.03.078.063.169.035.089.032-.002.031-.003.062-.161.061-.162.003.163.002.165H22v-.436h-.061q-.06 0-.064.01a7 7 0 0 1-.109.28 1 1 0 0 1-.064-.143l-.055-.147h-.127Zm-.445-.184v.035h.139v.366h.079v-.366h.139v-.069h-.357Zm-4.625-.024a38 38 0 0 0 0 1.846c.006.008.041.011.094.011.07 0 .087-.003.099-.015.012-.015.015-.067.015-.567v-.55l.076-.023c.156-.047.328-.054.4-.016.05.026.092.078.113.139.016.047.018.085.022.534.003.416.006.483.017.49a.4.4 0 0 0 .093.009c.061 0 .084-.004.094-.014.012-.012.014-.068.014-.484 0-.526-.003-.56-.057-.669q-.121-.25-.488-.214a1.3 1.3 0 0 0-.269.058c-.015.007-.016-.009-.016-.255 0-.228-.001-.265-.014-.276-.017-.018-.177-.02-.193-.004m-5.726.001c-.081.026-.126.083-.23.292-.144.291-.242.592-.393 1.222-.086.364-.09.342.044.342.073 0 .087-.003.1-.017.009-.01.04-.123.085-.303a9 9 0 0 1 .073-.292c.003-.004.177-.008.388-.008h.383l.009.032.071.291c.034.141.068.266.075.278.011.017.019.019.1.019.092 0 .112-.009.112-.047 0-.049-.164-.71-.231-.932-.107-.351-.264-.706-.36-.812a.22.22 0 0 0-.225-.065Zm.153.394c.075.148.118.257.185.462l.052.159a11 11 0 0 1-.646-.006c0-.014.081-.259.119-.355.057-.148.086-.216.145-.323l.053-.1.016.021c.009.011.043.075.076.142m-8.72-.388c-.051.027-.091.092-.104.167a7 7 0 0 0-.044.512A22 22 0 0 0 2 16.41c0 .57-.013.509.112.509.063 0 .08-.003.091-.016.012-.013.014-.086.018-.595.005-.618.019-.926.041-.902.003.003.082.165.173.356.178.371.212.432.257.459a.16.16 0 0 0 .144 0c.061-.038.074-.062.321-.583a4 4 0 0 1 .119-.238c.002 0 .007.035.011.076.017.226.023.405.028.889.005.469.007.533.019.543.009.008.043.011.094.011.066 0 .082-.003.093-.016.013-.014.015-.057.015-.434 0-.698-.03-1.191-.08-1.305-.052-.124-.193-.146-.288-.046a6 6 0 0 0-.208.413c-.102.214-.188.391-.191.395a7 7 0 0 1-.189-.379 10 10 0 0 0-.203-.413.2.2 0 0 0-.138-.08.1.1 0 0 0-.081.016m4.396-.017c-.011.014-.014.044-.014.129 0 .149 0 .148.118.148q.086 0 .099-.01.01-.01.011-.135c0-.156.003-.151-.114-.151-.079 0-.087.001-.1.019m4.84-8.457a1 1 0 0 0-.346.148c-.13.085-.236.181-.382.345-.274.313-.541.726-.856 1.325a2 2 0 0 1-.075.133c-.003 0-.038-.092-.078-.204a9 9 0 0 0-.402-.992c-.188-.377-.358-.567-.563-.631a.55.55 0 0 0-.292.002c-.208.071-.362.26-.484.594-.192.521-.353 1.407-.542 2.981-.176 1.456-.248 2.337-.237 2.875.004.259.016.367.055.503.069.247.229.374.45.361a.3.3 0 0 0 .144-.042.5.5 0 0 0 .16-.121c.185-.187.358-.503.718-1.311.133-.299.722-1.675.722-1.687 0-.008-.258-.75-.302-.869l-.015-.039-.012.024c-.023.044-.264.601-.532 1.227a43 43 0 0 1-.693 1.572l-.035.074.004-.083.014-.24c.031-.548.121-1.415.258-2.506.139-1.098.261-1.814.383-2.244.038-.128.096-.298.109-.312.009-.009.086.133.148.271.13.289.235.565.558 1.482.397 1.135.597 1.636.854 2.144.225.446.406.716.632.942.159.159.309.26.475.32a.88.88 0 0 0 .599.005c.508-.173.942-.793 1.459-2.086.139-.349.254-.66.496-1.342.335-.946.483-1.32.625-1.593.032-.06.066-.122.078-.139l.021-.03.014.034c.122.284.243.819.357 1.559.121.793.298 2.283.363 3.072.021.253.043.613.043.68v.048l-.027-.052c-.087-.165-.286-.621-.699-1.584a47 47 0 0 0-.557-1.277q-.006-.005-.015.017c-.211.59-.308.862-.308.873 0 .013.36.855.62 1.456.223.512.424.945.521 1.123.128.238.222.375.326.48.061.06.09.082.152.113a.4.4 0 0 0 .356.002c.309-.154.363-.59.243-1.984a63 63 0 0 0-.306-2.671c-.183-1.314-.374-2.064-.611-2.383a.63.63 0 0 0-.344-.246.6.6 0 0 0-.246.005c-.322.092-.569.48-.94 1.476l-.101.276c-.006.018-.014.033-.018.033a.5.5 0 0 1-.052-.089c-.443-.835-.818-1.355-1.167-1.618a1.3 1.3 0 0 0-.366-.188 1 1 0 0 0-.354-.012m.252.668c.266.117.704.761 1.22 1.794l.162.323-.127.341c-.235.635-.386 1.002-.564 1.361-.247.498-.484.825-.666.918a.3.3 0 0 1-.226.013c-.293-.104-.661-.682-1.059-1.669a22 22 0 0 1-.296-.779l-.049-.138.126-.26c.495-1.005.935-1.681 1.212-1.865.101-.067.178-.078.266-.04Z"/></svg>