<?xml version="1.0" encoding="UTF-8" standalone="no"?>
<!-- Created with Inkscape (http://www.inkscape.org/) -->

<svg
   width="24"
   height="24"
   viewBox="0 0 24 24"
   version="1.1"
   xmlns="http://www.w3.org/2000/svg"
   xmlns:svg="http://www.w3.org/2000/svg">
     <path
       id="path36"
       style="fill:#44739e"
       d="m 14.815199,16.096595 c -0.03229,0.0214 -0.0352,0.0513 -0.02431,0.216249 0.02213,0.343928 0.09245,0.693906 0.212147,1.057961 0.08044,0.247379 0.128733,0.306703 0.255435,0.314757 0.121621,0.0084 0.204093,-0.06437 0.270528,-0.235333 0.0553,-0.144807 0.201118,-0.703964 0.2423,-0.932244 0.004,-0.01995 0.01017,-0.03719 0.01416,-0.03719 0.003,0 0.01705,0.04826 0.02903,0.107616 0.04724,0.222235 0.153768,0.636583 0.199122,0.774365 0.05232,0.163927 0.101555,0.248395 0.165888,0.291645 0.03726,0.02504 0.05232,0.0283 0.119698,0.0283 0.06941,0 0.08138,-0.003 0.119626,-0.03011 0.05838,-0.03922 0.09256,-0.103557 0.147854,-0.271544 0.127754,-0.38919 0.215232,-0.852809 0.215232,-1.143442 0,-0.14985 9.62e-4,-0.14887 -0.124705,-0.14887 -0.122674,0 -0.122674,-10e-4 -0.129676,0.160916 -0.01488,0.302711 -0.08948,0.6919 -0.200139,1.042882 -0.02323,0.07344 -0.04521,0.13374 -0.04924,0.13374 -0.01597,0 -0.08948,-0.255433 -0.185117,-0.636586 -0.113567,-0.454567 -0.137769,-0.513891 -0.218209,-0.556135 -0.0352,-0.01778 -0.141794,-0.01778 -0.177968,0.001 -0.03722,0.01923 -0.07641,0.06538 -0.100612,0.120642 -0.01125,0.02504 -0.06328,0.218208 -0.115563,0.429424 -0.0935,0.379138 -0.170024,0.641615 -0.18606,0.641615 -0.01125,0 -0.09659,-0.275572 -0.135737,-0.442489 -0.0664,-0.277568 -0.103589,-0.519932 -0.113675,-0.729109 -0.0069,-0.166939 -0.0058,-0.16596 -0.127753,-0.16596 -0.05021,0 -0.09648,0.004 -0.102541,0.0084 z m -1.587952,0.01197 c -0.01597,0.01706 -0.01705,0.03229 -0.01125,0.11364 0.01416,0.207177 0.08853,0.558145 0.17797,0.836709 0.05635,0.179022 0.152825,0.423394 0.190087,0.480714 0.03411,0.05428 0.09753,0.09858 0.16792,0.117666 0.02721,0.0072 0.05028,0.01416 0.05232,0.01597 0.004,0.004 -0.0553,0.112624 -0.102615,0.187077 -0.09851,0.153877 -0.19201,0.192083 -0.411271,0.168935 -0.06538,-0.0072 -0.125648,-0.01017 -0.133704,-0.0058 -0.01995,0.0072 -0.02141,0.153877 -0.0019,0.181016 0.02794,0.03821 0.325824,0.04424 0.456581,0.01017 0.08749,-0.02323 0.173943,-0.07242 0.234245,-0.134756 0.09053,-0.09252 0.243461,-0.369074 0.360112,-0.648651 0.139763,-0.333878 0.267443,-0.7985 0.302674,-1.096179 0.02431,-0.212185 0.02431,-0.20315 0.0019,-0.225283 -0.01814,-0.01814 -0.03337,-0.02104 -0.111644,-0.02104 -0.109648,0 -0.130765,0.01414 -0.130765,0.08247 0,0.219224 -0.148797,0.794476 -0.299627,1.15953 l -0.05033,0.120678 -0.04422,0.003 c -0.02903,0.002 -0.04924,-0.002 -0.05635,-0.01125 -0.01923,-0.02213 -0.09648,-0.224267 -0.155908,-0.404279 -0.0985,-0.298902 -0.164944,-0.584527 -0.187948,-0.804759 -0.01597,-0.143827 -0.01705,-0.145823 -0.135845,-0.145823 -0.07939,0 -0.09445,0.003 -0.110591,0.01996 z m -7.4852083,-0.004 -0.022132,0.01488 v 0.762289 c 0,0.578261 0.00299,0.764314 0.012336,0.773366 0.00762,0.0084 0.047241,0.01197 0.1095391,0.01197 0.090527,0 0.099634,-0.002 0.1136755,-0.02213 0.014151,-0.02032 0.015965,-0.109612 0.015965,-0.769336 0,-0.874932 0.014151,-0.787438 -0.123726,-0.787438 -0.059324,0 -0.089474,0.0051 -0.1056204,0.01597 z m -1.6522782,0.003 -0.023222,0.01778 0.027938,0.119699 c 0.1247056,0.531995 0.3741167,1.20177 0.4998818,1.345579 0.0533,0.06037 0.085447,0.07644 0.1548569,0.07644 0.068358,0 0.1025362,-0.01597 0.1498499,-0.07242 0.1287331,-0.149886 0.4002225,-0.876999 0.5098525,-1.364744 l 0.02431,-0.103589 -0.02431,-0.01887 c -0.034106,-0.0283 -0.1910314,-0.0283 -0.216212,0 -0.00943,0.01017 -0.035195,0.08849 -0.057291,0.172962 -0.051341,0.201118 -0.1981429,0.637591 -0.2936768,0.875936 -0.041291,0.102572 -0.079497,0.195095 -0.084467,0.204166 -0.00762,0.01306 -0.029027,-0.03011 -0.09147,-0.188056 -0.1327604,-0.330868 -0.2343173,-0.633572 -0.3087343,-0.916171 -0.01923,-0.0714 -0.042234,-0.138783 -0.051341,-0.148834 -0.025035,-0.0283 -0.1820332,-0.0283 -0.2162119,0 z m 17.5851085,-0.02903 c -0.224267,0.0352 -0.397254,0.178005 -0.486729,0.40327 -0.101555,0.254454 -0.08755,0.651665 0.03229,0.87895 0.04724,0.09053 0.164944,0.204167 0.258446,0.249412 0.110592,0.05428 0.17797,0.06839 0.336853,0.07442 0.152935,0.0058 0.312762,-0.01487 0.449572,-0.05729 0.09455,-0.02903 0.09858,-0.03411 0.09858,-0.140816 0,-0.107579 -0.0069,-0.112622 -0.103589,-0.08149 -0.162912,0.05432 -0.379204,0.07543 -0.513895,0.05229 -0.148906,-0.02613 -0.252495,-0.09252 -0.310765,-0.200138 -0.03011,-0.05631 -0.06742,-0.188056 -0.06742,-0.240341 v -0.03301 h 0.516869 c 0.616522,0 0.56919,0.01017 0.56919,-0.125722 0,-0.118683 -0.01705,-0.227279 -0.05127,-0.331847 -0.04223,-0.124705 -0.08044,-0.189071 -0.168971,-0.277567 -0.08044,-0.08044 -0.173943,-0.134756 -0.275536,-0.158884 -0.06737,-0.01597 -0.212147,-0.02213 -0.283589,-0.01125 z m 0.182977,0.231269 c 0.189145,0.0312 0.294729,0.150866 0.339938,0.384164 l 0.01306,0.06839 h -0.42242 -0.421445 l 0.0058,-0.04826 c 0.01814,-0.127717 0.09053,-0.274555 0.161932,-0.328835 0.06538,-0.04927 0.118646,-0.06737 0.250354,-0.08446 0.0058,0 0.03821,0.004 0.07239,0.0091 z m -1.027793,-0.233278 c -0.06031,0.0058 -0.142738,0.03411 -0.223214,0.07746 l -0.08352,0.04424 v -0.03821 c 0,-0.05935 -0.02141,-0.0714 -0.122711,-0.0714 -0.07035,0 -0.08853,0.003 -0.101555,0.01814 -0.01597,0.01705 -0.01705,0.08548 -0.01705,0.770341 0,0.4988 0.003,0.758262 0.01017,0.771335 0.01017,0.01705 0.02213,0.01923 0.109648,0.01923 0.08247,0 0.101555,-0.003 0.114618,-0.01814 0.01488,-0.01705 0.01706,-0.07543 0.01706,-0.633567 v -0.61446 l 0.07343,-0.0352 c 0.0865,-0.04122 0.174923,-0.06538 0.266501,-0.07242 0.121622,-0.0091 0.112623,-9.58e-4 0.112623,-0.109611 0,-0.121659 -0.003,-0.123727 -0.155908,-0.107581 z m -1.63922,10e-4 c -0.145821,0.0243 -0.253438,0.07746 -0.349916,0.174994 -0.05337,0.05431 -0.07746,0.08951 -0.116759,0.170967 -0.02685,0.05631 -0.05627,0.13374 -0.06528,0.171946 -0.04126,0.170967 -0.0402,0.422373 0.003,0.591327 0.0623,0.242372 0.227241,0.41434 0.458595,0.476689 0.08142,0.02213 0.299699,0.02903 0.411271,0.01488 0.129821,-0.01705 0.308733,-0.06538 0.324879,-0.08747 0.0076,-0.01125 0.01306,-0.04927 0.01306,-0.105581 0,-0.0714 -0.003,-0.08849 -0.01597,-0.09354 -0.0087,-0.003 -0.0644,0.0072 -0.123726,0.02431 -0.131708,0.03719 -0.219259,0.05025 -0.342913,0.05025 -0.288669,0 -0.44045,-0.109613 -0.496805,-0.359024 -0.0087,-0.0402 -0.01597,-0.08345 -0.01597,-0.09756 v -0.02613 h 0.516968 c 0.514853,0 0.515908,0 0.544038,-0.02213 l 0.02721,-0.02141 -0.0051,-0.131744 c -0.0076,-0.209174 -0.05943,-0.369071 -0.158994,-0.50182 -0.07438,-0.09956 -0.20812,-0.186061 -0.332826,-0.217228 -0.06433,-0.01488 -0.213201,-0.02213 -0.274555,-0.01197 z m 0.231378,0.244367 c 0.08639,0.02104 0.180945,0.09956 0.225211,0.187078 0.01995,0.03922 0.05326,0.151845 0.06538,0.220239 l 0.0058,0.03301 h -0.42335 -0.422406 l 0.0069,-0.03821 c 0.02431,-0.143827 0.06843,-0.245383 0.136789,-0.312761 0.09455,-0.09554 0.247379,-0.129713 0.405316,-0.08951 z m -7.053789,-0.242371 c -0.08352,0.01125 -0.191031,0.04325 -0.264469,0.08048 -0.03229,0.01597 -0.06037,0.02903 -0.06335,0.02903 -0.003,0 -0.0048,-0.01488 -0.0048,-0.03302 0,-0.05432 -0.02323,-0.06737 -0.121621,-0.06737 -0.06037,0 -0.09151,0.004 -0.107617,0.01597 l -0.02213,0.01488 v 0.758261 c 0,0.675812 0.0019,0.759286 0.01597,0.773368 0.02213,0.02322 0.197091,0.02322 0.21926,0 0.01415,-0.01416 0.01597,-0.08447 0.01597,-0.631561 0,-0.481715 0.003,-0.619498 0.01306,-0.626533 0.02104,-0.01705 0.159827,-0.07039 0.228294,-0.08951 0.03716,-0.01017 0.10254,-0.01705 0.150794,-0.01705 0.154856,-9.62e-4 0.236348,0.04524 0.283589,0.160916 l 0.02322,0.05831 0.003,0.563175 c 0.0019,0.500814 0.0051,0.564175 0.01923,0.580267 0.01306,0.01488 0.03339,0.01814 0.113676,0.01814 0.06132,0 0.100612,-0.004 0.108669,-0.01197 0.0087,-0.0091 0.01197,-0.14887 0.01197,-0.568202 0,-0.461604 -0.003,-0.570214 -0.01488,-0.634577 -0.0583,-0.288669 -0.26748,-0.417394 -0.607422,-0.373148 z m -4.0799513,-0.001 c -0.1438995,0.02032 -0.240413,0.06437 -0.3087343,0.140779 -0.092559,0.102604 -0.1107003,0.264469 -0.045318,0.401264 0.012336,0.02504 0.056348,0.08044 0.09753,0.121658 0.061319,0.06037 0.1136754,0.09756 0.262473,0.185044 0.2343174,0.1398 0.3219052,0.197127 0.3550318,0.237366 0.083524,0.09858 0.038206,0.241355 -0.090526,0.285621 -0.067305,0.02323 -0.1870039,0.0312 -0.2704553,0.01705 -0.038316,-0.0058 -0.133849,-0.03229 -0.2132005,-0.05831 -0.1760827,-0.05729 -0.177026,-0.05729 -0.1810535,0.05028 -0.00399,0.10058 0.010161,0.116651 0.141795,0.162912 0.238381,0.08446 0.5209043,0.08748 0.6909167,0.0069 0.070389,-0.03302 0.1458224,-0.103596 0.1770261,-0.164951 0.037154,-0.07344 0.051268,-0.173979 0.036283,-0.261493 -0.028302,-0.163919 -0.1086692,-0.243344 -0.451586,-0.448525 -0.1327605,-0.07942 -0.2584457,-0.161932 -0.2785829,-0.182033 -0.089474,-0.09151 -0.07438,-0.206162 0.032292,-0.255435 0.041181,-0.01923 0.065382,-0.02213 0.1880561,-0.02213 0.1568526,0 0.2182076,0.01415 0.3700857,0.08345 0.1035893,0.04626 0.1115347,0.04223 0.1155622,-0.06132 0.00192,-0.04422 -0.00193,-0.0865 -0.00762,-0.09858 -0.015965,-0.02903 -0.1820332,-0.1066 -0.2665006,-0.124706 -0.088422,-0.01887 -0.272451,-0.02721 -0.352891,-0.01488 z m -1.4522086,0.0051 c -0.1408154,0.0283 -0.2363492,0.08047 -0.3289077,0.180001 -0.1458226,0.154858 -0.2151598,0.395227 -0.2011182,0.688878 0.015965,0.3198 0.1337039,0.542061 0.344945,0.651673 0.1277896,0.06636 0.1830853,0.07743 0.3862099,0.07845 0.1829765,0 0.2473792,-0.0091 0.4103093,-0.05729 0.094554,-0.0283 0.1045683,-0.04122 0.1005411,-0.143826 -0.00362,-0.10359 -0.010161,-0.106601 -0.1256853,-0.07344 -0.1478543,0.04423 -0.20315,0.05229 -0.3449449,0.05331 -0.1981429,0 -0.2936768,-0.0283 -0.3862136,-0.115671 -0.075361,-0.0714 -0.12271,-0.180002 -0.1397632,-0.318821 l -0.00508,-0.04223 0.5279142,-0.003 0.5280013,-0.003 0.019956,-0.02504 c 0.01923,-0.02322 0.020318,-0.03411 0.01415,-0.137767 -0.014155,-0.258458 -0.08244,-0.434429 -0.2211872,-0.571202 -0.077465,-0.07641 -0.1599366,-0.12369 -0.262473,-0.150829 -0.08044,-0.02104 -0.2363492,-0.02613 -0.3167893,-0.01017 z M 7.052474,16.3109 c 0.1699146,0.0312 0.2745555,0.144843 0.320853,0.347957 0.00871,0.0402 0.015965,0.07942 0.015965,0.08747 0,0.01416 -0.047241,0.01597 -0.4173192,0.01597 h -0.417294 v -0.02323 c 0,-0.01306 0.00871,-0.0583 0.01923,-0.09956 0.048184,-0.187076 0.1427747,-0.291644 0.2946201,-0.324843 0.079497,-0.01705 0.1105914,-0.01778 0.1840287,-0.004 z M 3.1273724,16.079717 c -0.2665005,0.04122 -0.4696397,0.233338 -0.5460566,0.516921 -0.017162,0.06233 -0.023148,0.118682 -0.026124,0.251406 -0.00573,0.223252 0.011974,0.323829 0.088524,0.476683 0.1186499,0.239324 0.3238136,0.363046 0.6024081,0.363046 0.3388857,0 0.581287,-0.192083 0.6707578,-0.53099 0.023222,-0.0865 0.026124,-0.116651 0.026124,-0.268496 0,-0.184029 -0.010161,-0.256451 -0.05838,-0.38215 -0.077465,-0.208193 -0.2494112,-0.365064 -0.4485156,-0.412323 -0.084467,-0.01923 -0.2293465,-0.02613 -0.3087342,-0.01415 z m 0.2725598,0.260478 c 0.1256853,0.03922 0.2132005,0.13374 0.2644688,0.286601 0.036283,0.107617 0.045246,0.300681 0.019956,0.428419 -0.041182,0.206162 -0.1357357,0.322812 -0.3006794,0.373108 -0.089474,0.02613 -0.2232146,0.02213 -0.3107662,-0.01197 -0.1186462,-0.04424 -0.2121519,-0.164944 -0.2564282,-0.331883 -0.024238,-0.09053 -0.024238,-0.320817 9.603e-4,-0.412323 0.049338,-0.182033 0.1438196,-0.29063 0.292708,-0.337907 0.065382,-0.01996 0.2132004,-0.01705 0.2896493,0.0058 z M 22.967173,15.766972 v 0.251408 h 0.04521 0.04528 l 0.0019,-0.193064 0.003,-0.193064 0.03411,0.08951 c 0.01814,0.05028 0.05134,0.136788 0.07343,0.194116 l 0.0402,0.10359 0.03628,-0.003 0.03629,-0.003 0.07144,-0.186061 0.07039,-0.18606 0.003,0.188056 0.0019,0.189072 h 0.04521 0.04521 v -0.251483 -0.251407 h -0.06933 c -0.04626,0 -0.07046,0.004 -0.07453,0.01197 -0.0019,0.0069 -0.03011,0.08044 -0.0623,0.163928 -0.03229,0.08247 -0.06132,0.153877 -0.06433,0.158884 -0.004,0.004 -0.03628,-0.06941 -0.07249,-0.163928 l -0.06413,-0.171003 h -0.07239 -0.07343 z M 22.45424,15.555804 v 0.0402 h 0.08044 0.08044 v 0.211205 0.211168 h 0.04528 0.04521 v -0.211168 -0.211205 h 0.08044 0.08044 v -0.0402 -0.04024 H 22.6604 22.454166 Z m -5.327968,-0.0283 c -0.01705,0.01705 -0.01705,2.110895 0,2.127991 0.0076,0.0084 0.04724,0.01197 0.10856,0.01197 0.08149,0 0.100612,-0.003 0.113676,-0.01778 0.01487,-0.01705 0.01705,-0.07644 0.01705,-0.652674 v -0.633666 l 0.08853,-0.02613 c 0.17895,-0.05432 0.377093,-0.06233 0.460613,-0.01887 0.05729,0.02903 0.106564,0.09052 0.130655,0.159899 0.01814,0.05428 0.01923,0.09756 0.02431,0.614462 0.004,0.479704 0.0069,0.55714 0.01995,0.565184 0.0076,0.0051 0.05635,0.01017 0.107616,0.01017 0.07046,0 0.09554,-0.004 0.107617,-0.01597 0.01415,-0.01415 0.01597,-0.07845 0.01597,-0.55714 0,-0.606421 -0.003,-0.644642 -0.06538,-0.77135 -0.09455,-0.193064 -0.278583,-0.272523 -0.562184,-0.245384 -0.100612,0.01017 -0.259498,0.04325 -0.309714,0.06538 -0.01706,0.0084 -0.01814,-0.01017 -0.01814,-0.293676 0,-0.261457 -0.0019,-0.304707 -0.01597,-0.317769 -0.01995,-0.02032 -0.204093,-0.02322 -0.223214,-0.004 z m -6.596145,0.0019 c -0.09361,0.03011 -0.144843,0.09554 -0.265557,0.336889 -0.165887,0.334894 -0.2775313,0.681849 -0.4515853,1.406928 -0.100538,0.419368 -0.10359,0.394228 0.04934,0.394228 0.08446,0 0.100538,-0.003 0.115563,-0.01923 0.01125,-0.01197 0.04732,-0.141796 0.09764,-0.348973 0.04424,-0.181017 0.08247,-0.332862 0.08545,-0.33689 0.003,-0.0051 0.204201,-0.0091 0.4465,-0.0091 h 0.441507 l 0.01017,0.03719 c 0.0058,0.0214 0.04223,0.171946 0.08142,0.334894 0.03926,0.162912 0.07845,0.306702 0.0865,0.318784 0.01306,0.02104 0.02213,0.02323 0.114618,0.02323 0.107616,0 0.130765,-0.01017 0.130765,-0.05432 0,-0.05634 -0.190088,-0.817614 -0.267444,-1.074053 -0.122711,-0.404191 -0.303764,-0.812494 -0.414345,-0.935182 -0.06742,-0.07442 -0.170967,-0.103589 -0.260441,-0.07442 z m 0.176918,0.453559 c 0.08552,0.170967 0.134792,0.295672 0.2132,0.531999 0.03229,0.09858 0.05932,0.181018 0.05932,0.183049 0,0.002 -0.166939,0.004 -0.372099,0.004 -0.215232,0 -0.372099,-0.004 -0.372099,-0.0091 0,-0.01814 0.0935,-0.299701 0.136788,-0.410309 0.06538,-0.170931 0.100538,-0.248396 0.167882,-0.373102 l 0.06131,-0.114655 0.01814,0.02431 c 0.01017,0.01306 0.04924,0.0865 0.08749,0.163928 z M 0.66148775,15.537249 c -0.058372,0.0312 -0.104634,0.105581 -0.1197093,0.192084 -0.014985,0.08849 -0.038206,0.360039 -0.051268,0.590329 -0.0049,0.10758 -0.010087,0.450544 -0.010087,0.761291 0,0.655697 -0.014985,0.586306 0.1287439,0.586306 0.072385,0 0.092551,-0.003 0.1046339,-0.01814 0.014151,-0.01488 0.017162,-0.10058 0.021225,-0.685859 0.00573,-0.712012 0.02206,-1.067014 0.047241,-1.038859 0.00381,0.004 0.094565,0.189073 0.2000696,0.41031 0.20420595,0.426408 0.24344615,0.496805 0.29568325,0.527979 0.043296,0.02721 0.1217231,0.02721 0.1659995,0 0.070371,-0.04325 0.085447,-0.0714 0.3690263,-0.671788 0.071435,-0.14985 0.1327713,-0.273539 0.1367988,-0.273539 0.00299,0 0.00871,0.03922 0.013062,0.08747 0.020137,0.260478 0.026124,0.466632 0.032147,1.023776 0.00573,0.541042 0.00762,0.614454 0.02206,0.625524 0.010055,0.0084 0.049255,0.01306 0.107627,0.01306 0.076413,0 0.095519,-0.003 0.1085776,-0.01814 0.014985,-0.01705 0.017162,-0.06636 0.017162,-0.500817 0,-0.80353 -0.035122,-1.371733 -0.092551,-1.503473 -0.060277,-0.142812 -0.2232001,-0.167956 -0.3317814,-0.05232 -0.014151,0.01488 -0.1227861,0.22931 -0.2403984,0.475673 -0.1166398,0.246545 -0.2162119,0.450715 -0.2192597,0.454735 -0.00299,0.004 -0.1005263,-0.192084 -0.2172424,-0.435461 -0.1155731,-0.244368 -0.22118645,-0.458576 -0.23424845,-0.476681 -0.029172,-0.04524 -0.098593,-0.08447 -0.1589787,-0.09151 -0.039161,-0.0047 -0.058264,-9.7e-4 -0.094456,0.01814 z m 5.06453915,-0.02032 c -0.013062,0.01705 -0.015965,0.05127 -0.015965,0.148834 0,0.171946 -9.579e-4,0.170967 0.1347923,0.170967 0.066362,0 0.106564,-0.004 0.1146188,-0.01197 0.00762,-0.0084 0.012336,-0.05729 0.012336,-0.154857 0,-0.180001 0.00362,-0.174993 -0.1307648,-0.174993 -0.091506,0 -0.1006131,0.002 -0.1146188,0.02213 z M 11.30139,5.7750393 c -0.144771,0.031167 -0.255362,0.078455 -0.398213,0.1709522 -0.14985,0.097558 -0.27256,0.2081788 -0.439495,0.3972433 -0.31679,0.3610294 -0.6244863,0.8357088 -0.9875623,1.5255919 -0.04423,0.084467 -0.08342,0.1538627 -0.0865,0.1538627 -0.0029,0 -0.04318,-0.1055843 -0.08947,-0.2343317 C 9.1130333,7.2623886 8.9743223,6.9204613 8.8365584,6.6449084 8.6202739,6.2114721 8.4251932,5.9922337 8.1888368,5.9178146 8.0913075,5.887627 7.9445053,5.8886429 7.851983,5.9198309 7.6126586,6.0022846 7.4346711,6.219527 7.2938339,6.6046931 7.0726512,7.2040657 6.8875594,8.224817 6.670306,10.039048 c -0.2020977,1.677445 -0.2855855,2.692169 -0.2735032,3.311655 0.00471,0.29869 0.018867,0.422387 0.063351,0.579261 0.079388,0.283605 0.2635252,0.431437 0.5188869,0.416347 0.067414,-0.0041 0.091579,-0.01121 0.1659959,-0.04828 0.073328,-0.03617 0.1045683,-0.06033 0.1840287,-0.139786 0.2132005,-0.215224 0.4132845,-0.579259 0.826667,-1.509501 0.1538048,-0.345951 0.8327155,-1.930879 0.8327155,-1.943955 0,-0.01006 -0.2977043,-0.8648763 -0.3479929,-1.0016483 l -0.017053,-0.04425 -0.014151,0.02721 c -0.027212,0.05129 -0.3046703,0.6918893 -0.6134154,1.4139613 -0.423364,0.991587 -0.6677826,1.545705 -0.7974808,1.810199 l -0.041291,0.08547 0.00508,-0.09555 c 0.00363,-0.05232 0.011252,-0.176991 0.015969,-0.276562 0.036279,-0.631548 0.139868,-1.629163 0.2977002,-2.8862503 0.1588844,-1.265132 0.2996997,-2.089773 0.4415093,-2.5855708 0.042234,-0.1478216 0.1105913,-0.3429349 0.1247055,-0.3590265 0.010161,-0.010055 0.098582,0.1518491 0.1709667,0.311764 0.1508296,0.3338821 0.2694759,0.6496594 0.6415752,1.7076183 0.4585991,1.3063573 0.6889031,1.8836113 0.9845901,2.4689113 0.2584463,0.513892 0.4676183,0.82465 0.7280743,1.086118 0.183086,0.183034 0.355975,0.29869 0.54807,0.368078 0.233374,0.08347 0.45562,0.08446 0.688903,0.0058 0.586283,-0.199102 1.086161,-0.913127 1.681461,-2.403527 0.159936,-0.4012553 0.292696,-0.7592733 0.57121,-1.5457053 0.38621,-1.0891421 0.556133,-1.5205705 0.720103,-1.8343408 0.03629,-0.069392 0.07641,-0.1407973 0.08948,-0.159904 l 0.02431,-0.035195 0.01597,0.039212 c 0.139764,0.3278519 0.280615,0.9433141 0.411366,1.7961228 0.140743,0.913143 0.342913,2.6308233 0.418368,3.5379283 0.0243,0.29265 0.05021,0.706991 0.04924,0.784425 v 0.0553 l -0.0312,-0.06033 c -0.09966,-0.190901 -0.329975,-0.714834 -0.8046,-1.825095 -0.368072,-0.859845 -0.628615,-1.4582103 -0.641673,-1.4712863 -0.004,-0.0049 -0.01197,0.0041 -0.01778,0.02014 -0.243351,0.6798343 -0.354052,0.9936033 -0.354052,1.0056703 0,0.01416 0.413382,0.985549 0.714055,1.677448 0.256414,0.589324 0.487784,1.088133 0.599338,1.294299 0.147854,0.273532 0.256522,0.431428 0.37613,0.552112 0.06941,0.0694 0.102614,0.09455 0.174994,0.130729 0.1394,0.06719 0.280506,0.06616 0.41031,0.0019 0.355974,-0.176986 0.417304,-0.680823 0.279562,-2.285864 C 16.421256,11.217646 16.26949,9.8901727 16.137681,8.9378017 15.928496,7.4253907 15.70731,6.5605149 15.434761,6.1934455 15.327144,6.0476122 15.180343,5.9430329 15.03751,5.9098483 c -0.07442,-0.017162 -0.2132,-0.014151 -0.28261,0.00599 -0.371048,0.106622 -0.655687,0.5531217 -1.083084,1.6995858 -0.05729,0.1548678 -0.110592,0.2986765 -0.116651,0.3187919 -0.0066,0.021225 -0.01597,0.038206 -0.01923,0.038206 -0.004,0 -0.0312,-0.046261 -0.06131,-0.1035999 C 12.96571,6.9074088 12.533319,6.3080248 12.13002,6.0053219 12.012426,5.9168233 11.821285,5.8192685 11.708673,5.7890881 11.605085,5.7618757 11.395911,5.7538934 11.301339,5.7749377 Z m 0.28867,0.7693336 c 0.307681,0.1357647 0.812555,0.8769419 1.406897,2.0666468 l 0.186061,0.372091 -0.145822,0.393221 c -0.270528,0.7321233 -0.444485,1.1545003 -0.649642,1.5678313 -0.284642,0.574232 -0.557187,0.950355 -0.767332,1.057962 -0.07239,0.0372 -0.181054,0.04324 -0.260442,0.01498 C 11.021838,11.897424 10.598489,11.230677 10.13989,10.094274 10.03735,9.8408377 9.9095997,9.5059577 9.7990077,9.1962107 l -0.05729,-0.157889 0.146766,-0.299689 C 10.457678,7.5800996 10.964562,6.800705 11.284345,6.5895219 c 0.115671,-0.076441 0.205145,-0.089503 0.305759,-0.045256 z" /></g></svg>
