<?xml version="1.0" encoding="UTF-8" standalone="no"?>
<!-- Created with Inkscape (http://www.inkscape.org/) -->

<svg
   width="24"
   height="24"
   viewBox="0 0 24 24"
   version="1.1"
   xmlns="http://www.w3.org/2000/svg"
   xmlns:svg="http://www.w3.org/2000/svg">
   <path
     style="fill:#44739e"
     d="m 11.584981,0.03122054 c -0.34199,0.087238 -0.60323,0.21910171 -0.940457,0.47789658 C 10.290665,0.78190382 10.000926,1.0909948 9.6066989,1.6194896 8.8586104,2.6286994 8.1318954,3.955523 7.2745584,5.883953 c -0.104485,0.236214 -0.197121,0.430084 -0.204236,0.430084 -0.0071,0 -0.102131,-0.295268 -0.21135,-0.65499 C 6.4172434,4.188851 6.0895054,3.2330577 5.7641464,2.4628129 5.2535494,1.2512444 4.7928194,0.63839722 4.2347231,0.43040165 4.0043524,0.34584785 3.6576258,0.34886765 3.4391379,0.43711225 2.8739206,0.66762192 2.4535615,1.2748322 2.1210732,2.3514838 1.598605,4.02689 1.1616265,6.880178 0.6486486,11.951425 c -0.47734659,4.688944 -0.67446692,7.525357 -0.64596752,9.256999 0.011905,0.834901 0.045099,1.180666 0.14961193,1.619205 0.1876244,0.792725 0.62221609,1.205965 1.22543459,1.163789 0.1591079,-0.01342 0.2161124,-0.0302 0.3918596,-0.134884 0.1733662,-0.10133 0.2469816,-0.168772 0.434606,-0.390725 0.5034677,-0.601574 0.9760775,-1.619205 1.9521523,-4.219469 0.3633579,-0.967037 1.9664019,-5.397354 1.9664019,-5.433893 0,-0.02684 -0.702966,-2.417532 -0.821706,-2.799869 l -0.04039,-0.123811 -0.03319,0.07583 c -0.06409,0.143271 -0.7196,1.934065 -1.4486849,3.952418 -0.9998261,2.771753 -1.5769234,4.320702 -1.883282,5.06001 l -0.097398,0.238898 0.011905,-0.267082 c 0.00992,-0.146292 0.026079,-0.49474 0.038013,-0.773063 0.085492,-1.765366 0.3301072,-4.553997 0.7029663,-8.067876 C 2.9262097,7.571539 3.258698,5.266408 3.593556,3.880532 3.69325,3.467292 3.8547958,2.9219534 3.888046,2.8769587 3.911857,2.8501157 4.1207978,3.3014389 4.2917743,3.7484 c 0.3562281,0.933312 0.6364661,1.815993 1.5151711,4.773296 1.082946,3.651615 1.626793,5.265184 2.325011,6.901266 0.610348,1.436475 1.1043253,2.305097 1.7194125,3.035987 0.4322361,0.511651 0.8407151,0.834902 1.2943131,1.028872 0.550979,0.233194 1.075826,0.236214 1.626793,0.01678 1.384566,-0.556579 2.564879,-2.552488 3.970814,-6.71854 0.377607,-1.121613 0.691086,-2.122399 1.348934,-4.320664 0.911935,-3.04444 1.313291,-4.250405 1.700417,-5.1274829 0.08561,-0.1939369 0.180566,-0.3935442 0.211464,-0.4469607 l 0.05698,-0.098311 0.03798,0.1097186 c 0.330093,0.916436 0.662595,2.636837 0.971315,5.02065 0.332503,2.552485 0.809826,7.353864 0.987955,9.889471 0.05698,0.818061 0.118771,1.976213 0.116503,2.192697 v 0.15468 l -0.0737,-0.168772 C 21.866146,19.456956 21.32218,17.99236 20.201224,14.8889 c -0.869212,-2.403475 -1.484299,-4.076095 -1.515168,-4.112634 -0.01134,-0.01342 -0.02863,0.01342 -0.0428,0.05637 -0.574716,1.900311 -0.835956,2.777389 -0.835956,2.81111 0,0.03959 0.976072,2.75491 1.686147,4.688944 0.60562,1.647292 1.151825,3.041624 1.415446,3.617899 0.349113,0.764641 0.605591,1.205965 0.888204,1.543308 0.163842,0.193936 0.242361,0.264398 0.413233,0.365426 0.375986,0.212391 0.703669,0.159042 0.968962,0.0067 0.840696,-0.49474 0.985574,-1.903098 0.660215,-6.389653 C 23.675665,15.24717 23.317027,11.5365 23.005926,8.874399 22.511935,4.646482 21.989455,2.2289479 21.34588,1.2028608 21.091614,0.79525792 20.745023,0.50290982 20.407787,0.41013555 c -0.175748,-0.047981 -0.50346,-0.039257 -0.66733,0.016777 C 18.86413,0.72486392 18.19203,1.9730053 17.182703,5.177661 c -0.135382,0.432935 -0.26124,0.834901 -0.27547,0.891136 -0.01672,0.05905 -0.03801,0.107034 -0.0451,0.107034 -0.0099,0 -0.07359,-0.129179 -0.144878,-0.289563 C 15.515572,3.1988671 14.494364,1.5234271 13.542038,0.67728522 13.264187,0.42999905 12.812953,0.15721234 12.546963,0.07289344 c -0.244601,-0.07583 -0.738587,-0.0983105 -0.961825,-0.0395926 z m 0.681585,2.15048456 c 0.726718,0.379519 1.918913,2.4512879 3.322465,5.7768359 l 0.439348,1.040112 -0.344357,1.099167 c -0.638838,2.046468 -1.049696,3.227134 -1.534174,4.382501 -0.672086,1.605147 -1.315684,2.656499 -1.812031,2.957303 -0.170985,0.104014 -0.42748,0.120791 -0.615098,0.04228 C 10.924764,17.14538 9.9249379,15.281607 8.8419824,12.105068 8.5997634,11.396664 8.2981354,10.460566 8.0369044,9.5947287 L 7.9015504,9.153404 8.2482804,8.315684 C 9.5924639,5.077274 10.789407,2.8986716 11.544613,2.3083385 11.81773,2.0946053 12.029092,2.0580324 12.26658,2.1818433 Z"
     /></svg>
