<?xml version="1.0" encoding="UTF-8" standalone="no"?>
<!-- Created with Inkscape (http://www.inkscape.org/) -->

<svg
   version="1.1"
   width="24"
   height="24"
   viewBox="0 0 24 24"
   xmlns="http://www.w3.org/2000/svg"
   xmlns:svg="http://www.w3.org/2000/svg">
  <path
     style="fill:#44739e"
     d="m 9.0269201,22.605988 c -0.209089,-0.05577 -0.134665,-0.221255 0.1,-0.22236 0.233198,-0.0011 0.298305,-0.03316 0.443949,-0.218601 0.0829,-0.105548 0.07727,-0.131303 -0.04781,-0.218913 -0.162586,-0.113879 -0.479473,-1.037986 -0.479473,-1.39824 0,-0.185448 0.02578,-0.229892 0.133333,-0.229892 0.08367,0 0.133334,0.04444 0.133334,0.119326 0,0.168538 0.178738,0.834424 0.303578,1.130975 0.0971,0.230669 0.111941,0.240473 0.194664,0.128639 0.07551,-0.102084 0.2104919,-0.589286 0.3404809,-1.22894 0.03801,-0.187019 0.29461,-0.210824 0.29461,-0.02733 0,0.478533 -0.5442349,1.904947 -0.7829929,2.052187 -0.154107,0.09504 -0.482039,0.153593 -0.633674,0.11315 z m 3.1623259,-0.67568 c -0.07248,-0.07248 -0.184016,-0.356594 -0.250204,-0.637348 -0.06568,-0.278611 -0.12949,-0.4965 -0.141792,-0.484197 -0.0123,0.0123 -0.06748,0.199411 -0.122613,0.415794 -0.169411,0.664887 -0.224079,0.760091 -0.43646,0.760091 -0.174466,0 -0.199537,-0.03336 -0.321275,-0.427501 -0.07262,-0.235126 -0.152704,-0.610126 -0.177956,-0.833333 -0.04333,-0.382954 -0.03798,-0.405832 0.09476,-0.405832 0.148015,0 0.168818,0.0518 0.240969,0.6 0.04932,0.374704 0.169336,0.755131 0.221711,0.702756 0.02173,-0.02173 0.101241,-0.286154 0.176689,-0.58761 0.102353,-0.408953 0.16761,-0.553776 0.257048,-0.570462 0.198558,-0.03704 0.294696,0.103528 0.415881,0.608081 0.06348,0.264313 0.137241,0.521891 0.163907,0.572395 0.05171,0.09794 0.250716,-0.64766 0.282378,-1.057948 0.01294,-0.167604 0.0535,-0.239528 0.144876,-0.256861 0.117912,-0.02237 0.123976,0.0083 0.08551,0.432787 -0.05983,0.660256 -0.188234,1.092792 -0.357538,1.20435 -0.129763,0.0855 -0.158948,0.08178 -0.275894,-0.03516 z m 3.190931,0.04879 c -0.774409,-0.167498 -0.645695,-1.657994 0.145113,-1.680411 0.134596,-0.0038 0.319916,0.03331 0.411824,0.0825 0.191139,0.102292 0.373139,0.442195 0.373139,0.69687 0,0.172977 -9.18e-4,0.173258 -0.566667,0.173258 -0.522222,0 -0.566666,0.01046 -0.566666,0.133333 0,0.07333 0.06387,0.197203 0.141932,0.275266 0.124026,0.124026 0.191308,0.13677 0.533333,0.101022 0.382847,-0.04002 0.439649,-0.01826 0.340381,0.130386 -0.06614,0.09904 -0.52907,0.149058 -0.812389,0.08778 z m 0.617635,-1.111118 c -0.07712,-0.216331 -0.169574,-0.283334 -0.39096,-0.283334 -0.230068,0 -0.429932,0.141676 -0.429932,0.304762 0,0.07272 0.101943,0.09524 0.431241,0.09524 0.382105,0 0.426502,-0.01329 0.389651,-0.116666 z m 2.098169,1.132264 c -0.09952,-0.0132 -0.257016,-0.114405 -0.35,-0.22491 -0.217685,-0.258704 -0.238044,-0.843406 -0.04064,-1.167148 0.369518,-0.606 1.271578,-0.293993 1.271578,0.439816 v 0.203313 h -0.566666 c -0.50256,0 -0.566667,0.01366 -0.566667,0.120763 0,0.06642 0.06469,0.190202 0.143763,0.275073 0.129025,0.138493 0.183699,0.150137 0.533333,0.113593 0.32158,-0.03361 0.389571,-0.02308 0.389571,0.06035 0,0.05559 -0.0375,0.112571 -0.08333,0.126628 -0.157389,0.04827 -0.550164,0.07649 -0.730939,0.05252 z m 0.614272,-1.074877 c 0,-0.148285 -0.253537,-0.357385 -0.433333,-0.357385 -0.179797,0 -0.433334,0.2091 -0.433334,0.357385 0,0.03261 0.195,0.05928 0.433334,0.05928 0.238333,0 0.433333,-0.02668 0.433333,-0.05928 z M 5.3104216,21.867982 c 3.4e-4,-0.23731 0.3441598,-1.39068 0.5191018,-1.741378 0.2171992,-0.43541 0.3534794,-0.541544 0.5197216,-0.404756 0.1726836,0.142088 0.4667365,0.83117 0.6268472,1.468952 0.077392,0.308283 0.1562606,0.613015 0.1752633,0.677182 0.026173,0.08838 -0.00438,0.116666 -0.1260007,0.116666 -0.140216,0 -0.1709433,-0.04644 -0.2426073,-0.366666 L 6.7006914,21.251315 H 6.2160811 5.7314708 l -0.082056,0.366667 c -0.064744,0.289307 -0.1091784,0.366666 -0.2106086,0.366666 -0.07805,0 -0.1284862,-0.04583 -0.1283846,-0.116666 z m 1.2664986,-0.981433 c 0,-0.201158 -0.335111,-0.860123 -0.402923,-0.792311 -0.065155,0.06516 -0.3304104,0.739085 -0.3304104,0.839469 0,0.02802 0.165,0.05094 0.3666667,0.05094 0.2783237,0 0.3666667,-0.02364 0.3666667,-0.0981 z m 0.8955266,1.010481 c -0.018492,-0.04819 -0.025051,-0.415689 -0.014575,-0.816666 l 0.019048,-0.729049 0.2333333,-0.01412 c 1.049669,-0.06353 1.066667,-0.04832 1.066667,0.954842 0,0.64817 -0.0086,0.692614 -0.1333337,0.692614 -0.1244633,0 -0.1333333,-0.04444 -0.1333333,-0.668096 0,-0.640685 -0.00657,-0.671089 -0.1601447,-0.741062 -0.1066613,-0.0486 -0.2235513,-0.05188 -0.35,-0.0098 l -0.1898553,0.06312 -0.018999,0.677919 c -0.017564,0.626723 -0.02905,0.677919 -0.1520926,0.677919 -0.073201,0 -0.1482234,-0.03943 -0.1667154,-0.08762 z m 5.7711392,-1.079048 c 0,-1.122222 0.0051,-1.166667 0.133334,-1.166667 0.116856,0 0.133333,0.04444 0.133333,0.359646 v 0.359646 l 0.239521,-0.05402 c 0.2837,-0.06398 0.601736,0.02935 0.69522,0.204025 0.03589,0.06707 0.06526,0.423911 0.06526,0.792988 0,0.626605 -0.0088,0.671049 -0.133333,0.671049 -0.123906,0 -0.133334,-0.04444 -0.133334,-0.628571 0,-0.790957 -0.09888,-0.925904 -0.583333,-0.796076 -0.143344,0.03842 -0.15,0.07091 -0.15,0.732423 0,0.64778 -0.0086,0.692224 -0.133333,0.692224 -0.128254,0 -0.133334,-0.04444 -0.133334,-1.166666 z m 3.4,0.339357 v -0.82731 l 0.283334,0.002 c 0.155833,0.0011 0.328333,-0.0091 0.383333,-0.02269 0.209537,-0.0518 0.08881,0.167143 -0.133333,0.241802 l -0.233334,0.07842 -0.019,0.677527 c -0.01746,0.622616 -0.02962,0.677526 -0.15,0.677526 -0.123187,0 -0.131002,-0.04935 -0.131002,-0.827309 z m 2.533334,-1.135423 c 0,-0.16646 -0.02984,-0.237268 -0.1,-0.237268 -0.055,0 -0.1,-0.03 -0.1,-0.06667 0,-0.03667 0.105,-0.06667 0.233333,-0.06667 0.128333,0 0.233333,0.03 0.233333,0.06667 0,0.03667 -0.03,0.06667 -0.06667,0.06667 -0.03667,0 -0.06667,0.08823 -0.06667,0.196066 0,0.107836 -0.03,0.214606 -0.06667,0.237268 -0.03967,0.02452 -0.06667,-0.05486 -0.06667,-0.196066 z m 0.333333,-0.0706 c 0,-0.347831 0.148549,-0.416502 0.252371,-0.116667 l 0.06348,0.183334 0.08689,-0.18506 c 0.04779,-0.101783 0.119226,-0.174472 0.15874,-0.161532 0.09824,0.03217 0.131827,0.446611 0.04337,0.535069 -0.05092,0.05092 -0.07229,0.01487 -0.07419,-0.125144 l -0.0027,-0.196667 -0.10549,0.194845 -0.105492,0.194845 -0.08948,-0.161512 -0.08948,-0.161511 -0.0024,0.15 c -0.0013,0.0825 -0.03237,0.15 -0.06903,0.15 -0.03659,0 -0.06659,-0.135 -0.06659,-0.3 z M 5.4012358,18.551855 c -0.066375,-0.172971 0.017743,-2.915341 0.095336,-3.108115 0.085274,-0.211854 0.2448902,-0.28276 0.4225202,-0.187694 0.073425,0.03929 0.2837856,0.395914 0.4717606,0.79976 0.1865861,0.400864 0.3603843,0.728842 0.386218,0.728842 0.025834,0 0.20123,-0.32887 0.389768,-0.730822 0.3580749,-0.763393 0.5098616,-0.927505 0.7426276,-0.802932 0.2041773,0.109272 0.2302113,0.322316 0.232238,1.900421 l 0.00188,1.466667 H 7.9769175 7.8102508 l -0.018125,-1.331459 c -0.00997,-0.732302 -0.042705,-1.356039 -0.072747,-1.38608 -0.030042,-0.03004 -0.20024,0.263692 -0.3782173,0.652741 -0.49231,1.076166 -0.6396304,1.076318 -1.1342257,0.0012 -0.1778728,-0.386705 -0.3467856,-0.703069 -0.3753589,-0.703069 -0.028573,0 -0.06006,0.6225 -0.069971,1.383333 -0.017955,1.378435 -0.018551,1.383409 -0.1683172,1.404676 -0.092126,0.01308 -0.1664592,-0.02077 -0.192053,-0.08747 z m 3.9423513,0.0097 c -0.252094,-0.11598 -0.400475,-0.281982 -0.530791,-0.593872 -0.1273279,-0.304739 -0.1328026,-0.916595 -0.010753,-1.201843 0.29535,-0.690277 1.194583,-0.900602 1.7238639,-0.4032 0.278943,0.262142 0.384529,0.54771 0.383249,1.036534 -0.0012,0.470098 -0.167376,0.842082 -0.479471,1.073492 -0.227583,0.168748 -0.8089409,0.216302 -1.0860979,0.08884 z M 10.294336,18.09846 c 0.400373,-0.367735 0.322429,-1.319692 -0.127085,-1.552145 -0.3583619,-0.185316 -0.8272159,-0.05971 -0.9732169,0.260729 -0.277847,0.609807 -0.06904,1.344165 0.416219,1.463844 0.216205,0.05332 0.5222969,-0.02383 0.6840829,-0.172428 z m 1.798475,0.480414 c -0.179039,-0.104253 -0.41988,-0.63225 -0.68032,-1.491465 -0.280639,-0.925855 -0.284028,-0.969427 -0.0754,-0.969427 0.140258,0 0.177673,0.05762 0.300923,0.463388 0.206,0.678208 0.542608,1.536612 0.602556,1.536612 0.06706,0 0.431585,-0.968728 0.583248,-1.55 0.109293,-0.418878 0.130174,-0.45 0.301923,-0.45 0.101481,0 0.18451,0.0238 0.18451,0.05288 0,0.02909 -0.07512,0.311988 -0.166928,0.628674 -0.304822,1.051436 -0.696684,1.860584 -0.895814,1.84975 -0.02049,-0.0011 -0.09011,-0.0328 -0.1547,-0.07041 z m 1.750775,-1.189589 v -1.271303 h 0.168138 0.168138 l -0.01814,1.25 c -0.01798,1.239284 -0.01942,1.250182 -0.168138,1.271303 l -0.15,0.0213 z m 1.465989,1.11203 c -0.42512,-0.289334 -0.499322,-0.45848 -0.499322,-1.138222 0,-0.533816 0.01979,-0.639517 0.155256,-0.829451 0.200789,-0.28151 0.488316,-0.426772 0.844744,-0.426772 0.592243,0 0.956902,0.363991 1.015841,1.01398 l 0.03601,0.397132 h -0.883152 -0.883154 l 0.04508,0.183333 c 0.06807,0.276862 0.222698,0.481375 0.422866,0.55929 0.180592,0.0703 0.81186,0.04359 1.029846,-0.04357 0.09288,-0.03714 0.116667,-0.01185 0.116667,0.124014 0,0.140426 -0.0443,0.182967 -0.25,0.240094 -0.432826,0.120202 -0.904892,0.08745 -1.150678,-0.07983 z m 1.200678,-1.385475 c 0,-0.161037 -0.199185,-0.526064 -0.323307,-0.592492 -0.07403,-0.03962 -0.250954,-0.07203 -0.393171,-0.07203 -0.294395,0 -0.568556,0.234554 -0.642871,0.55 l -0.04319,0.183333 h 0.70127 c 0.437617,0 0.70127,-0.02587 0.70127,-0.06881 z m 1.066667,1.448379 c -0.166096,-0.05664 -0.239824,-0.125477 -0.255857,-0.238877 -0.01962,-0.138806 -0.0025,-0.153506 0.133333,-0.114223 0.08572,0.0248 0.308436,0.06267 0.494921,0.08417 0.435343,0.05019 0.643593,-0.05064 0.614931,-0.297739 -0.01621,-0.139792 -0.134458,-0.252713 -0.549424,-0.524691 -0.547821,-0.359053 -0.699676,-0.537253 -0.700088,-0.821544 -5.34e-4,-0.343963 0.302092,-0.542843 0.833187,-0.547615 0.486431,-0.0044 0.76233,0.11488 0.76233,0.329502 0,0.132559 -0.02334,0.155637 -0.116667,0.115356 -0.539702,-0.232947 -1.083333,-0.167859 -1.083333,0.129704 0,0.131456 0.09842,0.224924 0.501156,0.475938 0.275635,0.171796 0.560635,0.387973 0.633333,0.480393 0.14398,0.183041 0.17187,0.484655 0.06354,0.687081 -0.162057,0.302806 -0.809023,0.42067 -1.331357,0.242545 z m -3.774398,-3.00901 c -0.0727,-0.189455 0.0062,-0.336915 0.191634,-0.358322 0.16902,-0.01951 0.182764,-0.0032 0.182764,0.216667 0,0.209954 -0.01974,0.237761 -0.168759,0.237761 -0.09282,0 -0.185355,-0.04325 -0.205639,-0.09611 z M 5.8022966,12.657342 C 5.6879202,12.587602 5.5604202,12.433234 5.5189632,12.31431 5.4029588,11.98154 5.4293012,10.52183 5.5775742,9.0664606 6.103133,3.9078618 6.508864,2.0532053 7.1952564,1.6717966 c 0.081582,-0.045333 0.2758306,-0.083486 0.431664,-0.084786 0.51867,-0.00432 0.8301006,0.4334876 1.4822669,2.0837859 0.156379,0.3957149 0.292895,0.7107149 0.303369,0.7 0.01047,-0.010715 0.1863128,-0.3150733 0.3907538,-0.6763521 0.6827629,-1.2065458 1.3524969,-1.993792 1.8881349,-2.219428 0.756477,-0.3186638 1.546757,0.1710958 2.417197,1.4980077 0.18459,0.2813933 0.432967,0.6990132 0.551948,0.9280442 0.118982,0.2290311 0.23133,0.4162426 0.249663,0.4160257 0.01833,-2.2e-4 0.136777,-0.277606 0.263207,-0.6164201 0.352549,-0.9447758 0.707162,-1.6070741 1.00412,-1.8753573 0.221346,-0.199974 0.31622,-0.2406684 0.561084,-0.2406684 0.869244,0 1.242044,1.0905324 1.766234,5.1666667 0.413268,3.2135914 0.50729,5.1024501 0.279004,5.6050801 -0.137404,0.302532 -0.429704,0.470469 -0.70055,0.402491 -0.482738,-0.121159 -0.799333,-0.67445 -2.026118,-3.5409044 -0.940536,-2.197616 -0.956658,-2.2333334 -1.008022,-2.2333334 -0.0218,0 -0.111139,0.1875 -0.198529,0.4166667 -0.186578,0.48927 -0.895436,1.9285193 -1.091751,2.2166674 -0.962893,1.4133127 -2.155412,1.4421097 -3.160843,0.07633 C 10.310506,9.303658 9.6658081,8.0394886 9.4123991,7.3693273 9.3468191,7.1959006 9.2703661,7.068098 9.2424991,7.0853206 9.1931391,7.1158296 8.6753782,8.2735666 8.1098562,9.6179823 7.2930295,11.559822 6.8141595,12.456566 6.4877322,12.655606 c -0.2650513,0.161616 -0.422587,0.162016 -0.6854356,0.0017 z M 7.4566735,8.717982 C 7.7136768,8.112982 8.1167055,7.1892513 8.3522928,6.6652476 8.8470811,5.5647174 8.8512151,5.7669278 8.3043135,4.317982 7.8861968,3.210234 7.6544415,2.7034044 7.5855062,2.7460087 7.4466088,2.831852 7.1642155,4.211431 6.9138622,6.0271985 6.6838139,7.695694 6.4443706,9.9925223 6.4491749,10.484648 l 0.00456,0.466667 0.2678323,-0.566667 C 6.8688712,10.072982 7.1996705,9.322982 7.4566738,8.717982 Z m 10.4308005,1.45 C 17.840954,9.35847 17.59519,7.2068913 17.371556,5.6513153 17.151294,4.1191837 16.837573,2.717982 16.7148,2.717982 c -0.07227,0 -0.452291,0.8520283 -0.865482,1.9404666 l -0.344364,0.9071332 0.435983,0.9822862 c 0.239791,0.5402573 0.435983,0.993514 0.435983,1.007236 0,0.013723 0.288592,0.678484 0.641315,1.4772473 0.352723,0.798763 0.683126,1.5497967 0.734228,1.6689637 0.0511,0.119167 0.112082,0.216667 0.135511,0.216667 0.02343,0 0.0232,-0.3375 -5.33e-4,-0.75 z M 12.639251,9.4560113 C 13.08842,8.969474 13.663534,7.817172 14.248948,6.2308103 L 14.465632,5.6436386 14.237942,5.1680879 C 13.92233,4.5089011 13.147363,3.2104502 12.860754,2.8606183 12.623461,2.570982 12.283216,2.3187048 12.12924,2.3182312 12.00408,2.3178445 11.587576,2.7092498 11.302491,3.0951554 11.030432,3.4634284 10.174006,4.958644 9.9646021,5.4309447 L 9.8406241,5.7105741 10.114058,6.464278 c 0.447106,1.2324146 1.09164,2.484086 1.492012,2.8974466 0.447827,0.4623557 0.674301,0.4830237 1.033181,0.094287 z"
	 />
</svg>
