<?xml version="1.0" encoding="UTF-8"?>
<svg width="24px" fill="#44739e" height="24px" viewBox="0 0 24 24" version="1.1" xmlns="http://www.w3.org/2000/svg" xmlns:xlink="http://www.w3.org/1999/xlink">
            <path d="M 21,2 H 15.946 A 26.023,26.023 0 0 1 19.359,4.792 26.933,26.933 0 0 1 22,7.917 V 3 A 1,1 0 0 0 21,2 Z M 9.316,2 H 3 A 1,1 0 0 0 2,3 V 3.981 A 18.222,18.222 0 0 1 20.15,22 H 21 a 1,1 0 0 0 0.993,-1.007 V 14.187 A 21.581,21.581 0 0 0 9.316,2 Z M 2,7.034 V 10.29 A 11.883,11.883 0 0 1 13.8,22 h 3.38 A 15.152,15.152 0 0 0 2,7.034 Z m 0,6.31 V 21 a 1,1 0 0 0 1,1 h 7.82 A 8.811,8.811 0 0 0 2,13.344 Z"/>

</svg>