<?xml version="1.0" encoding="UTF-8"?>
<svg width="24px" fill="#44739e" height="24px" viewBox="0 0 24 24" version="1.1" xmlns="http://www.w3.org/2000/svg" xmlns:xlink="http://www.w3.org/1999/xlink">
            <path d="m 11.472,14.405 c -0.066,0.125 0.054,0.082 0.054,0.082 0,0 0.033,-0.022 0.033,-0.017 0.027,-0.082 -0.087,-0.065 -0.087,-0.065 z M 3.69,11.462 v 0 c -0.076,-0.017 -0.213,0.093 -0.213,0.1 -0.021,0.137 -0.284,0.306 -0.278,0.306 -0.126,0.076 -0.006,0.049 0,0.054 0.087,0 0.267,-0.207 0.262,-0.2 0.076,-0.081 0.109,-0.071 0.109,-0.071 0,0 0.049,-0.043 0.055,-0.038 C 3.663,11.586 3.712,11.564 3.707,11.575 3.925,11.478 3.69,11.462 3.69,11.462 Z m 7.651,3.057 v 0 c 0.016,-0.114 -0.213,-0.071 -0.213,-0.07 -0.055,0 -0.055,0.032 -0.055,0.032 0,0 -0.246,0.082 -0.246,0.088 -0.054,0.022 -0.065,0.043 -0.065,0.043 a 0.238,0.238 0 0 1 -0.109,0.055 l -0.05,0.044 a 0.3,0.3 0 0 0 -0.049,0.016 1.921,1.921 0 0 1 -0.289,0.18 0.25,0.25 0 0 1 -0.038,0.028 c -0.148,0.043 -0.132,0.071 -0.126,0.071 a 0.427,0.427 0 0 1 -0.137,0.076 c -0.071,0.011 -0.087,0.028 -0.087,0.028 0,0 -0.142,0.092 -0.147,0.092 A 0.452,0.452 0 0 0 9.6,15.3 c -0.082,0.049 -0.065,0.06 -0.065,0.06 l 0.011,0.066 0.043,-0.017 a 0.629,0.629 0 0 0 0.541,-0.142 c 0.087,-0.043 0.049,-0.065 0.055,-0.065 a 0.121,0.121 0 0 0 0.065,-0.066 c 0.077,0.006 0.213,-0.087 0.219,-0.082 0.093,-0.087 0.169,-0.158 0.169,-0.153 a 0.492,0.492 0 0 1 0.235,-0.1 0.326,0.326 0 0 0 0.18,-0.109 c 0.066,-0.071 0.071,-0.044 0.082,-0.039 0.044,-0.054 0.077,-0.027 0.077,-0.027 0.172,-0.074 0.129,-0.107 0.129,-0.107 z M 4.843,10.921 v 0 a 0.974,0.974 0 0 0 -0.257,0.251 c 0,0.006 -0.142,0.164 0.027,0.1 -0.005,-0.006 0.017,-0.017 0.088,-0.022 0.005,-0.006 0.033,0.011 0.1,-0.082 0,-0.006 0.082,-0.137 0.082,-0.137 0,0 0.173,-0.219 -0.04,-0.11 z M 3.963,10.73 Z m 0.164,0.082 -0.016,-0.049 a 0.192,0.192 0 0 0 -0.049,-0.028 0.065,0.065 0 0 0 -0.1,0 0.349,0.349 0 0 1 -0.191,0.076 l -0.06,0.028 a 0.353,0.353 0 0 0 -0.033,0.065 0.284,0.284 0 0 1 -0.081,0.093 c 0,0 -0.028,0.071 -0.033,0.066 a 0.478,0.478 0 0 0 -0.066,0.092 l -0.022,0.044 c 0,0 -0.011,0.044 -0.022,0.038 a 0.2,0.2 0 0 0 -0.065,0.109 c 0,0 0.011,0.028 -0.115,0.137 a 1.337,1.337 0 0 0 -0.093,0.1 L 3.121,11.649 3.056,11.725 3,11.806 a 1.671,1.671 0 0 0 -0.148,0.2 c -0.005,0 -0.033,0.033 -0.033,0.033 l -0.038,0.06 -0.022,0.043 -0.038,0.039 c 0,0 0.022,0.016 0.109,-0.028 a 0.21,0.21 0 0 0 0.033,-0.011 0.247,0.247 0 0 0 0.066,-0.136 c 0,0.005 0.038,-0.044 0.038,-0.044 L 3.016,11.94 c 0,0 0.262,-0.262 0.317,-0.338 A 0.072,0.072 0 0 0 3.376,11.536 0.062,0.062 0 0 1 3.42,11.449 c 0.006,-0.006 0.235,-0.11 0.235,-0.11 a 0.6,0.6 0 0 0 0.464,-0.355 0.273,0.273 0 0 0 0.008,-0.172 z m 5.624,3.3 0.06,-0.061 C 9.866,14.019 9.849,14.002 9.849,14.002 9.822,13.98 9.806,13.926 9.8,13.926 a 0.15,0.15 0 0 0 0,-0.066 c 0,0 -0.038,0.006 -0.033,0 -0.011,-0.054 -0.082,0.006 -0.082,0.006 -0.174,0.06 -0.06,0.087 -0.065,0.093 0.049,0.043 0.022,0.054 0.016,0.054 a 0.06,0.06 0 0 0 0.039,0.071 c 0.06,0.055 0.076,0.028 0.076,0.028 z m 3.222,0.517 c 0,0 -0.014,-0.058 -0.047,-0.065 -0.015,0 -0.032,0 -0.049,0.024 a 0.416,0.416 0 0 1 -0.14,0.1 v 0 c -0.03,0.007 -0.047,0.02 -0.051,0.037 -0.004,0.017 0.009,0.04 0.039,0.064 h 0.017 a 0.186,0.186 0 0 0 0.091,0.015 h 0.01 c 0.013,0 0.036,0 0.075,-0.045 a 0.133,0.133 0 0 0 0.056,-0.129 z m -3.08,-0.867 c 0.065,0.027 0.055,0.06 0.055,0.06 L 9.98,13.784 c 0.028,-0.049 0.044,-0.027 0.049,-0.027 0.1,0 0.115,-0.039 0.115,-0.039 0.088,-0.005 0.066,-0.087 0.066,-0.076 0,-0.077 -0.077,-0.055 -0.088,-0.06 A 0.355,0.355 0 0 0 10,13.565 C 9.874,13.543 9.863,13.614 9.863,13.614 v 0 c -0.038,0.028 -0.016,0.082 -0.016,0.082 -0.02,0.083 0.053,0.055 0.046,0.066 z M 7.189,14.024 A 0.206,0.206 0 0 0 7.168,13.975 0.311,0.311 0 0 0 7.108,13.931 C 7.041,13.875 7.024,13.904 7.024,13.909 A 0.425,0.425 0 0 0 6.911,13.882 v 0 c -0.044,-0.016 -0.033,0.044 -0.022,0.044 0.038,-0.006 0.022,0.043 0.011,0.032 -0.005,0.044 -0.027,0.066 -0.033,0.06 -0.082,0.006 0,0.11 0,0.11 0.027,0.027 0.027,0.043 0.027,0.043 l 0.033,0.017 0.044,0.032 a 0.157,0.157 0 0 0 0.163,0 l 0.033,0.006 0.022,-0.06 0.027,-0.033 V 14.079 C 7.217,14.008 7.189,14.03 7.189,14.024 Z m 0.093,-0.557 a 0.085,0.085 0 0 0 0.033,-0.066 0.3,0.3 0 0 1 0.044,-0.1 C 7.408,13.247 7.168,13.115 7.168,13.115 v 0 c -0.093,-0.114 -0.1,0.05 -0.1,0.05 L 7.04,13.236 7.018,13.269 C 7.018,13.269 7,13.4 7,13.4 c -0.036,0.1 0,0.094 0.005,0.088 0.011,0.054 0,0.086 0,0.086 a 0.092,0.092 0 0 0 0.137,0.071 c 0,-0.038 0.054,-0.043 0.054,-0.043 0,-0.061 0.022,-0.066 0.033,-0.071 0.026,-0.059 0.053,-0.064 0.053,-0.064 z m -0.027,0.165 z m 4.211,1.938 z m 0,0 z m -10e-4,0.002 z M 21.981,9.58 v 0 a 0.252,0.252 0 0 0 -0.133,-0.185 0.343,0.343 0 0 0 -0.3,0.04 l -0.071,0.022 v 0 A 4.506,4.506 0 0 1 20.346,9.725 H 20.294 A 6.364,6.364 0 0 1 18.845,9.458 l -0.036,-0.01 a 1.82,1.82 0 0 0 -1.613,0.084 1.374,1.374 0 0 0 -0.487,1.139 1.047,1.047 0 0 1 -0.592,-0.124 c -0.026,-0.02 -0.082,-0.054 -0.249,-0.155 v 0 c -0.207,-0.124 -0.49,-0.294 -0.667,-0.42 L 15.172,9.951 A 3.171,3.171 0 0 0 14.231,9.489 4.212,4.212 0 0 0 12.323,9.369 c -0.028,0 -0.074,0.009 -0.175,0.025 -0.181,0.029 -0.484,0.078 -0.756,0.106 a 0.776,0.776 0 0 0 -0.119,0.008 v 0 a 8.03,8.03 0 0 1 -1.141,0.036 0.346,0.346 0 0 0 -0.06,0 A 1,1 0 0 1 9.503,9.427 L 9.478,9.4 C 9.455,9.375 9.444,9.359 9.445,9.351 9.446,9.343 9.454,9.334 9.487,9.316 v 0 L 9.497,9.31 9.524,9.3 v 0 A 0.181,0.181 0 0 0 9.581,9.182 C 9.581,9.129 9.554,9.039 9.352,9.029 A 1,1 0 0 0 8.882,9.101 0.046,0.046 0 0 1 8.858,9.079 0.136,0.136 0 0 1 8.878,8.979 1.182,1.182 0 0 0 9.038,8.806 C 9.094,8.728 9.138,8.615 9.1,8.549 9.038,8.441 8.85,8.397 8.527,8.417 v 0 A 5.311,5.311 0 0 0 7.2,8.748 0.247,0.247 0 0 1 7.081,8.768 v 0 A 0.154,0.154 0 0 0 7.06,8.617 C 6.981,8.517 6.779,8.517 6.426,8.608 L 6.367,8.623 v 0 c -0.06,0.023 -0.172,0.07 -0.4,0.164 v 0 H 5.956 V 8.784 a 0.193,0.193 0 0 0 0,-0.027 0.246,0.246 0 0 0 -0.1,-0.161 0.218,0.218 0 0 0 -0.162,-0.03 v 0 A 3.046,3.046 0 0 0 5.018,8.872 C 4.918,8.932 4.835,8.986 4.785,9.019 L 4.74,9.05 V 9.044 L 4.689,9.088 A 0.017,0.017 0 0 1 4.674,9.094 C 4.628,9.084 4.557,8.975 4.531,8.918 A 0.294,0.294 0 0 0 4.21,8.7 v 0 0 C 3.776,8.892 3.819,9.486 3.833,9.609 v 0 a 0.156,0.156 0 0 1 0,0.041 3.227,3.227 0 0 0 -0.422,0.265 0.922,0.922 0 0 0 -0.416,0.537 v 0.007 0.007 0.015 a 0.871,0.871 0 0 1 -0.117,0.385 c -0.079,0.111 -0.775,1.188 -0.78,1.2 a 0.405,0.405 0 0 0 -0.028,0.5 0.639,0.639 0 0 1 0.084,0.257 v 0.008 0.008 0 a 0.381,0.381 0 0 0 0.217,0.241 0.386,0.386 0 0 0 0.159,0.042 v 0 a 0.738,0.738 0 0 1 0.2,0.045 H 2.745 A 1.345,1.345 0 0 0 3.098,13.079 0.334,0.334 0 0 0 3.305,12.85 v -0.008 a 2.142,2.142 0 0 1 0.6,-0.757 l 0.061,-0.041 c 0.1,-0.062 0.3,-0.185 0.472,-0.285 a 2.948,2.948 0 0 0 0.825,-0.66 l 0.068,0.032 v 0 a 3.565,3.565 0 0 1 0.688,0.375 1.605,1.605 0 0 1 0.705,0.835 l 0.012,0.056 a 1.97,1.97 0 0 1 -0.054,0.438 c -0.054,0.284 -0.139,0.707 -0.161,0.76 a 0.852,0.852 0 0 0 -0.058,0.414 v 0.014 a 1.986,1.986 0 0 0 0.18,0.533 c 0.009,0.024 0.055,0.112 0.232,0.106 h 0.02 0.007 A 0.444,0.444 0 0 0 7.025,14.64 c 0.041,-0.01 0.49,-0.089 0.612,-0.1 h 0.01 a 2.4,2.4 0 0 1 0.908,0.042 l 0.039,0.024 c 0.057,0.032 0.176,0.1 0.2,0.2 v 0 A 0.337,0.337 0 0 0 9.084,15 c 0.019,0.007 0.088,0.032 0.2,0.066 a 0.042,0.042 0 0 1 0.025,0.016 c 0,0 0,0.014 -0.012,0.033 l -0.014,0.014 a 0.755,0.755 0 0 1 -0.548,0.217 v 0 a 0.16,0.16 0 0 0 -0.144,0.087 c -0.11,0.1 -0.287,0.291 -0.268,0.442 a 0.17,0.17 0 0 0 0.094,0.132 v 0 a 1.407,1.407 0 0 0 0.267,0.013 c 0.277,0 0.682,-0.014 0.78,-0.029 A 0.058,0.058 0 0 0 9.508,15.965 H 9.517 V 15.942 A 0.082,0.082 0 0 1 9.593,15.906 H 9.82 a 0.293,0.293 0 0 0 0.246,-0.06 l 0.012,-0.009 a 0.453,0.453 0 0 1 0.436,-0.112 v 0 0 a 0.919,0.919 0 0 1 0.383,0.187 v 0 a 0.548,0.548 0 0 0 0.223,0.066 c 0.01,0 0.145,0.013 0.233,0.023 a 0.094,0.094 0 0 0 0.089,-0.034 l 0.022,-0.025 a 6.114,6.114 0 0 0 0.4,-0.5 0.135,0.135 0 0 0 0.068,-0.088 c 0,-0.031 0,-0.088 -0.1,-0.118 a 2.519,2.519 0 0 0 -0.585,-0.132 1.547,1.547 0 0 1 0.522,-0.243 h 0.024 a 0.157,0.157 0 0 1 0.088,0.017 v 0 l 0.025,0.006 0.053,0.014 a 4.135,4.135 0 0 0 0.758,0.142 0.427,0.427 0 0 0 0.265,0.025 0.243,0.243 0 0 0 0.179,-0.179 2.33,2.33 0 0 1 0.311,-0.563 0.353,0.353 0 0 0 0.025,-0.03 1.811,1.811 0 0 1 0.721,-0.6 3.14,3.14 0 0 0 0.576,-0.255 v 0 a 4.323,4.323 0 0 0 1.167,-1.4 v 0 a 0.55,0.55 0 0 1 0.542,-0.323 v 0 l 0.881,-0.011 a 0.588,0.588 0 0 0 0.651,-0.281 v 0 c 0.089,-0.194 0.293,-0.514 0.5,-0.483 v 0 a 4.133,4.133 0 0 1 0.765,0.183 v 0 a 4.652,4.652 0 0 0 0.762,0.08 2.013,2.013 0 0 0 1.268,-0.308 1.194,1.194 0 0 0 0.651,-1.315 z m -0.657,1.256 v 0 0 a 2.034,2.034 0 0 1 -1.23,0.3 4.551,4.551 0 0 1 -0.75,-0.079 4.128,4.128 0 0 0 -0.779,-0.185 c -0.128,-0.019 -0.26,0.06 -0.392,0.236 a 1.734,1.734 0 0 0 -0.167,0.282 0.527,0.527 0 0 1 -0.586,0.248 v 0 l -0.886,0.011 a 0.613,0.613 0 0 0 -0.6,0.359 4.262,4.262 0 0 1 -1.147,1.384 3.107,3.107 0 0 1 -0.56,0.247 v 0 a 1.865,1.865 0 0 0 -0.749,0.622 l -0.022,0.026 v 0 a 2.357,2.357 0 0 0 -0.322,0.585 v 0 A 0.185,0.185 0 0 1 13,15.007 v 0 a 0.373,0.373 0 0 1 -0.226,-0.025 h -0.006 -0.006 a 3.966,3.966 0 0 1 -0.751,-0.14 l -0.054,-0.014 -0.022,-0.005 a 0.218,0.218 0 0 0 -0.116,-0.021 0.033,0.033 0 0 1 -0.014,0 v 0 a 1.636,1.636 0 0 0 -0.559,0.256 l -0.027,0.016 v 0 a 0.052,0.052 0 0 0 -0.025,0.049 0.048,0.048 0 0 0 0.034,0.039 h 0.008 a 2.423,2.423 0 0 1 0.616,0.131 v 0 q 0.062,0.02 0.057,0.051 a 0.082,0.082 0 0 1 -0.043,0.047 h -0.008 l -0.005,0.008 a 4.836,4.836 0 0 1 -0.4,0.5 l -0.024,0.028 v 0 c 0,0.005 -0.019,0.008 -0.031,0.006 L 11.163,15.91 a 0.5,0.5 0 0 1 -0.2,-0.056 0.958,0.958 0 0 0 -0.406,-0.2 0.508,0.508 0 0 0 -0.494,0.12 l -0.009,0.007 v 0 a 0.235,0.235 0 0 1 -0.2,0.049 v 0 h -0.26 a 0.135,0.135 0 0 0 -0.136,0.085 v 0 0 0 A 8.813,8.813 0 0 1 8.445,15.937 0.112,0.112 0 0 1 8.384,15.853 c -0.011,-0.09 0.083,-0.237 0.252,-0.392 v 0 0 c 0.048,-0.068 0.08,-0.064 0.091,-0.063 H 8.74 A 0.81,0.81 0 0 0 9.331,15.161 L 9.342,15.15 v 0 0 A 0.1,0.1 0 0 0 9.362,15.058 0.1,0.1 0 0 0 9.297,15.005 C 9.176,14.97 9.108,14.944 9.097,14.94 v 0 0 A 0.282,0.282 0 0 1 8.87,14.8 v 0 0 A 0.444,0.444 0 0 0 8.639,14.562 L 8.6,14.535 v 0 0 A 1.912,1.912 0 0 0 7.911,14.467 H 7.92 l -0.076,0.007 c -0.08,0.005 -0.146,0.012 -0.185,0.017 H 7.647 c -0.121,0.011 -0.583,0.091 -0.625,0.1 v 0 A 0.376,0.376 0 0 1 6.914,14.61 H 6.899 6.889 C 6.742,14.615 6.718,14.546 6.717,14.543 v 0 0 A 1.9,1.9 0 0 1 6.544,14.027 V 14.013 A 0.784,0.784 0 0 1 6.599,13.635 C 6.631,13.554 6.762,12.87 6.763,12.864 A 2.02,2.02 0 0 0 6.818,12.41 L 6.8,12.336 C 6.659,11.66 5.5,11.123 5.367,11.081 a 0.659,0.659 0 0 0 -0.1,-0.043 H 5.251 l -0.02,0.022 v 0 A 2.8,2.8 0 0 1 4.418,11.713 C 4.248,11.813 4.044,11.937 3.944,12 l -0.062,0.041 a 2.231,2.231 0 0 0 -0.621,0.788 v 0.015 A 0.272,0.272 0 0 1 3.089,13.03 1.508,1.508 0 0 1 2.776,13.115 H 2.769 a 0.772,0.772 0 0 0 -0.217,-0.049 0.532,0.532 0 0 1 -0.13,-0.03 v 0 0 a 0.33,0.33 0 0 1 -0.188,-0.2 L 2.229,12.824 A 0.735,0.735 0 0 0 2.135,12.542 v 0 a 0.352,0.352 0 0 1 0.029,-0.427 c 0.006,-0.01 0.71,-1.1 0.78,-1.2 v 0 A 0.864,0.864 0 0 0 3.067,10.487 V 10.48 10.474 C 3.122,10.116 3.805,9.758 3.883,9.718 h 0.01 V 9.708 A 0.156,0.156 0 0 0 3.898,9.626 v 0 C 3.885,9.516 3.842,8.958 4.235,8.78 a 0.232,0.232 0 0 1 0.251,0.178 v 0 c 0,0 0.09,0.19 0.186,0.211 a 0.055,0.055 0 0 0 0.018,0 V 9.197 L 4.742,9.147 A 0.976,0.976 0 0 1 4.83,9.084 C 4.879,9.051 4.959,8.998 5.06,8.939 a 2.974,2.974 0 0 1 0.661,-0.3 0.161,0.161 0 0 1 0.114,0.022 0.185,0.185 0 0 1 0.07,0.124 V 8.797 8.79 c 0,0.032 0,0.048 0.018,0.058 0.018,0.01 0.043,0.011 0.079,0 H 6 C 6.306,8.72 6.409,8.677 6.441,8.67 L 6.5,8.652 v 0 c 0.283,-0.069 0.456,-0.068 0.512,0 a 0.1,0.1 0 0 1 0.009,0.1 V 8.759 8.766 A 0.073,0.073 0 0 0 7.053,8.823 C 7.1,8.85 7.196,8.823 7.225,8.808 A 5.349,5.349 0 0 1 8.533,8.474 v 0 C 8.899,8.452 9.015,8.517 9.049,8.574 9.068,8.607 9.041,8.694 8.99,8.764 A 1.08,1.08 0 0 1 8.838,8.928 H 8.832 V 8.934 A 0.192,0.192 0 0 0 8.8,9.1 0.113,0.113 0 0 0 8.871,9.16 h 0.011 0.01 A 0.937,0.937 0 0 1 9.336,9.087 h 0.008 c 0.081,0 0.176,0.022 0.174,0.09 A 0.119,0.119 0 0 1 9.464,9.265 L 9.422,9.282 V 9.288 A 0.093,0.093 0 0 0 9.383,9.345 c -0.007,0.041 0.028,0.079 0.049,0.1 L 9.444,9.46 v 0 0 a 1.049,1.049 0 0 0 0.611,0.132 0.221,0.221 0 0 1 0.049,0 v 0 a 8.179,8.179 0 0 0 1.152,-0.036 v 0 a 0.852,0.852 0 0 1 0.11,-0.008 h 0.006 c 0.275,-0.028 0.58,-0.077 0.763,-0.107 0.09,-0.014 0.144,-0.023 0.169,-0.024 v 0 a 3.744,3.744 0 0 1 2.805,0.57 l 0.03,0.021 c 0.178,0.128 0.463,0.3 0.67,0.423 v 0 c 0.167,0.1 0.225,0.135 0.245,0.152 v 0 0 c 0.39,0.154 0.6,0.158 0.667,0.115 l 0.013,-0.009 v -0.016 a 1.329,1.329 0 0 1 0.461,-1.11 1.771,1.771 0 0 1 1.56,-0.076 l 0.037,0.011 a 6.444,6.444 0 0 0 1.464,0.27 v 0 a 0.329,0.329 0 0 1 0.045,0 v 0 a 4.547,4.547 0 0 0 1.156,-0.271 v 0 c 0.034,-0.011 0.057,-0.019 0.071,-0.022 v 0 0 a 0.289,0.289 0 0 1 0.251,-0.039 0.191,0.191 0 0 1 0.1,0.141 1.132,1.132 0 0 1 -0.555,1.259 z M 2.68,12.259 a 0.064,0.064 0 0 0 0,0.093 c 0,0.093 0.076,-0.049 0.076,-0.049 C 2.816,12.205 2.68,12.259 2.68,12.259 Z M 21.793,9.486 a 0.266,0.266 0 0 0 -0.224,0.041 l -0.081,0.026 a 4.409,4.409 0 0 1 -1.171,0.272 h -0.044 a 6.477,6.477 0 0 1 -1.47,-0.271 v 0 a 0.238,0.238 0 0 1 -0.038,-0.011 1.734,1.734 0 0 0 -1.527,0.071 1.305,1.305 0 0 0 -0.447,1.1 0.044,0.044 0 0 1 -0.038,0.041 c -0.051,0.03 -0.193,0.064 -0.694,-0.12 a 2.6,2.6 0 0 1 -0.252,-0.158 c -0.2,-0.142 -0.494,-0.3 -0.674,-0.425 v 0 L 15.116,10.04 A 3.689,3.689 0 0 0 12.328,9.468 l -0.172,0.025 c -0.184,0.029 -0.493,0.079 -0.769,0.107 0,0 -0.071,0 -0.114,0.007 A 8.226,8.226 0 0 1 10.115,9.644 H 10.067 A 1.058,1.058 0 0 1 9.43,9.5 L 9.412,9.478 A 0.163,0.163 0 0 1 9.354,9.347 0.152,0.152 0 0 1 9.446,9.247 L 9.458,9.241 C 9.47,9.227 9.489,9.2 9.483,9.18 9.477,9.16 9.462,9.138 9.34,9.134 L 9.308,9.12 a 1.056,1.056 0 0 0 -0.4,0.074 c 0,0 -0.041,0.006 -0.041,0.006 A 0.175,0.175 0 0 1 8.767,9.118 C 8.724,9.062 8.814,8.908 8.814,8.908 8.856,8.875 9.033,8.687 9.014,8.623 c 0,0 0,-0.033 -0.011,-0.044 C 8.992,8.568 8.88,8.493 8.532,8.514 A 5.558,5.558 0 0 0 7.238,8.845 v 0 A 0.334,0.334 0 0 1 7.115,8.875 0.111,0.111 0 0 1 6.986,8.767 V 8.751 a 0.071,0.071 0 0 0 0,-0.071 C 6.963,8.652 6.862,8.598 6.449,8.705 6.417,8.715 6.167,8.819 6.013,8.883 5.943,8.913 5.907,8.894 5.889,8.872 A 0.1,0.1 0 0 1 5.869,8.801 0.166,0.166 0 0 0 5.811,8.683 0.122,0.122 0 0 0 5.725,8.666 3.544,3.544 0 0 0 4.763,9.166 0.12,0.12 0 0 1 4.619,9.178 0.546,0.546 0 0 1 4.453,8.966 C 4.4,8.8 4.29,8.8 4.243,8.8 3.888,8.961 3.916,9.459 3.933,9.607 A 0.16,0.16 0 0 1 3.914,9.728 l -0.01,0.008 c -0.008,0 -0.749,0.378 -0.8,0.732 a 0.881,0.881 0 0 1 -0.126,0.456 c -0.025,0.035 -0.684,1.036 -0.767,1.17 a 0.166,0.166 0 0 1 -0.013,0.027 0.334,0.334 0 0 0 -0.036,0.382 0.681,0.681 0 0 1 0.106,0.3 l 0.005,0.014 A 0.3,0.3 0 0 0 2.446,13 h 0.01 a 0.966,0.966 0 0 0 0.107,0.022 0.815,0.815 0 0 1 0.228,0.052 1.3,1.3 0 0 0 0.288,-0.074 0.245,0.245 0 0 0 0.154,-0.161 1.748,1.748 0 0 1 0.182,-0.331 1.827,1.827 0 0 1 0.456,-0.492 6.163,6.163 0 0 1 0.538,-0.33 2.853,2.853 0 0 0 0.8,-0.643 l 0.009,-0.011 c 0.046,-0.057 0.225,0.042 0.337,0.1 0.268,0.13 1.15,0.6 1.279,1.2 a 1.324,1.324 0 0 1 -0.04,0.537 c 0,0.029 -0.132,0.693 -0.166,0.777 A 0.772,0.772 0 0 0 6.577,14 v 0 0.012 a 1.741,1.741 0 0 0 0.174,0.516 c 0,0 0.025,0.049 0.135,0.046 a 0.127,0.127 0 0 1 0.028,0 0.336,0.336 0 0 0 0.1,-0.016 2.116,2.116 0 0 1 0.276,-0.052 c 0.065,-0.011 0.282,-0.047 0.362,-0.054 v 0 a 2.427,2.427 0 0 1 0.965,0.052 l 0.021,0.008 v 0.007 l 0.019,0.011 a 0.469,0.469 0 0 1 0.247,0.262 v 0 a 0.259,0.259 0 0 0 0.2,0.12 h 0.008 c 0.065,0.024 0.132,0.046 0.2,0.065 a 0.135,0.135 0 0 1 0.089,0.075 0.139,0.139 0 0 1 -0.027,0.128 l -0.016,0.023 v 0 a 0.839,0.839 0 0 1 -0.606,0.244 0.041,0.041 0 0 1 -0.019,0 c -0.017,0 -0.039,0.013 -0.064,0.05 l -0.006,0.008 v 0 c -0.118,0.109 -0.252,0.269 -0.24,0.362 a 0.071,0.071 0 0 0 0.041,0.055 c 0.07,0.005 0.753,0.008 0.971,-0.02 a 0.187,0.187 0 0 1 0.164,-0.09 h 0.245 c 0.08,0.033 0.179,-0.049 0.181,-0.051 a 0.542,0.542 0 0 1 0.527,-0.124 0.947,0.947 0 0 1 0.414,0.2 0.375,0.375 0 0 0 0.173,0.05 l 0.231,0.021 0.018,-0.006 a 5.812,5.812 0 0 0 0.416,-0.516 l 0.009,-0.018 h 0.012 c 0.009,0 0.023,-0.026 -0.009,-0.035 A 2.349,2.349 0 0 0 11.2,15.2 c 0,0 -0.094,-0.021 -0.1,-0.057 -0.006,-0.036 0.033,-0.07 0.073,-0.1 l 0.03,-0.018 a 1.856,1.856 0 0 1 0.576,-0.26 H 11.8 a 0.242,0.242 0 0 1 0.13,0.022 c 0.014,0 0.035,0.008 0.074,0.018 a 3.971,3.971 0 0 0 0.749,0.14 l 0.02,0.007 a 0.372,0.372 0 0 0 0.2,0.022 0.192,0.192 0 0 0 0.116,-0.116 2.4,2.4 0 0 1 0.327,-0.593 l 0.025,-0.03 v 0 a 1.9,1.9 0 0 1 0.77,-0.633 3.424,3.424 0 0 0 0.548,-0.243 4.258,4.258 0 0 0 1.134,-1.368 0.653,0.653 0 0 1 0.63,-0.378 l 0.893,-0.01 a 0.486,0.486 0 0 0 0.562,-0.254 c 0.015,-0.039 0.223,-0.565 0.58,-0.512 v 0 a 5.305,5.305 0 0 1 0.781,0.187 2.757,2.757 0 0 0 1.952,-0.215 c 0,0 0.005,0 0,0 A 1.108,1.108 0 0 0 21.871,9.6 0.162,0.162 0 0 0 21.793,9.486 Z M 5.807,9.186 A 3.45,3.45 0 0 1 6.791,8.755 C 6.891,8.738 6.9,8.749 6.9,8.755 6.977,8.809 6.829,8.891 6.818,8.886 A 2.175,2.175 0 0 0 6.479,9.104 c -0.12,0.088 0.028,0.071 0.028,0.071 0,0 0.306,0.017 0.3,0.022 A 1.3,1.3 0 0 0 7.184,9.06 C 8.479,8.449 8.823,8.629 8.817,8.634 8.894,8.656 8.784,8.705 8.784,8.705 A 0.985,0.985 0 0 1 8.599,8.864 0.436,0.436 0 0 1 8.407,8.946 C 8.336,8.962 8.342,8.968 8.342,8.968 c 0,0 -0.027,0.06 -0.027,0.049 0,0.049 -0.066,0.043 -0.066,0.038 A 1.12,1.12 0 0 0 7.834,9.126 c -0.1,0.076 0,0.049 0,0.055 A 0.324,0.324 0 0 1 8.025,9.186 0.05,0.05 0 0 1 8.063,9.268 C 8.014,9.339 8.09,9.322 8.085,9.328 8.156,9.344 8.178,9.377 8.172,9.372 A 0.075,0.075 0 0 1 8.107,9.492 3.2,3.2 0 0 1 7.774,9.437 9.225,9.225 0 0 0 6.463,9.295 3.375,3.375 0 0 0 5.851,9.328 c -0.093,0.011 -0.087,0 -0.093,0 -0.1,-0.093 0.055,-0.147 0.049,-0.142 z m 2.7,-0.087 c 0,0 -0.011,0.141 -0.1,0.147 0,0 -0.153,-0.022 -0.092,-0.142 A 0.34,0.34 0 0 1 8.44,9.017 v 0 c 0,0 0.109,-0.093 0.087,0.054 C 8.533,9.07 8.506,9.1 8.506,9.1 Z M 4.896,9.306 a 2.964,2.964 0 0 1 0.732,-0.5 c 0.17,-0.071 0.115,0.043 0.115,0.043 0,0 -0.257,0.3 -0.251,0.306 C 5.432,9.226 5.366,9.21 5.377,9.204 A 0.476,0.476 0 0 0 5.219,9.254 C 5.109,9.292 4.989,9.346 4.984,9.346 4.841,9.36 4.9,9.305 4.895,9.305 Z M 4.765,9.617 v 0 C 4.924,9.541 4.825,9.639 4.825,9.645 4.782,9.677 4.793,9.71 4.793,9.71 4.628,9.737 4.764,9.616 4.764,9.616 Z M 4.083,9.148 c 0,-0.006 0.043,-0.077 0.065,-0.066 0.006,0 -0.027,-0.12 0.071,-0.147 v 0 c 0,0 0.071,-0.088 0.093,0.032 A 2.158,2.158 0 0 0 4.421,9.208 C 4.427,9.219 4.394,9.23 4.454,9.273 a 0.1,0.1 0 0 1 0.038,0.148 c 0.006,0 -0.076,0.158 -0.054,0.246 l 0.2,-0.044 c 0,0 0.109,-0.033 0.033,0.076 A 0.223,0.223 0 0 1 4.491,9.781 0.137,0.137 0 0 0 4.409,9.814 c 0,0 -0.082,0.027 -0.082,-0.06 A 0.667,0.667 0 0 1 4.354,9.443 c -0.011,0 0.038,-0.017 0,-0.066 0.006,0 -0.087,-0.158 -0.115,-0.131 0.011,0.011 -0.06,0.055 -0.038,0.1 0.006,0 0.077,0.044 -0.022,0.049 A 0.236,0.236 0 0 1 4.082,9.147 Z M 3.219,10.54 c 0,0 0,-0.1 0.065,-0.12 0,0 0.032,0.029 0.017,-0.066 A 0.344,0.344 0 0 1 3.41,10.174 4.2,4.2 0 0 1 3.934,9.846 c 0,0 0.087,-0.044 0.12,-0.027 0,0 0.034,-0.041 0.034,-0.041 v 0 L 4.043,9.7 4.054,9.53 c 0,0 0.044,-0.087 0.066,0.011 a 0.328,0.328 0 0 1 0,0.229 c 0,0 -0.033,0 -0.038,0.061 0,-0.011 0.022,0.033 -0.038,0.071 a 1.7,1.7 0 0 0 -0.486,0.289 0.4,0.4 0 0 1 -0.11,0.06 0.229,0.229 0 0 0 -0.1,0.148 0.2,0.2 0 0 1 -0.033,0.016 l 0.016,0.033 a 0.093,0.093 0 0 1 0.011,0.115 0.821,0.821 0 0 1 -0.147,0.257 c -0.011,0.005 -0.077,0.01 -0.039,-0.1 -0.003,0.011 0.063,-0.18 0.063,-0.18 z m -0.874,1.545 c 0,0 0.027,-0.038 0.022,-0.044 a 7.78,7.78 0 0 0 0.442,-0.7 L 2.874,11.265 A 0.31,0.31 0 0 1 2.913,11.21 c 0.027,-0.054 0.049,0.017 0.049,0.022 A 0.148,0.148 0 0 1 2.94,11.341 c -0.016,0.028 -0.131,0.181 -0.131,0.181 a 0.528,0.528 0 0 1 -0.055,0.065 1.409,1.409 0 0 1 -0.2,0.322 L 2.487,12 c -0.071,0.06 -0.071,0.1 -0.071,0.1 l -0.06,0.093 -0.038,-0.038 z m 6.16,2.272 c -0.027,0.028 -0.142,-0.011 -0.142,-0.011 0,0 -0.092,0.006 -0.092,-0.005 a 1.745,1.745 0 0 0 -0.568,0.005 c -0.137,0.022 -0.394,0.039 -0.394,0.039 a 1.538,1.538 0 0 0 -0.163,0.027 c -0.017,0.038 -0.2,0.027 -0.2,0.027 -0.12,0 -0.147,-0.125 -0.152,-0.131 C 6.788,14.183 6.739,14.166 6.739,14.161 A 0.633,0.633 0 0 1 6.668,13.904 c 0,-0.1 0.033,-0.1 0.033,-0.1 a 0.433,0.433 0 0 0 0.043,-0.115 1.249,1.249 0 0 0 0.071,-0.344 0.663,0.663 0 0 0 0.017,-0.087 c 0.055,-0.246 0.093,-0.513 0.093,-0.519 0.043,-0.1 0.136,0.109 0.136,0.109 v 0 A 0.838,0.838 0 0 0 7.296,13.1 c 0.066,0.049 0.071,0.054 0.071,0.054 a 0.5,0.5 0 0 1 0.06,0.055 c 0.077,0.071 0.016,0.136 0.006,0.136 a 0.031,0.031 0 0 0 -0.017,0.044 0.339,0.339 0 0 1 -0.027,0.044 c -0.006,0.043 -0.033,0.043 -0.038,0.049 a 0.033,0.033 0 0 0 -0.023,0.04 C 7.301,13.564 7.29,13.597 7.285,13.597 a 0.412,0.412 0 0 1 -0.027,0.039 0.818,0.818 0 0 1 -0.022,0.108 0.286,0.286 0 0 0 0.142,0.279 0.119,0.119 0 0 0 0.131,0.011 H 8 c 0,0 0.038,0.005 0.038,0.011 0.049,0.032 0.125,-0.05 0.125,-0.044 0.055,-0.049 0.1,-0.039 0.093,-0.033 a 0.1,0.1 0 0 1 0.12,0.066 c 0.055,0.032 0.1,0.18 0.11,0.191 0.021,0.011 0.071,0.071 0.06,0.065 0.036,0.056 -0.03,0.056 -0.041,0.067 z M 8.053,13.8 c -0.043,0.061 -0.3,0.062 -0.3,0.062 L 7.474,13.841 a 0.122,0.122 0 0 1 -0.079,-0.051 0.117,0.117 0 0 1 0,-0.086 V 13.687 13.7 a 0.694,0.694 0 0 1 0.207,-0.309 c 0.062,-0.051 0.106,-0.016 0.11,-0.012 0.055,0.055 0.138,0.142 0.211,0.218 0.073,0.076 0.114,0.119 0.133,0.136 0.019,0.046 0.005,0.066 0,0.073 z m 3.26,1.471 c 0,-0.006 0.049,0 0.049,0 l 0.055,0.011 v 0 c 0,0 0.044,0.049 -0.011,0.077 l -0.06,-0.011 c 0,0 -0.115,-0.024 -0.033,-0.073 z m -0.207,0.289 c -0.033,0.066 0.049,0.071 0.049,0.071 h 0.262 l 0.005,-0.038 0.044,-0.027 a 0.131,0.131 0 0 1 0.071,-0.093 c 0.049,-0.049 -0.027,-0.1 -0.06,-0.093 l -0.038,-0.049 c 0,0 0.06,-0.033 0.06,-0.027 a 0.266,0.266 0 0 1 0.142,0.06 0.06,0.06 0 0 1 0.022,0.093 c -0.011,0.049 -0.055,0.049 -0.06,0.054 -0.033,0.044 -0.028,0.06 -0.028,0.06 l -0.038,0.011 -0.011,0.044 a 0.55,0.55 0 0 1 -0.142,0.126 c 0,0 -0.033,0.032 -0.033,0.027 -0.06,-0.038 -0.136,0.022 -0.136,0.016 a 0.367,0.367 0 0 1 -0.279,-0.06 l -0.065,-0.071 -0.049,-0.016 -0.039,-0.033 c -0.054,-0.027 -0.071,-0.033 -0.071,-0.033 0,0 -0.032,-0.005 -0.032,0 a 0.455,0.455 0 0 0 -0.186,-0.038 c -0.077,-0.011 -0.017,-0.071 -0.017,-0.071 0.066,-0.022 0.039,-0.038 0.033,-0.038 a 0.316,0.316 0 0 1 0.115,-0.1 h 0.044 a 0.213,0.213 0 0 1 0.076,-0.06 c 0,0 0.06,-0.033 0.055,-0.022 0.049,-0.016 0.054,-0.044 0.06,-0.038 0.027,-0.049 0.065,-0.028 0.065,-0.028 l 0.088,0.012 v 0 a 0.039,0.039 0 0 1 0.033,0.054 c 0,0.033 -0.061,0.016 -0.061,0.016 l -0.054,0.011 -0.038,0.022 -0.055,0.066 c -0.049,0.055 0.005,0.049 0.005,0.049 0.1,0.038 0.148,0.082 0.142,0.087 0.028,0.039 0.11,-0.043 0.11,-0.038 0.065,-0.044 0.016,0.093 0.011,0.098 z m 2.5,-1.649 a 1.3,1.3 0 0 0 -0.519,0.634 1.282,1.282 0 0 1 -0.169,0.322 0.347,0.347 0 0 1 -0.142,0 1.449,1.449 0 0 1 -0.333,-0.044 c 0,0 -0.268,-0.06 -0.41,-0.076 0,-0.006 -0.262,0 -0.109,-0.065 a 4.944,4.944 0 0 1 0.524,-0.039 0.289,0.289 0 0 0 0.241,-0.12 2.751,2.751 0 0 1 0.846,-0.672 c 0,0 0.265,-0.094 0.072,0.064 z m 8.013,-3.566 a 1.807,1.807 0 0 1 -1.42,0.666 8.124,8.124 0 0 1 -1.715,-0.317 c -0.393,-0.076 -0.59,0.426 -0.59,0.415 a 0.731,0.731 0 0 1 -0.7,0.393 3.524,3.524 0 0 0 -1.027,0.055 c -0.306,0.066 -0.764,0.961 -0.775,0.961 a 2.006,2.006 0 0 1 -0.836,0.8 c -0.257,0.131 -0.967,0.41 -0.967,0.41 a 0.284,0.284 0 0 1 -0.1,0.044 3.948,3.948 0 0 0 -0.907,0.721 l -0.027,0.032 -0.12,0.011 -0.06,0.027 -0.05,-0.005 a 1.237,1.237 0 0 0 -0.136,0.005 c -0.071,0.011 -0.278,0.039 -0.278,0.039 l -0.448,0.093 -0.055,0.027 a 1.372,1.372 0 0 1 -0.437,0.235 0.571,0.571 0 0 0 -0.191,0.136 c 0,0 -0.1,0.077 -0.1,0.082 -0.077,0.071 -0.072,0.027 -0.072,0.027 l -0.109,0.071 -0.011,0.039 c -0.082,0.1 -0.136,0.1 -0.142,0.092 A 0.934,0.934 0 0 0 9.937,15.639 C 9.899,15.705 9.849,15.7 9.849,15.7 c 0,0 -0.3,0 -0.3,0.01 a 1.168,1.168 0 0 0 -0.3,0.093 c -0.071,0.033 -0.1,0.033 -0.1,0.027 -0.049,0 -0.109,0 -0.12,-0.01 -0.071,-0.039 -0.295,0.016 -0.295,0.016 0,0 -0.185,0 -0.2,-0.006 -0.077,0 0.011,-0.125 0.011,-0.125 L 8.577,15.694 8.605,15.661 A 0.621,0.621 0 0 1 8.687,15.568 L 8.725,15.53 a 0.263,0.263 0 0 1 0.142,-0.033 c 0.109,0 0.071,0.044 0.071,0.049 -0.011,0.039 -0.12,0.039 -0.12,0.033 a 0.094,0.094 0 0 0 -0.093,0.088 c -0.033,0.054 0.022,0.043 0.022,0.043 h 0.2 C 9.056,15.705 9.078,15.727 9.078,15.727 9.203,15.76 9.231,15.7 9.236,15.7 9.285,15.629 9.313,15.629 9.313,15.634 9.413,15.585 9.302,15.59 9.302,15.585 9.263,15.585 9.258,15.574 9.253,15.568 9.22,15.53 9.214,15.557 9.209,15.557 9.186,15.55 9.174,15.541 9.17,15.532 a 0.2,0.2 0 0 1 -0.016,0.02 c 0,0 -0.061,0.038 -0.077,0 -0.011,0.005 -0.049,-0.033 0.049,-0.06 v 0 c 0,0 0.036,0 0.046,0.016 a 0.119,0.119 0 0 1 0.053,-0.043 1.185,1.185 0 0 0 0.241,-0.208 1.351,1.351 0 0 1 0.551,-0.322 c 0.066,-0.06 0.164,-0.131 0.164,-0.131 l 0.109,-0.039 0.066,-0.049 0.082,-0.032 a 0.21,0.21 0 0 1 0.1,-0.066 c 0.076,-0.049 0.109,-0.06 0.109,-0.055 A 1.223,1.223 0 0 0 10.8,14.471 c 0.169,-0.061 0.388,-0.164 0.388,-0.164 a 0.6,0.6 0 0 1 0.081,-0.039 0.57,0.57 0 0 0 0.192,-0.163 0.672,0.672 0 0 1 0.262,-0.175 c 0.065,-0.006 0.06,-0.038 0.065,-0.038 a 0.133,0.133 0 0 1 0.082,-0.115 l 0.011,-0.038 0.06,-0.055 0.028,-0.044 0.136,-0.2 0.017,-0.049 a 0.615,0.615 0 0 1 0.021,-0.153 0.478,0.478 0 0 0 0.071,-0.213 l 0.017,-0.06 C 12.247,12.889 12.22,12.872 12.22,12.872 l 0.005,-0.049 c 0,0 -0.005,-0.049 -0.005,-0.06 a 0.237,0.237 0 0 0 0.049,-0.142 0.555,0.555 0 0 0 0.011,-0.317 l -0.011,-0.071 c 0.022,-0.087 0,-0.109 0,-0.115 0.005,-0.043 -0.229,-0.06 -0.229,-0.06 l -0.044,-0.005 c 0,0 -0.055,0.027 -0.06,0.027 -0.131,0.044 -0.077,0.208 -0.077,0.219 0,0.065 -0.043,0.054 -0.049,0.054 -0.049,0.006 -0.038,0.028 -0.049,0.022 a 0.152,0.152 0 0 1 -0.065,0.027 0.955,0.955 0 0 0 -0.137,0.033 l -0.055,0.022 -0.043,0.005 a 0.225,0.225 0 0 1 -0.055,0.017 0.371,0.371 0 0 0 -0.2,0.044 c 0,0 -0.055,0.016 -0.06,0.016 a 0.276,0.276 0 0 0 -0.153,0.016 7.389,7.389 0 0 1 -0.721,0.2 1.734,1.734 0 0 1 -0.35,0.054 c -0.147,0.022 -0.1,-0.005 -0.109,-0.011 a 0.364,0.364 0 0 0 -0.284,0 c -0.071,0.038 -0.148,0.1 -0.148,0.1 -0.043,0.016 -0.049,-0.016 -0.054,-0.016 -0.049,-0.044 0,-0.088 0,-0.1 C 9.354,12.717 9.305,12.717 9.305,12.717 A 0.327,0.327 0 0 0 9.223,12.7 c -0.022,0.011 -0.049,0.006 -0.06,0.011 -0.082,0 -0.027,0.049 -0.033,0.044 0.017,0.1 -0.022,0.076 -0.016,0.065 -0.033,0 -0.022,0.071 -0.022,0.071 0,0.071 -0.022,0.142 -0.033,0.142 -0.038,0.039 -0.011,0.077 -0.011,0.071 -0.038,0.082 0.077,0.1 0.077,0.11 a 0.1,0.1 0 0 1 0.06,0.1 c 0.049,0.174 0.142,0.409 0.147,0.42 a 0.829,0.829 0 0 1 0.11,0.393 c 0,0 0.021,0.077 0.032,0.082 a 0.954,0.954 0 0 1 0.263,0.241 c 0.114,0.093 -0.044,0.043 -0.05,0.043 A 0.086,0.086 0 0 1 9.616,14.455 c 0,0 -0.087,-0.066 -0.1,-0.071 C 9.494,14.351 9.467,14.34 9.462,14.346 A 0.417,0.417 0 0 0 9.303,14.264 L 9.249,14.209 A 0.159,0.159 0 0 1 9.199,14.1 1.554,1.554 0 0 0 9.112,13.7 c 0,0 0.016,-0.033 -0.049,-0.115 A 0.871,0.871 0 0 1 9.025,13.485 0.612,0.612 0 0 0 8.965,13.365 0.263,0.263 0 0 0 8.932,13.311 0.2,0.2 0 0 1 8.85,13.19 0.579,0.579 0 0 0 8.823,13.119 c -0.006,0.006 -0.05,-0.027 -0.011,-0.087 0.011,0 0.027,0.016 0.027,-0.12 0,-0.005 -0.033,-0.082 0.136,-0.2 0,0 0.137,-0.065 0.1,-0.169 0,0.006 -0.082,-0.207 0.126,-0.218 a 0.319,0.319 0 0 1 0.147,0.038 0.637,0.637 0 0 0 0.219,0.076 1.227,1.227 0 0 0 0.41,0.039 c -0.006,-0.006 0,-0.028 0.109,-0.022 a 2.5,2.5 0 0 0 0.661,-0.066 0.314,0.314 0 0 1 0.136,-0.032 0.563,0.563 0 0 1 0.279,-0.044 0.23,0.23 0 0 0 0.136,-0.055 c -0.005,0 0,-0.044 0.109,-0.071 a 0.19,0.19 0 0 0 0.137,-0.109 c 0.005,-0.006 0.218,-0.268 0.431,-0.257 a 0.686,0.686 0 0 1 0.339,0.077 0.173,0.173 0 0 0 0.186,-0.044 c 0,0.011 0.338,-0.306 0.284,-0.033 0,-0.011 -0.066,0.077 -0.131,0.372 0,-0.011 -0.006,0 -0.006,0 a 2.471,2.471 0 0 0 -0.1,0.8 1.584,1.584 0 0 0 0.027,0.224 0.233,0.233 0 0 1 -0.044,0.229 c -0.1,0.088 -0.192,0.179 -0.284,0.273 0,0 -0.262,0.306 -0.349,0.421 -0.006,0.005 -0.11,0.1 0.082,0.175 a 0.913,0.913 0 0 0 0.267,0.016 0.556,0.556 0 0 1 0.159,-0.011 c 0,0 0.2,-0.005 0.229,-0.1 0,0.005 0.044,-0.044 0.1,-0.088 0,-0.005 0.262,-0.295 0.289,-0.355 a 0.177,0.177 0 0 0 0.055,-0.093 c 0,0 -0.044,-0.114 0.164,-0.24 a 3.058,3.058 0 0 0 0.333,-0.175 c 0,-0.005 0.136,-0.1 0.136,-0.1 A 0.914,0.914 0 0 1 14,12.97 c 0,-0.011 0.082,-0.055 0.12,-0.115 0,0.011 0.093,-0.174 0.175,-0.082 0.011,0 0.022,0.05 -0.022,0.137 0.006,0 -0.071,0.1 0.044,0.033 a 0.679,0.679 0 0 0 0.087,-0.038 l 0.06,-0.044 a 0.347,0.347 0 0 1 0.126,-0.142 c 0,-0.006 0.065,-0.066 0.125,-0.148 a 0.879,0.879 0 0 0 0.153,-0.245 c 0,0 0.153,-0.754 0.645,-0.754 0,0 0.295,0.011 0.371,-0.11 0,0 0.011,-0.1 0.371,-0.12 0,-0.011 0.612,-0.011 1.136,0.011 a 0.416,0.416 0 0 0 0.437,-0.251 c 0.011,-0.011 0.175,-0.666 0.579,-0.6 a 0.814,0.814 0 0 1 0.306,0.066 4.646,4.646 0 0 0 1.573,0.24 1.536,1.536 0 0 0 1.147,-0.491 c 0.416,-0.623 -0.1,-0.35 -0.087,-0.361 A 3.936,3.936 0 0 1 19.785,10 14.467,14.467 0 0 1 18.168,9.661 C 18.116,9.654 18.061,9.649 18.007,9.645 a 0.7,0.7 0 0 0 -0.625,0.237 2.2,2.2 0 0 0 -0.306,0.959 c -0.011,0.011 -0.044,0.339 -0.59,0.229 a 4.292,4.292 0 0 1 -1.715,-0.852 3.771,3.771 0 0 0 -1.18,-0.513 1.03,1.03 0 0 0 -0.513,0 2.152,2.152 0 0 0 -1.016,0.486 c 0.005,0 -0.087,0.011 -0.1,0.06 0,0 -0.061,-0.014 -0.082,0.016 0,0.006 -0.011,0.039 -0.153,0 a 2.956,2.956 0 0 0 -0.6,-0.049 7.9,7.9 0 0 1 -1.022,0.044 c 0.006,0 -0.54,-0.033 -0.682,-0.049 a 0.516,0.516 0 0 0 -0.35,0.033 C 9.078,10.251 8.958,10.339 8.882,10.3 A 0.15,0.15 0 0 1 8.811,10.2 c 0,-0.01 -0.06,-0.114 -0.4,-0.092 -0.011,0 -0.12,-0.011 -0.12,-0.011 0,0 -0.05,0.011 -0.142,-0.077 A 1.3,1.3 0 0 0 7.439,9.753 c 0,0.005 -0.656,-0.12 -1.016,-0.142 L 6.168,9.6 A 0.709,0.709 0 0 1 5.923,9.551 0.6,0.6 0 0 0 5.617,9.557 0.588,0.588 0 0 1 5.453,9.589 L 5.387,9.6 a 0.241,0.241 0 0 1 -0.158,0.033 0.105,0.105 0 0 0 -0.1,0.071 c 0,0.01 -0.028,0.032 0.011,0.114 a 1.438,1.438 0 0 1 0.109,0.519 0.418,0.418 0 0 1 0.049,0.038 c 0,0 0.1,0.06 0.115,0.121 0,0.005 0.016,0.038 0.114,0.071 a 0.206,0.206 0 0 1 0.1,0.081 c 0,0.006 0.027,0.066 0.174,0.137 0,0 0.771,0.459 0.82,0.513 0,0 0.164,0.11 0.333,0.23 0.011,-0.006 0.049,0.06 0.06,0.174 a 0.328,0.328 0 0 0 0.022,0.192 c 0,-0.006 0.087,0.338 0.12,0.185 0,-0.011 -0.055,-0.24 0.087,-0.311 0,0 0.039,-0.027 0.039,-0.027 A 0.126,0.126 0 0 1 7.331,11.697 C 7.342,11.686 7.402,11.664 7.358,11.571 A 0.151,0.151 0 0 0 7.243,11.484 0.353,0.353 0 0 1 7.043,11.358 0.7,0.7 0 0 0 6.95,11.293 c 0,0 -0.262,-0.219 -0.267,-0.219 a 12.953,12.953 0 0 1 -1.2,-0.775 c -0.306,-0.23 -0.011,-0.088 -0.011,-0.088 0,0 0.316,0.143 0.338,0.164 a 4.545,4.545 0 0 1 0.765,0.273 5.09,5.09 0 0 1 0.874,0.579 c 0.164,0.2 0.185,0.131 0.185,0.142 a 0.1,0.1 0 0 1 0.132,0.11 0.275,0.275 0 0 0 0.1,0.218 L 7.68,11.926 c 0,0 -0.065,0 -0.076,-0.011 -0.066,-0.153 -0.175,0.132 -0.186,0.132 a 0.352,0.352 0 0 0 -0.055,0.3 c 0.033,0.186 -0.142,-0.043 -0.153,-0.043 0.219,0.546 0.295,0.338 0.284,0.338 0.121,-0.1 0.426,0.284 0.437,0.295 a 6.925,6.925 0 0 1 0.667,0.792 c 0.081,0.142 0.229,0.432 0.229,0.437 0.027,0.115 0.055,0.088 0.055,0.088 0,0 0.087,0.076 0.087,0.081 0.169,0.06 0.136,0.071 0.153,0.077 a 0.288,0.288 0 0 0 0.191,0.093 c 0.137,-0.033 0.148,0 0.148,0.016 a 0.184,0.184 0 0 0 0.114,0.1 c 0.066,0.054 0.011,0.049 0.011,0.049 l 0.131,0.147 c 0.044,0.066 -0.011,0.082 -0.022,0.077 a 0.134,0.134 0 0 0 -0.087,0.065 c -0.044,0.049 -0.066,0.017 -0.066,0.017 l -0.1,-0.06 c 0,0 -0.033,-0.039 -0.039,-0.044 A 0.231,0.231 0 0 0 9.185,14.779 C 9.043,14.779 9.027,14.73 9.01,14.719 8.95,14.654 8.956,14.654 8.945,14.654 A 1.209,1.209 0 0 1 8.737,14.424 0.354,0.354 0 0 1 8.67,14.2 0.592,0.592 0 0 1 8.533,14.036 c 0,0 -0.087,-0.044 -0.093,-0.049 C 8.364,13.96 8.353,13.856 8.353,13.856 L 8.32,13.823 A 2.551,2.551 0 0 0 7.747,13.201 C 7.67,13.124 7.621,13.124 7.621,13.124 l -0.1,-0.022 c 0,0 -0.093,-0.06 -0.1,-0.06 -0.1,-0.06 -0.142,-0.109 -0.136,-0.109 a 1.509,1.509 0 0 1 -0.35,-0.486 c 0,0 -0.016,-0.049 -0.016,-0.055 a 0.155,0.155 0 0 1 -0.044,-0.125 0.62,0.62 0 0 0 0,-0.394 3.155,3.155 0 0 0 -0.552,-0.415 c -0.29,-0.213 -1,-0.6 -1,-0.6 L 5.291,10.836 a 0.627,0.627 0 0 0 0,-0.142 c -0.022,-0.2 -0.06,-0.022 -0.06,-0.022 A 1,1 0 0 1 4.914,11.207 0.555,0.555 0 0 1 4.668,11.398 2.209,2.209 0 0 1 4.221,11.65 5.463,5.463 0 0 0 3.729,11.977 c -0.147,0.159 -0.333,0.355 -0.333,0.35 a 0.6,0.6 0 0 0 -0.148,0.136 0.108,0.108 0 0 1 -0.027,0.055 0.714,0.714 0 0 1 -0.055,0.175 c 0.006,0.185 -0.076,0.169 -0.076,0.169 0,0 -0.137,0.033 -0.142,0.033 C 2.882,12.911 2.893,12.884 2.882,12.884 2.85,12.791 2.773,12.9 2.768,12.906 A 0.857,0.857 0 0 1 2.642,12.889 0.352,0.352 0 0 0 2.511,12.906 0.094,0.094 0 0 1 2.429,12.813 0.2,0.2 0 0 0 2.418,12.698 c -0.044,-0.076 -0.011,-0.1 -0.011,-0.1 A 0.068,0.068 0 0 0 2.418,12.521 C 2.353,12.385 2.331,12.434 2.331,12.445 c 0,0.065 -0.06,0.005 -0.066,0.005 -0.12,-0.071 0.049,-0.136 0.049,-0.136 a 0.4,0.4 0 0 1 0.241,-0.066 c -0.017,-0.054 0.076,-0.093 0.076,-0.1 -0.033,-0.055 0.18,-0.3 0.18,-0.3 0.039,-0.043 0.055,-0.081 0.05,-0.087 a 0.281,0.281 0 0 1 0.087,-0.125 1.465,1.465 0 0 0 0.1,-0.164 C 3.119,11.384 3.386,10.92 3.386,10.925 3.43,10.876 3.37,10.816 3.365,10.811 3.293,10.674 3.397,10.674 3.392,10.674 c 0.087,0 0.065,-0.109 0.065,-0.109 0.1,-0.218 0.263,-0.191 0.257,-0.186 0.137,0.049 0.1,0 0.1,0 0.148,0.006 0.17,0.006 0.17,0.017 0.082,0.1 0.125,0.038 0.125,0.032 0.05,-0.032 0.1,0.061 0.1,0.061 0,0 0,0.032 0.06,0.06 a 0.091,0.091 0 0 1 0.076,0.054 1,1 0 0 1 0.109,0.055 c 0,0 0.093,-0.006 0.093,0.033 a 0.183,0.183 0 0 1 0.126,0.027 c 0.005,0 -0.006,0.027 0.065,0.022 a 0.5,0.5 0 0 1 0.17,-0.044 c 0,0 0.191,-0.131 0.213,-0.213 A 1.082,1.082 0 0 0 5.115,10.073 1.312,1.312 0 0 0 4.951,9.686 0.465,0.465 0 0 0 4.961,9.6 L 4.994,9.578 A 0.185,0.185 0 0 0 5.086,9.524 c 0,0 0,-0.017 0.05,-0.022 0,-0.006 0.5,-0.006 0.5,-0.006 L 5.724,9.485 A 0.659,0.659 0 0 0 5.931,9.469 c 0.006,0 0.027,-0.033 0.164,-0.027 0,0 0.382,0.011 0.5,0.022 a 8.167,8.167 0 0 1 1.633,0.284 0.527,0.527 0 0 1 0.1,0.027 h 0.12 c 0,0 -0.033,-0.022 0.055,-0.022 -0.006,0 0.125,0.011 0.049,-0.082 0.005,0.006 -0.131,-0.076 -0.1,-0.136 -0.006,0 0,-0.055 0,-0.055 L 8.49,9.447 A 1.022,1.022 0 0 0 8.632,9.376 c 0,0 0.022,-0.054 0.093,-0.038 a 1.636,1.636 0 0 1 0.491,-0.12 c 0.006,0 0.115,-0.038 0.066,0.071 A 0.169,0.169 0 0 0 9.249,9.371 c 0,0 -0.022,0.033 -0.087,0.054 A 1.234,1.234 0 0 0 8.883,9.502 c 0.005,0 -0.033,-0.022 -0.049,0.022 -0.005,0 -0.115,0.043 -0.1,0.1 A 0.354,0.354 0 0 0 8.75,9.668 l 0.005,0.049 c 0,0 0.017,0.1 0.1,0.093 a 7.068,7.068 0 0 0 0.928,0.137 10.677,10.677 0 0 0 1.431,-0.017 8.863,8.863 0 0 0 1.213,-0.18 4.762,4.762 0 0 1 1.082,-0.111 3.619,3.619 0 0 1 1.376,0.51 4.807,4.807 0 0 0 1.442,0.7 c 0,-0.011 0.371,0.087 0.371,0.087 0,0 0.349,0.088 0.317,-0.207 0,0.009 -0.016,-0.68 0.289,-0.939 a 1.07,1.07 0 0 1 0.717,-0.248 c 0,0 0.283,0.011 0.283,0.018 0.59,0.153 1.147,0.251 1.18,0.262 a 3.064,3.064 0 0 0 1.857,-0.066 c 0.371,-0.185 0.382,-0.011 0.382,-0.011 v 0 A 0.942,0.942 0 0 1 21.62,10.349 Z M 9.685,14.221 C 9.62,14.232 9.609,14.21 9.609,14.21 9.587,14.177 9.565,14.15 9.565,14.15 9.478,14.073 9.522,14.013 9.516,14.013 A 0.231,0.231 0 0 0 9.494,13.866 C 9.451,13.8 9.505,13.783 9.5,13.784 A 0.293,0.293 0 0 0 9.767,13.56 v 0 a 0.183,0.183 0 0 1 0.219,-0.1 h 0.268 a 0.618,0.618 0 0 1 0.185,0.005 c 0.1,0.022 -0.022,0.158 -0.022,0.17 a 0.382,0.382 0 0 1 -0.218,0.2 c -0.088,0.017 -0.1,0.022 -0.1,0.022 A 0.566,0.566 0 0 0 9.93,14.048 c -0.066,0.126 -0.1,0.1 -0.088,0.1 -0.065,0 -0.082,0.022 -0.082,0.028 -0.08,0.024 -0.075,0.045 -0.075,0.045 z m 0.121,0.076 H 9.821 C 9.86,14.275 9.929,14.242 9.929,14.242 l 0.021,-0.01 a 0.545,0.545 0 0 0 0.162,-0.187 l 0.012,-0.019 c 0.042,-0.083 0.192,-0.121 0.192,-0.121 a 0.625,0.625 0 0 0 0.262,-0.286 c 0.073,-0.089 0.1,-0.159 0.075,-0.206 a 0.111,0.111 0 0 0 -0.1,-0.051 L 9.861,13.356 c -0.088,0 -0.175,0.067 -0.259,0.21 L 9.597,13.575 C 9.555,13.651 9.508,13.632 9.507,13.632 9.435,13.6 9.407,13.37 9.418,13.216 c 0,0 -0.022,-0.071 0.025,-0.1 A 0.2,0.2 0 0 1 9.549,13.093 H 9.556 L 9.778,13.079 C 9.905,13.07 9.968,13.066 9.999,13.06 a 4.838,4.838 0 0 0 1.179,-0.277 c 0.2,-0.068 0.365,-0.132 0.471,-0.174 0.106,-0.042 0.166,-0.067 0.19,-0.081 a 0.084,0.084 0 0 1 0.068,0 A 0.256,0.256 0 0 1 12,12.68 v 0 a 1.325,1.325 0 0 1 -0.5,1.183 v 0 a 1,1 0 0 1 -0.548,0.1 v 0 a 0.661,0.661 0 0 0 -0.386,0.094 c -0.119,0.079 -0.3,0.181 -0.417,0.249 -0.093,0.053 -0.126,0.073 -0.139,0.083 C 9.95,14.417 9.884,14.367 9.848,14.34 A 0.252,0.252 0 0 0 9.821,14.322 C 9.8,14.314 9.8,14.3 9.806,14.3 Z m 0.8,0.126 a 1.178,1.178 0 0 0 -0.339,0.175 c 0,0 -0.076,0.06 -0.081,0.06 -0.093,0.038 -0.121,-0.071 -0.121,-0.071 -0.038,-0.071 0,-0.071 0,-0.071 0,0 0.077,-0.049 0.082,-0.049 a 0.594,0.594 0 0 0 0.181,-0.121 1.039,1.039 0 0 1 0.109,-0.087 l 0.1,-0.038 0.12,-0.027 a 0.219,0.219 0 0 1 0.191,-0.082 c 0.093,0.005 0.087,-0.017 0.087,-0.011 A 0.928,0.928 0 0 1 11.1,14.1 c 0.082,0.022 0.126,0.017 0.12,0.022 0.175,0.022 0.006,0.093 0.006,0.093 l -0.328,0.115 c 0,0 -0.12,0.054 -0.126,0.054 -0.065,0.039 -0.054,0.017 -0.054,0.017 A 0.775,0.775 0 0 0 10.6,14.423 Z"/>

</svg>