<svg xmlns="http://www.w3.org/2000/svg" viewBox="0 0 24 24"><path fill="#44739e" d="M17.952 9.809a6.3 6.3 0 0 0-2.821-.301h-2.779c.969-1.27 1.995-2.497 2.927-3.794a2.495 2.495 0 0 0-2.244-3.713 2.81 2.81 0 0 0-2.266 1.426c-1.866 2.405-3.763 4.796-5.622 7.211a2.51 2.51 0 0 0 1.101 3.657 8.3 8.3 0 0 0 2.717.207h2.682c-.97 1.268-1.996 2.497-2.926 3.793a2.51 2.51 0 0 0 1.41 3.593 2.59 2.59 0 0 0 2.976-1.151c1.907-2.446 3.827-4.883 5.725-7.336a2.51 2.51 0 0 0-.88-3.592m-5.901-6.348a1.47 1.47 0 0 1 1.011-.44 1.486 1.486 0 0 1 1.288 2.258c-1.086 1.419-2.199 2.817-3.294 4.229H7.317c1.579-2.014 3.14-4.044 4.734-6.047m-3.777 9.587a1.473 1.473 0 1 1-1.037-2.519h3.021c-.66.838-1.305 1.694-1.984 2.519m.976.429 2.303-2.948h3.195l-2.303 2.948Zm2.711 7.05a1.484 1.484 0 0 1-2.502-.701c-.225-.933.597-1.555 1.068-2.239l2.416-3.093h3.742c-1.576 2.014-3.138 4.036-4.724 6.037Zm6.181-8.003a1.624 1.624 0 0 1-1.775.953h-2.622c.705-.868 1.348-1.795 2.096-2.622a1.45 1.45 0 0 1 .888-.326 1.488 1.488 0 0 1 1.413 1.995"/></svg>