<svg xmlns="http://www.w3.org/2000/svg" viewBox="0 0 24 24"><path fill="#44739e" d="m22 5.866-2.967-1.051-2.816 1.176-.117.049-2.077 2.237-.085-.038.551-.593.029-4.23h.007l-2.792-1.085-2.651 1.03-1.445 2.718-.059-.119-2.8-.978-2.7.951h.007L2 17.562l2.828 1.183.02.009v-.018l2.632-1.1 1.6 2.826 2.912 1.207 2.854-1.201.008-4.07.892 1.265 3.288 1.159 2.875-1.168L22 5.864Zm-2.959-.926 2.638.936-2.763 1.159-2.506-1ZM5.061 7.179l2.446-1.032L8.9 8.954l.121 5.835Zm6.672-4.754 2.546.987-2.324.877-2.621-.932ZM9.137 3.503l2.7.94-2.25 3.914-.676.318v.01L7.692 6.223ZM4.781 5.074l2.555.892L4.767 7.05 2.318 5.941Zm.163 13.501L4.91 13.21l2.441 4.359Zm7.029-8.662L9.2 8.73l2.777-1.188 2.789 1.216-.132.055Zm9.791 7.659-2.68 1.089-4.37-5.834-.014 7.554-2.562 1.075-.089-11.417 2.876-1.189 4.067 5.8.018-7.418 2.844-1.152Z"/></svg>