<?xml version="1.0" encoding="UTF-8" standalone="no"?>
<!-- Created with Inkscape (http://www.inkscape.org/) -->

<svg
   width="31.997mm"
   height="31.997mm"
   viewBox="0 0 31.997 31.997"
   version="1.1"
   id="svg116"
   xml:space="preserve"
   inkscape:version="1.2 (dc2aedaf03, 2022-05-15)"
   sodipodi:docname="nanoleaf.svg"
   xmlns:inkscape="http://www.inkscape.org/namespaces/inkscape"
   xmlns:sodipodi="http://sodipodi.sourceforge.net/DTD/sodipodi-0.dtd"
   xmlns="http://www.w3.org/2000/svg"
   xmlns:svg="http://www.w3.org/2000/svg"><sodipodi:namedview
     id="namedview118"
     pagecolor="#ffffff"
     bordercolor="#000000"
     borderopacity="0.25"
     inkscape:showpageshadow="2"
     inkscape:pageopacity="0.0"
     inkscape:pagecheckerboard="0"
     inkscape:deskcolor="#d1d1d1"
     inkscape:document-units="mm"
     showgrid="true"
     inkscape:zoom="4"
     inkscape:cx="6.375"
     inkscape:cy="24.25"
     inkscape:window-width="2560"
     inkscape:window-height="1369"
     inkscape:window-x="1912"
     inkscape:window-y="417"
     inkscape:window-maximized="1"
     inkscape:current-layer="layer2"><inkscape:grid
       type="xygrid"
       id="grid356" /></sodipodi:namedview><defs
     id="defs113" /><g
     inkscape:groupmode="layer"
     id="layer2"
     inkscape:label="Layer 2"><path
       id="path971"
       style="display:inline;fill:#000000;stroke-width:0.302503"
       inkscape:transform-center-y="-2.4744194"
       d="m 19.718353,1.625725 -7.466883,12.933222 0.55715,0.964232 v 5.91e-4 l -0.548287,0.94887 5.89e-4,5.9e-4 H 11.163755 L 3.6968715,29.406454 4.2540222,30.371275 H 19.171246 l 0.55715,-0.964821 -5.89e-4,-5.92e-4 h 1.11371 l 7.458611,-12.919044 -0.55715,-0.964821 h -0.01595 l 0.555963,-0.96305 -7.466885,-12.933222 z m 0.06676,1.0989399 h 0.964233 L 27.3093,14.086876 26.820094,14.934714 H 13.71436 l -0.489207,-0.847838 z m 0.03722,0.5701489 -6.05776,10.4925132 0.451984,0.782847 h 12.10193 L 26.771069,13.787327 20.712718,3.2948138 Z M 13.727361,16.129368 h 13.119925 l 0.489798,0.847839 -6.552874,11.349804 -0.979003,-5.91e-4 -6.559962,-11.362211 z m 12.591134,0.316093 -12.115517,5.92e-4 -0.445485,0.77103 6.057758,10.492513 h 0.903968 l 6.051259,-10.480697 z m -15.087971,1.126708 h 0.96423 l 6.559962,11.362213 -0.489205,0.847839 H 5.1597614 L 4.6705559,28.934382 Z m 0.03722,0.570151 -6.0577595,10.492512 0.4519833,0.782848 H 17.763894 L 18.216469,28.634832 12.158118,18.14232 Z" /></g></svg>
