<svg xmlns="http://www.w3.org/2000/svg" viewBox="0 0 24 24"><path fill="#44739e" d="m14.744 8.246-.205 8.789 7.251-1.107.21-8.513Zm-3.614 4.687a3 3 0 0 0 .3-.281c.035-.04.127-.134.2-.208.158-.153.2-.2.2-.211a.02.02 0 0 0-.015-.006 1 1 0 0 0-.138.048l-.073.029a1 1 0 0 0-.289.165l-.082.064-.109.087c-.056.045-.2.168-.257.217a5 5 0 0 1-.181.154 1.1 1.1 0 0 0-.343.354.4.4 0 0 0 .019.21c.013.018.048 0 .086-.033a1 1 0 0 0 .062-.078 1 1 0 0 1 .078-.094 2 2 0 0 1 .225-.174 1 1 0 0 0 .088-.065 1 1 0 0 1 .106-.084Zm-2.157 2.45.054.009.057.009.057.009.057.008.057.009.058.009.093.013c.039.007.084.013.1.014l.09.009.215.02c.031 0 .065.005.074.007h.034a1 1 0 0 1 .186.043.6.6 0 0 1 .187.19c.155.222.229.286.354.3.077.01.1 0 .05-.03a.7.7 0 0 1-.2-.2 1.6 1.6 0 0 0-.246-.337.5.5 0 0 0-.14-.085 1.3 1.3 0 0 0-.209-.034l-.068-.002-.159-.018c-.029 0-.1-.011-.141-.015a7 7 0 0 1-.415-.065l-.1-.019a4 4 0 0 1-.39-.091c-.063-.021-.057-.02-.063-.058s-.008-.034-.015-.034a.4.4 0 0 0-.1.111.14.14 0 0 0 0 .1 2 2 0 0 0 .523.128m-.441-.407a.2.2 0 0 0-.1-.037 3 3 0 0 0-.322-.015c-.056 0-.193 0-.232-.006l-.09-.005-.128-.007h-.1a9 9 0 0 1-.553-.047l-.069-.015a1.5 1.5 0 0 1-.39-.09c0-.012-.025 0-.048.021a.08.08 0 0 0-.03.052c0 .025 0 .031.007.047s.021.021.062.036a2.5 2.5 0 0 0 .351.07l.06.008.066.007.09.01.186.015.077.005c.032 0 .076 0 .1.006h.107c.037 0 .095.005.131.005h.391a.5.5 0 0 1 .144.021l.068.041a.2.2 0 0 0 .055.029c.008 0 .033-.022.1-.089.051-.027.068-.048.067-.062m.18-.649.153-.02.144-.019.157-.021c.154-.021.26-.039.3-.049.094-.026.23-.117.228-.153s-.063-.113-.227-.3a1 1 0 0 0-.134-.136 1 1 0 0 0-.123 0 1.3 1.3 0 0 1-.337-.015l-.091-.013-.09-.017-.075-.013-.131-.017a.7.7 0 0 0-.183 0 3 3 0 0 0-.447.251 6 6 0 0 1-.615.357l-.109.058-.058.032c-.155.083-.2.113-.2.138 0 0 .006.009.015.01h.177a1 1 0 0 1 .169.01.1.1 0 0 0 .037 0h.015s-.015.034-.037.034a.27.27 0 0 0-.154.062.15.15 0 0 0-.042.073c0 .017.034.039.089.057a.6.6 0 0 0 .273.02 4 4 0 0 0 .366-.043 4 4 0 0 1 .33-.04c.086-.006.23-.021.363-.039l.354-.049.142-.02a.6.6 0 0 0 .174-.039c.008-.014-.013-.017-.113-.016-.071 0-.156.006-.29.018-.44.04-.941.067-1.04.056l-.063-.006-.078-.007-.161-.019a.1.1 0 0 1-.056-.008 4 4 0 0 1 .475-.032c.344-.02.505-.035.893-.085m.043-.81.067.012.057.01.063.011a1 1 0 0 0 .178.016.4.4 0 0 0 .143-.036.1.1 0 0 0 .037-.055c0-.027-.1-.072-.234-.106a1 1 0 0 0-.174-.028h-.071a.5.5 0 0 0-.118.039l-.053.025a.7.7 0 0 0-.124.064q-.018.02.036.025c.088.009.125.013.139.016Zm.67-.523a1.6 1.6 0 0 0 .269-.007c.022-.01.043-.028.038-.034a2.4 2.4 0 0 0-.358-.1.4.4 0 0 0-.074.013l-.1.025a.8.8 0 0 0-.2.072c-.079.039-.157.108-.138.122s.038 0 .1-.026a.4.4 0 0 1 .138-.035.3.3 0 0 1 .094.072v.015a1.2 1.2 0 0 1-.243.005 1.5 1.5 0 0 0-.292.02.24.24 0 0 0-.111.068c-.039.05-.022.057.14.052h.177c.105 0 .164 0 .2.007l.092.006c.033 0 .07.005.081.007l.087.012a.7.7 0 0 1 .388.133 1 1 0 0 0 .08.052.1.1 0 0 0 .033-.006c.043-.019.045-.082 0-.13a.5.5 0 0 0-.151-.107c-.043-.021-.046-.024-.037-.03a1.3 1.3 0 0 0 .191-.159 1 1 0 0 1 .09-.084q.013 0 .089.079c.025.026.061.059.079.074.034.026.036.027.057.023s.04-.021.047-.057 0-.07-.05-.134-.043-.067-.227-.194c-.043-.029-.038-.034.05-.038s.106-.01.105-.022a.2.2 0 0 0-.08-.054 1 1 0 0 0-.134-.027l-.055-.009c-.019 0-.054-.008-.076-.01a.4.4 0 0 1-.06-.011l-.037-.011a.18.18 0 0 0-.131.038.6.6 0 0 1-.126.055 1 1 0 0 0-.21.119.06.06 0 0 0-.018.029c0 .013 0 .014.011.013a.6.6 0 0 0 .11-.031l.055-.016.12-.033c.011 0 .04-.011.062-.018.067-.022.081-.021.128.007l.043.026.067.045a.6.6 0 0 1 .151.13.04.04 0 0 1-.019.015l-.073.047a1 1 0 0 1-.1.064 1 1 0 0 0-.14.1c-.019.02-.033.019-.08 0a2 2 0 0 1-.206-.134.01.01 0 0 1 0-.012.5.5 0 0 1 .154-.016m.992-.61a.05.05 0 0 0-.018-.023c-.037-.024-.051-.026-.165-.026s-.151 0-.207-.037a.2.2 0 0 0-.094-.026.1.1 0 0 0-.052.027.24.24 0 0 1-.107.049 1 1 0 0 0-.156.059c-.126.062-.178.1-.172.121s.02.015.08-.009l.082-.028.065-.017a2 2 0 0 1 .174-.03l.06-.011.034.011a1 1 0 0 1 .124.083q.129.092.131.117a.3.3 0 0 1-.044.051.4.4 0 0 0-.084.118c0 .017.015.031.035.027a.6.6 0 0 0 .129-.157q.001-.012.017 0a.5.5 0 0 1 .112.11c.046.055.087.089.107.088a.1.1 0 0 0 .025-.019c.014-.018.014-.022.009-.058a.3.3 0 0 0-.012-.057 1 1 0 0 0-.081-.125.1.1 0 0 1-.02-.03.2.2 0 0 1 .035-.039c.019-.018.059-.061.09-.093.079-.085.084-.089.1-.09s.03.014.122.106c.029.028.061.058.073.067.046.032.089.025.105-.019a.05.05 0 0 0 0-.046.4.4 0 0 0-.1-.124l-.051-.048.019-.01a.2.2 0 0 0 .036-.022l.062-.049a2 2 0 0 0 .2-.2c.026-.044 0-.072-.043-.046-.023.016-.131.101-.162.123a3 3 0 0 1-.191.146 2 2 0 0 1-.206-.114c-.118-.076-.131-.092-.1-.118a1 1 0 0 0 .059-.071l.054-.067c.053-.061.056-.068.04-.08a.3.3 0 0 0-.127.013c-.048.017-.067.036-.1.11a.4.4 0 0 1-.037.065.2.2 0 0 1-.05.018l-.217.061a.4.4 0 0 0-.072.028c-.055.032-.118.106-.087.1s.132-.023.227-.046.094-.02.148.014a1 1 0 0 0 .1.049 1.4 1.4 0 0 1 .233.122c.022.018.019.027-.015.045a1 1 0 0 0-.1.086 1 1 0 0 1-.086.076.5.5 0 0 1-.1-.081q-.023-.024-.015-.029a.4.4 0 0 1 .078-.015c.08-.006.107-.014.106-.03m-.348-.526c-.006.023-.006.027 0 .038a.045.045 0 0 0 .056 0l.049-.038a.8.8 0 0 1 .223-.135.2.2 0 0 1 .1-.011l.038.01a.3.3 0 0 1 .056.017l.027.011.041.016.048.02.049.021.07.028.092.036.082.033a1.6 1.6 0 0 1 .235.107l.072.038a.09.09 0 0 0 .108-.028c.008-.015.008-.018 0-.04-.025-.054-.06-.076-.268-.175a2 2 0 0 0-.324-.133.75.75 0 0 0-.364-.061 1 1 0 0 1-.1 0 1 1 0 0 1 .108-.076.4.4 0 0 1 .145-.06.3.3 0 0 1 .072.021l.059.021h.016c.014 0 .076.024.111.033s.095.028.234.076a.6.6 0 0 0 .211.056.12.12 0 0 0 .109-.085c0-.015 0-.018-.021-.031a1 1 0 0 0-.179-.062c-.1-.028-.111-.031-.237-.072l-.088-.027c-.066-.018-.076-.021-.076-.027s.052-.033.2-.081c.093-.03.149-.048.213-.067a1.7 1.7 0 0 0 .383-.155c.039-.025.047-.035.046-.056s-.01-.029-.032-.041a.13.13 0 0 0-.075-.007 1 1 0 0 0-.084.034 1 1 0 0 1-.2.063 2 2 0 0 0-.175.054l-.218.082-.139.056a.3.3 0 0 1-.245.027l-.067-.018a2 2 0 0 1-.26-.091c-.039-.021-.055-.022-.068 0s.009.084.056.115a1 1 0 0 0 .19.084c.059.022.077.031.077.037a.3.3 0 0 1-.056.05c-.056.041-.09.078-.089.1a.1.1 0 0 0 .023.036.1.1 0 0 1 .022.036.3.3 0 0 1-.062.045c-.121.061-.179.12-.194.176m1.236-2.103a1 1 0 0 0-.212-.047c-.047-.006-.065-.007-.158-.014a.7.7 0 0 0-.243.02c-.031.009-.069.041-.063.052s.014.008.066 0c.085-.006.25-.008.331 0a2 2 0 0 1 .156.013l.087.011a1 1 0 0 1 .125.017h.01s-.018-.018-.044-.027Zm.57.288a.4.4 0 0 0-.157.01.7.7 0 0 0-.154.072.7.7 0 0 0-.143.145 1.1 1.1 0 0 0-.143.408l-.011.056c0 .02-.011.06-.015.09s-.011.064-.013.077a1 1 0 0 0-.01.11c0 .017.022.03.046.029.054 0 .061-.015.085-.143 0-.021.01-.046.012-.056l.011-.046q.019-.077.025-.113a.65.65 0 0 1 .237-.464l.043-.026.033-.014a1 1 0 0 1 .115-.043.05.05 0 0 0 .038-.032c.014-.03.014-.055.001-.06m.784 2.339c.033-.017.031-.027-.009-.049a.7.7 0 0 0-.228-.066 1.3 1.3 0 0 0-.27.025c-.026.007-.072.016-.1.022a.4.4 0 0 0-.169.063l-.089.048c-.1.051-.169.108-.167.134s.022.022.113-.006l.049-.015q.082-.024.134-.043a.6.6 0 0 1 .133-.037c.025 0 .026 0 .228.149a1 1 0 0 1 .2.163.1.1 0 0 1-.018.033l-.063.082c-.063.091-.094.125-.111.128s-.023 0-.059-.033l-.081-.067c-.071-.056-.071-.067 0-.059a.5.5 0 0 0 .2 0q.027-.01.013-.023a1.4 1.4 0 0 0-.22-.11.6.6 0 0 0-.149-.027l-.084-.008a.4.4 0 0 1-.081-.02.2.2 0 0 0-.08-.014.3.3 0 0 0-.129.041l-.139.075c-.066.035-.106.074-.09.086a.5.5 0 0 0 .166-.028c.024-.007.062-.018.085-.023.039-.009.042-.009.066 0a3 3 0 0 1 .322.22c.1.079.119.094.119.1s-.053.06-.119.126c-.116.115-.176.167-.201.169a.6.6 0 0 1-.16-.114 1 1 0 0 1 .114-.015 1 1 0 0 0 .126-.016c.02-.007.052-.031.051-.038s-.043-.025-.08-.031c-.018 0-.087-.005-.154-.005-.139 0-.147 0-.221-.042s-.118-.072-.111-.079a1.6 1.6 0 0 1 .3-.045c.119-.011.145-.015.144-.021s-.018-.016-.04-.027l-.084-.044a.15.15 0 0 0-.126-.019l-.209.035a.47.47 0 0 0-.3.119.1.1 0 0 0-.024.031.03.03 0 0 0 .034.019.3.3 0 0 1 .082-.012.1.1 0 0 1 .037.027l.044.042.048.04.106.082a.4.4 0 0 1 .074.065c0 .008-.02.007-.138-.009l-.136-.018-.082-.009-.111-.011-.111-.011c-.172-.018-.2-.017-.223.005a.1.1 0 0 0-.04.061q0 .018.032.032a2 2 0 0 0 .316.046l.086.011.063.007c.074.009.219.031.271.042l.075.013a1.5 1.5 0 0 1 .3.08.6.6 0 0 1 .194.1c.037.026.045.029.066.027s.065-.017.071-.034a.1.1 0 0 0-.019-.082 1 1 0 0 0-.171-.131.1.1 0 0 1-.03-.021s.009-.009.02-.014a1.4 1.4 0 0 0 .257-.274.03.03 0 0 1 .019-.015.7.7 0 0 1 .152.114c.052.047.079.063.107.062s.041-.012.037-.066-.012-.07-.09-.15a.4.4 0 0 1-.052-.06.1.1 0 0 1 .02-.029.2.2 0 0 0 .028-.033l.044-.063a.4.4 0 0 0 .064-.125q-.002-.01.008-.011a.5.5 0 0 1 .126.123c.053.065.073.081.1.079s.036-.013.051-.038a.26.26 0 0 0-.012-.134.3.3 0 0 0-.082-.118c-.047-.046-.059-.06-.06-.072a.2.2 0 0 1 .043-.052 1.2 1.2 0 0 0 .177-.242l.015-.024c.009-.005.05.03.109.092.092.1.113.107.156.081.027-.017.031-.028.029-.077a.1.1 0 0 0-.021-.07.4.4 0 0 0-.089-.1.4.4 0 0 1-.043-.046s.005-.007.013-.01a2 2 0 0 0 .205-.208q.02-.031-.017-.029c-.025.001-.028.008-.066.044s-.072.06-.1.085-.062.049-.068.055-.029.016-.039 0-.007-.014 0-.028a.07.07 0 0 0 .026-.049c0-.023-.011-.024-.139-.014a.33.33 0 0 1-.19-.012q-.06-.018-.063-.043c-.001-.015.007-.019.04-.044s.048-.038.1-.156a.6.6 0 0 1 .071-.123c.014-.015.008-.019-.036-.023a1 1 0 0 0-.1 0c-.07 0-.083.01-.109.043a.5.5 0 0 0-.052.1l-.013.036-.012.057-.007.045-.029.011-.078.027a1 1 0 0 0-.086.035l-.041.018a.1.1 0 0 0-.034.015l-.033.014a1 1 0 0 0-.142.091c-.045.036-.061.056-.063.078v.017h.032a.2.2 0 0 0 .062-.012c.049-.017.138-.052.168-.066l.044-.018.02-.009.038-.016.051-.019a.036.036 0 0 1 .047.007.5.5 0 0 0 .11.057 2 2 0 0 1 .323.148c.007.007.006.009-.006.017a1.4 1.4 0 0 0-.151.15l-.054.075a.1.1 0 0 1-.032.04.7.7 0 0 1-.155-.081c-.1-.065-.123-.087-.1-.1.005 0 .071-.008.146-.013.135-.003.147-.005.17-.016m1.459-2.477a.6.6 0 0 0-.307.347 1 1 0 0 0-.056.262c0 .013-.007.05-.01.081l-.009.089a1.3 1.3 0 0 0-.007.266.05.05 0 0 0 .024.042q.017.014.014.019a.4.4 0 0 1-.061.017l-.1.022-.076.018-.082.018-.088.019-.044.01-.047.011a6 6 0 0 0-.266.063l-.067.017-.059.017-.049.017-.06.019a.2.2 0 0 1-.1.006l-.093-.024-.079-.02-.119-.03h-.017a1 1 0 0 1-.137-.046.7.7 0 0 1-.14-.073c-.061-.038-.073-.039-.077 0a.15.15 0 0 0 .052.133.45.45 0 0 0 .2.105l.066.021.07.022a1 1 0 0 1 .168.064q.013.01-.05.041a1.4 1.4 0 0 0-.325.211.22.22 0 0 0-.053.144c0 .035 0 .042.01.044s.07-.024.135-.085a1 1 0 0 1 .116-.081s.033-.018.068-.04a3 3 0 0 1 .189-.108l.027-.013.079.022c.042.013.091.026.107.029s.043.01.06.016l.079.023.145.04a2 2 0 0 0 .2.051 6 6 0 0 0 .287.06.24.24 0 0 0 .132-.017c.044-.023.053-.033.049-.055s-.007-.022-.028-.033a1 1 0 0 0-.182-.056l-.182-.049-.081-.022-.109-.032-.071-.02-.042-.012-.121-.032-.117-.033c-.024-.011-.018-.014.09-.049a3 3 0 0 1 .211-.057l.07-.016.138-.03c.078-.015.236-.049.276-.059l.073-.017.07-.018.088-.024a.5.5 0 0 0 .258-.123q.049-.054-.015-.077a.16.16 0 0 0-.128.016.8.8 0 0 1-.181.051s0-.01.011-.02a.1.1 0 0 0 .013-.026v-.027l.01-.082c0-.036.007-.078.009-.095s0-.045 0-.063a2 2 0 0 1 .039-.339.46.46 0 0 1 .23-.324.46.46 0 0 1 .255-.038 1 1 0 0 1 .121.023V9.91a1 1 0 0 0-.152-.028.55.55 0 0 0-.252.023m-1.548-.33c.023-.007.067-.019.1-.025l.088-.021a5 5 0 0 1 .5-.033 2.4 2.4 0 0 1 .491.075h.017a1 1 0 0 1 .229.091.04.04 0 0 0 .02.009c.017 0 0-.017-.041-.047a.4.4 0 0 0-.137-.063l-.1-.033-.138-.036-.056-.012h-.019a3 3 0 0 0-.362-.054l-.087-.007a1.6 1.6 0 0 0-.43.043l-.028.007a.3.3 0 0 0-.093.051.1.1 0 0 0-.035.065c0 .009 0 .01.023.006s.036-.009.058-.016m1.276 3.282q-.043-.016-.041-.006a4 4 0 0 0 .373.246l.049.025c.022.01.052.026.067.035q.023.015.029.007c.003-.007-.038-.049-.164-.129a3 3 0 0 0-.313-.178m.549-.521-.167-.035c-.061-.013-.1-.016-.1-.008a1 1 0 0 0 .155.056l.137.042.05.017v-.053Zm-1.251-.45a.6.6 0 0 1 .2.084l.054.034a1 1 0 0 0 .115.06.1.1 0 0 0 .082-.008.08.08 0 0 0-.012-.094.6.6 0 0 0-.182-.119 1 1 0 0 0-.214-.077l-.086-.023-.051-.015-.049-.013c-.063-.016-.184.034-.181.075 0 .017.029.04.056.048a2 2 0 0 0 .268.048m.735.397c0-.017-.007-.018-.042-.01l-.059.013a.5.5 0 0 0-.176.079 1.2 1.2 0 0 0-.273.311c-.087.127-.217.3-.3.39l-.047.054c-.006 0-.165.187-.2.228a4 4 0 0 0-.166.216c-.061.093-.07.118-.065.189s.007.065.046.1a1 1 0 0 0 .366.128l.147.036c.007 0 .033.009.058.015l.084.019c.035.009.216.047.263.056l.054.008a.7.7 0 0 0 .548-.1.8.8 0 0 0 .273-.281.13.13 0 0 0 .015-.092.13.13 0 0 0-.021-.081.5.5 0 0 0-.09-.1l-.068-.056-.091-.075-.331-.248a5 5 0 0 1-.3-.23c0-.007-.017-.03-.006-.06.029-.09.1-.161.154-.155a.6.6 0 0 1 .167.07c.108.056.182.1.33.185.091.053.224.134.236.144l.072.048.011-.5a13 13 0 0 0-.537-.263c-.038-.019-.048-.026-.052-.038m-2.199 1.405c-.033.018-.043.032-.041.059s.01.045.071.093a.35.35 0 0 0 .166.076.2.2 0 0 0 .121 0c.041-.017.023-.024-.069-.028a.27.27 0 0 1-.165-.041.11.11 0 0 1-.052-.134.1.1 0 0 0 0-.032c-.001-.008-.005-.006-.031.007m-1.057-.007.081.015.078.014.061.011.051.01.051.009.051.009.054.009.054.009a1 1 0 0 0 .233.015.3.3 0 0 0 .153-.035c.033-.025.045-.036.045-.042s-.065-.039-.214-.085a1.7 1.7 0 0 0-.378-.088 1 1 0 0 0-.116 0 .2.2 0 0 0-.12.02c-.061.028-.146.094-.145.113s.007.009.017.011Zm3.391.944-.067.039-.075.045a4 4 0 0 1-.314.173 4 4 0 0 1-.288.136l-.062.025a1 1 0 0 1-.154.051c-.026 0-.06-.017-.147-.079a4 4 0 0 0-.388-.257.7.7 0 0 0-.3-.113.5.5 0 0 0-.162 0 2 2 0 0 0-.152.019 9 9 0 0 1-.583.089c-.156.017-.682.061-.869.071a5 5 0 0 1-.609.013c-.09-.005-.112-.008-.116-.016s.028-.008.123-.015c.069 0 .162-.012.206-.018s.192-.022.328-.035.287-.029.334-.036l.18-.021c.322-.038.407-.049.567-.071l.138-.022.12-.021.124-.021a2 2 0 0 1 .36-.034 1.4 1.4 0 0 1 .3.053l.036.011c.041.011.081.024.146.045l.139.044a1 1 0 0 0 .131.034.46.46 0 0 0 .415-.07.7.7 0 0 0 .2-.215c0-.011-.043-.032-.091-.047l-.067-.02-.069-.021-.062-.018-.215-.058-.07-.021-.082-.02c-.038-.009-.079-.018-.091-.022l-.063-.015-.169-.039-.079-.018-.087-.02a4 4 0 0 0-.392-.072.8.8 0 0 1-.414-.136l-.065-.042-.119.008a1.5 1.5 0 0 1-.419-.027l-.09-.017-.078-.015-.106-.021-.1-.019a2 2 0 0 0-.215-.026l-.069-.006a.7.7 0 0 0-.18.123 7 7 0 0 1-.656.47c-.028.017-.063.038-.077.048l-.035.023-.058.034c-.065.038-.073.043-.175.1a.95.95 0 0 0-.317.219c-.018.028-.016.037.015.06a1.04 1.04 0 0 0 .428.154l.055.01.045.006.086.009a2.6 2.6 0 0 0 .574-.007c.207-.02.4-.043.6-.07l.165-.022.167-.022.153-.02.177-.025.162-.023.106-.017a8 8 0 0 1 .389-.062.54.54 0 0 1 .262 0 2.6 2.6 0 0 1 .482.27l.161.1c.036.022.039.026.03.032a1.3 1.3 0 0 1-.189.062l-.125.034-.088.024-.065.015-.091.018c-.03.007-.071.015-.091.018l-.073.015c-.07.016-.108.023-.188.036l-.119.021-.091.014c-.056.006-.13.016-.283.039s-.536.061-.877.09c-.1.008-.193.018-.2.02s-.02.021.006.059a.2.2 0 0 0 .155.1 1.4 1.4 0 0 0 .361-.006 11 11 0 0 0 1.179-.135c.1-.016.112-.019.176-.032l.094-.018c.047-.009.112-.024.217-.048s.136-.034.321-.088c.057-.016.188-.057.216-.067l.181-.058.046-.015c.035-.011.152-.053.169-.06l.066-.026a3.6 3.6 0 0 0 .494-.237c.079-.049.134-.086.289-.2l.007-.331c-.091.057-.226.139-.227.139s-.046.034-.178.115m.26.387-.035.02a3 3 0 0 1-.3.168l-.136.067-.034.014c-.1.048-.383.155-.532.2l-.131.042a4 4 0 0 1-.205.06l-.158.039-.079.018-.079.018-.079.017-.094.019-.12.024a12 12 0 0 1-.903.129c-.079.008-.273.023-.436.033-.208.013-.3.02-.3.024s.068.06.114.075a2 2 0 0 0 .441.034 6 6 0 0 0 .608-.02 7 7 0 0 0 .722-.077 9 9 0 0 0 .634-.126l.167-.039c.085-.02.225-.056.26-.068l.038-.01.038-.01.056-.017.052-.016.05-.016a2.5 2.5 0 0 0 .533-.228l.044-.035.009-.414a.3.3 0 0 0-.086.042Zm6.645-7.649L8.98 6.946l-5.607.448 11.283.686Zm-7.203 8.64-.061.02c-.015 0-.071.021-.126.035l-.12.034-.134.035-.135.034a4 4 0 0 1-.5.094 1 1 0 0 0-.209.041c-.078.022-.1.029-.175.043l-.1.019a4 4 0 0 1-.21.035c-.032 0-.065.01-.074.012l-.088.014-.144.019c-.039 0-.125.016-.192.023a2 2 0 0 0-.189.029 3 3 0 0 1-.2.038l-.1.017c-.024 0-.094.015-.156.023l-.18.025c-.317.045-1.116.105-1.4.1-.067 0-.095 0-.227-.008a1.4 1.4 0 0 1-.464-.089q-.117-.05-.121-.119c-.003-.047.022-.084.1-.162a1.4 1.4 0 0 1 .292-.218.4.4 0 0 0 .068-.047c0-.006-.033-.017-.088-.029a2 2 0 0 1-.126-.032l-.035-.01-.067-.029-.066-.029-.089.023c-.158.024-.352.051-.559.077-.147.018-.685.054-.793.053a3 3 0 0 1-.248-.01 1 1 0 0 1-.265-.057l-3.5.347 11.331.7.025-1.047-.59-.033Zm-7.28-.176a1.1 1.1 0 0 1 .308-.265c.056-.034.055-.036-.03-.058a.5.5 0 0 1-.219-.1.22.22 0 0 1-.074-.133 1.6 1.6 0 0 1-.012-.423.16.16 0 0 1 .077-.1c.048-.03.053-.036.07-.081a.63.63 0 0 1 .287-.343c.019-.013.117-.065.219-.117.24-.123.28-.144.4-.212l.05-.027.039-.023.04-.023s.2-.115.324-.194c.277-.171.363-.237.411-.321l.031-.053c0-.007.017-.032.028-.055a.4.4 0 0 1 .179-.154 2 2 0 0 0 .158-.107l.094-5.134-6.6-.4L2 16.273l.866-.082 3.565-.353Zm4.443-2.566c.018 0 .1-.055.089-.062s-.055 0-.089.02-.028.044 0 .042m-.317-1.277c-.048.029-.108.095-.093.101a1.5 1.5 0 0 0 .316 0c.038-.008.068-.022.068-.032a.6.6 0 0 0-.147-.076c-.074-.027-.085-.027-.144.007M8.988 7.91 8.9 12.895l.02-.017.156-.13.1-.075a1.2 1.2 0 0 0 .2-.183.5.5 0 0 1 .1-.081 2 2 0 0 0 .235-.17.7.7 0 0 0 .121-.128 1 1 0 0 1 .076-.091.2.2 0 0 0 .072-.124.4.4 0 0 1 .115-.187c.086-.1.1-.125.091-.209a.15.15 0 0 0-.063-.131.3.3 0 0 1-.083-.123.14.14 0 0 1 0-.093.22.22 0 0 0 0-.144c-.015-.049-.03-.094-.045-.149l-.023-.074a1.6 1.6 0 0 1-.087-.4.3.3 0 0 1 .026-.188.2.2 0 0 1 .135-.105c.027 0 .026.011 0 .024a.2.2 0 0 0-.089.084.3.3 0 0 0-.025.131 3 3 0 0 0 .061.3c0 .012.013.042.02.067l.019.064.019.062.019.06.018.054a.5.5 0 0 0 .1.2.04.04 0 0 0 .064-.018.2.2 0 0 0-.009-.05l-.018-.072-.016-.06-.02-.074-.02-.065-.019-.062c-.007-.023-.015-.05-.019-.059a1 1 0 0 1-.049-.365.16.16 0 0 1 .055-.085c.018-.012.025-.013.07-.014a1 1 0 0 1 .109.006h.087c.024 0 .028 0 .029-.014a.02.02 0 0 0-.011-.019q-.022-.016.006-.018c.019-.001.029-.023.045-.185 0-.018 0-.059.009-.089a1 1 0 0 1 .025-.158.25.25 0 0 1 .149-.111l.041-.011a1.4 1.4 0 0 1 .255-.023 2 2 0 0 1 .185.012 1 1 0 0 1 .117.016 2 2 0 0 1 .255.065 1.3 1.3 0 0 1 .339.183.6.6 0 0 1 .125.137.1.1 0 0 1-.024.04.2.2 0 0 0-.051.1l-.017.06a1.3 1.3 0 0 0 .023.33 2.5 2.5 0 0 0 .108.337.6.6 0 0 1 .041.123q0 .036.066.062c.044.018.057.015.068 0a.2.2 0 0 0 0-.094 3 3 0 0 0-.053-.174 1.5 1.5 0 0 1-.083-.3.8.8 0 0 1-.016-.239.26.26 0 0 1 .059-.127c.017-.014.022-.015.069-.018h.082c.1.009.144.006.156-.012s0-.02-.022-.033c-.087-.048-.109-.062-.109-.07s.015-.012.054 0a.1.1 0 0 0 .041 0c.024-.008.029-.05.026-.24a1 1 0 0 1 0-.144.25.25 0 0 1 .106-.176.6.6 0 0 1 .259-.1 3 3 0 0 1 .364-.02 3 3 0 0 1 .363.043l.054.01c.044.008.218.049.266.064a.9.9 0 0 1 .307.144.36.36 0 0 1 .155.221l.006.026a1 1 0 0 0 .153.033 1 1 0 0 1 .118.023l.038-1.628Zm.842 6.019c.01-.007 0-.025-.064-.093a3 3 0 0 0-.219-.218 1 1 0 0 1-.066-.069.2.2 0 0 1 .006-.147.04.04 0 0 0 0-.02.02.02 0 0 0-.012-.011c-.016 0-.06.042-.075.074a.12.12 0 0 0 .014.122 3 3 0 0 0 .366.353.05.05 0 0 0 .05.009m4.565 1.772.001-.007-.01.006Z"/></svg>