<?xml version="1.0" encoding="UTF-8"?>
<svg width="24px" fill="#44739e" height="24px" viewBox="0 0 24 24" version="1.1" xmlns="http://www.w3.org/2000/svg" xmlns:xlink="http://www.w3.org/1999/xlink">
            <path d="M 14.031,12.856 A 0.133,0.133 0 0 0 14.1,12.8 0.14,0.14 0 0 0 14.124,12.713 0.088,0.088 0 0 0 14.089,12.65 0.075,0.075 0 0 0 14.046,12.637 h -0.029 a 0.131,0.131 0 0 0 -0.071,0.055 0.123,0.123 0 0 0 -0.024,0.087 0.082,0.082 0 0 0 0.035,0.064 0.084,0.084 0 0 0 0.074,0.013 z m -1.079,-1.111 a 0.082,0.082 0 0 0 0.07,-0.011 0.108,0.108 0 0 0 0.012,-0.151 0.128,0.128 0 0 0 -0.1,-0.059 0.088,0.088 0 0 0 -0.044,0.012 0.108,0.108 0 0 0 -0.011,0.151 0.135,0.135 0 0 0 0.073,0.058 z m -0.58,1.74 a 0.041,0.041 0 0 0 0.008,0.024 v 0 l 0.06,0.24 0.1,0.046 0.124,0.857 0.039,0.412 v 0 l 0.006,0.015 a 2.785,2.785 0 0 0 0.759,0.084 2.773,2.773 0 0 0 0.757,-0.084 v -0.005 l 0.059,-1.26 0.111,-0.062 0.078,-0.266 v -0.012 c 0,-0.006 0,-0.023 -0.048,-0.044 l -0.053,-0.025 0.055,-0.019 a 0.861,0.861 0 0 0 0.521,-0.411 1.3,1.3 0 0 0 -0.1,-0.883 1.266,1.266 0 0 0 -1.01,0.159 1.33,1.33 0 0 0 -0.2,0.869 c 0.018,0.014 0.1,0.063 0.216,0.136 l 0.019,0.012 -0.037,0.068 v 0 c -0.106,-0.007 -0.218,-0.01 -0.334,-0.012 h -0.025 l 0.081,-1.2 v -0.011 l -0.1,-0.182 0.019,-0.011 c 0.12,-0.072 0.2,-0.122 0.216,-0.136 a 1.33,1.33 0 0 0 -0.2,-0.869 1.262,1.262 0 0 0 -1.01,-0.159 1.3,1.3 0 0 0 -0.1,0.882 0.982,0.982 0 0 0 0.747,0.473 2.853,2.853 0 0 0 0.26,-0.143 l 0.022,-0.013 0.087,0.165 a 0.076,0.076 0 0 1 0.008,0.036 l -0.067,1.169 h -0.022 c -0.117,0 -0.232,0 -0.342,0.008 h -0.015 l -0.027,-0.05 0.019,-0.012 a 2.309,2.309 0 0 0 0.216,-0.136 1.32,1.32 0 0 0 -0.2,-0.868 1.266,1.266 0 0 0 -1.01,-0.16 1.3,1.3 0 0 0 -0.1,0.883 0.826,0.826 0 0 0 0.462,0.389 l 0.054,0.022 -0.054,0.022 c -0.049,0.03 -0.049,0.053 -0.049,0.062 z m 0.468,-2.433 a 0.169,0.169 0 0 1 0.185,0.276 0.125,0.125 0 0 1 -0.07,0.021 0.12,0.12 0 0 1 -0.042,-0.007 0.178,0.178 0 0 1 -0.1,-0.074 0.154,0.154 0 0 1 0.027,-0.216 z m 0.208,0.722 a 0.125,0.125 0 0 1 -0.07,0.021 0.172,0.172 0 0 1 -0.139,-0.081 0.155,0.155 0 0 1 0.024,-0.216 0.134,0.134 0 0 1 0.112,-0.014 0.186,0.186 0 0 1 0.1,0.074 0.154,0.154 0 0 1 -0.027,0.216 z m 0.371,-0.225 v 0 a 0.129,0.129 0 0 1 -0.069,0.02 0.168,0.168 0 0 1 -0.14,-0.08 0.142,0.142 0 1 1 0.209,0.06 z m 0.881,0.9 a 0.191,0.191 0 0 1 0.1,-0.074 0.126,0.126 0 0 1 0.167,0.114 0.177,0.177 0 0 1 -0.032,0.118 0.173,0.173 0 0 1 -0.1,0.074 0.12,0.12 0 0 1 -0.042,0.007 0.125,0.125 0 0 1 -0.07,-0.021 0.129,0.129 0 0 1 -0.055,-0.1 0.182,0.182 0 0 1 0.028,-0.118 z m -0.023,0.446 a 0.14200792,0.14200792 0 1 1 0.256,0.123 0.156,0.156 0 0 1 -0.023,0.034 0.171,0.171 0 0 1 -0.139,0.08 0.125,0.125 0 0 1 -0.07,-0.021 A 0.155,0.155 0 0 1 14.277,12.9 Z M 13.906,12.67 a 0.178,0.178 0 0 1 0.1,-0.074 0.134,0.134 0 0 1 0.112,0.014 0.155,0.155 0 0 1 0.024,0.216 0.171,0.171 0 0 1 -0.14,0.081 0.12,0.12 0 0 1 -0.069,-0.021 0.154,0.154 0 0 1 -0.027,-0.216 z m -1.09,-0.044 a 0.155,0.155 0 0 1 0.209,0.059 0.184,0.184 0 0 1 0.032,0.118 0.13,0.13 0 0 1 -0.056,0.1 0.12,0.12 0 0 1 -0.069,0.021 0.174,0.174 0 0 1 -0.14,-0.08 0.19,0.19 0 0 1 -0.032,-0.118 0.13,0.13 0 0 1 0.056,-0.1 z m -0.394,-0.221 a 0.168,0.168 0 0 1 0.185,0.275 0.125,0.125 0 0 1 -0.07,0.021 0.171,0.171 0 0 1 -0.139,-0.08 0.155,0.155 0 0 1 0.024,-0.216 z m 0,0.662 a 0.155,0.155 0 0 1 0.024,-0.216 0.127,0.127 0 0 1 0.112,-0.014 0.178,0.178 0 0 1 0.1,0.074 0.155,0.155 0 0 1 -0.024,0.216 0.132,0.132 0 0 1 -0.07,0.02 0.152,0.152 0 0 1 -0.042,-0.006 0.183,0.183 0 0 1 -0.1,-0.074 z m 0.113,0.355 h 0.013 a 1.477,1.477 0 0 0 0.174,0.044 1.245,1.245 0 0 0 0.173,-0.092 H 12.9 l 0.111,-0.008 h 0.015 l 0.066,0.122 a 0.023,0.023 0 0 0 0.015,0.012 0.021,0.021 0 0 0 0.019,0 0.024,0.024 0 0 0 0.009,-0.032 l -0.056,-0.1 h 0.038 c 0.1,0 0.2,-0.006 0.3,-0.006 h 0.026 l -0.007,0.116 v 0.011 h 0.011 a 0.013,0.013 0 0 0 0.011,-0.014 l 0.008,-0.116 h 0.03 c 0.1,0 0.206,0 0.3,0.009 h 0.037 l -0.045,0.083 a 0.024,0.024 0 0 0 0.008,0.033 v 0 a 0.031,0.031 0 0 0 0.019,0 0.02,0.02 0 0 0 0.015,-0.012 l 0.055,-0.1 H 13.9 a 1.514,1.514 0 0 1 0.17,0.015 h 0.005 a 1.138,1.138 0 0 0 0.125,0.065 c 0.035,-0.007 0.072,-0.016 0.111,-0.026 h 0.012 a 0.287,0.287 0 0 1 0.113,0.042 v 0 l -0.04,0.049 A 2.611,2.611 0 0 1 13.417,13.67 2.4,2.4 0 0 1 12.436,13.517 L 12.41,13.479 v -0.015 a 0.27,0.27 0 0 1 0.123,-0.042 z m 9.083,5.346 -2.4,-0.358 h -0.006 v 0.307 a 0.037,0.037 0 0 0 0.031,0.036 l 2.4,0.358 a 0.137,0.137 0 0 0 0.089,-0.016 l 0.2,-0.115 a 0.072,0.072 0 0 0 0.036,-0.062 V 18.68 l -0.2,0.071 a 0.306,0.306 0 0 1 -0.15,0.017 z m -5.012,2.105 2.447,0.406 V 18.367 L 16.606,18 c 0.01,0.022 0,2.873 0,2.873 z m 2.557,-2.154 v -0.3 a 0.055,0.055 0 0 1 0.016,-0.039 l -0.08,-0.013 v 2.912 l 0.284,-0.161 v -2.294 l -0.149,-0.022 a 0.084,0.084 0 0 1 -0.071,-0.083 z m 0.221,-6.37 V 9.433 L 16.848,9.115 V 3.253 L 11.923,2.721 v 0 l -0.34,0.1 4.994,0.531 0.031,5.793 v 0.068 l 0.018,-0.007 c 0.219,0.033 2.527,0.334 2.527,0.334 v 2.887 l 2.614,0.36 0.037,5.9 0.2,-0.077 V 12.694 Z M 6.805,10.722 11.492,11.389 11.493,5.81 6.852,5.299 6.83,7.883 2.317,7.312 2.092,7.404 6.828,8.022 Z m 4.723,0.793 -2.344,-0.327 v 2.777 l 2.344,0.299 z M 6.752,13.63 9.096,13.922 V 11.196 L 6.786,10.874 Z M 1.996,12.934 6.553,13.589 6.617,8.108 2.001,7.523 Z m 14.643,4.967 5.023,0.756 V 12.878 L 16.639,12.177 Z M 16.647,9.31 v 2.728 l 2.411,0.336 V 9.636 Z M 12.6,13.087 a 0.109,0.109 0 0 0 0.011,-0.15 0.132,0.132 0 0 0 -0.072,-0.055 h -0.028 a 0.083,0.083 0 0 0 -0.044,0.012 0.11,0.11 0 0 0 -0.011,0.151 0.137,0.137 0 0 0 0.072,0.055 0.084,0.084 0 0 0 0.072,-0.013 z m 1.823,-0.453 a 0.13,0.13 0 0 0 0.071,-0.055 0.134,0.134 0 0 0 0.024,-0.087 0.08,0.08 0 0 0 -0.035,-0.063 0.075,0.075 0 0 0 -0.043,-0.013 0.141,0.141 0 0 0 -0.029,0 0.138,0.138 0 0 0 -0.071,0.055 0.128,0.128 0 0 0 -0.024,0.087 0.082,0.082 0 0 0 0.035,0.064 0.084,0.084 0 0 0 0.072,0.012 z M 16.505,9.3 11.616,8.712 v 5.548 l 0.968,0.15 -0.083,-0.579 -0.1,-0.045 -0.063,-0.252 a 0.084,0.084 0 0 1 -0.015,-0.049 0.091,0.091 0 0 1 0.046,-0.077 0.848,0.848 0 0 1 -0.439,-0.393 1.324,1.324 0 0 1 0.107,-0.939 1.272,1.272 0 0 1 1.077,0.163 1.356,1.356 0 0 1 0.206,0.918 c 0,0.01 -0.005,0.019 -0.186,0.129 H 13.4 l 0.065,-1.125 V 12.15 l -0.064,-0.121 c -0.242,0.142 -0.258,0.139 -0.268,0.137 a 1.028,1.028 0 0 1 -0.784,-0.5 1.322,1.322 0 0 1 0.107,-0.938 1.272,1.272 0 0 1 1.077,0.162 1.36,1.36 0 0 1 0.206,0.919 c 0,0.01 0,0.019 -0.216,0.147 l 0.074,0.142 a 0.065,0.065 0 0 1 0.007,0.036 l -0.078,1.151 a 2.735,2.735 0 0 1 0.3,0.011 v 0 C 13.615,13.169 13.613,13.16 13.61,13.149 A 1.36,1.36 0 0 1 13.816,12.23 1.272,1.272 0 0 1 14.893,12.068 1.315,1.315 0 0 1 15,13 a 0.885,0.885 0 0 1 -0.5,0.419 0.1,0.1 0 0 1 0.025,0.032 h 0.023 l -0.1,0.338 -0.106,0.058 -0.038,0.831 v 0 0.071 l 1.975,0.3 -1.125,0.461 -4.77,-0.679 1.229,-0.5 0.989,0.153 -0.011,-0.074 -0.976,-0.151 H 11.6 l -1.491,0.608 5.039,0.717 h 0.01 l 0.257,-0.1 1.128,0.14 v -0.6 z m -0.034,6.247 -0.844,-0.1 0.844,-0.31 z m -2,-2.522 a 0.107,0.107 0 0 0 -0.011,-0.15 0.076,0.076 0 0 0 -0.044,-0.013 0.13,0.13 0 0 0 -0.1,0.059 0.109,0.109 0 0 0 0.012,0.151 0.107,0.107 0 0 0 0.143,-0.047 z m -1.142,-1.706 a 0.083,0.083 0 0 0 -0.044,0.012 0.122,0.122 0 0 0 0,0.174 0.124,0.124 0 0 0 0.13,0.026 v 0 a 0.11,0.11 0 0 0 0.011,-0.151 0.123,0.123 0 0 0 -0.097,-0.061 z m -0.354,1.543 a 0.085,0.085 0 0 0 0.035,-0.063 0.134,0.134 0 0 0 -0.024,-0.087 0.108,0.108 0 0 0 -0.144,-0.047 0.084,0.084 0 0 0 -0.034,0.063 0.132,0.132 0 0 0 0.023,0.088 0.108,0.108 0 0 0 0.144,0.046 z M 12.926,11.3 a 0.083,0.083 0 0 0 0.07,-0.011 0.109,0.109 0 0 0 0.012,-0.151 0.125,0.125 0 0 0 -0.1,-0.059 0.083,0.083 0 0 0 -0.044,0.012 0.108,0.108 0 0 0 -0.011,0.151 0.128,0.128 0 0 0 0.073,0.058 z m -0.346,1.341 a 0.108,0.108 0 0 0 0.012,-0.15 0.129,0.129 0 0 0 -0.1,-0.06 0.076,0.076 0 0 0 -0.044,0.013 0.122,0.122 0 0 0 0.132,0.2 z m -0.976,-4.1 4.89,0.585 V 3.445 l -4.89,-0.538 v 2.652 l -4.498,-0.484 -0.26,0.089 4.758,0.55 z"/>

</svg>