<?xml version="1.0" encoding="UTF-8"?>
<svg width="24px" fill="#44739e" height="24px" viewBox="0 0 24 24" version="1.1" xmlns="http://www.w3.org/2000/svg" xmlns:xlink="http://www.w3.org/1999/xlink">
            <path d="m 9.579,17.208 v 2.749 l 2.381,1.374 2.381,-1.374 V 17.208 L 11.96,15.833 Z m 2.58,-4.334 v 2.749 l 2.381,1.375 2.381,-1.375 V 12.874 L 14.54,11.5 Z m -0.318,0 L 9.46,11.5 7.079,12.874 v 2.749 l 2.381,1.375 2.381,-1.375 z m 2.858,-4.383 v 2.749 l 2.38,1.375 2.381,-1.375 V 8.491 L 17.079,7.117 Z m -5.398,0 L 6.921,7.117 4.54,8.491 v 2.749 l 2.381,1.375 2.38,-1.375 z M 19.619,2.669 17.238,4.043 V 6.792 L 19.619,8.167 22,6.792 V 4.043 Z M 16.921,6.792 V 4.043 L 14.54,2.669 12.159,4.043 v 2.749 l 2.381,1.375 z m -5.08,0 V 4.043 L 9.46,2.669 7.079,4.043 V 6.792 L 9.46,8.167 Z M 6.762,4.043 4.381,2.669 2,4.043 V 6.792 L 4.381,8.167 6.762,6.792 Z"/>

</svg>