<?xml version="1.0" encoding="UTF-8"?>
<svg width="24px" fill="#44739e" height="24px" viewBox="0 0 24 24" version="1.1" xmlns="http://www.w3.org/2000/svg" xmlns:xlink="http://www.w3.org/1999/xlink">
            <path d="m 11.954,16.5 v 0.08 a 0.021,0.021 0 0 0 0.021,0.022 H 12.2 A 0.022,0.022 0 0 0 12.222,16.58 V 16.5 a 0.2,0.2 0 0 1 0.049,-0.113 v 0 A 0.245,0.245 0 0 0 12.087,15.98 v 0 a 0.245,0.245 0 0 0 -0.186,0.406 0.208,0.208 0 0 1 0.053,0.114 z m 0.054,0.167 h 0.157 c 0.02161,0 0.039,0.01739 0.039,0.039 v 0.046 c 0,0.02161 -0.01739,0.039 -0.039,0.039 h -0.157 c -0.02161,0 -0.039,-0.01739 -0.039,-0.039 v -0.046 c 0,-0.02161 0.01739,-0.039 0.039,-0.039 z m -0.63,-6.487 v 3.006 a 0.695,0.695 0 0 0 1.389,0 V 10.18 a 0.695,0.695 0 1 0 -1.389,0 z m 0.9,2.829 H 11.89 a 0.078,0.078 0 0 1 -0.077,-0.077 0.077,0.077 0 0 1 0.077,-0.076 h 0.393 a 0.076,0.076 0 0 1 0.077,0.076 0.077,0.077 0 0 1 -0.077,0.077 z m -0.407,-2.73 H 12 v -0.12 a 0.077,0.077 0 1 1 0.153,0 v 0.12 h 0.12 a 0.077,0.077 0 1 1 0,0.153 h -0.12 v 0.12 a 0.077,0.077 0 1 1 -0.153,0 v -0.12 h -0.12 a 0.077,0.077 0 0 1 0,-0.153 z M 14.632,6.186 H 9.514 a 0.461,0.461 0 0 0 -0.46,0.46 v 1.972 h 6.038 V 6.646 a 0.461,0.461 0 0 0 -0.46,-0.46 z M 12.038,6.85 a 0.044,0.044 0 0 1 0.044,-0.044 h 0.01 a 0.044,0.044 0 0 1 0.044,0.044 v 0.128 a 0.044,0.044 0 0 1 -0.044,0.044 h -0.01 A 0.044,0.044 0 0 1 12.038,6.978 Z m -0.5,0.735 H 11.42 a 0.05,0.05 0 1 1 0,-0.1 h 0.118 a 0.05,0.05 0 0 1 0,0.1 z m 0.187,-0.473 a 0.047,0.047 0 0 1 -0.069,0 L 11.572,7.029 a 0.049,0.049 0 0 1 0,-0.069 0.048,0.048 0 0 1 0.07,0 l 0.083,0.083 a 0.047,0.047 0 0 1 0,0.069 z m 0.6,0.6 v 0 0 a 0.166,0.166 0 0 0 -0.039,0.087 v 0.076 a 0.077,0.077 0 0 1 -0.04,0.068 0.1,0.1 0 0 1 0.025,0.065 v 0.047 a 0.1,0.1 0 0 1 -0.1,0.1 h -0.159 a 0.1,0.1 0 0 1 -0.1,-0.1 V 8.014 A 0.1,0.1 0 0 1 11.937,7.949 0.077,0.077 0 0 1 11.897,7.881 V 7.805 A 0.163,0.163 0 0 0 11.858,7.718 v 0 A 0.306,0.306 0 0 1 12.3,7.3 0.306,0.306 0 0 1 12.318,7.712 Z m 0.117,-0.6 a 0.049,0.049 0 0 1 0,-0.069 L 12.525,6.96 a 0.048,0.048 0 0 1 0.07,0 0.049,0.049 0 0 1 0,0.069 l -0.084,0.083 a 0.047,0.047 0 0 1 -0.073,0 z m 0.288,0.473 h -0.119 a 0.05,0.05 0 1 1 0,-0.1 h 0.119 a 0.05,0.05 0 0 1 0,0.1 z m -0.723,0.3899999 h 0.159 c 0.02216,0 0.04,0.01784 0.04,0.04 v 0.046 c 0,0.02216 -0.01784,0.04 -0.04,0.04 h -0.159 c -0.02216,0 -0.04,-0.01784 -0.04,-0.04 v -0.046 c 0,-0.02216 0.01784,-0.04 0.04,-0.04 z M 12.087,7.267 v 0 a 0.25,0.25 0 0 0 -0.25,0.249 0.254,0.254 0 0 0 0.061,0.164 0.212,0.212 0 0 1 0.054,0.119 v 0.082 a 0.022,0.022 0 0 0 0.022,0.022 H 12.2 A 0.022,0.022 0 0 0 12.222,7.881 V 7.8 a 0.216,0.216 0 0 1 0.05,-0.115 v 0 A 0.249,0.249 0 0 0 12.085,7.272 Z m 0.045,2.103 a 0.813,0.813 0 0 1 0.753,0.81 v 3.006 a 0.814,0.814 0 0 1 -0.753,0.81 v 0.634 h 2.96 V 8.736 h -2.96 z m 2.012,2.124 a 0.189,0.189 0 1 1 -0.188,0.189 0.189,0.189 0 0 1 0.188,-0.189 z m -0.566,0 a 0.189,0.189 0 1 1 -0.188,0.189 0.189,0.189 0 0 1 0.188,-0.189 z m -4.524,5.86 a 0.461,0.461 0 0 0 0.46,0.46 h 5.118 a 0.461,0.461 0 0 0 0.46,-0.46 V 15.163 H 9.054 Z m 3.033,-1.438 a 0.3,0.3 0 0 1 0.23,0.493 v 0 h -0.005 a 0.159,0.159 0 0 0 -0.038,0.085 v 0.075 a 0.076,0.076 0 0 1 -0.04,0.067 0.1,0.1 0 0 1 0.026,0.065 v 0.046 a 0.1,0.1 0 0 1 -0.1,0.094 h -0.157 a 0.094,0.094 0 0 1 -0.094,-0.094 v -0.046 a 0.094,0.094 0 0 1 0.025,-0.065 0.076,0.076 0 0 1 -0.04,-0.067 V 16.5 a 0.155,0.155 0 0 0 -0.038,-0.085 v 0 a 0.3,0.3 0 0 1 0.227,-0.5 z M 12.014,14 A 0.814,0.814 0 0 1 11.26,13.19 V 10.18 A 0.813,0.813 0 0 1 12.014,9.37 V 8.736 h -2.96 v 5.894 h 2.96 z m -1.75,-2.125 a 0.189,0.189 0 1 1 0.188,-0.188 0.189,0.189 0 0 1 -0.188,0.184 z M 17.79,2 H 6.21 A 0.425,0.425 0 0 0 5.785,2.425 v 19.15 A 0.425,0.425 0 0 0 6.21,22 h 11.58 a 0.425,0.425 0 0 0 0.425,-0.425 V 2.425 A 0.425,0.425 0 0 0 17.79,2 Z m -2.546,15.94 a 0.31,0.31 0 0 1 -0.31,0.311 h -5.8 A 0.311,0.311 0 0 1 8.823,17.94 V 6.2 A 0.31,0.31 0 0 1 9.134,5.89 h 5.8 a 0.31,0.31 0 0 1 0.31,0.31 z"/>

</svg>