<?xml version="1.0" encoding="UTF-8"?>
<svg width="24px" fill="#44739e" height="24px" viewBox="0 0 24 24" version="1.1" xmlns="http://www.w3.org/2000/svg" xmlns:xlink="http://www.w3.org/1999/xlink">
            <path d="M 16.91,5.489 A 3.14,3.14 0 0 0 14.848,4.805 c -2.028,0 -4.623,1.424 -6.666,3.864 -2.847,3.4 -3.563,7.5 -1.6,9.151 a 3.991,3.991 0 0 0 4.006,0.311 11.491,11.491 0 0 0 4.722,-3.49 11.507,11.507 0 0 0 2.61,-5.262 3.994,3.994 0 0 0 -1.01,-3.89 z m 0.106,5.11 a 7.529,7.529 0 0 1 -1.752,3.713 7.526,7.526 0 0 1 -3.347,2.376 4.31,4.31 0 0 1 -1.309,0.22 A 2.633,2.633 0 0 1 8.879,16.323 3.123,3.123 0 0 1 7.986,13.4 7.523,7.523 0 0 1 9.738,9.684 7.511,7.511 0 0 1 13.085,7.308 3.12,3.12 0 0 1 16.123,7.672 3.124,3.124 0 0 1 17.016,10.6 Z M 19.452,3.1 A 5.006,5.006 0 0 0 16.163,2 c -3,0 -6.718,1.987 -9.608,5.439 A 15.9,15.9 0 0 0 2.88,15.092 c -0.371,2.532 0.221,4.594 1.668,5.806 A 5,5 0 0 0 7.836,22 8.645,8.645 0 0 0 10.557,21.52 15.9,15.9 0 0 0 17.445,16.558 15.9,15.9 0 0 0 21.12,8.9 C 21.491,6.372 20.9,4.31 19.452,3.1 Z m -1.323,6.315 a 11.708,11.708 0 0 1 -2.654,5.361 11.721,11.721 0 0 1 -4.812,3.555 6.017,6.017 0 0 1 -2.02,0.386 A 3.336,3.336 0 0 1 6.449,17.983 4.193,4.193 0 0 1 5.366,13.9 11.713,11.713 0 0 1 8.019,8.533 a 11.715,11.715 0 0 1 4.813,-3.554 4.192,4.192 0 0 1 4.214,0.348 4.193,4.193 0 0 1 1.083,4.088 z m -0.522,7.279 a 18.469,18.469 0 0 1 -3.086,2.937 0.464,0.464 0 0 0 0.1,0.122 0.457,0.457 0 0 0 0.307,0.106 0.723,0.723 0 0 0 0.1,-0.008 3.755,3.755 0 0 0 1.617,-1.126 17.208,17.208 0 0 0 2.028,-2.6 17.219,17.219 0 0 0 1.765,-3.414 4.449,4.449 0 0 0 0.314,-1.465 17.507,17.507 0 0 1 -3.145,5.448 z"/>

</svg>