<svg xmlns="http://www.w3.org/2000/svg" viewBox="0 0 24 24"><path fill="#44739e" d="m6.837 14.141.752.214.41-.066.791-1.205-.2-.475-.813-.202-.447.73a3 3 0 0 0-.1.18Zm-.448-1.256q-.028.045-.052.091l-.458.892.833.238.459-.91a1 1 0 0 1 .062-.108l.458-.7-.835-.236Zm-.94-.264q-.028.045-.052.091l-.458.893.833.238.458-.911a1 1 0 0 1 .063-.108l.457-.699-.834-.237Zm-1.063-.383a.6.6 0 0 0-.092.16l-.353.913.899.264.48-.935q.015-.03.034-.059l.478-.719-.964-.219Zm-.233.222a1.3 1.3 0 0 1 .149-.263l.455-.614-.688-.133-.376.115-.743 1.211.145.334.704.199Zm-.948.851c.026.044.2.36.2.36l4.326 1.212-.148-.4Zm4.52 1.135.114.437.315-.033-.141-.468Zm13.544-5.094c-.64-1.004-2.103-2.625-5.448-4.648l-.013-.008a17.3 17.3 0 0 0-6.255-2.622 2.69 2.69 0 0 0-2.212.443 2.9 2.9 0 0 0-.774 1.089.47.47 0 0 1 .253.012 1 1 0 0 0 .123.023 3.4 3.4 0 0 1 .644.135 1.9 1.9 0 0 1 .554-.06h.007c3.197.362 7.806 3.262 10.779 5.634l.007.006a10.6 10.6 0 0 1 1.703 2.152l.006.012a.67.67 0 0 1-.041.733.39.39 0 0 1-.399.1l-.038-.013-.018-.036c-.527-1.099-1.952-2.892-5.744-5.186l-.015-.006a17.3 17.3 0 0 0-6.255-2.621 2.69 2.69 0 0 0-2.212.446 2.94 2.94 0 0 0-.774 1.084.5.5 0 0 1 .255.013 1 1 0 0 0 .122.023 3.4 3.4 0 0 1 .643.135 1.8 1.8 0 0 1 .555-.062h.007c3.196.363 7.805 3.262 10.779 5.634l.007.006a10.7 10.7 0 0 1 1.699 2.157l.006.012a.68.68 0 0 1-.042.734.39.39 0 0 1-.4.1l-.038-.013-.018-.036c-.526-1.099-1.949-2.892-5.743-5.187l-.015-.008A17.2 17.2 0 0 0 6.71 6.908a2.68 2.68 0 0 0-2.212.446 2.9 2.9 0 0 0-.777 1.087.5.5 0 0 1 .256.011 1 1 0 0 0 .122.023 3.4 3.4 0 0 1 .644.136 1.9 1.9 0 0 1 .555-.063h.01c3.203.365 7.808 3.263 10.78 5.634l.007.006a10.7 10.7 0 0 1 1.703 2.156l.006.012a.67.67 0 0 1-.041.735.4.4 0 0 1-.453.09l-.032-.014-.015-.032c-.52-1.104-1.942-2.904-5.755-5.21l-.015-.009a17.3 17.3 0 0 0-6.254-2.622 2.69 2.69 0 0 0-2.212.447 3.03 3.03 0 0 0-.88 1.368 3.9 3.9 0 0 1 1.875-.173 17.4 17.4 0 0 1 6.472 2.679l.013.008a27 27 0 0 1 3.289 2.305q.425.32.816.633l.007.006a10.7 10.7 0 0 1 1.703 2.156v.011a1 1 0 0 1 .071.2q.061.116.113.234a.4.4 0 0 1-.452.091l-.032-.015-.015-.031a11.3 11.3 0 0 0-3.88-3.986l-.214.341-2.998-1.838.086-.133-.184-.448-.738 1.131.15.509.283-.437 2.953 1.932-.385.611q.753.533 1.464 1.115.425.32.816.633l.007.006a10.7 10.7 0 0 1 1.704 2.157v.011a1.3 1.3 0 0 1 .07.2 3.4 3.4 0 0 1 .339.983c.064-.1.133-.221.212-.354a6.7 6.7 0 0 0 .607-1.258l.007-.018.012-.014q.211-.234.407-.485l.007.039q.062-.101.132-.22l.1-.133-.013-.012a6.8 6.8 0 0 0 .599-1.248l.006-.018.012-.013a10 10 0 0 0 .851-1.099 6.7 6.7 0 0 0 .6-1.253q-.001-.027.006-.084v-.035l.023-.025a8.5 8.5 0 0 0 .791-1.019 6.8 6.8 0 0 0 .599-1.256v-.116l.024-.027a8.4 8.4 0 0 0 .792-1.018 6.8 6.8 0 0 0 .599-1.258 2.8 2.8 0 0 0-.584-1.724M7.995 3.154a.63.63 0 0 1-.336.309.2.2 0 0 1-.057.007.2.2 0 0 1-.1-.026c-.138-.084-.131-.319.018-.573a.65.65 0 0 1 .339-.308.2.2 0 0 1 .152.019c.154.093.11.358-.016.572m1.118.021a.64.64 0 0 1-.336.308.2.2 0 0 1-.057.008.2.2 0 0 1-.1-.027c-.138-.083-.131-.319.018-.572a.64.64 0 0 1 .338-.307.2.2 0 0 1 .152.018c.157.093.111.358-.015.572m1.12.2a.64.64 0 0 1-.336.309.3.3 0 0 1-.057.007.2.2 0 0 1-.1-.026c-.138-.084-.131-.319.018-.573a.65.65 0 0 1 .338-.307.2.2 0 0 1 .153.018c.157.095.114.361-.016.575Zm1.093.379a.6.6 0 0 1-.337.299.3.3 0 0 1-.064.009.2.2 0 0 1-.111-.031c-.149-.09-.151-.335 0-.585a.62.62 0 0 1 .337-.3.22.22 0 0 1 .175.022c.143.091.144.348 0 .589Zm1.215.49a.65.65 0 0 1-.367.317.3.3 0 0 1-.075.01.24.24 0 0 1-.125-.034c-.166-.1-.173-.377-.017-.643a.66.66 0 0 1 .367-.317.26.26 0 0 1 .2.024c.167.103.174.379.017.646Zm1.377.6a.67.67 0 0 1-.377.321.3.3 0 0 1-.08.01.26.26 0 0 1-.134-.036c-.171-.1-.182-.399-.024-.664a.66.66 0 0 1 .376-.321.28.28 0 0 1 .215.026l.08.048-.011.019a.57.57 0 0 1-.045.603Zm1.398.78a.67.67 0 0 1-.375.321.3.3 0 0 1-.08.01.26.26 0 0 1-.134-.036c-.172-.1-.183-.4-.025-.665a.67.67 0 0 1 .377-.32.27.27 0 0 1 .213.025c.171.11.181.402.023.671Zm-8.739-.053a.64.64 0 0 1-.337.308.3.3 0 0 1-.057.008.2.2 0 0 1-.1-.027c-.139-.083-.131-.319.018-.573a.64.64 0 0 1 .339-.307.2.2 0 0 1 .152.018c.157.093.11.359-.015.573m1.117.02a.64.64 0 0 1-.337.31.3.3 0 0 1-.057.007.2.2 0 0 1-.1-.027c-.138-.083-.131-.319.019-.573A.64.64 0 0 1 7.557 5a.2.2 0 0 1 .156.014c.136.087.128.328-.019.577m1.12.2a.63.63 0 0 1-.337.307.2.2 0 0 1-.057.008.2.2 0 0 1-.1-.027c-.138-.083-.13-.318.019-.571a.64.64 0 0 1 .338-.308.2.2 0 0 1 .057-.008l.016-.027.085.049c.153.1.105.365-.021.581Zm1.093.378a.6.6 0 0 1-.337.3.3.3 0 0 1-.065.009.2.2 0 0 1-.111-.031c-.149-.09-.151-.336 0-.585a.62.62 0 0 1 .338-.3.23.23 0 0 1 .175.022c.142.092.143.344 0 .589Zm1.215.49a.66.66 0 0 1-.367.318.3.3 0 0 1-.075.01.24.24 0 0 1-.126-.035c-.166-.1-.173-.377-.016-.644a.66.66 0 0 1 .367-.317.26.26 0 0 1 .199.025c.168.104.174.38.018.647Zm1.376.599a.67.67 0 0 1-.376.322.3.3 0 0 1-.081.01.26.26 0 0 1-.133-.036c-.171-.1-.182-.4-.024-.664a.67.67 0 0 1 .376-.322.27.27 0 0 1 .214.026c.172.112.187.404.024.672Zm1.399.78a.67.67 0 0 1-.376.321.3.3 0 0 1-.08.01.26.26 0 0 1-.134-.036c-.172-.1-.183-.399-.025-.664a.67.67 0 0 1 .377-.321.27.27 0 0 1 .214.026c.171.112.181.404.023.672Zm-8.74-.05a.64.64 0 0 1-.337.307.2.2 0 0 1-.057.008.2.2 0 0 1-.099-.027c-.139-.083-.131-.318.018-.571a.64.64 0 0 1 .338-.308.2.2 0 0 1 .152.018c.157.097.11.359-.015.573m1.117.024a.63.63 0 0 1-.337.308.2.2 0 0 1-.057.007.2.2 0 0 1-.099-.026c-.138-.084-.13-.318.018-.572a.64.64 0 0 1 .338-.308.2.2 0 0 1 .153.019c.157.089.11.354-.016.572m1.12.199a.63.63 0 0 1-.337.309.2.2 0 0 1-.057.007.2.2 0 0 1-.1-.027c-.137-.083-.129-.319.019-.571a.64.64 0 0 1 .338-.308.2.2 0 0 1 .153.018c.156.093.11.359-.016.572m1.093.378a.62.62 0 0 1-.336.3.3.3 0 0 1-.065.008.2.2 0 0 1-.111-.03c-.148-.09-.15-.337 0-.587a.6.6 0 0 1 .338-.299.23.23 0 0 1 .176.021c.141.09.143.342-.002.587m1.216.49a.66.66 0 0 1-.368.318.3.3 0 0 1-.071.013.24.24 0 0 1-.126-.035c-.166-.1-.173-.376-.016-.643a.66.66 0 0 1 .363-.321.26.26 0 0 1 .2.025c.168.101.179.375.018.643m1.375.6a.67.67 0 0 1-.375.321.3.3 0 0 1-.08.011.26.26 0 0 1-.134-.037c-.172-.1-.183-.4-.025-.664a.67.67 0 0 1 .377-.321.27.27 0 0 1 .213.026c.172.107.182.395.024.668Zm1.399.779a.67.67 0 0 1-.376.321.3.3 0 0 1-.08.011.25.25 0 0 1-.134-.037c-.171-.1-.182-.395-.024-.663a.67.67 0 0 1 .375-.322.28.28 0 0 1 .215.026c.171.108.182.399.024.668Zm-8.791-.087a.64.64 0 0 1-.337.309.3.3 0 0 1-.057.007.2.2 0 0 1-.1-.027c-.139-.083-.131-.319.018-.571a.63.63 0 0 1 .339-.309.2.2 0 0 1 .152.018c.155.098.108.362-.016.577Zm1.115.02a.63.63 0 0 1-.332.318.2.2 0 0 1-.057.007.2.2 0 0 1-.1-.027c-.138-.083-.13-.319.019-.572a.64.64 0 0 1 .338-.307.2.2 0 0 1 .152.018c.152.088.105.353-.021.567Zm1.12.2a.63.63 0 0 1-.336.308.2.2 0 0 1-.056.008.2.2 0 0 1-.1-.027c-.138-.083-.13-.319.019-.573a.64.64 0 0 1 .339-.297.2.2 0 0 1 .152.019c.154.09.107.355-.019.57Zm1.093.378a.6.6 0 0 1-.335.299.3.3 0 0 1-.065.009.2.2 0 0 1-.111-.031c-.149-.09-.151-.335 0-.585a.6.6 0 0 1 .337-.3.22.22 0 0 1 .175.021c.144.099.145.345-.002.595Zm1.219.486a.66.66 0 0 1-.368.318.3.3 0 0 1-.074.009.24.24 0 0 1-.127-.034c-.166-.1-.173-.377-.016-.643a.66.66 0 0 1 .367-.317.26.26 0 0 1 .2.024c.166.109.173.385.017.651Zm1.375.607a.67.67 0 0 1-.376.321.3.3 0 0 1-.079.011.26.26 0 0 1-.135-.037c-.174-.106-.184-.39-.025-.663a.67.67 0 0 1 .376-.322.28.28 0 0 1 .215.027c.17.109.18.403.023.671Zm1.398.78a.67.67 0 0 1-.375.322.4.4 0 0 1-.08.01.25.25 0 0 1-.135-.037c-.171-.1-.181-.395-.023-.664a.67.67 0 0 1 .376-.321.28.28 0 0 1 .212.025c.17.113.181.405.023.673Zm1.455 3.861a.66.66 0 0 1-.376.321.3.3 0 0 1-.08.011.26.26 0 0 1-.138-.032c-.172-.1-.183-.395-.025-.664a.67.67 0 0 1 .376-.321.27.27 0 0 1 .214.026c.171.102.182.392.029.659m1.106.889a.67.67 0 0 1-.376.321.3.3 0 0 1-.08.01.26.26 0 0 1-.134-.036c-.171-.1-.182-.4-.024-.663a.67.67 0 0 1 .376-.323.27.27 0 0 1 .214.026c.167.106.177.398.017.667Zm.644 1.258a.3.3 0 0 1-.08.01.26.26 0 0 1-.134-.036c-.171-.1-.182-.4-.024-.664a.67.67 0 0 1 .376-.321.27.27 0 0 1 .214.026c.172.1.182.4.024.663a.67.67 0 0 1-.381.324Zm.77.915a.3.3 0 0 1-.067.009.2.2 0 0 1-.11-.03c-.154-.092-.148-.367.013-.641a.7.7 0 0 1 .376-.339.23.23 0 0 1 .172.019c.151.1.146.371-.013.641a.7.7 0 0 1-.376.343Zm1.033.728a.7.7 0 0 1-.378.334.3.3 0 0 1-.069.009.2.2 0 0 1-.117-.032c-.159-.1-.157-.373 0-.647a.7.7 0 0 1 .378-.334.24.24 0 0 1 .186.023c.156.098.155.376-.005.653ZM12.417 13.7a.66.66 0 0 1-.376.322.3.3 0 0 1-.079.01.26.26 0 0 1-.134-.036c-.171-.1-.182-.4-.024-.664a.67.67 0 0 1 .366-.325.28.28 0 0 1 .213.025c.172.108.183.399.025.667Zm1.299.915a.66.66 0 0 1-.376.322.3.3 0 0 1-.08.01.25.25 0 0 1-.134-.037c-.171-.1-.181-.395-.025-.664a.67.67 0 0 1 .377-.32.27.27 0 0 1 .214.026c.168.103.174.394.016.662Zm1.106.889a.67.67 0 0 1-.376.321.3.3 0 0 1-.08.011.26.26 0 0 1-.134-.037c-.172-.1-.182-.4-.025-.663a.67.67 0 0 1 .377-.322.28.28 0 0 1 .215.026c.16.102.174.395.015.664Zm.644 1.258a.3.3 0 0 1-.08.01.26.26 0 0 1-.134-.036c-.171-.1-.182-.4-.025-.664a.67.67 0 0 1 .377-.321.27.27 0 0 1 .214.026c.172.1.182.4.024.664a.67.67 0 0 1-.384.32Zm.769.916a.3.3 0 0 1-.067.008.2.2 0 0 1-.109-.03c-.153-.092-.148-.367.013-.641a.7.7 0 0 1 .376-.339.23.23 0 0 1 .173.019c.151.1.146.371-.013.642a.7.7 0 0 1-.381.34Zm1.021.723a.7.7 0 0 1-.376.334.3.3 0 0 1-.07.009.2.2 0 0 1-.116-.031c-.159-.1-.158-.374 0-.647a.7.7 0 0 1 .378-.334.24.24 0 0 1 .185.022c.165.099.164.378-.001.647m-3.378-7.093a.67.67 0 0 1-.376.322.3.3 0 0 1-.081.01.25.25 0 0 1-.134-.037c-.172-.1-.182-.4-.024-.663a.66.66 0 0 1 .376-.321.27.27 0 0 1 .214.026c.176.106.187.398.029.663Zm1.298.915a.66.66 0 0 1-.374.322.3.3 0 0 1-.08.011.26.26 0 0 1-.135-.037c-.174-.105-.184-.39-.024-.663a.67.67 0 0 1 .377-.323.3.3 0 0 1 .123-.007l.011-.019.081.049c.174.107.184.4.024.67Zm1.104.887a.67.67 0 0 1-.375.322.4.4 0 0 1-.08.01.25.25 0 0 1-.134-.037c-.175-.1-.185-.39-.025-.663a.67.67 0 0 1 .376-.322.28.28 0 0 1 .214.026c.174.107.185.399.027.667Zm.645 1.259a.3.3 0 0 1-.08.01.26.26 0 0 1-.135-.036c-.174-.105-.185-.39-.024-.664a.67.67 0 0 1 .376-.322.28.28 0 0 1 .214.027c.171.1.182.395.024.664a.67.67 0 0 1-.372.324Zm.769.915a.3.3 0 0 1-.067.008.2.2 0 0 1-.11-.028c-.153-.093-.148-.369.013-.642a.7.7 0 0 1 .377-.34.23.23 0 0 1 .177.022c.152.093.147.369-.013.642a.7.7 0 0 1-.374.341Zm1.04.732a.7.7 0 0 1-.378.333.3.3 0 0 1-.07.009.23.23 0 0 1-.115-.031c-.16-.099-.159-.375 0-.648a.7.7 0 0 1 .377-.334.24.24 0 0 1 .186.023c.164.099.163.377.003.651Zm-3.437-7.123a.67.67 0 0 1-.375.32.3.3 0 0 1-.08.011.26.26 0 0 1-.135-.037c-.171-.1-.182-.399-.024-.663a.67.67 0 0 1 .376-.322.28.28 0 0 1 .214.026c.174.107.185.399.027.668Zm1.299.914a.66.66 0 0 1-.375.321.3.3 0 0 1-.08.011.26.26 0 0 1-.134-.036c-.174-.105-.184-.391-.024-.664a.67.67 0 0 1 .374-.319.28.28 0 0 1 .215.026c.175.104.185.395.027.664Zm1.104.886a.68.68 0 0 1-.376.323.4.4 0 0 1-.08.01.26.26 0 0 1-.133-.037c-.175-.105-.185-.391-.025-.664a.67.67 0 0 1 .378-.315.28.28 0 0 1 .215.026c.177.102.184.387.024.66Zm.644 1.26a.3.3 0 0 1-.08.01.26.26 0 0 1-.134-.036c-.174-.106-.185-.392-.024-.665a.67.67 0 0 1 .375-.321.27.27 0 0 1 .215.027l.08.048-.011.019a.56.56 0 0 1-.045.599.67.67 0 0 1-.373.322Zm.769.915a.3.3 0 0 1-.066.009.2.2 0 0 1-.111-.03c-.155-.094-.15-.364.013-.642a.7.7 0 0 1 .377-.338.23.23 0 0 1 .176.021c.154.093.148.369-.012.642a.7.7 0 0 1-.374.341Zm1.041.738a.7.7 0 0 1-.378.335.3.3 0 0 1-.069.009.2.2 0 0 1-.117-.032c-.159-.1-.158-.375 0-.648a.7.7 0 0 1 .378-.333.24.24 0 0 1 .187.022c.162.093.161.37-.001.647m-3.436-7.123a.67.67 0 0 1-.376.321.3.3 0 0 1-.08.011.26.26 0 0 1-.135-.037c-.17-.1-.181-.4-.023-.664a.67.67 0 0 1 .375-.321.28.28 0 0 1 .215.026c.173.1.184.394.026.66Zm1.299.914a.66.66 0 0 1-.375.322.3.3 0 0 1-.08.011.26.26 0 0 1-.135-.037c-.174-.106-.184-.391-.024-.665a.67.67 0 0 1 .376-.32.28.28 0 0 1 .215.026c.176.101.186.386.025.659Zm1.104.886a.67.67 0 0 1-.377.323.3.3 0 0 1-.079.01.26.26 0 0 1-.135-.036c-.171-.1-.182-.4-.024-.664a.67.67 0 0 1 .376-.322.28.28 0 0 1 .215.026c.175.101.185.392.026.659Zm.644 1.26a.3.3 0 0 1-.08.01.25.25 0 0 1-.131-.043c-.174-.105-.185-.391-.024-.663a.67.67 0 0 1 .376-.322.27.27 0 0 1 .215.027c.17.1.181.4.024.663a.67.67 0 0 1-.378.324Zm.768.915a.3.3 0 0 1-.066.009.2.2 0 0 1-.111-.03c-.152-.093-.146-.368.013-.641a.7.7 0 0 1 .378-.339.23.23 0 0 1 .176.021c.154.093.148.369-.012.642a.7.7 0 0 1-.376.334Zm1.04.731a.7.7 0 0 1-.377.335.3.3 0 0 1-.069.009.2.2 0 0 1-.117-.032c-.159-.1-.158-.374 0-.647a.7.7 0 0 1 .377-.334.24.24 0 0 1 .187.022c.163.092.162.367.001.643Z"/></svg>