<svg xmlns="http://www.w3.org/2000/svg" viewBox="0 0 24 24"><path fill="#44739e" d="M16.909 5.491a3.14 3.14 0 0 0-2.062-.684c-2.027 0-4.622 1.423-6.664 3.863-2.846 3.399-3.562 7.498-1.6 9.149a3.99 3.99 0 0 0 4.005.311 11.5 11.5 0 0 0 4.721-3.49 11.5 11.5 0 0 0 2.61-5.26 4 4 0 0 0-1.01-3.889m.106 5.108a7.53 7.53 0 0 1-1.752 3.712 7.53 7.53 0 0 1-3.346 2.376 4.3 4.3 0 0 1-1.309.22 2.63 2.63 0 0 1-1.728-.585 3.12 3.12 0 0 1-.893-2.922 7.5 7.5 0 0 1 1.752-3.715 7.5 7.5 0 0 1 3.346-2.376 3.12 3.12 0 0 1 3.037.364 3.12 3.12 0 0 1 .893 2.927Zm2.435-7.497a5 5 0 0 0-3.288-1.1c-2.999 0-6.716 1.987-9.606 5.438a15.9 15.9 0 0 0-3.674 7.651c-.371 2.532.221 4.593 1.668 5.805a5 5 0 0 0 3.287 1.102 8.7 8.7 0 0 0 2.72-.48 15.9 15.9 0 0 0 6.887-4.961 15.9 15.9 0 0 0 3.674-7.656c.371-2.528-.22-4.589-1.668-5.799m-1.323 6.314a11.7 11.7 0 0 1-2.653 5.359 11.7 11.7 0 0 1-4.811 3.555 6 6 0 0 1-2.019.385 3.34 3.34 0 0 1-2.194-.733A4.19 4.19 0 0 1 5.368 13.9 11.7 11.7 0 0 1 8.02 8.534a11.7 11.7 0 0 1 4.812-3.553 4.19 4.19 0 0 1 4.213.348 4.19 4.19 0 0 1 1.082 4.087m-.521 7.277a18.5 18.5 0 0 1-3.086 2.936.5.5 0 0 0 .1.122.46.46 0 0 0 .307.106 1 1 0 0 0 .1-.008 3.76 3.76 0 0 0 1.617-1.126 17 17 0 0 0 2.027-2.599 17.2 17.2 0 0 0 1.765-3.413 4.5 4.5 0 0 0 .314-1.465 17.5 17.5 0 0 1-3.144 5.447"/></svg>