<svg xmlns="http://www.w3.org/2000/svg" viewBox="0 0 24 24"><path fill="#44739e" d="M14.513 10.44a2.73 2.73 0 0 0 .015-3.809 2.732 2.732 0 1 0-3.928 0 2.73 2.73 0 0 0 .015 3.809 2.73 2.73 0 0 0 .024 3.85 2.73 2.73 0 0 0-.544 3.11.217.217 0 0 0 .342.066.4.4 0 0 0 .1-.445 2.17 2.17 0 0 1 .534-2.381 2 2 0 0 1 .228-.186.2.2 0 0 0 0-.332 2 2 0 0 1-.228-.187 2.17 2.17 0 0 1-.03-3.136 2 2 0 0 1 .222-.189.21.21 0 0 0 0-.336 2 2 0 0 1-.222-.189 2.167 2.167 0 0 1-.018-3.088 2 2 0 0 1 .218-.19.213.213 0 0 0 0-.339 2 2 0 0 1-.218-.191 2.172 2.172 0 1 1 3.068 0 2 2 0 0 1-.218.191.213.213 0 0 0 0 .339 2 2 0 0 1 .218.19 2.167 2.167 0 0 1-.018 3.088 2 2 0 0 1-.222.189.21.21 0 0 0 0 .336 2 2 0 0 1 .222.189 2.17 2.17 0 0 1-.03 3.136 2 2 0 0 1-.228.187l-.034.024a.175.175 0 0 0 0 .288l.034.024a2 2 0 0 1 .228.186 2.171 2.171 0 0 1-1.378 3.756 2.3 2.3 0 0 1-1.032-.189 6 6 0 0 1-.71-.224 4 4 0 0 0-.494-.144.91.91 0 0 0-.987.29 1.2 1.2 0 0 0-.023 1.12c.5.895 2.434.589 3.016.474a7.7 7.7 0 0 1 1.786-.193c.247.008.392.084.413.133.011.027 0 .146-.205.367a1.53 1.53 0 0 1-.81.33 3.1 3.1 0 0 1-1.33-.058 13.6 13.6 0 0 0-2.894-.357.84.84 0 0 0-.68.614 1.07 1.07 0 0 0 .48 1.054c.119.094.479.383 2.19.383.627 0 1.218-.037 1.549-.063a.27.27 0 0 0 .245-.293.293.293 0 0 0-.313-.264c-.352.027-.918.06-1.481.06-1.367 0-1.741-.182-1.839-.261-.213-.17-.321-.353-.289-.487a.3.3 0 0 1 .253-.2 14.7 14.7 0 0 1 2.624.344 3.05 3.05 0 0 0 2.706-.434c.324-.354.427-.678.307-.962a.95.95 0 0 0-.91-.476 8.2 8.2 0 0 0-1.914.2c-1.185.235-2.225.15-2.417-.2a.68.68 0 0 1-.01-.524c.079-.107.3-.085.432-.062a4 4 0 0 1 .414.124c.221.074.5.155.785.24a2.7 2.7 0 0 0 1.131.2 2.73 2.73 0 0 0 1.828-4.666 2.73 2.73 0 0 0 .024-3.85Zm-2.885 7.76"/></svg>