<svg xmlns="http://www.w3.org/2000/svg" viewBox="0 0 24 24"><path fill="#44739e" d="M12.522 9.825v.009l.015-.002.02.009v-.012l7.896-1.338.015-.002v-.254L12.542 9.54 2.076 4.559l-.025-.012v.287l.255.122-.292.063.002.01L2 5.02l.198 9.243v.01l.363.182v-.011h.243L2.623 5.94l.367-.658 7.349 3.502v4.134l.422.246.234-.074V9.097Zm-.456-.039v10.573l.456.226v.01l.015-.003.02.01v-.014l.29-.056-.068-9.827.892-.513 7.298-1.216.158.218-.122 9.355v.012l.534.218v.026l.021-.017.014.005v-.017l.203-.17.151-10.117v-.02l-9.386 1.541ZM20.9 8.151l-.123.275L22 8.218v-.234Zm-.096-.017 1.174-.165L10.491 3.4l-.004-.002-.914.114 11.226 4.62Zm-8.305 1.322 7.954-1.276-11.061-4.6-.004-.001-7.381.896 10.487 4.978Z"/></svg>