<svg xmlns="http://www.w3.org/2000/svg" viewBox="0 0 24 24"><path fill="#44739e" d="M13.842 12.385h.23v.531h-.23Zm.892-2.439-.174-.017-.015.191.174.016ZM7.708 8.843l.028.188L7.908 9l-.028-.188Zm1.057-.191.028.188.172-.03-.029-.189Zm4.962 1.198-.173-.016-.016.19.174.016Zm-.449 2.364h-1.471v3.459h1.471Zm-.22 3.222h-1.03V14.3h1.03Zm0-1.382h-1.03v-1.6h1.03Zm-.344-4.3-.173-.016-.015.19.173.016Zm7.302.693-.173-.017-.015.191.173.016Zm-3.107-.295-.173-.016-.015.19.173.016Zm1.081.103-.173-.017-.015.19.173.017Zm-2.163-.205-.174-.017-.015.19.174.017Zm2.44 2.295h.304v.611h-.304Zm-6.562-2.686-.174-.017-.015.19.174.017Zm7.228.685-.173-.016-.015.19.173.016Zm2.164.205-.173-.016-.015.19.173.017ZM2.515 13.578h4.429v.516H2.515Zm1.728-3.75-.028-.188-.172.031.028.188Zm-1 .18-.028-.188-.172.031.028.188Zm-.728 5.349h4.429v.516H2.515Zm2.731-5.71-.028-.188-.172.031.028.188ZM22 8.653v-.367h-4.559l-.569.421v.217l-.037.026.037.009V9.1l.156-.1.04.009v.038h.111v-.018l.052.012v.636l-4.6-.44.27-1.485-.054-.364-6.871 1.248v.144l-3.965.756-.011.483.039-.007v6.6h5.8l.056-.068 3.19.015v.051h10.878v-5.982H22v-.492h-.046V8.653Zm-4.6.106.065-.047v.067h.111v-.122h-.035l.01-.007h.113v.068h.112V8.65h.887v.07h.111v-.07h.926v.069h.111v-.068h.923v.067h.111v-.067h.92v.067h.015v.223h-2.902v.784h2.91v.389L17.4 9.693v-.8l-.058-.014h.111v-.12Zm4.362.323v.5H20.53v-.5Zm-1.362 0v.5h-1.393v-.5ZM17.336 8.8v.075h-.025v-.03h-.031ZM6.944 16.428v-.478H2.515v.478H2.2V10.2l.1-.017-.028-.193L2.2 10v-.019L6.462 9.2l-.134-.121L7.4 8.888l.015 7.54Zm.938-.136-.01.012-.027-5.13.037.02Zm3.2.179-3.122-.008.083-.1v-.027l.227-.22v.006h2.812Zm-3.039-.238v-4.947h.164l.008 4.78Zm1.072-.43V12.65h.343v3.15Zm.481 0V12.65h.346v3.15Zm.49 0V12.65h.342v3.15Zm.661.2v-3.667H8.8v3.67h-.471l-.008-4.72 2.736.008.029 4.714Zm11.049.42H11.253l-.031-5.315h-.047v-.077l-3.4.011.025 5.351-.026.033-.187-.011-.016-7.556 2.169-.383.028.189.172-.029-.028-.19.922-.163.028.185.172-.032-.028-.185.372-.065.037.941-1.315-.1-.013.472L21.8 10.611ZM10.751 9.568l-.173-.016-.015.19.173.016Zm-4.508-.1-.028-.189-.172.031.029.189Zm.601-.47.029.189.171-.031-.028-.189Zm-4.329 5.766h4.429v.516H2.515Zm0-2.371h4.429v.516H2.515Zm4.576-.224h.23v.531h-.23Zm-4.576 2.002h4.429v.516H2.515Zm0-1.186h4.429v.516H2.515Zm15.174-.771h-1.47v3.459h1.47Zm-.22 3.222h-1.03V14.3h1.03Zm0-1.382h-1.03v-1.6h1.03Z"/></svg>