<?xml version="1.0" encoding="UTF-8"?>
<svg width="24px" fill="#44739e" height="24px" viewBox="0 0 24 24" version="1.1" xmlns="http://www.w3.org/2000/svg" xmlns:xlink="http://www.w3.org/1999/xlink">
            <path d="M 6.671,14.135 7.423,14.35 7.834,14.284 8.625,13.077 8.425,12.602 7.611,12.4 7.164,13.13 c -0.036,0.059 -0.069,0.119 -0.1,0.181 z M 6.222,12.878 c -0.019,0.03 -0.036,0.06 -0.052,0.091 L 5.712,13.862 6.545,14.1 7.005,13.189 A 0.97,0.97 0 0 1 7.067,13.081 L 7.525,12.381 6.69,12.144 Z M 5.281,12.614 c -0.019,0.03 -0.036,0.06 -0.052,0.091 l -0.458,0.894 0.833,0.238 0.459,-0.912 A 1.168,1.168 0 0 1 6.126,12.817 L 6.583,12.117 5.749,11.88 Z M 4.217,12.231 a 0.635,0.635 0 0 0 -0.092,0.16 l -0.353,0.914 0.9,0.264 0.48,-0.936 c 0.01,-0.02 0.022,-0.04 0.034,-0.059 L 5.665,11.854 4.7,11.635 Z M 3.984,12.453 A 1.29,1.29 0 0 1 4.133,12.19 L 4.589,11.575 3.9,11.442 3.523,11.557 2.78,12.769 l 0.145,0.334 0.705,0.2 z m -0.949,0.852 c 0.026,0.044 0.2,0.36 0.2,0.36 l 4.33,1.213 -0.148,-0.4 z m 4.524,1.136 0.114,0.437 0.316,-0.033 -0.141,-0.468 z M 21.116,9.342 C 20.476,8.337 19.011,6.714 15.663,4.689 L 15.65,4.681 A 17.252,17.252 0 0 0 9.389,2.057 2.688,2.688 0 0 0 7.175,2.5 2.925,2.925 0 0 0 6.4,3.59 0.472,0.472 0 0 1 6.654,3.602 0.925,0.925 0 0 0 6.777,3.625 3.384,3.384 0 0 1 7.421,3.76 1.85,1.85 0 0 1 7.976,3.7 h 0.007 c 3.2,0.363 7.813,3.265 10.789,5.64 l 0.007,0.006 a 10.631,10.631 0 0 1 1.705,2.154 l 0.006,0.012 a 0.673,0.673 0 0 1 -0.041,0.734 0.39,0.39 0 0 1 -0.4,0.1 L 20.011,12.333 19.993,12.297 C 19.466,11.197 18.04,9.402 14.244,7.106 L 14.229,7.1 A 17.252,17.252 0 0 0 7.968,4.476 2.688,2.688 0 0 0 5.754,4.923 2.941,2.941 0 0 0 4.979,6.008 0.475,0.475 0 0 1 5.234,6.021 0.94,0.94 0 0 0 5.356,6.044 3.384,3.384 0 0 1 6,6.179 1.818,1.818 0 0 1 6.555,6.117 h 0.007 c 3.2,0.363 7.813,3.265 10.79,5.639 l 0.007,0.006 a 10.693,10.693 0 0 1 1.7,2.159 l 0.006,0.012 a 0.675,0.675 0 0 1 -0.042,0.735 0.39,0.39 0 0 1 -0.4,0.1 l -0.038,-0.013 -0.018,-0.036 c -0.526,-1.1 -1.951,-2.895 -5.749,-5.192 L 12.803,9.519 A 17.242,17.242 0 0 0 6.543,6.895 2.684,2.684 0 0 0 4.329,7.342 2.918,2.918 0 0 0 3.552,8.43 0.479,0.479 0 0 1 3.808,8.441 0.8,0.8 0 0 0 3.93,8.464 3.354,3.354 0 0 1 4.574,8.6 1.86,1.86 0 0 1 5.13,8.537 h 0.01 c 3.206,0.365 7.816,3.266 10.79,5.639 l 0.007,0.006 a 10.658,10.658 0 0 1 1.705,2.159 l 0.006,0.012 a 0.674,0.674 0 0 1 -0.041,0.735 0.4,0.4 0 0 1 -0.453,0.09 L 17.122,17.164 17.107,17.132 C 16.586,16.027 15.163,14.225 11.346,11.917 L 11.331,11.908 A 17.267,17.267 0 0 0 5.071,9.284 2.688,2.688 0 0 0 2.857,9.731 3.027,3.027 0 0 0 1.976,11.1 3.884,3.884 0 0 1 3.853,10.927 v 0 a 17.4,17.4 0 0 1 6.478,2.682 l 0.013,0.008 a 27.051,27.051 0 0 1 3.292,2.307 c 0.283,0.212 0.557,0.426 0.817,0.634 l 0.007,0.006 a 10.652,10.652 0 0 1 1.705,2.158 v 0.011 a 1.2,1.2 0 0 1 0.071,0.2 c 0.041,0.077 0.078,0.155 0.113,0.234 v 0 a 0.4,0.4 0 0 1 -0.453,0.091 l -0.032,-0.015 -0.015,-0.031 a 11.281,11.281 0 0 0 -3.883,-3.99 l -0.215,0.342 -3,-1.84 0.086,-0.133 -0.185,-0.449 -0.738,1.133 0.15,0.509 0.283,-0.437 2.956,1.933 -0.385,0.612 q 0.753,0.534 1.465,1.116 c 0.282,0.213 0.557,0.426 0.817,0.634 l 0.007,0.006 a 10.721,10.721 0 0 1 1.705,2.159 v 0.011 a 1.319,1.319 0 0 1 0.071,0.2 3.369,3.369 0 0 1 0.339,0.984 c 0.064,-0.1 0.133,-0.221 0.212,-0.354 a 6.739,6.739 0 0 0 0.608,-1.26 l 0.007,-0.018 0.012,-0.014 c 0.141,-0.156 0.276,-0.318 0.407,-0.485 l 0.007,0.039 c 0.042,-0.067 0.085,-0.141 0.132,-0.22 0.033,-0.044 0.067,-0.088 0.1,-0.133 l -0.013,-0.012 a 6.788,6.788 0 0 0 0.6,-1.25 l 0.006,-0.018 0.012,-0.013 a 9.713,9.713 0 0 0 0.852,-1.1 6.74,6.74 0 0 0 0.6,-1.254 c 0,-0.017 0,-0.047 0.006,-0.084 v -0.035 l 0.023,-0.025 a 8.486,8.486 0 0 0 0.792,-1.02 6.745,6.745 0 0 0 0.6,-1.257 c 0,-0.026 0,-0.053 0,-0.08 v -0.036 l 0.024,-0.027 a 8.4,8.4 0 0 0 0.792,-1.019 6.755,6.755 0 0 0 0.6,-1.26 2.786,2.786 0 0 0 -0.585,-1.725 z M 7.83,3.138 A 0.632,0.632 0 0 1 7.493,3.447 0.234,0.234 0 0 1 7.436,3.454 0.19,0.19 0 0 1 7.336,3.428 C 7.198,3.344 7.205,3.109 7.354,2.855 A 0.645,0.645 0 0 1 7.694,2.546 0.19,0.19 0 0 1 7.846,2.565 C 8,2.658 7.956,2.924 7.83,3.138 Z M 8.949,3.159 A 0.636,0.636 0 0 1 8.612,3.467 0.205,0.205 0 0 1 8.555,3.475 0.178,0.178 0 0 1 8.455,3.448 C 8.317,3.365 8.324,3.129 8.473,2.876 A 0.641,0.641 0 0 1 8.812,2.568 0.194,0.194 0 0 1 8.964,2.586 C 9.121,2.679 9.075,2.945 8.949,3.159 Z m 1.121,0.2 A 0.635,0.635 0 0 1 9.733,3.668 0.246,0.246 0 0 1 9.676,3.675 0.187,0.187 0 0 1 9.576,3.649 C 9.438,3.565 9.445,3.33 9.594,3.076 A 0.645,0.645 0 0 1 9.933,2.768 0.2,0.2 0 0 1 10.086,2.786 C 10.243,2.882 10.2,3.148 10.07,3.362 Z m 1.094,0.379 a 0.612,0.612 0 0 1 -0.337,0.3 0.248,0.248 0 0 1 -0.065,0.009 0.213,0.213 0 0 1 -0.111,-0.031 C 10.502,3.926 10.5,3.68 10.651,3.43 a 0.618,0.618 0 0 1 0.338,-0.3 0.223,0.223 0 0 1 0.175,0.022 c 0.143,0.091 0.144,0.348 0,0.589 z M 12.38,4.229 A 0.653,0.653 0 0 1 12.013,4.546 0.287,0.287 0 0 1 11.938,4.556 0.236,0.236 0 0 1 11.812,4.522 C 11.646,4.422 11.639,4.145 11.795,3.878 a 0.655,0.655 0 0 1 0.368,-0.317 0.259,0.259 0 0 1 0.2,0.024 c 0.167,0.103 0.174,0.38 0.017,0.647 z m 1.378,0.6 a 0.668,0.668 0 0 1 -0.377,0.322 0.319,0.319 0 0 1 -0.08,0.01 0.259,0.259 0 0 1 -0.134,-0.036 c -0.171,-0.1 -0.182,-0.4 -0.024,-0.665 a 0.664,0.664 0 0 1 0.376,-0.321 0.277,0.277 0 0 1 0.215,0.026 l 0.08,0.048 -0.011,0.019 a 0.568,0.568 0 0 1 -0.045,0.603 z m 1.4,0.781 a 0.665,0.665 0 0 1 -0.376,0.321 0.319,0.319 0 0 1 -0.08,0.01 0.256,0.256 0 0 1 -0.134,-0.036 c -0.172,-0.1 -0.183,-0.4 -0.025,-0.665 a 0.67,0.67 0 0 1 0.377,-0.321 0.274,0.274 0 0 1 0.214,0.026 c 0.171,0.11 0.181,0.402 0.023,0.671 z M 6.41,5.557 A 0.636,0.636 0 0 1 6.073,5.865 0.251,0.251 0 0 1 6.016,5.873 0.187,0.187 0 0 1 5.916,5.846 C 5.777,5.763 5.785,5.527 5.934,5.273 A 0.635,0.635 0 0 1 6.273,4.966 0.194,0.194 0 0 1 6.425,4.984 C 6.582,5.077 6.535,5.343 6.41,5.557 Z m 1.118,0.02 A 0.637,0.637 0 0 1 7.191,5.887 0.246,0.246 0 0 1 7.134,5.894 0.178,0.178 0 0 1 7.034,5.867 C 6.896,5.784 6.903,5.548 7.053,5.294 A 0.64,0.64 0 0 1 7.391,4.986 0.2,0.2 0 0 1 7.547,5 V 5 C 7.683,5.087 7.675,5.328 7.528,5.577 Z m 1.121,0.2 A 0.63,0.63 0 0 1 8.312,6.085 0.2,0.2 0 0 1 8.255,6.093 0.181,0.181 0 0 1 8.155,6.066 C 8.017,5.983 8.025,5.747 8.174,5.494 A 0.64,0.64 0 0 1 8.512,5.186 0.244,0.244 0 0 1 8.569,5.178 L 8.585,5.151 8.67,5.2 C 8.824,5.3 8.776,5.565 8.649,5.781 Z M 9.743,6.156 A 0.612,0.612 0 0 1 9.406,6.456 0.248,0.248 0 0 1 9.341,6.465 0.213,0.213 0 0 1 9.23,6.434 C 9.081,6.344 9.079,6.098 9.23,5.848 a 0.618,0.618 0 0 1 0.338,-0.3 0.227,0.227 0 0 1 0.175,0.022 c 0.143,0.092 0.144,0.344 0,0.59 z m 1.217,0.49 A 0.661,0.661 0 0 1 10.592,6.964 0.322,0.322 0 0 1 10.517,6.974 0.242,0.242 0 0 1 10.391,6.939 C 10.225,6.839 10.218,6.562 10.375,6.295 a 0.657,0.657 0 0 1 0.367,-0.317 0.258,0.258 0 0 1 0.2,0.025 c 0.168,0.104 0.174,0.38 0.018,0.647 z m 1.377,0.6 A 0.669,0.669 0 0 1 11.961,7.568 0.332,0.332 0 0 1 11.88,7.578 0.259,0.259 0 0 1 11.746,7.542 c -0.171,-0.1 -0.182,-0.4 -0.024,-0.665 a 0.668,0.668 0 0 1 0.377,-0.322 0.274,0.274 0 0 1 0.214,0.026 c 0.172,0.112 0.187,0.404 0.024,0.673 z m 1.4,0.781 a 0.665,0.665 0 0 1 -0.376,0.321 0.319,0.319 0 0 1 -0.08,0.01 0.256,0.256 0 0 1 -0.134,-0.036 c -0.172,-0.1 -0.183,-0.4 -0.025,-0.665 a 0.67,0.67 0 0 1 0.377,-0.321 0.274,0.274 0 0 1 0.214,0.026 c 0.171,0.112 0.181,0.404 0.023,0.673 z M 4.989,7.976 A 0.636,0.636 0 0 1 4.652,8.284 0.205,0.205 0 0 1 4.595,8.292 0.178,0.178 0 0 1 4.495,8.265 C 4.356,8.182 4.364,7.946 4.513,7.693 A 0.641,0.641 0 0 1 4.852,7.385 0.194,0.194 0 0 1 5.004,7.403 C 5.161,7.5 5.114,7.762 4.989,7.976 Z M 6.107,8 A 0.628,0.628 0 0 1 5.77,8.309 0.234,0.234 0 0 1 5.713,8.316 0.19,0.19 0 0 1 5.613,8.29 C 5.475,8.206 5.483,7.971 5.632,7.717 A 0.64,0.64 0 0 1 5.97,7.409 0.193,0.193 0 0 1 6.123,7.428 C 6.28,7.517 6.233,7.782 6.107,8 Z M 7.228,8.2 A 0.632,0.632 0 0 1 6.891,8.509 0.234,0.234 0 0 1 6.834,8.516 0.181,0.181 0 0 1 6.734,8.489 C 6.596,8.406 6.604,8.17 6.753,7.917 A 0.64,0.64 0 0 1 7.091,7.609 0.2,0.2 0 0 1 7.244,7.627 C 7.4,7.72 7.354,7.986 7.228,8.2 Z M 8.322,8.578 A 0.616,0.616 0 0 1 7.986,8.878 0.3,0.3 0 0 1 7.921,8.886 0.212,0.212 0 0 1 7.81,8.856 C 7.661,8.766 7.659,8.519 7.81,8.269 A 0.612,0.612 0 0 1 8.148,7.969 0.225,0.225 0 0 1 8.324,7.99 C 8.465,8.081 8.467,8.333 8.322,8.578 Z M 9.539,9.069 A 0.661,0.661 0 0 1 9.171,9.387 0.337,0.337 0 0 1 9.1,9.4 0.239,0.239 0 0 1 8.974,9.365 C 8.808,9.265 8.801,8.988 8.958,8.721 A 0.657,0.657 0 0 1 9.321,8.4 0.258,0.258 0 0 1 9.521,8.425 C 9.689,8.526 9.7,8.8 9.539,9.069 Z m 1.377,0.6 A 0.665,0.665 0 0 1 10.54,9.99 0.321,0.321 0 0 1 10.46,10.001 0.257,0.257 0 0 1 10.326,9.964 C 10.154,9.864 10.143,9.564 10.301,9.3 a 0.668,0.668 0 0 1 0.377,-0.322 0.274,0.274 0 0 1 0.214,0.026 v 0 c 0.172,0.108 0.182,0.396 0.024,0.669 z m 1.4,0.78 a 0.667,0.667 0 0 1 -0.376,0.321 0.327,0.327 0 0 1 -0.08,0.011 0.251,0.251 0 0 1 -0.135,-0.037 c -0.171,-0.1 -0.182,-0.395 -0.024,-0.664 a 0.666,0.666 0 0 1 0.376,-0.322 0.277,0.277 0 0 1 0.215,0.026 c 0.171,0.108 0.182,0.4 0.024,0.669 z m -8.8,-0.087 a 0.639,0.639 0 0 1 -0.337,0.309 0.286,0.286 0 0 1 -0.057,0.007 0.182,0.182 0 0 1 -0.1,-0.027 C 2.883,10.568 2.891,10.332 3.04,10.079 A 0.632,0.632 0 0 1 3.379,9.77 0.194,0.194 0 0 1 3.531,9.788 c 0.156,0.098 0.109,0.363 -0.016,0.578 z m 1.117,0.02 A 0.632,0.632 0 0 1 4.3,10.7 0.234,0.234 0 0 1 4.243,10.707 0.181,0.181 0 0 1 4.143,10.68 C 4.005,10.597 4.013,10.361 4.162,10.108 A 0.64,0.64 0 0 1 4.5,9.8 0.2,0.2 0 0 1 4.653,9.818 c 0.152,0.088 0.105,0.354 -0.021,0.568 z m 1.121,0.2 A 0.63,0.63 0 0 1 5.417,10.89 0.236,0.236 0 0 1 5.361,10.898 0.191,0.191 0 0 1 5.261,10.871 C 5.123,10.788 5.131,10.552 5.28,10.298 A 0.638,0.638 0 0 1 5.62,10 0.2,0.2 0 0 1 5.772,10.019 c 0.154,0.091 0.107,0.356 -0.019,0.571 z m 1.094,0.378 a 0.613,0.613 0 0 1 -0.336,0.3 0.248,0.248 0 0 1 -0.065,0.009 0.213,0.213 0 0 1 -0.111,-0.031 c -0.149,-0.09 -0.151,-0.336 0,-0.586 a 0.609,0.609 0 0 1 0.338,-0.3 0.223,0.223 0 0 1 0.175,0.021 c 0.144,0.099 0.145,0.345 -0.002,0.595 z m 1.22,0.487 A 0.661,0.661 0 0 1 7.7,11.765 0.333,0.333 0 0 1 7.625,11.774 0.242,0.242 0 0 1 7.498,11.74 C 7.332,11.64 7.325,11.363 7.482,11.096 a 0.656,0.656 0 0 1 0.368,-0.317 0.26,0.26 0 0 1 0.2,0.024 c 0.166,0.109 0.173,0.386 0.017,0.652 z m 1.376,0.607 A 0.669,0.669 0 0 1 9.068,12.376 0.32,0.32 0 0 1 8.989,12.387 0.261,0.261 0 0 1 8.854,12.35 C 8.679,12.244 8.669,11.959 8.829,11.686 a 0.67,0.67 0 0 1 0.376,-0.322 0.277,0.277 0 0 1 0.215,0.027 v 0 c 0.17,0.109 0.18,0.403 0.023,0.671 z m 1.4,0.781 a 0.669,0.669 0 0 1 -0.376,0.322 0.389,0.389 0 0 1 -0.08,0.01 0.251,0.251 0 0 1 -0.135,-0.037 c -0.171,-0.1 -0.181,-0.395 -0.023,-0.664 a 0.667,0.667 0 0 1 0.376,-0.322 0.281,0.281 0 0 1 0.213,0.026 v 0 c 0.17,0.113 0.181,0.405 0.023,0.673 z M 12.3,16.7 a 0.661,0.661 0 0 1 -0.376,0.321 0.321,0.321 0 0 1 -0.08,0.011 A 0.257,0.257 0 0 1 11.705,17 C 11.533,16.9 11.522,16.605 11.68,16.336 a 0.668,0.668 0 0 1 0.377,-0.322 0.274,0.274 0 0 1 0.214,0.026 v 0 c 0.171,0.102 0.182,0.393 0.029,0.66 z m 1.107,0.89 a 0.668,0.668 0 0 1 -0.376,0.321 0.325,0.325 0 0 1 -0.08,0.01 0.26,0.26 0 0 1 -0.135,-0.036 c -0.171,-0.1 -0.182,-0.4 -0.024,-0.664 a 0.67,0.67 0 0 1 0.377,-0.323 0.274,0.274 0 0 1 0.214,0.026 c 0.167,0.106 0.177,0.398 0.017,0.668 z m 0.645,1.259 a 0.319,0.319 0 0 1 -0.08,0.01 0.262,0.262 0 0 1 -0.135,-0.036 c -0.171,-0.1 -0.182,-0.4 -0.024,-0.665 a 0.67,0.67 0 0 1 0.377,-0.321 0.274,0.274 0 0 1 0.214,0.026 c 0.172,0.1 0.182,0.4 0.024,0.664 a 0.666,0.666 0 0 1 -0.381,0.324 z m 0.77,0.916 a 0.263,0.263 0 0 1 -0.067,0.009 0.209,0.209 0 0 1 -0.11,-0.03 c -0.154,-0.092 -0.148,-0.368 0.013,-0.642 a 0.708,0.708 0 0 1 0.377,-0.339 0.228,0.228 0 0 1 0.172,0.019 v 0 0 c 0.151,0.1 0.146,0.371 -0.013,0.642 a 0.693,0.693 0 0 1 -0.377,0.343 z m 1.034,0.729 a 0.689,0.689 0 0 1 -0.378,0.334 0.278,0.278 0 0 1 -0.069,0.009 0.223,0.223 0 0 1 -0.117,-0.032 c -0.159,-0.1 -0.157,-0.374 0,-0.648 a 0.689,0.689 0 0 1 0.378,-0.334 0.241,0.241 0 0 1 0.186,0.023 c 0.157,0.098 0.156,0.376 -0.005,0.654 z m -3.6,-6.8 a 0.663,0.663 0 0 1 -0.376,0.322 0.319,0.319 0 0 1 -0.08,0.01 0.256,0.256 0 0 1 -0.134,-0.036 c -0.171,-0.1 -0.182,-0.4 -0.024,-0.664 A 0.666,0.666 0 0 1 12.009,13 a 0.276,0.276 0 0 1 0.213,0.025 v 0 c 0.172,0.108 0.183,0.4 0.025,0.668 z m 1.3,0.916 a 0.663,0.663 0 0 1 -0.376,0.322 0.319,0.319 0 0 1 -0.08,0.01 0.248,0.248 0 0 1 -0.134,-0.037 c -0.172,-0.1 -0.182,-0.395 -0.025,-0.664 a 0.666,0.666 0 0 1 0.377,-0.321 0.274,0.274 0 0 1 0.214,0.026 c 0.168,0.103 0.174,0.395 0.016,0.663 z m 1.107,0.89 a 0.665,0.665 0 0 1 -0.376,0.321 0.321,0.321 0 0 1 -0.08,0.011 0.257,0.257 0 0 1 -0.134,-0.037 c -0.172,-0.1 -0.183,-0.4 -0.025,-0.664 a 0.668,0.668 0 0 1 0.377,-0.322 0.277,0.277 0 0 1 0.215,0.026 c 0.16,0.102 0.174,0.395 0.015,0.665 z m 0.645,1.259 a 0.319,0.319 0 0 1 -0.08,0.01 0.256,0.256 0 0 1 -0.134,-0.036 c -0.172,-0.1 -0.183,-0.4 -0.025,-0.665 a 0.67,0.67 0 0 1 0.377,-0.321 0.274,0.274 0 0 1 0.214,0.026 c 0.172,0.1 0.182,0.4 0.024,0.665 a 0.665,0.665 0 0 1 -0.384,0.32 z m 0.77,0.917 a 0.314,0.314 0 0 1 -0.067,0.008 0.209,0.209 0 0 1 -0.11,-0.03 c -0.153,-0.092 -0.148,-0.368 0.013,-0.642 a 0.708,0.708 0 0 1 0.377,-0.339 0.231,0.231 0 0 1 0.173,0.019 v 0 0 c 0.151,0.1 0.146,0.371 -0.013,0.642 A 0.7,0.7 0 0 1 16.07,17.675 Z M 17.1,18.4 a 0.687,0.687 0 0 1 -0.377,0.334 0.292,0.292 0 0 1 -0.07,0.009 0.219,0.219 0 0 1 -0.116,-0.031 c -0.159,-0.1 -0.158,-0.375 0,-0.648 a 0.688,0.688 0 0 1 0.378,-0.334 0.236,0.236 0 0 1 0.186,0.022 c 0.165,0.099 0.164,0.378 -10e-4,0.648 z m -3.382,-7.1 a 0.669,0.669 0 0 1 -0.376,0.322 0.332,0.332 0 0 1 -0.081,0.01 0.251,0.251 0 0 1 -0.134,-0.037 c -0.172,-0.1 -0.182,-0.4 -0.024,-0.664 a 0.661,0.661 0 0 1 0.376,-0.321 0.27,0.27 0 0 1 0.214,0.026 v 0 c 0.176,0.106 0.187,0.398 0.029,0.664 z m 1.3,0.916 a 0.664,0.664 0 0 1 -0.375,0.322 0.327,0.327 0 0 1 -0.08,0.011 0.263,0.263 0 0 1 -0.135,-0.037 c -0.174,-0.105 -0.184,-0.391 -0.024,-0.664 a 0.67,0.67 0 0 1 0.377,-0.323 0.305,0.305 0 0 1 0.123,-0.007 l 0.011,-0.019 0.082,0.049 c 0.174,0.107 0.184,0.4 0.024,0.671 z m 1.105,0.887 a 0.672,0.672 0 0 1 -0.376,0.323 0.373,0.373 0 0 1 -0.08,0.01 0.248,0.248 0 0 1 -0.134,-0.037 c -0.175,-0.1 -0.185,-0.391 -0.025,-0.664 a 0.669,0.669 0 0 1 0.376,-0.322 0.277,0.277 0 0 1 0.215,0.026 c 0.174,0.107 0.185,0.399 0.027,0.667 z m 0.645,1.261 a 0.319,0.319 0 0 1 -0.08,0.01 0.26,0.26 0 0 1 -0.135,-0.036 c -0.174,-0.106 -0.185,-0.391 -0.024,-0.665 a 0.666,0.666 0 0 1 0.376,-0.322 0.277,0.277 0 0 1 0.215,0.027 c 0.171,0.1 0.182,0.395 0.024,0.664 a 0.666,0.666 0 0 1 -0.373,0.325 z m 0.77,0.916 a 0.261,0.261 0 0 1 -0.067,0.008 0.218,0.218 0 0 1 -0.11,-0.029 c -0.153,-0.093 -0.148,-0.369 0.013,-0.642 a 0.706,0.706 0 0 1 0.377,-0.34 0.228,0.228 0 0 1 0.177,0.022 c 0.153,0.093 0.148,0.369 -0.013,0.642 a 0.7,0.7 0 0 1 -0.374,0.342 z m 1.041,0.732 a 0.7,0.7 0 0 1 -0.378,0.334 0.286,0.286 0 0 1 -0.07,0.009 0.229,0.229 0 0 1 -0.116,-0.031 v 0 c -0.16,-0.1 -0.159,-0.376 0,-0.649 a 0.689,0.689 0 0 1 0.378,-0.334 0.241,0.241 0 0 1 0.186,0.023 c 0.164,0.099 0.163,0.377 0.003,0.651 z m -3.44,-7.13 a 0.668,0.668 0 0 1 -0.376,0.321 0.327,0.327 0 0 1 -0.08,0.011 0.261,0.261 0 0 1 -0.135,-0.037 c -0.171,-0.1 -0.182,-0.4 -0.024,-0.664 A 0.666,0.666 0 0 1 14.9,8.191 0.277,0.277 0 0 1 15.115,8.217 c 0.174,0.107 0.185,0.399 0.027,0.668 z m 1.3,0.915 a 0.664,0.664 0 0 1 -0.375,0.322 0.327,0.327 0 0 1 -0.08,0.011 0.263,0.263 0 0 1 -0.135,-0.037 C 15.675,9.988 15.665,9.702 15.825,9.429 A 0.669,0.669 0 0 1 16.2,9.11 0.277,0.277 0 0 1 16.415,9.136 C 16.59,9.24 16.6,9.531 16.442,9.8 Z m 1.105,0.887 a 0.675,0.675 0 0 1 -0.376,0.323 0.373,0.373 0 0 1 -0.08,0.01 0.257,0.257 0 0 1 -0.134,-0.037 C 16.779,10.875 16.769,10.589 16.929,10.316 A 0.669,0.669 0 0 1 17.308,10 a 0.277,0.277 0 0 1 0.215,0.026 c 0.177,0.103 0.184,0.388 0.024,0.661 z m 0.645,1.261 a 0.319,0.319 0 0 1 -0.08,0.01 0.26,0.26 0 0 1 -0.135,-0.036 C 17.8,11.813 17.789,11.527 17.95,11.254 a 0.666,0.666 0 0 1 0.376,-0.322 0.273,0.273 0 0 1 0.215,0.027 l 0.08,0.048 -0.011,0.019 a 0.556,0.556 0 0 1 -0.045,0.6 0.666,0.666 0 0 1 -0.373,0.322 z m 0.769,0.916 a 0.261,0.261 0 0 1 -0.066,0.009 0.212,0.212 0 0 1 -0.111,-0.03 c -0.155,-0.094 -0.15,-0.364 0.013,-0.642 a 0.7,0.7 0 0 1 0.378,-0.339 0.229,0.229 0 0 1 0.176,0.021 c 0.154,0.093 0.148,0.37 -0.012,0.643 a 0.7,0.7 0 0 1 -0.375,0.341 z M 20,13.6 a 0.687,0.687 0 0 1 -0.378,0.335 0.284,0.284 0 0 1 -0.069,0.009 0.223,0.223 0 0 1 -0.117,-0.032 v 0 c -0.159,-0.1 -0.158,-0.375 0,-0.648 a 0.685,0.685 0 0 1 0.378,-0.334 0.239,0.239 0 0 1 0.187,0.022 C 20.164,13.045 20.163,13.323 20,13.6 Z M 16.561,6.47 A 0.668,0.668 0 0 1 16.185,6.791 0.321,0.321 0 0 1 16.105,6.802 0.261,0.261 0 0 1 15.97,6.765 c -0.171,-0.1 -0.182,-0.4 -0.024,-0.664 a 0.666,0.666 0 0 1 0.376,-0.322 0.277,0.277 0 0 1 0.215,0.026 c 0.173,0.1 0.184,0.395 0.026,0.661 z m 1.3,0.915 A 0.664,0.664 0 0 1 17.486,7.707 0.321,0.321 0 0 1 17.406,7.718 0.263,0.263 0 0 1 17.271,7.681 C 17.097,7.575 17.087,7.29 17.247,7.016 a 0.671,0.671 0 0 1 0.376,-0.321 0.277,0.277 0 0 1 0.215,0.026 c 0.176,0.101 0.186,0.387 0.025,0.66 z m 1.105,0.887 A 0.669,0.669 0 0 1 18.589,8.595 0.317,0.317 0 0 1 18.51,8.605 0.26,0.26 0 0 1 18.375,8.569 c -0.171,-0.1 -0.182,-0.4 -0.024,-0.665 a 0.669,0.669 0 0 1 0.376,-0.322 0.277,0.277 0 0 1 0.215,0.026 c 0.176,0.101 0.186,0.392 0.026,0.66 z m 0.645,1.261 A 0.319,0.319 0 0 1 19.531,9.543 0.251,0.251 0 0 1 19.4,9.5 C 19.226,9.395 19.215,9.109 19.376,8.836 a 0.666,0.666 0 0 1 0.376,-0.322 0.273,0.273 0 0 1 0.215,0.027 c 0.171,0.1 0.182,0.4 0.024,0.664 a 0.666,0.666 0 0 1 -0.378,0.324 z m 0.769,0.916 a 0.256,0.256 0 0 1 -0.066,0.009 0.212,0.212 0 0 1 -0.111,-0.03 C 20.05,10.335 20.056,10.059 20.216,9.786 a 0.712,0.712 0 0 1 0.378,-0.339 0.229,0.229 0 0 1 0.176,0.021 c 0.154,0.093 0.148,0.369 -0.012,0.643 a 0.691,0.691 0 0 1 -0.376,0.334 z m 1.041,0.732 a 0.687,0.687 0 0 1 -0.378,0.335 0.284,0.284 0 0 1 -0.069,0.009 0.223,0.223 0 0 1 -0.117,-0.032 c -0.159,-0.1 -0.158,-0.375 0,-0.648 a 0.685,0.685 0 0 1 0.378,-0.334 0.239,0.239 0 0 1 0.187,0.022 c 0.163,0.092 0.162,0.367 10e-4,0.644 z"/>

</svg>