<svg xmlns="http://www.w3.org/2000/svg" width="32" height="32" viewBox="0 0 512 512">
<style>path{fill:#000}@media (prefers-color-scheme:dark){path{fill:#fff}}</style>
  <path id="Colore_riempimento_1" data-name="Colore riempimento 1" class="cls-1" d="M88,0H396c11.367,0,26.584-1.336,35,2V3l4,1V5h2l1,2h2l2,3,3,1v2h1l2,3,5,4v2l2,1,1,3h1v2l2,1v2h1v2h1v2h1v2h1v2h1q0.5,2,1,4h1v2h1v2h1v2h1v2h1q0.5,2,1,4h1v2h1q0.5,2.5,1,5h1v2h1q1,3,2,6h1v3h1v2h1q1,3,2,6h1v3h1v2h1q1,3,2,6h1v3h1v2h1q1,3,2,6h1v3h1v2h1l2,6h1v3h1v2h1l2,6h1v2h1v3h1v2c2.2,4.245,5.286,8.054,6,14h-1l-10-11h-2l-1-2h-2l-2-3-4-1v-1h-2v-1l-6-2v-1l-9-2v-1h-4v-1l-30-1H75c-11.043,0-23.8-.663-32,2H39v1l-9,2v1l-6,2v1H22v1l-4,1-2,3-3,1v1H11l-1,2L0,146v-3H1l1-5H3v-2H4l2-6H7v-3H8l1-4h1l1-4h1v-2h1v-3h1l2-6h1v-2h1v-3h1l2-6h1V95h1V92h1l2-6h1V84h1V81h1l2-6h1V73h1V70h1V68h1V66h1l2-6h1V57h1V55h1V52h1V50h1l1-5h1l2-6h1V37h1l2-6,2-1,1-4,2-1V23l3-2V19L73,6h2V5l6-2V2h3V1h4V0ZM56,137H431l34,1a93.114,93.114,0,0,1,27,13l5,6,2,1v2l3,2v2l2,1,1,4h1l2,6h1v3h1q0.5,4,1,8h1V464h-1q-0.5,4-1,8h-1v2h-1v3h-1l-2,6h-1v2l-2,1v2l-4,3v2l-2,1-3,4h-2l-3,4h-2l-1,2h-2v1l-6,2v1h-3v1h-2v1l-8,1v1H48a93.006,93.006,0,0,1-29-14l-1-2-4-3v-2l-4-3v-2l-2-1v-2H7l-2-6H4v-3H3v-2H2l-1-8H0V204c0-11.281-.012-18.109,3-26v-3H4v-2H5v-2H6v-2H7v-2H8v-2l2-1v-2l3-2v-2l6-5,1-2h2l2-3h2l1-2h2v-1h2v-1h2v-1h2v-1h2v-1h3v-1h3v-1h4v-1C50.3,137.011,53.879,138.827,56,137Zm116,41c-1.758,2-1.969.842-4,2v1h-2l-6,7v2h-1c-2.094,4.825-1,13.594-1,20V441c0,8.886-.566,17.689,3,23l7,6h2v1h3v1H439c6.647,0,15.972,1.192,21-1v-1h2l7-6,1-4h1v-3h1V193c-0.712-2.22-2.4-4.208-3-7-3.835-2.237-6.381-6.488-11-8H172ZM47,248c2.606,0.751,3.207,1.567,5,3v1h2v1l4,1v1h3v1h6v1c2.16,0.532,8.625-1.491,10-2l9-3,2-3,6-5,1-4,2-1,1-6h1V220H98c-0.983-2.74-.61-5.747-2-8l-2-1v-2H93a8.242,8.242,0,0,1-2-4c-2.606-.751-3.207-1.567-5-3v-1H84v-1l-4-1v-1H77v-1H72v-1c-2.09-.577-12.556,1.368-14,2v1l-6,2-2,3H48c-3.771,2.8-12.111,19.364-9,29h1v3h1v3h1v2h1v2h1C45.428,244.8,46.262,245.388,47,248ZM182,448a8.316,8.316,0,0,0-2-4h-1q-0.5-2.5-1-5h-1V228c0-6.348-1.143-15.251,1-20h1v-2l3-2q0.5-1.5,1-3c2.259-1.775,5.149-1.875,7-4,18.72-.38,54.553-5.544,63,7,3.319,4.929,3,11.693,3,20V394c0,15.954,2.793,43.717-4,53-6.569,8.976-29.76,6-45,6H191v-1l-5-1v-1A8.4,8.4,0,0,0,182,448ZM295,196h41l10,3,5,6h1v2h1v2h1v3h1V438c-0.711,2.22-2.4,4.207-3,7-3.816,2.258-6.387,6.5-11,8H324c-16.552,0-38.1,2.831-45-7-6.776-9.65-4-46.833-4-64V213c0.752-2.492,2.388-5.165,3-8,2.448-1.369,3.285-3.795,5-5h2l1-2C288.522,196.664,292.949,197.856,295,196Zm84,252a8.316,8.316,0,0,0-2-4h-1l-1-5h-1V228c0-6.361-1.132-15.235,1-20l5-7h2l1-2c1.8-1.171,2.253,0,4-2,17.42-.351,53.769-5.287,62,6,6.791,9.312,4,37.025,4,53V391c0,16.409,2.976,46.467-4,56-6.568,8.976-29.76,6-45,6H388v-1l-5-1v-1A8.4,8.4,0,0,0,379,448ZM213,217v1l-5,1v1h-2l-4,5-2,1c-1.156,1.676-.01,2.273-2,4v6h-1v1h1q0.5,4,1,8c2.987,2.019.463,0.94,2,3l4,3v1c2.876,2.011,10.965,4.937,17,3v-1l5-1,5-6h1q0.5-2,1-4h1v-4h1c1.392-4.874-1.676-8.633-3-11C228.91,220.687,224.486,216.861,213,217Zm98,0v1l-5,1v1h-2l-1,2c-5.6,5.272-9.945,12.526-5,22v2l3,2v2l3,1,1,2c1.8,1.17,2.237.019,4,2h12v-1l4-1,1-2h2l1-2h1v-2l2-1c2.083-3.409,2.128-9.394,2-15-1.981-1.774-.84-1.966-2-4h-1v-2l-2-1C324.141,218.844,321.239,216.928,311,217Zm89,5a8.365,8.365,0,0,1-2,4h-1l-1,4h-1v5h-1c-0.7,3.171,2.4,9.015,3,12l5,4v1h2l1,2h3v1c5.851,1.9,12.2-1.221,16-2l5-6h1c1.156-1.667-.015-2.291,2-4,0.258-4.881,1.985-9.9-1-13-1.683-8.409-10.481-13.164-21-13v1h-3C404.58,219.176,403.092,221.222,400,222Z"/>
</svg>
