<svg xmlns="http://www.w3.org/2000/svg" viewBox="0 0 24 24"><path fill="#44739e" d="M13.951 17.937a1.57 1.57 0 0 0 .811-1.445 1.807 1.807 0 0 0-1.945-1.769H9.982v6.902h3.18a1.94 1.94 0 0 0 1.984-1.977 1.86 1.86 0 0 0-1.195-1.711m-2.532-2.171h1.062a.901.901 0 1 1 0 1.795h-1.062Zm1.292 4.823h-1.292v-1.997l1.292-.006a1.001 1.001 0 1 1 0 2.003m7.183-11.353a2.1 2.1 0 0 0-1.155.343l-5.756 3.873h6.909a2.107 2.107 0 1 0 0-4.216ZM7.733 18.594l-4.399-4.016v7.04h1.429v-3.864l4.399 4.018V14.73H7.733Zm7.721-.419a3.794 3.794 0 0 0 3.892 3.685 3.7 3.7 0 0 0 1.319-.279v-1.402a2.403 2.403 0 1 1 0-4.011v-1.406a3.4 3.4 0 0 0-1.319-.273 3.794 3.794 0 0 0-3.892 3.686m-4.47-4.725L5.242 9.581A2.102 2.102 0 1 0 4.09 13.45Zm1.761-8.966c.318.016.485.1.084.267a.75.75 0 0 0-.473.914l.891 6.232 2.971-6.793a2.113 2.113 0 1 0-4.033-.614Zm-4.981.622 2.965 6.787 1.046-7.31a2.108 2.108 0 1 0-4.011.523m5.532 7.684 6.02-4.078a2.102 2.102 0 1 0-3.084-2.62ZM4.673 8.712l6.007 4.074-2.936-6.694a2.102 2.102 0 1 0-3.071 2.62"/></svg>