<svg xmlns="http://www.w3.org/2000/svg" viewBox="0 0 24 24"><path fill="#44739e" d="M13.952 17.938a1.57 1.57 0 0 0 .811-1.445 1.807 1.807 0 0 0-1.945-1.769H9.983v6.902h3.18a1.94 1.94 0 0 0 1.984-1.977 1.86 1.86 0 0 0-1.195-1.711m-2.532-2.171h1.062a.901.901 0 1 1 0 1.795H11.42Zm1.292 4.823H11.42v-1.997l1.292-.006a1.001 1.001 0 1 1 0 2.003m7.183-11.352a2.1 2.1 0 0 0-1.155.343l-5.756 3.872h6.909a2.107 2.107 0 1 0 0-4.215ZM7.734 18.595l-4.399-4.016v7.04h1.429v-3.864l4.399 4.018v-7.042H7.734Zm7.721-.419a3.794 3.794 0 0 0 3.892 3.685 3.7 3.7 0 0 0 1.319-.279V20.18a2.403 2.403 0 1 1 0-4.011v-1.406a3.4 3.4 0 0 0-1.319-.273 3.794 3.794 0 0 0-3.892 3.686m-4.47-4.725L5.243 9.583a2.102 2.102 0 1 0-1.152 3.868Zm1.761-8.965c.318.016.485.1.084.267a.75.75 0 0 0-.473.914l.891 6.231 2.971-6.792a2.113 2.113 0 1 0-4.033-.614Zm-4.981.622 2.965 6.786 1.046-7.309a2.108 2.108 0 1 0-4.011.523m5.532 7.683 6.02-4.077a2.102 2.102 0 1 0-3.084-2.62ZM4.674 8.714l6.007 4.073-2.936-6.693a2.102 2.102 0 1 0-3.071 2.62"/></svg>