<?xml version="1.0" encoding="UTF-8"?>
<svg width="24px" fill="#44739e" height="24px" viewBox="0 0 24 24" version="1.1" xmlns="http://www.w3.org/2000/svg" xmlns:xlink="http://www.w3.org/1999/xlink">
            <path d="M 20.354,9.739 A 1.646,1.646 0 1 0 22,11.385 1.646,1.646 0 0 0 20.354,9.739 Z m 0,3.05 a 1.4,1.4 0 1 1 1.405,-1.4 1.4,1.4 0 0 1 -1.405,1.4 z m -0.995,-1.381 0.548,-0.199 v 1.239 l 1.108,-0.397 v -1.647 l -1.656,0.594 z M 18,12.391 c -0.025,-1.3 -0.672,-1.992 -2.389,-1.992 H 13.32 v 6.581 h 1.455 v -2.523 l 0.792,-0.005 v 0 l 1.175,2.528 h 1.572 L 16.919,14.19 A 1.7,1.7 0 0 0 18,12.391 Z m -2.329,0.874 h -0.927 v -1.7 h 0.927 c 0.672,0 0.933,0.236 0.933,0.808 a 0.842,0.842 0 0 1 -0.93,0.892 z M 10.184,10.4 H 7.856 V 4.208 H 7.076 V 10.4 h 0.78 v 6.58 h 2.328 c 1.583,0 2.339,-0.633 2.459,-2.307 V 12.692 A 2.155,2.155 0 0 0 10.184,10.4 Z m 1.042,4.133 c 0,0.92 -0.487,1.209 -1.179,1.209 h -0.7 v -4.1 h 0.7 c 0.737,0 1.179,0.321 1.179,1.2 z M 5.68,14.498 3.456,10.399 H 2 v 6.582 h 1.396 v -3.838 l 2.13,3.838 h 1.55 V 10.399 H 5.68 Z m 1.3960002,2.482 h 0.779 v 2.812 h -0.779 z"/>

</svg>