<svg xmlns="http://www.w3.org/2000/svg" viewBox="0 0 24 24"><path fill="#44739e" d="M17.429 3.236H6.572A4.577 4.577 0 0 0 2 7.807v8.386a4.577 4.577 0 0 0 4.572 4.571h10.857A4.577 4.577 0 0 0 22 16.193V7.807a4.577 4.577 0 0 0-4.571-4.571m3.572 12.957a3.58 3.58 0 0 1-3.572 3.572H6.572a3.58 3.58 0 0 1-3.573-3.572V7.807a3.58 3.58 0 0 1 3.573-3.572h10.857a3.58 3.58 0 0 1 3.572 3.572Zm-6.616 1.314h.664v.664h-.664Zm.549 1.083h.663v.663h-.663Zm-2.181-1.083h.662v.664h-.662Zm2.181-1.082h.663v.662h-.663Zm-1.632 2.165h.661v.663h-.661Zm0-2.165h.661v.662h-.661Zm6.529 0h.664v.662h-.664Zm-1.632 0h.662v.662h-.662Zm1.084 1.082h.663v.664h-.663Zm-3.264 0h.661v.664h-.661Zm-4.35-1.082h.661v.662h-.661Zm4.898 2.165h.661v.663h-.661Zm1.632 0h.662v.663h-.662Zm-1.632-2.165h.661v.662h-.661Zm1.084 1.082h.661v.664h-.661ZM5.253 18.59h.661v.663h-.661Zm.97-1.083h.662v.664h-.662Zm.548 1.083h.661v.663h-.661Zm0-2.165h.661v.662h-.661Zm-2.183 1.082h.665v.664h-.665Zm.55-1.082h.664v.662h-.664Zm-1.633 0h.662v.662h-.662Zm6.531 2.165h.663v.663h-.663Zm1.633 0h.661v.663h-.661Zm-1.633-2.165h.663v.662h-.663Zm1.085 1.082h.662v.664h-.662ZM8.403 18.59h.661v.663h-.661Zm1.084-1.083h.664v.664h-.664Zm-1.632 0h.662v.664h-.662Zm.548-1.082h.661v.662h-.661Z"/></svg>