<?xml version="1.0" encoding="UTF-8"?>
<svg width="33px" fill="#44739e" height="32px" viewBox="0 0 33 32" version="1.1" xmlns="http://www.w3.org/2000/svg" xmlns:xlink="http://www.w3.org/1999/xlink">
            <path d="m 7.1478004,14.863688 0.019669,-3.645557 c 0,-2.2849179 2.0078614,-3.7589446 4.8876166,-3.7589446 h 6.609493 c 2.879755,0 4.887606,1.4740267 4.887606,3.7573546 l -0.01968,3.647147 h 1.17e-4 l -0.01968,3.645557 c 0,2.284918 -2.00785,3.758945 -4.887605,3.758945 h -6.609494 c -2.8797655,0 -4.8876162,-1.474027 -4.8876162,-3.757355 l 0.01968,-3.647147 z m 16.9712436,0 0.01967,-3.645557 C 24.138725,8.5631651 21.835983,6.8726584 18.66458,6.8726584 h -6.609493 c -3.1714029,0 -5.4741443,1.6905067 -5.4741443,4.3438826 l -0.01968,3.647147 h 1.174e-4 l -0.01968,3.645557 c 0,2.654966 2.3027414,4.345473 5.4741439,4.345473 h 6.609494 c 3.171403,0 5.474133,-1.690507 5.474133,-4.343883 l 0.01969,-3.647147 z M 8.4353951,20.008051 v -0.558496 h -0.558496 v 0.558496 z m 1.3763307,0 v -0.558496 h -0.558496 v 0.558496 z m 1.3763202,0 V 19.449555 H 10.62955 v 0.558496 z m 1.376331,0 v -0.558496 h -0.558496 v 0.558496 z m 1.37633,0 v -0.558496 h -0.558496 v 0.558496 z m 1.376327,0 V 19.449555 H 14.75854 v 0.558496 z m 1.376324,0 v -0.558496 h -0.55849 v 0.558496 z m 1.376331,0 v -0.558496 h -0.558496 v 0.558496 z m 1.37633,0 v -0.558496 h -0.558496 v 0.558496 z m 1.376331,0 v -0.558496 h -0.558496 v 0.558496 z m 1.376331,0 v -0.558496 h -0.558496 v 0.558496 z M 10.726115,20.920808 V 20.362312 H 10.16763 v 0.558496 z m 1.376331,0 V 20.362312 H 11.54395 v 0.558496 z m 1.376331,0 v -0.558496 h -0.558496 v 0.558496 z m 1.376328,0 V 20.362312 H 14.29661 v 0.558496 z m 1.376329,0 v -0.558496 h -0.558495 v 0.558496 z m 1.376324,0 v -0.558496 h -0.558496 v 0.558496 z m 1.376331,0 v -0.558496 h -0.558496 v 0.558496 z m 1.37633,0 v -0.558496 h -0.558496 v 0.558496 z m 1.376331,0 v -0.558496 h -0.558496 v 0.558496 z m -12.3869549,0 v -0.558496 h -0.558496 v 0.558496 z m 1.8382509,0.912758 V 21.27507 H 10.62955 v 0.558496 z m 1.376331,0 V 21.27507 h -0.558496 v 0.558496 z m 1.37633,0 V 21.27507 h -0.558496 v 0.558496 z m 1.376327,0 V 21.27507 H 14.75854 v 0.558496 z m 1.376324,0 V 21.27507 h -0.55849 v 0.558496 z m 1.376331,0 V 21.27507 h -0.558496 v 0.558496 z m 1.37633,0 V 21.27507 h -0.558496 v 0.558496 z m 1.376331,0 V 21.27507 h -0.558496 v 0.558496 z"/>

</svg>