<svg xmlns="http://www.w3.org/2000/svg" viewBox="0 0 24 24"><path fill="#44739e" d="M10.53 21.922c-3.961-.6-7.215-3.514-8.207-7.347a10.46 10.46 0 0 1-.028-5.047C3.003 6.693 4.932 4.325 7.61 3c1.39-.688 2.764-1.001 4.393-1 .99 0 1.702.088 2.565.314 3.463.906 6.222 3.667 7.114 7.118.23.885.318 1.602.318 2.571 0 .497-.034 1.09-.082 1.415-.644 4.424-4.1 7.884-8.498 8.51-.695.099-2.219.095-2.89-.006m-2.284-9.266c.524-.249.516-1.06-.013-1.311a.72.72 0 0 0-.945.302c-.33.638.313 1.316.958 1.009m2.745-.021c.358-.218.48-.652.276-.987-.159-.262-.402-.392-.677-.365a.718.718 0 0 0-.267 1.365q.352.182.667-.012Zm2.794-.037a.72.72 0 0 0-.102-1.24q-.352-.18-.667.013c-.497.303-.497.956 0 1.267.208.131.56.113.769-.04m2.715.016c.395-.258.397-.962.002-1.221a.8.8 0 0 0-.729-.048c-.525.249-.537 1.048-.021 1.312.204.104.555.084.748-.042Z"/></svg>