<svg xmlns="http://www.w3.org/2000/svg" viewBox="0 0 24 24"><path fill="#44739e" d="M12.342 4.374h-.687v.984h.687Zm9.624 7.013c-.434-3.3-4.467-6.029-9.976-6.029s-9.72 2.709-9.977 6.029c-.26 3.368 3.273 8.312 9.977 8.238 6.277-.07 10.434-4.745 9.976-8.238m-9.941-5.481c5.128.01 9.28 2.542 9.275 5.657-2.719 7.385-18.493 5.222-18.568-.033.005-3.115 4.168-5.63 9.293-5.624m-2.707 9.678c4.625.789 10.03-.371 11.481-4.109-.076-2.794-3.981-5.06-8.774-5.068H12c-4.828 0-8.756 2.293-8.765 5.12.026 1.81 2.471 3.44 6.083 4.057M14.07 8.8a.493.493 0 0 1 .539.427.553.553 0 0 1-1.078 0 .493.493 0 0 1 .539-.427m-1.337 0a.49.49 0 0 1 .538.427.553.553 0 0 1-1.077 0 .493.493 0 0 1 .539-.427m-1.394 0a.493.493 0 0 1 .539.427.553.553 0 0 1-1.077 0 .49.49 0 0 1 .538-.427m-1.393 0a.493.493 0 0 1 .539.427.493.493 0 0 1-.539.428.493.493 0 0 1-.539-.428.493.493 0 0 1 .539-.427"/></svg>