<svg xmlns="http://www.w3.org/2000/svg" width="24" height="24" viewBox="0 0 24 24">
  <path id="Colore_riempimento_1" fill="#44739e"  data-name="Colore riempimento 1" class="cls-1" d="M 13.275,13.516 A 1.275,1.275 0 0 1 12,14.791 1.275,1.275 0 0 1 10.725,13.516 1.275,1.275 0 0 1 12,12.241 1.275,1.275 0 0 1 13.275,13.516 Z M 16.59,2.251 H 7.41 C 4.427,2.251 2,5.017 2,8.416 v 8.209 a 6.553,6.553 0 0 0 0.069,0.811 l 0.07,0.6 h 0.067 a 5.072,5.072 0 0 0 4.862,3.716 H 16.9 a 5.075,5.075 0 0 0 4.9,-3.83 l 0.084,-0.018 0.071,-0.595 A 5.455,5.455 0 0 0 22,16.625 V 8.416 C 22,5.017 19.573,2.251 16.59,2.251 Z m 4.057,14.374 c 0,0.018 0,0.037 0,0.055 H 3.354 c 0,-0.018 0,-0.037 0,-0.055 V 8.416 C 3.353,5.763 5.173,3.6 7.41,3.6 h 9.18 c 2.237,0 4.057,2.159 4.057,4.812 z"/>
</svg>
