<?xml version="1.0" encoding="UTF-8"?>
<svg xmlns="http://www.w3.org/2000/svg" xml:space="preserve" width="24" height="24" fill="#44739e" version="1.0" viewBox="0 0 24 24"><path d="M5.94 1v10.994c0 6.045.006 10.996.014 11.004.01.01.382-.029.834-.078a73.701 73.701 0 0 1 1.383-.139 80.63 80.628 0 0 1 2.06-.133c.05 0 .052-.246.058-4.655l.01-4.645.34.964c1.406 3.979 1.77 5.004 2.166 6.117v.002l.206.581.575 1.624c.003.003.292.02.642.038a48.332 48.33 0 0 1 3.37.29c.12.014.227.024.307.03.038.002.044 0 .067 0 .023 0 .062.003.067 0h.006c.003 0 .003-.967.005-1.382l.002-.435c.007-1.783.01-4.836.007-9.181l-.01-10.979h-4.311L13.73 5.88l-.01 4.859v.003l-.398-1.13V9.61v.002l-2.04-5.765v-.013l-.177-.501c-.422-1.195-.781-2.205-.795-2.251L10.28 1H8.107Z"/></svg>