<svg xmlns="http://www.w3.org/2000/svg" viewBox="0 0 24 24"><path fill="#44739e" d="m19.843 12.326-.512.064.001.235-.414.047.01.869 1.316-.181.021-.854-.413.057Zm-1.617.175-.554.07.002.253-.447.07.009.875 1.455-.202.002-.869-.458.059Zm-1.692.251-.553.069.001.254-.447.05.009.894 1.455-.202.002-.868-.458.058Zm-1.751.215-.562.071.001.257-.455.051.01.909 1.479-.205.001-.883-.465.06Zm-1.767.247-.563.071.002.257-.455.051.01.909 1.478-.205.002-.883-.465.06Zm-1.764.255-.562.071.001.258-.454.051.009.908 1.479-.205.001-.882-.465.059Zm-1.763.247-.563.071.001.257-.454.051.01.909 1.478-.205.002-.882-.465.059Zm-1.827.25-.562.071.001.257-.454.051.01.909 1.478-.205.002-.882-.466.059ZM21.6 10.869l-3.921-3.085a.38.38 0 0 0-.28-.078L2.336 9.468A.38.38 0 0 0 2 9.846v2.046a.4.4 0 0 0 .057.2l2.494 4.024a.38.38 0 0 0 .377.176l16.746-2.408a.38.38 0 0 0 .326-.377v-1.814a1.05 1.05 0 0 0-.4-.824M5.391 15.396v-.218l.455-.065.01.214Zm14.973-1.948a.15.15 0 0 1-.128.141L6.512 15.51a.093.093 0 0 1-.1-.092V14.09a.164.164 0 0 1 .142-.163l13.729-1.9a.125.125 0 0 1 .142.13Zm1.212-2.163L4.906 13.61h-.014a.11.11 0 0 1-.092-.047l-2.452-3.84a.12.12 0 0 1-.007-.111.11.11 0 0 1 .088-.065L17.5 7.84a.1.1 0 0 1 .08.023l4.049 3.218a.12.12 0 0 1 .039.12.11.11 0 0 1-.092.084M2.474 9.673l2.427 3.8 16.609-2.31-4-3.183Zm5.755.7-.835-.378.356.44-.286.036-.57-.708.284-.035.827.372-.352-.431.281-.035.578.7Zm.618-.079-.582-.7.682-.084.129.153-.4.05.1.117.39-.049.127.152-.39.05.1.12.405-.051.131.155ZM10 10.147l-.461-.542-.27.033-.129-.153.82-.1.131.152-.268.033.463.542Zm1.252-.137a1.02 1.02 0 0 1-.874-.288c-.2-.231-.1-.4.231-.442a1.04 1.04 0 0 1 .647.132l-.2.1a.55.55 0 0 0-.326-.079c-.125.016-.2.1-.071.247a.56.56 0 0 0 .46.181c.136-.018.157-.08.109-.148l-.22.028-.12-.138.538-.068c.233.266.154.433-.177.475Zm.757-.119-.607-.685.659-.082.135.15-.391.048.1.114.377-.047.133.149-.377.047.1.118.392-.05.137.153Zm1.588-.2-.178-.119-.358.045.053.135-.278.036-.256-.725.308-.038.984.631Zm.973-.125-.487-.23h-.021l.242.261-.266.034-.623-.675.4-.049a.64.64 0 0 1 .562.161c.112.119.049.19-.047.215l.567.238Zm-1.338-.123-.339-.228.106.257Zm.638-.394-.07.008.156.168.07-.009c.115-.014.147-.046.092-.105a.26.26 0 0 0-.248-.062"/></svg>