<svg xmlns="http://www.w3.org/2000/svg" fill="#44739e" viewBox="0 0 24 24"><path d="M12.004 2 9.871 3.2266v-.0039l-1.1093.6445L6.629 5.0938v.0352l-1.0742.621 1.0703-.621.004-.0352-1.1095.6445-2.121 1.2266V7l1.0722.6192L5.5547 7l-1.082.6211-.002-.002-.002.002-1.0742-.621v-.0352L3.3242 7v10l.0703.0352L5.4844 18.25l1.1406.6504v-.0644l.004-.002v-.002l.75-.4414a7.7 7.7 0 0 1-.965-.8203c-.1723-.1753-.3486-.3603-.5136-.5585l-.3457.203-1.3008-.75v-1.5l-.8594-.4882v-.0117l.8594.5 1.3008-.7383 1.2871.7363.748-.4277.002.002.002-.002v-1.3789l-.9649-.5469v-.0039l.9648.5508v-2.3555l-.9648.5586v-.0039l.9649-.5586V9.465l.0351-.0234-.002-.002-.0019.002-.998-.5684-.002-.002v-1.25l.002-.002-.1778-.0917a7.25 7.25 0 0 0-1.086 1.8516 7.08 7.08 0 0 0-.4413 1.7148A7 7 0 0 0 4.8633 12c0 .285.0196.5745.0586.8555.012.18.047.3552.082.5352l-.6914.4062a5.87 5.87 0 0 1-.168-1A5.4 5.4 0 0 1 4.0977 12c0-.273.0228-.559.0468-.832a8.12 8.12 0 0 1 .547-2.164l-.2267-.129-1.0703.6192v1.2441h-.0039V9.4961l.004-.002v-.0058l1.0742-.621v.0038l.2265.129a7.93 7.93 0 0 1 1.086-1.8711c.203-.25.4178-.4772.6328-.7032a7.65 7.65 0 0 1 1-.8437c.4288-.3082.8886-.5686 1.3671-.7832v-.916l.004-.002v-.002l1.0859-.621v.0039l.871.5 1.2852-.75v-.9883ZM8.7851 3.881v.916l-.004.002v.002a8.3 8.3 0 0 1 1.9532-.5821l.0039-.457-.8711-.5zM6.627 7.6192 7.711 7v-.6875a5.46 5.46 0 0 0-.7462.6524 6.4 6.4 0 0 0-.5156.5586zm1 1.8203 1.1543-.666V7.621h.0039v1.1563l2.0859-1.2031-1-.5743 1.0039.5704 1.129-.6407.0233.0118v-.004l1.1329.6563 2.1093 1.2148V7.6211h.004v1.1914l1.121.6563.0078-.004h-.0078l1.0371-.5917-.002-.002v-1.246l.002-.002-.002-.002.1328-.0703a5.5 5.5 0 0 0-.5116-.582 8.1 8.1 0 0 0-.7031-.6055v-.0078a6.63 6.63 0 0 0-1.586-.9297l-.0059.004a3.4 3.4 0 0 0-.4863-.1798v-.7968a7.7 7.7 0 0 1 1.004.371v-.0019l-.004-.002V3.881l-1.082-.6191-2.1562-1.2383v.9883l1.2968.75v1.5L12.0273 6l-1.287-.7363-.8692.4863.8672-.4882.002.002.002-.002v-.2735a6.96 6.96 0 0 0-1.4571.4297 6.74 6.74 0 0 0-1.5704.8906V7l-1.0859.6211v1.25zm7.6425-5.5586.004.002v.9394c.4748.2148.9265.4798 1.3476.7832.344.247.6678.5233.9648.8203.226.234.4416.4765.6446.7305a8.16 8.16 0 0 1 1.0859 1.8672c.274.692.4642 1.4177.5352 2.1797a5.5 5.5 0 0 1 .0468.7968c0 .262-.0111.5118-.0351.7618a7.97 7.97 0 0 1-.4649 2l.0118-.0235.3945.2266v1.5l-1.289.75v.002l.0038.002v.9863l.0313.0176-.004.002.004.002L20.6718 17l.004-.0351V9.4923l-1.086-.6212v-.0039l1.086.6211V7l-2.1602-1.25-1.086-.621-2.16-1.25zm3.2774 14.3438-.0274-.0176-1.0859.6289-.0039-.002v.002l-.789-.4531c-.4292.3073-.8883.5761-1.3673.7949v.8965l.0352.0195-.0039.002.004.002 2.121-1.2266v-.0039zm-3.2422 1.871-.0313-.0214-1.0859.6172v.0468zm-1.1172.5958-1.0742-.6172-1.086.6172v-.004l-1.0703-.6171v.0039l-1.086.6171v-.0039l1.086-.6171 1.0743.6172 1.082-.6133.002-.002-.002-.002v-.2617a8.93 8.93 0 0 1-2.1563.0117v.0039a7.69 7.69 0 0 1-2.1718-.6211 7.5 7.5 0 0 1-1.4063-.8086l-.75.4394v.0684l-.0039-.002v.0059l2.1016 1.2031 1.1445.668v-.0078l2.086 1.2031.0702-.0351v.0039l-.0703.0351.0469.0235.0586-.0352 2.121-1.2266v-.0468zm-1.0723-.6192 1.0723.6152 1.086-.6171-.004-.8907.004-.002v-.002a8.06 8.06 0 0 1-2.1563.6328v.2618zm4.3145-1.2383v-.002l1.086-.6289v-.9863l-1.297-.748-.871.5-1.0743-.6329v-.0039l-1.0859.6328.0039 1.2422-1.0742.629-1.086-.629v-.002l-.0039-.002-1.0742.629v.002l.004.002v.2109a7.85 7.85 0 0 0 1.0468.0703c.371.004.7424-.023 1.1094-.082a7.16 7.16 0 0 0 1.6836-.4766 6.7 6.7 0 0 0 1.5507-.918v.0078c.144-.093.2616-.2036.3946-.3086l.6914.3946c-.25.227-.516.4454-.789.6484zm-6.4727.213c-.0013-.0003-.0026.0001-.0039 0v-.213l-1.082-.627v-.0077l1.086.6289 1.0702-.625v-1.1445l-.0234.0117-1.168-.668-.0039.002.004.002-.965.5586v.0039l-1.0858-.633-1.0743.6329v-.004l1.0743-.6327v.0039l1.0859.6289v-.004l.961-.5566-2.047-1.1777-1.1933-.6894-.748.4277-.002-.002-.002.002v1.5l-.2734.1523a4 4 0 0 0 .3945.418q.346.3632.75.6563v.0039c.469.356.9804.6529 1.5274.8789a6.92 6.92 0 0 0 1.7187.4765zm1.0742-.8419 1.082.627 1.0743-.629V16.965l-.9883-.582-1.168.6796zm2.1563-1.2402 1.086-.6367 1.0742.6328v.0078l.8671-.504v-1.5l1.3008-.7382.2227.1309c.1669-.4732.279-.965.3398-1.463l-.5625.332.5586-.332c.039-.297.0586-.5935.0586-.8945 0-.313-.0236-.6294-.0586-.9414l-.5566-.3183h-.002l-1.082.6152-.002-.002-.002.002v.002l.0038.002v1.25l-1.0271.5859v1.3398l-1.1329.6563v-.004l-2.0742 1.1915zm3.2422-5.6074-1.0235-.5918v2.4218l1.0235-.582zm.002-.004 1.08-.6152.004.002v-1.248l-1.0821-.6173-1.0313.5899h.004v1.2969zm.002-2.4784v-.004l-.002.002zm0-.004 1.082.6153v-.002l.127-.0664.002.004-.125.0683v1.248l-.002.002.5605.3184a7.28 7.28 0 0 0-.4298-1.6446l-.0059.002a6.67 6.67 0 0 0-1.084-1.8614l-.1269.0684.002.002zm1.086.6192v-.002l-.004-.002v.006zm.2187 4.8672c-.003.0086-.0048.0168-.0078.0254l.0117-.0235zM12.0313 3.6524l-.7383.4297v.8554l.7383.4297.7382-.4297v-.8554ZM16.3438 7h.0038l.7032.4043zm2.1718 0 1.0742.6172v.004zm-6.5078 2.4297-.0469.0235.0704.0351v1.25l1.084.6153 1.0722-.6153v-.0468l-2.1094-1.2266Zm2.1797 1.2618.0039.002v-.002zm.0039.002v.0449l-.002.002-1.0723.6152-.002-.002-.002.002-1.0859-.6172v-1.25l-.074-.0352-2.086 1.203v.002l.0039-.002v.0821l1.086.6172v1.25l.621.3613.4492.2598 1.086-.621 1.0742.621v.082l.0469-.0234v-2.5704zm-.0039 2.5332-1.0742-.6172-1.086.6172v.002l.004.002v1.2383l-.1075.0703.0762.043.1094-.0703 2.0742-1.2032zm-2.1602.002-.4492-.2618-.623-.3593-.002-.002v-1.25l-1.086-.6173v-.08l-.1015.0566v2.4531l.1055.0586-.1055-.0547v.1172l.1055.0586 2.0508 1.1914-.004-.004.1095-.0702zm-6.4726 1.627-.7383.4296v.8594l.7383.4258.7383-.4297v-.8555zm12.9648 0-.75.4296v.8555l.75.4297.7383-.4297v-.8555z"/></svg>