<svg xmlns="http://www.w3.org/2000/svg" viewBox="0 0 24 24"><path fill="#44739e" d="M12.004 2 9.871 3.227v-.004l-1.11.644L6.63 5.094v.035l-1.074.621 1.07-.621.004-.035-1.11.644L3.4 6.965V7l1.072.62L5.555 7l-1.082.621-.002-.002-.002.002-1.074-.62v-.036L3.325 7v10l.07.035 2.09 1.215 1.14.65v-.064l.004-.002v-.002l.75-.441a8 8 0 0 1-.965-.82 9 9 0 0 1-.514-.56l-.345.204-1.301-.75v-1.5l-.86-.488v-.012l.86.5 1.3-.738 1.288.736.748-.428.002.002.002-.002v-1.379l-.965-.547v-.003l.965.55v-2.355l-.965.558v-.003l.965-.56v-1.33l.035-.023-.002-.002-.002.002-.998-.569-.002-.002v-1.25l.002-.002-.178-.092A7.3 7.3 0 0 0 5.363 9.38a7 7 0 0 0-.441 1.715 7 7 0 0 0-.059.906c0 .285.02.575.059.856.012.18.047.355.082.535l-.691.406a6 6 0 0 1-.168-1A5.4 5.4 0 0 1 4.098 12c0-.273.022-.559.046-.832a8 8 0 0 1 .547-2.164l-.226-.129-1.07.62v1.243H3.39V9.496l.004-.002v-.006l1.074-.62v.003l.226.13A8 8 0 0 1 5.78 7.129c.203-.25.418-.477.633-.703a7.7 7.7 0 0 1 1-.844A8 8 0 0 1 8.781 4.8v-.916l.004-.002V3.88l1.086-.621v.004l.871.5 1.285-.75v-.989ZM8.785 3.881v.916l-.004.002v.002a8.3 8.3 0 0 1 1.953-.582l.004-.457-.87-.5ZM6.627 7.619 7.711 7v-.687a5.5 5.5 0 0 0-.746.652 6 6 0 0 0-.516.559Zm1 1.82 1.154-.665V7.62h.004v1.156l2.086-1.203-1-.574 1.004.57 1.129-.64.023.011v-.004l1.133.657 2.11 1.215V7.62h.004v1.191l1.12.657.008-.004h-.008l1.038-.592-.002-.002V7.625l.002-.002-.002-.002.132-.07a5.5 5.5 0 0 0-.511-.582 8 8 0 0 0-.703-.606v-.007a6.6 6.6 0 0 0-1.586-.93l-.006.004a3.4 3.4 0 0 0-.487-.18v-.797a8 8 0 0 1 1.004.371v-.002l-.004-.002v-.939l-1.082-.62-2.156-1.237v.988l1.297.75v1.5l-1.3.738-1.288-.736-.869.486.867-.488.002.002.002-.002v-.274a7 7 0 0 0-1.457.43 6.7 6.7 0 0 0-1.57.89V7l-1.086.621v1.25Zm7.643-5.558.004.002v.94a7.9 7.9 0 0 1 2.312 1.602q.34.351.645.731a8.2 8.2 0 0 1 1.085 1.868c.274.692.465 1.417.536 2.18a5.5 5.5 0 0 1 .046.796c0 .262-.01.512-.035.762a8 8 0 0 1-.465 2l.012-.024.395.227v1.5l-1.29.75v.002l.004.002v.986l.032.018-.004.002.004.002L20.67 17l.005-.035V9.492l-1.086-.62v-.005l1.086.621V7l-2.16-1.25-1.086-.621-2.16-1.25Zm3.277 14.344-.027-.018-1.086.629-.004-.002v.002l-.79-.453a8 8 0 0 1-1.367.795v.896l.036.02-.004.002.004.002 2.12-1.227v-.004Zm-3.242 1.87-.032-.02-1.085.616v.047Zm-1.117.596-1.075-.617-1.086.617v-.004l-1.07-.617v.004l-1.086.617v-.004l1.086-.617 1.074.618 1.082-.614.002-.002-.002-.002v-.261a9 9 0 0 1-2.156.011v.004a7.7 7.7 0 0 1-2.172-.62 7.5 7.5 0 0 1-1.406-.81l-.75.44v.068l-.004-.002v.006l2.102 1.203 1.144.668v-.007l2.086 1.203.07-.035v.003l-.07.036.047.023.059-.035 2.12-1.227v-.047Zm-1.073-.619 1.072.615 1.087-.617-.004-.89.004-.002v-.002a8 8 0 0 1-2.157.633v.261Zm4.315-1.238v-.002l1.086-.629v-.986l-1.297-.748-.871.5-1.075-.633v-.004l-1.086.633.004 1.242-1.074.629-1.086-.629v-.002l-.004-.002-1.074.629v.002l.004.002v.21a8 8 0 0 0 1.047.071q.556.006 1.11-.082a7.2 7.2 0 0 0 1.683-.476 6.7 6.7 0 0 0 1.55-.918v.007c.145-.093.262-.203.395-.308l.692.394q-.377.343-.79.649Zm-6.473.213h-.004v-.213l-1.082-.627v-.008l1.086.63 1.07-.626V17.06l-.023.011-1.168-.668-.004.002.004.002-.965.559v.004l-1.086-.633-1.074.633v-.004l1.074-.633v.004l1.086.629v-.004l.961-.557-2.047-1.177-1.193-.69-.748.428-.002-.002-.002.002v1.5l-.274.152a4 4 0 0 0 .395.418q.346.363.75.656v.004c.469.356.98.653 1.527.88a7 7 0 0 0 1.719.476Zm1.074-.842 1.082.627 1.075-.629v-1.238l-.989-.582-1.168.68Zm2.156-1.24 1.087-.637 1.074.633v.008l.867-.504v-1.5l1.3-.738.223.13c.167-.473.28-.965.34-1.463l-.562.332.558-.332q.06-.444.059-.894c0-.313-.024-.63-.059-.941l-.556-.319h-.002l-1.082.615-.002-.002-.002.002v.002l.003.002v1.25l-1.027.586v1.34l-1.133.656v-.004L13.2 16.38Zm3.243-5.607-1.024-.592v2.422l1.024-.583Zm.002-.005 1.08-.615.004.002V9.492l-1.082-.617-1.032.59h.004v1.297Zm.002-2.478v-.004l-.002.002Zm0-.004 1.082.615v-.002l.127-.066.002.004-.125.068v1.248l-.002.002.56.319a7.3 7.3 0 0 0-.43-1.645l-.006.002a6.7 6.7 0 0 0-1.084-1.861l-.126.068.002.002Zm1.086.62v-.003l-.004-.002v.006Zm.218 4.867-.007.025.011-.024ZM12.031 3.652l-.738.43v.856l.738.43.738-.43v-.856ZM16.344 7h.004l.703.404Zm2.172 0 1.074.617v.004Zm-6.508 2.43-.047.023.07.035v1.25l1.084.616 1.073-.616v-.046l-2.11-1.227Zm2.18 1.262.003.002v-.002Zm.003.002v.044l-.002.002-1.072.616-.002-.002-.002.002-1.086-.618v-1.25l-.074-.035-2.086 1.203v.002l.004-.002v.082l1.086.618v1.25l.621.36.45.26 1.085-.62 1.075.62v.083l.046-.024v-2.57Zm-.003 2.533-1.075-.617-1.086.617v.002l.004.002v1.238l-.107.07.076.043.11-.07 2.074-1.203Zm-2.16.002-.45-.262-.623-.36-.002-.001v-1.25l-1.086-.618v-.08l-.101.057v2.453l.105.059-.105-.055v.117l.105.059 2.05 1.191-.003-.004.11-.07Zm-6.473 1.627-.739.43v.859l.739.426.738-.43v-.856Zm12.965 0-.75.43v.855l.75.43.738-.43v-.856Z"/></svg>