<svg xmlns="http://www.w3.org/2000/svg" viewBox="0 0 24 24"><path fill="#44739e" d="m20.627 3.89-16.792.149L2 9.63h19.892Zm.037 2.929.092 1.24-.856-.186c.1-.146.621-1.155.764-1.054m-5.026.332c-4.826 0-3.2-2.2.546-1.219-.045.457-1.446 1.19-.546 1.219m-4.053-.969c-.146-.415 1.31-1.17 1.357-.478-.578.342-.782 1.252-1.357.478m-.043.366-3.47-.587c.633-1.458 2.877-.757 3.9-.7-.325.7-1.241.788-.43 1.287m-3.963.676c-.232-.027-.29-.237-.521-.263.842-1.271 2.208-.874.521.263m4.214-.4c-.136.385-1.675 1.023-.519 1.193A12.1 12.1 0 0 1 7.629 7.5c.907-1.575 2.945-.932 4.164-.677ZM11.2 7.831c.686-1.43 2.147-.874.744.179-.365-.04-.378-.148-.744-.179m1.452-.193c.555-1.2 2.765.007 3.528-.025-.394 1.4-2.961.635-4.064.579.155-.392.335-.316.536-.554m3-.767c.5-.5.811-1.073 1.636-.674-.121.307-.714.8-.806 1.04-.239-.137-.754-.184-.826-.366Zm1.7-2.083c.829 0 2.044.308 2.761.23a11 11 0 0 0-.858 1.247c-1.15-.165-3.614 0-1.9-1.477Zm2.933 1.845c-.122 1.987-2.486.919-3.622.79.371-1.6 2.565-.884 3.625-.79Zm-.653-.467c.093-.421.589-.761.757-1.058l.179 1.331Zm.768-1.725c-.214.88-2.66.063-3.3-.023a12.8 12.8 0 0 1 3.3.023m-3.317.259c-.318.662-.794 1.211-1.423.68.387-.508.779-1.059 1.423-.68m-.9-.262c-.193.32-.9.726-.811 1.134-4.972-.324-2.2-1.4.808-1.134ZM12.742 4.3c-.589 1.1-2.563.27-3.392.074ZM7.673 5.309c.181-.4.523-.419.769-.731 1.295-.172-.291 1.193-.769.731m-3.3-.831L8.039 4.4c-.194.427-1.627.946-.476 1.174-.763-.124-3.793.058-3.192-1.1Zm-.423.852c.587-.105.182.284-.024.528-.395.253-.063-.271.024-.528m.635.211c4.974.418 1.142.61 2.663 1.746-1.127-.213-2.569-.319-3.663-.587.228-.453.704-.731 1-1.159M3.562 7c.234-.039.316.076.434.172-.268.075-.439.412-.668.446A1.8 1.8 0 0 0 3.562 7m-.294.882c1.351-1.194 2.692-.25 4.06-.293-1.118 1.566-2.835.711-4.236.647.108-.113.087-.253.176-.357Zm-.474 1.232.238-.614c4.692.27 4.101.776-.238.614m3.689-.539c.637-.3.846-1.037 1.563-.725-.31.638-1.22 1.317-1.563.725m4.174.536H7.163c.825-1.634 3.119-.9 4.356-.734-.054.223-.745.502-.862.734m.389 0c1.12-1.208 3.8-.492 4.854 0Zm4.592-.468c.356-.6 1.139-1.42 1.67-.661-.568.651-.726 1.329-1.67.661m1.135.466c.693-2 2.708-.8 4.078-.669.805 1.331-3.731.415-4.078.669M2 10.262v7.97h20v-7.97Zm10.288 2.391H11.6v-1.484h.684ZM2.856 20.11h2.248l.49-.749 12.993-.029.227.778h2.24L22 18.611H2Z"/></svg>