<svg xmlns="http://www.w3.org/2000/svg" width="40.964" height="31.768" viewBox="0 0 196 152">
    <style>path{fill:#000}@media (prefers-color-scheme:dark){path{fill:#fff}}</style>
  <path id="Colore_riempimento_1" data-name="Colore riempimento 1" class="cls-1" d="M9,1H187q1,12.5,2,25h1v8h1v8h1v8h1v85h-2l-3,4h-1q-0.5,2-1,4l-2,1v2h-1q-0.5,1.5-1,3H160c-0.64-2.743-1.9-3.69-3-6H36l-1,4H33v2H12v-2H10c-1.084-4.542-4.787-7.455-6-12H1V52H2V45H3V39H4V32H5V25C6.949,18.276,8.264,8.475,9,1Zm2,2L10,9c3.021,0.579,5.661,2.236,8,3l20,3c3.258,0.442,7.716,2.741,10,1a9.15,9.15,0,0,1-6-4l9-8V3H11ZM63,3c3.447,3.8,7.445,1.409,13,3A80.207,80.207,0,0,0,96,9a12.756,12.756,0,0,1,4-5V3H63Zm36,7,7,1v1l25,3c-0.615-3.581,4.151-8.842,8-11V3H104C102.349,5.808,99.97,6.4,99,10Zm86-2V4c-7.834-2.888-25.943-1.05-36-1V4C160.861,4.963,172.132,7.829,185,8ZM149,6c-3.144-.584-4.461-1.621-8-2-1.6,3.085-4,6.283-7,8v1h1c1.593,1.9,3.738,2.7,7,3l2-3h1V11h1C147.436,9.257,148.3,8.588,149,6ZM46,13c3.215,0.77,2.155,1.508,6,2a24.417,24.417,0,0,1,8-8V6L53,5C50.89,8.423,47.2,8.538,46,13Zm48-2L62,7c-2.345,4.08-6.585,6.805-9,11l38,7V24c-1.749-.737-3.837-1.622-5-3,1.139-1.139.4,0,1-2C89.787,17.47,93.119,14.452,94,11Zm51,7c3.915,0.338,6.21,2.083,9,3l19,2c0.658-2.594,1.578-3.268,3-5h1V16l3-2V12c0.426-.627,1.323-0.785,2-2h-9c-1.318-1.164-17.842-2.875-21-3l-2,3h-1v2l-4,3v3Zm32,4,10,3q-1-7-2-14c-1.139,1.139-.4,0-1,2C181.4,14.458,177.811,18.806,177,22ZM10,12a34.62,34.62,0,0,0-1,7h1V18h1l3-5c-1.135-.844-0.145.127-1-1H10Zm95,2a46.032,46.032,0,0,0-9-1c-1,1.815-4.293,5.913-6,7,0.844,1.135-.127.145,1,1,1.39,1.654,3.624,2.334,5,4,2.01-.574.865,0.12,2-1,2.093-1.682,2.41-3.713,4-6l3-2V14ZM8,27c4.771,0.221,8.237,1.89,12,3l18,2,10,2V33c-3.572-.639-6.43-2.308-8-5,2.659-1.466,7.163-5.74,8-9L16,14C13.808,18.8,9.351,21.874,8,27Zm92,0,27,4v1c2.75,0.826,6.971.785,8,0-3.009-.3-2.723-0.135-4-2,3.591-2.066,7.215-7.16,9-11h-5V18h-6a78.112,78.112,0,0,0-21-3C105.631,19.171,101.336,21.862,100,27ZM44,29l3,1v1l3,1V31l9-8V22c-3.537-.286-4.884-1.349-8-2C48.942,23.495,45.179,24.64,44,29Zm99-9c-1.387,2.492-3.7,3.227-5,5v2l-3,2v1h2c1.5,1.634,4.978,1.954,7,3V32c2.261-1.448,6.627-7.466,8-10ZM63,22L51,35h3v1l6,1v1h5v1h7v1h7v1c2.814,0.867,10.151.733,11,0-2.391-.463-3.145-1.158-5-2l1-3,8-7V28Zm91,1c-1.326,5.067-6.585,6.924-8,12l31,6c1.352-5.5,6.131-7.72,7-14ZM7,29a18.232,18.232,0,0,1-1,7H7a13.322,13.322,0,0,1,5-5c-1.139-1.139,0-.4-2-1V29H7ZM89,39c3.87,0.367,4.143,1.544,8,2l2-3h1V36h1c1.436-1.743,2.3-2.412,3-5-3.144-.584-4.461-1.621-8-2C93.97,32.5,90.175,34.624,89,39Zm100,3q-0.5-6.5-1-13h-1v1h-1l-6,10ZM15,31L9,38,6,39c-0.685,1.166-.183,2.767-1,4H6c2.265,1.963,6.469.011,10,1v1H26v1l13,1c1.95-3.563,5.466-7.976,9-10V36H42V35H36C29.911,33.167,21.714,32.22,15,31ZM99,43l35,4c0.657-2.594,1.578-3.269,3-5h1V40h1l2-3h-1V36h-5V35h-6c-5.964-1.8-13.7-3.746-21-4l-3,4h-1v2C102.148,39.574,100.18,38.677,99,43Zm47,9c1.128-4.642,4.766-6.386,6-11h1c0.226-1.4-.374.268-1-1-1.425-1.438-5.583-2.546-8-3-1.274,2.458-5.828,8.617-8,10v1C140.426,48.945,141.014,51.393,146,52ZM56,39l-7-1a20.268,20.268,0,0,1-8,9v1c3.075,0.626,3.462,1.6,7,2C50.469,45.793,54.741,44.594,56,39Zm4,1c-2.871,4.977-8.112,7.749-11,13H85c1.114-1.9,6.038-5.878,8-7V45ZM190,53V46h-1V45c-11.991.025-20.868-4.663-33-5l-8,13h42ZM97,45c-2.052,3.508-5.952,4.615-8,8h50V52l-6-2V49h-6V48H117C111.427,46.4,102.36,47.015,97,45ZM5,46L4,53H43V52l-3-1V50H38V49ZM4,55v77c4.587,1.67,12.814,1,19,1H189c2.224-6.079,1-17.193,1-25V55H4ZM96,68h3v7H96V68ZM8,137l4,8h2c3.124,2.9,15.485.712,19,0,0.644-2.739,1.309-2.276,2-5H158c1.713,3.744,2.887,3.435,5,6,6.253,0.072,13.192-.1,18-1q2.5-4,5-8H8Z"/>
</svg>
