<?xml version="1.0" encoding="UTF-8"?>
<svg width="24px" fill="#44739e" height="24px" viewBox="0 0 24 24" version="1.1" xmlns="http://www.w3.org/2000/svg" xmlns:xlink="http://www.w3.org/1999/xlink">
            <path d="M 21.855,6.264 A 5.1,5.1 0 0 0 17.672,2.138 16.193,16.193 0 0 0 15.511,2.077 c -0.986,0 -1.808,0.012 -1.82,0.028 -0.012,0.016 -0.029,4.467 -0.029,9.9 0,8.963 0,9.871 0.065,9.9 0.111,0.041 3.3,0.024 3.7,-0.017 a 5.128,5.128 0 0 0 3.94,-2.712 6.1,6.1 0 0 0 0.309,-0.719 c 0.258,-0.773 0.25,-0.567 0.25,-6.472 C 21.921,7.267 21.913,6.564 21.855,6.264 Z m -2.4,7.38 a 1.993,1.993 0 0 1 -3.8,-0.1 2.354,2.354 0 0 1 0.016,-1.158 1.992,1.992 0 0 1 3.785,-0.05 2.158,2.158 0 0 1 0,1.308 z M 6.68,6.19 A 2.2,2.2 0 0 0 5.817,6.621 1.822,1.822 0 0 0 5.205,8.15 1.293,1.293 0 0 0 5.373,8.824 1.877,1.877 0 0 0 6.257,9.712 1.275,1.275 0 0 0 6.957,9.876 1.5,1.5 0 0 0 7.617,9.8 1.855,1.855 0 0 0 8.9,7.747 1.888,1.888 0 0 0 6.68,6.19 Z M 9.129,2.081 a 26.7,26.7 0 0 0 -2.8,0.061 5.129,5.129 0 0 0 -4.068,3.74 c -0.181,0.694 -0.193,1.1 -0.173,6.488 0.012,4.948 0.017,5.063 0.1,5.445 a 5.153,5.153 0 0 0 4,4.011 18.321,18.321 0 0 0 2.839,0.086 11.118,11.118 0 0 0 2.6,-0.049 c 0.061,-0.062 0.065,-0.855 0.065,-9.846 0,-6.665 -0.012,-9.8 -0.041,-9.862 C 11.607,2.081 11.537,2.077 9.129,2.081 Z M 10.046,12 v 8.33 L 8.373,20.309 A 8.653,8.653 0 0 1 6.36,20.209 3.488,3.488 0 0 1 3.779,17.521 C 3.689,17.106 3.689,6.882 3.779,6.476 A 3.529,3.529 0 0 1 5.9,3.93 5.906,5.906 0 0 1 8.451,3.683 h 1.591 z"/>

</svg>