<?xml version="1.0" encoding="UTF-8"?>
<svg width="24px" fill="#44739e" height="24px" viewBox="0 0 24 24" version="1.1" xmlns="http://www.w3.org/2000/svg" xmlns:xlink="http://www.w3.org/1999/xlink">
            <path d="m 11.976048,2.0239521 a 10,10 0 1 0 10,10.0000009 10.011,10.011 0 0 0 -10,-10.0000009 z m -6.5809997,3.665 a 1.742,1.742 0 0 0 1.343,0.522 1.946,1.946 0 0 0 1.4,-0.473 0.817,0.817 0 0 0 0.238,-0.614 1.118,1.118 0 0 0 -0.958,-1.025 9.105,9.105 0 0 1 9.0579997,-0.026 v 0 l 0.008,0.007 c 0.085,0.049 0.17,0.1 0.254,0.151 L 4.7250483,17.580953 a 9.113,9.113 0 0 1 0.67,-11.8920009 z M 11.976048,21.165953 c -0.228,0 -0.454,-0.012 -0.678,-0.028 v -4.732 a 4.628,4.628 0 0 0 3.361,1.239 4.967,4.967 0 0 0 5.293,-5.175 4.8,4.8 0 0 0 -1.885,-3.9370009 l -1.453,1.5349999 a 3.443,3.443 0 0 1 0.963,2.479001 3.117,3.117 0 0 1 -3.268,3.446 3.242,3.242 0 0 1 -2.389,-0.969 l -2.9729997,3.145 v 2.479 a 9.156,9.156 0 0 1 -1.848,-0.9 L 19.338048,6.6129521 a 9.135,9.135 0 0 1 -7.362,14.5530009 z m -3.0289997,-10.181 v 1.378 L 13.023048,7.8759521 a 4.447,4.447 0 0 0 -1.933,1.29 l -0.081,-1.389 H 8.8450483 l 0.009,0.17 c 0.049,0.933 0.093,1.867 0.093,3.0380009 z m -3.445,5.169999 2.588,-2.849 V 7.8079521 h -2.588 z"/>

</svg>