<?xml version="1.0" encoding="UTF-8"?>
<svg width="24px" fill="#44739e" height="24px" viewBox="0 0 24 24" version="1.1" xmlns="http://www.w3.org/2000/svg" xmlns:xlink="http://www.w3.org/1999/xlink">
            <path d="m 21.112,9.025 a 1.142,1.142 0 0 0 -1.015,0.7 l -1.063,2.049 -0.515,-2.02 A 0.854,0.854 0 0 0 17.638,9.023 1,1 0 0 0 16.682,9.674 l -1.11,2.1 L 15.2,9.779 a 0.922,0.922 0 0 0 -1.829,0.136 1.25,1.25 0 0 0 0.02,0.23 l 0.05,0.307 H 13.42 A 2.9,2.9 0 0 0 10.753,8.91 2.974,2.974 0 0 0 8.074,10.452 H 8.053 L 8.121,10.02 A 1.842,1.842 0 0 0 8.141,9.808 0.751,0.751 0 0 0 7.314,9.013 0.9,0.9 0 0 0 6.405,9.813 L 6.016,11.77 4.572,9.542 A 0.931,0.931 0 0 0 3.736,9.023 0.841,0.841 0 0 0 2.859,9.742 l -0.83,4 A 2.079,2.079 0 0 0 2,14.063 0.783,0.783 0 0 0 2.83,14.915 0.948,0.948 0 0 0 3.767,14.131 l 0.4,-1.924 1.333,2.136 a 1,1 0 0 0 0.877,0.574 0.872,0.872 0 0 0 0.909,-0.756 l 0.3,-1.427 h 0.021 a 2.912,2.912 0 0 0 3.033,2.356 3.183,3.183 0 0 0 3.149,-2.358 h 0.02 l 0.285,1.359 a 0.9,0.9 0 0 0 0.916,0.824 1.074,1.074 0 0 0 0.976,-0.64 l 1.267,-2.117 0.525,1.952 c 0.157,0.575 0.467,0.8 0.927,0.8 a 1.084,1.084 0 0 0 0.955,-0.64 l 2.194,-3.92 A 1.089,1.089 0 0 0 22,9.839 0.826,0.826 0 0 0 21.112,9.025 Z M 10.714,13.4 A 1.393,1.393 0 0 1 9.32,12 a 1.369,1.369 0 0 1 1.394,-1.4 1.4,1.4 0 1 1 0,2.8 z"/>

</svg>