<?xml version="1.0" encoding="UTF-8" standalone="no"?>
<svg
   width="24"
   height="24"
   viewBox="0 0 24 24"
   version="1.1"
   xmlns="http://www.w3.org/2000/svg"
   xmlns:svg="http://www.w3.org/2000/svg">
  <path
     style="fill:#44739e"
     d="m 2.788087,7 v 4.998047 c -4.9e-6,1.666251 2e-6,3.333742 0,5 h 1.7929688 c -0.0031,-1.171628 -0.04534,-3.475055 0,-5.255859 0.8053164,1.73531 1.6452898,3.491349 2.4550781,5.224609 0.6043838,0.0109 1.2100694,0.02235 1.8144531,0.0332 V 7 H 7.0400402 c 0,1.7450393 0.0084,3.489622 0,5.234375 0,0 -1.6386136,-3.4929586 -2.4375,-5.234375 z m 9.056641,0 C 10.74013,7 9.8447277,7.8954022 9.8447277,9 v 6 c 0,1.104998 0.8954023,2 2.0000003,2 h 2 c 1.104998,0 2,-0.895002 2,-2 V 9 c 0,-1.1045978 -0.895002,-2 -2,-2 z m 0,2 h 2 v 6 h -2 z m 5.009765,1.197266 0.01367,1.285156 c 0.0122,1.27869 0.01157,1.28489 0.113282,1.519531 0.0562,0.12965 0.160708,0.308355 0.230468,0.396485 l 0.125,0.160156 -0.115234,0.152344 c -0.06405,0.08389 -0.166596,0.255794 -0.228516,0.382812 l -0.113281,0.230469 -0.01172,1.255859 -0.01367,1.25586 h 0.810547 0.810547 v -1.154297 -1.154297 h 0.558594 0.556641 v 1.154297 1.154297 h 0.810547 0.810546 l -0.01172,-1.25586 -0.01367,-1.255859 -0.125,-0.259766 c -0.06934,-0.142895 -0.178848,-0.313739 -0.242188,-0.380859 l -0.115234,-0.123047 0.136719,-0.15625 c 0.07531,-0.08624 0.184817,-0.264059 0.242187,-0.396485 l 0.103516,-0.242187 0.01172,-1.283203 0.01367,-1.285156 h -0.810546 -0.810547 v 1.183593 1.183594 H 19.034181 18.475587 V 11.380859 10.197266 H 17.66504 Z"
   />
</svg>
