<svg xmlns="http://www.w3.org/2000/svg" viewBox="0 0 24 24"><path fill="#44739e" d="m12.974 5.382-.674-.673a.45.45 0 0 0-.191-.113.5.5 0 0 0-.128-.019.4.4 0 0 0-.169.035.5.5 0 0 0-.15.1l-.673.673a.44.44 0 0 0-.124.4.4.4 0 0 0 .066.161.4.4 0 0 0 .058.071l.673.674a.5.5 0 0 0 .19.113.5.5 0 0 0 .214.011.44.44 0 0 0 .233-.124l.675-.674a.45.45 0 0 0 .124-.4.4.4 0 0 0-.066-.161.5.5 0 0 0-.058-.074m8.579 5.532-8.467-8.449a1.545 1.545 0 0 0-2.172 0l-8.467 8.451a1.54 1.54 0 0 0 0 2.17l8.467 8.449a1.546 1.546 0 0 0 2.172 0l8.467-8.451a1.54 1.54 0 0 0 0-2.17M8.175 12.1a.44.44 0 0 1-.22.269.4.4 0 0 1-.165.049.44.44 0 0 1-.361-.129l-1.022-1.025-.338-.337a.5.5 0 0 0-.232-.124.4.4 0 0 0-.128-.006.5.5 0 0 0-.167.05.5.5 0 0 0-.109.08l-.674.674a.44.44 0 0 0-.115.444.5.5 0 0 0 .115.191l.336.336 1.019 1.021a.43.43 0 0 1 .128.272.4.4 0 0 1-.016.171.44.44 0 0 1-.219.269.4.4 0 0 1-.166.049.44.44 0 0 1-.36-.128l-1.023-1.018-.405-.4-.011-.01a1.24 1.24 0 0 1-.36-.876v-.059a1.2 1.2 0 0 1 .033-.235 1.3 1.3 0 0 1 .169-.385 1.3 1.3 0 0 1 .157-.192l.832-.831a1.23 1.23 0 0 1 .872-.359 1.27 1.27 0 0 1 .68.2 1.2 1.2 0 0 1 .192.157l.012.011.405.4 1.023 1.021a.43.43 0 0 1 .128.272.4.4 0 0 1-.01.178m2.782-3.257a1 1 0 0 1-.022.177 1.3 1.3 0 0 1-.117.338 1.2 1.2 0 0 1-.219.3l-.832.829a1.2 1.2 0 0 1-.2.161l-.073.044.435.441a.45.45 0 0 1 .131.315.6.6 0 0 1-.017.128.44.44 0 0 1-.221.268.4.4 0 0 1-.165.05.45.45 0 0 1-.361-.131l-1.278-1.278-.15-.15-.682-.68a1.24 1.24 0 0 1-.36-.874v-.059a1 1 0 0 1 .032-.235A1.4 1.4 0 0 1 7 8.156a1.3 1.3 0 0 1 .19-.244l.832-.831a1.22 1.22 0 0 1 .878-.358 1.3 1.3 0 0 1 .522.112 1.3 1.3 0 0 1 .354.244l.832.829a1.23 1.23 0 0 1 .347.7l.006.059a1 1 0 0 1 .007.119Zm2.818-2.358a1 1 0 0 1-.086.093l-.832.831a1.23 1.23 0 0 1-.935.357 1.2 1.2 0 0 1-.293-.049 1.25 1.25 0 0 1-.521-.308l-.831-.831a1.24 1.24 0 0 1-.36-.874v-.059a1 1 0 0 1 .035-.245 1.2 1.2 0 0 1 .134-.334 1.4 1.4 0 0 1 .191-.246l.831-.829a1.24 1.24 0 0 1 .874-.361v.01a1.3 1.3 0 0 1 .521.113 1.3 1.3 0 0 1 .354.247l.832.83a1.24 1.24 0 0 1 .086 1.651ZM9.879 8.471 9.206 7.8a.5.5 0 0 0-.192-.112.5.5 0 0 0-.128-.019h.005a.44.44 0 0 0-.319.132l-.672.668a.445.445 0 0 0 0 .63l.6.6.071.072a.45.45 0 0 0 .19.113.5.5 0 0 0 .128.019.45.45 0 0 0 .311-.129l.677-.674A.45.45 0 0 0 10 8.7a.4.4 0 0 0-.066-.161Z"/></svg>