<?xml version="1.0" encoding="UTF-8" standalone="no"?>

<svg
   width="24"
   height="24"
   viewBox="0 0 24 24"
   version="1.1"
   xmlns="http://www.w3.org/2000/svg"
   xmlns:svg="http://www.w3.org/2000/svg">
    <path
       d="M 1.1201035,10.7566 V 4.7358433 H 3.0954142 V 10.7566 Z M 5.7831798,5.6941471 6.9190961,10.7566 H 4.7576442 L 3.4014689,4.7358433 H 4.613648 A 1.1419369,1.1419369 0 0 1 5.3727649,5.0117947 C 5.5834921,5.1853931 5.7289929,5.4267251 5.783682,5.6941471 Z M 7.2161202,10.7566 V 4.7358433 H 9.1914308 V 10.7566 Z M 10.683073,7.0257378 A 1.195622,1.195622 0 0 1 9.4789221,5.8215865 1.1554837,1.1554837 0 0 1 9.6404785,5.2195107 1.2101722,1.2101722 0 0 1 11.285149,4.7875215 c 0.178616,0.1053636 0.327629,0.2538752 0.432492,0.4324909 0.107871,0.182128 0.163563,0.3903459 0.161055,0.6020758 A 1.2041515,1.2041515 0 0 1 11.285149,6.8651843 1.1554837,1.1554837 0 0 1 10.683073,7.0257378 Z M 12.184249,10.7566 V 4.7358433 h 1.97531 V 10.7566 Z m 4.476433,-2.730413 c 0.0051,0.00602 0.04767,0.075259 0.126938,0.2077162 0.07927,0.1324566 0.182629,0.302543 0.309567,0.5087539 a 164.1419,164.1419 0 0 1 0.801263,1.3145319 c 0.123927,0.206211 0.265414,0.439515 0.423961,0.699411 H 16.151927 C 16.016461,10.535839 15.893035,10.336653 15.782655,10.158539 15.672275,9.9809261 15.555371,9.7882619 15.431444,9.5820511 15.307015,9.3763418 15.184091,9.1756499 15.062171,8.9799753 14.940752,8.7848024 14.836393,8.6137125 14.74859,8.4672075 14.660787,8.3202007 14.600078,8.2213599 14.566461,8.1701834 A 0.87802707,0.87802707 0 0 1 14.422465,7.7462218 c 0.008,-0.1455016 0.05519,-0.2859859 0.135467,-0.4069028 0.03362,-0.056696 0.09584,-0.1570414 0.186643,-0.3010379 a 91.367999,91.367999 0 0 0 0.68737,-1.1188574 c 0.123928,-0.2067126 0.240831,-0.4003803 0.351211,-0.581003 L 16.151927,4.736345 h 2.170484 l -1.678788,2.7384411 a 0.54136641,0.54136641 0 0 0 -0.08529,0.2714357 c 0.006,0.101349 0.04114,0.198685 0.101849,0.2799652 z M 4.0717799,16.805454 c 0.1128897,-0.01706 0.2242737,-0.04315 0.3331487,-0.07777 0.220259,-0.06823 0.4239614,-0.18263 0.5970584,-0.334654 0.173097,-0.154533 0.3095672,-0.345691 0.3988753,-0.559429 0.1003508,-0.245848 0.1495154,-0.51026 0.1439962,-0.775674 A 2.0907079,2.0907079 0 0 0 5.3542014,14.159829 1.4309332,1.4309332 0 0 0 4.7270388,13.511093 2.4303789,2.4303789 0 0 0 3.5529911,13.269259 H 1.1201035 v 6.018249 h 0.8815394 v -2.305445 h 1.2969714 l 1.5001726,2.305448 h 1.034065 L 4.4265033,17.202824 4.0722821,16.805454 Z M 4.0868359,14.1212 c 0.175605,0.06723 0.3226125,0.192664 0.415432,0.356228 0.096837,0.189654 0.143495,0.401383 0.1354667,0.614619 0.010551,0.235813 -0.046657,0.469619 -0.1655699,0.673823 A 0.92569141,0.92569141 0 0 1 3.9980303,16.138656 C 3.762217,16.219936 3.5138605,16.258568 3.2645007,16.25305 H 2.0016429 v -2.246244 h 1.3647048 c 0.2453462,-0.008 0.489689,0.03061 0.7204843,0.114394 z m 6.3152731,4.632471 a 0.38633192,0.38633192 0 0 1 -0.331142,-0.135468 0.72901334,0.72901334 0 0 1 -0.09332,-0.44955 l 0.01706,-1.746018 a 2.0395315,2.0395315 0 0 0 -0.06774,-0.542371 1.333096,1.333096 0 0 0 -0.2032,-0.432491 1.1494628,1.1494628 0 0 0 -0.351714,-0.31358 1.7956908,1.7956908 0 0 0 -0.5132695,-0.194672 3.0133889,3.0133889 0 0 0 -0.6693076,-0.06773 c -0.1786152,0 -0.3572314,0.01104 -0.534342,0.03362 a 3.6636306,3.6636306 0 0 0 -0.4957084,0.09733 c -0.1510211,0.04114 -0.2995331,0.09032 -0.445035,0.148512 l -0.1018491,0.720485 a 4.9691315,4.9691315 0 0 1 0.7716611,-0.211731 3.0756034,3.0756034 0 0 1 0.351211,-0.04666 c 0.116401,-0.0085 0.2307953,-0.01304 0.3436839,-0.01304 0.173097,-0.0035 0.3456917,0.01656 0.5127683,0.05971 0.1224225,0.0301 0.23481,0.09182 0.3261239,0.178114 0.082287,0.08379 0.1404848,0.187145 0.1700867,0.301038 0.036127,0.139481 0.053188,0.283477 0.05017,0.427975 l -5.022e-4,0.212734 -0.9909156,0.06674 a 2.6350847,2.6350847 0 0 0 -0.9833902,0.220753 1.4093589,1.4093589 0 0 0 -0.5805017,0.47012 c -0.1254327,0.183633 -0.1916605,0.400882 -0.1906571,0.623149 -0.00148,0.208217 0.049674,0.413926 0.1485121,0.597058 0.1033579,0.189152 0.2593938,0.343685 0.4490486,0.445536 0.2312964,0.120415 0.4896879,0.178616 0.7500852,0.169585 0.2443428,0.0051 0.48718,-0.03512 0.7164707,-0.11891 A 1.6496875,1.6496875 0 0 0 8.9902354,18.91474 c 0.058706,-0.0562 0.1143943,-0.115399 0.1665744,-0.177613 a 0.80276762,0.80276762 0 0 0 0.091815,0.249862 c 0.075756,0.129948 0.1921617,0.230795 0.3311407,0.287992 0.153028,0.06171 0.317596,0.09182 0.4826645,0.0893 0.05117,0 0.100351,-0.0015 0.148512,-0.0045 0.04716,-0.0025 0.09382,-0.01002 0.139983,-0.02107 l 0.122924,-0.0301 c 0.03312,-0.0071 0.06523,-0.01706 0.09733,-0.0291 l 0.09332,-0.567958 a 0.74256004,0.74256004 0 0 1 -0.143998,0.03361 c -0.03964,0.0051 -0.07927,0.0085 -0.118909,0.0085 z M 8.9902407,18.372356 c -0.091815,0.07275 -0.1911583,0.135467 -0.2965219,0.186643 A 1.3295839,1.3295839 0 0 1 8.3630792,18.66938 1.863926,1.863926 0 0 1 8.0028365,18.702995 0.95679864,0.95679864 0 0 1 7.6004498,18.626733 C 7.496596,18.581574 7.4097927,18.506318 7.3500866,18.410487 A 0.63368468,0.63368468 0 0 1 7.2652985,18.075834 0.64221409,0.64221409 0 0 1 7.3756792,17.67746 c 0.092321,-0.107872 0.2172488,-0.182128 0.356228,-0.212232 a 2.5839083,2.5839083 0 0 1 0.6607781,-0.06774 h 0.7425603 l -0.00401,0.841402 c -0.043154,0.04867 -0.090306,0.09332 -0.1404838,0.13346 z m 5.4211913,-3.29536 c -0.0085,-0.0031 -0.01655,-0.0071 -0.02509,-0.01055 a 2.9235793,2.9235793 0 0 0 -1.076714,-0.194667 2.0821784,2.0821784 0 0 0 -1.055137,0.279464 2.0771612,2.0771612 0 0 0 -0.784203,0.809289 2.6069878,2.6069878 0 0 0 -0.296523,1.292958 2.6140121,2.6140121 0 0 0 0.224273,1.127387 1.6812965,1.6812965 0 0 0 0.644723,0.733027 c 0.303547,0.178615 0.651747,0.268426 1.003961,0.258391 0.216245,0.0015 0.431489,-0.0271 0.640208,-0.08479 0.207716,-0.0592 0.4064,-0.148009 0.58903,-0.262404 0.06372,-0.03913 0.126938,-0.08329 0.190658,-0.129446 l 0.106366,0.39185 h 0.703426 v -6.391037 l -0.864982,0.118408 z m -0.453564,3.486017 a 1.7761233,1.7761233 0 0 1 -0.606089,0.122924 c -0.242336,0.0071 -0.481661,-0.05017 -0.694896,-0.165571 a 1.0606567,1.0606567 0 0 1 -0.440519,-0.508252 2.1228186,2.1228186 0 0 1 -0.153027,-0.860467 c -0.01002,-0.30154 0.04816,-0.601573 0.169584,-0.877524 0.103854,-0.223772 0.273944,-0.410415 0.487681,-0.533841 a 1.5031823,1.5031823 0 0 1 0.758616,-0.18263 2.5608287,2.5608287 0 0 1 0.80076,0.122924 c 0.04165,0.01355 0.0873,0.0311 0.131454,0.04716 v 2.612507 c -0.143997,0.08781 -0.296021,0.162561 -0.454066,0.222768 z m 2.640603,0.724498 h 0.86398 v -4.407695 l -0.864481,0.127438 v 4.280257 z m 0.741056,-6.183317 a 0.54939408,0.54939408 0 0 0 -0.292007,-0.08027 0.57046673,0.57046673 0 0 0 -0.297024,0.08027 0.6221449,0.6221449 0 0 0 -0.215745,0.211729 0.54939408,0.54939408 0 0 0 -0.08078,0.292509 c -10e-4,0.10436 0.02709,0.207215 0.08027,0.296523 0.05219,0.08881 0.126436,0.162058 0.216245,0.212231 0.09031,0.05068 0.193167,0.07727 0.296522,0.07626 0.102852,10e-4 0.203703,-0.02509 0.29251,-0.07626 0.0873,-0.05017 0.159048,-0.123928 0.207716,-0.212231 0.05117,-0.09032 0.07727,-0.192665 0.07626,-0.296523 a 0.57197192,0.57197192 0 0 0 -0.07626,-0.292509 0.59906533,0.59906533 0 0 0 -0.207716,-0.211729 z m 5.276687,2.805672 a 1.852888,1.852888 0 0 0 -0.750086,-0.767646 2.3270226,2.3270226 0 0 0 -1.148961,-0.270934 2.3139777,2.3139777 0 0 0 -1.156988,0.279966 1.9547391,1.9547391 0 0 0 -0.771159,0.788216 2.4935969,2.4935969 0 0 0 -0.27545,1.20365 2.597455,2.597455 0 0 0 0.258391,1.199134 c 0.162561,0.326125 0.421452,0.594048 0.741557,0.767647 0.345189,0.180622 0.730016,0.270934 1.118857,0.262404 a 2.3872302,2.3872302 0 0 0 1.170033,-0.279463 1.9733031,1.9733031 0 0 0 0.792734,-0.796747 2.4986142,2.4986142 0 0 0 0.283978,-1.220709 2.4569706,2.4569706 0 0 0 -0.262906,-1.165518 z m -0.801262,2.072144 c -0.09533,0.220761 -0.256385,0.405899 -0.461591,0.529827 a 1.3170406,1.3170406 0 0 1 -0.67834,0.1741 1.2056566,1.2056566 0 0 1 -0.661279,-0.178114 1.1941168,1.1941168 0 0 1 -0.440519,-0.53384 2.1373688,2.1373688 0 0 1 -0.160553,-0.88154 c -0.01002,-0.294014 0.04465,-0.586522 0.160553,-0.856452 0.09533,-0.212232 0.253373,-0.389845 0.453564,-0.508252 a 1.3722309,1.3722309 0 0 1 0.699411,-0.169585 c 0.190657,-0.0051 0.379809,0.0311 0.554913,0.105865 0.153529,0.06924 0.287993,0.175605 0.390346,0.309567 0.108875,0.145502 0.188148,0.311073 0.232802,0.48718 0.05319,0.20621 0.07877,0.418442 0.07626,0.631677 a 2.1102754,2.1102754 0 0 1 -0.16557,0.890069 z"
       style="fill:#44739e" />
</svg>
