<svg xmlns="http://www.w3.org/2000/svg" viewBox="0 0 24 24"><path fill="#44739e" d="M20.17 6.385h-1.36v-.719c0-.521-.052-.607-.462-.787h-2.19a.48.48 0 0 0-.402.556v.95H8.443v-.77a.67.67 0 0 0-.41-.77H5.826a.676.676 0 0 0-.445.779v.761H2.405a.624.624 0 0 0-.394.701 1 1 0 0 1 0 .214 1.1 1.1 0 0 1 0 .342.68.68 0 0 0 .394.71h19.013c.419-.068.565-.248.565-.71v-.581a.49.49 0 0 0-.171-.514.77.77 0 0 0-.394-.162ZM3.08 8.951v9.528a.69.69 0 0 0 .445.676h16.73c.428-.111.539-.231.616-.71V8.951Zm3.558 1.873h.496a.222.222 0 0 1 .249.257v.855h.615c.317 0 .385.051.385.376v.462c0 .282-.111.368-.385.325h-.641v.984a.17.17 0 0 1-.188.137h-.291c-.53.119-.607 0-.607-.591v-.487a.8.8 0 0 0-.505-.069h-.248a.19.19 0 0 1-.205-.179 2.1 2.1 0 0 1 0-.856c.119-.188.29-.119.444-.119h.514v-.71c.008-.334.077-.411.367-.411Zm9.494 1.086h2.335l.154.052.103.119a1.8 1.8 0 0 1 0 .804.23.23 0 0 1-.239.214h-2.327a.29.29 0 0 1-.308-.325 1.8 1.8 0 0 1 0-.573c.06-.274.017-.316.282-.316Z"/></svg>