<svg xmlns="http://www.w3.org/2000/svg" viewBox="0 0 24 24"><path fill="#44739e" d="M9.601 5.401a.4.4 0 0 0-.4.4v.84q.393-.04.802-.04c3.267 0 5.66 1.838 7.486 3.721a.4.4 0 0 1 .02.536C15.585 13.158 13.201 15 10.401 15h-.02a6.4 6.4 0 0 1-1.18-.167v-1.238c.366.13.767.204 1.2.204 1.642 0 3.919-1.328 5.199-3.2-1.01-1.295-3.691-2.8-5.6-2.8q-.395 0-.8.066V6.64c-2.797.281-5.076 1.993-7.057 3.652a.4.4 0 0 0-.12.44c1.134 3.21 3.625 6.051 7.176 6.58l.001.887c0 .22.18.4.4.4h12a.4.4 0 0 0 .4-.4V5.801a.4.4 0 0 0-.4-.4Zm-.4 2.465V9.02c-1.34.133-2.621.907-3.835 1.793a.4.4 0 0 0-.126.494c.892 1.887 2.176 3.096 3.96 3.527v1.207c-2.607-.667-5.127-3.291-5.598-5.04 1.54-1.43 3.62-2.822 5.598-3.135M9.601 9c1.652 0 2.972.427 3.88 1.314l-1.88 1.486c-.232-.644-1.058-1.6-2-1.6a2 2 0 0 0-.4.043V9.02q.2-.02.4-.02m-.4 1.244v3.352c-1.115-.393-1.923-1.296-2.4-2.196.636-.43 1.594-.998 2.4-1.156m8.8 1.956 2.277 1.489c-2.053 1.968-5.88 3.71-9.876 3.71a8 8 0 0 1-1.2-.087V16.04c.4.103.802.16 1.2.16 2.76 0 5.795-2.14 7.6-4"/></svg>