<?xml version="1.0" encoding="UTF-8"?>
<svg width="24px" fill="#44739e" height="24px" viewBox="0 0 24 24" version="1.1" xmlns="http://www.w3.org/2000/svg" xmlns:xlink="http://www.w3.org/1999/xlink">
            <path d="m 16.615,12.159 a 1.425,1.425 0 0 0 -0.232,-0.486 0.309,0.309 0 0 1 -0.017,0.21 0.284,0.284 0 0 1 -0.023,0.05 0.308,0.308 0 0 1 -0.164,0.141 0.318,0.318 0 0 1 -0.4,-0.2 0.311,0.311 0 0 1 0.017,-0.223 0.275,0.275 0 0 1 0.014,-0.03 0.308,0.308 0 0 1 0.124,-0.107 0.264,0.264 0 0 1 0.272,-0.031 v 0 0 c -0.018,-0.016 -0.041,-0.02 -0.059,-0.035 a 1.424,1.424 0 0 0 -0.4,-0.241 1.5,1.5 0 0 0 -0.23,-0.043 1.421,1.421 0 0 0 -0.257,-0.049 c -0.013,0 -0.025,0.006 -0.038,0.006 a 1.63,1.63 0 0 0 -0.168,0.027 1.342,1.342 0 0 0 -0.319,0.079 1.32,1.32 0 0 0 -0.179,0.093 1.358,1.358 0 0 0 -0.151,0.08 c -0.035,0.025 -0.051,0.064 -0.083,0.092 a 1.235,1.235 0 0 0 -0.118,0.087 1.191,1.191 0 0 0 -0.084,0.141 1.355,1.355 0 0 0 -0.129,0.216 1.311,1.311 0 0 0 -0.1,0.286 1.407,1.407 0 0 0 -0.033,0.224 1.4,1.4 0 0 0 0.068,0.525 1.37,1.37 0 0 0 0.144,0.3 1.1,1.1 0 0 0 0.053,0.109 c 0.023,0.031 0.057,0.045 0.082,0.073 a 1.18,1.18 0 0 0 0.094,0.129 1.422,1.422 0 0 0 0.163,0.1 1.182,1.182 0 0 0 0.48,0.21 1.41,1.41 0 0 0 0.192,0.036 c 0.042,0 0.081,0.022 0.123,0.022 v 0.006 a 1.415,1.415 0 0 0 1.422,-1.408 1.345,1.345 0 0 0 -0.048,-0.3 c -0.008,-0.03 -0.008,-0.059 -0.016,-0.089 z m -1.36,-1.05 h 10e-4 v 0 z m 3.099,4.935 0.019,-0.029 c 0,0 3.461,-3.98 1.747,-8.59 C 18.491,3.041 14.271,2.557 12.083,2.5 9.895,2.443 5.876,2.811 3.983,7.3 c -1.7,4.046 0.8,6.839 1.615,8.634 0.237,1.3 -1.179,1 -0.967,2.259 0.17,0.357 1.18,0.642 2.914,-0.052 -0.529,1.1 -2.057,1.1 -1.869,1.793 0.125,0.309 2.464,1.676 4.634,-0.55 l 0.2,-0.2 c 0.153,1.228 0.519,2.251 1.623,2.312 1.194,-0.027 1.552,-0.968 1.672,-2.134 a 8.989,8.989 0 0 0 0.927,0.647 c 2.069,1.274 3.6,0.225 3.71,-0.19 -0.013,-0.56 -1.288,-0.535 -1.814,-1.595 2.064,0.46 2.531,0.57 2.828,-0.087 0.253,-0.865 -1.239,-0.694 -1.102,-2.093 z M 6.839,9.019 A 0.1,0.1 0 0 1 6.769,8.992 0.108,0.108 0 0 1 6.756,8.84 v 0 A 1.382,1.382 0 0 1 7.286,8.577 0.109,0.109 0 0 1 7.421,8.65 v 0 A 0.11,0.11 0 0 1 7.346,8.785 1.19,1.19 0 0 0 6.922,8.985 0.11,0.11 0 0 1 6.839,9.019 Z m 2.012,5.027 A 1.862,1.862 0 0 1 6.989,12.185 v 0 A 1.861,1.861 0 0 1 8.85,10.323 v 0 a 1.862,1.862 0 0 1 0,3.723 z m 4.549,1.335 a 1.01,1.01 0 0 1 -0.945,0.789 1.245,1.245 0 0 1 -1.14,-0.611 c -0.047,-0.1 -0.126,-0.555 0.327,-0.338 v 0 a 2.08,2.08 0 0 0 0.76,0.289 0.987,0.987 0 0 0 0.585,-0.249 c 0.445,-0.339 0.413,0.12 0.413,0.12 z m 1.99,-1.147 a 2.017,2.017 0 0 1 -2.018,-2.018 v 0 A 2.017,2.017 0 0 1 15.391,10.2 v 0 a 2.018,2.018 0 1 1 0,4.036 z m 2.5,-5.025 v 0 A 0.1,0.1 0 0 1 17.82,9.235 0.107,0.107 0 0 1 17.738,9.197 1.2,1.2 0 0 0 17.313,8.997 0.11,0.11 0 0 1 17.238,8.862 0.108,0.108 0 0 1 17.372,8.787 v 0 A 1.341,1.341 0 0 1 17.902,9.05 0.108,0.108 0 0 1 17.9,9.209 Z M 9.911,11.681 A 0.328,0.328 0 1 1 9.582,11.354 v 0 a 0.318,0.318 0 0 1 0.153,0.043 1.331,1.331 0 1 0 0.1,0.08 0.32,0.32 0 0 1 0.076,0.204 z"/>

</svg>