<?xml version="1.0" encoding="UTF-8"?>
<svg width="24px" fill="#44739e" height="24px" viewBox="0 0 24 24" version="1.1" xmlns="http://www.w3.org/2000/svg" xmlns:xlink="http://www.w3.org/1999/xlink">
            <path d="m 10.683,9.4169998 h 2.634 V 14.583 H 10.683 Z M 13.668,12 A 2.608,2.608 0 0 0 16.3,14.583 V 9.417 A 2.608,2.608 0 0 0 13.668,12 Z M 7.7,9.417 v 5.166 a 2.583,2.583 0 1 0 0,-5.166 z m -2.987,0 a 2.583,2.583 0 1 0 0,5.166 2.583,2.583 0 1 0 0,-5.166 z m 14.574,0 A 2.583,2.583 0 1 0 21.921,12 2.608,2.608 0 0 0 19.287,9.417 Z"/>

</svg>
