<svg xmlns="http://www.w3.org/2000/svg" viewBox="0 0 24 24"><path fill="#44739e" d="M21.466 8.625H2.533A.533.533 0 0 0 2 9.158v5.683a.534.534 0 0 0 .533.534h18.933a.534.534 0 0 0 .534-.534V9.158a.534.534 0 0 0-.534-.533m.034 5.78a.534.534 0 0 1-.534.534H2.979a.534.534 0 0 1-.533-.534v-4.79a.534.534 0 0 1 .533-.534h17.987a.534.534 0 0 1 .534.534Zm-1.49-4.966H19a.7.7 0 0 0 .467.18.9.9 0 0 0 .543-.18m-.444 3.801c-.438 0-.748.385-.748.924a.9.9 0 0 0 .092.4h1.39a.34.34 0 0 0 .043-.175c.002-.652-.24-1.149-.777-1.149m1.364-3.8h-.177a2.3 2.3 0 0 1-.625 1.44 1.9 1.9 0 0 1-1.1.51 2.4 2.4 0 0 1-.474.028v-.42a2 2 0 0 0 .415-.018 1.43 1.43 0 0 0 .795-.368 1.67 1.67 0 0 0 .5-1.01h-.019a1.12 1.12 0 0 1-.895.408 1.05 1.05 0 0 1-.959-.57h-.239a.26.26 0 0 0-.262.261v4.6a.26.26 0 0 0 .262.262h.22a1.308 1.308 0 0 1 1.235-1.712c.777 0 1.256.631 1.256 1.6 0 .04-.008.071-.01.11h.077a.26.26 0 0 0 .262-.262V9.701a.26.26 0 0 0-.262-.262m-3.785 0h-2.778a.26.26 0 0 0-.262.261v4.6a.26.26 0 0 0 .262.262h2.778a.26.26 0 0 0 .262-.262V9.7a.26.26 0 0 0-.262-.262m-.137.974-1.654 3.46h-.53l1.646-3.36v-.013h-1.858v-.426h2.4Zm-3.663-.975h-2.78a.26.26 0 0 0-.262.262v4.6a.26.26 0 0 0 .262.262h2.78a.26.26 0 0 0 .262-.262v-4.6a.26.26 0 0 0-.262-.262m-1.662 4.5a1.94 1.94 0 0 1-.987-.257l.14-.4a1.74 1.74 0 0 0 .841.24c.661 0 .866-.422.86-.737-.006-.533-.486-.76-.982-.76h-.286v-.384h.286c.374 0 .847-.193.847-.642 0-.3-.192-.574-.666-.574a1.4 1.4 0 0 0-.76.252l-.13-.374a1.8 1.8 0 0 1 .993-.292c.748 0 1.086.444 1.086.9a.94.94 0 0 1-.7.9v.011a.99.99 0 0 1 .847.976c-.006.608-.479 1.14-1.39 1.14Zm-2.125-4.5H6.78a.26.26 0 0 0-.262.262v4.6a.26.26 0 0 0 .262.262h2.778a.26.26 0 0 0 .262-.262v-4.6a.26.26 0 0 0-.262-.262m-1.065 4.437h-.5v-3.323h-.008l-.66.357-.1-.392.83-.444h.437Zm-2.72-4.435H2.995a.26.26 0 0 0-.262.262v4.6a.26.26 0 0 0 .262.262h2.777a.26.26 0 0 0 .262-.262v-4.6a.26.26 0 0 0-.262-.262m-.177 4.435H3.171v-.316l.4-.392c.97-.923 1.41-1.414 1.414-1.987a.677.677 0 0 0-.754-.742 1.3 1.3 0 0 0-.806.321l-.164-.362a1.67 1.67 0 0 1 1.078-.385 1.07 1.07 0 0 1 1.164 1.1c0 .7-.509 1.268-1.31 2.04l-.3.28v.02h1.703Z"/></svg>