<?xml version="1.0" encoding="UTF-8"?>
<svg width="24px" fill="#44739e" height="24px" viewBox="0 0 24 24" version="1.1" xmlns="http://www.w3.org/2000/svg" xmlns:xlink="http://www.w3.org/1999/xlink">
            <path d="M 21.491107,8.7413807 H 2.5581075 a 0.533,0.533 0 0 0 -0.533,0.533 v 5.6830003 a 0.534,0.534 0 0 0 0.533,0.534 H 21.491107 a 0.534,0.534 0 0 0 0.534,-0.534 V 9.2743807 a 0.534,0.534 0 0 0 -0.534,-0.533 z m 0.034,5.7800003 a 0.534,0.534 0 0 1 -0.534,0.534 H 3.0041075 a 0.534,0.534 0 0 1 -0.533,-0.534 V 9.7313807 a 0.534,0.534 0 0 1 0.533,-0.534 H 20.991107 a 0.534,0.534 0 0 1 0.534,0.534 z m -1.49,-4.9660003 h -1.011 a 0.692,0.692 0 0 0 0.468,0.18 0.893,0.893 0 0 0 0.543,-0.18 z m -0.444,3.8010003 c -0.438,0 -0.748,0.385 -0.748,0.924 a 0.92,0.92 0 0 0 0.092,0.4 h 1.39 a 0.342,0.342 0 0 0 0.043,-0.175 c 0.002,-0.652 -0.24,-1.149 -0.777,-1.149 z m 1.364,-3.8010003 h -0.177 a 2.286,2.286 0 0 1 -0.625,1.4410003 1.9,1.9 0 0 1 -1.1,0.509 2.4,2.4 0 0 1 -0.474,0.029 v -0.42 a 2.165,2.165 0 0 0 0.415,-0.018 1.434,1.434 0 0 0 0.795,-0.368 1.671,1.671 0 0 0 0.5,-1.0110003 h -0.019 a 1.118,1.118 0 0 1 -0.895,0.4090003 1.053,1.053 0 0 1 -0.959,-0.5710003 h -0.239 a 0.262,0.262 0 0 0 -0.262,0.262 v 4.6000003 a 0.262,0.262 0 0 0 0.262,0.262 h 0.22 a 1.308,1.308 0 0 1 1.235,-1.712 c 0.777,0 1.256,0.631 1.256,1.6 0,0.039 -0.008,0.071 -0.01,0.11 h 0.077 a 0.262,0.262 0 0 0 0.262,-0.262 V 9.8173807 a 0.262,0.262 0 0 0 -0.262,-0.262 z m -3.785,0 h -2.778 a 0.262,0.262 0 0 0 -0.262,0.262 v 4.6000003 a 0.262,0.262 0 0 0 0.262,0.262 h 2.778 a 0.262,0.262 0 0 0 0.262,-0.262 V 9.8173807 a 0.262,0.262 0 0 0 -0.262,-0.262 z m -0.137,0.9750003 -1.654,3.46 h -0.531 l 1.647,-3.361 v -0.012 h -1.858 v -0.426 h 2.4 z m -3.663,-0.9750003 h -2.78 a 0.262,0.262 0 0 0 -0.262,0.262 v 4.6000003 a 0.262,0.262 0 0 0 0.262,0.262 h 2.78 a 0.262,0.262 0 0 0 0.262,-0.262 V 9.8173807 a 0.262,0.262 0 0 0 -0.262,-0.262 z m -1.662,4.5000003 a 1.937,1.937 0 0 1 -0.987,-0.257 l 0.14,-0.4 a 1.735,1.735 0 0 0 0.841,0.239 c 0.661,0 0.866,-0.421 0.86,-0.736 -0.006,-0.533 -0.486,-0.76 -0.982,-0.76 h -0.286 v -0.384 h 0.286 c 0.374,0 0.847,-0.193 0.847,-0.642 0,-0.3 -0.192,-0.574 -0.666,-0.574 a 1.4,1.4 0 0 0 -0.76,0.252 l -0.131,-0.374 a 1.807,1.807 0 0 1 0.994,-0.292 c 0.748,0 1.086,0.444 1.086,0.9 a 0.943,0.943 0 0 1 -0.7,0.9 v 0.011 a 0.989,0.989 0 0 1 0.847,0.976 c -0.006,0.608 -0.479,1.14 -1.391,1.14 z M 9.5831075,9.5553807 h -2.778 a 0.262,0.262 0 0 0 -0.262,0.262 v 4.6000003 a 0.262,0.262 0 0 0 0.262,0.262 h 2.778 a 0.262,0.262 0 0 0 0.262,-0.262 V 9.8173807 a 0.262,0.262 0 0 0 -0.262,-0.262 z m -1.065,4.4350003 h -0.5 v -3.323 h -0.008 l -0.661,0.357 -0.1,-0.392 0.83,-0.444 h 0.438 z m -2.721,-4.4350003 h -2.777 a 0.262,0.262 0 0 0 -0.262,0.262 v 4.6000003 a 0.262,0.262 0 0 0 0.262,0.262 h 2.777 a 0.262,0.262 0 0 0 0.262,-0.262 V 9.8173807 a 0.262,0.262 0 0 0 -0.262,-0.262 z m -0.176,4.4350003 h -2.425 v -0.316 l 0.4,-0.392 c 0.97,-0.923 1.409,-1.414 1.414,-1.987 a 0.677,0.677 0 0 0 -0.754,-0.742 1.3,1.3 0 0 0 -0.806,0.321 l -0.164,-0.362 a 1.667,1.667 0 0 1 1.078,-0.385 1.069,1.069 0 0 1 1.164,1.1 c 0,0.7 -0.509,1.268 -1.31,2.04 l -0.3,0.28 v 0.02 h 1.703 z"/>

</svg>