<?xml version="1.0" encoding="UTF-8"?>
<svg width="24px" fill="#44739e" height="24px" viewBox="0 0 24 24" version="1.1" xmlns="http://www.w3.org/2000/svg" xmlns:xlink="http://www.w3.org/1999/xlink">
            <path d="m 13.427,18.776 v 0.288 h 0.142 v -0.315 z m -0.107,0.288 v -0.268 l -0.153,0.028 v 0.24 z m 0.695001,1.886998 a 0.30599998,0.35600002 0 0 1 -0.306,0.356 0.30599998,0.35600002 0 0 1 -0.306,-0.356 0.30599998,0.35600002 0 0 1 0.306,-0.356 0.30599998,0.35600002 0 0 1 0.306,0.356 z m -2.605,-1.625999 h 0.142 v 0.533 h -0.142 z m -0.260002,0 h 0.153 v 0.533 h -0.153 z m 5.621,-0.302999 a 0.39999999,0.4 0 0 0 -0.1,-0.288 l -0.055,-0.026 h -0.013 c -0.063,0 -0.119001,0.068 -0.148001,0.166 l 0.316,0.172 z m 0.779,1.663999 c 0.1,0 0.178001,-0.144999 0.178001,-0.315999 0,-0.171 -0.082,-0.315001 -0.178001,-0.315001 -0.096,0 -0.177,0.144001 -0.177,0.315001 0,0.171 0.081,0.315999 0.177,0.315999 z m -0.269,-0.659 h -0.089 v -0.011 a 0.333,0.333 0 0 0 -0.141,0.308001 c 0,0.170999 0.082,0.316 0.178,0.316 a 0.14399999,0.14399999 0 0 0 0.112001,-0.073 0.55299999,0.553 0 0 1 -0.034,-0.200001 0.52799999,0.52799999 0 0 1 0.057,-0.247999 0.22999999,0.23 0 0 0 -0.08301,-0.09201 z m -3.572,0.498001 a 0.36,0.36 0 0 1 0.291,0.155 0.29499999,0.295 0 0 0 -0.581,0 0.36,0.36 0 0 1 0.29,-0.155 z M 13.151,18.034 v 0.134 l 0.697,-0.195 0.206,-0.046 0.002,-0.005 -0.852,0.028 z m 0.969999,-1.156 0.124001,0.037 0.077,0.042 -0.174,-0.463 -1.465,-0.4 -0.018,-0.152 1.421,0.39 -0.386,-1.022 -1.1,0.125 -0.121,-1.016 0.368,-0.063 0.224001,-0.076 0.023,-0.12 -1.409001,-0.374001 -0.361999,0.04 -0.150001,0.02899 v 0.057 l 0.023,0.093 0.765,0.275 0.122,1.215 -0.693,0.079 -0.043,0.006 0.766001,0.21 0.015,0.151 -0.932,-0.255 v 0.206999 a 0.143,0.14299999 0 0 0 0.100001,0.137 l 0.864999,0.260001 0.034,0.334999 0.092,0.03 0.011,0.374 0.334,0.1 z m -0.721,-0.218001 -0.636,0.087 -0.034,-0.289 z M 5.6689999,11.367 l 1.764,-0.051 -0.214,-0.511 -1.674,0.057 z m 1.313,-0.467 0.145,0.341 -1.192,0.034 -0.084,-0.336999 z M 5.843,16.868 V 16.754 L 5.735,16.625 v 0.243 z m 3.209,0.504 v -0.264 l -0.23,0.02 v 0.275 z m -2.268,0.283 v -0.327 l -0.219,0.03 v 0.323 z m -0.8,-0.95 0.35,0.476 -0.051,-2.106 v -1.357 l -0.596,-0.579 -0.002,3.159 0.284,0.387 0.015,0.018 z M 5.774,13.04 6.38,13.501 9.155,13.383 8.369,12.945 Z m 3.429,1.709 v -1.113 l -2.778,0.12 v 1.168 z M 8.68,16.998 8.744,16.992 9.203,16.948 v -2.057 l -2.776,0.175 0.04,2.147 0.379,-0.037 0.08,-0.011 v 0.003 z M 6.6749999,7.5 H 2.887 l 0.059,3.359 3.7289999,-0.575 z m -0.192,2.678999 -3.3509999,0.516 -0.053,-3.0209991 3.3999999,-0.007 z M 2,2.106 V 21.894 H 21.999999 V 2.106 Z M 21.751999,21.645 H 2.248 V 2.3549999 H 21.747999 Z M 15.963,18.602 16.07,18.66 h 0.449 l -0.065,-0.031 z m 2.188999,0.244999 A 0.67499998,0.675 0 0 0 17.525,18.377 h -0.753001 l 0.031,0.269999 v 0.153 h -0.005 a 0.56199999,0.56199999 0 0 1 0.044,0.226 c 0,0.02 0,0.04 0,0.06 l 0.11,0.061 a 0.51399999,0.514 0 0 0 0.02598,-0.162 0.36499999,0.365 0 0 0 -0.117,-0.3 h 0.666 a 0.38999999,0.38999999 0 0 1 0.362001,0.272 l 0.935999,2.668 c 0,0.0081 0,0.016 0.006,0.02299 h 0.285 a 0.46,0.45999999 0 0 0 -0.025,-0.131 z M 6.2559999,18.951 a 0.43599999,0.43599999 0 0 1 0.394,-0.269 h 4.7369991 l 1.016,-0.3 H 6.6499999 a 0.71999998,0.71999999 0 0 0 -0.65,0.439 l -1.166,2.66 v 0 a 0.44599999,0.446 0 0 0 -0.038,0.164 h 0.284 a 0.162,0.162 0 0 1 0.01,-0.034 z M 18.151999,9.4 A 3.187,3.1869999 0 0 0 17.715,9.228 0.48999999,0.48999999 0 0 0 17.569999,9.2119995 V 7.4199999 l -3.57,0.08 V 10.291 l 1.986,0.319 a 3.107,3.107 0 0 0 -1.229,0.6 c -0.044,0.036 -0.086,0.073 -0.126,0.112 H 10.65 v -1.034001 h 3.231999 V 7.5 H 6.7669999 v 2.791 h 3.1619999 v 1.027 h -2.343 l 0.058,0.136999 -2.0849998,0.06 -0.049,-0.2 H 4.658 l -0.7290001,0.459 v 0.147 H 14.166 c -0.019,0.03499 -0.037,0.07099 -0.054,0.106999 H 3.9299999 v 0.215001 h 0.7 v 5.4 l -0.322,0.621 h 0.644 l 0.576,-1.288 -0.328,-0.018 -0.045,-4.723001 8.8670004,-0.007 a 6.5999999,6.5999999 0 0 0 -0.165001,2.93 c 0,0.016 0.014,0.13 0.045,0.300001 l 0.57,1.512 h -0.1 v 0.161 l -0.087,0.014 -0.019,0.732 -0.094,0.0059 -0.034,0.132 -0.266999,0.05899 -2.555,0.714 -0.032,0.389999 H 11.437 l -0.026,-0.138 2.516999,-0.471999 0.278001,0.104999 -0.520001,1.227 v 0.408001 l 0.194,0.027 0.034,-0.246999 v -0.007 l 0.562999,-1.349 0.385001,-0.072 2.320999,1.100001 0.074,0.158999 h 0.2 l -0.029,-0.391 -1.928,-1.058 0.981,0.054 0.215,0.105 -0.04,-0.328 -1.926,-0.293999 -0.021,-0.120001 h -0.081 l -0.023,-0.725 -0.088,-0.02899 v -0.107 a 2.1759999,2.176 0 0 0 0.204999,0.243001 1.168,1.1679999 0 0 0 0.339,0.245999 v 0.0059 l 0.339001,0.479 0.633,0.1 -0.378,-0.472999 v -0.032 a 3.743,3.7429999 0 0 0 0.725,-0.192999 2.494,2.494 0 0 0 0.999999,-0.467001 c 0.311,-0.321001 0.250001,-0.751 0.158001,-1.4 a 8.5049998,8.505 0 0 1 -0.111001,-1.606 5.8369999,5.837 0 0 1 0.473,-2.089 v 0 c 0.04101,-0.1 0.077,-0.193 0.106,-0.276001 a 0.081,0.081 0 0 0 0.018,0.019 c 0.058,0.04699 0.139,-0.027 0.3,-0.034 a 0.44699999,0.447 0 0 1 0.356,0.115 c -0.009,0.045 -0.562,-0.122 -0.678,0.069 -0.03,0.049 -0.031,0.125 0,0.149 0.031,0.024 0.131,-0.051 0.264001,-0.092 0.217999,-0.066 0.457999,0.01699 0.459999,0.069 0,0.079 -0.531999,0.052 -0.678,0.357 -0.048,0.1 -0.053,0.231001 -0.012,0.253 0.041,0.022 0.118,-0.075 0.230001,-0.173 a 1.0519999,1.0520001 0 0 1 0.574999,-0.299999 c 0.034,0.049 -0.659999,0.474999 -0.574999,0.699999 a 0.188,0.18800001 0 0 0 0.172999,0.1 0.26499999,0.265 0 0 0 0.176,-0.11 c -0.051,0.084 -0.1,0.186999 -0.061,0.248 0.027,0.04499 0.076,0.026 0.126,0.081 0.078,0.08299 0.036,0.2 0.05299,0.254 a 0.64799998,0.648 0 0 1 -0.474,0.121 3.2999999,3.3 0 0 0 -0.437,-0.172001 c -0.145999,-0.032 -0.193,-0.014 -0.219,0.01099 a 0.166,0.166 0 0 0 0,0.219 c 0.058,0.04699 0.139,-0.027 0.3,-0.03499 a 0.456,0.456 0 0 1 0.357001,0.115 c -0.01,0.046 -0.563001,-0.121 -0.679,0.069 -0.03,0.05 -0.031,0.126 0,0.15 0.031,0.024 0.131,-0.051 0.265,-0.092 0.217,-0.067 0.456999,0.01699 0.459999,0.069 0,0.079 -0.531999,0.051 -0.678999,0.356 -0.048,0.1 -0.05299,0.232 -0.011,0.252999 0.042,0.02101 0.117,-0.074 0.230001,-0.171999 a 1.046,1.0460001 0 0 1 0.574999,-0.3 c 0.034,0.049 -0.661,0.474999 -0.574999,0.699999 a 0.125,0.125 0 0 0 0.022,0.037 v 1.911 a 3.6349999,3.635 0 0 1 0.04,0.528001 0.26699999,0.26699999 0 0 0 0.219,0.255 6.5689999,6.569 0 0 0 1.78,0.066 0.30799999,0.308 0 0 0 0.273,-0.3 v -2.500001 a 0.319,0.319 0 0 0 -0.321,-0.32 l -0.148,0.02299 a 1.205,1.205 0 0 0 0.454001,-0.713 0.374,0.374 0 0 0 0.254999,0.1 c 0.167,-0.014 0.273001,-0.221 0.311,-0.2 0.038,0.02099 -0.105,0.2 -0.058,0.391 0.043,0.174999 0.230001,0.3 0.288,0.265 0.058,-0.03499 -0.022,-0.178 0.069,-0.276001 0.05001,-0.055 0.1,-0.036 0.126001,-0.081 0.037,-0.061 -0.01,-0.164 -0.061,-0.248 a 0.26499999,0.265 0 0 0 0.176,0.109999 0.188,0.18800001 0 0 0 0.173,-0.1 c 0.085,-0.226999 -0.609,-0.652999 -0.575,-0.699999 a 1.0519999,1.0520001 0 0 1 0.575,0.3 c 0.112001,0.1 0.188,0.194 0.230001,0.173 0.042,-0.021 0.036,-0.154 -0.012,-0.253 -0.146,-0.3 -0.682,-0.278001 -0.678,-0.357 0,-0.05201 0.242,-0.135 0.46,-0.069 0.133,0.04099 0.220001,0.125999 0.264,0.092 0.044,-0.034 0.03,-0.1 0,-0.148999 -0.115999,-0.191001 -0.669,-0.024 -0.678,-0.069 a 0.44699999,0.447 0 0 1 0.356,-0.115 c 0.160001,0.007 0.241,0.081 0.3,0.034 a 0.164,0.164 0 0 0 0,-0.218001 c -0.026,-0.026 -0.073,-0.044 -0.218,-0.012 a 3.0389999,3.039 0 0 0 -0.436999,0.173001 0.71399998,0.71399999 0 0 1 -0.506001,-0.138 c -0.042,-0.022 -0.088,-0.04601 -0.138,-0.07001 0.152001,-0.213001 0.261,-0.482999 0.17,-0.623001 -0.158,-0.242999 -0.852,0.0091 -0.886,-0.114999 -0.019,-0.073 0.2,-0.238 0.439,-0.273001 a 0.40999999,0.41000001 0 0 0 0.311001,0.158001 0.29099999,0.291 0 0 0 0.149999,-0.06499 0.84999999,0.85 0 0 0 0.111,0.055 0.417,0.417 0 0 0 -0.008,0.206 c 0.043,0.175 0.23,0.3 0.288001,0.264 0.058,-0.036 -0.022,-0.178 0.069,-0.276001 0.04999,-0.055 0.1,-0.03499 0.125999,-0.08 0.037,-0.061 -0.01,-0.165001 -0.061,-0.249 a 0.26299999,0.263 0 0 0 0.176,0.111 0.18899999,0.189 0 0 0 0.173,-0.1 c 0.085,-0.226 -0.609,-0.653 -0.575,-0.700001 a 1.066,1.066 0 0 1 0.575,0.300001 c 0.112,0.1 0.188,0.194 0.23,0.171999 0.042,-0.022 0.036,-0.153999 -0.012,-0.253 -0.146,-0.299999 -0.682,-0.277999 -0.677999,-0.356999 0,-0.052 0.241999,-0.135 0.459999,-0.069 0.133,0.04099 0.22,0.127 0.264,0.092 0.044,-0.03499 0.03,-0.1 0,-0.148999 -0.116,-0.1910008 -0.669,-0.024 -0.677999,-0.069 a 0.44699999,0.447 0 0 1 0.351999,-0.1110007 c 0.16,0.00704 0.241,0.081004 0.3,0.033996 a 0.164,0.164 0 0 0 0,-0.2179996 c -0.026,-0.026 -0.073,-0.043 -0.218,-0.012 a 3.2999999,3.3 0 0 0 -0.437006,0.1729997 0.70999999,0.71 0 0 1 -0.506,-0.1379997 c -0.125,-0.066 -0.293,-0.1469999 -0.472,-0.2199999 a 0.29999999,0.3 0 0 0 -0.022,-0.2280001 c -0.157999,-0.2429999 -0.852,0.009 -0.885,-0.1149999 -0.022,-0.077 0.226,-0.2590001 0.482,-0.278 a 0.65999999,0.65999999 0 0 1 0.116,0 c 0.272,0.026 0.4,0.191 0.460001,0.1489999 0.045,-0.031 0.04999,-0.175 -0.023,-0.2529999 -0.216997,-0.2260002 -1.099997,0.1479999 -1.517997,0.368 a 0.70899999,0.709 0 0 1 -0.508,0.1379996 z M 6.9739999,10.067 V 7.6670001 H 13.658999 V 10.067 Z m 1.026,1.625999 0.265,-0.252999 h 3.1909991 l 0.242,0.252999 z m 4.6929991,0 c -0.052,0.114 -0.366,0.131001 -0.448999,0 a 0.205,0.205 0 0 1 -0.011,-0.181998 0.192,0.192 0 0 1 0.04401,-0.063 0.038,0.038 0 0 1 0.017,-0.0081 l 0.04701,-0.006 0.093,0.1 0.04,-0.021 -0.07701,-0.08299 0.062,-0.0091 h 0.007 a 0.264,0.264 0 0 1 0.158,0.07699 c 0.043,0.04099 0.094,0.132 0.066,0.195 z m 6,0.879001 0.007,-0.01099 z m 2.317,0.819 -0.01,-0.01099 z m 0,-2.372 -0.01,-0.01099 z m -3.44,-1.55 a 1.107,1.107 0 0 1 0.226,-0.048 0.45099999,0.45099999 0 0 1 0.356,0.1149999 c -0.008,0.038 -0.385,-0.069 -0.582,0 z m 0,0.27 A 0.96299998,0.96299999 0 0 1 17.738,9.6629994 c 0.217999,-0.067001 0.457999,0.016999 0.459999,0.069 0,0.071 -0.436999,0.056 -0.628,0.2799998 z m -3.382,0.426 V 7.672 l 3.191,-0.072 V 10.572 a 1.964,1.964 0 0 0 -0.233,-0.045 2.7,2.7 0 0 0 -0.355999,-0.022 3.3999999,3.4 0 0 0 -0.349001,0.019 z m -0.072,4.845 -0.018,-0.216 h 0.074 a 0.44599999,0.446 0 0 0 0.075,-0.0091 0.67599999,0.676 0 0 1 0.238,-0.006 l 0.054,0.01 0.013,0.172 c 0,0.013 0.01,0.111 0.032,0.257001 l -0.439,0.024 c -0.02,-0.134 -0.028,-0.219 -0.029,-0.232 z m 0.405,1.484 c -0.022,-0.044 -0.043,-0.08899 -0.063,-0.134 l 0.425999,-0.08299 c 0.021,0.043 0.042,0.086 0.065,0.128 z m 1.153,-0.24 -0.552,0.115 v 0 c -0.026,-0.04 -0.051,-0.082 -0.074,-0.125 l 0.08,-0.015 0.552,-0.108001 1.283,-0.252 a 0.91199998,0.912 0 0 1 -0.034,0.124 z m 0.874,0.184 c -0.085,0.05 -0.187,0.1 -0.314,0.156 a 1.2789999,1.2790001 0 0 1 -0.528,0.159 h -0.039 a 0.59199999,0.592 0 0 1 -0.208,-0.054 l 0.209,-0.05 z m -1.823,-1.231 -0.006,-0.03499 0.100001,0.0091 c 0.06,0 0.123999,0 0.2,0 h 0.055 v 0 z m 0.408,-0.02299 z m 1.513001,0.408 a 0.86799999,0.86799999 0 0 0 0.033,-0.327001 0.68399999,0.68399999 0 0 1 -0.1,0.309 l -0.4,-0.108999 a 0.60799999,0.608 0 0 0 0.269,-0.200001 0.59999999,0.6 0 0 0 0.093,-0.316999 l 0.045,-0.014 0.061,-0.021 v 0 l 0.051,-0.02 c 0.04999,-0.019 0.094,-0.037 0.135999,-0.055 l 0.089,-0.038 0.01,0.1 0.014,0.139 a 4.3589999,4.359 0 0 1 0.037,0.642999 z m 0.246999,-1.647001 -0.048,0.01501 c -0.052,0.01699 -0.106,0.033 -0.159,0.048 l -0.095,0.027 v 0 l -0.024,0.007 -0.069,0.01699 a 3.9499999,3.95 0 0 1 0.142999,-0.693 c 0.06201,-0.22 0.100001,-0.365 0.031,-0.508 a 0.43499999,0.43499999 0 0 0 -0.331,-0.223 0.70799999,0.708 0 0 0 -0.113001,-0.0091 0.93699998,0.93699999 0 0 0 -0.505,0.161999 1.046,1.0460001 0 0 0 -0.213,0.186 1.8299999,1.83 0 0 0 -0.354,1.118 c 0,0.05899 0,0.117 0,0.174999 h -0.061 -0.072 v -0.072 a 3.1999999,3.1999999 0 0 1 0.159,-1.311999 1.373,1.3729999 0 0 1 0.227001,-0.378002 1.1,1.1 0 0 1 0.961999,-0.385999 0.63199998,0.63199999 0 0 1 0.27,0.108 0.50899999,0.509 0 0 1 0.164,0.189999 0.49999999,0.5 0 0 1 0.054,0.231001 c 0.05899,-0.200001 0.076,-0.300001 0.018,-0.400001 a 0.43499999,0.43499999 0 0 0 -0.236,-0.184 0.79299998,0.793 0 0 0 -0.14,-0.038 h -0.021 a 1.021,1.021 0 0 0 -0.138999,-0.01 1.119,1.1190001 0 0 0 -0.152001,0.01 1.289,1.2890001 0 0 0 -1,0.707 3.007,3.007 0 0 0 -0.214,1.468 v 0.073 h -0.072 -0.165 -0.084 v -0.068 a 3.8759999,3.876 0 0 1 0.326001,-1.983001 1.9939999,1.994 0 0 1 0.128,-0.2 c 0.027,-0.037 0.05599,-0.072 0.085,-0.106999 l 0.013,-0.014 a 1.661,1.6609999 0 0 1 0.639999,-0.443001 1.3819999,1.382 0 0 1 0.715,-0.08899 0.78499998,0.78499999 0 0 1 0.600001,0.399999 1.076,1.076 0 0 1 -0.032,0.837001 5.0269999,5.0270001 0 0 0 -0.229,1.293 z m 0.317001,2.730001 a 1.921,1.921 0 0 1 -0.850001,0.471 2.3799999,2.38 0 0 1 -0.7,0.188999 h -0.06 a 0.93899998,0.939 0 0 1 -0.413999,-0.092 1.0329999,1.033 0 0 1 -0.283001,-0.2 c -0.025,-0.024 -0.05,-0.05 -0.075,-0.079 -0.025,-0.02899 -0.052,-0.062 -0.077,-0.09401 l 0.365,-0.087 0.087,-0.02 a 0.68199999,0.68199999 0 0 0 0.167999,0.127 0.56899999,0.569 0 0 0 0.294001,0.06 1.774,1.774 0 0 0 0.558999,-0.164999 1.58,1.5799999 0 0 0 0.664,-0.374001 0.71599998,0.716 0 0 0 0.042,-0.05899 l 0.43,-0.1 v -0.351999 l -0.32,0.067 c 0,-0.037 0,-0.076 0,-0.115999 l 0.33,-0.06499 -0.336,-0.091 c -0.009,-0.13 -0.026,-0.274 -0.044,-0.435001 -0.026,-0.220999 -0.059,-0.499999 -0.072,-0.807 v -0.014 -0.013 a 0.22799999,0.22799999 0 0 1 0.058,-0.1 0.23999999,0.24 0 0 1 0.274,-0.074 l 0.057,0.01699 v 0.051 a 9.1999998,9.1999999 0 0 0 0.082,0.930999 c 0.084,0.614001 0.139001,1.049001 -0.178999,1.424001 z m 0.444001,-4.381001 a 5.2819999,5.282 0 0 0 -0.324,1.434 v 0.04 l -0.036,0.018 a 2.5879999,2.588 0 0 1 -0.273,0.115001 l -0.1,0.037 v -0.107 a 5.6739999,5.674 0 0 1 0.317999,-1.588 c 0.116,-0.353 0.18,-0.547001 0.07099,-0.733 a 0.76699998,0.76699999 0 0 0 -0.563,-0.325 1.478,1.478 0 0 0 -0.235999,-0.018 1.96,1.96 0 0 0 -0.879,0.215001 1.918,1.918 0 0 0 -0.479001,0.345 1.714,1.714 0 0 0 -0.169,0.194 c -0.026,0.03499 -0.051,0.07099 -0.074,0.106999 a 1.876,1.8760001 0 0 0 -0.113999,0.200001 4.1329999,4.1329999 0 0 0 -0.296001,1.972 v 0.07699 h -0.077 c -0.108999,-0.0049 -0.209,-0.012 -0.305999,-0.02299 l -0.061,-0.006 v -0.061 a 4.5539999,4.554 0 0 1 0.265,-1.953999 c 0.029,-0.068 0.061,-0.135001 0.1,-0.2 0.019,-0.036 0.039,-0.072 0.06,-0.107 a 2.2419999,2.242 0 0 1 0.392999,-0.486 q 0.067,-0.063 0.141,-0.12 a 2.552,2.5519999 0 0 1 1.824001,-0.521 1.161,1.161 0 0 1 0.866,0.479 c 0.194999,0.313 0.086,0.622 -0.051,1.015999 z m 1.446,2.511 h -0.15 v -0.105001 a 0.41999999,0.41999999 0 0 0 0.15,-0.074 z M 19.286,14.320006 a 0.159,0.15899999 0 0 0 0,-0.038 0.32199999,0.322 0 0 0 -0.184001,-0.211 1.739,1.739 0 0 1 -0.15,-0.091 0.137,0.137 0 0 1 -0.06799,-0.111999 0.188,0.18800001 0 0 1 0.06799,-0.122 0.42599999,0.42600001 0 0 1 0.15,-0.09 0.286,0.286 0 0 1 0.207001,-0.007 c 0.215999,0.092 0.119999,0.546 0.238999,0.642 -0.085,0.0091 -0.173,0.02099 -0.266,0.029 z m -0.300001,-1.679 c 0.02,-0.013 0.06,0.04 0.119,0.094 a 0.38699999,0.387 0 0 0 0.143,0.092 1.539,1.539 0 0 0 0.110001,0.166 c -0.087,0.033 -0.172001,0.068 -0.253001,0.1 l -0.115,0.05299 a 0.37299999,0.373 0 0 0 0.054,-0.118 c 0.03799,-0.186001 -0.103,-0.361999 -0.067,-0.387 z m 1.014,0.589 a 0.25899999,0.259 0 0 0 0,0.068 c -0.255,-0.079 -0.73,0.074 -0.758,-0.028 -0.012,-0.044 0.064,-0.123001 0.18,-0.186001 0.107001,0.117001 0.219,0.191 0.289,0.169 0.07,-0.022 0.086,-0.134 0.100001,-0.260999 h 0.029 a 0.74499999,0.745 0 0 1 0.265,0.07699 0.251,0.25099999 0 0 0 -0.105,0.161 z m -0.02,-0.630001 c 0.158,-0.068 0.42,0.086 0.425,0.218001 0,0.052 -0.036,0.091 -0.089,0.127 a 0.23199999,0.232 0 0 0 -0.035,-0.05299 c -0.079,-0.082 -0.246,-0.085 -0.446,-0.045 a 0.29999999,0.3 0 0 1 0.145,-0.247001 z m -0.08,-0.343999 c -0.092,0 -0.219,-0.02299 -0.343,-0.02899 -0.118,-0.07699 -0.260999,-0.128 -0.257999,-0.228 a 0.167,0.167 0 0 1 0.006,-0.02899 0.72399998,0.724 0 0 1 0.134,-0.026 0.65999999,0.65999999 0 0 1 0.116001,0 0.76899998,0.76899999 0 0 1 0.316999,0.1 c 0.012,0.069 0.018,0.144 0.028,0.21 z m -0.175,-0.475001 a 0.219,0.21900001 0 0 1 0.112001,0.126 2.983,2.983 0 0 0 -0.356001,-0.1 0.30999999,0.31 0 0 1 0.244,-0.028 z m 0.275,-2.0169991 c 0.03,0.032 0.045,0.061 0.039,0.082 -0.006,0.020999 -0.04401,0.036 -0.1,0.037 a 1.313,1.313 0 0 0 0.061,-0.1190003 z m -1.051999,-0.087 v -0.095 h 0.149999 v 0.107 c 0.024,-0.013001 0.052,-0.029 0.084,-0.044 l 0.019,0.006 a 0.27,0.27 0 0 1 0.136999,0.2099999 0.26099999,0.261 0 0 0 -0.184,0.1000001 0.292,0.292 0 0 0 -0.023,0.2199992 0.26499999,0.265 0 0 0 -0.033,-0.034 0.91099999,0.911 0 0 0 -0.149999,-0.1 c -0.092,-0.052997 -0.175001,-0.099999 -0.172001,-0.1769992 0.003,-0.077 0.076,-0.147 0.17,-0.1930001 z m 0,0.9809983 a 0.53199999,0.532 0 0 0 0.149999,-0.134 0.372,0.372 0 0 0 0.081,-0.193999 c 0.122,0.287 0.4,0.594 0.538,0.552 0.159,-0.05001 0.035,-0.558 0.265,-0.656 0.158,-0.067 0.42,0.08601 0.425,0.217999 0.007,0.161001 -0.369999,0.195001 -0.4,0.415001 a 0.288,0.28800001 0 0 0 0.036,0.17 5.2539999,5.254 0 0 0 -0.855,0.358999 l -0.088,0.04699 a 1.342,1.342 0 0 1 -0.15,0.069 0.44399999,0.444 0 0 1 -0.268,0.022 3.0389999,3.039 0 0 0 -0.437,-0.173 0.42199999,0.42199999 0 0 0 -0.17,-0.013 0.47899999,0.479 0 0 0 -0.06799,-0.4 0.91499999,0.915 0 0 0 -0.433,-0.306 v -0.313 c 0.042,-0.031 0.1,-0.09201 0.167999,-0.152999 a 1.0519999,1.0520001 0 0 1 0.575,-0.3000002 c 0.034,0.049 -0.66,0.4749992 -0.575,0.6999992 a 0.18699999,0.187 0 0 0 0.173001,0.1 0.26499999,0.265 0 0 0 0.175999,-0.11 c -0.051,0.084 -0.1,0.187 -0.061,0.248 0.027,0.045 0.076,0.026 0.125999,0.081 0.092,0.1 0.016,0.246 0.069,0.276 0.05299,0.03 0.245,-0.09 0.288,-0.265 0.047,-0.191 -0.094,-0.367 -0.057,-0.391001 0.037,-0.024 0.142999,0.182 0.309999,0.200001 a 0.323,0.323 0 0 0 0.18,-0.049 z m -0.771001,-0.225 -0.007,0.012 z m 0.643,-4.278004 h -0.35 l -0.34,-0.625 c 0.212,-0.343 0.282,-0.7600001 0.131,-0.886 -0.191,-0.161 -0.757,0.1259999 -1.047999,0.541 -0.205001,0.2909999 -0.362001,0.771 -0.193,0.9199999 0.168999,0.1490001 0.655999,-0.057 0.933999,-0.347 a 0.76999999,0.76999999 0 0 0 0.054,-0.06 l 0.427,0.457 h -1.959001 l -0.325,-0.5820001 -0.044,-0.557 a 1.162,1.1619999 0 1 0 -0.776,-0.008 l -0.077,0.511 -0.467999,0.636 H 13.32 V 4.8829999 H 12.455999 V 6.155 h -0.975 v 0.621 h 7.339 z M 16.036,4.1309999 H 15.460999 L 15.378003,4.689 a 0.85099998,0.85099999 0 1 1 0.7,0 z M 8.9999999,4.529 h -2.24 l 0.214,-0.329 V 3.3639999 l -0.3,-0.4599999 h -0.7 l -0.383,0.5 v 0.8199999 l 0.294,0.306 h -0.744 V 2.506 h -0.506 v 2.023 h -0.169 V 2.651 h -0.222 V 4.529 H 4.022 V 2.973 H 3.738 V 4.529 H 3.6 V 2.805 H 3.332 V 4.529 H 3.1939999 V 2.6129999 H 2.987 V 4.529 H 2.8 V 3.2 H 2.413 V 4.529 H 2.248 V 5.5729999 H 8.9999999 Z M 8.6449998,5.219 H 2.413 V 4.8829999 h 6.2319998 z"/>

</svg>