<svg xmlns="http://www.w3.org/2000/svg" viewBox="0 0 24 24"><path fill="#44739e" d="M2 12V2h20v20H2Zm7.93 6.621c.908-.24 1.75-.902 2.129-1.675.224-.454.293-.734.292-1.175 0-.714-.21-1.213-.72-1.72-.363-.361-.633-.531-1.086-.686-1.579-.54-3.424.233-4.133 1.73a2.49 2.49 0 0 0 .182 2.423c.383.562 1.022.98 1.748 1.145.324.074 1.242.05 1.588-.042m.449-2.21c-.242-.075-.372-.253-.372-.512 0-.469.579-.687.902-.341.141.15.173.338.092.541a.506.506 0 0 1-.622.312m5.884.964c1.93-.42 3.056-2.349 2.282-3.91-.629-1.27-2.22-1.835-3.772-1.34-1.214.387-2.111 1.464-2.175 2.609-.076 1.337.933 2.461 2.422 2.698.269.043.921.013 1.243-.057m-2.033-1.732c-.497-.254-.345-.986.203-.986.55-.001.742.73.259.978-.184.094-.29.096-.463.008Zm-1.94-2.898c.425-.128.782-.242.793-.253s-.026-.525-.085-1.139-.099-1.125-.089-1.135c.009-.008 1.059.381 2.331.867 1.273.487 2.327.869 2.343.851.035-.042.595-1.506.58-1.517-.005-.005-.951-.366-2.1-.802s-2.094-.794-2.098-.797.783-.356 1.75-.783c.968-.429 1.767-.792 1.775-.806.026-.042-.536-1.286-.581-1.286-.021 0-.978.441-2.127.978-1.149.539-2.093.974-2.099.967a43 43 0 0 1-.12-1.233c-.061-.672-.123-1.242-.138-1.265-.018-.031-.283.006-.9.128-.863.17-.872.172-.867.269.002.053.178 1.693.39 3.642.249 2.286.4 3.546.428 3.546.023 0 .39-.105.814-.232m-3.702-.064c.848-.222 1.573-.959 1.898-1.93.12-.359.125-.396.126-1.036.001-.78-.058-1.048-.36-1.638-.148-.29-.25-.423-.554-.726-.565-.564-1.06-.781-1.78-.781-.701 0-1.22.22-1.741.739a3.6 3.6 0 0 0-.497.608 3.5 3.5 0 0 0-.436 2.09c.175 1.468 1.128 2.542 2.439 2.749.184.028.655-.011.905-.075"/></svg>