<svg role="img" viewBox="0 0 24 24" xmlns="http://www.w3.org/2000/svg"><title>Okoo-alt</title>
    <path
       d="m 5.6511558,15.599814 c -0.0294,-0.44431 -0.25682,-6.68774 -0.24408,-6.70049 0.017,-0.017 1.64682,-0.22052 1.66026,-0.20735 0.006,0.005 0.0214,0.54783 0.0352,1.20534 0.0138,0.65751 0.0329,1.20322 0.0424,1.2127 0.009,0.009 0.94103,-0.33839 2.07011,-0.77304 1.1290802,-0.43465 2.0618802,-0.79003 2.0728802,-0.78975 0.0201,5.2e-4 0.46647,1.21815 0.45097,1.2301 -0.005,0.003 -0.785,0.28726 -1.73436,0.63059 -0.9493502,0.34332 -1.7261002,0.63222 -1.7261002,0.642 0,0.0187 0.0504,0.0424 2.3907702,1.12514 0.80966,0.37457 1.47205,0.69161 1.47197,0.70453 -2.8e-4,0.0465 -0.62838,1.362 -0.64838,1.35799 -0.0163,-0.003 -3.2720602,-1.50561 -4.0928602,-1.88862 -0.1086,-0.0507 -0.2026,-0.087 -0.2089,-0.0807 -0.006,0.006 -8.5e-4,0.50045 0.0121,1.09811 0.0129,0.59766 0.0218,1.08908 0.0196,1.09204 -0.003,0.005 -1.53478,0.35863 -1.55127,0.35863 -0.003,0 -0.0124,-0.0978 -0.0203,-0.21724 z m -3.53985,-0.26395 c -1.05509,-0.2003 -1.88104004,-1.128 -2.07734004,-2.33323 -0.0453,-0.27826 -0.0453,-0.80085 9e-5,-1.06083 0.17326,-0.9928 0.74758,-1.80217 1.55133004,-2.18622 0.36819,-0.17593 0.56554,-0.2198 0.98635,-0.21927 0.36203,4.7e-4 0.48783,0.0212 0.78136,0.12903 0.71677,0.26323 1.31219,0.91829 1.58918,1.74837 0.20633,0.61834 0.20119,1.39746 -0.0136,2.05489 -0.13347,0.40861 -0.41173,0.86226 -0.71285,1.16215 -0.32559,0.32427 -0.67782,0.53455 -1.104,0.65908 -0.2662,0.0778 -0.7227,0.0988 -1.00057,0.046 z m 12.4257502,-1.28177 c -0.9579,-0.10477 -1.76289,-0.63604 -2.15761,-1.42396 -0.24267,-0.48442 -0.28356,-1.15675 -0.10318,-1.69661 0.33688,-1.00823 1.26981,-1.74817 2.44839,-1.94192 0.35608,-0.0585 0.89577,-0.0333 1.25291,0.0587 0.78787,0.20278 1.43872,0.71666 1.74369,1.37672 0.15458,0.33458 0.18595,0.49421 0.18467,0.93978 -0.001,0.47829 -0.0363,0.63426 -0.23184,1.03407 -0.34429,0.70411 -0.96705,1.22978 -1.77814,1.50093 -0.421,0.14074 -0.9365,0.19853 -1.35889,0.15234 z m 6.05902,-0.79816 c -1.31656,-0.1649 -2.29529,-1.1128 -2.36464,-2.29017 -0.0666,-1.13106 0.7472,-2.20697 1.97711,-2.61385 0.155,-0.0513 0.38637,-0.11064 0.51415,-0.13193 0.29421,-0.049 0.80232,-0.0494 1.07713,-9.3e-4 1.11337,0.19658 1.96111,0.95774 2.16416,1.94313 0.0463,0.22454 0.0483,0.63838 0.004,0.86785 -0.0964,0.50208 -0.33583,0.9339 -0.74005,1.3348 -0.56548,0.56085 -1.32033,0.87685 -2.1586,0.90365 -0.16355,0.005 -0.37661,-4.2e-4 -0.47346,-0.0126 z"
       fill="#44739e" />
</svg>
