<?xml version="1.0" encoding="UTF-8" standalone="no"?>
<svg
   width="24"
   height="24"
   viewBox="0 0 24 24"
   version="1.1"
   xmlns="http://www.w3.org/2000/svg"
   xmlns:svg="http://www.w3.org/2000/svg">
  <path
     style="fill:#44739e"
     d="M 5.15735,7.38112 C 3.41691,7.38112 2,8.79797 2,10.53841 c 0,1.74043 1.41691,3.15728 3.15735,3.15728 0.0925,0 0.18377,-0.005 0.27423,-0.0126 0.11424,1.63745 1.48273,2.93579 3.14863,2.93579 1.66582,0 3.03433,-1.29821 3.14869,-2.93555 0.0894,0.008 0.17972,0.0124 0.2711,0.0124 0.0914,0 0.18166,-0.005 0.2711,-0.0124 0.11436,1.63734 1.48287,2.93555 3.14869,2.93555 1.6659,0 3.03439,-1.29834 3.14863,-2.93579 0.0905,0.008 0.18178,0.0126 0.27423,0.0126 1.74044,0 3.15735,-1.41685 3.15735,-3.15728 0,-1.74044 -1.41691,-3.15729 -3.15735,-3.15729 -1.6659,0 -3.03439,1.29834 -3.14863,2.93579 -0.0905,-0.008 -0.18178,-0.0126 -0.27423,-0.0126 -0.0914,0 -0.1817,0.005 -0.27116,0.0124 C 15.03427,8.67937 13.66582,7.38116 12,7.38116 c -1.66582,0 -3.03427,1.29821 -3.14863,2.93555 -0.0895,-0.008 -0.17976,-0.0124 -0.27116,-0.0124 -0.0924,0 -0.18377,0.005 -0.27423,0.0126 C 8.19174,8.67946 6.82325,7.38112 5.15735,7.38112 Z m 0,0.55632 c 1.39817,0 2.5334,1.09513 2.59784,2.47696 -1.2365,0.33537 -2.17445,1.40478 -2.31397,2.70939 -0.0933,0.0101 -0.18789,0.0156 -0.28387,0.0156 -1.43977,0 -2.60097,-1.1612 -2.60097,-2.60097 0,-1.43977 1.1612,-2.60097 2.60097,-2.60097 z m 6.84265,0 c 1.39789,0 2.53297,1.09468 2.59784,2.4761 -1.23817,0.33446 -2.17769,1.40479 -2.31716,2.71068 -0.0922,0.01 -0.1858,0.0152 -0.28068,0.0152 -0.0949,0 -0.18847,-0.005 -0.28068,-0.0152 C 11.57985,11.81833 10.64033,10.748 9.40216,10.41354 9.46706,9.03212 10.60211,7.93744 12,7.93744 Z m 6.84265,0 c 1.43977,0 2.60097,1.1612 2.60097,2.60097 0,1.43977 -1.1612,2.60097 -2.60097,2.60097 -0.096,0 -0.19062,-0.006 -0.28387,-0.0156 -0.13952,-1.30461 -1.07747,-2.37402 -2.31397,-2.70939 0.0644,-1.38183 1.19967,-2.47696 2.59784,-2.47696 z M 8.58021,10.86058 c 0.0949,0 0.18851,0.005 0.28074,0.0152 0.13947,1.30588 1.07894,2.37621 2.3171,2.71067 -0.0649,1.38142 -1.19996,2.4761 -2.59784,2.4761 -1.39817,0 -2.5334,-1.09513 -2.59784,-2.47696 1.2365,-0.33537 2.17445,-1.40478 2.31397,-2.70939 0.0933,-0.0101 0.18789,-0.0156 0.28387,-0.0156 z m 6.83958,0 c 0.096,0 0.19062,0.006 0.28387,0.0156 0.13952,1.30461 1.07747,2.37402 2.31397,2.70939 -0.0644,1.38183 -1.19967,2.47696 -2.59784,2.47696 -1.39788,0 -2.53297,-1.09468 -2.59784,-2.4761 1.23816,-0.33446 2.17763,-1.40479 2.3171,-2.71067 0.0922,-0.01 0.18584,-0.0152 0.28074,-0.0152 z m -5.97816,0.14593 c 0.87177,0.3046 1.52915,1.05879 1.69695,1.98694 -0.87177,-0.3046 -1.52915,-1.05879 -1.69695,-1.98694 z m 5.11674,0 c -0.1678,0.92815 -0.82518,1.68234 -1.69695,1.98694 0.1678,-0.92815 0.82518,-1.68234 1.69695,-1.98694 z m -6.84284,10e-4 c -0.16791,0.9265 -0.8237,1.67953 -1.6935,1.98474 0.16791,-0.92649 0.82369,-1.67952 1.6935,-1.98474 z m 8.56894,0 c 0.86981,0.30522 1.52559,1.05825 1.6935,1.98474 -0.8698,-0.30521 -1.52559,-1.05824 -1.6935,-1.98474 z"
   />
</svg>
