<?xml version="1.0" encoding="UTF-8"?>
<svg width="24px" fill="#44739e" height="24px" viewBox="0 0 24 24" version="1.1" xmlns="http://www.w3.org/2000/svg" xmlns:xlink="http://www.w3.org/1999/xlink">
            <path d="M 5.864,10.71 A 9.65,9.65 0 0 0 6.409,7.7 H 6.364 A 10.85,10.85 0 0 0 4.53,10.172 6.977,6.977 0 0 0 4.818,8.2 7.553,7.553 0 0 0 3.477,10.025 4.954,4.954 0 0 0 3.727,8.473 5.786,5.786 0 0 0 2.5,10.341 4.9,4.9 0 0 0 2,12.523 4.6,4.6 0 0 0 2.938,11.274 8.156,8.156 0 0 0 2.5,13.568 8.178,8.178 0 0 0 3.77,11.909 9.736,9.736 0 0 0 3.227,15.023 10.82,10.82 0 0 0 5.035,12.605 13.071,13.071 0 0 0 4.227,16.932 14.291,14.291 0 0 0 7.319,12.386 14.25,14.25 0 0 0 8.546,7.068 L 8.5,7.113 A 13.872,13.872 0 0 0 5.864,10.71 Z M 13.49,9.407 a 2.945,2.945 0 0 0 -2.639,1.616 L 12.219,12 a 1.31,1.31 0 0 1 1.271,-0.953 1.326,1.326 0 1 1 0,2.652 1.309,1.309 0 0 1 -1.257,-0.925 l -1.368,0.967 A 2.961,2.961 0 1 0 13.49,9.407 Z m 6.811,0.138 v 3.026 L 18.56,9.545 h -1.644 v 5.65 h 1.699 V 12.17 l 1.741,3.025 H 22 V 9.545 Z M 8.586,10.402 v 3.951 l 2.776,-1.962 z"/>

</svg>