<svg role="img" viewBox="0 0 24 24" xmlns="http://www.w3.org/2000/svg"><title>One</title>
    <path
       d="m 2.5248253,15.627725 c -0.27908,-0.02 -0.64616,-0.0928 -0.90669,-0.1798 -0.70510003,-0.23544 -1.19488003,-0.70613 -1.42128003,-1.36585 -0.25817,-0.75228 -0.26292,-1.84095 -0.0112,-2.56447 0.15513,-0.44589 0.36424,-0.77721 0.70322,-1.11423 C 1.5531553,9.7429247 2.3121453,9.4634547 3.3604553,9.4932947 c 0.56098,0.016 0.96035,0.0998 1.34191,0.28151 0.27915,0.13298 0.44364,0.2481303 0.65237,0.4566903 0.41441,0.41409 0.64189,0.91441 0.73351,1.61333 0.0375,0.28602 0.0374,0.86913 -2.7e-4,1.13388 -0.0972,0.68411 -0.37296,1.25488 -0.82962,1.71729 -0.55667,0.56368 -1.22039,0.86604 -2.05019,0.93398 -0.25827,0.0211 -0.36175,0.0208 -0.68335,-0.002 z m 0.77195,-1.88602 c 0.28598,-0.0902 0.46882,-0.33395 0.56398,-0.75184 0.0435,-0.19109 0.0419,-0.74664 -0.003,-0.95353 -0.0666,-0.30809 -0.16644,-0.49333 -0.32208,-0.59735 -0.11582,-0.0774 -0.193,-0.10016 -0.38587,-0.11379 -0.4251,-0.03 -0.75812,0.24627 -0.88031,0.73037 -0.0263,0.104 -0.0329,0.20962 -0.0318,0.50357 0.003,0.75397 0.13592,1.06305 0.50874,1.1812 0.16116,0.0511 0.39084,0.0516 0.55021,10e-4 z m 12.0941397,1.88787 c -0.51933,-0.0404 -0.94422,-0.14492 -1.3099,-0.32223 -0.49993,-0.24241 -0.81893,-0.54653 -1.05305,-1.00391 -0.23269,-0.45458 -0.33624,-0.96516 -0.33638,-1.65846 -1.3e-4,-0.66821 0.0991,-1.16036 0.33277,-1.65 0.32072,-0.67214 0.83477,-1.1371103 1.50493,-1.3612503 0.46623,-0.15593 1.16074,-0.20441 1.68872,-0.11789 0.79943,0.13101 1.37691,0.5513903 1.73058,1.2597703 0.12993,0.26025 0.21804,0.55408 0.27508,0.91738 0.054,0.34402 0.0385,1.27661 -0.025,1.5004 -0.009,0.0315 -0.10533,0.0334 -1.6797,0.0334 h -1.67023 l 0.0129,0.0811 c 0.0477,0.30049 0.29725,0.52935 0.68354,0.62689 0.20314,0.0513 0.74036,0.0701 1.04986,0.0368 0.37266,-0.0401 0.80228,-0.14811 1.13471,-0.28519 0.0758,-0.0312 0.13777,-0.0523 0.13777,-0.0468 0,0.0223 0.1723,1.48908 0.1805,1.53661 0.008,0.0474 4.4e-4,0.0545 -0.10012,0.0923 -0.33831,0.12705 -0.99049,0.27086 -1.50148,0.33109 -0.32311,0.0381 -0.78402,0.0512 -1.05542,0.0301 z m 0.78955,-3.91451 c -0.0346,-0.35974 -0.13948,-0.54621 -0.36361,-0.64626 -0.0741,-0.0331 -0.12941,-0.0423 -0.24797,-0.0414 -0.40685,0.003 -0.67056,0.27131 -0.72336,0.7353 l -0.0103,0.0906 h 0.67927 0.67927 z m -9.5673697,0.84407 V 9.6215647 h 0.9919 0.99191 l -10e-6,0.12875 c -2e-5,0.13306 -0.0303,0.5049003 -0.0493,0.6056403 -0.0103,0.0545 -0.007,0.0526 0.0704,-0.0382 0.30448,-0.3577403 0.74656,-0.6422403 1.16821,-0.7518003 0.2469197,-0.0642 0.4564997,-0.0838 0.7755297,-0.0726 0.44004,0.0154 0.73366,0.10242 0.99901,0.29593 0.19435,0.14174 0.40681,0.4651103 0.50715,0.7718803 0.10548,0.32251 0.10224,0.2436 0.10982,2.67984 l 0.007,2.25564 h -1.07829 -1.07828 l -0.005,-1.97003 -0.005,-1.97003 -0.0477,-0.0926 c -0.0616,-0.11959 -0.14142,-0.16387 -0.29537,-0.16385 -0.332,3e-5 -0.69377,0.38166 -0.85299,0.89978 -0.0429,0.1395 -0.043,0.14311 -0.0488,1.71827 l -0.006,1.57847 h -1.07712 -1.07711 z m 14.4780497,0.73246 c -0.5235,-0.0952 -0.99151,-0.34716 -1.36106,-0.73268 -0.34078,-0.35549 -0.54682,-0.74661 -0.65347,-1.24044 -0.049,-0.22673 -0.0489,-0.74491 1.9e-4,-0.97206 0.21415,-0.9919803 0.95938,-1.7391203 1.94356,-1.9485403 0.25333,-0.0539 0.72572,-0.0582 0.95781,-0.009 0.7739,0.16496 1.39616,0.63068 1.74186,1.30368 0.30529,0.5943603 0.36291,1.2654503 0.16298,1.8983503 -0.15862,0.50211 -0.5234,0.99887 -0.94625,1.28858 -0.22464,0.15391 -0.54898,0.3018 -0.80906,0.36891 -0.19891,0.0513 -0.26449,0.0591 -0.55011,0.0653 -0.23652,0.005 -0.36816,-8.9e-4 -0.48642,-0.0224 z m 0.67717,-0.33395 c 0.82865,-0.10155 1.52672,-0.67975 1.78231,-1.47625 0.0794,-0.24754 0.10358,-0.44691 0.091,-0.7513 -0.0127,-0.30794 -0.0659,-0.52693 -0.19308,-0.7954603 -0.11094,-0.23421 -0.21642,-0.38524 -0.4074,-0.58335 -0.26962,-0.27969 -0.60037,-0.47477 -0.98782,-0.58263 -0.1766,-0.0492 -0.21392,-0.0527 -0.54254,-0.0519 -0.39158,9.9e-4 -0.4954,0.0201 -0.81362,0.14985 -0.58269,0.23756 -1.05843,0.77145 -1.23442,1.3853203 -0.29855,1.04136 0.24225,2.14901 1.25105,2.56238 0.34928,0.14313 0.68446,0.18869 1.05451,0.14334 z m -0.92515,-1.45718 c 0,-0.52636 -0.007,-0.92515 -0.0169,-0.92515 -0.009,0 -0.19172,0.0632 -0.40535,0.14033 l -0.3884,0.14033 -0.005,-0.29561 c -0.003,-0.16259 -0.002,-0.29921 0.003,-0.30362 0.004,-0.004 0.5218,-0.19201 1.14978,-0.4169203 0.62797,-0.2249 1.18683,-0.42581 1.24191,-0.44646 l 0.10015,-0.0376 v 1.2443303 1.24434 l -0.82501,0.29084 c -0.45375,0.15996 -0.83143,0.29071 -0.8393,0.29057 -0.008,-1.5e-4 -0.0143,-0.41659 -0.0143,-0.92542 z"
       fill="#44739e" />
</svg>
