<svg xmlns="http://www.w3.org/2000/svg" viewBox="0 0 24 24"><path fill="#44739e" d="M14.862 2H9.138A7.14 7.14 0 0 0 2 9.138v5.724A7.14 7.14 0 0 0 9.138 22h5.724A7.14 7.14 0 0 0 22 14.862V9.138A7.14 7.14 0 0 0 14.862 2M9.088 18.92a4.007 4.007 0 0 1-4.008-4.008v-4.545l5.251 8.553Zm9.832-4.008a4.007 4.007 0 0 1-4.008 4.008h-1.528L5.778 6.828a4 4 0 0 1 3.31-1.748H12.8l1.251 1.986L11.29 8.78a2.834 2.834 0 0 0-.892 3.938 2.805 2.805 0 0 0 3.881.846l2.757-1.775 1.884 3.02Zm0-4.929-.93-1.466-4.91 3.105a.564.564 0 0 1-.757-.145.55.55 0 0 1 .156-.791l4.943-3.061-1.455-2.4a4.01 4.01 0 0 1 2.953 3.863Z"/></svg>