<svg xmlns="http://www.w3.org/2000/svg" viewBox="0 0 24 24"><path fill="#44739e" d="M7.491 16.732a.913.913 0 0 0 .913-.913.913.913 0 1 0-.913.913m0-1.389a.476.476 0 0 1 .477.476.477.477 0 1 1-.477-.476m0-6.249a.913.913 0 0 0 .909-.913.913.913 0 1 0-.913.913Zm0-1.39a.48.48 0 0 1 .477.477.477.477 0 1 1-.477-.481Zm0 5.209A.913.913 0 0 0 8.4 12a.913.913 0 1 0-.913.913Zm0-1.39a.48.48 0 0 1 .477.477.477.477 0 1 1-.477-.477M4.31 18.955h15.38V5.045H4.31ZM5.792 6.88a.244.244 0 0 1 .253-.235h11.91a.244.244 0 0 1 .253.235v2.6a.245.245 0 0 1-.253.234H6.045a.244.244 0 0 1-.253-.234Zm0 3.819a.243.243 0 0 1 .253-.234h11.91a.243.243 0 0 1 .253.234v2.6a.245.245 0 0 1-.253.234H6.045a.244.244 0 0 1-.253-.234Zm0 3.819a.244.244 0 0 1 .253-.234h11.91a.244.244 0 0 1 .253.234v2.6a.245.245 0 0 1-.253.234H6.045a.243.243 0 0 1-.253-.234ZM2 2v20h20V2Zm18.438 17.039a.665.665 0 0 1-.665.664H4.227a.665.665 0 0 1-.665-.664V4.961a.665.665 0 0 1 .665-.661h15.546a.665.665 0 0 1 .665.664Z"/></svg>