<?xml version="1.0" encoding="UTF-8"?>
<svg width="24px" fill="#44739e" height="24px" viewBox="0 0 24 24" version="1.1" xmlns="http://www.w3.org/2000/svg" xmlns:xlink="http://www.w3.org/1999/xlink">
    <path
     d="m 3.2661538,0.30593703 c 0,0 -0.3217242,0.0148065 -0.6651002,0.1216432 -0.1861475,0.0578223 -0.3654988,0.15285121 -0.5081448,0.23542744 -0.1435117,0.083069 -0.2733553,0.17221388 -0.2648511,0.16674662 -0.03341,0.0212613 -0.059341,0.0430538 -0.09222,0.0706165 C 1.7020481,0.9288455 1.6603993,0.96445739 1.614195,1.0063336 1.5229245,1.0889858 1.41867,1.1899374 1.3316897,1.2888389 1.1468332,1.4990947 0.99644987,1.7859699 0.85297613,2.0912774 0.75878235,2.291662 0.71918385,2.5313265 0.69211404,2.730872 0.6647788,2.9315984 0.65490777,3.0938273 0.65490777,3.0938273 v 0.0038 l -0.003798,0.1863751 0.003798,0.0038 V 5.0555159 L 4.8986023,7.3333372 2.3618037,7.3314 v 2.2621348 h 1.7892965 v 0.7671192 l 1.0614125,0.559123 H 0.73534981 v 2.120901 H 5.2007469 L 4.151104,13.599835 v 0.808322 H 2.3618069 v 2.262127 l 2.5348359,-0.002 -4.24369433,2.277825 v 1.79126 0.002 2.954694 h 20.06681453 0.0061 0.0038 c 0,0 0.323052,-0.0148 0.667059,-0.121643 0.186451,-0.05793 0.364056,-0.153154 0.506185,-0.235427 0.142981,-0.08277 0.270091,-0.168874 0.266826,-0.166785 0.03341,-0.02127 0.05935,-0.04305 0.09222,-0.07062 0.03645,-0.03076 0.07723,-0.06766 0.121643,-0.107896 0.09108,-0.08246 0.19731,-0.1814 0.28448,-0.280569 0.184932,-0.210331 0.331405,-0.495383 0.474792,-0.800475 0.09427,-0.200612 0.133829,-0.442247 0.160861,-0.641557 0.02734,-0.200727 0.03721,-0.362955 0.03721,-0.362955 v -0.0038 -0.0038 l 0.0079,-0.182465 -0.0061,-0.0058 v -1.765786 l -4.243698,-2.277821 2.534839,0.0038 V 14.40645 h -1.783401 v -0.806339 l -1.051607,-0.559152 h 4.465397 v -2.12087 h -4.465397 l 1.051607,-0.559156 V 9.5918731 H 21.63585 V 7.3297469 l -2.532878,0.00194 4.241736,-2.2758623 V 3.3705322 3.3685675 0.30596588 H 3.27795 3.2699767 Z m 0.019743,0.51207073 H 22.832794 V 3.1762673 4.7497504 l -4.991197,2.6780632 0.107896,0.4159326 3.176393,-0.00194 V 9.0817606 H 19.850508 V 8.2126201 L 18.220129,9.0817638 H 15.073164 V 7.7377982 L 21.635883,4.2180628 V 2.0559962 H 3.3426706 3.340706 C 3.317167,2.0557098 3.310713,2.0563851 3.281858,2.0597962 3.251865,2.0634162 3.212532,2.0700482 3.1660996,2.0833352 3.0725517,2.1099092 2.9496939,2.1625674 2.8188248,2.261849 2.6768699,2.3695586 2.580664,2.5013764 2.5127808,2.615009 2.445391,2.727768 2.4068176,2.8186586 2.3872271,2.889693 c -0.024298,0.087626 -0.021641,0.1608242 -0.023539,0.2197474 -0.00192,0.066288 -0.00196,0.1236174 -0.00196,0.1236174 v 0.9848953 l 6.5627196,3.521698 V 9.0816256 H 5.7833659 L 4.1509977,8.2125752 V 9.0817159 H 2.8737673 V 7.8437276 L 6.0521274,7.8456617 6.1541423,7.4277952 1.1649051,4.7497354 V 3.1350708 l 0.00197,-0.015566 v -0.00797 c 0,-0.00137 0.00722,-0.1337164 0.031512,-0.3119669 C 1.222304,2.6221556 1.2725712,2.4016602 1.316118,2.3090839 1.4522261,2.019555 1.5974842,1.7612191 1.7143931,1.6282847 1.7791631,1.5546307 1.874154,1.4608166 1.9557051,1.3869726 1.9951142,1.3512846 2.034484,1.3188614 2.0655788,1.2928169 2.0948121,1.2681394 2.1064299,1.2578885 2.1067716,1.2575087 2.1435992,1.2335897 2.2258331,1.17835 2.3500579,1.1064418 2.475194,1.0340023 2.6329049,0.95321094 2.7522586,0.91611807 3.0185903,0.8333897 3.3042278,0.81706495 3.2859092,0.81801396 Z m 0.052963,1.74809644 h 0.00196 17.7850732 V 3.9119996 L 19.931065,4.5515944 V 3.8080183 H 4.0706695 v 0.255056 0.4924495 L 2.8737675,3.9119996 V 3.2312044 c 0,0 -0.00156,-0.051331 0,-0.107899 7.163e-4,-0.023919 0.0036,-0.054179 0.00569,-0.078476 10e-4,-0.010633 0.00116,-0.018603 0.00197,-0.025437 -0.00147,0.00645 0.00493,-0.012529 0.015566,-0.037207 0.012529,-0.028475 0.031132,-0.06515 0.052963,-0.1020144 0.045255,-0.075743 0.1127211,-0.1619634 0.1785543,-0.2118886 0.079045,-0.059986 0.1414614,-0.083677 0.1785163,-0.094194 0.019362,-0.00569 0.028853,-0.0076 0.031512,-0.00798 z m 3.555051,3.5040401 H 17.103894 L 14.56317,7.4336982 v 2.1581454 h 2.699643 L 14.6436,10.990714 v 1.979604 l 2.672175,1.436149 h -2.75458 v 2.160103 l 2.542687,1.365517 H 6.8938002 L 9.4364835,16.568534 V 14.408426 H 6.6819079 L 9.358008,12.970318 V 10.990714 L 6.7427294,9.5938047 H 9.4364835 V 7.4356613 Z m 8.1774042,8.8483897 h 3.196014 l 1.583282,0.851487 v -0.851487 h 1.273305 v 1.237988 H 17.94742 l -0.107896,0.415933 4.991196,2.678064 v 1.622531 0.0099 c -4.5e-4,0.0079 -0.0079,0.144156 -0.03151,0.317852 -0.02392,0.1773 -0.0743,0.400108 -0.117733,0.49245 -0.135919,0.289187 -0.281025,0.54747 -0.398275,0.680795 -0.06522,0.07418 -0.162154,0.167848 -0.243287,0.241311 -0.0402,0.03645 -0.07597,0.06705 -0.105958,0.09222 -0.01291,0.01101 -0.0262,0.0224 -0.03531,0.02961 -0.0038,0.003 -0.0076,0.0041 -0.0099,0.0058 -0.03846,0.02468 -0.119783,0.08151 -0.243286,0.153042 -0.125706,0.07278 -0.281253,0.15137 -0.400239,0.188349 -0.133639,0.04154 -0.270166,0.06641 -0.370814,0.08045 -0.09935,0.01405 -0.150003,0.01709 -0.162836,0.01747 H 1.1627334 V 21.0005 h 0.00197 V 19.250466 L 6.1539386,16.574367 6.04995,16.156471 l -3.1783563,0.002 v -1.238023 h 1.2791838 v 0.849524 l 1.5793717,-0.849524 h 3.194051 v 1.340011 L 2.3595023,19.784064 V 21.94613 H 20.652715 c 0,0 0.08026,-1.71e-4 0.176581,-0.02734 0.09545,-0.02696 0.217203,-0.08182 0.347275,-0.18049 0.141384,-0.107297 0.239337,-0.240173 0.308018,-0.355097 0.06713,-0.112303 0.105959,-0.199663 0.125554,-0.270735 0.02429,-0.0885 0.02164,-0.162874 0.02354,-0.221684 0.002,-0.06705 0,-0.123579 0,-0.123618 V 19.782274 L 15.070966,16.260579 Z M 4.0667436,19.44671 v 0.747503 H 19.927139 v -0.25703 -0.490487 l 1.196788,0.641557 v 0.678832 0.002 0.002 c 0,0 -2.24e-4,0.04777 -0.002,0.103989 -7.58e-4,0.02545 -0.0038,0.05759 -0.0058,0.08239 -7.77e-4,0.01023 -0.0013,0.0186 -0.002,0.02544 0.0012,-0.0053 -0.0028,0.01067 -0.01367,0.03531 -0.01291,0.02924 -0.03265,0.06682 -0.05493,0.103989 -0.04548,0.07608 -0.112948,0.160178 -0.178516,0.209914 -0.07844,0.05949 -0.136905,0.08292 -0.176581,0.09419 -0.0429,0.01216 -0.02543,0.0079 -0.02543,0.0079 H 20.6612 20.6574 2.8723318 v -1.345954 z" />
</svg>
