<svg xmlns="http://www.w3.org/2000/svg" viewBox="0 0 24 24"><path fill="#44739e" d="M4.531 2s-.275.013-.568.104a2.2 2.2 0 0 0-.435.201 3 3 0 0 0-.226.143 1 1 0 0 0-.079.06 3.4 3.4 0 0 0-.346.333c-.158.179-.287.425-.409.685a1.9 1.9 0 0 0-.137.548c-.024.171-.033.31-.033.31v.004l-.003.159.003.003v1.512l3.63 1.947-2.17-.002v1.936h1.531v.655l.906.478H2.368v1.813h3.819l-.898.479v.691H3.758v1.935l2.169-.002-3.629 1.948V22h17.167s.277-.013.571-.104c.159-.05.311-.131.432-.201.123-.071.231-.145.229-.143a1 1 0 0 0 .078-.06l.105-.092a4 4 0 0 0 .243-.24c.158-.18.283-.424.406-.685.08-.172.114-.379.137-.549s.032-.31.032-.31v-.005l.007-.157-.005-.005v-1.51l-3.629-1.947 2.167.002v-1.936h-1.525v-.69l-.899-.478h3.818v-1.813h-3.817l.899-.479V9.94h1.527V8.006l-2.166.002 3.627-1.946V2H4.535Zm.017.438h16.716V5.8l-4.268 2.29.091.356 2.717-.002v1.061h-1.091v-.744l-1.394.744h-2.692v-1.15l5.612-3.01V3.496H4.594c-.02 0-.025 0-.051.004a1 1 0 0 0-.098.02 1 1 0 0 0-.297.153 1.1 1.1 0 0 0-.262.302 1 1 0 0 0-.107.235c-.021.074-.018.137-.02.188l-.002.105v.842L9.37 8.357v1.148H6.684l-1.396-.744v.744H4.196V8.446l2.718.002.087-.358L2.734 5.8V4.419l.002-.013V4.4c0-.002.006-.115.027-.267a2 2 0 0 1 .101-.419c.116-.248.24-.47.34-.584a3 3 0 0 1 .207-.206q.052-.047.094-.08l.034-.03c.033-.02.103-.068.209-.13a2 2 0 0 1 .344-.162c.228-.071.472-.085.456-.084m.046 1.495h15.21v1.151l-1.022.547v-.636H5.22v.639l-1.024-.55v-.582s-.002-.044 0-.093q.001-.034.004-.067l.002-.022c-.001.006.004-.01.014-.032a1 1 0 0 1 .045-.087.7.7 0 0 1 .153-.181.5.5 0 0 1 .18-.087m3.04 2.996h8.731l-2.172 1.166v1.846h2.308l-2.241 1.196v1.693l2.286 1.227h-2.357v1.848l2.175 1.168h-8.73l2.173-1.166V14.06H7.452l2.289-1.231v-1.693L7.505 9.943h2.302V8.097Zm6.992 7.567h2.733l1.355.728v-.728h1.088v1.059h-2.716l-.092.355 4.267 2.291v1.395c0 .007-.006.123-.025.272a2 2 0 0 1-.102.421c-.116.248-.24.468-.341.582a2.6 2.6 0 0 1-.298.286l-.03.025-.009.005c-.033.021-.102.069-.208.131a2 2 0 0 1-.342.16 2 2 0 0 1-.456.084H2.732v-1.865h.003v-1.496l4.266-2.29-.089-.357-2.718.002v-1.059h1.093v.727l1.351-.727h2.731v1.146l-5.613 3.013v1.849H19.4s.068 0 .15-.023.186-.07.298-.154c.12-.092.204-.205.263-.304q.085-.142.107-.231c.02-.076.019-.14.02-.19.002-.057 0-.106 0-.106v-.842l-5.612-3.011Zm-9.41 3.872v.639h13.563v-.639l1.023.548v.584l-.001.089c0 .023-.004.05-.006.07l-.001.023-.012.03q-.017.04-.046.089a.7.7 0 0 1-.153.179.4.4 0 0 1-.152.081l-.021.006H4.194v-1.151Z"/></svg>