<?xml version="1.0" encoding="UTF-8" standalone="no"?>
<svg
   width="24.013"
   height="24.013"
   viewBox="0 0 512.00427 512.00427"
   version="1.1"
   id="svg3"
   sodipodi:docname="opnsense.svg"
   inkscape:version="1.2 (dc2aedaf03, 2022-05-15)"
   xmlns:inkscape="http://www.inkscape.org/namespaces/inkscape"
   xmlns:sodipodi="http://sodipodi.sourceforge.net/DTD/sodipodi-0.dtd"
   xmlns="http://www.w3.org/2000/svg"
   xmlns:svg="http://www.w3.org/2000/svg">
  <defs
     id="defs7" />
  <sodipodi:namedview
     id="namedview5"
     pagecolor="#ffffff"
     bordercolor="#000000"
     borderopacity="0.25"
     inkscape:showpageshadow="2"
     inkscape:pageopacity="0.0"
     inkscape:pagecheckerboard="0"
     inkscape:deskcolor="#d1d1d1"
     showgrid="false"
     inkscape:zoom="29.505725"
     inkscape:cx="-5.0329215"
     inkscape:cy="8.9135243"
     inkscape:window-width="1920"
     inkscape:window-height="1009"
     inkscape:window-x="4472"
     inkscape:window-y="1"
     inkscape:window-maximized="1"
     inkscape:current-layer="svg3" />
  <g
     id="polygon3215"
     class="st19"
     style="fill:#44739e;fill-opacity:1;stroke:none"
     transform="matrix(1.211208,0,0,1.211208,739.6101,-102.19961)">
    <path
       id="path16575"
       style="color:#000000;fill:#44739e;fill-opacity:1;stroke:none;stroke-width:6.1194;-inkscape-stroke:none"
       d="M -552.32553 90.807791 C -552.32553 90.807791 -557.9638 91.069991 -563.98123 92.939511 C -567.24307 93.952904 -570.3865 95.618189 -572.88631 97.065421 C -575.40117 98.521421 -577.67681 100.0836 -577.52796 99.98794 C -578.11055 100.36248 -578.56758 100.74243 -579.14394 101.22571 C -579.73714 101.7231 -580.46589 102.34901 -581.27566 103.08237 C -582.87516 104.53079 -584.7024 106.2998 -586.22676 108.03346 C -589.46655 111.71835 -592.10141 116.7455 -594.61611 122.09594 C -596.26649 125.60759 -596.96057 129.80764 -597.43548 133.30466 C -597.91309 136.82246 -598.08875 139.66544 -598.08875 139.66544 L -598.08875 139.7342 L -598.15751 143.00055 L -598.08875 143.06931 L -598.08875 174.04802 L -523.71922 213.96619 L -568.1759 213.93181 L -568.1759 253.57493 L -536.81899 253.57493 L -536.81899 267.01852 L -518.21801 276.81755 L -596.67906 276.81755 L -596.67906 313.98512 L -518.42431 313.98512 L -536.81899 323.78416 L -536.81899 337.94978 L -568.1759 337.94978 L -568.1759 377.59289 L -523.75361 377.55851 L -598.12313 417.47669 L -598.12313 448.86798 L -598.12313 448.90236 L -598.12313 500.68253 L -246.4581 500.68253 L -246.35495 500.68253 L -246.28618 500.68253 C -246.28618 500.68253 -240.62496 500.42396 -234.59611 498.55081 C -231.32882 497.53564 -228.21605 495.86688 -225.7254 494.4249 C -223.21966 492.97429 -220.992 491.46549 -221.04937 491.50238 C -220.4663 491.1276 -220.00958 490.7477 -219.43339 490.26461 C -218.7937 489.72825 -218.08035 489.0787 -217.30167 488.37357 C -215.70575 486.92836 -213.84406 485.1945 -212.31619 483.45686 C -209.07517 479.77094 -206.5085 474.77538 -203.99561 469.42877 C -202.34342 465.91339 -201.65052 461.67853 -201.17624 458.18566 C -200.69871 454.66799 -200.52297 451.82489 -200.52297 451.82488 L -200.52297 451.75612 L -200.52297 451.68735 L -200.38544 448.48977 L -200.48859 448.38663 L -200.48859 417.4423 L -274.85811 377.52413 L -230.43581 377.59289 L -230.43581 337.9154 L -261.68958 337.9154 L -261.68958 323.78416 L -280.11864 313.98512 L -201.86389 313.98512 L -201.86389 276.81755 L -280.11864 276.81755 L -261.68958 267.01852 L -261.68958 253.54054 L -230.40143 253.54054 L -230.40143 213.89743 L -274.78934 213.93181 L -200.4542 174.04802 L -200.4542 144.51338 L -200.4542 144.479 L -200.4542 90.807791 L -552.11924 90.807791 L -552.25677 90.807791 L -552.32553 90.807791 z M -551.98171 99.781645 L -209.42806 99.781645 L -209.42806 141.10951 L -209.42806 168.68434 L -296.89734 215.61656 L -295.0063 222.90566 L -239.3409 222.87128 L -239.3409 244.60107 L -261.68958 244.60107 L -261.68958 229.36959 L -290.2615 244.60107 L -345.41116 244.60107 L -345.41116 221.04901 L -230.40143 159.36666 L -230.40143 121.47705 L -550.98461 121.47705 L -551.01899 121.47705 C -551.42914 121.47234 -551.54249 121.48445 -552.05047 121.54582 C -552.57531 121.60932 -553.26545 121.72774 -554.07904 121.95841 C -555.71856 122.42318 -557.87139 123.34699 -560.16476 125.08722 C -562.65268 126.97503 -564.33819 129.28486 -565.52844 131.27609 C -566.70934 133.2518 -567.38566 134.84494 -567.72893 136.08965 C -568.15252 137.62548 -568.11112 138.90827 -568.14152 139.9405 C -568.17522 141.10215 -568.1759 142.1066 -568.1759 142.1066 L -568.1759 159.36666 L -453.16617 221.08339 L -453.16617 244.60107 L -508.21268 244.60107 L -536.81899 229.36959 L -536.81899 244.60107 L -559.20205 244.60107 L -559.20205 222.90566 L -503.50227 222.94005 L -501.71437 215.61656 L -589.14927 168.68434 L -589.14927 140.38747 L -589.11489 140.11241 L -589.11489 139.97488 C -589.11489 139.95098 -588.98894 137.63188 -588.56477 134.50805 C -588.14263 131.39877 -587.26433 127.53478 -586.50182 125.91241 C -584.11689 120.83836 -581.57059 116.31123 -579.52215 113.98165 C -578.387 112.69066 -576.72224 111.04681 -575.29309 109.75259 C -574.60252 109.12722 -573.91257 108.55907 -573.36767 108.10223 C -572.85471 107.67216 -572.65164 107.48829 -572.64564 107.48334 C -571.99949 107.06623 -570.55897 106.0961 -568.3822 104.83588 C -566.18928 103.56635 -563.42535 102.15083 -561.33377 101.50077 C -556.66672 100.05083 -551.66065 99.764975 -551.98171 99.781645 z M -551.05338 130.41652 L -551.01899 130.41652 L -239.3409 130.41652 L -239.3409 154.00297 L -260.27989 165.2117 L -260.27989 152.1807 L -538.22867 152.1807 L -538.22867 156.65043 L -538.22867 165.28046 L -559.20205 154.00297 L -559.20205 142.07222 C -559.20205 142.07222 -559.22945 141.17251 -559.20205 140.18118 C -559.18945 139.76394 -559.1389 139.23142 -559.0989 138.80587 C -559.0813 138.61847 -559.07842 138.47928 -559.06452 138.3589 C -559.09042 138.46942 -558.98058 138.13953 -558.78946 137.70563 C -558.56901 137.20515 -558.24743 136.56403 -557.86113 135.91774 C -557.06776 134.59041 -555.88548 133.07942 -554.73231 132.20442 C -553.34714 131.15336 -552.25296 130.73816 -551.6035 130.55405 C -551.26403 130.45785 -551.09604 130.42126 -551.05338 130.41652 z M -488.75214 191.82381 L -309.82519 191.82381 L -354.35063 215.71971 L -354.35063 253.54054 L -307.0402 253.54054 L -352.94095 278.05532 L -352.94095 312.74735 L -306.11187 337.9154 L -354.38502 337.9154 L -354.38502 375.77062 L -309.82519 399.70089 L -488.75214 399.70089 L -444.19232 375.805 L -444.19232 337.94978 L -492.46546 337.94978 L -445.56762 312.74735 L -445.56762 278.05532 L -491.3996 253.57493 L -444.19232 253.57493 L -444.19232 215.75409 L -488.75214 191.82381 z M -345.44555 346.88925 L -289.43632 346.88925 L -261.68958 361.81129 L -261.68958 346.88925 L -239.37529 346.88925 L -239.37529 368.58466 L -295.04068 368.58466 L -296.93173 375.87376 L -209.46244 422.80599 L -209.46244 451.24038 L -209.46244 451.41229 C -209.47044 451.55363 -209.59872 453.93888 -210.01256 456.98227 C -210.43457 460.08967 -211.31499 463.99409 -212.07552 465.6123 C -214.45752 470.68031 -217.00072 475.20659 -219.05518 477.54305 C -220.19812 478.84278 -221.89677 480.48448 -223.31862 481.77211 C -224.0235 482.41041 -224.64995 482.94735 -225.17528 483.38809 C -225.40402 483.57987 -225.63514 483.7807 -225.79417 483.90383 C -225.86297 483.95703 -225.92472 483.97574 -225.96608 484.00698 C -226.63981 484.44241 -228.06498 485.43565 -230.22952 486.68882 C -232.43253 487.96424 -235.15821 489.34169 -237.24357 489.98955 C -239.58584 490.71726 -241.97807 491.15297 -243.74187 491.39923 C -245.48319 491.64235 -246.37066 491.69666 -246.59563 491.70868 L -589.18366 491.70868 L -589.18366 453.47525 L -589.14927 453.47525 L -589.14927 422.80599 L -501.71437 375.90815 L -503.53665 368.58466 L -559.23643 368.61904 L -559.23643 346.92363 L -536.81899 346.92363 L -536.81899 361.81129 L -509.14101 346.92363 L -453.16617 346.92363 L -453.16617 370.40693 L -568.21028 432.15805 L -568.21028 470.04765 L -247.6271 470.04765 C -247.6271 470.04765 -246.22064 470.04467 -244.53267 469.5663 C -242.85985 469.09218 -240.7261 468.1325 -238.44696 466.4031 C -235.96919 464.52299 -234.2529 462.19413 -233.04889 460.17985 C -231.87262 458.21197 -231.19222 456.68074 -230.84841 455.43506 C -230.42075 453.88449 -230.46583 452.58058 -230.43581 451.54982 C -230.40161 450.37458 -230.43581 449.38376 -230.43581 449.38372 L -230.43581 432.12367 L -345.44555 370.40693 L -345.44555 346.88925 z M -538.29744 426.24424 L -538.29744 439.34401 L -260.34866 439.34401 L -260.34866 434.83989 L -260.34866 426.24424 L -239.37529 437.48735 L -239.37529 449.38372 L -239.37529 449.4181 L -239.37529 449.45249 C -239.37529 449.45249 -239.37937 450.28959 -239.40967 451.27476 C -239.42277 451.72002 -239.47862 452.28421 -239.51282 452.71883 C -239.52682 452.89607 -239.5357 453.04728 -239.5472 453.1658 C -239.5274 453.072 -239.59582 453.35512 -239.78788 453.78469 C -240.017 454.29711 -240.3615 454.95605 -240.75059 455.60697 C -241.54776 456.94018 -242.73015 458.41385 -243.8794 459.2859 C -245.25366 460.32868 -246.27879 460.73925 -246.97384 460.93627 C -247.72541 461.14931 -247.42081 461.0738 -247.42081 461.0738 L -247.48957 461.0738 L -247.55834 461.0738 L -559.23643 461.0738 L -559.23643 437.48735 L -538.29744 426.24424 z " />
  </g>
</svg>
