<svg xmlns="http://www.w3.org/2000/svg" viewBox="0 0 24 24"><path fill="#44739e" d="m11.651 13.854-.038-.04.051-.033.007-.005.046-.031.012-.008.042-.029.016-.012.037-.028.02-.015.033-.026.025-.019.027-.023.031-.026.021-.018.051-.046a2.55 2.55 0 0 0 .671-.937 2 2 0 0 0 .091-.261 4 4 0 0 0 .063-.217v-.015h-.007l.01-.039v-.014l.01-.04.007-.04a3.6 3.6 0 0 0 .052-.607 3 3 0 0 0-.039-.5 2.9 2.9 0 0 0-.663-1.433 2 2 0 0 0-.2-.206l-.022-.022a3.2 3.2 0 0 0-.921-.568l-.131-.049a3.7 3.7 0 0 0-1.183-.19 3.5 3.5 0 0 0-1.245.209 2.9 2.9 0 0 0-1 .599 2.8 2.8 0 0 0-.67.938 3.5 3.5 0 0 0-.245 1.222v.01a1.55 1.55 0 0 1-.388 1.089 1.3 1.3 0 0 1-.272.233l-.016.01a1.57 1.57 0 0 1-.794.18 1.43 1.43 0 0 1-1.092-.422 1 1 0 0 1-.115-.145l-1.617.446a2.7 2.7 0 0 0 .4.579 2 2 0 0 0 .186.188 3.2 3.2 0 0 0 1 .6 3.7 3.7 0 0 0 .866.2 3.7 3.7 0 0 0 1.082-.049 3.4 3.4 0 0 0 .779-.241c.134-.062.227-.115.249-.128a3.2 3.2 0 0 0 .541-.4 3.06 3.06 0 0 0 .881-1.91v-.013a4 4 0 0 1 .029-.412q.012-.096.028-.188a1.44 1.44 0 0 1 .265-.62 1.3 1.3 0 0 1 .6-.428 1.6 1.6 0 0 1 .567-.091 1.53 1.53 0 0 1 1.088.423 1.55 1.55 0 0 1 .389 1.093 2 2 0 0 1-.057.512v.01l-.025.06-.006.015-.024.054a2 2 0 0 1-.266.451 1.42 1.42 0 0 1-1.093.422 1.43 1.43 0 0 1-1.095-.426 1.4 1.4 0 0 1-.329-.6v-.016a3.3 3.3 0 0 1-.818 1.685 3 3 0 0 0 1 .6l.078.026.025.008.054.017.029.008.051.015.03.008.05.013.029.012.052.013.028.006.054.012h.026l.058.011h.022l.063.01h.018l.071.01h.01a4 4 0 0 0 .592.03l.052.053a6.4 6.4 0 0 0 1.846 1.3l.999-1.047a3.1 3.1 0 0 1-1.139-.747m-7.966-2.645a1.52 1.52 0 0 1 .387-.975 1.48 1.48 0 0 1 1.19-.421 1.38 1.38 0 0 1 1.083.527 1.7 1.7 0 0 1 .211.408l.012.037a2.9 2.9 0 0 1 .823-1.627 3.34 3.34 0 0 0-2.229-.805 3.36 3.36 0 0 0-2.24.812 3.03 3.03 0 0 0-.637 3.46l1.6-.444a1.77 1.77 0 0 1-.2-.972m3.774 2.3-.024.022.038.036.022-.02.018-.017a.3.3 0 0 1-.04-.037Zm13.48-4.452a3.33 3.33 0 0 0-1.699-.575 3.44 3.44 0 0 0-2.373.828l-.043.039a.4.4 0 0 0-.043-.039 3 3 0 0 0-1.02-.611 3.8 3.8 0 0 0-2.509 0 3 3 0 0 0-.973.569 2.8 2.8 0 0 1 .539.814q.047.106.085.217a3 3 0 0 1 .167 1.032 3.3 3.3 0 0 1-.089.777 2.7 2.7 0 0 1-.161.472 2.9 2.9 0 0 1-.682.955l-.048.043c.045.049.093.1.142.142a3 3 0 0 0 1.02.612 3.8 3.8 0 0 0 2.509 0 3.5 3.5 0 0 0 .683-.341 3.5 3.5 0 0 1-.505-.559 3.8 3.8 0 0 1-.38-.678 2 2 0 0 1-.05-.125 1.4 1.4 0 0 1-1 .351 1.44 1.44 0 0 1-1.054-.405 1.3 1.3 0 0 1-.283-.479h2.807a2.8 2.8 0 0 0 .211.686 2.94 2.94 0 0 0 .787 1.035 3 3 0 0 0 .912.515 3.8 3.8 0 0 0 2.508 0 3 3 0 0 0 .747-.386 3 3 0 0 1-.256-.207 3.2 3.2 0 0 1-.682-.955c-.017-.037-.032-.075-.032-.075q-.018-.043-.028-.076a1.4 1.4 0 0 1-1 .347 1.44 1.44 0 0 1-1.053-.405 1.3 1.3 0 0 1-.284-.479h4.094a2.99 2.99 0 0 0-.964-3.039m-7.753 1.855a1.3 1.3 0 0 1 .278-.456 1.36 1.36 0 0 1 1.053-.406 1.43 1.43 0 0 1 1.053.406 1.25 1.25 0 0 1 .277.456Zm4.636 0a1.3 1.3 0 0 1 .277-.456 1.57 1.57 0 0 1 2.106 0 1.3 1.3 0 0 1 .277.456Z"/></svg>