<?xml version="1.0" encoding="UTF-8"?>
<svg width="24px" fill="#44739e" height="24px" viewBox="0 0 24 24" version="1.1" xmlns="http://www.w3.org/2000/svg" xmlns:xlink="http://www.w3.org/1999/xlink">
            <path d="M 19,13.174 19.1,6.43 A 2.509,2.509 0 0 0 17.11,3.937 L 8.21,2.055 A 2.51,2.51 0 0 0 5.183,4.51 v 10.332 a 2.509,2.509 0 0 0 2.987,2.463 l 8.8,-1.706 A 2.509,2.509 0 0 0 19,13.174 Z M 15.5,13.83 13.651,14.03 12.073,6.93 11.123,6.882 11.098,14.22 9.619,14.373 9.63,6.8 7.666,6.7 V 4.983 l 5.576,0.419 1.347,6.365 1.473,-6.148 1.528,0.118 z m -3.835,5.62 c 0,-0.421 -0.335,-0.68 -0.933,-0.68 a 1.12,1.12 0 0 0 -0.976,0.448 l 0.408,0.232 a 0.685,0.685 0 0 1 0.559,-0.264 c 0.233,0 0.359,0.1 0.359,0.264 v 0.127 c -0.972,0.11 -1.443,0.382 -1.443,0.895 a 0.636,0.636 0 0 0 0.681,0.666 1.358,1.358 0 0 0 0.758,-0.228 l 0.053,0.2 h 0.534 z m -0.6,1.034 a 0.841,0.841 0 0 1 -0.559,0.241 0.276,0.276 0 0 1 -0.272,-0.3 c 0,-0.271 0.267,-0.417 0.831,-0.486 z m 2.418,-1.717 a 1.279,1.279 0 0 0 -0.787,0.316 l -0.055,-0.272 -0.5,0.069 v 2.228 h 0.6 v -1.643 a 0.887,0.887 0 0 1 0.563,-0.255 c 0.219,0 0.292,0.126 0.292,0.408 v 1.49 h 0.6 v -1.6 a 0.649,0.649 0 0 0 -0.713,-0.741 z m 2.709,0.307 c -0.045,-0.112 -0.218,-0.307 -0.66,-0.306 -0.488,0 -0.921,0.429 -0.921,1.2 0,0.771 0.421,1.145 0.954,1.145 a 0.6,0.6 0 0 0 0.592,-0.334 l 0.009,0.009 v 0.267 c 0,0.358 -0.15,0.507 -0.463,0.507 -0.337,0 -0.407,-0.112 -0.431,-0.224 l -0.6,0.095 c 0.084,0.394 0.5,0.573 0.951,0.571 1.092,-0.007 1.122,-0.637 1.122,-1.02 V 18.81 h -0.51 z m -0.518,1.544 c -0.442,0 -0.463,-0.465 -0.463,-0.748 0,-0.517 0.242,-0.675 0.459,-0.675 0.325,0 0.5,0.292 0.5,0.65 0,0.304 -0.038,0.769 -0.496,0.773 z m 3.562,-0.685 c 0,-0.745 -0.394,-1.166 -1.054,-1.166 -0.66,0 -1.07,0.434 -1.07,1.2 a 1.04,1.04 0 0 0 1.079,1.188 1.1,1.1 0 0 0 1.016,-0.5 L 18.765,20.41 a 0.585,0.585 0 0 1 -0.519,0.294 c -0.356,0 -0.535,-0.219 -0.54,-0.654 h 1.525 c 0,-0.038 0.005,-0.078 0.005,-0.117 z m -1.521,-0.271 c 0.024,-0.311 0.194,-0.488 0.467,-0.488 a 0.437,0.437 0 0 1 0.461,0.488 z M 6.31,18.012 a 1.5,1.5 0 0 0 -1.546,1.65 1.5,1.5 0 0 0 1.546,1.65 1.5,1.5 0 0 0 1.547,-1.65 1.5,1.5 0 0 0 -1.547,-1.65 z m 0,2.6 c -0.614,0 -0.727,-0.553 -0.727,-0.954 0,-0.401 0.113,-0.953 0.727,-0.953 0.614,0 0.728,0.553 0.728,0.953 0,0.4 -0.113,0.958 -0.728,0.958 z m 2.455,-1.524 v -0.27 H 8.191 v 2.291 H 8.8 v -1.524 c 0.092,-0.2 0.379,-0.244 0.641,-0.244 H 9.47 v -0.566 a 0.5,0.5 0 0 0 -0.077,0 0.9,0.9 0 0 0 -0.628,0.313 z"/>

</svg>