<svg xmlns="http://www.w3.org/2000/svg" width="19.694" height="32.06" viewBox="0 0 172 280">
    <style>path{fill:#000}@media (prefers-color-scheme:dark){path{fill:#fff}}</style>
  <path id="Colore_riempimento_2" data-name="Colore riempimento 2" class="cls-1" d="M62,42c17.634-.289,44.921-2.026,59,2h8c5.536,1.647,14.152,2.644,17,7,3.577,3.632.346,10.031,2,16,2.657,9.59,1.018,21.678,2,33,0.164,1.889,1,2,1,2q0.5,13,1,26v20c1.612,5.822.987,15.55,1,23q0.5,12,1,24v19h-1v4h-1v3h-1q-0.5,2.5-1,5l-2,1v2l-6,5v1h-2v1l-7,1v1h-4c-12.354,3.985-28.683,4-45,4-20.458,0-42.961-.5-56-8H26l-2-3-5-4-2-6H16c-4.359-11.016-2-34.411-2-49,0-8.908-1.033-20.789,1-28,1.707-6.057-.535-15.555,1-21V107h1V93h1V79h1V66h1c1.178-4.174-1.409-10.263,1-13,0.829-3.724,2.456-4.885,7-5,2.251-2.008,4.749-.94,8-2V45h6V44h7V43C53.17,41.812,59.266,44.418,62,42Zm13,5c-2.963,2.54-12.16.579-17,1-8.5.739-18.24,2.57-26,4v1a97.781,97.781,0,0,1,15,3l29,1,11,1V57c7.833-1.953,19.55,1.1,27-1h10V55h7V54h5V53h3V52a80.154,80.154,0,0,1-14-3Zm74,160q-0.5-5-1-10c-0.132-11.031,1.606-25.748-1-35V134h-1V121q-0.5-14-1-28h-1q-0.5-11.5-1-23c-0.064-5.109.548-10.42-2-13v1l-7,1v1h-6v1h-8v1H107c-6.386,1.76-16.96,1-25,1-20.075,0-41.991-.726-56-7v4H25V73H24V86H23v14H22v15H21l-2,90c1.855,1.009,4.126,3.287,6,4h5v1h5v1h6v1h7v1h9v1H72v1c5.064,1.41,19.363.02,23-1h19v-1h9v-1h7v-1h6C139.88,209.8,144.705,207.852,149,207ZM23,223h2c0.549-3.193,1.848-5.489,3-8H26v-1l-6-1v1Zm108,9h4c2.29-5.879,5.634-10.475,7-17h-3C137.3,215.892,131.6,229.034,131,232ZM33,216c-1,4.93-3.616,7.17-4,13l3,1v1h1c0.972-5.451,3.849-8.585,5-14A12.709,12.709,0,0,0,33,216Zm95,1-7,17h3c1.26-6.525,5.548-10.749,7-17h-3Zm-78,1H44c-1.288,3.1-5.971,12.622-5,14v1h4v1h1C45.083,227.88,48.642,223.921,50,218Zm61,18c2.468-.671,1.688-0.439,3-2h1v-3h1v-2c1.845-3.543,4.493-5.863,5-11h-1c-1.139,1.139,0,.4-2,1q-0.5,1.5-1,3h-1v3h-1v2C113.445,230,111.532,231.547,111,236Zm-61-1h2c1.155-5.96,4.707-9.924,6-16-2.762.723-2.237,0.279-3,3-2.275,2-.764,2.211-2,5H52A22.256,22.256,0,0,0,50,235Zm58-16c-2.76,5.493-5.512,11.055-8,17h4l8-17h-4ZM58,236h5c1.155-5.96,4.707-9.924,6-16H64C61.93,225.251,58.731,229.8,58,236Zm17-16-6,16h4c1.167-6.435,5.182-9.419,6-16H75Zm10,0c-0.642,6.958-5.149,9.708-6,17h4c2.324-5.467,5.627-10.9,7-17H85Zm11,0c-1.254,6.357-5.2,10.012-6,17h3a9.185,9.185,0,0,1,2-2v-3h1v-2h1v-2c1.377-2.592,3.207-4.493,4-8H96Z"/>
</svg>
