<?xml version="1.0" encoding="UTF-8"?>
<svg width="24px" fill="#44739e" height="24px" viewBox="0 0 24 24" version="1.1" xmlns="http://www.w3.org/2000/svg" xmlns:xlink="http://www.w3.org/1999/xlink">
            <path d="M3.55,2.01c-1.01,0-1.82,0.83-1.82,1.86v7.43c0,1.02,0.82,1.86,1.82,1.86h7.28c1.01,0,1.82-0.83,1.82-1.86 V3.86c0-1.02-0.82-1.86-1.82-1.86H3.55z M7.19,3.4c2.26,0,4.1,1.87,4.1,4.18s-1.84,4.18-4.1,4.18s-4.1-1.87-4.1-4.18 S4.93,3.4,7.19,3.4z M7.19,4.21C5.61,4.21,4.27,5.29,4.04,6.75C4.03,6.82,4.06,6.89,4.12,6.93c0.06,0.04,0.13,0.05,0.2,0.02 c0.92-0.35,1.9-0.53,2.9-0.52c0.98-0.01,1.95,0.16,2.85,0.51c0.07,0.03,0.14,0.02,0.2-0.02c0.06-0.04,0.09-0.11,0.08-0.18 C10.11,5.29,8.77,4.21,7.19,4.21z M16.83,14.67V8.32c0-0.28-0.22-0.5-0.5-0.5s-0.5,0.22-0.5,0.5v6.35c-1.16,0.24-2.03,1.27-2.03,2.5 c0,1.41,1.14,2.55,2.55,2.55s2.55-1.14,2.55-2.55C18.9,15.93,18.01,14.89,16.83,14.67z M16.35,18.72c-0.86,0-1.55-0.7-1.55-1.55 s0.7-1.55,1.55-1.55s1.55,0.7,1.55,1.55S17.21,18.72,16.35,18.72z M21.51,7.38c0.28,0,0.5-0.22,0.5-0.5s-0.22-0.5-0.5-0.5h-2.44V5.91h0.89c0.28,0,0.5-0.22,0.5-0.5 s-0.22-0.5-0.5-0.5h-0.89V4.45h2.47c0.28,0,0.5-0.22,0.5-0.5s-0.22-0.5-0.5-0.5h-2.66c-0.39-1.02-1.38-1.75-2.53-1.75 c-1.5,0-2.72,1.22-2.72,2.72v9.14c-1.16,0.85-1.83,2.15-1.83,3.61c0,2.51,2.04,4.55,4.55,4.55s4.55-2.04,4.55-4.55 c0-1.47-0.67-2.77-1.83-3.62v-0.29h2.44c0.28,0,0.5-0.22,0.5-0.5s-0.22-0.5-0.5-0.5h-2.44v-0.47h0.88c0.28,0,0.5-0.22,0.5-0.5 s-0.22-0.5-0.5-0.5h-0.88v-0.47h2.44c0.28,0,0.5-0.22,0.5-0.5s-0.22-0.5-0.5-0.5h-2.44V8.85h0.89c0.28,0,0.5-0.22,0.5-0.5 s-0.22-0.5-0.5-0.5h-0.89V7.38H21.51z M19.9,17.17c0,1.96-1.59,3.55-3.55,3.55s-3.55-1.59-3.55-3.55c0-1.21,0.58-2.28,1.6-2.94 c0.01-0.01,0.02-0.02,0.03-0.03c0.03-0.02,0.05-0.05,0.08-0.07c0.02-0.02,0.04-0.05,0.05-0.07c0.02-0.03,0.03-0.06,0.04-0.09 c0.01-0.03,0.02-0.07,0.02-0.1c0-0.02,0.01-0.03,0.01-0.05V4.42c0-0.95,0.77-1.72,1.72-1.72c0.95,0,1.72,0.77,1.72,1.72v9.38 c0,0.02,0.01,0.03,0.01,0.05c0,0.04,0.01,0.07,0.02,0.1c0.01,0.03,0.02,0.06,0.04,0.08c0.02,0.03,0.03,0.05,0.05,0.08 c0.02,0.03,0.04,0.05,0.07,0.07c0.01,0.01,0.02,0.03,0.04,0.04C19.31,14.87,19.9,15.94,19.9,17.17z"/>

</svg>