<svg xmlns="http://www.w3.org/2000/svg" viewBox="0 0 24 24"><path fill="#44739e" d="M3.792 2.448C2.798 2.448 2 3.265 2 4.28v7.316c0 1.005.807 1.832 1.792 1.832h7.169c.995 0 1.792-.817 1.792-1.832V4.27c0-1.005-.807-1.832-1.792-1.832H3.792Zm3.585 1.369c2.225 0 4.037 1.841 4.037 4.116s-1.812 4.116-4.037 4.116-4.038-1.841-4.038-4.116 1.812-4.116 4.038-4.116m0 .797c-1.556 0-2.876 1.064-3.102 2.502-.01.069.019.138.079.177s.128.049.196.02a7.8 7.8 0 0 1 2.856-.512 7.5 7.5 0 0 1 2.807.502c.069.029.138.02.197-.02s.088-.108.078-.177c-.236-1.428-1.555-2.492-3.111-2.492m9.493 10.301V8.662c0-.276-.217-.493-.493-.493s-.492.217-.492.493v6.253a2.514 2.514 0 0 0 .512 4.973 2.509 2.509 0 0 0 .473-4.973m-.473 3.988c-.847 0-1.526-.689-1.526-1.526s.689-1.527 1.526-1.527 1.526.69 1.526 1.527-.679 1.526-1.526 1.526m5.081-11.167c.276 0 .492-.217.492-.492s-.216-.493-.492-.493h-2.403v-.462h.877c.275 0 .492-.217.492-.493s-.217-.492-.492-.492h-.877v-.453h2.433c.275 0 .492-.217.492-.493s-.217-.492-.492-.492h-2.62a2.68 2.68 0 0 0-2.491-1.723 2.68 2.68 0 0 0-2.679 2.678v9.001a4.34 4.34 0 0 0-1.802 3.555c0 2.471 2.009 4.48 4.481 4.48s4.48-2.009 4.48-4.48a4.35 4.35 0 0 0-1.802-3.565v-.286h2.403c.276 0 .492-.216.492-.492s-.216-.492-.492-.492h-2.403v-.463h.867c.276 0 .492-.217.492-.493s-.216-.492-.492-.492h-.867v-.463h2.403c.276 0 .492-.216.492-.492s-.216-.493-.492-.493h-2.403v-.462h.877c.275 0 .492-.217.492-.493s-.217-.492-.492-.492h-.877v-.463Zm-1.585 9.641a3.496 3.496 0 0 1-6.992 0c0-1.192.571-2.246 1.576-2.895l.029-.03c.03-.02.049-.049.079-.069a.3.3 0 0 0 .049-.069c.02-.029.03-.059.04-.088s.019-.069.019-.099c0-.02.01-.03.01-.049V4.821a1.694 1.694 0 1 1 3.388 0v9.237c0 .02.009.03.009.049 0 .04.01.069.02.099s.02.059.04.079c.019.029.029.049.049.078s.039.05.069.069c.01.01.019.03.039.04a3.39 3.39 0 0 1 1.576 2.905"/></svg>