<svg xmlns="http://www.w3.org/2000/svg" viewBox="0 0 24 24"><path fill="#44739e" d="m20.945 17.051.014.025c.011.015.013.009.019-.016l.013-.047.007-.021v-.01q.002-.01-.006-.009a.2.2 0 0 0-.046.015l-.019.01c-.01 0-.014.011-.011.016h.005Zm.048-.159-.021.005-.024.007-.031.014a.4.4 0 0 1 .13-.03.3.3 0 0 0-.054.004m-2.27-.522.229-.013.253-.017.085-.005h-.018l-.339.024-.164.01c-.18.011-.339.021-.392.028l.152-.011Zm3.228.887c-.013 0-.024-.009-.024-.011l-.011-.026a2 2 0 0 1-.064-.147c0-.005 0-.007.01-.011a.05.05 0 0 0 .026-.042v-.075l-.005-.05v-.09l-.014-.018c-.011-.01-.01-.026-.015-.04v-.031c.005 0 .006-.006 0-.007h-.012q-.002-.012-.011-.012h.01v-.009s-.006-.011 0-.016v-.008s-.011-.006-.02 0l-.006.005h-.008a.02.02 0 0 0-.006.023v.027a.04.04 0 0 0 .014.016l.017.009v.01h-.008a.03.03 0 0 1-.019 0q-.023.001-.018.01a.02.02 0 0 0 .016.007l.02.007c.011.006.025.007.022 0h.006a.02.02 0 0 1 .012.01v.076l.007.116q.002.013-.006.013v.03l-.013.007a.1.1 0 0 1-.032.011h-.03v-.072a1 1 0 0 0-.011-.172q-.002.002-.027-.007h-.053l-.009.02c0 .011-.02.05-.034.09l-.032.092a.2.2 0 0 0-.019.057.14.14 0 0 1-.043.065c-.017.017-.022.007-.03.01a.2.2 0 0 0 .057-.07.1.1 0 0 1 .011-.033l.046-.126c.02-.054.039-.1.043-.109a.1.1 0 0 0 .011-.033.5.5 0 0 1 .03-.087.03.03 0 0 0 0-.016v-.02h.036l.048-.008h.007l-.056-.05-.026-.02-.025-.019-.029-.02-.043-.027-.019-.011-.022-.009h-.007l-.009.009c-.007.006-.01.006-.047 0a.06.06 0 0 1-.051-.023h.007l-.025-.014-.034-.046-.033-.039a2 2 0 0 0-.087-.1c-.015-.015-.007-.017-.013-.027l.009.012.034.039v.006l.02.025.011.011.017.02.006.007.012.015.028.033.038.021-.2-.229h.002c0-.01-.015-.022-.015-.031 0-.027-.006-.037-.033-.033h-.02s0-.013.029-.027l.029-.016.006-.008h-.008l.019-.012v-.006a.2.2 0 0 0-.052-.007h-.062.007a.3.3 0 0 1 .052.007v.006l-.01.007-.058-.009h-.039l-.182-.022-.1-.01h-.064a.01.01 0 0 0 0 .013v.021l.019.018c.026.014.081.039.192.088l-.018.009-.025-.011-.017-.008c-.111-.05-.167-.074-.191-.088l-.017-.01-.005-.006v-.027c-.009 0-.006-.008-.006-.01h-.1.082l.014.027.008.016a.6.6 0 0 0 .167.087c.04.017.077.042.116.06h.006a5 5 0 0 1 .458.239l.008.007h-.034a.1.1 0 0 0-.04.01h-.016a.02.02 0 0 0-.017 0h-.081a2 2 0 0 0-.244 0c0 .005-.025 0-.027 0a.07.07 0 0 0-.052-.012h-.029l-.028-.022-.106-.084a10 10 0 0 0-.299-.236q-.055-.042-.089-.065l-.02-.012a.1.1 0 0 0-.036-.017h-.015l.025.009h.008l.014.007c.02.011.018.017.037.027l.01.008-.01-.007c-.019-.01-.017-.016-.037-.027l-.012-.007h-.008l-.025-.008h-.008a.4.4 0 0 0-.1-.009c-.037 0-.009 0-.179-.008q-.026.001-.15-.005h-.233q-.31.001-.616.035a1 1 0 0 0-.099.011 1.4 1.4 0 0 0-.189.046l.012-.006-.035.011h-.014l-.058.021c-.013.006-.061.024-.125.053h-.013l-.049.03-.026.014-.023.012h-.019l-.041.025-.024.013-.033.019-.025.014h-.012c-.034.02-.087.051-.149.09l-.039.025a2 2 0 0 0-.118.081c-.009.008-.131.059-.121.043a2 2 0 0 1 .209-.147l-.252.157-.041.011h-.021.01l.041-.011.252-.157.015-.009.099-.063.186-.106.078-.042.068-.034.042-.022.03-.013.017-.009h.01l.022-.009h.007-.008l-.025.01-.024.012-.023.01-.027.012-.135.062-.1.055-.1.052-.031.02-.074.044-.026.014h-.007l-.335.184h-.026a.1.1 0 0 1-.065.028c-.1.008-.976.244-1.151.292h.017c.029 0 .185-.014.239-.021l.114-.008a.3.3 0 0 0 .091-.013l.021-.007h.005l-.02.012h-.012a.3.3 0 0 1-.091.013l-.068.005a.02.02 0 0 1 .013 0h-.015l-.014.008-.011.01h-.005l-.025.022-.024.023c-.008.007 0-.005 0-.016v-.011a.3.3 0 0 0 .052-.045h-.01l-.066.006v.044a.04.04 0 0 1 0 .021.03.03 0 0 0 .006.022l.009-.008v.036l-.025.024h.015s-.012.019-.034.03a2 2 0 0 1-.172.043c-.044.009-.059.012-.061.023a.1.1 0 0 0 .01.032c.007.016.019.05.029.081.016.049.031.09.06.165q.022.055.029.028l.007-.032a1 1 0 0 1 .049-.15l.005-.023q.001-.035.067-.039c.018 0 .073-.009.1-.013 0 0 .013-.01.021-.02a.47.47 0 0 1 .545-.176.53.53 0 0 0-.531.185.05.05 0 0 1-.051.024c-.091.008-.119.014-.119.027l-.016.047a2 2 0 0 0-.051.168q0 .03-.024.028a.02.02 0 0 1-.017-.006.2.2 0 0 1-.024-.053l-.025-.061-.01-.026a.4.4 0 0 0-.019-.054l-.033-.092a.2.2 0 0 0-.019-.051c-.006 0-.009.011-.014.048s-.008.048-.013.048v-.063.01-.006q.001-.035.023-.041l.012-.006h.011a.6.6 0 0 0 .138-.03.3.3 0 0 1 .06-.017c.048-.01.052-.012.052-.017q-.001-.011-.052 0c-.067.008-.074.01-.083.019a.04.04 0 0 1-.04.007.1.1 0 0 0-.029 0h-.04v-.06h.005l-.006-.018v-.016h.086a.03.03 0 0 0 .018.005.02.02 0 0 1 .013 0h.037v.007q.015.014.036-.025l.007-.017-.112.011h.012c.024 0 .051-.007.073-.009h.027-.005a.5.5 0 0 0-.114.014h-.04l.011-.01c.177-.05 1.053-.284 1.151-.292a.1.1 0 0 0 .058-.024 2 2 0 0 0-.409.03c-.143.02-.215.031-.266.041a2 2 0 0 0-.319.094 1.1 1.1 0 0 0-.257.151q-.03.023-.029.031c.002.005.005 0 .008 0v.1l-.019.015q-.02.013-.018.017c.002.002-.027.017-.033.033a1 1 0 0 0-.013.192.1.1 0 0 0 .028.029.3.3 0 0 1 0 .054q-.002-.013.007-.008v.008l.017.014a.03.03 0 0 1 0 .017v.086a.04.04 0 0 1-.013.045q-.018.014-.023.008c-.004-.004 0-.012 0-.029a.04.04 0 0 0 0-.022h-.016v.016c-.023.1-.022.137 0 .151a.6.6 0 0 0 .264.057c.068 0 .073 0 .073.016a.034.034 0 0 0 .034.033h.008l.085-.013c.011 0 .011 0 .025.021a.45.45 0 0 0 .3.166h-.319v.058h.541v-.05h-.035a.7.7 0 0 0 .331-.13l.027-.021h.143l.034-.018a.3.3 0 0 0 .06-.042l.027-.025h2.568v.017c0 .012.01.013.015.018a.03.03 0 0 1-.012-.025c0-.018 0-.021.005-.022h.009c.003 0 0 .007.007.02v.014-.014h.01v.013l.007.007.008.007a.3.3 0 0 0 .1.057.1.1 0 0 1 .033.022.6.6 0 0 0 .199.1h-.168v.062h.504v-.039a.53.53 0 0 0 .333-.35q0-.034.024 0c.015.023.024.028.073.019s.094-.016.149-.021c.1-.011.111-.02.144-.1.009-.024.047-.119.058-.151.047-.058.04-.076-.018-.092m-.786-1.127a1 1 0 0 0-.131.056l-.023.012.023-.012a1 1 0 0 1 .13-.056l.015-.008.036-.016-.012.008a.1.1 0 0 1-.038.016m.232.244.039.031Zm-5.068.873s0-.012-.007-.049c0-.015 0-.022.011-.017h.012a.1.1 0 0 1 0 .039c-.003.033-.007.033-.016.027m.265.375c-.055-.005-.064-.008-.041-.01a.3.3 0 0 1 .094 0c.002.011-.013.014-.053.01m5.007-1.03a.8.8 0 0 0 .182-.006l-.016-.012.018.014a.8.8 0 0 1-.182.007Zm-.226.221h.007a1 1 0 0 1 .136.077h.009a.013.013 0 0 0 .016 0v-.017l.007-.011.009-.013.02-.014q.027-.015.028-.022v-.011l.009-.01.018-.018c0-.007.01-.012.011-.011a.04.04 0 0 0 .018-.012l.009-.014.01-.018.01-.023c0-.014.015-.04.022-.057l-.006.022c-.007.017-.018.043-.022.057l-.01.023-.009.018-.01.015c0 .005-.016.013-.018.011q-.003-.004-.011.011l-.018.019-.01.01v.015q0 .007-.028.022c-.019.011-.02.013-.02.015l-.009.013-.006.011v.017s-.009.006-.017 0h-.01l-.052-.033c-.02-.012-.028-.022-.043-.031l-.051-.037Zm-.548-.023h-.006l.01-.012.012-.013v.023h.005l-.011.011Zm0 .019-.008.024Zm-.018-.2c-.256.011-.899.047-1.245.071a1.3 1.3 0 0 1-.206.008 1 1 0 0 0 .2-.008c.351-.024.987-.06 1.246-.071Zm0 .191-.006.013v-.01Zm-.313.356h.006l.019-.029a.7.7 0 0 1 .2-.2.3.3 0 0 0 .069-.06l.009-.011v.028l-.006.007a.3.3 0 0 1-.068.06.7.7 0 0 0-.2.2q-.017.026-.021.026v-.006Zm-2.134.312.449-.018.199-.008c.242-.01.285-.012.291-.015a.02.02 0 0 1 .015 0 1 1 0 0 0 .1 0l.178-.008.16-.007.167-.006.33-.014a1 1 0 0 0 .1-.006h.012-.064l-.389.017c-.05 0-.14 0-.199.008l-.235.009-.19.009-.155.007c-.051 0-.124 0-.162.006l-.154.007-.167.006-.2.008-.415.018h-.1.107Zm-.172-.67a1 1 0 0 1 .1-.01h.069s-.018 0-.087.009l-.069.005Zm1.299-.1.209-.013c.334-.022.65-.04.859-.05l.137-.007-.022.007-.114.008h-.01l-.132.007a1 1 0 0 0-.188.007l-.218.015a1 1 0 0 0-.108.008h-.122l-.205.013-.191.013a.2.2 0 0 1-.046.009h-.051l-.121.008c-.193.011-.336.02-.378.024a.4.4 0 0 1-.083 0l.06-.005.113-.008c.03 0 .076-.007.1-.008l.134-.01.134-.011.077-.006Zm-.153-.009v-.022.01Zm1.21-.008h-.022a.4.4 0 0 1-.088.005v-.008l.006-.006h.052a.2.2 0 0 1 .051 0Zm-.124-.01v.014a.01.01 0 0 1 0-.016Zm-1.074.465-.009.008-.009.008-.009-.011v-.08l.006-.075v-.058s0 .038.006.083.006.093.008.108v.026Zm.983-.384h-.083l-.086-.007a.1.1 0 0 0-.048 0 1 1 0 0 1-.133 0h-.002a.2.2 0 0 1-.058 0h-.012l-.032-.006s-.008 0-.006-.006 0-.018 0-.018h.044a.14.14 0 0 0 .058 0h.011a1 1 0 0 0 .132 0 .2.2 0 0 1 .051 0 .4.4 0 0 0 .085.007h.067a.02.02 0 0 0 .016 0h.063a.1.1 0 0 1 .044 0 .1.1 0 0 0 .033.006.1.1 0 0 1 .029 0h.015a.3.3 0 0 0 .061.01l.038.011.023.015h.014l.01.006h.02l.011.007h.009c.008 0 .015 0 .044-.01s.037-.012.036-.009a.1.1 0 0 1-.033.021l-.022.014h-.025l-.014.014-.01-.006h-.033l-.008-.006-.021-.014-.037-.011a.3.3 0 0 1-.061-.01l-.01-.006a.1.1 0 0 0-.03-.005.1.1 0 0 1-.033 0 .07.07 0 0 0-.044 0h-.027a.1.1 0 0 0-.043.001Zm.289.178c-.01.007-.011 0 0 0a1 1 0 0 1 .136-.093l.033-.02q.027-.012.013.008c-.008.014-.021.017-.062.038a1 1 0 0 0-.117.065Zm-.132.153a.4.4 0 0 1 .042-.063l.015-.02v-.008l.007-.007h.041l.006.008-.007.008h-.018q-.02-.002-.024.006l-.066.089a.03.03 0 0 1 .007-.015Zm.107-.076-.014.012-.006-.006h.01Zm.383-.241a1 1 0 0 1 .135 0c.064.007.1.015.1.022h-.038a.2.2 0 0 1-.052 0 1 1 0 0 0-.257.026c-.029.008-.034.008-.034 0s.07-.041.146-.048m.065-.163h-.116Zm-.117.032a.1.1 0 0 0 .038 0h.093a.1.1 0 0 1 .034 0v.007c0 .006.007 0 .012 0s.051-.009.063 0-.013.026-.023.026c-.007 0-.017.008-.012.011s0 .028-.009.028h-.01.006-.008s-.009.005-.03.005-.045 0-.037.008h.031c.042 0 .057.012.018.012h-.022a.04.04 0 0 1-.022 0h-.028a.02.02 0 0 1-.014 0 .02.02 0 0 0-.013-.005.015.015 0 0 1-.015-.026q0-.009-.019-.008a.04.04 0 0 1-.036-.024h-.007v-.009a.02.02 0 0 1 .013-.025Zm-.037-.161h-.248.211l.029.008c.008 0 .013.008.013.014s0 0-.009.007a.1.1 0 0 1-.033.01l-.03.006-.084.014h-.025l-.114.009h-.292a.3.3 0 0 0-.069 0c-.007 0-.07 0-.258.006h-.134c-.073 0-.237.006-.4 0-.075 0-.072 0-.072-.029 0-.014-.008-.022.018-.027s.133-.01.4-.022l.144-.007h.022l.192-.007h.019c.242-.009.33-.013.3-.014l-.223.007.3-.01h.013c.119 0 .215-.007.259-.007h.065Zm-.456-.385.024.017c.222.169.307.237.399.318q.024.02.024.028c-.001.005-.01-.014-.024-.027a5 5 0 0 0-.399-.318Zl-.016-.013Zm-1.427-.046.057-.006h.026-.016q.087-.009.2-.016h.051l-.141.009c-.071 0-.137.01-.191.016Zm-.12.025h.007-.017Zm-.88.417-.008.006Zm-.087.086v-.008c0-.008.011-.007.016-.012l-.018.02a1 1 0 0 1 .077-.06h-.018a.8.8 0 0 1 .148-.116l.051-.033.029-.017.017-.011.058-.034.015-.009.033-.018.024-.014.033-.019.027-.015.023-.012.026-.013c.014-.008.026-.013.048-.023l.058-.026.093-.038.059-.021.035-.01.037-.009-.027.008a2 2 0 0 0-.278.111c-.089.044-.2.106-.278.155l-.017.011-.029.017-.051.033-.011.01a.2.2 0 0 1 .04-.026.2.2 0 0 1 .051-.019q.025.002.023-.008v-.01c0-.011.021-.025.118-.077a.4.4 0 0 1 .067-.034.3.3 0 0 1-.042.029.2.2 0 0 0-.042.028s.079-.037.185-.092a1.4 1.4 0 0 1 .668-.172h.206l-.014.091-.041.369h.055l.021-.174.011-.088.026-.215h.021v.012l-.046.481h.061l.028-.46s.026 0 .038-.006h.324c.133 0 .269 0 .313.006l.078.007h.023l.022.014a1 1 0 0 1 .109.087l.148.137.019.01h.052a.2.2 0 0 0 .051 0 1 1 0 0 1 .188.15l.005.007a1 1 0 0 1-.182.012c-.2.006-.681.024-.8.029l-.19.008-.214.01-.135.007h-.07a.4.4 0 0 1 .066.005v.008a.1.1 0 0 1-.017.044 1 1 0 0 0-.165 0c-.045 0-.14.007-.188 0h-.015a.1.1 0 0 1-.029 0h-.155a1 1 0 0 0-.1 0 .4.4 0 0 1-.057 0l-.075.006h-.066a.16.16 0 0 1-.089 0c-.046-.011-.057-.015-.051-.021h.025-.029a.4.4 0 0 1-.081 0 .014.014 0 0 0-.015 0l-.039.006c-.011 0-.008.005-.017.007l.016.011a.2.2 0 0 1 .052.043.4.4 0 0 0 .062.056l-.063-.052a.2.2 0 0 0-.051-.043q-.016-.008-.017-.012c-.022 0-.045.009-.046.019s0 .015.015.027q.02.02.019.029c-.001.005 0 0-.018 0l-.063-.051h-.007l.006-.021a.5.5 0 0 0-.138 0h-.025c-.005 0 0-.013.003-.021Zm.06.046a.3.3 0 0 1-.051.014c-.008 0-.006-.01 0-.014s.059-.005.054 0Zm-.06 0a.03.03 0 0 0-.011.014Zm-.2.01a.2.2 0 0 1 .06-.009h.109c0 .007-.013.026-.027.03l-.021.007a.4.4 0 0 1-.068.013c-.018 0-.026 0-.026.009s0 0-.02 0a.1.1 0 0 0-.027.01.2.2 0 0 1-.057.025l-.022.012-.021.012-.036.02-.029.015-.022.013-.022.013-.02.016c-.012.012-.015.014-.023.012s-.019-.007.018-.031l.051-.036.071-.05.082-.057a.2.2 0 0 1 .056-.029Zm.133.591v.022l-.006-.018Zm-.009-.384-.006.015a.03.03 0 0 1-.022.015.4.4 0 0 0-.078.032h-.013a.04.04 0 0 0-.02.011l-.019.016-.009.01-.012.01-.008.008h-.021l-.007-.008q-.025-.025-.024-.027l.013.008.024.014h.021l.008-.008.012-.01.009-.01.019-.017.02-.01h.013a.3.3 0 0 1 .079-.032.03.03 0 0 0 .027-.022Zm-.64-.107.023-.008.076-.022a1 1 0 0 0 .148-.045h.009a1 1 0 0 1 .105-.018h.098l-.009.007s-.03.022-.058.04l-.19.129-.016.012-.043-.009a1 1 0 0 0-.138-.019c-.041 0-.047 0-.047-.013a.02.02 0 0 0-.006-.011c-.005-.023.013-.036.054-.048Zm-.537.275.024-.023.025-.018c.02-.017.052-.04.07-.053l.018-.013.031-.006h.011l-.008.007-.025.019c-.018.013-.051.036-.07.053-.039.032-.051.037-.068.037Zm.473.019.063.006a.5.5 0 0 1 .18.045c.025.011.031.01.032.008s0 .009-.032 0a.5.5 0 0 0-.181-.046.4.4 0 0 1-.063 0h-.011Zm-.03.399a.04.04 0 0 0 .016.014l.009.008v.014h-.008l-.01-.015-.051-.053a.4.4 0 0 1-.04-.045l-.022-.025s0-.005-.011-.009l-.008-.009-.032-.036-.028-.031a.01.01 0 0 1 0 .012l.026.029.015.015.018.002h-.009a.1.1 0 0 1-.04.007.2.2 0 0 0-.048.006h.014-.021.076l.046-.006-.006.006c-.006.006-.009 0 0 0s.021.006.062.051l.017.018v.008l.022.024h.008v.01l-.02.006a.3.3 0 0 1-.052.015v-.022.03l.052-.018.02-.007c.008 0 0-.007 0-.012Zv.009c0 .006-.017.011-.078.028l-.048.034c-.026.008-.035.007-.041 0l-.022.008a.4.4 0 0 1-.072.022v-.008q-.001-.002.037-.015c.026-.008.033-.011.036-.016q.004-.008-.031-.033l-.034-.025-.022-.013a.3.3 0 0 0 .041.037c.027.021.039.029.039.035q0 .007-.037.016l-.022.009c.012 0 .007-.014.026-.019q.027-.006.019-.011l-.018-.014-.038-.029-.025-.019h-.006v-.015c0-.004.013.007.015 0q-.01.01-.008 0l.006-.005v-.023l.01-.028.006-.01v-.009a.2.2 0 0 0-.025.076.1.1 0 0 1 .006-.06c.013-.028.019-.03.107-.037.026 0 .029 0 .015-.019l-.008-.009-.008-.009-.015-.022-.006-.011v-.021c0-.006.017-.008.062.043.076.089.105.12.114.12a.03.03 0 0 1 .02.008v.006a.03.03 0 0 0 .011.02Zm-.257.126c-.009.006-.023 0-.021 0h.023Zm-.033-.108v.019a.03.03 0 0 1 0-.017Zm.094-.265a.3.3 0 0 0-.08.099.4.4 0 0 1 .084-.109.02.02 0 0 0 .009-.012s.007.003-.007.013Zm-.113.134-.009.029a.1.1 0 0 1-.018.034q-.019.021-.006.033v.059a.1.1 0 0 1 0-.032v-.019h-.005q-.012-.011.006-.033a.1.1 0 0 0 .019-.034.1.1 0 0 1 .008-.029v-.02a.06.06 0 0 1 .021-.043q.01 0 .008-.018v-.016l.006-.012a.15.15 0 0 1 .04-.061.14.14 0 0 0-.034.052.02.02 0 0 1-.006.013.03.03 0 0 0 0 .016c0 .012 0 .014-.008.018a.05.05 0 0 0-.021.042l.005.012Zm.67.325q-.047-.02-.048-.007a.4.4 0 0 0 .018.066c0 .005-.008.01-.007.015l-.012-.043a.3.3 0 0 1-.014-.055c0-.01.014 0 .043.006a.1.1 0 0 0 .039.01h.01c-.003-.005-.006.005-.023-.001Zm-.062.011v.01-.008l-.006-.02v-.012.01Zm.13-.111a.03.03 0 0 0-.011.018l-.008.024c-.008.017-.008.017 0 .024s0 .007 0 .009l-.011-.006-.019-.007-.085-.029a.4.4 0 0 0 .057.02c.048.015.06.02.056.027h.005-.016.007-.024a.1.1 0 0 1-.041-.01c-.029-.01-.041-.012-.045-.006v-.008c0-.006.016 0 .046.006a.2.2 0 0 0 .04.01.02.02 0 0 1 .016 0h.008c0-.007-.008-.012-.056-.027l-.043-.015a.3.3 0 0 0-.047-.019c-.025-.008-.052-.019-.063-.023l-.02-.007h-.019a.03.03 0 0 0-.026 0l-.007.027v.055-.055c0-.006.008 0 .009 0a.03.03 0 0 1 .022-.006c.011 0 0-.008.014 0l.063.026c.039.014.052.02.052.029l.013.045.015.05v.013l.008.009a.07.07 0 0 1-.038.074c-.026.018-.034.016-.1-.025l-.027-.016c.007 0 .01-.006.032.009s.028.015.035.016l-.02-.01q-.021-.015-.018-.015h.01l.012.01.017.01.01.006s0-.009-.018-.017l-.052-.031-.033-.018c-.006 0-.01 0-.012-.011v.017c0 .014 0 .05.005.078 0 .053 0 .06.016.056v-.03h.026s0 .006-.018.013-.027.023-.021.029l.081-.023q.03-.011.031-.006.002.006-.04.026a.3.3 0 0 1-.168.015h-.031q-.014.002-.029-.007h-.015.02c-.01 0-.022 0-.032-.009a.4.4 0 0 1-.068-.05l-.028-.017-.046-.039a.1.1 0 0 0-.026-.022l.006.01.017.019c-.008-.009-.021-.01-.029-.019a.3.3 0 0 1-.064-.125q-.006-.03.007-.014a.1.1 0 0 1 .015.029l.007.014h.022c0-.005.011-.01.046-.024l.073-.041c.007-.005.009-.01-.005-.01s-.01 0-.013-.018v-.017a1 1 0 0 0-.091.03c-.034.013-.046.014-.051 0l.009-.006v.01l.027-.007a2 2 0 0 1 .149-.053l.071-.022.034-.011a.1.1 0 0 1-.028.014l-.067.021q-.008.002 0 .007c.006.002 0 .011 0 .029s-.007.018.008.014l.082-.036c.006 0 .006 0 0-.009q-.011-.014 0-.02.01-.004.014.006v.008h.024v.051h.005c-.002 0 0-.023.008-.024s.012 0 .007-.014.016-.018.042-.012.029 0 .026 0h-.008l-.01-.007v-.021h-.009l-.011-.009v-.007h-.007a.02.02 0 0 1-.013-.008s0-.008.014-.008h.014-.005a.02.02 0 0 1 0-.017c0-.006.016-.005.02 0q.007.008.014 0c.004-.006 0-.008 0-.011-.006-.006 0-.009.008 0s.013 0 .036-.033l.038-.054c.051-.069.07-.099.066-.114-.01-.011-.036-.025-.041-.021a1.3 1.3 0 0 0-.099.168c-.044.091-.057.107-.076.1l-.011-.006-.006.007c0 .006-.011.006-.015 0v-.011q-.002-.01.007-.01c.007-.001.01 0 0-.015l-.012-.014-.009-.009-.012-.016a.2.2 0 0 0-.025-.037c-.014-.019-.034-.045-.043-.06s-.028-.039-.04-.054-.027-.042-.016-.048.01 0 .015 0h.019q.009-.001.025.026a.1.1 0 0 0 .024.027l.016-.052.012-.035.009-.013a.4.4 0 0 0-.14.029q-.028.016-.03.008-.003-.006.01-.017c.01-.008 0 0 0 0a.03.03 0 0 0-.019.007l-.006.008s0-.009.012-.016q.016-.01.018-.007v.006l-.009.016q.001.002.03-.008a.4.4 0 0 1 .14-.029l.007-.011a.2.2 0 0 1 .061 0c.018 0 .035-.014.054-.011a.4.4 0 0 1 .144.05l.024.017q.02.017.037.036-.015-.017-.032-.033l-.024-.016a.5.5 0 0 0-.144-.051c-.019 0-.036.012-.055.012h.032l.033.006a.2.2 0 0 1 .04.015.3.3 0 0 1 .049.017h.006a.2.2 0 0 1-.027.045l-.036.057-.015.025s.008 0 .019-.024.021-.035.036-.057a.2.2 0 0 0 .026-.045h.01a.03.03 0 0 0 .013.01.3.3 0 0 1 .059.039v.012l-.006.012a.1.1 0 0 1-.021.036.1.1 0 0 0-.019.03l.019.006h.049c.033 0 .047 0 .053.01l.011.023c.014.034 0 .041 0 .058v.02l-.027.02-.046.039-.009.009-.006.007-.008.008h-.044l.043.009q.008-.001.006.006a.2.2 0 0 1-.048-.008 1 1 0 0 1-.092-.025h.027l.06.013-.06-.014c-.025-.006-.022-.011-.031-.016l-.016-.009h-.009a.1.1 0 0 1 .022-.042l.023-.04-.013.015a.3.3 0 0 0-.045.076.02.02 0 0 0 .01.015 2 2 0 0 0 .19.046.3.3 0 0 1 .051.013.04.04 0 0 0 .027 0h.01c0-.005.01 0 .012 0v.009s.008-.035.005-.03Zm-.206.014.058.02Zm.053.03-.034-.016h-.02l-.024-.01H17.3l-.018-.008c-.005 0 0 0 0 0l.012.006h.006l.025.01.02.008c.037-.011.042-.005.046.001Zm-.146.133a.02.02 0 0 1 .019 0v.007c.002-.019-.008-.018-.013-.016Zm.006.063-.006-.03a.1.1 0 0 1 0-.034.1.1 0 0 0 0 .033Zm0-.029h.012a.1.1 0 0 0 0 .033c0-.012-.009-.024-.012-.036Zm.009-.023h-.006Zm-.069-.245c-.015 0-.016 0-.015-.008 0-.005 0-.013.012-.013h.028v.014a.02.02 0 0 1-.02.013.04.04 0 0 1-.038 0h.015s0 .006.016.007h.008Zm.039.012q-.002-.01.007-.01v.007c.007-.007.001-.003-.001-.006Zm.208-.388a.1.1 0 0 0 .031.022.1.1 0 0 1-.025-.029Zm-.029.152q-.017.022-.016.027v-.007Zm.1.24c.007 0 .01 0 .013-.009s0-.012.007-.008v.011l.01.024a.01.01 0 0 1-.011-.006s-.014-.008-.038-.013-.042-.009-.041-.016.013-.018.04-.041a.1.1 0 0 0 .032-.033v.019a.3.3 0 0 0-.059.054.3.3 0 0 0 .051.009Zm.012.009h-.007Zm-.072-.025v-.014.018Zm-.187-.02h-.005v-.007Zm.293-.144-.009-.008-.012-.014-.009-.014a.3.3 0 0 0-.034-.05q-.014-.016-.03-.03l.027.028a.2.2 0 0 1 .034.049l.01.014.012.014.009.009a.1.1 0 0 1 .015.044.1.1 0 0 0-.009-.051Zm-.059-.167s-.016-.011-.016-.014l.02.005Zm.009.007v.007Zm.066.206a.3.3 0 0 0 .017.053.2.2 0 0 1-.016-.048Zm.031.231c-.008 0 0 0-.008-.006a.1.1 0 0 1-.018-.056.1.1 0 0 0 .016.051l.009.007a.2.2 0 0 0 .022-.06c.01.001-.009.055-.017.055Zm.038-.143c0 .03-.009.043-.014.038l-.006-.011v-.014h-.018c-.007-.008-.01.025 0 .046-.008-.019 0-.056 0-.05h.018l.006.014v.011q.01.009.014-.038v-.028l.004.023Zm-.161-.433a.54.54 0 0 1 .232.308.54.54 0 0 0-.223-.317Zm.235.152-.055-.059a.7.7 0 0 0-.179-.137c-.012-.007-.022-.02-.034-.026l-.007-.006h-.013a.66.66 0 0 0-.579.047l-.033.006-.064.036h-.009v-.009a.5.5 0 0 1 .132-.119.5.5 0 0 0-.123.111l-.006.009h.009l.064-.035.025-.014a.7.7 0 0 1 .273-.089c-.03 0-.059-.015-.089-.011-.1.013-.109.011-.061-.012a.6.6 0 0 1 .179-.051 1 1 0 0 1 .169.007.4.4 0 0 1 .076.016l.03.008a.7.7 0 0 1 .182.115l.018.019a.6.6 0 0 1 .076.091.04.04 0 0 1-.016-.009 1 1 0 0 0-.085-.058l-.059-.033a1 1 0 0 0-.089-.034c.012.006.022.019.034.026a.6.6 0 0 1 .178.137c.02.022.045.05.056.059l.051.051.015.015v.026l-.014-.011-.015-.014c.002-.024-.022-.051-.033-.061Zm.029.326a.2.2 0 0 1-.007-.047q.002-.019-.006-.038c0 .014.009.027.01.041a.1.1 0 0 0 0 .039Zm.075.161h.008c-.064 0-.082 0-.082-.006s0-.007.043-.008h.036c.005-.006.063 0 .063.007s-.004-.004-.064-.002Zm.077-.153h-.025a.4.4 0 0 1-.069 0c-.037 0-.051 0-.057-.008h.056c.052 0 .064 0 .067-.017v-.038c0-.05-.007-.141-.006-.156a1 1 0 0 1 .009.1c.006.1.01.115.028.116Zm-.007-.681v-.093l.006-.023v.106a.1.1 0 0 0 .028-.006c.072-.019.086-.025.1-.039l.013-.01c.013 0 .057-.043.077-.07a.25.25 0 0 1-.085.08l-.014.01c-.013.014-.027.02-.1.039l-.025-.003Zm2.337.859h.006-.011.2a.014.014 0 0 1 .015 0 2 2 0 0 1-.206-.009Zm.275-.212a.4.4 0 0 0-.007.1h.006c0 .063.007.058-.07.058-.1 0-.148-.006-.106-.012s.026-.008-.006-.008-.046 0-.044.01-.013.011-.033.013h-.335c-.47.006-.881.01-1.768.018a1.2 1.2 0 0 1-.228 0c-.009-.011 0-.011.278-.013h1.882c.154 0 .169 0 .17-.013a.1.1 0 0 1 .041-.045q.043-.037.082-.078l.052-.051h.005l.011-.009a.2.2 0 0 1 .071 0s.007-.018.003.021Zm.178-.17a.2.2 0 0 0-.034.1l-.011.019a.07.07 0 0 0-.012.068v.008q.008.007.02-.012.012-.016.013-.01a.07.07 0 0 1-.01.05q-.02.042-.03.026a.04.04 0 0 1 0-.018v-.038a.1.1 0 0 1-.007-.038.5.5 0 0 1 .029-.175 1 1 0 0 1 .042-.081l.011-.019a.6.6 0 0 1 .106-.107l.024-.016a.5.5 0 0 1 .088-.04l.02-.007a.4.4 0 0 1 .107-.021.4.4 0 0 1 .071 0h.088c.022.006.033.025.051.034a.3.3 0 0 0-.067-.025l-.032-.008a1 1 0 0 0-.116-.006l-.035.006a.2.2 0 0 0-.063.014l-.018.006a.5.5 0 0 0-.086.041l-.013.008a.5.5 0 0 0-.081.072l-.009.011a.1.1 0 0 0-.025.035l-.014.021a.04.04 0 0 0-.008.018v.006l.027-.03a.3.3 0 0 1 .04-.041l.048-.04a.1.1 0 0 1 .041-.03l.021-.008.063-.026q-.018-.002-.036.008c-.031.013-.052.017-.052.011a.1.1 0 0 1 .036-.024h.01a.1.1 0 0 1 .041-.018h.009a.2.2 0 0 1 .077-.026h.039a1 1 0 0 1 .091 0h.024V17h-.069c-.013 0-.026.008-.039.008h.03a.3.3 0 0 1 .159.035c.015.015.016.015.025.008a.04.04 0 0 1 .018 0h.005a.4.4 0 0 1 .122.078l.014.018.021.034q.012.016 0 .015-.014 0 0 .015c.01.009.007.023 0 .023a.02.02 0 0 1-.015-.008v-.007l-.008-.014a.012.012 0 0 1-.005-.016h.005l.006-.007v-.008q-.008-.009-.007 0c0 .006-.011.012-.027 0s-.028-.029-.043-.029-.017 0-.032-.014l-.034-.023-.029-.02-.023-.012h-.109.007l.007.014.015.04a.2.2 0 0 0 .021.054c.006.007.012 0 .027-.028.034-.056.036-.058.059-.044l.007.006c.008.009 0 .023-.04.083l-.054.081.027-.043.041-.063a.1.1 0 0 0 .022-.037l-.006-.008c-.009 0-.009 0-.013.006s0 .009-.008.008-.013.008-.034.043-.026.042-.06-.053l-.011-.023a.2.2 0 0 0 .017.05l.022.058.01.017v.008a.4.4 0 0 1-.046.082l-.039.062h-.008c-.018 0-.016.005-.062-.071-.038-.065-.038-.079-.038-.088v-.008l.034-.1v-.025s-.008.01-.013.021l-.006.015a.4.4 0 0 1-.024.068c-.006 0-.01 0-.031-.031a.2.2 0 0 0-.03-.037c-.006 0-.01-.009-.01-.012a.02.02 0 0 0-.019 0v.006c0 .007 0 .017.023.039s.045.064.115.166a.4.4 0 0 0 .047.061h-.007l-.07-.1c-.051-.073-.088-.129-.107-.15l-.013-.012-.016.01-.019.012c-.012 0 0 .03.047.083l.021.026.021.025.028.035.022.028.006.007.012.014.008.011h.03c.004 0 0 .015-.008.016s-.007 0 0 .014a.02.02 0 0 1 0 .027 1 1 0 0 0-.113-.147l-.061-.074c-.025-.035-.03-.038-.041-.027v.012l.009.013.028.036q.026.027.025.035c-.001.006-.019.008-.062.009s-.052 0-.054.007a1 1 0 0 0 .132-.007c.008 0 .018.006.07.068s.052.068.041.075h.015l.005.006h-.01c-.008 0-.031.01-.047.015s-.028 0-.048.008l.037-.011.028-.01-.034.01-.075.02c-.028.009-.036.011-.037.008s-.017-.013-.025-.02l.008.01q0 .009-.051.02l-.018.009c.01-.006 0-.014.02-.019s.035-.009.028-.018l-.031-.024a.3.3 0 0 1-.05-.042c-.015-.017-.01-.031 0-.073s.012-.04.03-.043l.085-.008c.029 0 .032 0 .013-.023l-.009-.011-.023-.016q-.02-.026-.02-.032c0-.005.018-.028.024-.028a.04.04 0 0 0 .015-.012l.028-.023.02-.015a.4.4 0 0 0-.068.033 1 1 0 0 0-.074.082c0 .006-.011.013-.015.008s-.024.007-.024.023l-.011.022Zm.144-.215a.2.2 0 0 1-.034.027c-.008 0 0-.009.008-.017a.04.04 0 0 1 .022-.013v.007Zm-.042.032-.007.007h-.007v-.009Zm.68.146v.006a.01.01 0 0 1 0 .011s-.008 0-.012-.007v-.01c.002-.015.008-.015.016-.009Zm-.285-.032v-.006Zm-.078.157.012-.019.03-.044v.006Zm.02.023s0 .007-.008.008h-.005v-.022h.01Zm-.012.41c0 .023 0 .033.01.034h-.069v-.091a.1.1 0 0 0 .028.005h.027v.02l.008.023Zm0-.218v.05Zm-.061.161v-.031.016c0 .009.007 0 .015 0h.01l-.014.006c-.014.006-.005-.005-.005-.003Zm.025-.271h-.016a.01.01 0 0 1-.013 0 .02.02 0 0 1-.006-.022h.007a.1.1 0 0 1 .052 0 .02.02 0 0 1 0 .018c.003-.008-.009-.003-.018-.008Zm-.032-.053h.014-.006Zm-.066-.201v.024l-.008-.009q-.01-.01-.008-.014h.008v-.009h.006Zm-.032-.045h-.012c0 .007-.037-.038-.038-.049s.008 0 .01 0a.02.02 0 0 0 .012.01.02.02 0 0 1 .012.011l.01.015Zm.064.188s0 .009-.006.009l.007-.007Zm0 .121a.01.01 0 0 1-.01.011h-.008v-.027h.013Zm-.133 0 .027-.005h-.047.01l.026-.01-.019.007-.009.006Zm-.147.148c0-.014 0-.018.063-.044s.079-.033.051-.03h-.02l-.007-.011-.006-.019s0-.007-.008-.007l-.045.014c-.043.015-.052.016-.059.007s.014-.008.014-.013.007.01.036 0a.6.6 0 0 1 .111-.034c.046-.01.078-.02.105-.028l-.041.013c-.008 0-.006.01-.006.021s0 .017-.011.023-.023.016-.017.016h.023l.054-.024c.056-.024.078-.03.086-.02v.215-.052.016-.033h.006v-.128c-.007 0-.021 0-.1.035l-.199.079a.01.01 0 0 0-.007.01.01.01 0 0 0 0 .011h.022a.2.2 0 0 0 .041-.013c.023-.009.019 0 .027 0-.07.027-.09.034-.099.026Zm.131.176-.029-.025q-.009-.01 0-.008c.007.002.019.006.014 0l-.008-.008-.011-.011v-.03l.013-.054a.1.1 0 0 0 .01-.05s.014-.005.014 0v.035a.2.2 0 0 0 .017-.058c0-.014 0-.017.029-.028l.075-.034c.033-.016.047-.022.056-.02s.008 0 .008.008v-.016.209a.1.1 0 0 1 0 .041v.072h.006-.025a.2.2 0 0 1-.044 0 .2.2 0 0 0-.043 0h-.008l.012.007a.4.4 0 0 1-.08-.042Zm.086.04h.007a.4.4 0 0 0 .122 0h.018a.3.3 0 0 0 .076 0h.018l.038-.013a.35.35 0 0 0 .163-.11.385.385 0 0 1-.436.111Zm.2-.085v-.035q0-.017.015-.008a.5.5 0 0 1 .076.05.02.02 0 0 0 .015.007h.034l-.032.018-.015.009a.3.3 0 0 1-.046.017c-.009 0-.007.006-.012.009l-.035.006h.006v-.024a.2.2 0 0 1 .004-.061Zm0-.048h.005Zm.254-.006a.1.1 0 0 0-.026.025c-.019.019-.045.022-.066.037.022-.018.039-.034.039-.039q0-.01-.051.023c-.034.023-.038.021-.059.006l-.031-.018a.3.3 0 0 1-.063-.046l-.003-.019v.036a.2.2 0 0 0 .005.047.2.2 0 0 1 0 .065.2.2 0 0 0-.005-.06.2.2 0 0 1 0-.051 1 1 0 0 0-.012-.138v-.026a.1.1 0 0 1 0-.034q.002-.009.018-.006h.007v.014c0-.009 0-.01.008-.014h.013v-.008a.01.01 0 0 0-.012.007h-.007c-.014-.007-.013 0-.018 0s-.012.019-.015.017 0-.008 0-.013a.2.2 0 0 0 0 .046v.059q-.002-.047-.012-.1v-.013c0-.007.008-.022.027-.021h.017v-.006h.01v-.001l.023.011q.017.009.017.012h-.034a.3.3 0 0 1 .062.019c.032.012.06.021.062.021a.04.04 0 0 1 .031.023c0 .018.008.021.015.015s.008 0 .043.008a.3.3 0 0 0 .049.014h.008l.008-.005a.1.1 0 0 1 0 .031h.006a.4.4 0 0 1-.049.069Zm0-.116h.016a.01.01 0 0 1-.012 0Zm.047.011.008-.011v-.002Zm-.032-.071-.206-.055c-.061-.015-.089-.024-.1-.035s0-.019.016-.035q.023-.024.017-.032t.008-.006a.6.6 0 0 0 .141-.166.2.2 0 0 1 .024-.033c.008-.007.013 0 .021 0l.006.006c.01.012 0 .029-.03.068q-.02.023-.016.028c.003.004.019 0 .049 0a.3.3 0 0 1 .056 0h.01a.01.01 0 0 1 .01 0 .2.2 0 0 1 .033.08v.015l-.014.014-.052.043q-.033.025-.029.032c.003.005.011 0 .028.009a.13.13 0 0 1 .065.028.02.02 0 0 1 0 .02c.006.014 0 .015-.029.006Zm.074-.115a.1.1 0 0 1-.017-.037l-.01-.041-.007-.026v.011s0 .012.007.021a.1.1 0 0 0 .017.036l.01.01.009.01a.03.03 0 0 1 .009.019c.016.004.002-.002-.01-.016Zm.018-.299-.008-.01-.009-.03a.56.56 0 0 0-.966.26h.005c0 .026-.01.035-.023.037h-.041a.2.2 0 0 0-.04.01c-.011.007-.04.01-.042 0v-.007h.011s.008.008.021 0l.076-.019c.015 0 .017-.006.024-.038a.6.6 0 0 1 .214-.332l.035-.03q.009-.009.015-.009a.2.2 0 0 0 .046-.017.57.57 0 0 1 .677.13l.029.032s-.012.013-.016.009Zm.014-.1h-.01a.1.1 0 0 1-.025-.017.6.6 0 0 0-.146-.092.66.66 0 0 0-.51-.016l-.026.01v-.021l.024-.009a.66.66 0 0 1 .659.109l.022.016h.022l.018.009h.023v.014c0 .013 0 .016-.023.007l-.021-.01Zm-4.389-.163a.66.66 0 0 1 .299.039.7.7 0 0 0-.299-.039m.254.601-.004-.001Zm.039.459h.509v.055h-.509Zm.594-.007h.508v.061h-.508Zm.623.005h.508v.054h-.508Zm.593-.003h.509v.055h-.509Zm-9.284-1.401v1.221h.484v-1.221Zm.375 1.099h-.259v-.966h.259Zm.758-5.235-.011-2.116H9.84l.01 2.116Zm-.082-1.428h-.022v-.023H9.943v.023h-.014a.3.3 0 0 1 0-.127h.014v.023h1.026v-.023h.021a.3.3 0 0 1 0 .127m-1.068-.628h1.068v.457H9.919Zm-7.163 7.676h1.79v-1.691h-1.79Zm1.232-1.525h.463v.161h-.463Zm0 .236h.463v.122h-.463Zm0 .2h.463v.12h-.463Zm0 .2h.463v.121h-.463Zm0 .199h.463v.122h-.463Zm0 .2h.463v.12h-.463Zm0 .2h.463v.134h-.463Zm-.566-1.235h.463v.161h-.463Zm0 .236h.463v.122h-.463Zm0 .2h.463v.12h-.463Zm0 .2h.463v.121h-.463Zm0 .199h.463v.122h-.463Zm0 .2h.463v.12h-.463Zm0 .2h.463v.134h-.463Zm-.571-1.235h.464v.161h-.464Zm0 .236h.464v.122h-.464Zm0 .2h.464v.12h-.464Zm0 .2h.464v.121h-.464Zm0 .199h.464v.122h-.464Zm0 .2h.464v.12h-.464Zm0 .2h.464v.134h-.464Zm11.389-1.357h.428v-.722h-.426Zm.384-.648v.56h-.347v-.56ZM8.614 11.35h-.199v-.12a.11.11 0 0 0 .063-.1.1.1 0 0 0-.023-.063l.083-.051.008-.006a.1.1 0 0 0 .023-.12l-.057-.1a.09.09 0 0 0-.12-.031l-.34.2-.011.007a.09.09 0 0 0-.012.108l.063.112a.083.083 0 0 0 .113.03l.078-.048a.1.1 0 0 0 .055.061v.12a.085.085 0 0 0 .084.088h.199v-.012ZM4.57 16.201v.04h.022v1.766h.073l.001-1.766h.02v-.04l-.058-.015Zm11.499 1.721v.002h.02v.058h.074v-.058h.021l-.057-.002Zm-7.594-1.721v.04h.024v1.766h.07l-.001-1.766h.023v-.04l-.058-.015Zm11.624 1.727h-.218v.061h.509v-.01h.218v-.054h-.509Zm-3.831-3.712h-.247v-2.773h.205a.085.085 0 0 0 .084-.087v-.118a.12.12 0 0 0 .055-.058l.077.047a.083.083 0 0 0 .113-.029l.063-.114a.09.09 0 0 0-.03-.119l-.339-.2a.086.086 0 0 0-.119.029l-.058.1a.093.093 0 0 0 .032.125l.083.051a.1.1 0 0 0-.023.064.11.11 0 0 0 .063.1v.117h-.205V10.11h.673l-4.372-4.117-4.378 4.123h.675v4.093h-.242v.685h.242l-.007.005v3.104h1.099v-3.986h1.498v3.99h1.119v-.009h1.108v-4.01h1.498v4.01h1.094v-3.097h.241Zm-7.736.553h-.1v-.437h.101Zm2.658-2.237H9.718v-2.397h1.471Zm3.726-.011-.034.006h-1.431V10.13h1.465ZM7.95 11.094l-.169.024.147.264.107-.139Zm6.848-.86h-1.22l-.01 2.115h1.217Zm-.085.688h-.014v-.023h-1.025v.022h-.014a.3.3 0 0 1 0-.123h.014v.024h1.025v-.023h.014a.3.3 0 0 1 0 .123m.007-.17h-1.067v-.453h1.067Zm5.379 7.17h.509l-.509-.005Zm-6.286-2.809h.244v.306h-.244Zm-2.823-.718H9.918v1.855h1.072Zm-1.004.1h.915v.32h-.919Zm.934.444h-.019v-.013h-.919v.016H9.97a.2.2 0 0 1 0-.09h.013v.017h.921v-.017h.012a.2.2 0 0 1 0 .09Zm-4.396 1.262v.04h.021v1.766h.073l.001-1.766h.021v-.04l-.058-.015Zm7.278-.448h.255v.458h-.255Zm-.078.601h.427v-.725h-.427Zm.033-.649h.346v.559h-.346Zm-3.245 2.039h.491v-1.221h-.491Zm.123-1.093h.255v.966h-.255Zm3.087 1.073h.427v-1.219h-.427Zm.039-1.15h.335v1.079h-.335Zm-.037-1.042h.427v-.548h-.427Zm.045-.467h.335v.408h-.335Zm-9.057 2.942h1.79v-1.691h-1.79Zm1.229-1.525h.469v.161h-.469Zm0 .236h.469v.122h-.469Zm0 .2h.469v.12h-.469Zm0 .2h.469v.121h-.469Zm0 .199h.469v.122h-.469Zm0 .2h.469v.12h-.469Zm0 .2h.469v.134h-.469Zm-.563-1.235h.463v.161h-.463Zm0 .236h.463v.122h-.463Zm0 .2h.463v.12h-.463Zm0 .2h.463v.121h-.463Zm0 .199h.463v.122h-.463Zm0 .2h.463v.12h-.463Zm0 .2h.463v.134h-.463Zm-.565-1.235h.462v.161h-.462Zm0 .236h.462v.122h-.462Zm0 .2h.462v.12h-.462Zm0 .2h.462v.121h-.462Zm0 .199h.462v.122h-.462Zm0 .2h.462v.12h-.462Zm0 .2h.462v.134h-.462Zm9.501-1.1h.265v.985h-.265Zm-.072 1.105h.427v-1.217h-.426Zm.041-1.145h.336v1.078h-.333Zm.04-.818h.255v.456h-.255Zm.238-1.192-.28.237.005.013h.381a.4.4 0 0 0-.033-.138.6.6 0 0 0-.073-.112m-.734.001a.6.6 0 0 0-.07.112.4.4 0 0 0-.033.138h.374v-.013Zm.326.226v-.429a.4.4 0 0 0-.251.125Zm.087-.013.252-.304a.44.44 0 0 0-.252-.126Zm.086.325h.245v.306h-.245Zm-.529 1.498h.265v.985h-.265Zm.445-1.077h.427v-.549h-.426Zm.041-.467h.335v.407h-.332Zm2.319-3.814.106.14.147-.264-.169-.025ZM2.625 16.201v.04h.021v1.766h.074v-1.766h.021v-.04l-.058-.015Zm19.236 1.717v.002h.021v.058h.074l.001-.058h.02l-.058-.002Zm-5.67.01.509-.009v.061l-.509.008ZM2.659 15.242a.05.05 0 0 0-.041-.049q-.037-.002-.024-.052c.021-.072-.063-.3-.112-.3a.05.05 0 0 0-.039.051c0 .067-.043.068-.061 0a.2.2 0 0 1 .051-.137c.09-.12.09-.242 0-.221-.037.01-.067.01-.067 0 0-.046.082-.1.133-.105s.066-.016.056-.069a.37.37 0 0 1 .048-.286c.039-.063.049-.1.028-.127-.048-.063-.043-.091.053-.091s.1-.047.021-.122c-.029-.029-.046-.054-.029-.054.092 0 .161-.157.161-.361 0-.224-.05-.3-.118-.18-.036.054-.036.055-.036.009a.4.4 0 0 0-.015-.112c-.01-.042 0-.055.051-.055.083 0 .154-.1.1-.136q-.034-.03-.008-.051a.56.56 0 0 0 .026-.4.25.25 0 0 1-.011-.175.25.25 0 0 0 0-.166.2.2 0 0 1-.016-.119c.033-.068-.017-.306-.069-.306-.068 0-.077.094-.033.177s.035.073-.02.022-.068-.056-.123-.008-.091.038-.091-.021a.024.024 0 0 1 .034-.021q.029-.001.029-.061a.13.13 0 0 1 .026-.1c.028-.02.031-.038 0-.1s-.027-.077.014-.119.033-.073.016-.122-.021-.076 0-.091a.07.07 0 0 0 .014-.071c-.01-.033.01-.049.051-.049s.066-.019.066-.053a.046.046 0 0 0-.037-.051.1.1 0 0 1-.042-.017.094.094 0 0 1-.02-.132.6.6 0 0 0 .031-.445c-.032-.035-.034-.045-.007-.071s.03-.039-.01-.128-.041-.099-.005-.168a.42.42 0 0 0-.08-.4q-.062-.061-.013-.04c.055.022.066-.055.014-.121s-.11-.051-.095.025a.08.08 0 0 1-.023.087.09.09 0 0 0-.037.071.047.047 0 0 1-.038.054.06.06 0 0 0-.051.043c-.008.026-.016.015-.016-.017s.01-.059.025-.059c.111 0 .152-.487.051-.559a.13.13 0 0 1-.051-.1.2.2 0 0 0-.058-.12c-.053-.048-.055-.056-.015-.109.05-.073.05-.09 0-.182-.035-.067-.034-.07.031-.055.086.022.08-.09-.006-.147a.09.09 0 0 1-.046-.069c.02-.076-.047-.326-.087-.326a.05.05 0 0 0-.038.062c0 .032-.01.046-.02.032a.3.3 0 0 1-.013-.144A.165.165 0 0 0 2 7.747v9.51-.009.748l.143.007v-.066a3 3 0 0 0-.065-.337 6 6 0 0 1-.075-.339.6.6 0 0 1 .167-.384c.07-.037.068-.073.017-.139s-.012-.076.07-.01.133-.017.068-.11c-.048-.071-.035-.07.009-.07s.061-.028.074-.122a.4.4 0 0 1 .04-.142.14.14 0 0 0 .025-.085c0-.039.017-.07.039-.07a.06.06 0 0 0 .051-.03.1.1 0 0 0 .006-.032.1.1 0 0 0-.081-.112q-.064.002-.02-.03a.1.1 0 0 0 .024-.064.084.084 0 0 0-.087-.079c-.037 0-.068-.016-.068-.028s.038-.023.086-.013c.078.011.076 0 .07-.091s0-.11.051-.127a.1.1 0 0 0 .035-.021.086.086 0 0 0 0-.119c-.044-.037-.03-.086.027-.086a.06.06 0 0 0 .054-.054m18.628 2.673h.508v.061h-.508Zm-14.624.091H8.45v-1.691H6.664Zm1.229-1.525h.462l.007.161h-.469Zm0 .236h.462l.007.122h-.469Zm0 .2h.462l.007.12h-.469Zm0 .2h.462l.007.121h-.469Zm0 .199h.462l.007.122h-.469Zm0 .2h.462l.007.12h-.469Zm0 .2h.462l.007.134h-.469Zm-.562-1.235h.462v.161h-.462Zm0 .236h.462v.122h-.462Zm0 .2h.462v.12h-.462Zm0 .2h.462v.121h-.462Zm0 .199h.462v.122h-.462Zm0 .2h.462v.12h-.462Zm0 .2h.462v.134h-.462Zm-.567-1.235h.465v.161h-.465Zm0 .236h.465v.122h-.465Zm0 .2h.465v.12h-.465Zm0 .2h.465v.121h-.465Zm0 .199h.465v.122h-.465Zm0 .2h.465v.12h-.465Zm0 .2h.465v.134h-.465Zm13.987-.354.011.01-.045-.044a.2.2 0 0 0 .034.034m.317-.431h.048a.2.2 0 0 0-.048 0m-.224.432s-.009.01 0 .014.008 0 .008-.008Zm.144.012v-.001l-.002.001Zm-.097-.391a.5.5 0 0 1 .1-.038h.028a.2.2 0 0 1 .047 0 .4.4 0 0 0-.071 0 .4.4 0 0 0-.104.038m.707-.735-.004-.001.004.005Zm-.6-.27v-.008s-.004.004 0 .008m.341 1.212c-.049 0-.057 0-.056-.011a.1.1 0 0 1 .018-.03c.022-.032.029-.043.029-.05v-.009a.012.012 0 0 0 0-.019.1.1 0 0 0-.027.033.4.4 0 0 1-.058.093 1 1 0 0 0-.063.084c-.019.029-.04.057-.047.066l-.012.021a.01.01 0 0 0 .006.011q.015.009.014 0v-.033l.028-.035.047-.063c.029-.042.035-.049.044-.045a.4.4 0 0 0 .135 0c-.002-.013-.009-.013-.058-.013m-.064.007c-.01 0-.012 0-.009-.009h.008l.007.007Zm.481-.645h-.012s0 .007.012.007.011 0 .012-.007 0-.006-.011-.006Zm-.707.83s0 .007.018.008a.02.02 0 0 0 .021-.006.05.05 0 0 0-.039-.002m.717-.875a.04.04 0 0 0-.019 0v.006h.012q.017 0 .017-.014c0-.009.001.008-.01.008m-.304-.291.012.02h.005Zm.016-.097-.02-.028.006.008Zm.002.113h-.001l.005.005Zm-.048 1.216v-.007c0-.009-.011-.014-.043-.023s-.04-.01-.039-.015a.3.3 0 0 1 .04-.044.2.2 0 0 0 .04-.045q0-.01-.028.016l-.046.044a.2.2 0 0 0-.03.035.02.02 0 0 1-.018.012h-.009a.2.2 0 0 0 .044.015l.066.021c.015.005.04.011.043 0q-.001-.008-.013-.005-.009.003-.007-.004m-.034-.107.006-.008h.006l-.007.006-.009.007Zm-.055.072h-.007V17.4v.01Z"/></svg>