<svg xmlns="http://www.w3.org/2000/svg" viewBox="0 0 24 24"><path fill="#44739e" d="M12 2a10 10 0 1 0 10 10A10 10 0 0 0 12 2m1.25 17.188a5.9 5.9 0 0 1-2.622-.611 6.162 6.162 0 0 0 7.949-7.949 5.937 5.937 0 0 1-5.327 8.56m-.163-12.182c.047 0 .094.006.141.009l.152.011.141.016.149.019.138.022c.046.008.1.016.148.026l.135.028.145.034.133.035.142.04.13.041.139.047.128.047.136.054c.045.019.083.034.124.053l.133.059.122.059.128.066.119.064.125.072.115.07.122.078.11.074q.06.04.118.084l.107.079.114.089.1.084.11.1.1.089q.052.048.105.1l.094.093.1.1.09.1.095.11.085.1.09.115.08.1c.026.031.056.079.084.119l.075.108.079.123.07.112.074.128.064.115.068.132.058.117.062.138.053.118c.017.04.037.1.056.143s.032.08.046.12l.05.147c.016.047.028.081.04.122l.044.153c.015.053.023.08.033.121s.025.1.037.158l.027.121.03.166.021.119.022.175c0 .038.01.076.014.114q.01.1.015.2c0 .03.006.061.007.092q.008.15.008.3a5.834 5.834 0 0 1-5.834 5.834q-.15.002-.3-.008l-.1-.007-.194-.015c-.04 0-.079-.01-.118-.015l-.171-.021-.124-.022-.16-.029-.126-.028-.154-.036c-.054-.013-.083-.023-.125-.034l-.149-.043-.125-.041c-.048-.016-.1-.031-.143-.049l-.124-.047-.139-.055q-.062-.026-.122-.054c-.04-.018-.09-.039-.134-.06l-.12-.06-.13-.067-.117-.065-.125-.073-.114-.071-.121-.077-.111-.077-.117-.083-.106-.082-.113-.088a2 2 0 0 1-.1-.087c-.031-.03-.072-.061-.107-.093l-.1-.092-.1-.1-.1-.1a2 2 0 0 0-.1-.1l-.091-.1a5 5 0 0 1-.178-.212 5 5 0 0 1-.169-.221l-.081-.115-.077-.113-.076-.119-.071-.117a8 8 0 0 1-.2-.371l-.06-.124-.059-.13-.054-.127-.053-.133q-.026-.067-.047-.13l-.047-.137-.041-.133-.04-.139a4 4 0 0 1-.068-.278l-.029-.138-.026-.145-.022-.14-.019-.147-.016-.143c-.005-.043-.008-.1-.011-.149L7 13.084v-.251a5.8 5.8 0 0 1 .257-1.717 2.917 2.917 0 1 0 3.859-3.859A5.8 5.8 0 0 1 12.833 7c.085 0 .167 0 .254.006M4.5 12a.834.834 0 0 1-1.667 0A9.167 9.167 0 0 1 12 2.833.834.834 0 0 1 12 4.5 7.5 7.5 0 0 0 4.5 12"/></svg>