<svg xmlns="http://www.w3.org/2000/svg" viewBox="0 0 24 24"><path fill="#44739e" d="M5.189 7.833A4.9 4.9 0 0 1 8.01 8.7l-.289-.737h3.045l1.026 3.653.224.834s.128-.417.224-.834l1.06-3.654h3.045l-.256.769a4.67 4.67 0 0 1 2.82-.866 2 2 0 0 1 .449.032L17.785 2 2.016 6.231l.609 2.307a4.9 4.9 0 0 1 2.564-.7Zm13.718 2.661a1.48 1.48 0 0 0-1.506 1.57 1.44 1.44 0 0 0 1.506 1.536 1.456 1.456 0 0 0 1.506-1.539 1.2 1.2 0 0 0-.032-.352l-.064-.193a1.424 1.424 0 0 0-1.41-1.025ZM6.663 12.032a1.48 1.48 0 0 0-1.506-1.57 1.48 1.48 0 0 0-1.506 1.57 1.44 1.44 0 0 0 1.506 1.539 1.422 1.422 0 0 0 1.506-1.539m12.244 4.1a4.157 4.157 0 0 1-4.391-3.366l-1.25 3.237H10.8l-1.25-3.237a4.155 4.155 0 0 1-4.391 3.366 3 3 0 0 1-.513-.032L6.215 22l15.769-4.231-.609-2.275a4.7 4.7 0 0 1-2.468.641Z"/></svg>