<svg xmlns="http://www.w3.org/2000/svg" viewBox="0 0 24 24"><path fill="#44739e" d="M10.762 2.261v.855h.006l-.007 17.875.007-17.876L2 3.1l.052 17.891v.748H22V2.261Zm1.217.936h8.804v17.794h-8.804Zm-5.525.469c1.124 0 3.371.561 3.465 2.903H7.11c-.094-.469-.375-.656-.656-.656-.375 0-.656.375-.656.656H2.989c0-2.154 2.341-2.903 3.465-2.903m-.281.281c-.655 0-1.173.222-1.735.597L6.174 5.82Zm.562 0V5.82l1.779-1.312c-.281-.187-.562-.281-.843-.374s-.655-.187-.936-.187m-2.622.842s-.241.209-.438.525a1.7 1.7 0 0 0-.278.888l2.308-.008.031-.09.056-.071.114-.11Zm4.682 0L7.016 5.913l.094.094.065.09.028.097h2.341c0-.281-.114-.627-.274-.865a2.3 2.3 0 0 0-.475-.54M2.989 7.224h3.184v2.623H2.989Zm3.84 0h3.184v2.623H6.829Zm-3.653.188v2.247h2.81V7.412Zm3.84 0v2.247h2.809V7.412Zm-3.465.281h2.06v1.685h-2.06Zm3.84 0h2.06v1.685h-2.06Zm.187.177v1.312h1.687V7.87Zm-3.84.007v1.311h1.686V7.877Zm-.749 2.438h3.184v3.465H2.989Zm3.84 0h3.184v3.465H6.829Zm-3.653.187v3.091h2.81v-3.091Zm3.84 0v3.091h2.809v-3.091Zm-3.465.281h2.06v2.529h-2.06Zm3.84 0h2.06v2.529h-2.06Zm-3.653.094v2.247h1.686v-2.247Zm3.84 0v2.247h1.686v-2.247Zm-4.589 3.652h3.184v5.806H2.989Zm3.84 0h3.184v5.806H6.829Zm-3.582.143v5.432H5.87v-5.432Zm3.849.038v5.433h2.623v-5.432Zm-3.639.195h2.154v4.962H3.457Zm3.877 0h2.154v4.962H7.334Zm-3.626.178v4.589h1.686v-4.589Zm3.871.008v4.589h1.685v-4.589Z"/></svg>