<svg xmlns="http://www.w3.org/2000/svg" viewBox="0 0 24 24"><path fill="#44739e" d="m22 2.255-11.242-.003.01 18.784H2v.712h20ZM12.971 4.13h3.206l.01 2.619-3.211.01Zm3.816 0h3.169l.013 2.616h-3.181Zm-3.619.178v2.288h2.813V4.308Zm3.797 0v2.288h2.813V4.308Zm-3.422.319h2.063v1.631h-2.063Zm3.797 0h2.072v1.631H17.34Zm-3.591.15V6.08h1.65V4.777Zm3.797 0v1.312h1.651V4.777Zm-4.575 2.831h3.206v5.101h-3.206Zm3.816 0h3.169v5.101h-3.169Zm-3.619.244v4.651h2.813V7.852Zm3.797 0v4.651h2.813V7.852Zm-3.422.441h2.063v3.778h-2.063Zm3.797 0h2.072v3.778H17.34Zm-3.591.243v3.32h1.65v-3.32Zm3.807 0v3.32h1.65v-3.32Zm-4.585 5.082h3.206v5.701h-3.206Zm3.816 0h3.169v5.701h-3.169Zm-3.554.216v5.279h2.719v-5.279Zm3.751 0v5.279h2.719v-5.279Zm-3.526.197h2.194v4.857h-2.194Zm3.826 0h2.156v4.857h-2.128Zm-3.535.197v4.481h1.678v-4.481Zm3.751 0v4.481h1.706v-4.481Z"/></svg>