<svg xmlns="http://www.w3.org/2000/svg" viewBox="0 0 24 24"><path fill="#44739e" d="M15.391 18.712h2.571v-3.76h-2.571Zm.099-3.636h2.35v3.463h-2.348Zm-.115-2.037h2.571V9.28h-2.569Zm.098-3.636h2.35v3.463h-2.346Zm-4.69-6.968V21.27H2.172V22h19.656V2l-11.041.028Zm4.423 16.479.009-4.167 2.921.015-.003 4.141Zm.022-15.194h2.898v4.067h-2.911Zm-.013 5.356h2.935l-.009 4.171-2.939.014Zm.172-1.436h2.57V3.874h-2.57Zm.098-3.626h2.35v3.459h-2.348Zm-8.76 13.65a3.848 3.848 0 1 0-3.877-3.848 3.86 3.86 0 0 0 3.877 3.848m0-5.276a.851.851 0 0 1 .369 1.623v1.309h-.737v-1.309a.851.851 0 0 1 .368-1.623M4.94 9.594v-.905a1.786 1.786 0 0 1 3.57 0v.905l.012.005a4.5 4.5 0 0 1 .726.384V8.689a2.524 2.524 0 0 0-5.046 0v1.293a4.5 4.5 0 0 1 .722-.384Z"/></svg>