<?xml version="1.0" encoding="UTF-8"?>
<svg width="24px" height="24px" viewBox="0 0 24 24" version="1.1" fill="#44739e" xmlns="http://www.w3.org/2000/svg" xmlns:xlink="http://www.w3.org/1999/xlink">
            <path d="m 10.7,1.3 v 20 H 1.4 v 0.8 H 22.7 V 1.3 Z m 1.4,20 V 2.4 h 9.4 v 19 z M 18,7.2 h 1.8 V 8.6 H 18 Z m -4.1,0 h 1.8 v 1.4 h -1.8 z m 4.1,3.3 h 1.8 v 2.4 H 18 Z m -4.1,0 h 1.8 v 2.4 h -1.8 z m 6.5,-1.4 h -3 V 6.7 h 3 z M 17.8,8.8 H 20 V 7 h -2.2 z m -1.5,0.3 h -3 V 6.7 h 3 z M 13.7,8.8 h 2.2 V 7 h -2.2 z m 6.7,4.5 h -3 V 10 h 3 z M 17.8,13 H 20 v -2.7 h -2.2 z m -1.5,0.3 h -3 V 10 h 3 z M 13.7,13 h 2.2 v -2.7 h -2.2 z m 4.3,1.9 h 1.8 v 4.9 H 18 Z m 2.3,5.4 h -2.9 v -5.8 h 2.9 z M 17.7,20 H 20 V 14.7 H 17.7 Z M 14,14.9 h 1.8 v 4.9 H 14 Z m 2.3,5.4 h -2.9 v -5.8 h 2.9 z M 13.7,20 H 16 V 14.7 H 13.7 Z M 17.1,3.1 c 0.341222,0.018192 0.678029,0.085553 1,0.2 0.317128,0.090869 0.620043,0.2254973 0.9,0.4 l -1.9,1.4 z m -0.6,2 v 0 L 14.6,3.7 C 15.156091,3.3084183 15.819873,3.0988028 16.5,3.1 Z M 19.3,4 17.37,5.27 17.48,5.38 17.56,5.5 v 0.1 h 2.5 C 20.053359,5.3218183 19.98505,5.0485795 19.86,4.8 19.692814,4.5102311 19.491366,4.2416336 19.26,4 m -5,0 1.9,1.3 -0.1,0.1 -0.05,0.1 V 5.6 H 13.5 C 13.488303,5.282212 13.564424,4.9673483 13.72,4.69 13.875919,4.4309832 14.071649,4.1981319 14.3,4 M 12.1,2.4 v 18.9 l 9.4,0.1 v -19 z m 4.4,18.1 h -3.4 v -6.2 h 3.4 z m 0,-7 H 13.1 V 9.8 h 3.4 z m 0,-4.2 H 13.1 V 6.5 h 3.4 z M 16.1,5.8 h -3 c 0,-2.3 2.5,-3.1 3.7,-3.1 1.2,0 3.6,0.6 3.7,3.1 h -3 C 17.438458,5.4593171 17.146087,5.2087134 16.8,5.2 16.444278,5.1821496 16.136764,5.4457333 16.1,5.8 Z m 4.5,14.7 h -3.4 v -6.2 h 3.4 z m 0,-7 H 17.2 V 9.8 h 3.4 z m 0,-4.2 H 17.2 V 6.5 h 3.4 z"></path>

</svg>