<?xml version="1.0" encoding="UTF-8"?>
<svg width="24px" height="24px" viewBox="0 0 24 24" version="1.1" fill="#44739e" xmlns="http://www.w3.org/2000/svg" xmlns:xlink="http://www.w3.org/1999/xlink">
            <path d="m 22.699219,2.140625 -11.985389,-0.00507 0.0069,0.9933486 v 0 V 22.169922 3.1289062 L 1.3984375,3.1015625 1.3691406,22.169922 v 0.759766 H 22.699219 Z m -10.59961,1.0898438 h 9.339844 l 0.05498,18.9175262 -9.394827,0.02192 z M 2.9199219,4.0507812 h 3.4199219 l 0.00687,2.8276284 -3.4199219,0.00687 z m 4.0703125,0 h 3.3789066 v 2.8138827 l -3.3720337,0.00687 z m -3.859375,0.1894532 v 2.4394531 h 3 V 4.2402344 Z m 4.0488281,0 V 6.6796875 H 10.179688 V 4.2402344 Z M 3.5292969,4.5800781 H 5.7304688 V 6.3203125 H 3.5292969 Z m 4.0507812,0 H 9.7890625 V 6.3203125 H 7.5800781 Z M 3.75,4.7402344 v 1.390625 h 1.7597656 v -1.390625 z m 4.0507812,0 V 6.140625 H 9.5605469 V 4.7402344 Z M 2.9199219,7.7597656 H 6.3398438 V 13.199219 H 2.9199219 Z m 4.0703125,0 H 10.369141 V 13.199219 H 6.9902344 Z m -3.859375,0.2597656 v 4.9609378 h 3 V 8.0195312 Z m 4.0488281,0 V 12.980469 H 10.179688 V 8.0195312 Z M 3.5292969,8.4902344 H 5.7304688 V 12.519531 H 3.5292969 Z m 4.0507812,0 H 9.7890625 V 12.519531 H 7.5800781 Z M 3.75,8.75 v 3.539062 H 5.5097656 V 8.75 Z m 4.0605469,0 v 3.539062 H 9.5703125 V 8.75 Z m -4.890625,5.410156 h 3.4199219 v 6.080078 H 2.9199219 Z m 4.0703125,0 h 3.3789066 v 6.080078 H 6.9902344 Z m -3.7910156,0.240235 v 5.628906 h 2.9003906 v -5.628906 z m 4,0 v 5.628906 h 2.9003902 v -5.628906 z m -3.7597657,0.208984 h 2.3398438 v 5.179687 H 3.4394531 Z m 4.0800781,0 h 2.3007813 v 5.179687 H 7.5507812 Z M 3.75,14.820312 v 4.779297 h 1.7890625 v -4.779297 z m 4,0 v 4.779297 h 1.8203125 v -4.779297 z"></path>

</svg>
