<?xml version="1.0" encoding="UTF-8"?>
<svg width="24px" height="24px" viewBox="0 0 24 24" version="1.1" fill="#44739e" xmlns="http://www.w3.org/2000/svg" xmlns:xlink="http://www.w3.org/1999/xlink">
            <path d="m 6.9200001,15.56 h 1.71 V 20 h -1.71 z M 9.35,20.59 H 6.2 V 15 H 9.35 Z M 6.61,20.26 h 2.33 v -5 H 6.61 Z M 5.9,6.62 H 2.67 V 3.51 H 5.9 Z M 3,6.38 H 5.6 V 3.75 H 3 Z M 9.37,6.62 H 6.14 V 3.51 H 9.37 Z M 6.43,6.38 H 9.07 V 3.75 H 6.43 Z M 5.9,10 H 2.67 V 6.85 H 5.9 Z M 3,9.72 H 5.6 V 7.09 H 3 Z M 9.37,10 H 6.14 V 6.85 H 9.37 Z M 6.43,9.72 H 9.07 V 7.09 H 6.43 Z M 5.92,13.3 H 2.69 V 10.18 H 5.92 Z M 3,13.06 H 5.62 V 10.43 H 3 Z M 9.39,13.3 H 6.16 V 10.18 H 9.39 Z M 6.46,13.06 H 9.1 V 10.43 H 6.46 Z m -3.01,2.5 h 1.8 V 20 H 3.45 Z M 6,20.59 H 2.76 V 15 H 6 Z M 3.21,20.26 h 2.35 v -5 H 3.17 Z M 1.37,2.52 v 20 h 9.35 v -20 z M 9.62,20.88 H 2.47 v -6.24 h 7.15 z m 0,-7.44 H 2.47 V 3.36 H 9.62 Z M 10.72,2.1348437 V 22.17 H 1.37 v 0.76 H 22.7 V 2.14 Z M 12.1,22.17 V 3.23 h 9.36 v 19 z"></path>

</svg>