<svg xmlns="http://www.w3.org/2000/svg" viewBox="0 0 24 24"><path fill="#44739e" d="M17.129 14.91h1.561v4.271h-1.561Zm-.94-11.592H13.23V6.31h2.959Zm-.265 2.761h-2.419V3.551h2.416Zm.265.452H13.23v3.03h2.959Zm-.265 2.799h-2.419V6.762h2.416Zm.548 10.419h2.873v-5.378H16.47Zm.367-5.128h2.145v4.81h-2.145Zm-3.523 5.128h2.935v-5.378h-2.937Zm.374-5.128h2.188v4.81h-2.191Zm5.681-11.303h-2.965V6.31h2.965Zm-.274 2.761h-2.42V3.551h2.416Zm.274.452h-2.965v3.03h2.965Zm-.274 2.799h-2.42V6.762h2.416Zm-2.672 3.405h2.964V9.734h-2.964Zm.274-2.76h2.416v2.53h-2.416Zm-2.746 4.935h1.651v4.271h-1.651Zm-.704-2.175h2.965V9.734h-2.965Zm.275-2.76h2.415v2.53h-2.415Zm-2.726-7.946v19.239H2.24V22h19.52V2Zm2.259 17.999v-6.003h6.535v6.003Zm6.535-7.158h-6.535V3.174h6.535Zm-12.7 4.869a3.848 3.848 0 1 0-3.849-3.849 3.846 3.846 0 0 0 3.849 3.849m0-5.277a.853.853 0 0 1 .367 1.623v1.308h-.733v-1.308a.853.853 0 0 1 .366-1.624ZM5.12 9.669v-.905a1.772 1.772 0 0 1 3.545 0v.905l.011.005a4.6 4.6 0 0 1 .721.385V8.764a2.505 2.505 0 0 0-5.01 0v1.294a4.6 4.6 0 0 1 .721-.39Z"/></svg>