<?xml version="1.0" encoding="UTF-8"?>
<svg width="24px" height="24px" viewBox="0 0 24 24" version="1.1" fill="#44739e" xmlns="http://www.w3.org/2000/svg" xmlns:xlink="http://www.w3.org/1999/xlink">
            <path d="M 22.699219,2.140625 10.720703,2.169922 v 0.8417969 h 0.04687 L 10.720703,22.169922 10.767578,3.0117188 H 1.3691406 V 22.169922 22.929688 H 22.699219 Z m -10.40625,0.9355469 h 9.339843 V 22.119141 l -9.339843,-0.03125 z M 2.9199219,4.0703125 H 10.369141 V 13.269531 H 2.9199219 Z M 3.140625,4.25 v 8.820312 h 7 V 4.25 Z M 3.4394531,4.5507812 H 9.8203125 V 12.689453 H 3.4394531 Z M 2.9199219,14.160156 h 3.4199219 v 6.080078 H 2.9199219 Z m 4.0703125,0 h 3.3789066 v 6.080078 H 6.9902344 Z m -3.7910156,0.240235 v 5.628906 h 2.9003906 v -5.628906 z m 4,0 v 5.628906 h 2.9003902 v -5.628906 z m -3.7597657,0.208984 h 2.3398438 v 5.179687 H 3.4394531 Z m 4.0800781,0 h 2.3007813 v 5.179687 H 7.5507812 Z M 3.75,14.820312 v 4.779297 h 1.7890625 v -4.779297 z m 4,0 v 4.779297 h 1.8203125 v -4.779297 z"></path>

</svg>