<svg xmlns="http://www.w3.org/2000/svg" viewBox="0 0 24 24"><path fill="#44739e" d="M7.204 14.839h1.603v4.163H7.204Zm2.278 4.716H6.529v-5.241h2.953Zm-2.569-.309h2.185v-4.689H6.913Zm-.665-12.79H3.219V3.54h3.029Zm-2.72-.225h2.438V3.765H3.528Zm5.973.225H6.473V3.54h3.028Zm-2.757-.225H9.22V3.765H6.744Zm-.496 3.394H3.219V6.672h3.029Zm-2.72-.262h2.438V6.897H3.528Zm5.973.262H6.473V6.672h3.028Zm-2.757-.262H9.22V6.897H6.744Zm-.478 3.357H3.238V9.794h3.028Zm-2.738-.225h2.457v-2.466H3.528Zm5.992.225H6.491V9.794H9.52Zm-2.747-.225h2.475v-2.466H6.773ZM3.95 14.839h1.688v4.163H3.95Zm2.391 4.716H3.303v-5.241h3.038Zm-2.616-.309h2.204v-4.689H3.688ZM2 2.612v18.753h8.767V2.612Zm7.736 17.215H3.031v-5.851h6.705Zm0-6.976H3.031V3.399h6.705Zm1.031-10.6v18.786H2v.712h20V2.256Zm1.294 18.786V3.278h8.776v17.815Z"/></svg>