<?xml version="1.0" encoding="UTF-8"?>
<svg width="24px" height="24px" viewBox="0 0 24 24" version="1.1" fill="#44739e" xmlns="http://www.w3.org/2000/svg" xmlns:xlink="http://www.w3.org/1999/xlink">
            <path d="m 22.72671,2.168112 -12.006007,0.00181 0.02749,20.027491 H 1.396632 v 0.759761 H 22.72671 Z m -9.628907,1.9296875 h 7.449219 v 9.1992185 h -7.449219 z m 0.21875,0.1796875 v 8.820312 h 7 V 4.277487 Z m 0.300782,0.3007812 h 6.380859 V 12.71694 h -6.380859 z m -0.519532,9.6093748 h 3.419922 v 6.080078 h -3.419922 z m 4.070313,0 h 3.378906 v 6.080078 H 17.168116 Z M 13.3771,14.427878 v 5.628906 h 2.900391 v -5.628906 z m 4,0 v 5.628906 h 2.900391 v -5.628906 z m -3.759765,0.208984 h 2.339844 v 5.179687 h -2.339844 z m 4.080078,0 h 2.300781 v 5.179687 H 17.72671 Z m -3.81836,0.207031 v 4.779297 h 1.789063 v -4.779297 z m 4.048829,0.0039 v 4.779298 h 1.820312 v -4.779298 z"></path>

</svg>