<?xml version="1.0" encoding="UTF-8"?>
<svg width="24px" fill="#44739e" height="24px" viewBox="0 0 24 24" version="1.1" xmlns="http://www.w3.org/2000/svg" xmlns:xlink="http://www.w3.org/1999/xlink">
            <path d="m 10.018,11.8 c -0.127,0.125 -0.384,0.57 -0.482,0.621 -0.221,0.106 -0.317,0.365 -0.383,0.467 -0.047,0.076 -0.107,0.2 -0.212,0.352 -0.092,0.132 -0.2,0.331 -0.236,0.4 -0.036,0.069 -0.052,0.137 0.019,0.137 0.071,0 0.016,0.117 -0.071,0.244 A 5.111,5.111 0 0 0 8.445,14.55 2.086,2.086 0 0 0 8.389,14.874 c -0.016,0.048 -0.25,0.545 -0.31,0.655 a 0.47,0.47 0 0 0 -0.042,0.135 c -0.022,0.048 0,0.062 0.042,0.027 a 4.847,4.847 0 0 1 0.37,-0.468 0.32,0.32 0 0 0 0.154,-0.28 c 0.012,-0.163 0.117,-0.207 0.2,-0.3 A 1.5,1.5 0 0 0 9.052,14.289 C 9.107,14.152 9.177,14.256 9.304,14.052 9.431,13.848 9.715,13.34 9.78,13.242 9.845,13.144 9.797,13.002 9.789,12.885 A 1.582,1.582 0 0 1 9.83,12.51 3.2,3.2 0 0 1 9.972,12.124 v 0 A 1.064,1.064 0 0 0 10.081,11.81 0.034,0.034 0 0 0 10.018,11.8 Z M 8.1,12.849 v 0 a 4.879,4.879 0 0 0 -0.795,0.76 3.294,3.294 0 0 0 -0.215,0.27 c 0,0 -0.132,0.218 -0.2,0.31 -0.068,0.092 -0.247,0.351 -0.325,0.464 a 2.718,2.718 0 0 1 -0.233,0.371 c -0.067,0.085 -0.136,0.2 -0.269,0.366 -0.177,0.227 -0.31,0.414 -0.28,0.439 A 6.3,6.3 0 0 0 6.34,15.188 C 6.456,15.047 6.582,14.902 6.689,14.764 6.741,14.697 6.861,14.585 6.9,14.528 a 1.081,1.081 0 0 1 0.172,-0.2 C 7.227,14.201 7.315,14.192 7.365,14.12 7.389,14.084 7.697,13.62 7.809,13.433 7.921,13.246 8.157,12.9 8.1,12.849 Z M 3.694,14.382 3.321,14.076 3.502,13.63 3.091,13.89 2.71,13.585 l 0.12,0.47 -0.404,0.248 0.475,0.032 0.118,0.467 0.187,-0.455 z M 2.608,13.043 2.879,12.634 3.348,12.763 3.042,12.39 3.305,11.986 2.85,12.164 2.535,11.792 l 0.027,0.483 -0.441,0.167 0.46,0.12 z M 2.544,11.243 2.887,10.89 3.325,11.105 3.095,10.683 3.429,10.336 2.95,10.424 2.712,9.997 2.648,10.477 2.18,10.558 2.608,10.764 Z m 11.911,4.135 c -0.058,-0.238 0.165,-0.069 0.023,-0.452 a 1.406,1.406 0 0 0 -0.261,-0.421 2.453,2.453 0 0 1 -0.2,-0.508 c -0.059,-0.132 -0.029,-0.139 -0.149,-0.457 -0.089,-0.233 0.162,-0.155 0.021,-0.513 -0.091,-0.233 -0.554,-1.076 -0.608,-1.163 -0.026,-0.048 -0.115,-0.193 -0.226,-0.366 -0.111,-0.173 -0.19,-0.339 -0.239,-0.416 -0.1,-0.154 -0.273,-0.492 -0.373,-0.633 -0.1,-0.141 -0.222,-0.452 -0.273,-0.4 -0.051,0.052 0.149,0.512 0.23,0.809 a 0.544,0.544 0 0 1 -0.027,0.5 c -0.048,0.084 -0.048,0.139 0,0.288 v 0 c 0.045,0.133 0.212,0.915 0.261,1.078 a 0.788,0.788 0 0 0 0.128,0.233 0.374,0.374 0 0 0 0.309,0.273 c 0.2,0.062 0.218,0.332 0.346,0.573 0.12,0.225 0.233,0.428 0.338,0.675 0.105,0.247 0.648,1.58 0.74,1.783 0.032,0.074 0.289,0.074 0.261,0 A 6.057,6.057 0 0 1 14.455,15.378 Z M 4.008,15.201 3.654,15.534 3.223,15.309 3.431,15.746 3.083,16.068 3.553,16.007 3.76,16.442 3.857,15.961 4.34,15.903 3.917,15.672 Z m 12.962,0.014 a 4.351,4.351 0 0 0 -0.337,-0.569 4.605,4.605 0 0 0 -0.309,-0.488 c -0.116,-0.131 -0.024,-0.166 -0.143,-0.281 -0.072,-0.067 -0.3,-0.266 -0.346,-0.308 -0.046,-0.042 -0.23,-0.205 -0.335,-0.3 -0.105,-0.095 -0.354,-0.262 -0.346,-0.373 a 0.637,0.637 0 0 0 -0.135,-0.4 4.392,4.392 0 0 0 -0.444,-0.506 5.719,5.719 0 0 1 -0.494,-0.515 c -0.158,-0.189 -0.278,-0.362 -0.315,-0.337 -0.053,0.034 0.185,0.367 0.209,0.407 a 4.4,4.4 0 0 1 0.327,0.641 c 0.029,0.126 0.544,0.992 0.654,1.261 0.063,0.157 0.415,0.367 0.563,0.612 0.137,0.227 0.173,0.182 0.23,0.184 0.128,0 0.415,0.312 0.472,0.4 0.057,0.088 0.517,0.545 0.636,0.658 0.052,0.049 0.418,0.641 0.465,0.6 0.047,-0.041 -0.14,-0.33 -0.169,-0.394 A 2.283,2.283 0 0 1 16.97,15.215 Z m 4.184,-1.712 -0.384,0.306 -0.408,-0.267 0.178,0.45 -0.377,0.302 0.488,-0.029 0.184,0.451 0.122,-0.468 0.474,-0.023 -0.398,-0.257 z m 0.16,-1.799 -0.32,0.376 -0.452,-0.185 0.259,0.404 -0.309,0.372 0.472,-0.122 0.266,0.409 0.031,-0.483 0.46,-0.114 -0.441,-0.174 z m -3.845,2.763 c -0.028,-0.051 -0.255,-0.375 -0.335,-0.48 -0.142,-0.183 -0.012,-0.249 -0.087,-0.362 a 4.661,4.661 0 0 0 -0.424,-0.486 c -0.109,-0.108 -0.231,-0.213 -0.334,-0.306 -0.168,-0.149 -0.294,-0.26 -0.315,-0.242 -0.021,0.018 0.069,0.148 0.112,0.2 0.043,0.052 0.109,0.148 0.2,0.253 0.143,0.171 0.01,0.3 0.147,0.436 0.023,0.023 0.4,0.446 0.494,0.524 0.138,0.124 0.63,0.708 0.665,0.74 0.058,0.055 0.16,0.172 0.176,0.151 v 0 c 0.017,-0.02 -0.032,-0.085 -0.059,-0.133 -0.027,-0.048 -0.209,-0.24 -0.24,-0.295 z M 11.946,3.681 a 8.15,8.15 0 0 0 -8.146,8.15 8.537,8.537 0 0 0 0.9,3.74 c 1.049,-0.979 3.8,-4.084 4.116,-4.445 0.48,-0.549 0.687,-0.2 0.945,-0.507 a 1.045,1.045 0 0 1 0.279,-0.266 2.8,2.8 0 0 0 0.268,-0.241 c 0.057,-0.043 0.184,-0.212 0.283,-0.3 0.099,-0.088 0.295,-0.212 0.494,-0.38 0.199,-0.168 0.534,-0.564 0.9,-0.564 A 0.8,0.8 0 0 1 12.642,9.2 c 0.032,0.034 0.3,0.271 0.344,0.316 a 1.076,1.076 0 0 0 0.492,0.281 c 0.154,0 0.269,0.169 0.352,0.254 0.185,0.168 0.948,0.97 1.2,1.14 0.112,0.078 0.217,0.064 0.3,0.129 a 0.762,0.762 0 0 0 0.177,0.119 0.469,0.469 0 0 1 0.4,0.21 1.226,1.226 0 0 0 0.112,0.071 2.218,2.218 0 0 1 0.352,0.4 c 0.085,0.144 2.018,2.712 2.71,3.631 A 8.146,8.146 0 0 0 11.946,3.681 Z m 8.711,11.551 -0.435,0.227 -0.353,-0.34 0.089,0.471 -0.423,0.227 0.483,0.064 0.092,0.481 0.212,-0.437 0.469,0.068 -0.344,-0.327 z M 13.954,3.425 14.41,3.263 14.699,3.651 14.686,3.161 15.146,2.995 14.682,2.855 14.673,2.38 14.403,2.771 13.942,2.632 14.235,3.026 Z M 2.827,9.46 3.229,9.183 3.62,9.474 3.472,9.014 3.871,8.739 3.381,8.733 3.229,8.27 3.073,8.732 2.599,8.72 2.981,9.002 Z m 15.35,-3.575 0.47,0.11 0.032,0.481 L 18.934,6.061 19.41,6.169 19.097,5.8 19.349,5.399 18.91,5.578 18.597,5.212 18.629,5.701 Z m -0.76,-1.062 0.125,0.465 0.174,-0.455 0.486,0.013 -0.378,-0.302 0.172,-0.442 -0.398,0.261 -0.375,-0.302 0.123,0.474 -0.41,0.266 z M 19.63,7.384 19.572,7.86 19.904,7.502 20.349,7.699 20.11,7.276 20.435,6.932 19.969,7.026 19.732,6.603 19.671,7.089 19.194,7.182 Z m 1.55,3.006 -0.061,-0.477 -0.241,0.426 -0.478,-0.094 0.332,0.352 -0.232,0.419 0.439,-0.209 0.339,0.35 -0.06,-0.482 0.43,-0.198 z M 19.943,8.653 20.336,8.931 20.187,9.391 20.578,9.1 20.981,9.38 20.827,8.919 21.211,8.641 20.738,8.646 20.584,8.188 20.431,8.652 Z M 15.989,3.898 16.2,4.329 16.281,3.851 16.763,3.774 16.335,3.548 16.417,3.082 16.078,3.415 15.65,3.191 15.861,3.633 15.513,3.972 Z M 6.055,4.884 6.223,5.342 6.35,4.877 6.832,4.86 6.426,4.591 6.552,4.119 6.173,4.418 5.779,4.153 5.942,4.599 5.566,4.897 Z M 4.846,6.125 5.098,6.542 5.133,6.065 5.604,5.953 5.155,5.767 5.187,5.282 4.872,5.65 4.435,5.461 4.682,5.866 4.368,6.232 Z M 12.314,3.19 12.731,2.944 13.088,3.264 12.983,2.789 13.399,2.54 12.917,2.489 12.82,2.025 12.629,2.46 12.15,2.414 12.513,2.742 Z M 3.445,7.773 3.894,7.574 4.219,7.938 4.164,7.459 4.604,7.264 4.127,7.167 4.067,6.682 3.825,7.103 3.362,7.002 3.681,7.354 Z M 7.481,3.89 7.556,4.371 7.772,3.939 8.249,4.015 7.9,3.673 8.113,3.234 7.68,3.456 7.347,3.121 7.425,3.588 6.998,3.812 Z M 10.66,3.271 11.021,2.952 11.435,3.201 11.239,2.751 11.6,2.425 11.119,2.47 10.937,2.032 10.83,2.495 10.351,2.542 10.769,2.794 Z M 9.052,3.673 9.343,3.289 9.799,3.454 9.522,3.052 9.814,2.663 9.348,2.796 9.086,2.404 9.072,2.879 8.609,3.013 9.068,3.184 Z m -0.9,14.152 c 0,-0.7 -0.785,-1.357 -2.119,-1.419 -1.209,-0.061 -3.257,0.571 -3.257,2.236 a 1.155,1.155 0 0 0 1.266,1.1 c 0.521,0 0.992,-0.335 0.992,-0.667 0,-0.332 -0.2,-0.335 -0.254,-0.335 -0.147,0 -0.278,0.2 -0.183,0.449 0.058,0.155 -0.091,0.474 -0.567,0.474 -0.342,0 -0.815,-0.271 -0.815,-1.02 a 2.567,2.567 0 0 1 2.818,-2.121 1.383,1.383 0 0 1 1.534,1.3 1.41,1.41 0 0 1 -1.347,1.31 4.573,4.573 0 0 1 0.722,-1.72 C 6.989,17.359 6.93,17.312 6.853,17.359 5.17,18.43 5.39,21.573 3.482,21.573 c -0.187,0 -0.9,-0.043 -0.9,-0.594 0,0 -0.032,-0.131 0.136,-0.235 a 0.274,0.274 0 0 0 0.133,-0.24 0.294,0.294 0 0 0 -0.293,-0.3 c -0.161,0 -0.24,0.14 -0.294,0.3 -0.043,0.133 -0.063,1.171 1.218,1.181 a 2.793,2.793 0 0 0 2.679,-2.392 c 0,0 1.99,-0.214 1.991,-1.468 z M 21.341,18.6 h 0.344 L 21.75,18.461 H 21.4 l 0.334,-0.746 h -0.463 l -0.343,0.746 H 20.687 L 20.621,18.6 h 0.239 c -0.128,0.309 -0.225,0.5 -0.369,0.813 -0.165,0.361 -0.49,0.56 -0.561,0.516 -0.046,-0.028 -0.039,-0.094 -0.015,-0.163 0.128,-0.282 0.276,-0.6 0.4,-0.891 a 0.383,0.383 0 0 0 0.024,-0.361 0.27,0.27 0 0 0 -0.291,-0.1 1.322,1.322 0 0 0 -0.583,0.321 l 0.111,-0.267 H 19.11 c -0.127,0.267 -0.218,0.472 -0.34,0.748 a 2.306,2.306 0 0 1 -0.65,0.721 c -0.038,0.016 -0.1,0.025 -0.116,-0.02 a 0.319,0.319 0 0 1 0.053,-0.232 c 0.147,-0.333 0.352,-0.789 0.532,-1.217 h -0.453 c -0.139,0.317 -0.279,0.582 -0.421,0.9 -0.126,0.255 -0.378,0.558 -0.532,0.585 -0.054,0.009 -0.105,0 -0.105,-0.047 a 0.358,0.358 0 0 1 0.044,-0.176 l 0.56,-1.28 c -0.126,0 -0.339,0.008 -0.447,0 -0.017,0.053 -0.052,0.129 -0.08,0.2 -0.1,0.169 -0.35,0.4 -0.54,0.257 a 0.646,0.646 0 0 0 -0.033,-0.181 0.424,0.424 0 0 0 -0.248,-0.3 0.963,0.963 0 0 0 -0.979,0.35 1.4,1.4 0 0 0 -0.421,0.808 1.858,1.858 0 0 1 -0.359,0.386 c -0.026,0.014 -0.087,0.042 -0.122,0.014 a 0.118,0.118 0 0 1 0,-0.107 c 0.137,-0.286 0.376,-0.842 0.5,-1.126 0.1,-0.207 -0.025,-0.422 -0.335,-0.346 A 1.426,1.426 0 0 0 14.106,18.693 0.273,0.273 0 0 0 13.925,18.4 c -0.231,-0.053 -0.543,0.2 -0.663,0.307 l -0.018,-0.008 0.125,-0.264 H 12.92 c -0.12,0.272 -0.223,0.511 -0.337,0.753 a 1.641,1.641 0 0 1 -0.589,0.665 0.145,0.145 0 0 1 -0.146,0.013 c -0.025,-0.018 -0.056,-0.043 -0.018,-0.121 0.205,-0.454 0.368,-0.813 0.583,-1.3 a 1.127,1.127 0 0 0 -1.039,0.04 1.779,1.779 0 0 0 -0.4,0.286 1.655,1.655 0 0 1 -0.184,0.13 c -0.068,0.051 -0.118,0.026 -0.136,-0.02 a 0.409,0.409 0 0 1 0.043,-0.179 c 0.043,-0.1 0.12,-0.172 0.128,-0.272 0.008,-0.1 -0.146,-0.113 -0.214,-0.081 a 3.743,3.743 0 0 0 -0.454,0.353 c -0.01,0.008 -0.01,0 0,-0.014 L 10.276,18.43 H 9.842 l -0.31,0.683 a 1.675,1.675 0 0 1 -0.646,0.748 0.112,0.112 0 0 1 -0.1,0 c -0.041,-0.028 -0.025,-0.1 -0.009,-0.146 0.2,-0.454 0.353,-0.8 0.566,-1.28 v 0 a 1.161,1.161 0 0 0 -1.03,0.05 2.03,2.03 0 0 0 -0.952,1.049 0.72,0.72 0 0 0 -0.018,0.519 0.266,0.266 0 0 0 0.321,0.159 1.246,1.246 0 0 0 0.616,-0.394 H 8.3 a 0.728,0.728 0 0 0 0,0.242 0.212,0.212 0 0 0 0.154,0.144 c 0.233,0.046 0.522,-0.2 0.764,-0.411 0.008,-0.009 0.017,0 0.008,0.007 l -0.171,0.379 h 0.464 l 0.395,-0.893 a 0.974,0.974 0 0 1 0.265,-0.385 c 0.019,-0.01 0.045,-0.01 0.037,0 a 0.273,0.273 0 0 0 0.044,0.168 0.254,0.254 0 0 0 0.152,0.1 0.448,0.448 0 0 0 0.22,-0.027 2.4,2.4 0 0 0 -0.212,0.4 0.584,0.584 0 0 0 -0.024,0.524 0.3,0.3 0 0 0 0.324,0.165 1.388,1.388 0 0 0 0.627,-0.4 c 0.009,-0.01 0.018,-0.01 0.018,0 a 0.558,0.558 0 0 0 -0.009,0.239 0.2,0.2 0 0 0 0.163,0.145 c 0.232,0.045 0.55,-0.222 0.8,-0.428 0,-0.007 0.008,0 0.008,0.009 -0.051,0.1 -0.136,0.3 -0.18,0.4 H 12.6 l 0.347,-0.759 a 2.529,2.529 0 0 1 0.2,-0.394 0.916,0.916 0 0 1 0.284,-0.31 c 0.047,-0.028 0.121,-0.064 0.161,-0.042 a 0.107,0.107 0 0 1 0.017,0.118 c -0.206,0.463 -0.4,0.919 -0.61,1.387 h 0.465 c 0.138,-0.332 0.3,-0.674 0.447,-1 a 2.137,2.137 0 0 1 0.137,-0.243 0.771,0.771 0 0 1 0.353,-0.3 c 0.052,-0.025 0.126,0.014 0.1,0.068 -0.164,0.385 -0.3,0.7 -0.463,1.046 a 0.4,0.4 0 0 0 -0.017,0.38 0.206,0.206 0 0 0 0.121,0.1 c 0.342,0.048 0.593,-0.234 0.814,-0.457 a 0.515,0.515 0 0 0 0.173,0.379 0.642,0.642 0 0 0 0.669,0.015 1.574,1.574 0 0 0 0.823,-1.124 c 0,-0.008 0,-0.008 0.01,-0.008 a 0.562,0.562 0 0 0 0.34,-0.025 c -0.142,0.342 -0.271,0.627 -0.315,0.728 -0.164,0.378 0.069,0.56 0.329,0.481 a 1.468,1.468 0 0 0 0.563,-0.406 c 0.01,-0.005 0.014,-0.005 0.014,0 a 0.37,0.37 0 0 0 0.023,0.327 0.2,0.2 0 0 0 0.241,0.1 1.74,1.74 0 0 0 0.667,-0.464 c 0,-0.009 0.008,-0.009 0.008,0 -0.06,0.139 -0.136,0.311 -0.189,0.439 h 0.456 c 0.1,-0.209 0.205,-0.424 0.3,-0.637 a 1.989,1.989 0 0 1 0.615,-0.865 0.151,0.151 0 0 1 0.17,-0.028 0.088,0.088 0 0 1 0.018,0.086 c -0.154,0.371 -0.3,0.688 -0.462,1.039 a 0.534,0.534 0 0 0 -0.026,0.284 c 0.026,0.121 0.171,0.162 0.284,0.146 a 1.728,1.728 0 0 0 0.658,-0.4 0.813,0.813 0 0 0 0,0.311 0.54,0.54 0 0 0 0.07,0.152 0.392,0.392 0 0 0 0.3,0.165 1.218,1.218 0 0 0 0.952,-0.712 c 0.011,-0.019 -0.129,-0.037 -0.138,-0.011 a 1.248,1.248 0 0 1 -0.6,0.558 0.155,0.155 0 0 1 -0.207,-0.067 0.877,0.877 0 0 1 0.1,-0.5 c 0.177,-0.385 0.342,-0.738 0.539,-1.153 z M 8.469,19.327 C 8.33,19.594 8.09,19.901 7.918,19.901 v 0 c -0.078,0 -0.148,-0.06 -0.119,-0.206 a 2.249,2.249 0 0 1 0.473,-0.847 0.881,0.881 0 0 1 0.549,-0.362 c 0.015,0 0.032,0 0.023,0.02 -0.166,0.366 -0.239,0.529 -0.375,0.818 z m 3.071,0 c -0.133,0.267 -0.379,0.574 -0.548,0.574 v 0 c -0.084,0 -0.148,-0.06 -0.119,-0.206 a 2.229,2.229 0 0 1 0.47,-0.847 0.89,0.89 0 0 1 0.548,-0.362 c 0.019,0 0.035,0 0.028,0.02 -0.172,0.366 -0.241,0.529 -0.379,0.818 z m 4.43,0.124 c -0.207,0.384 -0.445,0.807 -0.637,0.71 v 0 c -0.179,-0.087 -0.023,-0.567 0.181,-0.954 0.204,-0.387 0.456,-0.764 0.652,-0.685 0.173,0.057 0.009,0.538 -0.196,0.926 z"/>

</svg>