<?xml version="1.0" encoding="UTF-8"?>
<svg width="24px" fill="#44739e" height="24px" viewBox="0 0 24 24" version="1.1" xmlns="http://www.w3.org/2000/svg" xmlns:xlink="http://www.w3.org/1999/xlink">
            <path d="m 7.357,14.869 c 0,-0.752 -0.8,-1.115 -1.747,-1.115 A 2.519,2.519 0 0 0 3.323,14.9 1.324,1.324 0 0 0 3.18,15.5 a 0.9,0.9 0 0 0 0.143,0.509 0.9,0.9 0 0 0 0.791,0.352 c 0.471,0 0.844,-0.258 0.844,-0.708 A 0.122,0.122 0 0 0 4.819,15.528 c -0.119,0 -0.15,0.084 -0.147,0.125 a 0.556,0.556 0 0 1 -0.565,0.635 c -0.418,0 -0.592,-0.356 -0.592,-0.736 a 1.664,1.664 0 0 1 1.2,-1.516 2.446,2.446 0 0 1 0.892,-0.157 c 0.691,0 1.255,0.265 1.255,0.976 A 1.183,1.183 0 0 1 5.764,16 L 5.788,15.92 A 4.337,4.337 0 0 1 6.3,14.653 c 0.014,-0.021 0.038,-0.056 0.066,-0.09 L 6.331,14.521 a 1.384,1.384 0 0 0 -0.15,0.1 c -1.143,0.892 -1.178,3.4 -2.7,3.4 A 1.167,1.167 0 0 1 3.325,18.011 0.533,0.533 0 0 1 2.84,17.45 c 0,-0.059 0.021,-0.139 0.021,-0.185 A 0.152,0.152 0 0 0 2.713,17.109 H 2.7 c -0.135,0 -0.191,0.107 -0.195,0.261 -0.01,0.442 0.317,0.7 0.823,0.749 0.056,0 0.112,0.007 0.171,0.007 a 2.389,2.389 0 0 0 2.228,-1.99 2.61,2.61 0 0 0 0.463,-0.1 C 6.736,15.89 7.357,15.521 7.357,14.869 Z m 6.186,-2.097 a 6.021,6.021 0 0 1 0.492,0.639 l 0.193,0.32 c 0.166,0.011 0.624,0.023 1.064,0.023 A 1.259,1.259 0 0 1 15.17,13.613 c -0.752,-0.932 -1.229,-1.451 -1.234,-1.456 a 0.839,0.839 0 0 0 -0.339,-0.25 l -0.054,-0.025 v 0.141 a 0.019,0.019 0 0 1 -0.015,0.02 0.019,0.019 0 0 1 -0.018,-0.011 L 12.4,10.09 V 10.084 A 0.624,0.624 0 0 0 12.2,9.855 L 12.1,9.78 11.568,11 a 0.114,0.114 0 0 1 0.114,0.114 0.1,0.1 0 0 1 -0.01,0.045 l -0.487,1.127 h 0.447 a 1.326,1.326 0 0 1 0.505,0.1 l 0.117,0.048 a 3.724,3.724 0 0 0 -0.355,1.117 0.766,0.766 0 0 0 0.029,0.207 h 0.82 L 12.71,13.527 a 8.691,8.691 0 0 0 0.975,0.161 v 0 A 0.3,0.3 0 0 0 13.675,13.4 L 13.468,12.843 C 13.44,12.768 13.5,12.725 13.543,12.772 Z m 5.138,2.359 h -0.418 l -0.094,0.219 -0.164,0.37 h -0.2 l -0.06,0.125 h 0.2 l -0.245,0.54 c -0.174,0.38 -0.446,0.753 -0.6,0.753 -0.034,0 -0.055,-0.014 -0.055,-0.049 a 0.472,0.472 0 0 1 0.048,-0.164 c 0.049,-0.115 0.13,-0.282 0.189,-0.4 a 2,2 0 0 0 0.226,-0.589 0.234,0.234 0 0 0 -0.258,-0.244 0.761,0.761 0 0 0 -0.526,0.282 l 0.1,-0.25 H 16.44 l -0.321,0.731 c -0.129,0.258 -0.391,0.687 -0.555,0.687 -0.035,0 -0.049,-0.021 -0.049,-0.056 a 0.324,0.324 0 0 1 0.025,-0.091 c 0.014,-0.031 0.206,-0.48 0.206,-0.48 l 0.348,-0.8 h -0.425 l -0.338,0.777 c -0.1,0.24 -0.37,0.648 -0.541,0.648 a 0.054,0.054 0 0 1 -0.059,-0.049 v 0 -0.014 a 0.57,0.57 0 0 1 0.056,-0.174 l 0.178,-0.39 0.366,-0.8 h -0.422 l -0.084,0.181 a 0.407,0.407 0 0 1 -0.335,0.265 0.14,0.14 0 0 1 -0.135,-0.063 0.417,0.417 0 0 0 -0.447,-0.411 0.9,0.9 0 0 0 -0.76,0.456 2.345,2.345 0 0 0 -0.251,0.554 c -0.15,0.248 -0.307,0.439 -0.432,0.439 -0.032,0 -0.053,-0.017 -0.053,-0.059 a 0.7,0.7 0 0 1 0.056,-0.171 l 0.276,-0.585 a 1.167,1.167 0 0 0 0.129,-0.418 0.21,0.21 0 0 0 -0.23,-0.216 0.837,0.837 0 0 0 -0.586,0.3 0.4,0.4 0 0 0 0.007,-0.091 0.189,0.189 0 0 0 -0.213,-0.213 0.758,0.758 0 0 0 -0.54,0.3 l 0.111,-0.272 h -0.383 l -0.324,0.732 c -0.154,0.345 -0.4,0.686 -0.541,0.686 -0.031,0 -0.052,-0.017 -0.052,-0.059 a 1.235,1.235 0 0 1 0.1,-0.3 l 0.429,-0.972 c 0.031,-0.074 -0.175,-0.119 -0.436,-0.119 a 1.219,1.219 0 0 0 -0.746,0.3 0.673,0.673 0 0 1 -0.3,0.178 0.032,0.032 0 0 1 -0.038,-0.024 v -0.007 c 0,-0.06 0.143,-0.227 0.143,-0.356 0,-0.059 -0.032,-0.1 -0.112,-0.1 a 0.752,0.752 0 0 0 -0.467,0.3 L 8.806,15.7 H 8.431 l -0.324,0.732 c -0.154,0.345 -0.408,0.7 -0.548,0.7 -0.031,0 -0.052,-0.018 -0.052,-0.06 a 1.2,1.2 0 0 1 0.108,-0.31 L 8.044,15.787 C 8.075,15.713 7.87,15.668 7.608,15.668 a 1.291,1.291 0 0 0 -0.962,0.53 1.578,1.578 0 0 0 -0.373,0.847 0.286,0.286 0 0 0 0.31,0.327 0.731,0.731 0 0 0 0.53,-0.324 0.817,0.817 0 0 0 -0.014,0.084 c 0,0.139 0.056,0.24 0.227,0.24 a 0.767,0.767 0 0 0 0.509,-0.324 l -0.13,0.3 h 0.408 l 0.4,-0.909 c 0.133,-0.3 0.283,-0.45 0.325,-0.45 a 0.017,0.017 0 0 1 0.02,0.014 v 0 c 0,0.031 -0.063,0.115 -0.063,0.191 0,0.076 0.042,0.136 0.153,0.136 a 0.542,0.542 0 0 0 0.272,-0.1 1.509,1.509 0 0 0 -0.345,0.812 0.286,0.286 0 0 0 0.31,0.327 0.809,0.809 0 0 0 0.537,-0.348 c 0,0.032 -0.006,0.065 -0.007,0.1 a 0.228,0.228 0 0 0 0.234,0.251 c 0.174,0 0.314,-0.108 0.488,-0.32 l -0.129,0.292 h 0.418 l 0.384,-0.867 c 0.167,-0.377 0.394,-0.579 0.505,-0.579 a 0.051,0.051 0 0 1 0.056,0.045 v 0 0.01 a 0.379,0.379 0 0 1 -0.035,0.122 l -0.55,1.272 h 0.429 l 0.39,-0.885 c 0.167,-0.38 0.352,-0.565 0.492,-0.565 0.042,0 0.059,0.021 0.059,0.066 a 0.4,0.4 0 0 1 -0.038,0.14 l -0.377,0.8 a 0.739,0.739 0 0 0 -0.063,0.244 c 0,0.122 0.067,0.23 0.255,0.23 0.244,0 0.429,-0.184 0.638,-0.46 V 17 a 0.414,0.414 0 0 0 0.464,0.411 1,1 0 0 0 0.882,-0.687 1.485,1.485 0 0 0 0.136,-0.47 0.267,0.267 0 0 0 0.136,0.028 0.361,0.361 0 0 0 0.181,-0.046 l -0.066,0.143 c -0.077,0.161 -0.161,0.338 -0.227,0.488 a 0.8,0.8 0 0 0 -0.073,0.282 0.235,0.235 0 0 0 0.254,0.258 0.859,0.859 0 0 0 0.572,-0.386 v 0 a 0.673,0.673 0 0 0 -0.018,0.142 c 0,0.126 0.039,0.244 0.213,0.244 a 0.715,0.715 0 0 0 0.513,-0.331 l -0.13,0.293 h 0.422 l 0.339,-0.767 c 0.191,-0.432 0.383,-0.693 0.561,-0.693 a 0.058,0.058 0 0 1 0.059,0.052 v 0.01 a 2.172,2.172 0 0 1 -0.2,0.471 c -0.088,0.181 -0.154,0.321 -0.2,0.429 a 0.805,0.805 0 0 0 -0.073,0.289 0.215,0.215 0 0 0 0.237,0.233 0.934,0.934 0 0 0 0.624,-0.414 0.85,0.85 0 0 0 -0.049,0.264 0.33,0.33 0 0 0 0.352,0.366 0.655,0.655 0 0 0 0.38,-0.125 1.774,1.774 0 0 0 0.4,-0.432 l -0.074,-0.07 a 1.579,1.579 0 0 1 -0.328,0.363 0.353,0.353 0 0 1 -0.216,0.083 c -0.087,0 -0.143,-0.045 -0.143,-0.157 a 1.461,1.461 0 0 1 0.133,-0.463 c 0,0 0.118,-0.261 0.226,-0.509 0.091,-0.209 0.182,-0.411 0.2,-0.453 h 0.276 l 0.055,-0.125 h -0.272 z m -11.892,2.01 c -0.06,0 -0.1,-0.021 -0.1,-0.1 A 1.914,1.914 0 0 1 7.076,16.176 0.744,0.744 0 0 1 7.63,15.825 l -0.265,0.592 c -0.2,0.449 -0.416,0.724 -0.576,0.724 z m 2.608,0 v 0 c -0.06,0 -0.1,-0.021 -0.105,-0.1 a 1.925,1.925 0 0 1 0.387,-0.865 0.744,0.744 0 0 1 0.554,-0.351 L 9.968,16.417 C 9.766,16.876 9.561,17.141 9.4,17.141 Z m 4.187,-0.052 c -0.094,0.133 -0.174,0.171 -0.244,0.171 -0.1,0 -0.126,-0.08 -0.112,-0.2 a 2.686,2.686 0 0 1 0.429,-1.017 c 0.108,-0.15 0.182,-0.213 0.265,-0.213 0.083,0 0.108,0.07 0.1,0.157 a 2.778,2.778 0 0 1 -0.438,1.102 z m 6.95,-1.369 0.384,-0.887 H 20.464 L 20.08,15.72 h -0.966 l -0.162,0.371 h 0.967 l -0.384,0.887 h 0.454 l 0.384,-0.887 h 0.966 L 21.5,15.72 Z M 8.612,13.45 9.483,12.337 a 0.17,0.17 0 0 1 0.07,-0.054 l 0.131,-0.056 1.431,-1.815 0.208,-0.163 0.426,-0.593 a 0.169,0.169 0 0 1 0.04,-0.04 l 0.186,-0.135 a 0.134,0.134 0 0 1 0.155,0 l 0.226,0.159 a 0.873,0.873 0 0 1 0.282,0.327 l 0.9,1.588 a 0.147,0.147 0 0 0 0.071,0.068 1.252,1.252 0 0 1 0.518,0.356 c 0.108,0.117 0.583,0.648 1.248,1.473 a 0.945,0.945 0 0 0 0.376,0.3 4.676,4.676 0 1 0 -7.527,0 0.967,0.967 0 0 0 0.388,-0.302 z m 7.063,-1.168 -0.1,0.3 -0.1,-0.3 h -0.319 l 0.258,-0.187 -0.1,-0.3 0.257,0.187 0.258,-0.187 -0.1,0.3 0.257,0.187 z m 0.221,-1.2 V 11.4 l -0.187,-0.258 -0.3,0.1 0.187,-0.257 -0.187,-0.258 0.3,0.1 0.187,-0.257 v 0.318 l 0.3,0.1 z m -0.32,-1.7 0.1,0.3 h 0.319 l -0.258,0.187 0.1,0.3 -0.258,-0.187 -0.257,0.187 0.1,-0.3 -0.258,-0.187 h 0.319 z m -0.671,-1.029 0.188,0.258 0.3,-0.1 -0.187,0.258 0.187,0.258 -0.3,-0.1 -0.188,0.258 V 8.866 l -0.3,-0.1 0.3,-0.1 z m -0.956,-0.771 0.258,0.187 0.258,-0.187 -0.1,0.3 0.258,0.187 h -0.319 l -0.1,0.3 -0.1,-0.3 H 13.79 L 14.047,7.882 Z M 12.8,7.141 l 0.3,0.1 0.188,-0.258 V 7.3 l 0.3,0.1 -0.3,0.1 V 7.818 L 13.1,7.558 12.8,7.658 12.987,7.4 Z m -0.908,-0.062 0.1,-0.3 0.1,0.3 h 0.318 l -0.258,0.187 0.1,0.3 -0.258,-0.187 -0.258,0.187 0.1,-0.3 -0.258,-0.187 z m -1.2,0.222 V 6.982 l 0.187,0.258 0.3,-0.1 -0.187,0.258 0.187,0.258 -0.3,-0.1 -0.187,0.258 V 7.5 l -0.3,-0.1 z M 9.518,7.58 9.775,7.767 10.033,7.58 9.933,7.88 10.19,8.067 H 9.874 l -0.1,0.3 -0.1,-0.3 H 9.358 L 9.616,7.879 Z m -0.932,0.93 0.3,0.1 0.187,-0.258 V 8.67 l 0.3,0.1 -0.3,0.1 v 0.319 0 L 8.89,8.927 8.59,9.027 8.778,8.77 Z m -0.279,1.173 0.1,-0.3 0.1,0.3 H 8.826 L 8.568,9.87 8.668,10.17 8.41,9.983 8.152,10.17 8.252,9.87 7.994,9.683 Z m -0.221,1.2 v -0.318 l 0.187,0.257 0.3,-0.1 -0.187,0.258 0.187,0.257 -0.3,-0.1 -0.187,0.257 v -0.318 l -0.3,-0.1 z m 0.16,1.211 -0.1,-0.3 0.258,0.187 0.258,-0.187 -0.1,0.3 0.258,0.187 H 8.5 l -0.1,0.3 -0.1,-0.3 H 7.989 Z m 3.018,-0.669 c 0.009,-0.019 -0.012,-0.043 -0.026,-0.027 l -0.259,0.261 a 4.267,4.267 0 0 0 -0.37,0.553 l -0.314,0.52 a 0.042,0.042 0 0 1 0.043,0.041 0.044,0.044 0 0 1 0,0.022 l -0.288,0.482 c -0.07,0.12 0.056,0.2 0.073,0.176 0.452,-0.727 0.715,-0.669 0.715,-0.669 l 0.151,-0.349 a 0.034,0.034 0 0 0 -0.018,-0.046 v 0 c -0.047,-0.02 -0.123,-0.106 0,-0.345 z"/>

</svg>