<svg xmlns="http://www.w3.org/2000/svg" viewBox="0 0 24 24"><path fill="#44739e" d="M8.69 8.91c-.136.665.678.3.721.183a1.3 1.3 0 0 0-.312-.836c-.264-.324-.365.45-.409.653m-2.717-.955c-.1.178-.233.373.144.956.09.137.588-.136.6-.388a.76.76 0 0 0-.222-.584c-.179-.144-.423-.165-.522.016m15.859-.244a1.7 1.7 0 0 0-.786-.929 1.71 1.71 0 0 0-1.9.334 13 13 0 0 0-1.32 1.957 2.3 2.3 0 0 1-.265.39l-1.073.006s-.111-.652-.294-1.366a1.1 1.1 0 0 0-.352-.064.384.384 0 0 0-.415.378c-.064.569-.163.687.214.834.324.126.637.315.549.535a.3.3 0 0 1-.078.112 1.34 1.34 0 0 1-.705.312c-.133.048-.328.181-.291.787a3 3 0 0 0 .033.317.48.48 0 0 0 .294.415c.134.09.361.154.346.369l-.006.047a8.6 8.6 0 0 0 .721-2.6 10 10 0 0 1 1.078.518c.185.14.382-.009.441.989s.063 1.964.415 2.229a1.223 1.223 0 0 0 1.775-.33 7.4 7.4 0 0 0 1.053-1.625 12 12 0 0 0 .569-1.376 3.85 3.85 0 0 0-.003-2.239m-2.251 5.307a.377.377 0 0 1-.524.173c-.278-.133-.482-.309-.251-.716a.5.5 0 0 1 .9.075.6.6 0 0 1-.125.468m1.573-4.586a10.4 10.4 0 0 1-.7 1.77 11.5 11.5 0 0 1-.816 1.575c-.412.558-.4-.54-.4-.54s.041-1.74.086-2.064a5.6 5.6 0 0 1 .526-1.727c.235-.257.472-.318.988-.12s.339.753.316 1.106m-5.725-2.108.035.031Zm-.329 6.817c-.122.011-.457-.335-.508-.814-.034-.325.124-3.82.1-4.039a1.15 1.15 0 0 1 .148-.515 1 1 0 0 1 .368-.446 1.4 1.4 0 0 1 .688-.187 4 4 0 0 0-.18-.413l-.005-.008.006.011a3.4 3.4 0 0 1-.573-.015l-.057-.008h-.007l-.064-.012h-.023l-.029-.006a.8.8 0 0 1-.219-.079c-.125-.07-.175-.124-.183-.169-.016-.066.062-.113.135-.164.122-.084.373-.025.731.05a7.85 7.85 0 0 0-5.056-1.808 10 10 0 0 0-2.631.315 4.46 4.46 0 0 0-2.583 1.6 3.83 3.83 0 0 0-.524 3.341 9.2 9.2 0 0 0 1.614 2.947c.452.626 1.136 1.139.657 1.7s-.906.963-.906.963l1.656-.71a9 9 0 0 0 1.28 1.008 3.95 3.95 0 0 0 1.774.488 5.82 5.82 0 0 0 3.649-1.993 11 11 0 0 0 .881-1.107c-.061.086-.057.063-.139.07M6.499 9.759s.106.732.231 1.381c.19.985.393 2.58-.267 1.424a22.4 22.4 0 0 1-1.65-4.078.94.94 0 0 1 0-.615c.034-.076.947-1.376 2.163-.876a1.7 1.7 0 0 1 .746.979 1.16 1.16 0 0 1-.382 1.25 8 8 0 0 1-.841.535m3.364 3.068a13 13 0 0 1-.364-1.631c-.072-.375-.026-1.238-.51-1.143-.249.049-.384.574-.549 1.4s-.219 1.006-.246 1.32-.069.669-.315.592-.253-.947-.212-1.9c.038-.929.084-.983.257-2.448s.54-1.681.64-1.806c.467-.572 1.242-.057 1.489 1.441a33 33 0 0 1 .438 3.85c-.02.431-.165 1.423-.628.325m1.722-5.046c.02.738-.018 2.236.009 3.147a18 18 0 0 1-.067 2.977c-.124.354-.346.32-.472-.254a11 11 0 0 1-.123-1.249c-.029-.676-.151-3.644-.3-4.543-.122-.753-.312-1.072-.73-1.187a4 4 0 0 0-.748-.125.352.352 0 0 1-.336-.506c.07-.174.423-.316.816-.369a9.9 9.9 0 0 1 2.969.084c.615.117.6.351.454.5-.2.2-.654.077-.992.285s-.496.61-.48 1.24m2.853-.192c-.025.456-.265 4.339-.278 4.701s-.088 1.514-.138 1.744-.161.737-.501.346a4.2 4.2 0 0 1-.173-1.451c-.008-.337.173-1.455.126-1.747-.084-.518-.351-.172-.448.156a8.5 8.5 0 0 0-.161 1.186 6.4 6.4 0 0 1-.257 1.539c-.387.81-.473-.06-.459-.472s.077-1.842.077-2.327.065-1.792.006-2.777a3.6 3.6 0 0 1 .136-1.523.47.47 0 0 1 .377-.318c.5-.016.179 1.668.165 2.488-.013.848-.063 1.04.287 1.065s.355-.459.319-.945a10 10 0 0 1 .137-1.89c.075-.338.2-.619.548-.508s.249.5.237.733m-8.839 7.807v-.009c.009-.011 0-.013 0-.031v-.023a.016.016 0 0 1-.016-.017c0-.018.011-.025.007-.037s-.016 0-.02-.016-.017-.02-.017-.02H5.54a.06.06 0 0 0-.039-.016l-.022-.016c-.016-.042-.018-.092-.028-.09s0 .02-.008.039-.014.009-.014.009c-.031-.075-.059-.066-.068-.079s-.013-.005-.031-.02-.03 0-.006.016.024.045.031.056 0 .018-.016.011 0-.025-.02-.049-.073-.082-.077-.064.016.025.033.072 0 .045 0 .048-.013-.005-.036-.036-.036-.034-.036-.034c-.009-.018-.025-.025-.042-.039s-.023-.029-.032-.02q-.013.014.025.052a.1.1 0 0 1 .031.05c.012.025.007.03-.008.032s-.05-.041-.066-.059-.034-.03-.05-.045-.02 0-.011.02a1 1 0 0 0 .052.077c.018.023 0 .032-.016.03a.1.1 0 0 1-.03-.014c-.036-.02-.041-.02-.056-.03s-.036-.031-.041-.027-.014.011.006.043 0 .031 0 .031c-.032-.011-.064.005-.057.031a.1.1 0 0 0 .025.046v.016c0 .016.013.025.013.025s.009.041.034.042c.043 0 .006.009.041.018a.4.4 0 0 0 .088.011.03.03 0 0 1-.006.016.8.8 0 0 0-.287.237c-.006.007-.016.034-.023.043a1 1 0 0 0-.072.1c-.011.016-.03.039-.039.054a2 2 0 0 0-.085.145c-.007.013-.017.042-.025.054a1.4 1.4 0 0 1-.1.136.56.56 0 0 1-.223.135 1 1 0 0 1-.115.037c-.064.013-.118.029-.174.045a2 2 0 0 0-.201.07c-.059.024-.145.077-.226.113l-.014-.036-.009-.02-.011-.014s0-.011-.009-.018-.013-.013-.02-.022a.14.14 0 0 0-.084-.056l-.02-.007-.013-.005-.034-.022a.3.3 0 0 1-.091-.069.6.6 0 0 0-.188-.3c-.006 0-.022 0-.029-.009s-.02-.03-.03-.034h-.02v-.006l-.02-.027-.011.011a.5.5 0 0 0-.147-.052l-.077.006q-.045.002-.086.009c-.027.004-.041.011-.061.018a.6.6 0 0 0-.17.083.7.7 0 0 0-.136.14.9.9 0 0 0-.167.355.4.4 0 0 0-.036.115.65.65 0 0 0-.035.391.33.33 0 0 0 .118.181v-.014l-.05-.109a.7.7 0 0 1-.016-.144.5.5 0 0 1 .022-.168.1.1 0 0 1 .016-.033c.012.022.039.063.039.063l-.025-.1a.5.5 0 0 1 .1-.154l-.011-.009a.04.04 0 0 0 .02 0c.025-.03.045-.05.045-.05a.04.04 0 0 0 .016.02l.005-.013h.007l.011-.014a.02.02 0 0 1 .013 0h.012a.06.06 0 0 0-.032.031l.007.016.027.023a.3.3 0 0 0-.047.095l-.007.036a.2.2 0 0 0-.011.1.1.1 0 0 0 .02.041s.011-.045.018-.067l.022-.053a.1.1 0 0 1 .023-.036v-.005a.2.2 0 0 0 0 .089c.016.027.02.045.025.045l.016-.025.007.014v.016c-.036.02-.036.027-.036.027h.011c.031 0 0 .009 0 .009-.02.006-.017.013-.017.013h.013v.007h.011l-.02.014c0 .042.028.041.066.03l.07-.021v.007l.108-.025a.05.05 0 0 1 .043.014c-.009.006-.006.02-.006.02a.03.03 0 0 0-.018.025s-.009 0 0 .027a.2.2 0 0 0 .032.056c.022 0 .03.016.022.039s.007.045.045.052.041.023.041.023a.05.05 0 0 1 .005.045c-.022.027.025.052.025.052a.04.04 0 0 1 .007.05l-.007-.009v.011l-.002-.002v.013l-.016-.006a.1.1 0 0 0 .027.031v.011h.005v.009a.01.01 0 0 1 0 .016.023.023 0 0 1 .005.034.2.2 0 0 1 .045.038v.012h.024l.018.014.014-.009.009.011v.028a.02.02 0 0 1 0 .016c.022.006.011.031.011.031l.011.034.03.017.02.009h.009l-.007.029.012-.011.022.027a.3.3 0 0 0 .079.1c.02.014.006.025.006.025a.2.2 0 0 1 .045.039v.011h.025l.017.013.014-.009.014.016h.013v.011l.028.03h.016l-.007.014h.021v.014l.025-.007.009.014.022.016.02.009h.009l.018.023.011-.012.023.028.013.011-.013.009c.006.005.052.03.052.03v.017l.011.009v.025l.027-.005a.05.05 0 0 1 .042.014c-.012.081.008.072.008.072l.02-.009c.03 0 .037-.017.037-.017 0 .016.031.022.033.034s-.017.022-.017.022l.017.006h.009v.011l.018-.007c.009.048.022.037.022.037s.023-.009.028-.018.025.02.025.02l.005.02a.3.3 0 0 0-.012.109.3.3 0 0 0 .054.1.5.5 0 0 0 .031.133 3 3 0 0 1 .101.285l.027.083s-.006.014 0 .016.005.009.005.009v.018c0 .007 0 .047-.014.047a.02.02 0 0 0-.016.02c-.023.012-.018.016-.018.02s-.016.014-.016.014v.007l-.016.016-.028.025-.012.006-.011.009-.009.005h-.024a.08.08 0 0 0-.061.05c-.011.025 0 .052.014.027a.04.04 0 0 1 .034-.022s0 .022.031.025a.06.06 0 0 0 .054-.016l.002.004.017-.006.034-.032c.014-.009.016-.006.016-.006a.1.1 0 0 1 0 .036.2.2 0 0 1-.036.041.2.2 0 0 0-.057.025l-.023.022v.005a.16.16 0 0 0-.061.075c0 .027.018.009.03 0l.022-.022h.007c.006.013.047.017.067 0a.05.05 0 0 1 .045-.02.06.06 0 0 0 .04-.041.08.08 0 0 1 .066-.041.06.06 0 0 1 .039.011.09.09 0 0 0-.064.066c0 .022.007.031.014.016a.06.06 0 0 1 .031-.027h.005c0 .02.034.028.057.02a.06.06 0 0 0 .036-.027l.006.005v.028a.1.1 0 0 1-.022.027c-.02.009-.02.016-.02.016-.039 0-.042.011-.046.016l-.008.007a.14.14 0 0 0-.064.049c-.011.014-.025.05-.011.041l.047-.033c.012-.009.007.006.02.013a.1.1 0 0 0 .057 0 .03.03 0 0 1 .016-.013.07.07 0 0 0 .056-.02h.025l.02-.014c.041-.011.03-.025.03-.025h.133l.057.014h.065a.3.3 0 0 0 .075 0 .07.07 0 0 1 .068 0c.017.009.07.009.075 0a.04.04 0 0 1 .016-.018c.027 0 .042.032.067.03s0-.03-.034-.056a.2.2 0 0 0-.074-.03c.014-.005.005 0 .045 0s.034-.023.034-.023c.016-.014.041-.011.07 0q.044.017-.007-.034a.1.1 0 0 0-.088-.014l-.009-.006h-.03l-.013-.005a.3.3 0 0 1-.136.011.1.1 0 0 0-.057-.005l-.027-.016a.02.02 0 0 0 .023-.013.05.05 0 0 0 .052 0s0 .007.036.007a.04.04 0 0 0 .041-.034.1.1 0 0 1 .036 0c.05.024.032 0 .032 0a.084.084 0 0 0-.1-.034c-.028-.016-.03-.005-.03-.005a.14.14 0 0 0-.07.007 1 1 0 0 0-.09 0 .3.3 0 0 1-.084-.006 2 2 0 0 1-.063-.226c-.011-.03-.05-.217-.05-.217l-.018-.118c.014-.013.014-.022.016-.067s.028-.05.039-.111.095-.14.117-.17a1 1 0 0 0 .059-.1c.014.02.023.011.036 0s.009-.041.014-.049a.1.1 0 0 0 .006-.028v-.034a.3.3 0 0 1 .023-.061l.006-.017v-.012l.022-.042a.5.5 0 0 1 .095-.089l-.022.028a.4.4 0 0 1 .053-.025l.014-.012-.006.018c.054-.061.066-.041.066-.041v-.022c0-.012.014.008.014.008l.038-.041v.023h.009a.04.04 0 0 1 .016-.027.1.1 0 0 1 0 .034l.009-.016a.1.1 0 0 0 .017-.03h.024s.022-.03.018-.05a.1.1 0 0 1 .011-.043.03.03 0 0 0 .016.025v-.036h.009a.3.3 0 0 1 0-.075c.047-.045.178-.151.178-.151.036-.027.064-.067.113-.111a1 1 0 0 1 .089-.07v-.011l.012-.005a.8.8 0 0 0 .1-.185l.047-.156v-.011c.022 0 0-.031.016-.041s.011-.045.011-.045a.1.1 0 0 0 .016-.061.2.2 0 0 0 .011-.059 1 1 0 0 1 .025-.142.9.9 0 0 0-.052-.315 1.4 1.4 0 0 0-.106-.2c-.016-.027 0-.034 0-.034l.058-.014.093-.029a.2.2 0 0 0 .031-.03c.009-.014.016-.016.016-.016a.03.03 0 0 0 .028-.032.13.13 0 0 0 .022-.1s.014-.023-.006-.093-.05-.074-.05-.074l-.007-.017a.02.02 0 0 0-.017-.013.04.04 0 0 1 .02-.02.013.013 0 0 1 .016 0h.041a.1.1 0 0 0 .036-.006s.017.018.007-.011a.12.12 0 0 0-.049-.066.1.1 0 0 0-.053-.021m-1.454 3.573c-.011-.039-.022-.048-.041-.111a13 13 0 0 1-.083-.326l.011-.009a.5.5 0 0 0 .047.086 2 2 0 0 1 .073.271l.027.125a.1.1 0 0 0-.034-.036"/></svg>