<svg xmlns="http://www.w3.org/2000/svg" viewBox="0 0 24 24"><path fill="#44739e" d="M10.278 14.757a2.7 2.7 0 0 0-.539-.018 2.5 2.5 0 0 0-.513.061s.087.948.139 2.078.044 2.357.044 2.357c.182.017.356.026.539.017.174-.009.348-.026.513-.061 0 0 .009-1.043-.044-2.356a40 40 0 0 0-.139-2.078m-2.556 3.347a12 12 0 0 0-1.096-.843 9.6 9.6 0 0 0 1.296-2.339c-.235.017-.47.043-.705.087-.156.034-.365.078-.521.121-.339.844-.687 1.453-1.209 2.035-.165-.904-.357-1.73-.357-1.73a3.5 3.5 0 0 0-.539.061q-.248.052-.495.13s.208.8.443 2.113.357 2.252.357 2.252a5 5 0 0 0 .53-.052c.174-.035.339-.078.504-.139 0 0-.113-.783-.234-1.478.078-.07.165-.165.243-.252 0 0 .391.269.87.669q.43.352.808.757c.131-.009.409-.044.557-.061a5 5 0 0 0 .783-.165c-.009-.009-.6-.627-1.235-1.166m10.808-2.921c-1.026-.192-1.808.217-1.965 1.052-.156.878.444 1.287 1.157 1.608.748.348.835.496.791.722-.043.235-.27.357-.765.261a2.2 2.2 0 0 1-1.2-.652c-.252.2-.47.443-.635.722.235.295.739.695 1.635.869 1.069.2 1.835-.191 2-1.139.13-.783-.365-1.235-1.165-1.6-.766-.339-.844-.452-.8-.669.034-.2.287-.314.695-.235.409.069.783.269 1.07.556.278-.174.504-.426.635-.73-.218-.278-.679-.618-1.453-.765m-5.443-.522a8 8 0 0 0-1.461.078s.052.835.017 2.148c-.026 1.313-.113 2.27-.113 2.27.487.078.983.113 1.479.121 1.548.035 2.591-.835 2.626-2.295.026-1.366-.878-2.287-2.548-2.322m1.391 2.304c-.017.835-.521 1.365-1.391 1.348-.165 0-.322-.017-.478-.026 0 0 .061-.574.078-1.357s-.026-1.295-.026-1.295c.165-.009.313-.009.452-.009.904.017 1.383.539 1.365 1.339m4.939-8.6c-.817-.356-1.156-.652-1.087-1.035.07-.434 1.044-.834 2.435.357 0 0 .339-.244.705-.713.356-.478.53-.8.53-.8s-.991-1.035-2.435-1.304c-1.8-.331-3.148.721-3.365 2.391-.183 1.409.67 2.243 2.409 3 1.243.539.748 1.461-.035 1.382-.635-.069-1.322-.556-1.765-1.078 0 0-.322.305-.696.748a7 7 0 0 0-.565.748c.635.765 1.678 1.33 2.669 1.469 1.687.235 2.992-.756 3.226-2.347.244-1.687-1.086-2.409-2.026-2.818M9.27 12.713c.53.139 1.487.313 2.973.313 1.861 0 3.253-1.087 3.253-2.661 0-.982-.409-1.582-1.253-1.974.696-.408.827-1.504.827-1.852 0-1.513-1.096-2.53-3.053-2.53a11 11 0 0 0-2.808.382c.295 2.731.295 5.826.061 8.322m3.895-5.896c0 .853-.913 1.044-1.748.861 0-.921-.052-1.748-.052-1.748 1-.226 1.8.035 1.8.887m-1.748 2.566c.948-.183 1.974.034 1.974.913s-1.034 1.061-2.043.861c.009 0 .069-.783.069-1.774m-5.991 1.626.522-.113c2.043-.505 3.122-2.157 2.756-3.905C8.322 5.2 6.6 4.383 4.348 4.93c-.818.2-1.783.557-2.348.861.791 2.6 1.374 5.496 1.687 8.148.73-.122 1.461-.269 2.183-.469a94 94 0 0 0-.444-2.461m-.409-1.861L4.53 6.896s.383-.131.54-.174c.808-.2 1.408.182 1.547.869.166.713-.252 1.252-1.287 1.505q-.156.039-.313.052"/></svg>