<svg xmlns="http://www.w3.org/2000/svg" viewBox="0 0 24 24"><path fill="#44739e" d="M13.017 15.096c-.113 0-.234-.009-.365 0 0 0 .035.417.018 1.052s-.061 1.104-.061 1.104c.121.009.252.018.391.018.704.017 1.113-.418 1.13-1.096 0-.644-.382-1.07-1.113-1.078m.218-4.331c0-.713-.835-.887-1.609-.739 0 .809-.052 1.444-.052 1.444.826.156 1.661.008 1.661-.705m-.183-2.826c0-.696-.652-.913-1.461-.713 0 0 .044.67.044 1.417.678.148 1.417-.008 1.417-.704m-5.313.626c-.122-.556-.609-.869-1.261-.704-.13.026-.443.139-.443.139l.391 1.826c.087-.009.174-.026.252-.043.852-.2 1.183-.644 1.061-1.218"/><path fill="#44739e" d="M12 2C6.478 2 2 6.478 2 12s4.478 10 10 10 10-4.478 10-10S17.522 2 12 2M3.983 7.104a9 9 0 0 1 1.904-.695c1.826-.452 3.226.217 3.539 1.669.304 1.418-.574 2.765-2.235 3.174l-.417.096s.183.93.365 2a17 17 0 0 1-1.774.382 41.4 41.4 0 0 0-1.382-6.626m5.008 11.079a10 10 0 0 1-.452.052 7 7 0 0 0-.661-.618c-.391-.321-.704-.539-.704-.539-.061.061-.131.139-.191.2.095.565.191 1.2.191 1.2-.131.044-.27.087-.409.113s-.287.044-.426.044c0 0-.096-.765-.287-1.826s-.365-1.713-.365-1.713c.13-.044.261-.087.4-.105q.222-.041.443-.043s.157.669.296 1.409c.417-.479.704-.974.983-1.653.13-.034.295-.069.417-.095q.287-.055.574-.07a7.4 7.4 0 0 1-1.052 1.904c.313.209.609.435.895.687.514.435 1 .94 1 .94-.226.034-.434.087-.652.113m3.122-12.531c1.591 0 2.478.818 2.478 2.052 0 .279-.104 1.174-.669 1.505.678.313 1.017.8 1.017 1.6 0 1.278-1.13 2.156-2.635 2.165-1.208 0-1.982-.139-2.417-.252a35.3 35.3 0 0 0-.052-6.757 9 9 0 0 1 2.278-.313m-1.261 12.331q-.209.039-.417.052c-.148.008-.296 0-.435-.018 0 0 .009-.991-.035-1.913s-.113-1.687-.113-1.687q.209-.052.418-.052c.147-.008.295 0 .434.018 0 0 .07.617.113 1.687.053 1.069.035 1.913.035 1.913m2.078.069a10 10 0 0 1-1.2-.095s.07-.774.087-1.844-.017-1.739-.017-1.739a7 7 0 0 1 1.191-.07c1.357.026 2.096.783 2.07 1.879-.026 1.191-.87 1.895-2.131 1.869m5.157-2.122c-.235-.234-.539-.391-.87-.452s-.539.026-.565.192c-.035.173.035.269.652.547.644.296 1.053.661.948 1.296-.13.774-.756 1.096-1.626.93-.73-.139-1.13-.46-1.322-.704.131-.226.305-.426.513-.582.2.234.548.452.974.53.409.078.592-.017.626-.217.035-.183-.034-.305-.643-.583-.583-.261-1.07-.591-.939-1.304.13-.679.765-1.009 1.6-.853.626.122 1.008.4 1.182.6a1.4 1.4 0 0 1-.53.6m.043-6.739c.766.331 1.844.922 1.644 2.287-.191 1.296-1.252 2.096-2.626 1.905-.8-.113-1.652-.574-2.165-1.192 0 0 .147-.243.46-.608.305-.366.566-.609.566-.609.365.417.913.817 1.434.878.635.07 1.044-.687.027-1.122-1.418-.608-2.113-1.295-1.966-2.426.174-1.365 1.279-2.217 2.739-1.947 1.174.217 1.983 1.06 1.983 1.06s-.139.261-.435.644-.574.582-.574.582c-1.13-.973-1.913-.652-1.974-.295-.052.313.227.556.887.843"/></svg>