<?xml version="1.0" encoding="UTF-8"?>
<svg width="24px" fill="#44739e" height="24px" viewBox="0 0 24 24" version="1.1" xmlns="http://www.w3.org/2000/svg" xmlns:xlink="http://www.w3.org/1999/xlink">
            <path d="M 12,2 A 10,10 0 1 0 22,12 10,10 0 0 0 12,2 Z m 2.422,11.744 a 1.125,1.125 0 0 1 -1.106,1.105 h -0.56 v 2.889 H 8.714 v -3.006 a 3.792,3.792 0 0 1 -3.242,-4 4.306,4.306 0 0 1 4.522,-4.3 h 3.024 l 2.5,5.642 h -1.1 z m 3.349,-1.67 v 1.665 a 1.115,1.115 0 0 1 -1.115,1.111 h -0.527 v 2.888 H 14.511 V 14.85 c 1.233,0.016 1.612,-0.372 1.609,-1.28 v -1.5 h 1.131 L 14.77,6.431 h 1.63 l 2.469,5.643 z M 12.226,9.3 a 0.99,0.99 0 1 0 0.99,0.989 0.991,0.991 0 0 0 -0.99,-0.989 z"/>

</svg>