<svg xmlns="http://www.w3.org/2000/svg" viewBox="0 0 24 24"><path fill="#44739e" d="m12.255 11.731.184-.318v-.924l-.717 1.242Zm.174-.321-.18.311h-.511l.691-1.2Zm-.88.228v-.019l.7-1.215h-.345l-.352.61v-.02.644Zm.01-.622.348-.6h.327l-.675 1.169Zm.879-.527v.943-.963l-.001.001Zm-.187-.086h.011v.001Zm-.361-.002.01.005Zm-.52.001v1.342a.17.17 0 0 0 .172.172h.9a.17.17 0 0 0 .172-.172v-1.348a.17.17 0 0 0-.172-.171h-.9a.17.17 0 0 0-.172.177m.169.614.01-.016v-.598h.341l.006-.009h.372l-.006.009h.177v.066l.009-.017v.963l-.009.017-.179.309h-.556l.734-1.271v-.067h-.176l-.713 1.234v.093-.092l-.01.016Zm.351-.612h-.341v.59Zm-.23 1.778a.253.253 0 1 0 .253.253.25.25 0 0 0-.253-.253m0 .326a.07.07 0 0 1-.061-.033.07.07 0 0 1-.013-.041.074.074 0 1 1 .147 0 .074.074 0 0 1-.072.074Zm.074-.073h-.147a.1.1 0 0 0 .013.04.07.07 0 0 0 .06.033.074.074 0 0 0 .074-.073m.601-.253a.253.253 0 1 0 .252.253.25.25 0 0 0-.252-.253m.074.253a.074.074 0 0 1-.148 0 .074.074 0 0 1 .148 0m-.074.073a.075.075 0 0 0 .074-.073h-.148a.074.074 0 0 0 .074.073m2.625-7.13-.295-.9-.009-.024a.2.2 0 0 0-.107-.1.2.2 0 0 0-.143.008l-1.855.881.011.009a.82.82 0 0 1 .25.588 1 1 0 0 1-.009.148v.014l2.019-.379a.2.2 0 0 0 .127-.088l.009-.015a.2.2 0 0 0 .002-.142m-.026.149a.18.18 0 0 1-.121.084l-2.005.377a.7.7 0 0 0 .013-.146.82.82 0 0 0-.253-.595l1.842-.874a.177.177 0 0 1 .237.084l.009.022.295.9a.18.18 0 0 1-.018.146Zm-3.73.461a1 1 0 0 1-.014-.144.82.82 0 0 1 .254-.587l.011-.01-1.861-.884a.2.2 0 0 0-.156 0 .2.2 0 0 0-.1.114l-.295.9-.006.024a.186.186 0 0 0 .15.218l2.017.379Zm-2.018-.377a.18.18 0 0 1-.143-.207l.006-.023.295-.9a.17.17 0 0 1 .1-.109c.014-.006.029 0 .044 0a.1.1 0 0 0-.04.008.17.17 0 0 0-.093.1l-.295.9-.005.021a.17.17 0 0 0 .134.2l1.99.372a1 1 0 0 1-.011-.134.84.84 0 0 1 .249-.59l-1.83-.869a.2.2 0 0 0-.043-.009c.016 0 .033-.007.048 0l1.842.874a.82.82 0 0 0-.256.593 1 1 0 0 0 .011.15Zm2.428-.488a.81.81 0 0 1 .77 0l.012.007.263-2.037v-.024a.19.19 0 0 0-.187-.188h-.975a.187.187 0 0 0-.161.211l.268 2.038Zm-.11-2.23h.974a.18.18 0 0 1 .177.178v.022l-.261 2.023a.83.83 0 0 0-.778 0l-.268-2.028a.177.177 0 0 1 .156-.195m1.149 2.946a.654.654 0 0 0-.649-.651.655.655 0 0 0 0 1.31.655.655 0 0 0 .649-.659m-.649.649a.646.646 0 1 1 .645-.647.645.645 0 0 1-.645.647m1.215 2.062c-.009 0-.016-.01-.025-.012.009.002.015.011.025.012m-.481-2.369-.006.013a.82.82 0 0 1-.622.453h-.014l.983 1.814.013.021a.2.2 0 0 0 .1.052.17.17 0 0 1-.089-.054l-.013-.02-.975-1.804a.83.83 0 0 0 .629-.458l1.4 1.496a.177.177 0 0 1-.007.252l-.017.014-.769.559a.18.18 0 0 1-.129.031c.009 0 .015.013.025.013a.2.2 0 0 0 .11-.036l.769-.559.018-.015a.2.2 0 0 0 .059-.131.2.2 0 0 0-.051-.135Zm-1.47.013-.007-.013-1.41 1.506-.015.015a.2.2 0 0 0-.034.14.18.18 0 0 0 .075.123l.769.559.02.013a.2.2 0 0 0 .09.023.2.2 0 0 0 .053-.008.2.2 0 0 0 .112-.09l.983-1.814h-.014a.81.81 0 0 1-.622-.454m-.356 2.266a.18.18 0 0 1-.241.071l-.02-.012-.768-.559a.18.18 0 0 1-.039-.249l.014-.017 1.4-1.496a.82.82 0 0 0 .63.458Zm3.215-.521a.16.16 0 0 0 .053-.118.17.17 0 0 0-.046-.12l-1.391-1.486a.83.83 0 0 1-.616.449l.969 1.792.012.018a.167.167 0 0 0 .234.037l.769-.558Zm.52-3.458-.009-.021a.167.167 0 0 0-.224-.079l-1.829.868a.83.83 0 0 1 .246.592 1 1 0 0 1-.011.134l1.992-.374a.17.17 0 0 0 .106-.067l.007-.012a.17.17 0 0 0 .016-.138Zm-3.391 1.734L9.865 7.702l-.013.016a.17.17 0 0 0 .036.236l.769.558.019.012a.17.17 0 0 0 .128.013.16.16 0 0 0 .1-.08l.97-1.792a.83.83 0 0 1-.618-.45m.748-1.209a.8.8 0 0 1 .381.093l.255-2.011v-.019a.17.17 0 0 0-.167-.168h-.969a.17.17 0 0 0-.143.189l.26 2.008a.8.8 0 0 1 .383-.092m.444.382a.63.63 0 0 0-.449-.186.636.636 0 0 0-.449 1.086.63.63 0 0 0 .449.186.636.636 0 0 0 .449-1.086m2.897 1.413c.013-.044.034-.085.045-.13-.011.045-.032.086-.045.13m.141-.798a3.5 3.5 0 0 0-.206-1.356 3.5 3.5 0 0 1 .206 1.356m0 0v.019Zm-.002.019a3.4 3.4 0 0 1-.094.649 3.4 3.4 0 0 0 .094-.649m-.494-1.985a3.5 3.5 0 0 1 .278.584 3.5 3.5 0 0 0-.278-.584m-.079-.106c.024.036.056.068.079.106-.023-.038-.054-.07-.079-.106m.357.69c0 .009.009.017.012.026Zm-3.736 5.055a4 4 0 0 1-.334-.055v3.554a.5.5 0 0 0 .5.5h.6a.5.5 0 0 0 .499-.5V9.621q-.165.034-.333.055a4 4 0 0 1-.932 0m1.264-.052v3.551a.5.5 0 0 1-.499.5h-.6a.5.5 0 0 1-.5-.5V9.624c.1.021.2.039.332.054a3.8 3.8 0 0 0 .934 0q.177-.021.333-.054m2.429 11.169h-2.721v-4.981a.136.136 0 0 0-.136-.136h-.009v-1.734a.77.77 0 0 0 .711-.768V9.556a3.853 3.853 0 1 0-4.772-2.632 4 4 0 0 0 .241.607 3.6 3.6 0 0 1-.367-1.943 3.8 3.8 0 0 0 .132 1.335 4 4 0 0 0 .243.622l-.007-.014q.024.05.051.1l-.007-.011a4 4 0 0 0 .337.546v.006a4 4 0 0 0 .756.756h.007a4 4 0 0 0 .545.337l-.013-.006.1.052-.016-.008a4 4 0 0 0 .623.243v3.623a.77.77 0 0 0 .71.764v1.748h-.013a.13.13 0 0 0-.131.131V20.8H8.772a.623.623 0 0 0-.621.62v.135a.445.445 0 0 0 .443.445h6.809a.443.443 0 0 0 .442-.442v-.134a.62.62 0 0 0-.62-.621h-2.727v-4.991a.13.13 0 0 0-.131-.131h-.014v-1.743a.77.77 0 0 0 .709-.764V9.552a3.8 3.8 0 0 0 1.19-.6 3.8 3.8 0 0 1-1.189.6v3.62a.77.77 0 0 1-.712.766v1.738h.012a.134.134 0 0 1 .133.134v4.99h2.725a.625.625 0 0 1 .623.624v.134a.447.447 0 0 1-.441.442H8.594a.447.447 0 0 1-.445-.445v-.135a.625.625 0 0 1 .623-.623h2.732v-4.984a.134.134 0 0 1 .133-.133h.011v-1.739a.77.77 0 0 1-.713-.766V9.554a4 4 0 0 1-.606-.237 4 4 0 0 0 .6.239v3.619a.773.773 0 0 0 .713.768v1.734h-.009a.136.136 0 0 0-.136.136v4.98H8.772a.63.63 0 0 0-.626.625v.135a.45.45 0 0 0 .448.447h6.809a.45.45 0 0 0 .447-.447v-.134a.627.627 0 0 0-.625-.626m-.287-12.454a3.9 3.9 0 0 0 .729-1.321 3.9 3.9 0 0 1-.729 1.321m.743-1.383a4 4 0 0 0 .142-.68 4 4 0 0 1-.142.68m.145-.857a3.8 3.8 0 0 0-.131-1.325 3.8 3.8 0 0 0-.592-1.186 3.8 3.8 0 0 1 .593 1.183 3.8 3.8 0 0 1 .13 1.328m-.823-2.664a4 4 0 0 0-.47-.482 3.7 3.7 0 0 1 .47.482m-.52-.533a3.9 3.9 0 0 0-1.32-.729 3.9 3.9 0 0 1 1.319.729Zm-1.392-.745a4 4 0 0 0-.655-.14 4 4 0 0 1 .654.14Zm-.014.356a4 4 0 0 1 .363.151 3.5 3.5 0 0 0-.455-.173c.029.009.061.012.091.022Zm-2.145-.37a3.8 3.8 0 0 1 1.32-.129 3.66 3.66 0 0 0-2.505.723 3.8 3.8 0 0 1 1.184-.594Zm1.814.291c-.082-.018-.162-.04-.245-.052.082.012.162.034.244.052Zm-.622-.081h-.246c.041 0 .081-.01.122-.01s.081.008.123.01Zm-.624.029c-.083.012-.164.034-.246.052.081-.018.162-.04.25-.052Zm-.486.106a4 4 0 0 0-.457.173 4 4 0 0 1 .364-.151c.031-.006.062-.01.093-.022m-1.421.35a4 4 0 0 0-.483.47 4 4 0 0 1 .483-.47m-.533.52a3.9 3.9 0 0 0-.729 1.32 3.9 3.9 0 0 1 .729-1.32m-.885 2.048a4 4 0 0 1 .14-.654 4 4 0 0 0-.14.654m3.917 10.275h-.188v-1.7h.184Zm.709-2.506a.505.505 0 0 1-.499.5h-.6a.505.505 0 0 1-.5-.5V9.617c.1.022.2.04.333.056a4 4 0 0 0 .934 0q.174-.022.332-.056Zm-.377-3.851a3.5 3.5 0 0 1-.849 0 3.5 3.5 0 0 1-3.071-3.485 3.46 3.46 0 0 1 1.954-3.133 3.5 3.5 0 0 0-.528.319 3.493 3.493 0 1 0 4.882 4.9 3.5 3.5 0 0 0 .534-1.124 3.45 3.45 0 0 1-2.922 2.514A3.491 3.491 0 0 1 9.93 3.027a3.6 3.6 0 0 1 .537-.325l.05-.021a3.5 3.5 0 0 1 .5-.19c.075-.022.151-.037.226-.054s.176-.042.266-.055.167-.014.252-.02a4 4 0 0 1 .484 0c.084.006.168.008.251.02s.176.035.265.055.151.032.225.054a3.4 3.4 0 0 1 .5.191l.048.02a3.4 3.4 0 0 1 1.381 1.229 3.5 3.5 0 0 0-.842-.906 3.5 3.5 0 0 0-.528-.319 3.43 3.43 0 0 1 1.458 1.346 3.5 3.5 0 0 1-2.579 5.272m2.468-.94a4 4 0 0 1-.487.475 4 4 0 0 0 .487-.475m-5.966-.211a3.6 3.6 0 0 0 .756.756 3.8 3.8 0 0 1-.756-.756m-.005-.008a4 4 0 0 1-.331-.533 4 4 0 0 0 .331.533m1.301 1.1a4 4 0 0 1-.531-.33 4 4 0 0 0 .531.33m1.867 4.722h-.179v1.692h.179Zm0 1.689h-.174v-1.687h.174Z"/></svg>