<?xml version="1.0" encoding="UTF-8"?>
<svg width="33px" height="32px" viewBox="0 0 33 32" version="1.1" fill="#44739e" xmlns="http://www.w3.org/2000/svg" xmlns:xlink="http://www.w3.org/1999/xlink">
            <path d="M19.41406,2.26984l-.13867-.10743c-.07519-.05859-1.90918-1.438-6.5498-1.5332a29.73562,29.73562,0,0,0-7.89112.81592L4.51953,1.532,4.37305,2.54572,6.91553,12.87286l.08691.09473A6.29334,6.29334,0,0,0,9.667,14.71075a15.60723,15.60723,0,0,1-.485,5.2699c-1.00788.29865-1.74353.796-1.74353,1.528,0,1.28418,2.23,1.86914,4.30224,1.86914,2.07178,0,4.30225-.585,4.30225-1.86914,0-.71985-.7124-1.21253-1.69446-1.51294a16.69238,16.69238,0,0,1-.4823-5.3855c2.71777-.40918,2.80762-.625,2.91113-.873.0918-.2207,1.8086-6.63428,2.82422-10.4375l.03223-.12305ZM8.55829,4.02209l.64483,5.21406L7.36639,8.27441,6.15027,3.20087ZM8.1908,11.71362l-.515-2.14831,1.67664.87829.27765,2.24488Zm2.54174,1.25049-.267-2.51514,5.33361-.49517L15.173,12.40356Zm5.32959-4.03937-5.70227.52936L9.80261,4.20581l7.5752-.42871Z"></path>

</svg>