<?xml version="1.0" encoding="UTF-8"?>
<svg width="32px" height="32px" viewBox="0 0 32 32" version="1.1" xmlns="http://www.w3.org/2000/svg" xmlns:xlink="http://www.w3.org/1999/xlink">
    <!-- Generator: Sketch 51.3 (57544) - http://www.bohemiancoding.com/sketch -->
<style>path{fill:#000}@media (prefers-color-scheme:dark){path{fill:#fff}}</style>
            <path d="M6.92,18.67C6.92,20.2,9.47,21,12,21s5.08-0.8,5.08-2.34C17.08,15.6,6.92,15.6,6.92,18.67z M23.63,16.15c0-2.38-3.25-4.28-7.98-4.93L14.31,5.3c0.91-0.36,1.48-0.94,1.48-1.62V2.85c0-1.15-1.59-2.01-3.7-2.01 c-2.11,0-3.7,0.86-3.7,2.01v0.82c0,0.64,0.51,1.19,1.32,1.55l-1.35,6c-4.73,0.65-7.99,2.55-7.99,4.93v2.33 c0,0.02,0.01,0.03,0.01,0.05c0,0.02-0.01,0.03-0.01,0.05l0.01,0C0.5,21.29,5.55,23.4,12,23.4c6.45,0,11.5-2.11,11.62-4.83l0.01,0 c0-0.02-0.01-0.03-0.01-0.05c0-0.02,0.01-0.03,0.01-0.05V16.15z M12.5,5.66c0.3-0.02,0.58-0.05,0.85-0.1l1.25,5.54 c-0.67-0.06-1.37-0.1-2.09-0.11V5.66z M10.66,5.54c0.26,0.06,0.55,0.09,0.84,0.12v5.34c-0.72,0.01-1.42,0.05-2.09,0.11L10.66,5.54z M12,12.48c5.73,0,9.79,1.78,10.1,3.46c-1.97-1.54-5.66-2.54-10.1-2.54s-8.13,1-10.1,2.54C2.21,14.27,6.27,12.48,12,12.48z M12,22.4c-6.26,0-10.62-2.07-10.62-3.92l0.08-0.38c0.61-1.61,5.01-3.19,10.54-3.19s9.93,1.58,10.54,3.19l0.08,0.38 C22.62,20.34,18.26,22.4,12,22.4z"></path>

</svg>