<svg xmlns="http://www.w3.org/2000/svg" viewBox="0 0 24 24"><path fill="#44739e" d="M17.969 17.62c-3.275.84-8.654.84-11.931 0-3.233-.828-3.134-2.147.14-2.946 3.23-.787 8.405-.787 11.637 0 3.278.799 3.383 2.118.154 2.946m3.968-6.868c-.243-.625-1.237-1.225-2.955-1.7-1.725-.476-3.912-.739-6.149-.79V4.474c0-.216-.372-.391-.833-.391s-.833.175-.833.391v3.788c-2.24.051-4.429.313-6.154.79-1.719.475-2.707 1.075-2.95 1.7a.75.75 0 0 0-.063.312v6.042c0 .106.018.212.063.312.237.6 1.156 1.181 2.78 1.649 3.932 1.133 10.389 1.133 14.319 0 1.619-.468 2.538-1.049 2.775-1.649a.75.75 0 0 0 .063-.312v-6.042a.8.8 0 0 0-.063-.312"/></svg>