<svg xmlns="http://www.w3.org/2000/svg" viewBox="0 0 24 24"><path fill="#44739e" d="M13.157 8.264c-.037-1.198-1.39-3.146-1.774-3.685l-.046-2.131A.463.463 0 0 0 10.88 2H8.896a.463.463 0 0 0-.458.448L8.393 4.57c-.385.539-1.738 2.496-1.775 3.694l-.402 12.008a.45.45 0 0 0 .311.448c.018.009.146.045.347.1 0 .064 0 .128.028.183.101.229.613.997 2.99.997s2.89-.759 2.991-.997c.027-.055.027-.119.027-.183a6 6 0 0 0 .348-.1.45.45 0 0 0 .311-.448Zm4.298.073c-.036-.969-1.116-2.533-1.436-2.972l-.036-1.719a.36.36 0 0 0-.366-.357h-1.591a.366.366 0 0 0-.366.357l-.037 1.719c-.073.11-.201.284-.347.503.439.823.777 1.665.796 2.369l.384 11.157c.119.009.237.018.365.018 1.912 0 2.332-.613 2.406-.805a.4.4 0 0 0 .027-.146c.165-.046.265-.073.274-.082a.38.38 0 0 0 .256-.366Z"/></svg>