<?xml version="1.0" encoding="UTF-8"?>
<svg width="24px" height="24px" viewBox="0 0 24 24" fill="#44739e" version="1.1" xmlns="http://www.w3.org/2000/svg" xmlns:xlink="http://www.w3.org/1999/xlink">
             <path d="m 12.353,6 c 0.706,0 0.706,0.235 0.706,0.235 v 3.059 l 8.47,2.824 c 0.236,0 0.471,0.235 0.471,0.706 v 2.823 a 0.507,0.507 0 0 1 -0.471,0.471 L 17.294,18 h -0.47 C 13.765,17.059 17.059,18 2.471,13.294 2.235,13.294 2,13.059 2,12.588 V 9.529 a 0.506,0.506 0 0 1 0.471,-0.47 l 4.47,-1.647 h 0.471 l 4.47,1.412 V 6.235 c 0,0 0,-0.235 0.471,-0.235 M 7.176,8.588 v 0 L 4.353,9.529 c 0,0 -0.235,0.236 0,0.236 v 0 L 16.824,14 h 0.47 l 2.353,-0.941 c 0,0 0.235,-0.235 0,-0.235 v 0 l -6.588,-2.118 v 0.706 c 0,0 0,0.235 -0.471,0.235 -0.706,0 -0.706,-0.235 -0.706,-0.235 V 10.235 L 7.176,8.588 v 0"/>

</svg>