<svg xmlns="http://www.w3.org/2000/svg" viewBox="0 0 24 24"><path fill="#44739e" d="M21.887 15.395c-.2-.372-.379-.401-1.066-.17a3.2 3.2 0 0 1-1.469.13A10.2 10.2 0 0 1 12.32 12.4a12.5 12.5 0 0 1-2.822-4.612 4.1 4.1 0 0 0-1.142-1.801 2.5 2.5 0 0 0-1.211-.534c-.121 0-.1.065.129.401a3.26 3.26 0 0 1 .533 2.422 95 95 0 0 0-.041 2.825 7.7 7.7 0 0 0 .211 2.43 14 14 0 0 0 .46 1.372 1.82 1.82 0 0 0 .861 1.042 9.4 9.4 0 0 0 4.327 1.743 14.2 14.2 0 0 0 7.548-1.267c.827-.395.956-.581.714-1.026m-8.146 5.362a2.45 2.45 0 0 1-1.025-.339 10.43 10.43 0 0 1-5.772-8.752 17 17 0 0 1 .052-2.139 7.8 7.8 0 0 0 0-2.539 2.63 2.63 0 0 0-.985-1.34c-.436-.283-.436-.235.032-1.494a5.5 5.5 0 0 0 .331-1.201.52.52 0 0 0-.262-.569 1.67 1.67 0 0 0-1.701-.258c-.17.137-.194.242-.251 1.275a42 42 0 0 0-.067 1.532c-.008.387-.024.428-.25.516a2.9 2.9 0 0 0-1.074 1.187c-.847 1.68-1.016 4.981-.379 7.517a11 11 0 0 0 1.372 3.084 11.6 11.6 0 0 0 6.92 4.363 18 18 0 0 0 3.059.4c.453 0 .549-.032.719-.2a.524.524 0 0 0 .016-.801 1.08 1.08 0 0 0-.735-.242m-2.567-.291a7 7 0 0 1-.718-.242 8.95 8.95 0 0 1-5.605-6.411 12.4 12.4 0 0 1-.379-3.403 6.3 6.3 0 0 1 .8-3.673c.186-.226.332-.331.235-.177-.016.032-.1.401-.171.815a14.9 14.9 0 0 0 .453 7.089 10.27 10.27 0 0 0 4.804 5.634 4 4 0 0 1 .581.368"/></svg>