<?xml version="1.0" encoding="UTF-8"?>
<svg width="24px" fill="#44739e" height="24px" viewBox="0 0 24 24" version="1.1" xmlns="http://www.w3.org/2000/svg" xmlns:xlink="http://www.w3.org/1999/xlink">
            <path d="M22.29,1.92h-4.35L1.71,5.25v2.99h4.13l2.48-0.5c-1.76,1.56-2.67,3.69-1.95,4.61l6.03,8.63 c0.92,1.29,3.56,0.95,5.89-0.78c2.33-1.73,3.46-4.18,2.54-5.47l-7.08-8.09l8.53-1.73V1.92z M15.04,15.7 c1.59-1.16,3.38-1.4,4.02-0.53c0.63,0.86-0.16,2.49-1.75,3.66c-1.59,1.16-3.4,1.4-4.02,0.53C12.67,18.5,13.45,16.86,15.04,15.7z"/>

</svg>