<?xml version="1.0" encoding="UTF-8"?>
<svg width="24px" fill="#44739e" height="24px" viewBox="0 0 24 24" version="1.1" xmlns="http://www.w3.org/2000/svg" xmlns:xlink="http://www.w3.org/1999/xlink">
            <path d="m 20.023,20.135 1.512,-0.447 0.29,-0.641 -1.693,0.532 z m -9.559,0.265 -0.016,0.081 a 0.529,0.529 0 0 0 0.5,0.635 l 3.513,0.084 c 0.632,0.024 -0.147,-0.227 0.287,-0.687 z M 2.2,19.271 a 2.2,2.2 0 0 0 1.505,1.009 l 2.094,0.346 A 0.528,0.528 0 0 0 6.414,20.105 V 20.022 Z M 2.1,8.176 A 45.321,45.321 0 0 0 10.942,8.992 28.29,28.29 0 0 0 15.148,8.72 17.241,17.241 0 0 0 21.3,6.713 l 0.183,-0.1 c 0.161,-0.084 0.3,-0.156 0.423,-0.217 L 21.937,6.381 22,3.641 C 21.977,3.578 21.89,3.421 20.474,3.21 19.601,3.081 18.406,2.969 17.109,2.895 A 42.62,42.62 0 0 0 9.329,3.051 25.148,25.148 0 0 0 2,5.431 L 2.06,8.166 Z M 21.83,6.314 21.815,6.322 c -0.114,0.056 -0.238,0.121 -0.381,0.2 A 18.038,18.038 0 0 1 15.09,8.551 34.938,34.938 0 0 1 10.439,8.825 40.94,40.94 0 0 1 2.19,8.087 L 2.17,8.078 2.119,5.738 2.16,5.758 c 0.894,0.434 4.6,0.6 8.616,0.382 2.445,-0.132 8.418,-0.612 11.063,-2.217 L 21.883,3.897 Z M 2.088,5.533 A 25.8,25.8 0 0 1 9.345,3.161 42.554,42.554 0 0 1 17.07,3.005 c 3.146,0.177 4.711,0.53 4.818,0.725 L 21.9,3.753 21.878,3.767 C 19.313,5.405 13.256,5.894 10.77,6.028 9.57,6.092 8.44,6.121 7.412,6.121 4.484,6.121 2.401,5.889 2.1,5.587 L 2.065,5.552 Z m 8.679,0.439 c 2.116,-0.114 6.826,-0.485 9.751,-1.605 -0.9,-0.1 -2.162,-0.146 -3.579,-0.178 L 16.79,3.759 16.741,3.615 V 3.606 a 0.8,0.8 0 0 0 -0.936,-0.47 0.744,0.744 0 0 0 -0.484,0.47 v 0 l -0.048,0.369 -0.024,0.18 C 14.178,4.134 13.073,4.11 12.013,4.065 A 11.574,11.574 0 0 0 7.436,4.746 L 3.775,5.817 C 3.74,5.83 3.667,5.857 3.575,5.895 a 47.334,47.334 0 0 0 7.192,0.077 z m 6.306,-2.366 h -0.001 l 0.004,0.009 z m 0.044,0.117 A 0.827,0.827 0 0 0 17.076,3.615 l 0.05,0.144 C 17.123,3.747 17.121,3.735 17.117,3.723 Z M 5.074,6.93 c 0.987,0.083 3.239,0.337 4.4,0.357 5.481,0.1 6.806,-0.366 9.713,-1.47 1.538,-0.583 2.714,-1.146 2.174,-1.306 a 3.489,3.489 0 0 0 -0.4,-0.083 C 18.032,5.676 12.98,6.077 10.779,6.2 A 44.268,44.268 0 0 1 3.205,6.07 C 2.758,6.313 2.419,6.652 3.705,6.758 Z M 14.11,6.08 c 0.451,0 0.817,0.121 0.817,0.27 0,0.149 -0.366,0.269 -0.817,0.269 -0.451,0 -0.817,-0.121 -0.817,-0.269 0,-0.148 0.366,-0.27 0.817,-0.27 z M 2.405,6.58 2.437,7.909 2.763,8.04 2.725,6.789 Z m 0.439,0.228 0.024,1.25 a 53.316,53.316 0 0 0 9.859,0.574 L 12.809,7.438 A 44.025,44.025 0 0 1 2.844,6.808 Z m 2.723,2.04 C 5.272,8.815 2.487,8.448 2.038,8.316 l 0.07,10.4 a 0.476,0.476 0 0 0 0.381,0.469 c 8.2,1.649 14.959,1.5 19.2,-0.234 a 0.421,0.421 0 0 0 0.26,-0.389 L 21.971,6.58 C 18.958,8.394 14.11,9.792 5.567,8.848 Z m 1.248,1.681 a 0.454,0.454 0 0 1 0.5,-0.452 v 0 a 0.454,0.454 0 0 1 0.408,0.452 v 4.562 A 0.453,0.453 0 0 1 7.18,15.535 v 0 A 0.452,0.452 0 0 1 6.816,15.091 Z m 0.453,8.518 a 0.7,0.7 0 0 1 0,-1.371 0.7,0.7 0 0 1 0,1.371 z M 12.93,8.615 A 20.927,20.927 0 0 0 21.659,6.289 L 21.7,4.883 a 21.28,21.28 0 0 1 -8.683,2.5 z"/>

</svg>