<?xml version="1.0" encoding="UTF-8"?>
<svg width="24px" fill="#44739e" height="24px" viewBox="0 0 24 24" version="1.1" xmlns="http://www.w3.org/2000/svg" xmlns:xlink="http://www.w3.org/1999/xlink">
            <path d="m 8.977,18.7 5.194,-0.2 a 2.57,2.57 0 0 0 2.47,-2.572 V 5.913 L 6.312,5.562 v 10.57 c 0,0.032 0,0.065 0,0.1 A 2.569,2.569 0 0 0 8.977,18.7 Z M 3.958,20.247 3.939,3.656 a 0.69,0.69 0 0 1 0.2,-0.48 0.038,0.038 0 0 1 0.015,-0.009 L 4.331,3.1 H 3.793 A 0.318,0.318 0 0 0 3.476,3.418 v 16.874 a 0.471,0.471 0 0 0 0.28,0.431 l 0.4,0.178 A 0.036,0.036 0 0 0 4.196,20.842 0.852,0.852 0 0 1 3.958,20.247 Z M 18.024,3.633 4.985,3.113 A 0.72,0.72 0 0 0 4.239,3.804 v 16.462 a 0.718,0.718 0 0 0 0.718,0.72 H 4.99 l 13.039,-0.618 a 0.719,0.719 0 0 0 0.684,-0.719 V 4.352 A 0.719,0.719 0 0 0 18.024,3.633 Z m -0.847,12.492 a 2.717,2.717 0 0 1 -2.605,2.723 L 8.665,19.1 H 8.548 A 2.723,2.723 0 0 1 5.833,16.389 L 5.775,5.007 l 11.4,0.388 z"/>

</svg>