<?xml version="1.0" encoding="UTF-8"?>
<svg width="24px" fill="#44739e" height="24px" viewBox="0 0 24 24" version="1.1" xmlns="http://www.w3.org/2000/svg" xmlns:xlink="http://www.w3.org/1999/xlink">
            <path d="M 5.27,5.235 V 4.81 C 5.431,4.789 5.586,4.768 5.741,4.75 Q 6.005,4.719 6.269,4.693 c 0.114,-0.012 0.143,0.016 0.147,0.135 0,0.047 0,0.095 0,0.143 0,0.106 -0.027,0.136 -0.133,0.149 C 6.041,5.15 5.799,5.175 5.557,5.203 Z M 16.78,5 c 0,0.087 0,0.173 0,0.259 0,0.086 -0.038,0.131 -0.134,0.124 C 16.327,5.362 16.007,5.338 15.688,5.313 15.602,5.306 15.56,5.27 15.557,5.189 c -0.006,-0.187 -0.006,-0.374 0,-0.56 0,-0.086 0.044,-0.12 0.132,-0.113 0.32,0.023 0.639,0.048 0.959,0.076 0.1,0.009 0.129,0.046 0.133,0.15 0.002,0.089 0,0.175 -10e-4,0.258 z m 3.366,-1.366 c 0.011,0.446 0.029,0.873 0.032,1.3 0,0.682 0.014,1.364 0,2.045 a 21.38,21.38 0 0 1 -0.713,5.235 13.491,13.491 0 0 1 -3.51,6.042 14,14 0 0 1 -3.825,2.707 0.256,0.256 0 0 1 -0.253,0 A 13.719,13.719 0 0 1 5.525,14.776 14.252,14.252 0 0 1 4.342,11.434 20.838,20.838 0 0 1 3.93,8.791 33.194,33.194 0 0 1 3.82,5.209 C 3.826,4.734 3.841,4.259 3.852,3.784 3.852,3.737 3.858,3.69 3.861,3.632 A 49.01,49.01 0 0 1 20.146,3.634 Z M 12.892,18.4 c 0.1,-0.184 0.2,-0.341 0.281,-0.5 a 1.294,1.294 0 0 1 0.325,-0.4 c 0.774,-0.638 1.546,-1.279 2.322,-1.913 a 0.581,0.581 0 0 0 0.216,-0.326 10.009,10.009 0 0 0 0.268,-1.747 8.635,8.635 0 0 0 -0.031,-1.438 0.605,0.605 0 0 0 -0.11,-0.291 13.928,13.928 0 0 0 -1.363,-1.66 0.362,0.362 0 0 0 -0.22,-0.115 c 0.006,0.045 0.008,0.082 0.016,0.118 0.09,0.423 0.183,0.844 0.27,1.267 a 0.478,0.478 0 0 0 0.143,0.258 5.518,5.518 0 0 1 0.665,0.775 0.815,0.815 0 0 1 0.151,0.429 13.7,13.7 0 0 1 -0.046,2.228 0.5,0.5 0 0 1 -0.194,0.35 c -0.7,0.6 -1.4,1.2 -2.092,1.807 a 1.671,1.671 0 0 0 -0.449,0.536 c 0,0.007 -0.016,0.01 -0.026,0.015 a 1.529,1.529 0 0 1 -0.09,-1.011 c 0.119,-0.395 0.221,-0.794 0.33,-1.192 0.015,-0.054 0.027,-0.109 0.04,-0.163 l -0.029,-0.012 c -0.021,0.04 -0.043,0.08 -0.061,0.122 -0.138,0.316 -0.278,0.632 -0.41,0.951 -0.095,0.231 -0.178,0.466 -0.268,0.7 a 0.456,0.456 0 0 0 0.006,0.362 c 0.1,0.233 0.192,0.47 0.288,0.706 0.017,0.037 0.037,0.074 0.068,0.144 z m -2.147,-7.964 h -0.05 c 0.006,0.112 0.009,0.226 0.02,0.338 0.014,0.153 0.034,0.3 0.051,0.457 a 0.464,0.464 0 0 1 -0.071,0.316 c -0.072,0.114 -0.136,0.232 -0.21,0.344 a 24.68,24.68 0 0 1 -1.768,2.342 0.686,0.686 0 0 0 -0.179,0.383 c -0.027,0.267 -0.057,0.534 -0.088,0.8 a 0.491,0.491 0 0 0 0.078,0.33 c 0.092,0.14 0.18,0.283 0.28,0.418 a 21.981,21.981 0 0 0 1.719,2.049 1.971,1.971 0 0 0 0.662,0.5 c 0.084,0.035 0.163,0.082 0.245,0.121 a 0.821,0.821 0 0 0 0.084,0.027 l 0.018,-0.027 A 1.065,1.065 0 0 0 11.382,18.694 2.26,2.26 0 0 1 10.85,18.237 23.284,23.284 0 0 1 9.207,16.161 C 9.1,16.008 9.007,15.846 8.907,15.688 a 0.466,0.466 0 0 1 -0.073,-0.3 c 0.021,-0.191 0.04,-0.382 0.064,-0.572 a 0.426,0.426 0 0 1 0.146,-0.257 c 0.172,-0.16 0.343,-0.322 0.508,-0.489 a 2.006,2.006 0 0 0 0.679,-0.966 c 0.238,-0.508 0.455,-1.025 0.682,-1.538 a 0.41,0.41 0 0 0 0.046,-0.265 c -0.07,-0.294 -0.143,-0.582 -0.214,-0.87 z m 0.971,-3.173 v 0.041 c 0.075,0 0.15,0.009 0.225,0.006 0.436,-0.015 0.872,-0.031 1.308,-0.051 a 0.931,0.931 0 0 1 0.448,0.08 c 0.217,0.1 0.435,0.2 0.656,0.294 a 0.966,0.966 0 0 0 0.274,0.073 c 0.181,0.021 0.365,0.019 0.545,0.042 a 0.867,0.867 0 0 1 0.314,0.089 c 0.385,0.216 0.763,0.442 1.142,0.669 a 0.453,0.453 0 0 0 0.294,0.076 C 16.643,8.315 16.384,8.067 16.122,7.82 A 0.306,0.306 0 0 0 16.063,7.78 C 15.457,7.438 14.85,7.1 14.217,6.81 A 1.149,1.149 0 0 0 13.786,6.71 C 13.494,6.699 13.202,6.682 12.909,6.672 A 21.919,21.919 0 0 0 10.451,6.727 0.325,0.325 0 0 0 10.151,6.915 1.333,1.333 0 0 1 9.796,7.326 7.456,7.456 0 0 1 8.947,7.966 0.293,0.293 0 0 0 8.793,8.143 C 8.932,8.066 9.052,7.997 9.174,7.932 9.684,7.656 10.195,7.382 10.706,7.106 A 0.923,0.923 0 0 1 11.13,6.989 c 0.24,0 0.479,-0.029 0.719,-0.033 0.6,-0.008 1.209,-0.01 1.813,-0.013 a 0.478,0.478 0 0 1 0.286,0.09 C 13.207,7.09 12.459,7.152 11.716,7.258 Z m -5.108,3.129 a 0.6,0.6 0 0 1 -0.156,0.413 c -0.1,0.1 -0.194,0.213 -0.287,0.323 -0.066,0.078 -0.071,0.113 -0.011,0.191 0.117,0.152 0.24,0.3 0.366,0.445 a 0.6,0.6 0 0 0 0.136,0.084 C 6.695,11.672 6.732,11.519 6.764,11.364 A 0.2,0.2 0 0 1 6.942,11.188 C 7.221,11.137 7.497,11.077 7.775,11.023 7.942,10.99 8.11,10.961 8.296,10.928 8.252,10.874 8.224,10.837 8.196,10.803 c -0.1,-0.1 -0.206,-0.2 -0.3,-0.311 A 0.513,0.513 0 0 0 7.469,10.298 2.7,2.7 0 0 1 7.159,10.272 L 7.149,10.244 A 1.145,1.145 0 0 1 7.257,10.165 0.586,0.586 0 0 1 7.351,10.13 L 8.8,9.58 A 0.623,0.623 0 0 0 9.133,9.274 0.073,0.073 0 0 0 9.081,9.291 1.155,1.155 0 0 1 8.481,9.554 C 8.41,9.568 8.341,9.588 8.271,9.605 A 0.377,0.377 0 0 1 8.019,9.592 0.27,0.27 0 0 0 7.867,9.581 C 7.767,9.598 7.662,9.628 7.559,9.651 7.531,9.657 7.501,9.658 7.448,9.664 a 0.635,0.635 0 0 1 0.25,-0.183 c 0.1,-0.034 0.2,-0.078 0.3,-0.111 A 0.153,0.153 0 0 0 8.122,9.218 C 8.127,9.127 8.152,9.038 8.162,8.947 A 0.205,0.205 0 0 1 8.253,8.793 C 8.373,8.704 8.49,8.613 8.607,8.521 A 0.158,0.158 0 0 0 8.691,8.4 C 8.513,8.506 8.356,8.608 8.191,8.7 a 1.9,1.9 0 0 0 -0.71,0.636 0.892,0.892 0 0 1 -0.2,0.2 c -0.346,0.267 -0.7,0.527 -1.041,0.8 a 2.2,2.2 0 0 0 -0.27,0.259 c -0.1,0.11 -0.074,0.236 0.062,0.328 0.067,-0.048 0.137,-0.1 0.206,-0.149 A 0.691,0.691 0 0 0 6.503,10.498 C 6.518,10.45 6.571,10.424 6.608,10.392 Z m 7.448,-1.685 a 1.133,1.133 0 0 0 0.52,-0.01 c 0.126,-0.045 0.262,-0.059 0.391,-0.1 a 0.405,0.405 0 0 1 0.4,0.084 c 0.287,0.234 0.575,0.466 0.867,0.692 a 1.585,1.585 0 0 0 0.294,0.175 c 0.191,0.09 0.387,0.169 0.582,0.251 a 0.3,0.3 0 0 1 0.191,0.234 c 0.007,0.038 0.02,0.074 0.026,0.112 0.057,0.4 0.111,0.8 0.171,1.2 a 1.115,1.115 0 0 1 -0.119,0.7 c -0.146,0.281 -0.289,0.563 -0.439,0.842 a 0.429,0.429 0 0 1 -0.134,0.165 0.468,0.468 0 0 0 -0.245,0.475 1.66,1.66 0 0 1 -0.011,0.233 0.364,0.364 0 0 0 0.113,-0.106 10.742,10.742 0 0 0 1.017,-1.72 A 0.5,0.5 0 0 0 17.728,11.77 7.848,7.848 0 0 0 17.647,9.633 0.339,0.339 0 0 0 17.5,9.398 13.121,13.121 0 0 0 15.54,8.246 0.467,0.467 0 0 0 15.126,8.232 c -0.321,0.14 -0.644,0.275 -0.965,0.414 a 1.057,1.057 0 0 0 -0.105,0.061 z m -1.8,10.268 a 0.825,0.825 0 0 0 -0.075,-0.423 c -0.065,-0.133 -0.12,-0.272 -0.174,-0.411 -0.168,-0.433 -0.337,-0.867 -0.5,-1.3 a 0.743,0.743 0 0 1 -0.045,-0.309 c 0.027,-0.292 0.058,-0.584 0.113,-0.871 0.146,-0.768 0.306,-1.533 0.459,-2.3 a 1.19,1.19 0 0 0 -0.071,-0.5 0.437,0.437 0 0 0 -0.064,0.117 c -0.089,0.233 -0.181,0.465 -0.266,0.7 -0.263,0.726 -0.511,1.457 -0.707,2.205 a 0.85,0.85 0 0 0 0.046,0.585 26.637,26.637 0 0 0 1.228,2.426 c 0.02,0.028 0.041,0.054 0.059,0.081 z M 8.355,8.936 8.366,8.97 c 0.1,0 0.207,0.007 0.31,0 a 3.152,3.152 0 0 0 0.7,-0.069 C 9.669,8.811 9.962,8.723 10.253,8.626 A 0.3,0.3 0 0 0 10.409,8.512 C 10.567,8.255 10.715,7.992 10.865,7.73 A 0.222,0.222 0 0 0 10.876,7.673 1.447,1.447 0 0 0 10.267,7.715 C 9.938,7.846 9.613,7.988 9.291,8.135 A 0.7,0.7 0 0 0 9.083,8.304 3.4,3.4 0 0 0 8.82,8.627 0.622,0.622 0 0 1 8.494,8.872 1.081,1.081 0 0 0 8.355,8.936 Z m 0.026,2.229 -0.006,0.03 c 0.042,0.017 0.084,0.036 0.127,0.051 0.23,0.084 0.461,0.165 0.69,0.25 a 0.247,0.247 0 0 1 0.146,0.378 5.033,5.033 0 0 1 -0.557,0.837 0.39,0.39 0 0 1 -0.158,0.118 C 8.417,12.905 8.205,12.968 7.996,13.04 A 0.166,0.166 0 0 1 7.813,13 C 7.745,12.938 7.676,12.88 7.606,12.821 7.582,12.801 7.555,12.786 7.517,12.759 a 0.99,0.99 0 0 0 0.038,0.509 3.376,3.376 0 0 1 0.151,0.479 c 0.037,0.134 0.063,0.271 0.1,0.406 0.025,0.094 0.052,0.117 0.144,0.1 A 2.792,2.792 0 0 0 8.363,14.133 0.768,0.768 0 0 0 8.549,13.988 0.165,0.165 0 0 0 8.443,13.976 C 8.33,14.001 8.219,14.03 8.106,14.051 7.993,14.072 7.988,14.051 7.968,13.957 7.94,13.815 7.916,13.674 7.892,13.532 7.868,13.39 7.877,13.394 8.009,13.349 c 0.29,-0.1 0.58,-0.2 0.871,-0.3 a 0.3,0.3 0 0 0 0.182,-0.13 c 0.213,-0.376 0.427,-0.751 0.637,-1.128 a 0.169,0.169 0 0 0 0.02,-0.122 0.372,0.372 0 0 0 -0.253,-0.271 c -0.3,-0.072 -0.6,-0.151 -0.908,-0.223 a 1,1 0 0 0 -0.177,-0.01 z m 4.774,-0.589 C 13.147,10.528 13.144,10.5 13.138,10.476 Q 13.05,10.055 12.96,9.633 a 0.307,0.307 0 0 1 0.052,-0.3 1.4,1.4 0 0 0 0.128,-0.19 c 0.234,-0.38 0.231,-0.269 0.126,-0.761 A 0.194,0.194 0 0 0 13.251,8.327 0.13,0.13 0 0 0 13.208,8.271 0.528,0.528 0 0 0 12.83,8.171 c -0.393,0.084 -0.789,0.157 -1.183,0.237 a 0.342,0.342 0 0 0 -0.284,0.329 c 0.084,0.016 0.169,0.026 0.252,0.048 a 0.524,0.524 0 0 0 0.348,-0.036 c 0.243,-0.1 0.492,-0.188 0.735,-0.289 a 0.321,0.321 0 0 1 0.263,0.007 0.278,0.278 0 0 1 0.116,0.394 C 12.97,9.009 12.861,9.154 12.748,9.297 a 0.193,0.193 0 0 0 -0.038,0.2 c 0.092,0.287 0.18,0.576 0.267,0.865 a 0.345,0.345 0 0 0 0.178,0.214 z M 8.593,5.3 7.306,5.39 V 5.08 L 8.447,4.991 V 4.8 L 7.308,4.882 V 4.6 L 8.59,4.5 C 8.59,4.461 8.598,4.433 8.598,4.405 A 0.957,0.957 0 0 0 8.589,4.305 L 7.1,4.415 V 5.6 L 8.6,5.486 Z M 12.6,5.2 c -0.354,0 -0.69,0 -1.025,0 -0.106,0 -0.145,-0.043 -0.147,-0.151 0,-0.149 0,-0.3 0,-0.446 0,-0.176 0.023,-0.2 0.2,-0.2 0.317,0 0.633,0 0.95,0 0.051,0 0.1,0 0.157,0 V 4.21 c -0.031,0 -0.054,-0.008 -0.078,-0.008 -0.345,0 -0.69,0 -1.036,0 A 0.84,0.84 0 0 0 11.464,4.22 0.251,0.251 0 0 0 11.23,4.471 c -0.011,0.225 -0.01,0.451 0,0.676 a 0.229,0.229 0 0 0 0.218,0.23 1.285,1.285 0 0 0 0.186,0.016 c 0.35,0 0.7,0 1.05,0 0.042,0 0.083,-0.006 0.135,-0.01 0.006,-0.237 0.01,-0.463 0,-0.692 H 12 v 0.191 h 0.6 z m 0.938,-0.78 1.3,0.047 v -0.19 c -0.5,-0.024 -1,-0.053 -1.508,-0.054 0,0.405 0,0.79 0,1.181 L 14.846,5.462 14.838,5.268 13.543,5.215 V 4.918 c 0.2,0 0.39,0 0.581,0 0.191,0 0.378,0.034 0.566,0.017 V 4.747 L 13.54,4.7 Z m 3.445,0.6 v 0 -0.3 A 0.291,0.291 0 0 0 16.756,4.425 0.61,0.61 0 0 0 16.616,4.397 C 16.325,4.373 16.033,4.352 15.742,4.331 a 0.927,0.927 0 0 0 -0.158,0 c -0.152,0.015 -0.231,0.084 -0.237,0.237 -0.008,0.22 -0.008,0.441 0,0.66 a 0.253,0.253 0 0 0 0.227,0.259 1.477,1.477 0 0 0 0.2,0.029 c 0.21,0.017 0.42,0.034 0.631,0.048 a 3.04,3.04 0 0 0 0.344,0.009 0.222,0.222 0 0 0 0.233,-0.239 C 16.989,5.232 16.985,5.127 16.985,5.021 Z M 5.26,5.435 C 5.533,5.403 5.785,5.376 6.037,5.345 A 3.557,3.557 0 0 0 6.391,5.292 0.259,0.259 0 0 0 6.61,5.072 1.7,1.7 0 0 0 6.61,4.701 0.213,0.213 0 0 0 6.41,4.507 0.636,0.636 0 0 0 6.255,4.5 C 6.022,4.523 5.789,4.547 5.555,4.574 5.39,4.593 5.225,4.616 5.055,4.638 V 5.824 L 5.255,5.8 Z M 9.316,4.27 9.1,4.281 v 0.167 c 0,0.221 0,0.442 0,0.662 0,0.244 0.085,0.325 0.331,0.334 H 9.46 c 0.307,-0.012 0.614,-0.019 0.921,-0.037 0.248,-0.015 0.326,-0.105 0.328,-0.357 0,-0.235 0,-0.47 0,-0.706 0,-0.037 -0.005,-0.074 -0.008,-0.116 h -0.2 c 0,0.053 -0.007,0.1 -0.008,0.147 0,0.23 0,0.461 0,0.691 0,0.118 -0.024,0.145 -0.142,0.151 Q 9.898,5.241 9.445,5.254 c -0.107,0 -0.133,-0.028 -0.135,-0.139 -0.002,-0.111 0,-0.24 0,-0.36 z m 9.625,0.363 -1.573,-0.175 v 0.2 l 0.684,0.077 V 5.721 L 18.268,5.75 V 4.757 l 0.673,0.071 z m -9.9,7.456 -0.031,-0.032 -0.95,0.784 0.013,0.027 c 0.17,-0.06 0.34,-0.118 0.51,-0.18 a 0.16,0.16 0 0 0 0.066,-0.053 c 0.134,-0.181 0.264,-0.364 0.394,-0.546 z m -1.856,-0.4 a 0.509,0.509 0 0 0 -0.377,0.254 l 0.282,0.326 a 1.008,1.008 0 0 0 0.027,-0.1 c 0.024,-0.152 0.045,-0.303 0.07,-0.481 z M 8.443,9.13 8.43,9.4 C 8.717,9.37 8.762,9.319 8.686,9.119 Z M 3.166,2.986 a 52.107,52.107 0 0 1 7.889,-0.76 51.553,51.553 0 0 1 9.773,0.759 c 0,0.036 0.012,0.064 0.013,0.092 0.039,1.123 0.072,2.245 0.054,3.369 a 27.6,27.6 0 0 1 -0.256,3.454 17.131,17.131 0 0 1 -1.164,4.322 14.428,14.428 0 0 1 -5.509,6.505 14.565,14.565 0 0 1 -1.866,1.03 0.216,0.216 0 0 1 -0.2,0 A 14.478,14.478 0 0 1 3.968,12.686 17.74,17.74 0 0 1 3.354,9.848 28.908,28.908 0 0 1 3.1,5.5 C 3.108,4.708 3.135,3.917 3.154,3.125 3.157,3.081 3.162,3.038 3.166,2.986 Z m 0.362,0.367 c 0,0.073 0,0.125 0,0.178 -0.01,0.389 -0.02,0.777 -0.032,1.166 a 35.292,35.292 0 0 0 0.086,3.943 21.248,21.248 0 0 0 0.382,2.633 14.587,14.587 0 0 0 1.366,3.854 14.109,14.109 0 0 0 6.553,6.208 0.258,0.258 0 0 0 0.243,-0.006 13.963,13.963 0 0 0 2.01,-1.148 13.9,13.9 0 0 0 4.825,-5.645 16.2,16.2 0 0 0 1.306,-4.578 24.2,24.2 0 0 0 0.244,-3.315 c 0,-0.9 -0.015,-1.8 -0.026,-2.707 0,-0.191 -0.015,-0.382 -0.023,-0.584 a 49.209,49.209 0 0 0 -16.934,0 z"/>

</svg>