<?xml version="1.0" encoding="UTF-8"?>
<svg width="24px" fill="#44739e" height="24px" viewBox="0 0 24 24" version="1.1" xmlns="http://www.w3.org/2000/svg" xmlns:xlink="http://www.w3.org/1999/xlink">
            <path d="m 8.2298924,9.0462619 -0.02,0.239 a 0.044,0.044 0 0 0 0.016,0.037 0.046,0.046 0 0 0 0.027,0.009 h 0.01 l 0.2,-0.045 a 0.125,0.125 0 0 0 0.081,-0.064 0.257,0.257 0 0 0 0.006,-0.2 0.068,0.068 0 0 0 -0.071,-0.042 l -0.2,0.017 a 0.057,0.057 0 0 0 -0.049,0.049 z m 7.7659996,-3.827 c 0.26,0.018 0.531,0.038 0.826,0.062 h 0.119 a 0.385,0.385 0 0 0 0.273,-0.077 c 0.019,-0.017 0.016,-0.06 0.029,-0.084 a 0.09,0.09 0 0 1 0.008,-0.025 0.316,0.316 0 0 0 0.051,-0.151 v -0.56 c 0,-0.326 -0.229,-0.39 -0.476,-0.41 -0.247,-0.02 -0.53,-0.042 -0.826,-0.063 -0.209,-0.011 -0.32,0.009 -0.392,0.076 a 0.342,0.342 0 0 0 -0.087,0.267 v 0.559 c 0,0.317 0.16,0.385 0.475,0.406 z m -0.184,-1.039 a 0.081,0.081 0 0 1 0.055,-0.02 h 0.007 c 0.341,0.022 0.692,0.049 1.071,0.081 a 0.1,0.1 0 0 1 0.091,0.1 v 0.62 a 0.075,0.075 0 0 1 -0.03,0.056 0.083,0.083 0 0 1 -0.055,0.023 c -0.348,-0.03 -0.71,-0.057 -1.071,-0.081 a 0.1,0.1 0 0 1 -0.091,-0.1 v -0.617 a 0.089,0.089 0 0 1 0.023,-0.062 z m -9.4589996,0.411 v -0.138 c 0,-0.057 -0.031,-0.083 -0.045,-0.127 a 0.275,0.275 0 0 0 -0.02,-0.057 c -0.015,-0.028 -0.012,-0.075 -0.034,-0.1 a 0.4,0.4 0 0 0 -0.324,-0.073 c -0.421,0.044 -0.847,0.093 -1.269,0.146 h -0.021 v 1.3 l 0.266,-0.028 v -0.387 c 0.329,-0.04 0.674,-0.074 1.024,-0.116 0.291,-0.03 0.423,-0.163 0.423,-0.42 z m -1.447,-0.127 c 0.342,-0.042 0.7,-0.082 1.09,-0.123 h 0.014 a 0.082,0.082 0 0 1 0.052,0.022 0.063,0.063 0 0 1 0.023,0.048 v 0.254 a 0.106,0.106 0 0 1 -0.092,0.088 c -0.354,0.036 -0.72,0.077 -1.087,0.122 z m 4.368,4.321 0.9319996,-0.291 a 0.24,0.24 0 0 0 0.142,-0.115 l 0.5,-0.853 a 0.05,0.05 0 0 0 0,-0.055 0.053,0.053 0 0 0 -0.048,-0.028 l -0.424,0.006 a 0.413,0.413 0 0 0 -0.125,0.02 9.434,9.434 0 0 0 -1.1919996,0.514 0.34,0.34 0 0 0 -0.1,0.081 l -0.453,0.551 a 0.1,0.1 0 0 1 -0.045,0.034 l -0.29,0.123 a 0.086,0.086 0 0 0 -0.043,0.043 l -0.032,0.066 h 0.041 c 0.006,0 0.615,-0.02 0.819,-0.035 a 1.43,1.43 0 0 0 0.318,-0.061 z m 5.7319996,-3.626 h 0.024 v -0.251 h -0.026 c -0.475,-0.025 -0.917,-0.042 -1.353,-0.054 v -0.288 q 0.6,0.015 1.2,0.046 h 0.026 v -0.251 h -0.024 q -0.6,-0.03 -1.2,-0.047 v -0.261 q 0.673,0.019 1.351,0.054 h 0.026 v -0.254 h -0.026 c -0.527,-0.027 -1.063,-0.047 -1.593,-0.06 h -0.026 v 1.3 h 0.024 c 0.532,0.019 1.068,0.039 1.597,0.066 z m -5.9999996,2.618 0.234,-0.13 c 0.8299996,-0.462 1.3439996,-0.734 1.5679996,-0.833 a 0.524,0.524 0 0 1 0.159,-0.04 c 0.546,-0.04 1.2,-0.062 1.932,-0.064 h 0.131 c 0.262,0 0.524,0 0.777,0.009 a 0.447,0.447 0 0 1 0.136,0.024 l 0.115,0.038 c -0.621,0.039 -1.9,0.154 -2.45,0.25 l -0.148,0.023 0.353,0.056 a 0.193,0.193 0 0 0 0.048,0 c 0.434,-0.027 1.261,-0.053 1.618,-0.059 h 0.018 a 0.443,0.443 0 0 1 0.2,0.041 c 0.205,0.078 0.63,0.27 0.811,0.362 a 0.584,0.584 0 0 0 0.261,0.069 c 0.2,0.008 0.493,0.029 0.7,0.051 a 0.457,0.457 0 0 1 0.159,0.047 13.156,13.156 0 0 1 1.332,0.783 0.25,0.25 0 0 0 0.079,0.033 l 0.258,0.051 -0.056,-0.058 c -0.006,-0.006 -0.578,-0.591 -0.8,-0.789 a 0.58,0.58 0 0 0 -0.11,-0.079 22.147,22.147 0 0 0 -2.062,-1.074 0.7,0.7 0 0 0 -0.226,-0.054 24.156,24.156 0 0 0 -3.737,0.014 0.246,0.246 0 0 0 -0.185,0.1 c -0.034,0.049 -0.088,0.134 -0.1659996,0.261 a 0.482,0.482 0 0 1 -0.1,0.121 c -0.2,0.175 -0.5,0.428 -0.69,0.57 l -0.035,0.023 -0.129,0.087 -0.271,0.181 a 0.145,0.145 0 0 0 -0.043,0.039 l -0.178,0.223 0.1,-0.049 z m 4.3999996,0.976 a 0.27,0.27 0 0 0 0.033,-0.182 c -0.021,-0.119 -0.053,-0.276 -0.088,-0.419 a 0.1,0.1 0 0 0 -0.055,-0.07 l -0.212,-0.1 a 0.164,0.164 0 0 0 -0.1,-0.014 c -0.52,0.091 -1.052,0.2 -1.457,0.29 a 0.145,0.145 0 0 0 -0.1,0.069 l -0.126,0.22 a 0.053,0.053 0 0 0 0,0.049 0.051,0.051 0 0 0 0.038,0.03 c 0.1,0.019 0.321,0.059 0.4,0.071 a 0.183,0.183 0 0 0 0.113,-0.012 c 0.26,-0.108 0.686,-0.274 0.992,-0.384 a 0.078,0.078 0 0 1 0.06,0 l 0.144,0.045 a 0.065,0.065 0 0 1 0.036,0.029 1.755,1.755 0 0 1 0.1,0.2 0.11,0.11 0 0 1 -0.02,0.1 c -0.111,0.16 -0.292,0.4 -0.413,0.547 a 0.16,0.16 0 0 0 -0.029,0.143 c 0.072,0.248 0.231,0.7710001 0.319,1.0250001 a 0.192,0.192 0 0 0 0.057,0.088 l 0.178,0.161 -0.017,-0.076 c 0,-0.009 -0.191,-0.8850001 -0.236,-1.1350001 a 0.133,0.133 0 0 1 0.013,-0.094 c 0.094,-0.141 0.279,-0.42 0.37,-0.581 z m -1.765,-3.67 c 0.4,0 0.815,0 1.231,0.006 h 0.026 v -0.792 h -0.025 c -0.319,0 -0.606,-0.007 -0.877,-0.007 h -0.025 v 0.252 h 0.659 v 0.292 h -1.112 a 0.1,0.1 0 0 1 -0.089,-0.089 v -0.629 a 0.093,0.093 0 0 1 0.09,-0.082 h 1.3 v -0.249 h -0.029 c -0.4,0 -0.8,-0.006 -1.189,0 -0.306,0 -0.437,0.118 -0.437,0.389 v 0.546 a 0.364,0.364 0 0 0 0.086,0.27 0.539,0.539 0 0 0 0.391,0.093 z M 6.5998924,11.231262 c 0.469,-0.117 1.491,-0.287 1.5,-0.289 l 0.044,-0.007 -0.029,-0.034 c -0.108,-0.129 -0.472,-0.5 -0.581,-0.6 a 0.213,0.213 0 0 0 -0.12,-0.054 c -0.1,-0.011 -0.4,-0.034 -0.518,-0.043 l 0.034,-0.031 a 0.136,0.136 0 0 1 0.066,-0.043 c 0.518,-0.1770001 1.234,-0.4510001 1.659,-0.6290001 a 0.531,0.531 0 0 0 0.214,-0.148 c 0.033,-0.034 0.1,-0.107 0.132,-0.149 a 0.066,0.066 0 0 0 0.019,-0.037 0.227,0.227 0 0 1 0.01,-0.035 v -0.058 l -0.048,0.035 c 0,0 -0.178,0.134 -0.246,0.182 a 0.469,0.469 0 0 1 -0.175,0.082 c -0.149,0.039 -0.428,0.105 -0.584,0.14 a 0.132,0.132 0 0 1 -0.092,0 c -0.025,-0.009 -0.074,-0.029 -0.105,-0.043 a 0.121,0.121 0 0 0 -0.1,-0.011 c -0.1,0.022 -0.318,0.075 -0.445,0.106 l 0.126,-0.112 a 0.217,0.217 0 0 1 0.05,-0.026 l 0.2,-0.078 c 0.068,-0.027 0.17,-0.065 0.247,-0.1 a 0.085,0.085 0 0 0 0.065,-0.082 c 0.007,-0.114 0.041,-0.314 0.059,-0.414 a 0.068,0.068 0 0 1 0.03,-0.05 c 0.084,-0.067 0.392,-0.3 0.467,-0.358 l 0.016,-0.016 0.169,-0.208 -0.118,0.068 c -0.205,0.12 -0.606,0.357 -0.814,0.489 a 2.023,2.023 0 0 0 -0.217,0.153 0.159,0.159 0 0 0 -0.029,0.029 c -0.052,0.064 -0.269,0.346 -0.347,0.452 a 0.11,0.11 0 0 1 -0.033,0.038 c -0.714,0.51 -1.118,0.8370001 -1.3,0.9870001 -0.065,0.064 -0.128,0.127 -0.186,0.187 -0.058,0.06 -0.069,0.079 -0.073,0.13 a 1.1,1.1 0 0 0 0,0.112 0.11,0.11 0 0 0 0.016,0.055 c 0.012,0.018 0.071,0.084 0.085,0.1 a 0.044,0.044 0 0 0 0.055,0.006 c 0.093,-0.066 0.234,-0.17 0.4,-0.293 a 0.227,0.227 0 0 0 0.044,-0.049 c 0.025,-0.042 0.055,-0.1 0.072,-0.136 0.009,-0.018 0.013,-0.022 0.041,-0.04 l 0.053,-0.034 a 1.819,1.819 0 0 1 -0.088,0.277 0.253,0.253 0 0 1 -0.037,0.057 c -0.108,0.113 -0.3,0.328 -0.4,0.448 -0.017,0.02 0,0.049 0,0.073 v 0.023 c 0,0.025 -0.016,0.046 0,0.071 a 4.738,4.738 0 0 0 0.389,0.482 0.393,0.393 0 0 0 0.088,0.075 0.456,0.456 0 0 0 0.084,0.039 l 0.026,0.009 0.006,-0.028 c 0,0 0.093,-0.445 0.131,-0.582 a 0.107,0.107 0 0 1 0.088,-0.088 z M 17.877892,9.3122619 a 13.116,13.116 0 0 0 -2.22,-1.292 0.357,0.357 0 0 0 -0.265,-0.006 c -0.318,0.116 -0.795,0.32 -1.247,0.533 l -0.083,0.039 0.125,0.011 0.128,0.01 h 0.055 l 0.1,0.01 a 0.28,0.28 0 0 0 0.132,-0.01 c 0.152,-0.041 0.419,-0.107 0.621,-0.153 a 0.337,0.337 0 0 1 0.27,0.058 c 0.288,0.215 0.749,0.587 1.036,0.829 a 0.669,0.669 0 0 0 0.176,0.113 c 0.364,0.146 0.608,0.25 0.742,0.32 a 0.242,0.242 0 0 1 0.128,0.161 11.2,11.2 0 0 1 0.234,1.6310001 0.628,0.628 0 0 1 -0.034,0.261 8.3,8.3 0 0 1 -0.611,1.227 0.269,0.269 0 0 1 -0.057,0.065 c -0.065,0.055 -0.175,0.144 -0.25,0.2 a 0.084,0.084 0 0 0 -0.036,0.069 c 0,0.153 -0.025,0.422 -0.035,0.522 l -0.012,0.125 0.053,-0.067 a 10.86,10.86 0 0 0 1.2,-1.984 0.4,0.4 0 0 0 0.05,-0.162 8.2,8.2 0 0 0 -0.1,-2.3610001 0.217,0.217 0 0 0 -0.1,-0.149 z m -11.3719996,2.6640001 -0.007,0.015 0.35,0.412 0.1,-0.707 h -0.033 a 0.567,0.567 0 0 0 -0.41,0.28 z M 20.973892,2.9062619 v -0.02 h -0.021 a 52.142,52.142 0 0 0 -17.8929996,0 h -0.02 v 0.02 c -0.073,1.958 -0.076,3.5 -0.01,4.714 a 17.654,17.654 0 0 0 2.476,8.7400001 15.072,15.072 0 0 0 6.4889996,5.637 h 0.02 a 15.059,15.059 0 0 0 6.491,-5.637 17.669,17.669 0 0 0 2.48,-8.7400001 c 0.064,-1.219 0.061,-2.767 -0.012,-4.714 z m -0.384,4.693 a 17.228,17.228 0 0 1 -2.419,8.5540001 14.677,14.677 0 0 1 -6.165,5.415 14.685,14.685 0 0 1 -6.1659996,-5.415 17.292,17.292 0 0 1 -2.418,-8.5540001 c -0.063,-1.145 -0.063,-2.577 0,-4.379 a 51.749,51.749 0 0 1 17.1689996,0 c 0.061,1.803 0.061,3.233 -0.001,4.379 z m -2.912,-3.546 h -0.027 v 0.252 h 0.023 c 0.215,0.021 0.446,0.045 0.705,0.073 v 1.053 l 0.271,0.03 v -1.051 c 0.246,0.029 0.473,0.056 0.694,0.084 h 0.028 v -0.249 h -0.022 c -0.557,-0.073 -1.12,-0.136 -1.672,-0.192 z m -1.191,7.8560001 a 13.088,13.088 0 0 0 -1.521,-1.874 0.347,0.347 0 0 0 -0.107,-0.074 l -0.171,-0.075 0.01,0.048 c 0,0.011 0.226,0.993 0.327,1.525 a 0.371,0.371 0 0 0 0.1,0.194 5.832,5.832 0 0 1 0.763,0.89 0.808,0.808 0 0 1 0.136,0.4 14.069,14.069 0 0 1 -0.059,2.454 0.263,0.263 0 0 1 -0.118,0.213 c -0.324,0.263 -0.717,0.592 -1.076,0.9 l -0.178,0.153 c -0.557,0.481 -1.008,0.889 -1.269,1.149 a 0.709,0.709 0 0 0 -0.114,0.141 2.255,2.255 0 0 0 -0.119,0.209 4.27,4.27 0 0 1 -0.134,-0.535 0.576,0.576 0 0 1 0,-0.219 15.556,15.556 0 0 1 0.43,-1.65 0.113,0.113 0 0 0 0.009,-0.051 v -0.208 l -0.048,0.1 q -0.465,0.99 -0.829,2.024 a 0.309,0.309 0 0 0 0,0.22 c 0.078,0.225 0.3,0.773 0.4,0.989 l 0.021,0.046 0.07,-0.131 c 0.1,-0.18 0.243,-0.445 0.336,-0.6 a 0.809,0.809 0 0 1 0.136,-0.166 c 0.213,-0.2 0.726,-0.636 1.277,-1.092 l 0.141,-0.117 c 0.5,-0.412 0.928,-0.754 1.206,-0.964 a 0.36,0.36 0 0 0 0.159,-0.234 9.781,9.781 0 0 0 0.271,-3.52 0.338,0.338 0 0 0 -0.049,-0.145 z m -8.0909996,2.171 c 0,0 -0.4,0.1 -0.554,0.128 -0.048,0.006 -0.063,-0.016 -0.067,-0.039 -0.019,-0.086 -0.061,-0.34 -0.087,-0.492 l -0.014,-0.078 c -0.007,-0.046 0,-0.066 0.043,-0.079 0.255,-0.082 0.681,-0.227 1.037,-0.352 a 0.3,0.3 0 0 0 0.176,-0.158 c 0.072,-0.116 0.2,-0.343 0.346,-0.593 l 0.073,-0.131 c 0.106,-0.19 0.194,-0.353 0.253,-0.468 a 0.172,0.172 0 0 0 -0.006,-0.17 l -0.076,-0.129 a 0.3,0.3 0 0 0 -0.153,-0.114 c -0.358,-0.092 -0.823,-0.205 -1.042,-0.258 a 0.3,0.3 0 0 0 -0.162,0.006 l -0.112,0.036 0.071,0.024 c 0.347,0.118 0.634,0.222 0.991,0.358 a 0.118,0.118 0 0 1 0.061,0.065 l 0.033,0.11 a 0.152,0.152 0 0 1 -0.011,0.116 6.011,6.011 0 0 1 -0.634,0.962 0.276,0.276 0 0 1 -0.111,0.079 c -0.2,0.076 -0.58,0.2 -0.747,0.244 -0.023,0.009 -0.033,0.006 -0.056,-0.011 -0.116,-0.082 -0.361,-0.311 -0.363,-0.313 l -0.038,-0.036 v 0.052 c 0,0.01 -0.021,0.254 -0.022,0.366 a 0.127,0.127 0 0 0 0.009,0.047 c 0.04,0.094 0.115,0.284 0.147,0.382 0.007,0.024 0.014,0.046 0.02,0.07 0.041,0.164 0.155,0.649 0.156,0.654 0.019,0.085 0.069,0.108 0.116,0.108 h 0.037 c 0.085,-0.018 0.353,-0.094 0.465,-0.132 a 0.153,0.153 0 0 0 0.055,-0.031 l 0.26,-0.25 z m 3.8799996,5.02 c -0.084,-0.189 -0.622,-1.455 -0.769,-1.946 a 0.768,0.768 0 0 1 -0.036,-0.4 c 0.031,-0.3 0.085,-0.68 0.16,-1.119 l 0.026,-0.148 c 0.172,-0.962 0.379,-1.865 0.42,-2.021 a 0.25,0.25 0 0 0 0,-0.133 l -0.073,-0.432 -0.014,-0.083 -0.034,0.078 a 28.179,28.179 0 0 0 -1.118,3.338 0.519,0.519 0 0 0 0,0.38 25.622,25.622 0 0 0 1.447,2.877 l 0.059,0.09 -0.052,-0.4 a 0.277,0.277 0 0 0 -0.016,-0.081 z m -3.8809996,-6.293 a 0.177,0.177 0 0 0 0.079,-0.055 6.271,6.271 0 0 0 0.473,-0.685 l 0.076,-0.126 -1.333,1.1 0.12,-0.037 c 0.176,-0.051 0.428,-0.138 0.585,-0.197 z m 3.0549996,6.355 c 0,0 -0.2,-0.129 -0.26,-0.17 a 1.161,1.161 0 0 1 -0.113,-0.086 20.089,20.089 0 0 1 -2.3099996,-2.953 0.472,0.472 0 0 1 -0.085,-0.311 c 0.008,-0.15 0.038,-0.443 0.067,-0.609 a 0.37,0.37 0 0 1 0.125,-0.244 c 0.222,-0.2 0.59,-0.568 0.86,-0.843 a 0.962,0.962 0 0 0 0.19,-0.25 c 0.1,-0.181 0.2999996,-0.607 0.5059996,-1.061 l 0.071,-0.157 c 0.183,-0.409 0.326,-0.746 0.4,-0.948 a 0.346,0.346 0 0 0 0.029,-0.227 4.137,4.137 0 0 0 -0.1,-0.425 l -0.024,-0.088 c -0.067,-0.245 -0.138,-0.475 -0.138,-0.477 l -0.039,-0.124 -0.024,0.365 a 0.262,0.262 0 0 0 0,0.056 5.344,5.344 0 0 1 0.081,0.714 0.282,0.282 0 0 1 -0.04,0.165 14.6,14.6 0 0 1 -1.1159996,1.648 l -0.116,0.152 c -0.335,0.441 -0.667,0.854 -0.936,1.162 a 0.541,0.541 0 0 0 -0.133,0.276 c -0.037,0.178 -0.08,0.584 -0.108,0.9 a 0.563,0.563 0 0 0 0.109,0.429 19.156,19.156 0 0 0 2.4239996,2.897 0.59,0.59 0 0 0 0.107,0.072 c 0.072,0.04 0.207,0.109 0.4,0.207 l 0.093,0.046 0.1,0.047 0.031,0.015 0.02,0.011 0.07,0.032 -0.11,-0.194 a 0.084,0.084 0 0 0 -0.031,-0.027 z M 8.4058924,5.1932619 h 0.024 v -0.253 h -0.024 c -0.448,0.028 -0.9,0.061 -1.349,0.1 v -0.287 c 0.388,-0.033 0.792,-0.063 1.2,-0.09 h 0.024 v -0.255 h -0.026 c -0.414,0.027 -0.816,0.057 -1.2,0.09 v -0.256 c 0.448,-0.039 0.9,-0.072 1.352,-0.1 h 0.023 v -0.253 h -0.026 c -0.54,0.033 -1.076,0.074 -1.592,0.12 h -0.018 v 1.3 h 0.027 c 0.515,-0.042 1.05,-0.083 1.585,-0.116 z m 0.579,-0.225 c 0.013,0.024 0.009,0.066 0.029,0.084 a 0.441,0.441 0 0 0 0.319,0.09 h 0.071 c 0.253,-0.011 0.512,-0.021 0.7909996,-0.029 0.3,-0.01 0.478,-0.075 0.478,-0.384 v -0.934 l -0.271,0.007 v 0.968 a 0.085,0.085 0 0 1 -0.085,0.085 c -0.3359996,0.01 -0.6849996,0.023 -1.0379996,0.039 a 0.094,0.094 0 0 1 -0.066,-0.023 0.076,0.076 0 0 1 -0.023,-0.053 v -0.971 l -0.265,0.014 v 0.93 a 0.35,0.35 0 0 0 0.053,0.162 z"/>

</svg>
