<svg xmlns="http://www.w3.org/2000/svg" viewBox="0 0 24 24"><path fill="#44739e" d="m18.333 5.428.386.051V4.431l.713.075v-.364l-1.823-.203v.364l.724.082ZM8.226 9.256c.303-.032.351-.086.271-.297l-.258.013ZM6.51 11.95l.303.344c.013-.05.024-.078.028-.106l.072-.505a.55.55 0 0 0-.403.267m1.879.789a.16.16 0 0 0 .07-.057q.209-.288.415-.578l-.033-.033-1.01.83.014.029q.277-.094.544-.191m.91-7.591.295-.01q.356-.01.707-.03c.304-.017.42-.145.423-.455v-.748l-.005-.084-.013-.117h-.359l-.006.122v.843a.2.2 0 0 1-.007.072.2.2 0 0 1-.07.011q-.478.024-.958.038a.1.1 0 0 1-.053 0 .2.2 0 0 1-.008-.068v-.977l-.384.02v.956c.003.295.127.417.438.427m-3.216-.161a.35.35 0 0 0 .293-.304 2 2 0 0 0 0-.41.3.3 0 0 0-.279-.276.7.7 0 0 0-.185-.006q-.37.036-.741.078-.187.022-.375.048l-.22.029v1.415l.369-.045V5.13l.207-.023.561-.065a4 4 0 0 0 .37-.055M4.958 4.76v-.292l.082-.011q.175-.023.348-.043.278-.033.558-.061h.058a.2.2 0 0 1 .012.07v.145c0 .075 0 .075-.073.083q-.264.032-.529.061Zm10.816.435a1.4 1.4 0 0 0 .221.032q.337.029.669.051.138.011.281.013h.093a.313.313 0 0 0 .321-.327v-.665a.384.384 0 0 0-.295-.384 1 1 0 0 0-.165-.033q-.462-.036-.926-.069a1 1 0 0 0-.181 0 .316.316 0 0 0-.321.327q-.013.365 0 .707a.344.344 0 0 0 .303.348m.082-1.021s.007-.006.032-.006h.016q.508.036 1.011.081c.059 0 .066 0 .07.083s0 .128 0 .192v.349a.1.1 0 0 1-.01.053.2.2 0 0 1-.048 0q-.505-.033-1.011-.075c-.064-.006-.064-.022-.065-.055a9 9 0 0 1 0-.589q-.001-.031.009-.033Zm-2.523.927 1.767.067-.017-.363-1.367-.056v-.158h.275c.164 0 .326 0 .49.013a2.4 2.4 0 0 0 .377.006l.071-.006v-.346l-1.213-.05v-.143l1.371.049v-.356l-.311-.016c-.443-.022-.903-.045-1.365-.046h-.078V5.03Zm-1.927-.026a1.4 1.4 0 0 0 .209.018h1.112a1 1 0 0 0 .101-.007l.116-.009v-.071c0-.247.01-.489 0-.738v-.075h-1.017v.359h.636v.182h-1.005c-.065 0-.077-.007-.078-.084v-.475c0-.134 0-.134.131-.134h1.251v-.347l-.101-.011-.059-.006h-.893a1.5 1.5 0 0 0-.388.021.344.344 0 0 0-.31.339q-.016.34 0 .722a.32.32 0 0 0 .295.316m-2.924-.24-1.368.091v-.171l1.213-.094V4.3l-1.207.087v-.143l1.35-.101.011-.101v-.147l-.012-.119-1.73.131v1.415l1.743-.13Zm4.729 4.15c.249-.405.246-.284.134-.809a.2.2 0 0 0-.016-.059.15.15 0 0 0-.045-.058.56.56 0 0 0-.405-.101c-.416.089-.835.165-1.252.25a.364.364 0 0 0-.303.349c.089.016.179.027.267.05a.55.55 0 0 0 .369-.038c.257-.108.52-.202.778-.303a.34.34 0 0 1 .278.008.293.293 0 0 1 .123.416q-.17.236-.348.462a.2.2 0 0 0-.041.21c.101.304.191.607.283.916a.37.37 0 0 0 .188.226c-.008-.05-.011-.079-.017-.109l-.189-.893a.32.32 0 0 1 .054-.314 1.4 1.4 0 0 0 .142-.203m-4.975 5.116c-.119.025-.237.057-.357.079s-.124 0-.145-.101c-.03-.15-.056-.303-.081-.45s-.016-.146.123-.194c.303-.101.614-.211.923-.315a.32.32 0 0 0 .193-.138q.339-.596.674-1.193a.18.18 0 0 0 .021-.129.4.4 0 0 0-.268-.287c-.32-.077-.64-.16-.961-.237a1 1 0 0 0-.185-.01l-.006.031.135.055q.365.13.73.265a.26.26 0 0 1 .155.399 5.4 5.4 0 0 1-.589.886.4.4 0 0 1-.168.125c-.218.081-.443.148-.663.224a.18.18 0 0 1-.195-.041q-.107-.097-.219-.19a1 1 0 0 0-.094-.064 1.04 1.04 0 0 0 .041.537 4 4 0 0 1 .16.506c.038.142.065.287.101.429.026.101.055.124.152.101a3 3 0 0 0 .438-.126 1 1 0 0 0 .202-.154.17.17 0 0 0-.117-.008m1.918-5.663a.3.3 0 0 0 .166-.12c.166-.272.323-.551.483-.828a.3.3 0 0 0 .011-.061 1.5 1.5 0 0 0-.645.044q-.522.21-1.033.445a.7.7 0 0 0-.22.178 4 4 0 0 0-.279.343.66.66 0 0 1-.345.258 1 1 0 0 0-.146.07l.012.037c.109 0 .219.006.328 0a3.3 3.3 0 0 0 .74-.073c.31-.097.621-.191.928-.293m1.865 10.074c-.177-.459-.356-.918-.526-1.381a.8.8 0 0 1-.048-.328c.03-.303.062-.617.121-.921.154-.809.323-1.623.485-2.435a1.2 1.2 0 0 0-.075-.525.5.5 0 0 0-.068.123q-.144.369-.281.741a27 27 0 0 0-.749 2.334.9.9 0 0 0 .049.62 28 28 0 0 0 1.295 2.569 1 1 0 0 0 .057.086.87.87 0 0 0-.08-.448 4 4 0 0 1-.18-.435m5.809-9.262a14 14 0 0 0-2.075-1.212.5.5 0 0 0-.439-.016q-.51.222-1.022.439a1 1 0 0 0-.11.064 1.2 1.2 0 0 0 .55-.01c.133-.048.278-.063.413-.101a.44.44 0 0 1 .426.089q.452.371.917.732a1.6 1.6 0 0 0 .312.186c.202.095.409.179.615.266a.32.32 0 0 1 .202.247c.007.04.021.079.026.119.062.422.119.845.182 1.267a1.17 1.17 0 0 1-.126.737c-.155.297-.303.596-.464.892a.5.5 0 0 1-.142.174.495.495 0 0 0-.259.505 2 2 0 0 1-.012.246.4.4 0 0 0 .119-.111 11 11 0 0 0 1.076-1.819.5.5 0 0 0 .052-.174 8.3 8.3 0 0 0-.087-2.271.36.36 0 0 0-.154-.249M6.65 11.15c.295-.052.588-.117.881-.174.177-.035.355-.065.553-.101-.046-.056-.077-.101-.11-.131-.101-.11-.219-.214-.317-.33a.54.54 0 0 0-.452-.202 3 3 0 0 1-.328-.028l-.012-.032a1 1 0 0 1 .116-.084 1 1 0 0 1 .101-.037l1.538-.583a.66.66 0 0 0 .352-.323.08.08 0 0 0-.055.017 1.2 1.2 0 0 1-.633.28c-.074.013-.147.034-.221.053a.4.4 0 0 1-.268-.013.3.3 0 0 0-.16-.013c-.11.02-.218.051-.326.075-.03.006-.062.007-.118.013a.7.7 0 0 1 .266-.194c.101-.035.207-.082.313-.117a.16.16 0 0 0 .132-.161c0-.101.032-.191.042-.287a.22.22 0 0 1 .096-.162q.191-.142.375-.288a.17.17 0 0 0 .088-.125c-.188.111-.355.22-.53.313a2 2 0 0 0-.751.674 1 1 0 0 1-.215.211c-.366.282-.738.558-1.103.841a2.3 2.3 0 0 0-.286.274c-.101.116-.077.249.066.347l.219-.157a.74.74 0 0 0 .281-.293c.018-.043.074-.07.113-.101a.63.63 0 0 1-.164.437c-.107.108-.202.225-.303.343-.07.081-.075.119-.012.202q.186.24.388.471a.6.6 0 0 0 .143.09c.042-.187.081-.35.115-.514a.21.21 0 0 1 .186-.191m3.994-4.329a1 1 0 0 1 .45-.123c.253-.007.505-.032.761-.036q.956-.01 1.919-.008a.5.5 0 0 1 .303.094c-.794.07-1.586.135-2.372.248v.043c.08 0 .159.009.239.006q.693-.022 1.384-.054a1 1 0 0 1 .474.084c.231.108.461.215.694.313a1 1 0 0 0 .291.078c.191.021.387.019.578.043a.9.9 0 0 1 .331.095c.404.227.808.468 1.213.707a.48.48 0 0 0 .312.08l-.845-.808a.4.4 0 0 0-.063-.043c-.641-.361-1.284-.719-1.954-1.025a1.2 1.2 0 0 0-.456-.11c-.309-.012-.618-.029-.929-.041a23 23 0 0 0-2.602.06.34.34 0 0 0-.314.202 1.4 1.4 0 0 1-.374.434 8 8 0 0 1-.899.678.3.3 0 0 0-.163.187c.146-.08.274-.153.404-.223q.808-.442 1.618-.881m.144 11.787a24 24 0 0 1-1.74-2.197c-.113-.161-.214-.333-.318-.505a.5.5 0 0 1-.078-.319q.03-.303.068-.607a.45.45 0 0 1 .154-.271q.274-.254.538-.519a2.1 2.1 0 0 0 .719-1.023c.252-.536.482-1.084.722-1.628a.44.44 0 0 0 .049-.28l-.226-.914h-.053c.007.119.01.238.021.358q.025.241.055.484a.5.5 0 0 1-.075.334c-.077.12-.145.245-.224.364a26 26 0 0 1-1.871 2.479.73.73 0 0 0-.189.404q-.044.424-.093.847a.5.5 0 0 0 .082.349c.101.148.191.303.296.442a23 23 0 0 0 1.819 2.17 2.1 2.1 0 0 0 .7.526c.089.036.173.086.26.128a1 1 0 0 0 .088.028l.019-.028a1 1 0 0 0-.163-.149 2.3 2.3 0 0 1-.56-.473m5.625-6.83a15 15 0 0 0-1.443-1.753.4.4 0 0 0-.233-.121q.007.07.017.125.144.67.286 1.341a.5.5 0 0 0 .151.273 6 6 0 0 1 .707.821.87.87 0 0 1 .161.454 14.5 14.5 0 0 1-.05 2.358.53.53 0 0 1-.202.371q-1.111.949-2.214 1.913a1.7 1.7 0 0 0-.476.567c0 .008-.017.01-.027.017a1.62 1.62 0 0 1-.095-1.071c.125-.418.234-.841.349-1.262l.042-.173-.031-.012q-.034.064-.064.128c-.146.336-.294.671-.435 1.011-.101.244-.188.493-.283.739a.48.48 0 0 0 .006.384c.107.246.202.498.304.747.016.041.038.081.07.148.11-.195.207-.361.297-.53a1.4 1.4 0 0 1 .345-.423c.819-.675 1.636-1.353 2.459-2.021a.6.6 0 0 0 .227-.345 10.5 10.5 0 0 0 .284-1.849 9 9 0 0 0-.032-1.522.66.66 0 0 0-.12-.315m4.662-7.61-.009-.695c0-.132-.008-.263-.014-.397 0-.074-.007-.148-.01-.224V2.79l-.063-.012a52.2 52.2 0 0 0-17.953 0l-.066.012v.251l-.033 1.235a36 36 0 0 0 .092 4.183 22 22 0 0 0 .404 2.797 15.5 15.5 0 0 0 1.453 4.1 15.06 15.06 0 0 0 6.973 6.606.3.3 0 0 0 .152.038.4.4 0 0 0 .172-.043 15 15 0 0 0 2.139-1.222 14.86 14.86 0 0 0 5.136-6.008 17.2 17.2 0 0 0 1.388-4.868 26 26 0 0 0 .26-3.52c.002-.723-.009-1.46-.021-2.171m-.494 2.526a22.5 22.5 0 0 1-.753 5.522 14.3 14.3 0 0 1-3.694 6.367 14.9 14.9 0 0 1-4.029 2.851.19.19 0 0 1-.202 0 14.5 14.5 0 0 1-6.685-6.52 15 15 0 0 1-1.247-3.519 22 22 0 0 1-.434-2.787 35 35 0 0 1-.117-3.784c0-.372.014-.743.025-1.112l.01-.394v-.096a52.2 52.2 0 0 1 17.091 0c0 .13.007.26.011.387q.017.467.022.923v.289c.012.612.017 1.248.002 1.871Z"/></svg>