<?xml version="1.0" encoding="UTF-8"?>
<svg width="24px" fill="#44739e" height="24px" viewBox="0 0 24 24" version="1.1" xmlns="http://www.w3.org/2000/svg" xmlns:xlink="http://www.w3.org/1999/xlink">
            <path d="M 6.465,4.974 V 4.735 A 0.1,0.1 0 0 0 6.358,4.646 C 6.009,4.682 5.658,4.722 5.311,4.764 V 5.2 C 5.66,5.158 6.011,5.118 6.358,5.082 A 0.119,0.119 0 0 0 6.465,4.974 Z m 5.558369,-2.397369 a 49.464,49.464 0 0 0 -8.4000004,0.726 c -0.043,1.148 -0.092,2.921 -0.01,4.426 a 16.547,16.547 0 0 0 2.325,8.2 14.206,14.206 0 0 0 6.0850004,5.28 14.206,14.206 0 0 0 6.084,-5.287 16.547,16.547 0 0 0 2.325,-8.2 c 0.082,-1.5 0.033,-3.278 -0.01,-4.426 a 49.464,49.464 0 0 0 -8.399,-0.719 z m 3.325,2 c 0,-0.264 0.131,-0.318 0.425,-0.3 0.259,0.018 0.517,0.037 0.776,0.059 0.259,0.022 0.424,0.093 0.424,0.362 v 0.519 c 0,0.265 -0.146,0.312 -0.424,0.289 -0.259,-0.021 -0.517,-0.041 -0.776,-0.058 -0.282,-0.019 -0.425,-0.074 -0.425,-0.353 z m -2,-0.41 q 0.749,0.018 1.5,0.056 v 0.19 q -0.647,-0.033 -1.294,-0.051 v 0.289 q 0.576,0.016 1.151,0.044 v 0.182 c -0.383,-0.019 -0.767,-0.033 -1.151,-0.044 v 0.318 q 0.648,0.018 1.294,0.051 v 0.19 q -0.748,-0.039 -1.5,-0.057 z m -2.089,0.328 c 0,-0.256 0.128,-0.341 0.387,-0.343 q 0.558,0 1.116,0 v 0.19 q -0.6,-0.009 -1.193,0 a 0.11,0.11 0 0 0 -0.108,0.1 v 0.589 a 0.115,0.115 0 0 0 0.108,0.107 c 0.357,0 0.713,0 1.07,0 v -0.323 q -0.311,0 -0.621,0 v -0.19 c 0.274,0 0.549,0 0.823,0.006 v 0.7 q -0.578,-0.007 -1.157,0 c -0.282,0 -0.425,-0.046 -0.425,-0.321 z m -2.1000004,-0.269 0.2,-0.01 v 0.887 a 0.1,0.1 0 0 0 0.107,0.095 q 0.487,-0.024 0.9750004,-0.037 a 0.1,0.1 0 0 0 0.1,-0.1 v -0.898 h 0.208 v 0.851 c 0,0.269 -0.141,0.328 -0.426,0.337 -0.248,0.008 -0.4950004,0.017 -0.7430004,0.028 -0.264,0.012 -0.425,-0.038 -0.425,-0.305 z m -0.253,3.723 a 0.1,0.1 0 0 1 0.035,-0.031 l 0.194,-0.128 0.062,-0.042 c 0.051,-0.034 0.1,-0.064 0.122,-0.082 l 0.037,-0.027 c 0.184,-0.139 0.476,-0.385 0.6490004,-0.537 a 0.49,0.49 0 0 0 0.1,-0.118 c 0.056,-0.091 0.118,-0.19 0.156,-0.245 a 0.206,0.206 0 0 1 0.155,-0.086 22.713,22.713 0 0 1 3.507,-0.014 0.655,0.655 0 0 1 0.205,0.05 20.863,20.863 0 0 1 1.934,1.007 0.584,0.584 0 0 1 0.1,0.071 c 0.213,0.188 0.752,0.74 0.752,0.74 l -0.168,-0.03 a 0.192,0.192 0 0 1 -0.066,-0.027 12.828,12.828 0 0 0 -1.257,-0.74 0.465,0.465 0 0 0 -0.158,-0.047 c -0.2,-0.021 -0.477,-0.04 -0.656,-0.048 a 0.5,0.5 0 0 1 -0.235,-0.062 c -0.165,-0.084 -0.565,-0.265 -0.764,-0.342 a 0.493,0.493 0 0 0 -0.213,-0.039 c -0.342,0 -1.122,0.03 -1.521,0.055 a 0.179,0.179 0 0 1 -0.04,0 l -0.19,-0.029 c 0.538,-0.093 1.87,-0.212 2.42,-0.241 l -0.22,-0.08 a 0.465,0.465 0 0 0 -0.134,-0.023 c -0.119,0 -0.385,-0.008 -0.731,-0.009 h -0.118 c -0.523,0 -1.2,0.014 -1.816,0.061 a 0.477,0.477 0 0 0 -0.157,0.039 c -0.25,0.11 -0.862,0.442 -1.4750004,0.783 l -0.136,0.075 -0.464,0.261 z m 4.0490004,1.4770003 c 0.042,0.237 0.221,1.0669997 0.221,1.0669997 l -0.112,-0.1 a 0.167,0.167 0 0 1 -0.047,-0.071 c -0.08,-0.235 -0.23,-0.7249997 -0.3,-0.9629997 a 0.124,0.124 0 0 1 0.023,-0.113 c 0.118,-0.143 0.289,-0.3710003 0.389,-0.5160003 a 0.122,0.122 0 0 0 0.021,-0.119 c -0.023,-0.047 -0.062,-0.119 -0.1,-0.184 a 0.085,0.085 0 0 0 -0.047,-0.038 l -0.135,-0.043 a 0.111,0.111 0 0 0 -0.072,0 c -0.294,0.107 -0.69,0.261 -0.932,0.362 a 0.139,0.139 0 0 1 -0.093,0.009 c -0.071,-0.01 -0.275,-0.047 -0.375,-0.066 a 0.026,0.026 0 0 1 -0.018,-0.039 l 0.119,-0.207 a 0.117,0.117 0 0 1 0.074,-0.054 c 0.382,-0.087 0.888,-0.187 1.368,-0.272 a 0.142,0.142 0 0 1 0.084,0.009 l 0.2,0.1 a 0.07,0.07 0 0 1 0.039,0.048 c 0.027,0.114 0.061,0.265 0.083,0.394 a 0.231,0.231 0 0 1 -0.022,0.147 c -0.083,0.1440003 -0.252,0.4000003 -0.346,0.5400003 a 0.14,0.14 0 0 0 -0.022,0.109 z m -4.5650004,-0.54 0.013,-0.027 a 0.06,0.06 0 0 1 0.03,-0.029 l 0.271,-0.115 a 0.135,0.135 0 0 0 0.052,-0.038 l 0.42,-0.518 a 0.267,0.267 0 0 1 0.083,-0.07 8.874,8.874 0 0 1 1.1150004,-0.481 0.385,0.385 0 0 1 0.111,-0.018 l 0.4,-0.006 a 0.029,0.029 0 0 1 0.025,0.043 l -0.465,0.8 a 0.205,0.205 0 0 1 -0.12,0.1 l -0.8720004,0.273 a 1.265,1.265 0 0 1 -0.292,0.055 c -0.196,0.013 -0.771,0.031 -0.771,0.031 z m 0.36,0.334 a 0.093,0.093 0 0 1 -0.06,0.048 l -0.191,0.042 a 0.018,0.018 0 0 1 -0.021,-0.018 l 0.018,-0.225 a 0.03,0.03 0 0 1 0.027,-0.028 l 0.189,-0.016 a 0.042,0.042 0 0 1 0.042,0.025 0.219,0.219 0 0 1 -0.004,0.172 z m -1.6,-4.8610003 q 0.745,-0.066 1.494,-0.112 v 0.19 q -0.646,0.039 -1.292,0.095 v 0.289 q 0.575,-0.05 1.149,-0.086 v 0.19 q -0.574,0.037 -1.149,0.086 v 0.318 q 0.645,-0.056 1.292,-0.1 v 0.189 q -0.749,0.047 -1.494,0.113 z m -1.817,1 v 0.364 l -0.206,0.026 v -1.172 q 0.6,-0.077 1.192,-0.138 c 0.237,-0.025 0.37,0.068 0.37,0.308 v 0.134 c 0,0.246 -0.133,0.346 -0.37,0.37 -0.328,0.036 -0.656,0.073 -0.985,0.113 z m 1.39,6.377 a 0.422,0.422 0 0 1 -0.074,-0.035 0.277,0.277 0 0 1 -0.077,-0.066 4.315,4.315 0 0 1 -0.364,-0.45 0.1,0.1 0 0 1 0,-0.12 c 0.091,-0.112 0.273,-0.316 0.373,-0.42 a 0.27,0.27 0 0 0 0.039,-0.06 2.091,2.091 0 0 0 0.094,-0.3 v -0.02 0 0 l -0.019,0.012 -0.082,0.052 a 0.089,0.089 0 0 0 -0.044,0.046 c -0.016,0.034 -0.044,0.088 -0.066,0.125 a 0.174,0.174 0 0 1 -0.036,0.04 c -0.128,0.1 -0.27,0.2 -0.371,0.274 a 0.017,0.017 0 0 1 -0.022,0 c -0.012,-0.013 -0.066,-0.074 -0.076,-0.089 a 0.063,0.063 0 0 1 -0.011,-0.038 c 0,-0.025 0,-0.07 0,-0.1 0,-0.03 0.015,-0.059 0.063,-0.109 0.048,-0.05 0.112,-0.114 0.174,-0.174 0.151,-0.128 0.533,-0.4379997 1.215,-0.9249997 a 0.167,0.167 0 0 0 0.033,-0.032 c 0.072,-0.1 0.275,-0.361 0.326,-0.424 a 0.136,0.136 0 0 1 0.025,-0.03 1.8,1.8 0 0 1 0.2,-0.1420003 c 0.19,-0.12 0.558,-0.338 0.764,-0.458 l -0.079,0.1 -0.013,0.013 c -0.068,0.05 -0.358,0.272 -0.436,0.335 a 0.088,0.088 0 0 0 -0.037,0.06 c -0.017,0.1000003 -0.046,0.2850003 -0.055,0.3890003 a 0.061,0.061 0 0 1 -0.046,0.057 c -0.135,0.055 -0.294,0.113 -0.423,0.164 a 0.159,0.159 0 0 0 -0.051,0.028 c -0.013,0.01 -0.184,0.163 -0.184,0.163 0,0 0.372,-0.092 0.508,-0.123 a 0.1,0.1 0 0 1 0.077,0.009 c 0.028,0.013 0.075,0.032 0.1,0.041 a 0.148,0.148 0 0 0 0.1,0 c 0.153,-0.034 0.412,-0.1 0.549,-0.132 a 0.448,0.448 0 0 0 0.171,-0.08 c 0.066,-0.046 0.233,-0.171 0.233,-0.171 l -0.005,0.031 a 0.047,0.047 0 0 1 -0.013,0.025 c -0.033,0.041 -0.093,0.107 -0.122,0.138 a 0.476,0.476 0 0 1 -0.193,0.13 c -0.391,0.163 -1.059,0.417 -1.56,0.5899997 a 0.162,0.162 0 0 0 -0.072,0.046 c -0.026,0.027 -0.061,0.066 -0.061,0.066 0,0 0.408,0.03 0.533,0.044 a 0.173,0.173 0 0 1 0.1,0.045 c 0.1,0.088 0.442,0.438 0.544,0.559 0,0 -0.965,0.161 -1.412,0.272 a 0.125,0.125 0 0 0 -0.1,0.093 c -0.033,0.133 -0.117,0.551 -0.117,0.551 z m 2.41,0.155 a 6.019,6.019 0 0 1 -0.442,0.64 0.161,0.161 0 0 1 -0.068,0.046 c -0.14,0.052 -0.375,0.132 -0.548,0.185 z m -1.969,0.273 -0.286,-0.336 a 0.506,0.506 0 0 1 0.371,-0.245 z m 1.253,1.843 c -0.1,0.034 -0.355,0.105 -0.434,0.122 -0.061,0.014 -0.1,-0.01 -0.116,-0.08 0,0 -0.108,-0.458 -0.146,-0.614 l -0.02,-0.068 c -0.029,-0.09 -0.1,-0.267 -0.139,-0.36 a 0.079,0.079 0 0 1 -0.006,-0.03 c 0,-0.106 0.02,-0.343 0.02,-0.343 0,0 0.232,0.218 0.345,0.3 a 0.072,0.072 0 0 0 0.071,0.013 c 0.154,-0.039 0.509,-0.157 0.7,-0.23 a 0.277,0.277 0 0 0 0.113,-0.081 5.663,5.663 0 0 0 0.6,-0.908 0.169,0.169 0 0 0 0.011,-0.127 l -0.031,-0.1 a 0.13,0.13 0 0 0 -0.071,-0.076 c -0.343,-0.131 -0.613,-0.228 -0.931,-0.336 l 0.04,-0.022 a 0.244,0.244 0 0 1 0.139,0 c 0.207,0.05 0.646,0.157 0.978,0.242 a 0.249,0.249 0 0 1 0.129,0.1 l 0.072,0.12 a 0.141,0.141 0 0 1 0,0.138 c -0.06,0.117 -0.146,0.275 -0.237,0.439 l -0.069,0.123 c -0.127,0.224 -0.253,0.441 -0.324,0.556 a 0.263,0.263 0 0 1 -0.158,0.138 c -0.326,0.115 -0.731,0.252 -0.972,0.33 a 0.077,0.077 0 0 0 -0.057,0.1 c 0.018,0.1 0.073,0.438 0.095,0.536 a 0.069,0.069 0 0 0 0.091,0.055 c 0.142,-0.027 0.521,-0.12 0.521,-0.12 l -0.179,0.165 a 0.112,0.112 0 0 1 -0.035,0.018 z m 3.1400004,4.71 -0.029,-0.014 -0.091,-0.046 -0.087,-0.043 c -0.134,-0.067 -0.293,-0.148 -0.376,-0.193 a 0.592,0.592 0 0 1 -0.1,-0.066 18.006,18.006 0 0 1 -2.2740004,-2.71 0.5,0.5 0 0 1 -0.1,-0.388 c 0.026,-0.3 0.066,-0.682 0.1,-0.848 a 0.468,0.468 0 0 1 0.12,-0.248 c 0.258,-0.3 0.573,-0.69 0.88,-1.093 l 0.108,-0.143 a 13.862,13.862 0 0 0 1.0580004,-1.548 0.288,0.288 0 0 0 0.041,-0.164 5.229,5.229 0 0 0 -0.077,-0.676 0.178,0.178 0 0 1 0,-0.046 l 0.017,-0.223 c 0,0 0.067,0.214 0.13,0.447 l 0.023,0.082 a 3.979,3.979 0 0 1 0.089,0.4 0.323,0.323 0 0 1 -0.022,0.2 c -0.079,0.209 -0.223,0.546 -0.377,0.889 l -0.067,0.148 c -0.189,0.417 -0.381,0.82 -0.474,0.994 a 0.888,0.888 0 0 1 -0.1750004,0.23 c -0.2,0.2 -0.573,0.58 -0.806,0.791 a 0.366,0.366 0 0 0 -0.125,0.243 c -0.028,0.16 -0.056,0.434 -0.063,0.575 a 0.464,0.464 0 0 0 0.082,0.3 18.988,18.988 0 0 0 2.1750004,2.777 0.769,0.769 0 0 0 0.108,0.083 l 0.245,0.16 a 0.069,0.069 0 0 1 0.019,0.019 l 0.068,0.12 z m -0.6,-2.547 a 0.459,0.459 0 0 1 0,-0.343 26.268,26.268 0 0 1 1.049,-3.132 c 0,0 0.053,0.314 0.069,0.406 a 0.208,0.208 0 0 1 0,0.116 c -0.043,0.163 -0.238,1.021 -0.394,1.9 l -0.025,0.139 c -0.063,0.37 -0.119,0.737 -0.151,1.051 a 0.74,0.74 0 0 0 0.035,0.38 c 0.134,0.448 0.628,1.618 0.723,1.831 a 0.278,0.278 0 0 1 0.019,0.074 l 0.036,0.276 a 23.577,23.577 0 0 1 -1.364,-2.698 z m 5.053,-0.975 a 0.324,0.324 0 0 1 -0.14,0.206 c -0.285,0.214 -0.711,0.556 -1.134,0.905 l -0.133,0.11 c -0.51,0.423 -0.994,0.836 -1.2,1.027 a 0.771,0.771 0 0 0 -0.134,0.162 c -0.1,0.156 -0.243,0.426 -0.315,0.56 l -0.02,0.038 -0.023,0.042 c -0.1,-0.209 -0.3,-0.72 -0.377,-0.926 a 0.27,0.27 0 0 1 0,-0.193 c 0.117,-0.428 0.67,-1.672 0.777,-1.9 v 0.092 a 0.132,0.132 0 0 1 -0.006,0.039 14.646,14.646 0 0 0 -0.406,1.553 0.61,0.61 0 0 0 0,0.213 4.485,4.485 0 0 0 0.145,0.563 2.642,2.642 0 0 1 0.136,-0.246 0.654,0.654 0 0 1 0.1,-0.125 c 0.266,-0.263 0.719,-0.669 1.191,-1.078 l 0.167,-0.144 c 0.363,-0.311 0.724,-0.615 1.01,-0.846 a 0.273,0.273 0 0 0 0.119,-0.215 13.058,13.058 0 0 0 0.056,-2.31 0.787,0.787 0 0 0 -0.132,-0.389 5.538,5.538 0 0 0 -0.719,-0.838 0.324,0.324 0 0 1 -0.09,-0.17 c -0.1,-0.507 -0.307,-1.4329997 -0.307,-1.4329997 l 0.119,0.052 a 0.274,0.274 0 0 1 0.093,0.065 12.5,12.5 0 0 1 1.426,1.755 0.344,0.344 0 0 1 0.043,0.125 9.162,9.162 0 0 1 -0.249,3.306 z m 1.7,-3.521 a 0.381,0.381 0 0 1 -0.045,0.143 10.322,10.322 0 0 1 -1.127,1.86 v -0.008 c 0.006,-0.054 0.035,-0.358 0.036,-0.523 a 0.061,0.061 0 0 1 0.024,-0.047 c 0.075,-0.058 0.178,-0.141 0.236,-0.191 a 0.292,0.292 0 0 0 0.059,-0.067 7.762,7.762 0 0 0 0.576,-1.158 0.612,0.612 0 0 0 0.034,-0.255 10.486,10.486 0 0 0 -0.22,-1.5349997 0.26,0.26 0 0 0 -0.133,-0.167 c -0.094,-0.048 -0.278,-0.132 -0.7,-0.3 a 0.583,0.583 0 0 1 -0.161,-0.1 c -0.276,-0.232 -0.706,-0.5790003 -0.974,-0.7790003 a 0.332,0.332 0 0 0 -0.274,-0.058 c -0.2,0.044 -0.444,0.106 -0.584,0.144 a 0.236,0.236 0 0 1 -0.115,0.008 l -0.094,-0.009 h -0.052 l -0.141,-0.011 h -0.01 c 0.456,-0.214 0.895,-0.4 1.169,-0.5 a 0.313,0.313 0 0 1 0.233,0.006 12.4,12.4 0 0 1 2.08,1.2100003 0.187,0.187 0 0 1 0.086,0.128 7.715,7.715 0 0 1 0.093,2.2119997 z m 1.213,-6.907 c -0.226,-0.028 -0.452,-0.056 -0.679,-0.081 v 0.991 l -0.206,-0.023 v -0.992 c -0.228,-0.025 -0.457,-0.048 -0.685,-0.071 v -0.189 q 0.786,0.077 1.57,0.175 z M 15.635,5.273 c 0.335,0.022 0.671,0.048 1.006,0.076 a 0.1,0.1 0 0 0 0.107,-0.1 V 4.669 A 0.122,0.122 0 0 0 16.641,4.552 C 16.306,4.524 15.97,4.498 15.635,4.476 a 0.1,0.1 0 0 0 -0.108,0.1 v 0.581 a 0.119,0.119 0 0 0 0.108,0.116 z M 21.107,2.925 V 2.768 L 20.95,2.742 a 54.288,54.288 0 0 0 -17.89,0 L 2.9,2.768 2.895,2.925 c -0.065,1.863 -0.066,3.344 0,4.528 a 17.763,17.763 0 0 0 2.538,8.868 15.36,15.36 0 0 0 6.487,5.641 L 12,22 12.082,21.962 a 15.367,15.367 0 0 0 6.487,-5.641 17.763,17.763 0 0 0 2.538,-8.868 c 0.066,-1.184 0.065,-2.666 0,-4.528 z M 20.72,7.432 A 17.425,17.425 0 0 1 18.241,16.117 14.985,14.985 0 0 1 12,21.576 14.984,14.984 0 0 1 5.759,16.117 17.407,17.407 0 0 1 3.28,7.432 C 3.217,6.293 3.216,4.873 3.28,3.095 a 53.89,53.89 0 0 1 17.45,0 c 0.054,1.778 0.053,3.198 -0.01,4.337 z"/>

</svg>