<svg xmlns="http://www.w3.org/2000/svg" viewBox="0 0 24 24"><path fill="#44739e" d="M5.121 5.084V4.65q.245-.033.481-.061.27-.032.541-.059c.117-.012.146.017.15.138v.147c0 .108-.027.139-.136.152l-.743.085Zm11.768-.24v.265c0 .088-.039.134-.137.127a79 79 0 0 1-.98-.072c-.087-.007-.13-.044-.133-.127a9 9 0 0 1 0-.572c0-.088.045-.123.134-.116q.491.035.981.078c.102.009.132.047.136.153q.002.136-.001.264m3.441-1.396c.011.456.03.892.033 1.329 0 .697.014 1.394 0 2.09a22 22 0 0 1-.729 5.352 13.8 13.8 0 0 1-3.589 6.178 14.3 14.3 0 0 1-3.91 2.768.27.27 0 0 1-.259 0 14.03 14.03 0 0 1-6.495-6.326 14.6 14.6 0 0 1-1.209-3.417 22 22 0 0 1-.421-2.702 34 34 0 0 1-.113-3.662c.007-.486.022-.971.033-1.457 0-.048.006-.096.009-.155a50.1 50.1 0 0 1 16.65.002m-7.416 15.096c.102-.188.204-.348.287-.511a1.3 1.3 0 0 1 .333-.409c.791-.652 1.58-1.307 2.373-1.955a.6.6 0 0 0 .221-.334 10 10 0 0 0 .274-1.786 9 9 0 0 0-.031-1.471.6.6 0 0 0-.113-.297 14 14 0 0 0-1.393-1.697.37.37 0 0 0-.225-.118c.006.046.008.084.016.121.092.432.187.863.276 1.295a.5.5 0 0 0 .146.264 5.6 5.6 0 0 1 .68.793.8.8 0 0 1 .155.439 14 14 0 0 1-.048 2.277.5.5 0 0 1-.198.358c-.715.614-1.431 1.227-2.139 1.848a1.7 1.7 0 0 0-.459.548c0 .007-.016.01-.026.015a1.56 1.56 0 0 1-.092-1.034c.121-.404.226-.811.337-1.218l.041-.167-.03-.012q-.033.061-.062.124c-.141.324-.284.647-.419.973-.097.236-.182.476-.274.715a.47.47 0 0 0 .006.37c.102.239.196.481.294.722.018.038.038.076.07.147m-2.195-8.142h-.051c.006.114.009.231.02.345.015.157.035.307.053.467a.47.47 0 0 1-.073.323c-.074.117-.139.238-.215.352a26 26 0 0 1-1.807 2.395.7.7 0 0 0-.183.392q-.042.409-.09.818a.5.5 0 0 0 .08.337c.094.143.184.289.286.428a23 23 0 0 0 1.757 2.094 2.05 2.05 0 0 0 .677.511c.086.036.167.084.25.124l.086.028.019-.028a1 1 0 0 0-.158-.143 2.4 2.4 0 0 1-.544-.467 24 24 0 0 1-1.679-2.123c-.11-.156-.205-.322-.307-.483a.48.48 0 0 1-.075-.307q.031-.293.066-.585a.44.44 0 0 1 .149-.262q.266-.246.519-.5a2.05 2.05 0 0 0 .695-.988c.243-.519.465-1.049.697-1.573a.4.4 0 0 0 .047-.271q-.109-.45-.219-.89Zm.993-3.244V7.2c.076 0 .153.009.23.006q.668-.023 1.337-.052a.9.9 0 0 1 .458.081q.332.155.671.301a1 1 0 0 0 .28.075c.185.021.373.019.557.043a.9.9 0 0 1 .321.091c.394.22.78.451 1.167.683a.46.46 0 0 0 .301.078c-.285-.273-.55-.526-.818-.779a.3.3 0 0 0-.06-.041 26 26 0 0 0-1.887-.991 1.2 1.2 0 0 0-.441-.103c-.299-.011-.597-.028-.897-.039a23 23 0 0 0-2.513.057.34.34 0 0 0-.306.192 1.3 1.3 0 0 1-.363.42 8 8 0 0 1-.868.654.3.3 0 0 0-.158.181c.143-.078.265-.149.39-.215l1.566-.845a.9.9 0 0 1 .434-.119c.245 0 .489-.03.735-.034.613-.008 1.236-.01 1.853-.013a.5.5 0 0 1 .293.092c-.758.058-1.523.121-2.282.23ZM6.49 10.357a.6.6 0 0 1-.16.422c-.102.102-.198.218-.293.33-.068.08-.073.116-.012.195q.18.233.375.455a.6.6 0 0 0 .139.086c.04-.18.077-.336.11-.495a.204.204 0 0 1 .182-.18c.285-.052.567-.113.852-.168.17-.034.342-.064.532-.097l-.102-.128c-.102-.102-.21-.205-.307-.318a.52.52 0 0 0-.436-.199 3 3 0 0 1-.317-.026l-.01-.029a1 1 0 0 1 .11-.08 1 1 0 0 1 .096-.036l1.482-.563a.63.63 0 0 0 .34-.312.07.07 0 0 0-.053.017 1.2 1.2 0 0 1-.614.269c-.072.014-.143.035-.214.052a.4.4 0 0 1-.258-.013.3.3 0 0 0-.155-.012c-.102.018-.21.049-.315.072-.029.006-.059.007-.114.013a.65.65 0 0 1 .256-.187c.102-.035.204-.08.307-.113a.153.153 0 0 0 .126-.156c.006-.093.031-.184.041-.277a.2.2 0 0 1 .093-.157q.184-.137.362-.278a.16.16 0 0 0 .086-.124c-.182.108-.342.213-.511.307a1.94 1.94 0 0 0-.726.65 1 1 0 0 1-.204.204c-.354.273-.716.539-1.065.818a2 2 0 0 0-.277.265c-.102.113-.075.241.065.335l.21-.152a.7.7 0 0 0 .271-.282c.016-.049.07-.076.108-.108m7.614-1.723a1.1 1.1 0 0 0 .532-.01c.128-.046.267-.061.399-.103a.41.41 0 0 1 .409.086q.44.36.887.708a1.6 1.6 0 0 0 .3.179c.195.092.396.173.595.256a.31.31 0 0 1 .195.24c.008.038.021.075.027.114q.085.614.175 1.227a1.13 1.13 0 0 1-.122.716c-.149.287-.295.576-.449.861a.44.44 0 0 1-.137.169.48.48 0 0 0-.25.486 2 2 0 0 1-.011.238.4.4 0 0 0 .115-.109 11 11 0 0 0 1.04-1.759.5.5 0 0 0 .049-.168 8.2 8.2 0 0 0-.083-2.184.35.35 0 0 0-.15-.241 13.3 13.3 0 0 0-2.004-1.177.48.48 0 0 0-.423-.015c-.328.143-.658.281-.987.424a1 1 0 0 0-.107.062m-1.84 10.498a.8.8 0 0 0-.077-.432 5 5 0 0 1-.178-.42q-.259-.665-.511-1.329a.7.7 0 0 1-.046-.316c.028-.299.059-.597.116-.891.149-.785.312-1.567.469-2.351a1.2 1.2 0 0 0-.073-.511.4.4 0 0 0-.065.119c-.091.239-.185.476-.272.716a26 26 0 0 0-.723 2.254.87.87 0 0 0 .047.598 28 28 0 0 0 1.256 2.48l.06.083ZM8.276 8.868l.011.035c.102 0 .212.007.317 0a3.3 3.3 0 0 0 .715-.071c.3-.092.6-.182.897-.281a.3.3 0 0 0 .16-.116c.161-.263.312-.532.466-.8a.2.2 0 0 0 .011-.058 1.5 1.5 0 0 0-.623.043q-.504.202-.997.429a.7.7 0 0 0-.213.173 3 3 0 0 0-.269.33.63.63 0 0 1-.333.251 1 1 0 0 0-.142.065m.026 2.279-.006.031.13.052q.354.126.705.255a.253.253 0 0 1 .15.387 5 5 0 0 1-.57.856.4.4 0 0 1-.161.121c-.211.078-.428.142-.641.216a.17.17 0 0 1-.187-.041q-.105-.094-.212-.183c-.025-.021-.052-.036-.091-.064a1 1 0 0 0 .039.521 3.5 3.5 0 0 1 .154.49c.038.137.065.277.102.415.026.096.054.119.148.102a3 3 0 0 0 .422-.123.8.8 0 0 0 .19-.148.17.17 0 0 0-.108-.012c-.116.025-.229.055-.345.076s-.121 0-.141-.096a16 16 0 0 1-.078-.434c-.024-.145-.015-.141.12-.187l.89-.307a.3.3 0 0 0 .186-.133q.328-.576.652-1.154a.17.17 0 0 0 .02-.125.38.38 0 0 0-.259-.277c-.306-.074-.613-.154-.928-.228a1 1 0 0 0-.181-.01m4.881-.602c-.008-.049-.011-.078-.018-.103l-.181-.861a.32.32 0 0 1 .053-.307 1.4 1.4 0 0 0 .131-.194c.239-.389.236-.275.128-.778a.2.2 0 0 0-.015-.057.13.13 0 0 0-.044-.057.54.54 0 0 0-.386-.102c-.402.086-.807.16-1.21.242a.35.35 0 0 0-.29.337c.086.016.173.026.257.049a.53.53 0 0 0 .356-.037c.249-.102.503-.192.752-.296a.33.33 0 0 1 .269.008.286.286 0 0 1 .118.402q-.163.227-.336.446a.19.19 0 0 0-.039.205q.14.44.273.884a.36.36 0 0 0 .182.219M8.519 5.151l-1.316.092v-.317l1.167-.091V4.64l-1.165.084v-.289l1.311-.102c0-.04.008-.069.008-.097a1 1 0 0 0-.009-.102l-1.522.112v1.212l1.533-.117Zm4.096-.102h-1.047c-.109 0-.149-.044-.151-.155v-.456c0-.18.024-.204.205-.204h1.131v-.197c-.031 0-.055-.009-.079-.009h-1.059a1 1 0 0 0-.161.019.256.256 0 0 0-.239.256q-.016.346 0 .691a.235.235 0 0 0 .223.236 1 1 0 0 0 .19.016h1.073c.043 0 .085-.006.138-.01a10 10 0 0 0 0-.708h-.837v.196h.613Zm.959-.798 1.329.048v-.194c-.511-.025-1.022-.054-1.541-.055v1.207l1.55.059-.009-.198-1.323-.054V4.76h.594c.195 0 .386.035.578.018v-.193l-1.176-.048Zm3.522.614v-.307a.296.296 0 0 0-.232-.302.6.6 0 0 0-.143-.028q-.447-.036-.893-.068a1 1 0 0 0-.162 0c-.155.016-.236.086-.242.242q-.012.338 0 .675a.26.26 0 0 0 .232.265 2 2 0 0 0 .204.03q.322.026.645.049a3 3 0 0 0 .352.009.227.227 0 0 0 .238-.244c.008-.105.003-.212.003-.32Zm-11.985.424c.279-.033.536-.06.795-.092a4 4 0 0 0 .362-.054.27.27 0 0 0 .224-.225 1.7 1.7 0 0 0 0-.38.215.215 0 0 0-.205-.198.6.6 0 0 0-.158-.007q-.359.035-.717.076-.251.03-.511.065v1.213l.204-.025Zm4.147-1.191-.221.011v.848c0 .249.087.332.339.341h.029c.314-.012.628-.019.942-.038.253-.015.333-.107.335-.365v-.722q-.002-.055-.008-.118h-.204c0 .054-.008.102-.009.15v.707c0 .12-.024.148-.145.154q-.463.025-.926.038c-.109 0-.136-.029-.138-.142s0-.246 0-.368Zm9.84.371L17.49 4.29v.205l.699.078v1.008l.221.03V4.596l.688.072ZM8.977 12.091l-.032-.032-.971.802.013.028.522-.184a.16.16 0 0 0 .067-.054q.205-.278.403-.56Zm-1.897-.408a.52.52 0 0 0-.386.259l.288.334a1 1 0 0 0 .028-.103c.025-.155.046-.309.072-.491Zm1.286-2.617-.014.276c.294-.03.34-.082.262-.287ZM2.97 2.785a53 53 0 0 1 8.066-.777 53 53 0 0 1 9.992.776c0 .037.013.066.014.094.039 1.148.073 2.295.055 3.444a29 29 0 0 1-.263 3.532 17.4 17.4 0 0 1-1.19 4.419 14.75 14.75 0 0 1-5.632 6.65 15 15 0 0 1-1.908 1.053.23.23 0 0 1-.204 0 14.8 14.8 0 0 1-8.11-9.273A18.4 18.4 0 0 1 3.162 9.8a30 30 0 0 1-.26-4.445c.008-.809.036-1.618.055-2.428Zm.37.375v.182q-.014.596-.033 1.192a36 36 0 0 0 .088 4.031 22 22 0 0 0 .391 2.692 15 15 0 0 0 1.396 3.941 14.4 14.4 0 0 0 6.7 6.347.27.27 0 0 0 .249-.006 14.3 14.3 0 0 0 2.055-1.174 14.2 14.2 0 0 0 4.933-5.771 16.6 16.6 0 0 0 1.335-4.681 24.5 24.5 0 0 0 .249-3.389c0-.92-.015-1.84-.026-2.768 0-.195-.016-.39-.024-.597a50.3 50.3 0 0 0-17.313 0Z"/></svg>