<svg xmlns="http://www.w3.org/2000/svg" viewBox="0 0 24 24"><path fill="#44739e" d="M21.335 13.71s-.277-.092-.739-.092c-.832-.832-2.773-1.664-5.084-2.126l.74-3.605c0-1.294-2.126-1.849-4.252-1.849s-4.252.647-4.252 1.849l.74 3.605c-2.311.462-4.252 1.294-5.084 2.218-.462-.092-.739 0-.739 0-.462.092-.74.555-.647.924s.369.647.832.647h.184s.093 0 .37-.092c1.479 1.479 6.747 2.773 8.688 2.773 2.034 0 7.21-1.294 8.689-2.773.185 0 .277.092.277.092.462.093.832-.185.924-.647.093-.369-.185-.832-.647-.924M12 11.954c2.68 0 4.991.647 6.47 1.386-1.479-.092-3.512-.277-6.285-.277-2.958 0-5.269.092-6.84.277 1.479-.739 3.882-1.386 6.655-1.386m0 5.083c-2.218 0-5.823-1.201-7.394-1.941 1.479-.184 3.974-.369 7.579-.369 3.512 0 5.823.185 7.209.369-1.571.74-5.176 1.941-7.394 1.941"/></svg>