<?xml version="1.0" encoding="iso-8859-1"?>
<!DOCTYPE svg PUBLIC "-//W3C//DTD SVG 1.1//EN" "http://www.w3.org/Graphics/SVG/1.1/DTD/svg11.dtd">
<svg fill="#000000" version="1.1" id="Capa_1" xmlns="http://www.w3.org/2000/svg" xmlns:xlink="http://www.w3.org/1999/xlink" 
	 width="800px" height="800px" viewBox="0 0 300.33 300.33"
	 xml:space="preserve">
<g>
	<path d="M207.865,150.283c-19.993-7.997-37.734-43.104-47.182-67.549C141.985,34.321,123.77,5.021,71.174,6.271
		C3.959,7.857,0,70.323,0,70.323v208.073c0,8.669,7.037,15.701,15.701,15.701H278.46c8.66,0,17.264-6.86,18.61-15.424
		c5.49-34.969,11.718-117.474-51.154-120.624C230.122,157.244,217.619,154.195,207.865,150.283z M279.906,279.07H12.649v-58.509
		h15.417v42.892h16.607v-42.892h13.633v42.892h16.607v-42.892h13.633v42.892h16.603v-42.892h13.638v42.892h16.603v-42.892h13.646
		v42.892h16.604v-42.892h13.634v42.892h16.603v-42.892h13.642v42.892h16.594v-42.892h13.642v42.892h16.611v-42.892h23.52v58.509
		H279.906z"/>
</g>
</svg>