<?xml version="1.0" encoding="utf-8"?>
<!-- Generator: Adobe Illustrator 27.7.0, SVG Export Plug-In . SVG Version: 6.00 Build 0)  -->
<svg version="1.1" id="Layer_1" xmlns="http://www.w3.org/2000/svg" xmlns:xlink="http://www.w3.org/1999/xlink" x="0px" y="0px"
	 viewBox="0 0 32 32" style="enable-background:new 0 0 32 32;" xml:space="preserve">
<path d="M22.1,16c-1.1-0.4-2-1.6-2.9-2.9s-1.6-2.9-2.1-4.2c-1-2.5-2-4.6-3.4-6s-3.3-2.1-6-2.1C4.2,1,2.3,2.6,1.3,4.3
	S0.2,7.6,0.2,7.6v10.9v10.9c0,0.5,0.2,0.9,0.5,1.2s0.7,0.5,1.2,0.5h13.8h13.8c0.5,0,0.9-0.2,1.3-0.5s0.6-0.7,0.7-1.1
	c0.3-1.8,0.6-4.9,0-7.6c-0.6-2.7-2.1-4.9-5.4-5.1c-0.8,0-1.6-0.1-2.2-0.3C23.2,16.4,22.6,16.2,22.1,16z M11.3,23.4v2.3v2.3h0.9H13
	v-2.3v-2.3h0.7h0.7v2.3v2.3h0.9h0.9v-2.3v-2.3h0.7h0.7v2.3v2.3h0.9h0.9v-2.3v-2.3h2.2h0.7v2.3v2.3h0.9H24v-2.3v-2.3h0.7h0.7v2.3v2.3
	h0.9h0.9v-2.3v-2.3h1.2h1.2v3.1v3.1h0h0h-14h-14v-3.1v-3.1h0.8h0.8v2.3v2.3H4h0.9v-2.3v-2.3h0.7h0.7v2.3v2.3h0.9h0.9v-2.3v-2.3"/>
</svg>
