<?xml version="1.0" encoding="utf-8"?>
<!-- Generator: Adobe Illustrator 27.7.0, SVG Export Plug-In . SVG Version: 6.00 Build 0)  -->
<svg version="1.1" id="Layer_1" xmlns="http://www.w3.org/2000/svg" xmlns:xlink="http://www.w3.org/1999/xlink" x="0px" y="0px"
	 viewBox="0 0 32 32" style="enable-background:new 0 0 32 32;" xml:space="preserve">
<path d="M21.4,15.9c-0.9-0.4-1.8-1.4-2.6-2.7c-0.8-1.2-1.4-2.7-1.8-3.8c-0.9-2.3-1.7-4.2-3-5.5S11.1,1.9,8.6,2
	C5.5,2.1,3.8,3.6,3,5.1s-1,3-1,3v10v10c0,0.4,0.2,0.8,0.4,1.1s0.6,0.4,1,0.4h12.2H28c0.4,0,0.8-0.2,1.1-0.4c0.3-0.3,0.5-0.6,0.6-1.1
	c0.3-1.7,0.5-4.5,0-7c-0.5-2.4-1.8-4.5-4.8-4.7c-0.7,0-1.4-0.1-2-0.3C22.4,16.2,21.8,16.1,21.4,15.9z M11.8,22.6v2.1v2.1h0.8h0.8
	v-2.1v-2.1H14h0.6v2.1v2.1h0.8h0.8v-2.1v-2.1h0.6h0.6v2.1v2.1h0.8H19v-2.1v-2.1h1.9h0.6v2.1v2.1h0.8h0.8v-2.1v-2.1h0.6h0.6v2.1v2.1
	h0.8h0.8v-2.1v-2.1H27h1.1v2.8v2.8h0h0H15.6H3.2v-2.8v-2.8h0.7h0.7v2.1v2.1h0.8h0.8v-2.1v-2.1h0.6h0.6v2.1v2.1h0.8H9v-2.1v-2.1"/>
</svg>
