<?xml version="1.0" encoding="utf-8"?>
<!-- Generator: Adobe Illustrator 27.9.0, SVG Export Plug-In . SVG Version: 6.00 Build 0)  -->
<svg version="1.1" id="Layer_1" xmlns="http://www.w3.org/2000/svg" xmlns:xlink="http://www.w3.org/1999/xlink" x="0px" y="0px"
	 viewBox="0 0 24 24" style="enable-background:new 0 0 24 24;" xml:space="preserve">
<path style="fill:#44739e" d="M15.8,12.1c-0.6-0.3-1.3-1-1.8-1.9c-0.6-0.8-1-1.9-1.3-2.7c-0.6-1.6-1.2-3-2.1-3.9c-0.9-0.9-2-1.4-3.8-1.3
	c-2.2,0.1-3.4,1.1-4,2.2S2.1,6.6,2.1,6.6v7.1v7.1c0,0.3,0.1,0.6,0.3,0.8c0.1,0.2,0.4,0.3,0.7,0.3h8.6h8.7c0.3,0,0.6-0.1,0.8-0.3
	c0.2-0.2,0.4-0.4,0.4-0.8c0.2-1.2,0.4-3.2,0-4.9c-0.4-1.7-1.3-3.2-3.4-3.3c-0.5,0-1-0.1-1.4-0.2C16.5,12.3,16.1,12.2,15.8,12.1z
	 M9,16.8v1.5v1.5h0.6h0.6v-1.5v-1.5h0.4H11v1.5v1.5h0.6h0.6v-1.5v-1.5h0.4H13v1.5v1.5h0.6h0.6v-1.5v-1.5h1.3h0.4v1.5v1.5h0.6H17
	v-1.5v-1.5h0.4h0.4v1.5v1.5h0.6H19v-1.5v-1.5h0.8h0.8v2v2l0,0l0,0h-8.8H3v-2v-2h0.5H4v1.5v1.5h0.6h0.6v-1.5v-1.5h0.4h0.4v1.5v1.5
	h0.6h0.6v-1.5v-1.5"/>
</svg>
