<?xml version="1.0" encoding="UTF-8"?>
<svg width="24px" fill="#44739e" height="24px" viewBox="0 0 24 24" version="1.1" xmlns="http://www.w3.org/2000/svg" xmlns:xlink="http://www.w3.org/1999/xlink">
            <path d="M19.37,14.25V1.66c0-0.27-0.21-0.49-0.48-0.5l-0.67-0.02l-1.1,0.08l-5.43-0.14C11.6,1,11.5,0.95,11.38,0.94l-0.66-0.06 c-0.02,0-0.03,0-0.05,0c-0.02,0-0.04,0-0.06,0L6.13,1.36C5.87,1.38,5.68,1.6,5.68,1.86v12.42c0,0.02,0,0.03,0,0.05v7.38 c0,0.25,0.18,0.46,0.42,0.49l4.5,0.71c0.03,0,0.05,0.01,0.08,0.01c0.02,0,0.03,0,0.05,0l8.2-0.83c0.26-0.03,0.45-0.24,0.45-0.5 v-7.26C19.38,14.3,19.37,14.27,19.37,14.25z M17.63,12.7l-5.71,0.17H11.6V2.02h0.3l5.72,0.17V12.7z"/>

</svg>