<svg xmlns="http://www.w3.org/2000/svg" viewBox="0 0 24 24"><path fill="#44739e" d="M16.054 3.711q0-.013 0 0a.6.6 0 0 0-.07-.228c-.009-.018-.017-.026-.026-.044a.5.5 0 0 0-.184-.14l-.009-.009-3.616-1.264a.4.4 0 0 0-.289 0L8.218 3.299l-.009.009a.44.44 0 0 0-.184.131c-.009.018-.018.026-.027.044a.4.4 0 0 0-.07.219V20.21c0 .184.114.351.29.412l3.642 1.352a.5.5 0 0 0 .149.026q.079 0 .158-.026l3.615-1.352a.43.43 0 0 0 .29-.412V3.711Zm-4.817 1.536v8.776l-2.431-.904V4.343Zm3.94 7.872-2.414.904V5.247l2.414-.904Z"/></svg>