<svg xmlns="http://www.w3.org/2000/svg" viewBox="0 0 24 24"><path fill="#44739e" d="M19.152 8.054c-.456 0-.875.084-1.256.233 0 .065.018.13.018.195v7.864a3.2 3.2 0 0 1 1.229-.251c1.126 0 2.019.54 2.382 1.135-.353.605-1.247 1.136-2.382 1.136-.503 0-.94-.121-1.322-.289a3.4 3.4 0 0 1-.67 1.312c.521.41 1.229.652 1.992.652 1.545 0 2.857-1.005 2.857-2.28v-7.427c.009-1.275-1.247-2.28-2.848-2.28m-5.565-2.28c-.67 0-1.275.149-1.796.409.046.214.074.428.074.652v8.897a3.85 3.85 0 0 1 1.722-.391c1.349 0 2.41.642 2.829 1.359-.428.716-1.489 1.359-2.829 1.359-.67 0-1.275-.159-1.759-.41-.084.568-.326 1.089-.68 1.564.624.521 1.499.837 2.448.837 1.843 0 3.397-1.2 3.397-2.708V8.491c-.009-1.517-1.489-2.717-3.406-2.717m-7.12-2.103C3.954 3.671 2 5.067 2 6.835v10.33c0 1.768 2.047 3.164 4.467 3.164s4.467-1.396 4.467-3.164V6.835c0-1.768-1.954-3.164-4.467-3.164m0 14.332c-1.768 0-3.164-.745-3.722-1.582.558-.838 1.954-1.582 3.722-1.582s3.164.744 3.723 1.582c-.559.837-1.955 1.582-3.723 1.582"/></svg>