<svg xmlns="http://www.w3.org/2000/svg" viewBox="0 0 24 24"><path fill="#44739e" d="M13.428 5.819h3.15v-2.7h-3.15Zm.788-1.919h1.574v1.132h-1.574ZM8.1 5.819h5.164v-2.7H8.1ZM8.882 3.9h3.59v1.132h-3.59Zm1.041 13.669a.9.9 0 1 0-.9-.9.9.9 0 0 0 .9.9m.155-1.494h.077c.01 0 .02.007.032.01s.048.018.074.029l.074.045a.4.4 0 0 1 .07.059q.033.034.065.071c.022.025.035.055.051.083a.4.4 0 0 1 .034.086.3.3 0 0 1 .021.083q-.001.042.006.077a.2.2 0 0 1-.005.064l-.009.049-.012.041-.017-.04c-.01-.025-.012-.027-.017-.043a.3.3 0 0 0-.023-.055l-.028-.061c-.009-.022-.024-.042-.035-.065l-.039-.066q-.023-.032-.044-.066l-.05-.061a.4.4 0 0 0-.052-.057c-.019-.017-.033-.039-.051-.053l-.048-.044a.3.3 0 0 0-.048-.038l-.038-.03-.032-.028Zm2.245 4.411 3.57-1.841a.804.804 0 1 0-.884-1.343l-3.1 2.55a.38.38 0 1 0 .417.634Zm2.977-2.737a.269.269 0 1 1-.077.373.27.27 0 0 1 .077-.373m-9.282.896 3.57 1.841a.38.38 0 0 0 .417-.634L6.9 17.3a.804.804 0 1 0-.883 1.343Zm.217-.819a.269.269 0 1 1 .077.373.27.27 0 0 1-.077-.373M20.308 22 17.535 6.617V2H6.659v4.792L3.692 22ZM6.909 9.626l.48.663a.48.48 0 0 0 .672.107.48.48 0 0 0 .106-.672l-.947-1.3a.4.4 0 0 0-.064-.071l.22-1.125h7.232l.673.048c1.447.036 1.477.325 1.708.949l2.247 12.991H18.7C16.311 7.674 16.837 8.388 15.85 7.957a23.6 23.6 0 0 0-4.484-.3H7.8c.085.066.049.289.049.289.034.01 7.965-.015 8.047.654.077.623 1.563 9.843 2.011 12.618H4.646Zm.537-6.839h9.299v3.649h-9.3Z"/></svg>