<svg xmlns="http://www.w3.org/2000/svg" viewBox="0 0 24 24"><path fill="#44739e" d="M13.798 2c-.351 0-.789.088-1.052.263h-.088l-.088.088h-.088c-.35.175-.964.526-1.14.614-.263.175-.877.702-.877 2.017v3.509C8.886 8.842 7.746 10.246 7.746 12s1.14 3.158 2.719 3.509v3.947s-.088 1.053.965 1.667l1.052.526c.264.176.614.263.878.351h.438c1.316 0 2.456-1.053 2.456-2.281V4.281c0-1.228-1.14-2.281-2.456-2.281m1.579 17.895c0 .789-.702 1.403-1.579 1.403h-.263a.94.94 0 0 1-.614-.263c-.088-.088-.175-.088-.263-.175l-.088-.088-.175-.176s0-.087-.088-.087c0-.088-.088-.176-.088-.263V3.842c0-.088.088-.175.088-.175s0-.088.088-.088c0-.088.087-.088.175-.175 0 0 0-.088.088-.088.088-.088.175-.176.263-.176 0 0 .088 0 .088-.087.175-.088.438-.176.702-.176.877 0 1.578.614 1.578 1.404v15.614Z"/></svg>