<svg xmlns="http://www.w3.org/2000/svg" viewBox="0 0 128 128" fill="#44739e">
	<path d="M0 77.6612H5.5968C5.6724 77.6345 5.7369 77.5542 5.7369 77.4494V69.3392C5.7369 66.7431 7.2033 64.9477 9.3396 64.9477H32.3928C37.5901 64.9477 40.1093 61.7424 40.1093 57.5432 40.1093 53.78 38.0473 50.8358 33.8205 50.2988H-.1036C-.1134 50.32-.1299 50.3366-.1299 50.3633V52.8953C-.1299 53.0235-.0662 53.088.0611 53.088H30.4474C33.0303 53.088 34.242 54.9471 34.242 57.5432 34.242 60.1397 33.0304 61.9988 30.4474 61.9988H6.4063C2.6758 61.9988-.13 65.1727-.13 69.3392V77.4493C-.1303 77.5542-.0853 77.634 0 77.6612ZM65.4889 70.269V57.5433C65.4889 54.9472 66.7005 53.0881 69.2847 53.0881H85.2251C85.3227 53.0881 85.4166 52.9913 85.4166 52.8954V50.3634C85.4166 50.3413 85.4102 50.3197 85.4017 50.2989H65.9113C61.6867 50.8359 59.623 53.7802 59.623 57.5433V70.2686C59.623 72.8647 58.3774 74.7242 55.8276 74.7242H38.9936C38.8981 74.7242 38.8021 74.7883 38.8021 74.9165V77.4489C38.8021 77.5538 38.8666 77.634 38.9422 77.6607H58.0547C63.0363 77.53 65.4889 74.3497 65.4889 70.269ZM85.3232 74.7246H115.9328C116.0266 74.7246 116.0903 74.7887 116.0903 74.8528V77.4493C116.0903 77.5775 116.1879 77.6416 116.2818 77.6416H121.7992C121.8968 77.6416 121.9898 77.5775 121.9898 77.4493V74.9169C121.9898 74.8205 122.0874 74.7246 122.1813 74.7246H127.6647C127.7925 74.7246 127.8562 74.6282 127.8562 74.5327V71.968C127.8562 71.8716 127.7925 71.7757 127.6647 71.7757H122.1813C122.0875 71.7757 121.9898 71.6793 121.9898 71.5834V53.0881C121.9898 51.5788 121.429 50.6177 120.4861 50.2988H118.8898C118.3922 50.4266 117.8514 50.6554 117.2714 51.004L84.303 71.3588C83.0277 72.1599 82.5806 73.057 82.8999 73.7303 83.1546 74.3077 83.8861 74.7246 85.3232 74.7246ZM90.1048 71.327 115.6441 55.5242C115.805 55.396 116.1243 55.4283 116.1243 55.7806V71.5834C116.1243 71.6798 116.0267 71.7757 115.9328 71.7757H90.2628C90.0416 71.7757 89.9435 71.712 89.9138 71.6475 89.8794 71.5193 89.943 71.4229 90.1048 71.327Z"/>
</svg>
