<svg xmlns="http://www.w3.org/2000/svg" viewBox="0 0 24 24"><path fill="#44739e" d="M20.656 13.526c-1.417.7-2.809.18-3.74-.187-.77-.303-13.627-5.605-13.627-5.605s-1.186-.529.109-1c1.597-.581 2.886-.098 4.378.5l12.538 5.035s1.759.556.342 1.257m1.342-.592c-.011-.323-.178-.896-1.129-1.287L7.148 6.138c-.581-.239-1.492-.388-2.376-.388-.455 0-1.108.042-1.631.243-.922.355-1.108.883-1.131 1.2l-.005-.001L2 10.979h.004c.018.305.184.788.972 1.125l14.087 5.794c.528.225 1.226.352 1.958.352.733 0 1.425-.128 1.948-.359.902-.399 1.03-.975 1.027-1.283L22 12.934Z"/></svg>