<svg xmlns="http://www.w3.org/2000/svg" viewBox="0 0 24 24"><path fill="#44739e" d="M20.292 17.265a3.95 3.95 0 0 1-3.586-.224c-.673-.225-13.001-5.154-13.001-5.154s-1.121-.449.223-.897c1.569-.673 2.69 0 4.035.448.897.224 11.88 4.707 11.88 4.707s1.794.447.449 1.12m1.121-.449a1.81 1.81 0 0 0-1.121-1.344L7.291 10.317a5.6 5.6 0 0 0-2.241-.448 3.8 3.8 0 0 0-1.569.224 1.62 1.62 0 0 0-.897 1.345v3.586c0 .224.224.672.897 1.121l13.449 5.379a4.2 4.2 0 0 0 1.792.449 2.4 2.4 0 0 0 1.794-.449 1.05 1.05 0 0 0 .897-1.12Zm-1.121-7.62a3.95 3.95 0 0 1-3.586-.224c-.673-.224-13.001-5.156-13.001-5.156s-1.121-.449.223-.896c1.569-.673 2.69 0 4.035.447.897.449 11.877 4.71 11.877 4.71s1.794.673.449 1.121m1.121-.448c0-.449-.225-.897-1.121-1.345L7.291 2.245a6.2 6.2 0 0 0-2.241-.224 3.8 3.8 0 0 0-1.569.224 1.146 1.146 0 0 0-.897 1.12v3.59c0 .224.224.671.897 1.12l13.449 5.38a4.4 4.4 0 0 0 1.792.224 4.4 4.4 0 0 0 1.794-.224c.897-.448.897-.897.897-1.121Z"/></svg>