<svg xmlns="http://www.w3.org/2000/svg" viewBox="0 0 24 24"><path fill="#44739e" d="m20.04 18.132.258-.515c.344-.774.516-1.633.516-2.235l-.009-10.958c0-1.031-.335-1.246-.679-1.332L16.86 2.061c-.258-.086-.859-.172-1.547.429q-.644.516-1.031 1.548c-.258.687-.43 1.289-.43 1.89v11.001c0 .86.43 1.118.688 1.289-.86.344-1.461.86-1.461 1.376v.515c0 1.032 1.976 1.891 4.297 1.891 2.406 0 4.297-.859 4.297-1.891v-.515c0-.602-.602-1.118-1.633-1.462M17.892 7.389c0-.945-.138-2.32 1.065-3.351 1.092-.963 1.032.61 1.032.61s-.035 8.758-.035 9.703c0 1.547 0 2.922-1.117 4.125-.86 1.032-.945-.258-.945-.258ZM2.327 19.594v.515C2.327 21.141 4.218 22 6.624 22c2.321 0 4.297-.859 4.297-1.891v-.515c0-.516-.601-1.032-1.461-1.376.258-.171.688-.429.688-1.289V5.928c0-.601-.172-1.203-.43-1.89Q9.331 3.006 8.687 2.49c-.688-.601-1.289-.515-1.547-.429L3.874 3.092c-.344.086-.679.301-.679 1.332l-.009 10.958c0 .602.172 1.461.516 2.235l.258.515c-1.031.344-1.633.86-1.633 1.462m3.781-1.376s-.085 1.29-.945.258c-1.117-1.203-1.117-2.578-1.117-4.125 0-.945-.035-9.703-.035-9.703s-.06-1.582 1.032-.61c1.203 1.031 1.065 2.406 1.065 3.351Z"/></svg>