<svg xmlns="http://www.w3.org/2000/svg" viewBox="0 0 24 24"><path fill="#44739e" d="m9.508 18.132.257-.515c.344-.774.516-1.633.516-2.235l-.008-10.958c0-1.031-.336-1.246-.679-1.332L6.328 2.061c-.258-.086-.86-.172-1.547.429q-.645.516-1.032 1.548c-.258.687-.429 1.289-.429 1.89v11.001c0 .86.429 1.118.687 1.289-.859.344-1.461.86-1.461 1.376v.515C2.546 21.141 4.523 22 6.843 22c2.407 0 4.298-.859 4.298-1.891v-.515c0-.602-.602-1.118-1.633-1.462M7.359 7.389c0-.945-.138-2.32 1.066-3.351 1.091-.963 1.031.61 1.031.61s-.034 8.758-.034 9.703c0 1.547 0 2.922-1.118 4.125-.859 1.032-.945-.258-.945-.258Zm12.462 10.743.258-.515c.344-.774.515-1.633.515-2.235l-.008-10.958c0-1.031-.335-1.246-.679-1.332l-3.266-1.031c-.258-.086-.859-.172-1.547.429q-.645.516-1.031 1.548c-.258.687-.43 1.289-.43 1.89v11.001c0 .86.43 1.118.688 1.289-.86.344-1.462.86-1.462 1.376v.515c0 1.032 1.977 1.891 4.298 1.891 2.406 0 4.297-.859 4.297-1.891v-.515c0-.602-.602-1.118-1.633-1.462M17.672 7.389c0-.945-.137-2.32 1.066-3.351 1.092-.963 1.031.61 1.031.61s-.034 8.758-.034 9.703c0 1.547 0 2.922-1.117 4.125-.86 1.032-.946-.258-.946-.258Z"/></svg>