<svg xmlns="http://www.w3.org/2000/svg" viewBox="0 0 24 24"><path fill="#44739e" d="m14.552 18.286.232-.463a4.2 4.2 0 0 0 .465-2.317V4.598c0-1.161-.465-1.392-.697-1.392l-3.248-1.161a1.73 1.73 0 0 0-1.624.469 3.5 3.5 0 0 0-.928 1.392 6.8 6.8 0 0 0-.464 2.088v11.133a1.57 1.57 0 0 0 .696 1.392c-.928.232-1.392.696-1.392 1.16v.465c0 .928 2.088 1.856 4.409 1.856 2.551 0 4.407-.928 4.407-1.856v-.464a2.48 2.48 0 0 0-1.856-1.393M12.464 7.382a4.5 4.5 0 0 1 1.161-3.48c1.159-1.161.927.696.927.696v9.744c0 1.624 0 3.017-1.16 4.177-.928 1.16-.928-.233-.928-.233Z"/></svg>