<?xml version="1.0" encoding="UTF-8"?>
<svg width="33px" height="32px" viewBox="0 0 24 24" version="1.1" xmlns="http://www.w3.org/2000/svg" xmlns:xlink="http://www.w3.org/1999/xlink">
    <!-- Generator: Sketch 51.3 (57544) - http://www.bohemiancoding.com/sketch -->
    <style>path{fill:#000}@media (prefers-color-scheme:dark){path{fill:#fff}}</style>
            <path d="M9.1,19.2c0.1-0.2,0.2-0.4,0.3-0.6C9.8,17.7,10,16.7,10,16L9.99,3.25c0-1.2-0.39-1.45-0.79-1.55l0,0L5.4,0.5 C5.1,0.4,4.4,0.3,3.6,1C3.1,1.4,2.7,2,2.4,2.8C2.1,3.6,1.9,4.3,1.9,5v12.8c0,1,0.5,1.3,0.8,1.5c-1,0.4-1.7,1-1.7,1.6v0.6 c0,1.2,2.3,2.2,5,2.2c2.8,0,5-1,5-2.2v-0.6C11,20.2,10.3,19.6,9.1,19.2z M6.6,6.7c0-1.1-0.16-2.7,1.24-3.9 c1.27-1.12,1.2,0.71,1.2,0.71S9,13.7,9,14.8c0,1.8,0,3.4-1.3,4.8c-1,1.2-1.1-0.3-1.1-0.3S6.6,7.7,6.6,6.7z M21.1,19.2c0.1-0.2,0.2-0.4,0.3-0.6c0.4-0.9,0.6-1.9,0.6-2.6L21.99,3.25c0-1.2-0.39-1.45-0.79-1.55l0,0l-3.8-1.2 c-0.3-0.1-1-0.2-1.8,0.5c-0.5,0.4-0.9,1-1.2,1.8c-0.3,0.8-0.5,1.5-0.5,2.2v12.8c0,1,0.5,1.3,0.8,1.5c-1,0.4-1.7,1-1.7,1.6v0.6 c0,1.2,2.3,2.2,5,2.2c2.8,0,5-1,5-2.2v-0.6C23,20.2,22.3,19.6,21.1,19.2z M18.6,6.7c0-1.1-0.16-2.7,1.24-3.9 c1.27-1.12,1.2,0.71,1.2,0.71S21,13.7,21,14.8c0,1.8,0,3.4-1.3,4.8c-1,1.2-1.1-0.3-1.1-0.3S18.6,7.7,18.6,6.7z"/>

</svg>