<?xml version="1.0" encoding="UTF-8"?>
<svg width="33px" height="32px" viewBox="0 0 24 24" version="1.1" fill="#44739e" xmlns="http://www.w3.org/2000/svg" xmlns:xlink="http://www.w3.org/1999/xlink">
            <path d="M21.37,19.2c0.1-0.2,0.2-0.4,0.3-0.6c0.4-0.9,0.6-1.9,0.6-2.6L22.26,3.25c0-1.2-0.39-1.45-0.79-1.55l0,0 l-3.8-1.2c-0.3-0.1-1-0.2-1.8,0.5c-0.5,0.4-0.9,1-1.2,1.8c-0.3,0.8-0.5,1.5-0.5,2.2v12.8c0,1,0.5,1.3,0.8,1.5c-1,0.4-1.7,1-1.7,1.6 v0.6c0,1.2,2.3,2.2,5,2.2c2.8,0,5-1,5-2.2v-0.6C23.27,20.2,22.57,19.6,21.37,19.2z M18.87,6.7c0-1.1-0.16-2.7,1.24-3.9 c1.27-1.12,1.2,0.71,1.2,0.71S21.27,13.7,21.27,14.8c0,1.8,0,3.4-1.3,4.8c-1,1.2-1.1-0.3-1.1-0.3S18.87,7.7,18.87,6.7z M0.76,20.9v0.6c0,1.2,2.2,2.2,5,2.2c2.7,0,5-1,5-2.2v-0.6c0-0.6-0.7-1.2-1.7-1.6c0.3-0.2,0.8-0.5,0.8-1.5V5 c0-0.7-0.2-1.4-0.5-2.2C9.06,2,8.66,1.4,8.16,1c-0.8-0.7-1.5-0.6-1.8-0.5l-3.8,1.2l0,0c-0.4,0.1-0.79,0.35-0.79,1.55L1.76,16 c0,0.7,0.2,1.7,0.6,2.6c0.1,0.2,0.2,0.4,0.3,0.6C1.46,19.6,0.76,20.2,0.76,20.9z M5.16,19.3c0,0-0.1,1.5-1.1,0.3 c-1.3-1.4-1.3-3-1.3-4.8c0-1.1-0.04-11.29-0.04-11.29S2.65,1.67,3.92,2.8C5.32,4,5.16,5.6,5.16,6.7C5.16,7.7,5.16,19.3,5.16,19.3z"/>

</svg>