<svg xmlns="http://www.w3.org/2000/svg" viewBox="0 0 512 512">
  <path fill="#44739e" fill-rule="evenodd" d="M 0.00 0.00 L 512.00 0.00 L 512.00 512.00 L 0.00 512.00 Z M 233.82 42.41 L 233.00 42.82 L 232.15 43.18 L 231.26 43.49 L 230.33 43.76 L 229.37 43.99 L 228.38 44.17 L 227.35 44.30 L 226.29 44.39 L 225.19 44.44 L 224.11 44.52 L 223.06 44.63 L 222.03 44.79 L 221.02 44.98 L 220.04 45.21 L 219.07 45.47 L 218.13 45.77 L 217.21 46.11 L 216.29 46.46 L 215.38 46.82 L 214.47 47.19 L 213.55 47.58 L 212.64 47.98 L 211.74 48.39 L 210.83 48.82 L 209.92 49.26 L 209.02 49.69 L 208.11 50.11 L 207.21 50.53 L 206.30 50.94 L 205.39 51.35 L 204.48 51.74 L 203.58 52.13 L 202.67 52.52 L 201.76 52.91 L 200.85 53.30 L 199.95 53.70 L 199.04 54.11 L 198.14 54.52 L 197.24 54.93 L 196.33 55.35 L 195.43 55.77 L 194.53 56.19 L 193.63 56.61 L 192.73 57.02 L 191.82 57.43 L 190.92 57.83 L 190.01 58.23 L 189.11 58.63 L 188.21 59.02 L 187.31 59.44 L 186.42 59.89 L 185.54 60.36 L 184.67 60.86 L 183.81 61.38 L 182.96 61.93 L 182.11 62.51 L 181.27 63.11 L 180.44 63.71 L 179.60 64.32 L 178.77 64.92 L 177.93 65.53 L 177.10 66.14 L 176.26 66.74 L 175.43 67.35 L 174.59 67.96 L 173.76 68.58 L 172.93 69.20 L 172.11 69.82 L 171.28 70.45 L 170.46 71.08 L 169.65 71.71 L 168.83 72.35 L 168.02 73.00 L 167.21 73.66 L 166.40 74.33 L 165.60 75.02 L 164.80 75.73 L 164.01 76.45 L 163.22 77.19 L 162.44 77.95 L 161.65 78.72 L 160.87 79.49 L 160.09 80.27 L 159.31 81.04 L 158.53 81.81 L 157.76 82.59 L 156.98 83.36 L 156.20 84.13 L 155.43 84.91 L 154.65 85.68 L 153.87 86.45 L 153.09 87.22 L 152.31 87.98 L 151.53 88.75 L 150.75 89.51 L 149.97 90.27 L 149.18 91.03 L 148.44 91.80 L 147.73 92.59 L 147.07 93.40 L 146.45 94.23 L 145.87 95.08 L 145.32 95.94 L 144.82 96.82 L 144.36 97.72 L 143.90 98.62 L 143.44 99.52 L 142.98 100.42 L 142.52 101.31 L 142.06 102.21 L 141.60 103.10 L 141.14 104.00 L 140.67 104.89 L 140.21 105.78 L 139.74 106.66 L 139.28 107.55 L 138.81 108.43 L 138.33 109.31 L 137.86 110.19 L 137.38 111.07 L 136.90 111.94 L 136.43 112.82 L 135.95 113.69 L 135.47 114.56 L 134.99 115.42 L 134.50 116.29 L 134.02 117.16 L 133.54 118.02 L 133.06 118.88 L 132.61 119.76 L 132.20 120.66 L 131.83 121.57 L 131.50 122.50 L 131.20 123.45 L 130.95 124.42 L 130.73 125.41 L 130.54 126.41 L 130.33 127.40 L 130.10 128.38 L 129.84 129.34 L 129.55 130.30 L 129.23 131.24 L 128.89 132.17 L 128.52 133.09 L 128.13 133.99 L 127.73 134.90 L 127.32 135.81 L 126.91 136.71 L 126.50 137.62 L 126.08 138.52 L 125.65 139.43 L 125.22 140.33 L 124.79 141.23 L 124.40 142.16 L 124.07 143.12 L 123.79 144.09 L 123.56 145.09 L 123.38 146.12 L 123.26 147.17 L 123.18 148.24 L 123.16 149.34 L 123.09 150.40 L 122.99 151.44 L 122.84 152.44 L 122.65 153.42 L 122.41 154.36 L 122.14 155.27 L 121.82 156.15 L 121.46 157.00 L 121.15 157.88 L 120.88 158.80 L 120.66 159.76 L 120.48 160.75 L 120.34 161.78 L 120.26 162.84 L 120.21 163.94 L 120.21 165.07 L 120.21 166.21 L 120.21 167.34 L 120.21 168.48 L 120.21 169.61 L 120.21 170.75 L 120.21 171.88 L 120.21 173.02 L 120.21 174.15 L 120.21 175.29 L 120.21 176.42 L 120.21 177.56 L 120.21 178.69 L 120.21 179.83 L 120.21 180.96 L 120.21 182.10 L 120.21 183.23 L 120.21 184.37 L 120.21 185.50 L 120.21 186.64 L 120.21 187.77 L 120.21 188.91 L 120.21 190.04 L 120.21 191.18 L 120.21 192.31 L 120.21 193.45 L 120.21 194.58 L 120.21 195.72 L 120.21 196.85 L 120.21 197.99 L 120.21 199.12 L 120.21 200.26 L 120.21 201.39 L 120.21 202.53 L 120.21 203.66 L 120.21 204.80 L 120.21 205.93 L 120.21 207.07 L 120.21 208.20 L 120.21 209.34 L 120.21 210.47 L 120.21 211.61 L 120.21 212.75 L 120.21 213.88 L 120.21 215.02 L 120.21 216.15 L 120.21 217.29 L 120.21 218.42 L 120.21 219.56 L 120.21 220.69 L 120.21 221.83 L 120.21 222.96 L 120.21 224.10 L 120.21 225.23 L 120.21 226.37 L 120.21 227.50 L 120.21 228.64 L 120.21 229.77 L 120.21 230.91 L 120.21 232.04 L 120.21 233.18 L 120.21 234.31 L 120.21 235.45 L 120.21 236.58 L 120.21 237.72 L 120.21 238.85 L 120.21 239.99 L 120.21 241.12 L 120.21 242.26 L 120.21 243.39 L 120.21 244.53 L 120.21 245.66 L 120.21 246.80 L 120.21 247.93 L 120.21 249.07 L 120.21 250.20 L 120.21 251.34 L 120.21 252.47 L 120.21 253.61 L 120.21 254.74 L 120.21 255.88 L 120.21 257.01 L 120.21 258.15 L 120.21 259.28 L 120.21 260.42 L 120.21 261.55 L 120.21 262.69 L 120.21 263.82 L 120.21 264.96 L 120.21 266.09 L 120.21 267.23 L 120.21 268.36 L 120.21 269.50 L 120.21 270.63 L 120.21 271.77 L 120.21 272.90 L 120.21 274.04 L 120.21 275.17 L 120.21 276.31 L 120.21 277.44 L 120.21 278.58 L 120.21 279.71 L 120.21 280.85 L 120.21 281.98 L 120.21 283.12 L 120.21 284.25 L 120.21 285.39 L 120.21 286.52 L 120.21 287.66 L 120.21 288.79 L 120.21 289.93 L 120.21 291.06 L 120.21 292.20 L 120.21 293.33 L 120.21 294.47 L 120.21 295.60 L 120.21 296.74 L 120.21 297.87 L 120.21 299.01 L 120.21 300.14 L 120.21 301.28 L 120.21 302.41 L 120.21 303.55 L 120.21 304.68 L 120.21 305.82 L 120.21 306.95 L 120.21 308.09 L 120.21 309.22 L 120.21 310.36 L 120.21 311.49 L 120.21 312.63 L 120.21 313.76 L 120.21 314.90 L 120.21 316.03 L 120.21 317.17 L 120.21 318.30 L 120.21 319.44 L 120.21 320.57 L 120.21 321.71 L 120.21 322.84 L 120.21 323.98 L 120.21 325.11 L 120.21 326.25 L 120.21 327.38 L 120.21 328.52 L 120.21 329.65 L 120.21 330.79 L 120.21 331.92 L 120.21 333.06 L 120.21 334.19 L 120.21 335.33 L 120.21 336.46 L 120.21 337.60 L 120.21 338.73 L 120.21 339.87 L 120.21 341.00 L 120.21 342.14 L 120.21 343.27 L 120.21 344.41 L 120.21 345.54 L 120.21 346.68 L 120.21 347.81 L 120.21 348.95 L 120.21 350.08 L 120.21 351.22 L 120.21 352.35 L 120.21 353.49 L 120.21 354.62 L 120.21 355.76 L 120.21 356.89 L 120.21 358.03 L 120.21 359.16 L 120.21 360.30 L 120.21 361.43 L 120.21 362.57 L 120.21 363.70 L 120.21 364.84 L 120.21 365.97 L 120.21 367.11 L 120.21 368.24 L 120.21 369.38 L 120.21 370.51 L 120.21 371.65 L 120.21 372.78 L 120.21 373.92 L 120.21 375.05 L 120.21 376.19 L 120.21 377.32 L 120.21 378.46 L 120.21 379.59 L 120.21 380.73 L 120.21 381.86 L 120.21 383.00 L 120.21 384.13 L 120.21 385.27 L 120.21 386.40 L 120.21 387.54 L 120.21 388.67 L 120.21 389.81 L 120.21 390.94 L 120.21 392.08 L 120.21 393.21 L 120.21 394.35 L 120.21 395.48 L 120.21 396.62 L 120.21 397.75 L 120.21 398.89 L 120.21 400.02 L 120.21 401.16 L 120.21 402.29 L 120.21 403.43 L 120.21 404.56 L 120.21 405.70 L 120.21 406.83 L 120.21 407.97 L 120.21 409.10 L 120.21 410.24 L 120.21 411.38 L 120.21 412.51 L 120.21 413.65 L 120.21 414.78 L 120.21 415.92 L 120.21 417.05 L 120.21 418.19 L 120.21 419.32 L 120.21 420.46 L 120.21 421.59 L 120.21 422.73 L 120.21 423.86 L 120.21 425.00 L 120.21 426.13 L 120.21 427.27 L 120.21 428.40 L 120.21 429.54 L 120.21 430.67 L 120.21 431.81 L 120.21 432.94 L 120.21 434.08 L 120.21 435.21 L 120.21 436.35 L 120.21 437.48 L 120.21 438.62 L 120.21 439.75 L 120.21 440.89 L 120.21 442.02 L 120.21 443.16 L 120.21 444.29 L 120.21 445.43 L 120.21 446.56 L 120.21 447.70 L 120.21 448.83 L 120.21 449.97 L 120.21 451.10 L 120.21 452.24 L 120.21 453.37 L 120.21 454.51 L 120.21 455.64 L 120.21 456.78 L 120.21 457.91 L 120.21 459.05 L 120.21 460.18 L 120.21 461.32 L 120.21 462.45 L 120.21 463.59 L 120.21 464.72 L 120.32 465.75 L 120.53 466.67 L 120.85 467.48 L 121.28 468.19 L 121.82 468.79 L 122.46 469.28 L 123.21 469.66 L 124.07 469.94 L 124.96 470.18 L 125.89 470.39 L 126.85 470.56 L 127.85 470.70 L 128.88 470.81 L 129.95 470.88 L 131.05 470.91 L 132.18 470.91 L 133.32 470.91 L 134.45 470.91 L 135.59 470.91 L 136.72 470.91 L 137.86 470.91 L 138.99 470.91 L 140.13 470.91 L 141.26 470.91 L 142.40 470.91 L 143.53 470.91 L 144.67 470.91 L 145.80 470.91 L 146.94 470.91 L 148.07 470.91 L 149.21 470.91 L 150.34 470.91 L 151.48 470.91 L 152.61 470.91 L 153.75 470.91 L 154.88 470.91 L 156.02 470.91 L 157.15 470.91 L 158.29 470.91 L 159.42 470.91 L 160.45 470.80 L 161.36 470.58 L 162.16 470.25 L 162.85 469.80 L 163.44 469.25 L 163.91 468.58 L 164.27 467.81 L 164.51 466.92 L 164.73 466.00 L 164.92 465.05 L 165.07 464.08 L 165.20 463.06 L 165.29 462.02 L 165.35 460.95 L 165.38 459.85 L 165.38 458.71 L 165.38 457.58 L 165.38 456.44 L 165.38 455.31 L 165.38 454.17 L 165.38 453.04 L 165.38 451.90 L 165.38 450.77 L 165.38 449.63 L 165.38 448.50 L 165.38 447.36 L 165.38 446.23 L 165.38 445.09 L 165.38 443.96 L 165.38 442.82 L 165.38 441.69 L 165.38 440.55 L 165.38 439.42 L 165.38 438.28 L 165.38 437.15 L 165.38 436.01 L 165.38 434.88 L 165.38 433.74 L 165.38 432.61 L 165.38 431.47 L 165.38 430.34 L 165.38 429.20 L 165.38 428.07 L 165.38 426.93 L 165.38 425.79 L 165.38 424.66 L 165.38 423.52 L 165.38 422.39 L 165.38 421.25 L 165.38 420.12 L 165.38 418.98 L 165.38 417.85 L 165.38 416.71 L 165.38 415.58 L 165.38 414.44 L 165.38 413.31 L 165.38 412.17 L 165.38 411.04 L 165.38 409.90 L 165.38 408.77 L 165.38 407.63 L 165.38 406.50 L 165.38 405.36 L 165.38 404.23 L 165.38 403.09 L 165.38 401.96 L 165.38 400.82 L 165.38 399.69 L 165.38 398.55 L 165.38 397.42 L 165.38 396.28 L 165.38 395.15 L 165.38 394.01 L 165.38 392.88 L 165.38 391.74 L 165.38 390.61 L 165.38 389.47 L 165.38 388.34 L 165.38 387.20 L 165.38 386.07 L 165.38 384.93 L 165.38 383.80 L 165.38 382.66 L 165.38 381.53 L 165.38 380.39 L 165.38 379.26 L 165.38 378.12 L 165.38 376.99 L 165.38 375.85 L 165.38 374.72 L 165.38 373.58 L 165.38 372.45 L 165.38 371.31 L 165.38 370.18 L 165.38 369.04 L 165.38 367.91 L 165.38 366.77 L 165.38 365.64 L 165.38 364.50 L 165.38 363.37 L 165.38 362.23 L 165.38 361.10 L 165.38 359.96 L 165.38 358.83 L 165.38 357.69 L 165.38 356.56 L 165.38 355.42 L 165.38 354.29 L 165.38 353.15 L 165.38 352.02 L 165.38 350.88 L 165.38 349.75 L 165.38 348.61 L 165.38 347.48 L 165.38 346.34 L 165.38 345.21 L 165.38 344.07 L 165.38 342.94 L 165.38 341.80 L 165.38 340.67 L 165.38 339.53 L 165.38 338.40 L 165.38 337.26 L 165.38 336.13 L 165.38 334.99 L 165.38 333.86 L 165.38 332.72 L 165.38 331.59 L 165.38 330.45 L 165.38 329.32 L 165.37 328.19 L 165.36 327.06 L 165.34 325.93 L 165.32 324.80 L 165.31 323.67 L 165.28 322.55 L 165.35 321.47 L 165.50 320.43 L 165.75 319.43 L 166.08 318.48 L 166.50 317.58 L 167.01 316.71 L 167.61 315.89 L 168.30 315.12 L 169.04 314.44 L 169.84 313.86 L 170.69 313.38 L 171.59 313.00 L 172.55 312.71 L 173.56 312.53 L 174.63 312.44 L 175.75 312.45 L 176.87 312.46 L 178.00 312.47 L 179.12 312.48 L 180.25 312.48 L 181.38 312.48 L 182.51 312.49 L 183.65 312.49 L 184.78 312.49 L 185.92 312.49 L 187.05 312.49 L 188.19 312.49 L 189.32 312.49 L 190.46 312.49 L 191.59 312.49 L 192.73 312.49 L 193.86 312.49 L 195.00 312.49 L 196.13 312.49 L 197.27 312.49 L 198.40 312.49 L 199.54 312.49 L 200.67 312.49 L 201.81 312.49 L 202.94 312.49 L 204.08 312.49 L 205.21 312.49 L 206.35 312.49 L 207.48 312.49 L 208.62 312.49 L 209.75 312.49 L 210.89 312.49 L 212.02 312.49 L 213.16 312.49 L 214.29 312.49 L 215.43 312.49 L 216.56 312.49 L 217.70 312.49 L 218.83 312.49 L 219.97 312.49 L 221.10 312.49 L 222.24 312.49 L 223.37 312.49 L 224.51 312.49 L 225.64 312.49 L 226.78 312.49 L 227.91 312.49 L 229.05 312.49 L 230.18 312.49 L 231.32 312.49 L 232.45 312.49 L 233.59 312.49 L 234.72 312.49 L 235.86 312.49 L 236.99 312.49 L 238.13 312.49 L 239.26 312.49 L 240.40 312.49 L 241.53 312.49 L 242.67 312.49 L 243.80 312.49 L 244.94 312.49 L 246.07 312.49 L 247.21 312.49 L 248.34 312.49 L 249.48 312.49 L 250.61 312.49 L 251.75 312.49 L 252.88 312.49 L 254.02 312.49 L 255.15 312.49 L 256.29 312.49 L 257.42 312.49 L 258.56 312.49 L 259.69 312.49 L 260.83 312.49 L 261.96 312.49 L 263.10 312.49 L 264.23 312.49 L 265.37 312.49 L 266.50 312.49 L 267.64 312.49 L 268.77 312.50 L 269.90 312.51 L 271.03 312.52 L 272.16 312.53 L 273.29 312.55 L 274.42 312.57 L 275.54 312.59 L 276.64 312.56 L 277.71 312.47 L 278.75 312.32 L 279.76 312.12 L 280.75 311.86 L 281.70 311.55 L 282.63 311.18 L 283.53 310.75 L 284.45 310.35 L 285.37 309.98 L 286.31 309.64 L 287.27 309.32 L 288.23 309.03 L 289.21 308.77 L 290.20 308.54 L 291.21 308.34 L 292.21 308.13 L 293.22 307.93 L 294.22 307.73 L 295.23 307.53 L 296.23 307.33 L 297.24 307.13 L 298.24 306.94 L 299.24 306.74 L 300.23 306.51 L 301.21 306.25 L 302.17 305.96 L 303.12 305.64 L 304.05 305.28 L 304.97 304.89 L 305.87 304.47 L 306.76 304.02 L 307.65 303.57 L 308.53 303.11 L 309.42 302.65 L 310.30 302.19 L 311.18 301.73 L 312.06 301.26 L 312.94 300.79 L 313.81 300.32 L 314.69 299.85 L 315.56 299.37 L 316.43 298.90 L 317.30 298.42 L 318.17 297.94 L 319.04 297.46 L 319.90 296.98 L 320.77 296.50 L 321.63 296.02 L 322.49 295.54 L 323.36 295.05 L 324.22 294.57 L 325.09 294.09 L 325.95 293.61 L 326.81 293.12 L 327.68 292.64 L 328.54 292.15 L 329.41 291.66 L 330.27 291.16 L 331.14 290.65 L 332.01 290.14 L 332.88 289.62 L 333.75 289.10 L 334.62 288.57 L 335.48 288.02 L 336.33 287.44 L 337.17 286.84 L 337.99 286.21 L 338.81 285.56 L 339.62 284.89 L 340.41 284.19 L 341.19 283.47 L 341.98 282.74 L 342.76 282.01 L 343.54 281.27 L 344.32 280.52 L 345.10 279.77 L 345.87 279.01 L 346.65 278.24 L 347.42 277.46 L 348.20 276.69 L 348.98 275.92 L 349.75 275.14 L 350.53 274.37 L 351.31 273.60 L 352.09 272.82 L 352.87 272.05 L 353.66 271.28 L 354.44 270.51 L 355.22 269.74 L 356.01 268.97 L 356.79 268.20 L 357.57 267.42 L 358.35 266.65 L 359.14 265.88 L 359.92 265.11 L 360.66 264.32 L 361.36 263.52 L 362.02 262.70 L 362.64 261.87 L 363.22 261.02 L 363.76 260.16 L 364.26 259.28 L 364.71 258.39 L 365.21 257.51 L 365.74 256.65 L 366.31 255.80 L 366.92 254.97 L 367.56 254.16 L 368.25 253.37 L 368.97 252.59 L 369.73 251.83 L 370.45 251.05 L 371.12 250.25 L 371.74 249.44 L 372.33 248.60 L 372.86 247.75 L 373.36 246.87 L 373.81 245.98 L 374.21 245.07 L 374.61 244.16 L 375.01 243.26 L 375.41 242.35 L 375.81 241.44 L 376.21 240.53 L 376.60 239.63 L 377.00 238.72 L 377.39 237.82 L 377.79 236.91 L 378.18 236.01 L 378.57 235.10 L 378.96 234.20 L 379.36 233.29 L 379.75 232.39 L 380.14 231.48 L 380.54 230.58 L 380.93 229.67 L 381.33 228.77 L 381.73 227.86 L 382.14 226.96 L 382.54 226.05 L 382.95 225.15 L 383.36 224.24 L 383.78 223.34 L 384.20 222.44 L 384.61 221.53 L 385.03 220.63 L 385.46 219.73 L 385.88 218.82 L 386.30 217.92 L 386.73 217.02 L 387.15 216.12 L 387.52 215.19 L 387.84 214.24 L 388.10 213.25 L 388.30 212.24 L 388.44 211.20 L 388.53 210.13 L 388.57 209.03 L 388.55 207.90 L 388.58 206.82 L 388.66 205.77 L 388.80 204.76 L 388.99 203.78 L 389.23 202.85 L 389.53 201.95 L 389.88 201.09 L 390.29 200.27 L 390.64 199.41 L 390.94 198.51 L 391.19 197.58 L 391.40 196.60 L 391.55 195.58 L 391.65 194.53 L 391.70 193.43 L 391.70 192.29 L 391.70 191.16 L 391.70 190.02 L 391.70 188.89 L 391.70 187.75 L 391.70 186.62 L 391.70 185.48 L 391.70 184.35 L 391.70 183.21 L 391.70 182.08 L 391.70 180.94 L 391.70 179.81 L 391.70 178.67 L 391.70 177.54 L 391.70 176.40 L 391.70 175.27 L 391.70 174.13 L 391.70 173.00 L 391.70 171.86 L 391.70 170.73 L 391.70 169.59 L 391.70 168.46 L 391.70 167.32 L 391.70 166.19 L 391.70 165.05 L 391.70 163.92 L 391.70 162.78 L 391.70 161.65 L 391.70 160.51 L 391.70 159.38 L 391.70 158.24 L 391.70 157.11 L 391.70 155.97 L 391.70 154.84 L 391.70 153.70 L 391.70 152.57 L 391.70 151.43 L 391.70 150.30 L 391.70 149.16 L 391.70 148.03 L 391.70 146.89 L 391.70 145.76 L 391.70 144.62 L 391.70 143.49 L 391.70 142.35 L 391.70 141.22 L 391.70 140.08 L 391.70 138.95 L 391.70 137.81 L 391.70 136.68 L 391.70 135.54 L 391.70 134.41 L 391.70 133.27 L 391.70 132.14 L 391.70 131.00 L 391.70 129.87 L 391.70 128.73 L 391.70 127.60 L 391.70 126.46 L 391.70 125.33 L 391.70 124.19 L 391.70 123.06 L 391.70 121.92 L 391.70 120.79 L 391.70 119.65 L 391.70 118.52 L 391.70 117.38 L 391.70 116.25 L 391.70 115.11 L 391.70 113.98 L 391.70 112.84 L 391.70 111.71 L 391.70 110.57 L 391.70 109.44 L 391.70 108.30 L 391.70 107.17 L 391.70 106.03 L 391.70 104.90 L 391.70 103.76 L 391.70 102.63 L 391.70 101.49 L 391.70 100.36 L 391.70 99.22 L 391.70 98.09 L 391.70 96.95 L 391.70 95.82 L 391.70 94.68 L 391.70 93.55 L 391.70 92.41 L 391.70 91.28 L 391.70 90.14 L 391.70 89.01 L 391.70 87.87 L 391.70 86.74 L 391.70 85.60 L 391.70 84.47 L 391.70 83.33 L 391.70 82.20 L 391.70 81.06 L 391.70 79.93 L 391.70 78.79 L 391.70 77.66 L 391.70 76.52 L 391.70 75.39 L 391.70 74.25 L 391.70 73.12 L 391.70 71.98 L 391.70 70.85 L 391.70 69.71 L 391.70 68.58 L 391.70 67.44 L 391.70 66.31 L 391.70 65.17 L 391.70 64.04 L 391.70 62.90 L 391.70 61.77 L 391.70 60.63 L 391.70 59.50 L 391.70 58.36 L 391.70 57.23 L 391.70 56.09 L 391.65 54.99 L 391.54 53.93 L 391.37 52.91 L 391.16 51.92 L 390.88 50.98 L 390.56 50.06 L 390.18 49.19 L 389.74 48.35 L 389.27 47.55 L 388.74 46.79 L 388.18 46.06 L 387.57 45.36 L 386.92 44.70 L 386.23 44.08 L 385.49 43.49 L 384.71 42.94 L 383.88 42.45 L 383.01 42.04 L 382.10 41.69 L 381.14 41.41 L 380.14 41.21 L 379.09 41.07 L 378.00 41.00 L 376.87 41.00 L 375.73 41.00 L 374.60 41.00 L 373.46 41.00 L 372.33 41.00 L 371.19 41.00 L 370.06 41.00 L 368.92 41.00 L 367.79 41.00 L 366.65 41.00 L 365.52 41.00 L 364.38 41.00 L 363.25 41.00 L 362.11 41.00 L 360.98 41.00 L 359.84 41.00 L 358.71 41.00 L 357.57 41.00 L 356.44 41.00 L 355.30 41.00 L 354.17 41.00 L 353.03 41.00 L 351.90 41.00 L 350.76 41.00 L 349.63 41.00 L 348.49 41.00 L 347.36 41.00 L 346.22 41.00 L 345.09 41.00 L 343.95 41.00 L 342.82 41.00 L 341.68 41.00 L 340.55 41.00 L 339.41 41.00 L 338.28 41.00 L 337.14 41.00 L 336.01 41.00 L 334.87 41.00 L 333.74 41.00 L 332.60 41.00 L 331.47 41.00 L 330.33 41.00 L 329.20 41.00 L 328.06 41.00 L 326.93 41.00 L 325.79 41.00 L 324.66 41.00 L 323.52 41.00 L 322.39 41.00 L 321.25 41.00 L 320.12 41.00 L 318.98 41.00 L 317.85 41.00 L 316.71 41.00 L 315.58 41.00 L 314.44 41.00 L 313.31 41.00 L 312.17 41.00 L 311.04 41.00 L 309.90 41.00 L 308.77 41.00 L 307.63 41.00 L 306.50 41.00 L 305.36 41.00 L 304.23 41.00 L 303.09 41.00 L 301.96 41.00 L 300.82 41.00 L 299.69 41.00 L 298.55 41.00 L 297.42 41.00 L 296.28 41.00 L 295.15 41.00 L 294.01 41.00 L 292.88 41.00 L 291.74 41.00 L 290.61 41.00 L 289.47 41.00 L 288.34 41.00 L 287.20 41.00 L 286.07 41.00 L 284.93 41.00 L 283.79 41.00 L 282.66 41.00 L 281.52 41.00 L 280.39 41.00 L 279.25 41.00 L 278.12 41.00 L 276.98 41.00 L 275.85 41.00 L 274.71 41.00 L 273.58 41.00 L 272.44 41.00 L 271.31 41.00 L 270.17 41.00 L 269.04 41.00 L 267.90 41.00 L 266.77 41.00 L 265.63 41.00 L 264.50 41.00 L 263.36 41.00 L 262.23 41.00 L 261.09 41.00 L 259.96 41.00 L 258.82 41.00 L 257.69 41.00 L 256.55 41.00 L 255.42 41.00 L 254.28 41.00 L 253.15 41.00 L 252.01 41.00 L 250.88 41.00 L 249.74 41.00 L 248.61 41.00 L 247.47 41.00 L 246.34 41.00 L 245.20 41.00 L 244.07 41.00 L 242.93 41.00 L 241.80 41.00 L 240.66 41.00 L 239.57 41.05 L 238.51 41.15 L 237.49 41.30 L 236.52 41.51 L 235.58 41.76 L 234.68 42.06 Z M 239.49 86.12 L 240.62 86.13 L 241.75 86.14 L 242.89 86.15 L 244.03 86.16 L 245.16 86.16 L 246.31 86.17 L 247.45 86.17 L 248.59 86.17 L 249.74 86.17 L 250.88 86.17 L 252.03 86.17 L 253.18 86.17 L 254.32 86.17 L 255.47 86.17 L 256.62 86.17 L 257.76 86.17 L 258.91 86.17 L 260.05 86.17 L 261.20 86.17 L 262.35 86.17 L 263.49 86.17 L 264.64 86.17 L 265.78 86.17 L 266.93 86.17 L 268.08 86.17 L 269.22 86.17 L 270.37 86.17 L 271.51 86.17 L 272.66 86.17 L 273.81 86.17 L 274.95 86.17 L 276.10 86.17 L 277.25 86.17 L 278.39 86.17 L 279.54 86.17 L 280.68 86.17 L 281.83 86.17 L 282.98 86.17 L 284.12 86.17 L 285.27 86.17 L 286.41 86.17 L 287.56 86.17 L 288.71 86.17 L 289.85 86.17 L 291.00 86.17 L 292.15 86.17 L 293.29 86.17 L 294.44 86.17 L 295.58 86.17 L 296.73 86.17 L 297.88 86.17 L 299.02 86.17 L 300.17 86.17 L 301.31 86.17 L 302.46 86.17 L 303.61 86.17 L 304.75 86.17 L 305.90 86.17 L 307.04 86.17 L 308.19 86.17 L 309.34 86.17 L 310.48 86.17 L 311.63 86.17 L 312.78 86.17 L 313.92 86.17 L 315.07 86.17 L 316.21 86.17 L 317.36 86.17 L 318.51 86.17 L 319.65 86.17 L 320.80 86.17 L 321.94 86.17 L 323.09 86.17 L 324.24 86.17 L 325.38 86.17 L 326.53 86.17 L 327.67 86.17 L 328.82 86.17 L 329.97 86.17 L 331.11 86.17 L 332.26 86.17 L 333.38 86.21 L 334.48 86.29 L 335.56 86.41 L 336.61 86.57 L 337.64 86.77 L 338.65 87.01 L 339.64 87.29 L 340.60 87.61 L 341.48 88.01 L 342.28 88.49 L 343.00 89.05 L 343.65 89.70 L 344.21 90.42 L 344.69 91.22 L 345.09 92.10 L 345.41 93.06 L 345.69 94.05 L 345.93 95.06 L 346.13 96.09 L 346.29 97.14 L 346.41 98.22 L 346.49 99.32 L 346.53 100.44 L 346.53 101.59 L 346.53 102.73 L 346.53 103.88 L 346.53 105.03 L 346.53 106.17 L 346.53 107.32 L 346.53 108.46 L 346.53 109.61 L 346.53 110.76 L 346.53 111.90 L 346.53 113.05 L 346.53 114.20 L 346.53 115.34 L 346.53 116.49 L 346.53 117.63 L 346.53 118.78 L 346.53 119.93 L 346.53 121.07 L 346.53 122.22 L 346.53 123.36 L 346.53 124.51 L 346.53 125.66 L 346.53 126.80 L 346.53 127.95 L 346.53 129.09 L 346.53 130.24 L 346.53 131.39 L 346.53 132.53 L 346.53 133.68 L 346.53 134.83 L 346.53 135.97 L 346.53 137.12 L 346.53 138.26 L 346.53 139.41 L 346.53 140.56 L 346.53 141.70 L 346.53 142.85 L 346.53 143.99 L 346.53 145.14 L 346.53 146.29 L 346.53 147.43 L 346.53 148.58 L 346.53 149.72 L 346.53 150.87 L 346.53 152.02 L 346.53 153.16 L 346.53 154.31 L 346.53 155.46 L 346.53 156.60 L 346.53 157.75 L 346.53 158.89 L 346.53 160.04 L 346.53 161.19 L 346.53 162.33 L 346.53 163.48 L 346.53 164.62 L 346.53 165.77 L 346.53 166.92 L 346.53 168.06 L 346.53 169.21 L 346.53 170.35 L 346.53 171.50 L 346.53 172.65 L 346.53 173.79 L 346.53 174.94 L 346.53 176.09 L 346.53 177.23 L 346.53 178.38 L 346.53 179.52 L 346.53 180.67 L 346.53 181.82 L 346.53 182.96 L 346.53 184.11 L 346.50 185.24 L 346.44 186.35 L 346.36 187.45 L 346.25 188.53 L 346.11 189.60 L 345.95 190.64 L 345.75 191.68 L 345.53 192.69 L 345.31 193.71 L 345.10 194.72 L 344.89 195.74 L 344.69 196.75 L 344.48 197.76 L 344.29 198.77 L 344.09 199.79 L 343.90 200.80 L 343.69 201.79 L 343.45 202.78 L 343.18 203.76 L 342.89 204.72 L 342.58 205.68 L 342.24 206.62 L 341.88 207.55 L 341.50 208.47 L 341.11 209.39 L 340.72 210.30 L 340.32 211.22 L 339.92 212.14 L 339.52 213.06 L 339.11 213.97 L 338.70 214.89 L 338.28 215.81 L 337.83 216.71 L 337.36 217.60 L 336.85 218.48 L 336.31 219.35 L 335.74 220.20 L 335.14 221.04 L 334.51 221.87 L 333.85 222.69 L 333.21 223.51 L 332.59 224.35 L 332.00 225.19 L 331.43 226.04 L 330.88 226.91 L 330.35 227.78 L 329.84 228.65 L 329.36 229.54 L 328.84 230.42 L 328.28 231.28 L 327.68 232.13 L 327.05 232.96 L 326.38 233.78 L 325.67 234.59 L 324.93 235.39 L 324.15 236.17 L 323.36 236.95 L 322.58 237.74 L 321.80 238.52 L 321.02 239.30 L 320.23 240.08 L 319.45 240.87 L 318.67 241.65 L 317.89 242.43 L 317.10 243.21 L 316.32 244.00 L 315.54 244.78 L 314.76 245.56 L 313.97 246.34 L 313.19 247.13 L 312.41 247.91 L 311.63 248.69 L 310.83 249.44 L 310.02 250.14 L 309.19 250.81 L 308.35 251.44 L 307.50 252.04 L 306.63 252.59 L 305.75 253.11 L 304.86 253.59 L 303.96 254.07 L 303.08 254.56 L 302.19 255.04 L 301.31 255.53 L 300.43 256.02 L 299.56 256.51 L 298.69 257.00 L 297.83 257.49 L 296.96 257.98 L 296.09 258.48 L 295.23 258.97 L 294.36 259.46 L 293.49 259.95 L 292.62 260.44 L 291.75 260.93 L 290.88 261.42 L 289.99 261.87 L 289.06 262.26 L 288.12 262.61 L 287.14 262.91 L 286.15 263.16 L 285.12 263.36 L 284.08 263.51 L 283.00 263.62 L 281.95 263.77 L 280.91 263.95 L 279.90 264.18 L 278.91 264.45 L 277.94 264.75 L 276.98 265.10 L 276.05 265.49 L 275.14 265.91 L 274.20 266.28 L 273.23 266.60 L 272.23 266.86 L 271.21 267.07 L 270.15 267.22 L 269.07 267.32 L 267.96 267.37 L 266.81 267.36 L 265.67 267.35 L 264.53 267.34 L 263.39 267.33 L 262.24 267.32 L 261.10 267.32 L 259.95 267.32 L 258.81 267.32 L 257.66 267.32 L 256.52 267.32 L 255.37 267.32 L 254.22 267.32 L 253.08 267.32 L 251.93 267.32 L 250.78 267.32 L 249.64 267.32 L 248.49 267.32 L 247.35 267.32 L 246.20 267.32 L 245.05 267.32 L 243.91 267.32 L 242.76 267.32 L 241.62 267.32 L 240.47 267.32 L 239.32 267.32 L 238.18 267.32 L 237.03 267.32 L 235.89 267.32 L 234.74 267.32 L 233.59 267.32 L 232.45 267.32 L 231.30 267.32 L 230.15 267.32 L 229.01 267.32 L 227.86 267.32 L 226.72 267.32 L 225.57 267.32 L 224.42 267.32 L 223.28 267.32 L 222.13 267.32 L 220.99 267.32 L 219.84 267.32 L 218.69 267.32 L 217.55 267.32 L 216.40 267.32 L 215.26 267.32 L 214.11 267.32 L 212.96 267.32 L 211.82 267.32 L 210.67 267.32 L 209.52 267.32 L 208.38 267.32 L 207.23 267.32 L 206.09 267.32 L 204.94 267.32 L 203.79 267.32 L 202.65 267.32 L 201.50 267.32 L 200.36 267.32 L 199.21 267.32 L 198.06 267.32 L 196.92 267.32 L 195.77 267.32 L 194.63 267.32 L 193.48 267.32 L 192.33 267.32 L 191.19 267.32 L 190.04 267.32 L 188.89 267.32 L 187.75 267.32 L 186.60 267.32 L 185.46 267.32 L 184.31 267.32 L 183.16 267.32 L 182.02 267.32 L 180.88 267.33 L 179.74 267.34 L 178.60 267.36 L 177.46 267.37 L 176.32 267.39 L 175.18 267.42 L 174.09 267.35 L 173.05 267.18 L 172.06 266.92 L 171.12 266.56 L 170.22 266.12 L 169.38 265.57 L 168.58 264.94 L 167.83 264.20 L 167.18 263.42 L 166.62 262.59 L 166.16 261.70 L 165.79 260.77 L 165.53 259.79 L 165.36 258.75 L 165.28 257.66 L 165.31 256.53 L 165.32 255.39 L 165.34 254.25 L 165.36 253.11 L 165.37 251.97 L 165.38 250.83 L 165.38 249.68 L 165.38 248.54 L 165.38 247.39 L 165.38 246.25 L 165.38 245.10 L 165.38 243.95 L 165.38 242.81 L 165.38 241.66 L 165.38 240.51 L 165.38 239.37 L 165.38 238.22 L 165.38 237.08 L 165.38 235.93 L 165.38 234.78 L 165.38 233.64 L 165.38 232.49 L 165.38 231.35 L 165.38 230.20 L 165.38 229.05 L 165.38 227.91 L 165.38 226.76 L 165.38 225.61 L 165.38 224.47 L 165.38 223.32 L 165.38 222.18 L 165.38 221.03 L 165.38 219.88 L 165.38 218.74 L 165.38 217.59 L 165.38 216.45 L 165.38 215.30 L 165.38 214.15 L 165.38 213.01 L 165.38 211.86 L 165.38 210.72 L 165.38 209.57 L 165.38 208.42 L 165.38 207.28 L 165.38 206.13 L 165.38 204.98 L 165.38 203.84 L 165.38 202.69 L 165.38 201.55 L 165.38 200.40 L 165.38 199.25 L 165.38 198.11 L 165.38 196.96 L 165.38 195.82 L 165.38 194.67 L 165.38 193.52 L 165.38 192.38 L 165.38 191.23 L 165.38 190.09 L 165.38 188.94 L 165.38 187.79 L 165.38 186.65 L 165.38 185.50 L 165.38 184.35 L 165.38 183.21 L 165.38 182.06 L 165.38 180.92 L 165.38 179.77 L 165.38 178.62 L 165.38 177.48 L 165.38 176.33 L 165.38 175.19 L 165.38 174.04 L 165.38 172.89 L 165.38 171.75 L 165.38 170.60 L 165.37 169.46 L 165.36 168.32 L 165.35 167.18 L 165.34 166.03 L 165.33 164.89 L 165.38 163.78 L 165.48 162.69 L 165.63 161.64 L 165.84 160.61 L 166.10 159.62 L 166.42 158.65 L 166.79 157.71 L 167.21 156.80 L 167.60 155.86 L 167.94 154.91 L 168.24 153.94 L 168.50 152.94 L 168.72 151.92 L 168.90 150.89 L 169.03 149.83 L 169.13 148.75 L 169.27 147.69 L 169.46 146.67 L 169.70 145.66 L 170.00 144.69 L 170.34 143.74 L 170.73 142.82 L 171.17 141.92 L 171.66 141.05 L 172.15 140.17 L 172.64 139.31 L 173.13 138.44 L 173.62 137.57 L 174.12 136.70 L 174.61 135.84 L 175.10 134.97 L 175.60 134.11 L 176.09 133.24 L 176.58 132.37 L 177.07 131.49 L 177.55 130.61 L 178.04 129.73 L 178.52 128.84 L 179.00 127.95 L 179.48 127.05 L 180.00 126.17 L 180.56 125.30 L 181.15 124.45 L 181.78 123.61 L 182.45 122.79 L 183.16 121.98 L 183.90 121.18 L 184.69 120.40 L 185.47 119.61 L 186.25 118.83 L 187.03 118.05 L 187.82 117.27 L 188.60 116.48 L 189.38 115.70 L 190.16 114.92 L 190.95 114.14 L 191.73 113.35 L 192.51 112.57 L 193.29 111.79 L 194.08 111.01 L 194.86 110.22 L 195.64 109.44 L 196.42 108.66 L 197.21 107.88 L 197.99 107.10 L 198.77 106.32 L 199.56 105.54 L 200.34 104.77 L 201.12 104.00 L 201.90 103.23 L 202.69 102.46 L 203.47 101.69 L 204.27 100.97 L 205.09 100.30 L 205.92 99.67 L 206.77 99.09 L 207.64 98.55 L 208.52 98.06 L 209.43 97.62 L 210.35 97.22 L 211.26 96.82 L 212.18 96.43 L 213.10 96.03 L 214.01 95.64 L 214.93 95.25 L 215.84 94.86 L 216.76 94.47 L 217.67 94.08 L 218.58 93.69 L 219.50 93.30 L 220.41 92.90 L 221.33 92.50 L 222.24 92.10 L 223.16 91.69 L 224.07 91.28 L 224.99 90.86 L 225.91 90.44 L 226.82 90.03 L 227.74 89.61 L 228.65 89.20 L 229.57 88.78 L 230.49 88.37 L 231.40 87.95 L 232.32 87.54 L 233.26 87.18 L 234.23 86.87 L 235.23 86.61 L 236.25 86.41 L 237.30 86.26 L 238.38 86.16 Z"/>
</svg>
