<svg xmlns="http://www.w3.org/2000/svg" viewBox="0 0 24 24"><path fill="#44739e" fill-rule="evenodd" d="M15.966 9.89c-.031.004-.059.015-.087.025l-.084.032c-.042.017-.062.017-.091.028s-.056.023-.08.039q-.036.025-.064.056-.033.03-.062.066-.032.033-.06.071a.3.3 0 0 0-.046.08.4.4 0 0 0-.027.088q-.007.048-.007.098l.002.101v7.847l-.001.1q-.001.05-.005.099a1 1 0 0 1-.031.186q-.012.043-.028.087l-.032.085-.032.085q-.014.042-.032.085a1 1 0 0 1-.045.08q-.029.038-.062.075l-.06.075q-.027.038-.058.072-.032.032-.069.06l-.08.055c-.025.02-.053.04-.076.064s-.043.049-.057.077a.22.22 0 0 0-.011.182c.011.029.03.059.053.079a.2.2 0 0 0 .084.042c.03.008.066.008.097.005s.061-.013.09-.022q.044-.015.086-.033c.042-.018.056-.02.084-.032a1 1 0 0 0 .165-.079q.04-.022.081-.047l.078-.05q.039-.026.074-.055.033-.031.065-.064c.032-.033.046-.043.069-.065q.035-.032.069-.068a1 1 0 0 0 .119-.15l.051-.079.045-.08a1 1 0 0 0 .04-.082q.019-.042.034-.086l.027-.088.025-.088.021-.09q.01-.045.017-.092l.014-.094q.006-.048.008-.096l.003-.1c.001-.05-.001-.067-.001-.101V11.13l-.001-.101v-.402l.001-.101v-.1l.002-.101v-.1l-.002-.101c-.001-.034 0-.07-.005-.101-.006-.032-.011-.065-.029-.086-.017-.022-.048-.036-.077-.044s-.071-.006-.102-.003m-3.999-.413c-.037.005-.068.019-.105.023s-.081-.007-.118-.002-.066.024-.102.031q-.053.01-.109.016c-.036.005-.074.007-.109.016-.035.008-.066.023-.1.034l-.101.032c-.033.012-.064.029-.097.041s-.069.017-.1.035-.065.046-.087.074-.046.068-.041.099.048.057.07.087.039.061.06.091.041.06.066.089.057.056.083.081c.025.026.042.052.07.072.027.02.062.036.095.048a.4.4 0 0 0 .22.026c.036-.004.069-.017.103-.026s.067-.023.103-.029c.037-.005.078 0 .115-.004.037-.003.07-.015.107-.018a1 1 0 0 1 .118.001c.037.004.068.02.105.024s.08-.005.116 0c.036.006.066.025.1.034.034.011.071.012.104.027.032.015.058.046.089.062s.068.023.1.038.062.036.093.053c.032.017.069.028.096.049.028.02.043.05.068.074s.055.046.084.072c.027.025.059.054.084.083s.042.059.065.088c.022.03.051.056.07.086s.032.064.048.096l.052.094q.027.047.047.095c.012.033.038.077.026.099s-.064.025-.1.03-.078 0-.117 0H9.97c-.039 0-.082-.01-.117-.001-.034.01-.068.033-.09.057s-.036.058-.043.093 0 .077 0 .115v.351c0 .039-.005.08-.001.117s.02.068.029.102l.025.105.019.107a1 1 0 0 0 .031.102c.012.033.03.064.044.097l.039.098q.017.05.036.099c.019.049.03.064.049.094q.029.046.064.09l.062.089c.021.03.037.062.058.092q.03.046.067.088c.025.028.056.054.08.083.024.028.04.062.066.087.026.026.061.04.09.065s.053.061.082.082.065.026.095.047.053.058.083.08.064.031.095.05c.031.018.059.042.091.059.031.017.065.029.097.045.031.016.06.039.094.052s.071.011.105.022.064.03.098.043q.05.018.101.031t.104.026c.053.012.069.018.105.023.037.006.076.006.113.009.037.004.071.012.109.015q.057.003.116.002l.117-.001c.039 0 .08.005.117.002q.056-.006.107-.021c.035-.009.065-.026.101-.031s.08.004.118.001a1 1 0 0 0 .107-.02q.053-.013.102-.031.052-.015.102-.034c.032-.014.062-.034.095-.049s.067-.023.099-.04.07-.036.09-.063c.021-.027.036-.067.03-.098-.005-.032-.041-.059-.061-.09s-.036-.065-.058-.092-.048-.045-.072-.07l-.078-.084c-.027-.027-.055-.058-.083-.082a.4.4 0 0 0-.089-.061.4.4 0 0 0-.105-.028c-.035-.003-.072.002-.109.005q-.055.004-.109.015c-.036.007-.067.023-.103.03q-.053.01-.109.014c-.056.004-.075.008-.113.009a2 2 0 0 1-.23-.007 1 1 0 0 1-.108-.017q-.053-.012-.103-.03l-.1-.034q-.05-.019-.097-.041-.048-.021-.097-.046a1 1 0 0 1-.092-.054q-.045-.033-.088-.067c-.03-.022-.061-.041-.089-.066s-.053-.059-.08-.085c-.027-.025-.054-.041-.08-.067-.024-.026-.047-.058-.07-.087q-.035-.043-.065-.089c-.019-.03-.031-.064-.049-.095s-.044-.059-.06-.09a1 1 0 0 1-.038-.1c-.008-.033-.032-.073-.018-.094s.068-.029.104-.034c.038-.006.078-.001.117-.001h2.918l.116.001.117-.001.117-.001c.039 0 .081.01.115-.002s.065-.039.087-.067a.25.25 0 0 0 .042-.1c.007-.035.004-.075.004-.114l-.003-.118.001-.116q.003-.06.001-.117a1 1 0 0 0-.015-.11c-.007-.036-.02-.068-.027-.103s-.009-.073-.015-.109a1 1 0 0 0-.019-.107q-.01-.053-.028-.103c-.018-.05-.036-.062-.051-.094s-.023-.067-.038-.099c-.017-.032-.04-.061-.058-.092l-.051-.094c-.026-.047-.037-.062-.055-.093l-.055-.092a1 1 0 0 0-.064-.09c-.022-.027-.048-.049-.07-.076s-.04-.058-.064-.085c-.025-.028-.057-.053-.084-.08s-.053-.059-.081-.084q-.042-.037-.088-.069c-.046-.032-.06-.039-.091-.059l-.089-.061c-.031-.018-.067-.032-.095-.051s-.045-.047-.074-.063c-.028-.017-.067-.021-.099-.035-.033-.014-.063-.034-.095-.049l-.098-.04-.099-.035q-.05-.018-.101-.034c-.051-.016-.07-.016-.104-.024-.036-.008-.068-.022-.105-.026s-.078.003-.117.002-.077-.002-.113-.007c-.038-.003-.071-.015-.109-.018a1 1 0 0 0-.115.001m9.718-1.457c-.032.009-.059.026-.088.041s-.057.036-.087.05-.064.016-.092.033-.054.047-.077.07a.5.5 0 0 0-.057.073.4.4 0 0 0-.078.18c-.004.034 0 .072-.001.107v2.583l.002.106c0 .053.004.083-.013.106s-.057.025-.09.03c-.034.005-.073-.001-.109-.001h-1.398c-.036 0-.074-.004-.108-.001s-.066.012-.099.018l-.098.018-.099.019-.098.019a1 1 0 0 0-.19.052l-.089.041-.091.036c-.045.018-.059.028-.088.042l-.088.046q-.044.023-.086.05l-.083.056-.082.06-.083.057q-.04.029-.08.061l-.079.071q-.039.038-.076.078l-.07.078-.067.077q-.034.04-.062.082c-.028.042-.033.057-.049.086l-.048.087-.054.084q-.026.042-.05.085c-.024.043-.027.06-.04.09l-.036.09c-.012.03-.03.059-.04.09s-.012.066-.02.097c-.008.032-.021.062-.031.093s-.021.062-.029.095q-.01.049-.015.099-.009.05-.011.102c-.001.036.006.076.004.11-.002.035-.014.065-.019.099q-.008.05-.01.103c-.002.053 0 .071.001.107l.001.109-.001.107v1.614q-.004.054-.001.107c.003.053.004.07.015.101q.019.048.056.085c.037.037.056.042.087.052.032.012.067.012.102.014s.071-.002.107-.002h2.044c.036.001.075.005.109.001.034-.003.063-.016.097-.021s.071-.002.105-.006q.05-.007.098-.02c.048-.013.062-.02.094-.028s.067-.008.098-.017c.032-.009.06-.027.09-.039s.062-.021.091-.033l.09-.039c.03-.013.061-.022.09-.036.03-.015.057-.035.086-.05s.061-.023.09-.04.053-.043.08-.063.058-.037.084-.055a1 1 0 0 0 .073-.054c.024-.02.048-.046.074-.068s.057-.044.08-.067.038-.047.061-.071c.023-.025.054-.05.077-.076s.041-.054.061-.078.041-.042.061-.068c.019-.025.036-.056.054-.084l.057-.083q.028-.04.055-.083t.048-.087c.014-.029.021-.061.034-.091q.02-.045.044-.087c.016-.029.038-.055.05-.085.011-.031.012-.066.019-.099l.023-.096q.01-.049.023-.096c.009-.032.026-.059.032-.092s.001-.071.005-.104.017-.062.021-.095c.003-.034 0-.072 0-.107V8.358l.001-.109c0-.035.003-.073-.001-.106-.005-.033-.007-.071-.024-.093s-.044-.032-.074-.038c-.031-.006-.075-.001-.111.001-.035.001-.072-.001-.104.007m-1.949 4.179q.04-.007.084-.011c.044-.004.06.003.09.003l.089.001.088-.001h.445l.088.001h.089l.089-.001.09-.001h.089q.044 0 .086.004c.029.002.06.001.083.013s.046.035.056.059.003.057.004.086l-.001.09v1.333c0 .029.003.06-.001.088s-.015.052-.022.079-.012.052-.017.08-.005.057-.01.084a.4.4 0 0 1-.021.079c-.01.024-.029.047-.039.071-.011.025-.017.051-.027.076a1 1 0 0 1-.071.146q-.018.037-.039.072c-.015.023-.036.043-.053.066l-.05.068-.049.066q-.027.034-.057.067l-.064.06q-.033.026-.068.049l-.066.052c-.023.016-.045.035-.068.048-.024.014-.05.022-.074.033q-.037.016-.073.035c-.023.013-.045.032-.069.044s-.051.02-.077.028c-.026.007-.054.009-.08.017s-.049.021-.075.028q-.04.01-.08.017c-.04.007-.053.014-.081.017q-.044.001-.089-.001l-.09-.002-.088.001h-.089l-.089.001h-.089l-.088-.001h-.801l-.089-.001q-.044.002-.085.007c-.027.005-.057.029-.078.021s-.04-.041-.048-.066c-.007-.026.002-.059.002-.089v-1.422q-.003-.044-.002-.09l.008-.084c.005-.027.015-.052.02-.08.004-.027 0-.059.006-.085s.022-.049.03-.074.012-.053.022-.079c.009-.025.025-.047.036-.072s.018-.05.031-.074q.02-.036.043-.07l.041-.072c.021-.036.032-.044.048-.067s.026-.049.043-.071.042-.039.063-.06c.02-.022.039-.048.061-.067s.046-.03.068-.047.043-.038.064-.058c.022-.019.042-.042.064-.06s.044-.034.068-.048q.035-.022.071-.039c.036-.017.05-.021.074-.033s.049-.026.073-.037l.075-.031c.025-.009.052-.013.077-.022s.047-.027.073-.035q.038-.015.08-.021c.042-.006.058-.002.087-.002l.09.003c.03 0 .061.002.088-.002.028-.003.054-.012.081-.017M4.151 7.534c-.034.005-.064.016-.098.02-.034.003-.073-.002-.106.003s-.061.021-.093.028-.067.011-.099.018l-.095.025q-.048.014-.093.03c-.03.012-.059.03-.089.041-.031.011-.064.015-.094.027s-.058.032-.086.048l-.087.047q-.044.021-.087.045-.043.025-.085.054l-.082.059-.08.061q-.04.033-.079.068l-.078.071q-.039.037-.076.076l-.072.077q-.035.039-.067.079l-.06.082q-.03.04-.056.083l-.053.084-.052.085-.048.086-.038.09c-.014.029-.033.056-.045.087s-.015.064-.024.095l-.03.093-.02.098-.021.097c-.011.048-.022.061-.027.094-.004.034.003.074-.001.107s-.02.06-.024.093-.002.071-.003.106l.001.108v5.479c0 .036-.008.078-.002.11.006.031.013.065.037.08s.071.008.106.009a.7.7 0 0 0 .205-.022 1 1 0 0 0 .092-.034.6.6 0 0 0 .168-.108q.04-.034.077-.072c.023-.025.049-.051.066-.08s.029-.059.036-.092c.008-.032.007-.068.009-.103s0-.071 0-.107l-.001-.107v-2.365l-.001-.108c-.001-.036-.008-.077 0-.107.007-.032.022-.065.048-.079s.071-.002.107-.003l.108.001h1.074l.107-.001.109.003q.053 0 .105-.006c.033-.005.063-.018.097-.022s.073.004.108.002.067-.009.1-.016c.032-.007.062-.02.094-.027s.068-.008.1-.016q.048-.012.092-.03.048-.014.092-.032l.09-.038.091-.035q.046-.017.091-.037c.045-.02.058-.03.086-.047q.042-.026.083-.056l.082-.059.082-.06.081-.061q.04-.031.079-.067.038-.036.076-.075l.076-.073c.023-.024.043-.042.063-.067s.037-.056.056-.083l.059-.083.055-.083.055-.083c.018-.028.042-.054.058-.083.016-.028.025-.06.038-.089l.04-.089q.02-.043.038-.09.016-.047.029-.093c.013-.046.024-.06.033-.092s.012-.066.019-.098l.019-.098c.006-.033.018-.064.022-.097.005-.034 0-.072.005-.105s.02-.062.025-.096.001-.071.001-.107l-.001-.107V8.076l.001-.109V7.86q0-.053-.005-.104c-.005-.034-.009-.068-.022-.098a.2.2 0 0 0-.053-.082.2.2 0 0 0-.084-.036 1 1 0 0 0-.102-.013l-.107-.001-.107.001H4.684l-.107-.001-.107.001-.107.001c-.053 0-.074-.005-.109-.003a1 1 0 0 0-.103.009m.203.793q.041-.007.085-.009l.089.002c.045.002.06.001.09.001l.089-.001h.979c.03 0 .062-.004.088.003s.052.019.069.038c.016.019.028.051.029.076s-.017.046-.021.073-.002.059-.002.088v1.247l.001.09v.089q0 .044-.006.086c-.004.028-.014.053-.02.08l-.02.079q-.013.038-.028.075c-.015.037-.015.052-.027.077-.01.025-.027.047-.038.072s-.016.052-.028.076-.03.046-.044.07-.026.048-.041.071q-.02.036-.045.07-.028.032-.06.062c-.032.03-.042.042-.062.063l-.063.064q-.031.032-.062.061a1 1 0 0 1-.133.106l-.069.047-.074.035-.075.03c-.025.011-.047.027-.073.035s-.057.003-.082.013-.042.04-.068.048-.061-.005-.089-.001c-.027.005-.05.021-.076.028-.027.006-.057.005-.084.01-.028.004-.053.013-.081.016s-.059.002-.089.002l-.089-.001h-.178l-.089-.001h-.178l-.089.001h-.535l-.089-.001h-.088c-.03-.001-.061.003-.087-.004a.15.15 0 0 1-.073-.038c-.016-.02-.02-.051-.023-.079-.004-.028.003-.06.003-.09l-.001-.089-.001-.089.001-.089v-.445l-.001-.089v-.089l.001-.089v-.089l.001-.089-.002-.09q-.003-.045-.001-.089c.002-.044.007-.056.012-.084s.014-.052.017-.081c.004-.027-.003-.06.001-.088.005-.027.018-.051.024-.077s.007-.056.016-.082c.008-.026.024-.049.034-.074l.025-.076c.009-.026.015-.052.027-.077s.029-.047.043-.07l.043-.071.041-.071q.022-.035.047-.069.028-.032.06-.063c.032-.031.042-.045.061-.064l.053-.052c.019-.018.04-.045.062-.063s.048-.026.07-.043c.022-.018.041-.044.063-.063q.031-.03.067-.051c.036-.021.05-.017.076-.026s.052-.015.077-.026c.024-.011.047-.028.072-.039s.049-.021.075-.028q.04-.01.081-.017l.077-.023q.04-.013.08-.021l.085-.006c.03-.001.062.005.091.002s.052-.015.079-.02M9.008 4q-.044.006-.086.017a1 1 0 0 0-.086.035q-.041.02-.081.042l-.08.044-.163.093-.078.052q-.037.027-.072.059c-.035.032-.046.042-.067.064a1 1 0 0 0-.119.139q-.029.038-.054.077l-.051.08-.047.081q-.023.04-.043.082c-.02.042-.026.054-.037.082l-.027.088-.026.088q-.015.043-.028.087a1 1 0 0 0-.015.093c-.002.032.002.068.001.101q-.001.05-.007.097c-.006.047-.012.061-.016.093l-.006.098.002.101.001.101v7.643l-.001.101-.001.1a2 2 0 0 0 .01.198c.004.032.004.068.017.093a.12.12 0 0 0 .061.057c.026.01.063.004.095 0 .032-.003.066-.015.097-.02.031-.004.063-.002.093-.01q.043-.012.085-.033c.042-.021.057-.025.084-.041a.5.5 0 0 0 .138-.118.7.7 0 0 0 .105-.154q.018-.042.027-.089c.009-.047.009-.063.011-.095v-.1l-.002-.102-.001-.101v-.301l.001-.101V5.682l-.001-.101-.001-.101.001-.101a1 1 0 0 1 .031-.185q.011-.045.024-.089t.027-.088q.015-.042.033-.085t.038-.084l.043-.081.046-.079q.023-.04.052-.078A1 1 0 0 1 9 4.535a1 1 0 0 1 .15-.125 1 1 0 0 0 .076-.059c.024-.02.05-.038.069-.062.017-.023.034-.05.04-.081s.004-.07-.005-.101-.025-.06-.046-.08-.05-.031-.08-.038-.065-.005-.098-.003q-.05.005-.098.014"/></svg>