<?xml version="1.0" encoding="UTF-8"?>
<svg width="24px" fill="#44739e" height="24px" viewBox="0 0 24 24" version="1.1" xmlns="http://www.w3.org/2000/svg" xmlns:xlink="http://www.w3.org/1999/xlink">
            <path d="m 14.649,13.134 a 1.317,1.317 0 0 1 -2.311,-0.729 h 4.23 a 1.182,1.182 0 0 0 0.04,-0.365 2.928,2.928 0 1 0 -0.243,1.094 z m -0.933,-2.8 a 1.337,1.337 0 0 1 1.352,1.068 h -2.676 a 1.3,1.3 0 0 1 1.324,-1.065 z m 7.622,3.366 a 12.042,12.042 0 0 1 -0.987,-1.419 l -0.959,1.432 0.324,0.446 a 1.388,1.388 0 0 0 1.189,0.73 1.438,1.438 0 0 0 0.987,-0.608 A 6.418,6.418 0 0 1 21.338,13.7 Z M 22,9.215 h -1.919 l -0.689,1.014 0.946,1.432 z M 18.086,9.23 h -2.257 l 1.854,2.741 -1.855,2.729 h 2.258 l 1.842,-2.729 z M 17.87,14.3 h -1.277 l 1.58,-2.324 -1.581,-2.341 h 1.278 l 1.569,2.336 z M 10.162,11.864 10.149,7.391 H 8.568 v 5.838 a 1.78,1.78 0 0 0 0.418,1.189 1.284,1.284 0 0 0 0.919,0.473 1.208,1.208 0 0 0 0.987,-0.73 0.545,0.545 0 0 0 -0.041,-0.054 3.49,3.49 0 0 1 -0.689,-2.243 z M 5.284,9.04 v 0 A 2,2 0 0 0 3.541,9.81 V 9.21 H 2 v 7.33 a 0.476,0.476 0 0 0 0.108,0.027 1.3,1.3 0 0 0 1.095,-0.2 1.29,1.29 0 0 0 0.446,-1.081 v -1.057 a 2.077,2.077 0 0 0 1.648,0.676 2.72,2.72 0 0 0 2.676,-2.865 2.74,2.74 0 0 0 -2.689,-3 z m -0.3,4.473 a 1.54,1.54 0 0 1 -1.527,-1.554 1.6,1.6 0 0 1 1.527,-1.514 1.5,1.5 0 0 1 1.528,1.527 1.521,1.521 0 0 1 -1.526,1.541 z"/>

</svg>