<?xml version="1.0" encoding="UTF-8"?>
<svg width="24px" fill="#44739e" height="24px" viewBox="0 0 24 24" version="1.1" xmlns="http://www.w3.org/2000/svg" xmlns:xlink="http://www.w3.org/1999/xlink">
            <path d="m 21.75,11.747 h -1.878 a 0.249,0.249 0 0 0 -0.2,0.1 l -5.243,7.226 h -1.42 l 5.03,-6.932 a 0.249,0.249 0 0 0 0,-0.294 L 12.718,4.521 a 0.249,0.249 0 0 0 -0.2,-0.1 h -2.039 a 0.25,0.25 0 0 0 -0.25,0.25 0.253,0.253 0 0 0 0.05,0.15 L 15.488,12 10.351,19.079 H 8.932 l 5.03,-6.932 a 0.252,0.252 0 0 0 0,-0.294 L 8.644,4.521 a 0.249,0.249 0 0 0 -0.2,-0.1 H 6.4 a 0.249,0.249 0 0 0 -0.2,0.4 l 5.03,6.932 H 2.25 a 0.25,0.25 0 0 0 0,0.5 h 9.472 a 0.249,0.249 0 0 0 0.2,-0.4 L 6.894,4.918 h 1.42 L 13.451,12 8.239,19.179 a 0.25,0.25 0 0 0 0.2,0.4 h 2.037 a 0.249,0.249 0 0 0 0.2,-0.1 L 16,12.144 A 0.249,0.249 0 0 0 16,11.85 L 10.97,4.918 h 1.42 L 17.525,12 12.314,19.182 a 0.249,0.249 0 0 0 0.2,0.4 h 2.037 a 0.249,0.249 0 0 0 0.2,-0.1 L 20,12.247 h 1.75 a 0.25,0.25 0 0 0 0,-0.5 z"/>

</svg>