<?xml version="1.0" encoding="UTF-8"?>
<svg width="24px" height="24px" viewBox="0 0 24 24" fill="#44739e" version="1.1" xmlns="http://www.w3.org/2000/svg" xmlns:xlink="http://www.w3.org/1999/xlink">
            <path d="m 18.057,18.285 c 1.031,-0.258 1.8,-0.515 1.8,-0.515 a 1.418,1.418 0 0 0 0.774,-1.289 v -1.547 a 5.694,5.694 0 0 1 -2.574,3.351 z m 1.031,-4.639 -1.8,-0.774 V 13.9 A 3.472,3.472 0 0 1 16,16.223 c 0.258,0 0.258,0.258 0.258,0.516 L 16,17.254 17.031,17.77 c 2.062,-0.774 2.578,-3.093 2.835,-4.382 z m -6.959,3.093 a 3.663,3.663 0 0 1 -0.516,-1.547 v 4.124 a 0.9,0.9 0 0 0 0.258,0.516 h 0.773 a 8.9,8.9 0 0 0 3.093,-0.774 5.011,5.011 0 0 1 -3.608,-2.319 z m 2.062,-5.155 a 1.129,1.129 0 0 0 0.258,0.773 c 0.257,0 0.515,0 0.773,-0.516 0.258,-0.516 0,-1.031 -0.516,-1.031 a 0.954,0.954 0 0 0 -0.515,0.774 z m -2.32,-1.547 v 3.093 a 6.359,6.359 0 0 1 3.609,-4.9 l -2.836,0.773 c -0.515,0.003 -0.773,0.519 -0.773,1.034 z m -1.031,0 A 1.961,1.961 0 0 1 12.387,7.975 L 18.83,6.429 13.418,4.367 H 12.387 L 5.17,5.913 c 0,0 -0.774,0.258 -0.774,0.773 V 7.2 L 3.881,8.233 v 1.546 l -0.516,0.258 v 0.516 l 0.516,0.257 v 1.29 l 0.515,0.773 v 3.351 a 0.505,0.505 0 0 0 0.516,0.516 c 0.515,0.257 3.866,1.8 5.928,2.577 z m 6.444,0 1.8,0.773 0.516,-0.257 A 5.652,5.652 0 0 1 18.826,9.264 3.659,3.659 0 0 0 17.28,8.748 Z M 20.119,7.2 16.511,7.973 a 2.908,2.908 0 0 1 2.835,0.773 2.172,2.172 0 0 1 1.031,1.805 V 7.2 c 0,-0.256 -0.258,-0.256 -0.258,0 z m 1.174,-1.3 a 1.3,1.3 0 0 0 -0.7,-0.366 L 13.976,2.991 A 1.95,1.95 0 0 0 12.164,2.962 C 11.153,3.215 5.024,4.493 4.919,4.517 A 2.265,2.265 0 0 0 3.11,6.686 V 6.854 L 2.635,7.8 2.6,9.026 2.084,9.284 v 1.943 l 0.257,0.258 v 0.988 l 0.516,0.773 v 2.977 a 2.132,2.132 0 0 0 1.294,1.911 c 0.33,0.11 1.862,0.763 3.343,1.394 3.661,1.56 4.074,1.719 4.253,1.719 h 0.516 l 0.578,-0.006 c 0.992,-0.165 3.466,-0.929 5.274,-1.487 0.872,-0.27 1.774,-0.548 1.88,-0.568 l 0.172,-0.042 a 2.844,2.844 0 0 0 1.759,-2.663 V 7.46 A 1.79,1.79 0 0 0 21.293,5.9 Z m -0.141,10.582 a 2.088,2.088 0 0 1 -1.283,1.95 c -0.2,0.039 -0.647,0.174 -1.986,0.588 -1.786,0.551 -4.233,1.307 -5.11,1.458 l -0.969,0.007 c -0.259,-0.063 -2.429,-0.988 -4.013,-1.663 -1.632,-0.7 -3.042,-1.3 -3.352,-1.4 a 1.378,1.378 0 0 1 -0.818,-1.2 V 13.014 L 3.105,12.241 V 11.167 L 2.848,10.909 V 9.759 L 3.363,9.5 V 8.066 l 0.475,-0.95 0.041,-0.43 c 0,-0.25 0,-1.012 1.24,-1.428 0.253,-0.052 6.206,-1.293 7.31,-1.579 a 1.3,1.3 0 0 1 1.237,0.015 l 6.7,2.578 0.138,0.026 a 0.554,0.554 0 0 1 0.244,0.145 1.061,1.061 0 0 1 0.4,1.017 z"></path>

</svg>