<?xml version="1.0" encoding="UTF-8"?>
<svg width="24px" fill="#44739e" height="24px" viewBox="0 0 24 24" version="1.1" xmlns="http://www.w3.org/2000/svg" xmlns:xlink="http://www.w3.org/1999/xlink">
            <path d="m 18.023,13.223 a 2.982,2.982 0 1 0 2.982,2.977 2.984,2.984 0 0 0 -2.982,-2.977 z m 0,4.657 A 1.675,1.675 0 1 1 19.7,16.2 1.676,1.676 0 0 1 18.023,17.88 Z M 5.987,5.638 A 2.982,2.982 0 1 0 8.969,8.62 2.986,2.986 0 0 0 5.987,5.638 Z m 0,4.656 A 1.674,1.674 0 1 1 7.661,8.62 1.676,1.676 0 0 1 5.987,10.294 Z m 0,2.929 A 2.982,2.982 0 1 0 8.969,16.2 2.986,2.986 0 0 0 5.987,13.223 Z m 0,4.657 A 1.675,1.675 0 1 1 7.661,16.2 1.676,1.676 0 0 1 5.987,17.88 Z m 11.79,-6.57 A 2.982,2.982 0 1 0 14.8,8.328 2.985,2.985 0 0 0 17.777,11.31 Z m 0,-4.656 A 1.674,1.674 0 1 1 16.1,8.328 1.676,1.676 0 0 1 17.777,6.654 Z m -5.771,9.196 a 2.981,2.981 0 1 0 2.981,2.98 2.984,2.984 0 0 0 -2.981,-2.98 z m 0,4.656 A 1.675,1.675 0 1 1 13.68,18.83 1.677,1.677 0 0 1 12.006,20.506 Z M 11.882,8.151 A 2.982,2.982 0 1 0 8.9,5.169 2.985,2.985 0 0 0 11.882,8.151 Z m 0,-4.656 A 1.674,1.674 0 1 1 10.207,5.169 1.677,1.677 0 0 1 11.882,3.5 Z M 12,14.988 A 2.988,2.988 0 1 0 9.007,12 2.991,2.991 0 0 0 12,14.988 Z M 12,10.32 A 1.681,1.681 0 1 1 10.315,12 1.682,1.682 0 0 1 12,10.32 Z"/>

</svg>