<?xml version="1.0" encoding="UTF-8"?>
<svg width="24px" fill="#44739e" height="24px" viewBox="0 0 24 24" version="1.1" xmlns="http://www.w3.org/2000/svg" xmlns:xlink="http://www.w3.org/1999/xlink">
            <path d="M 11.873,10.107 H 4.732 L 4.5,10.339 10.429,11.551 Z M 19.403,9.894 19.635,9.661 13.642,8.45 12.195,9.894 Z M 12.256,2.321 12.028,2.607 v 7.141 l 1.441,-1.439 z m -0.392,15.361 0.164,-0.273 v -7.143 l -1.438,1.438 z m 4.779,3.582 a 0.394,0.394 0 0 1 -0.206,-0.044 0.261,0.261 0 0 1 -0.11,-0.13 0.686,0.686 0 0 1 -0.044,-0.213 c -0.006,-0.087 -0.01,-0.183 -0.01,-0.29 v -1.533 h 0.67 V 18.6 h -0.67 v -0.746 h -0.55 V 18.6 h -0.566 v 0.454 h 0.566 v 1.79 a 1.412,1.412 0 0 0 0.054,0.423 0.66,0.66 0 0 0 0.153,0.273 0.56,0.56 0 0 0 0.243,0.147 1.125,1.125 0 0 0 0.327,0.043 2.037,2.037 0 0 0 0.453,-0.053 v -0.443 a 0.9,0.9 0 0 1 -0.17,0.026 c -0.05,0.004 -0.096,0.004 -0.14,0.004 z M 14.72,20.117 A 1.254,1.254 0 0 0 14.337,19.964 C 14.193,19.93 14.057,19.897 13.92,19.87 13.82,19.85 13.72,19.83 13.627,19.807 A 0.957,0.957 0 0 1 13.387,19.72 0.509,0.509 0 0 1 13.223,19.584 0.336,0.336 0 0 1 13.16,19.37 0.367,0.367 0 0 1 13.327,19.057 0.783,0.783 0 0 1 13.78,18.94 c 0.463,0 0.7,0.2 0.7,0.6 h 0.543 a 0.964,0.964 0 0 0 -0.326,-0.77 1.378,1.378 0 0 0 -0.9,-0.264 1.977,1.977 0 0 0 -0.5,0.064 1.247,1.247 0 0 0 -0.38,0.186 0.854,0.854 0 0 0 -0.243,0.284 0.76,0.76 0 0 0 -0.087,0.36 0.871,0.871 0 0 0 0.1,0.453 0.776,0.776 0 0 0 0.27,0.273 1.259,1.259 0 0 0 0.367,0.147 c 0.137,0.03 0.27,0.06 0.407,0.083 0.1,0.02 0.2,0.04 0.3,0.064 a 1.151,1.151 0 0 1 0.253,0.09 0.505,0.505 0 0 1 0.177,0.143 0.372,0.372 0 0 1 0.066,0.23 0.387,0.387 0 0 1 -0.17,0.343 0.861,0.861 0 0 1 -0.486,0.117 0.933,0.933 0 0 1 -0.59,-0.163 0.58,0.58 0 0 1 -0.207,-0.457 h -0.557 a 0.972,0.972 0 0 0 0.35,0.767 1.54,1.54 0 0 0 0.99,0.28 1.843,1.843 0 0 0 0.5,-0.067 1.327,1.327 0 0 0 0.4,-0.187 0.864,0.864 0 0 0 0.263,-0.29 0.759,0.759 0 0 0 0.1,-0.38 0.858,0.858 0 0 0 -0.11,-0.46 0.849,0.849 0 0 0 -0.29,-0.269 z m 6.933,-1.553 a 1.123,1.123 0 0 0 -0.473,0.1 1.03,1.03 0 0 0 -0.393,0.387 V 18.6 h -0.52 v 3.08 h 0.55 v -1.416 a 3.364,3.364 0 0 1 0.036,-0.507 1.214,1.214 0 0 1 0.127,-0.387 0.621,0.621 0 0 1 0.247,-0.243 0.863,0.863 0 0 1 0.41,-0.087 1.457,1.457 0 0 1 0.173,0.014 L 22,19.084 V 18.6 a 1.778,1.778 0 0 0 -0.347,-0.036 z m -1.946,2.183 V 19.9 a 4.542,4.542 0 0 0 -0.027,-0.48 1.1,1.1 0 0 0 -0.147,-0.45 0.909,0.909 0 0 0 -0.363,-0.334 1.475,1.475 0 0 0 -0.68,-0.13 1.648,1.648 0 0 0 -0.5,0.074 1.211,1.211 0 0 0 -0.4,0.21 0.939,0.939 0 0 0 -0.353,0.756 h 0.543 a 0.575,0.575 0 0 1 0.2,-0.47 0.825,0.825 0 0 1 0.52,-0.156 0.646,0.646 0 0 1 0.52,0.186 0.8,0.8 0 0 1 0.16,0.534 v 0.106 c -0.127,0.017 -0.267,0.03 -0.417,0.044 -0.15,0.014 -0.3,0.026 -0.453,0.05 a 3.308,3.308 0 0 0 -0.444,0.1 1.426,1.426 0 0 0 -0.38,0.174 0.776,0.776 0 0 0 -0.263,0.28 0.811,0.811 0 0 0 -0.1,0.42 0.882,0.882 0 0 0 0.277,0.673 1.106,1.106 0 0 0 0.79,0.26 1.486,1.486 0 0 0 0.59,-0.11 1.111,1.111 0 0 0 0.453,-0.373 c 0,0.1 0.01,0.186 0.017,0.253 0.007,0.067 0.013,0.11 0.023,0.163 h 0.513 A 2.794,2.794 0 0 1 19.723,21.244 C 19.71,21.09 19.707,20.927 19.707,20.747 Z m -0.54,-0.4 a 1.518,1.518 0 0 1 -0.07,0.5 0.772,0.772 0 0 1 -0.19,0.3 0.626,0.626 0 0 1 -0.274,0.153 1.16,1.16 0 0 1 -0.323,0.043 0.7,0.7 0 0 1 -0.47,-0.146 0.474,0.474 0 0 1 -0.17,-0.374 0.415,0.415 0 0 1 0.167,-0.356 1.123,1.123 0 0 1 0.406,-0.184 2.8,2.8 0 0 1 0.5,-0.073 c 0.17,-0.01 0.313,-0.023 0.43,-0.04 z m -7.21,-1.367 a 1.221,1.221 0 0 0 -1.06,-0.47 1.479,1.479 0 0 0 -0.617,0.124 1.354,1.354 0 0 0 -0.467,0.343 1.473,1.473 0 0 0 -0.3,0.52 1.992,1.992 0 0 0 -0.1,0.643 1.77,1.77 0 0 0 0.376,1.2 1.358,1.358 0 0 0 1.087,0.433 1.626,1.626 0 0 0 0.917,-0.253 1.127,1.127 0 0 0 0.493,-0.793 h -0.58 a 0.69,0.69 0 0 1 -0.3,0.473 0.924,0.924 0 0 1 -0.51,0.137 0.814,0.814 0 0 1 -0.35,-0.074 0.9,0.9 0 0 1 -0.28,-0.21 0.988,0.988 0 0 1 -0.193,-0.323 1.335,1.335 0 0 1 -0.084,-0.413 h 2.3 A 2.282,2.282 0 0 0 11.957,18.98 Z m -1.95,0.887 a 1.16,1.16 0 0 1 0.286,-0.69 0.8,0.8 0 0 1 0.58,-0.223 0.757,0.757 0 0 1 0.56,0.223 1.12,1.12 0 0 1 0.274,0.69 z m -2.36,-0.9 a 1.345,1.345 0 0 0 -0.47,-0.337 1.557,1.557 0 0 0 -0.624,-0.12 1.538,1.538 0 0 0 -0.616,0.12 1.255,1.255 0 0 0 -0.47,0.337 1.525,1.525 0 0 0 -0.3,0.517 1.963,1.963 0 0 0 -0.1,0.656 2.068,2.068 0 0 0 0.1,0.66 1.486,1.486 0 0 0 0.3,0.517 1.363,1.363 0 0 0 0.47,0.333 1.5,1.5 0 0 0 0.614,0.12 1.574,1.574 0 0 0 0.626,-0.12 1.342,1.342 0 0 0 0.474,-0.333 1.494,1.494 0 0 0 0.3,-0.517 1.987,1.987 0 0 0 0.1,-0.66 1.963,1.963 0 0 0 -0.1,-0.656 1.531,1.531 0 0 0 -0.304,-0.517 z m -0.23,1.667 a 1.132,1.132 0 0 1 -0.184,0.373 0.837,0.837 0 0 1 -0.3,0.243 0.879,0.879 0 0 1 -0.39,0.087 0.834,0.834 0 0 1 -0.38,-0.087 0.794,0.794 0 0 1 -0.29,-0.243 1.2,1.2 0 0 1 -0.184,-0.38 1.742,1.742 0 0 1 -0.063,-0.49 1.681,1.681 0 0 1 0.074,-0.487 1.174,1.174 0 0 1 0.186,-0.373 0.847,0.847 0 0 1 0.29,-0.24 0.834,0.834 0 0 1 0.38,-0.083 0.794,0.794 0 0 1 0.384,0.086 0.852,0.852 0 0 1 0.293,0.244 1.182,1.182 0 0 1 0.187,0.376 1.83,1.83 0 0 1 0,0.974 z M 4.473,17.537 A 1.584,1.584 0 0 0 3.887,17.37 C 3.687,17.354 3.497,17.347 3.313,17.347 H 2 v 4.33 H 2.587 V 19.97 h 0.7 a 4.257,4.257 0 0 0 0.7,-0.05 1.392,1.392 0 0 0 0.483,-0.156 1.21,1.21 0 0 0 0.427,-0.44 1.352,1.352 0 0 0 0.156,-0.67 1.506,1.506 0 0 0 -0.146,-0.667 1.01,1.01 0 0 0 -0.434,-0.45 z M 4.347,19.1 A 0.677,0.677 0 0 1 4.04,19.4 0.875,0.875 0 0 1 3.753,19.47 3.981,3.981 0 0 1 3.34,19.49 H 2.587 v -1.666 h 0.75 a 3.778,3.778 0 0 1 0.416,0.02 0.728,0.728 0 0 1 0.287,0.07 0.68,0.68 0 0 1 0.307,0.3 0.933,0.933 0 0 1 0.1,0.443 0.961,0.961 0 0 1 -0.1,0.443 z M 8.46,17.347 h 0.5500001 v 4.337 H 8.46 Z"/>

</svg>