<?xml version="1.0" encoding="UTF-8"?>
<svg width="24px" fill="#44739e" height="24px" viewBox="0 0 24 24" version="1.1" xmlns="http://www.w3.org/2000/svg" xmlns:xlink="http://www.w3.org/1999/xlink">
            <path d="M 17.01,6.358 A 3.4,3.4 0 0 1 15.974,6.115 C 15.836,6.065 15.68,6.009 15.467,5.943 A 11.766,11.766 0 0 0 14.252,5.615 l -1.577,0.07 -0.012,0.007 A 4.1,4.1 0 0 1 11.355,6.192 7.365,7.365 0 0 1 7.955,6.183 5.07,5.07 0 0 1 7.218,5.934 L 5.978,5.99 5.943,6.013 a 0.951,0.951 0 0 1 -0.3,0.133 v 13.9 a 0.777,0.777 0 0 0 0.765,0.786 h 11.023 a 0.663,0.663 0 0 0 0.652,-0.671 V 6.292 A 4.137,4.137 0 0 1 17.01,6.358 Z M 6.393,9.638 a 0.3,0.3 0 0 1 0.3,-0.3 h 1.136 a 0.3,0.3 0 0 1 0.3,0.3 v 0 a 0.3,0.3 0 0 1 -0.3,0.3 H 6.69 a 0.3,0.3 0 0 1 -0.3,-0.3 z m 2.5,10.132 h -2.2 a 0.293,0.293 0 0 1 0,-0.585 h 2.2 a 0.293,0.293 0 1 1 0,0.585 z m -2.5,-2.277 a 0.3,0.3 0 0 1 0.3,-0.3 h 1.136 a 0.3,0.3 0 1 1 0,0.6 H 6.69 a 0.3,0.3 0 0 1 -0.297,-0.3 z m 2.5,-1.609 h -2.2 a 0.292,0.292 0 0 1 0,-0.584 h 2.2 a 0.292,0.292 0 1 1 0,0.584 z m -2.5,-2.369 a 0.3,0.3 0 0 1 0.3,-0.3 h 1.136 a 0.3,0.3 0 1 1 0,0.6 H 6.69 a 0.3,0.3 0 0 1 -0.297,-0.3 z m 2.5,-1.532 h -2.2 a 0.293,0.293 0 0 1 0,-0.585 h 2.2 a 0.293,0.293 0 1 1 0,0.585 z m 0,-4.126 h -2.2 a 0.293,0.293 0 0 1 0,-0.585 h 2.2 a 0.293,0.293 0 1 1 0,0.585 z m 5.489,6.355 a 0.215,0.215 0 0 1 -0.1,0.178 0.436,0.436 0 0 1 -0.483,0 0.215,0.215 0 0 1 -0.1,-0.178 v -2.376 h -0.681 a 0.4,0.4 0 0 0 -0.243,0.073 0.212,0.212 0 0 0 -0.1,0.178 v 2.125 a 0.215,0.215 0 0 1 -0.1,0.178 0.4,0.4 0 0 1 -0.242,0.073 0.394,0.394 0 0 1 -0.241,-0.073 0.212,0.212 0 0 1 -0.1,-0.178 v -2.125 a 0.213,0.213 0 0 0 -0.1,-0.178 0.4,0.4 0 0 0 -0.243,-0.073 h -0.684 v 2.376 a 0.218,0.218 0 0 1 -0.1,0.18 0.367,0.367 0 0 1 -0.241,0.071 c -0.231,-0.007 -0.346,-0.074 -0.346,-0.2 V 11.71 a 0.319,0.319 0 0 1 0.148,-0.265 0.593,0.593 0 0 1 0.362,-0.109 h 0.852 a 1.22,1.22 0 0 1 0.683,0.191 1.929,1.929 0 0 1 0.683,-0.191 h 0.852 a 0.593,0.593 0 0 1 0.362,0.109 0.319,0.319 0 0 1 0.148,0.265 z M 17.5,9.078 v 0.005 a 0.37,0.37 0 0 1 -0.524,0 L 16.389,8.5 v 10.1 l 0.581,-0.581 a 0.37,0.37 0 0 1 0.524,0 v 0 a 0.37,0.37 0 0 1 0,0.524 l -1.145,1.146 a 0.43,0.43 0 0 1 -0.608,0 L 14.6,18.542 a 0.371,0.371 0 0 1 0,-0.523 v 0 a 0.37,0.37 0 0 1 0.524,0 l 0.57,0.57 V 8.439 l -0.643,0.644 a 0.371,0.371 0 0 1 -0.525,0 v 0 a 0.37,0.37 0 0 1 0,-0.524 l 1.2,-1.2 a 0.43,0.43 0 0 1 0.613,0 l 1.155,1.2 A 0.369,0.369 0 0 1 17.5,9.078 Z M 19.938,2 h -1.411 v 3.072 a 0.9,0.9 0 0 0 -0.229,0.045 2.465,2.465 0 0 1 -0.97,0.142 1.706,1.706 0 0 1 -0.536,-0.136 c -0.151,-0.054 -0.34,-0.12 -0.6,-0.2 A 8.091,8.091 0 0 0 12.992,4.447 2.676,2.676 0 0 0 11.814,4.82 2.521,2.521 0 0 1 10.983,5.127 5.56,5.56 0 0 1 8.439,5.134 3.667,3.667 0 0 1 7.769,4.894 2.511,2.511 0 0 0 6.653,4.627 H 6.64 a 3.032,3.032 0 0 0 -1.3,0.3 V 2.386 A 0.386,0.386 0 0 0 4.952,2 h -0.89 a 0.387,0.387 0 1 0 0,0.773 H 4.179 A 0.386,0.386 0 0 1 4.566,3.159 V 20.722 A 1.278,1.278 0 0 0 5.844,22 H 18.022 A 1.278,1.278 0 0 0 19.3,20.722 V 3.159 a 0.386,0.386 0 0 1 0.386,-0.386 h 0.252 a 0.387,0.387 0 1 0 0,-0.773 z m -1.372,18.151 a 1.146,1.146 0 0 1 -1.135,1.154 H 6.412 A 1.26,1.26 0 0 1 5.164,20.036 V 5.7 L 5.4,5.691 A 0.523,0.523 0 0 0 5.676,5.608 C 5.71,5.585 5.745,5.563 5.776,5.541 L 5.829,5.508 7.307,5.442 7.359,5.464 a 4.731,4.731 0 0 0 0.717,0.247 6.9,6.9 0 0 0 3.173,0 3.664,3.664 0 0 0 1.174,-0.443 l 0.064,-0.036 0.05,-0.028 1.75,-0.078 h 0.028 a 12.443,12.443 0 0 1 1.294,0.346 c 0.224,0.07 0.385,0.128 0.528,0.18 a 2.941,2.941 0 0 0 0.906,0.215 3.717,3.717 0 0 0 1.219,-0.12 l 0.3,-0.081 z"/>

</svg>