<svg xmlns="http://www.w3.org/2000/svg" viewBox="0 0 24 24"><path fill="#44739e" d="M14.959 8.2A.06.06 0 0 0 15 8.183a.5.5 0 0 0 .118-.141.7.7 0 0 0 .076-.184.13.13 0 0 0-.043-.142c-.039-.023-.083 0-.1.06A.4.4 0 0 1 15 7.9a.4.4 0 0 1-.076.1.13.13 0 0 0-.039.1c-.002.05.032.1.074.1m-2.231 2.4a.06.06 0 0 0 .037-.015.5.5 0 0 0 .117-.141.7.7 0 0 0 .076-.185.13.13 0 0 0-.043-.141c-.039-.023-.083 0-.1.06a.4.4 0 0 1-.052.122.4.4 0 0 1-.076.1.12.12 0 0 0-.039.1c.003.053.038.1.08.1m2.917 2.772a.06.06 0 0 0 .037-.015.5.5 0 0 0 .117-.141.7.7 0 0 0 .076-.184.13.13 0 0 0-.042-.141c-.039-.023-.083 0-.1.06a.5.5 0 0 1-.052.122.4.4 0 0 1-.076.1.12.12 0 0 0-.039.1c.002.051.034.1.079.099m1.802-3.293a.06.06 0 0 0 .037-.015.5.5 0 0 0 .117-.141.7.7 0 0 0 .077-.184.13.13 0 0 0-.043-.141c-.039-.023-.083 0-.1.06a.4.4 0 0 1-.052.122.4.4 0 0 1-.076.1.13.13 0 0 0-.039.1c.002.051.037.1.079.099m1.559 3.029c-.039-.022-.083 0-.1.061a.4.4 0 0 1-.052.122.4.4 0 0 1-.076.1.12.12 0 0 0-.039.1c0 .06.035.108.077.108a.06.06 0 0 0 .037-.015.5.5 0 0 0 .118-.141.8.8 0 0 0 .076-.185.13.13 0 0 0-.041-.15m-6.991-9.244a8.116 8.116 0 1 0 8.116 8.116 8.115 8.115 0 0 0-8.116-8.116m-5.742 8.187a.62.62 0 0 1-.516.335.4.4 0 0 1-.076 0 .65.65 0 0 1-.442-.328 1 1 0 0 1-.12-.278 1.4 1.4 0 0 1-.05-.371 5.7 5.7 0 0 1 .686-1.789 5.7 5.7 0 0 1 .685 1.78 1.3 1.3 0 0 1-.167.651m1.218-2.987a1 1 0 0 1-.12-.278 1.3 1.3 0 0 1-.05-.371 5.7 5.7 0 0 1 .685-1.789 5.7 5.7 0 0 1 .686 1.789 1.26 1.26 0 0 1-.168.647.62.62 0 0 1-.515.335.4.4 0 0 1-.077-.005.65.65 0 0 1-.441-.328M8.93 15.82a.63.63 0 0 1-.516.335.4.4 0 0 1-.076-.005.65.65 0 0 1-.442-.328 1 1 0 0 1-.12-.278 1.4 1.4 0 0 1-.05-.371 5.7 5.7 0 0 1 .686-1.789 5.7 5.7 0 0 1 .688 1.789 1.3 1.3 0 0 1-.17.647m1.283-4.087a.63.63 0 0 1-.516.335.4.4 0 0 1-.076 0 .65.65 0 0 1-.442-.328 1 1 0 0 1-.12-.278 1.4 1.4 0 0 1-.05-.372A5.7 5.7 0 0 1 9.7 9.3a5.7 5.7 0 0 1 .685 1.788 1.3 1.3 0 0 1-.172.645m1.213-4.521a.4.4 0 0 1-.076 0 .64.64 0 0 1-.442-.328 1 1 0 0 1-.12-.278 1.4 1.4 0 0 1-.05-.371 5.7 5.7 0 0 1 .686-1.789 5.7 5.7 0 0 1 .685 1.789 1.3 1.3 0 0 1-.167.647.63.63 0 0 1-.516.33M13.054 15a.62.62 0 0 1-.515.335l-.076-.006a.65.65 0 0 1-.442-.329 1 1 0 0 1-.12-.279 1.3 1.3 0 0 1-.05-.371 5.7 5.7 0 0 1 .686-1.788 5.7 5.7 0 0 1 .685 1.788 1.26 1.26 0 0 1-.168.65m0-4.329a.62.62 0 0 1-.515.335L12.463 11a.65.65 0 0 1-.442-.327 1 1 0 0 1-.12-.279 1.3 1.3 0 0 1-.05-.371 5.7 5.7 0 0 1 .686-1.788 5.7 5.7 0 0 1 .685 1.788 1.26 1.26 0 0 1-.168.643Zm1.2-2.4a1 1 0 0 1-.119-.278 1.4 1.4 0 0 1-.051-.372 5.7 5.7 0 0 1 .686-1.788 5.7 5.7 0 0 1 .685 1.788 1.26 1.26 0 0 1-.167.648.62.62 0 0 1-.516.335.4.4 0 0 1-.076-.005.65.65 0 0 1-.444-.334Zm1.719 5.172a.62.62 0 0 1-.515.335.4.4 0 0 1-.076-.006.65.65 0 0 1-.442-.327 1 1 0 0 1-.12-.279 1.3 1.3 0 0 1-.05-.371A5.7 5.7 0 0 1 15.453 11a5.7 5.7 0 0 1 .686 1.788 1.26 1.26 0 0 1-.168.649Zm1.8-3.293a.62.62 0 0 1-.516.335.4.4 0 0 1-.076-.006.65.65 0 0 1-.442-.327 1 1 0 0 1-.12-.279 1.4 1.4 0 0 1-.05-.371 5.7 5.7 0 0 1 .686-1.788 5.7 5.7 0 0 1 .686 1.786 1.3 1.3 0 0 1-.167.644Zm.855 3.847-.076-.006a.65.65 0 0 1-.442-.327 1 1 0 0 1-.12-.279 1.4 1.4 0 0 1-.05-.371 5.7 5.7 0 0 1 .686-1.788 5.7 5.7 0 0 1 .685 1.788 1.27 1.27 0 0 1-.167.647.62.62 0 0 1-.515.33ZM11.8 6.33c-.039-.022-.083 0-.1.06a.4.4 0 0 1-.052.123.4.4 0 0 1-.076.1.12.12 0 0 0-.039.095c0 .061.035.109.077.109a.1.1 0 0 0 .037-.015.5.5 0 0 0 .117-.141.7.7 0 0 0 .077-.185.13.13 0 0 0-.041-.146m-5.854 5.657a.06.06 0 0 0 .037-.016.5.5 0 0 0 .118-.14.8.8 0 0 0 .076-.185.13.13 0 0 0-.043-.142c-.039-.022-.083 0-.1.06a.4.4 0 0 1-.052.122.4.4 0 0 1-.076.1.12.12 0 0 0-.039.1c.002.053.033.101.079.101m3.94-.319a.06.06 0 0 0 .037-.015.5.5 0 0 0 .117-.141.7.7 0 0 0 .077-.184.13.13 0 0 0-.043-.142c-.039-.023-.083 0-.1.06a.4.4 0 0 1-.052.122.4.4 0 0 1-.076.1.13.13 0 0 0-.039.1c.002.052.037.101.079.1M8.6 15.756a.06.06 0 0 0 .037-.016.5.5 0 0 0 .117-.141.7.7 0 0 0 .077-.184.13.13 0 0 0-.043-.142c-.039-.023-.083 0-.1.06a.4.4 0 0 1-.052.122.4.4 0 0 1-.076.1.13.13 0 0 0-.039.1c.005.052.04.101.079.101m4.128-.826a.06.06 0 0 0 .037-.015.5.5 0 0 0 .117-.141.7.7 0 0 0 .076-.184.13.13 0 0 0-.043-.141c-.039-.023-.083 0-.1.06a.4.4 0 0 1-.052.122.4.4 0 0 1-.076.1.13.13 0 0 0-.039.1c.003.051.038.1.08.099M8.2 9a.06.06 0 0 0 .037-.016.5.5 0 0 0 .117-.14.7.7 0 0 0 .076-.185.13.13 0 0 0-.042-.142c-.039-.022-.084 0-.1.06a.5.5 0 0 1-.052.123.4.4 0 0 1-.076.1.12.12 0 0 0-.038.095C8.121 8.95 8.155 9 8.2 9M12 2a10 10 0 1 0 10 10A10 10 0 0 0 12 2m0 18.766a8.787 8.787 0 1 1 8.786-8.786A8.786 8.786 0 0 1 12 20.766"/></svg>