<?xml version="1.0" encoding="UTF-8"?>
<svg width="24px" fill="#44739e" height="24px" viewBox="0 0 24 24" version="1.1" xmlns="http://www.w3.org/2000/svg" xmlns:xlink="http://www.w3.org/1999/xlink">
            <path d="m 7.939,17.389 h 1.17 v -1.143 -0.864 h -1.17 z m 1.3940002,0.280001 H 10.984 v 1.121 H 9.3330002 Z M 7.939,13.982 v 1.12 h 1.17 v -1.12 H 8.782 Z m 0.843,4.808 h 0.327 v -1.121 h -1.17 q 0,1.121 0.843,1.121 z M 5.678,17.669001 h 1.651 v 1.121 H 5.678 Z M 4.284,15.1 h 1.17 V 13.98 H 5.127 Q 4.284,13.982 4.284,15.1 Z m 0.843,3.69 h 0.327 v -1.121 h -1.17 q 0,1.121 0.843,1.121 z m 0.551,-4.808 h 1.651 v 1.12 H 5.678 Z m -1.394,3.407 h 1.17 V 16.246 15.382 H 4.284 Z M 14.728,2 a 58.256,58.256 0 0 0 -5.9,9.192 5.456,5.456 0 1 0 2.466,9.516 6.912,6.912 0 0 0 2.687,0.867 6.055,6.055 0 0 0 0.773,0.038 6.912,6.912 0 0 0 6.932,-6.955 C 21.683,11.66 17.116,5.1 14.728,2 Z M 7.773,21.227 a 4.683,4.683 0 1 1 4.683,-4.683 4.689,4.689 0 0 1 -4.683,4.683 z M 19.01,16.372 v 0 a 4.305,4.305 0 0 1 -0.773,1.306 4.456,4.456 0 0 1 -1.19,1 0.77019381,0.77019381 0 1 1 -0.765,-1.337 h -0.007 a 3.1,3.1 0 0 0 0.772,-0.68 2.692,2.692 0 0 0 0.526,-0.866 0.775,0.775 0 0 1 1.438,0.578 z"/>

</svg>