<?xml version="1.0" encoding="UTF-8"?>
<svg width="24px" fill="#44739e" height="24px" viewBox="0 0 24 24" version="1.1" xmlns="http://www.w3.org/2000/svg" xmlns:xlink="http://www.w3.org/1999/xlink">
            <path d="m 18.743713,16.111952 a 0.554,0.554 0 0 1 -0.554,0.555 h -4.546001 v -5.255 h 2.755001 v 0.188 a 0.807,0.807 0 0 0 0.722,0.8 V 8.8399521 a 0.807,0.807 0 0 0 -0.722,0.8 v 0.188 h -2.782001 a 2.348,2.348 0 0 0 -1.825,-1.937 0.889,0.889 0 0 0 0.118,-0.444 v -0.185 a 0.9,0.9 0 0 0 -0.9,-0.9 H 8.2867124 v -0.338 a 2.056,2.056 0 0 0 1.7729996,-1.985 2.077,2.077 0 0 0 -2.1299996,-2.015 2.077,2.077 0 0 0 -2.13,2.015 2.071,2.071 0 0 0 2.028,2.013 v 0.309 h -0.738 l 1.554,0.816 -0.588,0.663 0.588,0.715 h 1.7489996 a 1.953,1.953 0 0 1 0.624,0.1 H 4.9167124 a 1.609,1.609 0 0 0 -1.6,1.6109999 v 1.62 l -0.463,-0.282 -0.485,1.083 v 5.357 a 2.348,2.348 0 0 0 1.335,2.119 1.06,1.06 0 0 0 -0.051,0.1 l -0.076,0.171 a 1.133,1.133 0 0 0 1.037,1.59 h 6.8389996 a 1.133,1.133 0 0 0 1.049,-1.558 l -0.069,-0.172 a 1.177,1.177 0 0 0 -0.077,-0.155 2.351,2.351 0 0 0 1.279,-1.891 h 5.109001 a 1.581,1.581 0 0 0 1.582,-1.581 v 0 -3.663 h -1.582 z M 6.6157124,4.0389521 a 1.262,1.262 0 0 1 1.314,-1.2 1.262,1.262 0 0 1 1.314,1.2 1.262,1.262 0 0 1 -1.314,1.2 1.262,1.262 0 0 1 -1.314,-1.2 z m -2.616,5.6 v 2.4689999 l 0.344,-1.546 V 9.3139521 a 1.116,1.116 0 0 1 0.206,-0.1 v 1.0829999 l 0.339,0.159 V 9.1499521 h 0.234 v 1.3609999 l 0.34,0.166 V 9.1489521 h 0.211 v 1.5889999 l 0.339,0.151 V 9.1489521 h 0.264 v 1.8229999 l 0.339,0.148 V 9.1489521 h 0.29 v 1.4459999 l 0.19,-0.488 0.149,0.054 V 9.1489521 h 0.229 v 1.1439999 l 0.339,0.121 V 9.1489521 h 0.292 v 1.2999999 l 0.339,0.144 V 9.1489521 h 2.8469996 a 1.106,1.106 0 0 1 0.72,0.267 1.941,1.941 0 0 1 0.33,1.0849999 v 7.14 a 1.946,1.946 0 0 1 -1.946,1.946 H 5.4647124 a 1.943,1.943 0 0 1 -1.658,-0.928 v -8.391 a 1.119,1.119 0 0 1 0.193,-0.6299999 z m 16.7330006,0.226 a 0.617,0.617 0 1 0 0.617,0.6169999 0.618,0.618 0 0 0 -0.617,-0.6169999 z m -2.169,0 a 0.617,0.617 0 1 0 0.617,0.6169999 0.618,0.618 0 0 0 -0.617,-0.6169999 z m -1.239,-1.56 v 4.4949999 h 4.594 V 8.3049521 Z m 1.239,3.1509999 a 0.974,0.974 0 1 1 0.974,-0.974 0.975,0.975 0 0 1 -0.974,0.974 z m 2.169,0 a 0.974,0.974 0 1 1 0.974,-0.974 0.975,0.975 0 0 1 -0.974,0.974 z m -14.9040006,7.362 h 4.1999996 a 1.659,1.659 0 0 0 1.659,-1.659 v -6.086 a 1.66,1.66 0 0 0 -1.659,-1.6599999 H 8.5717124 l -0.128,1.4649999 -1.423,-0.4 -0.408,0.8 -1.969,-0.725 -0.471,1.854 v 4.752 a 1.659,1.659 0 0 0 1.656,1.659 z"/>

</svg>