<svg xmlns="http://www.w3.org/2000/svg" viewBox="0 0 24 24"><path fill="#44739e" d="M18.599 16.088a.554.554 0 0 1-.554.555h-4.546v-5.255h2.755v.188a.807.807 0 0 0 .722.8v-3.56a.807.807 0 0 0-.722.8v.188h-2.782a2.35 2.35 0 0 0-1.824-1.936.9.9 0 0 0 .118-.444v-.185a.9.9 0 0 0-.9-.9H8.143v-.338a2.056 2.056 0 0 0 1.773-1.985 2.077 2.077 0 0 0-2.13-2.015 2.077 2.077 0 0 0-2.13 2.015 2.07 2.07 0 0 0 2.028 2.013v.309h-.738l1.554.816-.588.663.588.714h1.749a2 2 0 0 1 .624.1h-6.1a1.61 1.61 0 0 0-1.6 1.611v1.62l-.463-.282-.485 1.083v5.357a2.35 2.35 0 0 0 1.335 2.119 1 1 0 0 0-.051.1l-.076.171A1.133 1.133 0 0 0 4.47 22h6.839a1.133 1.133 0 0 0 1.048-1.558l-.07-.172a1 1 0 0 0-.076-.155 2.35 2.35 0 0 0 1.279-1.891h5.109a1.58 1.58 0 0 0 1.582-1.581V12.98h-1.582ZM6.472 4.016a1.26 1.26 0 0 1 1.314-1.2 1.26 1.26 0 0 1 1.314 1.2 1.26 1.26 0 0 1-1.314 1.2 1.26 1.26 0 0 1-1.314-1.2M3.856 9.615v2.469l.344-1.546V9.29a1 1 0 0 1 .206-.1v1.083l.339.159V9.126h.234v1.361l.34.166V9.125h.21v1.589l.34.151v-1.74h.264v1.823l.339.148V9.125h.29v1.446l.19-.488.149.054V9.125h.229v1.144l.339.121V9.125h.292v1.3l.339.144V9.125h2.847a1.1 1.1 0 0 1 .72.267 1.94 1.94 0 0 1 .329 1.085v7.14a1.946 1.946 0 0 1-1.945 1.946h-4.93a1.94 1.94 0 0 1-1.658-.928v-8.391a1.1 1.1 0 0 1 .193-.63Zm16.732.226a.617.617 0 1 0 .617.617.62.62 0 0 0-.617-.617m-2.17 0a.617.617 0 1 0 .618.617.62.62 0 0 0-.617-.617m-1.238-1.56v4.495h4.594V8.281Zm1.239 3.151a.974.974 0 1 1 .974-.974.975.975 0 0 1-.974.974m2.169 0a.974.974 0 1 1 .974-.974.975.975 0 0 1-.974.974M5.685 18.794h4.2a1.66 1.66 0 0 0 1.659-1.659v-6.086a1.66 1.66 0 0 0-1.66-1.66H8.429l-.128 1.465-1.423-.4-.408.8-1.97-.725-.47 1.854v4.752a1.66 1.66 0 0 0 1.656 1.659"/></svg>