<svg xmlns="http://www.w3.org/2000/svg" viewBox="0 0 24 24"><path fill="#44739e" d="m13.095 8.902.22-.081c.055-.023.165-.069.219-.094a4 4 0 0 0 .207-.105 5 5 0 0 0 .394-.263c.047-.035.138-.106.182-.144.045-.039.133-.12.175-.162a5 5 0 0 0 .307-.35 5 5 0 0 0 .262-.394c.03-.05.087-.154.113-.206a5 5 0 0 0 .182-.438c.018-.055.047-.169.062-.225s.045-.168.057-.225a5 5 0 0 0 .037-.231 5 5 0 0 0 .025-.469 5 5 0 0 0-.037-.474 5 5 0 0 0-.038-.232 5 5 0 0 0-.125-.45 4 4 0 0 0-.188-.43 5 5 0 0 0-.113-.207 5 5 0 0 0-.269-.388 7 7 0 0 0-.32-.344 5 5 0 0 0-.174-.162 4 4 0 0 0-.182-.143 4 4 0 0 0-.194-.131 5 5 0 0 0-.413-.225 4 4 0 0 0-.22-.094 4 4 0 0 0-.45-.137 5 5 0 0 0-.465-.076 5 5 0 0 0-.231-.02 4 4 0 0 0-.237 0 5 5 0 0 0-.47.05c-.056.01-.17.032-.225.045a5 5 0 0 0-.232.062 4 4 0 0 0-.22.075 4 4 0 0 0-.218.094 5 5 0 0 0-.414.225 4 4 0 0 0-.194.131 4 4 0 0 0-.182.143 5 5 0 0 0-.495.506 4 4 0 0 0-.268.388 5 5 0 0 0-.213.419 4 4 0 0 0-.087.218 5 5 0 0 0-.126.45 4.5 4.5 0 0 0-.075.707 5 5 0 0 0 .025.468c.007.058.026.173.038.23.011.058.041.17.056.226s.044.17.063.225a5 5 0 0 0 .181.438 4 4 0 0 0 .237.406c.033.05.102.146.138.194a5 5 0 0 0 .307.35c.042.042.13.123.176.162a5 5 0 0 0 .375.281c.05.033.15.096.2.125.051.03.155.082.207.106a5 5 0 0 0 .439.175v.151s.003.02.006.025a.1.1 0 0 0 .025.025c.009.006.028.015.038.02l.056.024c.017.006.052.014.07.019a3 3 0 0 0 .175.037c.026.005.08.01.106.013l.113.012.119.013.125.006c.033.002.099.006.132.006h.262c.033 0 .098-.004.131-.006l.126-.006c.031-.002.094-.01.125-.013l.113-.012.1-.013a3 3 0 0 0 .175-.037c.018-.005.052-.013.07-.019a1 1 0 0 0 .093-.044.1.1 0 0 0 .025-.025c.003-.005.006-.025.006-.025v-.143.145m5.122 11.776-.006.095-.025.087-.038.094-.056.087-.069.088-.081.081-.093.081-.113.075-.12.07-.137.068-.144.062-.157.057-.162.05-.17.05-.181.037-.188.032-.188.024-.194.02-.194.006-.2.006-.201-.006-.194-.007-.195-.019-.187-.024-.188-.032-.181-.037-.17-.05-.162-.05-.157-.057-.144-.062-.138-.069-.119-.069-.112-.075-.094-.081-.082-.081-.069-.088-.056-.087-.038-.094-.025-.087-.006-.094h-.006v-1.499c0-.823-.059-2.465-.082-3.287-.005-.205-.013-.615-.025-.82a11 11 0 0 0-.069-.823 4 4 0 0 0-.087-.413 2 2 0 0 0-.075-.194 1.4 1.4 0 0 0-.107-.175 1 1 0 0 0-.144-.15 1 1 0 0 0-.182-.1 1 1 0 0 0-.2-.037c-.051-.007-.206-.013-.206-.013s-.16.006-.213.013c-.05.006-.152.02-.2.037a1 1 0 0 0-.182.1 1 1 0 0 0-.144.15 1.4 1.4 0 0 0-.106.175 2 2 0 0 0-.076.194 4 4 0 0 0-.081.413c-.03.205-.063.617-.075.824-.013.204-.02.614-.025.819-.023.822-.082 2.464-.082 3.287v1.499l-.006.081-.025.075-.038.075-.056.075-.069.075-.081.075-.094.069-.113.062-.119.063-.138.056-.144.056-.156.044-.163.044-.17.044-.181.031-.188.025-.187.025-.194.012-.194.013h-.401l-.194-.013-.194-.012-.188-.025-.188-.025-.182-.031-.17-.044-.162-.044-.157-.044-.144-.056-.137-.056-.12-.063-.112-.062-.093-.069-.082-.075-.068-.075-.057-.075-.037-.075-.025-.075-.007-.081h-.006v-3.636c0-.299.032-.896.05-1.194.018-.296.064-.887.094-1.181.015-.148.052-.441.075-.587s.076-.432.106-.575a11 11 0 0 1 .32-1.138 8 8 0 0 1 .488-1.08 8 8 0 0 1 .313-.506 7 7 0 0 1 .363-.476 7 7 0 0 1 .414-.425c.055-.05.172-.147.231-.193.058-.045.177-.13.238-.17.063-.04.192-.114.257-.15a8 8 0 0 1 .813-.344l.1-.024.101-.006.006.006.013.031.025.032.037.037.057.031.075.032c.022.008.065.024.088.03.024.008.075.02.1.026a7 7 0 0 0 .238.05c.033.006.098.02.131.025.038.006.113.014.15.019l.157.018.163.02.17.012.181.012.182.006.188.007.188.006h.374l.182-.006.188-.013.175-.006c.044-.002.132-.009.176-.013.04-.003.122-.014.163-.018.04-.005.122-.014.162-.02.036-.004.109-.012.144-.018a6 6 0 0 0 .27-.05l.119-.025.1-.025a2 2 0 0 0 .226-.094l.043-.031.032-.037.012-.032s-.004-.006 0-.012c.019-.017.1.006.1.006l.1.025s.416.16.551.219c.068.03.204.09.27.125a5 5 0 0 1 .494.319c.059.045.171.143.226.193a8 8 0 0 1 .413.425c.098.114.278.352.363.476.085.122.24.376.314.506a9 9 0 0 1 .269.53c.06.135.169.411.22.55s.14.42.18.563a12 12 0 0 1 .244 1.15c.023.146.065.439.081.587a33 33 0 0 1 .145 2.375v3.636"/></svg>