<svg xmlns="http://www.w3.org/2000/svg" viewBox="0 0 24 24"><path fill="#44739e" d="M12.42 2v.853l-.008-.013-5.089 2.939H4.847v.625h4.466v3.033h1.619V6.404h1.488v8.687a2 2 0 0 1 .626.075V6.404h.443v8.842a2 2 0 0 1 .625.45V6.405h5.039v-.624h-1.055l-5.052-2.917V2Zm0 1.558v2.221H8.574Zm.626.027 3.801 2.194h-3.801ZM9.618 6.404h1.009v1.408H9.618ZM5.671 8.68v1.626H7.29V8.681Zm1.825 0v1.626h1.623V8.681Zm-1.825 1.81v1.626H7.29V10.49Zm1.825 0v1.626h1.623V10.49Zm1.817 0v1.626h1.619V10.49Zm-3.679 1.87a3.086 3.086 0 0 0 .854 4.036 2.7 2.7 0 0 1 .604-.092c.083 0 .137.008.222.015a2.22 2.22 0 0 1 2.22-1.661 2.3 2.3 0 0 1 1.604.557 3 3 0 0 0 .251-1.313 3.04 3.04 0 0 0-.409-1.541Zm4.025 2.634a2.136 2.136 0 0 0-2.078 1.642.7.7 0 0 0-.229-.008 2.136 2.136 0 0 0-2.139 2.128 2.136 2.136 0 0 0 2.146 2.13 2 2 0 0 0 .435-.046 2.136 2.136 0 0 0 3.642.26 2.13 2.13 0 0 0 3.066-2.909 2.131 2.131 0 0 0-3.222-2.452 2.15 2.15 0 0 0-1.626-.748Z"/></svg>