<?xml version="1.0" encoding="UTF-8"?>
<svg width="24px" fill="#44739e" height="24px" viewBox="0 0 24 24" version="1.1" xmlns="http://www.w3.org/2000/svg" xmlns:xlink="http://www.w3.org/1999/xlink">
            <path d="M 12.13,2.213 V 3.048 L 12.122,3.035 7.142,5.911 H 4.719 V 6.523 H 9.09 v 2.968 h 1.584 V 6.523 h 1.456 v 8.5 a 1.912,1.912 0 0 1 0.613,0.074 V 6.523 h 0.433 v 8.652 a 1.962,1.962 0 0 1 0.612,0.44 V 6.524 h 4.931 V 5.913 H 17.686 L 12.743,3.058 V 2.213 Z m 0,1.525 V 5.911 H 8.366 Z m 0.613,0.026 3.719,2.147 H 12.743 Z M 9.388,6.523 h 0.987 V 7.9 H 9.388 Z M 5.526,8.75 v 1.591 H 7.11 v -1.59 z m 1.786,0 v 1.591 H 8.9 v -1.59 z m -1.786,1.771 v 1.591 H 7.11 v -1.591 z m 1.786,0 v 1.591 H 8.9 v -1.591 z m 1.778,0 v 1.591 h 1.584 v -1.591 z m -3.6,1.83 A 3.018,3.018 0 0 0 6.325,16.3 2.624,2.624 0 0 1 6.916,16.21 c 0.081,0 0.134,0.008 0.217,0.015 a 2.172,2.172 0 0 1 2.173,-1.625 2.249,2.249 0 0 1 1.569,0.545 2.918,2.918 0 0 0 0.246,-1.285 2.97,2.97 0 0 0 -0.4,-1.508 z m 3.938,2.577 A 2.092,2.092 0 0 0 7.395,16.535 0.731,0.731 0 0 0 7.171,16.527 2.088,2.088 0 0 0 5.078,18.61 v 0 a 2.092,2.092 0 0 0 2.1,2.084 2.167,2.167 0 0 0 0.425,-0.045 2.089,2.089 0 0 0 3.564,0.254 2.084,2.084 0 0 0 3,-2.846 2.085,2.085 0 0 0 -3.153,-2.4 2.1,2.1 0 0 0 -1.591,-0.732 z"/>

</svg>