<?xml version="1.0" encoding="UTF-8" standalone="no"?>
<svg
   width="24"
   height="24"
   fill="#44739e" 
   viewBox="0 0 24 24"
   version="1.1"
   xmlns="http://www.w3.org/2000/svg"
   xmlns:svg="http://www.w3.org/2000/svg">
  <path
     d="M8.77,10.91c-0.79,0-1.42,0.44-1.42,1.42c0,0.96,0.63,1.42,1.42,1.42c0.78,0,1.42-0.46,1.42-1.42
	C10.19,11.35,9.56,10.91,8.77,10.91z M8.77,13.08c-0.35,0-0.62-0.27-0.62-0.74c0-0.52,0.26-0.75,0.62-0.75
	c0.35,0,0.61,0.23,0.61,0.75C9.39,12.81,9.12,13.08,8.77,13.08z M13.89,10.94c0,0.01,0.01,0.03,0.03,0.03h0.6
	c0.05,0,0.09,0.04,0.09,0.09v0.52c0,0.02-0.01,0.03-0.03,0.03h-0.66c-0.01,0-0.03,0.01-0.03,0.03v1c0,0.39,0.15,0.5,0.39,0.5
	c0.11,0,0.29-0.07,0.32-0.07c0.01,0,0.03,0.01,0.03,0.03v0.5c0,0.04-0.02,0.06-0.04,0.08c-0.11,0.06-0.29,0.1-0.56,0.1
	c-0.47,0-0.91-0.24-0.91-0.99v-1.75c0-0.15,0.06-0.3,0.16-0.41c0.13-0.14,0.54-0.4,0.59-0.4c0.02,0,0.03,0.01,0.03,0.03L13.89,10.94
	z M4.39,11.05c0-0.05,0.04-0.09,0.09-0.09h1.04c1.02,0,1.54,0.61,1.54,1.4c0,0.79-0.59,1.34-1.56,1.34h-0.3
	c-0.01,0-0.03,0.01-0.03,0.03v1.28c0,0.02-0.01,0.03-0.03,0.03c-0.05,0-0.46-0.26-0.59-0.4c-0.1-0.11-0.16-0.25-0.16-0.41V11.05z
	 M6.29,12.33c0-0.34-0.22-0.65-0.79-0.65h-0.3c-0.01,0-0.03,0.01-0.03,0.03v1.26c0,0.01,0.01,0.03,0.03,0.03h0.32
	C6.2,12.99,6.29,12.52,6.29,12.33z M12.71,12.86c0,0.58-0.41,0.89-1.22,0.89c-0.46,0-0.95-0.16-0.96-0.16
	c-0.04-0.01-0.06-0.05-0.06-0.08v-0.54c0-0.02,0.02-0.03,0.03-0.03c0,0,0.01,0,0.01,0c0.17,0.06,0.73,0.19,1.03,0.19
	c0.18,0,0.27-0.03,0.33-0.09c0.04-0.04,0.06-0.08,0.06-0.14c0-0.18-0.22-0.22-0.43-0.27c-0.03-0.01-0.02,0-0.09-0.02
	c-0.47-0.11-0.96-0.22-0.96-0.83c0-0.27,0.11-0.49,0.32-0.64c0.21-0.15,0.51-0.23,0.87-0.23c0.33,0,0.71,0.11,0.84,0.15
	c0.04,0.01,0.06,0.05,0.06,0.09v0.54c0,0.02-0.03,0.04-0.05,0.03c-0.37-0.14-0.71-0.19-0.95-0.19c-0.19,0-0.32,0.08-0.32,0.21
	c0,0.15,0.18,0.19,0.41,0.24c0.03,0.01,0.15,0.04,0.19,0.04c0.19,0.04,0.39,0.08,0.55,0.19C12.6,12.36,12.71,12.57,12.71,12.86
	L12.71,12.86z M16.9,13.7c-0.01,0-0.02-0.01-0.02-0.02v-1.63c0-0.36-0.12-0.52-0.41-0.52c-0.1,0-0.23,0.04-0.35,0.11
	c-0.12,0.07-0.22,0.13-0.25,0.15c-0.01,0.01-0.02,0.02-0.02,0.04v1.85c0,0.01-0.01,0.02-0.02,0.02h-0.73
	c-0.01,0-0.02-0.01-0.02-0.02v-2.63c0-0.04,0.04-0.08,0.08-0.08h0.67c0.01,0,0.02,0.01,0.02,0.02v0.21c0,0.01,0.01,0.02,0.02,0.02
	c0,0,0.01,0,0.01,0l0.02-0.02c0.08-0.06,0.21-0.13,0.29-0.17c0.18-0.07,0.38-0.11,0.54-0.11c0.59,0,0.91,0.34,0.91,0.99v1.77
	c0,0.01-0.01,0.02-0.02,0.02L16.9,13.7L16.9,13.7z M18.25,13.7c-0.01,0-0.02-0.01-0.02-0.02V9.66c0-0.01,0-0.02,0.02-0.02
	c0.05,0,0.45,0.26,0.58,0.4c0.1,0.11,0.15,0.25,0.15,0.4v3.24c0,0.01-0.01,0.02-0.02,0.02H18.25z M8.77,6.71
	c-0.01,0-0.03,0-0.04,0.01C8.61,6.81,8.5,6.92,8.41,7.04c-0.03,0.03-0.03,0.07,0,0.1c0.09,0.11,0.19,0.22,0.3,0.3
	c0.02,0.02,0.04,0.02,0.06,0.02c0.02,0,0.04-0.01,0.06-0.02c0.11-0.09,0.21-0.19,0.3-0.3c0.03-0.04,0.03-0.07,0-0.11
	c-0.09-0.12-0.2-0.22-0.32-0.31C8.8,6.71,8.79,6.71,8.77,6.71z M8.77,7.69c-0.06,0-0.12,0-0.18,0c-0.02,0-0.04,0.01-0.06,0.02
	C8.51,7.74,8.5,7.78,8.5,7.8c0,0.13,0.01,0.79,0.02,1.21c0,0.2,0,0.35,0,0.36c0,0.03,0.02,0.09,0.09,0.09h0.33
	c0.05,0,0.08-0.03,0.09-0.09c0,0,0,0,0,0c0-0.01,0.01-0.57,0.02-1.55V7.81c0-0.02-0.01-0.06-0.03-0.08C9,7.71,8.98,7.7,8.96,7.7
	C8.89,7.69,8.83,7.69,8.77,7.69z M9.61,7.78c-0.08,0-0.14,0.04-0.17,0.11C9.34,8.11,9.27,8.3,9.21,8.54c-0.01,0.03,0,0.05,0.01,0.07
	c0.01,0.01,0.03,0.03,0.06,0.03h0.26c0.06,0,0.08-0.03,0.09-0.06C9.67,8.43,9.7,8.35,9.75,8.23c0,0,0-0.01,0.02-0.01
	c0.01,0,0.01,0,0.02,0l0.13,0.04C9.93,8.28,9.94,8.29,9.95,8.3c0.01,0.02,0.01,0.05,0,0.07c0,0-0.26,0.74-0.34,0.98
	C9.6,9.39,9.6,9.42,9.62,9.44c0.01,0.02,0.04,0.03,0.07,0.03h0.32c0.05,0,0.09-0.02,0.1-0.06c0.01-0.03,0.03-0.08,0.05-0.13
	l0.01-0.02c0.1-0.27,0.24-0.67,0.27-0.79c0.05-0.19,0.07-0.41-0.22-0.51c-0.09-0.03-0.18-0.06-0.26-0.09
	c-0.1-0.03-0.2-0.05-0.28-0.07l-0.01,0C9.65,7.79,9.63,7.78,9.61,7.78z M7.94,7.78c-0.02,0-0.04,0-0.06,0.01l-0.01,0
	C7.78,7.81,7.69,7.84,7.59,7.87C7.51,7.89,7.42,7.92,7.33,7.95C7.04,8.06,7.06,8.27,7.11,8.47c0.03,0.11,0.16,0.49,0.28,0.81
	c0.02,0.05,0.04,0.1,0.05,0.13c0.02,0.04,0.05,0.06,0.1,0.06h0.32c0.04,0,0.06-0.02,0.07-0.03c0.02-0.02,0.02-0.05,0.01-0.09
	C7.86,9.11,7.6,8.37,7.59,8.37c-0.01-0.02-0.01-0.05,0-0.07c0-0.01,0.01-0.02,0.03-0.03l0.13-0.04c0,0,0.01,0,0.02,0
	c0.01,0,0.02,0.01,0.02,0.01c0.05,0.12,0.09,0.2,0.13,0.34C7.93,8.6,7.95,8.63,8.01,8.63h0.26c0.03,0,0.05-0.01,0.06-0.03
	c0.01-0.02,0.02-0.04,0.01-0.07C8.27,8.3,8.2,8.11,8.11,7.9C8.09,7.86,8.04,7.78,7.94,7.78z M9.94,9.71H7.6
	c-0.08,0-0.15,0.07-0.15,0.15v0.29c0,0.09,0.04,0.14,0.12,0.14h2.4c0.08,0,0.12-0.04,0.12-0.14V9.86
	C10.09,9.78,10.02,9.71,9.94,9.71z M21.2,11.99c0-1.64-3.09-4.49-6.37-6.3C11.04,3.6,6.72,2.37,5.3,3.15
	C3.68,4.04,2.8,8.51,2.79,11.99c0,3.51,0.84,7.91,2.51,8.84c1.51,0.83,5.64-0.4,9.53-2.54C18.17,16.44,21.2,13.71,21.2,11.99z
	 M6.44,2.11c2.39,0,6.23,1.51,8.78,2.92c1.46,0.8,3.11,1.98,4.39,3.17C20.84,9.35,22,10.77,22,11.99c0,1.14-0.93,2.48-2.42,3.85
	c-1.27,1.16-2.92,2.3-4.36,3.1C12.75,20.3,9,21.89,6.53,21.89c-0.67,0-1.22-0.12-1.64-0.35c-1.1-0.6-1.8-2.23-2.21-3.82
	C2.23,16.01,2,13.95,2,11.99c0-1.92,0.25-3.98,0.68-5.66c0.53-2.04,1.29-3.39,2.21-3.9C5.27,2.22,5.8,2.11,6.44,2.11z"/>
</svg>
