<?xml version="1.0" encoding="UTF-8"?>
<svg width="24px" fill="#44739e" height="24px" viewBox="0 0 24 24" version="1.1" xmlns="http://www.w3.org/2000/svg" xmlns:xlink="http://www.w3.org/1999/xlink">
            <path d="m 12.384,12.218 a 1.617,1.617 0 0 0 -0.553,-0.192 l -0.19,-0.043 c -0.234,-0.053 -0.419,-0.094 -0.419,-0.245 0,-0.132 0.127,-0.217 0.322,-0.217 a 2.845,2.845 0 0 1 0.964,0.19 0.035,0.035 0 0 0 0.046,-0.03 v -0.542 a 0.091,0.091 0 0 0 -0.065,-0.086 3.19,3.19 0 0 0 -0.85,-0.151 1.481,1.481 0 0 0 -0.882,0.238 0.777,0.777 0 0 0 -0.326,0.651 c 0,0.61 0.5,0.725 0.973,0.837 0.073,0.017 0.061,0.015 0.089,0.02 0.216,0.048 0.439,0.1 0.439,0.275 a 0.186,0.186 0 0 1 -0.06,0.138 0.44,0.44 0 0 1 -0.331,0.086 4.764,4.764 0 0 1 -1.042,-0.2 h -0.011 a 0.033,0.033 0 0 0 -0.034,0.032 v 0.544 a 0.092,0.092 0 0 0 0.061,0.086 3.582,3.582 0 0 0 0.967,0.165 c 0.818,0 1.238,-0.321 1.238,-0.9 a 0.722,0.722 0 0 0 -0.336,-0.656 z m 2.244,0.848 a 1.838,1.838 0 0 1 -0.323,0.071 c -0.247,0 -0.394,-0.115 -0.394,-0.505 V 11.617 A 0.027,0.027 0 0 1 13.937,11.59 H 14.6 a 0.027,0.027 0 0 0 0.027,-0.027 V 11.04 A 0.088,0.088 0 0 0 14.54,10.954 h -0.605 a 0.027,0.027 0 0 1 -0.026,-0.027 v -0.719 c 0,-0.022 -0.01,-0.029 -0.033,-0.029 a 2.305,2.305 0 0 0 -0.6,0.408 0.617,0.617 0 0 0 -0.158,0.411 v 1.766 c 0,0.766 0.443,1.005 0.919,1.005 a 1.25,1.25 0 0 0 0.567,-0.1 0.084,0.084 0 0 0 0.045,-0.076 v -0.5 A 0.027,0.027 0 0 0 14.628,13.066 Z M 10.2,7.907 C 10.108,7.873 10.021,7.844 9.941,7.82 9.841,7.788 9.741,7.765 9.655,7.745 H 9.645 A 0.211,0.211 0 0 0 9.583,7.736 0.184,0.184 0 0 0 9.411,7.852 4.291,4.291 0 0 0 9.178,8.502 0.078,0.078 0 0 0 9.186,8.572 0.077,0.077 0 0 0 9.25,8.597 H 9.51 A 0.083,0.083 0 0 0 9.6,8.538 2.305,2.305 0 0 1 9.727,8.19 c 0,0 0,-0.009 0.021,-0.009 a 0.065,0.065 0 0 1 0.019,0 l 0.132,0.044 a 0.058,0.058 0 0 1 0.03,0.03 0.092,0.092 0 0 1 0,0.067 c 0,0 -0.267,0.747 -0.346,1 a 0.1,0.1 0 0 0 0,0.09 0.088,0.088 0 0 0 0.075,0.031 H 9.98 a 0.1,0.1 0 0 0 0.1,-0.064 c 0.011,-0.032 0.028,-0.078 0.048,-0.133 l 0.007,-0.021 c 0.1,-0.27 0.244,-0.679 0.275,-0.795 0.061,-0.2 0.075,-0.416 -0.21,-0.523 z m 9.5,0.252 A 23.616,23.616 0 0 0 15.255,4.952 C 12.675,3.53 8.8,2 6.377,2 A 3.25,3.25 0 0 0 4.805,2.326 c -0.93,0.513 -1.7,1.875 -2.234,3.941 a 24.022,24.022 0 0 0 -0.687,5.721 23.869,23.869 0 0 0 0.683,5.793 c 0.42,1.613 1.13,3.258 2.238,3.869 A 3.442,3.442 0 0 0 6.464,22 c 2.5,0 6.3,-1.6 8.79,-2.977 a 24.255,24.255 0 0 0 4.409,-3.136 c 1.512,-1.386 2.451,-2.743 2.453,-3.9 C 22.114,10.759 20.941,9.317 19.7,8.159 Z m -4.835,10.2 c -3.93,2.167 -8.1,3.413 -9.637,2.569 -1.691,-0.933 -2.537,-5.389 -2.538,-8.94 0,-3.522 0.9,-8.035 2.538,-8.939 1.437,-0.793 5.8,0.454 9.637,2.569 3.325,1.833 6.445,4.709 6.448,6.37 -0.005,1.741 -3.073,4.512 -6.45,6.37 z M 8.735,10.9 A 1.323,1.323 0 0 0 7.3,12.339 1.333,1.333 0 0 0 8.737,13.775 1.333,1.333 0 0 0 10.173,12.339 1.323,1.323 0 0 0 8.735,10.9 Z m 0,2.19 c -0.356,0 -0.622,-0.271 -0.622,-0.753 0,-0.525 0.266,-0.755 0.622,-0.755 0.356,0 0.622,0.23 0.622,0.755 0,0.484 -0.268,0.755 -0.622,0.755 z m 8.058,-2.176 a 1.615,1.615 0 0 0 -0.545,0.111 1.38,1.38 0 0 0 -0.293,0.167 l -0.023,0.017 a 0.022,0.022 0 0 1 -0.013,0 0.023,0.023 0 0 1 -0.023,-0.023 V 10.978 A 0.018,0.018 0 0 0 15.879,10.961 H 15.2 a 0.079,0.079 0 0 0 -0.079,0.079 v 2.66 a 0.018,0.018 0 0 0 0.017,0.017 h 0.736 A 0.018,0.018 0 0 0 15.9,13.7 v -1.876 a 0.049,0.049 0 0 1 0.02,-0.036 c 0.035,-0.021 0.132,-0.081 0.257,-0.153 a 0.754,0.754 0 0 1 0.355,-0.11 c 0.292,0 0.417,0.156 0.417,0.523 V 13.7 a 0.016,0.016 0 0 0 0.016,0.016 H 17.7 a 0.016,0.016 0 0 0 0.017,-0.017 v -1.787 c -0.005,-0.653 -0.323,-0.998 -0.924,-0.998 z m 1.533,-1.301 c -0.02,0 -0.023,0 -0.023,0.019 V 13.7 a 0.016,0.016 0 0 0 0.016,0.016 h 0.734 A 0.017,0.017 0 0 0 19.07,13.7 V 10.422 A 0.605,0.605 0 0 0 18.915,10.017 2.34,2.34 0 0 0 18.326,9.613 Z M 7.4,9.838 v 0.3 c 0,0.093 0.039,0.138 0.122,0.138 h 2.429 c 0.082,0 0.121,-0.045 0.121,-0.138 v -0.3 A 0.154,0.154 0 0 0 9.919,9.686 H 7.554 A 0.154,0.154 0 0 0 7.4,9.838 Z M 8.568,9.439 H 8.9 A 0.091,0.091 0 0 0 8.99,9.349 V 9.344 c 0,-0.01 0.007,-0.581 0.02,-1.567 V 7.758 A 0.121,0.121 0 0 0 8.979,7.673 0.08,0.08 0 0 0 8.918,7.649 c -0.063,0 -0.125,-0.006 -0.185,-0.006 -0.06,0 -0.122,0 -0.187,0 A 0.084,0.084 0 0 0 8.486,7.668 0.132,0.132 0 0 0 8.454,7.752 c 0,0.128 0.011,0.8 0.016,1.227 0,0.207 0.005,0.357 0.005,0.361 A 0.094,0.094 0 0 0 8.568,9.439 Z M 8.671,7.4 A 0.1,0.1 0 0 0 8.734,7.425 0.1,0.1 0 0 0 8.8,7.4 1.784,1.784 0 0 0 9.1,7.087 0.077,0.077 0 0 0 9.1,6.98 1.737,1.737 0 0 0 8.777,6.662 0.075,0.075 0 0 0 8.732,6.646 0.078,0.078 0 0 0 8.689,6.66 1.755,1.755 0 0 0 8.361,6.982 a 0.075,0.075 0 0 0 0,0.1 1.75,1.75 0 0 0 0.31,0.318 z M 5.438,10.955 H 4.39 a 0.088,0.088 0 0 0 -0.089,0.088 v 3.215 a 0.618,0.618 0 0 0 0.158,0.411 2.3,2.3 0 0 0 0.6,0.407 c 0.024,0 0.033,-0.007 0.033,-0.028 v -1.3 A 0.027,0.027 0 0 1 5.119,13.721 H 5.425 C 6.4,13.725 7,13.171 7,12.371 A 1.39,1.39 0 0 0 5.438,10.955 Z m 0,2.05 H 5.114 A 0.027,0.027 0 0 1 5.087,12.978 V 11.7 a 0.027,0.027 0 0 1 0.027,-0.028 h 0.308 c 0.581,0 0.8,0.319 0.8,0.659 0,0.193 -0.093,0.674 -0.785,0.674 z m 1.946,-3.63 a 0.1,0.1 0 0 0 0.1,0.063 H 7.806 A 0.084,0.084 0 0 0 7.88,9.408 0.1,0.1 0 0 0 7.886,9.318 C 7.807,9.074 7.542,8.33 7.539,8.323 a 0.092,0.092 0 0 1 0,-0.067 A 0.05,0.05 0 0 1 7.57,8.227 L 7.702,8.183 H 7.72 c 0.013,0 0.019,0.005 0.021,0.009 A 2.328,2.328 0 0 1 7.868,8.54 0.08,0.08 0 0 0 7.956,8.597 H 8.217 A 0.067,0.067 0 0 0 8.3,8.5 4.406,4.406 0 0 0 8.067,7.849 0.187,0.187 0 0 0 7.895,7.733 0.217,0.217 0 0 0 7.838,7.74 H 7.824 C 7.738,7.76 7.641,7.783 7.539,7.814 7.46,7.839 7.373,7.868 7.28,7.902 6.991,8.009 7.006,8.225 7.059,8.422 7.089,8.534 7.225,8.917 7.341,9.237 7.356,9.3 7.372,9.343 7.384,9.375 Z"/>

</svg>
