<?xml version="1.0" encoding="UTF-8"?>
<svg xmlns="http://www.w3.org/2000/svg" width="24" height="24" fill="#44739e" viewBox="0 0 24 24"><path d="M5.76 2A3.758 3.758 0 0 0 2 5.76v12.48A3.758 3.758 0 0 0 5.76 22h12.48A3.758 3.758 0 0 0 22 18.24V5.76A3.758 3.758 0 0 0 18.24 2H5.76zm4.838 1.2h.056a.56.56 0 0 1 .213.032.519.519 0 0 1 .356.579.505.505 0 0 1-.436.46.832.832 0 0 1-.307 0 .508.508 0 0 1-.435-.564.532.532 0 0 1 .553-.508zm-5.37 1.532c.121 0 .242.014.362.041.414.1.756.394.918.788a2.117 2.117 0 0 1 .176.689h-.008c.044.383.01.771-.102 1.14a1.677 1.677 0 0 1-.474.76 1.344 1.344 0 0 1-1.077.336 1.534 1.534 0 0 1-.796-.316c-.033.028-.018.063-.018.098v1.3c0 .284-.001.284-.29.284h-.493a.254.254 0 0 1-.254-.11l.006-4.806a.326.326 0 0 1 .275-.092h.422a.179.179 0 0 1 .201.154c.008.046.02.092.033.139a.019.019 0 0 0 .016.013.37.37 0 0 0 .096-.07c.289-.229.646-.349 1.008-.348zm8.977.006a1.695 1.695 0 0 1 .344.035.868.868 0 0 1 .531.356.216.216 0 0 0 .025.033v.014c.115-.069.236-.144.36-.207a2.057 2.057 0 0 1 1.039-.229.914.914 0 0 1 .943.887v2.559c0 .205-.026.234-.232.234h-.559a.782.782 0 0 1-.11 0 .126.126 0 0 1-.108-.106.849.849 0 0 1-.01-.15V6.043a.818.818 0 0 0-.028-.254.346.346 0 0 0-.312-.254 1.607 1.607 0 0 0-.787.152.074.074 0 0 0-.055.083v2.408a.67.67 0 0 1-.008.133c0 .06-.05.109-.111.109h-.7c-.17 0-.206-.04-.206-.21V6.044a1.07 1.07 0 0 0-.022-.238.348.348 0 0 0-.322-.276 1.619 1.619 0 0 0-.799.157.074.074 0 0 0-.053.087v2.448c0 .168-.038.203-.207.203h-.607c-.162 0-.203-.047-.203-.201l-.006-3.178c0-.037.005-.075.014-.111a.132.132 0 0 1 .125-.088h.58c.076 0 .14.053.158.127.024.064.038.127.06.193.046 0 .074-.031.106-.049a2.37 2.37 0 0 1 .816-.344 1.695 1.695 0 0 1 .344-.035zm5.805.04a2.056 2.056 0 0 1 .453.093c.566.194.869.807.683 1.375a.85.85 0 0 1-.421.506 1.715 1.715 0 0 1-.569.184 3.052 3.052 0 0 1-1.043-.014 1.055 1.055 0 0 0-.127-.022c-.04.394.23.755.62.827a2.229 2.229 0 0 0 .859 0c.133-.028.261-.057.394-.088.133-.032.188.01.188.146v.338a.21.21 0 0 1-.156.225 2.662 2.662 0 0 1-.541.146 2.804 2.804 0 0 1-1.047-.008 1.44 1.44 0 0 1-1.176-1.1 2.535 2.535 0 0 1 .014-1.427h-.002a1.564 1.564 0 0 1 1.41-1.176 2.056 2.056 0 0 1 .46-.006zm-10.498.03c.119 0 .16.04.17.155.009.156 0 .318 0 .473a.856.856 0 0 1-.01.189c0 .07-.057.125-.127.125a1.565 1.565 0 0 1-.19 0 2.179 2.179 0 0 0-.888.127c-.064.023-.063.068-.063.12v2.312a.114.114 0 0 1-.111.107.857.857 0 0 1-.113 0v.008h-.596a.677.677 0 0 1-.102 0 .126.126 0 0 1-.107-.115V5.077c0-.211.022-.233.232-.233h.44c.1-.015.193.054.207.154.032.114.06.23.086.354a.14.14 0 0 0 .078-.057 3.035 3.035 0 0 1 .262-.234c.237-.185.532-.273.832-.252zm.765.036a16.802 16.802 0 0 1 .715 0c.105 0 .137.031.147.136v3.168c.001.051 0 .102-.008.153a.116.116 0 0 1-.11.105.394.394 0 0 1-.078 0l.004.008h-.634a.276.276 0 0 1-.065 0 .125.125 0 0 1-.125-.12V4.999c0-.11.045-.15.154-.154zm9.418.627a.684.684 0 0 0-.603.435 1.242 1.242 0 0 0-.088.317c-.005.076-.006.077.062.082a3.497 3.497 0 0 0 .54.04.963.963 0 0 0 .294-.025.41.41 0 0 0 .35-.263.522.522 0 0 0 .014-.239.347.347 0 0 0-.21-.289.76.76 0 0 0-.245-.054.662.662 0 0 0-.114-.004zm-15 .058a1.244 1.244 0 0 0-.383.123.14.14 0 0 0-.091.143V7.45a.128.128 0 0 0 .078.127 1.268 1.268 0 0 0 .666.147v.002a.642.642 0 0 0 .42-.163.697.697 0 0 0 .21-.367 2.292 2.292 0 0 0 .057-.867 1.292 1.292 0 0 0-.117-.465.564.564 0 0 0-.435-.33 1.244 1.244 0 0 0-.405-.006zM7.924 9.9a.408.408 0 0 1 .096 0 .556.556 0 0 1 .271.047c.18.067.301.237.31.428a.537.537 0 0 1-.447.617v-.006a.521.521 0 0 1-.166 0 .864.864 0 0 1-.152-.017.518.518 0 0 1-.4-.606.506.506 0 0 1 .488-.463zm3.928.036h.634c.14.005.178.037.178.18v4.823c0 .127-.041.174-.168.174h-.598a.163.163 0 0 1-.16-.127.695.695 0 0 0-.049-.158c-.041.008-.06.038-.093.057-.395.31-.92.4-1.395.238a1.316 1.316 0 0 1-.79-.701 2.155 2.155 0 0 1-.23-.977 2.59 2.59 0 0 1 .16-1.056c.123-.355.378-.649.714-.817a1.52 1.52 0 0 1 1.478.096.254.254 0 0 0 .102.05v-.007c.023-.032.01-.066.01-.098v-1.472c0-.174.033-.205.207-.205zm7 1.494a2.235 2.235 0 0 1 .435.06 1.67 1.67 0 0 1 1.217 1.412v.01h-.012v.086a.07.07 0 0 0 .022.07v-.02l.004.01v.528l-.01.018v-.01c-.027.018-.018.042-.018.07v.065a1.573 1.573 0 0 1-1.42 1.482 2.27 2.27 0 0 1-.861-.047 1.461 1.461 0 0 1-1.076-.96 2.443 2.443 0 0 1 0-1.733c.189-.56.69-.957 1.28-1.014a2.235 2.235 0 0 1 .439-.027zm-3.805.035c.23-.01.46.02.682.088.38.106.668.416.75.802a1.268 1.268 0 0 1 0 .508.848.848 0 0 1-.463.608 1.871 1.871 0 0 1-.77.197 3.584 3.584 0 0 1-.904-.057h-.006a.153.153 0 0 0-.059-.007 1.728 1.728 0 0 0 .05.279.72.72 0 0 0 .605.549 2.3 2.3 0 0 0 .94-.034c.1-.022.196-.044.296-.072.133-.032.193.02.193.147v.332a.202.202 0 0 1-.164.234 2.901 2.901 0 0 1-.986.188 2.506 2.506 0 0 1-.686-.069 1.41 1.41 0 0 1-1.05-.98 2.542 2.542 0 0 1-.018-1.533 1.6 1.6 0 0 1 1.59-1.18zM7.7 11.54h.649c.142.006.183.048.183.19l.002-.006v3.252a.126.126 0 0 1-.115.136h-.76a.129.129 0 0 1-.14-.111v-.023a.49.49 0 0 1 0-.086v-3.168c0-.142.04-.184.181-.184zm-4.107.004h.777c.11 0 .16.074.188.17.05.174.103.354.158.527.187.634.37 1.277.556 1.914h.01l.082-.267.633-2.123.027-.082c.026-.079.101-.131.184-.127h.701c.174-.003.21.046.152.21l-.005-.003-.276.728-.92 2.397c-.009.028-.022.054-.03.082a.228.228 0 0 1-.231.152h-.606a.255.255 0 0 1-.275-.19c-.114-.301-.234-.607-.348-.91-.275-.718-.553-1.44-.828-2.164a.801.801 0 0 1-.06-.177c-.015-.092.018-.137.11-.137zm11.457.62a.689.689 0 0 0-.574.27 1.14 1.14 0 0 0-.182.5c-.013.041.009.06.05.063a4.063 4.063 0 0 0 .553.047c.096.005.19-.001.284-.022a.407.407 0 0 0 .369-.285.41.41 0 0 0-.342-.554c-.023 0-.04-.008-.063-.008a.695.695 0 0 0-.095-.012zm-4.186.042a.588.588 0 0 0-.482.309 1.014 1.014 0 0 0-.09.224 2.317 2.317 0 0 0-.057.864 1.278 1.278 0 0 0 .127.46c.097.188.28.316.49.34a1.128 1.128 0 0 0 .72-.138.128.128 0 0 0 .073-.127v-.832h.008c0-.28-.009-.556 0-.838a.128.128 0 0 0-.084-.135 1.394 1.394 0 0 0-.705-.127zm7.801.035a.597.597 0 0 0-.467.283 1.004 1.004 0 0 0-.127.301 2.496 2.496 0 0 0-.037.807 1.29 1.29 0 0 0 .127.455.585.585 0 0 0 .43.342.86.86 0 0 0 .262.01.596.596 0 0 0 .435-.254.872.872 0 0 0 .127-.266l-.008.012a1.662 1.662 0 0 0 .065-.586 2.115 2.115 0 0 0 0-.252 1.416 1.416 0 0 0-.127-.52.593.593 0 0 0-.418-.324.785.785 0 0 0-.262-.008zm1.502 4.08c.299.002.596.037.887.106a1.308 1.308 0 0 1 .238.088.308.308 0 0 1 .19.254 1.863 1.863 0 0 1 .011.392 5.058 5.058 0 0 1-.695 2.201l-.004.006a3.064 3.064 0 0 1-.531.656.373.373 0 0 1-.147.09.106.106 0 0 1-.146-.105.534.534 0 0 1 .033-.14c.16-.43.315-.855.44-1.3a4.617 4.617 0 0 0 .156-.742 1.425 1.425 0 0 0 0-.275.356.356 0 0 0-.254-.334 1.786 1.786 0 0 0-.44-.082 7.217 7.217 0 0 0-1.26.054l-.554.069c-.06 0-.114 0-.147-.055a.155.155 0 0 1 .012-.164.472.472 0 0 1 .14-.127 3.169 3.169 0 0 1 1.122-.486 5.538 5.538 0 0 1 .949-.106zM2.6 16.56a.172.172 0 0 1 .125 0 1.045 1.045 0 0 1 .12.058 17.761 17.761 0 0 0 5.323 2.2 19.076 19.076 0 0 0 1.91.343 17.654 17.654 0 0 0 2.776.127 14.657 14.657 0 0 0 1.488-.127 18.057 18.057 0 0 0 3.4-.773 16.087 16.087 0 0 0 1.703-.67.38.38 0 0 1 .276-.037.284.284 0 0 1 .205.343.499.499 0 0 1-.018.059v.002a.507.507 0 0 1-.152.174 10.053 10.053 0 0 1-1.695 1.076 13.386 13.386 0 0 1-3.586 1.215 15.741 15.741 0 0 1-2.168.232v.02h-.56v-.016c-.254-.013-.5-.023-.75-.04a13.256 13.256 0 0 1-1.983-.304 13.431 13.431 0 0 1-5.946-3.1c-.16-.141-.312-.288-.468-.435a.35.35 0 0 1-.086-.125.17.17 0 0 1 .086-.222z"/></svg>