<?xml version="1.0" encoding="UTF-8"?>
<svg width="24px" fill="#44739e" height="24px" viewBox="0 0 24 24" version="1.1" xmlns="http://www.w3.org/2000/svg" xmlns:xlink="http://www.w3.org/1999/xlink">
            <path d="M 17.574,7.506 A 2.759,2.759 0 0 0 18,7.539 0.76,0.76 0 0 0 18.233,7.521 0.323,0.323 0 0 0 18.508,7.311 0.412,0.412 0 0 0 18.519,7.123 0.272,0.272 0 0 0 18.353,6.896 0.6,0.6 0 0 0 18.161,6.852 0.539,0.539 0 0 0 17.594,7.192 0.98,0.98 0 0 0 17.525,7.441 v 0 C 17.52,7.5 17.52,7.5 17.574,7.506 Z M 18.242,2 H 5.76 A 3.759,3.759 0 0 0 2,5.758 V 18.24 A 3.759,3.759 0 0 0 5.758,22 H 18.24 A 3.759,3.759 0 0 0 22,18.242 V 5.76 A 3.759,3.759 0 0 0 18.242,2 Z m -1.4,5.233 a 1.232,1.232 0 0 1 1.113,-0.925 1.622,1.622 0 0 1 0.719,0.069 0.863,0.863 0 0 1 0.542,1.084 0.672,0.672 0 0 1 -0.333,0.4 1.353,1.353 0 0 1 -0.451,0.144 2.408,2.408 0 0 1 -0.821,-0.011 0.833,0.833 0 0 0 -0.1,-0.016 0.6,0.6 0 0 0 0.488,0.65 1.758,1.758 0 0 0 0.678,0 c 0.105,-0.022 0.206,-0.044 0.311,-0.069 0.105,-0.025 0.148,0.008 0.148,0.116 V 8.942 A 0.165,0.165 0 0 1 19.013,9.119 2.1,2.1 0 0 1 18.587,9.235 2.212,2.212 0 0 1 17.76,9.228 1.133,1.133 0 0 1 16.834,8.361 2,2 0 0 1 16.843,7.233 Z m 0.216,4.339 a 1.763,1.763 0 0 1 0.69,0.026 1.319,1.319 0 0 1 0.961,1.114 V 12.72 H 18.7 v 0.068 a 0.053,0.053 0 0 0 0.015,0.054 v -0.014 l 0.005,0.007 v 0.416 l -0.008,0.014 v -0.007 c -0.021,0.014 -0.014,0.032 -0.014,0.054 v 0.051 a 1.241,1.241 0 0 1 -1.12,1.17 1.79,1.79 0 0 1 -0.68,-0.036 1.154,1.154 0 0 1 -0.849,-0.759 1.925,1.925 0 0 1 0,-1.366 1.184,1.184 0 0 1 1.01,-0.8 z M 12,6.513 a 0.364,0.364 0 0 1 0.011,-0.087 0.106,0.106 0 0 1 0.1,-0.069 h 0.452 a 0.13,0.13 0 0 1 0.126,0.1 c 0.018,0.051 0.029,0.1 0.047,0.152 0.036,0 0.058,-0.025 0.083,-0.039 a 1.869,1.869 0 0 1 0.644,-0.271 1.337,1.337 0 0 1 0.542,0 0.685,0.685 0 0 1 0.419,0.281 0.171,0.171 0 0 0 0.021,0.026 v 0.01 c 0.09,-0.054 0.184,-0.112 0.282,-0.162 a 1.623,1.623 0 0 1 0.82,-0.181 0.723,0.723 0 0 1 0.746,0.7 v 0 2.019 c 0,0.162 -0.021,0.184 -0.184,0.184 h -0.441 a 0.617,0.617 0 0 1 -0.086,0 A 0.1,0.1 0 0 1 15.495,9.093 0.673,0.673 0 0 1 15.488,8.974 V 7.3 A 0.644,0.644 0 0 0 15.466,7.1 0.272,0.272 0 0 0 15.22,6.9 1.268,1.268 0 0 0 14.599,7.02 0.059,0.059 0 0 0 14.555,7.085 v 1.9 A 0.53,0.53 0 0 1 14.548,9.09 0.087,0.087 0 0 1 14.461,9.177 h -0.552 c -0.134,0 -0.163,-0.032 -0.163,-0.166 V 7.3 A 0.85,0.85 0 0 0 13.728,7.112 0.273,0.273 0 0 0 13.475,6.895 1.277,1.277 0 0 0 12.843,7.018 0.058,0.058 0 0 0 12.803,7.087 v 1.93 c 0,0.134 -0.029,0.162 -0.163,0.162 H 12.159 C 12.032,9.179 12,9.143 12,9.021 Z m 1.846,6.758 a 0.121,0.121 0 0 0 -0.05,-0.007 1.363,1.363 0 0 0 0.039,0.221 0.568,0.568 0 0 0 0.477,0.433 1.815,1.815 0 0 0 0.741,-0.025 c 0.08,-0.018 0.156,-0.036 0.235,-0.058 0.105,-0.025 0.152,0.016 0.152,0.116 v 0.262 a 0.16,0.16 0 0 1 -0.13,0.185 2.289,2.289 0 0 1 -0.777,0.148 1.977,1.977 0 0 1 -0.542,-0.054 1.111,1.111 0 0 1 -0.828,-0.774 2.007,2.007 0 0 1 -0.014,-1.21 1.259,1.259 0 0 1 1.257,-0.929 1.611,1.611 0 0 1 0.539,0.069 0.834,0.834 0 0 1 0.592,0.632 1,1 0 0 1 0,0.4 0.67,0.67 0 0 1 -0.365,0.48 1.476,1.476 0 0 1 -0.607,0.156 v 0 a 2.827,2.827 0 0 1 -0.719,-0.045 z m -2.134,-1.5 C 11.73,11.746 11.72,11.72 11.72,11.695 v -1.162 c 0,-0.137 0.025,-0.162 0.162,-0.162 h 0.5 c 0.109,0 0.141,0.025 0.141,0.137 v 3.807 c 0,0.1 -0.033,0.137 -0.133,0.137 h -0.47 a 0.129,0.129 0 0 1 -0.127,-0.1 0.557,0.557 0 0 0 -0.039,-0.126 c -0.033,0.007 -0.047,0.032 -0.073,0.047 a 1.168,1.168 0 0 1 -1.1,0.188 1.04,1.04 0 0 1 -0.625,-0.553 1.7,1.7 0 0 1 -0.181,-0.77 2.043,2.043 0 0 1 0.127,-0.834 1.131,1.131 0 0 1 0.563,-0.644 1.2,1.2 0 0 1 1.167,0.076 0.2,0.2 0 0 0 0.08,0.04 z m -0.543,-2.6 h -0.5 a 0.217,0.217 0 0 1 -0.051,0 0.1,0.1 0 0 1 -0.1,-0.094 v -2.6 c 0,-0.087 0.037,-0.12 0.123,-0.123 q 0.282,-0.006 0.564,0 c 0.083,0 0.108,0.025 0.116,0.108 v 2.5 a 0.673,0.673 0 0 1 -0.007,0.119 0.091,0.091 0 0 1 -0.087,0.083 0.311,0.311 0 0 1 -0.061,0 z M 10.457,5.458 a 0.42,0.42 0 0 1 0.437,-0.4 h 0.044 a 0.442,0.442 0 0 1 0.169,0.025 0.409,0.409 0 0 1 0.279,0.456 0.4,0.4 0 0 1 -0.344,0.368 0.656,0.656 0 0 1 -0.242,0 0.4,0.4 0 0 1 -0.343,-0.45 z M 8.35,9 V 6.538 c 0,-0.166 0.018,-0.184 0.184,-0.184 h 0.347 a 0.144,0.144 0 0 1 0.163,0.122 c 0.025,0.09 0.047,0.18 0.068,0.278 A 0.11,0.11 0 0 0 9.174,6.71 2.394,2.394 0 0 1 9.38,6.526 a 0.961,0.961 0 0 1 0.657,-0.2 c 0.094,0 0.127,0.033 0.134,0.123 0.007,0.123 0,0.25 0,0.372 a 0.674,0.674 0 0 1 -0.008,0.149 0.1,0.1 0 0 1 -0.1,0.1 1.235,1.235 0 0 1 -0.149,0 1.719,1.719 0 0 0 -0.7,0.1 C 9.163,7.188 9.163,7.224 9.163,7.264 v 1.825 a 0.088,0.088 0 0 1 -0.087,0.083 0.676,0.676 0 0 1 -0.09,0 V 9.179 H 8.517 a 0.534,0.534 0 0 1 -0.08,0 0.1,0.1 0 0 1 -0.087,-0.09 z m 0.616,2.2 v 0 a 0.411,0.411 0 0 1 -0.131,0 0.678,0.678 0 0 1 -0.119,-0.014 0.409,0.409 0 0 1 -0.318,-0.477 0.4,0.4 0 0 1 0.386,-0.365 0.322,0.322 0 0 1 0.076,0 v 0 a 0.434,0.434 0 0 1 0.213,0.037 0.379,0.379 0 0 1 0.246,0.336 0.425,0.425 0 0 1 -0.353,0.488 z m 0.3,0.582 v 1.265 1.3 a 0.1,0.1 0 0 1 -0.091,0.108 h -0.6 A 0.1,0.1 0 0 1 8.464,14.368 V 14.35 a 0.386,0.386 0 0 1 0,-0.068 v -2.5 c 0,-0.112 0.032,-0.144 0.144,-0.144 H 9.12 c 0.112,0.005 0.144,0.037 0.144,0.149 z M 8.1,11.814 7.884,12.389 C 7.641,13.018 7.399,13.65 7.157,14.279 7.15,14.301 7.139,14.322 7.132,14.344 A 0.178,0.178 0 0 1 6.951,14.463 H 6.473 A 0.2,0.2 0 0 1 6.256,14.315 C 6.166,14.077 6.072,13.834 5.982,13.596 5.765,13.029 5.545,12.461 5.328,11.89 A 0.632,0.632 0 0 1 5.281,11.749 C 5.27,11.677 5.295,11.641 5.368,11.641 h 0.614 c 0.087,0 0.126,0.058 0.148,0.134 0.04,0.137 0.08,0.278 0.123,0.415 0.148,0.5 0.293,1.008 0.441,1.511 H 6.7 l 0.065,-0.213 c 0.166,-0.56 0.332,-1.116 0.5,-1.677 l 0.021,-0.065 a 0.146,0.146 0 0 1 0.145,-0.1 H 7.98 c 0.137,-0.001 0.166,0.038 0.12,0.168 z M 5.04,6.427 A 0.257,0.257 0 0 1 5.257,6.354 h 0.332 a 0.143,0.143 0 0 1 0.16,0.123 c 0.01,0.036 0.018,0.072 0.029,0.109 A 0.015,0.015 0 0 0 5.792,6.596 0.292,0.292 0 0 0 5.868,6.542 1.274,1.274 0 0 1 6.948,6.3 1.046,1.046 0 0 1 7.671,6.921 1.67,1.67 0 0 1 7.812,7.463 H 7.805 A 2.227,2.227 0 0 1 7.725,8.363 1.323,1.323 0 0 1 7.35,8.963 1.062,1.062 0 0 1 6.5,9.227 1.21,1.21 0 0 1 5.873,8.978 C 5.847,8.999 5.858,9.028 5.858,9.054 v 1.026 c 0,0.224 0,0.224 -0.227,0.224 H 5.24 A 0.2,0.2 0 0 1 5.04,10.218 Z M 18.238,16.8 a 0.4,0.4 0 0 1 -0.12,0.137 7.931,7.931 0 0 1 -1.337,0.849 10.56,10.56 0 0 1 -2.829,0.958 12.418,12.418 0 0 1 -1.709,0.184 v 0.015 H 11.8 V 18.931 C 11.6,18.92 11.406,18.913 11.208,18.899 A 10.457,10.457 0 0 1 9.644,18.66 10.6,10.6 0 0 1 4.953,16.217 C 4.827,16.105 4.708,15.99 4.585,15.874 a 0.276,0.276 0 0 1 -0.069,-0.1 0.133,0.133 0 0 1 0.067,-0.176 0.136,0.136 0 0 1 0.1,0 0.824,0.824 0 0 1 0.094,0.047 14.012,14.012 0 0 0 4.2,1.735 15.049,15.049 0 0 0 1.507,0.271 13.927,13.927 0 0 0 2.189,0.1 11.564,11.564 0 0 0 1.175,-0.1 14.245,14.245 0 0 0 2.681,-0.611 12.691,12.691 0 0 0 1.344,-0.527 0.3,0.3 0 0 1 0.217,-0.029 0.225,0.225 0 0 1 0.163,0.271 0.38,0.38 0 0 1 -0.015,0.045 z m 0.7,1.014 a 2.417,2.417 0 0 1 -0.419,0.516 0.294,0.294 0 0 1 -0.116,0.073 0.084,0.084 0 0 1 -0.109,-0.046 v 0 a 0.086,0.086 0 0 1 -0.006,-0.039 0.413,0.413 0 0 1 0.026,-0.109 c 0.126,-0.339 0.249,-0.675 0.347,-1.026 a 3.643,3.643 0 0 0 0.123,-0.585 1.124,1.124 0 0 0 0,-0.217 0.281,0.281 0 0 0 -0.2,-0.264 1.409,1.409 0 0 0 -0.347,-0.065 5.693,5.693 0 0 0 -0.994,0.044 l -0.437,0.054 c -0.047,0 -0.09,0 -0.116,-0.044 a 0.123,0.123 0 0 1 0.011,-0.13 0.372,0.372 0 0 1 0.109,-0.1 2.5,2.5 0 0 1 0.885,-0.383 4.369,4.369 0 0 1 0.748,-0.083 v 0 a 3.108,3.108 0 0 1 0.7,0.083 1.032,1.032 0 0 1 0.188,0.069 0.242,0.242 0 0 1 0.149,0.2 1.47,1.47 0 0 1 0.01,0.311 3.99,3.99 0 0 1 -0.549,1.736 z M 17.2,13.917 a 0.678,0.678 0 0 0 0.206,0.007 0.471,0.471 0 0 0 0.344,-0.2 0.688,0.688 0 0 0 0.1,-0.21 l -0.006,0.01 a 1.311,1.311 0 0 0 0.05,-0.462 1.668,1.668 0 0 0 0,-0.2 1.117,1.117 0 0 0 -0.1,-0.409 0.467,0.467 0 0 0 -0.329,-0.256 0.619,0.619 0 0 0 -0.206,-0.007 0.473,0.473 0 0 0 -0.369,0.224 0.792,0.792 0 0 0 -0.1,0.238 1.969,1.969 0 0 0 -0.029,0.636 1.018,1.018 0 0 0 0.1,0.358 0.462,0.462 0 0 0 0.339,0.271 z m -2.4,-1.335 a 0.322,0.322 0 0 0 -0.268,-0.437 c -0.018,0 -0.032,-0.007 -0.05,-0.007 a 0.543,0.543 0 0 0 -0.528,0.206 0.9,0.9 0 0 0 -0.144,0.394 c -0.01,0.032 0.007,0.047 0.04,0.05 a 3.206,3.206 0 0 0 0.437,0.036 0.845,0.845 0 0 0 0.224,-0.018 0.317,0.317 0 0 0 0.289,-0.224 z m -4.075,-0.174 a 0.8,0.8 0 0 0 -0.072,0.177 1.828,1.828 0 0 0 -0.044,0.679 1.008,1.008 0 0 0 0.1,0.365 0.5,0.5 0 0 0 0.387,0.267 0.89,0.89 0 0 0 0.567,-0.108 0.1,0.1 0 0 0 0.058,-0.1 V 13.03 h 0.005 c 0,-0.22 -0.007,-0.437 0,-0.661 a 0.1,0.1 0 0 0 -0.065,-0.105 1.1,1.1 0 0 0 -0.557,-0.1 0.462,0.462 0 0 0 -0.379,0.244 z M 6.45,8.627 A 0.509,0.509 0 0 0 6.782,8.5 0.55,0.55 0 0 0 6.948,8.211 v 0 A 1.808,1.808 0 0 0 6.992,7.528 1.026,1.026 0 0 0 6.9,7.16 0.445,0.445 0 0 0 6.556,6.9 0.981,0.981 0 0 0 5.935,6.993 0.109,0.109 0 0 0 5.863,7.105 v 1.306 a 0.1,0.1 0 0 0 0.061,0.1 1,1 0 0 0 0.526,0.116 z" />
</svg>
