<?xml version="1.0" encoding="UTF-8"?>
<svg xmlns="http://www.w3.org/2000/svg" width="24" height="24" fill="#44739e" viewBox="0 0 24 24"><path d="M5.76 2A3.758 3.758 0 0 0 2 5.76v12.48A3.758 3.758 0 0 0 5.76 22h12.48A3.758 3.758 0 0 0 22 18.24V5.76A3.758 3.758 0 0 0 18.24 2H5.76zm5.135 3.05v.003h.043a.44.44 0 0 1 .167.023.412.412 0 0 1 .282.46.396.396 0 0 1-.344.36.656.656 0 0 1-.242 0 .401.401 0 0 1-.344-.445.42.42 0 0 1 .438-.4zm-4.24 1.212a1.053 1.053 0 0 1 1.01.654c.076.172.122.355.138.543h-.006c.035.302.008.609-.08.9a1.33 1.33 0 0 1-.375.602c-.231.209-.541.304-.85.264a1.21 1.21 0 0 1-.629-.248c-.026.022-.013.048-.013.076v1.027c0 .224 0 .225-.229.225h-.39a.2.2 0 0 1-.2-.088l.004-3.795a.256.256 0 0 1 .217-.072h.334a.14.14 0 0 1 .158.12c.006.037.015.075.026.112.001.006.007.01.013.01a.292.292 0 0 0 .076-.055c.229-.18.51-.276.795-.275zm7.087.004c.091 0 .182.009.272.027a.683.683 0 0 1 .437.309v.01c.091-.055.187-.113.285-.163.253-.13.536-.194.82-.181.4-.013.733.301.745.7v2.02c0 .162-.021.186-.184.186h-.441a.604.604 0 0 1-.086 0 .1.1 0 0 1-.086-.084.67.67 0 0 1-.008-.12V7.298a.65.65 0 0 0-.021-.201.274.274 0 0 0-.246-.201 1.269 1.269 0 0 0-.622.12.058.058 0 0 0-.044.065v1.902c0 .036 0 .071-.006.106 0 .047-.04.086-.088.086h-.553c-.134 0-.162-.032-.162-.166V7.297a.84.84 0 0 0-.018-.188.275.275 0 0 0-.254-.218 1.28 1.28 0 0 0-.63.125.058.058 0 0 0-.041.068v1.934c0 .132-.031.16-.165.16h-.478c-.128 0-.162-.039-.162-.16l-.004-2.508c0-.03.005-.06.012-.088a.104.104 0 0 1 .097-.07h.46c.06 0 .11.043.124.101.02.05.03.1.047.152.037 0 .059-.024.084-.039.196-.13.415-.222.645-.271.09-.019.18-.027.271-.027v-.002zm4.4.023a1.623 1.623 0 0 1 .54.082.863.863 0 0 1 .539 1.086.669.669 0 0 1-.332.398c-.14.075-.292.125-.45.147-.273.044-.55.04-.822-.012a.856.856 0 0 0-.101-.017.605.605 0 0 0 .49.654c.224.044.454.044.678 0 .105-.022.205-.046.31-.07.105-.026.149.008.149.115v.267a.166.166 0 0 1-.123.178 2.09 2.09 0 0 1-.426.115c-.274.05-.556.047-.828-.007a1.135 1.135 0 0 1-.928-.868c-.104-.368-.1-.76.012-1.127h-.002c.13-.517.58-.893 1.113-.93.06-.007.121-.01.182-.01zm-8.105.033c.094 0 .125.03.133.121.007.124 0 .251 0 .373.003.05 0 .102-.008.15a.098.098 0 0 1-.1.098c-.05.003-.1.003-.15 0a1.722 1.722 0 0 0-.701.102c-.05.018-.049.053-.049.094v1.826a.09.09 0 0 1-.088.084.684.684 0 0 1-.09 0v.006h-.47a.53.53 0 0 1-.08 0 .098.098 0 0 1-.084-.09V6.533c0-.166.015-.183.181-.183h.348a.144.144 0 0 1 .164.12c.025.09.048.182.068.28a.108.108 0 0 0 .06-.045c.066-.065.135-.126.208-.184a.959.959 0 0 1 .658-.199zm.604.028c.188-.004.376-.004.564 0 .083 0 .107.024.115.107v2.502c.001.04 0 .08-.006.121a.09.09 0 0 1-.085.082.32.32 0 0 1-.063 0l.004.006h-.502a.214.214 0 0 1-.05 0 .097.097 0 0 1-.098-.094V6.473c0-.087.035-.118.12-.121V6.35zm7.435.496a.54.54 0 0 0-.476.341.99.99 0 0 0-.069.252c-.004.06-.005.061.05.065.14.021.282.032.425.031a.762.762 0 0 0 .232-.02.324.324 0 0 0 .276-.208.407.407 0 0 0 .011-.188.275.275 0 0 0-.166-.228.6.6 0 0 0-.193-.043.52.52 0 0 0-.09-.002zm-11.683.033a.984.984 0 0 0-.463.11.11.11 0 0 0-.07.113v1.306a.1.1 0 0 0 .06.1.999.999 0 0 0 .525.115v.002a.508.508 0 0 0 .332-.129.549.549 0 0 0 .166-.289c.059-.223.074-.457.045-.686a1.019 1.019 0 0 0-.092-.367.445.445 0 0 0-.343-.26.988.988 0 0 0-.16-.015zm2.39 3.463a.307.307 0 0 1 .074 0 .442.442 0 0 1 .215.037.379.379 0 0 1 .244.338.422.422 0 0 1-.351.486V11.2a.423.423 0 0 1-.133 0 .675.675 0 0 1-.12-.013.41.41 0 0 1-.316-.479.4.4 0 0 1 .387-.365zm3.1.03h.502c.11.003.14.027.14.14v3.808c0 .1-.032.137-.132.137h-.473a.129.129 0 0 1-.127-.1.548.548 0 0 0-.037-.125c-.033.007-.048.03-.074.045a1.172 1.172 0 0 1-1.102.188 1.037 1.037 0 0 1-.623-.553 1.702 1.702 0 0 1-.182-.771 2.045 2.045 0 0 1 .125-.834c.098-.28.3-.512.565-.645.376-.179.816-.15 1.166.076.023.02.052.032.082.04v-.007c.018-.025.008-.052.008-.078v-1.162c0-.137.024-.16.162-.16zm5.527 1.177a1.32 1.32 0 0 1 1.305 1.164v.008h-.01v.066a.058.058 0 0 0 .018.057v-.016l.004.008v.416l-.008.014v-.008c-.022.014-.016.034-.016.056v.051a1.242 1.242 0 0 1-1.121 1.17 1.792 1.792 0 0 1-.68-.037 1.153 1.153 0 0 1-.85-.758 1.931 1.931 0 0 1 0-1.369c.15-.442.547-.756 1.012-.8.115-.02.23-.026.346-.022zm-3.004.03c.182-.009.364.014.54.067.3.084.526.329.591.633.027.133.027.27 0 .403a.67.67 0 0 1-.365.48c-.19.095-.398.147-.61.154-.238.016-.477 0-.712-.045h-.004a.122.122 0 0 0-.047-.005c.007.074.02.148.039.22a.57.57 0 0 0 .478.434c.247.042.5.033.743-.027.079-.018.153-.035.232-.057.105-.025.152.017.152.117v.262a.158.158 0 0 1-.129.183 2.295 2.295 0 0 1-.779.149 1.974 1.974 0 0 1-.54-.055 1.112 1.112 0 0 1-.829-.773 2.003 2.003 0 0 1-.016-1.21 1.264 1.264 0 0 1 1.256-.93zm-5.8.058h.511c.112.004.145.038.145.15l.002-.006v2.569a.099.099 0 0 1-.09.107h-.602a.101.101 0 0 1-.11-.088v-.017a.396.396 0 0 1 0-.069v-2.502c0-.112.032-.144.143-.144zm-3.245.004h.616c.086 0 .126.057.148.132.04.138.082.28.125.416.148.501.293 1.01.44 1.512h.007l.065-.21.5-1.677.02-.064a.148.148 0 0 1 .146-.102h.552c.138-.002.167.037.122.166l-.004-.002-.22.575-.726 1.892c-.007.022-.017.043-.023.065a.18.18 0 0 1-.182.12H6.47a.201.201 0 0 1-.217-.15c-.09-.237-.185-.48-.275-.718-.218-.567-.438-1.138-.655-1.71a.622.622 0 0 1-.047-.138c-.011-.073.014-.107.086-.107zm9.047.488a.543.543 0 0 0-.453.213.897.897 0 0 0-.143.394c-.01.033.007.049.04.051.144.022.289.035.435.037a.828.828 0 0 0 .225-.017.32.32 0 0 0 .29-.225.324.324 0 0 0-.269-.437c-.018 0-.03-.006-.049-.006a.574.574 0 0 0-.076-.01zm-3.162.031a1.091 1.091 0 0 0-.142.002.465.465 0 0 0-.381.244.806.806 0 0 0-.07.178 1.827 1.827 0 0 0-.046.682c.01.126.044.25.1.363.077.148.22.249.387.267a.89.89 0 0 0 .568-.107.104.104 0 0 0 .059-.101v-.657h.006c0-.22-.008-.44 0-.662a.1.1 0 0 0-.067-.105 1.105 1.105 0 0 0-.414-.104zm6.121.026a.616.616 0 0 0-.103.003.473.473 0 0 0-.37.225.788.788 0 0 0-.101.236 1.98 1.98 0 0 0-.03.64c.012.124.047.246.102.358.061.141.19.242.34.27a.68.68 0 0 0 .207.008.468.468 0 0 0 .342-.201.686.686 0 0 0 .101-.21l-.005.01c.044-.15.061-.306.05-.463a1.698 1.698 0 0 0 0-.199 1.117 1.117 0 0 0-.101-.41.468.468 0 0 0-.33-.256.6.6 0 0 0-.102-.011zm1.082 3.226c.236.002.47.028.7.082.064.017.127.041.187.07a.244.244 0 0 1 .15.202c.014.102.018.205.01.308a3.996 3.996 0 0 1-.549 1.738l-.004.004a2.422 2.422 0 0 1-.418.52.297.297 0 0 1-.117.07.084.084 0 0 1-.115-.084.41.41 0 0 1 .025-.11c.127-.339.25-.675.348-1.026.057-.192.098-.388.123-.586a1.122 1.122 0 0 0 0-.217.28.28 0 0 0-.2-.264 1.411 1.411 0 0 0-.347-.064c-.332-.015-.666 0-.996.043l-.437.054c-.048 0-.09 0-.116-.043a.125.125 0 0 1 .01-.13.373.373 0 0 1 .111-.1c.268-.184.568-.316.885-.385.247-.05.499-.076.75-.082zm-13.82.178c.017 0 .033.003.049.01a.82.82 0 0 1 .093.046 14.024 14.024 0 0 0 4.204 1.737 13.934 13.934 0 0 0 3.7.371 14.25 14.25 0 0 0 3.86-.71c.456-.152.906-.329 1.344-.53a.297.297 0 0 1 .217-.03c.119.031.191.152.162.272a.398.398 0 0 1-.014.047v.002a.396.396 0 0 1-.119.136 7.95 7.95 0 0 1-1.34.85 10.56 10.56 0 0 1-2.83.959c-.566.1-1.139.162-1.713.184v.015h-.441v-.012c-.2-.01-.395-.02-.592-.033a10.472 10.472 0 0 1-1.566-.238 10.603 10.603 0 0 1-4.694-2.45 15.087 15.087 0 0 1-.37-.341.276.276 0 0 1-.067-.1.134.134 0 0 1 .066-.175.144.144 0 0 1 .05-.01z"/></svg>