<svg xmlns="http://www.w3.org/2000/svg" viewBox="0 0 24 24"><path fill="#44739e" d="M5.76 2A3.76 3.76 0 0 0 2 5.76v12.48A3.76 3.76 0 0 0 5.76 22h12.48A3.76 3.76 0 0 0 22 18.24V5.76A3.76 3.76 0 0 0 18.24 2Zm5.135 3.05v.003h.043a.4.4 0 0 1 .167.023.41.41 0 0 1 .282.46.396.396 0 0 1-.344.36.7.7 0 0 1-.242 0 .4.4 0 0 1-.344-.445.42.42 0 0 1 .438-.4Zm-4.24 1.212a1.05 1.05 0 0 1 1.01.654q.114.26.138.543h-.006c.035.302.008.609-.08.9a1.33 1.33 0 0 1-.375.602 1.06 1.06 0 0 1-.85.264 1.2 1.2 0 0 1-.629-.248c-.026.022-.013.048-.013.076v1.027c0 .224 0 .225-.229.225h-.39a.2.2 0 0 1-.2-.088l.004-3.795a.26.26 0 0 1 .217-.072h.334a.14.14 0 0 1 .158.12 1 1 0 0 0 .026.112q.003.01.013.01a.3.3 0 0 0 .076-.055c.229-.18.51-.276.795-.275Zm7.087.004q.137 0 .272.027a.68.68 0 0 1 .437.309v.01c.091-.055.187-.113.285-.163.253-.13.536-.194.82-.181.4-.013.733.301.745.7v2.02c0 .162-.021.186-.184.186h-.527a.1.1 0 0 1-.086-.084 1 1 0 0 1-.008-.12V7.298a.7.7 0 0 0-.021-.201.27.27 0 0 0-.246-.201 1.3 1.3 0 0 0-.622.12.06.06 0 0 0-.044.065v1.902q.002.054-.006.106c0 .047-.04.086-.088.086h-.553c-.134 0-.162-.032-.162-.166V7.297a1 1 0 0 0-.018-.188.275.275 0 0 0-.254-.218 1.3 1.3 0 0 0-.63.125.06.06 0 0 0-.041.068v1.934c0 .132-.031.16-.165.16h-.478c-.128 0-.162-.039-.162-.16l-.004-2.508q0-.045.012-.088a.1.1 0 0 1 .097-.07h.46c.06 0 .11.043.124.101.02.05.03.1.047.152.037 0 .059-.024.084-.039.196-.13.415-.222.645-.271q.135-.028.271-.027Zm4.4.023a1.6 1.6 0 0 1 .54.082.863.863 0 0 1 .539 1.086.67.67 0 0 1-.332.398q-.211.113-.45.147c-.273.044-.55.04-.822-.012a1 1 0 0 0-.101-.017.605.605 0 0 0 .49.654c.224.044.454.044.678 0 .105-.022.205-.046.31-.07.105-.026.149.008.149.115v.267a.166.166 0 0 1-.123.178 2 2 0 0 1-.426.115c-.274.05-.556.047-.828-.007a1.135 1.135 0 0 1-.928-.868 2 2 0 0 1 .012-1.127h-.002c.13-.517.58-.893 1.113-.93q.09-.01.182-.01Zm-8.105.033c.094 0 .125.03.133.121.007.124 0 .251 0 .373a.7.7 0 0 1-.008.15.1.1 0 0 1-.1.098q-.075.005-.15 0a1.7 1.7 0 0 0-.701.102c-.05.018-.049.053-.049.094v1.826a.09.09 0 0 1-.088.084 1 1 0 0 1-.09 0v.006h-.55a.1.1 0 0 1-.084-.09V6.533c0-.166.015-.183.181-.183h.348a.144.144 0 0 1 .164.12q.038.134.068.28a.1.1 0 0 0 .06-.045q.099-.097.208-.184a.96.96 0 0 1 .658-.199m.604.028q.282-.006.564 0c.083 0 .107.024.115.107v2.502q.002.06-.006.121a.09.09 0 0 1-.085.082.3.3 0 0 1-.063 0l.004.006h-.502a.2.2 0 0 1-.05 0 .097.097 0 0 1-.098-.094V6.473c0-.087.035-.118.12-.121Zm7.435.496a.54.54 0 0 0-.476.341 1 1 0 0 0-.069.252c-.004.06-.005.061.05.065q.21.032.425.031a.8.8 0 0 0 .232-.02.32.32 0 0 0 .276-.208.4.4 0 0 0 .011-.188.28.28 0 0 0-.166-.228.6.6 0 0 0-.193-.043 1 1 0 0 0-.09-.002m-11.683.033a1 1 0 0 0-.463.11.11.11 0 0 0-.07.113v1.306a.1.1 0 0 0 .06.1 1 1 0 0 0 .525.115v.002a.5.5 0 0 0 .332-.129.55.55 0 0 0 .166-.289c.059-.223.074-.457.045-.686a1 1 0 0 0-.092-.367.45.45 0 0 0-.343-.26 1 1 0 0 0-.16-.015m2.39 3.463a.3.3 0 0 1 .074 0 .44.44 0 0 1 .215.037.38.38 0 0 1 .244.338.42.42 0 0 1-.351.486V11.2a.4.4 0 0 1-.133 0 1 1 0 0 1-.12-.013.41.41 0 0 1-.316-.479.4.4 0 0 1 .387-.365Zm3.1.03h.502c.11.003.14.027.14.14v3.808c0 .1-.032.137-.132.137h-.473a.13.13 0 0 1-.127-.1.6.6 0 0 0-.037-.125c-.033.007-.048.03-.074.045a1.17 1.17 0 0 1-1.102.188 1.04 1.04 0 0 1-.623-.553 1.7 1.7 0 0 1-.182-.771 2.05 2.05 0 0 1 .125-.834c.098-.28.3-.512.565-.645.376-.179.816-.15 1.166.076q.036.029.082.04v-.007c.018-.025.008-.052.008-.078v-1.162c0-.137.024-.16.162-.16Zm5.527 1.177a1.32 1.32 0 0 1 1.305 1.164v.008h-.01v.066a.06.06 0 0 0 .018.057v-.016l.004.008v.416l-.008.014v-.008c-.022.014-.016.034-.016.056v.051a1.24 1.24 0 0 1-1.121 1.17 1.8 1.8 0 0 1-.68-.037 1.15 1.15 0 0 1-.85-.758 1.93 1.93 0 0 1 0-1.369c.15-.442.547-.756 1.012-.8q.172-.029.346-.022m-3.004.03q.275-.013.54.067c.3.084.526.329.591.633q.04.201 0 .403a.67.67 0 0 1-.365.48c-.19.095-.398.147-.61.154a2.8 2.8 0 0 1-.712-.045h-.004a.1.1 0 0 0-.047-.005q.01.111.039.22a.57.57 0 0 0 .478.434c.247.042.5.033.743-.027.079-.018.153-.035.232-.057.105-.025.152.017.152.117v.262a.16.16 0 0 1-.129.183 2.3 2.3 0 0 1-.779.149 2 2 0 0 1-.54-.055 1.11 1.11 0 0 1-.829-.773 2 2 0 0 1-.016-1.21 1.264 1.264 0 0 1 1.256-.93m-5.8.058h.511c.112.004.145.038.145.15l.002-.006v2.569a.1.1 0 0 1-.09.107h-.602a.1.1 0 0 1-.11-.088v-.017a.4.4 0 0 1 0-.069v-2.502c0-.112.032-.144.143-.144Zm-3.245.004h.616c.086 0 .126.057.148.132.04.138.082.28.125.416.148.501.293 1.01.44 1.512h.007l.065-.21.5-1.677.02-.064a.15.15 0 0 1 .146-.102h.552c.138-.002.167.037.122.166l-.004-.002-.22.575-.726 1.892-.023.065a.18.18 0 0 1-.182.12H6.47a.2.2 0 0 1-.217-.15c-.09-.237-.185-.48-.275-.718q-.328-.851-.655-1.71a.6.6 0 0 1-.047-.138c-.011-.073.014-.107.086-.107Zm9.047.488a.54.54 0 0 0-.453.213.9.9 0 0 0-.143.394c-.01.033.007.049.04.051q.216.034.435.037a.8.8 0 0 0 .225-.017.32.32 0 0 0 .29-.225.324.324 0 0 0-.269-.437c-.018 0-.03-.006-.049-.006Zm-3.162.031a1 1 0 0 0-.142.002.47.47 0 0 0-.381.244.8.8 0 0 0-.07.178 1.8 1.8 0 0 0-.046.682c.01.126.044.25.1.363.077.148.22.249.387.267a.9.9 0 0 0 .568-.107.1.1 0 0 0 .059-.101v-.657h.006c0-.22-.008-.44 0-.662a.1.1 0 0 0-.067-.105 1.1 1.1 0 0 0-.414-.104m6.121.026a1 1 0 0 0-.103.003.47.47 0 0 0-.37.225.8.8 0 0 0-.101.236 2 2 0 0 0-.03.64q.019.188.102.358c.061.141.19.242.34.27a.7.7 0 0 0 .207.008.47.47 0 0 0 .342-.201.7.7 0 0 0 .101-.21l-.005.01q.066-.226.05-.463a2 2 0 0 0 0-.199 1.1 1.1 0 0 0-.101-.41.47.47 0 0 0-.33-.256 1 1 0 0 0-.102-.011m1.082 3.226q.354.002.7.082.096.026.187.07a.24.24 0 0 1 .15.202q.021.153.01.308a4 4 0 0 1-.549 1.738l-.004.004a2.4 2.4 0 0 1-.418.52.3.3 0 0 1-.117.07.084.084 0 0 1-.115-.084.4.4 0 0 1 .025-.11 13 13 0 0 0 .348-1.026q.085-.289.123-.586a1 1 0 0 0 0-.217.28.28 0 0 0-.2-.264 1.4 1.4 0 0 0-.347-.064 5.7 5.7 0 0 0-.996.043l-.437.054c-.048 0-.09 0-.116-.043a.13.13 0 0 1 .01-.13.4.4 0 0 1 .111-.1c.268-.184.568-.316.885-.385q.372-.074.75-.082m-13.82.178a.1.1 0 0 1 .049.01 1 1 0 0 1 .093.046 14 14 0 0 0 4.204 1.737 14 14 0 0 0 3.7.371 14.3 14.3 0 0 0 3.86-.71q.685-.228 1.344-.53a.3.3 0 0 1 .217-.03.226.226 0 0 1 .162.272l-.014.047v.002a.4.4 0 0 1-.119.136 8 8 0 0 1-1.34.85 10.6 10.6 0 0 1-2.83.959q-.85.15-1.713.184v.015h-.441v-.012q-.298-.014-.592-.033a10.5 10.5 0 0 1-1.566-.238 10.6 10.6 0 0 1-4.694-2.45 15 15 0 0 1-.37-.341.3.3 0 0 1-.067-.1.134.134 0 0 1 .066-.175.1.1 0 0 1 .05-.01Z"/></svg>