<svg xmlns="http://www.w3.org/2000/svg" viewBox="0 0 24 24"><path fill="#44739e" d="M19.437 6.004a3.6 3.6 0 0 0 .569.045 1 1 0 0 0 .31-.027.43.43 0 0 0 .368-.278.55.55 0 0 0 .013-.251.36.36 0 0 0-.221-.304.8.8 0 0 0-.255-.058.72.72 0 0 0-.757.453 1.3 1.3 0 0 0-.093.334c-.005.08-.005.08.066.086m-.976-.364a1.645 1.645 0 0 1 1.485-1.234 2.2 2.2 0 0 1 .96.092c.596.204.918.846.722 1.445a.9.9 0 0 1-.444.534 1.8 1.8 0 0 1-.6.192 3.2 3.2 0 0 1-1.098-.015 1 1 0 0 0-.132-.02.8.8 0 0 0 .651.867 2.4 2.4 0 0 0 .904 0c.14-.03.275-.059.415-.093s.198.011.198.155v.356a.22.22 0 0 1-.164.236 2.7 2.7 0 0 1-.569.155 3 3 0 0 1-1.103-.009 1.51 1.51 0 0 1-1.237-1.157 2.67 2.67 0 0 1 .015-1.505Zm.288 5.788a2.4 2.4 0 0 1 .92.035 1.76 1.76 0 0 1 1.282 1.487v.01h-.013v.091a.07.07 0 0 0 .022.072v-.019l.006.009v.555l-.01.019v-.009c-.028.018-.019.043-.019.073v.067a1.66 1.66 0 0 1-1.494 1.561 2.4 2.4 0 0 1-.907-.047 1.55 1.55 0 0 1-1.133-1.013 2.57 2.57 0 0 1 0-1.823 1.58 1.58 0 0 1 1.347-1.068Zm-6.75-6.749q0-.059.015-.115a.145.145 0 0 1 .134-.093h.609a.17.17 0 0 1 .167.134c.025.068.04.133.064.201.048 0 .078-.031.11-.05a2.5 2.5 0 0 1 .86-.362 1.8 1.8 0 0 1 .723 0 .9.9 0 0 1 .559.375l.027.035v.011c.12-.07.247-.148.378-.214a2.2 2.2 0 0 1 1.093-.242.964.964 0 0 1 .996.933v2.694c0 .217-.027.246-.246.246H16.9a1 1 0 0 1-.114 0 .14.14 0 0 1-.117-.111 1 1 0 0 1-.009-.159V5.728a1 1 0 0 0-.03-.266.36.36 0 0 0-.327-.268 1.7 1.7 0 0 0-.829.16.08.08 0 0 0-.057.088v2.534a1 1 0 0 1-.01.141.116.116 0 0 1-.116.116h-.736c-.179 0-.218-.043-.218-.221V5.727a1 1 0 0 0-.024-.251.364.364 0 0 0-.337-.289 1.7 1.7 0 0 0-.844.164.077.077 0 0 0-.054.093V8.02c0 .177-.04.214-.217.214h-.64c-.171 0-.213-.048-.213-.21Zm2.464 9.017a.2.2 0 0 0-.067-.01 2 2 0 0 0 .051.295.76.76 0 0 0 .637.578 2.5 2.5 0 0 0 .989-.034 6 6 0 0 0 .314-.077c.14-.034.202.021.202.154v.35a.214.214 0 0 1-.172.247 3.1 3.1 0 0 1-1.038.197 2.7 2.7 0 0 1-.723-.072 1.48 1.48 0 0 1-1.105-1.032 2.7 2.7 0 0 1-.018-1.615 1.68 1.68 0 0 1 1.671-1.239 2.2 2.2 0 0 1 .72.092c.4.112.704.436.789.843a1.4 1.4 0 0 1 0 .534.89.89 0 0 1-.486.64 2 2 0 0 1-.81.209 3.8 3.8 0 0 1-.96-.061Zm-2.848-2.002c.024-.033.011-.068.011-.101v-1.55c0-.184.033-.217.216-.217h.667c.147.006.189.04.189.189v5.078c0 .134-.045.183-.179.183h-.627a.17.17 0 0 1-.169-.133.7.7 0 0 0-.052-.168c-.043.007-.063.041-.097.061a1.56 1.56 0 0 1-1.468.251 1.4 1.4 0 0 1-.834-.738 2.3 2.3 0 0 1-.242-1.027 2.7 2.7 0 0 1 .17-1.114 1.5 1.5 0 0 1 .751-.859 1.6 1.6 0 0 1 1.557.101.3.3 0 0 0 .107.053Zm-.725-3.47h-.666a.3.3 0 0 1-.068 0 .134.134 0 0 1-.134-.124V4.631c0-.115.049-.16.164-.164a18 18 0 0 1 .752 0c.111 0 .145.034.155.144v3.335a1 1 0 0 1-.009.16.12.12 0 0 1-.116.109h-.081Zm-.95-4.953a.56.56 0 0 1 .584-.533h.058a.6.6 0 0 1 .226.033.545.545 0 0 1 .373.609.536.536 0 0 1-.46.486.9.9 0 0 1-.323 0 .534.534 0 0 1-.458-.6ZM7.129 7.997V4.713c0-.222.024-.246.246-.246h.464a.19.19 0 0 1 .216.163c.034.12.064.239.091.37a.14.14 0 0 0 .083-.059 4 4 0 0 1 .275-.245 1.27 1.27 0 0 1 .876-.266c.126 0 .169.044.179.164.009.163 0 .332 0 .495a1 1 0 0 1-.011.2.134.134 0 0 1-.133.133 2 2 0 0 1-.2 0 2.3 2.3 0 0 0-.934.133c-.067.024-.067.072-.067.126v2.434a.12.12 0 0 1-.116.111 1 1 0 0 1-.12 0v.009H7.35a1 1 0 0 1-.106 0 .136.136 0 0 1-.115-.12Zm.822 2.935a.6.6 0 0 1-.174 0 1 1 0 0 1-.16-.019.545.545 0 0 1-.424-.636.534.534 0 0 1 .516-.487.5.5 0 0 1 .1 0 .6.6 0 0 1 .285.049.51.51 0 0 1 .328.449.567.567 0 0 1-.471.651Zm.4.777v3.422a.134.134 0 0 1-.121.144h-.8a.134.134 0 0 1-.147-.116v-.024a1 1 0 0 1 0-.091v-3.336c0-.149.041-.191.191-.191h.683c.149.006.192.049.192.198Zm-1.555.043-.288.767-.97 2.522c-.009.029-.025.057-.034.086a.236.236 0 0 1-.241.159h-.638a.27.27 0 0 1-.289-.198c-.121-.317-.246-.64-.366-.959q-.437-1.134-.873-2.276a1 1 0 0 1-.063-.189c-.014-.095.019-.143.116-.143h.82c.116 0 .168.077.198.178.052.183.106.371.163.554.198.667.391 1.345.588 2.016h.009l.087-.28.666-2.236.028-.087a.195.195 0 0 1 .194-.133h.738c.182-.003.221.049.16.222ZM2.714 4.565a.35.35 0 0 1 .289-.098h.444a.19.19 0 0 1 .213.164q.011.073.033.145a.02.02 0 0 0 .018.014.4.4 0 0 0 .1-.073 1.7 1.7 0 0 1 1.442-.321c.436.104.795.411.965.826a2.3 2.3 0 0 1 .186.725h-.007c.046.404.01.812-.108 1.201a1.76 1.76 0 0 1-.5.8 1.42 1.42 0 0 1-1.134.353 1.64 1.64 0 0 1-.837-.334c-.036.03-.02.067-.02.103v1.369c0 .299 0 .299-.304.299h-.52a.26.26 0 0 1-.267-.115Zm17.609 13.839a.55.55 0 0 1-.16.182 10.6 10.6 0 0 1-1.784 1.134 14 14 0 0 1-3.774 1.278 16 16 0 0 1-2.282.245v.02h-.59v-.016c-.266-.013-.525-.024-.789-.043a14 14 0 0 1-2.087-.32 14.15 14.15 0 0 1-6.259-3.263c-.168-.149-.328-.303-.491-.458a.4.4 0 0 1-.092-.132.177.177 0 0 1 .089-.233.18.18 0 0 1 .134 0 1 1 0 0 1 .125.063 18.7 18.7 0 0 0 5.604 2.314 20 20 0 0 0 2.011.362 18.6 18.6 0 0 0 2.92.133 16 16 0 0 0 1.568-.133 19 19 0 0 0 3.577-.815 17 17 0 0 0 1.793-.705.4.4 0 0 1 .29-.039.3.3 0 0 1 .218.362l-.02.06Zm.934 1.353a3.3 3.3 0 0 1-.559.688.36.36 0 0 1-.154.097.112.112 0 0 1-.154-.112.6.6 0 0 1 .035-.148c.168-.451.332-.9.463-1.367a5 5 0 0 0 .164-.781 1.6 1.6 0 0 0 0-.289.37.37 0 0 0-.267-.353 1.8 1.8 0 0 0-.463-.086 7.6 7.6 0 0 0-1.326.058l-.583.073c-.064 0-.12 0-.155-.059a.16.16 0 0 1 .013-.173.6.6 0 0 1 .147-.134 3.4 3.4 0 0 1 1.181-.511 6 6 0 0 1 .997-.11q.473.002.935.11a1.4 1.4 0 0 1 .251.092c.11.046.187.148.199.267a1.8 1.8 0 0 1 .013.413 5.3 5.3 0 0 1-.733 2.319Zm-2.318-5.2a1 1 0 0 0 .274.009.64.64 0 0 0 .459-.266.9.9 0 0 0 .134-.28l-.009.013a1.7 1.7 0 0 0 .068-.617 3 3 0 0 0 0-.266 1.5 1.5 0 0 0-.134-.546.63.63 0 0 0-.439-.341.8.8 0 0 0-.275-.01.64.64 0 0 0-.492.299 1.1 1.1 0 0 0-.134.318 2.6 2.6 0 0 0-.038.848 1.4 1.4 0 0 0 .133.477.62.62 0 0 0 .452.361Zm-3.202-1.782a.43.43 0 0 0-.359-.582c-.023 0-.042-.009-.066-.009a.73.73 0 0 0-.705.275 1.2 1.2 0 0 0-.191.525c-.014.043.009.063.052.067a5 5 0 0 0 .584.048q.15.008.298-.024a.42.42 0 0 0 .387-.3m-5.438-.232a1 1 0 0 0-.096.237 2.5 2.5 0 0 0-.059.906 1.4 1.4 0 0 0 .134.487.66.66 0 0 0 .516.356 1.18 1.18 0 0 0 .756-.144.14.14 0 0 0 .078-.133v-.879h.007c0-.293-.009-.582 0-.88a.136.136 0 0 0-.087-.141 1.46 1.46 0 0 0-.743-.134.62.62 0 0 0-.506.325M4.595 7.501a.68.68 0 0 0 .444-.171.73.73 0 0 0 .22-.386 2.5 2.5 0 0 0 .06-.911 1.4 1.4 0 0 0-.123-.491.59.59 0 0 0-.459-.348 1.3 1.3 0 0 0-.829.125.145.145 0 0 0-.096.149v1.743a.14.14 0 0 0 .082.133 1.34 1.34 0 0 0 .701.155"/></svg>