<svg xmlns="http://www.w3.org/2000/svg" viewBox="0 0 24 24"><path fill="#44739e" d="M21.886 10.339h-5.743v-.531c0-.199-.199-.315-.199-.315l-3.745-2.162s-.199-.12-.398 0L8.056 9.494s-.199.115-.199.314v.531H2.114a.113.113 0 0 0 0 .225H9.89a2.55 2.55 0 0 1 4.219 0h7.778a.113.113 0 0 0 .112-.112.113.113 0 0 0-.113-.113m-6.378.028a.056.056 0 0 1-.075-.026 3.84 3.84 0 0 0-3.431-2.152c-1.452 0-2.8.845-3.433 2.152a.056.056 0 0 1-.075.026.057.057 0 0 1-.026-.075 3.95 3.95 0 0 1 3.534-2.216c1.494 0 2.881.87 3.532 2.216a.056.056 0 0 1-.026.075m6.38 3.069h-7.78a2.55 2.55 0 0 1-4.218 0H2.112a.112.112 0 1 0 0 .225h5.744v.531c0 .199.2.315.2.315l3.744 2.162s.2.12.398-.001l3.745-2.162s.199-.114.199-.314v-.531h5.746a.112.112 0 1 0 0-.225m-6.357.273a3.95 3.95 0 0 1-3.534 2.215c-1.494 0-2.88-.87-3.531-2.215a.056.056 0 0 1 .026-.075.056.056 0 0 1 .075.026 3.83 3.83 0 0 0 3.43 2.151c1.452 0 2.8-.844 3.433-2.152a.056.056 0 0 1 .075-.026.057.057 0 0 1 .026.076M2.016 11.035h.724c.405 0 .742.13.742.593 0 .458-.312.598-.722.598h-.315v.76h-.429Zm.429.827h.287c.151 0 .303-.052.303-.234 0-.201-.204-.229-.369-.229h-.221Zm1.164-.827h.755c.4 0 .736.138.736.593 0 .273-.146.485-.422.535l.496.824h-.515l-.408-.78h-.212v.78h-.43Zm.43.808h.253c.158 0 .362-.006.362-.218 0-.196-.177-.226-.334-.226h-.281Zm1.24-.808h.43v1.952h-.43Zm.618 0h.584l.83 1.356h.005v-1.356h.43v1.952h-.562l-.851-1.389h-.006v1.389h-.43Zm3.357.507a.46.46 0 0 0-.37-.159c-.325 0-.564.264-.564.628s.239.628.551.628a.47.47 0 0 0 .402-.209l.359.267c-.163.231-.439.339-.706.339-.609 0-1.053-.399-1.053-1.025s.444-1.025 1.053-1.025c.218 0 .493.074.658.287Zm.518-.507h1.325v.397h-.895v.364h.846v.397h-.846v.397h.945v.397H9.772Zm2.574.477c-.069-.088-.207-.129-.312-.129-.121 0-.289.055-.289.201 0 .355.898.126.898.81 0 .436-.35.642-.752.642a.93.93 0 0 1-.656-.245l.306-.337a.48.48 0 0 0 .375.185c.14 0 .297-.066.297-.204 0-.358-.915-.165-.915-.816 0-.416.361-.634.744-.634a.88.88 0 0 1 .598.204Zm1.471 0c-.069-.088-.206-.129-.311-.129-.122 0-.29.055-.29.201 0 .355.898.126.898.81 0 .436-.349.642-.752.642a.93.93 0 0 1-.656-.245l.306-.337a.48.48 0 0 0 .375.185c.141 0 .297-.066.297-.204 0-.358-.915-.165-.915-.816 0-.416.361-.634.744-.634.221 0 .433.058.599.204Zm1.69-.477h.355l.849 1.952h-.485l-.168-.414H15.3l-.163.414h-.474Zm.165.568-.237.607h.477Zm2.586.631c0 .46-.281.802-.821.802-.543 0-.824-.341-.824-.802v-1.199h.43v1.183c0 .24.165.422.394.422.226 0 .392-.182.392-.422v-1.183h.43Zm.682-.818h-.557v-.381h1.543v.381h-.556v1.57h-.43Zm1.974-.43c.609 0 1.053.399 1.053 1.025s-.444 1.025-1.053 1.025-1.053-.399-1.053-1.025.444-1.025 1.053-1.025m0 1.653c.366 0 .606-.264.606-.628s-.24-.628-.606-.628c-.367 0-.606.264-.606.628s.239.628.606.628"/></svg>