<svg xmlns="http://www.w3.org/2000/svg" viewBox="0 0 24 24"><path fill="#44739e" d="M12 2C6.477 2 2 6.477 2 12s4.477 10 10 10 10-4.477 10-10S17.523 2 12 2m0 2c.135.01.27.018.404.032-.009.027-.023.054-.027.083q-.01.036-.032.177l-.003.022-.013.133-.002.04a2 2 0 0 0 .017.382c.028.226.1.476.245.72q.022.041.048.079.076.111.168.21c.022.022.04.045.063.064.036.037.071.067.11.1l.022.017c.301.243.691.403 1.17.47q.292.04.564.068.174.018.323.036l.032.003.276.043c.518.092.74.242.872.655l.027.103.004.019a.5.5 0 0 1 .011.118 1 1 0 0 1-.012.17 4 4 0 0 0-.374-.117l-.164-.041-.04-.01a3 3 0 0 0-.213-.036q-.217-.029-.424-.047h-.018q-.196-.017-.381-.019h-.25c-2.41.045-3.6 1.447-3.6 1.447-.21.042-.423.097-.642.173-.438.15-.853.396-1.238.695a1.053 1.053 0 1 0-1.262 1.262 13 13 0 0 0-1.42 2.173l.912-.305c-.002.066-.009.329.077.535.097.232.175.297.175.297h-1.98v2.77a8 8 0 0 1-1.418-4.525 8 8 0 0 1 8-8Zm1.514.162A8 8 0 0 1 20 11.983l-1.405 1.774-.003 2.75a9 9 0 0 1-.17.212v-2.965h-1.32l.136-.15 1.173-.002 1.305-1.648c-.07-.122.032.06.003-.031-.005-.019-.005-.019-.014-.041q-.021-.067-.053-.151L17.58 8.484c-.124-.143-.023-.04-.226-.25.061-.247.107-.703.049-.998l.004-.001-.053-.248c-.423-1.322-1.583-1.45-2.503-1.547-.171-.019-.348-.037-.522-.062-.3-.041-.519-.134-.655-.27q-.015-.013-.028-.032l-.04-.05a.5.5 0 0 1-.057-.102q-.022-.054-.036-.106-.013-.053-.018-.104a1 1 0 0 1-.005-.097 1 1 0 0 1 .018-.214q.013-.06.018-.116a.5.5 0 0 0-.009-.125Zm1.12 1.372s.26.009.591.06c.295.046.647.123.928.255q.15.07.264.16c.53.43.742 1.065.742 1.065s-.473-.661-1.072-.989a2 2 0 0 0-.155-.075 13 13 0 0 0-1.297-.476Zm-.493.991.003.001Zm.657 1.207q.184 0 .374.014c.178.014.342.041.492.07q.226.098.462.228l-.068.082a4.2 4.2 0 0 0-.963-.143q-.107-.002-.215-.002c-.292 0-.59.014-.869.032a5 5 0 0 0-.453-.134 5.6 5.6 0 0 1 1.24-.147m.596 1.102q.105.001.212.023a1.053 1.053 0 0 1-.291 2.079l-.014-.047s-.056.605-.205.906c-.149.3-.663.165-.663.165s.573.291.573.476c0 .184-.389.766-.389.766s.42-.267.664-.783l.805.402a2 2 0 0 1-.162.38 2.1 2.1 0 0 1-.44.554h-1.806a.94.94 0 0 0-.109-.835c-.206-.291-.586-.43-.865-.494a.26.26 0 0 0-.101-.214.34.34 0 0 0-.139-.067c.018-.23.054-.536.13-.834-.228-.237-.75-.76-.935-.76-.164 0-.643.385-.928.625.072.301.1.71.112 1.004a.22.22 0 0 0-.152.106.2.2 0 0 0-.032.085c-.004.002-.606.159-.826.731-.097.252-.093.473-.018.653H8.476l-.39-.607a.35.35 0 0 1 .076-.464l.604-.481s-.815.262-.95.067c-.09-.128-.074-.496-.052-.741.045-.15.104-.3.188-.436.067-.087.142-.183.184-.23.269-.3.499-.37.747-.483a1.8 1.8 0 0 1 .747-.144c.516-.396 1.675-1.26 1.957-1.26.312 0 1.593.896 1.977 1.169a1.6 1.6 0 0 1 .788-.096 1.053 1.053 0 0 1 1.043-1.215Zm1.763.287s.758.595 1.21 1.767c.454 1.172.44 1.482.44 1.482L16.88 9.951l1.28 1.177s-.051-.687-1.003-2.007m-1.765.18a.586.586 0 1 0-.004 1.174.586.586 0 0 0 .004-1.176Zm-3.806.055c-.212 0-1.021.647-1.462 1.013.196.107.337.261.435.411.338-.268.891-.682 1.099-.682.226 0 .837.43 1.142.654a1.1 1.1 0 0 1 .315-.374q.004-.003.01-.004c-.467-.366-1.327-1.016-1.54-1.016Zm-3.7.086a.586.586 0 0 1 .563.753 8 8 0 0 0-.39.394l-.052.013a.586.586 0 1 1-.123-1.16Zm1.945 1.79q-.085 0-.16.027a.186.186 0 0 1-.123.328.2.2 0 0 1-.141-.065.453.453 0 1 0 .426-.293Zm3.602 0q-.084 0-.16.027a.187.187 0 1 1-.264.263.453.453 0 1 0 .426-.293Zm-5.89 1.557c.245.54.932.965.932.965h-.703s-.252-.187-.414-.453a2 2 0 0 1-.197-.385Zm8.705.113.813.406-.407.446h-.589s.103-.123.168-.413c.023-.11.023-.275.014-.439Zm-6.67.852h.236a.7.7 0 0 0 .136.206l-.013.041-.002.01c-.004.013-.005.031-.01.045v.014l-.002.05v.014l.005.04.002.014c.003.019.005.032.01.048l.002.01c.01.031.028.066.041.098.004.005.01.014.01.018.013.028.031.05.048.075l.014.018c.022.027.04.051.065.074l.018.018c.023.019.041.037.063.056q.007.003.013.009l.07.048q.004.003.01.004a1.3 1.3 0 0 1-.371-.25.9.9 0 0 1-.22-.447Zm4.099 0h.278c-.113.25-.522.55-.522.55s-.032.065-.214.207a1.1 1.1 0 0 1-.358.162l.004-.002q.034-.02.073-.047.003-.003.01-.004.038-.029.077-.065l.009-.01q.035-.033.067-.072l.014-.013a1 1 0 0 0 .057-.083l.01-.013.027-.055a.93.93 0 0 0 .465-.547Zm-2.03.195s.014.009.027.027q.013.014.032.027c.138.115.51.386.97.405l-.001.028a1 1 0 0 0-.003.12v.003a2.5 2.5 0 0 1-.535-.11c-.31-.103-.492-.336-.492-.336s-.35.214-.815.298a2 2 0 0 1-.323.037h-.003v-.005a2 2 0 0 0-.024-.2l-.002-.017c.414.06.936-.165 1.105-.245l.018-.009a.1.1 0 0 0 .028-.014Zm5.324.283.715.813h-.34v.637h-.75v-.637h-.34Zm-.716 1.644h1.431v.246h-1.43Z"/></svg>