<svg xmlns="http://www.w3.org/2000/svg" viewBox="0 0 24 24"><path fill="#44739e" d="M6.107 2.717c-.909.504-.909.584-.059 1.624 4.713 5.744 5.837 7.099 5.923 7.099.115.016 6.641-7.793 6.715-8.029.028-.064-.174-.284-.434-.489-.345-.284-.719-.394-1.425-.426-1.326-.094-1.789.221-3.43 2.24-.749.915-1.384 1.672-1.384 1.672-.013 0-.633-.741-1.368-1.641-.734-.898-1.584-1.799-1.873-1.972-.663-.41-2.018-.441-2.667-.078ZM3.081 5.036C2.375 5.335 2 5.62 2 5.84c0 .11 1.108 1.531 2.449 3.156 1.355 1.624 2.45 2.981 2.45 3.013s-1.11 1.387-2.45 3.013c-1.354 1.639-2.436 3.074-2.42 3.201.071.426 1.253.963 2.117.963 1.398-.016 1.714-.285 4.67-3.834 1.482-1.782 2.694-3.297 2.694-3.343 0-.064-1.197-1.547-2.666-3.313C6.927 6.408 5.99 5.383 5.543 5.162c-.676-.363-1.771-.426-2.462-.126m15.388.111c-.418.236-1.47 1.371-3.285 3.549-1.469 1.766-2.666 3.249-2.666 3.311s1.211 1.563 2.694 3.345c2.954 3.549 3.272 3.818 4.669 3.834.865 0 2.045-.537 2.119-.963.013-.142-1.067-1.562-2.421-3.187-1.34-1.624-2.45-2.997-2.45-3.029s1.11-1.403 2.45-3.028c1.354-1.623 2.434-3.044 2.421-3.17-.074-.41-1.139-.883-2.061-.947-.663-.031-1.008.032-1.47.285m-9.841 11.39c-1.788 2.16-3.258 3.99-3.286 4.068-.028.064.173.284.434.49.344.284.72.394 1.425.426 1.311.094 1.801-.237 3.459-2.288a54 54 0 0 1 1.353-1.624c.015 0 .635.741 1.37 1.642 1.686 2.05 2.132 2.349 3.444 2.27.706-.032 1.08-.142 1.425-.426.26-.206.462-.426.434-.49-.074-.236-6.602-8.044-6.715-8.028-.058 0-1.556 1.783-3.344 3.96"/></svg>