<?xml version="1.0" encoding="UTF-8"?>
<svg width="24px" fill="#44739e" height="24px" viewBox="0 0 24 24" version="1.1" xmlns="http://www.w3.org/2000/svg" xmlns:xlink="http://www.w3.org/1999/xlink">
            <path d="m 12.766,21.5 c 0.135,-0.112 0.039,-0.3 -0.152,-0.3 v 0 a 0.2,0.2 0 0 0 -0.215,0.178 c 0.001,0.158 0.232,0.238 0.367,0.122 z m -1.108,-0.667 h 0.275 v 0.031 h -0.275 z m 0.063,-0.296 v 0.055 l 0.058,0.063 h 0.048 l 0.059,-0.063 v -0.055 h -0.037 v 0.045 l -0.039,0.043 h -0.013 l -0.039,-0.043 v -0.045 z m 0.079,0.144 -0.026,0.021 c 0.024,0.023 0.022,0.026 0,0.047 a 0.027,0.027 0 0 0 -0.008,0.02 c 0,0.017 0.016,0.033 0.03,0.045 l 0.025,-0.019 v 0 C 11.8,20.777 11.797,20.767 11.816,20.747 a 0.029,0.029 0 0 0 0.01,-0.021 C 11.825,20.711 11.812,20.7 11.8,20.681 Z m 0.074,0 -0.026,0.021 c 0.025,0.023 0.023,0.026 0,0.047 a 0.027,0.027 0 0 0 -0.008,0.02 c 0,0.017 0.016,0.033 0.03,0.045 L 11.9,20.8 v 0 c -0.021,-0.018 -0.024,-0.028 0,-0.048 a 0.032,0.032 0 0 0 0.009,-0.021 C 11.9,20.711 11.891,20.7 11.874,20.681 Z m -0.155,0.133 0.025,-0.019 v 0 c -0.022,-0.018 -0.025,-0.028 -0.006,-0.048 a 0.029,0.029 0 0 0 0.01,-0.021 c 0,-0.015 -0.013,-0.028 -0.029,-0.045 l -0.026,0.021 c 0.024,0.023 0.022,0.026 0,0.047 a 0.031,0.031 0 0 0 -0.007,0.02 0.069,0.069 0 0 0 0.033,0.045 z m -0.741,-0.292 a 0.2,0.2 0 0 0 -0.215,0.179 c 0,0.158 0.232,0.237 0.367,0.126 0.135,-0.111 0.039,-0.305 -0.152,-0.305 z m 1.638,0.046 v 0 a 0.151,0.151 0 0 0 -0.163,0.135 v 0.145 a 0.013,0.013 0 0 0 0.014,0.011 0.012,0.012 0 0 0 0.013,-0.011 v -0.036 a 0.214,0.214 0 0 0 0.136,0.048 0.16,0.16 0 1 0 -0.19,-0.157 0.132,0.132 0 0 0 0.027,0.079 V 20.7 a 0.151,0.151 0 0 1 0.163,-0.134 c 0.145,0 0.218,0.145 0.115,0.23 a 0.169,0.169 0 0 1 -0.078,0.036 0.169,0.169 0 0 0 0.078,-0.036 c 0.102,-0.082 0.029,-0.228 -0.115,-0.228 z M 11.62,21.4 c 0.033,0.01 0.041,0.01 0.046,0.019 0.005,0.009 0,0.015 -0.016,0.04 l 0.046,0.039 c 0.031,-0.012 0.038,-0.017 0.049,-0.013 0.011,0.004 0.012,0.011 0.023,0.037 h 0.066 c 0.012,-0.026 0.012,-0.033 0.023,-0.037 0.011,-0.004 0.018,0 0.049,0.013 l 0.046,-0.039 C 11.938,21.434 11.932,21.428 11.936,21.419 11.94,21.41 11.95,21.41 11.982,21.4 v -0.055 c -0.033,-0.009 -0.041,-0.01 -0.046,-0.019 -0.005,-0.009 0,-0.014 0.016,-0.04 l -0.046,-0.038 c -0.031,0.012 -0.038,0.016 -0.049,0.013 -0.011,-0.003 -0.011,-0.011 -0.023,-0.038 h -0.066 c -0.011,0.027 -0.012,0.034 -0.023,0.038 -0.011,0.004 -0.018,0 -0.049,-0.013 l -0.046,0.038 c 0.015,0.026 0.02,0.031 0.016,0.04 -0.004,0.009 -0.013,0.01 -0.046,0.019 z m -0.642,0.156 a 0.014,0.014 0 0 0 0.015,-0.012 v -0.011 h 0.13 v 0 h 0.014 v 0 h 0.008 v 0 0 0 0 0 0 0 0 0 0 0 0 0 0 0 0 0 0 0 0 0 h 0.016 a 0.014,0.014 0 0 0 0.015,-0.012 0.014,0.014 0 0 0 -0.015,-0.012 h -0.017 v 0 0 0 0 0 0 0 0 0 0 0 0 0 0 0 0 0 h -0.009 v 0 h -0.011 v 0 h -0.133 v -0.012 a 0.014,0.014 0 0 0 -0.015,-0.012 0.013,0.013 0 0 0 -0.014,0.012 v 0.012 h -0.133 v 0 h -0.011 v 0 h -0.009 v 0 0 0 H 10.8 v 0 0 0 0 0 0 0 0 0 0 0 0 0 0 0 h -0.016 a 0.014,0.014 0 0 0 -0.015,0.012 0.014,0.014 0 0 0 0.015,0.012 H 10.8 v 0 0 0 0 0 0 0 0 0 0 0 0 0 0 0 0 0 0 0 h 0.009 v 0 h 0.014 v 0 h 0.131 v 0.011 a 0.01341641,0.01341641 0 0 0 0.024,0.012 z m 2.804,0.311 h -3.738 l -0.02,-0.042 v 0.056 l 0.034,0.07 H 13.8 L 13.835,21.88 V 20.502 L 13.782,20.44 Z m -3.693,-1.38 v 1.252 l 0.016,0.031 h 3.58 v -1.283 h -0.782 v 1.214 h -2.237 v -1.214 z m 7.54,0.845 -0.081,-0.086 v 0.645 l 0.081,-0.086 z m 1.43,-0.061 v 0.594 l 0.018,0.017 v -0.627 z m -1.396,0.568 -0.113,0.121 a 0.023,0.023 0 0 0 0.021,0.016 h 1.483 a 0.023,0.023 0 0 0 0.023,-0.024 V 21.947 L 19.025,21.9 Z m -0.092,-0.678 a 0.022,0.022 0 0 0 -0.021,0.015 l 0.025,0.028 0.088,0.094 1.362,-0.062 0.052,-0.046 v -0.006 a 0.023,0.023 0 0 0 -0.023,-0.023 z m 0.106,0.185 v 0.445 l 1.333,0.06 V 21.286 Z M 6.27,21.805 6.351,21.891 V 21.246 L 6.27,21.332 Z M 4.874,21.9 4.821,21.947 v 0.005 a 0.024,0.024 0 0 0 0.024,0.024 H 6.327 A 0.024,0.024 0 0 0 6.349,21.96 L 6.236,21.839 Z M 6.349,21.176 A 0.023,0.023 0 0 0 6.327,21.161 H 4.845 a 0.023,0.023 0 0 0 -0.024,0.023 v 0.006 l 0.053,0.046 1.362,0.062 z m -0.127,0.615 v -0.445 l -1.333,-0.06 v 0.565 z m 5.872,-2.221 v -0.065 h 0.05 v -0.094 h 5.041 v -0.119 h -5.042 v 0 h -0.417 v 0 H 6.659 v 0.119 h 5.066 v 0.095 h 0.05 V 19.57 H 4.8 v 1.561 a 0.069,0.069 0 0 1 0.048,-0.019 h 1.479 a 0.07,0.07 0 0 1 0.056,0.028 l 0.016,-0.017 v 0.061 0 0.75 H 9.94 L 9.926,21.907 v -1.458 l 0.163,-0.192 v 0.132 h 3.6 V 20.34 h 0.139 l 0.108,0.126 v 0.022 l 0.021,0.023 v 1.395 l -0.014,0.028 H 17.5 v -0.811 l 0.015,0.017 a 0.073,0.073 0 0 1 0.056,-0.028 h 1.483 a 0.069,0.069 0 0 1 0.048,0.019 v -0.061 0 -0.022 0 -0.066 0 -0.022 0 -0.067 0 -0.021 0 -0.067 0 -0.021 0 -0.067 0 -0.017 0 -0.066 0 -0.022 0 -0.066 0 -0.022 0 -0.067 0 -0.021 0 -0.067 0 -0.021 0 -0.067 0 -0.022 0 -0.066 0 -0.022 0 -0.071 0 -0.021 0 -0.067 0 -0.022 0 -0.067 0 -0.023 0 -0.067 0 -0.022 0 -0.066 0 -0.022 0 -0.067 0 -0.021 0 -0.065 z M 6.381,22 H 6.386 L 6.383,21.997 Z m 7.524,0 H 17.5 v -0.048 0 -0.009 -0.009 H 13.939 Z M 6.399,21.934 V 21.952 21.953 22 H 9.974 L 9.94,21.934 Z M 17.513,22 h 0.005 L 17.516,21.997 Z M 17.911,8 v 0.186 h 0.213 V 7.95 H 17.96 Z M 18.124,7.478 V 7.242 h -0.213 v 0.186 l 0.049,0.05 z m -0.213001,0.7569997 h 0.213 v 0.3989999 h -0.213 z m 0,-1.2299996 h 0.213 v 0.188 h -0.213 z M 6.746,3.907 A 3.124,3.124 0 0 0 7.531,2.518 3.432,3.432 0 0 1 7.685,2 H 7.571 A 3.384,3.384 0 0 0 7.427,2.5 3.035,3.035 0 0 1 6.664,3.841 1.664,1.664 0 0 0 6.141,4.795 L 6.247,4.789 A 1.625,1.625 0 0 1 6.746,3.907 Z m 4.917,3.05 H 11.77 A 15.952,15.952 0 0 0 10.919,2.617 C 10.843,2.399 10.763,2.191 10.682,2 h -0.116 c 0.087,0.2 0.171,0.42 0.252,0.652 a 15.825,15.825 0 0 1 0.845,4.305 z m 0.366,0 h 0.122 A 19.3,19.3 0 0 0 11.126,2.125 C 11.11,2.083 11.094,2.041 11.079,2 h -0.131 l 0.063,0.167 a 19.211,19.211 0 0 1 1.018,4.79 z m -4.77,-0.22 a 13.513,13.513 0 0 1 0.747,-4.4 C 8.049,2.222 8.093,2.109 8.138,2.001 H 8.006 C 7.967,2.101 7.929,2.195 7.892,2.295 A 13.622,13.622 0 0 0 7.137,6.738 Z M 6.293,4.839 H 6.196 L 6.098,4.844 6.077,5.262 h 0.27 z M 7.467,8.39 H 7.976 L 7.993,8.372 V 8.105 L 7.976,8.088 H 7.467 V 8.173 H 7.613 L 7.659,8.219 V 8.268 L 7.613,8.314 H 7.467 Z m 0,-1.026 H 7.976 L 7.993,7.346 V 7.079 L 7.976,7.062 H 7.467 V 7.147 H 7.613 L 7.659,7.193 V 7.242 L 7.613,7.288 H 7.467 Z M 6.325,8.065 h 0.2 A 0.106,0.106 0 0 1 6.483,7.98 0.107,0.107 0 0 1 6.697,7.98 0.106,0.106 0 0 1 6.655,8.065 H 7.096 A 0.109,0.109 0 0 1 7.054,7.98 0.108,0.108 0 0 1 7.269,7.98 0.109,0.109 0 0 1 7.227,8.065 H 7.42 V 7.355 H 7.246 a 0.109,0.109 0 0 1 0.021,0.064 0.108,0.108 0 0 1 -0.215,0 0.1,0.1 0 0 1 0.022,-0.064 h -0.4 a 0.109,0.109 0 0 1 0.021,0.064 0.107,0.107 0 0 1 -0.214,0 A 0.109,0.109 0 0 1 6.5,7.355 H 6.325 Z m 0,0.341 A 0.055,0.055 0 0 0 6.38,8.461 H 7.363 A 0.055,0.055 0 0 0 7.418,8.406 V 8.114 H 6.325 Z m 0.351,-1.62 h -0.3 A 0.055,0.055 0 0 0 6.321,6.841 v 0.466 h 0.147 a 0.108,0.108 0 1 1 0.093,0 h 0.617 a 0.108,0.108 0 1 1 0.093,0 H 7.414 V 6.841 A 0.055,0.055 0 0 0 7.359,6.786 H 6.676 Z M 5.783,7.65 H 6.276 V 7.526 H 5.927 5.783 Z m 0,0.1250001 h 0.493 v 0.124 H 5.783 Z m 1.684,0 h 10.617 v 0.124 H 7.467 Z M 7.467,7.526 V 7.65 H 18.084 V 7.526 H 17.94 Z M 17.69,7.7 h -0.034 v 0.009 a 0.019,0.019 0 0 0 0.038,0 z m -0.717,0 H 16.94 v 0.009 a 0.018,0.018 0 0 0 0.018,0.018 0.018,0.018 0 0 0 0.019,-0.018 z m -0.717,0 h -0.033 v 0.009 a 0.018,0.018 0 0 0 0.019,0.018 0.019,0.019 0 0 0 0.019,-0.018 z m -0.716,0 h -0.033 v 0.009 a 0.018,0.018 0 0 0 0.018,0.018 0.018,0.018 0 0 0 0.019,-0.018 z m -0.717,0 H 14.79 v 0.009 a 0.018,0.018 0 0 0 0.019,0.018 0.019,0.019 0 0 0 0.019,-0.018 z m -0.716,0 h -0.033 v 0.009 a 0.019,0.019 0 0 0 0.019,0.018 0.018,0.018 0 0 0 0.019,-0.018 z m -0.717,0 h -0.033 v 0.009 a 0.018,0.018 0 0 0 0.019,0.018 0.019,0.019 0 0 0 0.019,-0.018 z m -0.716,0 h -0.033 v 0.009 a 0.019,0.019 0 0 0 0.019,0.018 0.018,0.018 0 0 0 0.019,-0.018 z m -0.717,0 h -0.033 v 0.009 a 0.018,0.018 0 0 0 0.019,0.018 0.019,0.019 0 0 0 0.019,-0.018 z m -0.716,0 h -0.033 v 0.009 a 0.019,0.019 0 0 0 0.019,0.018 0.018,0.018 0 0 0 0.019,-0.018 z m -0.717,0 h -0.033 v 0.009 a 0.018,0.018 0 0 0 0.019,0.018 0.019,0.019 0 0 0 0.019,-0.018 z m -0.716,0 H 9.775 V 7.709 A 0.019,0.019 0 0 0 9.794,7.727 0.018,0.018 0 0 0 9.813,7.709 Z m -0.717,0 H 9.058 V 7.709 A 0.018,0.018 0 0 0 9.077,7.727 0.019,0.019 0 0 0 9.096,7.709 Z m -0.716,0 H 8.342 V 7.709 A 0.019,0.019 0 0 0 8.361,7.727 0.018,0.018 0 0 0 8.38,7.709 Z m -0.717,0 H 7.625 V 7.709 A 0.018,0.018 0 0 0 7.644,7.727 0.019,0.019 0 0 0 7.663,7.709 Z M 5.783,7.948 H 6.276 V 7.965 H 5.783 Z m 0,-0.47 H 5.907 6.276 V 7.442 H 5.783 Z m 5.336,0.249 V 7.708 7.7 h -0.5 v 0.009 0.019 z m -0.719,0 V 7.708 7.7 H 9.9 v 0.009 0.019 z m 1.435,0 V 7.708 7.7 h -0.5 v 0.009 0.019 z m -2.149,0 V 7.708 7.7 h -0.5 v 0.009 0.019 z m 8.208,0.221 H 7.467 V 7.965 H 17.876 Z M 12.552,7.727 V 7.708 7.7 h -0.5 v 0.009 0.019 z m -4.299,0 V 7.708 7.7 h -0.5 v 0.009 0.019 z m 0.716,0 V 7.708 7.7 h -0.5 V 7.709 7.728 Z M 7.467,7.7 V 7.728 H 7.536 V 7.709 7.7 Z M 17.862,7.442 H 7.467 V 7.478 H 17.891 L 17.862,7.449 Z M 16.851,7.727 V 7.708 7.7 h -0.5 v 0.009 0.019 z m -0.717,0 V 7.708 7.7 h -0.5 v 0.009 0.019 z m 1.433,0 V 7.708 7.7 h -0.5 v 0.009 0.019 z m -2.149,0 V 7.708 7.7 h -0.5 v 0.009 0.019 z m -1.433,0 V 7.708 7.7 h -0.5 v 0.009 0.019 z m 0.715,0 V 7.708 7.7 h -0.5 v 0.009 0.019 z m -1.432,0 V 7.708 7.7 h -0.5 v 0.009 0.019 z m 4.816,0 V 7.7 h -0.3 v 0.009 0.019 z m -12.301,-0.028 h 0.493 v 0.028 H 5.783 Z M 7.528,6.707 H 7.603 L 7.62,6.689 V 6.623 H 7.528 Z M 7.62,5.573 7.603,5.556 H 7.528 V 5.64 H 7.62 Z m -0.092,0.1160001 h 0.092 v 0.886 h -0.092 z M 7.388,6.6230001 H 7.48 v 0.084 H 7.388 Z m 0,-1.0669999 H 7.48 v 0.084 H 7.388 Z m 0,0.1329999 H 7.48 v 0.886 H 7.388 Z M 7.048,6.707 H 7.089 V 6.623 H 7.048 Z M 7.146,5.556 h -0.1 V 5.64 H 7.137 Z M 7.048,6.574 H 7.089 A 0.089,0.089 0 0 1 7.081,6.447 H 7.06 V 6.37 A 0.087,0.087 0 0 1 7.067,6.334 L 7.074,6.321 H 7.06 V 6.244 h 0.023 a 0.089,0.089 0 0 1 0,-0.119 H 7.06 V 6 L 7.085,5.985 H 7.06 V 5.909 H 7.119 L 7.06,5.889 V 5.821 L 7.124,5.8 H 7.06 V 5.721 H 7.132 V 5.689 H 7.048 Z M 6.676,6.737 V 5.31 H 6.403 6.076 V 6.737 H 6.38 Z M 6.86,5.057 6.864,5.06 6.867,5.057 Z m -0.02,1.1980001 h 0.068 v 0.034 h -0.068 z m 0,-0.236 h 0.068 v 0.034 h -0.068 z M 6.725,5.351 A 0.112,0.112 0 0 1 6.787,5.331 0.106,0.106 0 0 1 6.871,5.372 0.107,0.107 0 0 1 6.955,5.331 0.105,0.105 0 0 1 7,5.341 V 5.31 H 6.725 Z m 0,1.386 H 7 v -1.2 A 0.105,0.105 0 0 1 6.956,5.547 0.107,0.107 0 0 1 6.872,5.506 0.106,0.106 0 0 1 6.788,5.547 0.112,0.112 0 0 1 6.726,5.527 Z M 6.792,5.971 H 6.957 V 6.1 H 6.792 Z m 0,0.235 H 6.957 V 6.337 H 6.792 Z M 5.743,8.0139999 h 0.213 v 0.173 H 5.743 Z m 0,0.2209998 H 5.956 V 8.6339996 H 5.743 Z m 0,-1.2299996 h 0.213 v 0.188 H 5.743 Z m 0,0.237 h 0.213 v 0.151 H 5.743 Z M 6.88,8.621 H 6.86 l 0.01,0.01 z m 0.016,-0.1109998 h 0.086 v 0.062 h -0.086 z m -0.1349997,0 h 0.086 v 0.062 h -0.086 z M 6.276,8.406 V 8.17 h -0.2 v 0.255 l 0.22,0.143 H 6.335 L 6.374,8.51 v 0 A 0.1,0.1 0 0 1 6.282,8.419 V 8.407 Z m 0,-1.099 V 6.841 A 0.094,0.094 0 0 1 6.293,6.786 H 6.076 v 0.607 h 0.2 z m 0,0.807 v -0.1 h -0.2 v 0.107 h 0.2 z M 17.573,8.825 17.54,8.791 h -0.106 l -0.033,0.034 v 10.61 h 0.172 z M 6.459,8.825 6.426,8.791 H 6.32 L 6.286,8.825 v 10.61 H 6.459 Z M 19.55,9.546 h -0.445 v 0.001 10e-4 0.013 h 0.43 z m -0.445,1.013 v 0.015 h 0.445 l -0.015,-0.015 z m 0.731,-1.011 h -0.22 l -0.061,0.061 h -0.45 v 0.901 h 0.45 l 0.063,0.064 h 0.218 l 0.065,-0.066 V 9.613 Z M 18.995,9.499 h 0.049 0.013 V 9.497 9.452 h -0.749 v 0.047 h 0.003 z m 0.123,-2.51 A 0.023,0.023 0 0 0 19.105,6.968 V 9.5 a 0.023,0.023 0 0 0 0.013,-0.021 z m -0.809999,-0.023 h 0.748 v 0.018 h -0.748 z M 18.26,9.499 V 6.966 h -0.062 l -0.026,0.025 v 0.535 h -0.039 v 0.173 0.028 0.175 h 0.039 v 0.781 h -0.039 v 0.751 l 0.065,0.065 z M 18.652,8.84 18.429,8.969 v 0.258 l 0.223,0.129 0.224,-0.129 V 8.969 Z M 18.38,9.255 V 8.941 l 0.272,-0.157 0.272,0.157 v 0.314 l -0.257,0.149 h 0.39 V 7.032 h -0.749 v 2.372 h 0.33 z M 18.196,9.548 H 18.178 L 18.084,9.454 v 0 -0.701 h -0.048 v 10.683 h 0.16 z m 0.799,0 h -0.684 v 0.095 h 0.203 0.048 0.182 0.049 0.202 z m -0.433,0.143 h 0.182 v 9.744 H 18.562 Z M 19.057,9.609 V 9.548 h -0.013 v 0.143 0 9.745 h 0.017 V 10.622 H 19.057 V 10.51 Z m -0.811999,-0.061 h 0.018 V 19.436 h -0.018 z M 18.792999,9.691 h 0.202 v 9.744 h -0.202 z m -0.481998,0 h 0.203 v 9.744 h -0.203 z M 4.317,10.574 H 4.762 V 10.559 H 4.332 Z M 4.332,9.561 h 0.43 V 9.548 9.546 H 4.317 Z M 4.251,9.548 H 4.031 L 3.966,9.613 v 0.895 l 0.065,0.066 H 4.249 L 4.312,10.51 h 0.45 V 9.609 H 4.312 Z M 4.8099999,6.9660001 H 5.558 v 0.018 H 4.8099999 Z M 4.749,9.476 A 0.023,0.023 0 0 0 4.762,9.497 V 6.968 A 0.023,0.023 0 0 0 4.749,6.989 Z M 5.734,9.434 V 9.433 9.231 9.182 9 8.951 8.749 8.7 8.683 H 5.695 V 7.902 H 5.734 V 7.727 7.699 7.526 H 5.695 V 6.991 L 5.669,6.966 H 5.607 V 9.499 H 5.669 Z M 4.872,9.499 H 5.556 5.559 V 9.452 H 4.81 V 9.497 9.499 H 4.823 Z M 5.215,8.84 4.991,8.969 V 9.227 L 5.215,9.356 5.438,9.227 V 8.969 Z M 4.943,9.255 V 8.941 L 5.215,8.784 5.487,8.941 V 9.255 L 5.229,9.404 h 0.33 V 7.032 H 4.81 V 9.404 H 5.2 Z M 6.5079999,9.4820004 H 17.352 v 0.018 H 6.5079999 Z M 18.084,8.683 H 17.862 6.887 L 6.87,8.7 6.853,8.683 H 6.005 5.783 V 8.7 H 18.084 Z M 5.783,9 H 6.238 V 9.182 H 5.783 Z m 0,0.4820004 h 0.455 v 0.018 H 5.783 Z m 11.839,0 h 0.365 v 0.018 H 17.622 Z M 6.5079999,9 H 17.352 V 9.182 H 6.5079999 Z M 17.622,9 h 0.365 v 0.182 h -0.365 z m 0.365,-0.251 h -0.421 l 0.056,0.056 v 0.146 h 0.365 z m -0.365,0.4819999 h 0.365 V 9.433 H 17.622 Z M 17.352,8.805 17.408,8.749 H 6.452 L 6.508,8.805 V 8.951 H 17.352 Z M 5.783,9.2309999 H 6.238 V 9.433 H 5.783 Z M 6.238,8.805 6.294,8.749 H 5.783 V 8.951 H 6.238 Z M 6.5079999,9.2309999 H 17.352 V 9.433 H 6.5079999 Z M 5.689,9.548 H 5.67 v 9.888 H 5.831 V 9.548 H 5.734 V 9.503 Z M 5.353,9.643 H 5.556 V 9.548 H 4.872 V 9.643 H 5.074 5.123 5.305 Z M 5.1230001,9.691 h 0.182 v 9.744 h -0.182 z M 4.823,9.691 v 0 -0.143 H 4.81 v 0.061 0.901 0.112 H 4.805 v 8.814 h 0.018 z m 0.5300002,0 h 0.203 v 9.744 h -0.203 z m -0.481,0 h 0.202 v 9.744 h -0.202 z M 5.6040001,9.5480003 h 0.018 V 19.436 h -0.018 z M 12.206,12.521 H 12.2 a 0.1,0.1 0 0 1 -0.068,-0.172 h -0.393 a 0.1,0.1 0 0 1 -0.068,0.172 h -0.014 v 0.5 h 0.554 z m -0.063,6.295 v 0.15 h 10e-4 z m -0.418,0 v 0.15 h 0.002 z m 0.369,0.434 v -0.113 0 -0.001 h 0.05 l -10e-4,-0.122 v 0.069 h -0.416 l -0.002,-0.069 v 0.123 h 0.05 v 0.113 z m 0.049,-0.803 v 0.149 h 10e-4 z m -0.418,0 v 0.149 h 0.002 z m 0.418,0.198 v 0.069 h -0.416 l -0.002,-0.069 v 0.123 h 0.05 v 0 0.113 h 0.319 v -0.113 0 -0.001 h 0.05 z m 0,-0.567 v 0.149 h 10e-4 z m -0.418,0 v 0.149 h 0.002 z m 0.418,0.198 v 0.069 h -0.416 l -0.002,-0.069 v 0.122 h 0.05 v 0 0.114 h 0.319 v -0.114 0 0 h 0.05 z m 0,-0.567 v 0.149 h 10e-4 z m -0.418,0 v 0.149 h 0.002 z m 0.418,0.198 v 0.069 h -0.416 l -0.002,-0.069 v 0.122 h 0.05 v 0.113 h 0.319 v -0.113 0 0 h 0.05 z m 0,-0.568 v 0.15 h 10e-4 z m -0.418,0 v 0.15 h 0.002 z m 0.418,0.199 v 0.069 h -0.416 l -0.002,-0.069 v 0.122 h 0.05 v 0 0.113 h 0.319 v -0.113 0 -0.001 h 0.05 z m 0,-0.568 v 0.15 h 10e-4 z m -0.418,0 v 0.15 h 0.002 z m 0.418,0.198 v 0.069 h -0.416 l -0.002,-0.069 v 0.123 h 0.05 v 0 0.113 h 0.319 v -0.113 0 -0.001 h 0.05 z m 0,-0.567 v 0.15 h 10e-4 z m -0.418,0 v 0.15 h 0.002 z m 0.418,0.198 v 0.069 h -0.416 l -0.002,-0.069 v 0.123 h 0.05 v 0 0.113 h 0.319 v -0.113 0 -0.001 h 0.05 z m 0,-0.567 v 0.149 h 10e-4 z m -0.418,0 v 0.149 h 0.002 z m 0.418,0.198 v 0.069 H 11.727 L 11.725,16.43 v 0.122 h 0.05 v 0 0.114 h 0.319 v -0.114 0 0 h 0.05 z m 0,-0.567 v 0.149 h 10e-4 z m -0.418,0 v 0.149 h 0.002 z m 0.418,0.198 v 0.069 h -0.416 l -0.002,-0.069 v 0.122 h 0.05 v 0 0.113 h 0.319 v -0.113 0 0 h 0.05 z m 0,-0.568 v 0.15 h 10e-4 z m -0.418,0 v 0.15 h 0.002 z m 0.418,0.199 v 0.069 h -0.416 l -0.002,-0.069 v 0.122 h 0.05 v 0.113 h 0.319 v -0.113 0 0 h 0.05 z m 0,-0.568 v 0.15 h 10e-4 z m -0.418,0 v 0.15 h 0.002 z m 0.418,0.198 v 0.069 h -0.416 l -0.002,-0.069 v 0.123 h 0.05 v 0.113 h 0.319 v -0.113 0 -10e-4 h 0.05 z m 0,-0.567 v 0.15 h 10e-4 z m -0.418,0 v 0.15 h 0.002 z m 0.418,0.198 v 0.069 h -0.416 l -0.002,-0.069 v 0.123 h 0.05 v 0 0.113 h 0.319 v -0.113 0 -0.001 h 0.05 z m 0,-0.567 v 0.149 h 10e-4 z m -0.418,0 v 0.149 h 0.002 z m 0.418,0.198 v 0.069 h -0.416 l -0.002,-0.069 v 0.122 h 0.05 v 0.114 h 0.319 v -0.114 0 0 h 0.05 z m 0,-0.567 v 0.149 h 10e-4 z m -0.418,0 v 0.149 h 0.002 z m 0.418,0.198 v 0.069 h -0.416 l -0.002,-0.069 v 0.122 h 0.05 v 0 0.113 h 0.319 v -0.113 0 0 h 0.05 z m 0,-0.568 v 0.15 h 10e-4 z m -0.418,0 v 0.15 h 0.002 z m 0.418,0.199 v 0.069 h -0.416 l -0.002,-0.069 v 0.122 h 0.05 v 0 0.113 h 0.319 v -0.113 0 0 h 0.05 z m 0,-0.739 v 0.069 h -0.416 l -0.002,-0.069 v 0.123 h 0.05 v 0 0.113 h 0.319 v -0.114 h 0.05 z m -0.418,0.171 v 0.15 h 0.002 z m 0.418,0.198 v 0.069 h -0.416 l -0.002,-0.069 v 0.123 h 0.05 v 0 0.113 h 0.319 v -0.113 0 -10e-4 h 0.05 z M 11.98,7.005 H 11.951 11.856 11.825 11.818 11.614 7.467 V 7.013 H 7.996 L 8.042,7.059 V 7.366 L 8.015,7.393 h 9.847 V 7.005 H 12.2 11.982 Z M 7.61,7.213 7.592,7.196 H 7.467 V 7.239 H 7.592 L 7.61,7.221 Z m 0,1.026 L 7.592,8.222 H 7.467 V 8.265 H 7.592 L 7.61,8.247 Z M 6.027,8.121 V 8.014 H 6.005 v 0.62 h 0.8 L 6.791,8.621 H 6.713 V 8.51 H 6.433 L 6.361,8.616 H 6.282 L 6.027,8.452 V 8.17 Z m -0.022,-1.1159999 h 0.022 v 0.388 h -0.022 z M 17.862,8.014 H 7.467 V 8.039 H 8 L 8.046,8.085 V 8.392 L 8,8.438 H 7.461 A 0.1,0.1 0 0 1 7.361,8.51 H 7.03 V 8.621 H 6.949 L 6.936,8.634 h 10.926 z"/>

</svg>