<?xml version="1.0" encoding="UTF-8" standalone="no"?>
<svg
   width="24"
   height="24"
   viewBox="0 0 24 24"
   version="1.1"
   xmlns="http://www.w3.org/2000/svg"
   xmlns:svg="http://www.w3.org/2000/svg">
  <path
     style="fill:#44739e"
     d="M 12,2 A 10,10 0 0 0 2,12 10,10 0 0 0 12,22 10,10 0 0 0 22,12 10,10 0 0 0 12,2 Z m 0,2.54098 A 7.4590164,7.4590164 0 0 1 19.459016,12 7.4590164,7.4590164 0 0 1 12,19.459016 7.4590164,7.4590164 0 0 1 4.54098,12 7.4590164,7.4590164 0 0 1 12,4.54098 Z m 0,1.14754 A 6.3114754,6.3114754 0 0 0 5.68852,12 6.3114754,6.3114754 0 0 0 12,18.311475 6.3114754,6.3114754 0 0 0 18.311475,12 6.3114754,6.3114754 0 0 0 12,5.68852 Z m 0,4.18033 A 2.1311475,2.1311475 0 0 1 14.131148,12 2.1311475,2.1311475 0 0 1 12,14.13115 2.1311475,2.1311475 0 0 1 9.86885,12 2.1311475,2.1311475 0 0 1 12,9.86885 Z" 
   />
</svg>
