<svg xmlns="http://www.w3.org/2000/svg" viewBox="0 0 24 24"><path fill="#44739e" d="M12.035 2.675a9.346 9.346 0 1 0 9.346 9.324 9.357 9.357 0 0 0-9.346-9.324m-.847 15.431h-.991v-2.797a7 7 0 0 1 .066-1.014h-.078a2.33 2.33 0 0 1-2.064.996 2.4 2.4 0 0 1-1.974-.889 3.9 3.9 0 0 1-.709-2.481 3.93 3.93 0 0 1 .717-2.505 2.4 2.4 0 0 1 1.993-.897 2.38 2.38 0 0 1 2.064 1.014h.054l.143-.897h.782Zm6.726-3.704a2.41 2.41 0 0 1-1.993.889 2.9 2.9 0 0 1-1.17-.232 2.2 2.2 0 0 1-.882-.729h-.072l-.209.841h-.709V5.913h.99v2.232q0 .759-.048 1.36h.048a2.35 2.35 0 0 1 2.052-.978 2.42 2.42 0 0 1 1.993.881 3.84 3.84 0 0 1 .715 2.491 3.9 3.9 0 0 1-.715 2.503m3.302-6.283a9.999 9.999 0 1 0 .784 3.88 10 10 0 0 0-.784-3.88m-.127 7.705a9.832 9.832 0 0 1-18.109 0A9.826 9.826 0 0 1 18.983 5.072a9.835 9.835 0 0 1 2.106 10.752m-12.83-6.48a1.53 1.53 0 0 0-1.336.681 3.4 3.4 0 0 0-.46 1.908 3.3 3.3 0 0 0 .454 1.885 1.56 1.56 0 0 0 1.354.644 1.8 1.8 0 0 0 1.444-.531 2.9 2.9 0 0 0 .482-1.789v-.221a3.3 3.3 0 0 0-.464-1.974 1.74 1.74 0 0 0-1.474-.603m7.515.012a1.72 1.72 0 0 0-1.46.585 3.26 3.26 0 0 0-.448 1.956 3.3 3.3 0 0 0 .459 1.974 1.75 1.75 0 0 0 1.473.591 1.54 1.54 0 0 0 1.361-.662 3.44 3.44 0 0 0 .446-1.915 3.3 3.3 0 0 0-.446-1.902 1.6 1.6 0 0 0-1.385-.627"/></svg>