<?xml version="1.0" encoding="UTF-8"?>
<svg width="24px" fill="#44739e" height="24px" viewBox="0 0 24 24" version="1.1" xmlns="http://www.w3.org/2000/svg" xmlns:xlink="http://www.w3.org/1999/xlink">
            <path d="m 17.3,18.609 a 1.7,1.7 0 0 0 -1,1.055 c -0.413,1.353 1.286,2.409 2.581,1.6 0.365,-0.221 0.365,-0.413 0,-0.634 -0.24,-0.143 -0.269,-0.143 -0.451,0.02 a 0.816,0.816 0 1 1 0,-1.229 c 0.182,0.163 0.2,0.163 0.442,-0.077 0.3,-0.3 0.24,-0.422 -0.3,-0.662 A 1.712,1.712 0 0 0 17.3,18.609 Z m -2.042,1.429 v 1.536 h 0.767 V 18.5 h -0.767 z m -1.795,-1.401 a 0.8,0.8 0 0 0 -0.509,0.768 c 0,0.422 0.115,0.557 0.739,0.835 0.461,0.211 0.614,0.317 0.586,0.441 -0.039,0.221 -0.48,0.279 -0.864,0.116 -0.269,-0.106 -0.307,-0.1 -0.47,0.115 -0.163,0.215 -0.164,0.24 -0.02,0.355 a 2.079,2.079 0 0 0 1.258,0.259 c 0.412,-0.077 0.883,-0.528 0.883,-0.845 a 1.226,1.226 0 0 0 -0.864,-0.93 c -0.49,-0.164 -0.634,-0.317 -0.432,-0.48 a 0.7,0.7 0 0 1 0.518,-0.058 c 0.327,0.048 0.394,0.029 0.528,-0.182 0.134,-0.211 0.144,-0.24 -0.038,-0.336 a 1.883,1.883 0 0 0 -1.315,-0.058 z m -3.772,0.845 c 0,1.526 0.365,2.044 1.44,2.044 1.075,0 1.439,-0.518 1.439,-2.044 V 18.5 h -0.748 l -0.039,0.95 c -0.028,1.056 -0.172,1.353 -0.652,1.353 -0.528,0 -0.624,-0.173 -0.653,-1.286 L 10.44,18.5 H 9.691 Z M 5.478,18.666 C 4.864,18.992 4.749,19.252 4.72,20.48 l -0.038,1.094 h 0.787 v -0.941 c 0,-1.1 0.115,-1.362 0.614,-1.362 0.537,0 0.633,0.211 0.633,1.324 v 0.979 h 0.768 v -0.988 c 0,-1.123 0.1,-1.315 0.652,-1.315 0.48,0 0.6,0.268 0.6,1.362 v 0.941 H 9.5 v -0.988 c 0,-1.095 -0.134,-1.488 -0.6,-1.834 a 1.375,1.375 0 0 0 -1.478,0.02 l -0.317,0.22 -0.288,-0.2 A 1.3,1.3 0 0 0 5.478,18.666 Z M 13.165,2.476 A 11.619,11.619 0 0 0 4.739,8.57 6.232,6.232 0 0 0 4,11.593 a 4.556,4.556 0 0 0 1.507,3.6 5.234,5.234 0 0 0 4.184,1.467 5.923,5.923 0 0 0 2.9,-0.767 l 0.547,-0.288 0.681,0.489 a 6.814,6.814 0 0 0 0.931,0.595 0.954,0.954 0 0 0 1.15,-1.324 3.935,3.935 0 0 0 -0.711,-0.643 3.483,3.483 0 0 1 -0.6,-0.5 4.941,4.941 0 0 1 0.336,-0.6 3.322,3.322 0 0 0 0.537,-2.332 2.559,2.559 0 0 0 -4.376,-1.4 2.419,2.419 0 0 0 -0.749,1.958 3.49,3.49 0 0 0 0.845,1.968 2.329,2.329 0 0 1 0.336,0.47 2.9,2.9 0 0 1 -0.691,0.288 A 4.1,4.1 0 0 1 7.849,14.5 3.415,3.415 0 0 1 6.179,12.907 4.289,4.289 0 0 1 6.1,10.336 8.687,8.687 0 0 1 8.52,6.718 C 12,3.733 16.409,3.484 17.724,6.2 a 3.124,3.124 0 0 1 0.3,1.535 3.846,3.846 0 0 1 -0.23,1.823 6.379,6.379 0 0 1 -0.825,1.661 c -0.6,0.892 -0.682,1.247 -0.4,1.67 a 0.921,0.921 0 0 0 1.046,0.326 c 0.662,-0.182 1.727,-1.9 2.169,-3.493 A 6.891,6.891 0 0 0 19.739,6.1 5.835,5.835 0 0 0 19.192,4.871 5.654,5.654 0 0 0 15.992,2.625 8.925,8.925 0 0 0 13.165,2.476 Z m 0.173,8.733 c 0.288,0.288 0.25,0.749 -0.1,1.277 a 1.466,1.466 0 0 1 -0.375,0.451 c -0.173,0 -0.6,-0.72 -0.643,-1.094 a 0.628,0.628 0 0 1 0.163,-0.615 0.682,0.682 0 0 1 0.955,-0.019 z"/>

</svg>