<?xml version="1.0" encoding="UTF-8"?><svg id="a" xmlns="http://www.w3.org/2000/svg" viewBox="0 0 24 24"><path id="b" d="M22,9.07c0-1.25-.4-2.24-1.2-2.97-.8-.73-2.03-1.09-3.69-1.09h-6.1l-.5,3.02h-4.64c-.35,0-.63.29-.63.63v.32c0,.35.29.63.63.63h4.94c.35,0,.63.29.63.63v.32c0,.35-.29.63-.63.63H2.63c-.35,0-.63.29-.63.63v.32c0,.35.29.63.63.63h7.65c.35,0,.63.29.63.63v.32c0,.35-.29.63-.63.63h-4.42c-.35,0-.63.29-.63.63v.32c0,.35.29.63.63.63h3.32l-.51,3.03h3.99l.89-5.32h1.65l1.23,5.32h4.14l-1.51-5.86c1.96-.71,2.94-2.07,2.94-4.07ZM15.62,10.77h-1.57l.47-2.83h1.46c1.27,0,1.9.43,1.9,1.29,0,1.02-.76,1.54-2.27,1.54ZM2.58,9.51v-.32c0-.35.29-.63.63-.63h.77c.35,0,.63.29.63.63v.32c0,.35-.29.63-.63.63h-.77c-.35,0-.63-.29-.63-.63ZM7.61,6.34v-.32c0-.35.29-.63.63-.63h.77c.35,0,.63.29.63.63v.32c0,.35-.29.63-.63.63h-.77c-.35,0-.63-.29-.63-.63ZM4.62,14.48v.32c0,.35-.29.63-.63.63h-.77c-.35,0-.63-.29-.63-.63v-.32c0-.35.29-.63.63-.63h.77c.35,0,.63.29.63.63Z" style="fill:#4473a0;"/></svg>