<?xml version="1.0" encoding="UTF-8"?><svg id="a" xmlns="http://www.w3.org/2000/svg" viewBox="0 0 24 24"><path d="M16.94,13.75h-1.35v-.94h-1.89v.94h-1.35v-2.77c0-.24.09-.42.27-.56.17-.14.42-.2.75-.2h2.57c.32,0,.57.07.75.2.17.14.26.32.26.56,0,0,0,2.77,0,2.77ZM15.59,12.16v-1.02h-1.89v1.02h1.89ZM21.78,10.39c-.14-.11-.35-.17-.63-.18h0s-.05,0-.05,0h-2.52c-.32,0-.57.07-.75.2-.17.14-.26.32-.27.55h0v.02h0v2.77h1.35v-.92h2.18c.59,0,.89-.24.89-.71v-1.13c0-.27-.07-.47-.22-.59h0ZM20.63,12.05h-1.72v-.92h1.72v.92ZM10.65,10.21h-.2v2.06s-.03.04-.07.03c0,0-.03,0-.05-.03-.23-.35-1.1-1.56-1.39-1.94,0,0,0,0,0,0h0s0,0-.01-.01c0,0,0,0,0,0-.07-.06-.16-.1-.29-.1h-1.09c-.14,0-.24.04-.32.12-.07.08-.11.18-.11.31h0v3.11h1.28s0-1.64-.01-2.13c0-.03.03-.08.13-.07,0,0,.04,0,.05.03h0c.25.39,1.86,2.16,1.86,2.16h1.32v-3.54h-1.09ZM4.83,12.89h-1.41v-1.87h1.88v1.58c.57.18.95.4,1.22.62.04-.11.07-.24.07-.39v-1.72c0-.59-.35-.9-1.04-.94h0s-.11,0-.11,0h-2.28c-.78,0-1.16.31-1.16.94v1.72c0,.62.39.93,1.16.93h2.27c.12,0,.23,0,.33-.02-.2-.29-.59-.61-.93-.85h0ZM5.93,13.83h1.01c-.14-.27-.71-1.07-2.56-1.35.4.24,1.29.84,1.54,1.35h0Z" style="fill:#44739f;"/></svg>