<svg xmlns="http://www.w3.org/2000/svg" viewBox="0 0 24 24"><path fill="#44739e" d="M10.503 2.083c-2.885.465-5.377 2.073-6.936 4.463-.442.675-.917 1.674-1.125 2.382C2.067 10.159 2 10.567 2 11.992c0 1.131.017 1.39.15 1.99.242 1.074.45 1.665.9 2.54a9.6 9.6 0 0 0 2.901 3.447c1.518 1.141 3.068 1.748 4.977 1.957.692.075 9.003.108 9.003.025 0-.1-.584-.784-1.042-1.216a11 11 0 0 0-2.434-1.691c-1.284-.649-2.359-.924-4.002-1.032-1.634-.109-1.983-.167-2.942-.566-.792-.325-1.709-1.059-2.276-1.799-1.434-1.874-1.667-4.264-.625-6.328.641-1.266 1.467-2.074 2.784-2.74.742-.366 1.3-.499 2.309-.541 1.875-.075 3.218.441 4.51 1.74.875.875 1.425 1.875 1.659 3.014.141.7.133 1.765-.025 2.482-.134.608-.559 1.582-.917 2.098-.317.466-.951 1.108-1.409 1.449-.467.341-.483.316.242.583.8.283 1.75.767 2.501 1.258l.708.465.259-.249c.808-.775 1.8-2.374 2.192-3.506.683-1.998.758-3.872.233-5.945-.684-2.714-2.692-5.171-5.277-6.429-.641-.316-1.741-.682-2.525-.857-.709-.15-2.61-.192-3.368-.067Z"/></svg>