<?xml version="1.0" encoding="UTF-8" standalone="no"?>
<svg
   width="24"
   height="24"
   viewBox="0 0 24 24"
   version="1.1"
   xmlns="http://www.w3.org/2000/svg"
   xmlns:svg="http://www.w3.org/2000/svg">
  <path
     style="fill:#44739e"
     d="m 21.195701,10.000837 h -6.39749 A 0.79666541,0.79666541 0 0 1 13.996546,9.1991712 V 2.8016813 A 0.79666541,0.79666541 0 0 0 13.19488,2.0050159 H 10.799884 A 0.79666541,0.79666541 0 0 0 9.9982188,2.8016813 V 9.2000046 A 0.79666541,0.79666541 0 0 1 9.1965533,10.00167 H 6.8015571 A 0.79666541,0.79666541 0 0 1 6.0007251,9.2000046 V 2.8016813 A 0.79666541,0.79666541 0 0 0 5.1990597,2.0000159 H 2.7990635 A 0.79666541,0.79666541 0 0 0 2.0023981,2.8016813 V 21.198319 a 0.79666541,0.79666541 0 0 0 0.8016654,0.801665 H 21.195701 a 0.79666541,0.79666541 0 0 0 0.801665,-0.801665 v -10.38165 a 0.79666541,0.79666541 0 0 0 -0.801665,-0.816666 z m -3.216662,6.793322 a 1.1974981,1.1974981 0 0 1 -1.197498,1.202498 H 15.17821 a 1.1974981,1.1974981 0 0 1 -1.196664,-1.202498 v -1.597497 a 1.1974981,1.1974981 0 0 1 1.196664,-1.202498 h 1.603331 a 1.1974981,1.1974981 0 0 1 1.197498,1.202498 z"/>
</svg>
