<?xml version="1.0" encoding="UTF-8"?>
<svg width="24px" fill="#44739e" height="24px" viewBox="0 0 24 24" version="1.1" xmlns="http://www.w3.org/2000/svg" xmlns:xlink="http://www.w3.org/1999/xlink">
            <path d="M 8.06,16.01 15.259,11.897 8.207,7.931 Z m -1.028,3.82 a 2.96,2.96 0 0 1 -2.5,0.294 3.372,3.372 0 0 0 4.116,1.176 l 10.136,-5.876 a 1.731,1.731 0 0 0 0.294,-2.645 z M 19.225,9.106 8.8,3.083 C 6.738,1.614 3.359,2.5 3.359,6.168 l 0.147,11.605 c 0,1.175 0.882,1.763 2.057,1.616 L 5.416,5.433 c 0,-1.322 0.735,-1.469 1.616,-0.881 l 11.752,6.61 a 2.894,2.894 0 0 1 1.47,2.2 3.307,3.307 0 0 0 -1.029,-4.256 z"/>

</svg>