<svg xmlns="http://www.w3.org/2000/svg" viewBox="0 0 24 24"><path fill="#44739e" d="M17.388 2.274a11 11 0 0 0-1.155-.143C15.226 2.046 13.889 2 12.468 2s-2.758.046-3.764.131a11 11 0 0 0-1.156.143c-.28.056-.555.128-.555.341a.2.2 0 0 0 .011.067l.081.916h.016c.215.259 2.6.463 5.423.463 2.959 0 5.36-.289 5.36-.566l.039-.789a.2.2 0 0 0 .021-.091c0-.215-.275-.285-.556-.341m-4.92.617a31 31 0 0 1-4.888-.273 31.4 31.4 0 0 1 4.888-.272 31.4 31.4 0 0 1 4.889.272 31 31 0 0 1-4.889.273m3.428 4.87a32 32 0 0 1-3.449.163 32 32 0 0 1-3.449-.163 8 8 0 0 1-1.072-.181 3 3 0 0 1-.167-.051 74 74 0 0 0 1.095 9.416 1 1 0 0 1 .123.1l.049.044a6.5 6.5 0 0 0 3.56.694 9.4 9.4 0 0 0 3.322-.692l.1-.108c.52-2.773.875-6.648 1.082-9.441l-.121.036a8 8 0 0 1-1.073.183m-3.428 7.933a.265.265 0 0 0-.264.264v.389a.412.412 0 1 1 .527-.022v-.367a.264.264 0 0 0-.263-.264m-.117 1.184v-.92a.117.117 0 0 1 .234 0v.92a.117.117 0 0 1-.234 0m4.803-9.946V7.2l-.014.007a4.7 4.7 0 0 1-1.422.278c-.892.093-2.051.144-3.263.144s-2.372-.056-3.264-.149a4.7 4.7 0 0 1-1.416-.28H7.72l-.019-.247q-.185.092-.184.223c0 .173.23.258.455.318a7.5 7.5 0 0 0 1.05.178 32 32 0 0 0 3.433.162 32 32 0 0 0 3.432-.162 8 8 0 0 0 1.051-.172c.225-.06.455-.145.455-.318 0-.103-.076-.182-.239-.25m-.78 13.76a.14.14 0 0 1-.049-.108v-.4a.14.14 0 0 0-.018-.069l-.12-.219a.1.1 0 0 1-.016-.05l-.267-2.09-.009-.036-.109-.261a9.9 9.9 0 0 1-3.166.617q-.218.009-.428.009a6.5 6.5 0 0 1-2.994-.614l-.071.193-.008.031-.277 2.159a.14.14 0 0 1-.043.085l-.129.123a.14.14 0 0 0-.044.094l-.039.61-.053-.008-.009.182v.057c.007.055.013.14.066.152.527.82 5.981 1.4 7.815.025l.058-.1v-.227a.14.14 0 0 0-.05-.108Zm.855-14.482v.262l-.013.007a4.7 4.7 0 0 1-1.436.278c-.9.093-2.07.145-3.295.145s-2.394-.052-3.294-.145a4.9 4.9 0 0 1-1.431-.275h-.054l-.02-.248q-.187.092-.186.223c0 .173.232.258.459.319a8 8 0 0 0 1.061.177 33 33 0 0 0 3.465.162 33 33 0 0 0 3.466-.162 8 8 0 0 0 1.06-.177c.228-.061.46-.146.46-.319-.003-.101-.077-.18-.242-.247m.073-.642v.263l-.014.007a4.9 4.9 0 0 1-1.453.277c-.912.094-2.1.145-3.336.145s-2.425-.051-3.337-.145a5 5 0 0 1-1.448-.275h-.055l-.02-.247q-.191.091-.19.223c0 .172.236.257.466.318a8 8 0 0 0 1.074.178 34 34 0 0 0 3.51.162 34 34 0 0 0 3.509-.162 8 8 0 0 0 1.074-.178c.23-.061.466-.146.466-.318 0-.101-.08-.181-.246-.248M7.768 6.823l.02.277h.021a4.6 4.6 0 0 0 1.4.272c.89.094 2.047.145 3.258.145s2.369-.051 3.259-.145a4.8 4.8 0 0 0 1.401-.272v-.3l.033.012a1 1 0 0 1 .107.048l.008-.122a2 2 0 0 1-.251.084A8 8 0 0 1 15.956 7a33 33 0 0 1-3.471.162A33 33 0 0 1 9.014 7a8 8 0 0 1-1.067-.179 1.5 1.5 0 0 1-.3-.11c0 .055.007.111.01.168a1 1 0 0 1 .083-.044Zm9.55-.713-.11.039h.005a1 1 0 0 1 .1.044Zm-9.636-.59.022.271h.027a4.8 4.8 0 0 0 1.437.276c.91.093 2.093.144 3.332.144s2.421-.051 3.331-.144a5.1 5.1 0 0 0 1.422-.267v-.3l.033.012.069.028c.057-.915.085-1.476.085-1.476a40.8 40.8 0 0 1-9.925 0s.019.574.065 1.507l.07-.034Zm.047.641.022.272h.017a4.8 4.8 0 0 0 1.419.272c.9.093 2.067.145 3.289.145s2.391-.052 3.29-.145a5 5 0 0 0 1.4-.266v-.282l-.086.024a8 8 0 0 1-1.081.179 33 33 0 0 1-3.514.163 33 33 0 0 1-3.501-.163 8 8 0 0 1-1.082-.179 1.5 1.5 0 0 1-.295-.1l.007.141a1 1 0 0 1 .084-.043Z"/></svg>