<?xml version="1.0" encoding="UTF-8"?>
<svg width="24px" fill="#44739e" height="24px" viewBox="0 0 24 24" version="1.1" xmlns="http://www.w3.org/2000/svg" xmlns:xlink="http://www.w3.org/1999/xlink">
            <path d="M 16.92,2.274 A 11.093,11.093 0 0 0 15.765,2.131 C 14.758,2.046 13.421,2 12,2 10.579,2 9.242,2.046 8.236,2.131 A 11.119,11.119 0 0 0 7.08,2.274 C 6.8,2.33 6.525,2.402 6.525,2.615 a 0.241,0.241 0 0 0 0.011,0.067 l 0.081,0.916 h 0.016 c 0.215,0.259 2.6,0.463 5.423,0.463 2.959,0 5.359,-0.289 5.359,-0.566 L 17.454,2.706 A 0.207,0.207 0 0 0 17.475,2.615 C 17.475,2.4 17.2,2.33 16.92,2.274 Z M 12,2.891 A 31.222,31.222 0 0 1 7.112,2.618 31.4,31.4 0 0 1 12,2.346 31.43,31.43 0 0 1 16.889,2.618 31.249,31.249 0 0 1 12,2.891 Z m 3.428,4.87 A 32.192,32.192 0 0 1 11.979,7.924 32.165,32.165 0 0 1 8.53,7.761 7.865,7.865 0 0 1 7.458,7.58 C 7.394,7.562 7.34,7.546 7.291,7.529 a 74.325,74.325 0 0 0 1.095,9.415 0.839,0.839 0 0 1 0.123,0.1 c 0.016,0.014 0.042,0.039 0.049,0.044 a 6.482,6.482 0 0 0 3.56,0.694 9.372,9.372 0 0 0 3.322,-0.692 l 0.1,-0.108 c 0.52,-2.773 0.875,-6.648 1.082,-9.44 -0.037,0.012 -0.077,0.024 -0.121,0.036 A 7.865,7.865 0 0 1 15.428,7.761 Z M 12,15.693 a 0.265,0.265 0 0 0 -0.264,0.264 v 0.389 a 0.412,0.412 0 1 1 0.527,-0.022 V 15.957 A 0.264,0.264 0 0 0 12,15.693 Z m -0.117,1.184 v -0.92 a 0.117,0.117 0 0 1 0.234,0 v 0.92 a 0.117,0.117 0 0 1 -0.234,0 z M 16.686,6.932 V 7.2 L 16.672,7.207 A 4.648,4.648 0 0 1 15.25,7.485 C 14.358,7.578 13.199,7.629 11.987,7.629 10.775,7.629 9.615,7.573 8.723,7.48 A 4.7,4.7 0 0 1 7.307,7.2 H 7.252 L 7.233,6.953 C 7.109,7.015 7.049,7.088 7.049,7.176 c 0,0.173 0.23,0.258 0.455,0.318 A 7.522,7.522 0 0 0 8.554,7.672 31.9,31.9 0 0 0 11.987,7.834 31.866,31.866 0 0 0 15.419,7.672 7.568,7.568 0 0 0 16.47,7.5 C 16.695,7.44 16.925,7.355 16.925,7.182 16.925,7.079 16.849,7 16.686,6.932 Z m -0.78,13.759 a 0.143,0.143 0 0 1 -0.049,-0.108 v -0.4 a 0.139,0.139 0 0 0 -0.018,-0.069 l -0.12,-0.219 a 0.133,0.133 0 0 1 -0.016,-0.05 l -0.267,-2.09 a 0.146,0.146 0 0 0 -0.009,-0.036 l -0.109,-0.261 a 9.915,9.915 0 0 1 -3.166,0.617 c -0.145,0.006 -0.288,0.009 -0.428,0.009 A 6.519,6.519 0 0 1 8.73,17.47 l -0.071,0.193 a 0.177,0.177 0 0 0 -0.008,0.031 l -0.277,2.159 a 0.137,0.137 0 0 1 -0.043,0.085 l -0.129,0.123 a 0.139,0.139 0 0 0 -0.044,0.094 l -0.039,0.61 -0.053,-0.008 -0.009,0.182 a 0.147,0.147 0 0 0 0,0.021 v 0.036 c 0.007,0.055 0.013,0.14 0.066,0.152 0.527,0.82 5.981,1.4 7.815,0.025 v 0 l 0.058,-0.1 v -0.007 -0.22 a 0.144,0.144 0 0 0 -0.05,-0.108 z M 16.761,6.21 v 0.262 l -0.013,0.007 a 4.71,4.71 0 0 1 -1.436,0.278 c -0.9,0.093 -2.07,0.145 -3.295,0.145 -1.225,0 -2.394,-0.052 -3.294,-0.145 A 4.87,4.87 0 0 1 7.292,6.482 H 7.238 L 7.218,6.234 C 7.093,6.296 7.032,6.369 7.032,6.457 c 0,0.173 0.232,0.258 0.459,0.319 a 7.887,7.887 0 0 0 1.061,0.177 32.488,32.488 0 0 0 3.465,0.162 32.508,32.508 0 0 0 3.466,-0.162 7.84,7.84 0 0 0 1.06,-0.177 C 16.771,6.715 17.003,6.63 17.003,6.457 17,6.356 16.926,6.277 16.761,6.21 Z M 16.834,5.568 V 5.831 L 16.82,5.838 A 4.863,4.863 0 0 1 15.367,6.115 C 14.455,6.209 13.267,6.26 12.031,6.26 10.795,6.26 9.606,6.209 8.694,6.115 A 4.918,4.918 0 0 1 7.246,5.84 H 7.191 L 7.171,5.593 c -0.128,0.061 -0.19,0.135 -0.19,0.223 0,0.172 0.236,0.257 0.466,0.318 a 7.871,7.871 0 0 0 1.074,0.178 33.592,33.592 0 0 0 3.51,0.162 33.585,33.585 0 0 0 3.509,-0.162 7.871,7.871 0 0 0 1.074,-0.178 C 16.844,6.073 17.08,5.988 17.08,5.816 17.08,5.715 17,5.635 16.834,5.568 Z M 7.3,6.823 7.32,7.1 h 0.021 v 0 a 4.633,4.633 0 0 0 1.4,0.272 c 0.89,0.094 2.047,0.145 3.258,0.145 1.211,0 2.369,-0.051 3.259,-0.145 A 4.8,4.8 0 0 0 16.659,7.1 V 6.8 l 0.033,0.012 A 0.9,0.9 0 0 1 16.799,6.86 L 16.807,6.738 A 1.719,1.719 0 0 1 16.556,6.822 7.784,7.784 0 0 1 15.488,7 32.6,32.6 0 0 1 12.017,7.162 32.609,32.609 0 0 1 8.546,7 7.793,7.793 0 0 1 7.479,6.821 1.481,1.481 0 0 1 7.179,6.711 c 0,0.055 0.007,0.111 0.01,0.168 A 0.8,0.8 0 0 1 7.272,6.835 Z M 16.85,6.11 c -0.035,0.014 -0.073,0.027 -0.11,0.039 h 0.005 a 0.837,0.837 0 0 1 0.1,0.044 z M 7.214,5.52 7.236,5.791 H 7.257 7.263 A 4.789,4.789 0 0 0 8.7,6.067 c 0.91,0.093 2.093,0.144 3.332,0.144 1.239,0 2.421,-0.051 3.331,-0.144 A 5.1,5.1 0 0 0 16.785,5.8 V 5.5 l 0.033,0.012 0.069,0.028 c 0.057,-0.915 0.085,-1.476 0.085,-1.476 a 40.816,40.816 0 0 1 -9.925,0 c 0,0 0.019,0.574 0.065,1.507 C 7.134,5.559 7.157,5.548 7.182,5.537 Z M 7.261,6.161 7.283,6.433 H 7.3 v 0 a 4.75,4.75 0 0 0 1.419,0.272 c 0.9,0.093 2.067,0.145 3.289,0.145 1.222,0 2.391,-0.052 3.29,-0.145 a 4.906,4.906 0 0 0 1.4,-0.266 V 6.157 C 16.67,6.166 16.641,6.174 16.612,6.181 A 7.8,7.8 0 0 1 15.531,6.36 33.386,33.386 0 0 1 12.017,6.523 33.407,33.407 0 0 1 8.516,6.36 7.87,7.87 0 0 1 7.434,6.181 1.531,1.531 0 0 1 7.139,6.081 L 7.146,6.222 A 0.818,0.818 0 0 1 7.23,6.179 Z"/>

</svg>
