<svg xmlns="http://www.w3.org/2000/svg" viewBox="0 0 24 24"><path fill="#44739e" d="M5.61 12.944a6.5 6.5 0 0 1-.744-2.321c-.092-.165-.48-.186-.624-.102-.146.084-.283 1.331-.117 1.377-.143.072.042 1.049.233 1.049-.152.065.153 1.024.328.996-.102.143.393.922.531.88.042.798 2.457 1.181 2.405.512-.03-.336-.393.146-2.013-2.391m6.174 4.301a.62.62 0 0 0-.01-.717c-.18-.174-.705-.018-.752-.18-.102-.386.172-.52.127-1.048a12 12 0 0 0-.455-1.653 2.6 2.6 0 0 0-.645-.308.54.54 0 0 1-.14-.37c.591-.178.749.368.838.35.089-.021-.048-.601-.117-.669a7 7 0 0 1-.847-.327c-.093-.124-.395-1.349-.007-1.387-.014-.005.026-.078 0-.076-.819.199-1.382-3.758-3.422-3.74-2.017.013-1.911 2.941-1.791 3.051.228.205.563.127.574.317.102 1.788 1.705 3.703 2.193 3.529.286-.095.039-1.004-.097-1.024.124-.051 0-.988-.147-1.006.114-.087.008-.95-.138-.964.071-.062.062-.653.212-.943.118-.231.614-.351.646.205-.301-.15-.323.839-.191 1.006.133.166.932.55 1.186.763a7.7 7.7 0 0 0 .668 2.501 8 8 0 0 1 .763 1.154c.168.429.247 1.27.454 1.462.189.159 1.029.204 1.098.074m.203.169c-.451.195-.829-.144-1.05.085-.107.123.448.573 1.081.561.635-.012 1.235-.453 1.07-.571-.288-.218-.655.11-1.101-.075M6.838 6.649a7.53 7.53 0 0 1 3.389 2.979c.307.444 1.077.602 1.25-.116A8 8 0 0 0 11.7 7.29c-.167-.372-.858-.865-.975-.751 0-.137-.569-.658-.774-.563.047-.161-.734-.649-.921-.512-.04-.205-1.169-.35-1.388-.158-.133-.148-1.135.094-1.155.348-.189-.165-1.211.92-1.208 1.463-.004.208.956-.645 1.557-.467m12.945 3.804a.61.61 0 0 0-.625.149 6.4 6.4 0 0 1-.731 2.331c-1.627 2.527-1.986 2.048-2.014 2.373-.054.678 2.355.295 2.406-.512.131.045.626-.733.518-.88.181.031.486-.927.339-.985.186-.006.373-.983.223-1.06.174-.035.051-1.322-.116-1.416m-3.558-.201c.033-.548.533-.426.647-.205.155.295.146.886.222.952-.151.009-.256.872-.138.954-.15.024-.276.961-.147 1.018-.14.016-.387.921-.097 1.024.482.167 2.083-1.749 2.183-3.539.016-.187.351-.113.583-.318.116-.102.222-3.033-1.801-3.051s-2.592 3.942-3.423 3.75c-.026-.01.026.079-.01.075.41.019.086 1.248 0 1.377s-.764.274-.837.338c-.074.065-.205.641-.116.658s.242-.523.826-.34a.5.5 0 0 1-.128.361 2.7 2.7 0 0 0-.645.307 11 11 0 0 0-.456 1.652c-.05.533.222.669.116 1.049-.041.167-.576.021-.762.205a.61.61 0 0 0-.021.71 1.74 1.74 0 0 0 1.144-.084c.38-.326.273-1.044.445-1.462a7 7 0 0 1 .752-1.155 7.8 7.8 0 0 0 .678-2.511c.251-.205 1.061-.588 1.188-.753.125-.165.104-1.157-.203-1.013m-2.415-.636a7.44 7.44 0 0 1 3.378-2.977c.607-.189 1.569.667 1.569.456 0-.544-1.024-1.623-1.208-1.462-.025-.252-1.024-.495-1.155-.351-.224-.188-1.353-.038-1.399.16-.183-.137-.962.35-.911.512-.21-.09-.778.43-.774.562-.121-.109-.903.41-1.006.763a11.3 11.3 0 0 0 .233 2.224c.174.709.964.551 1.273.113m6.271-7.138a61 61 0 0 0-8.041-.477 62.5 62.5 0 0 0-8.126.477 1.807 1.807 0 0 0-1.638 1.798c0 1.843.047 11.131.996 12.428 1.645 2.252 8.293 5.143 8.583 5.266a.38.38 0 0 0 .296 0c.288-.121 7.197-3.02 8.592-5.287.908-1.477.983-12.299.985-12.408a1.81 1.81 0 0 0-1.647-1.797m.011 13.821c-1.163 1.887-7.08 4.483-8.094 4.914-.993-.44-6.722-3.037-8.115-4.948-.623-.849-.854-7.801-.859-11.983 0-.604.289-.891 1.059-1.058a61 61 0 0 1 7.957-.457 60 60 0 0 1 7.873.457c.765.167 1.05.454 1.048 1.058.002 2.15-.225 10.961-.87 12.009Z"/></svg>