<?xml version="1.0" encoding="UTF-8"?>
<svg width="24px" fill="#44739e" height="24px" viewBox="0 0 24 24" version="1.1" xmlns="http://www.w3.org/2000/svg" xmlns:xlink="http://www.w3.org/1999/xlink">
            <path d="M 10.761,9.713 10.757,9.708 10.745,9.698 10.741,9.682 10.739,9.679 10.703,9.649 10.695,9.644 10.656,9.623 10.649,9.617 10.626,9.602 10.609,9.592 10.593,9.583 10.553,9.562 10.524,9.549 10.469,9.527 10.462,9.523 10.446,9.515 10.397,9.495 10.392,9.493 10.364,9.48 10.333,9.469 10.281,9.45 10.274,9.447 10.251,9.44 10.234,9.435 10.201,9.424 10.175,9.415 H 10.174 L 10.15,9.409 10.13,9.403 10.124,9.402 10.114,9.399 10.101,9.394 10.089,9.391 10.077,9.388 10.067,9.385 10.057,9.382 10.047,9.38 10.038,9.377 10.028,9.375 10.019,9.373 10.01,9.37 H 10.009 L 10,9.368 9.989,9.365 9.978,9.362 9.966,9.359 9.952,9.356 9.936,9.352 9.917,9.348 9.906,9.345 9.899,9.344 9.895,9.343 9.868,9.338 9.834,9.331 9.822,9.329 9.796,9.325 9.787,9.324 9.749,9.318 H 9.746 L 9.696,9.315 H 9.685 L 9.666,9.316 H 9.658 L 9.642,9.314 H 9.634 L 9.594,9.317 H 9.591 L 9.562,9.327 9.557,9.33 9.545,9.339 9.535,9.35 9.518,9.377 9.507,9.404 9.504,9.431 9.507,9.459 9.518,9.485 9.535,9.512 9.559,9.537 9.59,9.562 l 0.016,0.009 0.04,0.025 0.046,0.024 0.053,0.021 0.034,0.012 0.062,0.02 0.067,0.018 0.048,0.011 0.076,0.016 0.08,0.014 0.06,0.008 0.087,0.011 0.09,0.007 0.068,0.006 0.094,0.004 0.07,0.002 h 0.07 0.014 L 10.68,9.769 10.714,9.766 10.721,9.765 10.744,9.755 10.747,9.752 10.763,9.738 10.766,9.731 10.761,9.721 Z M 11.155,9.43 11.209,9.428 11.309,9.421 11.315,9.42 11.419,9.408 11.454,9.402 11.518,9.393 11.59,9.377 11.61,9.373 11.696,9.35 11.711,9.344 11.774,9.323 11.809,9.307 11.815,9.305 11.841,9.294 11.895,9.262 11.897,9.26 11.939,9.228 11.952,9.211 11.97,9.192 11.985,9.16 11.988,9.156 11.994,9.119 11.991,9.108 11.989,9.087 11.988,9.082 11.985,9.08 11.975,9.057 11.972,9.046 11.946,9.011 11.944,9.009 11.91,8.978 11.889,8.964 11.864,8.946 11.82,8.923 11.807,8.916 11.8,8.913 11.742,8.891 11.738,8.89 11.733,8.888 11.674,8.865 11.65,8.857 11.603,8.843 11.562,8.833 11.527,8.823 11.472,8.813 11.446,8.807 11.382,8.797 11.362,8.794 11.361,8.793 11.313,8.788 11.295,8.786 11.277,8.783 11.221,8.777 11.195,8.775 11.151,8.772 11.112,8.769 11.087,8.768 11.028,8.766 v 0 L 10.973,8.765 h -0.027 l -0.024,10e-4 -0.045,10e-4 h -0.013 l -0.03,0.001 -0.04,0.002 -0.01,0.001 -0.027,0.002 -0.035,0.003 -0.015,10e-4 -0.018,0.002 -0.032,0.003 -0.025,0.003 -0.006,10e-4 -0.031,0.004 -0.03,0.004 -0.005,10e-4 -0.025,0.004 -0.031,0.005 -0.013,0.003 -0.018,0.003 -0.032,0.007 -0.015,0.003 -0.018,0.005 -0.034,0.008 -0.01,0.003 -0.026,0.007 -0.033,0.01 -0.004,0.002 -0.038,0.013 -0.012,0.004 -0.027,0.012 -0.023,0.01 -0.016,0.008 -0.029,0.015 -0.01,0.006 -0.019,0.012 -0.011,0.006 -0.008,0.006 -0.002,0.002 -0.023,0.018 -0.007,0.008 -0.019,0.019 -0.008,0.012 -0.011,0.017 -0.007,0.018 -0.005,0.012 -0.003,0.025 -10e-4,0.005 10e-4,0.011 0.003,0.021 0.002,0.005 v 0.001 l 0.011,0.024 0.021,0.03 0.004,0.004 0.027,0.026 0.005,0.005 0.042,0.031 0.01,0.006 0.04,0.024 0.014,0.006 0.014,0.007 0.008,0.004 0.025,0.011 0.071,0.027 v 0 l 0.079,0.025 0.034,0.008 0.052,0.014 0.075,0.015 0.017,0.004 0.098,0.016 0.025,0.003 0.044,0.005 0.034,0.004 0.069,0.005 0.037,0.003 0.108,0.004 h 0.009 0.1 z M 13.222,9.766 13.221,9.764 13.217,9.761 13.202,9.73 13.2,9.729 13.146,9.702 13.11,9.691 13.073,9.676 12.984,9.652 12.976,9.65 12.881,9.634 12.876,9.633 12.76,9.611 12.748,9.61 12.631,9.597 12.545,9.591 12.496,9.585 12.391,9.577 12.355,9.575 12.348,9.574 12.211,9.568 12.068,9.567 H 12.051 12.007 L 11.926,9.565 11.789,9.568 11.75,9.571 11.711,9.572 11.656,9.574 11.644,9.575 11.62,9.577 11.604,9.578 11.593,9.579 11.583,9.58 11.576,9.581 H 11.57 L 11.564,9.582 H 11.56 L 11.556,9.583 H 11.551 11.547 L 11.542,9.584 H 11.539 11.535 L 11.531,9.585 H 11.526 L 11.522,9.586 H 11.516 L 11.51,9.587 H 11.503 L 11.495,9.588 11.484,9.589 11.469,9.59 11.447,9.592 11.436,9.594 11.394,9.6 11.364,9.605 11.335,9.609 11.25,9.626 11.211,9.638 11.19,9.644 l -0.009,10e-4 -0.057,0.019 -0.038,0.022 -0.005,0.005 -0.014,0.018 10e-4,0.01 -0.005,0.013 0.012,0.02 0.002,0.003 0.039,0.026 0.003,10e-4 0.04,0.019 0.005,0.002 0.066,0.025 0.077,0.024 0.083,0.021 0.04,0.011 0.093,0.019 0.098,0.016 0.053,0.008 0.106,0.013 0.109,0.009 0.062,0.004 0.114,0.006 0.114,0.002 h 0.065 L 12.361,9.959 12.476,9.952 12.539,9.948 12.652,9.938 12.709,9.93 12.817,9.916 12.92,9.898 13.018,9.876 H 13.017 L 13.061,9.867 13.125,9.847 13.128,9.846 13.137,9.842 13.169,9.83 13.183,9.824 13.22,9.797 13.222,9.792 13.221,9.768 Z m 0.96,2.547 7.8,-2.8 L 10.36,6.446 2,8.58 13.171,12.323 a 1.552,1.552 0 0 0 1.011,-0.01 z m -1.32,-2.275 -0.058,0.008 -0.04,0.005 -0.114,0.01 h -0.038 -0.067 l -0.116,0.007 H 12.384 12.268 12.158 12.042 12 L 11.886,10.062 H 11.86 L 11.798,10.057 H 11.78 L 11.67,10.048 11.63,10.043 11.525,10.03 H 11.502 L 11.448,10.022 H 11.434 L 11.334,10.006 11.3,10 11.207,9.98 H 11.195 C 10.977,9.956 10.767,9.925 10.569,9.888 h -0.034 -0.07 -0.023 l -0.1,-0.005 H 10.3 L 10.229,9.877 10.139,9.869 H 10.096 L 10.009,9.858 H 9.99 L 9.93,9.849 H 9.91 L 9.829,9.836 9.8,9.814 9.719,9.8 9.671,9.79 9.645,9.783 9.577,9.765 9.55,9.753 9.488,9.732 v 0 L 9.454,9.721 9.436,9.714 9.378,9.69 9.359,9.682 9.313,9.658 9.3,9.649 9.26,9.624 9.244,9.614 9.232,9.606 9.2,9.581 9.191,9.572 9.167,9.547 9.16,9.538 9.143,9.511 V 9.503 L 9.133,9.476 V 9.467 9.44 9.431 9.404 9.395 L 9.144,9.368 V 9.36 L 9.151,9.349 A 0.444,0.444 0 0 1 9.113,9.312 L 9.069,9.3 H 9.054 L 8.992,9.281 8.967,9.272 8.912,9.25 H 8.906 L 8.87,9.229 8.855,9.223 8.809,9.2 8.792,9.191 8.753,9.167 H 8.746 L 8.726,9.153 H 8.72 L 8.689,9.12 8.68,9.111 8.657,9.086 8.65,9.077 8.634,9.051 V 9.043 L 8.624,9.016 V 9.008 9 8.975 8.967 8.941 8.933 L 8.636,8.908 V 8.9 L 8.653,8.875 8.66,8.867 v 0 L 8.622,8.872 a 1.026,1.026 0 0 1 -0.254,0 C 8.276,8.883 8.2,8.89 8.136,8.892 A 0.91,0.91 0 0 1 7.917,8.874 c -0.073,0 -0.14,0.007 -0.2,0.008 A 0.776,0.776 0 0 1 7.478,8.853 H 7.368 A 0.649,0.649 0 0 1 7.125,8.813 H 7.009 A 0.526,0.526 0 0 1 6.8,8.758 C 6.757,8.758 6.719,8.752 6.685,8.747 6.585,8.735 6.525,8.71 6.513,8.68 a 0.343,0.343 0 0 1 -0.2,-0.058 c -0.031,-0.031 0,-0.066 0.093,-0.09 L 6.432,8.525 6.465,8.518 C 6.458,8.498 6.474,8.477 6.512,8.46 A 0.909,0.909 0 0 1 6.653,8.411 L 6.694,8.4 c 0,-0.02 0.034,-0.041 0.084,-0.056 L 6.811,8.334 6.868,8.32 C 6.874,8.298 6.91,8.277 6.968,8.262 L 7.005,8.253 C 7.049,8.244 7.095,8.236 7.143,8.228 A 0.194,0.194 0 0 1 7.234,8.183 C 7.254,8.183 7.276,8.173 7.3,8.169 7.349,8.162 7.4,8.155 7.462,8.149 A 0.29,0.29 0 0 1 7.533,8.121 0.569,0.569 0 0 1 7.626,8.1 C 7.666,8.1 7.71,8.091 7.757,8.088 A 0.305,0.305 0 0 1 7.816,8.066 0.8,0.8 0 0 1 7.971,8.042 c 0.055,0 0.122,-0.005 0.2,-0.005 L 8.191,8.031 A 0.848,0.848 0 0 1 8.391,8.005 5.394,5.394 0 0 1 9.113,8.04 C 9.041,8 8.969,7.923 9,7.842 9.006,7.822 9.039,7.803 9.091,7.789 L 9.113,7.783 A 0.091,0.091 0 0 1 9.135,7.729 0.175,0.175 0 0 1 9.218,7.687 0.7,0.7 0 0 1 9.295,7.672 0.2,0.2 0 0 1 9.338,7.637 0.251,0.251 0 0 1 9.4,7.613 0.65,0.65 0 0 1 9.5,7.595 0.36,0.36 0 0 1 9.57,7.553 0.379,0.379 0 0 1 9.618,7.536 0.8,0.8 0 0 1 9.771,7.513 C 9.797,7.501 9.825,7.489 9.856,7.478 L 9.885,7.469 a 0.8,0.8 0 0 1 0.2,-0.024 l 0.048,-0.014 0.031,-0.008 a 0.821,0.821 0 0 1 0.188,-0.02 l 0.035,-0.01 a 1.491,1.491 0 0 1 0.162,-0.034 1.064,1.064 0 0 1 0.19,-0.01 l 0.025,-0.008 0.02,-0.006 a 0.922,0.922 0 0 1 0.295,-0.02 0.389,0.389 0 0 1 0.191,0.052 0.532,0.532 0 0 1 0.222,0.046 0.149,0.149 0 0 1 0.035,0.03 0.266,0.266 0 0 1 0.155,0.056 0.14,0.14 0 0 1 0.015,0.03 c 0.079,0.014 0.129,0.037 0.136,0.063 a 0.137,0.137 0 0 1 0,0.029 c 0.064,0.015 0.1,0.038 0.1,0.062 a 0.11,0.11 0 0 1 -0.02,0.052 c 0.047,0.016 0.07,0.037 0.065,0.058 -0.005,0.021 -0.023,0.036 -0.058,0.06 0.038,0.021 0.043,0.045 0.014,0.067 a 0.338,0.338 0 0 1 -0.052,0.032 h 0.013 0.054 0.035 0.094 0.222 0.1 0.029 0.06 0.011 l 0.094,0.007 h 0.04 l 0.09,0.009 h 0.013 l 0.059,0.007 h 0.026 l 0.088,0.013 h 0.032 l 0.059,0.01 0.082,0.015 0.034,0.007 0.077,0.019 h 0.014 l 0.046,0.012 h 0.016 v 0 l 0.1,0.009 h 0.068 0.073 0.1 0.171 0.1 0.015 0.045 0.024 l 0.095,0.007 h 0.038 l 0.092,0.009 h 0.021 l 0.044,0.006 h 0.016 l 0.089,0.012 0.036,0.005 0.084,0.015 h 0.022 l 0.039,0.008 h 0.012 l 0.079,0.018 0.03,0.007 0.073,0.02 0.022,0.007 0.03,0.01 h 0.006 l 0.064,0.022 0.024,0.009 0.056,0.025 0.02,0.009 0.042,0.062 0.018,0.011 0.014,0.008 0.037,0.028 0.013,0.01 0.028,0.029 0.008,0.01 0.019,0.03 0.005,0.009 v 0 a 2.312,2.312 0 0 1 0.242,0.11 l 0.027,0.008 0.085,0.025 0.026,0.008 0.078,0.027 0.022,0.009 0.069,0.03 0.019,0.01 0.058,0.031 h 0.007 l 0.013,0.008 0.01,0.006 0.046,0.033 0.013,0.01 0.043,0.039 0.008,0.01 0.024,0.036 v 0.01 l 0.012,0.036 V 8.903 8.94 8.951 l -0.013,0.036 v 0.011 l -0.026,0.036 -0.008,0.01 -0.038,0.035 -0.012,0.01 -0.042,0.029 a 0.527,0.527 0 0 1 -0.193,0.266 v 0 l 0.012,0.038 V 9.434 9.47 9.481 L 15.61,9.517 v 0 0.009 l -0.025,0.036 -0.01,0.011 -0.037,0.035 -0.013,0.011 -0.049,0.033 -0.017,0.011 -0.059,0.031 -0.02,0.01 -0.071,0.029 -0.023,0.01 -0.08,0.027 -0.025,0.008 -0.025,0.008 -0.089,0.024 -0.031,0.008 -0.1,0.021 -0.034,0.006 -0.1,0.019 H 14.79 L 14.754,9.869 H 14.73 l -0.111,0.014 h -0.038 l -0.115,0.011 h -0.04 l -0.118,0.007 h -0.05 -0.034 -0.121 -0.116 a 9.923,9.923 0 0 1 -1.06,0.1 z M 13.804,9.47 13.812,9.468 13.912,9.444 14.004,9.416 14.006,9.415 14.054,9.395 14.082,9.384 14.147,9.351 14.198,9.317 14.206,9.309 14.237,9.281 14.262,9.244 14.268,9.222 14.269,9.215 14.271,9.206 14.264,9.168 14.24,9.128 14.229,9.118 14.224,9.114 14.196,9.089 14.176,9.078 14.135,9.051 H 14.134 L 14.046,9.015 14.036,9.012 14.016,9.005 13.933,8.982 13.886,8.971 13.799,8.953 13.74,8.944 13.639,8.932 13.597,8.928 13.545,8.926 13.462,8.919 13.446,8.918 13.296,8.916 H 13.278 L 13.177,8.921 H 13.151 L 13.095,8.924 13,8.93 12.933,8.938 12.865,8.947 12.783,8.963 12.771,8.964 12.738,8.969 12.679,8.981 12.611,8.996 12.596,9 12.544,9.016 12.531,9.02 12.5,9.029 12.485,9.035 12.449,9.049 12.422,9.061 12.408,9.067 12.399,9.07 12.398,9.071 12.382,9.079 12.368,9.087 12.356,9.093 12.346,9.1 12.337,9.105 12.329,9.111 12.321,9.116 12.318,9.118 12.314,9.121 12.306,9.126 12.3,9.131 12.293,9.136 12.286,9.141 12.28,9.147 12.273,9.153 12.267,9.16 12.26,9.167 12.256,9.172 12.252,9.176 12.245,9.182 12.243,9.186 12.237,9.198 12.231,9.213 12.224,9.23 v 0.002 l -10e-4,0.001 10e-4,0.019 0.002,0.026 0.002,0.002 0.019,0.026 0.002,0.004 0.008,0.012 0.017,0.013 0.013,0.014 0.013,0.013 0.052,0.031 0.012,0.007 0.059,0.023 0.024,0.009 0.007,0.003 0.02,0.005 0.076,0.025 0.027,0.007 0.093,0.019 0.057,0.009 0.037,0.004 0.046,0.007 0.085,0.01 h 0.002 l 0.061,0.005 0.109,0.005 0.065,10e-4 h 0.107 L 13.305,9.531 13.399,9.525 13.46,9.52 13.514,9.516 13.547,9.512 13.604,9.504 13.684,9.493 13.735,9.484 Z M 9.542,9.175 9.552,9.164 9.57,9.142 9.573,9.136 9.574,9.134 9.585,9.122 9.596,9.113 9.606,9.103 9.615,9.091 9.629,9.069 9.634,9.06 9.637,9.057 9.64,9.05 9.649,9.031 9.655,9.016 9.656,9.012 9.662,9.002 V 9.001 L 9.663,8.999 9.668,8.989 9.673,8.978 9.676,8.97 9.678,8.967 9.683,8.957 9.687,8.948 9.69,8.938 9.692,8.931 9.693,8.929 9.696,8.92 9.699,8.911 9.701,8.903 9.702,8.893 V 8.892 L 9.705,8.884 9.707,8.874 9.708,8.863 9.709,8.853 V 8.852 8.848 L 9.71,8.846 9.712,8.84 9.714,8.826 9.715,8.812 9.716,8.811 9.719,8.795 9.72,8.793 9.718,8.776 9.716,8.764 9.715,8.756 9.716,8.754 9.708,8.738 9.702,8.729 V 8.722 L 9.701,8.717 9.692,8.698 v -0.002 0 L 9.673,8.682 9.666,8.678 9.656,8.669 9.65,8.666 9.631,8.663 H 9.616 9.613 L 9.612,8.664 H 9.604 L 9.593,8.666 9.553,8.673 9.501,8.683 9.431,8.699 9.364,8.718 9.328,8.728 9.269,8.748 9.215,8.768 9.166,8.791 9.15,8.799 9.11,8.821 9.075,8.844 9.046,8.868 9.023,8.892 9.006,8.917 8.995,8.943 8.991,8.968 8.993,8.993 8.996,9 9.005,9.027 9.022,9.053 9.045,9.078 9.076,9.102 9.096,9.116 9.136,9.14 9.181,9.162 9.218,9.177 9.274,9.198 9.336,9.217 9.379,9.23 9.408,9.235 H 9.41 L 9.432,9.231 H 9.436 L 9.465,9.224 9.474,9.22 9.493,9.207 9.501,9.2 9.524,9.187 Z M 14.174,9.812 14.218,9.81 14.335,9.803 14.45,9.792 14.561,9.778 14.597,9.772 14.701,9.754 14.799,9.733 14.889,9.709 14.911,9.701 14.99,9.675 15.061,9.645 15.12,9.614 15.169,9.58 15.207,9.545 15.233,9.509 15.235,9.505 15.248,9.469 15.25,9.433 15.239,9.397 15.225,9.372 15.218,9.361 15.209,9.352 15.184,9.339 15.171,9.336 15.147,9.328 15.104,9.321 H 15.1 L 15.046,9.32 15.041,9.321 14.979,9.32 14.906,9.325 14.879,9.329 14.835,9.336 14.826,9.337 14.736,9.35 14.721,9.353 14.639,9.366 14.592,9.377 14.535,9.39 14.525,9.393 14.451,9.41 14.42,9.417 l -0.036,0.012 -0.031,0.007 -0.062,0.016 -0.02,0.006 -0.059,0.02 -0.049,0.017 -0.026,0.011 -0.019,0.006 -0.013,0.004 -0.031,0.011 -0.037,0.015 -0.035,0.014 -0.033,0.016 -0.023,0.011 -10e-4,10e-4 -0.009,0.004 -0.035,0.015 -0.034,0.018 -0.034,0.019 -0.014,0.01 -0.015,0.014 -0.002,10e-4 -0.036,0.024 -0.002,0.002 -0.016,0.026 -0.004,0.003 -0.005,0.008 -0.006,0.017 0.002,0.004 -0.003,0.017 0.015,0.014 0.004,0.003 0.005,0.002 0.018,0.011 0.039,0.009 0.049,0.006 h 0.003 l 0.024,10e-4 0.046,0.002 0.12,10e-4 z M 9.387,8.578 C 9.501,8.515 9.498,8.456 9.387,8.4 8.772,8.39 7.747,8.466 7.323,8.511 A 18.281,18.281 0 0 1 9.373,8.325 C 9.493,8.238 9.366,8.176 9.151,8.144 A 4.255,4.255 0 0 0 8.4,8.093 C 8.456,8.109 8.461,8.128 8.461,8.13 v 0 c -0.028,0 -0.3,-0.01 -0.435,0 0.139,0.02 0.081,0.044 0.081,0.044 A 2.717,2.717 0 0 0 7.743,8.182 c 0.093,0 0.112,0.023 0.116,0.032 H 7.84 a 2.792,2.792 0 0 0 -0.4,0.027 c 0.152,0 0.155,0.017 0.152,0.024 H 7.581 A 2.976,2.976 0 0 0 7.174,8.316 c 0.149,-0.012 0.187,0 0.2,0.01 L 7.354,8.333 A 2.792,2.792 0 0 0 7.005,8.394 0.292,0.292 0 0 1 7.174,8.403 L 7.154,8.412 A 1.693,1.693 0 0 0 6.777,8.496 c 0.032,0 0.1,0 0.168,0 A 2.658,2.658 0 0 1 6.617,8.59 2.71,2.71 0 0 1 6.983,8.622 1.053,1.053 0 0 1 6.824,8.66 a 2.8,2.8 0 0 0 0.388,0 L 7.25,8.667 A 0.446,0.446 0 0 1 7.083,8.709 c 0.178,0.009 0.442,0 0.442,0 0,0 0.016,0.018 -0.124,0.044 0.176,0 0.366,-0.012 0.431,-0.017 H 7.853 C 7.846,8.744 7.819,8.766 7.722,8.78 7.915,8.78 8.144,8.751 8.208,8.743 h 0.019 c 0,0.006 -0.005,0.025 -0.1,0.047 A 4.2,4.2 0 0 0 8.555,8.733 H 8.576 C 8.584,8.738 8.595,8.753 8.522,8.78 A 2.6,2.6 0 0 0 8.9,8.707 L 8.948,8.7 C 8.966,8.705 8.984,8.718 8.929,8.75 A 1.552,1.552 0 0 0 9.387,8.58 Z m 3.893,-0.363 0.008,0.004 0.005,0.003 0.007,0.007 0.021,0.011 0.01,0.004 0.003,0.002 0.021,0.009 0.033,0.013 0.004,10e-4 0.005,10e-4 0.023,0.009 0.028,0.011 0.028,0.009 0.028,0.008 0.03,0.008 0.03,0.007 v 0 l 0.029,0.009 0.031,0.008 0.035,0.009 0.041,0.009 0.048,0.01 0.042,0.009 0.009,0.002 0.006,10e-4 0.069,0.015 0.054,0.011 0.015,0.002 0.028,0.006 0.073,0.014 0.049,0.008 0.022,0.005 0.036,0.007 0.101,0.016 0.085,0.01 0.01,0.002 0.088,0.013 0.081,0.008 0.07,0.004 h 0.003 l 0.062,0.005 0.054,10e-4 0.036,-0.003 h 0.006 L 14.763,8.502 14.778,8.5 14.795,8.492 14.799,8.486 14.798,8.482 V 8.48 L 14.793,8.46 14.788,8.451 14.77,8.421 14.742,8.392 14.704,8.365 14.686,8.354 14.638,8.328 14.582,8.303 14.518,8.281 14.487,8.271 14.414,8.251 14.336,8.233 14.296,8.225 14.212,8.21 14.122,8.197 14.077,8.192 13.985,8.183 13.889,8.176 13.843,8.174 13.747,8.171 H 13.65 L 13.553,8.173 13.514,8.174 13.42,8.179 13.339,8.186 13.306,8.19 13.29,8.196 v 0 L 13.277,8.204 Z M 12.981,8.317 12.872,8.308 12.764,8.304 H 12.76 L 12.7,8.302 12.59,8.301 12.536,8.302 12.455,8.305 12.422,8.306 12.344,8.31 12.304,8.313 12.202,8.322 12.167,8.325 12.159,8.327 12.053,8.342 12.023,8.346 H 12.02 l -0.113,0.023 -0.02,0.005 -0.08,0.023 -0.006,0.002 -0.014,0.005 -0.056,0.021 -0.032,0.014 -0.023,0.015 -0.013,0.01 -0.017,0.012 -0.002,0.002 -0.005,0.004 -0.023,0.025 -0.009,0.013 -0.002,0.01 v 0.009 l -0.002,0.011 10e-4,0.016 0.001,0.002 0.012,0.016 10e-4,0.002 0.009,0.012 0.006,0.006 0.004,0.007 0.01,0.011 v 0 l 0.004,0.003 0.009,0.008 0.014,0.009 0.014,0.009 0.014,0.008 10e-4,10e-4 0.015,0.008 0.016,0.008 0.017,0.008 0.016,0.006 0.002,0.001 0.02,0.008 0.021,0.008 0.024,0.008 0.016,0.005 0.01,0.004 0.02,0.006 0.009,0.003 0.035,0.008 0.01,0.002 0.027,0.007 0.002,10e-4 0.047,0.012 0.048,0.011 0.007,0.001 0.042,0.007 0.025,0.005 0.081,0.014 0.015,0.002 0.078,0.008 0.061,0.005 0.035,0.004 0.012,10e-4 0.002,10e-4 0.137,0.011 0.033,0.002 0.112,0.003 h 0.078 0.025 0.054 L 12.956,8.837 13.025,8.834 13.14,8.825 13.176,8.821 H 13.18 L 13.31,8.808 13.34,8.804 13.463,8.781 13.471,8.78 13.476,8.778 13.512,8.768 13.588,8.751 13.615,8.744 13.678,8.719 13.721,8.696 13.733,8.691 13.743,8.685 13.761,8.669 13.788,8.65 13.805,8.627 13.81,8.615 V 8.614 L 13.814,8.58 13.797,8.546 13.787,8.536 13.775,8.522 13.766,8.513 13.718,8.482 13.684,8.466 13.656,8.452 13.583,8.425 13.515,8.405 13.497,8.399 13.402,8.376 H 13.401 L 13.391,8.374 13.291,8.355 13.25,8.349 13.148,8.333 13.042,8.322 Z m 1.725,0.241 h -0.013 l -0.06,-0.002 -0.067,0.003 -0.053,0.007 -0.004,10e-4 -0.063,0.011 -0.023,0.008 -0.031,0.008 -0.046,0.02 -0.048,0.024 -0.016,0.014 -0.016,0.015 -0.002,0.004 -0.02,0.022 -0.007,0.009 -0.007,0.019 -0.005,0.022 -10e-4,0.004 0.003,0.01 -10e-4,0.004 -0.001,0.009 -0.002,0.007 -0.002,0.015 10e-4,0.013 0.002,0.012 0.004,0.012 0.007,0.011 0.003,0.004 0.001,0.008 0.005,0.012 0.006,0.012 0.01,0.014 0.013,0.015 0.007,0.007 0.009,0.011 0.012,0.012 v 10e-4 l 0.006,0.007 0.022,0.025 0.02,0.018 0.02,0.015 0.039,0.025 0.016,0.008 0.03,0.019 0.016,0.009 0.071,0.031 0.067,0.028 0.075,0.022 0.016,0.003 0.062,0.015 0.004,0.001 0.066,0.015 0.075,0.009 0.063,0.003 0.015,0.002 0.068,10e-4 0.025,-10e-4 0.049,-0.005 0.034,-0.005 0.034,-0.005 0.004,-10e-4 0.041,-0.009 0.013,-0.004 0.072,-0.024 0.071,-0.03 0.06,-0.032 L 15.504,9.042 15.542,9.007 15.568,8.971 15.581,8.935 15.583,8.899 15.572,8.862 15.548,8.827 15.514,8.793 15.468,8.76 15.455,8.752 15.397,8.72 15.329,8.69 15.252,8.662 15.166,8.638 15.137,8.629 15.043,8.607 14.943,8.588 14.905,8.582 14.799,8.567 14.773,8.564 Z m -3.125,-0.466 -0.076,0.015 -0.073,0.017 -0.068,0.019 -0.016,0.004 -0.059,0.02 -0.054,0.02 -0.048,0.022 V 8.21 L 11.185,8.215 11.2,8.219 h 0.006 l 0.02,0.005 0.023,0.002 h 0.003 l 0.016,0.003 0.059,0.003 0.03,0.001 h 0.035 l 0.015,10e-4 h 0.005 l 0.041,10e-4 h 0.033 l 0.026,0.001 h 0.009 0.004 0.009 0.021 l 0.014,-0.001 0.005,0.001 h 0.018 0.017 0.017 l 0.017,10e-4 h 0.017 0.019 0.02 l 0.022,-10e-4 h 0.025 0.004 l 0.029,-0.001 h 0.035 l 0.045,0.001 h 0.048 L 11.923,8.235 12.03,8.233 h 0.01 v 0 L 12.17,8.231 12.295,8.226 12.37,8.221 12.393,8.22 h 0.023 L 12.535,8.216 12.644,8.211 12.725,8.204 12.744,8.203 12.837,8.198 12.865,8.195 12.914,8.19 12.941,8.186 12.979,8.183 13.023,8.178 13.032,8.177 13.062,8.168 13.073,8.166 13.078,8.163 13.072,8.156 13.068,8.155 13.067,8.154 13.013,8.138 12.967,8.126 12.89,8.108 12.807,8.093 12.754,8.083 12.666,8.071 12.606,8.064 12.516,8.055 12.421,8.049 12.361,8.046 12.266,8.043 h -0.06 -0.094 L 12.019,8.046 11.965,8.049 11.875,8.055 11.787,8.063 11.7,8.074 11.661,8.079 Z M 9.472,8.054 a 1.183,1.183 0 0 0 0.636,0.062 c 0.054,-0.2 0.4,-0.439 0.614,-0.547 -0.147,0.11 -0.395,0.383 -0.352,0.552 a 1.947,1.947 0 0 0 0.61,0 v 0 A 3.1,3.1 0 0 0 11.542,8 0.439,0.439 0 0 1 11.378,8 L 11.4,7.99 a 1.006,1.006 0 0 0 0.246,-0.1 0.5,0.5 0 0 1 -0.154,0.013 v 0 C 11.53,7.885 11.662,7.82 11.671,7.79 a 0.414,0.414 0 0 1 -0.153,0.026 v 0 c 0.024,-0.017 0.1,-0.077 0.108,-0.127 a 0.38,0.38 0 0 1 -0.14,0.033 V 7.717 A 0.144,0.144 0 0 0 11.531,7.605 0.31,0.31 0 0 1 11.392,7.636 0.139,0.139 0 0 0 11.386,7.522 0.331,0.331 0 0 1 11.251,7.564 l -0.023,-0.01 c 0.013,-0.024 0.034,-0.073 -0.011,-0.1 a 0.6,0.6 0 0 1 -0.12,0.04 C 11.036,7.463 10.991,7.433 10.983,7.399 a 2.637,2.637 0 0 1 -0.3,0.081 c 0,-0.019 0,-0.036 0,-0.044 a 0.792,0.792 0 0 0 -0.278,0.095 h -0.028 c -0.029,0 -0.078,-0.016 -0.032,-0.045 a 0.776,0.776 0 0 0 -0.2,0.089 h -0.023 c -0.025,0 -0.074,-0.013 -0.035,-0.051 A 0.343,0.343 0 0 0 9.914,7.629 H 9.905 c -0.025,0 -0.1,0 -0.084,-0.041 -0.08,0.037 -0.091,0.088 -0.093,0.1 H 9.717 C 9.684,7.688 9.594,7.681 9.604,7.657 A 0.07,0.07 0 0 0 9.576,7.757 0.262,0.262 0 0 1 9.423,7.734 c -0.031,0.038 0,0.111 0,0.119 v 0 A 0.549,0.549 0 0 1 9.3,7.847 C 9.262,7.953 9.45,8.043 9.472,8.054 Z M 11.433,8.42 11.449,8.404 11.453,8.397 11.455,8.38 11.445,8.359 11.446,8.358 11.444,8.352 11.439,8.348 11.432,8.338 11.404,8.32 11.396,8.318 11.361,8.308 11.357,8.307 11.302,8.296 11.293,8.295 11.252,8.289 11.242,8.288 H 11.236 L 11.174,8.285 11.148,8.284 11.057,8.283 10.965,8.285 10.9,8.287 10.81,8.292 10.75,8.298 10.665,8.305 10.582,8.315 10.532,8.323 10.455,8.335 10.381,8.349 10.311,8.366 10.28,8.374 10.217,8.391 10.159,8.41 10.106,8.431 10.057,8.453 10.015,8.476 9.979,8.5 9.948,8.525 9.925,8.551 9.908,8.577 9.898,8.603 9.896,8.627 v 10e-4 l 0.007,0.02 0.007,0.009 0.005,0.007 0.002,0.002 0.026,0.013 0.007,0.003 0.019,0.009 0.002,10e-4 0.019,0.005 0.017,0.004 0.038,0.008 0.019,0.002 0.022,0.002 0.027,0.001 0.016,0.002 0.022,0.002 0.02,10e-4 0.041,0.002 h 0.009 0.03 0.004 L 10.297,8.72 10.328,8.718 h 0.011 L 10.38,8.715 10.395,8.714 10.421,8.712 10.458,8.708 h 0.003 l 0.041,-0.004 0.017,-0.002 0.023,-0.003 0.04,-0.005 h 0.002 l 0.043,-0.006 0.021,-0.003 0.023,-0.003 0.045,-0.007 0.003,-0.001 0.044,-0.007 0.039,-0.008 0.01,-0.001 0.05,-0.01 L 10.88,8.644 10.904,8.638 10.913,8.636 10.964,8.622 11.012,8.608 11.015,8.607 11.061,8.596 11.079,8.591 11.085,8.59 11.139,8.573 11.197,8.553 11.23,8.539 11.249,8.531 11.26,8.524 11.305,8.507 11.34,8.491 11.357,8.482 11.394,8.456 11.41,8.44 v 0 l 0.013,-0.01 z m 8.301,4.974 0.433,-0.163 -0.013,0.509 0.582,-0.247 0.018,-0.472 0.42,-0.169 0.043,-1.176 -1.435,0.567 z m -2.518,0.728 1.377,-0.551 v 0.168 l -1.377,0.563 v 0.548 l 1.626,-0.661 0.018,-0.923 -1.644,0.659 z m 0,-1.592 1.32,-0.528 v 0.168 l -1.32,0.54 v 0.578 l 1.661,-0.654 0.022,-0.934 -1.683,0.641 z m -2.639,2.672 1.425,-0.571 v 0.175 l -1.425,0.582 v 0.567 l 1.683,-0.684 0.018,-0.955 -1.701,0.682 z m 0,-1.648 1.366,-0.547 v 0.175 l -1.366,0.558 v 0.599 l 1.719,-0.677 0.023,-0.967 -1.742,0.664 z M 7.352,13.5 6.68,13.221 a 0.043,0.043 0 0 0 -0.044,0 0.047,0.047 0 0 0 -0.02,0.04 l 0.006,0.165 a 0.054,0.054 0 0 0 0,0.021 l 0.143,0.27 a 0.057,0.057 0 0 0 0.028,0.025 l 0.362,0.139 A 0.048,0.048 0 0 0 7.203,13.874 L 7.348,13.762 A 0.046,0.046 0 0 0 7.365,13.73 L 7.379,13.547 A 0.051,0.051 0 0 0 7.352,13.5 Z m 6.783,-0.8 a 1.281,1.281 0 0 1 -0.849,0.008 L 2,8.841 l 0.2,4.034 10.9,4.579 a 1.272,1.272 0 0 0 1.019,-0.013 L 21.772,14 22,9.844 Z M 4.062,12.641 a 0.215,0.215 0 0 1 -0.148,0.046 0.266,0.266 0 0 1 -0.09,-0.02 L 3.157,12.4 A 0.286,0.286 0 0 1 2.976,12.159 L 2.968,12.028 A 0.214,0.214 0 0 1 3.05,11.841 0.241,0.241 0 0 1 3.285,11.813 l 0.631,0.242 a 0.315,0.315 0 0 1 0.2,0.234 l 0.024,0.133 a 0.224,0.224 0 0 1 -0.078,0.219 z m 1.729,0.421 a 0.147,0.147 0 0 1 -0.058,0.1 L 5.588,13.273 A 0.157,0.157 0 0 1 5.483,13.304 0.186,0.186 0 0 1 5.431,13.293 v 0 L 5.072,13.152 A 0.161,0.161 0 0 1 4.985,13.075 L 4.843,12.807 A 0.174,0.174 0 0 1 4.824,12.738 L 4.818,12.574 A 0.149,0.149 0 0 1 4.88,12.446 0.147,0.147 0 0 1 5.022,12.431 l 0.679,0.278 a 0.165,0.165 0 0 1 0.105,0.164 z m 1.694,0.688 a 0.146,0.146 0 0 1 -0.057,0.1 L 7.282,13.962 A 0.161,0.161 0 0 1 7.177,14 0.163,0.163 0 0 1 7.125,13.988 v 0 L 6.766,13.848 A 0.17,0.17 0 0 1 6.679,13.77 L 6.537,13.5 A 0.151,0.151 0 0 1 6.519,13.431 L 6.512,13.268 A 0.15,0.15 0 0 1 6.574,13.14 0.147,0.147 0 0 1 6.716,13.125 L 7.4,13.4 a 0.166,0.166 0 0 1 0.105,0.165 z m 1.679,0.7 v 0 a 0.483,0.483 0 0 1 -0.247,0.375 0.333,0.333 0 0 1 -0.138,0.03 0.393,0.393 0 0 1 -0.2,-0.056 0.93,0.93 0 0 1 -0.376,-0.788 0.582,0.582 0 0 1 0.223,-0.5 0.339,0.339 0 0 1 0.333,-0.01 0.915,0.915 0 0 1 0.405,0.944 z m 7.341,0.925 a 0.11,0.11 0 0 1 -0.068,0.1 l -1.923,0.808 a 0.111,0.111 0 0 1 -0.154,-0.1 v -2.924 a 0.111,0.111 0 0 1 0.073,-0.1 l 1.991,-0.731 a 0.11,0.11 0 0 1 0.149,0.107 z m 2.574,-1.085 a 0.107,0.107 0 0 1 -0.066,0.1 l -1.858,0.781 a 0.108,0.108 0 0 1 -0.149,-0.1 v -2.826 a 0.108,0.108 0 0 1 0.071,-0.1 L 19,11.438 a 0.107,0.107 0 0 1 0.144,0.1 z m 2.294,-0.992 a 0.17,0.17 0 0 1 -0.1,0.144 l -1.526,0.643 a 0.167,0.167 0 0 1 -0.232,-0.158 l 0.057,-2.085 a 0.168,0.168 0 0 1 0.106,-0.151 l 1.588,-0.622 a 0.167,0.167 0 0 1 0.228,0.165 z M 8.692,13.647 A 0.213,0.213 0 0 0 8.601,13.625 0.154,0.154 0 0 0 8.518,13.649 0.431,0.431 0 0 0 8.373,14.008 0.781,0.781 0 0 0 8.668,14.65 0.19,0.19 0 0 0 8.847,14.668 0.327,0.327 0 0 0 9,14.416 v 0 A 0.766,0.766 0 0 0 8.692,13.647 Z M 4.014,12.411 3.338,12.144 V 12.053 L 4,12.323 v -0.02 a 0.191,0.191 0 0 0 -0.117,-0.14 l -0.63,-0.247 a 0.136,0.136 0 0 0 -0.135,0.014 0.105,0.105 0 0 0 -0.04,0.092 l 0.009,0.131 a 0.17,0.17 0 0 0 0.11,0.142 l 0.668,0.262 a 0.12,0.12 0 0 0 0.123,-0.012 0.112,0.112 0 0 0 0.036,-0.11 z m 1.644,0.403 -0.673,-0.279 a 0.046,0.046 0 0 0 -0.044,0 0.042,0.042 0 0 0 -0.019,0.039 v 0.165 a 0.09,0.09 0 0 0 0.006,0.022 l 0.143,0.27 a 0.057,0.057 0 0 0 0.027,0.024 l 0.363,0.139 A 0.048,0.048 0 0 0 5.509,13.188 L 5.653,13.075 A 0.042,0.042 0 0 0 5.671,13.043 L 5.685,12.86 A 0.052,0.052 0 0 0 5.658,12.814 Z"/>

</svg>