<?xml version="1.0" encoding="UTF-8"?>
<svg width="24px" fill="#44739e" height="24px" viewBox="0 0 24 24" version="1.1" xmlns="http://www.w3.org/2000/svg" xmlns:xlink="http://www.w3.org/1999/xlink">
            <path d="M 20.682,8.861 A 1.319,1.319 0 1 0 22,10.18 1.322,1.322 0 0 0 20.682,8.861 Z m 0,2.444 a 1.125,1.125 0 1 1 1.125,-1.125 1.127,1.127 0 0 1 -1.125,1.125 z M 19.88,10.199 20.32,10.04 v 0.994 l 0.893,-0.318 V 9.393 L 19.88,9.871 Z M 2,15.081 h 0.9 v -2.5 A 12.782,12.782 0 0 1 6.748,12.065 V 11.181 C 3.352,11.2 2,12 2,12 Z M 15.815,11.16 a 11.761,11.761 0 0 0 -1.468,0.106 V 9.393 h -0.889 v 5.572 a 25.416,25.416 0 0 0 2.622,0.174 c 2.2,0 2.772,-0.459 2.772,-0.459 a 3.127,3.127 0 0 0 0.207,-1.516 c 0,-1.188 -0.212,-1.454 -0.212,-1.454 a 6.77,6.77 0 0 0 -3.032,-0.55 z m 2.308,2.882 a 7.835,7.835 0 0 1 -2.028,0.208 c -0.493,0.005 -1.072,-0.034 -1.748,-0.092 v -2 a 8.624,8.624 0 0 1 3.761,0.2 6.86,6.86 0 0 1 0.063,0.84 c 0,0.333 -0.029,0.651 -0.048,0.844 z M 9.682,11.16 A 11.922,11.922 0 0 0 8.214,11.266 V 9.393 H 7.331 v 5.572 a 25.391,25.391 0 0 0 2.617,0.174 c 2.207,0 2.771,-0.459 2.771,-0.459 a 3.114,3.114 0 0 0 0.208,-1.516 c 0,-1.188 -0.212,-1.454 -0.212,-1.454 A 6.747,6.747 0 0 0 9.682,11.16 Z m 2.308,2.882 A 7.761,7.761 0 0 1 9.962,14.25 C 9.475,14.255 8.895,14.216 8.214,14.158 v -2 a 8.62,8.62 0 0 1 3.762,0.2 6.86,6.86 0 0 1 0.063,0.84 7.3,7.3 0 0 1 -0.049,0.844 z"/>

</svg>
