<svg xmlns="http://www.w3.org/2000/svg" viewBox="0 0 24 24"><path fill="#44739e" d="M11.966 7.897a19.6 19.6 0 0 0-7.622 1.465A6.35 6.35 0 0 0 2 10.827c0-1.172.879-2.344 2.929-3.226a18.65 18.65 0 0 1 13.771 0c2.051.879 2.93 2.051 2.93 3.226a3.73 3.73 0 0 0-2.051-1.465 19.6 19.6 0 0 0-7.617-1.465m7.031 2.051c3.808 1.757 4.102 4.688.293 6.451a19.4 19.4 0 0 1-14.064 0c-4.101-1.758-4.101-4.688-.293-6.446a19.4 19.4 0 0 1 14.064 0m-1.758 5.567c2.929-.879 2.637-2.052 0-2.931a20.26 20.26 0 0 0-10.255 0c-2.93.879-2.93 2.052 0 2.931a20.26 20.26 0 0 0 10.255 0"/></svg>