<?xml version="1.0" encoding="UTF-8"?>
<svg width="24px" height="24px" viewBox="0 0 24 24" fill="#44739e" version="1.1" xmlns="http://www.w3.org/2000/svg" xmlns:xlink="http://www.w3.org/1999/xlink">
            <path d="M 11.962,7.931 A 19.445,19.445 0 0 0 4.4,9.384 6.333,6.333 0 0 0 2.075,10.837 c 0,-1.162 0.872,-2.325 2.906,-3.2 a 18.491,18.491 0 0 1 13.662,0 c 2.035,0.872 2.907,2.035 2.907,3.2 A 3.712,3.712 0 0 0 19.515,9.384 19.444,19.444 0 0 0 11.958,7.931 m 6.976,2.034 c 3.778,1.744 4.069,4.651 0.29,6.4 a 19.257,19.257 0 0 1 -13.952,0 C 1.203,14.621 1.203,11.714 4.981,9.97 a 19.259,19.259 0 0 1 13.953,0 m -1.744,5.523 c 2.906,-0.872 2.616,-2.035 0,-2.907 a 20.1,20.1 0 0 0 -10.174,0 c -2.907,0.872 -2.907,2.035 0,2.907 a 20.1,20.1 0 0 0 10.174,0"></path>

</svg>