<?xml version="1.0" encoding="UTF-8"?>
<svg width="32px" height="32px" viewBox="0 0 32 32" version="1.1" xmlns="http://www.w3.org/2000/svg" xmlns:xlink="http://www.w3.org/1999/xlink">
    <!-- Generator: Sketch 51.3 (57544) - http://www.bohemiancoding.com/sketch -->
    <title>RecessedCeiling</title>
    <style>path{fill:#000}@media (prefers-color-scheme:dark){path{fill:#fff}}</style>
            <path d="M15.9931276,10.99975 C12.5611276,10.99975 9.29312763,11.61575 6.78912763,12.73375 C5.58712763,13.27075 4.68612763,13.86575 4.00312763,14.47075 C3.93012763,13.03475 5.13512763,11.59375 7.60612763,10.51875 C12.2631276,8.49375 19.7221276,8.49375 24.3841276,10.51875 C26.8611276,11.59475 28.0681276,13.03875 27.9971276,14.47575 C27.3111276,13.86875 26.4081276,13.27275 25.2001276,12.73375 C22.6951276,11.61575 19.4251276,10.99975 15.9931276,10.99975 Z M24.3879276,13.55995 C29.1059276,15.66895 29.2579276,19.14995 24.6079276,21.33695 C19.8939276,23.55495 12.1459276,23.55495 7.42592763,21.33695 C2.77192763,19.14995 2.91392763,15.66895 7.62892763,13.55995 C12.2789276,11.47895 19.7319276,11.47895 24.3879276,13.55995 Z M22.4589276,20.24395 C25.9459276,19.24995 25.8329276,17.66795 22.2939276,16.70895 C18.8019276,15.76395 13.2129276,15.76395 9.72492763,16.70895 C6.18792763,17.66795 6.08092763,19.24995 9.57192763,20.24395 C13.1129276,21.25195 18.9229276,21.25195 22.4589276,20.24395 Z"></path>
</svg>