<?xml version="1.0" encoding="UTF-8"?>
<svg width="24px" fill="#44739e" height="24px" viewBox="0 0 24 24" version="1.1" xmlns="http://www.w3.org/2000/svg" xmlns:xlink="http://www.w3.org/1999/xlink">
            <path d="M 21.978,9.286 A 0.691,0.691 0 0 0 21.26,8.723 0.187,0.187 0 0 0 21.144,8.751 c -0.022,0.033 0.044,0.071 0.072,0.093 0.442,0.266 0.093,1.028 -0.337,1.7 -0.635,0.872 -0.95,1.265 -0.95,1.265 -0.077,0.1 -0.138,0.066 -0.138,-0.089 V 9.629 h -0.719 v 2.933 a 0.324,0.324 0 0 0 0.3,0.281 h 0.243 a 0.464,0.464 0 0 0 0.414,-0.215 l 1.707,-2.535 A 1,1 0 0 0 21.978,9.286 Z M 7.577,14.247 c 0.072,0.077 0.067,0.2 0.15,0.259 A 0.352,0.352 0 0 0 8.008,14.418 C 8.053,14.379 7.986,14.33 7.981,14.286 7.937,14.22 7.964,14.086 7.854,14.081 a 2.3,2.3 0 0 1 -0.337,0.022 l -0.033,0.022 c -0.022,0.061 0.071,0.061 0.093,0.122 z M 2.23,14.622 a 0.259,0.259 0 0 0 -0.132,0.144 c -0.017,0.11 0.005,0.215 -0.083,0.3 C 2.01,15.088 1.988,15.11 2.01,15.132 a 1.344,1.344 0 0 0 0.248,0.067 C 2.302,15.06 2.33,14.911 2.38,14.79 V 14.757 A 0.278,0.278 0 0 0 2.23,14.622 Z M 2.474,14.606 A 0.169,0.169 0 0 0 2.601,14.611 0.749,0.749 0 0 0 2.838,14.324 0.218,0.218 0 0 0 2.755,14.23 0.079,0.079 0 0 0 2.678,14.236 1.782,1.782 0 0 1 2.435,14.407 c -0.033,0.022 -0.022,0.077 -0.027,0.116 -0.005,0.039 0.044,0.061 0.066,0.083 z M 9.067,13.98 A 1.584,1.584 0 0 1 8.818,13.493 0.641,0.641 0 0 0 8.636,13.444 c -0.033,0.011 -0.077,0 -0.094,0.044 l 0.276,0.552 a 0.306,0.306 0 0 1 0.028,0.161 0.754,0.754 0 0 1 -0.193,0.314 C 8.636,14.526 8.614,14.537 8.597,14.51 A 1.231,1.231 0 0 0 8.68,14.123 L 8.41,13.632 C 8.376,13.565 8.321,13.505 8.327,13.427 a 0.089,0.089 0 0 1 0.06,-0.071 c 0.122,-0.039 0.266,-0.034 0.354,-0.127 a 1.371,1.371 0 0 0 0.177,-0.591 0.074,0.074 0 0 1 0.055,-0.044 c 0.022,-0.006 0.044,0.022 0.055,0.033 a 0.915,0.915 0 0 1 -0.155,0.679 c 0,0.022 -0.016,0.055 0.011,0.072 a 0.5,0.5 0 0 0 0.387,-0.061 2,2 0 0 0 0.408,-0.055 0.04,0.04 0 0 1 0.028,0.033 0.661,0.661 0 0 0 -0.16,0.337 c -0.105,0.11 -0.26,0.2 -0.266,0.364 0.017,0.077 0.083,0.006 0.133,0.011 0.022,0 0.033,0.022 0.033,0.044 l -0.1,0.155 c -0.055,0.094 0.011,0.2 0.011,0.287 a 0.191,0.191 0 0 0 0.183,0.105 1.472,1.472 0 0 0 0.442,-0.116 0.977,0.977 0 0 1 0.519,-0.033 0.726,0.726 0 0 0 0.414,-0.232 0.245,0.245 0 0 1 0.172,0.094 0.91,0.91 0 0 0 0.718,0.287 l 0.022,-0.011 a 0.04,0.04 0 0 0 -0.011,-0.061 l -0.166,-0.082 a 0.636,0.636 0 0 1 -0.3,-0.3 1.366,1.366 0 0 0 -0.171,-0.353 1.589,1.589 0 0 1 -0.105,-0.161 c 0.005,0 0.016,-0.016 0.022,-0.016 a 0.738,0.738 0 0 1 0.375,0.408 0.6,0.6 0 0 0 0.58,0.3 l 0.022,-0.017 c 0.011,-0.011 0.006,-0.033 0,-0.044 L 11.955,14.214 A 1.511,1.511 0 0 1 11.53,13.672 c -0.044,-0.066 -0.127,-0.11 -0.172,-0.177 a 4.741,4.741 0 0 1 -0.32,-1.3 1.385,1.385 0 0 0 -0.121,-0.348 7.228,7.228 0 0 0 -0.68,-0.878 L 10.171,10.903 9.337,10.212 A 1.67,1.67 0 0 0 9,10.037 a 0.859,0.859 0 0 0 -0.585,0.022 4.757,4.757 0 0 1 -0.53,0.3 2.773,2.773 0 0 0 -0.823,0.359 c -0.139,0.121 -0.255,0.3 -0.459,0.276 a 0.882,0.882 0 0 0 -0.608,0.215 1.161,1.161 0 0 1 -0.5,0.343 c -0.177,0.071 -0.392,0.038 -0.569,0.1 A 2.4,2.4 0 0 0 4.174,12.122 1.5,1.5 0 0 1 3.396,12.409 0.521,0.521 0 0 1 2.942,12.067 0.57,0.57 0 0 1 3.119,11.476 C 3.296,11.26 3.583,11.134 3.727,10.885 a 0.465,0.465 0 0 0 -0.033,-0.464 1.306,1.306 0 0 0 -0.7,-0.26 2.06,2.06 0 0 1 -0.415,-0.237 0.375,0.375 0 0 0 -0.061,0.265 0.649,0.649 0 0 0 0.409,0.5 c 0.121,0.055 0.265,0.016 0.392,0.044 0.033,0.016 0.072,0.049 0.072,0.088 a 0.129,0.129 0 0 1 -0.044,0.094 3.959,3.959 0 0 0 -0.569,0.53 0.77,0.77 0 0 0 -0.1,0.762 0.82,0.82 0 0 0 0.663,0.492 1.47,1.47 0 0 0 0.563,-0.061 c 0.022,0 0.033,0.028 0.044,0.039 A 4.126,4.126 0 0 0 3.976,13.13 2.751,2.751 0 0 0 4.1,13.5 0.167,0.167 0 0 1 4.066,13.633 1.447,1.447 0 0 1 3.746,13.81 L 3.47,13.826 3.415,13.854 a 1.691,1.691 0 0 0 -0.172,0.375 0.937,0.937 0 0 1 -0.37,0.288 0.829,0.829 0 0 1 -0.149,0.188 0.271,0.271 0 0 1 -0.16,0.06 0.787,0.787 0 0 0 -0.138,0.409 c 0.154,0.016 0.314,0.1 0.469,0.016 0.133,-0.06 0.16,-0.221 0.254,-0.314 0.077,-0.083 0.194,-0.023 0.287,-0.006 0.139,0.006 0.238,-0.094 0.354,-0.138 0.083,-0.05 0.149,-0.144 0.232,-0.2 A 0.963,0.963 0 0 1 4.58,14.526 0.637,0.637 0 0 0 4.972,14.488 1.216,1.216 0 0 1 5.303,14.305 0.533,0.533 0 0 0 5.513,14.023 C 5.546,13.93 5.64,13.852 5.635,13.747 5.607,13.725 5.574,13.67 5.535,13.676 5.48,13.747 5.441,13.825 5.385,13.897 5.131,14.245 4.932,14.278 4.413,14.278 a 1.2,1.2 0 0 0 -0.994,0.4 0.045,0.045 0 0 1 -0.056,-0.011 0.225,0.225 0 0 1 0.045,-0.144 1.125,1.125 0 0 1 0.989,-0.42 1.5,1.5 0 0 0 0.59,-0.144 0.907,0.907 0 0 0 0.426,-0.459 c 0.044,-0.221 0.061,-0.464 0.121,-0.673 0.006,-0.022 0.061,-0.039 0.078,-0.028 0.017,0.011 0.066,0.022 0.066,0.05 a 1.251,1.251 0 0 0 -0.022,0.685 c 0.171,0.221 0.48,0.1 0.712,0.088 a 4.435,4.435 0 0 1 0.663,0.011 c 0.11,-0.005 0.194,0.022 0.282,-0.044 A 0.227,0.227 0 0 0 7.34,13.457 c 0,-0.061 -0.06,-0.1 0,-0.155 a 0.074,0.074 0 0 1 0.083,0.011 0.888,0.888 0 0 0 0.1,0.26 1.264,1.264 0 0 0 0.431,0.336 0.571,0.571 0 0 1 0.282,0.426 c 0,0.094 -0.083,0.155 -0.155,0.2 A 0.694,0.694 0 0 1 7.689,14.629 C 7.501,14.54 7.451,14.341 7.33,14.198 a 0.3,0.3 0 0 0 -0.254,-0.078 1.655,1.655 0 0 0 -0.3,0.045 0.093,0.093 0 0 0 -0.027,0.082 c 0.066,0.116 0.132,0.227 0.2,0.343 0.083,0.049 0.194,-0.028 0.266,0.06 a 1.023,1.023 0 0 0 0.187,0.271 0.328,0.328 0 0 0 0.337,0.061 4.253,4.253 0 0 0 0.763,-0.3 h 0.082 c 0.1,-0.011 0.21,-0.005 0.277,-0.077 a 2.116,2.116 0 0 0 0.2,-0.337 0.339,0.339 0 0 0 0.006,-0.288 z m 1.3,-1.257 0.027,-0.061 0.033,-0.066 0.006,-0.006 a 0.163,0.163 0 0 0 0.027,-0.055 l 0.011,-0.022 0.017,-0.049 a 0.1,0.1 0 0 1 0.138,-0.056 0.319,0.319 0 0 1 0.1,0.105 l 0.017,0.028 0.022,0.033 0.044,0.049 a 0.553,0.553 0 0 1 0.171,0.37 0.84,0.84 0 0 0 -0.023,0.105 l -0.011,0.027 -0.011,0.034 a 0.073,0.073 0 0 1 -0.049,0.049 0.046,0.046 0 0 1 -0.039,-0.005 0.044,0.044 0 0 1 -0.017,-0.039 v -0.033 l -0.011,-0.11 a 0.349,0.349 0 0 0 -0.044,-0.122 l -0.049,-0.055 -0.055,-0.061 a 0.152,0.152 0 0 0 -0.116,-0.06 0.219,0.219 0 0 0 -0.089,0.06 l -0.038,0.045 -0.033,0.044 c -0.011,0.022 -0.039,0.005 -0.039,0.005 h -0.005 v -0.005 a 0.218,0.218 0 0 1 -0.011,-0.061 0.207,0.207 0 0 1 0.028,-0.088 z m -0.111,1.308 a 0.341,0.341 0 0 1 0.237,-0.221 h 0.028 l 0.027,0.006 a 0.054,0.054 0 0 1 0.039,0.044 c 0,0.016 0.005,0.033 0.005,0.055 a 0.209,0.209 0 0 1 -0.06,0.144 0.6,0.6 0 0 1 -0.227,0.027 v 0 L 10.288,14.081 10.272,14.07 c -0.01,-0.006 -0.026,-0.022 -0.015,-0.039 z M 8.92,11.059 h 0.006 a 0.094,0.094 0 0 1 0.1,-0.017 v 0 a 0.424,0.424 0 0 1 0.127,0.161 0.812,0.812 0 0 1 0.055,0.292 0.891,0.891 0 0 1 -0.033,0.243 H 9.174 v 0.006 a 0.032,0.032 0 0 1 -0.044,0 H 9.124 V 11.738 A 2.317,2.317 0 0 0 9.008,11.313 L 8.975,11.258 8.964,11.241 8.937,11.2 A 0.136,0.136 0 0 1 8.92,11.059 Z m 7.48,2.41 A 4.525,4.525 0 0 0 16.524,13 a 1.4,1.4 0 0 0 -0.3,-1.067 4.006,4.006 0 0 1 -0.639,1.357 0.991,0.991 0 0 1 -0.344,0.285 1.066,1.066 0 0 0 -0.309,0.241 l -0.01,0.013 -0.014,-0.007 c -0.041,-0.021 -0.047,-0.023 -0.1,0 l -0.024,0.012 v -0.026 a 0.278,0.278 0 0 1 0.038,-0.149 c 0.039,-0.083 0.057,-0.131 -0.011,-0.162 l -0.017,-0.009 0.008,-0.017 a 2.751,2.751 0 0 1 0.435,-0.614 2.589,2.589 0 0 0 0.444,-0.635 v 0.005 c -0.026,0.04 -0.052,0.081 -0.081,0.12 l -0.065,0.088 0.031,-0.105 c 0.03,-0.1 0.067,-0.206 0.1,-0.3 a 3.482,3.482 0 0 0 0.13,-0.413 v 0 h -0.005 c -0.009,0.014 -0.018,0.034 -0.029,0.055 l -0.016,0.034 a 4.336,4.336 0 0 1 -1.386,1.829 c -0.388,0.318 -0.4,0.414 -0.386,0.441 0.014,0.027 0.089,0.042 0.258,0 h 0.005 a 1.173,1.173 0 0 0 0.157,-0.081 l 0.027,-0.016 0.106,-0.061 -0.082,0.091 A 5.077,5.077 0 0 1 10.823,15.28 2.865,2.865 0 0 1 9.056,14.595 l -0.022,0.033 a 4.014,4.014 0 0 0 0.866,0.61 l 0.089,0.054 -0.1,-0.018 a 0.691,0.691 0 0 1 -0.233,-0.1 c -0.034,-0.02 -0.068,-0.041 -0.1,-0.059 a 2.282,2.282 0 0 0 1.343,0.516 3.92,3.92 0 0 0 1.777,-0.049 3.924,3.924 0 0 1 0.555,-0.105 l 0.055,-0.006 -0.048,0.048 h -0.005 a 5.23,5.23 0 0 1 -1.766,0.315 1.893,1.893 0 0 1 -0.53,-0.066 2.117,2.117 0 0 0 -0.453,-0.072 l 0.569,0.216 0.045,0.018 -0.044,0.019 a 0.456,0.456 0 0 1 -0.252,-0.019 3.166,3.166 0 0 0 0.682,0.18 5.813,5.813 0 0 0 3.916,-1.4 l 0.045,-0.03 v 0.041 h 0.011 0.014 0.03 v 0.007 c 0.053,-0.062 0.1,-0.127 0.151,-0.192 a 1.811,1.811 0 0 1 0.375,-0.4 l 0.042,-0.03 -0.011,0.051 a 4.37,4.37 0 0 1 -2.642,1.958 l 0.117,-0.025 -0.039,0.019 a 4.274,4.274 0 0 0 2.891,-2.593 z m -1.662,1.724 c -0.193,0.122 -0.391,0.239 -0.593,0.348 a 6.271,6.271 0 0 1 -0.686,0.317 4.544,4.544 0 0 1 -0.921,0.25 v 0.039 l 0.044,-0.011 c 0.07,-0.016 0.153,-0.033 0.249,-0.052 A 3.914,3.914 0 0 0 14,15.718 4.856,4.856 0 0 0 14.738,15.193 Z m -0.322,-2.082 0.01,0.055 0.049,-0.029 c 0.035,-0.021 0.035,-0.021 0.057,-0.006 l 0.03,0.02 0.023,-0.029 a 0.838,0.838 0 0 1 0.245,-0.187 1.014,1.014 0 0 0 0.242,-0.178 c 0.018,-0.022 0.036,-0.045 0.053,-0.068 0.024,-0.04 0.05,-0.081 0.074,-0.115 v 0 a 2.9,2.9 0 0 0 0.229,-0.538 l 0.059,-0.226 -0.126,0.19 -0.014,0.022 -0.009,0.016 v 0 0 a 0.713,0.713 0 0 1 -0.288,0.155 0.034,0.034 0 0 1 -0.039,-0.031 l -0.019,-0.076 -0.049,0.061 c -0.044,0.052 -0.089,0.105 -0.134,0.155 a 2.193,2.193 0 0 0 -0.369,0.516 l -0.016,0.034 0.034,0.017 c 0.027,0.014 0.03,0.025 0,0.1 a 0.243,0.243 0 0 0 -0.042,0.142 z m -3.554,1.557 h 0.009 l 0.049,0.025 v 0 l 0.4,0.151 v 0.01 c 0.009,0.083 0.145,0.139 0.4,0.168 a 3.656,3.656 0 0 0 0.678,0 c 0.148,-0.045 0.294,-0.1 0.435,-0.151 a 3.4,3.4 0 0 1 -1.1,0.072 c -0.239,-0.026 -0.309,-0.07 -0.328,-0.089 l 0.089,-0.03 -0.105,-0.039 -0.429,-0.159 0.006,-0.016 c 0.006,-0.03 0,-0.066 -0.124,-0.145 l -0.072,0.048 a 0.789,0.789 0 0 1 0.1,0.071 h -0.033 v 0.048 h 0.025 l -0.013,0.028 v 0 0 z m 4.258,-3.235 -0.027,0.065 a 3.289,3.289 0 0 1 -1.044,1.337 c -0.34,0.276 -0.358,0.37 -0.331,0.425 0.027,0.055 0.1,0.067 0.234,0.041 a 4.125,4.125 0 0 1 -1.814,0.865 0.307,0.307 0 0 1 0.06,0.035 0.316,0.316 0 0 1 0.018,0.027 3.947,3.947 0 0 0 1.953,-1.028 l -0.053,-0.057 a 0.709,0.709 0 0 1 -0.137,0.076 v 0 c -0.156,0.037 -0.187,0.011 -0.187,0.011 0,0 -0.016,-0.066 0.309,-0.33 v 0 a 3.346,3.346 0 0 0 1.088,-1.416 3.628,3.628 0 0 1 0.376,0.081 l 0.011,0.005 v 0 h 0.011 c 0.047,0.013 0.094,0.029 0.139,0.046 a 0.327,0.327 0 0 1 0.027,-0.047 l 0.01,-0.013 0.014,0.008 0.018,0.007 0.021,0.009 0.014,0.007 v 0.015 c 0,0.017 -0.008,0.034 -0.012,0.05 a 3.91,3.91 0 0 1 -0.123,0.384 c -0.021,0.056 -0.041,0.113 -0.061,0.171 v 0 a 1.433,1.433 0 0 1 0.093,-0.137 l 0.063,-0.08 -0.029,0.1 a 2.2,2.2 0 0 1 -0.5,0.8 2.777,2.777 0 0 0 -0.422,0.587 c 0.084,0.051 0.045,0.136 0.013,0.206 a 0.374,0.374 0 0 0 -0.035,0.1 0.1,0.1 0 0 1 0.1,0 1.126,1.126 0 0 1 0.309,-0.238 0.946,0.946 0 0 0 0.332,-0.274 3.979,3.979 0 0 0 0.632,-1.338 l 0.011,-0.042 0.009,-0.035 0.025,0.027 a 1.39,1.39 0 0 1 0.343,1.008 c 0,-0.039 0,-0.078 0,-0.115 0,-0.037 0.011,-0.09 0.015,-0.137 A 1.311,1.311 0 0 0 16.342,12 1.21,1.21 0 0 0 15.863,11.595 1.979,1.979 0 0 0 15.623,11.507 L 15.607,11.5 H 15.6 15.593 A 4.009,4.009 0 0 0 15.175,11.411 H 15.15 l -0.017,0.041 z m -4.797,4.23 H 10.4 v -0.015 h 0.019 a 1.854,1.854 0 0 1 0.465,0.062 l 0.041,0.01 a 2.431,2.431 0 0 0 0.4,0.066 q 0.059,0 0.12,0 c 0.28,-0.018 0.476,-0.031 0.635,-0.047 a 3.487,3.487 0 0 0 0.707,-0.142 l 0.19,-0.057 -0.111,0.022 c -0.063,0.013 -0.131,0.028 -0.2,0.047 a 2.628,2.628 0 0 1 -0.557,0.106 4.506,4.506 0 0 1 -0.464,0.006 c -0.14,-0.005 -0.3,-0.016 -0.488,-0.033 -0.089,-0.008 -0.182,-0.017 -0.283,-0.029 -0.071,-0.008 -0.139,-0.018 -0.2,-0.029 a 2.648,2.648 0 0 1 -0.4,-0.045 l -0.022,0.075 0.029,0.011 a 0.442,0.442 0 0 1 0.051,0.021 v 0 c 0.071,0.025 0.135,0.044 0.2,0.061 -0.111,-0.043 -0.114,-0.044 -0.121,-0.048 z m 3.911,-6.194 c 0.035,0.024 0.035,0.024 0.236,0.074 L 14.487,9.548 14.501,9.512 14.478,9.5 A 0.7,0.7 0 0 0 14.331,9.443 l -0.089,-0.017 -0.06,-0.01 0.043,0.044 z m -4.688,0.699 c 0.073,0.056 0.148,0.115 0.236,0.185 l 0.036,0.031 0.023,-0.011 a 7.068,7.068 0 0 1 1.644,-0.537 7.806,7.806 0 0 1 1.908,-0.2 c -0.175,-0.016 -0.434,-0.013 -1.163,0 a 6.851,6.851 0 0 0 -1.821,0.38 c -0.326,0.124 -0.342,0.123 -0.4,0.117 L 9.952,10.128 9.993,10.097 a 7.114,7.114 0 0 1 1.41,-0.576 4.823,4.823 0 0 0 -1.091,0.35 5.178,5.178 0 0 1 -0.721,0.283 z M 16.5,10.7 16.434,10.519 A 4.449,4.449 0 0 0 15.967,9.629 L 15.945,9.595 C 15.891,9.519 15.89,9.519 15.826,9.437 L 15.814,9.426 v 0 A 3.556,3.556 0 0 0 15.19,8.804 V 8.798 A 3.447,3.447 0 0 0 13.567,8.056 L 13.561,8.09 13.524,8.085 13.346,8.062 H 13.339 C 13.231,8.05 13.032,8.029 12.768,8.024 H 12.73 V 7.98 a 3.874,3.874 0 0 1 0.408,0 L 13.054,7.97 12.924,7.955 13.053,7.931 A 2.322,2.322 0 0 1 13.683,8 4.259,4.259 0 0 0 12.883,7.86 H 12.721 L 12.558,7.854 A 4.778,4.778 0 0 0 11.102,8.119 L 11.076,8.127 V 8.12 A 6.283,6.283 0 0 0 10.331,8.409 0.118,0.118 0 0 1 10.299,8.422 H 10.284 L 10.249,8.44 10.211,8.459 A 0.04,0.04 0 0 1 10.19,8.467 L 10.168,8.479 10.146,8.491 10.09,8.525 10.034,8.558 A 0.749,0.749 0 0 0 9.959,8.607 L 9.898,8.651 9.852,8.686 C 9.817,8.713 9.78,8.741 9.752,8.766 a 5.255,5.255 0 0 1 2.105,-0.659 l 0.067,-0.008 -0.052,0.043 a 0.791,0.791 0 0 1 -0.34,0.131 H 11.525 A 5.759,5.759 0 0 0 9.495,9.01 L 9.49,9.019 A 0.068,0.068 0 0 1 9.469,9.042 v 0 0 L 9.386,9.124 9.372,9.112 v 0 L 9.367,9.118 C 9.332,9.152 9.303,9.187 9.244,9.256 9.219,9.286 9.19,9.321 9.152,9.365 L 9.128,9.4 a 3.576,3.576 0 0 0 -0.28,0.391 l -0.03,0.053 a 1.1,1.1 0 0 1 0.544,0.2 c 0.06,0.039 0.115,0.078 0.17,0.12 l 0.039,-0.036 c 0.055,-0.051 0.113,-0.1 0.17,-0.146 A 2.527,2.527 0 0 0 10,9.739 C 9.9,9.715 9.883,9.72 9.676,9.769 L 9.621,9.782 9.656,9.738 c 0.54,-0.686 2.47,-1.061 4.13,-0.8 a 3.034,3.034 0 0 1 2.593,1.642 l 0.053,0.14 -0.087,-0.122 A 3.426,3.426 0 0 0 14.967,9.489 C 14.759,9.402 14.749,9.395 14.701,9.347 l -0.019,-0.02 0.024,-0.012 v 0 A 2.711,2.711 0 0 0 13.969,9.131 c 0.822,0.232 1.979,0.8 1.947,1.115 v 0.025 L 15.893,10.263 C 15.85,10.248 15.809,10.231 15.768,10.212 a 0.954,0.954 0 0 1 0.338,0.419 v 0.015 l -0.014,0.008 -0.018,0.01 -0.021,0.012 h -0.009 -0.009 a 0.683,0.683 0 0 1 -0.092,-0.064 v 0.014 L 15.909,10.59 a 3.756,3.756 0 0 0 -0.822,-0.559 4.114,4.114 0 0 0 -0.744,-0.209 3.753,3.753 0 0 1 0.877,0.323 3.47,3.47 0 0 1 0.934,0.838 v 0.006 a 2.352,2.352 0 0 1 0.466,1.626 l 0.013,-0.07 A 3.287,3.287 0 0 0 16.68,11.662 4.6,4.6 0 0 0 16.5,10.7 Z M 15.228,9.422 a 3.993,3.993 0 0 0 -0.682,-0.276 2.747,2.747 0 0 0 0.511,0.216 c 0.058,0.02 0.115,0.038 0.171,0.06 z M 10.586,9.212 A 2.492,2.492 0 0 0 9.859,9.591 5.81,5.81 0 0 1 10.586,9.212 Z M 11.445,9.009 11.505,8.985 11.4,9 11.432,9.011 Z m -1.586,1.41 0.022,-0.021 -0.024,0.011 H 9.851 Z m 6.641,2.872 -0.026,0.067 -0.037,0.123 -0.015,0.048 -0.022,0.055 q -0.072,0.18 -0.156,0.348 A 3.46,3.46 0 0 0 16.4,13.585 l 0.038,0.014 0.021,-0.053 v 0 l 0.02,0.007 0.039,-0.118 a 4.467,4.467 0 0 0 0.151,-0.684 v -0.02 c 0.013,-0.111 0.021,-0.192 0.025,-0.264 l -0.012,0.081 A 4.549,4.549 0 0 1 16.5,13.291 Z m -3.458,-2.002 a 0.839,0.839 0 0 0 0.229,-0.069 l 0.018,-0.007 H 13.28 v -0.079 0 a 0.822,0.822 0 0 0 -0.195,0.029 h -0.007 l -0.029,0.013 a 0.49,0.49 0 0 0 -0.063,0.033 l -0.108,0.073 h 0.139 z m 0.45,-0.972 c -0.162,0.037 -0.334,0.077 -0.505,0.128 -0.171,0.051 -0.346,0.1 -0.512,0.158 h -0.008 c -0.187,0.059 -0.364,0.121 -0.527,0.184 -0.163,0.063 -0.34,0.131 -0.515,0.205 -0.159,0.068 -0.329,0.142 -0.5,0.221 -0.044,0.019 -0.088,0.04 -0.134,0.062 l 0.052,0.062 c 0.039,-0.018 0.077,-0.036 0.115,-0.052 0.168,-0.079 0.337,-0.153 0.495,-0.221 0.174,-0.073 0.349,-0.141 0.513,-0.2 0.164,-0.059 0.337,-0.123 0.523,-0.182 h 0.008 c 0.166,-0.054 0.337,-0.109 0.51,-0.158 0.173,-0.049 0.34,-0.09 0.5,-0.126 0.16,-0.036 0.324,-0.073 0.472,-0.1 l 0.187,-0.028 -0.01,0.01 0.122,-0.02 a 0.625,0.625 0 0 1 0.1,-0.011 h 0.057 l -0.109,0.054 h 0.234 c -0.044,0.011 -0.082,0.022 -0.117,0.032 l -0.058,0.012 c -0.043,0.008 -0.087,0.017 -0.123,0.021 h -0.006 a 0.056,0.056 0 0 0 -0.05,0.017 0.057,0.057 0 0 0 -0.01,0.052 v 0.014 c -0.129,0.021 -0.263,0.049 -0.394,0.084 a 1.092,1.092 0 0 1 -0.275,0.056 l 0.013,-0.016 0.039,-0.052 -0.064,-0.011 c -0.131,-0.022 -0.953,0.244 -1.016,0.418 l -0.019,0.053 h 0.026 a 0.08,0.08 0 0 0 0.045,0.031 v 0 a 0.556,0.556 0 0 0 0.166,0.012 h 0.382 a 1.189,1.189 0 0 0 0.227,-0.012 c 0.05,-0.012 0.1,-0.029 0.148,-0.045 l 0.07,-0.022 0.028,-0.009 a 0.057,0.057 0 0 0 0.02,0.035 0.136,0.136 0 0 0 0.109,0.014 0.085,0.085 0 0 0 0.03,-0.005 v 0 a 0.085,0.085 0 0 1 -0.016,0.019 v 0.007 c -0.005,0.007 -0.008,0.008 -0.029,0.019 l -0.018,0.009 v 0.019 a 0.043,0.043 0 0 0 0.01,0.038 c 0.019,0.022 0.054,0.03 0.21,0.021 h 0.024 A 0.254,0.254 0 0 0 13.969,11.095 0.122,0.122 0 0 1 14,11.08 h 0.039 0.006 0.019 l 0.028,-0.006 0.032,-0.009 0.024,-0.007 h 0.083 a 0.221,0.221 0 0 0 0.067,-0.013 0.15,0.15 0 0 1 0.044,-0.009 h 0.061 l 0.1,-0.018 a 0.817,0.817 0 0 1 0.1,-0.019 h 0.016 a 0.436,0.436 0 0 1 0.109,0 h 0.06 a 0.357,0.357 0 0 1 0.083,0.013 h 0.014 a 1.906,1.906 0 0 1 -0.222,0.111 0.278,0.278 0 0 1 -0.14,0.03 0.281,0.281 0 0 0 -0.1,0.013 l -0.026,0.008 -0.023,0.007 h -0.043 -0.02 a 0.242,0.242 0 0 0 -0.065,0 H 14.236 14.225 14.214 14.2 a 0.268,0.268 0 0 0 -0.068,0.007 l -0.022,0.01 -0.009,0.005 h -0.017 a 0.228,0.228 0 0 0 -0.067,0.007 h -0.005 a 0.26,0.26 0 0 1 -0.121,0.018 h -0.026 l -0.016,0.009 -0.043,0.016 -0.046,0.017 c -0.025,0.01 -0.048,0.021 -0.071,0.032 a 1,1 0 0 1 -0.12,0.05 0.077,0.077 0 0 1 -0.026,0 h -0.011 l -0.125,0.032 H 13.4 13.394 a 0.091,0.091 0 0 1 -0.025,0.006 l -0.026,0.006 a 0.327,0.327 0 0 0 -0.049,0.021 0.192,0.192 0 0 1 -0.039,0.017 0.163,0.163 0 0 0 -0.053,0.026 0.424,0.424 0 0 1 -0.066,0.018 l -0.066,0.016 a 0.123,0.123 0 0 0 -0.051,0.03 l -0.011,0.009 h -0.009 a 0.086,0.086 0 0 0 -0.038,0.013 l -0.047,0.024 -0.043,0.023 -0.021,0.008 -0.02,0.008 h -0.009 l -0.017,0.01 a 0.221,0.221 0 0 0 -0.05,0.034 l -0.005,0.006 a 0.172,0.172 0 0 0 -0.018,0.094 v 0.008 l -0.068,0.021 a 4.967,4.967 0 0 0 -0.84,0.367 c -0.169,0.088 -0.345,0.178 -0.523,0.253 v 0 l -0.017,0.01 0.015,0.083 0.04,-0.024 c 0.18,-0.076 0.356,-0.166 0.526,-0.253 0.133,-0.068 0.268,-0.138 0.4,-0.2 l -0.349,0.219 c 0.1,-0.053 0.209,-0.106 0.316,-0.155 -0.161,0.1 -0.32,0.2 -0.476,0.3 l -0.431,0.269 0.01,0.044 c 0.167,-0.1 0.333,-0.207 0.5,-0.31 0.281,-0.177 0.572,-0.361 0.864,-0.53 l 0.083,-0.048 a 0.326,0.326 0 0 0 0.113,0 0.17,0.17 0 0 0 0.026,0 h 0.015 0.009 L 12.971,11.802 13,11.818 a 0.386,0.386 0 0 0 0.1,-0.033 l 0.013,-0.006 a 0.055,0.055 0 0 0 0.024,-0.013 c 0.18,-0.04 0.357,-0.1 0.528,-0.152 a 3.591,3.591 0 0 1 0.867,-0.2 h 0.006 a 4.372,4.372 0 0 1 0.58,0.023 v -0.011 0 l 0.011,-0.029 h 0.007 l 0.015,-0.034 A 4.414,4.414 0 0 0 14.53,11.335 h -0.005 a 3.643,3.643 0 0 0 -0.89,0.207 c -0.172,0.055 -0.351,0.113 -0.53,0.152 h -0.011 l -0.009,0.008 v 0 l -0.02,0.008 a 0.344,0.344 0 0 1 -0.083,0.029 v 0 l -0.027,0.005 h -0.029 -0.011 l 0.067,-0.039 -0.156,0.047 H 12.81 c 0,-0.01 0,-0.021 0,-0.027 0,-0.006 0.019,-0.011 0.028,-0.017 l 0.019,-0.01 0.019,-0.007 0.02,-0.008 h 0.005 L 12.949,11.657 13,11.638 v 0 h 0.01 a 0.105,0.105 0 0 0 0.04,-0.015 l 0.019,-0.015 a 0.046,0.046 0 0 1 0.018,-0.012 l 0.065,-0.017 a 0.357,0.357 0 0 0 0.084,-0.024 h 0.007 l 0.006,-0.005 a 0.088,0.088 0 0 1 0.029,-0.013 0.379,0.379 0 0 0 0.049,-0.021 0.284,0.284 0 0 1 0.036,-0.017 h 0.018 a 0.156,0.156 0 0 0 0.048,-0.015 l 0.118,-0.03 a 0.14,0.14 0 0 0 0.044,-0.007 0.924,0.924 0 0 0 0.13,-0.054 c 0.022,-0.01 0.044,-0.021 0.067,-0.03 l 0.043,-0.016 0.048,-0.019 h 0.01 a 0.329,0.329 0 0 0 0.153,-0.025 0.171,0.171 0 0 1 0.04,0 h 0.032 a 0.151,0.151 0 0 0 0.034,-0.013 h 0.005 a 0.145,0.145 0 0 1 0.045,-0.005 h 0.029 0.006 0.013 l 0.019,-0.006 a 0.178,0.178 0 0 1 0.04,0 h 0.082 0.006 l 0.026,-0.008 0.029,-0.008 a 0.2,0.2 0 0 1 0.072,-0.009 0.353,0.353 0 0 0 0.174,-0.037 1.865,1.865 0 0 0 0.234,-0.116 c 0.04,-0.02 0.086,-0.052 0.078,-0.093 0,-0.014 -0.014,-0.038 -0.058,-0.042 a 0.448,0.448 0 0 1 -0.057,-0.012 0.4,0.4 0 0 0 -0.1,-0.016 h -0.055 a 0.545,0.545 0 0 0 -0.128,0 h -0.013 a 0.792,0.792 0 0 0 -0.11,0.021 l -0.09,0.015 h -0.051 a 0.215,0.215 0 0 0 -0.067,0.013 0.15,0.15 0 0 1 -0.044,0.009 h -0.088 -0.01 l -0.031,0.008 -0.032,0.009 H 14.053 14.029 14 a 0.167,0.167 0 0 0 -0.068,0.02 0.27,0.27 0 0 1 -0.036,0.013 H 13.878 13.79 a 0.1,0.1 0 0 0 0.02,-0.036 v -0.012 -0.007 c 0,-0.022 0,-0.058 -0.023,-0.075 a 0.145,0.145 0 0 0 0.084,-0.055 0.055,0.055 0 0 0 0,-0.055 0.053,0.053 0 0 0 -0.047,-0.024 0.1,0.1 0 0 0 -0.031,0.008 h -0.007 l -0.053,0.017 a 1.39,1.39 0 0 0 -0.138,0.042 l -0.075,0.025 -0.072,0.024 c -0.047,0.015 -0.095,0.031 -0.139,0.041 a 1.069,1.069 0 0 1 -0.21,0.011 h -0.39 a 0.431,0.431 0 0 1 -0.127,-0.007 v -0.01 a 0.7,0.7 0 0 1 0.154,-0.1 V 10.9 a 0.064,0.064 0 0 0 0.05,-0.017 l -0.048,-0.047 a 3.271,3.271 0 0 1 0.676,-0.239 l -0.007,0.009 -0.044,0.059 h 0.074 0.038 l -0.11,0.037 h 0.244 a 0.1,0.1 0 0 0 0.026,0 h 0.007 0.014 0.02 l 0.059,-0.02 v 0.011 H 13.9 a 0.348,0.348 0 0 0 0.079,0 h 0.019 a 0.05,0.05 0 0 0 0.028,-0.016 h 0.007 a 0.2,0.2 0 0 0 0.037,-0.008 l 0.05,-0.016 0.053,-0.017 0.316,-0.105 -0.332,0.029 -0.081,0.008 c 0.2,-0.039 0.389,-0.062 0.548,-0.079 l 0.221,-0.023 -0.216,-0.054 A 0.263,0.263 0 0 0 14.559,10.4 h 0.019 a 0.218,0.218 0 0 0 0.07,-0.026 0.224,0.224 0 0 0 0.044,-0.029 l 0.011,-0.008 a 0.051,0.051 0 0 0 0.033,-0.048 0.047,0.047 0 0 0 -0.014,-0.033 0.075,0.075 0 0 0 -0.058,-0.012 H 14.6 a 0.043,0.043 0 0 0 -0.015,-0.028 c -0.02,-0.02 -0.056,-0.023 -0.107,-0.021 v 0 a 0.5,0.5 0 0 0 -0.1,-0.006 l 0.1,-0.1 -0.217,0.108 -0.016,0.007 h -0.029 a 0.186,0.186 0 0 1 -0.026,0 h -0.006 l -0.222,0.034 c -0.143,0.005 -0.295,0.037 -0.47,0.079 z m -0.744,0.513 -0.006,-0.005 h 0.006 z m -1.801,0.738 h -0.008 l 0.033,0.046 A 0.047,0.047 0 0 0 10.959,11.58 Z m 0.843,0.776 0.127,-0.079 -0.089,0.045 c -0.17,0.088 -0.346,0.178 -0.526,0.254 l -0.041,0.024 c 0.007,0.039 0.015,0.077 0.023,0.115 l 0.042,-0.026 -0.008,-0.037 z m -2.34,1.13 -0.42,0.077 c 0.022,0.066 0.039,0.215 0.155,0.26 0.055,-0.1 0.121,-0.117 0.16,-0.166 A 0.451,0.451 0 0 1 9.45,13.474 Z m 3.265,-2.59 -0.006,0.004 0.006,0.006 z M 19.713,9.27 V 8.69 h -0.199 -2.988 -0.199 v 0.58 h 0.199 1.105 v 3.325 0.249 H 18.41 V 12.595 9.27 h 1.104 z m -3.803,5.065 a 5.042,5.042 0 0 1 -0.632,0.7 l 0.054,-0.039 A 3.89,3.89 0 0 0 15.91,14.335 Z M 11.77,8.162 A 5.316,5.316 0 0 0 9.89,8.733 8.316,8.316 0 0 1 11.51,8.241 h 0.008 A 1.25,1.25 0 0 0 11.77,8.162 Z"/>

</svg>