<svg xmlns="http://www.w3.org/2000/svg" viewBox="0 0 24 24"><path fill="#44739e" d="M12 7.973a4.027 4.027 0 1 0 0 8.054 4.027 4.027 0 1 0 0-8.054M12 2a10 10 0 1 0 10 10A10.013 10.013 0 0 0 12 2m6.818 14.719a65 65 0 0 1-6.818.274 65 65 0 0 1-6.818-.274c-.627-.066-.964-.221-1.032-.9C4.026 14.58 4.018 13.3 4.018 12s.008-2.58.132-3.822c.068-.676.4-.831 1.032-.9A65 65 0 0 1 12 7.007a65 65 0 0 1 6.818.274c.627.066.964.221 1.032.9.124 1.242.132 2.524.132 3.822s-.008 2.58-.132 3.822c-.068.675-.405.828-1.032.894"/></svg>