<svg xmlns="http://www.w3.org/2000/svg" viewBox="0 0 24 24"><path fill="#44739e" d="m13.228 4.005-4.212 7.861a.24.24 0 0 0 0 .263q1.27 2.364 2.535 4.73a.25.25 0 0 1 0 .278c-.233.42-.456.844-.692 1.286-.031-.054-2.276-4.244-3.379-6.301a.22.22 0 0 1 0-.24l5.222-9.757a.2.2 0 0 1 .199-.124c.436.006.861 0 1.292 0a.15.15 0 0 1 .159.096q2.62 4.905 5.244 9.806a.17.17 0 0 1 0 .189q-2.624 4.897-5.246 9.805c-.023.041-.075.093-.109.094-.48.007-.961 0-1.464 0 .033-.064 3.542-6.637 5.275-9.866a.24.24 0 0 0 0-.263c-1.494-2.758-4.493-8.362-4.528-8.414-.007.01-.117.218-.301.557m-1.984-2.002c-.26.486-3.768 7.048-5.278 9.868a.24.24 0 0 0 0 .263c1.481 2.762 4.48 8.366 4.511 8.418.031-.052 3.031-5.658 4.512-8.418a.24.24 0 0 0 0-.263q-1.27-2.364-2.535-4.73a.25.25 0 0 1 0-.278c.233-.419.456-.844.692-1.285.032.057 2.278 4.244 3.379 6.3a.22.22 0 0 1 0 .239l-5.222 9.758a.19.19 0 0 1-.199.124c-.43-.007-.861 0-1.292 0a.15.15 0 0 1-.159-.095q-2.62-4.906-5.244-9.807a.17.17 0 0 1 0-.19q2.632-4.902 5.254-9.808c.023-.041.074-.094.109-.095.484-.003.964-.001 1.472-.001"/></svg>