<?xml version="1.0" encoding="UTF-8"?>
<svg width="24px" fill="#44739e" height="24px" viewBox="0 0 24 24" version="1.1" xmlns="http://www.w3.org/2000/svg" xmlns:xlink="http://www.w3.org/1999/xlink">
            <path d="M 19.105,11.841 Q 16.695,7.335 14.287,2.829 A 0.29,0.29 0 0 0 14.01,2.661 v 0 c -0.394,0 -0.787,0 -1.182,0 H 12.82 a 0.325,0.325 0 0 0 -0.31,0.193 q -2.4,4.485 -4.8,8.967 a 0.353,0.353 0 0 0 0,0.363 L 9.223,15 c 1.073,2 1.58,2.948 1.6,2.978 l 0.136,0.229 0.3,-0.57 c 0.153,-0.286 0.3,-0.567 0.456,-0.844 a 0.378,0.378 0 0 0 0,-0.4 Q 11.131,15.307 10.55,14.22 9.969,13.133 9.387,12.048 c -0.022,-0.041 -0.024,-0.052 0,-0.1 l 1.726,-3.223 c 0.862,-1.608 1.718,-3.209 2.144,-4 L 13.4,4.458 c 0.418,0.779 1.761,3.285 2.874,5.363 l 1.141,2.129 c 0.025,0.049 0.023,0.06 0,0.1 -1.608,3 -4.814,9 -4.85,9.07 l -0.115,0.22 h 0.8 c 0.269,0 0.533,0 0.8,0 a 0.3,0.3 0 0 0 0.235,-0.165 l 4.824,-9.013 a 0.307,0.307 0 0 0 -0.004,-0.321 z m -5.1,9.193 c -0.34,0 -0.682,0 -1.029,0 h -0.027 c 0.595,-1.115 3.305,-6.187 4.732,-8.849 a 0.373,0.373 0 0 0 0,-0.383 L 16.541,9.673 C 14.741,6.306 13.553,4.096 13.531,4.06 L 13.4,3.839 13.273,4.067 c 0,0.009 -0.107,0.2 -0.276,0.515 -0.426,0.793 -1.283,2.393 -2.144,4 l -1.728,3.224 a 0.371,0.371 0 0 0 0,0.384 q 0.584,1.086 1.165,2.173 0.581,1.087 1.165,2.174 c 0.028,0.053 0.026,0.067 0,0.111 -0.155,0.279 -0.3,0.561 -0.458,0.848 l -0.048,0.089 C 10.694,17.111 10.104,16.01 9.487,14.859 l -1.51,-2.818 c -0.022,-0.04 -0.02,-0.045 0,-0.079 q 2.4,-4.48 4.8,-8.967 c 0.014,-0.028 0.021,-0.034 0.048,-0.036 0.4,0.007 0.793,0 1.2,0.011 1.605,3 3.212,6.009 4.822,9.045 z M 16.287,11.817 15.254,9.889 C 14.015,7.578 13.2,6.06 13.18,6.022 L 13.045,5.79 12.735,6.369 c -0.151,0.284 -0.3,0.562 -0.453,0.838 a 0.382,0.382 0 0 0 0,0.4 q 0.572,1.063 1.141,2.128 0.593,1.11 1.189,2.22 c 0.022,0.04 0.024,0.05 0,0.1 l -1.5,2.8 c -1.013,1.891 -2.138,3.993 -2.513,4.69 C 10.22,18.839 9.08,16.71 8.053,14.794 l -1.47,-2.742 c -0.026,-0.048 -0.024,-0.06 0,-0.1 1.045,-1.95 3.128,-5.847 4.2,-7.847 l 0.772,-1.442 h -0.529 c -0.366,0 -0.719,0 -1.072,0 A 0.3,0.3 0 0 0 9.72,2.829 l -4.828,9.015 a 0.309,0.309 0 0 0 0,0.315 q 2.412,4.5 4.819,9.013 a 0.277,0.277 0 0 0 0.281,0.168 c 0.393,0 0.787,-0.008 1.182,0 h 0.01 a 0.322,0.322 0 0 0 0.308,-0.2 q 2.4,-4.486 4.8,-8.967 a 0.351,0.351 0 0 0 -0.005,-0.356 z m -5.058,9.189 c -0.014,0.027 -0.021,0.033 -0.047,0.034 -0.4,-0.007 -0.794,0 -1.2,-0.009 -1.605,-3 -3.211,-6.01 -4.821,-9.046 L 9.99,2.966 c 0.34,0 0.682,0 1.03,0 h 0.029 l -0.535,1 c -1.07,2 -3.154,5.9 -4.2,7.847 a 0.375,0.375 0 0 0 0,0.384 l 1.468,2.741 c 1.655,3.089 2.661,4.967 2.681,5 l 0.128,0.216 0.13,-0.215 c 0.019,-0.032 0.8,-1.483 2.649,-4.942 l 1.5,-2.8 a 0.37,0.37 0 0 0 0,-0.385 Q 14.27,10.703 13.681,9.594 13.112,8.529 12.54,7.465 c -0.028,-0.053 -0.026,-0.068 0,-0.111 0.154,-0.277 0.3,-0.557 0.455,-0.843 l 0.051,-0.094 c 0.32,0.6 1.171,2.183 1.938,3.616 l 1.034,1.928 c 0.023,0.041 0.02,0.047 0,0.078 q -2.393,4.48 -4.789,8.967 z"/>

</svg>