<?xml version="1.0" encoding="UTF-8"?>
<svg width="24px" fill="#44739e" height="24px" viewBox="0 0 24 24" version="1.1" xmlns="http://www.w3.org/2000/svg" xmlns:xlink="http://www.w3.org/1999/xlink">
            <path d="m 9.409,17.22 c 0.544,0.037 0.814,-0.432 0.6,-1.017 A 1.525,1.525 0 0 0 8.775,15.2 c -0.478,-0.014 -0.747,0.386 -0.6,0.919 A 1.544,1.544 0 0 0 9.409,17.22 Z M 6.864,15.979 a 3.8,3.8 0 0 0 3.065,2.7 c 1.348,0.09 2.019,-1.056 1.5,-2.486 a 3.766,3.766 0 0 0 -3.07,-2.46 C 7.176,13.7 6.508,14.678 6.864,15.979 Z m 1.6,-1.638 a 2.922,2.922 0 0 1 2.4,1.856 c 0.406,1.08 -0.117,1.944 -1.169,1.876 A 2.935,2.935 0 0 1 7.3,16.035 c -0.281,-0.981 0.24,-1.72 1.163,-1.694 z m 1.941,-0.993 m 4.376,4.944 0.284,-0.199 0.751,-0.567 0.369,-0.312 0.368,-0.425 0.326,-0.581 0.17,-0.327 0.128,-0.354 0.184,-1.134 0.114,-0.425 0.071,-0.142 0.042,-0.333 -1.614,-0.078 0.012,0.69 0.014,0.444 0.163,0.168 0.064,0.725 -0.064,0.61 -0.205,0.765 -0.27,0.525 -0.453,0.397 z M 4.332,12.748 4.644,13.301 c 0.094,-0.015 0.191,-0.03 0.291,-0.044 0.3,3.563 2.534,7.114 7.157,7.01 a 6.68,6.68 0 0 0 6.879,-7.054 c 0.161,0.019 0.319,0.039 0.475,0.06 l 0.227,-0.539 C 17.985,12.011 6.147,12.025 4.332,12.748 Z m 14.319,0.429 a 6.672,6.672 0 0 1 -6.495,6.854 c -2.4,0.1 -6.322,-1.02 -6.824,-6.828 0.547,-0.069 1.156,-0.129 1.81,-0.179 a 1.2,1.2 0 0 0 -0.725,0.493 l -0.552,0.025 v 0 c 0.149,3.029 1.23,4.81 3.51,5.6 a 5.71,5.71 0 0 0 2.884,0.271 c 2.377,-0.225 3.185,-2.679 3.346,-3.346 A 1.454,1.454 0 0 0 15.52,14.975 c -0.078,-0.119 -0.129,-0.131 -0.213,-0.241 -0.336,-0.44 0.163,-1.024 0.128,-1.24 -0.084,0 -0.538,-0.1 -5.028,-0.145 -0.052,0 -1.245,-0.36 -1.738,-0.416 a 69.178,69.178 0 0 1 9.982,0.244 z M 8.224,13.242 A 4.6,4.6 0 0 1 12,16.135 c 0.639,1.681 -0.186,3.029 -1.846,2.923 A 4.1,4.1 0 0 1 8.714,18.577 3.711,3.711 0 0 1 8.131,18.202 4.554,4.554 0 0 1 6.446,15.562 C 6.176,14.167 6.854,13.2 8.224,13.242 Z M 2.014,5.143 A 23.28,23.28 0 0 0 2.12,8.388 c 0.3,1.844 0.547,3.947 1.461,3.793 3.785,-0.638 12.405,-0.865 16.843,0.1 C 21.835,12.587 22,5.012 22,5.012 19.246,3.22 4.614,3.349 2.014,5.143 Z"></path>

</svg>
