<svg xmlns="http://www.w3.org/2000/svg" viewBox="0 0 24 24"><path fill="#44739e" d="m6.834 14.474-.4-1.087a1.4 1.4 0 0 0-.8-.833l-.313-.089h-.015l-1.409-.249a.383.383 0 0 0-.4.507l.993 2.842a1.41 1.41 0 0 0 1 .905l1.467.359a.547.547 0 0 0 .646-.714l-.6-1.7Zm-.413 1.11a.48.48 0 0 1-.356.169h-.074c-.5-.038-1.148-.668-1.5-1.465a1.44 1.44 0 0 1-.1-1.311.46.46 0 0 1 .354-.2c.5-.042 1.188.578 1.579 1.414.273.597.314 1.131.097 1.393m-1.644-2.572h-.012a.19.19 0 0 0-.148.087 1.29 1.29 0 0 0 .121 1.1c.337.756.933 1.291 1.278 1.317a.2.2 0 0 0 .189-.07c.13-.157.139-.577-.133-1.162-.361-.775-.967-1.284-1.295-1.272m.859 1.837c-.185-.023-.43-.3-.552-.61s-.085-.555.083-.563.436.254.574.59.091.606-.105.583m7.99-5.462A1.92 1.92 0 0 0 12.05 8l-2.964-.128-6.074 3.341 2.371.33a2.37 2.37 0 0 1 1.915 1.58l1.289 3.766a.53.53 0 0 1 0 .3c-.057.093-.2.176-.188.2a31 31 0 0 1-3.775-.921 3.3 3.3 0 0 1-.585-1.328l-.676-2.04a2.9 2.9 0 0 1-.205-.909.6.6 0 0 1 .075-.311l.024-.036c.763.087 1.832.314 2.238.381 1.017.168 1.472 2.036 1.472 2.036.328-.127.242-.138.286-.187l-.401-1.1a2.4 2.4 0 0 0-1.279-1.186s-1.564-.283-3.152-.454a.475.475 0 0 0-.412.563l.4 1.489h.185l.432-.16c.232.713.9 2.43 1.2 3.215a.86.86 0 0 0 .579.519 15 15 0 0 0 3.624.681s.18-.056.2-.18a.4.4 0 0 0 .114-.075l.332-.192 4.972-2.911a1.2 1.2 0 0 0 .461-1.469Zm2.473-1.28a2.07 2.07 0 0 0-1.965-1.556l-1.857-.036a2.1 2.1 0 0 0-.979.219l-1.634.835c-.017.009.052.044.072.044l2.274.057a2.245 2.245 0 0 1 2.017 1.677L14.891 13a1.04 1.04 0 0 1-.142.736c0 .007.914-.586.921-.58l1.061-.746a.68.68 0 0 0 .285-.735Zm2.915 2.366c-.038 0 .173.548.515.457a1.31 1.31 0 0 0 .913-1.154 1.76 1.76 0 0 0-.888-1.932s-.34-.111-.631.368l-2.324.231h-.061a17 17 0 0 1 .523 2.24v.018l1.7-.2Zm.724-4.131a2.03 2.03 0 0 0-1.553.549 2.95 2.95 0 0 0-.8 1.275l1.425-.072c.071-.136.186-.408.379-.475a.825.825 0 0 1 1.053.386 2 2 0 0 1 .217.334 2.47 2.47 0 0 1-.1 2.428.96.96 0 0 1-.679.474.7.7 0 0 1-.344-.061 1 1 0 0 1-.235-.12.8.8 0 0 1-.273-.3l-.02-.038-1.328.158a3 3 0 0 0 .718 1.059 2.1 2.1 0 0 0 1.425.585q.084.002.17-.007c1.286-.115 2.255-1.507 2.201-3.17a2.88 2.88 0 0 0-2.256-3.005m-3.387 1.996c-.027-.062 0 .026 0 .025Z"/></svg>