<svg xmlns="http://www.w3.org/2000/svg" viewBox="0 0 24 24"><path fill="#44739e" d="M12.002 2c-1.79-.012-3.579 1.492-3.579 3.884v12.363c0 5.019 7.154 4.94 7.154.147V5.616c0-2.184-1.787-3.604-3.575-3.616m.03.928a2.627 2.627 0 0 1 2.62 2.637 2.627 2.627 0 0 1-2.62 2.634 2.627 2.627 0 0 1-2.62-2.634 2.627 2.627 0 0 1 2.619-2.637m0 .196a2.41 2.41 0 0 0-2.038 1.121 2.6 2.6 0 0 0-.285.632 2.46 2.46 0 0 0 .737 2.533q.131.114.277.207.145.094.303.169.158.071.323.119a2.4 2.4 0 0 0 .684.101q.173 0 .345-.025t.337-.076q.168-.048.327-.119.156-.075.302-.169a3 3 0 0 0 .277-.207 2.4 2.4 0 0 0 .619-.833 2.5 2.5 0 0 0 .217-1.012v-.09l-.003-.004v-.027a2.6 2.6 0 0 0-.101-.588l-.037-.114a3 3 0 0 0-.09-.222 3 3 0 0 0-.177-.311 2.4 2.4 0 0 0-.476-.531l-.095-.073a3 3 0 0 0-.197-.134 3 3 0 0 0-.212-.114 3 3 0 0 0-.217-.09 2.4 2.4 0 0 0-.82-.144Zm0 1.301.057.002.054.003.054.009a1 1 0 0 1 .111.021 1 1 0 0 1 .107.032 1.1 1.1 0 0 1 .335.191l.043.036q.019.019.038.041a1 1 0 0 1 .077.081 1.2 1.2 0 0 1 .222.446q.008.027.012.055l.01.054.006.057.005.055v.125l-.002.009v.026l-.003.009v.016l-.002.009v.019l-.004.008a1.1 1.1 0 0 1-.089.309 1 1 0 0 1-.079.142 1.1 1.1 0 0 1-.21.248q-.062.051-.13.095a1 1 0 0 1-.139.079 1 1 0 0 1-.156.057q-.076.023-.154.035a1.1 1.1 0 0 1-.482-.035 1 1 0 0 1-.153-.057 1 1 0 0 1-.138-.079 1 1 0 0 1-.131-.095 1.1 1.1 0 0 1-.209-.248 1.1 1.1 0 0 1-.137-.294 1.1 1.1 0 0 1-.042-.321 1.1 1.1 0 0 1 .1-.473q.034-.074.079-.142a1.1 1.1 0 0 1 .34-.346 1.1 1.1 0 0 1 .61-.179m0 .427a.7.7 0 0 0-.199.027.7.7 0 0 0-.182.085.7.7 0 0 0-.153.133.7.7 0 0 0-.111.171 1 1 0 0 0-.033.096.73.73 0 0 0 .082.587.7.7 0 0 0 .133.153.7.7 0 0 0 .264.147.705.705 0 0 0 .797-.299 1 1 0 0 0 .049-.091 1 1 0 0 0 .033-.094 1 1 0 0 0 .022-.101l.002-.004v-.021l.003-.002v-.03l.003-.003v-.077a.6.6 0 0 0-.022-.138.6.6 0 0 0-.117-.25 1 1 0 0 0-.096-.105l-.051-.046-.06-.037a1 1 0 0 0-.093-.046l-.065-.026a1 1 0 0 0-.1-.021l-.071-.009Zm2.117.585h.019q.039 0 .073.025.017.012.03.03a.126.126 0 1 1-.229.071c0-.063.045-.117.107-.126m-4.253.005h.016a.11.11 0 0 1 .087.041q.006.006.01.014.017.028.017.06a.114.114 0 0 1-.229 0c0-.058.041-.106.098-.115m2.135 3.271.038.003.025.006.025.005.032.017.014.005.009.009.01.005.011.008.009.008.01.009.008.01.009.008.008.011.005.011.008.011.011.021.005.011.003.011.009.025.005.024.003.014v.049h-.003v.011l-.009.035-.01.035-.019.033a.3.3 0 0 1-.046.055l-.03.022-.033.019-.033.011a.3.3 0 0 1-.108.008l-.036-.008-.032-.011-.033-.019a.3.3 0 0 1-.055-.047l-.021-.03-.02-.033-.011-.035a.3.3 0 0 1-.01-.07.3.3 0 0 1 .01-.074l.011-.032.02-.034a.3.3 0 0 1 .046-.054l.03-.022.033-.019.032-.011a.3.3 0 0 1 .071-.011Zm.226 2.695c.041 0 .079.024.09.062.005.08.003.179.003.257v1.069h-.185v-1.07c0-.077 0-.165.003-.251a.094.094 0 0 1 .089-.068m.335.035c.107-.004.14.163.025.191-.119.028-.164-.159-.046-.188Zm1.356.009a.094.094 0 0 1 .094.081c.009.066 0 .135 0 .201v.4c.163-.099.281-.272.445-.37.077-.047.175.036.128.12-.024.042-.074.073-.11.103l-.226.197-.081.068c-.01.008-.028.022-.025.038.004.017.028.032.041.043l.109.098.256.228c.048.044.102.086.144.137h-.183c-.027 0-.06.005-.087-.006-.046-.019-.088-.073-.124-.106-.094-.084-.187-.176-.287-.253v.365h-.184V11.6c0-.037-.007-.083.019-.114a.09.09 0 0 1 .071-.035m-4.17.296c.047-.002.094.015.107.068.026.111-.096.11-.163.141a.34.34 0 0 0-.158.153c-.043.083-.036.18-.036.269v.417h-.188v-.406c0-.155.001-.3.095-.433a.5.5 0 0 1 .299-.2q.023-.008.044-.009m.651.027a.5.5 0 0 1 .321.103c.165.127.204.306.204.501h-.544c-.062 0-.158.019-.205-.03-.048-.051-.024-.141.047-.154.052-.011.113-.004.166-.004h.329a.26.26 0 0 0-.059-.111c-.19-.226-.592-.089-.573.218a.33.33 0 0 0 .153.261.32.32 0 0 0 .367-.022c.027-.022.053-.062.085-.077.051-.022.145-.005.202-.005a.4.4 0 0 1-.096.167c-.265.302-.788.185-.884-.21a.52.52 0 0 1 .487-.637m2.169 0c.118.001.092.154.092.234v.785h-.19v-.785c0-.082-.025-.236.097-.234m.642.002a.42.42 0 0 1 .403.204c.066.111.06.227.06.351v.463h-.186v-.449c0-.082.011-.173-.027-.248a.245.245 0 0 0-.438 0c-.037.075-.024.162-.024.243v.454h-.188v-.458c0-.1-.009-.201.03-.296a.44.44 0 0 1 .37-.264m-1.698.003a.507.507 0 0 1 .525.498.5.5 0 0 1-.025.169.51.51 0 0 1-.364.329c-.077.018-.16.011-.24.011h-.38c0-.189-.021-.393.005-.58a.5.5 0 0 1 .217-.343.5.5 0 0 1 .262-.084m.025.166q-.029-.001-.06.003a.3.3 0 0 0-.117.042.34.34 0 0 0-.161.24c-.018.127-.006.263-.006.39.133 0 .291.022.42-.009a.34.34 0 0 0 .16-.089c.214-.214.046-.575-.236-.577m-.003.103a.233.233 0 0 1 .237.199.25.25 0 0 1-.066.205.23.23 0 0 1-.109.062c-.094.022-.202.005-.299.005 0-.09-.013-.186 0-.275.019-.132.129-.197.237-.196m.468 4.082a2.2 2.2 0 0 1 .672.104 3 3 0 0 1 .215.073 3 3 0 0 1 .205.101q.051.027.102.057a3 3 0 0 1 .278.199q.045.034.087.07.041.04.079.082a3 3 0 0 1 .155.169 3 3 0 0 1 .136.185 3 3 0 0 1 .169.297 3 3 0 0 1 .087.214 3 3 0 0 1 .09.33l.022.111a3 3 0 0 1 .021.231v.091l.003.003v.032a2.4 2.4 0 0 1-.095.659 2.4 2.4 0 0 1-.273.604q-.089.139-.198.264-.108.128-.234.239-.127.107-.266.197t-.289.162a3 3 0 0 1-.313.115 2.3 2.3 0 0 1-1.616-.114 3 3 0 0 1-.289-.163 3 3 0 0 1-.267-.197 3 3 0 0 1-.234-.239 3 3 0 0 1-.199-.265 2.3 2.3 0 0 1-.272-.603 2.35 2.35 0 0 1 1.261-2.785 2.3 2.3 0 0 1 .963-.212Zm0 .385v.01a1.9 1.9 0 0 0-.545.079 2 2 0 0 0-.256.098 2 2 0 0 0-.461.297q-.105.092-.194.198-.091.104-.166.22a1.96 1.96 0 0 0-.305 1.051q0 .139.019.278a2 2 0 0 0 .155.527q.057.128.131.245t.166.221a2 2 0 0 0 .413.362 1.9 1.9 0 0 0 .771.289 1.9 1.9 0 0 0 .816-.06 2 2 0 0 0 .501-.229 1.93 1.93 0 0 0 .865-1.355q.019-.139.019-.278v-.077l-.003-.002v-.028a2 2 0 0 0-.016-.19l-.019-.093-.019-.095q-.012-.045-.027-.09a2 2 0 0 0-.191-.435l-.051-.079a2 2 0 0 0-.379-.425l-.076-.057-.076-.057a2 2 0 0 0-.248-.138l-.087-.041a2 2 0 0 0-.177-.063l-.092-.027a2 2 0 0 0-.185-.036l-.092-.014-.096-.005Z"/></svg>