<?xml version="1.0" encoding="UTF-8"?>
<svg width="24px" fill="#44739e" height="24px" viewBox="0 0 24 24" version="1.1" xmlns="http://www.w3.org/2000/svg" xmlns:xlink="http://www.w3.org/1999/xlink">
            <path d="M 8.561,16.759 C 8.2359769,16.480873 7.8273422,16.31932 7.4,16.3 H 7.388 c -0.139,0 -0.239,0.041 -0.261,0.1 -0.022,0.059 0.027,0.15 0.125,0.247 0.3206511,0.27893 0.7255611,0.442303 1.15,0.464 0.188,0 0.275,-0.048 0.294,-0.1 C 8.715,16.959 8.688,16.876 8.561,16.754 Z M 6.778,15.711 H 6.751 c -0.329,0.008 -0.552,0.1 -0.612,0.246 -0.06,0.146 0.045,0.4 0.288,0.647 C 7.1328893,17.254692 8.0417227,17.641821 9,17.7 9.364,17.7 9.621,17.613 9.687,17.456 9.753,17.299 9.637,17.047 9.376,16.785 8.6625602,16.1337 7.7430775,15.75359 6.778,15.711 Z m 2.083,1.371 c -0.031,0.076 -0.129,0.2 -0.437,0.207 H 8.4 C 7.9294973,17.266868 7.4805418,17.085241 7.127,16.774 6.915,16.565 6.927,16.41 6.961,16.335 6.995,16.26 7.084,16.135 7.382,16.127 H 7.4 c 0.4726102,0.01627 0.9256841,0.192564 1.285,0.5 v 0 c 0.224,0.219 0.206,0.379 0.176,0.455 z M 12.1,16.773 C 10.83247,15.532388 9.1031622,14.879545 7.332,14.973 L 5.1,15.092 c -0.7758587,0.02753 -1.1436422,0.968735 -0.592,1.515 l 2.1,2.065 c 1.3346075,1.307734 3.1443084,2.015438 5.012,1.96 l 1.827,-0.052 c 0.924526,-0.0095 1.377919,-1.1304 0.72,-1.78 z m -2.147,0.8 C 9.839,17.842 9.518,17.992 9.045,17.998 H 8.993 C 7.9561749,17.938634 6.9729039,17.51794 6.214,16.809 5.877,16.461 5.753,16.119 5.865,15.844 c 0.112,-0.275 0.42,-0.418 0.878,-0.43 1.0550513,0.03753 2.0620927,0.450276 2.84,1.164 v 0 c 0.359,0.363 0.492,0.716 0.374,0.997 z m 5.188,0.439 C 14.61271,17.631015 14.141318,17.176795 13.741,16.663 13.583704,16.458126 13.450808,16.235627 13.345,16 13.165,15.653 13.051,15.387 13.03,15.338 12.506846,14.384624 11.675458,13.637151 10.672,13.218 10.25343,13.038221 9.8129581,12.914485 9.362,12.85 9.0422296,12.779231 8.712405,12.766024 8.388,12.811 8.1326805,12.860096 7.8844471,12.940713 7.649,13.051 7.573,13.084 7.334,13.196 6.86,13.42 6.7043719,13.508723 6.5281394,13.554936 6.349,13.554 6.2434823,13.544455 6.1398145,13.52022 6.041,13.482 5.8089875,13.396606 5.5676148,13.3392 5.322,13.311 c -0.3878974,-0.0123 -0.7644588,0.131835 -1.045,0.4 -0.3447156,0.257953 -0.585037,0.631392 -0.677,1.052 -0.1155833,0.362303 -0.1670223,0.742004 -0.152,1.122 0.019,0.5 0.182,0.613 0.551,1.069 1.0853809,1.225361 2.2516607,2.376608 3.491,3.446 0.661495,0.405683 1.3903546,0.689505 2.152,0.838 0.328,0.056 4.83,-0.019 5.03,-0.091 0.411,-0.148 0.573,-0.658 0.675,-0.812 0.123021,-0.194141 0.199037,-0.414313 0.222,-0.643 0.067,-0.579 -0.094,-1.465 -0.428,-1.68 z m -1.248,2.865 -2.026,0.057 C 9.5885187,21.107978 7.3612278,20.198312 5.856,18.479 l -1.981,-2.13 c -0.2801407,-0.650147 0.08633,-1.396855 0.772,-1.573 l 2.476,-0.13 c 3.054,-0.114 3.881,0.493 5.277,1.9 l 2.29,2.307 c 0.728521,0.733987 0.236375,1.983803 -0.797,2.024 z m 3.278,-4.053 c -0.290694,-0.437159 -0.480605,-0.933455 -0.556,-1.453 -0.15,-0.552 -0.35,-1.218 -0.854,-2.7 -0.2402,-0.728412 -0.5765,-1.421525 -1,-2.061 C 14.138828,9.6850471 13.346415,8.8868651 12.426,8.258 11.784552,7.8752735 11.101881,7.5663106 10.391,7.337 9.7241369,7.1126477 9.0357785,6.9581525 8.337,6.876 7.254,6.771 6.967,6.758 6.445,7.131 c -0.594,0.425 -2.206,3.2 -2.146,6.352 0,0.077 0.284,-0.349 0.557,-0.468 0.2026915,-0.08075 0.4222482,-0.109953 0.639,-0.085 0.613,0.035 0.7,0.3 1.053,0.217 0.245,-0.055 0.228,-0.19 0.61,-0.366 0.5422386,-0.253353 1.1209958,-0.419724 1.715,-0.493 1.0477113,0.01547 2.069956,0.325264 2.95,0.894 0.296668,0.181351 0.574099,0.39244 0.828,0.63 0.307946,0.269089 0.571222,0.585359 0.78,0.937 0.328,0.579 0.265,0.9 0.684,1.425 0.09329,0.119027 0.197405,0.229163 0.311,0.329 0.228823,0.182777 0.480639,0.334741 0.749,0.452 0.345,0.191 0.894,0.494 0.933,0.91 0.025,0.265 -0.175,0.39 -0.218,0.975 -0.017,0.237 0.012,0.269 0.029,0.282 0.132,0.1 0.572,-0.316 1.445,-1.145 0.209,-0.2 0.284,-0.229 0.225,-0.413 -0.07919,-0.27611 -0.222403,-0.529644 -0.418,-0.74 z M 2.029,2.114 2.1354742,3.9594914 C 4.28211,3.1793024 14.668041,2.289 22.016474,3.7404914 c -0.02182,-0.5424971 0.017,-1.6 0.017,-1.6 M 21.956,4.5 C 16.463,3.469 5.916,3.732 2.088,4.7 L 2.216,6.67 C 2.472,6.748 1.991,6.141 2.766,5.65 3.908412,5.1447576 5.1428643,4.880913 6.392,4.875 c 2.0587118,-0.048773 4.109491,0.2719678 6.055,0.947 0.789532,0.2891244 1.535527,0.6855082 2.217,1.178 0.580367,0.4498614 1.097071,0.9763215 1.536,1.565 0.476755,0.6689381 0.847761,1.4072401 1.1,2.189 0.28749,0.700991 0.510739,1.426636 0.667,2.168 0.171059,0.910726 0.389354,1.811943 0.654,2.7 0.28,0.892 0.36,1.3 0.7,1.324 0.547,0.032 1.3,-2.866 1.661,-4.246 1.445,-5.525 0.974,-8.2 0.974,-8.2 z m -4.828,8.4 C 16.924758,12.121051 16.646803,11.363538 16.298,10.638 16.083562,10.109546 15.811234,9.6064767 15.486,9.138 15.050199,8.5537731 14.525099,8.0418336 13.93,7.621 11.970515,6.3654537 9.7017771,5.6766989 7.375,5.631 6.5815766,5.5867492 5.7860566,5.5967726 4.994,5.661 4.4327167,5.7008021 3.881249,5.8290504 3.36,6.041 3.0408607,6.1384467 2.7607963,6.3344918 2.56,6.601 2.4674738,6.7708717 2.4173845,6.9605936 2.414,7.154 c -0.0098,0.2090722 0.024264,0.4178812 0.1,0.613 0.257,0.592 1.763,3.691 1.763,3.691 -0.012372,-0.305363 0.031351,-0.610407 0.129,-0.9 0,0 -0.521,-1.2 -0.575,-1.391 C 3.7133844,8.7368875 3.6541864,8.292903 3.655,7.847 3.6672966,7.6282264 3.7096957,7.4121926 3.781,7.205 3.9222036,6.9586614 4.1334987,6.7598978 4.388,6.634 4.7437094,6.4426661 5.1368153,6.3310814 5.54,6.307 5.718,6.287 6.84,6.233 7.453,6.251 c 0.9487766,0.053376 1.8899879,0.2000847 2.81,0.438 1.170815,0.2742629 2.277273,0.7731536 3.258,1.469 0.541772,0.4048763 1.031477,0.8751007 1.458,1.4 0.821191,1.064989 1.396606,2.298461 1.685,3.612 0.31,0.972 0.828,3.037 0.828,3.037 0.1,0.242 0.656,1.466 0.656,1.466 0.195724,0.02011 0.393165,0.01642 0.588,-0.011 C 18.418034,17.126467 18.14638,16.56476 17.924,15.983 17.58,15.044 17.555,14.42 17.128,12.9 Z"></path>

</svg>
