<svg xmlns="http://www.w3.org/2000/svg" viewBox="0 0 24 24"><path fill="#44739e" d="M10.819 17.156a.651.651 0 0 0 0-1.282.651.651 0 0 0 0 1.282m0-1.067a.443.443 0 0 1 0 .853.443.443 0 0 1 0-.853m-2.216 1.026a.651.651 0 0 0 0-1.282.651.651 0 0 0 0 1.282m0-1.067a.442.442 0 0 1 0 .852.442.442 0 0 1 0-.852m1.946-1.685c.121 0 .219-.136.219-.3s-.1-.3-.219-.3-.218.136-.218.3.098.3.218.3m-1.324.015c.121 0 .219-.136.219-.3s-.1-.3-.219-.3-.219.136-.219.3.096.3.219.3m-2.721-3.079c.05 1.187.115 2.66.168 3.822.066-.806.153-1.749.262-2.598a.62.62 0 0 1 .185-.387 3.2 3.2 0 0 1 1.774-.477h.094c2.359.03 3.618.08 4.219.833a2.96 2.96 0 0 1 .359 2.448 13 13 0 0 0-.116 2.084c.075 2.073.808 3.261 2.011 3.261a1.08 1.08 0 0 0 .84-.394c.713-.792 1.005-2.716.821-5.417a8.3 8.3 0 0 1 .244-2.37 8 8 0 0 0 .141-.773c-4.872-.18-9.239-.192-11.002-.032m2.544 3.439h1.678a.62.62 0 0 0 .609-.628v-.032a.616.616 0 0 0-.61-.623h-.007l-1.679.026a.629.629 0 0 0 .01 1.257Zm1.499-1.106c.22 0 .348.164.351.427s-.09.432-.35.432c-.153 0-.351-.056-.351-.453a.367.367 0 0 1 .351-.406Zm-1.325 0c.273 0 .374.229.362.5a.367.367 0 0 1-.36.387c-.24 0-.374-.2-.371-.454a.44.44 0 0 1 .37-.433Zm-1.894 2.131v1.549a.526.526 0 0 0 .5.534l4.086.1a.526.526 0 0 0 .528-.521v-.017l-.011-1.641a.525.525 0 0 0-.514-.531l-4.076-.007a.526.526 0 0 0-.513.534m3.491-.125a.888.888 0 0 1 0 1.755.888.888 0 0 1 0-1.755m-2.216-.042a.888.888 0 0 1 0 1.754.888.888 0 0 1 0-1.754m6.853 4.98c-1.372 0-2.204-1.287-2.285-3.533a13 13 0 0 1 .12-2.129c.114-.975.189-1.618-.3-2.234s-1.626-.694-3.567-.725l-.443-.006c-1.736-.022-1.775.586-1.775.592v.019a63 63 0 0 0-.294 2.989l-.055.732-.042.546A5.334 5.334 0 0 0 12.09 22a5.2 5.2 0 0 0 3.598-1.442 1.3 1.3 0 0 1-.229.019Zm-5.518-.215c-1.664 0-3.013-1.657-3.013-3.698s1.349-3.697 3.013-3.697 3.014 1.657 3.014 3.697-1.351 3.698-3.014 3.698m8.593-9.437L18.26 5.17a43.3 43.3 0 0 0-12.691-.079l-.1 5.833a122 122 0 0 1 13.062 0m-.306-6.321s.014-.799-.013-.874a2.38 2.38 0 0 0-1.569-1.214l-.218-.068a16.9 16.9 0 0 0-4.773-.422c-2.438.06-5.355.115-5.957 1.439a5.3 5.3 0 0 0-.13.999c4.68-.832 10.297-.559 12.66.14m-7.497 13.636-1.667-.026a.655.655 0 0 0-.032 1.307l1.665.062a.64.64 0 0 0 .655-.626v-.051a.644.644 0 0 0-.621-.666M9.22 19.422a.526.526 0 1 1 .482-.528.5.5 0 0 1-.482.528m1.69-.393a.4.4 0 0 1-.014.073.466.466 0 0 1-.914-.074.5.5 0 0 1-.018-.1l.014-.076.005-.028a.466.466 0 0 1 .926-.007v.009a1 1 0 0 1 .019.1 1 1 0 0 1-.018.103"/></svg>