<svg xmlns="http://www.w3.org/2000/svg" fill="#44739e" width="24" height="24" version="1.1" viewBox="0 0 24000 24000"><path d="M8561 16759a1920 1920 0 00-1160-459h-13c-139 0-239 41-261 100-22 60 27 150 125 247a1900 1900 0 00 1150 464c188 3 275-45 294-97 20-52-8-135-135-257Zm-1783-1048H6750c-328 8-550 100-610 246-60 146 44 400 287 647A4170 4170 0 00 9000 17700c364 0 621-87 687-244 66-157-50-409-310-670a4123 4123 0 00-2600-1075Zm2083 1371c-31 76-129 200-437 207H8400a2074 2074 0 01-1273-515c-212-209-200-364-166-440 37-74 126-199 424-207H7400c473 16 926 193 1285 500 224 219 206 379 176 455zm3239-310a6339 6339 0 00-4768-1799l-2232 120a886 886 0 00-592 1514l2100 2065a6870 6870 0 00 5012 1960l1827-52c925-10 1378-1130 720-1780zm-2147 801c-114 269-435 420-908 425h-52a4443 4443 0 01-2779-1189c-337-348-460-690-350-965 113-275 421-418 880-430a4434 4434 0 01 2840 1164c358 363 491 716 373 997zm5188 439a6863 6863 0 01-1398-1350 3326 3326 0 01-395-662c-180-347-294-613-315-662a4800 4800 0 00-2358-2120 5176 5176 0 00-1310-368c-320-70-650-84-974-40a3140 3140 0 00-739 240c-76 34-315 146-789 370a1020 1020 0 01-510 134 1138 1138 0 01-309-72 3108 3108 0 00-720-170 1446 1446 0 00-1044 400 1792 1792 0 00-677 1050 3267 3267 0 00-150 1123c18 500 181 613 550 1069A36640 36640 0 00 7490 20400c661 406 1390 690 2152 838 328 56 4830-19 5030-90 411-149 573-659 675-813 123-194 200-414 222-643 67-579-94-1465-428-1680zm-1245 2865-2026 57a7255 7255 0 01-6010-2455l-1982-2130c-280-650 86-1397 772-1573l2476-130c3054-114 3881 493 5277 1900l2290 2307c730 734 237 1984-796 2024zm3278-4053a3543 3543 0 01-556-1453c-150-552-350-1218-854-2700a8624 8624 0 00-1000-2060 8791 8791 0 00-2335-2349 9908 9908 0 00-2035-920 10163 10163 0 00-2054-462c-1083-105-1370-118-1892 255-594 425-2206 3200-2146 6352 0 77 284-349 557-468 203-80 422-110 640-85 612 35 700 300 1052 217 245-56 228-190 610-367a5700 5700 0 01 1714-493 5587 5587 0 01 2950 894c297 181 574 392 828 630 308 270 571 585 780 937 328 580 265 900 684 1425 93 120 197 230 310 330 230 182 482 334 750 451 345 191 894 494 933 910 25 265-175 390-218 975-17 237 12 270 30 282 131 100 571-316 1444-1145 210-200 284-229 225-413a1826 1826 0 00-419-740zM2030 2114l106 1845c2147-780 12533-1670 19881-219-21-542 17-1600 17-1600m-77 2360c-5493-1031-16040-768-19868 200l128 1970c256 78-225-529 550-1020a9070 9070 0 01 3626-775 17220 17220 0 01 6055 947c790 290 1536 686 2217 1178 580 450 1097 976 1536 1565a8009 8009 0 01 1100 2189c287 700 510 1427 667 2168 171 910 390 1812 654 2700 280 892 360 1300 700 1324 551 32 1303-2866 1664-4246 1445-5525 974-8200 974-8200zm-4828 8400a12510 12510 0 00-830-2262 7721 7721 0 00-812-1500 6940 6940 0 00-1556-1517 12609 12609 0 00-6555-1990 17442 17442 0 00-2381 30 5341 5341 0 00-1634 380c-320 101-600 296-800 562a1200 1200 0 00-146 554 1500 1500 0 00 100 613c257 592 1763 3690 1763 3690a2500 2500 0 01 129-900s-520-1200-575-1390a4970 4970 0 01-173-1320c12-220 55-435 126-642a1430 1430 0 01 608-570 2782 2782 0 01 1152-328c178-20 1300-74 1913-56 949 53 1890 200 2810 438a9293 9293 0 01 3258 1469 8216 8216 0 01 1458 1400 9117 9117 0 01 1684 3610c310 973 828 3038 828 3038 100 242 656 1466 656 1466 196 20 393 16 588-10a10940 10940 0 01-812-1680c-344-940-370-1563-796-3083Z"/></svg>
