<?xml version="1.0" encoding="UTF-8"?>
<svg width="24px" fill="#44739e" height="24px" viewBox="0 0 24 24" version="1.1" xmlns="http://www.w3.org/2000/svg" xmlns:xlink="http://www.w3.org/1999/xlink">
    <path
     d="M 12.001594,0.29182463 C 9.9068696,0.27755026 7.8116841,2.0390527 7.8116841,4.8385926 V 19.313692 c 0,5.877439 8.3766319,5.783926 8.3766319,0.172058 V 4.5263409 c 0,-2.5570776 -2.091999,-4.22023407 -4.186722,-4.23451627 z m 0.03505,1.08650867 c 1.694741,-0.00135 3.069103,1.381578 3.068352,3.087469 -10e-4,1.7046462 -1.374848,3.0856277 -3.068352,3.0842826 C 10.344382,7.549658 8.9724747,6.1691952 8.9714763,4.4658023 8.9707275,2.7611648 10.343146,1.3787607 12.036642,1.3783333 Z m 0,0.2294094 c -0.134326,-1.43e-5 -0.268487,0.00958 -0.401466,0.028676 -0.134635,0.019038 -0.267738,0.04779 -0.398281,0.086029 -0.129611,0.038645 -0.256328,0.086559 -0.379163,0.1433809 -0.122319,0.056272 -0.240504,0.1212228 -0.353673,0.1943607 -0.114015,0.073863 -0.222624,0.1558534 -0.324995,0.2453406 C 10.076713,2.3951579 9.9808826,2.4920557 9.8923006,2.5954779 9.8040274,2.6978894 9.7231024,2.8064965 9.6501466,2.9204747 9.5770129,3.0346271 9.5120686,3.153882 9.4557852,3.2773339 9.4000742,3.4012613 9.3532267,3.5290368 9.3155913,3.659683 c -0.03806,0.1305295 -0.066796,0.2636283 -0.08603,0.3982802 -0.019217,0.1350827 -0.028806,0.2713781 -0.028676,0.4078391 -1.289e-4,0.1364611 0.00946,0.2727565 0.028676,0.407839 0.019217,0.134652 0.047954,0.2677509 0.08603,0.3982803 0.037766,0.1295621 0.084614,0.2562684 0.1401939,0.3791628 0.056135,0.1245425 0.1210955,0.2448673 0.1943614,0.3600454 0.072954,0.1139778 0.1538858,0.2225848 0.242154,0.3249968 0.08858,0.1034229 0.1844154,0.2003203 0.2867634,0.2899479 0.10248,0.088392 0.211083,0.1693152 0.324995,0.2421545 0.11307,0.07423 0.231266,0.1402477 0.353673,0.1975471 0.122923,0.055735 0.249629,0.1025854 0.379163,0.1401946 0.13046,0.039316 0.263567,0.069133 0.398281,0.089215 0.132972,0.019108 0.267138,0.028691 0.401466,0.028676 0.135386,1.67e-4 0.27062,-0.00941 0.404653,-0.028676 0.13364,-0.020234 0.265674,-0.050049 0.395095,-0.089215 0.130622,-0.037464 0.258395,-0.084318 0.382349,-0.1401946 0.1224,-0.0573 0.240599,-0.1233175 0.353673,-0.1975471 0.113917,-0.07284 0.22252,-0.1537619 0.324995,-0.2421545 0.102352,-0.089628 0.198181,-0.1865256 0.286763,-0.2899479 0.08827,-0.1024116 0.169198,-0.2110187 0.242154,-0.3249968 0.07326,-0.1151785 0.138225,-0.2355029 0.194361,-0.3600454 0.05558,-0.1228947 0.102412,-0.2495999 0.140194,-0.3791628 0.03806,-0.1305296 0.0668,-0.2636283 0.08603,-0.3982803 0.01922,-0.1350826 0.02881,-0.271378 0.02868,-0.407839 v -0.00319 -0.00319 -0.00319 -0.00319 -0.00319 -0.00319 -0.00319 -0.00319 -0.00319 -0.00319 -0.00319 -0.00319 -0.00319 -0.00319 -0.00319 -0.00319 -0.00319 -0.00319 -0.00319 -0.00319 -0.00319 -0.00319 -0.00319 -0.00319 -0.00319 -0.00319 -0.00319 -0.00319 -0.00319 -0.00319 -0.00319 -0.00319 -0.00319 l -0.0032,-0.00319 v -0.00319 -0.00319 -0.00319 -0.00319 -0.00319 -0.00319 -0.00319 -0.00319 -0.00319 -0.00319 c -0.0021,-0.046804 -0.0052,-0.093549 -0.0096,-0.1401947 -0.0042,-0.046856 -0.0094,-0.093603 -0.01593,-0.1401946 -0.0073,-0.045872 -0.01582,-0.091556 -0.02549,-0.1370085 -0.0085,-0.045898 -0.01801,-0.091582 -0.02868,-0.1370085 -0.01158,-0.044913 -0.0244,-0.089534 -0.03823,-0.1338221 -0.0137,-0.04497 -0.02865,-0.089591 -0.04461,-0.1338222 -0.01484,-0.043929 -0.03081,-0.087488 -0.04779,-0.1306359 -0.01803,-0.044019 -0.03716,-0.087578 -0.05735,-0.1306359 -0.02023,-0.041939 -0.04149,-0.083372 -0.06372,-0.1242635 -0.02132,-0.040898 -0.04363,-0.081269 -0.06691,-0.1210771 -0.02452,-0.039923 -0.05003,-0.079231 -0.07647,-0.1178911 -0.02561,-0.038883 -0.05217,-0.077131 -0.07966,-0.1147048 -0.02777,-0.03788 -0.05644,-0.075066 -0.08603,-0.1115185 -0.02889,-0.035767 -0.05863,-0.070827 -0.08921,-0.1051459 -0.03207,-0.034807 -0.065,-0.068804 -0.09877,-0.1019598 -0.03212,-0.033732 -0.06505,-0.066667 -0.09877,-0.098774 -0.03432,-0.030588 -0.06939,-0.060337 -0.105146,-0.089215 -0.03646,-0.029598 -0.07364,-0.058284 -0.111518,-0.086029 -0.03755,-0.028567 -0.0758,-0.056191 -0.114705,-0.082842 -0.03765,-0.025345 -0.07589,-0.049781 -0.114704,-0.073284 -0.04083,-0.024408 -0.08227,-0.04778 -0.124264,-0.070097 -0.04068,-0.022355 -0.08233,-0.043511 -0.124263,-0.063725 -0.04201,-0.020167 -0.0845,-0.03929 -0.12745,-0.057352 -0.0421,-0.016953 -0.08458,-0.03289 -0.12745,-0.047794 -0.04424,-0.015987 -0.08886,-0.030855 -0.133821,-0.044608 -0.04429,-0.01385 -0.08891,-0.026594 -0.133822,-0.038235 -0.0454,-0.011762 -0.09107,-0.022382 -0.13701,-0.031862 -0.04548,-0.00856 -0.09117,-0.015987 -0.137008,-0.022304 -0.04551,-0.00749 -0.09118,-0.013866 -0.137009,-0.019117 -0.04664,-0.00436 -0.09339,-0.00754 -0.140194,-0.00956 -0.04671,-0.00222 -0.09344,-0.00328 -0.140195,-0.00319 z m 0,1.523024 c 0.02233,4.944e-4 0.04463,0.00156 0.06691,0.00319 0.02127,5.473e-4 0.04252,0.00161 0.06373,0.00319 0.02132,0.00266 0.04256,0.00586 0.06372,0.00956 0.02132,0.00266 0.04257,0.00586 0.06372,0.00956 0.02243,0.00473 0.04474,0.010026 0.06691,0.015931 0.02029,0.00483 0.04049,0.01014 0.06054,0.015931 0.02142,0.00688 0.04268,0.014323 0.06372,0.022304 0.01928,0.00698 0.0384,0.014421 0.05735,0.022304 0.02039,0.00799 0.04057,0.016491 0.06054,0.02549 0.01938,0.010147 0.03849,0.020768 0.05735,0.031862 0.02044,0.010098 0.04063,0.02072 0.06054,0.031863 0.01726,0.011289 0.03426,0.02297 0.05098,0.035049 0.01837,0.012284 0.03643,0.025039 0.05417,0.038235 0.01729,0.012333 0.03429,0.025083 0.05098,0.038235 0.01732,0.013377 0.03432,0.027192 0.05098,0.041421 0.01533,0.015563 0.03014,0.031496 0.04461,0.047794 0.01633,0.015514 0.03226,0.031457 0.04779,0.047793 0.01419,0.015596 0.028,0.031534 0.04142,0.047794 0.01419,0.017697 0.02808,0.035758 0.04142,0.054166 0.01207,0.016718 0.02374,0.033715 0.03505,0.05098 0.01223,0.018818 0.02386,0.037941 0.03505,0.057352 0.01109,0.017801 0.02167,0.035861 0.03186,0.054166 0.01109,0.019903 0.02177,0.040088 0.03186,0.060539 0.009,0.019966 0.0175,0.040152 0.02549,0.060539 0.008,0.019995 0.01534,0.040181 0.0223,0.060539 0.008,0.021049 0.01534,0.042297 0.0223,0.063725 0.0057,0.020051 0.01104,0.040236 0.01593,0.060539 0.0047,0.021134 0.009,0.042382 0.01274,0.063725 0.0047,0.021134 0.009,0.042382 0.01275,0.063725 0.0026,0.022247 0.0047,0.044557 0.0064,0.066911 0.0026,0.021186 0.0047,0.042434 0.0064,0.063725 v 0.00319 0.00319 0.00319 0.00319 0.00319 0.00319 0.00319 0.00319 0.00319 0.00319 0.00319 0.00319 0.00319 0.00319 0.00319 0.00319 0.00319 0.00319 0.00319 0.00319 0.00319 0.00319 0.00319 0.00319 0.00319 0.00319 0.00319 0.00319 0.00319 0.00319 0.00319 0.00319 0.00319 0.00319 0.00319 0.00319 0.00319 0.00319 0.00319 0.00319 0.00319 0.00319 0.00319 0.00319 0.00319 0.00319 c -0.0011,0.0032 -0.002,0.00638 -0.0032,0.00956 v 0.00319 0.00319 0.00319 0.00319 0.00319 0.00319 0.00319 0.00319 0.00319 0.00319 c -0.0011,0.0032 -0.002,0.00638 -0.0032,0.00956 v 0.00319 0.00319 0.00319 0.00319 0.00319 0.00319 c -10e-4,0.0032 -0.002,0.00638 -0.0032,0.00956 v 0.00319 0.00319 0.00319 0.00319 0.00319 0.00319 0.00319 c -10e-4,0.0032 -0.002,0.00638 -0.0032,0.00956 -0.0083,0.062432 -0.02117,0.1241872 -0.03824,0.184802 -0.01804,0.061006 -0.04042,0.1206357 -0.06691,0.1784296 -0.02685,0.057368 -0.05774,0.1127366 -0.0924,0.1656846 -0.03352,0.053579 -0.07078,0.1046875 -0.111518,0.1529396 -0.04127,0.048848 -0.08601,0.094636 -0.133823,0.1370085 -0.04829,0.040786 -0.09938,0.078053 -0.15294,0.1115185 -0.05194,0.034604 -0.106249,0.065482 -0.162498,0.092401 -0.05884,0.026725 -0.119545,0.049089 -0.181615,0.066911 -0.0595,0.018076 -0.120182,0.031917 -0.181616,0.041421 -0.06333,0.00889 -0.127229,0.013153 -0.191175,0.012745 -0.06289,2.452e-4 -0.125696,-0.00402 -0.187988,-0.012745 -0.0625,-0.00935 -0.12426,-0.023197 -0.184802,-0.041421 -0.061,-0.017969 -0.120622,-0.04033 -0.178429,-0.066911 -0.05625,-0.026919 -0.110557,-0.057795 -0.1625,-0.092401 -0.05354,-0.033466 -0.104651,-0.070733 -0.152939,-0.1115185 -0.04781,-0.042373 -0.09255,-0.088162 -0.133822,-0.1370085 -0.04073,-0.048252 -0.07799,-0.099361 -0.111518,-0.1529396 -0.03467,-0.052947 -0.06555,-0.1083155 -0.0924,-0.1656846 -0.02651,-0.057794 -0.04885,-0.1174218 -0.06691,-0.1784296 -0.01706,-0.060614 -0.02983,-0.1223698 -0.03823,-0.184802 -0.0088,-0.063336 -0.01307,-0.1272247 -0.01275,-0.1911745 -3.07e-4,-0.063951 0.0039,-0.1278398 0.01275,-0.1911746 0.0083,-0.062432 0.02117,-0.124187 0.03823,-0.1848021 0.01804,-0.061006 0.0404,-0.1206355 0.06691,-0.1784296 0.02685,-0.057368 0.05774,-0.1127365 0.0924,-0.1656846 0.03352,-0.053578 0.07078,-0.1046874 0.111518,-0.1529396 0.04127,-0.048848 0.08601,-0.094636 0.133822,-0.1370083 0.04817,-0.041882 0.09928,-0.080215 0.152939,-0.1147049 0.05204,-0.033513 0.106332,-0.063325 0.1625,-0.089215 0.0578,-0.02658 0.117441,-0.048942 0.178429,-0.066911 0.06054,-0.018224 0.122303,-0.032065 0.184802,-0.041421 0.06229,-0.00873 0.125109,-0.01299 0.187988,-0.012745 z m 0,0.50024 c -0.03834,-5.442e-4 -0.07666,0.00158 -0.114704,0.00637 -0.03985,0.00561 -0.07925,0.014128 -0.117892,0.02549 -0.03811,0.011109 -0.07538,0.024949 -0.111518,0.041421 -0.03529,0.016684 -0.06935,0.035849 -0.101959,0.057352 -0.03357,0.022072 -0.06554,0.046563 -0.09559,0.073283 -0.02951,0.025622 -0.0572,0.053305 -0.08284,0.082842 -0.02669,0.030041 -0.05118,0.061988 -0.07328,0.095587 -0.0216,0.033621 -0.04076,0.06876 -0.05735,0.1051461 -0.01533,0.036219 -0.02811,0.073487 -0.03824,0.1115184 -0.01126,0.038627 -0.01981,0.078027 -0.02549,0.117891 -0.0059,0.03902 -0.0091,0.078415 -0.0096,0.117891 4.16e-4,0.039475 0.0035,0.07887 0.0096,0.1178909 0.0057,0.039864 0.01418,0.079264 0.02549,0.1178909 0.01011,0.038034 0.02288,0.075299 0.03824,0.1115186 0.01659,0.036386 0.03575,0.071525 0.05735,0.1051459 0.0221,0.033599 0.04659,0.065544 0.07328,0.095587 0.02565,0.029537 0.05333,0.05722 0.08284,0.082842 0.03007,0.02672 0.06201,0.051211 0.09559,0.073284 0.03261,0.021503 0.06667,0.040669 0.101959,0.057352 0.03613,0.016472 0.07341,0.030313 0.111518,0.041421 0.03863,0.011354 0.07802,0.019881 0.117892,0.02549 0.03804,0.00478 0.07637,0.00691 0.114704,0.00637 0.0394,6.946e-4 0.07879,-0.00143 0.117891,-0.00637 0.03985,-0.00561 0.07925,-0.014127 0.117892,-0.02549 0.03811,-0.01111 0.07537,-0.024949 0.111518,-0.041421 0.03529,-0.016684 0.06935,-0.035849 0.101959,-0.057352 0.03357,-0.022072 0.06554,-0.046564 0.09559,-0.073284 0.02951,-0.025622 0.0572,-0.053305 0.08284,-0.082842 0.02669,-0.030042 0.05118,-0.061988 0.07328,-0.095587 0.0216,-0.033621 0.04076,-0.06876 0.05735,-0.1051459 0.01534,-0.036219 0.02811,-0.073487 0.03824,-0.1115186 0.01126,-0.038627 0.01981,-0.078027 0.02549,-0.1178909 l 0.0032,-0.00319 v -0.00319 -0.00319 -0.00319 -0.00319 -0.00319 -0.00319 -0.00319 -0.00319 l 0.0032,-0.00319 v -0.00319 -0.00319 -0.00319 -0.00319 -0.00319 -0.00319 -0.00319 -0.00319 -0.00319 -0.00319 -0.00319 l 0.0032,-0.00319 v -0.00319 -0.00319 -0.00319 -0.00319 -0.00319 -0.00319 -0.00319 -0.00319 -0.00319 -0.00319 -0.00319 -0.00319 -0.00319 -0.00319 -0.00319 -0.00319 -0.00319 -0.00319 -0.00319 -0.00319 -0.00319 -0.00319 -0.00319 -0.00319 -0.00319 -0.00319 -0.00319 -0.00319 c -7.21e-4,-0.013834 -0.0017,-0.027643 -0.0032,-0.041421 -0.0018,-0.013866 -0.0039,-0.027669 -0.0064,-0.041421 -0.0018,-0.01279 -0.0039,-0.025543 -0.0064,-0.038235 -0.0028,-0.013883 -0.006,-0.027697 -0.0096,-0.041421 -0.0029,-0.012823 -0.006,-0.025568 -0.0096,-0.038235 -0.0039,-0.012839 -0.0082,-0.025595 -0.01275,-0.038235 -0.0051,-0.012871 -0.01022,-0.025626 -0.01593,-0.038235 -0.0051,-0.012871 -0.01022,-0.025626 -0.01593,-0.038235 -0.006,-0.012904 -0.0124,-0.025657 -0.01912,-0.038235 -0.006,-0.011827 -0.0124,-0.023522 -0.01912,-0.035049 -0.0072,-0.01186 -0.01452,-0.023554 -0.0223,-0.035049 -0.0072,-0.0108 -0.01469,-0.021418 -0.0223,-0.031862 -0.0082,-0.010832 -0.01673,-0.021453 -0.02549,-0.031862 -0.0082,-0.010832 -0.01673,-0.021453 -0.02549,-0.031862 -0.01044,-0.00984 -0.021,-0.019395 -0.03186,-0.028676 -0.0093,-0.00979 -0.01889,-0.019353 -0.02868,-0.028676 -0.0093,-0.00979 -0.01889,-0.019353 -0.02868,-0.028676 -0.01044,-0.00876 -0.02105,-0.017256 -0.03186,-0.02549 -0.01142,-0.00773 -0.02317,-0.015171 -0.03505,-0.022304 -0.01142,-0.00773 -0.02319,-0.015171 -0.03505,-0.022304 -0.01158,-0.00666 -0.02322,-0.013034 -0.03505,-0.019117 -0.01158,-0.00666 -0.02321,-0.013034 -0.03505,-0.019117 -0.01256,-0.00563 -0.02535,-0.010939 -0.03823,-0.015931 -0.01256,-0.00563 -0.02537,-0.010939 -0.03824,-0.015931 -0.01256,-0.00455 -0.02538,-0.00881 -0.03823,-0.012745 -0.01272,-0.00349 -0.02541,-0.00667 -0.03824,-0.00956 -0.0137,-0.00354 -0.02754,-0.00672 -0.04142,-0.00956 -0.01272,-0.00243 -0.02545,-0.00455 -0.03824,-0.00637 -0.0137,-0.00248 -0.02755,-0.00459 -0.04142,-0.00637 -0.0137,-0.00141 -0.02759,-0.00248 -0.04142,-0.00319 -0.01387,-3.468e-4 -0.02762,-3.468e-4 -0.04142,0 z m 2.478898,0.6850421 c 0.0075,-5.664e-4 0.01485,-5.664e-4 0.0223,0 0.031,2.24e-4 0.0611,0.010261 0.08603,0.028676 0.01354,0.00961 0.02544,0.021461 0.03505,0.035049 0.01666,0.024413 0.02552,0.05329 0.02549,0.082842 0,0.080946 -0.06564,0.1465672 -0.146567,0.1465672 -0.08095,-6e-7 -0.146566,-0.065621 -0.146566,-0.1465672 -8.5e-4,-0.07298 0.05213,-0.1354657 0.124264,-0.1465671 z m -4.980099,0.00637 c 0.00636,-4.558e-4 0.012723,-4.558e-4 0.019118,0 0.026085,1.346e-4 0.051554,0.00788 0.073284,0.022304 0.00555,0.00383 0.010875,0.0081 0.01593,0.012745 0.00457,0.00396 0.00883,0.00823 0.012746,0.012745 0.00457,0.00498 0.00899,0.010303 0.012746,0.015931 0.012723,0.021155 0.019328,0.045415 0.019116,0.070097 0,0.073909 -0.059921,0.1338223 -0.1338217,0.1338221 -0.0739,0 -0.1338218,-0.059915 -0.1338218,-0.1338221 -6.892e-4,-0.067041 0.048354,-0.1242451 0.1147016,-0.1338194 z m 2.501199,3.8298659 c 0.0054,-1.429e-4 0.01055,-1.429e-4 0.01593,0 0.0054,-1.429e-4 0.01055,-1.429e-4 0.01593,0 0.0042,9.677e-4 0.0085,0.00203 0.01275,0.00319 0.0054,9.162e-4 0.01055,0.00198 0.01593,0.00319 0.0042,9.677e-4 0.0085,0.00203 0.01274,0.00319 0.0054,9.161e-4 0.01055,0.00198 0.01593,0.00319 0.0042,9.677e-4 0.0085,0.00203 0.01274,0.00319 0.0042,0.00202 0.0085,0.00414 0.01275,0.00637 0.0042,0.00202 0.0085,0.00414 0.01274,0.00637 0.0042,0.00202 0.0085,0.00414 0.01275,0.00637 0.0054,0.00197 0.01055,0.00409 0.01593,0.00637 0.0033,0.00312 0.0065,0.0063 0.0096,0.00956 0.0042,0.00202 0.0085,0.00414 0.01274,0.00637 0.0044,0.00307 0.0087,0.00626 0.01275,0.00956 0.0033,0.00312 0.0063,0.0063 0.0096,0.00956 0.0044,0.00307 0.0087,0.00626 0.01275,0.00956 0.0033,0.00416 0.0065,0.00842 0.0096,0.012745 0.0033,0.00312 0.0065,0.0063 0.0096,0.00956 0.0033,0.00416 0.0065,0.00842 0.0096,0.012745 0.0023,0.00419 0.0044,0.00845 0.0064,0.012745 0.0033,0.00416 0.0065,0.00842 0.0096,0.012745 0.0023,0.00419 0.0044,0.00845 0.0064,0.012745 0.0023,0.00419 0.0044,0.00845 0.0064,0.012745 0.0023,0.00419 0.0044,0.00845 0.0064,0.012745 0.0012,0.00423 0.0022,0.00847 0.0032,0.012745 0.0023,0.00525 0.0044,0.010548 0.0064,0.015931 0.0012,0.00423 0.0022,0.00847 0.0032,0.012745 0.0012,0.00529 0.0022,0.01058 0.0032,0.015931 0.0012,0.00423 0.0022,0.00847 0.0032,0.012745 0.0012,0.00529 0.0022,0.01058 0.0032,0.015931 v 0.00319 0.00319 0.00319 0.00319 0.00319 0.00319 0.00319 0.00319 0.00319 0.00319 0.00319 0.00319 0.00319 0.00319 0.00319 0.00319 0.00319 0.00319 h -0.0032 v 0.00319 0.00319 0.00319 0.00319 c -0.0023,0.01403 -0.0053,0.027865 -0.0096,0.041422 -0.0033,0.01403 -0.0075,0.027947 -0.01275,0.041422 -0.0065,0.013214 -0.01387,0.026048 -0.0223,0.038234 -0.0077,0.012235 -0.01614,0.023989 -0.02549,0.03505 -0.009,0.010276 -0.01848,0.019785 -0.02868,0.028676 -0.01109,0.0093 -0.02278,0.017855 -0.03505,0.02549 -0.01224,0.00832 -0.02496,0.015827 -0.03824,0.022302 -0.0124,0.00506 -0.02522,0.00932 -0.03823,0.012746 -0.01354,0.00424 -0.02741,0.00727 -0.04142,0.00956 -0.01485,0.00212 -0.02968,0.00319 -0.04461,0.00319 -0.01387,-9.14e-5 -0.0277,-0.00108 -0.04142,-0.00319 -0.01403,-0.00212 -0.02787,-0.00532 -0.04142,-0.00956 -0.01305,-0.00343 -0.02579,-0.00769 -0.03823,-0.012746 -0.01321,-0.00652 -0.02605,-0.013868 -0.03824,-0.022302 -0.01224,-0.00767 -0.024,-0.016142 -0.03505,-0.02549 -0.01011,-0.00897 -0.01977,-0.018482 -0.02868,-0.028676 -0.0093,-0.011093 -0.01784,-0.022749 -0.02549,-0.03505 -0.0083,-0.012235 -0.01583,-0.024955 -0.0223,-0.038234 -0.0052,-0.01354 -0.0095,-0.027327 -0.01275,-0.041422 -0.0041,-0.01354 -0.0073,-0.027408 -0.0096,-0.041422 -0.002,-0.013703 -0.003,-0.027554 -0.0032,-0.04142 -4.2e-5,-0.014927 9.46e-4,-0.029839 0.0032,-0.044607 0.0023,-0.014013 0.0053,-0.027858 0.0096,-0.041421 0.0034,-0.013018 0.0077,-0.025793 0.01275,-0.038235 0.0065,-0.013279 0.01387,-0.026062 0.0223,-0.038235 0.0077,-0.012284 0.01614,-0.024001 0.02549,-0.035049 0.009,-0.010196 0.01848,-0.019782 0.02868,-0.028676 0.01109,-0.00935 0.02278,-0.017858 0.03505,-0.02549 0.01224,-0.00837 0.02496,-0.015824 0.03824,-0.022304 0.0124,-0.00511 0.02522,-0.00937 0.03823,-0.012745 0.01354,-0.00418 0.02741,-0.00737 0.04142,-0.00956 0.0137,-0.00202 0.02755,-0.0031 0.04142,-0.00319 z m 0.264459,3.1543803 c 0.04657,-2.44e-4 0.09144,0.02797 0.105146,0.07328 0.006,0.09343 0.0032,0.209063 0.0032,0.299506 v 1.252194 h -0.216666 v -1.252194 c 2e-6,-0.09074 -3.88e-4,-0.193654 0.0032,-0.293134 0.01272,-0.04708 0.05666,-0.07943 0.105146,-0.07966 z m 0.391907,0.04142 c 0.124782,-0.0049 0.163669,0.191057 0.02868,0.223037 -0.138257,0.03274 -0.192139,-0.185794 -0.05417,-0.21985 0.009,-0.0023 0.01715,-0.0029 0.02549,-0.0032 z m 1.586748,0.0096 c 0.05196,-10e-4 0.104587,0.03539 0.11152,0.09559 0.009,0.07721 0,0.158062 0,0.235781 v 0.468378 c 0.190195,-0.116496 0.328124,-0.318743 0.519357,-0.433329 0.09173,-0.05498 0.205764,0.04182 0.149753,0.140195 -0.02752,0.0483 -0.0858,0.0854 -0.127449,0.121076 -0.08875,0.07605 -0.176283,0.152728 -0.264458,0.229409 -0.03145,0.02734 -0.06443,0.05201 -0.09559,0.07966 -0.01126,0.01 -0.03243,0.02696 -0.02868,0.04461 0.0044,0.02033 0.03327,0.03793 0.04779,0.05098 l 0.12745,0.114706 c 0.09999,0.08902 0.199862,0.178294 0.299506,0.267643 0.05697,0.05103 0.120932,0.09961 0.168871,0.159313 h -0.213478 c -0.03235,-10e-7 -0.07152,0.0064 -0.101959,-0.0064 -0.05424,-0.02271 -0.103076,-0.08537 -0.146568,-0.124264 -0.109839,-0.09827 -0.218403,-0.205583 -0.334555,-0.296319 V 12.93167 H 14.174601 V 11.813299 11.53291 c 0,-0.04431 -0.0072,-0.09679 0.0223,-0.133824 0.02184,-0.02739 0.05167,-0.0408 0.08284,-0.04142 z m -4.8813228,0.3473 c 0.054341,-0.0023 0.1087821,0.01661 0.1242637,0.07966 0.031762,0.129333 -0.1117479,0.128159 -0.1911754,0.165685 -0.079822,0.0377 -0.1443913,0.09979 -0.1848017,0.17843 -0.050034,0.09733 -0.041422,0.209529 -0.041422,0.315437 v 0.487496 H 8.8854484 v -0.47475 c 0,-0.181688 0.00141,-0.351487 0.1115178,-0.506613 0.084211,-0.118632 0.209489,-0.20149 0.3504871,-0.235782 0.017146,-0.0042 0.032872,-0.0087 0.05098,-0.0096 z m 0.7615128,0.03186 c 0.128518,-0.0047 0.260828,0.03297 0.375977,0.121076 0.193017,0.147671 0.238968,0.357101 0.238968,0.586269 h -0.637249 c -0.0716,0 -0.1846124,0.02229 -0.2389694,-0.03505 -0.05628,-0.05943 -0.02826,-0.165465 0.05417,-0.181616 0.06121,-0.01191 0.1320914,-0.0032 0.1943604,-0.0032 h 0.385535 c -0.01028,-0.04963 -0.03781,-0.09202 -0.0701,-0.130636 -0.221427,-0.264775 -0.6922776,-0.103476 -0.6691126,0.2549 0.0038,0.05829 0.01936,0.114652 0.04779,0.165684 0.03116,0.05597 0.07669,0.105725 0.1306362,0.140195 0.06284,0.04018 0.1447014,0.06339 0.2198514,0.05735 0.07713,-0.0062 0.150085,-0.03322 0.210292,-0.08284 0.03134,-0.02581 0.06187,-0.0729 0.09877,-0.08922 0.06005,-0.02667 0.170299,-0.0064 0.235782,-0.0064 -0.02049,0.07225 -0.06248,0.138208 -0.111518,0.194361 -0.309291,0.354249 -0.9230807,0.217342 -1.0355301,-0.245341 -0.01633,-0.06736 -0.02077,-0.141194 -0.012744,-0.210292 0.035825,-0.31317 0.3003247,-0.524745 0.5830831,-0.535289 z m 2.539434,0 c 0.138698,0.002 0.108334,0.181469 0.108334,0.274016 v 0.920825 h -0.223038 v -0.920825 c 0,-0.0946 -0.0284,-0.275973 0.114704,-0.274016 z m 0.751954,0.0032 c 0.180258,-0.01484 0.366458,0.06253 0.471563,0.238968 0.07706,0.129497 0.0701,0.265883 0.0701,0.411025 V 12.9317 h -0.216664 v -0.52573 c 0,-0.09581 0.01256,-0.201486 -0.03186,-0.289948 -0.105533,-0.210249 -0.407175,-0.210197 -0.512985,0 -0.04383,0.08698 -0.02868,0.1893 -0.02868,0.283576 V 12.9317 h -0.21985 v -0.53529 c 0,-0.117146 -0.01011,-0.236416 0.03505,-0.347299 0.07684,-0.18814 0.253071,-0.294206 0.433329,-0.309066 z m -1.988215,0.0032 c 0.312403,-0.0083 0.614863,0.235296 0.614944,0.583083 0,0.0683 -0.0064,0.132466 -0.02868,0.197547 -0.0301,0.08788 -0.08027,0.167521 -0.146567,0.232596 -0.07765,0.07623 -0.17471,0.128078 -0.280389,0.15294 -0.09114,0.02121 -0.187451,0.01274 -0.28039,0.01274 h -0.446073 c 0,-0.221499 -0.02413,-0.459212 0.0064,-0.678671 0.01158,-0.08277 0.04409,-0.162434 0.08921,-0.232595 0.04333,-0.06742 0.09894,-0.124277 0.165686,-0.16887 0.09535,-0.06365 0.201745,-0.096 0.305879,-0.09877 z m 0.02868,0.19436 c -0.02206,-1.5e-4 -0.04695,-7.31e-4 -0.0701,0.0032 -0.04842,0.0078 -0.0952,0.02499 -0.137008,0.05098 -0.04667,0.029 -0.0861,0.06649 -0.117891,0.111518 -0.03615,0.05118 -0.06145,0.106756 -0.0701,0.168871 -0.02072,0.147736 -0.0064,0.30656 -0.0064,0.455633 0.155452,-2e-6 0.33902,0.02638 0.490681,-0.0096 0.07078,-0.01669 0.136414,-0.05358 0.187989,-0.105146 0.25049,-0.250493 0.05357,-0.673158 -0.277203,-0.675484 z m -0.0032,0.121078 c 0.127001,0.0018 0.254641,0.08003 0.277203,0.232595 0.0062,0.04137 0.0025,0.08415 -0.0096,0.124264 -0.01289,0.04287 -0.03562,0.0828 -0.06691,0.114705 -0.03502,0.03568 -0.07861,0.06137 -0.127449,0.07328 -0.110835,0.02689 -0.237216,0.0067 -0.350487,0.0064 0,-0.104912 -0.01501,-0.217942 0,-0.321811 0.0224,-0.155256 0.150198,-0.231264 0.277203,-0.229409 z m 0.548033,4.779364 c 0.04463,-4.4e-5 0.08925,9.42e-4 0.133823,0.0032 0.04468,0.0021 0.0893,0.0052 0.133822,0.0096 0.04369,0.0054 0.08724,0.01175 0.130636,0.01912 0.04372,0.0064 0.08727,0.01387 0.130635,0.0223 0.04377,0.0085 0.08732,0.01804 0.130636,0.02868 0.04279,0.01175 0.08528,0.02444 0.12745,0.03824 0.04388,0.01272 0.08744,0.02651 0.130636,0.04142 0.0407,0.01387 0.08108,0.02878 0.121077,0.04461 0.04082,0.01811 0.08119,0.03724 0.121078,0.05735 0.03977,0.01922 0.0791,0.0394 0.11789,0.06054 0.04091,0.02127 0.08129,0.04358 0.121077,0.06691 0.03666,0.0225 0.07277,0.04587 0.108334,0.0701 0.03783,0.02561 0.07501,0.05217 0.111518,0.07966 0.03571,0.02674 0.07079,0.05436 0.105145,0.08284 0.03465,0.02679 0.06865,0.05441 0.10196,0.08284 0.03157,0.03111 0.06238,0.06298 0.0924,0.09559 0.03268,0.03211 0.06456,0.06504 0.09559,0.09877 0.02946,0.03222 0.05813,0.06515 0.08603,0.09877 0.0285,0.03542 0.05614,0.07153 0.08284,0.108332 0.02636,0.03548 0.05187,0.0716 0.07647,0.108332 0.02537,0.03762 0.04981,0.07586 0.07328,0.114705 0.02215,0.03772 0.0434,0.07596 0.06372,0.114706 0.02113,0.03879 0.04131,0.0781 0.06054,0.11789 0.01912,0.04202 0.03718,0.0845 0.05417,0.127449 0.01693,0.04103 0.03287,0.08247 0.04779,0.124264 0.01485,0.04214 0.02865,0.08463 0.04142,0.12745 0.01272,0.04219 0.02438,0.08468 0.03505,0.127449 0.0106,0.0433 0.02018,0.08687 0.02868,0.130636 0.0096,0.04333 0.01804,0.08688 0.02549,0.130636 0.0065,0.04553 0.01169,0.09122 0.01593,0.137009 0.0042,0.04452 0.0074,0.08914 0.0096,0.133822 v 0.0032 0.0032 0.0032 0.0032 0.0032 0.0032 0.0032 0.0032 0.0032 0.0032 0.0032 0.0032 0.0032 0.0032 0.0032 c -3e-6,0.0021 -3e-6,0.0043 0,0.0064 v 0.0064 0.0032 c -3e-6,0.0021 -3e-6,0.0043 0,0.0064 -3e-6,0.0021 -3e-6,0.0043 0,0.0064 v 0.0032 0.0032 0.0032 0.0032 0.0032 0.0032 0.0032 0.0032 0.0032 l 0.0032,0.0032 v 0.0032 0.0032 0.0032 0.0032 0.0032 0.0032 0.0032 0.0032 0.0032 0.0032 0.0032 0.0032 c -3.59e-4,0.1301 -0.0099,0.259999 -0.02868,0.388721 -0.0185,0.129285 -0.04619,0.257054 -0.08284,0.382349 -0.03602,0.124113 -0.08074,0.245491 -0.133823,0.363231 -0.05336,0.118991 -0.115125,0.233999 -0.184802,0.344115 -0.07016,0.108436 -0.147899,0.211713 -0.232595,0.309065 -0.08454,0.09997 -0.17611,0.193668 -0.274018,0.28039 -0.09853,0.08384 -0.202886,0.160509 -0.312251,0.229409 -0.107914,0.07173 -0.220783,0.135631 -0.337741,0.191174 -0.118796,0.05338 -0.241253,0.09811 -0.366419,0.133823 -0.123216,0.03653 -0.248862,0.06421 -0.375976,0.08284 -0.12873,0.01891 -0.258633,0.0285 -0.388722,0.02868 -0.129024,-3.29e-4 -0.257864,-0.0099 -0.385535,-0.02868 -0.128192,-0.01848 -0.2549,-0.04617 -0.379163,-0.08284 -0.124081,-0.03586 -0.245467,-0.08059 -0.363232,-0.133823 -0.116952,-0.05555 -0.229825,-0.119432 -0.337741,-0.191174 -0.109406,-0.06967 -0.213753,-0.146323 -0.312291,-0.230166 -0.09791,-0.08672 -0.189484,-0.180427 -0.2740184,-0.28039 -0.0847,-0.09736 -0.1624342,-0.200632 -0.2325953,-0.309065 C 9.6824313,20.95601 9.6206662,20.841009 9.5673047,20.722011 9.5142207,20.604276 9.4695017,20.48289 9.4334813,20.35878 9.3968243,20.233492 9.3691393,20.105709 9.3506393,19.976431 9.3319112,19.847717 9.3223222,19.717805 9.3219633,19.58771 c 2.087e-4,-0.131161 0.00978,-0.262135 0.028676,-0.391909 0.018663,-0.128208 0.046332,-0.254911 0.082842,-0.379163 0.035874,-0.125191 0.080609,-0.247643 0.1338234,-0.366418 0.05349,-0.117914 0.1152553,-0.231836 0.1848016,-0.340927 0.07005,-0.109529 0.1477682,-0.213879 0.2325952,-0.312253 0.084649,-0.09886 0.1762235,-0.191503 0.2740185,-0.277201 0.09834,-0.08602 0.202684,-0.164829 0.312251,-0.235784 0.10811,-0.06954 0.220967,-0.131308 0.337741,-0.184801 0.117686,-0.05432 0.239066,-0.100123 0.363232,-0.137008 0.12426,-0.03667 0.250974,-0.06436 0.379163,-0.08284 0.12767,-0.01876 0.256509,-0.02835 0.385535,-0.02868 z m 0,0.449259 v 0.0032 0.0032 0.0032 0.0032 c -0.106593,-1.43e-4 -0.213072,0.0073 -0.318624,0.0223 -0.107751,0.01566 -0.214234,0.03904 -0.318625,0.0701 -0.1024,0.03104 -0.202495,0.06939 -0.299505,0.114706 -0.09801,0.04413 -0.192784,0.09524 -0.283577,0.152939 -0.09052,0.05852 -0.176766,0.123478 -0.258086,0.194362 -0.08083,0.07199 -0.156432,0.149726 -0.226222,0.232595 -0.0708,0.08127 -0.135761,0.167516 -0.194361,0.258086 -0.05759,0.09075 -0.108697,0.185522 -0.1529404,0.283575 -0.04426,0.09811 -0.08152,0.199262 -0.1115172,0.302693 -0.03092,0.104374 -0.05434,0.210863 -0.0701,0.318624 -0.01517,0.107653 -0.0226,0.216267 -0.0223,0.324997 -2.97e-4,0.10873 0.0072,0.217341 0.0223,0.324997 0.01582,0.106691 0.03933,0.212099 0.0701,0.315437 0.03,0.103428 0.06726,0.204584 0.1115172,0.302694 0.04411,0.09914 0.09522,0.194974 0.1529404,0.286761 0.05861,0.09057 0.123559,0.176819 0.194361,0.258085 0.0699,0.08178 0.145501,0.158438 0.226222,0.229412 0.08132,0.0709 0.16757,0.135843 0.258086,0.194359 0.0907,0.05879 0.185467,0.11097 0.283577,0.156126 0.0971,0.04424 0.19718,0.0815 0.299505,0.111519 0.104391,0.03106 0.210877,0.05448 0.318625,0.0701 0.105549,0.01501 0.212026,0.02245 0.318624,0.0223 0.107669,2.97e-4 0.215205,-0.0072 0.321811,-0.0223 0.106674,-0.01583 0.212089,-0.03918 0.315437,-0.0701 0.103412,-0.02987 0.204564,-0.06713 0.302693,-0.111519 0.09811,-0.04516 0.192877,-0.09733 0.283576,-0.156126 0.09052,-0.05852 0.176767,-0.123462 0.258085,-0.194359 0.08072,-0.07096 0.156317,-0.147638 0.226224,-0.229412 0.0708,-0.08127 0.135761,-0.167515 0.194361,-0.258085 0.05772,-0.09178 0.108828,-0.187619 0.15294,-0.286761 0.04426,-0.09811 0.08152,-0.199262 0.111518,-0.302694 0.03077,-0.103346 0.05419,-0.20875 0.0701,-0.315437 0.01517,-0.107653 0.0226,-0.216267 0.0223,-0.324997 v -0.0032 -0.0032 -0.0032 -0.0032 -0.0032 -0.0032 -0.0032 -0.0032 -0.0032 -0.0032 -0.0032 -0.0032 -0.0032 -0.0032 -0.0032 -0.0032 -0.0032 -0.0032 -0.0032 -0.0032 -0.0032 -0.0032 -0.0032 -0.0032 -0.0032 -0.0032 -0.0064 l -0.0032,-0.0032 v -0.0032 -0.0032 -0.0032 -0.0032 -0.0032 -0.0032 -0.0032 -0.0032 -0.0032 -0.0032 c -0.0012,-0.03723 -0.0033,-0.0744 -0.0064,-0.111518 -0.0033,-0.03728 -0.0077,-0.07446 -0.01275,-0.111519 -0.0065,-0.03628 -0.01403,-0.07241 -0.0223,-0.108332 -0.0065,-0.03736 -0.01387,-0.07454 -0.0223,-0.111518 -0.0098,-0.0353 -0.02039,-0.07036 -0.03186,-0.105146 -0.01077,-0.03639 -0.02247,-0.07251 -0.03505,-0.108332 -0.01191,-0.03429 -0.02468,-0.06829 -0.03823,-0.101959 -0.01403,-0.03542 -0.02887,-0.07048 -0.04461,-0.105148 -0.01615,-0.03335 -0.03318,-0.06626 -0.05098,-0.09877 -0.01729,-0.0323 -0.03536,-0.06417 -0.05417,-0.09559 -0.01943,-0.03129 -0.03961,-0.06211 -0.06054,-0.0924 -0.02049,-0.03132 -0.04173,-0.06214 -0.06372,-0.0924 -0.02158,-0.03029 -0.04388,-0.06003 -0.06691,-0.08921 -0.02271,-0.02817 -0.04608,-0.05579 -0.0701,-0.08284 -0.02586,-0.02829 -0.05241,-0.05591 -0.07966,-0.08284 -0.02594,-0.02613 -0.05249,-0.05164 -0.07966,-0.07647 -0.02702,-0.02511 -0.05464,-0.04955 -0.08284,-0.07328 -0.02919,-0.02304 -0.05894,-0.04535 -0.08922,-0.06691 -0.02919,-0.02304 -0.05894,-0.04536 -0.08921,-0.06691 -0.03034,-0.01985 -0.06114,-0.03898 -0.0924,-0.05735 -0.03245,-0.01995 -0.06536,-0.03907 -0.09877,-0.05735 -0.03253,-0.01674 -0.06546,-0.03267 -0.09877,-0.04779 -0.03359,-0.01679 -0.06759,-0.03272 -0.101959,-0.04779 -0.03367,-0.01354 -0.06767,-0.02631 -0.10196,-0.03823 -0.03476,-0.01256 -0.06983,-0.02422 -0.105146,-0.03505 -0.03584,-0.01158 -0.07195,-0.02215 -0.108332,-0.03186 -0.03592,-0.0083 -0.07203,-0.01583 -0.108332,-0.0223 -0.03595,-0.0072 -0.07207,-0.0137 -0.108333,-0.01912 -0.03597,-0.0062 -0.0721,-0.01153 -0.108332,-0.01593 -0.03711,-0.0031 -0.07429,-0.0052 -0.111518,-0.0064 -0.03715,-0.002 -0.07432,-0.003 -0.111519,-0.0032 z" /></svg>
