<?xml version="1.0" encoding="UTF-8"?>
<svg width="24px" fill="#44739e" height="24px" viewBox="0 0 24 24" version="1.1" xmlns="http://www.w3.org/2000/svg" xmlns:xlink="http://www.w3.org/1999/xlink">
            <path d="M12.095 14.366a1.341 1.341 0 1 0 1.438 1.337 1.391 1.391 0 0 0-1.438-1.337zm0 2.045a.71.71 0 1 1 .762-.708.736.736 0 0 1-.762.708zm6.94-13.753a3.016 3.016 0 0 0-.468-.516.168.168 0 0 0-.11-.041H5.572a.166.166 0 0 0-.124.054 4.233 4.233 0 0 0-.338.437 1.012 1.012 0 0 0-.174.526c-.03.7-.1 2.555-.039 3.068a.156.156 0 0 0 .16.13h13.857a.156.156 0 0 0 .161-.144l.1-3.073a.705.705 0 0 0-.14-.441zm-3.076 6.36-.04.029H8.13l-.062-.05a7.068 7.068 0 1 0 7.891.018zm-7.745 4.556c.192-5.33 7.573-4.9 7.765-.051v1.59a3.86 3.86 0 0 0-3.884-3.066 3.86 3.86 0 0 0-3.88 3.067zm3.882 4.252a2.209 2.209 0 0 1-2.282-2.123 2.209 2.209 0 0 1 2.284-2.123 2.208 2.208 0 0 1 2.284 2.123 2.208 2.208 0 0 1-2.287 2.123zm1.581.765a.43.43 0 0 1-.56-.164.373.373 0 0 1 .176-.52.431.431 0 0 1 .56.164.372.372 0 0 1-.177.52zm-1.163-.058a.424.424 0 1 1-.423-.393.409.409 0 0 1 .423.393zm-1.6-.19a.432.432 0 0 1-.569.133.369.369 0 0 1-.143-.528.433.433 0 0 1 .57-.134.371.371 0 0 1 .142.533zm-1.486-2.64a.424.424 0 1 1-.423-.393.409.409 0 0 1 .427.393zm-.292-1.582a.433.433 0 0 1 .57-.133.372.372 0 0 1 .142.529.434.434 0 0 1-.569.133.37.37 0 0 1-.139-.53zm.111 2.584a.43.43 0 0 1 .56.164.372.372 0 0 1-.177.52.429.429 0 0 1-.559-.164.373.373 0 0 1 .18-.52zm1.25-3.778a.431.431 0 0 1 .56.164.372.372 0 0 1-.176.52.431.431 0 0 1-.56-.164.373.373 0 0 1 .18-.52zm1.171-.054a.424.424 0 1 1 .423.393.409.409 0 0 1-.419-.393zm1.6.308a.434.434 0 0 1 .572-.134.372.372 0 0 1 .143.529.432.432 0 0 1-.569.133.37.37 0 0 1-.143-.528zm1.278.959a.432.432 0 0 1 .56.164.372.372 0 0 1-.176.52.43.43 0 0 1-.56-.164.373.373 0 0 1 .18-.52zm-.224 2.862a.434.434 0 0 1 .57-.134.371.371 0 0 1 .143.529.432.432 0 0 1-.569.133.37.37 0 0 1-.14-.528zm.42-1.3a.424.424 0 1 1 .423.393.409.409 0 0 1-.42-.392zm1.233 2.027c0 4.263-7.27 4.616-7.765.05v-1.487a3.86 3.86 0 0 0 3.882 3.067 3.86 3.86 0 0 0 3.883-3.067zM5.383 6.589l2.84 2.226h7.602l2.8-2.225z"/>

</svg>