<svg xmlns="http://www.w3.org/2000/svg" viewBox="0 0 24 24"><path fill="#44739e" d="M12.072 14.366a1.352 1.352 0 1 0 1.449 1.348 1.4 1.4 0 0 0-1.449-1.348m0 2.061a.716.716 0 1 1 .768-.713.74.74 0 0 1-.768.713m6.996-13.865a3 3 0 0 0-.471-.521.17.17 0 0 0-.111-.041H5.495a.17.17 0 0 0-.125.054 4 4 0 0 0-.341.441 1 1 0 0 0-.175.53c-.03.706-.101 2.576-.04 3.094a.16.16 0 0 0 .162.131h13.97a.157.157 0 0 0 .163-.146l.101-3.098a.7.7 0 0 0-.142-.444m-3.101 6.412-.04.029H8.074l-.063-.05a7.126 7.126 0 1 0 7.956.018Zm-7.808 4.593c.193-5.374 7.635-4.94 7.828-.051v1.603a3.89 3.89 0 0 0-3.915-3.091A3.89 3.89 0 0 0 8.16 15.12Zm3.914 4.287a2.23 2.23 0 0 1-2.301-2.14 2.23 2.23 0 0 1 2.303-2.141 2.23 2.23 0 0 1 2.302 2.141 2.23 2.23 0 0 1-2.305 2.14Zm1.594.771a.434.434 0 0 1-.565-.165.376.376 0 0 1 .177-.524.434.434 0 0 1 .565.165.373.373 0 0 1-.179.524Zm-1.173-.058a.427.427 0 1 1-.427-.396.413.413 0 0 1 .427.396m-1.613-.192a.434.434 0 0 1-.574.134.373.373 0 0 1-.144-.532.437.437 0 0 1 .575-.135.373.373 0 0 1 .143.537Zm-1.498-2.661a.427.427 0 1 1-.427-.397.413.413 0 0 1 .431.397Zm-.295-1.595a.437.437 0 0 1 .575-.134.373.373 0 0 1 .143.533.44.44 0 0 1-.574.134.373.373 0 0 1-.14-.534Zm.112 2.605a.434.434 0 0 1 .565.165.373.373 0 0 1-.179.524.434.434 0 0 1-.563-.165.376.376 0 0 1 .181-.524Zm1.26-3.809a.434.434 0 0 1 .565.165.373.373 0 0 1-.177.524.434.434 0 0 1-.565-.165.376.376 0 0 1 .181-.524Zm1.181-.055a.427.427 0 1 1 .426.397.413.413 0 0 1-.422-.397Zm1.613.311a.44.44 0 0 1 .577-.135.373.373 0 0 1 .144.533.434.434 0 0 1-.574.134.373.373 0 0 1-.144-.532Zm1.289.967a.434.434 0 0 1 .564.165.373.373 0 0 1-.177.524.434.434 0 0 1-.565-.165.376.376 0 0 1 .182-.524Zm-.226 2.885a.44.44 0 0 1 .574-.135.373.373 0 0 1 .145.533.434.434 0 0 1-.574.135.373.373 0 0 1-.141-.533Zm.423-1.31a.427.427 0 1 1 .427.396.413.413 0 0 1-.424-.395Zm1.243 2.043c0 4.298-7.329 4.654-7.828.051v-1.5a3.89 3.89 0 0 0 3.914 3.093 3.89 3.89 0 0 0 3.914-3.093ZM5.304 6.525l2.864 2.244h7.664l2.823-2.243Z"/></svg>