<svg xmlns="http://www.w3.org/2000/svg" viewBox="0 0 24 24"><path fill="#44739e" d="m8.808 2-.279.021-.3.022-.322.032-.322.043-.279.043-.108.021v15.537l.269.096.257.033.183.01h1.18V2Zm.612 0-.011 2.135h5.182V2Zm5.493 0v15.858h1.18l.172-.01.258-.033.279-.096V2.182l-.119-.021-.268-.043-.332-.043-.322-.032-.29-.022L15.192 2ZM9.409 4.779v10.3h5.182v-10.3Zm2.586 1.212a1.77 1.77 0 0 1 1.77 1.771 1.77 1.77 0 0 1-1.77 1.77 1.77 1.77 0 0 1-1.771-1.77 1.77 1.77 0 0 1 1.771-1.771m0 .269a1.5 1.5 0 0 0-1.503 1.502 1.5 1.5 0 0 0 1.503 1.502 1.5 1.5 0 0 0 1.502-1.502 1.5 1.5 0 0 0-1.502-1.502m0 .322a1.18 1.18 0 0 1 1.18 1.18 1.18 1.18 0 0 1-1.18 1.18 1.18 1.18 0 0 1-1.181-1.18 1.18 1.18 0 0 1 1.181-1.18m0 .643a.536.536 0 0 0-.537.537.536.536 0 0 0 .537.536.536.536 0 0 0 .536-.536.536.536 0 0 0-.536-.537m0 6.202a.536.536 0 0 1 .536.537.536.536 0 0 1-.536.536.536.536 0 0 1-.537-.536.536.536 0 0 1 .537-.537M9.42 15.573l-.011 2.285h5.182v-2.285Zm1.469 2.521.237.623h1.813l.236-.623Zm2.318.837-2.35.011-.397.504h3.09Zm-4.12.751-1.631.494-.161.139v1.149l9.421.064V20.24l-.129-.096-1.674-.462Zm-1.803 2.06V22h9.432v-.258Z"/></svg>