<svg xmlns="http://www.w3.org/2000/svg" viewBox="0 0 24 24"><path fill="#44739e" d="m8.14 2-.258.051-.216.114-.278.247-.236.236.442-.195.206-.093.309-.072h6.886l.376.014.109.028.122.113 4.591 5.177.196.258.072.195v.185l-.01 7.154v.288l-.062.217-.165.308-4.982 5.054-.329.268-.237.062-.319.031-6.413-.443-.195-.041-.309-.165.123.196.391.34 6.681.473h.257l.33-.134.267-.206.597-.556 3.819-3.901.597-.628.247-.35.124-.329v-7.71l-.093-.381-.052-.133-.216-.309-2.429-2.728-1.729-1.945-.443-.453c-.163-.12-.205-.233-.473-.237h-7.02Zm-.409.913c-.389 0-.657.4-.657.4L3.445 7.619c-.343.408-.317.732-.317.732l.06 6.392c.004.395.269.669.269.669l3.736 4.704c.323.408.566.412.566.412l5.63.515s.47.015.731-.258l4.159-4.323s.292-.208.298-.71l.093-6.845a1.08 1.08 0 0 0-.302-.771L14.12 3.267c-.169-.194-.432-.35-.69-.35ZM8.84 8.391c.393.093.393.651 0 .741h-.021a.34.34 0 0 1-.286-.379.33.33 0 0 1 .307-.362M7.285 9.627q.222.013.422.103a.9.9 0 0 1 .311.237.26.26 0 0 1 .05.154c0 .145-.194.289-.307.145a.57.57 0 0 0-.465-.196.58.58 0 0 0-.443.216 1.34 1.34 0 0 0-.268.782l-.061 2.358a.19.19 0 0 1-.06.164c-.124.124-.289.021-.289-.154l.061-2.368a1.8 1.8 0 0 1 .289-1.029.9.9 0 0 1 .761-.412m1.521.105c.092.004.179.091.179.226l-.072 3.541a.2.2 0 0 1-.062.154.175.175 0 0 1-.299-.154l.073-3.551a.24.24 0 0 1 .061-.165.15.15 0 0 1 .12-.051m2.031 0c.195-.014.391.024.566.111.451.282.709.789.67 1.319l-.062 2.409a.19.19 0 0 1-.062.164c-.113.124-.288.021-.288-.154l.062-2.429a1.03 1.03 0 0 0-.474-.916c-.514-.278-1.142.163-1.142.874l-.062 2.408a.22.22 0 0 1-.062.165c-.123.123-.298.021-.298-.154l.062-2.43a1.7 1.7 0 0 1 .113-.545 1.09 1.09 0 0 1 .977-.822m3.208.117c.171.004.342.043.498.118.453.281.715.786.68 1.318l-.072 2.676a1.287 1.287 0 0 1-1.184 1.369 1.15 1.15 0 0 1-1.03-.556.24.24 0 0 1 0-.123.196.196 0 0 1 .268-.196q.039.035.062.082a.6.6 0 0 0 .288.237 1 1 0 0 0 .35.082.926.926 0 0 0 .834-.957v-.504a1.03 1.03 0 0 1-.813.37 1.287 1.287 0 0 1-1.133-1.42v-1.163q.012-.279.103-.546c.13-.504.638-.799 1.149-.787m-.099.382c-.415.012-.792.411-.792.951l-.011-.031v1.153a.896.896 0 0 0 .783 1.029.916.916 0 0 0 .833-.957v-1.143a1.03 1.03 0 0 0-.463-.916.7.7 0 0 0-.35-.086"/></svg>