<svg xmlns="http://www.w3.org/2000/svg" viewBox="0 0 24 24"><path fill="#44739e" d="M11.698 2.001c-3.231-.011-3.199.126-3.6.285l-4.15 1.752c-1.182.423.877.37 2.767.444 4.497.169 4.371 0 5.152-.296l3.885-1.763c.317-.296.454-.422-4.054-.422m4.593.316v.064l-.053.063-.444.243-.422.211-2.587 1.193-.717.348-.56.212-.412.074-.401.063-.338.021-.295.021-.296.011H8.351l-3.663-.106-.866-.074-.222-.074-.095-.074-.032-.105-.031-.148-.053.211v.148l.285 1.784.032.095.2.18.254.031.348.011 5.184.201h.454l.507-.043.433-.074.538-.095.412-.095 1.499 10.453-.243.063-.243.053-.2.042-.19.042-.233.043-.242.031-.233-.01h-.654l-.18-.012-.179-.011-.391-.041-4.593-.38-.095-.01-.158-.032-.169-.063-.095-.043L3.906 6.678l-.095-.064-.105-.117 1.615 10.167.053.339.063.064.137.084.159.064.433.052 4.92.486h1.245l.233-.042.232-.032.275-.053.295-.074.264-.063.391-.148.633-.338.855-.485.961-.602.972-.602.221-.137.243-.169.063-.053.022-.063Zm1.7 2.439.105.036-.042-.025Zm.105.036a4.08 4.08 0 0 1 2.133 3.417 3.97 3.97 0 0 1-2.238 3.948l.411-.105a3.695 3.695 0 0 0 2.112-4.223 3.4 3.4 0 0 0-2.418-3.037m-.94-.006a2.5 2.5 0 0 0-.39.012l1.056 7.211c2.111-.886 2.375-4.17 1.488-5.775a2.49 2.49 0 0 0-2.154-1.448M4.571 7.122l1.468 9.27 4.814.348L9.46 7.373l-4.804-.251Zm2.421 1.402c1.245-.037 1.778.701 2.045 1.825.159 1.267-.194 2.106-1.172 2.321-.713.043-1.735-.79-1.962-2.009-.159-1.151.343-1.921 1.089-2.137m.085.431c-.577.148-.88.795-.764 1.65.15.807.67 1.465 1.468 1.595.67-.109.981-.845.854-1.774-.215-.899-.702-1.499-1.558-1.471m.285 1.166h.017c.259-.026.403.177.443.438.088.249-.028.517-.253.542-.25.027-.451-.239-.465-.496 0-.255.08-.472.259-.485m10.375 5.479-3.558 2.152-.538.203-.813.179-.655.061h-.887l-5.321-.569 1.267 1.246.211.148 7.94.559h.401l.19-.042.116-.105.106-.19Zm-9.935 3.864a4.16 4.16 0 0 0 3.981 2.534 4.47 4.47 0 0 0 3.389-1.986Z"/></svg>