<svg xmlns="http://www.w3.org/2000/svg" viewBox="0 0 24 24"><path fill="#44739e" d="m8.82 8.954.025-3.416-1.624.002-.005 3.422Zm.217-.004.008-3.412h.224L9.261 8.95Zm4.512 6.018a1.568 1.568 0 1 0-2.676 1.109 1.568 1.568 0 0 0 2.676-1.109m.784 0a2.352 2.352 0 1 0-4.015 1.663 2.351 2.351 0 0 0 4.015-1.663m-2.352-1.991h.032a1.969 1.969 0 1 1-1.413 3.377 1.982 1.982 0 0 1 1.381-3.377m4.8-3.677H7.209v12.6l.058.052.076.048h1.549l6.272-.008h1.528l.055-.063.037-.087c.016-4.158-.004-8.415-.003-12.542m-1.625 12.12-6.269-.006c-.069-3.658-.036-7.32-.042-10.979l6.311.045Zm-.455-12.464h.259l-.031-3.418h-.228ZM8.845 5.194v-.001h7.839l.097-.003.005-3.19-1.669.002H8.845l-1.631.007.001 3.192Zm.816 1.99a2.8 2.8 0 0 0 .493 1.45h3.606a2.93 2.93 0 0 0 .51-1.45 2.36 2.36 0 0 0-.51-1.411h-3.606a2.35 2.35 0 0 0-.493 1.411m2.32-1.176a1.176 1.176 0 1 1-.831 2.007 1.177 1.177 0 0 1 .831-2.007m.005 1.824a.667.667 0 0 0 .666-.667.667.667 0 0 0-.667-.666.667.667 0 0 0-.665.668.666.666 0 0 0 .666.665m3.176 1.124 1.619.004.001-3.424-1.632-.005Z"/></svg>