<?xml version="1.0" encoding="UTF-8"?>
<svg width="24px" fill="#44739e" height="24px" viewBox="0 0 24 24" version="1.1" xmlns="http://www.w3.org/2000/svg" xmlns:xlink="http://www.w3.org/1999/xlink">
            <path d="M 7.763,5.661 A 0.845,0.845 0 1 0 8.608,6.506 0.846,0.846 0 0 0 7.763,5.661 Z m 0,1.378 A 0.533,0.533 0 1 1 8.3,6.506 0.533,0.533 0 0 1 7.763,7.039 Z M 22,15.723 V 10.79 a 2.609,2.609 0 0 0 -1.6,-2.411 2.622,2.622 0 0 0 -2.053,0 2.675,2.675 0 0 0 -0.821,0.557 2.618,2.618 0 0 0 -0.557,0.834 2.556,2.556 0 0 0 -0.206,1.021 v 2.119 a 2.551,2.551 0 0 0 0.206,1.027 2.61,2.61 0 0 0 1.383,1.383 2.651,2.651 0 0 0 2.02,0.01 2.6,2.6 0 0 0 0.821,-0.53 v 0.924 a 1.749,1.749 0 0 1 -0.147,0.7 1.819,1.819 0 0 1 -0.966,0.966 1.764,1.764 0 0 1 -0.706,0.142 2.56,2.56 0 0 1 -0.785,-0.128 1.531,1.531 0 0 1 -0.731,-0.5 0.331,0.331 0 0 0 -0.155,-0.141 0.484,0.484 0 0 0 -0.168,-0.034 0.418,0.418 0 0 0 -0.288,0.115 0.366,0.366 0 0 0 -0.127,0.289 0.383,0.383 0 0 0 0.066,0.229 1.7,1.7 0 0 0 0.423,0.43 2.635,2.635 0 0 0 0.564,0.307 3.392,3.392 0 0 0 0.615,0.182 3.1,3.1 0 0 0 0.592,0.061 2.56,2.56 0 0 0 1.021,-0.206 A 2.6,2.6 0 0 0 21.8,16.75 2.55,2.55 0 0 0 22,15.723 Z m -0.947,-2.114 a 1.814,1.814 0 0 1 -2.377,0.967 1.8,1.8 0 0 1 -0.577,-0.389 1.815,1.815 0 0 1 -0.39,-0.578 1.765,1.765 0 0 1 -0.141,-0.71 V 10.79 a 1.762,1.762 0 0 1 0.141,-0.7 1.817,1.817 0 0 1 3.348,0 1.762,1.762 0 0 1 0.141,0.705 V 12.9 a 1.752,1.752 0 0 1 -0.149,0.709 z M 15.145,10.79 a 2.538,2.538 0 0 0 -0.205,-1.021 2.576,2.576 0 0 0 -1.39,-1.39 2.622,2.622 0 0 0 -2.053,0 2.687,2.687 0 0 0 -0.821,0.557 2.652,2.652 0 0 0 -0.557,0.834 2.538,2.538 0 0 0 -0.205,1.021 v 4.462 a 0.357,0.357 0 0 0 0.127,0.3 0.425,0.425 0 0 0 0.551,0 0.357,0.357 0 0 0 0.127,-0.3 v -4.462 a 1.779,1.779 0 0 1 0.141,-0.7 1.815,1.815 0 0 1 3.344,0 1.78,1.78 0 0 1 0.142,0.705 v 4.462 a 0.357,0.357 0 0 0 0.127,0.3 0.424,0.424 0 0 0 0.55,0 0.361,0.361 0 0 0 0.128,-0.3 z M 8.165,8.709 a 0.364,0.364 0 0 0 -0.127,-0.3 0.425,0.425 0 0 0 -0.551,0 0.359,0.359 0 0 0 -0.127,0.3 v 6.544 a 0.357,0.357 0 0 0 0.127,0.3 0.425,0.425 0 0 0 0.551,0 0.361,0.361 0 0 0 0.127,-0.3 z M 6.016,8.827 A 2.134,2.134 0 0 0 5.237,8.343 2.564,2.564 0 0 0 4.35,8.169 2.3,2.3 0 0 0 3.324,8.383 2.124,2.124 0 0 0 2.592,8.971 2.519,2.519 0 0 0 2.149,9.83 3.618,3.618 0 0 0 2,10.884 v 4.37 a 0.359,0.359 0 0 0 0.127,0.3 0.419,0.419 0 0 0 0.55,0 0.36,0.36 0 0 0 0.128,-0.3 v -4.37 a 2.16,2.16 0 0 1 0.41,-1.41 1.392,1.392 0 0 1 1.135,-0.5 1.668,1.668 0 0 1 1.1,0.414 0.415,0.415 0 0 0 0.282,0.121 0.407,0.407 0 0 0 0.3,-0.118 0.389,0.389 0 0 0 0.121,-0.282 v 0 A 0.4,0.4 0 0 0 6.016,8.827 Z"/>

</svg>
