<svg xmlns="http://www.w3.org/2000/svg" fill="#44739e" width="24" height="24" version="1.1" viewBox="0 0 2400 2400"><path d="M1448 1006h-106l-6-26v-19a965 965 0 00 112 45zm189 360a456 456 0 00 105-38 552 552 0 00 252-375A661 661 0 00 2000 724a638 638 0 00-67-210 93 93 0 01 6 46 106 106 0 01-14 41c-10 18-16 18-20 32-4 14 0 10 0 37v89a434.8 434.8 0 01-6 46c-5 19-11 34-12 37a259 259 0 01-37 58 327 327 0 01-28 37 311 311 0 01-44 38 291 291 0 01-68 38 190 190 0 01-46 15 225 225 0 01-47 0 500 500 0 00-78 0 252 252 0 01 118 38c16 9.1 30.4 20.6 43 34 13.4 18.6 23 39.6 28 62 6.7 21 8.4 43.2 5 65a137 137 0 01-19 53 224 224 0 01-41 56 283 283 0 01-36 30zm-865-359-19 34H710a513 513 0 01-79-24A336 336 0 01 449 900a579 579 0 01-100-215 365.4 365.4 0 01-13.3-73.8c-1.4-18-3.3-32-5-46l19.2-5.4 12-.4C379.6 669.9 428.1 782.2 500 868c66 79 85 98 272 139Zm-19 34s6-12 9-17l9-17C900 754 471.7 524.2 330.7 565.2c0 0 263.3-81.2 325.3-54.2a480 480 0 01 155 208 582 582 0 01 29 270l-34 23Zm308-295C1093 857 900 951 866 965v-48a170 170 0 00 92-32 153 153 0 00 100-148 292 292 0 00-218-11l7 7 7 11c0 6 30 7 121-9m86 17a100 100 0 01-49 100c-52 33-143 59-143 40v-27c47-25 165 2 192-113ZM910 578a1209 1209 0 01-137 9c0-11-13-14-16-18-3-4 84-29 157-10 73 19 134 65 129 80a180 180 0 00-133-61Zm-90 116c0-10-12-13-14-18-2-5 75-28 139-9 64 19 119 56 114 72-74-93-182-34-239-45Zm108-66a1011 1011 0 01-137 9c0-10-13-13-16-18-3-5 84-29 156-9 72 20 135 65 129 80a175 175 0 00-132-62Zm128 124c7 10 0 18-48 48s-139 43-139 25L859 800c30-11 147 0 197-48zM880 533a1454 1454 0 01-150 9c0-11-15-14-18-18-3-4 93-29 172-10 79 19 148 65 142 81a200 200 0 00-146-62Zm176 219 6-34v-35l-10-34-25-49 161-52-46 66-12 19-5 17-5 12v71Zm610-382 87 40 66 54a88 88 0 00-89-133 100 100 0 00-64 39Zm187.3 124.4 20.7 33.7 11.6 29.4 8.5 31 9.2-13 10.2-24.5 4-12 2-9.8.5-18.2-23-30-34-42-7 27-7.5 20.8zm32.7 112.6v-16l-8-28-11-29-22-34-11-18 12.7-22.1 5.8-26-2.3-27 52.8 69 24 31v32.8l-5 13-17 37Zm-739 64-3.5 21.4C1114.3 870 1363 973 1515 1004c75 14 152.7 1 219-37 214-126.8 206.1-439.2-14-555 0 0-220-112-493 140a343 343 0 00-72 100l-8 23h22c5-10 13-25 17-35 49-74 67-74 100-87a740 740 0 01 216 0 477 477 0 01 229 75c60.9 33.7 99 97.4 100 167a259 259 0 01-274 190A572 572 0 01 1240 850c-26-31-72-79-75-119L1164.6 700l4.4-25h-22zm499 719c107 0 345-168 384-415 46-293-45-475-130-518l84 18c191 90 168 427 131 595-15 100-200 338-352 336-44 1-142-15-117-16zm-98-324-4-15m0-3c179 14 222 200 100 283 91.8-92 35.3-249.3-94-262zm12 52c104.9 24.3 138 157.2 57 228zm-390 851a216 216 0 00 218 110 231 231 0 00 164-119zm492-248-172 128-27 13-41 13-33 7-46 4-276-3 71 58 12 6 411-10 20-2 10-3 5-6 5-10zM1100 1472c13 0 21 8 25 21 13 36-33 39-37 6-2-15 1-26 12-27zm-23-59c-29 10-41 45-31 89a100 100 0 00 84 74c34-8 44-33 33-80-11-47-42-89-86-83zm-6-22c64-8 100 38 115 95 15 57 0 100-50 114-102 9-163-170-65-209zm451-367 149 639-11 10-100 80-42 29-31 21-19 9-28 10-11.3 4-13.1.3-14 .8-63.6 1h-294l-8-17L900 1300.2l12 8h48l117 448h200L1164 1300l-257 10L900 1300l-23-90v-21 13h62l189-12 73-7h15l32-5 21-6 20-6 28-13 35-22 127-74 21-13 22-14zm-241 8c-167 15-164 22-184 32l-205 111c-58 28 47 15 145 9 232-13 224-21 263-40l191-110c15-17 21-24-210-2"/></svg>
