<svg xmlns="http://www.w3.org/2000/svg" viewBox="0 0 24 24"><path fill="#44739e" d="M8.169 2a.61.61 0 0 0-.608.608v18.784a.597.597 0 0 0 .608.607H15.8a.61.61 0 0 0 .639-.607V2.608A.62.62 0 0 0 15.831 2Zm0 .227h7.652a.39.39 0 0 1 .391.381v18.784a.39.39 0 0 1-.381.381H8.169a.38.38 0 0 1-.381-.381V2.608a.38.38 0 0 1 .381-.381m1.401 2.09-.155.165v7.332h.34c.094-1.409 1.177-2.113 2.259-2.113 1.084 0 2.166.704 2.262 2.113h.35V4.482l-.154-.165Zm2.399.855a1.7 1.7 0 0 1 1.668 1.678 1.68 1.68 0 0 1-1.668 1.658 1.668 1.668 0 0 1 0-3.336m0 .226v.021a1.442 1.442 0 1 0 1.432 1.431 1.473 1.473 0 0 0-1.432-1.452m.007.67a.77.77 0 0 1 .764.782.77.77 0 0 1-.772.763.772.772 0 0 1-.103-1.539 1 1 0 0 1 .111-.006m-.008.515a.257.257 0 0 0 0 .515.257.257 0 0 0 0-.515m.046 3.385c-1.184.033-1.97.863-1.997 2.048.164 2.369 3.758 2.844 4.011-.021-.064-1.265-.851-1.969-2.014-2.027m.042.394A1.586 1.586 0 0 1 13.605 12a1.586 1.586 0 0 1-1.585 1.534 1.586 1.586 0 0 1-.193-3.159 2 2 0 0 1 .227-.013m-.035.309a1.277 1.277 0 0 0 0 2.554 1.277 1.277 0 0 0 0-2.554m2.245 1.514c-.153 1.54-1.081 2.069-2.256 2.07a2.307 2.307 0 0 1-2.265-2.06h-.33v7.219l.155.165h4.902l.154-.165v-7.229Z"/></svg>