<svg xmlns="http://www.w3.org/2000/svg" fill="#44739e" width="24" height="24" version="1.1" viewBox="0 0 24000 24000"><path d="M15876 13924c44 0 35-15-23-40a541 541 0 00-163-40c-44 0-35 15 23 40a487 487 0 00 163 40zm232 2891a500 500 0 00 300 0c100-26 244-60 315-74 71-15 117-47 100-72-42-67-224-54-327 23a608 608 0 01-300 73c-182 4-196 10-88 50Zm-930-3515a573 573 0 00 257 69c117-10 124-18 46-50a1600 1600 0 00-255-70c-162-30-162-30-47 40zm1690 3583c73 64 146 100 163 88 35-36-168-208-243-206-29 0 12 54 80 118zm-5075-8057c-28 0-27 50 0 135 58 156 230 332 230 232s-174-367-230-367zm3730 4774a128 128 0 00-95-40 563 563 0 01-200-64c-145-73-380-136-380-100a1514 1514 0 00 526 200c102 29 165 28 148 4zm-400 284c140 0-23-100-274-163-200-52-230-53-180 0a1015 1015 0 00 453 163zM12000 8400a321 321 0 01-41-221c42-100 59-3130 23-3965-26-574-72-787-154-700-16 16-9 81 16 145a4400 4400 0 01 11 866c-18 412-26 833-18 935 16 200 16 266 0 1442a5083 5083 0 00 27 855c28 46 20 52-27 24-48-28-54-26-10 27a373 373 0 01-14 326 70 70 0 01-17 13h-6c-8 5 0 20-8 26-47 58-24 173 74 265 157 155 230 136 144-38Zm5722 7922a582 582 0 01 161-112c158-82 161-148 12-315l-116-130 72 179a400 400 0 01 47 205c-15 14-26 11-26-7s-42-10-93 17a175 175 0 00-92 130c0 45 13 59 35 33zm343-1107a538 538 0 01 291 72 1122 1122 0 00 213 94 392 392 0 01 110 45c60 34 70 32 50-8s90 9 240 86a674 674 0 00 310 108c17-18 25-12 17 13s0 47 12 47a383 383 0 01 116 70c81 64 83 63 26-10-34-44-50-100-35-123 15-23-60-90-168-146a2383 2383 0 01-309-190 456 456 0 00-238-89 1000 1000 0 01-345-110l-219-112-90 100c-118 123-115 186 10 153zm804 4520c15 23 94 32 177 19 220-38 217-61-7-61-108 0-185 19-170 42zM17600 16276l40-93c59-139 54-331-12-385-45-38-57-10-51 122 0 93 10 212 14 263zM11885 3435c0 13 23-37 45-110a371 371 0 00-27-280c-66-142-66-140-45 112 12 136 24 265 27 278zm5937 11535c0-20 27-10 59 17 32 27 85 27 150-24 65-50 70-64 18-46a128 128 0 01-117-12 148 148 0 00-130 0c-61 21-72 42-35 65 37 23 55 23 55 0zm-6500-1528a953 953 0 00 231 139c140 71 220 94 207 57-38-115-438-291-438-196zm-485-393c-74 0-66 13 40 69a787 787 0 00 325 65h198l-233-65a2000 2000 0 00-330-69zm874 266a1988 1988 0 00 536 178c40-40-307-207-431-208-74 0-122 15-105 30zm-727 1498a1821 1821 0 01 326 78c206 65 258 68 306 16 48-52 42-56-24-33-45 16-81 12-81-10 0-85-500-230-570-163-59 67-30 112 54 112zm62-547a2900 2900 0 00 894 300 3073 3073 0 00-825-336c-122-30-130-24-69 36zm697 1053c0 39 190 108 219 80 7-20-40-50-100-78-61-30-120-40-120-12zM11557 9300a1221 1221 0 00 232 100c100 31 110 27 46-40a513 513 0 00-232-100c-160-25-160-24-46 40Zm-173 3480c89-84 154-100 441-90 217 6 330 28 318 60-12 32 43 50 127 51a2116 2116 0 01 286 30c612 117 844 182 900 254a1284 1284 0 00 500 274c10-20-68-100-174-200l-192-176 180 23c150 20 164 14 90-30a1694 1694 0 01-445-478 4836 4836 0 00-550-585 5739 5739 0 01-676-744c-109-186-307-328-307-220a87 87 0 00 40 65 700 700 0 01 100 240 460 460 0 00 124 238 284 284 0 01 114 120c43 80 39 90-28 64-324-124-423-52-118 86 100 46 186 110 186 142 0 32 100 90 210 130a1326 1326 0 01 332 166c116 91 117 100 20 100a844 844 0 01-288-100c-178-90-185-90-140-8a940 940 0 00 519 430 947 947 0 01 274 122c107 100-157 81-488-30a2832 2832 0 00-1054-132 353 353 0 01-159 37c-108 0-248 112-248 200 0 25 44 4 106-50zm2673 1775a889 889 0 01-267-217l-165-184-333 31c-300 28-344 21-426-62-82-83-100-83-120-20-17 40-23 78-16 83a2847 2847 0 00 610 326c173 55 178 61 50 56a459 459 0 00-190 26c-28 17-100-10-157-60a382 382 0 00-167-93 1431 1431 0 01-494-225c-44-37-80-50-80-30a1989 1989 0 00 672 543c154 80 331 180 400 223 171 118 570 244 546 174-10-30-75-63-143-72-180-20-150-92 50-128 295-54 455-300 230-370zm-700-183c-100-15-175-48-175-72 0-62 250-56 393 10 143 64 160 131 37 106a8438 8438 0 00-255-44zm-10 345c37-60 242-55 262 6 10 27 54 34 100 16 75-29 70-40-47-92s-114-60-40-62a1856 1856 0 01 268 26c100 16 170 51 160 80a77 77 0 01-60 54c-24 0-143 20-265 38-233 38-425 10-378-66zm-3206 1501c90 65 394 136 394 95a1116 1116 0 00-362-135c-119-27-120-25-32 40zm1938-5504a1457 1457 0 01-80-370c-26-222-52-282-162-360l-132-94 11 100a983 983 0 00 90 254l76 150-200-60-200-60 300 300c292 294 396 343 297 140zm-1797 6101a781 781 0 00 200 137c93 52 253 141 355 208a731 731 0 00 350 110h161l-186-55a1631 1631 0 01-400-200c-212-149-530-282-480-200zm1123-1515c121 22 122 21 33-62a1994 1994 0 00-577-272c-40-13-13 31 56 100a852 852 0 00 488 234zm930-483c15 60 63 90 145 90 100 0 206 11 308 25l185 25-162-89a1250 1250 0 00-330-115c-150-23-168-15-147 64zm-668 2413a120 120 0 00 112 10c47-19 60-10 38 26s-13 54 12 54a580 580 0 01 130 32c70 30 70 23-10-63a2050 2050 0 00-810-290 573 573 0 00 240 110 1381 1381 0 01 280 111zm-2945 1902c-100 0-188 20-188 46s70 46 159 46a282 282 0 00 190-46c17-28-42-46-160-46Zm4925 368c0 31 194 47 500 44 390 0 458-13 313-44a1889 1889 0 00-813 0zm-90 438c0 110 200 87 220-28 12-62-12-79-100-72-88 7-120 38-120 100zm-5506-377 277 40c176 26 293 24 322-6 29-30-63-44-276-40zm6432 356c0 65 24 82 93 64 50-13 92-53 92-89s-40-64-92-64a81 81 0 00-93 68 74 74 0 00 0 21zm3877-607c-200-10-300 0-300 37 0 56 378 107 523 72 171-42 66-94-223-110zm-5519 646c62 150 481 100 481-56 0-80-140-165-276-165-53 0-100-20-100-46 0-25 100-47 221-48 200 0 214-7 130-70a252 252 0 00-353 28c-125 100-94 174 112 268l146 67-192-14c-140-10-186 0-169 46zm-5348-76a456 456 0 00-232-6c-60 22 37 46 280 70a2355 2355 0 01 440 70c100 48 541 108 500 66a1555 1555 0 00-706-187 705 705 0 01-282-13Zm-46-787c67 50 360 43 328-7-14-23 21-30 80-16 57 14 88 10 57-23a600 600 0 00-256-69 1276 1276 0 01-300-60c-86-36-87-32-23 51a792 792 0 00 114 124zm1125-159c245 0 324-8 245-34a1057 1057 0 00-547-8c-33 21 100 40 302 42zm-1716 323c44-10 0-20-100-20s-144 10-86 20a485 485 0 00 186 0zm-593-90c0-17-84-35-186-35a500 500 0 00-185 18 512 512 0 00 185 36c100 7 186 0 186-18zm1486 333a9995 9995 0 00-1022-90 209700 209700 0 01-1253-70c-266-19-365-13-300 17a681 681 0 00 232 47 779 779 0 01 272 73c147 77 232 93 123 24-66-42 170-38 1625 23 358 18 443 11 323-24zm-1237 305c-800-60-979-77-1130-100a358 358 0 00-200 11c-69 70-30 90 206 100a1057 1057 0 01 290 45 1059 1059 0 00 337 17c350-18 485 18 447 117-23 60-12 64 60 26 105-56 107-57 344-57 100 0 186-18 186-40 2-54-159-90-540-119Zm7510 146c0 100 200 61 224-42 15-79-47-100-166-50a100 100 0 00-58 92zm1360 68c-50 20 70 30 280 30a1177 1177 0 00 346-20 1751 1751 0 00-625-20zm-602-820a1030 1030 0 00-600-80c-88 30-88 30 0 63a2071 2071 0 00 415 55c317 24 327 22 185-47zm-167 1330-113-107h-2578c-2539 0-2580 0-2700 100a300 300 0 00-60 420l17 21c194 194 311 206 2044 206 914 0 2026-14 2472-30 762-30 818-38 918-138a321 321 0 00 21-453zm3327-706a1052 1052 0 00-207-40c-12 0-106 14-210 23a7619 7619 0 00-765 134 1121 1121 0 00-140 56c-200 86 846 73 1053-13 207-86 254-89 155-20-53 37-42 41 47 17 242-68 257-104 67-157zm72-458c0-65-232-70-523-14-315 62-250 101 140 87 270-10 383-32 383-73zm-557 267c-93 30-74 37 93 31a1137 1137 0 01 313 31c72 21 110 18 110-8 5-92-293-123-506-54zM10200 19540l-132 30 120 100a348 348 0 01 120 211 378 378 0 00 68 200c64 84 70 77 70-105a361 361 0 01 130-314l126-117h-123a827 827 0 01-186-18 522 522 0 00-193 13Zm615 50a332 332 0 00 38 386c223 200 506 0 446-314-25-136-100-264-118-200l-25 176c-33 264-54 300-134 232a200 200 0 01-70-133 327 327 0 00-46-145c-40-62-50-62-90-3zm616 500a409 409 0 00 165-38 400 400 0 01 286 0c90 32 140 33 140 0a1278 1278 0 00-220-425c-76-85-364-117-314-35a119 119 0 00 92 46c46 0 34 58-48 220a915 915 0 00-100 232zm570-1256a138 138 0 00 0-45c-43-110-144-127-227-36-83 90-47 237 66 237a160 160 0 00 160-155Zm-2179 696a653 653 0 00 36 500c87 33 100-13 80-294-16-225-44-276-116-206Zm1011-659c-200-70-230-72-882-20a4600 4600 0 01-632 10c-132-15-227 0-247 30-20 30 241 50 961 50 918 0 977-8 800-70zM9305 20150c75 15 82 6 36-49-46-55-74-408-34-408a1055 1055 0 01 87 162 545 545 0 00 165 209c77 40 86 33 65-57a6008 6008 0 01-45-245c-38-231-57-255-200-255a240 240 0 00-230 120c-70 110-72 141-12 314 43 123 100 200 158 209zm3323-270c-29-47-60-49-133-10-89 47-100 35-135-143-62-313-160-286-144 38l14 272 167 14c180 15 294-70 231-171zm1061-4256c-100 59-100 69-15 59a258 258 0 00 148-67c78-78 14-74-133 8zm-2367 2207c0-26-94-46-209-46a640 640 0 00-209 19 830 830 0 00 243 72c134 28 293 64 355 80 78 19 100 12 79-25a200 200 0 00-146-53c-59 0-113-21-113-47zm30-321h-143l155 68c114 49 148 88 128 147-20 59-22 70 36 0 58-71 73-73 215 59 142 132 500 261 553 200 35-30-50-86-433-286a1558 1558 0 00-510-188Zm1629-1366c7-7-61-46-151-87-90-41-156-53-146-23 16 46 268 140 297 110zM10814 18200c-227 26-241 33-127 67 168 52 770-10 680-67-67-45-154-45-553 0zm1486-2100-92-100 69 143c93 194 244 254 543 217l246-30-338-58c-250-46-362-88-428-172Zm163 2100c-17 27 40 46 140 46s155-19 138-46a231 231 0 00-278 0zm-340-755a369 369 0 00 161 0c45-10 10-20-80-20s-123 10-82 20zm-3240-490c-100 36-84 41 166 70a1384 1384 0 01 221 40c32 10 58-1 58-15 0-57-350-133-445-96zm448-409a1028 1028 0 00 532 124c66-23 27-41-140-65a3595 3595 0 01-326-60c-50-13-80-13-66 0zm1054 1830a485 485 0 00 186 0c44-14 0-23-105-22-105 1-139 10-80 21zM7192 17270c0 57 200 180 355 216 120 27 125 23 63-40-88-90-418-228-418-176Zm3018 968a1400 1400 0 00-348 14c-89 20 0 32 255 34 413 6 449-17 93-48zm-28-612a2300 2300 0 01-444-200c-240-150-367-147-185 6a1268 1268 0 00 812 308c62-22 12-48-183-114zm470 366c-230-62-365-79-400-44a1017 1017 0 01-263 30c-134 5-243 28-243 50a2171 2171 0 00 569 31c566-10 568-10 337-69zm4587-3826c22-20-35-53-129-70a1659 1659 0 01-243-60c-48-20-63-10-42 23 45 73 366 156 414 107zm2090 3410c-45 118 73 207 264 200a593 593 0 01 300 70c100 70 119 70 119 10 0-40 16-70 35-67 153 24 183-23 37-57-337-80-433-249-250-444 109-116 91-124-124-50a3062 3062 0 00-241 94 335 335 0 01-200 21c-60-14-110-6-130 17s0 45 33 48c200 17 200 21 147 157zm-520 357a3486 3486 0 01 550-32c88 17 100 10 46-50a287 287 0 00-345-100 4193 4193 0 01-893 100 1209 1209 0 00-317 49c-65 62 544 90 960 40zm-1771-3400c0 26 50 47 110 47a1308 1308 0 01 308 70 1122 1122 0 00 319 67c94 0 57-25-153-116-280-117-584-152-584-68zm2410 3980c-92 8-183 8-275 15-644 50-1700 114-2837 170a9137 9137 0 01-1750 14c-159-32-278-74-265-100 13-26 0-39-48-39s-74 42-74 105a231 231 0 01 0 43c0 10 16 12 21 22 51 90 52 90 54-11 0-63 30-100 74-100s61 18 48 39c-13 20 106 62 265 94a9136 9136 0 00 1750-14c1820-90 3442-200 3480-240a1455 1455 0 00-443 0zm-973 2314a681 681 0 01 70 0c11-12 17-26 32-34 15-8-45-27-172-27a763 763 0 01-90-7h-12c-46 50-11 64 172 68zm3398-5010a9945 9945 0 00-2716-2170l-1045-622A7324 7324 0 01 13600 11090c-449-690-716-1922-900-4144-86-1037-257-4020-257-4486 0-370-77-560-223-544-43 0-256 20-473 35a2244 2244 0 00-446 60 9427 9427 0 00-82 1517 49225 49225 0 01-378 5884 5365 5365 0 01-520 1560 5190 5190 0 01-1290 1304c-430 288-1540 990-2480 1574-2022 1257-2712 2024-3030 3350a1441 1441 0 00-43 730c30 170 74 447 100 615a2806 2806 0 00 1180 2000 7512 7512 0 00 3580 1035 32486 32486 0 00 8608-257c2274-467 3220-1365 3470-3292a3000 3000 0 00-535-2206zm212 1349a700 700 0 01-106-282c0-47 16-55 43-50a148 148 0 01 12 100 187 187 0 00 29 144 60 60 0 01 22 88zm-200-455a150 150 0 01 45 50c10 0 13 0 25 6 12 7 8 10 13 14-46-20-64-13-64 47a707 707 0 00 160 356h-6c-16 0-39-26-63-62 0 0 0 6-7 6-55 0-189-268-189-380 1-69 21-77 91-39zm-4542-3900a839 839 0 01 183 120 561 561 0 01 53 46 846 846 0 00-130-83c-23 0 50 65 130 124-43-36-75-67-60-68a846 846 0 01 130 82c40 40 70 72 60 72a913 913 0 01-240-157c-80-60-160-122-139-124zm-11670 4620c27-1 37-21 21-46a1021 1021 0 01 124-485 235 235 0 00 38-134 4290 4290 0 01 852-1413c75-64 157-120 233-183v-8a123 123 0 01 66-46 9461 9461 0 01 1300-907c192-100 460-256 593-342a1487 1487 0 01 300-160 46 46 0 00 45-46c0-27 37-44 80-37 96 16 267-86 594-352a4092 4092 0 01 699-489 5493 5493 0 00 744-479c100-110 318-280 260-200-90 117-37 100 70-20 47-54 58-82 23-60-35 20-57 17-43-27a516 516 0 01 336-188c74-13 93 17 110 168a1090 1090 0 00 84 315c37 70 51 129 31 130-49 0 93 90 145 90 23 0 10-35-30-80a341 341 0 01-78-356c-8-18-24-30-30-48-8-18 23 13 35 20a481 481 0 00 76-246 1020 1020 0 01 81-311 630 630 0 00 67-252 3513 3513 0 01 136-571c75-247 150-508 165-581 74-294 68-65-3 563a2500 2500 0 00-15 928 2015 2015 0 01 60 360c0 100 351 456 416 415 23-14 41-5 41 20a76 76 0 01-34 66c-20 10-10 13 20 6a68 68 0 01 76 43c11 30 35 40 54 24 20-17 0-85-47-153a629 629 0 01-90-225c-11-94 0-100 157-85a325 325 0 01 210 87 1092 1092 0 00 481 244c106 0 60-93-70-142a838 838 0 01-253-188 400 400 0 00-236-136 900 900 0 01-517-381 2500 2500 0 01 0-1245c85-638 138-1138 180-1672 16-215 37-417 46-446 10-30 100-45 240-31l120 10c6-5 0-20 8-25h8l-108-51c-183-87-215-137-207-330 18-477 62-1074 85-1161 17-66 38-1001 48-2091 10-1090 30-2043 42-2126 18-108 50-150 112-150a129 129 0 01 110 57c14 35 25 26 27-23 0-65 47-80 229-80h225l28 824a64443 64443 0 00 404 6824c30 216 53 425 53 464a959 959 0 00 142 464c24-1 30 39 15 89-46 143 100 359 324 492 115 68 209 142 209 166a3128 3128 0 00 856 756c142 70 246 150 232 170-14 23 0 42 30 42a668 668 0 01 223 142 3553 3553 0 00 798 540 3866 3866 0 01 448 229 1519 1519 0 00 300 155 3335 3335 0 01 428 253 1717 1717 0 00 400 230c15-13 73 10 132 50a390 390 0 00 177 74c100 0 732 430 665 452a3256 3256 0 01-948-514c-43-60-100 53-60 120 20 32-5 23-54-20a2763 2763 0 00-763-283c0 38 134 152 178 152a2462 2462 0 01 363 169 2075 2075 0 00 372 162 2043 2043 0 01 325 120l412 182c135 59 300 139 800 400 289 148 709 494 709 584 0 35 17 64 38 64 20 0 86 66 145 146 59 80 80 128 45 107a416 416 0 00-134-50 537 537 0 01-263-76 171 171 0 00-94-26 1821 1821 0 01-358-140 2300 2300 0 00-626-181 1027 1027 0 01-800-436c-74-100-134-170-134-150a978 978 0 00 253 433 1040 1040 0 01 292 115 1132 1132 0 00 323 126 2731 2731 0 01 773 380 1960 1960 0 01-430-64 2622 2622 0 00-500-73c-150 23 256 214 486 227a433 433 0 01 217 49 200 200 0 00 132 37c156 0 257 46 257 118 0 114-93 122-443 40-350-82-344-82-452 19a364 364 0 01-163 100 53 53 0 00-55 45c0 25-60 46-132 46a338 338 0 00-215 92 257 257 0 01-145 93 70 70 0 00-62 73c0 39-20 59-46 43s-46-18-46-6a420 420 0 00 142 100c132 65 139 65 82 0-57-65-41-70 147-40a513 513 0 01 242 88c24 37 34 36 34 0s-51-91-115-133c-165-108-106-153 142-107a868 868 0 00 517-20 446 446 0 01 253 60 1063 1063 0 00 284 94c45-1 80 24 80 54a286 286 0 00 79 140c42 46 54 84 26 84a186 186 0 01-112-86 1023 1023 0 00-595-158 1380 1380 0 00-486 110 811 811 0 00-100 230c-61 206-20 285 226 440 172 106 163 13-11-134-174-147-184-316-20-423 164-107 289-126 328-57 18 30 15 40-5 22-37-33-352 180-350 236 10 156 532 362 770 300 150-38 143 45-10 115a200 200 0 00-91 66c34 0 67-7 100-10a850 850 0 00 82-33c118-58 148-92 107-122-43-30-31-33 28-14a193 193 0 00 160-30c44-35 60-37 40-5a54 54 0 00 19 70l13 7a70 70 0 00 92-40 109 109 0 01 90-67c53 0 57-45 20-240a617 617 0 01 7-351c87-190 58-265-200-524a1090 1090 0 01-255-324c0-63 6-63 46 0s67 33 50-60c-8-57 158 44 232 138 74 92 60 78-34-2-67-58-110-70-130-35-22 34-15 46 6 40a1572 1572 0 01 514 330 500 500 0 01 34 319c-20 220-10 257 100 356a251 251 0 00 210 85c83-22 88-12 48 92-66 176-43 312 53 312a78 78 0 00 83-78c0-42 13-64 30-48 62 56-48 243-192 290a23100 23100 0 01-4632 468l-2170 100c-1080 50-1130 50-1253-37-70-50-152-100-180-120-28-18-144 56-256 159l-200 186-650-24c-1915-70-5594-334-5874-422a8338 8338 0 00-671-140 2307 2307 0 01-523-126c-66-65-78-462-5-462Zm15188-901 15 11c0-10 28-12 85-13a639 639 0 01 280 112c78 63 91 90 0 60-77-23-77-20 0 45a132 132 0 01 53 135 416 416 0 00-114-123 265 265 0 01 82 157 391 391 0 00 11 44c-17 40-26 36-46-64a129 129 0 00-8-26c-35 100-37 100-62-30a258 258 0 00-80-156 3448 3448 0 00-250-171c-40-24-56-37-54-45l-16-11c-80-51-79-56 30-58a645 645 0 01 290 115 1078 1078 0 01 95 73 635 635 0 00-280-112c-110 5-112 10-30 60zm-900-48c-70 0-69-9 12-40a450 450 0 00 156-115 259 259 0 01 330-25c57 41 55 43 10 40 20 8 42 2 60 17a216 216 0 01 20 16 256 256 0 00-315 30 470 470 0 01-156 113 158 158 0 00-34 18h-13c-70 0-69-8 12-40a474 474 0 00 90-65 735 735 0 01-174 55zm533-76a760 760 0 00-188 52 226 226 0 01 186-53zm-100 830c-90-53-89-55 20-26a468 468 0 01 156 68c20 18 16 25 0 28a424 424 0 01 65 28v7a500 500 0 00-125-57c-100-26-100-22-30 22l-24-13c-57-34-62-42-42-40l-23-13Zm0-237 247 16a600 600 0 01 323 90 255 255 0 01 40 49c10 0 21 0 30 8l11 16a591 591 0 00-300-85l-220-13-62-22 108 6zm194 343a257 257 0 01 45 20 327 327 0 01-100-30 333 333 0 01 52 13zm228-200a582 582 0 01 268 76c23 47-66 28-318-60l-63-23zm-5227 1400c-265 2-528 28-790 52h-336a9410 9410 0 01 855-54c-308 0-616 7-925 0a9054 9054 0 01 1091-69c1728-43 3540-120 4412-188a12410 12410 0 00 2226-348c100-60 100-60 73 20a100 100 0 01-49 45l46-10c86-49 93-45 78 1a309 309 0 00-43 20 12500 12500 0 01-2227 350c-874 67-2686 150-4414 187zm-9480 1002c-18 0-37-12-74-60a3976 3976 0 01-422-1310 158 158 0 00-60-135c-74-55 100-22 1038 200a7000 7000 0 00 1230 161c400 22 814 60 930 85 285 60 1532 133 3168 187 730 24 1362 58 1400 74 38 16 80 8 80-29 0-112 151-229 300-228a262 262 0 01 225 81c12 0 17 20 27 25a225 225 0 00-149-27c-148 0-300 116-300 228 0 37-40 45-80 30-38-18-670-50-1400-76-1636-54-2883-128-3160-187a9504 9504 0 00-930-85 7067 7067 0 01-1228-159c-938-222-1112-255-1038-200a163 163 0 01 60 133 3953 3953 0 00 423 1310 100 100 0 00 44 36c-23 14-42 2-77-44Zm1308 814a200 200 0 01-42-6 814 814 0 01 340 0h22a2430 2430 0 00-323 14zm1991 530a168 168 0 01-130-33 2721 2721 0 01 1107 13c60 32 90 25 110-28 36-100 137-88 200 6a93 93 0 00-93 70c-20 53-50 60-110 28a2707 2707 0 00-1075-16c-23 0-48 0-67-17 45-8 90 0 136-12-30 10-55-2-80-3Zm4934 515c-190 0-437 6-687 6h-74c-255 0-508 0-700-6-400-8-73-14 731-14 804 0 1130 21 727 21zm4508-500c-22 7-45 0-67 0 18-5 33-7 55-14a738 738 0 01 320-50 1760 1760 0 01-310 71zm3200-2534c-33-20-40-13-20 20a117 117 0 01 0 110 600 600 0 00-48 200 1689 1689 0 01-107 511c-85 216-138 262-240 208-85-46-113-12-92 110 0 20-37 50-90 64-55 14-80 38-45 60 35 20-17 85-145 180a613 613 0 01-386 146 1817 1817 0 00-374 50 2981 2981 0 01-326 60c-76 10-339 50-583 90a3093 3093 0 01-659 45 694 694 0 00-462 93 1945 1945 0 01-400 150l-16 6 100-23a2776 2776 0 00 325-100 7283 7283 0 01 952-140c422-40 900-86 1055-103 287-30 307 0 110 54 154-14 215-5 192 14a1078 1078 0 00-200 8c-155 17-633 64-1055 105a7070 7070 0 00-952 140 3123 3123 0 01-325 100l-100 20c-74 19-134 48-134 70 0 22 37 33 81 19a4470 4470 0 01 221-53 2900 2900 0 00 325-100 7070 7070 0 01 952-140l886-86a1307 1307 0 00-360 113 373 373 0 01-186 66c-84 0-85 0-12 60 73 58 52 58-119 62-80 0-244 10-406 20h-238a338 338 0 00-157 30l-140 10 280-62 170-33-148 10-300 23a139 139 0 00-17 30c-25 78-60 90-342 82a682 682 0 00-362 47 724 724 0 00 88 7c127-1 200 13 172 26-28 13-20 20-30 34 66 2 106 12 100 22a1475 1475 0 00 175-45c250-74 320-80 407-32 32 17 40 30 33 42 12 0 25 8 37 14 12 6 12 10 20 14-82-38-158-31-392 39-69 22-126 34-176 45v-1c-15 7-20 20-30 30a965 965 0 01-186 8 866 866 0 00-552-57h-6c28 10 22 25-27 40h10c122 0 126 26 80 47l-113 29a1544 1544 0 01-267 24 2166 2166 0 00-487 56c-100 30-200 56-209 60a1960 1960 0 00-186 100c-154 85-300 90-2723 107h-650 290c811 0 1145 15 743 15s-1059 8-1463 0c-240 0-214-8 13-10-1455 7-1522-7-1700-87a1127 1127 0 00-328-100 181 181 0 01-135-44 84 84 0 00-100-18c-37 15-68 0-68-30s-54-45-174-25a1412 1412 0 01-450-10 1943 1943 0 00-202-28 2688 2688 0 01 900 30c58 29 87 23 107-31 37-100 142-90 200 9 35 60 44 40 41-90-3-132-18-160-67-120h-10a470 470 0 01 7 58c0 130-6 152-40 90a138 138 0 00-70-50 381 381 0 00 4-116 353 353 0 00-7-60c-54 36-177 33-457-3a19016 19016 0 00-799-80 3070 3070 0 01-599-101 766 766 0 00-715 92s-12 0-17 7c30-37 27-67-42-78-10 26-39 56-106 90-67 36-78 53-72 70h-12c-58-24-47-43 50-93a212 212 0 00 26-17 373 373 0 01-146 53c-58-23-47-42 50-92 67-35 100-65 106-90l-50-7a140 140 0 00-67-20c-7 7 1 10 1 14-48 0-65-15-27-40 7-1 0-10 0-11-85 0-100-13-77-36 150 20 380 42 551 50 191 10 474 40 627 67 435 73 581 84 581 44 0-14-33-33-76-53-12 34-159 22-575-48a6653 6653 0 00-627-66 7512 7512 0 01-608-58c-244-40-423-15-383 38h-26c-29-20-26-34-8-47a331 331 0 01-62-10c-100-63 105-100 374-52 143 22 417 48 608 58 190 10 474 40 627 66 400 67 546 80 570 50l14 7a13122 13122 0 01 482 36 1150 1150 0 00 166 0c160-6 160-50 42-86-9 15-38 27-112 30a1150 1150 0 01-166 0c-25 0-167-16-325-28a1132 1132 0 00-208-8c-36-15-42-23 16-20a379 379 0 00-54-30c-128-40-108-45 136-26 158 12 300 25 325 28a1150 1150 0 00 166 0c75 0 100-15 113-29a945 945 0 00-160-33l-418-57a400 400 0 00-279 43c-90 60-156 60-500 0-216-34-510-72-649-85-754-66-885-83-906-117a60 60 0 00-62-22s5-7 5-14c0-44-26-49-77-36-7 31-22 44-47 27-25-18-14 4-12 15-13-7-30 0-40-12-24-37-17-46 17-24a29 29 0 00 31 0 115 115 0 01-117-33c10 0 14 0 30-6 14-6-15-7-17-13-2-6 0-10 0-6 26 17 40 0 47-17a320 320 0 00-45 10h-16c-8-10-6-25-28-25h-15c-5 0 0 9 0 19v20c-35 10-50 0-36-40v-22c-69 25-90 20-70-30v-20c-38 0-62-31-92-50a200 200 0 01-52-80l-22-115c-2-14-25 10-52 40v18a247 247 0 00 110 130c-23-16-54-20-73-41a274 274 0 01-142-165v-16l-23 24a134 134 0 01-45 44 3940 3940 0 01-400-1275 163 163 0 00-60-133c-74-56 100-23 1038 200a7067 7067 0 00 1230 160c400 20 812 60 930 83 273 60 1520 133 3160 187 730 24 1360 58 1400 74 35 16 80 8 80-29 0-112 150-229 300-228a248 248 0 01 125 21c14 15 35 23 46 42a263 263 0 00 1-46c1-63 31-105 75-105s61 18 48 40c-13 21 106 63 265 95a9135 9135 0 00 1750-15c1136-55 2193-119 2838-169a45450 45450 0 01-3218 111c1685-44 3422-119 4271-185a12409 12409 0 00 2117-329 35 35 0 00-20 50c40 94-48 280-109 241zm-2285-340c-100 44 40 35 812-53 663-75 792-100 752-168a71 71 0 00-100-20l-10 8a1630 1630 0 01-231 24c-34 0-67 10-100 10-33 1-72 12-108 10a1324 1324 0 00-500 70 735 735 0 01-280 73 772 772 0 00-235 45zM7770 17220a517 517 0 00-186-138c-176-88-462-112-414-35a213 213 0 00 150 50 831 831 0 01 300 93c100 50 160 64 145 30zm-3400 1480a369 369 0 00 163 0c45-5 8-20-81-20s-130 13-81 20zM13000 15182a5798 5798 0 00-418-75 500 500 0 01-246-79c-22-31-31-14-23 40 17 119 76 162 222 163a1500 1500 0 01 365 100 1326 1326 0 00 592 82 894 894 0 00 344-48c0-20 31-35 69-35 38 0 70-20 70-47s-160-52-383-53a3665 3665 0 01-592-48Zm716 700c-155 58-200 88-125 90 100 0 381-114 381-160 0-13 0-18-12-18zm-377-2705c-18-47-93-60-280-49a1709 1709 0 01-746-138c-50-17-30 12 50 64a2586 2586 0 00 855 256 452 452 0 01 247 130c48 60 72 70 53 32-20-38 37 0 123 76a1870 1870 0 00 363 250c112 54 185 114 162 131a882 882 0 00-84 77c-26 28-33 20-18-24 15-44-24-73-208-83a819 819 0 01-330-82 581 581 0 00-273-67 571 571 0 01-300-90 833 833 0 00-264-120c-207-43 400 290 726 400a1042 1042 0 01 544 295 2474 2474 0 00 200 222 453 453 0 01 134 231c0 51 20 81 46 65 92-57 47-247-80-344-100-75-107-92-36-73 70 20 74 15-10-30-115-60-134-110-60-158a59 59 0 00 17-79c-18-30-10-37 23-17 32 20 54 5 55-29 0-34 34-19 80 40a460 460 0 00 200 133c110 33 114 30 44-53-155-183-161-230-17-139l136 81-137-145a529 529 0 00-194-150 990 990 0 01-260-142 6800 6800 0 00-477-280 908 908 0 01-294-200zm-1748 2880a875 875 0 01-229-152c-20-23-40-30-40-10s-47-7-100-59c-134-125-216-122-100 0a1510 1510 0 00 587 376c170 31 120-36-118-156zm2424 1051c57 69 277 140 316 100a935 935 0 00-347-165c-13 0 0 30 31 65zm395-2062a477 477 0 00-317 165c-45 120 225 20 389-140 89-88 149-160 133-160a200 200 0 00-86 69 184 184 0 01-120 69zm-1110 530c-40-16-73 0-73 22s63 52 139 52c100 0 140 22 140 76s-38 70-266 45a847 847 0 01-340-100 2553 2553 0 00-700-300c-38 4-34 17 10 30a3300 3300 0 01 610 397 829 829 0 00 674 28c90-84 70-220-31-220a500 500 0 01-163-27Zm-2817-2570c29 42 42 85 29 100-13 17 40 79 116 152 210 200 200 120-10-116-96-115-164-176-135-135zm205 620a2521 2521 0 01-200-157c-44-52-279-140-279-106a2332 2332 0 00 630 419c13-13-55-82-150-156Zm-450 403c79 64 80 50 14-137-66-188-131-200-100-32a328 328 0 00 87 169zm-290-1711a3650 3650 0 01 73-185c25-57 30-113 0-130s-62 20-84 80c-88 234-100 316-60 316 22-3 55-42 70-84Zm-635 1828c-56 57 182 252 394 322 276 92 648 112 674 36 13-35-83-65-280-86a1424 1424 0 01-392-85c-310-180-380-210-400-187Zm223 427a438 438 0 00 186 78c100 20 118 16 70-14-114-71-310-120-256-64zm2554 2238c-16-26 0-60 43-75s61-47 47-70a582 582 0 00-380-10c-74 30-27 108 66 108a514 514 0 01 206 100c117 79 135 82 135 17 0-42-19-64-43-50a53 53 0 01-73-20Zm395-923c0-110-182-227-400-260a1389 1389 0 01-352-100 654 654 0 00-233-65c-88 0-74 20 85 116a1953 1953 0 00 480 180 1352 1352 0 01 353 124c47 40 67 40 67 5zm-2519-1930c32-32-334-400-400-400s-220-151-250-232c-22-55-29-52-32 13a311 311 0 00 108 186 1874 1874 0 00 574 433zm2146 16a1659 1659 0 00-353-135 555 555 0 01-194-64c-218-111-334-134-334-67 0 34 127 100 290 150a2939 2939 0 01 496 200 424 424 0 00 293 82c81-33 50-60-189-173zm-124-813a2028 2028 0 01 335 178 682 682 0 00 360 110 1079 1079 0 01 353 85c156 80 312 94 351 30 40-62-79-100-218-100a2567 2567 0 01-823-231c-218-150-558-280-558-212 0 35 88 100 200 140zm-702-560c20-10 0-60-45-111-100-123-474-376-474-323a1710 1710 0 00 520 438zm-305 180c-22-33-9-42 38-24s58 50 42 80c-16 29-14 38 7 19a77 77 0 01 93 10c38 32 55 25 55-23s-18-70-39-70c-62 0-220-173-187-205 16-16-10-15-58 0s-79 15-69-10a888 888 0 00-224-291 1112 1112 0 00-209-180c-12-7-35-26-35-20 0 6 23 30 30 48a1266 1266 0 00 270 420c135 170 348 349 286 249zm1801 1067c-322-125-762-185-762-105 1 29 58 53 126 53a2660 2660 0 01 467 100c432 117 531 90 170-48zm-8090 3069a200 200 0 01 120-56 441 441 0 00 188-120c138-126 100-150-83-48a1241 1241 0 01-200 90 119 119 0 00-80 106c1 63 13 68 56 25zm492-1758h-18a118 118 0 00-67 46v10c-28 35-45 76-33 90 12 16 50-10 83-47 33-40 50-80 35-98Zm895 0a651 651 0 01 300-92c30 14 170-57 300-158a1027 1027 0 01 300-184 1067 1067 0 00 500-252c130-113 160-154 130-238a144 144 0 01 10-154c82-88 20-60-200 84a1100 1100 0 00-250 210 130 130 0 01-90 70 1713 1713 0 00-497 250c-9 20-36 24-60 9-63-38-274 107-274 187s-170 148-260 120c-26-7-30 0-12 20 20 23-7 66-58 102-174 130-80 150 150 34zm2870-1361c0 50 85 112 176 126 42 7 36-18-20-80-87-101-159-122-159-46Zm-810 1058c-66-100-214-210-214-160a1035 1035 0 00 146 150c141 140 141 140 66 16zM4100 17478c21 90 22 90 60 0a258 258 0 00-40-225c-93-162-100-330-15-400s124-21 124 114a805 805 0 00 60 247 849 849 0 01 33 400 582 582 0 00 0 257c16 0 216 40 444 88a6464 6464 0 00 856 110c243 12 378 13 300 0-192-28-215-67-100-176 52-52 77-63 56-24-33 57-27 60 30 13 57-46 100-40 206 15a439 439 0 00 241 51c114-22 149 44 36 68-40 10-54 38-34 70a12616 12616 0 00 2100 144c0-42-121-68-488-108a2168 2168 0 01-918-254c-150-106-180-164-65-120 43 16 60 8 43-20a92 92 0 00-84-40 811 811 0 01-624-364c-10-54 230 0 330 72a326 326 0 00 158 45 1044 1044 0 01 500 312 900 900 0 00 670 210 1591 1591 0 01 513 100c310 121 743 184 712 100a724 724 0 00-530-180c-78 17-142 4-142-20s-13-35-27-20c-14 15-100 0-185-39a1226 1226 0 00-374-66 1348 1348 0 01-880-428c-130-120-254-206-270-190-16 16-30-5-30-47a75 75 0 00-70-78c-38 0-69-17-69-38 0-63 260-290 292-256 17 17 32-15 32-72 0-57 20-90 46-75s47 7 47-20c1-94 354-287 483-263 70 12 112 0 100-20-32-54 200-277 287-277 35 1 63-19 63-45 0-47 325-36 400 14 25 16 86 0 134-37 84-63 83-65-16-40-128 32-139-54-23-186 43-50 55-78 25-60a59 59 0 01-84-20c-16-25-6-46 23-46 31 0 40-27 23-59s12-10 63 46c117 133 152 131 286-12 134-143 56-155-113-44-68 45-120 55-139 27-36-56 0-79 193-119 194-40 192-100-9-132-226-36-400 53-367 188 16 63 0 101-33 101a1809 1809 0 01-599-300 207 207 0 00-128-73c-39 0 10 63 110 143a930 930 0 00 306 168c72 14 116 47 100 73-16 26-7 34 24 15 31-19 53-10 53 16 0 27 41 43 90 37 50-8 100 10 100 34 0 26-156 48-427 51a993 993 0 01-650-114 1128 1128 0 01-242-164c-20-30-34-20-35 23a429 429 0 00 137 200c150 144 146 208-13 216-79 0-70 14 38 40 130 34 100 48-94 48a408 408 0 00-113 90 980 980 0 01-524 188c-45 3-82 23-82 51 0 25-30 45-70 45a66 66 0 00-70 62c0 31-150 130-336 214a2951 2951 0 00-415 222c-43 36-100 54-124 38a61 61 0 00-80 26c-23 36-14 42 26 17s50-20 28 16a140 140 0 01-108 53c-40 0-60 13-44 30 50 50-207 256-284 226-57-22-59-15-10 44 32 40 40 71 20 71a653 653 0 00-180 206c-223 333-300 273-300-224a800 800 0 00-53-340c-70-70-12-308 65-260 31 20 18-25-30-100-68-105-73-139-25-170a111 111 0 01 100-14c20 13 37-12 37-55s-30-72-114-56c-100 20-110 10-89-122 20-110 14-128-24-75a319 319 0 00-50 150 149 149 0 01-60 115 1078 1078 0 00-270 560 454 454 0 00 64 220 677 677 0 01 92 187zm2485-347c24-48 152 10 156 73a1050 1050 0 00 19 137c0 43-11 68-40 62a66 66 0 01-40-72c6-28-14-47-45-40-58 14-90-86-55-160Zm-460 149a1113 1113 0 00 148 200 1081 1081 0 00 560 410c276 100 317 180 94 179a852 852 0 01-512-284 1466 1466 0 01-330-520c0-31 15-25 35 15zm-500 23c64 17 159 48 210 67a459 459 0 01 155 107c47 66 39 69-100 22h5a945 945 0 01-270-138l-125-90Zm-125 300c100 100 160 169 148 181-30 31-207-133-265-247-40-59 7-30 110 70Zm-480 100a52 52 0 01 48 54v1a315 315 0 00 81 150c73 100 73 100-8 31-112-90-193-240-128-240Zm24-1415c78 21 106 0 128-85a334 334 0 01 200-186c187-83 385-220 310-218a1738 1738 0 00-278 114 1294 1294 0 01-300 113c-84 0-246 166-294 300-35 84-32 85 48 13a211 211 0 01 186-50zm2-430c25 15 58 0 73-42 4-40 32-65 52-60 94 23 377-150 493-300 77-99 100-157 56-139-43 16-72 45-72 68 0 23-15 40-34 36-85-13-150 10-140 47 10 38-9 40-35 35-26-4-40-54-33-110 7-59 0-107-10-107s-26 25-26 54c0 30-12 42-27 27-15-14-93 40-172 121-79 82-135 151-124 155 11 4-29 62-90 128s-100 135-80 153c22 18 51 0 72-32a69 69 0 01 86-34zm4790-619-105 30a1300 1300 0 00-210 92l-120 70 168-29a500 500 0 00 229-100c39-38 60-67 48-64ZM8678 13220c-13-14-58-1-100 29l-176 124a786 786 0 00-173 182l-74 111 134-100c262-190 410-324 390-347Zm867 1852a1175 1175 0 00 543-35c107-57 90-62-217-70a9820 9820 0 01-602-36c-210-22-300-12-365 40-80 70-72 70 70 80 85 0 347 16 581 30zm-308 166c-115-33-265-76-333-100-100-29-119-24-100 26 28 80 347 171 518 150 108-14 100-20-85-76zm-492 1410a483 483 0 00 255 66c130 0 145-11 73-40a1886 1886 0 00-256-66c-150-27-156-24-72 40Zm372-321c90-33 75-60-52-81a228 228 0 01-127-62c-22-30-35-28-35 6a178 178 0 00 209 139zm-486 1319c0 42 273 160 300 130 12-10-52-52-140-93-77-41-149-57-149-37Zm326-4186a285 285 0 01 76-140c100-114 40-108-76 9-100 100-122 185-47 185a50 50 0 00 47-54Zm10907 4030c-85 100-20 120 91 24 131-115 127-167-18-233s-160-66-160-13a179 179 0 00 70 100c53 45 58 74 17 123zm-3030 3387h68a1800 1800 0 00 306-63 738 738 0 00-319 50l-55 13zm-11700-2950c81 66 81 66 8-31a315 315 0 01-81-150 52 52 0 00-48-54c-65 0 16 150 126 235zm1793 136c223 0 182-78-93-178a1081 1081 0 01-560-411 1113 1113 0 01-150-200c-17-40-33-46-33-14a1466 1466 0 00 340 519 852 852 0 00 506 284zm-1288-286c12-12-45-83-148-181-103-98-150-124-119-66 60 114 236 278 267 247zm245-284H5880c142 47 150 44 99-22a459 459 0 00-154-107 2947 2947 0 00-211-67l-114-33 112 90a945 945 0 00 272 139zm8165-2802c10-20-59-60-159-80a1856 1856 0 00-268-20c-74 0-77 10 40 66 117 52 122 63 47 92-57 18-102 10-111-16-20-61-224-66-261-6-44 76 145 100 378 66 122-20 240-39 264-39a77 77 0 00 60-54zm-7375 2640a66 66 0 00 42 77c28 6 40-20 39-63a1050 1050 0 01-20-138c0-62-131-121-155-73-35 70 0 172 50 160 30-6 50 15 44 40zm13402-513c-27-6-43 0-43 49a700 700 0 00 106 282 59 59 0 00-30-90 180 180 0 01-30-144 153 153 0 00-13-98zm-4545-3896a909 909 0 00 239 159c17 0-14-32-62-73a771 771 0 00-130-81c-15 0 17 32 60 68-80-60-152-122-130-124a846 846 0 01 130 83c-16-14-29-26-52-43a811 811 0 00-183-114c-25 5 48 68 128 127zm-1956 1397c-143-66-393-72-393-10 0 24 75 57 175 72 100 15 210 35 255 44 122 25 106-42-37-107zm6473 2796s0-6 6-7c24 36 47 63 64 63a712 712 0 01-159-356c0-60 20-66 64-47-5 0-7-10-12-13-5-2-16 0-26-7a145 145 0 00-44-48c-70-38-86-30-86 40 4 109 138 377 193 377zm-9117 4268c204 0 457 5 711 6h73c251 0 500 0 688-5 400 0 71-14-733-14-804 0-1132 5-730 13zm8215-4184a578 578 0 00-269-75l-113-8 64 23c251 88 340 107 317 60zM7464 20900a2726 2726 0 01 1076 16c60 32 90 25 110-28a93 93 0 01 91-70c-59-94-160-100-200 0-20 53-49 60-109 28a2687 2687 0 00-1108-13 166 166 0 00 131 33c25 0 50 8 75 10-46 7-90 0-136 13a164 164 0 00 70 0Zm-2039-577c15 0 28 7 43 6a2279 2279 0 01 320 0h-24a810 810 0 00-339-6Zm13800-3770c-26-21-47-40-95-72a631 631 0 00-290-115c-109 0-110 7-30 58l16 10c0 8 15 21 54 46 118 75 190 126 248 170a265 265 0 01 82 156c25 130 27 130 62 30 0 10 6 16 8 26 19 100 28 100 46 63a300 300 0 01-12-44 255 255 0 00-82-156 400 400 0 01 114 123 131 131 0 00-53-134c-77-64-77-68 0-45 93 30 80 0 0-60a632 632 0 00-280-110c-56-10-81-10-83 10l-16-10c-81-60-79-60 30-60a643 643 0 01 281 110zm-867-125a710 710 0 01 187-51 219 219 0 00-187 51zm-275 80h12a224 224 0 01 34-18 456 456 0 00 156-113 258 258 0 01 314-30 200 200 0 00-18-15c-20-13-42-10-62-17 47 0 48 0-8-40a259 259 0 00-330 27 484 484 0 01-156 113c-80 33-83 40-12 40a800 800 0 00 171-50 472 472 0 01-89 66c-80 29-83 37-12 37zm432 755 23 12c-70-44-70-48 30-22a487 487 0 01 120 55v-6a389 389 0 00-65-29c11 0 15-10 0-27a477 477 0 00-157-68c-108-30-109-27-19 29l27 14c-28-2-20 6 35 42zm127 47a255 255 0 00-55-12 300 300 0 00 100 31 200 200 0 00-45-20zm-67-266 220 14a605 605 0 01 300 85l-10-13c-10-6-21 0-31-10a242 242 0 00-38-46 600 600 0 00-323-91l-247-16 178 63-108-7"/></svg>
