<?xml version="1.0" encoding="UTF-8"?>
<svg xmlns="http://www.w3.org/2000/svg" fill="#44739e" version="1.1" width="24" height="24" viewBox="0 0 24 24">
<path d="M12.000,2.123C17.451,2.123 21.877,6.549 21.877,12.000C21.877,17.451 17.451,21.877 12.000,21.877C6.549,21.877 2.123,17.451 2.123,12.000C2.123,6.549 6.549,2.123 12.000,2.123ZM8.769,7.022L7.659,8.155L13.914,8.223L6.220,15.894C6.220,15.894 5.789,16.756 6.605,16.880L17.007,16.880C17.007,16.880 17.970,16.733 17.403,15.826L13.528,11.929L12.656,12.778L15.455,15.645L8.259,15.634L15.919,8.031C15.919,8.031 16.406,7.271 15.523,6.999L8.769,7.022Z" />
</svg>
