<svg xmlns="http://www.w3.org/2000/svg" viewBox="0 0 24 24"><path fill="#44739e" d="M12 2C7.342 2 3.44 5.19 2.328 9.5h6.733A3.01 3.01 0 0 1 12 7.1a3.01 3.01 0 0 1 2.94 2.4h6.732C20.56 5.19 16.658 2 12 2m0 6.1c-1.11 0-2 .89-2 2s.89 2 2 2 2-.89 2-2-.89-2-2-2m-9.875 2.4C2.051 10.99 2 11.489 2 12q.005.877.162 1.74l2.535-.451c.465 2.165 1.752 4.026 3.553 5.139a7.1 7.1 0 0 0 7.5 0c1.802-1.113 3.089-2.976 3.553-5.14l2.543.452A10 10 0 0 0 22 12c0-.511-.05-1.01-.125-1.5h-6.916c-.199 1.462-1.445 2.6-2.959 2.6s-2.76-1.138-2.959-2.6Zm17.846 4.43a8.5 8.5 0 0 1-7.97 5.57 8.5 8.5 0 0 1-7.971-5.568l-1.495.267A10 10 0 0 0 12 22a10 10 0 0 0 9.463-6.803Z"/></svg>