<svg xmlns="http://www.w3.org/2000/svg" fill="#44739e" width="32.026" height="32.026" viewBox="0 0 576 576">
  <path id="Colore_riempimento_1" data-name="Colore riempimento 1" class="cls-1" d="M90,91H456c7.908,0,24.345-2.495,30,1,3.851,1.3,4.483,3.579,7,6V437c0,14.928.923,33.183-2,45-15.273,7.082-68.338,3-91,3H117c-7.256,0-21.881,2.166-27-1-2.927-.947-3.511-1.764-5-4-3.534-4.7-2-17.1-2-25V118c0-6.47-1.574-17.325,1-22Zm1,6c-3.662,7.189-2,22.536-2,33V477c7.6,3.87,24.062,2,35,2H485c3.662-7.189,2-22.536,2-33V99a6.107,6.107,0,0,1-2-2H91ZM260,198v-4c8.569-5.779,19.449-24.724,30-26,4.893,7.485,19.525,22.081,27,27l-1,3h-3c-3.055-4.609-20.987-22.226-26-24C283.215,179.27,266.552,196.761,260,198Zm23,66c20.441-.658,38.41,17,26,37-6.563,10.58-25.146,14.773-37,6-3.089-2.286-4.409-7.159-7-10C262.749,271.134,268.6,274.9,283,264Zm0,5c-1.073.752-.946,0.6-3,1-3.44,3.428-7.22,4.736-9,10-6.433,7.638.716,21.958,7,24,5.775,5.562,15.723,1.8,22,0C311.131,288.018,309.5,268.243,283,269ZM261,378c11.837,4.253,16.5,21.337,29,24,3.412-5.277,19.217-21.961,25-24a6.1,6.1,0,0,0,2,2c-5.955,11.608-19.27,19.773-28,29h-1v-1C281.231,405.787,259.419,381.736,261,378Z"/>
</svg>
