<svg xmlns="http://www.w3.org/2000/svg" viewBox="0 0 24 24"><path fill="#44739e" d="M12.131 10.118a1.617 1.617 0 1 0 1.617 1.617 1.62 1.62 0 0 0-1.617-1.617M20.9 2H3.1A1.1 1.1 0 0 0 2 3.1v17.8A1.1 1.1 0 0 0 3.1 22h17.8a1.1 1.1 0 0 0 1.1-1.1V3.1A1.1 1.1 0 0 0 20.9 2m-8.967 2.756a.233.233 0 0 1 .4 0l1.612 2.6-.346.214-1.27-2.04a.233.233 0 0 0-.4 0l-1.262 2.042-.346-.214Zm.4 14.464a.233.233 0 0 1-.4 0l-1.612-2.6.346-.215 1.266 2.042a.233.233 0 0 0 .4 0L13.6 16.4l.346.215Zm-.2-5.46a2.025 2.025 0 1 1 2.025-2.025 2.03 2.03 0 0 1-2.027 2.025Z"/></svg>