<svg xmlns="http://www.w3.org/2000/svg" fill="#44739e" width="24" height="24" viewBox="0 0 24 24">
  <path id="Colore_riempimento_1" data-name="Colore riempimento 1" class="cls-1" d="m 12.131,10.118 a 1.617,1.617 0 1 0 1.617,1.617 1.619,1.619 0 0 0 -1.617,-1.617 z M 20.9,2 H 3.1 A 1.1,1.1 0 0 0 2,3.1 V 20.9 A 1.1,1.1 0 0 0 3.1,22 H 20.9 A 1.1,1.1 0 0 0 22,20.9 V 3.1 A 1.1,1.1 0 0 0 20.9,2 Z m -8.967,2.756 a 0.233,0.233 0 0 1 0.4,0 l 1.612,2.6 -0.346,0.214 -1.27,-2.04 a 0.233,0.233 0 0 0 -0.4,0 L 10.667,7.572 10.321,7.358 Z m 0.4,14.464 a 0.233,0.233 0 0 1 -0.4,0 l -1.612,-2.6 0.346,-0.215 1.266,2.042 a 0.233,0.233 0 0 0 0.4,0 L 13.6,16.4 l 0.346,0.215 z m -0.2,-5.46 a 2.025,2.025 0 1 1 2.025,-2.025 2.028,2.028 0 0 1 -2.027,2.025 z"/>
</svg>
