<?xml version="1.0" encoding="UTF-8"?>
<svg width="32px" height="32px" viewBox="0 0 32 32" version="1.1" xmlns="http://www.w3.org/2000/svg" xmlns:xlink="http://www.w3.org/1999/xlink">
    <!-- Generator: Sketch 51.3 (57544) - http://www.bohemiancoding.com/sketch -->
    <title>roomsStudio</title>
    <desc>Created with Sketch.</desc>
    <defs></defs>
    <g stroke="none" stroke-width="1" fill="none" fill-rule="evenodd">
        <g fill="#101010">
            <path d="M25,6 C25.553,6 26,6.447 26,7 L26,16 C26,16.553 25.553,17 25,17 L7,17 C6.447,17 6,16.553 6,16 L6,7 C6,6.447 6.447,6 7,6 L15,6 L15,4 C15,3.447 15.447,3 16,3 C16.553,3 17,3.447 17,4 L17,6 L25,6 Z M21.0950103,21 L24.8660103,27.498 C25.1430103,27.976 24.9800103,28.588 24.5020103,28.865 C24.3440103,28.957 24.1710103,29 24.0010103,29 C23.6570103,29 23.3210103,28.821 23.1350103,28.502 L18.7820103,21 L17.0000103,21 L17.0000103,27.95 C17.0000103,28.503 16.5530103,28.95 16.0000103,28.95 C15.4480103,28.95 15.0000103,28.503 15.0000103,27.95 L15.0000103,21 L13.2180103,21 L8.86601026,28.502 C8.68001026,28.821 8.34401026,29 7.99901026,29 C7.82901026,29 7.65701026,28.957 7.49801026,28.865 C7.02101026,28.588 6.85801026,27.976 7.13501026,27.498 L10.9060103,21 L9.00001026,21 C8.44801026,21 8.00001026,20.553 8.00001026,20 C8.00001026,19.447 8.44801026,19 9.00001026,19 L23.0000103,19 C23.5530103,19 24.0000103,19.447 24.0000103,20 C24.0000103,20.553 23.5530103,21 23.0000103,21 L21.0950103,21 Z"></path>
        </g>
    </g>
</svg>