<?xml version="1.0" encoding="UTF-8"?>
<svg width="32px" height="32px" viewBox="0 0 32 32" version="1.1" xmlns="http://www.w3.org/2000/svg" xmlns:xlink="http://www.w3.org/1999/xlink">
    <!-- Generator: Sketch 51.3 (57544) - http://www.bohemiancoding.com/sketch -->
    <title>roomsOther</title>
    <desc>Created with Sketch.</desc>
    <defs></defs>
    <g stroke="none" stroke-width="1" fill="none" fill-rule="evenodd">
        <g fill="#101010">
            <path d="M25.142,2.74043495 C25.634,2.81143797 26,3.23745613 26,3.73947752 L26,28.2605225 C26,28.7625439 25.634,29.188562 25.142,29.2595651 L13.142,30.9896388 C12.539,31.0766425 12,30.6046224 12,29.9905962 L12,28.0005114 L7.052,28.0005114 C6.473,28.0005114 6,27.5274912 6,26.9484666 L6,5.05153343 C6,4.47250876 6.473,3.9994886 7.052,3.9994886 L12,3.9994886 L12,2.00940379 C12,1.39537763 12.539,0.923357513 13.142,1.01036122 L25.142,2.74043495 Z M15,17.0000426 C15.553,17.0000426 16,16.5530236 16,16 C16,15.4469764 15.553,14.9999574 15,14.9999574 C14.447,14.9999574 14,15.4469764 14,16 C14,16.5530236 14.447,17.0000426 15,17.0000426 Z M8,26.0004262 L12,26.0004262 L12,5.99957383 L8,5.99957383 L8,26.0004262 Z"></path>
        </g>
    </g>
</svg>