<?xml version="1.0" encoding="UTF-8"?>
<svg width="32px" height="32px" viewBox="0 0 32 32" version="1.1" xmlns="http://www.w3.org/2000/svg" xmlns:xlink="http://www.w3.org/1999/xlink">
    <!-- Generator: Sketch 51.3 (57544) - http://www.bohemiancoding.com/sketch -->
    <title>roomsAttic</title>
    <desc>Created with Sketch.</desc>
    <defs></defs>
    <g stroke="none" stroke-width="1" fill="none" fill-rule="evenodd">
        <g fill="#101010">
            <path d="M16.5610437,10.3684 L25.3140437,22.4314 C25.8100437,23.1124 25.3390437,24.0874 24.5140437,24.0874 L7.47704375,24.0874 C6.65004375,24.0874 6.18004375,23.1124 6.67604375,22.4304 L15.4390437,10.3674 C15.7200437,9.9814 16.2800437,9.9814 16.5610437,10.3684 Z M16.0000437,22.0784 C17.6570437,22.0784 19.0000437,20.7354 19.0000437,19.0784 C19.0000437,17.4214 17.6570437,16.0784 16.0000437,16.0784 C14.3430437,16.0784 13.0000437,17.4214 13.0000437,19.0784 C13.0000437,20.7354 14.3430437,22.0784 16.0000437,22.0784 Z M31.7939437,24.4505 C32.2949437,25.1175 31.8249437,26.0785 30.9969437,26.0785 L30.9539437,26.0785 C30.6409437,26.0785 30.3449437,25.9295 30.1549437,25.6755 L28.9299437,24.0305 L28.9469437,24.0305 L26.6669437,20.9945 L17.4599437,8.7325 L16.4609437,7.4025 C16.2309437,7.0965 15.7699437,7.0965 15.5389437,7.4025 L14.5399437,8.7325 L5.33294375,20.9945 L3.05294375,24.0305 L3.06994375,24.0305 L1.84494375,25.6755 C1.65494375,25.9295 1.35894375,26.0785 1.04594375,26.0785 L1.00294375,26.0785 C0.174943746,26.0785 -0.295056254,25.1175 0.205943746,24.4505 L1.45494375,22.7865 L3.73494375,19.7505 L12.9429437,7.4885 L14.4019437,5.5455 L15.2999437,4.3495 C15.6499437,3.8835 16.3499437,3.8835 16.6999437,4.3495 L17.5979437,5.5455 L19.0569437,7.4885 L21.9959437,11.4025 L21.9959437,9.1095 C21.9959437,8.5405 22.4439437,8.0785 22.9969437,8.0785 L24.9989437,8.0785 C25.5519437,8.0785 25.9999437,8.5405 25.9999437,9.1095 L25.9999437,16.7345 L28.2649437,19.7505 L30.5449437,22.7865 L31.7939437,24.4505 Z"></path>
        </g>
    </g>
</svg>