<svg xmlns="http://www.w3.org/2000/svg" viewBox="0 0 24 24"><path fill="#44739e" d="M17.892 13.03a.62.62 0 0 1 .358.564v3.384a.625.625 0 0 1-.625.624H17v.953a.94.94 0 0 1-.937.936h-.626a.94.94 0 0 1-.937-.936v-.953h-5v.936a.94.94 0 0 1-.937.936h-.626A.94.94 0 0 1 7 18.538v-.936h-.625a.624.624 0 0 1-.625-.624v-3.384c0-.241.139-.461.358-.564l.627-.296a.63.63 0 0 0 .338-.408l.936-3.617a.625.625 0 0 1 .606-.468h6.77a.625.625 0 0 1 .606.468l.936 3.617a.63.63 0 0 0 .338.408Zm-1.829 2.72a.937.937 0 1 0 0-1.872.937.937 0 1 0 0 1.872m-2.813 0a.626.626 0 0 0 .625-.624.626.626 0 0 0-.625-.624h-2.5a.626.626 0 0 0-.625.624c0 .343.281.624.625.624Zm-5.313-1.875a.937.937 0 1 0 0 1.872.937.937 0 1 0 0-1.872m.336-2.043c-.114.397.202.788.636.788h6.182c.434 0 .75-.391.636-.787L15.19 9.96a.654.654 0 0 0-.636-.46H9.446a.654.654 0 0 0-.636.46ZM21.375 4.5a.625.625 0 0 1 .625.625v13.75a.625.625 0 1 1-1.25 0V7.625A.625.625 0 0 0 20.125 7H3.875a.625.625 0 0 0-.625.625v11.25a.625.625 0 1 1-1.25 0V5.125a.625.625 0 0 1 .625-.625Z"/></svg>