<svg xmlns="http://www.w3.org/2000/svg" viewBox="0 0 24 24"><path fill="#44739e" d="M17.714 9.341a1.42 1.42 0 0 0-.714 1.23 1.42 1.42 0 0 0 .714 1.23v3.073c-.059-.003-.115-.017-.175-.017h-2.682v-3.056a1.42 1.42 0 0 0 .714-1.23c0-.527-.289-.982-.714-1.23V6.286h2.857ZM6.286 14.874v-3.073A1.42 1.42 0 0 0 7 10.571c0-.527-.289-.982-.714-1.23V6.286h2.857v3.055a1.42 1.42 0 0 0-.714 1.23 1.42 1.42 0 0 0 .714 1.23v3.056H6.461c-.06 0-.116.014-.175.017m7.143-5.533a1.42 1.42 0 0 0-.715 1.23 1.42 1.42 0 0 0 .715 1.23v3.056h-2.858v-3.056a1.42 1.42 0 0 0 .715-1.23c0-.527-.29-.982-.715-1.23V6.286h2.858Zm7.857-4.484H2.714A.716.716 0 0 0 2 5.571c0 .393.321.715.714.715h2.143v3.055a1.42 1.42 0 0 0-.714 1.23 1.42 1.42 0 0 0 .714 1.23v3.524a3.02 3.02 0 0 0-1.428 2.565c0 .692.56 1.253 1.252 1.253h14.638c.692 0 1.252-.561 1.252-1.253a3.02 3.02 0 0 0-1.428-2.565v-3.524a1.42 1.42 0 0 0 .714-1.23c0-.527-.289-.982-.714-1.23V6.286h2.143A.717.717 0 0 0 22 5.571a.716.716 0 0 0-.714-.714"/></svg>