<svg xmlns="http://www.w3.org/2000/svg" viewBox="0 0 24 24"><path fill="#44739e" d="M19.238 7.358c.24.171.342.492.214.757-.204.42-.639.748-1.14.748-.326 0-.624-.138-.848-.351a.604.604 0 0 0-.829 0 1.24 1.24 0 0 1-.848.351 1.23 1.23 0 0 1-.847-.351.605.605 0 0 0-.83 0 1.24 1.24 0 0 1-.848.351c-.233 0-.449-.073-.636-.191v4.57a.626.626 0 1 1-1.251 0V8.674a1.2 1.2 0 0 1-.639.189 1.24 1.24 0 0 1-.846-.35.607.607 0 0 0-.83 0c-.223.211-.521.35-.848.35a1.24 1.24 0 0 1-.847-.35.607.607 0 0 0-.83 0c-.223.211-.521.35-.847.35-.502 0-.936-.328-1.139-.748-.129-.265-.026-.586.212-.757l6.859-5.23a.626.626 0 0 1 .759 0Zm-2.859 7.135a1.251 1.251 0 0 1 0 2.502h-2.765l3.249 3.984a.626.626 0 0 1-.969.791L12 16.995 8.105 21.77a.626.626 0 0 1-.969-.791l3.249-3.984H7.62a1.251 1.251 0 0 1 0-2.502Z"/></svg>