<svg xmlns="http://www.w3.org/2000/svg" viewBox="0 0 24 24"><path fill="#44739e" d="M18.667 12H5.333A3.333 3.333 0 0 0 2 15.333V17a.833.833 0 0 0 .833.833h.834v.834a1.667 1.667 0 0 0 3.333 0v-.834h10v.834a1.667 1.667 0 0 0 3.333 0v-.834h.834A.833.833 0 0 0 22 17v-1.667A3.333 3.333 0 0 0 18.667 12M8.759 7h6.481c.513 0 .927.373.927.833s-.414.834-.927.834H8.759c-.511 0-.926-.373-.926-.834S8.248 7 8.759 7m-2.592 3.333h11.666a.833.833 0 0 0 .834-.833v-5a.833.833 0 0 0-.834-.833H6.167a.833.833 0 0 0-.834.833v5a.833.833 0 0 0 .834.833"/></svg>