<svg xmlns="http://www.w3.org/2000/svg" viewBox="0 0 24 24"><path fill="#44739e" d="M21.817 3.451c.244.244.243.667-.003 1.019l-3.753 5.372c-.333.479-.968.618-1.301.285l-.783-.783-.898.898-1.304-1.303.898-.898-.782-.784c-.333-.333-.195-.966.284-1.3l5.375-3.753c.35-.245.774-.246 1.019-.002ZM8.288 13.123l2.608 2.608-5.999 6a.925.925 0 0 1-1.305 0l-1.303-1.305a.925.925 0 0 1 0-1.304Zm13.425 6.108a.925.925 0 0 1 0 1.303l-1.178 1.178a.925.925 0 0 1-1.305 0L7.985 10.467c-1.338.527-2.908.367-4.103-.478A4.38 4.38 0 0 1 2.09 5.517c.068-.335.494-.452.736-.21l1.699 1.699a.88.88 0 0 0 1.241 0l1.241-1.241a.88.88 0 0 0 0-1.24L5.311 2.827a.44.44 0 0 1 .218-.74 4.37 4.37 0 0 1 3.958 1.196 4.38 4.38 0 0 1 .977 4.699Z"/></svg>