<svg xmlns="http://www.w3.org/2000/svg" viewBox="0 0 24 24"><path fill="#44739e" d="M17.769 2c.846 0 1.539.692 1.539 1.538v16.924c0 .846-.693 1.538-1.539 1.538s-1.538-.692-1.538-1.538v-8.269c-1.232-.885-2.308-2.703-2.308-4.808 0-2.895 2.035-5.25 3.711-5.371.045-.004.088-.014.135-.014m-7.692 11.378v7.084a1.538 1.538 0 0 1-3.077 0v-7.084c0-.391-.148-.767-.416-1.053l-.227-.242a6.15 6.15 0 0 1-1.665-4.208V2.769a.77.77 0 0 1 1.539 0v3.846c0 .423.346.77.769.77s.769-.347.769-.77V2.769c0-.423.346-.769.769-.769s.77.346.77.769v3.846c0 .423.346.77.769.77s.769-.347.769-.77V2.769c0-.423.346-.769.769-.769s.77.346.77.769v5.106a6.15 6.15 0 0 1-1.665 4.207l-.227.243a1.54 1.54 0 0 0-.416 1.053"/></svg>