<svg xmlns="http://www.w3.org/2000/svg" viewBox="0 0 24 24"><path fill="#44739e" d="M20.571 9.876A1.43 1.43 0 0 1 22 11.305v4.331a.67.67 0 0 1-.669.669h-.76v.714a1.429 1.429 0 0 1-2.857 0v-.714H6.286v.714a1.429 1.429 0 0 1-2.857 0v-.714h-.76A.67.67 0 0 1 2 15.636v-4.331a1.429 1.429 0 0 1 2.857 0v1.428h14.286v-1.428a1.43 1.43 0 0 1 1.428-1.429M6.286 11.305a2.857 2.857 0 0 0-2.857-2.857V7.019A1.43 1.43 0 0 1 4.857 5.59h14.286a1.43 1.43 0 0 1 1.428 1.429v1.429a2.857 2.857 0 0 0-2.857 2.857Z"/></svg>