<svg xmlns="http://www.w3.org/2000/svg" viewBox="0 0 24 24"><path fill="#44739e" d="M12.643 11.164a1.483 1.483 0 0 1-1.48-1.483v-.185h2.961v.185a1.483 1.483 0 0 1-1.481 1.483m7.912 5.422a.834.834 0 0 1 1.221 1.133A13.35 13.35 0 0 1 12.003 22a13.35 13.35 0 0 1-9.773-4.281.834.834 0 0 1 1.221-1.133c.075.082.162.154.24.233l2.413-6.636c-2.86.844-5.33-2.381-3.444-4.312 1.083-1.108-.021-2.215-.563-2.743a.302.302 0 0 1 .118-.501C8.364.593 10.523 3.972 10.829 6.15c.124.881-.276 2.042-.491 2.554l-.709 1.799c.367 1.333 1.577 2.32 3.023 2.32 1.676 0 3.037-1.322 3.129-2.977.342.163.651.385.925.643a3.75 3.75 0 0 0 2.837-1.1 3.8 3.8 0 0 0 1.031-1.917c.126-.62 1.027-.659 1.232-.061.558 1.637-.232 2.908-.573 3.355a2.5 2.5 0 0 1-.259.283 3.8 3.8 0 0 1-3.15.956c.035.056.073.11.102.171l2.233 4.795v.001c.132-.129.27-.25.397-.386m-8.553 3.745a11.7 11.7 0 0 0 5.534-1.414 1.7 1.7 0 0 1-.398-.536l-1.811-3.889H8.083l-1.454 4.002a1.7 1.7 0 0 1-.215.394 11.7 11.7 0 0 0 5.589 1.443M5.339 6.984a.833.833 0 1 0-.001-1.666.833.833 0 0 0 .001 1.666"/></svg>