<svg xmlns="http://www.w3.org/2000/svg" viewBox="0 0 24 24"><path fill="#44739e" d="M19.247 7.365c.24.171.342.492.214.757-.204.421-.639.749-1.141.749-.326 0-.625-.138-.849-.351a.605.605 0 0 0-.831 0 1.24 1.24 0 0 1-.848.351 1.23 1.23 0 0 1-.848-.351.606.606 0 0 0-.831 0 1.24 1.24 0 0 1-.849.351c-.233 0-.45-.073-.638-.191v4.575a.627.627 0 1 1-1.252 0V8.682a1.2 1.2 0 0 1-.64.189 1.24 1.24 0 0 1-.846-.35.61.61 0 0 0-.831 0c-.224.211-.523.35-.85.35a1.24 1.24 0 0 1-.848-.35.61.61 0 0 0-.831 0c-.223.211-.521.35-.848.35-.502 0-.938-.328-1.141-.749-.129-.265-.026-.586.212-.757l6.868-5.237a.63.63 0 0 1 .76 0Zm-2.863 7.144a1.252 1.252 0 0 1 0 2.504h-2.768l3.253 3.989a.627.627 0 0 1-.97.792L12 17.013l-3.9 4.781a.627.627 0 0 1-.97-.792l3.253-3.989H7.614a1.252 1.252 0 0 1 0-2.504Z"/></svg>