<?xml version="1.0" encoding="UTF-8"?>
<svg width="32px" height="32px" viewBox="0 0 32 32" version="1.1" xmlns="http://www.w3.org/2000/svg" xmlns:xlink="http://www.w3.org/1999/xlink">
    <!-- Generator: Sketch 51.3 (57544) - http://www.bohemiancoding.com/sketch -->
    <title>roomsDriveway</title>
    <desc>Created with Sketch.</desc>
    <defs></defs>
    <g stroke="none" stroke-width="1" fill="none" fill-rule="evenodd">
        <g fill="#101010">
            <path d="M24,20 C22.896,20 22,19.104 22,18 C22,16.896 22.896,16 24,16 C25.104,16 26,16.896 26,18 C26,19.104 25.104,20 24,20 Z M21.77,13 L10.23,13 C9.42,13 8.831,12.248 9.044,11.485 L10.046,7.886 C10.191,7.363 10.678,7 11.232,7 L20.768,7 C21.322,7 21.809,7.363 21.954,7.886 L22.956,11.485 C23.169,12.248 22.58,13 21.77,13 Z M20,18.594 C20,19.367 19.359,20 18.577,20 L13.423,20 C12.641,20 12,19.367 12,18.594 L12,18.406 C12,17.633 12.641,17 13.423,17 L18.577,17 C19.359,17 20,17.633 20,18.406 L20,18.594 Z M8,20 C6.896,20 6,19.104 6,18 C6,16.896 6.896,16 8,16 C9.104,16 10,16.896 10,18 C10,19.104 9.104,20 8,20 Z M27.313,14.318 L26.108,13.743 C25.786,13.589 25.549,13.298 25.459,12.949 L23.661,5.91 C23.524,5.374 23.047,5 22.499,5 L9.501,5 C8.953,5 8.476,5.374 8.339,5.91 L6.541,12.949 C6.451,13.298 6.214,13.589 5.892,13.743 L4.688,14.318 C4.268,14.519 4,14.946 4,15.416 L4,21.786 C4,22.456 4.537,23 5.2,23 L7,23 L7,25.174 C7,26.179 7.821,27 8.826,27 L10.174,27 C11.179,27 12,26.179 12,25.174 L12,23 L20,23 L20,25.174 C20,26.179 20.821,27 21.826,27 L23.174,27 C24.179,27 25,26.179 25,25.174 L25,23 L26.8,23 C27.463,23 28,22.456 28,21.786 L28,15.416 C28,14.946 27.732,14.519 27.313,14.318 Z"></path>
        </g>
    </g>
</svg>