<svg xmlns="http://www.w3.org/2000/svg" viewBox="0 0 24 24"><path fill="#44739e" d="M17 7c.393 0 .714.321.714.714v8.572A.716.716 0 0 1 17 17h-2.857a.716.716 0 0 1-.714-.714v-2.143h-2.858v2.143a.716.716 0 0 1-.714.714H7a.716.716 0 0 1-.714-.714V7.714C6.286 7.321 6.607 7 7 7h2.857c.393 0 .714.321.714.714v2.143h2.858V7.714c0-.393.321-.714.714-.714ZM3.429 9.143a.714.714 0 0 1 .714-.714h.714v7.142h-.714a.714.714 0 0 1-.714-.714v-1.428a1.429 1.429 0 0 1 0-2.858Zm17.142 1.428a1.429 1.429 0 0 1 0 2.858v1.428a.714.714 0 0 1-.714.714h-.714V8.429h.714a.714.714 0 0 1 .714.714Z"/></svg>