<svg xmlns="http://www.w3.org/2000/svg" viewBox="0 0 24 24"><path fill="#44739e" d="M19.857 10.524a.714.714 0 1 1 0-1.428.714.714 0 0 1 0 1.428m-2.143-2.143a.714.714 0 1 1 0-1.428.714.714 0 0 1 0 1.428m0 4.333a.714.714 0 1 1-.001-1.427.714.714 0 0 1 .001 1.427m-2.143-2.19a.714.714 0 1 1 0-1.428.714.714 0 0 1 0 1.428m-7.883 0h-.714v.715c0 .392-.322.714-.715.714s-.714-.322-.714-.714v-.715h-.714c-.393 0-.715-.321-.715-.714s.322-.714.715-.714h.714v-.715c0-.392.321-.714.714-.714s.715.322.715.714v.715h.714c.393 0 .714.321.714.714s-.321.714-.714.714m10.281-4.953H6.697C4.279 5.571 2 7.499 2 9.81v6.044c0 1.496 1.474 2.575 2.816 2.575 1.076 0 2.09-.684 2.485-1.63l1.358-3.373h6.682l1.815 3.373c.539.946 1.219 1.557 2.285 1.557 1.484 0 2.559-1.006 2.559-2.502V9.81c0-2.311-1.755-4.239-4.031-4.239"/></svg>