<svg xmlns="http://www.w3.org/2000/svg" viewBox="0 0 24 24"><path fill="#44739e" d="M18.562 10.75h-.625a.94.94 0 0 0-.937.938v1.94a.5.5 0 0 1-.499.499h-.004a3.2 3.2 0 0 0-2.711-1.502h-1.161V10.75h1.932a1.82 1.82 0 0 0 1.818-1.819l-.796-6.152a.91.91 0 0 0-.9-.779H9.321a.91.91 0 0 0-.9.779l-.796 6.152a1.82 1.82 0 0 0 1.818 1.819h1.932v1.875h-1.161a3.2 3.2 0 0 0-2.527 1.25h-.188A.5.5 0 0 1 7 13.376v-1.814c0-.586-.479-1.064-1.063-1.064h-.374c-.584 0-1.063.478-1.063 1.064 0 .584.479 1.063 1.063 1.063h.187v.751a1.75 1.75 0 0 0 1.351 1.7 3 3 0 0 0-.101.763c0 .296.24.536.536.536h3.76l-2.72 3.173a1.3 1.3 0 0 0-.326-.048 1.25 1.25 0 1 0 1.25 1.25c0-.181-.04-.352-.11-.507l1.985-2.317v1.747a1.25 1.25 0 0 0-.625 1.077 1.25 1.25 0 0 0 2.5 0c0-.461-.253-.86-.625-1.077v-1.747l1.985 2.317a1.25 1.25 0 0 0-.11.507 1.25 1.25 0 1 0 1.25-1.25c-.114 0-.221.02-.326.048l-2.72-3.173h3.76a.536.536 0 0 0 .536-.536c0-.18-.024-.355-.053-.526a1.75 1.75 0 0 0 1.303-1.685v-1.003h.312c.516 0 .938-.422.938-.937s-.422-.938-.938-.938"/></svg>