<svg xmlns="http://www.w3.org/2000/svg" viewBox="0 0 24 24"><path fill="#44739e" d="m12.351 9.08 5.471 7.54c.31.425.015 1.035-.5 1.035H6.673c-.517 0-.81-.61-.5-1.036l5.477-7.54a.43.43 0 0 1 .701.001M12 16.399a1.875 1.875 0 1 0 0-3.75 1.875 1.875 0 0 0 0 3.75m9.872 1.483c.312.416.018 1.017-.498 1.017h-.027a.63.63 0 0 1-.5-.251l-.765-1.029h.01l-1.425-1.898-5.754-7.664-.625-.831a.36.36 0 0 0-.576 0l-.625.831-5.754 7.664-1.425 1.897h.011l-.766 1.029a.63.63 0 0 1-.5.251h-.026c-.518 0-.811-.6-.498-1.017l.78-1.04 1.425-1.898 5.756-7.662.911-1.215.562-.747a.548.548 0 0 1 .875 0l.561.748.912 1.214 1.837 2.447V8.294c0-.356.28-.645.625-.645h1.252c.346 0 .625.289.625.644v4.767l1.417 1.884 1.425 1.898Z"/></svg>