<svg xmlns="http://www.w3.org/2000/svg" viewBox="0 0 24 24"><path fill="#44739e" d="M10.053 6.71a.432.432 0 1 0-.432-.432.433.433 0 0 0 .432.432m-4.127.284a.43.43 0 0 1-.433.432.43.43 0 0 1-.432-.432.43.43 0 0 1 .432-.432.43.43 0 0 1 .433.432M2.938 11.2a.432.432 0 1 0-.433-.432.433.433 0 0 0 .433.432m.973 3.563a.432.432 0 1 0 .432.431.43.43 0 0 0-.432-.431m3.692 2.593a.432.432 0 1 0 .433.432.433.433 0 0 0-.433-.432m4.431-.85a.432.432 0 1 0 .431.432.433.433 0 0 0-.431-.432m2.38-3.667a.433.433 0 1 0 .432.432.433.433 0 0 0-.432-.432m-.679-3.54a.432.432 0 1 0-.433-.431.433.433 0 0 0 .433.431m-6.461.112a.432.432 0 1 0-.023-.609.433.433 0 0 0 .023.609m-.479-1.22a.432.432 0 1 0-.024-.612.43.43 0 0 0 .024.612m-.492-1.312a.43.43 0 0 0 .61-.024.432.432 0 1 0-.61.024m4.626 10.213a.433.433 0 1 0 .3.127.43.43 0 0 0-.3-.127m-.125-.501a.432.432 0 1 0-.611 0 .43.43 0 0 0 .611 0m-.445-1.33a.432.432 0 1 0-.611 0 .433.433 0 0 0 .611 0m-6.764-1.42a.433.433 0 1 0 0 .611.433.433 0 0 0 0-.611m1.239.179a.432.432 0 1 0-.612 0 .433.433 0 0 0 .612 0m1.329-.442a.432.432 0 1 0-.61 0 .43.43 0 0 0 .61 0m5.523-3.163a.432.432 0 1 0 .305.126.43.43 0 0 0-.305-.126m1.238.433a.432.432 0 1 0-.306-.126.43.43 0 0 0 .306.126m1.024-.57a.432.432 0 1 0 0-.611.433.433 0 0 0 0 .611m-2.3 3.423a.433.433 0 1 0-.432-.434.433.433 0 0 0 .432.434m1.612.142a.432.432 0 1 0-.432.432.43.43 0 0 0 .432-.432m.822.195a.433.433 0 1 0 .432.433.433.433 0 0 0-.432-.433m-10.69-3.939a.432.432 0 1 0-.432-.432.433.433 0 0 0 .432.432m.749.142a.432.432 0 1 0 .432-.432.43.43 0 0 0-.432.432m1.686.196a.432.432 0 1 0 .431.433.43.43 0 0 0-.431-.433m1.743 5.017a.432.432 0 1 0-.432-.432.433.433 0 0 0 .432.432m-.567.317a.433.433 0 1 0 .432.434.433.433 0 0 0-.432-.434m-.631 1.254a.433.433 0 1 0 .432.432.433.433 0 0 0-.432-.432m4.881-9.796a.432.432 0 1 0-.434-.432.43.43 0 0 0 .434.432m-.572.318a.432.432 0 1 0 .433.433.43.43 0 0 0-.433-.433m-.628 2.117a.433.433 0 1 0-.432-.433.433.433 0 0 0 .432.433m-5.138-1.53a.432.432 0 1 0-.612 0 .433.433 0 0 0 .612 0m.324.325a.432.432 0 1 0 .612 0 .433.433 0 0 0-.612 0m.936.94a.432.432 0 1 0 .611 0 .43.43 0 0 0-.611 0m1.547.93a.433.433 0 1 0 0 .613.435.435 0 0 0 0-.613m2.745 3.41a.432.432 0 1 0-.611 0 .43.43 0 0 0 .611 0m.938.935a.43.43 0 0 0 0-.611.433.433 0 0 0-.739.306.43.43 0 0 0 .127.3.43.43 0 0 0 .612.005m.324.935a.432.432 0 1 0 0-.611.43.43 0 0 0 0 .611m1.546.325a.432.432 0 1 0-.612.612.432.432 0 0 0 .612-.612m-.255-7.622a.432.432 0 1 0 0-.865.432.432 0 1 0 0 .865m-1.24.808a.431.431 0 1 0-.127-.299.43.43 0 0 0 .127.299m-.937.936a.433.433 0 1 0-.126-.3.43.43 0 0 0 .126.3m-.939.325a.432.432 0 0 0 .3.738.432.432 0 1 0 0-.865.43.43 0 0 0-.3.127m-2.742 2.797a.432.432 0 1 0 .611 0 .43.43 0 0 0-.611 0m-.63.81a.43.43 0 0 0-.306.127.432.432 0 1 0 .611 0 .43.43 0 0 0-.305-.127m-.628 1.061a.433.433 0 1 0 0 .612.434.434 0 0 0 0-.612m-1.244.809a.43.43 0 0 0-.3.127.431.431 0 1 0 .3-.127m2.157-3.366a.432.432 0 1 0-.433-.432.433.433 0 0 0 .433.432m-.891-.432a.43.43 0 0 1-.433.432.43.43 0 0 1-.432-.432.43.43 0 0 1 .432-.432.43.43 0 0 1 .433.432m-1.756.432a.432.432 0 1 0-.432-.432.433.433 0 0 0 .432.432m-.891-.432a.432.432 0 1 0-.432.432.43.43 0 0 0 .432-.432m10.868 0a.432.432 0 1 0 .432-.432.433.433 0 0 0-.432.432m-.459 0a.43.43 0 0 1-.433.432.43.43 0 0 1-.432-.432.43.43 0 0 1 .432-.432.43.43 0 0 1 .433.432m-2.183 0a.432.432 0 1 0 .432-.432.43.43 0 0 0-.432.432m-.901-.432a.432.432 0 1 0 .434.432.43.43 0 0 0-.434-.432m-1.391-1.38a.433.433 0 1 0-.433.433.433.433 0 0 0 .433-.433m-.433-.891a.433.433 0 1 0-.432-.431.433.433 0 0 0 .432.431m0-1.322a.433.433 0 1 0-.432-.436.433.433 0 0 0 .432.436m0-1.325a.432.432 0 1 0-.432-.432.433.433 0 0 0 .432.432m0 10.699a.433.433 0 1 0 .433.432.433.433 0 0 0-.433-.432m0-1.323a.432.432 0 1 0 .433.432.433.433 0 0 0-.433-.432m0-1.323a.432.432 0 1 0 .433.431.43.43 0 0 0-.433-.431m0-1.324a.433.433 0 1 0 .433.433.433.433 0 0 0-.433-.433m.924-1.379a.92.92 0 1 0-.92.919.92.92 0 0 0 .92-.919m5.854 0a6.779 6.779 0 1 0-6.778 6.778 6.786 6.786 0 0 0 6.778-6.778m-1.476 3.016a.607.607 0 1 1 .606-.605.607.607 0 0 1-.606.605m-7.122-.227a.606.606 0 1 1 .131-.2.605.605 0 1 1-.127.369.6.6 0 0 1 .046-.23Zm-.143-3.395a.606.606 0 1 1-.607.606.606.606 0 0 1 .607-.606m-.99.022a.606.606 0 1 1 .605-.606.607.607 0 0 1-.605.606m1.589-.234a.606.606 0 1 1 .429-.177.6.6 0 0 1-.429.177m-.507-1.114a.606.606 0 1 1 0-.857.6.6 0 0 1 0 .857m-.935-.936a.606.606 0 1 1 0-.856.6.6 0 0 1 0 .856m-.795 1.049a.606.606 0 1 1-.606-.606.606.606 0 0 1 .606.606M4.17 11.454a.606.606 0 1 1-.606.606.606.606 0 0 1 .606-.606m-.067 1.831a.606.606 0 1 1 0 .858.6.6 0 0 1 0-.858m.788-1.225a.606.606 0 1 1 .606.606.606.606 0 0 1-.61-.606Zm.542.783a.606.606 0 1 1 0 .858.607.607 0 0 1-.004-.858Zm2.467 1.07a.606.606 0 1 1 0-.858.6.6 0 0 1-.004.858Zm-.21-1.853a1.094 1.094 0 1 1 1.094 1.093 1.095 1.095 0 0 1-1.098-1.093Zm.487-1.812a.606.606 0 1 1 .607.607.607.607 0 0 1-.611-.607Zm2.547-.926a.607.607 0 1 1-.177.429.6.6 0 0 1 .173-.429Zm-.039-.736a.606.606 0 1 1 .607-.606.607.607 0 0 1-.611.606Zm1.857 3.474a.606.606 0 1 1-.605-.606.607.607 0 0 1 .601.606Zm-.043-2.074a.606.606 0 1 1 0 .859.607.607 0 0 1-.004-.859Zm-.382 1.291a.606.606 0 1 1 0-.859.6.6 0 0 1-.004.859Zm-1.471-1.019a.6.6 0 1 1-.429-.178.6.6 0 0 1 .425.178ZM9.733 13a.606.606 0 1 1 0 .858.605.605 0 0 1 0-.858m.875-.338a.606.606 0 1 1 .608-.606.607.607 0 0 1-.612.61Zm1.04 0a.607.607 0 1 1-.606.606.607.607 0 0 1 .606-.603Zm.814 2.211a.606.606 0 1 1-.856 0 .607.607 0 0 1 .856.003Zm-.24-1.033a.606.606 0 1 1 .606.606.607.607 0 0 1-.606-.603Zm1.033-1.177a.606.606 0 1 1 .607-.606.607.607 0 0 1-.607.609Zm1.159 1.213a.607.607 0 1 1 .606-.608.607.607 0 0 1-.606.611Zm.771-1.819a.606.606 0 1 1-.606-.606.606.606 0 0 1 .606.609Zm-.5-1.659a.606.606 0 1 1 0-.857.6.6 0 0 1-.002.858Zm-.342-1.534a.606.606 0 1 1-.606-.606.607.607 0 0 1 .604.609Zm-1.751-1.413a.606.606 0 0 1 1.034.428.606.606 0 0 1-1.212 0 .6.6 0 0 1 .178-.428m-.079.936a.607.607 0 1 1-.428-.177.6.6 0 0 1 .428.177m-1.26-2.201a.606.606 0 1 1-.608.606.607.607 0 0 1 .608-.601Zm-1.201-.519a.606.606 0 1 1-.606.606.607.607 0 0 1 .607-.601Zm0 2.954a.607.607 0 1 1-.606.605.607.607 0 0 1 .607-.6ZM8.78 5.672a.606.606 0 1 1-.607.606.606.606 0 0 1 .607-.606m0 1.327a.607.607 0 1 1-.607.6.606.606 0 0 1 .607-.6m0 1.324a.607.607 0 1 1-.607.607.606.606 0 0 1 .607-.611Zm-.767 1.183a.61.61 0 0 1-.857.033.606.606 0 1 1 .857-.033m-.48-1.22a.61.61 0 0 1-.857.033.606.606 0 1 1 .857-.033m-2.04-1.901a.6.6 0 0 1 .501.269l-.008-.072a.606.606 0 1 1 .628.582h-.02a.6.6 0 0 1-.411-.162.6.6 0 0 1-.091-.103 1 1 0 0 1 .012.1.606.606 0 1 1-.607-.606ZM4.18 7.399a.607.607 0 1 1 0 .858.61.61 0 0 1 0-.858m-1.242 2.762a.6.6 0 0 1 .113.011.606.606 0 1 1 .341.105.6.6 0 0 1-.113-.011.606.606 0 1 1-.341-.1Zm-.701 1.901a.606.606 0 1 1 .607.606.606.606 0 0 1-.604-.608Zm.621 2.515a.605.605 0 0 1 0-.857.6.6 0 0 1 .857 0 .607.607 0 0 1-.429 1.035.6.6 0 0 1-.425-.18ZM3.911 15.8a.606.606 0 1 1 .606-.606.607.607 0 0 1-.606.606m1.178.92a.607.607 0 1 1 0-.858.6.6 0 0 1 0 .858m.078-.936a.608.608 0 1 1 .43.177.6.6 0 0 1-.43-.177m1.205 2.28a.607.607 0 1 1 .606-.607.607.607 0 0 1-.606.607m.021-1.863a.607.607 0 1 1 .61.61.607.607 0 0 1-.61-.61m2.387 2.243a.61.61 0 0 1-.594-.481.606.606 0 1 1 .014-.3.606.606 0 1 1 .58.786Zm0-1.324a.606.606 0 1 1 .606-.606.607.607 0 0 1-.606.61Zm0-1.324a.606.606 0 1 1 .606-.606.607.607 0 0 1-.606.61Zm0-1.322a.607.607 0 1 1 .606-.606.607.607 0 0 1-.606.61Zm.845.049a.607.607 0 0 1 .857 0l.049.056a.6.6 0 0 1-.04-.214.608.608 0 1 1 .178.428.4.4 0 0 1-.049-.056.606.606 0 1 1-.995-.214m.442 1.329a.607.607 0 1 1 0 .858.607.607 0 0 1 0-.854Zm1.29 2.101a.606.606 0 1 1 0-.857.6.6 0 0 1 0 .857m1.612-1.107a.6.6 0 0 1-.371-.127.6.6 0 0 1 .041.219.606.606 0 1 1-.605-.606.6.6 0 0 1 .37.128.607.607 0 1 1 .565.386m3.537-10.255a.433.433 0 1 0-.433-.432.433.433 0 0 0 .433.432m-2.449 10.646a.432.432 0 1 0 .432.432.43.43 0 0 0-.432-.432m4.425-.85a.432.432 0 1 0 .432.432.43.43 0 0 0-.432-.432m2.38-3.68a.432.432 0 1 0 .433.432.43.43 0 0 0-.433-.432m-.679-3.528a.432.432 0 1 0-.432-.431.43.43 0 0 0 .432.431m-6.846-3.054a.43.43 0 0 0-.611.024.4.4 0 0 0-.084.134 7 7 0 0 1 .662.5l.057-.051a.434.434 0 0 0-.024-.607m4.04 10.848a.432.432 0 1 0 .3.126.43.43 0 0 0-.3-.126m-.127-.501a.432.432 0 1 0-.611 0 .43.43 0 0 0 .611 0m-.444-1.331a.432.432 0 1 0-.612 0 .43.43 0 0 0 .612 0m1.327-4.842a.432.432 0 1 0 .306.126.43.43 0 0 0-.306-.126m1.24.43a.43.43 0 0 0 .3-.128.431.431 0 1 0-.3.128m1.024-.56a.432.432 0 1 0 0-.611.43.43 0 0 0 0 .611m-2.302 3.416a.432.432 0 1 0-.431-.433.433.433 0 0 0 .431.433m1.611.139a.433.433 0 1 0-.432.432.433.433 0 0 0 .432-.432m.824.195a.432.432 0 1 0 .432.432.433.433 0 0 0-.432-.432m-7.28 3.459q-.242.2-.5.386a.4.4 0 0 0 .072.006.43.43 0 0 0 .428-.392M17.706 7.11a.432.432 0 1 0-.432-.432.433.433 0 0 0 .432.432m-.576.317a.432.432 0 1 0 .432.432.433.433 0 0 0-.432-.432m-.624 2.117a.432.432 0 1 0-.433-.432.433.433 0 0 0 .433.432m.411 4.075a.432.432 0 1 0-.612 0 .433.433 0 0 0 .612 0m.935.936a.432.432 0 1 0-.611 0 .43.43 0 0 0 .611 0m.324.935a.432.432 0 1 0 .611-.61.432.432 0 0 0-.611.61m1.242.198a.432.432 0 1 0 .306.126.43.43 0 0 0-.306-.126m.052-7.495a.432.432 0 1 0 0-.865.43.43 0 0 0-.433.432.434.434 0 0 0 .433.433M18.227 9a.433.433 0 1 0-.122-.3.43.43 0 0 0 .122.3m-.934.937a.431.431 0 1 0-.127-.306.43.43 0 0 0 .127.306m-.325.936a.43.43 0 0 0 0-.612.433.433 0 0 0-.739.306.432.432 0 0 0 .739.301Zm3.627 1.067a.433.433 0 1 0 .433-.432.433.433 0 0 0-.433.432m-.459 0a.43.43 0 0 1-.432.432.43.43 0 0 1-.432-.432.43.43 0 0 1 .432-.432.43.43 0 0 1 .432.432m-2.187 0a.432.432 0 1 0 .431-.432.433.433 0 0 0-.431.432m-1.323 0a.432.432 0 1 0 .432-.432.43.43 0 0 0-.432.432m-1.304-2.233a7 7 0 0 1 .216.722.431.431 0 0 0-.216-.722m.339-.901a.432.432 0 0 0-.831-.166q.162.285.3.585a.433.433 0 0 0 .534-.419Zm-.432-1.756a.432.432 0 1 0 .432.432.433.433 0 0 0-.432-.432m0-1.324a.433.433 0 1 0 .432.433.433.433 0 0 0-.432-.433m0 11.564a.432.432 0 1 0 .432.432.433.433 0 0 0-.432-.432m0-1.324a.432.432 0 1 0 .432.433.43.43 0 0 0-.432-.433m0-.459a.433.433 0 0 0 0-.864 7 7 0 0 1-.334.711.43.43 0 0 0 .334.153m.432-1.755a.43.43 0 0 0-.08-.249q-.069.325-.168.639a.43.43 0 0 0 .248-.39m.487-1.812a.92.92 0 0 0-.478-.806 7 7 0 0 1 .062.926q0 .338-.033.669a.92.92 0 0 0 .449-.789m-.919-6.778a6.74 6.74 0 0 0-3.152.779q.213.115.417.245a.6.6 0 0 1 .1-.156.61.61 0 0 1 .861-.031.606.606 0 0 1 .033.857l-.052.049q.149.133.288.275a.6.6 0 0 1 .405.446 7 7 0 0 1 .6.841.606.606 0 1 1 .5.946h-.024l.046.114a.6.6 0 0 1 .329 1.1q.032.149.057.307a1.093 1.093 0 0 1 .037 2.01q-.022.178-.054.354a.605.605 0 0 1-.277 1.056l-.046.127a.606.606 0 1 1-.488 1.039 7 7 0 0 1-1.394 1.721 1 1 0 0 1 .009.1.6.6 0 0 1-.861.549 7 7 0 0 1-.265.165 6.778 6.778 0 1 0 2.931-12.893m0 13.166a.61.61 0 0 1-.593-.48.606.606 0 1 1 .014-.3.606.606 0 1 1 .579.785Zm0-1.323a.606.606 0 1 1 .606-.606.607.607 0 0 1-.606.602Zm6.401-5.065a.607.607 0 1 1-.606-.606.607.607 0 0 1 .61.606Zm-.5-1.658a.606.606 0 1 1 0-.857.6.6 0 0 1 .001.857Zm-3.96-1.083a.606.606 0 0 1 1.033.428.606.606 0 0 1-1.211 0 .6.6 0 0 1 .178-.428m-.04-.737a.606.606 0 1 1 .606-.607.606.606 0 0 1-.606.611Zm1.856 3.474a.606.606 0 1 1-.606-.606.607.607 0 0 1 .606.61Zm-.043-2.073a.606.606 0 1 1 .858.858.6.6 0 0 1-.858 0 .607.607 0 0 1 0-.854Zm-.381 1.29a.606.606 0 1 1 0-.858.606.606 0 0 1 0 .862Zm-.899.783a.606.606 0 1 1-.606-.606.607.607 0 0 1 .607.61Zm.431.606a.606.606 0 1 1-.605.606.607.607 0 0 1 .606-.602Zm.815 2.211a.606.606 0 1 1-.857 0 .607.607 0 0 1 .858.004Zm-.24-1.033a.607.607 0 1 1 .608.606.607.607 0 0 1-.607-.602Zm1.037-1.173a.607.607 0 1 1 .607-.607.607.607 0 0 1-.607.607m1.085-3.8a.606.606 0 1 1-.606-.606.607.607 0 0 1 .604.607Zm-1.75-1.416a.6.6 0 1 1-.179.429.6.6 0 0 1 .179-.429m-.08.937a.6.6 0 1 1-.428-.178.6.6 0 0 1 .428.178m-1.255-2.196a.606.606 0 1 1-.606.606.607.607 0 0 1 .606-.606m-1.2-.52a.607.607 0 1 1-.607.607.607.607 0 0 1 .607-.607m-1.277 2.537a.606.606 0 1 1 .606-.607.607.607 0 0 1-.606.607m0-1.324a.607.607 0 1 1 .606-.606.607.607 0 0 1-.606.606m.667 2.347a.606.606 0 1 1 .607.606.607.607 0 0 1-.607-.606M16.233 11a.6.6 0 1 1 .429.178.6.6 0 0 1-.429-.178m-.052 1.888a.607.607 0 1 1 0 .858.61.61 0 0 1 0-.862Zm-.108 1.524a.607.607 0 0 1 .858 0l.049.056a.6.6 0 0 1-.039-.215.6.6 0 1 1 .177.429l-.049-.056a.606.606 0 1 1-.996-.214m.443 1.329a.606.606 0 1 1 0 .858.605.605 0 0 1 0-.862Zm1.289 2.101a.606.606 0 1 1 0-.858.6.6 0 0 1 .001.85Zm2.042-1.285a.6.6 0 0 1-.8.05.6.6 0 0 1 .042.22.608.608 0 1 1-.236-.478.606.606 0 1 1 .994.208m.683-1.592a.606.606 0 1 1 .606-.606.607.607 0 0 1-.606.598Zm.332-1.2a.606.606 0 1 1 .607-.607.607.607 0 0 1-.607.601Z"/></svg>