<svg xmlns="http://www.w3.org/2000/svg" viewBox="0 0 24 24"><path fill="#44739e" d="M12 2a10 10 0 1 0 10 10A10 10 0 0 0 12 2m2.042 4.878L11 7.874l2.062-1.429Zm-.617-.851-.412-.488-.052-.05-.061-.078.986.463-.15.462-.017.054-.031-.051-.207-.247Zm.821 1.06.377 1.66-3.785-.539Zm-.355-.574L14 6.18l.135.459Zm-.417-1.221.612.4-1.3-.492Zm-.909-.021.772 1.029-1.462-.661Zm-.9.533.788.354-1.153.038Zm-.514.655 1.165-.039-1.326.539Zm-.248.793 1.318-.528-1.631 1.125ZM8.13 18.572l2.07-9.618 1.164 7.219Zm3.486-2.484-1.131-6.959 3.025 6.992Zm-1.144-7.666 4.183.594-.969 6.844Zm3.674 6.05.737-5.23.484.613Zm.279-7.733-.217-.809 1.568.438Z"/></svg>