<?xml version="1.0" encoding="UTF-8"?>
<svg width="24px" fill="#44739e" height="24px" viewBox="0 0 24 24" version="1.1" xmlns="http://www.w3.org/2000/svg" xmlns:xlink="http://www.w3.org/1999/xlink">
            <path d="m 11.601,17.943001 h 0.96 v 0.96 h -0.96 z M 17.702,15.91 h 0.96 v 2.994 h -0.96 z m 4.167,-4.495 A 0.285,0.285 0 0 0 21.607,11.242 H 18.53 V 2.386 A 0.286,0.286 0 0 0 18.245,2.1 H 5.756 A 0.286,0.286 0 0 0 5.47,2.386 v 8.855 H 2.393 a 0.286,0.286 0 0 0 -0.207,0.483 l 2.228,2.339 H 3.408 a 0.773,0.773 0 0 0 -0.773,0.773 v 3.107 a 0.77,0.77 0 0 0 0.167,0.48 0.774,0.774 0 0 0 -0.167,0.48 v 1.083 a 0.773,0.773 0 0 0 0.773,0.772 H 8.55 a 0.768,0.768 0 0 0 0.48,-0.167 0.766,0.766 0 0 0 0.48,0.167 h 1.281 l 1,1.053 a 0.283,0.283 0 0 0 0.152,0.083 0.251,0.251 0 0 0 0.057,0.006 0.311,0.311 0 0 0 0.081,-0.012 0.286,0.286 0 0 0 0.126,-0.077 l 1,-1.053 h 1.443 a 0.768,0.768 0 0 0 0.48,-0.167 0.764,0.764 0 0 0 0.48,0.167 h 5.141 a 0.773,0.773 0 0 0 0.773,-0.772 v -5.15 a 0.773,0.773 0 0 0 -0.773,-0.773 h -1.165 l 2.228,-2.339 a 0.286,0.286 0 0 0 0.055,-0.309 z M 6.041,2.671 h 11.918 v 0.21 L 14.331,14.063 H 13.9 L 17.346,3.322 H 6.7 l 3.442,10.741 H 9.692 L 6.041,2.809 Z M 8.55,15.909 H 5.5 v 0.96 h 3.05 v 3.116 H 3.408 V 18.9 H 6.459 V 17.94 H 3.408 V 14.836 H 8.55 Z M 9.03,14.23 A 0.768,0.768 0 0 0 8.55,14.063 H 5.2 L 3.059,11.812 h 2.7 A 0.285,0.285 0 0 0 6.044,11.527 V 3.7 L 9.406,14.07 A 0.762,0.762 0 0 0 9.03,14.23 Z m 2.992,6.947 -0.016,0.017 L 12,21.2 11.579,20.758 h 0.842 z m 2.63,-1.191 H 9.51 V 16.87 h 3.051 V 15.91 H 9.51 v -1.074 h 5.142 z m 0.187,-5.9 A 0.825,0.825 0 0 0 14.652,14.064 H 14.62 l 0.219,-0.675 z m 5.914,0.751 v 5.15 H 15.612 V 12.8 H 17.7 v 2.034 z M 18.8,14.063 H 18.477 V 12.8 a 0.773,0.773 0 0 0 -0.773,-0.773 h -2.09 a 0.766,0.766 0 0 0 -0.361,0.089 l 2.708,-8.347 v 7.756 a 0.285,0.285 0 0 0 0.286,0.285 h 2.7 z"/>

</svg>