<?xml version="1.0" encoding="UTF-8"?>
<svg width="24px" fill="#44739e" height="24px" viewBox="0 0 24 24" version="1.1" xmlns="http://www.w3.org/2000/svg" xmlns:xlink="http://www.w3.org/1999/xlink">
            <path d="m 10.6,11.377 c -0.159,0.411 -0.318,0.822 -0.485,1.252 h 1.055 l -0.509,-1.258 z m 9.924,-0.968 a 11.3,11.3 0 0 0 -1.09,-0.331 Q 17.229,9.547 15.019,9.041 A 10.916,10.916 0 0 0 12.332,8.707 c -0.553,0.013 -1.108,0.022 -1.656,0.087 -0.9,0.106 -1.813,0.209 -2.7,0.4 -1.172,0.255 -2.326,0.6 -3.488,0.9 -0.25,0.065 -0.5,0.127 -0.788,0.2 0.025,-0.133 0.037,-0.22 0.057,-0.3 a 8.422,8.422 0 0 1 1.62,-3.284 8.549,8.549 0 0 1 8.187,-3.025 8.371,8.371 0 0 1 6.35,5.287 c 0.079,0.191 0.1,0.46 0.246,0.551 0.146,0.091 0.414,0.036 0.628,0.038 0.3,0 0.6,0 0.923,0 -0.02,-0.094 -0.028,-0.148 -0.043,-0.2 A 10.053,10.053 0 0 0 12.313,2.019 9.59,9.59 0 0 0 9.965,2.237 9.56,9.56 0 0 0 4.945,4.95 a 9.714,9.714 0 0 0 -2.929,7.6 3.673,3.673 0 0 0 0.412,1.528 1.59,1.59 0 0 0 1.5,0.92 q 5.559,0.012 11.117,0.034 c 1.538,0.005 3.076,0 4.614,0 h 0.276 a 2.751,2.751 0 0 1 -0.1,0.284 c -0.184,0.364 -0.352,0.737 -0.563,1.085 A 8.468,8.468 0 0 1 10.526,20.367 8.373,8.373 0 0 1 4.56,16.115 C 4.419,15.869 4.265,15.708 3.96,15.757 A 0.935,0.935 0 0 1 3.795,15.743 H 2.7 c 0.063,0.148 0.093,0.225 0.126,0.3 a 9.948,9.948 0 0 0 2.62,3.527 9.463,9.463 0 0 0 6.042,2.409 10.227,10.227 0 0 0 2.642,-0.179 9.94,9.94 0 0 0 6.945,-5.588 9.742,9.742 0 0 0 0.914,-3.593 1.88,1.88 0 0 0 -1.465,-2.21 z M 7.583,14.072 A 2.444,2.444 0 0 1 6.396,14.466 5.257,5.257 0 0 1 4.523,14.341 1.537,1.537 0 0 1 3.462,13.064 c 0.321,-0.014 0.62,-0.03 0.918,-0.041 0.062,0 0.125,0.02 0.185,0.015 A 0.486,0.486 0 0 1 5.1,13.32 0.992,0.992 0 0 0 6.242,13.628 C 6.398,13.591 6.527,13.55 6.553,13.356 6.57,13.226 6.547,13.129 6.423,13.09 6.03,12.968 5.638,12.838 5.237,12.744 a 3.308,3.308 0 0 1 -1.123,-0.4 0.861,0.861 0 0 1 -0.043,-1.485 2.542,2.542 0 0 1 1.406,-0.433 c 0.186,-0.012 0.376,0.011 0.561,-0.006 a 2.357,2.357 0 0 1 1.357,0.373 1.492,1.492 0 0 1 0.591,0.906 H 7.464 a 5.229,5.229 0 0 0 -0.56,0 A 0.547,0.547 0 0 1 6.277,11.388 0.4,0.4 0 0 0 6.05,11.241 2.265,2.265 0 0 0 5.726,11.177 c -0.376,-0.073 -0.479,0 -0.576,0.419 0.339,0.079 0.679,0.157 1.018,0.238 0.339,0.081 0.689,0.152 1.025,0.255 a 1.228,1.228 0 0 1 0.859,0.721 1.08,1.08 0 0 1 -0.469,1.262 z m 5.467,0.369 c -0.326,0 -0.651,0 -0.977,0 -0.326,0 -0.336,-0.023 -0.438,-0.325 -0.111,-0.331 -0.111,-0.333 -0.464,-0.335 -0.409,0 -0.817,0.005 -1.226,0 a 0.254,0.254 0 0 0 -0.273,0.2 c -0.179,0.471 -0.181,0.47 -0.686,0.47 h -1.11 c 0.05,-0.123 0.081,-0.212 0.122,-0.3 Q 8.846,12.419 9.693,10.685 A 0.255,0.255 0 0 1 9.949,10.52 c 0.464,0 0.929,-0.009 1.392,0 a 0.3,0.3 0 0 1 0.226,0.127 c 0.608,1.212 1.206,2.428 1.8,3.644 a 1.153,1.153 0 0 1 0.043,0.157 z m 2.108,-1.958 v 0 c 0,0.582 0,1.163 0,1.745 0,0.162 -0.046,0.219 -0.211,0.216 -0.394,-0.01 -0.789,-0.008 -1.184,0 -0.15,0 -0.212,-0.048 -0.212,-0.2 q 0,-1.765 0,-3.531 c 0,-0.152 0.057,-0.208 0.21,-0.205 q 0.591,0.012 1.184,0 c 0.16,0 0.216,0.046 0.213,0.212 -0.005,0.586 0,1.174 0,1.763 z m 5.37,0.567 a 1.93,1.93 0 0 1 -1.428,1.319 4.064,4.064 0 0 1 -2.209,-0.045 1.964,1.964 0 0 1 0.2,-3.811 3.8,3.8 0 0 1 2.107,0.076 1.988,1.988 0 0 1 1.2,1.025 c 0.037,0.079 0.059,0.165 0.1,0.292 -0.487,0 -0.929,0.006 -1.37,-0.005 a 0.318,0.318 0 0 1 -0.2,-0.13 1.131,1.131 0 0 0 -1.131,-0.4 0.929,0.929 0 0 0 -0.729,0.686 1.505,1.505 0 0 0 0.057,0.956 1,1 0 0 0 1.292,0.467 0.977,0.977 0 0 0 0.564,-0.492 0.3,0.3 0 0 1 0.207,-0.147 c 0.4,-0.013 0.8,0 1.2,0 0.169,-0.006 0.193,0.069 0.14,0.209 z"/>
 
</svg>