<svg xmlns="http://www.w3.org/2000/svg" viewBox="0 0 24 24"><path fill="#44739e" d="m10.591 11.371-.484 1.25h1.054l-.509-1.256Zm9.909-.966a11 11 0 0 0-1.088-.331q-2.202-.53-4.408-1.035a11 11 0 0 0-2.683-.334c-.552.013-1.106.022-1.654.087-.898.106-1.81.209-2.696.4-1.17.254-2.322.599-3.482.898-.25.065-.5.127-.787.2.025-.133.037-.22.057-.3a8.4 8.4 0 0 1 1.617-3.279 8.54 8.54 0 0 1 8.175-3.02 8.36 8.36 0 0 1 6.34 5.279c.079.191.1.459.246.55s.413.036.627.038h.922c-.02-.094-.028-.148-.043-.2a10.035 10.035 0 0 0-9.341-7.331 9.6 9.6 0 0 0-2.345.218 9.55 9.55 0 0 0-5.012 2.709 9.7 9.7 0 0 0-2.925 7.588 3.7 3.7 0 0 0 .412 1.526 1.59 1.59 0 0 0 1.498.919q5.55.012 11.1.034c1.535.005 3.071 0 4.607 0h.275a3 3 0 0 1-.1.283c-.183.364-.351.736-.562 1.084a8.46 8.46 0 0 1-8.732 3.96 8.36 8.36 0 0 1-5.957-4.246c-.141-.246-.295-.406-.599-.357a1 1 0 0 1-.165-.014H2.703c.063.147.093.224.126.299a9.9 9.9 0 0 0 2.616 3.522 9.45 9.45 0 0 0 6.033 2.405 10.2 10.2 0 0 0 2.638-.179 9.93 9.93 0 0 0 6.935-5.579 9.7 9.7 0 0 0 .912-3.588 1.877 1.877 0 0 0-1.463-2.206M7.579 14.062a2.44 2.44 0 0 1-1.185.394 5.3 5.3 0 0 1-1.87-.125 1.54 1.54 0 0 1-1.06-1.275c.321-.014.619-.03.917-.041.062 0 .125.02.185.015a.485.485 0 0 1 .534.281.99.99 0 0 0 1.14.308c.156-.037.285-.078.311-.272.017-.13-.006-.226-.13-.265-.393-.122-.784-.252-1.184-.346a3.3 3.3 0 0 1-1.122-.399.86.86 0 0 1-.043-1.483 2.54 2.54 0 0 1 1.404-.432c.186-.012.376.011.56-.006a2.36 2.36 0 0 1 1.355.372 1.5 1.5 0 0 1 .59.905H7.46a5 5 0 0 0-.559 0 .55.55 0 0 1-.626-.311.4.4 0 0 0-.227-.147 2 2 0 0 0-.323-.063c-.376-.073-.478 0-.575.418l1.016.238c.339.08.688.151 1.024.254a1.23 1.23 0 0 1 .857.72 1.08 1.08 0 0 1-.468 1.26m5.459.369h-.976c-.325 0-.335-.023-.437-.325-.111-.33-.111-.332-.463-.334-.409 0-.816.005-1.225 0a.254.254 0 0 0-.272.199c-.179.471-.181.47-.685.47H7.872c.05-.123.08-.212.121-.3l1.693-3.461a.255.255 0 0 1 .255-.164c.464 0 .928-.009 1.39 0a.3.3 0 0 1 .226.126 383 383 0 0 1 1.797 3.639 1 1 0 0 1 .043.157Zm2.105-1.955v1.742c0 .162-.046.219-.211.216q-.59-.013-1.182 0c-.15 0-.212-.048-.212-.2v-3.526c0-.152.057-.207.21-.204q.59.012 1.182 0c.16 0 .216.045.213.211-.005.585 0 1.172 0 1.761m5.361.566a1.93 1.93 0 0 1-1.425 1.317 4.05 4.05 0 0 1-2.206-.045 1.961 1.961 0 0 1 .2-3.805 3.8 3.8 0 0 1 2.103.075 2 2 0 0 1 1.199 1.024c.037.079.059.165.099.291-.486 0-.927.006-1.367-.005a.32.32 0 0 1-.2-.129 1.13 1.13 0 0 0-1.129-.4.93.93 0 0 0-.728.685 1.5 1.5 0 0 0 .057.955 1 1 0 0 0 1.29.466.98.98 0 0 0 .563-.491.3.3 0 0 1 .206-.147c.4-.013.799 0 1.199 0 .168-.006.192.069.139.209"/></svg>