<?xml version="1.0" encoding="UTF-8"?>
<svg width="24px" fill="#44739e" height="24px" viewBox="0 0 24 24" version="1.1" xmlns="http://www.w3.org/2000/svg" xmlns:xlink="http://www.w3.org/1999/xlink">
            <path d="m 17.451,10.892 a 0.762,0.762 0 0 0 -0.572,0.353 c 0,0.007 0,0.007 0,0.007 L 16.866,11 A 0.057,0.057 0 0 0 16.807,10.941 H 16.363 A 0.055,0.055 0 0 0 16.317,11 v 2.025 a 0.055,0.055 0 0 0 0.046,0.059 h 0.457 l 0.007,-0.02 A 0.056,0.056 0 0 0 16.883,13 v -1.291 c 0,-0.307 0.222,-0.392 0.444,-0.392 a 1.031,1.031 0 0 1 0.206,0.019 0.535,0.535 0 0 0 0.16,0.04 0.068,0.068 0 0 0 0.065,-0.066 v -0.3 c 0,-0.046 -0.032,-0.085 -0.1,-0.1 a 0.842,0.842 0 0 0 -0.207,-0.018 z m -2.103,0.047 A 0.053,0.053 0 0 0 15.3,11 v 1.4 c 0,0.311 -0.1,0.477 -0.392,0.477 A 0.345,0.345 0 0 1 14.523,12.513 V 11 A 0.058,0.058 0 0 0 14.464,10.941 H 14 A 0.053,0.053 0 0 0 13.954,11 v 1.4 c 0,0.54 0.473,0.736 0.948,0.738 0.475,0.002 0.96,-0.2 0.96,-0.795 V 11 a 0.058,0.058 0 0 0 -0.059,-0.058 z m -0.438,2.199 h -0.006 v 0 z m -4.702,-1.73 c 0,-0.156 0.157,-0.228 0.353,-0.228 a 1.092,1.092 0 0 1 0.594,0.183 0.265,0.265 0 0 0 0.092,0.039 c 0.045,0 0.072,-0.02 0.072,-0.086 V 11.157 A 0.119,0.119 0 0 0 11.247,11.033 1.6,1.6 0 0 0 10.639,10.91 c -0.451,0 -0.849,0.212 -0.849,0.678 0,0.762 1.2,0.605 1.2,1.017 0,0.176 -0.157,0.268 -0.373,0.268 A 1.046,1.046 0 0 1 10.01,12.652 0.139,0.139 0 0 0 9.918,12.613 c -0.045,0 -0.078,0.02 -0.078,0.087 v 0.188 a 0.122,0.122 0 0 0 0.068,0.123 1.651,1.651 0 0 0 0.654,0.139 l 0.016,-0.01 c 0.438,0 0.856,-0.2 0.856,-0.771 0.002,-0.758 -1.226,-0.582 -1.226,-0.961 z m 9.421,-0.463 a 0.063,0.063 0 0 0 -0.065,0.052 L 19.064,12.37 18.538,11 a 0.065,0.065 0 0 0 -0.072,-0.052 h -0.523 a 0.042,0.042 0 0 0 -0.046,0.046 0.314,0.314 0 0 0 0.027,0.078 l 0.869,2.013 a 0.414,0.414 0 0 1 -0.471,0.4 1.222,1.222 0 0 1 -0.255,-0.033 0.6,0.6 0 0 0 -0.146,-0.026 0.067,0.067 0 0 0 -0.063,0.065 v 0.275 a 0.1,0.1 0 0 0 0.1,0.1 0.751,0.751 0 0 0 0.2,0.02 v 0 a 0.932,0.932 0 0 0 0.836,-0.572 l 0.876,-2.26 c 0.007,-0.027 0.02,-0.04 0.02,-0.059 a 0.044,0.044 0 0 0 -0.04,-0.046 z m 1.149,0.478 c 0,-0.157 0.157,-0.229 0.353,-0.229 a 1.1,1.1 0 0 1 0.593,0.183 0.2,0.2 0 0 0 0.089,0.039 c 0.05,0 0.079,-0.019 0.079,-0.085 V 11.168 A 0.12,0.12 0 0 0 21.82,11.044 1.517,1.517 0 0 0 21.212,10.92 c -0.451,0 -0.849,0.209 -0.849,0.673 0,0.758 1.208,0.6 1.208,1.012 0,0.177 -0.162,0.268 -0.372,0.268 v 0 A 1.032,1.032 0 0 1 20.592,12.651 0.153,0.153 0 0 0 20.5,12.612 c -0.047,0 -0.076,0.019 -0.076,0.087 v 0.187 a 0.117,0.117 0 0 0 0.07,0.121 1.624,1.624 0 0 0 0.653,0.14 v 0.02 A 0.753,0.753 0 0 0 22,12.39 C 22,11.632 20.778,11.8 20.778,11.423 Z M 20.5,10.176 C 20.441,10.1 20.232,10.1 20.121,10.143 c -0.111,0.043 0.046,0.233 0.085,0.37 0.039,0.137 -0.186,0.412 -0.075,0.379 v 0 A 0.525,0.525 0 0 0 20.5,10.176 Z m -7.588,0.744 a 0.942,0.942 0 0 0 -0.627,0.244 v -0.953 a 0.057,0.057 0 0 0 -0.059,-0.058 h -0.464 a 0.057,0.057 0 0 0 -0.046,0.058 v 2.468 a 0.259,0.259 0 0 0 0.085,0.222 1.249,1.249 0 0 0 0.765,0.249 h 0.013 a 1.15,1.15 0 0 0 1.143,-1.228 c 0,-0.571 -0.313,-1.002 -0.81,-1.002 z m -0.307,1.98 a 0.438,0.438 0 0 1 -0.261,-0.052 0.132,0.132 0 0 1 -0.066,-0.124 l -0.006,0.006 v -1.294 a 0.62,0.62 0 0 1 0.373,-0.15 c 0.436,0 0.481,0.568 0.481,0.764 0,0.536 -0.216,0.85 -0.521,0.85 z M 5.261,10.89 A 1.863,1.863 0 0 0 4.51,11.038 0.128,0.128 0 0 0 4.438,11.154 v 0.214 a 0.09,0.09 0 0 0 0.078,0.1 c 0.052,0 0.1,-0.053 0.124,-0.072 l 0.079,-0.053 a 0.947,0.947 0 0 1 0.5,-0.147 c 0.294,0 0.336,0.191 0.336,0.425 0,0.111 -0.038,0.139 -0.455,0.192 -0.254,0.034 -0.834,0.148 -0.834,0.671 a 0.671,0.671 0 0 0 0.748,0.659 h 0.013 a 0.829,0.829 0 0 0 0.556,-0.229 l 0.013,0.124 a 0.054,0.054 0 0 0 0.046,0.056 H 6.079 A 0.053,0.053 0 0 0 6.138,13.038 V 11.546 C 6.143,11.157 5.941,10.89 5.261,10.89 Z m 0.32,1.734 A 0.406,0.406 0 0 1 5.196,12.855 0.335,0.335 0 0 1 4.843,12.491 c 0,-0.259 0.2,-0.5 0.732,-0.5 h 0.006 z m -3.067,-1.83 c 0,-0.222 0.21,-0.366 0.478,-0.366 a 1,1 0 0 1 0.614,0.222 c 0.053,0.04 0.087,0.066 0.129,0.066 0.042,0 0.066,-0.034 0.066,-0.076 V 10.362 A 0.077,0.077 0 0 0 3.748,10.276 2.281,2.281 0 0 0 2.982,10.152 0.872,0.872 0 0 0 2,10.991 c 0,0.967 1.5,0.766 1.494,1.422 A 0.5,0.5 0 0 1 2.932,12.866 1.2,1.2 0 0 1 2.252,12.624 C 2.191,12.58 2.162,12.557 2.119,12.557 c -0.081,0 -0.1,0.043 -0.1,0.087 v 0.24 a 0.1,0.1 0 0 0 0.057,0.1 1.853,1.853 0 0 0 0.789,0.176 v -0.012 c 0.608,0 1.163,-0.313 1.163,-0.98 0.003,-0.884 -1.514,-0.825 -1.514,-1.374 z m 6.305,0.1 A 1.407,1.407 0 0 0 8.127,11.11 V 11 A 0.058,0.058 0 0 0 8.067,10.941 H 7.609 A 0.058,0.058 0 0 0 7.547,11 v 2.038 a 0.056,0.056 0 0 0 0.045,0.059 H 8.05 a 0.054,0.054 0 0 0 0.058,-0.059 v -1.645 a 1.043,1.043 0 0 1 0.451,-0.147 c 0.314,0 0.34,0.192 0.34,0.355 v 1.438 c 0,0.034 0.02,0.058 0.046,0.058 h 0.482 a 0.055,0.055 0 0 0 0.059,-0.059 v -1.484 a 0.6,0.6 0 0 0 -0.667,-0.66 z m -1.776,2.187 v 0 c -0.006,0 -0.006,0.012 -0.013,0.012 z M 6.573,10.938 A 0.058,0.058 0 0 0 6.527,11 v 2.025 A 0.058,0.058 0 0 0 6.58,13.084 H 7.043 C 7.066,13.077 7.089,13.066 7.089,13.039 V 11 A 0.058,0.058 0 0 0 7.03,10.941 Z M 6.811,10.129 A 0.273,0.273 0 0 0 6.5,10.4 0.284,0.284 0 0 0 6.812,10.688 v 0.005 a 0.282,0.282 0 1 0 0,-0.562 z"/>

</svg>