<?xml version="1.0" encoding="UTF-8"?>
<svg width="24px" fill="#44739e" height="24px" viewBox="0 0 24 24" version="1.1" id="svg238" sodipodi:docname="salto.svg" inkscape:version="1.2.1 (9c6d41e, 2022-07-14)" xmlns:inkscape="http://www.inkscape.org/namespaces/inkscape" xmlns:sodipodi="http://sodipodi.sourceforge.net/DTD/sodipodi-0.dtd" xmlns="http://www.w3.org/2000/svg" xmlns:svg="http://www.w3.org/2000/svg">
         <path d="m 5.7597656 2 C 3.6829482 1.9994474 1.9994474 3.6829482 2 5.7597656 L 2 12 L 2 18.240234 C 1.9994474 20.317051 3.6829482 22.000553 5.7597656 22 L 18.240234 22 C 20.317051 22.000553 22.000553 20.317051 22 18.240234 L 22 5.7597656 C 22.000553 3.6829482 20.317051 1.9994474 18.240234 2 L 5.7597656 2 z M 4.8808594 5.0429688 L 8.6503906 5.0429688 L 9.4082031 7.4082031 C 11.084039 6.8119314 12.914007 6.8119314 14.589844 7.4082031 L 15.349609 5.0429688 L 19.119141 5.0429688 L 13.910156 18.957031 L 10.089844 18.957031 L 4.8808594 5.0429688 z M 12 10.011719 C 11.438245 10.011719 10.876838 10.117859 10.345703 10.330078 L 12 15.494141 L 13.654297 10.330078 C 13.123162 10.117859 12.561755 10.011719 12 10.011719 z "/>
</svg>
