<svg xmlns="http://www.w3.org/2000/svg" viewBox="0 0 24 24"><path fill="#44739e" d="M3.305 14.705 6.772 2.783l.662-.168a13 13 0 0 1 2.383-.206 7 7 0 0 1 4.25 1.588 8 8 0 0 0 1.337 1.168 11.2 11.2 0 0 0 2.289 1.28 6.3 6.3 0 0 0 1.924.14c.43 0 .86-.084 1.477-.149l-3.355 11.519c-1.382.701-2.747.645-4.904-.196l-.056.757 1.158 1.215h7.633a.496.496 0 0 1 .43.476.505.505 0 0 1-.412.504c-2.634 0-5.156.047-7.772.047-1.261 1.14-1.71 1.121-3.251-.131H2.446a.468.468 0 0 1 0-.934h7.716l1.421-1.214v-1.551a10.7 10.7 0 0 0-1.869-1.289 10.8 10.8 0 0 0-2.392-.934q-.673-.075-1.457-.084a17 17 0 0 0-1.765.093Zm7.157 0 1.317-4.476a5.44 5.44 0 0 0-5.512-1.607l-1.44 5.008a9.7 9.7 0 0 1 5.587 1.093Zm.803.522c1.71 1.15 3.177 2.691 5.531 1.962l1.28-4.446a8.4 8.4 0 0 1-5.447-1.869Zm7.073-3.344 1.214-4.363c-2.214.252-3.737-.86-5.325-2.009l-1.364 4.41a7.15 7.15 0 0 0 5.428 1.981ZM6.528 7.734a6.54 6.54 0 0 1 5.606 1.505l1.318-4.326a6.28 6.28 0 0 0-5.737-1.27Z"/></svg>