<svg xmlns="http://www.w3.org/2000/svg" viewBox="0 0 24 24"><path fill="#44739e" d="M3.325 14.702 6.788 2.793l.662-.168a13 13 0 0 1 2.38-.205 7 7 0 0 1 4.246 1.586 8 8 0 0 0 1.335 1.167 11.2 11.2 0 0 0 2.287 1.278 6.3 6.3 0 0 0 1.922.14c.429 0 .859-.084 1.475-.149l-3.351 11.507c-1.381.7-2.744.644-4.899-.196l-.056.756 1.157 1.214h7.625a.495.495 0 0 1 .429.475.504.504 0 0 1-.411.504c-2.632 0-5.151.047-7.764.047-1.26 1.139-1.708 1.12-3.248-.131h-8.11a.467.467 0 0 1 0-.933h7.708l1.419-1.213v-1.549a10.7 10.7 0 0 0-1.867-1.288 10.8 10.8 0 0 0-2.389-.933q-.672-.075-1.456-.084a17 17 0 0 0-1.763.093Zm7.149 0 1.316-4.471a5.43 5.43 0 0 0-5.506-1.605l-1.438 5.002a9.67 9.67 0 0 1 5.581 1.092Zm.803.522c1.708 1.148 3.173 2.688 5.525 1.96l1.278-4.442a8.4 8.4 0 0 1-5.441-1.867Zm7.065-3.341 1.213-4.358c-2.212.252-3.733-.859-5.32-2.007l-1.362 4.405a7.14 7.14 0 0 0 5.422 1.979ZM6.545 7.739a6.53 6.53 0 0 1 5.6 1.503l1.316-4.321A6.27 6.27 0 0 0 7.73 3.652Z"/></svg>