<?xml version="1.0" encoding="UTF-8" standalone="no"?>
<svg
   width="24"
   height="24"
   viewBox="0 0 24 24"
   version="1.1"
   xmlns="http://www.w3.org/2000/svg"
   xmlns:svg="http://www.w3.org/2000/svg">
  <path
     style="fill:#44739e"
     d="m 13.920035,2.0000003 -8.891024,2.7561022 -0.0096,0.2690756 c 0,0 0.255342,0.030769 0.322891,0.051893 0.07691,0.024051 0.164481,0.079514 0.236401,0.1287719 0.05973,0.069581 0.101865,0.261068 0.101865,0.3382664 V 18.696137 c 0,0.06077 -0.0017,0.122475 -0.01922,0.180665 -0.01752,0.05819 -0.04865,0.111458 -0.09033,0.15568 -0.05192,0.05509 -0.119704,0.09735 -0.192197,0.119162 -0.06251,0.0188 -0.12961,0.02337 -0.194118,0.01345 v 0.09418 L 13.848934,22 l 5.131655,-0.02691 -0.0038,-0.207572 c -0.121573,-0.04765 -0.243186,-0.09666 -0.363253,-0.147992 -0.194681,-0.08322 -0.3881,-0.173452 -0.553526,-0.305592 -0.116985,-0.09345 -0.217086,-0.209738 -0.274842,-0.347877 -0.05775,-0.138139 -0.06727,-0.292327 -0.06727,-0.442053 V 3.8527775 c 0,-0.2438523 0.07876,-0.7245274 0.215261,-0.8879493 0.158833,-0.1901678 0.244223,-0.3033461 0.403613,-0.4228328 0.212826,-0.1595452 0.421359,-0.2271495 0.622718,-0.2556219 V 2.0000003 Z m 0.359408,1.0743801 c 0.136485,-0.00541 0.24672,0.046515 0.39977,0.1095522 0.229181,0.09439 0.270809,0.291519 0.270997,0.422833 0.0079,5.5133007 0.02306,16.5404584 0.02306,16.5404584 5.01e-4,0.349784 -0.304452,0.775918 -0.801461,0.630405 L 6.816437,18.623103 C 6.69422,18.587323 6.543579,18.495929 6.543518,18.338651 L 6.539718,5.5979246 c -7.5e-5,-0.1952289 0.154105,-0.3077937 0.322891,-0.3574861 0,0 4.84586,-1.4276937 7.268883,-2.1410725 0.05356,-0.015764 0.102497,-0.023185 0.147991,-0.024986 z"
   />
</svg>
