<svg xmlns="http://www.w3.org/2000/svg" viewBox="0 0 24 24"><path fill="#44739e" d="m11.508 21.887-1.006-2.565-.963-2.457H8.271l-.175.425c-.096.26-.427 1.184-.735 2.056-.549 1.55-.567 1.583-.815 1.583-.14 0-.254-.034-.254-.075 0-.043.316-.955.702-2.031l.693-1.958-.576-.041c-.321-.024-.594-.084-.608-.133s.133-.187.327-.309a1.5 1.5 0 0 0 .534-.586c.171-.355.177-.558.176-6.427-.002-5.756-.01-6.08-.171-6.434a1.23 1.23 0 0 0-.533-.58c-.201-.114-.352-.306-.335-.355h4.811c.047.047-.078.187-.306.339-.739.492-.699.088-.699 7.035 0 6.942-.039 6.544.692 7.031.211.141.358.291.331.337-.029.045-.311.082-.627.082s-.575 0-.575.041c0 .054 1.404 3.702 1.937 5.024q.046.112-.235.111c-.153 0-.298-.05-.322-.113m5.589-4.281c-.041-.111-.268-.742-.501-1.405-.235-.662-.462-1.244-.503-1.29-.047-.052-.22-.013-.455.1-.342.169-.399.245-.592.799-.552 1.583-.534 1.55-.829 1.55q-.269 0-.23-.111l.335-.895c.16-.431.274-.802.251-.825-.024-.024-.53.157-1.124.403-1.05.435-1.532.531-1.801.361-.072-.045-.112-.098-.089-.117s1.137-.496 2.476-1.061l2.433-1.027.02-4.696.021-4.695-2.455-1.04c-1.349-.572-2.472-1.057-2.495-1.078-.081-.076.222-.206.485-.207.201-.001 5.229 2.042 5.389 2.19.018.017-.215.09-.337.199 0 0-.141.169-.141.271v8.776c0 .097.077.211.19.294.171.125.444.086.339.129l-.46.19c-.441.185-.455.202-.367.429.05.129.308.847.572 1.595l.479 1.361h-.268c-.195 0-.288-.054-.343-.2m-6.391-2.129c-.033-.103-.026-.22.016-.26s.879-.395 1.861-.788c.981-.392 1.995-.802 2.253-.91l.468-.198V5.335l-.558-.235c-.307-.128-1.341-.547-2.297-.929-1.034-.414-1.749-.748-1.762-.825-.073-.419.101-.378 2.486.593 1.293.527 2.424 1.019 2.51 1.092.144.123.156.44.155 4.29 0 2.287-.031 4.203-.068 4.259-.053.083-4.818 2.085-4.962 2.085-.024 0-.07-.084-.102-.188"/></svg>