<svg xmlns="http://www.w3.org/2000/svg" viewBox="0 0 24 24"><path fill="#44739e" d="M20.637 14.697a11 11 0 0 0 .326-2.672v-.051c0-5.5-3.871-9.974-8.631-9.974a7.5 7.5 0 0 0-1.226.102c-4.523.501-8.068 4.759-8.068 9.923a10.27 10.27 0 0 0 4.274 8.497l.439 1.42 4.37.058.007-.004a8 8 0 0 0 1.476-.158 9.17 9.17 0 0 0 7-7.015l.031-.119Zm-1.691-2.672a8.47 8.47 0 0 1-3.416 7.006h-2.432l-.12.075a6.2 6.2 0 0 1-2.989.66C7.2 18.727 5.173 15.65 5.173 12.025c0-4.476 3.089-8.116 6.887-8.116s6.886 3.64 6.886 8.116"/></svg>