<?xml version="1.0" encoding="UTF-8"?>
<svg width="33px" height="32px" viewBox="0 0 24 24" version="1.1"  fill="#44739e" xmlns="http://www.w3.org/2000/svg" xmlns:xlink="http://www.w3.org/1999/xlink">
            <path d="M21.25306,14.99759a11.78876,11.78876,0,0,0,.35045-2.86275l-.00031-.02706.00031-.02815c0-5.8925-4.14873-10.6864-9.24832-10.6864a8.05983,8.05983,0,0,0-1.31456.10844c-4.84665.53739-8.64414,5.101-8.64414,10.63317A10.9944,10.9944,0,0,0,6.97655,21.239l.469,1.52189,4.68388.06214.00681-.00367a8.67123,8.67123,0,0,0,1.58156-.16957,9.82553,9.82553,0,0,0,7.50051-7.51706q.01683-.064.03308-.12821Zm-1.81215-2.86275A9.08287,9.08287,0,0,1,15.78082,19.642H13.17518l-.12778.07971a6.65126,6.65126,0,0,1-3.20373.70754C6.8562,19.31637,4.6842,16.01928,4.6842,12.13484c0-4.79543,3.3099-8.69683,7.37835-8.69683S19.44091,7.33941,19.44091,12.13484Z"/>

</svg>