<svg xmlns="http://www.w3.org/2000/svg" viewBox="0 0 24 24"><path fill="#44739e" d="M11.051 2.985q-.943.986-1.247 1.244-.302.259-1.901 1.873T6.304 7.815q0 .096-.191.323-.192.226-.496.5-.304.275-.368.308-.063.032-.096 0l-.032-.033-.223.227q-.225.225-.224.274 0 .05 1.007 1.066 1.007 1.018 1.327 1.293t2.652 2.664 2.382 2.391 3.677-3.667 3.627-3.747a.15.15 0 0 0-.064-.129q-.064-.048-.111-.032-.048.015-.352-.227a2.6 2.6 0 0 1-.48-.484q-.175-.243-.207-.243t-.08-.08-.016-.113q.031-.033-.112-.194-.144-.162-2.989-3.036Q12.091 2 12.043 2t-.991.985m.943.275 3.07 3.052q3.067 3.054 3.067 3.102 0 .05-1.214 1.276-1.214 1.228-1.518 1.486-.303.258-1.598 1.6-1.296 1.34-1.52 1.55t-.319.242-.288-.129a4.5 4.5 0 0 1-.511-.55l-.32-.387h.16l-2.525-2.519q-2.525-2.52-2.525-2.569t3.02-3.102Zm.048 2.6q-.048.048-.08.226l-.032.178-.271-.113q-.273-.113-.4-.113h-.128v.048q0 .049.08.065t.208.13l.128.112-.272-.016q-.271-.016-.544.065l-.271.08.032.033q.03.032.223.032.192 0 .256.049l.064.048h-.112q-.112 0-.336.08a1.1 1.1 0 0 0-.415.275q-.192.194-.192.243v.048l.256-.097a1.1 1.1 0 0 1 .463-.08l.208.016-.144.064a1.3 1.3 0 0 0-.32.226 1.7 1.7 0 0 0-.303.372q-.128.21-.176.42t-.048.258q0 .05.048.081.048.033.256-.242.207-.275.48-.404l.271-.13-.08.195q-.08.194-.08.533t.08.42l.08.08.096-.242q.096-.242.256-.468t.272-.323a.46.46 0 0 1 .191-.113l.08-.017v1.18q0 1.179.08 1.26t.144.08q.064.001.144-.064.08-.064.08-1.276V7.847l.192.13q.191.129.32.306.128.178.255.469.128.29.176.274t.08-.145a1.6 1.6 0 0 0 .032-.355q0-.226-.08-.469l-.08-.242.256.113q.255.113.511.404l.256.29-.032-.274a1.2 1.2 0 0 0-.112-.42 2 2 0 0 0-.208-.307 1.4 1.4 0 0 0-.367-.307l-.24-.145.224-.017a.8.8 0 0 1 .415.081q.192.097.224.097h.032l-.016-.08q-.015-.081-.256-.275a1.1 1.1 0 0 0-.495-.243l-.256-.048.064-.048q.064-.05.24-.049.176 0 .224-.032l.048-.033-.256-.08a1.4 1.4 0 0 0-.56-.049l-.303.032.095-.096a.7.7 0 0 1 .208-.146q.112-.048.128-.097l.016-.048-.24.032q-.24.033-.4.113l-.16.08-.047-.21q-.048-.21-.08-.225t-.08.032M6.224 7.847l-.016.032Zl.016-.032Zm3.23 2.02q-.177.048-.224.113l-.048.064.479.081q.478.08.895.275.416.193.783.436.367.242.351.29-.015.05-.271.243-.256.195-.432.08a.45.45 0 0 0-.336-.08q-.16.033-.16.097 0 .065.16.194l.16.129-.176.145q-.175.145-.32.145a.5.5 0 0 0-.255.064q-.112.065-.112.227 0 .16.144.242a.38.38 0 0 0 .304.032q.16-.048.415-.274t.48-.097.368.097.143-.097-.096-.113a.5.5 0 0 1-.175-.161q-.081-.113.24-.372.32-.258.639-.016l.32.243-.128.16q-.129.162-.176.162h-.048l.016.08q.015.081.16.114.143.032.335-.114.192-.144.432.065.24.21.368.275a.5.5 0 0 0 .287.048q.16-.015.208-.064.048-.05.048-.162t-.032-.13l-.032-.015.016.08q.015.08-.032.13l-.048.048.016-.08q.016-.082-.096-.178-.111-.097-.112-.146v-.048h-.111q-.113 0-.272-.129t-.112-.21a.4.4 0 0 1 .176-.145l.128-.065-.032-.064a.2.2 0 0 0-.112-.097.4.4 0 0 0-.192-.016.54.54 0 0 0-.24.113q-.127.096-.4-.13l-.271-.226.367-.258q.368-.258.704-.42a5 5 0 0 1 .575-.242q.24-.081.56-.114l.32-.032-.033-.048q-.03-.049-.223-.113-.192-.065-.64-.016a2.7 2.7 0 0 0-.72.161 5 5 0 0 0-.638.34q-.368.225-.48.339-.112.113-.176.113-.065 0-.336-.21a4.6 4.6 0 0 0-.671-.42 3.5 3.5 0 0 0-.703-.291 2 2 0 0 0-.528-.08q-.224 0-.399.048m-3.086.113.048.048.048.049-.048-.049Zm.192.194.64.63.639.63-.192-.146q-.191-.146-.64-.63Zm1.343 1.356.032.033.032.032-.032-.032Zm3.18 3.117.048.049Zl-.048-.048Zm-8.358 3.78q-.129.114 0 .274l.128.162.142-.13q.144-.127.288 0 .144.13.304 0l.16-.128-.144-.145q-.144-.146-.272-.032-.127.113-.304 0-.174-.114-.302 0m11.475 0q-.096.114-.144.114t-.128-.097-.143-.097q-.065 0-.176.097-.112.096-.112.145t.16.161.287-.016.272 0l.144.129.128-.162.128-.16-.16-.113q-.16-.114-.256 0m-4.492.21-.143.161.159.113q.16.114.304-.032l.144-.145-.16-.129q-.16-.129-.304.033m1.247-.064q-.176.065-.176.985t-.064.985-.271.065q-.209 0-.272-.065-.064-.064-.064-.646v-.582l-.224.081q-.225.08-.224.517 0 .436-.047.55-.048.113-.335.128-.288.017-.352-.016-.065-.032-.08-.63-.016-.597-.048-.614-.032-.015-.224.049t-.208.598-.08.581q-.063.049-.383.049h-.32v-1.422h-.623q-.624 0-.816.097a.6.6 0 0 0-.271.242q-.08.145-.112.42t.016.485.16.355a.64.64 0 0 0 .271.21.9.9 0 0 0 .352.065q.192 0 .4-.194l.208-.194-.048.34q-.048.339-.128.436a.8.8 0 0 1-.288.194q-.208.096-.208.129 0 .031.176.13.176.096.24.096.063 0 .256-.145.191-.146.303-.356t.112-.323v-.113h.352q.352 0 .495-.08a.3.3 0 0 1 .304 0q.16.08.496.08t.479-.08a.28.28 0 0 1 .287 0q.144.08.528.064.383-.015.495-.097a.44.44 0 0 0 .16-.226q.048-.145.048-1.18v-1.032h-.048a1 1 0 0 0-.224.064m.911 0q-.16.065-.16 1.275v1.212l.224-.065q.225-.064.224-1.276v-1.214h-.064a.7.7 0 0 0-.224.065m3.917.08-.112.145.16.113q.16.114.287-.032.129-.145.016-.257-.111-.113-.175-.113-.065 0-.176.145m5.05-.08q-.176.065-.176.985t-.064.985-.335.065-.336-.081-.064-.695v-.614l-.224.065q-.224.064-.224.63.001.565-.064.63a.24.24 0 0 1-.175.065.24.24 0 0 1-.176-.065q-.064-.065-.064-.662v-.598l-.224.065q-.224.064-.224.581t-.08.598a.24.24 0 0 1-.176.08.27.27 0 0 1-.175-.064q-.08-.064-.08-.646v-.582l-.224.065q-.224.064-.224.565t-.064.582-.575.08-.576-.048-.079-.646l-.016-.598-.224.081q-.223.081-.223.582 0 .5-.032.549-.032.048-.48.064l-.447.017v-1.422h-.624q-.623 0-.8.08a.62.62 0 0 0-.287.308 1.2 1.2 0 0 0-.112.549q0 .323.064.485a.7.7 0 0 0 .144.242.7.7 0 0 0 .24.145.9.9 0 0 0 .351.065.5.5 0 0 0 .352-.145q.16-.146.176-.21l.016-.065.016.21q.016.21.687.21.672 0 .8-.08.127-.082.287 0 .16.08.751.08t.719-.08q.128-.082.272 0 .144.08.335.08t.336-.08a.28.28 0 0 1 .288 0q.144.08.352.08a.54.54 0 0 0 .32-.08q.111-.082.271 0 .16.08.512.08t.495-.048a.4.4 0 0 0 .224-.178q.08-.129.096-1.212t-.032-1.097-.224.048m.895 0q-.175.065-.16 1.292l.016 1.227.208-.08q.208-.081.208-1.293v-1.212h-.048a1 1 0 0 0-.224.065m-19.339.726a.7.7 0 0 0-.304.323q-.096.21-.08.582.016.37.144.55.128.176.304.241t.368.065q.19 0 .366-.21l.176-.21.016.21q.015.21.703.21t.8-.032a.43.43 0 0 0 .303-.307q.033-.114.032-.808v-.695l-.223.081q-.225.081-.224.646 0 .566-.064.614t-.464.049h-.4v-1.422h-.623q-.622 0-.83.113m.654.372h.352v.937h-.32q-.319 0-.414-.065a.4.4 0 0 1-.144-.178.72.72 0 0 1-.016-.469.34.34 0 0 1 .112-.16q.08-.066.43-.065m3.74 0h.353v.937h-.32q-.32 0-.416-.081-.096-.08-.128-.34-.031-.257.064-.387.096-.13.448-.13m7.241 0h.336v.937h-.32q-.32 0-.431-.097-.113-.097-.128-.34-.015-.241.032-.339a.27.27 0 0 1 .112-.129q.063-.032.4-.032m-9.43 1.809-.112.13-.128-.114q-.128-.113-.176-.113t-.177.147l-.127.145.143.113q.144.113.272 0t.304 0 .304-.032l.128-.146-.16-.129q-.16-.129-.272 0m3.836.032-.143.162.175.113q.177.113.304-.032l.128-.146-.16-.129q-.16-.129-.304.032"/></svg>