<svg xmlns="http://www.w3.org/2000/svg" viewBox="0 0 24 24"><path fill="#44739e" d="M11.995 2a1.7 1.7 0 0 0-.2.533.81.81 0 0 0-.748-.16q.198.1.322.286a2.4 2.4 0 0 0-1.069.093 2.2 2.2 0 0 0-1.134.929 3.1 3.1 0 0 1 .88-.422q.459-.137.934-.079-.164.034-.319.093-1.23.48-1.387 1.76.36-.44.8-.8.31-.25.666-.413a2.26 2.26 0 0 0-.5 1.888 3.14 3.14 0 0 1 .994-1.576 4.1 4.1 0 0 0 .035 1.856q.16-.643.386-1.267.127-.353.347-.654.22.285.347.626.231.637.393 1.295.06-.202.086-.412.087-.727-.053-1.441.735.634 1 1.573a2.3 2.3 0 0 0-.5-1.888q.195.079.373.2.612.44 1.1 1.02-.235-1.497-1.713-1.86a2.6 2.6 0 0 1 1.788.494q.017.013.026-.007-.794-1.161-2.2-1.015a.8.8 0 0 1 .319-.28.79.79 0 0 0-.754.173 1.1 1.1 0 0 0-.22-.545m-7.83 2.975a.11.11 0 0 0-.021.105q2.478 2.751 4.97 5.491a4.35 4.35 0 0 1-2.363.813q.274.064.547.135.771.162 1.523-.082.382-.156.726-.379 1.122 1.226 2.235 2.456a221 221 0 0 0-.14-3.79q-1.042.629-2.062 1.287a.03.03 0 0 1-.04 0 6 6 0 0 1-.386-.433q1.13-.629 2.227-1.308-.675-.39-1.373-.74a11 11 0 0 0-1.842-.708 9 9 0 0 0-1.587-.186 5.5 5.5 0 0 1 2.642.2q1.233.412 2.389 1.008-.031-1.199-.089-2.402-3.675-.749-7.356-1.467m15.594 0q-3.63.731-7.263 1.467-.062 1.201-.086 2.402a17 17 0 0 1 2.428-1.022 5.5 5.5 0 0 1 2.603-.186q-.55.024-1.094.093a5 5 0 0 0-1.03.254q-1.404.515-2.68 1.287 1.1.677 2.227 1.315-.197.21-.386.426a.03.03 0 0 1-.04 0q-1.025-.651-2.06-1.287a505 505 0 0 0-.154 3.716l.012.074 2.227-2.456.308.18q.769.417 1.641.335a10 10 0 0 0 .854-.19 4.3 4.3 0 0 1-2.363-.812q2.478-2.75 4.969-5.491.027-.136-.113-.105M4.643 14.301v.547h.547V14.3Zm1.066 0v.547h.536V14.3Zm12.769 0v2.641h-.308v-1.587h-.546v1.587h-.52v-1.587h-.546v1.587h-.508v-1.587h-.547v1.587h-1.909v-1.039h1.588v-.548q-.8-.003-1.6.007l-.528.526q-.011.528-.007 1.054h-.305v-1.587q-.807-.003-1.615.007l-.515.512a96 96 0 0 0-.007 1.615q.542.003 1.083-.007l.5-.5q.011.513.007 1.026h-1.587v.547q.799.003 1.599-.007l.528-.526q.011-.267.007-.533 2.882.003 5.763-.007l.512-.514q.011-1.334.007-2.667Zm.867 0v3.189h.548V14.3ZM4.644 15.355q-.26.27-.528.533a93 93 0 0 0-.009 1.601q.547.003 1.094-.007l.5-.5q.011.253.007.507.801.003 1.602-.007l.515-.514q.01-.807.007-1.613h-.535v1.587H6.245v-1.587Zm4.042 0v.547H9.74v1.04H8.151v.547q.809.003 1.616-.007l.512-.514q.011-.807.007-1.613Zm-4.029.545h1.052v1.054H4.657Zm6.498 0h1.04v1.042h-1.04Zm-4.924 2.109v.546h.547v-.547Zm1.066 0v.546h.536v-.547Zm7.247.8v1.055q-.534-.003-1.069.007l-.514.512q-.011.808-.007 1.615.534.003 1.069-.007l.514-.514q.011.26.007.521h.545v-3.189Zm.852 0v.533h.547v-.533Zm-9.272.52q-.254.262-.515.52-.01.54-.007 1.08H7.19v.522H5.602v.548q.801.003 1.602-.007.265-.262.528-.526.011-.535.007-1.068H6.152v-.522h1.587v-.547Zm2.456.535q-.253.262-.515.519a95 95 0 0 0-.007 1.615q.533.003 1.067-.007l.514-.514q.011.26.007.521h.533v-2.134Zm1.92 0v2.134q.8.003 1.6-.007l.528-.526q.011-.801.007-1.601h-.547v1.587h-1.04v-1.587Zm4.896 0v2.134h.547v-2.134Zm1.388 0q-.254.262-.513.519a96 96 0 0 0-.007 1.615q.533.003 1.067-.007l.514-.514q.011.26.007.521h.546v-2.134Zm-8.193.547h1.056v1.04H8.591Zm4.898 0h1.053v1.04h-1.053Zm3.322 0h1.041v1.04h-1.04Z"/></svg>