<?xml version="1.0" encoding="UTF-8" standalone="no"?>
<svg
   width="24"
   height="24"
   viewBox="0 0 24 24"
   version="1.1"
   xmlns="http://www.w3.org/2000/svg"
   xmlns:svg="http://www.w3.org/2000/svg">
  <path
     style="fill:#44739e"
     d="M 11.480429,21.977453 C 9.5900755,21.757412 8.4298584,20.607196 8.149806,18.676835 8.0697908,18.136734 8.1198007,17.896689 8.3498435,17.776667 l 0.1000186,-0.05 h 2.8805399 l 2.960554,-0.03001 c 0.230042,-0.04 0.330062,-0.220042 0.650122,-1.190224 1.220228,-3.720695 1.750327,-5.120957 2.450458,-6.481212 q 1.55029,-3.0505692 3.200598,-3.0505692 c 1.430268,0 2.000375,1.5702939 0.610115,1.7303237 -1.360255,0.1500281 -2.290429,1.2602358 -3.26061,3.8907285 -0.06001,0.150028 -0.440084,1.240231 -0.840158,2.430455 -1.600299,4.680874 -1.98037,5.521032 -2.850532,6.201159 l -0.180034,0.140026 c -0.280053,0.37007 -1.71032,0.700131 -2.590486,0.600113 M 4.1290539,21.42735 C 3.7789883,21.367338 3.4289229,21.067283 3.3089004,20.717217 3.2888967,20.647204 3.2088817,20.207122 3.1488705,19.727031 l -0.4800899,-3.660685 -0.010003,-0.07001 h 1.9303611 l 0.020004,0.370068 0.040007,0.800151 c 0,0.250046 0.030006,0.710132 0.050009,1.030192 0,0.330062 0.030006,0.680128 0.030006,0.80015 l 0.060012,1.000187 0.030006,0.80015 0.030006,0.560104 v 0.10002 H 4.5491328 c -0.1600299,0 -0.3500655,-0.02001 -0.4200785,-0.03001 m 1.9703686,-0.03 L 6.0694176,20.84725 6.0094069,19.506998 5.9093883,17.606644 5.8593794,16.266392 5.8393758,16.006344 H 8.079795 v 0.290054 c 0,0.160029 0,0.370069 0.020003,0.460086 l 0.010003,0.16003 -0.1600299,0.08001 C 7.0796085,17.416605 7.0696067,18.996901 7.9197651,20.5972 l 0.1400261,0.270051 0.020004,0.300057 0.010003,0.290054 H 6.0894206 Z m 3.180595,-5.000935 V 16.00634 h 2.3004311 l -0.02001,0.150028 -0.03001,0.390072 -0.01,0.240045 H 9.2800175 Z m 3.5006551,0.200037 0.03001,-0.390073 0.02,-0.200037 h 1.760331 l -0.100019,0.38007 -0.100019,0.400075 H 12.760667 Z M 2.7387937,15.006148 c -0.240045,-0.08001 -0.310058,-0.200036 -0.390073,-0.70013 l -0.080015,-0.510096 c -0.040007,-0.250047 0.060012,-0.470088 0.2600487,-0.580109 0.070012,-0.03001 0.8901665,-0.03001 6.1011414,-0.03001 h 6.0311292 l 0.11002,0.06001 q 0.32006,0.180034 0.240045,0.550103 c -0.220041,1.080202 -0.240045,1.140213 -0.520097,1.210226 -0.180034,0.05 -11.6021712,0.04 -11.7521994,0 M 2.1586852,12.225629 C 2.1486833,12.195622 2.0286609,11.225441 2.0086571,10.965392 1.9286422,10.145238 2.3987301,9.8051754 3.6089565,9.8051754 h 0.6701253 l 0.020004,0.3000556 0.080015,1.830343 0.020003,0.320059 h -1.120209 c -0.860161,0 -1.1102078,0 -1.1202096,-0.03 M 5.6293346,11.985583 5.5893271,10.945388 5.5493196,9.9852091 5.5293158,9.8051754 h 1.2702376 l 1.2502339,0.010001 0.010003,1.2202276 v 1.220228 h -2.40045 z M 9.2800175,11.035405 V 9.8051754 h 1.3002435 c 0.710133,0 1.300244,0.010001 1.300244,0.020004 0.01,0.010002 0,0.2600486 -0.02001,0.5601046 l -0.06001,1.200225 -0.03001,0.670124 H 9.2800175 Z m 3.7206975,1.210227 v -0.280053 l 0.06001,-1.0702 0.05,-0.9401756 V 9.8151772 h 0.610113 c 1.320248,-0.020004 1.700319,0.3600678 1.530287,1.5002808 l -0.100019,0.70013 -0.03001,0.230044 z M 7.0996096,8.044846 C 6.6595272,7.8848161 6.1994412,6.804614 6.1994412,5.9044456 c 0,-0.5701067 0.040007,-0.780146 0.3300617,-1.6503088 C 6.7595459,3.5540059 6.8295591,3.2739535 6.8895703,2.7938636 7.0095928,1.9437047 7.8497499,1.6936578 8.1097986,2.4538 8.2098173,2.7338524 8.0297836,3.614017 7.7197257,4.474178 7.2596395,5.7344137 7.2596395,6.1544924 7.7397293,7.0246552 8.0897948,7.664775 7.7197257,8.2648873 7.1196133,8.044846 Z M 10.230196,8.0348441 C 10.030157,7.9548292 9.9501429,7.8548105 9.7301018,7.4147282 9.1900007,6.3845353 9.1799988,5.6844044 9.640085,4.3141481 a 7.0013099,7.0013099 0 0 0 0.370069,-1.4602732 q 0.10002,-0.9601797 0.750141,-0.8001497 c 0.64012,0.1400261 0.660123,0.770144 0.06001,2.5004678 -0.390073,1.1402132 -0.380071,1.6203032 0.05,2.4504585 0.370068,0.700131 0,1.2802395 -0.64012,1.0301926"/>
</svg>
