<svg xmlns="http://www.w3.org/2000/svg" viewBox="0 0 24 24"><path fill="#44739e" d="M11.479 21.986c-1.89-.22-3.05-1.37-3.33-3.3-.08-.541-.03-.781.2-.901l.1-.05h2.88l2.962-.03c.23-.04.33-.22.65-1.19 1.22-3.722 1.75-5.123 2.45-6.483q1.55-3.05 3.201-3.05c1.43 0 2 1.57.61 1.73-1.36.15-2.29 1.26-3.26 3.89-.06.15-.44 1.24-.84 2.432-1.6 4.682-1.98 5.522-2.851 6.202l-.18.14c-.28.37-1.71.7-2.591.6m-7.352-.54c-.35-.06-.7-.36-.82-.71-.02-.07-.1-.51-.16-.99l-.48-3.661-.01-.07h1.93l.02.37.04.8c0 .25.03.71.05 1.03 0 .331.03.681.03.801l.06 1 .03.8.03.56v.1h-.3c-.16 0-.35-.02-.42-.03m1.97-.03-.03-.55-.06-1.34-.1-1.901-.05-1.34-.02-.26h2.24v.29c0 .16 0 .37.02.46l.01.16-.16.08c-.87.42-.88 2.001-.03 3.601l.14.27.02.3.01.29h-2Zm3.181-5.001v-.39h2.3l-.02.15-.03.39-.01.24h-2.24Zm3.501.2.03-.39.02-.2h1.761l-.1.38-.1.4h-1.63ZM2.739 15.014c-.24-.08-.31-.2-.39-.701l-.08-.511c-.04-.25.06-.47.26-.58.07-.03.89-.03 6.1-.03h6.033l.11.06q.32.18.24.55c-.22 1.081-.24 1.141-.52 1.211-.18.05-11.603.04-11.753 0m-.58-2.781c-.01-.03-.13-1-.15-1.26-.08-.82.39-1.16 1.6-1.16h.67l.02.3.08 1.83.02.32h-1.12c-.86 0-1.11 0-1.12-.03m3.47-.24-.04-1.04-.04-.96-.02-.18h1.27l1.25.01.01 1.22v1.22h-2.4Zm3.651-.95v-1.23h1.3c.71 0 1.301.01 1.301.02.01.01 0 .26-.02.56l-.06 1.2-.03.67H9.279Zm3.721 1.21v-.28l.06-1.07.05-.94v-.14h.61c1.321-.02 1.701.36 1.531 1.5l-.1.7-.03.23Zm-5.902-4.2c-.44-.16-.9-1.24-.9-2.14 0-.57.04-.78.33-1.651.23-.701.3-.981.36-1.461.12-.851.96-1.101 1.22-.341.1.28-.08 1.161-.39 2.021-.46 1.261-.46 1.681.02 2.551.35.64-.02 1.24-.62 1.02Zm3.13-.01c-.2-.08-.28-.18-.5-.62-.54-1.03-.55-1.73-.09-3.101a7 7 0 0 0 .37-1.461q.1-.961.75-.801c.64.14.66.771.06 2.501-.39 1.141-.38 1.621.05 2.451.37.7 0 1.28-.64 1.03"/></svg>