<svg xmlns="http://www.w3.org/2000/svg" viewBox="0 0 24 24"><path fill="#44739e" d="M21.11 8.335H2.89a.89.89 0 0 0-.89.89v3.645a.9.9 0 0 0 .258.632l1.925 1.904a.9.9 0 0 0 .632.259H21.11a.89.89 0 0 0 .89-.891V9.225a.89.89 0 0 0-.89-.89m.226 6.605H4.792l-2.007-2.007V9.06h18.547Zm-.207-.207V9.267H2.992v3.582l1.886 1.885ZM6.658 13.098a.202.202 0 0 1-.228.227.23.23 0 0 1-.227-.227v-.724a.228.228 0 1 1 .455 0Zm1.325 0a.202.202 0 0 1-.228.227.23.23 0 0 1-.227-.227v-.724a.228.228 0 0 1 .455 0Zm1.326 0a.228.228 0 0 1-.456 0v-.724a.228.228 0 0 1 .456 0Zm1.324 0a.228.228 0 0 1-.455 0v-.724a.228.228 0 0 1 .455 0Zm1.326 0a.228.228 0 1 1-.456 0v-.724a.228.228 0 0 1 .456 0Zm1.325 0a.228.228 0 0 1-.455 0v-.724a.228.228 0 0 1 .455 0Zm1.325 0a.228.228 0 1 1-.456 0v-.724a.228.228 0 0 1 .456 0Zm1.325 0a.228.228 0 0 1-.456 0v-.724a.228.228 0 0 1 .456 0Zm1.325 0a.228.228 0 1 1-.455 0v-.724a.228.228 0 1 1 .455 0Zm1.325 0a.228.228 0 1 1-.456 0v-.724a.228.228 0 0 1 .456 0Zm-.456-2.898a.228.228 0 0 1 .456 0v.725a.228.228 0 1 1-.456 0Zm-1.324 0a.228.228 0 1 1 .455 0v.725a.228.228 0 1 1-.455 0Zm-1.326 0a.228.228 0 0 1 .456 0v.725a.228.228 0 1 1-.456 0Zm-1.325 0a.228.228 0 0 1 .456 0v.725a.228.228 0 1 1-.456 0Zm-1.324 0a.228.228 0 0 1 .455 0v.725a.228.228 0 1 1-.455 0Zm-1.326 0a.228.228 0 1 1 .456 0v.725a.228.228 0 1 1-.456 0Zm-1.325 0a.228.228 0 0 1 .455 0v.725a.228.228 0 0 1-.455 0Zm-1.325 0a.228.228 0 0 1 .456 0v.725a.228.228 0 1 1-.456 0Zm-1.325 0a.228.228 0 0 1 .455 0v.725a.202.202 0 0 1-.228.227.23.23 0 0 1-.227-.227Zm-1.325 0a.228.228 0 1 1 .455 0v.725a.202.202 0 0 1-.228.227.23.23 0 0 1-.227-.227Zm-1.325 1.184h14.659v1.734a.23.23 0 0 1-.249.206.23.23 0 0 1-.232-.226v-1.264H5.333v1.119a.228.228 0 0 1-.455 0Z"/></svg>