<?xml version="1.0" encoding="UTF-8"?>
<svg width="24px" fill="#44739e" height="24px" viewBox="0 0 24 24" version="1.1" xmlns="http://www.w3.org/2000/svg" xmlns:xlink="http://www.w3.org/1999/xlink">
            <path d="M 21.038,8.175 H 2.962 A 0.884,0.884 0 0 0 2.079,9.058 v 3.616 a 0.892,0.892 0 0 0 0.256,0.627 l 1.91,1.889 a 0.891,0.891 0 0 0 0.627,0.257 h 16.166 a 0.885,0.885 0 0 0 0.883,-0.884 V 9.058 A 0.884,0.884 0 0 0 21.038,8.175 Z m 0.224,6.553 H 4.849 L 2.858,12.737 V 8.894 h 18.4 z M 21.057,14.522 V 9.1 H 3.063 v 3.553 l 1.871,1.87 z M 6.7,12.9 A 0.2,0.2 0 0 1 6.474,13.126 0.227,0.227 0 0 1 6.249,12.9 v -0.718 a 0.226,0.226 0 1 1 0.451,0 z m 1.315,0 A 0.2,0.2 0 0 1 7.789,13.126 0.228,0.228 0 0 1 7.563,12.9 v -0.718 a 0.226,0.226 0 0 1 0.452,0 z m 1.315,0 a 0.226,0.226 0 0 1 -0.452,0 v -0.718 a 0.226,0.226 0 0 1 0.452,0 z m 1.314,0 a 0.226,0.226 0 0 1 -0.452,0 v -0.718 a 0.226,0.226 0 0 1 0.452,0 z m 1.315,0 a 0.226,0.226 0 1 1 -0.452,0 v -0.718 a 0.226,0.226 0 0 1 0.452,0 z m 1.315,0 a 0.226,0.226 0 0 1 -0.452,0 v -0.718 a 0.226,0.226 0 0 1 0.452,0 z m 1.314,0 a 0.226,0.226 0 1 1 -0.452,0 v -0.718 a 0.226,0.226 0 0 1 0.452,0 z m 1.315,0 a 0.226,0.226 0 0 1 -0.452,0 v -0.718 a 0.226,0.226 0 0 1 0.452,0 z m 1.314,0 a 0.226,0.226 0 1 1 -0.451,0 v -0.718 a 0.226,0.226 0 1 1 0.451,0 z m 1.315,0 a 0.226,0.226 0 1 1 -0.452,0 v -0.718 a 0.226,0.226 0 0 1 0.452,0 z M 18.08,10.025 a 0.226,0.226 0 0 1 0.452,0 v 0.719 a 0.226,0.226 0 1 1 -0.452,0 z m -1.314,0 a 0.226,0.226 0 1 1 0.451,0 v 0.719 a 0.226,0.226 0 1 1 -0.451,0 z m -1.315,0 a 0.226,0.226 0 0 1 0.452,0 v 0.719 a 0.226,0.226 0 1 1 -0.452,0 z m -1.315,0 a 0.226,0.226 0 0 1 0.452,0 v 0.719 a 0.226,0.226 0 1 1 -0.452,0 z m -1.314,0 a 0.226,0.226 0 0 1 0.452,0 v 0.719 a 0.226,0.226 0 1 1 -0.452,0 z m -1.315,0 a 0.226,0.226 0 1 1 0.452,0 v 0.719 a 0.226,0.226 0 1 1 -0.452,0 z m -1.315,0 a 0.226,0.226 0 0 1 0.452,0 v 0.719 a 0.226,0.226 0 0 1 -0.452,0 z m -1.314,0 a 0.226,0.226 0 0 1 0.452,0 v 0.719 a 0.226,0.226 0 1 1 -0.452,0 z m -1.315,0 a 0.226,0.226 0 0 1 0.452,0 v 0.719 A 0.2,0.2 0 0 1 7.789,10.97 0.228,0.228 0 0 1 7.563,10.744 Z m -1.314,0 a 0.226,0.226 0 1 1 0.451,0 v 0.719 A 0.2,0.2 0 0 1 6.474,10.97 0.228,0.228 0 0 1 6.249,10.744 Z M 4.934,11.2 h 14.543 v 1.72 A 0.231,0.231 0 0 1 19.23,13.125 0.228,0.228 0 0 1 19,12.9 V 11.646 H 5.386 v 1.11 a 0.226,0.226 0 0 1 -0.452,0 z"/>

</svg>