<?xml version="1.0" encoding="UTF-8"?>
<svg width="24px" fill="#44739e" height="24px" viewBox="0 0 24 24" version="1.1" xmlns="http://www.w3.org/2000/svg" xmlns:xlink="http://www.w3.org/1999/xlink">
            <path d="M22.1,12h-0.01c0-5.56-4.53-10.09-10.09-10.09c-5.54,0-10.05,4.49-10.09,10.03c0,0.02-0.01,0.04-0.01,0.06h0 c0,5.56,4.53,10.09,10.09,10.09c5.47,0,9.92-4.38,10.07-9.81C22.07,12.19,22.1,12.1,22.1,12z M11.99,21.09 c-5.01,0-9.09-4.08-9.09-9.09c0-0.02,0-0.04,0-0.06C2.94,9.6,4.85,7.71,7.19,7.71c2.36,0,4.29,1.92,4.29,4.29h0.02 c0,2.92,2.38,5.3,5.3,5.3c1.25,0,2.38-0.45,3.28-1.17C18.57,19.07,15.52,21.09,11.99,21.09z M-59.39,15.75c-0.15-0.15-0.38-0.19-0.57-0.09c-1.05,0.52-2.16,0.78-3.3,0.78c-4.14,0-7.5-3.37-7.5-7.5 c0-2.38,1.1-4.57,3.03-6.01c0.17-0.12,0.19-0.34,0.13-0.54c-0.06-0.2-0.29-0.35-0.49-0.36c-0.05,0-0.11-0.01-0.16-0.01 c-5.5,0-9.98,4.48-9.98,9.98s4.48,9.98,9.98,9.98c3.79,0,7.31-2.21,8.97-5.64C-59.2,16.13-59.24,15.9-59.39,15.75z M-90.24,1.89c-5.56,0-10.09,4.53-10.09,10.09c0,5.56,4.53,10.09,10.09,10.09c5.56,0,10.09-4.53,10.09-10.09 C-80.15,6.42-84.68,1.89-90.24,1.89z M-84.5,17.4h-11.31c-0.33,0-0.6-0.27-0.6-0.6s0.27-0.6,0.6-0.6h11.31c0.33,0,0.6,0.27,0.6,0.6 S-84.17,17.4-84.5,17.4z M-84.5,15h-11.31c-0.33,0-0.6-0.27-0.6-0.6s0.27-0.6,0.6-0.6h11.31c0.33,0,0.6,0.27,0.6,0.6 S-84.17,15-84.5,15z M-84.5,12.6h-11.31c-0.33,0-0.6-0.27-0.6-0.6c0-0.33,0.27-0.6,0.6-0.6h11.31c0.33,0,0.6,0.27,0.6,0.6 C-83.9,12.33-84.17,12.6-84.5,12.6z M-84.5,10.2h-11.31c-0.33,0-0.6-0.27-0.6-0.6s0.27-0.6,0.6-0.6h11.31c0.33,0,0.6,0.27,0.6,0.6 S-84.17,10.2-84.5,10.2z M-84.5,7.8h-11.31c-0.33,0-0.6-0.27-0.6-0.6s0.27-0.6,0.6-0.6h11.31c0.33,0,0.6,0.27,0.6,0.6 S-84.17,7.8-84.5,7.8z M-62.68,5.08l0.92-1.76c0.02-0.04,0.02-0.09-0.01-0.13c-0.03-0.04-0.08-0.06-0.12-0.05l-1.96,0.34l-1.39-1.42 c-0.03-0.03-0.08-0.05-0.13-0.03c-0.05,0.01-0.08,0.05-0.08,0.1l-0.28,1.96l-1.78,0.88c-0.04,0.02-0.07,0.06-0.07,0.11 c0,0.05,0.03,0.09,0.07,0.11l1.78,0.88l0.29,1.96c0.01,0.05,0.04,0.09,0.08,0.1c0.01,0,0.03,0.01,0.04,0.01 c0.03,0,0.07-0.01,0.09-0.04l1.38-1.42l1.96,0.33c0.05,0.01,0.09-0.01,0.12-0.05c0.03-0.04,0.03-0.09,0.01-0.13L-62.68,5.08z M-59.48,9.6l0.56-1.06c0.02-0.04,0.02-0.09-0.01-0.13s-0.07-0.06-0.12-0.05l-1.18,0.2l-0.83-0.85 c-0.03-0.03-0.08-0.05-0.13-0.03c-0.05,0.01-0.08,0.05-0.08,0.1l-0.17,1.18l-1.07,0.53c-0.04,0.02-0.07,0.06-0.07,0.11 c0,0.05,0.03,0.09,0.07,0.11l1.07,0.53l0.17,1.18c0.01,0.05,0.04,0.09,0.08,0.1c0.01,0,0.03,0.01,0.04,0.01 c0.03,0,0.07-0.01,0.09-0.04l0.83-0.86l1.18,0.2c0.05,0.01,0.09-0.01,0.12-0.05c0.03-0.04,0.03-0.09,0.01-0.13L-59.48,9.6z M-64.14,12.37l0.56-1.06c0.02-0.04,0.02-0.09-0.01-0.13c-0.03-0.04-0.07-0.06-0.12-0.05l-1.18,0.2l-0.83-0.85 c-0.03-0.03-0.08-0.05-0.13-0.03c-0.05,0.01-0.08,0.05-0.08,0.1l-0.17,1.18l-1.07,0.53c-0.04,0.02-0.07,0.06-0.07,0.11 s0.03,0.09,0.07,0.11l1.07,0.53l0.17,1.18c0.01,0.05,0.04,0.09,0.08,0.1c0.01,0,0.03,0.01,0.04,0.01c0.03,0,0.07-0.01,0.09-0.04 l0.83-0.86l1.18,0.2c0.05,0.01,0.09-0.01,0.12-0.05c0.03-0.04,0.03-0.09,0.01-0.13L-64.14,12.37z"/>

</svg>