<svg xmlns="http://www.w3.org/2000/svg" viewBox="0 0 24 24"><path fill="#44739e" d="M11.988 20.995c-4.266.086-8.27-3.308-8.885-7.532-.354-1.714.025-3.7 1.487-4.805 1.799-1.471 4.762-1.1 6.083.831.739.977.834 2.226.899 3.399.4 2.52 2.844 4.493 5.392 4.37 1.07-.015 2.04-.556 2.964-1.039-1.506 2.884-4.679 4.816-7.94 4.776M22 11.993c.039-4.23-2.902-8.285-6.955-9.522-3.627-1.181-7.877-.083-10.42 2.777-2.72 2.94-3.447 7.563-1.611 11.148 1.702 3.49 5.541 5.821 9.435 5.585 4.016-.161 7.783-2.966 8.994-6.813.338-1.025.515-2.099.557-3.175"/></svg>