<svg xmlns="http://www.w3.org/2000/svg" viewBox="0 0 24 24"><path fill="#44739e" d="M12 2C6.49 2 2 6.49 2 12s4.49 10 10 10 10-4.49 10-10S17.51 2 12 2m0 19.009c-4.965 0-9.009-4.044-9.009-9.009S7.035 2.991 12 2.991 21.009 7.035 21.009 12 16.965 21.009 12 21.009m0-16.492c-4.123 0-7.473 3.35-7.473 7.473s3.35 7.483 7.473 7.483 7.483-3.35 7.483-7.483c0-4.113-3.36-7.473-7.483-7.473m0 13.667c-3.409 0-6.194-2.775-6.194-6.184S8.581 5.806 12 5.806c3.409 0 6.184 2.775 6.184 6.194A6.19 6.19 0 0 1 12 18.184m0-10.505A4.324 4.324 0 0 0 7.679 12 4.324 4.324 0 0 0 12 16.321 4.324 4.324 0 0 0 16.321 12 4.32 4.32 0 0 0 12 7.679m0 7.056c-1.506 0-2.735-1.229-2.735-2.735S10.494 9.265 12 9.265s2.735 1.229 2.735 2.735-1.229 2.735-2.735 2.735"/></svg>