<svg xmlns="http://www.w3.org/2000/svg" viewBox="0 0 24 24"><path fill="#44739e" d="M12.005 14.771V9.219a2.78 2.78 0 0 1 2.776 2.776 2.78 2.78 0 0 1-2.776 2.776m0-6.941a4.164 4.164 0 0 1 4.165 4.165 4.164 4.164 0 0 1-4.165 4.164 4.164 4.164 0 0 1-4.164-4.164c0-1.316.622-2.475 1.575-3.238a4.12 4.12 0 0 1 2.589-.927m0 9.995c.458 0 .833.375.833.833v2.509c0 .457-.375.833-.833.833s-.832-.376-.832-.833v-2.509c0-.458.374-.833.832-.833m0-11.661a.834.834 0 0 1-.832-.832V2.833c0-.458.374-.833.832-.833s.833.375.833.833v2.499a.835.835 0 0 1-.833.832m-5.83 5.831a.835.835 0 0 1-.833.832H2.833c-.457 0-.833-.374-.833-.832s.376-.833.833-.833h2.509c.458 0 .833.375.833.833m14.992-.833c.458 0 .833.375.833.833s-.375.832-.833.832h-2.499c-.458 0-.832-.374-.832-.832s.374-.833.832-.833ZM6.733 16.089a.835.835 0 0 1 1.178 0 .835.835 0 0 1 0 1.178l-1.774 1.774a.835.835 0 0 1-1.179 0 .835.835 0 0 1 0-1.178Zm10.519-8.221a.835.835 0 0 1-1.178 0 .835.835 0 0 1 0-1.178l1.766-1.767a.833.833 0 0 1 1.178 1.178Zm-10.531.05L4.947 6.142a.835.835 0 0 1 0-1.178.835.835 0 0 1 1.177 0L7.898 6.74a.835.835 0 0 1 0 1.177.835.835 0 0 1-1.177 0m10.577 8.162 1.766 1.767a.835.835 0 0 1 0 1.177.835.835 0 0 1-1.177 0l-1.767-1.765a.833.833 0 0 1 1.178-1.179"/></svg>