<svg xmlns="http://www.w3.org/2000/svg" viewBox="0 0 24 24"><path fill="#44739e" d="M22 12.002h-.002c0-.909-.74-1.649-1.648-1.649a1.65 1.65 0 0 0-1.648 1.639l-.002.01c0 .908.74 1.648 1.648 1.648.894 0 1.621-.716 1.645-1.603.002-.014.007-.029.007-.045m-1.652 1.485a1.487 1.487 0 0 1-1.484-1.485v-.01a.701.701 0 0 1 1.401.01h.003c0 .477.389.865.866.865a.85.85 0 0 0 .536-.191 1.49 1.49 0 0 1-1.322.811m-11.66-.873a.08.08 0 0 0-.093-.014 1.2 1.2 0 0 1-.539.127 1.226 1.226 0 0 1-.731-2.207c.028-.02.032-.056.022-.088s-.048-.057-.08-.059l-.026-.002c-.899 0-1.631.732-1.631 1.631s.732 1.63 1.631 1.63c.619 0 1.194-.361 1.465-.921a.09.09 0 0 0-.018-.097m-5.04-2.264C2.74 10.35 2 11.09 2 11.998s.74 1.649 1.648 1.649 1.649-.74 1.649-1.649-.74-1.648-1.649-1.648m.938 2.534H2.738a.098.098 0 0 1 0-.196h1.848a.098.098 0 0 1 0 .196m0-.392H2.738a.098.098 0 0 1 0-.196h1.848a.098.098 0 0 1 0 .196m0-.392H2.738a.098.098 0 0 1 0-.196h1.848a.098.098 0 0 1 0 .196m0-.392H2.738c-.054 0-.098-.045-.098-.098s.044-.098.098-.098h1.848a.098.098 0 0 1 0 .196m0-.392H2.738c-.054 0-.098-.045-.098-.098s.044-.099.098-.099h1.848c.054 0 .098.045.098.099s-.044.098-.098.098m3.564-.445.151-.287q.005-.011-.002-.022c-.007-.011-.013-.009-.019-.008l-.321.056-.227-.232a.02.02 0 0 0-.021-.005q-.012.004-.013.016l-.046.32-.291.144q-.01.005-.011.018c-.001.013.005.015.011.018l.291.144.048.32q.002.013.013.016l.006.002q.009 0 .015-.006l.225-.232.321.053q.012.003.019-.008c.007-.011.005-.014.002-.021Zm.523.739.092-.174q.005-.01-.002-.021c-.007-.011-.011-.01-.02-.008l-.192.033-.136-.139q-.008-.008-.021-.005-.012.003-.013.016l-.028.193-.175.087q-.01.005-.011.018c-.001.013.005.014.011.018l.175.086.028.193q.002.013.013.016l.006.002q.009 0 .015-.007l.136-.14.192.033q.013.002.02-.009c.007-.011.005-.014.002-.021Zm-.761.452.091-.173q.006-.011-.001-.021-.01-.013-.02-.008l-.193.032-.135-.139a.02.02 0 0 0-.021-.005q-.013.004-.013.017l-.028.193-.175.086q-.01.005-.011.018c-.001.013.004.015.011.018l.175.087.028.192q.002.014.013.017l.006.001q.009 0 .015-.006l.135-.141.193.033q.012.002.02-.008c.008-.01.005-.015.001-.021Z"/></svg>