<?xml version="1.0" encoding="UTF-8"?>
<svg width="24px" fill="#44739e" height="24px" viewBox="0 0 24 24" version="1.1" xmlns="http://www.w3.org/2000/svg" xmlns:xlink="http://www.w3.org/1999/xlink">
            <path d="M 14.373,9.123 A 0.469,0.469 0 0 0 14.122,9.64 c 0.062,0.166 0.276,0.2 0.479,0.084 A 0.47,0.47 0 0 0 14.853,9.208 C 14.789,9.042 14.575,9 14.373,9.123 Z m -0.221,0.983 h 0.67 v 2.135 h -0.67 z m 1.048,3.741 a 0.375,0.375 0 0 1 0.37,-0.413 0.55,0.55 0 0 1 0.333,0.122 V 13.3 a 0.792,0.792 0 0 0 -0.35,-0.083 0.629,0.629 0 0 0 0.017,1.257 0.97,0.97 0 0 0 0.359,-0.07 v -0.235 a 0.757,0.757 0 0 1 -0.32,0.08 0.376,0.376 0 0 1 -0.409,-0.402 z m -0.853,0.032 c 0,-0.448 -0.205,-0.664 -0.525,-0.664 a 0.56,0.56 0 0 0 -0.564,0.612 0.6,0.6 0 0 0 0.584,0.645 0.8,0.8 0 0 0 0.484,-0.143 V 14.1 a 0.769,0.769 0 0 1 -0.424,0.146 0.378,0.378 0 0 1 -0.4,-0.364 h 0.85 z m -0.52,-0.459 a 0.278,0.278 0 0 1 0.282,0.3 H 13.5 a 0.315,0.315 0 0 1 0.327,-0.3 z m 4.936,-3.353 v 0 a 1.078,1.078 0 0 0 -1.125,1.118 1.1,1.1 0 0 0 1.237,1.095 1.542,1.542 0 0 0 0.953,-0.28 v -0.42 a 1.262,1.262 0 0 1 -0.792,0.3 0.62,0.62 0 0 1 -0.7,-0.592 h 1.531 a 1.081,1.081 0 0 0 -1.104,-1.221 z m -0.416,0.868 a 0.453,0.453 0 0 1 0.462,-0.468 0.46,0.46 0 0 1 0.465,0.468 z m -0.055,2.583 h -0.005 v -0.28 h -0.238 v 1.211 h 0.238 v -0.631 a 0.339,0.339 0 0 1 0.293,-0.374 0.391,0.391 0 0 1 0.224,0.121 l 0.126,-0.21 a 0.418,0.418 0 0 0 -0.288,-0.14 c -0.113,0 -0.228,0.085 -0.35,0.303 z m 1.271,-0.28 h 0.239 v 1.211 h -0.239 z m -2.877,-0.997 h 0.669 V 9.087 H 16.686 V 10.2 a 1.248,1.248 0 0 0 -0.557,-0.134 1.022,1.022 0 0 0 -1.034,1.1 1.027,1.027 0 0 0 1,1.11 0.885,0.885 0 0 0 0.595,-0.212 z m -0.4,-0.407 c -0.315,0 -0.515,-0.26 -0.515,-0.649 0,-0.426 0.2,-0.672 0.537,-0.672 a 0.737,0.737 0 0 1 0.377,0.125 v 1.02 a 0.567,0.567 0 0 1 -0.398,0.176 z m 3.354,0.938 a 0.17,0.17 0 0 0 -0.091,0.184 c 0.022,0.058 0.1,0.072 0.171,0.03 a 0.166,0.166 0 0 0 0.089,-0.184 C 19.787,12.743 19.711,12.73 19.64,12.772 Z m 1.032,1.075 a 0.374,0.374 0 0 1 0.368,-0.413 0.553,0.553 0 0 1 0.335,0.122 V 13.3 a 0.8,0.8 0 0 0 -0.35,-0.083 0.629,0.629 0 0 0 0.015,1.257 0.991,0.991 0 0 0 0.362,-0.07 v -0.235 a 0.772,0.772 0 0 1 -0.321,0.08 0.376,0.376 0 0 1 -0.409,-0.402 z m -3.68,0.227 v -0.621 h 0.383 v -0.215 h -0.383 v -0.251 l -0.448,0.439 v 0.027 h 0.21 v 0.639 a 0.356,0.356 0 0 0 0.391,0.38 0.7,0.7 0 0 0 0.291,-0.081 v -0.223 a 0.52,0.52 0 0 1 -0.272,0.089 0.167,0.167 0 0 1 -0.172,-0.183 z M 13.855,11.58 a 1.261,1.261 0 0 1 -0.79,0.3 0.62,0.62 0 0 1 -0.7,-0.592 h 1.531 A 1.116,1.116 0 1 0 11.669,11.188 1.1,1.1 0 0 0 12.9,12.28 1.538,1.538 0 0 0 13.855,12 Z m -1.017,-1.113 a 0.459,0.459 0 0 1 0.463,0.468 h -0.926 a 0.453,0.453 0 0 1 0.463,-0.468 z M 2.808,9.885 c 0,-0.157 0.182,-0.259 0.466,-0.259 a 2.445,2.445 0 0 1 1,0.282 V 9.293 A 2.583,2.583 0 0 0 3.2,9.048 C 2.467,9.048 2,9.409 2,9.954 c 0,1.13 1.61,0.941 1.61,1.458 0,0.184 -0.163,0.29 -0.466,0.29 A 1.826,1.826 0 0 1 2.065,11.3 v 0.68 a 2.132,2.132 0 0 0 1.139,0.3 c 0.706,0 1.214,-0.352 1.214,-0.957 0,-1.097 -1.61,-0.963 -1.61,-1.438 z m 4.811,2.672 a 2.585,2.585 0 0 0 -0.3,0.345 h 0.4 L 7.627,13.165 H 7.153 a 2.174,2.174 0 0 0 -0.121,0.248 h 0.562 l -0.09,0.263 H 6.952 a 1.061,1.061 0 0 0 0.2,1.015 c 0.462,0.462 1.437,0.3 2.165,-0.4 A 2.554,2.554 0 0 0 9.645,13.905 H 9.139 l 0.077,-0.263 h 0.6 A 2.314,2.314 0 0 0 9.932,13.393 H 9.276 L 9.349,13.13 h 0.659 A 1.025,1.025 0 0 0 9.794,12.166 C 9.326,11.7 8.348,11.859 7.619,12.557 Z m 1.9,0.343 H 9.13 c -0.042,0 -0.06,0.007 -0.077,0.027 a 0.046,0.046 0 0 0 -0.012,0.03 L 8.827,13.768 A 0.838,0.838 0 0 1 7.972,14.337 H 7.338 l 0.11,-0.417 h 0.407 a 0.126,0.126 0 0 0 0.1,-0.046 0.1,0.1 0 0 0 0.025,-0.049 l 0.169,-0.709 a 0.8,0.8 0 0 1 0.806,-0.6 H 9.604 Z M 5.289,11.174 A 0.6,0.6 0 0 1 5.95,10.559 1.213,1.213 0 0 1 6.5,10.7 v -0.5 a 2.242,2.242 0 0 0 -0.717,-0.138 1.118,1.118 0 0 0 -1.206,1.113 1.1,1.1 0 0 0 1.234,1.1 2.08,2.08 0 0 0 0.722,-0.143 v -0.483 a 1.645,1.645 0 0 1 -0.6,0.148 0.6,0.6 0 0 1 -0.644,-0.623 z m 2.187,-0.292 c 0.157,-0.227 0.291,-0.324 0.448,-0.324 0.209,0 0.347,0.149 0.347,0.468 v 0.75 a 2,2 0 0 1 0.671,-0.213 v -0.681 0 A 0.749,0.749 0 0 0 8.16,10.067 0.822,0.822 0 0 0 7.485,10.424 H 7.476 V 9.087 h -0.67 v 3.148 h 0.67 z m 14.08,-0.817 c -0.258,0 -0.481,0.208 -0.679,0.653 h -0.01 V 10.1 H 20.2 v 2.135 h 0.671 v -0.922 c 0.148,-0.391 0.3,-0.623 0.551,-0.623 a 0.779,0.779 0 0 1 0.4,0.158 L 22,10.26 a 0.727,0.727 0 0 0 -0.444,-0.195 z m -9.149,2.547 h 0.239 v 1.838001 H 12.407 Z M 11.4,12.236 v -1.352 a 0.746,0.746 0 0 0 -0.778,-0.818 0.865,0.865 0 0 0 -0.695,0.346 v -0.306 h -0.67 v 1.451 a 1.055,1.055 0 0 1 0.67,0.306 v -1 c 0.177,-0.265 0.3,-0.353 0.468,-0.353 0.19,0 0.334,0.125 0.334,0.427 v 1.3 z m -0.408,1.404 h 0.752 v -0.238 h -0.752 v -0.553 h 0.779 v -0.237 h -1.04 v 1.836 h 1.063 v -0.237 h -0.802 z"/>

</svg>
