<?xml version="1.0" encoding="UTF-8" standalone="no"?>
<svg
   width="24"
   height="24"
   viewBox="0 0 24 24"
   version="1.1"
   xmlns="http://www.w3.org/2000/svg"
   xmlns:svg="http://www.w3.org/2000/svg">
  <path
     style="fill:#44739e"
     d="m 2,11.185901 c 0,-0.333098 0.270099,-0.6003 0.6035591,-0.6003 0.1589457,0 0.3001502,0.063 0.4084071,0.162204 -0.0029,-0.05395 -0.00616,-0.104999 -0.00616,-0.158945 0,-1.1137065 0.9004509,-2.0145193 2.0145188,-2.0145193 0.2882022,0 0.5611977,0.060103 0.8106592,0.1712558 -0.00289,-0.057206 -0.00615,-0.1140498 -0.00615,-0.1679973 0,-1.6691105 1.3508572,-3.0199677 3.0199678,-3.0199677 1.657162,0 3.001865,1.3360126 3.019967,2.9899166 C 11.318417,9.0280057 10.883217,9.6340993 10.604066,10.31876 10.063868,9.9824038 9.4273611,9.7814588 8.7459585,9.7814588 c -1.4048046,0 -2.6177157,0.7987112 -3.1850686,2.0054662 H 3.4080632 2.6035591 C 2.270099,11.780409 2,11.519361 2,11.185901 Z M 17.901808,9.3817413 c -0.74766,-0.7476602 -1.777367,-1.2096526 -2.917865,-1.2096526 -2.080415,0 -3.803473,1.5402161 -4.085882,3.5453203 -0.513405,-0.684298 -1.3327539,-1.128912 -2.2545663,-1.128912 -1.5579573,0 -2.8190229,1.263962 -2.8190229,2.819022 0,0.453304 0.1078949,0.879453 0.2972538,1.260705 -0.9786563,0.198048 -1.7053169,0.957656 -1.7053169,1.861365 0,1.056862 0.9906045,1.912417 2.2154637,1.912417 0.540198,0 1.0358624,-0.167997 1.4200113,-0.447148 l 4.5301333,-4.455185 c 0.501456,-0.459459 1.167653,-0.738609 1.900106,-0.738609 1.531165,0 2.777024,1.221964 2.819023,2.743715 0,0 0,-0.0029 -0.0029,-0.0029 0.0239,0.450408 -0.209996,0.90371 -0.642299,1.152809 -0.603559,0.348304 -1.359909,0.162204 -1.690111,-0.411304 -0.333097,-0.576404 -0.11405,-1.324064 0.489509,-1.672007 0.141205,-0.0811 0.288203,-0.132153 0.438459,-0.158945 -0.129257,-0.02716 -0.264306,-0.0391 -0.402252,-0.0391 -1.110809,0 -2.014519,0.900449 -2.014519,2.014517 0,1.113706 0.900451,2.014519 2.014519,2.014519 0.04815,0 0.0992,-0.0029 0.146998,-0.0062 l -0.0029,-0.0062 0.05721,-0.0062 h 3.953729 v 0.01484 C 20.856242,18.3848 22,17.271094 22,15.914082 c 0,-1.38996 -1.188653,-2.524665 -2.578613,-2.524665 -0.0029,0 -0.0029,0 -0.0062,0 -0.225203,0.402252 -0.498198,0.636507 -0.8074,0.888502 0.324046,-0.591248 0.510508,-1.263961 0.510508,-1.984467 -0.0069,-1.13724 -0.469233,-2.164051 -1.216531,-2.9117107 z"/>
</svg>
