<svg xmlns="http://www.w3.org/2000/svg" viewBox="0 0 24 24"><path fill="#44739e" d="M11.537 12.297c-.116-.124-.231-.11-.401.044l-.093.087.321.344.1-.1c.158-.135.179-.261.073-.375m5.443-5.271a.66.66 0 0 0-.385.2l-.08.076.777.833.081-.074a.63.63 0 0 0 .229-.371.55.55 0 0 0-.151-.481.57.57 0 0 0-.471-.183m3.869-.734a.18.18 0 0 1-.27.007.18.18 0 0 1 .025-.269l.576-.538-2.905-3.113-.662.617a.24.24 0 0 1-.344-.012L2 17.225l1.71 1.834a.501.501 0 1 1 .684.733l1.703 1.829L21.388 7.363a.2.2 0 0 1-.065-.045.24.24 0 0 1 .01-.344L22 6.353l-.566-.607Zm.162-.861v.011l-.005.01-.328.301a.02.02 0 0 1-.022 0l-.06-.089-.006-.007.328-.305h.021Zm-.217-.256v.02l-.341.317-.008-.01-.07-.081s-.01-.01 0-.021l.322-.301h.02Zm-.679-.729v.02l-.34.318a.02.02 0 0 1-.01-.011l-.066-.07a.015.015 0 0 1 0-.023l.327-.306h.01l.01.005Zm-.332-.356v.021l-.341.317-.01-.007-.074-.08a.02.02 0 0 1 0-.022l.328-.306h.021Zm-.345-.37v.01l-.005.01-.341.317-.01-.011-.067-.073a.02.02 0 0 1 0-.022l.328-.305h.021Zm-.452-.484v.02l-.339.317a.02.02 0 0 1-.01-.011l-.069-.073a.02.02 0 0 1 0-.024l.328-.3a.016.016 0 0 1 .022 0Zm-.545.125v-.012l.328-.306h.021l.069.075v.02l-.328.3a.02.02 0 0 1-.023 0l-.05-.08a.014.014 0 0 1-.017.003M18 2.882a.015.015 0 0 1 0-.022l.329-.305h.02l.069.073v.02l-.34.317a.02.02 0 0 1-.022 0Zm.101.11.322-.3h.02l.068.073v.02l-.326.307s-.013.01-.023 0l-.056-.089a.02.02 0 0 1-.007-.011Zm.116.133a.016.016 0 0 1 0-.022l.328-.306h.02l.068.073v.02l-.341.318s-.012.012-.022 0Zm.114.12a.02.02 0 0 1 0-.022l.327-.301h.022l.068.073a.02.02 0 0 1 0 .023l-.341.317a.016.016 0 0 1-.024 0Zm.341.366a.015.015 0 0 1 0-.022l.34-.306h.011l.01.005.068.072v.021l-.34.318a.017.017 0 0 1-.028 0Zm.112.12a.016.016 0 0 1 0-.022l.328-.301v-.006h.02l.068.072v.023l-.341.317a.016.016 0 0 1-.022 0Zm.113.122a.02.02 0 0 1 0-.023l.328-.301h.022l.068.074v.01l-.005.01-.34.317a.02.02 0 0 1-.023 0Zm.226.24a.02.02 0 0 1 0-.021l.327-.305h.02l.068.073v.02l-.34.318s-.012.01-.022 0Zm.113.123a.016.016 0 0 1 0-.022l.326-.306h.022l.07.073a.02.02 0 0 1 0 .022l-.341.317a.02.02 0 0 1-.024 0Zm.227.243a.02.02 0 0 1 0-.025l.328-.3a.02.02 0 0 1 .02 0l.069.073v.02l-.341.317a.02.02 0 0 1-.022 0Zm.113.12a.015.015 0 0 1 0-.022l.328-.3h.011l.01.005.068.078v.02l-.34.318a.02.02 0 0 1-.024 0Zm.233.241a.02.02 0 0 1 0-.02l.326-.301h.022l.069.071v.022l-.341.319a.02.02 0 0 1-.022 0Zm.107.124a.02.02 0 0 1 0-.013l.328-.301.009-.005h.01l.067.074v.023l-.329.3s-.013.012-.023 0l-.05-.077a.02.02 0 0 1-.022-.003Zm.125.126a.016.016 0 0 1 0-.022l.327-.3h.022l.068.073a.02.02 0 0 1 0 .023l-.341.317a.02.02 0 0 1-.024 0Zm.113.122a.02.02 0 0 1 0-.023l.328-.301h.022l.07.075v.02l-.34.324a.02.02 0 0 1-.023 0Zm.107.113a.016.016 0 0 1-.001-.024l.326-.306a.02.02 0 0 1 .023 0l.068.073v.02l-.34.318a.02.02 0 0 1-.022 0Zm.224.242a.015.015 0 0 1 0-.022l.328-.3h.019l.07.072v.022l-.341.317a.02.02 0 0 1-.022 0ZM4.816 18.401l-.326.319h-.012v-.01l.252-.347a.34.34 0 0 1 .183-.129l.324-.1a1.75 1.75 0 0 0 .962-.711l.263-.401c.024-.035.037-.111-.047-.071a6 6 0 0 1-.767.153 2.6 2.6 0 0 0 .849-.607 2.4 2.4 0 0 1 .741-.567l-.046-.143.16-.164-1.308.301a.04.04 0 0 0-.037.045v.009l.125.361a1.3 1.3 0 0 0-.435.159 6 6 0 0 0-.423.401l.562-.137-1.521 1.285.932-1.723a.16.16 0 0 0-.136-.08h-.947l.802-.494a.34.34 0 0 1 .21-.047l.501.172.01-.091a.06.06 0 0 0-.014-.044l-.22-.246 1.94-.2a.08.08 0 0 1 .087.054l.058.157.18.068v-.09a.024.024 0 0 1 .026-.022l.569.1.192.752-.277-.117-.078.337-.173-.263-.455.546.128-.368a.2.2 0 0 1 .062-.1s.355-.296.413-.34-.065-.11-.145-.123a1 1 0 0 0-.166-.013c-.015 0-.025 0-.03.011l-.34.642a.06.06 0 0 1-.045.032l-.401.064-.784.987a1.75 1.75 0 0 1-.867.586l-.393.117a.4.4 0 0 0-.139.091Zm3.667-1.049a1.6 1.6 0 0 1-.22.507 5 5 0 0 1-.456.376.7.7 0 0 0 .042-.28.53.53 0 0 0-.13-.236 2 2 0 0 0-1.212.388c-.401.368-.658.638-.658.638s.176-.462.322-.814a2.3 2.3 0 0 1 .609-.71 1.4 1.4 0 0 0 .078.201c.022.03 1.088.137 1.278-.033a.4.4 0 0 0 .09-.141l.084.166.146-.21Zm1.477-.686a.4.4 0 0 1-.036.048.44.44 0 0 1-.476.124 1 1 0 0 1-.113-.043c0 .04.01.08.012.12a.27.27 0 0 1-.046.177l-.018.012v-.018a.21.21 0 0 0-.069-.171.3.3 0 0 0-.301-.1 1 1 0 0 0-.1.03c-.018.008-.025.02 0 .033a.2.2 0 0 1 .086.079.3.3 0 0 1 .04.152c0 .009-.006.018-.01.027l-.018-.013a.18.18 0 0 0-.15-.05 5 5 0 0 0-.285.05 1.6 1.6 0 0 1-.588.022.8.8 0 0 1-.25-.085l-.016-.018c.007 0 .014-.006.02 0a.53.53 0 0 0 .268-.027.6.6 0 0 0 .289-.228c.054-.076.1-.159.145-.239l.026-.027.012.04a.6.6 0 0 1-.044.226l-.025.062v.018h.016a.6.6 0 0 0 .084-.084q.073-.12.139-.242a.6.6 0 0 1 .161-.192.46.46 0 0 1 .387-.075 1 1 0 0 1 .096.034l-.07.038a.37.37 0 0 0-.245.188l-.008.027.019-.01a.36.36 0 0 1 .42-.015q.077.044.15.1a.43.43 0 0 0 .394.068 1 1 0 0 0 .1-.05h.017l-.008.012Zm-.401-2.847-.468.437.258.275.338-.314.08.223-.271.251.516.55-.174.162-.516-.552-.121.113-.073-.218.053-.05-.414-.442.711-.661Zm1.592.349-.193.18-1.077-1.15.193-.181Zm1.203-1.123-.787-.183-.054.05.457.491-.181.168-1.072-1.149.247-.237a.62.62 0 0 1 .43-.224.44.44 0 0 1 .313.144.43.43 0 0 1 .035.561l.813.176Zm.452-2.254-.471.439.249.268.471-.439.16.17-.471.44.341.366.471-.441.164.177-.661.616-1.076-1.153.661-.616Zm1.426-1.122a.58.58 0 0 0-.412.157.56.56 0 0 0-.014.802l.01.01a.553.553 0 0 0 .782.025.58.58 0 0 0 .183-.401l.188.201a.8.8 0 0 1-.227.36.78.78 0 0 1-1.102-.037.794.794 0 0 1 .048-1.122.7.7 0 0 1 .365-.188Zm1.944-.967a.588.588 0 0 1-.861.802l-.681-.73.175-.162.636.681a.5.5 0 0 0 .223.166.355.355 0 0 0 .436-.407.47.47 0 0 0-.15-.235l-.635-.681.177-.164Zm1.646-.968a.85.85 0 0 1-.322.501l-.24.225-.933-.997-.134.124-.061-.22.247-.231.053-.05a.9.9 0 0 1 .521-.303.77.77 0 0 1 .663.259.76.76 0 0 1 .201.693Zm1.75-1.425-.385-.171-.225-.1-.549-.23.19.563.16-.15.229.093-.31.288.134.401-.188.175-.133-.4-.162.15-.076-.234.162-.151-.368-1.132 1.704.717Zm1.608-.022-.068-.073-.015-.017.328-.3h.02l.068.073v.01l-.005.01-.328.301Zm.69.036v.02l-.341.317s-.012.012-.022 0l-.056-.085a.02.02 0 0 1 0-.022l.328-.3h.02Zm-.112-.121v.021l-.341.316s-.012.012-.022 0l-.055-.084a.02.02 0 0 1 0-.023l.327-.301h.021Zm-.114-.122v.02l-.339.318a.02.02 0 0 1-.023 0l-.064-.083a.02.02 0 0 1 0-.023l.326-.301h.021"/></svg>