<?xml version="1.0" encoding="UTF-8"?>
<svg width="24px" fill="#44739e" height="24px" viewBox="0 0 24 24" version="1.1" xmlns="http://www.w3.org/2000/svg" xmlns:xlink="http://www.w3.org/1999/xlink">
            <path d="M 14.09,20.985 H 5.742 V 22 h 12.59 V 20.985 Z M 5.81,21.052 H 5.926 L 5.81,21.218 Z m 0,0.246 0.018,0.013 L 6,21.069 h 0.14 l -0.327,0.417 z m 0,0.3 0.426,-0.544 H 6.359 L 5.81,21.7 Z m 0,0.336 V 21.807 L 6.434,21.071 H 6.6 l -0.763,0.863 z m 0.212,0 h -0.1 L 6.7,21.054 h 0.09 z m 0.09,0 0.757,-0.863 h 0.075 l -0.7,0.863 z m 0.233,-0.018 0.7,-0.862 H 7.139 L 6.49,21.911 Z m 0.211,0.018 0.655,-0.863 h 0.137 l -0.664,0.863 z m 0.426,0 H 6.77 l 0.677,-0.88 h 0.158 z m 0.083,0 0.611,-0.863 h 0.155 l -0.6,0.863 z m 0.472,0 H 7.31 l 0.616,-0.88 h 0.119 z m 0.078,0 0.5,-0.861 0.1,0.011 -0.436,0.85 z m 0.348,0 h -0.11 l 0.451,-0.88 H 8.37 Z m 0.074,0 0.408,-0.88 h 0.184 l -0.425,0.88 z m 0.358,0 H 8.28 l 0.424,-0.88 H 8.84 Z m 0.076,0 0.445,-0.88 h 0.116 l -0.411,0.88 z m 0.417,0 H 8.7 l 0.411,-0.88 h 0.178 z m 0.074,0 0.4,-0.88 H 9.47 l -0.333,0.88 z m 0.253,-0.019 0.326,-0.861 h 0.132 l -0.254,0.864 z m 0.269,0.019 0.26,-0.88 h 0.1 l -0.231,0.88 z m 0.432,0 H 9.867 l 0.049,-0.151 z m 0,-0.372 -0.12,0.372 H 9.678 l 0.231,-0.88 h 0.007 z m 4.174,0.372 H 9.984 v -0.88 h 4.106 z m -2.101,-5.354 0.008,0.014 v -0.006 l 6.292,-3.978 h -0.105 0.1 L 13.733,2 H 10.26 L 5.709,12.607 v 0 z m 5.857,-3.848 -5.47,3.458 1.5,-2.676 0.542,-0.885 z M 12,6.365 12.951,8.946 h -1.23 l -0.9,2.394 h 3.013 l 0.423,1.151 h -4.5 z m -2.428,6.264 0.545,0.891 1.5,2.663 -5.462,-3.454 z m 8.772,7.771 -0.871,-2.507 a 0.048,0.048 0 0 0 -0.05,-0.038 h -0.476 a 0.049,0.049 0 0 0 -0.051,0.038 l -0.89,2.507 c -0.006,0.025 0,0.038 0.025,0.038 h 0.5 a 0.048,0.048 0 0 0 0.05,-0.038 l 0.144,-0.451 h 0.9 l 0.15,0.451 a 0.048,0.048 0 0 0 0.05,0.038 h 0.495 c 0.024,-0.004 0.031,-0.017 0.024,-0.038 z m -1.473,-0.927 0.3,-0.9 h 0.013 l 0.294,0.9 z M 13.894,18.334 H 15 a 0.034,0.034 0 0 0 0.038,-0.038 V 17.889 A 0.034,0.034 0 0 0 15,17.851 h -1.652 a 0.033,0.033 0 0 0 -0.037,0.038 V 20.4 a 0.032,0.032 0 0 0 0.037,0.037 H 15 A 0.033,0.033 0 0 0 15.038,20.4 V 20 A 0.033,0.033 0 0 0 15,19.958 H 13.894 A 0.023,0.023 0 0 1 13.869,19.932 V 19.4 a 0.023,0.023 0 0 1 0.025,-0.025 h 0.927 a 0.033,0.033 0 0 0 0.038,-0.038 v -0.4 A 0.033,0.033 0 0 0 14.821,18.899 H 13.894 A 0.023,0.023 0 0 1 13.869,18.874 V 18.36 a 0.023,0.023 0 0 1 0.025,-0.026 z m -1.517,2.1 h 0.476 a 0.034,0.034 0 0 0 0.038,-0.038 V 17.889 A 0.034,0.034 0 0 0 12.853,17.851 H 12.37 a 0.033,0.033 0 0 0 -0.037,0.038 h 0.006 V 20.4 a 0.034,0.034 0 0 0 0.038,0.034 z m -0.395,-1.787 a 0.8,0.8 0 0 0 -0.878,-0.8 h -1.028 a 0.034,0.034 0 0 0 -0.038,0.038 v 2.505 a 0.034,0.034 0 0 0 0.038,0.038 h 0.483 a 0.033,0.033 0 0 0 0.037,-0.038 v -0.921 a 0.024,0.024 0 0 1 0.025,-0.026 h 0.345 l 0.445,0.947 a 0.056,0.056 0 0 0 0.057,0.038 v -0.007 h 0.539 c 0.025,0 0.037,-0.018 0.025,-0.043 l -0.508,-1.016 a 0.753,0.753 0 0 0 0.458,-0.715 z m -0.9,0.333 h -0.458 a 0.024,0.024 0 0 1 -0.025,-0.025 v -0.6 a 0.023,0.023 0 0 1 0.025,-0.025 h 0.458 a 0.315,0.315 0 0 1 0.351,0.32 0.324,0.324 0 0 1 -0.354,0.33 z M 8.553,18.334 H 9.669 A 0.033,0.033 0 0 0 9.706,18.296 V 17.889 A 0.033,0.033 0 0 0 9.669,17.851 H 8.014 A 0.034,0.034 0 0 0 7.976,17.889 V 20.4 a 0.033,0.033 0 0 0 0.038,0.037 H 9.662 A 0.033,0.033 0 0 0 9.7,20.4 V 20 A 0.033,0.033 0 0 0 9.662,19.963 H 8.553 A 0.023,0.023 0 0 1 8.528,19.937 V 19.4 A 0.023,0.023 0 0 1 8.553,19.375 H 9.48 a 0.033,0.033 0 0 0 0.038,-0.038 v -0.4 A 0.033,0.033 0 0 0 9.48,18.9 H 8.553 A 0.023,0.023 0 0 1 8.528,18.875 v -0.514 a 0.023,0.023 0 0 1 0.025,-0.027 z m -0.878,1.329 c 0,-0.47 -0.282,-0.708 -0.815,-0.784 L 6.722,18.861 c -0.294,-0.038 -0.4,-0.132 -0.4,-0.283 0,-0.151 0.119,-0.282 0.345,-0.282 a 1.042,1.042 0 0 1 0.6,0.2 0.034,0.034 0 0 0 0.05,-0.013 L 7.549,18.138 C 7.568,18.113 7.568,18.094 7.542,18.082 a 1.461,1.461 0 0 0 -0.877,-0.27 0.806,0.806 0 0 0 -0.915,0.79 c 0,0.452 0.288,0.7 0.815,0.771 l 0.137,0.019 c 0.308,0.044 0.4,0.138 0.4,0.288 0,0.182 -0.151,0.308 -0.42,0.308 A 1.08,1.08 0 0 1 6.005,19.724 0.041,0.041 0 0 0 5.948,19.731 L 5.66,20.063 c -0.019,0.019 -0.006,0.05 0.006,0.063 a 1.544,1.544 0 0 0 0.991,0.357 c 0.673,-0.005 1.018,-0.356 1.018,-0.82 z"/>

</svg>