<svg xmlns="http://www.w3.org/2000/svg" viewBox="0 0 24 24"><path fill="#44739e" d="M21.667 13.14a.73.73 0 0 0 .333-.377v-.053c-.097-.742-1.215-5.818-1.215-5.818s-1.731-1.559-8.602-1.559V2.107h-.387v3.226c-6.119 0-8.334 1.226-8.334 1.226L2 12.602s.204.355.473.57.699.333.71.28v.516c-1.334.344-1.161.666-1.161.666l1.15 5.947c.151.526 4.097 1.322 8.602 1.311s8.989-.731 8.925-1.236c0 0 1.247-5.925 1.172-5.85s.086-.44-1.172-.86v-.387a2.9 2.9 0 0 0 .968-.419m-1.689 7.441a34.6 34.6 0 0 1-8.182.914c-4.559 0-6.635-.495-7.452-.914a34 34 0 0 1 7.645-.699c4.205 0 7.968.462 8.033.666Zm.517-6.721c-6.534-1.321-10.487-1.15-17.108.075v-2.01c6.466-1.595 10.653-1.735 17.097-.14Z"/></svg>