<svg xmlns="http://www.w3.org/2000/svg" viewBox="0 0 24 24"><path fill="#44739e" d="M5.391 17.074h-.049l-.036-3.862h.014v-.257h-.016L5.259 8.34l-.365.023v.3h-.088v-.33l-.365.023v.317h-.089V8.33l-.365.023v.33h-.089v-.355l-.365.023v.343h-.088v-.368l-.366.037v.356h-.088v-.381l-.365.023v.369h-.089v-.394l-.363.023v.381L2 8.746v.257l.181.003.039 3.962h-.152v.257h.157l.038 3.802h-.124l-.007.259h.133v.363h.36v-.362h.093v.356h.361v-.355h.093v.349h.36v-.348h.092v.341h.361v-.342h.092v.336h.362v-.334h.093v.327h.36v-.327h.092v.32h.361v-.319h.039Zm-3.21-8.109h-.137v-.182h.139l.363-.011h.089L3 8.76h.088l.365-.009h.088l.366-.01h.089l.364-.01h.089l.364-.01h.088l.327-.009v.181l-.326.009h-.089l-.364.01h-.088l-.365.011h-.089l-.367.01h-.087l-.365.01h-.089l-.364.01h-.089Zm2.307 3.993h-.091l-.038-4.019h.088Zm-.455 0h-.089l-.039-4.006h.089Zm-.453 0h-.091l-.038-3.993h.088Zm-.454 0h-.09l-.038-3.983h.089Zm-.453 0H2.58l-.035-3.966h.089Zm2.268-.008H4.85l-.038-4.024H4.9Zm-2.718.23v-.183h3.064v.181H2.58Zm2.758 3.882h-.092l-.037-3.852h.091Zm-.452-.007h-.093l-.037-3.844h.091Zm-.452-.002h-.099l-.036-3.836h.089Zm-.453-.007h-.093l-.037-3.826h.092Zm-.453-.007h-.094l-.038-3.82h.091Zm-.455-.008h-.095l-.041-3.81h.1Zm2.27.258h-.092l-.36-.006h-.096l-.361-.01H3.53l-.36-.006h-.091l-.36-.006h-.096l-.36-.007h-.1l.006-.182h.092l.361.006h.093l.36.006h.093l.361.006h.092l.362.008h.548l.361.005h.092l.361.006v.184Zm6.197.375h.039v.344l.364.031v-.347l.094.009v.355l.367.033v-.358l.1.008v.365l.375.034v-.368l.099.008v.377l.381.034v-.379l.1.007v.388l.386.035v-.391l.1.009v.399l.392.036v-.399l.1.007v.412l.399.036v-.415l.147.012-.011-.294-.137-.01-.019-4.312h.174l-.006-.294h-.169l-.018-4.492h.191v-.291h-.192v-.432h-.399v.443h-.1v-.415h-.399v.425h-.095v-.4h-.39v.408h-.094V7.92h-.39v.387h-.092v-.354h-.378v.371h-.091v-.341h-.372v.353h-.089v-.328h-.367l.019 4.95h-.019v.277h.015l.015 4.153h-.048Zm2.849-9.147h-.1l-.399.01h-.1l-.389.01h-.094l-.385.009h-.093l-.378.009h-.091l-.372.008h-.089l-.329.008v-.2l.329-.009h.088l.372-.009h.091l.379-.011h.093l.384-.01h.094l.39-.01h.1l.399-.011h.1l.399-.012h.153v.208h-.152Zm-2.019.09h.091l.017 4.379h-.093Zm.469-.011h.093l.017 4.402h-.093Zm.478-.011h.094l.018 4.423h-.1Zm.484-.011h.1l.018 4.446h-.1Zm.491-.012h.1l.019 4.469h-.1Zm-2.382.057h.088l.018 4.357h-.092Zm2.496 4.658h-.1l-.399-.01h-.1l-.387-.011h-.1l-.383-.01h-.099l-.378-.01h-.093l-.369-.011h-.092l-.346-.008v-.2l.348.009h.092l.369.009h.093l.378.01h.093l.384.008h.1l.388.01h.1l.399.01h.1l.399.009v.209Zm-2.485-.029h.092l.016 4.176-.094-.007Zm.461.013h.093l.018 4.199-.1-.008Zm.471.013h.099l.017 4.221-.099-.008Zm.477.015h.1l.017 4.244-.1-.007Zm.483.013h.1l.019 4.269-.1-.009Zm.493.014h.1l.02 4.292-.1-.007Zm-2.734 4.312v-.199l.363.029.094.007.367.029.1.007.375.029.099.009.381.029.1.008.387.031.1.007.392.032.1.007.399.031.1.007.007.209-.107-.008-.399-.033-.1-.008-.392-.033-.1-.007-.387-.032-.1-.008-.381-.032-.099-.008-.375-.03-.1-.009-.367-.03-.094-.007ZM8.296 6.053l4.991 1.577L22 8.44l-4.771-1.397ZM14.627 8l7.287.615.049-.1-7.337-.637ZM8.125 6.053l5.036 1.601.108.03v.117l-.552.025L8.16 6.358l.045-.14Zm-.313.058L3.451 8.247l-.064.027.665-.027 3.76-1.836-.059-.143Zm.199.863h-.027l-.213-.453-1.298.643 3.257-.189-1.571-.512Zm-1.697.276-.951.475 5.695-.349-1.076-.339Zm-1.156.58-.837.421 8.142-.425-1.235-.38Zm16.395.908h-.179l-1.079-.094-.2-.02-1.257-.107-1.231-.068-1.256-.107-.361-.035-1.298-.109v3.436l1.298.019.335-.019 1.293.019 1.26.021 1.281.027h1.253V12l-6.837-.118v.514l6.843.084v.185l-6.848-.058v.462l6.849.025v.2h-6.843l.006.46 6.858-.029v.126l-6.869.137.014.461 6.861-.168v.171l-6.877.199.017.462 6.866-.228v.176l-6.888.258.021.462 6.871-.29v.227l-6.878.294.024.462 6.86-.325v.157l-6.904.44.032.462 6.878-.471v.161l-6.895.5.036.461 6.966-.54.081-.021Zm-5.739 2.725-.949-.014V8.397l.949.081Zm.689-.014.018-2.903.908.078.012 2.839Zm2.548.041-.038-2.768.906.076.06 2.711Zm1.473.021-.05-2.661.847.072.053 2.589ZM7.827 6.297l.174.513.124-.566-.147-.593Z"/></svg>