<svg xmlns="http://www.w3.org/2000/svg"  fill="#44739e"  width="32" height="32" viewBox="0 0 256 256">
  <path id="Colore_riempimento_1" data-name="Colore riempimento 1" class="cls-1" d="M108,131c-35.632-.356-80.616-3.4-106,7V114L7,91l9-22,2-1,2-6,2-1V59l2-1V56l3-2V52l4-3V47l8-7,7-8h2l3-4h2l1-2h2l2-3,4-1,1-2,6-2,1-2,5-1V14l4-1V12l22-7h5c5.573-1.655,12.3-2,20-2,26.063,0,45.107,5.043,61,15l6,2,1,2,4,1,2,3h2l1,2c5.627,3.835,12.6,8.106,16,14h-3c-2.134-1.931-9.149-1-13-1-11.512,0-27.317-1.815-37,1l-14,1v1l-8,1v1l-6,1v1h-2v1h-3v1l-4,1-1,2h-2l-1,2h-2l-3,4-3,2v2l-3,2q-0.5,2.5-1,5h-1v2h-1c-0.866,2.233-2.058,20.527-1,24h1v4h1l3,14c7.455,17.186,23.42,49.611,9,70l-4,3-4,5h-2q-0.5,1-1,2c-7.833,4.963-29.924,10.812-43,7H63v-1H59v-1H55v-1H52v-1H50v-1H47v-1H45v-1H43l-1-2H40l-2-3H36l-1-3-3-2v-2H31v-3c-2.781-7.68.661-11.092,2-17l4-3v-1h2l1-2,14-5,31-1C95.045,146.936,105.77,141.8,108,131Zm98-69-1,3h-1v2h-1v2h-1v2h-1v2h-1v2c-2.6,4.869-7.186,10.563-8,17h45l9-8v1h1q0.5,3,1,6h1v3h1v4h1v4h1v6c5.575,19.219.716,46.535-5,61q-0.5,3-1,6c-16.285,37.053-43.484,61.11-83,75h-4v1h-4v1h-6c-19.335,5.6-47.491.825-62-5H84v-1H82v-1l-12-4-1-2-6-2v-1l-3-1-1-2H57l-1-2H54l-2-3H50l-2-3H46l-6-7h2c3.164,2.892,10.055.649,15,2,10.152,2.774,40.058,1.635,49-1l11-1v-1l8-1v-1h3v-1h3v-1h3v-1h3v-1h3v-1l4-1v-1l4-1v-1h2v-1h2v-1h2q0.5-1,1-2h2q0.5-1,1-2h2l3-4h2l3-4h1v-2l4-3q0.5-2,1-4l2-1q0.5-2.5,1-5h1v-2h1v-4c3.223-9.892,2-21.917-1-31v-4h-1v-3h-1v-3h-1v-3h-1v-3h-1q-0.5-3-1-6h-1v-2h-1q-0.5-2.5-1-5h-1q-0.5-3-1-6h-1v-2h-1v-3h-1V97h-1V94h-1V91c-1.473-3.739-5.088-11.236-3-18h1q0.5-2.5,1-5c2.6-1.412,5.1-4.025,8-5h6C183.013,60.677,196.241,62,206,62Z"/>
</svg>
