<svg xmlns="http://www.w3.org/2000/svg" viewBox="0 0 24 24"><path fill="#44739e" d="M15.411 2.403c-.946.224-1.896 1.631-2.566 2.302-.272.271-.677.561-.835.916-.366.823.365 1.78 1.262 1.568.446-.105.729-.463 1.039-.774.693-.693 1.873-1.506 2.311-2.382.403-.805-.282-1.849-1.211-1.63m-8.248 1.65c-.782.25-1.654 1.259-2.149 1.874-1.807 2.243-2.679 5.218-2.047 8.065.185.831.449 1.692.845 2.444.119.225.678.859.621 1.099-.049.21-.42.462-.57.611-.681.681-2.378 1.789-1.711 2.933.896 1.535 2.534-.579 3.178-1.222.147-.147.444-.582.651-.621.141-.027.564.43.693.519.677.471 1.376.874 2.138 1.181 2.55 1.027 5.596.793 8.004-.478 1.149-.607 2.149-1.48 2.953-2.495.235-.297.715-.729.499-1.161-.397-.794-1.539-1.569-2.169-2.199-.145-.146-.735-.577-.692-.795.072-.371.911-.952 1.181-1.222 1.025-1.025 2.392-2.048 3.218-3.238.556-.801-.169-1.799-1.08-1.711-.676.066-1.206.84-1.649 1.283l-3.422 3.422c-.52.52-1.163 1.008-.957 1.833.2.802 1.426 1.629 1.996 2.199.155.155.733.569.733.795 0 .158-.263.29-.367.376a8.5 8.5 0 0 1-1.099.795c-1.653.987-3.702 1.28-5.56.763-.777-.215-1.551-.55-2.2-1.028-.122-.09-.55-.309-.55-.479 0-.132.222-.282.306-.366l.916-.917 3.727-3.727c.374-.373 1.567-1.208 1.528-1.771-.036-.521-.991-1.174-1.344-1.528l-3.911-3.91c-.345-.345-1.148-1.504-1.71-1.324m4.032 6.762v.061L7.59 14.48c-.405.405-.979 1.247-1.527 1.406-1.346-2.132-1.368-4.922-.255-7.149.252-.504.555-.974.927-1.405.114-.132.236-.388.428-.418.295-.045.842.71 1.038.907Z"/></svg>