<svg xmlns="http://www.w3.org/2000/svg" viewBox="0 0 24 24"><path fill="#44739e" d="M4.444 19.052c-.021 0-.041.013-.041.03a.3.3 0 0 0 .041.095c.033.05.042.046.042-.033 0-.05-.017-.092-.042-.092m.494-.415c-.025 0-.025.025.009.062s.062.054.07.046c.021-.029-.033-.108-.079-.108m-2.528-.029c-.158.237-.158.237.033.1.108-.075.124-.108.079-.142s-.067-.029-.112.042m1.552-.033c-.033.137-.008.158.087.087a.11.11 0 0 0 .05-.125c-.037-.099-.108-.078-.137.038m.191-.195c0 .049.141.174.2.174.079 0 .058-.075-.042-.141s-.158-.083-.158-.033m-1.029-.358c.021.133.116.146.116.017q.002-.105-.066-.107c-.046 0-.058.029-.05.09m1.382-.385-.041.1a.42.42 0 0 1-.245.166c-.22.079-.291.058-.337-.1-.016-.041-.041-.079-.062-.079s-.017.05.008.108a.16.16 0 0 1 0 .182.2.2 0 0 0-.025.146c.025.058.034.058.079-.009s.054-.062.1.021c.071.133.129.112.129-.05 0-.128.012-.14.2-.19.237-.066.254-.079.22-.2Zm-1.473.075a.3.3 0 0 0 .041.137c.033.05.042.037.042-.05 0-.062-.017-.124-.042-.137s-.041.009-.041.05m.917-.079a.055.055 0 0 0 0-.108c-.025-.008-.046.017-.046.054s.021.062.046.054m-.398-.365c-.017-.067-.046-.125-.071-.125s-.029.046-.012.112c.037.166.137.3.215.3.058 0 .058-.012-.016-.083a.45.45 0 0 1-.116-.204m.892 0c.021 0 .058-.038.083-.083q.07-.124-.07-.054c-.063.025-.071.137-.013.137m-.532-1.221c.021-.108-.02-.146-.07-.067a.13.13 0 0 0 .012.108c.033.058.042.05.058-.041m1.068-.776c-.054.046-.083.099-.066.111s.07-.008.12-.057c.116-.116.075-.158-.054-.054m16.64-8.552-.108-.162h-.74l-.04-.187a6 6 0 0 1 .046-1.183l.087-.999-.112-.116a.4.4 0 0 1-.113-.225 4 4 0 0 1 .2-.722c.029-.079-.22-.075-.362 0-.158.091-.237.083-.149-.017.058-.062.066-.12.045-.265-.033-.212.025-.283.142-.179a.19.19 0 0 0 .27.012c.07-.049.07-.074.029-.207s-.063-.154-.225-.154-.166.008-.1.054.045.062-.117.137c-.116.054-.187.071-.2.042s-.062 0-.125.05c-.091.087-.108.091-.141.029a.087.087 0 0 0-.112-.038c-.058.021-.071.058-.05.146.013.066 0 .12-.016.12s-.042-.062-.05-.137c-.012-.12-.024-.133-.128-.12q-.114.014-.092-.03c.016-.03 0-.045-.037-.045s-.066.012-.066.033-.075.029-.167.029a1 1 0 0 1-.166-.008 1 1 0 0 1 .137-.083l.133-.071-.124-.029-.125-.025.137-.033c.162-.037.175-.1.017-.1-.137 0-.216.067-.216.187s-.1.2-.3.282a.5.5 0 0 0-.2.15c-.05.1-.2.116-.232.025a.11.11 0 0 0-.083-.063c-.034 0-.059-.041-.054-.1s.008-.071.024-.029c.05.124.221.174.221.062a.06.06 0 0 0-.059-.062c-.033 0-.066-.042-.074-.1-.017-.124-.129-.116-.158.013a.23.23 0 0 1-.116.145.2.2 0 0 0-.108.1c-.009.033-.017-.037-.021-.158 0-.174.008-.216.066-.216a.8.8 0 0 0 .208-.05c.149-.054.187-.157.058-.157-.05 0-.087-.038-.1-.1s-.054-.1-.1-.1a.123.123 0 0 0-.074.2c.033.034.033.059 0 .1s-.054 0-.074-.129-.042-.174-.1-.158a.09.09 0 0 1-.112-.041c-.029-.049-.042-.049-.088 0a.11.11 0 0 1-.112.037c-.091-.033-.353.025-.324.079.017.025 0 .034-.062.013s-.086-.009-.086.041.033.067.157.054c.095-.008.149-.033.145-.066-.013-.058.054-.067.091-.008a.15.15 0 0 0 .112.041c.059 0 .075.021.059.067s0 .062.079.049c.058-.012.1-.016.1-.008a1 1 0 0 1-.133.137c-.12.116-.141.121-.186.062s-.059-.058-.142.021c-.108.1-.116.1-.199.05q-.055-.039-.029-.145c.021-.088.008-.113-.075-.133-.066-.017-.1-.046-.079-.083.033-.088-.058-.071-.12.02-.054.075-.067.075-.636 0a22.6 22.6 0 0 0-3.385-.083 6.79 6.79 0 0 0-5.222 3.333 2.75 2.75 0 0 0-.522 1.146v.191l-.28-.025c-.751-.062-1.473-.1-1.511-.083a.12.12 0 0 0-.037.087.057.057 0 0 1-.058.058.18.18 0 0 0-.108.063c-.084.1.02.187.228.187h.179l.02.983a5 5 0 0 0 .3 2.005 6.55 6.55 0 0 0 2.699 3.176 2.3 2.3 0 0 0 .954.436 40 40 0 0 1 3.904 1.233c.852.345 1.374.672 1.499.95.066.133.062.137-.054.241a2.7 2.7 0 0 1-.826.428 11.2 11.2 0 0 1-2.716 0 21.3 21.3 0 0 1-4.456-1.519 3.3 3.3 0 0 0-.664-.25c-.137 0-.137.013.038.514.129.391.124.5-.034.636l-.124.108.124.087c.071.046.125.1.125.129s-.054.191-.116.374c-.087.257-.125.328-.183.319-.042-.008-.071.013-.071.05s-.041.067-.091.079c-.083.012-.079.021.037.05s.133.054.129.12a.6.6 0 0 0 .046.208c.058.141.041.162-.121.162-.066 0-.112.017-.1.037a.12.12 0 0 0 .083.033.06.06 0 0 1 .058.063.074.074 0 0 0 .079.062c.124 0 .253.199.253.377v.154l-.133-.063c-.178-.087-.286-.182-.257-.228s-.158-.199-.266-.199a.4.4 0 0 1-.216-.125.37.37 0 0 0-.216-.125c-.083 0-.071.025.112.187.116.1.2.207.2.236s.15.166.345.3c.229.158.333.254.287.262s-.058.029-.017.075c.063.074.021.074-.1 0a1 1 0 0 0-.3-.083l-.202-.02.187.1c.5.262.507.266.428.312s-.067.054-.021.128.041.1 0 .15c-.079.1-.162.066-.337-.108a.8.8 0 0 0-.2-.166c-.017 0-.062-.042-.1-.091s-.079-.075-.1-.059.075.129.208.245a1.2 1.2 0 0 1 .236.262c0 .029.038.058.083.071a.11.11 0 0 1 .084.108 1.4 1.4 0 0 0 .344.432 2.3 2.3 0 0 0 .799.577 16 16 0 0 0 4.136 1.23l.975.208h3.533l.594-.266q4.471-2.011 4.725-4.578c.029-.262.029-.262-.079-.262a.2.2 0 0 1-.129-.033 1.2 1.2 0 0 1 .108-.32 1.06 1.06 0 0 0 .1-.7 7 7 0 0 0-.3-1.56 7.3 7.3 0 0 0-.839-1.619 9.8 9.8 0 0 0-2.728-2.417 4.1 4.1 0 0 0-1.644-.676 16.4 16.4 0 0 1-3.423-1.018c-1.141-.552-.971-.984.536-1.361l.586-.145.515.1a21.6 21.6 0 0 1 3.152.812 14 14 0 0 1 1.844.848c.183.112.448.17.448.091s.25-1.893.262-1.899.3.012.655.046.869.074 1.143.087l.507.029.029-.133a.35.35 0 0 0-.076-.307M9.552 17.06c0 .021-.05.042-.108.042s-.1.016-.079.041.008.042-.013.042c-.058 0-.137-.108-.1-.137.038-.046.3-.034.3.012m0 2.075c0 .075-.013.079-.083.042a.31.31 0 0 1-.142-.311c.038-.1.092-.075.162.062a.6.6 0 0 1 .063.207m-1.823 1.039a.046.046 0 0 1-.046-.042c0-.025.009-.041.017-.041s.033.016.046.041.004.042-.017.042m-.245-.465c-.071-.059.012-.158.133-.154.046 0 .062.012.037.025-.087.033-.062.083.05.112.058.017.1.046.1.071.004.049-.237.008-.32-.054m.353-.2a.2.2 0 0 0-.12-.045c-.046 0-.075-.029-.075-.083 0-.075 0-.079.187-.009.1.038.187.083.187.1 0 .066-.129.091-.179.041Zm1.13.328c-.071 0-.079.013-.042.059.054.066-.008.132-.078.087a.17.17 0 0 1-.013-.2c.042-.045.219-.033.219.013 0 .025-.041.045-.086.045Zm.041-2.399a.11.11 0 0 1-.024-.112c.04-.1.069-.079.069.046 0 .091-.012.107-.045.074Zm.311 2.665c-.154-.07-.27-.228-.17-.228a.24.24 0 0 0 .133-.083c.1-.108.108-.1.062.021s.05.241.216.22c.091-.017.116 0 .108.046-.017.103-.179.111-.349.032Zm.524-1.785c-.021.012-.042-.013-.042-.058s.021-.088.042-.088.041.025.041.058a.11.11 0 0 1-.041.096Zm.245 1c-.067.078-.121.07-.121-.017 0-.108.046-.141.112-.087.042.046.042.071.009.113Zm.465.382c-.046.074-.278-.137-.316-.295-.029-.108-.025-.112.083-.071.058.021.146.062.191.083a.21.21 0 0 1 .042.292Zm6.889-16.764a.045.045 0 0 1-.042-.041.04.04 0 0 1 .042-.042.04.04 0 0 1 .041.042.04.04 0 0 1-.041.05Zm1.47-.083c-.058 0-.091-.017-.079-.042s.071-.041.129-.041.092.017.079.041a.18.18 0 0 1-.129.051Zm.578.046c-.067.083-.308.1-.279.02a.14.14 0 0 0-.041-.12.18.18 0 0 1-.062-.12q0-.063.024 0c.016.042.063.054.117.054a.11.11 0 0 1 .116.083c.017.063.042.075.1.054s.068-.012.025.037Zm.206.3c0-.054.03-.079.117-.083s.124 0 .112.062c-.021.108-.22.129-.229.029Zm.32.091a.1.1 0 0 1-.041-.066.04.04 0 0 1 .041-.038c.025 0 .042.029.042.067s-.017.054-.042.045Zm.208-.4c0-.108.012-.12.058-.083a.14.14 0 0 1 .038.129c-.034.138-.096.105-.096-.037Zm-.859-.07a.11.11 0 0 0-.116-.083c-.054 0-.108-.024-.117-.054s-.024-.037-.024 0a.18.18 0 0 0 .062.12.14.14 0 0 1 .041.12c-.029.084.212.063.279-.02.041-.05.037-.058-.025-.034s-.083.014-.1-.049m-.403-.041c-.058 0-.116.017-.129.041s.021.042.079.042a.18.18 0 0 0 .129-.042c.013-.024-.021-.041-.079-.041m-1.562.128a.045.045 0 0 0 .042.041.04.04 0 0 0 .041-.041.04.04 0 0 0-.041-.042.04.04 0 0 0-.042.042m-7.08 16.436c-.108-.041-.112-.037-.083.071.038.158.27.369.316.295a.21.21 0 0 0-.042-.283 2 2 0 0 0-.191-.083m9.493-16.219c-.087 0-.121.029-.117.083.009.1.208.079.229-.021.012-.058-.013-.071-.112-.062m.162.108a.1.1 0 0 0 .041.066c.025.013.042 0 .042-.037s-.017-.067-.042-.067a.04.04 0 0 0-.041.038m.345-.287a.14.14 0 0 0-.038-.129c-.046-.037-.058-.025-.058.083 0 .142.062.175.096.046M8.984 17.334a.11.11 0 0 0 .024.112c.033.033.045.017.045-.066 0-.125-.029-.146-.069-.046m-1.301 2.798a.046.046 0 0 0 .046.042c.021 0 .029-.021.017-.042s-.034-.041-.046-.041q-.018.002-.017.041m.021-.44c-.112-.029-.137-.079-.05-.112.025-.013.009-.025-.037-.025-.121 0-.2.1-.133.154s.324.1.324.054c0-.025-.046-.054-.104-.071m1.623-.826a.31.31 0 0 0 .142.311c.07.037.083.033.083-.042a.6.6 0 0 0-.063-.207q-.105-.206-.162-.062m.025-1.681c.021 0 .025-.021.013-.042s.021-.041.079-.041.108-.021.108-.042c0-.046-.262-.058-.3-.012-.037.029.042.137.1.137m-.515 2.602a.17.17 0 0 0 .013.2c.07.045.132-.021.078-.087-.037-.046-.029-.059.042-.059.045 0 .086-.02.086-.041-.003-.046-.18-.058-.219-.013m.964-1.519c0 .045.021.07.042.058a.11.11 0 0 0 .041-.088c0-.033-.017-.058-.041-.058s-.042.038-.042.088m-.241 1.773c-.166.021-.27-.083-.216-.22s.037-.129-.062-.021a.24.24 0 0 1-.133.083c-.1 0 .016.158.17.228.17.079.332.071.349-.024.008-.05-.017-.063-.108-.046m-1.918-.656c0 .054.029.083.075.083a.2.2 0 0 1 .12.045c.05.05.179.025.179-.037 0-.017-.083-.062-.187-.1-.183-.07-.187-.066-.187.009m2.325-.075c0 .087.054.095.121.017.033-.042.033-.067-.009-.1-.066-.058-.112-.026-.112.083"/></svg>