<svg xmlns="http://www.w3.org/2000/svg" viewBox="0 0 24 24"><path fill="#44739e" d="M20.785 21.065h-1.028V3.028h1.028Zm-1.215 0h-.28V3.028h.28Zm-.467 0h-5.701v-1.588h5.701Zm-5.982 0h-1.028V3.028h1.122Zm5.982-1.869H17.14v-3.551h1.963Zm-2.243 0h-3.458v-3.551h3.458Zm2.243-3.832H17.14v-3.551h1.963Zm-2.243 0h-3.458v-3.551h3.458Zm2.243-3.925H17.14V7.981h1.963Zm-2.243 0h-3.458V7.981h3.458Zm2.243-3.832H17.14V4.056h1.963Zm-2.243 0h-3.458V4.056h3.458Zm2.149-3.738h-5.701v-.841h5.701Zm-1.775.374v3.271h1.588V4.243Zm0 3.832v3.271h1.588V8.075Zm0 3.925v3.271h1.588V12Zm0 3.832v3.271h1.588v-3.271Zm2.523 5.233h1.028V3.028H12v18.037ZM22 21.72H2v-.748h8.785V2.28H22Z"/></svg>