<svg xmlns="http://www.w3.org/2000/svg"  fill="#44739e"  width="32.026" height="32.026" viewBox="0 0 576 576">
  <path id="Colore_riempimento_1" data-name="Colore riempimento 1" class="cls-1" d="M100,87H433c15.661,0,34.418-.825,47,2,2.279,3.427,6.481,5.975,8,10,2.481,6.574,1,17.783,1,26V397c0,29.435,7.912,85.665-15,92H179c-24.655,0-83.971,6.281-90-11-3.534-4.7-2-17.1-2-25V100C89.213,93.135,95.4,91.4,100,87Zm1,6c-2.519,2.637-5.364,5.479-8,8V435c0,13.6-1.267,30.092,1,42,16.729,10.87,77.517,6,106,6H379c31.715,0,67.046,2.438,97-1,2.213-2.945,5.835-4.979,7-9V194c0-30.508,4.063-69.1-2-96-9.981-6.249-21.624-5-38-5H101ZM285,255c42.7,0.611,46.132,55.733,9,65-24.868,6.206-45.424-22.243-37-44,2.47-6.378,10.839-15.283,17-18C277.6,256.411,281.924,256.94,285,255Zm-4,7c-8.1,6.009-15.99,7.863-19,19-5.806,21.482,15.356,39.488,35,32C323.727,302.812,320.1,260.717,281,262Zm5,10c2.076,0.372,1.924.242,3,1,2.5,3.839,1.132,15.225,1,21h-1v1h-3V272Zm-4,11c-0.646,5.621-2.151,8.087-1,14,2.84,1.332,4.156,2.409,8,3a19.54,19.54,0,0,1,4-2c3.392-5.721,1.8-7.424,1-15h2c1.133,1.546,1.085.843,2,3,1.791,2.226,2,4.8,2,9-2.665,2.867-2.716,5.487-7,7-2.069,1.664-4.155,1.91-8,2-3.319-2.8-5.967-5.076-9-8C275.576,288.509,275.714,284.1,282,283Z"/>
</svg>
