<svg xmlns="http://www.w3.org/2000/svg" viewBox="0 0 24 24"><path fill="#44739e" d="M12.379 13.807a.99.99 0 1 0 .99-.99.99.99 0 0 0-.99.99m1.82 0a.83.83 0 1 1-.83-.83.83.83 0 0 1 .826.83Zm-1.282-1.417a1.467 1.467 0 0 0 .213 2.919 2 2 0 0 0 .213-.015 1.468 1.468 0 1 0-.426-2.9Zm.213 2.7a1.247 1.247 0 0 1-.181-2.481 1 1 0 0 1 .181-.013 1.247 1.247 0 0 1 .181 2.481 1 1 0 0 1-.181.012Zm4.515 1.035a3.4 3.4 0 0 0-1.524-.734q-.078-.016-.078.064v.03a.33.33 0 0 1-.288.312h-.38a.5.5 0 0 1-.488-.688c1.374-4.9-.162-7.93-2.1-9.625-.526-.46-.574-.486-1.1-.466a7 7 0 0 0-1.308.166c-.08.02-.148.084-.042.172a9.15 9.15 0 0 1 2.96 4.529c.022.078-.024.072-.084.076a1 1 0 0 1-.94-.536A13.7 13.7 0 0 0 8.456 6.2c-.108-.064-.126-.064-.208-.016A6 6 0 0 0 6.98 7.2c-.072.078-.054.114.026.156a12.7 12.7 0 0 1 3.855 3.314c.086.108.092.158.044.188a1.18 1.18 0 0 1-1.2-.146A15.5 15.5 0 0 0 5.996 9c-.112-.032-.132-.026-.178.07a7.6 7.6 0 0 0-.636 1.842c-.012.08-.02.086.054.1 2.888.586 4.471 2.17 4.651 4.288a.617.617 0 0 1-.8.59c-.448-.142-.883-.3-1.333-.444a.4.4 0 0 0-.148-.022h-1.86c-.082 0-.132.052-.05.156a13 13 0 0 1 1.072 1.484.14.14 0 0 0 .14.08h.688a.46.46 0 0 0 .248-.068c.248-.146.5-.282.744-.428a.45.45 0 0 1 .237-.074h6.926a.34.34 0 0 1 .292.312v.05q0 .08.078.064a3.5 3.5 0 0 0 1.524-.774q.06-.05 0-.101m-3.337-1.406a1.46 1.46 0 0 1-.965.575 2 2 0 0 1-.213.015 1.468 1.468 0 1 1 1.178-.59m4.023 1.187-.027-.029h-.009a4.3 4.3 0 0 0-2.245-1.1.287.287 0 0 0-.327.237.2.2 0 0 0 0 .046v.3c0 .047-.038.1-.07.1h-.2a.13.13 0 0 1-.108-.053.37.37 0 0 1-.037-.293 13.6 13.6 0 0 0 .617-3.679 8.1 8.1 0 0 0-.409-2.8l-.021-.057a7.5 7.5 0 0 0-2.454-3.667.72.72 0 0 0-.454-.2 7 7 0 0 0-.5-.018 7.4 7.4 0 0 0-2.124.31c-.173.053-.227.147-.241.216a.32.32 0 0 0 .134.3 10 10 0 0 1 2.083 2.326 1.25 1.25 0 0 1-.726-.4 12 12 0 0 0-2.4-1.749.44.44 0 0 0-.443-.025 6.7 6.7 0 0 0-1.88 1.577.25.25 0 0 0-.07.211.28.28 0 0 0 .16.191 13.6 13.6 0 0 1 2.515 1.769 1.06 1.06 0 0 1-.743-.186 10.5 10.5 0 0 0-2.3-.869.39.39 0 0 0-.444.164 7 7 0 0 0-.813 2.39.38.38 0 0 0 .319.434c.973.17 3.933.689 4.388 3.834a.25.25 0 0 1-.093.242.28.28 0 0 1-.292.008l-.652-.306-.652-.306a.4.4 0 0 0-.187-.049H5.568a.39.39 0 0 0-.373.218.4.4 0 0 0 .083.427 12.7 12.7 0 0 1 1.324 1.819.23.23 0 0 0 .218.124h.9a.4.4 0 0 0 .212-.058l.422-.248.424-.249a.2.2 0 0 1 .108-.017h6.765c.012 0 .074 0 .074.06v.332a.287.287 0 0 0 .288.286h.044a4.3 4.3 0 0 0 2.262-1.111.32.32 0 0 0 .016-.449Zm-.14.318a4.1 4.1 0 0 1-2.165 1.064.1.1 0 0 1-.088-.025.1.1 0 0 1-.037-.08v-.332a.24.24 0 0 0-.254-.24H8.873a.34.34 0 0 0-.192.043l-.422.247-.424.249a.2.2 0 0 1-.119.033h-.9a.06.06 0 0 1-.063-.036 13 13 0 0 0-1.34-1.847.22.22 0 0 1-.054-.235.22.22 0 0 1 .209-.112H7.62a.3.3 0 0 1 .11.032l.653.306.652.306a.45.45 0 0 0 .475-.027.43.43 0 0 0 .164-.412 4.18 4.18 0 0 0-1.887-3.038 7.1 7.1 0 0 0-2.648-.948.2.2 0 0 1-.172-.229 6.8 6.8 0 0 1 .791-2.327.21.21 0 0 1 .243-.08 10.3 10.3 0 0 1 2.265.855c.499.26.819.294 1.037.111l.079-.067-.077-.067a13.7 13.7 0 0 0-2.64-1.876c-.046-.025-.065-.05-.068-.065s.017-.047.029-.061a6.6 6.6 0 0 1 1.841-1.529.26.26 0 0 1 .266.026 11.7 11.7 0 0 1 2.362 1.723 1.3 1.3 0 0 0 1.017.446l.139-.013-.07-.121a10 10 0 0 0-2.2-2.507.17.17 0 0 1-.075-.13c.006-.031.049-.06.117-.081a7.3 7.3 0 0 1 2.072-.3c.162 0 .3 0 .483.018a.53.53 0 0 1 .347.149 7.26 7.26 0 0 1 2.4 3.592l.022.063a7.9 7.9 0 0 1 .4 2.748 13.5 13.5 0 0 1-.611 3.63.55.55 0 0 0 .067.448.3.3 0 0 0 .247.125h.2a.276.276 0 0 0 .25-.282v-.321a.11.11 0 0 1 .123-.09 4.1 4.1 0 0 1 2.172 1.064l.017.014a.14.14 0 0 1 .028.089.14.14 0 0 1-.045.097Zm-.274-10.145A8.371 8.371 0 1 0 20.369 12a8.32 8.32 0 0 0-2.452-5.921m-5.922 14.032a8.111 8.111 0 1 1 5.738-2.376 8.06 8.06 0 0 1-5.738 2.376m7.034-15.193a9.9 9.9 0 0 0-7.034-2.899h-.037a9.981 9.981 0 0 0-6.999 17.063 9.9 9.9 0 0 0 7.029 2.899h.037a9.982 9.982 0 0 0 7-17.063Zm-7.034 15.871A8.791 8.791 0 0 1 5.779 5.78a8.791 8.791 0 0 1 12.433 12.434 8.73 8.73 0 0 1-6.217 2.575m7.047-15.888a9.999 9.999 0 1 0-7.047 17.098h.037a9.999 9.999 0 0 0 7.01-17.098m-7.047 17.08A9.982 9.982 0 0 1 4.914 4.966a9.92 9.92 0 0 1 7.047-2.947h.034a9.981 9.981 0 0 1 .031 19.962Z"/></svg>