<?xml version="1.0" standalone="no"?>
<!DOCTYPE svg PUBLIC "-//W3C//DTD SVG 20010904//EN"
 "http://www.w3.org/TR/2001/REC-SVG-20010904/DTD/svg10.dtd">
<svg version="1.0" xmlns="http://www.w3.org/2000/svg"
 width="42px" height="42px" viewBox="0 0 80.000000 80.000000"
 preserveAspectRatio="xMidYMid meet">

<g transform="translate(0.000000,80.000000) scale(0.100000,-0.100000)"
fill="#000000" stroke="none">
<path d="M172 488 c-7 -7 -12 -29 -12 -50 l0 -38 240 0 240 0 0 38 c0 21 -5
43 -12 50 -17 17 -439 17 -456 0z m253 -38 c0 -18 -6 -26 -23 -28 -13 -2 -25
3 -28 12 -10 26 4 48 28 44 17 -2 23 -10 23 -28z m135 0 c0 -5 -4 -10 -10 -10
-5 0 -10 5 -10 10 0 6 5 10 10 10 6 0 10 -4 10 -10z"/>
<path d="M170 359 c7 -11 25 -25 41 -31 16 -5 29 -14 29 -19 0 -5 14 -9 30 -9
17 0 30 5 30 10 0 6 40 10 100 10 60 0 100 -4 100 -10 0 -5 14 -10 30 -10 17
0 30 4 30 9 0 5 13 14 29 19 16 6 34 20 41 31 11 21 11 21 -230 21 -241 0
-241 0 -230 -21z"/>
</g>
</svg>
