<svg xmlns="http://www.w3.org/2000/svg" viewBox="0 0 24 24"><path fill="#44739e" d="M17.538 15.928a3.9 3.9 0 0 1-1.882-.765c-.245-.183-.516-.438-.508-.48.004-.019.06-.045.155-.071.083-.023.189-.065.236-.092.27-.159.485-.458.587-.816.051-.177.051-.522.001-.74-.116-.502-.336-.786-.993-1.276-.425-.318-.597-.488-.696-.688-.063-.126-.068-.15-.069-.323 0-.171.004-.196.058-.294.083-.15.19-.222.33-.22.16 0 .26.066.335.213.047.092.09.294.09.42 0 .06.012.119.024.132.038.038.75.033.781-.005.043-.053-.01-.561-.086-.816a1.3 1.3 0 0 0-.208-.409 1 1 0 0 0-.417-.288c-.168-.054-.175-.072-.073-.178.396-.41.907-.74 1.462-.946a4.03 4.03 0 0 1 3.758.545c.197.146.511.449.511.491 0 .024-.034.047-.113.076-.326.119-.558.364-.77.813-.137.29-.219.579-.288 1.01-.05.31-.05 1.34 0 1.634.078.456.213.857.394 1.167.044.075.155.215.245.311.134.139.196.187.324.252.087.043.167.087.178.097.043.043-.427.456-.753.661a4.3 4.3 0 0 1-1.265.526 4.5 4.5 0 0 1-1.348.059m-.137-2.39c.007-.737.016-1.1.03-1.114q.02-.021.491-.016l.471.006.005 1.087c.004.774.011 1.096.027 1.115.018.021.108.026.446.022l.424-.006V9.49l-.43-.006c-.331-.004-.434 0-.446.02-.01.014-.016.476-.016 1.027 0 .752-.006 1.007-.024 1.025-.017.017-.15.024-.47.024-.39 0-.448-.004-.472-.033-.021-.026-.028-.226-.036-1.045l-.01-1.012h-.844l-.005 2.55a182 182 0 0 0 .004 2.578c.007.02.103.024.427.02l.417-.006Zm-7.095 1.988c-.192-.026-.304-.076-.304-.134 0-.017.203-.46.452-.984a27 27 0 0 0 .451-.981c0-.024-.048-.104-.266-.44l-.302-.475c-.813-1.288-.94-1.482-.972-1.482-.014 0-.135.117-.268.26s-.333.355-.444.471a1.7 1.7 0 0 0-.201.234c0 .02.192.312 1.053 1.607.133.2.242.375.242.387 0 .071-.286.132-.618.131-.283 0-.398-.026-.573-.126-.162-.093-.275-.227-.536-.638l-.645-1.016a5 5 0 0 1-.258-.435c0-.03.085-.132.391-.466l.51-.556c.71-.774.8-.85 1.126-.952.16-.05.63-.055.791-.008l.106.03.183.298c.102.164.282.457.4.652.686 1.119.786 1.275.821 1.275.029 0 .111-.176.406-.872.203-.479.396-.913.428-.963a1.4 1.4 0 0 1 .344-.339c.093-.048.297-.095.418-.096.183-.002.47.067.503.12.01.017-.308.758-.565 1.317-.037.08-.096.213-.131.293-.036.081-.094.212-.131.29l-.142.314-.218.486a290 290 0 0 0-.913 2.044c-.21.47-.319.61-.556.715-.1.045-.396.064-.582.039M3.32 14.117a20 20 0 0 1-1.092-.078q-.165-.032-.114-.412c.042-.316.187-.5.445-.565.152-.038.227-.038.707.001.504.04.88.03 1.01-.027.094-.042.172-.136.172-.206a.3.3 0 0 0-.029-.092c-.052-.102-.192-.15-.746-.255-.71-.136-.76-.149-.989-.26a1.14 1.14 0 0 1-.568-.547c-.328-.68.066-1.454.857-1.684.303-.088.496-.104 1.117-.094.33.005.712.023.878.04.38.04.372.034.358.336-.013.272-.05.379-.181.514a.4.4 0 0 1-.216.135c-.11.032-.16.033-.698.01a9 9 0 0 0-.697-.012c-.29.034-.435.127-.413.264a.18.18 0 0 0 .056.104c.054.041.26.114.324.114.026 0 .101.013.168.028.111.026.278.058.593.113.193.034.515.13.634.19.448.227.678.59.677 1.072-.002.717-.495 1.185-1.35 1.283a8 8 0 0 1-.903.028m2.705.001c-.035-.005-.072-.02-.084-.035-.015-.018-.02-.747-.016-2.555.006-2.904-.011-2.652.19-2.854.163-.163.289-.204.621-.205.19 0 .266.007.29.027.03.025.032.226.032 2.592 0 2.75.003 2.665-.097 2.806-.057.08-.19.155-.333.189-.124.029-.497.05-.603.035m8.647-.337c-.296-.188-.503-.687-.567-1.367-.03-.307-.027-.44.007-.454.016-.006.09.039.171.105.08.064.224.172.32.241.419.298.527.403.64.614.063.116.066.13.066.337 0 .24-.029.327-.153.458a.33.33 0 0 1-.282.121.3.3 0 0 1-.203-.055Zm6.513-.011a.44.44 0 0 1-.233-.175c-.148-.202-.24-.46-.315-.884-.057-.325-.062-1.092-.009-1.406.114-.667.32-1.039.605-1.088.387-.067.684.535.76 1.54a4.2 4.2 0 0 1-.115 1.255c-.09.337-.276.653-.434.736a.33.33 0 0 1-.26.022"/></svg>