<svg xmlns="http://www.w3.org/2000/svg" viewBox="0 0 24 24"><path fill="#44739e" d="M12.072 10.106c-.562 0-.667.114-1.128 1.219-.365.879-.362.873-.425.8a80 80 0 0 1-1.132-1.818.37.37 0 0 0-.251-.214 1.4 1.4 0 0 0-.701.014 1.6 1.6 0 0 0-.3.136 17 17 0 0 0-1.501 1.601c-.031.068-.023.121.037.239.112.217.928 1.488 1.027 1.601a1.04 1.04 0 0 0 .723.274.97.97 0 0 0 .562-.116 17 17 0 0 0-1.046-1.635.4.4 0 0 1-.091-.176 4.3 4.3 0 0 1 .815-.873 21 21 0 0 1 1.353 2.165 7 7 0 0 1-.388.909c-.211.449-.385.84-.385.868 0 .119.444.2.713.135.3-.075.391-.205.784-1.084.423-.945 1.274-2.832 1.413-3.13.315-.68.349-.78.283-.847-.043-.05-.143-.068-.362-.068m-4.483 2.076a4 4 0 0 1-.432.031c-.156 0-.216 0-.265-.043a.3.3 0 0 1-.054-.057.5.5 0 0 1-.072-.121c-.009-.028-.006-.047.014-.047a.2.2 0 0 1 .069.061.1.1 0 0 0 .039.027c.046.03.132.038.346.033a1.5 1.5 0 0 1 .442.039l.113.048Zm2.687-.1a4 4 0 0 1-.388.033c-.356.02-.38.016-.474-.071a.3.3 0 0 1-.1-.132q0-.044.028-.035a.2.2 0 0 1 .071.053c.045.043.152.058.44.058a1 1 0 0 1 .407.041c.021.02.026.043.02.05Zm1.338-.283c.007.005.008.029 0 .063a.24.24 0 0 1-.129.164.4.4 0 0 1-.083.019l-.046.01h-.207c-.246 0-.324-.012-.311-.048s.132-.055.355-.068c.268-.015.346-.033.375-.087.021-.037.046-.068.055-.068ZM6.09 8.758a.57.57 0 0 0-.432.311 12 12 0 0 0-.06 2.451 19 19 0 0 0 .042 2.361 1.1 1.1 0 0 0 .666-.018c.349-.119.33.036.33-2.668a13.6 13.6 0 0 0-.053-2.409.62.62 0 0 0-.493-.028m.34 3.412c-.076.076-.7.085-.671.01.01-.032.143-.063.35-.084a1.6 1.6 0 0 0 .283-.043.07.07 0 0 0 .057-.069v-.009q-.002-.035.007-.029a.2.2 0 0 1 .014.058.2.2 0 0 1-.044.166Zm-2.66-.599a4 4 0 0 1-.589-.138c-.158-.068-.166-.183-.021-.277.092-.06.19-.068.8-.059.81.011.9-.013 1.03-.278a.77.77 0 0 0 .031-.6A6.7 6.7 0 0 0 3.72 10.1a4 4 0 0 0-.5.039 1.4 1.4 0 0 0-1.113.7.9.9 0 0 0-.1.491.67.67 0 0 0 .11.475c.25.394.508.53 1.284.675.3.055.594.119.657.141a.2.2 0 0 1 .142.244v.018c-.044.137-.241.165-.976.139-.621-.024-.701-.018-.824.045-.247.129-.409.643-.252.8a3.5 3.5 0 0 0 1.336.121 2.03 2.03 0 0 0 1.311-.257 1.114 1.114 0 0 0 .383-1.434c-.169-.385-.525-.568-1.408-.726m1.23.825a1.7 1.7 0 0 0-.35-.054 1.6 1.6 0 0 0-.356.021 5.5 5.5 0 0 1-.89-.017 2.1 2.1 0 0 1-.754-.193q-.01-.015.022-.013a.3.3 0 0 1 .077.019 10 10 0 0 0 1.201.059l1.074.017.057.111.055.1v.006Zm14.309-2.104a2.26 2.26 0 0 0-1.331-.44 2.3 2.3 0 0 0-.478.049 2.2 2.2 0 0 0-1.507 1.184 2.08 2.08 0 0 0 .4 2.455 2.18 2.18 0 0 0 2.527.447c.331-.164.395-.211.395-.291a1.8 1.8 0 0 0-.283-.426 4 4 0 0 1-.309-.421q-.02-.055.006-.065c.047-.02.212.078.48.288a1.8 1.8 0 0 0 .449.29c.055 0 .118-.07.212-.23a2.13 2.13 0 0 0-.563-2.839Zm-1.395 1.579c-1.573.052-2.076.05-1.928-.017a1 1 0 0 1 .1-.033 37 37 0 0 1 3.925-.086c.004.06-.17.072-2.097.136m4.085-.553V8.906a.6.6 0 0 0-.577-.56H14.53a.53.53 0 0 0-.54.524l.021 6.261a.53.53 0 0 0 .54.523h6.904a.53.53 0 0 0 .54-.524v-3.655l-.157.132c-.114.106-.14.112-.514.125-.317.01-.391 0-.378-.038s.109-.055.294-.06a.88.88 0 0 0 .76-.316m-7.147.607a.13.13 0 0 1-.067.015h-.016c-.06 0-.243.011-.406.025a2 2 0 0 1-.228.01c-.049 0-.072-.013-.072-.03q0-.058.125-.088a2 2 0 0 1 .333-.029h.058c.177 0 .257.006.283.028a.03.03 0 0 1 .013.027.04.04 0 0 1-.023.041Zm5.619 2.361a2 2 0 0 1 .277.417c-.033.1-.16.052-.442-.162a2 2 0 0 0-.474-.324h-.022c-.076-.009-.136.035-.27.121a3.4 3.4 0 0 1-1.055.43 3.7 3.7 0 0 1-1.4-.08 2.89 2.89 0 0 1-1.901-1.935 3 3 0 0 1 0-1.507 2.88 2.88 0 0 1 2.047-1.978 3.46 3.46 0 0 1 1.613.058 2.91 2.91 0 0 1 1.874 1.959 3.1 3.1 0 0 1 0 1.41 3.2 3.2 0 0 1-.467.969.3.3 0 0 0-.072.153v.007a2 2 0 0 0 .292.46ZM7.35 12.113c-.214 0-.3 0-.345-.033a.1.1 0 0 1-.027-.023.2.2 0 0 0-.069-.061c-.02 0-.023.019-.014.047a.5.5 0 0 0 .072.121.3.3 0 0 0 .055.057c.049.038.108.043.264.043a4 4 0 0 0 .432-.031l.192-.03-.121-.05a1.5 1.5 0 0 0-.439-.039"/></svg>