<?xml version="1.0" encoding="UTF-8"?>
<svg width="24px" fill="#44739e" height="24px" viewBox="0 0 24 24" version="1.1" xmlns="http://www.w3.org/2000/svg" xmlns:xlink="http://www.w3.org/1999/xlink">
            <path d="m 12.16,10.524 c -0.562,0 -0.667,0.114 -1.127,1.218 -0.365,0.879 -0.362,0.873 -0.425,0.8 C 10.564,12.489 9.7359999,11.16 9.4759999,10.725 a 0.374,0.374 0 0 0 -0.251,-0.214 1.384,1.384 0 0 0 -0.6999999,0.014 1.617,1.617 0 0 0 -0.3,0.136 16.691,16.691 0 0 0 -1.5,1.6 c -0.031,0.068 -0.023,0.121 0.037,0.239 0.112,0.217 0.927,1.487 1.026,1.6 A 1.04,1.04 0 0 0 8.511,14.374 0.97,0.97 0 0 0 9.0719999,14.258 17.01,17.01 0 0 0 8.027,12.624 0.4,0.4 0 0 1 7.936,12.448 4.3,4.3 0 0 1 8.7509999,11.575 21.105,21.105 0 0 1 10.103,13.739 7.2,7.2 0 0 1 9.7149999,14.648 c -0.211,0.449 -0.385,0.839 -0.385,0.867 0,0.119 0.444,0.2 0.7130001,0.135 0.3,-0.075 0.391,-0.205 0.784,-1.083 0.422,-0.945 1.273,-2.831 1.412,-3.129 0.315,-0.679 0.349,-0.779 0.283,-0.846 -0.043,-0.05 -0.143,-0.068 -0.362,-0.068 z M 7.679,12.599 A 4.142,4.142 0 0 1 7.247,12.63 c -0.156,0 -0.215,0 -0.264,-0.043 A 0.3,0.3 0 0 1 6.929,12.53 0.448,0.448 0 0 1 6.857,12.409 v 0 C 6.848,12.381 6.851,12.362 6.871,12.362 v 0 a 0.165,0.165 0 0 1 0.069,0.061 0.1,0.1 0 0 0 0.039,0.027 c 0.046,0.03 0.131,0.038 0.345,0.033 a 1.494,1.494 0 0 1 0.442,0.039 l 0.113,0.048 z m 2.686,-0.1 v 0 c -0.007,0.006 -0.182,0.021 -0.3880001,0.033 -0.356,0.02 -0.38,0.016 -0.474,-0.071 a 0.308,0.308 0 0 1 -0.1,-0.132 c 0,-0.03 0.01,-0.04 0.028,-0.035 a 0.169,0.169 0 0 1 0.071,0.053 c 0.045,0.043 0.152,0.058 0.44,0.058 A 1.017,1.017 0 0 1 10.349,12.446 c 0.021,0.02 0.026,0.043 0.02,0.05 z m 1.337,-0.283 c 0.007,0.005 0.008,0.029 0,0.063 v 0 a 0.239,0.239 0 0 1 -0.129,0.164 0.425,0.425 0 0 1 -0.083,0.019 0.457,0.457 0 0 1 -0.046,0.01 c -0.038,0 -0.092,0 -0.143,0 h -0.064 v 0 c -0.245,0 -0.323,-0.012 -0.31,-0.048 0.013,-0.036 0.132,-0.055 0.354,-0.068 0.268,-0.015 0.346,-0.033 0.375,-0.087 0.021,-0.037 0.046,-0.068 0.055,-0.068 z M 6.1805606,9.1772426 a 0.572,0.572 0 0 0 -0.432,0.309 11.955,11.955 0 0 0 -0.06,2.4509994 18.952,18.952 0 0 0 0.042,2.359 1.09,1.09 0 0 0 0.666,-0.017 c 0.349,-0.119 0.331,0.036 0.331,-2.667 a 13.628,13.628 0 0 0 -0.054,-2.4069994 0.622,0.622 0 0 0 -0.493,-0.028 z m 0.341,3.4099994 c -0.077,0.076 -0.7,0.085 -0.672,0.009 v 0 c 0.01,-0.031 0.143,-0.062 0.35,-0.083 a 1.607,1.607 0 0 0 0.283,-0.043 0.071,0.071 0 0 0 0.057,-0.069 v -0.009 c 0,-0.022 0,-0.034 0.007,-0.029 a 0.188,0.188 0 0 1 0.014,0.058 v 0 a 0.209,0.209 0 0 1 -0.044,0.166 z M 3.862,11.988 A 4.266,4.266 0 0 1 3.273,11.85 C 3.115,11.782 3.107,11.667 3.252,11.573 c 0.092,-0.06 0.19,-0.068 0.8,-0.059 0.81,0.011 0.9,-0.013 1.029,-0.277 a 0.766,0.766 0 0 0 0.031,-0.6 6.663,6.663 0 0 0 -1.3,-0.119 4.289,4.289 0 0 0 -0.5,0.039 1.4,1.4 0 0 0 -1.112,0.7 0.9,0.9 0 0 0 -0.1,0.49 0.672,0.672 0 0 0 0.11,0.475 c 0.25,0.394 0.508,0.53 1.283,0.675 0.3,0.055 0.594,0.119 0.657,0.141 a 0.2,0.2 0 0 1 0.142,0.244 V 13.3 c -0.044,0.136 -0.241,0.164 -0.976,0.138 -0.62,-0.023 -0.7,-0.018 -0.823,0.045 -0.247,0.129 -0.409,0.643 -0.252,0.8 a 3.54,3.54 0 0 0 1.335,0.121 2.029,2.029 0 0 0 1.311,-0.257 1.113,1.113 0 0 0 0.382,-1.433 C 5.1,12.329 4.745,12.146 3.862,11.988 Z m 1.229,0.825 A 1.657,1.657 0 0 0 4.742,12.759 1.634,1.634 0 0 0 4.386,12.78 v 0 A 5.513,5.513 0 0 1 3.496,12.763 2.089,2.089 0 0 1 2.743,12.57 c -0.007,-0.01 0,-0.014 0.022,-0.013 a 0.281,0.281 0 0 1 0.077,0.019 10.254,10.254 0 0 0 1.2,0.059 l 1.073,0.017 0.057,0.111 0.055,0.1 v 0.006 z m 14.301965,-2.103457 a 2.263,2.263 0 0 0 -1.33,-0.44 2.336,2.336 0 0 0 -0.478,0.049 2.2,2.2 0 0 0 -1.506,1.183 2.076,2.076 0 0 0 0.4,2.454 2.184,2.184 0 0 0 2.526,0.447 c 0.33,-0.164 0.394,-0.211 0.394,-0.291 a 1.756,1.756 0 0 0 -0.283,-0.426 3.836,3.836 0 0 1 -0.308,-0.42 c -0.014,-0.037 -0.011,-0.058 0.006,-0.065 0.047,-0.02 0.212,0.078 0.479,0.287 a 1.836,1.836 0 0 0 0.449,0.29 v 0 c 0.055,0 0.118,-0.07 0.212,-0.229 a 2.127,2.127 0 0 0 -0.563,-2.838 z m -1.394,1.578 c -1.572,0.052 -2.075,0.05 -1.927,-0.017 a 0.881,0.881 0 0 1 0.1,-0.033 36.942,36.942 0 0 1 3.923,-0.086 c 0.004,0.061 -0.17,0.072 -2.096,0.136 z m 4.083509,-0.552491 V 9.3250515 a 0.6,0.6 0 0 0 -0.577,-0.56 h -6.888 a 0.532,0.532 0 0 0 -0.54,0.524 v 0 l 0.021,6.2569995 a 0.532,0.532 0 0 0 0.54,0.523 h 6.9 a 0.531,0.531 0 0 0 0.54,-0.523999 v -3.653001 l -0.157,0.132 c -0.114,0.106 -0.14,0.112 -0.514,0.125 -0.317,0.01 -0.391,0 -0.377,-0.038 0.014,-0.038 0.108,-0.055 0.293,-0.061 a 0.882,0.882 0 0 0 0.759,-0.314999 z m -7.143,0.607 a 0.128,0.128 0 0 1 -0.067,0.015 h -0.016 c -0.06,0 -0.243,0.011 -0.406,0.025 a 1.725,1.725 0 0 1 -0.228,0.009 c -0.049,0 -0.072,-0.012 -0.072,-0.029 0,-0.039 0.042,-0.068 0.125,-0.088 a 1.82,1.82 0 0 1 0.333,-0.029 h 0.058 c 0.177,0 0.257,0.006 0.283,0.028 a 0.032,0.032 0 0 1 0.013,0.027 0.044,0.044 0 0 1 -0.023,0.041 z m 5.616,2.359 v 0 a 2.077,2.077 0 0 1 0.277,0.418 v 0 c -0.033,0.1 -0.16,0.052 -0.442,-0.162 a 2.136,2.136 0 0 0 -0.474,-0.324 c -0.008,0 -0.015,0 -0.022,0 -0.076,-0.009 -0.136,0.035 -0.27,0.121 a 3.354,3.354 0 0 1 -1.054,0.429 3.71,3.71 0 0 1 -1.4,-0.079 2.891,2.891 0 0 1 -1.9,-1.934 3.005,3.005 0 0 1 0,-1.507 v 0 a 2.877,2.877 0 0 1 2.046,-1.9770005 3.464,3.464 0 0 1 1.613,0.058 2.909,2.909 0 0 1 1.873,1.9580005 3.132,3.132 0 0 1 0,1.409 v 0 a 3.159,3.159 0 0 1 -0.467,0.969 0.291,0.291 0 0 0 -0.072,0.153 v 0.007 a 1.878,1.878 0 0 0 0.292,0.46 z M 7.44,12.531 c -0.214,0 -0.3,0 -0.345,-0.033 A 0.1,0.1 0 0 1 7.068,12.475 0.165,0.165 0 0 0 7,12.414 v 0 c -0.02,0 -0.023,0.019 -0.014,0.047 v 0 a 0.448,0.448 0 0 0 0.072,0.121 0.3,0.3 0 0 0 0.054,0.057 c 0.049,0.038 0.108,0.043 0.264,0.043 A 4.142,4.142 0 0 0 7.808,12.651 L 8,12.62 7.879,12.57 A 1.494,1.494 0 0 0 7.44,12.531 Z"/>

</svg>