<?xml version="1.0" encoding="UTF-8"?>
<svg width="24px" fill="#44739e" height="24px" viewBox="0 0 24 24" version="1.1" xmlns="http://www.w3.org/2000/svg" xmlns:xlink="http://www.w3.org/1999/xlink">
            <path d="M 9.786,12.619 C 9.748,12.476 9.67,12.388 9.407,12.198 9.307,12.127 9.197,12.043 9.16,12.011 a 0.782,0.782 0 0 0 -0.074,-0.057 0.19,0.19 0 0 0 -0.005,0.062 1.908,1.908 0 0 0 0.182,0.846 0.553,0.553 0 0 0 0.183,0.191 C 9.662,13.155 9.86,12.9 9.786,12.619 Z M 13.2,10.98 a 0.379,0.379 0 0 0 -0.168,0.2 1.7,1.7 0 0 0 -0.141,0.73 2.01,2.01 0 0 0 0.148,0.921 c 0.084,0.172 0.213,0.25 0.333,0.2 a 0.559,0.559 0 0 0 0.226,-0.314 2.366,2.366 0 0 0 0.034,-1.326 C 13.544,11.039 13.385,10.889 13.2,10.98 Z M 3.7,11.85 A 2.07,2.07 0 0 0 3.108,11.694 C 2.931,11.661 2.767,11.626 2.743,11.615 2.588,11.548 2.63,11.415 2.819,11.373 a 3.1,3.1 0 0 1 0.57,0 0.885,0.885 0 0 0 0.3,0 0.329,0.329 0 0 0 0.252,-0.324 0.6,0.6 0 0 0 -0.009,-0.219 3.111,3.111 0 0 0 -0.467,-0.053 5.638,5.638 0 0 0 -0.625,0 0.824,0.824 0 0 0 -0.824,0.6 0.683,0.683 0 0 0 0.5,0.807 c 0.044,0.014 0.221,0.053 0.394,0.086 0.173,0.033 0.332,0.065 0.354,0.071 0.181,0.049 0.226,0.187 0.085,0.264 -0.081,0.044 -0.18,0.05 -0.5,0.031 a 2.084,2.084 0 0 0 -0.556,0 0.321,0.321 0 0 0 -0.21,0.229 0.846,0.846 0 0 0 -0.007,0.315 0.261,0.261 0 0 0 0.09,0.021 6.415,6.415 0 0 0 1.145,0.025 c 0.48,-0.065 0.745,-0.3 0.775,-0.7 A 0.669,0.669 0 0 0 3.7,11.85 Z m 17.945,1.204 H 21.29 v -0.4 -0.4 H 21.545 21.8 L 21.798,12.006 21.795,11.759 21.543,11.756 21.29,11.754 v -0.365 -0.365 h 0.34 0.34 v -0.235 -0.235 h -0.61 -0.61 v 1.485 1.485 H 21.375 22 V 13.289 13.054 Z M 8.326,10.793 A 0.558,0.558 0 0 0 8,11.059 c -0.017,0.033 -0.126,0.284 -0.242,0.559 -0.116,0.275 -0.215,0.5 -0.219,0.513 -0.004,0.013 0.041,0.1 -0.431,-0.672 -0.216,-0.352 -0.4,-0.646 -0.405,-0.653 a 0.949,0.949 0 0 0 -0.4,-0.041 0.719,0.719 0 0 0 -0.4,0.181 c -0.095,0.081 -0.914,0.98 -0.91,1 0.004,0.02 0.152,0.249 0.333,0.534 0.367,0.58 0.411,0.637 0.535,0.7 a 0.644,0.644 0 0 0 0.358,0.063 0.941,0.941 0 0 0 0.3,-0.052 c 0.012,0 0.022,-0.012 0.022,-0.017 0,-0.005 -0.173,-0.271 -0.386,-0.59 C 5.942,12.265 5.772,12 5.774,11.99 c 0.002,-0.01 0.125,-0.139 0.272,-0.295 0.218,-0.231 0.27,-0.28 0.28,-0.269 0.01,0.011 0.9,1.4 0.9,1.41 0,0.01 -0.122,0.266 -0.27,0.58 -0.148,0.314 -0.272,0.575 -0.273,0.581 -10e-4,0.006 0.13,0.058 0.236,0.07 a 0.468,0.468 0 0 0 0.49,-0.2 c 0.019,-0.029 0.335,-0.722 0.7,-1.541 0.513,-1.145 0.664,-1.49 0.654,-1.5 A 0.9,0.9 0 0 0 8.669,10.796 0.8,0.8 0 0 0 8.326,10.793 Z m 11.456,-0.239 -0.006,0.027 c 0,0.016 -0.058,0.343 -0.121,0.728 -0.063,0.385 -0.119,0.708 -0.123,0.718 -0.004,0.01 -0.057,-0.3 -0.121,-0.715 -0.064,-0.415 -0.116,-0.739 -0.119,-0.746 A 1.7,1.7 0 0 0 18.924,10.554 H 18.56 v 2.97 h 0.4 v -1.087 c 0,-0.6 0,-1.083 0.007,-1.079 0.007,0.004 0.088,0.491 0.188,1.084 l 0.181,1.077 h 0.151 c 0.137,0 0.151,0 0.155,-0.015 0.004,-0.015 0.083,-0.485 0.179,-1.056 L 20,11.412 v 1.056 1.056 h 0.248 0.247 v -2.96 h -0.357 z m -3.837,0.005 -0.092,0.72 c -0.125,0.983 -0.126,0.991 -0.129,0.98 -0.003,-0.011 -0.053,-0.375 -0.114,-0.82 -0.061,-0.445 -0.112,-0.827 -0.116,-0.848 l -0.006,-0.037 h -0.244 a 0.814,0.814 0 0 0 -0.249,0.012 c 0,0.007 -0.059,0.389 -0.125,0.848 -0.066,0.459 -0.123,0.846 -0.127,0.86 l -0.006,0.025 -0.008,-0.03 c 0,-0.017 -0.047,-0.39 -0.094,-0.83 -0.047,-0.44 -0.089,-0.819 -0.092,-0.843 L 14.537,10.554 H 14.05 v 0.026 c 0,0.022 0.369,2.8 0.386,2.906 l 0.006,0.038 h 0.239 c 0.131,0 0.239,0 0.239,0 0,0 0.261,-1.829 0.266,-1.857 l 0.007,-0.035 0.008,0.035 c 0,0.019 0.063,0.44 0.129,0.935 0.066,0.495 0.122,0.906 0.125,0.912 0.003,0.006 0.062,0.013 0.248,0.013 h 0.244 l 0.005,-0.033 c 0,-0.017 0.075,-0.58 0.159,-1.249 l 0.154,-1.218 h 0.455 v 2.5 h 0.54 v -2.5 h 0.49 v 2.5 h 0.56 v -2.97 H 17.128 Z M 4.658,9.934 A 0.4,0.4 0 0 0 4.369,10.095 C 4.3,10.2 4.3,10.1 4.3,11.75 v 1.482 l 0.084,0.007 a 1.236,1.236 0 0 0 0.37,-0.035 0.267,0.267 0 0 0 0.117,-0.067 c 0.092,-0.086 0.084,0.067 0.087,-1.664 A 11.865,11.865 0 0 0 4.943,9.939 1.27,1.27 0 0 0 4.658,9.934 Z m 8.015,3.308 a 2.045,2.045 0 0 1 -0.3,-1.124 2.056,2.056 0 0 1 0.422,-1.5 0.64,0.64 0 0 1 0.273,-0.16 c 0.023,0 0.042,-0.009 0.042,-0.013 a 0.785,0.785 0 0 0 -0.077,-0.087 2.293,2.293 0 0 0 -1.3,-0.649 3.015,3.015 0 0 0 -0.608,-0.01 2.356,2.356 0 0 0 -1.252,0.547 0.953,0.953 0 0 0 -0.2,0.2 c 0,0.005 0.018,0.012 0.041,0.016 a 0.708,0.708 0 0 1 0.243,0.126 0.936,0.936 0 0 1 0.242,0.686 l 0.007,0.123 H 9.721 V 11.329 A 0.864,0.864 0 0 0 9.686,11.09 0.262,0.262 0 0 0 9.564,10.94 a 0.3,0.3 0 0 0 -0.176,0 0.34,0.34 0 0 0 -0.139,0.346 c 0.036,0.192 0.129,0.3 0.462,0.542 a 1.352,1.352 0 0 1 0.49,0.513 0.842,0.842 0 0 1 0.1,0.41 0.65,0.65 0 0 1 -0.016,0.235 0.72,0.72 0 0 1 -0.539,0.557 0.124,0.124 0 0 0 -0.057,0.014 1.69,1.69 0 0 0 0.26,0.252 2.324,2.324 0 0 0 2.89,0 2.089,2.089 0 0 0 0.255,-0.236 0.17,0.17 0 0 0 -0.058,-0.029 0.788,0.788 0 0 1 -0.363,-0.302 z m -0.532,-1.208 v 1.52 h -0.53 v -1.32 h -0.287 -0.288 v 0.657 0.658 h -0.52 v -3.04 h 0.52 v 1.23 h 0.58 v -1.23 h 0.53 z"/>

</svg>
