<?xml version="1.0" encoding="UTF-8"?>
<svg width="24px" fill="#44739e" height="24px" viewBox="0 0 24 24" version="1.1" xmlns="http://www.w3.org/2000/svg" xmlns:xlink="http://www.w3.org/1999/xlink">
            <path d="m 21.789679,8.5446774 h -0.01085 A 2.0784428,2.0758212 0 0 0 20.99005,8.3615167 1.4464306,1.4446061 0 0 0 19.833497,8.7977543 2.1287277,2.1260427 0 0 0 19.425302,9.4535877 c 0,0 -0.577784,1.3677973 -0.633984,1.4977823 l 0.0079,-0.0128 -0.607363,1.418019 -0.771036,-1.249629 0.03057,0.02954 -1.688981,-2.7109755 v 0 -0.00689 a 3.6481207,3.6435192 0 0 0 -0.805545,-0.1201376 2.2450732,2.2422414 0 0 0 -1.84378,0.8508109 l -2.358461,2.5740972 1.895051,2.980793 a 1.6761636,1.6740494 0 0 0 1.564748,0.819299 2.8011651,2.7976319 0 0 0 1.084577,-0.202855 l -2.286485,-3.432786 0.668494,-0.70704 0.03648,-0.03545 0.913016,-0.96898 2.652282,4.16346 -1.606159,3.399305 a 2.3071899,2.3042797 0 0 0 0.905129,0.196947 h 0.06014 a 1.3005057,1.2988654 0 0 0 1.325156,-0.89414 l 3.093014,-6.881328 c 0.01183,-0.01772 0.02268,-0.03447 0.03352,-0.05318 l 0.696101,-1.5637584 z m -8.151085,2.4884256 a 1.0530251,1.0516969 0 0 1 -0.591587,0.304283 l -1.893079,0.264894 c -0.02366,0 -0.04733,0.0059 -0.07099,0.0079 l 2.169153,-2.3702567 a 2.0942185,2.091577 0 0 1 1.723491,-0.8045285 3.3779626,3.3737018 0 0 1 0.713848,0.098474 l 1.396146,2.2491352 a 0.81244635,0.81142157 0 0 0 -0.17649,0 l -1.183175,0.164451 A 0.46636787,0.46577962 0 0 1 15.265458,10.824339 L 14.685703,9.9183826 Z m 7.344554,-1.007384 a 0.53440039,0.53372632 0 0 1 -0.361854,0.254061 l -1.387272,0.196948 h -0.0079 c -0.02465,0.0049 -0.05028,0.01083 -0.07493,0.01773 l 0.0986,-0.238306 0.319457,-0.755292 a 1.3606504,1.3589342 0 0 1 1.371496,-1.0034449 h 0.05423 a 1.9532236,1.9507599 0 0 1 0.612293,0.1201377 z M 8.0510536,12.60474 A 1.9433638,1.9409125 0 0 0 7.016762,11.472295 L 7,11.466395 6.939855,11.437835 A 3.5712144,3.5667099 0 0 0 6.0840263,11.175889 L 4.6839367,10.915919 A 1.9571675,1.9546988 0 0 1 4.1712278,10.774118 0.32635891,0.32594726 0 0 1 3.9503686,10.478697 c 0,-0.258001 0.2957936,-0.436238 1.0086561,-0.436238 0.7128625,0 1.3231833,0.07189 1.7215186,0.07189 0.5205967,0 1.0569691,-0.2186109 1.0569691,-1.2368268 A 2.0163262,2.0137829 0 0 0 7.6961014,8.4836241 h -0.00592 v 0 a 19.436596,19.412079 0 0 0 -2.3081759,-0.159527 8.9122604,8.9010189 0 0 0 -1.0135859,0.03742 v 0 C 2.8450867,8.5338453 2.0701075,9.4447251 2.0701075,10.539751 a 2.0843587,2.0817296 0 0 0 1.8733593,1.981286 l 1.4789679,0.289512 c 0.5403162,0.106352 0.8154042,0.226489 0.8154042,0.520925 0,0.22452 -0.2070555,0.457902 -0.9051283,0.457902 -0.6270824,0 -1.4789679,-0.09847 -2.0133682,-0.09847 -0.5344004,0 -1.0668289,0.223535 -1.0668289,1.243721 a 2.3663486,2.3633638 0 0 0 0.046341,0.40768 18.57978,18.556345 0 0 0 3.5268454,0.108321 c 1.563762,-0.173318 2.3170497,-1.017236 2.3170497,-2.18907 A 2.0892886,2.0866533 0 0 0 8.030348,12.572243 Z M 4.6740769,11.043935 6.0751525,11.30489 a 2.4718483,2.4687304 0 0 1 1.6150329,0.877398 1.5282668,1.5263391 0 0 0 -0.5629938,-0.02068 L 5.5496259,12.383174 A 5.063,5.0566138 0 0 1 3.1625718,12.053288 h -0.00592 a 1.4838978,1.482026 0 0 1 -0.1547986,-0.09847 l -0.037467,-0.02659 h -0.0069 a 1.751098,1.7488892 0 0 1 -0.7158204,-1.3934 c 0,-1.1038882 0.8311799,-1.8828135 2.1691528,-2.0334779 a 14.601357,14.582939 0 0 1 3.1817529,0.098473 1.7688456,1.7666144 0 0 1 0.01972,0.2668631 c 0,0.9847349 -0.5205967,1.0930558 -0.9120302,1.0930558 -0.1656444,0 -0.3707279,-0.013786 -0.6083488,-0.028557 C 5.7635817,9.910506 5.3928537,9.886872 4.9787427,9.886872 c -0.9534413,0 -1.1535949,0.3161 -1.1535949,0.580994 -0.00296,0.429344 0.553134,0.524864 0.8489275,0.57607 z M 10.23894,5.879 H 10.16006 C 8.9857612,5.8996794 8.7747618,6.5377876 8.7747618,7.1542317 v 0.014771 l -0.012818,4.4421393 v 0.902017 -0.01674 2.983747 a 2.9658236,2.9620826 0 0 0 0.4387605,0.03151 c 1.2166977,0 1.4700937,-0.361397 1.4700937,-0.984735 v -3.014273 l 0.0079,-0.0325 V 5.9252825 a 2.1218259,2.1191495 0 0 0 -0.285934,-0.039389 c -0.05127,-0.00394 -0.102542,-0.00591 -0.153812,-0.00689 z M 8.9256166,7.153247 c 0,-0.5672073 0.1597285,-1.1432773 1.3083934,-1.1432773 a 2.1691529,2.1664168 0 0 1 0.313541,0.022649 v 5.4160423 a 0.35692425,0.35647404 0 0 1 -0.327345,0.281634 L 9.22634,11.871112 a 0.6763813,0.67552815 0 0 0 -0.3086113,0.111275 z"/>

</svg>