<?xml version="1.0" encoding="UTF-8"?>
<!-- Created with Inkscape (http://www.inkscape.org/) -->
<svg version="1.1" viewBox="0 0 24 24" width="24" height="24" xmlns="http://www.w3.org/2000/svg">
 <path d="m17.538 15.928c-0.6886-0.08552-1.3056-0.33646-1.882-0.76538-0.24479-0.18217-0.51595-0.43794-0.50802-0.47917 4e-3 -0.01944 0.0596-0.04526 0.15542-0.07189 0.0823-0.02285 0.18819-0.0642 0.23536-0.09189 0.26994-0.15842 0.48526-0.45689 0.58749-0.81441 0.0508-0.17772 0.0512-0.52256 7.4e-4 -0.74121-0.11569-0.50155-0.33626-0.78481-0.99309-1.2755-0.42447-0.31706-0.59709-0.48752-0.69589-0.68717-0.0628-0.12682-0.068-0.1513-0.0687-0.32364-7.2e-4 -0.171 4e-3 -0.19532 0.0581-0.29371 0.0827-0.15064 0.18932-0.22202 0.32984-0.22076 0.15882 0.0014 0.2604 0.06636 0.3351 0.21422 0.0464 0.09185 0.09 0.294 0.0903 0.41898 1.6e-4 0.05991 0.0109 0.11951 0.0238 0.13246 0.0376 0.0376 0.74892 0.03281 0.78051-0.0053 0.0433-0.05214-0.0104-0.5607-0.0861-0.8156-0.042-0.14152-0.12435-0.30379-0.20744-0.40892-0.0904-0.11437-0.2754-0.24208-0.41706-0.2879-0.1684-0.05448-0.1756-0.07203-0.0731-0.17821 0.39613-0.41025 0.90653-0.74064 1.4613-0.94584 1.242-0.45947 2.6926-0.24928 3.7576 0.54447 0.19658 0.14652 0.51084 0.44897 0.51084 0.49164 0 0.0239-0.0342 0.04678-0.11285 0.07547-0.32603 0.11896-0.55844 0.36451-0.7699 0.81344-0.13683 0.29049-0.21929 0.5788-0.28865 1.0092-0.05 0.30996-0.0497 1.3407 3.6e-4 1.6343 0.0778 0.45605 0.21348 0.85765 0.39446 1.1674 0.0439 0.07523 0.15418 0.21447 0.24495 0.30944 0.13324 0.1394 0.19564 0.18796 0.32381 0.25201 0.0873 0.04364 0.16724 0.08772 0.17759 0.09796 0.0431 0.04262-0.42706 0.45546-0.75255 0.66081-0.36776 0.23202-0.87493 0.44284-1.2648 0.52576-0.39926 0.08491-0.94525 0.10874-1.3475 0.05879zm-0.13737-2.3889c7e-3 -0.73672 0.0166-1.1 0.0308-1.1141 0.014-0.014 0.17697-0.01921 0.49062-0.01569l0.46965 0.0053 5e-3 1.0874c4e-3 0.7725 0.0115 1.0951 0.0273 1.1141 0.0177 0.02134 0.10751 0.02565 0.44629 0.02143l0.42412-0.0053v-5.1417l-0.43034-0.0053c-0.33117-0.0041-0.43398 4.45e-4 -0.44615 0.01963-9e-3 0.01371-0.016 0.47575-0.0161 1.0268-2.3e-4 0.7527-6e-3 1.0077-0.0239 1.0254-0.0169 0.01693-0.14861 0.02355-0.46859 0.02355-0.38995 0-0.44838-4e-3 -0.47197-0.03244-0.0218-0.02622-0.0288-0.22658-0.0368-1.045l-0.01-1.0126h-0.84386l-5e-3 2.5512c-3e-3 1.4032-7.8e-4 2.5624 4e-3 2.5761 7e-3 0.0193 0.10364 0.02373 0.42697 0.01962l0.4175-0.0053zm-7.0943 1.9868c-0.19268-0.02637-0.30418-0.07546-0.30418-0.13392 0-0.01663 0.20315-0.45931 0.45145-0.98374 0.24829-0.52443 0.45141-0.96542 0.45136-0.97996-8e-5 -0.02435-0.0483-0.10436-0.26548-0.44014-0.0434-0.06716-0.17942-0.28107-0.30219-0.47535-0.81345-1.2873-0.94095-1.4817-0.97188-1.4817-0.0143 0-0.13508 0.11701-0.26832 0.26002-0.13325 0.14302-0.33295 0.355-0.44379 0.47106-0.11083 0.11606-0.20152 0.2211-0.20152 0.2334 0 0.01992 0.19184 0.31278 1.053 1.6075 0.13323 0.20029 0.24223 0.37448 0.24223 0.38708 0 0.07129-0.28648 0.13207-0.61818 0.13115-0.28243-7.86e-4 -0.39762-0.02624-0.57243-0.12652-0.16257-0.09326-0.2752-0.22719-0.53636-0.63782-0.35185-0.55323-0.36092-0.56751-0.64487-1.0156-0.14182-0.22379-0.25786-0.41958-0.25786-0.43506 0-0.03109 0.0848-0.13217 0.39087-0.46587 0.11243-0.12259 0.34204-0.37299 0.51024-0.55644 0.70966-0.77398 0.79965-0.85009 1.1259-0.95237 0.16023-0.05024 0.6291-0.05498 0.79067-8e-3l0.10571 0.03073 0.1838 0.29799c0.10109 0.16389 0.28112 0.45694 0.40006 0.65123 0.68503 1.119 0.78585 1.2756 0.82094 1.2756 0.0285 0 0.11046-0.17628 0.40509-0.87174 0.20313-0.47945 0.39593-0.91321 0.42844-0.96387 0.0689-0.10742 0.25917-0.29434 0.34444-0.33845 0.0926-0.04789 0.2966-0.09481 0.41792-0.09612 0.18242-2e-3 0.46946 0.06695 0.50267 0.1207 0.0101 0.01641-0.30775 0.757-0.56488 1.316-0.0371 0.08062-0.0963 0.21281-0.13157 0.29376-0.0353 0.08095-0.094 0.21122-0.13058 0.28949-0.0365 0.07827-0.10054 0.21956-0.14224 0.31399-0.0417 0.09443-0.13964 0.31299-0.21768 0.48569-0.16448 0.36404-0.6151 1.3717-0.67138 1.5013-0.0211 0.04857-0.0523 0.11922-0.0695 0.157-0.0171 0.03778-0.0947 0.21089-0.17231 0.38469-0.21041 0.47086-0.31896 0.61055-0.55588 0.71535-0.10086 0.04461-0.39601 0.06437-0.58177 0.03895zm-6.9864-1.4076c-0.246-0.0075-1.0129-0.06258-1.0918-0.07836-0.11036-0.02207-0.1481-0.15818-0.11428-0.41212 0.0421-0.31576 0.18694-0.49963 0.44477-0.56446 0.15218-0.03827 0.22726-0.03819 0.70788 6.68e-4 0.50395 0.04078 0.88042 0.03057 1.0099-0.02739 0.0939-0.04202 0.17168-0.13528 0.17183-0.20606 4e-5 -0.01943-0.013-0.06065-0.029-0.09162-0.0526-0.10166-0.19255-0.14953-0.74669-0.25534-0.71033-0.13565-0.75863-0.1483-0.98804-0.25876-0.27046-0.13022-0.45082-0.30414-0.5685-0.54824-0.32806-0.68048 0.0658-1.4541 0.85713-1.6837 0.30315-0.08796 0.4958-0.10423 1.117-0.09432 0.32955 0.0053 0.71215 0.02303 0.87827 0.04079 0.37918 0.04055 0.372 0.03379 0.35756 0.33607-0.013 0.27175-0.0506 0.3785-0.18093 0.5133-0.0784 0.08105-0.12185 0.10838-0.21587 0.13565-0.10924 0.03169-0.15972 0.03233-0.69846 0.0088-0.31938-0.01392-0.63289-0.01911-0.69667-0.01153-0.29066 0.03453-0.43513 0.12718-0.41281 0.26471 6e-3 0.03905 0.0308 0.08426 0.0559 0.10357 0.054 0.04146 0.26013 0.11386 0.3241 0.11386 0.0254 0 0.10093 0.0128 0.1679 0.02845 0.11134 0.02601 0.27801 0.05768 0.59278 0.11263 0.19285 0.03367 0.51534 0.13072 0.63445 0.19093 0.44798 0.22645 0.67729 0.5897 0.67618 1.0712-2e-3 0.7167-0.49464 1.1852-1.3498 1.2828-0.2081 0.02375-0.62639 0.03694-0.90275 0.02847zm2.7048 6.67e-4c-0.0343-5e-3 -0.072-0.02076-0.0838-0.03497-0.0153-0.01847-0.0199-0.74728-0.0162-2.555 6e-3 -2.9041-0.0108-2.6518 0.19093-2.8539 0.16274-0.16308 0.28813-0.20445 0.62071-0.20479 0.18913-2.22e-4 0.26547 0.0068 0.28946 0.02667 0.0301 0.02485 0.0326 0.22558 0.0326 2.5922 0 2.7493 3e-3 2.6651-0.097 2.8056-0.0572 0.08039-0.19005 0.1557-0.33364 0.1892-0.12363 0.02884-0.49716 0.05054-0.60304 0.03503zm8.647-0.3371c-0.29593-0.18767-0.50287-0.68666-0.56706-1.3673-0.0289-0.30613-0.0267-0.44037 7e-3 -0.45346 0.0159-0.0061 0.0895 0.03885 0.17171 0.10487 0.0791 0.06355 0.22339 0.17221 0.32053 0.24148 0.41783 0.29793 0.52649 0.40213 0.63965 0.61334 0.0625 0.11666 0.0652 0.13078 0.0654 0.33763 2.3e-4 0.2396-0.0286 0.32615-0.15282 0.45794-0.0883 0.09369-0.152 0.12098-0.28253 0.12098-0.0924 0-0.13202-0.01087-0.20236-0.05548zm6.5119-0.01105c-0.10884-0.03979-0.16582-0.08249-0.233-0.17458-0.14768-0.20243-0.23951-0.46066-0.31432-0.88383-0.0575-0.32543-0.0624-1.0921-9e-3 -1.4066 0.11325-0.66672 0.31995-1.0385 0.6049-1.088 0.38694-0.06714 0.68396 0.53476 0.75959 1.5393 0.0285 0.37853-0.0187 0.89355-0.11504 1.256-0.0897 0.33736-0.27583 0.653-0.43398 0.73592-0.0806 0.04226-0.18026 0.05064-0.25917 0.02179z" fill="#44739e"/>
</svg>
