<svg xmlns="http://www.w3.org/2000/svg" viewBox="0 0 24 24"><path fill="#44739e" d="M18.039 14.859h-.967v-1.44h-.391v1.714h1.358Zm-2.228-.234.241.508h.423l-.821-1.714h-.415l-.816 1.714h.413l.235-.508Zm-.109-.263h-.523l.188-.4a3 3 0 0 0 .071-.175q.032.085.077.179Zm-1.458-.503a.36.36 0 0 0-.213-.328 1.24 1.24 0 0 0-.646-.125 4 4 0 0 0-.541.035l-.042.006v1.676l.045.005a5 5 0 0 0 .458.02 1.5 1.5 0 0 0 .81-.161.43.43 0 0 0 .213-.364.47.47 0 0 0-.356-.413.41.41 0 0 0 .272-.351m-1.051.243v-.427c.056 0 .125-.008.209-.008.2 0 .447.037.447.214 0 .132-.177.221-.441.221Zm0 .258h.192c.125 0 .534.019.534.261s-.371.264-.53.264q-.12.002-.2-.006Zm-.546-.941h-1.775v.276h.689v1.438h.394v-1.438h.692Zm-2.782-.021c-.648 0-1.1.369-1.1.9 0 .512.438.869 1.067.869.658 0 1.1-.361 1.1-.9 0-.527-.432-.869-1.067-.869m-.017 1.5a.617.617 0 1 1 0-1.228.617.617 0 1 1 0 1.228m-3.4-.608c0 .512.439.869 1.067.869.658 0 1.1-.361 1.1-.9 0-.519-.428-.866-1.067-.866s-1.1.369-1.1.897m1.084.6a.617.617 0 1 1 0-1.228.617.617 0 1 1 0 1.228m-2.587.243h.392v-.731h.856v-.272h-.856v-.437h.926v-.274H4.945Zm10.179-5.997h-.058a.69.69 0 0 0-.688.692v.056a.691.691 0 1 0 1.376 0 .69.69 0 0 0-.63-.748m-2.402.003h-.053a.72.72 0 0 0-.633.382v.729a.71.71 0 0 0 .633.382.69.69 0 0 0 .691-.693v-.054a.69.69 0 0 0-.638-.746m8.989-1.423H9.141a.287.287 0 0 0-.286.283v3.712a.286.286 0 0 0 .284.287h12.576a.287.287 0 0 0 .285-.284V7.999a.29.29 0 0 0-.289-.283m-11.26 3.215a2.5 2.5 0 0 1-.786-.137c-.025-.175.029-.267.132-.267a4 4 0 0 0 .662.1c.346 0 .475-.121.475-.281 0-.114-.05-.215-.361-.3l-.358-.1c-.4-.1-.551-.3-.551-.547 0-.3.24-.571.783-.571a2.3 2.3 0 0 1 .732.125c.033.171-.021.264-.125.264a4 4 0 0 0-.6-.089c-.322 0-.44.11-.44.253 0 .1.047.193.333.275l.365.1c.407.113.572.3.572.571 0 .322-.243.604-.833.604m3.257-1.048a.983.983 0 0 1-.912 1.048h-.059a.86.86 0 0 1-.7-.346v.849c0 .078-.046.131-.182.131a.6.6 0 0 1-.164-.018V8.873a1 1 0 0 1 .164-.018c.136 0 .182.049.182.132v.192a.85.85 0 0 1 .7-.346.984.984 0 0 1 .973 1Zm1.41 1.05h-.053a1.05 1.05 0 1 1 1.041-1.059v.008a1.02 1.02 0 0 1-.988 1.051m2.453-1.742a.72.72 0 0 0-.685.449v1.139c0 .085-.046.131-.186.131a.6.6 0 0 1-.161-.018V8.873a1 1 0 0 1 .161-.018c.139 0 .186.049.186.132v.281a.855.855 0 0 1 .871-.4 1 1 0 0 1 .018.155c0 .138-.058.168-.204.168m1.129 1.741a.583.583 0 0 1-.638-.522.5.5 0 0 1 0-.106V8.567c0-.089.05-.146.186-.146a1 1 0 0 1 .161.021v.439h.791a1 1 0 0 1 .015.139c0 .121-.05.164-.125.164h-.671v1.1q0 .352.332.35a2.5 2.5 0 0 0 .411-.089c.1 0 .148.084.126.252a1.3 1.3 0 0 1-.588.135m1.644 0h-.005a2.4 2.4 0 0 1-.785-.137c-.025-.175.028-.267.132-.267a4 4 0 0 0 .66.1c.346 0 .475-.121.475-.281 0-.114-.05-.215-.361-.3l-.357-.1c-.4-.1-.55-.3-.55-.547 0-.3.239-.571.782-.571a2.3 2.3 0 0 1 .731.125c.033.171-.021.264-.125.264a4 4 0 0 0-.6-.089c-.321 0-.439.11-.439.253 0 .1.047.193.333.275l.364.1c.406.113.571.3.571.571.006.321-.237.603-.826.603Zm-17.752-.879.465.089c.17.033.257.071.257.163 0 .071-.066.145-.284.145-.2 0-.465-.03-.635-.03s-.337.073-.337.394a1 1 0 0 0 .015.128 6 6 0 0 0 1.111.034c.489-.053.73-.32.73-.688 0-.317-.2-.577-.652-.66l-.443-.082c-.142-.025-.231-.057-.231-.138s.094-.138.32-.138.417.023.542.023c.163 0 .333-.069.333-.39a.6.6 0 0 0-.013-.123 5 5 0 0 0-1.047-.034c-.479.053-.723.34-.723.683a.66.66 0 0 0 .592.624m2.119.63v-2.7a.7.7 0 0 0-.145-.015c-.388 0-.456.207-.456.406v2.614a1 1 0 0 0 .138.01c.386-.005.463-.119.463-.315m1.117.316a.9.9 0 0 0 .343-.065l-.719-1.079.509-.539.839 1.308-.51 1.068a.7.7 0 0 0 .285.061.41.41 0 0 0 .437-.281l1.199-2.673a.7.7 0 0 0-.249-.058.48.48 0 0 0-.494.344l-.389.914-.763-1.236a1 1 0 0 0-.258-.036.7.7 0 0 0-.576.272l-.742.809.6.937a.53.53 0 0 0 .488.254m16.086 4.999a.2.2 0 0 1-.2.2H2.285a.2.2 0 0 1-.2-.2v-3.53a.28.28 0 0 1-.085-.2v3.73a.286.286 0 0 0 .285.286h19.43a.286.286 0 0 0 .285-.286v-3.734a.28.28 0 0 1-.086.2Zm-2.288-1.139h-.967v-1.44h-.391v1.714h1.358Z"/></svg>