<svg xmlns="http://www.w3.org/2000/svg" viewBox="0 0 24 24"><path fill="#44739e" d="M19.3 12.905c-.112 0-.156.047-.156.124v1.456a.49.49 0 0 0 .537.528 1.1 1.1 0 0 0 .489-.115c.018-.142-.025-.21-.106-.212-.081 0-.177.077-.348.077-.189 0-.279-.1-.279-.294v-.923H20c.062 0 .106-.036.106-.137a1 1 0 0 0-.006-.11h-.663v-.37a.6.6 0 0 0-.137-.024m-1.944.358a1 1 0 0 0-.134.015v1.7a.6.6 0 0 0 .134.015c.116 0 .156-.04.156-.109v-1.086a.6.6 0 0 1 .494-.294c.249 0 .416.162.416.5v.97a.6.6 0 0 0 .134.015c.116 0 .156-.04.156-.109v-.916a.633.633 0 0 0-.638-.724.71.71 0 0 0-.562.271v-.145c0-.059-.04-.103-.156-.103m-.497.808a.77.77 0 0 0-.784-.819.882.882 0 0 0 .047 1.764 1.6 1.6 0 0 0 .631-.14c.014-.157-.04-.225-.12-.225a.5.5 0 0 0-.134.036 1.1 1.1 0 0 1-.366.065.554.554 0 0 1-.6-.514h1.316c.005-.06.009-.123.01-.167m-1.328-.06a.55.55 0 0 1 .543-.519.5.5 0 0 1 .5.518Zm-1.069.868.686-1.564a.45.45 0 0 0-.189-.047.146.146 0 0 0-.16.1l-.294.72-.246.6-.247-.6-.294-.72a.15.15 0 0 0-.163-.1.44.44 0 0 0-.193.047l.725 1.658a1 1 0 0 0 .179.026c.116 0 .152-.026.196-.12m-1.197-.808a.767.767 0 0 0-.783-.819.882.882 0 0 0 .047 1.764 1.6 1.6 0 0 0 .631-.14c.014-.157-.04-.225-.12-.225a.5.5 0 0 0-.134.036 1.1 1.1 0 0 1-.367.065.554.554 0 0 1-.599-.514h1.319a1 1 0 0 0 .006-.167m-1.327-.06a.557.557 0 0 1 .543-.519.5.5 0 0 1 .5.518Zm-2.678-.748a.6.6 0 0 0-.134.015v1.7a.6.6 0 0 0 .134.02c.116 0 .156-.04.156-.109v-1.09a.6.6 0 0 1 .494-.295c.249 0 .417.162.417.5v.97a.6.6 0 0 0 .134.024c.116 0 .156-.04.156-.109v-.916a.634.634 0 0 0-.639-.724.71.71 0 0 0-.562.271v-.145c0-.068-.04-.112-.156-.112m-.734-.18a.19.19 0 0 0 .189-.185.187.187 0 0 0-.374 0 .2.2 0 0 0 .185.185m-.145.293v1.608a.6.6 0 0 0 .134.014c.116 0 .153-.037.153-.109v-1.6a.6.6 0 0 0-.131-.015c-.116-.006-.156.034-.156.102m-.573 1.622a.6.6 0 0 0 .131-.015v-1.085c0-.42-.186-.644-.679-.64a2 2 0 0 0-.668.122c-.029.15.025.221.1.221a.7.7 0 0 0 .134-.028 1.8 1.8 0 0 1 .41-.066c.323 0 .407.116.407.395v.062c-.747-.05-1.186.13-1.186.54a.534.534 0 0 0 .588.517.77.77 0 0 0 .6-.275v.15c.007.063.056.102.163.102m-.16-.51a.67.67 0 0 1-.548.282c-.224 0-.348-.134-.348-.283 0-.294.407-.359.9-.322Zm-3.882-1.206v1.7a1 1 0 0 0 .135.016c.116 0 .156-.036.156-.108v-1.115a.47.47 0 0 1 .407-.265c.225 0 .341.145.341.391v1.083a1 1 0 0 0 .133.014c.116 0 .156-.036.156-.108v-1.115a.47.47 0 0 1 .407-.265c.225 0 .341.145.341.391v1.08a.6.6 0 0 0 .134.017c.116 0 .156-.037.156-.109v-1.024a.553.553 0 0 0-.556-.616.63.63 0 0 0-.544.307.52.52 0 0 0-.494-.307.6.6 0 0 0-.486.25v-.116c0-.073-.04-.116-.148-.116a.7.7 0 0 0-.138.015m11.3-4.148a.69.69 0 0 0-.686.748.691.691 0 1 0 1.376 0 .69.69 0 0 0-.69-.748m-2.397.003a.72.72 0 0 0-.633.382v.73a.71.71 0 0 0 .633.381.69.69 0 0 0 .689-.747.69.69 0 0 0-.689-.746m9.042-1.42H9.142a.287.287 0 0 0-.286.282v3.712a.286.286 0 0 0 .286.288h12.573a.286.286 0 0 0 .285-.285V7.999a.29.29 0 0 0-.289-.283M10.452 10.93a2.4 2.4 0 0 1-.786-.137c-.025-.175.029-.267.132-.267a4 4 0 0 0 .662.1c.346 0 .475-.12.475-.28 0-.115-.05-.216-.361-.3l-.358-.1c-.4-.1-.551-.3-.551-.548 0-.3.24-.57.783-.57a2.3 2.3 0 0 1 .732.124c.033.171-.021.264-.125.264a4 4 0 0 0-.6-.089c-.322 0-.44.11-.44.253 0 .1.047.193.333.275l.365.1c.407.113.572.3.572.571 0 .322-.243.604-.833.604m2.285 0a.86.86 0 0 1-.7-.346v.85c0 .077-.045.13-.181.13a.6.6 0 0 1-.164-.018V8.873a1 1 0 0 1 .164-.018c.136 0 .181.05.181.132v.192a.85.85 0 0 1 .7-.346.984.984 0 0 1 .971 1.05.98.98 0 0 1-.971 1.05Zm2.328 0a1.05 1.05 0 1 1 1.041-1.05 1.02 1.02 0 0 1-1.041 1.052Zm2.506-1.742a.72.72 0 0 0-.685.45v1.14c0 .085-.046.131-.186.131a.6.6 0 0 1-.161-.018V8.873a1 1 0 0 1 .161-.018c.139 0 .186.05.186.132v.281a.86.86 0 0 1 .871-.4 1 1 0 0 1 .018.155c0 .138-.058.168-.204.168Zm1.129 1.743a.583.583 0 0 1-.639-.628V8.567c0-.089.05-.146.186-.146a1 1 0 0 1 .161.021v.44h.792a1 1 0 0 1 .015.138c0 .121-.05.164-.125.164h-.671v1.1c0 .236.111.35.332.35a2.5 2.5 0 0 0 .411-.089c.095 0 .148.084.126.252a1.3 1.3 0 0 1-.588.135m1.639 0a2.4 2.4 0 0 1-.785-.137c-.025-.175.028-.267.132-.267a4 4 0 0 0 .66.1c.346 0 .475-.12.475-.28 0-.115-.05-.216-.361-.3l-.357-.1c-.4-.1-.55-.3-.55-.548 0-.3.239-.57.782-.57a2.3 2.3 0 0 1 .731.124c.033.171-.021.264-.125.264a4 4 0 0 0-.6-.089c-.321 0-.439.11-.439.253 0 .1.047.193.333.275l.364.1c.406.113.571.3.571.571.006.321-.237.603-.826.603Zm-17.746-.879.465.09c.17.032.257.07.257.162 0 .071-.066.145-.284.145-.2 0-.465-.03-.635-.03s-.337.073-.337.394a1 1 0 0 0 .015.128 6 6 0 0 0 1.111.034c.489-.053.73-.32.73-.688 0-.317-.2-.577-.652-.66l-.443-.082c-.142-.025-.231-.057-.231-.138 0-.08.094-.138.32-.138s.417.023.542.023c.163 0 .333-.069.333-.39a.6.6 0 0 0-.013-.123 5 5 0 0 0-1.047-.034c-.479.053-.723.34-.723.683a.66.66 0 0 0 .592.624m2.119.63v-2.7a.7.7 0 0 0-.145-.015c-.388 0-.456.207-.456.406v2.615a1 1 0 0 0 .138.01c.386-.005.463-.119.463-.315M5.829 11a.9.9 0 0 0 .343-.065l-.719-1.079.509-.539.839 1.308-.51 1.068a.7.7 0 0 0 .285.061.41.41 0 0 0 .437-.28l1.199-2.675a.7.7 0 0 0-.249-.058.48.48 0 0 0-.494.344l-.389.914-.763-1.236a1 1 0 0 0-.258-.036.7.7 0 0 0-.576.272l-.742.81.6.936a.53.53 0 0 0 .488.254m16.085 1.469v3.53a.2.2 0 0 1-.2.2H2.286a.2.2 0 0 1-.2-.2v-3.53a.28.28 0 0 1-.086-.2v3.73a.286.286 0 0 0 .285.286h19.429a.286.286 0 0 0 .286-.286v-3.734a.3.3 0 0 1-.086.204"/></svg>