<svg xmlns="http://www.w3.org/2000/svg" viewBox="0 0 24 24"><path fill="#44739e" d="M21.914 15.999a.2.2 0 0 1-.2.2H2.285a.2.2 0 0 1-.2-.2v-3.531a.28.28 0 0 1-.085-.2v3.731a.286.286 0 0 0 .284.286h19.431a.286.286 0 0 0 .285-.286v-3.735a.28.28 0 0 1-.086.2Zm-.203-8.284H9.141A.286.286 0 0 0 8.855 8v3.713a.285.285 0 0 0 .284.287h12.576a.29.29 0 0 0 .285-.287V8a.29.29 0 0 0-.289-.285m-11.26 3.214a2.5 2.5 0 0 1-.786-.136c-.025-.176.029-.268.132-.268a4 4 0 0 0 .662.1c.346 0 .475-.122.475-.281 0-.114-.05-.216-.361-.3l-.358-.1c-.4-.1-.551-.3-.551-.547 0-.3.24-.57.783-.57a2.3 2.3 0 0 1 .732.125c.033.17-.021.263-.125.263a4 4 0 0 0-.6-.088c-.322 0-.44.109-.44.252 0 .1.047.193.333.276l.365.1c.407.113.572.3.572.571 0 .321-.243.603-.833.603m3.259-1.1v.05a.98.98 0 0 1-.909 1.05h-.06a.86.86 0 0 1-.7-.346v.849c0 .078-.046.132-.182.132a.7.7 0 0 1-.164-.018V8.871a1 1 0 0 1 .164-.018c.136 0 .182.05.182.133v.192a.85.85 0 0 1 .7-.346.984.984 0 0 1 .973.994Zm2.4.048a1.02 1.02 0 0 1-.988 1.051h-.053a1.05 1.05 0 1 1 1.041-1.059Zm1.465-.691a.72.72 0 0 0-.685.45v1.139c0 .085-.046.13-.186.13a.6.6 0 0 1-.161-.018V8.871a1 1 0 0 1 .161-.018c.139 0 .186.05.186.133v.281a.855.855 0 0 1 .871-.4 1 1 0 0 1 .018.156c0 .137-.062.166-.208.166Zm1.125 1.745a.583.583 0 0 1-.638-.522.5.5 0 0 1 0-.1V8.566c0-.09.05-.147.186-.147a1 1 0 0 1 .161.022v.438h.791a1 1 0 0 1 .015.14c0 .121-.05.163-.125.163h-.671v1.1q0 .35.332.349a2.4 2.4 0 0 0 .411-.089c.1 0 .148.084.126.253a1.35 1.35 0 0 1-.588.136m1.644 0h-.005a2.4 2.4 0 0 1-.785-.138c-.025-.174.028-.266.132-.266a4 4 0 0 0 .66.1c.346 0 .475-.122.475-.282 0-.114-.05-.215-.361-.3l-.357-.1c-.4-.1-.55-.3-.55-.547 0-.3.239-.571.782-.571a2.3 2.3 0 0 1 .731.125c.033.172-.021.265-.125.265a4 4 0 0 0-.6-.09c-.321 0-.439.111-.439.253 0 .1.047.194.333.275l.364.1c.406.114.571.3.571.572.006.32-.237.6-.826.6Zm-17.752-.88.465.089c.17.033.257.072.257.164 0 .07-.066.145-.284.145-.2 0-.465-.031-.635-.031s-.337.073-.337.394a1 1 0 0 0 .015.129 6 6 0 0 0 1.111.034c.489-.054.73-.32.73-.689 0-.316-.2-.576-.652-.659l-.443-.082c-.142-.025-.231-.057-.231-.138s.094-.138.32-.138.417.022.542.022c.163 0 .333-.068.333-.389a.6.6 0 0 0-.013-.124 5 5 0 0 0-1.047-.034C2.244 8.8 2 9.085 2 9.428a.656.656 0 0 0 .592.623m12.532-.917h-.058a.69.69 0 0 0-.688.69v.055a.691.691 0 1 0 1.376 0 .69.69 0 0 0-.63-.745m-2.398.004h-.057a.72.72 0 0 0-.633.383v.729a.71.71 0 0 0 .633.382.69.69 0 0 0 .691-.693v-.055a.69.69 0 0 0-.633-.746ZM11 13.857c-1.044 0-1.229.055-1.676.5l-1.1 1.1h1.484l.356-.356c.231-.232.352-.256.843-.256h2.533l.989-.987Zm-6.289-3.176v-2.7a.7.7 0 0 0-.145-.014c-.388 0-.456.206-.456.4v2.614a1 1 0 0 0 .138.01c.386 0 .463-.114.463-.31m12.958 1.937h-1.706l-2.835 2.833h1.706ZM5.828 11a.9.9 0 0 0 .343-.065l-.719-1.082.509-.539.839 1.308-.51 1.069a.7.7 0 0 0 .285.061.414.414 0 0 0 .437-.282L8.211 8.8a.7.7 0 0 0-.249-.059.48.48 0 0 0-.494.344L7.079 10l-.763-1.238a1 1 0 0 0-.258-.036.7.7 0 0 0-.576.274l-.742.809.6.938a.53.53 0 0 0 .488.253m2.494 2.48c-.713.7-1.992 1.976-1.992 1.976h1.6c.361-.349 1.034-1.007 1.345-1.3.437-.412.647-.477 1.595-.477h3.73l1.059-1.059h-4.9a2.73 2.73 0 0 0-2.437.86"/></svg>