<?xml version="1.0" encoding="UTF-8"?>
<svg width="24px" fill="#44739e" height="24px" viewBox="0 0 24 24" version="1.1" xmlns="http://www.w3.org/2000/svg" xmlns:xlink="http://www.w3.org/1999/xlink">
            <path d="m 21.914,16 a 0.2,0.2 0 0 1 -0.2,0.2 H 2.285 A 0.2,0.2 0 0 1 2.085,16 v 0 -3.532 A 0.281,0.281 0 0 1 2,12.268 V 16 a 0.286,0.286 0 0 0 0.284,0.286 H 21.715 A 0.286,0.286 0 0 0 22,16 v 0 -3.736 a 0.284,0.284 0 0 1 -0.086,0.2 z M 21.711,7.715 H 9.141 A 0.286,0.286 0 0 0 8.855,8 v 3.713 A 0.285,0.285 0 0 0 9.139,12 H 21.715 A 0.288,0.288 0 0 0 22,11.713 V 8 A 0.291,0.291 0 0 0 21.711,7.715 Z m -11.26,3.214 A 2.446,2.446 0 0 1 9.665,10.793 C 9.64,10.617 9.694,10.525 9.797,10.525 a 3.891,3.891 0 0 0 0.662,0.1 c 0.346,0 0.475,-0.122 0.475,-0.281 0,-0.114 -0.05,-0.216 -0.361,-0.3 l -0.358,-0.1 c -0.4,-0.1 -0.551,-0.3 -0.551,-0.547 0,-0.3 0.24,-0.57 0.783,-0.57 a 2.283,2.283 0 0 1 0.732,0.125 c 0.033,0.17 -0.021,0.263 -0.125,0.263 a 3.91,3.91 0 0 0 -0.6,-0.088 c -0.322,0 -0.44,0.109 -0.44,0.252 0,0.1 0.047,0.193 0.333,0.276 l 0.365,0.1 c 0.407,0.113 0.572,0.3 0.572,0.571 0,0.321 -0.243,0.603 -0.833,0.603 z m 3.259,-1.1 v 0.05 a 0.982,0.982 0 0 1 -0.909,1.05 h -0.06 a 0.857,0.857 0 0 1 -0.7,-0.346 v 0.849 c 0,0.078 -0.046,0.132 -0.182,0.132 A 0.65,0.65 0 0 1 11.695,11.546 V 8.871 a 0.824,0.824 0 0 1 0.164,-0.018 c 0.136,0 0.182,0.05 0.182,0.133 v 0.192 a 0.849,0.849 0 0 1 0.7,-0.346 0.984,0.984 0 0 1 0.973,0.994 z m 2.4,0.048 a 1.02,1.02 0 0 1 -0.988,1.051 H 15.069 A 1.05,1.05 0 1 1 16.11,9.869 Z m 1.465,-0.691 a 0.724,0.724 0 0 0 -0.685,0.45 v 1.139 c 0,0.085 -0.046,0.13 -0.186,0.13 A 0.626,0.626 0 0 1 16.543,10.887 V 8.871 a 0.968,0.968 0 0 1 0.161,-0.018 c 0.139,0 0.186,0.05 0.186,0.133 v 0.281 a 0.855,0.855 0 0 1 0.871,-0.4 1.021,1.021 0 0 1 0.018,0.156 c 0,0.137 -0.062,0.166 -0.208,0.166 z m 1.125,1.745 a 0.583,0.583 0 0 1 -0.638,-0.522 v 0 a 0.461,0.461 0 0 1 0,-0.1 V 8.566 c 0,-0.09 0.05,-0.147 0.186,-0.147 a 0.878,0.878 0 0 1 0.161,0.022 V 8.879 H 19.2 a 1.089,1.089 0 0 1 0.015,0.14 c 0,0.121 -0.05,0.163 -0.125,0.163 h -0.671 v 1.1 c 0,0.235 0.111,0.349 0.332,0.349 a 2.409,2.409 0 0 0 0.411,-0.089 c 0.1,0 0.148,0.084 0.126,0.253 A 1.345,1.345 0 0 1 18.7,10.931 Z m 1.644,0 h -0.005 a 2.41,2.41 0 0 1 -0.785,-0.138 c -0.025,-0.174 0.028,-0.266 0.132,-0.266 a 3.986,3.986 0 0 0 0.66,0.1 c 0.346,0 0.475,-0.122 0.475,-0.282 0,-0.114 -0.05,-0.215 -0.361,-0.3 l -0.357,-0.1 c -0.4,-0.1 -0.55,-0.3 -0.55,-0.547 0,-0.3 0.239,-0.571 0.782,-0.571 a 2.328,2.328 0 0 1 0.731,0.125 c 0.033,0.172 -0.021,0.265 -0.125,0.265 a 3.914,3.914 0 0 0 -0.6,-0.09 c -0.321,0 -0.439,0.111 -0.439,0.253 0,0.1 0.047,0.194 0.333,0.275 l 0.364,0.1 c 0.406,0.114 0.571,0.3 0.571,0.572 0.006,0.32 -0.237,0.6 -0.826,0.6 z M 2.592,10.051 3.057,10.14 c 0.17,0.033 0.257,0.072 0.257,0.164 0,0.07 -0.066,0.145 -0.284,0.145 -0.2,0 -0.465,-0.031 -0.635,-0.031 -0.17,0 -0.337,0.073 -0.337,0.394 a 0.7,0.7 0 0 0 0.015,0.129 6.066,6.066 0 0 0 1.111,0.034 c 0.489,-0.054 0.73,-0.32 0.73,-0.689 0,-0.316 -0.2,-0.576 -0.652,-0.659 L 2.819,9.545 C 2.677,9.52 2.588,9.488 2.588,9.407 c 0,-0.081 0.094,-0.138 0.32,-0.138 0.226,0 0.417,0.022 0.542,0.022 0.163,0 0.333,-0.068 0.333,-0.389 A 0.574,0.574 0 0 0 3.77,8.778 5.092,5.092 0 0 0 2.723,8.744 C 2.244,8.8 2,9.085 2,9.428 a 0.656,0.656 0 0 0 0.592,0.623 z M 15.124,9.134 h -0.058 a 0.688,0.688 0 0 0 -0.688,0.69 v 0 a 0.5,0.5 0 0 0 0,0.055 0.691,0.691 0 1 0 1.376,0 0.692,0.692 0 0 0 -0.63,-0.745 z m -2.398,0.004 h -0.057 a 0.724,0.724 0 0 0 -0.633,0.383 v 0.729 a 0.712,0.712 0 0 0 0.633,0.382 0.692,0.692 0 0 0 0.691,-0.693 v 0 -0.055 A 0.692,0.692 0 0 0 12.727,9.138 Z M 11,13.858 c -1.044,0 -1.229,0.055 -1.676,0.5 l -1.1,1.1 h 1.484 l 0.356,-0.356 c 0.231,-0.232 0.352,-0.256 0.843,-0.256 h 2.533 l 0.989,-0.987 z M 4.711,10.681 v -2.7 A 0.706,0.706 0 0 0 4.566,7.967 c -0.388,0 -0.456,0.206 -0.456,0.4 v 2.614 a 0.915,0.915 0 0 0 0.138,0.01 c 0.386,0 0.463,-0.114 0.463,-0.31 z m 12.958,1.938 h -1.706 l -2.835,2.833 h 1.706 z M 5.828,11 A 0.894,0.894 0 0 0 6.171,10.935 L 5.452,9.853 5.961,9.314 6.8,10.622 6.29,11.691 A 0.719,0.719 0 0 0 6.575,11.752 0.414,0.414 0 0 0 7.012,11.47 L 8.211,8.8 A 0.649,0.649 0 0 0 7.962,8.741 0.479,0.479 0 0 0 7.468,9.085 L 7.079,10 6.316,8.762 A 1.07,1.07 0 0 0 6.058,8.726 0.7,0.7 0 0 0 5.482,9 L 4.74,9.809 5.34,10.747 A 0.532,0.532 0 0 0 5.828,11 Z m 2.494,2.481 c -0.713,0.7 -1.992,1.976 -1.992,1.976 h 1.6 C 8.291,15.108 8.964,14.45 9.275,14.157 9.712,13.745 9.922,13.68 10.87,13.68 h 3.73 l 1.059,-1.059 h -4.9 a 2.732,2.732 0 0 0 -2.437,0.86 z"/>

</svg>