<?xml version="1.0" encoding="UTF-8"?>
<svg width="24px" fill="#44739e" height="24px" viewBox="0 0 24 24" version="1.1" xmlns="http://www.w3.org/2000/svg" xmlns:xlink="http://www.w3.org/1999/xlink">
            <path d="m 19.3,13.81718 c -0.112,0 -0.156,0.047 -0.156,0.124 v 1.456 a 0.489,0.489 0 0 0 0.537,0.528 1.137,1.137 0 0 0 0.489,-0.115 c 0.018,-0.142 -0.025,-0.211 -0.106,-0.212 -0.081,-10e-4 -0.177,0.077 -0.348,0.077 -0.189,0 -0.279,-0.1 -0.279,-0.294 v -0.923 H 20 c 0.062,0 0.106,-0.036 0.106,-0.137 a 0.848,0.848 0 0 0 -0.006,-0.111 h -0.663 v -0.369 a 0.557,0.557 0 0 0 -0.137,-0.024 z m -1.944,0.358 a 0.646,0.646 0 0 0 -0.134,0.015 v 1.7 a 0.584,0.584 0 0 0 0.134,0.015 c 0.116,0 0.156,-0.04 0.156,-0.109 v -1.086 a 0.606,0.606 0 0 1 0.494,-0.294 c 0.249,0 0.416,0.162 0.416,0.5 v 0.97 a 0.584,0.584 0 0 0 0.134,0.015 c 0.116,0 0.156,-0.04 0.156,-0.109 v -0.916 a 0.633,0.633 0 0 0 -0.638,-0.724 0.711,0.711 0 0 0 -0.562,0.271 v -0.145 c 0,-0.059 -0.04,-0.103 -0.156,-0.103 z m -0.497,0.808 a 0.768,0.768 0 0 0 -0.784,-0.819 0.88231301,0.88231301 0 0 0 0.047,1.764 1.586,1.586 0 0 0 0.631,-0.141 c 0.014,-0.156 -0.04,-0.224 -0.12,-0.224 a 0.507,0.507 0 0 0 -0.134,0.036 1.082,1.082 0 0 1 -0.366,0.065 0.554,0.554 0 0 1 -0.6,-0.514 h 1.316 c 0.005,-0.061 0.009,-0.123 0.01,-0.167 z m -1.328,-0.061 a 0.551,0.551 0 0 1 0.543,-0.518 0.5,0.5 0 0 1 0.5,0.518 z m -1.069,0.869 0.686,-1.564 a 0.45,0.45 0 0 0 -0.189,-0.047 0.146,0.146 0 0 0 -0.16,0.1 l -0.294,0.72 -0.246,0.6 v 0 l -0.247,-0.6 -0.294,-0.72 a 0.149,0.149 0 0 0 -0.163,-0.1 0.439,0.439 0 0 0 -0.193,0.047 l 0.725,1.658 a 0.859,0.859 0 0 0 0.179,0.026 c 0.116,-10e-4 0.152,-0.026 0.196,-0.12 z m -1.197,-0.808 a 0.767,0.767 0 0 0 -0.783,-0.819 0.88231301,0.88231301 0 0 0 0.047,1.764 1.591,1.591 0 0 0 0.631,-0.141 c 0.014,-0.156 -0.04,-0.224 -0.12,-0.224 a 0.5,0.5 0 0 0 -0.134,0.036 1.084,1.084 0 0 1 -0.367,0.065 0.554,0.554 0 0 1 -0.6,-0.514 h 1.32 a 1.011,1.011 0 0 0 0.006,-0.167 z m -1.328,-0.061 a 0.557,0.557 0 0 1 0.544,-0.518 0.5,0.5 0 0 1 0.5,0.518 z m -2.6779997,-0.747 a 0.637,0.637 0 0 0 -0.134,0.015 v 1.7 a 0.577,0.577 0 0 0 0.134,0.02 c 0.116,0 0.156,-0.04 0.156,-0.109 v -1.091 a 0.606,0.606 0 0 1 0.494,-0.294 c 0.2489997,0 0.4169997,0.162 0.4169997,0.5 v 0.97 a 0.57,0.57 0 0 0 0.134,0.024 c 0.116,0 0.156,-0.04 0.156,-0.109 v -0.916 a 0.634,0.634 0 0 0 -0.6389997,-0.724 0.71,0.71 0 0 0 -0.562,0.271 v -0.145 c 0,-0.068 -0.04,-0.112 -0.156,-0.112 z m -0.734,-0.18 a 0.189,0.189 0 0 0 0.189,-0.185 0.187,0.187 0 0 0 -0.374,0 0.2,0.2 0 0 0 0.185,0.185 z m -0.145,0.293 v 1.608 a 0.552,0.552 0 0 0 0.134,0.014 c 0.116,0 0.153,-0.037 0.153,-0.109 v -1.6 a 0.549,0.549 0 0 0 -0.131,-0.015 c -0.116,-0.006 -0.156,0.034 -0.156,0.102 z m -0.573,1.622 a 0.606,0.606 0 0 0 0.131,-0.015 v -1.085 c 0,-0.42 -0.186,-0.644 -0.679,-0.641 a 2.019,2.019 0 0 0 -0.668,0.123 c -0.029,0.149 0.025,0.221 0.1,0.221 a 0.655,0.655 0 0 0 0.134,-0.028 1.8,1.8 0 0 1 0.41,-0.066 c 0.323,0 0.407,0.116 0.407,0.395 v 0.062 c -0.747,-0.051 -1.186,0.13 -1.186,0.539 a 0.534,0.534 0 0 0 0.588,0.518 0.769,0.769 0 0 0 0.6,-0.275 v 0.149 c 0.007,0.064 0.056,0.103 0.163,0.103 z m -0.16,-0.511 a 0.674,0.674 0 0 1 -0.548,0.283 c -0.224,0 -0.348,-0.134 -0.348,-0.283 0,-0.294 0.407,-0.359 0.9,-0.322 z m -3.882,-1.205 v 1.7 a 0.655,0.655 0 0 0 0.135,0.016 c 0.116,0 0.156,-0.036 0.156,-0.108 v -1.115 a 0.466,0.466 0 0 1 0.407,-0.265 c 0.225,0 0.341,0.145 0.341,0.391 v 1.083 a 0.655,0.655 0 0 0 0.133,0.014 c 0.116,0 0.156,-0.036 0.156,-0.108 v -1.115 a 0.466,0.466 0 0 1 0.407,-0.265 c 0.225,0 0.341,0.145 0.341,0.391 v 1.079 a 0.584,0.584 0 0 0 0.134,0.018 c 0.116,0 0.156,-0.037 0.156,-0.109 v -1.024 a 0.553,0.553 0 0 0 -0.556,-0.616 0.632,0.632 0 0 0 -0.544,0.307 0.521,0.521 0 0 0 -0.494,-0.307 0.607,0.607 0 0 0 -0.486,0.25 v -0.116 c 0,-0.073 -0.04,-0.116 -0.148,-0.116 a 0.655,0.655 0 0 0 -0.138,0.015 z M 15.066,10.04518 a 0.69,0.69 0 0 0 -0.686,0.748 0.691,0.691 0 1 0 1.376,0 0.691,0.691 0 0 0 -0.69,-0.748 z m -2.397,0.003 a 0.721,0.721 0 0 0 -0.633,0.382 v 0.729 a 0.71,0.71 0 0 0 0.633,0.382 0.692,0.692 0 0 0 0.689,-0.747 0.692,0.692 0 0 0 -0.689,-0.746 z M 21.711,8.6271796 H 9.1410003 a 0.287,0.287 0 0 0 -0.286,0.283 V 12.62218 a 0.286,0.286 0 0 0 0.286,0.288 H 21.715 A 0.286,0.286 0 0 0 22,12.62518 V 8.9101796 a 0.292,0.292 0 0 0 -0.289,-0.283 z M 10.451,11.84218 a 2.439,2.439 0 0 1 -0.7859997,-0.137 c -0.025,-0.175 0.029,-0.267 0.132,-0.267 a 3.907,3.907 0 0 0 0.6619997,0.1 c 0.346,0 0.475,-0.121 0.475,-0.281 0,-0.114 -0.05,-0.215 -0.361,-0.3 l -0.358,-0.1 c -0.3999997,-0.1 -0.5509997,-0.3 -0.5509997,-0.547 0,-0.3 0.24,-0.5710004 0.7829997,-0.5710004 a 2.287,2.287 0 0 1 0.732,0.125 C 11.212,10.03518 11.158,10.12818 11.054,10.12818 a 3.87,3.87 0 0 0 -0.6,-0.089 c -0.322,0 -0.44,0.11 -0.44,0.253 0,0.1 0.047,0.193 0.333,0.275 l 0.365,0.1 c 0.407,0.113 0.572,0.3 0.572,0.571 0,0.322 -0.243,0.604 -0.833,0.604 z m 2.286,0 a 0.86,0.86 0 0 1 -0.7,-0.346 v 0.849 c 0,0.078 -0.046,0.131 -0.182,0.131 a 0.566,0.566 0 0 1 -0.164,-0.018 V 9.7841796 a 0.815,0.815 0 0 1 0.164,-0.018 c 0.136,0 0.182,0.049 0.182,0.132 V 10.09018 a 0.854,0.854 0 0 1 0.7,-0.3460004 0.984,0.984 0 0 1 0.971,1.0500004 0.982,0.982 0 0 1 -0.971,1.05 z m 2.328,0 a 1.05,1.05 0 1 1 1.041,-1.051 1.021,1.021 0 0 1 -1.041,1.053 z m 2.506,-1.742 a 0.722,0.722 0 0 0 -0.685,0.449 v 1.141 c 0,0.085 -0.046,0.131 -0.186,0.131 a 0.611,0.611 0 0 1 -0.161,-0.018 V 9.7841796 a 0.857,0.857 0 0 1 0.161,-0.018 c 0.139,0 0.186,0.049 0.186,0.132 V 10.17918 a 0.856,0.856 0 0 1 0.871,-0.4000004 1.054,1.054 0 0 1 0.018,0.155 c 0,0.1380004 -0.058,0.1680004 -0.204,0.1680004 z m 1.129,1.743 a 0.583,0.583 0 0 1 -0.639,-0.628 V 9.4781796 c 0,-0.089 0.05,-0.146 0.186,-0.146 a 0.9,0.9 0 0 1 0.161,0.021 v 0.439 H 19.2 a 1.016,1.016 0 0 1 0.015,0.139 c 0,0.1210004 -0.05,0.1640004 -0.125,0.1640004 h -0.671 v 1.1 c 0,0.236 0.111,0.35 0.332,0.35 a 2.492,2.492 0 0 0 0.411,-0.089 c 0.095,0 0.148,0.084 0.126,0.252 a 1.333,1.333 0 0 1 -0.588,0.135 z m 1.639,0 a 2.428,2.428 0 0 1 -0.785,-0.137 c -0.025,-0.175 0.028,-0.267 0.132,-0.267 a 3.909,3.909 0 0 0 0.66,0.1 c 0.346,0 0.475,-0.121 0.475,-0.281 0,-0.114 -0.05,-0.215 -0.361,-0.3 l -0.357,-0.1 c -0.4,-0.1 -0.55,-0.3 -0.55,-0.547 0,-0.3 0.239,-0.5710004 0.782,-0.5710004 a 2.291,2.291 0 0 1 0.731,0.125 C 21.099,10.03618 21.045,10.12918 20.941,10.12918 a 3.829,3.829 0 0 0 -0.6,-0.089 c -0.321,0 -0.439,0.11 -0.439,0.253 0,0.1 0.047,0.193 0.333,0.275 l 0.364,0.1 c 0.406,0.113 0.571,0.3 0.571,0.571 0.006,0.321 -0.237,0.603 -0.826,0.603 z m -17.7469997,-0.879 0.465,0.089 c 0.17,0.033 0.257,0.071 0.257,0.163 0,0.071 -0.066,0.145 -0.284,0.145 -0.2,0 -0.465,-0.03 -0.635,-0.03 -0.17,0 -0.337,0.073 -0.337,0.394 a 0.688,0.688 0 0 0 0.015,0.128 6.008,6.008 0 0 0 1.111,0.034 c 0.489,-0.053 0.73,-0.32 0.73,-0.688 0,-0.317 -0.2,-0.577 -0.652,-0.66 l -0.443,-0.082 c -0.142,-0.025 -0.231,-0.057 -0.231,-0.138 0,-0.081 0.094,-0.138 0.32,-0.138 0.226,0 0.417,0.023 0.542,0.023 0.163,0 0.333,-0.069 0.333,-0.3900004 a 0.558,0.558 0 0 0 -0.013,-0.123 5,5 0 0 0 -1.047,-0.034 c -0.479,0.053 -0.723,0.3400003 -0.723,0.6830004 a 0.657,0.657 0 0 0 0.592,0.624 z m 2.119,0.63 V 8.8941796 a 0.7,0.7 0 0 0 -0.145,-0.015 c -0.388,0 -0.456,0.207 -0.456,0.406 V 11.89918 a 1.055,1.055 0 0 0 0.138,0.01 c 0.386,-0.005 0.463,-0.119 0.463,-0.315 z m 1.117,0.316 a 0.879,0.879 0 0 0 0.343,-0.065 l -0.719,-1.079 0.509,-0.539 0.839,1.308 -0.51,1.068 a 0.705,0.705 0 0 0 0.285,0.061 0.412,0.412 0 0 0 0.437,-0.281 l 1.199,-2.6730004 a 0.667,0.667 0 0 0 -0.249,-0.058 0.477,0.477 0 0 0 -0.494,0.3440003 l -0.389,0.9140001 -0.763,-1.2360004 a 1.122,1.122 0 0 0 -0.258,-0.036 0.7,0.7 0 0 0 -0.576,0.272 l -0.742,0.8090004 0.6,0.937 a 0.531,0.531 0 0 0 0.488,0.254 z m 16.0859997,1.47 v 3.53 a 0.2,0.2 0 0 1 -0.2,0.2 H 2.2850003 a 0.2,0.2 0 0 1 -0.2,-0.2 v -3.53 a 0.281,0.281 0 0 1 -0.086,-0.2 v 3.73 a 0.286,0.286 0 0 0 0.285,0.286 H 21.714 A 0.286,0.286 0 0 0 22,16.91018 v -3.734 a 0.289,0.289 0 0 1 -0.086,0.204 z"/>

</svg>