<svg xmlns="http://www.w3.org/2000/svg" viewBox="0 0 24 24"><path fill="#44739e" d="M2.508 13.993c-.067-.017-.104-.033-.081-.036s-.02-.041-.093-.086-.153-.126-.178-.181c-.026-.056-.06-.093-.076-.083-.06.039-.08-.325-.08-1.606 0-1.28.019-1.644.08-1.606.017.01.05-.027.076-.082s.105-.137.178-.181c.073-.045.115-.083.093-.086s.016-.018.086-.034c.136-.033.39-.01.364.033-.009.014.444.28 1.007.592 1.47.815 1.663.934 1.744 1.072.089.153.09.38.004.563-.076.16-.11.181-1.71 1.07-.583.325-1.052.604-1.042.62s-.017.031-.062.031-.104.007-.134.016a.5.5 0 0 1-.176-.016m1.4-1.305c.8-.447 1.1-.634 1.1-.687s-.3-.24-1.1-.686c-.604-.338-1.134-.614-1.178-.614-.078 0-.08.036-.08 1.3s.002 1.301.08 1.301c.044 0 .574-.276 1.179-.614m2.416 1.284c.014-.037.025-.247.025-.468v-.401l.977-.012c.815-.01.984-.023 1.016-.073.057-.09.048-.471-.011-.52-.03-.025-.364-.048-.806-.056l-.756-.014-.153-.117c-.238-.182-.267-.294-.267-1.062 0-.482.016-.711.057-.808.062-.15.258-.35.342-.35.03 0 .043-.016.031-.036-.04-.066.278-.085 1.4-.086h1.117l-.012.437c-.006.24-.02.46-.029.487-.012.037-.266.053-1.004.06l-.987.012v.569l.774.02c.675.018.79.03.894.099.3.197.36.42.337 1.245-.019.64-.056.77-.267.928-.062.047-.14.108-.172.136-.045.038-.375.055-1.296.064-1.13.011-1.234.007-1.21-.054m3.957.033c-.062-.01-.102-.033-.09-.052.011-.02-.015-.047-.058-.06-.123-.04-.322-.29-.348-.438-.012-.073-.027-.887-.032-1.81l-.01-1.676h.935l-.011 1.525-.012 1.524.106.04c.058.023.397.04.753.04h.647v.404c0 .222.011.432.025.467.022.058-.071.064-.884.059-.5-.004-.959-.014-1.02-.023Zm2.399-1.727c.012-1.727.013-1.758.102-1.917a.7.7 0 0 1 .232-.236c.078-.04.124-.077.102-.08-.022-.002.014-.018.082-.035.067-.017.487-.031.934-.031s.868.014.935.03c.067.018.104.034.082.036-.023.003.023.037.1.076.205.103.316.293.345.591.013.14.028.943.033 1.787l.01 1.535h-.935l.01-.478c.007-.269-.005-.504-.028-.538-.047-.07-.615-.109-.923-.063l-.184.028.027 1.05h-.935Zm2.001-.277c.047-.074.052-.934.006-1.007-.025-.039-.166-.05-.559-.04l-.525.01-.011.536c-.01.484-.005.538.06.556.04.011.28.017.532.013.358-.005.467-.02.497-.068m1.411.356c.005-.922.02-1.737.033-1.81.025-.147.224-.398.347-.437.044-.014.07-.04.06-.058-.042-.066.317-.082 1.786-.082 1.438 0 1.828.017 1.79.077-.009.016.046.062.123.103.084.045.17.14.22.242.076.157.08.267.092 1.904l.011 1.738h-.935v-3.07l-.411-.01c-.399-.012-.413-.01-.437.08-.043.163-.03 2.918.015 2.918a.04.04 0 0 1 .04.041c0 .025-.196.04-.508.04-.311 0-.508-.015-.508-.04a.04.04 0 0 1 .041-.04c.045 0 .058-2.755.015-2.919-.024-.09-.038-.092-.437-.08l-.411.01v3.07h-.935Zm4.889 1.636a.04.04 0 0 1 .04-.04c.025 0 .041-.17.041-.427v-.427h.424c.3 0 .429-.015.443-.051.012-.028.022.182.024.467l.003.519h-.487c-.299 0-.488-.016-.488-.04m.518-1.534-.437-.013v-1.198c0-.771-.014-1.198-.04-1.198a.04.04 0 0 1-.041-.04c0-.025.19-.041.488-.041h.487v1.26c0 .693-.004 1.256-.01 1.252a6 6 0 0 0-.447-.022m-19.094 1.5a1 1 0 0 1-.264-.228l-.122-.152-.012-1.53c-.012-1.719-.017-1.685.291-1.934a.57.57 0 0 1 .652-.042c.066.043.678.39 1.362.772 1.116.623 1.252.71 1.334.854a.8.8 0 0 1 .091.302.75.75 0 0 1-.238.477 50 50 0 0 1-1.28.732l-1.341.753c-.162.09-.297.09-.473-.005Zm1.615-1.368c.614-.342.946-.55.946-.591 0-.078-2.124-1.27-2.228-1.25-.063.012-.07.123-.08 1.227-.008.867.003 1.23.036 1.27.04.047.074.041.214-.037Zm2.296.967.011-.48.996-.022a32 32 0 0 0 1.008-.03 1.5 1.5 0 0 0 0-.262l-.012-.255-.752-.021c-.814-.023-.923-.05-1.094-.268-.147-.187-.174-.368-.16-1.073.016-.76.044-.847.338-1.047l.164-.11 1.255-.013c1.148-.011 1.253-.007 1.23.054-.014.037-.026.257-.026.49v.423h-.974c-1.09 0-1.058-.009-1.058.3 0 .277-.018.27.698.27.882 0 1.055.05 1.25.37.077.126.084.2.084.86 0 .832-.022.92-.287 1.13l-.177.14-2.506.024Zm3.944.441c-.138-.04-.366-.236-.447-.383-.064-.118-.073-.303-.083-1.889L9.718 9.97h.979l.021 3.069 1.483.022v.423c0 .232.011.451.025.487.022.057-.075.063-.924.06-.522-.002-.99-.016-1.041-.03m2.379-1.703c.01-1.66.014-1.745.095-1.911a.6.6 0 0 1 .158-.213.8.8 0 0 0 .145-.111c.065-.065.173-.072 1.092-.072.846 0 1.033.01 1.096.061.21.17.348.34.368.459.013.072.027.894.032 1.828l.01 1.697h-.976l.014-.47c.01-.325-.002-.487-.036-.528-.037-.045-.155-.06-.506-.06s-.47.015-.507.06c-.034.041-.045.203-.035.529l.013.469h-.975Zm1.992-.303c.067-.067.067-.933 0-1s-.933-.067-1 0-.067.933 0 1 .933.067 1 0m1.43.372c0-1.102.016-1.73.046-1.85.06-.241.335-.49.578-.526.093-.014.892-.02 1.775-.012l1.605.012.147.1c.081.054.19.163.244.24l.097.142.024 3.563h-.959l.012-1.463c.008-.985-.003-1.49-.032-1.545-.038-.071-.085-.081-.383-.081-.24 0-.353.016-.386.056-.034.042-.044.462-.035 1.545l.011 1.488h-.975l.011-1.488c.009-1.083 0-1.503-.035-1.545-.034-.04-.146-.056-.386-.056-.298 0-.345.01-.383.081-.03.055-.04.56-.032 1.545l.012 1.463h-.956Zm4.953 1.191a10 10 0 0 1 .02-.484 9 9 0 0 1 .485-.02l.477-.014v.996h-.996Zm.026-1.118c-.01-.028-.023-.595-.029-1.26l-.01-1.21h.995v2.521h-.469c-.338 0-.473-.014-.487-.05m-18.578 1.57c-.046-.01-.165-.101-.264-.202l-.18-.182v-3.248l.192-.191c.18-.18.205-.192.407-.193.204-.001.28.035 1.475.705 1.384.775 1.496.847 1.585 1.02a.7.7 0 0 1-.019.598c-.101.167-.15.197-1.606 1.009-1.191.664-1.357.735-1.59.684m1.406-1.351c.593-.332 1.078-.628 1.078-.657 0-.054-2.109-1.257-2.206-1.258-.04 0-.05.278-.05 1.26 0 .98.01 1.26.05 1.259.028 0 .536-.272 1.128-.604m2.431.92c.007-.252.02-.48.03-.509.012-.039.247-.05.989-.05 1.079 0 1.022.015 1.022-.28 0-.083-.022-.173-.05-.2-.033-.034-.256-.049-.738-.049-.817 0-.97-.046-1.144-.343-.097-.166-.1-.198-.1-.9 0-.824.023-.912.298-1.132l.156-.125 2.553-.025v.465c0 .337-.015.477-.054.51-.035.029-.387.048-1.006.055l-.952.011v.488l.752.02c.814.022.92.048 1.094.27.143.18.174.395.16 1.092-.013.634-.018.662-.123.821a.8.8 0 0 1-.287.251c-.17.082-.238.087-1.395.087H6.288Zm3.93.427c-.147-.036-.353-.223-.43-.392-.07-.155-.076-.296-.076-1.905l-.001-1.738h.974L10.719 13l.723.011c.526.008.726.025.739.061.009.028.022.256.029.507l.012.458-.955-.005a16 16 0 0 1-1.036-.025m2.409-1.728c.013-1.967.007-1.922.308-2.162l.156-.125h2.058l.156.126c.33.267.318.184.33 2.16l.013 1.759h-1l.014-.409c.023-.647.057-.608-.543-.608h-.507v1.017h-.996Zm2.017-.34c.014-.034.025-.234.025-.443s-.011-.408-.025-.444c-.02-.054-.106-.064-.528-.064h-.504v1.013h.504c.422 0 .507-.01.528-.064m1.407.339c0-1.973-.009-1.911.303-2.163l.151-.123h3.603l.154.124c.304.247.297.195.31 2.163l.011 1.758h-.995l-.021-3.029-.752-.023v3.052h-1.016v-3.054l-.752.023-.022 3.029h-.974Zm4.918 1.3c0-.304.017-.477.05-.509.031-.032.204-.049.507-.049h.46v1.017h-1.017Zm.025-1.15c-.014-.036-.025-.603-.025-1.26V9.969h1.016v2.52h-.483c-.403 0-.487-.01-.508-.064m-18.633 1.54a.8.8 0 0 1-.244-.209l-.109-.143-.011-1.559c-.01-1.39-.005-1.574.056-1.702a.66.66 0 0 1 .536-.372c.184-.016.242.011 1.513.716.726.403 1.38.788 1.45.856.262.246.27.633.019.884-.091.09-2.112 1.248-2.677 1.532a.6.6 0 0 1-.533-.003m1.781-1.483c.455-.254.752-.444.752-.48 0-.068-2.125-1.271-2.181-1.236-.04.024-.047 2.429-.007 2.468.028.028.207-.065 1.436-.752m2.114 1.097c0-.253.015-.482.033-.51.023-.037.289-.053 1.005-.06l.974-.012.012-.22q.014-.22-.04-.253c-.03-.018-.359-.034-.732-.034-.703 0-.84-.025-1.002-.176-.212-.198-.23-.28-.23-1.065 0-.724.001-.733.111-.92a.65.65 0 0 1 .288-.275c.166-.08.24-.085 1.404-.085H9.32l-.011.498-.012.498-1.992.04-.012.197c-.02.31-.017.312.796.312.686 0 .72.003.886.1.297.175.342.327.342 1.154 0 .794-.034.92-.311 1.131l-.15.114-2.587.025Zm3.902.41a.95.95 0 0 1-.39-.37c-.047-.09-.057-.435-.057-1.88v-1.77h.975l.001 1.473c0 .81.015 1.496.032 1.524.023.035.24.053.762.06l.729.012.011.498.012.498-.986-.003c-.552-.001-1.032-.02-1.089-.043Zm2.447-1.737.011-1.781.11-.165a.76.76 0 0 1 .287-.25c.165-.081.243-.087 1.101-.087 1.14 0 1.277.04 1.454.427.069.15.075.301.076 1.9v1.738h-1.013l-.011-.498-.012-.498h-.975l-.012.498-.011.498h-1.017Zm2.003-.759v-.488h-.976l-.011.445c-.007.244-.002.469.01.5.016.042.127.051.499.042l.478-.011Zm1.41.783c.013-1.75.013-1.76.106-1.922a1 1 0 0 1 .241-.264l.148-.1 1.745-.012c1.71-.011 1.75-.01 1.924.075.125.06.212.143.29.275l.111.19.013 1.758.012 1.758h-1.022l-.02-3.029h-.733l-.02 3.029h-1.015l-.021-3.029h-.732l-.021 3.029h-1.02Zm4.96 1.26.012-.498.996-.023v1.019h-1.02Zm.019-1.074c-.015-.015-.027-.582-.027-1.26V9.969h1.016v2.52h-.481c-.265 0-.493-.012-.508-.027M2.338 13.951a.53.53 0 0 1-.254-.26c-.08-.164-.084-.242-.084-1.69 0-1.451.004-1.528.084-1.693a.62.62 0 0 1 .626-.33c.222.025 2.65 1.355 2.874 1.575.251.246.26.622.021.876-.078.084-.638.42-1.424.857-1.44.799-1.521.828-1.843.664m1.543-1.334c.575-.32 1.046-.598 1.046-.617 0-.032-2.038-1.185-2.144-1.212-.04-.01-.051.247-.051 1.212s.01 1.223.051 1.213c.028-.008.522-.276 1.098-.596m2.396.918.012-.498.996-.022a32 32 0 0 0 1.008-.03 1 1 0 0 0 0-.223l-.013-.213-.755-.02c-.735-.02-.76-.024-.92-.13-.29-.192-.337-.352-.336-1.153.001-.882.065-1.052.457-1.216.123-.051.364-.062 1.37-.062h1.221v1.015l-1.971.021-.025.468h.663c.728 0 .901.03 1.093.193.216.18.24.294.24 1.113 0 .714-.003.745-.101.912a.64.64 0 0 1-.277.257c-.167.081-.24.086-1.425.086H6.266Zm3.833.421a.9.9 0 0 1-.238-.159c-.176-.197-.186-.31-.187-2.112l-.002-1.717h1.056l.021 3.028 1.483.022v1.015l-.985-.001c-.87-.001-1.005-.01-1.148-.076m2.507-1.728.012-1.806.125-.156c.216-.268.255-.277 1.298-.29.514-.007.994-.002 1.067.012.153.028.393.224.48.39.048.095.058.418.058 1.884v1.77h-1.016v-.483c0-.403-.01-.487-.064-.508-.122-.046-.852-.027-.903.024-.033.032-.05.205-.05.508v.46h-1.018Zm1.96-.252c.095-.037.095-.93 0-.967a3 3 0 0 0-.466-.025c-.356 0-.407.009-.444.079-.06.111-.055.827.006.888.052.052.782.071.904.025m1.447.319c0-1.6.007-1.75.075-1.9a.62.62 0 0 1 .381-.365c.223-.093 3.456-.093 3.679 0a.62.62 0 0 1 .38.365c.07.15.075.3.076 1.9l.001 1.738h-.508c-.28 0-.512-.005-.517-.01a67 67 0 0 1-.03-1.515l-.022-1.504-.299-.012c-.185-.007-.32.006-.355.036-.047.039-.057.304-.057 1.526v1.479h-1.017v-1.48c0-1.22-.01-1.486-.057-1.525-.035-.03-.17-.043-.355-.036l-.299.012-.022 1.504a67 67 0 0 1-.03 1.514 7 7 0 0 1-.517.01h-.508Zm4.958 1.23v-.509h1.016v1.017h-1.016Zm.027-1.023c-.015-.015-.027-.592-.027-1.28V9.968h1.016v2.56h-.48c-.265 0-.494-.011-.509-.026M2.362 13.98C2.005 13.82 2 13.794 2 11.998c0-1.1.014-1.57.049-1.651.148-.348.5-.464.916-.303.332.128 2.546 1.384 2.661 1.51a.656.656 0 0 1 0 .895c-.103.112-2.261 1.344-2.643 1.509-.196.084-.46.094-.621.022m1.495-1.374c.566-.316 1.03-.59 1.03-.607 0-.038-2.04-1.177-2.108-1.177-.034 0-.047.32-.047 1.18 0 .867.013 1.178.047 1.178.026 0 .511-.258 1.078-.574m2.396 1.363c-.042-.107-.028-.83.017-.914.04-.074.095-.078 1.018-.078h.977l-.025-.427-.752-.02c-.79-.022-.838-.032-1.021-.23-.192-.208-.213-.29-.231-.912-.026-.889.064-1.183.415-1.342.15-.068.285-.076 1.412-.076 1.099-.001 1.248.006 1.27.063.023.06.037.942.015.96a32 32 0 0 1-1.006.03l-.996.023v.406l.752.02c.855.024.939.049 1.128.334.11.165.112.182.125.88.014.788-.02.96-.227 1.152-.196.182-.31.196-1.617.196-1.084 0-1.233-.008-1.254-.065m3.81-.016a.58.58 0 0 1-.275-.255l-.105-.18v-3.55h1.056l.01 1.494.011 1.494.709.011c.438.007.728.029.761.056.056.047.08.814.029.946-.022.056-.149.064-1.025.062-.883-.003-1.022-.012-1.171-.079Zm2.529.016c-.045-.12-.027-3.262.021-3.452.055-.217.252-.443.439-.504.19-.06 1.98-.06 2.162.002a.67.67 0 0 1 .407.38c.07.15.075.297.076 1.837 0 .92-.01 1.702-.024 1.737-.036.096-1.011.096-1.048 0a3 3 0 0 1-.024-.487v-.424h-.935v.424c0 .233-.012.452-.025.487-.037.096-1.011.096-1.048 0Zm2.009-2.476v-.467h-.935v.935h.935Zm1.4 2.445c-.013-.052-.018-.843-.011-1.758l.013-1.662.102-.183a.6.6 0 0 1 .284-.273c.18-.088.21-.09 1.931-.09 1.72 0 1.75.002 1.931.09.13.064.212.142.285.273l.101.183.013 1.664c.007.915.002 1.706-.011 1.758-.023.092-.034.094-.55.094h-.528l-.01-1.494-.011-1.494-.671-.024v1.442c0 .793-.011 1.47-.025 1.505-.036.096-1.011.096-1.048 0-.014-.035-.025-.713-.025-1.505v-1.443l-.67.024-.011 1.494-.01 1.494h-.528c-.52 0-.527-.002-.55-.096Zm4.966.031c-.047-.121-.028-.892.024-.943.05-.052.822-.071.943-.024.054.02.065.106.065.528v.504h-.504c-.422 0-.508-.01-.528-.065m.002-1.466c-.034-.034-.036-2.382-.002-2.47.02-.054.106-.064.528-.064h.504v2.56h-.502c-.275 0-.513-.011-.528-.026M2.347 13.986c-.342-.124-.352-.183-.337-2.066.013-1.716.017-1.75.256-1.869.13-.065.526-.077.731-.021.158.042 2.49 1.342 2.616 1.457.147.135.21.288.21.514s-.063.38-.21.514c-.13.12-2.463 1.417-2.616 1.456-.214.054-.524.061-.65.015m1.492-1.405c.553-.308 1.006-.569 1.006-.58 0-.024-1.998-1.138-2.041-1.138-.017 0-.03.512-.03 1.138s.013 1.138.03 1.138c.015 0 .482-.251 1.035-.558m2.415 1.388c-.014-.035-.025-.27-.025-.523 0-.442.003-.46.091-.484.05-.014.509-.025 1.019-.025h.927l-.012-.174-.013-.172-.755-.02c-.714-.02-.763-.026-.898-.119a1.1 1.1 0 0 1-.24-.24c-.095-.138-.1-.176-.111-.926-.012-.71-.006-.797.067-.938.183-.36.275-.38 1.805-.38 1.094 0 1.244.008 1.266.065.013.035.024.263.024.507 0 .396-.008.447-.078.484-.048.026-.448.042-1.016.042h-.938v.366h.703c.648 0 .717.007.883.092a.9.9 0 0 1 .304.267l.122.177v.779c0 .774 0 .78-.11.967-.178.303-.272.32-1.753.32-1.091 0-1.24-.008-1.262-.065m3.816.006a.52.52 0 0 1-.284-.223l-.122-.172-.012-1.714c-.006-.943-.001-1.755.011-1.806.022-.089.037-.091.546-.091.44 0 .527.01.548.064.013.035.025.703.025 1.484v1.42h.7c.386 0 .729.018.762.039.091.057.114.909.027.996-.052.052-.217.061-1.049.057-.656-.002-1.044-.02-1.152-.054m2.519-.033c-.013-.05-.018-.872-.011-1.825l.011-1.734.123-.152c.19-.235.335-.26 1.442-.261 1.058 0 1.199.024 1.388.236.061.068.13.194.154.279.027.097.043.768.043 1.794 0 1.366-.009 1.648-.057 1.697-.084.083-.98.083-1.063 0-.043-.043-.058-.167-.058-.468v-.41h-.854v.404c0 .222-.01.432-.024.467-.021.054-.109.065-.548.065-.51 0-.524-.003-.546-.092m1.972-2.449v-.427h-.854v.854h.854Zm1.447 2.476c-.013-.035-.024-.826-.024-1.758.001-1.556.007-1.707.076-1.856.174-.379.217-.386 2.26-.386 2.034 0 2.074.006 2.261.374.072.141.077.263.077 1.857 0 .938-.01 1.734-.024 1.77-.037.095-1.052.095-1.09 0-.013-.036-.024-.704-.024-1.484v-1.42h-.61v1.426c0 1.181-.01 1.435-.058 1.484-.083.083-.98.083-1.062 0-.048-.049-.058-.303-.058-1.484v-1.426h-.61v1.42c0 .78-.011 1.448-.025 1.483-.037.096-1.052.096-1.089 0m4.945.004c-.08-.091-.07-.89.013-.973.088-.088.888-.093.976-.006.043.044.058.178.058.549v.49h-.498c-.378-.002-.51-.016-.55-.06m-.009-1.481c-.026-.05-.042-.518-.042-1.243 0-.955.01-1.175.058-1.222.044-.044.178-.058.549-.058h.491v1.276c0 1.126-.007 1.279-.064 1.3-.035.014-.263.025-.506.025-.396 0-.447-.008-.485-.078"/></svg>