<?xml version="1.0" encoding="UTF-8" standalone="no"?>
<!-- Created with Inkscape (http://www.inkscape.org/) -->

<svg
   width="24"
   height="24"
   viewBox="0 0 24 24"
   version="1.1"
   xmlns="http://www.w3.org/2000/svg"
   xmlns:svg="http://www.w3.org/2000/svg">
  <path
     style="fill:#44739e"
     d="M 10.915874,23.230051 C 8.8114586,23.014349 6.8594959,22.245384 5.1419555,20.955448 4.5754743,20.529997 3.5578213,19.527488 3.1280098,18.971468 1.7849832,17.234076 1.0208521,15.352265 0.77548569,13.177958 0.69299891,12.447002 0.74192887,10.840094 0.8682956,10.130961 1.2917886,7.7541299 2.3385441,5.7261987 4.00849,4.0472982 5.7276785,2.3188898 7.9210107,1.2123702 10.373658,0.83611704 c 0.774284,-0.1187821 2.457275,-0.12026623 3.229734,-0.002848 2.447733,0.37207396 4.645971,1.47518916 6.368751,3.19596036 1.832862,1.8307207 2.976218,4.2289531 3.252763,6.8227876 0.08137,0.762981 0.03415,2.279739 -0.09358,3.00374 -0.888106,5.035617 -4.880086,8.798328 -9.928681,9.358445 -0.394342,0.044 -1.911934,0.05451 -2.286746,0.01577 z m 1.26579,-3.209513 c 0.125297,-0.106054 3.35394,-6.36644 3.354459,-6.504392 6.11e-4,-0.162858 -0.09364,-0.328804 -0.219204,-0.386001 -0.08064,-0.03677 -1.072413,-0.05254 -3.323547,-0.05254 H 8.7847245 l -0.1603047,0.160298 c -0.2282919,0.228331 -0.2160836,0.391519 0.069917,0.934754 0.1266225,0.240478 0.8506947,1.636063 1.6090482,3.101231 0.758352,1.465168 1.420926,2.701073 1.472378,2.746448 0.05123,0.04531 0.14191,0.08255 0.200946,0.08255 0.0591,0 0.151303,-0.03743 0.204954,-0.08255 z m 3.162883,-9.15696 c 0.119058,-0.0637 0.208893,-0.305098 0.170477,-0.458107 C 15.488104,10.298956 12.422886,4.3146565 12.265569,4.0618768 12.187679,3.9367773 11.96822,3.861652 11.844763,3.9179303 c -0.07421,0.034148 -0.546892,0.9001645 -1.643659,3.0123689 -0.8467404,1.6307122 -1.5839624,3.054259 -1.6382712,3.1634338 -0.1540925,0.309762 -0.1191499,0.548337 0.1071586,0.731645 0.093079,0.07539 0.3421486,0.08156 3.3451896,0.08255 1.989101,6.44e-4 3.277402,-0.01642 3.329353,-0.04466 z"
     />
</svg>
