<?xml version="1.0" encoding="UTF-8"?>
<svg width="24px" fill="#44739e" height="24px" viewBox="0 0 24 24" version="1.1" xmlns="http://www.w3.org/2000/svg" xmlns:xlink="http://www.w3.org/1999/xlink">
            <path d="M 18.248,5.428 C 18.142,5.553 18.042,5.67 17.934,5.803 L 16.45,7.736 v 0.318 h 2.632 V 7.62 h -1.961 l 0.15,-0.175 c 0.117,-0.138 0.216,-0.261 0.31,-0.388 v 0 L 19.048,5.15 19.054,4.804 h -2.468 v 0.441 h 1.821 z M 20.435,5.666 20.59,5.49 c 0.081,-0.093 0.149,-0.176 0.216,-0.263 l 1.167,-1.458 0.005,-0.258 h -1.956 v 0.327 h 1.455 L 21.32,4.015 C 21.245,4.1 21.171,4.184 21.094,4.276 l -1.18,1.475 V 5.988 H 22 V 5.666 Z m -4.778,4.692 h -2.589 l 0.155,-0.176 C 13.394,9.988 13.536,9.815 13.67,9.639 v 0 L 15.611,7.173 15.62,6.718 H 12.339 V 7.3 h 2.4 l -0.2,0.229 C 14.398,7.69 14.265,7.843 14.124,8.013 l -1.967,2.5 v 0.42 h 3.5 z M 5.253,15.781 a 7.186,7.186 0 0 0 10.172,1.7 8.088,8.088 0 0 1 -7.71,-3.539 8.579,8.579 0 0 1 -0.468,-8.031 7.179,7.179 0 0 0 -1.994,9.87 z M 15.425,11.949 A 0.189,0.189 0 0 0 15.237,11.76 H 11.786 A 0.841,0.841 0 0 0 11.22,11.194 V 5.957 A 0.232,0.232 0 0 0 10.988,5.725 0.246,0.246 0 0 0 10.741,5.972 v 5.222 a 0.841,0.841 0 1 0 1.045,1.046 h 3.44 a 0.2,0.2 0 0 0 0.2,-0.2 z M 17.579,7.408 H 18.7 A 9.035,9.035 0 0 0 18.181,6.632 L 17.757,7.184 C 17.7,7.259 17.639,7.332 17.579,7.408 Z m 0.382,0.859 A 7.948,7.948 0 1 1 16.921,6.773 L 17.58,5.916 C 17.433,5.757 17.28,5.603 17.124,5.456 H 16.373 V 4.823 a 8.968,8.968 0 1 0 2.775,3.444 z"/>

</svg>