<?xml version="1.0" encoding="UTF-8"?>
<svg width="24px" fill="#44739e" height="24px" viewBox="0 0 24 24" version="1.1" xmlns="http://www.w3.org/2000/svg" xmlns:xlink="http://www.w3.org/1999/xlink">
            <path d="M 21.21,2 H 1.991 V 22 H 22.009 V 2 Z M 11.228,21.216 H 2.777 v -0.577 h 8.451 z m 0,-1.238 H 2.777 V 19.4 h 8.451 z m 0,-1.218 H 2.777 v -0.577 h 8.451 z m 0,-1.238 H 2.777 v -0.577 h 8.451 z m 0,-1.208 H 2.777 v -0.577 h 8.451 z m 0,-1.255 H 2.777 v -0.577 h 8.451 z m 0,-1.2 H 2.777 v -0.577 h 8.451 z M 5.528,12.08 V 11.6 h 2.95 v 0.48 z m 5.7,-1.356 H 2.777 v -0.577 h 8.451 z m 0,-1.238 H 2.777 v -0.58 h 8.451 z m 0,-1.218 H 2.777 v -0.58 h 8.451 z m 0,-1.238 H 2.777 V 6.451 h 8.451 z m 0,-1.208 H 2.777 v -0.58 h 8.451 z m 0,-1.255 H 2.777 v -0.58 h 8.451 z m 0,-1.2 H 2.777 V 2.784 h 8.451 z M 21.21,21.52 H 12.038 V 2.769 h 9.172 z"/>

</svg>