<?xml version="1.0" encoding="UTF-8"?>
<svg width="24px" fill="#44739e" height="24px" viewBox="0 0 24 24" version="1.1" xmlns="http://www.w3.org/2000/svg" xmlns:xlink="http://www.w3.org/1999/xlink">
            <path d="M 11.953,2 H 2 v 0.769 h 9.953 V 22 H 22 V 2 Z m 9.333,19.138 h -8.451 v -0.577 h 8.451 z m 0,-1.237 h -8.451 v -0.577 h 8.451 z m 0,-1.219 h -8.451 v -0.577 h 8.451 z m 0,-1.237 h -8.451 v -0.577 h 8.451 z m 0,-1.209 h -8.451 v -0.577 h 8.451 z m 0,-1.255 H 12.835 V 14.4 h 8.451 z m 0,-1.2 H 12.835 V 13.2 h 8.451 z M 15.585,12 v -0.481 h 2.95 V 12 Z m 5.7,-1.357 h -8.45 v -0.576 h 8.451 z m 0,-1.237 h -8.45 V 8.829 h 8.451 z m 0,-1.218 h -8.45 V 7.611 h 8.451 z m 0,-1.238 h -8.45 V 6.373 h 8.451 z m 0,-1.208 h -8.45 V 5.165 h 8.451 z m 0,-1.256 h -8.45 V 3.909 h 8.451 z m 0,-1.2 h -8.45 V 2.707 h 8.451 z"/>

</svg>