<svg xmlns="http://www.w3.org/2000/svg" viewBox="0 0 24 24"><path fill="#44739e" d="M21.202 2.009H2v19.982h20V2.009Zm-9.973 19.199H2.785v-.577h8.444Zm0-1.237H2.785v-.578h8.444Zm0-1.217H2.785v-.577h8.444Zm0-1.237H2.785v-.576h8.444Zm0-1.207H2.785v-.576h8.444Zm0-1.254H2.785v-.576h8.444Zm0-1.199H2.785v-.576h8.444ZM5.534 12.08v-.48h2.947v.48Zm5.695-1.355H2.785v-.576h8.444Zm0-1.237H2.785v-.579h8.444Zm0-1.217H2.785v-.579h8.444Zm0-1.237H2.785v-.578h8.444Zm0-1.206H2.785v-.58h8.444Zm0-1.254H2.785v-.58h8.444Zm0-1.199H2.785v-.583h8.444Zm9.973 18.136h-9.164V2.777h9.164Z"/></svg>