<?xml version="1.0" encoding="UTF-8"?>
<svg width="24px" fill="#44739e" height="24px" viewBox="0 0 24 24" version="1.1" xmlns="http://www.w3.org/2000/svg" xmlns:xlink="http://www.w3.org/1999/xlink">
<path d="m 16.365,17.218 h -0.187 l -0.45,-0.734 h -0.007 v 0.039 c 0.007,0.077 0.007,0.148 0.007,0.212 v 0.477 h -0.135 v -0.921 h 0.18 l 0.45,0.728 h 0.007 a 0.806,0.806 0 0 0 -0.007,-0.1 c 0,-0.058 -0.006,-0.11 -0.006,-0.142 v -0.483 h 0.135 v 0.927 z m -1.706,-0.463 a 0.524,0.524 0 0 1 -0.109,0.347 0.4,0.4 0 0 1 -0.316,0.123 0.407,0.407 0 0 1 -0.322,-0.123 0.618,0.618 0 0 1 0,-0.7 0.407,0.407 0 0 1 0.322,-0.123 0.4,0.4 0 0 1 0.316,0.123 0.519,0.519 0 0 1 0.109,0.353 z m -0.7,0 a 0.41,0.41 0 0 0 0.071,0.257 0.249,0.249 0 0 0 0.206,0.09 0.233,0.233 0 0 0 0.2,-0.083 0.528,0.528 0 0 0 0.006,-0.515 0.237,0.237 0 0 0 -0.2,-0.091 0.251,0.251 0 0 0 -0.206,0.091 0.366,0.366 0 0 0 -0.079,0.251 z m -1.251,0.463 V 16.3 h 0.148 v 0.921 z m -0.92,-0.251 a 0.232,0.232 0 0 1 -0.091,0.193 0.393,0.393 0 0 1 -0.244,0.071 0.617,0.617 0 0 1 -0.258,-0.051 v -0.142 a 0.89,0.89 0 0 0 0.135,0.045 0.521,0.521 0 0 0 0.129,0.019 0.225,0.225 0 0 0 0.129,-0.032 0.111,0.111 0 0 0 0.045,-0.09 0.127,0.127 0 0 0 -0.039,-0.09 0.479,0.479 0 0 0 -0.161,-0.084 0.442,0.442 0 0 1 -0.18,-0.116 0.261,0.261 0 0 1 -0.051,-0.154 0.212,0.212 0 0 1 0.083,-0.181 0.341,0.341 0 0 1 0.219,-0.064 0.646,0.646 0 0 1 0.264,0.058 l -0.045,0.122 a 0.628,0.628 0 0 0 -0.219,-0.051 0.173,0.173 0 0 0 -0.109,0.032 0.1,0.1 0 0 0 -0.039,0.084 0.2,0.2 0 0 0 0.013,0.064 c 0.006,0.019 0.026,0.032 0.052,0.045 0.026,0.013 0.064,0.032 0.122,0.058 a 0.66,0.66 0 0 1 0.148,0.077 0.312,0.312 0 0 1 0.071,0.084 0.178,0.178 0 0 1 0.026,0.1 z m -1.674,0.251 V 16.3 h 0.148 v 0.921 z M 9.077,16.3 H 9.232 L 8.91,17.221 H 8.749 L 8.427,16.3 h 0.154 l 0.193,0.573 a 1,1 0 0 1 0.033,0.1 0.4,0.4 0 0 1 0.019,0.1 0.772,0.772 0 0 1 0.026,-0.109 c 0.013,-0.045 0.019,-0.071 0.025,-0.091 z m -1.5,0.918 H 7.055 V 16.3 h 0.522 v 0.129 H 7.21 v 0.251 h 0.348 v 0.129 H 7.21 v 0.29 h 0.367 z m -1.957,0 V 16.3 h 0.148 v 0.792 h 0.386 v 0.129 z m -0.934,0 H 4.165 V 16.3 h 0.521 v 0.129 H 4.319 v 0.251 h 0.348 v 0.129 H 4.319 v 0.29 h 0.367 z m -1.68,0 H 2.858 V 16.426 H 2.587 V 16.3 h 0.689 v 0.129 H 3.006 Z M 9.2440004,9.8590002 H 10.422 V 14.72 H 9.2440004 Z M 19.7,17.276 c 1.378,-0.026 2.221,-0.843 2.221,-2.485 V 9.859 H 20.75 l 0.032,0.9 a 1.856,1.856 0 0 0 -1.739,-1 2.36,2.36 0 0 0 -2.253,2.521 2.381,2.381 0 0 0 2.279,2.543 1.819,1.819 0 0 0 1.681,-0.94 v 0.844 c 0,0.991 -0.355,1.538 -1.031,1.538 h -2.247 v 1 H 19.7 Z M 19.378,13.793 A 1.358,1.358 0 0 1 18,12.28 a 1.348,1.348 0 0 1 1.378,-1.48 1.365,1.365 0 0 1 1.41,1.481 1.375,1.375 0 0 1 -1.41,1.512 z M 12.65,6.724 a 1.875,1.875 0 0 1 0.367,1.2 2.025,2.025 0 0 1 -0.3,1.088 1.2,1.2 0 0 0 0.8,-1.133 1.214,1.214 0 0 0 -0.876,-1.159 z m -0.914,0.135 a 1.676,1.676 0 0 1 0.322,1.062 1.759,1.759 0 0 1 -0.264,0.96 1.06,1.06 0 0 0 -0.058,-2.022 z M 11,7.1 a 1.283,1.283 0 0 1 0.245,0.812 1.372,1.372 0 0 1 -0.2,0.733 A 0.809,0.809 0 0 0 11,7.1 Z m 0.479,2.759 h 1.171 l -0.025,0.9 a 1.755,1.755 0 0 1 1.641,-1 1.826,1.826 0 0 1 1.816,2.08 v 2.881 h -1.165 v -2.788 c 0,-0.7 -0.322,-1.1 -1,-1.1 A 1.164,1.164 0 0 0 12.65,12.08 v 2.64 H 11.479 Z M 9.058,7.863 A 0.769,0.769 0 0 1 9.83,7.1 0.77,0.77 0 1 1 9.058,7.866 Z M 7.017,7.22 h 1.172 v 7.5 H 7.017 Z m -4.938,6.599 0.8,-0.56 a 1.514,1.514 0 0 0 1.307,0.624 c 0.592,0 0.856,-0.2 0.856,-0.521 0,-0.393 -0.36,-0.451 -1.178,-0.683 C 3.149,12.479 2.428,12.145 2.428,11.186 2.428,10.227 3.2,9.75 4.165,9.75 a 2.2,2.2 0 0 1 1.687,0.727 l -0.683,0.67 a 1.318,1.318 0 0 0 -1,-0.476 c -0.438,0 -0.683,0.16 -0.683,0.45 0,0.374 0.3,0.451 1.063,0.65 0.763,0.199 1.6,0.5 1.6,1.526 0,0.831 -0.508,1.513 -1.886,1.513 A 2.443,2.443 0 0 1 2.087,13.819 Z"/>
</svg>