<?xml version="1.0" encoding="UTF-8"?>
<svg width="24px" fill="#44739e" height="24px" viewBox="0 0 24 24" version="1.1" xmlns="http://www.w3.org/2000/svg" xmlns:xlink="http://www.w3.org/1999/xlink">
            <path d="M 11.415,2.311 C 11.106,2.482 10.815,2.642 10.76,2.667 10.652,2.72 9.702,3.236 9.645,3.273 9.608,3.296 8.65,3.817 8.552,3.867 8.502,3.892 7.694,4.334 6.892,4.773 6.648,4.907 6.431,5.023 6.41,5.031 A 1.253,1.253 0 0 0 6.284,5.095 C 6.236,5.123 5.931,5.295 5.606,5.47 L 4.721,5.956 C 4.559,6.046 4.374,6.145 4.311,6.175 4.18,6.24 3.975,6.35 3.847,6.425 3.798,6.454 3.518,6.608 3.224,6.769 l -0.8,0.438 C 2.279,7.287 2.155,7.353 2.147,7.354 A 0.4,0.4 0 0 0 2.062,7.394 L 1.992,7.433 V 19.7 H 3.163 V 15.836 H 4.289 V 19.7 H 8.552 V 18.53 H 5.47 V 14.666 H 3.163 V 8.143 L 3.463,7.98 4.144,7.606 4.663,7.324 C 4.866,7.216 6,6.6 6.142,6.518 6.284,6.436 6.706,6.206 6.803,6.157 6.923,6.096 8.352,5.318 8.448,5.257 8.578,5.181 8.932,4.989 9.022,4.947 9.093,4.913 9.404,4.747 9.575,4.647 a 0.945,0.945 0 0 1 0.1,-0.051 c 0,0 0.005,0.288 0,0.64 V 5.877 L 9.5,5.974 C 9.406,6.025 9.232,6.118 9.112,6.179 8.992,6.24 8.804,6.341 8.696,6.401 8.588,6.461 8.254,6.645 7.953,6.809 7.652,6.973 7.377,7.125 7.341,7.147 7.241,7.208 6.967,7.354 6.955,7.354 6.943,7.354 6.198,7.754 6.188,7.769 6.178,7.784 5.939,7.908 5.641,8.069 5.343,8.23 5.061,8.385 5.013,8.414 A 1.236,1.236 0 0 1 4.808,8.523 c 0,0 -0.125,0.063 -0.266,0.139 l -0.256,0.14 v 4.738 h 2.681 v 3.76 h 1.169 v -3.88 c 0,-2.194 0,-3.88 -0.009,-3.88 A 1.3,1.3 0 0 0 8,9.611 1.111,1.111 0 0 1 7.865,9.683 c -0.007,0 -0.129,0.069 -0.27,0.152 L 7.155,10.093 6.972,10.2 v 2.16 H 5.47 V 10.933 9.506 L 5.76,9.346 C 6.578,8.896 7.293,8.506 7.36,8.472 7.465,8.419 8.408,7.906 8.46,7.872 8.512,7.838 9.338,7.39 9.527,7.292 9.716,7.194 10.727,6.644 10.792,6.601 L 10.855,6.562 V 3.946 l 0.117,-0.064 c 0.065,-0.035 0.135,-0.07 0.156,-0.079 0.046,-0.019 0.711,-0.38 0.8,-0.435 L 11.99,3.33 12.064,3.373 c 0.144,0.084 0.748,0.409 0.816,0.439 0.037,0.017 0.122,0.062 0.188,0.1 l 0.7,0.384 c 0.318,0.174 0.584,0.32 0.59,0.325 0.021,0.017 0.612,0.336 0.667,0.361 0.055,0.025 0.374,0.2 0.574,0.311 L 15.681,5.34 V 5.98 6.62 L 15.547,6.546 C 15.188,6.346 14.917,6.2 14.878,6.183 14.839,6.166 14.715,6.1 14.569,6.02 14.423,5.94 14.033,5.72 13.701,5.542 13.369,5.364 13.066,5.193 13.03,5.172 12.994,5.151 12.906,5.103 12.83,5.072 12.754,5.041 12.54,4.92 12.346,4.815 12.152,4.71 12,4.621 12,4.624 12,4.627 11.992,5.837 11.988,7.314 11.984,8.791 11.977,10 11.972,10 A 0.109,0.109 0 0 1 11.939,9.98 C 11.904,9.954 11.491,9.717 11.415,9.68 11.382,9.664 11.231,9.58 11.079,9.489 10.64,9.232 9.679,8.673 9.665,8.669 9.651,8.665 9.656,9.563 9.656,10.669 v 2 l 0.035,0.023 c 0.062,0.041 0.745,0.432 0.773,0.443 0.028,0.011 0.348,0.192 0.372,0.212 0.009,0.007 0.28,0.166 0.6,0.352 0.32,0.186 0.637,0.37 0.7,0.408 0.063,0.038 0.156,0.092 0.2,0.119 0.109,0.06 0.11,0.052 -0.011,0.113 -0.056,0.028 -0.156,0.083 -0.222,0.123 -0.066,0.04 -0.376,0.22 -0.688,0.4 -0.312,0.18 -0.576,0.337 -0.585,0.345 -0.009,0.008 -0.017,-0.016 -0.019,-0.279 v -0.3 l -0.052,-0.033 c -0.091,-0.058 -0.393,-0.229 -0.441,-0.251 -0.027,-0.012 -0.185,-0.1 -0.352,-0.2 -0.167,-0.1 -0.306,-0.176 -0.309,-0.176 -0.003,0 0,0.733 0,1.628 0,0.895 0,1.629 0,1.629 0,0 0.234,-0.131 0.511,-0.292 l 0.522,-0.3 1.2,-0.688 a 0.336,0.336 0 0 0 0.049,-0.032 c 0,0 0.181,-0.107 0.4,-0.23 0.614,-0.351 1.9,-1.093 1.974,-1.141 0.038,-0.024 0.156,-0.093 0.262,-0.154 a 1.561,1.561 0 0 0 0.192,-0.12 2.029,2.029 0 0 0 -0.219,-0.136 c -0.12,-0.07 -0.232,-0.137 -0.25,-0.149 -0.018,-0.012 -0.3,-0.174 -0.617,-0.36 -0.317,-0.186 -0.6,-0.346 -0.615,-0.357 -0.015,-0.011 -0.073,-0.044 -0.126,-0.071 -0.107,-0.056 -0.967,-0.55 -0.975,-0.561 -0.008,-0.011 -1.074,-0.623 -1.087,-0.623 A 0.078,0.078 0 0 1 10.837,12 l -0.023,-0.019 v -0.647 -0.646 l 0.06,0.035 0.109,0.062 c 0.1,0.054 0.959,0.549 1.022,0.59 0.112,0.071 1.033,0.6 1.045,0.6 a 0.579,0.579 0 0 1 0.119,0.065 2.043,2.043 0 0 0 0.381,0.2 L 13.8,12.1 c 0.746,-0.427 0.891,-0.512 0.891,-0.522 a 1.747,1.747 0 0 0 -0.21,-0.133 c -0.659,-0.383 -1.028,-0.594 -1.036,-0.594 -0.008,0 -0.076,-0.038 -0.157,-0.084 L 13.139,10.683 V 9.469 c 0,-0.668 0,-1.592 0.007,-2.052 l 0.008,-0.838 0.044,0.027 c 0.044,0.026 0.782,0.427 1.755,0.954 0.262,0.141 0.515,0.28 0.563,0.308 0.172,0.1 1.119,0.612 1.135,0.612 a 0.023,0.023 0 0 1 0.02,0.009 1.337,1.337 0 0 0 0.178,0.1 c 0,0 0.006,-0.585 0.006,-1.3 v -1.3 l 0.243,0.124 c 0.134,0.069 0.359,0.188 0.5,0.267 l 0.853,0.467 c 0.328,0.178 0.6,0.331 0.612,0.338 0.012,0.007 0.073,0.042 0.142,0.077 0.12,0.059 0.586,0.312 1.29,0.7 l 0.322,0.178 v 3.062 3.062 H 19.7 V 8.8 L 19.468,8.676 C 19.34,8.607 19.179,8.522 19.11,8.487 19.041,8.452 18.977,8.418 18.968,8.411 18.941,8.389 18.022,7.891 18.008,7.891 A 5.141,5.141 0 0 0 18,8.555 V 9.22 l 0.268,0.145 0.267,0.146 V 11 l -0.13,-0.076 a 1.312,1.312 0 0 0 -0.141,-0.076 c -0.012,0 -0.391,-0.218 -0.455,-0.262 C 17.785,10.57 17.509,10.405 17.186,10.22 16.863,10.035 16.55,9.85 16.481,9.808 16.412,9.766 16.328,9.72 16.295,9.708 16.229,9.677 15.568,9.297 15.481,9.24 15.394,9.183 14.31,8.557 14.301,8.557 c -0.009,0 -0.006,0.3 -0.006,0.675 v 0.674 l 0.04,0.027 c 0.022,0.014 0.3,0.176 0.614,0.359 0.314,0.183 0.6,0.349 0.63,0.369 0.03,0.02 0.109,0.065 0.175,0.1 0.131,0.069 0.918,0.523 0.944,0.545 0.026,0.022 0.507,0.3 1.511,0.874 l 0.325,0.187 v 3.065 h 2.3 v 5.4 H 19.7 v -4.264 h -1.17 v 4.263 H 10.858 V 19.7 h 6.547 v -1.17 h -3.312 v -1.06 l 0.074,-0.046 c 0.04,-0.025 0.334,-0.2 0.653,-0.381 l 0.623,-0.364 a 0.928,0.928 0 0 1 0.093,-0.052 c 0.052,-0.025 0.962,-0.551 1.054,-0.609 0.03,-0.019 0.224,-0.133 0.432,-0.254 l 0.377,-0.219 v -2.411 l -0.373,-0.216 c -0.206,-0.118 -0.381,-0.22 -0.388,-0.227 -0.027,-0.022 -0.8,-0.462 -0.81,-0.462 a 3.183,3.183 0 0 0 -0.309,0.175 c -0.024,0.016 -0.224,0.133 -0.446,0.262 a 4.389,4.389 0 0 0 -0.4,0.245 2.727,2.727 0 0 0 0.363,0.214 c 0.067,0.035 0.2,0.113 0.306,0.173 0.106,0.06 0.345,0.2 0.539,0.314 l 0.352,0.205 v 0.525 0.524 l -0.358,0.209 -0.546,0.32 c -0.1,0.061 -0.2,0.116 -0.218,0.122 -0.032,0.013 -0.728,0.413 -0.753,0.434 -0.009,0.007 -0.269,0.16 -0.579,0.339 -0.31,0.179 -0.583,0.339 -0.608,0.356 a 0.263,0.263 0 0 1 -0.056,0.031 0.688,0.688 0 0 0 -0.1,0.051 l -0.088,0.05 v 1.757 h -3.25 v 2.3 H 1.994 V 22 H 22.006 V 7.431 L 21.9,7.38 C 21.791,7.328 21.367,7.1 21.269,7.04 21.239,7.022 20.981,6.881 20.695,6.726 20.409,6.571 20.152,6.426 20.122,6.411 20.033,6.358 19.739,6.199 19.713,6.191 19.687,6.183 19.513,6.091 19.313,5.975 18.307,5.423 17.778,5.135 17.584,5.032 17.466,4.97 17.201,4.825 16.993,4.712 16.278,4.319 15.545,3.918 15.452,3.87 15.359,3.822 14.711,3.47 13.793,2.965 13.514,2.812 13.28,2.687 13.273,2.687 A 0.818,0.818 0 0 1 13.151,2.624 C 12.955,2.511 12.008,2 11.993,2 11.978,2 11.725,2.141 11.415,2.311"/>

</svg>