<svg xmlns="http://www.w3.org/2000/svg"  fill="#44739e"  width="24" height="24" viewBox="0 0 24 24">
  <path id="Colore_riempimento_1" data-name="Colore riempimento 1" class="cls-1" d="m 14.032,10.941 a 0.8,0.8 0 1 0 0.8,0.8 0.8,0.8 0 0 0 -0.8,-0.8 z m -3.932,0 a 0.8,0.8 0 1 0 0.8,0.8 0.8,0.8 0 0 0 -0.8,-0.8 z m 7.533,-0.772 a 5.847,5.847 0 0 0 -11.265,0 H 7.4 v 3.149 H 6.368 a 5.848,5.848 0 0 0 11.265,0 H 16.658 V 10.169 Z M 10.1,12.946 a 1.2,1.2 0 1 1 1.2,-1.2 1.2,1.2 0 0 1 -1.2,1.2 z m 3.929,0 a 1.2,1.2 0 1 1 1.2,-1.2 1.2,1.2 0 0 1 -1.197,1.2 z M 18.6,3.328 H 5.4 A 3.4,3.4 0 0 0 2,6.728 v 10.544 a 3.4,3.4 0 0 0 3.4,3.4 h 13.2 a 3.4,3.4 0 0 0 3.4,-3.4 V 6.728 a 3.4,3.4 0 0 0 -3.4,-3.4 z m -0.213,9.387 -0.013,0.061 a 6.692,6.692 0 0 1 -3.8,4.9 6.473,6.473 0 0 1 -8.878,-4.595 L 5.619,12.717 H 6.793 V 10.77 H 5.614 l 0.013,-0.06 a 6.7,6.7 0 0 1 3.8,-4.9 6.475,6.475 0 0 1 8.88,4.594 l 0.076,0.362 h -1.122 v 1.945 z"/>
</svg>
