<svg xmlns="http://www.w3.org/2000/svg" viewBox="0 0 24 24"><path fill="#44739e" d="M7.019 3.386c-.03.291-.164.259-.237.427l.047 13.764 5.316.522c.568.127 1.448-.149 1.519.475.13.273-.198 1.116-.285 1.424-.181.64-.134 1.384-.617 1.708-.553.372-1.604.285-2.515.285-.875 0-2.096.036-2.896-.142-.338-.076-.811.015-1.091-.048-.527-.117-1.09.082-1.519-.095-.345-.142-.433-.417-.665-.664-.088-1.315.905-1.974 1.234-2.99V3.481c0-.588-.064-1.091.285-1.329.239-.182.724-.143 1.139-.143h9.113c1.317 0 2.749-.04 3.987.048.065.12.091.166.095.379-.228.32-.106.852-.617.902-.184.114-.677.048-.949.048ZM5.785 2.294c-.144.158-.227.213-.237.522.294.206.694.273.664-.332-.038-.049-.017-.013-.047-.095l-.143-.048c-.061-.041-.117-.042-.237-.047m.475 0c.157.203.547.142.902.142h12.482l.048-.142Zm.237.285v.095c.142.098.236.362.38.427h3.844v-.048c-.085-.094-.072-.241.048-.379.264-.164 1.656-.048 2.088-.048h5.458a.7.7 0 0 1 .048.19c-.069.084-.127.203-.19.285h1.234v-.048h.047a1.6 1.6 0 0 1 .143-.474Zm-.142.142c-.077.274-.264.272-.38.475h.047a.5.5 0 0 0 .333.19c.071-.205.197-.205.332-.333-.139-.095-.197-.236-.332-.332m4.461 0-.047.237h7.404a1.2 1.2 0 0 0 .095-.237Zm-5.268.332v15.711h.047c.049-.038.013-.017.095-.048v-8.401c-.175-.288-.047-1.12-.047-1.519V4.81c0-.348.075-1.639-.095-1.757m1.044 14.904L6.545 3.765c-.319-.107-.443-.409-.76-.522v7.025c.175.281.048 1.817.048 2.278v5.98h.047c.138-.212.352-.385.522-.569Zm.047-14.714c-.074.086-.093.061-.142.19H6.45c-.047.048.046.047.047.048.056.17.072.173.285.189.058-.108.078-.106.095-.284-.038-.049-.017-.013-.048-.095a.6.6 0 0 1-.19-.048m.19 14.619v.142l.95.095v.19c-.393.291-.76.988-.997 1.424-.145.266-.178.648-.475.759-.315-.222-1.125-.193-1.614-.19.073-.453.493-.631.617-.996v-.665h-.047v.048c-.162.171-.946 1.644-.854 1.803.049.147.046.139.19.19.394.24 1.054.03 1.566.143.628.137 1.363.041 2.041.189.74.163 1.648.225 2.468.238l.807-2.943c-.138-.047-.365-.05-.57-.047-.265-.163-.685-.017-1.044-.095-.915-.2-2.032-.279-3.038-.285m.095.332v.19h.048v-.048a.6.6 0 0 0 .095-.142Zm.332 0c-.278.48-.933 1.153-1.044 1.709.068.073.101.184.143.285h.047v-.048c.203-.221.266-.543.427-.807.229-.373.532-.714.76-1.091Zm4.367.095-.807 2.99c.454.004 1.529.257 1.899.048.225-.128.203-.476.284-.76.178-.62.418-1.317.428-2.041-.121-.065-.166-.091-.38-.095Zm-5.458.095c-.067.18-.167.16-.238.332.244.066.238.182.38.332v-.047a.65.65 0 0 0 .238-.38c-.245-.035-.234-.124-.38-.237m.427.475-.047.095c.082-.067.047-.095.047-.095m-.095.142-.047.095c.082-.067.047-.095.047-.095m5.696.047.474.048.048.142c.033.074.006.007 0 .143-.062.022-.188.057-.238.095.12.083.126.087.143.284a1.5 1.5 0 0 0-.238.143c.11.076.112.069.143.237-.071.037-.217.09-.285.142.121.075.187.125.142.238-.061.117.021.032-.094.095-.234.171-.51-.026-.523-.285.086-.037.216-.084.285-.142-.13-.048-.104-.069-.19-.143v-.095c.098-.052.183-.086.238-.19-.092-.079-.079-.068-.095-.237a1.5 1.5 0 0 0 .237-.142c-.14-.067-.13-.091-.142-.285.083-.03.046-.009.095-.048m-5.791.095c-.113.234-.262.35-.427.522-.345-.002-.503-.19-.617-.189-.077.059-.095.099-.142.189H5.5c.118.078.423.054.617.048.048-.147.364-.5.285-.57m6.218.19v-.142h-.095c-.067-.046-.155-.046-.285-.048v.048h-.047l.047.095a1.2 1.2 0 0 0 .38.047m-.475.19c-.019.108-.043.052 0 .142.091.085.149.091.332.095l.048-.142-.143-.047c-.061-.042-.117-.043-.237-.048m-7.072.285-.19.332h.095c.144.09 1.074.13 1.282.142v-.047c-.225-.26-.124-.398-.665-.38-.102-.068-.347-.053-.522-.047m6.93.142c-.002.176.071.204.379.19l.048-.095a.3.3 0 0 1-.095-.095Zm-.095.38c-.019.107-.044.051 0 .142.091.084.149.091.332.095l.048-.142-.143-.048c-.061-.041-.117-.042-.237-.047m-7.594.522v.095c.176.182.267.417.522.522.487.201 1.127-.029 1.709.095.668.142 1.457-.06 2.183.095.888.189 2.56.168 3.417 0v-.048c-.851.011-1.756-.07-2.515-.237-.534-.117-1.087-.037-1.567-.142l-1.044-.048c-.838-.185-1.91-.145-2.705-.332"/></svg>