<svg xmlns="http://www.w3.org/2000/svg"  fill="#44739e"  width="32.026" height="32.026" viewBox="0 0 576 576">
  <path id="Colore_riempimento_1" data-name="Colore riempimento 1" class="cls-1" d="M59,295H54c-3.174-4.773-4.181-7.919-4-17H12v-6H50V259c1.834-1.285,1.712-1.968,4-3,1.295-.877,2.467-0.894,5-1-0.345-11.04-3.176-33.971,5-37,5.86-4.391,23.544-2,33-2H495c15.065,0,32.985-.7,45,2,4.128,7.268,3,21.368,3,33,0,25.121,3.523,55.838-1,79-9.247,5.229-26.175,4-41,4H108c-15.471,0-33.54.633-46-2C57.483,324.1,58.872,307.451,59,295Zm6-72V327c25.773,2.922,56.5,1,84,1H454c27.166,0,57.555,1.9,83-1V223c-25.773-2.922-56.5-1-84-1H148C120.834,222,90.445,220.1,65,223Zm253,13c16.782,5.133,25.715,5.46,34,19,15.31,25.021-4.325,52.518-25,58-31.166,8.263-57.659-28.086-44-55,4.7-9.256,15.164-17.993,26-21C312.275,236.091,315.81,237.291,318,236Zm81,0c14.145,4.354,24.741,5.335,32,16,16.943,24.894.605,54.742-23,61-32.093,8.509-56.3-27.617-44-55,4.172-9.287,15.454-18.125,26-21C393.284,236.105,396.81,237.291,399,236Zm82,0c14.145,4.354,24.741,5.335,32,16,16.943,24.894.605,54.742-23,61-32.093,8.509-56.3-27.617-44-55,4.172-9.287,15.454-18.125,26-21C475.284,236.105,478.81,237.291,481,236Zm-336,1h15v31H146C143.4,260.269,144.918,246.539,145,237Zm25,0h15v30c-3.609,1.24-9.883,1.071-15,1V237Zm148,5c-3.063,1.795-8.329.59-12,2-7.63,2.932-16.172,12.243-19,20-8.531,23.4,14.774,50.209,40,43,15.66-4.475,31.711-26.29,21-47C341.818,248.047,332.239,246.44,318,242Zm81,0c-2.671,1.56-7.845.83-11,2-8.5,3.15-16.9,11.533-20,20-8.576,23.446,14.858,50.221,40,43,15.922-4.573,33.058-28.854,20-49C421.188,247.489,412.58,246.3,399,242Zm82,0c-2.671,1.56-7.845.83-11,2-8.5,3.15-16.9,11.533-20,20-8.576,23.446,14.858,50.221,40,43,15.922-4.573,33.058-28.854,20-49C503.188,247.489,494.58,246.3,481,242Zm-329,1v19h2V243h-2Zm24,0v19h2V243h-2Zm-71,15a84.853,84.853,0,0,1,21,2c1.994,3.985,6.075,18.833,2,25-2.683,8.171-15.265,6.406-26,6-1.021-.8-0.274-0.355-2-1a18.047,18.047,0,0,0-3-4c-0.389-9.669-2.188-23.39,5-26C102.771,259.318,104.232,258.689,105,258Zm199,0a30.439,30.439,0,0,1,7,1,21.509,21.509,0,0,1,1,7c-0.8,1.021-.355.274-1,2h-2c-1.3.877-2.467,0.894-5,1C300.741,264.1,300.894,262.9,304,258Zm81,0h6c1.372,2.542,1.917,3.5,2,8-0.8,1.021-.355.274-1,2h-2c-1.3.877-2.467,0.894-5,1C381.741,264.1,381.894,262.9,385,258Zm82,0h6c1.372,2.542,1.917,3.5,2,8-0.8,1.021-.355.274-1,2h-2c-1.3.877-2.467,0.894-5,1C463.741,264.1,463.894,262.9,467,258ZM56,261v27h2V261H56Zm49,3c-2.381,4.5-2.125,12.667-2,20,4.611,1.573,12.8,1.076,19,1,1.573-4.611,1.076-12.8,1-19l-3-1C117.189,263.146,109.513,263.872,105,264Zm223,17,6,1c2.748,5.96.885,6.97-3,11-1.754-.631-0.971-0.193-2-1-3.081-1.038-2.918-.967-4-4C323.082,284.519,325.917,283.24,328,281Zm81,0,6,1v1h1c0.257,3.2.994,3.191,0,5-1.33,4.029-2.641,4.092-8,4a18.068,18.068,0,0,0-3-4,10.965,10.965,0,0,1,2-5C407.74,282.128,408.26,281.872,409,281Zm82,0,6,1v1h1c0.257,3.2.994,3.191,0,5-1.33,4.029-2.641,4.092-8,4a18.068,18.068,0,0,0-3-4,10.965,10.965,0,0,1,2-5C489.74,282.128,490.26,281.872,491,281Zm-331,1v31H145V283C148.609,281.76,154.883,281.929,160,282Zm10,0h14c2.6,7.731,1.082,21.461,1,31H170V282Zm-18,6v19h2V288h-2Zm24,0v19h2V288h-2Z"/>
</svg>
