<svg xmlns="http://www.w3.org/2000/svg"  fill="#44739e"  width="52.013" height="52.013" viewBox="0 0 576 576">
  <path id="Colore_riempimento_1" data-name="Colore riempimento 1" class="cls-1" d="M183,106c-0.631,6.138-3.457,5.458-5,9q0.5,144.986,1,290l112,11c11.974,2.665,30.506-3.133,32,10,2.746,5.759-4.165,23.517-6,30-3.816,13.483-2.821,29.16-13,36-11.658,7.834-33.808,6-53,6-18.427,0-44.153.748-61-3-7.135-1.587-17.1.312-23-1-11.1-2.467-22.967,1.73-32-2-7.269-3-9.112-8.8-14-14-1.863-27.713,19.067-41.578,26-63V108c0-12.38-1.35-22.98,6-28,5.037-3.816,15.255-3,24-3H369c27.734,0,57.908-.846,84,1,1.372,2.542,1.917,3.5,2,8-4.811,6.74-2.246,17.947-13,19-3.878,2.4-14.258,1-20,1H183ZM157,83c-3.026,3.32-4.776,4.484-5,11,6.194,4.337,14.625,5.752,14-7-0.8-1.021-.355-0.274-1-2l-3-1C160.705,83.123,159.533,83.106,157,83Zm10,0c3.305,4.268,11.536,3,19,3H449l1-3H167Zm5,6v2c2.983,2.065,4.972,7.631,8,9h81V99c-1.8-1.981-1.517-5.088,1-8,5.568-3.452,34.9-1,44-1H421a14.124,14.124,0,0,1,1,4c-1.454,1.775-2.67,4.277-4,6h26V99h1a32.774,32.774,0,0,1,3-10H172Zm-3,3c-1.613,5.778-5.561,5.736-8,10h1a10.46,10.46,0,0,0,7,4c1.5-4.307,4.159-4.308,7-7C173.063,97,171.861,94.025,169,92Zm94,0q-0.5,2.5-1,5H418a25.766,25.766,0,0,0,2-5H263ZM152,99V430h1c1.021-.8.274-0.355,2-1V252c-3.7-6.082-1-23.6-1-32V136C154,128.675,155.586,101.478,152,99Zm22,314q-0.5-149.485-1-299c-6.709-2.265-9.33-8.623-16-11V251c3.676,5.935,1,38.281,1,48V425h1c2.911-4.47,7.417-8.127,11-12h4Zm1-310c-1.565,1.8-1.966,1.281-3,4h-1c-0.99,1.01.985,0.988,1,1,1.187,3.6,1.509,3.657,6,4,1.225-2.281,1.638-2.251,2-6-0.8-1.021-.355-0.274-1-2A12.662,12.662,0,0,1,175,103Zm4,308v3l20,2v4c-8.272,6.128-16.009,20.819-21,30-3.042,5.6-3.741,13.648-10,16-6.638-4.68-23.7-4.066-34-4,1.534-9.558,10.372-13.305,13-21V427h-1v1c-3.417,3.6-19.922,34.653-18,38,1.038,3.081.967,2.918,4,4,8.31,5.056,22.213.638,33,3,13.243,2.9,28.714.869,43,4,15.6,3.418,34.729,4.737,52,5l17-62c-2.893-1-7.674-1.059-12-1-5.576-3.431-14.436-.35-22-2C223.724,412.8,200.193,411.136,179,411Zm2,7v4h1v-1a11.568,11.568,0,0,0,2-3h-3Zm7,0c-5.871,10.115-19.666,24.283-22,36,1.428,1.55,2.118,3.874,3,6h1v-1c4.265-4.648,5.592-11.439,9-17,4.816-7.859,11.206-15.042,16-23Zm92,2-17,63c9.552,0.09,32.2,5.419,40,1,4.738-2.684,4.292-10.03,6-16,3.74-13.074,8.794-27.75,9-43-2.542-1.372-3.5-1.917-8-2Zm-115,2c-1.4,3.8-3.517,3.37-5,7,5.128,1.381,5.01,3.834,8,7v-1a13.719,13.719,0,0,0,5-8C167.838,426.252,168.073,424.375,165,422Zm9,10-1,2C174.744,432.6,174,432,174,432Zm-2,3-1,2C172.744,435.6,172,435,172,435Zm120,1,10,1,1,3c0.707,1.545.129,0.135,0,3-1.3.474-3.959,1.214-5,2,2.524,1.752,2.639,1.838,3,6a30.978,30.978,0,0,0-5,3c2.316,1.615,2.352,1.461,3,5-1.5.774-4.565,1.894-6,3,2.537,1.566,3.944,2.628,3,5-1.3,2.467.429,0.681-2,2-4.922,3.619-10.735-.537-11-6,1.8-.779,4.532-1.774,6-3-2.748-1-2.195-1.44-4-3v-2c2.05-1.1,3.841-1.822,5-4-1.938-1.667-1.668-1.439-2-5a30.978,30.978,0,0,0,5-3c-2.948-1.408-2.746-1.914-3-6C291.754,436.369,290.971,436.807,292,436Zm-122,2c-2.383,4.922-5.522,7.359-9,11-7.268-.049-10.6-4.014-13-4-1.623,1.254-2.007,2.1-3,4h6c2.477,1.644,8.9,1.123,13,1C165,446.9,171.655,439.477,170,438Zm131,4v-3h-2c-1.418-.961-3.273-0.976-6-1v1h-1l1,2A25.086,25.086,0,0,0,301,442Zm-10,4c-0.4,2.266-.918,1.084,0,3,1.919,1.772,3.136,1.9,7,2l1-3-3-1C294.705,446.123,293.533,446.106,291,446Zm-149,6-4,7h2c3.031,1.9,22.617,2.727,27,3v-1c-4.734-5.488-2.617-8.376-14-8C150.85,451.562,145.692,451.887,142,452Zm146,3c-0.047,3.71,1.491,4.294,8,4l1-2a6.1,6.1,0,0,1-2-2h-7Zm-2,8c-0.4,2.266-.918,1.084,0,3,1.919,1.772,3.136,1.9,7,2l1-3-3-1C289.705,463.123,288.533,463.106,286,463ZM126,474v2c3.705,3.832,5.631,8.786,11,11,10.26,4.231,23.753-.611,36,2,14.086,3,30.7-1.262,46,2,18.711,3.989,53.947,3.55,72,0v-1c-17.931.216-37-1.489-53-5-11.246-2.468-22.9-.789-33-3l-22-1C165.349,477.1,142.755,477.931,126,474Z"/>
</svg>
