<svg xmlns="http://www.w3.org/2000/svg"  fill="#44739e"  width="24" height="24" viewBox="0 0 24 24">
  <path id="Colore_riempimento_1" data-name="Colore riempimento 1" class="cls-1" d="m 20.215,12.278 a 0.279,0.279 0 1 0 0.279,0.279 0.279,0.279 0 0 0 -0.279,-0.279 z M 18.69,11.211 a 0.28,0.28 0 1 0 0.279,-0.279 0.279,0.279 0 0 0 -0.279,0.279 z m -3.098,1.067 a 0.279,0.279 0 1 0 0.28,0.279 0.279,0.279 0 0 0 -0.28,-0.279 z m -1.525,-1.067 a 0.28,0.28 0 1 0 0.28,-0.279 0.279,0.279 0 0 0 -0.28,0.279 z m -3.537,1.454 a 0.279,0.279 0 1 0 0.279,-0.279 0.279,0.279 0 0 0 -0.279,0.279 z M 9.563,11.04 a 0.279,0.279 0 1 0 0.28,0.279 0.279,0.279 0 0 0 -0.28,-0.279 z M 19.528,9.9 A 2.048,2.048 0 1 0 21.576,11.948 2.051,2.051 0 0 0 19.528,9.9 Z m 1.857,2.048 a 1.857,1.857 0 1 1 -1.857,-1.848 1.859,1.859 0 0 1 1.857,1.853 z m -9.18,0.005 A 2.048,2.048 0 1 0 10.157,14 2.05,2.05 0 0 0 12.205,11.953 Z m -0.192,0 a 1.857,1.857 0 1 1 -1.856,-1.853 1.859,1.859 0 0 1 1.856,1.853 z m 2.854,-2.047 a 2.048,2.048 0 1 0 2.048,2.047 2.05,2.05 0 0 0 -2.048,-2.047 z m 1.857,2.047 a 1.857,1.857 0 1 1 -1.857,-1.853 1.86,1.86 0 0 1 1.857,1.853 z m 4.527,-3.99 H 3.256 A 0.749,0.749 0 0 0 2.507,8.712 v 2.046 H 2.4 a 0.4,0.4 0 0 0 -0.4,0.4 v 1.489 a 0.4,0.4 0 0 0 0.4,0.4 h 0.109 v 2.245 a 0.749,0.749 0 0 0 0.749,0.749 h 18 A 0.749,0.749 0 0 0 22,15.288 V 8.712 A 0.749,0.749 0 0 0 21.251,7.963 Z M 4.662,12.2 a 0.386,0.386 0 0 1 -0.386,0.386 h -0.5 A 0.386,0.386 0 0 1 3.39,12.2 v -0.5 a 0.386,0.386 0 0 1 0.386,-0.386 h 0.5 A 0.386,0.386 0 0 1 4.662,11.7 Z m 1.6,1.63 H 5.427 v -1.575 h 0.835 z m 0,-2.369 H 5.427 V 9.886 h 0.835 z m 1.28,2.369 H 6.708 v -1.575 h 0.834 z m 0,-2.369 H 6.708 V 9.886 H 7.542 Z M 10.157,14.1 A 2.143,2.143 0 1 1 12.3,11.953 2.145,2.145 0 0 1 10.157,14.1 Z m 4.71,0 A 2.143,2.143 0 1 1 17.01,11.957 2.146,2.146 0 0 1 14.867,14.1 Z m 4.661,0 A 2.143,2.143 0 1 1 21.671,11.957 2.146,2.146 0 0 1 19.528,14.1 Z M 6.994,12.54 h 0.263 v 1.005 H 6.994 Z m 0,-2.369 h 0.263 v 1.006 H 6.994 Z m -1.2810002,0 h 0.264 v 1.006 h -0.264 z m 0,2.369 h 0.264 v 1.005 h -0.264 z"/>
</svg>
