<svg xmlns="http://www.w3.org/2000/svg" width="32.026" height="32.026" viewBox="0 0 576 576">
    <style>path{fill:#000}@media (prefers-color-scheme:dark){path{fill:#fff}}</style>
  <path id="Colore_riempimento_1" data-name="Colore riempimento 1" class="cls-1" d="M312,104c87.407-.854,140.918,18.541,164,82,3.788,10.414,4.515,22.7,7,34q0.5,14,1,28c3.091,14.516,4.237,56.006,1,71v19c-4.577,20.766-5.427,42.516-13,60-15.832,36.553-44.207,57.051-87,67l-71,5H295c-12.745,2.707-37.26,2.752-50,0l-29-1c-16.874-3.756-35.574-3.919-50-10-34.354-14.48-57.728-43.344-69-81-7.179-23.985-6-54.388-6-84,0-81.436,4.639-136.759,55-168,16.31-10.118,36.294-14.122,58-19,14.387-3.233,30.541.894,44-2C261.84,102.024,303.156,109.447,312,104Zm0,6c-3.384,2.044-11.879,1-17,1H253c-35.08.73-71.125,2.6-95,15-56.325,29.25-61,83.883-61,169,0,30.583-.786,62,7,86,10.558,32.549,32.672,59.279,63,72,14.226,5.967,32.3,6.328,49,10l29,1c12.746,2.712,37.258,2.746,50,0h19l70-5c39.871-9.407,67.291-27.89,82-62,7.4-17.153,8.555-38.557,13-59V319c3.193-15,2.133-56.516-1-71q-0.5-14-1-28c-2.685-12.09-3.6-25.209-8-36C445.021,125.186,394.843,109.833,312,110Zm96,162H391v30h18c-5.816,53.051-40.273,85.119-84,101-13.275,4.821-38.378,9.684-57,5-10.377-2.61-20.706-4.965-30-9-27.677-12.015-51.249-37.017-63-65-4.214-10.034-4.329-21.146-8-32h16V272H168c0.292-18.683,8.558-34,16-46,14.673-23.655,34.3-42.641,62-53,12.107-4.528,22.485-2.935,37-6,8.929-1.885,23.887-.527,33,2C358.639,180.824,406.937,220.19,408,272Zm-233-6h14v42H174v1c4.389,6.732,5.622,20.292,9,28,8.75,19.966,27.1,38.966,45,50,9,5.551,20.457,9.688,31,13,22.1,6.943,53.16,2.1,70-5,38.024-16.019,63.753-42.412,73-87H385V266h16c-0.588-16.349-9.1-29.5-16-40-20.452-31.122-67.64-66.759-124-51C222.506,185.764,178.108,221.4,175,266Zm50,0c7.968-.162,11.6,1.518,17,3,6.781,9.847,9.686,12.656,6,28a86.027,86.027,0,0,0-11,9c-5.2.5-10.149,1.864-14-1-7.659-2.023-8.462-7.152-13-12-0.386-7.645.4-11.274,2-18C215.523,272.739,221.59,268.8,225,266Zm114,0c16.055-.371,17.75,5.258,25,13,0.546,6.891-.12,10.608-1,17-11.616,9.385-11.845,12.482-30,8-2.365-3.4-6.37-6-8-10C318.479,278.012,331.6,271.762,339,266Zm-113,6c-1.073.752-.946,0.6-3,1a68.337,68.337,0,0,1-7,8,43.937,43.937,0,0,0,2,14c12.245,8.431,26.717,7.077,26-13-3.372-3.467-6.534-6.627-10-10h-8Zm114,0c-3.467,3.372-6.627,6.534-10,10-0.339,8.129,1.212,14.012,7,16,3.209,3,10.471,2.032,15,1l6-7c0.211-6.8-.487-9.06-2-15C351.024,273.993,348.686,271.989,340,272Z"/>
</svg>
