<svg xmlns="http://www.w3.org/2000/svg" viewBox="0 0 24 24"><path fill="#44739e" d="M12.002 8.327a3.099 3.099 0 1 0 3.099 3.106 3.1 3.1 0 0 0-3.099-3.106m.027 5.335a1.92 1.92 0 1 1 1.92-1.92 1.92 1.92 0 0 1-1.921 1.92Zm.621 3.02a7.355 7.355 0 1 0-1.3 0v3.885a1 1 0 0 0 .024.117H7.619a.658.658 0 0 0 0 1.316h8.766a.658.658 0 0 0 0-1.316h-3.759a1 1 0 0 0 .024-.117ZM8.68 5.532a.722.722 0 1 1-.722.721.72.72 0 0 1 .722-.721m3.322 10.051a4.149 4.149 0 1 1 4.149-4.149 4.153 4.153 0 0 1-4.149 4.149m.026-4.714a.873.873 0 1 0 .873.873.873.873 0 0 0-.873-.873"/></svg>