<svg xmlns="http://www.w3.org/2000/svg" viewBox="0 0 24 24"><path fill="#44739e" d="M2 2v4.324a2.16 2.16 0 0 0 1.75 2.123C4.03 10.386 4.79 13 6.846 13h10.309c2.054 0 2.816-2.613 3.095-4.553A2.16 2.16 0 0 0 22 6.324V2Zm3.25 6.5H7l.6 3h-.754c-.983 0-1.335-1.406-1.596-3m3.25 0h2.75v3H9.1Zm4.25 0h2.75l-.6 3h-2.15Zm4.25 0h1.75c-.261 1.594-.62 2.855-1.594 3h-.754Zm-6.941 5.977-1.506.877s-.33.187-.602.54-.497.969-.24 1.622c.276.7.59 1.114.594 1.332.002.127-.031.277-.332.584l-1.807 1.843 2.363-1.035c.07-.03.088-.082.153-.115l.004.008c.005-.005.002-.01.007-.016.387-.198.728-.415.922-.697.229-.332.3-.717.27-1.05-.06-.67-.434-1.188-.621-1.497-.243-.4-.016-.853-.016-.853Zm3.908 0-1.504.877s-.375.215-.684.617c-.308.402-.565 1.086-.273 1.826.253.642.58 1.093.672 1.396.046.152.052.251.011.387s-.146.324-.394.576L9.988 22l2.366-1.035c.07-.03.087-.08.152-.113l.004.006c.006-.007.007-.013.013-.02.46-.232.852-.487 1.075-.81.257-.375.336-.804.302-1.182-.067-.757-.499-1.36-.722-1.729-.314-.518-.02-1.1-.02-1.1Zm3.867.002-1.502.875s-.33.187-.602.54-.499.969-.242 1.622c.22.554.495.94.567 1.175.035.119.04.184.01.284s-.111.249-.315.457l-1.807 1.844 2.366-1.036c.069-.03.086-.082.15-.115l.006.008c.007-.007.007-.015.013-.022.383-.197.722-.41.915-.691.228-.332.3-.717.271-1.05-.06-.669-.436-1.188-.623-1.497-.242-.4-.016-.855-.016-.855Z"/></svg>