<?xml version="1.0" encoding="UTF-8"?>
<!DOCTYPE svg PUBLIC "-//W3C//DTD SVG 1.1//EN" "http://www.w3.org/Graphics/SVG/1.1/DTD/svg11.dtd">
<svg xmlns="http://www.w3.org/2000/svg"  fill="#44739e"  xmlns:xlink="http://www.w3.org/1999/xlink" version="1.1" width="24" height="24" viewBox="0 0 24 24">
<path d="m2 2v4.3242c0 1.0542 0.75172 1.9319 1.75 2.123 0.27958 1.9387 1.0405 4.5527 3.0957 4.5527h10.309c2.0546 0 2.8161-2.6134 3.0957-4.5527 0.99828-0.19111 1.75-1.0688 1.75-2.123v-4.3242h-20zm3.25 6.5h1.75l0.59961 3h-0.75391c-0.98306 0-1.3342-1.4057-1.5957-3zm3.25 0h2.75v3h-2.1504l-0.59961-3zm4.25 0h2.75l-0.59961 3h-2.1504v-3zm4.25 0h1.75c-0.26098 1.5943-0.6191 2.8554-1.5938 3h-0.75391l0.59766-3zm-6.9414 5.9766l-1.5059 0.87695s-0.33011 0.18754-0.60156 0.54102c-0.27145 0.35348-0.4975 0.96833-0.24023 1.6211 0.27593 0.69986 0.59006 1.1148 0.59375 1.332 0.00217 0.12708-0.031092 0.27683-0.33203 0.58398l-1.8066 1.8438 2.3633-1.0352c0.069712-0.03055 0.087992-0.08255 0.15234-0.11523l0.0039063 0.007812c0.00499-0.005099 0.0028825-0.010534 0.0078125-0.015624 0.38702-0.1987 0.72798-0.41502 0.92188-0.69727 0.22829-0.33232 0.29924-0.71668 0.26953-1.0508-0.059411-0.66821-0.43424-1.1873-0.62109-1.4961-0.2428-0.39976-0.015625-0.85352-0.015625-0.85352l0.81055-1.543zm3.9082 0l-1.5039 0.87695s-0.37511 0.21525-0.68359 0.61719c-0.30849 0.40194-0.56484 1.0865-0.27344 1.8262 0.25328 0.64176 0.5802 1.0935 0.67188 1.3965 0.04584 0.15151 0.052549 0.25081 0.011719 0.38672s-0.14684 0.32343-0.39453 0.57617l-1.8066 1.8438 2.3652-1.0352c0.07022-0.03075 0.08702-0.080779 0.15234-0.11328l0.003907 0.00586c0.0065-0.0067 0.007201-0.012881 0.013672-0.019531 0.45897-0.23188 0.85174-0.48692 1.0742-0.81055 0.25755-0.37464 0.33623-0.80345 0.30274-1.1816-0.06699-0.75638-0.49913-1.3602-0.72266-1.7285-0.31415-0.51876-0.019531-1.0996-0.019531-1.0996l0.80859-1.541zm3.8672 0.001954l-1.502 0.875s-0.33011 0.18754-0.60156 0.54102c-0.27145 0.35348-0.49945 0.96833-0.24219 1.6211 0.2191 0.55454 0.49498 0.93957 0.56641 1.1758 0.03571 0.1181 0.039605 0.18368 0.009765 0.2832-0.02987 0.09953-0.11068 0.24905-0.31445 0.45703l-1.8066 1.8438 2.3652-1.0352c0.06922-0.03033 0.08645-0.0828 0.15039-0.11523l0.00586 0.007812c0.0069-7e-3 0.006902-0.014484 0.013672-0.021484 0.38277-0.19782 0.72156-0.41124 0.91406-0.69141 0.22832-0.33231 0.30116-0.71666 0.27148-1.0508-0.059349-0.66824-0.43588-1.1871-0.62305-1.4961-0.24238-0.39988-0.015625-0.85547-0.015625-0.85547l0.80859-1.5391z"/>
</svg>
