<svg xmlns="http://www.w3.org/2000/svg" viewBox="0 0 24 24"><path fill="#44739e" d="M17.248 8.526a.278.278 0 1 0-.481.277 6.2 6.2 0 0 1 0 6.17.278.278 0 0 0 .482.277 6.76 6.76 0 0 0-.001-6.724M11.352 18.1a6.21 6.21 0 0 1-5.343-3.084.278.278 0 1 0-.481.279 6.75 6.75 0 0 0 5.823 3.361.278.278 0 0 0 0-.556Zm.278-12.7a.28.28 0 0 0-.278-.278 6.75 6.75 0 0 0-5.824 3.363.28.28 0 0 0 .1.38.3.3 0 0 0 .14.038.28.28 0 0 0 .24-.139 6.21 6.21 0 0 1 5.345-3.085.28.28 0 0 0 .277-.279m6.906 2.308a.278.278 0 0 0-.481.278 7.83 7.83 0 0 1 0 7.8.277.277 0 0 0 .1.379.3.3 0 0 0 .138.037.28.28 0 0 0 .241-.139 8.36 8.36 0 0 0 0-8.357Zm-13.894 8.08a.278.278 0 1 0-.48.279 8.38 8.38 0 0 0 7.231 4.173.278.278 0 0 0 0-.555 7.85 7.85 0 0 1-6.751-3.897m6.753-12.255a8.39 8.39 0 0 0-7.234 4.175.28.28 0 0 0 .1.38.3.3 0 0 0 .139.038.28.28 0 0 0 .241-.139 7.85 7.85 0 0 1 6.753-3.9.278.278 0 0 0 0-.556Zm8.533 3.41a.278.278 0 1 0-.481.278 9.37 9.37 0 0 1 0 9.334.28.28 0 0 0 .1.379.28.28 0 0 0 .38-.1 9.9 9.9 0 0 0 0-9.889Zm-8.427 14.501a9.4 9.4 0 0 1-8.08-4.666.278.278 0 0 0-.481.279A9.93 9.93 0 0 0 11.501 22a.278.278 0 0 0 0-.556M3.269 7.222a9.4 9.4 0 0 1 8.083-4.666.278.278 0 1 0 0-.556 9.92 9.92 0 0 0-8.564 4.943.277.277 0 0 0 .1.379.3.3 0 0 0 .139.038.28.28 0 0 0 .242-.138m11.241-.054a.7.7 0 0 0-.292-.064.7.7 0 0 0-.443.159L10.946 9.6H8.487a.7.7 0 0 0-.694.7v3.179a.7.7 0 0 0 .694.693h.014l2.642-.047 2.609 2.369a.7.7 0 0 0 .465.179.694.694 0 0 0 .694-.7V7.8a.7.7 0 0 0-.401-.632m-.153 8.81a.14.14 0 0 1-.08.126.2.2 0 0 1-.059.012.14.14 0 0 1-.092-.035l-2.69-2.442a.28.28 0 0 0-.187-.072l-2.749.049h-.011a.143.143 0 0 1-.141-.139V10.3a.14.14 0 0 1 .139-.139h2.559a.28.28 0 0 0 .177-.064l2.9-2.4a.15.15 0 0 1 .09-.033.2.2 0 0 1 .06.013.14.14 0 0 1 .08.126Z"/></svg>