<?xml version="1.0" encoding="UTF-8"?>
<svg width="33px" height="32px" viewBox="0 0 33 32" version="1.1" xmlns="http://www.w3.org/2000/svg" xmlns:xlink="http://www.w3.org/1999/xlink">
    <!-- Generator: Sketch 51.3 (57544) - http://www.bohemiancoding.com/sketch -->
    <title>socket-eu</title>
    <style>path{fill:#000}@media (prefers-color-scheme:dark){path{fill:#fff}}</style>
            <path d="M22.36368,10.16593l.00092-2.08674q.00138-1.56506.00092-3.13057a3.21885,3.21885,0,0,0-.83507-2.21521A3.09341,3.09341,0,0,0,19.2611,1.64736c-.64052-.02064-1.28839-.01743-1.91606-.01468l-.69283.00184-4.307-.00092-1.72289.00046L9.277,1.6336q-2.02137-.00069-4.03767.00275a5.25179,5.25179,0,0,0-.88737.05323A3.18761,3.18761,0,0,0,2.04,3.33539a3.2287,3.2287,0,0,0-.407,1.649q.00345,1.1583.00092,2.31661l-.00046,3.6518.00092,8.07076a3.45437,3.45437,0,0,0,.01514.39642,3.23706,3.23706,0,0,0,.81166,1.839,3.12711,3.12711,0,0,0,2.23449,1.09017c.33723.01652.6786.02019,1.01492.02019.13627,0,.27163-.00092.4056-.00092l.40744-.00184q2.053.00276,4.106.00092l1.53294-.00092,2.32487.00092q2.29045,0,4.57909-.00275a3.2001,3.2001,0,0,0,2.25834-.88921,3.25037,3.25037,0,0,0,1.04062-2.46206q.00274-2.59191.00092-5.18474ZM21.34233,19.0667A2.24665,2.24665,0,0,1,19.53915,21.292a2.60037,2.60037,0,0,1-.52857.04956q-2.6098.00412-5.21777.00183h-8.831a2.25817,2.25817,0,0,1-2.21751-1.64719,2.19217,2.19217,0,0,1-.08672-.602q-.00619-4.57816-.00367-9.15633l.00046-3.12232q.00069-.93738-.00092-1.8743A2.24485,2.24485,0,0,1,4.40063,2.71872a3.942,3.942,0,0,1,.83277-.0624q2.34278-.00343,4.686-.00275h5.17648q2.00553-.00207,4.012.00183a2.25374,2.25374,0,0,1,2.19686,1.87615,3.01564,3.01564,0,0,1,.03671.46525q.00275,3.50451.00183,7.00949Z M12.00338,5.81442h-.00413A6.21328,6.21328,0,0,0,5.817,11.95536a6.167,6.167,0,0,0,6.18177,6.224h.0156a6.18247,6.18247,0,0,0-.011-12.36491Zm1.27921,11.03432V15.53558H10.71546v1.31316a5.01639,5.01639,0,0,1-.00459-9.69913V8.46093h2.56989V7.15007a5.0142,5.0142,0,0,1,.00183,9.69867Z M9.534,10.46692H9.52159a1.53055,1.53055,0,0,0-1.54074,1.52881,1.53515,1.53515,0,0,0,1.5357,1.53569H9.517a1.52862,1.52862,0,0,0,1.09522-.45515,1.50533,1.50533,0,0,0,.43818-1.08237A1.52477,1.52477,0,0,0,9.534,10.46692Zm-.01663,2.13962a.60629.60629,0,1,1,.60771-.58712A.61335.61335,0,0,1,9.51735,12.60654Z M14.46636,10.466a1.50577,1.50577,0,0,0-1.0709.44643,1.53459,1.53459,0,0,0,1.081,2.619h.00183a1.5358,1.5358,0,0,0,1.08834-.44965,1.51518,1.51518,0,0,0,.45057-1.0842A1.54381,1.54381,0,0,0,14.46728,10.466Zm.61907,1.52915a.61018.61018,0,0,1-.6041.61133.60615.60615,0,0,1-.008-1.21228A.6056.6056,0,0,1,15.08543,11.99516Z"></path>

</svg>