<svg xmlns="http://www.w3.org/2000/svg" viewBox="0 0 24 24"><path fill="#44739e" d="M2.605 16.985v2.239L15.102 22l-.022-2.451Zm12.826 2.501.023 2.495 5.905-4.323-.016-1.832Zm5.912-3.747-.032-3.691-5.92 3.059.015 1.653 5.854-3.218.042.077-5.895 3.241.023 2.523 5.906-3.655Zm-8.219-4.001v-.94l7.244 1.342.509-.264-7.753-1.436V7.51h-.882v2.767l-.883-.164v-2.6h-.883v2.439l-2-.371v-.018l-5.5 2.877.557.106 4.593-2.4.01.923-3.324 1.718 10.475 1.977 3.82-1.973Zm-1.765-.311v-.956l.883.163v.951l-.883-.155Zm0 .289.05.031a.8.8 0 0 0 .287.118 1.1 1.1 0 0 0 .546 0v.606q-.028-.013-.063-.026a.87.87 0 0 0-.568-.005 2 2 0 0 1-.252.049v-.179a2 2 0 0 0 .206-.042 1.04 1.04 0 0 1 .675.012v-.239a1.3 1.3 0 0 1-.587-.006 1 1 0 0 1-.294-.114ZM8.818 10l1.658.307v.965l-1.658-.292Zm-.575 1.18h.006a.7.7 0 0 1 .618.043 1.2 1.2 0 0 0 .213.089.7.7 0 0 0 .22.036 2 2 0 0 1 .227.025 1.1 1.1 0 0 1 .411.164.7.7 0 0 0 .266.116.64.64 0 0 0 .272.01v.177a.8.8 0 0 1-.313-.017.9.9 0 0 1-.316-.138.9.9 0 0 0-.353-.14 1 1 0 0 0-.2-.022.8.8 0 0 1-.266-.044 1.5 1.5 0 0 1-.238-.1.6.6 0 0 0-.226-.076.6.6 0 0 0-.245.035.09.09 0 0 1-.115-.045.08.08 0 0 1 .039-.113m-.743.422a.7.7 0 0 1 .617.044 1.5 1.5 0 0 0 .214.089.7.7 0 0 0 .219.036 1.3 1.3 0 0 1 .227.025 1.1 1.1 0 0 1 .412.163.8.8 0 0 0 .263.116.7.7 0 0 0 .376-.011 1.2 1.2 0 0 1 .465-.028 1 1 0 0 1 .179.04v.189a.7.7 0 0 0-.205-.056 1 1 0 0 0-.4.026.9.9 0 0 1-.456.01.9.9 0 0 1-.316-.137.9.9 0 0 0-.352-.141 1.3 1.3 0 0 0-.2-.021.9.9 0 0 1-.265-.045 1.4 1.4 0 0 1-.239-.1.6.6 0 0 0-.224-.074.6.6 0 0 0-.245.035.1.1 0 0 1-.116-.049.083.083 0 0 1 .046-.111m-.823.373h.008a.8.8 0 0 1 .33-.049.7.7 0 0 1 .287.092 1.3 1.3 0 0 0 .214.089.7.7 0 0 0 .219.036 1.3 1.3 0 0 1 .227.025 1.1 1.1 0 0 1 .412.164.8.8 0 0 0 .263.116.7.7 0 0 0 .376-.011 1.1 1.1 0 0 1 .462-.033.8.8 0 0 1 .367.133.8.8 0 0 0 .288.122 1 1 0 0 0 .347.029v.18a1.2 1.2 0 0 1-.386-.034 1 1 0 0 1-.339-.143.65.65 0 0 0-.3-.109 1 1 0 0 0-.4.026.87.87 0 0 1-.456.011 1 1 0 0 1-.316-.138.9.9 0 0 0-.352-.14 1 1 0 0 0-.2-.022.9.9 0 0 1-.265-.044 1.6 1.6 0 0 1-.239-.1.6.6 0 0 0-.224-.078.6.6 0 0 0-.245.035.093.093 0 0 1-.116-.048.08.08 0 0 1 .037-.109Zm8.908 2.369-.007.01a.08.08 0 0 1-.11.018.7.7 0 0 0-.276-.1 1.7 1.7 0 0 0-.358.025l-.178.022a.65.65 0 0 1-.315 0 .34.34 0 0 1-.136-.091.7.7 0 0 0-.138-.1.8.8 0 0 0-.428-.128 2 2 0 0 0-.235.048c-.086.021-.147.039-.2.053a.37.37 0 0 1-.245.022.3.3 0 0 1-.164-.147 1 1 0 0 0-.076-.106.84.84 0 0 0-.514-.224.5.5 0 0 0-.251.022 1 1 0 0 1-.336.042 1.8 1.8 0 0 1-.624-.145 1.5 1.5 0 0 1-.355-.179 1 1 0 0 0-.189-.1.87.87 0 0 0-.567 0 1.4 1.4 0 0 1-.7.02 1 1 0 0 1-.339-.143.64.64 0 0 0-.3-.109 1 1 0 0 0-.4.026.87.87 0 0 1-.456.011 1 1 0 0 1-.317-.139.9.9 0 0 0-.352-.14 1 1 0 0 0-.2-.022.8.8 0 0 1-.266-.044 1.6 1.6 0 0 1-.239-.1.53.53 0 0 0-.469-.04.093.093 0 0 1-.115-.048.08.08 0 0 1 .035-.109h.01a.8.8 0 0 1 .33-.049.7.7 0 0 1 .287.092 1.3 1.3 0 0 0 .214.089.7.7 0 0 0 .219.036 1.3 1.3 0 0 1 .227.025 1.1 1.1 0 0 1 .412.164.8.8 0 0 0 .263.116.7.7 0 0 0 .376-.011 1.1 1.1 0 0 1 .465-.029.8.8 0 0 1 .367.133.8.8 0 0 0 .288.122 1.2 1.2 0 0 0 .621-.02 1.03 1.03 0 0 1 .632 0h.044a1 1 0 0 1 .219.115 1.4 1.4 0 0 0 .321.161 1.6 1.6 0 0 0 .567.134.8.8 0 0 0 .277-.028.7.7 0 0 1 .32-.027 1 1 0 0 1 .624.282 1 1 0 0 1 .1.131c.032.052.041.064.069.073s.046 0 .141-.023q.072-.022.2-.055a2 2 0 0 1 .272-.053.97.97 0 0 1 .514.15.8.8 0 0 1 .17.122.2.2 0 0 0 .08.049c.05.015.073.013.24-.008l.18-.021a2 2 0 0 1 .4-.026.9.9 0 0 1 .349.131.08.08 0 0 1 .026.112Zm.9-.473-.007.01a.08.08 0 0 1-.11.018.7.7 0 0 0-.276-.1 1.7 1.7 0 0 0-.358.025l-.178.022a.65.65 0 0 1-.315 0 .33.33 0 0 1-.145-.086.7.7 0 0 0-.138-.1.8.8 0 0 0-.423-.129 2 2 0 0 0-.235.049c-.086.02-.147.038-.2.053a.4.4 0 0 1-.245.021.3.3 0 0 1-.148-.154 1 1 0 0 0-.076-.106.84.84 0 0 0-.517-.225.5.5 0 0 0-.251.022 1 1 0 0 1-.336.042 1.8 1.8 0 0 1-.624-.145 1.5 1.5 0 0 1-.355-.179.8.8 0 0 0-.186-.1v-.184l.06.021a1 1 0 0 1 .224.117 1.4 1.4 0 0 0 .321.161 2 2 0 0 0 .278.092l.87-.021h.011a1 1 0 0 1 .624.282 1 1 0 0 1 .1.131c.032.052.041.064.069.073s.046 0 .14-.023q.073-.022.2-.055a2 2 0 0 1 .272-.053.97.97 0 0 1 .514.15.8.8 0 0 1 .17.122.2.2 0 0 0 .08.049c.05.015.073.013.24-.008l.18-.021a2 2 0 0 1 .4-.026.9.9 0 0 1 .349.131.08.08 0 0 1 .026.112Zm.827-.369-.007.009a.08.08 0 0 1-.11.019.7.7 0 0 0-.276-.1 1.7 1.7 0 0 0-.358.026l-.178.021a.65.65 0 0 1-.316 0 .33.33 0 0 1-.144-.087.7.7 0 0 0-.138-.1.8.8 0 0 0-.423-.128 2 2 0 0 0-.235.048c-.086.021-.147.039-.2.053a.37.37 0 0 1-.245.021.3.3 0 0 1-.164-.147 1 1 0 0 0-.077-.105.84.84 0 0 0-.516-.226.55.55 0 0 0-.251.022 1 1 0 0 1-.336.042 1.4 1.4 0 0 1-.211-.022v-.181a1.3 1.3 0 0 0 .223.027.8.8 0 0 0 .284-.036.7.7 0 0 1 .32-.027 1 1 0 0 1 .624.281 1 1 0 0 1 .1.132c.032.051.041.063.069.072s.046 0 .14-.023l.2-.055a1.6 1.6 0 0 1 .271-.053.97.97 0 0 1 .515.151.8.8 0 0 1 .17.121.16.16 0 0 0 .08.049c.05.016.073.014.24-.007l.179-.022a2 2 0 0 1 .4-.025.9.9 0 0 1 .349.13.084.084 0 0 1 .024.115Zm.746-.416a.083.083 0 0 1-.111.018.7.7 0 0 0-.275-.1 1.7 1.7 0 0 0-.359.025l-.177.022a.65.65 0 0 1-.316 0 .33.33 0 0 1-.144-.086.7.7 0 0 0-.138-.1.8.8 0 0 0-.423-.128 2 2 0 0 0-.235.048c-.086.02-.148.038-.2.053a.36.36 0 0 1-.245.021.28.28 0 0 1-.163-.147 1 1 0 0 0-.077-.105.83.83 0 0 0-.516-.226.5.5 0 0 0-.251.022 1 1 0 0 1-.337.042 1.8 1.8 0 0 1-.623-.145 1.5 1.5 0 0 1-.341-.17v-.211q.045.027.086.054a1.4 1.4 0 0 0 .321.162 1.7 1.7 0 0 0 .568.133.8.8 0 0 0 .283-.036.7.7 0 0 1 .321-.026 1 1 0 0 1 .624.281 1 1 0 0 1 .1.131c.032.052.042.064.069.073s.046 0 .141-.023q.072-.022.2-.055a1.6 1.6 0 0 1 .271-.053 1 1 0 0 1 .515.15 1 1 0 0 1 .17.122.16.16 0 0 0 .08.049c.049.016.072.014.24-.007l.179-.022a1.7 1.7 0 0 1 .4-.025.84.84 0 0 1 .348.13.084.084 0 0 1 .025.115v.005Zm-3.016 2.033L2.667 12.803l-.062 1.613 12.442 2.422ZM9.677 6.682a.78.78 0 0 0 .729.475h2.658a.78.78 0 0 0 .73-.475l.514-1.29a.7.7 0 0 0 .049-.257v-2.4A.757.757 0 0 0 13.58 2H9.892a.755.755 0 0 0-.778.731v2.4a.7.7 0 0 0 .049.257Zm2.058-4.1a1.946 1.946 0 0 1 1.893 1.993h-1.641l-.765-1.034a.234.234 0 0 0-.312-.053.2.2 0 0 0-.069.275l.013.018.588.794h-1.6a1.946 1.946 0 0 1 1.893-1.99Zm3.325 14.824-.011-.478-12.444-2.422v2.389l12.474 2.565Zm6.329.459.006.002v-.005Z"/></svg>