<svg xmlns="http://www.w3.org/2000/svg" viewBox="0 0 24 24"><path fill="#44739e" d="m15.678 15.95.024 2.661L22 14.001l-.016-1.953ZM4.292 10.643a.39.39 0 0 1 .34.388v.024l10.64 2.072-.005-1.831L2.065 8.823 2 10.544l1.907.371v-.009a.305.305 0 0 1 .385-.263m7.639.947a.32.32 0 0 1 .387-.285.41.41 0 0 1 .339.407.317.317 0 0 1-.386.284.41.41 0 0 1-.34-.406m-5.078-.848a.315.315 0 0 1 .386-.27.4.4 0 0 1 .34.391.312.312 0 0 1-.386.272.4.4 0 0 1-.34-.393m2.991 4.528a1.485 1.485 0 0 0 1.287 1.375 1.063 1.063 0 0 0 1.247-.877 1.2 1.2 0 0 0-.044-.36l-2.386-.49a1 1 0 0 0-.104.352m3.241.292a2 2 0 0 1 .017.347 1.643 1.643 0 0 1-2.114 1.405 2.27 2.27 0 0 1-1.868-2.186 1.6 1.6 0 0 1 .077-.365l-5.514-1.134a.33.33 0 0 1-.339.12.43.43 0 0 1-.317-.255L2 13.283v2.388l13.328 2.96-.024-2.613Zm-7.322.326a.298.298 0 0 1-.385.253.42.42 0 0 1-.339-.407.3.3 0 0 1 .384-.253.41.41 0 0 1 .343.407Zm2.219-.221a.305.305 0 0 1-.385.261.42.42 0 0 1-.338-.406.305.305 0 0 1 .384-.261.41.41 0 0 1 .339.406m-4.977-2.309a.305.305 0 0 1 .384-.255.41.41 0 0 1 .34.393l-.007.046 5.507 1.132a1.5 1.5 0 0 1 .273-.441l1.436-1.588a.447.447 0 0 1 .62-.005.5.5 0 0 1 .112.134l1.161 2.052a2.1 2.1 0 0 1 .236.637l2.238.459-.02-2.19-.012-.509-10.675-2.078a.325.325 0 0 1-.351.148.42.42 0 0 1-.328-.28L2 10.639v2.549l1.005.203Zm5.207-1.036a.31.31 0 0 1 .386-.271.41.41 0 0 1 .34.4.31.31 0 0 1-.386.271.41.41 0 0 1-.34-.4m-2.265.933a.305.305 0 0 1 .384-.262.41.41 0 0 1 .34.397.305.305 0 0 1-.385.263.41.41 0 0 1-.339-.398m5.308.167-1.165 1.29a1 1 0 0 0-.093.119l2.304.474a1.3 1.3 0 0 0-.102-.226Zm-2.63-6.543-.375-.066-.036-.006-.314.162-3.546 1.837 11.171 2.109 4.074-2.104Zm7.221 3.586-.009.011a.09.09 0 0 1-.118.019.7.7 0 0 0-.292-.111 2 2 0 0 0-.383.028l-.19.023a.7.7 0 0 1-.337 0 .4.4 0 0 1-.153-.092.7.7 0 0 0-.148-.101.86.86 0 0 0-.45-.137 1.5 1.5 0 0 0-.251.052c-.092.022-.157.041-.21.056a.4.4 0 0 1-.261.023.3.3 0 0 1-.174-.157.6.6 0 0 0-.082-.112.9.9 0 0 0-.551-.241.6.6 0 0 0-.267.024 1 1 0 0 1-.359.044 1.9 1.9 0 0 1-.665-.154 1.7 1.7 0 0 1-.379-.19 1 1 0 0 0-.204-.107.9.9 0 0 0-.605 0 1.46 1.46 0 0 1-.749.022 1.1 1.1 0 0 1-.362-.152.7.7 0 0 0-.319-.116 1 1 0 0 0-.427.027.95.95 0 0 1-.487.011 1 1 0 0 1-.336-.146.9.9 0 0 0-.368-.156 1.4 1.4 0 0 0-.213-.023 1 1 0 0 1-.284-.047 1.6 1.6 0 0 1-.254-.102.56.56 0 0 0-.5-.041.1.1 0 0 1-.124-.052.087.087 0 0 1 .048-.12.8.8 0 0 1 .353-.053.8.8 0 0 1 .305.102 1.4 1.4 0 0 0 .227.094.7.7 0 0 0 .234.039 1.4 1.4 0 0 1 .243.026 1.1 1.1 0 0 1 .438.175.8.8 0 0 0 .282.123.74.74 0 0 0 .397-.019 1.2 1.2 0 0 1 .495-.031.86.86 0 0 1 .392.143.9.9 0 0 0 .305.129 1.3 1.3 0 0 0 .663-.021 1.1 1.1 0 0 1 .712.011 1 1 0 0 1 .239.125 1.4 1.4 0 0 0 .343.173 1.7 1.7 0 0 0 .61.142.8.8 0 0 0 .305-.039.8.8 0 0 1 .342-.028 1.06 1.06 0 0 1 .665.3 1 1 0 0 1 .102.14c.033.055.043.068.073.078s.049 0 .149-.025q.077-.023.218-.059a1.6 1.6 0 0 1 .29-.056 1 1 0 0 1 .549.161.8.8 0 0 1 .181.129.17.17 0 0 0 .085.052c.052.017.078.015.256-.007l.191-.023a1.8 1.8 0 0 1 .429-.027.9.9 0 0 1 .371.138.09.09 0 0 1 .02.125Zm.968-.508-.008.01a.09.09 0 0 1-.117.019.7.7 0 0 0-.294-.11 1.7 1.7 0 0 0-.383.027l-.19.023a.7.7 0 0 1-.335 0 .4.4 0 0 1-.155-.091.7.7 0 0 0-.146-.102.9.9 0 0 0-.452-.136 2 2 0 0 0-.251.051c-.092.022-.157.042-.21.057a.4.4 0 0 1-.261.022.3.3 0 0 1-.174-.156 1 1 0 0 0-.081-.112.9.9 0 0 0-.551-.241.56.56 0 0 0-.268.023 1 1 0 0 1-.359.045 1.9 1.9 0 0 1-.665-.155 1.7 1.7 0 0 1-.379-.19 1 1 0 0 0-.204-.107.9.9 0 0 0-.605-.005 1.46 1.46 0 0 1-.749.023 1.1 1.1 0 0 1-.361-.154.7.7 0 0 0-.32-.116 1 1 0 0 0-.427.029.95.95 0 0 1-.486.011 1 1 0 0 1-.337-.147.9.9 0 0 0-.373-.15 1.3 1.3 0 0 0-.213-.024 1 1 0 0 1-.284-.046 1.6 1.6 0 0 1-.254-.102.56.56 0 0 0-.5-.042.1.1 0 0 1-.118-.058.087.087 0 0 1 .047-.121.8.8 0 0 1 .353-.052.8.8 0 0 1 .305.102 1.5 1.5 0 0 0 .227.095.8.8 0 0 0 .235.038 1.4 1.4 0 0 1 .242.027 1.1 1.1 0 0 1 .439.175.8.8 0 0 0 .281.123.74.74 0 0 0 .397-.013 1.2 1.2 0 0 1 .496-.031.86.86 0 0 1 .391.142.9.9 0 0 0 .306.13 1.3 1.3 0 0 0 .663-.022 1.1 1.1 0 0 1 .711.011 1 1 0 0 1 .239.125 1.5 1.5 0 0 0 .343.173 1.7 1.7 0 0 0 .61.143.8.8 0 0 0 .305-.039.8.8 0 0 1 .342-.028 1.07 1.07 0 0 1 .666.3 1 1 0 0 1 .102.14c.033.055.044.068.073.077s.049.005.151-.024q.075-.024.217-.059a1.6 1.6 0 0 1 .289-.056 1 1 0 0 1 .549.161.8.8 0 0 1 .181.129.17.17 0 0 0 .086.052c.052.017.077.015.255-.008l.192-.023a2 2 0 0 1 .428-.027.9.9 0 0 1 .371.139.09.09 0 0 1 .019.127Zm.875-.392-.008.011a.086.086 0 0 1-.117.019.7.7 0 0 0-.294-.11 1.7 1.7 0 0 0-.382.028l-.19.022a.7.7 0 0 1-.337 0 .4.4 0 0 1-.153-.093.7.7 0 0 0-.148-.101.85.85 0 0 0-.45-.137 2 2 0 0 0-.252.051c-.091.023-.156.042-.209.057a.4.4 0 0 1-.261.023.3.3 0 0 1-.174-.157 1 1 0 0 0-.083-.113.9.9 0 0 0-.55-.24.56.56 0 0 0-.267.024 1 1 0 0 1-.359.044 1.9 1.9 0 0 1-.665-.154 1.7 1.7 0 0 1-.38-.191 1 1 0 0 0-.203-.102.9.9 0 0 0-.61 0 1.45 1.45 0 0 1-.75.021 1 1 0 0 1-.361-.152.7.7 0 0 0-.319-.116 1 1 0 0 0-.427.027.9.9 0 0 1-.486.011 1 1 0 0 1-.338-.146.9.9 0 0 0-.375-.15 1 1 0 0 0-.214-.023 1 1 0 0 1-.283-.047 1.6 1.6 0 0 1-.255-.101.6.6 0 0 0-.239-.08.6.6 0 0 0-.261.037.1.1 0 0 1-.123-.051.087.087 0 0 1 .053-.134.75.75 0 0 1 .659.046 1.4 1.4 0 0 0 .227.095.8.8 0 0 0 .235.039 1.4 1.4 0 0 1 .242.026 1.1 1.1 0 0 1 .438.175.8.8 0 0 0 .282.123.75.75 0 0 0 .4-.011 1.2 1.2 0 0 1 .497-.032.9.9 0 0 1 .391.143.9.9 0 0 0 .305.13 1.3 1.3 0 0 0 .663-.021 1.1 1.1 0 0 1 .712.011 1 1 0 0 1 .239.125 1.5 1.5 0 0 0 .343.172 1.7 1.7 0 0 0 .605.143.9.9 0 0 0 .305-.038.8.8 0 0 1 .342-.029 1.07 1.07 0 0 1 .666.3 1 1 0 0 1 .101.14c.034.055.044.067.074.078s.048.005.15-.025q.075-.023.217-.059a1.6 1.6 0 0 1 .289-.057 1.05 1.05 0 0 1 .55.161.8.8 0 0 1 .181.13.2.2 0 0 0 .085.052c.052.017.077.014.255-.008l.191-.022a2 2 0 0 1 .43-.028.9.9 0 0 1 .371.139.087.087 0 0 1 .029.127Zm.788-.442a.087.087 0 0 1-.118.019.7.7 0 0 0-.292-.109 1.7 1.7 0 0 0-.383.027l-.19.022a.7.7 0 0 1-.337 0 .4.4 0 0 1-.153-.091.7.7 0 0 0-.148-.102.85.85 0 0 0-.45-.136 1.5 1.5 0 0 0-.251.051 4 4 0 0 0-.21.057.4.4 0 0 1-.261.022.3.3 0 0 1-.174-.157 1 1 0 0 0-.082-.112.9.9 0 0 0-.551-.24.56.56 0 0 0-.267.023 1 1 0 0 1-.359.045 1.9 1.9 0 0 1-.665-.155 1.7 1.7 0 0 1-.379-.191 1 1 0 0 0-.204-.102.9.9 0 0 0-.605 0 1.45 1.45 0 0 1-.749.022 1.1 1.1 0 0 1-.362-.153.7.7 0 0 0-.319-.116 1 1 0 0 0-.427.028.9.9 0 0 1-.487.011 1 1 0 0 1-.337-.147.9.9 0 0 0-.375-.149 1 1 0 0 0-.213-.023 1 1 0 0 1-.283-.057 2 2 0 0 1-.254-.102.6.6 0 0 0-.239-.079.6.6 0 0 0-.262.036.1.1 0 0 1-.122-.059.09.09 0 0 1 .049-.121.75.75 0 0 1 .659.046 1.4 1.4 0 0 0 .227.096.8.8 0 0 0 .234.038 1.4 1.4 0 0 1 .243.027 1.1 1.1 0 0 1 .438.174.8.8 0 0 0 .282.124.8.8 0 0 0 .401-.012 1.2 1.2 0 0 1 .495-.031.9.9 0 0 1 .392.142.9.9 0 0 0 .305.13 1.3 1.3 0 0 0 .663-.022 1.12 1.12 0 0 1 .712.012 1 1 0 0 1 .239.125 1.5 1.5 0 0 0 .343.172 1.7 1.7 0 0 0 .605.144.9.9 0 0 0 .305-.039.7.7 0 0 1 .342-.029 1.06 1.06 0 0 1 .665.3 1 1 0 0 1 .102.141c.033.055.043.067.073.077s.049 0 .149-.024q.077-.024.218-.059a1.6 1.6 0 0 1 .29-.057 1.05 1.05 0 0 1 .549.16.8.8 0 0 1 .181.131.2.2 0 0 0 .085.051c.052.017.078.015.256-.008l.191-.023a2 2 0 0 1 .429-.027.9.9 0 0 1 .371.14.087.087 0 0 1 .023.127Zm3.009-1.287L8.258 5.385l-.008-.001v1.429l.375.066V5.834l12.318 2.282Zm-19.088.601.594.112L7.89 5.984l.01.985.314-.162.036.006V5.384l.008.001v-.016Zm19.497 1.174.045.083-6.288 3.456.025 2.691 6.299-3.899.007.012-.033-3.935-6.315 3.261.016 1.763Z"/></svg>