<?xml version="1.0" encoding="UTF-8"?>
<svg width="24px" fill="#44739e" height="24px" viewBox="0 0 24 24" version="1.1" xmlns="http://www.w3.org/2000/svg" xmlns:xlink="http://www.w3.org/1999/xlink">
            <path d="m 15.718,16.598 0.024,2.617 6.193,-4.533 -0.016,-1.921 z M 4.522,11.380001 a 0.386,0.386 0 0 1 0.334,0.381 v 0.024 l 10.463,2.037 -0.005,-1.8 -12.982,-2.4320007 -0.064,1.6920007 1.875,0.365 v -0.009 a 0.3,0.3 0 0 1 0.379,-0.258 z m 7.512,0.931 a 0.314,0.314 0 0 1 0.38,-0.28 0.4,0.4 0 0 1 0.334,0.4 0.312,0.312 0 0 1 -0.38,0.279 0.4,0.4 0 0 1 -0.334,-0.399 z m -4.994,-0.834 a 0.309,0.309 0 0 1 0.38,-0.266 0.387,0.387 0 0 1 0.334,0.385 0.307,0.307 0 0 1 -0.379,0.267 0.39,0.39 0 0 1 -0.335,-0.386 z m 2.941,4.453 a 1.46,1.46 0 0 0 1.266,1.352 1.045,1.045 0 0 0 1.226,-0.863 1.189,1.189 0 0 0 -0.043,-0.354 l -2.346,-0.482 a 0.971,0.971 0 0 0 -0.103,0.347 z m 3.187,0.287 a 1.861,1.861 0 0 1 0.017,0.341 1.616,1.616 0 0 1 -2.079,1.382 2.229,2.229 0 0 1 -1.837,-2.15 1.581,1.581 0 0 1 0.076,-0.359 l -5.422,-1.115 a 0.318,0.318 0 0 1 -0.333,0.118 0.424,0.424 0 0 1 -0.312,-0.251 l -1.01,-0.207 v 2.348 l 13.106,2.911 -0.024,-2.57 z m -7.2,0.32 a 0.293,0.293 0 0 1 -0.378,0.249 0.407,0.407 0 0 1 -0.334,-0.4 0.294,0.294 0 0 1 0.378,-0.249 0.405,0.405 0 0 1 0.337,0.4 z m 2.182,-0.217 a 0.3,0.3 0 0 1 -0.378,0.257 0.407,0.407 0 0 1 -0.333,-0.4 0.3,0.3 0 0 1 0.378,-0.256 0.4,0.4 0 0 1 0.333,0.399 z m -4.894,-2.271 a 0.3,0.3 0 0 1 0.378,-0.25 0.4,0.4 0 0 1 0.334,0.386 0.325,0.325 0 0 1 -0.007,0.045 l 5.416,1.113 a 1.507,1.507 0 0 1 0.268,-0.433 l 1.412,-1.562 a 0.442,0.442 0 0 1 0.61,-0.005 0.464,0.464 0 0 1 0.11,0.132 l 1.142,2.018 a 2.093,2.093 0 0 1 0.232,0.626 l 2.2,0.452 -0.019,-2.154 -0.012,-0.5 -10.497,-2.044 a 0.321,0.321 0 0 1 -0.345,0.146 0.412,0.412 0 0 1 -0.323,-0.276 l -1.887,-0.367 v 2.506 l 0.988,0.2 a 0.216,0.216 0 0 1 0,-0.033 z m 5.121,-1.018 a 0.306,0.306 0 0 1 0.379,-0.267 0.4,0.4 0 0 1 0.334,0.393 0.306,0.306 0 0 1 -0.379,0.267 0.4,0.4 0 0 1 -0.334,-0.393 z m -2.228,0.917 a 0.3,0.3 0 0 1 0.378,-0.258 0.4,0.4 0 0 1 0.334,0.391 0.3,0.3 0 0 1 -0.378,0.258 0.4,0.4 0 0 1 -0.334,-0.391 z m 5.22,0.164 -1.146,1.269 a 0.919,0.919 0 0 0 -0.091,0.117 l 2.265,0.466 a 1.314,1.314 0 0 0 -0.1,-0.222 z M 8.783,7.678 8.414,7.613 8.379,7.607 8.07,7.767 4.583,9.5730003 15.568,11.647001 19.574,9.5780003 Z m 7.1,3.527001 -0.008,0.01 a 0.088,0.088 0 0 1 -0.116,0.019 0.7,0.7 0 0 0 -0.288,-0.109 1.828,1.828 0 0 0 -0.376,0.027 l -0.187,0.023 a 0.671,0.671 0 0 1 -0.331,0 0.359,0.359 0 0 1 -0.151,-0.09 0.71,0.71 0 0 0 -0.145,-0.1 0.854,0.854 0 0 0 -0.443,-0.134 1.541,1.541 0 0 0 -0.247,0.051 c -0.09,0.021 -0.154,0.04 -0.206,0.055 a 0.393,0.393 0 0 1 -0.257,0.022 0.3,0.3 0 0 1 -0.171,-0.154 0.612,0.612 0 0 0 -0.081,-0.11 0.871,0.871 0 0 0 -0.541,-0.237 0.565,0.565 0 0 0 -0.263,0.023 1.052,1.052 0 0 1 -0.353,0.044 1.9,1.9 0 0 1 -0.654,-0.152001 1.7,1.7 0 0 1 -0.373,-0.187 0.867,0.867 0 0 0 -0.2,-0.105 0.912,0.912 0 0 0 -0.595,0 1.444,1.444 0 0 1 -0.737,0.022 1.088,1.088 0 0 1 -0.356,-0.1499997 0.666,0.666 0 0 0 -0.313,-0.114 0.988,0.988 0 0 0 -0.42,0.027 0.934,0.934 0 0 1 -0.479,0.011 1,1 0 0 1 -0.331,-0.144 0.931,0.931 0 0 0 -0.361,-0.153 1.381,1.381 0 0 0 -0.21,-0.023 0.877,0.877 0 0 1 -0.279,-0.046 1.591,1.591 0 0 1 -0.25,-0.1 0.552,0.552 0 0 0 -0.492,-0.041 0.1,0.1 0 0 1 -0.122,-0.051 0.086,0.086 0 0 1 0.048,-0.118 0.8,0.8 0 0 1 0.347,-0.052 0.774,0.774 0 0 1 0.3,0.1 1.4,1.4 0 0 0 0.223,0.093 0.729,0.729 0 0 0 0.23,0.038 1.375,1.375 0 0 1 0.239,0.026 1.119,1.119 0 0 1 0.431,0.1720003 0.8,0.8 0 0 0 0.277,0.121 0.734,0.734 0 0 0 0.39,-0.019 1.187,1.187 0 0 1 0.487,-0.03 0.85,0.85 0 0 1 0.386,0.14 0.878,0.878 0 0 0 0.3,0.127 1.264,1.264 0 0 0 0.652,-0.021 1.079,1.079 0 0 1 0.7,0.011 1.117,1.117 0 0 1 0.235,0.1230004 1.443,1.443 0 0 0 0.337,0.17 1.741,1.741 0 0 0 0.6,0.14 0.834,0.834 0 0 0 0.3,-0.038 0.761,0.761 0 0 1 0.336,-0.028 1.041,1.041 0 0 1 0.654,0.295 0.968,0.968 0 0 1 0.1,0.138 c 0.033,0.054 0.043,0.067 0.072,0.076 0.029,0.009 0.048,0 0.147,-0.024 0.051,-0.015 0.121,-0.035 0.214,-0.058 a 1.634,1.634 0 0 1 0.285,-0.055 1.018,1.018 0 0 1 0.54,0.158 0.842,0.842 0 0 1 0.178,0.127 0.171,0.171 0 0 0 0.084,0.051 c 0.051,0.017 0.076,0.015 0.251,-0.007 l 0.188,-0.023 a 1.807,1.807 0 0 1 0.422,-0.026 0.885,0.885 0 0 1 0.365,0.136 0.087,0.087 0 0 1 0.019,0.123 z m 0.952,-0.5 -0.008,0.01 a 0.087,0.087 0 0 1 -0.115,0.019 0.712,0.712 0 0 0 -0.289,-0.109 1.731,1.731 0 0 0 -0.376,0.027 l -0.187,0.023 a 0.666,0.666 0 0 1 -0.33,0 0.364,0.364 0 0 1 -0.152,-0.09 0.659,0.659 0 0 0 -0.144,-0.1 0.858,0.858 0 0 0 -0.444,-0.134001 1.618,1.618 0 0 0 -0.247,0.05 c -0.09,0.022 -0.154,0.041 -0.206,0.056 a 0.393,0.393 0 0 1 -0.257,0.022 0.3,0.3 0 0 1 -0.171,-0.154 0.653,0.653 0 0 0 -0.08,-0.11 0.871,0.871 0 0 0 -0.542,-0.2370001 0.552,0.552 0 0 0 -0.263,0.023 1.048,1.048 0 0 1 -0.353,0.044 1.9,1.9 0 0 1 -0.654,-0.1520001 1.7,1.7 0 0 1 -0.373,-0.187 0.867,0.867 0 0 0 -0.2,-0.105 0.905,0.905 0 0 0 -0.595,-0.005 1.444,1.444 0 0 1 -0.737,0.022 1.068,1.068 0 0 1 -0.355,-0.1510003 0.677,0.677 0 0 0 -0.314,-0.114 1,1 0 0 0 -0.42,0.028 0.931,0.931 0 0 1 -0.478,0.011 1,1 0 0 1 -0.332,-0.144 0.924,0.924 0 0 0 -0.366,-0.148 1.252,1.252 0 0 0 -0.21,-0.023 0.907,0.907 0 0 1 -0.279,-0.046 1.591,1.591 0 0 1 -0.25,-0.1 0.552,0.552 0 0 0 -0.492,-0.041 0.1,0.1 0 0 1 -0.116,-0.057 0.086,0.086 0 0 1 0.047,-0.119 0.811,0.811 0 0 1 0.347,-0.051 0.774,0.774 0 0 1 0.3,0.1 1.5,1.5 0 0 0 0.223,0.093 0.761,0.761 0 0 0 0.231,0.038 1.375,1.375 0 0 1 0.238,0.026 1.132,1.132 0 0 1 0.432,0.172 0.79,0.79 0 0 0 0.276,0.121 0.734,0.734 0 0 0 0.39,-0.013 1.19,1.19 0 0 1 0.488,-0.03 0.845,0.845 0 0 1 0.385,0.14 0.887,0.887 0 0 0 0.3,0.127 1.264,1.264 0 0 0 0.652,-0.021 1.079,1.079 0 0 1 0.7,0.011 1.05,1.05 0 0 1 0.235,0.1230003 1.488,1.488 0 0 0 0.337,0.17 1.741,1.741 0 0 0 0.6,0.14 0.834,0.834 0 0 0 0.3,-0.038 0.746,0.746 0 0 1 0.336,-0.028 1.045,1.045 0 0 1 0.655,0.2950001 0.971,0.971 0 0 1 0.1,0.138 c 0.033,0.054 0.043,0.067 0.072,0.076 0.029,0.009 0.048,0.005 0.148,-0.024 0.05,-0.015 0.12,-0.035 0.214,-0.058 a 1.628,1.628 0 0 1 0.284,-0.055 1.015,1.015 0 0 1 0.54,0.158 0.842,0.842 0 0 1 0.178,0.127 0.171,0.171 0 0 0 0.084,0.051 c 0.052,0.017 0.076,0.015 0.251,-0.007 l 0.189,-0.023 a 1.916,1.916 0 0 1 0.421,-0.027 0.9,0.9 0 0 1 0.365,0.137 0.087,0.087 0 0 1 0.018,0.125 z M 17.696,10.32 17.688,10.33 a 0.085,0.085 0 0 1 -0.115,0.019 0.71,0.71 0 0 0 -0.289,-0.108 1.731,1.731 0 0 0 -0.376,0.027 l -0.187,0.022 a 0.687,0.687 0 0 1 -0.331,0 0.359,0.359 0 0 1 -0.151,-0.091 0.717,0.717 0 0 0 -0.145,-0.1 0.842,0.842 0 0 0 -0.443,-0.1339997 1.618,1.618 0 0 0 -0.247,0.05 c -0.09,0.022 -0.154,0.041 -0.206,0.056 a 0.393,0.393 0 0 1 -0.257,0.022 0.3,0.3 0 0 1 -0.171,-0.1539997 0.652,0.652 0 0 0 -0.081,-0.111 0.873,0.873 0 0 0 -0.541,-0.236 0.552,0.552 0 0 0 -0.263,0.023 1.048,1.048 0 0 1 -0.353,0.044 A 1.92,1.92 0 0 1 12.878,9.507 1.647,1.647 0 0 1 12.505,9.319 a 0.867,0.867 0 0 0 -0.2,-0.1 0.905,0.905 0 0 0 -0.6,0 A 1.434,1.434 0 0 1 10.968,9.24 1.05,1.05 0 0 1 10.613,9.09 0.671,0.671 0 0 0 10.299,8.976 1.022,1.022 0 0 0 9.879,9.003 0.92,0.92 0 0 1 9.401,9.014 0.982,0.982 0 0 1 9.069,8.87 0.941,0.941 0 0 0 8.7,8.723 1.163,1.163 0 0 0 8.49,8.7 0.938,0.938 0 0 1 8.211,8.654 1.591,1.591 0 0 1 7.961,8.554 0.594,0.594 0 0 0 7.726,8.476 0.612,0.612 0 0 0 7.469,8.512 0.1,0.1 0 0 1 7.348,8.462 v 0 A 0.086,0.086 0 0 1 7.4,8.33 0.74,0.74 0 0 1 8.048,8.375 1.4,1.4 0 0 0 8.271,8.469 0.761,0.761 0 0 0 8.502,8.507 1.375,1.375 0 0 1 8.74,8.533 1.088,1.088 0 0 1 9.171,8.705 0.824,0.824 0 0 0 9.448,8.826 0.744,0.744 0 0 0 9.842,8.815 1.187,1.187 0 0 1 10.33,8.784 a 0.874,0.874 0 0 1 0.385,0.14 0.866,0.866 0 0 0 0.3,0.128 1.275,1.275 0 0 0 0.652,-0.021 1.079,1.079 0 0 1 0.7,0.011 1.031,1.031 0 0 1 0.235,0.123 1.451,1.451 0 0 0 0.337,0.169 1.74,1.74 0 0 0 0.595,0.141 0.858,0.858 0 0 0 0.3,-0.038 0.746,0.746 0 0 1 0.336,-0.028 1.045,1.045 0 0 1 0.655,0.2950003 0.917,0.917 0 0 1 0.1,0.138 c 0.033,0.054 0.043,0.066 0.072,0.076 0.029,0.01 0.048,0.005 0.148,-0.024 0.05,-0.015 0.12,-0.035 0.213,-0.058 a 1.571,1.571 0 0 1 0.285,-0.056 1.027,1.027 0 0 1 0.54,0.158 0.835,0.835 0 0 1 0.178,0.1279997 0.187,0.187 0 0 0 0.084,0.051 c 0.051,0.017 0.076,0.014 0.251,-0.008 l 0.188,-0.022 a 1.851,1.851 0 0 1 0.422,-0.027 0.9,0.9 0 0 1 0.365,0.137 0.086,0.086 0 0 1 0.029,0.125 z m 0.775,-0.4349997 a 0.086,0.086 0 0 1 -0.116,0.019 0.7,0.7 0 0 0 -0.288,-0.108 1.731,1.731 0 0 0 -0.376,0.027 l -0.187,0.022 a 0.671,0.671 0 0 1 -0.331,0 0.359,0.359 0 0 1 -0.151,-0.09 0.679,0.679 0 0 0 -0.145,-0.1 A 0.836,0.836 0 0 0 16.434,9.521 1.5,1.5 0 0 0 16.187,9.571 c -0.09,0.022 -0.154,0.041 -0.206,0.056 a 0.393,0.393 0 0 1 -0.257,0.022 0.3,0.3 0 0 1 -0.171,-0.1540003 0.652,0.652 0 0 0 -0.081,-0.111 0.869,0.869 0 0 0 -0.541,-0.236 0.552,0.552 0 0 0 -0.263,0.023 1.052,1.052 0 0 1 -0.353,0.044 1.92,1.92 0 0 1 -0.654,-0.152 1.647,1.647 0 0 1 -0.373,-0.188 0.867,0.867 0 0 0 -0.2,-0.1 0.905,0.905 0 0 0 -0.595,0 1.434,1.434 0 0 1 -0.737,0.021 1.067,1.067 0 0 1 -0.356,-0.15 0.666,0.666 0 0 0 -0.313,-0.114 1.021,1.021 0 0 0 -0.42,0.027 0.923,0.923 0 0 1 -0.479,0.011 0.985,0.985 0 0 1 -0.331,-0.144 0.932,0.932 0 0 0 -0.369,-0.147 1.163,1.163 0 0 0 -0.21,-0.023 0.938,0.938 0 0 1 -0.278,-0.056 1.693,1.693 0 0 1 -0.25,-0.1 0.594,0.594 0 0 0 -0.235,-0.078 0.61,0.61 0 0 0 -0.257,0.036 0.1,0.1 0 0 1 -0.12,-0.058 0.087,0.087 0 0 1 0.048,-0.119 0.74,0.74 0 0 1 0.648,0.045 1.4,1.4 0 0 0 0.223,0.094 0.76,0.76 0 0 0 0.23,0.038 1.375,1.375 0 0 1 0.239,0.026 1.105,1.105 0 0 1 0.431,0.171 0.8,0.8 0 0 0 0.277,0.122 0.755,0.755 0 0 0 0.394,-0.011 1.184,1.184 0 0 1 0.487,-0.031 0.862,0.862 0 0 1 0.386,0.14 0.857,0.857 0 0 0 0.3,0.128 1.262,1.262 0 0 0 0.652,-0.022 1.087,1.087 0 0 1 0.7,0.012 1.031,1.031 0 0 1 0.235,0.123 1.451,1.451 0 0 0 0.337,0.169 1.74,1.74 0 0 0 0.595,0.141 0.858,0.858 0 0 0 0.3,-0.038 0.732,0.732 0 0 1 0.336,-0.028 1.041,1.041 0 0 1 0.654,0.295 0.867,0.867 0 0 1 0.1,0.138 c 0.033,0.054 0.043,0.066 0.072,0.076 0.029,0.01 0.048,0 0.147,-0.024 0.051,-0.015 0.121,-0.035 0.214,-0.058 a 1.571,1.571 0 0 1 0.285,-0.056 1.027,1.027 0 0 1 0.54,0.158 A 0.835,0.835 0 0 1 17.146,9.617 0.187,0.187 0 0 0 17.23,9.668 c 0.051,0.016 0.076,0.014 0.251,-0.008 l 0.188,-0.023 a 1.879,1.879 0 0 1 0.422,-0.026 0.887,0.887 0 0 1 0.365,0.137 0.086,0.086 0 0 1 0.023,0.125 z M 21.43,8.619 8.422,6.209 8.414,6.208 V 7.613 L 8.783,7.678 V 6.651 L 20.896,8.895 Z M 2.659,9.21 3.243,9.32 8.06,6.798 8.07,7.767 8.379,7.607 8.414,7.613 V 6.208 L 8.422,6.209 V 6.193 Z m 19.173,1.155 0.044,0.081 -6.183,3.399 0.024,2.646 6.194,-3.834 0.007,0.012 -0.032,-3.87 -6.21,3.207 0.016,1.734 z"/>

</svg>