<?xml version="1.0" encoding="UTF-8"?>
<svg width="24px" fill="#44739e" height="24px" viewBox="0 0 24 24" version="1.1" xmlns="http://www.w3.org/2000/svg" xmlns:xlink="http://www.w3.org/1999/xlink">
            <path d="m 18.058,9.038 v -0.3 h -12.4 v 0.3 3.2 h 12.4 z m -12.4,8.4 h -0.7 v 0.4 h 0.7 v 0.3 h -0.7 v 0.4 h 0.7 v 0.3 h -0.7 v 0.4 h 0.7 v 0.1 a 1.367,1.367 0 0 0 1.4,1.4 h 9.6 a 1.367,1.367 0 0 0 1.4,-1.4 v 0 -2.6 h -12.4 z m 12.4,-13 a 1.211,1.211 0 0 0 -1.3,-1.3 h -0.2 v -0.8 h -0.5 v 0.8 h -9 a 1.415,1.415 0 0 0 -1.4,1.3 v 3.8 h 12.4 z m -4.9,1.5 h -2.6 a 0.9,0.9 0 0 1 -0.9,-0.9 v 0 c 0.1,-0.5 0.4,-0.9 0.9,-0.9 h 2.6 a 0.9,0.9 0 1 1 0,1.8 z m 4.9,9 v -2.2 h -12.4 v 2.2 1.4 h 12.4 z"/>

</svg>