<?xml version="1.0" encoding="UTF-8"?>
<svg width="24px" fill="#44739e" height="24px" viewBox="0 0 24 24" version="1.1" xmlns="http://www.w3.org/2000/svg" xmlns:xlink="http://www.w3.org/1999/xlink">
            <path d="m 18.065,11.88 v -1.8 h -12.3 v 1.8 0.1 1.4 h 12.3 v -1.4 z m 0,-4.419 a 1.288,1.288 0 0 0 -1.3,-1.4 h -0.1 v -0.8 h -0.5 v 0.8 h -9 a 1.367,1.367 0 0 0 -1.4,1.4 v 2.1 h 12.3 z m -4.7,1.1 h -2.6 a 0.9,0.9 0 0 1 0,-1.8 h 2.6 a 0.9,0.9 0 1 1 0,1.8 z m -7.609,5.961 h -0.7 v 0.4 h 0.7 v 0.3 h -0.7 v 0.4 h 0.7 v 0.3 h -0.7 v 0.4 h 0.7 v 0.1 a 1.362,1.362 0 0 0 1.389,1.4 h 9.53 a 1.362,1.362 0 0 0 1.39,-1.4 v 0 -2.6 H 5.756 Z"/>

</svg>