<?xml version="1.0" encoding="UTF-8"?>
<svg width="24px" fill="#44739e" height="24px" viewBox="0 0 24 24" version="1.1" xmlns="http://www.w3.org/2000/svg" xmlns:xlink="http://www.w3.org/1999/xlink">
            <path d="m 7.323,11.527 a 0.941,0.941 0 1 0 0.891,0.935 0.917,0.917 0 0 0 -0.891,-0.935 z m 0,1.589 a 0.651,0.651 0 1 1 0.582,-0.652 0.616,0.616 0 0 1 -0.582,0.652 z m 3.149,-1.589 A 1,1 0 0 0 9.845,11.764 L 9.8,11.625 A 0.065,0.065 0 0 0 9.729,11.571 H 9.647 a 0.088,0.088 0 0 0 -0.085,0.085 v 1.622 a 0.089,0.089 0 0 0 0.085,0.085 h 0.14 a 0.088,0.088 0 0 0 0.085,-0.085 v -1.2 a 0.879,0.879 0 0 1 0.577,-0.255 c 0.251,0 0.4,0.166 0.4,0.506 v 0.945 a 0.089,0.089 0 0 0 0.086,0.085 h 0.143 a 0.088,0.088 0 0 0 0.085,-0.085 v -0.945 c 0.003,-0.462 -0.173,-0.802 -0.691,-0.802 z m 8.876,0 a 1,1 0 0 0 -0.627,0.237 l -0.04,-0.139 a 0.066,0.066 0 0 0 -0.072,-0.054 h -0.085 a 0.088,0.088 0 0 0 -0.085,0.085 v 1.622 a 0.089,0.089 0 0 0 0.086,0.085 h 0.137 a 0.089,0.089 0 0 0 0.086,-0.085 v -1.2 a 0.883,0.883 0 0 1 0.578,-0.255 c 0.25,0 0.4,0.166 0.4,0.506 v 0.945 a 0.087,0.087 0 0 0 0.084,0.085 h 0.143 a 0.089,0.089 0 0 0 0.086,-0.085 v -0.945 c 0.003,-0.462 -0.172,-0.802 -0.691,-0.802 z m -2.985,-10e-4 v 0 a 0.942,0.942 0 0 0 0,1.88 1.107,1.107 0 0 0 0.658,-0.206 c 0.068,-0.049 0.049,-0.076 0.019,-0.116 l -0.076,-0.1 C 16.927,12.935 16.9,12.958 16.838,12.992 a 0.848,0.848 0 0 1 -0.443,0.135 0.627,0.627 0 0 1 -0.6,-0.582 h 1.289 a 0.082,0.082 0 0 0 0.08,-0.076 0.971,0.971 0 0 0 0.01,-0.121 v -0.052 a 0.79,0.79 0 0 0 -0.811,-0.77 z m -0.564,0.767 a 0.557,0.557 0 0 1 0.564,-0.493 0.518,0.518 0 0 1 0.5,0.493 z m -2.366,-0.766 a 1,1 0 0 0 -0.626,0.237 l -0.041,-0.139 a 0.066,0.066 0 0 0 -0.071,-0.054 h -0.086 a 0.088,0.088 0 0 0 -0.085,0.085 v 1.622 a 0.089,0.089 0 0 0 0.085,0.085 h 0.139 a 0.088,0.088 0 0 0 0.085,-0.085 v -1.2 a 0.882,0.882 0 0 1 0.577,-0.255 c 0.251,0 0.4,0.166 0.4,0.506 v 0.945 a 0.09,0.09 0 0 0 0.086,0.085 h 0.144 a 0.087,0.087 0 0 0 0.084,-0.085 v -0.945 c 0.003,-0.462 -0.172,-0.802 -0.691,-0.802 z M 12,2.01 v 0 A 9.99,9.99 0 1 0 22,12 10,10 0 0 0 12,2.01 Z m 0.11,19.427 v 0 a 9.167,9.167 0 0 1 -9.174,-9.16 v 0 A 9.167,9.167 0 0 1 12.107,3.11 v 0 a 9.167,9.167 0 0 1 9.174,9.16 v 0 a 9.168,9.168 0 0 1 -9.168,9.167 z M 4.687,12.293 c -0.183,-0.091 -0.332,-0.157 -0.332,-0.3 0,-0.076 0.054,-0.18 0.255,-0.18 a 0.892,0.892 0 0 1 0.359,0.108 0.1,0.1 0 0 0 0.129,-0.04 L 5.135,11.809 A 0.109,0.109 0 0 0 5.107,11.67 0.913,0.913 0 0 0 4.607,11.532 0.5,0.5 0 0 0 4.039,11.998 c 0,0.3 0.273,0.46 0.51,0.577 0.26,0.129 0.394,0.2 0.394,0.359 0,0.12 -0.108,0.214 -0.291,0.214 A 0.754,0.754 0 0 1 4.232,12.992 0.084,0.084 0 0 0 4.113,13 C 4.1,13.022 4.069,13.085 4.05,13.112 a 0.092,0.092 0 0 0 0.023,0.094 0.907,0.907 0 0 0 0.582,0.2 A 0.567,0.567 0 0 0 5.273,12.9 C 5.273,12.579 5,12.441 4.687,12.293 Z"/>

</svg>