<?xml version="1.0" encoding="UTF-8"?>
<svg width="24px" fill="#44739e" height="24px" viewBox="0 0 24 24" version="1.1" xmlns="http://www.w3.org/2000/svg" xmlns:xlink="http://www.w3.org/1999/xlink">
            <path d="m 15.61,7.968 c 0.1,0.028 0.172,-0.052 0.171,-0.181 A 0.311,0.311 0 0 0 15.608,7.504 c -0.1,-0.03 -0.171,0.05 -0.171,0.181 a 0.3,0.3 0 0 0 0.173,0.283 z m 0.005,1.253 c -0.1,-0.021 -0.176,0.066 -0.175,0.2 a 0.263,0.263 0 0 0 0.176,0.267 c 0.1,0.018 0.176,-0.068 0.175,-0.2 A 0.266,0.266 0 0 0 15.615,9.221 Z m 5.14,-1.6 A 4.886,4.886 0 0 0 19.13,6.157 5.642,5.642 0 0 0 16.811,5.497 l -2.99,-0.311 v 0 A 5.149,5.149 0 0 0 11.486,5.512 4.343,4.343 0 0 0 10.9,5.8 l -1.63,0.653 -0.949,0.381 -1.4,0.1 h -0.01 a 4.441,4.441 0 0 0 -3.388,1.13 5.412,5.412 0 0 0 -1.523,4 6.429,6.429 0 0 0 1.652,4.712 4.292,4.292 0 0 0 3.159,1.231 H 6.82 l 2.98,-0.052 2.179,0.51 0.084,0.029 a 6.239,6.239 0 0 0 1.965,0.32 l 2.779,0.018 h 0.06 A 4.554,4.554 0 0 0 20.2,17.545 5.668,5.668 0 0 0 21.57,15.2 9.963,9.963 0 0 0 22,12.18 7.853,7.853 0 0 0 20.755,7.621 Z M 8.431,17.312 7.482,17.059 A 6.344,6.344 0 0 1 5.9,12.741 7.892,7.892 0 0 1 7.806,7.38 L 9.969,6.511 a 5.749,5.749 0 0 0 -1.169,1.6 8.35,8.35 0 0 0 -0.821,3.925 8.057,8.057 0 0 0 1.1,3.932 6.252,6.252 0 0 0 0.533,0.754 5.325,5.325 0 0 0 1.207,1.147 z m 11.5,-0.038 a 4.187,4.187 0 0 1 -3.066,1.177 H 16.809 L 14.03,18.434 C 9.901,18.395 8.43,14.739 8.43,11.328 8.812,7.439 10.764,5.34 13.785,5.567 l 2.99,0.31 v 0 c 3.076,0.233 4.84,2.531 4.84,6.305 a 7.106,7.106 0 0 1 -1.68,5.092 z M 16.732,5.986 v 0 l -2.9,-0.3 c -2.934,-0.221 -4.907,1.895 -5.276,5.66 0,3.346 1.45,6.932 5.511,6.97 l 2.7,0.018 h 0.055 a 4.131,4.131 0 0 0 3.025,-1.163 6.963,6.963 0 0 0 1.653,-4.994 c 0,-3.706 -1.741,-5.962 -4.768,-6.191 z m -0.868,2.822 v 0.128 l -0.517,-0.12 0.3,-0.364 -0.284,-0.073 V 8.247 l 0.513,0.136 -0.3,0.356 z M 15.416,6.685 15.423,6.678 15.477,6.8 15.47,6.807 a 0.261,0.261 0 0 0 -0.027,0.112 c 0,0.066 0.028,0.122 0.055,0.131 0.027,0.009 0.041,0.014 0.068,-0.107 a 0.367,0.367 0 0 1 0.047,-0.133 0.091,0.091 0 0 1 0.108,-0.035 0.224,0.224 0 0 1 0.109,0.112 0.458,0.458 0 0 1 0.042,0.188 0.264,0.264 0 0 1 -0.067,0.2 L 15.799,7.282 15.743,7.163 V 7.151 A 0.26,0.26 0 0 0 15.77,7.04 C 15.77,6.976 15.742,6.92 15.715,6.911 15.688,6.902 15.674,6.897 15.647,7.017 A 0.368,0.368 0 0 1 15.6,7.149 C 15.573,7.196 15.539,7.213 15.5,7.19 A 0.21,0.21 0 0 1 15.391,7.079 0.459,0.459 0 0 1 15.35,6.887 0.272,0.272 0 0 1 15.416,6.685 Z m 0.192,0.689 a 0.468,0.468 0 0 1 0.269,0.442 c 0,0.192 -0.114,0.324 -0.266,0.282 a 0.452,0.452 0 0 1 -0.27,-0.442 c 0,-0.197 0.116,-0.33 0.267,-0.282 z m 0.211,3.092 -0.008,0.008 -0.057,-0.11 0.007,-0.008 a 0.284,0.284 0 0 0 0.028,-0.115 c 0,-0.064 -0.029,-0.115 -0.058,-0.12 -0.014,0 -0.042,-0.007 -0.07,0.118 a 0.456,0.456 0 0 1 -0.049,0.141 0.12,0.12 0 0 1 -0.114,0.058 0.171,0.171 0 0 1 -0.114,-0.092 0.388,0.388 0 0 1 -0.043,-0.185 0.315,0.315 0 0 1 0.071,-0.214 l 0.007,-0.008 0.057,0.112 -0.007,0.008 a 0.3,0.3 0 0 0 -0.028,0.117 c 0,0.066 0.028,0.117 0.057,0.121 0.029,0.004 0.042,0.007 0.07,-0.119 a 0.414,0.414 0 0 1 0.05,-0.14 0.121,0.121 0 0 1 0.113,-0.055 0.173,0.173 0 0 1 0.113,0.093 0.373,0.373 0 0 1 0.044,0.181 0.308,0.308 0 0 1 -0.069,0.209 z m -0.2,-0.651 A 0.4,0.4 0 0 1 15.343,9.398 c 0,-0.207 0.119,-0.341 0.273,-0.307 a 0.42,0.42 0 0 1 0.276,0.417 C 15.891,9.7 15.765,9.842 15.617,9.815 Z"/>

</svg>