<svg xmlns="http://www.w3.org/2000/svg" viewBox="0 0 24 24"><path fill="#44739e" d="M11.78 9.662a.26.26 0 0 0 .182-.1.5.5 0 0 0 .077-.186c.043-.162.089-.163.112-.164.046 0 .094.056.1.137a.3.3 0 0 1-.043.151l-.011.011.1.125.003-.008a.4.4 0 0 0 .11-.28.35.35 0 0 0-.074-.218.23.23 0 0 0-.369.008.5.5 0 0 0-.077.187c-.043.162-.089.163-.112.164-.046 0-.094-.056-.1-.137a.3.3 0 0 1 .043-.151l.011-.012-.095-.125-.011.012a.4.4 0 0 0-.11.279.36.36 0 0 0 .074.218.24.24 0 0 0 .19.089m.252 3.216a.45.45 0 0 0 .441-.46.443.443 0 0 0-.46-.44.45.45 0 0 0-.441.459.445.445 0 0 0 .46.441m-.016-.739a.289.289 0 0 1 .013.577.29.29 0 0 1-.295-.282.286.286 0 0 1 .282-.295m-.029-1.396a.451.451 0 0 0-.019-.9.46.46 0 0 0-.441.46.445.445 0 0 0 .46.44m-.016-.739a.289.289 0 1 1-.282.295.286.286 0 0 1 .282-.295m.44 1.7-.003-.162-.473.01.496-.553-.854.018.004.161.473-.01-.497.554Zm-.004 1.444a.24.24 0 0 0-.187-.089.17.17 0 0 0-.171.101.6.6 0 0 0-.077.186c-.042.162-.089.163-.112.164-.046 0-.093-.056-.095-.137a.34.34 0 0 1 .043-.151v-.011l-.1-.126-.008.013a.4.4 0 0 0-.11.28.35.35 0 0 0 .074.218.23.23 0 0 0 .369-.008.5.5 0 0 0 .077-.186c.043-.163.089-.164.112-.164.046 0 .094.055.1.136a.3.3 0 0 1-.043.151l-.011.012.095.125.011-.012a.4.4 0 0 0 .11-.279.36.36 0 0 0-.077-.223M6.57 4.733a1.72 1.72 0 0 0 .647 1.679 8 8 0 0 0 4.913 1.633 8.8 8.8 0 0 0 3.164-.594l.66-.37a4 4 0 0 0 .533-.388l.02-.018a2.2 2.2 0 0 0 .732-1.178V5.47a2 2 0 0 0 .031-.316 2.7 2.7 0 0 0-1.439-2.157 6.6 6.6 0 0 0-2.371-.871h-.006l-.044-.007a9.2 9.2 0 0 0-4.037.246 8 8 0 0 0-.437.144A3.18 3.18 0 0 0 6.57 4.733m10.94.408-.039.02c0-.039-.008-.078-.014-.117a2 2 0 0 0-.079-.336 2.4 2.4 0 0 0-.3-.6 3.75 3.75 0 0 0-1.123-1.055l-.012.019a4 4 0 0 1 .5.4 3.2 3.2 0 0 1 .458.525 2.3 2.3 0 0 1 .279.568 1.8 1.8 0 0 1 .093.585v.176a2.3 2.3 0 0 1-1.3 1.881l-.665.37a8.8 8.8 0 0 1-3.181.6A8.07 8.07 0 0 1 7.19 6.539a1.65 1.65 0 0 1-.646-1.4 1.8 1.8 0 0 1 .025-.408 2.36 2.36 0 0 1 .688-1.255 3.5 3.5 0 0 1 .71-.543 5 5 0 0 1 .5-.255 5 5 0 0 0-.628.309 3.7 3.7 0 0 0-.74.57 2.5 2.5 0 0 0-.729 1.332 2 2 0 0 0-.027.422q.002.072.011.142l-.045-.031v13.154l.03.047a5.3 5.3 0 0 0 2.658 2.001 8.6 8.6 0 0 0 1.78.457 9.4 9.4 0 0 0 1.379.1q.247 0 .493-.013a7.6 7.6 0 0 0 2.99-.741 5 5 0 0 0 1.189-.82 4 4 0 0 0 .843-1.138l.02-.04Zm-.235 13.218a3.5 3.5 0 0 1-.721.956 4.6 4.6 0 0 1-1.05.739 6 6 0 0 1-1.327.5 8 8 0 0 1-1.55.229 9 9 0 0 1-.49.013 9 9 0 0 1-1.357-.1 8 8 0 0 1-1.672-.441 6 6 0 0 1-1.388-.75 4.1 4.1 0 0 1-.993-1.02l-.009-.014V6.348a2 2 0 0 0 .349.35A8 8 0 0 0 8.975 7.79a8.3 8.3 0 0 0 2.101.536 9 9 0 0 0 1.038.062 9.1 9.1 0 0 0 3.282-.618h.007l.678-.378a3.3 3.3 0 0 0 1.036-.945l.162 11.902ZM15.831 2.997l.115.076.012-.019a6 6 0 0 0-.88-.454 5.5 5.5 0 0 1 .753.4Zm1.07 16.693a5.1 5.1 0 0 1-1.215.838 7.7 7.7 0 0 1-3.034.753 9 9 0 0 1-.5.013 9.4 9.4 0 0 1-1.4-.1 8.7 8.7 0 0 1-1.801-.463 5.55 5.55 0 0 1-2.576-1.844C6.638 20.51 9.286 22 12.023 22c2.641 0 5.051-1.256 5.392-2.889a4 4 0 0 1-.514.579"/></svg>