<svg xmlns="http://www.w3.org/2000/svg" viewBox="0 0 24 24"><path fill="#44739e" d="m10.612 19.837-.1-.014v.089l.107.02.007.086.106.014-.006-.089.09.015v-.094l-.09-.013-.008-.087-.107-.021Zm-.935-.088.275.049v-.122l-.275-.055Zm2.539 1.421-4.769-.885v-.14l4.753.9h.01m0 .392-4.763-.875v-.149l4.763.894Zm-.069.211a.2.2 0 0 1-.171.039l-4.363-.861c-.069-.02-.12-.109-.15-.171l4.743.913a.14.14 0 0 1-.059.082m-3.543-1.99a.53.53 0 0 0 .38.333l-1.532-.281-.01-.25Zm-1.162-.921v-.109l4.763.8v.109Zm3.632 1.101a.6.6 0 0 0-.139-.262 3 3 0 0 0-.161-.11l1.432.251v.292Zm-.439.451c.04.009-.03 0 0 0a.38.38 0 0 0 .41-.2l.039.009 1.12.209v.262Zm-.211-.441a.235.235 0 0 1 .271-.261.34.34 0 0 1 .26.342.235.235 0 0 1-.271.228.33.33 0 0 1-.261-.308m-.87-.172a.23.23 0 0 1 .259-.26.336.336 0 0 1 .262.341.236.236 0 0 1-.261.241.33.33 0 0 1-.26-.322m2.653 1.065v.151l-4.753-.881v-.152ZM8.576 19.37l-1.142-.189v-.282l1.472.25a.36.36 0 0 0-.33.221m.38-.1a.33.33 0 0 1 .26.34.24.24 0 0 1-.26.242.346.346 0 0 1-.271-.322.235.235 0 0 1 .271-.261m3.241-.1v.136l-4.763-.813-.01-.133Zm-.01-1.201v.129l-4.763-.651v-.01l-.01-.129Zm-4.783-1.965 4.773.526h.01v.019h-.01v.1l-4.773-.528Zm0-.648v-.119l4.773.462v.119Zm4.773.864v.171l-4.773-.532v-.109Zm-4.773-.6v-.13l4.773.471v.119Zm4.773-.182v.119l-4.773-.46-.009-.12Zm-4.78-1.375v-.132l4.782.474v.12Zm0 .251v-.13l4.782.482v.109Zm4.782.862v.127l-4.782-.456v-.144Zm-4.782-.6v-.13l4.782.471v.121Zm4.772-.491h.01v.018h-.01v.159l-4.772-.46-.01-.129Zm-4.784-1.315v-.149l4.782.42v.139Zm0 .251v-.119l4.782.422v.119Zm4.782.813v.119l-4.782-.4v-.129Zm-4.782-.552v-.12l4.782.411v.119Zm-.01-.925 4.792.413v.132l-4.792-.411Zm0-.881v-.139l4.783.42.009.119Zm0 .24V11.6l4.792.42v.1Zm4.792.801v.11l-4.792-.401V12.1Zm-4.792-.542v-.13l4.792.41v.119Zm-.01-.9 4.793.422.009.131h-.009l-4.793-.421Zm4.793.169v.112l-4.783-.401-.01.02v-.15Zm-4.793-.549v-.112l4.793.374v.15Zm4.793-.011v.129l-4.793-.35-.01-.13ZM7.355 9.42v-.13l4.803.371v.119Zm0 .259v-.131l4.803.362v.119Zm4.803.752v.11l-4.803-.349v-.121Zm-4.803-.5v-.12l4.803.361v.119Zm4.793-.532.01.121-4.803-.351-.01-.132ZM7.337 7.768l4.813.349v.119l-4.813-.352Zm4.813-.671v.12l-4.813-.35-.01-.13ZM7.317 5.453l4.823.359v.122L8.687 5.67l-1.37-.1Zm4.813-.664.01.109-4.823-.36-.01-.12ZM7.297 3.084a.16.16 0 0 1 .06-.12.2.2 0 0 1 .14-.05h.01l.901.039-.221.462 1.931.13.2-.49 1.631.079a.19.19 0 0 1 .179.179v.04l-1.739-.089-.05.109 1.79.111v.119l-1.841-.1-.039.119 1.881.122v.13l-4.823-.35v-.119l.72.049.049-.1-.769-.05-.01-.11.84.062.05-.1Zm.01.692v-.13l4.823.371v.121Zm4.823.5v.111l-4.823-.35v-.13Zm.01.322h-.01v.05l-4.823-.353v-.128l4.823.362h.01Zm0 .942v.13l-4.823-.36v-.114Zm-4.823-.745V4.68l4.823.349v.12Zm4.823.492v.121l-4.823-.359V4.93Zm0 1.294v.12l-4.813-.359v-.129Zm-4.813-.749v-.136l4.163.32.65.05v.13l-3.232-.24Zm4.183.441.63.049v.121l-4.813-.347v-.13Zm.64.643h-.01v.049l-4.813-.362v-.121l4.813.353h.01Zm0 .951v.12l-4.813-.36v-.121Zm-4.813-.752v-.118l4.813.362v.119Zm4.813.5v.112l-4.813-.35v-.132Zm0 1.535.01.121h-.01l-4.803-.362v-.128Zm0-.261v.12L7.347 8.65v-.111Zm-4.803-.751v-.119l4.803.361v.118Zm4.803.492v.119l-4.803-.341v-.13Zm.039 9.025v.182l-4.773-.662v-.1Zm0-.319v.189l-4.773-.582v-.14Zm-4.773-.965v-.118l4.773.541v.111Zm4.773.674v.159l-4.773-.528v-.161Zm-4.763.68v-.15l4.763.661v.143Zm4.773 1.313-4.773-.821v-.141l4.763.793Zm-.01-.3-4.763-.793v-.089l4.763.661v.065l.01.161Zm4.254-16.559L12.26 2a1.4 1.4 0 0 0-.2.01l-4.614.592-.02.011a.45.45 0 0 0-.279.129.48.48 0 0 0-.15.352l.06 7.461v.01l.089 10.09a.48.48 0 0 0 .4.461l4.363.874c.03 0 .07.01.1.01a.5.5 0 0 0 .33-.121l.05-.049 4.344-2.066a.27.27 0 0 0 .139-.232l.131-16.738v-.031a.585.585 0 0 0-.56-.584"/></svg>