<?xml version="1.0" encoding="UTF-8"?>
<svg width="24px" fill="#44739e" height="24px" viewBox="0 0 24 24" version="1.1" xmlns="http://www.w3.org/2000/svg" xmlns:xlink="http://www.w3.org/1999/xlink">
            <path d="m 21.119818,14.478685 0.02009,-0.516743 c 9.79e-4,-0.02528 0.02008,-0.04854 0.04317,-0.0536 l 0.07832,-0.02023 c 0.03816,-0.01011 0.0733,0.02023 0.07129,0.05865 l -0.01406,0.513709 c 0,0.02629 -0.01707,0.04753 -0.04418,0.05461 l -0.08334,0.02224 c -0.03615,0.0091 -0.0733,-0.02023 -0.07129,-0.05865 m 0.0216,-0.97968 v 0.157753 c 0,0.03135 0.02811,0.05461 0.05823,0.04651 l 0.11949,-0.02831 c 0.02209,-0.0061 0.03615,-0.02427 0.03615,-0.04551 v -0.151685 c 0,-0.02933 -0.02611,-0.05157 -0.05623,-0.04551 l -0.119488,0.02224 c -0.02209,0.002 -0.03815,0.02225 -0.03815,0.0445 m 0.863925,-0.450306 c -0.002,-0.0061 -0.006,-0.01214 -0.01004,-0.0182 0.004,0.0061 0.008,0.01214 0.01004,0.0182 m -0.212769,0.225204 -0.371515,0.08899 c -0.01004,-0.01011 -0.01004,-0.02023 -0.02008,-0.02933 -0.03012,-0.02124 -0.06025,-0.03135 -0.08936,-0.02124 l -0.212868,0.04753 c -0.04016,0.01113 -0.07932,0.04045 -0.07932,0.0809 l -2.379708,0.570339 v -0.08191 l 3.14282,-0.751351 c 0.01004,0.01113 0.01004,0.01113 0.01004,0.02124 z m 0,0.159775 -0.351433,0.09101 v -0.07079 l 0.351433,-0.07786 z m 0,0.171911 -0.36047,0.09101 v -0.07078 l 0.36047,-0.09101 z m 0,0.193147 -0.36047,0.07989 v -0.07989 l 0.36047,-0.09202 z m 0,0.189101 -0.36047,0.0809 v -0.08899 l 0.36047,-0.0809 z m 0,0.175956 -0.36047,0.08697 v -0.09101 l 0.36047,-0.08393 z m -0.003,0.168877 -0.35545,0.08798 -0.002,-0.08899 0.357457,-0.08596 z m 0,0.09202 0.003,0.07584 -0.391597,0.09708 c 0,0 0.04016,-0.06674 0.04016,-0.08697 m -0.0733,0.03337 c 0,0.03236 -0.02711,0.0536 -0.0472,0.0536 l -0.179733,0.04955 c -0.02109,0 -0.04016,0 -0.05121,-0.01011 -0.01004,-0.01011 -0.02008,-0.03034 -0.02008,-0.05056 l 0.008,-1.117419 c 0,-0.03843 0.01606,-0.05258 0.05221,-0.06573 l 0.190779,-0.04045 h 0.01004 c 0.04418,-0.01011 0.06125,0.04045 0.06125,0.05056 z m 0.404652,0.07281 v 0.02023 c -0.009,0.02023 -0.02009,0.04045 -0.04016,0.06067 -0.02008,0.02023 -0.0492,0.04045 -0.100409,0.05056 l -2.801428,0.768542 c -0.06025,0.01113 -0.110451,0 -0.150615,-0.03034 -0.02008,-0.01011 -0.03012,-0.03034 -0.04016,-0.06067 0,0 -0.009,-0.01011 -0.009,-0.02023 0,0 0.009,-0.01011 0.009,-0.02023 v 0.02023 c 1.044259,-0.262922 2.08852,-0.55517 3.13278,-0.819104 z m -3.13278,0.606744 2.379708,-0.616856 c 0,0.02023 0.02008,0.05056 0.04117,0.07078 l -2.420878,0.638095 z m 0,-0.171911 2.379708,-0.616856 v 0.09101 l -2.379708,0.606744 z m 0,-0.192136 2.379708,-0.603709 v 0.08899 l -2.379708,0.59562 z m 0,-0.192135 2.379708,-0.583485 v 0.0809 l -2.379708,0.604722 z m 0,-0.202248 2.379708,-0.57944 v 0.08596 l -2.379708,0.594609 z m 0,-0.17191 2.379708,-0.571351 v 0.06877 l -2.379708,0.573373 z m 0,-0.182023 2.379708,-0.565283 v 0.08494 l -2.379708,0.561237 z m 0.241987,-0.424721 2.7211,-0.63708 c 0.01907,-0.0091 0.04016,-0.0091 0.0492,-0.0091 0.03113,0 0.06025,0.0091 0.09037,0.02933 l 0.01004,0.01113 0.01105,0.0091 -3.103662,0.728093 c 0.04016,-0.05967 0.120492,-0.101124 0.221906,-0.131461 m 2.981164,-0.5663 c 0,-0.01011 -0.009,-0.03034 -0.009,-0.03944 -0.01105,-0.02124 -0.05121,-0.06168 -0.111454,-0.09202 -0.07028,-0.03034 -0.130533,-0.02023 -0.150615,-0.02023 -0.912723,0.21236 -1.827455,0.42472 -2.731141,0.637081 -0.120492,0.04045 -0.210861,0.09101 -0.261066,0.171911 -0.009,0.01011 -0.009,0.02124 -0.009,0.03034 -0.01105,0.01011 -0.01105,0.02023 -0.01105,0.03135 0,0.0091 0,0.01921 -0.01004,0.03944 0,0.01011 0,0.02023 -0.01004,0.03034 l -0.009,1.43596 0.009,0.07078 v 0.03034 c 0.03112,0.07078 0.06025,0.111236 0.111455,0.12236 0.01908,0.0091 0.04016,0.01921 0.0492,0.01921 0.05021,0.02124 0.10041,0.01011 0.130533,0.01011 l 2.801428,-0.768543 c 0.07129,-0.01011 0.111455,-0.05056 0.140573,-0.0809 0.02109,-0.03034 0.04016,-0.06067 0.05021,-0.09101 0.01105,-0.02023 0.01105,-0.03034 0.01105,-0.04045 l 0.02912,-1.415734 c -0.01004,-0.03034 -0.01004,-0.05057 -0.02008,-0.0809 m 0.130532,0.139551 -0.04016,1.385398 c 0,0.131461 -0.09037,0.25281 -0.21086,0.313484 l -2.962085,0.788767 h -0.02008 c -0.0492,0.01011 -0.150614,0.01011 -0.240983,-0.05056 -0.01004,-0.01011 -0.01606,-0.0081 -0.02611,-0.0182 l -0.02711,-0.02124 -0.02209,-0.0273 -0.02209,-0.02124 c -0.04016,-0.05157 -0.03313,-0.09405 -0.03313,-0.15472 v -1.567408 c 0.02008,-0.111237 0.09037,-0.303372 0.412683,-0.394384 l 2.730138,-0.63708 c 0.111455,-0.02023 0.461884,-0.03843 0.461884,0.404495 M 4.744015,7.6372464 c -0.041168,-0.01011 -0.041168,-0.070784 0.00904,-0.080899 l 0.4418023,-0.050565 15.4138787,4.9338366 -0.503052,0.112248 c -0.09941,0.02023 -0.200819,0.02023 -0.291187,-0.01011 z M 21.813649,12.673219 C 16.160588,10.893437 10.596891,9.093431 4.9538711,7.3136495 4.9137075,7.2934222 4.8635025,7.2934222 4.8233386,7.3035397 L 2.2026477,7.697923 C 2.0620743,7.71815 1.9516237,7.8394968 1.9516237,7.9911827 v 1.2134872 c 0,0.1314608 0.080328,0.242697 0.1907782,0.283147 L 2.4536718,9.6091657 2.2930164,9.4069175 c -0.020082,-0.030337 0.010041,-0.080899 0.050205,-0.060674 L 16.942778,14.91817 c 0.08033,0.03034 0.150615,0.0809 0.190779,0.161798 l 0.190778,0.273035 -14.9349254,-5.8257497 0.064262,0.08191 15.8948414,6.2494597 0.03916,0.01517 c 0.08033,0.07078 0.262069,0.05562 0.363483,0.04551 l 2.953046,-0.839329 c 0,0 0.136557,-0.03438 0.216885,-0.0991 0.110451,-0.0809 0.112459,-0.20427 0.112459,-0.33573 l 0.04016,-1.385399 c 0,-0.04045 0.01205,-0.478316 -0.260061,-0.586518 m -3.173644,2.712042 v 0.02124 h -0.01004 c 0,0 0.01004,-0.01113 0.01004,-0.02124"/>

</svg>