<svg xmlns="http://www.w3.org/2000/svg" viewBox="0 0 512 512">
  <path fill="#44739e" fill-rule="evenodd" d="M 147.5 55.0 Q 144.4 54.8 142.2 57.1 L 136.4 63.2 Q 133.9 65.8 134.0 69.5 L 144.8 431.4 Q 144.9 434.6 147.3 436.8 L 152.7 441.5 Q 155.0 443.5 158.3 443.3 L 378.5 430.2 Q 381.9 430.0 384.1 427.4 L 388.0 422.7 Q 390.0 420.3 389.9 417.1 L 379.2 80.5 Q 379.1 77.3 376.8 75.2 L 371.6 70.7 Q 369.3 68.7 366.2 68.5 L 147.5 55.0 Z M 148.5 56.6 Q 146.0 56.5 144.2 58.4 L 138.2 64.7 Q 136.2 66.8 136.3 69.7 L 147.0 430.2 Q 147.1 432.7 148.9 434.3 L 154.0 438.8 Q 155.8 440.3 158.4 440.1 L 377.4 427.1 Q 380.0 426.9 381.7 424.9 L 385.5 420.4 Q 387.0 418.6 386.9 416.1 L 376.3 81.7 Q 376.2 79.2 374.4 77.6 L 369.4 73.3 Q 367.7 71.8 365.3 71.7 L 148.5 56.6 Z M 149.4 57.8 Q 147.4 57.7 146.0 59.2 L 140.0 65.4 Q 138.5 67.0 138.6 69.3 L 149.2 429.0 Q 149.3 430.9 150.7 432.2 L 155.5 436.3 Q 156.8 437.5 158.8 437.3 L 376.2 424.5 Q 378.2 424.3 379.5 422.8 L 383.1 418.6 Q 384.2 417.2 384.1 415.3 L 373.6 83.0 Q 373.5 81.1 372.2 79.9 L 367.5 75.9 Q 366.2 74.8 364.4 74.7 L 149.4 57.8 Z M 369.4 73.3 L 374.4 77.6 L 385.5 420.4 L 381.7 424.9 L 379.5 422.8 L 383.1 418.6 L 372.2 79.9 L 367.5 75.9 Z M 271.75 307.68 L 254.52 301.08 L 254.18 301.97 L 271.41 308.56 Z M 271.89 307.76 L 254.55 292.76 L 253.93 293.48 L 271.27 308.48 Z M 272.04 308.21 L 276.26 287.71 L 275.33 287.51 L 271.11 308.02 Z M 271.20 307.83 L 263.66 317.87 L 264.42 318.44 L 271.96 308.40 Z M 271.88 308.48 L 281.38 300.44 L 280.77 299.72 L 271.27 307.76 Z M 271.25 308.47 L 279.50 316.03 L 280.14 315.33 L 271.90 307.77 Z M 213.75 283.73 L 203.27 279.61 L 202.92 280.49 L 213.40 284.62 Z M 214.05 284.24 L 215.60 273.04 L 214.66 272.91 L 213.11 284.11 Z M 213.39 283.74 L 196.64 290.93 L 197.01 291.81 L 213.77 284.61 Z M 213.46 284.63 L 232.73 289.84 L 232.97 288.92 L 213.70 283.72 Z M 213.68 284.64 L 228.92 281.30 L 228.72 280.37 L 213.48 283.71 Z M 213.17 284.41 L 225.10 305.53 L 225.92 305.06 L 213.99 283.94 Z M 274.32 349.64 L 277.58 336.89 L 276.66 336.66 L 273.40 349.41 Z M 274.15 349.90 L 284.47 341.88 L 283.89 341.13 L 273.56 349.15 Z M 274.29 349.34 L 265.78 329.88 L 264.91 330.26 L 273.42 349.72 Z M 273.82 349.05 L 259.78 350.08 L 259.85 351.03 L 273.89 350.00 Z M 273.48 349.82 L 281.80 360.37 L 282.54 359.79 L 274.23 349.23 Z M 273.41 349.35 L 268.92 360.80 L 269.80 361.14 L 274.30 349.70 Z M 308.05 183.90 L 298.88 179.12 L 298.44 179.96 L 307.61 184.74 Z M 307.58 183.92 L 289.59 195.03 L 290.09 195.84 L 308.08 184.72 Z M 308.22 184.60 L 314.08 176.34 L 313.30 175.79 L 307.44 184.05 Z M 307.44 184.59 L 316.43 197.48 L 317.21 196.94 L 308.22 184.05 Z M 307.37 184.45 L 313.40 205.07 L 314.31 204.80 L 308.28 184.19 Z M 192.43 210.11 L 201.40 196.58 L 200.61 196.05 L 191.64 209.58 Z M 192.02 210.32 L 208.08 211.00 L 208.12 210.05 L 192.06 209.37 Z M 191.63 210.08 L 201.98 228.01 L 202.80 227.53 L 192.45 209.61 Z M 191.60 209.67 L 187.07 221.04 L 187.95 221.39 L 192.48 210.02 Z M 192.50 209.76 L 188.21 186.13 L 187.28 186.30 L 191.57 209.93 Z M 311.37 287.79 L 303.88 298.90 L 304.67 299.43 L 312.16 288.32 Z M 311.29 288.02 L 310.65 295.47 L 311.60 295.56 L 312.24 288.10 Z M 311.75 288.53 L 327.57 289.14 L 327.60 288.20 L 311.78 287.58 Z M 311.82 287.59 L 295.96 285.56 L 295.84 286.50 L 311.70 288.53 Z M 312.10 288.39 L 318.08 282.29 L 317.40 281.63 L 311.42 287.73 Z M 312.24 288.03 L 311.61 275.45 L 310.67 275.50 L 311.29 288.08 Z M 261.33 184.79 L 268.71 186.54 L 268.93 185.62 L 261.55 183.86 Z M 261.90 184.44 L 264.81 172.85 L 263.89 172.62 L 260.98 184.21 Z M 261.73 183.95 L 252.55 176.91 L 251.97 177.67 L 261.15 184.70 Z M 261.21 183.91 L 247.65 191.51 L 248.12 192.34 L 261.67 184.74 Z M 261.07 184.62 L 270.51 196.50 L 271.25 195.91 L 261.81 184.03 Z M 260.99 184.17 L 255.39 200.04 L 256.28 200.35 L 261.89 184.48 Z M 299.47 164.56 L 298.19 179.50 L 299.13 179.58 L 300.41 164.64 Z M 300.40 164.50 L 298.37 155.47 L 297.44 155.68 L 299.48 164.71 Z M 300.05 164.14 L 285.37 160.67 L 285.15 161.59 L 299.83 165.06 Z M 299.58 164.30 L 292.84 172.38 L 293.57 172.99 L 300.31 164.91 Z M 299.68 165.00 L 312.85 173.53 L 313.36 172.73 L 300.20 164.20 Z M 300.42 164.61 L 300.57 154.63 L 299.62 154.61 L 299.47 164.59 Z M 301.98 218.77 L 288.87 207.84 L 288.26 208.56 L 301.37 219.50 Z M 301.42 219.53 L 310.84 225.75 L 311.36 224.96 L 301.94 218.74 Z M 301.28 218.88 L 295.75 227.44 L 296.55 227.96 L 302.08 219.40 Z M 301.75 219.61 L 317.69 217.30 L 317.55 216.36 L 301.61 218.67 Z M 301.76 218.67 L 290.83 216.78 L 290.67 217.71 L 301.60 219.61 Z M 302.04 219.45 L 314.22 205.24 L 313.50 204.62 L 301.32 218.83 Z M 287.90 259.17 L 296.62 256.79 L 296.37 255.88 L 287.65 258.25 Z M 287.30 258.68 L 286.56 269.78 L 287.51 269.84 L 288.25 258.74 Z M 288.08 258.35 L 279.28 250.86 L 278.67 251.58 L 287.47 259.07 Z M 287.69 258.24 L 273.88 260.74 L 274.05 261.67 L 287.86 259.18 Z M 288.25 258.75 L 290.03 239.49 L 289.08 239.40 L 287.30 258.67 Z M 281.75 277.43 L 295.65 286.43 L 296.16 285.63 L 282.27 276.63 Z M 282.40 277.30 L 287.42 270.08 L 286.64 269.54 L 281.62 276.76 Z M 282.35 276.70 L 275.62 269.94 L 274.95 270.61 L 281.67 277.37 Z M 281.60 276.79 L 275.38 287.37 L 276.20 287.85 L 282.42 277.27 Z M 269.27 185.93 L 264.80 172.59 L 263.90 172.89 L 268.37 186.23 Z M 268.70 186.54 L 278.07 189.04 L 278.31 188.12 L 268.94 185.62 Z M 269.06 186.49 L 281.98 179.10 L 281.50 178.28 L 268.58 185.67 Z M 268.35 186.17 L 270.41 196.30 L 271.34 196.11 L 269.29 185.99 Z M 192.69 228.43 L 210.97 241.60 L 211.52 240.83 L 193.25 227.66 Z M 192.99 228.52 L 202.41 228.24 L 202.38 227.29 L 192.96 227.57 Z M 193.34 227.75 L 187.88 220.92 L 187.14 221.51 L 192.60 228.34 Z M 203.34 280.46 L 215.37 273.39 L 214.89 272.57 L 202.86 279.64 Z M 202.68 279.82 L 196.41 291.14 L 197.24 291.60 L 203.51 280.28 Z M 203.19 279.58 L 192.34 277.45 L 192.16 278.38 L 203.01 280.52 Z M 203.53 279.86 L 198.49 268.23 L 197.62 268.61 L 202.66 280.24 Z M 203.56 280.17 L 205.91 271.27 L 204.99 271.03 L 202.64 279.93 Z M 325.97 204.81 L 317.24 216.55 L 318.00 217.11 L 326.73 205.38 Z M 326.65 204.73 L 317.12 196.84 L 316.52 197.58 L 326.04 205.46 Z M 325.88 205.17 L 327.68 216.74 L 328.62 216.59 L 326.82 205.02 Z M 326.35 204.62 L 313.86 204.46 L 313.85 205.41 L 326.34 205.57 Z M 326.44 205.56 L 337.60 203.30 L 337.42 202.37 L 326.25 204.63 Z M 215.28 273.43 L 223.58 270.68 L 223.28 269.77 L 214.98 272.53 Z M 215.50 272.68 L 206.51 261.46 L 205.77 262.06 L 214.76 273.28 Z M 215.22 272.51 L 205.54 270.68 L 205.36 271.62 L 215.05 273.44 Z M 214.90 273.39 L 228.58 281.25 L 229.06 280.43 L 215.37 272.57 Z M 215.59 273.12 L 220.71 256.17 L 219.80 255.89 L 214.68 272.84 Z M 301.96 336.37 L 302.54 323.29 L 301.59 323.25 L 301.01 336.32 Z M 301.78 335.97 L 288.39 325.54 L 287.80 326.29 L 301.20 336.72 Z M 301.27 335.93 L 291.74 341.00 L 292.18 341.84 L 301.71 336.77 Z M 301.53 336.82 L 315.47 335.70 L 315.39 334.75 L 301.45 335.87 Z M 301.08 336.11 L 293.77 348.65 L 294.59 349.13 L 301.90 336.58 Z M 197.28 291.22 L 192.70 277.76 L 191.80 278.07 L 196.38 291.52 Z M 196.37 291.50 L 201.00 308.43 L 201.91 308.18 L 197.28 291.25 Z M 196.72 290.91 L 182.17 294.25 L 182.39 295.17 L 196.93 291.83 Z M 196.41 291.14 L 191.07 300.70 L 191.90 301.17 L 197.24 291.60 Z M 236.59 268.47 L 223.38 269.75 L 223.47 270.70 L 236.68 269.42 Z M 236.16 268.95 L 236.28 282.74 L 237.23 282.73 L 237.11 268.94 Z M 236.87 268.53 L 229.72 264.53 L 229.25 265.36 L 236.40 269.36 Z M 236.24 269.21 L 242.27 278.31 L 243.06 277.79 L 237.03 268.68 Z M 236.24 268.68 L 228.42 280.58 L 229.22 281.10 L 237.03 269.21 Z M 236.97 269.29 L 247.92 258.72 L 247.26 258.04 L 236.31 268.60 Z M 253.89 301.44 L 249.73 323.11 L 250.67 323.29 L 254.82 301.62 Z M 254.83 301.52 L 254.72 293.12 L 253.77 293.13 L 253.88 301.53 Z M 254.46 301.06 L 242.12 298.08 L 241.90 299.00 L 254.24 301.99 Z M 253.94 301.76 L 263.63 318.40 L 264.45 317.92 L 254.76 301.29 Z M 263.59 257.25 L 273.92 235.06 L 273.06 234.66 L 262.73 256.85 Z M 262.69 257.05 L 262.69 276.51 L 263.64 276.51 L 263.64 257.05 Z M 263.32 257.50 L 279.14 251.67 L 278.81 250.78 L 263.00 256.61 Z M 263.30 256.60 L 254.40 253.87 L 254.12 254.78 L 263.02 257.51 Z M 262.99 257.49 L 273.80 261.65 L 274.14 260.76 L 263.33 256.61 Z M 263.12 256.58 L 247.55 257.91 L 247.63 258.86 L 263.20 257.52 Z M 303.80 299.17 L 303.79 307.66 L 304.74 307.66 L 304.75 299.17 Z M 304.50 299.59 L 311.35 295.93 L 310.90 295.10 L 304.05 298.75 Z M 304.68 298.91 L 296.30 285.78 L 295.50 286.29 L 303.88 299.42 Z M 303.93 298.84 L 294.07 309.54 L 294.77 310.19 L 304.63 299.49 Z M 304.15 299.62 L 315.66 302.85 L 315.91 301.93 L 304.40 298.71 Z M 304.23 298.69 L 289.70 300.03 L 289.79 300.98 L 304.32 299.64 Z M 327.77 242.51 L 328.12 258.41 L 329.07 258.39 L 328.71 242.49 Z M 328.62 242.22 L 321.79 233.03 L 321.02 233.60 L 327.86 242.79 Z M 328.32 242.04 L 320.34 240.62 L 320.18 241.56 L 328.16 242.97 Z M 328.56 242.86 L 332.48 239.35 L 331.85 238.64 L 327.92 242.15 Z M 274.95 161.25 L 264.01 172.40 L 264.69 173.07 L 275.62 161.92 Z M 274.84 161.75 L 281.29 178.86 L 282.18 178.52 L 275.73 161.42 Z M 275.74 161.46 L 270.59 142.25 L 269.67 142.49 L 274.83 161.71 Z M 275.44 161.14 L 264.54 157.29 L 264.22 158.18 L 275.13 162.03 Z M 275.31 162.06 L 285.28 161.61 L 285.24 160.66 L 275.26 161.11 Z M 275.68 161.85 L 287.12 144.53 L 286.33 144.01 L 274.89 161.32 Z M 275.50 162.01 L 290.06 154.58 L 289.63 153.74 L 275.07 161.16 Z M 303.79 307.59 L 301.60 323.20 L 302.54 323.34 L 304.73 307.73 Z M 304.16 307.20 L 294.32 309.40 L 294.53 310.33 L 304.37 308.12 Z M 304.46 308.09 L 315.98 302.82 L 315.59 301.96 L 304.06 307.23 Z M 261.34 150.34 L 252.04 154.41 L 252.42 155.28 L 261.72 151.21 Z M 261.87 151.11 L 270.46 142.71 L 269.80 142.03 L 261.20 150.43 Z M 261.96 150.57 L 255.58 137.01 L 254.72 137.41 L 261.10 150.98 Z M 261.09 150.95 L 263.94 157.91 L 264.82 157.55 L 261.97 150.59 Z M 262.00 150.87 L 263.99 140.67 L 263.06 140.49 L 261.07 150.68 Z M 261.97 150.97 L 266.40 141.00 L 265.54 140.61 L 261.10 150.58 Z M 250.95 283.38 L 263.38 276.94 L 262.95 276.09 L 250.51 282.54 Z M 250.74 282.49 L 236.77 282.26 L 236.75 283.21 L 250.72 283.44 Z M 250.98 282.56 L 242.91 277.65 L 242.42 278.46 L 250.48 283.37 Z M 250.28 283.12 L 253.79 293.28 L 254.69 292.97 L 251.18 282.81 Z M 250.32 282.73 L 241.59 298.31 L 242.42 298.77 L 251.15 283.20 Z M 311.30 295.95 L 327.77 289.11 L 327.40 288.23 L 310.94 295.08 Z M 310.73 295.78 L 315.39 302.65 L 316.18 302.12 L 311.52 295.25 Z M 327.85 288.28 L 318.01 281.57 L 317.47 282.35 L 327.32 289.06 Z M 327.22 288.36 L 315.43 302.08 L 316.15 302.70 L 327.94 288.98 Z M 328.05 288.76 L 330.31 276.75 L 329.38 276.57 L 327.12 288.58 Z M 327.98 288.94 L 339.82 271.68 L 339.03 271.14 L 327.19 288.40 Z M 327.17 288.90 L 330.63 295.18 L 331.46 294.72 L 328.00 288.44 Z M 264.74 172.47 L 252.63 154.58 L 251.84 155.12 L 263.95 173.00 Z M 264.19 173.19 L 281.59 179.14 L 281.89 178.24 L 264.50 172.29 Z M 264.82 172.74 L 264.85 157.73 L 263.90 157.73 L 263.87 172.74 Z M 264.18 172.29 L 252.09 176.84 L 252.43 177.73 L 264.51 173.18 Z M 275.33 202.60 L 288.37 208.63 L 288.76 207.77 L 275.73 201.73 Z M 275.28 201.76 L 264.28 208.47 L 264.77 209.28 L 275.78 202.57 Z M 275.88 202.48 L 281.51 196.24 L 280.81 195.60 L 275.18 201.85 Z M 275.90 201.87 L 271.25 195.92 L 270.50 196.50 L 275.16 202.46 Z M 275.07 202.03 L 269.72 220.32 L 270.63 220.59 L 275.99 202.30 Z M 252.70 154.93 L 255.62 137.29 L 254.69 137.13 L 251.76 154.77 Z M 252.12 155.31 L 264.27 158.20 L 264.49 157.27 L 252.34 154.39 Z M 251.76 154.85 L 251.79 177.29 L 252.74 177.29 L 252.71 154.85 Z M 252.01 154.43 L 242.34 159.46 L 242.77 160.30 L 252.45 155.27 Z M 252.67 154.65 L 245.61 138.97 L 244.74 139.36 L 251.80 155.04 Z M 278.64 188.74 L 282.19 178.85 L 281.29 178.53 L 277.74 188.42 Z M 278.40 189.01 L 288.60 184.15 L 288.19 183.29 L 277.99 188.15 Z M 277.75 188.76 L 280.72 196.10 L 281.60 195.74 L 278.63 188.40 Z M 277.85 188.25 L 270.54 195.88 L 271.22 196.54 L 278.53 188.91 Z M 210.92 240.87 L 196.49 254.47 L 197.14 255.17 L 211.57 241.56 Z M 211.71 241.13 L 210.08 232.64 L 209.15 232.82 L 210.78 241.31 Z M 211.15 241.68 L 231.35 245.85 L 231.54 244.92 L 211.34 240.75 Z M 211.38 241.67 L 233.51 235.28 L 233.25 234.36 L 211.11 240.76 Z M 210.78 241.10 L 205.68 261.65 L 206.60 261.88 L 211.71 241.33 Z M 211.64 240.96 L 202.79 227.51 L 201.99 228.03 L 210.85 241.48 Z M 210.84 241.46 L 219.85 256.28 L 220.66 255.79 L 211.65 240.97 Z M 302.48 323.03 L 294.84 309.63 L 294.01 310.10 L 301.65 323.51 Z M 302.46 323.53 L 316.18 302.65 L 315.39 302.13 L 301.67 323.01 Z M 302.23 322.82 L 293.34 319.58 L 293.02 320.47 L 301.90 323.72 Z M 301.98 322.80 L 288.01 325.45 L 288.18 326.38 L 302.15 323.74 Z M 301.75 323.62 L 315.12 335.58 L 315.75 334.87 L 302.38 322.92 Z M 210.63 182.19 L 230.01 175.86 L 229.71 174.96 L 210.34 181.29 Z M 210.38 182.21 L 224.80 185.52 L 225.01 184.59 L 210.59 181.28 Z M 210.47 181.27 L 199.99 181.55 L 200.02 182.50 L 210.50 182.22 Z M 210.11 182.04 L 224.07 199.59 L 224.82 198.99 L 210.85 181.45 Z M 210.09 181.48 L 200.61 196.05 L 201.41 196.57 L 210.88 182.00 Z M 210.85 181.44 L 202.61 171.44 L 201.88 172.05 L 210.12 182.04 Z M 210.95 181.65 L 207.46 163.35 L 206.52 163.53 L 210.02 181.83 Z M 296.17 286.42 L 311.41 275.86 L 310.87 275.08 L 295.63 285.64 Z M 296.32 285.80 L 287.45 269.58 L 286.62 270.04 L 295.49 286.26 Z M 295.47 285.85 L 289.31 300.32 L 290.18 300.69 L 296.34 286.22 Z M 295.87 285.56 L 275.76 287.14 L 275.83 288.08 L 295.94 286.51 Z M 281.45 179.07 L 288.11 184.10 L 288.68 183.34 L 282.03 178.31 Z M 282.21 178.78 L 285.73 161.23 L 284.79 161.04 L 281.27 178.60 Z M 281.96 179.11 L 293.43 173.11 L 292.99 172.26 L 281.52 178.27 Z M 276.86 337.17 L 283.91 341.90 L 284.44 341.11 L 277.39 336.38 Z M 277.36 336.36 L 265.58 329.66 L 265.11 330.48 L 276.89 337.19 Z M 277.59 336.83 L 278.98 324.93 L 278.03 324.82 L 276.65 336.72 Z M 277.46 337.11 L 288.43 326.25 L 287.76 325.58 L 276.79 336.44 Z M 280.03 225.49 L 288.99 208.42 L 288.14 207.98 L 279.19 225.05 Z M 279.54 225.74 L 296.08 228.17 L 296.22 227.23 L 279.68 224.80 Z M 279.21 225.01 L 273.09 234.61 L 273.89 235.12 L 280.01 225.52 Z M 279.14 225.33 L 281.09 239.71 L 282.03 239.58 L 280.08 225.20 Z M 279.22 225.54 L 289.17 239.72 L 289.94 239.17 L 280.00 224.99 Z M 279.89 225.65 L 291.03 217.63 L 290.47 216.86 L 279.33 224.88 Z M 279.83 224.84 L 270.39 220.03 L 269.96 220.88 L 279.40 225.69 Z M 235.47 342.92 L 245.91 346.54 L 246.22 345.65 L 235.79 342.02 Z M 235.84 342.89 L 245.95 337.80 L 245.52 336.95 L 235.42 342.04 Z M 236.03 342.22 L 224.07 322.84 L 223.26 323.34 L 235.23 342.72 Z M 235.80 342.02 L 218.06 335.40 L 217.73 336.29 L 235.46 342.91 Z M 235.16 342.38 L 233.24 352.84 L 234.17 353.01 L 236.10 342.55 Z M 250.00 323.63 L 265.15 330.50 L 265.55 329.64 L 250.40 322.77 Z M 249.75 323.06 L 245.28 337.23 L 246.19 337.52 L 250.65 323.34 Z M 250.34 322.74 L 230.68 316.53 L 230.40 317.43 L 250.06 323.65 Z M 250.36 323.64 L 264.20 318.61 L 263.88 317.71 L 250.04 322.75 Z M 269.69 142.20 L 263.93 157.57 L 264.82 157.90 L 270.58 142.53 Z M 270.08 142.84 L 286.67 144.74 L 286.78 143.80 L 270.19 141.90 Z M 270.30 141.92 L 266.14 140.36 L 265.80 141.25 L 269.96 142.81 Z M 270.55 142.59 L 277.92 128.73 L 277.09 128.28 L 269.71 142.15 Z M 192.65 278.16 L 198.46 268.67 L 197.65 268.17 L 191.84 277.67 Z M 192.49 277.51 L 180.26 270.34 L 179.78 271.16 L 192.01 278.33 Z M 191.84 277.67 L 181.87 294.47 L 182.69 294.95 L 192.66 278.16 Z M 192.03 277.50 L 176.09 285.87 L 176.53 286.71 L 192.47 278.34 Z M 294.85 309.65 L 290.17 300.29 L 289.32 300.72 L 294.00 310.08 Z M 293.95 309.81 L 292.71 319.97 L 293.65 320.08 L 294.89 309.92 Z M 294.25 309.42 L 279.64 315.24 L 279.99 316.12 L 294.60 310.30 Z M 309.47 239.87 L 311.57 225.43 L 310.63 225.29 L 308.53 239.74 Z M 309.32 239.46 L 296.47 227.36 L 295.82 228.05 L 308.67 240.15 Z M 308.62 239.52 L 296.11 256.05 L 296.87 256.62 L 309.38 240.09 Z M 308.57 240.00 L 311.97 247.63 L 312.84 247.24 L 309.43 239.61 Z M 309.22 240.23 L 321.62 233.74 L 321.18 232.89 L 308.78 239.39 Z M 309.01 239.33 L 289.56 238.97 L 289.55 239.92 L 308.99 240.28 Z M 308.95 240.28 L 320.20 241.56 L 320.31 240.62 L 309.05 239.33 Z M 308.53 239.73 L 305.77 256.18 L 306.71 256.34 L 309.47 239.88 Z M 255.23 208.25 L 244.19 203.60 L 243.82 204.47 L 254.86 209.12 Z M 254.61 208.88 L 261.23 224.16 L 262.11 223.79 L 255.48 208.50 Z M 255.04 209.16 L 264.52 209.35 L 264.53 208.40 L 255.06 208.21 Z M 255.52 208.73 L 256.31 200.24 L 255.36 200.15 L 254.58 208.64 Z M 254.60 208.52 L 250.86 218.59 L 251.75 218.92 L 255.49 208.85 Z M 223.74 270.58 L 229.80 265.31 L 229.17 264.59 L 223.12 269.87 Z M 223.00 270.44 L 228.40 281.05 L 229.24 280.62 L 223.85 270.01 Z M 223.89 270.12 L 220.72 255.93 L 219.79 256.14 L 222.96 270.33 Z M 289.04 208.25 L 290.32 195.48 L 289.37 195.39 L 288.09 208.15 Z M 288.97 207.95 L 281.57 195.67 L 280.75 196.16 L 288.16 208.45 Z M 288.10 208.31 L 290.29 217.36 L 291.21 217.13 L 289.03 208.09 Z M 288.30 207.80 L 269.91 220.06 L 270.44 220.85 L 288.83 208.60 Z M 311.03 224.89 L 296.08 227.23 L 296.22 228.17 L 311.18 225.83 Z M 310.81 225.73 L 321.11 233.69 L 321.69 232.94 L 311.39 224.98 Z M 311.48 225.65 L 318.00 217.12 L 317.24 216.54 L 310.73 225.07 Z M 226.04 209.00 L 244.12 204.50 L 243.89 203.57 L 225.81 208.08 Z M 226.40 208.47 L 224.91 199.22 L 223.97 199.37 L 225.46 208.62 Z M 225.48 208.38 L 222.29 217.34 L 223.19 217.66 L 226.37 208.70 Z M 226.24 208.90 L 234.57 201.48 L 233.94 200.77 L 225.61 208.19 Z M 226.05 208.09 L 218.65 206.07 L 218.40 206.98 L 225.80 209.00 Z M 196.35 254.86 L 197.58 268.46 L 198.53 268.37 L 197.29 254.78 Z M 196.53 255.20 L 205.86 262.14 L 206.42 261.38 L 197.10 254.44 Z M 196.49 254.48 L 179.70 270.41 L 180.35 271.10 L 197.15 255.17 Z M 244.14 203.58 L 234.39 200.67 L 234.12 201.58 L 243.87 204.49 Z M 244.46 204.18 L 248.34 192.07 L 247.43 191.78 L 243.55 203.89 Z M 244.15 204.49 L 255.98 200.65 L 255.69 199.74 L 243.86 203.58 Z M 243.58 204.25 L 250.88 218.97 L 251.73 218.55 L 244.43 203.82 Z M 209.58 233.20 L 233.34 235.29 L 233.42 234.35 L 209.66 232.25 Z M 209.98 233.04 L 223.10 217.81 L 222.38 217.19 L 209.26 232.42 Z M 209.89 232.33 L 202.66 227.38 L 202.12 228.16 L 209.35 233.12 Z M 233.26 289.62 L 237.17 282.98 L 236.35 282.50 L 232.44 289.14 Z M 233.28 289.17 L 229.25 280.64 L 228.39 281.04 L 232.42 289.58 Z M 232.42 289.18 L 225.08 305.10 L 225.94 305.50 L 233.28 289.58 Z M 232.51 289.71 L 241.67 298.88 L 242.34 298.20 L 233.19 289.04 Z M 318.07 281.62 L 311.47 275.13 L 310.81 275.81 L 317.41 282.30 Z M 318.21 282.01 L 319.86 267.05 L 318.92 266.94 L 317.27 281.91 Z M 317.93 282.39 L 330.04 277.09 L 329.65 276.22 L 317.55 281.52 Z M 231.91 245.47 L 233.85 234.91 L 232.91 234.73 L 230.98 245.30 Z M 230.97 245.34 L 229.01 264.90 L 229.96 265.00 L 231.92 245.43 Z M 231.27 245.83 L 254.09 254.76 L 254.44 253.88 L 231.62 244.94 Z M 231.15 245.75 L 247.29 258.75 L 247.89 258.01 L 231.74 245.01 Z M 231.12 245.04 L 219.93 255.69 L 220.58 256.38 L 231.77 245.73 Z M 311.52 275.18 L 296.87 256.05 L 296.11 256.62 L 310.76 275.76 Z M 311.48 275.80 L 319.73 267.33 L 319.05 266.66 L 310.80 275.14 Z M 311.25 275.01 L 287.14 269.35 L 286.92 270.27 L 311.03 275.94 Z M 311.60 275.36 L 306.70 256.14 L 305.78 256.38 L 310.68 275.59 Z M 295.73 227.47 L 289.14 239.22 L 289.97 239.68 L 296.56 227.93 Z M 296.57 227.48 L 291.17 217.03 L 290.33 217.46 L 295.73 227.92 Z M 273.81 234.51 L 261.99 223.63 L 261.35 224.32 L 273.17 235.21 Z M 273.04 235.01 L 278.52 251.37 L 279.42 251.07 L 273.94 234.71 Z M 273.25 235.27 L 281.32 240.05 L 281.80 239.23 L 273.73 234.45 Z M 273.62 234.41 L 250.45 227.76 L 250.19 228.67 L 273.36 235.32 Z M 273.95 234.76 L 270.64 220.35 L 269.71 220.56 L 273.03 234.97 Z M 213.02 326.99 L 223.81 323.54 L 223.52 322.64 L 212.73 326.09 Z M 213.28 326.78 L 225.92 305.54 L 225.10 305.05 L 212.46 326.30 Z M 212.45 326.77 L 217.48 336.07 L 218.31 335.62 L 213.29 326.31 Z M 213.28 326.29 L 201.86 308.05 L 201.05 308.56 L 212.47 326.79 Z M 213.17 326.17 L 200.90 316.16 L 200.30 316.90 L 212.57 326.91 Z M 212.41 326.44 L 210.57 334.66 L 211.50 334.87 L 213.34 326.64 Z M 239.89 175.07 L 229.87 174.93 L 229.86 175.88 L 239.87 176.02 Z M 239.62 175.14 L 224.65 184.66 L 225.16 185.46 L 240.13 175.94 Z M 239.81 176.01 L 252.20 177.76 L 252.33 176.82 L 239.95 175.07 Z M 239.45 175.75 L 247.46 192.13 L 248.31 191.71 L 240.31 175.33 Z M 240.35 175.62 L 243.02 159.96 L 242.09 159.80 L 239.41 175.46 Z M 246.54 346.08 L 246.21 337.36 L 245.26 337.39 L 245.59 346.11 Z M 245.92 346.55 L 259.67 351.01 L 259.96 350.10 L 246.22 345.64 Z M 245.84 345.68 L 233.48 352.51 L 233.94 353.34 L 246.30 346.51 Z M 245.81 345.70 L 233.52 353.65 L 234.04 354.45 L 246.33 346.49 Z M 245.60 346.18 L 249.45 367.98 L 250.39 367.82 L 246.54 346.01 Z M 229.44 175.19 L 224.48 184.84 L 225.32 185.27 L 230.28 175.63 Z M 230.29 175.20 L 220.81 156.39 L 219.96 156.82 L 229.44 175.62 Z M 230.23 175.71 L 242.92 160.18 L 242.19 159.58 L 229.49 175.11 Z M 230.34 175.37 L 228.81 158.02 L 227.86 158.11 L 229.39 175.45 Z M 296.10 256.06 L 286.64 269.54 L 287.42 270.08 L 296.88 256.61 Z M 296.93 256.16 L 289.99 239.27 L 289.12 239.63 L 296.05 256.52 Z M 296.49 256.81 L 306.24 256.73 L 306.24 255.78 L 296.49 255.86 Z M 255.06 136.75 L 245.08 138.70 L 245.27 139.63 L 255.25 137.68 Z M 254.98 137.65 L 263.34 141.02 L 263.70 140.14 L 255.33 136.77 Z M 255.55 137.48 L 259.44 131.73 L 258.65 131.19 L 254.76 136.95 Z M 263.38 276.94 L 275.50 270.70 L 275.07 269.86 L 262.95 276.09 Z M 263.13 276.04 L 242.63 277.58 L 242.70 278.53 L 263.20 276.99 Z M 262.75 276.29 L 253.82 292.90 L 254.66 293.35 L 263.58 276.74 Z M 263.55 276.79 L 274.36 261.48 L 273.58 260.93 L 262.78 276.24 Z M 262.85 276.87 L 275.48 287.97 L 276.11 287.25 L 263.48 276.16 Z M 263.52 276.20 L 247.95 258.07 L 247.23 258.69 L 262.80 276.82 Z M 284.64 341.62 L 288.55 326.03 L 287.63 325.80 L 283.72 341.39 Z M 284.18 341.98 L 291.97 341.90 L 291.96 340.95 L 284.17 341.03 Z M 283.71 341.46 L 281.70 360.03 L 282.64 360.13 L 284.65 341.56 Z M 283.90 341.89 L 293.90 349.27 L 294.46 348.51 L 284.46 341.13 Z M 298.24 179.31 L 289.43 195.20 L 290.26 195.66 L 299.07 179.77 Z M 298.48 179.10 L 288.21 183.28 L 288.57 184.16 L 298.84 179.98 Z M 298.77 180.00 L 313.80 176.53 L 313.58 175.60 L 298.55 179.08 Z M 299.03 179.24 L 293.58 172.39 L 292.84 172.98 L 298.29 179.84 Z M 298.85 179.97 L 313.30 173.56 L 312.91 172.69 L 298.47 179.11 Z M 262.14 224.06 L 264.99 208.96 L 264.06 208.79 L 261.20 223.89 Z M 261.50 223.53 L 250.15 227.77 L 250.49 228.66 L 261.84 224.42 Z M 261.85 224.41 L 270.35 220.89 L 269.99 220.02 L 261.49 223.54 Z M 261.88 223.55 L 251.51 218.33 L 251.09 219.18 L 261.46 224.40 Z M 265.18 329.62 L 245.57 336.93 L 245.90 337.82 L 265.51 330.51 Z M 265.52 330.51 L 278.68 325.32 L 278.33 324.43 L 265.17 329.63 Z M 264.89 329.95 L 259.36 350.43 L 260.28 350.68 L 265.81 330.19 Z M 265.82 330.02 L 264.51 318.11 L 263.57 318.21 L 264.88 330.12 Z M 237.05 283.11 L 242.96 278.42 L 242.37 277.68 L 236.46 282.36 Z M 236.87 282.27 L 228.93 280.38 L 228.71 281.30 L 236.65 283.20 Z M 236.31 282.89 L 241.56 298.69 L 242.46 298.39 L 237.21 282.59 Z M 311.96 247.59 L 318.94 267.16 L 319.84 266.84 L 312.85 247.27 Z M 312.14 247.82 L 328.33 258.79 L 328.86 258.00 L 312.67 247.04 Z M 312.70 247.80 L 320.56 241.46 L 319.96 240.72 L 312.11 247.06 Z M 312.02 247.16 L 305.85 255.99 L 306.63 256.53 L 312.79 247.70 Z M 245.41 337.72 L 259.49 350.90 L 260.14 350.21 L 246.06 337.03 Z M 224.43 185.04 L 223.97 199.27 L 224.92 199.31 L 225.38 185.07 Z M 224.49 185.30 L 233.85 201.36 L 234.67 200.88 L 225.31 184.82 Z M 224.77 185.51 L 247.75 192.38 L 248.02 191.47 L 225.04 184.60 Z M 297.71 155.14 L 285.07 160.70 L 285.45 161.57 L 298.10 156.01 Z M 298.09 156.01 L 300.28 155.05 L 299.91 154.18 L 297.72 155.14 Z M 297.99 155.10 L 289.93 153.69 L 289.76 154.63 L 297.82 156.04 Z M 298.37 155.65 L 299.00 151.81 L 298.06 151.66 L 297.44 155.49 Z M 298.37 155.48 L 297.35 149.94 L 296.41 150.11 L 297.44 155.66 Z M 233.79 234.57 L 223.15 217.25 L 222.34 217.75 L 232.98 235.07 Z M 233.55 235.26 L 250.49 228.66 L 250.15 227.77 L 233.21 234.38 Z M 233.70 235.17 L 251.62 219.11 L 250.98 218.41 L 233.07 234.47 Z M 319.72 267.34 L 328.92 258.74 L 328.27 258.05 L 319.07 266.65 Z M 319.07 267.34 L 329.52 277.01 L 330.17 276.31 L 319.71 266.65 Z M 319.69 266.63 L 306.54 255.89 L 305.94 256.63 L 319.09 267.36 Z M 319.50 267.46 L 332.87 264.20 L 332.64 263.28 L 319.28 266.53 Z M 319.47 267.46 L 333.13 265.11 L 332.97 264.18 L 319.31 266.53 Z M 287.01 269.34 L 275.27 269.80 L 275.30 270.75 L 287.05 270.29 Z M 287.29 269.41 L 274.23 260.81 L 273.71 261.60 L 286.77 270.21 Z M 290.31 195.38 L 288.86 183.66 L 287.92 183.77 L 289.37 195.49 Z M 289.82 194.96 L 281.13 195.44 L 281.19 196.39 L 289.87 195.91 Z M 279.44 251.33 L 282.02 239.75 L 281.10 239.54 L 278.51 251.12 Z M 278.55 251.01 L 273.54 260.99 L 274.39 261.42 L 279.40 251.44 Z M 279.33 251.54 L 289.91 239.77 L 289.20 239.13 L 278.62 250.91 Z M 199.53 182.06 L 200.53 196.35 L 201.48 196.28 L 200.48 181.99 Z M 200.47 182.13 L 202.71 171.85 L 201.78 171.65 L 199.54 181.93 Z M 200.19 181.59 L 185.32 175.37 L 184.95 176.24 L 199.82 182.47 Z M 199.85 181.58 L 187.59 185.76 L 187.90 186.66 L 200.16 182.48 Z M 275.76 270.21 L 274.44 261.14 L 273.50 261.27 L 274.82 270.35 Z M 274.81 270.29 L 275.32 287.62 L 276.27 287.60 L 275.76 270.26 Z M 224.36 199.76 L 234.17 201.59 L 234.35 200.66 L 224.53 198.82 Z M 224.08 198.99 L 218.15 206.22 L 218.89 206.82 L 224.81 199.59 Z M 224.50 198.82 L 201.07 195.84 L 200.95 196.78 L 224.38 199.76 Z M 329.02 258.19 L 320.69 240.89 L 319.83 241.30 L 328.17 258.60 Z M 329.06 258.48 L 332.64 239.09 L 331.70 238.91 L 328.13 258.31 Z M 328.22 258.69 L 332.38 264.03 L 333.13 263.45 L 328.97 258.10 Z M 278.45 325.35 L 288.04 326.39 L 288.15 325.44 L 278.56 324.40 Z M 278.71 324.44 L 264.24 317.73 L 263.84 318.59 L 278.31 325.30 Z M 278.98 324.94 L 280.29 315.75 L 279.35 315.61 L 278.03 324.81 Z M 198.36 268.78 L 206.44 262.13 L 205.84 261.39 L 197.75 268.05 Z M 197.89 268.86 L 205.28 271.60 L 205.61 270.70 L 198.22 267.97 Z M 197.99 267.95 L 179.96 270.28 L 180.08 271.22 L 198.12 268.89 Z M 287.98 183.47 L 280.75 195.68 L 281.57 196.16 L 288.80 183.96 Z M 288.83 183.91 L 293.65 172.88 L 292.77 172.50 L 287.96 183.53 Z M 205.67 261.73 L 204.98 271.12 L 205.92 271.19 L 206.61 261.80 Z M 206.32 262.20 L 220.43 256.47 L 220.08 255.59 L 205.96 261.32 Z M 281.57 240.12 L 289.57 239.92 L 289.54 238.97 L 281.55 239.17 Z M 224.14 323.14 L 225.98 305.35 L 225.04 305.25 L 223.19 323.04 Z M 223.98 323.45 L 230.85 317.34 L 230.22 316.63 L 223.35 322.74 Z M 223.23 322.89 L 217.46 335.65 L 218.33 336.04 L 224.10 323.29 Z M 229.65 265.39 L 247.75 258.83 L 247.43 257.94 L 229.32 264.50 Z M 229.81 264.61 L 220.58 255.69 L 219.92 256.37 L 229.15 265.29 Z M 315.99 302.81 L 331.25 295.38 L 330.84 294.52 L 315.58 301.96 Z M 290.07 300.15 L 276.12 287.26 L 275.47 287.96 L 289.42 300.85 Z M 289.77 300.03 L 281.10 299.61 L 281.05 300.55 L 289.72 300.98 Z M 289.35 300.24 L 279.42 315.42 L 280.21 315.94 L 290.14 300.76 Z M 243.12 278.17 L 248.05 258.50 L 247.13 258.27 L 242.20 277.94 Z M 313.22 176.13 L 316.35 197.28 L 317.29 197.14 L 314.16 176.00 Z M 314.16 175.97 L 313.57 173.03 L 312.64 173.22 L 313.23 176.16 Z M 223.18 217.33 L 218.96 206.35 L 218.08 206.69 L 222.30 217.67 Z M 222.94 217.07 L 208.30 210.10 L 207.90 210.95 L 222.54 217.93 Z M 222.53 217.08 L 202.18 227.35 L 202.61 228.19 L 222.95 217.92 Z M 234.52 201.52 L 248.15 192.31 L 247.62 191.53 L 233.99 200.73 Z M 292.82 319.71 L 287.73 325.60 L 288.45 326.23 L 293.54 320.34 Z M 293.33 319.57 L 279.96 315.23 L 279.67 316.13 L 293.03 320.48 Z M 218.76 206.11 L 201.25 195.90 L 200.77 196.72 L 218.28 206.93 Z M 218.35 206.08 L 207.93 210.08 L 208.27 210.97 L 218.69 206.97 Z M 220.30 157.08 L 228.25 158.53 L 228.42 157.60 L 220.47 156.14 Z M 220.80 156.83 L 228.19 143.20 L 227.35 142.74 L 219.96 156.38 Z M 220.17 156.18 L 206.77 163.02 L 207.21 163.86 L 220.60 157.03 Z M 220.30 156.14 L 204.06 158.96 L 204.22 159.90 L 220.46 157.08 Z M 254.02 253.92 L 247.34 257.98 L 247.84 258.79 L 254.51 254.73 Z M 284.87 161.40 L 292.82 172.95 L 293.60 172.42 L 285.65 160.86 Z M 285.66 161.39 L 290.24 154.42 L 289.45 153.90 L 284.86 160.87 Z M 200.58 196.52 L 207.67 210.74 L 208.52 210.31 L 201.43 196.10 Z M 201.30 195.93 L 188.03 185.83 L 187.46 186.59 L 200.72 196.69 Z M 264.95 209.09 L 271.30 196.42 L 270.45 196.00 L 264.10 208.66 Z M 264.10 209.08 L 269.75 220.66 L 270.60 220.25 L 264.95 208.67 Z M 264.86 208.54 L 256.17 199.86 L 255.50 200.53 L 264.19 209.21 Z M 321.87 233.21 L 318.08 216.72 L 317.16 216.94 L 320.94 233.42 Z M 321.66 233.72 L 328.15 229.68 L 327.65 228.88 L 321.15 232.91 Z M 320.93 233.25 L 319.79 241.02 L 320.73 241.16 L 321.87 233.38 Z M 321.18 233.74 L 331.95 239.42 L 332.39 238.58 L 321.63 232.90 Z M 330.07 277.07 L 339.65 271.82 L 339.20 270.99 L 329.62 276.24 Z M 330.30 276.78 L 333.51 264.77 L 332.59 264.52 L 329.39 276.54 Z M 254.05 292.69 L 241.82 298.11 L 242.20 298.97 L 254.43 293.56 Z M 254.36 293.58 L 275.91 288.07 L 275.68 287.15 L 254.12 292.66 Z M 207.65 210.38 L 201.94 227.62 L 202.84 227.92 L 208.55 210.67 Z M 225.07 305.49 L 230.10 317.17 L 230.98 316.79 L 225.95 305.11 Z M 225.69 305.74 L 242.19 298.98 L 241.83 298.10 L 225.33 304.86 Z M 225.45 304.83 L 201.40 307.83 L 201.51 308.78 L 225.57 305.77 Z M 259.47 350.87 L 269.01 361.29 L 269.71 360.65 L 260.17 350.23 Z M 259.41 350.32 L 249.51 367.66 L 250.33 368.13 L 260.23 350.79 Z M 281.15 195.44 L 270.86 195.73 L 270.89 196.68 L 281.17 196.39 Z M 287.63 326.03 L 291.50 341.54 L 292.42 341.31 L 288.55 325.80 Z M 288.46 325.62 L 280.19 315.38 L 279.45 315.98 L 287.72 326.21 Z M 317.63 217.31 L 328.15 217.14 L 328.14 216.19 L 317.61 216.36 Z M 317.26 217.13 L 327.53 229.58 L 328.27 228.98 L 317.99 216.53 Z M 318.07 216.69 L 314.31 204.79 L 313.40 205.08 L 317.17 216.97 Z M 291.51 341.56 L 293.73 349.03 L 294.64 348.75 L 292.42 341.29 Z M 251.81 177.15 L 247.43 191.79 L 248.34 192.06 L 252.72 177.42 Z M 252.68 177.06 L 242.97 159.65 L 242.14 160.11 L 251.85 177.52 Z M 202.58 227.33 L 187.70 220.78 L 187.32 221.65 L 202.20 228.20 Z M 230.94 317.23 L 242.41 298.79 L 241.61 298.29 L 230.14 316.73 Z M 316.38 197.04 L 313.41 204.76 L 314.30 205.10 L 317.26 197.38 Z M 316.69 197.67 L 337.39 203.29 L 337.63 202.37 L 316.94 196.75 Z M 327.67 216.66 L 327.42 229.27 L 328.37 229.29 L 328.62 216.68 Z M 328.54 216.93 L 337.90 203.10 L 337.12 202.56 L 327.75 216.40 Z M 327.82 217.01 L 337.51 226.33 L 338.16 225.65 L 328.48 216.33 Z M 217.48 335.61 L 209.76 349.28 L 210.59 349.75 L 218.31 336.08 Z M 217.55 336.17 L 233.36 353.24 L 234.05 352.60 L 218.24 335.52 Z M 217.97 335.38 L 211.11 334.29 L 210.96 335.23 L 217.82 336.31 Z M 275.36 287.80 L 280.64 300.27 L 281.51 299.90 L 276.23 287.43 Z M 247.54 192.25 L 255.49 200.53 L 256.18 199.87 L 248.23 191.59 Z M 200.98 308.26 L 200.13 316.48 L 201.07 316.58 L 201.93 308.35 Z M 201.74 307.92 L 191.76 300.55 L 191.20 301.32 L 201.17 308.69 Z M 250.79 228.27 L 251.77 218.81 L 250.83 218.71 L 249.85 228.17 Z M 270.76 195.75 L 255.71 199.74 L 255.96 200.66 L 271.00 196.67 Z M 327.46 229.47 L 331.73 239.19 L 332.60 238.81 L 328.33 229.09 Z M 328.05 229.73 L 337.98 226.44 L 337.69 225.54 L 327.75 228.83 Z M 264.12 318.63 L 279.89 316.15 L 279.74 315.21 L 263.97 317.69 Z M 280.60 300.04 L 279.34 315.64 L 280.29 315.72 L 281.55 300.12 Z M 242.61 159.41 L 228.39 157.60 L 228.27 158.54 L 242.49 160.35 Z M 243.03 159.94 L 245.65 139.22 L 244.70 139.10 L 242.08 159.82 Z M 242.91 159.57 L 228.13 142.66 L 227.41 143.28 L 242.20 160.20 Z M 228.81 158.05 L 228.24 142.95 L 227.29 142.99 L 227.86 158.08 Z M 245.07 138.70 L 227.67 142.51 L 227.87 143.43 L 245.28 139.63 Z M 245.34 138.72 L 236.62 135.47 L 236.29 136.36 L 245.01 139.61 Z M 245.41 139.58 L 259.28 131.88 L 258.82 131.05 L 244.94 138.75 Z M 313.49 172.85 L 300.48 154.34 L 299.71 154.89 L 312.72 173.40 Z M 286.91 144.71 L 300.78 138.92 L 300.41 138.05 L 286.54 143.83 Z M 286.27 144.41 L 289.39 154.30 L 290.30 154.02 L 287.18 144.13 Z M 286.49 144.68 L 296.65 150.44 L 297.12 149.61 L 286.96 143.86 Z M 287.14 144.03 L 277.92 128.26 L 277.10 128.74 L 286.32 144.51 Z M 200.19 316.77 L 210.62 335.00 L 211.45 334.53 L 201.01 316.29 Z M 201.01 316.29 L 191.89 300.69 L 191.07 301.17 L 200.19 316.77 Z M 200.13 316.44 L 195.49 339.88 L 196.42 340.07 L 201.06 316.62 Z M 210.11 349.99 L 233.64 353.39 L 233.77 352.45 L 210.24 349.05 Z M 210.65 349.54 L 211.51 334.79 L 210.56 334.74 L 209.70 349.49 Z M 210.09 349.98 L 233.69 354.52 L 233.87 353.59 L 210.27 349.05 Z M 210.44 349.12 L 196.22 339.58 L 195.69 340.37 L 209.91 349.91 Z M 263.48 141.06 L 265.93 141.28 L 266.01 140.33 L 263.56 140.11 Z M 263.95 140.37 L 259.47 131.25 L 258.62 131.67 L 263.10 140.79 Z M 233.23 352.95 L 233.31 354.08 L 234.26 354.02 L 234.18 352.89 Z M 337.03 202.84 L 337.36 226.00 L 338.31 225.98 L 337.98 202.82 Z M 337.58 203.30 L 344.35 202.33 L 344.21 201.39 L 337.44 202.36 Z M 202.13 171.28 L 185.03 175.34 L 185.24 176.27 L 202.35 172.21 Z M 202.66 171.98 L 207.40 163.68 L 206.58 163.20 L 201.83 171.51 Z M 202.71 171.82 L 204.61 159.50 L 203.67 159.36 L 201.77 171.67 Z M 179.56 270.64 L 175.85 286.18 L 176.77 286.40 L 180.48 270.86 Z M 231.25 364.91 L 234.24 354.18 L 233.33 353.93 L 230.33 364.66 Z M 230.72 365.26 L 249.84 368.37 L 249.99 367.43 L 230.87 364.32 Z M 282.14 359.61 L 269.33 360.50 L 269.39 361.44 L 282.20 360.55 Z M 282.49 360.43 L 294.51 349.24 L 293.86 348.54 L 281.85 359.73 Z M 281.70 360.11 L 282.23 369.75 L 283.17 369.70 L 282.64 360.05 Z M 331.69 239.01 L 332.28 263.75 L 333.23 263.73 L 332.64 238.99 Z M 332.60 239.19 L 338.27 226.18 L 337.40 225.80 L 331.73 238.81 Z M 228.07 143.34 L 236.75 136.29 L 236.15 135.55 L 227.47 142.60 Z M 338.98 271.25 L 330.60 294.79 L 331.49 295.11 L 339.87 271.57 Z M 339.78 271.10 L 333.11 263.43 L 332.40 264.05 L 339.07 271.72 Z M 339.77 271.08 L 333.40 264.32 L 332.71 264.97 L 339.08 271.73 Z M 210.88 334.31 L 195.80 339.52 L 196.11 340.42 L 211.19 335.21 Z M 332.30 263.89 L 332.60 264.80 L 333.50 264.50 L 333.21 263.59 Z M 266.35 140.52 L 259.43 131.18 L 258.67 131.74 L 265.59 141.09 Z M 266.32 141.13 L 277.85 128.83 L 277.16 128.18 L 265.62 140.48 Z M 269.10 361.37 L 282.44 370.12 L 282.96 369.33 L 269.62 360.57 Z M 269.20 360.52 L 249.76 367.45 L 250.08 368.35 L 269.52 361.42 Z M 338.29 226.11 L 344.74 201.98 L 343.82 201.73 L 337.38 225.87 Z M 283.12 118.53 L 277.10 128.25 L 277.91 128.75 L 283.92 119.03 Z M 184.67 175.92 L 187.29 186.33 L 188.21 186.09 L 185.60 175.69 Z M 236.54 136.38 L 259.14 131.93 L 258.95 130.99 L 236.36 135.45 Z M 300.57 154.63 L 301.07 138.50 L 300.12 138.47 L 299.62 154.60 Z M 300.51 154.39 L 298.95 151.51 L 298.12 151.96 L 299.68 154.84 Z M 300.13 138.41 L 298.06 151.66 L 299.00 151.81 L 301.06 138.56 Z M 300.14 138.34 L 296.43 149.88 L 297.33 150.17 L 301.05 138.63 Z M 207.38 163.17 L 204.52 159.15 L 203.75 159.70 L 206.60 163.72 Z M 293.77 348.66 L 282.28 369.50 L 283.12 369.95 L 294.60 349.12 Z M 290.08 154.57 L 297.12 150.43 L 296.64 149.61 L 289.60 153.75 Z M 182.01 295.11 L 191.22 301.33 L 191.75 300.54 L 182.55 294.32 Z M 182.67 294.44 L 176.70 286.02 L 175.92 286.57 L 181.89 294.99 Z M 233.47 354.41 L 249.61 368.26 L 250.23 367.54 L 234.09 353.69 Z M 298.87 151.41 L 297.22 149.69 L 296.54 150.35 L 298.19 152.07 Z M 259.12 131.93 L 277.58 128.97 L 277.43 128.04 L 258.97 130.99 Z M 270.58 308.12 A 1.00 1.00 0 1 0 272.58 308.12 A 1.00 1.00 0 1 0 270.58 308.12 Z M 212.58 284.18 A 1.00 1.00 0 1 0 214.58 284.18 A 1.00 1.00 0 1 0 212.58 284.18 Z M 272.86 349.53 A 1.00 1.00 0 1 0 274.86 349.53 A 1.00 1.00 0 1 0 272.86 349.53 Z M 306.83 184.32 A 1.00 1.00 0 1 0 308.83 184.32 A 1.00 1.00 0 1 0 306.83 184.32 Z M 191.04 209.84 A 1.00 1.00 0 1 0 193.04 209.84 A 1.00 1.00 0 1 0 191.04 209.84 Z M 310.76 288.06 A 1.00 1.00 0 1 0 312.76 288.06 A 1.00 1.00 0 1 0 310.76 288.06 Z M 260.44 184.33 A 1.00 1.00 0 1 0 262.44 184.33 A 1.00 1.00 0 1 0 260.44 184.33 Z M 298.94 164.60 A 1.00 1.00 0 1 0 300.94 164.60 A 1.00 1.00 0 1 0 298.94 164.60 Z M 300.68 219.14 A 1.00 1.00 0 1 0 302.68 219.14 A 1.00 1.00 0 1 0 300.68 219.14 Z M 286.78 258.71 A 1.00 1.00 0 1 0 288.78 258.71 A 1.00 1.00 0 1 0 286.78 258.71 Z M 281.01 277.03 A 1.00 1.00 0 1 0 283.01 277.03 A 1.00 1.00 0 1 0 281.01 277.03 Z M 267.82 186.08 A 1.00 1.00 0 1 0 269.82 186.08 A 1.00 1.00 0 1 0 267.82 186.08 Z M 191.97 228.04 A 1.00 1.00 0 1 0 193.97 228.04 A 1.00 1.00 0 1 0 191.97 228.04 Z M 202.10 280.05 A 1.00 1.00 0 1 0 204.10 280.05 A 1.00 1.00 0 1 0 202.10 280.05 Z M 325.35 205.09 A 1.00 1.00 0 1 0 327.35 205.09 A 1.00 1.00 0 1 0 325.35 205.09 Z M 214.13 272.98 A 1.00 1.00 0 1 0 216.13 272.98 A 1.00 1.00 0 1 0 214.13 272.98 Z M 300.49 336.35 A 1.00 1.00 0 1 0 302.49 336.35 A 1.00 1.00 0 1 0 300.49 336.35 Z M 195.83 291.37 A 1.00 1.00 0 1 0 197.83 291.37 A 1.00 1.00 0 1 0 195.83 291.37 Z M 235.64 268.94 A 1.00 1.00 0 1 0 237.64 268.94 A 1.00 1.00 0 1 0 235.64 268.94 Z M 253.35 301.53 A 1.00 1.00 0 1 0 255.35 301.53 A 1.00 1.00 0 1 0 253.35 301.53 Z M 262.16 257.05 A 1.00 1.00 0 1 0 264.16 257.05 A 1.00 1.00 0 1 0 262.16 257.05 Z M 303.28 299.17 A 1.00 1.00 0 1 0 305.28 299.17 A 1.00 1.00 0 1 0 303.28 299.17 Z M 327.24 242.50 A 1.00 1.00 0 1 0 329.24 242.50 A 1.00 1.00 0 1 0 327.24 242.50 Z M 274.29 161.58 A 1.00 1.00 0 1 0 276.29 161.58 A 1.00 1.00 0 1 0 274.29 161.58 Z M 303.26 307.66 A 1.00 1.00 0 1 0 305.26 307.66 A 1.00 1.00 0 1 0 303.26 307.66 Z M 260.53 150.77 A 1.00 1.00 0 1 0 262.53 150.77 A 1.00 1.00 0 1 0 260.53 150.77 Z M 249.73 282.96 A 1.00 1.00 0 1 0 251.73 282.96 A 1.00 1.00 0 1 0 249.73 282.96 Z M 310.12 295.52 A 1.00 1.00 0 1 0 312.12 295.52 A 1.00 1.00 0 1 0 310.12 295.52 Z M 326.58 288.67 A 1.00 1.00 0 1 0 328.58 288.67 A 1.00 1.00 0 1 0 326.58 288.67 Z M 263.35 172.74 A 1.00 1.00 0 1 0 265.35 172.74 A 1.00 1.00 0 1 0 263.35 172.74 Z M 274.53 202.17 A 1.00 1.00 0 1 0 276.53 202.17 A 1.00 1.00 0 1 0 274.53 202.17 Z M 251.23 154.85 A 1.00 1.00 0 1 0 253.23 154.85 A 1.00 1.00 0 1 0 251.23 154.85 Z M 277.19 188.58 A 1.00 1.00 0 1 0 279.19 188.58 A 1.00 1.00 0 1 0 277.19 188.58 Z M 210.25 241.22 A 1.00 1.00 0 1 0 212.25 241.22 A 1.00 1.00 0 1 0 210.25 241.22 Z M 301.07 323.27 A 1.00 1.00 0 1 0 303.07 323.27 A 1.00 1.00 0 1 0 301.07 323.27 Z M 209.48 181.74 A 1.00 1.00 0 1 0 211.48 181.74 A 1.00 1.00 0 1 0 209.48 181.74 Z M 294.90 286.03 A 1.00 1.00 0 1 0 296.90 286.03 A 1.00 1.00 0 1 0 294.90 286.03 Z M 280.74 178.69 A 1.00 1.00 0 1 0 282.74 178.69 A 1.00 1.00 0 1 0 280.74 178.69 Z M 276.12 336.78 A 1.00 1.00 0 1 0 278.12 336.78 A 1.00 1.00 0 1 0 276.12 336.78 Z M 278.61 225.27 A 1.00 1.00 0 1 0 280.61 225.27 A 1.00 1.00 0 1 0 278.61 225.27 Z M 234.63 342.47 A 1.00 1.00 0 1 0 236.63 342.47 A 1.00 1.00 0 1 0 234.63 342.47 Z M 249.20 323.20 A 1.00 1.00 0 1 0 251.20 323.20 A 1.00 1.00 0 1 0 249.20 323.20 Z M 269.13 142.37 A 1.00 1.00 0 1 0 271.13 142.37 A 1.00 1.00 0 1 0 269.13 142.37 Z M 191.25 277.92 A 1.00 1.00 0 1 0 193.25 277.92 A 1.00 1.00 0 1 0 191.25 277.92 Z M 293.42 309.86 A 1.00 1.00 0 1 0 295.42 309.86 A 1.00 1.00 0 1 0 293.42 309.86 Z M 308.00 239.81 A 1.00 1.00 0 1 0 310.00 239.81 A 1.00 1.00 0 1 0 308.00 239.81 Z M 254.05 208.69 A 1.00 1.00 0 1 0 256.05 208.69 A 1.00 1.00 0 1 0 254.05 208.69 Z M 222.43 270.23 A 1.00 1.00 0 1 0 224.43 270.23 A 1.00 1.00 0 1 0 222.43 270.23 Z M 287.57 208.20 A 1.00 1.00 0 1 0 289.57 208.20 A 1.00 1.00 0 1 0 287.57 208.20 Z M 310.10 225.36 A 1.00 1.00 0 1 0 312.10 225.36 A 1.00 1.00 0 1 0 310.10 225.36 Z M 224.93 208.54 A 1.00 1.00 0 1 0 226.93 208.54 A 1.00 1.00 0 1 0 224.93 208.54 Z M 195.82 254.82 A 1.00 1.00 0 1 0 197.82 254.82 A 1.00 1.00 0 1 0 195.82 254.82 Z M 243.01 204.03 A 1.00 1.00 0 1 0 245.01 204.03 A 1.00 1.00 0 1 0 243.01 204.03 Z M 208.62 232.73 A 1.00 1.00 0 1 0 210.62 232.73 A 1.00 1.00 0 1 0 208.62 232.73 Z M 231.85 289.38 A 1.00 1.00 0 1 0 233.85 289.38 A 1.00 1.00 0 1 0 231.85 289.38 Z M 316.74 281.96 A 1.00 1.00 0 1 0 318.74 281.96 A 1.00 1.00 0 1 0 316.74 281.96 Z M 230.44 245.38 A 1.00 1.00 0 1 0 232.44 245.38 A 1.00 1.00 0 1 0 230.44 245.38 Z M 310.14 275.47 A 1.00 1.00 0 1 0 312.14 275.47 A 1.00 1.00 0 1 0 310.14 275.47 Z M 295.15 227.70 A 1.00 1.00 0 1 0 297.15 227.70 A 1.00 1.00 0 1 0 295.15 227.70 Z M 272.49 234.86 A 1.00 1.00 0 1 0 274.49 234.86 A 1.00 1.00 0 1 0 272.49 234.86 Z M 211.87 326.54 A 1.00 1.00 0 1 0 213.87 326.54 A 1.00 1.00 0 1 0 211.87 326.54 Z M 238.88 175.54 A 1.00 1.00 0 1 0 240.88 175.54 A 1.00 1.00 0 1 0 238.88 175.54 Z M 245.07 346.10 A 1.00 1.00 0 1 0 247.07 346.10 A 1.00 1.00 0 1 0 245.07 346.10 Z M 228.86 175.41 A 1.00 1.00 0 1 0 230.86 175.41 A 1.00 1.00 0 1 0 228.86 175.41 Z M 295.49 256.34 A 1.00 1.00 0 1 0 297.49 256.34 A 1.00 1.00 0 1 0 295.49 256.34 Z M 254.15 137.21 A 1.00 1.00 0 1 0 256.15 137.21 A 1.00 1.00 0 1 0 254.15 137.21 Z M 262.16 276.51 A 1.00 1.00 0 1 0 264.16 276.51 A 1.00 1.00 0 1 0 262.16 276.51 Z M 283.18 341.51 A 1.00 1.00 0 1 0 285.18 341.51 A 1.00 1.00 0 1 0 283.18 341.51 Z M 297.66 179.54 A 1.00 1.00 0 1 0 299.66 179.54 A 1.00 1.00 0 1 0 297.66 179.54 Z M 260.67 223.97 A 1.00 1.00 0 1 0 262.67 223.97 A 1.00 1.00 0 1 0 260.67 223.97 Z M 264.35 330.07 A 1.00 1.00 0 1 0 266.35 330.07 A 1.00 1.00 0 1 0 264.35 330.07 Z M 235.76 282.74 A 1.00 1.00 0 1 0 237.76 282.74 A 1.00 1.00 0 1 0 235.76 282.74 Z M 311.40 247.43 A 1.00 1.00 0 1 0 313.40 247.43 A 1.00 1.00 0 1 0 311.40 247.43 Z M 244.73 337.38 A 1.00 1.00 0 1 0 246.73 337.38 A 1.00 1.00 0 1 0 244.73 337.38 Z M 223.90 185.06 A 1.00 1.00 0 1 0 225.90 185.06 A 1.00 1.00 0 1 0 223.90 185.06 Z M 296.90 155.57 A 1.00 1.00 0 1 0 298.90 155.57 A 1.00 1.00 0 1 0 296.90 155.57 Z M 232.38 234.82 A 1.00 1.00 0 1 0 234.38 234.82 A 1.00 1.00 0 1 0 232.38 234.82 Z M 263.38 157.73 A 1.00 1.00 0 1 0 265.38 157.73 A 1.00 1.00 0 1 0 263.38 157.73 Z M 318.39 267.00 A 1.00 1.00 0 1 0 320.39 267.00 A 1.00 1.00 0 1 0 318.39 267.00 Z M 286.03 269.81 A 1.00 1.00 0 1 0 288.03 269.81 A 1.00 1.00 0 1 0 286.03 269.81 Z M 288.84 195.43 A 1.00 1.00 0 1 0 290.84 195.43 A 1.00 1.00 0 1 0 288.84 195.43 Z M 277.97 251.22 A 1.00 1.00 0 1 0 279.97 251.22 A 1.00 1.00 0 1 0 277.97 251.22 Z M 199.00 182.03 A 1.00 1.00 0 1 0 201.00 182.03 A 1.00 1.00 0 1 0 199.00 182.03 Z M 274.29 270.28 A 1.00 1.00 0 1 0 276.29 270.28 A 1.00 1.00 0 1 0 274.29 270.28 Z M 223.44 199.29 A 1.00 1.00 0 1 0 225.44 199.29 A 1.00 1.00 0 1 0 223.44 199.29 Z M 327.59 258.40 A 1.00 1.00 0 1 0 329.59 258.40 A 1.00 1.00 0 1 0 327.59 258.40 Z M 277.51 324.87 A 1.00 1.00 0 1 0 279.51 324.87 A 1.00 1.00 0 1 0 277.51 324.87 Z M 197.05 268.42 A 1.00 1.00 0 1 0 199.05 268.42 A 1.00 1.00 0 1 0 197.05 268.42 Z M 287.39 183.72 A 1.00 1.00 0 1 0 289.39 183.72 A 1.00 1.00 0 1 0 287.39 183.72 Z M 205.14 261.76 A 1.00 1.00 0 1 0 207.14 261.76 A 1.00 1.00 0 1 0 205.14 261.76 Z M 280.56 239.64 A 1.00 1.00 0 1 0 282.56 239.64 A 1.00 1.00 0 1 0 280.56 239.64 Z M 204.45 271.15 A 1.00 1.00 0 1 0 206.45 271.15 A 1.00 1.00 0 1 0 204.45 271.15 Z M 222.67 323.09 A 1.00 1.00 0 1 0 224.67 323.09 A 1.00 1.00 0 1 0 222.67 323.09 Z M 228.48 264.95 A 1.00 1.00 0 1 0 230.48 264.95 A 1.00 1.00 0 1 0 228.48 264.95 Z M 314.79 302.39 A 1.00 1.00 0 1 0 316.79 302.39 A 1.00 1.00 0 1 0 314.79 302.39 Z M 288.75 300.50 A 1.00 1.00 0 1 0 290.75 300.50 A 1.00 1.00 0 1 0 288.75 300.50 Z M 241.66 278.05 A 1.00 1.00 0 1 0 243.66 278.05 A 1.00 1.00 0 1 0 241.66 278.05 Z M 312.69 176.07 A 1.00 1.00 0 1 0 314.69 176.07 A 1.00 1.00 0 1 0 312.69 176.07 Z M 221.74 217.50 A 1.00 1.00 0 1 0 223.74 217.50 A 1.00 1.00 0 1 0 221.74 217.50 Z M 233.26 201.12 A 1.00 1.00 0 1 0 235.26 201.12 A 1.00 1.00 0 1 0 233.26 201.12 Z M 292.18 320.03 A 1.00 1.00 0 1 0 294.18 320.03 A 1.00 1.00 0 1 0 292.18 320.03 Z M 217.52 206.52 A 1.00 1.00 0 1 0 219.52 206.52 A 1.00 1.00 0 1 0 217.52 206.52 Z M 219.38 156.61 A 1.00 1.00 0 1 0 221.38 156.61 A 1.00 1.00 0 1 0 219.38 156.61 Z M 253.26 254.32 A 1.00 1.00 0 1 0 255.26 254.32 A 1.00 1.00 0 1 0 253.26 254.32 Z M 284.26 161.13 A 1.00 1.00 0 1 0 286.26 161.13 A 1.00 1.00 0 1 0 284.26 161.13 Z M 200.01 196.31 A 1.00 1.00 0 1 0 202.01 196.31 A 1.00 1.00 0 1 0 200.01 196.31 Z M 263.53 208.87 A 1.00 1.00 0 1 0 265.53 208.87 A 1.00 1.00 0 1 0 263.53 208.87 Z M 320.40 233.32 A 1.00 1.00 0 1 0 322.40 233.32 A 1.00 1.00 0 1 0 320.40 233.32 Z M 227.82 280.84 A 1.00 1.00 0 1 0 229.82 280.84 A 1.00 1.00 0 1 0 227.82 280.84 Z M 328.84 276.66 A 1.00 1.00 0 1 0 330.84 276.66 A 1.00 1.00 0 1 0 328.84 276.66 Z M 253.24 293.12 A 1.00 1.00 0 1 0 255.24 293.12 A 1.00 1.00 0 1 0 253.24 293.12 Z M 207.10 210.53 A 1.00 1.00 0 1 0 209.10 210.53 A 1.00 1.00 0 1 0 207.10 210.53 Z M 224.51 305.30 A 1.00 1.00 0 1 0 226.51 305.30 A 1.00 1.00 0 1 0 224.51 305.30 Z M 272.97 261.20 A 1.00 1.00 0 1 0 274.97 261.20 A 1.00 1.00 0 1 0 272.97 261.20 Z M 258.82 350.55 A 1.00 1.00 0 1 0 260.82 350.55 A 1.00 1.00 0 1 0 258.82 350.55 Z M 280.16 195.92 A 1.00 1.00 0 1 0 282.16 195.92 A 1.00 1.00 0 1 0 280.16 195.92 Z M 287.09 325.91 A 1.00 1.00 0 1 0 289.09 325.91 A 1.00 1.00 0 1 0 287.09 325.91 Z M 316.62 216.83 A 1.00 1.00 0 1 0 318.62 216.83 A 1.00 1.00 0 1 0 316.62 216.83 Z M 290.96 341.42 A 1.00 1.00 0 1 0 292.96 341.42 A 1.00 1.00 0 1 0 290.96 341.42 Z M 251.26 177.29 A 1.00 1.00 0 1 0 253.26 177.29 A 1.00 1.00 0 1 0 251.26 177.29 Z M 201.39 227.77 A 1.00 1.00 0 1 0 203.39 227.77 A 1.00 1.00 0 1 0 201.39 227.77 Z M 229.54 316.98 A 1.00 1.00 0 1 0 231.54 316.98 A 1.00 1.00 0 1 0 229.54 316.98 Z M 315.82 197.21 A 1.00 1.00 0 1 0 317.82 197.21 A 1.00 1.00 0 1 0 315.82 197.21 Z M 241.01 298.54 A 1.00 1.00 0 1 0 243.01 298.54 A 1.00 1.00 0 1 0 241.01 298.54 Z M 327.15 216.67 A 1.00 1.00 0 1 0 329.15 216.67 A 1.00 1.00 0 1 0 327.15 216.67 Z M 216.89 335.85 A 1.00 1.00 0 1 0 218.89 335.85 A 1.00 1.00 0 1 0 216.89 335.85 Z M 186.51 221.21 A 1.00 1.00 0 1 0 188.51 221.21 A 1.00 1.00 0 1 0 186.51 221.21 Z M 274.79 287.61 A 1.00 1.00 0 1 0 276.79 287.61 A 1.00 1.00 0 1 0 274.79 287.61 Z M 246.88 191.92 A 1.00 1.00 0 1 0 248.88 191.92 A 1.00 1.00 0 1 0 246.88 191.92 Z M 200.45 308.31 A 1.00 1.00 0 1 0 202.45 308.31 A 1.00 1.00 0 1 0 200.45 308.31 Z M 249.32 228.22 A 1.00 1.00 0 1 0 251.32 228.22 A 1.00 1.00 0 1 0 249.32 228.22 Z M 292.21 172.69 A 1.00 1.00 0 1 0 294.21 172.69 A 1.00 1.00 0 1 0 292.21 172.69 Z M 288.56 239.45 A 1.00 1.00 0 1 0 290.56 239.45 A 1.00 1.00 0 1 0 288.56 239.45 Z M 269.88 196.21 A 1.00 1.00 0 1 0 271.88 196.21 A 1.00 1.00 0 1 0 269.88 196.21 Z M 289.75 217.24 A 1.00 1.00 0 1 0 291.75 217.24 A 1.00 1.00 0 1 0 289.75 217.24 Z M 326.90 229.28 A 1.00 1.00 0 1 0 328.90 229.28 A 1.00 1.00 0 1 0 326.90 229.28 Z M 263.04 318.16 A 1.00 1.00 0 1 0 265.04 318.16 A 1.00 1.00 0 1 0 263.04 318.16 Z M 280.07 300.08 A 1.00 1.00 0 1 0 282.07 300.08 A 1.00 1.00 0 1 0 280.07 300.08 Z M 241.55 159.88 A 1.00 1.00 0 1 0 243.55 159.88 A 1.00 1.00 0 1 0 241.55 159.88 Z M 269.17 220.45 A 1.00 1.00 0 1 0 271.17 220.45 A 1.00 1.00 0 1 0 269.17 220.45 Z M 319.26 241.09 A 1.00 1.00 0 1 0 321.26 241.09 A 1.00 1.00 0 1 0 319.26 241.09 Z M 227.33 158.07 A 1.00 1.00 0 1 0 229.33 158.07 A 1.00 1.00 0 1 0 227.33 158.07 Z M 246.59 258.38 A 1.00 1.00 0 1 0 248.59 258.38 A 1.00 1.00 0 1 0 246.59 258.38 Z M 254.83 200.20 A 1.00 1.00 0 1 0 256.83 200.20 A 1.00 1.00 0 1 0 254.83 200.20 Z M 250.30 218.76 A 1.00 1.00 0 1 0 252.30 218.76 A 1.00 1.00 0 1 0 250.30 218.76 Z M 305.24 256.26 A 1.00 1.00 0 1 0 307.24 256.26 A 1.00 1.00 0 1 0 305.24 256.26 Z M 278.82 315.68 A 1.00 1.00 0 1 0 280.82 315.68 A 1.00 1.00 0 1 0 278.82 315.68 Z M 244.18 139.16 A 1.00 1.00 0 1 0 246.18 139.16 A 1.00 1.00 0 1 0 244.18 139.16 Z M 312.86 204.93 A 1.00 1.00 0 1 0 314.86 204.93 A 1.00 1.00 0 1 0 312.86 204.93 Z M 219.25 256.03 A 1.00 1.00 0 1 0 221.25 256.03 A 1.00 1.00 0 1 0 219.25 256.03 Z M 312.10 173.13 A 1.00 1.00 0 1 0 314.10 173.13 A 1.00 1.00 0 1 0 312.10 173.13 Z M 285.73 144.27 A 1.00 1.00 0 1 0 287.73 144.27 A 1.00 1.00 0 1 0 285.73 144.27 Z M 199.60 316.53 A 1.00 1.00 0 1 0 201.60 316.53 A 1.00 1.00 0 1 0 199.60 316.53 Z M 209.18 349.52 A 1.00 1.00 0 1 0 211.18 349.52 A 1.00 1.00 0 1 0 209.18 349.52 Z M 262.52 140.58 A 1.00 1.00 0 1 0 264.52 140.58 A 1.00 1.00 0 1 0 262.52 140.58 Z M 314.43 335.22 A 1.00 1.00 0 1 0 316.43 335.22 A 1.00 1.00 0 1 0 314.43 335.22 Z M 232.71 352.92 A 1.00 1.00 0 1 0 234.71 352.92 A 1.00 1.00 0 1 0 232.71 352.92 Z M 336.51 202.83 A 1.00 1.00 0 1 0 338.51 202.83 A 1.00 1.00 0 1 0 336.51 202.83 Z M 201.24 171.75 A 1.00 1.00 0 1 0 203.24 171.75 A 1.00 1.00 0 1 0 201.24 171.75 Z M 179.02 270.75 A 1.00 1.00 0 1 0 181.02 270.75 A 1.00 1.00 0 1 0 179.02 270.75 Z M 229.79 364.79 A 1.00 1.00 0 1 0 231.79 364.79 A 1.00 1.00 0 1 0 229.79 364.79 Z M 281.17 360.08 A 1.00 1.00 0 1 0 283.17 360.08 A 1.00 1.00 0 1 0 281.17 360.08 Z M 331.17 239.00 A 1.00 1.00 0 1 0 333.17 239.00 A 1.00 1.00 0 1 0 331.17 239.00 Z M 226.77 142.97 A 1.00 1.00 0 1 0 228.77 142.97 A 1.00 1.00 0 1 0 226.77 142.97 Z M 338.43 271.41 A 1.00 1.00 0 1 0 340.43 271.41 A 1.00 1.00 0 1 0 338.43 271.41 Z M 330.04 294.95 A 1.00 1.00 0 1 0 332.04 294.95 A 1.00 1.00 0 1 0 330.04 294.95 Z M 210.04 334.76 A 1.00 1.00 0 1 0 212.04 334.76 A 1.00 1.00 0 1 0 210.04 334.76 Z M 331.75 263.74 A 1.00 1.00 0 1 0 333.75 263.74 A 1.00 1.00 0 1 0 331.75 263.74 Z M 264.97 140.80 A 1.00 1.00 0 1 0 266.97 140.80 A 1.00 1.00 0 1 0 264.97 140.80 Z M 268.36 360.97 A 1.00 1.00 0 1 0 270.36 360.97 A 1.00 1.00 0 1 0 268.36 360.97 Z M 336.83 225.99 A 1.00 1.00 0 1 0 338.83 225.99 A 1.00 1.00 0 1 0 336.83 225.99 Z M 332.05 264.65 A 1.00 1.00 0 1 0 334.05 264.65 A 1.00 1.00 0 1 0 332.05 264.65 Z M 282.52 118.78 A 1.00 1.00 0 1 0 284.52 118.78 A 1.00 1.00 0 1 0 282.52 118.78 Z M 184.14 175.81 A 1.00 1.00 0 1 0 186.14 175.81 A 1.00 1.00 0 1 0 184.14 175.81 Z M 235.45 135.92 A 1.00 1.00 0 1 0 237.45 135.92 A 1.00 1.00 0 1 0 235.45 135.92 Z M 299.09 154.62 A 1.00 1.00 0 1 0 301.09 154.62 A 1.00 1.00 0 1 0 299.09 154.62 Z M 299.60 138.48 A 1.00 1.00 0 1 0 301.60 138.48 A 1.00 1.00 0 1 0 299.60 138.48 Z M 186.75 186.21 A 1.00 1.00 0 1 0 188.75 186.21 A 1.00 1.00 0 1 0 186.75 186.21 Z M 205.99 163.44 A 1.00 1.00 0 1 0 207.99 163.44 A 1.00 1.00 0 1 0 205.99 163.44 Z M 293.18 348.89 A 1.00 1.00 0 1 0 295.18 348.89 A 1.00 1.00 0 1 0 293.18 348.89 Z M 288.84 154.16 A 1.00 1.00 0 1 0 290.84 154.16 A 1.00 1.00 0 1 0 288.84 154.16 Z M 181.28 294.71 A 1.00 1.00 0 1 0 183.28 294.71 A 1.00 1.00 0 1 0 181.28 294.71 Z M 232.78 354.05 A 1.00 1.00 0 1 0 234.78 354.05 A 1.00 1.00 0 1 0 232.78 354.05 Z M 203.14 159.43 A 1.00 1.00 0 1 0 205.14 159.43 A 1.00 1.00 0 1 0 203.14 159.43 Z M 343.28 201.86 A 1.00 1.00 0 1 0 345.28 201.86 A 1.00 1.00 0 1 0 343.28 201.86 Z M 190.48 300.93 A 1.00 1.00 0 1 0 192.48 300.93 A 1.00 1.00 0 1 0 190.48 300.93 Z M 194.95 339.97 A 1.00 1.00 0 1 0 196.95 339.97 A 1.00 1.00 0 1 0 194.95 339.97 Z M 281.70 369.73 A 1.00 1.00 0 1 0 283.70 369.73 A 1.00 1.00 0 1 0 281.70 369.73 Z M 297.53 151.74 A 1.00 1.00 0 1 0 299.53 151.74 A 1.00 1.00 0 1 0 297.53 151.74 Z M 258.05 131.46 A 1.00 1.00 0 1 0 260.05 131.46 A 1.00 1.00 0 1 0 258.05 131.46 Z M 295.88 150.02 A 1.00 1.00 0 1 0 297.88 150.02 A 1.00 1.00 0 1 0 295.88 150.02 Z M 248.92 367.90 A 1.00 1.00 0 1 0 250.92 367.90 A 1.00 1.00 0 1 0 248.92 367.90 Z M 276.51 128.50 A 1.00 1.00 0 1 0 278.51 128.50 A 1.00 1.00 0 1 0 276.51 128.50 Z M 175.31 286.29 A 1.00 1.00 0 1 0 177.31 286.29 A 1.00 1.00 0 1 0 175.31 286.29 Z M 337.63 310.68 A 0.34 0.34 0 1 0 338.31 310.68 A 0.34 0.34 0 1 0 337.63 310.68 Z M 181.54 300.54 A 0.55 0.55 0 1 0 182.64 300.54 A 0.55 0.55 0 1 0 181.54 300.54 Z M 183.96 308.90 A 0.54 0.54 0 1 0 185.05 308.90 A 0.54 0.54 0 1 0 183.96 308.90 Z M 292.74 381.68 A 0.32 0.32 0 1 0 293.39 381.68 A 0.32 0.32 0 1 0 292.74 381.68 Z M 309.32 356.16 A 0.34 0.34 0 1 0 310.01 356.16 A 0.34 0.34 0 1 0 309.32 356.16 Z M 312.75 130.37 A 0.32 0.32 0 1 0 313.38 130.37 A 0.32 0.32 0 1 0 312.75 130.37 Z M 330.15 185.75 A 0.48 0.48 0 1 0 331.10 185.75 A 0.48 0.48 0 1 0 330.15 185.75 Z M 173.99 257.22 A 0.43 0.43 0 1 0 174.86 257.22 A 0.43 0.43 0 1 0 173.99 257.22 Z M 214.45 357.17 A 0.28 0.28 0 1 0 215.00 357.17 A 0.28 0.28 0 1 0 214.45 357.17 Z M 325.21 315.04 A 0.69 0.69 0 1 0 326.60 315.04 A 0.69 0.69 0 1 0 325.21 315.04 Z M 367.18 274.58 A 0.38 0.38 0 1 0 367.94 274.58 A 0.38 0.38 0 1 0 367.18 274.58 Z M 326.78 162.04 A 0.30 0.30 0 1 0 327.38 162.04 A 0.30 0.30 0 1 0 326.78 162.04 Z M 168.67 177.46 A 0.33 0.33 0 1 0 169.33 177.46 A 0.33 0.33 0 1 0 168.67 177.46 Z M 235.82 132.98 A 0.42 0.42 0 1 0 236.66 132.98 A 0.42 0.42 0 1 0 235.82 132.98 Z M 259.28 354.69 A 0.40 0.40 0 1 0 260.08 354.69 A 0.40 0.40 0 1 0 259.28 354.69 Z M 335.12 343.29 A 0.56 0.56 0 1 0 336.24 343.29 A 0.56 0.56 0 1 0 335.12 343.29 Z M 164.48 254.05 A 0.68 0.68 0 1 0 165.84 254.05 A 0.68 0.68 0 1 0 164.48 254.05 Z M 327.35 329.95 A 0.65 0.65 0 1 0 328.64 329.95 A 0.65 0.65 0 1 0 327.35 329.95 Z M 268.51 111.22 A 0.52 0.52 0 1 0 269.54 111.22 A 0.52 0.52 0 1 0 268.51 111.22 Z M 265.82 107.83 A 0.54 0.54 0 1 0 266.90 107.83 A 0.54 0.54 0 1 0 265.82 107.83 Z M 344.92 311.96 A 0.45 0.45 0 1 0 345.82 311.96 A 0.45 0.45 0 1 0 344.92 311.96 Z M 221.66 118.09 A 0.44 0.44 0 1 0 222.54 118.09 A 0.44 0.44 0 1 0 221.66 118.09 Z M 160.79 244.38 A 0.48 0.48 0 1 0 161.76 244.38 A 0.48 0.48 0 1 0 160.79 244.38 Z M 181.65 219.17 A 0.46 0.46 0 1 0 182.57 219.17 A 0.46 0.46 0 1 0 181.65 219.17 Z M 191.63 173.09 A 0.47 0.47 0 1 0 192.57 173.09 A 0.47 0.47 0 1 0 191.63 173.09 Z M 355.35 287.82 A 0.46 0.46 0 1 0 356.26 287.82 A 0.46 0.46 0 1 0 355.35 287.82 Z M 208.02 367.72 A 0.51 0.51 0 1 0 209.05 367.72 A 0.51 0.51 0 1 0 208.02 367.72 Z M 250.85 138.42 A 0.39 0.39 0 1 0 251.63 138.42 A 0.39 0.39 0 1 0 250.85 138.42 Z M 285.18 353.69 A 0.48 0.48 0 1 0 286.14 353.69 A 0.48 0.48 0 1 0 285.18 353.69 Z M 273.94 107.13 A 0.32 0.32 0 1 0 274.59 107.13 A 0.32 0.32 0 1 0 273.94 107.13 Z M 271.19 108.75 A 0.54 0.54 0 1 0 272.28 108.75 A 0.54 0.54 0 1 0 271.19 108.75 Z M 187.11 224.22 A 0.36 0.36 0 1 0 187.83 224.22 A 0.36 0.36 0 1 0 187.11 224.22 Z M 351.71 280.18 A 0.47 0.47 0 1 0 352.65 280.18 A 0.47 0.47 0 1 0 351.71 280.18 Z M 181.37 152.17 A 0.39 0.39 0 1 0 182.16 152.17 A 0.39 0.39 0 1 0 181.37 152.17 Z M 202.37 353.77 A 0.71 0.71 0 1 0 203.79 353.77 A 0.71 0.71 0 1 0 202.37 353.77 Z M 184.31 225.64 A 0.42 0.42 0 1 0 185.14 225.64 A 0.42 0.42 0 1 0 184.31 225.64 Z M 241.94 367.64 A 0.59 0.59 0 1 0 243.11 367.64 A 0.59 0.59 0 1 0 241.94 367.64 Z M 291.32 122.56 A 0.65 0.65 0 1 0 292.61 122.56 A 0.65 0.65 0 1 0 291.32 122.56 Z M 237.16 117.89 A 0.58 0.58 0 1 0 238.31 117.89 A 0.58 0.58 0 1 0 237.16 117.89 Z M 172.34 156.14 A 0.39 0.39 0 1 0 173.12 156.14 A 0.39 0.39 0 1 0 172.34 156.14 Z M 266.47 392.99 A 0.42 0.42 0 1 0 267.31 392.99 A 0.42 0.42 0 1 0 266.47 392.99 Z M 341.26 185.27 A 0.48 0.48 0 1 0 342.22 185.27 A 0.48 0.48 0 1 0 341.26 185.27 Z M 155.89 231.14 A 0.43 0.43 0 1 0 156.74 231.14 A 0.43 0.43 0 1 0 155.89 231.14 Z M 332.51 253.48 A 0.72 0.72 0 1 0 333.95 253.48 A 0.72 0.72 0 1 0 332.51 253.48 Z M 159.15 219.72 A 0.32 0.32 0 1 0 159.79 219.72 A 0.32 0.32 0 1 0 159.15 219.72 Z M 335.48 261.95 A 0.56 0.56 0 1 0 336.60 261.95 A 0.56 0.56 0 1 0 335.48 261.95 Z M 357.72 312.46 A 0.72 0.72 0 1 0 359.16 312.46 A 0.72 0.72 0 1 0 357.72 312.46 Z M 336.31 200.30 A 0.30 0.30 0 1 0 336.91 200.30 A 0.30 0.30 0 1 0 336.31 200.30 Z M 192.30 164.01 A 0.67 0.67 0 1 0 193.64 164.01 A 0.67 0.67 0 1 0 192.30 164.01 Z M 274.81 121.91 A 0.50 0.50 0 1 0 275.80 121.91 A 0.50 0.50 0 1 0 274.81 121.91 Z M 181.90 319.45 A 0.64 0.64 0 1 0 183.18 319.45 A 0.64 0.64 0 1 0 181.90 319.45 Z M 298.81 371.92 A 0.40 0.40 0 1 0 299.61 371.92 A 0.40 0.40 0 1 0 298.81 371.92 Z M 359.85 204.18 A 0.52 0.52 0 1 0 360.89 204.18 A 0.52 0.52 0 1 0 359.85 204.18 Z M 250.37 136.94 A 0.54 0.54 0 1 0 251.44 136.94 A 0.54 0.54 0 1 0 250.37 136.94 Z M 304.15 371.75 A 0.52 0.52 0 1 0 305.20 371.75 A 0.52 0.52 0 1 0 304.15 371.75 Z M 174.96 191.58 A 0.49 0.49 0 1 0 175.95 191.58 A 0.49 0.49 0 1 0 174.96 191.58 Z M 184.62 159.32 A 0.60 0.60 0 1 0 185.82 159.32 A 0.60 0.60 0 1 0 184.62 159.32 Z M 166.98 249.69 A 0.38 0.38 0 1 0 167.74 249.69 A 0.38 0.38 0 1 0 166.98 249.69 Z M 325.71 158.57 A 0.51 0.51 0 1 0 326.73 158.57 A 0.51 0.51 0 1 0 325.71 158.57 Z M 161.36 275.43 A 0.46 0.46 0 1 0 162.28 275.43 A 0.46 0.46 0 1 0 161.36 275.43 Z M 297.73 380.44 A 0.37 0.37 0 1 0 298.47 380.44 A 0.37 0.37 0 1 0 297.73 380.44 Z M 342.40 210.69 A 0.51 0.51 0 1 0 343.42 210.69 A 0.51 0.51 0 1 0 342.40 210.69 Z M 318.15 143.72 A 0.49 0.49 0 1 0 319.13 143.72 A 0.49 0.49 0 1 0 318.15 143.72 Z M 253.39 105.82 A 0.41 0.41 0 1 0 254.22 105.82 A 0.41 0.41 0 1 0 253.39 105.82 Z M 270.05 100.50 A 0.44 0.44 0 1 0 270.94 100.50 A 0.44 0.44 0 1 0 270.05 100.50 Z M 324.18 154.35 A 0.33 0.33 0 1 0 324.85 154.35 A 0.33 0.33 0 1 0 324.18 154.35 Z M 187.04 241.31 A 0.62 0.62 0 1 0 188.27 241.31 A 0.62 0.62 0 1 0 187.04 241.31 Z M 167.56 262.29 A 0.41 0.41 0 1 0 168.39 262.29 A 0.41 0.41 0 1 0 167.56 262.29 Z M 209.14 366.09 A 0.36 0.36 0 1 0 209.86 366.09 A 0.36 0.36 0 1 0 209.14 366.09 Z M 288.49 115.76 A 0.32 0.32 0 1 0 289.13 115.76 A 0.32 0.32 0 1 0 288.49 115.76 Z M 218.33 132.16 A 0.37 0.37 0 1 0 219.07 132.16 A 0.37 0.37 0 1 0 218.33 132.16 Z M 281.57 108.16 A 0.33 0.33 0 1 0 282.23 108.16 A 0.33 0.33 0 1 0 281.57 108.16 Z M 331.80 304.38 A 0.47 0.47 0 1 0 332.74 304.38 A 0.47 0.47 0 1 0 331.80 304.38 Z M 334.73 324.34 A 0.57 0.57 0 1 0 335.88 324.34 A 0.57 0.57 0 1 0 334.73 324.34 Z M 189.33 348.74 A 0.36 0.36 0 1 0 190.05 348.74 A 0.36 0.36 0 1 0 189.33 348.74 Z M 323.01 330.70 A 0.35 0.35 0 1 0 323.71 330.70 A 0.35 0.35 0 1 0 323.01 330.70 Z M 318.06 350.71 A 0.59 0.59 0 1 0 319.24 350.71 A 0.59 0.59 0 1 0 318.06 350.71 Z M 341.53 309.56 A 0.52 0.52 0 1 0 342.56 309.56 A 0.52 0.52 0 1 0 341.53 309.56 Z M 318.64 334.08 A 0.47 0.47 0 1 0 319.57 334.08 A 0.47 0.47 0 1 0 318.64 334.08 Z M 162.33 213.37 A 0.46 0.46 0 1 0 163.25 213.37 A 0.46 0.46 0 1 0 162.33 213.37 Z M 231.36 366.41 A 0.69 0.69 0 1 0 232.75 366.41 A 0.69 0.69 0 1 0 231.36 366.41 Z M 321.90 133.10 A 0.34 0.34 0 1 0 322.57 133.10 A 0.34 0.34 0 1 0 321.90 133.10 Z M 194.25 158.03 A 0.47 0.47 0 1 0 195.19 158.03 A 0.47 0.47 0 1 0 194.25 158.03 Z M 297.50 147.34 A 0.69 0.69 0 1 0 298.87 147.34 A 0.69 0.69 0 1 0 297.50 147.34 Z M 289.74 357.77 A 0.53 0.53 0 1 0 290.80 357.77 A 0.53 0.53 0 1 0 289.74 357.77 Z M 252.01 106.70 A 0.61 0.61 0 1 0 253.24 106.70 A 0.61 0.61 0 1 0 252.01 106.70 Z M 339.74 209.58 A 0.49 0.49 0 1 0 340.73 209.58 A 0.49 0.49 0 1 0 339.74 209.58 Z M 159.87 316.07 A 0.32 0.32 0 1 0 160.50 316.07 A 0.32 0.32 0 1 0 159.87 316.07 Z M 356.88 238.80 A 0.52 0.52 0 1 0 357.93 238.80 A 0.52 0.52 0 1 0 356.88 238.80 Z M 361.17 249.65 A 0.48 0.48 0 1 0 362.14 249.65 A 0.48 0.48 0 1 0 361.17 249.65 Z M 320.25 359.55 A 0.57 0.57 0 1 0 321.39 359.55 A 0.57 0.57 0 1 0 320.25 359.55 Z M 156.40 264.08 A 0.52 0.52 0 1 0 157.45 264.08 A 0.52 0.52 0 1 0 156.40 264.08 Z M 339.47 280.98 A 0.40 0.40 0 1 0 340.26 280.98 A 0.40 0.40 0 1 0 339.47 280.98 Z M 178.82 317.11 A 0.43 0.43 0 1 0 179.69 317.11 A 0.43 0.43 0 1 0 178.82 317.11 Z M 198.81 162.59 A 0.68 0.68 0 1 0 200.16 162.59 A 0.68 0.68 0 1 0 198.81 162.59 Z M 163.36 190.61 A 0.48 0.48 0 1 0 164.32 190.61 A 0.48 0.48 0 1 0 163.36 190.61 Z M 335.66 295.30 A 0.40 0.40 0 1 0 336.47 295.30 A 0.40 0.40 0 1 0 335.66 295.30 Z M 199.73 145.93 A 0.48 0.48 0 1 0 200.69 145.93 A 0.48 0.48 0 1 0 199.73 145.93 Z M 334.01 268.62 A 0.38 0.38 0 1 0 334.77 268.62 A 0.38 0.38 0 1 0 334.01 268.62 Z M 212.72 145.01 A 0.41 0.41 0 1 0 213.53 145.01 A 0.41 0.41 0 1 0 212.72 145.01 Z M 286.19 120.23 A 0.35 0.35 0 1 0 286.88 120.23 A 0.35 0.35 0 1 0 286.19 120.23 Z M 211.42 341.88 A 0.30 0.30 0 1 0 212.02 341.88 A 0.30 0.30 0 1 0 211.42 341.88 Z M 162.36 319.47 A 0.70 0.70 0 1 0 163.75 319.47 A 0.70 0.70 0 1 0 162.36 319.47 Z M 321.74 334.07 A 0.32 0.32 0 1 0 322.39 334.07 A 0.32 0.32 0 1 0 321.74 334.07 Z M 176.87 253.64 A 0.54 0.54 0 1 0 177.95 253.64 A 0.54 0.54 0 1 0 176.87 253.64 Z M 322.96 336.08 A 0.40 0.40 0 1 0 323.75 336.08 A 0.40 0.40 0 1 0 322.96 336.08 Z M 168.27 292.82 A 0.53 0.53 0 1 0 169.33 292.82 A 0.53 0.53 0 1 0 168.27 292.82 Z M 299.62 364.94 A 0.71 0.71 0 1 0 301.03 364.94 A 0.71 0.71 0 1 0 299.62 364.94 Z M 350.32 317.35 A 0.42 0.42 0 1 0 351.16 317.35 A 0.42 0.42 0 1 0 350.32 317.35 Z M 329.34 356.39 A 0.30 0.30 0 1 0 329.95 356.39 A 0.30 0.30 0 1 0 329.34 356.39 Z M 173.13 333.61 A 0.39 0.39 0 1 0 173.91 333.61 A 0.39 0.39 0 1 0 173.13 333.61 Z M 368.43 229.58 A 0.54 0.54 0 1 0 369.50 229.58 A 0.54 0.54 0 1 0 368.43 229.58 Z M 179.17 169.45 A 0.53 0.53 0 1 0 180.23 169.45 A 0.53 0.53 0 1 0 179.17 169.45 Z M 171.65 290.08 A 0.46 0.46 0 1 0 172.58 290.08 A 0.46 0.46 0 1 0 171.65 290.08 Z M 297.50 362.35 A 0.64 0.64 0 1 0 298.79 362.35 A 0.64 0.64 0 1 0 297.50 362.35 Z M 181.59 214.52 A 0.37 0.37 0 1 0 182.33 214.52 A 0.37 0.37 0 1 0 181.59 214.52 Z M 318.40 163.87 A 0.68 0.68 0 1 0 319.77 163.87 A 0.68 0.68 0 1 0 318.40 163.87 Z M 217.10 120.62 A 0.70 0.70 0 1 0 218.50 120.62 A 0.70 0.70 0 1 0 217.10 120.62 Z M 342.05 167.27 A 0.37 0.37 0 1 0 342.79 167.27 A 0.37 0.37 0 1 0 342.05 167.27 Z M 354.06 181.25 A 0.61 0.61 0 1 0 355.28 181.25 A 0.61 0.61 0 1 0 354.06 181.25 Z M 168.79 303.10 A 0.34 0.34 0 1 0 169.46 303.10 A 0.34 0.34 0 1 0 168.79 303.10 Z M 335.78 316.50 A 0.49 0.49 0 1 0 336.76 316.50 A 0.49 0.49 0 1 0 335.78 316.50 Z M 207.80 343.54 A 0.27 0.27 0 1 0 208.34 343.54 A 0.27 0.27 0 1 0 207.80 343.54 Z M 334.88 340.58 A 0.37 0.37 0 1 0 335.63 340.58 A 0.37 0.37 0 1 0 334.88 340.58 Z M 277.81 376.34 A 0.79 0.79 0 1 0 279.38 376.34 A 0.79 0.79 0 1 0 277.81 376.34 Z M 331.75 150.63 A 0.63 0.63 0 1 0 333.01 150.63 A 0.63 0.63 0 1 0 331.75 150.63 Z M 195.59 137.84 A 0.70 0.70 0 1 0 196.99 137.84 A 0.70 0.70 0 1 0 195.59 137.84 Z M 226.16 353.06 A 0.43 0.43 0 1 0 227.01 353.06 A 0.43 0.43 0 1 0 226.16 353.06 Z M 359.15 258.20 A 0.50 0.50 0 1 0 360.16 258.20 A 0.50 0.50 0 1 0 359.15 258.20 Z M 174.16 285.66 A 0.55 0.55 0 1 0 175.27 285.66 A 0.55 0.55 0 1 0 174.16 285.66 Z M 359.60 261.94 A 0.67 0.67 0 1 0 360.93 261.94 A 0.67 0.67 0 1 0 359.60 261.94 Z M 243.20 367.07 A 0.62 0.62 0 1 0 244.45 367.07 A 0.62 0.62 0 1 0 243.20 367.07 Z M 299.42 358.14 A 0.38 0.38 0 1 0 300.19 358.14 A 0.38 0.38 0 1 0 299.42 358.14 Z M 313.08 142.35 A 0.37 0.37 0 1 0 313.81 142.35 A 0.37 0.37 0 1 0 313.08 142.35 Z M 175.37 255.33 A 0.71 0.71 0 1 0 176.78 255.33 A 0.71 0.71 0 1 0 175.37 255.33 Z M 360.30 246.84 A 0.66 0.66 0 1 0 361.62 246.84 A 0.66 0.66 0 1 0 360.30 246.84 Z M 276.82 119.96 A 0.65 0.65 0 1 0 278.11 119.96 A 0.65 0.65 0 1 0 276.82 119.96 Z M 323.54 172.49 A 0.35 0.35 0 1 0 324.24 172.49 A 0.35 0.35 0 1 0 323.54 172.49 Z M 229.03 357.44 A 0.27 0.27 0 1 0 229.57 357.44 A 0.27 0.27 0 1 0 229.03 357.44 Z M 233.49 109.47 A 0.51 0.51 0 1 0 234.51 109.47 A 0.51 0.51 0 1 0 233.49 109.47 Z M 348.71 276.54 A 0.34 0.34 0 1 0 349.38 276.54 A 0.34 0.34 0 1 0 348.71 276.54 Z M 156.23 235.40 A 0.55 0.55 0 1 0 157.34 235.40 A 0.55 0.55 0 1 0 156.23 235.40 Z M 167.32 303.39 A 0.53 0.53 0 1 0 168.38 303.39 A 0.53 0.53 0 1 0 167.32 303.39 Z M 313.39 353.85 A 0.48 0.48 0 1 0 314.35 353.85 A 0.48 0.48 0 1 0 313.39 353.85 Z M 319.49 350.43 A 0.48 0.48 0 1 0 320.44 350.43 A 0.48 0.48 0 1 0 319.49 350.43 Z M 310.70 129.76 A 0.45 0.45 0 1 0 311.60 129.76 A 0.45 0.45 0 1 0 310.70 129.76 Z M 276.52 371.99 A 0.63 0.63 0 1 0 277.78 371.99 A 0.63 0.63 0 1 0 276.52 371.99 Z M 266.04 382.14 A 0.73 0.73 0 1 0 267.50 382.14 A 0.73 0.73 0 1 0 266.04 382.14 Z M 332.91 330.98 A 0.43 0.43 0 1 0 333.77 330.98 A 0.43 0.43 0 1 0 332.91 330.98 Z M 256.25 107.04 A 0.42 0.42 0 1 0 257.10 107.04 A 0.42 0.42 0 1 0 256.25 107.04 Z M 185.36 268.44 A 0.52 0.52 0 1 0 186.41 268.44 A 0.52 0.52 0 1 0 185.36 268.44 Z M 178.25 229.07 A 0.64 0.64 0 1 0 179.53 229.07 A 0.64 0.64 0 1 0 178.25 229.07 Z M 341.25 189.20 A 0.40 0.40 0 1 0 342.06 189.20 A 0.40 0.40 0 1 0 341.25 189.20 Z M 302.17 364.46 A 0.62 0.62 0 1 0 303.41 364.46 A 0.62 0.62 0 1 0 302.17 364.46 Z M 153.99 251.06 A 0.52 0.52 0 1 0 155.03 251.06 A 0.52 0.52 0 1 0 153.99 251.06 Z M 225.99 355.77 A 0.54 0.54 0 1 0 227.08 355.77 A 0.54 0.54 0 1 0 225.99 355.77 Z M 320.42 360.82 A 0.63 0.63 0 1 0 321.68 360.82 A 0.63 0.63 0 1 0 320.42 360.82 Z M 200.36 365.16 A 0.38 0.38 0 1 0 201.11 365.16 A 0.38 0.38 0 1 0 200.36 365.16 Z M 221.50 367.85 A 0.35 0.35 0 1 0 222.21 367.85 A 0.35 0.35 0 1 0 221.50 367.85 Z M 223.71 371.76 A 0.38 0.38 0 1 0 224.47 371.76 A 0.38 0.38 0 1 0 223.71 371.76 Z M 346.43 214.19 A 0.71 0.71 0 1 0 347.86 214.19 A 0.71 0.71 0 1 0 346.43 214.19 Z M 258.67 136.05 A 0.43 0.43 0 1 0 259.54 136.05 A 0.43 0.43 0 1 0 258.67 136.05 Z M 195.75 329.50 A 0.71 0.71 0 1 0 197.18 329.50 A 0.71 0.71 0 1 0 195.75 329.50 Z M 211.39 151.53 A 0.40 0.40 0 1 0 212.19 151.53 A 0.40 0.40 0 1 0 211.39 151.53 Z M 370.79 283.57 A 0.74 0.74 0 1 0 372.27 283.57 A 0.74 0.74 0 1 0 370.79 283.57 Z M 286.60 104.54 A 0.53 0.53 0 1 0 287.66 104.54 A 0.53 0.53 0 1 0 286.60 104.54 Z M 241.98 374.03 A 0.27 0.27 0 1 0 242.53 374.03 A 0.27 0.27 0 1 0 241.98 374.03 Z M 368.45 207.21 A 0.36 0.36 0 1 0 369.17 207.21 A 0.36 0.36 0 1 0 368.45 207.21 Z M 323.96 145.48 A 0.62 0.62 0 1 0 325.20 145.48 A 0.62 0.62 0 1 0 323.96 145.48 Z M 225.00 123.37 A 0.41 0.41 0 1 0 225.82 123.37 A 0.41 0.41 0 1 0 225.00 123.37 Z M 239.77 133.14 A 0.49 0.49 0 1 0 240.74 133.14 A 0.49 0.49 0 1 0 239.77 133.14 Z M 228.67 126.18 A 0.39 0.39 0 1 0 229.46 126.18 A 0.39 0.39 0 1 0 228.67 126.18 Z M 207.85 143.66 A 0.63 0.63 0 1 0 209.12 143.66 A 0.63 0.63 0 1 0 207.85 143.66 Z M 327.26 161.29 A 0.69 0.69 0 1 0 328.63 161.29 A 0.69 0.69 0 1 0 327.26 161.29 Z M 359.49 250.45 A 0.56 0.56 0 1 0 360.62 250.45 A 0.56 0.56 0 1 0 359.49 250.45 Z M 330.48 339.19 A 0.50 0.50 0 1 0 331.48 339.19 A 0.50 0.50 0 1 0 330.48 339.19 Z M 255.18 388.62 A 0.61 0.61 0 1 0 256.41 388.62 A 0.61 0.61 0 1 0 255.18 388.62 Z M 281.08 366.62 A 0.58 0.58 0 1 0 282.24 366.62 A 0.58 0.58 0 1 0 281.08 366.62 Z M 365.76 254.08 A 0.69 0.69 0 1 0 367.14 254.08 A 0.69 0.69 0 1 0 365.76 254.08 Z M 184.00 321.82 A 0.43 0.43 0 1 0 184.87 321.82 A 0.43 0.43 0 1 0 184.00 321.82 Z M 156.73 287.12 A 0.27 0.27 0 1 0 157.27 287.12 A 0.27 0.27 0 1 0 156.73 287.12 Z M 344.73 241.68 A 0.43 0.43 0 1 0 345.60 241.68 A 0.43 0.43 0 1 0 344.73 241.68 Z M 232.51 132.43 A 0.36 0.36 0 1 0 233.24 132.43 A 0.36 0.36 0 1 0 232.51 132.43 Z M 364.07 246.74 A 0.38 0.38 0 1 0 364.83 246.74 A 0.38 0.38 0 1 0 364.07 246.74 Z M 167.83 308.94 A 0.51 0.51 0 1 0 168.85 308.94 A 0.51 0.51 0 1 0 167.83 308.94 Z M 282.24 105.45 A 0.46 0.46 0 1 0 283.16 105.45 A 0.46 0.46 0 1 0 282.24 105.45 Z M 231.89 368.90 A 0.46 0.46 0 1 0 232.81 368.90 A 0.46 0.46 0 1 0 231.89 368.90 Z M 344.71 325.07 A 0.51 0.51 0 1 0 345.73 325.07 A 0.51 0.51 0 1 0 344.71 325.07 Z M 160.96 239.35 A 0.44 0.44 0 1 0 161.84 239.35 A 0.44 0.44 0 1 0 160.96 239.35 Z M 281.51 353.35 A 0.44 0.44 0 1 0 282.38 353.35 A 0.44 0.44 0 1 0 281.51 353.35 Z M 349.61 226.57 A 0.35 0.35 0 1 0 350.32 226.57 A 0.35 0.35 0 1 0 349.61 226.57 Z M 282.46 370.84 A 0.35 0.35 0 1 0 283.16 370.84 A 0.35 0.35 0 1 0 282.46 370.84 Z M 334.84 347.98 A 0.37 0.37 0 1 0 335.58 347.98 A 0.37 0.37 0 1 0 334.84 347.98 Z M 154.04 224.43 A 0.34 0.34 0 1 0 154.72 224.43 A 0.34 0.34 0 1 0 154.04 224.43 Z M 353.42 231.95 A 0.72 0.72 0 1 0 354.85 231.95 A 0.72 0.72 0 1 0 353.42 231.95 Z M 306.10 155.93 A 0.39 0.39 0 1 0 306.87 155.93 A 0.39 0.39 0 1 0 306.10 155.93 Z M 167.43 276.87 A 0.36 0.36 0 1 0 168.15 276.87 A 0.36 0.36 0 1 0 167.43 276.87 Z M 191.31 150.29 A 0.61 0.61 0 1 0 192.53 150.29 A 0.61 0.61 0 1 0 191.31 150.29 Z M 244.78 385.20 A 0.50 0.50 0 1 0 245.77 385.20 A 0.50 0.50 0 1 0 244.78 385.20 Z M 172.96 312.16 A 0.32 0.32 0 1 0 173.61 312.16 A 0.32 0.32 0 1 0 172.96 312.16 Z M 334.38 161.00 A 0.41 0.41 0 1 0 335.19 161.00 A 0.41 0.41 0 1 0 334.38 161.00 Z M 183.30 198.12 A 0.31 0.31 0 1 0 183.91 198.12 A 0.31 0.31 0 1 0 183.30 198.12 Z M 263.59 100.15 A 0.67 0.67 0 1 0 264.92 100.15 A 0.67 0.67 0 1 0 263.59 100.15 Z M 212.32 149.61 A 0.72 0.72 0 1 0 213.77 149.61 A 0.72 0.72 0 1 0 212.32 149.61 Z M 328.86 320.83 A 0.60 0.60 0 1 0 330.07 320.83 A 0.60 0.60 0 1 0 328.86 320.83 Z M 327.57 139.22 A 0.44 0.44 0 1 0 328.44 139.22 A 0.44 0.44 0 1 0 327.57 139.22 Z M 353.59 222.22 A 0.62 0.62 0 1 0 354.84 222.22 A 0.62 0.62 0 1 0 353.59 222.22 Z M 295.07 132.73 A 0.54 0.54 0 1 0 296.14 132.73 A 0.54 0.54 0 1 0 295.07 132.73 Z M 154.40 285.87 A 0.49 0.49 0 1 0 155.37 285.87 A 0.49 0.49 0 1 0 154.40 285.87 Z M 172.90 249.36 A 0.38 0.38 0 1 0 173.66 249.36 A 0.38 0.38 0 1 0 172.90 249.36 Z M 212.76 157.30 A 0.68 0.68 0 1 0 214.12 157.30 A 0.68 0.68 0 1 0 212.76 157.30 Z M 264.06 129.37 A 0.34 0.34 0 1 0 264.74 129.37 A 0.34 0.34 0 1 0 264.06 129.37 Z M 185.48 308.01 A 0.59 0.59 0 1 0 186.66 308.01 A 0.59 0.59 0 1 0 185.48 308.01 Z M 169.55 323.54 A 0.50 0.50 0 1 0 170.55 323.54 A 0.50 0.50 0 1 0 169.55 323.54 Z M 286.43 133.24 A 0.66 0.66 0 1 0 287.76 133.24 A 0.66 0.66 0 1 0 286.43 133.24 Z M 346.07 283.77 A 0.41 0.41 0 1 0 346.90 283.77 A 0.41 0.41 0 1 0 346.07 283.77 Z M 182.06 278.97 A 0.47 0.47 0 1 0 183.00 278.97 A 0.47 0.47 0 1 0 182.06 278.97 Z M 160.69 204.86 A 0.42 0.42 0 1 0 161.54 204.86 A 0.42 0.42 0 1 0 160.69 204.86 Z M 304.39 133.26 A 0.55 0.55 0 1 0 305.48 133.26 A 0.55 0.55 0 1 0 304.39 133.26 Z M 162.54 245.02 A 0.33 0.33 0 1 0 163.21 245.02 A 0.33 0.33 0 1 0 162.54 245.02 Z M 168.82 192.34 A 0.41 0.41 0 1 0 169.65 192.34 A 0.41 0.41 0 1 0 168.82 192.34 Z M 196.19 161.20 A 0.44 0.44 0 1 0 197.08 161.20 A 0.44 0.44 0 1 0 196.19 161.20 Z M 194.31 147.93 A 0.39 0.39 0 1 0 195.09 147.93 A 0.39 0.39 0 1 0 194.31 147.93 Z M 345.53 280.36 A 0.62 0.62 0 1 0 346.76 280.36 A 0.62 0.62 0 1 0 345.53 280.36 Z M 292.66 365.52 A 0.60 0.60 0 1 0 293.86 365.52 A 0.60 0.60 0 1 0 292.66 365.52 Z M 231.42 363.95 A 0.29 0.29 0 1 0 232.01 363.95 A 0.29 0.29 0 1 0 231.42 363.95 Z M 165.12 186.38 A 0.31 0.31 0 1 0 165.75 186.38 A 0.31 0.31 0 1 0 165.12 186.38 Z M 304.90 343.50 A 0.46 0.46 0 1 0 305.83 343.50 A 0.46 0.46 0 1 0 304.90 343.50 Z M 219.22 377.06 A 0.32 0.32 0 1 0 219.87 377.06 A 0.32 0.32 0 1 0 219.22 377.06 Z M 326.21 152.84 A 0.35 0.35 0 1 0 326.92 152.84 A 0.35 0.35 0 1 0 326.21 152.84 Z M 185.36 212.23 A 0.45 0.45 0 1 0 186.26 212.23 A 0.45 0.45 0 1 0 185.36 212.23 Z M 303.52 378.12 A 0.67 0.67 0 1 0 304.86 378.12 A 0.67 0.67 0 1 0 303.52 378.12 Z"/>
</svg>
