<?xml version="1.0" encoding="UTF-8" standalone="no"?>
<svg
   width="24"
   height="24"
   viewBox="0 0 24 24"
   version="1.1"
   xmlns="http://www.w3.org/2000/svg"
   xmlns:svg="http://www.w3.org/2000/svg">
  <path
     style="fill:#44739e"
     d="m 15.931213,9.0026931 c -0.0881,-0.0063 -0.163301,1.86e-4 -0.265078,0.002 -0.305331,0.0056 -0.610918,0.04347 -0.913271,0.08548 -2.21172,0.307277 -4.377598,0.88869 -6.5501092,1.4047589 -1.642049,0.39006 -3.293546,0.757817 -4.8991,1.27807 -0.386468,0.125229 -0.787823,0.218013 -1.13561,0.442644 -0.05723,0.03672 -0.140722,0.09255 -0.158233,0.176549 -0.0032,0.02496 0.0026,0.05478 0.01069,0.07683 0.0097,0.02632 0.03122,0.05471 0.06055,0.08141 0.04871,0.04434 0.109937,0.08017 0.175531,0.115494 0.133606,0.07196 0.273386,0.134364 0.415678,0.194865 0.305126,0.129737 0.61539,0.249134 0.927517,0.363782 0.404514,0.148583 0.812407,0.28965 1.219559,0.435012 0.337307,0.120428 0.672196,0.242963 1.011467,0.346992 0.201655,0.06183 0.40551,0.117252 0.610543,0.165356 0.193991,0.04551 0.389821,0.08458 0.58663,0.120073 0.174721,0.03151 0.348621,0.05994 0.523032,0.07835 0.226306,0.02392 0.455115,0.03086 0.683299,0.02442 0.167583,-0.0047 0.334807,-0.01633 0.502681,-0.03256 0.241143,-0.02332 0.481889,-0.05563 0.720949,-0.09565 0.332004,-0.05559 0.6618062,-0.126801 0.9916242,-0.203005 0.480763,-0.111079 0.959711,-0.232051 1.437321,-0.358186 0.685154,-0.180945 1.367705,-0.37287 2.04888,-0.570349 0.841394,-0.243928 1.680556,-0.497047 2.519508,-0.750967 l -0.221831,-0.06004 0.244218,-0.08649 0.257445,0.06258 c 1.010645,-0.306373 2.019707,-0.615481 3.011502,-0.972799 0.430615,-0.15514 0.859424,-0.319769 1.292317,-0.475206 0.185819,-0.06672 0.369293,-0.130465 0.541858,-0.213181 0.10658,-0.05109 0.209605,-0.109655 0.308323,-0.175022 0.03467,-0.02295 0.06608,-0.03757 0.08599,-0.06818 0.0062,-0.0095 0.0073,-0.02133 0.0086,-0.03256 2.01e-4,-0.002 -7.55e-4,-0.0045 -10e-4,-0.0066 -0.0059,-0.02393 -0.01388,-0.04696 -0.03002,-0.06462 C 21.831588,10.159297 21.609169,10.109447 21.423536,10.05637 20.489712,9.7893651 19.613993,9.5976541 18.69797,9.4219141 17.78181,9.2461471 16.861686,9.0691881 15.931193,9.0026741 Z m 6.068797,1.5782539 c -0.0082,0.0057 -0.01698,0.01204 -0.02493,0.0173 -0.104762,0.06936 -0.21357,0.131002 -0.326642,0.185198 -0.183034,0.08774 -0.372726,0.153403 -0.557628,0.219796 -0.430728,0.15466 -0.859139,0.319324 -1.291806,0.475206 -0.952565,0.34318 -1.918981,0.64035 -2.885326,0.933622 l -0.02798,1.526358 c 1.568337,-0.520167 3.139922,-1.046718 4.638601,-1.740048 0.06782,-0.03138 0.131775,-0.07016 0.195373,-0.109389 0.162614,-0.100319 0.259386,-0.22161 0.26457,-0.406011 0.0016,-0.06007 0.0046,-0.120025 0.0056,-0.180111 0.0048,-0.260977 0.0052,-0.522508 0.0051,-0.78353 0,-0.04599 0.0032,-0.09219 0.0051,-0.138389 z m -5.354462,1.913544 c -0.88747,0.268853 -1.7756,0.536431 -2.666547,0.794724 -0.681948,0.197703 -1.365663,0.389991 -2.052442,0.571366 -0.478742,0.126434 -0.959135,0.247661 -1.441899,0.359203 -0.331193,0.07652 -0.6644352,0.149149 -1.0012912,0.20555 -0.242556,0.04061 -0.486355,0.07249 -0.731126,0.09616 -0.170401,0.01648 -0.341784,0.02923 -0.513873,0.03409 -0.234332,0.0066 -0.469738,-0.0012 -0.703651,-0.02595 -0.180269,-0.01903 -0.358351,-0.04807 -0.534734,-0.07988 -0.198679,-0.03583 -0.397387,-0.07529 -0.594771,-0.1216 -0.20862,-0.04895 -0.41492,-0.105617 -0.619701,-0.168408 -0.344529,-0.105642 -0.682023,-0.228865 -1.01859,-0.349028 -0.406255,-0.145043 -0.814283,-0.286792 -1.220577,-0.436029 -0.313501,-0.115153 -0.626074,-0.234618 -0.93464,-0.365817 -0.143903,-0.06119 -0.28839,-0.125294 -0.428906,-0.200971 -0.06037,-0.03251 -0.122503,-0.071 -0.180619,-0.119055 -0.0026,0.358462 -0.0028,0.682427 -10e-4,1.092872 4.43e-4,0.331291 0.0032,0.337154 0.120582,0.434503 0.08436,0.06995 0.198316,0.138086 0.305781,0.192321 1.223717,0.617582 2.523093,1.082669 3.828614,1.50041 0.27169,0.08694 0.550048,0.155081 0.830338,0.208093 0.24631,0.04659 0.495611,0.08187 0.74588,0.09616 0.300834,0.01718 0.603037,0.0086 0.903604,-0.01272 0.181637,-0.0129 0.361934,-0.04167 0.541857,-0.0697 0.15847,-0.02469 0.317129,-0.04944 0.473171,-0.08649 2.2759752,-0.540419 4.5146132,-1.235755 6.7347992,-1.972563 0.04353,-0.01445 0.08721,-0.02881 0.130758,-0.04325 z M 4.2713658,14.110395 a 0.26334868,0.17268767 82.01888 0 1 0.185198,0.237603 0.26334868,0.17268767 82.01888 0 1 -0.134319,0.28492 0.26334868,0.17268767 82.01888 0 1 -0.207585,-0.237094 0.26334868,0.17268767 82.01888 0 1 0.134319,-0.28492 0.26334868,0.17268767 82.01888 0 1 0.02239,-5.21e-4 z"
     />
</svg>
