<?xml version="1.0" encoding="UTF-8"?>
<svg width="24px" fill="#44739e" height="24px" viewBox="0 0 24 24" version="1.1" xmlns="http://www.w3.org/2000/svg" xmlns:xlink="http://www.w3.org/1999/xlink">
            <path d="m 14.42,6.348 c -2.369,0 -4.3,2.473 -4.3,5.512 0,3.039 1.928,5.511 4.3,5.511 2.372,0 4.3,-2.472 4.3,-5.511 0,-3.039 -1.931,-5.512 -4.3,-5.512 z M 13.915,2.462 C 9.5,2.462 5.909,6.741 5.909,12 c 0,5.259 3.592,9.537 8.006,9.537 4.414,0 8.006,-4.278 8.006,-9.537 0,-5.259 -3.591,-9.538 -8.006,-9.538 z m 0.505,15.619 c -2.761,0 -5.007,-2.791 -5.007,-6.221 0,-3.43 2.246,-6.222 5.007,-6.222 2.761,0 5.007,2.791 5.007,6.222 0,3.431 -2.246,6.221 -5.007,6.221 z M 5.341,12 c 0,-4.692 2.727,-8.646 6.411,-9.779 A 7.985,7.985 0 0 0 10.945,2.179 c -4.9,0 -8.866,4.4 -8.866,9.821 0,5.285 3.768,9.593 8.49,9.811 l -0.031,0.01 H 11.9 C 8.143,20.751 5.341,16.755 5.341,12 Z"/>

</svg>