<?xml version="1.0" encoding="UTF-8"?>
<svg width="24px" fill="#44739e" height="24px" viewBox="0 0 24 24" version="1.1" xmlns="http://www.w3.org/2000/svg" xmlns:xlink="http://www.w3.org/1999/xlink">
            <path d="m 7.392,10.018 a 1.965,1.965 0 1 0 1.964,1.965 1.967,1.967 0 0 0 -1.964,-1.965 z m 1.244,1.965 a 1.246,1.246 0 1 1 -1.248,-1.261 1.255,1.255 0 0 1 1.248,1.261 z m 4.198,0.278 -2.369,-2.209 v 3.744 h 0.701 v -2.091 l 2.369,2.205 v -3.753 h -0.701 z m 8.746,-0.244 a 2.6,2.6 0 0 0 -0.8,-0.372 c -0.711,-0.228 -0.711,-0.4 -0.711,-0.493 0,-0.2 0.224,-0.411 0.6,-0.411 a 1.123,1.123 0 0 1 0.656,0.228 l 0.051,0.037 0.566,-0.382 -0.064,-0.072 a 1.656,1.656 0 0 0 -1.209,-0.528 1.433,1.433 0 0 0 -0.942,0.328 1.079,1.079 0 0 0 -0.382,0.806 0.989,0.989 0 0 0 0.42,0.806 v 0 a 2.588,2.588 0 0 0 0.8,0.373 c 0.711,0.228 0.711,0.4 0.711,0.493 0,0.2 -0.225,0.411 -0.6,0.411 a 1.121,1.121 0 0 1 -0.657,-0.228 l -0.051,-0.037 -0.565,0.382 0.063,0.072 a 1.657,1.657 0 0 0 1.21,0.528 1.425,1.425 0 0 0 0.941,-0.329 1.07,1.07 0 0 0 0.382,-0.8 0.981,0.981 0 0 0 -0.419,-0.812 z M 3.434,11.641 c -0.711,-0.227 -0.711,-0.4 -0.711,-0.492 0,-0.2 0.225,-0.411 0.6,-0.411 a 1.135,1.135 0 0 1 0.658,0.227 l 0.05,0.038 0.565,-0.382 -0.063,-0.073 A 1.659,1.659 0 0 0 3.32,10.018 1.43,1.43 0 0 0 2.379,10.346 1.074,1.074 0 0 0 2,11.152 a 0.978,0.978 0 0 0 0.42,0.805 2.623,2.623 0 0 0 0.8,0.373 c 0.711,0.224 0.711,0.4 0.711,0.493 0,0.2 -0.224,0.411 -0.6,0.411 A 1.123,1.123 0 0 1 2.675,13.006 l -0.051,-0.038 -0.566,0.383 0.064,0.072 a 1.66,1.66 0 0 0 1.209,0.528 1.428,1.428 0 0 0 0.942,-0.329 1.077,1.077 0 0 0 0.382,-0.8 0.979,0.979 0 0 0 -0.417,-0.8 2.611,2.611 0 0 0 -0.804,-0.381 z M 16.615,10.033 A 1.965,1.965 0 1 0 18.579,12 1.967,1.967 0 0 0 16.615,10.033 Z m 0,3.226 A 1.255,1.255 0 0 1 15.367,12 v 0 a 1.245,1.245 0 1 1 1.245,1.261 z"/>

</svg>