<?xml version="1.0" encoding="UTF-8"?>
<svg width="24px" fill="#44739e" height="24px" viewBox="0 0 24 24" version="1.1" xmlns="http://www.w3.org/2000/svg" xmlns:xlink="http://www.w3.org/1999/xlink">
            <path d="m 21.411679,8.931369 -1.934,-0.736 c -0.3,-0.1 -0.217,-0.174 -0.964,0.056 0,0 -15.0350004,4.549 -15.1120004,4.563 -1.819,0.611 -0.539,2.436 -0.006,3.494 a 0.953,0.953 0 0 0 1.175,0.6 v 0.009 l 0.033,-0.011 v 0 c 0.371,0.068 16.3460004,-5.276 16.7270004,-5.337 a 1.749,1.749 0 0 0 1.047,-1.646 c -0.048,-0.532 -0.52,-0.814 -0.966,-0.992 z m -7.023,2.392 0.026,0.811 a 0.209,0.209 0 0 0 -0.1,0 l -0.025,-0.781 z m 0.041,1.09 a 0.289,0.289 0 0 0 -0.1,-0.014 v -0.146 a 0.392,0.392 0 0 1 0.078,0 l 0.008,0.006 0.013,-0.014 z m -0.23,0.085 a 0.281,0.281 0 0 0 0.078,0.011 c 0.012,0 0.012,0 0.022,0 v 0.134 l -0.01,0.006 a 0.145,0.145 0 0 1 -0.089,0 z m 0.1,-0.1 c -0.078,-0.005 -0.089,-0.03 -0.089,-0.044 0,-0.031 0.035,-0.071 0.085,-0.091 z m 0.037,0.125 c 0.04,0.01 0.055,0.026 0.055,0.037 a 0.1,0.1 0 0 1 -0.051,0.07 z m -0.07,-1.153 0.025,0.779 a 0.338,0.338 0 0 0 -0.1,0.064 l -0.026,-0.812 z m -0.4,0.125 0.03,0.924 a 0.179,0.179 0 0 0 -0.1,-0.065 l -0.027,-0.828 z m -0.4,0.125 0.027,0.837 a 0.416,0.416 0 0 0 -0.1,0.152 l -0.031,-0.958 z m -0.145,-0.838 0.018,-0.043 0.053,0.016 -0.011,0.042 z m 0.177,1.824 0.007,0.225 a 0.149,0.149 0 0 1 -0.047,-0.1 0.259,0.259 0 0 1 0.039,-0.129 z m 0.032,-0.059 a 0.292,0.292 0 0 1 0.1,-0.074 l 0.013,0.4 a 0.146,0.146 0 0 1 -0.1,-0.011 z m 0.13,-0.091 a 0.146,0.146 0 0 1 0.1,0.011 l 0.01,0.317 a 0.276,0.276 0 0 1 -0.1,0.075 z m 0.134,0.021 a 0.157,0.157 0 0 1 0.056,0.123 0.288,0.288 0 0 1 -0.047,0.135 z m -0.064,-0.94 0.026,0.814 c -0.034,0 -0.062,-0.023 -0.1,-0.012 l -0.025,-0.771 z m -0.132,0.041 0.025,0.781 a 0.392,0.392 0 0 0 -0.1,0.073 l -0.027,-0.823 z m -0.126,-0.81 -0.06,-0.016 0.017,-0.048 0.053,0.018 z m -0.086,-0.123 0.053,0.017 -0.01,0.039 -0.06,-0.016 z m -0.085,0.034 0.053,0.016 -0.011,0.044 -0.06,-0.016 z m -0.231,1.066 0.026,0.8 -0.043,0.013 0.006,0.344 -0.052,-0.034 -0.036,-1.1 z m -0.133,0.042 0.035,1.061 -0.1,-0.068 -0.031,-0.962 z m -0.131,0.042 0.03,0.928 -0.1,-0.068 -0.027,-0.829 z m -0.758,0.239 0.1,-0.031 0.026,0.782 a 0.407,0.407 0 0 0 -0.1,0.075 z m 0.13,-0.045 0.1,-0.032 0.026,0.8 a 0.3,0.3 0 0 0 -0.1,0.011 z m -0.126,1.267 a 0.161,0.161 0 0 1 -0.045,-0.1 0.28,0.28 0 0 1 0.038,-0.123 z m 0.025,-0.281 a 0.265,0.265 0 0 1 0.1,-0.075 l 0.013,0.4 a 0.145,0.145 0 0 1 -0.1,-0.011 z m 0.13,-0.091 a 0.151,0.151 0 0 1 0.1,0.011 l 0.011,0.326 a 0.26,0.26 0 0 1 -0.1,0.075 z m 0.134,0.021 a 0.166,0.166 0 0 1 0.058,0.126 0.293,0.293 0 0 1 -0.049,0.155 z m -0.005,-0.146 -0.026,-0.812 0.1,-0.031 0.03,0.9 a 0.2,0.2 0 0 0 -0.104,-0.057 z m -0.076,-1.833 v -0.01 h 0.022 c 0,0.011 0.143,0.119 0.117,0.132 -0.026,0.013 -0.12,-0.1 -0.141,-0.113 z m -0.084,0.035 v -0.01 h 0.022 c 0,0.011 0.143,0.12 0.117,0.133 -0.026,0.013 -0.119,-0.1 -0.141,-0.114 z m -0.169,0.058 v 0 -0.007 c 0.256,-0.029 0.1,0.179 0.062,0.137 0.058,-0.128 0.019,-0.072 -0.076,-0.109 a 0.018,0.018 0 0 1 0.014,-0.021 z m 0.006,1.022 0.027,0.841 a 0.425,0.425 0 0 0 -0.1,0.153 l -0.031,-0.963 z m -0.4,0.125 0.026,0.8 a 0.171,0.171 0 0 0 -0.087,0 c 0,0 -0.007,0.006 -0.012,0.008 l -0.025,-0.778 z m -0.2,1.173 a 0.267,0.267 0 0 0 0.1,0.015 l 0.005,0.152 c -0.024,0 -0.053,0 -0.063,0 l -0.008,-0.006 -0.018,0.032 z m 0.047,-0.154 a 0.1,0.1 0 0 1 0.045,-0.069 v 0.107 c -0.022,-0.011 -0.036,-0.027 -0.036,-0.034 z m 0.087,0.175 c 0.091,0 0.1,0.028 0.1,0.045 v 0 a 0.124,0.124 0 0 1 -0.091,0.1 h -0.006 z m 0.026,-0.126 c -0.017,0 -0.018,0 -0.03,0 v -0.135 c 0.005,0 0.007,-0.006 0.013,-0.008 a 0.142,0.142 0 0 1 0.086,0 l 0.005,0.158 a 0.321,0.321 0 0 0 -0.065,-0.015 z m -0.1,-1.026 0.025,0.79 a 0.29,0.29 0 0 0 -0.1,0.065 l -0.027,-0.824 z m -0.536,-0.782 0.053,0.017 -0.011,0.042 -0.06,-0.015 z m 0.1,0.08 -0.011,0.042 -0.06,-0.015 0.018,-0.044 z m -0.091,0.03 -0.011,0.042 -0.06,-0.015 0.018,-0.044 z m -0.091,-0.076 0.053,0.016 -0.011,0.043 -0.06,-0.015 z m -7.4260004,4.559 a 1.124,1.124 0 0 1 0.03,-0.5 l 0.02,0.619 a 1.186,1.186 0 0 1 -0.05,-0.119 z m 0.087,0.212 c 0.007,-0.18 -0.085,-0.865 0.067,-1.007 l 0.04,1.257 a 1.279,1.279 0 0 1 -0.107,-0.25 z m 0.143,0.28 -0.044,-1.339 a 1.59,1.59 0 0 1 0.1,-0.151 l 0.051,1.581 a 0.73,0.73 0 0 1 -0.107,-0.091 z m 0.136,0.12 -0.053,-1.642 c 0.03,-0.037 0.063,-0.073 0.1,-0.108 l 0.06,1.845 a 0.722,0.722 0 0 1 -0.107,-0.095 z m 0.138,0.109 -0.062,-1.9 c 0.031,-0.031 0.064,-0.06 0.1,-0.089 l 0.058,2.01 a 0.769,0.769 0 0 1 -0.1,-0.021 z m 0.134,0.028 -0.067,-2.044 c 0.032,-0.027 0.063,-0.055 0.1,-0.08 l 0.07,2.145 a 0.769,0.769 0 0 1 -0.103,-0.021 z m 0.134,0.029 -0.072,-2.18 c 0.031,-0.021 0.066,-0.037 0.1,-0.057 l 0.074,2.258 c -0.039,-0.001 -0.066,-0.017 -0.102,-0.021 z m 0.134,0.024 -0.074,-2.28 c 0.033,-0.019 0.064,-0.04 0.1,-0.057 l 0.075,2.322 c -0.033,0.002 -0.071,0.015 -0.101,0.015 z m 0.133,-0.02 -0.076,-2.335 c 0.032,-0.015 0.066,-0.024 0.1,-0.038 l 0.075,2.361 c -0.033,0 -0.067,0.009 -0.099,0.012 z m 0.132,-0.021 -0.071,-2.364 c 0.032,-0.013 0.064,-0.027 0.1,-0.038 l 0.078,2.387 c -0.042,0.007 -0.073,0.01 -0.107,0.015 z m 0.134,-0.021 -0.078,-2.394 0.1,-0.031 0.079,2.41 c -0.038,0.01 -0.066,0.007 -0.101,0.015 z m 0.132,-0.024 -0.079,-2.412 0.1,-0.031 0.078,2.41 z m 0.131,-0.043 -0.078,-2.41 0.1,-0.031 0.079,2.409 z m 0.132,-0.043 -0.079,-2.409 0.1,-0.031 0.079,2.407 z m 0.131,-0.043 -0.078,-2.408 0.1,-0.031 0.079,2.407 z m 0.133,-0.043 -0.079,-2.407 0.1,-0.031 0.078,2.405 z m 0.131,-0.043 -0.078,-2.4 0.1,-0.031 0.083,2.4 z m 0.132,-0.043 -0.078,-2.4 0.1,-0.031 0.078,2.4 z m 0.132,-0.043 -0.078,-2.4 0.1,-0.032 0.078,2.4 z m 0.132,-0.043 -0.077,-2.402 0.1,-0.031 0.078,2.4 z m 0.132,-0.043 -0.078,-2.4 0.1,-0.031 0.078,2.4 z m 0.132,-0.044 -0.078,-2.4 0.1,-0.031 0.078,2.4 z m 0.132,-0.042 -0.078,-2.4 0.1,-0.031 0.077,2.4 z m 0.132,-0.044 -0.078,-2.395 0.1,-0.031 0.078,2.397 z m 0.132,-0.042 -0.078,-2.4 0.1,-0.031 0.077,2.393 z m 0.131,-0.043 -0.077,-2.393 0.1,-0.031 0.078,2.392 z m 0.133,-0.043 -0.078,-2.392 0.1,-0.031 0.077,2.39 z m 0.131,-0.043 -0.076,-2.391 0.1,-0.031 0.078,2.39 z m 0.133,-0.043 -0.079,-2.39 0.1,-0.031 0.077,2.388 z m 0.131,-0.043 -0.077,-2.388 0.1,-0.031 0.077,2.387 z m 0.133,-0.044 -0.078,-2.386 0.1,-0.031 0.077,2.389 z m 0.131,-0.042 -0.074,-2.386 0.1,-0.032 0.078,2.384 z m 0.133,-0.044 -0.077,-2.383 0.1,-0.031 0.077,2.382 z m 0.131,-0.042 -0.077,-2.383 0.1,-0.031 0.078,2.381 z m 0.133,-0.044 -0.078,-2.381 0.1,-0.031 0.077,2.38 z m 0.131,-0.042 -0.077,-2.38 0.1,-0.031 0.075,2.378 z m 0.132,-0.044 -0.077,-2.378 0.1,-0.031 0.077,2.377 z m 0.132,-0.042 -0.076,-2.378 0.1,-0.031 0.076,2.381 z m 0.134,-0.044 -0.077,-2.376 0.1,-0.031 0.077,2.375 z m 0.132,-0.042 -0.077,-2.375 0.1,-0.031 0.078,2.373 z m 0.131,-0.043 -0.077,-2.374 0.1,-0.031 0.077,2.373 z m 0.133,-0.043 -0.077,-2.372 0.1,-0.032 0.077,2.371 z m 0.131,-0.043 -0.077,-2.371 0.1,-0.031 0.077,2.37 z m 0.133,-0.044 -0.078,-2.369 0.1,-0.031 0.077,2.368 z m 0.131,-0.042 -0.077,-2.368 0.1,-0.032 0.077,2.367 z m 0.133,-0.044 -0.077,-2.366 0.1,-0.031 0.077,2.365 z m 0.131,-0.042 -0.077,-2.366 0.1,-0.031 0.077,2.364 z m 0.133,-0.044 -0.078,-2.364 0.1,-0.031 0.076,2.363 z m 0.131,-0.042 -0.077,-2.363 0.1,-0.031 0.077,2.361 z m 0.133,-0.044 -0.078,-2.361 0.1,-0.031 0.076,2.36 z m 0.1310004,-0.042 -0.077,-2.361 0.1,-0.031 0.077,2.359 z m 0.133,-0.044 -0.077,-2.359 0.1,-0.031 0.076,2.358 z m 0.131,-0.042 -0.077,-2.358 0.1,-0.031 0.077,2.356 z m 0.132,-0.043 -0.079,-2.357 0.1,-0.031 0.076,2.355 z m 0.132,-0.043 -0.077,-2.355 0.1,-0.032 0.077,2.354 z m 0.132,-0.043 -0.078,-2.354 0.1,-0.031 0.076,2.352 z m 0.132,-0.044 -0.075,-2.352 0.1,-0.031 0.077,2.351 z m 0.132,-0.042 -0.077,-2.351 0.1,-0.032 0.076,2.35 z m 0.132,-0.044 -0.076,-2.349 0.1,-0.031 0.077,2.348 z m 0.131,-0.042 -0.076,-2.349 0.1,-0.031 0.076,2.347 z m 0.133,-0.044 -0.076,-2.347 0.1,-0.031 0.029,0.889 a 0.254,0.254 0 0 0 -0.031,0.084 c 0,0.028 0.023,0.041 0.036,0.062 l 0.009,0.284 -0.023,0.027 0.008,0.006 0.016,0.009 0.033,0.985 z m 0.131,-0.042 -0.034,-0.958 a 0.259,0.259 0 0 0 0.1,0 l 0.03,0.926 z m 0.133,-0.044 -0.03,-0.916 h 0.006 a 0.339,0.339 0 0 0 0.092,-0.062 l 0.03,0.946 z m 0.131,-0.043 -0.031,-0.957 c 0.007,-0.006 0.017,-0.008 0.023,-0.015 a 0.247,0.247 0 0 0 0.058,-0.157 0.143,0.143 0 0 0 -0.067,-0.116 c -0.006,0 -0.017,0 -0.023,0 l -0.006,-0.166 0.076,-0.086 -0.009,-0.012 a 0.336,0.336 0 0 0 -0.072,-0.027 l -0.026,-0.81 0.1,-0.031 0.076,2.342 z m 0.133,-0.043 -0.076,-2.342 0.1,-0.031 0.034,1.051 c 0,0.021 -0.019,0.039 -0.018,0.06 a 0.277,0.277 0 0 0 0.024,0.1 l 0.036,1.132 z m 0.131,-0.043 -0.034,-1.064 a 0.213,0.213 0 0 0 0.1,0.073 l 0.031,0.959 z m 0.133,-0.043 -0.031,-0.934 a 0.25,0.25 0 0 0 0.1,-0.009 l 0.029,0.911 z m 0.131,-0.043 -0.029,-0.912 a 0.4,0.4 0 0 0 0.1,-0.075 l 0.031,0.955 z m 0.132,-0.042 -0.032,-0.97 a 0.415,0.415 0 0 0 0.1,-0.131 l 0.034,1.068 z m 0.132,-0.044 -0.038,-1.151 c 0.006,-0.03 0.028,-0.057 0.027,-0.089 a 0.283,0.283 0 0 0 -0.035,-0.132 l -0.031,-0.958 0.1,-0.031 0.076,2.334 z m 0.132,-0.042 -0.076,-2.334 0.1,-0.032 0.026,0.8 -0.016,-0.011 0.013,0.623 0.023,-0.007 0.03,0.932 z m 0.132,-0.044 -0.03,-0.932 0.053,-0.018 -0.007,-0.344 0.043,0.028 0.04,1.234 z m 0.132,-0.042 -0.039,-1.2 0.1,0.068 0.036,1.1 z m 0.132,-0.044 -0.035,-1.066 0.1,0.068 0.032,0.966 z m 0.132,-0.042 -0.031,-0.933 0.025,0.016 -0.01,-0.62 -0.034,0.011 -0.026,-0.8 0.1,-0.031 0.073,2.32 z m 0.132,-0.044 -0.076,-2.327 0.1,-0.031 0.034,1.04 c 0,0.021 -0.02,0.039 -0.02,0.06 0,0.021 0.019,0.031 0.023,0.051 l 0.039,1.175 z m 0.131,-0.042 -0.035,-1.089 a 0.174,0.174 0 0 0 0.1,0.083 l 0.032,0.973 z m 0.133,-0.044 -0.031,-0.958 a 0.208,0.208 0 0 0 0.1,0.011 l 0.03,0.915 z m 0.131,-0.043 -0.029,-0.917 a 0.423,0.423 0 0 0 0.1,-0.074 l 0.031,0.959 z m 0.133,-0.043 -0.032,-0.974 a 0.4,0.4 0 0 0 0.095,-0.138 l 0.036,1.08 z m 0.131,-0.043 -0.037,-1.16 c 0.006,-0.028 0.027,-0.052 0.026,-0.08 -10e-4,-0.028 -0.023,-0.043 -0.031,-0.068 l -0.033,-1.012 0.1,-0.032 0.075,2.32 z m 0.132,-0.042 -0.075,-2.32 0.1,-0.031 0.027,0.823 h -0.006 a 0.245,0.245 0 0 0 -0.062,0.152 0.089,0.089 0 0 0 0.063,0.1 h 0.013 l 0.006,0.176 -0.072,0.08 0.008,0.006 a 0.3,0.3 0 0 0 0.068,0.025 l 0.03,0.945 z m 0.132,-0.044 -0.03,-0.935 a 0.194,0.194 0 0 0 0.086,0 c 0.005,0 0.008,-0.008 0.013,-0.01 l 0.03,0.915 z m 0.132,-0.042 -0.03,-0.926 a 0.306,0.306 0 0 0 0.1,-0.065 l 0.031,0.958 z m 0.132,-0.044 -0.033,-1.017 a 0.252,0.252 0 0 0 0.035,-0.085 c 0,-0.032 -0.023,-0.05 -0.04,-0.072 l -0.008,-0.246 0.04,-0.044 h -0.008 l -0.034,-0.018 -0.027,-0.828 0.1,-0.031 0.075,2.314 z m 0.132,-0.042 -0.075,-2.315 0.1,-0.031 0.075,2.313 z m 0.132,-0.044 -0.075,-2.313 0.1,-0.031 0.075,2.312 z m 0.132,-0.042 -0.075,-2.312 0.1,-0.031 0.075,2.31 z m 0.132,-0.044 -0.075,-2.31 0.1,-0.031 0.078,2.307 z m 0.132,-0.043 -0.075,-2.309 0.1,-0.031 0.075,2.308 z m 0.132,-0.043 -0.075,-2.307 0.1,-0.032 0.075,2.307 z m 0.132,-0.043 -0.076,-2.305 0.1,-0.031 0.075,2.3 z m 0.132,-0.043 -0.075,-2.3 0.1,-0.031 0.075,2.3 z m 0.132,-0.043 -0.075,-2.3 0.1,-0.032 0.075,2.3 z m 0.132,-0.043 -0.075,-2.3 0.1,-0.031 0.075,2.3 z m 0.131,-0.043 -0.074,-2.3 0.1,-0.031 0.075,2.3 z m 0.132,-0.042 -0.075,-2.3 0.1,-0.032 0.075,2.3 z m 0.132,-0.044 -0.074,-2.3 0.1,-0.031 0.075,2.3 z m 0.131,-0.047 -0.075,-2.3 0.1,-0.031 0.075,2.3 z m 0.132,-0.043 -0.074,-2.3 0.1,-0.031 0.075,2.3 z m 0.132,-0.043 -0.079,-2.29 0.1,-0.031 0.075,2.293 z m 0.132,-0.043 -0.074,-2.293 0.1,-0.031 0.075,2.292 z m 0.132,-0.043 -0.075,-2.292 0.1,-0.031 0.074,2.291 z m 0.132,-0.043 -0.075,-2.285 0.1,-0.032 0.075,2.29 z m 0.132,-0.043 -0.075,-2.289 0.1,-0.031 0.074,2.288 z m 0.132,-0.043 -0.074,-2.288 0.1,-0.031 0.075,2.287 z m 0.132,-0.043 -0.071,-2.282 0.1,-0.032 0.074,2.286 z m 0.132,-0.043 -0.074,-2.285 0.1,-0.031 0.074,2.284 z m 0.132,-0.043 -0.075,-2.28 0.1,-0.031 0.074,2.283 z m 0.131,-0.042 -0.074,-2.283 0.1,-0.032 0.074,2.282 z m 0.133,-0.044 -0.075,-2.281 0.1,-0.031 0.074,2.28 z m 0.131,-0.043 -0.074,-2.28 0.1,-0.031 0.074,2.279 z m 0.133,-0.043 -0.075,-2.279 0.1,-0.031 0.074,2.278 z m 0.131,-0.043 -0.074,-2.277 0.1,-0.031 0.074,2.276 z m 0.132,-0.043 -0.074,-2.276 0.1,-0.031 0.074,2.275 z m 0.132,-0.043 -0.074,-2.269 0.1,-0.031 0.074,2.274 z m 0.132,-0.043 -0.073,-2.273 0.1,-0.032 0.074,2.273 z m 0.132,-0.043 -0.074,-2.272 0.1,-0.031 0.074,2.271 z m 0.132,-0.043 -0.073,-2.271 0.1,-0.031 0.074,2.27 z m 0.132,-0.043 -0.074,-2.269 0.1,-0.032 0.074,2.269 z m 0.132,-0.043 -0.073,-2.264 0.1,-0.031 0.074,2.267 z m 0.132,-0.043 -0.074,-2.267 0.1,-0.031 0.073,2.266 z m 0.132,-0.043 -0.073,-2.266 0.1,-0.031 0.074,2.265 z m 0.132,-0.043 -0.074,-2.26 0.1,-0.031 0.073,2.263 z m 0.131,-0.043 -0.073,-2.263 0.1,-0.031 0.074,2.262 z m 0.133,-0.043 -0.078,-2.258 0.1,-0.031 0.073,2.261 z m 0.131,-0.043 -0.073,-2.26 0.1,-0.031 0.074,2.259 z m 0.133,-0.043 -0.074,-2.253 0.1,-0.031 0.073,2.258 z m 0.131,-0.043 -0.073,-2.254 0.1,-0.031 0.074,2.257 z m 0.133,-0.043 -0.074,-2.256 0.1,-0.032 0.073,2.256 z m 0.131,-0.043 -0.073,-2.255 0.1,-0.031 0.074,2.254 z m 0.133,-0.043 -0.07,-2.25 0.1,-0.031 0.073,2.253 z m 0.131,-0.043 -0.073,-2.248 0.1,-0.031 0.072,2.251 z m 0.133,-0.043 -0.074,-2.247 0.1,-0.031 0.073,2.25 z m 0.131,-0.043 -0.073,-2.25 0.1,-0.031 0.073,2.249 z m 0.179,-0.058 -0.047,0.015 -0.073,-2.249 a 0.8,0.8 0 0 1 0.1,-0.027 l 0.073,2.234 c -0.018,0.01 -0.037,0.026 -0.053,0.033 z m 0.084,-0.044 -0.072,-2.222 0.1,-0.017 0.071,2.188 c -0.034,0.022 -0.067,0.041 -0.099,0.055 z m 0.131,-0.068 -0.071,-2.173 v 0 a 0.667,0.667 0 0 1 0.1,0.019 l 0.068,2.1 c -0.033,0.027 -0.063,0.037 -0.097,0.058 z m 0.131,-0.086 -0.067,-2.062 a 0.769,0.769 0 0 1 0.1,0.02 l 0.064,1.951 c -0.033,0.034 -0.064,0.069 -0.097,0.095 z m 0.129,-0.121 -0.062,-1.915 a 0.692,0.692 0 0 1 0.1,0.042 l 0.058,1.783 c -0.03,0.038 -0.064,0.063 -0.096,0.094 z m 0.13,-0.121 -0.056,-1.727 a 0.729,0.729 0 0 1 0.1,0.073 l 0.049,1.51 c -0.031,0.051 -0.057,0.105 -0.093,0.148 z m 0.127,-0.192 -0.047,-1.438 a 0.942,0.942 0 0 1 0.1,0.122 c -0.013,0.133 0.115,1.254 -0.053,1.32 z m 0.127,-0.2 -0.034,-1.063 a 1.273,1.273 0 0 1 0.031,1.071 z m 0.111,-0.691 a 0.665,0.665 0 0 1 0.027,0.24 c 0,0.02 -0.01,0.06 -0.014,0.08 z"/>

</svg>