<svg xmlns="http://www.w3.org/2000/svg" viewBox="0 0 24 24"><path fill="#44739e" d="M14.439 6.303c-2.388 0-4.334 2.493-4.334 5.556s1.943 5.555 4.334 5.555 4.335-2.492 4.335-5.555-1.947-5.556-4.335-5.556m-.509-3.917c-4.45 0-8.07 4.313-8.07 9.614s3.621 9.613 8.07 9.613S22 17.301 22 12s-3.62-9.614-8.07-9.614m.509 15.743c-2.783 0-5.047-2.813-5.047-6.27s2.264-6.272 5.047-6.272 5.047 2.814 5.047 6.272-2.264 6.27-5.047 6.27M5.288 12c0-4.729 2.749-8.715 6.462-9.857a8 8 0 0 0-.813-.042C5.998 2.101 2 6.536 2 12c0 5.327 3.798 9.669 8.558 9.889l-.032.01h1.373C8.112 20.821 5.288 16.793 5.288 12"/></svg>