<svg xmlns="http://www.w3.org/2000/svg" viewBox="0 0 24 24"><path fill="#44739e" d="M15.778 12.463h.002v.394h-.002v.749h.002v.944h.749v-.944h2.07v-.749h-2.07v-.394h2.07v-.749h-2.821Zm-6.793-.734v2.821h.749v-2.087h1.323v2.087h.749v-2.836H8.985Zm3.395 0v2.821h.749v-.006h1.324v.006h.747v-2.836h-2.82Zm2.073 2.071h-1.324v-1.337h1.324ZM5.59 11.729V13.8h-.009v.749h2.83V11.7H5.59ZM7.662 13.8H6.339v-1.353h1.323ZM2 9.58v2.894h2.072v1.327H2v.749h2.821v-2.825H2.749v-1.526h2.072V9.45H2Zm20 2.883v-.749h-2.821v2.836h.749v-.944H22v-.749h-2.072v-.394Z"/></svg>