<svg xmlns="http://www.w3.org/2000/svg" viewBox="0 0 24 24"><path fill="#44739e" d="M9.125 13.76c-.725 0-1.397-.216-1.845-.619a1.5 1.5 0 0 1-.502-1.143 1.54 1.54 0 0 1 .502-1.14c.416-.378 1.152-.618 1.845-.618.767 0 1.381.193 1.85.619a1.52 1.52 0 0 1 .495 1.139 1.6 1.6 0 0 1-.495 1.143c-.437.405-1.123.619-1.85.619v-.463c.385 0 .741-.133.99-.381.25-.248.363-.549.363-.92 0-.354-.124-.686-.362-.92-.246-.242-.612-.378-.99-.378s-.747.135-.993.378c-.237.235-.36.567-.36.92a1.3 1.3 0 0 0 .36.92c.246.245.61.38.992.38ZM3.83 10.24a3 3 0 0 0-1.2.24c-.347.155-.63.404-.63.818a.85.85 0 0 0 .23.582c.1.093.262.25.686.343.189.04.593.105.996.147s.793.08.953.123c.127.032.341.076.341.316s-.225.312-.264.328-.31.14-.795.14a3.4 3.4 0 0 1-.947-.163 1.15 1.15 0 0 1-.548-.367.63.63 0 0 1-.114-.347h-.44v1.232h.488v-.167a.07.07 0 0 1 .106-.06 4 4 0 0 0 .715.231c.257.054.423.093.742.093a3.2 3.2 0 0 0 .995-.14 1.7 1.7 0 0 0 .59-.292.81.81 0 0 0 .317-.649.9.9 0 0 0-.256-.637 1.1 1.1 0 0 0-.315-.216 2.3 2.3 0 0 0-.389-.135c-.253-.062-.823-.14-1.095-.167-.286-.03-.782-.071-.98-.132-.06-.019-.182-.077-.182-.219q0-.152.166-.256c.176-.11.53-.178.9-.178a2.6 2.6 0 0 1 1.042.203 1 1 0 0 1 .248.148.75.75 0 0 1 .245.409h.395v-1.072h-.44v.124c0 .04-.04.093-.12.05a3.4 3.4 0 0 0-1.44-.33m9.66.197 2.15 1.94-.022-1.306c-.002-.172-.034-.243-.22-.243h-.403v-.391h1.84v.39h-.395c-.189 0-.2.061-.203.244l.033 2.496h-.63l-2.477-2.21v1.568c.002.171.01.251.185.251h.44v.391h-1.803v-.39h.422c.158 0 .151-.151.151-.26v-1.831c0-.12-.016-.258-.264-.258h-.342v-.391Zm5.444 2.739a1 1 0 0 0 .109-.007.14.14 0 0 0 .085-.076.4.4 0 0 0 .008-.084v-.618c0-.02 0-.021-.026-.054s-1.127-1.28-1.177-1.336c-.062-.068-.172-.173-.339-.173h-.382v-.391h2.156v.39h-.26c-.06 0-.1.057-.048.12l.732.877q.01.015.022.003c.01-.008.744-.872.75-.88a.075.075 0 0 0-.065-.12h-.267v-.39H22v.391h-.395c-.143 0-.2.026-.309.148l-1.19 1.358a.1.1 0 0 0-.014.057v.618a.4.4 0 0 0 .008.084.13.13 0 0 0 .085.075 1 1 0 0 0 .108.007h.403v.392h-2.144v-.392Z"/></svg>