<?xml version="1.0" encoding="UTF-8"?>
<!-- Created with Inkscape (http://www.inkscape.org/) -->
<svg version="1.1" viewBox="0 0 24 24" width="24" height="24" xmlns="http://www.w3.org/2000/svg">
 <path d="m5.1472 15.301c-0.81176-0.14248-1.4214-0.71897-1.5864-1.5003-0.14286-0.67706 0.05178-1.361 0.51958-1.8262 0.37188-0.36999 0.87351-0.56848 1.4351-0.56848 0.86304 0 1.602 0.50094 1.8677 1.2661 0.03779 0.10695 0.08201 0.26757 0.08201 0.2929 0 0.0076-0.10544 0.01134-0.36395 0.0076l-0.36394-0.0029-0.03024-0.08125c-0.13076-0.35714-0.40729-0.62661-0.76727-0.7472-0.25926-0.08692-0.59478-0.08881-0.84414-0.0038-0.24906 0.08352-0.44781 0.2226-0.60008 0.41961-0.30952 0.40034-0.35714 0.97955-0.11867 1.4341 0.22298 0.42457 0.63697 0.66735 1.138 0.66735 0.37113 0 0.68658-0.13114 0.9285-0.38571 0.1251-0.13152 0.21391-0.27967 0.27438-0.45673l0.03023-0.08655 0.36432-0.0029 0.36432-0.0028-0.0076 0.03023c-0.0975 0.42884-0.25019 0.71546-0.52952 0.9941-0.17082 0.17045-0.29781 0.26266-0.49864 0.36243-0.17498 0.08692-0.28571 0.12698-0.46667 0.16969-0.12358 0.03023-0.14248 0.03023-0.43783 0.03401-0.21693 0.0017-0.33296-0.0018-0.38998-0.01134zm4.5658 0.0076c-0.01134-0.0028-0.06311-0.01134-0.11376-0.02268-0.05064-0.0076-0.15722-0.03855-0.23696-0.06425-0.50737-0.16553-0.90805-0.51255-1.1334-0.9816-0.26379-0.54909-0.26153-1.2124 0.0038-1.7578 0.18632-0.38046 0.47789-0.67298 0.85778-0.86107 0.74834-0.37037 1.6674-0.26153 2.2807 0.27022 0.6511 0.56451 0.83949 1.5786 0.44108 2.374-0.0975 0.19463-0.19728 0.33258-0.35147 0.48647-0.16326 0.16327-0.29214 0.25699-0.48964 0.35639-0.161 0.08125-0.28496 0.12623-0.46935 0.17082-0.11338 0.02646-0.1353 0.03023-0.44414 0.03023-0.17876 0.0017-0.33484 7.19e-4 -0.34656-0.0021zm-0.05404-0.6511c0.03023-0.0076 0.39297-0.21202 0.80703-0.45034 0.66621-0.38367 0.76039-0.44119 0.81852-0.49962 0.15268-0.15344 0.18518-0.36584 0.08617-0.56584-0.02645-0.05178-0.05744-0.09486-0.09599-0.13001-0.03931-0.03779-0.28647-0.18481-0.78689-0.47354-0.40121-0.23167-0.75676-0.43394-0.7901-0.44955-0.05442-0.02646-0.07332-0.03023-0.18518-0.03023-0.113 0-0.13038 0.0028-0.18708 0.03023-0.14097 0.06614-0.23469 0.16553-0.28042 0.29819l-0.02646 0.07332v1.8198l0.02268 0.065c0.09675 0.25699 0.35979 0.39048 0.61463 0.31179zm8.4546 0.63696c-0.56372-0.10809-1.0412-0.42725-1.3218-0.88367-0.35752-0.5811-0.38624-1.3414-0.07407-1.9548 0.19312-0.37944 0.47952-0.66111 0.85983-0.84539 0.55892-0.27098 1.2518-0.27513 1.809-0.01134 0.71625 0.339 1.1343 1.0542 1.0948 1.8729-0.0038 0.08541-0.01134 0.16213-0.01512 0.17045-0.0038 0.01134-0.2381 0.01512-1.6147 0.01512h-1.6088l0.0076 0.04157c0.0189 0.11451 0.10884 0.32464 0.19388 0.44985 0.09713 0.14324 0.27211 0.2997 0.4305 0.3845 0.1096 0.05858 0.28534 0.11602 0.42271 0.13794 0.21618 0.03401 0.4966 0.01134 0.70386-0.06122 0.25699-0.08806 0.51489-0.28005 0.62868-0.46776l0.03779-0.06198 0.38186-3.4e-4c0.21013-1.52e-4 0.38186 0.0038 0.38186 0.0076 0 0.02646-0.16175 0.32464-0.22487 0.41266-0.08768 0.12245-0.26757 0.30763-0.38753 0.39792-0.2415 0.18216-0.53258 0.31406-0.84501 0.3833-0.09562 0.02268-0.1455 0.02268-0.43299 0.02646-0.27891 0.0029-0.33938 5.3e-4 -0.42789-0.01512zm1.6357-2.2713c0-0.03401-0.06727-0.21655-0.11414-0.3065-0.1285-0.24796-0.36659-0.46474-0.62559-0.57034-0.63307-0.25813-1.3389-0.01512-1.6407 0.56508-0.04724 0.0907-0.11111 0.26682-0.11111 0.3065v0.02267h1.2457c1.1355 0 1.2457-0.0015 1.2457-0.0189zm-7.1145 0.48586 0.0029-1.7955 0.03024-0.06085c0.04006-0.08579 0.0975-0.14437 0.18103-0.18556l0.07181-0.03401h0.91017c0.99992 0 1.0099 5.3e-4 1.2042 0.065 0.51357 0.17045 0.86973 0.57283 0.96417 1.089 0.02645 0.14588 0.02645 0.45945-1.14e-4 0.58231-0.05971 0.27513-0.18443 0.50193-0.38277 0.69728-0.12132 0.11943-0.24188 0.209-0.36357 0.27022l-0.0839 0.04233 0.42252 0.56319 0.42252 0.56315h-0.87748l-0.37642-0.50321-0.37642-0.50325-0.52268-4.91e-4 -0.5226-4.53e-4v1.0074h-0.70446zm2.0773 0.08957c0.14475-0.03817 0.3579-0.17498 0.43488-0.27967 0.09826-0.13341 0.15835-0.33333 0.14588-0.48405-0.03023-0.34656-0.24452-0.61674-0.55937-0.70045-0.06198-0.01512-0.14853-0.0189-0.73371-0.02268l-0.66349-0.0038v1.5069l0.65809-1.13e-4c0.53851-1.13e-4 0.6689-0.0029 0.71765-0.01512zm-12.429-3.5545c-0.081255-0.018896-0.18934-0.072562-0.24187-0.11867l-0.040816-0.034014 0.030234-0.057823c0.045351-0.082766 0.071051-0.11716 0.087302-0.11716 0.00756 0 0.046107 0.018897 0.085034 0.042706 0.083522 0.050642 0.18519 0.086924 0.24376 0.086924 0.085412 0 0.17536-0.076342 0.17536-0.14928 0-0.077853-0.066137-0.14928-0.19501-0.21013-0.19615-0.092593-0.22789-0.11073-0.28571-0.16213-0.039683-0.034014-0.071429-0.07672-0.094104-0.12245-0.030234-0.064626-0.034014-0.075586-0.030234-0.16478 0.00299-0.073696 0.011338-0.10771 0.030234-0.1489 0.034014-0.067649 0.092593-0.12736 0.16553-0.16553 0.055556-0.030234 0.06198-0.030234 0.23054-0.030234h0.17347l0.084657 0.040438c0.10204 0.048753 0.14815 0.080121 0.14815 0.10128 0 0.026455-0.09902 0.16704-0.1164 0.16704-0.0076 0-0.06085-0.022676-0.11603-0.049887-0.15004-0.074452-0.24339-0.077475-0.31444-0.011338-0.034014 0.034014-0.038171 0.04195-0.038171 0.091459 0 0.089569 0.040816 0.12547 0.26568 0.23432 0.21126 0.10242 0.27778 0.15533 0.32766 0.26228 0.02646 0.052532 0.03023 0.077098 0.03023 0.15457-1.13e-4 0.079365-0.0038 0.099773-0.03023 0.14928-0.05971 0.11413-0.14361 0.17952-0.27324 0.21315-0.078231 0.0189-0.21618 0.0189-0.30197-6.42e-4zm1.7507-0.0038c-0.24376-0.06387-0.43942-0.26304-0.49611-0.50484-0.02646-0.11073-0.01512-0.2997 0.0189-0.39667 0.0771-0.20635 0.23129-0.35979 0.43016-0.42755 0.05971-0.018896 0.09486-0.022676 0.21806-0.022676 0.16553-3.402e-4 0.22109 0.011338 0.33636 0.071806 0.15004 0.078231 0.27627 0.23016 0.33031 0.39694 0.02268 0.071807 0.03023 0.11111 0.03023 0.20257 0.0013 0.1353-0.01512 0.20219-0.07105 0.32351-0.13568 0.28496-0.48269 0.44108-0.79724 0.35865zm0.35828-0.26304c0.07974-0.037793 0.18027-0.13152 0.21655-0.20597 0.01512-0.030234 0.03401-0.090325 0.04157-0.13001 0.03968-0.21542-0.1028-0.4381-0.32011-0.50057-0.20181-0.058201-0.42914 0.045729-0.51988 0.23772-0.11414 0.24112 0.01134 0.53133 0.26342 0.61493 0.08957 0.030234 0.23394 0.022676 0.31822-0.015117zm1.8993-0.15342c-0.21958-0.2415-0.40374-0.43915-0.40892-0.43915-0.0038 0-0.0076 0.19274-0.0076 0.42823v0.42827l-0.2328-0.0062-0.0028-0.6743-0.0028-0.67434h0.09259l0.3952 0.41965 0.39516 0.41965 0.0076-0.41153c0.0032-0.22638 0.0076-0.41292 0.0076-0.41459 0.0013-0.0017 0.0548-0.0017 0.11867 0l0.1164 0.00306v1.354l-0.03779 0.0032c-0.03779 0.0031-0.04535-0.0038-0.43742-0.43602zm6.9259 0.4308c-0.01512-0.0025-0.0514-0.01134-0.08126-0.02268-0.2449-0.07672-0.43133-0.28496-0.47816-0.53428-0.065-0.34656 0.14739-0.69652 0.48284-0.79512 0.09221-0.026455 0.33862-0.022676 0.42627 0.00378 0.10469 0.034014 0.25699 0.1353 0.25699 0.16893 0 0.018897-0.1285 0.15533-0.14815 0.15533-0.0076 0-0.03968-0.018896-0.06992-0.038171-0.12963-0.089191-0.29781-0.10469-0.43586-0.040061-0.33787 0.15797-0.33711 0.65741 0.0012 0.81772 0.06765 0.030234 0.08201 0.034014 0.18178 0.034014 0.09562-1.133e-4 0.11602-0.0037 0.17271-0.030234 0.03401-0.015117 0.08088-0.042706 0.10128-0.057823 0.02646-0.018896 0.04195-0.026455 0.0548-0.018896 0.02645 0.011338 0.14248 0.1387 0.14248 0.15306 0 0.018897-0.09222 0.094482-0.16138 0.13114-0.09335 0.049509-0.21315 0.077475-0.32502 0.075964-0.05102-8.32e-4 -0.10544-0.0035-0.12018-0.0076zm3.1317-0.01134c-0.18556-0.049885-0.34165-0.21315-0.37963-0.39705-0.0076-0.037793-0.01134-0.21202-0.0076-0.50113l0.0029-0.44414h0.2381l0.0038 0.44955c0.0038 0.44418 0.0076 0.45015 0.03023 0.50053 0.03401 0.064626 0.10658 0.13341 0.16024 0.14853 0.11527 0.030234 0.23772-0.00125 0.30839-0.0839 0.06651-0.077853 0.06727-0.082766 0.0737-0.57045l0.0076-0.44414h0.2381l0.0029 0.44414c0.0019 0.28723-0.0012 0.4641-0.0076 0.50068-0.02645 0.13454-0.14248 0.28647-0.26568 0.35223-0.11413 0.060846-0.27816 0.079365-0.40427 0.045351zm5.0272-0.0038c-0.08995-0.02268-0.16894-0.063492-0.22751-0.11489l-0.04006-0.034014 0.03779-0.068405c0.04119-0.07672 0.06387-0.10658 0.08163-0.1062 0.0076 1.134e-4 0.04724 0.022676 0.0907 0.047619 0.15004 0.090325 0.27891 0.10355 0.35488 0.037793 0.11376-0.10015 0.04346-0.23961-0.16553-0.32842-0.20748-0.088057-0.32766-0.18632-0.36697-0.30083-0.06198-0.18027 0.01512-0.36848 0.18972-0.45446 0.04611-0.022676 0.06425-0.026455 0.22336-0.026455h0.17347l0.10544 0.051398c0.12812 0.062736 0.13946 0.078231 0.10128 0.14324-0.03401 0.060847-0.0805 0.11413-0.09637 0.11413-0.0076 0-0.0582-0.022676-0.11414-0.051398-0.09373-0.047619-0.10771-0.051398-0.18103-0.051398-0.09221 0-0.12774 0.018896-0.16062 0.08579-0.0189 0.034014-0.0189 0.047241-0.0076 0.083144 0.02268 0.077098 0.06122 0.10431 0.30574 0.21995 0.15079 0.071051 0.24112 0.14739 0.2876 0.24301 0.04271 0.087302 0.04308 0.20748 0.0014 0.29667-0.03401 0.071051-0.1062 0.1489-0.17007 0.18141-0.11224 0.05707-0.27929 0.07029-0.42173 0.03401zm-13.513-0.0076c-0.0038-0.0038-0.0076-0.15079-0.0076-0.3254v-0.31777l-0.2226-0.3254c-0.12392-0.18103-0.22105-0.33371-0.21916-0.34392 3e-3 -0.015117 0.02268-0.018897 0.12812-0.022676l0.12434-0.00283 0.15722 0.22751c0.08655 0.12509 0.15949 0.22751 0.16251 0.22714 3e-3 -2.646e-4 0.07596-0.1028 0.16175-0.22789l0.15646-0.22714 0.12509 0.00302c0.11754 0.00283 0.1251 0.00378 0.12472 0.026455-3.4e-4 0.011338-0.10015 0.16553-0.22222 0.34127l-0.22147 0.31935-0.0076 0.65004-0.11414 0.0031c-0.06274 0.0017-0.11754-3.78e-4 -0.12207-0.0038zm2.1965-0.0076c-0.0029-0.0076-0.0038-0.30877-0.0025-0.66927l0.0028-0.65537 0.28156-0.00291c0.31708-0.00325 0.34543 0.00125 0.44936 0.071429 0.25132 0.16931 0.24112 0.54992-0.0189 0.71523-0.08277 0.052532-0.15004 0.066893-0.31784 0.066893h-0.14965l-0.0057 0.48224-0.11678 0.0031c-0.0873 0.0023-0.11791-4.53e-4 -0.12207-0.01134zm0.55386-0.72623c0.11073-0.058579 0.14701-0.20106 0.07521-0.29554-0.04875-0.06387-0.08088-0.074452-0.2415-0.078987l-0.14361-0.00378v0.40552l0.13832-0.00378c0.10015-0.00336 0.14739-0.011338 0.17158-0.022676zm1.0602 0.72623c-0.0029-0.0076-0.0038-0.30877-0.0025-0.66927l0.0028-0.65537h0.2381v1.3324l-0.11678 0.0031c-0.0873 0.0023-0.11791-4.54e-4 -0.12207-0.01134zm3.0568 0.0076c-0.0038-0.0038-0.0076-0.2551-0.0076-0.55786v-0.55058h-0.15566c-0.12018 0-0.15873-0.00344-0.16818-0.015117-0.0076-0.011338-0.01134-0.049509-0.0076-0.11111l0.0031-0.095994h0.89909l0.0031 0.10204c0.0023 0.074452-6.43e-4 0.10431-0.01134 0.11073-0.0076 0.00378-0.08088 0.00756-0.16289 0.00756l-0.1489 1.512e-4v0.54074c0 0.29743-3e-3 0.54845-0.0076 0.55786-0.0038 0.01512-0.02645 0.0189-0.11754 0.0189-0.06085 0-0.11414-0.0033-0.11791-0.0076zm3.1084-0.01134c-0.01134-0.026455-0.0076-1.2973 0.0026-1.3135 0.0076-0.011338 0.07974-0.015117 0.3545-0.011338l0.3458 0.00329 0.06085 0.030234c0.1285 0.063114 0.21202 0.17196 0.23658 0.30877 0.03023 0.16893-0.06425 0.34769-0.22902 0.43129l-0.05064 0.026455 0.1353 0.25057c0.07445 0.13794 0.13341 0.2585 0.1319 0.26833-0.0029 0.01512-0.02268 0.0189-0.12963 0.02268l-0.12585 3e-3 -0.2706-0.52608h-0.21391l-0.0076 0.52003-0.11527 0.0031c-0.09788 0.0026-0.11602 4.54e-4 -0.12169-0.01512zm0.61591-0.72105c0.02268-0.00756 0.06085-0.030234 0.08277-0.051776 0.08655-0.086546 0.07785-0.21618-0.0189-0.29025-0.03968-0.030234-0.04044-0.030234-0.2328-0.034014l-0.19312-0.00336v0.39153l0.15986-7.55e-5c0.08768-3.78e-5 0.17914-0.00378 0.20295-0.011338zm1.1481 0.72445c-0.0029-0.0076-0.0038-0.30839-0.0024-0.66905l0.0028-0.65537h0.84494l0.0032 0.095994c2e-3 0.061224-0.0014 0.10128-0.01134 0.11111-0.01134 0.011338-0.06727 0.015117-0.30385 0.015117h-0.29101v0.31444h0.2415c0.17347 0 0.24528 0.00367 0.25472 0.011338 0.0076 0.00756 0.01134 0.047997 0.01134 0.1062s-0.0038 0.098261-0.01134 0.1062c-0.0076 0.00756-0.08125 0.011338-0.25472 0.011338h-0.2415v0.3356h0.29101c0.23658 0 0.29365 0.00287 0.30385 0.015117 0.0076 0.011338 0.01134 0.049509 0.01134 0.11111l-0.0032 0.095994-0.42003 0.0028c-0.33031 0.0022-0.42116-7.6e-5 -0.42528-0.01134z" fill="#44739e"/>
</svg>
