<?xml version="1.0" encoding="UTF-8"?>
<!-- Created with Inkscape (http://www.inkscape.org/) -->
<svg version="1.1" viewBox="0 0 24 24" width="24" height="24" xmlns="http://www.w3.org/2000/svg">
 <path d="m4.2182 15.338c-0.0081-8e-3 -0.01469-0.38853-0.01469-0.84545v-0.83077l0.48482 6e-3c0.48103 6e-3 0.48559 7e-3 0.58277 0.0583 0.11704 0.062 0.17375 0.11941 0.21454 0.21704 0.06095 0.14587 0.01951 0.31863-0.10433 0.43498-0.03368 0.0317-0.06124 0.0636-0.06124 0.0711 0 7e-3 0.02529 0.024 0.0562 0.0368s0.08335 0.0513 0.11654 0.0856c0.16654 0.17207 0.16222 0.48381-0.0089 0.64436-0.11479 0.10768-0.18567 0.11995-0.74167 0.12846-0.28012 4e-3 -0.51592 1e-3 -0.524-7e-3zm0.98603-0.19011c0.0953-0.0474 0.15502-0.15794 0.15502-0.28692 0-0.23947-0.10299-0.29838-0.54361-0.31093-0.22012-6e-3 -0.30648-2e-3 -0.32811 0.0159-0.02366 0.0196-0.02936 0.0804-0.02936 0.31253 0 0.1585 0.0066 0.29476 0.01463 0.30281 8e-3 8e-3 0.16011 0.0117 0.33791 8e-3 0.26162-5e-3 0.33667-0.0132 0.39352-0.0415zm-0.068-0.80849c0.13265-0.099 0.17757-0.25253 0.11145-0.38078-0.05494-0.10656-0.13293-0.13299-0.43814-0.14851-0.36654-0.0186-0.35138-0.0305-0.35138 0.27493 0 0.13341 0.0057 0.25742 0.01267 0.27558 0.01128 0.0294 0.04546 0.0322 0.31199 0.0261 0.26538-6e-3 0.30545-0.0115 0.35341-0.0473zm1.0547 0.98553c-0.0052-0.0135-0.0071-0.39031-0.0043-0.83742l0.0051-0.81292 0.43084-5e-3c0.25682-3e-3 0.47236 3e-3 0.53362 0.016 0.13569 0.0282 0.27587 0.12668 0.33242 0.23362 0.05736 0.10847 0.06129 0.30553 0.0084 0.42165-0.04931 0.10826-0.17856 0.21968-0.28632 0.24681-0.05538 0.0139-0.0885 0.0332-0.0885 0.0515 0 0.016 0.10693 0.17428 0.23763 0.35162 0.15605 0.21174 0.23101 0.32907 0.21833 0.34174-0.01062 0.0106-0.07127 0.0166-0.13479 0.0133l-0.11549-6e-3 -0.29837-0.41872c-0.1641-0.23029-0.2936-0.42642-0.28778-0.43585 0.0058-9e-3 0.06516-0.0175 0.13186-0.018 0.15618-1e-3 0.30221-0.0517 0.35475-0.12301 0.05847-0.0793 0.05866-0.31893 3.29e-4 -0.3987-0.07159-0.0979-0.16157-0.127-0.42827-0.13852-0.13274-6e-3 -0.26449-5e-3 -0.29278 2e-3l-0.05144 0.0129v0.73261c0 0.40293-0.0054 0.74655-0.01189 0.76359-0.01512 0.0394-0.23857 0.0451-0.2534 6e-3zm1.7849 7e-3c-0.0096-0.0155 0.13171-0.32797 0.58993-1.305 0.08084-0.17239 0.15603-0.32444 0.16709-0.33791 0.01229-0.015 0.06912-0.0245 0.14631-0.0245h0.12622l0.13409 0.27914c0.27407 0.57056 0.62623 1.3302 0.63157 1.3624 0.0048 0.0286-0.01339 0.0333-0.13019 0.0333h-0.13572l-0.09079-0.19927c-0.04993-0.1096-0.10233-0.21317-0.11644-0.23017-0.02192-0.0264-0.08759-0.0309-0.4518-0.0309-0.31729 0-0.43122 6e-3 -0.44598 0.0245-0.0109 0.0135-0.05712 0.11263-0.1027 0.22037-0.04558 0.10774-0.09283 0.20237-0.105 0.21028-0.03125 0.0203-0.20373 0.0185-0.21657-2e-3zm1.2229-0.63178c0-0.0229-0.22176-0.52077-0.30754-0.69048-0.04019-0.0795-0.05252-0.0911-0.07326-0.0686-0.02931 0.0318-0.32487 0.72084-0.32459 0.75673 1.38e-4 0.0187 0.08387 0.0245 0.35279 0.0245 0.24948 0 0.3526-6e-3 0.3526-0.0222zm1.4298 0.61936c-0.01354-0.0163-0.08597-0.15956-0.16094-0.31832-0.43969-0.931-0.60278-1.2853-0.60278-1.3095 0-0.0204 0.03191-0.0272 0.12824-0.0272 0.11962 0 0.13024 4e-3 0.15801 0.0539 0.01638 0.0296 0.16444 0.34477 0.32904 0.7003 0.16482 0.35603 0.31052 0.64643 0.32432 0.64643 0.01401 0 0.11045-0.1986 0.21877-0.45054 0.10654-0.2478 0.24317-0.56293 0.30362-0.7003l0.10992-0.24976h0.10746c0.10172 0 0.10686 2e-3 0.0962 0.0441-0.0163 0.0638-0.70882 1.5768-0.73757 1.6114-0.03363 0.0405-0.24053 0.0401-0.27427-5.4e-4zm1.5617 0.0175c-0.0077-8e-3 -0.01391-0.38708-0.01391-0.84318v-0.82926h0.25508l-0.0051 0.83743-0.0051 0.83742-0.10852 6e-3c-0.05968 3e-3 -0.11478-5.1e-4 -0.12243-8e-3zm0.71087-0.0234c0-0.0206 0.11525-0.28332 0.25611-0.58375 0.14086-0.30042 0.30569-0.652 0.36628-0.78129 0.0606-0.12929 0.11832-0.24608 0.12827-0.25955 0.01118-0.0151 0.0657-0.0245 0.14258-0.0245 0.10764 0 0.12831 6e-3 0.1528 0.0441 0.01558 0.0242 0.19304 0.39527 0.39435 0.82452 0.23458 0.50016 0.35926 0.78722 0.34717 0.79931-0.01037 0.0104-0.07083 0.0162-0.13435 0.0129l-0.11549-6e-3 -0.10058-0.20568c-0.05532-0.11313-0.11076-0.21671-0.1232-0.23017-0.02551-0.0276-0.83485-0.0358-0.87721-9e-3 -0.01299 8e-3 -0.06656 0.11169-0.11907 0.22986l-0.09546 0.21487-0.1111 6e-3c-0.09845 5e-3 -0.1111 2e-3 -0.1111-0.0316zm1.2145-0.61986c0-0.0319-0.30593-0.71119-0.3382-0.75091-0.01131-0.0139-0.02751-0.0183-0.03599-0.01-0.03107 0.0313-0.33109 0.75371-0.32027 0.77121 0.0061 0.01 0.16491 0.0181 0.35282 0.0181 0.28637 0 0.34165-5e-3 0.34165-0.0286zm1.6455 0.63077c0-0.0136 0.14986-0.20961 0.33301-0.43568 0.18316-0.22608 0.33301-0.42117 0.33301-0.43355 0-0.0124-0.13663-0.18765-0.30363-0.3895s-0.30363-0.3747-0.30363-0.38413c0-9e-3 0.08367-0.0171 0.18593-0.0171h0.18593l0.22753 0.27491c0.19107 0.23086 0.23216 0.27106 0.25648 0.25088 0.01592-0.0132 0.11761-0.13692 0.22598-0.27491l0.19703-0.25088h0.18214c0.10018 0 0.18634 7e-3 0.19147 0.0151 0.0051 8e-3 -0.11858 0.17359-0.27492 0.3673-0.15634 0.1937-0.29231 0.36718-0.30217 0.3855-0.01426 0.0265 0.05034 0.11884 0.31511 0.45055 0.18317 0.22948 0.3331 0.42858 0.33318 0.44245 0 0.0192-0.04338 0.0239-0.18106 0.0196l-0.1812-6e-3 -0.25115-0.31342c-0.13813-0.17238-0.26101-0.31342-0.27305-0.31342-0.01205 0-0.11733 0.119-0.23397 0.26445-0.33245 0.41456-0.27734 0.37218-0.48396 0.37218-0.13002 0-0.17807-7e-3 -0.17807-0.0246zm2.0254 0.01c-0.01193-8e-3 -0.17729-0.20675-0.36747-0.44186-0.24249-0.29978-0.34115-0.43576-0.33026-0.45522 0.0085-0.0153 0.15186-0.19521 0.3185-0.39991l0.30298-0.37216 0.10284-2.5e-4c0.05656-1.4e-4 0.10275 6e-3 0.10264 0.0144-1.96e-4 8e-3 -0.13675 0.18177-0.30363 0.38598-0.16688 0.20421-0.30342 0.37965-0.30342 0.38987 0 0.0172 0.32306 0.42708 0.5628 0.71402 0.12792 0.15311 0.13093 0.18018 0.01997 0.17978-0.04579-1.5e-4 -0.09301-7e-3 -0.10494-0.0147zm0.32923-9e-3c-0.02761-0.0276-0.03401-1.5947-0.0067-1.6377 0.0129-0.0203 0.1363-0.0244 0.60206-0.0196 0.56326 6e-3 0.5896 8e-3 0.68354 0.051 0.1947 0.0897 0.27121 0.21063 0.27 0.42659-0.0014 0.24696-0.12064 0.39793-0.34454 0.43615-0.04863 8e-3 -0.08353 0.0256-0.0864 0.0428-0.0026 0.0159 0.11408 0.17349 0.25938 0.35024 0.14531 0.17676 0.26419 0.33323 0.26419 0.34771 0 0.0201-0.04136 0.0263-0.17396 0.0263h-0.17394l-0.32153-0.40647c-0.17684-0.22355-0.32888-0.41847-0.33786-0.43314-0.02717-0.0444 0.02745-0.0609 0.20288-0.0612 0.28494-5.2e-4 0.39306-0.0882 0.39306-0.31869 0-0.12893-0.05246-0.21807-0.16145-0.27431-0.05803-0.0299-0.12992-0.0401-0.34501-0.0486-0.14944-6e-3 -0.29496-5e-3 -0.32337 2e-3l-0.05167 0.013v0.74008c0 0.54951-0.0061 0.74614-0.02351 0.7636-0.01387 0.0139-0.08053 0.0235-0.16259 0.0235-0.08205 0-0.14872-0.01-0.16259-0.0235zm-9.5829-3.2182c-1.2049-0.20637-2.0119-1.065-1.8326-1.9499 0.2222-1.0966 1.7392-1.7711 3.169-1.409 0.78151 0.19794 1.391 0.71259 1.5552 1.3133 0.05267 0.19267 0.04833 0.51656-0.0094 0.70363-0.15016 0.48643-0.54981 0.89278-1.1197 1.1385-0.21478 0.0926-0.44754 0.16195-0.67993 0.2026-0.21244 0.0372-0.86778 0.0377-1.0825 9.7e-4zm0.91088-0.55209c0.29285-0.0643 0.60904-0.25643 0.77981-0.47378 0.18549-0.2361 0.2604-0.4661 0.24335-0.74712-0.03661-0.60329-0.58646-1.0819-1.2974-1.1293-0.68391-0.0456-1.3169 0.36249-1.4675 0.94604-0.14865 0.57618 0.24511 1.1778 0.9013 1.3771 0.27177 0.0825 0.54733 0.0914 0.84044 0.027zm-5.671 0.522c-0.26119-0.0464-0.80753-0.18368-0.9835-0.24715-0.18156-0.0655-0.21941-0.0586-0.22758 0.0417-0.0035 0.043-0.01672 0.0847-0.02938 0.0927-0.02747 0.0175-0.37633 0.0198-0.43929 3e-3l-0.04407-0.0118v-1.1916l0.47552 0.01 0.02707 0.10773c0.08158 0.32468 0.43014 0.56388 1.0007 0.68671 0.27724 0.0597 0.8559 0.0753 1.0839 0.0293 0.2765-0.0558 0.50643-0.18916 0.57484-0.33334 0.03041-0.0641 0.03049-0.0742 0.0011-0.13614-0.08668-0.18266-0.34679-0.26052-1.214-0.36337-0.87134-0.10334-1.1933-0.17219-1.5126-0.32344-0.20875-0.0989-0.35962-0.2343-0.437-0.39224-0.04115-0.084-0.04802-0.12592-0.04822-0.29425-2.1e-4 -0.18243 0.0043-0.20551 0.06395-0.32665 0.12535-0.25462 0.44044-0.48825 0.83692-0.62055 0.29698-0.0991 0.53826-0.14092 0.8815-0.15281 0.26746-9e-3 0.35076-5e-3 0.56808 0.0325 0.28693 0.0488 0.62849 0.14638 0.86272 0.24649 0.08663 0.037 0.16786 0.0673 0.18051 0.0673 0.02901 0 0.06355-0.0632 0.06355-0.11624 0-0.0384 0.0108-0.0405 0.21338-0.0405 0.17651 0 0.21544 5e-3 0.22527 0.031 0.02092 0.0545 0.01334 0.94833-0.0084 0.98892-0.01783 0.0333-0.0424 0.0379-0.20328 0.0379-0.20296 0-0.21123-4e-3 -0.2446-0.1292-0.09533-0.35664-0.62776-0.59163-1.4222-0.62767-0.42616-0.0193-0.83725 0.0543-1.0011 0.17925-0.12457 0.095-0.16138 0.23763-0.08304 0.32172 0.10195 0.10943 0.29904 0.15301 1.0254 0.22673 0.57626 0.0585 0.81349 0.0933 1.0695 0.15688 0.53335 0.13246 0.84029 0.32909 0.98255 0.62946 0.0602 0.1271 0.06352 0.14594 0.06352 0.35971 0 0.2154-0.0029 0.23149-0.06436 0.35641-0.07569 0.15386-0.19162 0.27935-0.35654 0.38595-0.44491 0.28755-1.2627 0.42436-1.8808 0.31462zm8.1182-0.10378c-0.0056-0.0145-0.0075-0.10051-0.0044-0.19119l0.0057-0.16486 0.24681-0.01c0.16798-7e-3 0.25714-0.0184 0.27914-0.0367 0.02933-0.0244 0.03233-0.12656 0.03233-1.1005 0-0.94987-0.0035-1.0771-0.03078-1.1044-0.02452-0.0245-0.07802-0.0308-0.26305-0.0308-0.28988 0-0.29383-3e-3 -0.29383-0.21295 0-0.0916 0.0093-0.16068 0.02351-0.1749 0.0175-0.0175 0.22298-0.0235 0.80358-0.0235h0.78007l0.08282 0.0747c0.04555 0.0411 0.312 0.28101 0.59212 0.53321 1.1181 1.0067 1.3146 1.1837 1.3673 1.2317 0.04622 0.0422 0.05767 0.0455 0.07316 0.021 0.02051-0.0324 0.02631-1.1921 0.0065-1.2914-0.02105-0.10526-0.07946-0.12717-0.36847-0.13825l-0.25566-0.01v-0.41137h1.8218v0.41137l-0.24914 0.01c-0.20439 8e-3 -0.25541 0.0161-0.28404 0.0448-0.03255 0.0326-0.03556 0.12095-0.04469 1.3125l-0.0098 1.2775-0.68561 8e-3 -0.33419-0.29811c-0.1838-0.16396-0.69507-0.61905-1.1362-1.0113-0.44108-0.39226-0.82663-0.73589-0.85676-0.76362-0.04627-0.0426-0.05771-0.0459-0.07351-0.0214-0.03067 0.0476-0.01485 1.6371 0.0166 1.6686 0.01742 0.0174 0.1129 0.0285 0.30363 0.0352l0.27822 0.01v0.37218l-0.90652 5e-3c-0.74436 4e-3 -0.90833 3.8e-4 -0.91662-0.0212zm6.6763 0.013c-0.01716-7e-3 -0.02449-0.0651-0.02449-0.19435v-0.18446h0.25162c0.3352 0 0.31646 0.0241 0.31646-0.40747v-0.33583l-0.2302-0.25029c-0.12661-0.13767-0.41011-0.44864-0.63001-0.69105-0.21989-0.24241-0.42496-0.46719-0.45571-0.49952l-0.0559-0.0588-0.55768-0.02v-0.41137h2.1744v0.41137l-0.1403 6e-3c-0.15874 6e-3 -0.20225 0.0342-0.1688 0.10761 0.02953 0.0648 0.68076 0.78786 0.74042 0.82208 0.02909 0.0167 0.79299-0.80561 0.79299-0.85361 0-0.0503-0.04831-0.0699-0.18691-0.0759l-0.1363-6e-3v-0.41137h1.7434v0.41137l-0.2493 0.01c-0.21585 8e-3 -0.2544 0.0151-0.28732 0.049-0.02091 0.0215-0.34284 0.36533-0.71539 0.76396l-0.67737 0.72479v0.33551c0 0.25367 0.0062 0.34073 0.02574 0.35692 0.01516 0.0126 0.13834 0.0237 0.29873 0.0269l0.27293 5e-3 0.0057 0.17464c0.0041 0.1265-0.0013 0.17907-0.01959 0.19069-0.02679 0.017-2.0452 0.0205-2.087 4e-3z" fill="#44739e"/>
</svg>
