<svg xmlns="http://www.w3.org/2000/svg" viewBox="0 0 24 24"><path fill="#44739e" d="M4.222 12.055a1 1 0 0 0 .326.063h.094a.67.67 0 0 0 .394-.1.3.3 0 0 0 .066-.058.38.38 0 0 0 .098-.232.4.4 0 0 0-.034-.2.4.4 0 0 0-.032-.055.46.46 0 0 0-.206-.153 1 1 0 0 0-.324-.062 1 1 0 0 0-.273.01.6.6 0 0 0-.186.066l-.04.026a.4.4 0 0 0-.095.1.4.4 0 0 0-.055.185.38.38 0 0 0 .066.248.46.46 0 0 0 .201.162m.057-.466a.56.56 0 0 1 .3-.028.57.57 0 0 1 .3.064.1.1 0 0 1 .046.086.1.1 0 0 1-.056.081.6.6 0 0 1-.3.028.66.66 0 0 1-.3-.064l-.01-.007a.09.09 0 0 1-.036-.078.1.1 0 0 1 .056-.082m-.01 1.389a1 1 0 0 0 .231.027h.1a.77.77 0 0 0 .474-.151.4.4 0 0 0 .026-.556.45.45 0 0 0-.222-.127 1 1 0 0 0-.33-.023 1.2 1.2 0 0 0-.269.042.6.6 0 0 0-.179.088.4.4 0 0 0-.119.144.4.4 0 0 0-.032.191.38.38 0 0 0 .1.238.46.46 0 0 0 .22.127m0-.469a.6.6 0 0 1 .3-.064h.1a.4.4 0 0 1 .2.032.1.1 0 0 1 .057.08.1.1 0 0 1-.046.086l-.025.015a.8.8 0 0 1-.272.049.6.6 0 0 1-.314-.033.09.09 0 0 1-.045-.073.1.1 0 0 1 .045-.091Zm.118 1.285.03.042.291-.053-.06-.1a1 1 0 0 0-.1-.134l.739-.134-.053-.29-1.21.22.039.214.049.014a.4.4 0 0 1 .133.074.7.7 0 0 1 .142.147m.288.932.283-.087-.071-.094a1 1 0 0 0-.114-.122l.717-.221-.09-.282-1.174.363.064.207.05.009a.4.4 0 0 1 .141.058.7.7 0 0 1 .156.13Zm.384.904a1 1 0 0 0 .318-.095 1 1 0 0 0 .138-.069.63.63 0 0 0 .253-.239.4.4 0 0 0-.169-.527.46.46 0 0 0-.253-.041 1 1 0 0 0-.317.094 1.2 1.2 0 0 0-.237.134.6.6 0 0 0-.135.144.4.4 0 0 0-.06.176.4.4 0 0 0 .036.191.37.37 0 0 0 .173.19.44.44 0 0 0 .2.044Zm-.118-.292h-.014l-.014-.008-.011-.01v-.005l-.011-.02a.1.1 0 0 1 .012-.1c.012-.021.061-.078.256-.164l.061-.026.02-.008.025-.019h.02l.025-.008.017-.005h.023l.023-.005h.07a.1.1 0 0 1 .082.055.1.1 0 0 1 .007.038.14.14 0 0 1-.02.06c-.013.02-.062.077-.256.164a.6.6 0 0 1-.305.078Zm.811.891-.092-.075-.036-.026a1 1 0 0 0-.1-.064l.645-.385-.151-.253-1.056.629.111.187h.051a.4.4 0 0 1 .15.023c.013 0 .026.011.039.016a.7.7 0 0 1 .144.074l.043.023Zm.434.649a1 1 0 0 0-.15-.074l.6-.459-.18-.233-.974.751.133.172.05-.01a.4.4 0 0 1 .152 0 .7.7 0 0 1 .193.068l.046.024.235-.181Zm1.492 1.469.432-.614-.241-.17-.707 1.006.178.125.045-.024a.4.4 0 0 1 .146-.04.7.7 0 0 1 .2.007l.052.009.17-.242-.11-.026a1 1 0 0 0-.165-.031m.869-.334-.582 1.083.192.1.041-.03a.4.4 0 0 1 .141-.057q.018.002.038-.006a1 1 0 0 1 .125-.01h.093l.14-.261-.117-.017a1 1 0 0 0-.167-.006l.356-.662Zm.728 1.173.275-.7-.275-.108-.45 1.144.2.08.038-.035a.4.4 0 0 1 .133-.073.7.7 0 0 1 .2-.041h.052l.109-.276h-.119a1 1 0 0 0-.163.009m.859.272.19-.727-.285-.075-.311 1.19.21.055.034-.039a.4.4 0 0 1 .128-.084.7.7 0 0 1 .193-.065l.052-.009.075-.287-.118.012a1 1 0 0 0-.168.029m.926-.604a.38.38 0 0 0-.254.047.47.47 0 0 0-.168.194 1 1 0 0 0-.086.319 1 1 0 0 0-.011.272.6.6 0 0 0 .051.191.4.4 0 0 0 .119.144.4.4 0 0 0 .18.069l.063.005a.36.36 0 0 0 .19-.052.46.46 0 0 0 .169-.193l.028-.065a1.2 1.2 0 0 0 .059-.255.76.76 0 0 0-.057-.5.37.37 0 0 0-.283-.176m.044.635a.6.6 0 0 1-.094.3.08.08 0 0 1-.08.03.1.1 0 0 1-.078-.062 1 1 0 0 1 .082-.6.1.1 0 0 1 .077-.041h.012c.022 0 .05.013.076.063a.57.57 0 0 1 .001.31Zm.82.196.012-.751h-.295l-.019 1.23h.218l.023-.046a.4.4 0 0 1 .1-.115.7.7 0 0 1 .173-.109l.047-.021v-.3l-.112.04a1 1 0 0 0-.147.072m1.045-.138a1 1 0 0 0-.141.088l-.079-.746-.293.03.129 1.223.216-.023.018-.048a.4.4 0 0 1 .084-.126.7.7 0 0 1 .158-.128l.045-.028-.031-.294Zm3.738-8.967h.505v2.53h-.505ZM14 19.108a.63.63 0 0 0-.185-.295.37.37 0 0 0-.329-.069.37.37 0 0 0-.221.134.45.45 0 0 0-.089.24 1 1 0 0 0 .031.329 1 1 0 0 0 .086.258.6.6 0 0 0 .116.161.37.37 0 0 0 .256.106.4.4 0 0 0 .1-.012.37.37 0 0 0 .219-.133.45.45 0 0 0 .09-.24 1 1 0 0 0-.031-.331 1 1 0 0 0-.043-.148m-.231.529v.006l-.008.016a.08.08 0 0 1-.054.035.1.1 0 0 1-.094-.031 1 1 0 0 1-.134-.585c.022-.052.049-.064.07-.069h.02a.1.1 0 0 1 .073.034.6.6 0 0 1 .112.283.6.6 0 0 1 .01.311Zm1.34-.714a1 1 0 0 0-.109.126l-.294-.691-.272.116.483 1.13.2-.085v-.051a.4.4 0 0 1 .044-.145.7.7 0 0 1 .113-.17l.035-.039-.116-.272Zm.791-.423a1 1 0 0 0-.093.138l-.375-.651-.256.147.613 1.066.189-.109v-.051a.4.4 0 0 1 .022-.149.7.7 0 0 1 .093-.182l.03-.043-.148-.256Zm.731-.514a1 1 0 0 0-.077.148l-.449-.6-.236.176.736.985.174-.13-.01-.05a.4.4 0 0 1 .008-.152.7.7 0 0 1 .071-.191l.024-.047-.177-.237Zm.669-.598a1 1 0 0 0-.058.156l-.518-.543-.213.2.848.89.157-.15-.015-.049a.4.4 0 0 1-.01-.151.7.7 0 0 1 .047-.2l.019-.049-.2-.214Zm.851-.699a1.2 1.2 0 0 0-.186-.184.77.77 0 0 0-.45-.212h-.007a.37.37 0 0 0-.3.146.4.4 0 0 0-.041.058.35.35 0 0 0-.052.183.46.46 0 0 0 .076.245 1 1 0 0 0 .226.241 1 1 0 0 0 .226.152.6.6 0 0 0 .19.056h.045a.4.4 0 0 0 .139-.027.4.4 0 0 0 .154-.118.38.38 0 0 0 .093-.24.46.46 0 0 0-.076-.245.4.4 0 0 0-.037-.055m-.185.369a.1.1 0 0 1-.094.033c-.024 0-.1-.02-.261-.155s-.2-.2-.2-.226a.1.1 0 0 1 .013-.1.09.09 0 0 1 .076-.032h.014c.024 0 .1.021.261.155s.2.2.207.238v.024a.1.1 0 0 1-.016.063m.695-.78a.7.7 0 0 1 0-.2l.007-.052-.25-.159-.027.111a1 1 0 0 0-.019.166l-.633-.4-.158.248 1.036.661.117-.183-.026-.043a.4.4 0 0 1-.047-.149m.446-.832a.7.7 0 0 1-.026-.2v-.052l-.267-.129-.014.113a1 1 0 0 0 0 .166l-.676-.326-.124.269 1.107.533.094-.2-.031-.041a.4.4 0 0 1-.063-.133m.012-1.325a.76.76 0 0 0-.5-.04.37.37 0 0 0-.233.243.38.38 0 0 0 0 .258.46.46 0 0 0 .158.2 1 1 0 0 0 .3.147 1 1 0 0 0 .265.063h.059a.6.6 0 0 0 .132-.014.4.4 0 0 0 .164-.088l.032-.034a.4.4 0 0 0 .071-.13.38.38 0 0 0 0-.257.46.46 0 0 0-.157-.2 1 1 0 0 0-.291-.148m.194.518a.1.1 0 0 1-.037.046h-.006l-.034.014a.57.57 0 0 1-.3-.054.6.6 0 0 1-.269-.141.094.094 0 0 1 .054-.159h.039a.9.9 0 0 1 .26.058.6.6 0 0 1 .277.151l.012.021a.1.1 0 0 1 .007.042Zm.573-2.561a.5.5 0 0 0-.169-.1 1 1 0 0 0-.328-.054.77.77 0 0 0-.485.108.37.37 0 0 0-.151.3.38.38 0 0 0 .074.248.46.46 0 0 0 .21.147 1 1 0 0 0 .326.052h.06a1 1 0 0 0 .167-.011l.045-.008a.6.6 0 0 0 .184-.071.4.4 0 0 0 .131-.132.4.4 0 0 0 .05-.179.38.38 0 0 0-.073-.247.4.4 0 0 0-.041-.053m-.161.3a.1.1 0 0 1-.051.063.57.57 0 0 1-.3.037.6.6 0 0 1-.3-.055.1.1 0 0 1-.049-.085c0-.022.007-.051.054-.082a.5.5 0 0 1 .245-.038h.056a.6.6 0 0 1 .309.062.08.08 0 0 1 .037.053v.023Zm-.052-1.221-.026-.045-.295.027.051.106a1 1 0 0 0 .086.143l-.748.067.026.294 1.225-.11-.02-.217-.048-.018a.5.5 0 0 1-.125-.086.8.8 0 0 1-.126-.161m-.545-.985a.77.77 0 0 0-.446.221.4.4 0 0 0 .055.55.46.46 0 0 0 .24.093h.077a1.3 1.3 0 0 0 .252-.03 1.2 1.2 0 0 0 .26-.082.6.6 0 0 0 .162-.113.4.4 0 0 0 .1-.16.4.4 0 0 0 0-.193.4.4 0 0 0-.08-.172.4.4 0 0 0-.05-.051.47.47 0 0 0-.239-.093 1 1 0 0 0-.331.03m.426.323.007.022a.1.1 0 0 1-.033.094.6.6 0 0 1-.284.107.57.57 0 0 1-.3.017c-.052-.022-.064-.049-.068-.071a.1.1 0 0 1 .033-.092.57.57 0 0 1 .284-.108 1 1 0 0 1 .217-.027.3.3 0 0 1 .1.014.1.1 0 0 1 .044.044m-.369-1.175-.28.1.074.092a1 1 0 0 0 .118.118l-.711.242.1.279 1.164-.4-.07-.206-.051-.007a.4.4 0 0 1-.142-.054.7.7 0 0 1-.16-.126Zm-.385-.842-.267.128.085.082a1 1 0 0 0 .131.1l-.677.325.127.265 1.108-.531-.093-.2h-.052a.4.4 0 0 1-.147-.037.7.7 0 0 1-.174-.106Zm-.639-.555a1 1 0 0 0 .142.087l-.634.4.158.249 1.038-.66-.117-.183h-.051a.4.4 0 0 1-.15-.019.7.7 0 0 1-.186-.085l-.044-.028-.25.159Zm-.948-.102a.37.37 0 0 0 .218.138.3.3 0 0 0 .078.008.5.5 0 0 0 .177-.035 1 1 0 0 0 .281-.174 1 1 0 0 0 .192-.193.6.6 0 0 0 .093-.174.4.4 0 0 0 .012-.187.4.4 0 0 0-.086-.173.37.37 0 0 0-.217-.138.46.46 0 0 0-.255.027 1 1 0 0 0-.282.175.77.77 0 0 0-.295.4.37.37 0 0 0 .084.326m.4-.5a.57.57 0 0 1 .274-.156h.01a.08.08 0 0 1 .07.033.1.1 0 0 1 .014.1c-.007.023-.039.091-.2.226s-.237.152-.261.154a.1.1 0 0 1-.093-.032.1.1 0 0 1-.013-.1c.003-.017.035-.086.199-.22Zm-1.394-.672a.36.36 0 0 0 .107.273l.034.032.04.024.021.015h.009a.4.4 0 0 0 .1.04.3.3 0 0 0 .073.01h.008a.46.46 0 0 0 .235-.065 1 1 0 0 0 .244-.222 1 1 0 0 0 .155-.224.6.6 0 0 0 .06-.188.4.4 0 0 0-.022-.185.4.4 0 0 0-.115-.156.38.38 0 0 0-.238-.1.4.4 0 0 0-.061 0 .5.5 0 0 0-.186.075 1 1 0 0 0-.246.223.77.77 0 0 0-.218.448m.446-.254c.132-.156.208-.194.241-.2h.029a.08.08 0 0 1 .055.022.1.1 0 0 1 .032.094c0 .024-.022.1-.16.259s-.2.193-.229.2a.1.1 0 0 1-.1-.015.1.1 0 0 1-.03-.093c.005-.032.025-.105.162-.267m-1.045-.55a.7.7 0 0 0-.086.287.3.3 0 0 0 0 .051.37.37 0 0 0 .177.285.4.4 0 0 0 .213.07h.036a.47.47 0 0 0 .236-.1 1.1 1.1 0 0 0 .216-.25 1 1 0 0 0 .127-.241.6.6 0 0 0 .036-.194.36.36 0 0 0-.044-.181.4.4 0 0 0-.133-.14.37.37 0 0 0-.248-.068.4.4 0 0 0-.06.011.5.5 0 0 0-.176.09 1 1 0 0 0-.217.25 2 2 0 0 0-.077.13m.327.032c.113-.171.183-.218.215-.231a.1.1 0 0 1 .038-.008.1.1 0 0 1 .048.016.1.1 0 0 1 .043.09.6.6 0 0 1-.128.276c-.116.176-.181.216-.2.225a.1.1 0 0 1-.1 0 .1.1 0 0 1-.042-.089c-.002-.027.009-.102.126-.278Zm-1.22-.28a1 1 0 0 0 .151-.294 1 1 0 0 0 .067-.264 1 1 0 0 0 0-.1 1 1 0 0 0-.013-.094.36.36 0 0 0-.082-.167.4.4 0 0 0-.163-.105.37.37 0 0 0-.256-.007.45.45 0 0 0-.206.153 1 1 0 0 0-.152.295.76.76 0 0 0-.048.5.37.37 0 0 0 .239.236.4.4 0 0 0 .142.027.4.4 0 0 0 .116-.02.47.47 0 0 0 .205-.16m-.371-.108a.1.1 0 0 1-.061-.077.6.6 0 0 1 .059-.3.6.6 0 0 1 .154-.275.1.1 0 0 1 .053-.019.1.1 0 0 1 .033.006l.016.008a.1.1 0 0 1 .046.07v.028a.8.8 0 0 1-.063.27 1 1 0 0 1-.05.123.35.35 0 0 1-.1.143.1.1 0 0 1-.087.023m-1.656-.88-.08.747.293.031.131-1.222-.216-.024-.028.044a.4.4 0 0 1-.108.106.8.8 0 0 1-.183.092l-.049.017-.031.295.114-.029a1 1 0 0 0 .157-.057m-.835.735h.008a.37.37 0 0 0 .244-.085.4.4 0 0 0 .065-.073.5.5 0 0 0 .072-.144 1 1 0 0 0 .03-.142v-.183a1 1 0 0 0-.03-.27 1 1 0 0 0-.034-.1 1 1 0 0 0-.045-.083.36.36 0 0 0-.139-.125.4.4 0 0 0-.189-.042.38.38 0 0 0-.243.085.46.46 0 0 0-.138.216 1 1 0 0 0-.038.33.76.76 0 0 0 .13.48.37.37 0 0 0 .307.136m-.083-.933.016-.019a.08.08 0 0 1 .06-.023.1.1 0 0 1 .084.05.56.56 0 0 1 .051.3v.136c0 .036-.007.064-.011.087v.007l-.005.023v.023l-.013.025a.1.1 0 0 1-.083.053.1.1 0 0 1-.084-.05.6.6 0 0 1-.051-.3.6.6 0 0 1 .036-.312m-2.323.667a1 1 0 0 0 .12-.115l.231.715.281-.09-.379-1.17-.207.067-.007.05a.4.4 0 0 1-.056.141.7.7 0 0 1-.129.159l-.038.036.091.282Zm-.825.352a1 1 0 0 0 .105-.129l.314.682.268-.123-.515-1.117-.2.091v.051a.4.4 0 0 1-.038.147.7.7 0 0 1-.109.173l-.034.04.124.269Zm-.559.963a.4.4 0 0 0 .127.023.4.4 0 0 0 .207-.062.37.37 0 0 0 .166-.2.46.46 0 0 0 .008-.256 1 1 0 0 0-.135-.3 1.2 1.2 0 0 0-.165-.22.6.6 0 0 0-.161-.115.4.4 0 0 0-.182-.036.42.42 0 0 0-.323.2.3.3 0 0 0-.027.057.47.47 0 0 0-.008.257 1 1 0 0 0 .136.3.76.76 0 0 0 .357.352m-.175-.87.015-.008h.009A.12.12 0 0 1 8 5.523c.022.009.085.05.2.232a.6.6 0 0 1 .118.279.1.1 0 0 1-.044.088.1.1 0 0 1-.1 0c-.022-.009-.086-.051-.2-.232a1 1 0 0 1-.085-.16.3.3 0 0 1-.033-.132.09.09 0 0 1 .044-.075M6.493 7.027a1 1 0 0 0 .053-.158l.534.528.207-.209-.874-.865-.153.155.017.049a.4.4 0 0 1 .015.151.7.7 0 0 1-.041.2l-.018.049.211.208ZM5.161 8.178a.7.7 0 0 1 .008.2v.052l.254.152.022-.116a1 1 0 0 0 .014-.166l.644.385.152-.253L5.2 7.808l-.112.187.028.043a.4.4 0 0 1 .045.14m8.871 3.267a1.08 1.08 0 0 0-.733-.252 1.13 1.13 0 0 0-.681.206.9.9 0 0 0-.344.772.92.92 0 0 0 .288.726 1.07 1.07 0 0 0 .737.252 1.2 1.2 0 0 0 .521-.113 1 1 0 0 0 .115-.064.8.8 0 0 0 .259-.262 1.07 1.07 0 0 0 .129-.563q.001-.056-.005-.108a.86.86 0 0 0-.286-.594m-.368 1.159a.5.5 0 0 1-.365.141 1 1 0 0 1-.106-.008.5.5 0 0 1-.26-.132.47.47 0 0 1-.124-.235 1 1 0 0 1-.02-.2.58.58 0 0 1 .143-.433.547.547 0 0 1 .732 0 .57.57 0 0 1 .144.422.6.6 0 0 1-.144.445m-1.524.082a1 1 0 0 1-.14.011.2.2 0 0 1-.078-.012.05.05 0 0 1-.023-.019.4.4 0 0 1-.01-.124v-.92h.343v-.39h-.343v-.654l-.5.259v.392h-.25v.39h.25v.9a.84.84 0 0 0 .051.38.38.38 0 0 0 .18.168.75.75 0 0 0 .325.058 1.6 1.6 0 0 0 .272-.027l.082-.014-.08-.414Zm-2.631-1.962a.9.9 0 0 0-.33.432 2 2 0 0 0-.107.7 1.47 1.47 0 0 0 .3 1.018.9.9 0 0 0 .691.271 1 1 0 0 0 .158-.01.86.86 0 0 0 .394-.144.9.9 0 0 0 .268-.3 1 1 0 0 0 .062-.131 2 2 0 0 0 .106-.7 2 2 0 0 0-.066-.583 1.2 1.2 0 0 0-.186-.378.8.8 0 0 0-.31-.246 1 1 0 0 0-.426-.084.95.95 0 0 0-.554.155m1.023 1.137a1.2 1.2 0 0 1-.141.722.41.41 0 0 1-.332.164.41.41 0 0 1-.331-.163 1.2 1.2 0 0 1-.141-.723 1.26 1.26 0 0 1 .157-.746.38.38 0 0 1 .311-.14.42.42 0 0 1 .336.163 1.2 1.2 0 0 1 .141.723m-2.44.795a1.1 1.1 0 0 1-.345.049 1.1 1.1 0 0 1-.4-.065.54.54 0 0 1-.244-.158.53.53 0 0 1-.1-.251L7 12.154l-.5.037v.079a.8.8 0 0 0 .17.473.95.95 0 0 0 .436.309 2 2 0 0 0 .66.1 1.6 1.6 0 0 0 .565-.1 1 1 0 0 0 .17-.086 1 1 0 0 0 .152-.114 1 1 0 0 0 .078-.087.66.66 0 0 0 .144-.405.6.6 0 0 0-.134-.388.8.8 0 0 0-.269-.211 1 1 0 0 0-.123-.056 4 4 0 0 0-.629-.155 1.5 1.5 0 0 1-.52-.153.17.17 0 0 1-.075-.144.22.22 0 0 1 .116-.183.8.8 0 0 1 .44-.09.77.77 0 0 1 .436.1.38.38 0 0 1 .158.281l.01.077.51-.032v-.081a.72.72 0 0 0-.153-.419.86.86 0 0 0-.4-.277 1.6 1.6 0 0 0-.416-.084c-.05 0-.1-.005-.156-.005a1.6 1.6 0 0 0-.537.085.8.8 0 0 0-.387.264.63.63 0 0 0-.146.389.56.56 0 0 0 .114.343.8.8 0 0 0 .328.246 3 3 0 0 0 .554.154q.376.077.485.113a.5.5 0 0 1 .215.116.2.2 0 0 1 .054.139.23.23 0 0 1-.059.15.44.44 0 0 1-.199.117M19.778 2.167H4.222a2.2 2.2 0 0 0-.56.072l-.03.008a2 2 0 0 0-.178.057l-.048.02q-.054.022-.1.046l-.049.023c-.042.02-.091.044-.139.071A2.23 2.23 0 0 0 2 4.389v15.222a2.224 2.224 0 0 0 2.222 2.222h15.556A2.224 2.224 0 0 0 22 19.611V4.389a2.225 2.225 0 0 0-2.222-2.222m1.893 17.444a1.9 1.9 0 0 1-1.893 1.893H4.222a1.9 1.9 0 0 1-1.893-1.893V4.389a1.9 1.9 0 0 1 1.893-1.893h15.556a1.9 1.9 0 0 1 1.893 1.893ZM13.59 4.75l-.169.732.287.066.277-1.2-.212-.049-.032.04a.4.4 0 0 1-.121.092.7.7 0 0 1-.192.07l-.051.011-.066.288.117-.014a1 1 0 0 0 .162-.036M5.851 7.929a.77.77 0 0 0 .452.2.37.37 0 0 0 .303-.151.38.38 0 0 0 .086-.244.47.47 0 0 0-.084-.242 1 1 0 0 0-.233-.235 1.2 1.2 0 0 0-.23-.145.6.6 0 0 0-.191-.051h-.048a.4.4 0 0 0-.136.032.4.4 0 0 0-.15.122.37.37 0 0 0-.086.242.46.46 0 0 0 .083.243 1 1 0 0 0 .234.229m-.029-.533.012-.018.012-.012h.006l.012-.007h.008l.017-.006h.038c.024 0 .1.017.265.147s.2.2.209.22a.094.094 0 0 1-.1.133c-.024 0-.1-.018-.265-.148s-.2-.2-.214-.231a.1.1 0 0 1 0-.078m1.199-.798a.77.77 0 0 0 .4.3.4.4 0 0 0 .087.01.38.38 0 0 0 .24-.09.37.37 0 0 0 .141-.216.46.46 0 0 0-.023-.255 1 1 0 0 0-.17-.283 1 1 0 0 0-.19-.2.6.6 0 0 0-.173-.1.4.4 0 0 0-.139-.02h-.047l-.047.028a.4.4 0 0 0-.2.144.4.4 0 0 0-.07.142.47.47 0 0 0 .023.255 1 1 0 0 0 .168.285m.116-.541a.08.08 0 0 1 .055-.019.2.2 0 0 1 .043.006c.023.007.091.041.223.207s.149.24.15.264a.094.094 0 0 1-.131.1c-.023-.007-.09-.041-.222-.207a.57.57 0 0 1-.155-.272.09.09 0 0 1 .037-.079m3.448-1.062a1 1 0 0 0 .065.181.5.5 0 0 0 .093.13.36.36 0 0 0 .258.1h.063a.37.37 0 0 0 .232-.113.45.45 0 0 0 .111-.231 1 1 0 0 0 0-.331 1 1 0 0 0-.062-.265.6.6 0 0 0-.1-.17.4.4 0 0 0-.153-.107.4.4 0 0 0-.192-.021.37.37 0 0 0-.27.161.5.5 0 0 0-.072.183 1 1 0 0 0-.013.149 1.4 1.4 0 0 0 .014.183 2 2 0 0 0 .026.151m.278-.506.007-.011.006-.008.01-.01h.024l.023-.006h.043l.015.008h.008l.025.022a.6.6 0 0 1 .086.291.6.6 0 0 1-.006.3.1.1 0 0 1-.076.062h-.018a.1.1 0 0 1-.072-.041.6.6 0 0 1-.085-.291c0-.025-.006-.049-.008-.071v-.107a.3.3 0 0 1 .018-.138M4.749 9.323a1 1 0 0 0 .282.174.9.9 0 0 0 .38.1.4.4 0 0 0 .111-.013.37.37 0 0 0 .253-.221.37.37 0 0 0 .025-.257.46.46 0 0 0-.138-.217 1 1 0 0 0-.281-.173 1 1 0 0 0-.258-.086.6.6 0 0 0-.2 0 .4.4 0 0 0-.171.072l-.035.031a.4.4 0 0 0-.083.123.4.4 0 0 0-.037.194.3.3 0 0 0 .011.062.45.45 0 0 0 .141.211m.136-.359a.1.1 0 0 1 .082-.056h.02a.7.7 0 0 1 .273.083c.193.086.242.144.254.165a.1.1 0 0 1 .013.1.1.1 0 0 1-.081.055.57.57 0 0 1-.293-.081.6.6 0 0 1-.262-.175l-.01-.022a.08.08 0 0 1 .004-.069m2.365 8.245a.37.37 0 0 0-.114-.316.4.4 0 0 0-.108-.082.4.4 0 0 0-.121-.036.46.46 0 0 0-.252.05 1 1 0 0 0-.263.2 1 1 0 0 0-.175.208.6.6 0 0 0-.076.183.4.4 0 0 0 0 .186.4.4 0 0 0 .1.166.38.38 0 0 0 .229.117h.042a.5.5 0 0 0 .209-.052 1 1 0 0 0 .265-.2l.056-.057a.7.7 0 0 0 .2-.369Zm-.285-.03c0 .024-.031.094-.182.243a.6.6 0 0 1-.258.181.08.08 0 0 1-.083-.026.1.1 0 0 1-.023-.1c0-.024.03-.095.182-.244q.054-.052.1-.087a.4.4 0 0 1 .15-.09h.03a.1.1 0 0 1 .066.026l.011.014a.1.1 0 0 1 .014.046Zm8.491-4.03a1.2 1.2 0 0 0 .521-.113.86.86 0 0 0 .374-.326 1.07 1.07 0 0 0 .129-.563v-.108a.86.86 0 0 0-.286-.594 1.08 1.08 0 0 0-.733-.252h-.1a1.1 1.1 0 0 0-.583.2.9.9 0 0 0-.344.772.92.92 0 0 0 .288.726 1.07 1.07 0 0 0 .734.258m-.367-1.411a.5.5 0 0 1 .367-.14.5.5 0 0 1 .364.141.56.56 0 0 1 .145.422.6.6 0 0 1-.144.443.5.5 0 0 1-.365.141 1 1 0 0 1-.107-.008.5.5 0 0 1-.26-.132.47.47 0 0 1-.123-.235 1 1 0 0 1-.02-.2.58.58 0 0 1 .143-.432m4.591 1.168a1 1 0 0 0-.319-.092.76.76 0 0 0-.5.048.406.406 0 0 0-.142.535.46.46 0 0 0 .191.171 1 1 0 0 0 .318.092 1.4 1.4 0 0 0 .2.018h.069a.6.6 0 0 0 .191-.049.35.35 0 0 0 .146-.116l.026-.039a.4.4 0 0 0 .046-.14.38.38 0 0 0-.043-.254.46.46 0 0 0-.183-.174m-.1.459a1 1 0 0 1-.594-.091.1.1 0 0 1-.038-.09c0-.022.013-.05.063-.075a.3.3 0 0 1 .116-.017 1 1 0 0 1 .188.017.6.6 0 0 1 .3.1.09.09 0 0 1 .029.081.1.1 0 0 1-.063.075ZM14.8 5.8a.37.37 0 0 0 .21.263.4.4 0 0 0 .18.045.4.4 0 0 0 .075-.008.46.46 0 0 0 .222-.13 1 1 0 0 0 .185-.273 1.2 1.2 0 0 0 .1-.255.6.6 0 0 0 .013-.2.4.4 0 0 0-.065-.174.4.4 0 0 0-.149-.124.37.37 0 0 0-.254-.037.46.46 0 0 0-.222.129l-.058.066-.042.059a1 1 0 0 0-.086.15.76.76 0 0 0-.109.489m.283-.116a1 1 0 0 1 .09-.237c.092-.183.156-.238.186-.254a.1.1 0 0 1 .041-.015.1.1 0 0 1 .04.01.1.1 0 0 1 .06.09.57.57 0 0 1-.093.289c-.1.189-.154.236-.176.248a.093.093 0 0 1-.149-.075.14.14 0 0 1-.001-.056Z"/></svg>