<?xml version="1.0" encoding="UTF-8"?>
<svg width="24px" fill="#44739e" height="24px" viewBox="0 0 24 24" version="1.1" xmlns="http://www.w3.org/2000/svg" xmlns:xlink="http://www.w3.org/1999/xlink">
            <path d="m 12,3.472 a 10.025,10.025 0 0 0 -10,10 9.646,9.646 0 0 0 2.946,7.056 l 1.4,-1.4 A 7.838,7.838 0 0 1 4.021,13.469 7.974,7.974 0 0 1 11.982,5.483 H 12 a 7.974,7.974 0 0 1 7.984,7.963 v 0.022 a 8.311,8.311 0 0 1 -2.325,5.659 l 1.395,1.4 A 9.977,9.977 0 0 0 12,3.472 Z M 9.984,13.705 11.69,15.488 16.652,9.829 15.643,8.744 Z"/>

</svg>