<svg xmlns="http://www.w3.org/2000/svg" viewBox="0 0 24 24"><path fill="#44739e" d="m12 4.668 8.93 5.156V8.005a2.01 2.01 0 0 0-1.005-1.74l-6.919-3.996a2.01 2.01 0 0 0-2.01 0L4.075 6.264A2.01 2.01 0 0 0 3.07 8.005v2.282l1.606.927c.366.212.592.603.592 1.027v1.151c0 .412.22.792.576.998l6.157 3.554 5.147-2.972v-1.471l-6.472-3.737 1.325-.765 5.757 3.324c.366.212.593.602.593 1.026v2.317l-6.35 3.666-8.931-5.155v1.819c0 .717.384 1.381 1.005 1.74l6.92 3.995a2.01 2.01 0 0 0 2.01 0l6.92-3.995a2.01 2.01 0 0 0 1.005-1.74v-2.282l-1.606-.927a1.19 1.19 0 0 1-.592-1.027v-1.152c0-.411-.22-.791-.576-.997l-6.157-3.554-5.146 2.972v1.47l6.472 3.737-1.325.765-5.757-3.324a1.19 1.19 0 0 1-.593-1.026V8.334Z"/></svg>