<?xml version="1.0" encoding="UTF-8"?>
<svg width="24px" fill="#44739e" height="24px" viewBox="0 0 24 24" version="1.1" xmlns="http://www.w3.org/2000/svg" xmlns:xlink="http://www.w3.org/1999/xlink">
            <path d="m 18.039,19.99 -1.524,0.319 0.25,1.2 a 0.522,0.522 0 0 0 0.618,0.4 l 0.5,-0.105 a 0.522,0.522 0 0 0 0.4,-0.618 z M 5.7,21.329 a 0.522,0.522 0 0 0 0.4,0.618 l 0.5,0.105 a 0.522,0.522 0 0 0 0.618,-0.4 l 0.25,-1.2 -1.524,-0.319 z M 12.826,9.1 c 0.28,0 0.308,-0.452 0.308,-0.647 0,-0.195 -0.028,-0.646 -0.308,-0.646 -0.28,0 -0.31,0.452 -0.309,0.646 0.001,0.194 0.028,0.647 0.309,0.647 z m 0.795,0.49 A 0.175,0.175 0 0 0 13.421,9.727 1.483,1.483 0 0 1 10.5,9.7 0.174,0.174 0 1 0 10.157,9.758 1.833,1.833 0 0 0 13.767,9.786 0.178,0.178 0 0 0 13.621,9.59 Z M 11.069,9.1 c 0.28,0 0.309,-0.452 0.309,-0.647 0,-0.195 -0.029,-0.646 -0.309,-0.646 -0.28,0 -0.309,0.452 -0.309,0.646 0,0.194 0.029,0.647 0.309,0.647 z M 11.968,3.91 A 6.015,6.015 0 0 0 5.686,9.616 6.015,6.015 0 0 0 11.968,15.322 6.015,6.015 0 0 0 18.25,9.616 6.015,6.015 0 0 0 11.968,3.91 Z m -0.007,8.19 a 2.792,2.792 0 1 1 2.793,-2.8 2.8,2.8 0 0 1 -2.793,2.8 z m 0.03,-10.037 h -0.023 a 9.926,9.926 0 0 0 -9.926,9.926 9.815,9.815 0 0 0 3.742,7.9 19.807,19.807 0 0 0 5.437,0.853 v 0.618 a 0.522,0.522 0 0 0 0.522,0.522 h 0.514 A 0.522,0.522 0 0 0 12.779,21.36 V 20.7 A 22.124,22.124 0 0 0 18.205,19.726 9.925,9.925 0 0 0 11.991,2.063 Z M 9.6,18.9 H 9.07 a 0.221,0.221 0 1 1 0,-0.441 H 9.6 a 0.221,0.221 0 1 1 0,0.441 z m 1.887,-0.22 a 0.22,0.22 0 0 1 0.22,-0.221 h 0.533 a 0.221,0.221 0 0 1 0,0.441 h -0.533 a 0.22,0.22 0 0 1 -0.218,-0.225 z m 3.377,0.22 h -0.533 a 0.221,0.221 0 0 1 0,-0.441 h 0.533 a 0.221,0.221 0 0 1 0,0.441 z m -2.9,-2.274 c -4.26,0 -7.713,-3.136 -7.713,-7 0,-3.864 3.453,-7 7.713,-7 4.26,0 7.712,3.136 7.712,7 0,3.864 -3.449,6.995 -7.708,6.995 z"/>

</svg>