<svg xmlns="http://www.w3.org/2000/svg" viewBox="0 0 24 24"><path fill="#44739e" d="M12 15.149c3.98 0 7.219-2.319 7.219-5.169S15.98 4.811 12 4.811 4.781 7.13 4.781 9.98 8.02 15.149 12 15.149m5.653-3.652-.711 1.027-.115-.035.743-1.034Zm-.161-.373-.892 1.317-.116-.035.927-1.324Zm-1.241 1.235-.115-.035.788-1.1.083.042Zm-6.8-2.525.082.042-.533.748-.113-.035Zm-.8.708-.115-.034.743-1.034.083.042Zm1.539-1.245.084.042-.926 1.366-.116-.034Zm.628-.366.085.043-1.21 1.814-.117-.034Zm.209.301.085.042-1.074 1.599-.116-.035Zm.082-2.105a.27.27 0 0 1 .237-.092c.075.018.078.077.016.148a.27.27 0 0 1-.236.088c-.074-.016-.078-.074-.017-.144m.117 2.419.084.042-.927 1.366-.116-.034Zm.811-.655.085.042-1.394 2.1-.117-.035Zm.4 0 .085.042-1.446 2.187-.118-.035Zm.109.455.085.043-1.21 1.814-.121-.035Zm.23.265.085.043-1.1 1.631-.117-.034Zm.283.182.084.043-1.034 1.532-.116-.035Zm.07.518.083.042-.756 1.1-.115-.034Zm.159.378.083.041-.569.8-.114-.035Zm.345.082.083.042-.569.8-.114-.035Zm.067-3.045a.27.27 0 0 1 .24-.091c.073.017.073.079.008.151a.27.27 0 0 1-.238.089c-.069-.017-.069-.077-.01-.149m.555 2.68.084.042-.849 1.25-.116-.034Zm.477-.125.084.042-.985 1.458-.116-.035Zm.57-.274.085.042-1.207 1.814-.116-.034Zm.209.3.084.042-1.073 1.6-.117-.035Zm.052.547.083.042-.779 1.134-.111-.032Zm.2.307.082.042-.637.91-.114-.035Zm.13.423.081.041-.421.57-.111-.034Zm.471-.117.082.042-.548.769-.113-.035Zm-.139-4.435a1 1 0 0 1 .51-.039c.292.07.232.288.054.471a2.9 2.9 0 0 1-1.122.571l-.2.067.6.149-.138.144-.849-.213.1-.105.267-.1a3.1 3.1 0 0 0 1.141-.544c.126-.129.175-.265-.027-.313a.8.8 0 0 0-.392.039Zm-1.078-.25a1 1 0 0 1 .511-.039c.295.068.239.284.065.465a2.9 2.9 0 0 1-1.115.568l-.2.067.6.147-.135.142-.857-.21.1-.1.266-.095a3 3 0 0 0 1.134-.541c.123-.128.17-.263-.034-.31a.8.8 0 0 0-.392.04Zm-.565.172c.074.017.075.079.009.151a.27.27 0 0 1-.24.091c-.073-.017-.075-.081-.01-.149a.28.28 0 0 1 .249-.095Zm-.963-.516a1 1 0 0 1 .512-.04c.3.066.248.28.079.459a2.8 2.8 0 0 1-1.105.563l-.2.067.611.144-.132.14-.868-.2.1-.1.265-.095a3 3 0 0 0 1.124-.536c.121-.127.164-.26-.043-.306a.84.84 0 0 0-.394.04Zm-.551-.273c.295.064.243.334-.128.731-.395.422-.785.615-1.088.546-.268-.062-.242-.329.132-.738a1.31 1.31 0 0 1 1.092-.541Zm-1.112.2c.076.016.079.076.016.147a.27.27 0 0 1-.237.09c-.075-.017-.08-.079-.018-.146a.27.27 0 0 1 .247-.089Zm-.771-.577.677.141-.129.14-.533-.111-.343.3a1 1 0 0 1 .122.017.4.4 0 0 1 .242.13c.059.079.052.2-.09.359a1.01 1.01 0 0 1-.9.305.45.45 0 0 1-.279-.151l.162-.116a.4.4 0 0 0 .236.133.65.65 0 0 0 .574-.194c.143-.159.126-.3-.154-.358a2 2 0 0 0-.207-.028Zm-1.018-.026-.351.064.084-.129.441-.079.165.033L9.4 6.866l-.183-.04.962-1.062Zm-.96 3.381-.9 1.317-.107-.035.923-1.327Zm-.235-.257-1 1.491-.116-.034 1.037-1.5Zm-.214-.289-1.136 1.7-.117-.035 1.169-1.709Zm-.558.247-.927 1.367-.113-.034.959-1.375Zm-.666.424-.606.86-.111-.031.637-.868Zm-.474.129-.474.653-.112-.035.5-.66Zm-.473.116-.346.454-.11-.035.376-.46Zm-.218-.286-.469.654-.113-.035.5-.66Zm-.191-.5.084.042-.712 1.028-.114-.034Zm-.2 1.883c-.054-.034-.051-.092-.049-.144a.5.5 0 0 0-.007-.128c-.021-.1-.089-.223-.156-.238s-.145.067-.206.126-.127.123-.193.085-.066-.137.012-.374l.12.039a2 2 0 0 0-.05.181l.024-.022c.081-.079.192-.186.32-.158.151.033.231.233.253.335a.6.6 0 0 1 .009.16v.025a.7.7 0 0 0 .15-.1 1 1 0 0 0 .125-.119.3.3 0 0 1 .156-.111.28.28 0 0 1 .287.065c.052.072.022.151-.024.269-.025.067-.057.15-.09.263q-.065.229-.035.274a.19.19 0 0 0 .2.058c.043-.015.06-.044.1-.126a1.6 1.6 0 0 1 .14-.234.62.62 0 0 1 .4-.311.35.35 0 0 1 .3.106c.062.083.051.176-.085.708a1 1 0 0 0-.039.301c0 .099.006.179.046.212s.186.019.339-.061c.1-.054.146-.107.316-.308l.079-.086c.282-.33.37-.419.518-.468a.7.7 0 0 1 .315-.03.7.7 0 0 1 .483.276c.078.135.047.244-.082.699l-.062.219a1.8 1.8 0 0 0-.121.58c0 .006.031.5.27.57a.45.45 0 0 0 .343-.1.8.8 0 0 0 .287-.324 2.5 2.5 0 0 1 .885-.916 1.5 1.5 0 0 1 .526-.227.68.68 0 0 1 .509.035.62.62 0 0 1 .262.442.53.53 0 0 1-.043.267 1 1 0 0 0-.066.291c-.012.151-.021.25.04.322a.35.35 0 0 0 .343.076c.081-.023.117-.068.26-.25l.076-.1c.343-.432.446-.51.537-.561a.64.64 0 0 1 .5-.1.56.56 0 0 1 .371.385.54.54 0 0 1-.065.384 3 3 0 0 0-.14.387c-.08.278-.113.406-.069.535a.545.545 0 0 0 .508.366c.148-.012.244-.123.447-.372a3 3 0 0 0 .315-.471 1.2 1.2 0 0 1 .38-.455.9.9 0 0 1 .469-.174.8.8 0 0 1 .383.073l-.051.115a.7.7 0 0 0-.326-.062.8.8 0 0 0-.4.152 1.1 1.1 0 0 0-.342.414 3.3 3.3 0 0 1-.326.488c-.2.25-.327.4-.535.418h-.038a.68.68 0 0 1-.6-.453 1 1 0 0 1 .067-.611 3 3 0 0 1 .144-.401c.059-.14.086-.199.06-.3a.44.44 0 0 0-.284-.3.52.52 0 0 0-.4.09c-.074.041-.172.116-.5.529l-.076.1c-.146.187-.2.257-.324.293a.46.46 0 0 1-.475-.116.54.54 0 0 1-.069-.413 1.1 1.1 0 0 1 .074-.325.4.4 0 0 0 .035-.209.5.5 0 0 0-.2-.348.57.57 0 0 0-.419-.02 1.4 1.4 0 0 0-.483.21 2.4 2.4 0 0 0-.612.532 2.5 2.5 0 0 0-.233.341.9.9 0 0 1-.328.368.56.56 0 0 1-.448.116c-.316-.1-.354-.625-.357-.684a1.9 1.9 0 0 1 .124-.62l.062-.22c.123-.434.144-.518.094-.605a.58.58 0 0 0-.389-.214.6.6 0 0 0-.258.024c-.113.038-.182.1-.463.432l-.075.087a1.2 1.2 0 0 1-.353.336c-.122.065-.347.158-.479.048a.4.4 0 0 1-.091-.306 1.1 1.1 0 0 1 .043-.329c.122-.479.131-.57.106-.6-.052-.07-.187-.057-.188-.057-.128.013-.217.134-.31.261a1.3 1.3 0 0 0-.13.216c-.044.087-.079.156-.174.188a.315.315 0 0 1-.345-.106c-.039-.058-.049-.142.019-.38.034-.118.068-.208.093-.273s.051-.133.039-.15a.17.17 0 0 0-.15-.017.2.2 0 0 0-.1.073 1 1 0 0 1-.141.134c-.093.069-.217.167-.307.111Zm6.013-3.298c.19.043.467-.137.763-.454s.385-.526.19-.568c-.166-.036-.453.117-.766.454s-.357.529-.187.568M12 17.297c5.514 0 10-3.253 10-7.251s-4.486-7.25-10-7.25S2 6.043 2 10.041s4.486 7.256 10 7.256M6.405 5.752a9.52 9.52 0 0 1 5.6-1.7 9.52 9.52 0 0 1 5.595 1.7 5.27 5.27 0 0 1 2.381 4.228 5.27 5.27 0 0 1-2.381 4.228 9.52 9.52 0 0 1-5.6 1.698 9.52 9.52 0 0 1-5.595-1.699A5.27 5.27 0 0 1 4.024 9.98a5.27 5.27 0 0 1 2.381-4.228m13.007 9.703a12.84 12.84 0 0 1-7.445 2.216 12.84 12.84 0 0 1-7.444-2.215A7.8 7.8 0 0 1 2 12.574l.116 1.63v.023c0 3.814 4.433 6.976 9.819 6.976s9.993-3.148 9.993-6.962L22 12.437a7.7 7.7 0 0 1-2.588 3.018"/></svg>