<svg xmlns="http://www.w3.org/2000/svg" viewBox="0 0 24 24"><path fill="#44739e" d="M12 12.311c3.321 0 6.023-1.934 6.023-4.312S15.321 3.686 12 3.686 5.977 5.621 5.977 8 8.679 12.311 12 12.311m4.717-3.047-.593.856-.1-.029.62-.862Zm-.134-.311-.747 1.1-.1-.028.774-1.105Zm-1.036 1.03-.1-.029.658-.922.069.035ZM9.876 7.876l.069.035-.445.625-.1-.029Zm-.665.591-.1-.029.62-.863.069.035Zm1.279-1.038.07.036-.773 1.14-.1-.029Zm.524-.3.071.035-1.01 1.514-.1-.029Zm.175.248.07.036-.9 1.334-.1-.029Zm.067-1.756a.23.23 0 0 1 .2-.075c.063.013.065.064.013.123a.22.22 0 0 1-.2.074c-.06-.018-.064-.071-.013-.126Zm.1 2.019.07.035-.773 1.14-.1-.028Zm.677-.547.071.035-1.165 1.752-.1-.028Zm.332 0 .071.035-1.209 1.821-.1-.028Zm.091.38.071.035-1.01 1.514-.1-.029Zm.192.221.071.035-.919 1.358-.1-.029Zm.236.152.07.035-.861 1.279-.1-.029Zm.058.432.07.035-.631.916-.1-.029Zm.133.315.069.035-.475.67-.1-.029Zm.288.069.069.035-.475.67-.1-.029Zm.061-2.541a.23.23 0 0 1 .2-.076c.061.014.061.066.007.126a.23.23 0 0 1-.2.075c-.061-.019-.062-.072-.009-.129Zm.463 2.236.07.035-.712 1.043-.1-.028Zm.4-.1.07.035-.826 1.208-.1-.028Zm.476-.229.07.035-1.01 1.514-.1-.029Zm.174.249L15 8.3l-.9 1.334-.1-.029Zm.043.456.07.035-.651.947-.1-.029Zm.17.256.069.035-.532.76-.1-.029Zm.109.353.067.035-.351.476-.092-.029Zm.393-.1.069.035-.458.642-.094-.029Zm-.116-3.7a.84.84 0 0 1 .425-.032c.244.058.194.24.046.393a2.45 2.45 0 0 1-.937.476l-.164.056.5.125-.115.12-.717-.18.084-.088.223-.08a2.55 2.55 0 0 0 .952-.453c.105-.108.146-.222-.022-.262a.7.7 0 0 0-.327.033Zm-.9-.208a.84.84 0 0 1 .426-.033c.246.057.2.237.054.389a2.4 2.4 0 0 1-.93.473l-.164.056.5.123-.113.118-.715-.174.083-.087.223-.083a2.5 2.5 0 0 0 .946-.451c.1-.107.142-.219-.028-.259a.7.7 0 0 0-.328.033Zm-.472.144c.062.014.063.065.008.125a.23.23 0 0 1-.2.076c-.061-.014-.062-.068-.008-.124a.23.23 0 0 1 .197-.083Zm-.8-.432a.9.9 0 0 1 .428-.033c.249.055.207.234.065.383a2.34 2.34 0 0 1-.921.47l-.163.056.51.12-.111.117-.724-.171.081-.086.221-.079a2.5 2.5 0 0 0 .938-.447c.1-.106.136-.217-.036-.256a.7.7 0 0 0-.328.034Zm-.464-.233c.246.053.2.279-.107.61-.33.352-.655.513-.908.455-.224-.051-.2-.274.11-.616a1.1 1.1 0 0 1 .905-.449m-.928.17c.063.014.066.064.014.123a.23.23 0 0 1-.2.075c-.062-.014-.066-.066-.015-.122a.23.23 0 0 1 .199-.076Zm-.645-.483.564.118-.107.117-.45-.095-.286.253a1 1 0 0 1 .1.014.33.33 0 0 1 .2.109c.05.066.044.171-.075.3a.84.84 0 0 1-.751.254.38.38 0 0 1-.233-.126l.135-.1a.34.34 0 0 0 .2.11.54.54 0 0 0 .476-.154c.119-.133.105-.249-.129-.3a2 2 0 0 0-.172-.024Zm-.85-.022-.293.053.064-.11.368-.067.137.028L9.832 5.4l-.153-.033.8-.886ZM9.67 7.3l-.747 1.1-.1-.029.774-1.1Zm-.2-.214-.835 1.243-.1-.029.865-1.25Zm-.17-.243L8.347 8.26l-.1-.028.976-1.424Zm-.463.208-.773 1.14-.1-.028.8-1.147Zm-.561.349-.5.719-.095-.029.531-.725Zm-.4.1-.4.546-.094-.029.421-.551Zm-.4.1-.289.379-.087-.024.314-.384ZM7.3 7.371l-.4.545-.093-.029.421-.551Zm-.16-.416.07.035-.594.857-.1-.029Zm-.163 1.572c-.045-.028-.043-.077-.041-.12a.4.4 0 0 0 0-.107c-.019-.086-.075-.187-.131-.2s-.121.056-.171.1-.107.1-.162.072-.055-.115.01-.313l.1.033a1 1 0 0 0-.041.151l.019-.019c.068-.065.161-.155.268-.132.126.028.193.195.211.28a.5.5 0 0 1 .007.134v.021a.6.6 0 0 0 .125-.083 1 1 0 0 0 .1-.1.27.27 0 0 1 .13-.092.23.23 0 0 1 .239.054c.043.061.018.126-.019.225a2 2 0 0 0-.075.219c-.037.127-.047.2-.03.229a.16.16 0 0 0 .167.048c.036-.012.05-.037.085-.105a1.3 1.3 0 0 1 .117-.2.51.51 0 0 1 .333-.26.3.3 0 0 1 .252.089c.052.069.042.146-.071.591a1 1 0 0 0-.032.247c0 .08 0 .149.038.177s.155.016.283-.052c.083-.044.121-.089.263-.255l.062-.059c.235-.275.308-.349.432-.391a.6.6 0 0 1 .263-.025.58.58 0 0 1 .4.231c.065.113.039.2-.069.586l-.051.182a1.5 1.5 0 0 0-.1.484s.026.414.225.476a.38.38 0 0 0 .286-.085.67.67 0 0 0 .24-.272 2 2 0 0 1 .2-.3 2.1 2.1 0 0 1 .535-.466 1.3 1.3 0 0 1 .439-.19.57.57 0 0 1 .425.03.52.52 0 0 1 .218.369.44.44 0 0 1-.035.222.8.8 0 0 0-.056.243c-.01.126-.017.209.034.269a.29.29 0 0 0 .286.063c.067-.02.1-.057.217-.208l.064-.081c.285-.361.371-.426.447-.469a.54.54 0 0 1 .416-.084.47.47 0 0 1 .31.322.46.46 0 0 1-.055.319 3 3 0 0 0-.116.323c-.067.232-.1.339-.058.446a.45.45 0 0 0 .424.306c.123-.01.2-.1.373-.311a2.6 2.6 0 0 0 .262-.392 1 1 0 0 1 .317-.38.77.77 0 0 1 .392-.146.7.7 0 0 1 .32.062l-.043.1a.6.6 0 0 0-.272-.053.66.66 0 0 0-.337.128.9.9 0 0 0-.285.345 2.7 2.7 0 0 1-.273.407c-.17.208-.272.334-.446.349h-.032a.57.57 0 0 1-.5-.378.84.84 0 0 1 .056-.509 3 3 0 0 1 .121-.335.36.36 0 0 0 .05-.252.37.37 0 0 0-.237-.247.44.44 0 0 0-.335.075c-.061.034-.144.1-.417.442l-.063.081c-.122.155-.168.214-.27.244a.39.39 0 0 1-.4-.1.45.45 0 0 1-.058-.346 1 1 0 0 1 .062-.27.33.33 0 0 0 .03-.175.42.42 0 0 0-.169-.29.47.47 0 0 0-.349-.016 1.1 1.1 0 0 0-.4.174 2 2 0 0 0-.7.729.8.8 0 0 1-.274.307.46.46 0 0 1-.373.1c-.264-.082-.3-.52-.3-.57a1.6 1.6 0 0 1 .1-.518l.052-.183c.1-.362.12-.432.079-.505a.5.5 0 0 0-.541-.158c-.094.031-.151.085-.386.36l-.063.073a1 1 0 0 1-.294.28c-.1.055-.29.132-.4.04a.32.32 0 0 1-.07-.262 1 1 0 0 1 .039-.272c.1-.4.109-.476.089-.5-.044-.058-.156-.048-.158-.047-.106.011-.18.111-.258.217a1 1 0 0 0-.108.18c-.037.073-.067.131-.145.158a.26.26 0 0 1-.288-.089c-.033-.049-.042-.119.015-.317.029-.1.057-.173.078-.228s.043-.111.033-.125-.076-.028-.125-.014a.16.16 0 0 0-.081.061 1 1 0 0 1-.117.111c-.08.057-.183.138-.258.092m5.015-2.755c.159.036.39-.113.637-.378s.322-.439.159-.474c-.138-.03-.378.1-.639.379s-.298.441-.157.473M12 14.1c4.6 0 8.344-2.714 8.344-6.05S16.6 2 12 2 3.656 4.714 3.656 8.05 7.4 14.1 12 14.1M7.331 4.471A7.95 7.95 0 0 1 12 3.054a7.95 7.95 0 0 1 4.669 1.417A4.4 4.4 0 0 1 18.655 8a4.4 4.4 0 0 1-1.986 3.527A7.95 7.95 0 0 1 12 12.943a7.95 7.95 0 0 1-4.669-1.417A4.4 4.4 0 0 1 5.345 8a4.4 4.4 0 0 1 1.986-3.529m10.774 8.096A10.4 10.4 0 0 1 12 14.415a10.4 10.4 0 0 1-6.1-1.848 6.46 6.46 0 0 1-2.069-2.4l.1 1.38h.055v.059a4 4 0 0 0 .035.539l.313 3.828v.192a4.5 4.5 0 0 0 .1.933C5 19.875 8.121 22 11.889 22c4.06 0 7.548-2.511 7.746-5.61l.533-4.249-.048.03a4 4 0 0 0 .048-.617l.059-1.506a6.4 6.4 0 0 1-2.122 2.519"/></svg>