<svg xmlns="http://www.w3.org/2000/svg" viewBox="0 0 24 24"><path fill="#44739e" d="M13.024 17.507a.847.847 0 0 0 .918-.734.85.85 0 0 0-.468-1.078.6.6 0 0 0-.134-.016.9.9 0 0 0-.784.75.847.847 0 0 0 .468 1.078m-.402 1.621a1.84 1.84 0 0 0 1.573-.382 3.12 3.12 0 0 0 .893-3.6 1.84 1.84 0 0 0-1.212-1.074 1.6 1.6 0 0 0-.392-.048 2.53 2.53 0 0 0-2.22 2.082 2.98 2.98 0 0 0 .145 1.946 1.84 1.84 0 0 0 1.213 1.076m-.35-2.769a1.135 1.135 0 0 1 1.272-.948 1.135 1.135 0 0 1 .682 1.433 1.194 1.194 0 0 1-1.071.971 1 1 0 0 1-.2-.024 1.134 1.134 0 0 1-.683-1.432m.535-8.473c.12-.017.136-.247.137-.346s-.007-.325-.129-.309-.136.247-.137.345.009.323.129.31m1.088.096a.09.09 0 0 0-.087.081.83.83 0 0 1-.635.7.557.557 0 0 1-.614-.539.067.067 0 0 0-.085-.061.11.11 0 0 0-.062.111.687.687 0 0 0 .758.663 1.03 1.03 0 0 0 .784-.867.074.074 0 0 0-.059-.088m-.334-.2c.12-.016.138-.246.141-.344s0-.323-.126-.307-.139.245-.141.343.006.325.126.308m-2.973-2.283a.41.41 0 0 0-.337.4l.115 5.378a.34.34 0 0 0 .128.261.35.35 0 0 0 .288.059l4.705-1.059a.41.41 0 0 0 .318-.385l.085-5.133a.34.34 0 0 0-.116-.264.34.34 0 0 0-.245-.078h-.036Zm3.8 2.276a1.64 1.64 0 0 1-1.222 1.577c-.646.1-1.171-.46-1.171-1.244a1.556 1.556 0 0 1 1.222-1.577 1.09 1.09 0 0 1 1.168 1.24Zm1.395-4.365a.4.4 0 0 0-.062 0l-5.652.866c-.4.061-.7.669-.68 1.384l.318 15.017a2.16 2.16 0 0 0 .29 1.063c.09.138.236.294.419.253l5.761-1.716c.157-.047.271-.289.272-.576L16.487 4.7a1.9 1.9 0 0 0-.224-.949.6.6 0 0 0-.48-.341m-5.208 1.923 4.905-.812a.5.5 0 0 1 .4.107.49.49 0 0 1 .168.381l-.086 5.132a.59.59 0 0 1-.459.556l-4.7 1.06-.079.012a.477.477 0 0 1-.517-.47l-.114-5.379a.59.59 0 0 1 .482-.587m.569 12.843a3.26 3.26 0 0 1-.164-2.138 2.667 2.667 0 0 1 2.967-2.248 2.12 2.12 0 0 1 1.407 1.236 3.41 3.41 0 0 1-.981 3.952 2.23 2.23 0 0 1-1.356.491 2 2 0 0 1-.466-.057 2.12 2.12 0 0 1-1.407-1.236M9.291 5.672c-.017-.809.321-1.5.77-1.565l5.652-.867a.5.5 0 0 1 .169.006l-.688-.527-.8-.572a.76.76 0 0 0-.337-.14.4.4 0 0 0-.154 0l-5.654.867a.5.5 0 0 0-.124.037 1.55 1.55 0 0 0-.6 1.438l.3 14.289a1.57 1.57 0 0 0 .34 1.019 1 1 0 0 0 .069.1l1.565 1.867a2.6 2.6 0 0 1-.194-.934Z"/></svg>