<?xml version="1.0" encoding="UTF-8"?>
<svg width="24px" fill="#44739e" height="24px" viewBox="0 0 24 24" version="1.1" xmlns="http://www.w3.org/2000/svg" xmlns:xlink="http://www.w3.org/1999/xlink">
<path d="M 12,2 A 10,10 0 1 0 22,12 10,10 0 0 0 12,2 Z m 4.588,14.432 a 0.622,0.622 0 0 1 -0.861,0.2 c -2.354,-1.434 -5.3,-1.757 -8.794,-0.968 A 0.61847817,0.61847817 0 0 1 6.658,14.458 c 3.812,-0.872 7.085,-0.5 9.714,1.111 a 0.626,0.626 0 0 1 0.217,0.857 v 0 z m 1.218,-2.724 A 0.789,0.789 0 0 1 16.731,13.971 13.181,13.181 0 0 0 6.767,12.8 0.77325416,0.77325416 0 1 1 6.325,11.318 a 14.616,14.616 0 0 1 11.243,1.327 0.768,0.768 0 0 1 0.239,1.063 z m 0.108,-2.843 C 14.688,8.953 9.371,8.774 6.289,9.706 A 0.93725183,0.93725183 0 0 1 5.739,7.914 C 9.276,6.839 15.154,7.053 18.858,9.252 a 0.932,0.932 0 0 1 0.322,1.278 0.907,0.907 0 0 1 -1.266,0.334 z"/>

</svg>