<svg xmlns="http://www.w3.org/2000/svg" viewBox="0 0 24 24"><path fill="#44739e" d="m18.061 19.926-1.524.319.25 1.2a.52.52 0 0 0 .618.4l.5-.105a.52.52 0 0 0 .4-.618ZM5.722 21.265a.52.52 0 0 0 .4.618l.5.105a.52.52 0 0 0 .618-.4l.25-1.2-1.524-.319Zm7.126-12.228c.28 0 .308-.452.308-.647s-.028-.646-.308-.646-.31.452-.309.646.028.647.309.647m.795.49a.175.175 0 0 0-.2.137 1.483 1.483 0 0 1-2.921-.027.174.174 0 1 0-.343.058 1.833 1.833 0 0 0 3.61.028.18.18 0 0 0-.146-.196m-2.552-.49c.28 0 .309-.452.309-.647s-.029-.646-.309-.646-.309.452-.309.646.029.647.309.647m.899-5.19a6.015 6.015 0 0 0-6.282 5.706 6.015 6.015 0 0 0 6.282 5.706 6.015 6.015 0 0 0 6.282-5.706 6.015 6.015 0 0 0-6.282-5.706m-.007 8.19a2.792 2.792 0 1 1 2.793-2.8 2.8 2.8 0 0 1-2.793 2.8M12.013 2h-.023a9.926 9.926 0 0 0-9.925 9.926 9.82 9.82 0 0 0 3.741 7.899 19.8 19.8 0 0 0 5.437.853v.618a.52.52 0 0 0 .522.522h.514a.52.52 0 0 0 .522-.522v-.66a22 22 0 0 0 5.426-.974A9.925 9.925 0 0 0 12.013 2M9.622 18.836h-.53a.221.221 0 1 1 0-.441h.53a.221.221 0 1 1 0 .441m1.887-.22a.22.22 0 0 1 .22-.221h.533a.221.221 0 0 1 0 .441h-.533a.22.22 0 0 1-.218-.225Zm3.377.22h-.533a.221.221 0 0 1 0-.441h.533a.221.221 0 0 1 0 .441m-2.9-2.273c-4.26 0-7.713-3.136-7.713-7s3.453-7 7.713-7 7.712 3.136 7.712 7-3.449 6.995-7.708 6.995Z"/></svg>