<svg xmlns="http://www.w3.org/2000/svg" viewBox="0 0 24 24"><path fill="#44739e" d="M9.109 21.88c-.431-.22-.691-.584-.726-1.021l-.019-.227h7.29l-.019.227c-.037.442-.315.828-.745 1.031l-.233.11-2.66-.002-2.661-.001Zm-.992-1.975q-.686-.076-1.28-.625c-.498-.461-.7-.907-.755-1.663-.084-1.146.662-2.192 1.801-2.526.173-.052.476-.084.94-.1l.684-.025.012-.802.012-.801h4.956l.011.801.012.802.706.026c.609.023.751.041 1.04.14.433.147.716.332 1.03.672a2.48 2.48 0 0 1 .655 1.826c-.025.349-.141.842-.224.949a3 3 0 0 0-.163.264c-.164.288-.593.656-1.001.858-.284.141-.418.18-.705.208-.438.041-7.346.038-7.731-.004m.024-1.302.105-.105v-1.015c0-.983-.003-1.018-.093-1.114-.121-.127-.269-.125-.401.006l-.105.105v2.018l.113.105c.144.132.248.132.381 0m1.348-.021.125-.125V16.48l-.104-.105c-.128-.127-.276-.134-.401-.018-.091.086-.093.113-.093 1.13v1.043l.112.089c.151.118.213.112.361-.036m1.338.037.113-.089V17.5c0-.999-.003-1.034-.093-1.13-.114-.12-.249-.126-.383-.018-.101.082-.101.089-.114 1.092l-.013 1.01.127.127c.15.151.212.158.362.039m1.376-.017.106-.104v-1.016c0-.982-.004-1.017-.093-1.113-.117-.124-.279-.126-.407-.007-.098.093-.1.103-.1 1.115v1.021l.114.104c.144.133.248.133.38 0m1.361-.017.117-.122-.013-1.007c-.012-.919-.02-1.014-.094-1.096-.105-.116-.272-.115-.397.003-.098.092-.099.102-.099 1.119 0 .996.003 1.031.093 1.126.124.132.251.125.393-.023m1.325.034.113-.089v-1.043c0-1.017-.002-1.045-.094-1.13-.125-.116-.272-.11-.402.02l-.107.107.013 1.009.013 1.008.12.103c.147.126.2.128.344.015m1.369-.017.112-.104v-1.015c0-.983-.002-1.018-.093-1.114-.116-.124-.278-.126-.406-.007-.098.093-.099.102-.099 1.131v1.037l.113.089c.147.115.234.111.373-.017m-12.743.531c-.23-.045-.587-.226-.817-.412-.26-.213-.485-.687-.513-1.085a1.78 1.78 0 0 1 .289-1.105c.183-.282.332-.407.715-.598l.265-.133h2.441l-.125.25c-.269.533-.316.741-.315 1.417 0 .476.017.669.074.828.04.115.08.246.089.294a1.7 1.7 0 0 0 .147.314c.071.127.13.24.13.253 0 .036-2.188.015-2.38-.023m14.609.031c0-.011.057-.13.128-.264s.128-.268.128-.297c0-.03.028-.11.062-.178.101-.201.164-.733.137-1.129a3.1 3.1 0 0 0-.305-1.186l-.146-.31h2.441l.339.176c.39.202.579.399.777.807.124.255.135.313.137.705 0 .408-.007.443-.16.756-.186.381-.376.559-.825.771l-.297.141-1.209.014c-.664.008-1.207.006-1.207-.006M9.207 12.33c-.565-.732-.674-.971-.506-1.11.053-.044.296-.064.973-.08l.901-.021V9.62l-.589-.021c-.671-.024-.67-.023-.671-.373-.002-.507.306-.974.805-1.22l.282-.138 1.592-.013 1.591-.013.263.133c.353.178.61.424.727.695.106.245.157.741.088.844-.034.05-.174.068-.633.085l-.589.021v1.497l.901.021c.678.016.921.037.973.081.168.139.058.381-.506 1.11l-.3.386-2.501.002H9.507Zm5.3-4.801q-.169-.168-.059-.372c.057-.106.414-.335.52-.335s.29.187.29.295c0 .17-.388.517-.577.517-.038 0-.116-.048-.174-.105m-5.413-.067c-.226-.12-.348-.29-.317-.443.035-.177.1-.241.247-.241.419 0 .745.444.504.685-.106.106-.233.106-.434-.001m4.234-.513a.4.4 0 0 1-.12-.164c-.044-.106-.038-.152.042-.322.103-.218.262-.369.39-.369.11 0 .293.188.293.299 0 .132-.153.407-.283.51-.123.096-.213.109-.322.046m-2.956-.086c-.125-.098-.259-.412-.238-.556.021-.141.216-.274.353-.239.134.034.319.3.352.509.021.125.006.171-.084.262-.133.133-.237.139-.383.024m5.272-.072c-.104-.037-.171-.148-.171-.284 0-.215.513-.628.778-.626.132.001.192.044.242.176.073.195-.052.368-.463.639-.187.123-.26.141-.387.095m-7.678-.188a3 3 0 0 1-.328-.243c-.223-.21-.122-.565.161-.565.105 0 .412.188.609.374.173.163.193.395.043.5-.139.097-.247.082-.485-.066m3.876.058c-.159-.13-.172-.606-.02-.758.085-.085.334-.084.42.002.049.049.067.153.067.383 0 .276-.011.323-.095.381-.125.088-.258.084-.372-.008m2.025-.842c-.133-.134-.131-.229.007-.507.222-.444.432-.559.639-.353.135.135.132.193-.025.51-.221.442-.418.553-.62.349m-4.05.015c-.097-.057-.373-.604-.373-.74 0-.208.264-.343.442-.226.106.068.413.614.413.732 0 .105-.195.28-.308.28a.4.4 0 0 1-.174-.046m7.006-.063c-.085-.086-.086-.313-.003-.433.096-.136.572-.441.689-.441.231 0 .351.299.204.509-.103.147-.568.432-.704.432a.3.3 0 0 1-.185-.067m-10.03-.059a2.3 2.3 0 0 1-.353-.258c-.165-.146-.202-.206-.202-.322q.002-.243.24-.304c.083-.021.173.017.397.171.386.264.495.519.303.711-.105.105-.191.105-.385.002m5.04-.725c-.087-.071-.102-.126-.116-.429-.019-.421.019-.706.106-.794.084-.084.333-.082.419.003.054.054.067.173.067.599 0 .475-.009.54-.085.617-.108.107-.261.109-.391.004m6.268-.194c-.121-.122-.13-.194-.041-.366.086-.166.416-.36.554-.325.367.092.293.526-.123.714-.227.104-.265.101-.39-.023M5.417 4.67c-.229-.175-.294-.332-.204-.493.12-.214.445-.164.681.106.151.172.16.262.039.415-.122.156-.287.147-.516-.027m9.133-.093c-.139-.14-.132-.212.056-.584.184-.363.315-.447.516-.334.164.091.175.309.028.598-.212.419-.4.52-.599.32m-5.414-.02c-.127-.1-.377-.555-.377-.684 0-.115.181-.302.291-.302.139 0 .284.15.427.444.164.337.168.384.032.52-.126.126-.232.132-.373.022m6.099-1.219c-.127-.128-.133-.272-.019-.496.149-.293.39-.371.574-.188.095.096.083.246-.04.489q-.239.472-.515.195M8.47 3.334c-.126-.089-.267-.368-.267-.53 0-.137.128-.302.233-.302.151 0 .271.092.378.291.144.263.146.368.012.502-.122.122-.222.132-.356.039m3.421-.447c-.255-.105-.233-.792.029-.875.119-.038.299.018.347.108.06.112.052.61-.012.692-.068.091-.24.126-.364.075"/></svg>