<?xml version="1.0" encoding="UTF-8"?>
<svg width="24px" fill="#44739e" height="24px" viewBox="0 0 24 24" version="1.1" xmlns="http://www.w3.org/2000/svg" xmlns:xlink="http://www.w3.org/1999/xlink">
            <path d="m 14.809572,11.58238 c -0.039,0 -0.079,0 -0.118,0 -1.541,0.093 -4.092,2.172 -4.323,4.745 -0.155,1.721 0.344,2.464 1.778,2.65 a 4.015,4.015 0 0 0 2.773,-1.24 5.321,5.321 0 0 0 1.838,-3.045 2.957,2.957 0 0 0 -0.6,-2.521 1.818,1.818 0 0 0 -1.348,-0.589 z m 0.407,0.337 h 0.022 a 0.332,0.332 0 0 1 0.249,0.109 0.541,0.541 0 0 1 0.11,0.465 0.976,0.976 0 0 1 -0.339,0.563 0.738,0.738 0 0 1 -0.512,0.229 c -0.265,-0.034 -0.357,-0.171 -0.328,-0.489 a 1.043,1.043 0 0 1 0.801,-0.877 z m -1.44,0.186 h 0.022 a 0.336,0.336 0 0 1 0.249,0.109 0.544,0.544 0 0 1 0.11,0.465 0.983,0.983 0 0 1 -0.34,0.563 0.738,0.738 0 0 1 -0.511,0.229 c -0.265,-0.034 -0.357,-0.171 -0.329,-0.489 a 1.043,1.043 0 0 1 0.799,-0.877 z m -0.421,1.71 h 0.022 a 0.336,0.336 0 0 1 0.25,0.109 0.549,0.549 0 0 1 0.11,0.466 0.981,0.981 0 0 1 -0.34,0.562 0.745,0.745 0 0 1 -0.512,0.23 c -0.265,-0.035 -0.357,-0.172 -0.328,-0.49 a 1.043,1.043 0 0 1 0.798,-0.877 z m -1.44,0.187 h 0.022 a 0.336,0.336 0 0 1 0.249,0.109 0.544,0.544 0 0 1 0.11,0.465 0.987,0.987 0 0 1 -0.339,0.563 0.742,0.742 0 0 1 -0.512,0.229 c -0.265,-0.034 -0.357,-0.171 -0.329,-0.489 a 1.043,1.043 0 0 1 0.803,-0.877 z m -0.9,3.126 c -0.265,-0.034 -0.357,-0.171 -0.328,-0.489 a 1.042,1.042 0 0 1 0.8,-0.877 h 0.022 a 0.336,0.336 0 0 1 0.249,0.109 0.544,0.544 0 0 1 0.11,0.465 0.987,0.987 0 0 1 -0.339,0.563 0.742,0.742 0 0 1 -0.51,0.229 z m 1.873,0.688 a 0.984,0.984 0 0 1 -0.339,0.562 0.736,0.736 0 0 1 -0.512,0.23 c -0.265,-0.034 -0.357,-0.172 -0.328,-0.49 a 1.042,1.042 0 0 1 0.8,-0.876 h 0.022 a 0.336,0.336 0 0 1 0.249,0.109 0.545,0.545 0 0 1 0.112,0.465 z m -0.432,-0.875 c -0.265,-0.034 -0.357,-0.171 -0.329,-0.489 a 1.043,1.043 0 0 1 0.8,-0.876 h 0.021 a 0.336,0.336 0 0 1 0.25,0.109 0.547,0.547 0 0 1 0.11,0.465 0.983,0.983 0 0 1 -0.34,0.563 0.738,0.738 0 0 1 -0.508,0.228 z m 1.873,0.688 a 0.978,0.978 0 0 1 -0.34,0.562 0.736,0.736 0 0 1 -0.511,0.23 c -0.265,-0.034 -0.357,-0.171 -0.329,-0.489 a 1.043,1.043 0 0 1 0.8,-0.877 h 0.021 a 0.34,0.34 0 0 1 0.25,0.109 0.549,0.549 0 0 1 0.113,0.465 z m 0.452,-1.732 a 0.984,0.984 0 0 1 -0.34,0.562 0.744,0.744 0 0 1 -0.511,0.23 c -0.265,-0.035 -0.357,-0.172 -0.329,-0.49 a 1.043,1.043 0 0 1 0.8,-0.876 h 0.022 a 0.336,0.336 0 0 1 0.249,0.109 0.545,0.545 0 0 1 0.113,0.465 z m 0.086,-1.2 a 0.744,0.744 0 0 1 -0.511,0.23 c -0.265,-0.035 -0.358,-0.172 -0.329,-0.49 a 1.043,1.043 0 0 1 0.8,-0.876 h 0.021 a 0.336,0.336 0 0 1 0.25,0.109 0.549,0.549 0 0 1 0.11,0.466 0.981,0.981 0 0 1 -0.337,0.562 z m 1.354,1.012 a 0.974,0.974 0 0 1 -0.339,0.562 0.745,0.745 0 0 1 -0.512,0.23 c -0.265,-0.035 -0.357,-0.172 -0.328,-0.49 a 1.043,1.043 0 0 1 0.8,-0.876 h 0.022 a 0.332,0.332 0 0 1 0.249,0.109 0.542,0.542 0 0 1 0.112,0.466 z m 0.067,-2.336 a 0.336,0.336 0 0 1 0.249,0.109 0.545,0.545 0 0 1 0.11,0.466 0.984,0.984 0 0 1 -0.339,0.562 0.744,0.744 0 0 1 -0.512,0.23 c -0.265,-0.034 -0.357,-0.172 -0.328,-0.49 a 1.041,1.041 0 0 1 0.8,-0.876 z m 0.641,-2.45 a 3.991,3.991 0 0 1 -0.07,-0.532999 c 0.152,-0.352 0.341,-0.5840003 0.023,-0.8150003 a 0.624,0.624 0 0 0 -0.172,-0.016 c -0.034,0 -0.071,0 -0.109,-0.005 a 0.391,0.391 0 0 0 0,-0.059 20.139,20.139 0 0 1 -0.245,-2.837 c -0.015,-0.413 -0.03,-0.84 -0.06,-1.272 v -0.007 l -0.192,-0.7 v -0.006 l -0.011,-0.022 a 1.2,1.2 0 0 0 -0.76,-0.657 h -0.008 l -4.9,-0.476 h -0.006 a 4.1,4.1 0 0 0 -1.4340005,0.03 c -0.876,0.29 -1.066,0.731 -1.318,1.743 v 0 c -0.007,0.047 -0.643,4.7630003 -0.726,5.4870003 a 10.752,10.752 0 0 0 -0.071,1.734999 0.243,0.243 0 0 1 -0.017,0.1 c -0.031,0.077 -0.062,0.143 -0.091,0.206 a 2.806,2.806 0 0 0 -0.176,0.458 3.894,3.894 0 0 0 -0.136,1.22 4.352,4.352 0 0 0 0.161,0.939 4.276,4.276 0 0 0 0.125,0.439 0.747,0.747 0 0 0 0.067,0.144 0.4,0.4 0 0 1 0.072,-0.07 0.456,0.456 0 0 1 0.272,-0.08 1.365,1.365 0 0 1 0.824,0.379 v 0 a 0.034,0.034 0 0 0 0.033,0.009 0.033,0.033 0 0 0 0.024,-0.023 4.477,4.477 0 0 0 0.056,-2.508 c -0.055,-0.234 -0.1,-0.436 -0.146,-0.613 a 6.163,6.163 0 0 1 -0.283,-1.905 v -0.023 a 8.612,8.612 0 0 1 0.2,-1.6509993 c 0.155,-0.9 0.243,-1.5 0.313,-1.973 a 17.257,17.257 0 0 1 0.351,-1.848 3.254,3.254 0 0 0 0.058,-0.405 2.082,2.082 0 0 1 0.422,-1.234 c 0.011,-0.013 0.024,-0.03 0.039,-0.05 a 0.808,0.808 0 0 1 0.416,-0.326 3.859,3.859 0 0 1 1.2380005,0.008 l 3.58,0.352 a 0.244,0.244 0 0 1 0.08,0.022 1.41,1.41 0 0 1 0.811,1.1 l 0.01,0.055 0.474,2.76 h -0.109 -0.1 a 1.767,1.767 0 0 0 -0.445,0.117 1.682,1.682 0 0 1 -0.438,0.015 0.23,0.23 0 0 1 -0.081,-0.089 7.613,7.613 0 0 0 -0.832,-1.946 1.847,1.847 0 0 0 -0.618,-0.511 0.239,0.239 0 0 0 -0.107,-0.03 l -2.154,-0.065 a 0.23,0.23 0 0 0 -0.192,0.094 1.065,1.065 0 0 1 -0.27,0.266 2.594,2.594 0 0 0 -0.269,0.188 0.9,0.9 0 0 1 -0.1170005,0.093 c -0.144,0.081 -0.358,0.071 -0.387,0 -0.04,-0.1 0.3,-0.228 0.293,-0.468 v -0.012 a 0.229,0.229 0 0 0 -0.215,-0.2 l -0.876,-0.051 a 2.73,2.73 0 0 1 -0.054,0.353 c -0.057,0.23 -0.1,0.429 -0.139,0.616 l 3.4410005,0.074 a 0.98,0.98 0 0 1 0.832,0.4 3.4,3.4 0 0 1 0.5,0.733 0.214,0.214 0 0 0 0.037,0.052 c 0.209,0.216 0.327,0.29 0.411,0.5 a 0.949,0.949 0 0 1 0.058,0.231 0.314,0.314 0 0 0 -0.137,0.183 c -0.013,0.065 0.01,0.12 -0.035,0.187 -0.058,0.086 -0.14,0.067 -0.223,0.129 a 0.462,0.462 0 0 0 -0.139,0.367 0.8,0.8 0 0 0 0.022,0.2 c 0.044,0.182 0.142,0.249 0.105,0.31 -0.064,0.108 -0.389,-0.05 -0.469,0.059 -0.08,0.109 0.187,0.3210003 0.223,0.6210003 v 0.038 a 1.715,1.715 0 0 1 -0.211,0.566999 1.479,1.479 0 0 1 -0.39,0.368 7.148,7.148 0 0 0 -1.627,1.431 10.33,10.33 0 0 0 -1.3450005,2.025 7.526,7.526 0 0 0 -0.485,1.173 2.479,2.479 0 0 0 -0.1,0.635 2.848,2.848 0 0 0 0.325,1.646 l -0.111,-0.354 -0.009,-0.03 a 5.168,5.168 0 0 0 0.325,0.749 3.916,3.916 0 0 0 0.8070005,1.113 c 0.033,0.023 0.174,0.142 0.316,0.236 a 1.174,1.174 0 0 0 0.14,0.082 c 0.145,0.069 0.024,0.4 0.024,0.4 a 0.979,0.979 0 0 0 0.211,0.258 l 1.582,-0.434 c 0.009,-0.067 -0.013,-0.115 0.024,-0.187 a 0.434,0.434 0 0 1 0.562,-0.141 c 0.057,0.04 0.061,0.084 0.094,0.129 0,0 1.448,-0.364 1.453,-0.317 0.014,0.121 0.066,-0.062 0.106,-0.281 0,-0.021 -0.424,0.088 0.094,-0.41 0.252,-0.243 0.654,-0.574 0.7,-0.621 a 7.736,7.736 0 0 0 2.239,-3.528 4.176,4.176 0 0 0 -0.958,-4.035 z m -7.8870005,6.431 v -0.128 a 3.78,3.78 0 0 0 0.086,0.413 z m 6.5280005,-9.1709993 0.1,-0.05 0.019,0.107 -0.108,0.01 c -0.046,0 -0.079,0 -0.083,-0.011 -0.004,-0.011 0.028,-0.033 0.072,-0.056 z m 0.038,0.271 0.036,-0.021 0.015,-0.009 v 0.011 0 a 0.053,0.053 0 0 0 0.048,-0.04 v 0 h 0.006 v 0 0 0.006 a 4.245,4.245 0 0 0 0.1,0.5 c 0.01,0.046 0.019,0.085 0.028,0.119 l -0.133,-0.09 c -0.178,-0.125 -0.323,-0.236 -0.323,-0.236 -0.012,-0.08 0.101,-0.165 0.223,-0.24 z m -2.439,2.0760003 a 0.9,0.9 0 0 1 -0.121,0.354999 z m 3.8,4.189999 a 5.537,5.537 0 0 1 -1.909,3.179 4.556,4.556 0 0 1 -2.725,1.309 1.7,1.7 0 0 1 -0.217,-0.013 2.142,2.142 0 0 1 -1.67,-0.9 3.18,3.18 0 0 1 -0.3,-1.988 5.663,5.663 0 0 1 1.711,-3.413 4.82,4.82 0 0 1 2.819,-1.527 2.066,2.066 0 0 1 1.639,0.654 3.161,3.161 0 0 1 0.652,2.699 z M 6.9735715,9.2403807 c 0.01,-0.272 0.015,-0.524 0.015,-0.7 a 8.5,8.5 0 0 0 -0.059,-1.173 7.739,7.739 0 0 1 -0.117,-1.113 c 0,-0.178 0.169,-0.129 0.565,-0.045 0.058,-0.429 0.1,-0.753 0.119,-0.883 l -0.45,-0.027 a 0.232,0.232 0 0 0 -0.189,0.081 c -0.389,0.456 -0.356,0.5 -0.772,1.014 a 0.284,0.284 0 0 0 -0.023,0.293 c 0.433,0.788 0.482,3.294 0.724,4.0000003 0.033,-0.259 0.102,-0.8020003 0.187,-1.4470003 z m 1.927,6.9919993 a 7.88,7.88 0 0 1 3.1360005,-4.618 7.847,7.847 0 0 0 0.668,-0.558 1.207,1.207 0 0 0 0.268,-0.899999 v 0 a 0.28,0.28 0 0 0 -0.032,-0.062 l -0.033,-0.048 a 1.27,1.27 0 0 0 -0.094,-0.1250003 v 0 a 0.075,0.075 0 0 0 -0.019,-0.016 h 0.012 v -0.194 0 c 0.1,0 0.19,0 0.276,-0.011 a 1.664,1.664 0 0 0 0.206,-0.028 c -0.03,-0.024 -0.067,-0.055 -0.111,-0.1 a 0.121,0.121 0 0 1 -0.045,-0.159 0.127,0.127 0 0 0 0.01,-0.037 v -0.002 c -0.271,-0.116 -0.563,-0.23 -0.719,-0.277 a 0.449,0.449 0 0 0 -0.1,-0.023 h -0.004 l -0.014,-0.007 -0.037,0.006 c -0.12,0 -0.236,0 -0.347,0.009 l -0.165,0.013 -0.077,0.008 c -0.1,0.01 -0.186,0.023 -0.275,0.036 l -0.072,0.012 -0.236,0.042 -0.1,0.02 a 2.877,2.877 0 0 0 -0.28,0.071 c -0.052,0.015 -0.105,0.033 -0.159,0.052 l -0.058,0.021 c -0.078,0.029 -0.156,0.061 -0.236,0.1 l -0.054,0.025 -0.117,0.056 c -0.1000005,0.051 -0.2090005,0.107 -0.3150005,0.17 v 0 a 5.677,5.677 0 0 0 -1.524,1.3169993 l -0.471,0.739 c 0.008,0.093 0.019,0.184 0.034,0.281 l 1.3,1.146 -0.054,0.106 -1.226,-1.12 c 0.031,0.166 0.074,0.355 0.132,0.6 l 0.9,0.831 -0.054,0.105 -0.805,-0.755 0.033,0.138 c 0.038,0.157 0.079,0.332 0.126,0.531 l 0.51,0.422 -0.065,0.185 -0.386,-0.367 a 4.521,4.521 0 0 1 -0.094,2.405 0.143,0.143 0 0 1 -0.1,0.095 0.164,0.164 0 0 1 -0.037,0.005 0.141,0.141 0 0 1 -0.094,-0.037 v 0 a 1.268,1.268 0 0 0 -0.753,-0.353 0.552,0.552 0 0 0 -0.072,0.006 l 0.035,0.148 0.266,0.471 c 0.019,0.018 0.038,0.036 0.058,0.052 0.069,0.053 0.753,0.778 0.89,0.923 l 0.02,0.021 v 0.029 a 0.627,0.627 0 0 1 0,0.191 v 0.025 c 0.267,0.281 0.738,0.728 1.2,1.156 a 3.229,3.229 0 0 1 -0.646,-2.772 z M 12.194572,9.1413807 h 0.117 l 0.633,0.512 c -0.045,0 -0.09,0 -0.133,0 h -0.037 l -0.609,-0.51 z m -0.641,0.044 0.114,-0.013 h 0.01 v 0 l 1.183,0.9590003 -0.112,0.032 -1.2,-0.9760003 h 0.006 z m -0.494,0.119 1.26,1.0210003 -0.12,0.061 -1.265,-1.0610003 z m -0.672,0.163 0.068,-0.027 0.039,-0.015 v 0 l 1.331,1.1480003 -0.125,0.07 -1.331,-1.1690003 v 0 z m -0.341,0.17 1.373,1.1840003 -0.111,0.082 -1.3680005,-1.1999999 z m -0.4150005,0.275 1.3720005,1.1839993 -0.111,0.081 -1.3680005,-1.1999993 z m -0.4,0.2800003 1.4000005,1.199999 -0.1,0.09 -1.3780005,-1.203999 z m -0.315,0.309 1.3740005,1.185999 -0.086,0.1 -1.3710005,-1.199999 z m -0.315,0.351 1.373,1.207999 -0.065,0.1 -1.382,-1.22 z m -0.317,0.363999 1.368,1.2 -0.065,0.1 -1.368,-1.203 z m -0.346,0.47 0.069,-0.1 1.367,1.2 -0.065,0.1 z"/>

</svg>