<?xml version="1.0" encoding="UTF-8"?>
<svg width="24px" fill="#44739e" height="24px" viewBox="0 0 24 24" version="1.1" xmlns="http://www.w3.org/2000/svg" xmlns:xlink="http://www.w3.org/1999/xlink">
            <path d="m 9.3503688,11.327214 c 0.7470002,-0.36 2.1550002,-0.664 1.6840002,-0.679 -0.136,0 -0.471,-0.025 -0.78,-0.048 v 0 l -0.1,-0.007 v 0 a 4.445,4.445 0 0 0 -1.7680002,0.075 l -0.6,0.129 c 0,0 -0.865,0.859 -0.761,0.847 0.038,0 1.555,0.05 1.555,0.05 z m 1.1570002,1.183 -0.5280002,-0.246 -0.571,-0.031 v 0 c -0.328,-0.017 -0.677,-0.034 -0.773,-0.036 h -0.107 l -1.312,1.734 0.347,0.322 a 6.118,6.118 0 0 0 1.437,0.961 c 0.8,-0.956 1.7180002,-2.12 1.9740002,-2.484 -0.105,-0.05 -0.269,-0.128 -0.467,-0.22 z m -5.3840002,1.794 -0.268,1.518 0.368,1.187 2.519,-0.369 c 0,0 -0.911,-2.409 -0.921,-2.424 -0.01,-0.015 -1.698,0.088 -1.698,0.088 z m 3.1,-2.525 -0.259,-0.009 a 0.481,0.481 0 0 0 -0.011,0.113 2.626,2.626 0 0 1 -1.68,1.925 c -0.4,0.157 -0.906,0.085 -0.906,-0.129 0,-0.079 -0.056,-0.05 -0.142,0.076 l -0.085,0.122 0.123,0.1 c 0.389,0.327 1.147,0.153 1.85,-0.383 l 1.087,-1.438 a 0.523,0.523 0 0 0 0.023,-0.377 z m -3,1.84 c 0.137,-0.194 0.471,-0.66 0.742,-1.04 l 0.492,-0.687 -0.25,-0.175 c -0.446,-0.31 -0.44,-0.313 -1.906,1.727 -0.641,0.894 -1.158,1.632 -1.147,1.641 a 1.851,1.851 0 0 0 0.344,-0.26 3.87,3.87 0 0 1 0.9,-0.564 l 0.575,-0.29 z m 8.6490002,-2.091 0.766,-0.368 c 0.747,-0.36 2.155,-0.665 1.684,-0.68 -0.136,0 -0.471,-0.024 -0.779,-0.047 v 0 l -0.1,-0.007 v 0 a 4.463,4.463 0 0 0 -1.768,0.074 l -0.6,0.13 c 0,0 -0.865,0.859 -0.761,0.847 0.041,-0.003 1.558,0.051 1.558,0.051 z m 1.395,0.568 -0.571,-0.03 v 0 c -0.328,-0.017 -0.676,-0.034 -0.773,-0.037 l -0.107,-0.005 -1.312,1.739 0.348,0.322 a 6.078,6.078 0 0 0 1.436,0.96 c 0.8,-0.955 1.718,-2.12 1.974,-2.483 -0.105,-0.051 -0.269,-0.128 -0.467,-0.22 z m -4.859,2.044 -0.269,1.519 0.373,1.187 2.518,-0.369 c 0,0 -0.911,-2.408 -0.921,-2.424 -0.01,-0.016 -1.701,0.087 -1.701,0.087 z m 1.341,-2.416 -0.249,-0.174 c -0.341,-0.237 -0.423,-0.288 -1.091,0.6 l 0.217,0.1 c 0.079,0.037 0.415,0.194 0.554,0.264 l 0.077,-0.107 z m 1.764,-0.112 -0.259,-0.009 a 0.481,0.481 0 0 0 -0.011,0.113 2.626,2.626 0 0 1 -1.68,1.924 c -0.353,0.14 -0.774,0.091 -0.868,-0.07 -0.055,0.072 -0.112,0.143 -0.17,0.218 l 0.028,0.024 c 0.389,0.327 1.147,0.153 1.85,-0.383 l 1.087,-1.438 a 0.523,0.523 0 0 0 0.023,-0.379 z m -5.8120002,-0.863 c -0.029,-0.04 -0.034,-0.061 -0.024,-0.075 a 0.03,0.03 0 0 1 0.01,-0.024 c 0.02,-0.015 0.05,-0.007 0.1,0.018 l 0.01,-0.01 0.029,-0.029 0.3,-0.066 a 4.152,4.152 0 0 1 -0.3,-0.3 c 0,-0.009 0.008,-0.008 0.009,-0.014 v 0 c 0,-0.111 0.146,-0.023 0.486,0.281001 l 0.148,-0.032 c 0.062,-0.015 0.127,-0.015 0.19,-0.027 a 2.464,2.464 0 0 1 -0.6,-0.5740006 c -0.006,-0.031 0,-0.048 0.013,-0.053 0.021,-0.048 0.146,0.033 0.45,0.2999996 a 2.641,2.641 0 0 1 0.315,0.300001 4.51,4.51 0 0 1 0.965,-0.052 c -0.271,-0.251001 -0.356,-0.350001 -0.348,-0.4070006 l 0.013,0.01 a 0.1,0.1 0 0 1 -0.007,-0.028 4.207,4.207 0 0 1 0.6160002,0.4410006 c 0.067,0.008 0.134,0 0.2,0.011 v 0 l 0.306,0.023 c -0.142,-0.117 -0.291,-0.227001 -0.425,-0.353001 C 9.5083688,9.5062144 9.4493688,9.4432144 9.4573688,9.3472144 v -0.019 c 0.008,-0.055 0.022,-0.089 0.033,-0.069 0.011,0.02 0.341,0.325 0.7350002,0.679 0.265,0.2359996 0.429,0.3900006 0.546,0.5080006 0.159,0.01 0.3,0.018 0.371,0.02 a 0.507,0.507 0 0 1 0.092,0.015 22.011,22.011 0 0 1 -1.7850002,-1.6000006 v 0 a 0.055,0.055 0 0 1 0.009,-0.04 c 0.015,-0.09 0.189,0.047 1.0000002,0.762 0.666,0.5909996 0.924,0.8510006 0.909,0.9130006 0.012,0.03 0,0.04 -0.038,0.036 0.015,0.019 0.041,0.025 0.045,0.056 0.022,0.153 -0.082,0.186 -0.664,0.371 -0.147,0.047 -0.312,0.1 -0.475,0.156 0.024,0.035 0.035,0.06 0.024,0.07 h -0.006 c 0,0 0,0.013 0,0.016 -0.028,0.028 -0.075,0.018 -0.16,-0.041 -0.1000002,0.034 -0.1750002,0.071 -0.2650002,0.106 0.085,0.082 0.157,0.162 0.157,0.2 0,0.009 -0.011,0 -0.012,0.008 l 0.006,0.01 c 0,0.111 -0.092,0.066 -0.317,-0.143 l -0.006,-0.007 c -0.043,0.019 -0.1,0.036 -0.138,0.056 l -0.143,0.069 c 0.194,0.136 0.436,0.364 0.4,0.413 0,0 -0.008,0 -0.011,0.008 l 0.005,0.01 c -0.047,0.07 -0.121,0.034 -0.417,-0.241 l -0.129,-0.116 -0.27,0.13 c 0.116,0.1 0.222,0.2 0.294,0.261 l 0.177,0.009 v 0 l 0.6510002,0.045 0.252,0.118 a 2.183,2.183 0 0 1 0.6,-0.671 c 0.311,-0.211 0.268,-0.213 0.6,0.024 l 0.274,0.2 0.159,-0.08 a 3.356,3.356 0 0 0 0.41,-0.343 c 0.079,-0.1 0.211,-0.246 0.439,-0.478 l -0.472,-0.434 -0.506,-0.4650006 -0.011,-1.2 -0.01,-1.2 -0.1,-0.078 a 1.538,1.538 0 0 0 -0.624,-0.16 l -0.526,-0.082 0.015,-0.22 v 0 l 0.016,-0.22 h -0.385 v 0.381 l -0.123,-0.019 c -0.068,-0.01 -0.2080002,-0.033 -0.3110002,-0.052 a 1.864,1.864 0 0 0 -0.472,0 c -0.422,0.05 -0.415,0.036 -0.415,0.872 v 0.688 l -0.2,0.125 c -0.853,0.52 -1.488,1.5179996 -1.341,2.0610006 l -0.293,-0.27 -0.506,-0.465001 -0.014,-1.1899996 -0.008,-1.2 -0.1,-0.077 a 1.523,1.523 0 0 0 -0.624,-0.161 l -0.526,-0.084 0.016,-0.22 v 0 l 0.015,-0.22 h -0.387 v 0.382 l -0.122,-0.02 c -0.068,-0.01 -0.208,-0.033 -0.312,-0.051 a 1.769,1.769 0 0 0 -0.471,0 c -0.422,0.049 -0.416,0.035 -0.416,0.872 v 0.687 l -0.2,0.125 c -0.889,0.543 -1.552,1.6120006 -1.325,2.1350006 0.051,0.117 2.251,2.174 2.319,2.167 0.011,0 0.24,-0.314 0.51,-0.7 0.446,-0.631 0.514,-0.71 0.745,-0.867 0.311,-0.211 0.267,-0.213 0.6,0.024 l 0.273,0.2 0.159,-0.08 a 3.292,3.292 0 0 0 0.411,-0.343 c 0.079,-0.1 0.211,-0.246 0.438,-0.477 z m 4.1790002,-0.348 c 0,0.022 -0.013,0.031 -0.038,0.04 A 17.829,17.829 0 0 1 9.9423688,8.7712142 v 0 a 0.067,0.067 0 0 1 0.009,-0.014 v 0 0 c 0.036,-0.1 0.1720002,0 1.0260002,0.763 0.788,0.6979998 0.935,0.8339998 0.903,0.8809998 z M 9.4593688,7.8142142 v 0 a 1.973,1.973 0 0 1 0.048,-0.563 1.542,1.542 0 0 1 0.7000002,0.16 c 0,0.11 0.217,0.143 0.319,0.049 0.056,-0.051 0.091,-0.052 0.351,-0.009 0.4,0.064 0.386,0.029 0.386,1.071 v 0.85 l -0.54,-0.49 c -0.611,-0.55 -0.7340002,-0.614 -1.0920002,-0.546 l -0.184,0.034 z m -0.8,1.491 v 0 c 0,-0.08 0.072,-0.087 0.15,-0.015 a 0.263,0.263 0 0 1 0.077,0.165 v 0.094 l -0.009,-0.009 v 0.023 l -0.112,-0.1 a 0.354,0.354 0 0 1 -0.111,-0.143 v 0 c 0,-0.009 0.009,-0.007 0.01,-0.015 z m -0.345,0.235 c 0,-0.1 0.147,-0.033 0.351,0.157 0.164,0.153 0.216,0.226 0.216,0.3 a 0.09,0.09 0 0 1 -0.01,0.053 c -0.008,0.05 -0.05,0.017 -0.279,-0.1919996 a 1.489,1.489 0 0 1 -0.283,-0.3 c 0,-0.008 0.015,0 0.017,-0.005 z m -4.144,-1.559 v 0 a 1.941,1.941 0 0 1 0.053,-0.566 1.538,1.538 0 0 1 0.7,0.16 c 0,0.11 0.218,0.143 0.32,0.049 0.055,-0.05 0.091,-0.051 0.351,-0.009 0.4,0.064 0.386,0.029 0.386,1.071 v 0.854 l -0.538,-0.487 c -0.61,-0.55 -0.733,-0.614 -1.091,-0.546 l -0.191,0.033 z m -0.8,1.491 v 0 c 0,-0.08 0.072,-0.086 0.15,-0.014 a 0.258,0.258 0 0 1 0.077,0.165 v 0.093 l -0.006,-0.005 v 0.023 l -0.112,-0.1 a 0.357,0.357 0 0 1 -0.111,-0.144 v 0 c 0,-0.01 0.009,-0.008 0.011,-0.016 z m -0.347,0.237 c 0,-0.1 0.147,-0.033 0.351,0.157 0.164,0.1529998 0.216,0.2259998 0.216,0.2999998 a 0.088,0.088 0 0 1 -0.01,0.053 c -0.008,0.051 -0.051,0.017 -0.279,-0.192 a 1.544,1.544 0 0 1 -0.278,-0.2999998 c 0,-0.009 0.016,0 0.018,-0.006 z m -0.25,0.2939998 c 0.021,-0.048 0.146,0.033 0.449,0.3 0.303,0.267 0.369,0.339 0.369,0.423 h -0.01 a 0.083,0.083 0 0 1 0,0.015 c 0,0.113 -0.8,-0.55 -0.825,-0.685 10e-4,-0.03 0.005,-0.048 0.02,-0.053 z m -0.239,0.405 c 0,-0.123 0.168,-0.016 0.6,0.381 0.364,0.337 0.463,0.447 0.453,0.51 l -0.013,-0.01 a 0.108,0.108 0 0 1 0.007,0.027 4.16,4.16 0 0 1 -1.051,-0.89 c 0,-0.009 0.007,-0.008 0.009,-0.014 z m 1.722,2.161 c -0.026,0 -0.47,-0.381 -0.987,-0.845 -0.791,-0.71 -0.92,-0.837 -0.883,-0.883 a 0.025,0.025 0 0 1 0.01,-0.024 c 0.054,-0.041 0.133,0.018 0.638,0.471 0.317,0.285 0.734,0.66 0.926,0.827 0.255,0.227 0.368,0.369 0.341,0.415 0.005,0.025 -0.007,0.04 -0.042,0.039 z m 0.219,-0.489 c -0.047,0.07 -0.121,0.034 -0.417,-0.241 -0.227,-0.21 -0.278,-0.261 -0.239,-0.273 0,-0.017 0.015,-0.023 0.058,-0.023 0.129,0 0.651,0.449 0.6,0.519 0,0 -0.008,0 -0.011,0.008 z m 0.207,-0.406 c 0,0.111 -0.092,0.066 -0.317,-0.143 -0.167,-0.154 -0.216,-0.224 -0.206,-0.287 h 0.012 c 0,-0.006 -0.007,-0.014 -0.006,-0.019 0.014,-0.1 0.524,0.32 0.522,0.431 0,0.009 -0.01,0 -0.012,0.007 z m 0.274,-0.284 c -0.056,0.055 -0.177,-0.029 -0.533,-0.361 -0.223,-0.212 -0.275,-0.275 -0.265,-0.352 0,-0.008 0,-0.009 0.006,-0.015 v 0 c 0.012,-0.087 0.039,-0.069 0.427,0.29 0.31,0.287 0.4,0.394 0.371,0.423 h -0.006 c 0.002,0.004 0.006,0.012 0.003,0.015 z m 0.329,-0.277 c 0,0.124 -0.1,0.055 -0.623,-0.419 h -0.002 c -0.408,-0.37 -0.512,-0.483 -0.5,-0.55 l 0.013,0.01 a 0.108,0.108 0 0 1 -0.007,-0.027 4.165,4.165 0 0 1 1.13,0.968 c 0,0.009 -0.006,0.009 -0.008,0.016 z m 0.338,-0.231 a 7.855,7.855 0 0 1 -0.764,-0.634 c -0.649,-0.5829998 -0.708,-0.6459998 -0.7,-0.7409998 v -0.012 c 0.007,-0.055 0.022,-0.089 0.032,-0.069 0.01,0.02 0.341,0.325 0.736,0.6789998 0.523,0.467 0.722,0.667 0.726,0.734 0.017,0.028 0.006,0.043 -0.03,0.043 z m 0.4,-0.159 a 21.978,21.978 0 0 1 -1.864,-1.6729998 v 0 a 0.055,0.055 0 0 1 0.009,-0.04 c 0.014,-0.09 0.189,0.047 1,0.763 0.665,0.5899998 0.924,0.8499998 0.909,0.9119998 0.01,0.033 -0.003,0.047 -0.049,0.038 z m 0.526,-0.115 a 17.829,17.829 0 0 1 -1.9,-1.6699998 v 0 a 0.043,0.043 0 0 1 0.009,-0.013 v -0.005 0 c 0.035,-0.1 0.172,0 1.026,0.764 0.786,0.6999998 0.934,0.8369998 0.9,0.8839998 0.012,0.022 -0.005,0.031 -0.03,0.04 z m 2.167,1.188 h -0.035 l -0.372,-0.013 0.132,0.125 0.205,0.009 0.336,0.015 -0.192,-0.17 z m 5.3347382,-0.143631 h -0.035 -0.157 l 0.135,0.126 0.544,0.025 c -0.088,-0.076 -0.18,-0.157 -0.279,-0.245 z m 7.372262,0.395631 -0.552,-0.258 -0.6,-0.032 v 0 c -0.329,-0.018 -0.679,-0.035 -0.776,-0.037 l -0.178,-0.009 -0.718,0.949 -0.716,0.95 0.441,0.409 a 6.3,6.3 0 0 0 1.57,1.031 c 0.902,-1.071 2.17,-2.686 2.129,-2.711 -0.041,-0.025 -0.3,-0.151 -0.6,-0.292 z m -2.682,-0.708 a 0.5,0.5 0 0 0 -0.018,0.2 2.623,2.623 0 0 1 -1.68,1.925 c -0.4,0.157 -0.906,0.085 -0.906,-0.129 0,-0.079 -0.056,-0.05 -0.142,0.076 l -0.085,0.122 0.122,0.1 c 0.419,0.352 1.267,0.143 2.012,-0.495 0.709,-0.605 1.24,-1.731 0.839,-1.776 v 0 c -0.067,-0.012 -0.131,-0.023 -0.142,-0.023 z m 0.712,-0.034 0.77,-0.366 c 0.747,-0.359 2.155,-0.664 1.684,-0.679 -0.151,0 -0.546,-0.029 -0.877,-0.055 v 0 a 4.449,4.449 0 0 0 -1.769,0.074 l -0.6,0.13 c 0,0 -0.865,0.859 -0.761,0.847 0.036,-0.006 1.553,0.049 1.553,0.049 z m -2.918,1.08 0.054,0.034 v 0.014 l 0.145,-0.2 0.493,-0.687 -0.25,-0.175 c -0.349,-0.242 -0.431,-0.282 -1.147,0.681 l 0.082,0.039 c 0.096,0.04 0.569,0.26 0.623,0.294 z m -0.648,1.569 -0.264,1.518 0.374,1.187 2.517,-0.368 c 0,0 -0.911,-2.409 -0.921,-2.424 -0.01,-0.015 -1.706,0.087 -1.706,0.087 z m -2.777,-3.493 0.471,-0.1 c -0.1,-0.093 -0.2,-0.18 -0.282,-0.282 0,-0.009 0.008,-0.007 0.01,-0.014 v 0 c 0,-0.1079998 0.141,-0.025 0.463,0.261 0.114,-0.028 0.23,-0.031 0.345,-0.05 a 2.41,2.41 0 0 1 -0.582,-0.5619998 c -0.006,-0.031 0,-0.049 0.013,-0.054 0.021,-0.047 0.146,0.034 0.449,0.3 a 2.879,2.879 0 0 1 0.307,0.2899998 4.534,4.534 0 0 1 1,-0.012 c -0.293,-0.2709998 -0.385,-0.3759998 -0.376,-0.4339998 l 0.013,0.009 a 0.108,0.108 0 0 1 -0.007,-0.027 4.2,4.2 0 0 1 0.641,0.4659998 c 0.172,0.014 0.356,0.026 0.517,0.036 -0.155,-0.125 -0.315,-0.245 -0.46,-0.382 -0.649,-0.583 -0.708,-0.645 -0.7,-0.741 v -0.02 c 0.008,-0.055 0.023,-0.088 0.033,-0.069 0.01,0.019 0.341,0.326 0.736,0.679 0.284,0.254 0.457,0.417 0.573,0.536 l 0.152,0.006 c 0.057,0 0.21,0.007 0.229,0.143 0.019,0.136 -0.086,0.187 -0.615,0.355 -0.006,0.011 -0.018,0.015 -0.035,0.011 l -0.014,0.005 c -0.1,0.031 -0.208,0.068 -0.313,0.1 0.052,0.061 0.068,0.094 0.053,0.109 h -0.008 c 0,0.005 0,0.013 0,0.016 -0.033,0.032 -0.094,0.009 -0.2,-0.075 -0.094,0.032 -0.176,0.063 -0.267,0.1 0.107,0.1 0.2,0.2 0.2,0.245 0,0.009 -0.01,0 -0.012,0.008 l 0.006,0.01 c 0,0.111 -0.092,0.066 -0.316,-0.144 -0.024,-0.022 -0.03,-0.032 -0.049,-0.051 -0.1,0.038 -0.2,0.074 -0.287,0.115 l -0.02,0.009 c 0.2,0.121 0.509,0.4 0.472,0.458 0,0 -0.008,0 -0.011,0.008 l 0.005,0.01 c -0.047,0.07 -0.121,0.035 -0.417,-0.24 -0.086,-0.079 -0.141,-0.132 -0.181,-0.172 l -0.273,0.131 c 0.142,0.128 0.272,0.244 0.356,0.317 l 0.022,0.021 0.609,0.042 0.388,0.181 a 2.418,2.418 0 0 1 0.66,-0.749 c 0.311,-0.211 0.267,-0.213 0.6,0.025 l 0.273,0.2 0.159,-0.08 a 3.241,3.241 0 0 0 0.521,-0.435 l 0.361,-0.355 -0.5,-0.465 -0.505,-0.464 -0.011,-1.2 -0.011,-1.2 -0.1,-0.077 a 1.523,1.523 0 0 0 -0.625,-0.16 l -0.526,-0.082 0.015,-0.22 v 0 l 0.015,-0.22 h -0.385 v 0.381 l -0.122,-0.019 -0.316,-0.05 a 1.769,1.769 0 0 0 -0.471,0 c -0.422,0.049 -0.416,0.036 -0.416,0.872 v 0.687 l -0.2,0.125 c -0.889,0.543 -1.552,1.612 -1.325,2.135 0,0 0.027,0.03 0.036,0.041 l 0.208,-0.21 z m 4.25,-0.242 c 0,0.021 -0.013,0.03 -0.039,0.039 a 17.914,17.914 0 0 1 -1.9,-1.67 v 0 a 0.043,0.043 0 0 1 0.009,-0.013 l -0.005,-0.005 v 0 c 0.036,-0.1 0.173,0 1.026,0.764 0.793,0.705 0.94,0.837 0.909,0.885 z m -2.422,-2.5879998 v 0 a 1.913,1.913 0 0 1 0.048,-0.564 1.529,1.529 0 0 1 0.7,0.161 c 0,0.11 0.218,0.142 0.319,0.048 0.056,-0.05 0.092,-0.051 0.351,-0.009 0.4,0.065 0.386,0.029 0.387,1.071 v 0.851 l -0.538,-0.488 c -0.61,-0.55 -0.733,-0.614 -1.092,-0.546 l -0.184,0.035 z m -0.015,1.067 a 0.053,0.053 0 0 1 0.009,-0.039 c 0.014,-0.09 0.189,0.046 0.995,0.762 0.666,0.5909998 0.925,0.8509998 0.91,0.9129998 0.014,0.034 0,0.049 -0.045,0.04 a 22.162,22.162 0 0 1 -1.869,-1.6739998 z m -0.788,0.425 v 0 c 0,-0.08 0.071,-0.086 0.15,-0.014 a 0.265,0.265 0 0 1 0.077,0.165 v 0.093 l -0.006,-0.005 v 0.023 l -0.112,-0.1 a 0.357,0.357 0 0 1 -0.11,-0.146 v 0 c 0,-0.01 0.009,-0.008 0.011,-0.015 z m -0.345,0.236 c 0,-0.1 0.147,-0.033 0.35,0.157 0.165,0.153 0.216,0.226 0.216,0.3 a 0.09,0.09 0 0 1 -0.009,0.053 c -0.009,0.051 -0.051,0.018 -0.279,-0.192 a 1.489,1.489 0 0 1 -0.284,-0.3 c 0,-0.009 0.015,0 0.018,0 z"/>

</svg>