<svg xmlns="http://www.w3.org/2000/svg" viewBox="0 0 24 24"><path fill="#44739e" d="M19.963 11.746h-.071a3.47 3.47 0 0 0-2.657 2.915c-.1 1.058.212 1.515 1.093 1.629a2.47 2.47 0 0 0 1.7-.764 3.26 3.26 0 0 0 1.125-1.874 1.81 1.81 0 0 0-.364-1.548 1.12 1.12 0 0 0-.825-.358m.252.207h.013a.2.2 0 0 1 .153.067.33.33 0 0 1 .068.286.6.6 0 0 1-.21.346.45.45 0 0 1-.313.14c-.163-.02-.22-.104-.2-.3a.64.64 0 0 1 .489-.54Zm-.885.114h.013a.2.2 0 0 1 .153.067.33.33 0 0 1 .068.286.6.6 0 0 1-.21.346.45.45 0 0 1-.313.14c-.163-.02-.22-.105-.2-.3a.64.64 0 0 1 .489-.54m-.26 1.05h.015a.2.2 0 0 1 .153.068.33.33 0 0 1 .067.286.6.6 0 0 1-.208.346.45.45 0 0 1-.315.14c-.162-.02-.22-.104-.2-.3a.64.64 0 0 1 .489-.54m-.884.116h.013a.2.2 0 0 1 .154.067.34.34 0 0 1 .067.286.6.6 0 0 1-.208.346.46.46 0 0 1-.315.14c-.163-.02-.22-.104-.2-.3a.64.64 0 0 1 .489-.54m-.55 1.92c-.163-.02-.22-.1-.2-.3a.64.64 0 0 1 .49-.537h.017a.2.2 0 0 1 .153.067.33.33 0 0 1 .068.286.6.6 0 0 1-.21.346.45.45 0 0 1-.318.137Zm.942.769a.46.46 0 0 1-.314.14c-.163-.02-.22-.1-.2-.3a.64.64 0 0 1 .49-.537h.014a.2.2 0 0 1 .153.066.33.33 0 0 1 .068.287.6.6 0 0 1-.211.344m-.057-.883c-.163-.021-.22-.105-.2-.3a.64.64 0 0 1 .49-.538h.014a.2.2 0 0 1 .153.067.33.33 0 0 1 .068.287.6.6 0 0 1-.21.345.45.45 0 0 1-.315.139m.942.768a.46.46 0 0 1-.314.142c-.163-.022-.22-.106-.2-.3a.64.64 0 0 1 .494-.542h.01a.2.2 0 0 1 .153.067.33.33 0 0 1 .068.286.6.6 0 0 1-.211.347m.28-1.064a.45.45 0 0 1-.314.14c-.163-.02-.22-.105-.2-.3a.64.64 0 0 1 .49-.537h.014a.2.2 0 0 1 .153.067.33.33 0 0 1 .068.286.6.6 0 0 1-.211.344m.26-1.082a.45.45 0 0 1-.315.14c-.162-.02-.22-.105-.2-.3a.64.64 0 0 1 .49-.538h.015a.2.2 0 0 1 .153.067.34.34 0 0 1 .067.286.6.6 0 0 1-.21.345m.623.967a.45.45 0 0 1-.314.14c-.163-.02-.22-.1-.2-.3a.64.64 0 0 1 .49-.537h.014a.2.2 0 0 1 .153.067.33.33 0 0 1 .068.286.6.6 0 0 1-.211.344m.25-1.781a.2.2 0 0 1 .153.067.33.33 0 0 1 .068.286.6.6 0 0 1-.21.346.46.46 0 0 1-.313.14c-.163-.02-.22-.104-.2-.3a.64.64 0 0 1 .49-.537Zm-7.211-1.124h-.071a3.47 3.47 0 0 0-2.657 2.915c-.095 1.058.21 1.515 1.093 1.629a2.47 2.47 0 0 0 1.7-.764 3.26 3.26 0 0 0 1.126-1.874 1.82 1.82 0 0 0-.366-1.55 1.12 1.12 0 0 0-.824-.356m.252.207h.013a.2.2 0 0 1 .153.067.33.33 0 0 1 .068.286.6.6 0 0 1-.21.346.46.46 0 0 1-.313.14c-.163-.02-.22-.104-.2-.3a.64.64 0 0 1 .489-.54Zm-.886.114h.015a.2.2 0 0 1 .153.067.33.33 0 0 1 .068.286.6.6 0 0 1-.21.346.46.46 0 0 1-.313.14c-.163-.02-.22-.105-.2-.3a.64.64 0 0 1 .487-.54m-.258 1.05h.013a.2.2 0 0 1 .154.068.34.34 0 0 1 .067.286.6.6 0 0 1-.208.346.45.45 0 0 1-.315.14c-.163-.02-.22-.104-.2-.3a.64.64 0 0 1 .489-.54m-.885.116h.013a.2.2 0 0 1 .153.067.33.33 0 0 1 .068.286.6.6 0 0 1-.21.346.45.45 0 0 1-.313.14c-.163-.02-.22-.104-.2-.3a.64.64 0 0 1 .489-.54m-.551 1.919c-.163-.021-.22-.1-.2-.3a.64.64 0 0 1 .49-.538h.015a.2.2 0 0 1 .153.067.34.34 0 0 1 .067.286.6.6 0 0 1-.208.346.46.46 0 0 1-.317.139m.943.768a.45.45 0 0 1-.315.14c-.162-.02-.22-.1-.2-.3a.64.64 0 0 1 .49-.537h.015a.2.2 0 0 1 .153.066.34.34 0 0 1 .067.287.6.6 0 0 1-.21.346Zm-.058-.883c-.162-.021-.22-.105-.2-.3a.64.64 0 0 1 .49-.538h.014a.2.2 0 0 1 .153.067.33.33 0 0 1 .068.287.6.6 0 0 1-.21.345.45.45 0 0 1-.315.14Zm.943.768a.46.46 0 0 1-.314.142c-.163-.022-.22-.106-.2-.3a.64.64 0 0 1 .49-.54h.015a.2.2 0 0 1 .153.068.33.33 0 0 1 .068.286.6.6 0 0 1-.212.346Zm.28-1.064a.45.45 0 0 1-.314.14c-.162-.02-.22-.105-.2-.3a.64.64 0 0 1 .49-.537h.014a.2.2 0 0 1 .153.067.34.34 0 0 1 .067.286.6.6 0 0 1-.21.346Zm.259-1.082a.45.45 0 0 1-.314.14c-.163-.02-.22-.105-.2-.3a.64.64 0 0 1 .49-.538h.014a.2.2 0 0 1 .153.067.33.33 0 0 1 .068.286.6.6 0 0 1-.211.347Zm.624.967a.46.46 0 0 1-.314.14c-.163-.02-.22-.1-.2-.3a.64.64 0 0 1 .49-.537h.014a.2.2 0 0 1 .153.067.33.33 0 0 1 .068.286.6.6 0 0 1-.211.346Zm.249-1.781a.2.2 0 0 1 .154.067.34.34 0 0 1 .067.286.6.6 0 0 1-.208.346.45.45 0 0 1-.315.14c-.163-.02-.22-.104-.2-.3a.64.64 0 0 1 .49-.537Zm6.726-1.529a3 3 0 0 1-.043-.328c.094-.216.209-.359.014-.5a.3.3 0 0 0-.106-.01h-.066v-.036a12 12 0 0 1-.15-1.743q-.013-.382-.038-.782l-.116-.435-.008-.02a.73.73 0 0 0-.467-.4l-3.012-.293a2.5 2.5 0 0 0-.881.02c-.539.177-.656.448-.811 1.07 0 .03-.4 2.928-.446 3.372-.007.068-.017.163-.026.27l-.133-.18a2.4 2.4 0 0 1-.044-.329l.047-.1a2 2 0 0 0 .062.285c.019-.16.063-.494.115-.89.006-.167.009-.322.009-.43a5 5 0 0 0-.036-.72 5 5 0 0 1-.072-.685c0-.109.1-.079.347-.027l.073-.543-.276-.016a.14.14 0 0 0-.116.05c-.236.276-.222.307-.467.613-.008-.2-.015-.4-.03-.61l-.128-.437-.01-.014a.73.73 0 0 0-.466-.4h-.003l-3.012-.293a2.5 2.5 0 0 0-.881.02c-.538.177-.655.448-.811 1.07 0 .03-.394 2.928-.444 3.372-.008.07-.018.167-.027.276l-.162-.219a3 3 0 0 1-.043-.328c.022-.05.044-.1.064-.139a2.5 2.5 0 0 0 .073.355l.115-.89c.006-.167.01-.322.009-.43a5 5 0 0 0-.036-.72 5 5 0 0 1-.076-.685c0-.109.1-.079.348-.027l.073-.543-.277-.016a.14.14 0 0 0-.116.05c-.24.28-.22.306-.474.622a.1.1 0 0 0-.017.053 21 21 0 0 0-.033-.7l-.118-.43-.007-.014a.74.74 0 0 0-.467-.4l-3.022-.319a2.6 2.6 0 0 0-.881.018c-.538.176-.655.45-.81 1.076 0 .03-.395 2.927-.446 3.372a6.6 6.6 0 0 0-.043 1.067.2.2 0 0 1-.011.062l-.056.127a2 2 0 0 0-.108.282 2.4 2.4 0 0 0-.084.75 4 4 0 0 0 .177.846.4.4 0 0 0 .04.088.2.2 0 0 1 .046-.042.3.3 0 0 1 .167-.05.84.84 0 0 1 .507.233.02.02 0 0 0 .02.005.02.02 0 0 0 .014-.014 2 2 0 0 0 .077-.3 2.66 2.66 0 0 0-.042-1.239l-.09-.377a3.7 3.7 0 0 1-.176-1.17v-.014a5.3 5.3 0 0 1 .125-1.014c.1-.555.15-.92.193-1.213a11 11 0 0 1 .21-1.14 2 2 0 0 0 .037-.249 1.3 1.3 0 0 1 .259-.758l.024-.03a.5.5 0 0 1 .256-.2 2.4 2.4 0 0 1 .76 0l2.2.215a.2.2 0 0 1 .05.013.87.87 0 0 1 .5.678l.006.034.29 1.7h-.131a1.2 1.2 0 0 0-.274.072 1 1 0 0 1-.27.01.2.2 0 0 1-.05-.055 4.7 4.7 0 0 0-.51-1.2 1.14 1.14 0 0 0-.38-.314.13.13 0 0 0-.066-.018l-1.323-.035a.14.14 0 0 0-.118.058.7.7 0 0 1-.166.163 2 2 0 0 0-.165.115 1 1 0 0 1-.072.058c-.09.05-.22.043-.238 0-.024-.06.183-.14.18-.288v-.013a.14.14 0 0 0-.131-.12l-.54-.033a2 2 0 0 1-.034.217 12 12 0 0 0-.085.38l2.115.041a.6.6 0 0 1 .51.245 2 2 0 0 1 .309.451.2.2 0 0 0 .024.032c.128.132.2.178.252.31a.6.6 0 0 1 .036.141.2.2 0 0 0-.087.121c-.008.04.007.073-.021.115s-.086.041-.137.08a.3.3 0 0 0-.086.224.5.5 0 0 0 .014.124c.027.113.087.154.065.191-.04.066-.24-.03-.288.036s.114.2.136.382v.023a1 1 0 0 1-.13.35.9.9 0 0 1-.243.22 4.4 4.4 0 0 0-1 .881 6.3 6.3 0 0 0-.826 1.243 5 5 0 0 0-.3.722 1.9 1.9 0 0 0-.043.812v-.072a2 2 0 0 0 .053.247 2 2 0 0 0 .057.185v-.007a3 3 0 0 0 .2.46 2.4 2.4 0 0 0 .5.684c.02.014.107.088.194.145a1 1 0 0 0 .086.051c.089.042.015.244.015.244a.6.6 0 0 0 .13.158l.972-.266a.2.2 0 0 1 .014-.116.27.27 0 0 1 .346-.086c.035.025.037.051.058.08 0 0 .889-.224.893-.195.008.074.04-.039.065-.173 0-.013-.261.054.057-.252.155-.15.4-.353.432-.382a6 6 0 0 0 1.084-1.4l.154.271.036.032c.04.033.463.478.547.567l.012.013v.018a.4.4 0 0 1 0 .117v.016c.164.172.453.447.734.71a1.98 1.98 0 0 1-.391-1.7 4.85 4.85 0 0 1 1.928-2.837 5 5 0 0 0 .41-.344.74.74 0 0 0 .165-.555.2.2 0 0 0-.02-.038l-.02-.03a1 1 0 0 0-.058-.077l-.012-.01h.008v-.116a1 1 0 0 0 .17-.007 1 1 0 0 0 .126-.017q-.027-.022-.068-.059a.075.075 0 0 1-.028-.1l.007-.023a5 5 0 0 0-.442-.17.2.2 0 0 0-.057-.017h-.037q-.111-.002-.213.006l-.1.008h-.047l-.17.023-.043.007-.145.026-.062.012a2 2 0 0 0-.171.043l-.1.033-.036.013a1 1 0 0 0-.145.06l-.033.014-.072.034a3 3 0 0 0-.194.105 3.5 3.5 0 0 0-.936.81l-.283.455c0 .057.012.113.02.172l.8.705-.032.065-.757-.69c.019.1.046.218.08.368l.556.511-.037.07-.495-.466.02.085.078.327.313.26-.04.112-.24-.219a2.7 2.7 0 0 1 .024 1.172 3 3 0 0 1-.08.31.09.09 0 0 1-.061.058h-.022a.1.1 0 0 1-.058-.022.8.8 0 0 0-.425-.206l.026-.06a.9.9 0 0 1 .443.216.02.02 0 0 0 .02.005.02.02 0 0 0 .015-.014 3 3 0 0 0 .077-.3 2.7 2.7 0 0 0-.043-1.24l-.09-.377a3.8 3.8 0 0 1-.174-1.171v-.013a5.3 5.3 0 0 1 .126-1.014c.1-.555.15-.92.193-1.213a11 11 0 0 1 .212-1.14 2 2 0 0 0 .036-.248 1.27 1.27 0 0 1 .259-.759l.024-.03a.5.5 0 0 1 .255-.2 2.4 2.4 0 0 1 .76 0l2.2.215a.1.1 0 0 1 .05.014.87.87 0 0 1 .5.677l.006.034.29 1.7h-.13a1 1 0 0 0-.273.072 1 1 0 0 1-.27.01.2.2 0 0 1-.05-.056 4.6 4.6 0 0 0-.506-1.204A1.14 1.14 0 0 0 12.608 8a.2.2 0 0 0-.065-.018l-1.327-.03a.14.14 0 0 0-.118.058.6.6 0 0 1-.166.163 2 2 0 0 0-.165.115 1 1 0 0 1-.072.058c-.09.05-.22.044-.238 0s.183-.14.18-.288v-.01a.14.14 0 0 0-.131-.122l-.54-.032a2 2 0 0 1-.032.217 10 10 0 0 0-.086.38l2.115.044a.6.6 0 0 1 .51.245 2 2 0 0 1 .31.451.1.1 0 0 0 .023.032c.128.132.2.178.252.31a.6.6 0 0 1 .036.141.2.2 0 0 0-.085.113c-.008.04.007.074-.021.115s-.086.041-.137.08a.3.3 0 0 0-.086.225.6.6 0 0 0 .014.124c.027.112.087.153.065.19-.04.067-.24-.03-.288.037-.05.067.115.2.137.381V11a1.1 1.1 0 0 1-.13.35.9.9 0 0 1-.24.226 4.4 4.4 0 0 0-1 .88 6.3 6.3 0 0 0-.825 1.244 5 5 0 0 0-.3.721 1.9 1.9 0 0 0-.044.813v-.073a2 2 0 0 0 .053.247 2 2 0 0 0 .058.19 3 3 0 0 0 .193.444 2.5 2.5 0 0 0 .5.684c.02.014.107.087.194.145a1 1 0 0 0 .087.05c.089.043.014.244.014.244a.6.6 0 0 0 .13.158l.972-.266c.006-.04-.008-.07.015-.115a.267.267 0 0 1 .345-.087c.035.025.038.052.058.08 0 0 .89-.224.893-.195.008.074.04-.038.065-.173 0-.012-.261.054.057-.252.156-.149.4-.353.432-.382a6 6 0 0 0 1.08-1.379l.13.23.036.032c.042.033.463.478.548.567l.012.013v.018a.4.4 0 0 1 0 .117v.016c.165.172.454.447.735.71a1.98 1.98 0 0 1-.391-1.7 4.84 4.84 0 0 1 1.927-2.837 5 5 0 0 0 .41-.344.75.75 0 0 0 .166-.555.2.2 0 0 0-.02-.038l-.02-.03a1 1 0 0 0-.058-.077l-.012-.01h.008v-.116a1 1 0 0 0 .169-.007 1 1 0 0 0 .127-.017l-.068-.059a.075.075 0 0 1-.028-.1.1.1 0 0 0 .009-.029 5 5 0 0 0-.442-.17.3.3 0 0 0-.058-.015h-.037q-.11-.002-.214.006l-.1.008h-.047l-.17.023-.043.007-.146.026-.061.012a2 2 0 0 0-.172.043l-.1.033-.036.013c-.047.017-.1.037-.144.06l-.033.014-.072.034a3 3 0 0 0-.194.105 3.5 3.5 0 0 0-.938.81l-.284.454a1 1 0 0 0 .02.172l.801.705-.032.065-.754-.688c.019.1.045.218.08.368l.556.511-.038.067-.501-.465.02.085.078.327.315.26-.041.112-.239-.222a2.7 2.7 0 0 1 .025 1.17 3 3 0 0 1-.08.31.09.09 0 0 1-.061.058h-.022a.08.08 0 0 1-.058-.022.8.8 0 0 0-.385-.2l.026-.059a.9.9 0 0 1 .4.205.02.02 0 0 0 .02 0 .02.02 0 0 0 .015-.014 2 2 0 0 0 .077-.3 2.7 2.7 0 0 0-.042-1.24l-.09-.377a3.8 3.8 0 0 1-.174-1.171v-.009a5.3 5.3 0 0 1 .125-1.014c.1-.555.149-.92.193-1.213a11 11 0 0 1 .211-1.14 2 2 0 0 0 .037-.248 1.3 1.3 0 0 1 .259-.759l.024-.03a.5.5 0 0 1 .256-.2 2.4 2.4 0 0 1 .76 0l2.2.215a.1.1 0 0 1 .05.014.86.86 0 0 1 .5.677l.006.034.292 1.7h-.128a1 1 0 0 0-.274.072 1 1 0 0 1-.27.01.2.2 0 0 1-.05-.056 4.7 4.7 0 0 0-.51-1.2 1.1 1.1 0 0 0-.38-.31.2.2 0 0 0-.065-.019l-1.325-.03a.14.14 0 0 0-.118.058.6.6 0 0 1-.166.163 2 2 0 0 0-.166.115.5.5 0 0 1-.076.061c-.088.05-.22.044-.237 0-.018-.044.183-.14.18-.288v-.014a.14.14 0 0 0-.132-.12l-.538-.033a1.4 1.4 0 0 1-.034.217 10 10 0 0 0-.085.38l2.115.044a.6.6 0 0 1 .51.245 2 2 0 0 1 .309.451.1.1 0 0 0 .023.032c.129.132.2.178.253.31a.6.6 0 0 1 .036.141.2.2 0 0 0-.085.113c-.008.04.006.074-.021.115s-.086.041-.137.08a.3.3 0 0 0-.086.225.6.6 0 0 0 .014.124c.027.112.087.153.065.19-.04.067-.24-.03-.29.037-.048.067.116.2.138.381V11a1 1 0 0 1-.13.35.9.9 0 0 1-.24.226 4.4 4.4 0 0 0-1 .88 6.3 6.3 0 0 0-.825 1.244 5 5 0 0 0-.3.721 1.9 1.9 0 0 0-.043.813v-.073a2 2 0 0 0 .052.248 2 2 0 0 0 .056.181 3 3 0 0 0 .2.452 2.4 2.4 0 0 0 .5.684c.02.014.107.087.194.145a1 1 0 0 0 .086.05c.089.043.015.244.015.244a.6.6 0 0 0 .129.158l.973-.266c.005-.04-.01-.07.014-.115a.27.27 0 0 1 .346-.087c.035.025.037.052.057.08 0 0 .89-.224.894-.195.008.074.04-.038.064-.173 0-.012-.26.054.058-.252.155-.149.4-.353.432-.382a4.75 4.75 0 0 0 1.376-2.167 2.56 2.56 0 0 0-.593-2.477m-12.654-.858a.4.4 0 0 0-.106-.009h-.068v-.036A12 12 0 0 1 8.328 8.7a6.7 6.7 0 0 1 .32 1.731m-.81-.858.063-.03.012.065-.067.006c-.028 0-.048 0-.05-.007s.016-.02.043-.034m.025.167.024-.015.01-.006v.007a.03.03 0 0 0 .024-.026 2 2 0 0 0 .066.31l.018.074-.082-.056c-.11-.076-.2-.145-.2-.145-.005-.045.064-.098.14-.143m.835 3.851a3.4 3.4 0 0 1-1.173 1.954 2.8 2.8 0 0 1-1.674.8 1 1 0 0 1-.133-.008 1.31 1.31 0 0 1-1.031-.553 1.96 1.96 0 0 1-.183-1.222 3.5 3.5 0 0 1 1.052-2.1 2.97 2.97 0 0 1 1.73-.939 1.27 1.27 0 0 1 1.007.401 1.94 1.94 0 0 1 .405 1.667m3.394-3.401h.072l.389.315h-.1l-.374-.313Zm-.393.027.07-.008h.009l.727.59-.07.02-.737-.6Zm-.3.073.775.628-.074.037-.777-.652Zm-.413.1.042-.016.024-.01.818.706-.077.043-.818-.719Zm-.21.1.844.728-.068.05-.841-.738Zm-.254.17.843.727-.068.05-.841-.738Zm-.243.172.857.741-.063.055-.845-.744Zm-.194.19.845.729-.053.064-.843-.741Zm-.193.215.844.744-.04.06-.853-.75Zm-.2.224.84.741-.04.06-.842-.741Zm-.214.296.042-.059.84.74-.04.06Zm5.473-1.301-.084-.008h-.066v-.036a12 12 0 0 1-.143-1.639 8 8 0 0 1 .293 1.686Zm-.784-.854.063-.03.01.065-.066.006c-.028 0-.048 0-.05-.006s.016-.018.043-.032Zm.024.167.02-.013.01-.006v.01a.03.03 0 0 0 .03-.025 3 3 0 0 0 .06.31l.018.073q-.043-.028-.082-.056c-.11-.076-.2-.144-.2-.144-.001-.048.068-.1.14-.146Zm.836 3.851a3.4 3.4 0 0 1-1.173 1.954 2.8 2.8 0 0 1-1.675.8 1 1 0 0 1-.133-.008 1.32 1.32 0 0 1-1.026-.55 1.95 1.95 0 0 1-.182-1.215 3.48 3.48 0 0 1 1.05-2.1 2.97 2.97 0 0 1 1.73-.939 1.27 1.27 0 0 1 1.007.4 1.95 1.95 0 0 1 .402 1.661Zm3.361-3.431h.073l.389.314h-.1l-.375-.313Zm-.393.026.07-.008.729.59-.07.02-.737-.6Zm-.3.073.775.628-.074.037-.777-.653Zm-.413.1.042-.016.024-.01.817.706-.076.043-.818-.719Zm-.21.1.843.728-.068.05-.84-.738Zm-.255.17.843.727-.068.05-.84-.738Zm-.243.172.858.741-.063.055-.846-.744Zm-.193.19.844.729-.053.064-.842-.741Zm-.193.215.843.744-.04.06-.852-.75Zm-.201.224.841.741-.04.06-.844-.741Zm-.21.301.042-.059.841.74-.04.06Zm4.689-2.151.062-.03.01.065-.065.006c-.028 0-.048 0-.05-.006s.017-.025.044-.039Zm.023.167.022-.013.01-.006v.003a.03.03 0 0 0 .029-.025 3 3 0 0 0 .06.31l.018.073-.081-.056c-.11-.076-.2-.144-.2-.144-.001-.048.068-.1.142-.146Zm.836 3.851a3.4 3.4 0 0 1-1.173 1.954 2.8 2.8 0 0 1-1.674.8 1 1 0 0 1-.133-.008 1.31 1.31 0 0 1-1.026-.55 1.95 1.95 0 0 1-.183-1.222 3.48 3.48 0 0 1 1.053-2.1 2.97 2.97 0 0 1 1.73-.939 1.27 1.27 0 0 1 1.007.4 1.94 1.94 0 0 1 .4 1.661ZM2.579 10.25c.006-.167.009-.321.009-.43a5 5 0 0 0-.036-.72 5 5 0 0 1-.072-.684c0-.11.1-.08.348-.028l.073-.542-.277-.018a.14.14 0 0 0-.116.05c-.239.28-.219.306-.475.623a.17.17 0 0 0-.014.18 19 19 0 0 1 .445 2.459Zm1.161 4.251a4.85 4.85 0 0 1 1.928-2.838 5 5 0 0 0 .41-.344.75.75 0 0 0 .166-.554.2.2 0 0 0-.02-.037l-.02-.03a1 1 0 0 0-.058-.077l-.012-.01h.008v-.116a1 1 0 0 0 .17-.007 1 1 0 0 0 .126-.017q-.027-.022-.068-.06a.075.075 0 0 1-.028-.1l.007-.022a5 5 0 0 0-.442-.171.4.4 0 0 0-.061-.014h-.03q-.11-.002-.214.006l-.1.007-.047.005a3 3 0 0 0-.17.023l-.043.007-.146.026-.061.012a2 2 0 0 0-.172.043l-.1.032-.036.013a2 2 0 0 0-.145.059l-.033.016-.072.034c-.064.03-.13.066-.194.1a3.5 3.5 0 0 0-.936.81l-.29.454a1 1 0 0 0 .02.173l.8.705-.032.064-.757-.686c.019.1.045.218.08.369l.555.51-.033.065-.5-.464.02.085c.024.1.05.2.078.327l.314.258-.04.114-.24-.222a2.7 2.7 0 0 1 .022 1.169 3 3 0 0 1-.08.309.09.09 0 0 1-.061.058h-.022a.1.1 0 0 1-.058-.022.78.78 0 0 0-.464-.217.2.2 0 0 0-.045 0l.022.09.164.29.036.032c.042.033.463.478.547.567l.012.013v.018a.4.4 0 0 1 0 .117v.016c.165.172.454.447.735.71a1.99 1.99 0 0 1-.39-1.698m2.025-4.359h.072l.389.315h-.1l-.374-.314Zm-.394.028.07-.01.729.59-.07.02-.737-.6Zm-.3.072.775.628-.074.037-.778-.651Zm-.413.1.042-.017.024-.01.817.707-.076.043-.818-.72Zm-.21.1.843.728-.068.05-.84-.738Zm-.255.169.844.728-.07.05-.84-.738Zm-.243.172.858.74-.063.057-.845-.744Zm-.193.19.845.73-.054.063-.845-.731Zm-.193.216.843.744-.04.06-.852-.751Zm-.2.224.84.74-.04.06-.842-.741Zm-.213.289.042-.06.84.74-.04.06Zm4.197-.012h-.072a3.47 3.47 0 0 0-2.657 2.915c-.1 1.058.211 1.515 1.093 1.629a2.47 2.47 0 0 0 1.7-.764 3.26 3.26 0 0 0 1.13-1.871 1.82 1.82 0 0 0-.367-1.55 1.12 1.12 0 0 0-.827-.36m.251.207h.013a.2.2 0 0 1 .153.067.33.33 0 0 1 .068.286.6.6 0 0 1-.209.346.45.45 0 0 1-.314.14c-.163-.02-.22-.105-.2-.3a.64.64 0 0 1 .49-.54m-.886.115h.014a.2.2 0 0 1 .153.067.33.33 0 0 1 .068.286.6.6 0 0 1-.209.346.46.46 0 0 1-.314.14c-.163-.02-.22-.105-.2-.3a.64.64 0 0 1 .488-.54m-.259 1.05h.01a.2.2 0 0 1 .154.068.34.34 0 0 1 .067.286.6.6 0 0 1-.208.346.46.46 0 0 1-.315.14c-.163-.02-.219-.104-.2-.3a.64.64 0 0 1 .492-.54m-.884.115h.012a.2.2 0 0 1 .153.067.33.33 0 0 1 .068.286.6.6 0 0 1-.209.346.45.45 0 0 1-.314.14c-.163-.02-.219-.105-.2-.3a.64.64 0 0 1 .49-.54m-.55 1.922c-.163-.021-.22-.106-.2-.3a.64.64 0 0 1 .49-.54h.013a.2.2 0 0 1 .153.068.34.34 0 0 1 .067.286.6.6 0 0 1-.208.346.45.45 0 0 1-.316.14m.944.768a.45.45 0 0 1-.315.14c-.162-.02-.219-.1-.2-.3a.64.64 0 0 1 .49-.537h.015a.2.2 0 0 1 .153.067.34.34 0 0 1 .067.286.6.6 0 0 1-.21.344m-.057-.883c-.163-.021-.22-.105-.2-.3a.64.64 0 0 1 .49-.538h.014a.2.2 0 0 1 .153.067.33.33 0 0 1 .068.286.6.6 0 0 1-.209.346.45.45 0 0 1-.318.139Zm.942.768a.46.46 0 0 1-.314.14c-.163-.02-.22-.104-.2-.3a.64.64 0 0 1 .491-.537h.013a.2.2 0 0 1 .153.067.33.33 0 0 1 .068.286.6.6 0 0 1-.213.344Zm.278-1.068a.46.46 0 0 1-.314.14c-.163-.02-.22-.105-.2-.3a.64.64 0 0 1 .49-.538h.014a.2.2 0 0 1 .153.067.33.33 0 0 1 .068.286.6.6 0 0 1-.213.345Zm.262-1.078a.47.47 0 0 1-.315.14c-.163-.02-.219-.105-.2-.3a.64.64 0 0 1 .491-.538h.01a.2.2 0 0 1 .153.067.34.34 0 0 1 .067.286.6.6 0 0 1-.208.345Zm.623.967a.45.45 0 0 1-.314.14c-.163-.02-.22-.105-.2-.3a.64.64 0 0 1 .491-.538h.013a.2.2 0 0 1 .153.067.33.33 0 0 1 .068.286.6.6 0 0 1-.213.345Zm.25-1.785a.2.2 0 0 1 .153.067.34.34 0 0 1 .067.286.6.6 0 0 1-.208.346.45.45 0 0 1-.318.145c-.162-.021-.219-.106-.2-.3a.64.64 0 0 1 .491-.54Z"/></svg>