<svg xmlns="http://www.w3.org/2000/svg" viewBox="0 0 24 24"><path fill="#44739e" d="M15.201 11.39h-.137c-1.784.108-4.737 2.514-5.004 5.493-.179 1.992.398 2.852 2.058 3.067a4.63 4.63 0 0 0 3.21-1.435 6.16 6.16 0 0 0 2.127-3.525 3.43 3.43 0 0 0-.694-2.917 2.1 2.1 0 0 0-1.56-.683m.471.39h.025a.38.38 0 0 1 .288.127.63.63 0 0 1 .128.538 1.13 1.13 0 0 1-.394.651.86.86 0 0 1-.591.266c-.307-.04-.414-.199-.38-.567a1.2 1.2 0 0 1 .926-1.015Zm-1.667.215h.025a.4.4 0 0 1 .289.128.63.63 0 0 1 .127.537 1.13 1.13 0 0 1-.394.652.86.86 0 0 1-.591.266c-.307-.041-.413-.199-.382-.567a1.2 1.2 0 0 1 .926-1.016m-.487 1.98h.025a.4.4 0 0 1 .289.127.64.64 0 0 1 .128.538 1.13 1.13 0 0 1-.394.651.87.87 0 0 1-.592.266c-.307-.04-.414-.199-.38-.567a1.2 1.2 0 0 1 .924-1.015m-1.667.216h.025a.4.4 0 0 1 .288.128.63.63 0 0 1 .128.537 1.16 1.16 0 0 1-.394.651.86.86 0 0 1-.591.267c-.307-.041-.414-.199-.382-.568a1.2 1.2 0 0 1 .93-1.015Zm-1.042 3.619c-.307-.04-.413-.197-.38-.566a1.2 1.2 0 0 1 .926-1.015h.026a.4.4 0 0 1 .288.127.63.63 0 0 1 .127.537 1.16 1.16 0 0 1-.393.652.86.86 0 0 1-.591.266Zm2.168.796a1.16 1.16 0 0 1-.394.651.86.86 0 0 1-.591.266c-.307-.039-.413-.199-.38-.567a1.2 1.2 0 0 1 .926-1.014h.026a.4.4 0 0 1 .288.127.64.64 0 0 1 .13.537Zm-.5-1.013c-.307-.039-.413-.197-.382-.566a1.2 1.2 0 0 1 .926-1.014h.025a.4.4 0 0 1 .29.128.64.64 0 0 1 .127.537 1.13 1.13 0 0 1-.393.651.86.86 0 0 1-.588.264Zm2.168.797a1.13 1.13 0 0 1-.394.65.86.86 0 0 1-.591.266c-.307-.039-.413-.196-.382-.566a1.2 1.2 0 0 1 .926-1.015h.025a.4.4 0 0 1 .29.128.64.64 0 0 1 .131.537Zm.523-2.005a1.16 1.16 0 0 1-.393.65.86.86 0 0 1-.592.267c-.307-.041-.413-.2-.382-.568a1.2 1.2 0 0 1 .926-1.014h.027a.4.4 0 0 1 .288.128.64.64 0 0 1 .131.537Zm.1-1.389a.86.86 0 0 1-.592.266c-.306-.041-.414-.199-.382-.567a1.2 1.2 0 0 1 .926-1.014h.026a.4.4 0 0 1 .289.127.64.64 0 0 1 .127.538 1.13 1.13 0 0 1-.39.651Zm1.567 1.171a1.12 1.12 0 0 1-.394.651.87.87 0 0 1-.591.266c-.307-.041-.413-.199-.38-.567a1.2 1.2 0 0 1 .926-1.014h.026a.38.38 0 0 1 .288.127.63.63 0 0 1 .13.538Zm.078-2.704a.4.4 0 0 1 .288.128.64.64 0 0 1 .127.538 1.16 1.16 0 0 1-.393.65.86.86 0 0 1-.592.267c-.307-.04-.413-.2-.38-.568a1.2 1.2 0 0 1 .926-1.014Zm.74-2.836a5 5 0 0 1-.081-.617c.178-.407.396-.676.028-.943a.7.7 0 0 0-.199-.019q-.059.001-.127-.005v-.069a23 23 0 0 1-.283-3.284c-.017-.478-.034-.972-.069-1.472v-.007l-.222-.81v-.007l-.013-.026a1.39 1.39 0 0 0-.88-.76h-.009l-5.672-.551h-.007a4.8 4.8 0 0 0-1.66.035c-1.014.335-1.234.846-1.525 2.017-.009.055-.745 5.513-.841 6.352a13 13 0 0 0-.082 2.008.3.3 0 0 1-.02.116q-.054.132-.105.238a3.5 3.5 0 0 0-.204.53 4.5 4.5 0 0 0-.157 1.412 5 5 0 0 0 .185 1.088 5 5 0 0 0 .146.507 1 1 0 0 0 .077.167.5.5 0 0 1 .084-.081.53.53 0 0 1 .315-.092 1.6 1.6 0 0 1 .953.439.04.04 0 0 0 .039.01.04.04 0 0 0 .027-.027 5.2 5.2 0 0 0 .065-2.903c-.063-.271-.116-.505-.169-.71a7.2 7.2 0 0 1-.327-2.205v-.026a10 10 0 0 1 .231-1.91c.18-1.042.281-1.737.362-2.285a20 20 0 0 1 .406-2.139 3.5 3.5 0 0 0 .068-.469 2.43 2.43 0 0 1 .488-1.43l.045-.058a.93.93 0 0 1 .482-.377 4.5 4.5 0 0 1 1.433.009l4.144.408a.2.2 0 0 1 .093.025 1.63 1.63 0 0 1 .937 1.273l.012.064.55 3.195h-.243a2 2 0 0 0-.514.135 2 2 0 0 1-.507.018.3.3 0 0 1-.094-.103 8.8 8.8 0 0 0-.963-2.253 2.1 2.1 0 0 0-.716-.59.3.3 0 0 0-.123-.035l-2.494-.076a.27.27 0 0 0-.222.109 1.3 1.3 0 0 1-.313.307 4 4 0 0 0-.312.218 1 1 0 0 1-.134.108c-.167.093-.415.082-.448 0-.047-.116.347-.264.339-.542V4.52a.266.266 0 0 0-.249-.231l-1.014-.058a4 4 0 0 1-.063.407c-.066.266-.115.498-.162.713l3.985.086a1.13 1.13 0 0 1 .963.463 4 4 0 0 1 .578.848.2.2 0 0 0 .043.061c.242.25.379.335.475.578a1.2 1.2 0 0 1 .068.268.35.35 0 0 0-.158.211c-.015.076.011.139-.041.217-.067.1-.162.078-.258.15a.53.53 0 0 0-.162.424 1 1 0 0 0 .027.232c.05.21.164.289.121.358-.074.125-.451-.057-.544.07-.093.125.218.37.259.718v.044a2 2 0 0 1-.244.656 1.7 1.7 0 0 1-.451.426 8.3 8.3 0 0 0-1.884 1.656 12 12 0 0 0-1.558 2.344 8.7 8.7 0 0 0-.561 1.358 3 3 0 0 0-.116.735 3.3 3.3 0 0 0 .376 1.905l-.128-.409-.012-.035a6 6 0 0 0 .378.868 4.5 4.5 0 0 0 .934 1.287c.038.027.201.165.366.273a1 1 0 0 0 .162.095c.167.081.027.463.027.463a1.2 1.2 0 0 0 .243.299l1.833-.502c.01-.078-.015-.133.028-.217a.5.5 0 0 1 .65-.162c.066.046.07.096.109.148 0 0 1.676-.421 1.682-.367.016.14.076-.071.123-.324 0-.025-.491.101.108-.474.292-.283.757-.666.811-.72a8.96 8.96 0 0 0 2.591-4.084 4.84 4.84 0 0 0-1.109-4.671m-9.128 7.444v-.148a5 5 0 0 0 .1.478Zm7.557-10.614.115-.058.022.123-.125.011c-.053 0-.092 0-.096-.011-.004-.014.033-.04.084-.066m.043.312.042-.023.018-.012v.013a.06.06 0 0 0 .055-.046h.007v.007a5 5 0 0 0 .116.579l.032.138-.154-.104a15 15 0 0 1-.374-.274c-.014-.093.116-.191.258-.278m-2.824 2.403a1 1 0 0 1-.139.411Zm4.399 4.85a6.4 6.4 0 0 1-2.209 3.681 5.28 5.28 0 0 1-3.154 1.514 2 2 0 0 1-.251-.015 2.48 2.48 0 0 1-1.933-1.042 3.68 3.68 0 0 1-.348-2.301 6.55 6.55 0 0 1 1.98-3.95 5.58 5.58 0 0 1 3.264-1.768 2.4 2.4 0 0 1 1.897.757 3.66 3.66 0 0 1 .755 3.125M6.131 8.679c.012-.315.018-.606.018-.81a10 10 0 0 0-.07-1.358 9 9 0 0 1-.134-1.288c0-.206.196-.15.654-.052.067-.497.116-.872.138-1.023l-.521-.031a.27.27 0 0 0-.22.094c-.449.528-.411.579-.893 1.174a.32.32 0 0 0-.026.339c.501.912.558 3.813.838 4.63.038-.3.118-.928.216-1.675m2.229 8.094a9.12 9.12 0 0 1 3.63-5.346 9 9 0 0 0 .773-.646 1.4 1.4 0 0 0 .31-1.042.4.4 0 0 0-.037-.071l-.038-.056a1 1 0 0 0-.109-.145l-.023-.018h.015v-.225c.116 0 .22 0 .319-.011a2 2 0 0 0 .239-.034 1 1 0 0 1-.129-.116.14.14 0 0 1-.052-.184.1.1 0 0 0 .012-.042v-.003a10 10 0 0 0-.834-.32.6.6 0 0 0-.115-.027h-.004l-.016-.008-.043.007c-.139 0-.273 0-.401.011l-.191.014-.09.01c-.115.011-.215.026-.318.041l-.083.014-.273.049-.116.023a4 4 0 0 0-.324.082 4 4 0 0 0-.186.06l-.066.025a4 4 0 0 0-.273.115l-.062.029-.136.065c-.115.059-.243.124-.364.197a6.6 6.6 0 0 0-1.764 1.524l-.546.857q.014.157.04.324l1.505 1.327-.063.122-1.419-1.296c.035.192.086.411.153.694l1.042.962-.063.122-.932-.874.038.16.146.614.591.489-.076.214-.446-.425a5.2 5.2 0 0 1-.109 2.784.16.16 0 0 1-.116.11l-.043.006a.16.16 0 0 1-.109-.043 1.47 1.47 0 0 0-.871-.409l-.084.007.041.171.308.546.067.06c.08.061.872.9 1.03 1.068l.023.025v.034a.7.7 0 0 1 0 .22v.029c.309.325.855.843 1.389 1.338a3.74 3.74 0 0 1-.747-3.208m3.813-8.207h.135l.733.591h-.197l-.706-.59Zm-.742.049.131-.015h.012l1.369 1.112-.129.035-1.389-1.129h.007Zm-.572.139 1.458 1.181-.139.071-1.464-1.227Zm-.778.188.079-.031.045-.018 1.539 1.329-.143.081L10.06 8.95Zm-.395.197 1.589 1.37-.128.095-1.584-1.389Zm-.48.318 1.588 1.37-.129.094-1.583-1.389Zm-.463.324 1.62 1.389-.115.104-1.596-1.393Zm-.365.359 1.591 1.372-.1.115-1.587-1.389Zm-.365.405 1.59 1.398-.075.116-1.6-1.412Zm-.366.421 1.583 1.389-.075.116-1.584-1.392Zm-.401.544.08-.115 1.582 1.389-.075.115Z"/></svg>