<?xml version="1.0" encoding="UTF-8"?>
<svg width="24px" fill="#44739e" height="24px" viewBox="0 0 24 24" version="1.1" xmlns="http://www.w3.org/2000/svg" xmlns:xlink="http://www.w3.org/1999/xlink">
            <path d="m 21.838,13.779 v 0 l -0.072,-0.18 a 0.832,0.832 0 0 0 -0.728,-0.313 0.751,0.751 0 0 0 -0.683,0.326 1,1 0 0 0 -0.138,0.53 0.736,0.736 0 0 0 0.3,0.613 l 0.052,0.036 0.02,0.013 0.09,0.062 -0.012,-0.018 a 0.977,0.977 0 0 0 0.429,0.086 0.727,0.727 0 0 0 0.826,-0.767 0.921,0.921 0 0 0 -0.084,-0.388 z m -0.647,-0.341 a 0.752,0.752 0 0 0 -0.682,0.326 1.018,1.018 0 0 0 -0.138,0.53 0.862,0.862 0 0 0 0.041,0.261 0.726,0.726 0 0 1 -0.123,-0.413 0.708,0.708 0 0 1 0.749,-0.785 0.909,0.909 0 0 1 0.521,0.136 1.166,1.166 0 0 0 -0.368,-0.055 z m -1.57,-2.624 -0.015,-0.018 v 0 a 1.512,1.512 0 0 0 -1.173,-0.494 1.721,1.721 0 0 0 -1.056,0.293 1.226,1.226 0 0 0 -0.1,0.079 V 10.389 H 15.3 v 2.883 a 1.128,1.128 0 0 1 -0.355,0.032 l -0.062,-0.011 a 0.386,0.386 0 0 1 -0.028,-0.134 v -2.548 l 0.008,-0.222 h -1.95 v 0.341 a 1.462,1.462 0 0 0 -0.666,-0.366 2.078,2.078 0 0 0 -0.974,0.035 2.023,2.023 0 0 0 -1,0.689 A 1.929,1.929 0 0 0 9.942,11.702 2.3,2.3 0 0 0 9.863,12 3.111,3.111 0 0 0 9.827,12.969 2.145,2.145 0 0 1 8.951,13.261 0.457,0.457 0 0 1 8.772,13.227 l -0.085,0.029 a 0.367,0.367 0 0 1 -0.1,-0.264 v -1.11 H 9.839 V 10.611 H 9.855 V 10.389 H 8.56 V 9.547 H 8.584 V 9.325 H 6.638 v 3 C 6.538,12.125 6.194,11.7 5.124,11.371 4.408,11.151 3.915,11.09 4.001,10.778 c 0.071,-0.257 0.5,-0.235 0.5,-0.235 a 3.7,3.7 0 0 1 1.743,0.58 V 9.5 L 6.268,9.51 V 9.347 L 6.247,9.338 c 0,0 -0.124,-0.056 -0.328,-0.125 A 4.5,4.5 0 0 0 4.54,8.994 3.2,3.2 0 0 0 2.727,9.525 v 0 a 1.766,1.766 0 0 0 -0.554,0.832 2.066,2.066 0 0 0 -0.07,0.875 1.409,1.409 0 0 0 0.275,0.681 v 0 a 1.626,1.626 0 0 0 0.15,0.146 v -0.005 a 4.068,4.068 0 0 0 1.689,0.677 1.277,1.277 0 0 1 0.587,0.228 l 0.006,0.012 a 0.48,0.48 0 0 1 0.042,0.145 0.2,0.2 0 0 1 -0.077,0.16 1.137,1.137 0 0 1 -0.835,0.08 3.677,3.677 0 0 1 -1.285,-0.54 l -0.041,-0.029 -0.482,1.651 0.024,0.014 0.025,0.014 -0.007,0.022 a 4.654,4.654 0 0 0 2.7,0.468 1.947,1.947 0 0 0 1.836,-1.38 1.452,1.452 0 0 0 1.434,1.417 3.466,3.466 0 0 0 2.291,-0.63 1.663,1.663 0 0 0 1.39,0.626 1.381,1.381 0 0 0 1.289,-0.611 c 0,0 0.132,0.611 1.149,0.611 0.933,0 1.105,-0.154 1.105,-0.154 V 14.9 h 1.9 v -2.664 a 0.735,0.735 0 0 1 0.656,-0.105 0.412,0.412 0 0 1 0.07,0.034 0.538,0.538 0 0 1 0.148,0.4 v 2.3 H 18.2 V 14.9 h 1.87 v -2.868 a 2.611,2.611 0 0 0 -0.246,-0.918 1.78,1.78 0 0 0 -0.203,-0.3 z M 9.783,10.462 v 0.082 H 8.716 L 8.634,10.462 Z M 2.873,9.68 a 1.766,1.766 0 0 0 -0.551,0.833 2.054,2.054 0 0 0 -0.07,0.876 1.716,1.716 0 0 0 0.1,0.372 1.474,1.474 0 0 1 -0.18,-0.534 1.821,1.821 0 0 1 0.6,-1.642 3.666,3.666 0 0 1 3.127,-0.3 c 0.152,0.052 0.258,0.1 0.3,0.113 V 9.414 L 6.075,9.37 A 4.536,4.536 0 0 0 4.712,9.151 H 4.692 A 3.22,3.22 0 0 0 2.876,9.68 Z M 2.326,14.466 C 2.276,14.442 2.239,14.423 2.217,14.411 l 0.439,-1.5 0.1,0.065 z m 2.6,-1.031 a 1.143,1.143 0 0 1 -0.835,0.08 3.13,3.13 0 0 1 -0.889,-0.311 2.934,2.934 0 0 0 0.724,0.229 1.186,1.186 0 0 0 0.893,-0.1 0.278,0.278 0 0 0 0.1,-0.215 0.223,0.223 0 0 0 0,-0.034 0.313,0.313 0 0 1 0.086,0.186 0.2,0.2 0 0 1 -0.075,0.165 z M 8.512,9.474 H 6.787 v 3.047 A 1.641,1.641 0 0 0 6.705,12.372 v -2.98 h 1.807 z m 1.911,1.764 A 2.277,2.277 0 0 0 9.967,12.477 3.091,3.091 0 0 0 9.978,13.119 2.147,2.147 0 0 1 9.102,13.41 0.348,0.348 0 0 1 8.84,13.319 0.552,0.552 0 0 0 8.949,13.329 2.252,2.252 0 0 0 9.881,13.016 L 9.9,13 v -0.023 a 3.142,3.142 0 0 1 0.032,-0.969 v 0 a 1.957,1.957 0 0 1 0.075,-0.283 v 0 a 1.936,1.936 0 0 1 2.224,-1.291 1.032,1.032 0 0 1 0.315,0.119 1.081,1.081 0 0 0 -0.148,-0.041 2.078,2.078 0 0 0 -0.974,0.035 2.022,2.022 0 0 0 -1.001,0.691 z m 1.4,1.756 a 0.8,0.8 0 0 1 -0.056,-0.3 0.638,0.638 0 0 1 0.626,-0.7 0.978,0.978 0 0 1 0.525,0.134 v 1 a 0.9,0.9 0 0 1 -0.546,0.155 0.715,0.715 0 0 1 -0.443,-0.191 z m 1.248,0.281 a 0.9,0.9 0 0 1 -0.545,0.155 0.688,0.688 0 0 1 -0.332,-0.11 0.628,0.628 0 0 0 0.178,0.028 0.907,0.907 0 0 0 0.606,-0.183 l 0.011,-0.01 v -0.948 a 0.77,0.77 0 0 1 0.082,0.087 z m 1.73,-2.731 h -1.738 v 0.337 c -0.023,-0.02 -0.05,-0.044 -0.083,-0.07 v -0.349 h 1.82 z m 2.4,0 h -1.74 v 2.885 a 0.609,0.609 0 0 1 -0.295,0.024 v 0 a 0.329,0.329 0 0 1 -0.125,-0.069 1.6,1.6 0 0 0 0.312,-0.047 l 0.027,-0.006 v -2.869 h 1.82 z m 1.09,4.256 h -0.083 v -2.229 a 0.7,0.7 0 0 0 -0.033,-0.211 0.735,0.735 0 0 1 0.116,0.363 z m 0.292,-4.34 a 1.959,1.959 0 0 0 -0.919,0.21 1.347,1.347 0 0 0 -0.272,0.187 l -0.1,-0.1 a 1.034,1.034 0 0 1 0.123,-0.1 1.942,1.942 0 0 1 1.844,-0.091 1.914,1.914 0 0 0 -0.676,-0.109 z m 1.02,0.337 z m 0.004,10e-4 -10e-4,-0.002 v 0 z m 0.022,0.025 -0.022,-0.025 0.014,0.016 z m -0.022,-0.025 v 0 z"/>

</svg>