<svg xmlns="http://www.w3.org/2000/svg" viewBox="0 0 24 24"><path fill="#44739e" d="M2 6.221v11.558h20V6.221Zm17.853 9.073v1.867H2.755v-3.733h17.1Zm-.894-3.037h-.894v-1.106c0-.742 0-1.126-.007-1.168a.426.426 0 0 0-.312-.41 1 1 0 0 0-.317 0 .7.7 0 0 0-.247.1l-.021.016v2.568h-1.789v-.052l-.066.016a4.5 4.5 0 0 1-.606.1 5 5 0 0 1-.641 0 1.2 1.2 0 0 1-.529-.184.96.96 0 0 1-.292-.344.3.3 0 0 0-.028-.052.2.2 0 0 0-.029.034 2 2 0 0 1-.213.213 1.53 1.53 0 0 1-1.032.337 1.76 1.76 0 0 1-.943-.294 1.6 1.6 0 0 1-.273-.223.5.5 0 0 0-.088-.078s-.056.037-.114.078a3.25 3.25 0 0 1-1.635.519 3.6 3.6 0 0 1-.56-.012 1.34 1.34 0 0 1-1.053-.7 2 2 0 0 1-.178-.557.4.4 0 0 0-.015-.074.4.4 0 0 0-.025.063 1.64 1.64 0 0 1-.428.672 2.35 2.35 0 0 1-1.436.6 5 5 0 0 1-.621.01 5.1 5.1 0 0 1-1.514-.341 1.6 1.6 0 0 1-.286-.137s.1-.345.207-.757.206-.749.209-.749.036.02.075.044a3.4 3.4 0 0 0 1.458.515.9.9 0 0 0 .38-.034.36.36 0 0 0 .245-.265c.024-.133-.057-.235-.25-.315-.031-.013-.3-.092-.6-.176a5 5 0 0 1-.967-.314 1.42 1.42 0 0 1-.69-.625 1.4 1.4 0 0 1-.142-.5 2.7 2.7 0 0 1 .008-.483 1.66 1.66 0 0 1 .337-.777A2.24 2.24 0 0 1 4.5 6.664c.085-.013.277-.031.376-.035a6 6 0 0 1 .541.012 3 3 0 0 1 .739.146c.115.038.45.164.459.173s.01 1.635 0 1.635l-.054-.031a4 4 0 0 0-1.156-.456 2 2 0 0 0-.447-.052.57.57 0 0 0-.422.122.25.25 0 0 0-.074.2c.012.091.067.146.2.2.027.01.274.091.549.179.552.176.662.214.808.274a2.6 2.6 0 0 1 .584.323 1.36 1.36 0 0 1 .406.483l.039.078V6.937h1.794v1.047h1.2v1.379h-1.2v.567a4 4 0 0 0 .013.605.3.3 0 0 0 .148.194.46.46 0 0 0 .232.039 1.44 1.44 0 0 0 .768-.24l.106-.063v-.042a3 3 0 0 1-.009-.478 2.3 2.3 0 0 1 .629-1.523 1.75 1.75 0 0 1 1.306-.508 1.4 1.4 0 0 1 .377.048 1.36 1.36 0 0 1 .623.366l.043.046v-.39h1.789v1.325c0 1.236 0 1.328.013 1.363a.2.2 0 0 0 .124.154.7.7 0 0 0 .313-.03l.056-.017V7.984h1.789v.325l.049-.039a1.77 1.77 0 0 1 .882-.355 2.5 2.5 0 0 1 .457 0 1.35 1.35 0 0 1 .939.516 1.74 1.74 0 0 1 .35.958c.011.086.012.214.013 1.481v1.387Zm2.745-.532a.62.62 0 0 1-.332.444.84.84 0 0 1-.377.086.675.675 0 0 1-.788-.56 1.2 1.2 0 0 1 0-.326.63.63 0 0 1 .463-.533.8.8 0 0 1 .309-.033.8.8 0 0 1 .208.019.7.7 0 0 1 .324.165.65.65 0 0 1 .2.391 1.3 1.3 0 0 1-.011.347Zm-8.989-2.246a1.3 1.3 0 0 0-.3-.012.59.59 0 0 0-.5.66.62.62 0 0 0 .316.6.85.85 0 0 0 .606.015 1 1 0 0 0 .207-.1l.035-.024v-.989l-.048-.029a1 1 0 0 0-.316-.121m-1.743 4.583a1.34 1.34 0 0 0-.575.223 1.5 1.5 0 0 0-.241.226 1.3 1.3 0 0 0-.241.489 1.4 1.4 0 0 0 0 .586 1.3 1.3 0 0 0 .136.341 1.276 1.276 0 1 0 1.29-1.864 2 2 0 0 0-.369-.001m.269.484a.72.72 0 0 1 .621.621 1.3 1.3 0 0 1 0 .261.71.71 0 0 1-.514.592.8.8 0 0 1-.257.022.67.67 0 0 1-.434-.2.73.73 0 0 1-.212-.417 1 1 0 0 1 .012-.332.75.75 0 0 1 .2-.353.71.71 0 0 1 .584-.194M5 15.308a1.46 1.46 0 0 0-.606-.265c-.39-.1-.467-.155-.468-.3a.2.2 0 0 1 .013-.082.28.28 0 0 1 .254-.134 1.03 1.03 0 0 1 .607.2.2.2 0 0 0 .053.029c.007 0 .274-.394.271-.4l-.042-.032a1.4 1.4 0 0 0-.68-.264 2 2 0 0 0-.316 0 1 1 0 0 0-.258.071.69.69 0 0 0-.426.725.61.61 0 0 0 .472.566 4 4 0 0 0 .352.106c.277.076.387.129.426.205a.25.25 0 0 1 .009.159c-.048.144-.279.2-.554.135a1.3 1.3 0 0 1-.454-.234c-.021-.017-.04-.029-.043-.025l-.155.186-.151.182.015.016a1 1 0 0 0 .077.062 1.5 1.5 0 0 0 .7.294 1.8 1.8 0 0 0 .444 0 .72.72 0 0 0 .648-.625 1 1 0 0 0-.015-.294.56.56 0 0 0-.173-.281M7.782 14.1c-.035 0-.288-.007-.583-.007h-.522V16.5H7.2v-.722h.231a2 2 0 0 0 .431-.027.83.83 0 0 0 .655-.518.8.8 0 0 0 .045-.3.8.8 0 0 0-.014-.19.8.8 0 0 0-.766-.643m-.057 1.194a2 2 0 0 1-.285.009H7.2v-.729h.24a1.4 1.4 0 0 1 .3.013.335.335 0 0 1 .283.254.5.5 0 0 1 .007.1.35.35 0 0 1-.305.351Zm10.229-.715.002.957.001.958h.527l.002-.958.002-.957h.728l-.001-.243-.002-.242-.99-.002-.991-.001v.488h.361Zm-4.048 1.915h.526v-.764h.413l.255.383.255.384h.307a1.4 1.4 0 0 0 .3-.009s-.132-.2-.29-.429a20 20 0 0 1-.287-.424h.007a1 1 0 0 0 .17-.086.7.7 0 0 0 .308-.435 1.2 1.2 0 0 0 .013-.374.76.76 0 0 0-.755-.639c-.044 0-.3-.007-.653-.007H13.9v1.2Zm.53-1.58v-.342h.29c.18 0 .307 0 .336.008a.32.32 0 0 1 .3.334.31.31 0 0 1-.177.295c-.09.044-.113.046-.454.046h-.3Z"/></svg>