<?xml version="1.0" encoding="UTF-8"?>
<svg xmlns="http://www.w3.org/2000/svg" width="24" height="24" fill="#44739e" viewBox="0 0 24 24"><path d="M5.76 2A3.758 3.758 0 0 0 2 5.76v12.48A3.758 3.758 0 0 0 5.76 22h12.48A3.758 3.758 0 0 0 22 18.24V5.76A3.758 3.758 0 0 0 18.24 2Zm5.29 6.865.665 2.072H13.9l-1.767 1.272.666 2.07-1.75-1.271-1.766 1.271.19-.588s.835-1.12 2.355-2.242a6.165 6.165 0 0 0-1.898.76L8.2 10.938h2.166zm-7.03.647c.722 0 1.18.342 1.408.912l-.8.361c-.132-.323-.322-.459-.57-.459-.284 0-.456.172-.456.381 0 .17.095.324.38.438l.57.285c.609.267.932.645.932 1.234 0 .742-.628 1.275-1.445 1.275-.76 0-1.349-.42-1.539-1.123l.836-.248c.133.38.4.553.703.553.285 0 .494-.19.494-.457 0-.247-.152-.38-.494-.531l-.607-.305c-.532-.285-.762-.646-.762-1.121 0-.684.57-1.195 1.35-1.195zm10.128.056h1.502c.95 0 1.52.475 1.52 1.33 0 .646-.495 1.178-1.084 1.254l1.217 1.711h-1.065l-1.158-1.71v1.71h-.932zm-8.42.006h2.829v.846h-.932v3.45h-.95v-3.45H5.73Zm13.461.463h.924v1.326H21.5v.881h-1.387v1.317h-.924v-1.317h-1.377v-.88h1.377zm-4.109.348v1.064h.57c.361 0 .588-.228.588-.57 0-.304-.226-.494-.588-.494z"/></svg>