<svg xmlns="http://www.w3.org/2000/svg" viewBox="0 0 24 24"><path fill="#44739e" d="m19.781 12.531-2.359-8.75a1.83 1.83 0 0 0-.994-1.181l-.873-.409a2 2 0 0 0-.84-.19 1 1 0 0 0-.154.007l-.885.071a2 2 0 0 0-.645.159L4.487 5.987a.52.52 0 0 0-.293.587L6.608 16.9a.656.656 0 0 0 .639.513.6.6 0 0 0 .187-.028l3.4-1.026 1.536-.017-.082.124a1.5 1.5 0 0 0 .4 2.093l.059.04-.034.062a1.16 1.16 0 0 0-.14.56V22h3.514v-.22l-.031-2.554a1.26 1.26 0 0 0-.416-.919l-.064-.06.067-.057a.7.7 0 0 0 .272-.459v-.015a3 3 0 0 0 .022-.386 2.2 2.2 0 0 0-.653-1.555 1.3 1.3 0 0 0-.16-.153l-.112-.094 1.522-.458v-.44l2.493-.756a1.106 1.106 0 0 0 .754-1.343m-.774 1.211-2.594.785v.441l-1.454.432v.259a2.4 2.4 0 0 1 .236.216 2.13 2.13 0 0 1 .613 1.462 2.4 2.4 0 0 1-.025.375.74.74 0 0 1-.466.526 1.21 1.21 0 0 1 .593 1l.033 2.633h-3.232v-2.638a1.1 1.1 0 0 1 .239-.676 1.369 1.369 0 0 1 .106-2.525v-.067l-.824.241-1.428.016L7.4 17.248a.4.4 0 0 1-.148.019.53.53 0 0 1-.509-.4L4.324 6.538a.37.37 0 0 1 .22-.428l8.544-3.742a1.9 1.9 0 0 1 .6-.148l.88-.07a1 1 0 0 1 .148-.009 1.9 1.9 0 0 1 .788.173l.873.409a1.7 1.7 0 0 1 .923 1.1l2.359 8.75a.964.964 0 0 1-.652 1.169m-3.82 4.612-.028-.028-.059-.026-.1-.049.076-.076a.1.1 0 0 1 .064-.03 2 2 0 0 0-.822-.176 1.82 1.82 0 0 0-1.259.47l.04.016.111.041-.08.086a.96.96 0 0 0-.27.655v2.476h2.915l-.03-2.475a1.07 1.07 0 0 0-.559-.888Zm-.916 3.2a.3.3 0 1 1 .3-.3.3.3 0 0 1-.3.303ZM14.715 2.3a1 1 0 0 0-.128.007l-.887.071a1.7 1.7 0 0 0-.549.135L4.605 6.254a.21.21 0 0 0-.127.249l2.413 10.33a.37.37 0 0 0 .356.277.3.3 0 0 0 .1-.01l3.437-1.035h.011l1.428-.015 1-.294v.391l-.055.017a1 1 0 0 0-.139.055 2.66 2.66 0 0 0 .3 1.91 2.03 2.03 0 0 1 1.008-.258 2 2 0 0 1 .524.066 2.61 2.61 0 0 1-.052-2.361v-.085q-.035-.011-.1-.026l-.29-.067 1.841-.548v-.44l1.692-.512L14.843 2.3Zm1.262 7.489-.086.032-9.112 3.419-.1.039-.024-.11-1.487-5.943-.024-.079.071-.031L14.075 3l.11-.047.039.11 1.73 6.637Zm1.17-5.929a1.55 1.55 0 0 0-.838-.995l-.872-.409a1.7 1.7 0 0 0-.485-.14l3.094 11.552.915-.277a.806.806 0 0 0 .545-.981Zm-3.924 14.326a2.1 2.1 0 0 1-.3-.717 3.1 3.1 0 0 1-.031-1.187 1.212 1.212 0 0 0 .078 2.111 1.6 1.6 0 0 1 .253-.207m1.609-2.419a2.4 2.4 0 0 0 .195 2.223 2 2 0 0 1 .233.1.59.59 0 0 0 .368-.4 2.5 2.5 0 0 0 .023-.349 1.97 1.97 0 0 0-.567-1.352 1.6 1.6 0 0 0-.234-.211Z"/></svg>