<?xml version="1.0" encoding="UTF-8"?>
<svg width="24px" fill="#44739e" height="24px" viewBox="0 0 24 24" version="1.1" xmlns="http://www.w3.org/2000/svg" xmlns:xlink="http://www.w3.org/1999/xlink">
            <path d="m 14.70375,11.976631 a 4.449,4.449 0 0 0 -4.475,-4.4750001 4.4,4.4 0 0 0 -4.4760003,4.4750001 4.476,4.476 0 0 0 8.9510003,0 z m -7.7230003,-1.732 a 4.993,4.993 0 0 0 0.01,3.864 l -0.075,-0.065 a 3.649,3.649 0 0 1 -0.329,-3.943 3.925,3.925 0 0 1 3.304,-2.1920001 c 0,0 0.3610003,-0.044 0.4570003,0.1 A 4.03,4.03 0 0 0 6.9807497,10.244631 Z M 10.27775,2.9766309 v 3.231 a 5.7690001,5.7690001 0 0 1 0,11.5380001 v 3.231 a 9.0000001,9.0000001 0 0 0 0,-18.0000001 z"/>

</svg>