<?xml version="1.0" encoding="UTF-8"?>
<svg width="24px" fill="#44739e" height="24px" viewBox="0 0 24 24" version="1.1" xmlns="http://www.w3.org/2000/svg" xmlns:xlink="http://www.w3.org/1999/xlink">
            <path d="M 17.442369,4.7491071 V 19.391107 h 4.081 V 4.7491071 Z m 2.041,7.3799999 a 0.911,0.911 0 1 1 0.911,-0.911 0.911,0.911 0 0 1 -0.911,0.911 z m 0,-2.4379999 a 0.911,0.911 0 1 1 0.911,-0.911 0.911,0.911 0 0 1 -0.911,0.911 z m 0,-2.405 a 0.911,0.911 0 1 1 0.911,-0.911 0.911,0.911 0 0 1 -0.911,0.911 z M 2.5233694,19.391107 h 4.081 V 4.7491071 h -4.081 z m 2.04,-13.9099999 a 0.911,0.911 0 1 1 -0.911,0.911 0.911,0.911 0 0 1 0.911,-0.911 z m 0,2.405 a 0.911,0.911 0 1 1 -0.911,0.911 0.911,0.911 0 0 1 0.911,-0.911 z m 0,2.4379999 a 0.911,0.911 0 1 1 -0.911,0.911 0.911,0.911 0 0 1 0.911,-0.911 z m 2.678,9.067 h 9.6199996 v -3.49 H 7.2413694 Z m 8.3889996,-2.533 a 0.754,0.754 0 1 1 -0.754,0.754 0.755,0.755 0 0 1 0.754,-0.754 z m -5.6469996,0.1 h 4.1399996 v 1.312 H 9.9833694 Z m -1.444,-0.1 a 0.754,0.754 0 1 1 -0.754,0.754 0.754,0.754 0 0 1 0.754,-0.754 z"/>

</svg>