<svg xmlns="http://www.w3.org/2000/svg" viewBox="0 0 24 24"><path fill="#44739e" d="M17.897 16.421a2 2 0 0 0-.394.486 4.34 4.34 0 0 0 2.213-1.185 4.3 4.3 0 0 0-1.819.699m-12.062-.525a3.7 3.7 0 0 0-1.251-.36c.14.013.333.219.446.313l.465.346a3.2 3.2 0 0 0 1.126.566 3.4 3.4 0 0 0-.786-.865m11.809.685a4.74 4.74 0 0 0 .911-2.201 8.7 8.7 0 0 0 .127-2.876 9.7 9.7 0 0 0-.918 2.936c-.047.286.013.924-.067 1.477-.02.165-.141.551-.053.664M5.728 14.202a3.7 3.7 0 0 0 .693 2.117c.073.08.007.046.107.086.039-.079-.074-.945-.074-1.344a6 6 0 0 0-.066-1.36 8 8 0 0 0-.173-1.338c-.093-.239-.334-.931-.52-1a11.5 11.5 0 0 0 .033 2.839m6.776-5.083c0 .014.014 0 0 0m5.019 6.817-.173.239c-.259.426-.226.273-.372.473a1.9 1.9 0 0 1-1.372.7 1.73 1.73 0 0 1-1.3-.619 3.7 3.7 0 0 1-.187-1.644 11.5 11.5 0 0 1 .501-2.789 1.78 1.78 0 0 1 .658-1 .85.85 0 0 1 .693-.08c.253.067.419.22.546.24a1.4 1.4 0 0 0-.546-.552c-.347-.201-.501-.141-.901-.1.26-.221.386-.128.552-.227a5.5 5.5 0 0 0-3.208-1.151c.066.213.227.159.173.4a1.6 1.6 0 0 1-.818-.326c.239-.013.445.16.685.193-.127-.293-.519-.293-.8-.426a1.7 1.7 0 0 1 .459-.073l.352-.074c.027-.014.034-.014.04-.014s.014-.019.034-.053c-.546-.159-.659.027-1.1.101.107-.214.519-.214.632-.473-.459.013-.7.346-1.117.579.053-.16.153-.253.033-.453-.161.233-.094.401-.354.606a4.3 4.3 0 0 1-.623.305 4.6 4.6 0 0 0-1.152.739.05.05 0 0 0 .026.013.05.05 0 0 1 .027.014c.14.046.16.006.273.073.094.053.02 0 .081.066a1.46 1.46 0 0 0-1.358.64c.173-.027.219-.14.445-.2a1.3 1.3 0 0 1 .532-.053c.966.106 1.172 1.81 1.201 2.601a12.3 12.3 0 0 1-.14 2.823 1.19 1.19 0 0 1-1.278.818c-1.292 0-1.624-.692-1.99-1.771-.047-.146.013-.059-.06-.159-.093.352.133 2.156 1.001 2.583.153-.319.239-.54-.181-.46.113-.173.307-.16.513-.113-.013.02-.1.013-.113.126.772.746 4.153.62 4.333.501.047-.493-.053-.193-.658-.46a2.43 2.43 0 0 1-1.139-1.051 1.56 1.56 0 0 1-.24-.833 1.966 1.966 0 0 1 2.517-1.677 1.855 1.855 0 0 1 1.151 2.723 2 2 0 0 1-1.252.945c-.179.034-.306.014-.253.267.034.173.22.113.414.113.825-.014 1.864.04 2.615 0 .326-.014 1.019 0 1.101-.373-.094-.08-.114-.053-.24-.073.06-.048-.066-.027.14-.068a.38.38 0 0 1 .352.108c-.186.14-.02-.06-.179.173-.08.113-.027.08-.187.14l.06.359a1.6 1.6 0 0 0 .819-.926 5.5 5.5 0 0 0 .352-1.417c-.007.007-.02.02-.02.027m-5.345-2.317a4.5 4.5 0 0 0-.964.133l.046-.04a1.96 1.96 0 0 1 1.465-.127.77.77 0 0 1 .366.187 6 6 0 0 0-.913-.153m3.448.759c.58-.247.12-1.079-.292-.839-.539.313-.233 1.063.292.839m-6.949-.992a.461.461 0 0 0 .253.886c.586-.134.226-1.112-.253-.886m6.796-1.986a.63.63 0 0 0-.372.219c-.552.492-1.312 4.453-.586 5.185a1.73 1.73 0 0 0 2.662-.532 1.94 1.94 0 0 0 .453-1.292 8 8 0 0 0-.08-1.085 3.5 3.5 0 0 0-.646-1.671c-.232-.316-.79-.968-1.431-.824m1.465 3.647c-.173 1.79-1.618 2.301-2.349 1.371-.287-.359-.247-.206-.22-.479.1-.985.226-2.41 1.291-2.589.732-.124 1.384.628 1.278 1.7Zm-5.105 3.098a15 15 0 0 1-2.263-.026 4 4 0 0 1-1.578-.426 1 1 0 0 0-.08-.073c-.026-.02-.026-.027-.026-.027a.2.2 0 0 1-.054-.02.7.7 0 0 0-.1.466c1.79 1.084 5.491 1.158 7.647.632.519-.127 1.132-.246.846-.712a24 24 0 0 1-4.392.186m.078.686a5 5 0 0 1-.612-.047 1.3 1.3 0 0 1-.279-.067.6.6 0 0 1-.114-.04l-.127-.1a4.5 4.5 0 0 0 1.518.126 11 11 0 0 0 1.401-.213 3.7 3.7 0 0 1-1.787.341M7.739 16.96a1.95 1.95 0 0 0 1.771-.026c.159-.107.479-.486.319-.739-.186.067-.246.426-.832.572-1.244.313-1.871-1.325-1.571-2.575.267-1.112 1.701-1.578 2.243.106.08.246.2 1.144.24 1.224.186-.425.173-3.135-.412-3.902-.853-1.119-2.271.446-2.517 1.238a6.5 6.5 0 0 0-.366 1.851 3.55 3.55 0 0 0 1.125 2.251m-2.184-2.442c-.06-.487-.033-1.006-.086-1.491-.153-1.432.392-3.475.046-5.892-.093-.638-.392-2.149-1.024-2.123-.334.014-.773.473-.912.626a5 5 0 0 0-.672.901 6.4 6.4 0 0 0-.633 5.139 9.3 9.3 0 0 0 .901 2.243c.36.053.845-.14 1.132.066.133.294-.16.813-.267 1.101.261.352 1.079.339 1.817.658a4.7 4.7 0 0 1-.302-1.228m15.869-7.442a4.5 4.5 0 0 0-1.417-1.891c-.78-.472-1.059 1.372-1.132 1.93a18 18 0 0 0-.087 3.169 12.9 12.9 0 0 1-.153 4.553 12 12 0 0 1-.439 1.201l.752-.28c.273-.087.526-.147.812-.226.878-.26.054-.553.167-1.377a.97.97 0 0 1 .652-.075c.406.047.359.108.506-.226a8.2 8.2 0 0 0 .339-6.778"/></svg>