<svg xmlns="http://www.w3.org/2000/svg" viewBox="0 0 24 24"><path fill="#44739e" d="M18.27 2H5.73A3.73 3.73 0 0 0 2 5.73v1.461h13.757c2.3.023 2.856.565 3.489 2.168l-1.863.859v-.017a.2.2 0 0 0-.009-.051c0-.011-.006-.021-.008-.031a1.6 1.6 0 0 0-.066-.269c0-.013-.012-.026-.017-.039a1.5 1.5 0 0 0-.113-.238q-.013-.022-.028-.042a2 2 0 0 0-.149-.2q-.02-.022-.043-.043a2 2 0 0 0-.175-.16l-.06-.04a2 2 0 0 0-.191-.117l-.082-.035a2 2 0 0 0-.2-.072q-.054-.014-.11-.023a2 2 0 0 0-.188-.03h-.137a2 2 0 0 0-.21.009 2.5 2.5 0 0 0-1.233.237.77.77 0 0 0-.415.712.83.83 0 0 0 .293.6 5.1 5.1 0 0 0 1.83.667 5.7 5.7 0 0 1 2.992 1.4 3.04 3.04 0 0 1 .553 1.806 2.585 2.585 0 0 1-1.512 2.578 5.7 5.7 0 0 1-2.372.422 6 6 0 0 1-.607-.022l-.01.01H2v1.04A3.73 3.73 0 0 0 5.729 22H18.27A3.73 3.73 0 0 0 22 18.27V5.73A3.73 3.73 0 0 0 18.27 2m-1.158 13.288h-2.541a2.3 2.3 0 0 0 1.186.293 2.47 2.47 0 0 0 1.355-.293m-4.89 0H2v1.6h11.6a3.05 3.05 0 0 1-1.378-1.6m2.959-2.473a5.17 5.17 0 0 1-2.744-1.559H2v1.751h13.926c-.226-.057-.474-.124-.745-.192m-3.263 1.705 1.717-.8a2.56 2.56 0 0 0 .53 1.231h3.275l.2-.506a.5.5 0 0 0 .023-.192.85.85 0 0 0-.418-.768 1.3 1.3 0 0 0-.294-.136H2v1.6h10.087c-.057-.137-.113-.283-.169-.429m1.128-6.62a2.7 2.7 0 0 1 .689-.373H2v1.855h10.12a2.87 2.87 0 0 1 .926-1.482"/></svg>