<?xml version="1.0" encoding="UTF-8"?>
<svg xmlns="http://www.w3.org/2000/svg" fill="#44739e" width="24" height="24" viewBox="0 0 24 24">
  <path d="m 11.976563,1.6055777 c -0.302285,1e-7 -0.604312,0.1160301 -0.835938,0.3476562 L 1.9531251,11.140734 c -0.4632523,0.463252 -0.4632526,1.210576 3e-7,1.673829 l 9.2324216,9.232421 c 0.463251,0.463251 1.210576,0.463252 1.673828,0 l 9.1875,-9.1875 c 0.463253,-0.463252 0.463252,-1.210577 0,-1.673828 L 12.814454,1.9532342 C 12.582827,1.7216072 12.278847,1.6055776 11.976563,1.6055777 Z m -1.347657,6.8320312 a 0.34271913,0.41062639 0 0 1 0.230469,0.048828 l 2.330078,1.6113281 2.328125,1.613282 a 0.34271913,0.41062639 0 0 1 10e-7,0.710937 l -2.328125,1.611328 -2.330079,1.613282 A 0.34271913,0.41062639 0 0 1 10.34375,15.289172 V 12.066515 8.8438587 a 0.34271913,0.41062639 0 0 1 0.171875,-0.3574216 0.34271913,0.41062639 0 0 1 0.113278,-0.048832 z" />
</svg>
