<?xml version="1.0" encoding="UTF-8"?>
<svg width="24px" fill="#44739e" height="24px" viewBox="0 0 24 24" version="1.1" xmlns="http://www.w3.org/2000/svg" xmlns:xlink="http://www.w3.org/1999/xlink">
            <path d="M 18.27,2 H 5.73 A 3.73,3.73 0 0 0 2,5.73 v 1.461 h 13.757 c 2.3,0.023 2.856,0.565 3.489,2.168 v 0 0 l -1.863,0.859 c 0,-0.006 0,-0.011 0,-0.017 A 0.148,0.148 0 0 0 17.374,10.15 v 0 c 0,-0.011 -0.006,-0.021 -0.008,-0.031 A 1.567,1.567 0 0 0 17.3,9.85 C 17.3,9.837 17.288,9.824 17.283,9.811 A 1.528,1.528 0 0 0 17.17,9.573 C 17.162,9.558 17.151,9.545 17.142,9.531 a 1.622,1.622 0 0 0 -0.149,-0.2 C 16.98,9.316 16.964,9.302 16.95,9.288 A 1.559,1.559 0 0 0 16.775,9.128 C 16.756,9.114 16.735,9.101 16.715,9.088 A 1.628,1.628 0 0 0 16.524,8.971 C 16.497,8.958 16.469,8.948 16.442,8.936 a 1.7,1.7 0 0 0 -0.2,-0.072 C 16.206,8.854 16.169,8.848 16.132,8.841 a 1.472,1.472 0 0 0 -0.188,-0.03 c -0.045,0 -0.091,0 -0.137,0 a 1.655,1.655 0 0 0 -0.21,0.009 2.534,2.534 0 0 0 -1.233,0.237 0.77,0.77 0 0 0 -0.415,0.712 0.826,0.826 0 0 0 0.293,0.6 5.107,5.107 0 0 0 1.83,0.667 5.714,5.714 0 0 1 2.992,1.4 3.044,3.044 0 0 1 0.553,1.806 2.585,2.585 0 0 1 -1.512,2.578 5.683,5.683 0 0 1 -2.372,0.422 5.588,5.588 0 0 1 -0.607,-0.022 l -0.01,0.01 H 2 v 1.04 A 3.73,3.73 0 0 0 5.729,22 H 18.27 A 3.73,3.73 0 0 0 22,18.27 V 5.73 A 3.73,3.73 0 0 0 18.27,2 Z m -1.158,13.288 h -2.541 a 2.276,2.276 0 0 0 1.186,0.293 2.467,2.467 0 0 0 1.355,-0.293 z m -4.89,0 H 2 v 1.6 h 11.6 a 3.049,3.049 0 0 1 -1.378,-1.6 z m 2.959,-2.473 A 5.17,5.17 0 0 1 12.437,11.256 H 2 v 1.751 H 15.926 C 15.7,12.95 15.452,12.883 15.181,12.815 Z m -3.263,1.705 v 0 l 1.717,-0.8 a 2.557,2.557 0 0 0 0.53,1.231 h 3.275 l 0.2,-0.506 a 0.542,0.542 0 0 0 0.023,-0.192 0.848,0.848 0 0 0 -0.418,-0.768 1.33,1.33 0 0 0 -0.294,-0.136 H 2 v 1.6 H 12.087 C 12.03,14.812 11.974,14.666 11.918,14.52 Z M 13.046,7.9 A 2.7,2.7 0 0 1 13.735,7.527 H 2 V 9.382 H 12.12 A 2.871,2.871 0 0 1 13.046,7.9 Z" />
</svg>
