<?xml version="1.0" encoding="UTF-8"?>
<svg width="24px" fill="#44739e" height="24px" viewBox="0 0 24 24" version="1.1" xmlns="http://www.w3.org/2000/svg" xmlns:xlink="http://www.w3.org/1999/xlink">
            <path d="m 12,22 a 1.5,1.5 0 0 1 -1.061,-0.439 l -8.5,-8.5 a 1.5,1.5 0 0 1 0,-2.121 l 8.5,-8.5 a 1.5,1.5 0 0 1 2.121,0 l 8.5,8.5 a 1.5,1.5 0 0 1 0,2.121 l -8.5,8.5 A 1.5,1.5 0 0 1 12,22 Z M 12,3.5 3.5,12 12,20.5 20.5,12 Z M 10.376,16.146 A 1.126,1.126 0 0 1 9.25,15.021 V 8.979 a 1.126,1.126 0 0 1 1.779,-0.916 l 4.229,3.021 a 1.125,1.125 0 0 1 0,1.831 l -4.229,3.021 a 1.125,1.125 0 0 1 -0.653,0.21 z M 10.75,9.707 v 4.585 L 13.959,12 Z"/>

</svg>