<svg xmlns="http://www.w3.org/2000/svg" viewBox="0 0 24 24"><path fill="#44739e" d="M5.78 13.7a2 2 0 0 1-.308-.052c0 .172.016.348.028.52q.074.011.148.028t.148.028l.012-.012a.6.6 0 0 0 .212-.012l.04-.032.028-.04a1 1 0 0 0 .012-.12.33.33 0 0 0-.32-.308m10.772-2.192a.49.49 0 0 0 .188-.416.405.405 0 0 0-.388-.44.437.437 0 0 0-.388.468.45.45 0 0 0 .2.4.37.37 0 0 0 .388-.012M12 2c-4.736 0-8.3 3.412-8.3 8.668a21.8 21.8 0 0 0 .92 5.732C6.1 20.188 8.956 22 11.984 22s5.884-1.812 7.364-5.6a20.6 20.6 0 0 0 .952-5.732C20.312 5.412 16.752 2 12 2m4.336 8.08a.965.965 0 0 1 .976.976 1.05 1.05 0 0 1-.948 1.08.96.96 0 0 1-1.016-.988h-.012a1.05 1.05 0 0 1 1-1.068m-1.172 2.084a9 9 0 0 0-.64.028V10.16l-.016-.012h.64q-.002.498.008 1.008c.01.51.008.672.008 1.008m-.684-2.912h.668v.64h-.668Zm-5.228.324.012.012h-.012Zm-.968.584h.348v-.572h.616v.56h.492v.552h-.492v.664a.5.5 0 0 0 .052.188l.04.04a.6.6 0 0 0 .172.052h.24v.548H9.42a.76.76 0 0 1-.788-.8V10.7h-.348Zm-1.932 4.548a.74.74 0 0 1-.48.068q-.395-.08-.772-.16c-.064-.856-.1-1.7-.132-2.548l.092.012q.346.053.692.1a.78.78 0 0 1 .708.772.58.58 0 0 1-.228.492.83.83 0 0 1 .388.68.63.63 0 0 1-.268.584m1.312-3.26a.6.6 0 0 0-.172-.08.1.1 0 0 0-.044-.016c-.348-.116-.7-.232-.676-.692a.61.61 0 0 1 .64-.588.75.75 0 0 1 .772.692q-.119.002-.244-.008c-.084-.008-.176-.008-.264-.008a.27.27 0 0 0-.212-.228s-.2-.04-.212.108c-.012.132.148.172.148.172l.076.02c.124.032.256.068.376.112a.54.54 0 0 1 .292.268.8.8 0 0 1 .052.316.64.64 0 0 1-.732.612.776.776 0 0 1-.748-.76q.24.026.48.028a.286.286 0 0 0 .268.252.23.23 0 0 0 .136-.028c.092-.04.1-.132.064-.172m.56 3.616h-.036l-.048-.332c-.016-.112-.036-.22-.048-.332a.314.314 0 0 0-.268-.268 2 2 0 0 1-.2-.012c-.068 0-.132-.012-.2-.012 0 .292.012.576.024.868v.036l-.3-.032-.3-.032a42 42 0 0 1-.068-2.652l-.012-.028c.36.028.72.056 1.08.068a.94.94 0 0 1 .912.94.59.59 0 0 1-.292.532.83.83 0 0 1 .292.532l.048.388c.016.132.036.26.048.388a6 6 0 0 1-.632-.052m2.96-.9a1 1 0 0 1-1.12 1.04 1.084 1.084 0 0 1-1.12-1.104l-.012.012V12.4c.212 0 .428.012.64.028v1.708a.465.465 0 0 0 .48.492.53.53 0 0 0 .372-.132.57.57 0 0 0 .108-.332v-1.72h.652Zm-.544-1.952a.767.767 0 0 1-.748-.8v-1.28h.652v1.12a.345.345 0 0 0 .332.36.36.36 0 0 0 .348-.348v-1.12h.668v2.04l.016.016h-.668v-.24a.72.72 0 0 1-.6.252m1.828 3.04a1.03 1.03 0 0 1-1.108-.972h.68a.39.39 0 0 0 .412.372.8.8 0 0 0 .188-.04.04.04 0 0 1 .028-.012.5.5 0 0 0 .092-.08.174.174 0 0 0-.028-.252 1 1 0 0 0-.228-.092h-.028l-.176-.048a1.11 1.11 0 0 1-.812-.488 1.1 1.1 0 0 1-.08-.4.9.9 0 0 1 .988-.812.96.96 0 0 1 1.056.892h-.68a.34.34 0 0 0-.32-.292.38.38 0 0 0-.28.068.18.18 0 0 0-.052.212.23.23 0 0 0 .12.12c.08.028.212.08.212.08l.028.012q.103.031.212.056c.436.112.864.224.844.808a.96.96 0 0 1-1.068.868m.6-3.04a.944.944 0 0 1-.948-1.04l-.028.012a.966.966 0 0 1 .936-1.052.75.75 0 0 1 .52.188V9.252h.652c.028.972.028 1.948.028 2.92h-.652V12a.67.67 0 0 1-.508.212m1.668 3.012a.96.96 0 0 1-1.068-.932c.216-.012.44-.012.668-.012a.375.375 0 0 0 .4.36.38.38 0 0 0 .28-.12.19.19 0 0 0 .028-.24.47.47 0 0 0-.228-.12q-.103-.029-.2-.052a1.08 1.08 0 0 1-.8-.468 1.1 1.1 0 0 1-.08-.4.924.924 0 0 1 .976-.84.88.88 0 0 1 1 .852 9 9 0 0 1-.64.028.316.316 0 0 0-.348-.28h-.052a.32.32 0 0 0-.212.12.2.2 0 0 0-.028.148.22.22 0 0 0 .132.132l.08.028v.036q.152.052.316.092c.42.108.836.212.8.776a.98.98 0 0 1-1.024.892m2.972-.32c-.548.076-1.108.128-1.66.18l-.072.008q.041-1.36.04-2.72h-.04c.552-.024 1.092-.064 1.644-.1h.1v.588q-.54.061-1.08.08v.452c.28-.016.572-.04.852-.068 0 .184 0 .384-.012.572-.136.012-.28.028-.424.04l-.424.04v.492c.376-.028.736-.068 1.108-.12-.004.184-.02.368-.032.552Zm1.512-.464c0 .056-.012.116-.016.172a11 11 0 0 1-1.336.252c.052-.875.068-1.749.079-2.624h.005q.139-.011.272-.028t.272-.028c0 .512-.024 1.036-.044 1.552q-.013.25-.02.5a8 8 0 0 0 .812-.16c0 .116-.012.24-.024.364M7.808 12.92c-.132 0-.28-.016-.412-.028v.628a2 2 0 0 1 .208.012c.072 0 .14.012.208.012h.012a.26.26 0 0 0 .2-.052.3.3 0 0 0 .092-.24.326.326 0 0 0-.308-.332m5.5-2.184a.37.37 0 0 0-.292 0 .46.46 0 0 0-.268.452.47.47 0 0 0 .252.44h-.012a.4.4 0 0 0 .348 0 .47.47 0 0 0 .252-.44.444.444 0 0 0-.28-.452M5.74 13.148h.16l.028-.052a.27.27 0 0 0 .04-.148.244.244 0 0 0-.252-.252 1 1 0 0 1-.2-.028l-.072-.012c0 .148 0 .292.012.44l.28.04Z"/></svg>