<?xml version="1.0" encoding="UTF-8"?>
<svg width="24px" fill="#44739e" height="24px" viewBox="0 0 24 24" version="1.1" xmlns="http://www.w3.org/2000/svg" xmlns:xlink="http://www.w3.org/1999/xlink">
            <path d="m 9.7,17.375 0.38,2.43 a 0.741,0.741 0 0 0 0.22,0.45 l 0.36,0.33 a 0.462,0.462 0 0 1 0.07,0.07 l 0.38,0.46 a 0.764,0.764 0 0 0 0.6,0.28 h 0.56 a 0.711,0.711 0 0 0 0.58,-0.28 l 0.38,-0.46 a 0.462,0.462 0 0 1 0.07,-0.07 l 0.36,-0.33 a 0.728,0.728 0 0 0 0.23,-0.45 l 0.39,-2.43 c -0.8,0.08 -1.67,0.11 -2.29,0.11 -0.62,0 -1.5,-0.03 -2.29,-0.11 z m -0.98,-0.15 -0.01,-0.01 -0.28,-0.33 c -0.18,0 -0.35,0.01 -0.51,0.01 -0.57,0 -1.38,-0.03 -2.11,-0.1 l 0.36,2.18 a 0.63,0.63 0 0 0 0.21,0.4 l 0.33,0.3 a 0.462,0.462 0 0 1 0.07,0.07 l 0.35,0.41 a 0.714,0.714 0 0 0 0.55,0.25 h 0.51 a 0.646,0.646 0 0 0 0.53,-0.25 l 0.35,-0.41 -0.35,-2.21 a 0.808,0.808 0 0 1 0,-0.31 z M 8.04,16.2 A 2.08,2.08 0 0 1 7.94,15.57 23.213,23.213 0 0 0 6.92,9.15 18.866,18.866 0 0 1 4.03,8.8 a 22.162,22.162 0 0 1 1.09,6.44 0.749,0.749 0 0 0 0.18,0.5 l 0.31,0.36 a 19.447,19.447 0 0 0 2.32,0.13 0.215,0.215 0 0 1 0.11,-0.03 z m 8.17,-7.755 a 20.144,20.144 0 0 1 -4.22,0.43 19.755,19.755 0 0 1 -4.23,-0.44 24.663,24.663 0 0 1 1.18,7.18 0.837,0.837 0 0 0 0.19,0.55 l 0.34,0.4 a 18.657,18.657 0 0 0 2.52,0.15 20.452,20.452 0 0 0 2.52,-0.15 l 0.34,-0.4 a 0.785,0.785 0 0 0 0.18,-0.54 25.031,25.031 0 0 1 1.18,-7.18 z M 6.77,8.3 A 0.962,0.962 0 0 1 6.54,8 L 6.51,7.93 C 6.15,7.21 5.17,5.22 5.98,3.68 A 4.834,4.834 0 0 0 3.5,4.55 C 2.43,5.53 3.4,7.35 3.73,7.99 A 14,14 0 0 0 6.78,8.44 C 6.78,8.4 6.77,8.345 6.77,8.3 Z M 20.5,4.545 a 4.834,4.834 0 0 0 -2.48,-0.87 c 0.81,1.54 -0.17,3.53 -0.53,4.25 L 17.46,8 a 0.962,0.962 0 0 1 -0.23,0.3 c 0,0.05 -0.01,0.1 -0.01,0.14 A 14,14 0 0 0 20.27,7.99 C 20.6,7.345 21.57,5.525 20.5,4.545 Z m -4.93,12.34 -0.28,0.33 -0.01,0.01 a 0.808,0.808 0 0 1 0,0.31 l -0.35,2.21 0.35,0.41 a 0.646,0.646 0 0 0 0.53,0.25 h 0.51 a 0.714,0.714 0 0 0 0.55,-0.25 l 0.35,-0.41 a 0.462,0.462 0 0 1 0.07,-0.07 l 0.33,-0.3 a 0.63,0.63 0 0 0 0.21,-0.4 l 0.36,-2.18 c -0.73,0.07 -1.54,0.1 -2.11,0.1 -0.16,0.005 -0.33,-0.01 -0.51,-0.01 z m 1.51,-7.73 a 23.213,23.213 0 0 0 -1.02,6.42 2.08,2.08 0 0 1 -0.1,0.63 0.215,0.215 0 0 1 0.11,0.02 19.447,19.447 0 0 0 2.32,-0.13 l 0.31,-0.36 a 0.749,0.749 0 0 0 0.18,-0.5 A 22.162,22.162 0 0 1 19.97,8.8 18.866,18.866 0 0 1 17.08,9.155 Z M 12,8.085 a 16.73,16.73 0 0 0 4.55,-0.54 c 0.36,-0.72 1.41,-2.74 0.25,-3.84 -1.25,-1.17 -4.58,-1.1 -4.79,-1.1 -0.21,0 -3.56,-0.07 -4.81,1.1 -1.16,1.09 -0.11,3.12 0.25,3.84 A 16.673,16.673 0 0 0 12,8.085 Z"/>

</svg>