<svg xmlns="http://www.w3.org/2000/svg" viewBox="0 0 24 24"><path fill="#44739e" d="m11.635 21.548-.094-.024.11-.007c.067-.005.085-.012.046-.021a63 63 0 0 1-1.294-.384 934 934 0 0 0-5.66-1.654 300 300 0 0 1-1.714-.499c-.513-.147-.725-.26-.841-.448l-.095-.154-.01-.842c-.007-.703-.002-.836.033-.807.023.02.133.08.243.137.185.093.23.102.545.112.368.011.351.015 1.123-.274.479-.18.853-.12 2.303.358.948.313 2.057.646 2.36.708.259.054.279.038.279-.22 0-.12-.013-.226-.03-.236-.016-.01-.293-.094-.615-.187a65 65 0 0 1-1.772-.559 37 37 0 0 0-1.387-.438c-.508-.12-.935-.085-1.45.116-.155.06-.37.127-.477.148a1.47 1.47 0 0 1-1.012-.186l-.148-.094-.011-.391-.02.218c-.022.232-.02.24-.046-.21-.004-.082.004-.149.019-.149s.027.02.027.043.134.112.3.195l.299.152h.347c.342 0 .353-.002.69-.144.706-.295.838-.293 1.773.034.315.11.4.127.577.12l.208-.01.015-.717c.011-.51.028-.738.057-.789.085-.149.603-.424 1.16-.614l.295-.102.007-1.945.007-1.944-.14-.085a.5.5 0 0 1-.17-.166c-.018-.046-.031-.427-.031-.87v-.79l.089-.09c.049-.049.126-.114.171-.145l.083-.056v-1.06c0-.66.012-1.084.032-1.12.017-.033.09-.077.163-.098a.4.4 0 0 0 .155-.072c.013-.018.024-.159.024-.313.002-.41.017-.43.36-.468l.28-.031-.003-.11c-.007-.247-.261-.714-.545-1-.403-.406-.91-.587-1.537-.546-.328.021-.706.126-.867.241l-.089.063.003 1.939c.001 1.066.012 2.01.023 2.095.017.127.033.157.087.165a.36.36 0 0 1 .155.103c.085.088.09.11.101.42l.012.327.153.129c.298.252.518.61.622 1.015.055.214.06.352.06 1.458 0 1.22 0 1.222-.07 1.328-.347.516-1.703.641-2.368.218-.264-.167-.258-.135-.268-1.496-.01-1.346.005-1.496.195-1.888q.187-.385.515-.647c.17-.135.169-.132.158-.436-.01-.282.038-.416.184-.508.11-.07.118-.086.133-.256.022-.256.002-3.557-.022-3.596-.074-.119-.299.098-.468.452-.217.454-.213.403-.226 2.37l-.012 1.775-.074.094c-.041.052-.123.15-.182.219l-.107.124.008-1.886c.007-1.634.015-1.92.061-2.132.134-.623.426-1.102.892-1.461.99-.764 2.34-.724 3.175.094q.436.428.62 1.005c.045.145.094.28.108.3.013.018.128.042.254.053.244.02.393.063.432.124.013.02.024.17.024.333s.012.312.024.331.074.044.136.055.139.05.171.086c.056.061.059.122.052.994-.005.774.001.936.038.967.032.026.101.029.24.01l.197-.026.017-.791.095-.08a.5.5 0 0 1 .217-.1c.067-.01.135-.035.15-.054.016-.02.035-.33.043-.69.013-.598.022-.68.099-.934.215-.715.673-1.278 1.282-1.575.416-.203.676-.252 1.438-.273.65-.017.66-.018.692-.09.021-.045.07-.078.136-.09.137-.025 2.11.002 2.198.03.122.04.17.16.202.51.042.451.018 1.892-.033 2.022a.22.22 0 0 1-.135.133c-.061.021-.494.033-1.196.033-1.181 0-1.164.002-1.215-.16-.02-.063-.036-.065-.353-.052-.374.016-.502.063-.596.218-.071.117-.11.475-.08.735l.022.186.186.052a.7.7 0 0 1 .264.128l.076.076-.008.633-.009.632-.14.07c-.745.368-3.084.421-5.176.117a9 9 0 0 0-.643-.078c-.092 0-.106.01-.106.079 0 .047.022.086.055.097.03.01.098.037.152.06.267.119 1.156.261 2.023.324 1.061.078 2.79.024 3.418-.106.76-.158.953-.316.924-.758l-.015-.23.206.02c.283.027.636.125.78.215.21.133.222.19.224 1.09.001.88 0 .888-.197.99l-.117.06v1.972c0 1.084.01 1.986.024 2.004.012.018.142.08.287.136.429.167.757.33.86.427.118.11.138.216.131.698-.002.198-.002.454.002.571l.005.212.115.048c.162.068.579.103.817.07.111-.016.343-.079.516-.14.511-.18.707-.227.947-.229.276-.002.41.03.894.209.604.224.914.217 1.408-.03.18-.091.261-.15.261-.187 0-.03.011-.056.025-.056s.024.134.023.296c0 .163-.012.297-.024.297s-.024-.017-.024-.036q-.002-.034-.054.012c-.094.083-.375.21-.578.262-.28.072-.568.042-.964-.098-.574-.204-.633-.216-1.07-.214-.37 0-.444.012-.842.12-.727.197-.934.234-1.206.213l-.244-.02v.276l-.46.163a15.6 15.6 0 0 1-3.375.793c-.525.058-1.57.049-2.16-.02-.271-.031-.502-.047-.515-.034-.012.012-.022.123-.022.245v.224l.171.021c1.546.192 2.768.143 4.14-.165.663-.15 1.208-.31 2.408-.714 1.364-.457 1.639-.532 2.043-.552.372-.018.59.026 1.091.218.335.129.352.132.717.132h.375l.272-.131c.17-.081.273-.15.273-.18 0-.026.014-.048.031-.048.039 0 .039 1.598 0 1.715-.024.077-.025.077-.03-.015l-.006-.094-.03.101a.71.71 0 0 1-.444.488c-.188.078-1.21.38-3.793 1.115a448 448 0 0 0-3.445.995c-.17.055-1.932.557-2.059.587l-.124.029.218.013-.093.024c-.052.013-.17.024-.265.024s-.214-.01-.265-.024Zm-.99-5.45.01-.537h.713l.018 1.076h.748l.017-1.076h.194c.107 0 .268-.01.358-.02l.164-.02v.511c0 .281.013.53.028.554.02.033.1.04.35.03.178-.007.34-.023.362-.036.029-.018.04-.163.04-.549v-.523l.238-.02a6 6 0 0 1 .323-.02h.084l.022.506c.012.279.032.517.045.53.03.032.538-.034.588-.076.03-.024.04-.165.04-.538v-.505l.276-.037c.152-.02.292-.037.311-.037.024 0 .038.153.044.476l.008.476.16.009c.254.014.261-.002.261-.588v-.496l.152-.077c.218-.111.347-.229.347-.317 0-.063-.015-.075-.094-.075a.6.6 0 0 0-.203.045c-.15.063-.744.193-1.137.25-1.236.177-3.047.244-4.625.172-1.646-.076-2.64-.195-3.378-.406-.294-.084-.385-.082-.385.01 0 .04.038.11.086.154.09.086.439.254.598.289l.095.02v.442c.001.551.014.583.264.638a.7.7 0 0 0 .225.025c.032-.012.041-.13.041-.52v-.504l.117.019c.065.01.198.028.297.04l.179.02.004.113c.003.062.008.285.011.496.005.285.019.396.052.43q.045.043.293.052l.248.008.017-1.053.116.02c.064.01.211.019.327.019h.21v.528c0 .389.01.535.04.553.054.035.32.066.522.061l.171-.004Zm11.286-.217c-.008-.03-.015-.005-.015.054 0 .06.007.085.015.055a.3.3 0 0 0 0-.11m-8.44-.989c.783-.076 1.541-.222 1.772-.342.14-.074.228-.19.217-.288-.01-.085-.017-.088-.166-.087a2.6 2.6 0 0 0-.468.085c-.728.192-1.406.267-2.634.292-1.668.035-2.954-.096-3.903-.396a3 3 0 0 0-.34-.092c-.072 0-.123.065-.123.158 0 .338 1.141.627 2.822.715.673.035 2.257.01 2.823-.045m-3.439-2.664c.006-1.268-.002-1.927-.023-1.953-.018-.02-.188-.056-.378-.078-.293-.034-.35-.033-.373.004-.015.024-.028.896-.028 1.939v1.895l.085.033c.149.057.33.085.522.08l.187-.005Zm-4.685-.61c.033-.04.033-1.88 0-1.913a1 1 0 0 0-.237.017c-.367.057-.348 0-.335 1.032.014 1.034-.006.978.33.932.116-.016.225-.047.242-.068m4.656-1.676c.042-.043.053-1.105.011-1.17-.027-.044-.659-.121-.737-.091-.04.015-.048.105-.048.594 0 .427.01.582.04.6.042.028.45.096.601.101.052.002.112-.013.133-.034m-4.911-.434a1 1 0 0 0 .262-.065q.037-.028.027-.27a19 19 0 0 1-.015-.464c-.003-.204-.01-.226-.065-.226-.084 0-.328.314-.408.526-.096.257-.12.534-.044.534.01 0 .12-.016.243-.035m6.843-1.998c.01-.465.007-.47-.313-.455l-.194.009-.009.332c-.011.49.012.523.367.514l.14-.004Zm-2.951-.04c.026-.124.027-1.45 0-1.669l-.02-.171H8.61l-.008.935c-.005.514-.001.953.007.976.011.028.069.038.195.031.172-.009.18-.013.2-.103m4.38-.772c.097-.031.124-.057.131-.124.009-.074-.003-.086-.109-.109a10 10 0 0 0-.883-.025c-.855 0-1.029.026-1.029.153 0 .063.023.077.18.108.283.056.392.062 1.008.049.354-.007.627-.027.702-.052m-1.137-1.224c.027-.512.145-.834.425-1.165.33-.389.788-.562 1.597-.605l.14-.008.01-.182c.014-.26-.001-.27-.395-.27-.717.001-1.222.185-1.625.59-.41.412-.586.852-.615 1.536a3 3 0 0 0 .002.446c.015.04.06.048.23.04l.211-.008Zm-2.879-.168c.026-.016.038-.071.031-.147l-.01-.122-.314-.009c-.397-.01-.48.017-.48.16 0 .057.009.113.02.125.03.03.705.024.753-.007m5.724-.947c.024-.091.024-1.016 0-1.107-.013-.05-.043-.07-.098-.07-.145 0-.161.064-.162.657 0 .302.008.558.02.57.01.01.065.02.12.02.078 0 .105-.016.12-.07m.627-.538v-.592l-.134-.01c-.23-.017-.234-.005-.219.602.008.292.025.55.038.571.016.026.077.037.17.03l.145-.009ZM2.013 17.751c-.004-.908 0-1.138.017-1.155.01-.009.017.364.017.83s-.007.847-.016.847c-.008 0-.016-.235-.018-.522m15.605-2.47a.2.2 0 0 1-.093-.084c-.015-.032-.034-.282-.043-.556l-.016-.5-.234-.035c-.452-.07-.615-.191-.515-.385a.4.4 0 0 1 .078-.11c.018-.01.032-.106.033-.212.001-.272.073-.64.156-.803.038-.076.127-.19.196-.253l.126-.116.002-.321c.001-.177.013-.339.027-.36s.09-.057.172-.08l.146-.043.01-.169c.014-.228-.046-.613-.14-.916-.213-.677-.605-1.115-1.064-1.188l-.131-.021v-.261c0-.3-.01-.292.283-.196.676.222 1.085.663 1.382 1.49.108.3.14.44.202.892l.05.374.157.026a.6.6 0 0 1 .214.068c.07.053.11.237.112.52 0 .202.003.208.108.27.134.08.307.313.39.528.034.09.078.287.096.437.03.241.045.282.128.358.077.07.092.106.084.201-.012.144-.114.21-.392.255-.108.017-.21.04-.226.05-.019.012-.031.217-.031.504v.484l-.095.094c-.075.075-.11.09-.179.074q-.192-.045-.196-.294c-.007-.51-.02-.784-.036-.801-.026-.026-.393-.03-.418-.004-.01.01-.018.184-.018.387.002.467-.034.644-.138.691-.088.04-.097.04-.187.005m.025-1.911c.034-.027.055-.115.068-.274.01-.13.04-.296.066-.37s.048-.164.048-.198c0-.056-.016-.061-.148-.046-.172.02-.296.135-.35.325-.036.13-.045.548-.012.581.036.036.277.023.328-.018m.421-1.325c.012-.048.023-.156.024-.242l.002-.156-.359-.018v.502h.155c.144 0 .157-.007.178-.086m.696-6.267c-.13-.024-.271-.155-.355-.328s-.35-1.138-.322-1.166c.023-.022.12.03.38.202.7.465.95 1.09.508 1.267a1 1 0 0 1-.126.043Zm1.143-.614c-.15-.056-.21-.11-.559-.526-.333-.396-.722-.75-1.066-.97l-.247-.16.138-.01c.332-.025 1.109.157 1.517.354.35.17.624.392.719.582.215.433-.092.88-.502.73m-.535-1.909a5.4 5.4 0 0 0-.99-.188c-.14-.011-.24-.033-.233-.051.019-.057.498-.297.8-.4a1.5 1.5 0 0 1 .61-.104c.285-.001.326.006.47.086.172.096.266.221.27.363.004.137-.068.28-.166.33-.13.068-.44.053-.761-.036M6.606 2.447c.023-.023.494-.023.516 0 .01.01-.106.017-.258.017s-.267-.008-.258-.017m12.723-.001c.023-.023.43-.022.454.001.009.01-.094.017-.228.017s-.236-.008-.226-.018"/></svg>