<?xml version="1.0" encoding="UTF-8"?>
<svg width="24px" fill="#44739e" height="24px" viewBox="0 0 24 24" version="1.1" xmlns="http://www.w3.org/2000/svg" xmlns:xlink="http://www.w3.org/1999/xlink">
            <path d="M 12.255,14.877 10.024,8.895 H 8.18 l 3.144,8.466 h 1.841 l 3.167,-8.466 h -1.854 z m 8.671,0.683 a 1.5,1.5 0 0 1 -0.89,0.34 1.216,1.216 0 0 1 -1.142,-1.242 v -4.095 h 2 L 21.512,8.886 H 18.9 V 6.46 h -1.721 v 8.285 a 2.85,2.85 0 0 0 2.839,2.8 A 2.753,2.753 0 0 0 22,16.78 Z M 4.174,11.132 c 0,-0.458 0.349,-0.8 0.958,-0.8 a 1.792,1.792 0 0 1 1.223,0.614 L 7.64,10.014 A 3.067,3.067 0 0 0 5.1,8.732 2.427,2.427 0 0 0 2.46,11.138 c 0,2.788 3.835,2.415 3.835,3.849 0,0.579 -0.582,0.94 -1.244,0.94 A 2.446,2.446 0 0 1 3.345,14.943 L 2,15.922 a 3.92,3.92 0 0 0 3.064,1.616 2.655,2.655 0 0 0 2.944,-2.583 c 0,-2.686 -3.834,-2.407 -3.834,-3.823 z"/>

</svg>