<?xml version="1.0" encoding="UTF-8"?>
<svg width="24px" fill="#44739e" height="24px" viewBox="0 0 24 24" version="1.1" xmlns="http://www.w3.org/2000/svg" xmlns:xlink="http://www.w3.org/1999/xlink">
            <path d="M 17.5,2 H 6.5 A 4.5,4.5 0 0 0 2,6.5 v 11 A 4.5,4.5 0 0 0 6.5,22 h 11 A 4.5,4.5 0 0 0 22,17.5 V 6.5 A 4.5,4.5 0 0 0 17.5,2 Z M 8.1,5.281 a 6.894,6.894 0 0 1 7.789,0 0.391,0.391 0 1 1 -0.442,0.645 6.118,6.118 0 0 0 -6.9,0 v 0 H 8.541 v 0 0 L 8.507,5.95 8.496,5.957 8.484,5.966 v 0 L 8.496,5.957 8.507,5.95 8.541,5.926 v 0 0 h 0.006 v 0 A 0.39237546,0.39237546 0 0 1 8.1,5.281 Z m 5.8,2.7 A 0.39108183,0.39108183 0 0 1 13.418,8.597 2.285,2.285 0 0 0 10.583,8.615 0.39504462,0.39504462 0 1 1 10.087,8 3.071,3.071 0 0 1 12.007,7.324 3.032,3.032 0 0 1 13.9,7.978 Z M 11.984,6.45 A 3.916,3.916 0 0 0 9.617,7.238 0.391,0.391 0 1 1 9.148,6.613 4.723,4.723 0 0 1 14.839,6.628 0.39110676,0.39110676 0 1 1 14.366,7.251 v 0 A 3.906,3.906 0 0 0 11.984,6.45 Z M 5.6,14.275 c -1.035,0 -2.174,-0.319 -2.269,-1.535 h 1.713 a 0.5,0.5 0 0 0 0.189,0.414 0.729,0.729 0 0 0 0.441,0.138 c 0.276,0 0.569,-0.086 0.569,-0.406 0,-0.725 -2.77,-0.146 -2.77,-1.9 0,-1.156 1.2,-1.493 2.14,-1.493 0.984,0 2.14,0.224 2.244,1.424 H 6.226 A 0.471,0.471 0 0 0 6.053,10.589 0.564,0.564 0 0 0 5.691,10.477 c -0.311,0 -0.509,0.1 -0.509,0.319 0,0.63 2.856,0.207 2.856,1.9 0,0.941 -0.777,1.579 -2.438,1.579 z M 9.45,11.782 7.961,9.625 h 1.993 l 0.57,1.13 0.6,-1.13 H 13.1 l -1.544,2.148 1.562,2.373 h -2 L 10.479,12.852 9.823,14.146 H 7.831 Z m 4.45,4.094 a 3.037,3.037 0 0 1 -1.888,0.649 3.076,3.076 0 0 1 -1.92,-0.675 0.392,0.392 0 1 1 0.491,-0.61 2.283,2.283 0 0 0 2.835,0.019 0.39147573,0.39147573 0 0 1 0.482,0.617 z m 0.471,0.726 a 0.39110676,0.39110676 0 1 1 0.473,0.623 4.727,4.727 0 0 1 -5.691,0.015 0.391,0.391 0 0 1 -0.078,-0.548 v 0 a 0.39,0.39 0 0 1 0.547,-0.077 3.946,3.946 0 0 0 4.749,-0.013 z m 1.521,1.974 a 6.9,6.9 0 0 1 -7.789,0 0.392,0.392 0 0 1 0.444,-0.645 6.116,6.116 0 0 0 6.9,0.006 v 0 a 0.391,0.391 0 1 1 0.442,0.644 z m 4.764,-4.43 h -1.8 v -2.3 c 0,-0.664 -0.043,-0.932 -0.518,-0.93 -0.5,0 -0.5,0.456 -0.5,1 v 2.235 h -1.8 v -2.3 c 0,-0.664 -0.039,-0.919 -0.518,-0.931 -0.479,-0.012 -0.505,0.457 -0.505,1 v 2.235 h -1.79 v -4.53 h 1.648 V 10.3 a 1.559,1.559 0 0 1 1.28,-0.8 1.427,1.427 0 0 1 1.417,0.827 1.549,1.549 0 0 1 1.383,-0.827 c 1.138,0 1.7,0.741 1.7,1.975 zM 17.5,2 H 6.5 A 4.5,4.5 0 0 0 2,6.5 v 11 A 4.5,4.5 0 0 0 6.5,22 h 11 A 4.5,4.5 0 0 0 22,17.5 V 6.5 A 4.5,4.5 0 0 0 17.5,2 Z M 8.1,5.281 a 6.894,6.894 0 0 1 7.789,0 0.391,0.391 0 1 1 -0.442,0.645 6.118,6.118 0 0 0 -6.9,0 v 0 H 8.541 v 0 0 L 8.507,5.95 8.496,5.957 8.484,5.966 v 0 L 8.496,5.957 8.507,5.95 8.541,5.926 v 0 0 h 0.006 v 0 A 0.39237546,0.39237546 0 0 1 8.1,5.281 Z m 5.8,2.7 A 0.39108183,0.39108183 0 0 1 13.418,8.597 2.285,2.285 0 0 0 10.583,8.615 0.39504462,0.39504462 0 1 1 10.087,8 3.071,3.071 0 0 1 12.007,7.324 3.032,3.032 0 0 1 13.9,7.978 Z M 11.984,6.45 A 3.916,3.916 0 0 0 9.617,7.238 0.391,0.391 0 1 1 9.148,6.613 4.723,4.723 0 0 1 14.839,6.628 0.39110676,0.39110676 0 1 1 14.366,7.251 v 0 A 3.906,3.906 0 0 0 11.984,6.45 Z M 5.6,14.275 c -1.035,0 -2.174,-0.319 -2.269,-1.535 h 1.713 a 0.5,0.5 0 0 0 0.189,0.414 0.729,0.729 0 0 0 0.441,0.138 c 0.276,0 0.569,-0.086 0.569,-0.406 0,-0.725 -2.77,-0.146 -2.77,-1.9 0,-1.156 1.2,-1.493 2.14,-1.493 0.984,0 2.14,0.224 2.244,1.424 H 6.226 A 0.471,0.471 0 0 0 6.053,10.589 0.564,0.564 0 0 0 5.691,10.477 c -0.311,0 -0.509,0.1 -0.509,0.319 0,0.63 2.856,0.207 2.856,1.9 0,0.941 -0.777,1.579 -2.438,1.579 z M 9.45,11.782 7.961,9.625 h 1.993 l 0.57,1.13 0.6,-1.13 H 13.1 l -1.544,2.148 1.562,2.373 h -2 L 10.479,12.852 9.823,14.146 H 7.831 Z m 4.45,4.094 a 3.037,3.037 0 0 1 -1.888,0.649 3.076,3.076 0 0 1 -1.92,-0.675 0.392,0.392 0 1 1 0.491,-0.61 2.283,2.283 0 0 0 2.835,0.019 0.39147573,0.39147573 0 0 1 0.482,0.617 z m 0.471,0.726 a 0.39110676,0.39110676 0 1 1 0.473,0.623 4.727,4.727 0 0 1 -5.691,0.015 0.391,0.391 0 0 1 -0.078,-0.548 v 0 a 0.39,0.39 0 0 1 0.547,-0.077 3.946,3.946 0 0 0 4.749,-0.013 z m 1.521,1.974 a 6.9,6.9 0 0 1 -7.789,0 0.392,0.392 0 0 1 0.444,-0.645 6.116,6.116 0 0 0 6.9,0.006 v 0 a 0.391,0.391 0 1 1 0.442,0.644 z m 4.764,-4.43 h -1.8 v -2.3 c 0,-0.664 -0.043,-0.932 -0.518,-0.93 -0.5,0 -0.5,0.456 -0.5,1 v 2.235 h -1.8 v -2.3 c 0,-0.664 -0.039,-0.919 -0.518,-0.931 -0.479,-0.012 -0.505,0.457 -0.505,1 v 2.235 h -1.79 v -4.53 h 1.648 V 10.3 a 1.559,1.559 0 0 1 1.28,-0.8 1.427,1.427 0 0 1 1.417,0.827 1.549,1.549 0 0 1 1.383,-0.827 c 1.138,0 1.7,0.741 1.7,1.975 zM 17.5,2 H 6.5 A 4.5,4.5 0 0 0 2,6.5 v 11 A 4.5,4.5 0 0 0 6.5,22 h 11 A 4.5,4.5 0 0 0 22,17.5 V 6.5 A 4.5,4.5 0 0 0 17.5,2 Z M 8.1,5.281 a 6.894,6.894 0 0 1 7.789,0 0.391,0.391 0 1 1 -0.442,0.645 6.118,6.118 0 0 0 -6.9,0 v 0 H 8.541 v 0 0 L 8.507,5.95 8.496,5.957 8.484,5.966 v 0 L 8.496,5.957 8.507,5.95 8.541,5.926 v 0 0 h 0.006 v 0 A 0.39237546,0.39237546 0 0 1 8.1,5.281 Z m 5.8,2.7 A 0.39108183,0.39108183 0 0 1 13.418,8.597 2.285,2.285 0 0 0 10.583,8.615 0.39504462,0.39504462 0 1 1 10.087,8 3.071,3.071 0 0 1 12.007,7.324 3.032,3.032 0 0 1 13.9,7.978 Z M 11.984,6.45 A 3.916,3.916 0 0 0 9.617,7.238 0.391,0.391 0 1 1 9.148,6.613 4.723,4.723 0 0 1 14.839,6.628 0.39110676,0.39110676 0 1 1 14.366,7.251 v 0 A 3.906,3.906 0 0 0 11.984,6.45 Z M 5.6,14.275 c -1.035,0 -2.174,-0.319 -2.269,-1.535 h 1.713 a 0.5,0.5 0 0 0 0.189,0.414 0.729,0.729 0 0 0 0.441,0.138 c 0.276,0 0.569,-0.086 0.569,-0.406 0,-0.725 -2.77,-0.146 -2.77,-1.9 0,-1.156 1.2,-1.493 2.14,-1.493 0.984,0 2.14,0.224 2.244,1.424 H 6.226 A 0.471,0.471 0 0 0 6.053,10.589 0.564,0.564 0 0 0 5.691,10.477 c -0.311,0 -0.509,0.1 -0.509,0.319 0,0.63 2.856,0.207 2.856,1.9 0,0.941 -0.777,1.579 -2.438,1.579 z M 9.45,11.782 7.961,9.625 h 1.993 l 0.57,1.13 0.6,-1.13 H 13.1 l -1.544,2.148 1.562,2.373 h -2 L 10.479,12.852 9.823,14.146 H 7.831 Z m 4.45,4.094 a 3.037,3.037 0 0 1 -1.888,0.649 3.076,3.076 0 0 1 -1.92,-0.675 0.392,0.392 0 1 1 0.491,-0.61 2.283,2.283 0 0 0 2.835,0.019 0.39147573,0.39147573 0 0 1 0.482,0.617 z m 0.471,0.726 a 0.39110676,0.39110676 0 1 1 0.473,0.623 4.727,4.727 0 0 1 -5.691,0.015 0.391,0.391 0 0 1 -0.078,-0.548 v 0 a 0.39,0.39 0 0 1 0.547,-0.077 3.946,3.946 0 0 0 4.749,-0.013 z m 1.521,1.974 a 6.9,6.9 0 0 1 -7.789,0 0.392,0.392 0 0 1 0.444,-0.645 6.116,6.116 0 0 0 6.9,0.006 v 0 a 0.391,0.391 0 1 1 0.442,0.644 z m 4.764,-4.43 h -1.8 v -2.3 c 0,-0.664 -0.043,-0.932 -0.518,-0.93 -0.5,0 -0.5,0.456 -0.5,1 v 2.235 h -1.8 v -2.3 c 0,-0.664 -0.039,-0.919 -0.518,-0.931 -0.479,-0.012 -0.505,0.457 -0.505,1 v 2.235 h -1.79 v -4.53 h 1.648 V 10.3 a 1.559,1.559 0 0 1 1.28,-0.8 1.427,1.427 0 0 1 1.417,0.827 1.549,1.549 0 0 1 1.383,-0.827 c 1.138,0 1.7,0.741 1.7,1.975 z"/>

</svg>