<?xml version="1.0" encoding="UTF-8"?>
<svg width="24px" fill="#44739e" height="24px" viewBox="0 0 24 24" version="1.1" xmlns="http://www.w3.org/2000/svg" xmlns:xlink="http://www.w3.org/1999/xlink">
            <path d="M16.516 6.162A7.06 7.06 0 0 0 15.5 3.156c-1-1.208-3.1-1.117-3.122-1.116h-.026a3.814 3.814 0 0 0-.37-.013 11.482 11.482 0 0 0-1.515.092c-.054.011-.126.021-.218.034-1.069.066-1.971.404-2.661 1.224-.45.92-.798 2.086-.84 3.108a7.072 7.072 0 0 0 .1 2.78 2.6 2.6 0 0 0 2.61 1.047h.005l4.638-.084c1.438-.027 1.99-.33 2.457-1.35a6.775 6.775 0 0 0-.042-2.716zm-3.168 12.483a.844.844 0 0 0 .232.033h.043l.111.042.024-.06a.886.886 0 0 0 .274-.113 1.04 1.04 0 0 0 .387-1.308.95.95 0 0 0-.069-.12l.021-.055.036-.094-.186-.07-.5-.195-.018.045a.959.959 0 0 0-.925.713c-.073.24-.055.5.051.727.1.22.29.385.52.455zm.511-1.622.235.09-.5 1.3-.235-.09zm.382.385a.813.813 0 0 1-.327.947l-.046.025zm-1.245.123a.742.742 0 0 1 .616-.545l-.483 1.255a.651.651 0 0 1-.1-.147.789.789 0 0 1-.033-.57zm-4.65 1.005c.025.358.166.697.4.968.237.29.524.533.847.72a5 5 0 0 0 2.881.283 4.676 4.676 0 0 0 1.232-.41c.34-.185.66-.401.96-.645.198-.23.31-.522.317-.826.25-1.961.337-3.94.26-5.916a2.228 2.228 0 0 0-.316-1.03 1.06 1.06 0 0 0-.2-.23l-.427-.376a1.339 1.339 0 0 0-.668-.317l-4.038.074c-.22.05-.424.16-.588.316l-.443.421a1.074 1.074 0 0 0-.119.135c-.29.356-.427.812-.382 1.27v.073c.007.254.001 1.713.283 5.49zm4.3-1.106a1.051 1.051 0 0 1 1.268-.769c.125.037.241.1.34.184l.2.076-.039.1c.035.05.066.101.091.155a1.177 1.177 0 0 1-.438 1.48.98.98 0 0 1-.512.148.934.934 0 0 1-.852-.553 1.143 1.143 0 0 1-.058-.82zm2.411 1.935a.91.91 0 0 1-.219.285 6.746 6.746 0 0 1-1 .673c-.41.207-.848.354-1.3.436-.343.067-.692.1-1.042.1a5.17 5.17 0 0 1-2-.4 3.249 3.249 0 0 1-.944-.788 1.88 1.88 0 0 1-.2-.267 1.2 1.2 0 0 0-.717.943c0 .922 1.837 1.67 4.1 1.67s4.1-.748 4.1-1.67c.014-.365-.28-.706-.778-.982z"/>

</svg>