<svg xmlns="http://www.w3.org/2000/svg" viewBox="0 0 24 24"><path fill="#44739e" d="M16.853 6.137a7.1 7.1 0 0 0-1.016-3.007c-1.001-1.209-3.102-1.118-3.124-1.117h-.026a4 4 0 0 0-.37-.013 11.5 11.5 0 0 0-1.516.092q-.08.015-.218.034c-1.07.066-1.972.405-2.662 1.225-.451.92-.799 2.087-.841 3.109a7.1 7.1 0 0 0 .1 2.782 2.6 2.6 0 0 0 2.612 1.047h.005l4.64-.084c1.439-.027 1.991-.33 2.458-1.35a6.8 6.8 0 0 0-.042-2.718m-3.17 12.489a.8.8 0 0 0 .233.033h.043l.111.042.024-.06a.9.9 0 0 0 .274-.113 1.04 1.04 0 0 0 .387-1.308 1 1 0 0 0-.069-.12l.021-.055.036-.094-.186-.07-.5-.196-.018.045a.96.96 0 0 0-.926.714c-.073.24-.055.5.051.727.1.22.29.385.52.455Zm.512-1.622.235.09-.5 1.3-.236-.09Zm.382.385a.81.81 0 0 1-.327.947l-.046.025Zm-1.246.123a.74.74 0 0 1 .617-.545l-.484 1.255a.7.7 0 0 1-.1-.147.8.8 0 0 1-.033-.57Zm-4.652 1.005c.025.358.166.698.4.969.237.29.524.533.848.72a5 5 0 0 0 2.882.283 4.7 4.7 0 0 0 1.233-.41q.51-.278.96-.645c.198-.23.31-.523.317-.827.25-1.962.337-3.942.26-5.919a2.2 2.2 0 0 0-.316-1.03 1 1 0 0 0-.2-.23l-.427-.376a1.34 1.34 0 0 0-.668-.317l-4.04.074c-.22.05-.425.16-.589.316l-.443.421a1 1 0 0 0-.119.135 1.74 1.74 0 0 0-.382 1.271v.073c.007.254.001 1.713.283 5.492Zm4.302-1.106a1.05 1.05 0 0 1 1.269-.77q.19.057.34.184l.2.077-.039.1q.053.075.091.155a1.18 1.18 0 0 1-.438 1.48 1 1 0 0 1-.512.148.93.93 0 0 1-.853-.553 1.14 1.14 0 0 1-.058-.82Zm2.412 1.936a.9.9 0 0 1-.219.285 7 7 0 0 1-1 .673 4.8 4.8 0 0 1-1.301.436q-.516.1-1.042.1a5.2 5.2 0 0 1-2.001-.4 3.3 3.3 0 0 1-.945-.788 2 2 0 0 1-.2-.267 1.2 1.2 0 0 0-.717.943c0 .923 1.838 1.671 4.102 1.671s4.102-.748 4.102-1.671c.014-.365-.28-.706-.779-.982"/></svg>