<?xml version="1.0" encoding="UTF-8"?>
<svg width="33px" height="32px" viewBox="0 0 33 32" version="1.1" xmlns="http://www.w3.org/2000/svg" xmlns:xlink="http://www.w3.org/1999/xlink">
    <!-- Generator: Sketch 51.3 (57544) - http://www.bohemiancoding.com/sketch -->
    <style>path{fill:#000}@media (prefers-color-scheme:dark){path{fill:#fff}}</style>
            <path d="M17,6.9c0.5,0,0.6-0.3,0.6-0.5c0-0.7-0.2-1.3-0.6-1.6c-0.5-0.4-1.2-0.5-1.8-0.3c-0.6,0.2-1.1,0.7-1.2,1.4 c-0.1,0-0.1,0-0.2,0.1c0-0.1,0-0.1,0-0.2l0-0.7c0-0.2-0.1-0.4-0.2-0.5c-0.1-0.1-0.2-0.1-0.4-0.2c-0.3,0-0.6,0.2-0.6,0.6l0,0.1 c0,0.2,0,0.5,0,0.7l0,0.1c0,0.1,0,0.2,0.1,0.4c-0.1,0.1-0.1,0.2-0.1,0.3c0,0.2-0.1,0.4-0.3,0.5c-0.2,0.1-0.3,0.1-0.5,0.1 c-0.2-0.1-0.3-0.2-0.3-0.5c0-0.1,0-0.1,0-0.2c0-0.1,0-0.1-0.1-0.2c0.1-0.1,0.1-0.2,0.1-0.3l0-0.4l0-0.3l0-0.3 c0-0.5-0.3-0.6-0.6-0.6c-0.2,0-0.4,0.1-0.4,0.2c-0.1,0.1-0.2,0.3-0.2,0.5l0,0.2c0,0.2,0,0.5,0,0.7l0,0.1c0,0.1,0,0.2,0.1,0.3 c0,0.1-0.1,0.1-0.1,0.2c0,0.4,0,0.8,0.3,1.2c0.2,0.3,0.6,0.5,1.1,0.6c0.1,0,0.1,0,0.2,0c0.3,0,0.6-0.1,0.9-0.2c0,0,0.1,0.1,0.1,0.1 c0.2,0.1,0.4,0.1,0.6,0c0.2-0.1,0.3-0.3,0.3-0.5c0-0.3,0-0.6,0-0.9c0.1,0,0.2,0.1,0.2,0.1C14,7.6,14.4,8,15,8.2 c0.3,0.1,0.6,0.2,0.9,0.2c0.3,0,0.7-0.1,1-0.2c0,0,0.1,0,0.1-0.1c0.2-0.1,0.3-0.4,0.3-0.7c-0.1-0.2-0.3-0.4-0.6-0.3 c-0.1,0-0.2,0-0.2,0.1c-0.2,0.1-0.4,0.1-0.7,0.1c-0.3,0-0.5-0.1-0.6-0.4l1.3,0L17,6.9z M15.7,5.8l-0.3,0c-0.1,0-0.2,0-0.3,0 c0,0,0,0-0.1,0c0.1-0.1,0.1-0.2,0.2-0.3c0.2-0.1,0.4-0.2,0.6-0.1c0.1,0,0.3,0.1,0.4,0.4L15.7,5.8z M14,6.5L14,6.5 C14,6.6,14,6.6,14,6.5L14,6.5z M14,6.9l0-0.3c0,0,0,0,0,0c0,0,0,0,0,0L14,6.9C14,6.9,14,6.9,14,6.9z M10,6.7c0-0.1,0-0.3-0.1-0.4C9.9,6.3,10,6.2,10,6.1c0-0.2,0-0.3,0-0.5C9.8,4.8,9.3,4.5,9,4.4C8.5,4.3,8.1,4.3,7.7,4.5 l0-0.7c0-0.1,0-0.2,0-0.3C7.6,3.3,7.3,3.1,7,3.1c-0.3,0-0.5,0.2-0.5,0.5c0,0.1,0,0.2,0,0.3l0,2c0,0.2,0,0.3,0.1,0.5 C6.5,6.4,6.5,6.5,6.5,6.7l0,1.1c0,0.4,0.3,0.6,0.6,0.6c0.4,0,0.6-0.3,0.6-0.6l0-0.9c0-0.2,0-0.4-0.1-0.5c0.1-0.1,0.1-0.2,0.1-0.3 c0-0.2,0.1-0.3,0.1-0.4C8,5.5,8.2,5.4,8.5,5.5c0.2,0.1,0.3,0.3,0.3,0.4c0,0.2,0.1,0.3,0.1,0.4C8.8,6.4,8.8,6.5,8.8,6.7 c0,0.1,0,0.2,0,0.3l0,0.3l0,0.4C8.8,8,8.9,8.1,9,8.2C9,8.3,9.2,8.4,9.4,8.4c0,0,0,0,0,0c0.3,0,0.6-0.2,0.6-0.6l0-0.1 c0-0.2,0-0.5,0-0.7L10,6.7z M6,15.7c0,0,0.4,0,1,0.5C7.7,16.7,7.9,17,7.9,17s3.2,0.1,5.7,0.1c1.3,0,2.3,0,2.8-0.1c0.7-1,1.7-1.3,1.7-1.3v-2.7H6V15.7z M7.6,14.1h8.9v1.1H7.6V14.1z M20.5,1.7H3.6c-1.5,0-2.7,1.2-2.7,2.7v13.8c0,1.5,1.2,2.7,2.7,2.7h16.9c1.5,0,2.7-1.2,2.7-2.7V4.4 C23.2,2.9,22,1.7,20.5,1.7z M19.2,15.8c0,0.5-0.3,0.9-0.8,1.1c-0.1,0-0.7,0.2-1.1,0.9c-0.2,0.3-0.5,0.4-0.8,0.5 c-0.4,0-1.4,0.1-2.9,0.1c-2.5,0-5.7-0.1-5.7-0.1c-0.4,0-0.8-0.2-0.9-0.6c0,0-0.1-0.2-0.5-0.4c-0.3-0.2-0.5-0.3-0.6-0.3 C5.3,16.7,5,16.2,5,15.7v-2.6C5,12.5,5.4,12,6,12h12c0.6,0,1.1,0.5,1.1,1.1V15.8z M22.3,9.4H1.9v-5c0-0.9,0.8-1.7,1.7-1.7h16.9 c0.9,0,1.7,0.8,1.7,1.7V9.4z"/>

</svg>