<svg xmlns="http://www.w3.org/2000/svg" fill="#44739e" width="24" height="24" viewBox="0 0 24 24">
  <path id="Colore_riempimento_1" data-name="Colore riempimento 1" class="cls-1" d="M 17.418,2 H 6.582 A 4.581,4.581 0 0 0 2,6.582 V 17.418 A 4.581,4.581 0 0 0 6.582,22 H 17.418 A 4.581,4.581 0 0 0 22,17.418 V 6.582 A 4.581,4.581 0 0 0 17.418,2 Z m 1.693,7.458 a 0.895,0.895 0 1 1 0.895,-0.895 0.894,0.894 0 0 1 -0.895,0.895 z m 0,-2.5 a 0.9,0.9 0 1 1 0.895,-0.895 0.895,0.895 0 0 1 -0.895,0.894 z"/>
</svg>
