<svg xmlns="http://www.w3.org/2000/svg" viewBox="0 0 24 24"><path fill="#44739e" d="M5.068 21.969a3.38 3.38 0 0 1-2.879-2.607c-.072-.279-.077-.772-.077-7.365V4.931l.1-.365A3.37 3.37 0 0 1 4.678 2.1l.365-.1H12c6.387 0 6.98.006 7.243.074a3.39 3.39 0 0 1 2.368 1.965c.3.705.277.138.277 7.958v7.066l-.1.365A3.38 3.38 0 0 1 19.35 21.9L19 22h-6.825c-3.754 0-6.952-.01-7.107-.03Zm7.157-6.824a1.99 1.99 0 0 0 1.592-1.52 1.71 1.71 0 0 0-.942-1.895 12 12 0 0 0-1.2-.371c-1.253-.331-1.487-.456-1.557-.832a.74.74 0 0 1 .549-.843 2.9 2.9 0 0 1 1.044-.009.97.97 0 0 1 .645.5 1.2 1.2 0 0 1 .106.321c0 .194.1.233.607.233.628 0 .654-.019.58-.421a2.21 2.21 0 0 0-2.39-1.679 2.31 2.31 0 0 0-2.196 1.122 1.35 1.35 0 0 0-.14.67 1.4 1.4 0 0 0 .37 1.136 3.1 3.1 0 0 0 1.656.747c1.3.34 1.429.395 1.61.655a1.14 1.14 0 0 1 .011.785q-.264.512-1.227.5a1.6 1.6 0 0 1-1.1-.338 1.25 1.25 0 0 1-.361-.7c0-.274-.039-.292-.609-.292-.641 0-.643 0-.574.446.192 1.239 1.3 1.972 2.845 1.883a4.4 4.4 0 0 0 .685-.1Zm-6.14-.113a2.58 2.58 0 0 0 1.563-1.068 4.3 4.3 0 0 0 .141-3.8 2.56 2.56 0 0 0-1.1-1.118c-.526-.257-.809-.29-2.452-.29-1.378 0-1.441 0-1.484.084-.063.117-.063 6.058 0 6.175.043.081.107.085 1.534.085a9.6 9.6 0 0 0 1.8-.071Zm-2.157-3.1V9.766h.692a2.9 2.9 0 0 1 1.449.219c.649.329.887.852.887 1.947a2.15 2.15 0 0 1-.491 1.684c-.379.379-.757.481-1.781.481h-.756Zm11.873 3.1c.015-.038.028-1.057.03-2.264a19 19 0 0 1 .044-2.107c.023.048.392 1.062.82 2.253l.778 2.166.466.012c.444.012.469.008.53-.087.035-.055.4-1.045.816-2.2s.769-2.13.79-2.166.038.88.04 2.144c0 1.215.018 2.234.037 2.265s.17.053.557.044l.522-.012v-6.3l-.744-.011a5 5 0 0 0-.8.026c-.031.021-.415 1.079-.853 2.352s-.814 2.316-.834 2.316-.4-1.034-.847-2.3-.829-2.322-.854-2.352-.233-.053-.815-.044l-.771.012-.013 3.109c-.006 1.708 0 3.131.009 3.161s.166.055.543.055c.435 0 .526-.012.548-.07Z"/></svg>