<?xml version="1.0" encoding="UTF-8"?>
<svg width="24px" fill="#44739e" height="24px" viewBox="0 0 24 24" version="1.1" xmlns="http://www.w3.org/2000/svg" xmlns:xlink="http://www.w3.org/1999/xlink">
            <path d="M 5.068,21.969 A 3.379,3.379 0 0 1 2.189,19.362 C 2.117,19.083 2.112,18.59 2.112,11.997 V 4.931 l 0.1,-0.365 A 3.373,3.373 0 0 1 4.678,2.1 L 5.043,2 H 12 c 6.387,0 6.98,0.006 7.243,0.074 a 3.388,3.388 0 0 1 2.368,1.965 c 0.3,0.705 0.277,0.138 0.277,7.958 v 7.066 l -0.1,0.365 A 3.383,3.383 0 0 1 19.35,21.9 L 19,22 H 12.175 C 8.421,22 5.223,21.99 5.068,21.97 Z m 7.157,-6.824 a 1.987,1.987 0 0 0 1.592,-1.52 1.713,1.713 0 0 0 -0.942,-1.895 11.749,11.749 0 0 0 -1.2,-0.371 c -1.253,-0.331 -1.487,-0.456 -1.557,-0.832 a 0.739,0.739 0 0 1 0.549,-0.843 2.864,2.864 0 0 1 1.044,-0.009 0.971,0.971 0 0 1 0.645,0.5 1.159,1.159 0 0 1 0.106,0.321 c 0,0.194 0.1,0.233 0.607,0.233 0.628,0 0.654,-0.019 0.58,-0.421 a 2.207,2.207 0 0 0 -2.39,-1.679 2.314,2.314 0 0 0 -2.196,1.122 1.354,1.354 0 0 0 -0.14,0.67 1.394,1.394 0 0 0 0.37,1.136 3.1,3.1 0 0 0 1.656,0.747 c 1.3,0.34 1.429,0.395 1.61,0.655 a 1.135,1.135 0 0 1 0.011,0.785 q -0.264,0.512 -1.227,0.5 a 1.594,1.594 0 0 1 -1.1,-0.338 1.245,1.245 0 0 1 -0.361,-0.7 c 0,-0.274 -0.039,-0.292 -0.609,-0.292 -0.641,0 -0.643,0 -0.574,0.446 0.192,1.239 1.3,1.972 2.845,1.883 a 4.388,4.388 0 0 0 0.685,-0.1 z m -6.14,-0.113 a 2.575,2.575 0 0 0 1.563,-1.068 4.3,4.3 0 0 0 0.141,-3.8 2.562,2.562 0 0 0 -1.1,-1.118 C 6.163,8.789 5.88,8.756 4.237,8.756 c -1.378,0 -1.441,0 -1.484,0.084 -0.063,0.117 -0.063,6.058 0,6.175 0.043,0.081 0.107,0.085 1.534,0.085 a 9.583,9.583 0 0 0 1.8,-0.071 z m -2.157,-3.1 V 9.766 H 4.62 a 2.9,2.9 0 0 1 1.449,0.219 c 0.649,0.329 0.887,0.852 0.887,1.947 A 2.155,2.155 0 0 1 6.465,13.616 C 6.086,13.995 5.708,14.097 4.684,14.097 H 3.928 Z m 11.873,3.1 c 0.015,-0.038 0.028,-1.057 0.03,-2.264 a 19.132,19.132 0 0 1 0.044,-2.107 c 0.023,0.048 0.392,1.062 0.82,2.253 l 0.778,2.166 0.466,0.012 c 0.444,0.012 0.469,0.008 0.53,-0.087 0.035,-0.055 0.4,-1.045 0.816,-2.2 0.416,-1.155 0.769,-2.13 0.79,-2.166 0.021,-0.036 0.038,0.88 0.04,2.144 0,1.215 0.018,2.234 0.037,2.265 0.019,0.031 0.17,0.053 0.557,0.044 L 21.231,15.08 V 8.78 L 20.487,8.769 a 4.934,4.934 0 0 0 -0.8,0.026 c -0.031,0.021 -0.415,1.079 -0.853,2.352 -0.438,1.273 -0.814,2.316 -0.834,2.316 -0.02,0 -0.4,-1.034 -0.847,-2.3 C 16.706,9.897 16.324,8.841 16.299,8.811 16.274,8.781 16.066,8.758 15.484,8.767 L 14.713,8.779 14.7,11.888 c -0.006,1.708 0,3.131 0.009,3.161 0.009,0.03 0.166,0.055 0.543,0.055 0.435,0 0.526,-0.012 0.548,-0.07 z"/>

</svg>