<svg xmlns="http://www.w3.org/2000/svg" viewBox="0 0 24 24"><path fill="#44739e" d="M6.74 6.738a1.247 1.247 0 0 0 1.682-.651l.013-.031a1.28 1.28 0 0 0-.701-1.667 1.24 1.24 0 0 0-1.661.701 1 1 0 0 0-.035.083 1.21 1.21 0 0 0 .702 1.565m-.57 5.916a.922.922 0 1 0-.718 1.695.92.92 0 0 0 1.202-.488.92.92 0 0 0-.484-1.207m2.997-7.639a1.33 1.33 0 0 0 1.803-.695l.015-.035a1.37 1.37 0 0 0-.749-1.785 1.336 1.336 0 0 0-1.781.751l-.035.083a1.3 1.3 0 0 0 .747 1.681M5.195 9.11l.037.016a1.177 1.177 0 0 0 1.542-.635l.015-.035a1.2 1.2 0 0 0-.661-1.562l-.031-.006a1.18 1.18 0 0 0-1.531.663l-.025.058a1.16 1.16 0 0 0 .654 1.501m3.917 2.041-.01-.032a1.04 1.04 0 0 0-1.327-.635l-.045.016a1.02 1.02 0 0 0-.591 1.312l.025.074a.99.99 0 0 0 1.276.576v-.011l.041-.013a1.015 1.015 0 0 0 .631-1.287m.391-2.66-.006-.02a1.086 1.086 0 0 0-1.385-.665l-.049.017a1.06 1.06 0 0 0-.613 1.369l.024.073a1.03 1.03 0 0 0 1.327.601l.048-.015a1.06 1.06 0 0 0 .654-1.36m2.76-3.842a1.35 1.35 0 0 0 1.82-.701l.013-.032a1.38 1.38 0 0 0-.759-1.803 1.34 1.34 0 0 0-1.795.76l-.037.086a1.31 1.31 0 0 0 .758 1.69m.795 11.755a.72.72 0 0 0 .573.033h.006l.035-.011a.745.745 0 0 0 .461-.947l-.007-.022a.76.76 0 0 0-.973-.465l-.038.013a.74.74 0 0 0-.428.959.72.72 0 0 0 .371.44m-6.907-5.185a1.129 1.129 0 1 0-1.492.601l.031.013a1.12 1.12 0 0 0 1.461-.614m3.858-5.382q-.025.008-.049.018a1.08 1.08 0 0 0-.626 1.392q.01.036.024.072a1.05 1.05 0 0 0 1.352.613l.05-.016a1.08 1.08 0 0 0 .669-1.37l-.01-.028a1.11 1.11 0 0 0-1.41-.681m4.99 10.979a.624.624 0 0 0-.006 1.154.6.6 0 0 0 .477.006.627.627 0 0 0 .343-.817.624.624 0 0 0-.814-.343m.69-2.427a.623.623 0 1 0-.076 1.148h.016a.614.614 0 0 0 .374-.784.63.63 0 0 0-.314-.364m3.642-.615a.3.3 0 0 0 .024-.076.39.39 0 0 0-.3-.459.3.3 0 0 0-.076-.008.39.39 0 0 0-.152.749.38.38 0 0 0 .507-.206Zm-1.607 1.539a.501.501 0 0 0-.3.95h.006a.49.49 0 0 0 .644-.263 1 1 0 0 0 .03-.095.5.5 0 0 0-.38-.592m-6.449.926.038-.012a.86.86 0 0 0 .537-1.102l-.006-.019a.89.89 0 0 0-1.13-.544l-.042.015a.86.86 0 0 0-.501 1.113.84.84 0 0 0 1.102.55Zm-1.922-1.337.046-.016A.97.97 0 0 0 10 13.649l-.008-.026a1 1 0 0 0-1.273-.612l-.045.016a.97.97 0 0 0-.565 1.255l.02.062a.95.95 0 0 0 1.224.558m-1.727.151-.033-.013a.76.76 0 0 0-.981.443.74.74 0 0 0 .406 1.001.76.76 0 0 0 1.026-.389.78.78 0 0 0-.418-1.041Zm4.814 2.185a.683.683 0 1 0 .62.945.7.7 0 0 0 .054-.259.68.68 0 0 0-.674-.686m-2.109.368a.748.748 0 1 0-.981.395.75.75 0 0 0 .983-.395Zm4.967-12.08.026.011a1.37 1.37 0 0 0 1.791-.746 1.389 1.389 0 0 0-2.554-1.086l-.01.024a1.376 1.376 0 0 0 .747 1.797m1.417 3.366a.38.38 0 0 0 .244-.491.39.39 0 1 0-.244.491m.353.671a.391.391 0 1 0 .253.738.35.35 0 0 0 .132-.074.38.38 0 0 0 .112-.415v-.006a.39.39 0 0 0-.497-.243m-.198 4.366a.501.501 0 0 0-.315-.944h-.012a.501.501 0 1 0 .327.94Zm2.343-4.903a.388.388 0 0 0 .531-.281.39.39 0 1 0-.531.281m.04 1.934a.39.39 0 0 0 .211.509.38.38 0 0 0 .301.006.38.38 0 0 0 .211-.21.39.39 0 1 0-.717-.3Zm-2.171.469a.391.391 0 0 0 .252.739h.011a.38.38 0 0 0 .233-.488.39.39 0 0 0-.496-.251m1.166-4.656a.38.38 0 0 0 .301.006.38.38 0 0 0 .21-.21.391.391 0 1 0-.511.209Zm-3.702 5.92a.5.5 0 0 0 .701.105.51.51 0 0 0 .1-.701.501.501 0 1 0-.801.592Zm-.958.355a.501.501 0 1 0 .592.801.5.5 0 0 0 .1-.701.5.5 0 0 0-.692-.1m-2.168.168a.73.73 0 0 0 .147-1.022l-.013-.017a.75.75 0 0 0-1.05-.142l-.022.017a.73.73 0 0 0-.117 1.024l.029.039a.71.71 0 0 0 1.002.116Zm-.303-1.796a.85.85 0 0 0 .167-1.193l-.012-.017a.877.877 0 0 0-1.227-.167l-.034.026a.85.85 0 0 0-.128 1.202l.034.046a.83.83 0 0 0 1.166.131Zm3.01-5.349-.009-.026a1.126 1.126 0 0 0-1.433-.693l-.049.017A1.095 1.095 0 0 0 12 6.782q.01.036.024.072a1.066 1.066 0 0 0 1.373.625l.046-.015a1.1 1.1 0 0 0 .684-1.393m-1.4 7.974a.623.623 0 1 0-.872-.13.627.627 0 0 0 .872.13m.782-5.392a.312.312 0 1 0 .371.5.32.32 0 0 0 .065-.436.31.31 0 0 0-.436-.064m-1.224 1.063.034-.025a.9.9 0 0 0 .179-1.26l-.015-.019a.92.92 0 0 0-1.293-.175l-.047.035a.9.9 0 0 0-.125 1.265q.018.025.037.048a.875.875 0 0 0 1.23.135Zm2.679.31a.32.32 0 0 0 .064-.436.313.313 0 1 0-.062.437Zm.555.753a.374.374 0 1 0-.077.522.39.39 0 0 0 .077-.522m.137-3.089h.008a.384.384 0 0 0 .238-.488.391.391 0 1 0-.246.494ZM7.215 20.766a2 2 0 0 0-.073.263h-.007a2 2 0 0 0-.069-.263l-.542-1.527h-.235l.744 1.974-.301.787h.223l1.032-2.76h-.23Zm10.91-1.527h.404v1.973h-.404Zm-1.236-.039a1.8 1.8 0 0 0-.688.139l.1.275a1.5 1.5 0 0 1 .546-.121c.252 0 .417.088.417.336v.126c-.597.031-1.183.132-1.183.681 0 .387.286.618.853.618a1.7 1.7 0 0 0 .712-.142V19.87c0-.487-.285-.67-.757-.67m.377 1.712a1 1 0 0 1-.341.051c-.301 0-.465-.128-.465-.336 0-.352.401-.385.802-.408Zm-11.859-.793c-.242-.092-.421-.169-.421-.408 0-.183.154-.333.421-.333a.8.8 0 0 1 .42.121l.085-.162a1 1 0 0 0-.516-.128c-.401 0-.627.223-.627.508 0 .341.252.462.545.571.256.094.446.183.446.421s-.194.365-.483.365a1.1 1.1 0 0 1-.475-.125l-.088.163a1.24 1.24 0 0 0 .565.136c.435 0 .702-.216.702-.541.001-.358-.267-.47-.574-.588m3.532-.001c-.242-.092-.421-.169-.421-.408 0-.183.153-.333.421-.333a.8.8 0 0 1 .421.121l.084-.162a1 1 0 0 0-.52-.135c-.401 0-.625.223-.625.509 0 .341.252.461.545.571.256.094.447.182.447.421 0 .223-.195.365-.484.365a1.1 1.1 0 0 1-.475-.125l-.085.17a1.24 1.24 0 0 0 .565.135c.435 0 .701-.216.701-.541 0-.358-.267-.469-.574-.588M19.78 19.2a2.1 2.1 0 0 0-.765.138v1.875h.4v-1.636a.95.95 0 0 1 .512-.029l.077-.333a1.3 1.3 0 0 0-.224-.015m-1.463-.774a.228.228 0 1 0 .248.228.24.24 0 0 0-.248-.228m-7.528 2.594a.4.4 0 0 1-.12.018.294.294 0 0 1-.326-.31v-1.319h.446v-.17h-.446v-.57l-.208.081v.489h-.308v.17h.308v1.333a.456.456 0 0 0 .501.494.4.4 0 0 0 .153-.022Zm4.223-1.811a.9.9 0 0 0-.638.242.77.77 0 0 0-.618-.242 1.7 1.7 0 0 0-.654.135v1.869h.208v-1.749a1.2 1.2 0 0 1 .441-.081c.301 0 .52.151.52.392v1.438h.216v-1.631a.62.62 0 0 1 .487-.201.434.434 0 0 1 .471.45v1.382h.216v-1.391a.6.6 0 0 0-.649-.613m-3.135 0c-.516 0-.834.414-.834 1.021 0 .67.354 1.025.918 1.025a1.3 1.3 0 0 0 .614-.143l-.073-.168a1.15 1.15 0 0 1-.533.125.68.68 0 0 1-.716-.728l1.382-.2v-.117a.73.73 0 0 0-.758-.815m-.637.973c.011-.483.249-.802.637-.802.33 0 .548.201.552.63Z"/></svg>