<svg xmlns="http://www.w3.org/2000/svg" viewBox="0 0 24 24"><path fill="#44739e" d="m16.965 15.272-.097-10.903c-.014-.38.553-2.326-4.939-2.368-5.635-.05-4.854 2.019-4.861 2.218l-.007 11.356s.007.694.02 2.691l.088.866s.123 2.882 4.612 2.868 5.004-1.828 5.162-2.719l-.009-1.086c.035-.968.031-2.923.031-2.923m-.718 2.173c-.625.912-3.521 1.162-4.268 1.206-.664.04-3.431-.174-4.018-1.047-.253-.335-.224-2.007-.224-2.007l.111-11.206s3.643.651 4.008.446c.258-.145-4.027-.394-4.01-.911.015-.463.326-1.057 3.925-1.057h.154c3.341.025 4.374.807 4.221 1.148-.175.39-4.281.755-3.924.833.583.128 3.953-.451 3.953-.451l.133 10.872s.037 1.187-.061 2.173"/></svg>