<?xml version="1.0" encoding="UTF-8"?>
<svg width="24px" fill="#44739e" height="24px" viewBox="0 0 24 24" version="1.1" xmlns="http://www.w3.org/2000/svg" xmlns:xlink="http://www.w3.org/1999/xlink">
            <path d="m 12.133,8.668 h -0.266 a 3.352,3.352 0 0 0 -3.2,3.2 3.333,3.333 0 0 0 3.2,3.464 c 0.045,0 0.091,0 0.136,0 a 3.334,3.334 0 0 0 3.328,-3.2 v 0 A 3.338,3.338 0 0 0 12.133,8.668 Z M 19.071,4.929 A 9.938,9.938 0 0 0 12.08,2 H 11.92 A 10.00008,10.00008 0 0 0 12,22 h 0.081 A 10,10 0 0 0 19.071,4.929 Z M 12,18.667 A 6.6670631,6.6670631 0 0 1 11.942,5.333 h 0.118 a 6.667,6.667 0 0 1 -0.006,13.333 z"/>

</svg>