<svg xmlns="http://www.w3.org/2000/svg" viewBox="0 0 24 24"><path fill="#44739e" d="M4.128 4.516 2.941 7.964h5.03L5.147 16.28c1.209.364 2.485.427 3.74.41l2.964-8.726h5.288l-1.093-3.448ZM12.685 8.8l-2.66 7.83a21 21 0 0 0 4.15-.852l.926-2.72.76 2.065c1.063-.486 2.088-1.086 2.949-1.884L17.396 8.8q-2.357.002-4.711 0m5.152.03c.138.273.107.71.36.873.982.337 2.102 1.141 1.918 2.317-.312 1.458-1.692 2.349-2.892 3.055-3.065 1.635-6.609 2.343-10.069 2.134-1.436-.15-3.068-.403-4.043-1.58-.724-.949-.095-2.209.68-2.907.809-.789 1.798-1.363 2.814-1.84.375-.822-1.009.293-1.366.375-1.321.782-2.773 1.76-3.191 3.329-.287 1.225.769 2.227 1.818 2.636 2.429.978 5.142.882 7.694.533 3.121-.504 6.285-1.458 8.803-3.436.925-.766 1.96-1.952 1.541-3.246-.574-1.391-2.2-1.87-3.546-2.154a12 12 0 0 0-.52-.089Zm1.688 6.703c-.925.611-1.982 1.087-2.971 1.497l.902 2.454h3.33Zm-6.094 2.418c-1.337.297-2.719.456-4.065.564l-.33.969h3.862Zm-8.864.076-.486 1.457h3.861l.319-.97c-1.243-.024-2.499-.127-3.694-.487"/></svg>