<svg xmlns="http://www.w3.org/2000/svg" fill="#44739e" width="24" height="24" viewBox="0 0 24 24" xmlns:v="https://vecta.io/nano"><path d="m 6.7,13.239 c -0.691,-0.071 -0.84,-0.066 -0.869,0.03 -0.041,0.139 0.139,0.215 0.627,0.269 0.877,0.1 1.051,0.085 1.038,-0.073 C 7.483,13.356 7.274,13.3 6.7,13.239 Z m 2.839,-3.054 v 0 C 8.489,9.267 8.244,9.062 8.355,9.225 c 0.064,0.094 4.388,3.859 4.47,3.9 a 0.406,0.406 0 0 0 0.1,0.03 c 0.016,0 -0.485,-0.446 -1.113,-0.987 Q 10.673,11.18 9.539,10.185 Z m 0.327,2.35 v 0 l -2.4,-2.3 C 6.341,9.152 6.131,8.964 6.138,9.026 a 2.058,2.058 0 0 0 0.269,0.291 l 1.173,1.128 1.454,1.4 c 0.773,0.731 0.99,0.959 0.967,1.01 -0.012,0.024 -0.008,0.03 0.01,0.013 a 0.179,0.179 0 0 1 0.14,0 C 10.224,12.888 10.148,12.8 9.866,12.535 Z M 8.544,10.864 V 10.858 A 23.106,23.106 0 0 0 6.526,9 C 6.469,8.984 6.475,9 6.548,9.072 l 0.51,0.482 1.242,1.175 1.36,1.276 0.694,0.664 a 1.072,1.072 0 0 0 0.294,0.224 l 0.133,0.055 -0.164,-0.153 Q 9.575,11.837 8.544,10.864 Z M 7.707,10.688 v 0 l -1.8,-1.7 c -0.024,0 0,0.044 0.043,0.094 0.092,0.1 0.787,0.774 2.306,2.245 l 1.169,1.143 c 0.234,0.239 0.409,0.378 0.471,0.373 0.023,0 -0.064,-0.1 -0.2,-0.229 z M 9.583,10.8 v 0 L 8.317,9.664 7.838,9.223 A 0.383,0.383 0 0 0 7.648,9.099 c -0.036,0 0.117,0.168 0.343,0.368 l 1.509,1.361 2.6,2.261 a 9.761,9.761 0 0 0 -0.786,-0.735 z m 0.666,2.894 v 0 c -0.1,0.116 0.067,0.306 0.251,0.293 a 0.151,0.151 0 0 0 0.153,-0.148 0.143,0.143 0 0 0 -0.025,-0.087 0.329,0.329 0 0 0 -0.379,-0.058 z M 10.2,12.2 v 0 L 8.685,10.784 A 23.582,23.582 0 0 0 6.735,9.008 C 6.701,9 7.149,9.441 7.735,9.988 l 1.882,1.763 1.068,0.993 a 1.034,1.034 0 0 0 0.3,0.22 C 11.038,12.96 11.048,12.968 10.2,12.2 Z m 1.253,-0.143 V 12.052 Q 10.034,10.816 8.623,9.571 A 3.334,3.334 0 0 0 8.086,9.146 1.444,1.444 0 0 0 8.397,9.469 l 3.4,3.005 a 4.491,4.491 0 0 1 0.612,0.59 1.1,1.1 0 0 1 -0.33,-0.243 Q 10.12,11.095 8.179,9.353 C 8.021,9.209 7.879,9.108 7.873,9.131 a 4.611,4.611 0 0 0 0.612,0.6 q 1.761,1.556 3.5,3.133 c 0.142,0.138 0.395,0.279 0.433,0.234 0.013,-0.014 0.078,0 0.146,0.027 0.227,0.094 0.323,0.186 -1.111,-1.068 z M 10.2,11.984 v 0 L 8.232,10.164 C 7.269,9.264 6.845,8.9 6.968,9.072 c 0.041,0.056 0.47,0.462 1.2,1.136 q 0.942,0.876 1.89,1.744 c 0.821,0.756 1.039,0.969 1.02,1 -0.019,0.031 0.033,0.03 0.092,0.029 0.13,-0.005 0.245,0.112 -0.97,-0.997 z m 0.162,-0.073 v 0 Q 8.9,10.574 7.433,9.232 A 0.858,0.858 0 0 0 7.194,9.048 c -0.024,0 0.036,0.079 0.132,0.171 l 2.9,2.675 c 1.048,0.949 1.135,1.036 1.107,1.092 -0.016,0.031 -0.008,0.038 0.02,0.017 a 0.178,0.178 0 0 1 0.143,0.009 l 0.1,0.043 -0.1,-0.109 C 11.434,12.885 10.927,12.42 10.362,11.911 Z m 0.67,0.394 -1.48,-1.334 C 8.109,9.659 7.418,9.047 7.4,9.074 a 17.017,17.017 0 0 0 1.748,1.637 c 2.385,2.174 2.645,2.4 2.637,2.3 q -0.367,-0.36 -0.757,-0.7 z M 9.711,12.172 7.321,9.894 c -0.837,-0.8 -0.954,-0.908 -1.03,-0.9 -0.025,0 -0.015,0.026 0.024,0.051 0.077,0.052 3.18,3.016 3.72,3.551 0.186,0.186 0.344,0.306 0.357,0.286 0.013,-0.02 -0.025,-0.1 -0.086,-0.153 z m -6.06,-1.465 0.001,0.002 0.004,-0.004 z M 6.5,9.711 A 6.724,6.724 0 0 1 5.821,8.988 C 5.831,8.968 5.81,8.954 5.773,8.957 5.736,8.96 5.7,8.978 5.705,9 c 0,0.043 1.31,1.349 2.594,2.591 l 0.876,0.857 a 2.262,2.262 0 0 0 0.449,0.38 c 0.05,0 0.05,-0.013 0,-0.057 Q 8.054,11.246 6.5,9.711 Z M 4.073,10.937 A 0.815,0.815 0 0 0 3.805,10.692 c -0.051,0 -0.054,-0.007 -0.016,-0.061 0.027,-0.039 0.039,-0.069 0.027,-0.067 a 0.188,0.188 0 0 0 -0.068,0.069 c -0.039,0.055 -0.031,0.08 0.043,0.135 0.074,0.055 0.419,0.45 1.171,1.351 a 1.3,1.3 0 0 0 0.269,0.265 c 0.086,0.025 0.029,-0.05 -0.525,-0.7 z M 4.639,11.35 Q 4.313,10.965 3.979,10.585 C 3.943,10.549 3.926,10.508 3.938,10.493 c 0.012,-0.015 0.011,-0.025 0,-0.024 -0.011,0.001 -0.036,0.024 -0.051,0.051 -0.015,0.027 0.017,0.1 0.067,0.154 a 19.26,19.26 0 0 0 1.53,1.726 c 0.062,0.028 0.04,-0.016 -0.081,-0.156 z m -1.568,0.023 a 4.221,4.221 0 0 0 0.694,0.87 C 3.801,12.253 3.689,12.078 3.518,11.852 3.171,11.4 3.108,11.33 3.071,11.373 Z m 0.581,-0.664 c 0,0 -0.033,0.03 -0.064,0.062 -0.186,0.179 -0.375,0.357 -0.565,0.532 a 5.812,5.812 0 0 0 -0.5,0.5 0.778,0.778 0 0 0 0.281,0.328 c 0.073,0.033 0.062,0.006 -0.061,-0.141 l -0.15,-0.18 0.092,-0.114 0.089,-0.114 0.2,0.265 a 1.592,1.592 0 0 0 0.3,0.325 c 0.071,0.041 0.032,-0.028 -0.143,-0.25 A 2,2 0 0 1 2.887,11.567 c -0.007,-0.087 0.1,0.022 0.322,0.312 A 1.608,1.608 0 0 0 3.5,12.199 C 3.58,12.24 3.582,12.237 3.527,12.15 3.435,12.02 3.338,11.893 3.238,11.769 A 2.418,2.418 0 0 1 3,11.444 0.353,0.353 0 0 1 3.095,11.31 c 0.064,-0.064 0.1,-0.082 0.1,-0.046 a 5.994,5.994 0 0 0 0.8,0.979 2.1,2.1 0 0 0 -0.348,-0.5 C 3.252,11.25 3.238,11.227 3.293,11.131 c 0.031,-0.058 0.072,-0.1 0.088,-0.1 a 6.252,6.252 0 0 1 0.51,0.605 5.284,5.284 0 0 0 0.585,0.665 8.465,8.465 0 0 0 -0.951,-1.224 c -0.074,-0.074 -0.08,-0.093 -0.031,-0.141 0.049,-0.048 0.059,-0.043 0.065,0 A 12.666,12.666 0 0 0 4.728,12.321 8.675,8.675 0 0 0 3.8,11.138 C 3.684,11.002 3.606,10.88 3.624,10.867 a 12.638,12.638 0 0 1 1.147,1.31 c 0.163,0.2 0.324,0.279 0.172,0.076 Q 4.31,11.473 3.652,10.709 Z m -0.333,0.448 a 11.148,11.148 0 0 0 0.872,1.089 C 4.309,12.313 4.234,12.198 3.832,11.695 3.407,11.161 3.313,11.063 3.319,11.157 Z m 5.227,1.033 v 0.005 L 6.863,10.519 5.455,9.129 C 5.387,9.089 5.355,9.103 5.213,9.221 A 1.258,1.258 0 0 0 5.026,9.406 0.725,0.725 0 0 1 4.85,9.552 1.991,1.991 0 0 0 4.484,9.89 c -0.114,0.133 -0.268,0.3 -0.345,0.371 -0.077,0.071 -0.117,0.119 -0.091,0.1 a 0.054,0.054 0 0 1 0.072,0.025 v 0 c 0.038,0.079 1.725,1.989 1.786,2.024 a 0.225,0.225 0 0 0 0.076,0.02 C 5.998,12.43 5.605,11.967 5.109,11.403 4.1,10.26 4.12,10.285 4.175,10.278 c 0.022,0 0.465,0.479 0.986,1.067 0.521,0.588 0.973,1.079 1.006,1.089 0.1,0.029 -0.01,-0.109 -0.938,-1.148 -1.02,-1.139 -0.979,-1.1 -0.949,-1.133 0.013,-0.017 0.053,0 0.089,0.047 0.036,0.047 0.251,0.286 0.48,0.541 l 0.967,1.08 a 5.948,5.948 0 0 0 0.622,0.638 c 0.053,0.015 0.059,0.007 0.024,-0.031 L 5.83,11.722 4.81,10.577 a 3.407,3.407 0 0 1 -0.418,-0.51 6.531,6.531 0 0 1 0.941,0.976 c 1.28,1.419 1.429,1.561 1.5,1.477 0.013,-0.016 0,-0.026 -0.023,-0.024 A 0.9,0.9 0 0 1 6.558,12.272 L 4.513,10.027 C 4.472,9.99 4.462,9.957 4.486,9.956 a 19.424,19.424 0 0 1 1.735,1.814 c 0.612,0.665 0.816,0.837 0.919,0.765 a 0.048,0.048 0 0 1 0.065,0.015 0.194,0.194 0 0 0 0.144,0.031 2.6,2.6 0 0 1 0.279,0 l 0.166,0.006 -0.116,-0.1 c -0.108,-0.1 -0.473,-0.484 -2,-2.106 L 4.954,9.619 C 4.916,9.581 4.905,9.547 4.931,9.545 c 0.026,-0.002 0.645,0.625 1.378,1.392 1.761,1.847 1.653,1.743 1.788,1.705 0.067,-0.018 0.12,-0.01 0.134,0.021 0.014,0.031 0.035,0.034 0.051,0.02 A 7.622,7.622 0 0 0 7.543,11.867 Q 6.805,11.108 6.07,10.348 L 5.231,9.485 C 5.161,9.413 5.131,9.358 5.162,9.363 c 0.079,0.012 3.226,3.232 3.2,3.28 -0.012,0.021 0.008,0.023 0.044,0.006 0.036,-0.017 0.065,-0.008 0.067,0.019 0.002,0.027 0.021,0.035 0.043,0.02 A 1.69,1.69 0 0 0 8.151,12.254 Q 6.7,10.8 5.282,9.311 c -0.115,-0.17 0.094,0.012 0.551,0.48 l 1.317,1.337 a 11.412,11.412 0 0 1 1.459,1.538 c -0.009,0.021 0,0.031 0.017,0.027 a 0.137,0.137 0 0 1 0.057,0 0.947,0.947 0 0 0 0.129,0.016 c 0.09,0.008 0.1,0 0.031,-0.029 C 8.696,12.609 5.278,9.152 5.373,9.18 a 3.324,3.324 0 0 1 0.455,0.408 l 2.118,2.125 0.933,0.944 c 0.123,0.131 0.19,0.1 0.082,-0.034 A 4.933,4.933 0 0 0 8.546,12.19 Z M 7.03,12.506 V 12.5 A 5.536,5.536 0 0 1 6.43,11.9 L 4.6,9.92 C 4.538,9.882 4.546,9.876 4.581,9.864 4.616,9.852 4.717,9.932 4.819,10.042 l 0.722,0.777 0.963,1.03 c 0.522,0.566 0.622,0.686 0.526,0.657 z m 0.253,0.022 V 12.517 A 6.3,6.3 0 0 1 6.644,11.88 L 5.533,10.694 4.85,9.952 C 4.77,9.86 4.71,9.777 4.723,9.758 4.736,9.739 6.846,11.947 7.21,12.375 7.3,12.48 7.323,12.539 7.283,12.528 Z M 5.492,10.3 v 0 0 l 1.09,1.156 c 1.021,1.073 1.054,1.11 0.985,1.115 a 20.647,20.647 0 0 1 -1.8,-1.86 l -0.936,-1 C 4.795,9.673 4.78,9.641 4.819,9.64 a 6.205,6.205 0 0 1 0.673,0.66 z m 0.839,0.443 v -0.01 l 1.753,1.824 c 0.03,0.037 0.031,0.051 0,0.058 -0.055,0 -0.97,-0.929 -2.7,-2.746 C 4.976,9.434 4.984,9.452 5.035,9.45 5.062,9.46 5.641,10.034 6.331,10.745 Z M 6.38,9.8 V 9.805 A 5.507,5.507 0 0 0 5.564,9.073 c -0.046,0 -0.06,0.005 -0.032,0.015 a 5.611,5.611 0 0 1 0.511,0.476 l 2.532,2.515 c 0.327,0.316 0.62,0.614 0.649,0.655 a 0.179,0.179 0 0 0 0.13,0.067 c 0.071,0 0.071,-0.009 -0.006,-0.077 C 9.271,12.656 8.336,11.736 6.38,9.8 Z M 2.5,11.9 A 0.053,0.053 0 0 0 2.469,11.832 c -0.033,-0.015 -0.04,-0.01 -0.02,0.017 a 0.054,0.054 0 0 1 -0.01,0.074 c -0.064,0.048 -0.042,0.1 0.058,0.147 0.083,0.037 0.086,0.032 0.036,-0.045 A 0.179,0.179 0 0 1 2.5,11.9 Z m 10.134,1.9 c -0.4,-0.043 -0.486,-0.039 -0.582,0.028 -0.096,0.067 -0.075,0.227 0.053,0.329 a 1.023,1.023 0 0 0 0.5,0.124 c 0.472,0.045 0.6,0 0.587,-0.2 C 13.177,13.905 13.057,13.843 12.634,13.8 Z M 4.46,10.883 v 0 C 4.116,10.483 4.025,10.398 4.033,10.497 a 3.57,3.57 0 0 0 0.345,0.43 l 0.781,0.9 c 0.426,0.493 0.612,0.677 0.606,0.6 A 6.715,6.715 0 0 0 5.292,11.85 Z m -1.773,0.862 a 1.343,1.343 0 0 0 0.334,0.419 C 3.082,12.19 3.059,12.137 2.931,11.964 2.779,11.749 2.678,11.659 2.687,11.745 Z m -10e-4,0 H 2.687 L 2.686,11.744 Z M 14.178,9.812 v 0 c 0.1,0.049 0.133,0.046 0.265,-0.029 Q 14.692,9.63 14.484,9.45 a 0.277,0.277 0 0 0 -0.377,0.012 0.2,0.2 0 0 0 -0.022,0.288 0.2,0.2 0 0 0 0.093,0.062 z m 0.176,-0.295 a 0.128,0.128 0 0 1 0.049,0.04 v 0 c 0.024,0.025 0.032,0.041 0.024,0.055 0,-0.013 0,-0.027 -0.024,-0.049 A 0.134,0.134 0 0 0 14.322,9.512 c 0.011,0.005 0.022,0 0.032,0.005 z m -0.157,0.045 a 0.151,0.151 0 0 0 -0.017,0.02 v 0 c 0.002,-0.011 0.012,-0.013 0.02,-0.02 z m -0.934,1.193 v -0.01 C 11.95,9.732 11.642,9.475 11.694,9.439 c 0.052,-0.036 0.113,-0.02 0.219,0.032 0.084,0.04 0.152,0.058 0.15,0.038 -0.008,-0.1 -0.254,-0.148 -0.887,-0.165 a 4.369,4.369 0 0 1 -0.443,-0.026 0.634,0.634 0 0 0 -0.253,0 c -0.011,0.013 0.01,0.022 0.049,0.02 0.039,-0.002 0.067,0.011 0.063,0.032 -0.004,0.021 1.266,1.073 3.455,2.826 a 4.016,4.016 0 0 1 0.524,0.459 41.2,41.2 0 0 1 -3.409,-2.7 8.121,8.121 0 0 0 -0.8,-0.6 c -0.045,0 0.115,0.139 1.355,1.148 l 1.073,0.874 1.14,0.928 c 0.326,0.266 0.54,0.46 0.479,0.434 -0.111,-0.047 -1.005,-0.762 -3.069,-2.456 -0.986,-0.809 -1.082,-0.9 -1.021,-0.954 0.061,-0.054 0.063,-0.059 0,-0.054 a 0.124,0.124 0 0 0 -0.094,0.054 c -0.016,0.036 -0.032,0.037 -0.057,0 A 0.2,0.2 0 0 0 10.041,9.273 C 9.988,9.273 9.959,9.28 9.973,9.3 9.987,9.32 9.981,9.341 9.957,9.341 A 0.041,0.041 0 0 1 9.91,9.311 C 9.91,9.291 9.869,9.266 9.82,9.26 9.771,9.254 9.736,9.26 9.739,9.287 9.742,9.314 9.721,9.317 9.685,9.294 9.597,9.237 9.467,9.209 9.501,9.255 c 0.034,0.046 0,0.053 -0.122,-0.01 A 1.019,1.019 0 0 0 9.033,9.19 c -0.135,0 -0.27,-0.008 -0.4,-0.02 -0.081,-0.01 -0.139,0 -0.127,0.028 0.047,0.1 4.49,3.946 4.6,3.98 a 1.135,1.135 0 0 0 0.175,0.025 l 0.235,0.017 c 0.082,0.007 0.278,0.012 0.435,0.011 0.267,0 0.292,-0.008 0.408,-0.13 a 3.264,3.264 0 0 0 0.325,-0.51 l 0.2,-0.379 -0.331,-0.271 Q 13.763,11.308 12.961,10.69 A 14.045,14.045 0 0 1 11.423,9.455 c 0,-0.011 0.059,0.02 0.131,0.07 0.163,0.112 2.64,2.041 3.061,2.377 a 3.007,3.007 0 0 0 0.328,0.245 c 0.084,-0.009 -0.235,-0.276 -1.68,-1.392 z M 9.48,9.984 A 11.12,11.12 0 0 1 8.607,9.19 c 0.023,0 0.8,0.642 1.714,1.429 l 2.906,2.551 C 13.172,13.177 12.359,12.461 9.48,9.984 Z M 8.924,9.307 v 0 c -0.263,-0.3 0.221,0.1 2.292,1.869 l 2.277,2 C 13.479,13.193 9.1,9.506 8.924,9.307 Z M 11.351,11.2 9.079,9.229 c 0.044,0.021 1.139,0.918 2.422,2 1.283,1.082 2.3,1.967 2.27,1.971 -0.03,0.004 -1.127,-0.894 -2.42,-2 z m 2.042,1.515 H 13.386 L 9.377,9.337 9.287,9.251 9.375,9.292 C 9.423,9.316 10.493,10.2 11.75,11.26 L 14,13.189 A 6.034,6.034 0 0 1 13.393,12.715 Z M 11.863,11.25 H 11.854 L 9.544,9.282 a 6.415,6.415 0 0 1 0.618,0.471 c 1.447,1.181 4.056,3.376 4.018,3.376 -0.038,0 -0.369,-0.26 -2.317,-1.879 z M 10.845,10.213 H 10.834 C 10.242,9.713 9.775,9.307 9.798,9.304 a 9.291,9.291 0 0 1 0.8,0.629 l 3.588,2.959 c 0.1,0.076 0.155,0.14 0.125,0.143 -0.049,0.003 -1.626,-1.277 -3.466,-2.822 z m 1.085,0.715 h -0.017 l -1.9,-1.6 c 0.024,0 0.721,0.548 1.548,1.224 1.967,1.6 2.857,2.347 2.839,2.377 a 31.628,31.628 0 0 1 -2.47,-2.001 z m 0.841,0.136 h -0.009 -0.007 l -0.774,-0.623 c -1.066,-0.853 -1.327,-1.078 -1.232,-1.08 0.055,0 0.09,0.011 0.083,0.027 -0.007,0.016 0.635,0.547 1.429,1.181 1.531,1.224 2.381,1.915 2.383,1.951 0.002,0.036 -0.653,-0.479 -1.873,-1.456 z m 1.9,1.332 h -0.012 c -0.032,-0.033 -0.345,-0.285 -0.7,-0.559 l -2.95,-2.348 c -0.1,-0.085 -0.112,-0.1 -0.043,-0.077 0.052,0.022 0.44,0.314 0.864,0.649 l 2.755,2.186 a 0.355,0.355 0 0 1 0.129,0.153 c 0.018,0.041 0.004,0.041 -0.038,0 z M 13.02,10.814 h -0.011 c 1.531,1.2 1.837,1.446 1.76,1.452 -0.02,0 -0.673,-0.511 -2.112,-1.643 -1.5,-1.184 -1.531,-1.215 -1.429,-1.217 0.051,0 0.085,0.013 0.077,0.029 -0.008,0.016 0.767,0.637 1.715,1.379 z m 2.889,1.234 0.172,0.157 c 0.1,0.094 0.2,0.16 0.2,0.147 0,-0.013 0.01,-0.026 0,-0.03 -0.01,-0.004 -0.1,-0.072 -0.2,-0.149 z M 12.129,9.6 v 0 C 12.11,9.619 12.041,9.59 11.967,9.539 11.767,9.398 11.708,9.439 11.9,9.58 c 0.787,0.592 3.084,2.392 3.106,2.433 0.022,0.041 0.021,0.01 0.011,-0.041 A 11.511,11.511 0 0 0 13.57,10.786 15.188,15.188 0 0 1 12.148,9.628 C 12.152,9.593 12.147,9.581 12.129,9.6 Z m 8.171,5.852 v 0 a 0.079,0.079 0 0 1 0.062,-0.052 2.358,2.358 0 0 0 0.391,-0.25 c 0.189,-0.134 0.382,-0.264 0.429,-0.286 a 5.012,5.012 0 0 0 0.732,-0.538 0.347,0.347 0 0 0 0.008,-0.424 c -0.075,-0.08 -3.657,-2.711 -4.849,-3.56 A 2.362,2.362 0 0 1 16.664,10.011 C 16.664,9.986 16.649,9.917 16.641,9.858 16.613,9.645 16.496,9.568 16.071,9.484 15.853,9.44 15.718,9.359 14.999,8.839 14.099,8.187 14.04,8.153 13.866,8.165 13.724,8.176 13.673,8.206 12.852,8.765 L 12.22,9.2 11.22,9.127 8.16,8.9 5.848,8.768 A 1.518,1.518 0 0 0 5.439,8.861 1.434,1.434 0 0 0 5.156,9.039 c -0.123,0.1 -1.411,1.3 -2.536,2.347 -0.6,0.556 -0.688,0.688 -0.6,0.84 a 4.866,4.866 0 0 1 0.153,0.584 3.281,3.281 0 0 0 0.163,0.573 0.641,0.641 0 0 0 0.2,0.1 1.257,1.257 0 0 1 0.3,0.161 0.722,0.722 0 0 0 0.272,0.127 l 3.714,0.408 4.279,0.474 c 2.143,0.244 2.857,0.3 2.851,0.193 0,-0.026 0.067,-0.054 0.155,-0.061 A 1.151,1.151 0 0 0 14.72,14.561 9.27,9.27 0 0 0 15.7,12.9 c 0.129,-0.282 0.133,-0.306 0.057,-0.394 a 0.378,0.378 0 0 0 -0.146,-0.12 c -0.057,-0.016 -0.059,-0.01 -0.01,0.04 0.068,0.07 0.006,0.089 -0.071,0.022 -0.056,-0.048 -0.174,0.074 -0.376,0.391 -0.119,0.187 -0.2,0.225 -0.17,0.075 a 0.31,0.31 0 0 1 0.051,-0.123 2.867,2.867 0 0 0 0.2,-0.347 l 0.173,-0.326 0.419,0.316 1.122,0.867 1.051,0.821 1.194,0.932 a 7.874,7.874 0 0 0 0.924,0.666 c 0.251,0 0.357,-0.057 0.888,-0.482 0.786,-0.625 0.891,-0.748 0.274,-0.316 -1.136,0.8 -1.074,0.781 -1.588,0.4 -0.2,-0.148 -0.5,-0.383 -0.66,-0.521 Q 18.059,13.993 17.06,13.215 C 16.876,13.077 16.697,12.932 16.525,12.78 a 26.226,26.226 0 0 1 2.575,1.906 c 0.863,0.682 1.176,0.878 1.2,0.766 z m 1.436,-1.447 v 0 C 21.65,13.89 21.665,13.862 21.767,13.941 a 0.284,0.284 0 0 1 0.1,0.169 c 0,0.077 -0.055,0.147 -0.265,0.306 a 6.675,6.675 0 0 1 -0.816,0.547 c 0,-0.008 0.2,-0.182 0.46,-0.385 0.543,-0.432 0.571,-0.467 0.493,-0.573 z m -0.688,0.347 -0.122,0.144 c -0.153,0.18 -0.257,0.189 -0.408,0.035 -0.151,-0.154 -0.15,-0.17 -0.021,-0.291 0.129,-0.121 0.235,-0.129 0.409,0 z m -0.241,-0.673 a 4.076,4.076 0 0 1 -0.684,0.516 c -0.03,-0.023 0.155,-0.182 0.437,-0.375 0.255,-0.171 0.247,-0.171 0.25,-0.141 z m -0.27,-0.308 v 0 a 0.028,0.028 0 0 0 0.031,-0.026 v -0.009 c 0,-0.053 0.041,-0.056 0.125,-0.01 0.061,0.034 0.061,0.043 0.007,0.086 -0.074,0.059 -0.237,0.055 -0.213,0 a 0.052,0.052 0 0 1 0.053,-0.041 z m -0.111,0.446 v 0 a 1.156,1.156 0 0 1 -0.193,-0.112 c -0.094,-0.064 -0.143,-0.117 -0.109,-0.12 a 0.422,0.422 0 0 1 0.194,0.112 c 0.075,0.064 0.125,0.119 0.111,0.12 z m -0.209,-0.774 h 0.005 l 0.136,0.094 -0.15,-0.028 a 0.615,0.615 0 0 1 -0.219,-0.088 c -0.119,-0.104 0.077,-0.086 0.231,0.022 z m -0.178,0.771 v 0 a 0.165,0.165 0 0 1 0.057,0.076 c 0,0.047 -0.162,0.006 -0.221,-0.055 -0.043,-0.044 -0.037,-0.056 0.027,-0.062 a 0.216,0.216 0 0 1 0.14,0.041 z m -0.494,0.247 h 0.005 a 0.557,0.557 0 0 1 0.215,0.132 c 0.085,0.078 0.148,0.153 0.134,0.17 -0.014,0.017 -0.111,-0.045 -0.217,-0.135 -0.106,-0.09 -0.158,-0.163 -0.134,-0.167 z m -0.157,0.324 v 0 c -0.157,-0.02 -0.168,-0.026 -0.135,-0.092 0.025,-0.048 0.307,-0.048 0.361,0 0.054,0.048 -0.106,0.107 -0.223,0.092 z m 0.424,-0.287 v 0 a 0.522,0.522 0 0 1 -0.139,-0.142 c 0,-0.017 0.059,0.022 0.134,0.086 a 0.6,0.6 0 0 1 0.139,0.141 C 19.947,14.2 19.89,14.158 19.815,14.1 Z m -0.164,-0.412 0.057,-0.141 c 0.062,-0.15 0.074,-0.163 0.113,-0.108 0.014,0.019 -0.019,0.082 -0.072,0.142 z m 0.217,-0.294 v 0 a 0.314,0.314 0 0 1 -0.221,-0.13 c -0.022,-0.051 -0.013,-0.057 0.052,-0.031 a 0.5,0.5 0 0 1 0.139,0.1 c 0.035,0.032 0.049,0.06 0.033,0.061 z m -0.2,-0.763 v 0 c 0.135,0.061 0.136,0.063 0.04,0.086 a 0.234,0.234 0 0 1 -0.2,-0.057 C 19.4,12.557 19.47,12.543 19.666,12.629 Z m -0.287,0.762 a 0.354,0.354 0 0 1 0.171,0.07 c 0.1,0.073 0.1,0.075 0.021,0.083 A 0.259,0.259 0 0 1 19.397,13.475 C 19.339,13.411 19.335,13.4 19.379,13.391 Z M 19.231,13.22 c -0.16,0.14 -0.262,0.168 -0.361,0.1 -0.099,-0.068 -0.085,-0.059 0,-0.027 a 0.289,0.289 0 0 0 0.351,-0.194 c 0.048,-0.151 0.054,-0.155 0.092,-0.051 0.021,0.052 -0.008,0.111 -0.081,0.172 z m -0.318,0.785 h -0.005 a 1.131,1.131 0 0 1 -0.14,-0.128 c 0,-0.038 0.122,-0.016 0.16,0.027 a 0.561,0.561 0 0 1 0.082,0.132 c 0.035,0.064 0.018,0.058 -0.096,-0.031 z m 0.11,-0.945 c 0.061,0.035 0.112,0.079 0.113,0.1 v 0 c 0,0.072 -0.112,0.045 -0.218,-0.051 -0.106,-0.096 -0.061,-0.139 0.106,-0.049 z m 0.121,-0.8 h -0.006 c 0.138,0.07 0.2,0.156 0.112,0.164 -0.068,0 -0.356,-0.174 -0.33,-0.2 0.026,-0.026 0.067,-0.047 0.225,0.032 z m -1.171,-1.15 v 0 l 0.793,0.585 c 0.195,0.157 0.175,0.147 -0.088,-0.043 l -0.5,-0.346 a 5.2,5.2 0 0 1 -0.454,-0.339 c -0.188,-0.16 -0.101,-0.11 0.25,0.139 z m 0.595,0.771 v 0 c 0,0.051 -0.112,0.061 -0.233,0.018 -0.071,-0.023 -0.056,-0.032 0.071,-0.045 0.094,-0.013 0.162,-10e-4 0.163,0.023 z m -0.55,-0.463 v 0 a 0.179,0.179 0 0 1 -0.22,0.126 v 0 a 0.14,0.14 0 0 1 -0.035,-0.01 c -0.092,-0.037 -0.092,-0.039 -0.012,-0.049 a 0.353,0.353 0 0 0 0.161,-0.082 c 0.107,-0.103 0.153,-0.103 0.107,0.011 z m -0.478,-0.39 v 0 a 0.142,0.142 0 0 1 -0.1,0.051 0.163,0.163 0 0 0 -0.117,0.083 c -0.034,0.072 -0.038,0.07 -0.046,-0.01 a 0.211,0.211 0 0 1 0.018,-0.119 c 0.04,-0.053 0.27,-0.059 0.246,-0.009 z m -0.32,-0.227 c 0.073,0 0.073,0 -0.01,0.025 -0.051,0.014 -0.091,0.044 -0.09,0.065 10e-4,0.021 -0.03,0.042 -0.071,0.044 -0.067,0 -0.067,0 0,-0.063 A 0.318,0.318 0 0 1 17.221,10.8 Z m -0.525,-0.209 v 0 c 0.185,-0.119 0.22,-0.129 0.313,-0.078 0.057,0.031 0.055,0.037 -0.01,0.042 a 0.638,0.638 0 0 0 -0.2,0.084 0.373,0.373 0 0 1 -0.194,0.066 C 16.555,10.7 16.579,10.661 16.7,10.588 Z m 0.163,0.419 v 0 a 0.385,0.385 0 0 1 0.062,0.511 0.508,0.508 0 0 1 -0.5,0.124 c -0.164,-0.068 -0.225,-0.057 -0.332,0.059 -0.069,0.078 -0.092,0.086 -0.1,0.036 a 0.263,0.263 0 0 1 0.073,-0.151 0.263,0.263 0 0 0 0.055,-0.253 c -0.021,-0.151 -0.01,-0.182 0.112,-0.28 a 0.51,0.51 0 0 1 0.631,-0.05 z m 0.049,1.226 0.123,-0.015 -0.1,0.069 c -0.115,0.079 -0.29,0.107 -0.3,0.048 -0.01,-0.059 0.105,-0.091 0.278,-0.106 z m -0.579,-0.452 c 0.015,0.013 -0.02,0.077 -0.076,0.144 -0.056,0.067 -0.1,0.1 -0.108,0.078 0.001,-0.063 0.146,-0.242 0.185,-0.226 z M 16.074,9.612 a 0.548,0.548 0 0 1 0.239,0.077 0.4,0.4 0 0 1 0.172,0.158 C 16.5,9.903 16.476,9.896 16.377,9.816 A 1.092,1.092 0 0 0 16.115,9.668 C 16.008,9.626 16,9.617 16.075,9.608 Z m 0.056,0.373 v 0 a 0.421,0.421 0 0 1 0.184,0.306 c 0.015,0.184 -0.037,0.367 -0.1,0.372 -0.04,0 -0.041,-0.009 0,-0.051 A 0.487,0.487 0 0 0 16.245,10.356 0.429,0.429 0 0 0 16.11,10.037 0.777,0.777 0 0 0 15.659,9.811 c -0.032,0 -0.05,-0.014 -0.037,-0.038 0.032,-0.079 0.324,0.041 0.509,0.208 z m -0.159,0.824 a 0.163,0.163 0 0 1 -0.089,-0.074 c -0.029,-0.045 -0.037,-0.082 -0.019,-0.084 0.018,-0.002 0.061,0.034 0.094,0.078 0.033,0.044 0.037,0.071 0.015,0.076 z m -0.612,-0.233 v 0 c 0.082,0.008 0.068,0.015 -0.049,0.03 a 0.2,0.2 0 0 1 -0.255,-0.134 0.209,0.209 0 0 1 -0.008,-0.082 0.287,0.287 0 0 1 0.18,-0.245 c 0.037,0 0.031,0.026 -0.021,0.088 -0.144,0.167 -0.072,0.315 0.154,0.339 z M 15.27,10.39 h 0.006 a 0.332,0.332 0 0 1 0.2,-0.088 l 0.134,-0.008 -0.154,0.1 C 15.271,10.5 15.176,10.5 15.271,10.386 Z m 0.211,-0.616 v 0 h -0.006 c -0.076,0.016 -0.076,0.014 0,-0.033 0.164,-0.1 -0.5,0.026 -0.7,0.131 a 0.655,0.655 0 0 0 -0.36,0.7 c 0.007,0.264 0,0.287 -0.058,0.221 a 0.694,0.694 0 0 1 -0.058,-0.5 1.042,1.042 0 0 1 0.755,-0.643 0.718,0.718 0 0 1 0.423,-0.017 C 15.6,9.656 15.6,9.743 15.482,9.77 Z m -0.3,-0.5 v 0 a 0.12,0.12 0 0 1 0.1,0.045 C 15.307,9.383 15.132,9.467 15.017,9.447 14.865,9.411 15,9.267 15.182,9.265 Z M 13.774,8.456 a 0.134,0.134 0 0 1 0.184,-0.047 v 0 a 0.137,0.137 0 0 1 0.066,0.1 c 0.021,0.1 0.01,0.117 -0.109,0.126 C 13.774,8.646 13.705,8.554 13.78,8.452 Z M 13.351,8.842 H 13.344 C 13.584,8.697 13.579,8.7 13.581,8.73 a 1.859,1.859 0 0 1 -0.409,0.306 c -0.088,0.001 -0.009,-0.091 0.18,-0.203 z m -0.642,0.323 a 0.16,0.16 0 0 1 0.225,0 0.144,0.144 0 0 1 0.018,0.025 C 12.993,9.244 12.989,9.278 12.938,9.338 12.887,9.398 12.852,9.413 12.76,9.38 12.638,9.331 12.614,9.237 12.715,9.165 Z M 3.705,13.611 A 2.328,2.328 0 0 1 2.98,13.474 0.394,0.394 0 0 0 2.809,13.402 0.1,0.1 0 0 1 2.722,13.365 C 2.706,13.341 2.767,13.348 2.86,13.381 a 2.189,2.189 0 0 0 0.319,0.08 l 0.66,0.1 A 2.407,2.407 0 0 1 4.33,13.655 4.5,4.5 0 0 1 3.705,13.611 Z m 3.492,0.074 v 0 a 4.557,4.557 0 0 1 -1.392,-0.2 0.226,0.226 0 0 1 -0.01,-0.316 l 0.01,-0.013 c 0.088,-0.073 0.374,-0.063 1.23,0.041 0.455,0.055 0.527,0.09 0.541,0.258 C 7.59,13.623 7.472,13.7 7.2,13.685 Z m 0.952,0.353 A 0.128,0.128 0 0 1 8.055,13.993 2.733,2.733 0 0 1 7.933,13.099 1.429,1.429 0 0 1 8.007,13.538 c 0.028,0.356 0.046,0.426 0.111,0.457 0.043,0.021 0.056,0.04 0.031,0.043 z m 2.517,0.038 v 0 a 0.707,0.707 0 0 1 -0.469,-0.071 0.466,0.466 0 0 1 -0.021,-0.388 c 0.045,-0.077 0.085,-0.093 0.2,-0.084 a 0.813,0.813 0 0 1 0.255,0.07 c 0.086,0.047 0.11,0.1 0.122,0.247 0.021,0.169 0.015,0.198 -0.087,0.226 z m 0.861,0.291 v 0 c -0.026,0 -0.054,-0.173 -0.073,-0.453 -0.028,-0.432 -0.027,-0.441 0.023,-0.183 0.031,0.15 0.063,0.353 0.073,0.452 0.01,0.099 0,0.184 -0.023,0.184 z m 1.718,-0.114 v 0 c -0.112,0.133 -0.257,0.151 -0.7,0.094 -0.443,-0.057 -0.588,-0.138 -0.653,-0.387 -0.023,-0.091 0.16,-0.276 0.283,-0.285 a 4.646,4.646 0 0 1 0.5,0.03 c 0.425,0.042 0.581,0.123 0.63,0.32 a 0.225,0.225 0 0 1 -0.06,0.228 z m 1.191,-0.517 c -0.024,0.243 -0.083,0.332 -0.08,0.12 0,-0.169 0.032,-0.276 0.076,-0.279 a 0.4,0.4 0 0 1 0.004,0.159 z m 0.318,-0.6 c -0.2,0.227 -0.213,0.253 -0.188,0.419 0.017,0.1 0.01,0.175 -0.017,0.177 -0.027,0.002 -0.049,-0.04 -0.053,-0.094 -0.007,-0.1 -0.014,-0.1 -0.484,-0.057 a 4.441,4.441 0 0 1 -0.971,-0.017 l -1.248,-0.138 -0.15,-0.014 0.055,0.517 a 1.554,1.554 0 0 1 0.017,0.486 2.574,2.574 0 0 1 -0.1,-0.523 l -0.061,-0.49 -0.28,-0.035 c -0.253,-0.031 -0.612,-0.065 -2.6,-0.248 a 6.911,6.911 0 0 1 -0.732,-0.1 l -0.128,-0.041 0.1,-0.041 0.116,-0.046 c 0.006,0 0,0.016 -0.01,0.041 -0.01,0.025 0.03,0.042 0.1,0.041 A 1.027,1.027 0 0 1 8.433,13 c 0.036,0.011 0.529,0.062 1.1,0.113 l 1.569,0.153 1.311,0.129 1.083,0.1 c 0.352,0.041 0.6,0.031 0.625,-0.026 A 0.453,0.453 0 0 1 14.3,13.4 c 0.13,-0.03 0.216,-0.1 0.384,-0.3 0.119,-0.142 0.231,-0.245 0.249,-0.229 0.018,0.016 -0.061,0.138 -0.179,0.27 z m -0.307,0.039 -0.008,0.006 c -0.126,0.1 -0.172,0.112 -0.533,0.125 -0.217,0.007 -0.816,-0.031 -1.341,-0.087 L 10.395,13.002 7.428,12.702 4.075,12.36 C 3.188,12.268 2.422,12.178 2.369,12.155 c -0.053,-0.023 -0.1,-0.019 -0.117,0 -0.048,0.057 0.153,0.124 0.48,0.162 l 4.807,0.51 c 0.091,0.008 0.157,0.025 0.145,0.038 a 2.809,2.809 0 0 1 -0.51,-0.026 c -0.7,-0.07 -0.76,-0.041 -0.087,0.043 a 3.357,3.357 0 0 1 0.621,0.112 2.05,2.05 0 0 1 0.106,0.542 c 0.043,0.37 0.044,0.444 0,0.288 a 4.361,4.361 0 0 1 -0.08,-0.495 c -0.03,-0.337 0,-0.318 -0.678,-0.4 C 6.306,12.837 6.186,12.817 6.24,12.782 6.265,12.762 6.107,12.731 5.886,12.707 Q 4.261,12.542 2.634,12.391 C 2.226,12.361 2.109,12.238 2.246,11.984 2.304,11.872 4.994,9.318 5.314,9.067 5.634,8.816 5.63,8.814 7.855,8.981 L 10.84,9.2 c 1.1,0.078 1.326,0.1 1.317,0.159 -0.008,0.036 0.024,0.014 0.07,-0.049 0.074,-0.1 0.083,-0.1 0.072,-0.026 -0.049,0.335 -0.056,0.316 0.173,0.524 0.121,0.113 0.511,0.419 0.856,0.688 a 11.4,11.4 0 0 1 1.792,1.457 3.88,3.88 0 0 1 -0.673,1.227 z m 3.6,0.579 V 13.748 L 15.89,12.11 14.496,11.039 c -0.466,-0.356 -0.891,-0.692 -0.945,-0.75 l -0.1,-0.1 0.2,-0.162 a 1.057,1.057 0 0 1 0.278,-0.174 c 0.064,-0.01 0.067,-0.028 0.022,-0.124 a 0.307,0.307 0 0 1 0.128,-0.383 0.552,0.552 0 0 1 0.525,0.042 c 0.147,0.118 0.145,0.21 -0.006,0.36 -0.2,0.2 -0.293,0.237 -0.416,0.171 -0.1,-0.053 -0.12,-0.051 -0.266,0.03 -0.2,0.11 -0.306,0.247 -0.264,0.338 a 0.646,0.646 0 0 0 0.227,0.163 0.914,0.914 0 0 1 0.29,0.226 0.423,0.423 0 0 0 0.272,0.19 3.76,3.76 0 0 1 0.4,0.2 1.091,1.091 0 0 0 0.525,0.129 2.768,2.768 0 0 0 0.9,-0.44 0.632,0.632 0 0 0 0.161,-0.545 c -0.021,-0.086 -0.015,-0.112 0.019,-0.083 0.077,0.064 0.068,0.37 -0.014,0.531 a 1.063,1.063 0 0 1 -0.593,0.46 c -0.117,0.037 -0.233,0.075 -0.349,0.114 a 0.765,0.765 0 0 1 -0.551,0.017 C 14.867,11.22 14.81,11.204 14.811,11.214 a 3.807,3.807 0 0 0 0.374,0.269 4.315,4.315 0 0 1 0.525,0.408 c 0.116,0.119 0.227,0.183 0.221,0.141 l -0.011,-0.009 0.01,0.006 A 0.078,0.078 0 0 0 15.911,12 a 1.607,1.607 0 0 1 0.325,0.224 c 0.408,0.306 0.51,0.36 0.663,0.347 0.119,-0.008 0.306,-0.194 0.3,-0.292 A 0.349,0.349 0 0 0 17.09,12.123 c -0.274,-0.255 -0.285,-0.306 -0.024,-0.117 a 0.476,0.476 0 0 0 0.563,0.064 c 0.173,-0.133 0.091,-0.357 -0.185,-0.5 -0.08,-0.042 -0.252,-0.212 -0.217,-0.216 a 2.476,2.476 0 0 1 0.306,0.19 c 0.232,0.157 0.306,0.188 0.451,0.177 a 0.364,0.364 0 0 0 0.261,-0.114 c 0.09,-0.1 0.091,-0.1 0.1,-0.013 0.009,0.087 -0.138,0.188 -0.369,0.224 -0.2,0.03 -0.168,0.153 0.057,0.17 a 0.493,0.493 0 0 1 0.244,0.092 0.408,0.408 0 0 0 0.5,-0.036 c 0.057,-0.053 0.12,-0.077 0.153,-0.061 0.058,0.031 -0.019,0.1 -0.535,0.473 -0.128,0.092 -0.374,0.289 -0.549,0.438 -0.278,0.235 -0.331,0.265 -0.408,0.229 -0.218,-0.094 0.275,0.316 1.312,1.092 0.271,0.2 0.618,0.471 0.77,0.6 a 4.411,4.411 0 0 0 0.541,0.369 c 0.2,0.108 0.24,0.143 0.164,0.146 -0.113,0 -0.4,-0.194 -1.167,-0.8 q -0.503,-0.393 -1.01,-0.771 z m -3.961,-3.55 c -0.11,0.092 -0.28,0.115 -0.275,0.038 a 0.2,0.2 0 0 1 0.213,-0.18 0.2,0.2 0 0 1 0.093,0.033 c 0.049,0.031 0.042,0.054 -0.03,0.114 z m 1.493,1.253 c -0.17,0.086 -0.186,0.089 -0.191,0.032 -0.007,-0.1 0.3,-0.187 0.358,-0.1 0.041,0.055 -0.112,0.215 -0.214,0.225 -0.041,0 -0.018,-0.034 0.061,-0.091 0.175,-0.123 0.164,-0.154 -0.013,-0.061 z m 1.671,0.391 c 0,-0.048 0.126,-0.059 0.2,-0.017 0.046,0.023 0.041,0.037 -0.017,0.057 -0.087,0.038 -0.178,0.017 -0.182,-0.035 z m 1.288,0.922 c -0.1,-0.084 -0.129,-0.087 -0.248,-0.031 l -0.132,0.061 0.1,-0.091 c 0.127,-0.117 0.156,-0.119 0.284,-0.016 a 0.319,0.319 0 0 1 0.109,0.127 c 0.003,0.027 -0.051,0.003 -0.112,-0.045 z m 0.01,0.846 c -0.093,0.018 -0.22,-0.043 -0.229,-0.106 v 0 c 0,-0.023 0.069,-0.01 0.158,0.022 0.144,0.059 0.153,0.068 0.072,0.089 z m -0.5,-0.313 c -0.122,-0.034 -0.306,-0.136 -0.306,-0.179 -0.008,-0.069 0.114,-0.034 0.262,0.077 0.148,0.111 0.144,0.125 0.046,0.107 z M 17.631,12.9 v 0 c 0.132,-0.122 0.123,-0.235 -0.027,-0.387 -0.15,-0.152 -0.112,-0.192 0.083,-0.046 0.195,0.146 0.378,0.146 0.51,-0.013 a 0.338,0.338 0 0 0 0.09,-0.177 c -0.009,-0.123 -0.179,-0.223 -0.352,-0.2 a 0.469,0.469 0 0 0 -0.264,0.1 c -0.1,0.1 -0.276,0.139 -0.282,0.07 0,-0.02 -0.046,-0.045 -0.1,-0.053 -0.085,-0.014 -0.088,-0.011 -0.023,0.031 0.065,0.042 0.058,0.066 -0.087,0.231 a 1.444,1.444 0 0 1 -0.225,0.217 c -0.047,0.022 -0.015,0.067 0.131,0.188 0.224,0.182 0.381,0.192 0.546,0.039 z m 0.168,-0.554 c 0.078,0.025 0.376,-0.09 0.332,-0.135 v 0 c 0.052,0.04 -0.254,0.16 -0.333,0.136 -0.028,-0.005 -0.039,-0.014 -0.035,-0.028 -0.003,0.015 0.009,0.023 0.037,0.028 z m -0.475,0.374 v 0 0 c -0.006,0.012 0.007,0.017 0.018,0.022 -0.009,-0.009 -0.023,-0.013 -0.018,-0.021 z m 0.134,0.026 c 0.084,-0.007 0.139,-0.016 0.136,-0.025 v 0 c 0.01,0.007 -0.052,0.019 -0.139,0.026 a 0.4,0.4 0 0 1 -0.1,0 0.472,0.472 0 0 0 0.103,0 z m -0.995,-1.208 v 0 c 0.263,0.049 0.444,-0.051 0.429,-0.24 -0.015,-0.189 -0.112,-0.26 -0.345,-0.263 -0.17,0 -0.223,0.013 -0.277,0.085 -0.132,0.172 -0.038,0.369 0.193,0.418 z m 0.075,-0.352 v 0 a 0.41,0.41 0 0 1 0.16,0.116 c 0.011,0.023 0.011,0.038 0,0.047 0.006,-0.009 0.006,-0.022 0,-0.043 a 0.408,0.408 0 0 0 -0.16,-0.115 c -0.107,-0.05 -0.171,-0.064 -0.193,-0.053 0.011,-0.016 0.076,-0.006 0.193,0.048 z m 4.016,3.126 a 0.081,0.081 0 0 0 -0.048,0.068 c 0,0.02 0.034,0.022 0.072,0 0.038,-0.022 0.059,-0.016 0.039,0.024 -0.049,0.1 0.076,0.122 0.183,0.04 0.107,-0.082 0.094,-0.079 0.018,-0.126 a 0.255,0.255 0 0 0 -0.264,-0.006 z"/></svg>