<svg xmlns="http://www.w3.org/2000/svg" viewBox="0 0 24 24"><path fill="#44739e" d="M9.519 10.026a1.37 1.37 0 0 0-.947-.34 10 10 0 0 0-2.44 0c-.71.09-.88.17-1.04.49a9 9 0 0 0-.171 3.052c.071.64.14.832.351 1.053.26.26.29.26 1.84.29 2.669.06 2.736-.02 2.7-2.6-.033-1.655-.033-1.685-.293-1.945m-1.31.98c.4.032.471.06.5.25.031.21 0 .231-.47.231s-.51-.021-.51-.261.02-.25.48-.22m-1.758-.22a.63.63 0 0 1 .4.171c.22.2.229.369.02.569-.3.3-.94.106-.94-.289a.58.58 0 0 1 .52-.451m1.052 2.671a1.54 1.54 0 0 1-1.069-.241c-.3-.15-.56-.358-.58-.46-.04-.211-.03-.211.39 0a3.05 3.05 0 0 0 2.13.05c.43-.189.46-.2.46-.029-.005.249-.714.621-1.331.678ZM12 2H2v20h20V2Zm-1.66 12.9c-.379.449-.86.526-2.989.526-2.106 0-2.56-.08-2.99-.519-.37-.39-.501-1.361-.432-3.461.08-2.78.2-2.86 3.771-2.809a5.6 5.6 0 0 1 2.24.21 1.1 1.1 0 0 1 .591.639 5.6 5.6 0 0 1 .21 2.316c.008 2.147-.061 2.687-.4 3.098m4.76-3.549v.449h-.8v1.895h.3c.251 0 .3.049.391.369.12.421.039.527-.441.54-1.2.051-1.48-.329-1.439-1.94l.019-.82-.31-.029c-.31-.031-.316-.051-.316-.47s.011-.441.331-.47c.321-.03.316-.051.349-.49s.04-.47.451-.561c.689-.169.669-.179.669.471v.6h.8Zm4.14-.231c-.04.12-.329.92-.64 1.78l-.579 1.551-.589.029-.6.031-.611-1.631c-.331-.9-.631-1.711-.671-1.809-.07-.162-.019-.182.51-.151l.59.031.39 1.2c.211.658.411 1.129.44 1.052.032-.077.2-.62.37-1.2l.315-1.052.58-.031c.555-.031.566-.02.495.2"/></svg>