<svg xmlns="http://www.w3.org/2000/svg" viewBox="0 0 24 24"><path fill="#44739e" d="M12 2a10 10 0 1 0 10 10A10 10 0 0 0 12 2m4.635 6.8c-.15 1.581-.8 5.418-1.133 7.189-.14.75-.416 1-.683 1.026-.581.053-1.022-.384-1.584-.753-.881-.577-1.378-.936-2.232-1.5-.987-.651-.347-1.008.215-1.593.148-.153 2.706-2.48 2.756-2.691a.2.2 0 0 0-.047-.177.23.23 0 0 0-.207-.02q-.132.03-4.218 2.788a1.9 1.9 0 0 1-1.084.4 7 7 0 0 1-1.555-.369c-.626-.2-1.124-.312-1.081-.657q.034-.27.744-.553 4.374-1.9 5.832-2.512c2.777-1.155 3.354-1.356 3.731-1.362a.66.66 0 0 1 .387.116.42.42 0 0 1 .142.271 1.7 1.7 0 0 1 .017.394"/></svg>