<?xml version="1.0" encoding="UTF-8"?>
<svg width="24px" fill="#44739e" height="24px" viewBox="0 0 24 24" version="1.1" xmlns="http://www.w3.org/2000/svg" xmlns:xlink="http://www.w3.org/1999/xlink">
            <path d="M 12,2 A 10,10 0 1 0 22,12 10,10 0 0 0 12,2 m 4.635,6.8 c -0.15,1.581 -0.8,5.418 -1.133,7.189 -0.14,0.75 -0.416,1 -0.683,1.026 -0.581,0.053 -1.022,-0.384 -1.584,-0.753 -0.881,-0.577 -1.378,-0.936 -2.232,-1.5 -0.987,-0.651 -0.347,-1.008 0.215,-1.593 0.148,-0.153 2.706,-2.48 2.756,-2.691 a 0.2,0.2 0 0 0 -0.047,-0.177 0.231,0.231 0 0 0 -0.207,-0.02 q -0.132,0.03 -4.218,2.788 A 1.9,1.9 0 0 1 8.418,13.469 7.1,7.1 0 0 1 6.863,13.1 C 6.237,12.9 5.739,12.788 5.782,12.443 Q 5.816,12.173 6.526,11.89 10.9,9.99 12.358,9.378 c 2.777,-1.155 3.354,-1.356 3.731,-1.362 a 0.655,0.655 0 0 1 0.387,0.116 0.416,0.416 0 0 1 0.142,0.271 1.73,1.73 0 0 1 0.017,0.394"/>

</svg>