<?xml version="1.0" encoding="UTF-8"?>
<!DOCTYPE svg PUBLIC "-//W3C//DTD SVG 1.1//EN" "http://www.w3.org/Graphics/SVG/1.1/DTD/svg11.dtd">
<svg xmlns="http://www.w3.org/2000/svg" xmlns:xlink="http://www.w3.org/1999/xlink" fill="#44739e" version="1.1" id="mdi-google-home" width="32" height="32" viewBox="0 0 24 24">
<path d="m 9.7249661,10.180457 a 1.3,1.3 0 0 0 -0.9,-0.3230001 9.461,9.461 0 0 0 -2.318,0 c -0.674,0.085 -0.836,0.1610001 -0.988,0.4650001 a 8.539,8.539 0 0 0 -0.162,2.9 c 0.067,0.608 0.133,0.789 0.333,1 0.247,0.247 0.276,0.247 1.748,0.275 2.536,0.057 2.5999999,-0.019 2.5649999,-2.47 -0.031,-1.572 -0.031,-1.6 -0.2779999,-1.847 z m -1.244,0.931 c 0.38,0.029 0.447,0.057 0.475,0.237 0.029,0.2 0,0.219 -0.447,0.219 -0.447,0 -0.484,-0.019 -0.484,-0.247 0,-0.228 0.019,-0.238 0.456,-0.209 z m -1.671,-0.209 a 0.611,0.611 0 0 1 0.38,0.162 c 0.209,0.19 0.218,0.351 0.019,0.541 -0.285,0.285 -0.893,0.1 -0.893,-0.275 a 0.55,0.55 0 0 1 0.494,-0.428 z m 1,2.537 a 1.461,1.461 0 0 1 -1.016,-0.229 c -0.285,-0.142 -0.532,-0.341 -0.551,-0.437 -0.038,-0.2 -0.028,-0.2 0.371,0 a 2.9,2.9 0 0 0 2.023,0.048 c 0.409,-0.181 0.437,-0.19 0.437,-0.028 -0.004,0.237 -0.678,0.589 -1.264,0.644 z M 12.082474,2.5549828 H 2.5824745 V 21.554983 H 21.582474 V 2.5549828 Z m -1.577,12.2550002 c -0.361,0.427 -0.8169995,0.5 -2.8399995,0.5 -2,0 -2.432,-0.076 -2.841,-0.493 -0.351,-0.371 -0.475,-1.293 -0.409,-3.288 0.076,-2.6410002 0.19,-2.7170002 3.582,-2.6690002 a 5.336,5.336 0 0 1 2.1279995,0.2 1.049,1.049 0 0 1 0.561,0.607 5.258,5.258 0 0 1 0.2,2.2000002 c 0.008,2.04 -0.058,2.553 -0.381,2.943 z m 4.522,-3.372 v 0.427 h -0.76 v 1.8 h 0.285 c 0.238,0 0.285,0.047 0.371,0.351 0.114,0.4 0.037,0.5 -0.419,0.513 -1.14,0.048 -1.406,-0.313 -1.367,-1.843 l 0.018,-0.779 -0.294,-0.028 c -0.295,-0.029 -0.3,-0.048 -0.3,-0.446 0,-0.398 0.009,-0.419 0.314,-0.447 0.305,-0.028 0.3,-0.048 0.332,-0.465 0.032,-0.417 0.038,-0.447 0.428,-0.5329998 0.655,-0.1610004 0.636,-0.1700004 0.636,0.4469998 v 0.57 h 0.76 z m 3.933,-0.219 c -0.038,0.114 -0.313,0.874 -0.608,1.691 l -0.551,1.473 -0.56,0.028 -0.57,0.029 -0.58,-1.549 c -0.314,-0.855 -0.6,-1.625 -0.637,-1.719 -0.066,-0.153 -0.018,-0.172 0.485,-0.143 l 0.56,0.029 0.371,1.14 c 0.2,0.626 0.389,1.073 0.418,1 0.029,-0.073 0.19,-0.589 0.351,-1.14 l 0.3,-1 0.551,-0.029 c 0.527,-0.029 0.537,-0.019 0.47,0.19 z" />
</svg>
