<svg xmlns="http://www.w3.org/2000/svg" fill="#44739e" width="24" height="24" viewBox="0 0 24 24">
  <path id="Colore_riempimento_1" data-name="Colore riempimento 1" class="cls-1" d="m 12.79,11.419 -0.1,-0.058 V 7.644 a 0.689,0.689 0 0 0 -1.377,0 V 7.73 h 0.46 a 0.155,0.155 0 1 1 0,0.31 h -0.46 v 0.407 h 0.46 a 0.155,0.155 0 0 1 0,0.31 h -0.46 v 0.407 h 0.46 a 0.155,0.155 0 1 1 0,0.31 h -0.46 v 1.888 l -0.1,0.057 a 1.6,1.6 0 1 0 1.581,0 z M 12,13.987 a 1.179,1.179 0 0 1 -0.583,-2.2 0.621,0.621 0 0 0 0.312,-0.538 V 10.1 a 0.27,0.27 0 0 1 0.54,0 v 1.14 a 0.622,0.622 0 0 0 0.313,0.539 1.179,1.179 0 0 1 -0.583,2.2 z M 18.225,4.216 H 5.776 A 2.671,2.671 0 0 0 3.108,6.883 V 19.332 A 2.671,2.671 0 0 0 5.776,22 h 12.449 a 2.67,2.67 0 0 0 2.667,-2.668 V 6.883 A 2.671,2.671 0 0 0 18.225,4.216 Z m -7.1,16.618 a 0.362,0.362 0 0 1 -0.724,0 v -1.466 a 0.362,0.362 0 0 1 0.724,0 z m 1.235,0 a 0.362,0.362 0 1 1 -0.723,0 v -1.466 a 0.362,0.362 0 0 1 0.723,0 z M 12,17.728 A 0.679,0.679 0 1 1 12.679,17.049 0.679,0.679 0 0 1 12,17.728 Z m 1.6,3.106 a 0.362,0.362 0 1 1 -0.724,0 v -1.466 a 0.362,0.362 0 0 1 0.724,0 z M 12,14.808 A 2,2 0 0 1 10.908,11.137 V 7.644 a 1.091,1.091 0 1 1 2.182,0 v 3.492 A 2,2 0 0 1 12,14.808 Z M 18.225,3.659 A 3.2,3.2 0 0 1 20.057,4.236 2.4,2.4 0 0 0 17.669,2 H 6.331 A 2.4,2.4 0 0 0 3.944,4.236 3.2,3.2 0 0 1 5.776,3.659 Z"/>
</svg>
