<?xml version="1.0" encoding="UTF-8"?>
<svg width="24px" fill="#44739e" height="24px" viewBox="0 0 24 24" version="1.1" xmlns="http://www.w3.org/2000/svg" xmlns:xlink="http://www.w3.org/1999/xlink">
            <path d="m 8.04,7.332 v 3.451 h 3.435 v 2.234 L 8.04,13 v 5.659 a 1.073,1.073 0 0 0 1.073,1.074 h 2.653 v 0.9 A 1.364,1.364 0 0 1 10.4,22 H 8.362 A 2.871,2.871 0 0 1 5.491,19.129 V 7.332 Z m 7.04,1.527 A 3.43,3.43 0 1 1 18.509,5.43 3.433,3.433 0 0 1 15.08,8.859 Z m 0,-5.447 A 2.018,2.018 0 1 0 17.1,5.43 2.02,2.02 0 0 0 15.08,3.412 Z"/>

</svg>