<svg xmlns="http://www.w3.org/2000/svg" viewBox="0 0 24 24"><path fill="#44739e" d="M21.53 12.248c-.34-3.235-1.847-4.746-3.051-5.446a5.7 5.7 0 0 0-1.683-.628c-.992-3-3.388-4.299-5.383-4.165A5.68 5.68 0 0 0 7.54 4.06a5.9 5.9 0 0 0-.886 4.299l-3.267.532a1.108 1.108 0 0 0 .356 2.188l6.057-.987a1.108 1.108 0 1 0-.356-2.187l-.609.1a3.8 3.8 0 0 1 .5-2.742 3.3 3.3 0 0 1 2.236-1.04 3.26 3.26 0 0 1 2.735 1.879 10.5 10.5 0 0 0-1.991.46 1.11 1.11 0 0 0 .716 2.099 5.3 5.3 0 0 1 4.337.062c1.1.64 1.763 1.9 1.958 3.758a4.27 4.27 0 0 1-1.039 2.96 5.2 5.2 0 0 1-3.538 1.526c-.653 1.414-2.312 2.899-3.372 2.811a2.7 2.7 0 0 1-1.825-1.17 4.4 4.4 0 0 1-.834-2.568l.724.119a1.11 1.11 0 0 0 .365-2.189l-6.057-.999a1.109 1.109 0 0 0-.362 2.187l3.123.516a6.66 6.66 0 0 0 1.264 4.254 4.84 4.84 0 0 0 3.444 2.062q.14.01.283.01a5.58 5.58 0 0 0 4.655-3.237l.015.019c1.945-.187 2.622-.453 3.835-1.938a6.44 6.44 0 0 0 1.523-4.596"/></svg>