<?xml version="1.0" encoding="UTF-8" standalone="no"?>
<svg
   width="24px"
   fill="#44739e"
   height="24px"
   viewBox="0 0 24 24"
   version="1.1"
   id="svg1"
   sodipodi:docname="tesla-car-electric.svg"
   inkscape:version="1.3.2 (091e20e, 2023-11-25, custom)"
   xmlns:inkscape="http://www.inkscape.org/namespaces/inkscape"
   xmlns:sodipodi="http://sodipodi.sourceforge.net/DTD/sodipodi-0.dtd"
   xmlns="http://www.w3.org/2000/svg"
   xmlns:svg="http://www.w3.org/2000/svg">
  <defs
     id="defs1" />
  <sodipodi:namedview
     id="namedview1"
     pagecolor="#ffffff"
     bordercolor="#000000"
     borderopacity="0.25"
     inkscape:showpageshadow="2"
     inkscape:pageopacity="0.0"
     inkscape:pagecheckerboard="0"
     inkscape:deskcolor="#d1d1d1"
     showgrid="false"
     inkscape:zoom="22.627417"
     inkscape:cx="0.17677669"
     inkscape:cy="7.4025241"
     inkscape:window-width="2560"
     inkscape:window-height="1377"
     inkscape:window-x="1912"
     inkscape:window-y="-8"
     inkscape:window-maximized="1"
     inkscape:current-layer="layer2" />
  <g
     inkscape:groupmode="layer"
     id="layer2"
     inkscape:label="Layer 1">
    <path
       id="path1"
       d="M 8.6054688 4.9003906 A 3.9 3.9 0 0 0 6.7675781 5.3574219 L 6.3964844 5.5566406 A 2.648 2.648 0 0 0 5.1132812 7.0566406 L 4.5800781 8.6816406 A 2.4 2.4 0 0 1 4.4433594 9 C 4.1353597 8.97 4.2023282 8.8006873 4.2363281 8.5546875 C 4.320328 7.9406881 2.4516404 8.0688911 2.1816406 8.5878906 A 1.106 1.106 0 0 0 2.09375 9.6367188 A 2.157 2.157 0 0 0 3.8144531 9.9238281 L 2.734375 11.240234 A 2.1 2.1 0 0 0 2.15625 12.699219 L 2.1855469 18.064453 A 1.083 1.083 0 0 0 3.3007812 19.099609 L 4.9433594 19.099609 A 0.5 0.5 0 0 0 5.4609375 18.625 L 5.4609375 18.603516 L 5.4316406 17.400391 L 18.574219 17.400391 L 18.544922 18.609375 A 0.5 0.5 0 0 0 19.044922 19.109375 L 20.708984 19.109375 A 1.083 1.083 0 0 0 21.824219 18.070312 L 21.855469 12.705078 A 2.11 2.11 0 0 0 21.277344 11.246094 L 20.185547 9.9238281 A 2.159 2.159 0 0 0 21.90625 9.640625 A 1.106 1.106 0 0 0 21.818359 8.5917969 C 21.54836 8.0727974 19.679672 7.9445944 19.763672 8.5585938 C 19.797672 8.8065935 19.86264 8.9739063 19.556641 9.0039062 A 2.406 2.406 0 0 1 19.419922 8.6875 L 18.890625 7.0605469 A 2.652 2.652 0 0 0 17.607422 5.5605469 L 17.234375 5.359375 A 3.893 3.893 0 0 0 15.400391 4.9003906 L 8.6054688 4.9003906 z M 8.6679688 5.8300781 L 15.332031 5.8300781 A 3.183 3.183 0 0 1 18.613281 8.90625 L 18.613281 9.3554688 A 0.125 0.125 0 0 1 18.488281 9.4804688 L 5.5117188 9.4804688 A 0.124 0.124 0 0 1 5.3886719 9.3554688 L 5.3886719 8.9003906 A 3.181 3.181 0 0 1 8.6679688 5.8300781 z M 3.7753906 11.208984 C 4.0088904 11.192109 4.2740002 11.24625 4.4375 11.34375 L 6.6992188 12.591797 A 0.248 0.248 0 0 1 6.78125 12.933594 L 6.78125 12.929688 A 0.249 0.249 0 0 1 6.5761719 13.044922 L 3.515625 13.044922 C 3.3796251 13.044922 3.0976562 12.981359 3.0976562 12.568359 L 3.3046875 11.5 C 3.3401875 11.314 3.5418909 11.225859 3.7753906 11.208984 z M 20.048828 11.208984 C 20.348476 11.18751 20.651719 11.26625 20.699219 11.5 L 20.90625 12.572266 C 20.90625 12.985265 20.624281 13.048828 20.488281 13.048828 L 17.429688 13.048828 A 0.247 0.247 0 0 1 17.304688 12.591797 L 19.570312 11.34375 C 19.689562 11.270625 19.869039 11.221869 20.048828 11.208984 z M 11.894531 19.728516 C 11.828308 19.736732 11.795442 19.807926 11.78125 19.955078 L 11.78125 21.060547 L 10.326172 21.089844 C 10.014106 21.086044 9.8480208 21.216979 10.230469 21.408203 L 12.386719 22.666016 C 12.547843 22.772694 12.6631 22.728542 12.667969 22.470703 L 12.689453 21.378906 L 14.240234 21.363281 C 14.452262 21.378111 14.551429 21.22473 14.228516 21.0625 L 12.119141 19.816406 C 12.017858 19.753661 11.946038 19.722125 11.894531 19.728516 z " />
  </g>
</svg>
