<svg xmlns="http://www.w3.org/2000/svg" viewBox="0 0 24 24"><path fill="#44739e" d="M8.877 7.716c.143-.114.282-.234.433-.339a4.77 4.77 0 0 1 5.646.216 1.56 1.56 0 0 0 .672.366.67.67 0 0 0 .661-.164.51.51 0 0 0 .068-.6 1 1 0 0 0-.323-.424 6.86 6.86 0 0 0-4.099-1.462 6.28 6.28 0 0 0-4.022 1.546.96.96 0 0 0-.315.453.513.513 0 0 0 .511.67 1.07 1.07 0 0 0 .768-.262m8.877-3.521a8.6 8.6 0 0 0-5.871-2.194 8.8 8.8 0 0 0-5.575 1.975 1.7 1.7 0 0 0-.224.211.5.5 0 0 0-.1.591.63.63 0 0 0 .558.321 1.27 1.27 0 0 0 .9-.325 7.25 7.25 0 0 1 9.165.165 2 2 0 0 0 .31.224.83.83 0 0 0 1.04-.059c.206-.249.13-.609-.203-.909M14.06 8.706H9.934a3.107 3.107 0 0 0-3.107 3.108v7.079A3.107 3.107 0 0 0 9.934 22h4.126a3.107 3.107 0 0 0 3.106-3.107v-7.079a3.107 3.107 0 0 0-3.106-3.108m-2.063 5.334a1.176 1.176 0 1 1 1.176-1.176 1.176 1.176 0 0 1-1.176 1.176"/></svg>