<svg xmlns="http://www.w3.org/2000/svg" viewBox="0 0 24 24"><path fill="#44739e" d="m19.98 16.295-4.597-.021c0-.044.006-.086.006-.131a5.014 5.014 0 1 0-10.028 0v.085l-1.462-.006v-3.081a1.36 1.36 0 0 1 1.065-1.329l3.02-.965a15 15 0 0 1 4.231-.709l2.998-.067a4.9 4.9 0 0 0 2.045-.366l3.849-1.916c.699-.371 1.127-.816.756-1.513-.274-.516-1.467-.224-1.984.051L16.459 7.7c-.168.09-.339.164-.487.227a16 16 0 0 0-5.107-3.759A14.35 14.35 0 0 0 4.299 2.85a1.5 1.5 0 0 0-.878.282.74.74 0 0 0-.287.656 1.34 1.34 0 0 0 .816.966 2.9 2.9 0 0 0 1.405.318l.218-.007c.171-.006.342-.014.519-.008a11.2 11.2 0 0 1 7.086 3.088 17 17 0 0 0-5.124.743c-.8.194-1.599.428-2.375.7l-1.529.527A3.18 3.18 0 0 0 2 13.122v3.762c0 1.144.511 1.451 1.699 1.452l2.186.022a5.004 5.004 0 0 0 8.941.091l5.227.052a1.173 1.173 0 0 0 1.237-1.056 1.174 1.174 0 0 0-1.31-1.15m-7.086-.031a2.52 2.52 0 0 1-1.425 2.151 2.43 2.43 0 0 1-2.219-.023 2.52 2.52 0 0 1-1.387-2.152c0-.032-.009-.063-.009-.1a2.527 2.527 0 1 1 5.052 0c-.002.045-.012.083-.012.124"/></svg>