<?xml version="1.0" encoding="UTF-8"?>
<svg width="24px" fill="#44739e" height="24px" viewBox="0 0 24 24" version="1.1" xmlns="http://www.w3.org/2000/svg" xmlns:xlink="http://www.w3.org/1999/xlink">
            <path d="M 17.744,8.667 V 7.714 a 5.744,5.744 0 0 0 -11.488,0 v 0.953 a 1.915,1.915 0 0 0 -1.915,1.9 V 20.1 A 1.915,1.915 0 0 0 6.256,22 h 11.488 a 1.915,1.915 0 0 0 1.915,-1.9 V 10.571 A 1.915,1.915 0 0 0 17.744,8.667 Z m -1.914,0 H 8.17 V 7.714 A 3.74,3.74 0 0 1 12,3.905 3.74,3.74 0 0 1 15.83,7.714 Z"/>

</svg>