<svg xmlns="http://www.w3.org/2000/svg" viewBox="0 0 24 24"><path fill="#44739e" d="M11.171 5.62c.043.045.091.1.14.156l.078.076c.043.056.086.1.116.137v.012a1.8 1.8 0 0 1 .346.607 1.4 1.4 0 0 1 .077.552 1.7 1.7 0 0 1-.272.926 2.4 2.4 0 0 1-.38.483c-.152.136-.127.3.054.425a.65.65 0 0 0 .429.111.5.5 0 0 0 .35-.127 2.55 2.55 0 0 0 .866-1.828 2 2 0 0 0-.066-.471 2 2 0 0 0-.171-.499q-.002-.011-.01-.023a2.5 2.5 0 0 0-.485-.679 2 2 0 0 0-.168-.187h-.013a1.9 1.9 0 0 1-.557-1.317 1.96 1.96 0 0 1 .661-1.413c.175-.162.157-.289-.05-.43a.67.67 0 0 0-.424-.13.55.55 0 0 0-.369.141 2.7 2.7 0 0 0-.765 1.246 2.2 2.2 0 0 0-.082.572 2 2 0 0 0 .03.3 2.55 2.55 0 0 0 .665 1.36m-3.431.034c.049.052.1.1.139.153l.078.086a1 1 0 0 0 .079.081H8.03c.006 0 .013 0 .018.01a2 2 0 0 1 .363.622 1.5 1.5 0 0 1 .09.594 1.94 1.94 0 0 1-.647 1.4c-.169.163-.157.284.049.421a.2.2 0 0 1 .054.05.62.62 0 0 0 .375.072.5.5 0 0 0 .357-.132A2.4 2.4 0 0 0 9.535 7.2a2.5 2.5 0 0 0-.049-.511 3 3 0 0 0-.127-.343c-.025-.065-.044-.133-.07-.193a2.8 2.8 0 0 0-.467-.643 2 2 0 0 0-.169-.187c0-.006-.007-.006-.007-.006-.029-.032-.051-.066-.078-.1a2 2 0 0 1-.367-.616 1.8 1.8 0 0 1-.117-.6 1.7 1.7 0 0 1 .117-.585 2 2 0 0 1 .229-.451 2.4 2.4 0 0 1 .318-.379c.144-.143.12-.3-.062-.426a.62.62 0 0 0-.416-.117.58.58 0 0 0-.376.137 2.58 2.58 0 0 0-.843 1.821 2.34 2.34 0 0 0 .435 1.329 3 3 0 0 0 .254.324m6.871-.035q.107.128.204.233v.006l.032.034a1 1 0 0 1 .073.091h.006l.017.026a1.8 1.8 0 0 1 .334.587h.006a1.8 1.8 0 0 1 .084.553 1.95 1.95 0 0 1-.659 1.412c-.168.173-.151.284.061.427a.3.3 0 0 1 .041.04.62.62 0 0 0 .376.076.5.5 0 0 0 .375-.137 2.5 2.5 0 0 0 .841-1.818 3 3 0 0 0-.049-.466h.006s-.006-.01-.006-.021a2.4 2.4 0 0 0-.194-.515h-.006a2.5 2.5 0 0 0-.478-.679l-.175-.2a1.74 1.74 0 0 1-.55-1.307 1.8 1.8 0 0 1 .256-.9 2.3 2.3 0 0 1 .391-.509c.169-.162.152-.289-.055-.43a.66.66 0 0 0-.424-.121.57.57 0 0 0-.357.141 3 3 0 0 0-.431.517c-.013.018-.021.038-.034.057a2.2 2.2 0 0 0-.361 1.085c0 .053-.015.1-.014.156a2.1 2.1 0 0 0 .146.8 2.7 2.7 0 0 0 .544.862m5.375 8.753a.89.89 0 0 0-.071-.847c-.217-.418-1.725-.521-1.657-.026.027.2.081.335-.166.359a2 2 0 0 1-.111-.255l-.427-1.312a2.14 2.14 0 0 0-1.034-1.212l-.3-.163a3.14 3.14 0 0 0-1.481-.369H9.264a3.14 3.14 0 0 0-1.481.369l-.3.163a2.14 2.14 0 0 0-1.034 1.212l-.43 1.308a2 2 0 0 1-.11.255c-.248-.024-.194-.163-.167-.359.068-.495-1.44-.392-1.657.026a.89.89 0 0 0-.071.847 1.74 1.74 0 0 0 1.387.231l-.87 1.063a1.7 1.7 0 0 0-.466 1.176l.024 4.324a.873.873 0 0 0 .9.838h1.323a.4.4 0 0 0 .417-.4l-.023-.975h10.593l-.023.975a.4.4 0 0 0 .417.4h1.324a.873.873 0 0 0 .9-.838l.024-4.324a1.7 1.7 0 0 0-.466-1.176l-.876-1.063a1.74 1.74 0 0 0 1.387-.227M7.628 17.118H5.161c-.11 0-.337-.05-.337-.382l.167-.865c.057-.3.65-.283.913-.126l1.827 1.005a.2.2 0 0 1-.103.368m-.858-2.877a.1.1 0 0 1-.1-.1v-.363A2.566 2.566 0 0 1 9.314 11.3h5.372a2.566 2.566 0 0 1 2.645 2.479v.363a.1.1 0 0 1-.1.1Zm12.239 1.63.167.865c0 .332-.227.382-.337.382h-2.467a.2.2 0 0 1-.1-.368l1.827-1.005c.26-.157.853-.176.91.126"/></svg>