<?xml version="1.0" encoding="UTF-8"?>
<svg width="24px" fill="#44739e" height="24px" viewBox="0 0 24 24" version="1.1" xmlns="http://www.w3.org/2000/svg" xmlns:xlink="http://www.w3.org/1999/xlink">
            <path d="M 18.893,2 H 11.751 A 5,5 0 0 0 8.271,3.4 L 3.405,8.076 A 4.28,4.28 0 0 0 2.1,11.149 v 8.372 A 2.482,2.482 0 0 0 4.574,22 h 14.29 a 3.045,3.045 0 0 0 3.041,-3.041 V 5.012 A 3.015,3.015 0 0 0 18.893,2 Z m -8.82,3.277 A 2.411,2.411 0 0 1 11.751,4.6 h 7.142 a 0.41,0.41 0 0 1 0.41,0.41 v 1.968 h -7.76 L 7.324,11.057 H 4.706 a 1.66,1.66 0 0 1 0.5,-1.1 z M 18.864,19.4 H 4.7 v -6.129 h 14.6 v 5.688 A 0.44,0.44 0 0 1 18.864,19.4 Z"/>

</svg>