<svg xmlns="http://www.w3.org/2000/svg" viewBox="0 0 24 24"><path fill="#44739e" d="m21.825 10.336-.058-.415a.42.42 0 0 0-.416-.362H17.92a1.4 1.4 0 0 0-.129-.437c-.152-.31-.937-.45-1.362-.323l.986 1.615.68.827a.97.97 0 0 1 .224.616l.029 4.16h2.875a.584.584 0 0 0 .578-.5 18.1 18.1 0 0 0 .024-5.181m-5.836-.865a2 2 0 0 1-.109-.27l-.422-1.375a2.2 2.2 0 0 0-1.022-1.27l-.3-.17A2.96 2.96 0 0 0 12.673 6h-5.41a2.96 2.96 0 0 0-1.463.388l-.3.17a2.2 2.2 0 0 0-1.022 1.271l-.422 1.372a2 2 0 0 1-.109.268c-.245-.026-.191-.172-.165-.377.067-.518-1.423-.41-1.637.028a.98.98 0 0 0-.071.887 1.65 1.65 0 0 0 1.369.235l-.86 1.114a1.86 1.86 0 0 0-.461 1.231l.024 4.531a.887.887 0 0 0 .891.882h1.308a.41.41 0 0 0 .413-.418l-.023-1.022H15.2l-.023 1.022a.41.41 0 0 0 .413.418h1.31a.887.887 0 0 0 .891-.878l.024-4.53a1.86 1.86 0 0 0-.461-1.232l-.86-1.114c.081.024-.08-.009 0 0l-.5-.773c-.032.028.256.548-.005 0M5.646 12.886H3.207c-.108 0-.332-.052-.332-.4l.164-.905c.058-.316.643-.3.9-.132l1.809 1.05a.21.21 0 0 1-.102.387M4.8 9.872a.1.1 0 0 1-.1-.1v-.38a2.606 2.606 0 0 1 2.614-2.6h5.312a2.606 2.606 0 0 1 2.614 2.6v.381a.1.1 0 0 1-.1.1Zm12.1 1.707.164.905c0 .35-.224.4-.332.4H14.29a.21.21 0 0 1-.1-.386l1.806-1.053c.258-.162.843-.182.904.134"/></svg>