<?xml version="1.0" encoding="UTF-8"?>
<svg width="24px" fill="#44739e" height="24px" viewBox="0 0 24 24" version="1.1" xmlns="http://www.w3.org/2000/svg" xmlns:xlink="http://www.w3.org/1999/xlink">
            <path d="m 13.658,12.2 a 1.011,1.011 0 0 0 -1.252,0.978 v 0 V 21 a 1.009,1.009 0 0 0 1.252,0.978 5.011,5.011 0 0 0 4.067,-4.891 5.163,5.163 0 0 0 -4.067,-4.887 z m -3.424,-0.4 a 1.008,1.008 0 0 0 1.251,-0.978 V 3 3 A 1.01,1.01 0 0 0 10.234,2.022 5.16,5.16 0 0 0 6.167,6.912 5.01,5.01 0 0 0 10.234,11.8 Z m 11.712,-1.445 a 5.163,5.163 0 0 0 -4.891,-4.067 5.01,5.01 0 0 0 -4.891,4.067 1.008,1.008 0 0 0 0.978,1.251 h 7.826 a 1.011,1.011 0 0 0 0.978,-1.251 z M 10.784,12.454 H 2.959 a 1.012,1.012 0 0 0 -0.979,1.252 5.164,5.164 0 0 0 4.892,4.067 5.012,5.012 0 0 0 4.891,-4.067 1.009,1.009 0 0 0 -0.979,-1.252 z"/>

</svg>