<svg role="img" viewBox="0 0 24 24" xmlns="http://www.w3.org/2000/svg"><title>TF1</title>
    <path
       d="M 1.015e-5,12 V 7.6200002 H 12 23.99999 V 12 16.38 H 12 1.015e-5 Z m 5.95199995,1.068 v -1.992 h 0.696 0.69599 V 10.02 8.9640002 h -2.73599 -2.736 V 10.02 11.076 h 0.696 0.696 v 1.992 1.992 h 1.344 1.344 z M 13.32,14.1 v -0.96 h 0.828 0.828 v -0.756 c 0,-0.4158 -0.008,-0.75611 -0.018,-0.75623 -0.01,-1.3e-4 -0.3798,-0.003 -0.822,-0.006 l -0.804,-0.006 -0.006,-0.558 -0.006,-0.558 h 1.15244 1.15244 v -0.7679998 -0.768 h -2.484 -2.484 v 3.0479998 3.048 h 1.332 1.332 z m 8.25599,-2.1026 V 8.9348002 l -0.066,0.0158 c -0.0758,0.0181 -2.07263,0.58008 -2.46,0.69233 l -0.258,0.0747 v 2.6711798 2.67118 h 1.392 1.392 z"
       fill="#44739e" />
</svg>
