<svg xmlns="http://www.w3.org/2000/svg" viewBox="0 0 24 24"><path fill="#44739e" d="M2 12V8.203h20v7.594H2Zm5.75.917v-1.709l.735-.008c.404-.005.74-.013.746-.02.006-.006.011-.406.011-.888v-.878L6.667 9.41l-2.575-.004.005.894.004.895.746.004.746.004v3.421H7.75Zm4.313 1.075v-.633h1.453v-1.781h-1.454l.004-.191.004-.192 1.098-.004 1.097-.004V9.406h-2.178c-1.199 0-2.184.006-2.188.013s-.004 1.182.002 2.609l.01 2.597h2.152Zm5.344.618c0-.031-1.444-2.486-1.455-2.474a288 288 0 0 0-1.452 2.483c0 .004.654.006 1.453.006.899 0 1.453-.006 1.453-.014Zm2.811.008c0-.003-.578-1-1.285-2.214l-1.501-2.576a13 13 0 0 0-.233-.395c-.018-.025-.092-.026-1.281-.023l-1.261.004.282.484 1.517 2.606 1.235 2.121h1.264c.695 0 1.263-.002 1.263-.007m-.571-3.948.725-1.24-1.446-.004a72 72 0 0 0-1.453.002c-.006.006 1.439 2.491 1.445 2.485.003-.002.331-.561.73-1.244Z"/></svg>