<?xml version="1.0" encoding="UTF-8"?>
<!DOCTYPE svg PUBLIC "-//W3C//DTD SVG 1.1//EN" "http://www.w3.org/Graphics/SVG/1.1/DTD/svg11.dtd">
<svg xmlns="http://www.w3.org/2000/svg" xmlns:xlink="http://www.w3.org/1999/xlink" version="1.1"  width="24" height="24" viewBox="0 0 24 24">
<style>path{fill:#000}@media (prefers-color-scheme:dark){path{fill:#fff}}</style>
<path d="m12 2c-5.511 0-10 4.489-10 10s4.489 10 10 10 10-4.489 10-10-4.489-10-10-10zm0 2c4.4301 0 8 3.5699 8 8s-3.5699 8-8 8-8-3.5699-8-8 3.5699-8 8-8zm3.5 1.9375l-6.0977 4.5625a3 3 0 0 0 0 3 3 3 0 0 0 2.5977 1.5 3 3 0 0 0 2.5977 -1.5l0.90234-7.5625z"/>
</svg>
