<?xml version="1.0" encoding="UTF-8"?>
<svg width="33px" height="32px" viewBox="0 0 8.4666667 8.4666667" version="1.1" xmlns="http://www.w3.org/2000/svg" xmlns:xlink="http://www.w3.org/1999/xlink">
    <!-- Generator: Sketch 51.3 (57544) - http://www.bohemiancoding.com/sketch -->
    <style>path{fill:#000}@media (prefers-color-scheme:dark){path{fill:#fff}}</style>
            <path d="M 2.9434894,8.4563633 C 2.2770687,8.3892752 1.7582043,8.1982337 1.2898437,7.847505 1.0499236,7.6678424 1.0198326,7.6371884 1.0216217,7.574264 1.0236702,7.5022154 1.0734542,7.4523988 1.1414745,7.4543329 1.1798336,7.4554235 1.2267198,7.4828432 1.3171782,7.5570868 1.6718081,7.8481488 2.1287211,8.0646051 2.5892813,8.1597284 2.8574654,8.2151187 3.0523964,8.221186 4.3490883,8.2145029 5.6984548,8.2075483 5.7057857,8.2071705 6.019867,8.128407 7.0458057,7.8711278 7.8851286,7.0238054 8.1336616,5.9944658 8.2088805,5.6829345 8.2103511,5.6491644 8.2103511,4.2333331 8.2103511,3.180718 8.205452,2.8548338 8.1879773,2.7450519 8.0853702,2.1004418 7.8115903,1.5591131 7.3595717,1.1070945 6.9075531,0.6550758 6.3662244,0.381296 5.7216143,0.27868897 5.5174788,0.24619532 2.9491874,0.24619532 2.7450519,0.27868897 2.1004418,0.381296 1.5591131,0.6550758 1.1070945,1.1070945 0.66694949,1.5472395 0.40486592,2.0534721 0.2850939,2.6948461 0.24521855,2.9083767 0.23430331,5.3507907 0.27186662,5.6546059 0.33174614,6.1389167 0.51213536,6.6059478 0.7863656,6.9866533 0.87491147,7.1095788 0.89279783,7.1452686 0.88913505,7.1917162 0.88349154,7.2632814 0.81656071,7.3184247 0.75430604,7.3027997 0.69803911,7.2886776 0.66422385,7.2503347 0.52653425,7.0445309 0.23760579,6.612671 0.06548365,6.1163074 0.01618289,5.5727862 0.00344042,5.4323055 -5.3609078e-4,4.9607833 0.00377115,4.1010414 0.01063741,2.7305076 0.00935956,2.7518238 0.10797594,2.3627844 0.2044875,1.9820485 0.40056775,1.5792291 0.65020535,1.2488497 0.77882628,1.0786282 1.0786282,0.77882628 1.2488497,0.65020535 1.5793945,0.40044275 1.9820313,0.20449188 2.3632642,0.10785433 2.7639076,0.00629643 2.7268805,0.00826823 4.2333331,0.00826823 5.7397857,0.00826823 5.7027586,0.00629643 6.103402,0.10785433 6.4846349,0.20449188 6.8872716,0.40044275 7.2178164,0.65020535 7.3880381,0.77882628 7.6878399,1.0786282 7.8164608,1.2488497 8.0662235,1.5793945 8.2621744,1.9820313 8.358812,2.3632642 8.4603698,2.7639076 8.458398,2.7268805 8.458398,4.2333331 8.458398,5.7397857 8.4603698,5.7027586 8.358812,6.103402 8.2621744,6.4846349 8.0662235,6.8872716 7.8164608,7.2178164 7.6878399,7.3880381 7.3880381,7.6878399 7.2178164,7.8164608 6.8874372,8.0660985 6.4846177,8.2621787 6.1038818,8.3586902 5.7109974,8.4582814 5.7445728,8.4563898 4.3160154,8.4594103 3.5929588,8.4609391 2.9753221,8.4595679 2.9434894,8.4563633 Z M 2.8856118,7.9523728 C 1.8551989,7.844881 0.97347479,7.1379304 0.63960256,6.1515622 0.57003282,5.9460304 0.53719749,5.7916318 0.5135063,5.5586318 0.49024858,5.3298945 0.49029897,3.1360776 0.51356719,2.9080344 0.55911342,2.4616529 0.70349167,2.0503924 0.93742513,1.7006781 1.0331694,1.5575471 1.1553945,1.4019932 1.2115095,1.3518554 1.2556933,1.3123779 1.3433615,1.3146268 1.3809873,1.3562029 1.4360273,1.4170214 1.4194513,1.4744236 1.3063464,1.6146811 1.0710763,1.9064318 0.90840912,2.2206587 0.82605647,2.5424651 0.75822394,2.8075318 0.74476063,2.9753029 0.74444353,3.5594725 L 0.74414058,4.1175779 H 0.9575432 1.1709458 L 1.2122422,4.047298 C 1.2872962,3.9195677 1.4011148,3.8620964 1.5583942,3.8725131 1.7593491,3.8858223 1.8934244,4.0302183 1.8934244,4.2333331 1.8934244,4.4364479 1.7593491,4.5808439 1.5583942,4.5941531 1.4011148,4.6045698 1.2872962,4.5470985 1.2122422,4.4193682 L 1.1709458,4.3490883 H 0.95604488 0.74114395 L 0.74860971,4.9816078 C 0.75537666,5.5549217 0.75947436,5.6296059 0.79238722,5.7794919 0.91122483,6.3206813 1.171755,6.7686252 1.5733074,7.1221707 1.8848945,7.3965067 2.2556957,7.5795574 2.6954426,7.6761271 2.8689596,7.7142319 2.869985,7.7142574 4.2333331,7.7142574 5.5966812,7.7142574 5.5977066,7.7142319 5.7712236,7.6761271 6.3211411,7.5553635 6.7665218,7.2973002 7.1221707,6.8933589 7.4703595,6.4978903 7.6822056,5.98168 7.7150143,5.4487627 7.7206135,5.3578122 7.7327384,5.2634173 7.7419583,5.2389961 7.7765959,5.1472508 7.9162724,5.1508874 7.9550664,5.2445446 7.9795405,5.3036305 7.9562453,5.6306003 7.912017,5.848778 7.8136918,6.3338172 7.5488872,6.8198768 7.184382,7.184382 6.7407679,7.6279963 6.1885934,7.8891061 5.5586318,7.9531599 5.3554113,7.973823 3.0848252,7.9731545 2.8856118,7.9523728 Z M 1.6199286,4.3128973 C 1.6918919,4.2356538 1.6372992,4.1175779 1.5296223,4.1175779 1.461738,4.1175779 1.4055989,4.1699743 1.4055989,4.2333331 1.4055989,4.3369634 1.5481921,4.3898975 1.6199286,4.3128973 Z M 4.1387298,6.9532982 C 4.1018144,6.9274417 3.700034,6.4728849 3.6497288,6.4000636 3.6139603,6.3482856 3.6132923,6.2367625 3.64845,6.1865677 3.7025914,6.1092702 3.7531714,6.1019528 4.2333331,6.1019528 4.7134948,6.1019528 4.7640748,6.1092702 4.8182162,6.1865677 4.8533373,6.2367102 4.8527172,6.3482337 4.8170292,6.4000636 4.7615259,6.4806714 4.3481376,6.9446573 4.3169548,6.9613457 4.2704321,6.986244 4.1799322,6.9821575 4.1387298,6.9532982 Z M 4.3887517,6.5236325 4.531544,6.3582679 4.3824385,6.3535132 C 4.3004306,6.3508981 4.1663705,6.3508981 4.0845275,6.3535132 L 3.9357217,6.3582679 4.0803934,6.5273459 C 4.1599627,6.6203388 4.2297662,6.6947529 4.2355121,6.6927105 4.241258,6.690668 4.3102159,6.614583 4.3887517,6.5236325 Z M 2.9800793,4.958644 C 2.8854997,4.8980815 2.8773368,4.8638178 2.8774054,4.5276764 2.8774975,4.0769642 2.8895283,4.0643401 3.3284575,4.0543765 L 3.6059387,4.0480778 3.601309,3.8471833 3.5966795,3.6462889 3.2604493,3.6380206 C 2.9520439,3.6304367 2.9222798,3.627096 2.9007814,3.597653 2.8673384,3.5518508 2.8718295,3.4781701 2.9104165,3.4395831 2.9414969,3.4085027 2.965538,3.4065102 3.3094738,3.4065102 3.6522137,3.4065102 3.6790208,3.4087122 3.7315543,3.4411796 3.8273047,3.5003566 3.8364709,3.536667 3.8363491,3.8563075 3.8362537,4.106765 3.8324323,4.1481578 3.8056557,4.1887685 3.7426951,4.2842573 3.7201208,4.2905187 3.4065102,4.2994789 L 3.1171222,4.3077472 V 4.5309893 4.7542315 L 3.4533524,4.7624997 C 3.7617578,4.7700837 3.791522,4.7734244 3.8130203,4.8028674 3.8464633,4.8486696 3.8419722,4.9223502 3.8033852,4.9609372 3.772276,4.9920464 3.748466,4.9939936 3.4023761,4.9937315 3.0568235,4.9934699 3.0311328,4.9913354 2.9800793,4.958644 Z M 4.088488,4.9610265 C 4.0588459,4.9429535 4.0198064,4.9039141 4.0017334,4.874272 3.9704868,4.8230233 3.9688735,4.7899321 3.9688735,4.2002602 3.9688735,3.6105883 3.9704868,3.577497 4.0017334,3.5262484 4.0684349,3.4168492 4.1065732,3.4066339 4.448307,3.4066339 4.7900409,3.4066339 4.8281792,3.4168492 4.8948807,3.5262484 4.9261273,3.577497 4.9277406,3.6105883 4.9277406,4.2002602 4.9277406,4.7899321 4.9261273,4.8230233 4.8948807,4.874272 4.8281792,4.9836712 4.7900409,4.9938864 4.448307,4.9938864 4.172149,4.9938864 4.1371387,4.9906893 4.088488,4.9610265 Z M 4.6880857,4.2002602 V 3.6462889 H 4.448307 4.2085284 L 4.20416,4.1835895 C 4.2017572,4.4791047 4.2034628,4.7304574 4.2079501,4.742151 4.2141874,4.7584051 4.2716836,4.7623311 4.4520972,4.7588217 L 4.6880857,4.7542315 Z M 7.7567987,4.8346837 C 7.7260085,4.7955402 7.7225256,4.768653 7.7225256,4.5701004 V 4.3490883 H 7.509123 7.2957203 L 7.254424,4.4193682 C 7.17937,4.5470985 7.0655513,4.6045698 6.9082721,4.5941531 6.7073171,4.5808439 6.5732418,4.4364479 6.5732418,4.2333331 6.5732418,4.0302183 6.7073171,3.8858223 6.9082721,3.8725131 7.0655513,3.8620964 7.17937,3.9195677 7.254424,4.047298 L 7.2957203,4.1175779 H 7.5106213 7.7255222 L 7.7180565,3.4850584 C 7.7112896,2.9117445 7.7071919,2.8370603 7.674279,2.6871743 7.5554414,2.1459849 7.2949112,1.698041 6.8933589,1.3444955 6.5817717,1.0701596 6.2109705,0.88710886 5.7712236,0.79053911 5.5977066,0.75243425 5.5966812,0.75240881 4.2333331,0.75240881 2.9847333,0.75240881 2.856674,0.75493259 2.7227937,0.78217831 2.4156278,0.84468901 2.0868731,0.97727907 1.834334,1.140503 1.7776106,1.1771651 1.7113272,1.2071614 1.6870375,1.2071614 1.6308651,1.2071614 1.5709635,1.1443529 1.5709635,1.0854546 1.5709635,1.0252267 1.6178662,0.9815439 1.7949407,0.87685351 2.1362141,0.67508495 2.4649429,0.56469054 2.8769098,0.5135042 3.0648364,0.49015455 5.3289873,0.49015632 5.5586318,0.5135063 5.7916318,0.53719749 5.9460304,0.57003282 6.1515622,0.63960256 6.9402844,0.90657434 7.5600918,1.5263818 7.8270636,2.315104 7.9551383,2.6934787 7.9705725,2.8677174 7.9705725,3.935199 7.9705725,4.7760643 7.9699699,4.7918786 7.9362993,4.8346837 7.9114416,4.8662854 7.8867859,4.8782549 7.846549,4.8782549 7.8063122,4.8782549 7.7816565,4.8662854 7.7567987,4.8346837 Z M 7.0273501,4.3128973 C 7.0993135,4.2356538 7.0447209,4.1175779 6.9370439,4.1175779 6.8691596,4.1175779 6.8130205,4.1699743 6.8130205,4.2333331 6.8130205,4.3369634 6.9556137,4.3898975 7.0273501,4.3128973 Z M 5.0684242,3.5074511 C 4.786422,3.3768883 4.7938638,2.9565291 5.0802954,2.8368797 5.2080533,2.7835121 5.3802275,2.8138018 5.4797868,2.9071597 5.624955,3.0432856 5.624955,3.306714 5.4797868,3.44284 5.3768381,3.5393762 5.198037,3.5674597 5.0684242,3.5074511 Z M 5.3110349,3.2633874 C 5.3492672,3.2287876 5.3508935,3.130354 5.3139081,3.0894855 5.2793083,3.0512532 5.1808748,3.0496269 5.1400062,3.0866123 5.1017739,3.121212 5.1001476,3.2196456 5.137133,3.2605141 5.1717327,3.2987464 5.2701663,3.3003728 5.3110349,3.2633874 Z M 3.7269587,2.3409518 C 3.6985667,2.328595 3.66322,2.3011855 3.6484105,2.280042 3.6133239,2.2299489 3.6139649,2.1184093 3.649637,2.0666026 3.7051403,1.9859948 4.1185286,1.5220089 4.1497114,1.5053204 4.1905925,1.4834415 4.2760737,1.4834415 4.3169548,1.5053204 4.3481376,1.5220089 4.7615259,1.9859948 4.8170292,2.0666026 4.8527172,2.1184325 4.8533373,2.229956 4.8182162,2.2800985 4.763905,2.3576386 4.7139881,2.3647609 4.2297301,2.3640662 3.8870966,2.3635745 3.7661638,2.3580148 3.7269587,2.3409518 Z M 4.5119377,2.0877277 C 4.4017597,1.9558525 4.2416524,1.7776692 4.2333331,1.7776692 4.2250138,1.7776692 4.0649065,1.9558525 3.9547285,2.0877277 3.9318472,2.1151151 3.9467829,2.1166666 4.2333331,2.1166666 4.5198833,2.1166666 4.534819,2.1151151 4.5119377,2.0877277 Z"/>

</svg>