<svg xmlns="http://www.w3.org/2000/svg" fill="#44739e" width="24" height="24" version="1.1" viewBox="0 0 24 24"><path d="m 8.8,12.7 c 0,0.8 0.019,0.878 0.241,1.019 v 0 c 0.12,0.075 0.182,0.083 1,0.083 0.818,0 0.875,0 0.946,-0.081 a 0.309,0.309 0 0 0 0.024,-0.376 C 10.963,13.277 10.892,13.27 10.159,13.251 L 9.365,13.232 V 12.18 l 0.683,-0.021 c 0.743,-0.019 0.8,-0.036 0.946,-0.26 0.062,-0.1 0.071,-0.2 0.071,-0.788 0,-0.754 -0.021,-0.839 -0.246,-0.981 -0.123,-0.076 -0.189,-0.081 -1,-0.081 -0.811,0 -0.875,0.005 -0.946,0.078 A 0.309,0.309 0 0 0 8.85,10.501 c 0.052,0.071 0.123,0.076 0.851,0.1 l 0.8,0.019 0.009,0.477 0.012,0.473 -0.657,0.014 C 8.833,11.6 8.8,11.634 8.8,12.7 Z m 11.966,0.724 c 0.08,-0.1 0.082,-0.14 0.082,-2.126 0,-2.526 -0.037,-2.939 -0.34,-3.831 A 6.327,6.327 0 0 0 15.145,3.206 c -0.544,-0.057 -5.9,-0.057 -6.343,0 A 6.264,6.264 0 0 0 6.244,4.069 c -0.419,0.248 -0.53,0.35 -0.53,0.492 a 0.311,0.311 0 0 0 0.274,0.288 0.994,0.994 0 0 0 0.348,-0.156 6.4,6.4 0 0 1 2.1,-0.849 25.658,25.658 0 0 1 3.571,-0.075 c 3.225,0 3.228,0 3.634,0.092 a 5.719,5.719 0 0 1 4.5,4.479 8.544,8.544 0 0 1 0.1,1.887 l 0.019,1.5 h -1.008 l -0.1,-0.166 a 0.871,0.871 0 0 0 -1.611,0.442 v 0.018 a 0.87,0.87 0 0 0 1.611,0.422 l 0.1,-0.165 h 1.01 v 0.52 c 0,0.471 0.009,0.532 0.08,0.627 V 13.42 a 0.275,0.275 0 0 0 0.426,0 z m -2.15,-1.23 a 0.3,0.3 0 0 1 -0.506,-0.189 0.284,0.284 0 0 1 0.293,-0.272 0.272,0.272 0 0 1 0.213,0.461 z m -5.042,1.327 c 0.074,-0.121 0.078,-0.2 0.078,-1.594 0,-1.394 0,-1.476 -0.078,-1.594 -0.158,-0.26 -0.248,-0.284 -1.057,-0.284 -0.809,0 -0.9,0.024 -1.054,0.284 -0.076,0.121 -0.078,0.2 -0.078,1.594 0,1.394 0,1.476 0.078,1.594 a 0.714,0.714 0 0 0 0.2,0.2 v 0 c 0.118,0.07 0.2,0.078 0.851,0.078 0.812,0.006 0.902,-0.018 1.06,-0.278 z m -0.489,-1.594 v 1.31 l -0.558,0.012 c -0.426,0.007 -0.563,0 -0.577,-0.04 -0.014,-0.04 -0.015,-0.622 -0.01,-1.32 l 0.01,-1.272 h 1.135 z M 12,7.583 c 1.144,0 1.263,-0.014 1.388,-0.2 a 0.528,0.528 0 0 0 0,-0.5 C 13.258,6.689 12.276,5.594 12.206,5.554 a 0.52,0.52 0 0 0 -0.395,0 17.754,17.754 0 0 0 -1.181,1.327 0.538,0.538 0 0 0 -0.007,0.5 0.519,0.519 0 0 0 0.189,0.142 v 0 A 5.1,5.1 0 0 0 12,7.583 Z M 11.349,6.93 C 11.61,6.618 11.988,6.197 12.004,6.197 a 8.868,8.868 0 0 1 0.663,0.733 c 0.054,0.066 0.018,0.071 -0.66,0.071 C 11.329,7.001 11.3,7 11.351,6.93 Z M 21.764,7.576 A 7.649,7.649 0 0 0 20.479,4.941 9.608,9.608 0 0 0 19.065,3.525 7.6,7.6 0 0 0 16.429,2.243 C 15.483,2.002 15.57,2.007 12.006,2.007 8.442,2.007 8.53,2 7.584,2.243 A 7.57,7.57 0 0 0 4.95,3.523 9.885,9.885 0 0 0 3.534,4.941 7.659,7.659 0 0 0 2.252,7.576 c -0.234,0.917 -0.23,0.87 -0.246,4.11 -0.014,2.033 0,3.152 0.033,3.485 a 7.382,7.382 0 0 0 1.206,3.481 c 0.324,0.485 0.4,0.577 0.537,0.608 A 0.276,0.276 0 0 0 4.1,19 C 4.11,18.889 4.069,18.806 3.856,18.515 a 6.91,6.91 0 0 1 -1.215,-3.15 c -0.087,-0.719 -0.064,-6.5 0.031,-7 A 6.967,6.967 0 0 1 8.49,2.652 c 0.485,-0.078 6.555,-0.078 7.04,0 a 6.949,6.949 0 0 1 5.831,5.829 c 0.041,0.258 0.053,1.031 0.053,3.522 0,3.346 0,3.426 -0.18,4.162 a 6.979,6.979 0 0 1 -5,5.046 c -0.74,0.187 -0.756,0.189 -3.949,0.206 A 21.321,21.321 0 0 1 8.123,21.287 7.163,7.163 0 0 1 5.115,19.861 C 4.902,19.686 4.791,19.62 4.701,19.617 a 0.271,0.271 0 0 0 -0.283,0.284 c -0.005,0.151 0.066,0.222 0.633,0.648 a 7.463,7.463 0 0 0 3.909,1.438 v 0 c 0.078,0.007 1.537,0.012 3.247,0.007 3.377,-0.007 3.3,0 4.228,-0.236 a 7.651,7.651 0 0 0 2.634,-1.284 9.5,9.5 0 0 0 1.414,-1.414 7.634,7.634 0 0 0 1.285,-2.637 C 22,15.474 22,15.562 22,12 22,8.438 22,8.522 21.764,7.576 Z M 3.952,8 A 5.815,5.815 0 0 1 5.087,5.809 C 5.354,5.476 5.395,5.339 5.267,5.197 a 0.318,0.318 0 0 0 -0.4,-0.01 6.248,6.248 0 0 0 -1.653,3.685 c -0.056,0.537 -0.056,5.722 0,6.266 A 6.324,6.324 0 0 0 8.823,20.8 l 0.008,-0.01 c 0.47,0.052 5.838,0.052 6.321,0 a 6.217,6.217 0 0 0 3.842,-1.821 6.38,6.38 0 0 0 1.722,-3.157 4.851,4.851 0 0 0 0.1,-1.428 0.275,0.275 0 0 0 -0.5,-0.014 2.892,2.892 0 0 0 -0.064,0.5 5.756,5.756 0 0 1 -4.607,5.267 c -0.409,0.09 -0.411,0.09 -3.637,0.09 -3.226,0 -3.225,0 -3.637,-0.09 a 5.76,5.76 0 0 1 -4.5,-4.489 8.531,8.531 0 0 1 -0.1,-1.884 L 3.752,12.269 H 4.77 l 0.1,0.175 a 0.812,0.812 0 0 0 0.818,0.414 H 5.7 A 0.813,0.813 0 0 0 6.475,12 v -0.022 a 0.811,0.811 0 0 0 -0.793,-0.829 0.811,0.811 0 0 0 -0.82,0.414 l -0.1,0.165 H 3.758 V 10.406 A 8.559,8.559 0 0 1 3.952,8 Z m 1.665,3.727 a 0.272,0.272 0 0 1 0.213,0.459 v 0 A 0.3,0.3 0 0 1 5.324,12 0.284,0.284 0 0 1 5.617,11.728 Z m 8.366,-1.448 a 0.933,0.933 0 0 0 0.975,-0.152 0.909,0.909 0 0 0 0,-1.267 0.934,0.934 0 0 0 -0.946,-0.166 0.883,0.883 0 0 0 -0.031,1.594 z m 0.171,-0.994 a 0.29,0.29 0 1 1 0.4,0.417 v 0 a 0.289,0.289 0 1 1 -0.4,-0.414 z m -2.367,9.147 a 0.486,0.486 0 0 0 0.421,0.019 c 0.073,-0.038 1.052,-1.137 1.184,-1.326 a 0.541,0.541 0 0 0 0,-0.5 c -0.127,-0.184 -0.248,-0.2 -1.383,-0.2 -1.135,0 -1.254,0.017 -1.381,0.2 a 0.535,0.535 0 0 0 0,0.5 q 0.551,0.675 1.159,1.307 z m -0.128,-1.416 q 0.351,-0.009 0.7,0 l 0.355,0.009 -0.338,0.391 q -0.172,0.208 -0.362,0.4 a 3.253,3.253 0 0 1 -0.369,-0.391 l -0.343,-0.4 z"/></svg>
