<svg xmlns="http://www.w3.org/2000/svg" viewBox="0 0 24 24"><path fill="#44739e" d="M2.013 17.952v1.17a1.24 1.24 0 0 0 1.241 1.24h6.802v-3.65H3.254a1.24 1.24 0 0 0-1.241 1.24m18.746-1.24H13.93v3.65h6.829A1.24 1.24 0 0 0 22 19.122v-1.17a1.24 1.24 0 0 0-1.241-1.24M2 11.412v1.17a1.24 1.24 0 0 0 1.241 1.24h6.815v-3.65H3.241A1.24 1.24 0 0 0 2 11.412m18.746-1.24H13.93v3.65h6.816a1.24 1.24 0 0 0 1.241-1.24v-1.17a1.24 1.24 0 0 0-1.241-1.24M3.241 3.638h17.506a1.24 1.24 0 0 1 1.24 1.24v1.17a1.24 1.24 0 0 1-1.24 1.24H3.241A1.24 1.24 0 0 1 2 6.048v-1.17a1.24 1.24 0 0 1 1.241-1.24"/></svg>