<svg xmlns="http://www.w3.org/2000/svg" width="24" height="24" viewBox="0 0 24 24">
  <path id="Colore_riempimento_1" fill="#44739e" data-name="Colore riempimento 1" class="cls-1" d="m 1.993,17.964 v 1.172 a 1.243,1.243 0 0 0 1.244,1.243 h 6.815 V 16.721 H 3.237 a 1.243,1.243 0 0 0 -1.244,1.243 z m 18.784,-1.243 h -6.843 v 3.658 h 6.843 A 1.242,1.242 0 0 0 22.02,19.136 V 17.964 A 1.242,1.242 0 0 0 20.777,16.721 Z M 1.98,11.411 v 1.172 a 1.242,1.242 0 0 0 1.243,1.243 h 6.829 V 10.168 H 3.223 A 1.243,1.243 0 0 0 1.98,11.411 Z m 18.783,-1.243 h -6.829 v 3.658 h 6.829 a 1.243,1.243 0 0 0 1.244,-1.243 V 11.411 A 1.244,1.244 0 0 0 20.763,10.168 Z M 3.223,3.6210001 h 17.541 c 0.688622,0 1.243,0.554378 1.243,1.243 V 6.036 c 0,0.688622 -0.554378,1.243 -1.243,1.243 H 3.223 C 2.534378,7.279 1.98,6.724622 1.98,6.036 V 4.8640001 c 0,-0.688622 0.554378,-1.243 1.243,-1.243 z"/>
</svg>
