<svg xmlns="http://www.w3.org/2000/svg" viewBox="0 0 24 24"><path fill="#44739e" d="M16.039 11.824v-.142a.18.18 0 0 0-.141 0h-.059a.4.4 0 0 0-.223.153.35.35 0 0 0-.071.142.5.5 0 0 0 0 .235.4.4 0 0 0 0 .235c.071.153.176.2.318.118a.35.35 0 0 0 .188-.188.45.45 0 0 0 0-.306.35.35 0 0 1-.012-.247m2.866-2.189a1.74 1.74 0 0 0-.765-.835 5.9 5.9 0 0 0-2.353-.659l-.906-.082a3 3 0 0 1-.952-.106 1.5 1.5 0 0 1 .07-.718 6.5 6.5 0 0 1 1.082-1.988 4 4 0 0 1 .695-.694 1.5 1.5 0 0 1 .953-.129.68.68 0 0 0 .541-.106 1.18 1.18 0 0 0 0-.883 2.06 2.06 0 0 0-1.071-1.364L15.952 2h-.082a.6.6 0 0 0-.271.106c-.412.294-.188.812-.106 1.294a.94.94 0 0 1-.059.447 1.3 1.3 0 0 1-.4.459l-.447.47A7.4 7.4 0 0 0 13.352 7c-.071.212-.118.424-.176.647a4 4 0 0 0-.083.318l-1.329-.012a3.88 3.88 0 0 0-1.777-3.529 5 5 0 0 0-.717-.377 3 3 0 0 1-.671-.306 1.5 1.5 0 0 1-.471-.6 1.4 1.4 0 0 0-.294-.517.68.68 0 0 0-.647-.071.8.8 0 0 0-.259.165 1.1 1.1 0 0 0-.258.364 2.35 2.35 0 0 0 0 2.294.74.74 0 0 0 .411.306.66.66 0 0 0 .459-.223 1.85 1.85 0 0 1 .824-.671 1.93 1.93 0 0 1 1.306.294 2.95 2.95 0 0 1 1.27 2.871H9.764l-.977.082a19 19 0 0 0-1.941.365 2.52 2.52 0 0 0-1.612.953 2.87 2.87 0 0 0-.164 2.035 27 27 0 0 0 1.106 4.353 2.78 2.78 0 0 0 1.023 1.718 7.2 7.2 0 0 0 3.212.318 1.2 1.2 0 0 1 0 .294 5 5 0 0 1 0 .741 1.5 1.5 0 0 1-.412 1.012c-.129.117-.271 0-.412 0a2 2 0 0 0-.941-.106 3.14 3.14 0 0 0-1.541 1.07c-.153.177-.471.518-.259.789a1.61 1.61 0 0 0 1.282.411 7 7 0 0 0 .918-.282 13 13 0 0 0 1.294-.506c.259-.106.812-.306.918-.553s-.306-.765-.235-1.176c0-.189 0-.377.082-.553s.094-.624.176-.93a1.2 1.2 0 0 1 0-.235h.836a3.4 3.4 0 0 1 0 1.906c-.094.259-.177.471-.283.718s-.153.341-.117.364a1.2 1.2 0 0 0 .2.141c.188.106.376.2.588.295a8.2 8.2 0 0 0 1.965.741 1.68 1.68 0 0 0 1.176-.188.35.35 0 0 0 .141-.189 3 3 0 0 0-.211-.8 1.18 1.18 0 0 0-.659-.67 3 3 0 0 0-.8-.083l-.73-.07a2.4 2.4 0 0 1-.447-.106v-.388a4.7 4.7 0 0 1 .083-1.236 1.3 1.3 0 0 1 .141-.411l1.635.164c1.177.083 1.482-.153 1.918-.635a14.7 14.7 0 0 0 1.506-3.471c.211-.694.67-2.353.717-2.529a2.94 2.94 0 0 0-.035-1.671m-7.847.942a.28.28 0 0 1 .165-.165.39.39 0 0 1 .341 0c.165.082.306.306.447.694a4.7 4.7 0 0 1 .212.847 3.3 3.3 0 0 0 .364 1.082s.094-.07.294-.376a6.6 6.6 0 0 0 .471-.871c.153-.329.341-.717.4-.859a12 12 0 0 1 .612-1.258h.129a.35.35 0 0 1 .259.106v.164a26 26 0 0 1-.976 2.588 7 7 0 0 1-.471.965 3.7 3.7 0 0 1-.612.871.3.3 0 0 1-.27 0c-.13 0-.247-.2-.4-.53a6 6 0 0 1-.424-1.529c-.07-.282-.223-.859-.282-.988a1 1 0 0 0-.141-.224c-.142-.27-.177-.376-.118-.517m-1.071-.059a.47.47 0 0 1 .259-.259.4.4 0 0 1 .188 0 .22.22 0 0 1 .224.118.33.33 0 0 1 0 .235.8.8 0 0 0 0 .2c0 .153 0 .235-.106.282a1.7 1.7 0 0 1-.329 0h-.059c-.259-.059-.318-.329-.177-.576m-.141 1.741a.37.37 0 0 1 .33-.212c.141 0 .2 0 .294.235a1.5 1.5 0 0 1 .141.695v.752c0 .083 0 .13-.083.165a.3.3 0 0 1-.27 0 .4.4 0 0 1-.212-.153A1.8 1.8 0 0 1 9.928 13a2.4 2.4 0 0 0-.058-.435.47.47 0 0 1-.059-.306ZM8.67 10.988v.177c0 .082 0 .2-.071.317a9 9 0 0 0 .071 1.836c.07.4 0 .517-.177.611a.47.47 0 0 1-.306 0h-.07a.8.8 0 0 1-.13-.294 4.7 4.7 0 0 1 0-1.082 6.5 6.5 0 0 0 0-1.082 1.1 1.1 0 0 0-.353-.483h-.341a.7.7 0 0 1-.27 0 .47.47 0 0 1-.224-.176.3.3 0 0 1 0-.13.4.4 0 0 1 .106-.376h.4l.8-.094h1.2c.2 0 .223.07.235.306a.5.5 0 0 1 0 .129.2.2 0 0 1 0 .094c0 .106-.106.13-.459.2s-.388-.035-.435.047Zm6.27 4.153a3.9 3.9 0 0 1-1.423.918 4.1 4.1 0 0 1-1.53.259 6.1 6.1 0 0 1-2.082-.565c-.447-.224-.565-.294-.6-.424a.34.34 0 0 1 0-.294.294.294 0 0 1 .365-.141c.2.094.67.377.929.471a3.3 3.3 0 0 0 1.659.306 4 4 0 0 0 1.635-.377 7 7 0 0 0 .953-.588s.13-.129.212-.129a.17.17 0 0 1 .118 0c.117.2-.13.435-.259.564Zm1.871-2.976h-.094l-.071.153c0 .094-.082.259-.117.376-.106.377-.2.53-.365.612a.38.38 0 0 1-.247 0 1.2 1.2 0 0 1-.283 0 .92.92 0 0 1-.823-.553 1.4 1.4 0 0 1-.165-.647 1.18 1.18 0 0 1 .377-.906.98.98 0 0 1 .647-.212 1.5 1.5 0 0 1 .729.189c.412.2.6.411.6.67s-.082.247-.212.318Z"/></svg>