<svg xmlns="http://www.w3.org/2000/svg" viewBox="0 0 24 24"><path fill="#44739e" d="M2 12V8.383h20v7.234H2Zm4.797.664v-1.953h.764c.721 0 .77-.002.867-.032a.644.644 0 0 0 .422-.781.66.66 0 0 0-.467-.447c-.104-.028-4.24-.032-4.37-.004-.346.072-.575.397-.515.726a.63.63 0 0 0 .452.507c.093.028.148.031.802.031h.701v3.906h1.344Zm3.754.578.004-1.375.563.643c.309.354.595.678.635.718.233.233.675.241.909.017.033-.032.321-.355.641-.719l.58-.662.005 1.377.004 1.376h1.342l.004-2.285c.004-1.817 0-2.303-.015-2.371q-.042-.184-.255-.343c-.154-.116-.249-.15-.413-.147a.57.57 0 0 0-.37.127c-.04.032-.267.279-.502.55-.994 1.142-1.455 1.665-1.465 1.665a8 8 0 0 1-.36-.401l-.958-1.096a17 17 0 0 0-.664-.737.62.62 0 0 0-.721-.002.8.8 0 0 0-.275.29.4.4 0 0 0-.044.211c0 .069 0 1.119.003 2.332l.004 2.207h1.344Zm8.2 1.29c.628-.074 1.151-.334 1.622-.81l.162-.164-.107-.089a15 15 0 0 0-.726-.544l-.15-.103-.147.125c-.25.213-.404.3-.638.36a1.5 1.5 0 0 1-.697-.024 1.8 1.8 0 0 1-.512-.25c-.263-.211-.436-.571-.459-.96-.036-.615.339-1.131.956-1.316.154-.047.501-.059.669-.025.23.048.359.112.682.341.234.166.467.246.627.216a.52.52 0 0 0 .292-.178.52.52 0 0 0 .167-.401c0-.127-.003-.142-.069-.273a.9.9 0 0 0-.21-.281 2 2 0 0 0-.267-.225 3.1 3.1 0 0 0-1.032-.417 3.7 3.7 0 0 0-1.002.006 2.6 2.6 0 0 0-1.679 1.149c-.285.425-.375.709-.398 1.256-.021.492.023.732.203 1.103.291.601.686 1.01 1.218 1.261.483.229.958.305 1.494.243"/></svg>