<svg role="img" viewBox="0 0 24 24" xmlns="http://www.w3.org/2000/svg"><title>TMC</title>
    <path
       d="m 0,12.000005 v -4.34063 h 12 12 v 4.34063 4.34062 H 12 0 Z m 5.75625,0.79687 v -2.34375 h 0.91677 c 0.86617,0 0.92353,-0.002 1.03914,-0.0378 0.38891,-0.12012 0.6223,-0.55157 0.50767,-0.93849 -0.0781,-0.26359 -0.28612,-0.46245 -0.56046,-0.53573 -0.12486,-0.0334 -5.08698,-0.0377 -5.24438,-0.005 -0.41464,0.0872 -0.69023,0.47647 -0.61735,0.87197 0.0547,0.29706 0.25184,0.51778 0.5426,0.60758 0.11193,0.0346 0.17633,0.0371 0.96174,0.0371 h 0.84177 v 2.34375 2.34375 H 4.95 5.75625 Z m 4.50459,0.69347 0.005,-1.65028 0.675,0.77241 c 0.37125,0.42482 0.71465,0.81224 0.76312,0.86094 0.27888,0.28021 0.80869,0.29024 1.09024,0.0206 0.0397,-0.038 0.3856,-0.42625 0.76875,-0.86282 l 0.69664,-0.79377 0.005,1.65158 0.005,1.65158 h 0.80567 0.80567 l 0.005,-2.74218 c 0.004,-2.17979 2.3e-4,-2.76334 -0.0189,-2.84532 -0.0343,-0.14711 -0.13521,-0.28299 -0.3053,-0.41116 -0.18485,-0.13928 -0.29854,-0.17992 -0.49565,-0.17717 -0.17922,0.002 -0.31481,0.049 -0.4441,0.15245 -0.0483,0.0386 -0.31935,0.33604 -0.60229,0.66089 -1.19318,1.36989 -1.74532,1.99687 -1.7585,1.99687 -0.008,0 -0.20242,-0.21597 -0.43269,-0.47993 -0.23027,-0.26396 -0.74679,-0.85636 -1.14784,-1.31645 -0.40104,-0.46008 -0.75964,-0.85755 -0.79687,-0.88325 -0.26843,-0.18532 -0.59421,-0.18616 -0.86458,-0.002 -0.16056,0.10923 -0.26702,0.22106 -0.33081,0.34748 -0.0436,0.0865 -0.0521,0.12738 -0.0528,0.25313 -4.2e-4,0.0825 10e-4,1.3418 0.004,2.79844 l 0.005,2.64843 h 0.80615 0.80615 z m 9.83927,1.54786 c 0.75468,-0.0883 1.38189,-0.40143 1.94737,-0.97206 l 0.19435,-0.19612 -0.12873,-0.10714 c -0.16502,-0.13735 -0.63898,-0.49261 -0.87119,-0.65302 l -0.17996,-0.12431 -0.17629,0.15056 c -0.30015,0.25635 -0.48485,0.36043 -0.76572,0.43145 -0.22425,0.0567 -0.59283,0.0442 -0.83557,-0.0283 -0.21733,-0.0649 -0.47739,-0.19238 -0.6139,-0.30089 -0.31656,-0.25161 -0.52419,-0.68473 -0.55164,-1.1507 -0.0434,-0.73733 0.40709,-1.35785 1.14747,-1.58042 0.18435,-0.0554 0.6007,-0.0702 0.80249,-0.0284 0.27653,0.0572 0.43058,0.13419 0.81871,0.40926 0.2807,0.19893 0.55962,0.29489 0.75142,0.25852 0.13025,-0.0247 0.23041,-0.0856 0.35142,-0.21351 0.14802,-0.1565 0.20029,-0.2822 0.20025,-0.48147 0,-0.15241 -0.004,-0.16965 -0.0828,-0.32812 -0.0681,-0.1375 -0.1131,-0.19747 -0.25309,-0.33702 -0.0937,-0.0934 -0.23779,-0.21423 -0.3203,-0.26857 -0.34374,-0.22642 -0.8397,-0.42749 -1.2375,-0.50169 -0.28564,-0.0533 -0.94037,-0.0489 -1.20308,0.008 -0.86032,0.18662 -1.51976,0.63776 -2.01498,1.3785 -0.34138,0.51064 -0.44877,0.85008 -0.47676,1.50699 -0.0252,0.59072 0.0277,0.87845 0.24322,1.32371 0.34941,0.72184 0.8235,1.21289 1.46159,1.51388 0.57951,0.27335 1.15082,0.36599 1.79325,0.29078 z"
       fill="#44739e" />
</svg>
