<svg xmlns="http://www.w3.org/2000/svg" viewBox="0 0 24 24"><path fill="#44739e" d="M20.214 9.191a1.54 1.54 0 0 0-.39-.577 1.6 1.6 0 0 0-.595-.38l-2.466-.901a.73.73 0 0 1-.435-.931l.815-2.24a1.608 1.608 0 0 0-1.269-2.143 1.6 1.6 0 0 0-.924.132 1.57 1.57 0 0 0-.821.905l-.821 2.266a.74.74 0 0 1-.932.44l-2.436-.86a1.643 1.643 0 0 0-2.084.871 1.6 1.6 0 0 0 .934 2.14l1.675.588-1.707 1.038a1.653 1.653 0 0 0-.632 2.165 1.58 1.58 0 0 0 .865.754l.119.037a1.58 1.58 0 0 0 1.286-.17l2.051-1.247a.56.56 0 0 1 .244-.08.6.6 0 0 1 .252.031.6.6 0 0 1 .214.137.6.6 0 0 1 .132.215l.745 2.218a1.65 1.65 0 0 0 1.568 1.13 1.7 1.7 0 0 0 .398-.047 1.6 1.6 0 0 0 .581-.3 1.6 1.6 0 0 0 .41-.5 1.6 1.6 0 0 0 .183-.624 1.6 1.6 0 0 0-.079-.642l-.653-1.991 1.664.6a1.6 1.6 0 0 0 .911.086 1.6 1.6 0 0 0 .809-.426 1.61 1.61 0 0 0 .391-1.7Zm-1.126.954a.54.54 0 0 1-.274.144.6.6 0 0 1-.338-.035l-1.8-.652a1 1 0 0 0-.544-.039 1 1 0 0 0-.492.265 1 1 0 0 0-.263.47 1 1 0 0 0 .023.543l.7 2.113a.6.6 0 0 1 .028.224.5.5 0 0 1-.063.211.6.6 0 0 1-.147.18.5.5 0 0 1-.175.1.6.6 0 0 1-.443-.065.6.6 0 0 1-.276-.336l-.747-2.223a1.6 1.6 0 0 0-.379-.614 1.6 1.6 0 0 0-1.154-.482 1 1 0 0 0-.16.008 1.6 1.6 0 0 0-.685.226l-2.056 1.251a.5.5 0 0 1-.215.077.6.6 0 0 1-.28-.035.53.53 0 0 1-.29-.244.6.6 0 0 1-.038-.437.62.62 0 0 1 .276-.354l1.814-1.1a1 1 0 0 0 .374-.4.99.99 0 0 0-.1-1.048 1 1 0 0 0-.451-.327l-1.8-.631a.5.5 0 0 1-.188-.115.6.6 0 0 1-.128-.18.58.58 0 0 1-.005-.434.6.6 0 0 1 .311-.3.6.6 0 0 1 .452 0l2.447.865a1.785 1.785 0 0 0 2.265-1.068l.825-2.275a.5.5 0 0 1 .107-.181.5.5 0 0 1 .165-.123.6.6 0 0 1 .328-.048.57.57 0 0 1 .293.141.56.56 0 0 1 .148.605l-.817 2.246a1.78 1.78 0 0 0 1.065 2.252l2.466.9a.6.6 0 0 1 .208.133.7.7 0 0 1 .147.188.6.6 0 0 1 .021.32.56.56 0 0 1-.155.284m-.159 5.038a1.15 1.15 0 0 0-1.44.623 5.931 5.931 0 0 1-11.146-4.054 1.153 1.153 0 0 0-1.568-1.364 1.16 1.16 0 0 0-.6.6 8.23 8.23 0 0 0 4.924 10.518 8.24 8.24 0 0 0 10.555-4.939 1.14 1.14 0 0 0-.089-.838 1.16 1.16 0 0 0-.636-.546m-9.868 6.331"/></svg>