<?xml version="1.0" encoding="UTF-8"?>
<svg width="24px" height="24px" viewBox="0 0 24 24" version="1.1" fill="#44739e" xmlns="http://www.w3.org/2000/svg" xmlns:xlink="http://www.w3.org/1999/xlink">
            <path d="m 19.869141,1.9902344 -0.679688,0.039062 -14.7597655,1.0507812 -0.4492187,0.039063 0.1386718,4.5605469 0.2910156,10.4804685 0.011719,0.523438 15.068359,3.226562 0.01953,-0.699218 z m 0.171875,0.048828 -0.390625,19.7167965 0.169921,-0.166015 0.419922,-19.480469 z M 18.513672,3.6054688 18.466797,6.8769531 5.4941406,6.9648438 5.4667969,4.2558594 Z m -13.4101564,0.6679687 0.037109,2.9746094 13.322266,-0.021484 -0.0059,0.34375 -13.6093748,-0.095703 -0.023437,-3.1875 z m -0.5625,4.2734375 0.3085938,0.00977 0.2402344,9.4941404 13.7773442,2.794922 -0.0039,0.234375 L 4.7753906,18.234375 Z M 5.1933594,8.5664062 19.070312,8.9804688 18.873047,20.558594 5.4628906,17.894531 Z"></path>

</svg>