<?xml version="1.0" encoding="UTF-8"?>
<svg width="24px" fill="#44739e" height="24px" viewBox="0 0 24 24" version="1.1" xmlns="http://www.w3.org/2000/svg" xmlns:xlink="http://www.w3.org/1999/xlink">
            <path d="m 21.716999,16.974001 a 0.514,0.38499999 0 0 1 -0.514,0.385 0.514,0.38499999 0 0 1 -0.514,-0.385 0.514,0.38499999 0 0 1 0.514,-0.385 0.514,0.38499999 0 0 1 0.514,0.385 z M 15.605,14.586 h -1.078 v 1.387 c 0,1.027 0.1,1.386 0.359,1.386 0.259,0 0.411,-0.359 0.463,-1.1 0.052,-0.741 0.205,-1.078 0.462,-1.078 0.257,0 0.411,0.334 0.462,1.078 0.077,0.9 0.18,1.1 0.591,1.1 0.411,0 0.487,-0.179 0.487,-1.129 0,-1.361 -0.333,-1.669 -1.746,-1.644 z m 2.722,0.052 a 1.6,1.6 0 0 0 -0.1,2.593 1.5,1.5 0 0 0 2.128,-2.031 1.48,1.48 0 0 0 -2.028,-0.562 z m 0.693,2.079 c -0.59,0 -0.821,-0.77 -0.359,-1.309 0.462,-0.565 0.873,-0.283 0.873,0.565 0,0.565 -0.129,0.744 -0.514,0.744 z m -8.627,-1.36 c 0.771,0.462 1.027,-0.026 0.308,-0.591 -0.667,-0.539 -0.693,-0.539 -1.489,-0.231 a 1.537,1.537 0 0 0 -0.744,0.9 c -0.386,1.591 1.206,2.773 2.285,1.72 0.642,-0.642 0.385,-1.079 -0.36,-0.616 -0.642,0.41 -1,0.2 -1,-0.591 0,-0.791 0.358,-1.002 1,-0.591 z m -3.569,0.795 c 0.771,0.206 1.284,-0.025 1.284,-0.59 0,-0.8 -1.078,-1.335 -1.977,-1 -1.181,0.436 -0.976,2.619 0.283,2.952 0.667,0.154 1.694,-0.256 1.694,-0.693 0,-0.154 -0.359,-0.231 -0.822,-0.18 C 6.773,16.693 6.439,16.59 6.362,16.359 6.285,16.1 6.388,16.05 6.824,16.152 Z m -0.359,-0.9 c 0.18,-0.283 0.667,-0.154 0.8,0.231 0.077,0.18 -0.1,0.231 -0.411,0.154 C 6.543,15.56 6.388,15.408 6.465,15.254 Z M 4.257,14.535 q -0.771,0 -0.771,-0.385 A 0.394,0.394 0 0 0 3.101,13.765 c -0.308,0 -0.385,0.359 -0.385,1.643 0,1.926 0.385,2.439 1.489,2.054 0.54,-0.18 0.719,-0.437 0.771,-1.078 0.051,-0.591 -0.026,-0.822 -0.308,-0.822 -0.206,0 -0.411,0.257 -0.463,0.565 C 4.077,17 3.615,16.846 3.538,15.87 3.461,15.1 3.512,15.048 4.231,15.048 c 0.437,0 0.8,-0.128 0.8,-0.256 C 5.027,14.638 4.693,14.535 4.257,14.535 Z m 8.781,-0.051 c -0.642,0 -0.8,-0.1 -0.873,-0.565 -0.051,-0.334 -0.206,-0.539 -0.385,-0.488 -0.231,0.077 -0.334,0.719 -0.334,2.028 0,1.515 0.077,1.9 0.385,1.9 0.257,0 0.385,-0.257 0.385,-0.744 0,-1 0.231,-1.567 0.668,-1.567 0.257,0 0.359,0.334 0.359,1.156 0,0.976 0.077,1.155 0.514,1.155 0.437,0 0.513,-0.179 0.513,-1.1 0,-1.416 -0.282,-1.801 -1.232,-1.775 z m 3.055,-1.823 a 2.033,2.033 0 0 0 2.439,-1.387 2.364,2.364 0 0 0 -2,-3.466 c -0.462,0 -1.335,0.026 -1.926,0.026 -1.027,0 -1.1,0.051 -1.1,0.718 C 13.48,9.194 13.455,9.22 13.224,8.809 A 3.018,3.018 0 0 0 10.63,7.782 3.18,3.18 0 0 0 9.418,8.4 C 8.776,9.017 8.647,9.017 8.801,8.4 8.901,7.99 8.776,7.887 8.082,7.81 7.441,7.759 7.182,7.579 7.082,7.142 6.954,6.577 6.877,6.629 5.747,7.784 4.385,9.169 4.282,9.4 5.027,9.4 c 0.437,0 0.514,0.18 0.514,1.232 0,1.72 0.564,2.208 2.233,2 a 6.129,6.129 0 0 1 2.7,-0.026 2.513,2.513 0 0 0 2.516,-0.693 l 0.514,-0.565 v 2.773 l 0.847,-0.8 c 0.69,-0.635 0.972,-0.763 1.742,-0.66 z M 8.57,10.221 C 8.442,11.685 7.107,11.454 7.081,9.965 7.081,9.502 7.209,9.4 7.881,9.4 8.6,9.4 8.647,9.451 8.57,10.221 Z m 2.645,0.848 A 0.96,0.96 0 0 1 10.239,9.811 c 0.129,-0.309 0.411,-0.411 0.873,-0.36 0.616,0.077 0.719,0.206 0.719,0.847 0,0.641 -0.103,0.771 -0.616,0.771 z m 4.057,-1.258 a 1.208,1.208 0 0 1 0.8,-0.411 1.212,1.212 0 0 1 0.8,0.411 c 0.436,0.539 0,1.258 -0.8,1.258 -0.8,0 -1.237,-0.719 -0.8,-1.258 z"/>

</svg>