<?xml version="1.0" encoding="UTF-8"?>
<svg width="24px" height="24px" viewBox="0 0 24 24" version="1.1" fill="#44739e" xmlns="http://www.w3.org/2000/svg" xmlns:xlink="http://www.w3.org/1999/xlink">
            <path d="M 18.833594,20.569219 5.36125,17.929219 5.1065625,8.5478125 4.8226562,8.5439062 5.09,18.05 18.829687,20.792656 Z M 20.06,2.0465625 19.685625,21.72 19.878594,21.465 20.259531,2.1373438 Z M 3.3725086,6.5062543 3.15,6.93 H 16.98 L 17.19,6.38 Z M 17.6,6.93 18.88,3.48 18.28,3.5 16.98,6.93 Z M 3.15,6.93 4.76,4.15 4.39,4.17 2.74,6.93 Z M 19.03,3.08 4.58,3.86 4.39,4.17 18.88,3.48 Z M 3.21,7.44 17.94,7.62 18.95,4.81 19.149219,4.2045312 19.164844,3.3682813 17.75,7.23 2.96,7.14 Z M 3.7757813,6.504375 4.1689062,6.5009375 5.19,4.71 18.01,4.2104688 l 0.149531,-0.37 L 4.96,4.42 Z m 0.9549999,-0.2309375 0.2957813,0.00391 -0.010469,-0.84 L 4.7229685,5.96391 Z M 4.788125,7.6860938 5.09,7.6900001 V 7.8221876 L 4.788125,7.8182814 Z M 4.43,3.08 V 3.67 L 19.177813,2.8421875 19.19,2.03 Z M 4.03,4.32 4.43,3.67 V 3.08 L 3.98,3.12 Z M 19.19,2.03 18.824375,21.072188 19.51,21.21 19.87,1.99 Z M 4.5362543,8.54 19.09,8.98 V 8.28 L 4.53,7.97 Z M 4.834375,18.246094 4.52,7.69 H 4.12 L 4.41,18.16 Z M 19.49,21.91 4.434375,18.68 4.41,18.16 l 15.1,3.05 z"></path>

</svg>