<svg xmlns="http://www.w3.org/2000/svg" viewBox="0 0 24 24"><path fill="#44739e" d="m13.729 9.301-.98 1.245a2.4 2.4 0 0 1 .612.667 2.4 2.4 0 0 1 .271.863l1.569-.226a3.83 3.83 0 0 0-1.472-2.549m1.894-2.507-.98 1.246a5.26 5.26 0 0 1 2.108 3.654l1.569-.226a7 7 0 0 0-2.699-4.674Zm5.036.207A9.999 9.999 0 1 0 17 20.659a10 10 0 0 0 3.659-13.658M16.411 19.64A8.821 8.821 0 1 1 19.64 7.59a8.82 8.82 0 0 1-3.229 12.05m-5.089-8.032a.786.786 0 0 0-.786.784.785.785 0 0 0 1.57 0 .786.786 0 0 0-.784-.784m-3.61-.756a3.14 3.14 0 1 0 3.14 5.437l-1.57-2.719Z"/></svg>