<?xml version="1.0" encoding="UTF-8" standalone="no"?>
<!-- Created with Inkscape (http://www.inkscape.org/) -->

<svg
   width="24"
   height="24"
   viewBox="0 0 24 24"
   version="1.1"
   xmlns="http://www.w3.org/2000/svg"
   xmlns:svg="http://www.w3.org/2000/svg">
  <path
     style="fill:#44739e"
     d="m 18.579534,7.6750167 c 0,0.1907091 0.682892,0.4736267 0.547548,2.1100582 0,0 -0.203039,1.3657891 -0.547548,1.7102981 h 1.56875 c -0.338358,-0.412184 -0.541396,-1.574956 -0.270711,-1.7102981 0,0 0.209263,-0.1352505 0.344606,0.06775 0,0 0.233751,0.1906421 0.344486,0.4797851 0.270687,0.682869 0.06765,1.045863 0.06765,1.162747 H 22 c -0.01231,-0.19071 -0.34451,-0.473702 -0.615196,-0.953554 -0.227622,-0.399885 -0.39983,-0.9966708 -0.412133,-1.0951045 0,0 0.553676,-0.4182349 0.615196,-0.8857868 C 21.643233,8.1794853 21.446419,7.7426752 21.175733,7.675 Z m 1.333125,0.5397437 c 0.155686,-0.00333 0.774739,0.01925 0.715526,0.6167607 -0.02461,0.2891429 -0.615268,0.5475439 -0.750612,0.5475439 0,0 0.06777,-0.2830095 0.06777,-0.5475439 0,-0.2399342 -0.06777,-0.6152024 -0.06777,-0.6152024 0,0 0.01284,-8.333e-4 0.03508,-0.00167 z M 12.126103,7.6750167 c 0.0123,0.4306349 0.615245,0.9535537 0.479901,2.1839585 -0.110735,0.9843118 -0.412133,1.6425318 -0.412133,1.6425318 0.436789,0 1.310272,0.04308 1.777821,0 0.750539,-0.06767 1.378111,-0.965821 1.365806,-1.9808915 -0.0062,-0.8428282 -0.682843,-1.6425814 -1.298039,-1.8455988 z m 1.224265,0.7013526 c 0,0 0.996689,0.301393 1.027449,1.0273291 0.02461,0.7813036 -0.615244,0.9596616 -0.818259,1.0273376 0,0 -4.8e-5,0.270684 -0.203063,-0.6152027 -0.135342,-0.5659772 -0.0062,-1.439464 -0.0062,-1.439464 z M 9.4192405,7.6750167 c 0,0.086126 0.1353912,0.3445097 -0.1352952,1.2303964 C 9.025563,9.7666915 8.3980391,11.378464 8.3980391,11.501507 H 9.6960788 C 9.6776229,11.280031 9.4192645,10.338802 9.966789,10.20346 c 0.116887,-0.03075 0.399902,-0.07383 0.547549,0.135292 0.239926,0.338359 0.412133,1.101229 0.412133,1.162754 h 1.2674 c 0,0 0.0053,-0.01142 0.01466,-0.03367 C 12.101116,11.242397 11.482067,9.9309504 11.123405,8.9053965 10.914238,8.2902024 11.012598,7.7488252 10.98799,7.675 Z M 10.17598,8.6285704 c 0.270686,1.0273873 0.615243,1.0949875 0.479901,1.0949875 H 9.7699742 c 0,0 0.1907348,-0.3198095 0.2707098,-0.5474354 0.07382,-0.2091508 0.135286,-0.5474938 0.135296,-0.5475521 z M 5.2236514,7.6750167 c 0,0.1907091 0.6828917,0.4736267 0.5475486,2.1100582 0,0 -0.2030387,1.3657891 -0.5475486,1.7102981 h 1.56875 C 6.4540436,11.083189 6.2510048,9.9204171 6.5216911,9.7850749 c 0,0 0.2091427,-0.1352505 0.3444858,0.06775 0,0 0.2338705,0.1906421 0.3446058,0.4797851 0.2706862,0.682869 0.067647,1.045863 0.067647,1.162747 H 8.398399 C 8.402269,11.459106 8.435751,11.352564 8.488275,11.199414 8.3642764,11.032997 8.186219,10.820646 8.0289214,10.541803 7.8012988,10.141918 7.6290919,9.5451323 7.616788,9.4466985 c 0,0 0.5536764,-0.4182349 0.615196,-0.8857867 C 8.2873515,8.1794853 8.090417,7.7426752 7.8197307,7.675 Z m 1.3331249,0.5397437 c 0.1556859,-0.00333 0.7747386,0.01925 0.715526,0.6167607 -0.024608,0.2891429 -0.615268,0.5475439 -0.7506112,0.5475439 0,0 0.067647,-0.2830095 0.067647,-0.5475439 0,-0.2399342 -0.067647,-0.6152024 -0.067647,-0.6152024 0,0 0.012845,-8.333e-4 0.035085,-0.00167 z M 15.417403,7.6750167 c 0,0.092284 0.412253,1.1134376 0.412253,2.0485412 0,0.8735781 -0.412253,1.6733651 -0.412253,1.7779491 h 2.663846 l 0.264583,-1.365697 c -0.332206,0.01233 -1.088898,0.547526 -1.56875,0.615202 -0.449094,0.0615 -0.356839,-0.762828 -0.270711,-0.959687 0.08613,-0.1907091 0.750467,0.067667 0.818139,0.067667 v -0.75062 c -1.058137,0.2645346 -1.131937,-0.252209 -0.682843,-0.6828441 0.246078,-0.2399258 1.458062,0.4737519 1.710292,0.4799019 l -0.27071,-1.2303965 z m -12.7345594,0 L 2,9.379065 C 2.3383578,9.1083806 2.479925,8.8992381 2.7506113,8.6962206 c 0,0 0.2152946,-0.1168587 0.3444858,-0.067667 0.1414951,0.0615 0.2029426,0.344493 0.2029426,0.344493 0.067672,0.2706841 -0.067672,1.2980464 -0.6151961,2.5284434 H 4.6638471 C 4.1839942,10.135743 3.8395083,8.9053715 4.3193613,8.6346871 c 0,0 0.2029907,-0.073833 0.3444858,0.067667 0.1353431,0.1353422 0.4183092,0.4921269 0.6828436,0.6828444 L 4.7314946,7.6750167 Z m 7.5575394,4.7506023 c -0.9104898,0 -1.6425252,0.873537 -1.6425252,1.950132 0,1.076596 0.7320347,1.944099 1.6425252,1.950249 0.91049,0 1.642525,-0.873653 1.642525,-1.950249 0,-1.076595 -0.738186,-1.950132 -1.642525,-1.950132 z m -0.209191,1.162754 c 0.455246,0 0.81826,0.369043 0.81826,0.818137 0,0.455252 -0.369167,0.818261 -0.81826,0.818261 -0.4552451,0.0058 -0.8181382,-0.363009 -0.8181382,-0.818261 0,-0.455244 0.3690451,-0.818137 0.8181382,-0.818137 z M 6.5799668,12.425619 c 0.4121814,0.276842 1.3657353,1.574864 0.5536764,2.596093 -0.2522304,0.326051 -1.3657594,-0.06758 -0.547549,-0.818145 -0.2091664,0.06767 -1.4395104,0.73817 -1.6425252,0.818145 0,0 0.5474764,0.135392 0.7504911,0.479902 0.153799,0.258384 0.2953422,0.486009 0.4799011,0.615202 0.3199019,0.227618 0.7812266,0.239901 1.0949765,0.06767 0.633652,-0.35681 0.9228181,-0.769045 0.8859064,-1.710299 -0.067672,-1.636422 0.8859062,-1.993165 0.8859062,-2.04854 z m 5.3214452,0 c 0,0.09228 0.412134,1.113437 0.412134,2.04854 0,0.873587 -0.412133,1.673366 -0.412134,1.77795 h 2.663848 l 0.264462,-1.365689 c -0.332206,0.01233 -1.088898,0.547518 -1.56875,0.615194 -0.449094,0.0615 -0.356839,-0.76282 -0.270711,-0.959687 0.08613,-0.190709 0.750587,0.06767 0.818259,0.06767 v -0.750612 c -1.058137,0.264534 -1.131937,-0.252209 -0.682843,-0.682853 0.246078,-0.239925 1.457942,0.473752 1.710172,0.47991 L 14.56526,12.425636 Z m 3.458315,-0.261693 c -0.106554,0.0025 -0.196286,0.03183 -0.24704,0.071 -0.615195,0.479852 0.270711,1.094979 0.270711,1.094979 l -0.135295,0.547552 c 0,0 1.051961,-0.965887 0.682844,-1.439588 -0.169179,-0.211476 -0.393629,-0.27876 -0.571219,-0.273951 z m 2.20281,0.222526 c -0.306576,0.0017 -0.625696,0.04917 -0.874851,0.199101 -0.31375,0.190708 -0.578357,0.58441 -0.566053,0.959686 0.02461,0.473702 0.172304,0.689087 0.295343,0.812128 0.406029,0.412186 0.47978,0.203019 0.818138,0.615203 0.22147,0.270684 -0.135343,0.547427 -0.338358,0.547427 -0.449093,0 -0.529069,-0.811986 -0.615196,-0.818144 l -0.547428,1.568755 c 0.203015,0.08613 0.479853,-0.06775 0.615196,-0.135408 0.479853,0.06767 0.344414,0.135408 1.162625,0.135408 0.750539,0 1.230391,-0.184601 1.230391,-1.095096 0,-0.682868 -0.547427,-1.095078 -0.885786,-1.162746 -0.479852,-0.09228 -0.615244,-0.47981 -0.479901,-0.750494 0.08613,-0.1538 0.289167,-0.203068 0.547549,-0.203068 0.34451,0 0.436716,0.160001 0.479781,0.203068 0.06767,0.06767 0.221518,0.35066 0.203062,0.615194 L 19.35754,12.44401 c -0.135343,-0.05533 -0.615148,0.203109 -0.750491,0.06775 -0.05767,0 -0.53355,-0.127425 -1.044512,-0.125325 z" />
</svg>
