<svg xmlns="http://www.w3.org/2000/svg" viewBox="0 0 24 24"><path fill="#44739e" d="m15.412 4.7-5.075 5.061 7.637 7.627h.009A8.06 8.06 0 0 0 15.412 4.7m-4.5 5.071 4.6-4.6.565.567-4.6 4.6Zm1.382 1.455v-.007l-.563-.562 3.987-3.991.567.573ZM12 2a10 10 0 1 0 10 10A10.015 10.015 0 0 0 12 2m0 18.991A8.991 8.991 0 1 1 20.991 12 9 9 0 0 1 12 20.991m-5.924-3.548a8.07 8.07 0 0 0 9.28 1.865l-5.583-5.567Zm3.681-7.073-.006-.007-4.229 4.212-.566-.567 9.638-9.635A8.07 8.07 0 0 0 3.946 12a7.98 7.98 0 0 0 1.618 4.834l4.212-4.212.3.273 6.039 6.038a3 3 0 0 0 .348-.221l-6.69-6.67-4.042 4.046-.567-.566 4.612-4.613.3.277 7.05 7.032c.111-.085.212-.182.313-.263l-7.613-7.6Z"/></svg>