<svg xmlns="http://www.w3.org/2000/svg" viewBox="0 0 24 24"><path fill="#44739e" d="M10.87 2a.5.5 0 0 0-.39.217c-.053.071-.084.129-.119.188H7.267c-.663 0-1.263.102-1.732.288a1.9 1.9 0 0 0-.603.362c-.167.156-.302.375-.302.634v.935c0 .259.134.478.302.635.164.156.369.268.603.36.469.186 1.069.289 1.732.289h2.725v1.894H5.703l-.005.005c-.749-.018-1.421.576-1.492 1.344l-.001.003v.015c-.395 3.228-.982 6.481-1.283 9.744l-.001.011v.004l-.002.025v1.387c.018.878.611 1.53 1.318 1.655h.002l.02.003.029.002h15.5c.306-.008.619-.113.871-.329.257-.221.432-.567.422-.973v-1.764l-.002-.026-1.397-9.487q0-.013-.003-.026c-.144-.739-.746-1.492-1.642-1.589l-.011-.002-.024-.001h-4.047V5.908h2.732c.662 0 1.262-.103 1.731-.288.234-.093.44-.205.606-.36.167-.158.301-.377.301-.636v-.935c0-.259-.134-.478-.301-.634a1.8 1.8 0 0 0-.606-.362c-.469-.186-1.069-.288-1.731-.288h-3.101c-.035-.059-.064-.116-.116-.186A.5.5 0 0 0 13.077 2Zm0 .793h2.207c.06 0 .085.024.085.084v10.642c0 .059-.025.084-.085.084H10.87c-.06 0-.085-.025-.085-.084V7.976h-.001V2.877c0-.058.026-.084.086-.084M5.688 8.596h4.304v.501h-3.09c-.351 0-.66.143-.88.364a1.76 1.76 0 0 0-.435.793l-.004.015-.002.018-.851 7.17-.003.005-.001.027c-.008.384.107.728.334.978.226.248.541.382.869.418h.007l.025.002 12.202-.046a1.01 1.01 0 0 0 .867-.429c.187-.27.255-.614.241-.996v-.013l-.002-.027-1.083-7.237-.006-.023-.005-.018-.002-.003c-.193-.607-.819-1.019-1.488-.998h-2.73v-.501h3.997c.465.05.867.536.948.95l1.389 9.433v1.743c.004.182-.046.26-.146.346a.65.65 0 0 1-.376.138H4.366c-.316-.06-.641-.347-.654-.877v-1.343c.298-3.221.882-6.469 1.279-9.73l-.003.009.005-.021V9.24l.002-.021v.015l.002-.008a.7.7 0 0 1 .243-.445c.136-.12.309-.19.448-.184M6.902 9.89h3.081l-.858 5.006H7.371a.174.174 0 0 0-.094.319l4.343 2.79a.17.17 0 0 0 .18.005l4.85-2.79c.155-.087.092-.323-.085-.324h-1.822l-.781-5.006h2.747a.8.8 0 0 1 .444.146c.134.09.231.213.259.297l1.065 7.119c.008.262-.05.439-.098.509-.062.088-.064.093-.191.088h-.009l-12.167.045c-.177-.02-.288-.077-.364-.159-.077-.085-.132-.201-.128-.422v-.005l.838-7.054v-.002a1 1 0 0 1 .227-.427.39.39 0 0 1 .317-.135m4.831 7.244q-15.399-23.5 0 0m-6.244 1.79a.417.417 0 0 0-.397.404c0 .209.187.403.397.403s.397-.194.398-.404a.417.417 0 0 0-.398-.402m.85 0a.413.413 0 0 0-.395.4.413.413 0 0 0 .395.395h12.559a.413.413 0 0 0 .398-.397.413.413 0 0 0-.398-.397Z"/></svg>