<?xml version="1.0" encoding="UTF-8" standalone="no"?>
<!-- Created with Inkscape (http://www.inkscape.org/) -->
<!-- path d="..." is unique for each icon -->

<svg
   width="24"
   height="24"
   viewBox="0 0 24 24"
   version="1.1"
   xmlns="http://www.w3.org/2000/svg"
   xmlns:svg="http://www.w3.org/2000/svg">
   <path
     style="fill:#44739e"
         d="m 10.851563,0.52148437 c -0.20185,0 -0.357132,0.1272765 -0.44336,0.24609375 -0.05934,0.0817703 -0.09506,0.14760694 -0.134765,0.21484376 H 6.7480469 c -0.7549135,0 -1.4388207,0.11667092 -1.9726563,0.32812502 -0.2670233,0.1057688 -0.5005459,0.2364868 -0.6875,0.4121093 -0.1901583,0.1786327 -0.34375,0.4273629 -0.34375,0.7226563 v 1.0644531 c 0,0.2952934 0.1529791,0.5454012 0.34375,0.7246094 0.1875668,0.176198 0.4212994,0.3047133 0.6875,0.4101562 0.5338356,0.2114541 1.2177428,0.328125 1.9726563,0.328125 H 9.8515625 V 7.1308594 H 4.9667969 c -0.00199,0.00191 -0.00395,0.00387 -0.00586,0.00586 -0.853256,-0.019199 -1.6188723,0.656258 -1.6992181,1.5312494 -1.354e-4,0.00147 -0.00182,0.00243 -0.00195,0.00391 -8.05e-5,0.00326 -8.05e-5,0.00651 0,0.00977 -5.14e-5,0.0026 -5.14e-5,0.00521 0,0.00781 C 2.8105865,12.36596 2.1420834,16.071209 1.7988281,19.789062 l -0.00195,0.01172 c -1.184e-4,0.0013 1.183e-4,0.0026 0,0.0039 -0.00138,0.0097 -0.00203,0.0195 -0.00195,0.0293 v 1.574219 0.002 c -1.28e-5,0.0013 -1.28e-5,0.0026 0,0.0039 0.021353,0.999032 0.6959815,1.743128 1.5019531,1.884766 6.5e-4,3e-6 0.0013,3e-6 0.00195,0 l 0.023437,0.0039 c 0.010992,0.0016 0.022099,0.0023 0.033203,0.002 h 17.6464838 0.0039 c 0.002,2.9e-5 0.0039,2.9e-5 0.0059,0 0.348038,-0.0087 0.705223,-0.12836 0.992187,-0.375 0.292062,-0.251021 0.492492,-0.645757 0.480469,-1.107421 V 19.8125 c 6.1e-5,-0.0098 -6.07e-4,-0.0196 -0.002,-0.0293 L 20.890625,8.9746094 c -5.67e-4,-0.00985 -0.0019,-0.019642 -0.0039,-0.029297 C 20.722564,8.1033669 20.036179,7.2442576 19.017578,7.1347656 l -0.01367,-0.00195 c -0.0091,-0.00128 -0.01819,-0.00193 -0.02734,-0.00195 h -4.60938 V 4.9726562 h 3.111328 c 0.754913,0 1.43882,-0.1166709 1.972656,-0.328125 0.265875,-0.1053139 0.501311,-0.2334174 0.689453,-0.4101562 0.190772,-0.1792084 0.34375,-0.4293164 0.34375,-0.7246094 V 2.4453125 c 0,-0.295293 -0.15359,-0.5440233 -0.34375,-0.7226563 C 19.95308,1.5465226 19.717876,1.4161894 19.451172,1.3105469 18.917336,1.0990928 18.233429,0.98242188 17.478516,0.98242188 h -3.53125 C 13.907845,0.91464457 13.873023,0.84974822 13.814453,0.76953125 13.726791,0.64947045 13.570229,0.52148438 13.367188,0.52148437 Z m 0,0.90234373 h 2.515625 c 0.06738,0 0.0957,0.028316 0.0957,0.095703 -3e-6,6.5e-4 -3e-6,0.0013 0,0.00195 v 3 2.8066406 1.9570313 0.025391 4.332031 c 0,0.06739 -0.02832,0.0957 -0.0957,0.0957 h -2.515625 c -0.06749,0 -0.0957,-0.02822 -0.0957,-0.0957 V 9.3105469 9.2851563 7.328125 c -6.67e-4,-3.4e-6 -0.0013,-3.4e-6 -0.002,0 V 7.3261719 4.5214844 1.5253906 c -5e-6,1.796e-4 0,-0.00405 0,-0.00391 3e-6,-6.5e-4 3e-6,-0.0013 0,-0.00195 0,-0.065844 0.03027,-0.095703 0.09766,-0.095703 z M 4.9492187,8.0351563 h 0.013672 0.00391 4.8847656 V 8.6054688 H 6.3320312 C 5.9328685,8.6043396 5.5810223,8.7685431 5.3300781,9.0195313 5.0826467,9.267006 4.9261519,9.5840847 4.8359375,9.9140625 c -7.32e-4,0.00324 -0.00138,0.0065 -0.00195,0.00977 l -0.00391,0.017578 c -9.73e-4,0.00647 -0.00162,0.012992 -0.00195,0.019531 l -0.9707031,8.1679685 -0.00195,0.0059 c -0.00138,0.0097 -0.00203,0.0195 -0.00195,0.0293 -0.00904,0.438458 0.1227093,0.83149 0.3808594,1.115235 0.2574713,0.283 0.6156309,0.435948 0.9902344,0.476562 h 0.00781 c 0.00906,0.0013 0.018194,0.002 0.027344,0.002 l 13.9003908,-0.05273 c 0.395776,0.01303 0.767439,-0.168973 0.988281,-0.488281 0.213053,-0.308046 0.289183,-0.700063 0.273438,-1.134766 v -0.0078 -0.0078 c 6e-5,-0.0098 -6.08e-4,-0.0196 -0.002,-0.0293 L 19.185547,9.7929688 c -0.0013,-0.00924 -0.0033,-0.01838 -0.0059,-0.027344 l -0.0059,-0.019531 c -6.52e-4,-0.00131 -0.0013,-0.00261 -0.002,-0.00391 -0.21932,-0.6911974 -0.932991,-1.1596443 -1.695185,-1.136715 H 14.367188 V 8.0351563 h 4.552734 C 19.450708,8.092126 19.907863,8.6446202 20,9.1171875 l 1.582031,10.7460935 v 1.97461 0.0039 c -2.9e-5,0.002 -2.9e-5,0.0039 0,0.0059 0.0054,0.207722 -0.05201,0.29654 -0.166015,0.394531 -0.105571,0.09074 -0.281647,0.154548 -0.427735,0.158204 H 3.4433594 c -0.3612082,-0.06894 -0.7295402,-0.396374 -0.7441406,-1 v -0.0039 -1.52539 C 3.0380178,16.201618 3.7028944,12.501698 4.15625,8.7871094 l -0.00391,0.00977 c 0.00243,-0.00769 0.00439,-0.015512 0.00586,-0.023437 2.342e-4,-0.00192 -2.34e-4,-0.00394 0,-0.00586 0.00111,-0.00777 0.00177,-0.015593 0.00195,-0.023437 v 0.017578 c 7.32e-4,-0.00324 0.00138,-0.0065 0.00195,-0.00977 C 4.1778892,8.5722821 4.2844429,8.3836304 4.4394531,8.2460938 4.5944633,8.1085571 4.7912509,8.0291421 4.9492187,8.0351563 Z M 6.3320312,9.5078125 H 9.8417969 L 8.8652344,15.210938 H 6.8671875 c -0.1964106,4.67e-4 -0.2719928,0.256072 -0.1074219,0.363281 l 4.9472654,3.177734 c 0.06191,0.04007 0.14097,0.04234 0.205078,0.0059 L 17.4375,15.580078 c 0.175415,-0.10057 0.104539,-0.368472 -0.09766,-0.36914 H 15.263672 L 14.375,9.5078125 h 3.119141 0.0039 c 0.002,2.94e-5 0.0039,2.94e-5 0.0059,0 0.160208,-0.00482 0.351,0.061827 0.50586,0.1660156 0.152979,0.1029239 0.262897,0.2435977 0.294921,0.3378909 l 1.212891,8.109375 c 0.0094,0.299848 -0.05657,0.500913 -0.111328,0.580078 -0.06945,0.100418 -0.0719,0.106331 -0.216797,0.101562 -0.002,-2.9e-5 -0.0039,-2.9e-5 -0.0059,0 h -0.0059 L 5.3183594,18.853516 C 5.1170356,18.830864 4.9900479,18.766128 4.9042969,18.671875 4.8164195,18.575284 4.7542351,18.44324 4.7578125,18.191406 v -0.0039 c 1.41e-5,-8.12e-4 -1.55e-5,-0.0011 0,-0.002 L 5.7128906,10.15035 v -0.002 C 5.7713571,9.9379813 5.8690288,9.7638016 5.9707031,9.6621094 6.0798161,9.5529773 6.1672744,9.5073465 6.3320312,9.5078125 Z m 5.5039068,8.2519495 c -11.69525529,-17.84723475 -11.69525529,-17.84723475 0,0 z m -7.1132822,2.041015 c -0.2395585,1.94e-4 -0.4523024,0.221231 -0.453125,0.458985 8.235e-4,0.237753 0.213567,0.45879 0.453125,0.458984 0.2395581,-1.94e-4 0.4523016,-0.221231 0.453125,-0.458984 -8.225e-4,-0.237754 -0.2135663,-0.458791 -0.453125,-0.458985 z m 0.96875,0 c -0.2372067,5.35e-4 -0.4524541,0.217874 -0.4511718,0.455078 0.00165,0.235319 0.21574,0.448685 0.4511718,0.449219 H 19.998047 c 0.23648,1.57e-4 0.452591,-0.214582 0.453125,-0.451172 1.59e-4,-0.237018 -0.216106,-0.453283 -0.453125,-0.453125 z"
    />
  </svg>
