<svg xmlns="http://www.w3.org/2000/svg" viewBox="0 0 24 24"><path fill="#44739e" d="m21.99 15.81-.064-6.518a1.01 1.01 0 0 0-.461-.83 1.23 1.23 0 0 0-1.088-.146l-5.983 1.562a1.7 1.7 0 0 1 .042-.431c.029-.1.1-.276.172-.466s.14-.362.185-.495a4.8 4.8 0 0 0 .868.721.49.49 0 0 0 .472-.068 6 6 0 0 0 .707-.979c.149-.308.39-.771.39-.771a2 2 0 0 0 .092-.192.34.34 0 0 0 .152-.137 1 1 0 0 0 .065-.149l.048-.137a1 1 0 0 0 .035-.274.33.33 0 0 0-.088-.292.24.24 0 0 0-.1-.114.4.4 0 0 0-.052-.025.3.3 0 0 0-.055-.078.3.3 0 0 0-.16-.08.27.27 0 0 0-.167-.109.28.28 0 0 0-.268.088l-.017-.016a.28.28 0 0 0-.308-.052l-.123.065v.1a.25.25 0 0 0 .032.108.6.6 0 0 1 .062.185 1 1 0 0 0 .047.38 1 1 0 0 0 .068.151 1 1 0 0 1 .053.114v.011a.66.66 0 0 1-.077.29 1.56 1.56 0 0 1-.658.663 2.4 2.4 0 0 1-.663-.816 3.5 3.5 0 0 0-.325-.625.36.36 0 0 0-.086-.143.13.13 0 0 1 .081-.1.7.7 0 0 1 .235-.03h.093a.53.53 0 0 0 .337-.05.3.3 0 0 0 .121-.238.37.37 0 0 0 .081-.181.3.3 0 0 0 .025-.163.3.3 0 0 0 .084-.035l.044-.04c.083-.113.018-.237-.038-.347q-.028-.053-.059-.123a1 1 0 0 1-.049-.274c0-.043-.008-.086-.012-.124a1 1 0 0 0-.073-.285.37.37 0 0 0 .022-.2c-.04-.236-.286-.456-.747-.673-.267-.133-.559-.247-.709-.088a.23.23 0 0 0-.062.134.72.72 0 0 0-.454.085.27.27 0 0 0-.105.2.3.3 0 0 0 .006.056.7.7 0 0 0-.236.314 1.07 1.07 0 0 0 .08.814l.025.065a.5.5 0 0 1 .012.1l-.188.173h.19v.348l.163-.25v.064a.8.8 0 0 1-.011.225.6.6 0 0 0-.234.083.8.8 0 0 0-.188.162l-.51.237c-.248.084-1.492.506-1.606.559a.8.8 0 0 0-.315.239c-.011.019-.09.2-.177.4-.076.173-.159.36-.2.459a10 10 0 0 0-.294 1.033s-.01.112-.022.175c-.036.023-.1.06-.15.084a2 2 0 0 0-.179.1c-.024.013-.06.03-.1.049-.187.089-.3.149-.362.258a.26.26 0 0 0-.008.149.26.26 0 0 0 0 .135.3.3 0 0 0 .038.084.25.25 0 0 0 .03.139l.02.03v.018l.005.041a.24.24 0 0 0 .245.184.6.6 0 0 0 .155-.035c.071-.02.16-.045.217-.055a.4.4 0 0 0 .059-.018.3.3 0 0 0 .067.09.23.23 0 0 0 .181.051c.209-.032.216-.237.221-.338.008-.032.03-.091.049-.143l.072-.022h-.063l.021-.055a1.5 1.5 0 0 0 .235-.373c0-.015.015-.038.027-.066a1.4 1.4 0 0 0 .081-.218 10 10 0 0 1 .493-1c.079-.122.162-.256.231-.365l.105-.17c.113-.025.414-.081.693-.131l-.036.113a1.8 1.8 0 0 0-.083.705 2.5 2.5 0 0 1-.029.732 2 2 0 0 1-.123.235 1.24 1.24 0 0 0-.238.6.4.4 0 0 0 .059.173 1.55 1.55 0 0 0-.414.737 4 4 0 0 0-.029.582 1.2 1.2 0 0 1-.019.3c-.02.057-.169.315-.289.523a3.1 3.1 0 0 0-.394.773.16.16 0 0 0 .05.119 9 9 0 0 1-.431.888c-.136.126-.777.682-.843.729l-.032.03c-.056.069-.821 1.221-1.017 1.516l-.006-.005-.329.483a.4.4 0 0 0-.169.049c-.076.052-.607.473-.616.48a.2.2 0 0 0-.067.151.2.2 0 0 0 .061.142c.046.053.287.394.418.6-1.977.311-3.439.538-3.761.581l-.209-.035L2 20.723h2.953l.178-.226a.85.85 0 0 0 .681-.464l13.522-1.781a1.2 1.2 0 0 0 .2.171l-.384 1.449-.306.851H22v-4.916Zm-3.869-5.118 2.168-.555.066 5.989c-3.055.488-7.707 1.226-11.265 1.786 0-.118 0-.291.01-.357a.3.3 0 0 0 .026-.207l.335-.5c1.388-1.373 1.708-1.7 1.788-1.788l.048-.023a1.2 1.2 0 0 0 .287-.181.9.9 0 0 0 .218-.31l.017-.037c.035-.055.362-.461.669-.836h.057l.044-.037a2 2 0 0 0 .366-.431 8 8 0 0 0 .413-.795l1.941.275a2 2 0 0 0-.143.133 3 3 0 0 0-.405.605 2 2 0 0 1-.159.262c-.112.119-.371.374-.371.375l-.059.059-.448.365a.18.18 0 0 0-.121 0c-.031.009-.087.026-.572.438l-.041.02-.029.06a.3.3 0 0 0-.005.23 2 2 0 0 0 .42.523c.073.076.136.143.166.178s.05.072.075.11a1.7 1.7 0 0 0 .325.385 9 9 0 0 0 .786.524.2.2 0 0 0 .089.016.31.31 0 0 0 .262-.139.244.244 0 0 0-.053-.329 1.1 1.1 0 0 1-.288-.428 2.6 2.6 0 0 1 .011-.478 1.2 1.2 0 0 0 0-.33c-.006-.031-.015-.074-.021-.074l.018-.035a2.4 2.4 0 0 1 .246-.273l.082-.081.036-.027c.072-.058 1.785-1.4 1.993-1.6l.062-.057c.214-.193.478-.434.456-.732 0-.459-.768-.983-.989-1.091l-.119-.055a6 6 0 0 0-1.04-.4l-.385-.118c-.216-.066-.45-.137-.588-.191Z"/></svg>