<svg xmlns="http://www.w3.org/2000/svg" fill="#44739e" width="24" height="24" viewBox="0 0 24 24">
  <path id="Colore_riempimento_1" data-name="Colore riempimento 1" class="cls-1" d="m 7.827,10.818 a 1.231,1.231 0 1 0 1.23,1.23 1.231,1.231 0 0 0 -1.23,-1.23 z m -0.12,0.351 a 0.12,0.12 0 0 1 0.24,0 v 0.879 a 0.12033703,0.12033703 0 0 1 -0.24,0.018 v -0.9 z M 8.462,12.7 A 0.894,0.894 0 0 1 7.199,12.708 L 7.191,12.7 a 0.919,0.919 0 0 1 0,-1.285 0.9,0.9 0 0 1 0.244,-0.175 0.1,0.1 0 0 1 0.136,0.044 v 0.011 a 0.123,0.123 0 0 1 -0.052,0.159 0.629,0.629 0 0 0 -0.171,0.124 0.683,0.683 0 0 0 0,0.959 0.665,0.665 0 0 0 0.942,0.006 l 0.006,-0.006 a 0.685,0.685 0 0 0 0,-0.959 A 0.577,0.577 0 0 0 8.127,11.454 0.121,0.121 0 0 1 8.073,11.295 0.117,0.117 0 0 1 8.229,11.24 v 0 A 0.826,0.826 0 0 1 8.456,11.415 0.919,0.919 0 0 1 8.462,12.7 Z M 16.12,10.77 A 1.23,1.23 0 1 0 17.35,12 1.229,1.229 0 0 0 16.12,10.77 Z M 16,11.12 a 0.12,0.12 0 1 1 0.24,0 V 12 A 0.12,0.12 0 1 1 16.001,12.018 0.054,0.054 0 0 1 16,12 Z m 0.756,1.531 a 0.894,0.894 0 0 1 -1.264,0.008 l -0.008,-0.008 a 0.918,0.918 0 0 1 0,-1.284 0.9,0.9 0 0 1 0.244,-0.176 0.1,0.1 0 0 1 0.137,0.044 v 0.011 a 0.124,0.124 0 0 1 -0.052,0.159 0.643,0.643 0 0 0 -0.172,0.125 0.685,0.685 0 0 0 0,0.959 0.666,0.666 0 0 0 0.942,0.006 l 0.006,-0.006 a 0.685,0.685 0 0 0 0,-0.959 0.571,0.571 0 0 0 -0.168,-0.125 0.12,0.12 0 0 1 -0.055,-0.159 0.118,0.118 0 0 1 0.156,-0.055 v 0 a 0.793,0.793 0 0 1 0.228,0.175 0.918,0.918 0 0 1 0.006,1.285 z M 12,10.77 A 1.23,1.23 0 1 0 13.23,12 1.229,1.229 0 0 0 12,10.77 Z m -0.12,0.35 a 0.12,0.12 0 1 1 0.24,0 V 12 a 0.12,0.12 0 1 1 -0.239,0.018 0.054,0.054 0 0 1 0,-0.018 v -0.88 z m 0.756,1.531 a 0.894,0.894 0 0 1 -1.264,0.008 l -0.008,-0.008 a 0.918,0.918 0 0 1 0,-1.284 0.9,0.9 0 0 1 0.244,-0.176 0.1,0.1 0 0 1 0.137,0.044 v 0.011 a 0.123,0.123 0 0 1 -0.051,0.159 0.643,0.643 0 0 0 -0.172,0.125 0.685,0.685 0 0 0 0,0.959 0.666,0.666 0 0 0 0.942,0.006 l 0.006,-0.006 a 0.685,0.685 0 0 0 0,-0.959 0.571,0.571 0 0 0 -0.168,-0.125 0.12,0.12 0 0 1 -0.055,-0.159 0.118,0.118 0 0 1 0.156,-0.055 v 0 a 0.793,0.793 0 0 1 0.228,0.175 0.918,0.918 0 0 1 0.005,1.285 z M 21.077,2 H 2.923 A 0.923,0.923 0 0 0 2,2.923 V 21.077 A 0.923,0.923 0 0 0 2.923,22 H 21.077 A 0.923,0.923 0 0 0 22,21.077 V 2.923 A 0.923,0.923 0 0 0 21.077,2 Z M 7.826,13.548 a 1.5,1.5 0 1 1 1.5,-1.5 1.5,1.5 0 0 1 -1.5,1.5 z M 12,13.5 A 1.5,1.5 0 1 1 13.5,12 1.5,1.5 0 0 1 12,13.5 Z m 4.12,0 a 1.5,1.5 0 1 1 1.5,-1.5 1.5,1.5 0 0 1 -1.501,1.5 z"/>
</svg>
