<?xml version="1.0" encoding="UTF-8"?>
<svg width="24px" fill="#44739e" height="24px" viewBox="0 0 24 24" version="1.1" xmlns="http://www.w3.org/2000/svg" xmlns:xlink="http://www.w3.org/1999/xlink">
            <path d="M 19.734,2 H 4.266 A 2.265,2.265 0 0 0 2,4.266 V 19.734 A 2.265,2.265 0 0 0 4.266,22 H 19.734 A 2.265,2.265 0 0 0 22,19.734 V 4.266 A 2.265,2.265 0 0 0 19.734,2 Z M 2.267,5.321 A 0.322,0.322 0 0 1 2.589,5 H 3.446 A 0.322,0.322 0 0 1 3.768,5.322 V 6.179 A 0.322,0.322 0 0 1 3.446,6.501 H 2.589 A 0.323,0.323 0 0 1 2.267,6.179 Z M 3.836,19.29 A 0.322,0.322 0 0 1 3.514,19.612 H 2.657 A 0.322,0.322 0 0 1 2.335,19.29 v -0.857 a 0.322,0.322 0 0 1 0.322,-0.322 h 0.857 a 0.322,0.322 0 0 1 0.322,0.322 z m 0,-4.371 A 0.322,0.322 0 0 1 3.514,15.241 H 2.657 A 0.322,0.322 0 0 1 2.335,14.919 V 14.062 A 0.322,0.322 0 0 1 2.657,13.74 h 0.857 a 0.322,0.322 0 0 1 0.322,0.322 z m 0,-4.37 A 0.322,0.322 0 0 1 3.514,10.871 H 2.657 A 0.322,0.322 0 0 1 2.335,10.549 V 9.691 A 0.322,0.322 0 0 1 2.657,9.369 H 3.514 A 0.322,0.322 0 0 1 3.836,9.691 Z M 5.544,5.321 A 0.322,0.322 0 0 1 5.866,5 H 6.723 A 0.322,0.322 0 0 1 7.045,5.322 V 6.179 A 0.322,0.322 0 0 1 6.723,6.501 H 5.866 A 0.323,0.323 0 0 1 5.544,6.179 Z m 1.247,5.432 H 5.934 a 0.2,0.2 0 0 1 -0.205,-0.2 V 9.691 A 0.205,0.205 0 0 1 5.934,9.486 H 6.791 A 0.205,0.205 0 0 1 7,9.691 v 0.858 A 0.2,0.2 0 0 1 6.791,10.753 Z M 7,14.062 v 0.857 A 0.205,0.205 0 0 1 6.795,15.124 H 5.934 A 0.205,0.205 0 0 1 5.729,14.919 V 14.062 A 0.205,0.205 0 0 1 5.934,13.857 H 6.791 A 0.205,0.205 0 0 1 7,14.062 Z M 7.117,19.29 A 0.322,0.322 0 0 1 6.795,19.612 H 5.934 A 0.322,0.322 0 0 1 5.612,19.29 v -0.857 a 0.322,0.322 0 0 1 0.322,-0.322 h 0.857 a 0.322,0.322 0 0 1 0.322,0.322 z M 13.141,15.2 13.052,14.391 A 2.527,2.527 0 0 1 11.035,15.35 1.991,1.991 0 0 1 8.943,13.3 c 0,-1.728 1.242,-2.8 3.886,-2.784 0,-0.591 0.152,-1.149 -1.158,-1.284 -0.632,-0.066 -0.988,0.507 -1.157,1.317 L 9.129,10.19 a 2.657,2.657 0 0 1 2.557,-2.31 c 2.092,0 2.6,1.492 2.6,2.924 v 2.673 a 10.6,10.6 0 0 0 0.113,1.713 z M 16.824,5.324 A 0.322,0.322 0 0 1 17.146,5 H 18 a 0.322,0.322 0 0 1 0.322,0.322 V 6.179 A 0.322,0.322 0 0 1 18,6.5 H 17.143 A 0.322,0.322 0 0 1 16.821,6.178 Z m 1.247,5.432 h -0.858 a 0.2,0.2 0 0 1 -0.2,-0.2 V 9.691 a 0.2,0.2 0 0 1 0.2,-0.205 h 0.858 a 0.2,0.2 0 0 1 0.2,0.205 v 0.858 a 0.2,0.2 0 0 1 -0.2,0.204 z m 0.2,3.309 v 0.857 a 0.2,0.2 0 0 1 -0.2,0.205 h -0.858 a 0.2,0.2 0 0 1 -0.2,-0.205 v -0.857 a 0.2,0.2 0 0 1 0.2,-0.205 h 0.858 a 0.2,0.2 0 0 1 0.204,0.202 z m 0.118,5.228 a 0.322,0.322 0 0 1 -0.322,0.322 h -0.858 a 0.322,0.322 0 0 1 -0.322,-0.322 v -0.857 a 0.322,0.322 0 0 1 0.322,-0.322 h 0.858 a 0.322,0.322 0 0 1 0.322,0.322 z M 20.156,5.321 A 0.322,0.322 0 0 1 20.478,5 h 0.857 a 0.322,0.322 0 0 1 0.322,0.322 V 6.179 A 0.322,0.322 0 0 1 21.335,6.501 H 20.478 A 0.322,0.322 0 0 1 20.156,6.179 Z m 1.569,13.969 a 0.323,0.323 0 0 1 -0.323,0.322 H 20.545 A 0.322,0.322 0 0 1 20.223,19.29 v -0.857 a 0.322,0.322 0 0 1 0.322,-0.322 H 21.4 a 0.323,0.323 0 0 1 0.323,0.322 z m 0,-4.371 a 0.323,0.323 0 0 1 -0.323,0.322 H 20.545 A 0.322,0.322 0 0 1 20.223,14.919 V 14.062 A 0.323,0.323 0 0 1 20.545,13.74 H 21.4 a 0.323,0.323 0 0 1 0.323,0.322 z m 0,-4.37 a 0.323,0.323 0 0 1 -0.323,0.322 H 20.545 A 0.323,0.323 0 0 1 20.223,10.549 V 9.691 A 0.323,0.323 0 0 1 20.545,9.369 H 21.4 a 0.323,0.323 0 0 1 0.323,0.322 z M 2.657,13.974 h 0.857 c 0.048752,0 0.088,0.03925 0.088,0.088 v 0.857 c 0,0.04875 -0.039248,0.088 -0.088,0.088 H 2.657 c -0.048752,0 -0.088,-0.03925 -0.088,-0.088 v -0.857 c 0,-0.04875 0.039248,-0.088 0.088,-0.088 z m 17.889,0 h 0.856 c 0.04875,0 0.088,0.03925 0.088,0.088 v 0.857 c 0,0.04875 -0.03925,0.088 -0.088,0.088 h -0.856 c -0.04875,0 -0.088,-0.03925 -0.088,-0.088 v -0.857 c 0,-0.04875 0.03925,-0.088 0.088,-0.088 z M 2.5900001,5.2329998 h 0.857 c 0.048752,0 0.088,0.039248 0.088,0.088 v 0.857 c 0,0.048752 -0.039248,0.088 -0.088,0.088 h -0.857 c -0.048752,0 -0.088,-0.039248 -0.088,-0.088 v -0.857 c 0,-0.048752 0.039248,-0.088 0.088,-0.088 z M 20.546,18.344999 h 0.856 c 0.04875,0 0.088,0.03925 0.088,0.088 v 0.856 c 0,0.04875 -0.03925,0.088 -0.088,0.088 h -0.856 c -0.04875,0 -0.088,-0.03925 -0.088,-0.088 v -0.856 c 0,-0.04875 0.03925,-0.088 0.088,-0.088 z m -17.889,0 h 0.857 c 0.048752,0 0.088,0.03925 0.088,0.088 v 0.856 c 0,0.04875 -0.039248,0.088 -0.088,0.088 H 2.657 c -0.048752,0 -0.088,-0.03925 -0.088,-0.088 v -0.856 c 0,-0.04875 0.039248,-0.088 0.088,-0.088 z M 20.546,9.6040001 h 0.856 c 0.04875,0 0.088,0.039248 0.088,0.088 V 10.549 c 0,0.04875 -0.03925,0.088 -0.088,0.088 h -0.856 c -0.04875,0 -0.088,-0.03925 -0.088,-0.088 V 9.6920001 c 0,-0.048752 0.03925,-0.088 0.088,-0.088 z M 17.146001,5.2329998 h 0.856 c 0.04875,0 0.088,0.039248 0.088,0.088 v 0.857 c 0,0.048752 -0.03925,0.088 -0.088,0.088 h -0.856 c -0.04875,0 -0.088,-0.039248 -0.088,-0.088 v -0.857 c 0,-0.048752 0.03925,-0.088 0.088,-0.088 z M 10.362,13.348 c -0.058,0.84 0.766,0.8 1.362,0.575 0.838,-0.315 0.746,-0.275 0.868,-0.693 0,0 0.135,-0.644 0.135,-0.777 l 0.075,-0.559 c -0.41,0.181 -2.343,0.078 -2.44,1.454 z m -4.4279998,4.996999 h 0.857 c 0.048752,0 0.088,0.03925 0.088,0.088 v 0.856 c 0,0.04875 -0.039248,0.088 -0.088,0.088 h -0.857 c -0.048752,0 -0.088,-0.03925 -0.088,-0.088 v -0.856 c 0,-0.04875 0.039248,-0.088 0.088,-0.088 z m -0.067,-13.1119992 h 0.856 c 0.048752,0 0.088,0.039248 0.088,0.088 v 0.857 c 0,0.048752 -0.039248,0.088 -0.088,0.088 h -0.856 c -0.048752,0 -0.088,-0.039248 -0.088,-0.088 v -0.857 c 0,-0.048752 0.039248,-0.088 0.088,-0.088 z m 14.6109992,0 h 0.856 c 0.04875,0 0.088,0.039248 0.088,0.088 v 0.857 c 0,0.048752 -0.03925,0.088 -0.088,0.088 h -0.856 c -0.04875,0 -0.088,-0.039248 -0.088,-0.088 v -0.857 c 0,-0.048752 0.03925,-0.088 0.088,-0.088 z m -3.264,13.1119992 h 0.857 c 0.04875,0 0.088,0.03925 0.088,0.088 v 0.856 c 0,0.04875 -0.03925,0.088 -0.088,0.088 h -0.857 c -0.04875,0 -0.088,-0.03925 -0.088,-0.088 v -0.856 c 0,-0.04875 0.03925,-0.088 0.088,-0.088 z M 2.657,9.6040001 h 0.857 c 0.048752,0 0.088,0.039248 0.088,0.088 V 10.549 c 0,0.04875 -0.039248,0.088 -0.088,0.088 H 2.657 c -0.048752,0 -0.088,-0.03925 -0.088,-0.088 V 9.6920001 c 0,-0.048752 0.039248,-0.088 0.088,-0.088 z"/>

</svg>