<?xml version="1.0" encoding="UTF-8"?>
<svg width="24px" fill="#44739e" height="24px" viewBox="0 0 24 24" version="1.1" xmlns="http://www.w3.org/2000/svg" xmlns:xlink="http://www.w3.org/1999/xlink">
            <path d="m 10.51,9.999 5.624,4.692 2.719,-6.201 H 22 L 18.015,19.254 H 14.7 Z M 6.451,4.561 H 3.117 V 8.118 H 2 v 2.421 h 1.08 l -0.061,4.374 a 4.457,4.457 0 0 0 7.131,3.626 v 0 L 9.244,16.162 v 0 A 0.719,0.719 0 0 1 8.77,16.517 2.637,2.637 0 0 1 7.17,16.368 1.2,1.2 0 0 1 6.489,15.585 v 0 L 6.507,10.5 9.188,10.519 9.207,8.135 6.451,8.118 Z"/>

</svg>