<svg xmlns="http://www.w3.org/2000/svg" viewBox="0 0 24 24"><path fill="#44739e" d="M2.805 9.396c-.056.029-.055.023-.055.557v.491h-.328c-.362 0-.38 0-.407.055a.14.14 0 0 0-.015.053c0 .03.437.993.466 1.025s.071.045.176.045h.1v.814c0 .469 0 .867.009.94a1.47 1.47 0 0 0 .232.72 1.6 1.6 0 0 0 .328.34 1.8 1.8 0 0 0 .4.2 2.4 2.4 0 0 0 1.171.042 3 3 0 0 0 .646-.216.13.13 0 0 0 .066-.125 9 9 0 0 0-.408-.853c-.019-.012-.029-.012-.1.011a1.3 1.3 0 0 1-.363.059.8.8 0 0 1-.4-.059.52.52 0 0 1-.269-.355 7 7 0 0 1-.014-.791v-.724h.836l.066.138c.088.184.832 1.785 1.275 2.739.026.057.042.08.064.091a3 3 0 0 0 .579.015c.522 0 .554 0 .58-.018a16 16 0 0 0 .689-1.446c.366-.785.667-1.425.669-1.423a.3.3 0 0 1-.009.071c-.009.053-.013.386-.015 1.394 0 1.447-.006 1.369.05 1.407.024.016.059.016.571.016s.547 0 .571-.016c.056-.037.053.02.053-1.221 0-.756 0-1.163.01-1.21a.9.9 0 0 1 .167-.43.7.7 0 0 1 .349-.215.8.8 0 0 1 .257-.021.7.7 0 0 1 .4.077.64.64 0 0 1 .328.384c.052.156.05.116.056 1.4l.006 1.19.03.027a.13.13 0 0 0 .07.032h2.019c1.817 0 1.981 0 2.007-.018a.2.2 0 0 0 .045-.034c.016-.017.395-.832.44-.945a.1.1 0 0 0 .008-.082c-.022-.072.046-.067-.946-.072l-.886-.005.807-.9c.443-.5.819-.921.836-.946a.7.7 0 0 0 .125-.423.6.6 0 0 0-.024-.2.7.7 0 0 0-.178-.31.72.72 0 0 0-.441-.228c-.1-.014-2.916-.014-2.943 0s-.017.023-.017.27v.26l-.044-.051a1.7 1.7 0 0 0-.3-.256 2.4 2.4 0 0 0-.469-.231 2.85 2.85 0 0 0-1.59-.053 2 2 0 0 0-.413.15 1.8 1.8 0 0 0-.513.365l-.073.075v-.258a1.2 1.2 0 0 0-.011-.269 4.4 4.4 0 0 0-.718 0 .68.68 0 0 0-.438.3 4 4 0 0 0-.174.367c-.261.608-.92 2.064-.93 2.054s-.715-1.8-.843-2.143a.85.85 0 0 0-.2-.357.75.75 0 0 0-.32-.205l-.089-.017h-1.4v-.5c0-.543 0-.52-.056-.55a11 11 0 0 0-1.158.002m11.725 2.231a280 280 0 0 1-1.633 1.707l-.074.075v-1.787h.853c.47 0 .854.002.854.005m4.304-2.337a.2.2 0 0 0-.07.067l-.028.045v1.911H18c-.792 0-.772 0-.818.049a9 9 0 0 0-.246.537 3 3 0 0 0-.225.561.18.18 0 0 0 .067.14l.031.021h1.928v.941c0 1.067 0 1.008.071 1.074a.2.2 0 0 0 .078.045c.018 0 .261.008.541.008h.507l.045-.028a.17.17 0 0 0 .072-.079l.027-.05v-1.9h1.8l.039-.023a.2.2 0 0 0 .066-.06l.017-.038v-1.067l-.025-.039a.2.2 0 0 0-.074-.063l-.05-.024h-1.778v-.955a7 7 0 0 0-.019-.982.3.3 0 0 0-.1-.1 6 6 0 0 0-.55-.011h-.523Z"/></svg>