<svg xmlns="http://www.w3.org/2000/svg" viewBox="0 0 24 24"><path fill="#44739e" d="M22 16.928a.43.43 0 0 0-.422-.421.48.48 0 0 0-.359.193.48.48 0 0 0-.358-.193.43.43 0 0 0-.422.421v.018a.6.6 0 0 0 .154.433l.079.1a4 4 0 0 1-.95.922.42.42 0 0 0-.36-.207.48.48 0 0 0-.358.193.48.48 0 0 0-.359-.193.427.427 0 0 0-.421.42v.018a.57.57 0 0 0 .115.379q-.124.027-.249.048a2.15 2.15 0 0 1-1.612-.274c.367-.354.366-.524.365-.668v-.022a.427.427 0 0 0-.421-.423.48.48 0 0 0-.359.194.6.6 0 0 0-.154-.136 3 3 0 0 1-.04-.336 2.7 2.7 0 0 1 .163-1.1 2 2 0 0 1 .07-.161q.112.098.262.216l.039.031.039-.031c.744-.585.742-.809.741-.989v-.017a.4.4 0 0 0-.045-.183 15 15 0 0 1 .356-.183 7.6 7.6 0 0 0 1.167-.684q.126.115.3.255l.039.031.039-.031c.744-.585.742-.809.741-.989v-.015a.43.43 0 0 0-.1-.27 7 7 0 0 0 .757-1.245q.067.056.145.118l.04.031.039-.031c.743-.585.742-.809.741-.989v-.017a.43.43 0 0 0-.422-.422.4.4 0 0 0-.111.017 4.6 4.6 0 0 0 .07-1.367c.73-.578.729-.8.728-.979v-.017a.427.427 0 0 0-.422-.422.48.48 0 0 0-.358.193.5.5 0 0 0-.344-.192 4.8 4.8 0 0 0-.939-1.317c.352-.344.351-.511.351-.651v-.017a.427.427 0 0 0-.421-.422.48.48 0 0 0-.359.193.48.48 0 0 0-.358-.193.42.42 0 0 0-.356.2 6 6 0 0 0-.986-.489 6 6 0 0 0-.387-.13.56.56 0 0 0 .094-.347v-.016a.427.427 0 0 0-.422-.422.48.48 0 0 0-.358.193.48.48 0 0 0-.359-.193.43.43 0 0 0-.422.422v.094a6 6 0 0 0-1.07.006 5 5 0 0 0-.343.045.43.43 0 0 0-.419-.376.48.48 0 0 0-.359.193.48.48 0 0 0-.358-.193.427.427 0 0 0-.422.421v.017a.62.62 0 0 0 .163.446 2.3 2.3 0 0 0-.678.672 2.56 2.56 0 0 0-.393 1.322.4.4 0 0 0-.2-.055.427.427 0 0 0-.421.422v.018c0 .179 0 .399.742.989l.039.031.03-.024.023.077a3.3 3.3 0 0 0 .755 1.344.4.4 0 0 0-.058.207v.017c0 .18 0 .4.741.989l.039.031.039-.031q.15-.118.264-.219a2.6 2.6 0 0 1 .562.974q.029.092.053.187h-.041a.427.427 0 0 0-.421.422v.016c0 .163 0 .362.551.833a4.4 4.4 0 0 1-.25 1.1l-.033.087-.011.008a.4.4 0 0 0-.184 0 .42.42 0 0 0-.265-.1.427.427 0 0 0-.422.422v.017c0 .137 0 .3.329.631a2.8 2.8 0 0 1-.978.799v-.03a.427.427 0 0 0-.422-.422.48.48 0 0 0-.358.193.48.48 0 0 0-.359-.193.427.427 0 0 0-.421.422v.015a.6.6 0 0 0 .043.25 2 2 0 0 1-1.141-.492c.343-.338.343-.5.342-.643v-.017a.43.43 0 0 0-.422-.422.45.45 0 0 0-.31.14h-.095a8 8 0 0 1-.1-1.234v-.043c.638-.523.638-.734.637-.9v-.016a.43.43 0 0 0-.422-.422.42.42 0 0 0-.249.087q-.02-.75-.031-1.326c.7-.562.7-.782.7-.958v-.017a.43.43 0 0 0-.422-.422.44.44 0 0 0-.307.137 7 7 0 0 0-.157-1.835c.5-.437.5-.629.5-.786v-.02a.427.427 0 0 0-.422-.422.48.48 0 0 0-.358.193.5.5 0 0 0-.251-.178 6.3 6.3 0 0 0-.8-1.075c.323-.325.322-.487.321-.623v-.017a.43.43 0 0 0-.421-.422.48.48 0 0 0-.359.192.48.48 0 0 0-.358-.192.41.41 0 0 0-.317.148 2 2 0 0 0-1.355-.257 1.5 1.5 0 0 0-.311.1.4.4 0 0 0-.233-.073.48.48 0 0 0-.359.193.48.48 0 0 0-.359-.193.427.427 0 0 0-.421.422v.017c0 .139 0 .3.342.644a3.4 3.4 0 0 0-.434 1.313c0 .035-.006.069-.008.1a.4.4 0 0 0-.2-.052.43.43 0 0 0-.422.421v.017c0 .18 0 .4.742.989l.039.031.04-.029.048-.038a5 5 0 0 0 .525.918.44.44 0 0 0-.194.353v.017c0 .18 0 .4.741.989l.039.031.04-.031q.174-.138.3-.251c.115.109.214.188.306.261a2.6 2.6 0 0 1 .592.615.44.44 0 0 0-.241.38v.017c0 .18 0 .4.741.989l.04.031.039-.031.106-.086a3.8 3.8 0 0 1 .2 1.468l-.058.063a.48.48 0 0 0-.351-.195.43.43 0 0 0-.422.422v.016c0 .169 0 .376.609.883a2.9 2.9 0 0 1-.58.995.42.42 0 0 0-.348-.189.48.48 0 0 0-.359.193.48.48 0 0 0-.358-.193.427.427 0 0 0-.422.422v.015a.64.64 0 0 0 .189.479l.042.05a3.3 3.3 0 0 1-1.391.071 1 1 0 0 0 0-.104v-.017a.43.43 0 0 0-.422-.422.48.48 0 0 0-.358.193.48.48 0 0 0-.359-.193.43.43 0 0 0-.421.424v.016c0 .18 0 .4.741.99l.04.031.039-.031a2.2 2.2 0 0 0 .7-.737 3.46 3.46 0 0 0 1.549-.101 5 5 0 0 0 .392.339l.039.03.039-.03a3.5 3.5 0 0 0 .556-.516.64.64 0 0 0 .186-.473v-.016a.4.4 0 0 0-.008-.079 3 3 0 0 0 .641-1.048l.007.006.039.03.04-.026c.743-.586.742-.81.741-.99v-.016a.43.43 0 0 0-.422-.422.4.4 0 0 0-.143.028 4 4 0 0 0-.235-1.471c.512-.446.511-.639.51-.8v-.017a.43.43 0 0 0-.422-.422.48.48 0 0 0-.358.193.48.48 0 0 0-.359-.193h-.023l-.03-.043a2.8 2.8 0 0 0-.625-.65 4 4 0 0 1-.291-.248c.333-.332.333-.495.332-.633v-.017a.43.43 0 0 0-.422-.422.46.46 0 0 0-.33.161.4.4 0 0 0-.092-.034.44.44 0 0 0-.295-.128l-.084.009a4.8 4.8 0 0 1-.552-.955c.572-.483.571-.685.57-.85v-.017a.427.427 0 0 0-.422-.421.48.48 0 0 0-.358.193l-.016-.018c0-.07 0-.14.012-.211a3.2 3.2 0 0 1 .4-1.221q.119.109.284.238l.039.031.039-.031c.744-.585.743-.809.741-.989v-.017a.43.43 0 0 0-.073-.232 1.4 1.4 0 0 1 .231-.072 1.84 1.84 0 0 1 1.25.24.4.4 0 0 0-.028.147v.017c0 .18 0 .4.741.989l.039.031.039-.031c.123-.1.225-.183.31-.261a6 6 0 0 1 .718.962.43.43 0 0 0-.345.415v.016c0 .18 0 .4.742.99l.039.03.039-.03.118-.1a7.6 7.6 0 0 1 .131 1.683.42.42 0 0 0-.257-.093.427.427 0 0 0-.422.422v.017c0 .176 0 .4.707.961l.032 1.382a.45.45 0 0 0-.317-.147.427.427 0 0 0-.422.422v.016c0 .18 0 .401.741.99l.034.026a9 9 0 0 0 .069 1.062.4.4 0 0 0-.136-.026.427.427 0 0 0-.422.423v.016c0 .18 0 .401.741.99l.039.03.039-.03q.168-.134.289-.243a2.2 2.2 0 0 0 1.345.541 2.5 2.5 0 0 0 .4.415q.09.076.2.165l.039.03.039-.03q.113-.091.2-.168a1.5 1.5 0 0 0 .517-.632l.044-.019a2.9 2.9 0 0 0 1.068-.853q.125.114.3.251l.039.031.039-.031c.744-.585.743-.809.742-.989v-.017a.43.43 0 0 0-.422-.422.4.4 0 0 0-.063 0 4.5 4.5 0 0 0 .229-.985l.051.041.039.03.039-.03c.744-.586.742-.81.741-.99v-.016a.427.427 0 0 0-.422-.422.48.48 0 0 0-.358.193.6.6 0 0 0-.148-.131q-.033-.152-.079-.293a2.7 2.7 0 0 0-.594-1.032c.367-.354.367-.524.366-.666v-.017a.43.43 0 0 0-.414-.414.48.48 0 0 0-.359.193.48.48 0 0 0-.358-.193.4.4 0 0 0-.265.1 3.2 3.2 0 0 1-.709-1.27l-.039-.136c.623-.514.622-.723.621-.893v-.018a.427.427 0 0 0-.422-.422.48.48 0 0 0-.358.193l-.003-.006a2.5 2.5 0 0 1 .367-1.371 2.2 2.2 0 0 1 .651-.639 4 4 0 0 0 .478.427l.037.035.039-.031c.625-.491.724-.728.739-.9q.185-.03.357-.047a6 6 0 0 1 1.09 0 2.1 2.1 0 0 0 .706.757l.039.03.039-.03A3.6 3.6 0 0 0 17 5.258q.22.063.428.141a6 6 0 0 1 .982.489.4.4 0 0 0-.009.08v.017c0 .18 0 .4.741.989l.039.031.039-.031q.162-.127.28-.234a4.6 4.6 0 0 1 .893 1.238.43.43 0 0 0-.28.4v.017c0 .174 0 .39.676.937a4.5 4.5 0 0 1-.089 1.51 1 1 0 0 0-.071.074.48.48 0 0 0-.359-.193.43.43 0 0 0-.422.423v.016c0 .155 0 .343.477.769a7 7 0 0 1-.753 1.25.4.4 0 0 0-.205-.054.48.48 0 0 0-.358.192.48.48 0 0 0-.359-.192.43.43 0 0 0-.421.422v.017c0 .137 0 .3.325.627a7.6 7.6 0 0 1-1.123.656q-.195.095-.379.2a.4.4 0 0 0-.286-.115.48.48 0 0 0-.358.192.48.48 0 0 0-.359-.192.43.43 0 0 0-.422.42v.017c0 .142 0 .312.364.665a2 2 0 0 0-.1.213 2.85 2.85 0 0 0-.177 1.158c0 .094.015.187.029.28h-.039a.427.427 0 0 0-.421.421v.016c0 .18 0 .4.741.99l.039.031.039-.031q.15-.119.263-.219l.01.009a1.97 1.97 0 0 0 1.225.351 3.4 3.4 0 0 0 .513-.04q.166-.025.328-.065a4 4 0 0 0 .524.478l.039.031.039-.031c.744-.585.742-.809.741-.989v-.017a.4.4 0 0 0-.006-.069 4.1 4.1 0 0 0 1-.956 5 5 0 0 0 .4.349l.039.031.04-.031c.743-.585.742-.809.741-.989ZM2.781 18.316c-.656-.525-.655-.717-.654-.858v-.018a.3.3 0 0 1 .3-.301.41.41 0 0 1 .3.207l.055.101.056-.101a.41.41 0 0 1 .3-.207.3.3 0 0 1 .3.301v.018c-.003.137-.002.336-.657.858m2.716-.5c-.656-.525-.655-.717-.654-.858v-.017a.3.3 0 0 1 .3-.3.41.41 0 0 1 .3.207l.055.1.055-.1a.41.41 0 0 1 .3-.207.3.3 0 0 1 .295.3v.017c.004.147.005.336-.648.863Zm1.817-3.3a.3.3 0 0 1 .295.3v.017c0 .142 0 .335-.653.858-.656-.523-.655-.716-.654-.858v-.017a.3.3 0 0 1 .3-.3.41.41 0 0 1 .3.207l.055.1.056-.1a.41.41 0 0 1 .301-.2Zm-1.007-2.672a.41.41 0 0 1 .3.207l.055.1.056-.1a.41.41 0 0 1 .3-.207.3.3 0 0 1 .295.295v.018c0 .141 0 .334-.653.858-.656-.524-.655-.717-.654-.858v-.018a.3.3 0 0 1 .301-.295M4.531 9.832a.41.41 0 0 1 .3.208l.055.099.055-.099s.12-.208.3-.208a.3.3 0 0 1 .295.295v.019c0 .141 0 .333-.654.858-.656-.525-.654-.717-.654-.858v-.019a.3.3 0 0 1 .303-.295m-.843-1.937.055-.1a.41.41 0 0 1 .3-.207.3.3 0 0 1 .3.295v.018c0 .141 0 .334-.654.858-.656-.524-.655-.717-.654-.858v-.012a.3.3 0 0 1 .3-.295.41.41 0 0 1 .3.207Zm.717-1.579c-.656-.524-.655-.717-.654-.858v-.015a.3.3 0 0 1 .3-.3.41.41 0 0 1 .3.207l.055.1.055-.1a.41.41 0 0 1 .3-.207.3.3 0 0 1 .295.3v.018c.004.141.005.334-.651.858Zm2.94.083c-.656-.524-.655-.717-.654-.858v-.015a.3.3 0 0 1 .3-.295.41.41 0 0 1 .3.207l.055.1.055-.1a.41.41 0 0 1 .3-.207.3.3 0 0 1 .299.295v.018c0 .141 0 .334-.655.858Zm1.5 2.121c-.656-.523-.655-.716-.654-.858v-.014a.3.3 0 0 1 .295-.3.41.41 0 0 1 .3.207l.055.1.055-.1a.41.41 0 0 1 .3-.207.3.3 0 0 1 .3.3v.017c.004.142.004.335-.648.858Zm-.265 2.065v-.019a.3.3 0 0 1 .3-.295.41.41 0 0 1 .3.208l.055.1.055-.1s.12-.208.3-.208a.3.3 0 0 1 .295.295v.019c0 .141 0 .333-.654.858-.65-.522-.648-.714-.648-.855Zm.654 3.493c-.656-.524-.654-.716-.654-.858v-.017a.3.3 0 0 1 .3-.301.41.41 0 0 1 .3.208l.055.1.055-.1s.12-.208.3-.208a.3.3 0 0 1 .295.301v.017c.007.144.008.336-.648.861Zm.29 2.481c-.656-.524-.654-.718-.654-.859v-.017a.3.3 0 0 1 .3-.295.41.41 0 0 1 .3.207l.055.1.055-.1s.119-.207.3-.207a.3.3 0 0 1 .295.295v.017c.007.145.008.338-.648.862Zm2.318.885c-.656-.522-.655-.716-.654-.857v-.018a.3.3 0 0 1 .295-.299.41.41 0 0 1 .3.207l.055.1.055-.1a.41.41 0 0 1 .3-.207.3.3 0 0 1 .3.299v.025c.007.137.007.33-.648.853Zm2.568-2.59a.3.3 0 0 1 .295.295v.017c0 .142 0 .336-.654.858-.656-.523-.654-.716-.654-.858v-.017a.3.3 0 0 1 .3-.295c.183 0 .3.205.3.206l.055.1.055-.1a.41.41 0 0 1 .306-.203Zm.2-2.16.055.099.055-.099a.41.41 0 0 1 .3-.208.3.3 0 0 1 .3.301v.016c0 .142 0 .336-.654.859-.656-.523-.655-.716-.654-.859v-.016a.3.3 0 0 1 .295-.301.41.41 0 0 1 .307.208Zm-1.835-2.279a.3.3 0 0 1 .3-.295.41.41 0 0 1 .3.207l.055.1.055-.1s.12-.207.3-.207a.3.3 0 0 1 .295.295v.018c0 .141 0 .334-.654.858-.656-.524-.654-.717-.654-.858ZM11.9 7.786l.055-.1a.41.41 0 0 1 .3-.207.3.3 0 0 1 .3.3v.016c0 .142 0 .334-.654.857-.656-.523-.655-.716-.654-.857v-.018a.3.3 0 0 1 .295-.299.41.41 0 0 1 .3.206Zm1.53-1.956c-.656-.524-.654-.717-.654-.858v-.018a.3.3 0 0 1 .3-.295.41.41 0 0 1 .3.207l.055.1.055-.1s.12-.207.3-.207a.3.3 0 0 1 .295.295v.018c.007.141.008.334-.648.858Zm2.97-.191c-.656-.523-.655-.716-.654-.858v-.017a.3.3 0 0 1 .295-.295c.184 0 .3.2.3.206l.055.1.055-.1a.41.41 0 0 1 .3-.206.3.3 0 0 1 .3.295v.017c.006.142.008.335-.651.858m2.773 1.205c-.656-.524-.655-.717-.654-.858v-.018a.3.3 0 0 1 .3-.295.41.41 0 0 1 .3.207l.055.1.055-.1a.41.41 0 0 1 .3-.207.3.3 0 0 1 .295.295v.018c.007.141.008.334-.648.858Zm1.062 1.551v-.022a.3.3 0 0 1 .3-.294.41.41 0 0 1 .3.207l.054.1.056-.1a.41.41 0 0 1 .3-.207.3.3 0 0 1 .3.294v.022c0 .141 0 .334-.654.858-.658-.527-.657-.72-.656-.858m-.265 2.767v-.017a.3.3 0 0 1 .3-.295.41.41 0 0 1 .3.207l.056.1.055-.1a.4.4 0 0 1 .3-.207.3.3 0 0 1 .3.295v.017c0 .141 0 .335-.654.858-.659-.525-.658-.719-.657-.861Zm-1.62 2.4v-.017a.3.3 0 0 1 .295-.295.41.41 0 0 1 .3.207l.055.1.055-.1a.41.41 0 0 1 .3-.207.3.3 0 0 1 .3.295v.018c0 .141 0 .334-.654.858-.653-.526-.652-.717-.651-.858Zm-2.6 1.8v-.018a.3.3 0 0 1 .295-.301c.184 0 .3.205.3.208l.055.1.055-.1a.41.41 0 0 1 .3-.208.3.3 0 0 1 .3.301v.018c0 .141 0 .334-.654.858-.654-.525-.653-.715-.652-.856Zm.314 3.609c-.656-.524-.655-.716-.654-.859v-.017a.3.3 0 0 1 .295-.301.41.41 0 0 1 .3.208l.055.1.055-.1a.41.41 0 0 1 .3-.208.3.3 0 0 1 .295.301v.016c.008.146.009.339-.647.862Zm2.936.515c-.656-.524-.655-.716-.654-.858v-.018a.3.3 0 0 1 .295-.295.41.41 0 0 1 .3.207l.055.1.055-.1a.41.41 0 0 1 .3-.207.3.3 0 0 1 .3.295v.018c.008.141.009.334-.651.858m2.215-1.683c-.655-.523-.654-.716-.653-.858v-.017a.3.3 0 0 1 .3-.3c.183 0 .3.205.3.206l.055.1.056-.1a.41.41 0 0 1 .3-.206.3.3 0 0 1 .3.3v.017c.001.142.002.335-.654.858Z"/></svg>