<svg xmlns="http://www.w3.org/2000/svg" viewBox="0 0 24 24"><path fill="#44739e" d="M7.929 10.507a.32.32 0 0 0-.214-.3v-.214a.245.245 0 0 0 0-.445v-.292a.245.245 0 0 0 0-.445v-.292a.245.245 0 0 0 0-.446v-.292a.245.245 0 0 0 0-.446v-.29a.245.245 0 0 0 0-.446v-.295a.245.245 0 0 0 0-.446v-.2a.325.325 0 1 0-.212.006v.194a.245.245 0 0 0 0 .446v.3a.245.245 0 0 0 0 .446v.29a.245.245 0 0 0 0 .446v.287a.245.245 0 0 0 0 .446v.292a.245.245 0 0 0 0 .446v.291a.245.245 0 0 0 0 .445v.216a.315.315 0 0 0 0 .6v.141a.314.314 0 0 0 0 .6v.141a.315.315 0 0 0 0 .6v.141a.314.314 0 0 0 0 .599v.142a.314.314 0 0 0 0 .6v.216a.245.245 0 0 0 0 .446v.292a.245.245 0 0 0 0 .446v.291a.245.245 0 0 0 0 .446v.291a.245.245 0 0 0 0 .446v.292a.245.245 0 0 0 0 .446v.291a.245.245 0 0 0 0 .445v.233a.32.32 0 0 0-.228.3.32.32 0 1 0 .44-.3v-.255a.245.245 0 0 0 0-.445v-.291a.245.245 0 0 0 0-.446v-.292a.245.245 0 0 0 0-.446v-.292a.245.245 0 0 0 0-.445v-.291a.245.245 0 0 0 0-.446v-.292a.245.245 0 0 0 0-.446v-.216a.314.314 0 0 0 0-.6v-.142a.314.314 0 0 0 0-.599v-.141a.314.314 0 0 0 0-.6v-.142a.314.314 0 0 0 0-.6v-.125a.32.32 0 0 0 .214-.295m-.424-5.281a.17.17 0 0 1 .091-.038.17.17 0 0 1 .121.05v.256a.17.17 0 0 1-.121.05.17.17 0 0 1-.091-.04Zm.21 13.539a.17.17 0 0 1-.121.05.17.17 0 0 1-.091-.038v-.278a.16.16 0 0 1 .091-.038.17.17 0 0 1 .121.05Zm0-5.174a.17.17 0 0 1-.106.044.17.17 0 0 1-.104-.044v-.268a.17.17 0 0 1 .106-.045.17.17 0 0 1 .106.045Zm0-.738a.17.17 0 0 1-.11.048.17.17 0 0 1-.106-.044v-.268a.18.18 0 0 1 .106-.047.17.17 0 0 1 .106.044Zm0-.736a.2.2 0 0 1-.106.044.2.2 0 0 1-.106-.044v-.268a.17.17 0 0 1 .102-.047.17.17 0 0 1 .106.044Zm0-.738a.17.17 0 0 1-.106.044.17.17 0 0 1-.106-.044v-.268a.2.2 0 0 1 .106-.044.17.17 0 0 1 .106.044Zm-.11-.693a.2.2 0 0 1-.1-.044v-.268a.17.17 0 0 1 .106-.044.17.17 0 0 1 .106.044v.267a.17.17 0 0 1-.112.045m-.557-.915a.32.32 0 0 0-.212-.3v-.215a.245.245 0 0 0 0-.445v-.292a.246.246 0 0 0 0-.446v-.292a.245.245 0 0 0 0-.445v-.291a.246.246 0 0 0 0-.446v-.295a.246.246 0 0 0 0-.446V5.57a.246.246 0 0 0 0-.446v-.026h-.212v.026a.245.245 0 0 0 0 .446v.291a.245.245 0 0 0 0 .446v.297a.245.245 0 0 0 0 .446v.29a.25.25 0 0 0-.143.223.25.25 0 0 0 .143.224v.286a.245.245 0 0 0 0 .446v.291a.246.246 0 0 0 0 .447v.216a.314.314 0 0 0 0 .599v.141a.315.315 0 0 0 0 .6v.141a.314.314 0 0 0 0 .6v.141a.315.315 0 0 0 0 .6v.141a.314.314 0 0 0 0 .599v.142a.314.314 0 0 0 0 .6v.124a.314.314 0 0 0 0 .595v.217a.245.245 0 0 0 0 .446v.29a.246.246 0 0 0 0 .447v.291a.245.245 0 0 0 0 .446v.292a.245.245 0 0 0 0 .446v.291a.245.245 0 0 0 0 .445v.292a.245.245 0 0 0 0 .446v.025h.212v-.025a.246.246 0 0 0 0-.446v-.3a.246.246 0 0 0 0-.445v-.291a.246.246 0 0 0 0-.446v-.292a.246.246 0 0 0 0-.446v-.292a.245.245 0 0 0 0-.445v-.291a.246.246 0 0 0 0-.446v-.217a.314.314 0 0 0 0-.595v-.142a.315.315 0 0 0 0-.6v-.142a.315.315 0 0 0 0-.599v-.141a.315.315 0 0 0 0-.6v-.142a.315.315 0 0 0 0-.6v-.125a.315.315 0 0 0 0-.6v-.142a.32.32 0 0 0 .212-.289m-.212 4.557a.17.17 0 0 1-.106.044.17.17 0 0 1-.106-.044v-.268a.2.2 0 0 1 .106-.044.2.2 0 0 1 .106.044Zm0-.737a.17.17 0 0 1-.106.044.17.17 0 0 1-.106-.044v-.268a.17.17 0 0 1 .106-.045.17.17 0 0 1 .106.045Zm0-.738a.17.17 0 0 1-.106.044.17.17 0 0 1-.106-.044v-.267a.2.2 0 0 1 .106-.044.17.17 0 0 1 .106.044Zm0-.736a.2.2 0 0 1-.106.044.2.2 0 0 1-.106-.044v-.268a.17.17 0 0 1 .106-.044.17.17 0 0 1 .106.044Zm0-.738a.17.17 0 0 1-.106.044.17.17 0 0 1-.106-.044v-.268a.2.2 0 0 1 .106-.044.17.17 0 0 1 .106.044Zm0-.738a.17.17 0 0 1-.106.045.2.2 0 0 1-.106-.044v-.268a.17.17 0 0 1 .106-.044.17.17 0 0 1 .106.044Zm-.106-.693a.17.17 0 0 1-.106-.046v-.265a.17.17 0 0 1 .106-.044.17.17 0 0 1 .106.044v.265a.17.17 0 0 1-.106.046m-.557-.914a.32.32 0 0 0-.218-.3v-.212a.247.247 0 0 0 0-.452v-.286a.246.246 0 0 0 0-.451v-.285a.247.247 0 0 0 0-.452V6.31a.246.246 0 0 0 0-.451v-.286a.247.247 0 0 0 0-.452v-.023h-.212v.029a.244.244 0 0 0 0 .44v.3a.244.244 0 0 0 0 .441v.3a.244.244 0 0 0 0 .44v.299a.244.244 0 0 0 0 .441v.3a.244.244 0 0 0 0 .44v.22a.316.316 0 0 0 0 .595v.143a.315.315 0 0 0 0 .593v.143a.316.316 0 0 0 0 .6v.143a.315.315 0 0 0 0 .594v.143a.316.316 0 0 0 0 .6v.143a.315.315 0 0 0 0 .593v.144a.315.315 0 0 0 0 .594v.125a.315.315 0 0 0 0 .594v.144a.315.315 0 0 0 0 .594v.219a.244.244 0 0 0 0 .441v.3a.244.244 0 0 0 0 .44v.3a.244.244 0 0 0 0 .441v.3a.244.244 0 0 0 0 .439v.3a.244.244 0 0 0 0 .44v.028h.212v-.023a.246.246 0 0 0 0-.451v-.286a.247.247 0 0 0 0-.451v-.286a.246.246 0 0 0 0-.451v-.286a.247.247 0 0 0 0-.452v-.286a.246.246 0 0 0 0-.451v-.227a.314.314 0 0 0 0-.6v-.141a.313.313 0 0 0 0-.6v-.14a.314.314 0 0 0 0-.6v-.14a.314.314 0 0 0 0-.599v-.129a.314.314 0 0 0 0-.6v-.14a.314.314 0 0 0 0-.6v-.139a.314.314 0 0 0 0-.6v-.14a.314.314 0 0 0 0-.599v-.131a.32.32 0 0 0 .218-.299m-.218 6.034a.15.15 0 0 1-.212 0v-.267a.17.17 0 0 1 .11-.046.17.17 0 0 1 .1.043Zm0-.738a.17.17 0 0 1-.1.042.18.18 0 0 1-.11-.045v-.265a.18.18 0 0 1 .11-.046.17.17 0 0 1 .1.043Zm0-.737a.15.15 0 0 1-.212 0v-.265a.18.18 0 0 1 .11-.046.17.17 0 0 1 .1.043Zm0-.738a.15.15 0 0 1-.212 0v-.264a.18.18 0 0 1 .11-.045.17.17 0 0 1 .1.043Zm0-.737a.17.17 0 0 1-.1.043.18.18 0 0 1-.11-.046v-.265a.18.18 0 0 1 .11-.045.17.17 0 0 1 .1.042Zm0-.737a.15.15 0 0 1-.212 0v-.264a.18.18 0 0 1 .11-.046.17.17 0 0 1 .1.043Zm0-.738a.17.17 0 0 1-.1.043.18.18 0 0 1-.11-.046v-.265a.18.18 0 0 1 .11-.045.17.17 0 0 1 .1.042Zm0-.737a.15.15 0 0 1-.212 0v-.267a.17.17 0 0 1 .11-.046.17.17 0 0 1 .1.043Zm-.1-.699a.18.18 0 0 1-.11-.046v-.258a.18.18 0 0 1 .11-.046.17.17 0 0 1 .1.043v.271a.17.17 0 0 1-.102.041Zm-.567-.911a.32.32 0 0 0-.214-.293v-.221a.25.25 0 0 0 .143-.224.25.25 0 0 0-.143-.223v-.29a.245.245 0 0 0 0-.446v-.295a.245.245 0 0 0 0-.446V5.57a.245.245 0 0 0 0-.446v-.026h-.212v.026a.245.245 0 0 0 0 .446v.291a.245.245 0 0 0 0 .446v.297a.245.245 0 0 0 0 .446v.291a.245.245 0 0 0 0 .445v.217a.315.315 0 0 0 0 .6v.141a.316.316 0 0 0 0 .6v.129a.315.315 0 0 0 0 .599v.142a.315.315 0 0 0 0 .6v.141a.314.314 0 0 0 0 .6v.217a.245.245 0 0 0 0 .446v.216a.314.314 0 0 0 0 .599v.142a.314.314 0 0 0 0 .6v.126a.314.314 0 0 0 0 .595v.142a.314.314 0 0 0 0 .6v.141a.314.314 0 0 0 0 .6v.216a.245.245 0 0 0 0 .446v.292a.245.245 0 0 0 0 .446v.291a.245.245 0 0 0 0 .445v.284a.245.245 0 0 0 0 .446v.025h.212v-.025a.245.245 0 0 0 0-.446v-.3a.245.245 0 0 0 0-.445v-.291a.245.245 0 0 0 0-.446v-.292a.245.245 0 0 0 0-.446v-.216a.314.314 0 0 0 0-.6v-.141a.314.314 0 0 0 0-.6v-.142a.314.314 0 0 0 0-.595v-.142a.314.314 0 0 0 0-.6v-.142a.314.314 0 0 0 0-.599v-.2a.245.245 0 0 0 0-.446v-.217a.314.314 0 0 0 0-.6v-.137a.315.315 0 0 0 0-.6v-.141a.314.314 0 0 0 0-.599v-.13a.315.315 0 0 0 0-.6v-.138a.32.32 0 0 0 .214-.298M5.074 15.8a.17.17 0 0 1-.106.044.17.17 0 0 1-.106-.044v-.269a.2.2 0 0 1 .106-.044.17.17 0 0 1 .106.045Zm0-.737a.17.17 0 0 1-.106.044.17.17 0 0 1-.106-.044v-.262a.17.17 0 0 1 .106-.044.17.17 0 0 1 .106.044Zm0-.738a.17.17 0 0 1-.106.044.17.17 0 0 1-.106-.044v-.268a.2.2 0 0 1 .106-.044.17.17 0 0 1 .106.045Zm0-.737a.17.17 0 0 1-.106.044.17.17 0 0 1-.106-.044v-.269a.2.2 0 0 1 .106-.044.17.17 0 0 1 .106.045Zm0-.738a.17.17 0 0 1-.106.044.17.17 0 0 1-.106-.044v-.267a.17.17 0 0 1 .106-.044.17.17 0 0 1 .106.044Zm0-1.474a.17.17 0 0 1-.106.044.17.17 0 0 1-.106-.044v-.268a.17.17 0 0 1 .106-.044.17.17 0 0 1 .106.044Zm0-.737a.2.2 0 0 1-.106.044.17.17 0 0 1-.106-.045v-.267a.15.15 0 0 1 .212 0Zm0-.738a.15.15 0 0 1-.212 0v-.264a.15.15 0 0 1 .212 0Zm0-.736a.2.2 0 0 1-.106.044.17.17 0 0 1-.106-.045v-.261a.17.17 0 0 1 .106-.045.2.2 0 0 1 .106.044Zm-.106-.694a.17.17 0 0 1-.106-.044v-.265a.15.15 0 0 1 .212 0v.268a.17.17 0 0 1-.106.044Zm-.562-.912a.32.32 0 0 0-.215-.3v-.213a.25.25 0 0 0 .144-.224.25.25 0 0 0-.144-.225v-.288a.25.25 0 0 0 .144-.225.25.25 0 0 0-.144-.224v-.289a.25.25 0 0 0 .144-.224.25.25 0 0 0-.144-.225v-.024h-.209v.027a.25.25 0 0 0-.14.222.25.25 0 0 0 .14.221v.295a.25.25 0 0 0-.14.221.25.25 0 0 0 .14.222v.298a.25.25 0 0 0-.14.222.25.25 0 0 0 .14.221v.218a.315.315 0 0 0 0 .595v.143a.316.316 0 0 0 0 .6v.142a.315.315 0 0 0 0 .595v.133a.316.316 0 0 0 0 .599v.142a.315.315 0 0 0 0 .6v.219a.25.25 0 0 0-.14.221.25.25 0 0 0 .14.222v.294a.25.25 0 0 0-.14.222.25.25 0 0 0 .14.221v.289a.25.25 0 0 0-.14.22.25.25 0 0 0 .14.222v.218a.315.315 0 0 0 0 .6v.139a.315.315 0 0 0 0 .595v.143a.315.315 0 0 0 0 .594v.142a.315.315 0 0 0 0 .595v.143a.315.315 0 0 0 0 .594v.219a.25.25 0 0 0-.14.222.25.25 0 0 0 .14.221v.3a.25.25 0 0 0-.14.221.25.25 0 0 0 .14.221v.288a.25.25 0 0 0-.14.222.25.25 0 0 0 .14.221v.027h.212v-.024a.25.25 0 0 0 .144-.224.25.25 0 0 0-.144-.225v-.288a.25.25 0 0 0 .144-.224.25.25 0 0 0-.144-.224v-.289a.25.25 0 0 0 .144-.224.25.25 0 0 0-.144-.225V16.7a.314.314 0 0 0 0-.6v-.141a.315.315 0 0 0 0-.6v-.14a.314.314 0 0 0 0-.6v-.142a.314.314 0 0 0 0-.6v-.141a.315.315 0 0 0 0-.6v-.214a.25.25 0 0 0 .144-.225.25.25 0 0 0-.144-.223v-.289a.25.25 0 0 0 .144-.224.25.25 0 0 0-.144-.225v-.288a.25.25 0 0 0 .144-.225.25.25 0 0 0-.144-.224v-.197a.315.315 0 0 0 0-.6v-.14a.315.315 0 0 0 0-.599v-.131a.315.315 0 0 0 0-.6v-.138a.315.315 0 0 0 0-.6v-.14a.32.32 0 0 0 .212-.295m-.215 8.982a.15.15 0 0 1-.212 0v-.266a.15.15 0 0 1 .212 0Zm0-.737a.15.15 0 0 1-.212 0v-.267a.18.18 0 0 1 .108-.045.17.17 0 0 1 .099.044Zm0-.737a.15.15 0 0 1-.212 0v-.266a.15.15 0 0 1 .212 0Zm0-.738a.15.15 0 0 1-.212 0v-.268a.18.18 0 0 1 .108-.045.17.17 0 0 1 .099.044Zm0-.737a.15.15 0 0 1-.212 0v-.267a.18.18 0 0 1 .108-.045.17.17 0 0 1 .099.044Zm0-2.95a.17.17 0 0 1-.099.044.18.18 0 0 1-.108-.045v-.267a.18.18 0 0 1 .108-.044.17.17 0 0 1 .099.043Zm0-.737a.15.15 0 0 1-.212 0v-.267a.15.15 0 0 1 .212 0Zm0-.737a.17.17 0 0 1-.099.044.18.18 0 0 1-.108-.045v-.264a.18.18 0 0 1 .108-.045.17.17 0 0 1 .099.044Zm0-.737a.15.15 0 0 1-.212 0v-.268a.15.15 0 0 1 .212 0Zm-.099-.7a.17.17 0 0 1-.108-.045v-.261a.18.18 0 0 1 .108-.045.17.17 0 0 1 .099.044v.269a.17.17 0 0 1-.101.043Zm-.564-.909a.32.32 0 0 0-.214-.3v-.218a.245.245 0 0 0 0-.446V5.57a.245.245 0 0 0 0-.446v-.026h-.207v.026a.245.245 0 0 0 0 .446v.291a.245.245 0 0 0 0 .446v.217a.314.314 0 0 0 0 .599v.141a.314.314 0 0 0 0 .6v.139a.314.314 0 0 0 0 .6v.141a.315.315 0 0 0 0 .6v.129a.314.314 0 0 0 0 .599v.217a.245.245 0 0 0 0 .446v.291a.245.245 0 0 0 0 .446v.292a.245.245 0 0 0 0 .446v.292a.245.245 0 0 0 0 .445v.292a.245.245 0 0 0 0 .446v.216a.314.314 0 0 0 0 .6v.142a.314.314 0 0 0 0 .6v.14a.315.315 0 0 0 0 .6v.141a.314.314 0 0 0 0 .6v.141a.315.315 0 0 0 0 .6v.216a.245.245 0 0 0 0 .445v.273a.245.245 0 0 0 0 .446v.025h.212v-.025a.245.245 0 0 0 0-.446v-.3a.245.245 0 0 0 0-.445v-.216a.315.315 0 0 0 0-.6V16.7a.315.315 0 0 0 0-.6v-.141a.315.315 0 0 0 0-.6v-.141a.315.315 0 0 0 0-.6v-.142a.314.314 0 0 0 0-.595v-.217a.245.245 0 0 0 0-.446v-.292a.245.245 0 0 0 0-.445v-.279a.245.245 0 0 0 0-.446v-.292a.245.245 0 0 0 0-.446v-.291a.245.245 0 0 0 0-.446v-.217a.315.315 0 0 0 0-.599v-.133a.315.315 0 0 0 0-.6v-.138a.314.314 0 0 0 0-.6v-.137a.315.315 0 0 0 0-.6v-.138a.32.32 0 0 0 .209-.297m-.214 10.456a.17.17 0 0 1-.107.044.17.17 0 0 1-.1-.044v-.269a.17.17 0 0 1 .1-.044.17.17 0 0 1 .107.045Zm0-.738a.17.17 0 0 1-.107.044.17.17 0 0 1-.1-.044v-.268a.17.17 0 0 1 .1-.044.17.17 0 0 1 .107.044Zm0-.737a.17.17 0 0 1-.107.044.17.17 0 0 1-.1-.044v-.269a.15.15 0 0 1 .212 0Zm0-.737a.17.17 0 0 1-.107.044.17.17 0 0 1-.1-.044v-.265a.17.17 0 0 1 .1-.044.17.17 0 0 1 .107.044Zm0-.738a.17.17 0 0 1-.107.044.17.17 0 0 1-.1-.044v-.268a.15.15 0 0 1 .212 0Zm0-4.424a.17.17 0 0 1-.107.044.17.17 0 0 1-.1-.046v-.265a.17.17 0 0 1 .1-.044.17.17 0 0 1 .107.044Zm0-.736a.2.2 0 0 1-.106.044.17.17 0 0 1-.101-.045v-.264a.17.17 0 0 1 .1-.048.2.2 0 0 1 .106.044Zm0-.738a.17.17 0 0 1-.106.044.17.17 0 0 1-.101-.044v-.268a.17.17 0 0 1 .1-.044.17.17 0 0 1 .106.044Zm0-.738a.17.17 0 0 1-.106.044.17.17 0 0 1-.101-.044v-.267a.17.17 0 0 1 .1-.045.17.17 0 0 1 .106.045Zm-.107-.688a.17.17 0 0 1-.1-.048v-.268a.17.17 0 0 1 .1-.044.17.17 0 0 1 .106.044v.268a.18.18 0 0 1-.106.048m-.561-.907a.32.32 0 0 0-.213-.3v-.215a.245.245 0 0 0 0-.446v-.038h-.212v.038a.245.245 0 0 0 0 .446v.216a.315.315 0 0 0 0 .6v.141a.314.314 0 0 0 0 .599v.141a.315.315 0 0 0 0 .6v.141a.315.315 0 0 0 0 .6v.141a.314.314 0 0 0 0 .6v.216a.245.245 0 0 0 0 .445v.28a.245.245 0 0 0 0 .446v.291a.245.245 0 0 0 0 .446v.292a.245.245 0 0 0 0 .446v.291a.245.245 0 0 0 0 .445v.292a.245.245 0 0 0 0 .446v.292a.245.245 0 0 0 0 .446v.216a.314.314 0 0 0 0 .6v.141a.314.314 0 0 0 0 .6v.142a.314.314 0 0 0 0 .6v.142a.314.314 0 0 0 0 .595v.129a.314.314 0 0 0 0 .594v.217a.245.245 0 0 0 0 .446v.013h.046a.2.2 0 0 0 .06.013.2.2 0 0 0 .061-.013h.045v-.013a.245.245 0 0 0 0-.446v-.217a.314.314 0 0 0 0-.594v-.143a.314.314 0 0 0 0-.595v-.142a.315.315 0 0 0 0-.6v-.142a.314.314 0 0 0 0-.6v-.141a.315.315 0 0 0 0-.6v-.216a.245.245 0 0 0 0-.446v-.292a.245.245 0 0 0 0-.446v-.292a.245.245 0 0 0 0-.445v-.291a.245.245 0 0 0 0-.446v-.292a.245.245 0 0 0 0-.446v-.291a.245.245 0 0 0 0-.446v-.286a.245.245 0 0 0 0-.445v-.213a.315.315 0 0 0 0-.6v-.141a.315.315 0 0 0 0-.6v-.134a.316.316 0 0 0 0-.6v-.138a.315.315 0 0 0 0-.599v-.137a.32.32 0 0 0 .213-.298m-.213 11.93a.17.17 0 0 1-.106.045.2.2 0 0 1-.106-.044v-.269a.2.2 0 0 1 .106-.044.17.17 0 0 1 .106.045Zm0-.738a.17.17 0 0 1-.106.045.2.2 0 0 1-.106-.044v-.268a.15.15 0 0 1 .212 0Zm0-.737a.17.17 0 0 1-.106.045.2.2 0 0 1-.106-.044v-.269a.15.15 0 0 1 .212 0Zm0-.738a.17.17 0 0 1-.106.045.2.2 0 0 1-.106-.044v-.268a.15.15 0 0 1 .212 0Zm0-.736a.17.17 0 0 1-.106.045.2.2 0 0 1-.106-.044v-.269a.15.15 0 0 1 .212 0Zm0-5.898a.17.17 0 0 1-.106.045.2.2 0 0 1-.106-.044v-.269a.15.15 0 0 1 .212 0Zm0-.737a.15.15 0 0 1-.212 0v-.269a.15.15 0 0 1 .212 0Zm0-.738a.17.17 0 0 1-.106.044.2.2 0 0 1-.106-.046v-.267a.2.2 0 0 1 .106-.043.17.17 0 0 1 .106.044Zm0-.736a.15.15 0 0 1-.212 0v-.265a.15.15 0 0 1 .212 0Zm-.106-.695a.2.2 0 0 1-.106-.043v-.268a.15.15 0 0 1 .212 0v.267a.17.17 0 0 1-.106.044m6.483 4.971a.32.32 0 0 0-.214-.3v-.216a.245.245 0 0 0 0-.446v-.29a.245.245 0 0 0 0-.445v-.291a.245.245 0 0 0 0-.446v-.292a.245.245 0 0 0 0-.446v-.292a.245.245 0 0 0 0-.446v-.29a.245.245 0 0 0 0-.446v-.195a.318.318 0 0 0 0-.59v-.153a.325.325 0 1 0-.212.006v.137a.313.313 0 0 0 0 .6v.2a.245.245 0 0 0 0 .446v.29a.245.245 0 0 0 0 .446v.287a.245.245 0 0 0 0 .446v.292a.245.245 0 0 0 0 .446v.291a.245.245 0 0 0 0 .445v.292a.245.245 0 0 0 0 .446v.216a.314.314 0 0 0 0 .6v.141a.315.315 0 0 0 0 .6v.141a.314.314 0 0 0 0 .599v.217a.245.245 0 0 0 0 .446v.291a.245.245 0 0 0 0 .446v.292a.245.245 0 0 0 0 .446v.291a.245.245 0 0 0 0 .446v.291a.245.245 0 0 0 0 .446v.292a.245.245 0 0 0 0 .446v.222a.312.312 0 0 0 0 .599v.136a.32.32 0 0 0-.228.3.32.32 0 1 0 .44-.3v-.136a.317.317 0 0 0 0-.588v-.239a.245.245 0 0 0 0-.446v-.292a.245.245 0 0 0 0-.446v-.291a.245.245 0 0 0 0-.446v-.291a.245.245 0 0 0 0-.446v-.292a.245.245 0 0 0 0-.446v-.291a.245.245 0 0 0 0-.446v-.217a.314.314 0 0 0 0-.599v-.141a.315.315 0 0 0 0-.6v-.141a.32.32 0 0 0 .214-.296m-.426-6.019a.17.17 0 0 1 .091-.038.18.18 0 0 1 .121.05v.256a.18.18 0 0 1-.121.05.17.17 0 0 1-.091-.04Zm0 .738a.17.17 0 0 1 .091-.038.18.18 0 0 1 .121.05v.255a.18.18 0 0 1-.121.051.17.17 0 0 1-.091-.038Zm.212 12.801a.18.18 0 0 1-.121.05.17.17 0 0 1-.091-.038v-.278a.16.16 0 0 1 .091-.038.18.18 0 0 1 .121.05Zm0-.737a.18.18 0 0 1-.121.05.16.16 0 0 1-.091-.038v-.28a.17.17 0 0 1 .091-.038.18.18 0 0 1 .121.051Zm0-5.175a.15.15 0 0 1-.212 0v-.267a.15.15 0 0 1 .212 0Zm0-.736a.15.15 0 0 1-.212 0v-.268a.15.15 0 0 1 .212 0Zm-.106-.694a.17.17 0 0 1-.106-.044v-.268a.15.15 0 0 1 .212 0v.268a.17.17 0 0 1-.106.044m1.199.56a.32.32 0 0 0-.212-.3v-.216a.246.246 0 0 0 0-.446v-.291a.246.246 0 0 0 0-.446v-.291a.246.246 0 0 0 0-.445v-.291a.246.246 0 0 0 0-.446v-.292a.246.246 0 0 0 0-.446v-.292a.246.246 0 0 0 0-.446v-.2a.319.319 0 0 0 0-.589v-.142a.319.319 0 0 0 0-.59v-.153a.326.326 0 1 0-.213.006v.137a.313.313 0 0 0 0 .6v.135a.313.313 0 0 0 0 .599v.194a.246.246 0 0 0 0 .446v.295a.246.246 0 0 0 0 .446v.292a.245.245 0 0 0 0 .445v.292a.246.246 0 0 0 0 .445v.292a.246.246 0 0 0 0 .446v.291a.246.246 0 0 0 0 .446v.217a.315.315 0 0 0 0 .6v.217a.246.246 0 0 0 0 .445v.292a.246.246 0 0 0 0 .446v.291a.246.246 0 0 0 0 .446v.292a.246.246 0 0 0 0 .446v.291a.245.245 0 0 0 0 .445v.292a.246.246 0 0 0 0 .446v.233a.313.313 0 0 0 0 .6v.133a.312.312 0 0 0 0 .599v.136a.32.32 0 0 0-.228.3.32.32 0 1 0 .441-.3v-.136a.318.318 0 0 0 0-.588v-.148a.319.319 0 0 0 0-.59v-.239a.246.246 0 0 0 0-.446v-.291a.246.246 0 0 0 0-.446v-.291a.246.246 0 0 0 0-.446v-.292a.246.246 0 0 0 0-.446v-.291a.246.246 0 0 0 0-.446v-.292a.246.246 0 0 0 0-.445v-.216a.32.32 0 0 0 .212-.303m-.425-6.757a.17.17 0 0 1 .092-.038.18.18 0 0 1 .121.05v.256a.18.18 0 0 1-.121.05.17.17 0 0 1-.092-.04Zm0 .738a.17.17 0 0 1 .092-.038.18.18 0 0 1 .121.05v.256a.18.18 0 0 1-.121.05.17.17 0 0 1-.092-.038Zm0 .737a.17.17 0 0 1 .092-.038.18.18 0 0 1 .121.05v.256a.18.18 0 0 1-.121.05.17.17 0 0 1-.092-.038Zm.213 12.064a.18.18 0 0 1-.121.05.17.17 0 0 1-.092-.038v-.278a.16.16 0 0 1 .092-.038.18.18 0 0 1 .121.05Zm0-.737a.18.18 0 0 1-.121.05.16.16 0 0 1-.092-.038v-.28a.17.17 0 0 1 .092-.038.18.18 0 0 1 .121.051Zm0-.737a.18.18 0 0 1-.121.05.16.16 0 0 1-.092-.038v-.28a.16.16 0 0 1 .092-.038.18.18 0 0 1 .121.05Zm-.106-5.13a.18.18 0 0 1-.107-.044v-.268a.15.15 0 0 1 .213 0v.268a.2.2 0 0 1-.106.044m1.184-6.795a.32.32 0 0 0-.639 0 .32.32 0 0 0 .228.3v.138a.313.313 0 0 0 0 .6v.135a.313.313 0 0 0 0 .599v.136a.313.313 0 0 0 0 .6v.199a.245.245 0 0 0 0 .446v.292a.245.245 0 0 0 0 .445v.292a.245.245 0 0 0 0 .445v.292a.245.245 0 0 0 0 .446v.291a.245.245 0 0 0 0 .446v.292a.245.245 0 0 0 0 .446v.296a.245.245 0 0 0 0 .445v.292a.245.245 0 0 0 0 .446v.291a.245.245 0 0 0 0 .446v.292a.245.245 0 0 0 0 .446v.291a.245.245 0 0 0 0 .445v.234a.312.312 0 0 0 0 .6v.136a.313.313 0 0 0 0 .6v.134a.312.312 0 0 0 0 .599v.136a.32.32 0 0 0-.228.3.32.32 0 1 0 .44-.3v-.136a.317.317 0 0 0 0-.588v-.148a.318.318 0 0 0 0-.59v-.153a.317.317 0 0 0 0-.589v-.239a.245.245 0 0 0 0-.446v-.291a.245.245 0 0 0 0-.446v-.292a.245.245 0 0 0 0-.446v-.291a.245.245 0 0 0 0-.446v-.292a.245.245 0 0 0 0-.445v-.295a.245.245 0 0 0 0-.446v-.292a.245.245 0 0 0 0-.446v-.291a.245.245 0 0 0 0-.446v-.288a.245.245 0 0 0 0-.445v-.291a.245.245 0 0 0 0-.446v-.292a.245.245 0 0 0 0-.446v-.2a.318.318 0 0 0 0-.59v-.148a.318.318 0 0 0 0-.589v-.142a.318.318 0 0 0 0-.59v-.153a.32.32 0 0 0 .199-.295m-.2 13.395a.15.15 0 0 1-.212.012v-.274a.16.16 0 0 1 .092-.038.17.17 0 0 1 .12.05Zm0-.737a.17.17 0 0 1-.12.05.16.16 0 0 1-.092-.038v-.28a.17.17 0 0 1 .092-.038.17.17 0 0 1 .12.051Zm0-.737a.17.17 0 0 1-.12.05.16.16 0 0 1-.092-.038v-.28a.16.16 0 0 1 .092-.038.17.17 0 0 1 .12.05Zm0-.738a.17.17 0 0 1-.12.051.17.17 0 0 1-.092-.039v-.28a.17.17 0 0 1 .092-.038.17.17 0 0 1 .12.051Zm0-8.847a.15.15 0 0 1-.212.012v-.28a.15.15 0 0 1 .212.012Zm0-.737a.15.15 0 0 1-.212.012v-.273a.15.15 0 0 1 .212.012Zm0-.737a.18.18 0 0 1-.12.05.17.17 0 0 1-.092-.038v-.276a.15.15 0 0 1 .212.012Zm-.12-.688a.17.17 0 0 1-.091-.036v-.28a.15.15 0 0 1 .212.012v.258a.17.17 0 0 1-.12.05Zm1.201-.174a.32.32 0 0 0-.64 0 .32.32 0 0 0 .229.3v.138a.312.312 0 0 0 0 .6v.135a.312.312 0 0 0 0 .599v.136a.312.312 0 0 0 0 .6v.135a.312.312 0 0 0 0 .6v.2a.245.245 0 0 0 0 .445v.292a.245.245 0 0 0 0 .445v.292a.245.245 0 0 0 0 .446v.291a.245.245 0 0 0 0 .446v.292a.245.245 0 0 0 0 .446v.298a.245.245 0 0 0 0 .445v.292a.245.245 0 0 0 0 .446v.291a.245.245 0 0 0 0 .446v.292a.245.245 0 0 0 0 .446v.232a.312.312 0 0 0 0 .6v.136a.312.312 0 0 0 0 .6v.136a.312.312 0 0 0 0 .6v.136a.312.312 0 0 0 0 .599v.136a.32.32 0 0 0-.229.3.32.32 0 1 0 .441-.3v-.136a.317.317 0 0 0 0-.588v-.148a.318.318 0 0 0 0-.59v-.153a.317.317 0 0 0 0-.589v-.148a.318.318 0 0 0 0-.59v-.238a.245.245 0 0 0 0-.446v-.291a.25.25 0 0 0 .143-.224.25.25 0 0 0-.143-.223v-.291a.245.245 0 0 0 0-.446v-.292a.245.245 0 0 0 0-.445v-.295a.245.245 0 0 0 0-.446v-.292a.245.245 0 0 0 0-.446v-.291a.245.245 0 0 0 0-.446v-.288a.245.245 0 0 0 0-.445v-.291a.246.246 0 0 0 0-.447v-.2a.318.318 0 0 0 0-.59v-.147a.318.318 0 0 0 0-.59v-.148a.318.318 0 0 0 0-.589v-.142a.318.318 0 0 0 0-.59v-.153a.32.32 0 0 0 .199-.295m-.2 13.395a.18.18 0 0 1-.121.05.17.17 0 0 1-.091-.038v-.274a.16.16 0 0 1 .091-.038.18.18 0 0 1 .121.05Zm0-.737a.18.18 0 0 1-.121.05.16.16 0 0 1-.091-.038v-.28a.17.17 0 0 1 .091-.038.18.18 0 0 1 .121.051Zm0-.737a.18.18 0 0 1-.121.05.16.16 0 0 1-.091-.038v-.28a.16.16 0 0 1 .091-.038.18.18 0 0 1 .121.05Zm0-.738a.18.18 0 0 1-.121.051.17.17 0 0 1-.091-.039v-.28a.17.17 0 0 1 .091-.038.18.18 0 0 1 .121.051Zm0-.737a.18.18 0 0 1-.121.05.16.16 0 0 1-.091-.038v-.28a.16.16 0 0 1 .091-.038.18.18 0 0 1 .121.05Zm0-7.373a.18.18 0 0 1-.121.05.17.17 0 0 1-.091-.038v-.28a.17.17 0 0 1 .091-.038.18.18 0 0 1 .121.05Zm0-.737a.18.18 0 0 1-.121.05.17.17 0 0 1-.091-.038v-.28a.17.17 0 0 1 .091-.038.18.18 0 0 1 .121.05Zm0-.737a.18.18 0 0 1-.121.05.17.17 0 0 1-.091-.038v-.273a.17.17 0 0 1 .091-.038.18.18 0 0 1 .121.05Zm0-.737a.18.18 0 0 1-.121.05.17.17 0 0 1-.091-.038v-.276a.17.17 0 0 1 .091-.038.18.18 0 0 1 .121.05Zm-.121-.688a.17.17 0 0 1-.091-.038v-.28a.17.17 0 0 1 .091-.038.18.18 0 0 1 .121.05v.26a.18.18 0 0 1-.12.05ZM22 6.841a.32.32 0 0 0-.2-.295v-.142a.319.319 0 0 0 0-.59V5.57a.246.246 0 0 0 0-.446v-.026h-.213v.026a.245.245 0 0 0 0 .445v.235a.313.313 0 0 0 0 .6v.135a.313.313 0 0 0 0 .599v.136a.313.313 0 0 0 0 .6v.135a.313.313 0 0 0 0 .6v.136a.313.313 0 0 0 0 .6v.194a.245.245 0 0 0 0 .445v.292a.245.245 0 0 0 0 .445v.292a.245.245 0 0 0 0 .446v.292a.245.245 0 0 0 0 .445v.306a.245.245 0 0 0 0 .444v.292a.245.245 0 0 0 0 .446v.292a.245.245 0 0 0 0 .445v.234a.312.312 0 0 0 0 .6v.135a.313.313 0 0 0 0 .6v.136a.312.312 0 0 0 0 .6v.136a.313.313 0 0 0 0 .6v.138a.312.312 0 0 0 0 .599v.2a.245.245 0 0 0 0 .445v.026h.213v-.025a.246.246 0 0 0 0-.446v-.2a.318.318 0 0 0 0-.588v-.148a.319.319 0 0 0 0-.59v-.153a.318.318 0 0 0 0-.589v-.148a.319.319 0 0 0 0-.59v-.147a.318.318 0 0 0 0-.589v-.24a.245.245 0 0 0 0-.445v-.292a.246.246 0 0 0 0-.446v-.292a.245.245 0 0 0 0-.444v-.296a.246.246 0 0 0 0-.446v-.292a.246.246 0 0 0 0-.446v-.292a.245.245 0 0 0 0-.445v-.288a.246.246 0 0 0 0-.445v-.2a.319.319 0 0 0 0-.59V8.61a.319.319 0 0 0 0-.59v-.147a.319.319 0 0 0 0-.59v-.148a.32.32 0 0 0 .2-.294m-.411-.877a.17.17 0 0 1 .092-.038.18.18 0 0 1 .121.05v.256a.18.18 0 0 1-.121.05.17.17 0 0 1-.092-.038Zm.211 12.064a.18.18 0 0 1-.121.05.16.16 0 0 1-.092-.038v-.279a.17.17 0 0 1 .092-.039.18.18 0 0 1 .121.051Zm0-.737a.18.18 0 0 1-.121.05.17.17 0 0 1-.092-.038v-.28a.16.16 0 0 1 .092-.038.18.18 0 0 1 .121.05Zm0-.738a.18.18 0 0 1-.121.051.17.17 0 0 1-.092-.039v-.279a.17.17 0 0 1 .092-.039.18.18 0 0 1 .121.051Zm0-.737a.18.18 0 0 1-.121.05.17.17 0 0 1-.092-.038v-.28a.16.16 0 0 1 .092-.038.18.18 0 0 1 .121.05Zm0-.737a.18.18 0 0 1-.121.051.17.17 0 0 1-.092-.039v-.279a.17.17 0 0 1 .092-.039.18.18 0 0 1 .121.051Zm0-5.898a.18.18 0 0 1-.121.05.17.17 0 0 1-.092-.038v-.28a.17.17 0 0 1 .092-.038.18.18 0 0 1 .121.05Zm0-.738a.18.18 0 0 1-.121.05.17.17 0 0 1-.092-.038v-.28a.17.17 0 0 1 .092-.038.18.18 0 0 1 .121.05Zm0-.737a.18.18 0 0 1-.121.05.17.17 0 0 1-.092-.038v-.28a.17.17 0 0 1 .092-.038.18.18 0 0 1 .121.05Zm-.121-.687a.17.17 0 0 1-.092-.038v-.277a.17.17 0 0 1 .092-.038.18.18 0 0 1 .121.05v.256a.18.18 0 0 1-.119.047Zm-.545 7.176a.32.32 0 0 0-.213-.3v-.217a.246.246 0 0 0 0-.446v-.292a.246.246 0 0 0 0-.445v-.293a.246.246 0 0 0 0-.446v-.292a.246.246 0 0 0 0-.446v-.291a.246.246 0 0 0 0-.446v-.2a.32.32 0 0 0 0-.59v-.143a.319.319 0 0 0 0-.59v-.167a.319.319 0 0 0 0-.59v-.147a.32.32 0 0 0 0-.591v-.147a.319.319 0 0 0 0-.589v-.223a.246.246 0 0 0 0-.446V5.57a.246.246 0 0 0 0-.446v-.026h-.213v.026a.245.245 0 0 0 0 .445v.293a.245.245 0 0 0 0 .445v.214a.313.313 0 0 0 0 .599v.135a.313.313 0 0 0 0 .6v.136a.313.313 0 0 0 0 .6v.155a.313.313 0 0 0 0 .6v.136a.313.313 0 0 0 0 .599v.194a.245.245 0 0 0 0 .445v.293a.25.25 0 0 0-.141.222.25.25 0 0 0 .141.223v.292a.245.245 0 0 0 0 .445v.307a.245.245 0 0 0 0 .444v.292a.25.25 0 0 0-.141.223.25.25 0 0 0 .141.222v.218a.314.314 0 0 0 0 .595v.143a.314.314 0 0 0 0 .595v.141a.315.315 0 0 0 0 .6v.141a.315.315 0 0 0 0 .6v.142a.315.315 0 0 0 0 .6v.217a.25.25 0 0 0-.141.222.25.25 0 0 0 .141.222v.28a.245.245 0 0 0 0 .445v.026h.213v-.025a.246.246 0 0 0 0-.446v-.3a.246.246 0 0 0 0-.445v-.216a.315.315 0 0 0 0-.6V16.7a.315.315 0 0 0 0-.6v-.141a.315.315 0 0 0 0-.6v-.141a.314.314 0 0 0 0-.595v-.143a.32.32 0 0 0 .213-.285m-.426-7.513a.17.17 0 0 1 .092-.038.18.18 0 0 1 .121.05v.256a.18.18 0 0 1-.121.054.17.17 0 0 1-.092-.038Zm0 .737a.17.17 0 0 1 .092-.039.18.18 0 0 1 .121.051v.255a.18.18 0 0 1-.121.05.17.17 0 0 1-.092-.038Zm0 .737a.17.17 0 0 1 .092-.038.18.18 0 0 1 .121.05v.256a.18.18 0 0 1-.121.05.17.17 0 0 1-.092-.038Zm0 .757a.17.17 0 0 1 .092-.038.18.18 0 0 1 .121.05v.256a.18.18 0 0 1-.121.05.17.17 0 0 1-.092-.038Zm0 .738a.16.16 0 0 1 .092-.038.18.18 0 0 1 .121.05v.254a.18.18 0 0 1-.121.05.16.16 0 0 1-.092-.038Zm.213 7.627a.17.17 0 0 1-.107.044.17.17 0 0 1-.106-.044v-.269a.17.17 0 0 1 .106-.044.17.17 0 0 1 .107.044Zm0-.738a.17.17 0 0 1-.107.044.17.17 0 0 1-.106-.044v-.268a.17.17 0 0 1 .106-.044.17.17 0 0 1 .107.044Zm0-.737a.17.17 0 0 1-.107.044.17.17 0 0 1-.106-.044v-.269a.2.2 0 0 1 .106-.044.18.18 0 0 1 .107.044Zm0-.737a.17.17 0 0 1-.107.044.17.17 0 0 1-.106-.044v-.265a.17.17 0 0 1 .106-.044.17.17 0 0 1 .107.044Zm-.107-.694a.17.17 0 0 1-.106-.044v-.268a.2.2 0 0 1 .106-.044.18.18 0 0 1 .107.044v.268a.17.17 0 0 1-.107.044m-.56-.177a.32.32 0 0 0-.213-.3v-.124a.319.319 0 0 0 0-.59v-.239a.245.245 0 0 0 0-.444v-.296a.245.245 0 0 0 0-.445v-.292a.245.245 0 0 0 0-.446v-.2a.319.319 0 0 0 0-.59v-.147a.32.32 0 0 0 0-.59v-.163a.32.32 0 0 0 0-.591v-.147a.319.319 0 0 0 0-.59v-.148a.319.319 0 0 0 0-.59v-.218a.245.245 0 0 0 0-.446v-.295a.245.245 0 0 0 0-.445v-.29a.245.245 0 0 0 0-.445v-.026h-.213v.026a.246.246 0 0 0 0 .446v.291a.246.246 0 0 0 0 .446v.297a.246.246 0 0 0 0 .446v.212a.313.313 0 0 0 0 .6v.136a.313.313 0 0 0 0 .6v.135a.314.314 0 0 0 0 .6v.155a.313.313 0 0 0 0 .599v.135a.313.313 0 0 0 0 .6v.194a.246.246 0 0 0 0 .446v.292a.246.246 0 0 0 0 .446v.302a.246.246 0 0 0 0 .445v.233a.313.313 0 0 0 0 .6v.12a.314.314 0 0 0 0 .595v.142a.315.315 0 0 0 0 .6v.141a.315.315 0 0 0 0 .6v.141a.315.315 0 0 0 0 .6v.217a.245.245 0 0 0 0 .445v.292a.246.246 0 0 0 0 .445v.281a.246.246 0 0 0 0 .446v.025h.213v-.026a.245.245 0 0 0 0-.445v-.3a.245.245 0 0 0 0-.445v-.292a.245.245 0 0 0 0-.445V16.7a.314.314 0 0 0 0-.595v-.143a.314.314 0 0 0 0-.595v-.141a.314.314 0 0 0 0-.595v-.143a.32.32 0 0 0 .213-.293m-.426-6.776a.17.17 0 0 1 .092-.039.18.18 0 0 1 .121.051v.255a.18.18 0 0 1-.121.05.17.17 0 0 1-.092-.038Zm0 .737a.17.17 0 0 1 .092-.038.18.18 0 0 1 .121.05v.256a.18.18 0 0 1-.121.05.17.17 0 0 1-.092-.038Zm0 .738a.17.17 0 0 1 .092-.039.18.18 0 0 1 .121.051v.255a.18.18 0 0 1-.121.051.17.17 0 0 1-.092-.039Zm0 .757a.16.16 0 0 1 .092-.038.18.18 0 0 1 .121.05v.254a.18.18 0 0 1-.121.05.16.16 0 0 1-.092-.038Zm0 .736a.17.17 0 0 1 .092-.038.18.18 0 0 1 .121.05v.256a.18.18 0 0 1-.121.05.17.17 0 0 1-.092-.038Zm0 2.949a.17.17 0 0 1 .092-.038.18.18 0 0 1 .121.05v.253a.18.18 0 0 1-.121.051.17.17 0 0 1-.092-.039Zm.213 3.199a.17.17 0 0 1-.107.044.17.17 0 0 1-.106-.044v-.268a.17.17 0 0 1 .106-.044.17.17 0 0 1 .107.044Zm0-.738a.17.17 0 0 1-.107.045.17.17 0 0 1-.106-.044v-.269a.15.15 0 0 1 .213 0Zm0-.736a.17.17 0 0 1-.107.044.17.17 0 0 1-.106-.044v-.26a.17.17 0 0 1 .106-.044.17.17 0 0 1 .107.045Zm-.107-.694a.17.17 0 0 1-.106-.044v-.268a.15.15 0 0 1 .213 0v.267a.17.17 0 0 1-.107.05Zm-.561-.91a.32.32 0 0 0-.213-.3v-.126a.318.318 0 0 0 0-.589v-.24a.245.245 0 0 0 0-.446v-.2a.319.319 0 0 0 0-.591v-.143a.318.318 0 0 0 0-.59v-.167a.318.318 0 0 0 0-.589v-.147a.319.319 0 0 0 0-.591v-.147a.318.318 0 0 0 0-.59v-.22a.245.245 0 0 0 0-.445v-.291a.245.245 0 0 0 0-.446v-.295a.245.245 0 0 0 0-.446V5.57a.245.245 0 0 0 0-.446v-.026h-.213v.026a.245.245 0 0 0 0 .445v.293a.245.245 0 0 0 0 .445v.297a.245.245 0 0 0 0 .445v.292a.245.245 0 0 0 0 .445V8a.313.313 0 0 0 0 .6v.135a.314.314 0 0 0 0 .6v.135a.313.313 0 0 0 0 .599v.155a.313.313 0 0 0 0 .6v.135a.314.314 0 0 0 0 .6v.194a.245.245 0 0 0 0 .445v.233a.313.313 0 0 0 0 .599v.12a.315.315 0 0 0 0 .6v.151a.314.314 0 0 0 0 .595v.143a.314.314 0 0 0 0 .595v.157a.313.313 0 0 0 0 .6v.194a.246.246 0 0 0 0 .446v.292a.245.245 0 0 0 0 .445v.293a.245.245 0 0 0 0 .444v.294a.245.245 0 0 0 0 .445v.026h.213v-.025a.245.245 0 0 0 0-.446v-.3a.245.245 0 0 0 0-.445v-.291a.245.245 0 0 0 0-.446v-.292a.245.245 0 0 0 0-.446v-.2a.318.318 0 0 0 0-.59v-.163a.314.314 0 0 0 0-.595v-.143a.314.314 0 0 0 0-.595v-.142a.32.32 0 0 0 .213-.294m-.426-5.298a.17.17 0 0 1 .092-.038.18.18 0 0 1 .121.05v.256a.18.18 0 0 1-.121.05.17.17 0 0 1-.092-.038Zm0 .738a.17.17 0 0 1 .092-.039.18.18 0 0 1 .121.051v.255a.18.18 0 0 1-.121.051.17.17 0 0 1-.092-.039Zm0 .737a.17.17 0 0 1 .092-.038.18.18 0 0 1 .121.05v.256a.18.18 0 0 1-.121.05.17.17 0 0 1-.092-.038Zm0 .756a.17.17 0 0 1 .092-.038.18.18 0 0 1 .121.05v.256a.18.18 0 0 1-.121.05.17.17 0 0 1-.092-.038Zm0 .738a.16.16 0 0 1 .092-.038.18.18 0 0 1 .121.05v.255a.18.18 0 0 1-.121.05.16.16 0 0 1-.092-.038Zm0 1.474a.16.16 0 0 1 .092-.037.18.18 0 0 1 .121.049v.255a.18.18 0 0 1-.121.05.16.16 0 0 1-.092-.038Zm.213 3.217a.18.18 0 0 1-.121.05.17.17 0 0 1-.092-.038v-.28a.16.16 0 0 1 .092-.038.18.18 0 0 1 .121.05Zm0-.75a.17.17 0 0 1-.106.044.17.17 0 0 1-.107-.044v-.268a.17.17 0 0 1 .107-.044.17.17 0 0 1 .106.044Zm0-.738a.17.17 0 0 1-.106.044.17.17 0 0 1-.107-.044v-.268a.18.18 0 0 1 .107-.044.2.2 0 0 1 .106.044Zm-.106-.693a.17.17 0 0 1-.107-.044v-.268a.18.18 0 0 1 .107-.045.17.17 0 0 1 .106.045v.268a.17.17 0 0 1-.106.041Zm-.562-.919a.32.32 0 0 0-.212-.299v-.118a.319.319 0 0 0 0-.59v-.147a.32.32 0 0 0 0-.591v-.172a.319.319 0 0 0 0-.59v-.148a.319.319 0 0 0 0-.589v-.146a.32.32 0 0 0 0-.591v-.219a.246.246 0 0 0 0-.446v-.292a.245.245 0 0 0 0-.445v-.292a.245.245 0 0 0 0-.445v-.295a.245.245 0 0 0 0-.445v-.29a.245.245 0 0 0 0-.445v-.026h-.213v.026a.246.246 0 0 0 0 .446v.291a.246.246 0 0 0 0 .446v.297a.246.246 0 0 0 0 .446v.291a.245.245 0 0 0 0 .445v.287a.246.246 0 0 0 0 .446v.213a.314.314 0 0 0 0 .6v.135a.313.313 0 0 0 0 .599v.136a.313.313 0 0 0 0 .6v.154a.314.314 0 0 0 0 .6v.146a.313.313 0 0 0 0 .6v.119a.314.314 0 0 0 0 .599v.142a.314.314 0 0 0 0 .6v.139a.314.314 0 0 0 0 .595v.159a.312.312 0 0 0 0 .6v.199a.245.245 0 0 0 0 .445v.292a.246.246 0 0 0 0 .446v.292a.245.245 0 0 0 0 .445v.292a.246.246 0 0 0 0 .445v.288a.246.246 0 0 0 0 .446v.025h.213v-.026a.245.245 0 0 0 0-.445v-.3a.245.245 0 0 0 0-.444v-.293a.245.245 0 0 0 0-.445v-.292a.246.246 0 0 0 0-.446v-.292a.245.245 0 0 0 0-.445v-.199a.318.318 0 0 0 0-.589v-.165a.315.315 0 0 0 0-.595v-.142a.315.315 0 0 0 0-.6v-.142a.32.32 0 0 0 .212-.291m-.425-3.826a.17.17 0 0 1 .091-.038.18.18 0 0 1 .122.051v.255a.18.18 0 0 1-.122.051.17.17 0 0 1-.091-.038Zm0 .738a.17.17 0 0 1 .091-.038.17.17 0 0 1 .122.051v.258a.18.18 0 0 1-.122.05.17.17 0 0 1-.091-.038Zm0 .737a.16.16 0 0 1 .091-.038.18.18 0 0 1 .122.05v.255a.18.18 0 0 1-.122.051.17.17 0 0 1-.091-.038Zm0 .757a.16.16 0 0 1 .091-.038.18.18 0 0 1 .122.05v.255a.18.18 0 0 1-.122.05.17.17 0 0 1-.091-.037Zm0 .737a.17.17 0 0 1 .091-.038.17.17 0 0 1 .122.051v.255a.18.18 0 0 1-.122.05.17.17 0 0 1-.091-.038Zm.213 3.217a.18.18 0 0 1-.122.051.17.17 0 0 1-.091-.039v-.28a.17.17 0 0 1 .091-.038.18.18 0 0 1 .122.051Zm0-.751a.15.15 0 0 1-.213 0v-.268a.15.15 0 0 1 .213 0Zm0-.737a.15.15 0 0 1-.213 0v-.269a.2.2 0 0 1 .106-.044.17.17 0 0 1 .107.045Zm-.107-.694a.17.17 0 0 1-.106-.044v-.267a.17.17 0 0 1 .106-.044.17.17 0 0 1 .107.045v.266a.17.17 0 0 1-.107.048Zm-.571-3.126a.32.32 0 0 0-.2-.295v-.22a.245.245 0 0 0 0-.445v-.292a.246.246 0 0 0 0-.446v-.292a.245.245 0 0 0 0-.445v-.291a.246.246 0 0 0 0-.446v-.295a.246.246 0 0 0 0-.446V5.57a.246.246 0 0 0 0-.446v-.026h-.213v.026a.245.245 0 0 0 0 .445v.293a.245.245 0 0 0 0 .445v.297a.246.246 0 0 0 0 .446v.291a.245.245 0 0 0 0 .445v.287a.246.246 0 0 0 0 .446v.292a.245.245 0 0 0 0 .445v.214a.313.313 0 0 0 0 .599v.136a.313.313 0 0 0 0 .6v.135a.313.313 0 0 0 0 .6v.136a.313.313 0 0 0 0 .6v.135a.313.313 0 0 0 0 .599v.136a.313.313 0 0 0 0 .6v.155a.312.312 0 0 0 0 .6v.2a.246.246 0 0 0 0 .446v.291a.245.245 0 0 0 0 .445v.292a.246.246 0 0 0 0 .446v.292a.245.245 0 0 0 0 .445v.292a.246.246 0 0 0 0 .445v.304a.245.245 0 0 0 0 .445v.026h.213v-.025a.246.246 0 0 0 0-.446v-.3a.246.246 0 0 0 0-.445v-.292a.245.245 0 0 0 0-.445v-.292a.246.246 0 0 0 0-.446v-.292a.245.245 0 0 0 0-.445v-.291a.246.246 0 0 0 0-.446v-.2a.317.317 0 0 0 0-.589v-.167a.318.318 0 0 0 0-.59v-.148a.318.318 0 0 0 0-.589v-.147a.319.319 0 0 0 0-.591v-.147a.318.318 0 0 0 0-.59v-.145a.318.318 0 0 0 0-.59v-.148a.32.32 0 0 0 .2-.293m-.2 4.57a.18.18 0 0 1-.121.051.17.17 0 0 1-.092-.038v-.28a.16.16 0 0 1 .092-.038.18.18 0 0 1 .121.05Zm0-.756a.18.18 0 0 1-.121.05.17.17 0 0 1-.092-.038v-.28a.17.17 0 0 1 .092-.039.18.18 0 0 1 .121.051Zm0-.738a.18.18 0 0 1-.121.05.17.17 0 0 1-.092-.038v-.279a.17.17 0 0 1 .092-.038.18.18 0 0 1 .121.049Zm0-.736a.18.18 0 0 1-.121.05.17.17 0 0 1-.092-.038v-.28a.17.17 0 0 1 .092-.038.18.18 0 0 1 .121.05Zm0-.738a.18.18 0 0 1-.121.05.17.17 0 0 1-.092-.038v-.283a.17.17 0 0 1 .092-.038.18.18 0 0 1 .121.05Zm0-.738a.18.18 0 0 1-.121.051.17.17 0 0 1-.092-.039v-.279a.17.17 0 0 1 .092-.038.18.18 0 0 1 .121.05Zm-.121-.687a.17.17 0 0 1-.092-.038v-.279a.17.17 0 0 1 .092-.038.18.18 0 0 1 .121.05v.259a.18.18 0 0 1-.123.046Zm-.549 1.297a.32.32 0 0 0-.212-.3v-.143a.319.319 0 0 0 0-.59v-.22a.25.25 0 0 0 .142-.222.25.25 0 0 0-.142-.222v-.292a.245.245 0 0 0 0-.445v-.292a.246.246 0 0 0 0-.446v-.292a.245.245 0 0 0 0-.445v-.292a.245.245 0 0 0 0-.445v-.295a.245.245 0 0 0 0-.445v-.2a.319.319 0 1 0-.441-.295.32.32 0 0 0 .228.3v.194a.245.245 0 0 0 0 .446v.3a.245.245 0 0 0 0 .446v.29a.245.245 0 0 0 0 .446v.287a.245.245 0 0 0 0 .446v.292a.245.245 0 0 0 0 .445v.292a.245.245 0 0 0 0 .445v.214a.313.313 0 0 0 0 .6v.138a.314.314 0 0 0 0 .6v.141a.315.315 0 0 0 0 .6v.138a.313.313 0 0 0 0 .599v.155a.313.313 0 0 0 0 .6v.194a.245.245 0 0 0 0 .446v.292a.245.245 0 0 0 0 .446v.291a.245.245 0 0 0 0 .445v.292a.245.245 0 0 0 0 .446v.292a.245.245 0 0 0 0 .446v.291a.245.245 0 0 0 0 .445v.233a.32.32 0 0 0-.228.3.32.32 0 1 0 .441-.3v-.238a.245.245 0 0 0 0-.444v-.293a.245.245 0 0 0 0-.445v-.292a.25.25 0 0 0 .142-.223.25.25 0 0 0-.142-.222v-.293a.245.245 0 0 0 0-.445v-.291a.246.246 0 0 0 0-.446v-.292a.245.245 0 0 0 0-.445v-.2a.319.319 0 0 0 0-.59v-.167a.319.319 0 0 0 0-.589v-.144a.315.315 0 0 0 0-.6v-.142a.32.32 0 0 0 .212-.291m-.425-6.019a.17.17 0 0 1 .091-.038.18.18 0 0 1 .122.051v.255a.18.18 0 0 1-.122.05.17.17 0 0 1-.091-.038Zm0 5.142a.16.16 0 0 1 .091-.038.18.18 0 0 1 .122.05v.255a.18.18 0 0 1-.122.051.17.17 0 0 1-.091-.038Zm.213 8.397a.18.18 0 0 1-.122.05.17.17 0 0 1-.091-.038v-.278a.16.16 0 0 1 .091-.038.18.18 0 0 1 .122.05Zm0-5.161a.18.18 0 0 1-.122.051.17.17 0 0 1-.091-.039v-.28a.17.17 0 0 1 .095-.035.18.18 0 0 1 .122.05Zm0-.757a.18.18 0 0 1-.122.05.17.17 0 0 1-.091-.038v-.279a.17.17 0 0 1 .091-.038.18.18 0 0 1 .122.05Zm0-.731a.18.18 0 0 1-.107.045.2.2 0 0 1-.106-.044v-.268a.17.17 0 0 1 .106-.044.18.18 0 0 1 .107.044Zm-.107-.693a.17.17 0 0 1-.106-.044v-.268a.17.17 0 0 1 .106-.044.17.17 0 0 1 .107.045v.267a.18.18 0 0 1-.107.044m-.576-6.057a.32.32 0 0 0-.639 0 .32.32 0 0 0 .228.3v.138a.313.313 0 0 0 0 .6v.2a.246.246 0 0 0 0 .446v.291a.245.245 0 0 0 0 .445v.287a.246.246 0 0 0 0 .446v.292a.245.245 0 0 0 0 .445v.292a.246.246 0 0 0 0 .445v.292a.245.245 0 0 0 0 .445v.214a.313.313 0 0 0 0 .6v.136a.313.313 0 0 0 0 .6v.154a.313.313 0 0 0 0 .599v.2a.246.246 0 0 0 0 .446v.292a.245.245 0 0 0 0 .445v.292a.246.246 0 0 0 0 .446v.291a.245.245 0 0 0 0 .445v.292a.246.246 0 0 0 0 .446v.292a.245.245 0 0 0 0 .445v.235a.312.312 0 0 0 0 .599v.136a.32.32 0 0 0-.228.3.32.32 0 1 0 .441-.3v-.136a.318.318 0 0 0 0-.588v-.24a.245.245 0 0 0 0-.445v-.292a.246.246 0 0 0 0-.446v-.292a.245.245 0 0 0 0-.445v-.291a.246.246 0 0 0 0-.446v-.292a.245.245 0 0 0 0-.445v-.292a.246.246 0 0 0 0-.446v-.2a.319.319 0 0 0 0-.589v-.166a.32.32 0 0 0 0-.591v-.147a.319.319 0 0 0 0-.59v-.22a.245.245 0 0 0 0-.445v-.298a.246.246 0 0 0 0-.445v-.292a.245.245 0 0 0 0-.445v-.292a.246.246 0 0 0 0-.446v-.292a.245.245 0 0 0 0-.445v-.291a.246.246 0 0 0 0-.446v-.195a.319.319 0 0 0 0-.59v-.153a.32.32 0 0 0 .198-.295m-.2 13.395a.18.18 0 0 1-.121.05.17.17 0 0 1-.092-.038v-.274a.16.16 0 0 1 .092-.038.18.18 0 0 1 .121.05Zm0-.737a.18.18 0 0 1-.121.05.16.16 0 0 1-.092-.038v-.279a.17.17 0 0 1 .092-.039.18.18 0 0 1 .121.051Zm0-5.162a.18.18 0 0 1-.121.05.16.16 0 0 1-.092-.038v-.273a.16.16 0 0 1 .092-.037.18.18 0 0 1 .121.049Zm0-.755a.18.18 0 0 1-.121.05.17.17 0 0 1-.092-.038v-.28a.17.17 0 0 1 .092-.038.18.18 0 0 1 .121.05Zm0-.738a.18.18 0 0 1-.121.05.17.17 0 0 1-.092-.038v-.279a.17.17 0 0 1 .092-.038.18.18 0 0 1 .121.05Zm0-5.141a.18.18 0 0 1-.121.05.17.17 0 0 1-.092-.038v-.276a.17.17 0 0 1 .092-.038.18.18 0 0 1 .121.05Zm-.121-.688a.17.17 0 0 1-.092-.038v-.28a.17.17 0 0 1 .092-.038.18.18 0 0 1 .121.05v.26a.18.18 0 0 1-.119.05Zm-.559-.174a.32.32 0 0 0-.639 0 .32.32 0 0 0 .228.3v.138a.313.313 0 0 0 0 .6v.135a.313.313 0 0 0 0 .599v.2a.245.245 0 0 0 0 .445v.29a.25.25 0 0 0-.142.223.25.25 0 0 0 .142.222v.293a.245.245 0 0 0 0 .445v.293a.25.25 0 0 0-.142.222.25.25 0 0 0 .142.222v.292a.245.245 0 0 0 0 .445v.293a.25.25 0 0 0-.142.222.25.25 0 0 0 .142.223v.234a.313.313 0 0 0 0 .6v.2a.245.245 0 0 0 0 .444v.292a.25.25 0 0 0-.142.223.25.25 0 0 0 .142.222v.293a.245.245 0 0 0 0 .445v.292a.25.25 0 0 0-.142.223.25.25 0 0 0 .142.222v.292a.245.245 0 0 0 0 .445v.293a.25.25 0 0 0-.142.222.25.25 0 0 0 .142.223v.233a.313.313 0 0 0 0 .6v.134a.312.312 0 0 0 0 .599v.136a.32.32 0 0 0-.228.3.32.32 0 1 0 .441-.3v-.136a.318.318 0 0 0 0-.588v-.148a.319.319 0 0 0 0-.59v-.239a.246.246 0 0 0 0-.446v-.291a.246.246 0 0 0 0-.446v-.291a.246.246 0 0 0 0-.446v-.292a.246.246 0 0 0 0-.446v-.291a.246.246 0 0 0 0-.446v-.292a.246.246 0 0 0 0-.445v-.2a.319.319 0 0 0 0-.59v-.239a.246.246 0 0 0 0-.446v-.291a.246.246 0 0 0 0-.446v-.297a.246.246 0 0 0 0-.445v-.291a.246.246 0 0 0 0-.446v-.292a.246.246 0 0 0 0-.446v-.292a.246.246 0 0 0 0-.446v-.2a.319.319 0 0 0 0-.589v-.142a.319.319 0 0 0 0-.59v-.153a.32.32 0 0 0 .198-.295m-.2 13.395a.18.18 0 0 1-.121.05.17.17 0 0 1-.092-.038v-.274a.16.16 0 0 1 .092-.038.18.18 0 0 1 .121.05Zm0-.737a.18.18 0 0 1-.121.05.16.16 0 0 1-.092-.038v-.279a.17.17 0 0 1 .092-.039.18.18 0 0 1 .121.051Zm0-.737a.18.18 0 0 1-.121.05.17.17 0 0 1-.092-.038v-.28a.16.16 0 0 1 .092-.038.18.18 0 0 1 .121.05Zm0-5.161a.18.18 0 0 1-.121.05.17.17 0 0 1-.092-.038v-.28a.17.17 0 0 1 .092-.038.18.18 0 0 1 .121.05Zm0-5.161a.18.18 0 0 1-.121.05.17.17 0 0 1-.092-.038v-.273a.17.17 0 0 1 .092-.038.18.18 0 0 1 .121.05Zm0-.737a.18.18 0 0 1-.121.05.17.17 0 0 1-.092-.038v-.276a.17.17 0 0 1 .092-.038.18.18 0 0 1 .121.05Zm-.121-.688a.17.17 0 0 1-.092-.038v-.28a.17.17 0 0 1 .092-.038.18.18 0 0 1 .121.05v.26a.18.18 0 0 1-.119.05Zm-.56-.174a.319.319 0 1 0-.638 0 .32.32 0 0 0 .228.3v.138a.313.313 0 0 0 0 .6v.135a.313.313 0 0 0 0 .599v.136a.313.313 0 0 0 0 .6v.199a.245.245 0 0 0 0 .446v.292a.245.245 0 0 0 0 .446v.291a.245.245 0 0 0 0 .445v.292a.245.245 0 0 0 0 .446v.291a.245.245 0 0 0 0 .446v.292a.245.245 0 0 0 0 .446v.296a.245.245 0 0 0 0 .445v.292a.245.245 0 0 0 0 .446v.291a.245.245 0 0 0 0 .446v.292a.245.245 0 0 0 0 .446v.291a.245.245 0 0 0 0 .446v.233a.312.312 0 0 0 0 .6v.136a.313.313 0 0 0 0 .6v.134a.312.312 0 0 0 0 .599v.136a.32.32 0 0 0-.228.3.319.319 0 1 0 .44-.3v-.136a.318.318 0 0 0 0-.588v-.148a.319.319 0 0 0 0-.59v-.153a.318.318 0 0 0 0-.589v-.24a.245.245 0 0 0 0-.445v-.291a.245.245 0 0 0 0-.446v-.292a.245.245 0 0 0 0-.446v-.291a.245.245 0 0 0 0-.446v-.292a.245.245 0 0 0 0-.445v-.295a.245.245 0 0 0 0-.446v-.292a.245.245 0 0 0 0-.446v-.291a.245.245 0 0 0 0-.446v-.288a.245.245 0 0 0 0-.445v-.292a.245.245 0 0 0 0-.445v-.292a.245.245 0 0 0 0-.446v-.2a.319.319 0 0 0 0-.59v-.148a.319.319 0 0 0 0-.589v-.142a.319.319 0 0 0 0-.59v-.153a.32.32 0 0 0 .198-.295m-.2 13.395a.18.18 0 0 1-.121.05.17.17 0 0 1-.091-.038v-.274a.16.16 0 0 1 .091-.038.18.18 0 0 1 .121.05Zm0-.737a.18.18 0 0 1-.121.05.16.16 0 0 1-.091-.038v-.28a.17.17 0 0 1 .091-.038.18.18 0 0 1 .121.051Zm0-.737a.18.18 0 0 1-.121.05.16.16 0 0 1-.091-.038v-.28a.16.16 0 0 1 .091-.038.18.18 0 0 1 .121.05Zm0-.738a.18.18 0 0 1-.121.051.17.17 0 0 1-.091-.039v-.28a.17.17 0 0 1 .091-.038.18.18 0 0 1 .121.051Zm0-8.847a.18.18 0 0 1-.121.05.17.17 0 0 1-.091-.038v-.28a.17.17 0 0 1 .091-.038.18.18 0 0 1 .121.05Zm0-.737a.18.18 0 0 1-.121.05.17.17 0 0 1-.091-.038v-.273a.17.17 0 0 1 .091-.038.18.18 0 0 1 .121.05Zm0-.738a.17.17 0 0 1-.121.051.17.17 0 0 1-.091-.038v-.276a.17.17 0 0 1 .091-.038.18.18 0 0 1 .121.05Zm-.121-.687a.17.17 0 0 1-.091-.038v-.28a.17.17 0 0 1 .091-.038.18.18 0 0 1 .121.05v.26a.18.18 0 0 1-.119.05Zm-.559-.174a.32.32 0 0 0-.639 0 .32.32 0 0 0 .228.3v.138a.313.313 0 0 0 0 .6v.135a.313.313 0 0 0 0 .599v.136a.313.313 0 0 0 0 .6v.135a.313.313 0 0 0 0 .6v.194a.247.247 0 0 0 0 .447v.291a.246.246 0 0 0 0 .445v.292a.246.246 0 0 0 0 .446v.291a.246.246 0 0 0 0 .446v.292a.246.246 0 0 0 0 .446v.303a.246.246 0 0 0 0 .445v.292a.246.246 0 0 0 0 .446v.291a.25.25 0 0 0-.142.223.25.25 0 0 0 .142.224v.291a.246.246 0 0 0 0 .446v.232a.313.313 0 0 0 0 .6v.136a.312.312 0 0 0 0 .6v.136a.313.313 0 0 0 0 .6v.136a.312.312 0 0 0 0 .599v.136a.32.32 0 0 0-.228.3.32.32 0 1 0 .441-.3v-.136a.318.318 0 0 0 0-.588v-.148a.319.319 0 0 0 0-.59v-.153a.318.318 0 0 0 0-.589v-.148a.319.319 0 0 0 0-.59v-.238a.246.246 0 0 0 0-.446v-.292a.246.246 0 0 0 0-.446v-.291a.246.246 0 0 0 0-.446v-.292a.246.246 0 0 0 0-.445v-.295a.246.246 0 0 0 0-.446v-.292a.246.246 0 0 0 0-.446v-.291a.246.246 0 0 0 0-.446v-.288a.246.246 0 0 0 0-.445v-.292a.245.245 0 0 0 0-.445v-.2a.319.319 0 0 0 0-.59v-.148a.319.319 0 0 0 0-.59v-.148a.319.319 0 0 0 0-.589v-.142a.319.319 0 0 0 0-.59v-.153a.32.32 0 0 0 .198-.295m-.2 13.395a.18.18 0 0 1-.121.05.17.17 0 0 1-.092-.038v-.274a.16.16 0 0 1 .092-.038.18.18 0 0 1 .121.05Zm0-.737a.18.18 0 0 1-.121.05.16.16 0 0 1-.092-.038v-.28a.17.17 0 0 1 .092-.038.18.18 0 0 1 .121.051Zm0-.737a.18.18 0 0 1-.121.05.16.16 0 0 1-.092-.038v-.28a.16.16 0 0 1 .092-.038.18.18 0 0 1 .121.05Zm0-.738a.18.18 0 0 1-.121.051.17.17 0 0 1-.092-.039v-.28a.17.17 0 0 1 .092-.038.18.18 0 0 1 .128.057Zm0-.737a.18.18 0 0 1-.121.05.16.16 0 0 1-.092-.038v-.28a.16.16 0 0 1 .092-.038.18.18 0 0 1 .121.05Zm.007-7.369a.18.18 0 0 1-.121.05.17.17 0 0 1-.092-.038v-.28a.17.17 0 0 1 .092-.038.17.17 0 0 1 .121.051Zm0-.74a.18.18 0 0 1-.121.05.17.17 0 0 1-.092-.038v-.28a.17.17 0 0 1 .092-.038.18.18 0 0 1 .121.05Zm0-.737a.18.18 0 0 1-.121.05.17.17 0 0 1-.092-.038v-.274a.17.17 0 0 1 .092-.038.18.18 0 0 1 .121.05Zm0-.738a.18.18 0 0 1-.121.051.17.17 0 0 1-.092-.038v-.277a.17.17 0 0 1 .092-.038.18.18 0 0 1 .121.05Zm-.121-.687a.17.17 0 0 1-.092-.038v-.28a.17.17 0 0 1 .092-.038.18.18 0 0 1 .121.05v.259a.18.18 0 0 1-.126.05Zm-.559-.175a.32.32 0 1 0-.417.3v.138a.314.314 0 0 0 0 .6v.137a.314.314 0 0 0 0 .599v.138a.313.313 0 0 0 0 .6v.138a.314.314 0 0 0 0 .6v.137a.314.314 0 0 0 0 .6v.2a.25.25 0 0 0-.136.218.25.25 0 0 0 .136.218v.3a.244.244 0 0 0 0 .437v.3a.25.25 0 0 0-.136.218.25.25 0 0 0 .136.219v.3a.25.25 0 0 0-.136.219.25.25 0 0 0 .136.218v.3a.25.25 0 0 0-.136.217.25.25 0 0 0 .136.219v.3a.25.25 0 0 0-.136.219.25.25 0 0 0 .136.218v.3a.244.244 0 0 0 0 .437v.239a.313.313 0 0 0 0 .6v.137a.314.314 0 0 0 0 .6v.138a.313.313 0 0 0 0 .6v.138a.314.314 0 0 0 0 .6v.138a.313.313 0 0 0 0 .599v.138a.317.317 0 1 0 .212 0v-.138a.316.316 0 0 0 0-.591v-.145a.316.316 0 0 0 0-.592v-.146a.316.316 0 0 0 0-.592v-.145a.316.316 0 0 0 0-.592v-.144a.317.317 0 0 0 0-.593v-.233a.248.248 0 0 0 0-.455v-.283a.248.248 0 0 0 0-.455v-.282a.248.248 0 0 0 0-.454v-.283a.248.248 0 0 0 0-.455v-.282a.248.248 0 0 0 0-.455v-.283a.248.248 0 0 0 0-.455v-.282a.248.248 0 0 0 0-.454V9.35a.318.318 0 0 0 0-.594v-.144a.317.317 0 0 0 0-.593v-.145a.317.317 0 0 0 0-.593v-.144a.317.317 0 0 0 0-.592v-.141a.317.317 0 0 0 0-.593v-.148a.32.32 0 0 0 .205-.297m-.205 13.402a.18.18 0 0 1-.114.047.17.17 0 0 1-.1-.041v-.275a.15.15 0 0 1 .212.007Zm0-.737a.15.15 0 0 1-.212.007v-.275a.15.15 0 0 1 .212.007Zm0-.737a.18.18 0 0 1-.114.047.17.17 0 0 1-.1-.041v-.275a.15.15 0 0 1 .212.007Zm0-.738a.15.15 0 0 1-.212.007v-.275a.17.17 0 0 1 .1-.041.18.18 0 0 1 .114.048Zm0-.737a.18.18 0 0 1-.114.047.17.17 0 0 1-.1-.041v-.275a.15.15 0 0 1 .212.007Zm0-.737a.15.15 0 0 1-.212.007v-.275a.15.15 0 0 1 .212.007Zm0-5.898a.18.18 0 0 1-.114.047.17.17 0 0 1-.1-.041v-.274a.17.17 0 0 1 .1-.041.18.18 0 0 1 .114.047Zm0-.738a.15.15 0 0 1-.212.007v-.275a.17.17 0 0 1 .1-.041.18.18 0 0 1 .114.048Zm0-.738a.18.18 0 0 1-.114.048.17.17 0 0 1-.1-.041v-.274a.17.17 0 0 1 .1-.038.18.18 0 0 1 .114.047Zm0-.736a.18.18 0 0 1-.114.047.17.17 0 0 1-.1-.041v-.274a.17.17 0 0 1 .1-.041.18.18 0 0 1 .114.048Zm0-.738a.18.18 0 0 1-.114.048.17.17 0 0 1-.1-.041v-.275a.15.15 0 0 1 .212.007Zm-.114-.69a.17.17 0 0 1-.1-.041v-.274a.17.17 0 0 1 .1-.041.18.18 0 0 1 .114.048v.261a.18.18 0 0 1-.114.047"/></svg>