<svg xmlns="http://www.w3.org/2000/svg" viewBox="0 0 24 24"><path fill="#44739e" d="M21.792 9.511 22 9.328l-.249-.284-.209.183-.542.479a4.5 4.5 0 0 0-.106-.645 4.6 4.6 0 0 0-.278-.812l.842-.739.208-.183-.249-.284-.208.183-.768.675a5 5 0 0 0-.825-1.089l.692-.607.209-.184-.249-.283-.209.183-.718.631a6.6 6.6 0 0 0-1.255-.87l.651-.571.209-.183-.246-.284-.209.183-.766.673a5 5 0 0 0-.35-.147 6.7 6.7 0 0 0-1.23-.329l.626-.55.208-.183-.249-.284-.208.184-.87.764a6.7 6.7 0 0 0-1.332-.013l.457-.4.208-.183-.255-.285-.208.183-.912.8a3.5 3.5 0 0 0-1.089.447l.163-.274.142-.238L12.5 4.8l-.141.238-.677 1.136.1.058a2.87 2.87 0 0 0-.4 1.788l-.185.163.239.272a6 6 0 0 0 .159.667 3.7 3.7 0 0 0 .351.816l-.183.16.249.284.145-.128a5.7 5.7 0 0 0 .77.8c.142.128.28.254.412.388l-.153.134.249.285.153-.135a2.7 2.7 0 0 1 .455.862 3.5 3.5 0 0 1 .138.638l-.268.235.249.284.048-.041a4.6 4.6 0 0 1-.281 1.558l-.021.057-.331.29.133.152a3.5 3.5 0 0 1-.946 1.163l.257-.637.1-.258-.35-.14-.1.257-.44 1.101a3.03 3.03 0 0 1-1.647.2l.765-.673.208-.183-.249-.283-.209.183-.955.838a1.9 1.9 0 0 1-.636-.388 1.6 1.6 0 0 1-.422-.678l.913-.8.208-.183-.249-.284-.208.183-.762.669a9 9 0 0 1-.079-1.174l-.017-.586.881-.774.208-.183-.249-.284-.208.183-.645.567c-.016-.606-.028-1.129-.038-1.581l.859-.754.208-.183-.249-.284-.208.183-.621.545v-.231c-.009-.417-.016-.757-.024-1.04l.776-.682.209-.183-.249-.284-.209.183-.543.478a3.8 3.8 0 0 0-.2-1.245 6 6 0 0 0-.087-.233l.771-.677.209-.183-.249-.284-.209.183-.68.6a6.7 6.7 0 0 0-.8-1.277l.9-.793.209-.183-.25-.283-.204.177-.9.787a4.7 4.7 0 0 0-1.264-1.025l.7-.617.208-.183-.244-.284-.208.183-.835.733a1.85 1.85 0 0 0-1-.086 1.7 1.7 0 0 0-.613.269l.135-.347.1-.258-.352-.137-.1.258-.48 1.215A3.6 3.6 0 0 0 2.8 7.556l-.216.19.2.224a3.45 3.45 0 0 0 .492 1.604l-.058.051.25.284.01-.009a11 11 0 0 0 .672.882 5 5 0 0 0 .458.49l-.116.1.249.283.159-.139a2.7 2.7 0 0 1 .609.637 5.5 5.5 0 0 1 .532.9l-.192.169.249.284.095-.084a4 4 0 0 1 .229 1.761l-.279.245.211.24a3.8 3.8 0 0 1-.279.905l-.581.511.151.172a2.8 2.8 0 0 1-.515.47 3 3 0 0 1-.574.312l.454-.4.208-.183-.249-.284-.208.183-1 .875a3.9 3.9 0 0 1-1.361-.097l.86-.756.209-.183-.25-.284-.208.183-1 .875.054.063-.013-.006-.052.15a4.04 4.04 0 0 0 1.894.212l.121.137.238-.21a3 3 0 0 0 .969-.447 3 3 0 0 0 .575-.536l.942-.827.208-.183-.247-.286-.208.183-.149.13a4.3 4.3 0 0 0 .187-.747l.86-.755.208-.183-.251-.288-.208.183-.547.48a4.15 4.15 0 0 0-.271-1.723l.773-.679.208-.183-.249-.278-.208.183-.679.6a5.7 5.7 0 0 0-.528-.889 2.9 2.9 0 0 0-.617-.651l.716-.628.208-.183-.245-.289-.209.183-.759.668a4.4 4.4 0 0 1-.455-.486 11 11 0 0 1-.677-.888l.864-.759.208-.183-.25-.278-.208.183-.814.711a3.26 3.26 0 0 1-.46-1.533l.889-.78.208-.181-.249-.284-.208.184-.594.522a3.4 3.4 0 0 1 .5-1.242l.2.079.231-.589a1.7 1.7 0 0 1 .763-.412 1.66 1.66 0 0 1 .833.051l-.025.022.249.283.168-.147a4 4 0 0 1 .931.668 6.4 6.4 0 0 1 1.385 1.919l-.19.168.249.284.1-.086q.033.086.063.173a4 4 0 0 1 .191 1.328l-.3.262.249.283.064-.056.02.907.008.365-.22.193.229.261q.015.693.04 1.619l-.2.172.207.234.015.54a8.4 8.4 0 0 0 .1 1.292l-.093.082.154.175a1.8 1.8 0 0 0 .491.829 2.1 2.1 0 0 0 .85.474l.1.119.082-.071a3.2 3.2 0 0 0 1.818-.166l.274.109.129-.32a3.4 3.4 0 0 0 1.168-1.306l.995-.874.209-.184-.249-.283-.209.183-.422.371a4.7 4.7 0 0 0 .216-1.539l.791-.7.209-.183-.249-.283-.209.183-.584.513a3.5 3.5 0 0 0-.13-.562 2.9 2.9 0 0 0-.486-.918l.723-.635.208-.183-.249-.283-.208.183-.724.635c-.135-.139-.278-.268-.424-.4a5.5 5.5 0 0 1-.756-.786l.73-.642.208-.183-.249-.284-.208.183-.691.607a3.5 3.5 0 0 1-.321-.753 5 5 0 0 1-.166-.729l.861-.756.208-.183-.249-.284-.208.184-.656.575a2.7 2.7 0 0 1 .376-1.571l.09.053.3-.505a3.1 3.1 0 0 1 1.3-.643l.169.193.329-.289q.116-.015.226-.026a6.5 6.5 0 0 1 1.227 0l.213.244.217-.19a7 7 0 0 1 1.327.342q.095.035.275.114l-.1.087.249.283.217-.191a6.5 6.5 0 0 1 1.262.863l-.157.138.249.284.184-.162a5 5 0 0 1 .822 1.091l-.106.093.249.283.029-.025a4.4 4.4 0 0 1 .249.739 4.4 4.4 0 0 1 .111.739l-.3.265.249.284.057-.05a5 5 0 0 1-.211 1.2l-.352.31.174.2a7 7 0 0 1-.607 1.157l-.509.447.1.117c-.174.219-.3.348-.32.37a5 5 0 0 1-.461.417l.221-.828.072-.268-.365-.1-.071.268-.34 1.27a10 10 0 0 1-.869.476q-.237.118-.456.238l.187-.285.153-.232-.316-.208-.152.232-.728 1.107.041.026a2.1 2.1 0 0 0-.333.581 3 3 0 0 0-.188 1.118l-.249.217.249.284.047-.041a2 2 0 0 0 .613 1.166l-.166.145.249.283.25-.219a2.4 2.4 0 0 0 .981.188 3.5 3.5 0 0 0 .532-.042l.064.073.121-.106a4.3 4.3 0 0 0 1.3-.5l-.014.052.364.1.13-.475a4.3 4.3 0 0 0 .9-.948l.28.03.143-1.318.03-.275-.376-.041-.03.276-.127 1.18h-.008a4 4 0 0 1-.743.838l.148-.54.073-.268-.364-.1-.073.268-.275 1a4.2 4.2 0 0 1-1.106.5l.619-.544.208-.183-.249-.284-.208.183-1 .875.059.067a2.6 2.6 0 0 1-1.256-.118l.615-.54.208-.183-.249-.284-.208.183-.71.624a1.86 1.86 0 0 1-.591-1.185l.807-.709.208-.183-.249-.283-.209.183-.584.513a2.7 2.7 0 0 1 .174-.917 2 2 0 0 1 .318-.55l.142.093.339-.516a7 7 0 0 1 .729-.4 9 9 0 0 0 .991-.555l.168.045.053-.2a5 5 0 0 0 .643-.558c.02-.021.142-.147.313-.359l.04.045.995-.875.228-.176-.249-.284-.209.183-.095.084a7 7 0 0 0 .383-.808l.9-.794.208-.183-.249-.284-.208.183-.427.375a5 5 0 0 0 .157-1.157Zm-.047-.4.188.214-.133.119-.188-.214Zm-.336-2 .188.214-.136.119-.188-.214Zm-1.149-1.3.188.213-.136.12-.188-.214Zm-1.571-1.1.188.214-.136.119-.188-.214Zm-1.969-.637.188.214-.136.119-.188-.213Zm-2 .067.188.214-.136.119-.187-.214Zm-3.415 12.233.188.214-.136.119-.188-.213Zm-1.35-1.313.188.214-.136.119-.187-.22Zm-.228-2.148.187.214-.135.119-.188-.214Zm-.074-2.052.188.214-.136.119-.187-.22Zm-.121-1.695.188.214-.136.119-.184-.214Zm-.3-1.961.188.214-.136.119-.191-.214ZM8.4 5.449l.188.214-.136.12-.184-.209ZM6.692 4.311l.188.214-.136.119-.188-.214ZM4.964 17.246l.188.214-.136.119-.188-.214Zm-1.749-.272.188.214-.136.119-.188-.214Zm3.477-.873.188.213-.136.12-.188-.214Zm.649-1.657.188.215-.136.118-.187-.214Zm-.294-2.205.188.214-.135.122-.188-.214ZM5.69 10.384l.188.214-.136.119-.188-.214ZM4.417 8.635l.188.214-.136.119-.188-.213Zm-.634-1.88.187.219-.135.119-.188-.219Zm.168-2.093.265.1-.066.169-.265-.1ZM12.8 15.953l.264.106-.064.168-.265-.107Zm1.976-1.332.188.213-.136.12-.188-.214Zm.336-2.149.188.214-.136.12-.188-.214Zm-.727-1.885.188.214-.135.12-.188-.214Zm-1.419-1.476.187.214-.135.119-.188-.214ZM12.4 7.196l.188.214-.136.119-.187-.214Zm.118-2.331.244.146-.092.155-.245-.145Zm6.113 8.555.275.074-.047.174-.275-.073Zm2.388 3.162.283.031-.019.179-.283-.03Zm-1.061 1.392.275.075-.048.175-.275-.075Zm-.914.764.188.214-.136.119-.188-.214Zm-1.827 0 .188.214-.136.119-.187-.214Zm-.743-1.554.188.214-.136.12-.188-.213Zm.426-2.23.237.157-.1.151-.238-.157Zm3.648-2.294.188.214-.136.119-.188-.214Zm.942-1.8.188.214-.136.119-.187-.214Z"/></svg>