<svg xmlns="http://www.w3.org/2000/svg" viewBox="0 0 24 24"><path fill="#44739e" d="M21.934 9.948a3.8 3.8 0 0 1-.402 1.016q-.456.782-1.081 1.435a66 66 0 0 1-1.5 1.529.15.15 0 0 0-.032.153 8.6 8.6 0 0 1 .736 3.293c.019.919-.057 1.838-.227 2.742a1.57 1.57 0 0 1-1.786 1.144 10.2 10.2 0 0 1-3.638-1.512 9.4 9.4 0 0 1-1.648-1.302l-.02.015a18.2 18.2 0 0 1-4.487 3.214 2.03 2.03 0 0 1-2.721-.914 10.2 10.2 0 0 1-.258-4.515q.203-1.14.528-2.249c-.14-.125-1.429-1.464-1.873-2.037C1.937 9.919 2 9.056 2 9.056a2.2 2.2 0 0 1 1.288-1.72 6.7 6.7 0 0 1 3.527-.692 6.9 6.9 0 0 1 2.22.511 7.5 7.5 0 0 1 1.869 1.099c.54.432 1.029.926 1.456 1.47a.21.21 0 0 1 0 .266.21.21 0 0 1-.26.046 9.4 9.4 0 0 0-3.517-1.233 6.2 6.2 0 0 0-1.694.051 5.4 5.4 0 0 0-1.187.374.067.067 0 0 0-.033.089l.011.016a12.8 12.8 0 0 0 2.922 2.295c.937.572 1.459 1.185 1.153 2.116a11.2 11.2 0 0 0-.667 2.498 20 20 0 0 0 2.454-1.771 1.706 1.706 0 0 1 2.398.44 10.5 10.5 0 0 0 2.781 2.609 12.7 12.7 0 0 0-.653-3.669 1.13 1.13 0 0 1 .47-1.303A21 21 0 0 0 19.6 9.789c.282-.393.242-.546-.222-.705a6.86 6.86 0 0 0-3.974.032.745.745 0 0 1-.964-.423.6.6 0 0 1-.046-.233 9.4 9.4 0 0 0-.631-3.002 6.9 6.9 0 0 0-1.314-2.142.073.073 0 0 0-.103 0q-.583.657-1.014 1.422a9 9 0 0 0-.805 2.182.16.16 0 0 1-.125.093.162.162 0 0 1-.199-.177 9.1 9.1 0 0 1 2.016-4.551c.148-.182.17-.231.357-.095l.044.025a7.6 7.6 0 0 1 2.246 2.729c.369.728.653 1.495.846 2.288a.083.083 0 0 0 .101.058 7.8 7.8 0 0 1 2.359-.317 9.4 9.4 0 0 1 1.693.173c.345.071.679.194.988.364a2.16 2.16 0 0 1 1.08 2.44"/></svg>