<svg xmlns="http://www.w3.org/2000/svg" viewBox="0 0 24 24"><path fill="#44739e" d="M2.812 5.85H2v12.294h.812v.006l8.936-.784V7.432L2.812 5.856Zm.059.1 8.818 1.539v9.819l-8.818.758Zm7.771 11.284.91-.075V16.13l-.91.049Zm-1.088.09.91-.074v-1.062l-.91.048Zm-1.087.091.91-.075v-1.095l-.91.049Zm-1.088.091.91-.075v-1.127l-.91.049Zm-1.088.09.91-.075v-1.16l-.91.049Zm-1.087.091.909-.076v-1.192l-.909.049Zm-1.088.089.91-.075v-1.223l-.91.048Zm-1.088.091.91-.075v-1.257l-.91.049Zm7.614-2.935v1.056l.91-.047v-1.029Zm-1.088 1.112.91-.047v-1.061l-.91.018Zm-1.087.056.91-.047v-1.095l-.91.02Zm-1.088.054.91-.046v-1.127l-.91.019Zm-1.088.056.91-.047v-1.159l-.91.019Zm-.178-1.183-.909.019v1.22l.909-.047Zm-1.997 1.294.91-.047V15.05l-.91.019Zm-1.088.055.91-.046v-1.257l-.91.019Zm7.614-2.69v1.056l.91-.016v-1.03Zm-1.088-.012v1.089l.91-.017v-1.062Zm-.177 1.093v-1.095l-.91-.011v1.122Zm-1.088.02V13.66l-.91-.011v1.155Zm-1.088.021v-1.161l-.91-.009v1.186Zm-1.997.037.909-.018v-1.191l-.909-.011Zm-1.088.02.91-.017v-1.224l-.91-.011Zm-1.088.021.91-.018v-1.257l-.91-.009Zm7.614-2.447v1.057l.91.012v-1.029Zm-.178 1.054v-1.061l-.91-.04v1.089Zm-1.087-.014v-1.094l-.91-.04v1.122Zm-1.088-.014v-1.128l-.91-.039v1.154Zm-1.088-.015v-1.159l-.91-.04v1.187Zm-1.088-1.207-.909-.039v1.219l.909.013Zm-1.997 1.165.91.013v-1.225l-.91-.039Zm-1.088-.014.91.012v-1.257l-.91-.039Zm7.614-2.201v1.057l.91.042v-1.03Zm-1.088-.082V12.2l.91.042V11.18Zm-1.087-.082v1.121l.91.042v-1.094Zm-1.088-.082v1.154l.91.042v-1.127Zm-.178-.013-.91-.069v1.186l.91.042Zm-1.088-.082-.909-.069v1.219l.909.041Zm-1.997 1.1.91.042V10.77l-.91-.069Zm-1.088-.049.91.041v-1.256l-.91-.069Zm7.614-1.956v1.056l.91.071v-1.029Zm-.178 1.042V9.928l-.91-.098v1.089ZM8.467 9.713v1.121l.91.071V9.811Zm-1.088-.117v1.154l.91.07V9.694Zm-1.088-.117v1.186l.91.071V9.577Zm-.178-.019-.909-.098v1.219l.909.07Zm-1.997 1.036.91.071V9.343l-.91-.098Zm-1.088-.084.91.07V9.226l-.91-.098Zm7.614-1.711v1.056l.91.1V8.828Zm-.178-.025-.91-.127v1.088l.91.101Zm-1.087-.152-.91-.127v1.121l.91.1Zm-1.088-.152-.91-.127v1.153l.91.101ZM7.201 8.22l-.91-.127v1.186l.91.1Zm-1.088-.152-.909-.127v1.218l.909.1Zm-1.997.972.91.1V7.916l-.91-.127Zm-1.088-.12.91.101V7.764l-.91-.127Zm8.524-1.309-.91-.156v1.056l.91.129Zm-1.088-.187-.91-.156v1.088l.91.129Zm-1.087-.187-.91-.156v1.121l.91.129ZM8.289 7.05l-.91-.156v1.153l.91.129Zm-1.088-.187-.91-.156v1.186l.91.128Zm-1.088-.187-.909-.156v1.218l.909.129Zm-1.997.907.91.129V6.489l-.91-.156Zm-1.088-.154.91.129V6.302l-.91-.156Zm17.743 8.674h1.017v1.017h-1.017Zm-1.204 0h1.018v1.017h-1.018Zm-1.203 0h1.018v1.017h-1.018Zm-1.203 0h1.018v1.017h-1.018Zm-1.203 0h1.018v1.017h-1.018Zm-1.203 0h1.018v1.017h-1.018Zm-1.203 0h1.018v1.017h-1.018Zm-1.203 0h1.018v1.017h-1.018Zm8.422-1.205h1.017v1.018h-1.017Zm-1.204 0h1.018v1.018h-1.018Zm-1.203 0h1.018v1.018h-1.018Zm-1.203 0h1.018v1.018h-1.018Zm-1.203 0h1.018v1.018h-1.018Zm-1.203 0h1.018v1.018h-1.018Zm-1.203 0h1.018v1.018h-1.018Zm-1.203 0h1.018v1.018h-1.018Zm8.422-1.203h1.017v1.018h-1.017Zm-1.204 0h1.018v1.018h-1.018Zm-1.203 0h1.018v1.018h-1.018Zm-1.203 0h1.018v1.018h-1.018Zm-1.203 0h1.018v1.018h-1.018Zm-1.203 0h1.018v1.018h-1.018Zm-1.203 0h1.018v1.018h-1.018Zm-1.203 0h1.018v1.018h-1.018Zm8.422-1.202h1.017v1.017h-1.017Zm-1.204 0h1.018v1.017h-1.018Zm-1.203 0h1.018v1.017h-1.018Zm-1.203 0h1.018v1.017h-1.018Zm-1.203 0h1.018v1.017h-1.018Zm-1.203 0h1.018v1.017h-1.018Zm-1.203 0h1.018v1.017h-1.018Zm-1.203 0h1.018v1.017h-1.018Zm8.422-1.204h1.017v1.018h-1.017Zm-1.204 0h1.018v1.018h-1.018Zm-1.203 0h1.018v1.018h-1.018Zm-1.203 0h1.018v1.018h-1.018Zm-1.203 0h1.018v1.018h-1.018Zm-1.203 0h1.018v1.018h-1.018Zm-1.203 0h1.018v1.018h-1.018Zm-1.203 0h1.018v1.018h-1.018Zm8.422-1.203h1.017v1.018h-1.017Zm-1.204 0h1.018v1.018h-1.018Zm-1.203 0h1.018v1.018h-1.018Zm-1.203 0h1.018v1.018h-1.018Zm-1.203 0h1.018v1.018h-1.018Zm-1.203 0h1.018v1.018h-1.018Zm-1.203 0h1.018v1.018h-1.018Zm-1.203 0h1.018v1.018h-1.018Zm8.422-1.203h1.017V9.9h-1.017Zm-1.204 0h1.018V9.9h-1.018Zm-1.203 0h1.018V9.9h-1.018Zm-1.203 0h1.018V9.9h-1.018Zm-1.203 0h1.018V9.9h-1.018Zm-1.203 0h1.018V9.9h-1.018Zm-1.203 0h1.018V9.9h-1.018Zm-1.203 0h1.018V9.9h-1.018Zm8.422-1.203h1.017v1.017h-1.017Zm-1.204 0h1.018v1.017h-1.018Zm-1.203 0h1.018v1.017h-1.018Zm-1.203 0h1.018v1.017h-1.018Zm-1.203 0h1.018v1.017h-1.018Zm-1.203 0h1.018v1.017h-1.018Zm-1.203 0h1.018v1.017h-1.018Zm-1.203 0h1.018v1.017h-1.018Zm-.234-.212v9.874H22V7.468Zm9.82 9.808H12.18V7.533h9.755Z"/></svg>