<?xml version="1.0" encoding="UTF-8"?>
<svg width="24px" fill="#44739e" height="24px" viewBox="0 0 24 24" version="1.1" xmlns="http://www.w3.org/2000/svg" xmlns:xlink="http://www.w3.org/1999/xlink">
            <path d="M 21.561,8.6936224 A 6.459,6.459 0 0 0 21.92,5.4036228 l -0.656,-3.433 h -0.2 l 0.67,3.5 a 6.062,6.062 0 0 1 -0.334,3.0909996 2.64,2.64 0 0 1 -0.681,1.027 v 0 a 0.373,0.373 0 0 0 -0.372,-0.373 h -0.994 a 0.373,0.373 0 0 0 -0.372,0.373 v 0.268 a 1.463,1.463 0 0 1 -1.044,-0.7 14.705,14.705 0 0 1 -1.008,-3.8999996 c -0.047,-0.264 -0.1,-0.54 -0.149,-0.831 a 12.3,12.3 0 0 0 -0.686,-2.445 h -0.422 c 0.039,0.135 0.089,0.3 0.154,0.514 0.106,0.348 0.237,0.781 0.39,1.321 a 7.77,7.77 0 0 1 -0.477,4.2729996 2.475,2.475 0 0 1 -0.953,1.038 v -0.277 a 0.373,0.373 0 0 0 -0.372,-0.373 H 13.42 a 0.373,0.373 0 0 0 -0.372,0.373 v 0.139 a 3.16,3.16 0 0 1 -0.835,-0.913 C 11.151,6.4076228 11.493,3.1906228 11.637,1.9686228 h -0.253 c -0.02,0.173 -0.043,0.386 -0.071,0.654 -0.174,1.648 -0.5,4.7139996 -1.3380003,5.4529996 -0.1,0.09 -0.2,0.169 -0.3,0.238 v -0.163 a 0.373,0.373 0 0 0 -0.372,-0.373 h -0.991 a 0.373,0.373 0 0 0 -0.372,0.373 v 0.09 a 2.949,2.949 0 0 1 -0.227,-0.24 c -1.087,-1.276 -0.976,-4.1409996 -0.922,-5.5189996 0.008,-0.207 0.013,-0.371 0.015,-0.511 h -0.278 c 0,0.12 0,0.26 0,0.452 0.008,1.5 0.024,4.6089996 -1.41,5.7879996 l -0.051,0.041 v -0.231 a 0.373,0.373 0 0 0 -0.372,-0.373 h -0.995 a 0.373,0.373 0 0 0 -0.373,0.373 v 0.247 c -0.023,-0.02 -0.046,-0.04 -0.069,-0.062 -1.008,-0.917 -1.472,-3.4639996 -0.611,-6.2349996 h -0.2 a 9.772,9.772 0 0 0 -0.405,3.66 4.419,4.419 0 0 0 1.12,2.7999996 c 0.059,0.053 0.115,0.1 0.171,0.147 v 0.5 h -0.046 a 0.165,0.165 0 0 0 -0.166,0.165 v 0.559 a 0.166,0.166 0 0 0 0.166,0.166 h -0.031 l -0.016,0.039 a 5.437,5.437 0 0 0 0.368,5.182 c 0.255,0.385 0.552,0.7 0.663,0.7 v 0 c 0.134,0 0.307,-0.221 0.429,-0.407 a 5.878,5.878 0 0 0 0.5,-5.477 l -0.017,-0.037 h -0.075 a 0.166,0.166 0 0 0 0.165,-0.166 v -0.561 a 0.165,0.165 0 0 0 -0.165,-0.165 h -0.042 v -0.519 c 0.048,-0.036 0.1,-0.074 0.146,-0.115 a 5.206,5.206 0 0 0 1.4,-3.4169996 c 0.008,0.11 0.017,0.221 0.028,0.331 a 5.208,5.208 0 0 0 0.953,2.8509996 3.031,3.031 0 0 0 0.348,0.35 v 0.649 h -0.041 a 0.166,0.166 0 0 0 -0.166,0.166 v 0.558 a 0.166,0.166 0 0 0 0.166,0.1659996 h -0.032 l -0.016,0.039 a 5.44,5.44 0 0 0 0.367,5.182 c 0.256,0.385 0.553,0.7 0.663,0.7 v 0 c 0.134,0 0.307,-0.221 0.429,-0.407 a 5.874,5.874 0 0 0 0.5,-5.476 l -0.016,-0.038 h -0.076 a 0.166,0.166 0 0 0 0.166,-0.1659996 v -0.558 a 0.166,0.166 0 0 0 -0.166,-0.166 h -0.041 v -0.594 a 3.782,3.782 0 0 0 0.4000003,-0.307 c 0.64,-0.564 0.989,-2.2199996 1.206,-3.7829996 a 7.335,7.335 0 0 0 0.791,3.7349996 3.305,3.305 0 0 0 0.976,1.03 v 0.618 H 13.01 a 0.166,0.166 0 0 0 -0.166,0.1659996 v 0.558 a 0.166,0.166 0 0 0 0.166,0.166 h -0.031 l -0.016,0.039 a 5.44,5.44 0 0 0 0.367,5.182 c 0.256,0.385 0.553,0.7 0.664,0.7 v 0 c 0.134,0 0.307,-0.221 0.429,-0.407 a 5.876,5.876 0 0 0 0.5,-5.476 l -0.017,-0.038 h -0.075 a 0.166,0.166 0 0 0 0.166,-0.166 v -0.558 A 0.166,0.166 0 0 0 14.831,9.9046224 H 14.79 v -0.5 a 2.669,2.669 0 0 0 1.1,-1.159 6.607,6.607 0 0 0 0.61,-2.5809996 7.246,7.246 0 0 0 -0.107,-1.959 c -0.154,-0.543 -0.286,-0.978 -0.392,-1.327 -0.041,-0.135 -0.08,-0.264 -0.114,-0.379 a 11.444,11.444 0 0 1 0.713,2.482 c 0.053,0.291 0.1,0.567 0.149,0.83 a 14.888,14.888 0 0 0 1.037,3.9909996 1.653,1.653 0 0 0 1.2,0.8159996 v 0.521 H 18.94 a 0.166,0.166 0 0 0 -0.166,0.166 v 0.558 a 0.166,0.166 0 0 0 0.166,0.166 h -0.031 l -0.016,0.039 a 5.436,5.436 0 0 0 0.368,5.182 c 0.255,0.385 0.552,0.7 0.663,0.7 v 0 c 0.134,0 0.307,-0.221 0.429,-0.407 a 5.876,5.876 0 0 0 0.5,-5.476 l -0.017,-0.038 H 20.76 a 0.166,0.166 0 0 0 0.166,-0.166 v -0.558 a 0.166,0.166 0 0 0 -0.166,-0.166 H 20.719 V 9.8936224 a 2.649,2.649 0 0 0 0.842,-1.2 z m -16.4000003,2.0499996 -0.461,0.7 0.047,-0.568 0.457,-0.2 z m 0.1,0.105 -0.151,1.108 -0.375,-0.311 0.405,-0.613 z m -0.57,0.981 0.336,0.231 0.044,0.031 -0.015,0.02 -0.071,0.093 -0.285,0.384 z m -0.063,-1.741 -0.047,0.544 -0.135,-0.188 -0.253,-0.355 h 0.435 z m -1.523,1.291 0.81,-0.249 v 0 l -0.733,0.364 -0.019,-0.02 -0.023,-0.023 -0.057,-0.058 0.031,-0.008 z m 0.625,1.359 0.1,-0.393 0.656,0.452 -0.336,0.131 -0.514,0.2 z m -0.019,-0.68 -0.381,-0.409 0.83,0.07 0.267,0.022 v 0 l -0.635,0.4 z m 0.489,1.956 -0.38,0.411 -0.332,-0.156 z m -0.779,0.145 0.166,-0.8 0.707,0.491 z m 0.986,-0.164 0.021,0.05 0.267,0.649 -0.325,-0.1 -0.408,-0.122 z m -0.029,-0.25 -0.691,-0.5 0.482,-0.189 0.36,-0.141 v 0 l -0.092,0.506 z m -0.478,-1.512 0.644,-0.409 v 0 0.855 z m -0.5,-0.7 1.168,-0.58 -0.015,0.677 v 0 z m 0.962,-0.966 0.117,0.164 -0.8,-0.226 -0.389,-0.11 0.266,-0.088 0.5,-0.166 z m -1.02,-0.479 h 0.458 l -0.513,0.17 h -0.009 c 0.022,-0.05 0.04,-0.108 0.064,-0.17 z m -0.242,0.73 c 0.029,-0.105 0.062,-0.212 0.1,-0.32 l 0.135,0.038 1.092,0.308 -1.378,0.424 z m -0.154,0.742 0.036,-0.077 0.05,0.051 0.025,0.025 0.016,0.016 -0.045,0.049 -0.1,0.11 c -0.003,-0.057 0.004,-0.115 0.013,-0.174 z m -0.043,0.4 0.266,-0.282 0.463,0.5 -0.739,0.009 c -0.003,-0.079 0,-0.153 0.007,-0.229 z m -0.012,0.345 0.5,-0.007 h 0.293 l -0.1,0.409 -0.1,0.4 -0.6,-0.594 c 0.002,-0.075 0.002,-0.143 0.002,-0.21 z m 0.014,0.407 0.268,0.267 -0.256,-0.134 c -0.01,-0.046 -0.017,-0.09 -0.017,-0.135 z m 0.03,0.288 0.343,0.179 h -0.322 c -0.01,-0.061 -0.018,-0.121 -0.026,-0.181 z m 0.048,0.3 h 0.287 l -0.26,0.131 z m 0.248,0.865 a 5.131,5.131 0 0 1 -0.191,-0.605 l 0.391,-0.2 -0.168,0.813 z m 0.133,0.316 c -0.015,-0.035 -0.031,-0.07 -0.047,-0.106 l 0.018,-0.02 0.01,-0.012 0.073,0.035 0.248,0.117 -0.257,0.078 z m 0.1,0.205 0.308,-0.094 0.05,0.377 0.048,0.364 a 4.465,4.465 0 0 1 -0.409,-0.645 z m 0.511,0.28 -0.048,-0.368 0.738,0.239 -0.1,0.084 -0.538,0.467 z m 0.3,0.793 a 0.548,0.548 0 0 1 -0.094,-0.071 l 0.133,0.055 a 0.128,0.128 0 0 1 -0.038,0.015 z m 0.319,-0.349 a 1.99,1.99 0 0 1 -0.178,0.235 l -0.286,-0.117 0.627,-0.594 0.025,0.156 c -0.067,0.126 -0.131,0.234 -0.182,0.319 z m 0.385,-0.722 h -0.019 l 0.06,-0.1 c -0.013,0.041 -0.027,0.071 -0.041,0.1 z m 0.286,-0.762 -0.439,0.707 -0.3,-0.735 v 0 l 0.825,-0.272 c -0.028,0.105 -0.051,0.205 -0.086,0.302 z m 0.119,-0.444 -0.86,0.279 0.058,-0.315 0.094,-0.519 0.021,0.015 v -0.005 l 0.165,0.106 0.542,0.351 c -0.004,0.031 -0.013,0.061 -0.02,0.094 z m 0.048,-0.227 -0.659,-0.426 0.748,-0.218 a 5.844,5.844 0 0 1 -0.089,0.646 z m 0.1,-0.776 -0.566,0.165 -0.165,0.048 0.4,-0.523 0.015,-0.02 0.032,0.009 0.3,0.08 c -0.011,0.083 -0.014,0.164 -0.019,0.243 z m 0.009,-0.369 -0.148,-0.04 0.147,-0.05 c -0.002,0.032 -0.002,0.062 -0.002,0.092 z m -0.006,-0.22 -0.02,0.007 -0.246,0.083 0.137,-1 a 5.152,5.152 0 0 1 0.126,0.908 z m -0.3,-1.437 0.029,0.035 0.01,0.027 h -0.009 l -0.343,0.14 -0.191,0.078 0.013,-0.149 0.043,-0.5 h 0.15 z m 4.547,0.418 -0.462,0.7 0.048,-0.569 0.456,-0.2 z m 0.1,0.1 -0.154,1.117 -0.376,-0.311 0.406,-0.614 z m -0.57,0.981 0.336,0.231 0.044,0.031 -0.016,0.021 -0.07,0.093 -0.294,0.388 z m -0.072,-1.73 -0.047,0.544 v 0 l -0.135,-0.189 -0.253,-0.355 z m -1.523,1.288 0.809,-0.25 v 0 l -0.732,0.364 -0.019,-0.019 -0.023,-0.024 -0.052,-0.058 0.031,-0.007 z m 0.625,1.358 0.1,-0.393 0.656,0.452 -0.336,0.132 -0.514,0.2 z m -0.019,-0.68 -0.381,-0.408 0.83,0.069 0.267,0.023 -0.635,0.4 z m 0.484,1.957 -0.381,0.41 -0.326,-0.156 z m -0.779,0.145 0.165,-0.8 0.708,0.492 z m 0.986,-0.165 0.021,0.051 0.267,0.648 -0.326,-0.1 -0.408,-0.121 z m -0.029,-0.25 -0.691,-0.5 0.481,-0.188 0.361,-0.141 -0.092,0.505 z m -0.476,-1.512 0.644,-0.408 v 0 0.855 z m -0.5,-0.7 1.168,-0.58 -0.016,0.676 v 0 z m 0.962,-0.967 0.117,0.164 -0.8,-0.226 -0.39,-0.109 0.267,-0.089 0.5,-0.166 z m -1.013,-0.474 h 0.455 l -0.513,0.166 h -0.009 c 0.017,-0.05 0.039,-0.108 0.063,-0.166 z m -0.247,0.727 c 0.029,-0.106 0.062,-0.212 0.1,-0.32 l 0.135,0.038 1.091,0.307 -1.378,0.425 z m -0.159,0.739 0.037,-0.077 0.05,0.051 0.025,0.026 0.016,0.016 -0.045,0.049 -0.1,0.111 c 0.002,-0.057 0.009,-0.115 0.017,-0.176 z m -0.042,0.4 0.266,-0.283 0.463,0.5 -0.739,0.009 c 0,-0.076 0.005,-0.15 0.01,-0.226 z m -0.012,0.344 0.5,-0.006 h 0.293 l -0.1,0.409 -0.1,0.4 -0.6,-0.594 c 0.009,-0.073 0.009,-0.14 0.009,-0.208 z m 0.014,0.407 0.268,0.267 -0.256,-0.134 c -0.005,-0.043 -0.009,-0.084 -0.012,-0.132 z m 0.03,0.288 0.343,0.18 h -0.317 c -0.01,-0.058 -0.018,-0.119 -0.026,-0.179 z m 0.048,0.3 h 0.287 l -0.26,0.131 c -0.009,-0.041 -0.017,-0.084 -0.027,-0.129 z m 0.248,0.866 a 5.209,5.209 0 0 1 -0.191,-0.605 l 0.39,-0.2 -0.167,0.813 z m 0.133,0.315 c -0.016,-0.034 -0.031,-0.07 -0.047,-0.106 l 0.018,-0.02 0.01,-0.011 0.073,0.034 0.247,0.117 v 0 l -0.256,0.078 c -0.016,-0.028 -0.03,-0.058 -0.045,-0.09 z m 0.1,0.205 0.308,-0.094 0.05,0.377 0.047,0.364 a 4.468,4.468 0 0 1 -0.403,-0.645 z m 0.511,0.28 -0.048,-0.368 0.738,0.239 -0.1,0.084 -0.538,0.468 z m 0.3,0.793 a 0.458,0.458 0 0 1 -0.1,-0.074 l 0.132,0.055 a 0.115,0.115 0 0 1 -0.026,0.021 z m 0.318,-0.349 a 1.923,1.923 0 0 1 -0.177,0.236 l -0.286,-0.118 0.626,-0.594 0.026,0.156 c -0.062,0.129 -0.127,0.237 -0.183,0.322 z m 0.385,-0.719 -0.02,0.005 0.061,-0.1 c -0.008,0.036 -0.021,0.065 -0.035,0.097 z m 0.286,-0.762 -0.439,0.707 -0.3,-0.735 v 0 l 0.826,-0.271 c -0.023,0.104 -0.052,0.204 -0.081,0.301 z m 0.129,-0.442 -0.86,0.28 0.058,-0.316 0.094,-0.518 0.021,0.014 v 0 l 0.165,0.107 0.5420003,0.35 c -0.011,0.025 -0.02,0.057 -0.02,0.083 z m 0.048,-0.227 -0.6590006,-0.426 0.7480006,-0.218 a 5.844,5.844 0 0 1 -0.093,0.645 z m 0.1,-0.776 -0.5660006,0.165 -0.165,0.049 0.4,-0.524 0.015,-0.019 0.032,0.008 0.3000006,0.081 q -0.016,0.117 -0.023,0.24 z m 0.009,-0.369 -0.1570006,-0.04 0.1470006,-0.049 c 0.003,0.035 0.003,0.059 0.003,0.089 z m -0.007,-0.22 -0.019,0.007 -0.2460006,0.083 0.1360006,-1 a 4.962,4.962 0 0 1 0.122,0.91 z m -0.3000006,-1.437 0.029,0.036 0.009,0.026 h -0.008 l -0.343,0.14 -0.191,0.078 0.013,-0.149 0.043,-0.5 h 0.15 z m 5.0430006,0.987 -0.462,0.7 0.048,-0.569 0.457,-0.195 z m 0.1,0.105 -0.157,1.111 -0.376,-0.311 0.406,-0.614 z m -0.57,0.981 0.336,0.231 0.044,0.031 -0.016,0.021 -0.07,0.093 -0.294,0.388 z m -0.069,-1.737 -0.047,0.544 v 0 l -0.135,-0.188 -0.253,-0.355 h 0.435 z m -1.523,1.288 0.809,-0.25 v 0 l -0.732,0.364 -0.019,-0.019 -0.023,-0.024 -0.057,-0.058 0.031,-0.008 z m 0.625,1.358 0.1,-0.393 0.656,0.452 -0.336,0.132 -0.514,0.2 z m -0.019,-0.68 -0.381,-0.408 0.83,0.069 0.267,0.023 -0.635,0.4 z m 0.484,1.957 -0.381,0.41 -0.34,-0.156 z m -0.779,0.144 0.166,-0.8 0.707,0.492 z m 0.986,-0.164 0.021,0.051 0.267,0.648 -0.326,-0.1 -0.407,-0.121 z m -0.029,-0.25 -0.691,-0.5 0.481,-0.188 0.361,-0.141 -0.092,0.505 z m -0.476,-1.512 0.644,-0.408 v 0 0.855 z m -0.5,-0.7 1.168,-0.579 -0.016,0.676 v 0 z m 0.962,-0.966 0.117,0.164 -0.8,-0.226 -0.402,-0.111 0.266,-0.088 0.5,-0.166 z m -1.013,-0.474 h 0.455 l -0.527,0.166 h -0.009 c 0.025,-0.051 0.047,-0.109 0.071,-0.167 z m -0.247,0.726 c 0.029,-0.105 0.062,-0.211 0.1,-0.319 l 0.135,0.038 1.091,0.307 -1.378,0.424 z m -0.155,0.742 0.037,-0.077 0.05,0.051 0.025,0.025 0.016,0.016 -0.045,0.049 -0.105,0.11 c -0.003,-0.058 0.004,-0.116 0.012,-0.176 z m -0.042,0.4 0.266,-0.283 0.463,0.5 -0.739,0.009 c -0.008,-0.079 -0.005,-0.153 0,-0.228 z m -0.012,0.344 0.505,-0.006 h 0.293 l -0.1,0.409 -0.1,0.4 -0.6,-0.594 c -0.008,-0.076 -0.008,-0.143 -0.008,-0.211 z m 0.014,0.407 0.268,0.267 -0.256,-0.134 c -0.015,-0.046 -0.019,-0.086 -0.022,-0.135 z m 0.03,0.288 0.343,0.18 h -0.317 c -0.02,-0.061 -0.028,-0.121 -0.036,-0.182 z m 0.048,0.3 h 0.287 l -0.26,0.131 z m 0.248,0.865 a 5.131,5.131 0 0 1 -0.191,-0.605 l 0.39,-0.2 -0.167,0.813 z m 0.133,0.316 c -0.016,-0.035 -0.031,-0.07 -0.047,-0.106 l 0.018,-0.02 0.01,-0.012 0.073,0.035 0.247,0.117 -0.256,0.078 c -0.025,-0.031 -0.04,-0.061 -0.055,-0.093 z m 0.1,0.205 0.308,-0.094 0.05,0.377 0.047,0.364 a 4.468,4.468 0 0 1 -0.413,-0.648 z m 0.511,0.28 -0.048,-0.368 0.738,0.239 -0.1,0.084 -0.538,0.468 z m 0.3,0.793 a 0.5,0.5 0 0 1 -0.1,-0.074 l 0.132,0.055 a 0.115,0.115 0 0 1 -0.032,0.019 z m 0.318,-0.349 a 1.923,1.923 0 0 1 -0.177,0.236 l -0.286,-0.118 0.627,-0.594 0.025,0.156 c -0.072,0.126 -0.137,0.234 -0.193,0.319 z m 0.385,-0.719 -0.02,0.005 0.061,-0.1 z m 0.285,-0.762 -0.438,0.707 v 0 l -0.3,-0.735 v 0 l 0.826,-0.272 c -0.033,0.102 -0.062,0.202 -0.092,0.299 z m 0.12,-0.444 -0.86,0.28 0.058,-0.316 0.094,-0.518 0.021,0.014 v -0.006 l 0.165,0.107 0.542,0.35 c -0.011,0.029 -0.017,0.063 -0.028,0.088 z m 0.048,-0.227 -0.659,-0.426 0.748,-0.218 a 5.844,5.844 0 0 1 -0.093,0.645 z m 0.1,-0.776 -0.566,0.165 -0.165,0.048 0.4,-0.523 0.015,-0.019 0.032,0.008 0.3,0.081 q -0.016,0.117 -0.023,0.239 z m 0.009,-0.369 -0.148,-0.04 0.147,-0.049 c -0.006,0.029 -0.006,0.058 -0.006,0.088 z m -0.007,-0.22 -0.019,0.007 -0.246,0.083 0.136,-1 a 4.95,4.95 0 0 1 0.122,0.909 z m -0.3,-1.437 0.029,0.036 0.009,0.026 h -0.008 l -0.343,0.14 -0.191,0.078 0.013,-0.149 0.043,-0.5 h 0.15 z m 5.868,1.023 -0.461,0.7 0.047,-0.569 0.457,-0.2 z m 0.1,0.105 -0.151,1.109 -0.376,-0.312 0.406,-0.613 z m -0.57,1.745 v -0.764 l 0.336,0.231 0.044,0.031 -0.015,0.021 -0.071,0.093 z m -0.069,-2.5 -0.047,0.544 -0.135,-0.188 -0.253,-0.355 h 0.435 z m -1.523,1.287 0.809,-0.249 -0.732,0.364 -0.019,-0.019 -0.023,-0.024 -0.057,-0.058 v 0 l 0.031,-0.008 z m 0.625,1.359 0.1,-0.393 0.656,0.452 -0.336,0.132 -0.514,0.2 z m -0.019,-0.68 -0.381,-0.408 0.83,0.069 0.267,0.023 -0.635,0.4 z m 0.484,1.957 -0.38,0.41 -0.332,-0.156 z m -0.779,0.144 0.166,-0.8 0.707,0.492 z m 0.986,-0.164 0.021,0.051 0.267,0.648 -0.325,-0.1 -0.408,-0.121 z m -0.029,-0.25 -0.691,-0.5 0.482,-0.188 0.36,-0.142 -0.092,0.506 z m -0.476,-1.512 0.644,-0.408 v 0 0.855 z m -0.5,-0.7 1.168,-0.58 -0.015,0.676 v 0 z m 0.962,-0.967 0.117,0.164 -0.8,-0.226 -0.389,-0.109 0.266,-0.089 0.5,-0.166 z M 19,11.656622 h 0.455 l -0.513,0.17 h -0.009 c 0.016,-0.054 0.038,-0.112 0.067,-0.17 z m -0.247,0.726 c 0.029,-0.105 0.062,-0.211 0.1,-0.319 l 0.135,0.038 1.091,0.307 v 0 l -1.377,0.425 z m -0.155,0.742 0.037,-0.077 0.05,0.051 0.025,0.025 0.016,0.016 -0.045,0.049 -0.1,0.11 c -0.003,-0.057 0.004,-0.11 0.012,-0.174 z m -0.042,0.4 0.266,-0.283 0.463,0.5 -0.739,0.009 c -0.003,-0.078 0,-0.152 0.005,-0.227 z m -0.012,0.344 0.5,-0.007 h 0.293 l -0.1,0.409 -0.1,0.4 -0.6,-0.594 c 0.002,-0.074 0.002,-0.141 0.002,-0.209 z m 0.014,0.407 0.268,0.267 -0.256,-0.134 c -0.01,-0.045 -0.013,-0.089 -0.017,-0.134 z m 0.03,0.288 0.343,0.18 h -0.317 c -0.014,-0.055 -0.023,-0.12 -0.031,-0.181 z m 0.048,0.3 h 0.287 l -0.26,0.131 z m 0.248,0.865 a 5.131,5.131 0 0 1 -0.191,-0.6 l 0.391,-0.2 -0.168,0.813 z m 0.133,0.316 c -0.016,-0.035 -0.031,-0.07 -0.047,-0.106 l 0.018,-0.02 0.01,-0.012 0.073,0.035 0.247,0.117 -0.256,0.078 c -0.02,-0.03 -0.035,-0.06 -0.05,-0.092 z m 0.1,0.2 0.308,-0.094 0.05,0.377 0.048,0.364 a 4.465,4.465 0 0 1 -0.409,-0.642 z m 0.511,0.28 -0.048,-0.368 0.738,0.239 -0.1,0.084 -0.538,0.467 z m 0.3,0.793 a 0.5,0.5 0 0 1 -0.095,-0.074 l 0.133,0.055 a 0.128,0.128 0 0 1 -0.037,0.024 z m 0.319,-0.349 a 2.018,2.018 0 0 1 -0.178,0.236 l -0.286,-0.118 0.627,-0.594 0.025,0.156 c -0.067,0.132 -0.135,0.24 -0.187,0.325 z m 0.384,-0.719 -0.02,0.005 0.061,-0.1 c -0.012,0.039 -0.026,0.07 -0.04,0.1 z m 0.286,-0.762 -0.439,0.707 -0.3,-0.735 v 0 l 0.822,-0.271 c -0.024,0.107 -0.053,0.207 -0.082,0.3 z m 0.119,-0.444 -0.86,0.28 0.058,-0.316 0.094,-0.518 0.021,0.014 v -0.005 l 0.165,0.107 0.542,0.35 c -0.006,0.033 -0.012,0.064 -0.019,0.093 z m 0.048,-0.227 -0.659,-0.426 0.748,-0.218 a 5.844,5.844 0 0 1 -0.088,0.649 z m 0.1,-0.776 -0.566,0.165 -0.165,0.048 0.4,-0.523 0.015,-0.019 0.032,0.008 0.3,0.081 q -0.01,0.127 -0.018,0.245 z m 0.009,-0.369 -0.148,-0.04 0.147,-0.049 c -0.001,0.035 -0.001,0.064 -0.001,0.094 z m -0.007,-0.22 -0.019,0.007 -0.246,0.083 0.137,-1 a 5.047,5.047 0 0 1 0.126,0.915 z m -0.3,-1.437 0.029,0.036 0.01,0.026 h -0.009 l -0.343,0.14 -0.191,0.078 0.013,-0.149 0.043,-0.5 h 0.15 z"/>

</svg>