<?xml version="1.0" encoding="UTF-8"?>
<svg width="24px" fill="#44739e" height="24px" viewBox="0 0 24 24" version="1.1" xmlns="http://www.w3.org/2000/svg" xmlns:xlink="http://www.w3.org/1999/xlink">
            <path d="m 5.625,20.773 a 0.11,0.11 0 0 1 -0.01,0.085 0.113,0.113 0 0 1 -0.068,0.053 v 0 A 0.114,0.114 0 0 1 5.466,20.899 0.113,0.113 0 0 1 5.413,20.831 v 0 a 0.113,0.113 0 0 0 0.053,0.068 0.114,0.114 0 0 0 0.081,0.012 v 0 a 0.113,0.113 0 0 0 0.068,-0.053 0.11,0.11 0 0 0 0.01,-0.085 z M 20.667,8.343 A 0.271,0.271 0 0 0 21.055,8.421 0.333,0.333 0 0 0 21.187,8.232 0.328,0.328 0 0 0 21.16,7.985 0.271,0.271 0 0 0 20.76,7.891 0.333,0.333 0 0 0 20.629,8.077 l -0.72,0.083 a 4.72,4.72 0 0 0 0.015,-0.535 l 0.5,-0.358 A 0.273,0.273 0 0 0 20.731,7.261 0.338,0.338 0 0 0 20.863,7.072 0.333,0.333 0 0 0 20.836,6.825 0.271,0.271 0 0 0 20.436,6.731 0.336,0.336 0 0 0 20.3,6.931 0.362,0.362 0 0 0 20.292,7.044 L 19.903,7.323 C 19.892,7.216 19.878,7.107 19.86,6.997 19.849,6.918 19.83,6.84 19.815,6.76 l 0.132,-0.081 0.068,-0.041 a 0.274,0.274 0 0 0 0.287,-0.017 0.34,0.34 0 0 0 0.106,-0.437 0.271,0.271 0 0 0 -0.4,-0.093 0.341,0.341 0 0 0 -0.141,0.33 L 19.746,6.496 C 19.737,6.461 19.725,6.425 19.716,6.391 A 4.515,4.515 0 0 0 19.458,5.753 l 0.47,-0.88 A 0.284,0.284 0 0 0 20.107,4.824 0.336,0.336 0 0 0 20.24,4.635 v -0.01 a 0.328,0.328 0 0 0 -0.029,-0.237 0.271,0.271 0 0 0 -0.4,-0.094 0.334,0.334 0 0 0 -0.135,0.2 0.329,0.329 0 0 0 0.03,0.237 l 0.006,0.011 -0.4,0.752 A 3.493,3.493 0 0 0 18.979,5.02 l 0.29,-1.061 0.024,-0.012 A 0.329,0.329 0 0 0 19.444,3.747 0.324,0.324 0 0 0 19.427,3.52 0.272,0.272 0 0 0 19.038,3.394 0.343,0.343 0 0 0 18.904,3.823 0.28,0.28 0 0 0 19.016,3.948 L 18.8,4.8 A 4.359,4.359 0 0 0 18.421,4.442 L 18.49,3.877 a 0.294,0.294 0 0 0 0.046,-0.025 0.334,0.334 0 0 0 0.132,-0.189 v -0.01 a 0.328,0.328 0 0 0 -0.03,-0.237 0.271,0.271 0 0 0 -0.4,-0.094 0.341,0.341 0 0 0 -0.106,0.436 0.28,0.28 0 0 0 0.1,0.107 l -0.049,0.4 A 4.876,4.876 0 0 0 17.652,3.927 l 0.01,-0.8 A 0.271,0.271 0 0 0 17.72,3.1 0.33,0.33 0 0 0 17.868,2.912 V 2.9 A 0.336,0.336 0 0 0 17.851,2.672 0.277,0.277 0 0 0 17.685,2.521 0.274,0.274 0 0 0 17.462,2.547 0.34,0.34 0 0 0 17.328,2.975 0.276,0.276 0 0 0 17.418,3.086 L 17.409,3.793 C 17.366,3.772 17.337,3.76 17.297,3.741 L 17.304,3.727 C 17.28,3.718 17.229,3.702 17.173,3.684 L 17.152,3.675 17.135,2.934 a 0.333,0.333 0 0 0 0.067,-0.043 0.272,0.272 0 0 0 0.019,-0.409 0.34,0.34 0 0 0 -0.449,-0.016 0.271,0.271 0 0 0 -0.018,0.408 0.323,0.323 0 0 0 0.109,0.07 l 0.014,0.659 C 16.713,3.561 16.515,3.519 16.286,3.483 L 16.231,3.15 a 0.245,0.245 0 0 0 0.047,-0.038 0.271,0.271 0 0 0 -0.014,-0.408 0.341,0.341 0 0 0 -0.449,0.013 0.271,0.271 0 0 0 0.015,0.408 0.316,0.316 0 0 0 0.134,0.068 l 0.043,0.255 a 5.057,5.057 0 0 0 -0.54,-0.039 l 0.1,-0.842 a 0.314,0.314 0 0 0 0.108,-0.068 0.274,0.274 0 0 0 0.086,-0.207 0.278,0.278 0 0 0 -0.1,-0.2 0.34,0.34 0 0 0 -0.448,0.013 0.272,0.272 0 0 0 0.014,0.409 0.356,0.356 0 0 0 0.066,0.043 l -0.1,0.854 A 5.9,5.9 0 0 0 14.506,3.46 L 14.212,2.726 a 0.271,0.271 0 0 0 -0.028,-0.394 0.34,0.34 0 0 0 -0.448,0.013 0.271,0.271 0 0 0 0.014,0.408 0.335,0.335 0 0 0 0.214,0.078 l 0.27,0.672 A 4.93,4.93 0 0 0 13.713,3.63 L 13.236,3.241 A 0.272,0.272 0 0 0 13.15,2.947 0.341,0.341 0 0 0 12.701,2.96 a 0.271,0.271 0 0 0 0.015,0.408 0.334,0.334 0 0 0 0.227,0.078 0.348,0.348 0 0 0 0.112,-0.022 l 0.371,0.3 c -0.1,0.038 -0.2,0.081 -0.3,0.127 -0.074,0.032 -0.144,0.071 -0.217,0.106 L 12.796,3.851 12.739,3.797 a 0.275,0.275 0 0 0 -0.093,-0.273 0.34,0.34 0 0 0 -0.448,0.013 0.272,0.272 0 0 0 0.014,0.409 0.342,0.342 0 0 0 0.356,0.048 l 0.1,0.1 C 12.637,4.112 12.606,4.133 12.575,4.151 A 4.551,4.551 0 0 0 12.027,4.568 L 11.055,4.347 a 0.288,0.288 0 0 0 -0.1,-0.16 0.332,0.332 0 0 0 -0.217,-0.078 h -0.011 a 0.329,0.329 0 0 0 -0.221,0.091 0.272,0.272 0 0 0 0.015,0.409 0.339,0.339 0 0 0 0.227,0.078 0.328,0.328 0 0 0 0.221,-0.092 l 0.009,-0.009 0.83,0.187 a 3.647,3.647 0 0 0 -0.369,0.446 h -1.1 L 10.32,5.199 A 0.328,0.328 0 0 0 10.1,5.1 0.335,0.335 0 0 0 9.885,5.176 a 0.282,0.282 0 0 0 -0.1,0.2 0.27,0.27 0 0 0 0.084,0.207 0.339,0.339 0 0 0 0.448,0.017 0.281,0.281 0 0 0 0.092,-0.141 h 0.881 a 4.451,4.451 0 0 0 -0.244,0.46 L 10.475,6 A 0.427,0.427 0 0 0 10.439,5.962 0.335,0.335 0 0 0 10.222,5.884 h -0.01 A 0.325,0.325 0 0 0 9.99,5.975 0.271,0.271 0 0 0 10.005,6.383 0.339,0.339 0 0 0 10.453,6.37 0.271,0.271 0 0 0 10.529,6.242 l 0.4,-0.057 a 5.062,5.062 0 0 0 -0.186,0.6 l -0.775,0.2 A 0.308,0.308 0 0 0 9.931,6.941 0.325,0.325 0 0 0 9.711,6.848 H 9.7 a 0.33,0.33 0 0 0 -0.215,0.076 0.28,0.28 0 0 0 -0.1,0.2 0.272,0.272 0 0 0 0.084,0.207 0.34,0.34 0 0 0 0.448,0.017 0.293,0.293 0 0 0 0.084,-0.116 L 10.685,7.054 C 10.654,7.213 10.634,7.346 10.617,7.461 L 10.603,7.556 C 10.591,7.641 10.584,7.723 10.576,7.808 L 9.7,8.191 A 0.336,0.336 0 0 0 9.518,8.138 0.33,0.33 0 0 0 9.287,8.23 0.271,0.271 0 0 0 9.301,8.638 0.341,0.341 0 0 0 9.75,8.625 0.273,0.273 0 0 0 9.834,8.406 l 0.723,-0.312 c 0,0.166 0,0.332 0.012,0.5 l -0.121,0.042 a 0.332,0.332 0 0 0 -0.222,-0.084 0.336,0.336 0 0 0 -0.215,0.077 0.272,0.272 0 0 0 -0.019,0.408 0.341,0.341 0 0 0 0.449,0.017 0.282,0.282 0 0 0 0.1,-0.186 l 0.055,-0.019 a 5,5 0 0 0 0.152,0.749 l -0.534,0.506 a 0.339,0.339 0 0 0 -0.156,-0.038 0.334,0.334 0 0 0 -0.231,0.091 0.272,0.272 0 0 0 0.014,0.409 0.341,0.341 0 0 0 0.449,-0.013 0.272,0.272 0 0 0 0.081,-0.244 l 0.458,-0.435 q 0.093,0.266 0.21,0.531 l -0.294,0.413 a 0.327,0.327 0 0 0 -0.07,-0.008 h -0.01 a 0.323,0.323 0 0 0 -0.221,0.091 0.271,0.271 0 0 0 0.014,0.408 0.332,0.332 0 0 0 0.186,0.077 l 0.014,0.008 0.005,-0.007 h 0.022 A 0.33,0.33 0 0 0 10.9,11.3 0.27,0.27 0 0 0 10.952,10.974 l 0.212,-0.3 c 0.039,0.071 0.078,0.145 0.116,0.216 v 0.01 0 c 0.07,0.123 0.144,0.247 0.226,0.371 l -0.487,0.536 h -0.017 a 0.334,0.334 0 0 0 -0.232,0.091 0.272,0.272 0 0 0 0.015,0.409 0.339,0.339 0 0 0 0.448,-0.014 0.274,0.274 0 0 0 0.086,-0.206 0.268,0.268 0 0 0 -0.057,-0.156 l 0.395,-0.433 c 0.093,0.135 0.19,0.265 0.295,0.4 0.035,0.046 0.07,0.089 0.105,0.131 l -0.278,0.614 a 0.337,0.337 0 0 0 -0.2,0.076 0.271,0.271 0 0 0 -0.018,0.408 0.327,0.327 0 0 0 0.22,0.093 0.335,0.335 0 0 0 0.228,-0.076 0.275,0.275 0 0 0 0.1,-0.2 0.268,0.268 0 0 0 -0.081,-0.205 l 0.219,-0.486 a 3.748,3.748 0 0 0 0.579,0.5 l -1.049,0.724 0.009,0.011 a 0.35,0.35 0 0 0 -0.139,-0.029 0.334,0.334 0 0 0 -0.231,0.091 0.271,0.271 0 0 0 0.014,0.408 0.332,0.332 0 0 0 0.228,0.078 0.325,0.325 0 0 0 0.221,-0.091 0.27,0.27 0 0 0 0.073,-0.277 l 1.087,-0.756 a 4.665,4.665 0 0 1 0.435,0.357 l -0.467,0.6 a 0.355,0.355 0 0 0 -0.046,0 0.329,0.329 0 0 0 -0.231,0.091 0.271,0.271 0 0 0 0.014,0.408 0.341,0.341 0 0 0 0.449,-0.013 A 0.271,0.271 0 0 0 13.245,14 l 0.431,-0.549 c 0.089,0.088 0.182,0.187 0.283,0.3 0.101,0.113 0.187,0.205 0.284,0.319 l -1.278,0.566 a 0.344,0.344 0 0 0 -0.166,-0.042 0.329,0.329 0 0 0 -0.231,0.091 0.271,0.271 0 0 0 0.014,0.408 0.341,0.341 0 0 0 0.449,-0.013 0.271,0.271 0 0 0 0.085,-0.207 v -0.028 l 1.315,-0.592 c 0.062,0.075 0.128,0.152 0.19,0.23 v 0.032 h 0.02 c 0.081,0.1 0.167,0.208 0.248,0.318 l -0.652,0.2 a 0.34,0.34 0 0 0 -0.412,0.039 0.27,0.27 0 0 0 0.014,0.408 0.34,0.34 0 0 0 0.449,-0.013 0.27,0.27 0 0 0 0.085,-0.207 v -0.008 l 0.672,-0.2 c 0.062,0.088 0.12,0.177 0.178,0.269 l -0.158,0.135 a 0.365,0.365 0 0 0 -0.074,-0.008 0.329,0.329 0 0 0 -0.231,0.091 0.272,0.272 0 0 0 -0.086,0.207 0.276,0.276 0 0 0 0.1,0.2 0.341,0.341 0 0 0 0.449,-0.013 0.27,0.27 0 0 0 0.055,-0.321 l 0.081,-0.069 a 4.817,4.817 0 0 1 0.295,0.6 l -0.671,0.06 a 0.261,0.261 0 0 0 -0.056,-0.078 0.33,0.33 0 0 0 -0.233,-0.093 0.335,0.335 0 0 0 -0.215,0.076 0.275,0.275 0 0 0 -0.1,0.2 0.271,0.271 0 0 0 0.083,0.208 0.341,0.341 0 0 0 0.449,0.017 0.29,0.29 0 0 0 0.066,-0.08 l 0.769,-0.069 a 3.8,3.8 0 0 1 0.167,0.742 l -0.551,-0.18 a 0.281,0.281 0 0 0 -0.091,-0.143 0.34,0.34 0 0 0 -0.448,0.013 0.272,0.272 0 0 0 0.014,0.409 0.341,0.341 0 0 0 0.449,-0.013 l 0.019,-0.021 0.627,0.208 a 3.046,3.046 0 0 1 -0.016,0.424 c 0,0.007 0,0.014 0,0.025 l -1.127,-0.09 a 0.285,0.285 0 0 0 -0.093,-0.152 0.341,0.341 0 0 0 -0.449,0.013 0.271,0.271 0 0 0 -0.085,0.207 0.275,0.275 0 0 0 0.1,0.2 0.337,0.337 0 0 0 0.227,0.078 0.328,0.328 0 0 0 0.221,-0.092 L 14.722,18 l 1.159,0.093 c -0.02,0.1 -0.043,0.2 -0.07,0.3 l -1,0.271 -0.019,-0.021 a 0.33,0.33 0 0 0 -0.233,-0.093 0.335,0.335 0 0 0 -0.215,0.076 0.272,0.272 0 0 0 -0.019,0.409 0.339,0.339 0 0 0 0.221,0.093 0.334,0.334 0 0 0 0.228,-0.077 0.276,0.276 0 0 0 0.093,-0.144 l 0.857,-0.231 a 4.385,4.385 0 0 1 -0.256,0.587 l -0.449,0.046 -0.023,-0.022 a 0.34,0.34 0 0 0 -0.448,0.013 0.27,0.27 0 0 0 0.014,0.408 0.329,0.329 0 0 0 0.227,0.078 0.323,0.323 0 0 0 0.211,-0.1 0.275,0.275 0 0 0 0.08,-0.143 l 0.219,-0.024 a 4.2,4.2 0 0 1 -0.4,0.541 l -0.591,-0.4 a 0.274,0.274 0 0 0 -0.09,-0.283 0.335,0.335 0 0 0 -0.217,-0.078 H 14 a 0.331,0.331 0 0 0 -0.222,0.092 0.271,0.271 0 0 0 0.015,0.408 0.329,0.329 0 0 0 0.227,0.078 0.333,0.333 0 0 0 0.122,-0.026 l 0.591,0.4 a 2.439,2.439 0 0 1 -0.183,0.17 h -0.007 v 0 c -0.059,0.049 -0.121,0.1 -0.183,0.145 l -0.032,-0.058 a 0.269,0.269 0 0 0 0.048,-0.163 0.273,0.273 0 0 0 -0.1,-0.2 0.34,0.34 0 0 0 -0.448,0.013 0.274,0.274 0 0 0 -0.086,0.207 0.278,0.278 0 0 0 0.1,0.2 0.341,0.341 0 0 0 0.227,0.078 h 0.025 l 0.041,0.076 a 2.442,2.442 0 0 1 -0.719,0.293 l -0.02,-0.435 a 0.335,0.335 0 0 0 0.078,-0.048 0.271,0.271 0 0 0 0.018,-0.408 0.325,0.325 0 0 0 -0.22,-0.093 h -0.013 a 0.331,0.331 0 0 0 -0.215,0.077 0.271,0.271 0 0 0 -0.019,0.408 0.343,0.343 0 0 0 0.1,0.066 l 0.024,0.477 a 2.6,2.6 0 0 1 -0.543,-0.007 l 0.062,-1.207 a 0.348,0.348 0 0 0 0.089,-0.06 0.272,0.272 0 0 0 -0.015,-0.409 0.335,0.335 0 0 0 -0.217,-0.078 h -0.01 a 0.328,0.328 0 0 0 -0.221,0.092 0.271,0.271 0 0 0 -0.086,0.207 0.276,0.276 0 0 0 0.1,0.2 0.309,0.309 0 0 0 0.087,0.052 l -0.061,1.156 a 3.41,3.41 0 0 1 -0.668,-0.216 l 0.223,-0.3 H 11.9 A 0.335,0.335 0 0 0 12.122,20.395 0.273,0.273 0 0 0 12.107,19.986 0.34,0.34 0 0 0 11.66,20 0.271,0.271 0 0 0 11.642,20.376 l -0.223,0.3 c -0.081,-0.039 -0.163,-0.085 -0.244,-0.131 l 0.184,-0.871 a 0.33,0.33 0 0 0 0.216,-0.091 0.271,0.271 0 0 0 -0.014,-0.408 0.341,0.341 0 0 0 -0.449,0.013 0.271,0.271 0 0 0 -0.009,0.386 l -0.177,0.822 -0.081,-0.053 h 0.042 v -1.285 a 0.315,0.315 0 0 0 0.121,-0.073 0.271,0.271 0 0 0 -0.015,-0.408 0.334,0.334 0 0 0 -0.217,-0.078 0.329,0.329 0 0 0 -0.231,0.091 0.272,0.272 0 0 0 -0.086,0.207 0.278,0.278 0 0 0 0.1,0.2 0.326,0.326 0 0 0 0.056,0.038 v 0.476 a 0.248,0.248 0 0 1 0.011,0.086 0.26,0.26 0 0 1 -0.011,0.062 0.281,0.281 0 0 1 -0.081,0.129 0.238,0.238 0 0 0 0.023,-0.055 0.26,0.26 0 0 0 0.011,-0.062 0.271,0.271 0 0 0 -0.011,-0.086 0.275,0.275 0 0 0 -0.073,-0.122 0.329,0.329 0 0 0 -0.22,-0.092 H 10.25 a 0.33,0.33 0 0 0 -0.214,0.077 0.277,0.277 0 0 0 -0.1,0.171 Q 9.864,19.553 9.795,19.484 l 0.191,-0.256 a 0.331,0.331 0 0 0 0.232,-0.09 0.273,0.273 0 0 0 -0.015,-0.409 0.335,0.335 0 0 0 -0.217,-0.078 h -0.01 a 0.332,0.332 0 0 0 -0.221,0.091 0.27,0.27 0 0 0 -0.016,0.379 l -0.13,0.176 C 9.453,19.134 9.302,18.964 9.162,18.787 l 0.5,-0.348 A 0.336,0.336 0 0 0 9.933,18.35 0.271,0.271 0 0 0 9.918,17.942 0.329,0.329 0 0 0 9.702,17.864 H 9.691 A 0.327,0.327 0 0 0 9.47,17.955 0.269,0.269 0 0 0 9.423,18.291 L 9,18.586 C 8.911,18.473 8.825,18.352 8.744,18.236 L 9.165,17.594 A 0.333,0.333 0 0 0 9.39,17.5 0.271,0.271 0 0 0 9.375,17.092 0.34,0.34 0 0 0 8.927,17.105 0.27,0.27 0 0 0 8.916,17.489 L 8.584,18 A 7.916,7.916 0 0 1 8.161,17.264 L 8.317,17.112 A 0.338,0.338 0 0 0 8.69,17.051 0.271,0.271 0 0 0 8.676,16.643 0.332,0.332 0 0 0 8.459,16.565 H 8.448 a 0.329,0.329 0 0 0 -0.221,0.091 0.271,0.271 0 0 0 -0.078,0.259 l -0.1,0.1 C 7.98,16.863 7.914,16.715 7.859,16.562 7.851,16.544 7.848,16.53 7.84,16.513 L 8.311,16.176 A 0.341,0.341 0 0 0 8.695,16.12 0.271,0.271 0 0 0 8.681,15.712 0.337,0.337 0 0 0 8.464,15.634 H 8.448 a 0.334,0.334 0 0 0 -0.221,0.091 0.273,0.273 0 0 0 -0.08,0.252 L 7.753,16.262 A 3.591,3.591 0 0 1 7.644,15.749 l 0.609,-0.507 a 0.337,0.337 0 0 0 0.313,-0.081 0.271,0.271 0 0 0 -0.015,-0.409 0.338,0.338 0 0 0 -0.448,0.014 0.274,0.274 0 0 0 -0.086,0.207 0.3,0.3 0 0 0 0.026,0.105 l -0.437,0.36 C 7.594,15.303 7.586,15.155 7.575,14.981 l 0.246,-0.3 A 0.339,0.339 0 0 0 8.121,14.598 0.271,0.271 0 0 0 8.106,14.19 0.331,0.331 0 0 0 7.889,14.111 h -0.01 a 0.327,0.327 0 0 0 -0.221,0.091 0.272,0.272 0 0 0 -0.086,0.207 0.266,0.266 0 0 0 0.032,0.117 l -0.05,0.061 c 0,-0.152 -0.012,-0.321 -0.015,-0.505 l 0.38,-0.091 a 0.324,0.324 0 0 0 0.266,0.131 0.29,0.29 0 1 0 0,-0.577 0.316,0.316 0 0 0 -0.3,0.2 l -0.349,0.084 c 0,-0.11 0,-0.226 -0.008,-0.346 L 7.536,13.497 8.457,13 A 0.334,0.334 0 0 0 8.63,13.047 0.29,0.29 0 1 0 8.313,12.758 c 0,0.011 0,0.022 0,0.032 l -0.787,0.42 c 0,-0.1 0,-0.191 -0.008,-0.293 0,-0.078 0,-0.156 0,-0.237 l 0.451,-0.423 a 0.368,0.368 0 0 0 0.082,0.01 0.29,0.29 0 1 0 -0.317,-0.289 0.276,0.276 0 0 0 0.027,0.118 l -0.25,0.234 c 0,-0.209 -0.012,-0.432 -0.016,-0.669 l 0.736,-0.122 a 0.327,0.327 0 0 0 0.263,0.128 0.29,0.29 0 1 0 0,-0.578 0.315,0.315 0 0 0 -0.3,0.2 l -0.7,0.117 c 0,-0.176 -0.008,-0.364 -0.015,-0.555 L 7.534,10.89 A 0.253,0.253 0 0 0 7.521,10.973 0.318,0.318 0 1 0 7.838,10.684 0.342,0.342 0 0 0 7.717,10.706 L 7.471,10.533 c 0,-0.092 0,-0.184 -0.008,-0.279 L 8.075,9.702 A 0.338,0.338 0 0 0 8.199,9.726 0.29,0.29 0 1 0 7.882,9.437 0.263,0.263 0 0 0 7.894,9.517 l -0.439,0.4 c 0,-0.074 0,-0.152 -0.007,-0.23 v 0 L 7.8,9.03 H 7.825 A 0.29,0.29 0 1 0 7.508,8.741 0.267,0.267 0 0 0 7.563,8.904 L 7.419,9.168 C 7.411,8.968 7.407,8.768 7.4,8.563 L 7.629,8.352 A 0.347,0.347 0 0 0 7.751,8.381 0.309,0.309 0 0 0 8.087,8.11 0.27,0.27 0 0 0 8.007,7.901 0.312,0.312 0 0 0 7.867,7.818 L 7.85,7.8 7.839,7.811 A 0.34,0.34 0 0 0 7.793,7.805 H 7.774 A 0.306,0.306 0 0 0 7.457,8.076 0.243,0.243 0 0 0 7.465,8.157 L 7.392,8.225 C 7.392,8.115 7.384,8.009 7.38,7.906 l 1,-0.4 A 0.338,0.338 0 0 0 8.487,7.523 0.29,0.29 0 1 0 8.17,7.235 0.273,0.273 0 0 0 8.183,7.315 L 7.364,7.643 C 7.352,7.456 7.337,7.272 7.317,7.099 L 7.567,7.012 A 0.33,0.33 0 0 0 7.782,7.089 0.29,0.29 0 1 0 7.465,6.789 L 7.282,6.853 C 7.259,6.722 7.232,6.594 7.201,6.471 L 8.073,5.825 H 8.109 A 0.29,0.29 0 1 0 7.8,5.531 0.271,0.271 0 0 0 7.843,5.676 L 7.127,6.206 C 7.088,6.106 7.046,6.006 6.999,5.912 L 7.086,5.577 a 0.3,0.3 0 0 0 0.291,-0.288 0.319,0.319 0 0 0 -0.635,0 0.276,0.276 0 0 0 0.088,0.2 L 6.8,5.6 A 2.458,2.458 0 0 0 6.52,5.289 H 6.54 L 6.635,4.265 a 0.293,0.293 0 0 0 0.212,-0.272 0.319,0.319 0 0 0 -0.635,0 0.284,0.284 0 0 0 0.152,0.246 L 6.283,5.091 A 3.4,3.4 0 0 0 5.977,4.891 L 6.024,4.82 A 0.3,0.3 0 0 0 6.3,4.533 a 0.319,0.319 0 0 0 -0.635,0 0.276,0.276 0 0 0 0.1,0.205 L 5.744,4.77 A 2.216,2.216 0 0 0 5.53,4.685 L 5.447,4.026 a 0.284,0.284 0 0 0 0.136,-0.237 0.319,0.319 0 0 0 -0.635,0 0.3,0.3 0 0 0 0.229,0.278 L 5.243,4.593 A 4.524,4.524 0 0 0 4.8,4.493 L 4.669,4.23 A 0.273,0.273 0 0 0 4.743,4.045 0.319,0.319 0 1 0 4.423,4.334 L 4.482,4.451 A 5.044,5.044 0 0 0 3.961,4.429 L 3.868,3.864 3.82,3.608 a 0.279,0.279 0 0 0 0.111,-0.22 0.319,0.319 0 0 0 -0.635,0 0.3,0.3 0 0 0 0.259,0.284 L 3.586,3.865 3.679,4.441 A 3.813,3.813 0 0 0 3.272,4.483 l 0.016,-0.14 a 0.275,0.275 0 0 0 0.1,-0.211 0.319,0.319 0 0 0 -0.635,0 A 0.3,0.3 0 0 0 3,4.414 L 2.985,4.533 C 2.923,4.544 2.861,4.558 2.799,4.572 v 0.219 a 5.176,5.176 0 0 1 0.516,-0.1 l -0.154,0.46 a 0.3,0.3 0 0 0 -0.271,0.285 0.319,0.319 0 0 0 0.635,0 0.277,0.277 0 0 0 -0.1,-0.213 L 3.614,4.66 C 3.734,4.65 3.856,4.645 3.978,4.645 L 3.811,5.052 a 0.3,0.3 0 0 0 -0.228,0.277 0.318,0.318 0 0 0 0.634,0 A 0.279,0.279 0 0 0 4.083,5.1 L 4.264,4.656 a 4.592,4.592 0 0 1 0.47,0.05 L 4.565,5 A 0.33,0.33 0 0 0 4.392,5.051 0.286,0.286 0 0 0 4.259,5.236 0.264,0.264 0 0 0 4.309,5.452 0.317,0.317 0 0 0 4.509,5.573 0.34,0.34 0 0 0 4.747,5.527 0.274,0.274 0 0 0 4.83,5.127 L 4.813,5.1 5.013,4.755 c 0.108,0.025 0.215,0.055 0.32,0.09 v 0 A 0.407,0.407 0 0 0 5.262,4.838 0.29,0.29 0 1 0 5.58,5.127 0.265,0.265 0 0 0 5.55,5.005 L 5.585,4.94 a 2.727,2.727 0 0 1 0.6,0.346 l -0.2,0.031 A 0.336,0.336 0 0 0 5.768,5.239 0.29,0.29 0 1 0 6.084,5.553 L 6.422,5.5 a 2.082,2.082 0 0 1 0.247,0.306 l -1,0.1 a 0.332,0.332 0 0 0 -0.235,-0.095 0.29,0.29 0 1 0 0,0.578 0.31,0.31 0 0 0 0.312,-0.241 l 1.055,-0.1 C 6.828,6.104 6.853,6.162 6.876,6.221 L 6.212,6.5 A 0.331,0.331 0 0 0 5.982,6.409 0.29,0.29 0 1 0 6.295,6.737 l 0.664,-0.28 c 0.014,0.049 0.027,0.1 0.039,0.151 L 6.639,6.871 A 0.342,0.342 0 0 0 6.527,6.853 0.29,0.29 0 1 0 6.845,7.141 0.258,0.258 0 0 0 6.828,7.05 L 7.054,6.885 c 0.024,0.146 0.043,0.3 0.057,0.464 L 6.262,7.593 a 0.331,0.331 0 0 0 -0.23,-0.091 0.29,0.29 0 1 0 0,0.578 0.309,0.309 0 0 0 0.314,-0.252 L 7.131,7.6 c 0.01,0.142 0.017,0.291 0.023,0.447 L 7,8.069 A 0.323,0.323 0 0 0 6.712,7.9 0.29,0.29 0 1 0 6.712,8.478 0.322,0.322 0 0 0 7,8.318 L 7.163,8.3 v 0.1 c 0,0.088 0,0.176 0.008,0.263 L 5.9,8.472 a 0.313,0.313 0 0 0 -0.308,-0.219 0.29,0.29 0 1 0 0,0.578 0.329,0.329 0 0 0 0.254,-0.116 l 1.338,0.2 V 8.984 L 7,9.066 a 0.329,0.329 0 0 0 -0.249,-0.111 0.29,0.29 0 1 0 0,0.578 0.314,0.314 0 0 0 0.308,-0.219 L 7.197,9.255 7.2,9.4 6.446,9.727 A 0.337,0.337 0 0 0 6.254,9.667 0.29,0.29 0 1 0 6.571,9.956 V 9.947 L 7.2,9.671 c 0,0.121 0.007,0.238 0.01,0.354 a 0.321,0.321 0 0 0 -0.282,-0.157 0.29,0.29 0 1 0 0,0.577 0.337,0.337 0 0 0 0.187,-0.055 L 7.222,10.453 7.228,10.631 6.12,10.49 a 0.313,0.313 0 0 0 -0.308,-0.221 0.29,0.29 0 1 0 0,0.577 0.326,0.326 0 0 0 0.252,-0.114 l 1.174,0.149 v 0.142 l -0.5,0.106 a 0.329,0.329 0 0 0 -0.253,-0.116 0.29,0.29 0 1 0 0,0.578 0.313,0.313 0 0 0 0.307,-0.22 l 0.449,-0.1 c 0,0.159 0.007,0.312 0.011,0.46 L 5.947,11.71 a 0.319,0.319 0 0 0 -0.3,-0.19 0.29,0.29 0 1 0 0,0.578 0.322,0.322 0 0 0 0.271,-0.14 l 1.338,0.02 0.008,0.353 -0.48,-0.13 a 0.317,0.317 0 0 0 -0.3,-0.2 0.29,0.29 0 1 0 0,0.578 0.327,0.327 0 0 0 0.266,-0.131 l 0.521,0.141 c 0,0.112 0,0.22 0.008,0.325 v 0.036 l -0.806,0.2 A 0.324,0.324 0 0 0 6.2,13 a 0.29,0.29 0 1 0 0,0.578 0.32,0.32 0 0 0 0.289,-0.171 l 0.8,-0.2 0.006,0.25 -1.755,0.23 a 0.325,0.325 0 0 0 -0.277,-0.148 0.29,0.29 0 1 0 0,0.577 0.319,0.319 0 0 0 0.294,-0.181 L 7.3,13.706 c 0,0.142 0.007,0.275 0.011,0.4 l -0.119,-0.05 a 0.275,0.275 0 0 0 -0.1,-0.2 0.327,0.327 0 0 0 -0.216,-0.078 H 6.87 a 0.329,0.329 0 0 0 -0.221,0.091 0.271,0.271 0 0 0 0.014,0.408 0.34,0.34 0 0 0 0.423,0.009 l 0.226,0.095 0.011,-0.022 q 0,0.139 0.009,0.264 L 6.556,14.6 a 0.283,0.283 0 0 0 -0.087,-0.13 0.34,0.34 0 0 0 -0.448,0.013 0.272,0.272 0 0 0 0.014,0.409 0.34,0.34 0 0 0 0.448,-0.013 0.3,0.3 0 0 0 0.029,-0.033 l 0.83,0.029 c 0,0.048 0,0.1 0.006,0.14 l -0.93,0.271 A 0.385,0.385 0 0 0 6.378,15.245 0.334,0.334 0 0 0 6.161,15.167 0.327,0.327 0 0 0 5.93,15.258 0.27,0.27 0 0 0 5.944,15.666 0.34,0.34 0 0 0 6.392,15.653 0.273,0.273 0 0 0 6.467,15.532 l 0.9,-0.262 c 0.016,0.24 0.036,0.433 0.063,0.6 L 7.009,15.813 a 0.289,0.289 0 0 0 -0.076,-0.1 0.34,0.34 0 0 0 -0.448,0.013 0.272,0.272 0 0 0 0.014,0.409 0.338,0.338 0 0 0 0.448,-0.014 0.269,0.269 0 0 0 0.048,-0.06 l 0.485,0.066 a 3.881,3.881 0 0 0 0.157,0.5 c 0,0.014 0.011,0.024 0.015,0.039 l -0.94,0.031 a 0.311,0.311 0 0 0 -0.069,-0.086 0.341,0.341 0 0 0 -0.449,0.013 0.272,0.272 0 0 0 0.015,0.409 0.339,0.339 0 0 0 0.227,0.078 0.328,0.328 0 0 0 0.221,-0.092 0.263,0.263 0 0 0 0.056,-0.074 l 1.04,-0.035 c 0.039,0.092 0.082,0.18 0.125,0.272 L 7.862,17.2 7.905,17.235 c 0.042,0.085 0.085,0.17 0.132,0.255 L 7.181,17.506 A 0.274,0.274 0 0 0 7.118,17.413 0.34,0.34 0 0 0 6.67,17.396 a 0.271,0.271 0 0 0 -0.019,0.408 0.329,0.329 0 0 0 0.22,0.093 0.335,0.335 0 0 0 0.228,-0.076 0.266,0.266 0 0 0 0.059,-0.067 l 1.015,-0.02 c 0.089,0.155 0.186,0.311 0.287,0.466 v 0 l 0.012,0.007 c 0.054,0.081 0.113,0.166 0.171,0.247 L 8.06,18.732 8.054,18.725 A 0.335,0.335 0 0 0 7.837,18.647 h -0.01 a 0.335,0.335 0 0 0 -0.222,0.091 0.272,0.272 0 0 0 0.015,0.409 0.34,0.34 0 0 0 0.448,-0.013 0.279,0.279 0 0 0 0.084,-0.167 l 0.642,-0.3 c 0.125,0.163 0.253,0.318 0.385,0.47 l -0.31,0.095 -0.014,-0.013 a 0.34,0.34 0 0 0 -0.448,0.013 0.272,0.272 0 0 0 -0.086,0.207 0.276,0.276 0 0 0 0.1,0.2 0.341,0.341 0 0 0 0.449,-0.013 0.279,0.279 0 0 0 0.083,-0.162 l 0.4,-0.122 c 0.136,0.145 0.276,0.286 0.42,0.42 l -0.445,0.6 a 0.317,0.317 0 0 0 -0.1,-0.015 0.332,0.332 0 0 0 -0.232,0.092 0.271,0.271 0 0 0 0.015,0.408 0.339,0.339 0 0 0 0.448,-0.013 0.277,0.277 0 0 0 0.086,-0.207 0.262,0.262 0 0 0 -0.02,-0.092 l 0.443,-0.6 a 7.426,7.426 0 0 0 0.61,0.478 l -0.212,0.105 a 0.346,0.346 0 0 0 -0.154,-0.037 0.336,0.336 0 0 0 -0.232,0.091 0.273,0.273 0 0 0 0.015,0.409 0.34,0.34 0 0 0 0.448,-0.013 0.27,0.27 0 0 0 0.081,-0.246 l 0.3,-0.147 a 5.3,5.3 0 0 0 0.614,0.336 l -0.779,0.242 a 0.34,0.34 0 0 0 -0.371,0.061 0.272,0.272 0 0 0 0.015,0.409 0.34,0.34 0 0 0 0.448,-0.013 0.271,0.271 0 0 0 0.08,-0.251 l 0.968,-0.3 c 0.066,0.024 0.128,0.046 0.194,0.063 l -0.139,0.254 a 0.333,0.333 0 0 0 -0.078,-0.009 h -0.01 a 0.327,0.327 0 0 0 -0.221,0.091 0.271,0.271 0 0 0 0.014,0.408 0.341,0.341 0 0 0 0.441,-0.007 0.271,0.271 0 0 0 0.085,-0.207 0.26,0.26 0 0 0 -0.025,-0.1 l 0.193,-0.35 a 2.724,2.724 0 0 0 0.4,0.064 l -0.029,0.215 a 0.309,0.309 0 0 0 -0.057,0.044 0.271,0.271 0 0 0 0.014,0.408 0.341,0.341 0 0 0 0.449,-0.013 0.271,0.271 0 0 0 -0.015,-0.408 0.317,0.317 0 0 0 -0.112,-0.062 l 0.022,-0.17 a 2.478,2.478 0 0 0 0.486,-0.046 2.992,2.992 0 0 0 0.31,-0.081 l 0.005,0.042 a 0.335,0.335 0 0 0 -0.073,0.052 0.273,0.273 0 0 0 0.015,0.409 0.34,0.34 0 0 0 0.448,-0.013 0.274,0.274 0 0 0 0.086,-0.207 0.278,0.278 0 0 0 -0.1,-0.2 0.329,0.329 0 0 0 -0.106,-0.06 l -0.015,-0.124 a 2.723,2.723 0 0 0 0.575,-0.35 l 0.039,0.506 a 0.265,0.265 0 0 0 -0.054,0.041 0.272,0.272 0 0 0 0.014,0.409 0.34,0.34 0 0 0 0.445,-0.018 0.274,0.274 0 0 0 0.086,-0.207 0.278,0.278 0 0 0 -0.1,-0.2 0.328,0.328 0 0 0 -0.124,-0.065 L 14.809,20.48 a 3.732,3.732 0 0 0 0.369,-0.4 l 0.341,0.115 a 0.086,0.086 0 0 0 0,0.016 0.275,0.275 0 0 0 0.1,0.2 0.34,0.34 0 0 0 0.448,-0.013 0.277,0.277 0 0 0 0.086,-0.207 0.282,0.282 0 0 0 -0.1,-0.2 0.336,0.336 0 0 0 -0.217,-0.078 0.341,0.341 0 0 0 -0.2,0.061 l -0.3,-0.1 a 4.432,4.432 0 0 0 0.345,-0.576 l 0.474,0.5 a 0.265,0.265 0 0 0 -0.03,0.13 0.282,0.282 0 0 0 0.1,0.2 0.34,0.34 0 0 0 0.228,0.078 0.33,0.33 0 0 0 0.221,-0.092 0.269,0.269 0 0 0 0.085,-0.206 0.273,0.273 0 0 0 -0.1,-0.2 0.335,0.335 0 0 0 -0.216,-0.078 h -0.011 a 0.361,0.361 0 0 0 -0.067,0.009 l -0.563,-0.593 c 0.027,-0.057 0.05,-0.117 0.073,-0.177 l 0.134,0.045 a 0.275,0.275 0 0 0 0.1,0.241 0.339,0.339 0 0 0 0.448,-0.013 0.272,0.272 0 0 0 -0.014,-0.409 l -0.032,-0.023 0.293,0.152 a 0.278,0.278 0 0 0 0.1,0.183 0.339,0.339 0 0 0 0.448,-0.014 0.271,0.271 0 0 0 -0.014,-0.408 0.338,0.338 0 0 0 -0.217,-0.078 0.332,0.332 0 0 0 -0.219,0.08 l -0.827,-0.428 c 0.024,-0.116 0.043,-0.237 0.059,-0.353 0,-0.014 0,-0.029 0,-0.043 l 0.445,0.217 v 0 a 0.28,0.28 0 0 0 0.1,0.2 0.335,0.335 0 0 0 0.228,0.078 0.329,0.329 0 0 0 0.221,-0.091 0.271,0.271 0 0 0 -0.015,-0.408 0.328,0.328 0 0 0 -0.216,-0.079 H 16.9 a 0.332,0.332 0 0 0 -0.192,0.066 l -0.545,-0.266 a 3.324,3.324 0 0 0 -0.027,-0.481 l 0.331,0.124 a 0.285,0.285 0 0 0 0.094,0.152 0.339,0.339 0 0 0 0.448,-0.014 0.271,0.271 0 0 0 -0.014,-0.408 0.337,0.337 0 0 0 -0.217,-0.078 h -0.011 a 0.334,0.334 0 0 0 -0.221,0.091 l -0.011,0.012 -0.442,-0.165 a 3.957,3.957 0 0 0 -0.194,-0.647 l 0.814,0.224 a 0.279,0.279 0 0 0 0.1,0.192 0.341,0.341 0 0 0 0.449,-0.013 0.271,0.271 0 0 0 -0.014,-0.408 0.341,0.341 0 0 0 -0.432,0 l -1.044,-0.287 c -0.031,-0.067 -0.062,-0.13 -0.1,-0.194 l 0.586,0.136 a 0.311,0.311 0 0 0 0.08,0.11 0.341,0.341 0 0 0 0.449,-0.013 0.273,0.273 0 0 0 -0.015,-0.409 0.333,0.333 0 0 0 -0.216,-0.078 h -0.011 a 0.334,0.334 0 0 0 -0.221,0.091 0.3,0.3 0 0 0 -0.04,0.049 l -0.779,-0.18 C 15.478,15.278 15.45,15.232 15.419,15.187 l 0.206,-0.088 a 0.339,0.339 0 0 0 0.412,-0.013 0.271,0.271 0 0 0 0.019,-0.408 0.341,0.341 0 0 0 -0.449,-0.017 0.28,0.28 0 0 0 -0.1,0.2 0.076,0.076 0 0 0 0,0.015 l -0.23,0.1 C 15.16,14.807 15.036,14.64 14.912,14.485 l 0.905,-0.084 0.009,0.009 A 0.338,0.338 0 0 0 16.274,14.396 0.27,0.27 0 0 0 16.26,13.988 0.335,0.335 0 0 0 16.043,13.91 h -0.01 a 0.33,0.33 0 0 0 -0.221,0.091 0.281,0.281 0 0 0 -0.083,0.158 l -1,0.092 c -0.14,-0.169 -0.283,-0.328 -0.415,-0.477 l 0.341,-0.183 a 0.343,0.343 0 0 0 0.393,-0.051 0.273,0.273 0 0 0 -0.015,-0.409 0.34,0.34 0 0 0 -0.448,0.013 0.277,0.277 0 0 0 -0.086,0.207 c 0,0.012 0,0.023 0,0.034 l -0.368,0.2 A 6.516,6.516 0 0 0 13.564,13.023 L 14.819,12.6 a 0.33,0.33 0 0 0 0.2,0.075 0.335,0.335 0 0 0 0.228,-0.076 0.271,0.271 0 0 0 0.019,-0.408 0.337,0.337 0 0 0 -0.448,-0.017 0.281,0.281 0 0 0 -0.1,0.2 l -1.373,0.462 -0.268,-0.2 c -0.055,-0.039 -0.109,-0.078 -0.16,-0.116 l 0.787,-0.173 a 0.26,0.26 0 0 0 0.05,0.055 0.331,0.331 0 0 0 0.227,0.078 0.325,0.325 0 0 0 0.222,-0.091 0.271,0.271 0 0 0 -0.015,-0.408 0.34,0.34 0 0 0 -0.448,0.013 0.278,0.278 0 0 0 -0.069,0.106 l -1,0.222 A 4.019,4.019 0 0 1 12.209,11.83 l 0.532,0.055 a 0.306,0.306 0 0 0 0.066,0.082 0.341,0.341 0 0 0 0.449,-0.013 0.272,0.272 0 0 0 -0.015,-0.409 0.335,0.335 0 0 0 -0.216,-0.078 h -0.011 a 0.328,0.328 0 0 0 -0.221,0.092 0.267,0.267 0 0 0 -0.056,0.075 l -0.738,-0.076 a 7.581,7.581 0 0 1 -0.435,-0.661 l 0.318,-0.006 A 0.291,0.291 0 0 0 11.962,11 0.34,0.34 0 0 0 12.41,10.987 0.272,0.272 0 0 0 12.396,10.578 0.337,0.337 0 0 0 12.179,10.5 h -0.01 a 0.331,0.331 0 0 0 -0.222,0.092 0.335,0.335 0 0 0 -0.042,0.051 l -0.477,0.009 c -0.062,-0.116 -0.116,-0.233 -0.171,-0.35 l 1.262,0.044 a 0.265,0.265 0 0 0 0.052,0.07 0.34,0.34 0 0 0 0.448,0.017 0.277,0.277 0 0 0 0.1,-0.2 0.269,0.269 0 0 0 -0.083,-0.207 0.329,0.329 0 0 0 -0.221,-0.093 H 12.8 A 0.331,0.331 0 0 0 12.585,10.01 0.292,0.292 0 0 0 12.513,10.1 L 11.148,10.053 A 5.248,5.248 0 0 1 10.923,9.332 l 0.2,0.092 a 0.281,0.281 0 0 0 0.1,0.2 A 0.341,0.341 0 0 0 11.67,9.6 0.271,0.271 0 0 0 11.655,9.192 0.33,0.33 0 0 0 11.438,9.114 h -0.01 a 0.334,0.334 0 0 0 -0.2,0.072 L 10.86,9.014 C 10.833,8.848 10.813,8.682 10.802,8.514 l 0.964,0.388 A 0.283,0.283 0 0 0 11.859,9.053 0.34,0.34 0 0 0 12.307,9.04 0.272,0.272 0 0 0 12.293,8.631 0.335,0.335 0 0 0 12.076,8.553 h -0.01 A 0.331,0.331 0 0 0 11.844,8.645 L 11.831,8.659 10.79,8.239 a 5.289,5.289 0 0 1 0.027,-0.545 l 0.485,0.233 a 0.28,0.28 0 0 0 0.1,0.177 A 0.339,0.339 0 0 0 11.85,8.091 0.272,0.272 0 0 0 11.836,7.682 0.339,0.339 0 0 0 11.395,7.689 L 10.935,7.468 10.854,7.429 c 0.027,-0.18 0.066,-0.414 0.132,-0.675 l 0.115,0.088 A 0.273,0.273 0 0 0 11.182,7.153 0.34,0.34 0 0 0 11.63,7.14 0.272,0.272 0 0 0 11.616,6.731 0.334,0.334 0 0 0 11.399,6.653 0.339,0.339 0 0 0 11.294,6.67 l -0.23,-0.174 a 4.391,4.391 0 0 1 0.225,-0.57 l 0.385,0.361 A 0.272,0.272 0 0 0 11.756,6.595 0.334,0.334 0 0 0 11.983,6.673 0.327,0.327 0 0 0 12.204,6.582 0.271,0.271 0 0 0 12.19,6.174 0.334,0.334 0 0 0 11.973,6.096 0.378,0.378 0 0 0 11.867,6.112 L 11.41,5.689 a 4.643,4.643 0 0 1 0.353,-0.53 l 0.091,0.208 -0.008,0.007 A 0.271,0.271 0 0 0 11.861,5.782 0.339,0.339 0 0 0 12.309,5.769 0.272,0.272 0 0 0 12.295,5.36 0.332,0.332 0 0 0 12.11,5.284 L 11.957,4.932 a 4.158,4.158 0 0 1 0.365,-0.343 l 0.2,0.845 a 0.237,0.237 0 0 0 -0.039,0.032 0.274,0.274 0 0 0 -0.086,0.206 0.278,0.278 0 0 0 0.1,0.2 A 0.34,0.34 0 0 0 12.945,5.859 0.272,0.272 0 0 0 12.931,5.45 0.332,0.332 0 0 0 12.786,5.38 l -0.233,-0.973 0.152,-0.1 a 3.951,3.951 0 0 1 0.567,-0.3 L 13.25,4.744 a 0.315,0.315 0 0 0 -0.077,0.054 0.273,0.273 0 0 0 0.015,0.409 0.337,0.337 0 0 0 0.227,0.078 0.328,0.328 0 0 0 0.221,-0.092 0.271,0.271 0 0 0 -0.014,-0.408 0.34,0.34 0 0 0 -0.1,-0.057 l 0.021,-0.831 0.17,-0.06 C 13.741,3.83 13.768,3.819 13.795,3.812 l 0.008,0.025 0.1,0.263 A 0.3,0.3 0 0 0 13.854,4.139 0.27,0.27 0 0 0 13.869,4.547 0.332,0.332 0 0 0 14.096,4.625 0.327,0.327 0 0 0 14.317,4.534 0.27,0.27 0 0 0 14.303,4.126 0.335,0.335 0 0 0 14.172,4.058 L 14.089,3.837 14.054,3.745 a 4.85,4.85 0 0 1 0.571,-0.1 v 0.191 l -0.01,0.417 A 0.334,0.334 0 0 0 14.468,4.334 0.271,0.271 0 0 0 14.483,4.742 0.34,0.34 0 0 0 14.931,4.729 0.272,0.272 0 0 0 14.917,4.32 L 14.886,4.297 14.897,3.836 V 3.62 a 5.761,5.761 0 0 1 0.656,0 l -0.077,0.215 -0.228,0.636 a 0.312,0.312 0 0 0 -0.115,0.071 0.276,0.276 0 0 0 -0.086,0.207 0.28,0.28 0 0 0 0.1,0.2 0.341,0.341 0 0 0 0.449,-0.013 0.271,0.271 0 0 0 -0.015,-0.408 0.24,0.24 0 0 0 -0.053,-0.037 l 0.235,-0.657 0.07,-0.194 a 5.471,5.471 0 0 1 0.563,0.078 l -0.019,0.113 -0.038,0.218 a 0.33,0.33 0 0 0 -0.191,0.076 0.271,0.271 0 0 0 -0.019,0.408 0.34,0.34 0 0 0 0.448,0.017 0.273,0.273 0 0 0 0.1,-0.2 0.27,0.27 0 0 0 -0.081,-0.205 l 0.054,-0.313 0.012,-0.06 c 0.085,0.021 0.163,0.038 0.233,0.056 l 0.08,0.023 -0.022,0.083 0.058,-0.068 c 0.167,0.074 0.382,0.173 0.617,0.306 l -0.116,0.087 a 0.271,0.271 0 0 0 -0.321,0 0.339,0.339 0 0 0 -0.105,0.436 0.271,0.271 0 0 0 0.4,0.094 0.335,0.335 0 0 0 0.133,-0.189 0.372,0.372 0 0 0 0.012,-0.1 l 0.228,-0.176 a 4.43,4.43 0 0 1 0.49,0.367 L 17.9,4.968 a 0.271,0.271 0 0 0 -0.319,0 0.34,0.34 0 0 0 -0.106,0.436 0.272,0.272 0 0 0 0.4,0.094 A 0.336,0.336 0 0 0 18,5.291 0.32,0.32 0 0 0 18.012,5.185 l 0.529,-0.33 a 4.538,4.538 0 0 1 0.418,0.481 L 18.734,5.368 V 5.359 a 0.271,0.271 0 0 0 -0.4,-0.093 0.339,0.339 0 0 0 -0.105,0.436 0.271,0.271 0 0 0 0.4,0.093 0.331,0.331 0 0 0 0.122,-0.158 L 19.13,5.583 a 3.917,3.917 0 0 1 0.235,0.442 L 18.5,6 a 0.313,0.313 0 0 0 -0.021,-0.046 0.276,0.276 0 0 0 -0.177,-0.137 0.273,0.273 0 0 0 -0.22,0.044 0.34,0.34 0 0 0 -0.106,0.436 0.271,0.271 0 0 0 0.4,0.093 0.325,0.325 0 0 0 0.106,-0.121 l 1,0.032 c 0.02,0.058 0.038,0.116 0.058,0.174 a 4.067,4.067 0 0 1 0.144,0.627 L 18.979,6.887 A 0.316,0.316 0 0 0 18.947,6.798 0.27,0.27 0 0 0 18.77,6.661 a 0.274,0.274 0 0 0 -0.221,0.043 0.334,0.334 0 0 0 -0.135,0.2 0.328,0.328 0 0 0 0.029,0.237 0.272,0.272 0 0 0 0.4,0.094 0.332,0.332 0 0 0 0.082,-0.081 l 0.795,0.24 c 0.006,0.062 0.008,0.119 0.013,0.181 0,0.028 0,0.057 0,0.085 H 19.7 l -0.28,0.025 a 0.3,0.3 0 0 0 -0.024,-0.058 0.272,0.272 0 0 0 -0.4,-0.094 0.334,0.334 0 0 0 -0.135,0.2 0.328,0.328 0 0 0 0.029,0.237 0.27,0.27 0 0 0 0.177,0.137 0.278,0.278 0 0 0 0.221,-0.043 0.32,0.32 0 0 0 0.1,-0.108 l 0.236,-0.022 0.1,-0.009 a 4.807,4.807 0 0 1 -0.055,0.576 l -0.183,-0.054 -0.4,-0.12 a 0.318,0.318 0 0 0 -0.039,-0.162 0.272,0.272 0 0 0 -0.4,-0.094 0.339,0.339 0 0 0 -0.1,0.436 0.271,0.271 0 0 0 0.4,0.094 l 0.031,-0.024 0.442,0.133 0.207,0.06 a 5.727,5.727 0 0 1 -0.17,0.634 L 19.27,9.272 18.717,8.885 a 0.336,0.336 0 0 0 -0.038,-0.13 0.276,0.276 0 0 0 -0.177,-0.137 0.279,0.279 0 0 0 -0.221,0.044 0.339,0.339 0 0 0 -0.105,0.436 0.271,0.271 0 0 0 0.4,0.094 0.337,0.337 0 0 0 0.049,-0.042 l 0.572,0.4 0.169,0.118 a 5.518,5.518 0 0 1 -0.223,0.523 l -0.1,-0.048 -0.2,-0.094 A 0.334,0.334 0 0 0 18.82,9.844 0.271,0.271 0 0 0 18.431,9.718 a 0.341,0.341 0 0 0 -0.134,0.428 0.278,0.278 0 0 0 0.167,0.152 0.273,0.273 0 0 0 0.219,-0.025 l 0.288,0.135 0.055,0.028 c -0.043,0.076 -0.081,0.147 -0.116,0.209 a 2.949,2.949 0 0 1 -0.18,0.281 l 0.167,0.143 c 0.017,-0.024 0.049,-0.072 0.088,-0.133 l 0.722,0.179 a 0.292,0.292 0 0 0 0.024,0.076 0.271,0.271 0 0 0 0.388,0.126 0.339,0.339 0 0 0 0.135,-0.428 0.271,0.271 0 0 0 -0.389,-0.126 0.32,0.32 0 0 0 -0.1,0.087 l -0.64,-0.161 c 0.084,-0.146 0.177,-0.326 0.272,-0.538 l 0.335,0.035 a 0.393,0.393 0 0 0 0.024,0.056 0.271,0.271 0 0 0 0.4,0.093 0.342,0.342 0 0 0 0.106,-0.436 0.271,0.271 0 0 0 -0.4,-0.093 0.315,0.315 0 0 0 -0.1,0.111 L 19.5,9.886 a 4.9,4.9 0 0 0 0.18,-0.51 l 0.786,0.318 A 0.324,0.324 0 0 0 20.503,9.817 0.273,0.273 0 0 0 20.68,9.954 0.278,0.278 0 0 0 20.901,9.911 0.336,0.336 0 0 0 21.033,9.722 0.327,0.327 0 0 0 21,9.475 0.271,0.271 0 0 0 20.6,9.381 0.328,0.328 0 0 0 20.541,9.433 l -0.8,-0.323 a 5.736,5.736 0 0 0 0.133,-0.676 z"/>

</svg>