<svg xmlns="http://www.w3.org/2000/svg" viewBox="0 0 24 24"><path fill="#44739e" d="M15.281 12.781a2.42 2.42 0 0 0-1.706-.11 2.9 2.9 0 0 0-1.651 2.942 3.12 3.12 0 0 0 1.181 2 1.65 1.65 0 0 0 1.192.306 1.63 1.63 0 0 0 1.214-.328 2.86 2.86 0 0 0 1.115-2.329 4.1 4.1 0 0 0-.175-1.126 3.4 3.4 0 0 0-1.17-1.355m-.24 4.6a2.14 2.14 0 0 1-1.433.055c-.317-.12-.962-.765-.962-.962 0-.1.372-.142 1.509-.175a31 31 0 0 0 1.629-.055.23.23 0 0 1 .2.077c.074.145-.561.856-.943 1.063Zm1.192-1.946-.033.4h-3.827l-.033-.513a2.256 2.256 0 0 1 1.892-2.384 2.22 2.22 0 0 1 2 2.493Zm5.757-3.094-.034-7.001-.376-.389a2.2 2.2 0 0 0-.575-.448l-.017-.004c-.284-.081-16.3-.805-16.8-.817a6 6 0 0 0-.811.171 3 3 0 0 0-.825.326C2 4.626 2 4.626 2 12.035v.754C2 19.5 2 19.5 2.647 19.9l.046.028c.423.267.7.39 2.269.39 1.318 0 3.549-.086 7.545-.247 6.773-.284 8.4-.379 8.685-.511l.053-.023c.777-.337.777-.337.745-7.196m-18.4-.306c0 4.537 0 6.418-.07 6.9a.7.7 0 0 1-.158-.115c-.155-.155-.155-.913-.155-6.811 0-4.927.011-6.663.13-6.801a.44.44 0 0 1 .242-.125h.011Zm4.7 6.954-3.7.139-.134-.171c-.134-.157-.156-.394-.156-1.684v-1.356h5.462l.048.315a4.38 4.38 0 0 0 1.636 2.621c-.672.036-1.796.087-3.156.136m2.622-2.162-.1.043-.013-.028a2.84 2.84 0 0 1-.269-1.524 2.9 2.9 0 0 1 .218-1.388l.1.04a4.42 4.42 0 0 0 .064 2.857M9.776 14.6l-.044.388-1.8.03-1.78.02V6.499l1.006.053c.619.031 3.349.139 6.149.23 3.159.115 5.21.2 5.487.229l.371.035v7.884h-1.211l-.047-.288a4.06 4.06 0 0 0-2.032-3.02c-.61-.347-.744-.357-2.011-.357a3.6 3.6 0 0 0-1.924.275 4.21 4.21 0 0 0-2.164 3.06m4.5 3.983h-.026a2.41 2.41 0 0 1-1.923-.874 3.84 3.84 0 0 1-.673-3.69 3.7 3.7 0 0 1 1.675-1.8 3.2 3.2 0 0 1 .915-.118 2.9 2.9 0 0 1 1.083.174 3.66 3.66 0 0 1 1.473 1.531 4.77 4.77 0 0 1 .03 3.014 2.79 2.79 0 0 1-2.554 1.765ZM20.7 17.01a8 8 0 0 1-.051 1.4.3.3 0 0 1-.045.02 24 24 0 0 1-2.481.162l-1.684.056.061-.048a4.3 4.3 0 0 0 1.36-2.332l.088-.452L19 15.775a52 52 0 0 0 1.585-.055l.118-.008Zm0-2.077h-.657v-4.025c0-1.105-.009-2.183-.027-3.035-.028-1.346-.052-1.383-.1-1.45-.107-.161-.156-.234-7.194-.491-6.179-.23-7-.222-7.145-.2-.252.076-.3.089-.3 4.889v4.419H4.3v-4.788c0-3.932.015-4.95.15-5.139l.107-.161 1.691.062 1.292.056c1.6.069 4.2.181 6.7.293 3.435.155 6.083.319 6.367.372l.1.043Z"/></svg>