<svg xmlns="http://www.w3.org/2000/svg" width="24" height="24" viewBox="0 0 24 24">
  <path id="Colore_riempimento_1" fill="#44739e" data-name="Colore riempimento 1" class="cls-1" d="m 5.3429999,4.2220001 h 1.099 v 1.1 h -1.099 z M 12.781,18.657 a 7.19,7.19 0 0 1 -3.51,-0.988 6.511,6.511 0 0 0 2.947,3.936 l 0.66,0.364 c 5.052,-0.337 8.009,-3.6 8.009,-7.863 v -0.924 c -1.201,3.918 -3.995,5.66 -8.106,5.475 z M 8.674,16.366 V 8.355 H 7.562 v 4.1 H 6.448 V 10 h -1.11 v 1.1 H 4.225 V 5.042 H 3.113 v 9.063 c 0,4.508 3.3,7.9 8.888,7.9 A 6.818,6.818 0 0 1 8.674,16.366 Z M 7.5619998,4.7719998 h 1.112 v 1.1000001 h -1.112 z M 3.1129999,2 h 1.112 v 1.1109999 h -1.112 z m 2.231,5.8049998 h 1.1 v 1.1000001 h -1.1 z m 1.111,-1.6489997 h 1.1 v 1.1000001 h -1.1 z m -0.006,-3.045 h 1.113 V 4.21 h -1.113 z M 15.325,5.788 v 10.577 a 8.962,8.962 0 0 1 -0.164,1.7 c 2.671,-0.486 4.414,-2.137 5.3,-5.014 v 0 l 0.431,-1.407 V 2.012 c -5.042,0 -5.567,1.931 -5.567,3.776 z"/>
</svg>
