<svg xmlns="http://www.w3.org/2000/svg" fill="#44739e" width="24" height="24" version="1.1" viewBox="0 0 24 24"><path d="m 20.915,10.96 -0.336,0.246 v 0.2 l -0.318,0.275 v 0.935 l 1.014,-0.808 -0.026,-0.876 -0.309,0.221 z m -1.557,1.373 -0.032,-0.191 -0.336,0.245 0.005,0.2 -0.314,0.274 V 13.8 l 1.013,-0.809 -0.027,-0.876 z m -1.624,1.318 -0.032,-0.192 -0.336,0.246 v 0.2 l -0.314,0.274 v 0.935 l 1.014,-0.807 -0.026,-0.876 z m -2.971,2.249 -0.031,-0.192 -0.336,0.246 v 0.2 l -0.314,0.274 v 0.935 l 1.013,-0.807 -0.026,-0.877 z M 12.691,9.309 A 1.8,1.8 0 0 0 12.08,9.068 0.327,0.327 0 0 0 11.856,9.128 c -0.146,0.08 -0.2,0.193 -0.148,0.294 A 1.4,1.4 0 0 0 12.191,9.7 c 0.475,0.224 0.525,0.251 0.4,0.325 -0.125,0.074 -0.183,0.063 -0.5,-0.079 A 3.539,3.539 0 0 0 11.735,9.801 C 11.628,9.781 11.591,9.764 11.601,9.741 11.633,9.668 11.223,9.605 11.086,9.66 a 1.148,1.148 0 0 1 -0.16,0.052 C 10.807,9.737 10.69,9.82 10.713,9.863 a 4.276,4.276 0 0 0 0.545,0.314 c 0.641,0.339 0.75,0.372 1.15,0.347 a 1.4,1.4 0 0 0 0.744,-0.245 0.444,0.444 0 0 0 0.262,-0.256 0.357,0.357 0 0 0 -0.117,-0.4 6.632,6.632 0 0 0 -0.6,-0.314 z m 0.208,1.013 a 1.361,1.361 0 0 1 -0.708,0.128 l -0.216,-0.013 -0.57,-0.286 C 11.216,10.061 11.03,9.962 10.849,9.857 a 0.028,0.028 0 0 1 0,-0.04 0.21,0.21 0 0 1 0.2,0.059 3.434,3.434 0 0 0 0.417,0.206 c 0.3,0.13 0.344,0.145 0.265,0.085 A 3.23,3.23 0 0 0 11.409,9.978 c -0.172,-0.09 -0.224,-0.129 -0.236,-0.18 -0.02,-0.09 0.059,-0.093 0.115,0.007 0.056,0.1 0.15,0.126 0.1,0.024 -0.017,-0.04 -0.017,-0.076 0,-0.08 0.068,-0.012 0.124,0.035 0.138,0.119 0.014,0.084 0.043,0.1 0.2,0.177 a 0.7,0.7 0 0 0 0.233,0.085 c 0.03,-0.005 -0.027,-0.045 -0.151,-0.106 -0.141,-0.07 -0.2,-0.112 -0.2,-0.151 -0.007,-0.057 0.036,-0.1 0.056,-0.058 a 3.788,3.788 0 0 0 0.429,0.233 c 0.466,0.231 0.571,0.261 0.789,0.215 0.11,-0.024 0.08,-0.029 -0.2,-0.04 a 1.216,1.216 0 0 1 -0.181,-0.014 0.634,0.634 0 0 1 0.151,-0.06 1.068,1.068 0 0 0 0.317,-0.166 c 0.13,-0.1 0.145,-0.127 0.13,-0.2 -0.027,-0.119 -0.13,-0.172 -0.107,-0.056 0.01,0.048 -0.013,0.09 -0.042,0.093 -0.029,0.003 -0.04,0.01 -0.017,0.01 0.048,0 0.085,0.1 0.047,0.127 A 8.778,8.778 0 0 1 11.859,9.413 c -0.064,-0.08 0.132,-0.269 0.257,-0.252 q 0.285,0.105 0.554,0.23 c 0.455,0.2 0.528,0.241 0.587,0.318 0.158,0.215 0.01,0.471 -0.363,0.613 z m 9.087,-0.9 C 21.886,9.195 21.795,9.158 17.492,7.538 16.729,7.251 15.192,6.67 14.076,6.248 11.891,5.42 11.912,5.426 11.329,5.533 A 49.055,49.055 0 0 0 6.294,8.208 C 5.37,8.718 4.1,9.414 3.478,9.756 2.856,10.098 2.266,10.443 2.171,10.522 1.94,10.716 1.94,10.76 2.186,12.431 c 0.114,0.771 0.128,0.812 0.308,0.928 0.09,0.06 1.975,1.053 4.186,2.207 2.211,1.154 4.326,2.263 4.7,2.461 a 3.171,3.171 0 0 0 1.044,0.425 c 0.838,0.149 0.961,0.1 2.268,-0.913 l 1.225,-0.946 c 0.124,-0.1 1.189,-0.925 2.361,-1.839 q 1.4,-1.092 2.8,-2.177 a 9.217,9.217 0 0 0 0.72,-0.588 0.838,0.838 0 0 0 0.058,-0.35 q 0.008,-0.3 0.045,-0.606 A 7.106,7.106 0 0 0 21.983,9.424 M 21.709,11 a 3.088,3.088 0 0 1 -0.08,0.76 0.328,0.328 0 0 1 -0.065,0.149 l -0.718,0.549 c -0.358,0.273 -0.7,0.54 -0.747,0.6 a 2.049,2.049 0 0 1 -0.284,0.225 0.635,0.635 0 0 0 -0.189,0.161 0.951,0.951 0 0 1 -0.238,0.194 c -0.238,0.158 -0.364,0.254 -1.676,1.282 -0.384,0.3 -0.75,0.586 -0.817,0.635 q -0.562,0.423 -1.115,0.859 c -0.173,0.155 -0.754,0.6 -1.186,0.922 L 13.708,18 a 1.582,1.582 0 0 1 -0.18,0.137 0.9,0.9 0 0 1 -0.16,0.083 1.5,1.5 0 0 1 -0.9,0.015 c -0.384,-0.062 -0.516,-0.11 -0.436,-0.16 0.03,-0.019 0.03,-0.052 -0.006,-0.1 A 3.761,3.761 0 0 0 11.284,17.49 c -0.1,-0.047 -0.47,-0.24 -0.832,-0.429 L 9.318,16.47 8.364,15.97 C 8.102,15.832 7.499,15.519 7.023,15.27 6.547,15.021 5.946,14.713 5.683,14.576 5.42,14.439 4.839,14.139 4.389,13.909 3.939,13.679 3.499,13.449 3.413,13.402 A 3.422,3.422 0 0 0 3.06,13.239 c -0.173,-0.067 -0.188,-0.067 -0.152,0 a 3.433,3.433 0 0 0 0.6,0.365 c 0.309,0.16 0.766,0.4 1.016,0.532 0.25,0.132 0.964,0.5 1.586,0.816 0.622,0.316 1.174,0.6 1.227,0.636 0.093,0.057 0.84,0.447 2.208,1.151 2,1.028 2.026,1.042 1.983,1.086 a 1.581,1.581 0 0 1 -0.353,-0.16 Q 9.728,16.9 8.275,16.147 7.752,15.877 7.231,15.602 6.768,15.356 6.3,15.114 C 5.95,14.932 5.286,14.584 4.824,14.341 4.362,14.098 3.901,13.857 3.438,13.617 2.858,13.317 2.583,13.134 2.618,13.076 2.631,13.056 2.612,13.001 2.578,12.954 A 0.288,0.288 0 0 1 2.538,12.742 0.235,0.235 0 0 0 2.488,12.531 0.283,0.283 0 0 1 2.416,12.361 3.276,3.276 0 0 0 2.35,11.335 c -0.05,-0.117 0.05,-0.1 0.184,0.034 a 0.377,0.377 0 0 0 0.207,0.114 c 0.069,0 5.888,2.871 6.421,3.167 0.226,0.126 3.037,1.5 3.311,1.621 a 0.748,0.748 0 0 0 0.6,0.085 c 0.44,-0.075 0.607,-0.184 2.7,-1.762 Q 17.7,13.144 19.628,11.7 c 0.29,-0.217 0.733,-0.555 0.981,-0.748 0.22,-0.173 0.425,-0.328 0.595,-0.452 l 0.613,-0.451 z m -0.917,-0.429 c -0.429,0.323 -1.107,0.836 -1.507,1.141 -1.5,1.147 -5.555,4.176 -5.7,4.263 A 1.869,1.869 0 0 1 12.74,16.152 C 12.14,16.046 11.819,15.895 7.274,13.621 4.715,12.34 2.546,11.247 2.453,11.189 2.253,11.063 2.186,10.907 2.296,10.829 a 0.176,0.176 0 0 0 0.073,-0.1 c 0,-0.077 0.175,-0.185 1.385,-0.85 L 6.454,8.39 C 7.314,7.914 8.225,7.414 8.475,7.278 9.125,6.922 9.39,6.778 9.724,6.592 10.305,6.27 10.388,6.225 10.702,6.07 a 2.421,2.421 0 0 1 0.806,-0.274 0.382,0.382 0 0 0 0.155,-0.043 c 0.044,-0.044 0.119,-0.037 0.387,0.034 0.129,0.035 0.865,0.3 1.63,0.588 0.765,0.288 1.759,0.656 2.2,0.818 0.73,0.265 1.239,0.454 1.9,0.707 0.661,0.253 0.931,0.355 2.238,0.845 a 7.416,7.416 0 0 1 1.6,0.69 0.579,0.579 0 0 1 0.183,0.216 c 0,0.118 -0.251,0.35 -1.011,0.92 z m -8.748,6.993 A 0.8,0.8 0 0 0 11.856,17.414 0.661,0.661 0 0 1 11.64,17.206 4.51,4.51 0 0 0 10.7,16.658 c -0.5,-0.253 -0.933,-0.48 -0.963,-0.5 a 0.1,0.1 0 0 0 -0.1,-0.015 C 9.611,16.159 9.59,16.152 9.59,16.127 A 5.026,5.026 0 0 0 8.83,15.698 C 8.414,15.488 7.93,15.241 7.765,15.152 A 1.047,1.047 0 0 0 7.459,15.017 c 0,0.015 -0.036,0 -0.081,-0.04 a 7.76,7.76 0 0 0 -1.01,-0.519 3.118,3.118 0 0 1 -0.421,-0.2 C 5.717,14.138 5.323,13.934 5.073,13.808 4.823,13.682 4.489,13.508 4.331,13.419 A 1.543,1.543 0 0 0 3.981,13.258 0.086,0.086 0 0 1 3.907,13.225 4.392,4.392 0 0 0 3.059,12.808 C 2.781,12.693 2.725,12.682 2.703,12.74 a 0.139,0.139 0 0 0 0.059,0.138 c 0.047,0.038 0.054,0.055 0.017,0.037 -0.037,-0.018 -0.056,-0.02 -0.018,0.022 a 0.431,0.431 0 0 0 0.214,0.075 10.4,10.4 0 0 1 1.266,0.581 c 1.616,0.822 2.949,1.5 3.467,1.778 0.249,0.13 0.9,0.468 1.453,0.751 a 13.869,13.869 0 0 1 2.411,1.3 c -0.02,0.021 -1.168,-0.543 -1.763,-0.867 Q 9.272,16.27 8.729,15.993 C 8.292,15.768 7.629,15.426 7.261,15.232 a 4.9,4.9 0 0 0 -0.694,-0.33 2.476,2.476 0 0 0 0.49,0.285 c 0.283,0.143 0.638,0.327 0.788,0.408 0.15,0.081 0.66,0.346 1.135,0.591 0.475,0.245 1.231,0.637 1.679,0.872 0.448,0.235 0.883,0.457 0.965,0.493 0.5,0.216 0.46,0.2 0.444,0.12 a 0.96,0.96 0 0 1 -0.02,-0.107 z M 5.136,14.176 A 6.172,6.172 0 0 0 5.98,14.601 6.484,6.484 0 0 0 5.165,14.158 c -0.016,0 -0.03,0.008 -0.03,0.018 z M 3.211,13.158 c -0.025,0 -0.006,0.03 0.042,0.066 a 0.314,0.314 0 0 0 0.134,0.07 c 0.025,0 0.006,-0.03 -0.043,-0.067 A 0.332,0.332 0 0 0 3.211,13.158 m -0.39,-0.864 c 0.074,0.055 0.135,0.125 0.135,0.155 a 5.032,5.032 0 0 0 0.848,0.489 c 1.526,0.777 3.561,1.818 4.3,2.2 l 1.84,0.945 c 1.926,0.984 1.9,0.973 1.753,0.81 -0.075,-0.083 -0.07,-0.085 0.135,-0.062 0.205,0.023 0.21,0.02 0.16,-0.073 a 1.112,1.112 0 0 0 -0.3,-0.255 c -0.362,-0.231 -8.6,-4.384 -8.925,-4.5 -0.16,-0.056 -0.166,-0.054 -0.158,0.039 0,0.053 0.034,0.09 0.064,0.085 0.03,-0.005 0.043,0.005 0.03,0.027 -0.013,0.022 0.04,0.082 0.114,0.14 z m 0.194,-0.039 c 0.045,0 1.353,0.64 2.907,1.425 3.8,1.917 5.434,2.751 5.587,2.857 q 0.453,0.312 -0.814,-0.333 -3.139,-1.6 -6.286,-3.182 C 3.043,12.332 2.895,12.25 3.015,12.25 Z M 14.7,8.95 a 20.1,20.1 0 0 0 -2.714,-1 1.467,1.467 0 0 0 -0.466,0.174 c -0.177,0.1 -0.558,0.322 -0.848,0.5 -0.29,0.178 -0.883,0.527 -1.317,0.782 -0.69,0.4 -1.021,0.656 -1.021,0.772 0,0.071 0.265,0.274 0.527,0.4 0.367,0.18 3.456,1.536 3.591,1.576 a 0.687,0.687 0 0 0 0.271,0 36.363,36.363 0 0 0 3.287,-2.159 c 0.122,-0.128 0.13,-0.156 0.092,-0.31 -0.051,-0.2 0,-0.177 -1.4,-0.733 z m 1.286,0.792 c -0.034,0.041 -0.768,0.542 -1.633,1.114 -1.432,0.949 -1.587,1.04 -1.765,1.04 a 10.094,10.094 0 0 1 -1.96,-0.778 C 8.846,10.332 8.59,10.203 8.621,10.108 8.641,10.044 8.568,10.09 10.437,8.985 a 16.044,16.044 0 0 1 1.642,-0.9 2.072,2.072 0 0 1 0.487,0.165 c 0.207,0.09 0.6,0.25 0.879,0.357 0.279,0.107 0.892,0.35 1.366,0.54 a 7.892,7.892 0 0 0 0.967,0.346 0.305,0.305 0 0 1 0.188,0.087 c 0.069,0.073 0.073,0.1 0.02,0.16 z m -10.123,3.68 c 1.736,0.873 3.787,1.907 4.559,2.3 1.282,0.649 1.618,0.788 1.618,0.667 0,-0.086 -0.314,-0.272 -1.271,-0.753 C 10.232,15.366 9.73,15.116 9.655,15.082 9.58,15.048 9.487,15 9.4,14.954 9.1,14.786 2.733,11.62 2.644,11.595 c -0.072,-0.02 -0.1,-0.01 -0.1,0.035 a 0.233,0.233 0 0 0 0.08,0.136 c 0.041,0.036 1.5,0.783 3.234,1.656"/></svg>
