<svg xmlns="http://www.w3.org/2000/svg" width="24.013" height="24.013" viewBox="0 0 512 512">
  <path id="Colore_riempimento_1" fill="#44739e" data-name="Colore riempimento 1" class="cls-1" d="M66,0H446V1h5V2l8,1V4h3V5l5,1V7l4,1V9h2l1,2,4,1,1,2h2l3,4h2l6,7,2,1v2l4,3v2l2,1q0.5,2,1,4l2,1v2h1q0.5,2,1,4h1q0.5,2.5,1,5h1v3h1q0.5,4,1,8h1v6h1V445h-1v6h-1q-0.5,4-1,8h-1v3h-1l-1,5h-1l-1,4h-1v2l-2,1-1,4-3,2v2l-3,2v2l-7,6-1,2h-2l-2,3-3,1-1,2-4,1-1,2h-2v1l-4,1v1l-5,1v1h-3v1l-8,1v1h-6c-10.09,2.908-28.828,1-41,1H66v-1H61v-1l-8-1v-1H50v-1l-5-1v-1l-4-1v-1H39l-1-2-4-1-1-2-3-1-3-4H25l-5-6-2-1v-2l-3-2v-2l-3-2-1-4-2-1v-2H8l-1-4H6l-1-5H4l-1-6H2L1,446H0V66H1V61H2V56H3V53H4V50H5V48H6V45H7l1-4H9V39l2-1,1-4,3-2V30l3-2V26l7-6,1-2h2l2-3h2l2-3,4-1,1-2h2V8l4-1V6h3V5h2V4l6-1V2C59.59,0.8,63.507,2.215,66,0Zm46,94v18h18V94H112ZM307,355l17-4v-1h2v-1h3v-1h2v-1l9-3,1-2,4-1,1-2h2v-1l3-1,1-2h2l9-10,8-7v-2l2-1v-2l3-2,1-4,2-1,1-4,2-1,1-4h1l1-4h1l14-41V94c-37.18-.435-69.784,6.342-84,29-9,14.339-6,47.886-6,71V335ZM166,112v18H148v18h18V130h18V112H166Zm18,27v18h18V139H184Zm-72,4V259c0,16.837-1.987,38.386,2,52v6q4,13,8,26h1l2,6h1l2,6c24.05,38.057,65.09,62.82,127,63v-1l-3-1v-1h-2l-3-4h-2l-3-4h-2l-6-7-7-6v-2l-4-3v-2l-3-2v-2l-2-1q-0.5-2-1-4l-2-1q-0.5-2-1-4h-1l-2-6h-1v-3h-1v-2h-1q-1-4.5-2-9h-1q-0.5-4.5-1-9h-1v-9c-2.823-10.033-1-26.142-1-38V197H184v66H166V224H148v17H130V143H112Zm54,18v18h18V161H166Zm-18,27v18h18V188H148Zm65,161c0.047,5.55,2.076,11.049,4,15h1v3h1v2h1v2l2,1,2,6,2,1v2l3,2v2l3,2v2l5,4,9,10h2l2,3h2l2,3h2l1,2h2l1,2h2v1h2v1h2v1h2l1,2h8v-1h9v-1h5v-1h5v-1h5v-1h3v-1h4v-1h3v-1l7-1v-1h2v-1h3v-1l4-1v-1h3v-1l4-1v-1h2l1-2,6-2,1-2h2v-1l3-1,1-2h2l3-4h2l9-10,6-5v-2l4-3v-2l3-2v-2l2-1v-2h1v-2l2-1v-2h1v-2h1v-2h1v-2h1l1-4h1l1-5h1q1-4.5,2-9h1q0.5-3.5,1-7h1q0.5-6,1-12a46.6,46.6,0,0,0,2-12c0.058-4.673,1.027-18.666-1-21l-1,5h-1q-0.5,3-1,6h-1v2h-1v3h-1l-2,6h-1v2h-1v2h-1v2h-1v2h-1v2l-2,1v2l-2,1v2h-1l-1,3-2,1v2l-5,4v2l-5,4-6,7h-2l-2,3-3,1-1,2h-2l-1,2-4,1-1,2-4,1v1l-6,2v1h-3v1h-2v1l-21,6h-6c-8.528,2.44-35.4,3.728-45,1h-8v-1l-9-1v-1l-7-1v-1h-3v-1h-3v-1h-2v-1h-3v-1l-4-1C217.6,351.72,216.13,349.82,213,349Z"/>
</svg>
