<svg xmlns="http://www.w3.org/2000/svg" viewBox="0 0 24 24"><path fill="#44739e" d="M5.342 4.221h1.099v1.1H5.342Zm7.436 14.432a7.2 7.2 0 0 1-3.509-.988 6.5 6.5 0 0 0 2.946 3.935l.66.364c5.051-.337 8.007-3.599 8.007-7.861v-.924c-1.2 3.917-3.994 5.659-8.104 5.474m-4.106-2.291V8.353H7.561v4.099H6.447V9.998h-1.11v1.1H4.224V5.041H3.113v9.061c0 4.507 3.299 7.898 8.886 7.898a6.82 6.82 0 0 1-3.327-5.638M7.561 4.771h1.111v1.1H7.561ZM3.113 2h1.111v1.111H3.113Zm2.23 5.804h1.1v1.099h-1.1Zm1.111-1.649h1.1v1.1h-1.1Zm-.006-3.044h1.113v1.098H6.448Zm8.874 2.676v10.574a9 9 0 0 1-.164 1.7c2.67-.486 4.413-2.136 5.298-5.013l.431-1.406v-9.63c-5.04 0-5.565 1.931-5.565 3.775"/></svg>