<svg xmlns="http://www.w3.org/2000/svg" viewBox="0 0 24 24"><path fill="#44739e" d="M17.383 2H6.617A4.63 4.63 0 0 0 2 6.617v10.766A4.63 4.63 0 0 0 6.617 22h10.766A4.63 4.63 0 0 0 22 17.383V6.617A4.63 4.63 0 0 0 17.383 2M8.252 6H9v.742h-.748Zm1.5 1.121v.743H9V7.12ZM9 8.054V8.8h-.743v-.746ZM7.506 6.749h.742v.742h-.742Zm.742 2.419v.743h-.742v-.743ZM6 5.249h.751V6H6Zm0 8.172V7.3h.751v4.1H7.5v-.743h.75v1.655H9V9.539h.75v5.408A4.6 4.6 0 0 0 12 18.751c-3.772 0-6-2.286-6-5.33m12 0c0 2.879-2 5.081-5.407 5.309l-.446-.246a4.4 4.4 0 0 1-1.989-2.658 4.85 4.85 0 0 0 2.369.668c2.776.124 4.662-1.052 5.473-3.7Zm0-1.663-.291.95a4.41 4.41 0 0 1-3.575 3.386 6 6 0 0 0 .111-1.147V7.806c0-1.245.354-2.55 3.755-2.55Z"/></svg>