<svg xmlns="http://www.w3.org/2000/svg" width="32.014" height="17.754" viewBox="0 0 449 249">
  <path id="Colore_riempimento_1" fill="#44739e" data-name="Colore riempimento 1" class="cls-1" d="M128,25h12V37H128V25Zm192,1V135h-1v3h-1v3h-1v3h-1v3h-1l-2,6h-1v2h-1v2h-1v3l-2,1-1,3h-1l-1,4-3,2v2l-7,6-4,5h-2l-1,2-3,1v1l-6,2c-5.874,3.13-10.969,6.829-20,7,2.8-32.514,1-69.782,1-104,0-17.281-1.76-37.34,5-48,6.285-9.91,19.463-14.285,32-18h23ZM164,36h12V49H164V36ZM152,49h12V61H152V49Zm24,5h12V66H176V54Zm-48,3h12v66h12V111h12v26h12V94h12v94q4,11.5,8,23l2,1q0.5,2,1,4l2,1v2l3,2v2l6,5,4,5,4,1q0.5,1,1,2l4,2v1H213c-2.447-2.1-9.342-.869-13-2v-1h-5v-1h-3v-1h-3v-1h-6v-1l-4-1v-1h-3v-1l-4-1v-1h-2q-0.5-1-1-2l-6-2q-0.5-1-1-2h-2q-0.5-1-1-2h-2l-4-5-9-8v-2l-3-2v-2l-2-1q-4.5-10.5-9-21v-8c-2.584-9.06-2-22.108-2-34V57Zm36,12h12V81H164V69ZM152,87h12V99H152V87Zm43,107,6,1v1h5v1h3v1h4v1h3v1l9,1v1h9v1c4.592,1.286,16.847-.088,20-1h6v-1h4v-1h4v-1l5-1v-1h2v-1h4v-1h2l1-2,4-1,2-3,3-1v-1h2l8-9,5-4v-2l2-1v-2l2-1,1-4,2-1v-2h1v-2h1v-2h1v-2h1v-2h1q0.5-2.5,1-5h1v22c-6.612,22.6-13.856,36.853-31,49l-2,3h-2l-1,2-6,2-1,2-4,1v1l-6,2v1h-5v1h-2v1l-7,1c-3.1,1.033-13.854,4.866-19,3v-1l-4-1v-1h-2q-0.5-1-1-2l-4-1q-0.5-1-1-2h-2l-2-3h-2l-6-7-3-2v-2l-2-1q-0.5-1.5-1-3h-1v-2l-2-1q-0.5-2-1-4C197.9,202.084,195.3,200.022,195,194Z"/>
</svg>
