<svg xmlns="http://www.w3.org/2000/svg" viewBox="0 0 24 24"><path fill="#44739e" fill-rule="evenodd" d="M14.94 5.924h.458v-.417h-.458Zm-3.018 5.034c-.886-.014-1.736-.788-1.736-1.437V5.519H8.369l.049 4.002c0 1.558 1.474 3.189 3.624 3.189s3.592-1.466 3.592-4.096h-.924v-.871h.866v-.966h-.853l-.013-.658h-.691v.658h.596v.967h-.838v1.275c-.068 1.305-.808 1.959-1.855 1.94M3.914 14.92a.1.1 0 0 0-.034.008l-1.457.795c-.07.037-.045.15.03.15h19.071c.078 0 .102-.114.032-.151l-1.44-.794a.1.1 0 0 0-.031-.008Zm5.217 1.588a.13.13 0 0 0-.102.047.17.17 0 0 0-.043.111v1.192c0 .087.064.158.145.158h5.25q.059 0 .104-.046a.17.17 0 0 0 .041-.112v-1.192a.17.17 0 0 0-.041-.111.14.14 0 0 0-.104-.047ZM22 16.151a.17.17 0 0 0-.042-.112.2.2 0 0 0-.047-.035.2.2 0 0 0-.056-.013H2.146a.14.14 0 0 0-.103.047.17.17 0 0 0-.043.113v2.184c0 .086.066.158.146.158h19.709a.2.2 0 0 0 .056-.012.2.2 0 0 0 .046-.035.17.17 0 0 0 .043-.112Zm-18.378.629a.17.17 0 0 0-.043-.113.14.14 0 0 0-.103-.047h-.948a.14.14 0 0 0-.102.047.17.17 0 0 0-.043.113v.952c0 .088.065.159.145.159h.948q.06-.001.103-.046a.17.17 0 0 0 .043-.113Zm11.999-.252a.06.06 0 0 0-.017-.042.05.05 0 0 0-.038-.017h-.109a.05.05 0 0 0-.039.016.06.06 0 0 0-.016.042.07.07 0 0 1-.016.043.05.05 0 0 1-.04.017h-.053a.1.1 0 0 0-.077.035.13.13 0 0 0-.033.083v.16c0 .088.066.159.146.159h.365a.14.14 0 0 0 .102-.046.17.17 0 0 0 .043-.113v-.159a.13.13 0 0 0-.032-.083.1.1 0 0 0-.077-.035h-.054a.05.05 0 0 1-.04-.018.07.07 0 0 1-.016-.042m.583 0c0-.033.025-.059.054-.059h.11c.03 0 .055.026.055.058 0 .033.025.061.055.061h.054c.061 0 .11.052.11.118v.159a.17.17 0 0 1-.044.113.14.14 0 0 1-.102.047h-.365a.14.14 0 0 1-.103-.047.17.17 0 0 1-.043-.113v-.159c0-.066.05-.118.11-.118h.055a.05.05 0 0 0 .038-.018.06.06 0 0 0 .017-.042m1.057 0a.1.1 0 0 0-.016-.043.05.05 0 0 0-.039-.016h-.108a.05.05 0 0 0-.04.016.06.06 0 0 0-.016.042q0 .013-.004.023a.06.06 0 0 1-.029.034l-.021.004h-.056a.1.1 0 0 0-.075.035.13.13 0 0 0-.033.083v.159c0 .088.065.159.146.159h.365a.14.14 0 0 0 .103-.046.17.17 0 0 0 .042-.113v-.159a.13.13 0 0 0-.032-.083.1.1 0 0 0-.077-.035h-.055a.05.05 0 0 1-.039-.018.06.06 0 0 1-.015-.042m.583 0c0-.033.025-.059.055-.059h.109c.03 0 .055.026.055.058 0 .033.025.061.055.061h.055c.06 0 .109.052.109.118v.159a.17.17 0 0 1-.042.113.14.14 0 0 1-.103.047h-.365a.14.14 0 0 1-.104-.047.17.17 0 0 1-.041-.113v-.159c0-.066.047-.118.108-.118h.055a.05.05 0 0 0 .038-.018.06.06 0 0 0 .016-.042m1.86.715-.004-.023a.06.06 0 0 0-.03-.033l-.021-.004h-.11a.05.05 0 0 0-.038.017.06.06 0 0 0-.017.041.07.07 0 0 1-.015.044.05.05 0 0 1-.04.017h-.054a.1.1 0 0 0-.076.035.13.13 0 0 0-.034.083v.161c0 .086.067.158.147.158h.364a.14.14 0 0 0 .103-.047.17.17 0 0 0 .043-.111v-.161a.13.13 0 0 0-.033-.084.1.1 0 0 0-.076-.035h-.054l-.022-.004a.06.06 0 0 1-.03-.033l-.004-.023Zm-1.86.516c0 .033.025.058.055.058h.109a.05.05 0 0 0 .039-.016.06.06 0 0 0 .016-.042c0-.033.025-.061.055-.061h.055a.1.1 0 0 0 .077-.034.13.13 0 0 0 .032-.083v-.161a.17.17 0 0 0-.042-.113.14.14 0 0 0-.103-.047h-.365a.14.14 0 0 0-.104.047.17.17 0 0 0-.041.113v.159c0 .066.047.118.108.118h.055c.03 0 .054.029.054.062m-.619 0a.1.1 0 0 1-.017.042.05.05 0 0 1-.038.016h-.11a.05.05 0 0 1-.039-.016.06.06 0 0 1-.015-.042.1.1 0 0 0-.015-.043.05.05 0 0 0-.04-.017h-.055a.1.1 0 0 1-.077-.035.13.13 0 0 1-.033-.083v-.161c0-.088.067-.159.146-.159h.365c.081 0 .146.071.146.159v.159a.13.13 0 0 1-.032.083.1.1 0 0 1-.076.035h-.056a.05.05 0 0 0-.039.018l-.011.02Zm-1.021 0c0 .033.025.058.054.058h.11a.05.05 0 0 0 .039-.016.06.06 0 0 0 .016-.042c0-.033.024-.061.054-.061h.054a.1.1 0 0 0 .078-.034.13.13 0 0 0 .032-.083v-.161a.17.17 0 0 0-.043-.113.14.14 0 0 0-.102-.047h-.365a.14.14 0 0 0-.103.047.17.17 0 0 0-.043.113v.159c0 .066.05.118.11.118h.055c.029 0 .054.029.054.062m-.584 0a.06.06 0 0 1-.016.042.05.05 0 0 1-.039.016h-.108a.05.05 0 0 1-.039-.016.06.06 0 0 1-.016-.042l-.004-.023-.012-.02a.05.05 0 0 0-.039-.017h-.055a.1.1 0 0 1-.077-.035.13.13 0 0 1-.032-.083v-.161c0-.088.066-.159.146-.159h.365c.081 0 .145.071.145.159v.159a.13.13 0 0 1-.032.083.1.1 0 0 1-.077.035h-.055l-.021.004a.06.06 0 0 0-.03.034Zm5.286-1.132a.17.17 0 0 0-.042-.112.14.14 0 0 0-.103-.046h-.438a.14.14 0 0 0-.103.046.17.17 0 0 0-.043.112v.158c0 .089.067.159.146.159h.438a.14.14 0 0 0 .103-.046.17.17 0 0 0 .043-.112Zm-.729.873c0-.088.067-.158.146-.158h.438c.08 0 .146.07.146.158v.159a.17.17 0 0 1-.042.112.14.14 0 0 1-.104.046h-.438a.14.14 0 0 1-.103-.046.17.17 0 0 1-.043-.112Zm-11.12.596a.2.2 0 0 1-.054-.012.2.2 0 0 1-.048-.034.17.17 0 0 1-.043-.113v-1.35c0-.088.067-.158.147-.158h5.395c.08 0 .146.07.146.158v1.35a.17.17 0 0 1-.042.112.14.14 0 0 1-.104.047Z" clip-rule="evenodd"/></svg>