<svg xmlns="http://www.w3.org/2000/svg" viewBox="0 0 24 24"><path fill="#44739e" d="M17.669 14.512a.6.6 0 0 0-.161 0H6.439c-.213 0-.213 0-.214.206v.53c0 .208 0 .208.209.208h11.337c0-.3 0-.576-.005-.85 0-.036-.058-.081-.097-.094m3.838-4.46a2.93 2.93 0 0 0-2.945-1.383 3.27 3.27 0 0 0-2.055 1.1 6.6 6.6 0 0 0-1.549 2.963c-.069.273-.112.553-.172.854.32 0 .594-.006.868 0 .122 0 .154-.045.173-.156a5.9 5.9 0 0 1 1.207-2.754 2.5 2.5 0 0 1 1.833-1.042 2.047 2.047 0 0 1 2.124 1.941c.014.2 0 .408 0 .628l.922.2a1 1 0 0 0 .031-.084 3.1 3.1 0 0 0-.437-2.267m-14.361.86a6.2 6.2 0 0 1 1.04 2.55c.008.046.055.121.085.122.3.01.607.006.921.006a1 1 0 0 0 0-.127 7.3 7.3 0 0 0-.408-1.573 5.9 5.9 0 0 0-1.68-2.483 3.08 3.08 0 0 0-2.462-.736 2.93 2.93 0 0 0-2.358 1.777 3.03 3.03 0 0 0-.208 1.957l.958-.207c-.013-.158-.036-.3-.034-.44a3 3 0 0 1 .044-.438 2.036 2.036 0 0 1 2.75-1.544 3.03 3.03 0 0 1 1.352 1.136m6.685 5.562c-.019-.079-.052-.1-.128-.1h-.899c.008.064.011.1.017.13a5.6 5.6 0 0 0 .752 1.916.175.175 0 0 1-.006.223 4.26 4.26 0 0 1-1.482 1.339.22.22 0 0 1-.183-.008 4.3 4.3 0 0 1-1.466-1.334.174.174 0 0 1 0-.223 5.4 5.4 0 0 0 .634-1.432q.08-.29.144-.6h-1.009a5.5 5.5 0 0 1-.937 1.988.22.22 0 0 0 0 .18 5 5 0 0 0 2.656 2.542.2.2 0 0 0 .151 0 5.04 5.04 0 0 0 2.669-2.552.17.17 0 0 0-.02-.2 4.9 4.9 0 0 1-.893-1.869m-4.566-5.732a13.4 13.4 0 0 1 .85 2.199c.053.212.092.427.136.638h.98c0-.062 0-.115-.01-.167a9 9 0 0 0-.68-2.255c-.288-.676-.589-1.347-.852-2.032a3.1 3.1 0 0 1-.179-1.747 3.6 3.6 0 0 1 1.309-2.07q.563-.462 1.128-.921a.4.4 0 0 1 .064-.037c.1.084.188.166.282.244.421.353.874.674 1.257 1.064a3.02 3.02 0 0 1 .842 3.194 17 17 0 0 1-.64 1.64 13 13 0 0 0-.873 2.399c-.049.226-.082.456-.124.7h.993c.011-.042.025-.079.031-.116a8.6 8.6 0 0 1 .672-2.091c.27-.63.556-1.254.794-1.9a4.1 4.1 0 0 0 .144-2.609 4.73 4.73 0 0 0-1.766-2.486 10 10 0 0 1-1.516-1.37 1 1 0 0 1-.085-.129c-.064.067-.1.1-.131.137-.412.384-.822.77-1.239 1.149a14 14 0 0 0-1.071.961 4.03 4.03 0 0 0-1.014 3.69 9.6 9.6 0 0 0 .698 1.915"/></svg>