<svg xmlns="http://www.w3.org/2000/svg" viewBox="0 0 24 24"><path fill="#44739e" d="M21.917 11.175 21.4 9.786a1.1 1.1 0 0 0-.928-.707L3.694 7.547a2.4 2.4 0 0 0-1.129.164l-.351.14-.069.028.147-.046a1.2 1.2 0 0 1 .31.005l17.49 1.719a.9.9 0 0 1 .389.13.93.93 0 0 1 .45.824v.041l-.063 4.249s-.009.638-.028 1.157l-.009.084a.9.9 0 0 1-.206.422l.175-.149 1.025-.987a.57.57 0 0 0 .175-.427Zm-1.217-.603a.854.854 0 0 0-.769-.859L2.456 8.046A.417.417 0 0 0 2 8.467l.088 5.186a.714.714 0 0 0 .627.7l17.267 2.081a.576.576 0 0 0 .645-.564ZM7.03 13.051v-.183l.091.008v.184h-.054Zm.047-.412H7.03v-.2l.091.008v.2Zm0-.433H7.03v-.183l.091.008v.184Zm0-.417H7.03v-.212l.091.009v.211Zm0-.444H7.03v-.183l.091.008v.184Zm0-.417H7.03v-.2l.091.009v.2Zm0-.434H7.03v-.183l.091.008v.182Zm0-.416H7.03v-.183l.091.008v.184Zm0-.624v.211h-.024a.8.8 0 0 0-.077-.218Zm-1.034-.479v-.062l.184.017v.125l-.184-.017Zm0 .383.184.017v.2a.4.4 0 0 0-.066-.028 1 1 0 0 0-.118-.03Zm-.424-.422v-.062l.191.017v.125l-.191-.015Zm0 .383.191.018v.149l-.134-.014a.4.4 0 0 0-.057 0ZM5.2 8.901v-.066l.184.017v.125L5.2 8.96Zm0 .382.184.017v.211l-.184-.02Zm-1.709-.544v-.062l.184.017v.125l-.184-.018Zm0 .383.184.017v.155a.3.3 0 0 0-.126.042l-.055-.005Zm-.85.038a1 1 0 0 1 .043-.113l.139.013a.7.7 0 0 0-.077.2l-.1-.01Zm0 .327.091.009v.183l-.091-.008Zm0 .417.091.008v.189l-.091-.008Zm0 .417.091.008v.2l-.091-.008Zm0 .433.091.009v.183l-.091-.008Zm0 .417.091.008v.211l-.091-.008Zm0 .444.091.009v.183l-.091-.006Zm0 .417.091.008v.2l-.091-.009Zm0 .433.091.009v.183l-.091-.008Zm0 .417.091.008v.192l-.094-.009Zm.069.677-.024-.043v-.143l.064.006a1 1 0 0 0 .106.193Zm.146-4.666-.066-.006q.031-.03.066-.057Zm.4 5.019a1 1 0 0 1-.2-.1v-.054l.189.017h.011Zm0-.424-.067-.049a.6.6 0 0 1-.09-.09l.157.015Zm0-.357-.2-.019v-.191l.2.018Zm0-.425-.2-.019v-.186l.2.019Zm0-.417-.2-.018v-.2l.2.019Zm0-.433-.2-.019v-.183l.2.018Zm0-.948v.087l-.2-.019v-.183l.2.018Zm0-.33-.2-.018v-.2l.2.019Zm0-.433-.2-.019v-.183l.2.018Zm0-.417-.2-.019v-.183l.2.019Zm0-.417-.2-.018v-.129a.5.5 0 0 1 .072-.076l.128.012Zm0-.562a.6.6 0 0 0-.2.076v-.146l.027-.011.173.016Zm.417 5.229-.184-.017v-.125l.184.017Zm0-.392-.184-.017v-.184l.184.017Zm.008-2.547-.2-.018v-.184h.008v-.005l.184.017v.005h.008Zm.436 2.98-.209-.018v-.125l.211.019Zm0-.392-.211-.02v-.183l.211.019Zm-.206-2.564v-.184l.2.019v.183Zm.206-1.739-.209-.023V9.16l.211.02Zm0-.561v.1l-.211-.02v-.128l.211.02Zm.417 5.3-.184-.017v-.125l.184.017Zm0-.393-.184-.016v-.184l.184.017Zm0-2.639v.094l-.2-.018v-.184h.008v-.005h.011l.184.017Zm0-1.6-.081-.008a.4.4 0 0 0-.1-.049h-.006v-.173l.184.017Zm0-.628v.1l-.182-.022v-.125l.184.017Zm.433 5.3-.2-.019v-.125l.2.019Zm0-.392-.2-.019v-.191l.2.018Zm0-.847H4.9a1 1 0 0 1-.133-.019v-.173l.2.019Zm0-.411-.2-.019v-.2l.2.018Zm0-.434-.2-.018v-.184l.2.019Zm0-.416-.2-.019v-.211l.2.019Zm0-.534v.087l-.2-.019v-.183l.2.018Zm0-.519v.183l-.2-.018v-.192l.2.018Zm0-.242-.2-.018v-.189l.2.019Zm0-.416-.2-.019v-.189l.2.019Zm0-.417-.2-.019V9.24l.075.007a.6.6 0 0 1 .111.14c0 .009.009.019.014.029Zm0-.628v.1l-.2-.019v-.133l.2.019Zm.417 5.3L5.2 14.12v-.125l.184.017Zm0-.393-.184-.027v-.183l.184.017Zm.008-2.549-.2-.018v-.184H5.2l.184.017v.005h.008Zm.416 2.981-.191-.018v-.125l.191.018Zm0-.392-.191-.018v-.184l.191.018Zm.009-2.644v.087l-.2-.018v-.184l.2.019Zm.408 3.075-.182-.024v-.126l.184.017Zm0-.393-.182-.031v-.183l.184.017Zm.017-2.551-.2-.018v-.184h.008v-.005l.184.017h.008Zm.416 2.918a.8.8 0 0 1-.2.036v-.134a1 1 0 0 0 .092-.014l.108.01Zm0-.463-.039.029a.6.6 0 0 1-.161.076v-.171l.2.019Zm0-.28-.2-.019v-.191l.2.018Zm0-.425-.2-.018v-.184l.2.019Zm0-.417-.2-.018v-.2l.2.018Zm0-.433-.2-.019v-.183l.2.019Zm0-1.045v.165l-.2-.018v-.182l.2.019Zm0-.425v.184l-.2-.019v-.192l.2.019Zm0-.241-.2-.019v-.183l.2.018Zm0-.417-.2-.018v-.194l.2.019Zm0-.417-.2-.018v-.217l.2.018Zm0-.514a.8.8 0 0 0-.2-.086V8.98l.2.019Zm.234.028a1 1 0 0 1 .065.07l-.063-.019Zm.183 4.8-.025.039-.15-.025a.7.7 0 0 0 .111-.174l.066.011Zm0-.459H7.03V13.3l.091.008v.192Zm1.428-.013-.389-.037v-.351l.389.037Zm0-.44-.389-.036v-.351l.389.036Zm0-.438-.389-.036v-.363l.389.036Zm0-.44-.389-.036v-.351l.391.028Zm0-.437-.389-.037v-.352l.389.036Zm0-.44-.389-.036v-.351l.389.036Zm0-.44-.387-.042v-.351l.389.036Zm.488 1.363-.39-.036v-.352l.39.037Zm.485.045-.387-.05v-.352l.389.037Zm.487.045-.389-.036v-.359l.389.036Zm.488 1.365-.391-.037v-.351l.391.036Zm0-.44-.391-.037v-.363l.391.037Zm0-.439-.391-.037v-.351l.391.036Zm0-.44-.391-.037v-.351l.391.036Zm0-.439-.391-.036v-.366l.391.037Zm0-.44-.391-.037v-.351l.391.036Zm0-.441-.391-.036v-.351l.391.035Zm.971 2.73-.389-.036v-.352l.389.036Zm0-.44-.389-.037v-.352l.389.037Zm0-.439-.389-.037v-.351l.389.036Zm0-.441-.389-.036v-.352l.389.036Zm0-.439-.389-.036v-.354l.389.036Zm0-.441-.389-.036v-.352l.389.036Zm0-.441-.389-.035v-.352l.389.036Zm.487 2.687-.389-.036v-.361l.389.036Zm0-2.642-.389-.036v-.352l.389.036Zm.486 2.688-.388-.043v-.352l.39.037Zm0-2.643-.39-.036v-.364l.39.036Zm.487 2.689-.389-.037v-.352l.389.036Zm0-2.644-.382-.045v-.352l.389.035Zm.488 2.689-.392-.036v-.353l.392.037Zm0-.441-.392-.037v-.352l.392.037Zm0-.44-.392-.036v-.352l.392.036Zm0-.441-.392-.036v-.353l.392.037Zm0-.44-.392-.036v-.354l.392.036Zm0-.441-.392-.036v-.352l.392.036Zm0-.441-.392-.036v-.364l.392.036Zm.97 2.736-.389-.037v-.352l.389.036Zm0-.442-.389-.036v-.353l.389.036Zm0-.44-.389-.036v-.353l.389.036Zm0-.442-.389-.036v-.366l.389.037Zm0-.44-.389-.036v-.354l.389.036Zm0-.441-.389-.036v-.353l.389.036Zm0-.442-.389-.036v-.353l.389.036Zm.488.487-.389-.036v-.353l.389.036Zm.485.927-.389-.037v-.352l.389.036Zm0-.44-.389-.037v-.354l.389.036Zm.488-.4-.389-.036v-.353l.389.036Zm.489 2.247-.391-.037v-.353l.391.037Zm0-.443-.391-.036v-.353l.391.036Zm0-.44-.391-.037v-.353l.391.037Zm0-.443-.391-.036v-.353l.391.036Zm0-.44-.39-.034v-.355l.391.036Zm0-.443-.391-.036v-.355l.391.036Zm0-.442-.391-.036v-.353l.391.036Zm.971 2.742-.389-.036v-.355l.389.037Zm0-.443-.389-.036v-.353l.389.036Zm0-.44-.389-.037v-.353l.389.036Zm0-.443-.389-.037v-.353l.389.036Zm0-.441-.389-.036v-.358l.389.036Zm0-.443-.389-.036v-.355l.389.036Zm0-.443-.389-.036v-.353l.389.036Zm.488 2.7-.389-.038v-.353l.389.036Zm0-1.327-.389-.036v-.354l.389.036Zm0-1.327-.389-.036v-.353l.389.035Zm.485 2.7-.389-.037v-.357l.389.037Zm0-1.328-.389-.036v-.354l.389.036Zm0-1.327-.389-.036v-.354l.389.036Zm.488 2.7-.39-.036v-.354l.39.037Zm0-1.328-.39-.036v-.353l.39.036Zm0-1.327-.39-.036v-.354l.39.036Zm.487 2.7-.391-.036v-.354l.391.036Zm0-2.657-.391-.036v-.354l.391.036Z"/></svg>