<svg xmlns="http://www.w3.org/2000/svg" viewBox="0 0 24 24"><path fill="#44739e" d="M2.922 9.68c.341-.021.586-.036.799-.036a3 3 0 0 1 .358.018 3.7 3.7 0 0 1 .668.14q.245.073.496.127l-.253-.101a3.64 3.64 0 0 1-1.374-1.03c-.362.203-1.128.625-1.616.891q.091.01.192.018a4 4 0 0 0 .553-.01Zm16.073 2.84v-.015a2.6 2.6 0 0 1-.233-1.087l-.233-.082a8 8 0 0 0-.801-.221 20 20 0 0 0-2.008-.377 16 16 0 0 0-1.381-.124h-.07c-.236-.01-.563-.023-1.086-.05a76 76 0 0 1-1.033-.055l-.872-.048-.685-.038c-.319-.018-.513-.029-.847-.042l-.336-.014h-.543c-.248 0-.438 0-.833-.026a11 11 0 0 1-.56-.032l-.285-.022a14 14 0 0 1 1.402.353c.968.303 2.258.857 4.827 1.963l.041.017c.127.054 1.255.526 3.17 1.126a7 7 0 0 0 1.989.316 2.7 2.7 0 0 0 1.176-.112 1.9 1.9 0 0 1-.487-.606 3.6 3.6 0 0 1-.312-.824m-8.099 7.107a1.52 1.52 0 0 0 1.129.292 1.6 1.6 0 0 0 .423-.149 6 6 0 0 1-.78-.392 2.3 2.3 0 0 1-.772.249m4.724-1.623-.337-.108h-.046a4.2 4.2 0 0 1-1.157-.246h-.014a20 20 0 0 1-1.326-.415l-.086-.026-.049-.013c-.148.037-.366.069-.69.119l-.031.005c-.477.07-1.13.167-1.927.337-.116.025-.214.048-.303.066.291.202.72.485 1.241.828a6.8 6.8 0 0 0 2.26 1.153 1.82 1.82 0 0 0 2.08-.707 2.3 2.3 0 0 0 .468-.964l-.03-.009Zm2.536-2.391a1.6 1.6 0 0 1 .118.434 3 3 0 0 1-.022.764 2.2 2.2 0 0 0 .678.144c.272 0 .35-.018.367-.043 0-.016 0-.131-.282-.471a5 5 0 0 0-.859-.828m-.328-.027a.5.5 0 0 1-.066-.196 2 2 0 0 0-.229-.303 3.54 3.54 0 0 0-1.617-.652 16 16 0 0 0-1.498-.188h-.022c-3.233-.122-3.987-.127-3.992-.127-.55 0-1.029.008-1.424.014h-.247a12 12 0 0 1-1.666-.123 5.5 5.5 0 0 1-1.09-.232 5.6 5.6 0 0 1-1.01-.389 4 4 0 0 1-.251-.14 3.3 3.3 0 0 1-1.314-1.189 3.6 3.6 0 0 1-.353.473l-.007.011a8 8 0 0 0-.552.721l-.025.038h.017c.045 0 .101-.006.154-.006h.019a1.5 1.5 0 0 1 .333.044l.091.019a3 3 0 0 0 .46.051 6 6 0 0 1 .729.087l1.329.241.229.041c.303.054.325.057.424.081a18 18 0 0 1 2.978.996 7 7 0 0 1 1.112.544 6 6 0 0 1 .794.576 2.2 2.2 0 0 0 .738.459l.148.052c.176.062.441.157.795.303l.186.079.046.022.115.05a7 7 0 0 0 .831.27c.208.06.511.144.967.282.388.118.633.202.801.249a1.2 1.2 0 0 0 .411.101h.018a2.5 2.5 0 0 0 1.774-1.01l.007-.041a2.7 2.7 0 0 0 .025-.708 1.3 1.3 0 0 0-.168-.5m1.317.565a5 5 0 0 1-.135-.404 5 5 0 0 1-.143-.707.5.5 0 0 1-.148-.179.9.9 0 0 1-.077-.512.4.4 0 0 0-.066-.007h-.117a2.4 2.4 0 0 1-1.01-.058 13.6 13.6 0 0 1-2.516-.765 30 30 0 0 0-.48-.207 22 22 0 0 1-1.112-.43l-.207-.089a226 226 0 0 0-2.584-1.101A22 22 0 0 0 8.608 11a20 20 0 0 0-.724-.212 12 12 0 0 0-.69-.169c-.185-.041-.437-.101-.845-.194l-.087-.015-.118-.02a14 14 0 0 1-1.27-.25c-.055-.006-.101-.01-.188-.027-.151-.026-.275-.059-.377-.084a.8.8 0 0 0-.505-.037.6.6 0 0 0-.177.093.7.7 0 0 0-.229.328 2.02 2.02 0 0 0 .229 1.477 4.04 4.04 0 0 0 2.409 1.617c.833.269 1.404.313 4.361.339.006 0 .835.009 4.003.127.101 0 2.586.108 3.414 1.01l.026.029c.039.044.115.129.218.235a3.6 3.6 0 0 1 1.087.904m-2.972 1.983a1 1 0 0 1-.189-.02 1.6 1.6 0 0 1-.096.329l.439.304.313.267v-.941a1.8 1.8 0 0 1-.454.058Zm2.758-3.772a.6.6 0 0 0 .042.367.3.3 0 0 0 .046.065 2.4 2.4 0 0 0 .303-.309q.077-.089.151-.171a3 3 0 0 1-.529.048Zm2.805-4.69a2.4 2.4 0 0 0-.607-.544 4 4 0 0 0-.808-.404l-.078-.031-.053-.021a1 1 0 0 1-.202-.068 16 16 0 0 0-.459-.17l-.385-.123-.505-.158-.755-.228h-.012l-.101-.031-.642-.186q.244.129.485.267c.135.079.175.101.368.234l.015.011c.193.128.538.357 1.259.827a7 7 0 0 1 .344.246l.011.009a4 4 0 0 0 .433.303 2 2 0 0 1 .462.366.8.8 0 0 1 .222.354.6.6 0 0 1-.009.314v.03a1.2 1.2 0 0 0 .483-.074l.027-.007c.27-.074.727-.202.77-.427.011-.126-.092-.262-.263-.489m-1.129 2.789a1.2 1.2 0 0 1-.247-.163l-.011-.005a7 7 0 0 0-.238-.175l-.273-.136a22 22 0 0 1-.542-.286l-.038-.02a5 5 0 0 0-.23-.122 7 7 0 0 0 .233.871 3.7 3.7 0 0 0 .286.77 1.3 1.3 0 0 0 .606.635.67.67 0 0 0 .492.038.64.64 0 0 0 .367-.505.87.87 0 0 0-.125-.513 1.5 1.5 0 0 0-.28-.389m-1.202-1.987q.098.11.229.279l.106.134.157.202a1.1 1.1 0 0 0 .315-.312 1.7 1.7 0 0 0 .221-.405h-.211a2 2 0 0 0-.359.042l-.101.017c-.006-.008-.12.01-.357.043m-2.546-4.327c-.155-.045-.303-.088-.464-.129l-.43-.113c-1.047-.275-1.541-.404-1.706-.456a12 12 0 0 0-1.274-.303l-.145-.026-.222-.042c.254.065.565.148.998.263l.026.007c.422.112.626.168.855.231.181.049.379.101.713.194 1.163.313 2.027.53 2.612.624l-.05-.013c-.303-.061-.606-.147-.899-.229Zm-6.708-1.701.134.035a.6.6 0 0 1 .109.036c.278.015.579.041.919.079l-.031-.53-.627.094-.682.276q.094.014.17.028Zm4.227.112.354.026-.399-.202-.573-.094.599.247Zm-.012.36c.347.053.492.075.492.233a.15.15 0 0 1-.054.119c.375.134 1.169.341 1.664.469q.235.063.469.13c.277.077.589.166.893.228l.162.031.095.019a2.7 2.7 0 0 1 1.059.348 2.7 2.7 0 0 1 .59.44.35.35 0 0 0 .168.147.33.33 0 0 0 .172 0c.249-.044.35-.068.404-.145a.32.32 0 0 0 .05-.238c-.014-.153-.124-.385-.861-.803a5.8 5.8 0 0 0-1.479-.643A10.5 10.5 0 0 0 16.446 5a30 30 0 0 0-1.361-.101l-1.139-.082-.277-.019h.018c.26.06.502.097.679.12m-4.707 0a7 7 0 0 0 .999.01l-.049-.01a4 4 0 0 1-.663 0H9.91l-.383-.01a.5.5 0 0 1 .132.01m.227-.752-.816.133-.125.051c.158 0 .303 0 .445.015Zm-.249 1.031h-.05q.086.032.174.057a3.6 3.6 0 0 0 .817.124l.142.013q.174.015.349.033l.101.01.424.042a10 10 0 0 1 1.807.359 12 12 0 0 1 1.266.404l.024.009c.348.126.824.303 1.7.578.427.137.745.234.993.31a6 6 0 0 1 .988.353 3 3 0 0 0 .404.153 4 4 0 0 1 .397.145l.029.012c.125.058.234.101.303.073s.101-.134.118-.179a.66.66 0 0 0-.114-.575 2.7 2.7 0 0 0-.444-.334l-.122-.038a5 5 0 0 0-.531-.02h-.045a16 16 0 0 1-3.233-.684l-.435-.114a58 58 0 0 1-1.123-.303h-.016l-.134-.035a86 86 0 0 0-1.375-.357l-.209-.049a7 7 0 0 0-.859.005 9 9 0 0 1-1.346.008m3.009-.582c.028-.157.067-.17.878-.114l-.606-.244-.617-.091-.033.559q.271.044.514.091c-.135-.078-.145-.141-.136-.201m-1.903 14.172c-.707-.47-1.186-.784-1.451-.974l-.069.018a2 2 0 0 1-.412.084 5 5 0 0 1-.632.036 4.8 4.8 0 0 1-2.373-.606 8.4 8.4 0 0 0 1.111 1.38 2.8 2.8 0 0 0 1.081.822 3.33 3.33 0 0 0 1.717-.007 10 10 0 0 0 1.669-.335 42 42 0 0 1-.641-.418m-4.799-1.693a4.6 4.6 0 0 0 2.829.537 2 2 0 0 0 .369-.074c.154-.043.351-.101.75-.181.784-.169 1.441-.266 1.92-.339h.025c.202-.028.385-.055.531-.083a4 4 0 0 1-.375-.138q-.127-.056-.239-.112a2.4 2.4 0 0 1-.808-.505l-.063-.051-.039-.033a13 13 0 0 0-1.749-1.002 17.6 17.6 0 0 0-2.908-.972l-.229-.047-.184-.033c-.202-.035-.537-.101-1.105-.202l-.126-.016a1.5 1.5 0 0 1-.329-.064 5 5 0 0 0-.379-.056.8.8 0 0 0 .016.286 4.75 4.75 0 0 0 2.081 3.079Zm-1.648-.759-.011.069c-.026.164-.033.238-.011.266.047.057.262.037.489.008l.188-.024a5 5 0 0 1-.592-.707c-.02.116-.043.249-.063.388M5.898 5.982h.172a4.3 4.3 0 0 0 1.074-.148l.041-.007.166-.038a9 9 0 0 1 1.559-.095c.16 0 .349-.007.557-.007a13 13 0 0 1 1.549.084 13 13 0 0 1 2.316.505c.523.149.887.277 1.212.39a15 15 0 0 0 1.42.435l.084.021c.169.042.452.113.829.216s.707.202 1.084.313l.211.063-.733-.245-.123-.041q-.536-.18-1.071-.356a62 62 0 0 1-.735-.242v-.054l-.016.048a84 84 0 0 0-1.171-.38 24 24 0 0 0-1.185-.357h-.013a11 11 0 0 0-1.284-.291 8 8 0 0 0-.271-.037l-.309-.031-.112-.011-.444-.042-.202-.017a6 6 0 0 1-.248-.026 3 3 0 0 1-.558-.101l-.034-.01a2 2 0 0 1-.257-.091 1.04 1.04 0 0 1-.474-.294c-.213-.152-.284-.202-.267-.316s.101-.155.268-.18a14 14 0 0 0-1.587.107c-1.505.181-1.735.364-1.831.522a.6.6 0 0 0-.079.579c.061.08.193.122.462.134m.495 13.074.27-.186a9 9 0 0 1-.27-.291ZM5.108 9.565a6.5 6.5 0 0 0 2.384.454c.37.029.578.033.894.038h.031c.284 0 .672.009 1.335.038.334.013.531.024.851.042l.686.038c.927.051 1.603.084 2.122.111l.181.009c1.058.049 1.454.069 2.158.162a20 20 0 0 1 2.035.383 8 8 0 0 1 .828.228 6.7 6.7 0 0 1 1.471.691c-.051-.062-.083-.101-.115-.137l.03-.042-.038.032-.172-.202a11 11 0 0 1-.235-.295l-.144-.183c-.202-.257-.303-.374-.411-.41q-.2.02-.471.043a1 1 0 0 1-.13.013q-.112.01-.239.01a6.3 6.3 0 0 1-2.068-.492 20 20 0 0 1-.515-.192l-.216-.085a26 26 0 0 1-1.995-.877l-.112-.054-.031-.015a58 58 0 0 1-1.247-.606l-.017-.015-.283-.128a10 10 0 0 0-1.385-.568 10 10 0 0 0-.561-.094l-.066-.005a18 18 0 0 1-.852-.089 10 10 0 0 1-1.042-.154h-.013a4.3 4.3 0 0 1-.697-.156q-.091-.031-.192-.068l-.228-.081-.071-.023-.213-.069-.184-.056-.138-.041a9 9 0 0 0-.411-.101 14 14 0 0 1-1.806.623l-.202.064-.092.046c-.005.092-.015.263-.015.381a1.8 1.8 0 0 0 .131.548 2.65 2.65 0 0 0 1.47 1.284m.521-3.239c.229.051.479.12.485.122.232.063.395.118.538.164l.101.034a10 10 0 0 0 1.073.293 10 10 0 0 0 1.004.147c.138.014.245.024.346.032a10 10 0 0 1 1.176.166 5.4 5.4 0 0 1 1.485.592l.246.127c.009 0 .202.101 1.292.625l.017.008c.56.269 1.26.606 2.071.914a7.2 7.2 0 0 0 2.913.742 24 24 0 0 0 1.336-.146l.101-.017a2.3 2.3 0 0 1 .404-.045 2 2 0 0 0-.196-.16l-.101-.067h-.006l-.013-.012a4 4 0 0 1-.34-.227 14 14 0 0 1-.429-.31l-.033-.025c-.687-.447-1.032-.676-1.23-.808l-.041-.027a5 5 0 0 0-.346-.22A19 19 0 0 0 17 7.967l-.235-.125a15 15 0 0 0-.675-.311 1.4 1.4 0 0 1-.328-.169l-.113-.047a15 15 0 0 1-1.195-.377 40 40 0 0 0-.607-.208l-.584-.178c-.404-.115-.808-.234-1.276-.333a14 14 0 0 0-.861-.146l-.144-.019a15 15 0 0 0-2.053-.074 24 24 0 0 0-1.515.091l-.125.029-.056.013a5 5 0 0 1-.885.152 2 2 0 0 1-.439.006h-.023A.98.98 0 0 1 5.28 6.1l-.707.252a5 5 0 0 1 .665-.058 2 2 0 0 1 .391.032"/></svg>