<svg xmlns="http://www.w3.org/2000/svg" viewBox="0 0 24 24"><path fill="#44739e" d="M18.441 13.32s-.1-6.248-.1-6.387a1.17 1.17 0 0 0-.249-.691 5 5 0 0 0-.598-.489L13.81 3.081c-.675-.491-1.297-.933-1.386-.982A.75.75 0 0 0 12 2.004a.7.7 0 0 0-.488.129c-.117.071-1.188.837-2.379 1.704L6.554 5.712c-.729.529-.855.685-.889 1.116-.02.245-.008 6.487-.008 6.499s-1.05 3.236-1.329 4.091c.017.027-1.208 3.703-1.21 3.907a.72.72 0 0 0 .285.562l.155.113h16.871l.146-.1a.78.78 0 0 0 .307-.558c0-.14-2.441-8.022-2.441-8.022m-2.984-5.76c-.153-.377-.213-.767-.13-.853a.5.5 0 0 1 .442.034 5 5 0 0 1 .223.537 1.97 1.97 0 0 1 .009 1.609 2.6 2.6 0 0 0-.165.606 2.6 2.6 0 0 0 .165.605 1.9 1.9 0 0 1 .036 1.477 4 4 0 0 0-.169.482.8.8 0 0 1-.1.244c-.07.089-.408.1-.458.011a1.26 1.26 0 0 1 .135-.86 2.6 2.6 0 0 0 .17-.566 2.7 2.7 0 0 0-.176-.577 1.92 1.92 0 0 1 0-1.643 2 2 0 0 0 .176-.549 2.3 2.3 0 0 0-.158-.557m-1.431.016c-.253-.613-.262-.646-.215-.778.036-.099.091-.129.231-.129.267 0 .345.092.499.591a2.57 2.57 0 0 1 .025 1.606 2.18 2.18 0 0 0 .026 1.358 2.4 2.4 0 0 1-.012 1.373 2.5 2.5 0 0 0-.139.446c-.042.238-.159.331-.416.331-.128 0-.182-.034-.22-.138-.061-.168-.031-.299.172-.735a1.33 1.33 0 0 0-.036-1.309 1.32 1.32 0 0 1-.018-1.342 1.46 1.46 0 0 0 .103-1.274m-1.544-.227a1.9 1.9 0 0 1-.138-.598c.025-.071.095-.088.293-.075l.259.018.128.374c.366 1.074.354 1.004.225 1.397-.063.2-.15.427-.191.512a1.77 1.77 0 0 0 .086 1.247 1.14 1.14 0 0 1 .035 1.212 4.4 4.4 0 0 0-.2.628c0 .17-.172.299-.399.299-.3 0-.317-.106-.11-.724a1.87 1.87 0 0 0-.021-1.584c-.217-.59-.216-.592.036-1.255a1.77 1.77 0 0 0-.003-1.451m-1.661-.639a.5.5 0 0 1 .445.034 5 5 0 0 1 .23.532 1.93 1.93 0 0 1 .005 1.61 1.24 1.24 0 0 0 0 1.214 1.5 1.5 0 0 1 .145.846 3.7 3.7 0 0 1-.405 1.374.37.37 0 0 1-.246.044c-.174-.018-.187-.034-.2-.25a1.6 1.6 0 0 1 .151-.656 1.12 1.12 0 0 0 0-1.139 1.66 1.66 0 0 1-.164-.829 1.7 1.7 0 0 1 .164-.833 1.12 1.12 0 0 0 0-1.132c-.153-.403-.204-.734-.125-.815m-1.355.739c-.16-.37-.207-.659-.127-.739a.62.62 0 0 1 .498.034 3.3 3.3 0 0 1 .2.519 2.57 2.57 0 0 1 .033 1.597 1.97 1.97 0 0 0 0 1.283 2.6 2.6 0 0 1-.038 1.621 4 4 0 0 1-.2.54.49.49 0 0 1-.446.037c-.137-.056-.099-.378.084-.805a1.53 1.53 0 0 0-.052-1.423 1.27 1.27 0 0 1 .019-1.293 1.42 1.42 0 0 0 .029-1.374Zm-.125 7.132c.239-.069.4-.116.937-.282.158-.049.518-.167.808-.255l.473-.145.245-.068c.2-.06.207-.06.566.065.15.052 2.388.759 2.477.775s.162.043.162.061a2.2 2.2 0 0 1-.613.228c-.066.019-.607.199-1.197.393a12 12 0 0 1-1.209.359c-.1 0-2.87-.867-3.07-.961-.058-.028-.014-.046.421-.173ZM7.976 7.349a2 2 0 0 1-.138-.598c.026-.071.099-.088.299-.075l.261.018.129.374c.377 1.106.372.998.093 1.757a1.5 1.5 0 0 0-.12.79 1.6 1.6 0 0 0 .11.519 2.6 2.6 0 0 1 .177.46l.099.326-.169.451a7 7 0 0 0-.231.699c-.066.262-.173.329-.476.293-.141-.017-.157-.04-.151-.221a2.4 2.4 0 0 1 .15-.58 1.7 1.7 0 0 0-.018-1.409 1.5 1.5 0 0 1 0-1.334 1.76 1.76 0 0 0-.015-1.47m-2.7 8.483c.024-.025.916-.255 1.632-.492l.663-.216a1.64 1.64 0 0 1 1.18-.079c.118.046.254.094.299.106.165.042 2.395.784 2.407.799s-1.618.507-2.373.761c-.619.208-.657.211-1.021.09l-.339-.112-.391-.129-1.797-.578s-.288-.103-.26-.155ZM17.282 19.8c-.013.227-.122.332-.512.492a1.55 1.55 0 0 1-.746.111 2 2 0 0 1-.872-.137 8 8 0 0 0-.552-.175 13 13 0 0 1-1.198-.378 1 1 0 0 0-.199-.061 1.5 1.5 0 0 1-.267-.085 9 9 0 0 0-.425-.153 31 31 0 0 1-1.413-.499 11 11 0 0 0-.51-.173 5 5 0 0 1-.325-.111 2 2 0 0 0-.613-.038c-.414.015-.494.03-.623.119-.082.056-.143.109-.136.118a11 11 0 0 0 1.05.354c.121.031.344.1.493.154s.357.124.46.157c.255.083.399.132 1.106.374.15.052.364.125.477.162s.288.1.391.149.326.133.499.199c.369.147.552.287.583.448.053.277-.147.47-.674.653a1.77 1.77 0 0 1-1.081.051 8 8 0 0 0-.343-.107 62 62 0 0 1-1.617-.54 16 16 0 0 0-.527-.176 12 12 0 0 1-.46-.155c-.188-.067-.399-.136-.459-.154s-.288-.093-.494-.168c-.34-.124-.624-.22-1.328-.447-.293-.095-.38-.154-.41-.279a.17.17 0 0 1 .047-.171c.079-.083.184-.064.772.136.926.317 1.238.422 1.634.554.243.081.565.191.715.244s.325.111.391.13.272.089.46.154.585.2.884.294.631.205.735.241a1.74 1.74 0 0 0 1.036-.033.8.8 0 0 0 .255-.129c0-.049-.27-.174-.475-.222a5 5 0 0 1-.359-.105l-.375-.129a15 15 0 0 1-.898-.316.8.8 0 0 0-.211-.064.8.8 0 0 1-.205-.06c-.08-.033-.275-.1-.435-.158a18 18 0 0 1-1.843-.714.41.41 0 0 1-.2-.411c0-.234.1-.319.593-.512a2.5 2.5 0 0 1 1.242-.029c.294.1.513.161.718.207.1.024.263.072.357.105.214.076.654.228.911.313.487.161.635.211.843.287.326.12.506.181.714.243.1.031.272.09.374.131s.448.165.767.275a2.3 2.3 0 0 0 1.038.199c.393 0 .483-.01.616-.088.2-.114.232-.179.108-.213-.248-.069-7.484-2.438-7.484-2.457 0 0-.1-.039-.136-.057-.052-.026-.028-.092.092-.127 0 0 .234-.074.337-.1.162-.045.757-.243 1.996-.66a.84.84 0 0 1 .715-.039c.112.039.257.087.323.106s.456.147.868.287.84.28.953.313.299.1.408.145l.188.067-.154.047c.014.013-.939.278-.939.278a35 35 0 0 1-1.05.327c-.136.107-.111.143.134.199.085.018.299.082.477.143s.407.136.511.168.309.099.459.154.326.113.391.132.273.088.46.154.493.168.681.229a4.1 4.1 0 0 1 1.208.531.31.31 0 0 1 .078.291Zm1.31-3.81c-.135.03-.444.122-.758.228-.1.034-.317.1-.477.15l-.987.31a7 7 0 0 1-.798.224 10 10 0 0 1-1.24-.377c-.1-.036-.34-.114-.528-.174s-.49-.159-.672-.219a6 6 0 0 0-.486-.141c-.087-.017-.15-.037-.142-.046s.264-.1.572-.2.642-.207.745-.243.399-.136.664-.223.576-.2.698-.244a1.1 1.1 0 0 1 .818.018c.1.04.631.214 1.174.386l1.257.399a2 2 0 0 1 .282.1c.002.018-.05.038-.122.052"/></svg>