<?xml version="1.0" encoding="UTF-8"?>
<svg width="24px" fill="#44739e" height="24px" viewBox="0 0 24 24" version="1.1" xmlns="http://www.w3.org/2000/svg" xmlns:xlink="http://www.w3.org/1999/xlink">
            <path d="m 18.454,13.324 c 0,0 -0.1,-6.261 -0.1,-6.4 a 1.17,1.17 0 0 0 -0.249,-0.693 5.012,5.012 0 0 0 -0.6,-0.49 C 16.923,5.32 15.416,4.227 13.814,3.064 13.137,2.572 12.514,2.129 12.425,2.08 A 0.745,0.745 0 0 0 12,1.985 0.7,0.7 0 0 0 11.511,2.114 C 11.394,2.185 10.321,2.953 9.127,3.821 L 6.543,5.7 C 5.812,6.23 5.686,6.387 5.652,6.819 c -0.02,0.245 -0.008,6.5 -0.008,6.512 0,0.012 -1.052,3.243 -1.332,4.1 0.017,0.027 -1.21,3.71 -1.212,3.915 a 0.723,0.723 0 0 0 0.285,0.563 l 0.156,0.113 h 16.905 l 0.147,-0.1 A 0.777,0.777 0 0 0 20.9,21.363 c 0,-0.141 -2.446,-8.039 -2.446,-8.039 z M 15.464,7.552 C 15.311,7.174 15.251,6.784 15.334,6.697 A 0.492,0.492 0 0 1 15.777,6.731 4.651,4.651 0 0 1 16,7.27 a 1.97,1.97 0 0 1 0.009,1.612 2.622,2.622 0 0 0 -0.165,0.607 2.63,2.63 0 0 0 0.165,0.606 1.9,1.9 0 0 1 0.036,1.48 4,4 0 0 0 -0.169,0.483 0.787,0.787 0 0 1 -0.1,0.245 c -0.07,0.089 -0.409,0.1 -0.459,0.011 a 1.258,1.258 0 0 1 0.135,-0.862 2.64,2.64 0 0 0 0.17,-0.567 2.663,2.663 0 0 0 -0.176,-0.578 1.922,1.922 0 0 1 0,-1.647 2.055,2.055 0 0 0 0.176,-0.55 2.276,2.276 0 0 0 -0.158,-0.558 z M 14.03,7.568 C 13.777,6.954 13.768,6.921 13.815,6.789 c 0.036,-0.1 0.091,-0.13 0.231,-0.13 0.268,0 0.346,0.092 0.5,0.593 a 2.572,2.572 0 0 1 0.025,1.609 2.177,2.177 0 0 0 0.026,1.361 2.43,2.43 0 0 1 -0.012,1.375 2.51,2.51 0 0 0 -0.139,0.447 c -0.042,0.239 -0.159,0.332 -0.417,0.332 -0.128,0 -0.182,-0.034 -0.22,-0.138 -0.061,-0.169 -0.031,-0.3 0.172,-0.737 A 1.325,1.325 0 0 0 13.945,10.19 1.319,1.319 0 0 1 13.927,8.845 1.463,1.463 0 0 0 14.03,7.568 Z M 12.483,7.341 a 1.907,1.907 0 0 1 -0.138,-0.6 C 12.37,6.67 12.44,6.653 12.638,6.666 l 0.26,0.018 0.128,0.375 c 0.367,1.076 0.355,1.006 0.226,1.4 -0.064,0.2 -0.151,0.428 -0.192,0.513 a 1.774,1.774 0 0 0 0.086,1.25 1.143,1.143 0 0 1 0.035,1.214 4.395,4.395 0 0 0 -0.2,0.629 c 0,0.171 -0.172,0.3 -0.4,0.3 -0.3,0 -0.317,-0.106 -0.11,-0.725 A 1.866,1.866 0 0 0 12.45,10.052 C 12.232,9.461 12.233,9.459 12.486,8.795 A 1.77,1.77 0 0 0 12.483,7.341 Z M 10.819,6.7 a 0.5,0.5 0 0 1 0.445,0.034 4.593,4.593 0 0 1 0.231,0.534 1.926,1.926 0 0 1 0.005,1.613 1.242,1.242 0 0 0 0,1.216 1.494,1.494 0 0 1 0.145,0.848 3.693,3.693 0 0 1 -0.406,1.377 0.374,0.374 0 0 1 -0.246,0.044 c -0.174,-0.018 -0.187,-0.034 -0.2,-0.25 a 1.631,1.631 0 0 1 0.151,-0.658 1.123,1.123 0 0 0 0,-1.141 1.664,1.664 0 0 1 -0.165,-0.831 1.687,1.687 0 0 1 0.165,-0.835 1.117,1.117 0 0 0 0,-1.134 C 10.791,7.113 10.739,6.782 10.819,6.7 Z M 9.461,7.441 C 9.3,7.07 9.253,6.781 9.333,6.7 a 0.618,0.618 0 0 1 0.5,0.034 3.258,3.258 0 0 1 0.2,0.521 2.566,2.566 0 0 1 0.033,1.6 1.965,1.965 0 0 0 0,1.285 2.609,2.609 0 0 1 -0.038,1.625 4.039,4.039 0 0 1 -0.2,0.541 0.491,0.491 0 0 1 -0.447,0.037 C 9.243,12.287 9.281,11.964 9.465,11.536 A 1.53,1.53 0 0 0 9.413,10.11 1.271,1.271 0 0 1 9.432,8.815 1.423,1.423 0 0 0 9.461,7.438 Z m -0.125,7.147 c 0.239,-0.069 0.4,-0.117 0.938,-0.283 0.159,-0.049 0.52,-0.167 0.81,-0.255 0.29,-0.088 0.474,-0.146 0.474,-0.146 l 0.246,-0.068 c 0.2,-0.06 0.207,-0.06 0.567,0.065 0.15,0.052 2.393,0.761 2.482,0.777 0.089,0.016 0.162,0.043 0.162,0.061 a 2.163,2.163 0 0 1 -0.614,0.228 c -0.066,0.019 -0.608,0.2 -1.2,0.394 a 12.192,12.192 0 0 1 -1.211,0.36 c -0.1,0 -2.876,-0.869 -3.076,-0.963 C 8.856,14.73 8.9,14.712 9.336,14.585 Z M 7.968,7.341 A 1.953,1.953 0 0 1 7.829,6.741 C 7.855,6.67 7.929,6.653 8.129,6.666 L 8.391,6.684 8.52,7.059 c 0.378,1.108 0.373,1 0.093,1.761 a 1.488,1.488 0 0 0 -0.12,0.791 1.611,1.611 0 0 0 0.11,0.52 2.621,2.621 0 0 1 0.177,0.461 l 0.1,0.327 -0.17,0.452 c -0.094,0.249 -0.2,0.562 -0.231,0.7 -0.066,0.263 -0.174,0.33 -0.477,0.294 C 7.86,12.348 7.844,12.325 7.85,12.144 A 2.375,2.375 0 0 1 8.001,11.562 1.7,1.7 0 0 0 7.983,10.15 1.5,1.5 0 0 1 7.983,8.814 1.76,1.76 0 0 0 7.968,7.341 Z m -2.706,8.5 C 5.286,15.816 6.18,15.586 6.897,15.348 l 0.665,-0.216 a 1.636,1.636 0 0 1 1.182,-0.079 c 0.119,0.046 0.255,0.094 0.3,0.106 0.165,0.042 2.4,0.785 2.412,0.8 0.012,0.015 -1.621,0.509 -2.378,0.763 -0.62,0.208 -0.658,0.211 -1.023,0.09 L 7.715,16.7 7.323,16.571 5.523,15.992 c 0,0 -0.289,-0.104 -0.261,-0.156 z m 12.031,3.976 C 17.28,20.045 17.171,20.15 16.78,20.31 a 1.547,1.547 0 0 1 -0.748,0.112 2,2 0 0 1 -0.873,-0.138 c -0.22,-0.077 -0.469,-0.155 -0.554,-0.175 -0.26,-0.061 -0.883,-0.258 -1.2,-0.379 a 1,1 0 0 0 -0.2,-0.061 1.476,1.476 0 0 1 -0.267,-0.085 c -0.122,-0.048 -0.314,-0.117 -0.426,-0.153 -0.422,-0.137 -0.8,-0.27 -1.416,-0.5 -0.178,-0.065 -0.408,-0.144 -0.511,-0.174 -0.103,-0.03 -0.25,-0.081 -0.326,-0.111 A 1.946,1.946 0 0 0 9.645,18.608 C 9.23,18.623 9.15,18.638 9.021,18.727 8.939,18.783 8.878,18.836 8.885,18.845 A 10.988,10.988 0 0 0 9.937,19.2 c 0.121,0.031 0.344,0.1 0.494,0.154 0.15,0.054 0.357,0.125 0.461,0.158 0.255,0.083 0.4,0.132 1.108,0.375 0.15,0.052 0.365,0.125 0.478,0.162 0.113,0.037 0.289,0.1 0.392,0.149 0.103,0.049 0.326,0.134 0.5,0.2 0.37,0.147 0.553,0.287 0.584,0.449 0.053,0.277 -0.147,0.471 -0.675,0.654 a 1.773,1.773 0 0 1 -1.084,0.051 c -0.1,-0.035 -0.259,-0.083 -0.343,-0.107 -0.191,-0.056 -1.074,-0.35 -1.621,-0.541 C 10.006,20.825 9.768,20.746 9.703,20.727 9.638,20.708 9.43,20.639 9.242,20.572 9.054,20.505 8.842,20.436 8.782,20.418 8.722,20.4 8.494,20.324 8.287,20.249 7.947,20.125 7.662,20.029 6.957,19.801 6.663,19.706 6.576,19.647 6.546,19.522 A 0.165,0.165 0 0 1 6.593,19.35 c 0.079,-0.083 0.184,-0.064 0.773,0.137 0.928,0.317 1.241,0.423 1.638,0.555 0.243,0.081 0.566,0.191 0.716,0.244 0.15,0.053 0.326,0.112 0.392,0.131 0.066,0.019 0.273,0.089 0.461,0.154 0.188,0.065 0.586,0.2 0.886,0.295 0.3,0.095 0.632,0.205 0.736,0.241 a 1.736,1.736 0 0 0 1.039,-0.033 0.785,0.785 0 0 0 0.255,-0.129 c 0,-0.049 -0.27,-0.175 -0.476,-0.223 -0.1,-0.024 -0.266,-0.072 -0.36,-0.105 l -0.375,-0.129 c -0.472,-0.156 -0.76,-0.257 -0.9,-0.317 a 0.81,0.81 0 0 0 -0.212,-0.064 0.82,0.82 0 0 1 -0.205,-0.06 c -0.08,-0.033 -0.276,-0.1 -0.436,-0.158 a 17.929,17.929 0 0 1 -1.847,-0.716 0.412,0.412 0 0 1 -0.2,-0.412 c 0,-0.234 0.1,-0.319 0.594,-0.513 a 2.488,2.488 0 0 1 1.245,-0.029 c 0.294,0.1 0.514,0.161 0.719,0.208 0.1,0.024 0.264,0.072 0.358,0.105 0.214,0.076 0.655,0.228 0.913,0.313 0.488,0.162 0.636,0.212 0.844,0.288 0.327,0.12 0.507,0.181 0.716,0.244 0.1,0.031 0.272,0.09 0.375,0.131 0.103,0.041 0.449,0.165 0.768,0.275 a 2.3,2.3 0 0 0 1.04,0.2 c 0.394,0 0.484,-0.01 0.618,-0.088 0.2,-0.115 0.232,-0.18 0.108,-0.214 -0.249,-0.069 -7.5,-2.443 -7.5,-2.462 0,0 -0.1,-0.039 -0.136,-0.057 -0.052,-0.026 -0.028,-0.092 0.092,-0.127 0,0 0.235,-0.074 0.338,-0.1 0.162,-0.046 0.759,-0.244 2,-0.662 a 0.836,0.836 0 0 1 0.717,-0.039 c 0.112,0.039 0.257,0.087 0.323,0.106 0.066,0.019 0.457,0.148 0.87,0.288 0.413,0.14 0.842,0.28 0.955,0.314 0.113,0.034 0.3,0.1 0.409,0.145 l 0.188,0.067 -0.154,0.047 c 0.014,0.013 -0.941,0.279 -0.941,0.279 -0.333,0.115 -1.052,0.327 -1.052,0.327 -0.136,0.108 -0.111,0.144 0.134,0.2 0.085,0.018 0.3,0.082 0.478,0.143 0.178,0.061 0.408,0.136 0.512,0.168 0.104,0.032 0.31,0.1 0.46,0.155 0.15,0.055 0.327,0.113 0.392,0.132 0.065,0.019 0.273,0.088 0.461,0.154 0.188,0.066 0.494,0.169 0.682,0.23 a 4.082,4.082 0 0 1 1.211,0.532 0.309,0.309 0 0 1 0.078,0.291 z M 18.606,16 c -0.136,0.03 -0.445,0.122 -0.76,0.228 -0.1,0.034 -0.318,0.1 -0.478,0.15 -0.16,0.05 -0.6,0.188 -0.989,0.311 a 6.565,6.565 0 0 1 -0.8,0.224 9.642,9.642 0 0 1 -1.242,-0.377 c -0.1,-0.036 -0.341,-0.115 -0.529,-0.175 -0.188,-0.06 -0.491,-0.159 -0.674,-0.219 -0.183,-0.06 -0.4,-0.124 -0.487,-0.141 -0.087,-0.017 -0.15,-0.038 -0.142,-0.047 0.008,-0.009 0.265,-0.1 0.573,-0.2 0.308,-0.1 0.644,-0.207 0.747,-0.243 0.103,-0.036 0.4,-0.137 0.665,-0.224 0.265,-0.087 0.577,-0.2 0.7,-0.244 a 1.107,1.107 0 0 1 0.819,0.018 c 0.1,0.04 0.633,0.214 1.177,0.386 l 1.259,0.4 a 2.011,2.011 0 0 1 0.283,0.1 c 0.002,0.018 -0.05,0.039 -0.122,0.053 z"/>

</svg>
