<svg xmlns="http://www.w3.org/2000/svg" viewBox="0 0 24 24"><path fill="#44739e" d="M13.638 6.926a2 2 0 0 0-.29.02 3.63 3.63 0 0 0-2.126.665l.218.451a3 3 0 0 1 1.684-.562 1.55 1.55 0 0 1 1.76 1.3 1.5 1.5 0 0 1 .014.325c-.013 1.225-1 2.229-3.095 4.076l-.816.735v.413H15.9V13.8h-3.669v-.22l.054-.068.652-.56C14.556 11.509 15.7 10.379 15.7 9a2.07 2.07 0 0 0-2.062-2.074m-.426 10.16-.107-.068-5.011-3.172-1.081.605 5.285 3.216ZM6.258 7.198l.987-.572L4.289 5.34l-.117 3.067 1.071-.621 2.307 2.969L2 14.491l.873 1.032 6.596-4.462Zm5.834 11.235-5.258-3.311-3.125 1.543 5.08 3.588Zm-2.704-5.871 1.584.985.292-.264-1.917-1.173Zm2.858-.162.255-.235L10.5 10.94l.036.4ZM7.354 6.7l.024.014 1.05 1.142v.014l.023.014 1.071 1.16v.015l.023.014 1.454 1.582-.393.22 1.991 1.207q.372-.351.672-.657L11.513 10.4l.091-.061.011-.007 1.746 1q.163-.17.3-.33l-3.162-1.875V9.11l-.03-.01.375-.243 1.083-.727a4 4 0 0 0-.448.281l-.145.113-.183-.373-.632.427-1.12-.65V7.91l-.057-.034.114-.083 4.858-3.259.021-.46-4.913 3.317-2.167-1.345.1.644Zm4.008 6.5.24-.215c.2-.176.364-.331.538-.485l-1.634-1.035-1.037.579Zm2.856-9.186L12.199 3 7.381 5.992 9.43 7.227ZM13.126 7.8a2.3 2.3 0 0 0-.554.072L10.724 9.1l3.038 1.79a2.8 2.8 0 0 0 .838-1.763c0-.606-.257-1.327-1.474-1.327m3.513 4.968-1.9-1.128c-.094.1-.2.207-.3.312l2.138 1.227.132.071-.14.093h-.007l-.358.244v1.062h-.741l-.954.614-1-.614h-.76l1.692 1.051.134.079-.024.018-.052.033-.073.053h-.005l-.977.628-5.301-3.246.043.491 5.065 3.151.134.079.106.065v.028l-1.177.757-4.907-3-.521-.319.047.516 5.331 3.3.094.057h.008l-.146.083-3.431 1.959-5.213-3.7v.541L8.789 21l3.788-2.232.615-.363.57-.334 1.938-2.366.008-.006 1-1.223 2.253-2.753 3.011-2.134.028-.525Zm-8.375.435 5.165 3.144.856-.545-1.815-1.149h-1.785v-.847l.183-.166-1.586-1.005Zm6.414.298-1.132-.693-.266.24.727.453Zm-1.543-.321-.375.321h.966l-.556-.352Zm2.062 1.473h-1.44l.736.447Zm.929-1.153.339-.215-.029-.014-2.093-1.221q-.326.327-.7.669l1.282.781Zm-2.752-6.847a3.7 3.7 0 0 1 .661.063L15.548 5.7l-.034-.018.021-.487Zm-2.847 1.754.567-.38-.247-.5.1-.08a3.87 3.87 0 0 1 2.181-.782l2.287-1.536-1.015-.507-4.811 3.245Zm3.703-1.642A2.26 2.26 0 0 1 16 9a3.83 3.83 0 0 1-1.166 2.526l1.811 1.07L21.871 9l.129.064-6.29-3.283Z"/></svg>