<?xml version="1.0" encoding="UTF-8"?>
<svg width="24px" fill="#44739e" height="24px" viewBox="0 0 24 24" version="1.1" xmlns="http://www.w3.org/2000/svg" xmlns:xlink="http://www.w3.org/1999/xlink">
            <path d="m 15.732,14.949 v -8.12 h -0.967 l -2.029,0.917 0.174,0.578 1.639,-0.733 h 0.15 l 0.031,0.15 v 7.208 z M 14.22,4.014 12.2,3 7.384,5.992 9.432,7.227 Z M 13.213,17.086 13.107,17.018 8.1,13.846 7.019,14.451 12.3,17.667 Z M 10.53,8.407 15.413,5.129 14.4,4.622 9.591,7.867 Z M 6.261,7.2 7.248,6.628 4.292,5.34 4.174,8.407 5.246,7.786 7.553,10.755 2,14.491 l 0.872,1.032 6.6,-4.462 z m 8.026,8.6 -5,-3.167 -1.02,0.567 5.164,3.144 z m -2.194,2.631 -5.257,-3.309 -3.124,1.543 5.079,3.588 z m -0.578,-8.031 0.092,-0.061 0.01,-0.007 2.812,1.614 V 11.457 L 10.5,9.127 V 9.11 L 10.471,9.1 10.846,8.857 12.435,7.791 12.373,7.585 13.467,7.098 15.549,5.698 15.515,5.68 15.536,5.193 10.522,8.574 9.406,7.924 V 7.91 L 9.35,7.876 9.464,7.793 14.32,4.534 14.341,4.074 9.425,7.391 7.257,6.046 7.357,6.69 v 0 0 0.013 l 0.024,0.014 1.05,1.142 v 0.014 l 0.023,0.014 1.071,1.157 v 0.015 l 0.023,0.014 1.455,1.582 -0.394,0.22 3.82,2.325 v -1.1 z m 2.914,0.884 V 7.961 L 12.721,8.74 12.478,7.931 10.727,9.1 Z m 1.6,-4.754 v 5.7 L 16.645,12.594 21.872,9 22,9.064 15.712,5.781 l -1.424,0.946 0.444,-0.2 z m -5.525,4.934 -1.037,0.579 4.958,3.018 v -1.116 z m 6.133,1.305 -0.608,-0.36 v 0.459 l 0.544,0.312 0.132,0.071 -0.14,0.093 h -0.006 l -0.53,0.361 v 1.545 h -1.5 L 14.503,15.267 14.475,15.25 H 14.423 V 15.218 L 9.35,12.11 l 0.041,0.452 5.051,3.144 0.135,0.079 -0.025,0.018 v 0 l -0.052,0.033 -0.073,0.053 h -0.005 l -0.977,0.628 -5.3,-3.246 0.044,0.491 5.063,3.151 0.135,0.079 v 0 l 0.106,0.065 v 0.028 l -1.177,0.757 -4.907,-3 -0.52,-0.319 0.046,0.516 5.331,3.3 v 0 l 0.093,0.057 v 0 h 0.008 l -0.145,0.083 v 0 l -3.431,1.953 -5.213,-3.7 v 0.541 L 8.791,21 l 3.787,-2.232 0.616,-0.363 0.57,-0.334 1.936,-2.366 0.009,-0.006 v 0 l 1,-1.223 v 0 L 18.961,11.723 21.973,9.589 22,9.064 Z M 10.5,10.94 l 0.036,0.4 3.9,2.426 v -0.414 z m 5.942,2.332 -0.4,-0.236 v 0.522 l 0.427,-0.272 z M 9.35,12.11 v 0 m 5.159,3.158 0.026,-0.017 h -0.054 z"/>

</svg>