<svg xmlns="http://www.w3.org/2000/svg" width="23.4" height="32.078" viewBox="0 0 240 329">
    <style>path{fill:#000}@media (prefers-color-scheme:dark){path{fill:#fff}}</style>
  <path id="Colore_riempimento_1" data-name="Colore riempimento 1" class="cls-1" d="M157,98h48c2.22,0.716,4.211,2.388,7,3,1.591,4.333,1,12.089,1,18v34c2.768,2.509,2,6.885,2,12q-0.5,13-1,26-0.5,54.5-1,109c-4.587,1.67-12.814,1-19,1H25c-1.68-4.579-1-12.82-1-19V245c-1.7-1.947-1-7.457-1-11V205l-1-50c4.327-12.448,1.93-36.886,2-53l3-1c3.057-3.458,9.44-3,16-3H80V26c6.079-2.224,17.193-1,25-1h51c2.133,5.827,1,16.465,1,24V98ZM83,28V98h28V92a19.139,19.139,0,0,1,7,2V49l-7,1V36l7,1V28H83Zm37,0V39l-8-1V48c3.355-.375,5.634-1.973,7-1,1.917,2.169,1,9.123,1,13V96c-3.537-.286-4.884-1.349-8-2v4h42V28H120ZM91,57h18V71H91V57Zm37,0h18V71c-3.809,1.422-10.65,1.048-16,1-1.139-1.139,0-.4-2-1V57ZM93,58V69h14V58H93Zm37,0V70h14c1.079-2.874,1.044-7.691,1-12H130ZM27,150H210V104l-3-1c-2.556-2.513-7.908-2-13-2H79c-16.953,0-37.146-.748-51,2-1.413,3.845-1,10.623-1,16v31Zm-2,7,1,44c0,8.915-1.02,20.78,1,28v69H210q1-70.492,2-141H25Zm92,19h3c1.094,2.078,1.611,1.771,2,5a15.682,15.682,0,0,1-6,1C114.509,177.864,115.317,179.225,117,176Zm0,21h3c1.094,2.078,1.611,1.771,2,5a15.682,15.682,0,0,1-6,1C114.509,198.864,115.317,200.225,117,197Zm13,61-9,2v1h-6c-2.215-.693-4.219-2.389-7-3l-4-5h-1v-2h-1c-1.9-3.537-1.994-7.615-2-13l5-8c2.44-2.5,6.837-3.515,9-6,1.655,0.245,2,1,2,1h9v1l4,1v1l5,4v2l2,1v4c1.808,1.935,1.092,7.857,0,10h-1v2h-1v2l-4,3v2Z"/>
</svg>
