<svg xmlns="http://www.w3.org/2000/svg" viewBox="0 0 24 24"><path fill="#44739e" d="M12.818 5.418a4 4 0 0 0 1.152-.072V4.337h-1.299v1.009c.147.043.065-.01.147.072m0-1.009h1.081a2.8 2.8 0 0 1-.072.865h-1.009Zm-2.81.937h1.299V4.337h-1.299Zm.144-.937h1.008v.797h-1.008Zm8.73 3.034a.177.177 0 0 0-.177-.177h-3.942V3.76a6.3 6.3 0 0 0-.072-1.729h-3.675a6.6 6.6 0 0 0-1.799.072v5.163H5.294a.176.176 0 0 0-.176.177v3.57h13.764Zm-7.433-.177H9.431V2.247h2.522v.649l-.5-.072v1.008l.5-.072v3.245a1.4 1.4 0 0 0-.5-.144Zm3.099 0h-3.027v-.261a3.6 3.6 0 0 0 .576.144V4.55c0-.279.066-.781-.072-.937-.1-.07-.263.045-.5.072v-.717l.576.072v-.793h2.45Zm-9.43 4.349v10.208a.177.177 0 0 0 .176.177h13.411a.177.177 0 0 0 .177-.177V11.615ZM12 12.965a.452.452 0 1 1-.451.451.45.45 0 0 1 .451-.451m0 1.692a.451.451 0 1 1-.451.45.45.45 0 0 1 .451-.45m0 5.144a1.334 1.334 0 1 1 1.333-1.334A1.333 1.333 0 0 1 12 19.801"/></svg>