<svg xmlns="http://www.w3.org/2000/svg" viewBox="0 0 24 24"><path fill="#44739e" d="M5.226 2h-.66v20h.66l.053-.039V2.039Zm2.436 18.189a10.7 10.7 0 0 0 4.38-6.529A1.666 1.666 0 0 1 10.907 12a1.666 1.666 0 0 1 1.135-1.66 10.7 10.7 0 0 0-4.38-6.529L5.623 2.3v19.41Zm6.827-6.529A1.666 1.666 0 0 1 13.355 12a1.666 1.666 0 0 1 1.134-1.66 10.7 10.7 0 0 0-4.378-6.529L7.673 2h-.66v.881l.864.642a12.6 12.6 0 0 1 3.082 3.229 9.9 9.9 0 0 1 1.468 3.7l.032.186-.188.023A1.27 1.27 0 0 0 11.266 12a1.27 1.27 0 0 0 1.005 1.339l.189.023-.032.186a9.9 9.9 0 0 1-1.468 3.7 12.6 12.6 0 0 1-3.082 3.229l-.864.642V22h.661l2.436-1.811a10.7 10.7 0 0 0 4.378-6.529m2.496 0A1.666 1.666 0 0 1 15.851 12a1.666 1.666 0 0 1 1.134-1.66 10.7 10.7 0 0 0-4.379-6.529L10.169 2h-.66v.917l.815.606a12.6 12.6 0 0 1 3.082 3.229 9.9 9.9 0 0 1 1.468 3.7l.032.186-.188.023a1.27 1.27 0 0 0-1 1.339 1.27 1.27 0 0 0 1 1.339l.188.023-.032.186a9.9 9.9 0 0 1-1.468 3.7 12.6 12.6 0 0 1-3.082 3.229l-.815.606V22h.66l2.437-1.811a10.7 10.7 0 0 0 4.379-6.529M18.299 12a1.666 1.666 0 0 1 1.134-1.66 10.7 10.7 0 0 0-4.379-6.529L12.616 2h-.66v.881l.864.642a12.6 12.6 0 0 1 3.079 3.229 9.9 9.9 0 0 1 1.468 3.7l.032.186-.187.023a1.27 1.27 0 0 0-1 1.339 1.27 1.27 0 0 0 1 1.339l.187.023-.032.186a9.9 9.9 0 0 1-1.468 3.7 12.6 12.6 0 0 1-3.082 3.229l-.864.642V22h.66l2.437-1.811a10.7 10.7 0 0 0 4.379-6.529 1.666 1.666 0 0 1-1.13-1.66"/></svg>