<?xml version="1.0" encoding="UTF-8"?>
<svg width="24px" fill="#44739e" height="24px" viewBox="0 0 24 24" version="1.1" xmlns="http://www.w3.org/2000/svg" xmlns:xlink="http://www.w3.org/1999/xlink">
            <path d="m 5.227,2 h -0.66 v 20 h 0.66 L 5.28,21.961 V 2.039 Z M 7.663,20.189 A 10.7,10.7 0 0 0 12.043,13.66 1.666,1.666 0 0 1 10.908,12 1.666,1.666 0 0 1 12.043,10.34 10.7,10.7 0 0 0 7.663,3.811 L 5.624,2.3 V 21.71 Z M 14.49,13.66 A 1.666,1.666 0 0 1 13.356,12 1.666,1.666 0 0 1 14.49,10.34 10.7,10.7 0 0 0 10.111,3.811 L 7.674,2 h -0.66 v 0.881 l 0.864,0.642 a 12.546,12.546 0 0 1 3.082,3.229 9.87,9.87 0 0 1 1.468,3.7 l 0.032,0.186 -0.188,0.023 A 1.27,1.27 0 0 0 11.267,12 a 1.27,1.27 0 0 0 1.005,1.339 l 0.188,0.023 -0.032,0.186 a 9.87,9.87 0 0 1 -1.468,3.7 12.546,12.546 0 0 1 -3.082,3.229 L 7.014,21.119 V 22 h 0.66 l 2.437,-1.811 A 10.7,10.7 0 0 0 14.49,13.66 Z m 2.496,0 A 1.666,1.666 0 0 1 15.852,12 1.666,1.666 0 0 1 16.986,10.34 10.7,10.7 0 0 0 12.607,3.811 L 10.17,2 H 9.51 v 0.917 l 0.815,0.606 a 12.546,12.546 0 0 1 3.082,3.229 9.853,9.853 0 0 1 1.468,3.7 l 0.032,0.186 -0.188,0.023 a 1.27,1.27 0 0 0 -1,1.339 1.27,1.27 0 0 0 1,1.339 l 0.188,0.023 -0.032,0.186 a 9.853,9.853 0 0 1 -1.468,3.7 12.546,12.546 0 0 1 -3.082,3.229 L 9.51,21.083 V 22 h 0.66 l 2.437,-1.811 A 10.7,10.7 0 0 0 16.986,13.66 Z M 18.3,12 A 1.666,1.666 0 0 1 19.434,10.34 10.7,10.7 0 0 0 15.055,3.811 L 12.617,2 h -0.66 v 0.881 l 0.864,0.642 a 12.546,12.546 0 0 1 3.079,3.229 9.87,9.87 0 0 1 1.468,3.7 l 0.032,0.186 -0.188,0.023 a 1.27,1.27 0 0 0 -1,1.339 1.27,1.27 0 0 0 1,1.339 l 0.188,0.023 -0.032,0.186 a 9.87,9.87 0 0 1 -1.468,3.7 12.546,12.546 0 0 1 -3.082,3.229 l -0.864,0.642 V 22 h 0.66 l 2.437,-1.811 A 10.7,10.7 0 0 0 19.43,13.66 1.666,1.666 0 0 1 18.3,12 Z"/>

</svg>