<svg xmlns="http://www.w3.org/2000/svg" viewBox="0 0 24 24"><path fill="#44739e" d="M12.78 9.42h.457v2.189h-.457Zm6.757.108a.36.36 0 0 0-.253-.108h-.204v2.189h.457Zm-1.858-.108h.458v2.189h-.458Zm4.312 5.647-.331-6.254a.85.85 0 0 0-.752-.879H3.116a.85.85 0 0 0-.752.875l-.354 6.25a.88.88 0 0 0 .755 1.007h18.472a.88.88 0 0 0 .754-.999m-1.588-.521a.7.7 0 0 1-.608.761H4.313a.7.7 0 0 1-.608-.761V9.299a.7.7 0 0 1 .608-.76h15.48a.7.7 0 0 1 .608.76ZM16.98 9.42h.457v2.189h-.457Zm1.399 0h.458v2.189h-.458Zm-2.8 0h.458v2.189h-.458Zm.7 0h.458v2.189h-.458Zm-2.1 0h.458v2.189h-.458Zm-.7 0h.458v2.189h-.458Zm1.401 0h.457v2.189h-.457Zm-2.8 2.593h.457v2.409h-.457Zm-.7 0h.458v2.409h-.458Zm-.7 0h.457v2.409h-.457Zm2.1 0h.457v2.409h-.457Zm-2.8 0h.457v2.409H9.98Zm-1.4 0h.458v2.409H8.58Zm.7 0h.458v2.409H9.28Zm4.199 0h.458v2.409h-.458Zm5.601 2.409h.204a.36.36 0 0 0 .253-.109v-2.298h-.457Zm-1.401-2.409h.458v2.409h-.458Zm.7 0h.458v2.409h-.458Zm-10.499 0h.457v2.409H7.88Zm8.399 0h.458v2.409h-.458Zm-1.399 0h.457v2.409h-.457Zm-.701 0h.458v2.409h-.458Zm2.801 0h.457v2.409h-.457Zm-1.401 0h.458v2.409h-.458ZM4.838 9.42h-.017a.47.47 0 0 0-.411.513v1.676h.428Zm3.742 0h.458v2.189H8.58Zm-.7 0h.457v2.189H7.88Zm-.7 0h.458v2.189H7.18Zm-.7 0h.458v2.189H6.48Zm4.9 0h.458v2.189h-.458Zm-4.2 2.593h.458v2.409H7.18Zm2.8-2.593h.457v2.189H9.98Zm.7 0h.457v2.189h-.457Zm-1.4 0h.458v2.189H9.28Zm-3.5 2.593h.457v2.409H5.78Zm-.7 0h.458v2.409H5.08Zm1.4 0h.458v2.409H6.48Zm-2.072 1.895a.47.47 0 0 0 .411.514h.019v-2.409h-.43ZM5.78 9.42h.457v2.189H5.78Zm-.7 0h.458v2.189H5.08Zm7 0h.457v2.189h-.457Z"/></svg>