<?xml version="1.0" encoding="UTF-8"?>
<svg width="24px" fill="#44739e" height="24px" viewBox="0 0 24 24" version="1.1" xmlns="http://www.w3.org/2000/svg" xmlns:xlink="http://www.w3.org/1999/xlink">
            <path d="m 13.311,12.89 c -0.054,-0.028 -0.082,-0.014 -0.1,0.04 -0.151,0.479 -0.123,0.683 0.027,0.793 0.232,0.136 0.792,-0.055 1.052,-0.56 0.273,-0.533 0.232,-1.066 0,-1.2 -0.273,-0.178 -0.656,0.041 -0.82,0.45 0,0.028 0,0.055 0.027,0.069 0.069,0.041 0.3,0.177 0.151,0.369 -0.105,0.134 -0.296,0.049 -0.337,0.039 z m 3.565,3.537 a 0.166,0.166 0 0 0 0.164,-0.164 0.151,0.151 0 0 0 -0.15,-0.177 l -2.623,0.013 a 0.786,0.786 0 0 1 0.014,0.315 z M 7.11,16.072 a 0.164,0.164 0 1 0 0,0.328 l 2.6,-0.014 a 1.146,1.146 0 0 1 0.014,-0.3 z m 3.374,-3.579 c 0.027,-0.013 0.027,-0.041 0.027,-0.068 -0.164,-0.41 -0.546,-0.628 -0.819,-0.451 -0.233,0.137 -0.274,0.67 0,1.2 0.259,0.506 0.833,0.7 1.051,0.56 0.151,-0.109 0.178,-0.314 0.028,-0.792 -0.014,-0.054 -0.041,-0.068 -0.1,-0.041 -0.027,0.014 -0.232,0.082 -0.328,-0.041 -0.143,-0.203 0.073,-0.339 0.141,-0.367 z M 8.38,7.808 C 8.749,8.437 9.05,8.901 9.241,8.792 9.432,8.683 8.749,7.959 8.107,6.292 7.465,4.625 7.247,3.315 7.561,3.274 7.875,3.233 8.353,4.6 8.9,5.964 A 23.424,23.424 0 0 1 9.829,8.956 0.17,0.17 0 0 1 9.775,9.133 3.137,3.137 0 0 0 8.518,11.168 c -0.137,1.121 0.56,2.869 0.328,4.221 L 6.81,15.28 a 0.164,0.164 0 0 0 -0.164,0.15 0.154,0.154 0 0 0 0.15,0.164 l 2.937,0.15 c 0.191,-0.451 0.628,-0.382 0.628,-0.765 A 0.543,0.543 0 0 0 10.156,14.57 3.991,3.991 0 0 1 8.94,12.343 c -0.054,-0.642 0.11,-1.489 0.629,-1.6 0.983,-0.205 1.967,2.049 1.967,3.469 0,0.574 0.027,0.765 -0.205,1.093 a 1.053,1.053 0 0 0 -0.246,0.615 c 0.027,0.287 0.3,0.369 0.437,0.5 0.41,0.4 -0.014,1.052 -0.765,1.052 A 1,1 0 0 1 9.719,16.748 L 7.411,16.871 C 7.329,16.885 7.247,16.953 7.26,17.035 a 0.155,0.155 0 0 0 0.164,0.15 L 9.3,17.069 a 4.355,4.355 0 0 0 2.677,1.789 4.324,4.324 0 0 0 2.677,-1.789 l 1.871,0.123 a 0.164,0.164 0 0 0 0.164,-0.15 0.175,0.175 0 0 0 -0.15,-0.164 L 14.23,16.755 a 0.976,0.976 0 0 1 -1.024,0.724 c -0.751,0 -1.175,-0.656 -0.765,-1.052 0.137,-0.136 0.41,-0.218 0.437,-0.5 a 0.92,0.92 0 0 0 -0.246,-0.615 1.626,1.626 0 0 1 -0.205,-1.093 c 0,-1.42 0.984,-3.674 1.967,-3.469 0.519,0.1 0.67,0.956 0.629,1.6 a 4,4 0 0 1 -1.23,2.227 c -0.095,0.122 -0.205,0.2 -0.205,0.409 0,0.383 0.451,0.314 0.629,0.765 l 2.936,-0.15 a 0.165,0.165 0 0 0 0.151,-0.164 0.191,0.191 0 0 0 -0.178,-0.164 l -2.035,0.109 c -0.232,-1.352 0.464,-3.1 0.328,-4.22 A 3.138,3.138 0 0 0 14.158,9.12 0.172,0.172 0 0 1 14.103,8.942 23.71,23.71 0 0 1 15.032,5.951 c 0.547,-1.366 1.025,-2.718 1.339,-2.691 0.314,0.027 0.1,1.352 -0.547,3.019 -0.647,1.667 -1.311,2.4 -1.133,2.5 0.178,0.1 0.492,-0.355 0.86,-0.983 a 11.644,11.644 0 0 0 1.093,-2.623 c 0.4,-1.284 0.533,-3.1 0,-3.169 -0.492,-0.082 -1.407,1.339 -2.5,3.4 a 21.957,21.957 0 0 0 -1.42,3.21 0.109,0.109 0 0 1 -0.137,0.1 A 3.117,3.117 0 0 0 11.945,8.659 3.219,3.219 0 0 0 11.303,8.714 0.116,0.116 0 0 1 11.167,8.614 21.345,21.345 0 0 0 9.733,5.4 C 8.64,3.356 7.725,1.921 7.233,2 6.741,2.079 6.892,3.885 7.288,5.183 A 11.9,11.9 0 0 0 8.38,7.808 Z M 12,17.534 A 1.7,1.7 0 0 0 12.779,18.025 1.086,1.086 0 0 1 12,18.353 1.11,1.11 0 0 1 11.221,18.025 1.856,1.856 0 0 0 12,17.534 Z M 12,4.558 A 3.776,3.776 0 0 1 13.9,5.09 C 14.118,4.667 14.323,4.298 14.514,3.97 A 5,5 0 0 0 12,3.274 5.052,5.052 0 0 0 9.473,3.974 c 0.191,0.328 0.4,0.7 0.628,1.12 A 3.738,3.738 0 0 1 12,4.558 Z m 4.794,1.488 a 11.7,11.7 0 0 1 -0.587,1.407 11.547,11.547 0 0 1 1.735,5.928 8.242,8.242 0 0 1 -1.735,5.177 A 5.433,5.433 0 0 1 12,20.716 5.433,5.433 0 0 1 7.793,18.558 8.268,8.268 0 0 1 6.058,13.381 11.562,11.562 0 0 1 7.807,7.453 10.644,10.644 0 0 1 7.219,6.046 a 12.655,12.655 0 0 0 -2.458,7.335 9.469,9.469 0 0 0 2.035,6 A 6.676,6.676 0 0 0 12,22 a 6.657,6.657 0 0 0 5.2,-2.623 9.551,9.551 0 0 0 2.035,-6 12.931,12.931 0 0 0 -2.441,-7.331 z"/>

</svg>