<?xml version="1.0" encoding="UTF-8"?>
<svg width="24px" fill="#44739e" height="24px" viewBox="0 0 24 24" version="1.1" xmlns="http://www.w3.org/2000/svg" xmlns:xlink="http://www.w3.org/1999/xlink">
            <path d="M 6.461,19.066 6.182,19.834 H 6.741 Z M 17.12,7.23 A 2.074,2.074 0 0 0 16.571,6.471 2.013,2.013 0 0 1 15.713,8.647 l -0.03,-0.12 A 1.852,1.852 0 0 0 16.351,7.289 2.175,2.175 0 0 0 14.6,4.8 2.521,2.521 0 0 1 15.3,7.894 l -0.119,-0.1 C 15.59,5.509 14.163,3.932 11.867,4.281 a 3.257,3.257 0 0 1 2.555,3.3 L 14.263,7.561 A 3.122,3.122 0 0 0 13.078,5.3 2.861,2.861 0 0 0 9.116,5.28 c 1.1,-0.209 3.423,0.02 4.211,2.066 0.4,1.038 -0.05,2.076 -1.4,2.805 A 2.892,2.892 0 0 1 11.348,8.424 0.5,0.5 0 0 1 12.117,8.115 c 0.02,-0.21 0,-0.28 -0.339,-0.4 l 0.069,-0.09 c 0.4,0.149 0.629,0.259 0.689,0.5 0.339,-0.579 0.279,-0.958 -0.409,-1.1 -0.01,-0.2 -0.04,-0.27 -0.24,-0.309 -0.129,-0.02 -0.429,-0.06 -0.648,-0.07 a 0.07,0.07 0 0 1 -0.05,-0.04 2.652,2.652 0 0 1 -0.09,-0.519 4.432,4.432 0 0 0 -0.779,0.948 1.011,1.011 0 0 0 -0.758,0.549 1.123,1.123 0 0 1 0.5,-0.07 0.388,0.388 0 0 0 -0.06,0.11 1.509,1.509 0 0 0 -1.018,0.8 1.631,1.631 0 0 1 0.719,-0.2 1.034,1.034 0 0 0 -0.05,0.119 2.247,2.247 0 0 0 -1.026,1.032 1.763,1.763 0 0 1 0.639,-0.159 c -0.11,0.329 -0.23,0.539 -0.529,0.539 -0.37,0 -1.008,0.049 -1.577,0.01 A 0.547,0.547 0 0 1 6.691,9.475 4.281,4.281 0 0 1 6.85,8.737 9.359,9.359 0 0 1 7.2,7.808 17.015,17.015 0 0 1 9.166,7.708 C 9.355,7.358 9.944,6.4 10.184,6.021 A 9.407,9.407 0 0 0 7.709,6.181 6.376,6.376 0 0 0 6.411,8.7 C 6.341,8.919 6.292,9.149 6.242,9.378 a 3.017,3.017 0 0 0 -0.37,0.2 l 0.15,0.319 a 0.445,0.445 0 0 0 -0.08,0.2 1.013,1.013 0 0 0 0.03,0.479 1.053,1.053 0 0 1 -0.15,0.309 1.23,1.23 0 0 0 0.34,0.09 7.355,7.355 0 0 0 0.409,1.677 1.819,1.819 0 0 0 -0.16,0.329 0.97,0.97 0 0 0 0.28,0.16 0.747,0.747 0 0 0 0.369,0.638 2.86,2.86 0 0 0 -0.06,0.31 3.212,3.212 0 0 0 0.339,-0.05 5.658,5.658 0 0 0 0.429,0.529 5.32,5.32 0 0 0 1.832,1.314 20.371,20.371 0 0 1 4.92,0.02 5.89,5.89 0 0 0 1.98,-1.676 c 0.659,-1.048 0.05,-2.166 0.1,-2.685 0.05,-0.519 0.559,-0.4 0.549,-0.1 0.369,-0.3 0.209,-0.659 0.02,-0.619 a 0.552,0.552 0 0 1 0.05,-0.089 0.239,0.239 0 0 1 0.279,0.03 c 0.09,0.079 0.11,0.2 0.05,0.379 -0.1,0.329 0.18,0.708 0.579,0.469 -0.23,-0.16 -0.03,-0.439 0.05,-0.659 a 0.671,0.671 0 0 0 -0.4,-0.858 0.933,0.933 0 0 0 -0.639,0 1.224,1.224 0 0 0 -0.519,0.389 2.7,2.7 0 0 0 -0.34,1.906 1.943,1.943 0 0 1 -0.049,1.028 1.957,1.957 0 0 0 -1.218,-1.257 10.457,10.457 0 0 1 -1.886,-0.769 c 1.706,0.02 2.684,0 3.094,-0.988 a 3.276,3.276 0 0 1 -1.527,0.23 l 0.129,-0.11 a 3.147,3.147 0 0 0 1.6,-0.429 1.789,1.789 0 0 0 0.789,-1.557 1.988,1.988 0 0 1 -1.711,1.148 l 0.07,-0.14 A 1.82,1.82 0 0 0 17.12,7.23 Z M 11.781,6.99 a 0.362,0.362 0 0 0 0.149,0.04 c 0.06,0.01 0.08,0.04 0.03,0.07 a 0.467,0.467 0 0 0 -0.1,0.05 c -0.159,0.11 -0.249,-0.08 -0.429,-0.12 0.06,-0.14 0.22,-0.09 0.35,-0.04 z M 8.208,6.341 8.517,7.03 8.956,6.291 h 0.529 a 12.976,12.976 0 0 0 -0.708,1.158 5.5,5.5 0 0 0 -0.6,0.02 l -0.4,-1.058 z m -1.2,6.078 C 6.948,12.25 6.888,12.08 6.838,11.919 A 7.286,7.286 0 0 1 6.649,10.871 l 0.12,-0.05 A 0.966,0.966 0 0 0 7.377,11.3 C 7.337,11.151 7.327,11 7.297,10.871 h 0.16 a 0.869,0.869 0 0 0 0.669,0.5 1.99,1.99 0 0 1 -0.14,-0.469 l 0.2,0.01 a 0.927,0.927 0 0 0 0.728,0.639 2.434,2.434 0 0 1 -0.09,-0.619 h 0.19 c 0.04,0.18 0.12,0.469 0.2,0.709 -0.36,0.189 -0.769,0.479 -1.258,0.718 a 1.074,1.074 0 0 1 -0.946,0.06 z m 7.166,2.126 a 19.012,19.012 0 0 0 -5.529,0.13 4.265,4.265 0 0 1 -0.449,-0.41 3.569,3.569 0 0 1 -0.479,-0.558 l 0.07,-0.1 a 1.006,1.006 0 0 0 0.858,0.179 1.1,1.1 0 0 1 -0.31,-0.379 l 0.14,-0.06 a 1.043,1.043 0 0 0 0.928,0.18 1.267,1.267 0 0 1 -0.379,-0.379 l 0.15,-0.07 a 0.834,0.834 0 0 0 0.928,0.2 1.168,1.168 0 0 1 -0.339,-0.429 l 0.129,-0.07 c 0.619,0.559 1.048,0.629 2.765,0.589 1.189,-0.021 1.609,0.518 1.519,1.177 z M 2.01,2 v 20 h 20 V 2 Z M 4.545,20.673 H 3.866 a 0.207,0.207 0 0 1 -0.2,-0.14 L 2.987,18.806 c -0.02,-0.04 -0.02,-0.089 0.01,-0.109 0.03,-0.02 0.04,-0.05 0.11,-0.05 h 0.519 l 0.579,1.547 0.578,-1.547 H 5.3 c 0.08,0 0.09,0.01 0.12,0.05 0.02,0.02 0.02,0.059 0.01,0.109 l -0.678,1.727 a 0.231,0.231 0 0 1 -0.207,0.14 z m 3.134,-0.05 a 0.159,0.159 0 0 1 -0.11,0.05 H 7.04 L 6.92,20.343 H 6 l -0.12,0.33 H 5.353 a 0.16,0.16 0 0 1 -0.109,-0.05 0.189,0.189 0 0 1 -0.01,-0.11 l 0.688,-1.727 a 0.2,0.2 0 0 1 0.21,-0.139 H 6.8 A 0.2,0.2 0 0 1 7,18.786 l 0.689,1.727 a 0.189,0.189 0 0 1 -0.01,0.11 z m 2.126,-0.779 c 0,0.669 -0.44,0.889 -1.038,0.889 -0.598,0 -1.038,-0.23 -1.048,-0.889 v -1.078 a 0.117,0.117 0 0 1 0.129,-0.119 h 0.529 v 1.2 c 0,0.22 0.07,0.38 0.39,0.38 a 0.338,0.338 0 0 0 0.379,-0.38 v -1.2 h 0.539 a 0.11,0.11 0 0 1 0.12,0.119 z m 2.425,0.819 h -0.619 l -0.519,-0.619 -0.509,0.619 H 9.954 c -0.06,0 -0.1,-0.03 -0.1,-0.09 a 0.149,0.149 0 0 1 0.03,-0.07 l 0.789,-0.918 -0.629,-0.769 a 0.133,0.133 0 0 1 -0.03,-0.079 0.092,0.092 0 0 1 0.1,-0.09 h 0.609 l 0.369,0.479 0.379,-0.479 h 0.6 a 0.087,0.087 0 0 1 0.1,0.09 0.113,0.113 0 0 1 -0.03,0.079 l -0.619,0.769 0.768,0.908 a 0.123,0.123 0 0 1 0.04,0.08 0.087,0.087 0 0 1 -0.1,0.09 z m 2.415,-0.11 c 0,0.08 -0.03,0.11 -0.12,0.11 H 14 v -0.8 h -0.808 v 0.8 h -0.529 c -0.08,0 -0.12,-0.04 -0.12,-0.11 v -1.787 c 0,-0.079 0.05,-0.119 0.13,-0.119 h 0.519 v 0.708 H 14 v -0.708 h 0.529 c 0.1,0 0.12,0.05 0.12,0.129 z m 2.654,0.07 c -0.02,0.03 -0.039,0.05 -0.109,0.05 l -0.529,0.01 -0.12,-0.34 h -0.908 l -0.13,0.34 -0.519,-0.01 c -0.07,0 -0.09,-0.02 -0.11,-0.05 a 0.1,0.1 0 0 1 -0.01,-0.11 l 0.679,-1.727 a 0.2,0.2 0 0 1 0.21,-0.139 h 0.668 a 0.217,0.217 0 0 1 0.21,0.139 l 0.678,1.737 a 0.11,0.11 0 0 1 -0.009,0.1 z m 1.867,-0.07 q 0,0.105 -0.12,0.12 h -1.357 a 0.158,0.158 0 0 1 -0.16,-0.16 v -1.747 c 0,-0.079 0.04,-0.119 0.13,-0.119 h 0.519 v 1.517 h 0.988 z M 12.01,17.818 a 7.405,7.405 0 1 1 7.325,-7.405 7.366,7.366 0 0 1 -7.325,7.405 z m 9.032,2.735 q 0,0.105 -0.12,0.12 h -1.357 c -0.1,-0.01 -0.16,-0.06 -0.16,-0.16 v -1.747 c 0,-0.079 0.04,-0.119 0.13,-0.119 h 0.519 v 1.517 h 0.988 z m -4.96,-1.487 -0.27,0.778 h 0.549 z"/>

</svg>