<?xml version="1.0" encoding="UTF-8"?>
<svg width="24px" fill="#44739e" height="24px" viewBox="0 0 24 24" version="1.1" xmlns="http://www.w3.org/2000/svg" xmlns:xlink="http://www.w3.org/1999/xlink">
            <path d="m 13.879,16.646 a 8.411,8.411 0 0 0 1.01,-4.5 c 0,0 0.061,-0.716 -0.5,-0.782 a 0.638,0.638 0 0 0 -0.665,0.718 c 0,0 -0.031,2.982 -1.167,4.187 a 6.939,6.939 0 0 1 -1.091,-4.054 13.212,13.212 0 0 0 -0.4,-3.025 14.183,14.183 0 0 0 -0.4,2.877 0.639,0.639 0 0 1 -0.237,0.52 c 0,0 -0.176,0.086 -0.141,0.39 a 11.822,11.822 0 0 0 1.071,3.889 c 0,0 -1.754,0.114 -2.1,-3.392 a 1.424,1.424 0 0 0 -0.288,-0.831 0.672,0.672 0 0 1 -0.23,-0.507 13.4,13.4 0 0 1 0.1,-2.1 2.349,2.349 0 0 0 -0.119,-0.851 6.207,6.207 0 0 0 -0.319,2.372 c 0,0 0.056,0.953 -0.418,1.274 a 8.7,8.7 0 0 0 1.1,4.119 2.932,2.932 0 0 0 2.421,1.141 v 0 a 2.78,2.78 0 0 0 2.373,-1.445 z m 3.27,-2.719 c 0,0 0.133,-1.269 0.156,-1.886 a 0.664,0.664 0 0 0 -0.564,-0.675 0.594,0.594 0 0 0 -0.632,0.591 c 0,0 -0.038,2.89 -1.108,4.212 L 14.736,16 a 4.6,4.6 0 0 1 -1.522,2.051 v 0 a 2.808,2.808 0 0 0 2.556,-0.821 5.51,5.51 0 0 0 1.379,-3.303 z m 2.362,-0.734 a 6.045,6.045 0 0 0 0.057,-1.28 0.627,0.627 0 0 0 -0.574,-0.547 c 0,0 -0.624,-0.049 -0.662,0.535 -0.038,0.584 -0.054,0.823 -0.054,0.823 a 7.2,7.2 0 0 1 -1.027,3.445 L 17.027,16 a 3.988,3.988 0 0 1 -1.562,2.054 v 0 a 2.674,2.674 0 0 0 2.3,-0.561 c 0,0 1.418,-0.862 1.746,-4.3 z m 1.945,-1.82 c 0,0 -0.627,-0.122 -0.711,0.408 -0.084,0.53 -0.066,3.206 -1.254,4.577 a 1,1 0 0 1 -0.431,0.308 2.312,2.312 0 0 0 -0.626,0.693 2.569,2.569 0 0 1 -0.724,0.594 v 0 a 2.641,2.641 0 0 0 2.508,-0.525 c 0,0 1.5,-1.006 1.773,-5.249 C 22,12.184 22.08,11.478 21.456,11.373 Z M 10.123,7.357 a 8.4,8.4 0 0 0 -1.009,4.5 c 0,0 -0.061,0.716 0.5,0.782 a 0.639,0.639 0 0 0 0.666,-0.718 c 0,0 0.03,-2.982 1.167,-4.187 a 6.94,6.94 0 0 1 1.09,4.054 13.175,13.175 0 0 0 0.4,3.025 14.183,14.183 0 0 0 0.4,-2.877 0.639,0.639 0 0 1 0.237,-0.52 c 0,0 0.173,-0.087 0.14,-0.39 a 11.81,11.81 0 0 0 -1.07,-3.889 c 0,0 1.753,-0.115 2.1,3.392 a 1.418,1.418 0 0 0 0.288,0.831 0.67,0.67 0 0 1 0.229,0.507 13.4,13.4 0 0 1 -0.1,2.1 2.366,2.366 0 0 0 0.12,0.851 6.234,6.234 0 0 0 0.319,-2.372 c 0,0 -0.056,-0.954 0.418,-1.275 A 8.677,8.677 0 0 0 14.918,7.056 2.932,2.932 0 0 0 12.497,5.914 2.781,2.781 0 0 0 10.123,7.357 Z M 9.264,8 a 4.6,4.6 0 0 1 1.522,-2.052 v 0 a 2.806,2.806 0 0 0 -2.556,0.82 5.514,5.514 0 0 0 -1.379,3.31 c 0,0 -0.133,1.27 -0.156,1.886 a 0.666,0.666 0 0 0 0.564,0.676 0.6,0.6 0 0 0 0.632,-0.592 c 0,0 0.038,-2.894 1.109,-4.217 z M 6.976,7.994 a 3.986,3.986 0 0 1 1.56,-2.052 2.673,2.673 0 0 0 -2.3,0.559 c 0,0 -1.417,0.866 -1.746,4.3 a 6.062,6.062 0 0 0 -0.056,1.279 0.628,0.628 0 0 0 0.573,0.548 c 0,0 0.625,0.049 0.663,-0.538 0.038,-0.587 0.053,-0.823 0.053,-0.823 A 7.21,7.21 0 0 1 6.752,7.826 Z M 8.538,5.94 8.536,5.942 8.538,5.943 Z M 4.94,7.331 A 2.3,2.3 0 0 0 5.566,6.638 2.589,2.589 0 0 1 6.29,6.044 v 0 A 2.644,2.644 0 0 0 3.782,6.569 c 0,0 -1.503,1.004 -1.782,5.248 0,0 -0.084,0.706 0.54,0.81 0,0 0.627,0.122 0.711,-0.408 0.084,-0.53 0.07,-3.206 1.258,-4.579 A 1,1 0 0 1 4.94,7.331 Z"/>

</svg>