<svg xmlns="http://www.w3.org/2000/svg" viewBox="0 0 24 24"><path fill="#44739e" d="M13.881 16.648a8.4 8.4 0 0 0 1.01-4.5s.061-.716-.5-.782a.638.638 0 0 0-.665.718s-.031 2.982-1.167 4.187a6.94 6.94 0 0 1-1.091-4.054 13.2 13.2 0 0 0-.4-3.024 14 14 0 0 0-.399 2.876.64.64 0 0 1-.237.52s-.176.086-.141.39a11.8 11.8 0 0 0 1.07 3.889s-1.753.114-2.099-3.392a1.42 1.42 0 0 0-.288-.831.67.67 0 0 1-.23-.507 13.4 13.4 0 0 1 .1-2.1 2.4 2.4 0 0 0-.119-.85 6.2 6.2 0 0 0-.319 2.371s.056.953-.418 1.274a8.7 8.7 0 0 0 1.1 4.119 2.93 2.93 0 0 0 2.42 1.14 2.78 2.78 0 0 0 2.373-1.444m3.27-2.719s.133-1.269.156-1.886a.664.664 0 0 0-.564-.675.594.594 0 0 0-.632.591s-.038 2.89-1.108 4.212l-.265-.169a4.6 4.6 0 0 1-1.522 2.05 2.81 2.81 0 0 0 2.556-.821 5.5 5.5 0 0 0 1.379-3.302m2.361-.734a6 6 0 0 0 .057-1.28.63.63 0 0 0-.574-.547s-.624-.049-.662.535l-.054.823a7.2 7.2 0 0 1-1.026 3.445l-.224-.169a4 4 0 0 1-1.562 2.053 2.67 2.67 0 0 0 2.3-.561s1.417-.861 1.745-4.299m1.945-1.82s-.627-.122-.711.408-.066 3.206-1.254 4.577a1 1 0 0 1-.431.308 2.3 2.3 0 0 0-.626.692 2.6 2.6 0 0 1-.723.594 2.64 2.64 0 0 0 2.507-.525s1.5-1.005 1.773-5.248c.009.005.089-.701-.535-.806M10.126 7.36a8.4 8.4 0 0 0-1.009 4.499s-.061.716.5.782a.64.64 0 0 0 .666-.718s.03-2.981 1.166-4.186a6.94 6.94 0 0 1 1.09 4.053 13.2 13.2 0 0 0 .4 3.025 14 14 0 0 0 .4-2.877.64.64 0 0 1 .237-.52s.173-.087.14-.39a11.8 11.8 0 0 0-1.07-3.888s1.753-.115 2.1 3.391a1.4 1.4 0 0 0 .288.831.67.67 0 0 1 .229.507 13.4 13.4 0 0 1-.1 2.1 2.4 2.4 0 0 0 .12.851 6.2 6.2 0 0 0 .319-2.372s-.056-.954.418-1.275a8.7 8.7 0 0 0-1.1-4.114 2.93 2.93 0 0 0-2.421-1.142 2.78 2.78 0 0 0-2.373 1.443m-.859.643a4.6 4.6 0 0 1 1.522-2.052 2.8 2.8 0 0 0-2.556.82 5.5 5.5 0 0 0-1.379 3.309s-.133 1.27-.156 1.886a.666.666 0 0 0 .564.676.6.6 0 0 0 .632-.592s.038-2.893 1.109-4.216Zm-2.288-.006a4 4 0 0 1 1.56-2.052 2.67 2.67 0 0 0-2.3.559s-1.417.866-1.746 4.299a6 6 0 0 0-.056 1.279.63.63 0 0 0 .573.548s.625.049.663-.538l.053-.823a7.2 7.2 0 0 1 1.029-3.44Zm1.562-2.054-.002.002.002.001ZM4.943 7.334a2.3 2.3 0 0 0 .626-.693 2.6 2.6 0 0 1 .724-.594 2.64 2.64 0 0 0-2.507.525s-1.503 1.004-1.782 5.247c0 0-.084.706.54.81 0 0 .627.122.711-.408s.07-3.205 1.257-4.578a1 1 0 0 1 .431-.309"/></svg>