<svg xmlns="http://www.w3.org/2000/svg" viewBox="0 0 24 24"><path fill="#44739e" d="m15.107 12 .107.137c.178.238.358.442.536.681.786.988 2.178 2.01 3.428 2.01.144 0 .286 0 .43-.034 1.178-.272 1.606-1.601 1.606-2.794 0-1.158-.428-2.522-1.606-2.794-.144-.033-.286-.033-.43-.033-1.214 0-2.606 1.055-3.428 2.01-.178.238-.357.442-.536.68ZM6.714 6.788c-1.071 0-1.75.374-2.142.715-1.108.919-1.786 2.589-1.786 4.497s.678 3.578 1.786 4.497a3.5 3.5 0 0 0 2.142.715c1.322 0 4.072-.646 7.358-5.11l.071-.102-.071-.102c-3.286-4.43-6.036-5.11-7.358-5.11m0 11.175c-1 0-1.964-.307-2.642-.886C2.75 16.02 2 14.181 2 12c0-2.147.75-4.02 2.072-5.077.5-.409 1.356-.885 2.642-.885 1.464 0 4.429.681 7.893 5.315.179-.239.357-.443.536-.648.929-1.158 2.535-2.317 4.035-2.317.214 0 .429.035.608.069C21.428 8.832 22 10.535 22 12s-.572 3.168-2.214 3.543c-.214.035-.394.069-.608.069-1.5 0-3.106-1.159-4.035-2.317-.179-.205-.357-.443-.535-.647-3.43 4.633-6.43 5.315-7.894 5.315"/></svg>