<?xml version="1.0" encoding="UTF-8"?>
<svg width="24px" fill="#44739e" height="24px" viewBox="0 0 24 24" version="1.1" xmlns="http://www.w3.org/2000/svg" xmlns:xlink="http://www.w3.org/1999/xlink">
            <path d="m 19.786,8.696521 a 3.3,3.3 0 0 0 -0.607,-0.069 5.841,5.841 0 0 0 -4.036,2.317 c -0.179,0.205 -0.357,0.409 -0.536,0.648 -3.464,-4.634 -6.4279997,-5.315 -7.8929997,-5.315 a 4.085,4.085 0 0 0 -2.643,0.885 6.411,6.411 0 0 0 -2.071,5.077 6.361,6.361 0 0 0 2.071,5.077 4.1,4.1 0 0 0 2.643,0.885 c 1.465,0 4.4649997,-0.681 7.8929997,-5.315 0.179,0.205 0.357,0.443 0.536,0.648 a 5.841,5.841 0 0 0 4.036,2.317 3.7,3.7 0 0 0 0.607,-0.069 c 1.643,-0.374 2.214,-2.078 2.214,-3.543 0,-1.465 -0.571,-3.169 -2.214,-3.543 z m -5.715,3.643 c -3.285,4.464 -6.0349997,5.111 -7.3569997,5.111 a 3.5,3.5 0 0 1 -2.143,-0.711 5.829,5.829 0 0 1 -1.785,-4.5 5.829,5.829 0 0 1 1.785,-4.5 3.169,3.169 0 0 1 2.143,-0.716 c 1.322,0 4.0719997,0.682 7.3569997,5.111 l 0.072,0.1 z m 5.536,2.692 a 1.823,1.823 0 0 1 -0.428,0.034 5.047,5.047 0 0 1 -3.429,-2.01 c -0.179,-0.239 -0.357,-0.443 -0.536,-0.682 l -0.107,-0.134 0.107,-0.136 c 0.179,-0.239 0.357,-0.443 0.536,-0.682 a 5.34,5.34 0 0 1 3.429,-2.01 1.823,1.823 0 0 1 0.428,0.034 c 1.179,0.2729998 1.607,1.636 1.607,2.794 0,1.193 -0.428,2.521 -1.607,2.794 z"/>

</svg>