<?xml version="1.0" encoding="UTF-8"?>
<svg width="24px" fill="#44739e" height="24px" viewBox="0 0 24 24" version="1.1" xmlns="http://www.w3.org/2000/svg" xmlns:xlink="http://www.w3.org/1999/xlink">
            <path d="M 12,2 A 10,10 0 1 0 22,12 10,10 0 0 0 12,2 Z m 0,1.72 a 8.272,8.272 0 0 1 2.431,0.363 L 12,9.541 9.57,4.082 A 8.293,8.293 0 0 1 12,3.72 Z M 3.72,12 A 8.283,8.283 0 0 1 4.111,9.477 L 8.6,19.55 A 8.281,8.281 0 0 1 3.72,12 Z M 12,20.28 A 8.293,8.293 0 0 1 9.57,19.918 l 2.43,-5.46 2.431,5.459 A 8.278,8.278 0 0 1 12,20.28 Z m 1.211,-8.02 H 10.79 L 9.165,15.911 5.273,7.171 A 8.335,8.335 0 0 1 7.743,4.9 l 3.048,6.844 h 2.42 L 16.257,4.9 a 8.316,8.316 0 0 1 2.469,2.274 l -3.89,8.738 z M 15.4,19.55 19.888,9.477 A 8.289,8.289 0 0 1 15.4,19.55 Z"/>

</svg>
