<svg xmlns="http://www.w3.org/2000/svg" viewBox="0 0 24 24"><path fill="#44739e" d="M12 2a10 10 0 1 0 10 10A10 10 0 0 0 12 2m0 1.72a8.3 8.3 0 0 1 2.431.363L12 9.541 9.57 4.082A8.3 8.3 0 0 1 12 3.72M3.72 12a8.3 8.3 0 0 1 .391-2.523L8.6 19.55A8.28 8.28 0 0 1 3.72 12M12 20.28a8.3 8.3 0 0 1-2.43-.362l2.43-5.46 2.431 5.459A8.3 8.3 0 0 1 12 20.28m1.211-8.02H10.79l-1.625 3.651-3.892-8.74A8.3 8.3 0 0 1 7.743 4.9l3.048 6.844h2.42L16.257 4.9a8.3 8.3 0 0 1 2.469 2.274l-3.89 8.738Zm2.189 7.29 4.488-10.073A8.29 8.29 0 0 1 15.4 19.55"/></svg>