<svg xmlns="http://www.w3.org/2000/svg" viewBox="0 0 24 24"><path fill="#44739e" d="m18.36 3.949-1.401 1.4.155.122a8.3 8.3 0 0 1 1.389 1.389l.122.153 1.4-1.4a10.7 10.7 0 0 1 .994 1.493l.049.09h.546V2.352h-4.843v.556l.091.048a10.3 10.3 0 0 1 1.499.99m2.906-1.241v4.136a11 11 0 0 0-1.095-1.592l-.121-.148-1.397 1.396a9 9 0 0 0-1.173-1.173l1.399-1.398-.149-.122a10.7 10.7 0 0 0-1.61-1.099ZM20.229 6.32l-.118-.171-1.244 1.244.075.119a8.261 8.261 0 1 1-2.443-2.445l.118.078 1.245-1.244-.169-.121a10 10 0 1 0 2.536 2.54m-8.208 15.315a9.652 9.652 0 1 1 5.301-17.684l-.752.75a8.612 8.612 0 1 0 2.738 2.748l.751-.75a9.652 9.652 0 0 1-8.038 14.936m5.603-9.776c-.006.361.146.728.499.735h.008c.346 0 .507-.359.514-.718.008-.419-.196-.714-.496-.72a.46.46 0 0 0-.393.223.9.9 0 0 0-.132.48m.278-.386a.28.28 0 0 1 .238-.142c.231 0 .333.283.325.542s-.096.547-.34.547c-.232 0-.332-.284-.332-.556a.74.74 0 0 1 .109-.391m-1.077.4c0 .604.515 1 1.312 1s1.308-.392 1.308-1c0-.491-.405-.986-1.313-.986-.793-.002-1.307.385-1.307.985m2.444 0c0 .507-.436.822-1.136.822s-1.132-.318-1.132-.822c0-.507.444-.811 1.132-.811s1.139.315 1.139.811Zm-10.43-.015c0 .362.146.729.5.736h.009a.44.44 0 0 0 .394-.24 1 1 0 0 0 .119-.478.82.82 0 0 0-.189-.585.44.44 0 0 0-.308-.134h-.01c-.295 0-.507.286-.515.701m.519-.527a.26.26 0 0 1 .184.081.67.67 0 0 1 .146.46.8.8 0 0 1-.096.392.27.27 0 0 1-.25.156c-.233 0-.333-.285-.333-.556.012-.26.123-.533.345-.533Zm-1.318.541c0 .605.515 1 1.313 1s1.309-.391 1.309-1c0-.489-.407-.985-1.314-.985-.795-.002-1.308.385-1.308.985m2.444 0c0 .508-.433.822-1.133.822s-1.14-.314-1.14-.822.444-.811 1.133-.811 1.145.316 1.145.811Zm-4.083-.951H4.504v.437h.432l.801 1.457h1.029l.788-1.458h.429v-.437H6.622v.437h.289l-.429.793-.433-.793h.357Zm-.174.264H5.75l.729 1.333.719-1.333h-.399v-.091H7.81v.09h-.36l-.788 1.457h-.824l-.8-1.456h-.361v-.091h1.55Zm8.295 1.63h1.033l.789-1.458h.429v-.437h-1.364v.437h.285l-.429.793-.433-.793h.357v-.437h-1.877v.437h.431Zm-1.034-1.721h1.526v.09h-.476l.729 1.333.72-1.333h-.404v-.089h1.014v.089h-.359l-.788 1.457h-.825l-.779-1.456h-.361Zm-2.511 1.72h2.555v-.97h-.433v.087a.436.436 0 0 1-.476.444h-.28V11.36h.396v-.438h-1.762v.438h.401v1.014h-.4Zm.173-.267h.401v-1.363h-.4v-.089h1.414v.089h-.395v1.362h.455a.607.607 0 0 0 .645-.529h.092v.622h-2.211Z"/></svg>