<?xml version="1.0" encoding="UTF-8"?>
<svg width="24px" fill="#44739e" height="24px" viewBox="0 0 24 24" version="1.1" xmlns="http://www.w3.org/2000/svg" xmlns:xlink="http://www.w3.org/1999/xlink">
    <path d="M17.397,0c1.534,0 3.069,0.585 4.241,1.757c1.171,1.171 1.756,2.706 1.756,4.241c0,1.534 -0.585,3.069 -1.756,4.24l-0,0l-0.001,0.001l-1.756,1.756l0.557,0.558l1.199,1.199l0.001,-0l-0,0c1.171,1.171 1.756,2.706 1.756,4.241c0,1.535 -0.585,3.07 -1.756,4.241c-1.172,1.171 -2.707,1.757 -4.241,1.757c-1.535,-0 -3.07,-0.586 -4.241,-1.757l-0,-0l-1.2,-1.199l-0.077,-0.078l-0.102,-0.102c-0.269,0.502 -0.614,0.973 -1.038,1.396c-0.761,0.761 -1.677,1.271 -2.646,1.532c-0.288,0.078 -0.579,0.134 -0.874,0.167c-0.226,0.026 -0.452,0.039 -0.68,0.039c-1.519,0 -3.038,-0.578 -4.197,-1.738c-1.159,-1.159 -1.739,-2.678 -1.739,-4.198l0,-18.053l11.276,0l-0,3.033l1.277,-1.276l-0,-0c1.171,-1.172 2.706,-1.757 4.241,-1.757Zm-9.086,17.173l-0,-2.889l-0.529,0l0,3.358l1.409,-0l0.201,-0.469l-1.081,-0Zm1.973,0.469l0.193,-0.469l1.501,-0l0.192,0.469l0.558,-0l-1.476,-3.427l-0.03,0l-1.471,3.427l0.533,-0Zm0.948,-2.267l0.548,1.329l-1.106,-0l0.558,-1.329Zm-4.769,-1.091l-1.343,1.876l-0,-1.876l-0.528,0l-0,3.358l0.528,-0l-0,-1.19l1.269,1.19l0.735,-0l-1.486,-1.393l1.407,-1.965l-0.582,0Zm9.171,3.358l-0.682,-0.953c0.44,-0.203 0.672,-0.603 0.672,-1.121c-0,-0.775 -0.509,-1.284 -1.432,-1.284l-0.859,0l-0,3.358l0.528,-0l0,-0.8l0.331,-0c0.084,-0 0.168,-0.005 0.242,-0.015l0.573,0.815l0.627,-0Zm-1.462,-1.254l-0.311,-0l0,-1.635l0.311,0c0.642,0 0.909,0.306 0.909,0.815c-0,0.513 -0.262,0.82 -0.909,0.82Zm2.43,1.254l0.193,-0.469l1.5,-0l0.193,0.469l0.558,-0l-1.476,-3.427l-0.03,0l-1.471,3.427l0.533,-0Zm0.948,-2.267l0.548,1.329l-1.106,-0l0.558,-1.329Z" />
</svg>