<svg xmlns="http://www.w3.org/2000/svg" viewBox="0 0 24 24"><path fill="#44739e" d="M11.999 2.078C6.486 2.078 2 6.528 2 11.999s4.486 9.923 10.001 9.923c5.511 0 9.999-4.45 9.999-9.923V2.078Zm3.165 5.902h1.127a.124.124 0 0 1 .124.121v1.307h1.731a.124.124 0 0 1 .123.122v.915a.124.124 0 0 1-.124.121h-1.732l.002 2.079v.052c0 .449.258.73.627.73.346 0 .595-.245.624-.648v-.005c.013-.113.087-.171.181-.171h.968a.124.124 0 0 1 .124.119v.027c0 1.083-.829 1.964-1.922 1.964l-.001-.004c-1.163 0-1.975-.846-1.975-2.106V8.104a.124.124 0 0 1 .123-.124m-1.442 1.391a4 4 0 0 1 .507 0 .136.136 0 0 1 .129.136v.922a.136.136 0 0 1-.141.133h-.053c-1.074-.046-1.818.807-1.855 1.871v1.718-.007.346a.136.136 0 0 1-.136.136h-1.101a.136.136 0 0 1-.136-.136V9.541c0-.075.062-.136.136-.136h1.046c.076 0 .136.061.136.136v.583a2.02 2.02 0 0 1 1.468-.753m-4.753.037h1.147v.002a.136.136 0 0 1 .13.176l-1.716 4.95a.14.14 0 0 1-.13.094H7.078a.14.14 0 0 1-.13-.094l-1.715-4.95a.136.136 0 0 1 .13-.176h1.145a.14.14 0 0 1 .131.096l1.1 3.414h.021l1.076-3.414a.14.14 0 0 1 .131-.096"/></svg>