<svg xmlns="http://www.w3.org/2000/svg" viewBox="0 0 24 24"><path fill="#44739e" d="M20.3 10.668c0 1.452-.412 4.384-.952 5.732-1.48 3.788-4.336 5.6-7.364 5.6S6.1 20.188 4.62 16.4c-.508-1.348-.92-4.28-.92-5.732C3.7 5.412 7.264 2 12 2c4.752 0 8.312 3.412 8.3 8.668m-2.353 1.572a58 58 0 0 1-.079 2.624 12 12 0 0 0 1.336-.252l.016-.172c.012-.124.024-.248.024-.364a8 8 0 0 1-.812.16q.007-.25.02-.5c.02-.516.044-1.04.044-1.552q-.136.011-.272.028-.133.016-.272.028ZM14.48 9.252v.64h.668v-.64Zm.028.896.016.012v2.032a9 9 0 0 1 .64-.028q-.001-.504-.008-1.008a83 83 0 0 1-.008-1.008Zm-1.48-.016c-.588 0-.936.492-.936 1.052l.028-.012c-.012.56.36 1.068.948 1.04a.67.67 0 0 0 .508-.212v.172h.652c0-.972 0-1.948-.028-2.92h-.652v1.068a.75.75 0 0 0-.52-.188m.308 1.496a.4.4 0 0 1-.348 0H13c-.16-.08-.252-.24-.252-.44s.092-.388.268-.452a.38.38 0 0 1 .292 0c.188.068.28.24.28.452 0 .2-.092.36-.252.44m-4.084-2.04h.012l-.012-.012Zm-.62 0v.572h-.348v.536h.348v.692c-.012.468.336.8.788.8h.332v-.548h-.24c-.064 0-.172-.052-.172-.052l-.04-.04a.5.5 0 0 1-.052-.188v-.664h.492v-.548h-.492v-.56ZM5.06 12.08l-.092-.012a60 60 0 0 0 .132 2.548q.377.08.772.16a.75.75 0 0 0 .48-.068c.2-.132.28-.348.268-.588a.83.83 0 0 0-.388-.68.58.58 0 0 0 .228-.492c0-.412-.308-.72-.708-.772a20 20 0 0 1-.692-.096m.68 1.068v-.012l-.28-.04c-.012-.148-.012-.292-.012-.44l.072.012c.06.012.128.028.196.028.16.012.252.108.252.252a.25.25 0 0 1-.04.148l-.028.052Zm.28 1.052c-.068.012-.148.028-.212.012l-.012.012q-.071-.011-.148-.028l-.148-.028c-.012-.172-.028-.348-.028-.52.108.028.2.04.308.052.188.012.292.132.32.308 0 .04-.012.12-.012.12l-.028.04Zm1.828-1.868c-.36-.012-.72-.04-1.08-.068l.012.028c0 .88.012 1.772.068 2.652q.15.019.3.032l.3.032v-.036c-.012-.292-.024-.576-.024-.868.068 0 .132.008.2.012q.1.012.2.012a.31.31 0 0 1 .268.268q.018.169.048.332l.048.332.036.004c.212.024.416.048.632.048-.012-.128-.032-.256-.048-.388l-.048-.388a.83.83 0 0 0-.292-.532c.2-.12.292-.308.292-.532a.94.94 0 0 0-.912-.94m.176 1.16c-.052.052-.12.052-.2.052h-.012c-.068 0-.136-.008-.208-.012a2 2 0 0 0-.208-.012v-.628c.132.012.28.028.412.028.188.028.308.148.308.332a.3.3 0 0 1-.092.24m.908.616.012-.012c0 .64.48 1.108 1.12 1.108.64.028 1.12-.36 1.12-1.04v-1.72h-.652v1.72a.6.6 0 0 1-.108.332.53.53 0 0 1-.372.132c-.292 0-.48-.212-.48-.492v-1.708a8 8 0 0 0-.64-.028Zm8.688-1.836c-.552.036-1.092.076-1.644.1h.04q.001 1.36-.04 2.72l.072-.008c.552-.052 1.112-.104 1.66-.18.012-.188.028-.372.028-.56-.372.052-.732.092-1.108.12v-.492c.14-.012.284-.028.424-.04h.004c.144-.012.288-.028.424-.04.012-.188.012-.388.012-.572-.28.028-.572.052-.852.068v-.452q.54-.019 1.08-.08v-.588Zm-5.38 1.156c-.092-.04-.12-.12-.12-.12s-.056-.104.052-.212c.108-.096.28-.068.28-.068.172.012.28.12.32.292h.68c0-.572-.524-.892-1.056-.892-.48 0-.976.28-.988.812q.001.2.08.4c.18.328.496.408.812.488l.176.048h.028c.08.024.188.064.228.092.056.04.108.144.028.252a.5.5 0 0 1-.092.08s-.016 0-.028.012c0 0-.12.04-.188.04-.24 0-.384-.144-.412-.372h-.68c.028.6.52.984 1.108.972.536 0 1.056-.296 1.068-.868.02-.584-.408-.696-.844-.808a3 3 0 0 1-.212-.056l-.028-.012s-.132-.052-.212-.08m2.404 0-.08-.028a.22.22 0 0 1-.132-.132q-.016-.062.028-.148c.052-.08.148-.108.212-.12h.052c.188 0 .32.092.348.28.212 0 .428-.012.64-.028 0-.56-.48-.88-1-.852-.48 0-.96.32-.976.84q.001.2.08.4c.176.316.484.392.796.468q.102.023.204.052s.172.04.228.12c.04.052.052.16-.028.24a.38.38 0 0 1-.28.12c-.228 0-.372-.132-.4-.36-.228 0-.452 0-.668.012.012.588.492.96 1.068.932.52-.028 1.016-.332 1.028-.892.032-.564-.384-.668-.804-.776a3 3 0 0 1-.316-.092ZM11.908 12.2l-.016-.016v-2.04h-.668v1.12c-.016.2-.136.32-.348.348-.2-.028-.332-.148-.332-.36v-1.12h-.652v1.28c0 .428.308.8.748.8a.72.72 0 0 0 .6-.252v.24Zm4.428-2.12a1.05 1.05 0 0 0-1 1.068h.012c0 .56.44 1.028 1.016.988.56-.04.948-.532.948-1.08a.965.965 0 0 0-.976-.976m.216 1.428a.37.37 0 0 1-.388.012c-.132-.08-.2-.228-.2-.4 0-.252.172-.468.388-.468.28 0 .388.252.388.44-.004.176-.056.32-.188.416M8.144 11.2a.54.54 0 0 0-.292-.268 4 4 0 0 0-.376-.112q-.041-.013-.076-.02s-.16-.04-.148-.172c.012-.148.212-.108.212-.108.12.028.188.108.212.228q.132 0 .264.008.125.007.244.008c-.012-.412-.372-.68-.772-.692-.348 0-.628.24-.64.588-.024.46.328.576.676.692q.025.005.044.016s.132.04.172.08.028.132-.068.172c-.04.028-.092.028-.132.028-.148-.012-.24-.108-.268-.252-.16 0-.32-.012-.48-.028 0 .412.332.732.748.76.372.028.732-.212.732-.612a.8.8 0 0 0-.052-.316"/></svg>