<?xml version="1.0" encoding="UTF-8"?>
<svg width="24px" fill="#44739e" height="24px" viewBox="0 0 24 24" version="1.1" xmlns="http://www.w3.org/2000/svg" xmlns:xlink="http://www.w3.org/1999/xlink">
            <path d="M 19.946738,12.756952 H 4.1467377 a 1.6,1.6 0 0 0 -1.6,1.6 v 4.915 a 1.6,1.6 0 0 0 1.6,1.6 H 19.946738 a 1.6,1.6 0 0 0 1.6,-1.6 v -4.918 a 1.6,1.6 0 0 0 -1.6,-1.597 z m -2.882,2.11 0.607,0.871 a 0.243,0.243 0 0 0 0.4,0 l 0.6,-0.87 h 1.079 l -0.92,1.319 a 1.164,1.164 0 0 1 -1.908,0 v 0 l -0.924,-1.321 z m -6.311,4.029 H 9.7827377 v -2.309 c 0,-0.568 -0.295,-0.944 -0.767,-0.944 a 0.844,0.844 0 0 0 -0.855,0.944 v 2.31 h -0.975 v -2.31 c 0,-0.568 -0.3,-0.944 -0.768,-0.944 a 0.843,0.843 0 0 0 -0.847,0.944 v 2.31 h -0.984 v -4.03 h 0.984 v 0.632 a 1.238,1.238 0 0 1 1.166,-0.695 1.2,1.2 0 0 1 1.255,0.767 1.449,1.449 0 0 1 1.336,-0.767 1.392,1.392 0 0 1 1.4300003,1.487 z m 4.639,0 h -0.983 v -0.472 a 1.36,1.36 0 0 1 -1.159,0.536 1.868,1.868 0 0 1 -1.919,-2.078 v 0 a 1.864,1.864 0 0 1 1.9,-2.078 1.46,1.46 0 0 1 1.175,0.519 v -0.456 h 0.983 z m 3.389,0 -0.745,-1.06 a 0.243,0.243 0 0 0 -0.4,0 l -0.744,1.06 h -1.041 l 0.968,-1.4 a 1.241,1.241 0 0 1 2.041,0 v 0 l 0.963,1.394 z m -5.391,-3.245 a 1.086,1.086 0 0 0 -1.079,1.23 1.1,1.1 0 1 0 2.174,0 1.1,1.1 0 0 0 -1.095,-1.23 z m -2.258,-4.744 h 1.634 c -0.064,-0.7 -0.109,-1.2719997 -0.114,-1.8319997 0,-1.6 0.423,-2.527 2.047,-2.461 l 0.333,0.013 v -1.487 c -0.1,-0.013 -0.259,-0.017 -0.3,-0.018 h -0.005 c -1.846,-0.001 -4.199,0.405 -3.595,5.7849997 z m 6.889,0.072 a 2.958,2.958 0 0 0 1.47,-0.4 l -0.468,-1.3619997 a 2.311,2.311 0 0 1 -0.917,0.252 c -0.476,0 -0.743,-0.17 -0.84,-0.746 a 9.213,9.213 0 0 1 -0.017,-2.1 h -1.561 a 9.176,9.176 0 0 0 0.042,2.349 2.115,2.115 0 0 0 2.291,2.0069997 z m -1.375,-5.3549997 a 2.672,2.672 0 0 0 1.254,0.624 3.114,3.114 0 0 0 0.637,0.064 h 0.484 v -1.52 h -0.475 a 1.281,1.281 0 0 1 -0.881,-0.3 1.4,1.4 0 0 1 -0.425,-0.983 h -1.52 a 3.332,3.332 0 0 0 0.153,0.891 2.776,2.776 0 0 0 0.773,1.224 z m -10.9700003,2.578 c 0.349,0.922 0.692,1.8239997 1.1,2.7049997 h 2.11 c 0.39,-0.858 0.724,-1.7359997 1.066,-2.6329997 l 0.089,-0.232 c 0.373,-0.978 0.71,-1.94 1.016,-2.9 H 9.3467377 c -0.229,0.838 -0.519,1.771 -0.806,2.637 -0.211,0.63 -0.648,1.819 -0.648,1.819 h -0.071 c -0.233,-0.61 -0.436,-1.189 -0.647,-1.819 -0.29,-0.866 -0.593,-1.8 -0.82,-2.637 h -1.753 c 0.306,0.963 0.643,1.925 1.014,2.9 z"/>

</svg>