<svg xmlns="http://www.w3.org/2000/svg" viewBox="0 0 24 24"><path fill="#44739e" d="M16.5 2c1.279 0 2.559.488 3.536 1.465A5 5 0 0 1 21.5 7a5 5 0 0 1-1.464 3.535l-.001.001L18.571 12l.465.465.999.999h.001A5 5 0 0 1 21.5 17a4.98 4.98 0 0 1-1.464 3.535A5 5 0 0 1 16.5 22a5 5 0 0 1-3.535-1.465l-1-.999-.065-.065-.085-.085a5 5 0 0 1-.865 1.163 4.92 4.92 0 0 1-2.934 1.417A4.95 4.95 0 0 1 2.5 17.05V2h9.4v2.528l1.065-1.063A5 5 0 0 1 16.5 2M8.926 16.316v-2.408h-.441v2.799H9.66l.167-.391Zm1.645.391.161-.391h1.251l.16.391h.465l-1.23-2.857h-.025l-1.227 2.857Zm.79-1.89.457 1.108h-.922Zm-3.976-.909-1.119 1.564v-1.564h-.44v2.799h.44v-.992l1.058.992h.612l-1.238-1.161 1.173-1.638Zm7.646 2.799-.569-.794c.367-.17.56-.503.56-.935 0-.646-.424-1.07-1.193-1.07h-.717v2.799h.441v-.667h.276c.07 0 .14-.004.201-.012l.478.679Zm-1.219-1.045h-.259v-1.363h.259c.535 0 .758.255.758.679 0 .428-.219.684-.758.684m2.026 1.045.161-.391h1.25l.161.391h.465l-1.23-2.857h-.025l-1.227 2.857Zm.79-1.89.457 1.108h-.922Z"/></svg>