<?xml version="1.0" encoding="UTF-8"?>
<svg width="24px" fill="#44739e" height="24px" viewBox="0 0 24 24" version="1.1" xmlns="http://www.w3.org/2000/svg" xmlns:xlink="http://www.w3.org/1999/xlink">
            <path d="M 21.893,6.22 C 21.407,3.98 18.641,4.095 17.693,5.487 A 2.462,2.462 0 0 0 14.086,5.067 V 4.441 H 12.062 V 8.22 H 11.4 A 0.9,0.9 0 0 1 10.42,7.356 2.078,2.078 0 0 1 10.404,7.125 V 6.417 h 1.037 V 4.449 H 10.4 V 2.473 L 9.361,4.449 H 6.981 L 5.881,6.705 5.527,7.43 5.2,6.615 4.371,4.449 H 2 l 0.848,1.82 1.828,3.944 h 1.77 L 8.1,7.026 8.356,6.541 v 0.815 a 2.628,2.628 0 0 0 2.774,2.857 h 2.948 V 7.381 c 0,-1 1.8,-1.326 1.8,-0.2 v 3.022 H 18.1 V 7.381 c 0,-0.98 1.63,-1.31 1.7,-0.272 v 3.1 H 22 v -3 a 4.529,4.529 0 0 0 -0.107,-1"/>

</svg>