<svg xmlns="http://www.w3.org/2000/svg" viewBox="0 0 24 24"><path fill="#44739e" d="M21.901 5.528a4.66 4.66 0 0 0-2.938-3.291c-.709-.245-.549-.241-6.992-.236-5.152 0-6.088.015-6.388.08a4.595 4.595 0 0 0-3.527 3.726c-.044.267-.051 2.043-.044 6.393.015 5.573.025 6.047.1 6.328a4.6 4.6 0 0 0 1.166 2.052 4.37 4.37 0 0 0 2.865 1.377c.37.04 2.313.049 6.243.04 5.677-.02 5.703-.02 6.113-.131a4.5 4.5 0 0 0 1.455-.64 4.6 4.6 0 0 0 1.951-2.812c.081-.316.085-.809.085-6.437 0-5.664 0-6.128-.089-6.449m-4.26 12.37a3.61 3.61 0 0 1-4.096 2.022 14 14 0 0 1-1.424-.648c-.192-.064-.373.113-.522.208a3.7 3.7 0 0 1-.999.425 3.596 3.596 0 0 1-2.464-6.714 4 4 0 0 1 3.372.1 3.5 3.5 0 0 1-.826 1.418c-.2.1-.727-.183-.979-.183a1.98 1.98 0 0 0-1.879 1.661 1.94 1.94 0 0 0 1.261 2.02c.46.177 1.429.2 1.709-.315a1.5 1.5 0 0 0 .048-.66H9.227v-1.566h3.231a3.8 3.8 0 0 0 .142 1.428 1.9 1.9 0 0 0 .48.709c1.791 1.689 4.373-1.144 2.516-2.789a1.97 1.97 0 0 0-.899-.446 3.4 3.4 0 0 0-1.33.2l-.807-1.377v-.052a3.58 3.58 0 0 1 5.088 4.559Zm2.123-7.996v1.355h-1.746l-.015-1.317c-.015-1.405-.025-1.455-.285-1.598a.83.83 0 0 0-.722.053c-.336.21-.356.285-.371 1.641l-.016 1.216h-1.747V9.96c0-1.184-.01-1.298-.1-1.445-.245-.406-1.016-.275-1.252.21-.088.191-.099.31-.099 1.367v1.156h-1.372c-1.52 0-1.755-.035-2.23-.315a2.2 2.2 0 0 1-.811-.98 3 3 0 0 1-.14-.982l-.03-.699-.105.176c-.06.1-.421.715-.799 1.376a12 12 0 0 1-.811 1.31.445.445 0 0 1-.556.03c-.054-.05-.599-.956-1.204-2.016A13 13 0 0 1 4.254 7.07a.42.42 0 0 1 .131-.289c.13-.131.145-.131.841-.131h.705l.395.68a4 4 0 0 0 .46.707c.11.044.22-.1.59-.757l.351-.631h2.028l.339-.591.341-.595.01.481a6 6 0 0 0 .04.589c.025.106.055.116.42.116h.4v1.598h-.865l.03.421c.055.775.24.975.926.975h.409V6.646h1.599v.231c0 .125.016.22.04.21l.38-.19a1.54 1.54 0 0 1 .851-.191 1.57 1.57 0 0 1 1.367.471l.275.264.095-.125a2.2 2.2 0 0 1 2.208-.519 1.7 1.7 0 0 1 .841.729 4.8 4.8 0 0 1 .303 2.376"/></svg>