<?xml version="1.0" encoding="UTF-8"?>
<svg width="24px" fill="#44739e" height="24px" viewBox="0 0 24 24" version="1.1" xmlns="http://www.w3.org/2000/svg" xmlns:xlink="http://www.w3.org/1999/xlink">
            <path d="M 15,9.77 A 2.18,2.18 0 0 0 13.88,9.39 h -1.52 a 0.33,0.33 0 0 0 -0.31,0.34 v 0 4.44 0 a 0.33,0.33 0 0 0 0.31,0.34 h 1.49 a 1.32,1.32 0 0 0 0.34,0 2.19,2.19 0 0 0 1.18,-0.62 2.61,2.61 0 0 0 0.74,-2.37 A 2.51,2.51 0 0 0 15,9.77 m -0.31,3.17 a 1.19,1.19 0 0 1 -0.82,0.48 h -0.75 c -0.07,0 -0.07,0 -0.07,-0.07 v -2.83 c 0,-0.07 0,-0.07 0.06,-0.07 0.23,0 0.46,0 0.68,0 a 1.19,1.19 0 0 1 1,0.6 1.55,1.55 0 0 1 0.24,0.77 1.65,1.65 0 0 1 -0.32,1.11 m 5.48,-3.21 v 0 A 0.33,0.33 0 0 0 19.91,9.38 h -0.78 v 3.06 a 1.18,1.18 0 0 1 0,0.27 0.82,0.82 0 0 1 -0.56,0.66 0.73,0.73 0 0 1 -0.82,-0.19 0.92,0.92 0 0 1 -0.27,-0.67 V 9.38 H 16.7 a 0.34,0.34 0 0 0 -0.29,0.34 v 0 2.81 a 2.28,2.28 0 0 0 0.05,0.44 1.91,1.91 0 0 0 2.2,1.56 1.79,1.79 0 0 0 1.17,-0.78 2.17,2.17 0 0 0 0.39,-1.19 v -1.47 0 -1.37 z m -8.48,0 v 0 A 0.34,0.34 0 0 0 11.42,9.38 h -0.78 v 3.06 a 2.28,2.28 0 0 1 0,0.27 0.83,0.83 0 0 1 -0.57,0.66 A 0.73,0.73 0 0 1 9.25,13.18 0.92,0.92 0 0 1 9,12.5 V 9.38 H 8.18 A 0.33,0.33 0 0 0 7.9,9.72 v 0 2.81 A 1.7,1.7 0 0 0 8,13 a 1.9,1.9 0 0 0 2.19,1.56 1.79,1.79 0 0 0 1.17,-0.78 2.09,2.09 0 0 0 0.39,-1.19 v -1.5 0 c 0,-0.43 0,-0.95 0,-1.37 z M 7.5,9.36 H 6.76 A 0.31,0.31 0 0 0 6.48,9.58 l -0.82,2.54 -0.22,0.7 a 0.1,0.1 0 0 1 0,0.05 c 0,0 0,0 0,-0.05 C 5.27,12.26 5.09,11.71 4.91,11.15 L 4.31,9.57 v 0 A 0.3,0.3 0 0 0 4,9.36 H 3.27 c -0.1,0 -0.14,0.08 -0.11,0.18 0.43,1.34 0.87,2.68 1.31,4 l 0.09,0.28 a 0.92,0.92 0 0 0 0.86,0.68 h 0.11 a 3.71,3.71 0 0 0 0.5,-0.07 l 0.3,-1 C 6.77,12.12 7.19,10.84 7.63,9.51 A 0.14,0.14 0 0 0 7.49,9.36"/>

</svg>