<svg xmlns="http://www.w3.org/2000/svg" viewBox="0 0 24 24"><path fill="#44739e" d="M15.884 9.419a2.6 2.6 0 0 0-1.312-.445h-1.781a.387.387 0 0 0-.363.398v5.202a.387.387 0 0 0 .363.399h1.746a1.5 1.5 0 0 0 .398 0 2.6 2.6 0 0 0 1.382-.727 3.06 3.06 0 0 0 .867-2.776 2.93 2.93 0 0 0-1.3-2.051m-.363 3.714a1.4 1.4 0 0 1-.961.563h-.879c-.082 0-.082 0-.082-.082v-3.316c0-.082 0-.082.07-.082h.797a1.4 1.4 0 0 1 1.172.703 1.8 1.8 0 0 1 .281.902 1.93 1.93 0 0 1-.375 1.301m6.421-3.761a.387.387 0 0 0-.328-.399h-.914v3.585a1.4 1.4 0 0 1 0 .317.96.96 0 0 1-.656.773.855.855 0 0 1-.961-.223 1.08 1.08 0 0 1-.316-.785V8.962h-.914a.4.4 0 0 0-.34.399v3.292a2.7 2.7 0 0 0 .059.515 2.24 2.24 0 0 0 2.577 1.828 2.1 2.1 0 0 0 1.371-.914A2.54 2.54 0 0 0 22 12.688V9.361Zm-9.936 0a.4.4 0 0 0-.34-.399h-.914v3.585a2 2 0 0 1 0 .317.97.97 0 0 1-.667.773.855.855 0 0 1-.961-.223 1.08 1.08 0 0 1-.293-.796V8.962h-.961a.387.387 0 0 0-.328.399v3.292a2 2 0 0 0 .117.551 2.226 2.226 0 0 0 2.566 1.827 2.1 2.1 0 0 0 1.371-.914 2.46 2.46 0 0 0 .457-1.394V9.361Zm-4.933-.422h-.867a.36.36 0 0 0-.328.257l-.96 2.977-.258.82a.1.1 0 0 1 0 .058v-.058c-.199-.656-.41-1.301-.621-1.957l-.703-1.851a.35.35 0 0 0-.363-.246H2.14c-.117 0-.164.093-.129.211.504 1.57 1.02 3.14 1.535 4.686l.106.328a1.08 1.08 0 0 0 1.007.797h.129a5 5 0 0 0 .586-.082l.352-1.172c.515-1.534 1.007-3.034 1.523-4.593a.164.164 0 0 0-.164-.175"/></svg>