<svg xmlns="http://www.w3.org/2000/svg" viewBox="0 0 24 24"><path fill="#44739e" d="m22 8.799-1.115-.545-.304.641-.628 1.318-2.476 5.196-.004.006H15.03l-.002-.003.002-.006.963-2.02.247-.517.013-.028 1.252-2.628.48-1.005.148-.314.765-1.606-.377-.183-.624-.305 3.258-1.532ZM9.495 12.614l-1.224 2.569-2.227-4.677-.626-1.317h2.447l.629 1.317Zm3.197-.607-1.623 3.408v.001h-2.45v-.001l1.225-2.57 1.255-2.633.37-.775.368.775.604 1.267Zm3.221.676-.246.517-.966 2.017-.002.006-1.649-3.464-.595-1.25-.627-1.318h2.418Zm5.87-.683q0 .314-.021.625a10 10 0 0 1-.514 2.623c-1.27 3.74-4.671 6.479-8.739 6.73a8 8 0 0 1-.618.022q-.312 0-.619-.022c-4.97-.308-8.946-4.327-9.251-9.353A8 8 0 0 1 2 12.002q-.001-.316.021-.626c.305-5.024 4.28-9.045 9.25-9.354a9 9 0 0 1 1.238 0V4.71h-1.236V3.63c-4.089.304-7.362 3.615-7.664 7.747h.956v1.25h-.956c.302 4.133 3.575 7.443 7.663 7.748v-1.102h1.237v1.102c3.02-.226 5.598-2.092 6.859-4.718a8.4 8.4 0 0 0 .804-3.03h-.002l.578-1.25h1.014q.021.31.021.626"/></svg>