<?xml version="1.0" encoding="UTF-8"?>
<svg width="33px" height="32px" viewBox="0 0 33 32" fill="#44739e" version="1.1" xmlns="http://www.w3.org/2000/svg" xmlns:xlink="http://www.w3.org/1999/xlink">
            <path d="M22.402,16.68988a.24924.24924,0,0,0-.02735-.08569c-.84838-1.59064-5.91864-1.82819-8.86547-1.82825l-.51911.00232a34.943,34.943,0,0,0-7.60583.86218c.02539-.46411.06921-1.27307.08343-1.58008.08338-.24932,1.68421-1.33465,7.489-1.4552.17431-.0025.34765-.00372.5169-.00372,5.19623,0,7.093,1.1618,7.16663,1.49048.04053.52948.08154.96.08154.96a.25.25,0,0,0,.33185.21216c.12988-.04572,1.26892-.46918,1.26892-1.256a5.16452,5.16452,0,0,0-.06683-1.17469.24964.24964,0,0,0-.0492-.10376A3.38994,3.38994,0,0,0,20.85,11.78088l.01275-.00366a2.852,2.852,0,0,0,1.34729-1.24029.24979.24979,0,0,0,.03076-.12018,10.56965,10.56965,0,0,0-.06347-1.15607.25078.25078,0,0,0-.02466-.07916,2.58207,2.58207,0,0,0-1.12952-1.04633c.44727-.25683,1.13605-.75842,1.13605-1.41174a3.816,3.816,0,0,0-.048-.86432c-.00995-.05322-.022-.11743-.03644-.21344a.24891.24891,0,0,0-.017-.0603c-.64825-1.53217-3.17639-2.31214-7.95624-2.45459-.46423-.01386-.89508-.02039-1.29657-.02039a19.59663,19.59663,0,0,0-5.98516.81641c-1.79657.50586-2.957,1.684-2.97614,2.0487L3.84,6.04688c-.01142.21185-.03.55981-.03.81781a1.28574,1.28574,0,0,0,.06842.40521L1.68726,8.51044a.25.25,0,0,0-.12684.21753V19.63971a.25.25,0,0,0,.22468.24872l9.81475.99988.02533.00128a.25082.25082,0,0,0,.08643-.01538c.01532-.00568,1.54175-.56733,3.118-1.087,4.62836-.06329,7.52362-1.17914,7.554-2.18036a1.6465,1.6465,0,0,1,.03588-.37982A1.27976,1.27976,0,0,0,22.402,16.68988Zm-1.666,1.1059c.00159.0177-.02221.04577-.03247.057-.62335.68079-5.16327.987-8.18786.987-5.9065,0-7.14631-.50915-7.14631-.93628,0-.65271,3.01435-1.354,8.05872-1.39788l.3385-.00147C18.0578,16.50409,20.68,17.16083,20.736,17.79578Zm-.44677-9.98792a23.35911,23.35911,0,0,0-7.27655-.8855A28.32291,28.32291,0,0,0,5.64929,7.95978a7.42807,7.42807,0,0,1,.05762-1.10053C5.80725,6.49384,7.40649,5.013,12.917,5.013l.31769.00159c6.39508.06268,6.97363,1.522,6.97662,1.53674C20.21069,6.76208,20.25885,7.41626,20.28925,7.80786Zm.28643,3.86475c-1.88043-.69141-4.73675-.77234-7.34015-.84613l-.23608-.00672q-.23629-.00676-.47577-.00665a32.53219,32.53219,0,0,0-7.00281.95258l.049-1.33979c.07421-.31714,1.64257-1.63641,7.48364-1.63641,5.95965,0,7.39129,1.21881,7.42291,1.64575.02069.27918.02539.40387.03058.54151.005.1333.0105.27838.03052.57885A.24992.24992,0,0,0,20.57568,11.67261Z"></path>

</svg>