<svg xmlns="http://www.w3.org/2000/svg" viewBox="0 0 24 24"><path fill="#44739e" d="M20.419 9.366a16.8 16.8 0 0 0-6.577-1.578h-.526v-.263c0-1.315-.79-2.631-1.053-2.631a.364.364 0 0 0-.526 0c-.263 0-.263.263-.263.526-3.157.263-3.684-.526-3.947-1.053C7.264 3.053 6.738 2 6.212 2H4.897c-.79 0-1.316 1.053-1.316 3.42s.526 5.525 1.316 5.525h.789l2.368 8.951a9.5 9.5 0 0 0 2.63 1.841l.527.263s1.315-.263 1.578-.263c2.631-.526 4.736-.526 4.736-.79s1.841-6.577 2.894-10.26Zm-9.472-2.893c0 .526-.263 1.052-.263 1.578a18 18 0 0 0-3.42.526v-.789a5.75 5.75 0 0 1 3.683-1.315m-3.683 3.946 2.369.79.525 5.261-1.578-1.052Zm2.105 8.419-.526-2.105 1.578.789.263 2.369Zm6.841.526-4.473.789-.263-2.631 5.262-.526Zm.789-3.42-5.525.526-.527-5.261 7.367-.527Z"/></svg>