<?xml version="1.0" encoding="UTF-8"?>
<svg width="24px" fill="#44739e" height="24px" viewBox="0 0 24 24" version="1.1" xmlns="http://www.w3.org/2000/svg" xmlns:xlink="http://www.w3.org/1999/xlink">
            <path d="M21.85,12.6C21.85,12.6,21.85,12.6,21.85,12.6C21.85,12.6,21.85,12.6,21.85,12.6l-5.97-5.74c-0.09-0.09-0.21-0.16-0.32-0.23 c-0.05-0.03-0.1-0.08-0.15-0.11c-0.1-0.05-0.22-0.08-0.34-0.11C15,6.4,14.93,6.36,14.85,6.35c-0.05-0.01-0.11,0-0.16-0.01 c-1.19-0.13-2.77,0.54-4.11,1.89c-0.11,0.11-0.21,0.23-0.31,0.34v-2.4c0-0.24-0.16-0.44-0.4-0.49l-6.08-1.3L2.05,4.34 C1.91,4.35,1.78,4.39,1.69,4.48C1.59,4.57,1.54,4.7,1.54,4.84v13.68c0,0.28,0.22,0.5,0.5,0.5h1.79c0.04,0,0.08,0,0.12-0.01 l5.94-1.41c0.23-0.05,0.38-0.25,0.38-0.49v-1.16h1.45l3.47,3.33c0.37,0.37,0.88,0.56,1.48,0.56c0.24,0,0.51-0.04,0.78-0.1 c0.06-0.01,0.11-0.02,0.17-0.04c0.03-0.01,0.06-0.01,0.09-0.02c0.05-0.01,0.09-0.04,0.14-0.05c0.15-0.05,0.31-0.11,0.46-0.18 c0.06-0.03,0.12-0.05,0.18-0.08c0.21-0.1,0.41-0.21,0.62-0.34c0.04-0.03,0.08-0.05,0.12-0.08c0.17-0.11,0.35-0.24,0.52-0.37 c0.05-0.04,0.11-0.08,0.16-0.13c0.2-0.17,0.4-0.34,0.6-0.54c0.85-0.85,1.48-1.85,1.76-2.79C22.56,14.06,22.42,13.17,21.85,12.6z M6.56,13.66c-0.16,0-0.3-0.08-0.39-0.2c-0.09-0.12-0.12-0.29-0.08-0.44l0.75-2.69l1.04,0.03l-0.65,2.31l1.83,0.02l1.03,1.01 L6.56,13.66z M21.29,14.83c-0.23,0.79-0.77,1.63-1.51,2.37c-1.55,1.55-3.3,1.96-3.9,1.36c-0.29-0.29-0.35-0.85-0.15-1.52 c0.23-0.79,0.77-1.63,1.51-2.37c0.74-0.74,1.58-1.27,2.37-1.51c0.27-0.08,0.52-0.12,0.74-0.12c0.33,0,0.61,0.09,0.78,0.27 C21.44,13.6,21.49,14.16,21.29,14.83z"/>

</svg>