<svg xmlns="http://www.w3.org/2000/svg" viewBox="0 0 24 24"><path fill="#44739e" d="M21.696 3.659c-.26-.078-6.429-1.909-15.254-.842-1.37.165-2.75.4-4.104.695A.43.43 0 0 0 2 3.937v.815c0 .13.052.252.156.33s.226.122.347.095c0 0 .261-.043.72-.104l2.334 8.486c-.173.13-.347.269-.503.434-.807.842-1.258 2.022-1.232 3.236.052 2.378 1.9 4.287 4.122 4.287h.069c1.258-.026 2.325-.46 3.089-1.25.087-.086.147-.199.226-.295.008 0 .026.009.034.009h.712l.06-.017c.157-.052.643-.304.998-1.519a37 37 0 0 0 3.558-.364.44.44 0 0 0 .347-.304c.972-3.176 3.167-10.69 3.679-12.442.26.043.512.095.772.139a.44.44 0 0 0 .356-.087.43.43 0 0 0 .156-.339v-.971a.425.425 0 0 0-.304-.417M8.169 16.848c-.503-.191-.677-.512-.677-.512l-.919-3.323-.495-1.796-.842-3.055h.009l-.668-2.429s-.338-.72 1.154-.72c1.735 0 2.091.598 2.091.598l.651 5.606.685 5.856s-.494-.034-.989-.225m1.692-3.662-.815-7.141s-.087-.555.477-.651c.208-.034 1.154-.234 2.056-.286a24 24 0 0 1 2.542 0l-.017.278-.156 1.596-.989 10.291c-1.128.035-2.291.026-2.629.026Zc0 .009 0 0 0 0m9.423-7.427-3.219 11.037s-.035.112-.121.234c-.495.061-1.259.156-2.031.199l1.284-12.13c.937 0 2.629.061 3.393.148.928.104.694.512.694.512"/></svg>