<svg xmlns="http://www.w3.org/2000/svg" viewBox="0 0 24 24"><path fill="#44739e" d="M21.982 11.223c0-.413-.312-.743-.945-1.009V9.37c.074-.027.147-.064.22-.101.486-.247.725-.559.725-.917 0-.366-.248-.669-.725-.917-.568-.293-1.522-.522-2.806-.669a34 34 0 0 0-1.898-.156 40 40 0 0 0-1.77-.055l-7.217-1.32c-.027 0-.045-.01-.073 0l-5.3.797c-.019 0-.037.028-.055.037-.009.009-.028 0-.046.009s-.028.028-.037.037c0 .009-.009.009-.018.009v.009A.2.2 0 0 0 2 6.262l.019 8.913a.23.23 0 0 0 .155.22l4.943 1.715c.312 1.485 5.254 1.66 7.428 1.66 2.237 0 7.455-.175 7.455-1.807 0-.413-.312-.743-.945-1.009v-.843c.624-.266.945-.606.945-1.009 0-.413-.312-.743-.945-1.009v-.843c.624-.285.927-.615.927-1.027m-2.32 4.594v1.293c-.725.156-2.394.44-5.136.44-2.723 0-4.392-.275-5.107-.431v-1.623c1.971.376 4.585.394 5.107.394.321 0 3.109-.009 5.136-.403Zm0-2.87v1.293c-.716.155-2.385.44-5.136.44-2.723 0-4.392-.275-5.107-.431v-1.623c2.026.385 4.786.403 5.107.403s3.109-.009 5.136-.403Zm0-1.578c-.725.156-2.394.44-5.136.44-2.723 0-4.392-.275-5.107-.431V9.755c2.026.386 4.786.404 5.107.404h.202c.413 0 1.064-.018 1.816-.055.678-.037 1.32-.092 1.898-.156.431-.055.844-.11 1.22-.193Zm-5.136-2.43c-.458 0-.889-.009-1.293-.018a26 26 0 0 1-2.173-.156 36 36 0 0 1-.862-.11c-.559-.092-1.054-.193-1.394-.303.156-.055.376-.11.679-.174.211-.046.449-.092.706-.128a20 20 0 0 1 1.88-.202c.77-.055 1.595-.083 2.457-.083 2.926 0 4.916.331 5.741.587-.825.257-2.806.587-5.741.587"/></svg>