<?xml version="1.0" encoding="UTF-8"?>
<svg width="33px" height="32px" viewBox="0 0 24 24" fill="#44739e" version="1.1" xmlns="http://www.w3.org/2000/svg" xmlns:xlink="http://www.w3.org/1999/xlink">
            <path d="m 20.421,9.368 v 0 A 16.764,16.764 0 0 0 13.842,7.789 H 13.316 V 7.526 c 0,-1.315 -0.79,-2.631 -1.053,-2.631 a 0.364,0.364 0 0 0 -0.526,0 c -0.263,0 -0.263,0.263 -0.263,0.526 C 8.316,5.684 7.789,4.895 7.526,4.368 7.263,3.053 6.737,2 6.211,2 H 4.895 c -0.79,0 -1.316,1.053 -1.316,3.421 0,2.368 0.526,5.526 1.316,5.526 H 5.684 L 8.053,19.9 v 0 a 9.454,9.454 0 0 0 2.631,1.842 l 0.527,0.263 c 0,0 1.315,-0.263 1.578,-0.263 2.632,-0.526 4.737,-0.526 4.737,-0.79 0,-0.264 1.842,-6.579 2.895,-10.263 v 0 z M 10.947,6.474 c 0,0.526 -0.263,1.052 -0.263,1.579 A 18.13,18.13 0 0 0 7.263,8.579 v -0.79 a 5.753,5.753 0 0 1 3.684,-1.315 m -3.684,3.947 2.369,0.79 0.526,5.263 -1.579,-1.053 z m 2.105,8.421 -0.526,-2.105 1.579,0.789 0.263,2.369 z m 6.843,0.526 -4.474,0.79 L 11.474,17.526 16.737,17 Z M 17,15.947 l -5.526,0.527 -0.527,-5.263 7.369,-0.527 z"></path>

</svg>