<svg xmlns="http://www.w3.org/2000/svg" viewBox="0 0 24 24"><path fill="#44739e" d="M21.696 3.659c-.26-.078-6.429-1.909-15.254-.842-1.37.165-2.75.4-4.104.695A.43.43 0 0 0 2 3.937v.815c0 .13.052.252.156.33s.226.122.347.095c0 0 .261-.043.72-.104l2.334 8.486c-.173.13-.347.269-.503.434-.807.842-1.258 2.022-1.232 3.236.052 2.378 1.9 4.287 4.122 4.287h.069c1.258-.026 2.325-.46 3.089-1.25.087-.086.147-.199.226-.295.008 0 .026.009.034.009h.712l.06-.017c.157-.052.643-.304.998-1.519a37 37 0 0 0 3.558-.364.44.44 0 0 0 .347-.304c.972-3.176 3.167-10.69 3.679-12.442.26.043.512.095.772.139a.44.44 0 0 0 .356-.087.43.43 0 0 0 .156-.339v-.971a.425.425 0 0 0-.304-.417M6.564 13.013 4.568 5.741s-.338-.72 1.154-.72c1.736 0 2.091.599 2.091.599l.842 7.202a5 5 0 0 0-.842-.061c-.216 0-.433.035-.65.078-.2.035-.399.104-.599.174m3.609-.642v.971c-.095-.06-.208-.104-.312-.156l-.815-7.141s-.087-.555.477-.651c.208-.034 1.154-.234 2.056-.286a24 24 0 0 1 2.542 0l-.017.278-.685 6.985s-.573.485-3.246 0m9.111-6.612-3.219 11.037s-.364.138-1.154-.104-.868-.582-.868-.582l1.154-11.011c.937 0 2.629.061 3.393.148.928.104.694.512.694.512"/></svg>