<?xml version="1.0" encoding="UTF-8"?>
<svg width="24px" fill="#44739e" height="24px" viewBox="0 0 24 24" version="1.1" xmlns="http://www.w3.org/2000/svg" xmlns:xlink="http://www.w3.org/1999/xlink">
            <path d="M10.25,0.57L1.93,2.55L1.91,3.88c0,0-0.3,0.08-0.38,0.13C1.46,4.07,1.46,4.2,1.46,4.2L1.4,20.52 c0,0,0.02,0.1,0.09,0.15s0.33,0.07,0.33,0.07l0.02,1.11l8.41,1.58l5.4-1.36V3.37L10.25,0.57z M11.14,2.49l3.57,1.77v0.18l-2.38,0.5 v0.6l2.04-0.36l0.02,15.05l-2.02-0.33l0.01,0.59l2.28,0.36l0,0.2l-3.53,0.66L11.14,2.49z M8.96,2.5L8.93,21.63L2.96,20.7l0.02-0.19 l2.28-0.38V4.78L3.02,3.95c0,0,0-0.27,0.28-0.33S8.96,2.5,8.96,2.5z M18.72,4.97l-2.06,0.49l0,1.08c0.61-0.12,1.08-0.21,1.08-0.21l-0.02,13.48l-1.08-0.17l0,1.23l2.08,0.39 l3.85-0.97V6.97L18.72,4.97z M21.79,7.7l-1.68,0.35v0.42l1.44-0.25l0.02,10.61l-1.42-0.23L20.16,19l1.61,0.25v0.14l-2.49,0.46V6.33 l2.52,1.25V7.7z"/>

</svg>