<svg xmlns="http://www.w3.org/2000/svg" viewBox="0 0 24 24"><path fill="#44739e" d="M16.888 5.079c-1.31.339-3.462.339-4.773 0-1.292-.333-1.253-.867.056-1.189 1.293-.318 3.362-.318 4.656 0 1.311.322 1.353.855.061 1.189m5.071 5.881L19.71 3.387l-.027-.079c-.209-.475-1.23-.927-3.056-1.17a15.8 15.8 0 0 0-4.182.001c-1.823.242-2.842.693-3.048 1.169l-.041.123-2.312 7.526a.75.75 0 0 0-.037.331c.185 1.228 2.413 2.219 6.483 2.36A4.62 4.62 0 0 1 9.059 17a4.58 4.58 0 0 1-2.906-1.036c-.033-1.194-.153-2.353-.375-3.26-.215-.877-.48-1.374-.755-1.503a.3.3 0 0 0-.144-.033H3.291a.3.3 0 0 0-.143.033c-.287.132-.562.669-.779 1.601-.49 2.102-.49 5.467 0 7.566.217.931.492 1.465.779 1.598a.3.3 0 0 0 .143.034h1.588a.3.3 0 0 0 .144-.033c.275-.13.541-.627.755-1.508.176-.719.287-1.6.344-2.526a6.25 6.25 0 0 0 2.937.734 6.284 6.284 0 0 0 6.146-5.01c4.269-.1 6.604-1.113 6.789-2.373a.75.75 0 0 0-.035-.324"/></svg>