<?xml version="1.0" encoding="UTF-8"?>
<svg width="33px" height="32px" viewBox="0 0 24 24" fill="#44739e" version="1.1" xmlns="http://www.w3.org/2000/svg" xmlns:xlink="http://www.w3.org/1999/xlink">
            <path d="m 20.471,3.662 v 0 A 15.051,15.051 0 0 0 13.853,2.074 40.354,40.354 0 0 0 5.912,2.868 H 5.647 V 3.926 L 8.294,14.25 v 0 a 9.5,9.5 0 0 0 2.647,1.85 l 0.53,0.265 h 0.264 c 0,0.264 0.265,0.529 0.265,1.058 A 6.662,6.662 0 0 1 7.765,16.1 C 7.5,14.247 6.971,12.923 6.176,12.923 H 4.588 c -0.794,0 -1.588,2.118 -1.588,4.5 0,2.382 0.794,4.5 1.588,4.5 h 1.588 c 0.53,0 1.059,-1.058 1.324,-2.382 1.324,-0.794 1.324,-1.323 5.029,-1.059 a 0.925,0.925 0 0 0 0.265,0.53 c 0.53,0.264 0.53,0 0.794,0 a 5.051,5.051 0 0 0 1.059,-2.647 v -0.53 c 1.853,-0.264 3.177,-0.529 3.441,-0.529 0,-0.265 1.853,-6.618 2.912,-10.324 v 0 z M 7.235,4.721 9.618,5.515 10.147,10.809 8.559,9.75 Z m 2.118,8.47 -0.529,-2.117 1.588,0.794 0.529,2.117 z m 6.882,0.53 -4.235,0.529 -0.265,-2.382 5.294,-0.53 z m 1.059,-3.442 -5.823,0.53 -0.53,-5.294 7.412,-0.53 z"></path>

</svg>