<svg xmlns="http://www.w3.org/2000/svg" viewBox="0 0 24 24"><path fill="#44739e" d="M19.311 2H4.689A2.69 2.69 0 0 0 2 4.689v14.622A2.69 2.69 0 0 0 4.689 22h14.622A2.69 2.69 0 0 0 22 19.311V4.689A2.69 2.69 0 0 0 19.311 2m-3.473 16.9a1.657 1.657 0 0 1-1.655 1.656H9.818A1.657 1.657 0 0 1 8.162 18.9V5.1a1.657 1.657 0 0 1 1.656-1.654h4.365A1.657 1.657 0 0 1 15.838 5.1ZM14.183 4.446H9.818a.656.656 0 0 0-.656.656V18.9a.656.656 0 0 0 .656.656h4.365a.656.656 0 0 0 .655-.656V5.1a.656.656 0 0 0-.655-.654m-1.2 1.338h-1.807a.338.338 0 1 1 0-.676h1.811a.338.338 0 0 1 0 .676Z"/></svg>