<?xml version="1.0" encoding="UTF-8"?>
<svg width="24px" fill="#44739e" height="24px" viewBox="0 0 24 24" version="1.1" xmlns="http://www.w3.org/2000/svg" xmlns:xlink="http://www.w3.org/1999/xlink">
            <path d="M 9.771,2.066 2.539,3.787 2.522,4.943 A 2.046,2.046 0 0 0 2.192,5.056 0.249,0.249 0 0 0 2.131,5.221 L 2.079,19.405 a 0.232,0.232 0 0 0 0.078,0.13 0.922,0.922 0 0 0 0.287,0.061 l 0.017,0.965 7.31,1.373 4.693,-1.182 V 4.5 Z m 0.773,1.668 3.1,1.539 v 0.156 l -2.069,0.435 v 0.521 l 1.774,-0.313 0.017,13.081 -1.756,-0.287 0.009,0.513 1.982,0.313 v 0.174 l -3.069,0.573 z M 8.644,3.743 8.623,20.37 3.435,19.562 3.452,19.396 5.434,19.066 V 5.725 L 3.487,5 A 0.3,0.3 0 0 1 3.73,4.714 C 3.973,4.661 8.649,3.74 8.649,3.74 M 14.942,4.679 14.9,20.674 18.576,19.753 18.6,6.585 Z m 2.912,2.59 -1.608,0.339 v 0.4 l 1.373,-0.244 -0.009,10.572 -1.356,-0.226 0.009,0.391 1.539,0.244 v 0.13 L 15.42,19.318 15.446,5.959 17.854,7.15 Z M 19.036,6.747 19.01,6.756 19,19.64 19.035,19.648 21.92,18.927 V 8.245 Z m 2.3,2.043 -1.26,0.261 v 0.312 l 1.077,-0.191 0.009,8.631 -1.062,-0.171 0.009,0.313 1.208,0.191 v 0.1 l -1.869,0.348 V 7.767 l 1.886,0.93 v 0.1 z"/>

</svg>