<?xml version="1.0" encoding="UTF-8"?>
<svg width="33px" height="32px" viewBox="0 0 24 24" fill="#44739e" version="1.1" xmlns="http://www.w3.org/2000/svg" xmlns:xlink="http://www.w3.org/1999/xlink">
            <path d="m 20.313,3.492 v 0 c 0,-0.482 -0.723,-0.964 -2.409,-1.2 A 35.593,35.593 0 0 0 12.843,2.051 35.586,35.586 0 0 0 7.783,2.292 C 6.096,2.533 5.373,2.774 5.373,3.497 v 0 0.964 L 3.687,4.7 C 3.446,4.7 3.446,4.941 3.446,5.181 l 0.241,13.494 a 0.236,0.236 0 0 0 0.241,0.241 l 4.819,2.651 v 0 c 1.205,0.241 2.651,0.241 3.855,0.482 h 0.723 c 2.41,0 3.856,-0.482 4.338,-1.2 V 16.022 H 17.9 A 11.732,11.732 0 0 0 19.59,15.3 c 0.241,-0.241 0.723,-0.482 0.723,-0.723 0,-0.241 0.241,-3.855 0.241,-5.3 0,-1.445 -0.241,-5.542 -0.241,-5.783 m -2.891,7.952 A 27.788,27.788 0 0 1 12.843,11.686 29.28,29.28 0 0 1 8.265,11.446 3.887,3.887 0 0 1 6.1,10.721 v 0 -2.651 h 0.241 a 15.359,15.359 0 0 0 1.687,0.482 35.955,35.955 0 0 0 5.06,0.482 35.955,35.955 0 0 0 5.061,-0.482 4.463,4.463 0 0 0 1.686,-0.482 v 0 2.892 0 a 7.124,7.124 0 0 1 -2.409,0.482 M 19.59,7.106 v 0 A 7.031,7.031 0 0 1 17.422,7.588 29.528,29.528 0 0 1 12.843,8.07 29.16,29.16 0 0 1 8.265,7.829 L 6.1,7.106 V 4.215 A 15.359,15.359 0 0 1 7.783,4.7 35.586,35.586 0 0 0 12.843,4.941 35.593,35.593 0 0 0 17.9,4.7 4.463,4.463 0 0 0 19.586,4.218 V 7.106 M 8.265,3.01 c 1.446,0 3.133,-0.241 4.578,-0.241 A 29.166,29.166 0 0 1 17.422,3.01 5.661,5.661 0 0 1 19.349,3.492 5.3,5.3 0 0 1 17.422,3.733 26.693,26.693 0 0 1 12.843,4.215 29.16,29.16 0 0 1 8.265,3.974 5.672,5.672 0 0 1 6.337,3.492 C 7.06,3.251 7.542,3.251 8.265,3.01 M 19.59,14.576 17.422,15.299 A 26.693,26.693 0 0 1 12.843,15.781 15.131,15.131 0 0 1 8.265,15.058 2.737,2.737 0 0 1 6.337,14.335 14.314,14.314 0 0 0 6.1,11.684 a 3.483,3.483 0 0 0 1.687,0.482 35.955,35.955 0 0 0 5.06,0.482 35.955,35.955 0 0 0 5.061,-0.482 3.479,3.479 0 0 0 1.686,-0.482 v 0 2.892"></path>

</svg>