<svg xmlns="http://www.w3.org/2000/svg" viewBox="0 0 24 24"><path fill="#44739e" d="M18.343 2c-2.075 0-3.643.834-3.643 1.939v2.003l-1.223.553a.39.39 0 0 0-.226.353v8.31c0 .209.172.381.38.381H14.7v1.468c0 1.105 1.568 1.939 3.643 1.939s3.643-.834 3.643-1.939V3.948C21.986 2.843 20.419 2 18.343 2m0 16.194c-1.649 0-2.872-.616-2.872-1.178 0-.553 1.232-1.178 2.872-1.178 1.65 0 2.873.616 2.873 1.178 0 .553-1.232 1.178-2.873 1.178M8.022 2c-2.447 0-4.296.988-4.296 2.293v2.356l-1.441.652a.46.46 0 0 0-.271.417v9.796c0 .254.199.453.453.453h1.25v1.74C3.717 21.012 5.566 22 8.013 22s4.295-.988 4.295-2.293V4.302C12.317 2.988 10.469 2 8.022 2m0 19.085c-1.94 0-3.389-.734-3.389-1.387s1.449-1.386 3.389-1.386 3.389.734 3.389 1.386-1.45 1.387-3.389 1.387"/></svg>