<?xml version="1.0" encoding="UTF-8"?>
<svg width="33px" height="32px" viewBox="0 0 33 32" version="1.1" fill="#44739e" xmlns="http://www.w3.org/2000/svg" xmlns:xlink="http://www.w3.org/1999/xlink">
            <path d="M 13.367188,0.59960938 5.0488281,2.5800781 5.0253906,3.9140625 c 0,0 -0.299426,0.076966 -0.375,0.1308594 -0.075577,0.053893 -0.068359,0.1816406 -0.068359,0.1816406 L 4.515625,20.550781 c 0,0 0.017649,0.103667 0.087891,0.154297 0.070242,0.05063 0.3339844,0.06641 0.3339844,0.06641 l 0.021484,1.113282 8.4082036,1.578125 5.404296,-1.355469 V 3.4023438 Z m 0.888671,1.92187502 3.572266,1.7675781 v 0.1777344 l -2.382813,0.4960937 v 0.5957032 l 2.044922,-0.3574219 0.02148,15.0527341 -2.017578,-0.330078 0.01172,0.585938 2.283204,0.355468 -10e-7,0.199219 -3.533203,0.65625 z m -2.177734,0.00977 -0.03125,19.1249996 -5.96875,-0.921875 0.015625,-0.1875 2.28125,-0.375 V 4.8125 L 6.140625,3.984375 c 0,0 0,-0.265625 0.28125,-0.328125 0.28125,-0.0625 5.65625,-1.125 5.65625,-1.125 z"></path>

</svg>