<svg viewBox="0 0 24 24" height="24px" width="24px" fill="#44739e" xmlns="http://www.w3.org/2000/svg"><path d="M9.68,10.28h4.7v1h-4.7V10.28z M9.64,14.23h4.74v-2.12H9.64V14.23z M22.2,6.12c0-0.02-0.01-0.04-0.01-0.06v-0.9V4.59c0-0.1-0.03-0.2-0.09-0.28l-0.64-0.94c-0.09-0.14-0.25-0.22-0.41-0.22 h-1.33c-0.15,0-0.3,0.07-0.39,0.19l-0.49,0.63h-2.66l-0.6-0.65c-0.09-0.1-0.23-0.16-0.37-0.16H3.03c-0.15,0-0.29,0.06-0.38,0.18 L2.03,4.05C1.95,4.14,1.91,4.26,1.91,4.38v0.71v10.23c0,0.08,0.02,0.15,0.05,0.22c0.03,0.06,3.1,6.23,9.86,6.23 c0.02,0,0.05,0,0.07,0c6.78-0.04,10.1-5.75,10.24-5.99c0.04-0.08,0.07-0.16,0.07-0.25V6.15C22.2,6.14,22.2,6.13,22.2,6.12z  M13.12,5.63l-0.33,1.3h-1.72l-0.26-1.31L13.12,5.63z M11.88,20.75c-0.02,0-0.04,0-0.06,0c-5.67,0-8.51-4.82-8.91-5.57V6.09 c0,0,0-0.01,0-0.01c0-0.06,0.02-0.25,0.13-0.36c0.08-0.08,0.22-0.13,0.41-0.13c0.01,0,0.01,0,0.02,0l6.32,0.03l0.38,1.91 c0.05,0.23,0.25,0.4,0.49,0.4h2.51c0.23,0,0.43-0.15,0.48-0.38l0.49-1.92l6.55,0.03c0,0,0,0,0,0c0.04,0.01,0.27,0.02,0.39,0.13 c0.02,0.02,0.08,0.09,0.1,0.27v9.32C20.72,16.14,17.6,20.72,11.88,20.75z"/></svg>