<svg xmlns="http://www.w3.org/2000/svg" viewBox="0 0 24 24"><path fill="#44739e" d="M20.31 3.45c0-.481-.723-.963-2.408-1.199a35.6 35.6 0 0 0-5.059-.241 35.6 35.6 0 0 0-5.058.241c-1.687.241-2.409.482-2.409 1.204v.964l-1.686.239c-.241 0-.241.241-.241.481l.241 13.488a.236.236 0 0 0 .241.241l4.817 2.65c1.205.241 2.65.241 3.854.482h.722c2.41 0 3.855-.482 4.337-1.2v-4.825h.237a12 12 0 0 0 1.689-.721c.241-.241.723-.482.723-.723s.241-3.854.241-5.298-.241-5.54-.241-5.781m-2.89 7.949a28 28 0 0 1-4.577.24 29 29 0 0 1-4.577-.24 3.9 3.9 0 0 1-2.164-.725V8.027h.241a15 15 0 0 0 1.687.481 36 36 0 0 0 5.058.482 36 36 0 0 0 5.059-.482 4.5 4.5 0 0 0 1.685-.481v2.89a7.1 7.1 0 0 1-2.408.482m2.163-4.336a7 7 0 0 1-2.167.482 29.5 29.5 0 0 1-4.577.482 29 29 0 0 1-4.577-.241l-2.164-.723v-2.89a15 15 0 0 1 1.683.485 35.6 35.6 0 0 0 5.058.241 35.6 35.6 0 0 0 5.055-.241 4.5 4.5 0 0 0 1.685-.482v2.887M8.266 2.969c1.446 0 3.132-.241 4.577-.241a29 29 0 0 1 4.577.241 5.7 5.7 0 0 1 1.926.481 5.3 5.3 0 0 1-1.926.241 26.7 26.7 0 0 1-4.577.482 29 29 0 0 1-4.577-.241 5.7 5.7 0 0 1-1.927-.482c.723-.241 1.205-.241 1.927-.481M19.587 14.53l-2.167.723a26.7 26.7 0 0 1-4.577.481 15.1 15.1 0 0 1-4.577-.722 2.74 2.74 0 0 1-1.927-.723 14.3 14.3 0 0 0-.237-2.65 3.5 3.5 0 0 0 1.687.482 36 36 0 0 0 5.058.482 36 36 0 0 0 5.059-.482 3.5 3.5 0 0 0 1.685-.482v2.891"/></svg>