<svg xmlns="http://www.w3.org/2000/svg" viewBox="0 0 24 24"><path fill="#44739e" d="M18.159 17.014c-1.589 1.159-3.383 1.399-4.008.538-.623-.863.16-2.5 1.75-3.658 1.588-1.16 3.383-1.4 4.008-.54.624.863-.16 2.5-1.75 3.66m3.52-4.096-7.287-8.339c-.749-.966-2.942-.476-4.9 1.092-1.96 1.569-2.996 3.904-2.249 4.87l.73 1.042H6.145c-.043-1.009-.164-1.975-.366-2.747-.216-.809-.483-1.269-.758-1.387a.3.3 0 0 0-.143-.032H3.289a.3.3 0 0 0-.143.032c-.286.121-.561.619-.779 1.478-.489 1.94-.489 5.046 0 6.983.218.859.493 1.353.779 1.475a.3.3 0 0 0 .143.031h1.589a.3.3 0 0 0 .143-.031c.275-.118.542-.578.757-1.391.203-.77.323-1.737.367-2.745H9.14l4.122 5.886c.922 1.292 3.555.946 5.88-.771s3.46-4.155 2.537-5.446"/></svg>