<?xml version="1.0" encoding="UTF-8"?>
<svg width="33px" height="32px" viewBox="0 0 33 32" version="1.1" xmlns="http://www.w3.org/2000/svg" xmlns:xlink="http://www.w3.org/1999/xlink">
    <!-- Generator: Sketch 51.3 (57544) - http://www.bohemiancoding.com/sketch -->
    <title>wall-turaco</title>
    <style>path{fill:#000}@media (prefers-color-scheme:dark){path{fill:#fff}}</style>
            <path d="M 9.1060342,23.182561 C 8.977289,23.124937 8.0253213,22.703991 6.9905502,22.247125 5.8044175,21.723431 5.0909078,21.398985 5.0597891,21.369172 5.0326416,21.343162 5.0008224,21.292832 4.9890798,21.257329 4.968307,21.194521 4.9777468,1.7267865 4.9985601,1.7059732 5.0029802,1.7015531 5.2037658,1.6658299 5.4447502,1.6265882 5.6857347,1.5873466 6.6729309,1.4254002 7.6385195,1.2667074 L 9.3941352,0.97817504 9.7219283,1.0052047 c 0.5048587,0.04163 0.5507957,0.077398 0.5604597,0.4363907 l 0.0059,0.2207722 0.111099,0.00986 c 0.0611,0.00542 0.382543,0.022416 0.714309,0.037758 0.331767,0.015342 0.842246,0.039845 1.134398,0.054451 1.148396,0.057412 1.993006,0.098619 2.452451,0.1196522 l 0.480759,0.022009 1.779033,-0.2085598 1.779034,-0.2085598 0.270094,0.025988 c 0.318149,0.030611 0.408025,0.064484 0.47237,0.1780239 0.04022,0.070968 0.04022,0.070968 0.04051,10.1057049 2.94e-4,9.94669 -1.5e-5,10.035345 -0.03516,10.10423 -0.0195,0.03822 -0.06327,0.08669 -0.09728,0.107703 -0.06613,0.04087 -0.509907,0.145482 -0.617155,0.145482 -0.06532,0 -2.512324,-0.738318 -2.603868,-0.785648 -0.170482,-0.08814 -0.19787,-0.348607 -0.05199,-0.494484 0.08096,-0.08096 0.06979,-0.07862 0.893866,-0.187008 0.346622,-0.04559 0.651184,-0.08696 0.676805,-0.09194 l 0.04658,-0.009 -0.0061,-6.242904 c -0.0074,-7.6325213 -0.01564,-11.2192367 -0.02564,-11.2292356 -0.0042,-0.00416 -1.547076,-0.0821 -3.428695,-0.1731934 L 10.852583,2.777072 10.58699,2.827729 10.321396,2.878387 10.321288,12.899904 c -7.2e-5,6.837988 -0.006,10.042789 -0.0187,10.08848 -0.04788,0.172397 -0.137967,0.221421 -0.4902863,0.266805 -0.409427,0.05274 -0.4313636,0.05049 -0.7063411,-0.07259 z"></path>

</svg>