<svg xmlns="http://www.w3.org/2000/svg" viewBox="0 0 24 24"><path fill="#44739e" d="m8.233 13.132-4.776 2.217a1.22 1.22 0 0 0-.134 1.656c.384.655 1.056.968 1.5.706L9.142 14.7a.86.86 0 0 0 .031-1.066.854.854 0 0 0-.94-.502m7.552.001c-.3-.118-.7.1-.942.505a.87.87 0 0 0 .026 1.06l4.315 3.018c.448.256 1.123-.055 1.507-.711s.309-1.4-.135-1.656Zm-3.777 2.138a.856.856 0 0 0-.906.556l-.466 5.235c0 .518.606.938 1.372.938s1.371-.42 1.371-.938l-.462-5.235a.86.86 0 0 0-.909-.556m2.835-4.904a.88.88 0 0 0 .942.509l4.776-2.221c.444-.262.51-.995.135-1.654s-1.059-.97-1.507-.714L14.874 9.3a.88.88 0 0 0-.026 1.07ZM4.827 6.289c-.448-.262-1.12.05-1.5.71a1.22 1.22 0 0 0 .134 1.656l4.772 2.215a.854.854 0 0 0 .94-.5.86.86 0 0 0-.031-1.065ZM12.008 2c-.766 0-1.372.424-1.372.943l.472 5.234a.856.856 0 0 0 .9.556.86.86 0 0 0 .909-.556l.462-5.234C13.38 2.424 12.77 2 12.008 2"/></svg>