<?xml version="1.0" encoding="UTF-8"?>
<svg width="24px" fill="#44739e" height="24px" viewBox="0 0 24 24" version="1.1" xmlns="http://www.w3.org/2000/svg" xmlns:xlink="http://www.w3.org/1999/xlink">
            <path d="m 11.013,13.355 a 1.577,1.577 0 0 0 0.1,0.548 1.438,1.438 0 0 0 0.229,0.41 1.259,1.259 0 0 0 0.844,0.484 1.223,1.223 0 0 0 0.148,0.008 1.257,1.257 0 0 0 0.983,-0.5 v 0.005 a 1.565,1.565 0 0 0 0.312,-0.96 7.4,7.4 0 0 0 -1.321,-2.637 7.434,7.434 0 0 0 -1.295,2.642 z m 1.615,0.937 A 1.357,1.357 0 0 0 13,13.978 0.769,0.769 0 0 0 13.148,13.607 1.281,1.281 0 0 0 13.11,13.118 4.6,4.6 0 0 0 12.862,12.557 l -0.136,-0.272 c -0.08,-0.182 0.043,-0.313 0.176,-0.12 a 0.5,0.5 0 0 1 0.059,0.093 c 0.034,0.066 0.037,0.073 0.091,0.18 a 3.905,3.905 0 0 1 0.266,0.612 1.526,1.526 0 0 1 0.043,0.594 1.33,1.33 0 0 1 -0.17,0.473 v 0 a 1.812,1.812 0 0 1 -0.474,0.407 C 12.556,14.6 12.423,14.413 12.628,14.292 Z m 6.449,5.714001 h 0.254 V 21.875 h -0.254 z m -0.657999,0 h 0.224 v 1.317 h -0.224 z m 0.316999,0 H 18.96 V 20.874 H 18.736 Z M 9.8719997,3.7750001 H 14.613 v 0.54 H 9.8719997 Z M 19.448999,20.002001 h 0.24 v 1.878 h -0.24 z M 9.367,3.552 h 5.751 a 0.434,0.434 0 0 0 0,-0.868 H 13.856 A 0.229,0.229 0 0 1 13.833,2.674 C 13.757,2.232 12.955,2 12.161,2 11.367,2 10.55,2.234 10.485,2.683 H 9.367 a 0.434,0.434 0 1 0 0,0.868 z m 2.794,-1.171 a 2.065,2.065 0 0 1 0.408,0.029 2.039,2.039 0 0 0 -1.138,0.271 h -0.537 a 2.053,2.053 0 0 1 1.267,-0.3 z M 18.43,19.8 h 1.591 V 18.668 A 1.066,1.066 0 0 0 18.956,17.6 H 17.829 V 8.118 A 3.552,3.552 0 0 0 17.421,6.459 V 4.9 H 15.813 A 3.561,3.561 0 0 0 14.246,4.539 h -4.01 A 3.561,3.561 0 0 0 8.669,4.9 H 7.064 V 6.46 A 3.564,3.564 0 0 0 6.657,8.12 v 10.3 a 3.56,3.56 0 0 0 0.407,1.658 V 21.99 H 10 c 0.079,0 0.159,0.009 0.239,0.009 h 4.011 a 2.122,2.122 0 0 0 0.239,-0.009 h 2.932 v -1.909 a 3.507,3.507 0 0 0 0.323,-0.887 H 18.43 Z M 7.281,5.116 H 8.287 A 3.6,3.6 0 0 0 7.281,6.1 Z m 0,16.659 v -1.333 a 3.594,3.594 0 0 0 1.7,1.333 z m 8.1,-6.587 H 9.256 A 1.635,1.635 0 0 1 7.62,13.553 V 11.966 A 1.636,1.636 0 0 1 9.254,10.33 h 6.128 a 1.634,1.634 0 0 1 1.631,1.636 v 1.586 a 1.635,1.635 0 0 1 -1.634,1.636 z m 1.819,6.587 h -1.7 a 3.589,3.589 0 0 0 1.7,-1.333 z M 17.2,6.1 a 3.62,3.62 0 0 0 -1,-0.981 h 1 z m 0.609,12.6 c 0.007,-0.093 0.012,-0.188 0.012,-0.283 V 18.09 h 1.127 a 0.578,0.578 0 0 1 0.577,0.577 v 0.648 H 18.91 V 18.7 Z m 2.011,1.302001 h 0.202 v 1.056 H 19.82 Z"/>

</svg>