<svg xmlns="http://www.w3.org/2000/svg" viewBox="0 0 24 24"><path fill="#44739e" d="M9.673 13.355a1.6 1.6 0 0 0 .1.548 1.4 1.4 0 0 0 .229.41 1.26 1.26 0 0 0 .844.484 1 1 0 0 0 .148.008 1.26 1.26 0 0 0 .984-.5v.005a1.57 1.57 0 0 0 .312-.96 7.4 7.4 0 0 0-1.322-2.637 7.4 7.4 0 0 0-1.295 2.642m1.615.937a1.4 1.4 0 0 0 .372-.314.77.77 0 0 0 .148-.371 1.3 1.3 0 0 0-.038-.489 5 5 0 0 0-.248-.561l-.136-.272c-.08-.182.043-.313.176-.12a.5.5 0 0 1 .059.093l.091.18a4 4 0 0 1 .267.612 1.5 1.5 0 0 1 .043.594 1.3 1.3 0 0 1-.171.473 1.8 1.8 0 0 1-.474.407c-.161.076-.294-.111-.089-.232m6.45 5.714h.254v1.87h-.254Zm-.658 0h.224v1.317h-.224Zm.317 0h.224v.868h-.224ZM8.532 3.775h4.742v.54H8.532Zm9.578 16.227h.24v1.879h-.24ZM8.027 3.552h5.752a.434.434 0 0 0 0-.868h-1.262l-.023-.01C12.418 2.232 11.615 2 10.821 2s-1.611.234-1.676.683H8.027a.434.434 0 1 0 0 .868Zm2.794-1.171a2 2 0 0 1 .408.029 2.04 2.04 0 0 0-1.138.271h-.537a2.05 2.05 0 0 1 1.267-.3m6.27 17.419h1.591v-1.132a1.066 1.066 0 0 0-1.065-1.068H16.49V8.118a3.55 3.55 0 0 0-.408-1.659V4.9h-1.608a3.56 3.56 0 0 0-1.567-.361H8.896a3.56 3.56 0 0 0-1.567.361H5.724v1.56a3.56 3.56 0 0 0-.407 1.66v10.3a3.56 3.56 0 0 0 .407 1.658v1.913H8.66c.079 0 .159.009.239.009h4.012a2 2 0 0 0 .239-.009h2.932v-1.91a3.5 3.5 0 0 0 .323-.887h.686ZM5.941 5.116h1.006a3.6 3.6 0 0 0-1.006.984Zm0 16.66v-1.334a3.6 3.6 0 0 0 1.7 1.334Zm8.101-6.588H7.916a1.635 1.635 0 0 1-1.636-1.635v-1.587a1.636 1.636 0 0 1 1.634-1.636h6.129a1.634 1.634 0 0 1 1.631 1.636v1.586a1.635 1.635 0 0 1-1.634 1.636Zm1.819 6.588h-1.7a3.6 3.6 0 0 0 1.7-1.334Zm0-15.676a3.6 3.6 0 0 0-1-.981h1Zm.609 12.6a4 4 0 0 0 .012-.283v-.327h1.127a.58.58 0 0 1 .577.577v.648h-.615V18.7Zm2.011 1.302h.202v1.056h-.202Z"/></svg>