<?xml version="1.0" encoding="UTF-8"?>
<svg width="24px" fill="#44739e" height="24px" viewBox="0 0 24 24" version="1.1" xmlns="http://www.w3.org/2000/svg" xmlns:xlink="http://www.w3.org/1999/xlink">
            <path d="m 19.725,10.733 0.451,-0.164 v 1.025 L 21.09,11.266 V 9.901 l -1.365,0.493 z m 0.82,-1.382 A 1.363,1.363 0 1 0 21.9,10.714 1.359,1.359 0 0 0 20.545,9.351 Z m 0,2.526 A 1.163,1.163 0 1 1 21.7,10.714 1.16,1.16 0 0 1 20.545,11.877 Z M 17.5,12.953 v -0.015 a 1.467,1.467 0 0 0 1.033,-1.456 c 0,-1.064 -0.763,-1.613 -2.114,-1.613 h -2.295 v 1.837 H 14.109 C 13.831,10.6 12.9,9.869 11.188,9.869 H 7.953 l -0.492,2.162 c -0.1,0.445 -0.191,1.01 -0.191,1.01 H 7.254 c 0,0 -0.111,-0.628 -0.215,-1.074 L 6.618,9.867 H 4.842 l -0.422,2.1 c -0.1,0.446 -0.214,1.074 -0.214,1.074 H 4.19 c 0,0 -0.09,-0.565 -0.19,-1.01 L 3.506,9.869 H 1.9 l 1.415,5.294 H 4.93 l 0.8,-3.394 h 0.016 l 0.8,3.394 h 1.59 l 1.177,-4.4 h 0.016 v 4.4 h 1.8 c 1.732,0 2.688,-0.794 2.969,-1.93 h 0.015 v 1.93 h 1.462 v -1.87 H 15.7 a 0.882,0.882 0 0 1 0.814,0.36 l 0.9,1.51 h 1.573 L 18.169,13.788 A 2.734,2.734 0 0 0 17.5,12.953 Z m -6.239,1.01 h -0.445 v -2.894 h 0.406 c 0.97,0 1.407,0.429 1.407,1.415 -0.002,0.97 -0.439,1.479 -1.37,1.479 z m 5.126,-1.789 h -0.8 V 10.99 h 0.751 c 0.5,0 0.708,0.2 0.708,0.6 -10e-4,0.361 -0.215,0.584 -0.661,0.584 z"/>

</svg>