<svg xmlns="http://www.w3.org/2000/svg" viewBox="0 0 24 24"><path fill="#44739e" d="M9.497 10.709a4.5 4.5 0 0 1 4.086 2.917l.111.295.311-.059a3 3 0 0 1 .533-.046 2.97 2.97 0 0 1 2.613 1.56l.232.428.193-.182.161-.153a5.223 5.223 0 1 0-8.588-5.239l-.043.152-.088.312Zm5.834-3.377a4.476 4.476 0 0 1 2.21 7.262 3.72 3.72 0 0 0-3.004-1.528q-.192 0-.367.015a5.26 5.26 0 0 0-4.151-3.084 4.494 4.494 0 0 1 5.312-2.665m4.797 1.422.648-.377a.466.466 0 0 0-.465-.807l-.65.373a.467.467 0 0 0 .467.809Zm-2.887-2.413a.474.474 0 0 0 .642-.172l.375-.65a.467.467 0 0 0-.809-.469l-.375.649a.474.474 0 0 0 .167.642m3.535 8.582-.648-.374a.467.467 0 1 0-.467.807l.65.375a.466.466 0 0 0 .465-.809m.755-3.742h-.751a.468.468 0 1 0 0 .938h.751a.468.468 0 1 0 0-.938M7.572 8.377l.65.377a.467.467 0 0 0 .466-.809l-.653-.377a.47.47 0 0 0-.639.171.464.464 0 0 0 .176.638m2.894-2.214a.467.467 0 1 0 .809-.465l-.376-.649a.466.466 0 1 0-.807.465Zm3.709-.649a.47.47 0 0 0 .468-.469v-.751a.468.468 0 1 0-.937 0v.751a.47.47 0 0 0 .469.469m.04 8.727a2.97 2.97 0 0 1 2.943 2.581l.041.327h.333a1.516 1.516 0 0 1 .045 3.025H4.195a2.239 2.239 0 0 1-.039-4.476l.346-.007.022-.345a4.522 4.522 0 0 1 8.74-1.295l.111.296.311-.061a3 3 0 0 1 .529-.045"/></svg>