<?xml version="1.0" encoding="UTF-8"?>
<svg width="24px" fill="#44739e" height="24px" viewBox="0 0 24 24" version="1.1" xmlns="http://www.w3.org/2000/svg" xmlns:xlink="http://www.w3.org/1999/xlink">
            <path d="m 9.5479999,10.581786 a 4.464,4.464 0 0 1 4.0440001,2.887 l 0.11,0.292 0.307,-0.058 a 2.746,2.746 0 0 1 0.528,-0.046 2.937,2.937 0 0 1 2.585,1.544 l 0.23,0.423 0.191,-0.179 0.16,-0.15 a 5.169,5.169 0 1 0 -8.5000001,-5.186 l -0.043,0.15 -0.087,0.308 z M 15.321,7.2407858 v 0 a 4.429,4.429 0 0 1 2.188,7.1860002 3.675,3.675 0 0 0 -2.973,-1.512 c -0.127,0 -0.248,0.005 -0.364,0.015 a 5.2,5.2 0 0 0 -4.108,-3.0520002 4.445,4.445 0 0 1 5.257,-2.637 z m 4.747,1.406 0.642,-0.372 a 0.462,0.462 0 0 0 -0.46,-0.8 l -0.643,0.371 a 0.463,0.463 0 0 0 0.461,0.8 z m -2.857,-2.387 a 0.468,0.468 0 0 0 0.636,-0.171 l 0.371,-0.643 a 0.463,0.463 0 0 0 -0.8,-0.464 l -0.372,0.642 a 0.47,0.47 0 0 0 0.165,0.636 z m 3.499,8.4930002 -0.642,-0.371 a 0.463,0.463 0 1 0 -0.461,0.8 l 0.643,0.371 a 0.462,0.462 0 0 0 0.46,-0.8 z m 0.747,-3.703 h -0.743 a 0.46400015,0.46400015 0 1 0 0,0.928 h 0.743 a 0.46400015,0.46400015 0 1 0 0,-0.928 z M 7.6429999,8.2747858 l 0.643,0.372 a 0.463,0.463 0 0 0 0.461,-0.8 l -0.647,-0.374 a 0.466,0.466 0 0 0 -0.632,0.171 0.461,0.461 0 0 0 0.175,0.631 z m 2.8640001,-2.191 a 0.463,0.463 0 1 0 0.8,-0.461 l -0.371,-0.642 a 0.462,0.462 0 1 0 -0.8,0.46 z m 3.67,-0.643 a 0.464,0.464 0 0 0 0.464,-0.464 v -0.743 a 0.464,0.464 0 1 0 -0.928,0 v 0.743 a 0.464,0.464 0 0 0 0.464,0.464 z m 0.04,8.6370002 a 2.939,2.939 0 0 1 2.912,2.554 l 0.041,0.324 h 0.33 a 1.5,1.5 0 0 1 0.044,2.994 H 4.2999999 a 2.216,2.216 0 0 1 -0.038,-4.431 l 0.342,-0.006 0.022,-0.341 a 4.475,4.475 0 0 1 8.6500001,-1.282 l 0.11,0.293 0.308,-0.06 a 2.807,2.807 0 0 1 0.523,-0.045 z"/>

</svg>