<?xml version="1.0" encoding="UTF-8"?>
<svg width="33px" height="32px" viewBox="0 0 33 32" version="1.1" fill="#44739e" xmlns="http://www.w3.org/2000/svg" xmlns:xlink="http://www.w3.org/1999/xlink">
            <path d="M20.20215,8.19141a16.88894,16.88894,0,0,0-4.63281-3.749,7.79484,7.79484,0,0,0-3.43457-.93213A.49078.49078,0,0,0,12,3.52881a.49078.49078,0,0,0-.13477-.01856,7.79149,7.79149,0,0,0-3.43457.93213,16.89625,16.89625,0,0,0-4.63281,3.749,7.41717,7.41717,0,0,0-1.89062,5.28222c.13818,1.58985,1.0791,3.57813,2.55224,4.13086a6.92727,6.92727,0,0,0,1.40418.27051l.652,1.58594a.50147.50147,0,0,0,.41651.30761c.02637.002,2.68555.24415,5.59473.24415a32.89387,32.89387,0,0,0,4.55908-.248.4999.4999,0,0,0,.38183-.29395l.69965-1.59942a6.80067,6.80067,0,0,0,1.3736-.26679c1.47363-.55273,2.41406-2.541,2.55175-4.13086A7.41647,7.41647,0,0,0,20.20215,8.19141ZM16.665,18.81152a36.6298,36.6298,0,0,1-4.13818.20118c-2.29639,0-4.43409-.15332-5.20264-.21485l-.33466-.81433c1.71326.13605,3.78363.19281,4.9079.21472l.00049-.0166a.76332.76332,0,0,0,.16748.02051h.01367c.02735-.001.05615-.002.084-.00488,1.141-.023,3.17846-.08069,4.8648-.21534Zm4.43164-5.42382c-.11035,1.27441-.87109,2.8916-1.90723,3.28125a41.11332,41.11332,0,0,1-7.10644.52929.61743.61743,0,0,0-.07373.00684l-.00049-.00488h-.001c-.00537,0-.02588,0-.04785.001a.31284.31284,0,0,0-.043-.00293A41.118,41.118,0,0,1,4.81055,16.669C3.7749,16.2793,3.01416,14.66309,2.90332,13.3877A6.43869,6.43869,0,0,1,4.5293,8.873,15.99092,15.99092,0,0,1,8.87793,5.33691a6.823,6.823,0,0,1,2.9873-.82666A.49077.49077,0,0,0,12,4.4917a.49077.49077,0,0,0,.13477.01855,6.823,6.823,0,0,1,2.9873.82666A15.97328,15.97328,0,0,1,19.46973,8.873,6.44,6.44,0,0,1,21.09668,13.3877Z"></path>

</svg>