<?xml version="1.0" encoding="UTF-8"?>
<svg width="33px" height="32px" viewBox="0 0 33 32" fill="#44739e" version="1.1" xmlns="http://www.w3.org/2000/svg" xmlns:xlink="http://www.w3.org/1999/xlink">
            <path d="M20.20215,8.47339a16.88873,16.88873,0,0,0-4.63281-3.749,7.7947,7.7947,0,0,0-3.43457-.93213A.49077.49077,0,0,0,12,3.81079a.49077.49077,0,0,0-.13477-.01855,7.79136,7.79136,0,0,0-3.43457.93213,16.896,16.896,0,0,0-4.63281,3.749,7.41718,7.41718,0,0,0-1.89062,5.28223c.13818,1.58984,1.0791,3.57812,2.55224,4.13085,1.14112.42774,5.582.55762,7.438.59375l.00049-.0166a.76332.76332,0,0,0,.16748.02051h.01367c.02735-.001.05615-.002.084-.00488,1.89062-.03809,6.249-.16992,7.37793-.59278,1.47363-.55273,2.41406-2.541,2.55175-4.13085A7.41648,7.41648,0,0,0,20.20215,8.47339Z M16.93953,19.20629a32.71168,32.71168,0,0,1-4.40625.23633c-2.86133,0-5.477-.23731-5.50293-.24024a.50955.50955,0,0,0-.544.45215.50009.50009,0,0,0,.45215.54395c.02637.002,2.68555.24414,5.59473.24414a32.85621,32.85621,0,0,0,4.55859-.24805.5.5,0,1,0-.15234-.98828Z"></path>
 
</svg>