<svg xmlns="http://www.w3.org/2000/svg" viewBox="0 0 24 24"><path fill="#44739e" d="M20.082 8.537a19.8 19.8 0 0 0-4.519-3.721 5.85 5.85 0 0 0-3.455-1.064h-.532a5.1 5.1 0 0 0-3.19 1.064 12.2 12.2 0 0 0-4.519 3.721 7.67 7.67 0 0 0-1.861 5.317c.266 1.599 1.063 3.456 2.658 3.988a2.4 2.4 0 0 0 1.33.266l.531 1.599a.26.26 0 0 0 .266.265s2.658.266 5.582.266a26 26 0 0 0 4.524-.27.26.26 0 0 0 .266-.265l.799-1.599a2.4 2.4 0 0 0 1.329-.266c1.599-.532 2.393-2.659 2.659-3.988a6.3 6.3 0 0 0-1.861-5.317m-3.463 10.372a21.5 21.5 0 0 1-4.253.266 36 36 0 0 1-5.316-.266v-.799a32 32 0 0 0 4.785.265h.266a32 32 0 0 0 4.784-.265Zm4.519-5.317c0 1.33-.799 2.925-1.861 3.19a32.7 32.7 0 0 1-7.176.532 34 34 0 0 1-7.444-.532c-.799-.265-1.599-1.86-1.86-3.19a7.2 7.2 0 0 1 1.599-4.519 17.4 17.4 0 0 1 4.249-3.456 5.36 5.36 0 0 1 2.924-.799h.532a5.36 5.36 0 0 1 2.923.799 13.5 13.5 0 0 1 4.253 3.456 6.23 6.23 0 0 1 1.861 4.523"/></svg>