<svg xmlns="http://www.w3.org/2000/svg" viewBox="0 0 24 24"><path fill="#44739e" d="M20.721 14.558 18.628 4.326c0-.466-.465-2.326-6.744-2.326C5.372 2 5.14 4.326 5.14 4.326L3.279 14.791a1.81 1.81 0 0 0 .465 1.86 4.83 4.83 0 0 0 2.326 1.4 2.32 2.32 0 0 0 1.163.93S6.767 22 11.884 22s4.883-2.326 5.116-3.256l1.395-.7a7.6 7.6 0 0 0 1.861-1.4 2.23 2.23 0 0 0 .465-2.093m-1.163 1.628c-.93.93-2.791 2.093-7.674 2.093-5.117 0-6.977-1.163-7.442-1.86a3.3 3.3 0 0 1-.465-1.4L6.07 4.326S6.3 2.7 11.651 2.7h.233c4.651 0 5.816 1.16 5.816 1.626l2.093 10.232a1.91 1.91 0 0 1-.233 1.628"/></svg>