<?xml version="1.0" encoding="UTF-8"?>
<svg width="24px" fill="#44739e" height="24px" viewBox="0 0 24 24" version="1.1" xmlns="http://www.w3.org/2000/svg" xmlns:xlink="http://www.w3.org/1999/xlink">
            <path d="M 22,8.587 20.19,8.459 A 0.445,0.445 0 0 1 19.778,8.017 V 6.726 A 0.259,0.259 0 0 0 19.586,6.47 0.263,0.263 0 0 0 19.506,6.458 0.255,0.255 0 0 0 19.286,6.581 L 18.563,7.7 a 0.265,0.265 0 0 0 -0.038,0.2 l 0.032,0.166 a 0.444,0.444 0 0 1 -0.369,0.523 l -3.616,0.546 a 0.267,0.267 0 0 0 -0.168,0.1 l -2.3,2.863 a 0.267,0.267 0 0 0 -0.05,0.236 l 0.033,0.126 A 0.265,0.265 0 0 0 12.256,12.644 0.261,0.261 0 0 0 12.5,12.6 l 0.283,-0.208 a 0.276,0.276 0 0 0 0.055,-0.053 l 1.9,-2.51 a 0.443,0.443 0 0 1 0.285,-0.17 l 3.358,-0.527 a 0.439,0.439 0 0 1 0.491,0.3 0.267,0.267 0 0 0 0.347,0.17 z m -9.224,4.559 a 2.2,2.2 0 1 0 2.2,2.2 2.2,2.2 0 0 0 -2.2,-2.2 z m -1.463,2.2 a 1.463,1.463 0 1 1 1.463,1.463 1.464,1.464 0 0 1 -1.463,-1.465 z M 4.946,11.65 A 2.946,2.946 0 1 0 7.892,14.6 2.95,2.95 0 0 0 4.946,11.65 Z M 3.033,14.6 A 1.913,1.913 0 1 1 4.946,16.513 1.914,1.914 0 0 1 3.033,14.6 Z M 10.4,10.762 A 2.252,2.252 0 0 0 10.285,10.211 L 9.407,7.655 A 0.168,0.168 0 0 0 9.247,7.541 h -2.4 a 0.169,0.169 0 0 0 -0.169,0.17 l 0.013,2.12 a 1.051,1.051 0 0 0 0.135,0.508 l 0.73,1.293 a 0.368,0.368 0 0 1 0.021,0.045 l 0.469,1.2 a 0.168,0.168 0 0 0 0.157,0.108 H 10.4 a 0.17,0.17 0 0 0 0.168,-0.183 z m -3.184,-0.5 a 0.182,0.182 0 0 1 -0.167,-0.2 L 7.067,7.98 A 0.182,0.182 0 0 1 7.233,7.788 L 9.006,7.78 a 0.173,0.173 0 0 1 0.16,0.136 L 9.893,10.1 a 0.127,0.127 0 0 1 -0.12,0.167 z m 5.673,2.275 -0.283,0.208 A 0.449,0.449 0 0 1 12.343,12.831 0.448,0.448 0 0 1 11.914,12.5 l -0.033,-0.126 a 0.443,0.443 0 0 1 0.083,-0.391 L 13,10.69 12.439,10.559 h -1.275 l -1.21,-3.5 H 6.031 V 10.12 H 5.491 L 3.66,10.51 v 1.241 a 3.123,3.123 0 0 1 4.24,3.86 h 2.4 l 0.105,-0.188 c 0,-0.026 0,-0.053 0,-0.079 a 2.374,2.374 0 0 1 3.831,-1.875 H 14.4 v -2.452 l -0.288,-0.067 -1.133,1.5 a 0.485,0.485 0 0 1 -0.09,0.087 z m -2.24,0.517 a 0.351,0.351 0 0 1 -0.254,0.111 H 8.2 a 0.343,0.343 0 0 1 -0.322,-0.22 l -0.469,-1.2 -0.01,-0.022 -0.73,-1.294 A 1.227,1.227 0 0 1 6.512,9.836 L 6.5,7.712 a 0.345,0.345 0 0 1 0.1,-0.246 0.348,0.348 0 0 1 0.245,-0.1 h 2.4 A 0.346,0.346 0 0 1 9.572,7.6 l 0.875,2.556 a 2.4,2.4 0 0 1 0.124,0.594 l 0.166,2.043 a 0.348,0.348 0 0 1 -0.088,0.261 z"/>

</svg>