<svg xmlns="http://www.w3.org/2000/svg" viewBox="0 0 24 24"><path fill="#44739e" d="m14.516 6.445-1.322 1.327a1.496 1.496 0 0 0 0 2.115l.789.789a1.84 1.84 0 0 1 .52 1.595l2.923-2.923a1.496 1.496 0 0 0 0-2.114l-.788-.789a1.5 1.5 0 0 0-2.122 0m.632 1.27-1.002 1.003.38.381.907-.907.4.4-.907.906.527.527-.468.464-1.706-1.702 1.474-1.474Zm2.014.592-.438.437-1.233-1.238.437-.438Zm-1.585-1.151a.316.316 0 0 1-.468.033.362.362 0 1 1 .468-.033m-3.88 3.017a.32.32 0 0 0-.039.464.363.363 0 1 0 .039-.464m-.575 1.339c.202.281.453.624.637.843a11 11 0 0 0-.864-.611l-.345-.229-.433.433.228.346a11 11 0 0 0 .611.864 16 16 0 0 0-.842-.638l-.331-.24-.487.487 2.107 1.297.431-.431-.292-.447a12 12 0 0 0-.589-.823c.134.114.505.381.823.589l.447.292.445-.437L11.37 10.7l-.481.482Zm.916-.553.439-.438 1.238 1.238-.438.438Zm-8.646 7.587.424-.423.593.593-.425.423Zm1.469 1.468.423-.423.593.593-.423.423Zm11.76-17.266L6.629 12.74l-1.693 1.694.366.367L2 18.103 5.897 22l3.302-3.302.368.366L21.252 7.379c.772-.772.98-1.815.466-2.329l-2.767-2.768c-.515-.514-1.558-.305-2.33.466m-8.951 16.8-1.864 1.864-1.525-1.524.932-.932-.438-.437.41-.41.437.438.527-.527Zm-1.695-1.693-.353.353-.433-.438-.747.749.438.437-.763.762-1.53-1.525 1.865-1.863ZM17.672 6.982a1.854 1.854 0 0 1 0 2.618l-5.127 5.127a1.854 1.854 0 0 1-2.618 0l-.789-.789a1.854 1.854 0 0 1 0-2.619l5.127-5.126a1.854 1.854 0 0 1 2.618 0Z"/></svg>