<svg xmlns="http://www.w3.org/2000/svg" fill="#44739e" width="24.396" height="32.314" viewBox="0 0 456 604">
  <path id="Colore_riempimento_1" data-name="Colore riempimento 1" class="cls-1" d="M46,0H410V1h4V2h3V3l6,2V6h2l5,6,3,2c12.983,19.155,4.316,65.868,9,94v30c2.722,9.717.483,24.526,1,36q1,22,2,44v28c1.8,6.413.9,16.938,1,25v5h1v40c1.99,7.1.606,18.26,1,27v3h1v32q1.5,41,3,82,0.5,32,1,64c1.979,7.1.606,18.256,1,27,0.233,5.16,2.828,16.7,1,23h-1v5h-1v3h-1v2l-9,12h-2l-1,2h-2l-1,2c-7.484,4.7-19.9,4-32,4H52c-6.813,0-15.8.563-21-1H26v-1H23v-1H21L9,592v-2l-2-1v-2l-2-1v-2H4v-2H3v-3H2v-5H1c-1.945-6.754.867-18.257,1-24,0.195-8.388-.892-19.265,1-26v-9c0.008-9.5-1.186-22.216,1-30V455c1.634-5.8,1-15.564,1-23l1-28V385c2.189-7.781.992-20.5,1-30v-9H8V316c3.083-10.96-1.088-26.507,1-39,0.916-5.482,1-13.975,1-21V246h1V232c0-8.028-.787-18.63,1-25V177h1v-9c0.008-9.5-1.185-22.216,1-30l2-81c0-6.259-.316-14.321,1-19,1.377-4.9-.7-10.022,1-14h1V22h1V19l2-1,1-4,2-1,6-7h2V5l6-2V2h3V1h4V0ZM339,12V58c-2.937,1.709-2.863,2.891-8,3a21.882,21.882,0,0,0-4-5V12H269c0.085,15.168,1.451,33.546-1,47-2.449,1.091-3.225,1.813-7,2l-3-4h-1V12H199V57c-3.146,1.873-2.838,3.7-8,4-1.72-2.135-2.033-.566-3-4-1.812-2.048-1-8.3-1-12V12H129V45c0,4.206.763,10.318-1,13h-1c-2.066,2.518-2.221,2.919-7,3a19.841,19.841,0,0,0-3-3V12H47c-2.324.741-4.921,2.382-8,3l-5,6-2,1L28,34l-2,95c-2.191,7.779-.992,20.5-1,30v9c-1.9,6.733-.8,17.614-1,26v4H23v12c0,9.535.313,21.063-1,29-1.546,9.345,1.225,21.106-1,29v9c-0.008,9.5,1.192,22.222-1,30v30H19v9c-0.009,9.8,1.272,22.94-1,31v18l-1,28c0,7.435.635,17.2-1,23v30c-2.512,8.98-.869,23.257-1,34l-1,22v13c-0.892,3.2-2.407,24.644-1,29h1v3h1v2h1v2l2,1v2l2,1c7.353,7.635,15.147,7,30,7H425v-1h3v-1h2v-1l4-1,3-4h1v-2l2-1c3.21-5.107,3-12.7,3-21V545h-1V515h-1V478c-0.463-5.344-1-13.176-1-20V446h-1V436c0-9.2,1.114-21.506-1-29V377h-1V337c-1.642-5.811-.976-15.558-1-23q-0.5-12.5-1-25V272c-1-4.037-1-14.716-1-23V238h-1V202c-1-4.036-1-14.717-1-23V168h-1V151q-1.5-47.494-3-95c-0.284-12.4,1.074-26.446-4-34l-4-3c-1.91-1.9-1.771-3.144-5-4-3.9-3.871-14.158-3-22-3H339ZM166,514h81c14.582,0,32.111-1.314,45,1l1,3h1c0.943,1.683-1.787,6.883-2,7h-2c-1.7,1.491-5.808,1-9,1H198c-11.132,0-24.485.741-34-1l-1-3C159.867,518.6,164.434,515.847,166,514Z"/>
</svg>
