<?xml version="1.0" encoding="UTF-8"?>
<svg width="24px" fill="#44739e" height="24px" viewBox="0 0 24 24" version="1.1" xmlns="http://www.w3.org/2000/svg" xmlns:xlink="http://www.w3.org/1999/xlink">
            <path d="M 14.255,6.86 13,8.12 a 1.422,1.422 0 0 0 0,2.008 l 0.749,0.749 a 1.754,1.754 0 0 1 0.493,1.514 l 2.775,-2.775 a 1.42,1.42 0 0 0 0,-2.007 L 16.269,6.86 a 1.423,1.423 0 0 0 -2.014,0 z m 0.6,1.206 -0.952,0.952 0.361,0.362 0.861,-0.861 0.38,0.38 -0.861,0.86 0.5,0.5 -0.444,0.441 -1.62,-1.616 1.4,-1.4 z M 16.767,8.628 16.351,9.043 15.18,7.868 15.595,7.452 Z M 15.262,7.535 A 0.3,0.3 0 0 1 14.818,7.567 0.344,0.344 0 1 1 15.262,7.535 Z M 11.578,10.4 a 0.306,0.306 0 0 0 -0.037,0.44 0.345,0.345 0 1 0 0.037,-0.44 z m -0.546,1.271 c 0.192,0.267 0.43,0.592 0.605,0.8 a 9.71,9.71 0 0 0 -0.82,-0.58 l -0.328,-0.217 -0.411,0.411 0.217,0.328 a 9.513,9.513 0 0 0 0.58,0.821 c -0.208,-0.176 -0.534,-0.414 -0.8,-0.606 L 9.761,12.4 l -0.462,0.462 2,1.232 0.409,-0.409 -0.277,-0.425 c -0.2,-0.3 -0.451,-0.654 -0.559,-0.781 0.127,0.108 0.479,0.362 0.781,0.559 l 0.425,0.277 0.422,-0.415 -1.232,-2 -0.457,0.458 z m 0.870752,-0.525153 0.415779,-0.415778 1.175212,1.175211 -0.415779,0.415779 z m -8.2091429,7.203643 0.4023437,-0.402344 0.562857,0.562857 -0.4023437,0.402344 z m 1.3944142,1.394001 0.4023438,-0.402344 0.562857,0.562857 -0.4023438,0.402344 z M 16.253,3.35 l -9.486,9.487 -1.608,1.608 0.348,0.348 -3.135,3.135 3.7,3.7 3.135,-3.135 0.349,0.348 L 20.65,7.747 C 21.383,7.014 21.58,6.024 21.092,5.536 L 18.465,2.908 C 17.976,2.42 16.986,2.618 16.253,3.35 Z M 7.755,19.3 5.985,21.07 4.538,19.623 5.422,18.738 5.007,18.323 l 0.389,-0.389 0.415,0.416 0.5,-0.5 z M 6.146,17.693 5.811,18.028 5.4,17.612 4.69,18.323 5.106,18.738 4.382,19.462 2.929,18.014 4.7,16.245 Z M 17.251,7.37 a 1.761,1.761 0 0 1 0,2.486 l -4.868,4.867 a 1.759,1.759 0 0 1 -2.485,0 L 9.149,13.974 a 1.76,1.76 0 0 1 0,-2.486 l 4.867,-4.867 a 1.761,1.761 0 0 1 2.486,0 z"/>

</svg>