<svg xmlns="http://www.w3.org/2000/svg" viewBox="0 0 24 24"><path fill="#44739e" d="M19.07 3.98h-1.235a1 1 0 0 0-1 1V19.5a1 1 0 0 0 1 1h1.235a1 1 0 0 0 1-1V4.979a1 1 0 0 0-1-.999m-1 9.6a.23.23 0 0 1-.229.227h-.237a.227.227 0 0 1-.226-.227v-3.531a.227.227 0 0 1 .226-.227h.237a.23.23 0 0 1 .229.227ZM13.254 2H5.992A2.07 2.07 0 0 0 3.93 4.063v15.874A2.07 2.07 0 0 0 5.992 22h7.263a2.07 2.07 0 0 0 2.063-2.063V4.063A2.07 2.07 0 0 0 13.254 2m1.007 11.58a.227.227 0 0 1-.227.227h-.233a.227.227 0 0 1-.228-.227v-3.531a.227.227 0 0 1 .228-.227h.239a.227.227 0 0 1 .227.227Z"/></svg>