<svg xmlns="http://www.w3.org/2000/svg" viewBox="0 0 24 24"><path fill="#44739e" d="M12.593 21.906H22V12.5h-9.407Zm.292-9.115h8.823v8.823h-8.823Zm-10.872 9.12h9.417v-9.417H2.013Zm9.176-.614-.372.372h-.311l.683-.683Zm0-.652-1.025 1.024h-.318l1.343-1.342Zm0-.66-1.684 1.684h-.337l.052-.051 1.969-1.969Zm0-.677-2.362 2.361h-.344l.052-.051 2.654-2.654Zm0-.685-3.047 3.046h-.328l.051-.051 3.324-3.318Zm0-.67-3.716 3.716h-.312l.052-.051 3.976-3.976Zm0-.652L6.82 21.669h-.311l.051-.051 4.629-4.629Zm0-.653-5.022 5.021h-.328l.051-.051 5.3-5.3Zm0-.67L5.5 21.669h-.346l.052-.051 5.983-5.983Zm0-.685-6.376 6.376h-.381l.052-.051 6.705-6.7Zm0-.721-7.1 7.1h-.342l.052-.051 7.39-7.39Zm0-.685-7.783 7.782h-.328l.052-.051 8.059-8.059Zm0-.67-8.452 8.452h-.312l.052-.051 8.712-8.712Zm-8.934-.482h.121l-.121.121Zm0 .463.462-.463h.3l-.763.764Zm0 .642 1.1-1.105h.319l-1.419 1.423Zm0 .66 1.764-1.765h.318l-.051.052-2.031 2.03Zm0 .659 2.423-2.424h.344l-.051.052L2.255 15.5Zm0 .685 3.108-3.109h.328l-.051.052-3.385 3.385Zm0 .669 3.778-3.778h.311l-.051.052-4.038 4.038Zm0 .653 4.43-4.431H7l-.052.052-4.69 4.69Zm0 .653 5.083-5.084h.328l-.051.052-5.36 5.36Zm0 .669 5.753-5.753h.343l-.051.052-6.045 6.045Zm0 .685 6.438-6.438h.318l-.052.052-6.7 6.705Zm0 .66 7.1-7.1H9.7l-.051.052-7.39 7.389Zm0 .685 7.782-7.783h.328l-.051.052-8.059 8.059Zm0 .669 8.452-8.452h.311l-.051.052L2.255 21.5ZM7.891 2.089H2v9.414h9.443V2.089H8.316Zm4.939.241v.372l.373-.372Zm8.523 8.932.41-.409v-.516l-.925.925Zm.261-.47-.322.322h-.1l.418-.419Zm-.902.47 1.051-1.05v-.523l-1.574 1.573Zm.9-1.112-.963.964h-.1l1.067-1.067Zm-7.004-7.82L12.83 4.108v.522l2.3-2.3Zm-1.63 1.84 1.692-1.692h.1l-1.792 1.794Zm.35-1.84-.5.5v.505l1-1Zm-.35.559.412-.411h.086l-.5.5Zm.982-.559-1.13 1.129v.523l1.653-1.652Zm-.982 1.191 1.043-1.043h.1l-1.143 1.146Zm1.889 7.741h.583l6.313-6.312v-.584l-6.72 6.719Zm6.747-6.538v.165l-6.225 6.225h-.165Zm-4.706 6.538h.516l4.339-4.339v-.516l-4.678 4.678Zm4.706-4.5v.1l-4.252 4.252h-.1ZM15.257 2.33 12.83 4.756V5.3l2.97-2.97Zm-2.279 2.488 2.34-2.34h.128l-2.468 2.468Zm1.215 6.444h.548l7.022-7.022v-.547l-7.393 7.392Zm7.421-7.211v.128l-6.935 6.935h-.128Zm-5.364 7.211h.532l4.981-4.98v-.533l-5.337 5.336Zm5.364-5.155v.113l-4.893 4.894h-.114Zm-2.89 5.155 3.039-3.038v-.533l-3.571 3.571Zm2.89-3.1-2.952 2.952h-.113l3.065-3.065Zm-2.214 3.1L21.763 8.9v-.551l-2.913 2.913Zm2.217-2.427-2.278 2.279h-.129l2.407-2.407Zm-4.067 2.427h.515l3.7-3.7v-.513l-4.036 4.036Zm4.064-3.855v.1L18 11.114h-.1Zm-1.55 3.855 1.7-1.7v-.54l-2.24 2.239Zm1.55-1.76L20 11.114h-.121l1.733-1.733Zm-8.079 1.76h.532l7.7-7.695v-.532l-8.051 8.05Zm8.079-7.869v.112l-7.608 7.609h-.113Zm-8.721 7.869h.516l8.354-8.353v-.516l-8.693 8.692Zm8.721-8.511v.1l-8.266 8.267h-.1Zm-6.038 8.511h.548l5.639-5.638v-.548l-6.01 6.009Zm6.038-5.828v.128l-5.552 5.552h-.128ZM19.726 2.33H19.2L12.83 8.7v.523l6.719-6.719Zm-6.748 6.538v-.1l6.287-6.287h.1Zm6.099-6.538h-.547l-5.7 5.7v.547l6.07-6.07Zm-6.1 5.889v-.128l5.613-5.613h.129ZM18.4 2.33h-.532L12.83 7.372V7.9l5.4-5.4Zm-5.422 5.216v-.113l4.955-4.955h.113Zm8.08-5.216h-.532l-7.7 7.7v.533l8.051-8.051Zm-8.08 7.87v-.113l7.609-7.609h.113ZM21.7 2.33h-.515l-8.355 8.353v.517l8.693-8.693Zm-8.721 8.512v-.1l8.267-8.267h.1ZM20.4 2.33h-.548L12.83 9.352V9.9l7.393-7.392Zm-7.422 7.211v-.128l6.935-6.935h.129Zm4.768-7.211h-.516l-4.4 4.4v.516l4.739-4.739Zm-4.768 4.557v-.1l4.313-4.313h.1Zm-.385-4.795V11.5H22V2.092Zm9.259 9.259h-9.111v-9.11h9.111ZM17.1 2.33h-.516L12.83 6.088V6.6l4.1-4.1Zm-4.122 3.916v-.1l3.672-3.668h.1ZM15.93 2.33l-3.1 3.1v.532l3.632-3.632Zm-2.952 3.161 3.013-3.013h.109L12.978 5.6Z"/></svg>