<svg xmlns="http://www.w3.org/2000/svg" xmlns:xlink="http://www.w3.org/1999/xlink" width="32" height="32.397" viewBox="-1.065 0 70.129 71">
    <style>path{fill:#000}@media (prefers-color-scheme:dark){path{fill:#fff}}</style>
    <clipPath id="clip-path">
      <rect width="68" height="71"/>
    </clipPath>
  <g clip-path="url(#clip-path)">
    <path id="Colore_riempimento_1" data-name="Colore riempimento 1" class="cls-1" d="M11,2c9.871-.079,21.718-0.525,30,1l1,3h1c1.408,3.883-1.361,9.362,1,12,2.533-4.322,11.221-3.189,18-3,2.888,7.834,1.05,25.943,1,36a21.272,21.272,0,0,0-3,3H45a3.983,3.983,0,0,0-2-2v9l-5,4v1H10c-1.139-1.139,0-.4-2-1L7,62C4.759,59.5,6,50.374,6,46V7H7ZM9,63c7.718,1.382,18.718,1.012,28,1l3-4h1V6L38,5C35.616,2.861,17.123,3.914,12,4L9,8H8V61C9.139,62.139,8.4,61,9,63ZM61,17H47c-3.781,7.294-2.075,23.379-2,34,3.334,1.248,9.175,1.047,14,1C62.884,44.5,61.075,27.857,61,17ZM38,31h1v5H38V35H37C36.105,33.176,37.688,31.9,38,31Zm9,1,2,1v1H48v1H47V32Z"/>
  </g>
</svg>
