<svg xmlns="http://www.w3.org/2000/svg" viewBox="0 0 24 24"><path fill="#44739e" d="M8.667 19.458v1.29c1.192 1.837 6.098 1.515 6.666-.075v-1.215c-.19.701-3.929 2.336-6.666 0m.016-.165a6.6 6.6 0 0 0 1.52.808 6.4 6.4 0 0 0 3.673.018 4.4 4.4 0 0 0 1.401-.788l-.059-.794c-.942 1.752-5.232 1.573-6.435.027l-.024-.007ZM17.201 7.92c.034.272-.656 1.497-4.832 1.806l.015.74a10.5 10.5 0 0 1-4.537-.701l.274-.658c-1.152-.525-1.283-.832-1.343-1.139l-.139.468v8.386a1.26 1.26 0 0 0 .291.639 3.36 3.36 0 0 0 1.83 1.091v-.02l.022.027c2.416.748 6.411.719 8.313-1.157a.8.8 0 0 0 .222-.567l.044-8.253a2 2 0 0 0-.16-.662m-8.912 3.824a.09.09 0 0 1-.105.014l-.405-.189.009.572c0 .109-.058.164-.132.127a.25.25 0 0 1-.099-.106.4.4 0 0 1-.043-.157l-.016-.566-.373-.175A.33.33 0 0 1 6.986 11a.2.2 0 0 1 .03-.13.07.07 0 0 1 .09-.02l.38.168-.018-.619c0-.126.058-.203.138-.171a.22.22 0 0 1 .105.108.4.4 0 0 1 .046.18l.011.627.413.183a.33.33 0 0 1 .15.286.18.18 0 0 1-.042.132m1.713 4.674-.087-.051a.27.27 0 0 0 .046-.149.14.14 0 0 0-.099-.153c-.056-.014-.087.013-.116.094-.04.11-.1.151-.179.132a.27.27 0 0 1-.186-.272.3.3 0 0 1 .038-.149l.082.049a.2.2 0 0 0-.034.125.13.13 0 0 0 .086.131c.052.013.075-.021.106-.099.041-.106.099-.15.191-.128a.28.28 0 0 1 .198.297.3.3 0 0 1-.046.173m.036.29-.645-.17v-.12l.644.166Zm-.321-.9a.41.41 0 0 1-.339-.377c0-.206.175-.226.289-.198l.054.014.005.453c.157.032.22-.056.218-.175a.5.5 0 0 0-.036-.187h.084a.6.6 0 0 1 .043.225.233.233 0 0 1-.318.245m-.339-1.085.104.018v.038a.2.2 0 0 0 .144.18q.024.008.053.015l.338.063v.115l-.435-.083a3 3 0 0 0-.191-.032v-.099l.12.018a.24.24 0 0 1-.134-.199l-.003-.034ZM9.22 16.36a.09.09 0 0 1 .069.093.052.052 0 0 1-.069.054.1.1 0 0 1-.069-.093.051.051 0 0 1 .069-.054m-.068 1.348v-.13l.449.025c.113.006.228.016.317.026-.093-.044-.198-.108-.319-.176l-.447-.263v-.129l.446.014c.107 0 .214.009.31.022-.099-.048-.198-.104-.314-.165l-.442-.245v-.122l.893.512v.131l-.475-.016a2 2 0 0 1-.289-.022c.087.042.174.089.29.159l.481.283v.135Zm4.295-5.629a.15.15 0 0 1-.152.152h-1.459a.153.153 0 0 1-.152-.152v-.251a.15.15 0 0 1 .152-.151h1.455a.15.15 0 0 1 .107.045.15.15 0 0 1 .044.106Zm3.907-3.463v-.012Zm-7.9 6.841a.25.25 0 0 0 .185.22v-.342c-.075-.017-.185-.008-.185.122m7.747-7.537a1.5 1.5 0 0 0 .141-.243V3.806c-.292 1.157-2.498 1.839-5.32 1.8-2.78-.039-4.701-.468-5.361-1.796v3.956c1.161 1.734 4.743 1.736 5.317 1.736.451 0 4.165-.092 5.221-1.58v-.021Zm-.151-4.234a5.028 1.686 0 0 1-5.028 1.685 5.028 1.686 0 0 1-5.028-1.685A5.028 1.686 0 0 1 12.022 2a5.028 1.686 0 0 1 5.028 1.686"/></svg>