<svg xmlns="http://www.w3.org/2000/svg" viewBox="0 0 24 24"><path fill="#44739e" d="M11.973 8.748c-.412.006-.526.277-.442.747a.292.292 0 0 1-.457.323.324.324 0 0 1-.063-.501c.295-.322.351-1.123-.641-1.771.556 1.309-.39 1.275-.817 2.016a1.638 1.638 0 0 0 1.056 2.213 1.237 1.237 0 0 1-.243-1.832c-.1.54.215.939.564.858a.564.564 0 0 1 .64.561.4.4 0 0 1-.25.466 1.2 1.2 0 0 0 1.157-1.402c-.078-.838-.788-1.022-.504-1.678m9.538 10.053-.264-14.743a1.74 1.74 0 0 0-1.314-1.487S5.725 2.009 5.577 2a2.7 2.7 0 0 0-.894.174c-.026.011-.436.182-.422.247l15.301.609a1.55 1.55 0 0 1 1.214 1.502l.1 15.898c.076.02.242-.264.386-.548a2.3 2.3 0 0 0 .249-1.081M18.659 3.267 4.335 2.775a1.785 1.785 0 0 0-1.846 1.817l.285 14.351a1.785 1.785 0 0 0 1.621 1.743l14.191 1.307a1.786 1.786 0 0 0 1.95-1.796l-.154-15.164a1.78 1.78 0 0 0-1.723-1.766m-8.479.749.007.2h.009a.31.31 0 0 1 .3-.208.2.2 0 0 1 .057.007v.171a.3.3 0 0 0-.068-.008.26.26 0 0 0-.269.224.4.4 0 0 0-.009.084v.53l-.2-.007v-.687c0-.118 0-.219-.009-.311Zm-.867-.049a.45.45 0 0 1 .452.482l-.006.084-.769-.026a.35.35 0 0 0 .375.357.8.8 0 0 0 .3-.041l.034.13a.9.9 0 0 1-.364.049.5.5 0 0 1-.538-.517.483.483 0 0 1 .516-.518m-1.081.536c-.194-.07-.287-.171-.287-.29 0-.158.142-.284.375-.277a.6.6 0 0 1 .267.07l-.05.129a.5.5 0 0 0-.222-.065c-.116 0-.181.056-.181.129s.065.121.206.175c.188.071.285.16.285.307 0 .173-.148.291-.406.281a.7.7 0 0 1-.301-.077l.049-.135a.56.56 0 0 0 .26.08c.144 0 .211-.058.211-.139s-.058-.135-.206-.188m-.666-.956a.116.116 0 0 1 .121.116.108.108 0 0 1-.125.106.117.117 0 0 1-.118-.114.11.11 0 0 1 .122-.108m.1.391v.985l-.2-.007v-.984Zm-.028 2.684a.33.33 0 0 1-.321.373A.32.32 0 0 1 7 6.644a.33.33 0 0 1 .326-.364.308.308 0 0 1 .312.342m-.476-.829h.146L6.64 6.995h-.144Zm-.681.714a.32.32 0 0 1-.316-.35.33.33 0 0 1 .325-.364.308.308 0 0 1 .312.345.33.33 0 0 1-.324.372ZM5.71 3.491l.175.693c.044.171.083.342.11.474a5 5 0 0 1 .125-.467l.201-.68.2.006.181.7c.042.164.082.327.1.472.031-.149.073-.3.119-.468l.2-.684.201.006-.423 1.349h-.201l-.187-.721a4 4 0 0 1-.1-.447 4 4 0 0 1-.114.44l-.212.701-.2-.007-.377-1.367Zm2.903 13.892a.3.3 0 0 1-.324.285l-1.223-.08a.305.305 0 0 1 .04-.609l1.223.08a.3.3 0 0 1 .28.328Zm2.803 1.317a1.124 1.124 0 0 1-1.061-1.153 1 1 0 0 1 .352-.788.88.88 0 0 1 .741-.178 1.15 1.15 0 0 1 .875 1.135.94.94 0 0 1-.907.992Zm4.493-.701a.306.306 0 0 1-.3.285h-.021l-.339-.022v.346a.25.25 0 0 1-.253.252.26.26 0 0 1-.178-.074.25.25 0 0 1-.073-.178v-.377l-.379-.025a.305.305 0 0 1 .02-.609h.02l.339.022v-.344a.252.252 0 0 1 .501 0v.377l.379.025a.3.3 0 0 1 .284.323Zm-1.212-4.543a.537.537 0 0 1 .601-.533.52.52 0 0 1 .579.514.54.54 0 0 1-.6.536.53.53 0 0 1-.58-.517m1.902 1.411c.228-3.467-3.963-3.704-3.884-.281l-7.023-.507-.1-6.969c1.246 1.711 3.389.439 3.033-1.608l8.253.416.125 8.979ZM9.297 4.091a.3.3 0 0 0-.3.284l.581.019a.275.275 0 0 0-.281-.303m5.996 9.658c.137 0 .225-.121.225-.3 0-.15-.065-.3-.225-.3s-.232.154-.232.3c0 .171.082.3.232.3M7.322 6.844c.077 0 .115-.079.115-.209s-.031-.209-.115-.209-.117.093-.117.209.039.209.117.209m-.837-.9c-.08 0-.118.093-.118.209s.041.209.12.209.114-.079.114-.209-.032-.209-.116-.209m4.898 10.962a1 1 0 0 0-.123-.012.55.55 0 0 0-.35.124.68.68 0 0 0-.233.538.81.81 0 0 0 .739.83.62.62 0 0 0 .585-.661.84.84 0 0 0-.618-.819"/></svg>