<?xml version="1.0" encoding="UTF-8"?>
<svg width="24px" fill="#44739e" height="24px" viewBox="0 0 32 32" version="1.1" xmlns="http://www.w3.org/2000/svg" xmlns:xlink="http://www.w3.org/1999/xlink">
            <path d="m 10.04875,1.8076887 c -1.8154906,0 -2.8530559,1.2655339 -2.8530559,2.5383463 2e-7,4.4276187 -0.074414,9.707326 -0.074414,12.504663 0,2.352728 2.0653248,3.316077 3.1310749,3.316077 0.712356,0 1.621837,-0.0033 2.624646,-0.0078 -0.107109,0.149731 -2.9107022,4.068647 -3.0938682,4.328935 -0.1866665,0.265289 -0.2785356,0.274919 -0.2785356,0.274919 0,0 -3.2746752,0.386527 -3.3729208,0.406177 -0.098246,0.01965 -0.098185,0.206189 -0.098185,0.206189 0,0 -0.05271,2.689008 -0.05271,2.780708 0,0.0917 0.1705322,0.134359 0.1705322,0.134359 0,0 7.5097414,1.56523 8.0284504,1.676384 0.518709,0.111147 1.176278,0.231508 1.694987,0.222208 0.518708,-0.0093 8.697644,-1.139304 9.429399,-1.222664 0.731753,-0.08337 0.685303,-0.138765 0.703833,-0.203605 0.01853,-0.06484 0,-2.047228 0,-2.491838 0,-0.444609 0.02784,-0.481781 -0.111105,-0.518831 -0.138941,-0.03705 -7.595402,-1.407666 -7.595402,-1.407666 0,0 1.953588,-2.789228 2.288233,-3.260783 0.160708,-0.22646 0.361744,-0.721198 0.441833,-0.926042 0.246507,0.003 0.507603,0.0052 0.725021,0.0093 2.927015,0.05558 3.575492,-1.575466 3.575492,-3.167765 0,-4.577388 0.01853,-8.4848601 0,-11.8194341 -0.01853,-3.3345741 -3.019454,-3.3346802 -3.019454,-3.3346802 0,0 -10.448361,-0.037207 -12.263851,-0.037207 z m 1.567863,2.1921142 c 1.363209,0 9.20874,0.027388 9.20874,0.027388 0,0 2.253134,3.895e-4 2.267045,2.5042399 0.01391,2.5038495 0,5.4373452 0,8.8743932 0,1.195619 -0.486768,2.420398 -2.68459,2.378666 -2.197825,-0.04174 -6.537763,0 -8.638233,0 -0.800245,0 -2.3507608,-0.723167 -2.3507608,-2.48977 0,-2.100453 0.055293,-6.0650157 0.055294,-9.3896075 0,-0.955724 0.7792968,-1.9053106 2.1425048,-1.9053096 z m 4.745964,3.7920166 a 3.22012,3.1585891 0 0 0 -3.220476,3.1584635 3.22012,3.1585891 0 0 0 3.220476,3.158464 3.22012,3.1585891 0 0 0 3.219958,-3.158464 3.22012,3.1585891 0 0 0 -3.219958,-3.1584635 z m -0.04341,0.6299357 a 2.6028254,2.5530901 0 0 1 2.602942,2.5528158 2.6028254,2.5530901 0 0 1 -2.602942,2.553333 2.6028254,2.5530901 0 0 1 -2.602425,-2.553333 2.6028254,2.5530901 0 0 1 2.602425,-2.5528158 z m -0.359668,12.3625528 1.080555,0.202572 c 0,0 -3.103322,4.514092 -3.209107,4.58835 -0.281492,0.197602 -0.497686,0.399172 -1.152901,0.225826 0,0 -0.192296,-0.03902 -0.157096,-0.09508 0.406987,-0.648165 3.438549,-4.921664 3.438549,-4.921664 z m 1.857768,4.33927 3.621484,0.689881 -4.489648,0.560172 z"/>

</svg>