<svg xmlns="http://www.w3.org/2000/svg" viewBox="0 0 24 24"><path fill="#44739e" d="M7.807 2c-1.279 0-2.01.891-2.01 1.788 0 3.121-.053 6.841-.053 8.813 0 1.657 1.456 2.336 2.206 2.336.503 0 1.143-.003 1.85-.005l-2.18 3.05c-.132.187-.196.194-.196.194s-2.308.272-2.377.286-.07.145-.07.145-.036 1.896-.036 1.959c0 .066.119.095.119.095s5.293 1.103 5.658 1.182.829.163 1.195.157c.365-.007 6.128-.804 6.645-.862.514-.059.482-.098.495-.143.014-.046 0-1.443 0-1.756 0-.314.02-.34-.078-.367-.098-.025-5.353-.991-5.353-.991s1.377-1.966 1.613-2.297c.113-.16.255-.509.312-.654l.511.007c2.062.039 2.519-1.11 2.519-2.232 0-3.225.013-5.979 0-8.33-.013-2.349-2.128-2.349-2.128-2.349S9.086 2 7.807 2m1.105 1.545c.961 0 6.489.019 6.489.019s1.588 0 1.598 1.764 0 3.832 0 6.254c0 .842-.343 1.706-1.892 1.676s-4.607 0-6.087 0c-.564 0-1.657-.509-1.657-1.755 0-1.479.039-4.273.039-6.616 0-.674.55-1.342 1.51-1.342m3.345 2.672a2.269 2.226 0 0 0-2.269 2.225 2.269 2.226 0 0 0 2.269 2.226 2.269 2.226 0 0 0 2.269-2.226 2.269 2.226 0 0 0-2.269-2.225m-.031.444A1.834 1.799 0 0 1 14.06 8.46a1.834 1.799 0 0 1-1.834 1.799 1.834 1.799 0 0 1-1.834-1.799 1.834 1.799 0 0 1 1.834-1.799m-.254 8.711.762.143s-2.187 3.181-2.262 3.233c-.198.14-.35.282-.812.16 0 0-.135-.028-.111-.067.287-.457 2.423-3.469 2.423-3.469m1.309 3.058 2.553.487-3.164.394Z"/></svg>