<svg xmlns="http://www.w3.org/2000/svg" viewBox="0 0 24 24"><path fill="#44739e" d="m4.984 4.876-.009.009A9.96 9.96 0 0 0 2 12a9.97 9.97 0 0 0 2.044 6.056c.013.018.034.028.054.018.018-.011.018-.033.011-.052-.762-2.357 3.135-8.07 5.148-10.466a.04.04 0 0 0 .016-.029c0-.013-.009-.024-.018-.032-3.388-3.371-4.291-2.6-4.28-2.611m14.043-.009.009.01A9.96 9.96 0 0 1 22 12a9.97 9.97 0 0 1-2.044 6.057c-.012.017-.034.027-.054.017-.017-.01-.018-.032-.011-.051.762-2.358-3.132-8.075-5.145-10.471q-.014-.013-.014-.027.002-.024.019-.035c3.388-3.371 4.286-2.595 4.274-2.605M12 2c2.018 0 3.678.553 5.209 1.464.019.009.025.03.018.049-.009.018-.029.022-.049.017-1.935-.418-4.878 1.255-5.156 1.421-.009.004-.013.009-.021.009q-.013-.002-.022-.009c-.738-.424-3.458-1.849-5.171-1.411-.019.005-.04.001-.048-.018-.009-.018 0-.039.017-.049C8.308 2.553 9.99 2 12.002 2m0 8.02c.012 0 .024.009.032.015 2.992 2.276 8.114 7.9 6.551 9.491v-.001.001A9.96 9.96 0 0 1 12.003 22a9.96 9.96 0 0 1-6.584-2.474v-.001.001c-1.561-1.591 3.56-7.215 6.55-9.491.009-.006.022-.015.035-.015"/></svg>