<?xml version="1.0" encoding="UTF-8"?>
<svg xmlns="http://www.w3.org/2000/svg" width="24" height="24" fill="#44739e" viewBox="0 0 24 24"><path d="M5.76 2A3.758 3.758 0 0 0 2 5.76v12.48A3.758 3.758 0 0 0 5.76 22h12.48A3.758 3.758 0 0 0 22 18.24V5.76A3.758 3.758 0 0 0 18.24 2H5.76zM12 4.5c1.514 0 2.758.415 3.906 1.098.014.007.019.022.014.037-.006.013-.02.016-.035.011-1.452-.313-3.66.942-3.87 1.067-.005.004-.008.008-.013.008-.007 0-.013-.005-.018-.008-.553-.318-2.594-1.388-3.879-1.059-.014.003-.029 0-.035-.013-.007-.013-.001-.029.012-.036C9.229 4.915 10.493 4.5 12 4.5zM6.959 6.611c.368.002 1.235.272 2.982 2.01.007.006.014.014.014.024a.03.03 0 0 1-.012.023c-1.51 1.797-4.433 6.08-3.861 7.848.005.015.004.03-.01.039-.014.007-.029.001-.039-.012A7.485 7.485 0 0 1 4.5 12a7.475 7.475 0 0 1 2.23-5.338c-.002.002.062-.051.229-.05zm10.082 0c.167 0 .231.054.229.051A7.473 7.473 0 0 1 19.5 12a7.483 7.483 0 0 1-1.533 4.543c-.01.012-.025.02-.04.012-.012-.007-.014-.023-.009-.037.572-1.768-2.348-6.057-3.857-7.854-.007-.006-.012-.013-.012-.02 0-.011.007-.02.014-.027 1.746-1.739 2.611-2.005 2.978-2.006zM12 10.516h.002c.01 0 .017.007.021.011 2.245 1.706 6.084 5.921 4.915 7.116v.002a7.47 7.47 0 0 1-4.936 1.855 7.474 7.474 0 0 1-4.94-1.855v-.002c-1.166-1.195 2.672-5.41 4.915-7.116.006-.004.014-.01.023-.011z"/></svg>