<svg xmlns="http://www.w3.org/2000/svg" viewBox="0 0 24 24"><path fill="#44739e" d="M21.93 5.938a.66.66 0 0 0-.227-.274c-.251-.133-.524-.258-.781-.379l-1.502-.707q-.552-.253-1.101-.512c-.228-.11-.572-.289-.799-.373a1.2 1.2 0 0 0-.275-.067c-.198-.023-.482-.015-.688-.014l-1.009.005-8.521.052-2.232.006c-.361.001-.743-.01-1.102.017a.82.82 0 0 0-.679.537c-.082.237-.092.523-.118.775l-.111 1.105-.345 3.522-.308 3.105-.088.885c-.065.667-.165 1.142.585 1.405a6 6 0 0 0-.067.562c-.057.837-.263 1.707-.195 2.543.05.632.518 1.129 1.144 1.22.602.087 1.174.142 1.78.187l1.57.117.789.059c.203.017.333.108.527.16a9.4 9.4 0 0 0 1.463.263c.955.11 2.135.134 3.107.107q.376-.009.753-.031c.188-.011.452-.035.632-.028.248.01.519.036.767.054l1.422.107c.348.025.725.06 1.071.037.246-.016.549-.111.793-.176q.515-.133 1.029-.273l1.335-.349c.235-.062.474-.116.706-.19a.6.6 0 0 0 .211-.094c.239-.186.343-.512.374-.802.006-.057.01-.145-.028-.194-.098-.12-.938-.175-1.127-.18.019-.446.067-.916.099-1.365.501-.221.462-.905.499-1.378l.065-.79.293-3.715.23-2.867.085-1.021c.026-.328.097-.738-.026-1.051M2.757 15.051c.044.007.049.005.088.025.007.055-.047.531-.054.612-.053.68-.167 1.391-.207 2.067-.044 0-.059.001-.102-.013-.028-.072.246-2.436.275-2.691m15.158 2.898-.125-.007c-.215-.008-.462-.033-.68-.048l-1.274-.08-5.896-.364c-.708-.038-1.446-.096-2.153-.115q-.602-.02-1.204.017c-.322.022-.766.072-1.075.072-.011-.206.043-.574.067-.793.031-.291.056-.602.093-.89.514.124 1.036.229 1.55.358.072.018.2.049.27.054 1.25.093 2.507.131 3.759.207l6.77.387Zm.228-1.055.542-6.465q.062-.716.117-1.434c.015-.176.025-.354.045-.53.024-.223.025-.401.241-.519.052.004.045-.004.081.022.01.065-.043.524-.05.613l-.141 1.666-.693 8.521-.199-.004c-.04 0-.07.004-.103-.014-.017-.051.146-1.68.16-1.857m-12.565.671q.283-.02.565-.043.462-.038.926-.055c.494-.017 1.017.016 1.513.041l2.231.13 7.088.442c-.02.155-.041.339-.055.493-.06.681-.486 1.145-1.192 1.108-.987-.052-1.967-.153-2.951-.21-.237-.03-.578-.041-.828-.059l-1.602-.117-5.381-.403-1.686-.128c-.286-.022-.582-.035-.866-.074-.479-.065-.583-.436-.629-.835.2-.017.467-.062.669-.092l1.29-.186c.23-.033.461-.068.692-.096.071-.008.093.092.216.084m7.2 2.548c-1.168.033-3.578-.014-4.649-.402.627.029 1.347.096 1.977.146a237 237 0 0 1 2.781.222c.07.002.129.012.197.022-.11.011-.194.016-.306.012m4.313.125c-.239.01-.489-.019-.729-.036l-1.219-.091-3.613-.269-5.338-.4-1.644-.126c-.317-.025-.644-.038-.959-.086-.768-.117-1.084-.65-1.114-1.372.045 0 .06-.002.104.01.069.152.03.333.143.532.231.403.542.405.96.434.224.016.459.034.685.053l3.141.235 6.226.462 1.949.143c.339.024.677.05 1.016.066.662.032 1.074-.308 1.248-.938.103.012.218.02.323.027a4 4 0 0 1-.061.352c-.14.522-.546.981-1.118 1.003m4.61-1.793c.01.135-.088.444-.163.568-.145.247-.445.282-.717.353l-.779.202c-.761.2-1.592.437-2.349.616h-.007l-.007-.01c.049-.039.107-.075.151-.113.371-.318.497-.727.547-1.188.355-.028.858-.114 1.218-.163l2.093-.274Zm-.147-.104q-.053.014-.107.022a48 48 0 0 0-.808.102l.016-.214c.244.008.655.058.899.09m-1.038.135c-.135.015-.277.036-.413.053-.055.004-.117.014-.172.021-.514.065-1.026.151-1.539.211.034-.311.056-.656.082-.972l.144-1.749.424-5.207.148-1.818c.025-.303.049-.72.095-1.014.309.143 1.744.689 1.873.828.05.057.07.161.07.233 0 .123-.016.248-.025.37l-.054.712-.177 2.326ZM21.83 6.841q-.04.557-.092 1.112l-.238 2.951-.275 3.462-.083 1.046c-.03.393-.005.948-.354 1.196.053-.532.087-1.136.127-1.672l.191-2.368q.096-1.174.18-2.346c.027-.365.058-.729.078-1.096.012-.208-.046-.399-.243-.503-.099-.051-.209-.093-.311-.135l-.516-.216-.646-.27c-.154-.064-.31-.136-.468-.181-.214-.06-.389.157-.431.347-.058.266-.067.547-.088.819l-.1 1.236-.397 4.785c-.009.105-.08 1.09-.104 1.135l-.024.001c-.251-.069-.806-.264-1.025-.288-.307-.035-.766-.047-1.089-.064l-2.268-.113-6.993-.357-1.885-.096c-.291-.015-.592-.014-.88-.045-.275-.029-.569-.129-.834-.181-.979-.197-.97-.476-.888-1.347l.094-.964.297-2.97.372-3.766.097-.97c.047-.464.04-1.062.66-1.157.153-.025.349-.013.507-.014l.816-.002 2.419-.015 7.959-.043 1.144-.007c.151 0 .595-.01.717.014.288.059.757.311 1.04.447l.836.389 1.638.771.826.393a.5.5 0 0 1 .159.134.73.73 0 0 1 .111.369c-.004.191-.022.388-.036.579m-16.009-.75q.017-.001.023-.018c.006-.017-.003-.018-.013-.018s-.02.008-.023.018q-.003.016.013.018m0-.03h.01q.006 0 .006.002v.005l-.002.005-.003.001.002.002v.003l-.001.004h-.005l.001-.003v-.004H5.82l-.002.007h-.004Zm-.227.484h-.048l.043-.157h.047c.051 0 .075.035.063.079a.11.11 0 0 1-.105.078M5.2 6.223h-.119l.084-.107h.01Zm-.287.271h-.098l.078-.105Zm12.344-2.178c-.11-.115-.253-.128-.404-.126-.641.01-1.294-.017-1.932.005l-8.018.03-2.25.013c-.243.003-.681-.015-.903.006a.33.33 0 0 0-.208.1c-.128.135-.124.378-.141.557l-.06.663-.249 2.606c-.134.082-.238.181-.264.343-.036.225-.047.479-.071.709q-.099.903-.189 1.808l-.206 1.989c-.039.357-.085.724-.109 1.082a.46.46 0 0 0 .382.481c.15.027.831.053 1.018.057.507.012 1.055.065 1.553.074.888.055 1.809.089 2.7.131l4.671.226 2.374.115.715.035c.235.01.482.061.673-.112.162-.149.175-.335.193-.541l.048-.556.128-1.487.209-2.453c.069-.829.118-1.656.186-2.485l.164-1.947.056-.672c.016-.199.08-.497-.065-.65m-4.369 3.071.096-.943.087-.923c.015-.152.027-.308.05-.459.012-.086.062-.119.131-.168.126-.004.259-.003.385-.001.871.008 1.746-.013 2.614.016.091.027.11.119.104.189-.084.958-.154 1.921-.259 2.875-.005.049-.081.095-.119.115-.642.017-1.415-.015-2.062-.024h-.588c-.113 0-.235.003-.346-.011-.071-.009-.096-.055-.133-.11-.008-.142.025-.406.04-.557M6.138 6.313l.005-.03a.32.32 0 0 1 .303-.257h.301c.143 0 .238.116.213.257l-.006.03a.32.32 0 0 1-.303.257H6.35c-.142 0-.237-.115-.212-.257m-.333-.24a.03.03 0 0 1 .028-.022q.02.002.016.022a.03.03 0 0 1-.028.021c-.012 0-.019-.01-.016-.021m-.38-.02h.112l.05.09.102-.09H5.8l-.149.131.095.151h-.12l-.062-.103-.118.103h-.12l.176-.151Zm.085.403-.005.018h-.106l-.018.067H5.5l-.005.019h-.139l.05-.188h.139l-.006.018h-.117l-.018.066Zm-.295.068q.016.02.045.02.032 0 .068-.027l.003-.002.01.013-.002.002a.13.13 0 0 1-.083.033.07.07 0 0 1-.06-.026q-.02-.03-.01-.072a.13.13 0 0 1 .12-.097.08.08 0 0 1 .067.03l.002.003-.018.014-.001-.003a.06.06 0 0 0-.053-.025c-.042 0-.084.035-.096.079q-.009.036.008.058m.361-.152h.064q.044 0 .067.027.02.027.01.067a.13.13 0 0 1-.126.094h-.065Zm-.321-.32.068.283h-.097l-.012-.049h-.181l-.038.049h-.096l.22-.283Zm-.076.32-.051.188h-.015l-.083-.157-.042.157h-.02l.05-.188h.018l.081.153.042-.153Zm-.562.102-.022.086h-.022l.051-.189h.02l-.022.085h.11l.024-.085h.02l-.051.189h-.02l.023-.086Zm-.084.086h-.015l-.083-.157-.042.157h-.02l.051-.189h.017l.082.153.04-.153h.021Zm.357-.19h.017l.037.19h-.021l-.01-.051h-.105l-.037.05h-.022Zm-.248-.318.042.168.13-.168h.146l-.075.283h-.081l.055-.205h-.017l-.156.204h-.067l-.046-.204h-.017l-.054.205h-.08l.075-.282Zm-.298 0h.09l-.076.283h-.091Zm-.089.319h.138l-.005.02H4.27l-.018.064h.106l-.005.019h-.106l-.018.067h.119l-.005.019h-.139Zm12.589 2.886-.108 1.244-.241 2.829c-.039.457-.074.92-.118 1.377a.54.54 0 0 1-.098.264c-.082.094-.16.112-.275.126-.565-.017-1.172-.056-1.739-.083l-4.62-.228-4.44-.216-1.521-.071c-.301-.013-.61-.026-.903-.045-.458-.029-.404-.35-.359-.692.012-.09.022-.198.031-.291q.085-.843.179-1.686l.222-2.145c.035-.336.064-.672.103-1.008.025-.222.112-.336.34-.367.236-.007.548.007.789.011l1.312.018 4.291.054 4.83.07c.652.01 1.309.006 1.961.022.1.003.201.025.281.08.054.038.121.12.123.187.002.171-.024.38-.041.55M5.828 6.073h-.007l.003-.008h.008v.004l-.001.003h-.003m8.933 1.921c.426-.066.749-.278 1.004-.625a1.66 1.66 0 0 0 .291-1.224c-.115-.699-.748-1.222-1.462-1.122a1.5 1.5 0 0 0-1.015.605 1.63 1.63 0 0 0-.311 1.199c.109.746.732 1.271 1.493 1.167m-1.142-2.246c.241-.35.557-.55.973-.626.281-.035.564.029.803.181.813.519.723 1.719.021 2.288a1.37 1.37 0 0 1-.657.304c-.691.068-1.251-.335-1.379-1.025a1.5 1.5 0 0 1 .239-1.122m2.108.442c-.114-.549-.572-.896-1.134-.828a1.1 1.1 0 0 0-.772.48 1.3 1.3 0 0 0-.224.961c.098.581.574.94 1.159.863a1.2 1.2 0 0 0 .796-.542c.178-.276.241-.611.175-.933m-.953-.676a.9.9 0 0 1 .371.069c-.187 0-.336-.018-.515.06-.508.222-.768.859-.54 1.369.116.261.304.401.564.501l.162.038c-1.259.15-1.353-1.874-.042-2.037m.069.846c.183.019.179.208.028.297-.194-.013-.163-.204-.028-.297m-.197-.226c-.099.08-.161.197-.228.303-.036.034-.044.032-.091.027-.092-.086-.023-.271.032-.363a.5.5 0 0 1 .307-.238c.082-.003.126 0 .174.072.023.131-.116.136-.194.199m.672 1.046c-.254.222-.682.245-.858-.079.12.049.209.116.356.155.221.057.472-.123.517-.109Zm.46 7.075q.005.001.006-.004 0-.003-.003-.003h-.005l-.002.007Zm-.007.012h-.003l.006-.022h.008q.008 0 .006.007l-.003.004-.005.001.004.01h-.004l-.003-.01h-.003Zm.003.004q.006 0 .012-.004.007-.006.007-.01.002-.015-.011-.016a.02.02 0 0 0-.02.015.01.01 0 0 0 .002.01.01.01 0 0 0 .01.005m-.015-.015q.003-.013.016-.017c.013-.004.016-.002.02.004q.006.009-.002.02a.03.03 0 0 1-.02.011.01.01 0 0 1-.012-.005.02.02 0 0 1-.002-.013m-1.155.14.184-.207h.008l-.185.208Zm1.007-.145h.042l-.007.024a.06.06 0 0 1 .047-.026c.036 0 .057.016.047.054l-.031.104h-.04l.025-.092c.004-.014.007-.03-.02-.03-.026 0-.034.013-.038.025l-.027.096h-.04Zm-.148.048a.1.1 0 0 0-.017.03.1.1 0 0 0 0 .03q.005.016.025.018a.05.05 0 0 0 .034-.017.1.1 0 0 0 .016-.03.1.1 0 0 0 0-.03q-.004-.017-.024-.018c-.02-.001-.025.006-.034.017m-.052.093c-.012-.014-.013-.038-.006-.063s.021-.05.04-.063a.1.1 0 0 1 .061-.018q.033 0 .05.019c.012.014.013.038.006.063a.12.12 0 0 1-.04.063q-.029.018-.06.018c-.033 0-.041-.007-.051-.02m-.127-.094a.1.1 0 0 0-.016.03.1.1 0 0 0-.001.03q.003.017.022.018.016.001.033-.017a.1.1 0 0 0 .015-.03.1.1 0 0 0 .001-.03.02.02 0 0 0-.022-.018.04.04 0 0 0-.032.017m.073.107h-.041l.004-.016a.07.07 0 0 1-.046.021c-.03.001-.043-.01-.048-.036a.1.1 0 0 1 0-.043.14.14 0 0 1 .024-.05.08.08 0 0 1 .064-.034c.027-.001.037.01.039.024l.021-.075h.04Zm-.213-.158h.041l-.009.03a.1.1 0 0 1 .028-.024.05.05 0 0 1 .031-.008l-.011.04c-.017-.001-.043-.004-.058.03l-.024.087h-.041Zm-.1.08c-.013.008-.028.007-.04.009s-.024.012-.024.025q-.002.015.023.013c.026-.004.035-.02.04-.037Zm-.015.074a.02.02 0 0 1 0-.016c-.018.013-.033.022-.057.021q-.048-.002-.033-.048c.007-.021.021-.042.06-.048a.2.2 0 0 0 .042-.007.02.02 0 0 0 .016-.017q.004-.014-.024-.014c-.023 0-.03.014-.033.025h-.04c.015-.05.06-.054.082-.054q.018 0 .035.006c.014.007.023.02.017.044l-.024.084a.02.02 0 0 0 .004.018l-.001.006Zm-.159-.21-.032.113.07-.06.047.001-.071.059.031.095h-.049l-.018-.066-.023.017-.013.049h-.04l.057-.209Zm-.398.05h.042l-.007.023a.06.06 0 0 1 .047-.025c.036 0 .056.015.046.054l-.03.103h-.04l.026-.092c.003-.013.006-.03-.022-.03-.025 0-.033.013-.037.026l-.026.095h-.042Zm-.099.08c-.013.007-.029.007-.041.009s-.025.012-.025.024c0 .01.005.016.024.014.026-.004.035-.02.04-.037Zm-.015.073a.02.02 0 0 1 0-.015c-.019.013-.034.022-.058.021q-.048-.002-.034-.048c.007-.021.022-.042.06-.048a.2.2 0 0 0 .044-.007.02.02 0 0 0 .015-.017q.005-.015-.023-.014c-.025 0-.031.014-.035.025h-.039c.015-.05.061-.054.081-.054q.02 0 .037.006c.014.007.023.02.016.044l-.024.084a.02.02 0 0 0 .004.018l-.001.006Zm-.352-.004.042-.154h.042l-.006.023c.018-.018.033-.028.056-.025.02.003.023.01.031.023a.07.07 0 0 1 .062-.022c.03.005.034.025.027.05l-.03.107h-.041l.03-.106c.002-.012-.007-.016-.016-.017-.022-.001-.035.017-.038.028l-.026.094h-.041l.03-.106q0-.016-.019-.017a.04.04 0 0 0-.035.028l-.028.095Zm-.076-.156h.04l-.008.03h.001c.005-.01.009-.014.026-.024a.05.05 0 0 1 .031-.008l-.011.04c-.017-.002-.043-.004-.057.03l-.024.087h-.041Zm-.099.08c-.014.007-.03.007-.04.009q-.024.004-.026.025c0 .009.005.015.024.013.026-.004.035-.02.04-.037Zm-.016.073a.02.02 0 0 1 0-.015c-.018.013-.034.022-.058.021q-.048-.002-.033-.048c.007-.021.021-.042.061-.048a.2.2 0 0 0 .042-.007.02.02 0 0 0 .016-.017q.004-.014-.024-.014c-.023 0-.03.014-.033.025h-.04c.014-.05.06-.054.081-.054q.02 0 .036.006c.014.007.024.02.017.044l-.024.084a.02.02 0 0 0 .004.018l-.001.006Zm-.209-.21h.041l-.02.074a.06.06 0 0 1 .045-.023c.037 0 .057.015.046.054l-.029.103h-.04l.025-.092c.004-.014.007-.03-.021-.03-.025 0-.034.013-.037.026l-.027.095h-.04Zm.997.218.185-.207h.008l-.185.207Zm1.009-.146h.04l-.006.024a.06.06 0 0 1 .047-.026c.036 0 .057.016.047.054l-.031.104h-.04l.025-.092c.004-.014.007-.03-.02-.03-.026 0-.034.013-.038.025l-.027.096h-.04Zm-.148.048a.1.1 0 0 0-.017.03.1.1 0 0 0 0 .03q.005.016.025.018a.05.05 0 0 0 .034-.017.1.1 0 0 0 .016-.03.1.1 0 0 0 0-.03q-.004-.017-.024-.018c-.02-.001-.025.006-.034.017m-.052.093c-.012-.014-.013-.038-.006-.063s.021-.05.04-.063a.1.1 0 0 1 .061-.018q.033 0 .05.019c.012.014.013.038.006.063a.12.12 0 0 1-.04.063q-.029.018-.06.018c-.033 0-.041-.007-.051-.02m-.127-.094a.1.1 0 0 0-.016.03.1.1 0 0 0-.001.03q.003.017.022.018.016.001.033-.017a.1.1 0 0 0 .015-.03.1.1 0 0 0 .001-.03.02.02 0 0 0-.022-.018.04.04 0 0 0-.032.017m.073.107h-.041l.004-.016a.07.07 0 0 1-.046.021c-.03.001-.043-.01-.048-.036a.1.1 0 0 1 0-.043.14.14 0 0 1 .024-.05.08.08 0 0 1 .064-.034c.027-.001.037.01.039.024l.021-.075h.04Zm-.213-.158h.041l-.009.03a.1.1 0 0 1 .028-.024.05.05 0 0 1 .031-.008l-.011.04c-.017-.001-.043-.004-.058.03l-.024.087h-.041Zm-.1.08c-.013.008-.028.007-.04.009s-.024.012-.024.025q-.002.015.023.013c.026-.004.035-.02.04-.037Zm-.015.074a.02.02 0 0 1 0-.016c-.018.013-.033.022-.057.021q-.048-.002-.033-.048c.007-.021.021-.042.06-.048a.2.2 0 0 0 .042-.007.02.02 0 0 0 .016-.017q.004-.014-.024-.014c-.023 0-.03.014-.033.025h-.04c.015-.05.06-.054.082-.054q.018 0 .035.006c.014.007.023.02.017.044l-.024.084a.02.02 0 0 0 .004.018l-.001.006Zm-.159-.21-.032.113.07-.06.047.001-.071.059.031.095h-.049l-.018-.066-.023.017-.013.049h-.04l.057-.209Zm-.398.05h.042l-.007.023a.06.06 0 0 1 .047-.025c.036 0 .056.015.046.054l-.03.103h-.04l.026-.092c.003-.013.006-.03-.022-.03-.025 0-.033.013-.037.026l-.026.095h-.042Zm-.099.08c-.013.007-.029.007-.041.009s-.025.012-.025.024c0 .01.005.016.024.014.026-.004.035-.02.04-.037Zm-.015.073a.02.02 0 0 1 0-.015c-.019.013-.034.022-.058.021q-.048-.002-.034-.048c.007-.021.022-.042.06-.048a.2.2 0 0 0 .044-.007.02.02 0 0 0 .015-.017q.005-.015-.023-.014c-.025 0-.031.014-.035.025h-.039c.015-.05.061-.054.081-.054q.02 0 .037.006c.014.007.023.02.016.044l-.024.084a.02.02 0 0 0 .004.018l-.001.006Zm-.352-.004.042-.154h.042l-.006.023c.018-.018.033-.028.056-.025.02.003.023.01.031.023a.07.07 0 0 1 .062-.022c.03.005.034.025.027.05l-.03.107h-.041l.03-.106c.002-.012-.007-.016-.016-.017-.022-.001-.035.017-.038.028l-.026.094h-.041l.03-.106q0-.016-.019-.017a.04.04 0 0 0-.035.028l-.028.095Zm-.076-.156h.04l-.008.03h.001c.005-.01.009-.014.026-.024a.05.05 0 0 1 .031-.008l-.011.04c-.017-.002-.043-.004-.057.03l-.024.087h-.041Zm-.099.08c-.014.007-.03.007-.04.009q-.024.004-.026.025c0 .009.005.015.024.013.026-.004.035-.02.04-.037Zm-.016.073a.02.02 0 0 1 0-.015c-.018.013-.034.022-.058.021q-.048-.002-.033-.048c.007-.021.021-.042.061-.048a.2.2 0 0 0 .042-.007.02.02 0 0 0 .016-.017q.004-.014-.024-.014c-.023 0-.03.014-.033.025h-.04c.014-.05.06-.054.081-.054q.02 0 .036.006c.014.007.024.02.017.044l-.024.084a.02.02 0 0 0 .004.018l-.001.006Zm-.209-.21h.041l-.02.074a.06.06 0 0 1 .045-.023c.037 0 .057.015.046.054l-.029.103h-.04l.025-.092c.004-.014.007-.03-.021-.03-.025 0-.034.013-.037.026l-.027.095h-.04Zm-4.96-3.159-.06.141a.1.1 0 1 1-.184-.078l.06-.141a.1.1 0 1 1 .184.078m-.386.439-.061.14a.1.1 0 1 0 .185.08l.06-.141a.1.1 0 1 0-.184-.079m.385.007-.06.14a.1.1 0 1 0 .186.08l.06-.141a.1.1 0 1 0-.186-.079m1.159.02-.06.14a.1.1 0 1 0 .185.08l.06-.141a.1.1 0 1 0-.185-.079m-1.931-.033-.06.14a.1.1 0 1 0 .186.079l.06-.141a.1.1 0 1 0-.186-.078m-.052-.578a.1.1 0 0 0-.131.053l-.061.14a.1.1 0 1 0 .185.08l.06-.141a.1.1 0 0 0-.053-.132m1.931.034a.1.1 0 0 0-.132.053l-.061.141a.1.1 0 1 0 .186.078l.06-.141a.1.1 0 0 0-.053-.131m-.334.571-.06.14a.1.1 0 1 0 .184.079l.061-.141a.1.1 0 1 0-.185-.078m-.387-.007-.06.14a.1.1 0 1 0 .186.079l.06-.141a.1.1 0 1 0-.186-.078m-.052-.578a.1.1 0 0 0-.131.053l-.06.141a.1.1 0 1 0 .184.079l.06-.141a.1.1 0 0 0-.053-.132m.387.007a.1.1 0 0 0-.132.053l-.06.141a.1.1 0 1 0 .185.078l.06-.141a.1.1 0 0 0-.053-.131m-1.158-.02a.1.1 0 0 0-.133.053l-.06.14a.1.1 0 1 0 .185.079l.061-.141a.1.1 0 0 0-.053-.131m-2.265.537-.06.14a.1.1 0 1 0 .185.08l.06-.141a.1.1 0 1 0-.185-.079m-.053-.578a.1.1 0 0 0-.13.053l-.06.14a.1.1 0 1 0 .184.08l.06-.141a.1.1 0 0 0-.054-.132m-.385-.006a.1.1 0 0 0-.132.053l-.06.14a.1.1 0 1 0 .185.079l.06-.141a.1.1 0 0 0-.053-.131m.052.577-.06.14a.1.1 0 1 0 .184.079l.061-.14a.1.1 0 1 0-.185-.079m.773.014-.06.14a.1.1 0 1 0 .184.079l.06-.141a.1.1 0 1 0-.185-.078m.719-.564a.1.1 0 0 0-.132.052l-.06.14a.1.1 0 1 0 .185.081l.061-.142a.1.1 0 0 0-.054-.132m.053.577-.061.14a.1.1 0 1 0 .185.08l.06-.141a.1.1 0 1 0-.184-.079m.333-.571a.1.1 0 0 0-.131.053l-.06.14a.1.1 0 1 0 .185.08l.06-.141a.1.1 0 0 0-.054-.132m-.72.564-.06.14a.1.1 0 1 0 .185.081l.06-.142a.1.1 0 1 0-.185-.079m-.052-.577a.1.1 0 0 0-.131.053l-.061.14a.1.1 0 1 0 .185.079l.06-.141a.1.1 0 0 0-.053-.131m.824.591-.06.14a.1.1 0 1 0 .185.08l.061-.141a.1.1 0 1 0-.186-.08m-1.21-.598a.1.1 0 0 0-.132.053l-.06.14a.1.1 0 1 0 .185.08l.06-.141a.1.1 0 0 0-.053-.132m8.494.148a.1.1 0 0 0-.132.053l-.061.141a.1.1 0 1 0 .186.079l.06-.14a.1.1 0 0 0-.053-.133m-4.634-.08a.1.1 0 0 0-.131.052l-.06.141a.1.1 0 1 0 .185.079l.061-.141a.1.1 0 0 0-.055-.132m3.142.631-.061.141a.1.1 0 1 0 .185.078l.06-.141a.1.1 0 1 0-.184-.078m-.387-.007-.06.141a.1.1 0 1 0 .186.079l.06-.141a.1.1 0 1 0-.186-.079m-.385-.007-.06.141a.1.1 0 1 0 .184.079l.061-.141a.1.1 0 1 0-.185-.079m.333-.571a.1.1 0 0 0-.131.053l-.061.141a.1.1 0 1 0 .185.079l.06-.14a.1.1 0 0 0-.053-.133m-.386-.006a.1.1 0 0 0-.131.053l-.06.141a.1.1 0 1 0 .185.078l.06-.14a.1.1 0 0 0-.054-.132m1.983.611-.06.141a.1.1 0 1 0 .185.079l.061-.14a.1.1 0 1 0-.186-.081m-.773-.014-.059.141a.1.1 0 1 0 .185.08l.06-.142a.1.1 0 1 0-.185-.079m.721-.564a.1.1 0 0 0-.132.053l-.06.141a.1.1 0 1 0 .185.079l.06-.14a.1.1 0 0 0-.053-.133m-.335.572-.06.141a.1.1 0 1 0 .186.078l.06-.14a.1.1 0 1 0-.186-.08m-.052-.578a.1.1 0 0 0-.13.052l-.06.141a.1.1 0 1 0 .184.08l.06-.141a.1.1 0 0 0-.054-.132m-.772-.014a.1.1 0 0 0-.131.053l-.06.141a.1.1 0 1 0 .184.079l.061-.14a.1.1 0 0 0-.053-.133m-2.65.531-.06.141a.1.1 0 1 0 .185.078l.061-.141a.1.1 0 1 0-.186-.078m.334-.572a.1.1 0 0 0-.132.054l-.06.141a.1.1 0 1 0 .185.078l.06-.141a.1.1 0 0 0-.053-.131m-.386-.006a.1.1 0 0 0-.132.053l-.06.141a.1.1 0 1 0 .185.079l.06-.141a.1.1 0 0 0-.053-.132m-.334.571-.061.14a.1.1 0 1 0 .186.08l.06-.141a.1.1 0 1 0-.185-.079m.772.013-.06.141a.1.1 0 1 0 .185.08l.06-.142a.1.1 0 1 0-.185-.079m.334-.571a.1.1 0 0 0-.131.053l-.06.141a.1.1 0 1 0 .185.08l.06-.142a.1.1 0 0 0-.054-.132m.825.592-.061.141a.1.1 0 1 0 .185.078l.06-.141a.1.1 0 1 0-.184-.078m-.387-.007-.06.141a.1.1 0 1 0 .186.079l.06-.141a.1.1 0 1 0-.186-.08m.334-.572a.1.1 0 0 0-.131.054l-.06.141a.1.1 0 1 0 .184.079l.061-.141a.1.1 0 0 0-.054-.132m-.386-.006a.1.1 0 0 0-.131.053l-.061.141a.1.1 0 1 0 .185.079l.06-.141a.1.1 0 0 0-.053-.132m-.334.572-.06.141a.1.1 0 1 0 .185.078l.06-.141a.1.1 0 1 0-.185-.079m2.265-.538a.1.1 0 0 0-.133.053l-.06.141a.1.1 0 1 0 .186.078l.06-.14a.1.1 0 0 0-.053-.132m-6.555 2.82a.1.1 0 0 0 .131-.053l.06-.14a.1.1 0 1 0-.185-.079l-.06.141a.1.1 0 0 0 .054.131m.239-.51a.1.1 0 0 0 .095-.06l.06-.141a.1.1 0 1 0-.185-.079l-.06.141a.1.1 0 0 0 .09.14m-.385-.007a.1.1 0 0 0 .094-.06l.06-.14a.1.1 0 1 0-.185-.081l-.06.142a.1.1 0 0 0 .09.14m-.24.511a.1.1 0 0 0 .131-.053l.061-.14a.1.1 0 1 0-.185-.081l-.06.142a.1.1 0 0 0 .053.132m.773.013a.1.1 0 0 0 .13-.053l.06-.14a.1.1 0 1 0-.184-.08l-.06.141a.1.1 0 0 0 .053.132m.239-.51a.1.1 0 0 0 .094-.061l.06-.14a.1.1 0 1 0-.184-.08l-.061.141a.1.1 0 0 0 .091.14m-1.398.49a.1.1 0 0 0 .131-.053l.06-.141a.1.1 0 1 0-.184-.079l-.061.141a.1.1 0 0 0 .054.132m-.532-.524a.1.1 0 0 0 .093-.06l.06-.141a.1.1 0 1 0-.184-.079l-.061.141a.1.1 0 0 0 .091.14m.771.014a.1.1 0 0 0 .095-.061l.06-.14a.1.1 0 1 0-.186-.08l-.06.141a.1.1 0 0 0 .091.14m-.625.503a.1.1 0 0 0 .131-.053l.06-.141a.1.1 0 1 0-.185-.079l-.06.141a.1.1 0 0 0 .054.132m1.93.034a.1.1 0 0 0 .132-.053l.06-.14a.1.1 0 1 0-.185-.08l-.06.141a.1.1 0 0 0 .053.132m-2.316-.04a.1.1 0 0 0 .131-.054l.061-.141a.1.1 0 1 0-.185-.078l-.06.141a.1.1 0 0 0 .053.131m.625-.504a.1.1 0 0 0 .094-.06l.061-.141a.1.1 0 1 0-.185-.08l-.06.141a.1.1 0 0 0 .09.14m3.476.061a.1.1 0 0 0 .094-.061l.06-.14a.1.1 0 1 0-.186-.08l-.06.141a.1.1 0 0 0 .091.141m-.241.51a.1.1 0 0 0 .132-.053l.06-.14a.1.1 0 1 0-.184-.081l-.059.151a.1.1 0 0 0 .053.132m-.146-.516a.1.1 0 0 0 .095-.062l.06-.14a.1.1 0 1 0-.186-.079l-.06.14a.1.1 0 0 0 .091.141m.532.522a.1.1 0 0 0 .133-.053l.06-.14a.1.1 0 1 0-.186-.079l-.06.141a.1.1 0 0 0 .054.131m.185.525a.1.1 0 0 0 .131-.053l.06-.14a.1.1 0 1 0-.184-.08l-.06.141a.1.1 0 0 0 .053.132m-.957-.538a.1.1 0 0 0 .132-.053l.06-.14a.1.1 0 1 0-.185-.08l-.06.141a.1.1 0 0 0 .053.132m-.918-.53a.1.1 0 0 0 .094-.061l.061-.14a.1.1 0 1 0-.186-.08l-.06.141a.1.1 0 0 0 .09.14m.386.007a.1.1 0 0 0 .094-.061l.06-.141a.1.1 0 1 0-.185-.078l-.06.14a.1.1 0 0 0 .09.141m-.24.509a.1.1 0 0 0 .132-.053l.06-.14a.1.1 0 1 0-.185-.079l-.061.141a.1.1 0 0 0 .055.131m.386.007a.1.1 0 0 0 .132-.053l.061-.14a.1.1 0 1 0-.186-.08l-.06.141a.1.1 0 0 0 .053.132m.241-.509a.1.1 0 0 0 .093-.061l.06-.141a.1.1 0 1 0-.184-.079l-.061.14a.1.1 0 0 0 .091.141m-5.407-.095a.1.1 0 0 0 .095-.061l.06-.141a.1.1 0 1 0-.185-.079l-.06.141a.1.1 0 0 0 .09.14m.191-1.84-.06.14a.1.1 0 1 0 .185.078l.06-.14a.1.1 0 1 0-.186-.078m-.053-.578a.1.1 0 0 0-.132.053l-.06.14a.1.1 0 1 0 .186.08l.06-.141a.1.1 0 0 0-.054-.132m-.333.571-.061.14a.1.1 0 1 0 .185.079l.06-.14a.1.1 0 1 0-.184-.079m-.43 2.35a.1.1 0 0 0 .132-.053l.06-.141a.1.1 0 1 0-.185-.078l-.052.122-.01.091a.1.1 0 0 0 .055.06m2.556-.469a.1.1 0 0 0 .095-.061l.06-.14a.1.1 0 1 0-.186-.08l-.06.141a.1.1 0 0 0 .09.14m-.58-1.858-.06.14a.1.1 0 1 0 .185.079l.06-.14a.1.1 0 1 0-.186-.08M3.049 13.21a.1.1 0 0 0 .094-.06l.061-.142a.1.1 0 1 0-.186-.078l-.06.141a.1.1 0 0 0 .09.14m1.681-2.391a.1.1 0 0 0-.13.053l-.061.14a.1.1 0 1 0 .185.08l.06-.141a.1.1 0 0 0-.054-.132m-.385-.007a.1.1 0 0 0-.133.053l-.06.14a.1.1 0 1 0 .186.081l.06-.142a.1.1 0 0 0-.053-.132m.052.578-.06.14a.1.1 0 1 0 .184.079l.061-.14a.1.1 0 1 0-.185-.079m-.387-.007-.06.14a.1.1 0 1 0 .186.08l.06-.141a.1.1 0 1 0-.186-.079m-.052-.577a.1.1 0 0 0-.131.053l-.06.14a.1.1 0 1 0 .184.079l.06-.141a.1.1 0 0 0-.053-.131m.781 2.948a.1.1 0 0 0 .133-.053l.06-.141a.1.1 0 1 0-.186-.079l-.06.141a.1.1 0 0 0 .053.132m-.146-.517a.1.1 0 0 0 .094-.06l.06-.141a.1.1 0 1 0-.185-.079l-.06.141a.1.1 0 0 0 .091.14m5.59.619a.1.1 0 0 0 .094-.061l.06-.14a.1.1 0 1 0-.186-.08l-.06.141a.1.1 0 0 0 .091.14m-5.829-.109a.1.1 0 0 0 .13-.053l.06-.141a.1.1 0 1 0-.184-.078l-.06.141a.1.1 0 0 0 .054.131m.625-.503a.1.1 0 0 0 .094-.061l.06-.14a.1.1 0 1 0-.184-.08l-.06.141a.1.1 0 0 0 .09.14m-1.783.483a.1.1 0 0 0 .13-.053l.06-.141a.1.1 0 1 0-.184-.079l-.061.141a.1.1 0 0 0 .055.132m.385.007a.1.1 0 0 0 .132-.053l.061-.141a.1.1 0 1 0-.186-.079l-.06.141a.1.1 0 0 0 .053.132m1.535-2.908a.1.1 0 0 0-.131.053l-.06.14a.1.1 0 1 0 .184.08l.061-.141a.1.1 0 0 0-.054-.132M3.82 13.226a.1.1 0 0 0 .093-.061l.06-.14a.1.1 0 1 0-.185-.08l-.061.141a.1.1 0 0 0 .092.14m.145.516a.1.1 0 0 0 .132-.053l.06-.141a.1.1 0 1 0-.185-.078l-.06.141a.1.1 0 0 0 .053.131m.24-.51a.1.1 0 0 0 .095-.06l.06-.141a.1.1 0 1 0-.186-.079l-.06.141a.1.1 0 0 0 .09.14m.918.531a.1.1 0 0 0 .132-.053l.06-.141a.1.1 0 1 0-.185-.079l-.06.141a.1.1 0 0 0 .053.132m-.367-1.05a.1.1 0 0 0 .131-.053l.06-.14a.1.1 0 1 0-.185-.079l-.06.141a.1.1 0 0 0 .054.131m1.397-.489a.1.1 0 0 0 .094-.061l.061-.141a.1.1 0 1 0-.185-.078l-.06.14a.1.1 0 0 0 .09.141m-.239.509a.1.1 0 0 0 .131-.053l.06-.14a.1.1 0 1 0-.185-.079l-.06.141a.1.1 0 0 0 .054.131m.626-.501a.1.1 0 0 0 .094-.063l.06-.14a.1.1 0 1 0-.185-.079l-.06.14a.1.1 0 0 0 .091.141m.146.516a.1.1 0 0 0 .132-.054l.06-.14a.1.1 0 1 0-.185-.079l-.06.14a.1.1 0 0 0 .053.133m.24-.51a.1.1 0 0 0 .094-.062l.06-.14a.1.1 0 1 0-.185-.079l-.06.14a.1.1 0 0 0 .09.141m-1.784.481a.1.1 0 0 0 .131-.052l.06-.14a.1.1 0 1 0-.184-.08l-.061.141a.1.1 0 0 0 .054.132m.626-.501a.1.1 0 0 0 .094-.062l.06-.14a.1.1 0 1 0-.185-.079l-.061.14a.1.1 0 0 0 .091.141m1.304.537a.1.1 0 0 0 .132-.054l.06-.14a.1.1 0 1 0-.185-.08l-.06.141a.1.1 0 0 0 .053.133m-2.077-.551a.1.1 0 0 0 .094-.061l.061-.141a.1.1 0 1 0-.185-.078l-.06.14a.1.1 0 0 0 .09.141m.533.523a.1.1 0 0 0 .131-.053l.061-.14a.1.1 0 1 0-.185-.08l-.06.141a.1.1 0 0 0 .053.132m-.147-.516a.1.1 0 0 0 .095-.062l.06-.14a.1.1 0 1 0-.186-.079l-.06.14a.1.1 0 0 0 .091.141m.919.529a.1.1 0 0 0 .132-.053l.06-.14a.1.1 0 1 0-.185-.079l-.061.14a.1.1 0 0 0 .054.132m2.556-.469a.1.1 0 0 0 .094-.06l.06-.142a.1.1 0 1 0-.184-.078l-.06.14a.1.1 0 0 0 .09.141m-.239.51a.1.1 0 0 0 .13-.054l.061-.14a.1.1 0 1 0-.185-.078l-.06.14a.1.1 0 0 0 .054.132m.625-.502a.1.1 0 0 0 .095-.062l.06-.141a.1.1 0 1 0-.186-.078l-.06.14a.1.1 0 0 0 .091.141m-.24.509a.1.1 0 0 0 .133-.054l.06-.14a.1.1 0 1 0-.186-.079l-.06.14a.1.1 0 0 0 .053.133m-.532-.523a.1.1 0 0 0 .095-.061l.06-.141a.1.1 0 1 0-.186-.079l-.06.14a.1.1 0 0 0 .09.141m-.24.51a.1.1 0 0 0 .132-.054l.06-.14a.1.1 0 1 0-.184-.079l-.061.14a.1.1 0 0 0 .054.133m-.532-.524a.1.1 0 0 0 .094-.06l.06-.142a.1.1 0 1 0-.184-.078l-.061.14a.1.1 0 0 0 .091.141m-.239.51a.1.1 0 0 0 .13-.054l.061-.14a.1.1 0 1 0-.185-.078l-.06.14a.1.1 0 0 0 .054.132m.625-.503a.1.1 0 0 0 .094-.061l.061-.141a.1.1 0 1 0-.186-.079l-.06.14a.1.1 0 0 0 .091.141m-.24.51a.1.1 0 0 0 .132-.054l.06-.14a.1.1 0 1 0-.185-.079l-.06.14a.1.1 0 0 0 .053.133m-.532-.523a.1.1 0 0 0 .094-.061l.06-.141a.1.1 0 1 0-.185-.08l-.06.141a.1.1 0 0 0 .09.141m-3.475-.061a.1.1 0 0 0 .094-.061l.06-.141a.1.1 0 1 0-.184-.08l-.06.141a.1.1 0 0 0 .09.141m-.641-2.16.06-.141a.1.1 0 0 0-.07-.137l-.038.328a.1.1 0 0 0 .048-.05m3.022 3.951a.1.1 0 0 0-.131.053l-.06.141a.1.1 0 0 0-.008.041l.204.01.049-.114a.1.1 0 0 0-.054-.13m.386.007a.1.1 0 0 0-.131.053l-.06.141a.1.1 0 0 0-.007.051l.2.009.051-.123a.1.1 0 0 0-.053-.131m9.285-.88a.1.1 0 0 0-.132.052l-.061.14a.1.1 0 1 0 .186.081l.037-.088.014-.148a.1.1 0 0 0-.045-.037M3.05 11.12a.1.1 0 0 0 .131-.054l.06-.14a.1.1 0 0 0-.171-.1l-.032.287q.004.004.012.007m3.944 2.869a.1.1 0 0 0-.131.053l-.061.141a.1.1 0 0 0-.005.061l.194.009.056-.133a.1.1 0 0 0-.053-.131m2.696.319.06-.14a.1.1 0 1 0-.185-.079l-.06.141a.1.1 0 0 0 .071.137l.035.001a.1.1 0 0 0 .08-.06m6.433-3.091a.1.1 0 0 0-.004.063l.007-.067Zm-7.531 2.931a.1.1 0 1 0-.185-.08l-.06.141a.1.1 0 0 0 .016.104l.147.007a.1.1 0 0 0 .022-.032Zm-3.979-1.951a.1.1 0 0 0 .094-.061l.06-.14a.1.1 0 1 0-.185-.08l-.061.141a.1.1 0 0 0 .091.141m3.593 1.944a.1.1 0 1 0-.186-.079l-.06.141a.1.1 0 0 0 .008.093l.164.007.013-.022Zm-.773-.014a.1.1 0 1 0-.185-.079l-.06.141a.1.1 0 0 0-.002.072l.186.009.001-.002Zm.385.006a.1.1 0 1 0-.185-.078l-.06.141a.1.1 0 0 0 .003.083l.177.007.006-.011Zm1.574-1.338a.1.1 0 0 0 .131-.054l.06-.14a.1.1 0 1 0-.184-.079l-.06.14a.1.1 0 0 0 .053.133m-5.406-.095a.1.1 0 0 0 .132-.053l.06-.14a.1.1 0 1 0-.185-.08l-.06.141a.1.1 0 0 0 .053.132m.24-.509a.1.1 0 0 0 .095-.062l.06-.14a.1.1 0 1 0-.186-.079l-.06.14a.1.1 0 0 0 .09.141m-.626.502a.1.1 0 0 0 .132-.053l.061-.14a.1.1 0 1 0-.186-.08l-.06.141a.1.1 0 0 0 .053.132m.773.013a.1.1 0 0 0 .131-.053l.06-.14a.1.1 0 1 0-.184-.079l-.06.141a.1.1 0 0 0 .053.131m-.919-.53a.1.1 0 0 0 .094-.06l.06-.141a.1.1 0 1 0-.185-.079l-.06.141a.1.1 0 0 0 .09.14m-.494.451.06-.14a.1.1 0 0 0-.121-.137l-.037.337h.007a.1.1 0 0 0 .095-.06m.078-1.184a.1.1 0 0 0-.025-.114l-.026.235Zm.03.727a.1.1 0 0 0 .094-.061l.061-.14a.1.1 0 1 0-.186-.081l-.06.142a.1.1 0 0 0 .09.14m12.894.466-.06.141a.1.1 0 0 0 .053.132l.003.001.03-.31a.1.1 0 0 0-.026.036m-12.747.05a.1.1 0 0 0 .13-.053l.06-.14a.1.1 0 1 0-.184-.079l-.061.141a.1.1 0 0 0 .055.131m12.713-1.67a.1.1 0 0 0-.131.054l-.061.14a.1.1 0 1 0 .185.079l.06-.14a.1.1 0 0 0-.053-.133m-1.903 1.86a.1.1 0 0 0 .131-.053l.06-.141a.1.1 0 1 0-.185-.08l-.06.142a.1.1 0 0 0 .054.132m-.386-.007a.1.1 0 0 0 .131-.053l.061-.141a.1.1 0 1 0-.185-.079l-.06.14a.1.1 0 0 0 .053.133m.24-.51a.1.1 0 0 0 .093-.061l.06-.141a.1.1 0 1 0-.184-.079l-.06.141a.1.1 0 0 0 .09.14m.385.007a.1.1 0 0 0 .095-.061l.06-.141a.1.1 0 1 0-.185-.08l-.06.142a.1.1 0 0 0 .09.14m.147.516a.1.1 0 0 0 .131-.053l.06-.141a.1.1 0 1 0-.184-.078l-.06.141a.1.1 0 0 0 .053.131m.24-.51a.1.1 0 0 0 .094-.06l.06-.142a.1.1 0 1 0-.186-.078l-.06.141a.1.1 0 0 0 .092.14m-1.545-.027a.1.1 0 0 0 .094-.06l.061-.142a.1.1 0 1 0-.185-.078l-.06.141a.1.1 0 0 0 .09.14m-.442 1.028a.1.1 0 0 0 .132-.053l.06-.141a.1.1 0 1 0-.184-.078l-.061.14a.1.1 0 0 0 .053.132m2.133-.484a.1.1 0 0 0 .132-.053l.06-.141a.1.1 0 1 0-.185-.079l-.06.141a.1.1 0 0 0 .053.132m-1.507-.019a.1.1 0 0 0 .094-.06l.06-.142a.1.1 0 1 0-.184-.079l-.061.14a.1.1 0 0 0 .091.141m.202-.518a.1.1 0 0 0 .095-.06l.06-.142a.1.1 0 1 0-.186-.079l-.06.141a.1.1 0 0 0 .09.14m-.441 1.028a.1.1 0 0 0 .13-.053l.061-.141a.1.1 0 1 0-.185-.079l-.06.14a.1.1 0 0 0 .054.133m-.147-.517a.1.1 0 0 0 .095-.06l.06-.142a.1.1 0 1 0-.186-.078l-.06.14a.1.1 0 0 0 .09.141m2.638-1.854a.1.1 0 0 0-.132.053l-.06.141a.1.1 0 1 0 .185.079l.06-.14a.1.1 0 0 0-.053-.133m.052.578-.06.141a.1.1 0 1 0 .185.079l.061-.14a.1.1 0 1 0-.186-.08m-.773-.013-.059.141a.1.1 0 1 0 .185.078l.06-.14a.1.1 0 1 0-.185-.079m.387.006-.061.141a.1.1 0 1 0 .186.079l.06-.14a.1.1 0 1 0-.185-.08m-.053-.577a.1.1 0 0 0-.13.053l-.06.141a.1.1 0 1 0 .184.078l.061-.14a.1.1 0 0 0-.055-.132m.267 1.383a.1.1 0 0 0 .095-.061l.06-.14a.1.1 0 1 0-.185-.08l-.06.141a.1.1 0 0 0 .09.14m-.385-.007a.1.1 0 0 0 .094-.061l.061-.141a.1.1 0 1 0-.186-.079l-.06.141a.1.1 0 0 0 .09.14m.147.517a.1.1 0 0 0 .13-.053l.06-.141a.1.1 0 1 0-.184-.079l-.061.141a.1.1 0 0 0 .055.132m.385.006a.1.1 0 0 0 .132-.053l.061-.141a.1.1 0 1 0-.186-.078l-.06.141a.1.1 0 0 0 .053.131m.411-1.308-.06.141a.1.1 0 0 0 .141.127l.032-.327a.1.1 0 0 0-.113.059m-.17.798a.1.1 0 0 0 .093-.06l.06-.141a.1.1 0 1 0-.185-.079l-.061.141a.1.1 0 0 0 .092.14m-3.09-.053a.1.1 0 0 0 .094-.061l.06-.141a.1.1 0 1 0-.184-.079l-.061.141a.1.1 0 0 0 .091.14m-2.132.484a.1.1 0 0 0 .093-.06l.061-.142a.1.1 0 1 0-.185-.079l-.06.14a.1.1 0 0 0 .09.141m.201-.518a.1.1 0 0 0 .095-.06l.06-.142a.1.1 0 1 0-.185-.079l-.061.14a.1.1 0 0 0 .091.141m-.442 1.028a.1.1 0 0 0 .133-.054l.06-.14a.1.1 0 1 0-.186-.079l-.06.14a.1.1 0 0 0 .054.133m.626-.503a.1.1 0 0 0 .095-.061l.06-.141a.1.1 0 1 0-.185-.079l-.06.14a.1.1 0 0 0 .09.141m-.239.51a.1.1 0 0 0 .132-.054l.06-.14a.1.1 0 1 0-.185-.079l-.061.14a.1.1 0 0 0 .054.133m-1.102-1.055a.1.1 0 0 0 .094-.061l.06-.141a.1.1 0 1 0-.186-.079l-.06.14a.1.1 0 0 0 .091.141m.146.517a.1.1 0 0 0 .131-.053l.06-.141a.1.1 0 1 0-.185-.08l-.06.141a.1.1 0 0 0 .054.133m.24-.51a.1.1 0 0 0 .093-.061l.061-.141a.1.1 0 1 0-.185-.08l-.06.141a.1.1 0 0 0 .09.141m-.056 1.034a.1.1 0 0 0 .131-.054l.06-.14a.1.1 0 1 0-.184-.078l-.06.14a.1.1 0 0 0 .053.132m.441-1.028a.1.1 0 0 0 .095-.06l.06-.142a.1.1 0 1 0-.185-.078l-.06.14a.1.1 0 0 0 .09.141m-.201.518a.1.1 0 0 0 .094-.06l.06-.142a.1.1 0 1 0-.185-.078l-.061.14a.1.1 0 0 0 .091.141m.973-.504a.1.1 0 0 0 .094-.061l.061-.141a.1.1 0 1 0-.185-.079l-.06.14a.1.1 0 0 0 .09.141m.957.538a.1.1 0 0 0 .094-.061l.06-.141a.1.1 0 1 0-.185-.079l-.06.14a.1.1 0 0 0 .091.141m.202-.518a.1.1 0 0 0 .095-.061l.06-.141a.1.1 0 1 0-.186-.079l-.06.141a.1.1 0 0 0 .09.14m.184.525a.1.1 0 0 0 .094-.061l.06-.141a.1.1 0 1 0-.185-.079l-.06.14a.1.1 0 0 0 .091.141m-.625.502a.1.1 0 0 0 .13-.052l.06-.141a.1.1 0 1 0-.184-.079l-.06.14a.1.1 0 0 0 .054.133m-.773-.013a.1.1 0 0 0 .131-.054l.061-.14a.1.1 0 1 0-.185-.078l-.06.14a.1.1 0 0 0 .053.132m1.158.02a.1.1 0 0 0 .132-.052l.06-.141a.1.1 0 1 0-.185-.079l-.06.14a.1.1 0 0 0 .053.133m-.918-.53a.1.1 0 0 0 .094-.06l.06-.141a.1.1 0 1 0-.185-.08l-.061.141a.1.1 0 0 0 .091.141m.588-.511a.1.1 0 0 0 .094-.06l.06-.142a.1.1 0 1 0-.185-.078l-.06.141a.1.1 0 0 0 .091.14m-.386-.007a.1.1 0 0 0 .094-.06l.06-.141a.1.1 0 1 0-.185-.08l-.06.142a.1.1 0 0 0 .091.14m-.056 1.035a.1.1 0 0 0 .132-.053l.06-.141a.1.1 0 1 0-.185-.078l-.06.14a.1.1 0 0 0 .053.132m.24-.51a.1.1 0 0 0 .094-.06l.06-.142a.1.1 0 1 0-.185-.078l-.06.14a.1.1 0 0 0 .09.141M5.161 11.42l-.061.14a.1.1 0 1 0 .186.079l.06-.141a.1.1 0 1 0-.185-.078m-1.265 2.529a.1.1 0 0 0-.132.053l-.051.12.214.009.021-.051a.1.1 0 0 0-.053-.131m7.864-4.5-.06.14a.1.1 0 1 0 .186.08l.06-.141a.1.1 0 1 0-.186-.079m-.052-.577a.1.1 0 0 0-.13.053l-.061.14a.1.1 0 1 0 .185.079l.06-.141a.1.1 0 0 0-.054-.131m-.333.571-.06.14a.1.1 0 1 0 .184.078l.061-.14a.1.1 0 1 0-.185-.078m-.439-.585a.1.1 0 0 0-.131.053l-.06.14a.1.1 0 1 0 .184.08l.06-.141a.1.1 0 0 0-.053-.132m.052.578-.06.14a.1.1 0 1 0 .186.079l.06-.14a.1.1 0 1 0-.186-.079m-.386-.007-.06.14a.1.1 0 1 0 .186.079l.06-.14a.1.1 0 1 0-.186-.079m2.264-.537a.1.1 0 0 0-.13.053l-.06.14a.1.1 0 1 0 .184.08l.06-.141a.1.1 0 0 0-.054-.132m-.333.571-.06.14a.1.1 0 1 0 .184.08l.061-.141a.1.1 0 1 0-.185-.08m-.439-.585a.1.1 0 0 0-.131.053l-.06.14a.1.1 0 1 0 .184.081l.061-.142a.1.1 0 0 0-.054-.132m.387.007a.1.1 0 0 0-.132.053l-.06.14a.1.1 0 1 0 .185.08l.06-.141a.1.1 0 0 0-.053-.132m-.334.572-.061.14a.1.1 0 1 0 .186.078l.06-.14a.1.1 0 1 0-.185-.079m.772.013-.06.14a.1.1 0 1 0 .185.079l.06-.141a.1.1 0 1 0-.185-.078m-3.914-.646a.1.1 0 0 0-.13.054l-.06.14a.1.1 0 1 0 .184.078l.061-.14a.1.1 0 0 0-.055-.132m.053.578-.061.14a.1.1 0 1 0 .186.08l.06-.141a.1.1 0 1 0-.185-.079m-.772-.014-.06.141a.1.1 0 1 0 .185.079l.06-.14a.1.1 0 1 0-.185-.081m.334-.571a.1.1 0 0 0-.131.054l-.061.14a.1.1 0 1 0 .185.079l.06-.14a.1.1 0 0 0-.053-.133m.052.578-.06.141a.1.1 0 1 0 .185.078l.06-.14a.1.1 0 1 0-.185-.079m.72-.565a.1.1 0 0 0-.132.054l-.06.14a.1.1 0 1 0 .185.08l.06-.141a.1.1 0 0 0-.053-.133m.825.593-.061.14a.1.1 0 1 0 .185.078l.06-.14a.1.1 0 1 0-.184-.078m-.773-.014-.06.14a.1.1 0 1 0 .185.079l.061-.14a.1.1 0 1 0-.186-.079m.721-.564a.1.1 0 0 0-.133.053l-.06.14a.1.1 0 1 0 .186.079l.06-.14a.1.1 0 0 0-.053-.132m-.335.571-.06.14a.1.1 0 1 0 .185.078l.06-.14a.1.1 0 1 0-.185-.078m-.052-.579a.1.1 0 0 0-.131.054l-.061.14a.1.1 0 1 0 .185.079l.06-.14a.1.1 0 0 0-.053-.133m.773.015a.1.1 0 0 0-.133.053l-.06.14a.1.1 0 1 0 .186.079l.06-.141a.1.1 0 0 0-.054-.131m5.659.153-.06.141a.1.1 0 0 0 .158.116l.013-.13a.23.23 0 0 0-.061-.178.1.1 0 0 0-.05.051m-.203.518-.06.14a.1.1 0 1 0 .186.08l.06-.141a.1.1 0 1 0-.186-.079m-6.714 4.793.061-.14a.1.1 0 1 0-.185-.081l-.06.142a.1.1 0 0 0 .043.126l.092.004a.1.1 0 0 0 .05-.051m6.328-4.799-.06.14a.1.1 0 1 0 .186.079l.06-.141a.1.1 0 1 0-.186-.078m-6.701 4.781.06-.14a.1.1 0 1 0-.185-.08l-.061.141a.1.1 0 0 0 .029.115l.124.005a.1.1 0 0 0 .033-.041m7.047-5.363a.1.1 0 0 0-.131.053l-.06.141a.1.1 0 1 0 .184.078l.061-.141a.1.1 0 0 0-.054-.131m-11.674 5.01a.1.1 0 0 0-.131.053l-.055.13.214.009.026-.061a.1.1 0 0 0-.054-.131M15.58 8.925a.1.1 0 0 0-.131.053l-.06.141a.1.1 0 1 0 .185.079l.06-.141a.1.1 0 0 0-.054-.132M4.678 13.948a.1.1 0 0 0-.132.053l-.06.141.215.01.03-.073a.1.1 0 0 0-.053-.13m.773.014a.1.1 0 0 0-.133.053l-.06.141-.006.02.212.01.04-.093a.1.1 0 0 0-.054-.131m.385.006a.1.1 0 0 0-.131.053l-.061.141a.1.1 0 0 0-.007.031l.209.01.043-.103a.1.1 0 0 0-.053-.132m-.773-.013a.1.1 0 0 0-.13.053l-.06.141-.003.01.212.01.035-.083a.1.1 0 0 0-.053-.131m8.252-4.493-.06.14a.1.1 0 1 0 .185.08l.06-.141a.1.1 0 1 0-.185-.079m.72-.564a.1.1 0 0 0-.132.053l-.06.14a.1.1 0 1 0 .185.08l.061-.141a.1.1 0 0 0-.054-.132m-.334.572-.06.14a.1.1 0 1 0 .185.079l.06-.141a.1.1 0 1 0-.185-.079m-.052-.579a.1.1 0 0 0-.131.053l-.061.14a.1.1 0 1 0 .185.08l.06-.141a.1.1 0 0 0-.053-.132m-.386-.006a.1.1 0 0 0-.132.053l-.06.14a.1.1 0 1 0 .185.079l.06-.141a.1.1 0 0 0-.053-.131m.825.591-.061.14a.1.1 0 1 0 .185.079l.06-.141a.1.1 0 1 0-.184-.078m1.106-.558a.1.1 0 0 0-.133.053l-.06.14a.1.1 0 1 0 .186.08l.06-.141a.1.1 0 0 0-.053-.132m.052.578-.06.14a.1.1 0 1 0 .184.08l.06-.141a.1.1 0 1 0-.184-.08m-.387-.007-.06.14a.1.1 0 1 0 .186.08l.06-.141a.1.1 0 1 0-.186-.079m-.438-.584a.1.1 0 0 0-.131.053l-.06.14a.1.1 0 1 0 .185.079l.06-.141a.1.1 0 0 0-.054-.131m.052.577-.06.14a.1.1 0 1 0 .185.081l.061-.142a.1.1 0 1 0-.186-.079m.334-.57a.1.1 0 0 0-.131.052l-.061.14a.1.1 0 1 0 .185.081l.06-.142a.1.1 0 0 0-.053-.131m-3.474-.061a.1.1 0 0 0-.133.053l-.06.14a.1.1 0 1 0 .186.08l.06-.141a.1.1 0 0 0-.053-.132m-8.056.436-.05.119-.011.097a.1.1 0 0 0 .092.064.1.1 0 0 0 .093-.06l.061-.142a.1.1 0 1 0-.185-.078m.334-.572a.1.1 0 0 0-.132.054l-.061.141a.1.1 0 1 0 .186.078l.06-.14a.1.1 0 0 0-.053-.132m4.298.652-.06.141a.1.1 0 1 0 .186.079l.06-.14a.1.1 0 1 0-.186-.08m-.824-.591a.1.1 0 0 0-.131.053l-.06.141a.1.1 0 1 0 .184.079l.061-.14a.1.1 0 0 0-.054-.133m-.386-.007a.1.1 0 0 0-.131.053l-.061.141a.1.1 0 1 0 .185.079l.06-.14a.1.1 0 0 0-.053-.133m.052.578-.06.141a.1.1 0 1 0 .186.079l.06-.14a.1.1 0 1 0-.186-.08m-.772-.013-.06.141a.1.1 0 1 0 .185.078l.06-.14a.1.1 0 1 0-.184-.079m.334-.572a.1.1 0 0 0-.131.054l-.06.141a.1.1 0 1 0 .185.078l.06-.14a.1.1 0 0 0-.054-.132m.053.578-.06.141a.1.1 0 1 0 .184.079l.061-.14a.1.1 0 1 0-.185-.08m1.878-.544a.1.1 0 0 0-.132.054l-.06.14a.1.1 0 1 0 .185.079l.06-.14a.1.1 0 0 0-.053-.133m-.387-.006a.1.1 0 0 0-.13.053l-.06.14a.1.1 0 1 0 .184.08l.06-.141a.1.1 0 0 0-.054-.132m-.719.564-.061.141a.1.1 0 1 0 .185.078l.06-.14a.1.1 0 1 0-.184-.079m.386.006-.06.141a.1.1 0 1 0 .185.08l.06-.141a.1.1 0 1 0-.185-.08m-.052-.577a.1.1 0 0 0-.133.053l-.06.141a.1.1 0 1 0 .186.078l.06-.14a.1.1 0 0 0-.053-.132m-1.879.544-.06.141a.1.1 0 1 0 .186.079l.06-.14a.1.1 0 1 0-.186-.081m-1.211-.599a.1.1 0 0 0-.132.053l-.06.141a.1.1 0 1 0 .185.079l.06-.14a.1.1 0 0 0-.053-.133m.052.578-.06.141a.1.1 0 1 0 .185.078l.061-.141a.1.1 0 1 0-.186-.078m-.386-.007-.061.141a.1.1 0 1 0 .186.079l.06-.141a.1.1 0 1 0-.185-.079m.72-.564a.1.1 0 0 0-.132.053l-.06.141a.1.1 0 1 0 .185.078l.06-.14a.1.1 0 0 0-.053-.132m-.773-.014a.1.1 0 0 0-.131.053l-.06.141a.1.1 0 1 0 .185.079l.061-.14a.1.1 0 0 0-.055-.133m-.333.572-.06.141a.1.1 0 1 0 .185.078l.06-.141a.1.1 0 1 0-.185-.079m1.158.02-.06.141a.1.1 0 1 0 .185.078l.06-.141a.1.1 0 1 0-.185-.079m.72-.565a.1.1 0 0 0-.132.053l-.06.141a.1.1 0 1 0 .185.079l.06-.14a.1.1 0 0 0-.053-.133m.386.007a.1.1 0 0 0-.131.053l-.06.141a.1.1 0 1 0 .184.079l.061-.14a.1.1 0 0 0-.054-.133m-.772-.014a.1.1 0 0 0-.131.053l-.06.141a.1.1 0 1 0 .185.08l.06-.141a.1.1 0 0 0-.054-.133m.052.578-.06.141a.1.1 0 1 0 .185.079l.06-.14a.1.1 0 1 0-.185-.08m6.521 4.566a.1.1 0 0 0 .094-.062l.061-.14a.1.1 0 1 0-.185-.079l-.06.14a.1.1 0 0 0 .09.141m3.5-3.347-.061.14a.1.1 0 1 0 .185.078l.06-.14a.1.1 0 1 0-.184-.078m-.053-.578a.1.1 0 0 0-.132.053l-.06.14a.1.1 0 1 0 .185.079l.061-.14a.1.1 0 0 0-.054-.132m.386.007a.1.1 0 0 0-.131.053l-.06.14a.1.1 0 1 0 .185.079l.06-.141a.1.1 0 0 0-.054-.131m.052.577-.06.14a.1.1 0 1 0 .186.079l.06-.14a.1.1 0 1 0-.186-.079m-.773-.013-.059.14a.1.1 0 1 0 .185.079l.06-.14a.1.1 0 1 0-.185-.08m-.051-.579a.1.1 0 0 0-.131.054l-.061.14a.1.1 0 1 0 .185.079l.06-.14a.1.1 0 0 0-.053-.133m-.334.573-.06.14a.1.1 0 1 0 .185.078l.061-.14a.1.1 0 1 0-.186-.079m.95 2.902a.1.1 0 0 0 .095-.06l.06-.142a.1.1 0 1 0-.185-.078l-.06.14a.1.1 0 0 0 .09.141m.147.517a.1.1 0 0 0 .131-.053l.061-.141a.1.1 0 1 0-.185-.079l-.06.14a.1.1 0 0 0 .053.133M12.14 10.48l-.061.141a.1.1 0 1 0 .185.079l.06-.14a.1.1 0 1 0-.184-.081m4.062-.45-.06.14a.1.1 0 0 0 .072.139l.032-.327a.1.1 0 0 0-.044.048m-.254-.06a.1.1 0 0 0-.131.053l-.06.14a.1.1 0 1 0 .184.08l.06-.141a.1.1 0 0 0-.053-.132m-3.089-.054a.1.1 0 0 0-.13.054l-.06.14a.1.1 0 1 0 .184.078l.06-.14a.1.1 0 0 0-.054-.132m.052.577-.06.141a.1.1 0 1 0 .186.079l.06-.14a.1.1 0 1 0-.186-.08m.335-.571a.1.1 0 0 0-.132.054l-.06.14a.1.1 0 1 0 .185.079l.06-.14a.1.1 0 0 0-.053-.133m1.92 4.012a.1.1 0 0 0 .133-.053l.06-.141a.1.1 0 1 0-.186-.078l-.06.14a.1.1 0 0 0 .053.132m-2.692-4.025a.1.1 0 0 0-.133.054l-.06.14a.1.1 0 1 0 .186.079l.06-.14a.1.1 0 0 0-.053-.133m.052.578-.06.141a.1.1 0 1 0 .184.078l.061-.14a.1.1 0 1 0-.185-.079m1.106-.558a.1.1 0 0 0-.132.054l-.06.14a.1.1 0 1 0 .185.079l.06-.14a.1.1 0 0 0-.053-.133m.385.007a.1.1 0 0 0-.13.054l-.06.14a.1.1 0 1 0 .184.078l.061-.14a.1.1 0 0 0-.055-.132m.054.577-.061.141a.1.1 0 1 0 .185.08l.06-.141a.1.1 0 1 0-.184-.08m.333-.57a.1.1 0 0 0-.132.053l-.06.14a.1.1 0 1 0 .185.08l.06-.141a.1.1 0 0 0-.053-.132m-.72.564-.06.141a.1.1 0 1 0 .185.078l.06-.14a.1.1 0 1 0-.185-.079m-.386-.007-.06.141a.1.1 0 1 0 .185.079l.06-.14a.1.1 0 1 0-.185-.08m2.702.048-.06.14a.1.1 0 1 0 .186.079l.057-.135.007-.07a.1.1 0 0 0-.19-.014m-4.124 3.85a.1.1 0 0 0 .132-.053l.06-.14a.1.1 0 1 0-.185-.08l-.061.141a.1.1 0 0 0 .054.132m-.386-.007a.1.1 0 0 0 .131-.053l.06-.14a.1.1 0 1 0-.185-.08l-.06.141a.1.1 0 0 0 .054.132m-1.158-.02a.1.1 0 0 0 .131-.053l.06-.14a.1.1 0 1 0-.185-.08l-.06.141a.1.1 0 0 0 .054.132m1.784-.482a.1.1 0 0 0 .094-.062l.06-.14a.1.1 0 1 0-.185-.079l-.06.14a.1.1 0 0 0 .091.141m.386.006a.1.1 0 0 0 .094-.061l.06-.141a.1.1 0 1 0-.185-.078l-.06.14a.1.1 0 0 0 .09.141m-.24.509a.1.1 0 0 0 .132-.053l.06-.14a.1.1 0 1 0-.185-.079l-.06.141a.1.1 0 0 0 .053.131m-1.544-.027a.1.1 0 0 0 .131-.053l.06-.14a.1.1 0 1 0-.184-.079l-.061.141a.1.1 0 0 0 .054.131m1.93.034a.1.1 0 0 0 .132-.053l.06-.14a.1.1 0 1 0-.185-.08l-.06.141a.1.1 0 0 0 .053.132m-1.304-.536a.1.1 0 0 0 .094-.061l.06-.141a.1.1 0 1 0-.185-.078l-.061.14a.1.1 0 0 0 .091.141m-.773-.013a.1.1 0 0 0 .094-.062l.061-.14a.1.1 0 1 0-.185-.08l-.06.141a.1.1 0 0 0 .09.141m.386.006a.1.1 0 0 0 .095-.061l.06-.141a.1.1 0 1 0-.186-.078l-.06.14a.1.1 0 0 0 .091.141m.147.516a.1.1 0 0 0 .131-.053l.061-.14a.1.1 0 1 0-.185-.079l-.06.141a.1.1 0 0 0 .053.131m3.531-.973a.1.1 0 0 0 .094-.061l.06-.141a.1.1 0 1 0-.186-.079l-.06.14a.1.1 0 0 0 .091.141m-.387-.007a.1.1 0 0 0 .094-.06l.061-.142a.1.1 0 1 0-.186-.078l-.06.14a.1.1 0 0 0 .091.141m.147.517a.1.1 0 0 0 .131-.053l.06-.141a.1.1 0 1 0-.184-.079l-.061.14a.1.1 0 0 0 .054.133m.626-.503a.1.1 0 0 0 .093-.061l.06-.141a.1.1 0 1 0-.184-.079l-.06.14a.1.1 0 0 0 .09.141m-1.01.496a.1.1 0 0 0 .133-.053l.06-.141a.1.1 0 1 0-.186-.078l-.06.14a.1.1 0 0 0 .053.132m-1.12-.012a.1.1 0 0 0 .094-.061l.06-.141a.1.1 0 1 0-.185-.079l-.06.14a.1.1 0 0 0 .09.141m1.893.026a.1.1 0 0 0 .132-.053l.06-.141a.1.1 0 1 0-.186-.079l-.06.14a.1.1 0 0 0 .054.133m-1.507-.02a.1.1 0 0 0 .094-.061l.06-.14a.1.1 0 1 0-.184-.079l-.061.14a.1.1 0 0 0 .091.141m-.239.511a.1.1 0 0 0 .13-.054l.06-.14a.1.1 0 1 0-.184-.079l-.06.14a.1.1 0 0 0 .054.133m.588-.512a.1.1 0 0 0 .13-.053l.061-.14a.1.1 0 1 0-.185-.08l-.06.141a.1.1 0 0 0 .054.132m.239-.51a.1.1 0 0 0 .094-.06l.06-.141a.1.1 0 1 0-.184-.08l-.061.141a.1.1 0 0 0 .091.141m-.386-.006a.1.1 0 0 0 .095-.061l.06-.141a.1.1 0 1 0-.186-.079l-.06.14a.1.1 0 0 0 .09.141m-6.355-2.999-.061.141a.1.1 0 1 0 .185.08l.06-.142a.1.1 0 1 0-.184-.079m-.825-.591a.1.1 0 0 0-.131.053l-.06.141a.1.1 0 1 0 .185.079l.06-.141a.1.1 0 0 0-.054-.132M5.907 9.8a.1.1 0 0 0-.132.053l-.06.141a.1.1 0 1 0 .185.078l.06-.141a.1.1 0 0 0-.053-.131m-.772-.014a.1.1 0 0 0-.132.053l-.06.141a.1.1 0 1 0 .184.079l.061-.141a.1.1 0 0 0-.053-.132m.438.585-.06.14a.1.1 0 1 0 .185.079l.06-.141a.1.1 0 1 0-.185-.078m-.386-.007-.061.14a.1.1 0 1 0 .186.08l.06-.141a.1.1 0 1 0-.185-.08m6.897-.457a.1.1 0 0 0-.131.054l-.06.14a.1.1 0 1 0 .184.079l.061-.14a.1.1 0 0 0-.054-.133m-6.125.47-.06.141a.1.1 0 1 0 .185.079l.06-.141a.1.1 0 1 0-.185-.079m1.106-.557a.1.1 0 0 0-.131.053l-.06.141a.1.1 0 1 0 .184.078l.061-.141a.1.1 0 0 0-.054-.131m-.72.564-.06.141a.1.1 0 1 0 .185.079l.061-.141a.1.1 0 1 0-.186-.079M3.52 13.928a.1.1 0 0 0-.132.053l-.047.11.214.01.018-.042a.1.1 0 0 0-.053-.13m3.161-4.115a.1.1 0 0 0-.131.052l-.061.141a.1.1 0 1 0 .185.079l.06-.141a.1.1 0 0 0-.053-.132m.052.577-.06.141a.1.1 0 1 0 .186.078l.06-.141a.1.1 0 1 0-.186-.078m-2.702-.047-.061.14a.1.1 0 1 0 .186.079l.06-.141a.1.1 0 1 0-.185-.078m-.387-.007-.06.14a.1.1 0 1 0 .186.08l.06-.141a.1.1 0 1 0-.186-.079m-.385-.007-.06.14a.1.1 0 1 0 .184.08l.06-.141a.1.1 0 1 0-.184-.079m.333-.571a.1.1 0 0 0-.13.053l-.061.14a.1.1 0 1 0 .185.08l.06-.141a.1.1 0 0 0-.054-.132m-.459 4.163a.1.1 0 0 0-.131.053l-.042.1.213.01.014-.031a.1.1 0 0 0-.054-.132m-.386-.006-.011-.004c.008.047.033.09.07.119a.1.1 0 0 0-.059-.115M4.75 9.778a.1.1 0 0 0-.13.053l-.061.141a.1.1 0 1 0 .185.08l.06-.142a.1.1 0 0 0-.054-.132m.053.578-.06.14a.1.1 0 1 0 .185.08l.06-.141a.1.1 0 1 0-.185-.079m-.386-.007-.06.14a.1.1 0 1 0 .184.081l.061-.142a.1.1 0 1 0-.185-.079m3.036-.523a.1.1 0 0 0-.131.052l-.06.141a.1.1 0 1 0 .185.08l.06-.141a.1.1 0 0 0-.054-.132m-3.088-.054a.1.1 0 0 0-.132.053l-.06.141a.1.1 0 1 0 .185.078l.06-.141a.1.1 0 0 0-.053-.131m-.387-.007a.1.1 0 0 0-.131.053l-.06.141a.1.1 0 1 0 .184.079l.061-.141a.1.1 0 0 0-.054-.132m1.545.027a.1.1 0 0 0-.132.053l-.06.141a.1.1 0 1 0 .185.079l.06-.141a.1.1 0 0 0-.053-.132m5.071.665-.06.141a.1.1 0 1 0 .186.079l.06-.14a.1.1 0 1 0-.186-.08m-.052-.578a.1.1 0 0 0-.132.053l-.06.141a.1.1 0 1 0 .185.079l.06-.14a.1.1 0 0 0-.053-.133m.386.007a.1.1 0 0 0-.131.053l-.06.141a.1.1 0 1 0 .184.079l.06-.14a.1.1 0 0 0-.053-.133m-.72.564-.061.141a.1.1 0 1 0 .186.079l.06-.14a.1.1 0 1 0-.185-.08m-.053-.577a.1.1 0 0 0-.13.053l-.06.141a.1.1 0 1 0 .184.078l.061-.14a.1.1 0 0 0-.055-.132m.825.591-.06.141a.1.1 0 1 0 .185.078l.06-.14a.1.1 0 1 0-.185-.079m.72-.565a.1.1 0 0 0-.131.053l-.061.141a.1.1 0 1 0 .186.08l.06-.141a.1.1 0 0 0-.054-.133m.052.578-.06.141a.1.1 0 1 0 .186.079l.06-.14a.1.1 0 1 0-.186-.08m-.385-.007-.06.141a.1.1 0 1 0 .184.08l.061-.141a.1.1 0 1 0-.185-.08m-.053-.577a.1.1 0 0 0-.131.053l-.06.141a.1.1 0 1 0 .185.078l.06-.14a.1.1 0 0 0-.054-.132m-1.492.551-.06.141a.1.1 0 1 0 .185.078l.06-.14a.1.1 0 1 0-.185-.079m-1.545-.027-.059.141a.1.1 0 1 0 .184.078l.06-.141a.1.1 0 1 0-.184-.078m-.051-.578a.1.1 0 0 0-.132.053l-.06.141a.1.1 0 1 0 .185.079l.06-.14a.1.1 0 0 0-.053-.133m-.72.564-.06.141a.1.1 0 1 0 .184.079l.061-.141a.1.1 0 1 0-.185-.079m1.106-.557a.1.1 0 0 0-.133.053l-.06.141a.1.1 0 1 0 .186.078l.06-.14a.1.1 0 0 0-.053-.132m-.773-.014a.1.1 0 0 0-.131.053l-.06.141a.1.1 0 1 0 .184.079l.06-.14a.1.1 0 0 0-.053-.133m.052.578-.06.141a.1.1 0 1 0 .186.079l.06-.141a.1.1 0 1 0-.186-.08m1.545.027-.06.141a.1.1 0 1 0 .185.078l.061-.14a.1.1 0 1 0-.186-.079m.334-.572a.1.1 0 0 0-.132.054l-.061.141a.1.1 0 1 0 .186.078l.06-.14a.1.1 0 0 0-.053-.132m-.386-.006a.1.1 0 0 0-.132.053l-.06.141a.1.1 0 1 0 .185.079l.06-.14a.1.1 0 0 0-.053-.133m-.334.572-.061.141a.1.1 0 1 0 .186.078l.06-.141a.1.1 0 1 0-.185-.079m-.386-.008-.06.141a.1.1 0 1 0 .185.079l.06-.141a.1.1 0 1 0-.185-.079m.333-.571a.1.1 0 0 0-.13.053l-.06.141a.1.1 0 1 0 .184.079l.061-.14a.1.1 0 0 0-.055-.133"/></svg>