<?xml version="1.0" encoding="UTF-8" standalone="no"?>
<svg
   width="24"
   height="24"
   viewBox="0 0 24 24"
   version="1.1"
   xmlns="http://www.w3.org/2000/svg"
   xmlns:svg="http://www.w3.org/2000/svg">
   <path
     style="fill:#44739e" d="M15.63079,2.39548c-.08272-.32687-.80862-.39548-1.40293-.39548h-4.45483c-.88007,0-1.33896.12945-1.40284.39532l-.34927,1.35109c0,.00579.0018.01027.0021.01584v17.80663c0,.23382.23439.2943.40556.33846l.04946.01295c.27292.06957.63643.07939.9561.07971h5.13289c.31963-.00032.68318-.01013.95666-.07987l.04857-.01279c.17121-.04416.4057-.10464.4057-.33846l.0001-17.81199c.00028-.00579.00105-.01122.00102-.01723l-.34829-1.34418ZM15.88268,21.56889c0,.16006-.13995.20856-.33768.25955l-.04904.01287c-.2612.0666-.61619.07601-.92903.07633h-5.13275c-.31279-.00032-.66783-.00973-.92837-.07609l-.04997-.01311c-.19764-.05107-.33754-.09949-.33754-.25955V3.95027c.08243.06747.20208.09948.30116.12495l.04941.01291c.2725.06929.63609.07894.95587.07923h5.1515c.31973-.00028.68328-.00993.95638-.07939l.04885-.01279c.09894-.02544.21907-.05671.3013-.12538l-.00009,17.61908ZM15.56109,4.01598l-.04922.01287c-.26538.06752-.63945.07645-.93563.07673h-5.15145c-.31465-.00028-.67192-.00961-.93516-.07657l-.04978-.01303c-.16289-.04186-.34746-.08928-.34834-.26281l.34853-1.34482c.05527-.22995.50373-.34658,1.333-.34658h4.45483c.80303,0,1.27648.12318,1.33314.34706l.34746,1.33758c0,.18025-.18452.2277-.34736.26957ZM12.0004,6.26973c-.47221,0-.85636.36596-.85636.81582,0,.4499.38414.8159.85636.8159.47213,0,.85628-.366.85628-.8159,0-.44985-.38414-.81582-.85628-.81582ZM12.0004,7.76766c-.402,0-.72903-.31175-.72903-.69493,0-.38314.32704-.69485.72903-.69485s.72903.31171.72903.69485c0,.38318-.32704.69493-.72903.69493ZM15.48832,4.29601c-.27895.07094-.64362.08079-.96361.08107h-5.04856c-.31998-.00028-.68456-.01013-.9636-.08111l-.04806-.01253c-.04943-.01269-.11226-.02885-.17518-.05336v8.7371c.06364.0385.14753.06038.22632.08065l.04915.01285c.25547.06503.60459.07409.91231.07441h5.04679c.30767-.00032.65684-.00938.913-.07465l.04833-.01261c.07889-.02027.16283-.04213.22649-.08062l.00005-8.73689c-.06119.02376-.12311.03969-.17481.05297l-.04861.01273ZM12.00042,8.0403c-.5328,0-.96624-.41298-.96624-.92058s.43344-.92054.96624-.92054c.53271,0,.96615.41294.96615.92054s-.43343.92058-.96615.92058ZM15.38589,3.87562c0,.01332-.01756.0271-.04773.03948.00218-.00615.00334-.0119.003-.01599,0-.05848-.1479-.09007-.28701-.09007s-.28701.03158-.28691.089c-.0005.00446.00057.01053.00269.01696-.03003-.01236-.04753-.0261-.04753-.03939,0-.038.13624-.08034.33174-.08034s.33174.04234.33174.08034ZM15.13201,3.86797c.00168.00036.00262.0009.00262.00153,0,.00127-.00399.00227-.00891.00227-.00252,0-.00482-.00027-.00639-.00063-.01614-.00408-.03857-.00662-.0633-.00662-.04937,0-.08951.01006-.08951.02248h.01488c.00221,0,.00388.00045.00262.0009-.00115.00037-.02201.00725-.02389.00779-.00116.00045-.00398.00036-.00514,0-.00136-.00045-.02243-.00734-.02379-.00779-.00116-.00045.0001-.0009.00251-.0009h.01499c0-.01486.048-.02691.10733-.02691.02976,0,.05659.00299.07598.00789ZM15.31107,3.89039c.00198.00314.0039.00627.0039.00939.0002.0024.00019.02346-.03127.03238-.05788.01412-.13666.02384-.22953.02384-.09289,0-.17172-.00972-.22959-.02385-.03204-.00851-.03142-.0297-.03121-.03304,0-.00296.00192-.00596.00378-.00895.02168.03166.12813.0557.25701.0557.12848,0,.23489-.02392.25692-.05547ZM15.14559,3.88703h-.01488c-.00221,0-.00389-.00045-.00252-.0009.00095-.00037.02191-.00716.02379-.00779.00116-.00037.00399-.00037.00514,0,.00136.00045.02243.00734.0239.00779.00105.00045-.00021.0009-.00262.0009h-.01488c0,.01486-.04811.027-.10744.027-.02966,0-.0566-.00308-.07599-.00798-.00157-.00036-.00262-.0009-.00262-.00153,0-.00127.00409-.00227.00901-.00227.00252,0,.00472.00027.0064.00063.01614.00408.03857.00662.0632.00662.04947,0,.08951-.01006.08951-.02248ZM15.41455,3.65394c.06449,0,.09939.01314.10399.01902-.0045.00588-.0393.01902-.10399.01902-.06663,0-.10154-.01398-.1042-.01845.00266-.00557.03767-.0196.1042-.0196ZM14.32946,2.11586l-4.6707-.00008c-.67834,0-1.11066.11393-1.15662.30492l-.34624,1.33477c.004.12206.12227.16151.30223.20776l.04904.01283c.25775.06555.62577.07424.91758.07448h5.15131c.29199-.00024.66001-.00889.91646-.07416l.05034-.01315c.17987-.04621.29804-.08582.30214-.20824l-.34633-1.33448c-.05667-.22461-.64112-.30464-1.16919-.30464ZM15.43165,2.90643c.00187,0,.00354.00016.00465.00036.01265.01653.02243.03306.03089.04878l-2.16241.05075,2.12529-.09986c.00056-.00004.00102-.00004.00158-.00004ZM13.01353,3.22465l2.05299.31658c-.0309.01448-.0643.02883-.10319.04512-.0014.00048-.00642.00088-.01052.00016l-1.93928-.36186ZM14.90331,3.61169c-.03927.01512-.0804.02956-.11966.04319-.00158.00056-.00707.00101-.01117.00008l-1.848-.41318c.00084.00004.00177.00012.0026.00028l1.97622.36962ZM13.09467,3.20434l2.11068.26305c-.02875.01669-.05936.03278-.08616.04665-.0013.00044-.00568.00084-.01014.00024l-2.01437-.30994ZM13.17032,3.18162l2.14883.20888c-.02298.01729-.04801.03394-.06932.04798-.00121.0004-.00521.0008-.00949.0004l-2.07002-.25726ZM13.23472,3.15605l2.17191.15551c-.01656.01717-.03536.03394-.05239.0489-.00093.00036-.00437.00076-.00847.00036l-2.11105-.20478ZM13.27315,3.12757l2.19415.10348c-.01052.01709-.02345.03394-.03629.04983-.0013.0002-.00363.00032-.00623.00012l-2.15162-.15342ZM13.30479,3.09805l2.19591.0514c-.00456.01721-.01191.03442-.01926.05039-.00121.00008-.0027.00012-.00456.00008l-2.17209-.10187ZM15.36075,2.82748c.01861.01645.03405.03294.04783.04866l-2.13785.10082,2.0836-.1488c.004-.00028.00744.0002.00642-.00068ZM15.25774,2.75196c.00242-.00004.00419.00016.00428.00004.02373.01597.04457.03209.06253.04669l-2.10091.15053,2.03066-.1971c.00112-.00012.00233-.00016.00344-.00016ZM15.13417,2.67872c.0027,0,.00484.00024.0053.00036.02847.01516.05416.03064.07668.0448l-2.05289.19963,1.96701-.24459c.0013-.00016.00269-.0002.00391-.0002ZM14.98808,2.60875c.0027,0,.00512.00032.00586.00056.03387.01484.06495.02984.09091.04291l-1.99446.24841,1.89359-.29161c.0013-.0002.0027-.00028.0041-.00028ZM14.82096,2.54255c.0026,0,.00503.00028.00596.0006.03768.01367.07239.02755.10477.0409l-1.92458.29679,1.80938-.33793c.00139-.00028.00298-.00036.00446-.00036ZM14.63402,2.48062c.00233,0,.00465.0002.00586.0006.04178.01267.08124.0259.11864.03877l-1.84204.34441,1.7127-.38334c.0013-.00032.00307-.00044.00484-.00044ZM14.43424,2.42379c.04718.01215.09203.02481.13222.03648l-1.71586.38442c-.00186.00044-.00437.00044-.00689.00044l1.57963-.42134c.00261-.00064.0081-.00064.01089,0ZM14.21157,2.37135c.05146.01114.10087.02296.14544.03394l-1.57527.42066c-.00189.00049-.00544.00033-.00846,0-.00037-.0001-.00074-.00018-.00111-.00027l1.42906-.45429c.00149-.00048.00698-.00072.01033-.00004ZM13.97373,2.32418c.05555.01009.10952.02103.15828.03117l-1.42518.45355c-.00104.00031-.00372.00048-.00622.00038-.00208-.00044-.00423-.00085-.00632-.00128l1.2692-.48362c.00131-.00044.00624-.00097.01024-.0002ZM13.72221,2.28264c.06179.00937.11976.01914.17103.02807l-1.26596.48287c-.00081.00028-.00337.00042-.00646.00036-.00342-.00059-.00699-.00113-.01043-.00171l1.10215-.50931c.00121-.00048.00577-.00092.00968-.00028ZM13.45888,2.24693c.05955.00728.11678.01516.18294.02469l-1.09958.50869c-.00072.00021-.00351.00017-.00584.00021-.00484-.00069-.00995-.00126-.01484-.00193l.92829-.53134c.00103-.0004.00503-.00076.00903-.00032ZM13.18577,2.21733c.06579.00631.12906.01339.19438.02099l-.92623.53061c-.00057.0002-.00316.00014-.00501.00025-.0067-.00076-.01383-.00129-.02061-.00202l.749-.54942c.00093-.00032.00475-.0008.00847-.0004ZM12.90466,2.19388c.07091.00507.14088.01118.20462.01705l-.7473.54883c-.00075.0002-.00347.00033-.00615.00029-.00799-.00069-.016-.00136-.02407-.00201l.56619-.56388c.00149-.00016.004-.00036.0067-.00028ZM12.61732,2.17687c.07779.00378.15419.00861.21402.01255l-.56473.56338c-.0013.00024-.00372.00044-.00651.00028v.00005c-.00918-.00056-.01802-.00134-.02729-.00184l.37949-.57426c.00121-.00016.00279-.00032.00502-.00016ZM12.31752,2.75707c-.00019-.00002-.00038-.00003-.00056-.00004l.00014-.00014c.00013.00005.00026.00011.00042.00018ZM12.32598,2.16633c.07742.00197.15214.00499.22164.008l-.37816.57368c-.00121.00012-.00298.00016-.00484.00024l-.00037-.00004h-.00056v.00027c-.01044-.00039-.02064-.00095-.03118-.00127v-.00005s.00001,0-.00009,0l.19038-.58076c.00074-.00004.00149,0,.00317-.00008ZM12.0324,2.16239c.07509.00016.15056.00149.22751.00298l-.18927.58011c-.00083.00008-.00167.00012-.0026.00012-.00307-.00052-.00521-.00008-.00772-.00008v.00038c-.00383-.00005-.00763-.00011-.01145-.00015v-.00039s-.00009,0-.00018,0l-.0161-.00016h-.00056l-.00009-.58281h.00046ZM12.20048,2.95898h.11634l.00043.0462-.11649.0131-.00014-.0257-.1941.02187-.19409-.02187-.00043.06955-.1132.01285c-.00229-.0042-.00357-.00852-.00343-.01285l.00071-.08264.00015-.02051h.11634l.19395.02187.19395-.02187ZM11.96931,2.16287h.00037l.00094.58233h-.00038l-.00642.00004c-.00391.00004-.00791.00008-.01182.00012h-.00009v.00042c-.00372.00004-.00744.0001-.01116.00015v-.00041c-.00187,0-.00373,0-.00522.00008-.00112-.00004-.00251,0-.00353-.00012l-.19038-.58064c.07248-.00137.14358-.00181.22769-.00197ZM11.67592,2.16686c.00149,0,.00224.00004.00298.00004l.19113.58015c-.00047,0-.00093.00004-.0014.00004l.00002.00021c-.01021.00031-.02012.00085-.03024.00123l-.00002-.00039c-.00195.00012-.00391-.00004-.00521-.0002l-.37956-.57416c.0763-.00322.15158-.00519.2223-.00692ZM11.38467,2.17739c.00186-.00004.00382,0,.00512.00012l.38005.57379c-.00927.0005-.01809.00129-.02728.00185v-.00015c-.00299.00028-.00522-.00012-.00662-.00032l-.56621-.56379c.07361-.00471.14665-.00832.21495-.0115ZM11.67565,3.35436v.00024c-.00019-.00008-.00047-.00016-.00065-.00028.00003,0,.00007,0,.00009,0,.00019.00002.00038.00003.00056.00004ZM11.0977,2.19432c.00298-.00028.00521,0,.00651.00024l.56688.56349c-.00774.00062-.01542.00126-.02309.00192-.00127.0001-.00249.00011-.00344.00011-.00158.00012-.00298-.00008-.00251.00032l-.75055-.55015c.07109-.00623.1433-.01146.2062-.01593ZM10.81641,2.21769c.004-.00036.00744.00008.0068-.00052l.75123.55002c-.00694.00074-.01424.00131-.0211.00209-.00203-.00007-.0037-.00032-.00387-.00011l-.92902-.53157c.06671-.00748.13325-.01391.19596-.01991ZM10.5434,2.24729c.00149-.0002.00303-.00024.00433-.00024.00205,0,.00335-.0002.00395.00012l.92979.53142c-.00446.00061-.00914.00113-.01357.00176-.00334.00014-.00679.00004-.00757-.0002l-1.10177-.50913c.06476-.00905.12929-.01701.18485-.02373ZM10.28025,2.28292c.00395-.0006.00851-.00016.00935.00016l1.10298.50916c-.00292.0005-.00595.00095-.00884.00145-.00346.00027-.0074.00004-.00828-.00027l-1.26815-.48331c.05988-.01009.12018-.01926.17294-.02719ZM10.02892,2.32446c.00382-.00072.0087-.00028.0101.00012l1.26993.48337c-.00115.00024-.00232.00046-.00347.0007-.00343.00068-.00842.00047-.01022-.00008l-1.42699-.4538c.04955-.01001.10101-.01954.16065-.03032ZM9.79127,2.37151c.00349-.00076.00875-.00048.01052.00008l1.42908.45404c-.00307.00064-.00828.00048-.01042-.00012l-1.57712-.42082c.04978-.01186.10012-.02284.14795-.03318ZM9.56873,2.42396c.00265-.00072.00814-.00072.01066-.00008l1.5788.4209c-.00242-.00004-.00493-.00004-.00679-.00044l-1.71758-.38462c.04108-.01158.08453-.02288.13492-.03575ZM9.36318,2.48126c.00228-.0006.00754-.00084.01066-.00012l1.714.38338-1.84623-.34505c.04155-.01383.08412-.0269.12157-.03821ZM9.17596,2.5432c.00149-.00052.0067-.00105.01061-.00028l1.8084.33761-1.92667-.29695c.03559-.01412.07248-.02767.10766-.04038ZM9.00908,2.60931c.00126-.00052.00605-.00101.01-.00036l1.89057.291-1.99428-.24833c.03201-.0154.06481-.02984.0937-.04231ZM8.86322,2.67925c.00112-.0004.0053-.00105.00954-.00048l1.9618.24391-2.05075-.19935c.02373-.01412.04964-.02823.07942-.04408ZM8.74002,2.75244c.00112-.00044.00512-.00076.00893-.00048l2.02326.19633-2.097-.15005c.02084-.01601.04359-.03153.06481-.04581ZM8.64041,2.82849c.00093-.0004.00423-.00072.00837-.00056l2.08304.14864-2.14078-.10094c.01563-.01653.03341-.0327.04936-.04713ZM8.56685,2.90651c.00135-.00024.00382-.0004.00623-.00032l2.12794.09978-2.16884-.05079c.00921-.0154.02075-.03101.03466-.04866ZM8.51833,2.98646c.00121-.0002.00279-.00048.0046-.0002l2.15632.04999-2.1794-.00008c.00433-.01689.01131-.03378.01847-.04971ZM8.49488,3.11788c-.00153-.01733-.00019-.03438.00177-.05043.00065-.00004.00139-.00008.00219-.00008l2.18312-.00028-2.18517.05079c-.00046.00008-.00125.00004-.00191,0ZM8.51749,3.19956c-.00735-.01701-.01182-.03414-.01531-.05051l2.19373-.05148-2.17409.10203c-.00167.00008-.00317.00004-.00433-.00004ZM8.56774,3.28063c-.01256-.01597-.02243-.03193-.03238-.05007l2.1908-.1034-2.15199.15366c-.0027.0002-.00503,0-.00642-.0002ZM8.64636,3.36155c-.01973-.01709-.03639-.03459-.05053-.05047l2.17693-.156-2.11994.20558c-.00386.00044-.00744-.00004-.00646.00088ZM8.75365,3.43896c-.002.00008-.00335-.00008-.00349,0-.02517-.01649-.04708-.0331-.06695-.04894l2.15162-.20936-2.07634.25803c-.00172.00024-.0034.00028-.00484.00028ZM8.88011,3.51421c-.0315-.01637-.05932-.0327-.08342-.04749l2.11128-.26317-2.01823.31067c-.00428.0006-.00898.00016-.00963,0ZM9.03546,3.5864c-.03592-.01516-.06905-.03077-.09985-.04577l2.05229-.31662-1.94184.36247c-.00423.00076-.0093.00036-.01061-.00008ZM9.21518,3.65496c-.04159-.01452-.08026-.02944-.1164-.04388l1.97427-.36938c.00083-.00016.00167-.00024.00251-.00032l-1.84898.41362c-.00419.00084-.00991.00044-.0114-.00004ZM9.41794,3.71923c-.04778-.01387-.09198-.02807-.1332-.04174l1.85-.41475c.00233-.00052.00596-.00056.00819-.00036l-1.71349.45677c-.00317.00088-.00917.0008-.0115.00008ZM9.64225,3.77859c-.05314-.01291-.10301-.0263-.14967-.03921l1.71084-.45713c.00266-.00069.00769-.00068.0109.00008.00011.00003.00021.00005.00031.00008l-1.56093.49599c-.00223.0008-.00818.00092-.01144.0002ZM9.88637,3.83248c-.05904-.01202-.11571-.02473-.16582-.03631l1.55805-.49614c.00149-.00055.00528-.00064.00873-.00027.0018.0004.00376.00074.00557.00113l-1.39527.53127c-.00163.00056-.00744.00109-.01126.00032ZM10.14826,3.88033c-.06565-.01094-.1272-.02244-.18122-.03286l1.39242-.53149c.0009-.00036.00401-.00048.00773-.00029.00333.0006.00693.0011.01029.00169l-1.21856.56255c-.00144.00048-.00661.00101-.01065.0004ZM10.42597,3.92176c-.07035-.00949-.13711-.01975-.19611-.02912l1.21548-.5627c.00088-.00032.00412-.00031.00705-.00026.00494.00072.01018.00132.01516.00203l-1.03154.58961c-.00126.00044-.00563.00109-.01005.00044ZM10.71713,3.95638c-.07277-.00764-.14265-.01625-.20997-.02485l1.02836-.58969c.00092-.00037.00421-.00052.00744-.00037.00649.00076.01294.00153.0195.00226l-.83575.61216c-.00112.0004-.0053.00084-.00958.00048ZM11.01926,3.98385c-.07379-.00571-.14404-.01235-.22239-.02019l.83262-.61213c.00083-.00032.00446-.00068.00782-.00044v-.00002c.00799.00071.01566.00161.02374.00228l-.63304.62997c-.00093.0004-.004.00088-.00875.00052ZM11.32996,4.00392c-.07974-.0041-.15902-.00953-.23365-.01488l.6308-.63022c.0013-.0002.00372-.00056.00679-.00028l.00002-.00018c.00959.00061.01888.00141.02857.00196l-.42619.64336c-.0014.00024-.00391.00044-.00633.00024ZM11.64633,4.01642c-.08691-.00237-.17112-.00607-.24258-.00941l.42301-.64313c.0013-.00012.00335-.00048.00549-.00024h.00065v-.00029c.01045.00041.02074.00094.03128.00127v.00015c.00036.00004.00073.00004.00101.00008l-.21458.65146c-.00121.00004-.00279.00024-.00428.00012ZM11.96736,4.02117c-.00047.00004-.00103.00004-.00168.00004-.08802-.00024-.17502-.00197-.24882-.00366l.21132-.65097c.00093-.00008.00112,0,.00363-.00012l.00698.00008h.0001v-.0004c.00394.00006.00787.00012.01182.00016v.0004s.00009,0,.00009,0c.00391.00004.00772.00008.01163.00012l.00502.00004c.00037,0,.00074,0,.00103.00004l-.00112.65427ZM11.72042,3.09495l.10762-.01211c.03002.01829.09862.03102.17852.03102.10762,0,.19466-.0231.19438-.05177v-.02137l.11649-.01309.00028.03447c.00044.04571-.13892.08302-.31114.08302-.12835,0-.23855-.02063-.28614-.05016ZM12.03427,4.02057c-.00056-.00004-.00103,0-.00131,0l-.00214-.65371c.00651-.00004.01302-.00008.01944-.00016h.0001v-.00037c.00382-.00004.00763-.0001.01144-.00015v.00036c.00214,0,.00391,0,.00549-.00008.00083-.00004.0027,0,.00372.00016l.21262.65158c-.07909.00173-.15688.00221-.24937.00237ZM12.3538,4.01586c-.00167,0-.00316-.00004-.00437-.00016l-.21541-.65081c.00065-.00004.00139-.00004.00223-.00008v-.00008c.01032-.00032.02036-.00085.0306-.00124v.00024c.00271-.00012.0042.00008.00559.00024l.42441.6437c-.07062.00314-.14804.00575-.24305.0082ZM12.6698,4.00347c-.00279-.00004-.00484-.00008-.00633-.00032l-.42655-.64259c.00977-.00054.01909-.00136.02876-.00197v.00007c.0028-.00016.00512.00008.0054-.00036h.00028l.63321.63139c-.08086.00571-.16331.01009-.23477.01379ZM12.98013,3.98337c-.004.00036-.00754-.00016-.00633.00097l-.63553-.63073c.0092-.00075.01805-.00169.02715-.0025.00177,0,.00333.00007.00309-.00014l.83588.61349c-.07909.00768-.15735.01383-.22425.0189ZM13.28227,3.95598c-.00139.00016-.0027.0002-.00382.0002-.00269,0-.00446-.00028-.00437-.00004l-.83716-.61204c.00739-.00081.01474-.00163.02205-.00248.00146.00007.00394,0,.00418.00002l1.0311.59069c-.07286.00901-.14721.01689-.21197.02365ZM13.57333,3.92143c-.0041.0004-.00884-.00004-.00949-.00024l-1.03186-.58904c.00554-.00078.01145-.0014.01694-.0022.00183.00009.00441-.00006.00494.00011l1.21767.56334c-.06793.01042-.13753.01987-.1982.02803ZM13.85081,3.88001c-.00419.00068-.00912.0002-.01042-.00032l-1.21789-.56181c.00379-.00066.00783-.00123.01159-.0019.0023.00007.0051,0,.00584.00025l1.39475.53194c-.06234.01162-.12497.02216-.18387.03185ZM14.11247,3.8322c-.00353.00088-.00912.00036-.01079-.00036l-1.39432-.53039c.00193-.00041.00397-.00078.00588-.00119.0029-.00017.00621-.00038.00775.00009l1.56.49651c-.0576.01291-.11678.02497-.16852.03535ZM14.35691,3.77835c-.00344.00072-.00949.00048-.01163-.0002l-1.55964-.49507c.00066-.00017.00135-.00032.002-.00049.00289-.00029.00637-.00056.00852.00006l1.71298.45742c-.0522.014-.10571.02711-.15223.03829ZM14.56954,3.71907l-1.71225-.45622c.00006-.00002.00012-.00004.00017-.00005.00217-.00022.00545-.00015.00757.00038l1.85209.41499c-.04504.01436-.09175.02807-.13623.04094-.00251.00072-.00828.0008-.01135-.00004ZM15.29195,3.95354c-.0005.00015-.00073.00042-.00125.00055l-.0001-.00027c-.06687.01623-.15271.02482-.23645.02482-.08364,0-.16939-.00859-.23623-.02478l-.00011.00032c-.00062-.00016-.0009-.00049-.00152-.00066-.07096-.0174-.12008-.0435-.12008-.07791,0-.06689.18445-.10298.35794-.10298s.35794.03609.35794.10298c0,.03442-.04915.06053-.12015.07792ZM15.54496,3.67297c0,.03291-.08199.04167-.13041.04167s-.1303-.00876-.1303-.04167.08188-.04167.1303-.04167.13041.00876.13041.04167ZM15.50628,3.06781c.00139.01745-.0001.03475-.00214.05039h-.00205l-2.18317-.05067,2.18531.0002c.00074,0,.00139.00004.00205.00008ZM13.32014,3.03681l2.1599-.05031h.00037c.00177,0,.00316.00012.00428.00024.00717.01693.01136.03382.01461.04975l-2.17916.00032ZM15.24819,21.05004c-.00585.08814-.08543.11439-.13423.11023-.07418-.00991-.12284-.06069-.12701-.13252.00629-.12798.16042-.13102.22986-.05499.01431.01567.03137.0418.03137.07727ZM15.32074,19.88669h0c-.11026-.0297-.13602-.19073-.05937-.23073.02337-.01219.04503-.00873.05937-.00644.12623.03295.15134.1844.06363.2292-.02674.01365-.04984.0101-.06363.00798ZM15.11396,20.33204h0c-.08918-.01199-.12408-.07677-.12701-.13339.00664-.12807.16068-.13099.22986-.05484.02872.03161.03051.06233.03137.07712-.00497.0841-.08148.1156-.13423.11111ZM15.3846,19.05024c-.02681.01384-.04986.01032-.06363.00821-.11019-.02977-.13596-.19137-.05938-.23155.02335-.01224.04503-.00878.05938-.00648.12577.03283.15096.18473.06363.22982ZM14.98696,19.36962c.04062.00576.0829.01055.12653.0143-.04363-.00375-.08591-.00854-.12653-.0143.00673-.12814.16073-.1308.22986-.05448.02872.03171.03051.06214.03137.07677-.00519.08883-.08508.11529-.13423.1111-.07465-.00998-.12331-.06109-.12701-.13338ZM14.98696,18.54139c.00629-.12798.16042-.13102.22986-.05499.01431.01567.03137.0418.03137.07727-.00585.08814-.08543.11439-.13423.11023-.07418-.00991-.12284-.06069-.12701-.13252ZM15.38437,17.39235c-.02674.01365-.04984.0101-.06363.00798h0c-.11026-.0297-.13602-.19073-.05937-.23073.02337-.01219.04503-.00873.05937-.00644.12623.03295.15134.1844.06363.2292ZM15.21682,17.65744c.02872.03161.03051.06233.03137.07712-.00497.0841-.08148.1156-.13423.11111h0c-.08918-.01199-.12408-.07677-.12701-.13338.00664-.12808.16068-.131.22986-.05485ZM15.3846,16.56388c-.02681.01384-.04986.01032-.06363.00821-.11019-.02977-.13596-.19137-.05938-.23155.02335-.01224.04503-.00878.05938-.00648.12577.03283.15096.18474.06363.22982ZM15.24819,16.90553c-.00519.08883-.08508.11529-.13423.1111-.07465-.00998-.12331-.06109-.12701-.13338.04062.00576.0829.01055.12653.0143-.04363-.00375-.08591-.00854-.12653-.0143.00673-.12814.16073-.1308.22986-.05448.02872.03171.03051.06214.03137.07677ZM15.24819,16.07731c-.00585.08814-.08543.11439-.13423.11023-.07418-.00991-.12284-.06069-.12701-.13252.00629-.12798.16042-.13102.22986-.05499.01431.01567.03137.0418.03137.07727ZM15.38314,14.90603c-.02677.0136-.04985.01005-.06363.00793h0c-.11782-.03174-.12846-.19444-.05937-.23068.02334-.01224.04503-.00878.05937-.00649.12656.03303.15162.18451.06363.22924ZM15.21682,15.17108c.02872.03161.03051.06233.03137.07712-.00497.0841-.08148.1156-.13423.11111h0c-.08918-.01199-.12408-.07677-.12701-.13338.00664-.12808.16068-.131.22986-.05485ZM15.3846,14.07752c-.02681.01383-.04986.01031-.06363.0082-.11019-.02977-.13596-.19137-.05938-.23155.02335-.01224.04503-.00878.05938-.00648.12577.03283.15096.18474.06363.22983ZM15.21682,14.34241c.02872.03173.03051.06217.03137.07681-.00519.0888-.08508.11524-.13423.11105-.07465-.00998-.12331-.06107-.12701-.13333.00673-.12819.16073-.13087.22986-.05453ZM15.21682,13.53859c.02872.03162.03051.06236.03137.07713-.00522.0882-.0851.11442-.13423.11023-.07463-.00998-.1233-.06076-.12701-.13252.00664-.12807.16068-.13099.22986-.05484ZM15.38457,21.53658c-.02681.01382-.04986.0103-.06363.00819h0c-.11018-.02977-.13594-.19134-.05938-.2315.02335-.01224.04503-.00878.05938-.00648.12581.03284.15099.18472.06363.22979ZM15.62479,21.43344c-.00659.0049-.01689.00863-.02864-.00141-.04872-.04961-.04608-.24802-.013-.24477.04815.00473.10088.20207.04164.24618ZM15.26253,20.48446c.02341-.01243.04505-.00899.05937-.00671.12644.0331.15153.18512.06363.23003-.02674.01366-.04984.01012-.06363.008-.11292-.03042-.13755-.18981-.05937-.23132ZM15.59497,20.60304h0c-.04826-.04907-.04576-.24761-.013-.24475.04935.0043.10256.2016.04164.24635-.00657.00483-.01686.00847-.02863-.00159ZM15.57472,20.99327c-.0038.08336-.05429.10138-.08893.08755-.06328-.03037-.07266-.11698-.07376-.1528,0-.09649.05525-.11027.10685-.06261.04343.04013.05718.09845.05583.12786ZM15.62451,19.77556c-.00657.00482-.01687.00845-.02864-.00162-.04873-.04954-.04609-.24726-.013-.24397.04852.00484.10139.20175.04164.24559ZM15.51893,20.03632c.0197.01822.05315.05906.05587.12785-.00341.08317-.05511.10192-.08897.0884-.06541-.03149-.07299-.12558-.07376-.15366.00302-.10855.0643-.10195.10685-.06259ZM15.59618,18.94571c-.04872-.04963-.04609-.24807-.013-.24482.04811.00473.10082.20209.04164.24621-.00659.00491-.01689.00865-.02864-.00139ZM15.5748,19.33514c-.00341.08412-.05408.10233-.08897.0884h0c-.06365-.03058-.07279-.11765-.07376-.15367.00306-.10886.06433-.10207.10685-.06247.01969.01834.05314.05931.05587.12773h0ZM15.38551,18.22144c-.02674.01365-.04983.0101-.06363.00798-.11293-.03042-.13756-.18981-.05937-.23132.02342-.01243.04505-.00899.05937-.00671.12649.03311.15157.18514.06363.23005ZM15.62358,18.11829c-.00942.00691-.01932.00635-.02864-.00161h0c-.04826-.04907-.04575-.24761-.013-.24475.04939.0043.10261.20161.04164.24636ZM15.41203,18.44166c0-.09649.05525-.11027.10685-.0626.04343.04013.05718.09844.05583.12785-.0038.08336-.05429.10138-.08893.08755-.06328-.03037-.07266-.11698-.07376-.1528ZM15.62451,17.2892c-.00657.00482-.01687.00845-.02864-.00162-.04873-.04954-.04609-.24726-.013-.24397.04852.00484.10139.20175.04164.24559ZM15.51893,17.54996c.0197.01822.05315.05906.05587.12785-.00341.08317-.05511.10192-.08897.0884-.06541-.03149-.07299-.12558-.07376-.15366.00302-.10855.0643-.10195.10685-.06259ZM15.59618,16.45936c-.04872-.04963-.04609-.24808-.013-.24483.04811.00473.10082.20209.04164.24621-.00659.00491-.01689.00865-.02864-.00138ZM15.5748,16.84877c-.00341.08412-.05408.10233-.08897.0884h0c-.06365-.03058-.07279-.11765-.07376-.15367.00306-.10886.06433-.10207.10685-.06247.01969.01834.05314.05931.05587.12773h0ZM15.38551,15.73507c-.02674.01365-.04983.0101-.06363.00798-.11293-.03042-.13756-.18981-.05937-.23132.02342-.01243.04505-.009.05937-.00672.12649.03312.15157.18514.06363.23005ZM15.62358,15.63193c-.00942.00691-.01932.00635-.02864-.00161h0c-.04826-.04907-.04575-.24761-.013-.24475.04939.0043.10261.20161.04164.24636ZM15.41203,15.9553c0-.09649.05525-.11027.10685-.0626.04343.04013.05718.09844.05583.12785-.0038.08336-.05429.10138-.08893.08755-.06328-.03037-.07266-.11698-.07376-.1528ZM15.62422,14.80288c-.00658.00479-.01688.00839-.02864-.00166-.04866-.04946-.04604-.2472-.013-.24396.04886.0048.10186.20172.04164.24562ZM15.51893,15.0636c.0197.01822.05315.05906.05587.12785-.00341.08317-.05511.10192-.08897.0884-.06541-.03149-.07299-.12558-.07376-.15366.00302-.10855.0643-.10195.10685-.06259ZM15.59618,13.973c-.04872-.04963-.04609-.24808-.013-.24482.04811.00472.10082.20208.04164.24621-.00659.00491-.01689.00865-.02864-.00138ZM15.5748,14.36245c-.00341.08408-.05408.10229-.08897.08836h0c-.06366-.03058-.07279-.11762-.07376-.15362.00306-.1089.06433-.10211.10685-.06251.01969.01834.05314.05932.05587.12777ZM15.51893,13.40633c.0197.01822.05315.05906.05587.12785-.00338.08259-.05509.10106-.08897.08754-.06543-.03143-.073-.1249-.07376-.1528.00302-.10854.0643-.10194.10685-.06259ZM8.35282,18.84047c.00272-.01229.0183-.07514.05752-.10664.05829-.03581.04798.11186.03673.16366-.01157.05332-.0292.06808-.03673.07437-.04374.0256-.076-.04808-.05752-.13139ZM8.44731,18.06883c-.01153.05297-.02855.06718-.03673.07402-.04377.02569-.07603-.04779-.05752-.13103.00275-.01235.01842-.07554.05752-.107.0618-.03786.045.12603.03673.16402ZM8.35282,16.35411c.00272-.01229.0183-.07514.05752-.10664.05829-.03581.04798.11186.03673.16366-.01157.05332-.0292.06808-.03673.07437-.04374.0256-.076-.04808-.05752-.13139ZM8.35306,15.52545c.00275-.01235.01842-.07554.05752-.107.0618-.03786.045.12603.03673.16402-.01153.05296-.02855.06718-.03673.07401-.04377.02569-.07603-.04779-.05752-.13103ZM8.44708,13.92477c-.01157.05332-.0292.06808-.03673.07437-.04374.0256-.076-.04808-.05752-.13139.00272-.01229.0183-.07514.05752-.10664.05829-.03582.04798.11186.03673.16366ZM8.44708,21.38383c-.01158.0533-.0292.06806-.03673.07435-.04374.0256-.076-.04805-.05752-.13135.00272-.01229.0183-.07514.05752-.10664.0583-.03582.04798.11184.03673.16363ZM8.81513,21.39866c.01222.06558-.03181.15238-.1069.16601-.1104.01393-.15298-.10147-.09235-.18037.06103-.07942.18061-.08561.19924.01436ZM8.44732,20.55517c-.01153.05299-.02918.06774-.03673.07404-.04377.02568-.07603-.04779-.05752-.13103.00275-.01235.01842-.07554.05752-.107.06179-.03786.04499.12601.03673.164ZM8.61562,20.55561c.06091-.07948.18046-.08575.19924.01424.01255.06684-.0305.15195-.1069.16581-.11013.01399-.15274-.10123-.09235-.18005ZM8.61389,20.95313c-.00289.08593-.04266.13781-.08079.15111h0c-.05276.01468-.0919-.02212-.0952-.0895.00473-.11874.11164-.18214.15408-.13605.0229.02488.02208.06944.02191.07444ZM8.92236,21.17552c-.07736.00118-.13245-.04431-.1371-.11319.00608-.11697.16795-.16101.23875-.08943.02483.0251.02994.0576.02904.07284-.0058.0966-.08802.12713-.13069.12978ZM8.35287,19.66922c.00273-.01223.01834-.07483.05752-.1063.05831-.03583.04798.11148.03673.16316-.01153.05296-.02919.06771-.03673.07401-.04386.02573-.07612-.04765-.05752-.13088ZM8.61587,19.72688c.06098-.07895.18055-.08529.19924.01395.01258.0668-.03046.15187-.10689.16574-.11061.01405-.15316-.10095-.09235-.17969ZM8.43792,20.18563c.00499-.11883.11184-.18214.15408-.13594.02033.02223.02141.0574.02194.07432-.00263.08644-.04249.13862-.08082.15198-.0531.01471-.09225-.02244-.0952-.09036ZM8.78816,20.24251c-.00098.00001-.00189.0001-.00286.00011.00016-.00273.0014-.00478.00171-.00741-.00053-.00366-.00148-.00712-.00171-.01093.00146-.00002.00282-.00014.00427-.00016.02281-.10789.17417-.13217.23454-.07078.01836.01868.02453.03878.02705.05452.00066-.00008.00138-.00011.00204-.00018-.00012.00225-.00078.00408-.00099.00627.00051.00456.00082.00884.00099.01208-.00095.00011-.00199.00015-.00294.00026-.01374.07636-.08159.10917-.1278.11204-.07073.00102-.12223-.03693-.1343-.09581ZM9.02401,18.48654c.02483.0251.02994.0576.02904.07284-.0058.0966-.08802.12713-.13069.12978-.07736.00118-.13245-.04431-.1371-.11319.00608-.11697.16795-.16101.23875-.08943ZM8.61589,18.89794c.06103-.07942.18061-.08562.19924.01436.01223.0656-.0318.15242-.1069.16605-.11041.01393-.15299-.1015-.09235-.18041ZM8.43792,19.35667c.03395-.00879.06578-.01838.09521-.02869-.02943.01031-.06126.01989-.09521.02868.00474-.11148.10775-.18663.15408-.13562.02032.02238.02146.05855.02194.074-.0026.08643-.04247.1386-.08082.15198-.05314.01477-.09228-.02238-.0952-.09036ZM8.7853,19.40416c.00701-.11667.16878-.1604.23881-.08892.02664.0272.0283.05768.02909.07233-.00514.09725-.08777.12798-.13074.13065-.07792.00118-.13303-.04466-.13716-.11406ZM8.61562,18.06924c.06091-.07948.18046-.08575.19924.01425.01255.06683-.0305.15194-.1069.16581-.11013.01399-.15275-.10123-.09235-.18005ZM8.5331,18.61787h0c-.05276.01468-.0919-.02212-.0952-.0895.00473-.11874.11164-.18214.15408-.13605.0229.02488.02208.06944.02191.07444-.00289.08593-.04266.13781-.08079.15111ZM8.35287,17.18286c.00273-.01223.01834-.07483.05752-.1063.05831-.03583.04798.11148.03673.16317-.01153.05296-.02855.06717-.03673.07401-.04386.02574-.07612-.04765-.05752-.13088ZM8.61587,17.24052c.06098-.07895.18055-.08529.19924.01395.01258.0668-.03046.15187-.10689.16574-.11061.01405-.15316-.10095-.09235-.17969ZM8.43792,17.69927c.00499-.11883.11184-.18214.15408-.13594.02033.02223.02141.0574.02194.07432-.00263.08644-.04249.13862-.08082.15198-.0531.01471-.09225-.02244-.0952-.09036ZM8.7853,17.75625c.00016-.00273.0014-.00478.00171-.00741-.00053-.00366-.00148-.00711-.00171-.01092.00146-.00002.00282-.00014.00427-.00016.02281-.1079.17417-.13218.23454-.07078.01836.01868.02453.03878.02705.05452.00066-.00008.00138-.00011.00204-.00018-.00012.00225-.00078.00408-.00099.00627.00051.00456.00082.00884.00099.01208-.00095.00011-.00199.00015-.00294.00026-.01374.07636-.08159.10917-.1278.11204-.07073.00102-.12223-.03694-.1343-.09581-.00098.00001-.00189.0001-.00286.00011ZM9.02401,16.00018c.02483.0251.02994.0576.02904.07284-.0058.0966-.08802.12713-.13069.12978-.07736.00118-.13245-.04431-.1371-.11319.00608-.11697.16795-.16101.23875-.08943ZM8.61589,16.41158c.06103-.07942.18061-.08561.19924.01436.01223.0656-.0318.15242-.1069.16605-.11041.01393-.15299-.1015-.09235-.18041ZM8.43792,16.87031c.03395-.00879.06578-.01838.09521-.02868-.02943.0103-.06126.01989-.09521.02868.00474-.11148.10775-.18663.15408-.13562.02032.02238.02146.05855.02194.074-.0026.08643-.04247.1386-.08082.15198-.05314.01477-.09228-.02238-.0952-.09036ZM9.02411,16.82887c.02664.0272.0283.05768.02909.07233-.00514.09725-.08777.12798-.13074.13065-.07792.00118-.13303-.04466-.13716-.11405.00701-.11667.16878-.16041.23881-.08893ZM8.61562,15.58288c.06091-.07948.18046-.08575.19924.01425.01255.06683-.0305.15194-.1069.16581-.11013.01399-.15275-.10123-.09235-.18005ZM8.43791,16.04201c.00473-.11874.11164-.18214.15408-.13605.0229.02488.02208.06944.02191.07445-.00289.08593-.04266.1378-.08079.1511h0c-.05276.01468-.0919-.02212-.0952-.0895ZM8.44746,14.75351c-.01155.05283-.02919.06757-.03673.07387-.0446.02617-.07631-.04581-.05752-.13054.00272-.01228.0183-.07514.05752-.10664.06187-.03801.04501.12541.03673.16331ZM8.81493,14.76867c.01241.06657-.03067.15136-.1069.16519-.11017.014-.15278-.10091-.09235-.17955.06103-.07942.18061-.08561.19924.01436ZM8.592,15.07696c.02033.02223.02141.0574.02194.07432-.00263.08644-.04249.13862-.08082.15198-.0531.01471-.09225-.02244-.0952-.09036.00499-.11883.11184-.18214.15408-.13594ZM8.7853,15.26989c.00016-.00273.0014-.00478.00171-.00741-.00053-.00366-.00148-.00711-.00171-.01092.00146-.00002.00282-.00014.00427-.00016.02281-.1079.17417-.13218.23454-.07078.01836.01868.02453.03878.02705.05452.00066-.00008.00138-.00011.00204-.00018-.00012.00225-.00078.00409-.00099.00627.00051.00456.00082.00883.00099.01207-.00095.00011-.00199.00015-.00294.00026-.01374.07636-.08159.10917-.1278.11204-.07073.00102-.12223-.03694-.1343-.09581-.00098.00001-.00189.0001-.00286.00011ZM8.81514,13.93957c.01223.0656-.0318.15242-.1069.16605-.11041.01393-.15299-.1015-.09235-.18041.06103-.07942.18061-.08561.19924.01436ZM8.592,14.24833c.02032.02239.02146.05858.02194.07405-.0026.08639-.04247.13855-.08082.15193-.05314.01477-.09228-.02236-.0952-.09031.00474-.11153.10775-.18669.15408-.13566ZM9.02411,14.34252c.02664.02721.0283.0577.02909.07237-.00514.09721-.08777.12793-.13074.1306-.07792.00117-.13303-.04464-.13716-.11401.00701-.11672.16877-.16047.23881-.08896ZM8.592,13.4197c.02033.02223.02141.05742.02194.07433-.00261.08584-.04247.13774-.08082.15112h0c-.05312.01477-.09227-.02203-.0952-.0895.00499-.11883.11184-.18214.15408-.13594ZM9.02411,13.53862c.02664.0271.0283.05789.02909.07269-.0048.08957-.08082.12669-.13074.12978-.0779.00117-.13301-.04431-.13716-.11319.00739-.12453.17495-.15423.23881-.08928ZM15.00737,14.00949c0,.06584-.0567.11922-.12664.11922-.06994,0-.12664-.05338-.12664-.11922,0-.06584.0567-.11921.12664-.11921.06995,0,.12664.05338.12664.11921ZM14.78682,13.61904c0,.06585-.05669.11922-.12664.11922-.06994,0-.12664-.05337-.12664-.11922,0-.06584.0567-.11921.12664-.11921.06995,0,.12664.05337.12664.11921ZM15.00737,14.83994c0,.06584-.0567.11921-.12664.11921-.06994,0-.12664-.05337-.12664-.11921s.0567-.11922.12664-.11922c.06995,0,.12664.05338.12664.11922ZM15.00737,15.6704c0,.06584-.0567.11922-.12664.11922-.06994,0-.12664-.05338-.12664-.11922s.0567-.11921.12664-.11921c.06995,0,.12664.05337.12664.11921ZM15.00737,16.50086c0,.06584-.0567.11921-.12664.11921-.06994,0-.12664-.05338-.12664-.11921,0-.06584.0567-.11922.12664-.11922.06995,0,.12664.05338.12664.11922ZM15.00737,17.33131c0,.06584-.0567.11921-.12664.11921-.06994,0-.12664-.05337-.12664-.11921s.0567-.11922.12664-.11922c.06995,0,.12664.05338.12664.11922ZM14.75408,18.16176c0-.06584.0567-.11921.12664-.11921.06995,0,.12664.05337.12664.11921,0,.06585-.0567.11922-.12664.11922-.06994,0-.12664-.05338-.12664-.11922ZM14.75408,18.99221c0-.06584.0567-.11922.12664-.11922.06995,0,.12664.05338.12664.11922,0,.06584-.0567.11922-.12664.11922-.06994,0-.12664-.05338-.12664-.11922ZM14.75408,19.82267c0-.06584.0567-.11922.12664-.11922.06995,0,.12664.05338.12664.11922s-.0567.11921-.12664.11921c-.06994,0-.12664-.05337-.12664-.11921ZM14.75408,20.65312c0-.06584.0567-.11921.12664-.11921.06995,0,.12664.05337.12664.11921s-.0567.11922-.12664.11922c-.06994,0-.12664-.05338-.12664-.11922ZM15.00737,21.50835c0,.06584-.0567.11921-.12664.11921-.06994,0-.12664-.05337-.12664-.11921s.0567-.11922.12664-.11922c.06995,0,.12664.05338.12664.11922ZM14.56628,14.00949c0,.06584-.0567.11922-.12665.11922s-.12664-.05338-.12664-.11922c0-.06584.0567-.11921.12664-.11921s.12665.05338.12665.11921ZM14.12518,14.00949c0,.06584-.0567.11922-.12664.11922-.06995,0-.12664-.05338-.12664-.11922,0-.06584.05669-.11921.12664-.11921.06994,0,.12664.05338.12664.11921ZM14.34572,13.61904c0,.06585-.0567.11922-.12664.11922-.06995,0-.12664-.05337-.12664-.11922,0-.06584.0567-.11921.12664-.11921.06994,0,.12664.05337.12664.11921ZM13.90463,13.61904c0,.06585-.0567.11922-.12664.11922-.06995,0-.12664-.05337-.12664-.11922,0-.06584.0567-.11921.12664-.11921.06994,0,.12664.05337.12664.11921ZM14.78682,14.42472c0,.06584-.05669.11922-.12664.11922-.06994,0-.12664-.05338-.12664-.11922s.0567-.11921.12664-.11921c.06995,0,.12664.05337.12664.11921ZM14.34572,14.42472c0,.06584-.0567.11922-.12664.11922-.06995,0-.12664-.05338-.12664-.11922s.0567-.11921.12664-.11921c.06994,0,.12664.05337.12664.11921ZM14.78682,15.25517c0,.06584-.05669.11922-.12664.11922-.06994,0-.12664-.05338-.12664-.11922,0-.06584.0567-.11921.12664-.11921.06995,0,.12664.05338.12664.11921ZM14.34572,15.25517c0,.06584-.0567.11922-.12664.11922-.06995,0-.12664-.05338-.12664-.11922,0-.06584.0567-.11921.12664-.11921.06994,0,.12664.05338.12664.11921ZM14.56628,14.83994c0,.06584-.0567.11921-.12665.11921s-.12664-.05337-.12664-.11921.0567-.11922.12664-.11922.12665.05338.12665.11922ZM14.12518,14.83994c0,.06584-.0567.11921-.12664.11921-.06995,0-.12664-.05337-.12664-.11921s.05669-.11922.12664-.11922c.06994,0,.12664.05338.12664.11922ZM14.78682,16.08563c0,.06584-.05669.11921-.12664.11921-.06994,0-.12664-.05337-.12664-.11921s.0567-.11922.12664-.11922c.06995,0,.12664.05338.12664.11922ZM14.34572,16.08563c0,.06584-.0567.11921-.12664.11921-.06995,0-.12664-.05337-.12664-.11921s.0567-.11922.12664-.11922c.06994,0,.12664.05338.12664.11922ZM14.56628,15.6704c0,.06584-.0567.11922-.12665.11922s-.12664-.05338-.12664-.11922.0567-.11921.12664-.11921.12665.05337.12665.11921ZM14.12518,15.6704c0,.06584-.0567.11922-.12664.11922-.06995,0-.12664-.05338-.12664-.11922s.05669-.11921.12664-.11921c.06994,0,.12664.05337.12664.11921ZM14.53353,16.91608c0-.06584.0567-.11921.12664-.11921.06995,0,.12664.05337.12664.11921s-.05669.11922-.12664.11922c-.06994,0-.12664-.05338-.12664-.11922ZM14.34572,16.91608c0,.06584-.0567.11922-.12664.11922-.06995,0-.12664-.05338-.12664-.11922s.0567-.11921.12664-.11921c.06994,0,.12664.05337.12664.11921ZM14.56628,16.50086c0,.06584-.0567.11921-.12665.11921s-.12664-.05338-.12664-.11921c0-.06584.0567-.11922.12664-.11922s.12665.05338.12665.11922ZM14.12518,16.50086c0,.06584-.0567.11921-.12664.11921-.06995,0-.12664-.05338-.12664-.11921,0-.06584.05669-.11922.12664-.11922.06994,0,.12664.05338.12664.11922ZM14.53353,17.74654c0-.06584.0567-.11922.12664-.11922.06995,0,.12664.05338.12664.11922,0,.06584-.05669.11921-.12664.11921-.06994,0-.12664-.05338-.12664-.11921ZM14.09243,17.74654c0-.06584.0567-.11922.12664-.11922.06994,0,.12664.05338.12664.11922,0,.06584-.0567.11921-.12664.11921-.06995,0-.12664-.05338-.12664-.11921ZM14.56628,17.33131c0,.06584-.0567.11921-.12665.11921s-.12664-.05337-.12664-.11921.0567-.11922.12664-.11922.12665.05338.12665.11922ZM14.12518,17.33131c0,.06584-.0567.11921-.12664.11921-.06995,0-.12664-.05337-.12664-.11921s.05669-.11922.12664-.11922c.06994,0,.12664.05338.12664.11922ZM14.53353,18.57699c0-.06585.0567-.11922.12664-.11922.06995,0,.12664.05338.12664.11922,0,.06584-.05669.11921-.12664.11921-.06994,0-.12664-.05337-.12664-.11921ZM14.09243,18.57699c0-.06585.0567-.11922.12664-.11922.06994,0,.12664.05338.12664.11922,0,.06584-.0567.11921-.12664.11921-.06995,0-.12664-.05337-.12664-.11921ZM14.31298,18.16176c0-.06584.0567-.11921.12664-.11921s.12665.05337.12665.11921c0,.06585-.0567.11922-.12665.11922s-.12664-.05338-.12664-.11922ZM13.87189,18.16176c0-.06584.05669-.11921.12664-.11921.06994,0,.12664.05337.12664.11921,0,.06585-.0567.11922-.12664.11922-.06995,0-.12664-.05338-.12664-.11922ZM14.53353,19.40744c0-.06584.0567-.11921.12664-.11921.06995,0,.12664.05337.12664.11921s-.05669.11922-.12664.11922c-.06994,0-.12664-.05338-.12664-.11922ZM14.09243,19.40744c0-.06584.0567-.11921.12664-.11921.06994,0,.12664.05337.12664.11921s-.0567.11922-.12664.11922c-.06995,0-.12664-.05338-.12664-.11922ZM14.31298,18.99221c0-.06584.0567-.11922.12664-.11922s.12665.05338.12665.11922c0,.06584-.0567.11922-.12665.11922s-.12664-.05338-.12664-.11922ZM13.87189,18.99221c0-.06584.05669-.11922.12664-.11922.06994,0,.12664.05338.12664.11922,0,.06584-.0567.11922-.12664.11922-.06995,0-.12664-.05338-.12664-.11922ZM14.53353,20.2379c0-.06584.0567-.11922.12664-.11922.06995,0,.12664.05338.12664.11922,0,.06584-.05669.11921-.12664.11921-.06994,0-.12664-.05338-.12664-.11921ZM14.09243,20.2379c0-.06584.0567-.11922.12664-.11922.06994,0,.12664.05338.12664.11922,0,.06584-.0567.11921-.12664.11921-.06995,0-.12664-.05338-.12664-.11921ZM14.31298,19.82267c0-.06584.0567-.11922.12664-.11922s.12665.05338.12665.11922-.0567.11921-.12665.11921-.12664-.05337-.12664-.11921ZM13.87189,19.82267c0-.06584.05669-.11922.12664-.11922.06994,0,.12664.05338.12664.11922s-.0567.11921-.12664.11921c-.06995,0-.12664-.05337-.12664-.11921ZM14.78682,21.06835c0,.06584-.05669.11921-.12664.11921-.06994,0-.12664-.05337-.12664-.11921s.0567-.11922.12664-.11922c.06995,0,.12664.05338.12664.11922ZM14.34572,21.06835c0,.06584-.0567.11921-.12664.11921-.06995,0-.12664-.05337-.12664-.11921s.0567-.11922.12664-.11922c.06994,0,.12664.05338.12664.11922ZM14.31298,20.65312c0-.06584.0567-.11921.12664-.11921s.12665.05337.12665.11921-.0567.11922-.12665.11922-.12664-.05338-.12664-.11922ZM13.87189,20.65312c0-.06584.05669-.11921.12664-.11921.06994,0,.12664.05337.12664.11921s-.0567.11922-.12664.11922c-.06995,0-.12664-.05338-.12664-.11922ZM14.56628,21.50835c0,.06584-.0567.11921-.12665.11921s-.12664-.05337-.12664-.11921.0567-.11922.12664-.11922.12665.05338.12665.11922ZM14.12518,21.50835c0,.06584-.0567.11921-.12664.11921-.06995,0-.12664-.05337-.12664-.11921s.05669-.11922.12664-.11922c.06994,0,.12664.05338.12664.11922ZM13.68409,14.00949c0,.06584-.0567.11922-.12664.11922-.06995,0-.12665-.05338-.12665-.11922,0-.06584.0567-.11921.12665-.11921.06994,0,.12664.05338.12664.11921ZM13.24299,14.00949c0,.06584-.0567.11922-.12664.11922s-.12664-.05338-.12664-.11922c0-.06584.0567-.11921.12664-.11921s.12664.05338.12664.11921ZM13.46354,13.61904c0,.06585-.0567.11922-.12664.11922-.06995,0-.12664-.05337-.12664-.11922,0-.06584.0567-.11921.12664-.11921.06994,0,.12664.05337.12664.11921ZM13.02245,13.61904c0,.06585-.0567.11922-.12664.11922-.06995,0-.12664-.05337-.12664-.11922,0-.06584.05669-.11921.12664-.11921.06994,0,.12664.05337.12664.11921ZM13.90463,14.42472c0,.06584-.0567.11922-.12664.11922-.06995,0-.12664-.05338-.12664-.11922s.0567-.11921.12664-.11921c.06994,0,.12664.05337.12664.11921ZM13.46354,14.42472c0,.06584-.0567.11922-.12664.11922-.06995,0-.12664-.05338-.12664-.11922s.0567-.11921.12664-.11921c.06994,0,.12664.05337.12664.11921ZM13.90463,15.25517c0,.06584-.0567.11922-.12664.11922-.06995,0-.12664-.05338-.12664-.11922,0-.06584.0567-.11921.12664-.11921.06994,0,.12664.05338.12664.11921ZM13.46354,15.25517c0,.06584-.0567.11922-.12664.11922-.06995,0-.12664-.05338-.12664-.11922,0-.06584.0567-.11921.12664-.11921.06994,0,.12664.05338.12664.11921ZM13.68409,14.83994c0,.06584-.0567.11921-.12664.11921-.06995,0-.12665-.05337-.12665-.11921s.0567-.11922.12665-.11922c.06994,0,.12664.05338.12664.11922ZM13.24299,14.83994c0,.06584-.0567.11921-.12664.11921s-.12664-.05337-.12664-.11921.0567-.11922.12664-.11922.12664.05338.12664.11922ZM13.90463,16.08563c0,.06584-.0567.11921-.12664.11921-.06995,0-.12664-.05337-.12664-.11921s.0567-.11922.12664-.11922c.06994,0,.12664.05338.12664.11922ZM13.46354,16.08563c0,.06584-.0567.11921-.12664.11921-.06995,0-.12664-.05337-.12664-.11921s.0567-.11922.12664-.11922c.06994,0,.12664.05338.12664.11922ZM13.68409,15.6704c0,.06584-.0567.11922-.12664.11922-.06995,0-.12665-.05338-.12665-.11922s.0567-.11921.12665-.11921c.06994,0,.12664.05337.12664.11921ZM13.24299,15.6704c0,.06584-.0567.11922-.12664.11922s-.12664-.05338-.12664-.11922.0567-.11921.12664-.11921.12664.05337.12664.11921ZM13.90463,16.91608c0,.06584-.0567.11922-.12664.11922-.06995,0-.12664-.05338-.12664-.11922s.0567-.11921.12664-.11921c.06994,0,.12664.05337.12664.11921ZM13.46354,16.91608c0,.06584-.0567.11922-.12664.11922-.06995,0-.12664-.05338-.12664-.11922s.0567-.11921.12664-.11921c.06994,0,.12664.05337.12664.11921ZM13.68409,16.50086c0,.06584-.0567.11921-.12664.11921-.06995,0-.12665-.05338-.12665-.11921,0-.06584.0567-.11922.12665-.11922.06994,0,.12664.05338.12664.11922ZM13.24299,16.50086c0,.06584-.0567.11921-.12664.11921s-.12664-.05338-.12664-.11921c0-.06584.0567-.11922.12664-.11922s.12664.05338.12664.11922ZM13.65134,17.74654c0-.06584.0567-.11922.12664-.11922.06994,0,.12664.05338.12664.11922,0,.06584-.0567.11921-.12664.11921-.06995,0-.12664-.05338-.12664-.11921ZM13.21025,17.74654c0-.06584.0567-.11922.12664-.11922.06994,0,.12664.05338.12664.11922,0,.06584-.0567.11921-.12664.11921-.06995,0-.12664-.05338-.12664-.11921ZM13.68409,17.33131c0,.06584-.0567.11921-.12664.11921-.06995,0-.12665-.05337-.12665-.11921s.0567-.11922.12665-.11922c.06994,0,.12664.05338.12664.11922ZM13.24299,17.33131c0,.06584-.0567.11921-.12664.11921s-.12664-.05337-.12664-.11921.0567-.11922.12664-.11922.12664.05338.12664.11922ZM13.65134,18.57699c0-.06585.0567-.11922.12664-.11922.06994,0,.12664.05338.12664.11922,0,.06584-.0567.11921-.12664.11921-.06995,0-.12664-.05337-.12664-.11921ZM13.21025,18.57699c0-.06585.0567-.11922.12664-.11922.06994,0,.12664.05338.12664.11922,0,.06584-.0567.11921-.12664.11921-.06995,0-.12664-.05337-.12664-.11921ZM13.43079,18.16176c0-.06584.0567-.11921.12665-.11921.06994,0,.12664.05337.12664.11921,0,.06585-.0567.11922-.12664.11922-.06995,0-.12665-.05338-.12665-.11922ZM12.9897,18.16176c0-.06584.0567-.11921.12664-.11921s.12664.05337.12664.11921c0,.06585-.0567.11922-.12664.11922s-.12664-.05338-.12664-.11922ZM13.65134,19.40744c0-.06584.0567-.11921.12664-.11921.06994,0,.12664.05337.12664.11921s-.0567.11922-.12664.11922c-.06995,0-.12664-.05338-.12664-.11922ZM13.21025,19.40744c0-.06584.0567-.11921.12664-.11921.06994,0,.12664.05337.12664.11921s-.0567.11922-.12664.11922c-.06995,0-.12664-.05338-.12664-.11922ZM13.43079,18.99221c0-.06584.0567-.11922.12665-.11922.06994,0,.12664.05338.12664.11922,0,.06584-.0567.11922-.12664.11922-.06995,0-.12665-.05338-.12665-.11922ZM12.9897,18.99221c0-.06584.0567-.11922.12664-.11922s.12664.05338.12664.11922c0,.06584-.0567.11922-.12664.11922s-.12664-.05338-.12664-.11922ZM13.65134,20.2379c0-.06584.0567-.11922.12664-.11922.06994,0,.12664.05338.12664.11922,0,.06584-.0567.11921-.12664.11921-.06995,0-.12664-.05338-.12664-.11921ZM13.21025,20.2379c0-.06584.0567-.11922.12664-.11922.06994,0,.12664.05338.12664.11922,0,.06584-.0567.11921-.12664.11921-.06995,0-.12664-.05338-.12664-.11921ZM13.43079,19.82267c0-.06584.0567-.11922.12665-.11922.06994,0,.12664.05338.12664.11922s-.0567.11921-.12664.11921c-.06995,0-.12665-.05337-.12665-.11921ZM12.9897,19.82267c0-.06584.0567-.11922.12664-.11922s.12664.05338.12664.11922-.0567.11921-.12664.11921-.12664-.05337-.12664-.11921ZM13.90463,21.06835c0,.06584-.0567.11921-.12664.11921-.06995,0-.12664-.05337-.12664-.11921s.0567-.11922.12664-.11922c.06994,0,.12664.05338.12664.11922ZM13.46354,21.06835c0,.06584-.0567.11921-.12664.11921-.06995,0-.12664-.05337-.12664-.11921s.0567-.11922.12664-.11922c.06994,0,.12664.05338.12664.11922ZM13.43079,20.65312c0-.06584.0567-.11921.12665-.11921.06994,0,.12664.05337.12664.11921s-.0567.11922-.12664.11922c-.06995,0-.12665-.05338-.12665-.11922ZM12.9897,20.65312c0-.06584.0567-.11921.12664-.11921s.12664.05337.12664.11921-.0567.11922-.12664.11922-.12664-.05338-.12664-.11922ZM13.68409,21.50835c0,.06584-.0567.11921-.12664.11921-.06995,0-.12665-.05337-.12665-.11921s.0567-.11922.12665-.11922c.06994,0,.12664.05338.12664.11922ZM13.24299,21.50835c0,.06584-.0567.11921-.12664.11921s-.12664-.05337-.12664-.11921.0567-.11922.12664-.11922.12664.05338.12664.11922ZM12.8019,14.00949c0,.06584-.0567.11922-.12664.11922-.06995,0-.12664-.05338-.12664-.11922,0-.06584.0567-.11921.12664-.11921.06994,0,.12664.05338.12664.11921ZM12.3608,14.00949c0,.06584-.0567.11922-.12664.11922-.06995,0-.12664-.05338-.12664-.11922,0-.06584.0567-.11921.12664-.11921.06994,0,.12664.05338.12664.11921ZM12.58135,13.61904c0,.06585-.0567.11922-.12664.11922-.06995,0-.12664-.05337-.12664-.11922,0-.06584.05669-.11921.12664-.11921.06994,0,.12664.05337.12664.11921ZM12.14026,13.61904c0,.06585-.0567.11922-.12664.11922-.06995,0-.12664-.05337-.12664-.11922,0-.06584.05669-.11921.12664-.11921.06994,0,.12664.05337.12664.11921ZM13.02245,14.42472c0,.06584-.0567.11922-.12664.11922-.06995,0-.12664-.05338-.12664-.11922s.05669-.11921.12664-.11921c.06994,0,.12664.05337.12664.11921ZM12.58135,14.42472c0,.06584-.0567.11922-.12664.11922-.06995,0-.12664-.05338-.12664-.11922s.05669-.11921.12664-.11921c.06994,0,.12664.05337.12664.11921ZM13.02245,15.25517c0,.06584-.0567.11922-.12664.11922-.06995,0-.12664-.05338-.12664-.11922,0-.06584.05669-.11921.12664-.11921.06994,0,.12664.05338.12664.11921ZM12.58135,15.25517c0,.06584-.0567.11922-.12664.11922-.06995,0-.12664-.05338-.12664-.11922,0-.06584.05669-.11921.12664-.11921.06994,0,.12664.05338.12664.11921ZM12.8019,14.83994c0,.06584-.0567.11921-.12664.11921-.06995,0-.12664-.05337-.12664-.11921s.0567-.11922.12664-.11922c.06994,0,.12664.05338.12664.11922ZM12.3608,14.83994c0,.06584-.0567.11921-.12664.11921-.06995,0-.12664-.05337-.12664-.11921s.0567-.11922.12664-.11922c.06994,0,.12664.05338.12664.11922ZM13.02245,16.08563c0,.06584-.0567.11921-.12664.11921-.06995,0-.12664-.05337-.12664-.11921s.05669-.11922.12664-.11922c.06994,0,.12664.05338.12664.11922ZM12.58135,16.08563c0,.06584-.0567.11921-.12664.11921-.06995,0-.12664-.05337-.12664-.11921s.05669-.11922.12664-.11922c.06994,0,.12664.05338.12664.11922ZM12.8019,15.6704c0,.06584-.0567.11922-.12664.11922-.06995,0-.12664-.05338-.12664-.11922s.0567-.11921.12664-.11921c.06994,0,.12664.05337.12664.11921ZM12.3608,15.6704c0,.06584-.0567.11922-.12664.11922-.06995,0-.12664-.05338-.12664-.11922s.0567-.11921.12664-.11921c.06994,0,.12664.05337.12664.11921ZM13.02245,16.91608c0,.06584-.0567.11922-.12664.11922-.06995,0-.12664-.05338-.12664-.11922s.05669-.11921.12664-.11921c.06994,0,.12664.05337.12664.11921ZM12.58135,16.91608c0,.06584-.0567.11922-.12664.11922-.06995,0-.12664-.05338-.12664-.11922s.05669-.11921.12664-.11921c.06994,0,.12664.05337.12664.11921ZM12.8019,16.50086c0,.06584-.0567.11921-.12664.11921-.06995,0-.12664-.05338-.12664-.11921,0-.06584.0567-.11922.12664-.11922.06994,0,.12664.05338.12664.11922ZM12.3608,16.50086c0,.06584-.0567.11921-.12664.11921-.06995,0-.12664-.05338-.12664-.11921,0-.06584.0567-.11922.12664-.11922.06994,0,.12664.05338.12664.11922ZM12.76916,17.74654c0-.06584.05669-.11922.12664-.11922.06994,0,.12664.05338.12664.11922,0,.06584-.0567.11921-.12664.11921-.06995,0-.12664-.05338-.12664-.11921ZM12.32806,17.74654c0-.06584.05669-.11922.12664-.11922.06994,0,.12664.05338.12664.11922,0,.06584-.0567.11921-.12664.11921-.06995,0-.12664-.05338-.12664-.11921ZM12.8019,17.33131c0,.06584-.0567.11921-.12664.11921-.06995,0-.12664-.05337-.12664-.11921s.0567-.11922.12664-.11922c.06994,0,.12664.05338.12664.11922ZM12.3608,17.33131c0,.06584-.0567.11921-.12664.11921-.06995,0-.12664-.05337-.12664-.11921s.0567-.11922.12664-.11922c.06994,0,.12664.05338.12664.11922ZM12.76916,18.57699c0-.06585.05669-.11922.12664-.11922.06994,0,.12664.05338.12664.11922,0,.06584-.0567.11921-.12664.11921-.06995,0-.12664-.05337-.12664-.11921ZM12.32806,18.57699c0-.06585.05669-.11922.12664-.11922.06994,0,.12664.05338.12664.11922,0,.06584-.0567.11921-.12664.11921-.06995,0-.12664-.05337-.12664-.11921ZM12.54861,18.16176c0-.06584.0567-.11921.12664-.11921.06994,0,.12664.05337.12664.11921,0,.06585-.0567.11922-.12664.11922-.06995,0-.12664-.05338-.12664-.11922ZM12.10751,18.16176c0-.06584.0567-.11921.12664-.11921.06994,0,.12664.05337.12664.11921,0,.06585-.0567.11922-.12664.11922-.06995,0-.12664-.05338-.12664-.11922ZM12.76916,19.40744c0-.06584.05669-.11921.12664-.11921.06994,0,.12664.05337.12664.11921s-.0567.11922-.12664.11922c-.06995,0-.12664-.05338-.12664-.11922ZM12.32806,19.40744c0-.06584.05669-.11921.12664-.11921.06994,0,.12664.05337.12664.11921s-.0567.11922-.12664.11922c-.06995,0-.12664-.05338-.12664-.11922ZM12.54861,18.99221c0-.06584.0567-.11922.12664-.11922.06994,0,.12664.05338.12664.11922,0,.06584-.0567.11922-.12664.11922-.06995,0-.12664-.05338-.12664-.11922ZM12.10751,18.99221c0-.06584.0567-.11922.12664-.11922.06994,0,.12664.05338.12664.11922,0,.06584-.0567.11922-.12664.11922-.06995,0-.12664-.05338-.12664-.11922ZM12.76916,20.2379c0-.06584.05669-.11922.12664-.11922.06994,0,.12664.05338.12664.11922,0,.06584-.0567.11921-.12664.11921-.06995,0-.12664-.05338-.12664-.11921ZM12.32806,20.2379c0-.06584.05669-.11922.12664-.11922.06994,0,.12664.05338.12664.11922,0,.06584-.0567.11921-.12664.11921-.06995,0-.12664-.05338-.12664-.11921ZM12.54861,19.82267c0-.06584.0567-.11922.12664-.11922.06994,0,.12664.05338.12664.11922s-.0567.11921-.12664.11921c-.06995,0-.12664-.05337-.12664-.11921ZM12.10751,19.82267c0-.06584.0567-.11922.12664-.11922.06994,0,.12664.05338.12664.11922s-.0567.11921-.12664.11921c-.06995,0-.12664-.05337-.12664-.11921ZM13.02245,21.06835c0,.06584-.0567.11921-.12664.11921-.06995,0-.12664-.05337-.12664-.11921s.05669-.11922.12664-.11922c.06994,0,.12664.05338.12664.11922ZM12.58135,21.06835c0,.06584-.0567.11921-.12664.11921-.06995,0-.12664-.05337-.12664-.11921s.05669-.11922.12664-.11922c.06994,0,.12664.05338.12664.11922ZM12.54861,20.65312c0-.06584.0567-.11921.12664-.11921.06994,0,.12664.05337.12664.11921s-.0567.11922-.12664.11922c-.06995,0-.12664-.05338-.12664-.11922ZM12.10751,20.65312c0-.06584.0567-.11921.12664-.11921.06994,0,.12664.05337.12664.11921s-.0567.11922-.12664.11922c-.06995,0-.12664-.05338-.12664-.11922ZM12.8019,21.50835c0,.06584-.0567.11921-.12664.11921-.06995,0-.12664-.05337-.12664-.11921s.0567-.11922.12664-.11922c.06994,0,.12664.05338.12664.11922ZM12.3608,21.50835c0,.06584-.0567.11921-.12664.11921-.06995,0-.12664-.05337-.12664-.11921s.0567-.11922.12664-.11922c.06994,0,.12664.05338.12664.11922ZM11.91971,14.00949c0,.06584-.0567.11922-.12664.11922-.06995,0-.12664-.05338-.12664-.11922,0-.06584.0567-.11921.12664-.11921.06994,0,.12664.05338.12664.11921ZM11.47862,14.00949c0,.06584-.0567.11922-.12664.11922-.06995,0-.12664-.05338-.12664-.11922,0-.06584.0567-.11921.12664-.11921.06994,0,.12664.05338.12664.11921ZM11.69917,13.61904c0,.06585-.0567.11922-.12664.11922-.06995,0-.12664-.05337-.12664-.11922,0-.06584.05669-.11921.12664-.11921.06994,0,.12664.05337.12664.11921ZM11.25807,13.61904c0,.06585-.0567.11922-.12665.11922s-.12664-.05337-.12664-.11922c0-.06584.0567-.11921.12664-.11921s.12665.05337.12665.11921ZM12.14026,14.42472c0,.06584-.0567.11922-.12664.11922-.06995,0-.12664-.05338-.12664-.11922s.05669-.11921.12664-.11921c.06994,0,.12664.05337.12664.11921ZM11.69917,14.42472c0,.06584-.0567.11922-.12664.11922-.06995,0-.12664-.05338-.12664-.11922s.05669-.11921.12664-.11921c.06994,0,.12664.05337.12664.11921ZM12.14026,15.25517c0,.06584-.0567.11922-.12664.11922-.06995,0-.12664-.05338-.12664-.11922,0-.06584.05669-.11921.12664-.11921.06994,0,.12664.05338.12664.11921ZM11.69917,15.25517c0,.06584-.0567.11922-.12664.11922-.06995,0-.12664-.05338-.12664-.11922,0-.06584.05669-.11921.12664-.11921.06994,0,.12664.05338.12664.11921ZM11.91971,14.83994c0,.06584-.0567.11921-.12664.11921-.06995,0-.12664-.05337-.12664-.11921s.0567-.11922.12664-.11922c.06994,0,.12664.05338.12664.11922ZM11.47862,14.83994c0,.06584-.0567.11921-.12664.11921-.06995,0-.12664-.05337-.12664-.11921s.0567-.11922.12664-.11922c.06994,0,.12664.05338.12664.11922ZM12.14026,16.08563c0,.06584-.0567.11921-.12664.11921-.06995,0-.12664-.05337-.12664-.11921s.05669-.11922.12664-.11922c.06994,0,.12664.05338.12664.11922ZM11.69917,16.08563c0,.06584-.0567.11921-.12664.11921-.06995,0-.12664-.05337-.12664-.11921s.05669-.11922.12664-.11922c.06994,0,.12664.05338.12664.11922ZM11.91971,15.6704c0,.06584-.0567.11922-.12664.11922-.06995,0-.12664-.05338-.12664-.11922s.0567-.11921.12664-.11921c.06994,0,.12664.05337.12664.11921ZM11.47862,15.6704c0,.06584-.0567.11922-.12664.11922-.06995,0-.12664-.05338-.12664-.11922s.0567-.11921.12664-.11921c.06994,0,.12664.05337.12664.11921ZM12.14026,16.91608c0,.06584-.0567.11922-.12664.11922-.06995,0-.12664-.05338-.12664-.11922s.05669-.11921.12664-.11921c.06994,0,.12664.05337.12664.11921ZM11.69917,16.91608c0,.06584-.0567.11922-.12664.11922-.06995,0-.12664-.05338-.12664-.11922s.05669-.11921.12664-.11921c.06994,0,.12664.05337.12664.11921ZM11.91971,16.50086c0,.06584-.0567.11921-.12664.11921-.06995,0-.12664-.05338-.12664-.11921,0-.06584.0567-.11922.12664-.11922.06994,0,.12664.05338.12664.11922ZM11.47862,16.50086c0,.06584-.0567.11921-.12664.11921-.06995,0-.12664-.05338-.12664-.11921,0-.06584.0567-.11922.12664-.11922.06994,0,.12664.05338.12664.11922ZM11.88697,17.74654c0-.06584.05669-.11922.12664-.11922.06994,0,.12664.05338.12664.11922,0,.06584-.0567.11921-.12664.11921-.06995,0-.12664-.05338-.12664-.11921ZM11.44588,17.74654c0-.06584.05669-.11922.12664-.11922.06994,0,.12664.05338.12664.11922,0,.06584-.0567.11921-.12664.11921-.06995,0-.12664-.05338-.12664-.11921ZM11.91971,17.33131c0,.06584-.0567.11921-.12664.11921-.06995,0-.12664-.05337-.12664-.11921s.0567-.11922.12664-.11922c.06994,0,.12664.05338.12664.11922ZM11.47862,17.33131c0,.06584-.0567.11921-.12664.11921-.06995,0-.12664-.05337-.12664-.11921s.0567-.11922.12664-.11922c.06994,0,.12664.05338.12664.11922ZM11.88697,18.57699c0-.06585.05669-.11922.12664-.11922.06994,0,.12664.05338.12664.11922,0,.06584-.0567.11921-.12664.11921-.06995,0-.12664-.05337-.12664-.11921ZM11.44588,18.57699c0-.06585.05669-.11922.12664-.11922.06994,0,.12664.05338.12664.11922,0,.06584-.0567.11921-.12664.11921-.06995,0-.12664-.05337-.12664-.11921ZM11.66642,18.16176c0-.06584.0567-.11921.12664-.11921.06994,0,.12664.05337.12664.11921,0,.06585-.0567.11922-.12664.11922-.06995,0-.12664-.05338-.12664-.11922ZM11.22533,18.16176c0-.06584.0567-.11921.12664-.11921.06994,0,.12664.05337.12664.11921,0,.06585-.0567.11922-.12664.11922-.06995,0-.12664-.05338-.12664-.11922ZM11.88697,19.40744c0-.06584.05669-.11921.12664-.11921.06994,0,.12664.05337.12664.11921s-.0567.11922-.12664.11922c-.06995,0-.12664-.05338-.12664-.11922ZM11.44588,19.40744c0-.06584.05669-.11921.12664-.11921.06994,0,.12664.05337.12664.11921s-.0567.11922-.12664.11922c-.06995,0-.12664-.05338-.12664-.11922ZM11.66642,18.99221c0-.06584.0567-.11922.12664-.11922.06994,0,.12664.05338.12664.11922,0,.06584-.0567.11922-.12664.11922-.06995,0-.12664-.05338-.12664-.11922ZM11.22533,18.99221c0-.06584.0567-.11922.12664-.11922.06994,0,.12664.05338.12664.11922,0,.06584-.0567.11922-.12664.11922-.06995,0-.12664-.05338-.12664-.11922ZM11.88697,20.2379c0-.06584.05669-.11922.12664-.11922.06994,0,.12664.05338.12664.11922,0,.06584-.0567.11921-.12664.11921-.06995,0-.12664-.05338-.12664-.11921ZM11.44588,20.2379c0-.06584.05669-.11922.12664-.11922.06994,0,.12664.05338.12664.11922,0,.06584-.0567.11921-.12664.11921-.06995,0-.12664-.05338-.12664-.11921ZM11.66642,19.82267c0-.06584.0567-.11922.12664-.11922.06994,0,.12664.05338.12664.11922s-.0567.11921-.12664.11921c-.06995,0-.12664-.05337-.12664-.11921ZM11.22533,19.82267c0-.06584.0567-.11922.12664-.11922.06994,0,.12664.05338.12664.11922s-.0567.11921-.12664.11921c-.06995,0-.12664-.05337-.12664-.11921ZM12.14026,21.06835c0,.06584-.0567.11921-.12664.11921-.06995,0-.12664-.05337-.12664-.11921s.05669-.11922.12664-.11922c.06994,0,.12664.05338.12664.11922ZM11.69917,21.06835c0,.06584-.0567.11921-.12664.11921-.06995,0-.12664-.05337-.12664-.11921s.05669-.11922.12664-.11922c.06994,0,.12664.05338.12664.11922ZM11.66642,20.65312c0-.06584.0567-.11921.12664-.11921.06994,0,.12664.05337.12664.11921s-.0567.11922-.12664.11922c-.06995,0-.12664-.05338-.12664-.11922ZM11.22533,20.65312c0-.06584.0567-.11921.12664-.11921.06994,0,.12664.05337.12664.11921s-.0567.11922-.12664.11922c-.06995,0-.12664-.05338-.12664-.11922ZM11.91971,21.50835c0,.06584-.0567.11921-.12664.11921-.06995,0-.12664-.05337-.12664-.11921s.0567-.11922.12664-.11922c.06994,0,.12664.05338.12664.11922ZM11.47862,21.50835c0,.06584-.0567.11921-.12664.11921-.06995,0-.12664-.05337-.12664-.11921s.0567-.11922.12664-.11922c.06994,0,.12664.05338.12664.11922ZM11.03753,14.00949c0,.06584-.0567.11922-.12664.11922-.06995,0-.12664-.05338-.12664-.11922,0-.06584.0567-.11921.12664-.11921.06994,0,.12664.05338.12664.11921ZM10.59643,14.00949c0,.06584-.0567.11922-.12664.11922-.06994,0-.12664-.05338-.12664-.11922,0-.06584.0567-.11921.12664-.11921.06995,0,.12664.05338.12664.11921ZM10.81698,13.61904c0,.06585-.0567.11922-.12664.11922-.06994,0-.12664-.05337-.12664-.11922,0-.06584.0567-.11921.12664-.11921.06995,0,.12664.05337.12664.11921ZM10.37588,13.61904c0,.06585-.05669.11922-.12664.11922-.06994,0-.12664-.05337-.12664-.11922,0-.06584.0567-.11921.12664-.11921.06995,0,.12664.05337.12664.11921ZM11.25807,14.42472c0,.06584-.0567.11922-.12665.11922s-.12664-.05338-.12664-.11922.0567-.11921.12664-.11921.12665.05337.12665.11921ZM10.81698,14.42472c0,.06584-.0567.11922-.12664.11922-.06994,0-.12664-.05338-.12664-.11922s.0567-.11921.12664-.11921c.06995,0,.12664.05337.12664.11921ZM11.25807,15.25517c0,.06584-.0567.11922-.12665.11922s-.12664-.05338-.12664-.11922c0-.06584.0567-.11921.12664-.11921s.12665.05338.12665.11921ZM10.81698,15.25517c0,.06584-.0567.11922-.12664.11922-.06994,0-.12664-.05338-.12664-.11922,0-.06584.0567-.11921.12664-.11921.06995,0,.12664.05338.12664.11921ZM11.03753,14.83994c0,.06584-.0567.11921-.12664.11921-.06995,0-.12664-.05337-.12664-.11921s.0567-.11922.12664-.11922c.06994,0,.12664.05338.12664.11922ZM10.59643,14.83994c0,.06584-.0567.11921-.12664.11921-.06994,0-.12664-.05337-.12664-.11921s.0567-.11922.12664-.11922c.06995,0,.12664.05338.12664.11922ZM11.25807,16.08563c0,.06584-.0567.11921-.12665.11921s-.12664-.05337-.12664-.11921.0567-.11922.12664-.11922.12665.05338.12665.11922ZM10.81698,16.08563c0,.06584-.0567.11921-.12664.11921-.06994,0-.12664-.05337-.12664-.11921s.0567-.11922.12664-.11922c.06995,0,.12664.05338.12664.11922ZM11.03753,15.6704c0,.06584-.0567.11922-.12664.11922-.06995,0-.12664-.05338-.12664-.11922s.0567-.11921.12664-.11921c.06994,0,.12664.05337.12664.11921ZM10.59643,15.6704c0,.06584-.0567.11922-.12664.11922-.06994,0-.12664-.05338-.12664-.11922s.0567-.11921.12664-.11921c.06995,0,.12664.05337.12664.11921ZM11.25807,16.91608c0,.06584-.0567.11922-.12665.11922s-.12664-.05338-.12664-.11922.0567-.11921.12664-.11921.12665.05337.12665.11921ZM10.81698,16.91608c0,.06584-.0567.11922-.12664.11922-.06994,0-.12664-.05338-.12664-.11922s.0567-.11921.12664-.11921c.06995,0,.12664.05337.12664.11921ZM11.03753,16.50086c0,.06584-.0567.11921-.12664.11921-.06995,0-.12664-.05338-.12664-.11921,0-.06584.0567-.11922.12664-.11922.06994,0,.12664.05338.12664.11922ZM10.59643,16.50086c0,.06584-.0567.11921-.12664.11921-.06994,0-.12664-.05338-.12664-.11921,0-.06584.0567-.11922.12664-.11922.06995,0,.12664.05338.12664.11922ZM11.00478,17.74654c0-.06584.0567-.11922.12664-.11922s.12665.05338.12665.11922c0,.06584-.0567.11921-.12665.11921s-.12664-.05338-.12664-.11921ZM10.56369,17.74654c0-.06584.0567-.11922.12664-.11922.06995,0,.12664.05338.12664.11922,0,.06584-.0567.11921-.12664.11921-.06994,0-.12664-.05338-.12664-.11921ZM11.03753,17.33131c0,.06584-.0567.11921-.12664.11921-.06995,0-.12664-.05337-.12664-.11921s.0567-.11922.12664-.11922c.06994,0,.12664.05338.12664.11922ZM10.59643,17.33131c0,.06584-.0567.11921-.12664.11921-.06994,0-.12664-.05337-.12664-.11921s.0567-.11922.12664-.11922c.06995,0,.12664.05338.12664.11922ZM11.00478,18.57699c0-.06585.0567-.11922.12664-.11922s.12665.05338.12665.11922c0,.06584-.0567.11921-.12665.11921s-.12664-.05337-.12664-.11921ZM10.56369,18.57699c0-.06585.0567-.11922.12664-.11922.06995,0,.12664.05338.12664.11922,0,.06584-.0567.11921-.12664.11921-.06994,0-.12664-.05337-.12664-.11921ZM10.78424,18.16176c0-.06584.0567-.11921.12664-.11921.06994,0,.12664.05337.12664.11921,0,.06585-.0567.11922-.12664.11922-.06995,0-.12664-.05338-.12664-.11922ZM10.34314,18.16176c0-.06584.0567-.11921.12664-.11921.06995,0,.12664.05337.12664.11921,0,.06585-.0567.11922-.12664.11922-.06994,0-.12664-.05338-.12664-.11922ZM11.00478,19.40744c0-.06584.0567-.11921.12664-.11921s.12665.05337.12665.11921-.0567.11922-.12665.11922-.12664-.05338-.12664-.11922ZM10.56369,19.40744c0-.06584.0567-.11921.12664-.11921.06995,0,.12664.05337.12664.11921s-.0567.11922-.12664.11922c-.06994,0-.12664-.05338-.12664-.11922ZM10.78424,18.99221c0-.06584.0567-.11922.12664-.11922.06994,0,.12664.05338.12664.11922,0,.06584-.0567.11922-.12664.11922-.06995,0-.12664-.05338-.12664-.11922ZM10.34314,18.99221c0-.06584.0567-.11922.12664-.11922.06995,0,.12664.05338.12664.11922,0,.06584-.0567.11922-.12664.11922-.06994,0-.12664-.05338-.12664-.11922ZM11.00478,20.2379c0-.06584.0567-.11922.12664-.11922s.12665.05338.12665.11922c0,.06584-.0567.11921-.12665.11921s-.12664-.05338-.12664-.11921ZM10.56369,20.2379c0-.06584.0567-.11922.12664-.11922.06995,0,.12664.05338.12664.11922,0,.06584-.0567.11921-.12664.11921-.06994,0-.12664-.05338-.12664-.11921ZM10.78424,19.82267c0-.06584.0567-.11922.12664-.11922.06994,0,.12664.05338.12664.11922s-.0567.11921-.12664.11921c-.06995,0-.12664-.05337-.12664-.11921ZM10.34314,19.82267c0-.06584.0567-.11922.12664-.11922.06995,0,.12664.05338.12664.11922s-.0567.11921-.12664.11921c-.06994,0-.12664-.05337-.12664-.11921ZM11.25807,21.06835c0,.06584-.0567.11921-.12665.11921s-.12664-.05337-.12664-.11921.0567-.11922.12664-.11922.12665.05338.12665.11922ZM10.81698,21.06835c0,.06584-.0567.11921-.12664.11921-.06994,0-.12664-.05337-.12664-.11921s.0567-.11922.12664-.11922c.06995,0,.12664.05338.12664.11922ZM10.78424,20.65312c0-.06584.0567-.11921.12664-.11921.06994,0,.12664.05337.12664.11921s-.0567.11922-.12664.11922c-.06995,0-.12664-.05338-.12664-.11922ZM10.34314,20.65312c0-.06584.0567-.11921.12664-.11921.06995,0,.12664.05337.12664.11921s-.0567.11922-.12664.11922c-.06994,0-.12664-.05338-.12664-.11922ZM11.03753,21.50835c0,.06584-.0567.11921-.12664.11921-.06995,0-.12664-.05337-.12664-.11921s.0567-.11922.12664-.11922c.06994,0,.12664.05338.12664.11922ZM10.59643,21.50835c0,.06584-.0567.11921-.12664.11921-.06994,0-.12664-.05337-.12664-.11921s.0567-.11922.12664-.11922c.06995,0,.12664.05338.12664.11922ZM10.15534,14.00949c0,.06584-.0567.11922-.12664.11922-.06994,0-.12664-.05338-.12664-.11922,0-.06584.0567-.11921.12664-.11921.06995,0,.12664.05338.12664.11921ZM9.71425,14.00949c0,.06584-.0567.11922-.12664.11922-.06994,0-.12664-.05338-.12664-.11922,0-.06584.0567-.11921.12664-.11921.06995,0,.12664.05338.12664.11921ZM9.93479,13.61904c0,.06585-.05669.11922-.12664.11922-.06994,0-.12664-.05337-.12664-.11922,0-.06584.0567-.11921.12664-.11921.06995,0,.12664.05337.12664.11921ZM9.4937,13.61904c0,.06585-.05669.11922-.12664.11922-.06994,0-.12664-.05337-.12664-.11922,0-.06584.0567-.11921.12664-.11921.06995,0,.12664.05337.12664.11921ZM9.71425,14.83994c0,.06584-.0567.11921-.12664.11921-.06994,0-.12664-.05337-.12664-.11921s.0567-.11922.12664-.11922c.06995,0,.12664.05338.12664.11922ZM10.37588,14.42472c0,.06584-.05669.11922-.12664.11922-.06994,0-.12664-.05338-.12664-.11922s.0567-.11921.12664-.11921c.06995,0,.12664.05337.12664.11921ZM9.93479,14.42472c0,.06584-.05669.11922-.12664.11922-.06994,0-.12664-.05338-.12664-.11922s.0567-.11921.12664-.11921c.06995,0,.12664.05337.12664.11921ZM9.4937,14.42472c0,.06584-.05669.11922-.12664.11922-.06994,0-.12664-.05338-.12664-.11922s.0567-.11921.12664-.11921c.06995,0,.12664.05337.12664.11921ZM9.71425,15.6704c0,.06584-.0567.11922-.12664.11922-.06994,0-.12664-.05338-.12664-.11922s.0567-.11921.12664-.11921c.06995,0,.12664.05337.12664.11921ZM10.37588,15.25517c0,.06584-.05669.11922-.12664.11922-.06994,0-.12664-.05338-.12664-.11922,0-.06584.0567-.11921.12664-.11921.06995,0,.12664.05338.12664.11921ZM9.93479,15.25517c0,.06584-.05669.11922-.12664.11922-.06994,0-.12664-.05338-.12664-.11922,0-.06584.0567-.11921.12664-.11921.06995,0,.12664.05338.12664.11921ZM9.4937,15.25517c0,.06584-.05669.11922-.12664.11922-.06994,0-.12664-.05338-.12664-.11922,0-.06584.0567-.11921.12664-.11921.06995,0,.12664.05338.12664.11921ZM10.15534,14.83994c0,.06584-.0567.11921-.12664.11921-.06994,0-.12664-.05337-.12664-.11921s.0567-.11922.12664-.11922c.06995,0,.12664.05338.12664.11922ZM9.71425,16.50086c0,.06584-.0567.11921-.12664.11921-.06994,0-.12664-.05338-.12664-.11921,0-.06584.0567-.11922.12664-.11922.06995,0,.12664.05338.12664.11922ZM10.37588,16.08563c0,.06584-.05669.11921-.12664.11921-.06994,0-.12664-.05337-.12664-.11921s.0567-.11922.12664-.11922c.06995,0,.12664.05338.12664.11922ZM9.93479,16.08563c0,.06584-.05669.11921-.12664.11921-.06994,0-.12664-.05337-.12664-.11921s.0567-.11922.12664-.11922c.06995,0,.12664.05338.12664.11922ZM9.4937,16.08563c0,.06584-.05669.11921-.12664.11921-.06994,0-.12664-.05337-.12664-.11921s.0567-.11922.12664-.11922c.06995,0,.12664.05338.12664.11922ZM10.15534,15.6704c0,.06584-.0567.11922-.12664.11922-.06994,0-.12664-.05338-.12664-.11922s.0567-.11921.12664-.11921c.06995,0,.12664.05337.12664.11921ZM10.37588,16.91608c0,.06584-.05669.11922-.12664.11922-.06994,0-.12664-.05338-.12664-.11922s.0567-.11921.12664-.11921c.06995,0,.12664.05337.12664.11921ZM9.93479,16.91608c0,.06584-.05669.11922-.12664.11922-.06994,0-.12664-.05338-.12664-.11922s.0567-.11921.12664-.11921c.06995,0,.12664.05337.12664.11921ZM10.15534,16.50086c0,.06584-.0567.11921-.12664.11921-.06994,0-.12664-.05338-.12664-.11921,0-.06584.0567-.11922.12664-.11922.06995,0,.12664.05338.12664.11922ZM10.12259,17.74654c0-.06584.0567-.11922.12664-.11922.06995,0,.12664.05338.12664.11922,0,.06584-.05669.11921-.12664.11921-.06994,0-.12664-.05338-.12664-.11921ZM9.6815,17.74654c0-.06584.0567-.11922.12664-.11922.06995,0,.12664.05338.12664.11922,0,.06584-.05669.11921-.12664.11921-.06994,0-.12664-.05338-.12664-.11921ZM10.15534,17.33131c0,.06584-.0567.11921-.12664.11921-.06994,0-.12664-.05337-.12664-.11921s.0567-.11922.12664-.11922c.06995,0,.12664.05338.12664.11922ZM9.71425,17.33131c0,.06584-.0567.11921-.12664.11921-.06994,0-.12664-.05337-.12664-.11921s.0567-.11922.12664-.11922c.06995,0,.12664.05338.12664.11922ZM10.12259,18.57699c0-.06585.0567-.11922.12664-.11922.06995,0,.12664.05338.12664.11922,0,.06584-.05669.11921-.12664.11921-.06994,0-.12664-.05337-.12664-.11921ZM9.6815,18.57699c0-.06585.0567-.11922.12664-.11922.06995,0,.12664.05338.12664.11922,0,.06584-.05669.11921-.12664.11921-.06994,0-.12664-.05337-.12664-.11921ZM9.90205,18.16176c0-.06584.0567-.11921.12664-.11921.06995,0,.12664.05337.12664.11921,0,.06585-.0567.11922-.12664.11922-.06994,0-.12664-.05338-.12664-.11922ZM9.46096,18.16176c0-.06584.0567-.11921.12664-.11921.06995,0,.12664.05337.12664.11921,0,.06585-.0567.11922-.12664.11922-.06994,0-.12664-.05338-.12664-.11922ZM10.12259,19.40744c0-.06584.0567-.11921.12664-.11921.06995,0,.12664.05337.12664.11921s-.05669.11922-.12664.11922c-.06994,0-.12664-.05338-.12664-.11922ZM9.6815,19.40744c0-.06584.0567-.11921.12664-.11921.06995,0,.12664.05337.12664.11921s-.05669.11922-.12664.11922c-.06994,0-.12664-.05338-.12664-.11922ZM9.90205,18.99221c0-.06584.0567-.11922.12664-.11922.06995,0,.12664.05338.12664.11922,0,.06584-.0567.11922-.12664.11922-.06994,0-.12664-.05338-.12664-.11922ZM9.46096,18.99221c0-.06584.0567-.11922.12664-.11922.06995,0,.12664.05338.12664.11922,0,.06584-.0567.11922-.12664.11922-.06994,0-.12664-.05338-.12664-.11922ZM9.46096,20.65312c0-.06584.0567-.11921.12664-.11921.06995,0,.12664.05337.12664.11921s-.0567.11922-.12664.11922c-.06994,0-.12664-.05338-.12664-.11922ZM10.12259,20.2379c0-.06584.0567-.11922.12664-.11922.06995,0,.12664.05338.12664.11922,0,.06584-.05669.11921-.12664.11921-.06994,0-.12664-.05338-.12664-.11921ZM9.6815,20.2379c0-.06584.0567-.11922.12664-.11922.06995,0,.12664.05338.12664.11922,0,.06584-.05669.11921-.12664.11921-.06994,0-.12664-.05338-.12664-.11921ZM9.90205,19.82267c0-.06584.0567-.11922.12664-.11922.06995,0,.12664.05338.12664.11922s-.0567.11921-.12664.11921c-.06994,0-.12664-.05337-.12664-.11921ZM9.46096,19.82267c0-.06584.0567-.11922.12664-.11922.06995,0,.12664.05338.12664.11922s-.0567.11921-.12664.11921c-.06994,0-.12664-.05337-.12664-.11921ZM10.37588,21.06835c0,.06584-.05669.11921-.12664.11921-.06994,0-.12664-.05337-.12664-.11921s.0567-.11922.12664-.11922c.06995,0,.12664.05338.12664.11922ZM9.93479,21.06835c0,.06584-.05669.11921-.12664.11921-.06994,0-.12664-.05337-.12664-.11921s.0567-.11922.12664-.11922c.06995,0,.12664.05338.12664.11922ZM9.90205,20.65312c0-.06584.0567-.11921.12664-.11921.06995,0,.12664.05337.12664.11921s-.0567.11922-.12664.11922c-.06994,0-.12664-.05338-.12664-.11922ZM10.15534,21.50835c0,.06584-.0567.11921-.12664.11921-.06994,0-.12664-.05337-.12664-.11921s.0567-.11922.12664-.11922c.06995,0,.12664.05338.12664.11922ZM9.71425,21.50835c0,.06584-.0567.11921-.12664.11921-.06994,0-.12664-.05337-.12664-.11921s.0567-.11922.12664-.11922c.06995,0,.12664.05338.12664.11922ZM9.27315,14.00949c0,.06584-.0567.11922-.12664.11922s-.12665-.05338-.12665-.11922c0-.06584.0567-.11921.12665-.11921s.12664.05338.12664.11921ZM9.27315,14.83994c0,.06584-.0567.11921-.12664.11921s-.12665-.05337-.12665-.11921.0567-.11922.12665-.11922.12664.05338.12664.11922ZM9.27315,15.6704c0,.06584-.0567.11922-.12664.11922s-.12665-.05338-.12665-.11922.0567-.11921.12665-.11921.12664.05337.12664.11921ZM9.27315,16.50086c0,.06584-.0567.11921-.12664.11921s-.12665-.05338-.12665-.11921c0-.06584.0567-.11922.12665-.11922s.12664.05338.12664.11922ZM9.27315,17.33131c0,.06584-.0567.11921-.12664.11921s-.12665-.05337-.12665-.11921.0567-.11922.12665-.11922.12664.05338.12664.11922ZM9.4937,16.91608c0,.06584-.05669.11922-.12664.11922-.06994,0-.12664-.05338-.12664-.11922s.0567-.11921.12664-.11921c.06995,0,.12664.05337.12664.11921ZM9.01986,18.16176c0-.06584.0567-.11921.12665-.11921s.12664.05337.12664.11921c0,.06585-.0567.11922-.12664.11922s-.12665-.05338-.12665-.11922ZM9.24041,17.74654c0-.06584.0567-.11922.12664-.11922.06995,0,.12664.05338.12664.11922,0,.06584-.05669.11921-.12664.11921-.06994,0-.12664-.05338-.12664-.11921ZM9.01986,18.99221c0-.06584.0567-.11922.12665-.11922s.12664.05338.12664.11922c0,.06584-.0567.11922-.12664.11922s-.12665-.05338-.12665-.11922ZM9.24041,18.57699c0-.06585.0567-.11922.12664-.11922.06995,0,.12664.05338.12664.11922,0,.06584-.05669.11921-.12664.11921-.06994,0-.12664-.05337-.12664-.11921ZM9.01986,19.82267c0-.06584.0567-.11922.12665-.11922s.12664.05338.12664.11922-.0567.11921-.12664.11921-.12665-.05337-.12665-.11921ZM9.24041,19.40744c0-.06584.0567-.11921.12664-.11921.06995,0,.12664.05337.12664.11921s-.05669.11922-.12664.11922c-.06994,0-.12664-.05338-.12664-.11922ZM9.01986,20.65312c0-.06584.0567-.11921.12665-.11921s.12664.05337.12664.11921-.0567.11922-.12664.11922-.12665-.05338-.12665-.11922ZM9.24041,20.2379c0-.06584.0567-.11922.12664-.11922.06995,0,.12664.05338.12664.11922,0,.06584-.05669.11921-.12664.11921-.06994,0-.12664-.05338-.12664-.11921ZM9.27315,21.50835c0,.06584-.0567.11921-.12664.11921s-.12665-.05337-.12665-.11921.0567-.11922.12665-.11922.12664.05338.12664.11922ZM9.4937,21.06835c0,.06584-.05669.11921-.12664.11921-.06994,0-.12664-.05337-.12664-.11921s.0567-.11922.12664-.11922c.06995,0,.12664.05338.12664.11922Z"/>
</svg>