<svg xmlns="http://www.w3.org/2000/svg" viewBox="0 0 24 24"><path fill="#44739e" d="M15.63 2.395C15.549 2.07 14.823 2 14.229 2H9.774c-.88 0-1.339.13-1.403.395l-.35 1.351.003.016v17.807c0 .234.234.294.406.338l.049.013c.273.07.636.08.956.08h5.132c.32 0 .683-.01.957-.08l.048-.013c.171-.044.406-.104.406-.338V3.757l.001-.017Zm.253 19.173c0 .16-.14.208-.338.26l-.049.012c-.261.067-.616.076-.93.077h-5.13c-.313 0-.668-.01-.928-.076l-.05-.014c-.198-.05-.338-.1-.338-.26V3.95a.8.8 0 0 0 .301.125l.05.013c.272.07.636.08.956.08h5.15c.32 0 .684-.01.957-.08l.048-.013c.1-.025.22-.057.302-.125ZM15.56 4.016l-.05.013c-.265.067-.639.076-.935.077H9.426c-.315 0-.672-.01-.935-.077l-.05-.013c-.163-.042-.348-.09-.348-.263l.348-1.345c.055-.23.504-.346 1.333-.346h4.454c.803 0 1.276.123 1.333.347l.347 1.337c0 .18-.184.228-.347.27m-3.56 2.254c-.472 0-.856.366-.856.816s.384.815.855.815c.473 0 .857-.366.857-.815 0-.45-.384-.816-.857-.816m0 1.498c-.402 0-.729-.312-.729-.695s.327-.695.729-.695.728.312.728.695-.327.695-.728.695m3.486-3.472c-.279.07-.643.08-.963.081H9.477c-.32 0-.684-.01-.963-.081l-.049-.013a2 2 0 0 1-.175-.053v8.736c.064.039.148.06.227.08l.049.014c.255.065.604.074.912.074h5.046c.308 0 .657-.01.913-.075l.048-.012a1 1 0 0 0 .227-.08V4.23c-.061.024-.123.04-.175.053ZM12 8.04c-.531 0-.965-.413-.965-.92s.434-.92.965-.92c.533 0 .967.412.967.92s-.434.92-.967.92m3.386-4.164q-.002.02-.048.04l.003-.017c0-.058-.148-.09-.287-.09s-.287.032-.287.089q0 .006.003.017-.047-.018-.048-.04c0-.037.137-.08.332-.08s.332.043.332.08m-.254-.008q.003 0 .003.002l-.01.002h-.006a.3.3 0 0 0-.063-.007c-.05 0-.09.01-.09.022h.018l-.024.009h-.005l-.024-.008.003-.001h.015c0-.015.048-.027.107-.027q.046 0 .076.008m.18.022.003.01c0 .002 0 .023-.031.032a1 1 0 0 1-.23.024 1 1 0 0 1-.23-.024c-.031-.008-.03-.03-.03-.033l.003-.009c.022.032.128.056.257.056s.235-.024.257-.056m-.166-.003h-.018l.024-.009h.005l.021.009h-.014c0 .015-.049.027-.108.027a.3.3 0 0 1-.079-.01l.01-.002h.006a.3.3 0 0 0 .063.008c.05 0 .09-.01.09-.023m.269-.233c.064 0 .099.013.104.019-.005.006-.04.019-.104.019-.067 0-.102-.014-.105-.018.003-.006.038-.02.105-.02m-1.086-1.538H9.661c-.679 0-1.11.114-1.157.305l-.346 1.334c.004.123.122.162.302.208l.05.013c.257.066.625.074.917.075h5.15c.292 0 .66-.01.917-.075l.05-.013c.18-.046.298-.086.302-.208L15.5 2.42c-.057-.225-.641-.305-1.17-.305m1.103.79h.004a.4.4 0 0 1 .031.05l-2.162.05 2.125-.1Zm-2.418.319 2.053.316q-.046.022-.104.045h-.01Zm1.89.387-.12.043h-.012l-1.848-.413h.003Zm-1.81-.408 2.111.263q-.044.026-.086.047h-.01Zm.076-.022 2.15.209-.07.047h-.01Zm.065-.026 2.172.156-.053.048h-.008Zm.038-.028 2.194.103-.036.05h-.006Zm.032-.03 2.196.051a.3.3 0 0 1-.02.05h-.004Zm2.056-.27.048.048-2.138.101 2.083-.149Zm-.103-.076h.004l.063.047-2.101.15 2.03-.197Zm-.124-.073h.005q.044.022.077.045l-2.053.2 1.967-.245Zm-.146-.07h.006q.052.023.09.043l-1.994.249 1.894-.292Zm-.167-.066h.006l.105.041-1.925.297 1.81-.338Zm-.187-.062h.006l.119.039-1.843.344 1.713-.383Zm-.2-.057.132.036-1.715.385h-.007l1.58-.421Zm-.222-.053.145.034-1.575.421h-.009L14.2 2.37Zm-.238-.047.158.031-1.425.454H12.7l-.007-.001 1.27-.484Zm-.252-.041q.094.014.171.028l-1.266.483h-.006l-.01-.002 1.102-.51Zm-.263-.036c.06.007.117.015.183.025l-1.1.508h-.006l-.014-.001.928-.532Zm-.273-.03.194.021-.926.53-.005.001-.02-.002.748-.55Zm-.281-.023.204.017-.747.549h-.006l-.024-.002.566-.564Zm-.288-.017.214.012-.564.564h-.007l-.027-.002.38-.574Zm-.291-.01q.116.002.222.007l-.379.574h-.036l.19-.582Zm-.294-.005.228.003-.19.58h-.038Zm.168.797h.117v.046l-.116.013v-.025l-.194.021-.194-.021v.07l-.113.012-.004-.013.001-.083v-.02h.117l.193.022Zm-.229-.796v.582h-.038l-.19-.58c.072-.002.143-.002.227-.002m-.294.004h.003l.191.58h-.001l-.03.002-.006-.001-.38-.574Zm-.291.01h.005l.38.574-.027.002h-.007l-.566-.564Zm-.287.017h.006l.567.564-.026.002h-.003l-.75-.55Zm-.282.024h.007l.751.55-.02.001h-.005l-.929-.531Zm-.273.03.005-.001h.004l.93.532-.014.001h-.008L10.36 2.27Zm-.263.035h.01l1.103.51h-.018l-1.268-.483q.092-.016.173-.027m-.251.041h.01l1.27.484h-.014l-1.427-.453q.073-.015.16-.03m-.238.048h.01l1.43.454h-.01l-1.578-.421Zm-.222.052h.01l1.58.42h-.008L9.435 2.46Zm-.206.057h.01l1.715.384-1.846-.346Zm-.187.062h.01l1.809.338-1.927-.297q.055-.022.108-.04m-.167.066h.01l1.89.29-1.994-.247Zm-.146.07h.01l1.962.244-2.051-.2Zm-.123.073h.009l2.023.196-2.097-.15Zm-.1.076h.009l2.083.149-2.141-.101Zm-.073.079h.006l2.128.099-2.169-.05Zm-.049.08h.005l2.156.05H8.501a.3.3 0 0 1 .02-.05m-.023.13a.2.2 0 0 1 .002-.05h2.185l-2.185.05Zm.022.083a.3.3 0 0 1-.015-.051l2.194-.051-2.174.102Zm.05.08a.4.4 0 0 1-.032-.05l2.191-.103-2.152.154Zm.08.082-.051-.05 2.177-.157-2.12.206Zm.107.077h-.006l-.067-.049 2.152-.21-2.077.259Zm.126.075L8.8 3.468l2.111-.263-2.018.31Zm.155.072-.1-.045 2.053-.317-1.942.362Zm.18.069-.117-.045 1.974-.37h.003l-1.85.414Zm.203.064-.133-.042 1.85-.414h.008l-1.714.456Zm.224.06-.15-.04 1.711-.457h.011l-1.56.496Zm.244.053-.165-.036 1.558-.496h.014l-1.395.532Zm.262.048-.181-.033 1.392-.531h.008l.01.001-1.218.563Zm.278.042-.196-.03 1.215-.562h.007l.016.002-1.032.59Zm.291.034-.21-.024 1.029-.59h.007l.02.002-.836.612Zm.302.028-.222-.02.832-.612h.008l.024.001-.633.63Zm.311.02-.234-.015.631-.63h.007l.028.001-.426.644Zm.316.012-.242-.009.423-.643h.038l-.214.652Zm.321.005c-.088 0-.175-.002-.25-.003l.212-.651h.04Zm-.247-.926.108-.012a.4.4 0 0 0 .178.03c.107 0 .194-.022.194-.05V3.04l.116-.013v.034c.001.046-.138.083-.31.083a.64.64 0 0 1-.286-.05m.313.926-.002-.654h.04l.213.651c-.08.002-.157.002-.25.003m.32-.005h-.005l-.215-.651h.002l.03-.002.006.001.425.644Zm.316-.013h-.007l-.426-.642.029-.002h.005l.634.63c-.081.006-.164.01-.235.014m.31-.02q-.007 0-.006.001l-.636-.63.027-.003h.004l.835.613Zm.302-.027h-.008l-.837-.612.022-.002h.004l1.031.59c-.073.01-.147.017-.212.024m.291-.035h-.01l-1.031-.589.017-.002h.005l1.218.563Zm.278-.041h-.01l-1.218-.562.011-.002h.006l1.395.532Zm.261-.048h-.01l-1.395-.53.006-.002h.008l1.56.497Zm.245-.054h-.012l-1.56-.495h.011l1.713.457Zm.213-.059-1.713-.456h.008l1.852.415-.136.041Zm.722.235a1 1 0 0 1-.237.025c-.083 0-.17-.009-.236-.025h-.002c-.07-.018-.12-.044-.12-.078 0-.067.185-.103.358-.103s.358.036.358.103c0 .034-.05.06-.12.078m.253-.281c0 .033-.082.042-.13.042s-.13-.01-.13-.042.081-.042.13-.042.13.01.13.042m-.039-.605a.2.2 0 0 1-.002.05h-.002l-2.183-.05Zm-2.186-.031 2.16-.05h.005a.3.3 0 0 1 .014.05Zm1.928 18.012c-.006.088-.085.114-.134.11-.074-.01-.123-.06-.127-.132.006-.128.16-.131.23-.055a.1.1 0 0 1 .031.077m.073-1.163c-.11-.03-.136-.191-.06-.231a.1.1 0 0 1 .06-.006c.126.032.151.184.063.229a.1.1 0 0 1-.063.008m-.207.445a.14.14 0 0 1-.127-.133c.007-.128.16-.131.23-.055.029.031.03.062.031.077-.005.084-.081.116-.134.111m.27-1.282a.1.1 0 0 1-.063.008c-.11-.03-.136-.19-.06-.231a.1.1 0 0 1 .06-.007c.126.033.15.185.064.23m-.397.32c.007-.129.16-.131.23-.055.029.032.03.062.031.077-.005.089-.085.115-.134.111-.075-.01-.123-.061-.127-.133m0-.829c.006-.128.16-.13.23-.055a.1.1 0 0 1 .031.078c-.006.088-.085.114-.134.11-.074-.01-.123-.06-.127-.133m.397-1.149a.1.1 0 0 1-.063.008c-.11-.03-.136-.19-.06-.23a.08.08 0 0 1 .06-.007c.126.033.151.185.063.23m-.167.265c.029.032.03.063.031.078-.005.084-.081.115-.134.11a.14.14 0 0 1-.127-.133c.007-.128.16-.13.23-.055m.168-1.093a.1.1 0 0 1-.064.008c-.11-.03-.136-.191-.06-.231a.1.1 0 0 1 .06-.007c.126.033.15.185.064.23m-.137.342c-.005.088-.085.115-.134.11-.075-.01-.123-.06-.127-.133.007-.128.16-.13.23-.054.029.031.03.062.031.077m0-.829c-.006.088-.085.115-.134.11-.074-.01-.123-.06-.127-.132.006-.128.16-.131.23-.055a.1.1 0 0 1 .031.077m.135-1.171a.1.1 0 0 1-.063.008c-.118-.032-.129-.194-.06-.23a.1.1 0 0 1 .06-.007c.126.033.151.184.063.229m-.166.265c.029.032.03.062.031.077-.005.084-.081.116-.134.111a.14.14 0 0 1-.127-.133c.007-.128.16-.131.23-.055m.168-1.093a.1.1 0 0 1-.064.008c-.11-.03-.136-.192-.06-.232a.1.1 0 0 1 .06-.006c.126.033.15.184.064.23m-.168.264c.029.032.03.063.031.077-.005.089-.085.115-.134.111-.075-.01-.123-.06-.127-.133.007-.128.16-.13.23-.055m0-.803c.029.031.03.062.031.077-.005.088-.085.114-.134.11-.075-.01-.123-.06-.127-.133.007-.128.16-.13.23-.054m.168 7.998a.1.1 0 0 1-.064.008c-.11-.03-.136-.192-.06-.232a.1.1 0 0 1 .06-.006c.126.033.15.185.064.23m.24-.104c-.007.005-.017.01-.029-.001-.049-.05-.046-.248-.013-.245.048.005.101.202.042.246m-.362-.949a.1.1 0 0 1 .059-.006c.126.033.151.185.064.23a.1.1 0 0 1-.064.008c-.113-.03-.138-.19-.06-.232m.332.119c-.048-.049-.046-.248-.013-.245.05.005.103.202.042.247-.007.004-.017.008-.029-.002m-.02.39c-.004.084-.055.102-.09.088-.062-.03-.072-.117-.073-.153 0-.096.055-.11.107-.063a.18.18 0 0 1 .056.128m.05-1.217c-.007.004-.017.008-.03-.002-.048-.05-.045-.247-.012-.244.048.005.101.202.042.246m-.106.26a.18.18 0 0 1 .056.128c-.004.083-.055.102-.09.089-.065-.032-.072-.126-.073-.154.003-.109.064-.102.107-.063m.077-1.09c-.049-.05-.046-.248-.013-.245.048.005.101.202.042.246-.007.005-.017.009-.029-.001m-.021.39c-.004.083-.054.101-.09.088-.063-.031-.072-.118-.073-.154.003-.109.064-.102.107-.063.02.019.053.06.056.128m-.19-1.115c-.026.014-.05.01-.063.008-.113-.03-.138-.19-.06-.23a.1.1 0 0 1 .06-.008c.126.033.151.186.064.23m.239-.103q-.015.01-.03-.001c-.047-.05-.045-.248-.012-.245.05.004.103.202.042.246m-.212.324c0-.097.055-.11.107-.063a.18.18 0 0 1 .056.128c-.004.083-.055.101-.09.087-.062-.03-.072-.117-.073-.152m.213-1.153c-.007.005-.017.009-.03-.001-.048-.05-.045-.248-.012-.244.048.004.101.201.042.245m-.106.261a.18.18 0 0 1 .056.128c-.004.083-.055.102-.09.088-.065-.031-.072-.125-.073-.153.003-.109.064-.102.107-.063m.077-1.09c-.049-.05-.046-.249-.013-.245.048.004.101.202.042.246-.007.005-.017.008-.029-.002m-.021.389c-.004.084-.054.102-.09.088-.063-.03-.072-.117-.073-.154.003-.108.064-.102.107-.062.02.018.053.06.056.128m-.19-1.114c-.026.014-.05.01-.063.008-.113-.03-.138-.19-.06-.231a.1.1 0 0 1 .06-.007c.126.033.151.185.064.23m.239-.103q-.015.01-.03-.002c-.047-.049-.045-.247-.012-.244.05.004.103.201.042.246m-.212.323c0-.096.055-.11.107-.062a.18.18 0 0 1 .056.128c-.004.083-.055.1-.09.087-.062-.03-.072-.117-.073-.153m.212-1.152c-.006.005-.017.008-.028-.002-.05-.05-.046-.247-.013-.244.048.005.101.202.041.246m-.105.26a.18.18 0 0 1 .056.128c-.004.084-.055.102-.09.089-.065-.032-.072-.126-.073-.154.003-.108.064-.102.107-.062m.077-1.09c-.049-.05-.046-.248-.013-.245.048.005.101.202.042.246-.007.005-.017.009-.029-.001m-.021.39c-.004.084-.054.102-.09.088-.063-.03-.072-.118-.073-.154.003-.109.064-.102.107-.062a.18.18 0 0 1 .056.127m-.056-.957a.18.18 0 0 1 .056.128c-.004.083-.055.101-.09.088-.065-.032-.072-.125-.073-.153.003-.109.064-.102.107-.063m-7.169 5.436c.003-.012.018-.075.057-.106.059-.036.048.112.037.163-.011.054-.03.069-.037.075-.043.025-.076-.048-.057-.132m.094-.771c-.011.053-.028.067-.036.074-.044.026-.076-.048-.058-.131.003-.013.018-.076.058-.107.061-.038.045.126.036.164m-.094-1.715c.003-.012.018-.075.057-.107.059-.035.048.112.037.164s-.03.068-.037.074c-.043.026-.076-.048-.057-.13m0-.829c.003-.012.018-.075.058-.107.061-.037.045.126.036.164-.011.053-.028.068-.036.074-.044.026-.076-.047-.058-.13m.094-1.6c-.011.053-.03.068-.037.074-.043.026-.076-.048-.057-.131.003-.013.018-.075.057-.107.059-.036.048.112.037.164m0 7.459c-.011.053-.03.068-.037.074-.043.026-.076-.048-.057-.131.003-.012.018-.075.057-.107.059-.036.048.112.037.164m.368.015c.012.065-.032.152-.107.166-.11.014-.153-.102-.092-.18.06-.08.18-.086.2.014m-.368-.844c-.011.053-.029.068-.036.074-.044.026-.076-.048-.058-.13.003-.013.018-.076.058-.108.061-.038.045.126.036.164m.169 0c.06-.079.18-.085.199.015.012.067-.03.152-.107.166-.11.014-.153-.102-.092-.18m-.002.398c-.003.086-.043.138-.08.151-.054.015-.093-.022-.096-.09.005-.118.112-.181.154-.135.023.025.022.07.022.074m.308.223c-.077 0-.132-.045-.137-.114.006-.117.168-.16.239-.09.025.026.03.058.029.074-.006.096-.088.127-.13.13m-.57-1.507c.004-.012.02-.075.058-.106.059-.036.048.111.037.163s-.03.068-.037.074c-.043.026-.076-.048-.057-.13m.264.058c.06-.08.18-.085.2.014.012.067-.031.152-.108.166-.11.014-.153-.101-.092-.18m-.178.459c.005-.12.112-.183.154-.136.02.022.021.057.022.074-.003.086-.043.139-.08.152-.054.015-.093-.022-.096-.09m.35.057h-.003l.002-.008-.002-.01h.005c.022-.109.174-.133.234-.072a.1.1 0 0 1 .027.055h.002v.018h-.008a.14.14 0 0 1-.128.112c-.07.001-.122-.037-.134-.095m.236-1.756c.025.025.03.057.03.072a.14.14 0 0 1-.132.13c-.077.001-.132-.044-.137-.113.006-.117.168-.161.239-.09m-.408.41c.06-.078.18-.085.2.015.011.066-.033.153-.108.166-.11.014-.153-.101-.092-.18m-.178.46c.005-.112.108-.187.154-.136.02.022.021.059.022.074-.003.086-.043.139-.08.152-.054.015-.093-.022-.096-.09m.347.047c.007-.117.17-.16.24-.089a.1.1 0 0 1 .028.073c-.005.097-.088.128-.13.13-.078.001-.134-.044-.138-.114m-.17-1.335c.062-.08.181-.086.2.014.012.067-.03.152-.107.166-.11.014-.153-.1-.092-.18m-.082.549c-.053.015-.092-.022-.095-.09.005-.118.112-.182.154-.136.023.025.022.07.022.075-.003.086-.043.138-.08.15m-.18-1.435c.003-.012.018-.075.057-.106.059-.036.048.111.037.163s-.028.067-.037.074c-.043.025-.076-.048-.057-.131m.263.058c.06-.08.18-.086.2.013.012.067-.031.152-.108.166-.11.014-.153-.1-.092-.18m-.178.458c.005-.119.112-.182.154-.136.02.023.021.058.022.075-.003.086-.043.138-.08.152-.054.014-.093-.023-.096-.09m.347.057.002-.007-.002-.011h.005c.022-.108.174-.132.234-.071a.1.1 0 0 1 .027.055h.002v.018h-.005a.14.14 0 0 1-.128.112c-.07.001-.122-.037-.134-.096Zm.237-1.759c.025.025.03.058.03.073-.007.097-.089.127-.132.13-.077.001-.132-.045-.137-.113.006-.117.168-.161.239-.09m-.408.412c.06-.08.18-.086.2.014.011.066-.033.152-.108.166-.11.014-.153-.102-.092-.18m-.178.458c.005-.111.108-.186.154-.135.02.022.021.058.022.074-.003.086-.043.138-.08.152-.054.014-.093-.023-.096-.09m.586-.041a.1.1 0 0 1 .03.072c-.006.097-.089.128-.132.13-.077.002-.133-.044-.137-.113.007-.117.17-.16.24-.09m-.408-1.246c.06-.08.18-.086.199.014.012.067-.03.152-.107.166-.11.014-.153-.101-.092-.18m-.178.459c.005-.119.112-.182.154-.136.023.025.022.07.022.074-.003.086-.043.138-.08.152-.054.014-.093-.023-.096-.09m.01-1.288c-.012.052-.03.067-.037.073-.045.027-.077-.045-.058-.13a.2.2 0 0 1 .058-.107c.062-.038.045.126.036.164m.367.015c.012.066-.03.151-.107.165-.11.014-.153-.101-.092-.18.06-.08.18-.085.199.015m-.223.308c.02.022.021.057.022.074-.003.087-.043.139-.08.152-.054.015-.093-.022-.096-.09.005-.119.112-.182.154-.136m.193.193.002-.008-.002-.01h.005c.022-.109.174-.133.234-.071a.1.1 0 0 1 .027.054h.002v.018h-.003a.14.14 0 0 1-.128.113c-.07 0-.122-.037-.134-.096Zm.03-1.33c.012.065-.032.152-.107.166-.11.014-.153-.102-.092-.18.06-.08.18-.086.2.014m-.223.308c.02.023.021.059.022.074-.003.087-.043.139-.08.152-.054.015-.093-.022-.096-.09.005-.112.108-.187.154-.136m.432.095a.1.1 0 0 1 .03.072c-.006.097-.089.128-.132.13-.077.002-.133-.044-.137-.114.007-.116.17-.16.24-.088m-.432-.923c.02.022.021.057.022.074-.003.086-.043.138-.08.151-.054.015-.093-.022-.096-.09.005-.118.112-.181.154-.135m.432.119a.1.1 0 0 1 .03.072.14.14 0 0 1-.132.13c-.077.001-.133-.044-.137-.113.008-.125.175-.154.24-.09m5.982.47c0 .066-.056.12-.126.12s-.127-.054-.127-.12c0-.065.057-.119.127-.119s.126.054.126.12m-.22-.39c0 .066-.057.12-.127.12s-.126-.054-.126-.12.056-.12.126-.12.127.054.127.12m.22 1.22c0 .067-.056.12-.126.12s-.127-.053-.127-.12.057-.118.127-.118.126.053.126.119m0 .831c0 .066-.056.12-.126.12s-.127-.054-.127-.12.057-.119.127-.119.126.054.126.12m0 .83c0 .067-.056.12-.126.12s-.127-.053-.127-.12c0-.065.057-.118.127-.118s.126.053.126.119m0 .831c0 .066-.056.12-.126.12s-.127-.054-.127-.12.057-.119.127-.119.126.053.126.12m-.253.83c0-.065.057-.118.127-.118s.126.053.126.119-.056.119-.126.119-.127-.053-.127-.12m0 .831c0-.066.057-.119.127-.119s.126.053.126.12c0 .065-.056.118-.126.118s-.127-.053-.127-.119m0 .83c0-.065.057-.119.127-.119s.126.054.126.12-.056.119-.126.119-.127-.053-.127-.12m0 .831c0-.066.057-.12.127-.12s.126.054.126.12-.056.12-.126.12-.127-.054-.127-.12m.253.855c0 .066-.056.12-.126.12s-.127-.054-.127-.12.057-.119.127-.119.126.054.126.12m-.44-7.499c0 .066-.057.12-.127.12s-.127-.054-.127-.12c0-.065.057-.119.127-.119s.126.054.126.12m-.442 0c0 .066-.057.12-.126.12-.07 0-.127-.054-.127-.12 0-.065.057-.119.127-.119s.126.054.126.12m.22-.39c0 .066-.056.12-.126.12s-.127-.054-.127-.12.057-.12.127-.12.127.054.127.12m-.44 0c0 .066-.057.12-.127.12s-.127-.054-.127-.12.057-.12.127-.12.127.054.127.12m.882.806c0 .066-.057.119-.127.119s-.126-.053-.126-.12.056-.118.126-.118.127.053.127.119m-.441 0c0 .066-.057.119-.127.119s-.127-.053-.127-.12.057-.118.127-.118.127.053.127.119m.44.83c0 .066-.056.12-.126.12s-.126-.054-.126-.12.056-.119.126-.119.127.053.127.12m-.44 0c0 .066-.057.12-.127.12s-.127-.054-.127-.12.057-.119.127-.119.127.053.127.12m.22-.415c0 .066-.056.12-.126.12s-.127-.054-.127-.12.057-.12.127-.12.126.054.126.12m-.44 0c0 .066-.058.12-.127.12-.07 0-.127-.054-.127-.12s.057-.12.127-.12.126.054.126.12m.66 1.246c0 .065-.056.119-.126.119s-.126-.054-.126-.12.056-.119.126-.119.127.054.127.12m-.44 0c0 .065-.057.119-.127.119s-.127-.054-.127-.12.057-.119.127-.119.127.054.127.12m.22-.416c0 .066-.056.12-.126.12s-.127-.054-.127-.12.057-.119.127-.119.126.054.126.12m-.44 0c0 .066-.058.12-.127.12-.07 0-.127-.054-.127-.12s.057-.119.127-.119.126.054.126.12m.408 1.246c0-.066.056-.12.126-.12s.127.054.127.12-.057.12-.127.12-.126-.054-.126-.12m-.188 0c0 .066-.057.12-.127.12s-.127-.054-.127-.12.057-.12.127-.12.127.054.127.12m.22-.415c0 .066-.056.12-.126.12s-.127-.054-.127-.12.057-.12.127-.12.126.054.126.12m-.44 0c0 .066-.058.12-.127.12-.07 0-.127-.054-.127-.12s.057-.12.127-.12.126.054.126.12m.408 1.246c0-.066.056-.12.126-.12s.127.054.127.12c0 .065-.057.119-.127.119s-.126-.054-.126-.12m-.442 0c0-.066.057-.12.127-.12s.127.054.127.12c0 .065-.057.119-.127.119s-.127-.054-.127-.12m.474-.416c0 .066-.056.12-.126.12s-.127-.054-.127-.12.057-.119.127-.119.126.053.126.12m-.44 0c0 .066-.058.12-.127.12-.07 0-.127-.054-.127-.12s.057-.119.127-.119.126.053.126.12m.408 1.246c0-.066.056-.12.126-.12s.127.054.127.12-.057.12-.127.12-.126-.054-.126-.12m-.442 0c0-.066.057-.12.127-.12s.127.054.127.12-.057.12-.127.12-.127-.054-.127-.12m.221-.415c0-.066.057-.12.127-.12s.126.054.126.12-.056.119-.126.119-.127-.053-.127-.12m-.441 0c0-.066.057-.12.127-.12s.126.054.126.12-.057.119-.126.119a.123.123 0 0 1-.127-.12m.662 1.245c0-.065.056-.119.126-.119s.127.054.127.12-.057.119-.127.119-.126-.054-.126-.12m-.442 0c0-.065.057-.119.127-.119s.127.054.127.12-.057.119-.127.119-.127-.054-.127-.12m.221-.415c0-.066.057-.119.127-.119s.126.053.126.12c0 .065-.056.118-.126.118s-.127-.053-.127-.119m-.441 0c0-.066.057-.119.127-.119s.126.053.126.12c0 .065-.057.118-.126.118-.07 0-.127-.053-.127-.119m.662 1.246c0-.066.056-.12.126-.12s.127.054.127.12-.057.12-.127.12-.126-.054-.126-.12m-.442 0c0-.066.057-.12.127-.12s.127.054.127.12-.057.12-.127.12-.127-.054-.127-.12m.221-.415c0-.066.057-.12.127-.12s.126.054.126.12-.056.119-.126.119-.127-.053-.127-.12m-.441 0c0-.066.057-.12.127-.12s.126.054.126.12-.057.119-.126.119a.123.123 0 0 1-.127-.12m.915 1.245c0 .066-.057.12-.127.12s-.126-.054-.126-.12.056-.119.126-.119.127.054.127.12m-.441 0c0 .066-.057.12-.127.12s-.127-.054-.127-.12.057-.119.127-.119.127.054.127.12m-.033-.415c0-.066.057-.12.127-.12s.126.054.126.12-.056.12-.126.12-.127-.054-.127-.12m-.441 0c0-.066.057-.12.127-.12s.126.054.126.12-.057.12-.126.12c-.07 0-.127-.054-.127-.12m.694.855c0 .066-.056.12-.126.12s-.127-.054-.127-.12.057-.119.127-.119.126.054.126.12m-.44 0c0 .066-.058.12-.127.12-.07 0-.127-.054-.127-.12s.057-.119.127-.119.126.054.126.12m-.442-7.499c0 .066-.057.12-.127.12s-.126-.054-.126-.12c0-.065.057-.119.126-.119.07 0 .127.054.127.12m-.441 0c0 .066-.057.12-.127.12s-.126-.054-.126-.12c0-.065.056-.119.126-.119s.127.054.127.12m.22-.39c0 .066-.056.12-.126.12s-.127-.054-.127-.12.057-.12.127-.12.127.054.127.12m-.44 0c0 .066-.057.12-.127.12s-.127-.054-.127-.12.057-.12.127-.12.126.054.126.12m.882.806c0 .066-.057.119-.127.119s-.127-.053-.127-.12.057-.118.127-.118.127.053.127.119m-.441 0c0 .066-.057.119-.127.119s-.127-.053-.127-.12.057-.118.127-.118.127.053.127.119m.44.83c0 .066-.056.12-.126.12s-.127-.054-.127-.12.057-.119.127-.119.127.053.127.12m-.44 0c0 .066-.057.12-.127.12s-.127-.054-.127-.12.057-.119.127-.119.127.053.127.12m.22-.415c0 .066-.057.12-.127.12s-.126-.054-.126-.12.057-.12.126-.12c.07 0 .127.054.127.12m-.441 0c0 .066-.057.12-.127.12s-.126-.054-.126-.12.056-.12.126-.12.127.054.127.12m.662 1.246c0 .065-.057.119-.127.119s-.127-.054-.127-.12.057-.119.127-.119.127.054.127.12m-.441 0c0 .065-.057.119-.127.119s-.127-.054-.127-.12.057-.119.127-.119.127.054.127.12m.22-.416c0 .066-.057.12-.127.12s-.126-.054-.126-.12.057-.119.126-.119c.07 0 .127.054.127.12m-.441 0c0 .066-.057.12-.127.12s-.126-.054-.126-.12.056-.119.126-.119.127.054.127.12m.662 1.246c0 .066-.057.12-.127.12s-.127-.054-.127-.12.057-.12.127-.12.127.054.127.12m-.441 0c0 .066-.057.12-.127.12s-.127-.054-.127-.12.057-.12.127-.12.127.054.127.12m.22-.415c0 .066-.057.12-.127.12s-.126-.054-.126-.12.057-.12.126-.12c.07 0 .127.054.127.12m-.441 0c0 .066-.057.12-.127.12s-.126-.054-.126-.12.056-.12.126-.12.127.054.127.12m.408 1.246c0-.066.057-.12.127-.12s.127.054.127.12c0 .065-.057.119-.127.119s-.127-.054-.127-.12m-.44 0c0-.066.056-.12.126-.12s.127.054.127.12c0 .065-.057.119-.127.119s-.127-.054-.127-.12m.473-.416c0 .066-.057.12-.127.12s-.126-.054-.126-.12.057-.119.126-.119c.07 0 .127.053.127.12m-.441 0c0 .066-.057.12-.127.12s-.126-.054-.126-.12.056-.119.126-.119.127.053.127.12m.408 1.246c0-.066.057-.12.127-.12s.127.054.127.12-.057.12-.127.12-.127-.054-.127-.12m-.44 0c0-.066.056-.12.126-.12s.127.054.127.12-.057.12-.127.12-.127-.054-.127-.12m.22-.415c0-.066.056-.12.126-.12s.127.054.127.12-.057.119-.127.119-.126-.053-.126-.12m-.441 0c0-.066.056-.12.126-.12s.127.054.127.12-.057.119-.127.119-.126-.053-.126-.12m.661 1.245c0-.065.057-.119.127-.119s.127.054.127.12-.057.119-.127.119-.127-.054-.127-.12m-.44 0c0-.065.056-.119.126-.119s.127.054.127.12-.057.119-.127.119-.127-.054-.127-.12m.22-.415c0-.066.056-.119.126-.119s.127.053.127.12c0 .065-.057.118-.127.118s-.126-.053-.126-.119m-.441 0c0-.066.056-.119.126-.119s.127.053.127.12c0 .065-.057.118-.127.118s-.126-.053-.126-.119m.661 1.246c0-.066.057-.12.127-.12s.127.054.127.12-.057.12-.127.12-.127-.054-.127-.12m-.44 0c0-.066.056-.12.126-.12s.127.054.127.12-.057.12-.127.12-.127-.054-.127-.12m.22-.415c0-.066.056-.12.126-.12s.127.054.127.12-.057.119-.127.119-.126-.053-.126-.12m-.441 0c0-.066.056-.12.126-.12s.127.054.127.12-.057.119-.127.119-.126-.053-.126-.12m.915 1.245c0 .066-.057.12-.127.12s-.127-.054-.127-.12.057-.119.127-.119.127.054.127.12m-.441 0c0 .066-.057.12-.127.12s-.127-.054-.127-.12.057-.119.127-.119.127.054.127.12m-.033-.415c0-.066.056-.12.126-.12s.127.054.127.12-.057.12-.127.12-.126-.054-.126-.12m-.441 0c0-.066.056-.12.126-.12s.127.054.127.12-.057.12-.127.12-.126-.054-.126-.12m.694.855c0 .066-.057.12-.127.12s-.126-.054-.126-.12.057-.119.126-.119c.07 0 .127.054.127.12m-.441 0c0 .066-.057.12-.127.12s-.126-.054-.126-.12.056-.119.126-.119.127.054.127.12m-.441-7.499c0 .066-.057.12-.127.12s-.126-.054-.126-.12c0-.065.056-.119.126-.119s.127.054.127.12m-.441 0c0 .066-.057.12-.127.12s-.126-.054-.126-.12c0-.065.056-.119.126-.119s.127.054.127.12m.22-.39c0 .066-.056.12-.126.12s-.127-.054-.127-.12.057-.12.127-.12.126.054.126.12m-.44 0c0 .066-.057.12-.127.12s-.126-.054-.126-.12.057-.12.126-.12.126.054.126.12m.881.806c0 .066-.056.119-.126.119s-.127-.053-.127-.12.057-.118.127-.118.126.053.126.119m-.44 0c0 .066-.057.119-.127.119s-.127-.053-.127-.12.057-.118.127-.118.126.053.126.119m.44.83c0 .066-.056.12-.126.12s-.127-.054-.127-.12.057-.119.127-.119.126.053.126.12m-.44 0c0 .066-.057.12-.127.12s-.127-.054-.127-.12.057-.119.127-.119.126.053.126.12m.22-.415c0 .066-.057.12-.127.12s-.126-.054-.126-.12.056-.12.126-.12.127.054.127.12m-.441 0c0 .066-.057.12-.127.12s-.126-.054-.126-.12.056-.12.126-.12.127.054.127.12m.661 1.246c0 .065-.056.119-.126.119s-.127-.054-.127-.12.057-.119.127-.119.126.054.126.12m-.44 0c0 .065-.057.119-.127.119s-.127-.054-.127-.12.057-.119.127-.119.126.054.126.12m.22-.416c0 .066-.057.12-.127.12s-.126-.054-.126-.12.056-.119.126-.119.127.054.127.12m-.441 0c0 .066-.057.12-.127.12s-.126-.054-.126-.12.056-.119.126-.119.127.054.127.12m.661 1.246c0 .066-.056.12-.126.12s-.127-.054-.127-.12.057-.12.127-.12.126.054.126.12m-.44 0c0 .066-.057.12-.127.12s-.127-.054-.127-.12.057-.12.127-.12.126.054.126.12m.22-.415c0 .066-.057.12-.127.12s-.126-.054-.126-.12.056-.12.126-.12.127.054.127.12m-.441 0c0 .066-.057.12-.127.12s-.126-.054-.126-.12.056-.12.126-.12.127.054.127.12m.408 1.246c0-.066.057-.12.127-.12s.126.054.126.12c0 .065-.056.119-.126.119s-.127-.054-.127-.12m-.44 0c0-.066.056-.12.126-.12s.126.054.126.12c0 .065-.056.119-.126.119s-.127-.054-.127-.12m.473-.416c0 .066-.057.12-.127.12s-.126-.054-.126-.12.056-.119.126-.119.127.053.127.12m-.441 0c0 .066-.057.12-.127.12s-.126-.054-.126-.12.056-.119.126-.119.127.053.127.12m.408 1.246c0-.066.057-.12.127-.12s.126.054.126.12-.056.12-.126.12-.127-.054-.127-.12m-.44 0c0-.066.056-.12.126-.12s.126.054.126.12-.056.12-.126.12-.127-.054-.127-.12m.22-.415c0-.066.056-.12.126-.12s.127.054.127.12-.057.119-.127.119-.126-.053-.126-.12m-.441 0c0-.066.056-.12.126-.12s.127.054.127.12-.057.119-.127.119-.126-.053-.126-.12m.661 1.245c0-.065.057-.119.127-.119s.126.054.126.12-.056.119-.126.119-.127-.054-.127-.12m-.44 0c0-.065.056-.119.126-.119s.126.054.126.12-.056.119-.126.119-.127-.054-.127-.12m.22-.415c0-.066.056-.119.126-.119s.127.053.127.12c0 .065-.057.118-.127.118s-.126-.053-.126-.119m-.441 0c0-.066.056-.119.126-.119s.127.053.127.12c0 .065-.057.118-.127.118s-.126-.053-.126-.119m.661 1.246c0-.066.057-.12.127-.12s.126.054.126.12-.056.12-.126.12-.127-.054-.127-.12m-.44 0c0-.066.056-.12.126-.12s.126.054.126.12-.056.12-.126.12-.127-.054-.127-.12m.22-.415c0-.066.056-.12.126-.12s.127.054.127.12-.057.119-.127.119-.126-.053-.126-.12m-.441 0c0-.066.056-.12.126-.12s.127.054.127.12-.057.119-.127.119-.126-.053-.126-.12m.914 1.245c0 .066-.056.12-.126.12s-.127-.054-.127-.12.057-.119.127-.119.126.054.126.12m-.44 0c0 .066-.057.12-.127.12s-.127-.054-.127-.12.057-.119.127-.119.126.054.126.12m-.033-.415c0-.066.056-.12.126-.12s.127.054.127.12-.057.12-.127.12-.126-.054-.126-.12m-.441 0c0-.066.056-.12.126-.12s.127.054.127.12-.057.12-.127.12-.126-.054-.126-.12m.694.855c0 .066-.057.12-.127.12s-.126-.054-.126-.12.056-.119.126-.119.127.054.127.12m-.441 0c0 .066-.057.12-.127.12s-.126-.054-.126-.12.056-.119.126-.119.127.054.127.12m-.44-7.499c0 .066-.057.12-.127.12s-.127-.054-.127-.12c0-.065.057-.119.127-.119s.127.054.127.12m-.441 0c0 .066-.057.12-.127.12s-.127-.054-.127-.12c0-.065.057-.119.127-.119s.127.054.127.12m.22-.39c0 .066-.057.12-.126.12-.07 0-.127-.054-.127-.12s.057-.12.127-.12.126.054.126.12m-.44 0c0 .066-.058.12-.128.12s-.126-.054-.126-.12.056-.12.126-.12.127.054.127.12m.88.806c0 .066-.056.119-.126.119s-.126-.053-.126-.12.057-.118.126-.118.126.053.126.119m-.439 0c0 .066-.058.119-.127.119-.07 0-.127-.053-.127-.12s.057-.118.127-.118.126.053.126.119m.439.83c0 .066-.056.12-.125.12s-.127-.054-.127-.12.057-.119.127-.119.125.053.125.12m-.439 0c0 .066-.058.12-.127.12-.07 0-.127-.054-.127-.12s.057-.119.127-.119.126.053.126.12m.22-.415c0 .066-.057.12-.127.12s-.127-.054-.127-.12.057-.12.127-.12.127.054.127.12m-.441 0c0 .066-.057.12-.127.12s-.127-.054-.127-.12.057-.12.127-.12.127.054.127.12m.66 1.246c0 .065-.056.119-.125.119s-.127-.054-.127-.12.057-.119.127-.119.125.054.125.12m-.439 0c0 .065-.058.119-.127.119-.07 0-.127-.054-.127-.12s.057-.119.127-.119.126.054.126.12m.22-.416c0 .066-.057.12-.127.12s-.127-.054-.127-.12.057-.119.127-.119.127.054.127.12m-.441 0c0 .066-.057.12-.127.12s-.127-.054-.127-.12.057-.119.127-.119.127.054.127.12m.66 1.246c0 .066-.056.12-.125.12s-.127-.054-.127-.12.057-.12.127-.12.125.054.125.12m-.439 0c0 .066-.058.12-.127.12-.07 0-.127-.054-.127-.12s.057-.12.127-.12.126.054.126.12m.22-.415c0 .066-.057.12-.127.12s-.127-.054-.127-.12.057-.12.127-.12.127.054.127.12m-.441 0c0 .066-.057.12-.127.12s-.127-.054-.127-.12.057-.12.127-.12.127.054.127.12m.408 1.246c0-.066.057-.12.127-.12s.125.054.125.12c0 .065-.056.119-.125.119s-.127-.054-.127-.12m-.441 0c0-.066.057-.12.127-.12s.126.054.126.12c0 .065-.057.119-.126.119-.07 0-.127-.054-.127-.12m.474-.416c0 .066-.057.12-.127.12s-.127-.054-.127-.12.057-.119.127-.119.127.053.127.12m-.441 0c0 .066-.057.12-.127.12s-.127-.054-.127-.12.057-.119.127-.119.127.053.127.12m.408 1.246c0-.066.057-.12.127-.12s.125.054.125.12-.056.12-.125.12-.127-.054-.127-.12m-.441 0c0-.066.057-.12.127-.12s.126.054.126.12-.057.12-.126.12c-.07 0-.127-.054-.127-.12m.22-.415c0-.066.057-.12.127-.12s.127.054.127.12-.057.119-.127.119-.127-.053-.127-.12m-.44 0c0-.066.056-.12.126-.12s.127.054.127.12-.057.119-.127.119-.127-.053-.127-.12m.661 1.245c0-.065.057-.119.127-.119s.125.054.125.12-.056.119-.125.119-.127-.054-.127-.12m-.441 0c0-.065.057-.119.127-.119s.126.054.126.12-.057.119-.126.119c-.07 0-.127-.054-.127-.12m.22-.415c0-.066.057-.119.127-.119s.127.053.127.12c0 .065-.057.118-.127.118s-.127-.053-.127-.119m-.44 0c0-.066.056-.119.126-.119s.127.053.127.12c0 .065-.057.118-.127.118s-.127-.053-.127-.119m.661 1.246c0-.066.057-.12.127-.12s.125.054.125.12-.056.12-.125.12-.127-.054-.127-.12m-.441 0c0-.066.057-.12.127-.12s.126.054.126.12-.057.12-.126.12c-.07 0-.127-.054-.127-.12m.22-.415c0-.066.057-.12.127-.12s.127.054.127.12-.057.119-.127.119-.127-.053-.127-.12m-.44 0c0-.066.056-.12.126-.12s.127.054.127.12-.057.119-.127.119-.127-.053-.127-.12m.913 1.245c0 .066-.056.12-.125.12s-.127-.054-.127-.12.057-.119.127-.119.125.054.125.12m-.439 0c0 .066-.058.12-.127.12-.07 0-.127-.054-.127-.12s.057-.119.127-.119.126.054.126.12m-.034-.415c0-.066.057-.12.127-.12s.127.054.127.12-.057.12-.127.12-.127-.054-.127-.12m-.44 0c0-.066.056-.12.126-.12s.127.054.127.12-.057.12-.127.12-.127-.054-.127-.12m.694.855c0 .066-.057.12-.127.12s-.127-.054-.127-.12.057-.119.127-.119.127.054.127.12m-.441 0c0 .066-.057.12-.127.12s-.127-.054-.127-.12.057-.119.127-.119.127.054.127.12m-.441-7.499c0 .066-.057.12-.127.12s-.127-.054-.127-.12c0-.065.057-.119.127-.119s.127.054.127.12m-.442 0c0 .066-.056.12-.126.12s-.127-.054-.127-.12c0-.065.057-.119.127-.119s.126.054.126.12m.221-.39c0 .066-.057.12-.127.12s-.126-.054-.126-.12.056-.12.126-.12.127.054.127.12m-.441 0c0 .066-.057.12-.127.12s-.126-.054-.126-.12.056-.12.126-.12.127.054.127.12m.882.806c0 .066-.057.119-.127.119s-.126-.053-.126-.12.056-.118.126-.118.127.053.127.119m-.441 0c0 .066-.057.119-.127.119s-.126-.053-.126-.12.056-.118.126-.118.127.053.127.119m.441.83c0 .066-.057.12-.127.12s-.126-.054-.126-.12.056-.119.126-.119.127.053.127.12m-.441 0c0 .066-.057.12-.127.12s-.126-.054-.126-.12.056-.119.126-.119.127.053.127.12m.22-.415c0 .066-.056.12-.126.12s-.127-.054-.127-.12.057-.12.127-.12.127.054.127.12m-.44 0c0 .066-.057.12-.127.12s-.127-.054-.127-.12.057-.12.127-.12.126.054.126.12m.661 1.246c0 .065-.057.119-.127.119s-.126-.054-.126-.12.056-.119.126-.119.127.054.127.12m-.441 0c0 .065-.057.119-.127.119s-.126-.054-.126-.12.056-.119.126-.119.127.054.127.12m.22-.416c0 .066-.056.12-.126.12s-.127-.054-.127-.12.057-.119.127-.119.127.054.127.12m-.44 0c0 .066-.057.12-.127.12s-.127-.054-.127-.12.057-.119.127-.119.126.054.126.12m.661 1.246c0 .066-.057.12-.127.12s-.126-.054-.126-.12.056-.12.126-.12.127.054.127.12m-.441 0c0 .066-.057.12-.127.12s-.126-.054-.126-.12.056-.12.126-.12.127.054.127.12m.22-.415c0 .066-.056.12-.126.12s-.127-.054-.127-.12.057-.12.127-.12.127.054.127.12m-.44 0c0 .066-.057.12-.127.12s-.127-.054-.127-.12.057-.12.127-.12.126.054.126.12m.408 1.246c0-.066.056-.12.126-.12s.127.054.127.12c0 .065-.057.119-.127.119s-.126-.054-.126-.12m-.441 0c0-.066.056-.12.126-.12s.127.054.127.12c0 .065-.057.119-.127.119s-.126-.054-.126-.12m.474-.416c0 .066-.057.12-.127.12s-.127-.054-.127-.12.057-.119.127-.119.127.053.127.12m-.442 0c0 .066-.056.12-.126.12s-.127-.054-.127-.12.057-.119.127-.119.126.053.126.12m.409 1.246c0-.066.056-.12.126-.12s.127.054.127.12-.057.12-.127.12-.126-.054-.126-.12m-.441 0c0-.066.056-.12.126-.12s.127.054.127.12-.057.12-.127.12-.126-.054-.126-.12m.22-.415c0-.066.057-.12.127-.12s.127.054.127.12-.057.119-.127.119-.127-.053-.127-.12m-.44 0c0-.066.056-.12.126-.12s.126.054.126.12-.056.119-.126.119-.127-.053-.127-.12m.66 1.245c0-.065.057-.119.127-.119s.127.054.127.12-.057.119-.127.119-.126-.054-.126-.12m-.44 0c0-.065.056-.119.126-.119s.127.054.127.12-.057.119-.127.119-.126-.054-.126-.12m.22-.415c0-.066.057-.119.127-.119s.127.053.127.12c0 .065-.057.118-.127.118s-.127-.053-.127-.119m-.44 0c0-.066.056-.119.126-.119s.126.053.126.12c0 .065-.056.118-.126.118s-.127-.053-.127-.119m.66 1.246c0-.066.057-.12.127-.12s.127.054.127.12-.057.12-.127.12-.126-.054-.126-.12m-.44 0c0-.066.056-.12.126-.12s.127.054.127.12-.057.12-.127.12-.126-.054-.126-.12m.22-.415c0-.066.057-.12.127-.12s.127.054.127.12-.057.119-.127.119-.127-.053-.127-.12m-.44 0c0-.066.056-.12.126-.12s.126.054.126.12-.056.119-.126.119-.127-.053-.127-.12m.914 1.245c0 .066-.057.12-.127.12s-.126-.054-.126-.12.056-.119.126-.119.127.054.127.12m-.441 0c0 .066-.057.12-.127.12s-.126-.054-.126-.12.056-.119.126-.119.127.054.127.12m-.033-.415c0-.066.057-.12.127-.12s.127.054.127.12-.057.12-.127.12-.127-.054-.127-.12m-.44 0c0-.066.056-.12.126-.12s.126.054.126.12-.056.12-.126.12-.127-.054-.127-.12m.694.855c0 .066-.057.12-.127.12s-.127-.054-.127-.12.057-.119.127-.119.127.054.127.12m-.442 0c0 .066-.056.12-.126.12s-.127-.054-.127-.12.057-.119.127-.119.126.054.126.12m-.44-7.499c0 .066-.057.12-.127.12s-.127-.054-.127-.12c0-.065.057-.119.127-.119s.126.054.126.12m-.442 0c0 .066-.056.12-.126.12s-.127-.054-.127-.12c0-.065.057-.119.127-.119s.126.054.126.12m.22-.39c0 .066-.056.12-.126.12s-.126-.054-.126-.12.056-.12.126-.12.127.054.127.12m-.44 0c0 .066-.057.12-.127.12s-.127-.054-.127-.12.057-.12.127-.12.127.054.127.12m.22 1.22c0 .067-.056.12-.126.12s-.127-.053-.127-.12.057-.118.127-.118.126.053.126.119m.662-.414c0 .066-.057.119-.127.119s-.126-.053-.126-.12.056-.118.126-.118.127.053.127.119m-.441 0c0 .066-.057.119-.127.119s-.126-.053-.126-.12.056-.118.126-.118.127.053.127.119m-.441 0c0 .066-.057.119-.127.119s-.127-.053-.127-.12.057-.118.127-.118.127.053.127.119m.22 1.245c0 .066-.056.12-.126.12s-.127-.054-.127-.12.057-.119.127-.119.126.054.126.12m.662-.415c0 .066-.057.12-.127.12s-.126-.054-.126-.12.056-.119.126-.119.127.053.127.12m-.441 0c0 .066-.057.12-.127.12s-.126-.054-.126-.12.056-.119.126-.119.127.053.127.12m-.441 0c0 .066-.057.12-.127.12s-.127-.054-.127-.12.057-.119.127-.119.127.053.127.12m.661-.415c0 .066-.056.12-.126.12s-.127-.054-.127-.12.057-.12.127-.12.126.054.126.12m-.44 1.66c0 .067-.057.12-.127.12s-.127-.053-.127-.12c0-.065.057-.118.127-.118s.126.053.126.119m.66-.414c0 .065-.056.119-.126.119s-.126-.054-.126-.12.056-.119.126-.119.127.054.127.12m-.44 0c0 .065-.057.119-.127.119s-.126-.054-.126-.12.056-.119.126-.119.127.054.127.12m-.441 0c0 .065-.057.119-.127.119s-.127-.054-.127-.12.057-.119.127-.119.127.054.127.12m.661-.416c0 .066-.056.12-.126.12s-.127-.054-.127-.12.057-.119.127-.119.126.054.126.12m.22 1.246c0 .066-.056.12-.126.12s-.126-.054-.126-.12.056-.12.126-.12.127.054.127.12m-.44 0c0 .066-.057.12-.127.12s-.126-.054-.126-.12.056-.12.126-.12.127.054.127.12m.22-.415c0 .066-.056.12-.126.12s-.127-.054-.127-.12.057-.12.127-.12.126.054.126.12M10.1 17.79c0-.066.056-.12.126-.12s.127.054.127.12c0 .065-.057.119-.127.119s-.126-.054-.126-.12m-.441 0c0-.066.056-.12.126-.12s.127.054.127.12c0 .065-.057.119-.127.119s-.126-.054-.126-.12m.473-.416c0 .066-.056.12-.126.12s-.127-.054-.127-.12.057-.119.127-.119.126.053.126.12m-.44 0c0 .066-.057.12-.127.12s-.127-.054-.127-.12.057-.119.127-.119.126.053.126.12m.408 1.246c0-.066.056-.12.126-.12s.127.054.127.12-.057.12-.127.12-.126-.054-.126-.12m-.441 0c0-.066.056-.12.126-.12s.127.054.127.12-.057.12-.127.12-.126-.054-.126-.12m.22-.415c0-.066.057-.12.127-.12s.126.054.126.12-.056.119-.126.119-.127-.053-.127-.12m-.441 0c0-.066.057-.12.127-.12s.126.054.126.12-.056.119-.126.119-.127-.053-.127-.12m.662 1.245c0-.065.056-.119.126-.119s.127.054.127.12-.057.119-.127.119-.126-.054-.126-.12m-.441 0c0-.065.056-.119.126-.119s.127.054.127.12-.057.119-.127.119-.126-.054-.126-.12m.22-.415c0-.066.057-.119.127-.119s.126.053.126.12c0 .065-.056.118-.126.118s-.127-.053-.127-.119m-.441 0c0-.066.057-.119.127-.119s.126.053.126.12c0 .065-.056.118-.126.118s-.127-.053-.127-.119m0 1.661c0-.066.057-.12.127-.12s.126.054.126.12-.056.12-.126.12-.127-.054-.127-.12m.662-.415c0-.066.056-.12.126-.12s.127.054.127.12-.057.12-.127.12-.126-.054-.126-.12m-.441 0c0-.066.056-.12.126-.12s.127.054.127.12-.057.12-.127.12-.126-.054-.126-.12m.22-.415c0-.066.057-.12.127-.12s.126.054.126.12-.056.119-.126.119-.127-.053-.127-.12m-.441 0c0-.066.057-.12.127-.12s.126.054.126.12-.056.119-.126.119-.127-.053-.127-.12m.915 1.245c0 .066-.057.12-.127.12s-.126-.054-.126-.12.056-.119.126-.119.127.054.127.12m-.441 0c0 .066-.057.12-.127.12s-.126-.054-.126-.12.056-.119.126-.119.127.054.127.12m-.033-.415c0-.066.057-.12.127-.12s.126.054.126.12-.056.12-.126.12-.127-.054-.127-.12m.253.855c0 .066-.056.12-.126.12s-.127-.054-.127-.12.057-.119.127-.119.126.054.126.12m-.44 0c0 .066-.057.12-.127.12s-.127-.054-.127-.12.057-.119.127-.119.126.054.126.12m-.442-7.499c0 .066-.057.12-.126.12s-.127-.054-.127-.12c0-.065.057-.119.127-.119s.126.054.126.12m0 .83c0 .067-.057.12-.126.12s-.127-.053-.127-.12.057-.118.127-.118.126.053.126.119m0 .831c0 .066-.057.12-.126.12s-.127-.054-.127-.12.057-.119.127-.119.126.054.126.12m0 .83c0 .067-.057.12-.126.12s-.127-.053-.127-.12c0-.065.057-.118.127-.118s.126.053.126.119m0 .831c0 .066-.057.12-.126.12s-.127-.054-.127-.12.057-.119.127-.119.126.053.126.12m.22-.415c0 .066-.056.12-.126.12s-.127-.054-.127-.12.057-.12.127-.12.127.054.127.12m-.473 1.246c0-.066.057-.12.127-.12s.126.054.126.12-.057.119-.126.119-.127-.053-.127-.12m.22-.415c0-.066.057-.12.127-.12s.127.054.127.12c0 .065-.057.119-.127.119s-.127-.054-.127-.12m-.22 1.245c0-.066.057-.119.127-.119s.126.053.126.12c0 .065-.057.118-.126.118s-.127-.053-.127-.119m.22-.415c0-.066.057-.12.127-.12s.127.054.127.12-.057.12-.127.12-.127-.054-.127-.12m-.22 1.246c0-.066.057-.12.127-.12s.126.054.126.12-.057.119-.126.119-.127-.053-.127-.12m.22-.416c0-.065.057-.119.127-.119s.127.054.127.12-.057.119-.127.119-.127-.054-.127-.12m-.22 1.246c0-.066.057-.12.127-.12s.126.054.126.12-.057.12-.126.12-.127-.054-.127-.12m.22-.415c0-.066.057-.12.127-.12s.127.054.127.12-.057.12-.127.12-.127-.054-.127-.12m.033 1.27c0 .066-.057.12-.126.12s-.127-.054-.127-.12.057-.119.127-.119.126.054.126.12m.22-.44c0 .066-.056.12-.126.12s-.127-.054-.127-.12.057-.119.127-.119.127.054.127.12"/></svg>