<svg xmlns="http://www.w3.org/2000/svg" fill="#44739e" width="24" height="24" viewBox="0 0 24 24">
  <path id="Colore_riempimento_1" data-name="Colore riempimento 1" class="cls-1" d="m 12,11.1 a 2.5,2.5 0 1 0 2.5,2.5 2.5,2.5 0 0 0 -2.5,-2.5 z m 0,4 A 1.5,1.5 0 1 1 13.5,13.6 1.5,1.5 0 0 1 12,15.1 Z M 12,9.482 A 4.144,4.144 0 1 0 16.144,13.626 4.149,4.149 0 0 0 12,9.482 Z m 0,7.288 A 3.144,3.144 0 1 1 15.144,13.626 3.148,3.148 0 0 1 12,16.77 Z M 12,9 A 2.385,2.385 0 1 0 9.616,6.614 2.387,2.387 0 0 0 12,9 Z M 12,5.231 A 1.385,1.385 0 1 1 10.616,6.616 1.387,1.387 0 0 1 12,5.229 Z M 19.176,2 H 4.824 A 2.824,2.824 0 0 0 2,4.824 V 19.176 A 2.824,2.824 0 0 0 4.824,22 H 19.176 A 2.824,2.824 0 0 0 22,19.176 V 4.824 A 2.824,2.824 0 0 0 19.176,2 Z M 16.527,18.615 A 1.682,1.682 0 0 1 14.845,20.3 H 9.155 A 1.682,1.682 0 0 1 7.473,18.618 V 5.385 A 1.682,1.682 0 0 1 9.155,3.7 h 5.69 a 1.682,1.682 0 0 1 1.682,1.682 z"/>
</svg>
