<svg xmlns="http://www.w3.org/2000/svg" viewBox="0 0 512 512">
  <path fill="#44739e" fill-rule="evenodd" d="M 258.00 34.00 L 258.00 34.00 A 41.00 41.00 0 0 1 299.00 75.00 L 299.00 439.00 A 41.00 41.00 0 0 1 258.00 480.00 L 258.00 480.00 A 41.00 41.00 0 0 1 217.00 439.00 L 217.00 75.00 A 41.00 41.00 0 0 1 258.00 34.00 Z M 239.00 410.00 A 18.00 18.00 0 1 0 275.00 410.00 A 18.00 18.00 0 1 0 239.00 410.00 Z M 80.50 397.00 L 243.50 397.00 A 13.50 13.50 0 0 1 257.00 410.50 L 257.00 410.50 A 13.50 13.50 0 0 1 243.50 424.00 L 80.50 424.00 A 13.50 13.50 0 0 1 67.00 410.50 L 67.00 410.50 A 13.50 13.50 0 0 1 80.50 397.00 Z M 258.00 47.00 L 258.00 47.00 A 31.00 31.00 0 0 1 289.00 78.00 L 289.00 251.00 A 31.00 31.00 0 0 1 258.00 282.00 L 258.00 282.00 A 31.00 31.00 0 0 1 227.00 251.00 L 227.00 78.00 A 31.00 31.00 0 0 1 258.00 47.00 Z M 258.00 52.00 L 258.00 52.00 A 26.00 26.00 0 0 1 284.00 78.00 L 284.00 251.00 A 26.00 26.00 0 0 1 258.00 277.00 L 258.00 277.00 A 26.00 26.00 0 0 1 232.00 251.00 L 232.00 78.00 A 26.00 26.00 0 0 1 258.00 52.00 Z M 246.50 78.00 A 11.50 11.50 0 1 0 269.50 78.00 A 11.50 11.50 0 1 0 246.50 78.00 Z M 249.66 75.32 L 250.57 75.32 L 252.32 77.91 L 254.06 75.32 L 254.98 75.32 L 252.75 78.62 L 252.75 81.63 L 251.89 81.63 L 251.89 78.62 L 249.66 75.32 Z M 256.74 79.25 Q 255.80 79.25 255.43 79.46 Q 255.07 79.68 255.07 80.20 Q 255.07 80.61 255.34 80.86 Q 255.61 81.10 256.08 81.10 Q 256.73 81.10 257.12 80.64 Q 257.51 80.18 257.51 79.42 L 257.51 79.25 L 256.74 79.25 Z M 258.29 78.93 L 258.29 81.63 L 257.51 81.63 L 257.51 80.91 Q 257.24 81.34 256.85 81.54 Q 256.45 81.75 255.87 81.75 Q 255.15 81.75 254.72 81.34 Q 254.29 80.93 254.29 80.25 Q 254.29 79.45 254.82 79.05 Q 255.36 78.64 256.42 78.64 L 257.51 78.64 L 257.51 78.56 Q 257.51 78.03 257.16 77.73 Q 256.81 77.44 256.17 77.44 Q 255.76 77.44 255.38 77.54 Q 254.99 77.63 254.64 77.83 L 254.64 77.11 Q 255.06 76.94 255.47 76.86 Q 255.87 76.78 256.25 76.78 Q 257.27 76.78 257.78 77.31 Q 258.29 77.84 258.29 78.93 Z M 259.89 75.05 L 260.67 75.05 L 260.67 81.63 L 259.89 81.63 L 259.89 75.05 Z M 266.34 79.07 L 266.34 79.45 L 262.77 79.45 Q 262.82 80.25 263.25 80.67 Q 263.69 81.09 264.46 81.09 Q 264.91 81.09 265.33 80.98 Q 265.75 80.87 266.16 80.65 L 266.16 81.39 Q 265.74 81.56 265.30 81.66 Q 264.86 81.75 264.41 81.75 Q 263.28 81.75 262.62 81.09 Q 261.96 80.43 261.96 79.31 Q 261.96 78.14 262.58 77.46 Q 263.21 76.78 264.28 76.78 Q 265.23 76.78 265.79 77.40 Q 266.34 78.01 266.34 79.07 Z M 265.57 78.84 Q 265.56 78.20 265.21 77.82 Q 264.86 77.44 264.29 77.44 Q 263.64 77.44 263.24 77.81 Q 262.85 78.17 262.79 78.84 L 265.57 78.84 Z M 247.90 108.50 A 10.10 10.10 0 0 1 268.10 108.50 L 266.00 108.50 A 8.00 8.00 0 0 0 250.00 108.50 Z M 250.90 111.00 A 7.10 7.10 0 0 1 265.10 111.00 L 263.30 111.00 A 5.30 5.30 0 0 0 252.70 111.00 Z M 254.00 113.40 A 4.00 4.00 0 0 1 262.00 113.40 L 260.70 113.40 A 2.70 2.70 0 0 0 255.30 113.40 Z M 256.55 119.10 A 1.45 1.45 0 1 0 259.45 119.10 A 1.45 1.45 0 1 0 256.55 119.10 Z M 232.80 157.00 A 7.20 7.20 0 1 0 247.20 157.00 A 7.20 7.20 0 1 0 232.80 157.00 Z M 250.80 157.00 A 7.20 7.20 0 1 0 265.20 157.00 A 7.20 7.20 0 1 0 250.80 157.00 Z M 268.80 157.00 A 7.20 7.20 0 1 0 283.20 157.00 A 7.20 7.20 0 1 0 268.80 157.00 Z M 232.80 180.00 A 7.20 7.20 0 1 0 247.20 180.00 A 7.20 7.20 0 1 0 232.80 180.00 Z M 250.80 180.00 A 7.20 7.20 0 1 0 265.20 180.00 A 7.20 7.20 0 1 0 250.80 180.00 Z M 268.80 180.00 A 7.20 7.20 0 1 0 283.20 180.00 A 7.20 7.20 0 1 0 268.80 180.00 Z M 232.80 203.00 A 7.20 7.20 0 1 0 247.20 203.00 A 7.20 7.20 0 1 0 232.80 203.00 Z M 250.80 203.00 A 7.20 7.20 0 1 0 265.20 203.00 A 7.20 7.20 0 1 0 250.80 203.00 Z M 268.80 203.00 A 7.20 7.20 0 1 0 283.20 203.00 A 7.20 7.20 0 1 0 268.80 203.00 Z M 232.80 226.00 A 7.20 7.20 0 1 0 247.20 226.00 A 7.20 7.20 0 1 0 232.80 226.00 Z M 250.80 226.00 A 7.20 7.20 0 1 0 265.20 226.00 A 7.20 7.20 0 1 0 250.80 226.00 Z M 268.80 226.00 A 7.20 7.20 0 1 0 283.20 226.00 A 7.20 7.20 0 1 0 268.80 226.00 Z M 237.86 160.12 L 239.56 160.12 L 239.56 154.25 L 237.71 154.62 L 237.71 153.67 L 239.55 153.30 L 240.59 153.30 L 240.59 160.12 L 242.29 160.12 L 242.29 161.00 L 237.86 161.00 L 237.86 160.12 Z M 256.83 160.14 L 260.40 160.14 L 260.40 161.00 L 255.60 161.00 L 255.60 160.14 Q 256.18 159.54 257.19 158.52 Q 258.19 157.51 258.45 157.21 Q 258.94 156.66 259.14 156.28 Q 259.33 155.89 259.33 155.52 Q 259.33 154.92 258.91 154.54 Q 258.49 154.16 257.81 154.16 Q 257.33 154.16 256.79 154.33 Q 256.26 154.49 255.65 154.84 L 255.65 153.80 Q 256.27 153.55 256.80 153.43 Q 257.34 153.30 257.79 153.30 Q 258.96 153.30 259.66 153.89 Q 260.36 154.48 260.36 155.46 Q 260.36 155.92 260.19 156.34 Q 260.01 156.76 259.55 157.33 Q 259.42 157.47 258.74 158.18 Q 258.07 158.88 256.83 160.14 Z M 276.91 156.85 Q 277.63 157.01 278.04 157.50 Q 278.44 157.98 278.44 158.70 Q 278.44 159.80 277.69 160.40 Q 276.93 161.00 275.54 161.00 Q 275.07 161.00 274.58 160.91 Q 274.08 160.82 273.56 160.63 L 273.56 159.66 Q 273.97 159.91 274.47 160.03 Q 274.97 160.15 275.51 160.15 Q 276.45 160.15 276.95 159.78 Q 277.44 159.41 277.44 158.70 Q 277.44 158.04 276.98 157.67 Q 276.52 157.30 275.70 157.30 L 274.84 157.30 L 274.84 156.48 L 275.74 156.48 Q 276.48 156.48 276.88 156.18 Q 277.27 155.88 277.27 155.33 Q 277.27 154.76 276.86 154.45 Q 276.46 154.14 275.70 154.14 Q 275.29 154.14 274.82 154.24 Q 274.35 154.32 273.78 154.51 L 273.78 153.62 Q 274.35 153.46 274.85 153.38 Q 275.35 153.30 275.79 153.30 Q 276.94 153.30 277.60 153.82 Q 278.27 154.34 278.27 155.22 Q 278.27 155.84 277.92 156.26 Q 277.56 156.69 276.91 156.85 Z M 240.67 177.21 L 238.04 181.32 L 240.67 181.32 L 240.67 177.21 Z M 240.40 176.30 L 241.71 176.30 L 241.71 181.32 L 242.81 181.32 L 242.81 182.18 L 241.71 182.18 L 241.71 184.00 L 240.67 184.00 L 240.67 182.18 L 237.19 182.18 L 237.19 181.18 L 240.40 176.30 Z M 255.88 176.30 L 259.89 176.30 L 259.89 177.16 L 256.81 177.16 L 256.81 179.01 Q 257.03 178.94 257.25 178.90 Q 257.48 178.86 257.70 178.86 Q 258.97 178.86 259.70 179.55 Q 260.44 180.25 260.44 181.43 Q 260.44 182.65 259.68 183.33 Q 258.93 184.00 257.54 184.00 Q 257.07 184.00 256.57 183.92 Q 256.08 183.84 255.56 183.68 L 255.56 182.65 Q 256.01 182.90 256.50 183.02 Q 256.98 183.14 257.52 183.14 Q 258.40 183.14 258.91 182.68 Q 259.42 182.22 259.42 181.43 Q 259.42 180.64 258.91 180.18 Q 258.40 179.72 257.52 179.72 Q 257.11 179.72 256.71 179.81 Q 256.30 179.90 255.88 180.09 L 255.88 176.30 Z M 276.09 179.75 Q 275.41 179.75 275.02 180.21 Q 274.62 180.67 274.62 181.47 Q 274.62 182.27 275.02 182.74 Q 275.41 183.20 276.09 183.20 Q 276.76 183.20 277.16 182.74 Q 277.55 182.27 277.55 181.47 Q 277.55 180.67 277.16 180.21 Q 276.76 179.75 276.09 179.75 Z M 278.08 176.60 L 278.08 177.51 Q 277.70 177.33 277.32 177.24 Q 276.93 177.14 276.55 177.14 Q 275.56 177.14 275.03 177.82 Q 274.51 178.49 274.44 179.84 Q 274.73 179.41 275.17 179.18 Q 275.62 178.95 276.15 178.95 Q 277.26 178.95 277.91 179.63 Q 278.56 180.31 278.56 181.47 Q 278.56 182.62 277.89 183.31 Q 277.21 184.00 276.09 184.00 Q 274.80 184.00 274.12 183.01 Q 273.44 182.03 273.44 180.15 Q 273.44 178.39 274.27 177.35 Q 275.11 176.30 276.51 176.30 Q 276.89 176.30 277.28 176.37 Q 277.66 176.45 278.08 176.60 Z M 237.52 199.30 L 242.48 199.30 L 242.48 199.74 L 239.68 207.00 L 238.59 207.00 L 241.22 200.18 L 237.52 200.18 L 237.52 199.30 Z M 258.00 203.33 Q 257.28 203.33 256.87 203.71 Q 256.47 204.10 256.47 204.77 Q 256.47 205.44 256.87 205.82 Q 257.28 206.20 258.00 206.20 Q 258.72 206.20 259.13 205.82 Q 259.54 205.43 259.54 204.77 Q 259.54 204.10 259.13 203.71 Q 258.72 203.33 258.00 203.33 Z M 257.00 202.90 Q 256.35 202.75 255.99 202.30 Q 255.63 201.86 255.63 201.22 Q 255.63 200.33 256.26 199.82 Q 256.90 199.30 258.00 199.30 Q 259.11 199.30 259.74 199.82 Q 260.37 200.33 260.37 201.22 Q 260.37 201.86 260.01 202.30 Q 259.65 202.75 259.01 202.90 Q 259.74 203.07 260.14 203.57 Q 260.54 204.06 260.54 204.77 Q 260.54 205.85 259.89 206.42 Q 259.23 207.00 258.00 207.00 Q 256.77 207.00 256.11 206.42 Q 255.46 205.85 255.46 204.77 Q 255.46 204.06 255.86 203.57 Q 256.27 203.07 257.00 202.90 Z M 256.63 201.32 Q 256.63 201.89 256.99 202.22 Q 257.35 202.54 258.00 202.54 Q 258.65 202.54 259.01 202.22 Q 259.38 201.89 259.38 201.32 Q 259.38 200.74 259.01 200.42 Q 258.65 200.10 258.00 200.10 Q 257.35 200.10 256.99 200.42 Q 256.63 200.74 256.63 201.32 Z M 273.92 206.70 L 273.92 205.79 Q 274.30 205.97 274.68 206.06 Q 275.07 206.15 275.44 206.15 Q 276.44 206.15 276.96 205.49 Q 277.49 204.82 277.56 203.45 Q 277.27 203.88 276.83 204.11 Q 276.39 204.34 275.85 204.34 Q 274.74 204.34 274.09 203.67 Q 273.44 202.99 273.44 201.82 Q 273.44 200.68 274.12 199.99 Q 274.79 199.30 275.91 199.30 Q 277.20 199.30 277.88 200.29 Q 278.56 201.27 278.56 203.15 Q 278.56 204.91 277.73 205.95 Q 276.89 207.00 275.49 207.00 Q 275.11 207.00 274.72 206.93 Q 274.34 206.85 273.92 206.70 Z M 275.91 203.55 Q 276.59 203.55 276.99 203.09 Q 277.38 202.63 277.38 201.82 Q 277.38 201.02 276.99 200.56 Q 276.59 200.10 275.91 200.10 Q 275.24 200.10 274.84 200.56 Q 274.45 201.02 274.45 201.82 Q 274.45 202.63 274.84 203.09 Q 275.24 203.55 275.91 203.55 Z M 243.86 224.64 L 240.79 226.30 L 243.86 227.97 L 243.37 228.81 L 240.49 227.07 L 240.49 230.30 L 239.51 230.30 L 239.51 227.07 L 236.63 228.81 L 236.14 227.97 L 239.21 226.30 L 236.14 224.64 L 236.63 223.79 L 239.51 225.53 L 239.51 222.30 L 240.49 222.30 L 240.49 225.53 L 243.37 223.79 L 243.86 224.64 Z M 258.00 223.10 Q 257.22 223.10 256.83 223.86 Q 256.44 224.62 256.44 226.15 Q 256.44 227.68 256.83 228.44 Q 257.22 229.20 258.00 229.20 Q 258.78 229.20 259.17 228.44 Q 259.56 227.68 259.56 226.15 Q 259.56 224.62 259.17 223.86 Q 258.78 223.10 258.00 223.10 Z M 258.00 222.30 Q 259.25 222.30 259.91 223.29 Q 260.56 224.27 260.56 226.15 Q 260.56 228.03 259.91 229.01 Q 259.25 230.00 258.00 230.00 Q 256.75 230.00 256.09 229.01 Q 255.44 228.03 255.44 226.15 Q 255.44 224.27 256.09 223.29 Q 256.75 222.30 258.00 222.30 Z M 277.00 225.22 L 275.46 225.22 L 275.01 226.99 L 276.57 226.99 L 277.00 225.22 Z M 276.20 222.20 L 275.65 224.40 L 277.20 224.40 L 277.76 222.20 L 278.61 222.20 L 278.06 224.40 L 279.72 224.40 L 279.72 225.22 L 277.85 225.22 L 277.42 226.99 L 279.11 226.99 L 279.11 227.80 L 277.21 227.80 L 276.66 230.00 L 275.81 230.00 L 276.36 227.80 L 274.80 227.80 L 274.26 230.00 L 273.40 230.00 L 273.95 227.80 L 272.28 227.80 L 272.28 226.99 L 274.15 226.99 L 274.60 225.22 L 272.89 225.22 L 272.89 224.40 L 274.80 224.40 L 275.34 222.20 L 276.20 222.20 Z M 253.26 448.50 L 251.39 443.59 L 252.08 443.59 L 253.64 447.72 L 255.20 443.59 L 255.89 443.59 L 254.02 448.50 L 253.26 448.50 Z M 257.24 447.94 L 259.56 447.94 L 259.56 448.50 L 256.44 448.50 L 256.44 447.94 Q 256.82 447.55 257.47 446.89 Q 258.12 446.23 258.29 446.04 Q 258.61 445.68 258.74 445.43 Q 258.86 445.18 258.86 444.94 Q 258.86 444.55 258.59 444.31 Q 258.31 444.06 257.87 444.06 Q 257.56 444.06 257.21 444.17 Q 256.87 444.28 256.47 444.50 L 256.47 443.83 Q 256.87 443.66 257.22 443.58 Q 257.57 443.50 257.86 443.50 Q 258.62 443.50 259.08 443.88 Q 259.53 444.26 259.53 444.90 Q 259.53 445.20 259.42 445.48 Q 259.30 445.75 259.00 446.11 Q 258.92 446.21 258.48 446.67 Q 258.04 447.12 257.24 447.94 Z M 260.89 443.59 L 261.79 443.59 L 263.97 447.70 L 263.97 443.59 L 264.61 443.59 L 264.61 448.50 L 263.72 448.50 L 261.54 444.39 L 261.54 448.50 L 260.89 448.50 L 260.89 443.59 Z"/>
</svg>