<svg xmlns="http://www.w3.org/2000/svg" viewBox="0 0 512 512">
  <path fill="#44739e" fill-rule="evenodd" d="M 129.00 18.00 L 129.00 18.00 A 73.00 73.00 0 0 1 202.00 91.00 L 202.00 421.00 A 73.00 73.00 0 0 1 129.00 494.00 L 129.00 494.00 A 73.00 73.00 0 0 1 56.00 421.00 L 56.00 91.00 A 73.00 73.00 0 0 1 129.00 18.00 Z M 129.00 25.00 L 129.00 25.00 A 66.00 66.00 0 0 1 195.00 91.00 L 195.00 421.00 A 66.00 66.00 0 0 1 129.00 487.00 L 129.00 487.00 A 66.00 66.00 0 0 1 63.00 421.00 L 63.00 91.00 A 66.00 66.00 0 0 1 129.00 25.00 Z M 129.00 29.00 L 129.00 29.00 A 62.00 62.00 0 0 1 191.00 91.00 L 191.00 421.00 A 62.00 62.00 0 0 1 129.00 483.00 L 129.00 483.00 A 62.00 62.00 0 0 1 67.00 421.00 L 67.00 91.00 A 62.00 62.00 0 0 1 129.00 29.00 Z M 103.00 385.00 A 29.00 29.00 0 1 0 161.00 385.00 A 29.00 29.00 0 1 0 103.00 385.00 Z M 156.50 361.00 L 463.50 361.00 A 24.50 24.50 0 0 1 488.00 385.50 L 488.00 385.50 A 24.50 24.50 0 0 1 463.50 410.00 L 156.50 410.00 A 24.50 24.50 0 0 1 132.00 385.50 L 132.00 385.50 A 24.50 24.50 0 0 1 156.50 361.00 Z M 67 302 L 95 302 Q 101 302 104.5 296.5 Q 112.5 284.0 126.0 284.0 L 127.0 284.0 Q 140.5 284.0 148.5 296.5 Q 152.0 302 158 302 L 191 302 L 191 512 L 67 512 Z M 67 306 L 95 306 Q 103 306 107.5 299.5 Q 114.0 290.0 126.0 290.0 L 127.0 290.0 Q 139.0 290.0 145.5 299.5 Q 150.0 306 158 306 L 191 306 L 191 512 L 67 512 Z M 109.00 319.00 A 17.50 17.50 0 1 0 144.00 319.00 A 17.50 17.50 0 1 0 109.00 319.00 Z M 121.1 323.0 L 131.9 323.0 Q 132.7 323.0 133.0 322.2 Q 133.5 320.1 131.9 318.4 Q 130.2 316.7 130.2 314.0 Q 130.2 310.6 126.5 310.6 Q 122.8 310.6 122.8 314.0 Q 122.8 316.7 121.1 318.4 Q 119.5 320.1 120.0 322.2 Q 120.3 323.0 121.1 323.0 Z M 124.0 324.8 Q 124.9 326.4 126.5 326.4 Q 128.1 326.4 129.0 324.8 Z M 110.00 452.00 A 17.00 17.00 0 1 0 144.00 452.00 A 17.00 17.00 0 1 0 110.00 452.00 Z M 121.4 447.6 L 124.5 451.8 L 124.5 456.0 L 127.1 456.0 L 127.1 451.8 L 130.2 447.6 L 127.7 447.6 L 125.8 450.2 L 123.9 447.6 Z M 114.00 75.00 A 15.00 15.00 0 0 1 144.00 75.00 L 141.50 75.00 A 12.50 12.50 0 0 0 116.50 75.00 Z M 118.20 78.00 A 10.80 10.80 0 0 1 139.80 78.00 L 137.50 78.00 A 8.50 8.50 0 0 0 120.50 78.00 Z M 122.40 81.00 A 6.60 6.60 0 0 1 135.60 81.00 L 133.50 81.00 A 4.50 4.50 0 0 0 124.50 81.00 Z M 126.80 88.80 A 2.20 2.20 0 1 0 131.20 88.80 A 2.20 2.20 0 1 0 126.80 88.80 Z M 81.50 137.00 A 10.50 10.50 0 1 0 102.50 137.00 A 10.50 10.50 0 1 0 81.50 137.00 Z M 118.50 137.00 A 10.50 10.50 0 1 0 139.50 137.00 A 10.50 10.50 0 1 0 118.50 137.00 Z M 155.50 137.00 A 10.50 10.50 0 1 0 176.50 137.00 A 10.50 10.50 0 1 0 155.50 137.00 Z M 81.50 174.00 A 10.50 10.50 0 1 0 102.50 174.00 A 10.50 10.50 0 1 0 81.50 174.00 Z M 118.50 174.00 A 10.50 10.50 0 1 0 139.50 174.00 A 10.50 10.50 0 1 0 118.50 174.00 Z M 155.50 174.00 A 10.50 10.50 0 1 0 176.50 174.00 A 10.50 10.50 0 1 0 155.50 174.00 Z M 81.50 211.00 A 10.50 10.50 0 1 0 102.50 211.00 A 10.50 10.50 0 1 0 81.50 211.00 Z M 118.50 211.00 A 10.50 10.50 0 1 0 139.50 211.00 A 10.50 10.50 0 1 0 118.50 211.00 Z M 155.50 211.00 A 10.50 10.50 0 1 0 176.50 211.00 A 10.50 10.50 0 1 0 155.50 211.00 Z M 81.50 248.00 A 10.50 10.50 0 1 0 102.50 248.00 A 10.50 10.50 0 1 0 81.50 248.00 Z M 118.50 248.00 A 10.50 10.50 0 1 0 139.50 248.00 A 10.50 10.50 0 1 0 118.50 248.00 Z M 155.50 248.00 A 10.50 10.50 0 1 0 176.50 248.00 A 10.50 10.50 0 1 0 155.50 248.00 Z M 88.66 141.93 L 91.31 141.93 L 91.31 132.78 L 88.43 133.36 L 88.43 131.88 L 91.30 131.30 L 92.92 131.30 L 92.92 141.93 L 95.57 141.93 L 95.57 143.30 L 88.66 143.30 L 88.66 141.93 Z M 127.18 141.96 L 132.74 141.96 L 132.74 143.30 L 125.26 143.30 L 125.26 141.96 Q 126.17 141.02 127.73 139.44 Q 129.30 137.85 129.70 137.39 Q 130.47 136.53 130.77 135.94 Q 131.08 135.34 131.08 134.77 Q 131.08 133.83 130.42 133.24 Q 129.76 132.64 128.70 132.64 Q 127.95 132.64 127.12 132.90 Q 126.28 133.16 125.34 133.69 L 125.34 132.08 Q 126.30 131.69 127.14 131.50 Q 127.97 131.30 128.67 131.30 Q 130.50 131.30 131.59 132.22 Q 132.68 133.13 132.68 134.66 Q 132.68 135.39 132.41 136.04 Q 132.14 136.69 131.42 137.58 Q 131.22 137.81 130.16 138.90 Q 129.10 139.99 127.18 141.96 Z M 167.42 136.84 Q 168.54 137.08 169.17 137.84 Q 169.81 138.60 169.81 139.71 Q 169.81 141.42 168.63 142.36 Q 167.45 143.30 165.28 143.30 Q 164.56 143.30 163.79 143.16 Q 163.01 143.01 162.19 142.72 L 162.19 141.22 Q 162.84 141.59 163.62 141.79 Q 164.39 141.98 165.24 141.98 Q 166.71 141.98 167.48 141.40 Q 168.25 140.82 168.25 139.71 Q 168.25 138.69 167.53 138.11 Q 166.82 137.54 165.54 137.54 L 164.19 137.54 L 164.19 136.25 L 165.60 136.25 Q 166.75 136.25 167.37 135.79 Q 167.98 135.33 167.98 134.46 Q 167.98 133.57 167.35 133.09 Q 166.72 132.62 165.54 132.62 Q 164.90 132.62 164.16 132.76 Q 163.42 132.90 162.54 133.19 L 162.54 131.80 Q 163.43 131.55 164.21 131.42 Q 164.99 131.30 165.68 131.30 Q 167.46 131.30 168.50 132.11 Q 169.54 132.92 169.54 134.30 Q 169.54 135.26 168.99 135.92 Q 168.44 136.58 167.42 136.84 Z M 93.04 169.71 L 88.94 176.12 L 93.04 176.12 L 93.04 169.71 Z M 92.62 168.30 L 94.66 168.30 L 94.66 176.12 L 96.37 176.12 L 96.37 177.47 L 94.66 177.47 L 94.66 180.30 L 93.04 180.30 L 93.04 177.47 L 87.63 177.47 L 87.63 175.90 L 92.62 168.30 Z M 125.69 168.30 L 131.94 168.30 L 131.94 169.64 L 127.15 169.64 L 127.15 172.53 Q 127.49 172.41 127.84 172.35 Q 128.19 172.29 128.53 172.29 Q 130.50 172.29 131.66 173.37 Q 132.81 174.45 132.81 176.29 Q 132.81 178.19 131.62 179.25 Q 130.44 180.30 128.29 180.30 Q 127.55 180.30 126.78 180.17 Q 126.01 180.05 125.19 179.80 L 125.19 178.19 Q 125.90 178.58 126.66 178.77 Q 127.41 178.96 128.26 178.96 Q 129.62 178.96 130.42 178.24 Q 131.21 177.53 131.21 176.29 Q 131.21 175.07 130.42 174.35 Q 129.62 173.63 128.26 173.63 Q 127.62 173.63 126.98 173.77 Q 126.35 173.91 125.69 174.21 L 125.69 168.30 Z M 166.14 173.67 Q 165.08 173.67 164.47 174.39 Q 163.85 175.11 163.85 176.36 Q 163.85 177.61 164.47 178.34 Q 165.08 179.06 166.14 179.06 Q 167.19 179.06 167.80 178.34 Q 168.42 177.61 168.42 176.36 Q 168.42 175.11 167.80 174.39 Q 167.19 173.67 166.14 173.67 Z M 169.24 168.76 L 169.24 170.19 Q 168.65 169.91 168.05 169.76 Q 167.45 169.62 166.86 169.62 Q 165.31 169.62 164.50 170.66 Q 163.68 171.71 163.56 173.82 Q 164.02 173.15 164.71 172.79 Q 165.40 172.43 166.23 172.43 Q 167.97 172.43 168.98 173.49 Q 169.99 174.54 169.99 176.36 Q 169.99 178.15 168.94 179.22 Q 167.89 180.30 166.14 180.30 Q 164.13 180.30 163.07 178.76 Q 162.01 177.22 162.01 174.30 Q 162.01 171.56 163.31 169.93 Q 164.61 168.30 166.80 168.30 Q 167.39 168.30 167.99 168.42 Q 168.59 168.53 169.24 168.76 Z M 88.14 205.30 L 95.86 205.30 L 95.86 205.99 L 91.50 217.30 L 89.81 217.30 L 93.91 206.67 L 88.14 206.67 L 88.14 205.30 Z M 129.00 211.58 Q 127.88 211.58 127.24 212.18 Q 126.61 212.78 126.61 213.82 Q 126.61 214.87 127.24 215.46 Q 127.88 216.06 129.00 216.06 Q 130.12 216.06 130.76 215.46 Q 131.40 214.86 131.40 213.82 Q 131.40 212.78 130.76 212.18 Q 130.13 211.58 129.00 211.58 Z M 127.44 210.92 Q 126.43 210.67 125.87 209.98 Q 125.31 209.29 125.31 208.30 Q 125.31 206.91 126.29 206.11 Q 127.28 205.30 129.00 205.30 Q 130.73 205.30 131.71 206.11 Q 132.70 206.91 132.70 208.30 Q 132.70 209.29 132.13 209.98 Q 131.57 210.67 130.57 210.92 Q 131.70 211.18 132.33 211.95 Q 132.97 212.71 132.97 213.82 Q 132.97 215.50 131.94 216.40 Q 130.91 217.30 129.00 217.30 Q 127.09 217.30 126.06 216.40 Q 125.03 215.50 125.03 213.82 Q 125.03 212.71 125.67 211.95 Q 126.31 211.18 127.44 210.92 Z M 126.86 208.45 Q 126.86 209.34 127.42 209.85 Q 127.99 210.35 129.00 210.35 Q 130.01 210.35 130.58 209.85 Q 131.15 209.34 131.15 208.45 Q 131.15 207.55 130.58 207.04 Q 130.01 206.54 129.00 206.54 Q 127.99 206.54 127.42 207.04 Q 126.86 207.55 126.86 208.45 Z M 162.75 216.83 L 162.75 215.41 Q 163.34 215.69 163.95 215.84 Q 164.55 215.98 165.13 215.98 Q 166.68 215.98 167.50 214.94 Q 168.32 213.90 168.43 211.77 Q 167.98 212.44 167.29 212.80 Q 166.60 213.16 165.77 213.16 Q 164.03 213.16 163.02 212.11 Q 162.01 211.06 162.01 209.23 Q 162.01 207.45 163.06 206.38 Q 164.12 205.30 165.87 205.30 Q 167.88 205.30 168.93 206.84 Q 169.99 208.38 169.99 211.30 Q 169.99 214.04 168.69 215.67 Q 167.39 217.30 165.20 217.30 Q 164.61 217.30 164.01 217.18 Q 163.41 217.07 162.75 216.83 Z M 165.87 211.93 Q 166.92 211.93 167.54 211.21 Q 168.15 210.49 168.15 209.23 Q 168.15 207.99 167.54 207.26 Q 166.92 206.54 165.87 206.54 Q 164.81 206.54 164.20 207.26 Q 163.58 207.99 163.58 209.23 Q 163.58 210.49 164.20 211.21 Q 164.81 211.93 165.87 211.93 Z M 129.00 243.54 Q 127.79 243.54 127.18 244.73 Q 126.57 245.92 126.57 248.30 Q 126.57 250.68 127.18 251.87 Q 127.79 253.06 129.00 253.06 Q 130.22 253.06 130.82 251.87 Q 131.43 250.68 131.43 248.30 Q 131.43 245.92 130.82 244.73 Q 130.22 243.54 129.00 243.54 Z M 129.00 242.30 Q 130.94 242.30 131.97 243.84 Q 133.00 245.38 133.00 248.30 Q 133.00 251.22 131.97 252.76 Q 130.94 254.30 129.00 254.30 Q 127.06 254.30 126.03 252.76 Q 125.00 251.22 125.00 248.30 Q 125.00 245.38 126.03 243.84 Q 127.06 242.30 129.00 242.30 Z M 87.00 247.20 L 97.00 247.20 Q 98.00 247.20 98.00 248.20 L 98.00 253.90 Q 98.00 254.90 97.00 254.90 L 87.00 254.90 Q 86.00 254.90 86.00 253.90 L 86.00 248.20 Q 86.00 247.20 87.00 247.20 Z M 89.00 247.20 L 89.00 244.40 Q 89.00 240.70 92.50 240.70 Q 96.80 240.70 96.80 243.90 M 161.00 247.20 L 171.00 247.20 Q 172.00 247.20 172.00 248.20 L 172.00 253.90 Q 172.00 254.90 171.00 254.90 L 161.00 254.90 Q 160.00 254.90 160.00 253.90 L 160.00 248.20 Q 160.00 247.20 161.00 247.20 Z M 162.70 247.20 L 162.70 244.10 Q 162.70 240.70 166.00 240.70 Q 169.30 240.70 169.30 244.10 L 169.30 247.20"/>
</svg>