<svg xmlns="http://www.w3.org/2000/svg" viewBox="0 0 24 24"><path fill="#44739e" d="M4.309 14.435a1.286 1.286 0 1 0-1.286-1.285 1.286 1.286 0 0 0 1.286 1.285m2.426-.145a.353.353 0 1 0-.352-.353.353.353 0 0 0 .352.353M3.531 9.844h-.016a.8.8 0 0 0-.237.073l-.021.062h-.02v.042h-.021a.2.2 0 0 0-.008.118l-.006.031a.329.329 0 1 0 .329-.329Zm4.572-.945h7.591c.23 0 .415.185.415.415v.72c0 .23-.185.415-.415.415H8.103a.414.414 0 0 1-.415-.415v-.72c0-.23.185-.415.415-.415m13.888-.248a1.5 1.5 0 0 0-.021-.458l-.021-.063a4 4 0 0 0-.623-.021H2.425c-.092 0-.279-.025-.333.021l-.062.021a4 4 0 0 0-.021.645v5.849a1.5 1.5 0 0 0 .021.458l.021.062a5 5 0 0 0 .972.024v.709h2.879v-.71h12.196l.008.021v.689h2.878v-.71h.882a.5.5 0 0 1 .1-.083 4 4 0 0 0 .021-.645Zm-.125 6.41H2.134v-3.999h19.732Zm0-5.869v1.748H2.134V8.234h19.711a6 6 0 0 1 .021.958M10.64 12.411a.36.36 0 0 1-.361.361.36.36 0 0 1-.36-.361.36.36 0 0 1 .36-.361.36.36 0 0 1 .361.361m4.44 1.849h2.373a.266.266 0 1 0 0-.531H15.08a.266.266 0 1 0 0 .531m4.625.268a1.286 1.286 0 1 0-1.286-1.285 1.286 1.286 0 0 0 1.286 1.285m-6.331-2.006h.026v.042h.021l.021.062.045.015.017.026a.361.361 0 1 0 .256-.614.35.35 0 0 0-.277.139l-.042.017-.021.062h-.02v.042h-.021v.063h-.021v.02h.021Zm-1.062.104h.007a.35.35 0 0 0 .278.141.361.361 0 0 0 0-.722.356.356 0 0 0-.342.267h-.005a.2.2 0 0 0-.012.085v.009a.35.35 0 0 0 .069.2Zm-.874.153a.361.361 0 1 0-.361-.361.36.36 0 0 0 .361.361"/></svg>