<?xml version="1.0" encoding="UTF-8"?>
<svg width="24px" fill="#44739e" height="24px" viewBox="0 0 24 24" version="1.1" xmlns="http://www.w3.org/2000/svg" xmlns:xlink="http://www.w3.org/1999/xlink">
            <path d="m 7.7510004,19.187952 -0.124,-0.059 c 0,-0.126 0,-0.251 0.01,-0.377 a 9.124,9.124 0 0 1 -2.358,-0.03 c 0,0.135 0.01,0.271 0.015,0.407 l -0.125,0.059 a 0.858,0.858 0 0 0 0.122,0.119 c 0,0.077 0,0.153 0,0.23 l -0.1,0.03 v 0.081 l 0.1,0.047 c 0,0.09 0,0.18 0,0.27 l -0.1,0.046 v 0.082 l 0.1,0.029 c 0,0.077 0,0.154 0,0.23 a 0.837,0.837 0 0 0 -0.12,0.118 l 0.1,0.055 a 0.515,0.515 0 0 0 0.126,0.272 c 0.084,0.069 0.207,0.1 0.3,0.159 0.093,0.059 0.114,0.163 0.19,0.22 0.081,0.041 0.177,0.057 0.256,0.1 a 0.782,0.782 0 0 1 0.134,0.163 c 0.124,0 0.247,0 0.371,0 a 0.868,0.868 0 0 1 0.134,-0.162 c 0.083,-0.05 0.192,-0.061 0.273,-0.115 0.064,-0.062 0.1,-0.148 0.172,-0.207 0.088,-0.063 0.211,-0.091 0.295,-0.16 a 0.514,0.514 0 0 0 0.125,-0.272 l 0.1,-0.054 a 0.794,0.794 0 0 0 -0.12,-0.119 c 0,-0.076 0,-0.153 0,-0.23 l 0.1,-0.029 v -0.082 l -0.1,-0.046 c 0,-0.09 0,-0.18 0,-0.27 l 0.1,-0.047 v -0.081 l -0.1,-0.03 c 0,-0.077 0,-0.154 0,-0.23 a 0.757,0.757 0 0 0 0.124,-0.117 z m -0.274,0.48 v 0.066 l -0.08,0.037 v 0.217 l 0.08,0.037 v 0.066 l -0.077,0.023 c 0,0.062 0,0.124 0,0.185 a 0.616,0.616 0 0 1 0.1,0.1 l -0.083,0.044 a 0.408,0.408 0 0 1 -0.1,0.218 c -0.067,0.056 -0.166,0.078 -0.237,0.129 -0.054,0.047 -0.086,0.117 -0.138,0.166 -0.052,0.049 -0.152,0.052 -0.219,0.093 a 0.608,0.608 0 0 0 -0.107,0.13 c -0.1,0 -0.2,0 -0.3,0 a 0.567,0.567 0 0 0 -0.108,-0.131 c -0.063,-0.036 -0.14,-0.049 -0.205,-0.082 -0.065,-0.033 -0.093,-0.127 -0.153,-0.177 -0.06,-0.05 -0.169,-0.073 -0.237,-0.128 a 0.408,0.408 0 0 1 -0.1,-0.218 l -0.083,-0.044 a 0.616,0.616 0 0 1 0.1,-0.1 c 0,-0.061 0,-0.123 0,-0.185 l -0.078,-0.023 v -0.066 l 0.079,-0.037 c 0,-0.072 0,-0.144 0,-0.217 l -0.08,-0.037 v -0.066 l 0.078,-0.024 c 0,-0.061 0,-0.123 0,-0.184 a 0.677,0.677 0 0 1 -0.1,-0.1 l 0.1,-0.048 c 0,-0.109 -0.009,-0.217 -0.011,-0.326 a 7.315,7.315 0 0 0 1.893,0.024 c 0,0.1 0,0.2 -0.007,0.3 l 0.1,0.047 a 0.677,0.677 0 0 1 -0.1,0.1 c 0,0.061 0,0.123 0,0.184 z m -2.177,-7.481 v 0.919 c 0.246,0.092 0.493,0.184 0.74,0.274 v -0.31 l -0.44,-0.161 -0.009,-0.3 c 0.238,0.088 0.476,0.176 0.714,0.266 0,0.2 0,0.4 0,0.6 h 0.305 c 0,-0.2 0,-0.4 0,-0.6 0.237,-0.09 0.475,-0.178 0.713,-0.266 0,0.1 0,0.2 -0.008,0.3 l -0.436,0.161 v 0.31 c 0.247,-0.09 0.493,-0.182 0.74,-0.274 v -0.919 a 10.307,10.307 0 0 1 -1.18,0.41 c -0.387,-0.096 -0.758,-0.283 -1.139,-0.41 z m 8.4359996,6.63 c -0.057,-0.028 -0.113,-0.056 -0.169,-0.082 0.007,-0.189 0.016,-0.378 0.019,-0.566 a 12.108,12.108 0 0 1 -3.2,0.042 c 0.006,0.175 0.009,0.349 0.012,0.524 l -0.167,0.082 a 1.112,1.112 0 0 0 0.163,0.166 c 0,0.106 0,0.213 0,0.319 l -0.132,0.042 v 0.113 l 0.135,0.065 c 0,0.125 0,0.251 0,0.376 l -0.134,0.064 v 0.113 l 0.132,0.041 c 0,0.107 0,0.214 0,0.321 a 1.047,1.047 0 0 0 -0.162,0.164 l 0.14,0.076 a 0.733,0.733 0 0 0 0.171,0.378 c 0.114,0.1 0.28,0.135 0.4,0.223 0.091,0.081 0.147,0.2 0.234,0.288 0.109,0.075 0.257,0.089 0.37,0.16 a 1.1,1.1 0 0 1 0.181,0.225 c 0.169,0 0.336,0 0.5,0 a 1.091,1.091 0 0 1 0.183,-0.227 c 0.107,-0.062 0.238,-0.084 0.347,-0.142 0.1,-0.08 0.158,-0.219 0.258,-0.3 0.12,-0.087 0.287,-0.126 0.4,-0.223 a 0.717,0.717 0 0 0 0.17,-0.377 l 0.141,-0.076 a 1.053,1.053 0 0 0 -0.163,-0.164 c 0,-0.107 0,-0.214 0,-0.321 l 0.131,-0.041 c 0,-0.038 0,-0.075 0,-0.113 l -0.135,-0.064 c 0,-0.125 0,-0.251 0,-0.376 l 0.136,-0.065 c 0,-0.038 0,-0.076 0,-0.113 l -0.131,-0.042 c 0,-0.106 0,-0.213 0,-0.319 a 1.177,1.177 0 0 0 0.17,-0.171 z m -0.373,0.668 v 0.091 l -0.109,0.052 c 0,0.1 0,0.2 0,0.3 l 0.108,0.052 v 0.091 c -0.035,0.011 -0.07,0.021 -0.105,0.033 0,0.086 0,0.171 0,0.257 a 0.812,0.812 0 0 1 0.13,0.132 l -0.113,0.061 a 0.576,0.576 0 0 1 -0.136,0.3 c -0.093,0.077 -0.227,0.109 -0.323,0.179 -0.081,0.069 -0.124,0.181 -0.207,0.245 -0.088,0.046 -0.193,0.064 -0.279,0.114 a 0.869,0.869 0 0 0 -0.147,0.182 c -0.135,0 -0.269,0 -0.4,0 a 0.874,0.874 0 0 0 -0.145,-0.18 c -0.091,-0.057 -0.21,-0.069 -0.3,-0.13 -0.071,-0.068 -0.115,-0.165 -0.188,-0.231 -0.1,-0.07 -0.23,-0.1 -0.322,-0.179 a 0.593,0.593 0 0 1 -0.137,-0.3 l -0.112,-0.061 a 0.812,0.812 0 0 1 0.13,-0.132 c 0,-0.086 0,-0.172 0,-0.257 q -0.053,-0.018 -0.105,-0.033 v -0.091 l 0.108,-0.052 c 0,-0.1 0,-0.2 0,-0.3 l -0.109,-0.052 v -0.091 l 0.105,-0.033 c 0,-0.086 0,-0.172 0,-0.257 a 0.922,0.922 0 0 1 -0.132,-0.133 l 0.135,-0.066 c 0,-0.14 -0.005,-0.28 -0.01,-0.421 a 9.742,9.742 0 0 0 2.57,-0.033 c 0,0.151 -0.01,0.3 -0.016,0.454 l 0.136,0.066 a 0.922,0.922 0 0 1 -0.132,0.133 c 0,0.086 0,0.171 0,0.257 z M 10.406,9.0789522 v 1.2789998 c 0.334,0.128 0.668,0.256 1,0.38 v -0.431 l -0.591,-0.224 C 10.81,9.9449522 10.807,9.8069522 10.803,9.6689522 c 0.323,0.123 0.646,0.245 0.968,0.3699998 0,0.279 0,0.559 0,0.838 h 0.415 c 0,-0.279 0,-0.559 0,-0.838 0.322,-0.1249998 0.645,-0.2469998 0.969,-0.3699998 0,0.138 -0.008,0.276 -0.012,0.4139998 l -0.592,0.224 v 0.431 c 0.336,-0.124 0.67,-0.252 1,-0.38 V 9.0789522 c -0.519,0.177 -1.024,0.436 -1.554,0.57 a 13.462,13.462 0 0 1 -1.591,-0.57 z M 8.0640004,6.7959521 a 15.834,15.834 0 0 1 2.0289996,-0.1 h 0.281 c 0.521,0.008 1.038,0 1.552,0 1.089,-0.005 2.123,-0.008 3.2,0.068 a 8.055,8.055 0 0 1 0.806,0.1 l 0.561,0.1 v -0.852 a 14.02,14.02 0 0 0 -0.129,-2.411 1.484,1.484 0 0 0 -0.812,-1.064 4.684,4.684 0 0 0 -1.352,-0.383 18.18,18.18 0 0 0 -3.029,-0.155 9.318,9.318 0 0 0 -2.0309996,0.267 2.718,2.718 0 0 0 -1.23,0.649 1.218,1.218 0 0 0 -0.37,0.837 c -0.022,0.716 -0.02,1.434 -0.018,2.15 v 0.867 z M 18.884,19.237952 l -0.125,-0.059 c 0.006,-0.135 0.012,-0.271 0.015,-0.406 a 9.161,9.161 0 0 1 -2.357,0.03 c 0,0.125 0.006,0.251 0.009,0.377 l -0.124,0.058 a 0.858,0.858 0 0 0 0.121,0.12 c 0,0.076 0,0.153 0,0.229 l -0.1,0.03 v 0.082 l 0.1,0.046 v 0.271 l -0.1,0.046 v 0.081 l 0.1,0.03 c 0,0.076 0,0.153 0,0.23 a 0.744,0.744 0 0 0 -0.12,0.118 l 0.1,0.055 a 0.525,0.525 0 0 0 0.125,0.272 c 0.084,0.069 0.207,0.1 0.3,0.16 0.067,0.058 0.108,0.145 0.173,0.207 0.065,0.062 0.189,0.064 0.272,0.115 a 0.8,0.8 0 0 1 0.134,0.162 c 0.124,0 0.247,0 0.371,0 a 0.733,0.733 0 0 1 0.135,-0.163 c 0.078,-0.045 0.175,-0.061 0.255,-0.1 0.077,-0.057 0.117,-0.157 0.19,-0.219 0.089,-0.062 0.212,-0.091 0.3,-0.16 a 0.512,0.512 0 0 0 0.126,-0.271 l 0.1,-0.055 a 0.738,0.738 0 0 0 -0.119,-0.118 c 0,-0.077 0,-0.153 0,-0.23 l 0.1,-0.03 v -0.081 l -0.1,-0.046 c 0,-0.09 0,-0.18 0,-0.271 l 0.1,-0.046 v -0.081 l -0.1,-0.031 c 0,-0.076 0,-0.153 0,-0.229 a 0.858,0.858 0 0 0 0.119,-0.123 z m -0.275,0.481 v 0.065 l -0.08,0.038 c 0,0.072 0,0.145 0,0.217 l 0.079,0.037 v 0.065 l -0.077,0.024 c 0,0.062 0,0.123 0,0.185 a 0.582,0.582 0 0 1 0.1,0.095 l -0.084,0.044 a 0.41,0.41 0 0 1 -0.1,0.218 c -0.068,0.055 -0.167,0.078 -0.238,0.128 -0.071,0.05 -0.091,0.13 -0.153,0.176 -0.062,0.046 -0.142,0.046 -0.2,0.082 a 0.618,0.618 0 0 0 -0.108,0.131 c -0.1,0 -0.2,0 -0.3,0 a 0.644,0.644 0 0 0 -0.108,-0.13 c -0.067,-0.041 -0.154,-0.05 -0.219,-0.093 -0.065,-0.043 -0.084,-0.119 -0.138,-0.166 -0.071,-0.051 -0.169,-0.074 -0.237,-0.129 a 0.427,0.427 0 0 1 -0.1,-0.218 l -0.083,-0.044 a 0.616,0.616 0 0 1 0.1,-0.095 c 0,-0.062 0,-0.123 0,-0.185 l -0.078,-0.024 v -0.065 l 0.08,-0.037 v -0.214 l -0.08,-0.038 v -0.065 l 0.078,-0.024 c 0,-0.062 0,-0.123 0,-0.185 a 0.67,0.67 0 0 1 -0.1,-0.1 l 0.1,-0.048 c 0,-0.1 0,-0.2 -0.008,-0.3 a 7.358,7.358 0 0 0 1.893,-0.024 c 0,0.108 -0.007,0.217 -0.011,0.326 l 0.1,0.048 a 0.629,0.629 0 0 1 -0.1,0.1 c 0,0.062 0,0.123 0,0.185 z m 2.016,-8.667 a 10.451,10.451 0 0 0 -1.783,-0.145 h -0.1 c -0.378,-0.009 -0.756,-0.007 -1.134,0 h -0.425 -0.165 c -0.221,0 -0.439,0 -0.659,0 0,-0.127 0.011,-0.253 0.015,-0.38 h 0.037 c 0.384,0.005 0.765,0 1.144,0 0.8,0 1.563,-0.006 2.356,0.049 a 5.576,5.576 0 0 1 0.593,0.069 l 0.414,0.07 v -0.61 a 9.777,9.777 0 0 0 -0.1,-1.7329998 1.07,1.07 0 0 0 -0.6,-0.7650001 3.485,3.485 0 0 0 -1,-0.275 13.717,13.717 0 0 0 -2.225,-0.108 7.755,7.755 0 0 0 -1.309,0.158 16.862,16.862 0 0 0 -2,-0.148 h -0.142 c -0.513,-0.014 -1.025,-0.01 -1.539,-0.006 h -0.577 -0.223 c -0.649,0 -1.2999996,-0.01 -1.9379996,0.01 a 9.746,9.746 0 0 0 -1.022,0.075 8,8 0 0 0 -1.183,-0.144 13.621,13.621 0 0 0 -2.232,0.111 3.518,3.518 0 0 0 -1,0.275 1.074,1.074 0 0 0 -0.6,0.7650001 9.782,9.782 0 0 0 -0.1,1.7329998 v 0.61 l 0.413,-0.07 c 0.2,-0.033 0.394,-0.055 0.594,-0.069 0.792,-0.055 1.553,-0.053 2.356,-0.049 0.363,0 0.728,0 1.1,0 0,0.127 0.008,0.253 0.013,0.38 -0.191,0 -0.381,0 -0.573,0 h -0.157 -0.424 c -0.379,0 -0.756,0 -1.134,0.005 h -0.1 a 10.561,10.561 0 0 0 -1.783,0.145 l -0.295,0.058 0.018,0.293 c 0.056,0.89 0.083,1.783 0.111,2.674 a 3.65,3.65 0 0 0 0.652,1.826 c 0.056,0.082 0.115,0.155 0.175,0.228 a 1.415,1.415 0 0 1 0.181,0.255 1.038,1.038 0 0 1 0.12,0.436 c 0,0.249 0,0.5 0,0.747 a 0.971,0.971 0 0 0 0.031,0.29 l 0.031,0.073 a 1.087,1.087 0 0 0 0.189,0.222 l 0.056,0.055 a 0.821,0.821 0 0 0 0.424,0.254 5.219,5.219 0 0 0 0.594,0.081 l 0.089,0.008 c 0.27,0.018 0.528,0.028 0.775,0.028 a 7.985,7.985 0 0 0 1.242,-0.091 l 0.105,-0.016 0.069,-0.075 c 0.043,-0.041 0.091,-0.077 0.138,-0.114 a 2.618,2.618 0 0 0 0.206,-0.173 0.544,0.544 0 0 0 0.164,-0.393 c 0.006,-0.136 0,-0.238 0,-0.34 0,-0.102 -0.007,-0.183 0,-0.275 a 1.593,1.593 0 0 1 0.191,-0.8 1.809,1.809 0 0 1 0.2,-0.27 3.09,3.09 0 0 0 0.21,-0.27 1.3,1.3 0 0 0 0.08,-0.147 c 0.009,0.088 0.017,0.178 0.021,0.279 0.005,0.127 0,0.254 0,0.382 0,0.128 -0.011,0.284 0,0.473 a 0.771,0.771 0 0 0 0.223,0.547 c 0.088,0.086 0.183,0.163 0.279,0.24 0.064,0.052 0.129,0.1 0.189,0.159 l 0.1049996,0.1 0.142,0.023 a 10.7,10.7 0 0 0 1.686,0.126 c 0.335,0 0.685,-0.014 1.052,-0.039 l 0.114,-0.009 a 6.8,6.8 0 0 0 0.806,-0.112 1.116,1.116 0 0 0 0.574,-0.354 l 0.076,-0.076 a 1.461,1.461 0 0 0 0.257,-0.309 l 0.043,-0.1 a 1.39,1.39 0 0 0 0.041,-0.4 c 0,-0.334 -0.007,-0.666 0,-1 0.051,0.092 0.093,0.191 0.152,0.277 a 3.248,3.248 0 0 0 0.21,0.27 1.958,1.958 0 0 1 0.2,0.27 1.6,1.6 0 0 1 0.191,0.8 c 0,0.091 0,0.183 0,0.274 0,0.091 -0.008,0.2 0,0.341 a 0.545,0.545 0 0 0 0.165,0.393 2.637,2.637 0 0 0 0.205,0.173 c 0.047,0.036 0.095,0.073 0.139,0.114 l 0.077,0.071 0.105,0.016 a 7.994,7.994 0 0 0 1.242,0.091 c 0.247,0 0.505,-0.01 0.775,-0.028 l 0.09,-0.009 a 5.034,5.034 0 0 0 0.594,-0.08 0.831,0.831 0 0 0 0.423,-0.254 l 0.056,-0.055 a 1.065,1.065 0 0 0 0.189,-0.223 l 0.032,-0.072 a 0.979,0.979 0 0 0 0.03,-0.291 c 0,-0.249 0,-0.5 0,-0.746 a 1.034,1.034 0 0 1 0.12,-0.436 1.415,1.415 0 0 1 0.181,-0.255 c 0.059,-0.073 0.118,-0.147 0.174,-0.228 a 3.657,3.657 0 0 0 0.652,-1.826 c 0.028,-0.892 0.056,-1.784 0.111,-2.674 l 0.018,-0.293 z m -11.8059996,4.483 c -0.131,0.2 -0.3,0.349 -0.421,0.553 a 1.932,1.932 0 0 0 -0.238,0.953 c -0.009,0.2 0.014,0.391 0.007,0.585 a 0.265,0.265 0 0 1 -0.063,0.2 c -0.106,0.1 -0.231,0.182 -0.339,0.281 a 8.635,8.635 0 0 1 -1.928,0.06 5.732,5.732 0 0 1 -0.654,-0.084 0.542,0.542 0 0 1 -0.254,-0.172 1.163,1.163 0 0 1 -0.18,-0.2 0.7,0.7 0 0 1 -0.015,-0.188 c 0,-0.252 0,-0.5 0,-0.757 a 1.361,1.361 0 0 0 -0.155,-0.578 4.753,4.753 0 0 0 -0.379,-0.524 3.343,3.343 0 0 1 -0.594,-1.648 c -0.027,-0.9 -0.056,-1.791 -0.111,-2.684 a 10.861,10.861 0 0 1 1.829,-0.141 c 0.517,-0.014 1.033,0 1.55,0 0.25,0 0.5,0 0.748,0 0,0.089 0,0.177 0.009,0.266 l 0.007,0.136 a 5.152,5.152 0 0 0 0.083,0.791 4.565,4.565 0 0 0 0.669,1.61 4.4,4.4 0 0 0 0.285,0.375 2.579,2.579 0 0 1 0.274,0.376 1.533,1.533 0 0 1 0.125,0.279 2.717,2.717 0 0 1 -0.255,0.511 z m 5.9399996,-1.231 a 1.976,1.976 0 0 0 -0.223,0.34 c -0.016,0.035 -0.025,0.071 -0.04,0.106 a 1.833,1.833 0 0 0 -0.171,0.7 c 0,0.351 0,0.7 0,1.053 a 1,1 0 0 1 -0.021,0.262 1.551,1.551 0 0 1 -0.244,0.275 0.736,0.736 0 0 1 -0.345,0.239 7.528,7.528 0 0 1 -0.887,0.118 11.572,11.572 0 0 1 -2.617,-0.084 c -0.147,-0.139 -0.3169996,-0.25 -0.4599996,-0.391 a 0.38,0.38 0 0 1 -0.087,-0.275 c -0.008,-0.271 0.022,-0.542 0.011,-0.814 a 2.732,2.732 0 0 0 -0.324,-1.325 c -0.16,-0.284 -0.393,-0.5 -0.571,-0.769 a 4.1,4.1 0 0 1 -0.6,-1.445 5.637,5.637 0 0 1 -0.08,-0.86 c -0.055,-1.207 -0.075,-2.4149998 -0.118,-3.6229999 a 8.927,8.927 0 0 1 1.286,-0.11 c 0.717,-0.022 1.4339996,-0.013 2.1519996,-0.008 0.7,0 1.4,-0.017 2.1,0 0.42,0.01 0.846,0.02 1.27,0.047 a 9.052,9.052 0 0 1 1.213,0.149 c -0.053,0.8790001 -0.078,1.7600001 -0.107,2.6399999 0,0.126 -0.011,0.251 -0.015,0.376 -0.004,0.125 -0.01,0.226 -0.014,0.338 -0.004,0.112 -0.011,0.253 -0.015,0.379 a 4.7,4.7 0 0 1 -0.806,2.292 c -0.091,0.144 -0.191,0.266 -0.287,0.39 z m 5.687,-0.237 a 3.343,3.343 0 0 1 -0.594,1.648 4.606,4.606 0 0 0 -0.378,0.523 1.356,1.356 0 0 0 -0.156,0.579 q -0.006,0.378 0,0.756 a 0.743,0.743 0 0 1 -0.016,0.189 1.2,1.2 0 0 1 -0.18,0.2 0.538,0.538 0 0 1 -0.254,0.171 5.746,5.746 0 0 1 -0.653,0.085 8.691,8.691 0 0 1 -1.928,-0.06 c -0.109,-0.1 -0.234,-0.18 -0.339,-0.282 a 0.262,0.262 0 0 1 -0.064,-0.2 c -0.006,-0.2 0.016,-0.39 0.008,-0.585 a 1.932,1.932 0 0 0 -0.239,-0.953 c -0.118,-0.2 -0.29,-0.358 -0.421,-0.553 a 2.892,2.892 0 0 1 -0.315,-0.635 c 0.014,-0.035 0.021,-0.065 0.038,-0.1 a 2.051,2.051 0 0 1 0.246,-0.355 c 0.08,-0.1 0.161,-0.2 0.236,-0.317 a 5.161,5.161 0 0 0 0.886,-2.54 c 0,-0.131 0.012,-0.263 0.016,-0.394 0.279,0 0.558,0 0.837,0 0.517,0 1.033,-0.012 1.55,0 a 10.852,10.852 0 0 1 1.829,0.14 c -0.055,0.892 -0.082,1.788 -0.109,2.683 z m -4.015,-1.83 v 0.92 c 0.246,0.092 0.492,0.184 0.74,0.273 v -0.306 l -0.436,-0.16 -0.009,-0.3 c 0.238,0.088 0.476,0.176 0.714,0.266 v 0.6 h 0.306 v -0.6 c 0.238,-0.09 0.476,-0.178 0.714,-0.266 l -0.009,0.3 -0.436,0.16 v 0.31 c 0.248,-0.089 0.494,-0.181 0.74,-0.273 v -0.92 c -0.382,0.128 -0.754,0.314 -1.145,0.41 a 10.039,10.039 0 0 1 -1.179,-0.414 z"/>

</svg>