<svg xmlns="http://www.w3.org/2000/svg" viewBox="0 0 24 24"><path fill="#44739e" d="M10.913 5.394h.21v5.978h-.21ZM6.177 2h.21v5.978h-.21Zm4.76 9.418h.167a.225.225 0 0 1 .225.225v.905a.226.226 0 0 1-.226.226h-.162a.225.225 0 0 1-.225-.225v-.905a.226.226 0 0 1 .221-.226M6.222 8.024h.119a.17.17 0 0 1 .169.169v.552a.17.17 0 0 1-.17.17h-.118a.17.17 0 0 1-.17-.17v-.552a.17.17 0 0 1 .17-.169M3.311 6.937l1.227 1.036 6.394 5.411 7.4 6.267a2.06 2.06 0 0 0 1.256.5 2.5 2.5 0 0 0 .35.007 1.8 1.8 0 0 0 .8-.192.4.4 0 0 0 .069-.068.44.44 0 0 0 .1-.407.43.43 0 0 0-.159-.222l-9.384-7.128v.407a.265.265 0 0 1-.265.265h-.163a.265.265 0 0 1-.264-.265v-.93L6.55 8.491v.254a.21.21 0 0 1-.208.209h-.12a.21.21 0 0 1-.209-.209V8.5l-.415.012a.5.5 0 0 1-.339-.112L3.532 6.96a.1.1 0 0 1 .053-.175l.312-.03a.4.4 0 0 1 .282.08l1.834 1.392v-.034a.2.2 0 0 1 .023-.093L4.129 6.655a.93.93 0 0 0-.833-.117c-.215.033-.245.184-.2.216Zm8.325 6.291.381-.085c.27-.1.489.016.764.24l6.654 5.194c.312.254.428.549.115.633l-.528.18a1.01 1.01 0 0 1-.991-.244l-6.434-5.405c-.234-.208-.193-.428.039-.513m-5.027-4 .376-.038a.75.75 0 0 1 .489.152l3.072 2.336a.13.13 0 0 1-.043.239l-.6.143a.66.66 0 0 1-.553-.224L6.525 9.515a.163.163 0 0 1 .084-.286Zm14.206 10.829a2.24 2.24 0 0 1-1.229.2 2.15 2.15 0 0 1-1.316-.519L3.341 7.117l-.25-.207.015.542.1.091 14.78 13.525a3.3 3.3 0 0 0 1.191.641 3 3 0 0 0 .8.062l.059-.006a1.3 1.3 0 0 0 .657-.3l.1-.081.121-1.432a.6.6 0 0 1-.099.105m.094 1.392-.136.113a1.4 1.4 0 0 1-.718.321l-.065.007c-.059 0-.119.007-.181.007a3.4 3.4 0 0 1-.658-.072 3.4 3.4 0 0 1-1.246-.668L3.131 7.632 3.092 7.6v.179l14.875 13.576a2.6 2.6 0 0 0 1.718.645h.079l.281-.018.058-.006a1.25 1.25 0 0 0 .537-.181c.2-.145.277-.255.271-.378Z"/></svg>