<svg xmlns="http://www.w3.org/2000/svg" viewBox="0 0 24 24"><path fill="#44739e" d="M5.912 3.394h-.26l-.3.008-.037.083a.1.1 0 0 0-.008.056v.113h1.1v-.261h-.388Zm16.033-1.393H3.442a2 2 0 0 0-.24.006l-.303.033-.027.308a2 2 0 0 0-.006.237l-.03.007-.044.009a.91.91 0 0 0-.657.559 1.5 1.5 0 0 0-.063.708v.009a1.3 1.3 0 0 0 .556.875 1.9 1.9 0 0 0 .91.279h.124a2.8 2.8 0 0 0 .643-.094c.128-.03.246-.07.36-.108q.125-.043.241-.076h.008q.131-.039.241-.061v15.987a20 20 0 0 1-1.279-.072h-.04a4 4 0 0 1-.809-.136l-.438-.14-.049.457-.022.256c-.007.083-.013.174-.022.257l-.03.262.236.117a2.1 2.1 0 0 0 .644.172l.062.009h.01a16 16 0 0 0 1.668.12q.467.02.926.019c.452 0 .89-.012 1.284-.025h.01l.164-.009a12 12 0 0 0 1.311-.125 2 2 0 0 0 .617-.188l.2-.105v-.225a4 4 0 0 0-.015-.316c0-.067-.01-.131-.012-.193l-.016-.488-.468.141a4.5 4.5 0 0 1-.87.144h-.024c-.485.042-.973.067-1.449.074h-.189l.007-.263V4.221l-.009-.234-.213-.094a1.4 1.4 0 0 0-.65-.088.6.6 0 0 0-.227.058 3.3 3.3 0 0 0-.87.159l-.094.027a3 3 0 0 1-.81.179 1.07 1.07 0 0 1-.642-.148.58.58 0 0 1-.194-.537v-.012a.16.16 0 0 1 .076-.123h.01a.5.5 0 0 1 .15-.033 2 2 0 0 0 .171-.028l.866-.194-.037-.024h1.286a2 2 0 0 0 .25-.012 2 2 0 0 1 .42 0 2 2 0 0 0 .276.012h15.613v-.743ZM8.219 21.053a5 5 0 0 0 .967-.16c.005.165.028.328.027.494a1.7 1.7 0 0 1-.509.151 13 13 0 0 1-1.434.13c-.728.025-1.458.039-2.186.006a16 16 0 0 1-1.632-.117 2.1 2.1 0 0 1-.6-.147c.02-.171.026-.344.045-.516a4.5 4.5 0 0 0 .927.157q.705.064 1.412.077.75.027 1.5 0 .745-.01 1.483-.075m-5.4-17.901a.42.42 0 0 0-.234.34.85.85 0 0 0 .3.8 1.3 1.3 0 0 0 .812.2 3.2 3.2 0 0 0 .891-.192l.087-.027a3 3 0 0 1 .482-.115v.247a3 3 0 0 0-.319.076q-.132.037-.258.081a3 3 0 0 1-.337.1 2.5 2.5 0 0 1-.578.086h-.106a1.64 1.64 0 0 1-.78-.236 1 1 0 0 1-.433-.689 1.2 1.2 0 0 1 .05-.575.64.64 0 0 1 .466-.388l-.005.254h.056a.5.5 0 0 0-.096.042Zm18.742-.407H6.322a2 2 0 0 1-.234-.01 2.4 2.4 0 0 0-.5 0 2 2 0 0 1-.278.009H3.239v-.157a2 2 0 0 1 0-.21 3 3 0 0 1 .3 0h18.024a15 15 0 0 0-.004.372Z"/></svg>