<?xml version="1.0" encoding="UTF-8"?>
<svg width="24px" fill="#44739e" height="24px" viewBox="0 0 24 24" version="1.1" xmlns="http://www.w3.org/2000/svg" xmlns:xlink="http://www.w3.org/1999/xlink">
            <path d="m 13.736,18.793 c -0.057,-0.028 -0.113,-0.056 -0.169,-0.082 0.007,-0.189 0.016,-0.378 0.019,-0.566 a 12.108,12.108 0 0 1 -3.2,0.042 c 0.006,0.175 0.009,0.35 0.012,0.524 l -0.168,0.082 a 1.17,1.17 0 0 0 0.164,0.166 c 0,0.106 0,0.212 0,0.319 l -0.132,0.042 v 0.113 l 0.135,0.065 c 0,0.125 0,0.251 0,0.376 l -0.134,0.064 v 0.113 l 0.132,0.041 c 0,0.107 0,0.214 0,0.321 a 1.047,1.047 0 0 0 -0.162,0.164 l 0.14,0.076 a 0.733,0.733 0 0 0 0.171,0.378 c 0.114,0.1 0.28,0.135 0.4,0.223 0.091,0.081 0.147,0.2 0.234,0.288 0.109,0.075 0.257,0.089 0.37,0.16 a 1.1,1.1 0 0 1 0.181,0.225 c 0.169,0 0.336,0 0.5,0 A 1.091,1.091 0 0 1 12.412,21.7 c 0.107,-0.062 0.238,-0.084 0.347,-0.142 0.1,-0.08 0.158,-0.219 0.258,-0.3 0.12,-0.087 0.287,-0.126 0.4,-0.223 a 0.717,0.717 0 0 0 0.17,-0.377 l 0.141,-0.076 a 1.053,1.053 0 0 0 -0.163,-0.164 c 0,-0.107 0,-0.214 0,-0.321 l 0.131,-0.041 v -0.113 l -0.135,-0.064 c 0,-0.125 0,-0.251 0,-0.376 l 0.136,-0.065 c 0,-0.038 0,-0.076 0,-0.113 l -0.131,-0.042 c 0,-0.107 0,-0.213 0,-0.319 a 1.177,1.177 0 0 0 0.17,-0.171 z m -0.373,0.668 v 0.091 l -0.109,0.052 c 0,0.1 0,0.2 0,0.3 0.036,0.016 0.072,0.034 0.108,0.051 v 0.091 l -0.106,0.033 c 0,0.086 0,0.171 0,0.257 a 0.812,0.812 0 0 1 0.13,0.132 l -0.113,0.061 a 0.576,0.576 0 0 1 -0.136,0.3 c -0.093,0.077 -0.227,0.109 -0.323,0.179 -0.081,0.069 -0.124,0.181 -0.207,0.245 -0.088,0.046 -0.193,0.064 -0.279,0.114 a 0.869,0.869 0 0 0 -0.147,0.182 c -0.135,0 -0.269,0 -0.4,0 a 0.874,0.874 0 0 0 -0.145,-0.18 c -0.091,-0.057 -0.21,-0.069 -0.3,-0.13 -0.071,-0.068 -0.115,-0.165 -0.188,-0.231 -0.1,-0.07 -0.23,-0.1 -0.322,-0.179 a 0.593,0.593 0 0 1 -0.137,-0.3 l -0.112,-0.061 a 0.812,0.812 0 0 1 0.13,-0.132 c 0,-0.086 0,-0.172 0,-0.257 l -0.105,-0.033 v -0.091 c 0.036,-0.017 0.072,-0.035 0.108,-0.051 0,-0.1 0,-0.2 0,-0.3 l -0.109,-0.052 v -0.091 l 0.105,-0.033 c 0,-0.086 0,-0.172 0,-0.257 a 0.922,0.922 0 0 1 -0.132,-0.133 l 0.135,-0.066 c 0,-0.14 -0.005,-0.28 -0.01,-0.421 a 9.742,9.742 0 0 0 2.57,-0.033 c 0,0.151 -0.01,0.3 -0.016,0.454 l 0.136,0.066 a 0.922,0.922 0 0 1 -0.132,0.133 c 0,0.086 0,0.171 0,0.257 z M 16.1,7.406 a 13.9,13.9 0 0 0 -2.421,-0.2 H 13.537 C 13.024,7.192 12.512,7.196 11.998,7.2 H 11.421 11.198 C 10.549,7.2 9.898,7.19 9.26,7.21 A 9.385,9.385 0 0 0 7.907,7.326 L 7.5,7.389 7.515,7.801 c 0.016,0.476 0.029,0.953 0.043,1.429 0.02,0.734 0.041,1.466 0.074,2.2 l 0.007,0.135 a 5.152,5.152 0 0 0 0.083,0.792 4.565,4.565 0 0 0 0.668,1.613 4.4,4.4 0 0 0 0.285,0.375 2.579,2.579 0 0 1 0.274,0.376 2.267,2.267 0 0 1 0.26,1.107 c 0.005,0.127 0,0.254 0,0.382 0,0.128 -0.011,0.284 0,0.473 a 0.771,0.771 0 0 0 0.223,0.547 c 0.088,0.086 0.183,0.163 0.279,0.24 0.064,0.052 0.129,0.1 0.189,0.159 l 0.105,0.1 0.142,0.023 a 10.7,10.7 0 0 0 1.686,0.126 c 0.335,0 0.685,-0.014 1.052,-0.039 L 13,17.826 a 6.8,6.8 0 0 0 0.806,-0.112 1.116,1.116 0 0 0 0.574,-0.354 l 0.076,-0.076 a 1.487,1.487 0 0 0 0.257,-0.309 l 0.043,-0.1 a 1.39,1.39 0 0 0 0.041,-0.4 c 0,-0.346 -0.007,-0.692 0,-1.038 a 1.482,1.482 0 0 1 0.163,-0.607 2.051,2.051 0 0 1 0.246,-0.355 c 0.08,-0.1 0.161,-0.2 0.236,-0.317 a 5.161,5.161 0 0 0 0.886,-2.54 c 0.038,-1.24 0.075,-2.481 0.15,-3.719 L 16.503,7.491 Z M 15.856,11.6 a 4.7,4.7 0 0 1 -0.806,2.292 6.744,6.744 0 0 0 -0.514,0.729 1.949,1.949 0 0 0 -0.211,0.8 c 0,0.351 0,0.7 0,1.053 a 1,1 0 0 1 -0.021,0.262 1.551,1.551 0 0 1 -0.244,0.275 0.736,0.736 0 0 1 -0.345,0.239 7.528,7.528 0 0 1 -0.887,0.118 11.514,11.514 0 0 1 -2.617,-0.084 C 10.064,17.146 9.894,17.034 9.751,16.893 A 0.38,0.38 0 0 1 9.664,16.618 C 9.656,16.347 9.686,16.076 9.675,15.804 A 2.732,2.732 0 0 0 9.351,14.479 C 9.191,14.195 8.958,13.979 8.78,13.71 A 4.1,4.1 0 0 1 8.18,12.265 5.637,5.637 0 0 1 8.1,11.405 C 8.045,10.198 8.025,8.99 7.982,7.782 A 8.927,8.927 0 0 1 9.268,7.672 C 9.985,7.65 10.702,7.659 11.42,7.664 c 0.7,0 1.4,-0.017 2.1,0 a 14.522,14.522 0 0 1 2.483,0.2 c -0.071,1.245 -0.11,2.491 -0.147,3.736 z m -5.45,-2.545 v 1.279 c 0.334,0.128 0.668,0.256 1,0.38 V 10.283 L 10.815,10.059 C 10.81,9.921 10.807,9.783 10.803,9.645 c 0.323,0.123 0.646,0.245 0.968,0.37 0,0.279 0,0.559 0,0.838 h 0.415 c 0,-0.279 0,-0.559 0,-0.838 0.322,-0.125 0.645,-0.247 0.969,-0.37 0,0.138 -0.008,0.276 -0.012,0.414 l -0.592,0.224 v 0.431 c 0.336,-0.124 0.67,-0.252 1,-0.38 V 9.055 c -0.519,0.177 -1.024,0.436 -1.554,0.57 A 13.4,13.4 0 0 1 10.406,9.055 Z M 8.064,6.772 a 15.834,15.834 0 0 1 2.029,-0.1 h 0.281 c 0.521,0.008 1.038,0 1.552,0 1.089,-0.005 2.123,-0.008 3.2,0.068 a 8,8 0 0 1 0.8,0.1 l 0.562,0.1 V 6.088 A 14.02,14.02 0 0 0 16.359,3.677 1.484,1.484 0 0 0 15.547,2.613 4.684,4.684 0 0 0 14.2,2.23 18.18,18.18 0 0 0 11.171,2.075 9.318,9.318 0 0 0 9.14,2.342 2.718,2.718 0 0 0 7.91,2.991 1.213,1.213 0 0 0 7.54,3.828 C 7.518,4.544 7.52,5.262 7.522,5.978 v 0.867 z"/>

</svg>