<svg xmlns="http://www.w3.org/2000/svg" viewBox="0 0 24 24"><path fill="#44739e" d="M9.868 13.217c.082.157.177.307.254.465a1.2 1.2 0 0 1-.217.144 1 1 0 0 1-.247.112 2 2 0 0 1-.158-.266 1.5 1.5 0 0 1-.153-.289c.13-.09.274-.166.41-.243.065-.034.082.036.111.077M2 13.077c.17-.022.346 0 .517-.009.2 0 .409-.012.61.006.008 1.441 0 2.92 0 4.363a2 2 0 0 1 0 .21H2.002Zm9.882-10.502a10 10 0 0 1 1.261.039 10 10 0 0 1 2.729.653 9.8 9.8 0 0 1 3.2 2.048 4 4 0 0 1 .348.357 10 10 0 0 1 .929 1.158 9.7 9.7 0 0 1 1.047 2 9.5 9.5 0 0 1 .531 2.088 9 9 0 0 1-.028 2.493 9.4 9.4 0 0 1-1.329 3.663 8.2 8.2 0 0 1-1.169 1.482 9 9 0 0 1-.726.684 8.7 8.7 0 0 1-1.732 1.146 9.3 9.3 0 0 1-4.387 1.043 9.6 9.6 0 0 1-4.133-1.015 9.3 9.3 0 0 1-1.808-1.182c-.14-.114-.26-.248-.4-.362-.2-.163-.344-.366-.528-.543a8 8 0 0 1-.627-.783 9 9 0 0 1-.85-1.463 8.7 8.7 0 0 1-.741-2.558 8.4 8.4 0 0 1 .01-2.345 8.96 8.96 0 0 1 1.9-4.386 11 11 0 0 1 .88-.924A8.8 8.8 0 0 1 8.31 4.473a8.7 8.7 0 0 1 3.373-.9 8.95 8.95 0 0 1 5.938 1.808 8.6 8.6 0 0 1 3.208 5.024 8 8 0 0 1 .164 1.167 8 8 0 0 1-.067 1.686 8.6 8.6 0 0 1-.606 2.182 8.4 8.4 0 0 1-.911 1.6 9 9 0 0 1-1.277 1.375 8.5 8.5 0 0 1-1.6 1.079 8.2 8.2 0 0 1-2.488.84 7.9 7.9 0 0 1-2.5.034 8.5 8.5 0 0 1-4.414-1.987 5.5 5.5 0 0 1-.7-.705 8.04 8.04 0 0 1-1.977-4.309 7.2 7.2 0 0 1-.021-1.826 7.9 7.9 0 0 1 1.232-3.453 7.6 7.6 0 0 1 1.253-1.482 8 8 0 0 1 2.271-1.452 7.8 7.8 0 0 1 2.609-.6 12 12 0 0 1 .762 0 8 8 0 0 1 4.5 1.642 6.7 6.7 0 0 1 .866.769c.106.129.224.248.327.379a7.44 7.44 0 0 1 1.763 4.539 7.8 7.8 0 0 1-.147 1.675 7.3 7.3 0 0 1-1.632 3.358c-.2.217-.408.42-.615.625a7.4 7.4 0 0 1-5.264 1.918 8 8 0 0 1-2-.363 7.7 7.7 0 0 1-2.575-1.456 7.3 7.3 0 0 1-1.7-2.241 6.9 6.9 0 0 1-.7-2.817 7 7 0 0 1 .473-2.708 6.9 6.9 0 0 1 1.229-2.033c.148-.161.305-.315.462-.469a6 6 0 0 1 .663-.549 6.85 6.85 0 0 1 3.08-1.231 6.96 6.96 0 0 1 3.288.351 7 7 0 0 1 2.1 1.2 8 8 0 0 1 .846.846c.161.208.323.414.464.637a6.46 6.46 0 0 1 1.056 3.478 6.8 6.8 0 0 1-.6 2.7 6 6 0 0 1-1.021 1.547 4 4 0 0 1-.45.45 6.37 6.37 0 0 1-4.473 1.669 6.6 6.6 0 0 1-2.233-.465A6.4 6.4 0 0 1 8.1 16.59a11 11 0 0 1-.38-.436 6.1 6.1 0 0 1-1.226-2.5 5.8 5.8 0 0 1-.039-2.35 6 6 0 0 1 1.209-2.626 7 7 0 0 1 .55-.579 5.4 5.4 0 0 1 1.067-.792 5.8 5.8 0 0 1 2.087-.735 5.7 5.7 0 0 1 .993-.053 5.6 5.6 0 0 1 1.5.225 6 6 0 0 1 2.053 1.051 4.5 4.5 0 0 1 .735.7 5.7 5.7 0 0 1 .6.812 5.45 5.45 0 0 1 .8 2.77 5.37 5.37 0 0 1-1.67 3.933 7 7 0 0 1-.575.468 5.6 5.6 0 0 1-.931.536 5.33 5.33 0 0 1-2.833.431 5.63 5.63 0 0 1-2.905-1.242 5.3 5.3 0 0 1-1.582-2.419 4.9 4.9 0 0 1 0-2.8 5 5 0 0 1 .93-1.743c.186-.207.388-.4.591-.594a4.9 4.9 0 0 1 2.374-1.092 5.4 5.4 0 0 1 1.2-.041 5 5 0 0 1 .99.188 5 5 0 0 1 2.084 1.239 5.4 5.4 0 0 1 .7.908 4.4 4.4 0 0 1 .592 1.69 3.6 3.6 0 0 1 .018 1.007 4.6 4.6 0 0 1-.333 1.3 4.4 4.4 0 0 1-1.02 1.462 4.41 4.41 0 0 1-5.1.667 4 4 0 0 1-.926-.654 4.2 4.2 0 0 1-1.199-1.987 3.9 3.9 0 0 1-.062-1.622 3.96 3.96 0 0 1 .92-1.921 2.2 2.2 0 0 1 .326-.324 3.84 3.84 0 0 1 2.214-.965 4.4 4.4 0 0 1 1.051.044 3.96 3.96 0 0 1 1.885.881 3.67 3.67 0 0 1 1.145 1.757 3 3 0 0 1 .124.7 3.7 3.7 0 0 1-.049.857 3.37 3.37 0 0 1-.939 1.8 3.6 3.6 0 0 1-.838.6 3.4 3.4 0 0 1-1.277.376 3.7 3.7 0 0 1-1.377-.165 3.4 3.4 0 0 1-1.356-.844 2.6 2.6 0 0 1-.4-.506.7.7 0 0 1 .278-.161c.059.063.106.138.159.206a2.9 2.9 0 0 0 .879.758 3.085 3.085 0 0 0 4.585-2.272 3 3 0 0 0-.15-1.429 3.6 3.6 0 0 0-2.376-2.167 3.9 3.9 0 0 0-1.228-.124 3.6 3.6 0 0 0-1.507.465 3.3 3.3 0 0 0-1.104.981 3.6 3.6 0 0 0-.682 1.744 3.7 3.7 0 0 0 .125 1.379 3.93 3.93 0 0 0 1.054 1.682 4.06 4.06 0 0 0 2.078 1.056 4.4 4.4 0 0 0 1.473 0 4.07 4.07 0 0 0 3.326-4.149 5 5 0 0 0-.105-.771 4.44 4.44 0 0 0-1.687-2.486 4.5 4.5 0 0 0-2.156-.864 5.4 5.4 0 0 0-.847-.027 4.6 4.6 0 0 0-2.214.747 4.2 4.2 0 0 0-.984.876A4.6 4.6 0 0 0 7.691 11.9a4.5 4.5 0 0 0 .267 2.075 4.8 4.8 0 0 0 .858 1.426 5.04 5.04 0 0 0 3.487 1.76 5.5 5.5 0 0 0 1.186-.056 5.05 5.05 0 0 0 2.067-.839 4.8 4.8 0 0 0 1-.917 5.02 5.02 0 0 0 1.157-2.937 4.96 4.96 0 0 0-.544-2.571 5.7 5.7 0 0 0-.812-1.16 4 4 0 0 0-.371-.364 5 5 0 0 0-.877-.676 5.47 5.47 0 0 0-3.342-.792 5.6 5.6 0 0 0-3.241 1.392 3.6 3.6 0 0 0-.477.482 5.7 5.7 0 0 0-1.242 2.454 5.5 5.5 0 0 0 .017 2.464 5.74 5.74 0 0 0 1.228 2.385q.32.342.66.663a6.06 6.06 0 0 0 7.499.318c.2-.144.388-.306.576-.468a6.3 6.3 0 0 0 1.233-1.615 6 6 0 0 0 .676-2.467 5.9 5.9 0 0 0-.434-2.616 6.6 6.6 0 0 0-1.086-1.733c-.136-.157-.289-.294-.432-.445a.5.5 0 0 0-.175-.122 1.4 1.4 0 0 0-.325-.3 6 6 0 0 0-.613-.428 6.2 6.2 0 0 0-1.732-.754 6.7 6.7 0 0 0-1.792-.218A6.57 6.57 0 0 0 7.815 7.56a3 3 0 0 0-.381.381 6.4 6.4 0 0 0-.851 1.151 6.5 6.5 0 0 0-.829 2.394 6.4 6.4 0 0 0-.007 1.734 6.5 6.5 0 0 0 .9 2.543 7.15 7.15 0 0 0 2.146 2.225 7.056 7.056 0 0 0 8.619-.69 4 4 0 0 0 .451-.452 8 8 0 0 0 .9-1.238 7.02 7.02 0 0 0 .876-4.349 6.9 6.9 0 0 0-.64-2.177 7.4 7.4 0 0 0-1.017-1.55 8 8 0 0 0-1.883-1.591 6.8 6.8 0 0 0-1.567-.718 7.5 7.5 0 0 0-1.555-.327 7 7 0 0 0-1.191-.021 7.55 7.55 0 0 0-4.552 1.878c-.209.2-.418.41-.62.621a7.49 7.49 0 0 0-.181 9.785 8 8 0 0 0 .739.786 6.3 6.3 0 0 0 1.046.844 8.1 8.1 0 0 0 3.436 1.278 8.3 8.3 0 0 0 2.545-.086 8.1 8.1 0 0 0 3.869-1.941 6.3 6.3 0 0 0 .708-.729 8.3 8.3 0 0 0 1.041-1.553 7.97 7.97 0 0 0 .61-5.648 8.2 8.2 0 0 0-1.8-3.335 5 5 0 0 0-.361-.374 8.3 8.3 0 0 0-1.246-1.038 8 8 0 0 0-1.375-.77 8.4 8.4 0 0 0-2.377-.652 9.7 9.7 0 0 0-1.7-.043 8.6 8.6 0 0 0-2.388.543 8 8 0 0 0-1.08.5 8.6 8.6 0 0 0-1.491 1.046c-.219.194-.424.4-.628.614a8.65 8.65 0 0 0-2.118 4.2A8.4 8.4 0 0 0 5 16.845a9.3 9.3 0 0 0 .94 1.26c.229.247.474.49.721.719a10 10 0 0 0 1.087.83 9 9 0 0 0 3.105 1.269 8 8 0 0 0 1.367.17 9 9 0 0 0 1.243-.02 9.03 9.03 0 0 0 5.14-2.19 8 8 0 0 0 .66-.639 9.6 9.6 0 0 0 1.01-1.3 8.9 8.9 0 0 0 1.248-3.153 8.6 8.6 0 0 0 .141-2.138 8.4 8.4 0 0 0-.32-1.95 9.1 9.1 0 0 0-1.467-2.962 10 10 0 0 0-.793-.928 8 8 0 0 0-.656-.614c-.251-.234-.532-.425-.8-.633a10 10 0 0 0-1.478-.834 9.6 9.6 0 0 0-3.249-.823q-.675-.03-1.355 0a9.7 9.7 0 0 0-5.561 2.31c-.277.249-.535.519-.8.784-.185.19-.346.409-.513.616a9.5 9.5 0 0 0-1.87 4.585 8 8 0 0 0-.064.762c-.017.335 0 .671 0 1.006a1.4 1.4 0 0 1-.319 0c-.021-.295-.007-.6-.007-.891a10.4 10.4 0 0 1 .38-2.414 9.9 9.9 0 0 1 1.649-3.283 10 10 0 0 1 .866-.967 6 6 0 0 1 .484-.447 9.9 9.9 0 0 1 5.41-2.349 6 6 0 0 1 .683-.046"/></svg>