<svg width="60" height="60" viewBox="0 0 60 60" fill="none" xmlns="http://www.w3.org/2000/svg">
    <path fill-rule="evenodd" clip-rule="evenodd"
        d="M55 13V54.0799C55.7338 53.1906 56.4448 52.2847 57.1105 51.4364C57.5063 50.9321 57.8862 50.4481 58.2454 50C59.3433 48.6304 60 46.8919 60 45V8C60 3.58172 56.4183 0 52 0H14C11.7121 0 9.64859 0.960384 8.1905 2.5C7.40098 3.33366 6.64777 4.16374 5.91434 5H47C51.4183 5 55 8.58172 55 13ZM0 15C0 10.5817 3.58172 7 8 7H45C49.4183 7 53 10.5817 53 15V52C53 56.4183 49.4183 60 45 60H8C3.58172 60 0 56.4183 0 52V15ZM26.5 56C38.9264 56 49 45.9264 49 33.5C49 21.0736 38.9264 11 26.5 11C14.0736 11 4 21.0736 4 33.5C4 45.9264 14.0736 56 26.5 56ZM26.5 51C36.165 51 44 43.165 44 33.5C44 23.835 36.165 16 26.5 16C16.835 16 9 23.835 9 33.5C9 43.165 16.835 51 26.5 51ZM31.5 46.5C35.2159 43.5602 36.945 41.4508 39.5 37C39.5 37 39.4471 41.9283 37.5 44C35.7615 45.8497 31.5 46.5 31.5 46.5ZM17.5 30.5H14C14 28.5 16.0349 25.186 19 24H26C22.6612 24.8347 18.6668 26.9996 17.5 30.5Z"
        fill="#44739E" />
</svg>