<?xml version="1.0" encoding="UTF-8"?>
<svg width="24px" fill="#44739e" height="24px" viewBox="0 0 24 24" version="1.1" xmlns="http://www.w3.org/2000/svg" xmlns:xlink="http://www.w3.org/1999/xlink">
            <path d="m 10.909,5.3940001 h 0.21 V 11.372 h -0.21 z M 6.1729999,2 h 0.21 v 5.9780002 h -0.21 z M 10.933,11.418 H 11.1 a 0.225,0.225 0 0 1 0.225,0.225 v 0.905 a 0.226,0.226 0 0 1 -0.226,0.226 h -0.162 a 0.225,0.225 0 0 1 -0.225,-0.225 v -0.905 a 0.226,0.226 0 0 1 0.221,-0.226 z M 6.218,8.024 h 0.119 a 0.169,0.169 0 0 1 0.169,0.169 v 0.552 a 0.17,0.17 0 0 1 -0.17,0.17 H 6.218 A 0.17,0.17 0 0 1 6.048,8.745 V 8.193 a 0.17,0.17 0 0 1 0.17,-0.169 z m -2.911,-1.087 1.227,1.036 6.394,5.411 7.4,6.267 a 2.057,2.057 0 0 0 1.256,0.5 2.493,2.493 0 0 0 0.35,0.007 1.812,1.812 0 0 0 0.8,-0.192 0.405,0.405 0 0 0 0.069,-0.068 0.439,0.439 0 0 0 0.1,-0.407 0.432,0.432 0 0 0 -0.159,-0.222 L 11.36,12.141 v 0.407 a 0.265,0.265 0 0 1 -0.265,0.265 h -0.163 a 0.265,0.265 0 0 1 -0.264,-0.265 v -0.93 L 6.546,8.491 V 8.745 A 0.209,0.209 0 0 1 6.338,8.954 H 6.218 A 0.21,0.21 0 0 1 6.009,8.745 V 8.5 L 5.594,8.512 A 0.506,0.506 0 0 1 5.255,8.4 L 3.528,6.96 A 0.1,0.1 0 0 1 3.581,6.785 l 0.312,-0.03 a 0.4,0.4 0 0 1 0.282,0.08 L 6.009,8.227 V 8.193 A 0.213,0.213 0 0 1 6.032,8.1 L 4.125,6.655 A 0.929,0.929 0 0 0 3.292,6.538 C 3.077,6.571 3.047,6.722 3.092,6.754 Z m 8.325,6.291 0.381,-0.085 c 0.27,-0.1 0.489,0.016 0.764,0.24 l 6.654,5.194 c 0.312,0.254 0.428,0.549 0.115,0.633 l -0.528,0.18 A 1.012,1.012 0 0 1 18.027,19.146 L 11.593,13.741 C 11.359,13.533 11.4,13.313 11.632,13.228 Z M 6.605,9.228 6.981,9.19 A 0.751,0.751 0 0 1 7.47,9.342 l 3.072,2.336 a 0.13,0.13 0 0 1 -0.043,0.239 l -0.6,0.143 A 0.657,0.657 0 0 1 9.346,11.836 L 6.521,9.515 A 0.163,0.163 0 0 1 6.605,9.229 Z m 14.206,10.829 v 0 a 2.242,2.242 0 0 1 -1.229,0.2 2.155,2.155 0 0 1 -1.316,-0.519 v 0 L 3.337,7.117 3.087,6.91 l 0.015,0.542 0.1,0.091 14.78,13.525 a 3.265,3.265 0 0 0 1.191,0.641 2.964,2.964 0 0 0 0.8,0.062 l 0.059,-0.006 a 1.292,1.292 0 0 0 0.657,-0.3 l 0.1,-0.081 0.121,-1.432 a 0.556,0.556 0 0 1 -0.099,0.105 z m 0.094,1.392 -0.136,0.113 a 1.4,1.4 0 0 1 -0.718,0.321 l -0.065,0.007 c -0.059,0 -0.119,0.007 -0.181,0.007 A 3.408,3.408 0 0 1 19.147,21.825 3.4,3.4 0 0 1 17.901,21.157 L 3.127,7.632 3.088,7.6 V 7.779 L 17.963,21.355 A 2.6,2.6 0 0 0 19.681,22 c 0.026,0 0.052,0 0.079,0 l 0.281,-0.018 a 0.57,0.57 0 0 0 0.058,-0.006 1.253,1.253 0 0 0 0.537,-0.181 c 0.2,-0.145 0.277,-0.255 0.271,-0.378 z"/>

</svg>
