<svg role="img" viewBox="0 0 24 24" xmlns="http://www.w3.org/2000/svg"><title>ZDFHeute</title>
    <path
       d="m 8.599985,14.636246 c -0.006,-0.006 -0.0115,-0.12569 -0.0115,-0.26529 v -0.25382 h 1.40781 1.4078 v 0.25487 c 0,0.21259 -0.005,0.2566 -0.0271,0.26529 -0.0372,0.0143 -2.76269,0.0133 -2.777,-10e-4 z m -4.81042,-1.34493 c -0.28415,-0.0547 -0.58759,-0.25913 -0.75181,-0.50647 -0.0808,-0.12172 -0.17556,-0.35838 -0.21466,-0.53619 -0.047,-0.21374 -0.0437,-0.69203 0.006,-0.89401 0.16744,-0.67884 0.63562,-1.04759 1.268,-0.99872 0.31052,0.024 0.5502,0.12065 0.73193,0.29517 l 0.1111,0.10668 0.005,-0.69765 0.005,-0.6976601 0.3144,-0.005 0.3144,-0.005 -0.005,1.9438901 -0.005,1.94389 -0.29661,0.005 -0.29661,0.005 -5.7e-4,-0.18194 -5.6e-4,-0.18194 -0.0381,0.0531 c -0.0734,0.10249 -0.20833,0.22065 -0.31102,0.27249 -0.20422,0.10309 -0.54486,0.13539 -0.83623,0.0793 z m 0.60208,-0.50624 c 0.26692,-0.08 0.47001,-0.3319 0.54282,-0.67339 0.0339,-0.15889 0.0227,-0.54285 -0.0196,-0.67735 -0.0818,-0.25974 -0.23829,-0.45183 -0.4258,-0.52277 -0.14836,-0.0561 -0.37968,-0.0677 -0.50716,-0.0254 -0.25363,0.0842 -0.42095,0.27174 -0.51282,0.5747 -0.033,0.10873 -0.0405,0.17615 -0.0414,0.37187 -10e-4,0.26508 0.0183,0.37211 0.0997,0.54544 0.16222,0.34557 0.51483,0.51156 0.86428,0.40687 z m 8.65463,0.50823 c -0.46152,-0.0871 -0.84773,-0.37927 -1.03102,-0.77999 -0.14743,-0.3223 -0.17434,-0.83769 -0.0612,-1.17203 0.0817,-0.2416 0.19657,-0.41587 0.39838,-0.60465 0.28992,-0.27121 0.62152,-0.39562 1.05273,-0.39498 0.35038,5.3e-4 0.61127,0.0717 0.84506,0.2305 0.12976,0.0882 0.33218,0.30262 0.41086,0.43532 0.13163,0.22201 0.20902,0.5318 0.21514,0.86124 l 0.003,0.18541 -1.03171,0.005 -1.0317,0.005 0.0121,0.0928 c 0.0262,0.2009 0.14947,0.38155 0.31988,0.4687 0.10307,0.0527 0.34242,0.0749 0.46083,0.0428 0.1072,-0.0291 0.2324,-0.11634 0.29549,-0.20584 l 0.0564,-0.08 h 0.43044 0.43045 v 0.039 c 0,0.0215 -0.0367,0.1144 -0.0815,0.20651 -0.1141,0.23455 -0.28378,0.40411 -0.5206,0.52024 -0.25538,0.12522 -0.39704,0.15662 -0.74375,0.16484 -0.20824,0.005 -0.3317,-5.3e-4 -0.42971,-0.019 z m 0.88367,-1.84376 c -0.0237,-0.17308 -0.14897,-0.3477 -0.30367,-0.42339 -0.1286,-0.0629 -0.31202,-0.0662 -0.44726,-0.008 -0.15645,0.0673 -0.31048,0.26847 -0.34918,0.45605 l -0.0119,0.0576 h 0.56162 0.56163 z m 2.08672,1.8375 c -0.1686,-0.0415 -0.27545,-0.0961 -0.38534,-0.19699 -0.12669,-0.1163 -0.19935,-0.24526 -0.25507,-0.45275 l -0.0472,-0.17589 -0.007,-1.02266 -0.007,-1.02265 h 0.47075 0.47076 v 0.84753 c 0,0.46613 0.005,0.88472 0.0113,0.93018 0.0171,0.12458 0.10476,0.2573 0.20337,0.30782 0.10992,0.0563 0.3079,0.0607 0.42322,0.009 0.10519,-0.0468 0.2164,-0.17114 0.26194,-0.29286 0.0353,-0.0945 0.0371,-0.13447 0.0397,-0.92742 0.002,-0.45579 0.007,-0.83905 0.0116,-0.85168 0.007,-0.018 0.10804,-0.023 0.46733,-0.023 h 0.45852 v 1.39895 c 0,0.76943 0,1.40493 0,1.41224 0,0.007 -0.20121,0.0133 -0.44713,0.0133 h -0.44714 l -0.009,-0.18269 -0.009,-0.18269 -0.0676,0.0888 c -0.10551,0.13858 -0.34249,0.28125 -0.54742,0.32957 -0.14873,0.0351 -0.43337,0.0319 -0.58959,-0.007 z m 6.14522,0.006 c -0.27276,-0.0504 -0.48614,-0.14865 -0.67983,-0.3129 -0.22577,-0.19146 -0.36234,-0.40997 -0.43986,-0.70375 -0.0587,-0.2226 -0.0664,-0.62871 -0.0156,-0.82482 0.0382,-0.14746 0.13212,-0.35185 0.22418,-0.48791 0.12394,-0.18318 0.39167,-0.39859 0.62203,-0.50046 0.30269,-0.13386 0.73226,-0.16347 1.07669,-0.0742 0.51104,0.13242 0.86967,0.52593 0.993,1.08956 0.0182,0.083 0.0385,0.24836 0.0453,0.36745 l 0.0122,0.21652 h -1.03968 -1.03967 l 0.0122,0.0841 c 0.0309,0.21199 0.15408,0.39494 0.32637,0.4846 0.0693,0.0361 0.10515,0.0415 0.27448,0.0419 0.1773,3.4e-4 0.20284,-0.004 0.28435,-0.0469 0.0942,-0.0497 0.21357,-0.16029 0.23045,-0.21348 0.009,-0.029 0.0442,-0.0314 0.45149,-0.0314 0.24284,0 0.44152,0.003 0.44152,0.006 0,0.003 -0.0157,0.0518 -0.035,0.10777 -0.13973,0.40614 -0.49239,0.69002 -0.98301,0.79128 -0.18899,0.039 -0.56878,0.0423 -0.76168,0.007 z m 0.88451,-1.82818 c -0.0133,-0.078 -0.0982,-0.26342 -0.14413,-0.31477 -0.10044,-0.11238 -0.23712,-0.1709 -0.39738,-0.17013 -0.16794,8.1e-4 -0.27411,0.045 -0.38848,0.16168 -0.0924,0.0943 -0.13716,0.17892 -0.18485,0.34978 l -0.0111,0.0398 h 0.56866 0.56866 z m -3.40794,1.7694 c -0.17109,-0.0409 -0.25865,-0.0874 -0.34903,-0.18542 -0.0871,-0.0945 -0.11576,-0.14697 -0.15699,-0.28735 -0.0271,-0.0922 -0.032,-0.20971 -0.0383,-0.91591 l -0.007,-0.81015 h -0.22704 c -0.19071,0 -0.22877,-0.004 -0.2378,-0.028 -0.006,-0.0154 -0.0107,-0.14225 -0.0107,-0.28188 0,-0.13963 0.005,-0.26648 0.0107,-0.28189 0.009,-0.0235 0.0472,-0.028 0.23906,-0.028 h 0.22832 v -0.4250001 -0.42499 h 0.46926 0.46927 v 0.42499 0.4250001 h 0.28375 0.28375 l -0.005,0.30547 -0.005,0.30547 -0.2789,0.005 -0.27891,0.005 -8.5e-4,0.066 c -4.6e-4,0.0363 -1.7e-4,0.34483 8.4e-4,0.68569 0.002,0.68059 -1.7e-4,0.66756 0.11166,0.73572 0.0472,0.0288 0.0896,0.0345 0.25581,0.0346 l 0.19921,7e-5 v 0.33541 c 0,0.2358 -0.006,0.33919 -0.0206,0.34814 -0.0113,0.007 -0.19659,0.0153 -0.41171,0.0184 -0.32854,0.005 -0.41239,6e-4 -0.52394,-0.026 z m -19.62665,0.003 c -0.006,-0.006 -0.0118,-0.10866 -0.0118,-0.22704 v -0.21522 l 0.1638,-0.19577 c 0.0901,-0.10767 0.22356,-0.26953 0.29661,-0.3597 0.073,-0.0902 0.14083,-0.17283 0.15062,-0.18371 0.01,-0.0109 0.10909,-0.13133 0.22064,-0.26769 0.11156,-0.13635 0.20764,-0.2519 0.21352,-0.25677 0.006,-0.005 0.0815,-0.0965 0.16803,-0.20364 0.0865,-0.10714 0.19161,-0.2345 0.23351,-0.28303 0.0419,-0.0485 0.0762,-0.0943 0.0762,-0.10182 0,-0.007 -0.31875,-0.0136 -0.70833,-0.0136 h -0.70833 v -0.24791 -0.24792 h 1.15103 1.15104 v 0.22015 0.22014 l -0.16289,0.19157 c -0.0896,0.10537 -0.16759,0.19556 -0.17333,0.20043 -0.006,0.005 -0.15244,0.1762 -0.32602,0.38073 -0.17358,0.20453 -0.33265,0.39184 -0.3535,0.41625 -0.0208,0.0244 -0.12944,0.15191 -0.24132,0.28333 -0.11188,0.13142 -0.22935,0.26684 -0.26104,0.30093 -0.0317,0.0341 -0.0577,0.068 -0.0578,0.0753 -9e-5,0.007 0.37039,0.0133 0.82328,0.0133 h 0.82343 v 0.25677 0.25677 h -1.22777 c -0.67527,0 -1.23308,-0.005 -1.23958,-0.0118 z m 6.54869,-0.01 c -0.005,-0.0124 -0.0105,-0.54052 -0.0129,-1.17359 l -0.004,-1.15104 -0.22136,-0.003 -0.22135,-0.003 v -0.23374 -0.23374 l 0.22135,-0.003 0.22136,-0.003 0.0112,-0.25677 c 0.0211,-0.4826801 0.14574,-0.6847801 0.47577,-0.7711601 0.12334,-0.0323 0.47817,-0.0419 0.65126,-0.0177 l 0.0934,0.0131 -0.005,0.25061 c -0.004,0.21254 -0.009,0.24955 -0.0315,0.24359 -0.0146,-0.004 -0.0958,-0.0108 -0.1804,-0.0154 -0.13405,-0.007 -0.1645,-0.003 -0.2366,0.0317 -0.11382,0.0551 -0.13458,0.1103901 -0.12813,0.3413601 l 0.005,0.18062 0.25677,0.003 0.25677,0.003 0.001,0.23161 c 7.7e-4,0.15219 -0.005,0.23203 -0.0177,0.23285 -0.0104,6.9e-4 -0.12646,0.003 -0.25795,0.004 l -0.23906,0.003 -0.009,1.16874 -0.009,1.16875 -0.30586,0.005 c -0.23505,0.004 -0.30782,-3.8e-4 -0.31434,-0.0177 z m 2.04572,-1.9262 V 9.3525759 l 0.46484,0.005 0.46484,0.005 v 0.7039101 c 0,0.38715 0.004,0.7038 0.009,0.70368 0.005,-1.2e-4 0.0267,-0.0277 0.0485,-0.0614 0.0866,-0.13371 0.34887,-0.29258 0.57131,-0.34608 0.13159,-0.0317 0.43027,-0.0264 0.57897,0.0102 0.33521,0.0825 0.54705,0.30014 0.63787,0.65541 0.0283,0.11073 0.0314,0.22562 0.0315,1.1676 l 10e-5,1.04479 -0.46484,0.005 -0.46484,0.005 v -0.88249 c 0,-1.01036 -0.001,-1.02144 -0.13085,-1.14621 -0.15666,-0.15083 -0.44931,-0.15055 -0.62589,5.9e-4 -0.0404,0.0346 -0.0958,0.10845 -0.12318,0.1642 l -0.0498,0.10135 -0.009,0.87656 -0.009,0.87656 -0.46484,0.005 -0.46484,0.005 z"
       fill="#44739e" />
</svg>
