<svg xmlns="http://www.w3.org/2000/svg" viewBox="0 0 24 24"><path fill="#44739e" d="M2 13.157c0-6.762.002-7.263.031-7.274.017-.006 2.451-.528 5.408-1.158l5.377-1.147.005 2.285c.004 2.091.008 2.285.035 2.285.016 0 2.071-.436 4.566-.967s4.544-.966 4.556-.966c.017 0 .022 1.411.022 5.947 0 5.646-.002 5.946-.033 5.955-.018.005-2.435.522-5.37 1.147s-5.357 1.142-5.38 1.148l-.042.01v-.979c0-.923-.002-.978-.033-.97a4243 4243 0 0 1-9.131 1.944c-.006 0-.011-3.266-.011-7.26m3.085 4.258c.63-.136 1.152-.25 1.16-.255.007-.005.014-.771.014-1.703v-1.693l.119-.022c.228-.042.308-.022.363.089.031.062.034.175.043 1.644l.009 1.576 1.154-.245 1.154-.246v-3.993l-.043-.168c-.175-.685-.637-.945-1.358-.763-.545.137-1 .406-1.452.856l-.245.245-.021-.111q-.044-.24-.228-.335c-.169-.089-.247-.08-1.308.145l-.938.196c-.004 0-.008.389-.008.864v.863l.043-.01.206-.045.164-.036v1.697c0 .932.006 1.696.014 1.696s.528-.111 1.158-.246m11.723-.317 3.269-.696c.005 0 .009-.206.009-.46 0-.43-.003-.46-.033-.451l-4.596.981-.249.052v.455c0 .25.005.456.01.456.006 0 .721-.152 1.59-.337m-4.772-1.087c.956-.204 1.476-.447 2.145-1.004l.239-.2v-.571c0-.446-.005-.572-.023-.572-.013 0-.314.063-.667.139l-.643.139-.117.116a1.4 1.4 0 0 1-.437.32c-.312.142-.6.069-.73-.187-.036-.074-.091-.283-.077-.297.002-.002.654-.142 1.447-.311l1.444-.306.013-.075c.025-.138.017-.681-.014-.883-.053-.354-.185-.72-.346-.954-.364-.529-1.013-.794-1.779-.725-1.229.108-2.244.762-2.734 1.757a3.42 3.42 0 0 0-.252 2.294c.164.652.567 1.106 1.15 1.298.238.079.373.094.754.087.308-.006.392-.015.627-.065m-.336-3.039a1.4 1.4 0 0 1 .112-.41c.067-.135.2-.261.292-.279.19-.036.361.16.396.453l.011.096-.25.052c-.139.028-.321.067-.407.086-.142.031-.154.031-.154.002m5.853 1.865c1.542-.325 2.539-1.384 2.7-2.866.074-.672-.058-1.343-.35-1.771-.237-.35-.566-.577-1.008-.696-.175-.047-.214-.05-.582-.051-.339-.001-.424.005-.61.042-.78.157-1.373.458-1.856.942a2.8 2.8 0 0 0-.572.797 3.3 3.3 0 0 0-.348 1.501c0 .767.237 1.38.676 1.75.225.189.484.311.815.38.255.054.81.041 1.135-.028m-.066-1.473c-.1-.042-.194-.219-.247-.47-.053-.248-.047-.932.01-1.198.071-.326.171-.506.328-.587q.189-.099.32.192c.079.171.107.338.119.713.011.38-.01.638-.072.875-.094.36-.277.55-.458.475M4.622 11.007l1.036-.22v-.475c0-.262-.006-.475-.015-.475s-.131.025-.272.055l-.266.057a1 1 0 0 0-.013.172l-.005.171-.329.071a4 4 0 0 1-.334.064 33 33 0 0 1 .567-.877l.574-.871v-.305c0-.281-.003-.303-.033-.295-.045.013-1.985.425-2 .425-.006 0-.012.2-.012.443v.443l.042-.01c.024-.006.137-.029.253-.052l.21-.041.005-.15.005-.152.307-.063c.169-.035.31-.06.315-.056s-.25.4-.565.878l-.572.871v.315c0 .292.002.315.032.307.018-.005.5-.109 1.07-.23m2.489-.514a.9.9 0 0 0 .572-.397c.055-.082.077-.103.077-.074 0 .137.117.245.264.245.083 0 .62-.1.656-.122.01-.006.017-.14.017-.298v-.289l-.109.01c-.187.017-.171.17-.171-1.708 0-1.296-.005-1.628-.024-1.622-.013.005-.241.055-.506.11l-.484.102v.568l.08-.016.122-.027.042-.01v.944l-.038-.048a.5.5 0 0 0-.141-.099c-.284-.139-.74-.034-1.027.236-.21.195-.33.441-.4.816-.05.265-.05.82 0 1.032.084.362.25.573.511.654.133.041.385.038.559-.007m-.082-.635c-.139-.075-.225-.34-.225-.697 0-.495.155-.824.417-.883.096-.021.111-.02.189.019.157.075.237.316.237.705-.001.448-.125.752-.347.855a.3.3 0 0 1-.271.001m2.738.057.685-.144.005-.296c.004-.18-.001-.295-.013-.295-.017 0-.24.043-.335.066l-.042.01v-1.55l.31-.063.31-.064v-.297a3 3 0 0 0-.009-.298c-.004 0-.145.03-.311.067a8 8 0 0 1-.32.065c-.01 0-.017-.118-.017-.283 0-.223.007-.297.03-.348.047-.098.127-.145.264-.154l.118-.008v.115c0 .138-.015.134.29.068.119-.025.221-.047.226-.047s.009-.162.005-.361l-.005-.361-.234.004c-.711.013-1.167.198-1.332.54-.08.163-.097.269-.107.64l-.011.358-.128.024-.129.023v.298c0 .164.006.299.014.299l.08-.017.116-.029.052-.012v1.554l-.122.025-.121.024v.296c0 .225.006.297.023.296.013 0 .332-.066.708-.145"/></svg>