<svg role="img" viewBox="0 0 24 24" xmlns="http://www.w3.org/2000/svg"><title>ZDFTivi</title>
    <path
       d="m 4.0422744,16.356374 c -1.45103,-0.13348 -2.68835,-0.89716 -3.41849,-2.10989 -0.76564,-1.27168 -0.83067,-2.85742 -0.17122,-4.17528 0.2322,-0.4640301 0.46261,-0.7839101 0.82745,-1.1487501 0.27277,-0.27277 0.5237,-0.47082 0.83145,-0.65623 1.27618,-0.76887 2.86716,-0.83514 4.18908,-0.1745 0.78495,0.39229 1.47567,1.0542 1.87955,1.80116 l 0.0903,0.1669701 1.00663,5.9e-4 c 0.55365,3.3e-4 1.0711496,0.009 1.1499996,0.0191 0.74276,0.0961 1.1786,0.47267 1.36673,1.18094 l 0.0422,0.15885 0.013,-0.17266 c 0.0284,-0.37586 0.13538,-0.64506 0.3352,-0.84328 0.1411,-0.13998 0.28725,-0.2246 0.49866,-0.28875 0.14023,-0.0426 0.16545,-0.0436 1.1994,-0.0502 l 1.05615,-0.007 v 0.34376 0.34376 l -0.87455,0.007 c -0.95776,0.008 -0.96898,0.009 -1.15448,0.12687 -0.0694,0.044 -0.10231,0.0838 -0.15094,0.18262 -0.0589,0.1197 -0.0628,0.14081 -0.0737,0.40317 l -0.0115,0.27686 0.97969,-2e-5 0.9797,-2e-5 v 0.34409 0.34408 h -0.98447 -0.98448 v 0.7742 0.7742 h -0.41099 -0.41099 l -10e-4,-0.63561 -0.001,-0.63561 -0.0522,0.16249 c -0.18421,0.57304 -0.56502,0.93099 -1.13018,1.06235 -0.12541,0.0291 -0.28502,0.0343 -1.2740396,0.0412 l -1.13067,0.008 -0.0601,0.11272 c -0.033,0.062 -0.11849,0.20117 -0.18989,0.30929 -0.43754,0.66258 -1.01007,1.16376 -1.73244,1.51655 -0.42821,0.20912 -0.81052,0.32864 -1.28157,0.40064 -0.18822,0.0288 -0.779,0.0512 -0.94544,0.0359 z m 4.20551,-2.72183 v -0.32497 h -1.22342 -1.22342 v -0.18066 c 0,-0.4012 0.0917,-0.5709 0.3632,-0.67182 0.0689,-0.0256 0.19829,-0.0351 0.64994,-0.0476 0.62799,-0.0174 0.74592,-0.0345 0.97045,-0.14112 0.2606,-0.12376 0.44933,-0.35781 0.53234,-0.66015 0.0474,-0.1725 0.0474,-0.57303 0,-0.74553 -0.0831,-0.3026 -0.26589,-0.53724 -0.51229,-0.65755 -0.28236,-0.13787 -0.23384,-0.13357 -1.58787,-0.14072 l -1.21864,-0.006 v 0.345 0.34501 h 1.00007 c 0.63751,0 1.0412,0.008 1.11351,0.0208 0.26234,0.048 0.38808,0.17843 0.4054,0.42039 0.0117,0.16298 -0.0267,0.27733 -0.1209,0.36 -0.1205,0.1058 -0.20654,0.1194 -0.85925,0.13587 -0.65571,0.0165 -0.73874,0.0288 -0.97989,0.1448 -0.15668,0.0754 -0.32949,0.23226 -0.41089,0.37308 -0.0789,0.13655 -0.14332,0.35255 -0.1658,0.55629 -0.0113,0.1021 -0.0205,0.41392 -0.0205,0.69295 v 0.50733 h 1.64398 1.64397 z m 2.1491196,-0.39056 c 0.30928,-0.0853 0.4515,-0.23925 0.54944,-0.59465 0.0377,-0.13682 0.0421,-0.19951 0.0431,-0.62053 9.1e-4,-0.37931 -0.005,-0.4956 -0.032,-0.61171 -0.0915,-0.39603 -0.2995,-0.59481 -0.68005,-0.64986 -0.0702,-0.0101 -0.3619596,-0.0186 -0.6484596,-0.0188 l -0.52091,-3.8e-4 v 1.25847 c 0,0.69215 0.006,1.26517 0.0143,1.27335 0.008,0.008 0.2724,0.0105 0.58781,0.005 0.4483296,-0.008 0.5981996,-0.0166 0.6867496,-0.041 z m 6.49563,0.80957 c -0.29225,-0.045 -0.49403,-0.18579 -0.57294,-0.39989 -0.0905,-0.24563 -0.10539,-0.41581 -0.1147,-1.31423 l -0.009,-0.84588 h -0.20879 -0.2088 l 0.005,-0.31063 0.005,-0.31064 0.20549,-0.005 0.2055,-0.005 v -0.43902 -0.4390201 h 0.51613 0.51613 v 0.4396701 0.43966 h 0.25807 0.25806 v 0.31542 0.31541 h -0.2592 -0.25919 l 0.006,0.80765 c 0.006,0.76334 0.008,0.81178 0.0441,0.88288 0.0612,0.1204 0.11794,0.15012 0.30542,0.15996 l 0.16292,0.009 v 0.32221 c 0,0.31851 -4.9e-4,0.32233 -0.043,0.33199 -0.21707,0.0493 -0.63853,0.0736 -0.81288,0.0468 z m 1.23821,-1.62332 v -1.56751 h 0.50658 0.50657 v 1.56751 1.56751 h -0.50657 -0.50658 z m 2.38766,1.51494 c -0.1671,-0.43893 -1.11508,-3.0081 -1.12162,-3.03974 l -0.009,-0.0433 0.54068,0.005 0.54067,0.005 0.28936,1.05138 c 0.15915,0.57826 0.29323,1.06187 0.29794,1.07469 0.005,0.0128 0.12863,-0.40868 0.27536,-0.93668 0.14674,-0.528 0.28263,-1.01376 0.30198,-1.07947 l 0.0352,-0.11948 h 0.53435 c 0.32645,0 0.53434,0.007 0.53434,0.0183 0,0.0139 -0.85444,2.3319 -1.10835,3.00686 l -0.0413,0.10991 h -0.52479 -0.52479 z m 2.45335,-1.51016 0.005,-1.56273 h 0.50658 0.50657 l 0.005,1.56273 0.005,1.56273 h -0.51635 -0.51636 z m -4.8366,-2.25568 0.005,-0.4157801 0.50179,-0.005 0.5018,-0.005 v 0.4208701 0.42087 h -0.50695 -0.50694 z m 4.83634,0 0.005,-0.4157801 h 0.50658 0.50657 l 0.005,0.4157801 0.005,0.41577 h -0.51687 -0.51688 z"
       fill="#44739e" />
</svg>
