<svg xmlns="http://www.w3.org/2000/svg" viewBox="0 0 24 24"><path fill="#44739e" d="M12 2A10 10 0 1 1 2 12 10 10 0 0 1 12 2m5.5 5.98-1.112 1.732a4.9 4.9 0 0 1 .535 2.246 4.96 4.96 0 0 1-4.956 4.964h-.009a4.8 4.8 0 0 1-2.232-.535L7.98 17.51a6.826 6.826 0 0 0 9.652-9.34Zm-5.542-2.855a6.833 6.833 0 0 0-6.832 6.82v.013a6.77 6.77 0 0 0 1.332 4.052 8 8 0 0 1 1.168-1.61 10 10 0 0 1 1.187-1.06 8.17 8.17 0 0 1 4.833-1.575 8 8 0 0 1 1.458.132l.284.058a3.428 3.428 0 1 0-6.855-.151v.151a2 2 0 0 0 .015.312l.018.155a8.2 8.2 0 0 0-1.292 1.2 5 5 0 0 1-.283-1.649A4.96 4.96 0 0 1 11.94 7h.008a4.8 4.8 0 0 1 2.235.537l1.732-1.124a6.67 6.67 0 0 0-3.957-1.288m1.722 7.263a7.8 7.8 0 0 0-4.567 1.47 3.43 3.43 0 0 0 6.213-1.291 7.7 7.7 0 0 0-1.646-.179"/></svg>