<svg xmlns="http://www.w3.org/2000/svg" viewBox="0 0 24 24"><path fill="#44739e" d="M21.642 8.805a6.24 6.24 0 0 0-4.288-5.063 16.6 16.6 0 0 0-5.356-.7 23 23 0 0 0-2.667.126 10.6 10.6 0 0 0-3.678.986 6.24 6.24 0 0 0-3.262 4.368 15.8 15.8 0 0 0-.28 5.358 9 9 0 0 0 1.045 3.581 6.36 6.36 0 0 0 4.267 3.031 19.8 19.8 0 0 0 5.324.45 17 17 0 0 0 3.797-.442 6.21 6.21 0 0 0 4.687-3.922 14.2 14.2 0 0 0 .411-7.773m-16.525 9.26a.04.04 0 0 1-.054 0 .04.04 0 0 1-.011-.042c.139-.336.528-1.254.682-1.618a.18.18 0 0 0 .015-.131 6 6 0 0 1-.821-2.698 13.3 13.3 0 0 1 .238-4.505 3.53 3.53 0 0 1 2.736-2.767 15.9 15.9 0 0 1 5.311-.356c.575.074.799.294.793.735a3.6 3.6 0 0 1-.75 1.511c-1.036 1.455-7.134 8.72-8.139 9.871m13.703-3.191a3.83 3.83 0 0 1-3.473 2.99 21 21 0 0 1-3.363.262 7.4 7.4 0 0 1-1.367-.1c-.611-.134-.799-.478-.564-1.061a9.8 9.8 0 0 1 1.71-2.531c1.915-2.287 6.277-7.421 7.11-8.393a.04.04 0 0 1 .054 0 .04.04 0 0 1 .011.042c-.137.334-.541 1.127-.7 1.485a.21.21 0 0 0 .016.224 6.2 6.2 0 0 1 .8 2.798 13.6 13.6 0 0 1-.234 4.284"/></svg>