<svg xmlns="http://www.w3.org/2000/svg" viewBox="0 0 24 24"><path fill="#44739e" d="M13.736 12.551a.2.2 0 0 0 0-.055c-.007 0-.053-.936-.043-1.969s-.008-1.919-.008-1.921a.804.804 0 0 0-1.069-.043 13 13 0 0 0-1.847 1.904q-.156.194-.302.397a3 3 0 0 0 .034.37q.458-.609.972-1.173.527-.577 1.108-1.098c.014 0 .059.882.049 1.904s-.007 1.949 0 2.049a.79.79 0 0 0 1.026.067 13 13 0 0 0 2.273-2.423 3 3 0 0 0-.052-.341 16 16 0 0 1-2.141 2.332M3.392 18.548l.424-.425.593.593-.424.424Zm1.469 1.468.423-.425.593.593-.424.424Zm11.76-17.268-9.993 9.993-1.692 1.694.367.366L2 18.102l3.897 3.897 3.302-3.302.368.367L21.252 7.38c.772-.773.98-1.815.466-2.329l-2.766-2.768c-.516-.514-1.559-.306-2.331.465M7.668 19.549l-1.865 1.865-1.522-1.521.932-.932-.438-.438.41-.409.437.438.527-.527Zm-1.693-1.693-.353.353-.438-.439-.748.753.438.438-.762.762-1.525-1.529 1.864-1.864Zm9.901-7.645.038.17c.006.023.015.17.015.17v.005a2.739 2.739 0 0 1-5.43.678 1 1 0 0 1-.027-.178 1 1 0 0 1-.007-.191 2.739 2.739 0 0 1 5.412-.649Z"/></svg>