<?xml version="1.0" encoding="UTF-8"?>
<svg width="24px" fill="#44739e" height="24px" viewBox="0 0 24 24" version="1.1" xmlns="http://www.w3.org/2000/svg" xmlns:xlink="http://www.w3.org/1999/xlink">
            <path d="m 11.987,10.473 c -0.126,0.143 -0.234,0.263 -0.243,0.271 -0.009,0.008 -0.111,0.123 -0.229,0.258 -0.118,0.135 -0.22,0.249 -0.229,0.257 -0.009,0.008 -0.111,0.123 -0.228,0.258 -0.117,0.135 -0.275,0.306 -0.347,0.386 -0.072,0.08 -0.234,0.257 -0.357,0.4 -0.381,0.432 -0.395,0.449 -0.5,0.561 -0.054,0.057 -0.131,0.143 -0.169,0.189 -0.038,0.046 -0.18,0.2 -0.311,0.352 -0.131,0.152 -0.329,0.369 -0.435,0.486 -0.106,0.117 -0.278,0.309 -0.381,0.426 l -0.191,0.215 v 1.607 h 7.253 v -0.981 c 0,-0.961 0,-0.984 -0.057,-0.995 -0.032,-0.006 -0.958,-0.012 -2.06,-0.012 -1.102,0 -2.013,0 -2.025,0 -0.029,0 0.037,-0.088 0.272,-0.354 0.1,-0.109 0.2,-0.226 0.231,-0.261 0.031,-0.035 0.115,-0.131 0.192,-0.217 0.077,-0.086 0.166,-0.189 0.2,-0.229 0.058,-0.069 0.1,-0.12 0.341,-0.386 0.057,-0.063 0.174,-0.2 0.26,-0.3 0.16,-0.188 0.375,-0.431 0.4,-0.457 0.008,-0.009 0.1,-0.112 0.2,-0.229 0.1,-0.117 0.22,-0.255 0.263,-0.3 l 0.137,-0.158 0.223,-0.254 c 0.089,-0.1 0.192,-0.218 0.226,-0.258 0.034,-0.04 0.089,-0.1 0.118,-0.131 0.029,-0.031 0.134,-0.155 0.237,-0.272 l 0.2,-0.229 c 0.009,-0.008 0.1,-0.111 0.2,-0.229 0.1,-0.118 0.22,-0.251 0.263,-0.3 l 0.08,-0.086 V 7.867 H 8.512 v 1.982 h 2 l 2,0.006 c 0.017,0.006 -0.069,0.117 -0.183,0.24 -0.064,0.066 -0.216,0.238 -0.342,0.378 z M 18.4,6.694 a 1.415,1.415 0 0 0 1.23,-0.792 1.285,1.285 0 0 0 0.143,-0.721 1.413,1.413 0 0 0 -0.987,-1.287 1.676,1.676 0 0 0 -0.815,-0.018 1.465,1.465 0 0 0 -0.99,0.936 1.585,1.585 0 0 0 0,0.895 1.426,1.426 0 0 0 1.419,0.987 z m 3.585,4.522 c -0.043,-0.432 -0.061,-0.6 -0.072,-0.643 -0.006,-0.023 -0.02,-0.1 -0.029,-0.172 A 10.345,10.345 0 0 0 21.478,8.779 C 21.278,8.17 21.192,8.016 21.001,7.887 a 0.715,0.715 0 0 0 -0.747,-0.046 0.666,0.666 0 0 0 -0.369,0.4 0.713,0.713 0 0 0 0.014,0.58 9.478,9.478 0 0 1 0.452,1.568 c 0.017,0.094 0.037,0.2 0.043,0.232 0.012,0.051 0.04,0.288 0.089,0.74 0.017,0.143 0.017,1.127 0,1.3 A 8.559,8.559 0 0 1 19.078,16.723 9.067,9.067 0 0 1 16.821,19.017 8.648,8.648 0 0 1 13.4,20.4 l -0.186,0.032 a 3.625,3.625 0 0 1 -0.529,0.057 9.086,9.086 0 0 1 -2.174,-0.1 L 10.268,20.343 A 8.934,8.934 0 0 1 7.808,19.417 8.764,8.764 0 0 1 5.359,17.323 9.878,9.878 0 0 1 4.753,16.47 C 4.742,16.447 4.687,16.35 4.63,16.256 c -0.114,-0.2 -0.363,-0.7 -0.466,-0.93 a 9.528,9.528 0 0 1 -0.475,-1.5 10.319,10.319 0 0 1 -0.172,-1.187 c -0.017,-0.171 -0.017,-1.132 0,-1.258 0.009,-0.055 0.02,-0.192 0.032,-0.3 a 9.326,9.326 0 0 1 0.2,-1.13 8.534,8.534 0 0 1 4.577,-5.617 8.33,8.33 0 0 1 3.032,-0.818 10.817,10.817 0 0 1 1.67,0.031 1.2,1.2 0 0 0 0.161,0.029 7.488,7.488 0 0 1 1.315,0.295 0.976,0.976 0 0 0 0.758,0.034 A 0.722,0.722 0 0 0 15.7,3.233 0.739,0.739 0 0 0 15.3,2.566 9.16,9.16 0 0 0 13.16,2.06 L 12.931,2.031 c -0.1,-0.014 -1.547,-0.04 -1.562,-0.028 a 1.6,1.6 0 0 1 -0.257,0.028 c -0.135,0.012 -0.269,0.023 -0.3,0.029 -0.031,0.006 -0.132,0.02 -0.226,0.032 -0.094,0.012 -0.2,0.025 -0.229,0.031 l -0.215,0.04 A 9.913,9.913 0 0 0 7.611,3.01 10.059,10.059 0 0 0 2.422,9.085 a 11.488,11.488 0 0 0 -0.3,1.3 c -0.006,0.046 -0.023,0.143 -0.035,0.214 -0.02,0.143 -0.026,0.189 -0.06,0.544 A 13.162,13.162 0 0 0 2.061,13.2 c 0.029,0.191 0.04,0.283 0.058,0.423 0.011,0.077 0.028,0.189 0.043,0.243 a 1.9,1.9 0 0 1 0.04,0.186 10.437,10.437 0 0 0 0.54,1.759 10.039,10.039 0 0 0 7.071,5.967 c 0.138,0.029 0.521,0.1 0.572,0.109 0.069,0.011 0.318,0.046 0.415,0.063 a 13.093,13.093 0 0 0 2.432,-0.006 c 0.454,-0.066 0.872,-0.146 1.187,-0.226 a 10.186,10.186 0 0 0 5.437,-3.532 10.734,10.734 0 0 0 1.422,-2.446 9.8,9.8 0 0 0 0.546,-1.845 7.077,7.077 0 0 0 0.12,-0.787 c 0.009,-0.08 0.023,-0.174 0.032,-0.214 0.024,-0.122 0.031,-1.429 0.009,-1.678 z"/>

</svg>